<?xml version="1.0" encoding="utf-8"?>
<!-- Generator: Adobe Illustrator 18.0.0, SVG Export Plug-In . SVG Version: 6.00 Build 0)  -->
<!DOCTYPE svg PUBLIC "-//W3C//DTD SVG 1.1//EN" "http://www.w3.org/Graphics/SVG/1.1/DTD/svg11.dtd">
<svg version="1.1" id="Layer_1" xmlns="http://www.w3.org/2000/svg" xmlns:xlink="http://www.w3.org/1999/xlink" x="0px" y="0px"
	 viewBox="0 0 129.5 129.5" enable-background="new 0 0 129.5 129.5" xml:space="preserve">
<g>
	<g>
		<g>
			<polygon fill="#FFD05B" points="33.5,112.3 33,116.7 29.1,118.8 33.1,120.6 33.9,125 36.9,121.7 41.3,122.3 39.1,118.5 41,114.5 
				36.7,115.4 			"/>
		</g>
		<g>
			<path fill="#231F20" d="M7.8,67.2c-0.2,0-0.4-0.1-0.5-0.2c-0.3-0.3-0.3-0.8,0-1.1l1.3-1.3c0.3-0.3,0.8-0.3,1.1,0
				c0.3,0.3,0.3,0.8,0,1.1L8.4,67C8.2,67.1,8,67.2,7.8,67.2z"/>
		</g>
		<g>
			<path fill="#231F20" d="M3.8,71.3c-0.2,0-0.4-0.1-0.5-0.2c-0.3-0.3-0.3-0.8,0-1.1l1.3-1.3c0.3-0.3,0.8-0.3,1.1,0
				c0.3,0.3,0.3,0.8,0,1.1L4.3,71C4.2,71.2,4,71.3,3.8,71.3z"/>
		</g>
		<g>
			<path fill="#231F20" d="M9.2,71.3c-0.2,0-0.4-0.1-0.5-0.2l-1.3-1.3C7,69.4,7,69,7.3,68.7c0.3-0.3,0.8-0.3,1.1,0L9.7,70
				c0.3,0.3,0.3,0.8,0,1.1C9.5,71.2,9.3,71.3,9.2,71.3z"/>
		</g>
		<g>
			<path fill="#231F20" d="M5.1,67.2c-0.2,0-0.4-0.1-0.5-0.2l-1.3-1.3c-0.3-0.3-0.3-0.8,0-1.1c0.3-0.3,0.8-0.3,1.1,0l1.3,1.3
				c0.3,0.3,0.3,0.8,0,1.1C5.5,67.1,5.3,67.2,5.1,67.2z"/>
		</g>
		<g>
			<g>
				<path fill="#231F20" d="M45.3,5.5c-0.2,0-0.4-0.1-0.5-0.2c-0.3-0.3-0.3-0.8,0-1.1l1.3-1.3c0.3-0.3,0.8-0.3,1.1,0
					c0.3,0.3,0.3,0.8,0,1.1l-1.3,1.3C45.7,5.4,45.5,5.5,45.3,5.5z"/>
			</g>
			<g>
				<path fill="#231F20" d="M41.2,9.5c-0.2,0-0.4-0.1-0.5-0.2c-0.3-0.3-0.3-0.8,0-1.1L42,6.9c0.3-0.3,0.8-0.3,1.1,0
					c0.3,0.3,0.3,0.8,0,1.1l-1.3,1.3C41.6,9.5,41.4,9.5,41.2,9.5z"/>
			</g>
			<g>
				<path fill="#231F20" d="M46.6,9.5c-0.2,0-0.4-0.1-0.5-0.2L44.8,8c-0.3-0.3-0.3-0.8,0-1.1c0.3-0.3,0.8-0.3,1.1,0l1.3,1.3
					c0.3,0.3,0.3,0.8,0,1.1C47,9.5,46.8,9.5,46.6,9.5z"/>
			</g>
			<g>
				<path fill="#231F20" d="M42.5,5.5c-0.2,0-0.4-0.1-0.5-0.2l-1.3-1.3c-0.3-0.3-0.3-0.8,0-1.1c0.3-0.3,0.8-0.3,1.1,0l1.3,1.3
					c0.3,0.3,0.3,0.8,0,1.1C42.9,5.4,42.7,5.5,42.5,5.5z"/>
			</g>
		</g>
		<rect x="23" y="83.7" fill="#FFFFFF" width="8.1" height="24.5"/>
		<g>
			<rect x="0" y="80.7" fill="#84DBFF" width="24.7" height="30.5"/>
		</g>
		<g>
			<line fill="#FFFFFF" x1="125.6" y1="88.7" x2="129.5" y2="88.7"/>
			<rect x="125.6" y="88" fill="#231F20" width="3.9" height="1.5"/>
		</g>
		<polygon fill="#E6E9EE" points="121.1,31.5 121.1,41 114,41 66.6,62.1 46,62.1 46,64.2 40.1,64.2 40.1,54.7 46,54.7 46,52.6 
			66.6,52.6 114,31.5 		"/>
		<polygon fill="#FFFFFF" points="62.2,112 64.1,75.8 51.8,75.8 53.8,112 		"/>
		<path fill="#FFFFFF" d="M67,107.1h-6.2c-1.4,0-2.6-1.2-2.6-2.6l0,0c0-1.4,1.2-2.6,2.6-2.6H67c1.4,0,2.6,1.2,2.6,2.6l0,0
			C69.6,106,68.5,107.1,67,107.1z"/>
		<path fill="#FFFFFF" d="M69.5,102h-9.6c-1.4,0-2.6-1.2-2.6-2.6l0,0c0-1.4,1.2-2.6,2.6-2.6h9.6c1.4,0,2.6,1.2,2.6,2.6l0,0
			C72,100.8,70.9,102,69.5,102z"/>
		<path fill="#FFFFFF" d="M71.8,96.9h-12c-1.4,0-2.5-1.1-2.5-2.5v-0.1c0-1.4,1.1-2.5,2.5-2.5h12c1.4,0,2.5,1.1,2.5,2.5v0.1
			C74.3,95.8,73.2,96.9,71.8,96.9z"/>
		<path fill="#FFFFFF" d="M70.5,91.8H59.7c-1.4,0-2.5-1.1-2.5-2.5v-0.2c0-1.4,1.1-2.5,2.5-2.5h10.8c1.4,0,2.5,1.1,2.5,2.5v0.2
			C72.9,90.7,71.8,91.8,70.5,91.8z"/>
		<line fill="none" x1="125.6" y1="39.6" x2="129.5" y2="39.6"/>
		<rect x="125.6" y="38.9" fill="#231F20" width="3.9" height="1.5"/>
		<line fill="none" x1="125.6" y1="51.9" x2="129.5" y2="51.9"/>
		<rect x="125.6" y="51.1" fill="#231F20" width="3.9" height="1.5"/>
		<line fill="none" x1="125.6" y1="64.2" x2="129.5" y2="64.2"/>
		<rect x="125.6" y="63.4" fill="#231F20" width="3.9" height="1.5"/>
		<line fill="none" x1="125.6" y1="76.4" x2="129.5" y2="76.4"/>
		<rect x="125.6" y="75.7" fill="#231F20" width="3.9" height="1.5"/>
		<line fill="none" x1="114" y1="31.5" x2="114" y2="67.8"/>
		<line fill="none" x1="114" y1="72.6" x2="114" y2="77.4"/>
		<path fill="#231F20" d="M114,78.2c-0.4,0-0.8-0.3-0.8-0.8v-4.8c0-0.4,0.3-0.8,0.8-0.8c0.4,0,0.8,0.3,0.8,0.8v4.8
			C114.8,77.8,114.4,78.2,114,78.2z"/>
		<path fill="#FFFFFF" d="M46.3,94.4L46.3,94.4c3.6,0,6.5-2.9,6.5-6.5l0,0h9.7c3.4,0,6.2-2.8,6.2-6.2l0,0H43.7l-6.2,5.4h-6.4
			L46.3,94.4z"/>
		<path fill="#231F20" d="M121.1,30.7H114c-0.1,0-0.2,0-0.3,0.1l-47.2,21H46c-0.4,0-0.8,0.3-0.8,0.8v1.3h-5.1
			c-0.4,0-0.8,0.3-0.8,0.8v19c0,0.4,0.3,0.8,0.8,0.8h5.1v1.3c0,0.4,0.3,0.8,0.8,0.8h5.1l0.2,4.4h-7.6c-0.2,0-0.4,0.1-0.5,0.2l-6,5.2
			h-5.3v-2.6c0-0.4-0.3-0.8-0.8-0.8h-6.4v1.5h5.6v23h-5.6v1.5h6.4c0.4,0,0.8-0.3,0.8-0.8v-3.1H39l2.5,2.5c0.1,0.1,0.3,0.2,0.5,0.2
			h10.7l0.3,4.2c0,0.4,0.4,0.7,0.8,0.7h8.4c0.4,0,0.7-0.3,0.8-0.7l0.2-4.2H67c1.8,0,3.3-1.5,3.3-3.3c0-0.7-0.2-1.3-0.6-1.9
			c1.7-0.2,3-1.6,3-3.3c0-0.6-0.2-1.2-0.5-1.8c1.6-0.3,2.8-1.6,2.8-3.3c0-1.4-0.9-2.6-2.1-3.1c0.4-0.6,0.7-1.2,0.7-2v-0.2
			c0-1.8-1.4-3.2-3.2-3.2H68c0.9-1.2,1.4-2.6,1.4-4.2c0-0.4-0.3-0.8-0.8-0.8h-4l0.2-4.4h1.7l47.2,21c0.1,0,0.2,0.1,0.3,0.1h7.1
			c0.4,0,0.8-0.3,0.8-0.8V31.5C121.9,31.1,121.6,30.7,121.1,30.7z M45.2,72.9h-4.4V55.4h4.4V72.9z M52.6,76.5h10.7L63.1,81H52.8
			L52.6,76.5z M42.4,106.4l-2.5-2.5c-0.2-0.1-0.3-0.2-0.5-0.2h-7.5V87.9h5.6c0.2,0,0.4-0.1,0.5-0.2l6-5.2h23.8
			c-0.4,2.6-2.6,4.7-5.4,4.7h-9.7c-0.4,0-0.8,0.3-0.8,0.8c0,3.1-2.5,5.7-5.7,5.7c-0.3,0-0.6,0.2-0.7,0.4c-0.1,0.1-0.1,0.2-0.1,0.3
			c0,0.4,0.3,0.8,0.8,0.8c2.2,0,4.2-1,5.6-2.6l0.8,13.9H42.4z M61.4,111.3h-7l-1.2-21.8c0.1-0.3,0.1-0.5,0.1-0.8h3.1
			c0,0.2-0.1,0.3-0.1,0.5v0.2c0,1,0.5,1.9,1.2,2.5c-0.7,0.6-1.2,1.5-1.2,2.6c0,1,0.5,1.9,1.2,2.5c-0.7,0.6-1.2,1.5-1.2,2.5
			c0,1.3,0.7,2.4,1.8,2.9c-0.5,0.6-0.8,1.4-0.8,2.2c0,1.8,1.5,3.3,3.3,3.3h0.8L61.4,111.3z M67,106.4h-6.2c-1,0-1.8-0.8-1.8-1.8
			s0.8-1.8,1.8-1.8H67c1,0,1.8,0.8,1.8,1.8S68,106.4,67,106.4z M69.4,101.2h-9.6c-1,0-1.8-0.8-1.8-1.8c0-0.8,0.6-1.5,1.3-1.8
			c0.2,0,10.7,0.1,10.7,0.1c0.7,0.3,1.2,0.9,1.2,1.7C71.3,100.4,70.5,101.2,69.4,101.2z M73.6,94.4c0,1-0.8,1.8-1.8,1.8h-1.5
			c-0.3-0.1-10.8-0.1-10.9-0.1c-0.8-0.2-1.3-0.9-1.3-1.7c0-1,0.8-1.8,1.8-1.8h11.9C72.8,92.5,73.6,93.4,73.6,94.4z M70.5,87.4
			c1,0,1.7,0.8,1.7,1.7v0.2c0,1-0.8,1.7-1.7,1.7H59.8c-1,0-1.7-0.8-1.7-1.7v-0.2c0-0.2,0-0.3,0.1-0.5h4.3c1.5,0,2.9-0.5,4-1.3H70.5z
			 M65.9,75H46.7V53.3h19.2V75z M120.4,96.1h-6.2L67.4,75.3V53.1l45.8-20.4v35.1c0,0.4,0.3,0.8,0.8,0.8s0.8-0.3,0.8-0.8V32.2h5.6
			V96.1z"/>
		<g>
			<circle fill="#FF7058" cx="90.7" cy="6.7" r="2.7"/>
		</g>
		<g>
			<circle fill="#4CDBC4" cx="24.7" cy="65.8" r="2.7"/>
		</g>
		<g>
			<circle fill="#E6E9EE" cx="54.5" cy="121.3" r="2.7"/>
		</g>
		<path fill="#FFD05B" d="M31.7,16C31.7,7.5,24.6,0.6,16,1C8.4,1.4,2.1,7.7,1.8,15.3C1.6,19.6,3.2,23.6,6,26.4
			c2.3,2.3,3.6,5.4,3.6,8.6v4.9h14.2v-4.6c0-3.4,1.4-6.6,3.7-9C30.1,23.6,31.7,20,31.7,16z"/>
		<path fill="#FFFFFF" d="M25.9,39.9H7.5v7.4c0,1.7,1.4,3.1,3.1,3.1h12.3c1.7,0,3.1-1.4,3.1-3.1V39.9z"/>
		<circle fill="#FFFFFF" cx="13.6" cy="16.5" r="3.1"/>
		<circle fill="#FFFFFF" cx="19.8" cy="16.5" r="3.1"/>
		<g>
			<path fill="#231F20" d="M28.1,26.9c2.8-2.9,4.4-6.8,4.4-10.9c0-8.9-7.5-16.1-16.5-15.7c-8,0.4-14.6,7-15,15
				c-0.2,4.4,1.4,8.5,4.4,11.6c2.2,2.3,3.4,5.1,3.4,8.1v4.2H7.5c-0.4,0-0.8,0.3-0.8,0.8v7.4c0,2.1,1.7,3.9,3.9,3.9h12.2
				c2.1,0,3.9-1.7,3.9-3.9v-7.4c0-0.4-0.3-0.8-0.8-0.8h-1.4v-3.8C24.6,32.2,25.8,29.2,28.1,26.9z M25.2,47.3c0,1.3-1.1,2.4-2.4,2.4
				H10.6c-1.3,0-2.4-1.1-2.4-2.4v-6.6h16.9V47.3z M19.8,14.1c1.3,0,2.4,1.1,2.4,2.4s-1.1,2.4-2.4,2.4s-2.4-1.1-2.4-2.4
				S18.5,14.1,19.8,14.1z M17.5,39.2V19.5c0.7,0.5,1.5,0.8,2.4,0.8c2.1,0,3.9-1.7,3.9-3.9s-1.7-3.9-3.9-3.9c-1.3,0-2.4,0.6-3.1,1.6
				c-0.7-1-1.8-1.6-3.1-1.6c-2.1,0-3.9,1.7-3.9,3.9s1.7,3.9,3.9,3.9c0.9,0,1.7-0.3,2.4-0.8v19.6h-5.6V35c0-3.3-1.4-6.6-3.9-9.1
				c-2.8-2.8-4.2-6.6-4-10.5C2.8,8.1,8.8,2.1,16,1.8C24.2,1.4,30.9,7.9,30.9,16c0,3.7-1.4,7.2-3.9,9.8c-2.5,2.6-3.9,6-3.9,9.6v3.8
				H17.5z M16,16.5c0,1.3-1.1,2.4-2.4,2.4c-1.3,0-2.4-1.1-2.4-2.4s1.1-2.4,2.4-2.4C14.9,14.1,16,15.2,16,16.5z"/>
			<rect x="13.2" y="52.7" fill="#231F20" width="7.1" height="1.5"/>
		</g>
		<g>
			<circle fill="#FFD05B" cx="94.5" cy="112" r="12.9"/>
			<path fill="#231F20" d="M94.5,125.6c-7.5,0-13.6-6.1-13.6-13.6c0-7.5,6.1-13.6,13.6-13.6c7.5,0,13.6,6.1,13.6,13.6
				C108.2,119.5,102,125.6,94.5,125.6z M94.5,99.9c-6.7,0-12.1,5.4-12.1,12.1c0,6.7,5.4,12.1,12.1,12.1c6.7,0,12.1-5.4,12.1-12.1
				C106.6,105.3,101.2,99.9,94.5,99.9z"/>
		</g>
		<g>
			<path fill="#231F20" d="M95.2,129.2l-0.1-1.5c0.3,0,0.6,0,1-0.1l0.1,1.5C95.9,129.2,95.5,129.2,95.2,129.2z M93,129.2
				c-0.4,0-0.7-0.1-1.1-0.1l0.2-1.5c0.3,0,0.6,0.1,1,0.1L93,129.2z M98.3,128.8l-0.3-1.5c0.3-0.1,0.6-0.1,0.9-0.2l0.4,1.5
				C99,128.7,98.7,128.8,98.3,128.8z M89.9,128.6c-0.3-0.1-0.7-0.2-1-0.3l0.5-1.4c0.3,0.1,0.6,0.2,0.9,0.3L89.9,128.6z M101.3,127.9
				l-0.6-1.4c0.3-0.1,0.6-0.3,0.9-0.4l0.7,1.4C102,127.6,101.6,127.7,101.3,127.9z M87,127.5c-0.3-0.2-0.6-0.3-0.9-0.5l0.7-1.3
				c0.3,0.2,0.6,0.3,0.9,0.5L87,127.5z M104.1,126.4l-0.8-1.3c0.3-0.2,0.5-0.4,0.8-0.6l0.9,1.2C104.7,126,104.4,126.2,104.1,126.4z
				 M84.3,125.8c-0.3-0.2-0.6-0.4-0.8-0.7l1-1.2c0.2,0.2,0.5,0.4,0.8,0.6L84.3,125.8z M106.6,124.4l-1.1-1.1
				c0.2-0.2,0.5-0.5,0.7-0.7l1.1,1C107.1,123.9,106.8,124.1,106.6,124.4z M81.9,123.7c-0.2-0.3-0.5-0.5-0.7-0.8l1.2-1
				c0.2,0.2,0.4,0.5,0.6,0.7L81.9,123.7z M108.6,121.9l-1.2-0.9c0.2-0.3,0.4-0.5,0.5-0.8l1.3,0.8C109,121.4,108.8,121.7,108.6,121.9
				z M80,121.2c-0.2-0.3-0.4-0.6-0.5-0.9l1.3-0.7c0.2,0.3,0.3,0.6,0.5,0.8L80,121.2z M110.2,119.2l-1.4-0.6c0.1-0.3,0.3-0.6,0.4-0.9
				l1.4,0.5C110.5,118.6,110.4,118.9,110.2,119.2z M78.5,118.4c-0.1-0.3-0.3-0.7-0.4-1l1.4-0.5c0.1,0.3,0.2,0.6,0.3,0.9L78.5,118.4z
				 M111.3,116.2l-1.5-0.4c0.1-0.3,0.1-0.6,0.2-0.9l1.5,0.3C111.4,115.5,111.3,115.9,111.3,116.2z M77.6,115.3
				c-0.1-0.3-0.1-0.7-0.2-1l1.5-0.2c0,0.3,0.1,0.6,0.2,1L77.6,115.3z M111.7,113.1l-1.5-0.1c0-0.3,0-0.6,0-1l0-0.3l1.5,0l0,0.4
				C111.8,112.4,111.8,112.7,111.7,113.1z M77.3,112.2l0-0.2c0-0.3,0-0.6,0-0.9l1.5,0.1c0,0.3,0,0.5,0,0.8l0,0.2L77.3,112.2z
				 M110.1,109.8c0-0.3-0.1-0.6-0.2-1l1.5-0.3c0.1,0.3,0.1,0.7,0.2,1L110.1,109.8z M79.1,109.3l-1.5-0.3c0.1-0.3,0.1-0.7,0.2-1
				l1.5,0.3C79.2,108.7,79.1,109,79.1,109.3z M109.4,107c-0.1-0.3-0.2-0.6-0.3-0.9l1.4-0.6c0.1,0.3,0.3,0.7,0.4,1L109.4,107z
				 M79.8,106.5l-1.4-0.5c0.1-0.3,0.3-0.7,0.4-1l1.4,0.6C80.1,105.9,79.9,106.2,79.8,106.5z M108.2,104.3c-0.2-0.3-0.3-0.6-0.5-0.8
				l1.3-0.8c0.2,0.3,0.4,0.6,0.5,0.9L108.2,104.3z M81.1,103.9l-1.3-0.8c0.2-0.3,0.4-0.6,0.6-0.9l1.2,0.9
				C81.4,103.4,81.2,103.6,81.1,103.9z M106.6,101.9c-0.2-0.2-0.4-0.5-0.6-0.7l1.1-1c0.2,0.3,0.5,0.5,0.7,0.8L106.6,101.9z
				 M82.8,101.6l-1.1-1c0.2-0.3,0.5-0.5,0.7-0.8l1.1,1.1C83.2,101.1,83,101.3,82.8,101.6z M104.6,99.9c-0.2-0.2-0.5-0.4-0.8-0.6
				l0.9-1.2c0.3,0.2,0.6,0.4,0.8,0.6L104.6,99.9z M84.9,99.6L84,98.4c0.3-0.2,0.6-0.4,0.9-0.6l0.9,1.3
				C85.4,99.2,85.2,99.4,84.9,99.6z M102.2,98.3c-0.3-0.2-0.6-0.3-0.9-0.4l0.7-1.4c0.3,0.2,0.6,0.3,0.9,0.5L102.2,98.3z M87.3,98
				l-0.7-1.3c0.3-0.2,0.6-0.3,1-0.5l0.6,1.4C87.9,97.8,87.6,97.9,87.3,98z M99.5,97.1c-0.3-0.1-0.6-0.2-0.9-0.3l0.4-1.5
				c0.3,0.1,0.7,0.2,1,0.3L99.5,97.1z M90,97l-0.4-1.5c0.3-0.1,0.7-0.2,1-0.3l0.3,1.5C90.6,96.8,90.3,96.9,90,97z M96.7,96.4
				c-0.3,0-0.6-0.1-1-0.1l0.1-1.5c0.4,0,0.7,0.1,1.1,0.1L96.7,96.4z M92.9,96.4l-0.2-1.5c0.3,0,0.7-0.1,1.1-0.1l0.1,1.5
				C93.5,96.3,93.2,96.4,92.9,96.4z"/>
		</g>
		<g>
			<g>
				<path fill="#231F20" d="M94.5,120.4c-2.5,0-4.6-2-4.6-4.6h1.5c0,1.7,1.4,3,3,3s3-1.4,3-3c0-1.7-1.4-3-3-3c-2.5,0-4.6-2-4.6-4.6
					c0-2.5,2-4.6,4.6-4.6c2.5,0,4.6,2,4.6,4.6h-1.5c0-1.7-1.4-3-3-3s-3,1.4-3,3c0,1.7,1.4,3,3,3c2.5,0,4.6,2,4.6,4.6
					C99.1,118.3,97.1,120.4,94.5,120.4z"/>
			</g>
			<g>
				<rect x="93.8" y="102.6" fill="#231F20" width="1.5" height="1.9"/>
			</g>
			<g>
				<rect x="93.8" y="119.6" fill="#231F20" width="1.5" height="1.9"/>
			</g>
		</g>
		<g>
			<path fill="#FF7058" d="M111.8,4.8c-3.6,0-6.5,2.9-6.5,6.5c0,3.6,6.5,13.1,6.5,13.1s6.5-9.5,6.5-13.1
				C118.3,7.7,115.4,4.8,111.8,4.8z M111.8,14.3c-1.6,0-2.8-1.3-2.8-2.8c0-1.6,1.3-2.8,2.8-2.8c1.6,0,2.8,1.3,2.8,2.8
				C114.7,13,113.4,14.3,111.8,14.3z"/>
		</g>
		<g>
			<path fill="#231F20" d="M74.5,37.1h-0.9v-1.5h0.9l0.1,1.5L74.5,37.1z M71.6,37.1h-1v-1.5h1V37.1z M68.5,37.1h-1v-1.5h1V37.1z
				 M65.5,37.1h-1v-1.5h1V37.1z M62.4,37.1h-1v-1.5h1V37.1z M59.4,37.1h-1v-1.5h1V37.1z M56.4,37.1h-1v-1.5h1V37.1z M53.3,37.1h-1
				v-1.5h1V37.1z M50.3,37.1H50v-1.5h0.4V37.1z M76.8,36.7l-0.5-1.4c0.3-0.1,0.5-0.2,0.8-0.4l0.8,1.3C77.5,36.4,77.2,36.6,76.8,36.7
				z M79.6,34.8l-1.1-1c0.2-0.2,0.4-0.5,0.5-0.7l1.3,0.8C80.1,34.2,79.9,34.5,79.6,34.8z M81.1,31.8l-1.5-0.3
				c0.1-0.3,0.1-0.6,0.1-0.9l1.5,0.1C81.3,31,81.2,31.4,81.1,31.8z M81.5,28.9l-1.4-0.5c0.1-0.4,0.3-0.7,0.4-1.1l1.3,0.7
				C81.7,28.3,81.6,28.6,81.5,28.9z M82.9,26.6l-1-1.1c0.3-0.3,0.6-0.5,0.9-0.7l0.8,1.3C83.4,26.2,83.1,26.4,82.9,26.6z M85.2,25.3
				l-0.4-1.5c0.4-0.1,0.7-0.2,1.1-0.2l0.1,1.5C85.8,25.2,85.5,25.3,85.2,25.3z M110.3,25.2h-1v-1.5h1V25.2z M107.3,25.2h-1v-1.5h1
				V25.2z M104.2,25.2h-1v-1.5h1V25.2z M101.2,25.2h-1v-1.5h1V25.2z M98.2,25.2h-1v-1.5h1V25.2z M95.1,25.2h-1v-1.5h1V25.2z
				 M92.1,25.2h-1v-1.5h1V25.2z M89.1,25.2h-1v-1.5h1V25.2z"/>
		</g>
		<g>
			<path fill="#231F20" d="M42.5,41.5c-2.8,0-5.2-2.3-5.2-5.2c0-2.8,2.3-5.2,5.2-5.2c2.8,0,5.2,2.3,5.2,5.2
				C47.7,39.2,45.4,41.5,42.5,41.5z M42.5,32.7c-2,0-3.6,1.6-3.6,3.6s1.6,3.6,3.6,3.6c2,0,3.6-1.6,3.6-3.6S44.5,32.7,42.5,32.7z"/>
		</g>
		<g>
			<g>
				<rect x="49.2" y="24.2" fill="#E6E9EE" width="4.8" height="7.7"/>
			</g>
			<g>
				<rect x="55.9" y="13.8" fill="#84DBFF" width="4.8" height="18.2"/>
			</g>
			<g>
				<rect x="70.8" y="9.3" fill="#84DBFF" width="4.8" height="22.7"/>
			</g>
			<g>
				<rect x="63.6" y="17.5" fill="#E6E9EE" width="4.8" height="14.4"/>
			</g>
		</g>
	</g>
</g>
</svg>
