<?xml version="1.0" encoding="UTF-8"?>
<svg xmlns="http://www.w3.org/2000/svg" xmlns:xlink="http://www.w3.org/1999/xlink" width="200px" height="200px" viewBox="0 0 200 200" version="1.1">
<g id="surface1">
<path style=" stroke:none;fill-rule:nonzero;fill:rgb(100%,100%,100%);fill-opacity:1;" d="M 133.4375 163.398438 L 92.972656 122.933594 L 97.453125 116.292969 L 94.207031 114.441406 C 91.121094 112.742188 87.566406 112.742188 84.324219 114.285156 C 84.324219 114.285156 84.324219 114.285156 84.167969 114.285156 C 80 116.449219 73.511719 118.917969 66.5625 119.074219 L 49.421875 147.027344 L 96.214844 193.511719 C 98.53125 195.832031 102.238281 195.832031 104.554688 193.511719 C 106.871094 191.195312 106.871094 187.492188 104.554688 185.171875 L 105.792969 186.410156 C 108.109375 188.570312 111.816406 188.570312 114.132812 186.253906 C 116.449219 183.9375 116.449219 180.230469 114.132812 177.914062 L 115.210938 178.996094 C 117.527344 181.3125 121.234375 181.3125 123.550781 178.996094 C 125.867188 176.679688 125.867188 172.972656 123.550781 170.65625 L 124.789062 171.890625 C 127.105469 174.207031 130.8125 174.207031 133.128906 171.890625 C 135.753906 169.574219 135.753906 165.714844 133.4375 163.398438 Z M 133.4375 163.398438 "/>
<path style=" stroke:none;fill-rule:nonzero;fill:rgb(13.72549%,12.156863%,12.54902%);fill-opacity:1;" d="M 97.605469 117.835938 C 97.296875 117.835938 97.144531 117.835938 96.832031 117.683594 L 93.4375 115.832031 C 90.8125 114.441406 87.722656 114.285156 85.097656 115.675781 C 84.324219 115.984375 83.398438 115.832031 83.089844 115.058594 C 82.625 114.285156 82.933594 113.359375 83.707031 113.050781 C 87.257812 111.195312 91.429688 111.351562 94.980469 113.203125 L 98.378906 115.058594 C 99.152344 115.519531 99.304688 116.449219 98.996094 117.21875 C 98.6875 117.527344 98.070312 117.835938 97.605469 117.835938 Z M 97.605469 117.835938 "/>
<path style=" stroke:none;fill-rule:nonzero;fill:rgb(19.607843%,29.019608%,36.862745%);fill-opacity:1;" d="M 198.457031 59.613281 L 198.457031 142.394531 L 171.429688 159.074219 L 134.515625 98.6875 Z M 198.457031 59.613281 "/>
<path style=" stroke:none;fill-rule:nonzero;fill:rgb(100%,100%,100%);fill-opacity:1;" d="M 45.054688 158.503906 L 33.195312 151.253906 L 60.980469 105.789062 L 72.839844 113.035156 Z M 45.054688 158.503906 "/>
<path style=" stroke:none;fill-rule:nonzero;fill:rgb(19.607843%,29.019608%,36.862745%);fill-opacity:1;" d="M 65.484375 98.6875 L 28.726562 159.074219 L 1.542969 142.394531 L 1.542969 59.613281 Z M 65.484375 98.6875 "/>
<path style=" stroke:none;fill-rule:nonzero;fill:rgb(100%,100%,100%);fill-opacity:1;" d="M 109.5 127.414062 L 106.71875 129.882812 C 105.484375 131.121094 103.9375 131.890625 102.238281 132.199219 C 100.230469 132.664062 98.070312 132.507812 96.0625 131.738281 C 94.671875 131.273438 93.128906 131.582031 92.355469 132.820312 L 84.789062 142.546875 C 83.550781 144.09375 81.390625 144.554688 79.691406 143.628906 C 77.527344 142.394531 76.757812 139.769531 78.148438 137.605469 C 79.84375 134.828125 81.699219 131.121094 83.242188 128.183594 C 84.789062 125.097656 86.949219 122.316406 89.574219 120.308594 C 96.523438 114.902344 105.792969 113.976562 113.667969 117.992188 L 114.441406 118.457031 C 120.925781 121.699219 128.648438 121.699219 135.136719 118.300781 L 135.445312 118.148438 L 154.441406 148.570312 L 136.523438 160 C 134.207031 161.390625 131.273438 161.082031 129.265625 159.226562 L 103.320312 133.4375 "/>
<path style=" stroke:none;fill-rule:nonzero;fill:rgb(100%,100%,100%);fill-opacity:1;" d="M 64.402344 167.875 C 62.394531 165.867188 62.394531 162.472656 64.402344 160.464844 L 69.5 155.367188 C 71.503906 153.359375 74.902344 153.359375 76.910156 155.367188 C 78.917969 157.375 78.917969 160.773438 76.910156 162.78125 L 71.816406 167.875 C 69.808594 169.882812 66.410156 169.882812 64.402344 167.875 Z M 64.402344 167.875 "/>
<path style=" stroke:none;fill-rule:nonzero;fill:rgb(100%,100%,100%);fill-opacity:1;" d="M 56.988281 160.464844 C 54.980469 158.457031 54.980469 155.058594 56.988281 153.050781 L 62.085938 147.953125 C 64.09375 145.945312 67.492188 145.945312 69.5 147.953125 C 71.503906 149.960938 71.503906 153.359375 69.5 155.367188 L 64.402344 160.464844 C 62.394531 162.472656 58.996094 162.472656 56.988281 160.464844 Z M 56.988281 160.464844 "/>
<path style=" stroke:none;fill-rule:nonzero;fill:rgb(100%,100%,100%);fill-opacity:1;" d="M 71.816406 175.289062 C 69.808594 173.28125 69.808594 169.882812 71.816406 167.875 L 76.910156 162.78125 C 78.917969 160.773438 82.316406 160.773438 84.324219 162.78125 C 86.332031 164.789062 86.332031 168.183594 84.324219 170.191406 L 79.226562 175.289062 C 77.21875 177.296875 73.824219 177.296875 71.816406 175.289062 Z M 71.816406 175.289062 "/>
<path style=" stroke:none;fill-rule:nonzero;fill:rgb(100%,100%,100%);fill-opacity:1;" d="M 79.226562 182.703125 C 77.21875 180.695312 77.21875 177.296875 79.226562 175.289062 L 84.324219 170.191406 C 86.332031 168.183594 89.730469 168.183594 91.738281 170.191406 C 93.746094 172.199219 93.746094 175.597656 91.738281 177.605469 L 86.640625 182.703125 C 84.632812 184.710938 81.234375 184.710938 79.226562 182.703125 Z M 79.226562 182.703125 "/>
<path style=" stroke:none;fill-rule:nonzero;fill:rgb(100%,100%,100%);fill-opacity:1;" d="M 127.203125 113.003906 L 139.0625 105.757812 L 166.851562 151.222656 L 154.988281 158.46875 Z M 127.203125 113.003906 "/>
<path style=" stroke:none;fill-rule:nonzero;fill:rgb(13.72549%,12.156863%,12.54902%);fill-opacity:1;" d="M 132.355469 98.222656 L 136.679688 105.328125 L 125.097656 112.433594 L 128.957031 118.765625 C 124.324219 119.84375 119.382812 119.226562 115.058594 117.066406 L 114.285156 116.601562 C 109.1875 113.976562 103.320312 113.359375 97.914062 114.59375 L 94.980469 112.894531 C 91.582031 111.042969 87.257812 110.886719 83.550781 112.742188 C 80.773438 114.132812 76.757812 115.832031 72.277344 116.757812 L 74.902344 112.433594 L 63.320312 105.328125 L 67.644531 98.222656 L 0 56.988281 L 0 143.320312 L 29.1875 161.082031 L 33.824219 153.511719 L 45.558594 160.617188 L 51.429688 151.042969 L 54.515625 154.132812 C 53.4375 156.601562 54.054688 159.535156 56.0625 161.542969 C 57.296875 162.78125 58.996094 163.550781 60.847656 163.550781 C 61.160156 163.550781 61.3125 163.550781 61.46875 163.550781 C 61.46875 163.707031 61.46875 164.015625 61.46875 164.167969 C 61.46875 166.023438 62.238281 167.722656 63.476562 168.957031 C 64.710938 170.191406 66.410156 170.964844 68.261719 170.964844 C 68.417969 170.964844 68.726562 170.964844 68.878906 170.964844 C 68.878906 171.121094 68.878906 171.429688 68.878906 171.582031 C 68.878906 173.4375 69.652344 175.136719 70.886719 176.371094 C 72.125 177.605469 73.824219 178.378906 75.675781 178.378906 C 75.832031 178.378906 76.140625 178.378906 76.292969 178.378906 C 76.140625 180.386719 76.757812 182.394531 78.148438 183.785156 C 79.382812 185.019531 81.082031 185.792969 82.933594 185.792969 C 83.859375 185.792969 84.789062 185.636719 85.714844 185.171875 L 95.136719 194.59375 C 96.523438 195.984375 98.378906 196.757812 100.386719 196.757812 C 102.394531 196.757812 104.246094 195.984375 105.636719 194.59375 C 107.027344 193.050781 107.800781 191.195312 107.800781 189.1875 C 110.425781 189.960938 113.203125 189.1875 115.210938 187.335938 C 116.601562 185.945312 117.375 183.9375 117.375 181.929688 C 117.992188 182.085938 118.765625 182.238281 119.535156 182.238281 C 121.542969 182.238281 123.398438 181.46875 124.789062 180.078125 C 126.175781 178.53125 126.949219 176.679688 126.949219 174.671875 C 127.566406 174.828125 128.339844 174.980469 129.113281 174.980469 C 131.121094 174.980469 132.972656 174.207031 134.363281 172.820312 C 135.753906 171.429688 136.523438 169.574219 136.523438 167.566406 C 136.523438 165.558594 135.753906 163.707031 134.363281 162.316406 L 134.363281 162.164062 C 135.289062 162.007812 136.214844 161.699219 137.144531 161.082031 L 149.960938 153.050781 L 154.59375 160.617188 L 166.332031 153.511719 L 170.964844 161.234375 L 200.15625 143.476562 L 200.15625 56.988281 Z M 28.109375 156.910156 L 3.089844 141.621094 L 3.089844 62.394531 L 63.320312 99.304688 Z M 44.480469 156.449219 L 35.367188 150.886719 L 61.621094 107.953125 L 70.734375 113.511719 Z M 63.320312 159.535156 C 61.929688 160.773438 59.613281 160.773438 58.222656 159.382812 C 57.453125 158.609375 57.144531 157.683594 57.144531 156.757812 C 57.144531 155.832031 57.605469 154.902344 58.222656 154.132812 L 63.320312 149.035156 C 64.09375 148.261719 65.019531 147.953125 65.945312 147.953125 C 66.871094 147.953125 67.800781 148.261719 68.570312 149.035156 C 69.34375 149.808594 69.652344 150.734375 69.652344 151.660156 C 69.652344 152.585938 69.34375 153.511719 68.726562 154.132812 C 68.726562 154.132812 68.726562 154.132812 68.570312 154.285156 L 63.320312 159.535156 C 63.320312 159.382812 63.320312 159.382812 63.320312 159.535156 Z M 70.578125 166.949219 C 69.1875 168.183594 66.871094 168.183594 65.484375 166.796875 C 64.710938 166.023438 64.402344 165.097656 64.402344 164.167969 C 64.402344 163.242188 64.710938 162.316406 65.328125 161.699219 C 65.328125 161.699219 65.328125 161.699219 65.484375 161.542969 L 70.578125 156.449219 C 70.578125 156.449219 70.578125 156.449219 70.734375 156.292969 C 71.351562 155.675781 72.277344 155.367188 73.203125 155.367188 C 74.132812 155.367188 75.058594 155.832031 75.832031 156.449219 C 76.601562 157.21875 76.910156 158.148438 76.910156 159.074219 C 76.910156 160 76.601562 160.925781 75.984375 161.542969 C 75.984375 161.542969 75.832031 161.699219 75.832031 161.699219 L 70.734375 166.796875 C 70.734375 166.796875 70.578125 166.796875 70.578125 166.949219 Z M 77.992188 174.363281 C 76.601562 175.597656 74.285156 175.597656 72.894531 174.207031 C 72.125 173.4375 71.816406 172.507812 71.816406 171.582031 C 71.816406 170.65625 72.125 169.730469 72.742188 169.113281 C 72.742188 169.113281 72.894531 168.957031 72.894531 168.957031 L 77.992188 163.859375 C 77.992188 163.859375 78.148438 163.707031 78.148438 163.707031 C 78.765625 163.089844 79.691406 162.78125 80.617188 162.78125 C 81.542969 162.78125 82.472656 163.089844 83.242188 163.859375 C 84.015625 164.632812 84.324219 165.558594 84.324219 166.488281 C 84.324219 167.414062 84.015625 168.339844 83.398438 168.957031 C 83.398438 168.957031 83.242188 169.113281 83.242188 169.113281 L 77.992188 174.363281 C 78.148438 174.207031 77.992188 174.207031 77.992188 174.363281 Z M 85.558594 181.621094 C 84.167969 183.011719 81.699219 183.011719 80.308594 181.621094 C 78.917969 180.230469 78.917969 177.914062 80.15625 176.523438 C 80.15625 176.523438 80.308594 176.371094 80.308594 176.371094 L 85.40625 171.273438 C 85.40625 171.273438 85.558594 171.121094 85.558594 171.121094 C 86.175781 170.5 87.105469 170.191406 88.03125 170.191406 C 88.957031 170.191406 89.882812 170.65625 90.65625 171.273438 C 91.429688 172.046875 91.738281 172.972656 91.738281 173.898438 C 91.738281 174.828125 91.429688 175.753906 90.65625 176.523438 Z M 103.476562 192.433594 C 101.777344 194.132812 98.839844 194.132812 97.296875 192.433594 L 88.183594 183.320312 L 92.820312 178.6875 C 93.4375 178.070312 93.898438 177.453125 94.207031 176.679688 L 103.628906 186.101562 C 105.328125 187.953125 105.328125 190.734375 103.476562 192.433594 Z M 132.355469 170.8125 C 130.65625 172.507812 127.722656 172.507812 126.175781 170.8125 L 110.117188 154.59375 C 109.5 153.976562 108.570312 153.976562 107.953125 154.59375 C 107.335938 155.210938 107.335938 156.140625 107.953125 156.757812 L 122.933594 171.738281 C 124.632812 173.4375 124.632812 176.214844 122.933594 177.914062 C 121.234375 179.613281 118.300781 179.613281 116.757812 177.914062 L 101.46875 162.625 C 100.847656 162.007812 99.921875 162.007812 99.304688 162.625 C 98.6875 163.242188 98.6875 164.167969 99.304688 164.789062 L 113.359375 178.839844 C 115.058594 180.539062 115.058594 183.320312 113.359375 185.019531 C 111.660156 186.71875 108.878906 186.71875 107.179688 185.171875 L 94.828125 172.820312 C 94.671875 171.429688 94.054688 170.039062 92.972656 168.957031 C 91.738281 167.722656 90.039062 166.949219 88.183594 166.949219 C 88.03125 166.949219 87.722656 166.949219 87.566406 166.949219 C 87.722656 164.941406 87.105469 162.933594 85.714844 161.542969 C 84.480469 160.308594 82.78125 159.535156 80.925781 159.535156 C 80.773438 159.535156 80.464844 159.535156 80.308594 159.535156 C 80.308594 159.382812 80.308594 159.074219 80.308594 158.917969 C 80.308594 157.066406 79.535156 155.367188 78.300781 154.132812 C 77.066406 152.894531 75.367188 152.125 73.511719 152.125 C 73.203125 152.125 73.050781 152.125 72.894531 152.125 C 72.894531 151.96875 72.894531 151.660156 72.894531 151.503906 C 72.894531 149.652344 72.125 147.953125 70.886719 146.71875 C 69.652344 145.484375 67.953125 144.710938 66.101562 144.710938 C 64.246094 144.710938 62.546875 145.484375 61.3125 146.71875 L 56.679688 151.351562 L 53.4375 148.109375 L 70.578125 120 C 76.449219 119.226562 81.851562 117.066406 85.558594 115.210938 C 88.183594 113.824219 91.429688 113.976562 93.898438 115.367188 L 94.363281 115.675781 C 92.507812 116.449219 90.65625 117.527344 88.957031 118.765625 C 86.023438 121.082031 83.707031 124.015625 82.164062 127.257812 C 80.925781 130.039062 78.917969 133.746094 77.21875 136.523438 C 76.449219 137.914062 76.140625 139.460938 76.601562 141.003906 C 77.066406 142.546875 77.992188 143.9375 79.535156 144.710938 C 81.851562 145.945312 84.941406 145.328125 86.488281 143.167969 L 94.054688 133.4375 C 94.515625 132.820312 95.289062 132.664062 96.0625 132.972656 C 98.070312 133.746094 100.386719 134.054688 102.546875 133.589844 C 102.546875 133.746094 132.972656 164.167969 132.972656 164.167969 C 133.746094 164.941406 134.207031 166.175781 134.207031 167.257812 C 133.589844 168.804688 133.128906 169.882812 132.355469 170.8125 Z M 135.445312 158.609375 C 133.746094 159.691406 131.582031 159.382812 130.039062 157.992188 L 105.019531 132.972656 C 105.945312 132.507812 106.871094 131.890625 107.644531 131.121094 L 110.425781 128.648438 C 111.042969 128.03125 111.042969 127.105469 110.578125 126.488281 C 109.960938 125.867188 109.035156 125.867188 108.417969 126.332031 L 105.636719 128.804688 C 104.554688 129.730469 103.320312 130.5 101.929688 130.8125 C 100.230469 131.273438 98.378906 131.121094 96.679688 130.5 C 94.671875 129.730469 92.507812 130.347656 91.121094 132.046875 L 83.550781 141.777344 C 82.78125 142.703125 81.542969 143.011719 80.464844 142.394531 C 79.84375 142.085938 79.382812 141.46875 79.074219 140.695312 C 78.917969 139.921875 79.074219 139.152344 79.382812 138.53125 C 81.234375 135.597656 83.089844 131.738281 84.480469 128.957031 C 85.867188 126.023438 87.875 123.550781 90.5 121.542969 C 96.832031 116.601562 105.636719 115.675781 112.894531 119.382812 L 113.667969 119.84375 C 118.917969 122.625 125.097656 123.089844 130.65625 121.542969 L 148.261719 150.578125 Z M 155.519531 156.449219 L 129.265625 113.511719 L 138.378906 107.953125 L 164.632812 150.886719 Z M 196.910156 141.621094 L 171.890625 156.910156 L 136.679688 99.304688 L 196.910156 62.394531 Z M 196.910156 141.621094 "/>
<path style=" stroke:none;fill-rule:nonzero;fill:rgb(100%,100%,100%);fill-opacity:1;" d="M 159.226562 45.714844 L 155.984375 39.226562 L 155.519531 39.382812 C 152.742188 40.464844 149.808594 39.84375 147.644531 37.835938 C 147.179688 37.375 146.71875 37.066406 146.410156 36.757812 C 144.09375 34.902344 143.011719 31.96875 143.628906 29.1875 L 143.785156 28.726562 L 136.832031 26.410156 L 136.679688 26.871094 C 135.445312 29.5 132.820312 31.195312 129.882812 31.351562 C 129.265625 31.351562 128.804688 31.351562 128.183594 31.503906 C 125.25 31.816406 122.472656 30.578125 120.925781 28.109375 L 120.464844 27.644531 L 113.976562 30.886719 L 114.132812 31.351562 C 115.210938 34.132812 114.59375 37.066406 112.585938 39.226562 C 112.125 39.691406 111.816406 40.15625 111.503906 40.464844 C 109.652344 42.78125 106.71875 43.859375 103.9375 43.242188 L 103.320312 43.242188 L 101.003906 50.191406 L 101.46875 50.347656 C 104.09375 51.582031 105.792969 54.207031 105.945312 57.144531 C 105.945312 57.761719 105.945312 58.222656 106.101562 58.839844 C 106.410156 61.777344 105.171875 64.554688 102.703125 66.101562 L 102.394531 66.410156 L 105.636719 72.894531 L 106.101562 72.742188 C 108.878906 71.660156 111.816406 72.277344 113.976562 74.285156 C 114.441406 74.75 114.902344 75.058594 115.210938 75.367188 C 117.527344 77.21875 118.609375 80.15625 117.992188 82.933594 L 117.835938 83.398438 L 124.789062 85.714844 L 124.941406 85.25 C 126.175781 82.625 128.804688 80.925781 131.738281 80.773438 C 132.355469 80.773438 132.820312 80.773438 133.4375 80.617188 C 136.371094 80.308594 139.152344 81.542969 140.695312 84.015625 L 141.003906 84.480469 L 147.492188 81.234375 L 147.335938 80.773438 C 146.253906 77.992188 146.871094 75.058594 148.878906 72.894531 C 149.34375 72.433594 149.652344 71.96875 149.960938 71.660156 C 151.816406 69.34375 154.75 68.261719 157.527344 68.878906 L 157.992188 69.035156 L 160.308594 62.085938 L 159.84375 61.929688 C 157.21875 60.695312 155.519531 58.070312 155.367188 55.136719 C 155.367188 54.515625 155.367188 54.054688 155.210938 53.4375 C 154.902344 50.5 156.140625 47.722656 158.609375 46.175781 Z M 159.226562 45.714844 "/>
<path style=" stroke:none;fill-rule:nonzero;fill:rgb(13.72549%,12.156863%,12.54902%);fill-opacity:1;" d="M 124.941406 86.949219 C 124.789062 86.949219 124.632812 86.949219 124.632812 86.949219 L 117.683594 84.632812 C 117.066406 84.480469 116.757812 83.859375 116.910156 83.242188 L 117.066406 82.78125 C 117.683594 80.464844 116.757812 77.992188 114.75 76.292969 C 114.285156 75.984375 113.824219 75.519531 113.359375 75.058594 C 111.503906 73.359375 108.878906 72.742188 106.5625 73.667969 L 106.101562 73.824219 C 105.484375 73.976562 104.863281 73.824219 104.710938 73.203125 L 101.46875 66.71875 C 101.160156 66.253906 101.3125 65.484375 101.929688 65.171875 L 102.394531 64.863281 C 104.402344 63.628906 105.484375 61.160156 105.328125 58.6875 C 105.328125 58.070312 105.171875 57.453125 105.171875 56.832031 C 105.019531 54.207031 103.628906 52.046875 101.3125 51.121094 L 100.847656 50.964844 C 100.230469 50.65625 100.078125 50.039062 100.230469 49.574219 L 102.546875 42.625 C 102.703125 42.007812 103.320312 41.699219 103.9375 41.851562 L 104.402344 42.007812 C 106.71875 42.472656 109.1875 41.542969 110.886719 39.691406 C 111.195312 39.226562 111.660156 38.765625 112.125 38.300781 C 113.824219 36.449219 114.441406 33.824219 113.511719 31.503906 L 113.359375 31.042969 C 113.203125 30.425781 113.359375 29.808594 113.976562 29.652344 L 120.464844 26.410156 C 120.925781 26.101562 121.699219 26.253906 122.007812 26.871094 L 122.316406 27.335938 C 123.550781 29.34375 126.023438 30.425781 128.496094 30.269531 C 129.113281 30.269531 129.730469 30.117188 130.347656 30.117188 C 132.972656 29.960938 135.136719 28.570312 136.0625 26.253906 L 136.214844 25.792969 C 136.523438 25.171875 137.144531 25.019531 137.605469 25.171875 L 144.554688 27.492188 C 145.171875 27.644531 145.484375 28.261719 145.328125 28.878906 L 144.710938 29.34375 C 144.09375 31.660156 145.019531 34.132812 147.027344 35.832031 C 147.492188 36.140625 147.953125 36.601562 148.417969 37.066406 C 150.269531 38.765625 152.894531 39.382812 155.210938 38.457031 L 155.675781 38.300781 C 156.292969 38.148438 156.910156 38.300781 157.066406 38.917969 L 160.308594 45.40625 C 160.617188 45.867188 160.464844 46.640625 159.84375 46.949219 L 159.382812 47.257812 C 157.375 48.496094 156.292969 50.964844 156.449219 53.4375 C 156.449219 54.054688 156.601562 54.671875 156.601562 55.289062 C 156.757812 57.914062 158.148438 60.078125 160.464844 61.003906 L 160.925781 61.160156 C 161.542969 61.46875 161.699219 62.085938 161.542969 62.546875 L 159.226562 69.5 C 159.074219 70.117188 158.457031 70.425781 157.835938 70.269531 L 157.375 70.117188 C 155.058594 69.652344 152.585938 70.578125 150.886719 72.433594 C 150.578125 72.894531 150.117188 73.359375 149.652344 73.824219 C 147.953125 75.675781 147.335938 78.300781 148.261719 80.617188 L 148.417969 81.082031 C 148.570312 81.699219 148.417969 82.316406 147.800781 82.472656 L 141.3125 85.714844 C 140.847656 86.023438 140.078125 85.867188 139.769531 85.25 L 139.460938 84.789062 C 138.222656 82.78125 135.753906 81.699219 133.28125 81.851562 C 132.664062 81.851562 132.046875 82.007812 131.429688 82.007812 C 128.804688 82.164062 126.640625 83.550781 125.714844 85.867188 L 125.558594 86.332031 C 125.714844 86.640625 125.40625 86.949219 124.941406 86.949219 Z M 119.382812 82.78125 L 124.324219 84.480469 C 125.714844 81.699219 128.648438 80 131.890625 79.84375 C 132.507812 79.84375 132.972656 79.84375 133.589844 79.691406 C 136.832031 79.382812 139.921875 80.617188 141.621094 83.089844 L 146.253906 80.773438 C 145.328125 77.835938 146.101562 74.59375 148.261719 72.125 C 148.570312 71.660156 149.035156 71.351562 149.34375 70.886719 C 151.351562 68.417969 154.441406 67.179688 157.527344 67.644531 L 159.226562 62.703125 C 156.449219 61.3125 154.75 58.378906 154.59375 55.136719 C 154.59375 54.515625 154.59375 54.054688 154.441406 53.4375 C 154.132812 50.191406 155.367188 47.105469 157.835938 45.25 L 155.519531 40.617188 C 152.585938 41.542969 149.34375 40.773438 146.871094 38.609375 C 146.410156 38.300781 146.101562 37.835938 145.636719 37.527344 C 143.167969 35.519531 141.929688 32.433594 142.394531 29.34375 L 137.296875 27.800781 C 135.90625 30.578125 132.972656 32.277344 129.730469 32.433594 C 129.113281 32.433594 128.648438 32.433594 128.03125 32.585938 C 124.789062 32.894531 121.699219 31.660156 119.84375 29.1875 L 115.210938 31.503906 C 116.140625 34.441406 115.367188 37.683594 113.203125 40.15625 C 112.894531 40.617188 112.433594 40.925781 112.125 41.390625 C 110.117188 43.859375 107.027344 45.097656 103.9375 44.632812 L 102.238281 49.574219 C 105.019531 50.964844 106.71875 53.898438 106.871094 57.144531 C 106.871094 57.761719 106.871094 58.222656 107.027344 58.839844 C 107.335938 62.085938 106.101562 65.171875 103.628906 66.871094 L 105.945312 71.503906 C 108.878906 70.578125 112.125 71.351562 114.59375 73.511719 C 115.058594 73.824219 115.367188 74.285156 115.832031 74.59375 C 118.609375 76.601562 119.84375 79.691406 119.382812 82.78125 Z M 119.382812 82.78125 "/>
<path style=" stroke:none;fill-rule:nonzero;fill:rgb(13.72549%,12.156863%,12.54902%);fill-opacity:1;" d="M 130.8125 76.140625 L 130.65625 73.824219 C 131.121094 73.824219 131.582031 73.824219 132.046875 73.824219 L 132.199219 76.140625 C 131.890625 76.140625 131.429688 76.140625 130.8125 76.140625 Z M 127.566406 75.832031 C 127.105469 75.675781 126.488281 75.675781 126.023438 75.519531 L 126.640625 73.359375 C 127.105469 73.511719 127.566406 73.511719 128.03125 73.667969 Z M 135.597656 75.519531 L 134.980469 73.203125 C 135.445312 73.050781 135.90625 72.894531 136.371094 72.742188 L 137.144531 74.902344 C 136.679688 75.210938 136.0625 75.367188 135.597656 75.519531 Z M 122.78125 74.441406 C 122.316406 74.285156 121.851562 73.976562 121.234375 73.667969 L 122.316406 71.660156 C 122.78125 71.816406 123.242188 72.125 123.550781 72.277344 Z M 140.230469 73.824219 L 139.152344 71.816406 C 139.613281 71.660156 139.921875 71.351562 140.386719 71.042969 L 141.621094 73.050781 C 141.160156 73.203125 140.695312 73.511719 140.230469 73.824219 Z M 118.609375 71.96875 C 118.148438 71.660156 117.683594 71.351562 117.375 70.886719 L 118.917969 69.1875 C 119.226562 69.5 119.691406 69.808594 120 70.117188 Z M 144.246094 71.042969 L 142.703125 69.34375 C 143.011719 69.035156 143.476562 68.726562 143.785156 68.261719 L 145.484375 69.808594 C 145.019531 70.269531 144.554688 70.578125 144.246094 71.042969 Z M 115.058594 68.570312 C 114.75 68.109375 114.441406 67.644531 114.132812 67.179688 L 115.984375 65.945312 C 116.292969 66.410156 116.601562 66.71875 116.757812 67.179688 Z M 147.335938 67.335938 L 145.484375 66.101562 C 145.792969 65.636719 145.945312 65.328125 146.253906 64.863281 L 148.261719 65.945312 C 147.953125 66.410156 147.644531 66.871094 147.335938 67.335938 Z M 112.585938 64.402344 C 112.433594 63.9375 112.125 63.476562 111.96875 62.855469 L 114.132812 62.085938 C 114.285156 62.546875 114.441406 63.011719 114.75 63.476562 Z M 149.652344 62.855469 L 147.492188 62.085938 C 147.644531 61.621094 147.800781 61.160156 147.953125 60.695312 L 150.117188 61.3125 C 149.960938 61.929688 149.808594 62.394531 149.652344 62.855469 Z M 111.195312 59.613281 C 111.042969 59.152344 111.042969 58.53125 111.042969 58.070312 L 113.359375 57.914062 C 113.359375 58.378906 113.511719 58.839844 113.511719 59.304688 Z M 150.734375 58.222656 L 148.417969 57.914062 C 148.417969 57.453125 148.570312 56.988281 148.570312 56.523438 L 150.886719 56.523438 C 150.734375 57.144531 150.734375 57.605469 150.734375 58.222656 Z M 113.203125 54.980469 L 110.886719 54.828125 C 110.886719 54.207031 111.042969 53.746094 111.042969 53.128906 L 113.359375 53.4375 C 113.203125 54.054688 113.203125 54.515625 113.203125 54.980469 Z M 148.261719 53.589844 C 148.261719 53.128906 148.109375 52.664062 147.953125 52.199219 L 150.269531 51.738281 C 150.425781 52.199219 150.425781 52.820312 150.578125 53.28125 Z M 113.976562 50.65625 L 111.816406 49.882812 C 111.96875 49.421875 112.125 48.804688 112.433594 48.339844 L 114.59375 49.265625 C 114.285156 49.730469 114.132812 50.191406 113.976562 50.65625 Z M 147.179688 49.421875 C 147.027344 48.957031 146.871094 48.496094 146.5625 48.03125 L 148.570312 46.949219 C 148.878906 47.414062 149.035156 47.875 149.1875 48.496094 Z M 145.945312 46.949219 C 145.636719 46.488281 145.484375 46.175781 145.171875 45.714844 L 147.027344 44.324219 C 147.335938 44.789062 147.644531 45.25 147.953125 45.714844 Z M 115.832031 46.796875 L 113.824219 45.558594 C 114.132812 45.097656 114.441406 44.632812 114.75 44.167969 L 116.601562 45.558594 C 116.292969 46.023438 115.984375 46.332031 115.832031 46.796875 Z M 143.320312 43.550781 C 143.011719 43.242188 142.546875 42.933594 142.238281 42.625 L 143.785156 40.925781 C 144.246094 41.234375 144.554688 41.699219 145.019531 42.007812 Z M 118.457031 43.398438 L 116.910156 41.699219 C 117.375 41.390625 117.683594 40.925781 118.148438 40.617188 L 119.535156 42.472656 C 119.226562 42.78125 118.765625 43.089844 118.457031 43.398438 Z M 139.769531 40.925781 C 139.304688 40.617188 138.996094 40.464844 138.53125 40.308594 L 139.613281 38.300781 C 140.078125 38.609375 140.539062 38.765625 141.003906 39.074219 Z M 121.851562 40.773438 L 120.773438 38.765625 C 121.082031 38.609375 121.390625 38.457031 121.851562 38.148438 L 122.316406 37.992188 L 123.242188 40 L 122.78125 40.15625 C 122.472656 40.464844 122.164062 40.617188 121.851562 40.773438 Z M 135.90625 39.226562 C 135.445312 39.074219 134.980469 38.917969 134.515625 38.917969 L 134.980469 36.601562 C 135.445312 36.757812 136.0625 36.910156 136.523438 37.066406 Z M 125.867188 39.074219 L 125.25 36.910156 C 125.714844 36.757812 126.332031 36.601562 126.796875 36.449219 L 127.257812 38.765625 C 126.796875 38.917969 126.332031 38.917969 125.867188 39.074219 Z M 131.582031 38.457031 C 131.121094 38.457031 130.65625 38.457031 130.191406 38.457031 L 130.039062 36.140625 C 130.65625 36.140625 131.121094 36.140625 131.738281 36.140625 Z M 131.582031 38.457031 "/>
<path style=" stroke:none;fill-rule:nonzero;fill:rgb(90.196078%,91.372549%,93.333333%);fill-opacity:1;" d="M 145.792969 56.0625 C 145.792969 64.335938 139.085938 71.042969 130.8125 71.042969 C 122.539062 71.042969 115.832031 64.335938 115.832031 56.0625 C 115.832031 47.789062 122.539062 41.082031 130.8125 41.082031 C 139.085938 41.082031 145.792969 47.789062 145.792969 56.0625 Z M 145.792969 56.0625 "/>
<path style=" stroke:none;fill-rule:nonzero;fill:rgb(100%,100%,100%);fill-opacity:1;" d="M 138.222656 56.0625 C 138.222656 60.15625 134.90625 63.476562 130.8125 63.476562 C 126.714844 63.476562 123.398438 60.15625 123.398438 56.0625 C 123.398438 51.96875 126.714844 48.648438 130.8125 48.648438 C 134.90625 48.648438 138.222656 51.96875 138.222656 56.0625 Z M 138.222656 56.0625 "/>
<path style=" stroke:none;fill-rule:nonzero;fill:rgb(13.72549%,12.156863%,12.54902%);fill-opacity:1;" d="M 130.8125 64.710938 C 127.566406 64.710938 124.632812 62.855469 123.089844 59.921875 C 122.007812 57.914062 121.851562 55.597656 122.625 53.28125 C 123.398438 51.121094 124.941406 49.265625 126.949219 48.339844 C 128.183594 47.722656 129.421875 47.414062 130.8125 47.414062 C 134.054688 47.414062 136.988281 49.265625 138.53125 52.199219 C 139.613281 54.207031 139.769531 56.523438 138.996094 58.839844 C 138.222656 61.003906 136.679688 62.855469 134.671875 63.785156 C 133.4375 64.402344 132.199219 64.710938 130.8125 64.710938 Z M 130.8125 49.730469 C 129.882812 49.730469 128.804688 49.882812 128.03125 50.347656 C 126.488281 51.121094 125.40625 52.355469 124.941406 54.054688 C 124.480469 55.753906 124.480469 57.296875 125.25 58.839844 C 126.332031 61.003906 128.496094 62.238281 130.964844 62.238281 C 131.890625 62.238281 132.972656 62.085938 133.746094 61.621094 C 135.289062 60.847656 136.371094 59.613281 136.832031 57.914062 C 137.296875 56.371094 137.296875 54.671875 136.523438 53.128906 C 135.289062 51.121094 133.128906 49.730469 130.8125 49.730469 Z M 130.8125 49.730469 "/>
<path style=" stroke:none;fill-rule:nonzero;fill:rgb(13.72549%,12.156863%,12.54902%);fill-opacity:1;" d="M 153.203125 178.53125 C 152.894531 178.53125 152.585938 178.378906 152.433594 178.222656 C 151.96875 177.761719 151.96875 176.988281 152.433594 176.523438 L 154.441406 174.515625 C 154.902344 174.054688 155.675781 174.054688 156.140625 174.515625 C 156.601562 174.980469 156.601562 175.753906 156.140625 176.214844 L 154.132812 178.222656 C 153.824219 178.378906 153.511719 178.53125 153.203125 178.53125 Z M 153.203125 178.53125 "/>
<path style=" stroke:none;fill-rule:nonzero;fill:rgb(13.72549%,12.156863%,12.54902%);fill-opacity:1;" d="M 147.027344 184.710938 C 146.71875 184.710938 146.410156 184.554688 146.253906 184.402344 C 145.792969 183.9375 145.792969 183.167969 146.253906 182.703125 L 148.261719 180.695312 C 148.726562 180.230469 149.5 180.230469 149.960938 180.695312 C 150.425781 181.160156 150.425781 181.929688 149.960938 182.394531 L 147.953125 184.402344 C 147.644531 184.554688 147.335938 184.710938 147.027344 184.710938 Z M 147.027344 184.710938 "/>
<path style=" stroke:none;fill-rule:nonzero;fill:rgb(13.72549%,12.156863%,12.54902%);fill-opacity:1;" d="M 155.210938 184.710938 C 154.902344 184.710938 154.59375 184.554688 154.441406 184.402344 L 152.433594 182.394531 C 151.96875 181.929688 151.96875 181.160156 152.433594 180.695312 C 152.894531 180.230469 153.667969 180.230469 154.132812 180.695312 L 156.140625 182.703125 C 156.601562 183.167969 156.601562 183.9375 156.140625 184.402344 C 155.832031 184.554688 155.519531 184.710938 155.210938 184.710938 Z M 155.210938 184.710938 "/>
<path style=" stroke:none;fill-rule:nonzero;fill:rgb(13.72549%,12.156863%,12.54902%);fill-opacity:1;" d="M 149.035156 178.53125 C 148.726562 178.53125 148.417969 178.378906 148.261719 178.222656 L 146.253906 176.214844 C 145.792969 175.753906 145.792969 174.980469 146.253906 174.515625 C 146.71875 174.054688 147.492188 174.054688 147.953125 174.515625 L 149.960938 176.523438 C 150.425781 176.988281 150.425781 177.761719 149.960938 178.222656 C 149.5 178.378906 149.34375 178.53125 149.035156 178.53125 Z M 149.035156 178.53125 "/>
<path style=" stroke:none;fill-rule:nonzero;fill:rgb(13.72549%,12.156863%,12.54902%);fill-opacity:1;" d="M 196.449219 28.878906 C 196.140625 28.878906 195.832031 28.726562 195.675781 28.570312 C 195.210938 28.109375 195.210938 27.335938 195.675781 26.871094 L 197.683594 24.863281 C 198.148438 24.402344 198.917969 24.402344 199.382812 24.863281 C 199.84375 25.328125 199.84375 26.101562 199.382812 26.5625 L 197.375 28.570312 C 197.066406 28.726562 196.757812 28.878906 196.449219 28.878906 Z M 196.449219 28.878906 "/>
<path style=" stroke:none;fill-rule:nonzero;fill:rgb(13.72549%,12.156863%,12.54902%);fill-opacity:1;" d="M 190.269531 35.058594 C 189.960938 35.058594 189.652344 34.902344 189.5 34.75 C 189.035156 34.285156 189.035156 33.511719 189.5 33.050781 L 191.503906 31.042969 C 191.96875 30.578125 192.742188 30.578125 193.203125 31.042969 C 193.667969 31.503906 193.667969 32.277344 193.203125 32.742188 L 191.195312 34.75 C 190.886719 34.902344 190.578125 35.058594 190.269531 35.058594 Z M 190.269531 35.058594 "/>
<path style=" stroke:none;fill-rule:nonzero;fill:rgb(13.72549%,12.156863%,12.54902%);fill-opacity:1;" d="M 198.457031 35.058594 C 198.148438 35.058594 197.835938 34.902344 197.683594 34.75 L 195.675781 32.742188 C 195.210938 32.277344 195.210938 31.503906 195.675781 31.042969 C 196.140625 30.578125 196.910156 30.578125 197.375 31.042969 L 199.382812 33.050781 C 199.84375 33.511719 199.84375 34.285156 199.382812 34.75 C 199.074219 34.902344 198.765625 35.058594 198.457031 35.058594 Z M 198.457031 35.058594 "/>
<path style=" stroke:none;fill-rule:nonzero;fill:rgb(13.72549%,12.156863%,12.54902%);fill-opacity:1;" d="M 192.277344 28.878906 C 191.96875 28.878906 191.660156 28.726562 191.503906 28.570312 L 189.5 26.5625 C 189.035156 26.101562 189.035156 25.328125 189.5 24.863281 C 189.960938 24.402344 190.734375 24.402344 191.195312 24.863281 L 193.203125 26.871094 C 193.667969 27.335938 193.667969 28.109375 193.203125 28.570312 C 192.894531 28.726562 192.585938 28.878906 192.277344 28.878906 Z M 192.277344 28.878906 "/>
<path style=" stroke:none;fill-rule:nonzero;fill:rgb(13.72549%,12.156863%,12.54902%);fill-opacity:1;" d="M 95.445312 86.175781 C 95.136719 86.175781 94.828125 86.023438 94.671875 85.867188 C 94.207031 85.40625 94.207031 84.632812 94.671875 84.167969 L 96.679688 82.164062 C 97.144531 81.699219 97.914062 81.699219 98.378906 82.164062 C 98.839844 82.625 98.839844 83.398438 98.378906 83.859375 L 96.371094 85.867188 C 95.90625 86.023438 95.753906 86.175781 95.445312 86.175781 Z M 95.445312 86.175781 "/>
<path style=" stroke:none;fill-rule:nonzero;fill:rgb(13.72549%,12.156863%,12.54902%);fill-opacity:1;" d="M 89.265625 92.355469 C 88.957031 92.355469 88.648438 92.199219 88.496094 92.046875 C 88.03125 91.582031 88.03125 90.8125 88.496094 90.347656 L 90.5 88.339844 C 90.964844 87.875 91.738281 87.875 92.199219 88.339844 C 92.664062 88.804688 92.664062 89.574219 92.199219 90.039062 L 90.191406 92.046875 C 89.730469 92.199219 89.421875 92.355469 89.265625 92.355469 Z M 89.265625 92.355469 "/>
<path style=" stroke:none;fill-rule:nonzero;fill:rgb(13.72549%,12.156863%,12.54902%);fill-opacity:1;" d="M 97.296875 92.355469 C 96.988281 92.355469 96.679688 92.199219 96.523438 92.046875 L 94.515625 90.039062 C 94.054688 89.574219 94.054688 88.804688 94.515625 88.339844 C 94.980469 87.875 95.753906 87.875 96.214844 88.339844 L 98.222656 90.347656 C 98.6875 90.8125 98.6875 91.582031 98.222656 92.046875 C 97.914062 92.199219 97.605469 92.355469 97.296875 92.355469 Z M 97.296875 92.355469 "/>
<path style=" stroke:none;fill-rule:nonzero;fill:rgb(13.72549%,12.156863%,12.54902%);fill-opacity:1;" d="M 91.121094 86.175781 C 90.8125 86.175781 90.5 86.023438 90.347656 85.867188 L 88.339844 83.859375 C 87.875 83.398438 87.875 82.625 88.339844 82.164062 C 88.804688 81.699219 89.574219 81.699219 90.039062 82.164062 L 92.046875 84.167969 C 92.507812 84.632812 92.507812 85.40625 92.046875 85.867188 C 91.738281 86.023438 91.429688 86.175781 91.121094 86.175781 Z M 91.121094 86.175781 "/>
<path style=" stroke:none;fill-rule:nonzero;fill:rgb(13.72549%,12.156863%,12.54902%);fill-opacity:1;" d="M 109.035156 18.6875 C 108.726562 18.6875 108.417969 18.53125 108.261719 18.378906 C 107.800781 17.914062 107.800781 17.144531 108.261719 16.679688 L 110.269531 14.671875 C 110.734375 14.207031 111.503906 14.207031 111.96875 14.671875 C 112.433594 15.136719 112.433594 15.90625 111.96875 16.371094 L 109.960938 18.378906 C 109.5 18.53125 109.1875 18.6875 109.035156 18.6875 Z M 109.035156 18.6875 "/>
<path style=" stroke:none;fill-rule:nonzero;fill:rgb(13.72549%,12.156863%,12.54902%);fill-opacity:1;" d="M 102.703125 24.863281 C 102.394531 24.863281 102.085938 24.710938 101.929688 24.554688 C 101.46875 24.09375 101.46875 23.320312 101.929688 22.855469 L 103.9375 20.847656 C 104.402344 20.386719 105.171875 20.386719 105.636719 20.847656 C 106.101562 21.3125 106.101562 22.085938 105.636719 22.546875 L 103.628906 24.554688 C 103.320312 24.710938 103.011719 24.863281 102.703125 24.863281 Z M 102.703125 24.863281 "/>
<path style=" stroke:none;fill-rule:nonzero;fill:rgb(13.72549%,12.156863%,12.54902%);fill-opacity:1;" d="M 110.886719 24.863281 C 110.578125 24.863281 110.269531 24.710938 110.117188 24.554688 L 108.109375 22.546875 C 107.644531 22.085938 107.644531 21.3125 108.109375 20.847656 C 108.570312 20.386719 109.34375 20.386719 109.808594 20.847656 L 111.816406 22.855469 C 112.277344 23.320312 112.277344 24.09375 111.816406 24.554688 C 111.503906 24.710938 111.195312 24.863281 110.886719 24.863281 Z M 110.886719 24.863281 "/>
<path style=" stroke:none;fill-rule:nonzero;fill:rgb(13.72549%,12.156863%,12.54902%);fill-opacity:1;" d="M 104.710938 18.6875 C 104.402344 18.6875 104.09375 18.53125 103.9375 18.378906 L 101.929688 16.371094 C 101.46875 15.90625 101.46875 15.136719 101.929688 14.671875 C 102.394531 14.207031 103.167969 14.207031 103.628906 14.671875 L 105.636719 16.679688 C 106.101562 17.144531 106.101562 17.914062 105.636719 18.378906 C 105.328125 18.53125 105.019531 18.6875 104.710938 18.6875 Z M 104.710938 18.6875 "/>
<path style=" stroke:none;fill-rule:nonzero;fill:rgb(13.72549%,12.156863%,12.54902%);fill-opacity:1;" d="M 63.628906 14.980469 C 60.386719 14.980469 57.761719 12.355469 57.761719 9.113281 C 57.761719 5.867188 60.386719 3.242188 63.628906 3.242188 C 66.871094 3.242188 69.5 5.867188 69.5 9.113281 C 69.5 12.355469 66.871094 14.980469 63.628906 14.980469 Z M 63.628906 5.558594 C 61.621094 5.558594 60.078125 7.105469 60.078125 9.113281 C 60.078125 11.121094 61.621094 12.664062 63.628906 12.664062 C 65.636719 12.664062 67.179688 11.121094 67.179688 9.113281 C 67.179688 7.105469 65.636719 5.558594 63.628906 5.558594 Z M 63.628906 5.558594 "/>
<path style=" stroke:none;fill-rule:nonzero;fill:rgb(100%,81.568627%,35.686275%);fill-opacity:1;" d="M 96.371094 36.140625 C 96.371094 37.929688 94.917969 39.382812 93.128906 39.382812 C 91.335938 39.382812 89.882812 37.929688 89.882812 36.140625 C 89.882812 34.347656 91.335938 32.894531 93.128906 32.894531 C 94.917969 32.894531 96.371094 34.347656 96.371094 36.140625 Z M 96.371094 36.140625 "/>
<path style=" stroke:none;fill-rule:nonzero;fill:rgb(51.764706%,85.882353%,100%);fill-opacity:1;" d="M 159.226562 24.710938 C 159.226562 27.441406 157.015625 29.652344 154.285156 29.652344 C 151.554688 29.652344 149.34375 27.441406 149.34375 24.710938 C 149.34375 21.980469 151.554688 19.769531 154.285156 19.769531 C 157.015625 19.769531 159.226562 21.980469 159.226562 24.710938 Z M 159.226562 24.710938 "/>
<path style=" stroke:none;fill-rule:nonzero;fill:rgb(100%,100%,100%);fill-opacity:1;" d="M 77.21875 48.339844 C 77.21875 62.414062 65.8125 73.824219 51.738281 73.824219 C 37.664062 73.824219 26.253906 62.414062 26.253906 48.339844 C 26.253906 34.265625 37.664062 22.855469 51.738281 22.855469 C 65.8125 22.855469 77.21875 34.265625 77.21875 48.339844 Z M 77.21875 48.339844 "/>
<path style=" stroke:none;fill-rule:nonzero;fill:rgb(100%,43.921569%,34.509804%);fill-opacity:1;" d="M 58.6875 48.339844 C 58.6875 52.179688 55.574219 55.289062 51.738281 55.289062 C 47.898438 55.289062 44.789062 52.179688 44.789062 48.339844 C 44.789062 44.5 47.898438 41.390625 51.738281 41.390625 C 55.574219 41.390625 58.6875 44.5 58.6875 48.339844 Z M 58.6875 48.339844 "/>
<path style=" stroke:none;fill-rule:nonzero;fill:rgb(13.72549%,12.156863%,12.54902%);fill-opacity:1;" d="M 51.738281 21.777344 C 44.789062 21.777344 38.609375 24.402344 33.824219 28.726562 L 27.644531 22.546875 L 28.726562 14.515625 C 28.726562 14.207031 28.726562 13.746094 28.417969 13.589844 L 18.53125 3.707031 C 18.222656 3.398438 17.761719 3.242188 17.296875 3.398438 C 16.832031 3.550781 16.523438 3.859375 16.523438 4.324219 L 15.445312 12.046875 L 7.722656 13.128906 C 7.257812 13.128906 6.949219 13.4375 6.796875 13.898438 C 6.640625 14.363281 6.796875 14.828125 7.105469 15.136719 L 16.988281 25.019531 C 17.144531 25.171875 17.453125 25.328125 17.761719 25.328125 C 17.761719 25.328125 17.914062 25.328125 17.914062 25.328125 L 25.945312 24.246094 L 32.125 30.425781 C 27.800781 35.210938 25.171875 41.390625 25.171875 48.339844 C 25.171875 63.011719 37.066406 74.902344 51.738281 74.902344 C 66.410156 74.902344 78.300781 63.011719 78.300781 48.339844 C 78.300781 33.667969 66.410156 21.777344 51.738281 21.777344 Z M 18.222656 22.855469 L 10.347656 15.136719 L 16.0625 14.363281 L 23.9375 22.238281 Z M 25.484375 20.539062 L 17.605469 12.664062 L 18.53125 6.949219 L 26.410156 14.828125 Z M 51.738281 72.585938 C 38.300781 72.585938 27.492188 61.777344 27.492188 48.339844 C 27.492188 42.007812 29.960938 36.292969 33.824219 31.96875 L 36.910156 35.058594 C 33.824219 38.609375 31.816406 43.242188 31.816406 48.183594 C 31.816406 59.152344 40.773438 67.953125 51.582031 67.953125 C 62.546875 67.953125 71.351562 58.996094 71.351562 48.183594 C 71.351562 37.375 62.394531 28.417969 51.582031 28.417969 C 46.488281 28.417969 41.851562 30.269531 38.457031 33.511719 L 35.367188 30.425781 C 39.691406 26.5625 45.40625 24.09375 51.738281 24.09375 C 65.171875 24.09375 75.984375 34.902344 75.984375 48.339844 C 75.984375 61.777344 65.019531 72.585938 51.738281 72.585938 Z M 41.542969 39.84375 C 39.535156 42.164062 38.457031 45.097656 38.457031 48.339844 C 38.457031 55.597656 44.480469 61.621094 51.738281 61.621094 C 58.996094 61.621094 65.019531 55.597656 65.019531 48.339844 C 65.019531 41.082031 58.996094 35.058594 51.738281 35.058594 C 48.496094 35.058594 45.558594 36.292969 43.242188 38.148438 L 40.15625 35.210938 C 43.242188 32.433594 47.257812 30.886719 51.738281 30.886719 C 61.46875 30.886719 69.34375 38.765625 69.34375 48.496094 C 69.34375 58.222656 61.46875 66.101562 51.738281 66.101562 C 42.007812 66.101562 34.285156 58.222656 34.285156 48.496094 C 34.285156 44.015625 35.984375 40 38.609375 36.910156 Z M 50.964844 49.113281 C 51.121094 49.265625 51.429688 49.421875 51.738281 49.421875 C 52.046875 49.421875 52.355469 49.265625 52.507812 49.113281 C 52.972656 48.648438 52.972656 47.875 52.507812 47.414062 L 44.789062 39.691406 C 46.640625 38.148438 49.113281 37.21875 51.738281 37.21875 C 57.761719 37.21875 62.703125 42.164062 62.703125 48.183594 C 62.703125 54.207031 57.761719 59.152344 51.738281 59.152344 C 45.714844 59.152344 40.773438 54.207031 40.773438 48.183594 C 40.773438 45.558594 41.699219 43.242188 43.242188 41.234375 Z M 50.964844 49.113281 "/>
</g>
</svg>
