<?xml version="1.0" encoding="UTF-8"?>
<svg xmlns="http://www.w3.org/2000/svg" xmlns:xlink="http://www.w3.org/1999/xlink" width="100px" height="100px" viewBox="0 0 100 100" version="1.1">
<g id="surface1">
<path style=" stroke:none;fill-rule:nonzero;fill:rgb(100%,100%,100%);fill-opacity:1;" d="M 66.71875 81.699219 L 46.488281 61.46875 L 48.726562 58.148438 L 47.105469 57.21875 C 45.558594 56.371094 43.785156 56.371094 42.164062 57.144531 C 42.164062 57.144531 42.164062 57.144531 42.085938 57.144531 C 40 58.222656 36.757812 59.460938 33.28125 59.535156 L 24.710938 73.511719 L 48.109375 96.757812 C 49.265625 97.914062 51.121094 97.914062 52.277344 96.757812 C 53.4375 95.597656 53.4375 93.746094 52.277344 92.585938 L 52.894531 93.203125 C 54.054688 94.285156 55.90625 94.285156 57.066406 93.128906 C 58.222656 91.96875 58.222656 90.117188 57.066406 88.957031 L 57.605469 89.5 C 58.765625 90.65625 60.617188 90.65625 61.777344 89.5 C 62.933594 88.339844 62.933594 86.488281 61.777344 85.328125 L 62.394531 85.945312 C 63.550781 87.105469 65.40625 87.105469 66.5625 85.945312 C 67.875 84.789062 67.875 82.855469 66.71875 81.699219 Z M 66.71875 81.699219 "/>
<path style=" stroke:none;fill-rule:nonzero;fill:rgb(13.72549%,12.156863%,12.54902%);fill-opacity:1;" d="M 48.804688 58.917969 C 48.648438 58.917969 48.570312 58.917969 48.417969 58.839844 L 46.71875 57.914062 C 45.40625 57.21875 43.859375 57.144531 42.546875 57.835938 C 42.164062 57.992188 41.699219 57.914062 41.542969 57.527344 C 41.3125 57.144531 41.46875 56.679688 41.851562 56.523438 C 43.628906 55.597656 45.714844 55.675781 47.492188 56.601562 L 49.1875 57.527344 C 49.574219 57.761719 49.652344 58.222656 49.5 58.609375 C 49.34375 58.765625 49.035156 58.917969 48.804688 58.917969 Z M 48.804688 58.917969 "/>
<path style=" stroke:none;fill-rule:nonzero;fill:rgb(19.607843%,29.019608%,36.862745%);fill-opacity:1;" d="M 99.226562 29.808594 L 99.226562 71.195312 L 85.714844 79.535156 L 67.257812 49.34375 Z M 99.226562 29.808594 "/>
<path style=" stroke:none;fill-rule:nonzero;fill:rgb(100%,100%,100%);fill-opacity:1;" d="M 22.527344 79.25 L 16.597656 75.625 L 30.488281 52.894531 L 36.421875 56.519531 Z M 22.527344 79.25 "/>
<path style=" stroke:none;fill-rule:nonzero;fill:rgb(19.607843%,29.019608%,36.862745%);fill-opacity:1;" d="M 32.742188 49.34375 L 14.363281 79.535156 L 0.773438 71.195312 L 0.773438 29.808594 Z M 32.742188 49.34375 "/>
<path style=" stroke:none;fill-rule:nonzero;fill:rgb(100%,100%,100%);fill-opacity:1;" d="M 54.75 63.707031 L 53.359375 64.941406 C 52.742188 65.558594 51.96875 65.945312 51.121094 66.101562 C 50.117188 66.332031 49.035156 66.253906 48.03125 65.867188 C 47.335938 65.636719 46.5625 65.792969 46.175781 66.410156 L 42.394531 71.273438 C 41.777344 72.046875 40.695312 72.277344 39.84375 71.816406 C 38.765625 71.195312 38.378906 69.882812 39.074219 68.804688 C 39.921875 67.414062 40.847656 65.558594 41.621094 64.09375 C 42.394531 62.546875 43.476562 61.160156 44.789062 60.15625 C 48.261719 57.453125 52.894531 56.988281 56.832031 58.996094 L 57.21875 59.226562 C 60.464844 60.847656 64.324219 60.847656 67.566406 59.152344 L 67.722656 59.074219 L 77.21875 74.285156 L 68.261719 80 C 67.105469 80.695312 65.636719 80.539062 64.632812 79.613281 L 51.660156 66.71875 "/>
<path style=" stroke:none;fill-rule:nonzero;fill:rgb(100%,100%,100%);fill-opacity:1;" d="M 32.199219 83.9375 C 31.195312 82.933594 31.195312 81.234375 32.199219 80.230469 L 34.75 77.683594 C 35.753906 76.679688 37.453125 76.679688 38.457031 77.683594 C 39.460938 78.6875 39.460938 80.386719 38.457031 81.390625 L 35.90625 83.9375 C 34.902344 84.941406 33.203125 84.941406 32.199219 83.9375 Z M 32.199219 83.9375 "/>
<path style=" stroke:none;fill-rule:nonzero;fill:rgb(100%,100%,100%);fill-opacity:1;" d="M 28.496094 80.230469 C 27.492188 79.226562 27.492188 77.527344 28.496094 76.523438 L 31.042969 73.976562 C 32.046875 72.972656 33.746094 72.972656 34.75 73.976562 C 35.753906 74.980469 35.753906 76.679688 34.75 77.683594 L 32.199219 80.230469 C 31.195312 81.234375 29.5 81.234375 28.496094 80.230469 Z M 28.496094 80.230469 "/>
<path style=" stroke:none;fill-rule:nonzero;fill:rgb(100%,100%,100%);fill-opacity:1;" d="M 35.90625 87.644531 C 34.902344 86.640625 34.902344 84.941406 35.90625 83.9375 L 38.457031 81.390625 C 39.460938 80.386719 41.160156 80.386719 42.164062 81.390625 C 43.167969 82.394531 43.167969 84.09375 42.164062 85.097656 L 39.613281 87.644531 C 38.609375 88.648438 36.910156 88.648438 35.90625 87.644531 Z M 35.90625 87.644531 "/>
<path style=" stroke:none;fill-rule:nonzero;fill:rgb(100%,100%,100%);fill-opacity:1;" d="M 39.613281 91.351562 C 38.609375 90.347656 38.609375 88.648438 39.613281 87.644531 L 42.164062 85.097656 C 43.167969 84.09375 44.863281 84.09375 45.867188 85.097656 C 46.871094 86.101562 46.871094 87.800781 45.867188 88.804688 L 43.320312 91.351562 C 42.316406 92.355469 40.617188 92.355469 39.613281 91.351562 Z M 39.613281 91.351562 "/>
<path style=" stroke:none;fill-rule:nonzero;fill:rgb(100%,100%,100%);fill-opacity:1;" d="M 63.601562 56.503906 L 69.53125 52.878906 L 83.425781 75.609375 L 77.496094 79.234375 Z M 63.601562 56.503906 "/>
<path style=" stroke:none;fill-rule:nonzero;fill:rgb(13.72549%,12.156863%,12.54902%);fill-opacity:1;" d="M 66.175781 49.113281 L 68.339844 52.664062 L 62.546875 56.214844 L 64.480469 59.382812 C 62.164062 59.921875 59.691406 59.613281 57.527344 58.53125 L 57.144531 58.300781 C 54.59375 56.988281 51.660156 56.679688 48.957031 57.296875 L 47.492188 56.449219 C 45.792969 55.519531 43.628906 55.445312 41.777344 56.371094 C 40.386719 57.066406 38.378906 57.914062 36.140625 58.378906 L 37.453125 56.214844 L 31.660156 52.664062 L 33.824219 49.113281 L 0 28.496094 L 0 71.660156 L 14.59375 80.539062 L 16.910156 76.757812 L 22.78125 80.308594 L 25.714844 75.519531 L 27.257812 77.066406 C 26.71875 78.300781 27.027344 79.769531 28.03125 80.773438 C 28.648438 81.390625 29.5 81.777344 30.425781 81.777344 C 30.578125 81.777344 30.65625 81.777344 30.734375 81.777344 C 30.734375 81.851562 30.734375 82.007812 30.734375 82.085938 C 30.734375 83.011719 31.121094 83.859375 31.738281 84.480469 C 32.355469 85.097656 33.203125 85.484375 34.132812 85.484375 C 34.207031 85.484375 34.363281 85.484375 34.441406 85.484375 C 34.441406 85.558594 34.441406 85.714844 34.441406 85.792969 C 34.441406 86.71875 34.828125 87.566406 35.445312 88.183594 C 36.0625 88.804688 36.910156 89.1875 37.835938 89.1875 C 37.914062 89.1875 38.070312 89.1875 38.148438 89.1875 C 38.070312 90.191406 38.378906 91.195312 39.074219 91.890625 C 39.691406 92.507812 40.539062 92.894531 41.46875 92.894531 C 41.929688 92.894531 42.394531 92.820312 42.855469 92.585938 L 47.566406 97.296875 C 48.261719 97.992188 49.1875 98.378906 50.191406 98.378906 C 51.195312 98.378906 52.125 97.992188 52.820312 97.296875 C 53.511719 96.523438 53.898438 95.597656 53.898438 94.59375 C 55.210938 94.980469 56.601562 94.59375 57.605469 93.667969 C 58.300781 92.972656 58.6875 91.96875 58.6875 90.964844 C 58.996094 91.042969 59.382812 91.121094 59.769531 91.121094 C 60.773438 91.121094 61.699219 90.734375 62.394531 90.039062 C 63.089844 89.265625 63.476562 88.339844 63.476562 87.335938 C 63.785156 87.414062 64.167969 87.492188 64.554688 87.492188 C 65.558594 87.492188 66.488281 87.105469 67.179688 86.410156 C 67.875 85.714844 68.261719 84.789062 68.261719 83.785156 C 68.261719 82.78125 67.875 81.851562 67.179688 81.160156 L 67.179688 81.082031 C 67.644531 81.003906 68.109375 80.847656 68.570312 80.539062 L 74.980469 76.523438 L 77.296875 80.308594 L 83.167969 76.757812 L 85.484375 80.617188 L 100.078125 71.738281 L 100.078125 28.496094 Z M 14.054688 78.457031 L 1.542969 70.8125 L 1.542969 31.195312 L 31.660156 49.652344 Z M 22.238281 78.222656 L 17.683594 75.445312 L 30.8125 53.976562 L 35.367188 56.757812 Z M 31.660156 79.769531 C 30.964844 80.386719 29.808594 80.386719 29.113281 79.691406 C 28.726562 79.304688 28.570312 78.839844 28.570312 78.378906 C 28.570312 77.914062 28.804688 77.453125 29.113281 77.066406 L 31.660156 74.515625 C 32.046875 74.132812 32.507812 73.976562 32.972656 73.976562 C 33.4375 73.976562 33.898438 74.132812 34.285156 74.515625 C 34.671875 74.902344 34.828125 75.367188 34.828125 75.832031 C 34.828125 76.292969 34.671875 76.757812 34.363281 77.066406 C 34.363281 77.066406 34.363281 77.066406 34.285156 77.144531 L 31.660156 79.769531 C 31.660156 79.691406 31.660156 79.691406 31.660156 79.769531 Z M 35.289062 83.476562 C 34.59375 84.09375 33.4375 84.09375 32.742188 83.398438 C 32.355469 83.011719 32.199219 82.546875 32.199219 82.085938 C 32.199219 81.621094 32.355469 81.160156 32.664062 80.847656 C 32.664062 80.847656 32.664062 80.847656 32.742188 80.773438 L 35.289062 78.222656 C 35.289062 78.222656 35.289062 78.222656 35.367188 78.148438 C 35.675781 77.835938 36.140625 77.683594 36.601562 77.683594 C 37.066406 77.683594 37.527344 77.914062 37.914062 78.222656 C 38.300781 78.609375 38.457031 79.074219 38.457031 79.535156 C 38.457031 80 38.300781 80.464844 37.992188 80.773438 C 37.992188 80.773438 37.914062 80.847656 37.914062 80.847656 L 35.367188 83.398438 C 35.367188 83.398438 35.289062 83.398438 35.289062 83.476562 Z M 38.996094 87.179688 C 38.300781 87.800781 37.144531 87.800781 36.449219 87.105469 C 36.0625 86.71875 35.90625 86.253906 35.90625 85.792969 C 35.90625 85.328125 36.0625 84.863281 36.371094 84.554688 C 36.371094 84.554688 36.449219 84.480469 36.449219 84.480469 L 38.996094 81.929688 C 38.996094 81.929688 39.074219 81.851562 39.074219 81.851562 C 39.382812 81.542969 39.84375 81.390625 40.308594 81.390625 C 40.773438 81.390625 41.234375 81.542969 41.621094 81.929688 C 42.007812 82.316406 42.164062 82.78125 42.164062 83.242188 C 42.164062 83.707031 42.007812 84.167969 41.699219 84.480469 C 41.699219 84.480469 41.621094 84.554688 41.621094 84.554688 L 38.996094 87.179688 C 39.074219 87.105469 38.996094 87.105469 38.996094 87.179688 Z M 42.78125 90.8125 C 42.085938 91.503906 40.847656 91.503906 40.15625 90.8125 C 39.460938 90.117188 39.460938 88.957031 40.078125 88.261719 C 40.078125 88.261719 40.15625 88.183594 40.15625 88.183594 L 42.703125 85.636719 C 42.703125 85.636719 42.78125 85.558594 42.78125 85.558594 C 43.089844 85.25 43.550781 85.097656 44.015625 85.097656 C 44.480469 85.097656 44.941406 85.328125 45.328125 85.636719 C 45.714844 86.023438 45.867188 86.488281 45.867188 86.949219 C 45.867188 87.414062 45.714844 87.875 45.328125 88.261719 Z M 51.738281 96.214844 C 50.886719 97.066406 49.421875 97.066406 48.648438 96.214844 L 44.09375 91.660156 L 46.410156 89.34375 C 46.71875 89.035156 46.949219 88.726562 47.105469 88.339844 L 51.816406 93.050781 C 52.664062 93.976562 52.664062 95.367188 51.738281 96.214844 Z M 66.175781 85.40625 C 65.328125 86.253906 63.859375 86.253906 63.089844 85.40625 L 55.058594 77.296875 C 54.75 76.988281 54.285156 76.988281 53.976562 77.296875 C 53.667969 77.605469 53.667969 78.070312 53.976562 78.378906 L 61.46875 85.867188 C 62.316406 86.71875 62.316406 88.109375 61.46875 88.957031 C 60.617188 89.808594 59.152344 89.808594 58.378906 88.957031 L 50.734375 81.3125 C 50.425781 81.003906 49.960938 81.003906 49.652344 81.3125 C 49.34375 81.621094 49.34375 82.085938 49.652344 82.394531 L 56.679688 89.421875 C 57.527344 90.269531 57.527344 91.660156 56.679688 92.507812 C 55.832031 93.359375 54.441406 93.359375 53.589844 92.585938 L 47.414062 86.410156 C 47.335938 85.714844 47.027344 85.019531 46.488281 84.480469 C 45.867188 83.859375 45.019531 83.476562 44.09375 83.476562 C 44.015625 83.476562 43.859375 83.476562 43.785156 83.476562 C 43.859375 82.472656 43.550781 81.46875 42.855469 80.773438 C 42.238281 80.15625 41.390625 79.769531 40.464844 79.769531 C 40.386719 79.769531 40.230469 79.769531 40.15625 79.769531 C 40.15625 79.691406 40.15625 79.535156 40.15625 79.460938 C 40.15625 78.53125 39.769531 77.683594 39.152344 77.066406 C 38.53125 76.449219 37.683594 76.0625 36.757812 76.0625 C 36.601562 76.0625 36.523438 76.0625 36.449219 76.0625 C 36.449219 75.984375 36.449219 75.832031 36.449219 75.753906 C 36.449219 74.828125 36.0625 73.976562 35.445312 73.359375 C 34.828125 72.742188 33.976562 72.355469 33.050781 72.355469 C 32.125 72.355469 31.273438 72.742188 30.65625 73.359375 L 28.339844 75.675781 L 26.71875 74.054688 L 35.289062 60 C 38.222656 59.613281 40.925781 58.53125 42.78125 57.605469 C 44.09375 56.910156 45.714844 56.988281 46.949219 57.683594 L 47.179688 57.835938 C 46.253906 58.222656 45.328125 58.765625 44.480469 59.382812 C 43.011719 60.539062 41.851562 62.007812 41.082031 63.628906 C 40.464844 65.019531 39.460938 66.871094 38.609375 68.261719 C 38.222656 68.957031 38.070312 69.730469 38.300781 70.5 C 38.53125 71.273438 38.996094 71.96875 39.769531 72.355469 C 40.925781 72.972656 42.472656 72.664062 43.242188 71.582031 L 47.027344 66.71875 C 47.257812 66.410156 47.644531 66.332031 48.03125 66.488281 C 49.035156 66.871094 50.191406 67.027344 51.273438 66.796875 C 51.273438 66.871094 66.488281 82.085938 66.488281 82.085938 C 66.871094 82.472656 67.105469 83.089844 67.105469 83.628906 C 66.796875 84.402344 66.5625 84.941406 66.175781 85.40625 Z M 67.722656 79.304688 C 66.871094 79.84375 65.792969 79.691406 65.019531 78.996094 L 52.507812 66.488281 C 52.972656 66.253906 53.4375 65.945312 53.824219 65.558594 L 55.210938 64.324219 C 55.519531 64.015625 55.519531 63.550781 55.289062 63.242188 C 54.980469 62.933594 54.515625 62.933594 54.207031 63.167969 L 52.820312 64.402344 C 52.277344 64.863281 51.660156 65.25 50.964844 65.40625 C 50.117188 65.636719 49.1875 65.558594 48.339844 65.25 C 47.335938 64.863281 46.253906 65.171875 45.558594 66.023438 L 41.777344 70.886719 C 41.390625 71.351562 40.773438 71.503906 40.230469 71.195312 C 39.921875 71.042969 39.691406 70.734375 39.535156 70.347656 C 39.460938 69.960938 39.535156 69.574219 39.691406 69.265625 C 40.617188 67.800781 41.542969 65.867188 42.238281 64.480469 C 42.933594 63.011719 43.9375 61.777344 45.25 60.773438 C 48.417969 58.300781 52.820312 57.835938 56.449219 59.691406 L 56.832031 59.921875 C 59.460938 61.3125 62.546875 61.542969 65.328125 60.773438 L 74.132812 75.289062 Z M 77.761719 78.222656 L 64.632812 56.757812 L 69.1875 53.976562 L 82.316406 75.445312 Z M 98.457031 70.8125 L 85.945312 78.457031 L 68.339844 49.652344 L 98.457031 31.195312 Z M 98.457031 70.8125 "/>
<path style=" stroke:none;fill-rule:nonzero;fill:rgb(100%,100%,100%);fill-opacity:1;" d="M 79.613281 22.855469 L 77.992188 19.613281 L 77.761719 19.691406 C 76.371094 20.230469 74.902344 19.921875 73.824219 18.917969 C 73.589844 18.6875 73.359375 18.53125 73.203125 18.378906 C 72.046875 17.453125 71.503906 15.984375 71.816406 14.59375 L 71.890625 14.363281 L 68.417969 13.203125 L 68.339844 13.4375 C 67.722656 14.75 66.410156 15.597656 64.941406 15.675781 C 64.632812 15.675781 64.402344 15.675781 64.09375 15.753906 C 62.625 15.90625 61.234375 15.289062 60.464844 14.054688 L 60.230469 13.824219 L 56.988281 15.445312 L 57.066406 15.675781 C 57.605469 17.066406 57.296875 18.53125 56.292969 19.613281 C 56.0625 19.84375 55.90625 20.078125 55.753906 20.230469 C 54.828125 21.390625 53.359375 21.929688 51.96875 21.621094 L 51.660156 21.621094 L 50.5 25.097656 L 50.734375 25.171875 C 52.046875 25.792969 52.894531 27.105469 52.972656 28.570312 C 52.972656 28.878906 52.972656 29.113281 53.050781 29.421875 C 53.203125 30.886719 52.585938 32.277344 51.351562 33.050781 L 51.195312 33.203125 L 52.820312 36.449219 L 53.050781 36.371094 C 54.441406 35.832031 55.90625 36.140625 56.988281 37.144531 C 57.21875 37.375 57.453125 37.527344 57.605469 37.683594 C 58.765625 38.609375 59.304688 40.078125 58.996094 41.46875 L 58.917969 41.699219 L 62.394531 42.855469 L 62.472656 42.625 C 63.089844 41.3125 64.402344 40.464844 65.867188 40.386719 C 66.175781 40.386719 66.410156 40.386719 66.71875 40.308594 C 68.183594 40.15625 69.574219 40.773438 70.347656 42.007812 L 70.5 42.238281 L 73.746094 40.617188 L 73.667969 40.386719 C 73.128906 38.996094 73.4375 37.527344 74.441406 36.449219 C 74.671875 36.214844 74.828125 35.984375 74.980469 35.832031 C 75.90625 34.671875 77.375 34.132812 78.765625 34.441406 L 78.996094 34.515625 L 80.15625 31.042969 L 79.921875 30.964844 C 78.609375 30.347656 77.761719 29.035156 77.683594 27.566406 C 77.683594 27.257812 77.683594 27.027344 77.605469 26.71875 C 77.453125 25.25 78.070312 23.859375 79.304688 23.089844 Z M 79.613281 22.855469 "/>
<path style=" stroke:none;fill-rule:nonzero;fill:rgb(13.72549%,12.156863%,12.54902%);fill-opacity:1;" d="M 62.472656 43.476562 C 62.394531 43.476562 62.316406 43.476562 62.316406 43.476562 L 58.839844 42.316406 C 58.53125 42.238281 58.378906 41.929688 58.457031 41.621094 L 58.53125 41.390625 C 58.839844 40.230469 58.378906 38.996094 57.375 38.148438 C 57.144531 37.992188 56.910156 37.761719 56.679688 37.527344 C 55.753906 36.679688 54.441406 36.371094 53.28125 36.832031 L 53.050781 36.910156 C 52.742188 36.988281 52.433594 36.910156 52.355469 36.601562 L 50.734375 33.359375 C 50.578125 33.128906 50.65625 32.742188 50.964844 32.585938 L 51.195312 32.433594 C 52.199219 31.816406 52.742188 30.578125 52.664062 29.34375 C 52.664062 29.035156 52.585938 28.726562 52.585938 28.417969 C 52.507812 27.105469 51.816406 26.023438 50.65625 25.558594 L 50.425781 25.484375 C 50.117188 25.328125 50.039062 25.019531 50.117188 24.789062 L 51.273438 21.3125 C 51.351562 21.003906 51.660156 20.847656 51.96875 20.925781 L 52.199219 21.003906 C 53.359375 21.234375 54.59375 20.773438 55.445312 19.84375 C 55.597656 19.613281 55.832031 19.382812 56.0625 19.152344 C 56.910156 18.222656 57.21875 16.910156 56.757812 15.753906 L 56.679688 15.519531 C 56.601562 15.210938 56.679688 14.902344 56.988281 14.828125 L 60.230469 13.203125 C 60.464844 13.050781 60.847656 13.128906 61.003906 13.4375 L 61.160156 13.667969 C 61.777344 14.671875 63.011719 15.210938 64.246094 15.136719 C 64.554688 15.136719 64.863281 15.058594 65.171875 15.058594 C 66.488281 14.980469 67.566406 14.285156 68.03125 13.128906 L 68.109375 12.894531 C 68.261719 12.585938 68.570312 12.507812 68.804688 12.585938 L 72.277344 13.746094 C 72.585938 13.824219 72.742188 14.132812 72.664062 14.441406 L 72.355469 14.671875 C 72.046875 15.832031 72.507812 17.066406 73.511719 17.914062 C 73.746094 18.070312 73.976562 18.300781 74.207031 18.53125 C 75.136719 19.382812 76.449219 19.691406 77.605469 19.226562 L 77.835938 19.152344 C 78.148438 19.074219 78.457031 19.152344 78.53125 19.460938 L 80.15625 22.703125 C 80.308594 22.933594 80.230469 23.320312 79.921875 23.476562 L 79.691406 23.628906 C 78.6875 24.246094 78.148438 25.484375 78.222656 26.71875 C 78.222656 27.027344 78.300781 27.335938 78.300781 27.644531 C 78.378906 28.957031 79.074219 30.039062 80.230469 30.5 L 80.464844 30.578125 C 80.773438 30.734375 80.847656 31.042969 80.773438 31.273438 L 79.613281 34.75 C 79.535156 35.058594 79.226562 35.210938 78.917969 35.136719 L 78.6875 35.058594 C 77.527344 34.828125 76.292969 35.289062 75.445312 36.214844 C 75.289062 36.449219 75.058594 36.679688 74.828125 36.910156 C 73.976562 37.835938 73.667969 39.152344 74.132812 40.308594 L 74.207031 40.539062 C 74.285156 40.847656 74.207031 41.160156 73.898438 41.234375 L 70.65625 42.855469 C 70.425781 43.011719 70.039062 42.933594 69.882812 42.625 L 69.730469 42.394531 C 69.113281 41.390625 67.875 40.847656 66.640625 40.925781 C 66.332031 40.925781 66.023438 41.003906 65.714844 41.003906 C 64.402344 41.082031 63.320312 41.777344 62.855469 42.933594 L 62.78125 43.167969 C 62.855469 43.320312 62.703125 43.476562 62.472656 43.476562 Z M 59.691406 41.390625 L 62.164062 42.238281 C 62.855469 40.847656 64.324219 40 65.945312 39.921875 C 66.253906 39.921875 66.488281 39.921875 66.796875 39.84375 C 68.417969 39.691406 69.960938 40.308594 70.8125 41.542969 L 73.128906 40.386719 C 72.664062 38.917969 73.050781 37.296875 74.132812 36.0625 C 74.285156 35.832031 74.515625 35.675781 74.671875 35.445312 C 75.675781 34.207031 77.21875 33.589844 78.765625 33.824219 L 79.613281 31.351562 C 78.222656 30.65625 77.375 29.1875 77.296875 27.566406 C 77.296875 27.257812 77.296875 27.027344 77.21875 26.71875 C 77.066406 25.097656 77.683594 23.550781 78.917969 22.625 L 77.761719 20.308594 C 76.292969 20.773438 74.671875 20.386719 73.4375 19.304688 C 73.203125 19.152344 73.050781 18.917969 72.820312 18.765625 C 71.582031 17.761719 70.964844 16.214844 71.195312 14.671875 L 68.648438 13.898438 C 67.953125 15.289062 66.488281 16.140625 64.863281 16.214844 C 64.554688 16.214844 64.324219 16.214844 64.015625 16.292969 C 62.394531 16.449219 60.847656 15.832031 59.921875 14.59375 L 57.605469 15.753906 C 58.070312 17.21875 57.683594 18.839844 56.601562 20.078125 C 56.449219 20.308594 56.214844 20.464844 56.0625 20.695312 C 55.058594 21.929688 53.511719 22.546875 51.96875 22.316406 L 51.121094 24.789062 C 52.507812 25.484375 53.359375 26.949219 53.4375 28.570312 C 53.4375 28.878906 53.4375 29.113281 53.511719 29.421875 C 53.667969 31.042969 53.050781 32.585938 51.816406 33.4375 L 52.972656 35.753906 C 54.441406 35.289062 56.0625 35.675781 57.296875 36.757812 C 57.527344 36.910156 57.683594 37.144531 57.914062 37.296875 C 59.304688 38.300781 59.921875 39.84375 59.691406 41.390625 Z M 59.691406 41.390625 "/>
<path style=" stroke:none;fill-rule:nonzero;fill:rgb(13.72549%,12.156863%,12.54902%);fill-opacity:1;" d="M 65.40625 38.070312 L 65.328125 36.910156 C 65.558594 36.910156 65.792969 36.910156 66.023438 36.910156 L 66.101562 38.070312 C 65.945312 38.070312 65.714844 38.070312 65.40625 38.070312 Z M 63.785156 37.914062 C 63.550781 37.835938 63.242188 37.835938 63.011719 37.761719 L 63.320312 36.679688 C 63.550781 36.757812 63.785156 36.757812 64.015625 36.832031 Z M 67.800781 37.761719 L 67.492188 36.601562 C 67.722656 36.523438 67.953125 36.449219 68.183594 36.371094 L 68.570312 37.453125 C 68.339844 37.605469 68.03125 37.683594 67.800781 37.761719 Z M 61.390625 37.21875 C 61.160156 37.144531 60.925781 36.988281 60.617188 36.832031 L 61.160156 35.832031 C 61.390625 35.90625 61.621094 36.0625 61.777344 36.140625 Z M 70.117188 36.910156 L 69.574219 35.90625 C 69.808594 35.832031 69.960938 35.675781 70.191406 35.519531 L 70.8125 36.523438 C 70.578125 36.601562 70.347656 36.757812 70.117188 36.910156 Z M 59.304688 35.984375 C 59.074219 35.832031 58.839844 35.675781 58.6875 35.445312 L 59.460938 34.59375 C 59.613281 34.75 59.84375 34.902344 60 35.058594 Z M 72.125 35.519531 L 71.351562 34.671875 C 71.503906 34.515625 71.738281 34.363281 71.890625 34.132812 L 72.742188 34.902344 C 72.507812 35.136719 72.277344 35.289062 72.125 35.519531 Z M 57.527344 34.285156 C 57.375 34.054688 57.21875 33.824219 57.066406 33.589844 L 57.992188 32.972656 C 58.148438 33.203125 58.300781 33.359375 58.378906 33.589844 Z M 73.667969 33.667969 L 72.742188 33.050781 C 72.894531 32.820312 72.972656 32.664062 73.128906 32.433594 L 74.132812 32.972656 C 73.976562 33.203125 73.824219 33.4375 73.667969 33.667969 Z M 56.292969 32.199219 C 56.214844 31.96875 56.0625 31.738281 55.984375 31.429688 L 57.066406 31.042969 C 57.144531 31.273438 57.21875 31.503906 57.375 31.738281 Z M 74.828125 31.429688 L 73.746094 31.042969 C 73.824219 30.8125 73.898438 30.578125 73.976562 30.347656 L 75.058594 30.65625 C 74.980469 30.964844 74.902344 31.195312 74.828125 31.429688 Z M 55.597656 29.808594 C 55.519531 29.574219 55.519531 29.265625 55.519531 29.035156 L 56.679688 28.957031 C 56.679688 29.1875 56.757812 29.421875 56.757812 29.652344 Z M 75.367188 29.113281 L 74.207031 28.957031 C 74.207031 28.726562 74.285156 28.496094 74.285156 28.261719 L 75.445312 28.261719 C 75.367188 28.570312 75.367188 28.804688 75.367188 29.113281 Z M 56.601562 27.492188 L 55.445312 27.414062 C 55.445312 27.105469 55.519531 26.871094 55.519531 26.5625 L 56.679688 26.71875 C 56.601562 27.027344 56.601562 27.257812 56.601562 27.492188 Z M 74.132812 26.796875 C 74.132812 26.5625 74.054688 26.332031 73.976562 26.101562 L 75.136719 25.867188 C 75.210938 26.101562 75.210938 26.410156 75.289062 26.640625 Z M 56.988281 25.328125 L 55.90625 24.941406 C 55.984375 24.710938 56.0625 24.402344 56.214844 24.167969 L 57.296875 24.632812 C 57.144531 24.863281 57.066406 25.097656 56.988281 25.328125 Z M 73.589844 24.710938 C 73.511719 24.480469 73.4375 24.246094 73.28125 24.015625 L 74.285156 23.476562 C 74.441406 23.707031 74.515625 23.9375 74.59375 24.246094 Z M 72.972656 23.476562 C 72.820312 23.242188 72.742188 23.089844 72.585938 22.855469 L 73.511719 22.164062 C 73.667969 22.394531 73.824219 22.625 73.976562 22.855469 Z M 57.914062 23.398438 L 56.910156 22.78125 C 57.066406 22.546875 57.21875 22.316406 57.375 22.085938 L 58.300781 22.78125 C 58.148438 23.011719 57.992188 23.167969 57.914062 23.398438 Z M 71.660156 21.777344 C 71.503906 21.621094 71.273438 21.46875 71.121094 21.3125 L 71.890625 20.464844 C 72.125 20.617188 72.277344 20.847656 72.507812 21.003906 Z M 59.226562 21.699219 L 58.457031 20.847656 C 58.6875 20.695312 58.839844 20.464844 59.074219 20.308594 L 59.769531 21.234375 C 59.613281 21.390625 59.382812 21.542969 59.226562 21.699219 Z M 69.882812 20.464844 C 69.652344 20.308594 69.5 20.230469 69.265625 20.15625 L 69.808594 19.152344 C 70.039062 19.304688 70.269531 19.382812 70.5 19.535156 Z M 60.925781 20.386719 L 60.386719 19.382812 C 60.539062 19.304688 60.695312 19.226562 60.925781 19.074219 L 61.160156 18.996094 L 61.621094 20 L 61.390625 20.078125 C 61.234375 20.230469 61.082031 20.308594 60.925781 20.386719 Z M 67.953125 19.613281 C 67.722656 19.535156 67.492188 19.460938 67.257812 19.460938 L 67.492188 18.300781 C 67.722656 18.378906 68.03125 18.457031 68.261719 18.53125 Z M 62.933594 19.535156 L 62.625 18.457031 C 62.855469 18.378906 63.167969 18.300781 63.398438 18.222656 L 63.628906 19.382812 C 63.398438 19.460938 63.167969 19.460938 62.933594 19.535156 Z M 65.792969 19.226562 C 65.558594 19.226562 65.328125 19.226562 65.097656 19.226562 L 65.019531 18.070312 C 65.328125 18.070312 65.558594 18.070312 65.867188 18.070312 Z M 65.792969 19.226562 "/>
<path style=" stroke:none;fill-rule:nonzero;fill:rgb(90.196078%,91.372549%,93.333333%);fill-opacity:1;" d="M 72.894531 28.03125 C 72.894531 32.167969 69.542969 35.519531 65.40625 35.519531 C 61.269531 35.519531 57.914062 32.167969 57.914062 28.03125 C 57.914062 23.894531 61.269531 20.539062 65.40625 20.539062 C 69.542969 20.539062 72.894531 23.894531 72.894531 28.03125 Z M 72.894531 28.03125 "/>
<path style=" stroke:none;fill-rule:nonzero;fill:rgb(100%,100%,100%);fill-opacity:1;" d="M 69.113281 28.03125 C 69.113281 30.078125 67.453125 31.738281 65.40625 31.738281 C 63.359375 31.738281 61.699219 30.078125 61.699219 28.03125 C 61.699219 25.984375 63.359375 24.324219 65.40625 24.324219 C 67.453125 24.324219 69.113281 25.984375 69.113281 28.03125 Z M 69.113281 28.03125 "/>
<path style=" stroke:none;fill-rule:nonzero;fill:rgb(13.72549%,12.156863%,12.54902%);fill-opacity:1;" d="M 65.40625 32.355469 C 63.785156 32.355469 62.316406 31.429688 61.542969 29.960938 C 61.003906 28.957031 60.925781 27.800781 61.3125 26.640625 C 61.699219 25.558594 62.472656 24.632812 63.476562 24.167969 C 64.09375 23.859375 64.710938 23.707031 65.40625 23.707031 C 67.027344 23.707031 68.496094 24.632812 69.265625 26.101562 C 69.808594 27.105469 69.882812 28.261719 69.5 29.421875 C 69.113281 30.5 68.339844 31.429688 67.335938 31.890625 C 66.71875 32.199219 66.101562 32.355469 65.40625 32.355469 Z M 65.40625 24.863281 C 64.941406 24.863281 64.402344 24.941406 64.015625 25.171875 C 63.242188 25.558594 62.703125 26.175781 62.472656 27.027344 C 62.238281 27.875 62.238281 28.648438 62.625 29.421875 C 63.167969 30.5 64.246094 31.121094 65.484375 31.121094 C 65.945312 31.121094 66.488281 31.042969 66.871094 30.8125 C 67.644531 30.425781 68.183594 29.808594 68.417969 28.957031 C 68.648438 28.183594 68.648438 27.335938 68.261719 26.5625 C 67.644531 25.558594 66.5625 24.863281 65.40625 24.863281 Z M 65.40625 24.863281 "/>
<path style=" stroke:none;fill-rule:nonzero;fill:rgb(13.72549%,12.156863%,12.54902%);fill-opacity:1;" d="M 76.601562 89.265625 C 76.449219 89.265625 76.292969 89.1875 76.214844 89.113281 C 75.984375 88.878906 75.984375 88.496094 76.214844 88.261719 L 77.21875 87.257812 C 77.453125 87.027344 77.835938 87.027344 78.070312 87.257812 C 78.300781 87.492188 78.300781 87.875 78.070312 88.109375 L 77.066406 89.113281 C 76.910156 89.1875 76.757812 89.265625 76.601562 89.265625 Z M 76.601562 89.265625 "/>
<path style=" stroke:none;fill-rule:nonzero;fill:rgb(13.72549%,12.156863%,12.54902%);fill-opacity:1;" d="M 73.511719 92.355469 C 73.359375 92.355469 73.203125 92.277344 73.128906 92.199219 C 72.894531 91.96875 72.894531 91.582031 73.128906 91.351562 L 74.132812 90.347656 C 74.363281 90.117188 74.75 90.117188 74.980469 90.347656 C 75.210938 90.578125 75.210938 90.964844 74.980469 91.195312 L 73.976562 92.199219 C 73.824219 92.277344 73.667969 92.355469 73.511719 92.355469 Z M 73.511719 92.355469 "/>
<path style=" stroke:none;fill-rule:nonzero;fill:rgb(13.72549%,12.156863%,12.54902%);fill-opacity:1;" d="M 77.605469 92.355469 C 77.453125 92.355469 77.296875 92.277344 77.21875 92.199219 L 76.214844 91.195312 C 75.984375 90.964844 75.984375 90.578125 76.214844 90.347656 C 76.449219 90.117188 76.832031 90.117188 77.066406 90.347656 L 78.070312 91.351562 C 78.300781 91.582031 78.300781 91.96875 78.070312 92.199219 C 77.914062 92.277344 77.761719 92.355469 77.605469 92.355469 Z M 77.605469 92.355469 "/>
<path style=" stroke:none;fill-rule:nonzero;fill:rgb(13.72549%,12.156863%,12.54902%);fill-opacity:1;" d="M 74.515625 89.265625 C 74.363281 89.265625 74.207031 89.1875 74.132812 89.113281 L 73.128906 88.109375 C 72.894531 87.875 72.894531 87.492188 73.128906 87.257812 C 73.359375 87.027344 73.746094 87.027344 73.976562 87.257812 L 74.980469 88.261719 C 75.210938 88.496094 75.210938 88.878906 74.980469 89.113281 C 74.75 89.1875 74.671875 89.265625 74.515625 89.265625 Z M 74.515625 89.265625 "/>
<path style=" stroke:none;fill-rule:nonzero;fill:rgb(13.72549%,12.156863%,12.54902%);fill-opacity:1;" d="M 98.222656 14.441406 C 98.070312 14.441406 97.914062 14.363281 97.835938 14.285156 C 97.605469 14.054688 97.605469 13.667969 97.835938 13.4375 L 98.839844 12.433594 C 99.074219 12.199219 99.460938 12.199219 99.691406 12.433594 C 99.921875 12.664062 99.921875 13.050781 99.691406 13.28125 L 98.6875 14.285156 C 98.53125 14.363281 98.378906 14.441406 98.222656 14.441406 Z M 98.222656 14.441406 "/>
<path style=" stroke:none;fill-rule:nonzero;fill:rgb(13.72549%,12.156863%,12.54902%);fill-opacity:1;" d="M 95.136719 17.527344 C 94.980469 17.527344 94.828125 17.453125 94.75 17.375 C 94.515625 17.144531 94.515625 16.757812 94.75 16.523438 L 95.753906 15.519531 C 95.984375 15.289062 96.371094 15.289062 96.601562 15.519531 C 96.832031 15.753906 96.832031 16.140625 96.601562 16.371094 L 95.597656 17.375 C 95.445312 17.453125 95.289062 17.527344 95.136719 17.527344 Z M 95.136719 17.527344 "/>
<path style=" stroke:none;fill-rule:nonzero;fill:rgb(13.72549%,12.156863%,12.54902%);fill-opacity:1;" d="M 99.226562 17.527344 C 99.074219 17.527344 98.917969 17.453125 98.839844 17.375 L 97.835938 16.371094 C 97.605469 16.140625 97.605469 15.753906 97.835938 15.519531 C 98.070312 15.289062 98.457031 15.289062 98.6875 15.519531 L 99.691406 16.523438 C 99.921875 16.757812 99.921875 17.144531 99.691406 17.375 C 99.535156 17.453125 99.382812 17.527344 99.226562 17.527344 Z M 99.226562 17.527344 "/>
<path style=" stroke:none;fill-rule:nonzero;fill:rgb(13.72549%,12.156863%,12.54902%);fill-opacity:1;" d="M 96.140625 14.441406 C 95.984375 14.441406 95.832031 14.363281 95.753906 14.285156 L 94.75 13.28125 C 94.515625 13.050781 94.515625 12.664062 94.75 12.433594 C 94.980469 12.199219 95.367188 12.199219 95.597656 12.433594 L 96.601562 13.4375 C 96.832031 13.667969 96.832031 14.054688 96.601562 14.285156 C 96.449219 14.363281 96.292969 14.441406 96.140625 14.441406 Z M 96.140625 14.441406 "/>
<path style=" stroke:none;fill-rule:nonzero;fill:rgb(13.72549%,12.156863%,12.54902%);fill-opacity:1;" d="M 47.722656 43.089844 C 47.566406 43.089844 47.414062 43.011719 47.335938 42.933594 C 47.105469 42.703125 47.105469 42.316406 47.335938 42.085938 L 48.339844 41.082031 C 48.570312 40.847656 48.957031 40.847656 49.1875 41.082031 C 49.421875 41.3125 49.421875 41.699219 49.1875 41.929688 L 48.183594 42.933594 C 47.953125 43.011719 47.875 43.089844 47.722656 43.089844 Z M 47.722656 43.089844 "/>
<path style=" stroke:none;fill-rule:nonzero;fill:rgb(13.72549%,12.156863%,12.54902%);fill-opacity:1;" d="M 44.632812 46.175781 C 44.480469 46.175781 44.324219 46.101562 44.246094 46.023438 C 44.015625 45.792969 44.015625 45.40625 44.246094 45.171875 L 45.25 44.167969 C 45.484375 43.9375 45.867188 43.9375 46.101562 44.167969 C 46.332031 44.402344 46.332031 44.789062 46.101562 45.019531 L 45.097656 46.023438 C 44.863281 46.101562 44.710938 46.175781 44.632812 46.175781 Z M 44.632812 46.175781 "/>
<path style=" stroke:none;fill-rule:nonzero;fill:rgb(13.72549%,12.156863%,12.54902%);fill-opacity:1;" d="M 48.648438 46.175781 C 48.496094 46.175781 48.339844 46.101562 48.261719 46.023438 L 47.257812 45.019531 C 47.027344 44.789062 47.027344 44.402344 47.257812 44.167969 C 47.492188 43.9375 47.875 43.9375 48.109375 44.167969 L 49.113281 45.171875 C 49.34375 45.40625 49.34375 45.792969 49.113281 46.023438 C 48.957031 46.101562 48.804688 46.175781 48.648438 46.175781 Z M 48.648438 46.175781 "/>
<path style=" stroke:none;fill-rule:nonzero;fill:rgb(13.72549%,12.156863%,12.54902%);fill-opacity:1;" d="M 45.558594 43.089844 C 45.40625 43.089844 45.25 43.011719 45.171875 42.933594 L 44.167969 41.929688 C 43.9375 41.699219 43.9375 41.3125 44.167969 41.082031 C 44.402344 40.847656 44.789062 40.847656 45.019531 41.082031 L 46.023438 42.085938 C 46.253906 42.316406 46.253906 42.703125 46.023438 42.933594 C 45.867188 43.011719 45.714844 43.089844 45.558594 43.089844 Z M 45.558594 43.089844 "/>
<path style=" stroke:none;fill-rule:nonzero;fill:rgb(13.72549%,12.156863%,12.54902%);fill-opacity:1;" d="M 54.515625 9.34375 C 54.363281 9.34375 54.207031 9.265625 54.132812 9.1875 C 53.898438 8.957031 53.898438 8.570312 54.132812 8.339844 L 55.136719 7.335938 C 55.367188 7.105469 55.753906 7.105469 55.984375 7.335938 C 56.214844 7.566406 56.214844 7.953125 55.984375 8.183594 L 54.980469 9.1875 C 54.75 9.265625 54.59375 9.34375 54.515625 9.34375 Z M 54.515625 9.34375 "/>
<path style=" stroke:none;fill-rule:nonzero;fill:rgb(13.72549%,12.156863%,12.54902%);fill-opacity:1;" d="M 51.351562 12.433594 C 51.195312 12.433594 51.042969 12.355469 50.964844 12.277344 C 50.734375 12.046875 50.734375 11.660156 50.964844 11.429688 L 51.96875 10.425781 C 52.199219 10.191406 52.585938 10.191406 52.820312 10.425781 C 53.050781 10.65625 53.050781 11.042969 52.820312 11.273438 L 51.816406 12.277344 C 51.660156 12.355469 51.503906 12.433594 51.351562 12.433594 Z M 51.351562 12.433594 "/>
<path style=" stroke:none;fill-rule:nonzero;fill:rgb(13.72549%,12.156863%,12.54902%);fill-opacity:1;" d="M 55.445312 12.433594 C 55.289062 12.433594 55.136719 12.355469 55.058594 12.277344 L 54.054688 11.273438 C 53.824219 11.042969 53.824219 10.65625 54.054688 10.425781 C 54.285156 10.191406 54.671875 10.191406 54.902344 10.425781 L 55.90625 11.429688 C 56.140625 11.660156 56.140625 12.046875 55.90625 12.277344 C 55.753906 12.355469 55.597656 12.433594 55.445312 12.433594 Z M 55.445312 12.433594 "/>
<path style=" stroke:none;fill-rule:nonzero;fill:rgb(13.72549%,12.156863%,12.54902%);fill-opacity:1;" d="M 52.355469 9.34375 C 52.199219 9.34375 52.046875 9.265625 51.96875 9.1875 L 50.964844 8.183594 C 50.734375 7.953125 50.734375 7.566406 50.964844 7.335938 C 51.195312 7.105469 51.582031 7.105469 51.816406 7.335938 L 52.820312 8.339844 C 53.050781 8.570312 53.050781 8.957031 52.820312 9.1875 C 52.664062 9.265625 52.507812 9.34375 52.355469 9.34375 Z M 52.355469 9.34375 "/>
<path style=" stroke:none;fill-rule:nonzero;fill:rgb(13.72549%,12.156863%,12.54902%);fill-opacity:1;" d="M 31.816406 7.492188 C 30.191406 7.492188 28.878906 6.175781 28.878906 4.554688 C 28.878906 2.933594 30.191406 1.621094 31.816406 1.621094 C 33.4375 1.621094 34.75 2.933594 34.75 4.554688 C 34.75 6.175781 33.4375 7.492188 31.816406 7.492188 Z M 31.816406 2.78125 C 30.8125 2.78125 30.039062 3.550781 30.039062 4.554688 C 30.039062 5.558594 30.8125 6.332031 31.816406 6.332031 C 32.820312 6.332031 33.589844 5.558594 33.589844 4.554688 C 33.589844 3.550781 32.820312 2.78125 31.816406 2.78125 Z M 31.816406 2.78125 "/>
<path style=" stroke:none;fill-rule:nonzero;fill:rgb(100%,81.568627%,35.686275%);fill-opacity:1;" d="M 48.183594 18.070312 C 48.183594 18.964844 47.460938 19.691406 46.5625 19.691406 C 45.667969 19.691406 44.941406 18.964844 44.941406 18.070312 C 44.941406 17.175781 45.667969 16.449219 46.5625 16.449219 C 47.460938 16.449219 48.183594 17.175781 48.183594 18.070312 Z M 48.183594 18.070312 "/>
<path style=" stroke:none;fill-rule:nonzero;fill:rgb(51.764706%,85.882353%,100%);fill-opacity:1;" d="M 79.613281 12.355469 C 79.613281 13.71875 78.507812 14.828125 77.144531 14.828125 C 75.777344 14.828125 74.671875 13.71875 74.671875 12.355469 C 74.671875 10.992188 75.777344 9.882812 77.144531 9.882812 C 78.507812 9.882812 79.613281 10.992188 79.613281 12.355469 Z M 79.613281 12.355469 "/>
<path style=" stroke:none;fill-rule:nonzero;fill:rgb(100%,100%,100%);fill-opacity:1;" d="M 38.609375 24.167969 C 38.609375 31.207031 32.90625 36.910156 25.867188 36.910156 C 18.832031 36.910156 13.128906 31.207031 13.128906 24.167969 C 13.128906 17.132812 18.832031 11.429688 25.867188 11.429688 C 32.90625 11.429688 38.609375 17.132812 38.609375 24.167969 Z M 38.609375 24.167969 "/>
<path style=" stroke:none;fill-rule:nonzero;fill:rgb(100%,43.921569%,34.509804%);fill-opacity:1;" d="M 29.34375 24.167969 C 29.34375 26.089844 27.789062 27.644531 25.867188 27.644531 C 23.949219 27.644531 22.394531 26.089844 22.394531 24.167969 C 22.394531 22.25 23.949219 20.695312 25.867188 20.695312 C 27.789062 20.695312 29.34375 22.25 29.34375 24.167969 Z M 29.34375 24.167969 "/>
<path style=" stroke:none;fill-rule:nonzero;fill:rgb(13.72549%,12.156863%,12.54902%);fill-opacity:1;" d="M 25.867188 10.886719 C 22.394531 10.886719 19.304688 12.199219 16.910156 14.363281 L 13.824219 11.273438 L 14.363281 7.257812 C 14.363281 7.105469 14.363281 6.871094 14.207031 6.796875 L 9.265625 1.851562 C 9.113281 1.699219 8.878906 1.621094 8.648438 1.699219 C 8.417969 1.777344 8.261719 1.929688 8.261719 2.164062 L 7.722656 6.023438 L 3.859375 6.5625 C 3.628906 6.5625 3.476562 6.71875 3.398438 6.949219 C 3.320312 7.179688 3.398438 7.414062 3.550781 7.566406 L 8.496094 12.507812 C 8.570312 12.585938 8.726562 12.664062 8.878906 12.664062 C 8.878906 12.664062 8.957031 12.664062 8.957031 12.664062 L 12.972656 12.125 L 16.0625 15.210938 C 13.898438 17.605469 12.585938 20.695312 12.585938 24.167969 C 12.585938 31.503906 18.53125 37.453125 25.867188 37.453125 C 33.203125 37.453125 39.152344 31.503906 39.152344 24.167969 C 39.152344 16.832031 33.203125 10.886719 25.867188 10.886719 Z M 9.113281 11.429688 L 5.171875 7.566406 L 8.03125 7.179688 L 11.96875 11.121094 Z M 12.742188 10.269531 L 8.804688 6.332031 L 9.265625 3.476562 L 13.203125 7.414062 Z M 25.867188 36.292969 C 19.152344 36.292969 13.746094 30.886719 13.746094 24.167969 C 13.746094 21.003906 14.980469 18.148438 16.910156 15.984375 L 18.457031 17.527344 C 16.910156 19.304688 15.90625 21.621094 15.90625 24.09375 C 15.90625 29.574219 20.386719 33.976562 25.792969 33.976562 C 31.273438 33.976562 35.675781 29.5 35.675781 24.09375 C 35.675781 18.6875 31.195312 14.207031 25.792969 14.207031 C 23.242188 14.207031 20.925781 15.136719 19.226562 16.757812 L 17.683594 15.210938 C 19.84375 13.28125 22.703125 12.046875 25.867188 12.046875 C 32.585938 12.046875 37.992188 17.453125 37.992188 24.167969 C 37.992188 30.886719 32.507812 36.292969 25.867188 36.292969 Z M 20.773438 19.921875 C 19.769531 21.082031 19.226562 22.546875 19.226562 24.167969 C 19.226562 27.800781 22.238281 30.8125 25.867188 30.8125 C 29.5 30.8125 32.507812 27.800781 32.507812 24.167969 C 32.507812 20.539062 29.5 17.527344 25.867188 17.527344 C 24.246094 17.527344 22.78125 18.148438 21.621094 19.074219 L 20.078125 17.605469 C 21.621094 16.214844 23.628906 15.445312 25.867188 15.445312 C 30.734375 15.445312 34.671875 19.382812 34.671875 24.246094 C 34.671875 29.113281 30.734375 33.050781 25.867188 33.050781 C 21.003906 33.050781 17.144531 29.113281 17.144531 24.246094 C 17.144531 22.007812 17.992188 20 19.304688 18.457031 Z M 25.484375 24.554688 C 25.558594 24.632812 25.714844 24.710938 25.867188 24.710938 C 26.023438 24.710938 26.175781 24.632812 26.253906 24.554688 C 26.488281 24.324219 26.488281 23.9375 26.253906 23.707031 L 22.394531 19.84375 C 23.320312 19.074219 24.554688 18.609375 25.867188 18.609375 C 28.878906 18.609375 31.351562 21.082031 31.351562 24.09375 C 31.351562 27.105469 28.878906 29.574219 25.867188 29.574219 C 22.855469 29.574219 20.386719 27.105469 20.386719 24.09375 C 20.386719 22.78125 20.847656 21.621094 21.621094 20.617188 Z M 25.484375 24.554688 "/>
</g>
</svg>
