<?xml version="1.0" encoding="utf-8"?>
<!-- Generator: Adobe Illustrator 18.0.0, SVG Export Plug-In . SVG Version: 6.00 Build 0)  -->
<!DOCTYPE svg PUBLIC "-//W3C//DTD SVG 1.1//EN" "http://www.w3.org/Graphics/SVG/1.1/DTD/svg11.dtd">
<svg version="1.1" id="Layer_1" xmlns="http://www.w3.org/2000/svg" xmlns:xlink="http://www.w3.org/1999/xlink" x="0px" y="0px"
	 viewBox="0 0 129.5 129.5" enable-background="new 0 0 129.5 129.5" xml:space="preserve">
<g>
	<g>
		<g>
			<path fill="#231F20" d="M8.6,25.9c-0.2,0-0.4-0.1-0.5-0.2c-0.3-0.3-0.3-0.8,0-1.1l1.3-1.3c0.3-0.3,0.8-0.3,1.1,0
				c0.3,0.3,0.3,0.8,0,1.1l-1.3,1.3C9,25.8,8.8,25.9,8.6,25.9z"/>
		</g>
		<g>
			<path fill="#231F20" d="M4.5,29.9c-0.2,0-0.4-0.1-0.5-0.2c-0.3-0.3-0.3-0.8,0-1.1l1.3-1.3c0.3-0.3,0.8-0.3,1.1,0
				c0.3,0.3,0.3,0.8,0,1.1l-1.3,1.3C4.9,29.9,4.7,29.9,4.5,29.9z"/>
		</g>
		<g>
			<path fill="#231F20" d="M9.9,29.9c-0.2,0-0.4-0.1-0.5-0.2l-1.3-1.3c-0.3-0.3-0.3-0.8,0-1.1c0.3-0.3,0.8-0.3,1.1,0l1.3,1.3
				c0.3,0.3,0.3,0.8,0,1.1C10.3,29.9,10.1,29.9,9.9,29.9z"/>
		</g>
		<g>
			<path fill="#231F20" d="M5.8,25.9c-0.2,0-0.4-0.1-0.5-0.2L4,24.3c-0.3-0.3-0.3-0.8,0-1.1c0.3-0.3,0.8-0.3,1.1,0l1.3,1.3
				c0.3,0.3,0.3,0.8,0,1.1C6.2,25.8,6,25.9,5.8,25.9z"/>
		</g>
		<g>
			<path fill="#231F20" d="M71.1,57.3c-0.2,0-0.4-0.1-0.5-0.2c-0.3-0.3-0.3-0.8,0-1.1l1.3-1.3c0.3-0.3,0.8-0.3,1.1,0
				c0.3,0.3,0.3,0.8,0,1.1l-1.3,1.3C71.5,57.2,71.3,57.3,71.1,57.3z"/>
		</g>
		<g>
			<path fill="#231F20" d="M67,61.4c-0.2,0-0.4-0.1-0.5-0.2c-0.3-0.3-0.3-0.8,0-1.1l1.3-1.3c0.3-0.3,0.8-0.3,1.1,0
				c0.3,0.3,0.3,0.8,0,1.1l-1.3,1.3C67.4,61.3,67.2,61.4,67,61.4z"/>
		</g>
		<g>
			<path fill="#231F20" d="M72.4,61.4c-0.2,0-0.4-0.1-0.5-0.2l-1.3-1.3c-0.3-0.3-0.3-0.8,0-1.1c0.3-0.3,0.8-0.3,1.1,0l1.3,1.3
				c0.3,0.3,0.3,0.8,0,1.1C72.8,61.3,72.6,61.4,72.4,61.4z"/>
		</g>
		<g>
			<path fill="#231F20" d="M68.3,57.3c-0.2,0-0.4-0.1-0.5-0.2l-1.3-1.3c-0.3-0.3-0.3-0.8,0-1.1c0.3-0.3,0.8-0.3,1.1,0l1.3,1.3
				c0.3,0.3,0.3,0.8,0,1.1C68.7,57.2,68.5,57.3,68.3,57.3z"/>
		</g>
		<g>
			<path fill="#231F20" d="M119.4,11.6c-0.2,0-0.4-0.1-0.5-0.2c-0.3-0.3-0.3-0.8,0-1.1l1.3-1.3c0.3-0.3,0.8-0.3,1.1,0
				c0.3,0.3,0.3,0.8,0,1.1l-1.3,1.3C119.8,11.6,119.6,11.6,119.4,11.6z"/>
		</g>
		<g>
			<path fill="#231F20" d="M115.3,15.7c-0.2,0-0.4-0.1-0.5-0.2c-0.3-0.3-0.3-0.8,0-1.1l1.3-1.3c0.3-0.3,0.8-0.3,1.1,0
				c0.3,0.3,0.3,0.8,0,1.1l-1.3,1.3C115.7,15.6,115.5,15.7,115.3,15.7z"/>
		</g>
		<g>
			<path fill="#231F20" d="M120.7,15.7c-0.2,0-0.4-0.1-0.5-0.2l-1.3-1.3c-0.3-0.3-0.3-0.8,0-1.1c0.3-0.3,0.8-0.3,1.1,0l1.3,1.3
				c0.3,0.3,0.3,0.8,0,1.1C121.1,15.6,120.9,15.7,120.7,15.7z"/>
		</g>
		<g>
			<path fill="#231F20" d="M116.7,11.6c-0.2,0-0.4-0.1-0.5-0.2l-1.3-1.3c-0.3-0.3-0.3-0.8,0-1.1c0.3-0.3,0.8-0.3,1.1,0l1.3,1.3
				c0.3,0.3,0.3,0.8,0,1.1C117,11.6,116.8,11.6,116.7,11.6z"/>
		</g>
		<polygon fill="#FFD05B" points="108.9,74.9 108.9,124.3 20.4,124.3 20.4,101.4 27,94.9 35.8,103.6 53.9,85.5 61.7,93.2 76.5,78.4 
			82.4,84.4 100.4,66.4 		"/>
		<polygon fill="#E6E9EE" points="87.6,28.7 112.1,53.2 112.1,28.7 		"/>
		<polygon fill="#FFFFFF" points="87.8,4.4 87.8,28.7 112.1,28.7 		"/>
		<polygon fill="#84DBFF" points="90,26.5 90,9.7 106.8,26.5 		"/>
		<circle fill="#FFFFFF" cx="41.7" cy="28.4" r="16.1"/>
		<path fill="#FFFFFF" d="M47.1,21.7c0,3.9-2.4,8.5-5.4,8.5c-3,0-5.4-4.6-5.4-8.5c0-3.9,2.4-5.5,5.4-5.5
			C44.7,16.1,47.1,17.8,47.1,21.7z"/>
		<path fill="#231F20" d="M41.7,11.5c-9.3,0-16.8,7.6-16.8,16.8s7.6,16.8,16.8,16.8s16.8-7.6,16.8-16.8S51,11.5,41.7,11.5z M41.7,13
			C50.1,13,57,19.9,57,28.4c0,3.1-0.9,6-2.5,8.4v-0.2c0-1.4-0.9-2.6-2.1-3l-5.9-2.6L45.2,29c1.6-1.8,2.7-4.7,2.7-7.4
			c0-3.9-2.4-6.3-6.2-6.3c-3.8,0-6.2,2.4-6.2,6.3c0,2.6,1,5.5,2.7,7.4l-1.3,1.8l-5.8,2.6c-1.3,0.4-2.2,1.7-2.2,3v0.2
			c-1.6-2.4-2.5-5.3-2.5-8.4C26.4,19.9,33.2,13,41.7,13z M37,21.7c0-4.3,3.3-4.8,4.7-4.8c1.4,0,4.7,0.5,4.7,4.8
			c0,3.5-2.2,7.7-4.7,7.7S37,25.1,37,21.7z M41.7,43.7c-4.5,0-8.5-1.9-11.3-5v-2.2c0-0.7,0.5-1.4,1.2-1.6l6.1-2.7
			c0.1-0.1,0.2-0.1,0.3-0.3l1.3-1.8c0.7,0.5,1.6,0.8,2.4,0.8c0.9,0,1.7-0.3,2.4-0.8l1.3,1.8c0.1,0.1,0.2,0.2,0.3,0.3l6.2,2.8
			c0.7,0.2,1.2,0.9,1.2,1.6v2.2C50.2,41.7,46.2,43.7,41.7,43.7z"/>
		<circle fill="#FFFFFF" cx="106.8" cy="98.2" r="20.2"/>
		<path fill="#231F20" d="M112.9,78.1V28.7c0-0.2-0.1-0.4-0.2-0.5L88.3,3.8c-0.1-0.1-0.3-0.2-0.5-0.2H17.2c-0.4,0-0.8,0.3-0.8,0.8
			v123.2c0,0.4,0.3,0.8,0.8,0.8h94.9c0.4,0,0.8-0.3,0.8-0.8v-9.3c8.6-2.6,15-10.6,15-20.1C127.8,88.7,121.5,80.7,112.9,78.1z
			 M88.6,6.2l21.7,21.7H88.6V6.2z M111.3,126.8H18v-26.2c0.1,0,0.1-0.1,0.2-0.1l8.8-8.8l8.2,8.2c0.3,0.3,0.8,0.3,1.1,0l17.6-17.6
			l7.2,7.2c0.3,0.3,0.8,0.3,1.1,0l14.3-14.3l5.4,5.4c0.3,0.3,0.8,0.3,1.1,0L100,63.6l4.1,4.1c0.1,0.1,0.3,0.2,0.5,0.2
			c0.1,0,0.2,0,0.3-0.1c0.3-0.1,0.5-0.4,0.5-0.7v-9.2c0-0.4-0.3-0.8-0.8-0.8h-9.2c-0.3,0-0.6,0.2-0.7,0.5c-0.1,0.3-0.1,0.6,0.2,0.8
			l4,4L82.4,79L77,73.6c-0.3-0.3-0.8-0.3-1.1,0L61.7,87.9l-7.2-7.2c-0.3-0.3-0.8-0.3-1.1,0L35.7,98.3L27.5,90
			c-0.3-0.3-0.8-0.3-1.1,0L18,98.5V5.1H87v23.6c0,0.4,0.3,0.8,0.8,0.8h23.6v48.2c-1.5-0.3-3-0.5-4.5-0.5c-11.6,0-21,9.4-21,21
			s9.4,21,21,21c1.6,0,3.1-0.2,4.5-0.5V126.8z M97.3,58.7h6.6v6.6L97.3,58.7z M106.8,117.6c-10.7,0-19.5-8.7-19.5-19.5
			c0-10.7,8.7-19.5,19.5-19.5c10.7,0,19.5,8.7,19.5,19.5C126.3,108.9,117.6,117.6,106.8,117.6z"/>
		<circle fill="#E6E9EE" cx="106.8" cy="98.2" r="2"/>
		<line fill="#E6E9EE" x1="106.8" y1="80.8" x2="106.8" y2="83.3"/>
		<rect x="106.1" y="80.8" fill="#231F20" width="1.5" height="2.6"/>
		<line fill="#E6E9EE" x1="106.8" y1="113" x2="106.8" y2="115.6"/>
		<rect x="106.1" y="113" fill="#231F20" width="1.5" height="2.6"/>
		<line fill="#E6E9EE" x1="124.2" y1="98.2" x2="121.7" y2="98.2"/>
		<rect x="121.7" y="97.4" fill="#231F20" width="2.6" height="1.5"/>
		<line fill="#E6E9EE" x1="92" y1="98.2" x2="89.4" y2="98.2"/>
		<rect x="89.4" y="97.4" fill="#231F20" width="2.6" height="1.5"/>
		<line fill="#E6E9EE" x1="98.1" y1="83.1" x2="99.4" y2="85.3"/>
		
			<rect x="97.5" y="83.4" transform="matrix(0.4998 0.8661 -0.8661 0.4998 122.3318 -43.4292)" fill="#231F20" width="2.6" height="1.5"/>
		<line fill="#E6E9EE" x1="114.3" y1="111" x2="115.5" y2="113.3"/>
		
			<rect x="113.6" y="111.4" transform="matrix(0.5001 0.8659 -0.8659 0.5001 154.5409 -43.4393)" fill="#231F20" width="2.6" height="1.5"/>
		<line fill="#E6E9EE" x1="121.9" y1="89.5" x2="119.7" y2="90.8"/>
		
			<rect x="120" y="88.8" transform="matrix(0.5001 0.866 -0.866 0.5001 138.425 -59.5622)" fill="#231F20" width="1.5" height="2.6"/>
		<line fill="#E6E9EE" x1="94" y1="105.6" x2="91.8" y2="106.9"/>
		
			<rect x="92.1" y="105" transform="matrix(0.5001 0.866 -0.866 0.5001 138.4267 -27.3089)" fill="#231F20" width="1.5" height="2.6"/>
		<line fill="#E6E9EE" x1="91.8" y1="89.5" x2="94" y2="90.8"/>
		<rect x="91.6" y="89.4" transform="matrix(0.866 0.5 -0.5 0.866 57.498 -34.361)" fill="#231F20" width="2.6" height="1.5"/>
		<line fill="#E6E9EE" x1="119.7" y1="105.6" x2="121.9" y2="106.9"/>
		<rect x="119.5" y="105.5" transform="matrix(0.866 0.5 -0.5 0.866 69.3019 -46.1664)" fill="#231F20" width="2.6" height="1.5"/>
		<line fill="#E6E9EE" x1="115.5" y1="83.1" x2="114.3" y2="85.3"/>
		
			<rect x="114.1" y="82.9" transform="matrix(0.866 0.5001 -0.5001 0.866 57.5068 -46.1714)" fill="#231F20" width="1.5" height="2.6"/>
		<line fill="#E6E9EE" x1="99.4" y1="111" x2="98.1" y2="113.3"/>
		
			<rect x="98" y="110.9" transform="matrix(0.866 0.5001 -0.5001 0.866 69.3137 -34.3624)" fill="#231F20" width="1.5" height="2.6"/>
		<line fill="#E6E9EE" x1="108.8" y1="98.2" x2="118.3" y2="98.2"/>
		<line fill="#E6E9EE" x1="106.8" y1="96.2" x2="106.8" y2="86.7"/>
		<path fill="#231F20" d="M118.3,97.4h-8.9c-0.3-0.9-1-1.6-1.8-1.8v-8.8h-1.5v8.8c-1.1,0.3-2,1.4-2,2.6c0,1.5,1.2,2.7,2.7,2.7
			c1.2,0,2.3-0.8,2.6-2h8.9V97.4z M106.8,99.4c-0.7,0-1.2-0.5-1.2-1.2c0-0.7,0.5-1.2,1.2-1.2c0.7,0,1.2,0.5,1.2,1.2
			C108,98.8,107.5,99.4,106.8,99.4z"/>
		<circle fill="#FF7058" cx="105.4" cy="3.8" r="2.6"/>
		<circle fill="#84DBFF" cx="3.8" cy="86.7" r="3.8"/>
		<circle fill="#FF7058" cx="126.9" cy="66.1" r="2.6"/>
		<circle fill="#E6E9EE" cx="11.2" cy="38.9" r="2.6"/>
		<line fill="#FFFFFF" x1="27.8" y1="65.6" x2="36.6" y2="65.6"/>
		<path fill="#231F20" d="M36.6,66.3h-8.8c-0.4,0-0.8-0.3-0.8-0.8c0-0.4,0.3-0.8,0.8-0.8h8.8c0.4,0,0.8,0.3,0.8,0.8
			C37.4,66,37,66.3,36.6,66.3z"/>
		<line fill="#FFFFFF" x1="35.8" y1="68.8" x2="40.1" y2="68.8"/>
		<path fill="#231F20" d="M40.1,69.5h-4.3c-0.4,0-0.8-0.3-0.8-0.8c0-0.4,0.3-0.8,0.8-0.8h4.3c0.4,0,0.8,0.3,0.8,0.8
			C40.8,69.2,40.5,69.5,40.1,69.5z"/>
		<line fill="#FFFFFF" x1="40.6" y1="65.6" x2="44.7" y2="65.6"/>
		<path fill="#231F20" d="M44.7,66.3h-4.1c-0.4,0-0.8-0.3-0.8-0.8c0-0.4,0.3-0.8,0.8-0.8h4.1c0.4,0,0.8,0.3,0.8,0.8
			C45.4,66,45.1,66.3,44.7,66.3z"/>
		<line fill="#FFFFFF" x1="31.8" y1="68.8" x2="32.6" y2="68.8"/>
		<path fill="#231F20" d="M32.6,69.5h-0.8c-0.4,0-0.8-0.3-0.8-0.8c0-0.4,0.3-0.8,0.8-0.8h0.8c0.4,0,0.8,0.3,0.8,0.8
			C33.4,69.2,33,69.5,32.6,69.5z"/>
	</g>
</g>
</svg>
