<?xml version="1.0" encoding="UTF-8"?>
<svg xmlns="http://www.w3.org/2000/svg" xmlns:xlink="http://www.w3.org/1999/xlink" width="100px" height="100px" viewBox="0 0 100 100" version="1.1">
<g id="surface1">
<path style=" stroke:none;fill-rule:nonzero;fill:rgb(13.72549%,12.156863%,12.54902%);fill-opacity:1;" d="M 58.996094 4.167969 C 58.839844 4.167969 58.6875 4.09375 58.609375 4.015625 C 58.378906 3.785156 58.378906 3.398438 58.609375 3.167969 L 59.613281 2.164062 C 59.84375 1.929688 60.230469 1.929688 60.464844 2.164062 C 60.695312 2.394531 60.695312 2.78125 60.464844 3.011719 L 59.460938 4.015625 C 59.304688 4.09375 59.152344 4.167969 58.996094 4.167969 Z M 58.996094 4.167969 "/>
<path style=" stroke:none;fill-rule:nonzero;fill:rgb(13.72549%,12.156863%,12.54902%);fill-opacity:1;" d="M 55.90625 7.257812 C 55.753906 7.257812 55.597656 7.179688 55.519531 7.105469 C 55.289062 6.871094 55.289062 6.488281 55.519531 6.253906 L 56.523438 5.25 C 56.757812 5.019531 57.144531 5.019531 57.375 5.25 C 57.605469 5.484375 57.605469 5.867188 57.375 6.101562 L 56.371094 7.105469 C 56.214844 7.257812 56.0625 7.257812 55.90625 7.257812 Z M 55.90625 7.257812 "/>
<path style=" stroke:none;fill-rule:nonzero;fill:rgb(13.72549%,12.156863%,12.54902%);fill-opacity:1;" d="M 60 7.257812 C 59.84375 7.257812 59.691406 7.179688 59.613281 7.105469 L 58.609375 6.101562 C 58.378906 5.867188 58.378906 5.484375 58.609375 5.25 C 58.839844 5.019531 59.226562 5.019531 59.460938 5.25 L 60.464844 6.253906 C 60.695312 6.488281 60.695312 6.871094 60.464844 7.105469 C 60.308594 7.257812 60.15625 7.257812 60 7.257812 Z M 60 7.257812 "/>
<path style=" stroke:none;fill-rule:nonzero;fill:rgb(13.72549%,12.156863%,12.54902%);fill-opacity:1;" d="M 56.910156 4.167969 C 56.757812 4.167969 56.601562 4.09375 56.523438 4.015625 L 55.519531 3.011719 C 55.289062 2.78125 55.289062 2.394531 55.519531 2.164062 C 55.753906 1.929688 56.140625 1.929688 56.371094 2.164062 L 57.375 3.167969 C 57.605469 3.398438 57.605469 3.785156 57.375 4.015625 C 57.21875 4.09375 57.066406 4.167969 56.910156 4.167969 Z M 56.910156 4.167969 "/>
<path style=" stroke:none;fill-rule:nonzero;fill:rgb(13.72549%,12.156863%,12.54902%);fill-opacity:1;" d="M 96.601562 44.246094 C 96.449219 44.246094 96.292969 44.167969 96.214844 44.09375 C 95.984375 43.859375 95.984375 43.476562 96.214844 43.242188 L 97.21875 42.238281 C 97.453125 42.007812 97.835938 42.007812 98.070312 42.238281 C 98.300781 42.472656 98.300781 42.855469 98.070312 43.089844 L 97.066406 44.09375 C 96.910156 44.167969 96.757812 44.246094 96.601562 44.246094 Z M 96.601562 44.246094 "/>
<path style=" stroke:none;fill-rule:nonzero;fill:rgb(13.72549%,12.156863%,12.54902%);fill-opacity:1;" d="M 93.511719 47.335938 C 93.359375 47.335938 93.203125 47.257812 93.128906 47.179688 C 92.894531 46.949219 92.894531 46.5625 93.128906 46.332031 L 94.132812 45.328125 C 94.363281 45.097656 94.75 45.097656 94.980469 45.328125 C 95.210938 45.558594 95.210938 45.945312 94.980469 46.175781 L 93.976562 47.179688 C 93.824219 47.257812 93.667969 47.335938 93.511719 47.335938 Z M 93.511719 47.335938 "/>
<path style=" stroke:none;fill-rule:nonzero;fill:rgb(13.72549%,12.156863%,12.54902%);fill-opacity:1;" d="M 97.605469 47.335938 C 97.453125 47.335938 97.296875 47.257812 97.21875 47.179688 L 96.214844 46.175781 C 95.984375 45.945312 95.984375 45.558594 96.214844 45.328125 C 96.449219 45.097656 96.832031 45.097656 97.066406 45.328125 L 98.070312 46.332031 C 98.300781 46.5625 98.300781 46.949219 98.070312 47.179688 C 97.914062 47.257812 97.761719 47.335938 97.605469 47.335938 Z M 97.605469 47.335938 "/>
<path style=" stroke:none;fill-rule:nonzero;fill:rgb(13.72549%,12.156863%,12.54902%);fill-opacity:1;" d="M 94.515625 44.246094 C 94.363281 44.246094 94.207031 44.167969 94.132812 44.09375 L 93.128906 43.089844 C 92.894531 42.855469 92.894531 42.472656 93.128906 42.238281 C 93.359375 42.007812 93.746094 42.007812 93.976562 42.238281 L 94.980469 43.242188 C 95.210938 43.476562 95.210938 43.859375 94.980469 44.09375 C 94.75 44.167969 94.671875 44.246094 94.515625 44.246094 Z M 94.515625 44.246094 "/>
<path style=" stroke:none;fill-rule:nonzero;fill:rgb(13.72549%,12.156863%,12.54902%);fill-opacity:1;" d="M 8.339844 2.164062 C 8.183594 2.164062 8.03125 2.085938 7.953125 2.007812 C 7.722656 1.777344 7.722656 1.390625 7.953125 1.160156 L 8.957031 0.15625 C 9.1875 -0.078125 9.574219 -0.078125 9.808594 0.15625 C 10.039062 0.386719 10.039062 0.773438 9.808594 1.003906 L 8.804688 2.007812 C 8.648438 2.085938 8.496094 2.164062 8.339844 2.164062 Z M 8.339844 2.164062 "/>
<path style=" stroke:none;fill-rule:nonzero;fill:rgb(13.72549%,12.156863%,12.54902%);fill-opacity:1;" d="M 5.25 5.25 C 5.097656 5.25 4.941406 5.171875 4.863281 5.097656 C 4.632812 4.863281 4.632812 4.480469 4.863281 4.246094 L 5.867188 3.242188 C 6.101562 3.011719 6.488281 3.011719 6.71875 3.242188 C 6.949219 3.476562 6.949219 3.859375 6.71875 4.09375 L 5.714844 5.097656 C 5.558594 5.171875 5.40625 5.25 5.25 5.25 Z M 5.25 5.25 "/>
<path style=" stroke:none;fill-rule:nonzero;fill:rgb(13.72549%,12.156863%,12.54902%);fill-opacity:1;" d="M 9.34375 5.25 C 9.1875 5.25 9.035156 5.171875 8.957031 5.097656 L 7.953125 4.09375 C 7.722656 3.859375 7.722656 3.476562 7.953125 3.242188 C 8.183594 3.011719 8.570312 3.011719 8.804688 3.242188 L 9.808594 4.246094 C 10.039062 4.480469 10.039062 4.863281 9.808594 5.097656 C 9.652344 5.171875 9.5 5.25 9.34375 5.25 Z M 9.34375 5.25 "/>
<path style=" stroke:none;fill-rule:nonzero;fill:rgb(13.72549%,12.156863%,12.54902%);fill-opacity:1;" d="M 6.253906 2.164062 C 6.101562 2.164062 5.945312 2.085938 5.867188 2.007812 L 4.863281 1.003906 C 4.632812 0.773438 4.632812 0.386719 4.863281 0.15625 C 5.097656 -0.078125 5.484375 -0.078125 5.714844 0.15625 L 6.71875 1.160156 C 6.949219 1.390625 6.949219 1.777344 6.71875 2.007812 C 6.5625 2.085938 6.410156 2.164062 6.253906 2.164062 Z M 6.253906 2.164062 "/>
<path style=" stroke:none;fill-rule:nonzero;fill:rgb(100%,100%,100%);fill-opacity:1;" d="M 29.265625 11.738281 L 29.265625 16.988281 L 34.054688 16.988281 L 34.054688 11.738281 C 34.054688 10.5 33.050781 9.421875 31.738281 9.421875 L 31.582031 9.421875 C 30.347656 9.421875 29.265625 10.5 29.265625 11.738281 Z M 29.265625 11.738281 "/>
<path style=" stroke:none;fill-rule:nonzero;fill:rgb(100%,100%,100%);fill-opacity:1;" d="M 29.265625 16.988281 L 34.054688 16.988281 L 34.054688 34.828125 L 29.265625 34.828125 Z M 29.265625 16.988281 "/>
<path style=" stroke:none;fill-rule:nonzero;fill:rgb(100%,100%,100%);fill-opacity:1;" d="M 34.054688 34.828125 L 31.660156 40.617188 L 29.265625 34.828125 Z M 34.054688 34.828125 "/>
<path style=" stroke:none;fill-rule:nonzero;fill:rgb(13.72549%,12.156863%,12.54902%);fill-opacity:1;" d="M 31.738281 8.878906 L 31.582031 8.878906 C 29.960938 8.878906 28.726562 10.191406 28.726562 11.738281 L 28.726562 34.828125 C 28.726562 34.902344 28.726562 34.980469 28.804688 35.058594 L 31.195312 40.847656 C 31.273438 41.082031 31.503906 41.234375 31.738281 41.234375 C 31.96875 41.234375 32.199219 41.082031 32.277344 40.847656 L 34.671875 35.058594 C 34.671875 34.980469 34.75 34.902344 34.75 34.828125 L 34.75 11.738281 C 34.671875 10.191406 33.359375 8.878906 31.738281 8.878906 Z M 29.882812 11.738281 C 29.882812 10.8125 30.65625 10.039062 31.582031 10.039062 L 31.738281 10.039062 C 32.664062 10.039062 33.4375 10.8125 33.4375 11.738281 L 33.4375 16.449219 L 29.808594 16.449219 L 29.808594 11.738281 Z M 31.121094 17.605469 L 31.121094 34.285156 L 29.882812 34.285156 L 29.882812 17.605469 Z M 31.660156 39.074219 L 30.117188 35.367188 L 33.203125 35.367188 Z M 33.511719 34.285156 L 32.277344 34.285156 L 32.277344 17.605469 L 33.511719 17.605469 Z M 33.511719 34.285156 "/>
<path style=" stroke:none;fill-rule:nonzero;fill:rgb(51.764706%,85.882353%,100%);fill-opacity:1;" d="M 81.542969 33.203125 L 81.542969 45.558594 L 41.621094 45.558594 L 41.621094 20.847656 L 68.261719 20.847656 C 69.652344 27.335938 74.980469 32.277344 81.542969 33.203125 Z M 81.542969 33.203125 "/>
<path style=" stroke:none;fill-rule:nonzero;fill:rgb(90.196078%,91.372549%,93.333333%);fill-opacity:1;" d="M 37.835938 55.519531 L 42.238281 55.519531 L 42.238281 58.378906 L 37.835938 58.378906 Z M 37.835938 55.519531 "/>
<path style=" stroke:none;fill-rule:nonzero;fill:rgb(90.196078%,91.372549%,93.333333%);fill-opacity:1;" d="M 43.167969 55.519531 L 47.566406 55.519531 L 47.566406 58.378906 L 43.167969 58.378906 Z M 43.167969 55.519531 "/>
<path style=" stroke:none;fill-rule:nonzero;fill:rgb(90.196078%,91.372549%,93.333333%);fill-opacity:1;" d="M 48.570312 55.519531 L 52.972656 55.519531 L 52.972656 58.378906 L 48.570312 58.378906 Z M 48.570312 55.519531 "/>
<path style=" stroke:none;fill-rule:nonzero;fill:rgb(90.196078%,91.372549%,93.333333%);fill-opacity:1;" d="M 53.898438 55.519531 L 58.300781 55.519531 L 58.300781 58.378906 L 53.898438 58.378906 Z M 53.898438 55.519531 "/>
<path style=" stroke:none;fill-rule:nonzero;fill:rgb(90.196078%,91.372549%,93.333333%);fill-opacity:1;" d="M 64.632812 55.519531 L 69.035156 55.519531 L 69.035156 58.378906 L 64.632812 58.378906 Z M 64.632812 55.519531 "/>
<path style=" stroke:none;fill-rule:nonzero;fill:rgb(90.196078%,91.372549%,93.333333%);fill-opacity:1;" d="M 70.117188 55.519531 L 74.515625 55.519531 L 74.515625 58.378906 L 70.117188 58.378906 Z M 70.117188 55.519531 "/>
<path style=" stroke:none;fill-rule:nonzero;fill:rgb(90.196078%,91.372549%,93.333333%);fill-opacity:1;" d="M 75.519531 55.519531 L 79.921875 55.519531 L 79.921875 58.378906 L 75.519531 58.378906 Z M 75.519531 55.519531 "/>
<path style=" stroke:none;fill-rule:nonzero;fill:rgb(90.196078%,91.372549%,93.333333%);fill-opacity:1;" d="M 81.003906 55.519531 L 85.40625 55.519531 L 85.40625 58.378906 L 81.003906 58.378906 Z M 81.003906 55.519531 "/>
<path style=" stroke:none;fill-rule:nonzero;fill:rgb(90.196078%,91.372549%,93.333333%);fill-opacity:1;" d="M 59.304688 55.519531 L 63.707031 55.519531 L 63.707031 58.378906 L 59.304688 58.378906 Z M 59.304688 55.519531 "/>
<path style=" stroke:none;fill-rule:nonzero;fill:rgb(90.196078%,91.372549%,93.333333%);fill-opacity:1;" d="M 40.539062 51.660156 L 44.941406 51.660156 L 44.941406 54.515625 L 40.539062 54.515625 Z M 40.539062 51.660156 "/>
<path style=" stroke:none;fill-rule:nonzero;fill:rgb(90.196078%,91.372549%,93.333333%);fill-opacity:1;" d="M 45.867188 51.660156 L 50.269531 51.660156 L 50.269531 54.515625 L 45.867188 54.515625 Z M 45.867188 51.660156 "/>
<path style=" stroke:none;fill-rule:nonzero;fill:rgb(90.196078%,91.372549%,93.333333%);fill-opacity:1;" d="M 51.273438 51.660156 L 55.675781 51.660156 L 55.675781 54.515625 L 51.273438 54.515625 Z M 51.273438 51.660156 "/>
<path style=" stroke:none;fill-rule:nonzero;fill:rgb(90.196078%,91.372549%,93.333333%);fill-opacity:1;" d="M 62.007812 51.660156 L 66.410156 51.660156 L 66.410156 54.515625 L 62.007812 54.515625 Z M 62.007812 51.660156 "/>
<path style=" stroke:none;fill-rule:nonzero;fill:rgb(90.196078%,91.372549%,93.333333%);fill-opacity:1;" d="M 67.414062 51.660156 L 71.816406 51.660156 L 71.816406 54.515625 L 67.414062 54.515625 Z M 67.414062 51.660156 "/>
<path style=" stroke:none;fill-rule:nonzero;fill:rgb(90.196078%,91.372549%,93.333333%);fill-opacity:1;" d="M 72.820312 51.660156 L 77.21875 51.660156 L 77.21875 54.515625 L 72.820312 54.515625 Z M 72.820312 51.660156 "/>
<path style=" stroke:none;fill-rule:nonzero;fill:rgb(90.196078%,91.372549%,93.333333%);fill-opacity:1;" d="M 78.300781 51.660156 L 82.703125 51.660156 L 82.703125 54.515625 L 78.300781 54.515625 Z M 78.300781 51.660156 "/>
<path style=" stroke:none;fill-rule:nonzero;fill:rgb(90.196078%,91.372549%,93.333333%);fill-opacity:1;" d="M 56.601562 51.660156 L 61.003906 51.660156 L 61.003906 54.515625 L 56.601562 54.515625 Z M 56.601562 51.660156 "/>
<path style=" stroke:none;fill-rule:nonzero;fill:rgb(90.196078%,91.372549%,93.333333%);fill-opacity:1;" d="M 40.539062 59.226562 L 44.941406 59.226562 L 44.941406 62.085938 L 40.539062 62.085938 Z M 40.539062 59.226562 "/>
<path style=" stroke:none;fill-rule:nonzero;fill:rgb(90.196078%,91.372549%,93.333333%);fill-opacity:1;" d="M 45.867188 59.226562 L 50.269531 59.226562 L 50.269531 62.085938 L 45.867188 62.085938 Z M 45.867188 59.226562 "/>
<path style=" stroke:none;fill-rule:nonzero;fill:rgb(90.196078%,91.372549%,93.333333%);fill-opacity:1;" d="M 51.273438 59.226562 L 55.675781 59.226562 L 55.675781 62.085938 L 51.273438 62.085938 Z M 51.273438 59.226562 "/>
<path style=" stroke:none;fill-rule:nonzero;fill:rgb(90.196078%,91.372549%,93.333333%);fill-opacity:1;" d="M 62.007812 59.226562 L 66.410156 59.226562 L 66.410156 62.085938 L 62.007812 62.085938 Z M 62.007812 59.226562 "/>
<path style=" stroke:none;fill-rule:nonzero;fill:rgb(90.196078%,91.372549%,93.333333%);fill-opacity:1;" d="M 67.414062 59.226562 L 71.816406 59.226562 L 71.816406 62.085938 L 67.414062 62.085938 Z M 67.414062 59.226562 "/>
<path style=" stroke:none;fill-rule:nonzero;fill:rgb(90.196078%,91.372549%,93.333333%);fill-opacity:1;" d="M 72.820312 59.226562 L 77.21875 59.226562 L 77.21875 62.085938 L 72.820312 62.085938 Z M 72.820312 59.226562 "/>
<path style=" stroke:none;fill-rule:nonzero;fill:rgb(90.196078%,91.372549%,93.333333%);fill-opacity:1;" d="M 78.300781 59.226562 L 82.703125 59.226562 L 82.703125 62.085938 L 78.300781 62.085938 Z M 78.300781 59.226562 "/>
<path style=" stroke:none;fill-rule:nonzero;fill:rgb(90.196078%,91.372549%,93.333333%);fill-opacity:1;" d="M 56.601562 59.226562 L 61.003906 59.226562 L 61.003906 62.085938 L 56.601562 62.085938 Z M 56.601562 59.226562 "/>
<path style=" stroke:none;fill-rule:nonzero;fill:rgb(90.196078%,91.372549%,93.333333%);fill-opacity:1;" d="M 53.4375 63.320312 L 68.339844 63.320312 L 68.339844 69.574219 L 53.4375 69.574219 Z M 53.4375 63.320312 "/>
<path style=" stroke:none;fill-rule:nonzero;fill:rgb(100%,100%,100%);fill-opacity:1;" d="M 34.902344 96.601562 L 34.902344 99.460938 L 1.851562 99.460938 L 1.851562 56.523438 L 4.710938 56.523438 L 4.710938 96.601562 Z M 34.902344 96.601562 "/>
<path style=" stroke:none;fill-rule:nonzero;fill:rgb(100%,100%,100%);fill-opacity:1;" d="M 29.265625 53.667969 L 4.710938 53.667969 L 4.710938 96.601562 L 37.761719 96.601562 L 37.761719 62.164062 L 29.265625 62.164062 Z M 29.265625 53.667969 "/>
<path style=" stroke:none;fill-rule:nonzero;fill:rgb(100%,100%,100%);fill-opacity:1;" d="M 29.265625 53.667969 L 29.265625 62.164062 L 37.761719 62.164062 Z M 29.265625 53.667969 "/>
<path style=" stroke:none;fill-rule:nonzero;fill:rgb(100%,100%,100%);fill-opacity:1;" d="M 64.167969 88.496094 L 64.167969 85.867188 L 62.164062 85.714844 C 61.929688 84.402344 61.390625 83.167969 60.617188 82.085938 L 61.929688 80.539062 L 60.078125 78.6875 L 58.53125 80 C 57.453125 79.226562 56.214844 78.6875 54.902344 78.457031 L 54.75 76.449219 L 52.125 76.449219 L 51.96875 78.457031 C 50.65625 78.6875 49.421875 79.226562 48.339844 80 L 46.796875 78.6875 L 44.941406 80.539062 L 46.253906 82.085938 C 45.484375 83.167969 44.941406 84.402344 44.710938 85.714844 L 42.703125 85.867188 L 42.703125 88.496094 L 44.710938 88.648438 C 44.941406 89.960938 45.484375 91.195312 46.253906 92.277344 L 44.941406 93.824219 L 46.796875 95.675781 L 48.339844 94.363281 C 49.421875 95.136719 50.65625 95.675781 51.96875 95.90625 L 52.125 97.914062 L 54.75 97.914062 L 54.902344 95.90625 C 56.214844 95.675781 57.453125 95.136719 58.53125 94.363281 L 60.078125 95.675781 L 61.929688 93.824219 L 60.617188 92.277344 C 61.390625 91.195312 61.929688 89.960938 62.164062 88.648438 Z M 64.167969 88.496094 "/>
<path style=" stroke:none;fill-rule:nonzero;fill:rgb(13.72549%,12.156863%,12.54902%);fill-opacity:1;" d="M 54.75 98.53125 L 52.125 98.53125 C 51.816406 98.53125 51.582031 98.300781 51.582031 97.992188 L 51.429688 96.449219 C 50.347656 96.214844 49.265625 95.753906 48.339844 95.210938 L 47.105469 96.214844 C 46.871094 96.371094 46.5625 96.371094 46.332031 96.214844 L 44.480469 94.363281 C 44.246094 94.132812 44.246094 93.824219 44.480469 93.589844 L 45.484375 92.355469 C 44.863281 91.429688 44.480469 90.347656 44.246094 89.265625 L 42.703125 89.113281 C 42.394531 89.113281 42.164062 88.804688 42.164062 88.570312 L 42.164062 85.945312 C 42.164062 85.636719 42.394531 85.40625 42.703125 85.40625 L 44.246094 85.25 C 44.480469 84.167969 44.941406 83.089844 45.484375 82.164062 L 44.480469 80.925781 C 44.324219 80.695312 44.324219 80.386719 44.480469 80.15625 L 46.332031 78.300781 C 46.5625 78.070312 46.871094 78.070312 47.105469 78.300781 L 48.339844 79.304688 C 49.265625 78.6875 50.347656 78.300781 51.429688 78.070312 L 51.582031 76.523438 C 51.582031 76.214844 51.890625 75.984375 52.125 75.984375 L 54.75 75.984375 C 55.058594 75.984375 55.289062 76.214844 55.289062 76.523438 L 55.445312 78.070312 C 56.523438 78.300781 57.605469 78.765625 58.53125 79.304688 L 59.769531 78.300781 C 60 78.148438 60.308594 78.148438 60.539062 78.300781 L 62.394531 80.15625 C 62.625 80.386719 62.625 80.695312 62.394531 80.925781 L 61.390625 82.164062 C 62.007812 83.089844 62.394531 84.167969 62.625 85.25 L 64.167969 85.40625 C 64.480469 85.40625 64.710938 85.714844 64.710938 85.945312 L 64.710938 88.570312 C 64.710938 88.878906 64.480469 89.113281 64.167969 89.113281 L 62.625 89.265625 C 62.394531 90.347656 61.929688 91.429688 61.390625 92.355469 L 62.394531 93.589844 C 62.546875 93.824219 62.546875 94.132812 62.394531 94.363281 L 60.539062 96.214844 C 60.308594 96.449219 60 96.449219 59.769531 96.214844 L 58.53125 95.210938 C 57.605469 95.832031 56.523438 96.214844 55.445312 96.449219 L 55.289062 97.992188 C 55.289062 98.300781 55.058594 98.53125 54.75 98.53125 Z M 52.664062 97.375 L 54.207031 97.375 L 54.363281 95.90625 C 54.363281 95.675781 54.59375 95.445312 54.828125 95.367188 C 56.0625 95.136719 57.21875 94.671875 58.222656 93.976562 C 58.457031 93.824219 58.765625 93.824219 58.917969 93.976562 L 60.078125 94.902344 L 61.160156 93.824219 L 60.230469 92.664062 C 60.078125 92.433594 60.078125 92.199219 60.230469 91.96875 C 60.925781 90.964844 61.46875 89.808594 61.621094 88.570312 C 61.699219 88.339844 61.851562 88.109375 62.164062 88.109375 L 63.628906 87.953125 L 63.628906 86.410156 L 62.164062 86.253906 C 61.929688 86.253906 61.699219 86.023438 61.621094 85.792969 C 61.390625 84.554688 60.925781 83.398438 60.230469 82.394531 C 60.078125 82.164062 60.078125 81.851562 60.230469 81.699219 L 61.160156 80.539062 L 60.078125 79.460938 L 58.917969 80.386719 C 58.6875 80.539062 58.457031 80.539062 58.222656 80.386719 C 57.21875 79.691406 56.0625 79.152344 54.828125 78.996094 C 54.59375 78.917969 54.363281 78.765625 54.363281 78.457031 L 54.207031 76.988281 L 52.664062 76.988281 L 52.507812 78.457031 C 52.507812 78.6875 52.277344 78.917969 52.046875 78.996094 C 50.8125 79.226562 49.652344 79.691406 48.648438 80.386719 C 48.417969 80.539062 48.109375 80.539062 47.953125 80.386719 L 46.796875 79.460938 L 45.714844 80.539062 L 46.640625 81.699219 C 46.796875 81.929688 46.796875 82.164062 46.640625 82.394531 C 45.945312 83.398438 45.40625 84.554688 45.25 85.792969 C 45.171875 86.023438 45.019531 86.253906 44.710938 86.253906 L 43.242188 86.410156 L 43.242188 87.953125 L 44.710938 88.109375 C 44.941406 88.109375 45.171875 88.339844 45.25 88.570312 C 45.484375 89.808594 45.945312 90.964844 46.640625 91.96875 C 46.796875 92.199219 46.796875 92.507812 46.640625 92.664062 L 45.714844 93.824219 L 46.796875 94.902344 L 47.953125 93.976562 C 48.183594 93.824219 48.417969 93.824219 48.648438 93.976562 C 49.652344 94.671875 50.8125 95.210938 52.046875 95.367188 C 52.277344 95.445312 52.507812 95.597656 52.507812 95.90625 Z M 52.664062 97.375 "/>
<path style=" stroke:none;fill-rule:nonzero;fill:rgb(13.72549%,12.156863%,12.54902%);fill-opacity:1;" d="M 54.054688 94.515625 L 53.976562 93.359375 C 54.207031 93.359375 54.441406 93.28125 54.671875 93.28125 L 54.902344 94.441406 C 54.59375 94.441406 54.285156 94.441406 54.054688 94.515625 Z M 52.355469 94.441406 C 52.046875 94.363281 51.816406 94.363281 51.503906 94.285156 L 51.816406 93.203125 C 52.046875 93.28125 52.277344 93.28125 52.507812 93.359375 Z M 56.449219 93.898438 L 55.984375 92.820312 C 56.214844 92.742188 56.371094 92.585938 56.601562 92.507812 L 57.21875 93.511719 C 56.910156 93.589844 56.679688 93.746094 56.449219 93.898438 Z M 49.960938 93.667969 C 49.730469 93.511719 49.5 93.359375 49.265625 93.203125 L 49.960938 92.277344 C 50.191406 92.433594 50.347656 92.507812 50.578125 92.664062 Z M 58.53125 92.433594 L 57.761719 91.582031 C 57.914062 91.429688 58.070312 91.273438 58.222656 91.042969 L 59.152344 91.816406 C 58.917969 92.046875 58.6875 92.277344 58.53125 92.433594 Z M 48.03125 92.125 C 47.875 91.890625 47.644531 91.660156 47.492188 91.503906 L 48.417969 90.8125 C 48.570312 90.964844 48.726562 91.195312 48.878906 91.351562 Z M 60 90.425781 L 58.996094 89.882812 C 59.074219 89.652344 59.226562 89.421875 59.304688 89.265625 L 60.386719 89.652344 C 60.230469 89.960938 60.078125 90.191406 60 90.425781 Z M 46.640625 89.960938 C 46.5625 89.730469 46.410156 89.421875 46.332031 89.1875 L 47.414062 88.878906 C 47.492188 89.113281 47.566406 89.34375 47.644531 89.574219 Z M 60.695312 88.03125 L 59.535156 87.875 C 59.535156 87.644531 59.613281 87.414062 59.613281 87.179688 C 59.613281 86.949219 59.613281 86.796875 59.613281 86.5625 L 60.773438 86.488281 C 60.773438 86.71875 60.773438 86.949219 60.773438 87.179688 C 60.773438 87.492188 60.695312 87.800781 60.695312 88.03125 Z M 46.101562 87.566406 C 46.101562 87.414062 46.101562 87.335938 46.101562 87.179688 C 46.101562 87.027344 46.101562 86.871094 46.101562 86.71875 L 47.257812 86.796875 C 47.257812 86.949219 47.257812 87.105469 47.257812 87.179688 C 47.257812 87.257812 47.257812 87.414062 47.257812 87.492188 Z M 47.566406 85.40625 L 46.488281 85.097656 C 46.5625 84.863281 46.640625 84.554688 46.796875 84.324219 L 47.875 84.789062 C 47.722656 84.941406 47.566406 85.171875 47.566406 85.40625 Z M 59.226562 85.25 C 59.152344 85.019531 59.074219 84.789062 58.996094 84.632812 L 60.078125 84.167969 C 60.230469 84.402344 60.308594 84.710938 60.386719 84.941406 Z M 48.496094 83.550781 L 47.566406 82.855469 C 47.722656 82.625 47.953125 82.394531 48.109375 82.238281 L 48.957031 83.011719 C 48.804688 83.167969 48.648438 83.320312 48.496094 83.550781 Z M 58.222656 83.398438 C 58.070312 83.242188 57.914062 83.011719 57.761719 82.855469 L 58.609375 82.007812 C 58.839844 82.238281 58.996094 82.394531 59.152344 82.625 Z M 50.039062 82.085938 L 49.421875 81.160156 C 49.652344 81.003906 49.882812 80.847656 50.117188 80.773438 L 50.65625 81.777344 C 50.425781 81.851562 50.191406 81.929688 50.039062 82.085938 Z M 56.679688 82.007812 C 56.449219 81.851562 56.292969 81.777344 56.0625 81.699219 L 56.523438 80.617188 C 56.757812 80.773438 56.988281 80.847656 57.296875 81.003906 Z M 51.96875 81.234375 L 51.660156 80.078125 C 51.890625 80 52.199219 79.921875 52.507812 79.921875 L 52.664062 81.082031 C 52.433594 81.160156 52.199219 81.160156 51.96875 81.234375 Z M 54.75 81.160156 C 54.515625 81.082031 54.285156 81.082031 54.054688 81.082031 L 54.132812 79.921875 C 54.441406 79.921875 54.671875 80 54.980469 80.078125 Z M 54.75 81.160156 "/>
<path style=" stroke:none;fill-rule:nonzero;fill:rgb(100%,43.921569%,34.509804%);fill-opacity:1;" d="M 58.765625 87.179688 C 58.765625 90.125 56.378906 92.507812 53.4375 92.507812 C 50.492188 92.507812 48.109375 90.125 48.109375 87.179688 C 48.109375 84.238281 50.492188 81.851562 53.4375 81.851562 C 56.378906 81.851562 58.765625 84.238281 58.765625 87.179688 Z M 58.765625 87.179688 "/>
<path style=" stroke:none;fill-rule:nonzero;fill:rgb(100%,100%,100%);fill-opacity:1;" d="M 56.140625 87.179688 C 56.140625 88.675781 54.929688 89.882812 53.4375 89.882812 C 51.945312 89.882812 50.734375 88.675781 50.734375 87.179688 C 50.734375 85.6875 51.945312 84.480469 53.4375 84.480469 C 54.929688 84.480469 56.140625 85.6875 56.140625 87.179688 Z M 56.140625 87.179688 "/>
<path style=" stroke:none;fill-rule:nonzero;fill:rgb(13.72549%,12.156863%,12.54902%);fill-opacity:1;" d="M 53.4375 90.425781 C 51.660156 90.425781 50.191406 88.957031 50.191406 87.179688 C 50.191406 85.40625 51.660156 83.9375 53.4375 83.9375 C 55.210938 83.9375 56.679688 85.40625 56.679688 87.179688 C 56.679688 88.957031 55.210938 90.425781 53.4375 90.425781 Z M 53.4375 85.097656 C 52.277344 85.097656 51.351562 86.023438 51.351562 87.179688 C 51.351562 88.339844 52.277344 89.265625 53.4375 89.265625 C 54.59375 89.265625 55.519531 88.339844 55.519531 87.179688 C 55.519531 86.023438 54.59375 85.097656 53.4375 85.097656 Z M 53.4375 85.097656 "/>
<path style=" stroke:none;fill-rule:nonzero;fill:rgb(100%,100%,100%);fill-opacity:1;" d="M 2.625 13.511719 L 25.867188 13.511719 L 25.867188 41.929688 L 2.625 41.929688 Z M 2.625 13.511719 "/>
<path style=" stroke:none;fill-rule:nonzero;fill:rgb(100%,100%,100%);fill-opacity:1;" d="M 2.625 42.007812 L 25.867188 42.007812 L 25.867188 45.867188 L 2.625 45.867188 Z M 2.625 42.007812 "/>
<path style=" stroke:none;fill-rule:nonzero;fill:rgb(13.72549%,12.156863%,12.54902%);fill-opacity:1;" d="M 25.867188 12.972656 L 22.625 12.972656 L 22.625 11.660156 L 21.46875 11.660156 L 21.46875 12.972656 L 17.453125 12.972656 L 17.453125 11.660156 L 16.214844 11.660156 L 16.214844 12.972656 L 12.199219 12.972656 L 12.199219 11.660156 L 11.042969 11.660156 L 11.042969 12.972656 L 7.027344 12.972656 L 7.027344 11.660156 L 5.867188 11.660156 L 5.867188 12.972656 L 2.625 12.972656 C 2.316406 12.972656 2.007812 13.203125 2.007812 13.589844 L 2.007812 45.945312 C 2.007812 46.253906 2.238281 46.5625 2.625 46.5625 L 25.867188 46.5625 C 26.175781 46.5625 26.488281 46.332031 26.488281 45.945312 L 26.488281 13.511719 C 26.410156 13.203125 26.175781 12.972656 25.867188 12.972656 Z M 3.167969 14.132812 L 5.867188 14.132812 L 5.867188 15.597656 L 7.027344 15.597656 L 7.027344 14.132812 L 11.042969 14.132812 L 11.042969 15.597656 L 12.199219 15.597656 L 12.199219 14.132812 L 16.214844 14.132812 L 16.214844 15.597656 L 17.375 15.597656 L 17.375 14.132812 L 21.390625 14.132812 L 21.390625 15.597656 L 22.546875 15.597656 L 22.546875 14.132812 L 25.25 14.132812 L 25.25 41.390625 L 3.167969 41.390625 Z M 25.25 45.328125 L 3.167969 45.328125 L 3.167969 42.625 L 25.25 42.625 Z M 25.25 45.328125 "/>
<path style=" stroke:none;fill-rule:nonzero;fill:rgb(13.72549%,12.156863%,12.54902%);fill-opacity:1;" d="M 6.332031 24.554688 L 8.339844 24.554688 L 8.339844 25.714844 L 6.332031 25.714844 Z M 6.332031 24.554688 "/>
<path style=" stroke:none;fill-rule:nonzero;fill:rgb(13.72549%,12.156863%,12.54902%);fill-opacity:1;" d="M 9.808594 24.554688 L 22.164062 24.554688 L 22.164062 25.714844 L 9.808594 25.714844 Z M 9.808594 24.554688 "/>
<path style=" stroke:none;fill-rule:nonzero;fill:rgb(13.72549%,12.156863%,12.54902%);fill-opacity:1;" d="M 6.332031 27.800781 L 8.339844 27.800781 L 8.339844 28.957031 L 6.332031 28.957031 Z M 6.332031 27.800781 "/>
<path style=" stroke:none;fill-rule:nonzero;fill:rgb(13.72549%,12.156863%,12.54902%);fill-opacity:1;" d="M 9.808594 27.800781 L 22.164062 27.800781 L 22.164062 28.957031 L 9.808594 28.957031 Z M 9.808594 27.800781 "/>
<path style=" stroke:none;fill-rule:nonzero;fill:rgb(13.72549%,12.156863%,12.54902%);fill-opacity:1;" d="M 6.332031 30.964844 L 8.339844 30.964844 L 8.339844 32.125 L 6.332031 32.125 Z M 6.332031 30.964844 "/>
<path style=" stroke:none;fill-rule:nonzero;fill:rgb(13.72549%,12.156863%,12.54902%);fill-opacity:1;" d="M 9.808594 30.964844 L 22.164062 30.964844 L 22.164062 32.125 L 9.808594 32.125 Z M 9.808594 30.964844 "/>
<path style=" stroke:none;fill-rule:nonzero;fill:rgb(13.72549%,12.156863%,12.54902%);fill-opacity:1;" d="M 6.332031 34.207031 L 8.339844 34.207031 L 8.339844 35.367188 L 6.332031 35.367188 Z M 6.332031 34.207031 "/>
<path style=" stroke:none;fill-rule:nonzero;fill:rgb(13.72549%,12.156863%,12.54902%);fill-opacity:1;" d="M 9.808594 34.207031 L 22.164062 34.207031 L 22.164062 35.367188 L 9.808594 35.367188 Z M 9.808594 34.207031 "/>
<path style=" stroke:none;fill-rule:nonzero;fill:rgb(100%,100%,100%);fill-opacity:1;" d="M 92.742188 87.179688 C 92.742188 93.917969 87.277344 99.382812 80.539062 99.382812 C 73.800781 99.382812 68.339844 93.917969 68.339844 87.179688 C 68.339844 80.441406 73.800781 74.980469 80.539062 74.980469 C 87.277344 74.980469 92.742188 80.441406 92.742188 87.179688 Z M 92.742188 87.179688 "/>
<path style=" stroke:none;fill-rule:nonzero;fill:rgb(100%,100%,100%);fill-opacity:1;" d="M 90.347656 87.179688 C 90.347656 92.597656 85.957031 96.988281 80.539062 96.988281 C 75.125 96.988281 70.734375 92.597656 70.734375 87.179688 C 70.734375 81.765625 75.125 77.375 80.539062 77.375 C 85.957031 77.375 90.347656 81.765625 90.347656 87.179688 Z M 90.347656 87.179688 "/>
<path style=" stroke:none;fill-rule:nonzero;fill:rgb(100%,81.568627%,35.686275%);fill-opacity:1;" d="M 80.539062 95.445312 C 75.984375 95.445312 72.277344 91.738281 72.277344 87.179688 C 72.277344 82.625 75.984375 78.917969 80.539062 78.917969 C 85.097656 78.917969 88.804688 82.625 88.804688 87.179688 C 88.804688 91.738281 85.097656 95.445312 80.539062 95.445312 Z M 80.539062 95.445312 "/>
<path style=" stroke:none;fill-rule:nonzero;fill:rgb(100%,100%,100%);fill-opacity:1;" d="M 77.296875 93.667969 C 77.21875 93.667969 77.144531 93.667969 76.988281 93.589844 C 74.671875 92.355469 73.28125 89.960938 73.203125 87.335938 C 73.203125 87.027344 73.4375 86.71875 73.746094 86.71875 C 74.054688 86.71875 74.285156 86.949219 74.363281 87.257812 C 74.363281 89.421875 75.597656 91.503906 77.527344 92.507812 C 77.835938 92.664062 77.914062 93.050781 77.761719 93.28125 C 77.683594 93.511719 77.527344 93.667969 77.296875 93.667969 Z M 77.296875 93.667969 "/>
<path style=" stroke:none;fill-rule:nonzero;fill:rgb(100%,100%,100%);fill-opacity:1;" d="M 95.597656 87.179688 C 95.597656 87.953125 94.980469 88.496094 94.285156 88.496094 L 90.269531 88.496094 C 90.347656 88.03125 90.347656 87.644531 90.347656 87.179688 C 90.347656 86.71875 90.347656 86.253906 90.269531 85.867188 L 94.285156 85.867188 C 94.980469 85.867188 95.597656 86.488281 95.597656 87.179688 Z M 95.597656 87.179688 "/>
<path style=" stroke:none;fill-rule:nonzero;fill:rgb(13.72549%,12.156863%,12.54902%);fill-opacity:1;" d="M 94.207031 85.25 L 93.128906 85.25 C 92.199219 79.074219 86.871094 74.363281 80.464844 74.363281 C 73.4375 74.363281 67.644531 80.078125 67.644531 87.179688 C 67.644531 94.207031 73.359375 100 80.464844 100 C 86.871094 100 92.199219 95.289062 93.128906 89.113281 L 94.207031 89.113281 C 95.289062 89.113281 96.140625 88.261719 96.140625 87.179688 C 96.140625 86.101562 95.289062 85.25 94.207031 85.25 Z M 80.539062 98.839844 C 74.132812 98.839844 68.878906 93.589844 68.878906 87.179688 C 68.878906 80.773438 74.132812 75.519531 80.539062 75.519531 C 86.332031 75.519531 91.121094 79.769531 92.046875 85.25 L 90.734375 85.25 C 89.808594 80.464844 85.636719 76.832031 80.539062 76.832031 C 74.828125 76.832031 70.191406 81.46875 70.191406 87.179688 C 70.191406 92.894531 74.828125 97.527344 80.539062 97.527344 C 85.558594 97.527344 89.808594 93.898438 90.734375 89.113281 L 92.046875 89.113281 C 91.042969 94.59375 86.253906 98.839844 80.539062 98.839844 Z M 89.730469 87.179688 C 89.730469 92.277344 85.636719 96.371094 80.539062 96.371094 C 75.445312 96.371094 71.351562 92.277344 71.351562 87.179688 C 71.351562 82.085938 75.445312 77.992188 80.539062 77.992188 C 85.636719 77.992188 89.730469 82.164062 89.730469 87.179688 Z M 94.207031 87.953125 L 90.8125 87.953125 C 90.8125 87.722656 90.886719 87.414062 90.886719 87.179688 C 90.886719 86.949219 90.886719 86.640625 90.8125 86.410156 L 94.207031 86.410156 C 94.59375 86.410156 94.980469 86.71875 94.980469 87.179688 C 94.980469 87.644531 94.671875 87.953125 94.207031 87.953125 Z M 94.207031 87.953125 "/>
<path style=" stroke:none;fill-rule:nonzero;fill:rgb(13.72549%,12.156863%,12.54902%);fill-opacity:1;" d="M 57.992188 32.664062 L 59.074219 32.664062 L 59.074219 33.824219 L 57.992188 33.824219 Z M 57.992188 32.664062 "/>
<path style=" stroke:none;fill-rule:nonzero;fill:rgb(13.72549%,12.156863%,12.54902%);fill-opacity:1;" d="M 60 32.664062 L 61.082031 32.664062 L 61.082031 33.824219 L 60 33.824219 Z M 60 32.664062 "/>
<path style=" stroke:none;fill-rule:nonzero;fill:rgb(13.72549%,12.156863%,12.54902%);fill-opacity:1;" d="M 62.085938 32.664062 L 63.167969 32.664062 L 63.167969 33.824219 L 62.085938 33.824219 Z M 62.085938 32.664062 "/>
<path style=" stroke:none;fill-rule:nonzero;fill:rgb(13.72549%,12.156863%,12.54902%);fill-opacity:1;" d="M 64.167969 32.664062 L 65.25 32.664062 L 65.25 33.824219 L 64.167969 33.824219 Z M 64.167969 32.664062 "/>
<path style=" stroke:none;fill-rule:nonzero;fill:rgb(100%,100%,100%);fill-opacity:1;" d="M 98.148438 17.527344 C 98.148438 25.460938 91.714844 31.890625 83.785156 31.890625 C 75.851562 31.890625 69.421875 25.460938 69.421875 17.527344 C 69.421875 9.597656 75.851562 3.167969 83.785156 3.167969 C 91.714844 3.167969 98.148438 9.597656 98.148438 17.527344 Z M 98.148438 17.527344 "/>
<path style=" stroke:none;fill-rule:nonzero;fill:rgb(13.72549%,12.156863%,12.54902%);fill-opacity:1;" d="M 86.640625 49.960938 L 86.640625 32.199219 C 93.511719 30.886719 98.6875 24.789062 98.6875 17.527344 C 98.6875 9.265625 91.96875 2.625 83.785156 2.625 C 76.140625 2.625 69.808594 8.417969 68.957031 15.832031 L 38.53125 15.832031 C 37.375 15.832031 36.523438 16.757812 36.523438 17.835938 L 36.523438 49.960938 L 33.203125 56.757812 L 29.730469 53.28125 C 29.652344 53.203125 29.5 53.128906 29.34375 53.128906 L 4.710938 53.128906 C 4.402344 53.128906 4.09375 53.359375 4.09375 53.746094 L 4.09375 55.984375 L 1.851562 55.984375 C 1.542969 55.984375 1.234375 56.214844 1.234375 56.601562 L 1.234375 99.460938 C 1.234375 99.769531 1.46875 100.078125 1.851562 100.078125 L 34.902344 100.078125 C 35.210938 100.078125 35.519531 99.84375 35.519531 99.460938 L 35.519531 97.21875 L 37.761719 97.21875 C 38.070312 97.21875 38.378906 96.988281 38.378906 96.601562 L 38.378906 73.4375 L 93.359375 73.4375 C 94.515625 73.4375 95.519531 72.433594 95.519531 71.273438 L 95.519531 68.726562 C 95.519531 68.339844 95.445312 67.953125 95.210938 67.644531 Z M 83.785156 3.707031 C 91.351562 3.707031 97.527344 9.882812 97.527344 17.453125 C 97.527344 25.019531 91.351562 31.195312 83.785156 31.195312 C 76.214844 31.195312 70.039062 25.019531 70.039062 17.453125 C 70.039062 9.882812 76.140625 3.707031 83.785156 3.707031 Z M 82.472656 32.355469 L 82.472656 46.488281 L 40.695312 46.488281 L 40.695312 20 L 69.035156 20 C 70.191406 26.640625 75.675781 31.816406 82.472656 32.355469 Z M 37.683594 17.835938 C 37.683594 17.375 38.070312 16.988281 38.53125 16.988281 L 68.878906 16.988281 C 68.878906 17.144531 68.878906 17.375 68.878906 17.527344 C 68.878906 17.992188 68.878906 18.378906 68.957031 18.839844 L 40.078125 18.839844 C 39.769531 18.839844 39.460938 19.074219 39.460938 19.460938 L 39.460938 47.105469 C 39.460938 47.414062 39.691406 47.722656 40.078125 47.722656 L 83.011719 47.722656 C 83.320312 47.722656 83.628906 47.492188 83.628906 47.105469 L 83.628906 32.433594 C 83.707031 32.433594 83.707031 32.433594 83.785156 32.433594 C 84.402344 32.433594 84.941406 32.355469 85.484375 32.355469 L 85.484375 49.5 L 37.683594 49.5 Z M 29.882812 55.058594 L 36.371094 61.542969 L 29.882812 61.542969 Z M 34.363281 98.839844 L 2.472656 98.839844 L 2.472656 57.144531 L 4.167969 57.144531 L 4.167969 96.601562 C 4.167969 96.910156 4.402344 97.21875 4.789062 97.21875 L 34.441406 97.21875 L 34.441406 98.839844 Z M 37.144531 95.984375 L 5.25 95.984375 L 5.25 54.285156 L 28.648438 54.285156 L 28.648438 62.164062 C 28.648438 62.472656 28.878906 62.78125 29.265625 62.78125 L 37.144531 62.78125 Z M 94.363281 71.273438 C 94.363281 71.816406 93.898438 72.277344 93.359375 72.277344 L 38.300781 72.277344 L 38.300781 62.164062 C 38.300781 62.007812 38.222656 61.851562 38.148438 61.777344 L 34.054688 57.683594 L 37.453125 50.734375 L 85.714844 50.734375 L 94.207031 68.261719 C 94.285156 68.417969 94.363281 68.570312 94.363281 68.804688 Z M 94.363281 71.273438 "/>
<path style=" stroke:none;fill-rule:nonzero;fill:rgb(90.196078%,91.372549%,93.333333%);fill-opacity:1;" d="M 96.140625 17.527344 C 96.140625 24.351562 90.605469 29.882812 83.785156 29.882812 C 76.960938 29.882812 71.429688 24.351562 71.429688 17.527344 C 71.429688 10.707031 76.960938 5.171875 83.785156 5.171875 C 90.605469 5.171875 96.140625 10.707031 96.140625 17.527344 Z M 96.140625 17.527344 "/>
<path style=" stroke:none;fill-rule:nonzero;fill:rgb(13.72549%,12.156863%,12.54902%);fill-opacity:1;" d="M 78.398438 7.015625 L 79.09375 8.21875 L 78.089844 8.796875 L 77.394531 7.59375 Z M 78.398438 7.015625 "/>
<path style=" stroke:none;fill-rule:nonzero;fill:rgb(13.72549%,12.156863%,12.54902%);fill-opacity:1;" d="M 89.46875 26.152344 L 90.164062 27.355469 L 89.160156 27.9375 L 88.464844 26.734375 Z M 89.46875 26.152344 "/>
<path style=" stroke:none;fill-rule:nonzero;fill:rgb(13.72549%,12.156863%,12.54902%);fill-opacity:1;" d="M 73.875 11.164062 L 75.078125 11.859375 L 74.5 12.863281 L 73.296875 12.167969 Z M 73.875 11.164062 "/>
<path style=" stroke:none;fill-rule:nonzero;fill:rgb(13.72549%,12.156863%,12.54902%);fill-opacity:1;" d="M 93.039062 22.203125 L 94.242188 22.898438 L 93.664062 23.902344 L 92.460938 23.207031 Z M 93.039062 22.203125 "/>
<path style=" stroke:none;fill-rule:nonzero;fill:rgb(13.72549%,12.156863%,12.54902%);fill-opacity:1;" d="M 71.96875 16.910156 L 73.359375 16.910156 L 73.359375 18.070312 L 71.96875 18.070312 Z M 71.96875 16.910156 "/>
<path style=" stroke:none;fill-rule:nonzero;fill:rgb(13.72549%,12.156863%,12.54902%);fill-opacity:1;" d="M 94.132812 16.910156 L 95.519531 16.910156 L 95.519531 18.070312 L 94.132812 18.070312 Z M 94.132812 16.910156 "/>
<path style=" stroke:none;fill-rule:nonzero;fill:rgb(13.72549%,12.156863%,12.54902%);fill-opacity:1;" d="M 74.523438 22.164062 L 75.101562 23.167969 L 73.898438 23.863281 L 73.320312 22.859375 Z M 74.523438 22.164062 "/>
<path style=" stroke:none;fill-rule:nonzero;fill:rgb(13.72549%,12.156863%,12.54902%);fill-opacity:1;" d="M 93.664062 11.09375 L 94.242188 12.097656 L 93.039062 12.792969 L 92.460938 11.789062 Z M 93.664062 11.09375 "/>
<path style=" stroke:none;fill-rule:nonzero;fill:rgb(13.72549%,12.156863%,12.54902%);fill-opacity:1;" d="M 78.101562 26.226562 L 79.105469 26.804688 L 78.410156 28.007812 L 77.40625 27.429688 Z M 78.101562 26.226562 "/>
<path style=" stroke:none;fill-rule:nonzero;fill:rgb(13.72549%,12.156863%,12.54902%);fill-opacity:1;" d="M 89.136719 7.054688 L 90.140625 7.632812 L 89.445312 8.835938 L 88.445312 8.257812 Z M 89.136719 7.054688 "/>
<path style=" stroke:none;fill-rule:nonzero;fill:rgb(13.72549%,12.156863%,12.54902%);fill-opacity:1;" d="M 89.34375 18.070312 L 83.167969 18.070312 L 83.167969 10.191406 L 84.324219 10.191406 L 84.324219 16.910156 L 89.34375 16.910156 Z M 89.34375 18.070312 "/>
<path style=" stroke:none;fill-rule:nonzero;fill:rgb(100%,43.921569%,34.509804%);fill-opacity:1;" d="M 47.414062 8.570312 C 47.414062 9.679688 46.515625 10.578125 45.40625 10.578125 C 44.296875 10.578125 43.398438 9.679688 43.398438 8.570312 C 43.398438 7.460938 44.296875 6.5625 45.40625 6.5625 C 46.515625 6.5625 47.414062 7.460938 47.414062 8.570312 Z M 47.414062 8.570312 "/>
<path style=" stroke:none;fill-rule:nonzero;fill:rgb(90.196078%,91.372549%,93.333333%);fill-opacity:1;" d="M 20.386719 3.320312 C 20.386719 4.429688 19.488281 5.328125 18.378906 5.328125 C 17.269531 5.328125 16.371094 4.429688 16.371094 3.320312 C 16.371094 2.210938 17.269531 1.3125 18.378906 1.3125 C 19.488281 1.3125 20.386719 2.210938 20.386719 3.320312 Z M 20.386719 3.320312 "/>
<path style=" stroke:none;fill-rule:nonzero;fill:rgb(51.764706%,85.882353%,100%);fill-opacity:1;" d="M 98.609375 56.910156 C 98.609375 58.019531 97.710938 58.917969 96.601562 58.917969 C 95.492188 58.917969 94.59375 58.019531 94.59375 56.910156 C 94.59375 55.800781 95.492188 54.902344 96.601562 54.902344 C 97.710938 54.902344 98.609375 55.800781 98.609375 56.910156 Z M 98.609375 56.910156 "/>
<path style=" stroke:none;fill-rule:nonzero;fill:rgb(13.72549%,12.156863%,12.54902%);fill-opacity:1;" d="M 83.167969 5.714844 L 84.324219 5.714844 L 84.324219 7.105469 L 83.167969 7.105469 Z M 83.167969 5.714844 "/>
<path style=" stroke:none;fill-rule:nonzero;fill:rgb(13.72549%,12.156863%,12.54902%);fill-opacity:1;" d="M 83.167969 27.875 L 84.324219 27.875 L 84.324219 29.265625 L 83.167969 29.265625 Z M 83.167969 27.875 "/>
</g>
</svg>
