<?xml version="1.0" encoding="UTF-8" standalone="no"?>
<!-- Generator: Adobe Illustrator 15.0.2, SVG Export Plug-In . SVG Version: 6.00 Build 0)  -->

<svg
   version="1.1"
   id="layer_1"
   x="0px"
   y="0px"
   width="707.39301"
   height="232.25999"
   viewBox="0 0 707.39301 232.25999"
   enable-background="new 0 0 800 800"
   xml:space="preserve"
   sodipodi:docname="15-04-24.svg"
   inkscape:version="1.3.2 (091e20e, 2023-11-25, custom)"
   xmlns:inkscape="http://www.inkscape.org/namespaces/inkscape"
   xmlns:sodipodi="http://sodipodi.sourceforge.net/DTD/sodipodi-0.dtd"
   xmlns:xlink="http://www.w3.org/1999/xlink"
   xmlns="http://www.w3.org/2000/svg"
   xmlns:svg="http://www.w3.org/2000/svg"><defs
   id="defs656">
		
		
	<clipPath
   clipPathUnits="userSpaceOnUse"
   id="clipPath657"><g
     id="g658"><use
       xlink:href="#SVGID_1_"
       overflow="visible"
       id="use657" /></g></clipPath><clipPath
   clipPathUnits="userSpaceOnUse"
   id="clipPath658"><g
     id="g659"><use
       xlink:href="#SVGID_1_"
       overflow="visible"
       id="use658" /></g></clipPath></defs><sodipodi:namedview
   id="namedview656"
   pagecolor="#ffffff"
   bordercolor="#000000"
   borderopacity="0.25"
   inkscape:showpageshadow="2"
   inkscape:pageopacity="0.0"
   inkscape:pagecheckerboard="0"
   inkscape:deskcolor="#d1d1d1"
   showgrid="false"
   inkscape:zoom="0.98375"
   inkscape:cx="336.97586"
   inkscape:cy="209.91105"
   inkscape:window-width="1920"
   inkscape:window-height="1001"
   inkscape:window-x="-9"
   inkscape:window-y="-9"
   inkscape:window-maximized="1"
   inkscape:current-layer="layer_1" />
<g
   id="g656"
   transform="translate(-135.19695,-19.31385)">
	<defs
   id="defs1">
		<polygon
   id="SVGID_1_"
   points="0,800 800,800 800,400 800,0 0,0 0,400 " />
	</defs>
	<clipPath
   id="SVGID_2_">
		<use
   xlink:href="#SVGID_1_"
   overflow="visible"
   id="use1" />
	</clipPath>
	
	
	<g
   clip-path="url(#SVGID_2_)"
   id="g640"
   transform="matrix(1,0,0,1.0004308,89.279948,-521.91122)">
		<g
   id="g258">
			<path
   fill="#3dc7d2"
   d="m 675.126,671.824 c -1.812,0 -3.492,0.536 -4.88,1.494 -0.941,-1.069 -2.233,-1.828 -3.702,-2.073 0.061,-0.411 0.093,-0.837 0.093,-1.266 0,-4.749 -3.851,-8.602 -8.599,-8.602 -4.75,0 -8.602,3.849 -8.602,8.597 0,0.702 0.086,1.381 0.245,2.032 -0.636,-0.15 -1.299,-0.183 -1.982,-0.183 -4.75,0 -8.6,3.95 -8.6,8.648 h 44.627 c 0,-4.697 -3.851,-8.647 -8.6,-8.647 z"
   id="path257" />
		</g>
		<g
   id="g286">
			<g
   id="g283">
				<g
   id="g261">
					<g
   id="g260">
						<g
   id="g259">
							<path
   fill="#e6e6e6"
   d="m 102.28,771.24 c 1.14,0.577 2.399,0.912 3.668,0.912 h 81.302 c 4.17,0 7.23,-3.575 7.23,-7.746 v -63.904 c 0,-4.171 -3.06,-7.066 -7.23,-7.066 h -23.314 c -2.989,0 -5.881,1.493 -7.285,3.872 -0.555,0.939 -0.884,2.013 -0.884,3.194 v 3.258 h -49.819 c -0.926,0 -1.844,0.141 -2.718,0.395 -1.471,0.43 -2.802,1.197 -3.791,2.241 -1.068,1.128 -1.741,2.569 -1.741,4.254 v 53.757 c 0,2.902 1.976,5.511 4.582,6.833 z"
   id="path258" />
						</g>
					</g>
				</g>
				<g
   id="g275">
					<g
   id="g274">
						<g
   id="g265">
							<g
   id="g264">
								<g
   id="g263">
									<g
   id="g262">
										<path
   fill="#111111"
   d="m 151.082,765.752 c -7.423,0 -13.462,-6.038 -13.462,-13.461 0,-7.06 5.519,-12.953 12.565,-13.419 l 1.066,-0.07 v 13.318 h 13.319 l -0.07,1.066 c -0.467,7.046 -6.361,12.566 -13.418,12.566 z m -1.831,-24.764 c -5.479,0.882 -9.631,5.654 -9.631,11.303 0,6.319 5.142,11.461 11.462,11.461 5.646,0 10.418,-4.151 11.301,-9.632 h -13.132 z"
   id="path261" />
									</g>
								</g>
							</g>
						</g>
						<g
   id="g269">
							<g
   id="g268">
								<g
   id="g267">
									<g
   id="g266">
										<path
   fill="#ea572e"
   d="m 151.914,750.976 v -10.288 c 3.982,0.284 7.414,2.581 9.286,5.875 z"
   id="path265" />
									</g>
								</g>
							</g>
						</g>
						<g
   id="g273">
							<g
   id="g272">
								<g
   id="g271">
									<g
   id="g270">
										<path
   fill="#f3a52d"
   d="m 162.684,751.459 h -7.917 l 7.154,-3.397 c 0.427,1.086 0.682,2.225 0.763,3.397 z"
   id="path269" />
									</g>
								</g>
							</g>
						</g>
					</g>
				</g>
				<g
   id="g282">
					<g
   id="g276">
						<rect
   x="122.346"
   y="748.13599"
   fill="#111111"
   width="2.6099999"
   height="2"
   id="rect275" />
					</g>
					<g
   id="g277">
						<rect
   x="115.099"
   y="748.13599"
   fill="#111111"
   width="2.6099999"
   height="2"
   id="rect276" />
					</g>
					<g
   id="g278">
						<rect
   x="107.853"
   y="748.13599"
   fill="#111111"
   width="2.6099999"
   height="2"
   id="rect277" />
					</g>
					<g
   id="g279">
						<rect
   x="107.853"
   y="752.69702"
   fill="#111111"
   width="27.653999"
   height="2"
   id="rect278" />
					</g>
					<g
   id="g280">
						<rect
   x="107.853"
   y="757.20099"
   fill="#111111"
   width="27.653999"
   height="2"
   id="rect279" />
					</g>
					<g
   id="g281">
						<rect
   x="107.853"
   y="761.70599"
   fill="#111111"
   width="10.576"
   height="2"
   id="rect280" />
					</g>
				</g>
			</g>
			<g
   id="g284">
				<path
   fill="#111111"
   d="m 187.25,773.152 h -81.302 c -1.377,0 -2.802,-0.353 -4.12,-1.02 -3.117,-1.582 -5.131,-4.614 -5.131,-7.727 v -53.757 c 0,-1.841 0.697,-3.55 2.015,-4.941 1.094,-1.154 2.559,-2.023 4.237,-2.514 0.993,-0.288 2.001,-0.435 2.999,-0.435 h 16.397 v 2 h -16.397 c -0.808,0 -1.629,0.119 -2.439,0.354 -1.337,0.391 -2.494,1.071 -3.344,1.969 -0.96,1.014 -1.467,2.247 -1.467,3.566 v 53.757 c 0,2.366 1.584,4.698 4.035,5.942 1.039,0.525 2.151,0.804 3.215,0.804 h 81.302 c 3.494,0 6.23,-2.963 6.23,-6.746 V 700.5 c 0,-3.572 -2.562,-6.066 -6.23,-6.066 h -23.314 c -2.69,0 -5.212,1.327 -6.423,3.38 -0.495,0.838 -0.745,1.741 -0.745,2.687 v 4.258 H 142.61 v -2 h 12.158 v -2.258 c 0,-1.308 0.344,-2.554 1.022,-3.703 1.564,-2.65 4.762,-4.363 8.146,-4.363 h 23.314 c 4.769,0 8.23,3.393 8.23,8.066 v 63.904 c 0,4.906 -3.615,8.747 -8.23,8.747 z"
   id="path283" />
			</g>
			<g
   id="g285">
				<rect
   x="126.834"
   y="702.76001"
   fill="#111111"
   width="8.6719999"
   height="2"
   id="rect284" />
			</g>
		</g>
		<g
   id="g418">
			<g
   id="g287">
				<rect
   x="526.87598"
   y="642.46301"
   fill="#b7d1cd"
   width="105.367"
   height="129.689"
   id="rect286" />
			</g>
			<g
   id="g288">
				<rect
   x="532.87799"
   y="648.46301"
   fill="#2e8d9a"
   width="93.366997"
   height="117.689"
   id="rect287" />
			</g>
			<g
   id="g289">
				<rect
   x="631.24298"
   y="701.34003"
   fill="#111111"
   width="2"
   height="29.097"
   id="rect288" />
			</g>
			<g
   id="g290">
				<polygon
   fill="#111111"
   points="633.243,694.813 631.243,694.813 631.243,643.463 527.876,643.463 527.876,771.152 631.243,771.152 631.243,735.296 633.243,735.296 633.243,773.152 525.876,773.152 525.876,641.463 633.243,641.463 "
   id="polygon289" />
			</g>
			<g
   id="g331">
				<g
   id="g291">
					<rect
   x="543.883"
   y="670.92499"
   fill="#52677a"
   width="6.526"
   height="6.382"
   id="rect290" />
				</g>
				<g
   id="g292">
					<rect
   x="543.883"
   y="661.81403"
   fill="#52677a"
   width="6.526"
   height="6.3829999"
   id="rect291" />
				</g>
				<g
   id="g293">
					<rect
   x="543.883"
   y="652.85999"
   fill="#52677a"
   width="6.526"
   height="6.3959999"
   id="rect292" />
				</g>
				<g
   id="g294">
					<rect
   x="553.54199"
   y="670.92499"
   fill="#52677a"
   width="6.526"
   height="6.382"
   id="rect293" />
				</g>
				<g
   id="g295">
					<rect
   x="553.54199"
   y="661.81403"
   fill="#52677a"
   width="6.526"
   height="6.3829999"
   id="rect294" />
				</g>
				<g
   id="g296">
					<rect
   x="553.54199"
   y="652.85999"
   fill="#52677a"
   width="6.526"
   height="6.3959999"
   id="rect295" />
				</g>
				<g
   id="g297">
					<rect
   x="563.04303"
   y="670.92499"
   fill="#52677a"
   width="6.526"
   height="6.382"
   id="rect296" />
				</g>
				<g
   id="g298">
					<rect
   x="563.04303"
   y="661.81403"
   fill="#52677a"
   width="6.526"
   height="6.3829999"
   id="rect297" />
				</g>
				<g
   id="g299">
					<rect
   x="563.04303"
   y="652.85999"
   fill="#52677a"
   width="6.526"
   height="6.3959999"
   id="rect298" />
				</g>
				<g
   id="g300">
					<rect
   x="572.466"
   y="670.92499"
   fill="#52677a"
   width="6.5139999"
   height="6.382"
   id="rect299" />
				</g>
				<g
   id="g301">
					<rect
   x="572.466"
   y="661.81403"
   fill="#52677a"
   width="6.5139999"
   height="6.3829999"
   id="rect300" />
				</g>
				<g
   id="g302">
					<rect
   x="572.466"
   y="652.85999"
   fill="#52677a"
   width="6.5139999"
   height="6.3959999"
   id="rect301" />
				</g>
				<g
   id="g303">
					<rect
   x="582.112"
   y="670.92499"
   fill="#52677a"
   width="6.526"
   height="6.382"
   id="rect302" />
				</g>
				<g
   id="g304">
					<rect
   x="582.112"
   y="661.81403"
   fill="#52677a"
   width="6.526"
   height="6.3829999"
   id="rect303" />
				</g>
				<g
   id="g305">
					<rect
   x="582.112"
   y="652.85999"
   fill="#52677a"
   width="6.526"
   height="6.3959999"
   id="rect304" />
				</g>
				<g
   id="g306">
					<rect
   x="591.62701"
   y="670.92499"
   fill="#52677a"
   width="6.526"
   height="6.382"
   id="rect305" />
				</g>
				<g
   id="g307">
					<rect
   x="591.62701"
   y="661.81403"
   fill="#52677a"
   width="6.526"
   height="6.3829999"
   id="rect306" />
				</g>
				<g
   id="g308">
					<rect
   x="591.62701"
   y="652.85999"
   fill="#52677a"
   width="6.526"
   height="6.3959999"
   id="rect307" />
				</g>
				<g
   id="g309">
					<rect
   x="604.34003"
   y="673.23602"
   fill="#52677a"
   width="8.4189997"
   height="3.888"
   id="rect308" />
				</g>
				<g
   id="g310">
					<path
   fill="#52677a"
   d="m 608.517,666.2 c -3.72,0 -6.735,-3.016 -6.735,-6.735 0,-3.719 3.015,-6.734 6.735,-6.734 3.707,0 6.722,3.016 6.722,6.734 -10e-4,3.72 -3.016,6.735 -6.722,6.735 z"
   id="path309" />
				</g>
				<g
   id="g311">
					<rect
   x="604.34003"
   y="673.23602"
   fill="#ffffff"
   width="8.4189997"
   height="3.888"
   id="rect310" />
				</g>
				<g
   id="g312">
					<path
   fill="#ffffff"
   d="m 615.238,659.465 c 0,3.72 -3.015,6.735 -6.722,6.735 -3.72,0 -6.735,-3.016 -6.735,-6.735 0,-3.719 3.015,-6.734 6.735,-6.734 3.707,-10e-4 6.722,3.015 6.722,6.734 z"
   id="path311" />
				</g>
				<g
   id="g313">
					<rect
   x="543.883"
   y="652.85999"
   fill="#ffffff"
   width="6.526"
   height="6.3959999"
   id="rect312" />
				</g>
				<g
   id="g314">
					<rect
   x="553.54199"
   y="652.85999"
   fill="#ffffff"
   width="6.526"
   height="6.3959999"
   id="rect313" />
				</g>
				<g
   id="g315">
					<rect
   x="563.04303"
   y="652.85999"
   fill="#ffffff"
   width="6.526"
   height="6.3959999"
   id="rect314" />
				</g>
				<g
   id="g316">
					<rect
   x="572.466"
   y="652.85999"
   fill="#ffffff"
   width="6.5139999"
   height="6.3959999"
   id="rect315" />
				</g>
				<g
   id="g317">
					<rect
   x="582.112"
   y="652.85999"
   fill="#ffffff"
   width="6.526"
   height="6.3959999"
   id="rect316" />
				</g>
				<g
   id="g318">
					<rect
   x="591.62701"
   y="652.85999"
   fill="#ffffff"
   width="6.526"
   height="6.3959999"
   id="rect317" />
				</g>
				<g
   id="g319">
					<rect
   x="591.62701"
   y="661.81403"
   fill="#ffffff"
   width="6.526"
   height="6.3829999"
   id="rect318" />
				</g>
				<g
   id="g320">
					<rect
   x="582.112"
   y="661.81403"
   fill="#ffffff"
   width="6.526"
   height="6.3829999"
   id="rect319" />
				</g>
				<g
   id="g321">
					<rect
   x="572.466"
   y="661.81403"
   fill="#ffffff"
   width="6.5139999"
   height="6.3829999"
   id="rect320" />
				</g>
				<g
   id="g322">
					<rect
   x="563.04303"
   y="661.81403"
   fill="#ffffff"
   width="6.526"
   height="6.3829999"
   id="rect321" />
				</g>
				<g
   id="g323">
					<rect
   x="553.54199"
   y="661.81403"
   fill="#ffffff"
   width="6.526"
   height="6.3829999"
   id="rect322" />
				</g>
				<g
   id="g324">
					<rect
   x="543.883"
   y="661.81403"
   fill="#ffffff"
   width="6.526"
   height="6.3829999"
   id="rect323" />
				</g>
				<g
   id="g325">
					<rect
   x="543.883"
   y="670.92499"
   fill="#ffffff"
   width="6.526"
   height="6.382"
   id="rect324" />
				</g>
				<g
   id="g326">
					<rect
   x="553.54199"
   y="670.92499"
   fill="#ffffff"
   width="6.526"
   height="6.382"
   id="rect325" />
				</g>
				<g
   id="g327">
					<rect
   x="563.04303"
   y="670.92499"
   fill="#ffffff"
   width="6.526"
   height="6.382"
   id="rect326" />
				</g>
				<g
   id="g328">
					<rect
   x="572.466"
   y="670.92499"
   fill="#ffffff"
   width="6.5139999"
   height="6.382"
   id="rect327" />
				</g>
				<g
   id="g329">
					<rect
   x="582.112"
   y="670.92499"
   fill="#ffffff"
   width="6.526"
   height="6.382"
   id="rect328" />
				</g>
				<g
   id="g330">
					<rect
   x="591.62701"
   y="670.92499"
   fill="#ffffff"
   width="6.526"
   height="6.382"
   id="rect329" />
				</g>
			</g>
			<g
   id="g332">
				<rect
   x="612.38501"
   y="684.086"
   fill="#111111"
   width="18.834"
   height="2"
   id="rect331" />
			</g>
			<g
   id="g333">
				<rect
   x="526.79303"
   y="684.086"
   fill="#111111"
   width="76.481003"
   height="2"
   id="rect332" />
			</g>
			<g
   id="g374">
				<g
   id="g334">
					<rect
   x="543.883"
   y="713.77399"
   fill="#52677a"
   width="6.526"
   height="6.3839998"
   id="rect333" />
				</g>
				<g
   id="g335">
					<rect
   x="543.883"
   y="704.664"
   fill="#52677a"
   width="6.526"
   height="6.3839998"
   id="rect334" />
				</g>
				<g
   id="g336">
					<rect
   x="543.883"
   y="695.711"
   fill="#52677a"
   width="6.526"
   height="6.3959999"
   id="rect335" />
				</g>
				<g
   id="g337">
					<rect
   x="553.54199"
   y="713.77399"
   fill="#52677a"
   width="6.526"
   height="6.3839998"
   id="rect336" />
				</g>
				<g
   id="g338">
					<rect
   x="553.54199"
   y="704.664"
   fill="#52677a"
   width="6.526"
   height="6.3839998"
   id="rect337" />
				</g>
				<g
   id="g339">
					<rect
   x="553.54199"
   y="695.711"
   fill="#52677a"
   width="6.526"
   height="6.3959999"
   id="rect338" />
				</g>
				<g
   id="g340">
					<rect
   x="563.04303"
   y="713.77399"
   fill="#52677a"
   width="6.526"
   height="6.3839998"
   id="rect339" />
				</g>
				<g
   id="g341">
					<rect
   x="563.04303"
   y="704.664"
   fill="#52677a"
   width="6.526"
   height="6.3839998"
   id="rect340" />
				</g>
				<g
   id="g342">
					<rect
   x="563.04303"
   y="695.711"
   fill="#52677a"
   width="6.526"
   height="6.3959999"
   id="rect341" />
				</g>
				<g
   id="g343">
					<rect
   x="572.466"
   y="713.77399"
   fill="#52677a"
   width="6.5139999"
   height="6.3839998"
   id="rect342" />
				</g>
				<g
   id="g344">
					<rect
   x="572.466"
   y="704.664"
   fill="#52677a"
   width="6.5139999"
   height="6.3839998"
   id="rect343" />
				</g>
				<g
   id="g345">
					<rect
   x="572.466"
   y="695.711"
   fill="#52677a"
   width="6.5139999"
   height="6.3959999"
   id="rect344" />
				</g>
				<g
   id="g346">
					<rect
   x="582.112"
   y="713.77399"
   fill="#52677a"
   width="6.526"
   height="6.3839998"
   id="rect345" />
				</g>
				<g
   id="g347">
					<rect
   x="582.112"
   y="704.664"
   fill="#52677a"
   width="6.526"
   height="6.3839998"
   id="rect346" />
				</g>
				<g
   id="g348">
					<rect
   x="582.112"
   y="695.711"
   fill="#52677a"
   width="6.526"
   height="6.3959999"
   id="rect347" />
				</g>
				<g
   id="g349">
					<rect
   x="591.62701"
   y="713.77399"
   fill="#52677a"
   width="6.526"
   height="6.3839998"
   id="rect348" />
				</g>
				<g
   id="g350">
					<rect
   x="591.62701"
   y="704.664"
   fill="#52677a"
   width="6.526"
   height="6.3839998"
   id="rect349" />
				</g>
				<g
   id="g351">
					<rect
   x="591.62701"
   y="695.711"
   fill="#52677a"
   width="6.526"
   height="6.3959999"
   id="rect350" />
				</g>
				<g
   id="g352">
					<rect
   x="604.34003"
   y="716.086"
   fill="#52677a"
   width="8.4189997"
   height="3.8889999"
   id="rect351" />
				</g>
				<g
   id="g353">
					<path
   fill="#52677a"
   d="m 608.517,709.05 c -3.72,0 -6.735,-3.015 -6.735,-6.735 0,-3.719 3.015,-6.734 6.735,-6.734 3.707,0 6.722,3.016 6.722,6.734 -10e-4,3.72 -3.016,6.735 -6.722,6.735 z"
   id="path352" />
				</g>
				<g
   id="g354">
					<rect
   x="604.34003"
   y="716.086"
   fill="#ffffff"
   width="8.4189997"
   height="3.8889999"
   id="rect353" />
				</g>
				<g
   id="g355">
					<path
   fill="#ffffff"
   d="m 615.238,702.314 c 0,3.721 -3.015,6.735 -6.722,6.735 -3.72,0 -6.735,-3.015 -6.735,-6.735 0,-3.719 3.015,-6.734 6.735,-6.734 3.707,0 6.722,3.016 6.722,6.734 z"
   id="path354" />
				</g>
				<g
   id="g356">
					<rect
   x="543.883"
   y="695.711"
   fill="#ffffff"
   width="6.526"
   height="6.3959999"
   id="rect355" />
				</g>
				<g
   id="g357">
					<rect
   x="553.54199"
   y="695.711"
   fill="#ffffff"
   width="6.526"
   height="6.3959999"
   id="rect356" />
				</g>
				<g
   id="g358">
					<rect
   x="563.04303"
   y="695.711"
   fill="#ffffff"
   width="6.526"
   height="6.3959999"
   id="rect357" />
				</g>
				<g
   id="g359">
					<rect
   x="572.466"
   y="695.711"
   fill="#ffffff"
   width="6.5139999"
   height="6.3959999"
   id="rect358" />
				</g>
				<g
   id="g360">
					<rect
   x="582.112"
   y="695.711"
   fill="#ffffff"
   width="6.526"
   height="6.3959999"
   id="rect359" />
				</g>
				<g
   id="g361">
					<rect
   x="591.62701"
   y="695.711"
   fill="#ffffff"
   width="6.526"
   height="6.3959999"
   id="rect360" />
				</g>
				<g
   id="g362">
					<rect
   x="591.62701"
   y="704.664"
   fill="#ffffff"
   width="6.526"
   height="6.3839998"
   id="rect361" />
				</g>
				<g
   id="g363">
					<rect
   x="582.112"
   y="704.664"
   fill="#ffffff"
   width="6.526"
   height="6.3839998"
   id="rect362" />
				</g>
				<g
   id="g364">
					<rect
   x="572.466"
   y="704.664"
   fill="#ffffff"
   width="6.5139999"
   height="6.3839998"
   id="rect363" />
				</g>
				<g
   id="g365">
					<rect
   x="563.04303"
   y="704.664"
   fill="#ffffff"
   width="6.526"
   height="6.3839998"
   id="rect364" />
				</g>
				<g
   id="g366">
					<rect
   x="553.54199"
   y="704.664"
   fill="#ffffff"
   width="6.526"
   height="6.3839998"
   id="rect365" />
				</g>
				<g
   id="g367">
					<rect
   x="543.883"
   y="704.664"
   fill="#ffffff"
   width="6.526"
   height="6.3839998"
   id="rect366" />
				</g>
				<g
   id="g368">
					<rect
   x="543.883"
   y="713.77399"
   fill="#ffffff"
   width="6.526"
   height="6.3839998"
   id="rect367" />
				</g>
				<g
   id="g369">
					<rect
   x="553.54199"
   y="713.77399"
   fill="#ffffff"
   width="6.526"
   height="6.3839998"
   id="rect368" />
				</g>
				<g
   id="g370">
					<rect
   x="563.04303"
   y="713.77399"
   fill="#ffffff"
   width="6.526"
   height="6.3839998"
   id="rect369" />
				</g>
				<g
   id="g371">
					<rect
   x="572.466"
   y="713.77399"
   fill="#ffffff"
   width="6.5139999"
   height="6.3839998"
   id="rect370" />
				</g>
				<g
   id="g372">
					<rect
   x="582.112"
   y="713.77399"
   fill="#ffffff"
   width="6.526"
   height="6.3839998"
   id="rect371" />
				</g>
				<g
   id="g373">
					<rect
   x="591.62701"
   y="713.77399"
   fill="#ffffff"
   width="6.526"
   height="6.3839998"
   id="rect372" />
				</g>
			</g>
			<g
   id="g375">
				<rect
   x="612.38501"
   y="726.93597"
   fill="#111111"
   width="18.834"
   height="2"
   id="rect374" />
			</g>
			<g
   id="g376">
				<rect
   x="526.79303"
   y="726.93597"
   fill="#111111"
   width="76.481003"
   height="2"
   id="rect375" />
			</g>
			<g
   id="g417">
				<g
   id="g377">
					<rect
   x="543.883"
   y="756.62402"
   fill="#52677a"
   width="6.526"
   height="6.3839998"
   id="rect376" />
				</g>
				<g
   id="g378">
					<rect
   x="543.883"
   y="747.51398"
   fill="#52677a"
   width="6.526"
   height="6.3839998"
   id="rect377" />
				</g>
				<g
   id="g379">
					<rect
   x="543.883"
   y="738.56097"
   fill="#52677a"
   width="6.526"
   height="6.3959999"
   id="rect378" />
				</g>
				<g
   id="g380">
					<rect
   x="553.54199"
   y="756.62402"
   fill="#52677a"
   width="6.526"
   height="6.3839998"
   id="rect379" />
				</g>
				<g
   id="g381">
					<rect
   x="553.54199"
   y="747.51398"
   fill="#52677a"
   width="6.526"
   height="6.3839998"
   id="rect380" />
				</g>
				<g
   id="g382">
					<rect
   x="553.54199"
   y="738.56097"
   fill="#52677a"
   width="6.526"
   height="6.3959999"
   id="rect381" />
				</g>
				<g
   id="g383">
					<rect
   x="563.04303"
   y="756.62402"
   fill="#52677a"
   width="6.526"
   height="6.3839998"
   id="rect382" />
				</g>
				<g
   id="g384">
					<rect
   x="563.04303"
   y="747.51398"
   fill="#52677a"
   width="6.526"
   height="6.3839998"
   id="rect383" />
				</g>
				<g
   id="g385">
					<rect
   x="563.04303"
   y="738.56097"
   fill="#52677a"
   width="6.526"
   height="6.3959999"
   id="rect384" />
				</g>
				<g
   id="g386">
					<rect
   x="572.466"
   y="756.62402"
   fill="#52677a"
   width="6.5139999"
   height="6.3839998"
   id="rect385" />
				</g>
				<g
   id="g387">
					<rect
   x="572.466"
   y="747.51398"
   fill="#52677a"
   width="6.5139999"
   height="6.3839998"
   id="rect386" />
				</g>
				<g
   id="g388">
					<rect
   x="572.466"
   y="738.56097"
   fill="#52677a"
   width="6.5139999"
   height="6.3959999"
   id="rect387" />
				</g>
				<g
   id="g389">
					<rect
   x="582.112"
   y="756.62402"
   fill="#52677a"
   width="6.526"
   height="6.3839998"
   id="rect388" />
				</g>
				<g
   id="g390">
					<rect
   x="582.112"
   y="747.51398"
   fill="#52677a"
   width="6.526"
   height="6.3839998"
   id="rect389" />
				</g>
				<g
   id="g391">
					<rect
   x="582.112"
   y="738.56097"
   fill="#52677a"
   width="6.526"
   height="6.3959999"
   id="rect390" />
				</g>
				<g
   id="g392">
					<rect
   x="591.62701"
   y="756.62402"
   fill="#52677a"
   width="6.526"
   height="6.3839998"
   id="rect391" />
				</g>
				<g
   id="g393">
					<rect
   x="591.62701"
   y="747.51398"
   fill="#52677a"
   width="6.526"
   height="6.3839998"
   id="rect392" />
				</g>
				<g
   id="g394">
					<rect
   x="591.62701"
   y="738.56097"
   fill="#52677a"
   width="6.526"
   height="6.3959999"
   id="rect393" />
				</g>
				<g
   id="g395">
					<rect
   x="604.34003"
   y="758.93597"
   fill="#52677a"
   width="8.4189997"
   height="3.8889999"
   id="rect394" />
				</g>
				<g
   id="g396">
					<path
   fill="#52677a"
   d="m 608.517,751.9 c -3.72,0 -6.735,-3.016 -6.735,-6.734 0,-3.721 3.015,-6.736 6.735,-6.736 3.707,0 6.722,3.016 6.722,6.736 -10e-4,3.719 -3.016,6.734 -6.722,6.734 z"
   id="path395" />
				</g>
				<g
   id="g397">
					<rect
   x="604.34003"
   y="758.93597"
   fill="#ffffff"
   width="8.4189997"
   height="3.8889999"
   id="rect396" />
				</g>
				<g
   id="g398">
					<path
   fill="#ffffff"
   d="m 615.238,745.166 c 0,3.719 -3.015,6.734 -6.722,6.734 -3.72,0 -6.735,-3.016 -6.735,-6.734 0,-3.721 3.015,-6.736 6.735,-6.736 3.707,0 6.722,3.015 6.722,6.736 z"
   id="path397" />
				</g>
				<g
   id="g399">
					<rect
   x="543.883"
   y="738.56097"
   fill="#ffffff"
   width="6.526"
   height="6.3959999"
   id="rect398" />
				</g>
				<g
   id="g400">
					<rect
   x="553.54199"
   y="738.56097"
   fill="#ffffff"
   width="6.526"
   height="6.3959999"
   id="rect399" />
				</g>
				<g
   id="g401">
					<rect
   x="563.04303"
   y="738.56097"
   fill="#ffffff"
   width="6.526"
   height="6.3959999"
   id="rect400" />
				</g>
				<g
   id="g402">
					<rect
   x="572.466"
   y="738.56097"
   fill="#ffffff"
   width="6.5139999"
   height="6.3959999"
   id="rect401" />
				</g>
				<g
   id="g403">
					<rect
   x="582.112"
   y="738.56097"
   fill="#ffffff"
   width="6.526"
   height="6.3959999"
   id="rect402" />
				</g>
				<g
   id="g404">
					<rect
   x="591.62701"
   y="738.56097"
   fill="#ffffff"
   width="6.526"
   height="6.3959999"
   id="rect403" />
				</g>
				<g
   id="g405">
					<rect
   x="591.62701"
   y="747.51398"
   fill="#ffffff"
   width="6.526"
   height="6.3839998"
   id="rect404" />
				</g>
				<g
   id="g406">
					<rect
   x="582.112"
   y="747.51398"
   fill="#ffffff"
   width="6.526"
   height="6.3839998"
   id="rect405" />
				</g>
				<g
   id="g407">
					<rect
   x="572.466"
   y="747.51398"
   fill="#ffffff"
   width="6.5139999"
   height="6.3839998"
   id="rect406" />
				</g>
				<g
   id="g408">
					<rect
   x="563.04303"
   y="747.51398"
   fill="#ffffff"
   width="6.526"
   height="6.3839998"
   id="rect407" />
				</g>
				<g
   id="g409">
					<rect
   x="553.54199"
   y="747.51398"
   fill="#ffffff"
   width="6.526"
   height="6.3839998"
   id="rect408" />
				</g>
				<g
   id="g410">
					<rect
   x="543.883"
   y="747.51398"
   fill="#ffffff"
   width="6.526"
   height="6.3839998"
   id="rect409" />
				</g>
				<g
   id="g411">
					<rect
   x="543.883"
   y="756.62402"
   fill="#ffffff"
   width="6.526"
   height="6.3839998"
   id="rect410" />
				</g>
				<g
   id="g412">
					<rect
   x="553.54199"
   y="756.62402"
   fill="#ffffff"
   width="6.526"
   height="6.3839998"
   id="rect411" />
				</g>
				<g
   id="g413">
					<rect
   x="563.04303"
   y="756.62402"
   fill="#ffffff"
   width="6.526"
   height="6.3839998"
   id="rect412" />
				</g>
				<g
   id="g414">
					<rect
   x="572.466"
   y="756.62402"
   fill="#ffffff"
   width="6.5139999"
   height="6.3839998"
   id="rect413" />
				</g>
				<g
   id="g415">
					<rect
   x="582.112"
   y="756.62402"
   fill="#ffffff"
   width="6.526"
   height="6.3839998"
   id="rect414" />
				</g>
				<g
   id="g416">
					<rect
   x="591.62701"
   y="756.62402"
   fill="#ffffff"
   width="6.526"
   height="6.3839998"
   id="rect415" />
				</g>
			</g>
		</g>
		<g
   id="g494">
			<g
   id="g419">
				<rect
   x="676.49799"
   y="697.76501"
   fill="#111111"
   width="1.735"
   height="20.646"
   id="rect418" />
			</g>
			<g
   id="g420">
				<rect
   x="695.995"
   y="697.76501"
   fill="#111111"
   width="1.737"
   height="20.646"
   id="rect419" />
			</g>
			<g
   id="g421">
				<rect
   x="693.18103"
   y="726.39899"
   fill="#111111"
   width="22.995001"
   height="1.7359999"
   id="rect420" />
			</g>
			<g
   id="g422">
				<polygon
   fill="#111111"
   points="686.466,715.765 686.466,705.329 681.267,705.329 681.267,697.765 683.003,697.765 683.003,703.592 688.204,703.592 688.204,715.765 "
   id="polygon421" />
			</g>
			<g
   id="g423">
				<polygon
   fill="#111111"
   points="698.175,718.167 698.175,716.43 708.612,716.43 708.612,711.229 716.175,711.229 716.175,712.966 710.349,712.966 710.349,718.167 "
   id="polygon422" />
			</g>
			<g
   id="g424">
				<polygon
   fill="#111111"
   points="699.329,764.028 699.329,760.781 696.262,760.781 696.262,753.697 697.999,753.697 697.999,759.045 701.065,759.045 701.065,764.028 "
   id="polygon423" />
			</g>
			<g
   id="g425">
				<polygon
   fill="#111111"
   points="666.86,710.551 666.86,702.947 671.827,702.947 671.827,697.765 673.563,697.765 673.563,704.685 668.596,704.685 668.596,710.551 "
   id="polygon424" />
			</g>
			<g
   id="g426">
				<polygon
   fill="#111111"
   points="652.826,747.552 652.826,742.585 646.96,742.585 646.96,740.849 654.564,740.849 654.564,745.814 665.241,745.814 665.241,747.552 "
   id="polygon425" />
			</g>
			<g
   id="g427">
				<polygon
   fill="#111111"
   points="646.96,732.97 646.96,731.233 652.826,731.233 652.826,726.268 665.241,726.268 665.241,728.004 654.564,728.004 654.564,732.97 "
   id="polygon426" />
			</g>
			<g
   id="g428">
				<path
   fill="#111111"
   d="m 714.44,742.002 v -4.429 c -1.341,0.007 -3.957,0.017 -6.101,0.017 -1.764,0 -2.854,-0.006 -3.24,-0.021 l -0.443,-0.018 0.063,-1.733 0.444,0.016 c 0.412,0.017 1.656,0.02 3.137,0.02 2.987,0 6.933,-0.02 7.002,-0.02 l 0.873,-0.004 v 6.173 h -1.735 z"
   id="path427" />
			</g>
			<g
   id="g429">
				<path
   fill="#111111"
   d="m 674.072,763.943 v -1.736 h 2.207 c -0.01,-2.404 -0.033,-8.292 0.005,-9.341 l 0.016,-0.444 1.737,0.066 -0.016,0.443 c -0.027,0.721 -0.027,4.347 -10e-4,9.95 l 0.006,1.062 z"
   id="path428" />
			</g>
			<g
   id="g430">
				<path
   fill="#111111"
   d="m 686.436,763.943 0.003,-0.871 c 0.001,-0.085 0.046,-8.908 0.001,-10.142 l -0.017,-0.444 1.735,-0.063 0.017,0.443 c 0.036,1.014 0.017,6.557 0.003,9.34 h 4.43 v 1.736 h -6.172 z"
   id="path429" />
			</g>
			<g
   id="g431">
				<rect
   x="701.41101"
   y="745.69501"
   fill="#111111"
   width="14.764"
   height="1.735"
   id="rect430" />
			</g>
			<g
   id="g432">
				<rect
   x="646.96002"
   y="716.45001"
   fill="#111111"
   width="19.437"
   height="1.7359999"
   id="rect431" />
			</g>
			<g
   id="g433">
				<rect
   x="646.96002"
   y="735.94598"
   fill="#111111"
   width="14.767"
   height="1.737"
   id="rect432" />
			</g>
			<g
   id="g434">
				<rect
   x="666.85999"
   y="749.17798"
   fill="#111111"
   width="1.737"
   height="14.766"
   id="rect433" />
			</g>
			<g
   id="g435">
				<polygon
   fill="#b7d1cd"
   points="670.469,711.278 670.469,709.53 664.768,709.53 664.768,711.278 661.578,711.278 661.578,714.467 659.829,714.467 659.829,720.168 661.578,720.168 661.578,724.216 659.829,724.216 659.829,729.917 661.578,729.917 661.578,733.965 659.829,733.965 659.829,739.666 661.578,739.666 661.578,743.713 659.829,743.713 659.829,749.414 661.578,749.414 661.578,752.604 664.768,752.604 664.768,754.351 670.469,754.351 670.469,752.604 674.515,752.604 674.515,754.351 680.216,754.351 680.216,752.604 684.264,752.604 684.264,754.351 689.965,754.351 689.965,752.604 694.012,752.604 694.012,754.351 699.713,754.351 699.713,752.604 702.903,752.604 702.903,749.414 704.651,749.414 704.651,743.713 702.903,743.713 702.903,739.666 704.651,739.666 704.651,733.965 702.903,733.965 702.903,729.917 704.651,729.917 704.651,724.216 702.903,724.216 702.903,720.168 704.651,720.168 704.651,714.467 702.903,714.467 702.903,711.278 699.713,711.278 699.713,709.53 694.012,709.53 694.012,711.278 689.965,711.278 689.965,709.53 684.264,709.53 684.264,711.278 680.216,711.278 680.216,709.53 674.515,709.53 674.515,711.278 "
   id="polygon434" />
			</g>
			<g
   id="g437">
				<g
   id="g436">
					<path
   fill="#111111"
   d="m 699.663,749.363 h -34.846 v -34.846 h 34.846 z m -32.846,-2 h 30.846 v -30.846 h -30.846 z"
   id="path435" />
				</g>
			</g>
			<g
   id="g493">
				<g
   id="g448">
					<g
   id="g439">
						<g
   id="g438">
							<rect
   x="669.19"
   y="718.74298"
   fill="#e6e6e6"
   width="4.0229998"
   height="4.0229998"
   id="rect437" />
						</g>
					</g>
					<g
   id="g441">
						<g
   id="g440">
							<rect
   x="674.71002"
   y="718.74298"
   fill="#e6e6e6"
   width="4.0229998"
   height="4.0229998"
   id="rect439" />
						</g>
					</g>
					<g
   id="g443">
						<g
   id="g442">
							<rect
   x="680.229"
   y="718.74298"
   fill="#e6e6e6"
   width="4.0209999"
   height="4.0229998"
   id="rect441" />
						</g>
					</g>
					<g
   id="g445">
						<g
   id="g444">
							<rect
   x="685.74799"
   y="718.74298"
   fill="#e6e6e6"
   width="4.0229998"
   height="4.0229998"
   id="rect443" />
						</g>
					</g>
					<g
   id="g447">
						<g
   id="g446">
							<rect
   x="691.26703"
   y="718.74298"
   fill="#e6e6e6"
   width="4.0229998"
   height="4.0229998"
   id="rect445" />
						</g>
					</g>
				</g>
				<g
   id="g459">
					<g
   id="g450">
						<g
   id="g449">
							<rect
   x="669.19"
   y="724.33698"
   fill="#e6e6e6"
   width="4.0229998"
   height="4.0219998"
   id="rect448" />
						</g>
					</g>
					<g
   id="g452">
						<g
   id="g451">
							<rect
   x="674.71002"
   y="724.33698"
   fill="#e6e6e6"
   width="4.0229998"
   height="4.0219998"
   id="rect450" />
						</g>
					</g>
					<g
   id="g454">
						<g
   id="g453">
							<rect
   x="680.229"
   y="724.33698"
   fill="#e6e6e6"
   width="4.0209999"
   height="4.0219998"
   id="rect452" />
						</g>
					</g>
					<g
   id="g456">
						<g
   id="g455">
							<rect
   x="685.74799"
   y="724.33698"
   fill="#e6e6e6"
   width="4.0229998"
   height="4.0219998"
   id="rect454" />
						</g>
					</g>
					<g
   id="g458">
						<g
   id="g457">
							<rect
   x="691.26703"
   y="724.33698"
   fill="#e6e6e6"
   width="4.0229998"
   height="4.0219998"
   id="rect456" />
						</g>
					</g>
				</g>
				<g
   id="g470">
					<g
   id="g461">
						<g
   id="g460">
							<rect
   x="669.19"
   y="729.92902"
   fill="#e6e6e6"
   width="4.0229998"
   height="4.0229998"
   id="rect459" />
						</g>
					</g>
					<g
   id="g463">
						<g
   id="g462">
							<rect
   x="674.71002"
   y="729.92902"
   fill="#e6e6e6"
   width="4.0229998"
   height="4.0229998"
   id="rect461" />
						</g>
					</g>
					<g
   id="g465">
						<g
   id="g464">
							<rect
   x="680.229"
   y="729.92902"
   fill="#e6e6e6"
   width="4.0209999"
   height="4.0229998"
   id="rect463" />
						</g>
					</g>
					<g
   id="g467">
						<g
   id="g466">
							<rect
   x="685.74799"
   y="729.92902"
   fill="#e6e6e6"
   width="4.0229998"
   height="4.0229998"
   id="rect465" />
						</g>
					</g>
					<g
   id="g469">
						<g
   id="g468">
							<rect
   x="691.26703"
   y="729.92902"
   fill="#e6e6e6"
   width="4.0229998"
   height="4.0229998"
   id="rect467" />
						</g>
					</g>
				</g>
				<g
   id="g481">
					<g
   id="g472">
						<g
   id="g471">
							<rect
   x="669.19"
   y="735.52197"
   fill="#e6e6e6"
   width="4.0229998"
   height="4.0219998"
   id="rect470" />
						</g>
					</g>
					<g
   id="g474">
						<g
   id="g473">
							<rect
   x="674.71002"
   y="735.52197"
   fill="#e6e6e6"
   width="4.0229998"
   height="4.0219998"
   id="rect472" />
						</g>
					</g>
					<g
   id="g476">
						<g
   id="g475">
							<rect
   x="680.229"
   y="735.52197"
   fill="#e6e6e6"
   width="4.0209999"
   height="4.0219998"
   id="rect474" />
						</g>
					</g>
					<g
   id="g478">
						<g
   id="g477">
							<rect
   x="685.74799"
   y="735.52197"
   fill="#e6e6e6"
   width="4.0229998"
   height="4.0219998"
   id="rect476" />
						</g>
					</g>
					<g
   id="g480">
						<g
   id="g479">
							<rect
   x="691.26703"
   y="735.52197"
   fill="#e6e6e6"
   width="4.0229998"
   height="4.0219998"
   id="rect478" />
						</g>
					</g>
				</g>
				<g
   id="g492">
					<g
   id="g483">
						<g
   id="g482">
							<rect
   x="669.19"
   y="741.11401"
   fill="#e6e6e6"
   width="4.0229998"
   height="4.0229998"
   id="rect481" />
						</g>
					</g>
					<g
   id="g485">
						<g
   id="g484">
							<rect
   x="674.71002"
   y="741.11401"
   fill="#e6e6e6"
   width="4.0229998"
   height="4.0229998"
   id="rect483" />
						</g>
					</g>
					<g
   id="g487">
						<g
   id="g486">
							<rect
   x="680.229"
   y="741.11401"
   fill="#e6e6e6"
   width="4.0209999"
   height="4.0229998"
   id="rect485" />
						</g>
					</g>
					<g
   id="g489">
						<g
   id="g488">
							<rect
   x="685.74799"
   y="741.11401"
   fill="#e6e6e6"
   width="4.0229998"
   height="4.0229998"
   id="rect487" />
						</g>
					</g>
					<g
   id="g491">
						<g
   id="g490">
							<rect
   x="691.26703"
   y="741.11401"
   fill="#e6e6e6"
   width="4.0229998"
   height="4.0229998"
   id="rect489" />
						</g>
					</g>
				</g>
			</g>
		</g>
		<g
   id="g495">
			<rect
   x="739.10901"
   y="771.15198"
   fill="#111111"
   width="14.201"
   height="2"
   id="rect494" />
		</g>
		<g
   id="g496">
			<path
   fill="#ea572e"
   d="m 311.157,554.263 c 2.128,0 4.102,0.629 5.731,1.754 1.105,-1.255 2.625,-2.147 4.35,-2.435 -0.072,-0.483 -0.109,-0.982 -0.109,-1.486 0,-5.578 4.522,-10.104 10.101,-10.104 5.578,0 10.102,4.52 10.102,10.098 0,0.825 -0.102,1.622 -0.287,2.386 0.747,-0.175 1.526,-0.213 2.328,-0.213 5.579,0 10.101,4.64 10.101,10.157 h -52.418 c -10e-4,-5.518 4.521,-10.157 10.101,-10.157 z"
   id="path495" />
		</g>
		<g
   id="g497">
			<path
   fill="#3dc7d2"
   d="m 53.199,735.234 c 1.534,0 2.956,0.454 4.131,1.266 0.797,-0.905 1.892,-1.549 3.135,-1.756 -0.052,-0.348 -0.078,-0.708 -0.078,-1.071 0,-4.021 3.26,-7.283 7.281,-7.283 4.021,0 7.282,3.258 7.282,7.278 0,0.596 -0.074,1.17 -0.208,1.721 0.539,-0.127 1.101,-0.153 1.679,-0.153 4.021,0 7.281,3.343 7.281,7.321 H 45.917 c 0,-3.979 3.26,-7.323 7.282,-7.323 z"
   id="path496" />
		</g>
		<g
   id="g498">
			<path
   fill="#3dc7d2"
   d="m 643.366,590.088 c 1.534,0 2.956,0.453 4.131,1.265 0.797,-0.905 1.891,-1.548 3.135,-1.756 -0.052,-0.348 -0.079,-0.708 -0.079,-1.071 0,-4.021 3.259,-7.283 7.281,-7.283 4.021,0 7.282,3.26 7.282,7.28 0,0.594 -0.074,1.168 -0.208,1.719 0.539,-0.125 1.101,-0.153 1.678,-0.153 4.022,0 7.281,3.344 7.281,7.322 h -37.784 c 0,-3.979 3.261,-7.323 7.283,-7.323 z"
   id="path497" />
		</g>
		<g
   id="g503">
			<g
   id="g500">
				<g
   id="g499">
					<path
   fill="#111111"
   d="m 233.326,623.097 c -0.541,0 -1.042,-0.215 -1.448,-0.621 l -3.701,-3.701 2.315,-2.315 c 0.411,-0.411 0.583,-0.968 0.536,-1.121 l -3.211,-3.197 c -0.391,0.008 -0.859,0.226 -1.138,0.505 l -2.315,2.315 -3.283,-3.283 c -0.929,-0.929 -1.182,-2.747 -0.06,-3.87 l 2.277,-2.276 -0.915,-0.915 c -0.476,-0.475 -0.758,-1.1 -0.796,-1.76 -0.041,-0.728 0.223,-1.416 0.744,-1.937 l 3.689,-3.688 c 0.989,-0.988 2.711,-0.945 3.702,0.046 l 0.915,0.914 2.681,-2.681 c 0.563,-0.563 1.439,-0.898 2.346,-0.898 0.742,0 1.387,0.236 1.816,0.665 l 3.285,3.283 -3.019,3.018 c -0.052,0.053 -0.082,0.091 -0.097,0.113 0.027,0.014 0.098,0.126 0.294,0.322 l 3.239,3.239 c 0.129,0.129 0.216,0.198 0.269,0.234 0.027,-0.021 0.062,-0.052 0.106,-0.096 l 3.02,-3.018 3.701,3.7 c 0.548,0.548 0.689,1.344 0.387,2.182 -0.258,0.717 -0.761,1.288 -1.038,1.564 l -2.681,2.681 1.332,1.332 c 0.482,0.482 0.752,1.112 0.76,1.774 0.008,0.686 -0.27,1.346 -0.783,1.858 l -3.689,3.688 c -0.503,0.503 -1.15,0.78 -1.822,0.78 v 0 c -0.672,0 -1.313,-0.271 -1.805,-0.763 l -1.332,-1.332 -2.277,2.277 c -0.639,0.643 -1.332,0.982 -2.004,0.982 z m -2.321,-4.323 2.32,2.322 c 0.051,0 0.27,-0.072 0.59,-0.394 l 3.691,-3.691 2.746,2.746 c 0.231,0.231 0.544,0.235 0.798,-0.018 l 3.689,-3.688 c 0.131,-0.131 0.199,-0.277 0.198,-0.422 -0.001,-0.136 -0.063,-0.271 -0.174,-0.383 l -2.746,-2.746 4.095,-4.096 c 0.447,-0.447 0.62,-0.879 0.609,-1 l -2.24,-2.208 -1.609,1.607 c -0.471,0.473 -0.98,0.713 -1.514,0.713 -0.745,0 -1.294,-0.454 -1.69,-0.851 l -3.24,-3.239 c -1.505,-1.507 -0.77,-2.691 -0.197,-3.264 l 1.604,-1.604 -1.87,-1.869 c -0.03,-0.024 -0.171,-0.079 -0.402,-0.079 -0.407,0 -0.777,0.157 -0.932,0.313 l -4.095,4.095 -2.329,-2.328 c -0.243,-0.243 -0.631,-0.288 -0.874,-0.045 l -3.688,3.688 c -0.118,0.117 -0.17,0.251 -0.162,0.409 0.009,0.163 0.089,0.335 0.213,0.458 l 2.329,2.33 -3.691,3.69 c -0.271,0.271 -0.157,0.824 0.06,1.042 l 1.868,1.869 0.901,-0.902 c 0.659,-0.657 1.632,-1.082 2.48,-1.082 0.594,0 1.108,0.2 1.486,0.578 l 3.239,3.239 c 1.031,1.033 0.511,2.832 -0.563,3.907 z"
   id="path498" />
				</g>
			</g>
			<g
   id="g502">
				<g
   id="g501">
					<path
   fill="#ea572e"
   d="m 221.497,616.387 -2.071,2.071 -3.471,-3.47 c -0.679,-0.679 -1.889,-1.468 -2.487,-0.871 l -3.152,3.152 2.499,2.5 c 0.679,0.678 0.46,0.879 -0.136,1.475 l -3.239,3.239 c -0.597,0.598 -1.095,1.113 -1.774,0.434 l -2.499,-2.498 -2.495,2.496 c -0.596,0.595 -0.07,2.068 0.609,2.748 l 3.47,3.47 -1.809,1.811 c -0.597,0.596 -1,1.717 -0.321,2.396 l 3.689,3.689 c 0.679,0.678 1.977,0.451 2.572,-0.146 l 1.81,-1.81 2.885,2.885 c 0.679,0.679 1.549,0.603 2.146,0.006 l 2.495,-2.494 -1.486,-1.486 c -0.678,-0.679 -1.175,-2.19 -0.579,-2.787 l 3.239,-3.238 c 0.596,-0.597 1.81,0.197 2.489,0.876 l 1.485,1.486 3.153,-3.152 c 0.596,-0.598 0.412,-1.206 -0.268,-1.885 l -2.885,-2.885 2.071,-2.071 c 0.597,-0.596 0.563,-1.632 -0.116,-2.312 l -3.689,-3.689 c -0.679,-0.679 -1.539,-0.536 -2.135,0.06 z"
   id="path500" />
				</g>
			</g>
		</g>
		<g
   id="g513">
			<g
   id="g504">
				<path
   fill="#111111"
   d="m 581.098,630.055 h -6.354 c -1.362,0 -2.471,-1.108 -2.471,-2.471 v -2.893 c -1.586,-0.436 -3.109,-1.059 -4.544,-1.858 l -2.039,2.038 c -0.932,0.934 -2.562,0.935 -3.495,-10e-4 l -4.491,-4.491 c -0.963,-0.963 -0.963,-2.529 0,-3.493 l 2.045,-2.046 c -0.813,-1.429 -1.45,-2.946 -1.899,-4.528 h -2.882 c -1.362,0 -2.471,-1.108 -2.471,-2.471 v -6.353 c 0,-1.362 1.108,-2.471 2.471,-2.471 h 2.893 c 0.436,-1.587 1.059,-3.109 1.858,-4.545 l -2.038,-2.038 c -0.963,-0.963 -0.963,-2.531 0,-3.494 l 4.493,-4.492 c 0.466,-0.467 1.087,-0.724 1.747,-0.724 v 0 c 0.66,0 1.28,0.257 1.747,0.724 l 2.045,2.045 c 1.43,-0.813 2.948,-1.45 4.529,-1.899 v -2.883 c 0,-1.362 1.108,-2.471 2.469,-2.471 h 6.354 c 1.362,0 2.47,1.108 2.47,2.471 v 2.893 c 1.586,0.437 3.11,1.059 4.545,1.858 l 2.039,-2.038 c 0.932,-0.935 2.558,-0.934 3.493,-10e-4 l 4.493,4.494 c 0.467,0.467 0.724,1.087 0.724,1.746 0,0.66 -0.257,1.28 -0.724,1.747 l -2.045,2.046 c 0.814,1.43 1.451,2.947 1.9,4.527 h 2.882 c 1.361,0 2.469,1.108 2.469,2.471 v 6.354 c 0,1.361 -1.108,2.47 -2.469,2.47 h -2.893 c -0.436,1.587 -1.059,3.11 -1.859,4.546 l 2.038,2.038 c 0.467,0.467 0.724,1.087 0.724,1.747 0,0.66 -0.257,1.28 -0.724,1.747 l -4.491,4.492 c -0.933,0.934 -2.562,0.935 -3.494,-10e-4 l -2.045,-2.044 c -1.431,0.813 -2.949,1.449 -4.529,1.899 v 2.882 c -0.002,1.362 -1.11,2.471 -2.471,2.471 z m -13.683,-9.737 0.671,0.408 c 1.678,1.021 3.5,1.767 5.415,2.214 l 0.772,0.181 v 4.463 c 0,0.26 0.211,0.471 0.471,0.471 h 6.354 c 0.259,0 0.469,-0.211 0.469,-0.471 v -4.438 l 0.764,-0.186 c 1.907,-0.464 3.722,-1.226 5.395,-2.264 l 0.674,-0.418 3.156,3.155 c 0.12,0.12 0.259,0.138 0.332,0.138 0.073,0 0.213,-0.018 0.333,-0.138 l 4.492,-4.493 c 0.12,-0.12 0.138,-0.26 0.138,-0.332 0,-0.073 -0.018,-0.213 -0.138,-0.333 l -3.139,-3.139 0.409,-0.672 c 1.021,-1.677 1.766,-3.498 2.214,-5.415 l 0.18,-0.772 h 4.464 c 0.259,0 0.469,-0.211 0.469,-0.47 v -6.354 c 0,-0.26 -0.21,-0.471 -0.469,-0.471 h -4.439 l -0.186,-0.764 c -0.464,-1.907 -1.226,-3.722 -2.265,-5.393 l -0.419,-0.674 3.157,-3.157 c 0.12,-0.12 0.138,-0.26 0.138,-0.333 0,-0.072 -0.018,-0.212 -0.138,-0.332 l -4.492,-4.493 c -0.12,-0.12 -0.261,-0.138 -0.333,-0.138 -0.072,0 -0.212,0.018 -0.333,0.138 l -3.139,3.139 -0.671,-0.408 c -1.678,-1.021 -3.5,-1.766 -5.416,-2.214 l -0.772,-0.181 v -4.463 c 0,-0.26 -0.211,-0.471 -0.47,-0.471 h -6.354 c -0.259,0 -0.469,0.211 -0.469,0.471 v 4.439 l -0.764,0.186 c -1.908,0.464 -3.723,1.225 -5.394,2.264 l -0.646,0.401 -0.56,-0.516 -2.625,-2.623 c -0.12,-0.12 -0.26,-0.138 -0.333,-0.138 -0.073,0 -0.212,0.018 -0.333,0.138 l -4.493,4.492 c -0.12,0.12 -0.138,0.26 -0.138,0.333 0,0.073 0.018,0.213 0.138,0.333 l 3.138,3.139 -0.408,0.671 c -1.021,1.677 -1.765,3.498 -2.213,5.415 l -0.181,0.772 h -4.463 c -0.26,0 -0.471,0.211 -0.471,0.471 v 6.353 c 0,0.26 0.211,0.471 0.471,0.471 h 4.438 l 0.186,0.764 c 0.465,1.91 1.227,3.725 2.264,5.395 l 0.418,0.674 -3.156,3.155 c -0.183,0.184 -0.184,0.482 0,0.666 l 4.492,4.492 c 0.121,0.12 0.26,0.139 0.333,0.139 0.073,0 0.212,-0.019 0.333,-0.138 z"
   id="path503" />
			</g>
			<g
   id="g506">
				<g
   id="g505">
					<path
   fill-rule="evenodd"
   clip-rule="evenodd"
   fill="#e6e6e6"
   d="m 577.905,620.954 c 9.004,0 16.305,-7.302 16.305,-16.307 0,-9.006 -7.301,-16.307 -16.305,-16.307 -9.007,0 -16.308,7.301 -16.308,16.307 0,9.006 7.3,16.307 16.308,16.307 z"
   id="path504" />
				</g>
			</g>
			<g
   id="g508">
				<g
   id="g507">
					<path
   fill="#111111"
   d="m 577.342,617.983 c -1.093,-0.046 -2.174,-0.225 -3.215,-0.532 l 0.567,-1.918 c 0.883,0.261 1.802,0.413 2.731,0.452 z m 4.302,-0.517 -0.558,-1.92 c 0.888,-0.258 1.744,-0.626 2.543,-1.094 l 1.01,1.727 c -0.942,0.55 -1.95,0.984 -2.995,1.287 z m -11.419,-1.904 c -0.888,-0.625 -1.7,-1.361 -2.414,-2.187 l 1.513,-1.309 c 0.607,0.702 1.298,1.328 2.053,1.86 z m 17.753,-2.147 -1.508,-1.314 c 0.61,-0.699 1.132,-1.471 1.552,-2.293 l 1.781,0.91 c -0.493,0.967 -1.108,1.875 -1.825,2.697 z m -22.435,-3.736 c -0.411,-1.009 -0.696,-2.068 -0.849,-3.148 l 1.98,-0.279 c 0.129,0.917 0.372,1.816 0.721,2.674 z m 25.578,-3.093 -1.979,-0.289 c 0.079,-0.541 0.119,-1.096 0.119,-1.649 0,-0.378 -0.019,-0.752 -0.055,-1.121 l 1.99,-0.195 c 0.043,0.434 0.064,0.872 0.064,1.316 10e-4,0.649 -0.046,1.301 -0.139,1.938 z m -24.368,-4.023 -1.967,-0.365 c 0.199,-1.071 0.53,-2.116 0.984,-3.107 l 1.818,0.834 c -0.385,0.841 -0.666,1.728 -0.835,2.638 z m 21.501,-2.596 c -0.382,-0.843 -0.868,-1.638 -1.444,-2.363 l 1.566,-1.244 c 0.678,0.854 1.249,1.79 1.699,2.781 z m -18.606,-3.099 -1.455,-1.373 c 0.749,-0.793 1.591,-1.493 2.504,-2.081 l 1.082,1.682 c -0.776,0.5 -1.493,1.096 -2.131,1.772 z m 14.434,-1.747 c -0.777,-0.505 -1.615,-0.912 -2.489,-1.212 l 0.648,-1.893 c 1.029,0.354 2.015,0.833 2.93,1.427 z m -8.92,-1.486 -0.483,-1.941 c 1.053,-0.262 2.141,-0.395 3.233,-0.395 l 0.05,2 h -0.05 c -0.93,0 -1.855,0.113 -2.75,0.336 z"
   id="path506" />
				</g>
			</g>
			<g
   id="g512">
				<g
   id="g509">
					<path
   fill="#111111"
   d="m 578.966,611.624 h -1.508 c -1.812,0 -3.285,-1.474 -3.285,-3.285 v -0.703 h 2 v 0.703 c 0,0.709 0.577,1.285 1.285,1.285 h 1.508 c 0.652,0 1.183,-0.531 1.183,-1.184 V 607 c 0,-0.746 -0.606,-1.353 -1.352,-1.353 H 576.8 c -1.733,0 -3.143,-1.409 -3.143,-3.142 v -0.703 c 0,-2.077 1.69,-3.767 3.767,-3.767 h 0.965 c 1.781,0 3.23,1.449 3.23,3.231 v 1.139 h -2 v -1.139 c 0,-0.679 -0.552,-1.231 -1.23,-1.231 h -0.965 c -0.975,0 -1.767,0.793 -1.767,1.767 v 0.703 c 0,0.63 0.513,1.142 1.143,1.142 h 1.998 c 1.848,0 3.352,1.504 3.352,3.353 v 1.44 c -10e-4,1.756 -1.428,3.184 -3.184,3.184 z"
   id="path508" />
				</g>
				<g
   id="g510">
					<rect
   x="576.90302"
   y="610.62402"
   fill="#111111"
   width="2"
   height="2.9879999"
   id="rect509" />
				</g>
				<g
   id="g511">
					<rect
   x="576.90302"
   y="595.68298"
   fill="#111111"
   width="2"
   height="3.3540001"
   id="rect510" />
				</g>
			</g>
		</g>
		<g
   id="g517">
			<g
   id="g514">
				<path
   fill="#ea572e"
   d="m 723.355,628.864 h -3.111 c -0.422,-1.737 -1.114,-3.366 -2.032,-4.843 l 0.011,-0.01 2.2,-2.2 c 0.489,-0.488 0.489,-1.282 0,-1.771 l -3.826,-3.826 c -0.489,-0.488 -1.282,-0.488 -1.771,0 l -2.199,2.199 c -1.526,-0.928 -3.169,-1.591 -4.861,-1.986 v -0.014 -3.112 c 0,-0.691 -0.56,-1.252 -1.251,-1.252 h -5.412 c -0.691,0 -1.251,0.561 -1.251,1.252 v 3.111 c -1.737,0.423 -3.366,1.115 -4.842,2.032 l -0.011,-0.01 -2.199,-2.199 c -0.489,-0.49 -1.282,-0.49 -1.771,0 l -3.826,3.824 c -0.489,0.49 -0.489,1.282 0,1.771 l 2.2,2.2 c -0.929,1.526 -1.591,3.168 -1.986,4.86 h -0.015 -3.111 c -0.691,0 -1.251,0.561 -1.251,1.252 v 5.411 c 0,0.691 0.56,1.253 1.251,1.253 h 3.111 c 0.422,1.735 1.116,3.365 2.032,4.842 l -0.009,0.01 -2.201,2.2 c -0.489,0.489 -0.489,1.281 0,1.771 l 3.826,3.826 c 0.49,0.489 1.282,0.489 1.771,0 l 2.2,-2.199 c 1.527,0.928 3.169,1.59 4.861,1.986 v 0.014 3.111 c 0,0.691 0.562,1.253 1.253,1.253 h 5.411 c 0.691,0 1.252,-0.562 1.252,-1.253 v -3.109 c 1.736,-0.424 3.366,-1.116 4.841,-2.033 l 0.01,0.01 2.201,2.2 c 0.488,0.488 1.281,0.489 1.771,0 l 3.825,-3.826 c 0.49,-0.489 0.49,-1.281 0,-1.771 l -2.2,-2.2 c 0.929,-1.525 1.591,-3.169 1.987,-4.86 h 0.014 3.111 c 0.691,0 1.251,-0.561 1.251,-1.252 v -5.412 c -0.002,-0.69 -0.562,-1.25 -1.254,-1.25 z"
   id="path513" />
			</g>
			<g
   id="g516">
				<g
   id="g515">
					<path
   fill="#111111"
   d="m 703.232,644.337 c -1.154,-0.059 -2.285,-0.289 -3.363,-0.685 l 0.688,-1.877 c 0.889,0.325 1.823,0.516 2.776,0.563 z m 4.512,-0.668 -0.68,-1.881 c 0.892,-0.322 1.73,-0.777 2.492,-1.352 l 1.204,1.596 c -0.921,0.696 -1.935,1.246 -3.016,1.637 z m -11.763,-2.403 c -0.842,-0.786 -1.561,-1.688 -2.135,-2.684 l 1.732,-1 c 0.475,0.823 1.069,1.57 1.767,2.221 z m 17.807,-2.645 -1.729,-1.006 c 0.479,-0.822 0.829,-1.709 1.042,-2.635 l 1.949,0.449 c -0.258,1.122 -0.682,2.196 -1.262,3.192 z m -21.39,-4.367 c -0.057,-0.467 -0.086,-0.944 -0.086,-1.418 0,-0.675 0.059,-1.351 0.175,-2.01 l 1.97,0.346 c -0.096,0.546 -0.145,1.105 -0.145,1.664 0,0.393 0.024,0.787 0.072,1.174 z m 20.809,-3.043 c -0.161,-0.937 -0.462,-1.842 -0.894,-2.689 l 1.782,-0.908 c 0.523,1.027 0.887,2.124 1.082,3.258 z m -17.371,-3.543 -1.679,-1.088 c 0.625,-0.964 1.389,-1.829 2.271,-2.569 l 1.286,1.531 c -0.729,0.613 -1.361,1.328 -1.878,2.126 z m 14.135,-2.101 c -0.729,-0.617 -1.54,-1.118 -2.412,-1.489 l 0.783,-1.84 c 1.057,0.449 2.039,1.056 2.92,1.802 z m -8.946,-1.828 -0.589,-1.912 c 1.094,-0.337 2.235,-0.508 3.393,-0.508 l 0.043,2 h -0.043 c -0.957,0 -1.901,0.142 -2.804,0.42 z"
   id="path514" />
				</g>
			</g>
		</g>
		<g
   id="g518">
			<rect
   x="54.43"
   y="771.15198"
   fill="#111111"
   width="10.379"
   height="2"
   id="rect517" />
		</g>
		<g
   id="g519">
			<rect
   x="156.283"
   y="669.13702"
   fill="#111111"
   width="22.799999"
   height="2"
   id="rect518" />
		</g>
		<g
   id="g520">
			<rect
   x="708.151"
   y="660.81403"
   fill="#111111"
   width="22.799999"
   height="2"
   id="rect519" />
		</g>
		<g
   id="g521">
			<rect
   x="222.315"
   y="558.15198"
   fill="#111111"
   width="22.799999"
   height="2"
   id="rect520" />
		</g>
		<g
   id="g522">
			<rect
   x="604.94"
   y="578.03601"
   fill="#111111"
   width="22.799999"
   height="2"
   id="rect521" />
		</g>
		<g
   id="g523">
			<rect
   x="646.20599"
   y="642.836"
   fill="#111111"
   width="22.799999"
   height="2"
   id="rect522" />
		</g>
		<g
   id="g524">
			<rect
   x="186.89999"
   y="658.92603"
   fill="#111111"
   width="22.799999"
   height="2"
   id="rect523" />
		</g>
		<g
   id="g583">
			<g
   id="XMLID_41_">
				<g
   id="g526">
					<g
   id="g525">
						<rect
   x="368.146"
   y="733.43402"
   fill-rule="evenodd"
   clip-rule="evenodd"
   fill="#e6e6e6"
   width="67.084"
   height="32.763"
   id="rect524" />
					</g>
				</g>
			</g>
			<g
   id="g528">
				<g
   id="g527">
					<rect
   x="321.42499"
   y="761.19702"
   fill="#e6e6e6"
   width="160.304"
   height="10"
   id="rect526" />
				</g>
			</g>
			<g
   id="XMLID_39_">
				<g
   id="g530">
					<g
   id="g529">
						<path
   fill-rule="evenodd"
   clip-rule="evenodd"
   fill="#e6e6e6"
   d="m 279.89,575.944 h 243.596 c 6.855,0 12.464,5.608 12.464,12.464 V 720.97 c 0,6.854 -5.608,12.464 -12.464,12.464 H 279.89 c -6.855,0 -12.463,-5.609 -12.463,-12.464 V 588.408 c 0,-6.855 5.608,-12.464 12.463,-12.464 z"
   id="path528" />
					</g>
				</g>
			</g>
			<g
   id="g531">
				<rect
   x="389.177"
   y="718.836"
   fill="#111111"
   width="25.021"
   height="2"
   id="rect530" />
			</g>
			<g
   id="XMLID_1_">
				<g
   id="g533">
					<g
   id="g532">
						<path
   fill="#111111"
   d="m 523.485,734.434 h -94.731 v -2 h 94.731 c 6.321,0 11.464,-5.143 11.464,-11.464 V 588.408 c 0,-6.321 -5.143,-11.464 -11.464,-11.464 H 279.89 c -6.321,0 -11.463,5.143 -11.463,11.464 V 720.97 c 0,6.321 5.142,11.464 11.463,11.464 h 106.92 v 2 H 279.89 c -7.423,0 -13.463,-6.04 -13.463,-13.464 V 588.408 c 0,-7.424 6.04,-13.464 13.463,-13.464 h 243.596 c 7.424,0 13.464,6.04 13.464,13.464 V 720.97 c -0.001,7.424 -6.041,13.464 -13.465,13.464 z"
   id="path531" />
					</g>
				</g>
				<g
   id="g534">
					<rect
   x="403.10901"
   y="732.43402"
   fill="#111111"
   width="17.700001"
   height="2"
   id="rect533" />
				</g>
			</g>
			<g
   id="g535">
				<rect
   x="277.47"
   y="586.53601"
   fill-rule="evenodd"
   clip-rule="evenodd"
   fill="#6bc8d8"
   width="248.436"
   height="121.32"
   id="rect534" />
			</g>
			<g
   id="XMLID_43_">
				<g
   id="XMLID_48_">
					<path
   fill="#ea572e"
   d="m 499.477,608.082 9.443,3.074 c -1.354,4.176 -5.057,6.87 -9.443,6.87 z"
   id="path535" />
				</g>
				<g
   id="XMLID_47_">
					<path
   fill="#ffffff"
   d="m 499.477,608.082 -9.445,-3.071 c 1.694,-5.221 7.297,-8.08 12.513,-6.382 5.216,1.695 8.072,7.305 6.375,12.527 v 0 z"
   id="path536" />
				</g>
				<g
   id="XMLID_46_">
					<path
   fill="#2e8d9a"
   d="m 499.477,608.082 -5.838,8.045 c -3.55,-2.582 -4.962,-6.938 -3.607,-11.116 z"
   id="path537" />
				</g>
				<g
   id="XMLID_45_">
					<path
   fill="#f3a52d"
   d="m 499.477,608.082 v 9.944 c -2.194,0 -4.062,-0.609 -5.838,-1.899 z"
   id="path538" />
				</g>
			</g>
			<g
   id="XMLID_5_">
				<g
   id="XMLID_67_">
					<path
   fill="#ea572e"
   d="m 499.475,634.671 4.503,8.851 c -3.912,1.996 -8.433,1.282 -11.535,-1.818 z"
   id="path539" />
				</g>
				<g
   id="XMLID_66_">
					<path
   fill="#ffffff"
   d="m 499.475,634.671 -4.507,-8.851 c 4.889,-2.494 10.874,-0.553 13.36,4.335 2.489,4.888 0.542,10.874 -4.35,13.366 v 0 z"
   id="path540" />
				</g>
				<g
   id="XMLID_40_">
					<path
   fill="#2e8d9a"
   d="m 499.475,634.671 -9.817,1.56 c -0.684,-4.335 1.398,-8.414 5.31,-10.41 z"
   id="path541" />
				</g>
				<g
   id="XMLID_6_">
					<path
   fill="#f3a52d"
   d="m 499.475,634.671 -7.031,7.032 c -1.552,-1.552 -2.442,-3.304 -2.786,-5.473 z"
   id="path542" />
				</g>
			</g>
			<g
   id="XMLID_68_">
				<g
   id="XMLID_72_">
					<path
   fill="#ea572e"
   d="m 499.466,661.236 3.074,-9.443 c 4.177,1.354 6.871,5.057 6.871,9.443 z"
   id="path543" />
				</g>
				<g
   id="XMLID_71_">
					<path
   fill="#ffffff"
   d="m 499.466,661.236 -3.071,9.445 c -5.221,-1.695 -8.08,-7.298 -6.382,-12.514 1.696,-5.216 7.306,-8.072 12.527,-6.375 v 0 z"
   id="path544" />
				</g>
				<g
   id="XMLID_70_">
					<path
   fill="#2e8d9a"
   d="m 499.466,661.236 8.045,5.838 c -2.582,3.55 -6.938,4.962 -11.116,3.607 z"
   id="path545" />
				</g>
				<g
   id="XMLID_69_">
					<path
   fill="#f3a52d"
   d="m 499.466,661.236 h 9.945 c 0,2.193 -0.609,4.062 -1.9,5.838 z"
   id="path546" />
				</g>
			</g>
			<g
   id="XMLID_36_">
				<g
   id="XMLID_57_">
					<g
   id="XMLID_58_">
						<polygon
   fill="#f3a52d"
   points="361.013,657.382 383.974,646.31 394.565,651.394 394.565,696.647 291.636,696.647 291.636,644.517 303.034,651.788 314.925,646.196 326.324,651.846 337.723,651.846 349.286,646.31 "
   id="polygon546" />
					</g>
				</g>
				<g
   id="XMLID_55_">
					<g
   id="XMLID_56_">
						<polygon
   fill="#2e8d9a"
   points="372.412,657.382 384.138,663.09 394.565,658.078 394.565,696.647 291.636,696.647 291.636,657.61 302.87,663.305 314.761,651.788 328.43,664.655 350.287,657.61 360.849,669.653 "
   id="polygon547" />
					</g>
				</g>
				<g
   id="XMLID_44_">
					<g
   id="XMLID_52_">
						<polygon
   fill="#ea572e"
   points="369.248,686.174 383.974,674.275 394.565,679.428 394.565,696.647 291.636,696.647 291.636,673.186 303.034,676.96 314.597,668.797 325.996,679.983 337.723,674.391 344.506,683.991 "
   id="polygon548" />
					</g>
				</g>
			</g>
			<g
   id="g561">
				<g
   id="g560">
					<g
   id="g551">
						<g
   id="g550">
							<g
   id="g549">
								<g
   id="g548">
									<path
   fill="#111111"
   d="m 442.876,666.019 c -19.021,0 -34.495,-15.474 -34.495,-34.494 0,-18.089 14.142,-33.191 32.195,-34.384 l 1.066,-0.07 v 35.684 h 35.684 l -0.07,1.066 c -1.195,18.054 -16.297,32.198 -34.38,32.198 z m -3.233,-66.794 c -16.493,1.634 -29.261,15.619 -29.261,32.3 0,17.917 14.577,32.494 32.495,32.494 16.675,0 30.66,-12.77 32.296,-29.265 h -35.53 z"
   id="path548" />
								</g>
							</g>
						</g>
					</g>
					<g
   id="g555">
						<g
   id="g554">
							<g
   id="g553">
								<g
   id="g552">
									<path
   fill="#ffffff"
   d="m 445.111,627.987 v -27.651 c 10.703,0.763 19.927,6.937 24.958,15.791 z"
   id="path551" />
								</g>
							</g>
						</g>
					</g>
					<g
   id="g559">
						<g
   id="g558">
							<g
   id="g557">
								<g
   id="g556">
									<path
   fill="#ea572e"
   d="m 474.06,629.287 h -21.28 l 19.23,-9.134 c 1.147,2.925 1.831,5.986 2.05,9.134 z"
   id="path555" />
								</g>
							</g>
						</g>
					</g>
				</g>
			</g>
			<g
   id="g569">
				<g
   id="g562">
					<rect
   x="321.98599"
   y="597.13898"
   fill="#111111"
   width="5.4660001"
   height="2"
   id="rect561" />
				</g>
				<g
   id="g563">
					<rect
   x="306.811"
   y="597.13898"
   fill="#111111"
   width="5.4660001"
   height="2"
   id="rect562" />
				</g>
				<g
   id="g564">
					<rect
   x="291.63599"
   y="597.13898"
   fill="#111111"
   width="5.4650002"
   height="2"
   id="rect563" />
				</g>
				<g
   id="g565">
					<rect
   x="291.63699"
   y="605.14301"
   fill="#111111"
   width="84.982002"
   height="2"
   id="rect564" />
				</g>
				<g
   id="g566">
					<rect
   x="291.63699"
   y="613.04797"
   fill="#111111"
   width="84.982002"
   height="2"
   id="rect565" />
				</g>
				<g
   id="g567">
					<rect
   x="291.63699"
   y="620.953"
   fill="#111111"
   width="38.799999"
   height="2"
   id="rect566" />
				</g>
				<g
   id="g568">
					<rect
   x="291.63699"
   y="628.79303"
   fill="#111111"
   width="84.982002"
   height="2"
   id="rect567" />
				</g>
			</g>
			<g
   id="g576">
				<g
   id="g570">
					<rect
   x="445.68799"
   y="671.83301"
   fill="#111111"
   width="6.375"
   height="2"
   id="rect569" />
				</g>
				<g
   id="g571">
					<rect
   x="427.98801"
   y="671.83301"
   fill="#111111"
   width="6.3759999"
   height="2"
   id="rect570" />
				</g>
				<g
   id="g572">
					<rect
   x="410.289"
   y="671.83301"
   fill="#111111"
   width="6.375"
   height="2"
   id="rect571" />
				</g>
				<g
   id="g573">
					<rect
   x="410.29001"
   y="679.83698"
   fill="#111111"
   width="99.120003"
   height="2"
   id="rect572" />
				</g>
				<g
   id="g574">
					<rect
   x="410.29001"
   y="687.742"
   fill="#111111"
   width="99.120003"
   height="2"
   id="rect573" />
				</g>
				<g
   id="g575">
					<rect
   x="410.29001"
   y="695.64697"
   fill="#111111"
   width="45.256001"
   height="2"
   id="rect574" />
				</g>
			</g>
			<g
   id="g580">
				<g
   id="g577">
					
						<rect
   x="345.76999"
   y="748.81299"
   transform="matrix(0.7071,0.7071,-0.7071,0.7071,632.6953,-27.8364)"
   fill="#111111"
   width="8.3579998"
   height="2"
   id="rect576" />
				</g>
				<g
   id="g579">
					<g
   id="g578">
						<polygon
   fill="#111111"
   points="342.935,742.799 350.64,744.862 344.999,750.504 "
   id="polygon577" />
					</g>
				</g>
			</g>
			<g
   id="g581">
				<rect
   x="321.42401"
   y="759.23602"
   fill="#111111"
   width="82.795998"
   height="2"
   id="rect580" />
			</g>
			<g
   id="g582">
				<rect
   x="428.754"
   y="759.23602"
   fill="#111111"
   width="12.725"
   height="2"
   id="rect581" />
			</g>
		</g>
		<g
   id="g588">
			<g
   id="g584">
				<rect
   x="148.465"
   y="622.75"
   fill="#111111"
   width="2"
   height="23.841"
   id="rect583" />
			</g>
			<g
   id="g585">
				<rect
   x="139.877"
   y="628.04901"
   fill="#111111"
   width="2"
   height="18.542"
   id="rect584" />
			</g>
			<g
   id="g586">
				<rect
   x="131.28999"
   y="633.21802"
   fill="#111111"
   width="2"
   height="13.373"
   id="rect585" />
			</g>
			<g
   id="g587">
				<rect
   x="122.702"
   y="638.24597"
   fill="#111111"
   width="2"
   height="8.3450003"
   id="rect586" />
			</g>
		</g>
		<g
   id="g593">
			<g
   id="g589">
				<rect
   x="719.01599"
   y="670.92499"
   fill="#111111"
   width="2"
   height="18.302999"
   id="rect588" />
			</g>
			<g
   id="g590">
				<rect
   x="712.42297"
   y="674.992"
   fill="#111111"
   width="2"
   height="14.235"
   id="rect589" />
			</g>
			<g
   id="g591">
				<rect
   x="705.83002"
   y="678.961"
   fill="#111111"
   width="2"
   height="10.267"
   id="rect590" />
			</g>
			<g
   id="g592">
				<rect
   x="699.23798"
   y="682.82202"
   fill="#111111"
   width="2"
   height="6.4050002"
   id="rect591" />
			</g>
		</g>
		<g
   id="g597">
			<g
   id="g594">
				<rect
   x="74.898003"
   y="669.13702"
   fill="#111111"
   width="22.799999"
   height="2"
   id="rect593" />
			</g>
			<g
   id="g595">
				<rect
   x="102.098"
   y="669.13702"
   fill="#111111"
   width="10.2"
   height="2"
   id="rect594" />
			</g>
			<g
   id="g596">
				<path
   fill="#111111"
   d="m 121.786,675.048 c -2.708,0 -4.912,-2.203 -4.912,-4.911 0,-2.709 2.203,-4.912 4.912,-4.912 2.709,0 4.912,2.203 4.912,4.912 -10e-4,2.708 -2.204,4.911 -4.912,4.911 z m 0,-7.823 c -1.605,0 -2.912,1.307 -2.912,2.912 0,1.605 1.306,2.911 2.912,2.911 1.606,0 2.912,-1.306 2.912,-2.911 0,-1.605 -1.307,-2.912 -2.912,-2.912 z"
   id="path595" />
			</g>
		</g>
		<g
   id="g601">
			<g
   id="g598">
				<rect
   x="168.737"
   y="580.242"
   fill="#111111"
   width="22.799999"
   height="2"
   id="rect597" />
			</g>
			<g
   id="g599">
				<rect
   x="195.937"
   y="580.242"
   fill="#111111"
   width="10.2"
   height="2"
   id="rect598" />
			</g>
			<g
   id="g600">
				<path
   fill="#111111"
   d="m 215.625,586.154 c -2.708,0 -4.912,-2.203 -4.912,-4.912 0,-2.708 2.204,-4.911 4.912,-4.911 2.708,0 4.912,2.203 4.912,4.911 0,2.709 -2.203,4.912 -4.912,4.912 z m 0,-7.823 c -1.606,0 -2.912,1.306 -2.912,2.911 0,1.605 1.306,2.912 2.912,2.912 1.605,0 2.912,-1.307 2.912,-2.912 0,-1.605 -1.306,-2.911 -2.912,-2.911 z"
   id="path599" />
			</g>
		</g>
		<g
   id="g605">
			<g
   id="g602">
				<rect
   x="404.22"
   y="554.60498"
   fill="#111111"
   width="22.799999"
   height="2"
   id="rect601" />
			</g>
			<g
   id="g603">
				<rect
   x="431.42001"
   y="554.60498"
   fill="#111111"
   width="10.2"
   height="2"
   id="rect602" />
			</g>
			<g
   id="g604">
				<path
   fill="#111111"
   d="m 451.109,560.518 c -2.709,0 -4.913,-2.203 -4.913,-4.912 0,-2.709 2.204,-4.912 4.913,-4.912 2.708,0 4.912,2.203 4.912,4.912 0,2.709 -2.204,4.912 -4.912,4.912 z m 0,-7.825 c -1.606,0 -2.913,1.307 -2.913,2.912 0,1.605 1.307,2.912 2.913,2.912 1.605,0 2.912,-1.307 2.912,-2.912 0,-1.605 -1.307,-2.912 -2.912,-2.912 z"
   id="path603" />
			</g>
		</g>
		<g
   id="g609">
			<g
   id="g606">
				<rect
   x="616.29901"
   y="619.95398"
   fill="#111111"
   width="22.799999"
   height="2"
   id="rect605" />
			</g>
			<g
   id="g607">
				<rect
   x="643.49902"
   y="619.95398"
   fill="#111111"
   width="10.2"
   height="2"
   id="rect606" />
			</g>
			<g
   id="g608">
				<path
   fill="#111111"
   d="m 663.187,625.865 c -2.708,0 -4.912,-2.203 -4.912,-4.911 0,-2.709 2.203,-4.912 4.912,-4.912 2.709,0 4.912,2.203 4.912,4.912 0,2.708 -2.204,4.911 -4.912,4.911 z m 0,-7.823 c -1.605,0 -2.912,1.307 -2.912,2.912 0,1.605 1.306,2.911 2.912,2.911 1.606,0 2.912,-1.306 2.912,-2.911 0,-1.605 -1.307,-2.912 -2.912,-2.912 z"
   id="path607" />
			</g>
		</g>
		<g
   id="g610">
			<path
   fill="#111111"
   d="m 266.001,564.065 c -2.708,0 -4.912,-2.204 -4.912,-4.913 0,-2.708 2.204,-4.911 4.912,-4.911 2.708,0 4.912,2.203 4.912,4.911 10e-4,2.709 -2.203,4.913 -4.912,4.913 z m 0,-7.824 c -1.606,0 -2.912,1.306 -2.912,2.911 0,1.606 1.306,2.913 2.912,2.913 1.606,0 2.912,-1.307 2.912,-2.913 10e-4,-1.605 -1.306,-2.911 -2.912,-2.911 z"
   id="path609" />
		</g>
		<g
   id="g611">
			<polygon
   fill="#111111"
   points="172.693,613.265 165.178,605.802 158.426,613.266 151.094,605.82 144.183,613.047 137.027,606.383 130.569,612.376 129.209,610.909 137.029,603.652 144.102,610.238 151.073,602.949 158.364,610.354 165.101,602.907 172.602,610.354 179.126,603.004 187.581,610.849 186.22,612.315 179.265,605.861 "
   id="polygon610" />
		</g>
		<g
   id="g612">
			<path
   fill="#111111"
   d="m 541.27,565.425 -1.414,-1.414 4.2,-4.198 c 0.835,-0.836 1.946,-1.297 3.128,-1.297 10e-4,0 0.002,0 0.003,0 1.183,0.001 2.295,0.463 3.13,1.301 l 1.613,1.618 c 0.477,0.479 1.102,0.744 1.788,0.712 0.674,-0.02 1.292,-0.309 1.74,-0.813 l 1.502,-1.693 c 0.832,-0.937 2.027,-1.478 3.278,-1.486 0.01,-10e-4 0.021,-10e-4 0.031,-10e-4 1.239,0 2.428,0.523 3.265,1.439 l 1.584,1.734 c 0.471,0.515 1.138,0.77 1.84,0.788 0.699,-0.015 1.357,-0.33 1.806,-0.865 l 1.26,-1.501 c 0.813,-0.97 2.006,-1.545 3.271,-1.579 1.266,-0.05 2.485,0.477 3.35,1.401 l 1.666,1.783 c 0.476,0.509 1.154,0.802 1.846,0.767 0.698,-0.021 1.352,-0.344 1.795,-0.882 l 1.2,-1.455 c 0.791,-0.961 1.958,-1.547 3.202,-1.606 1.24,-0.07 2.461,0.411 3.341,1.291 l 4.484,4.483 -1.414,1.414 -4.485,-4.483 c -0.489,-0.489 -1.133,-0.74 -1.83,-0.707 -0.691,0.033 -1.314,0.346 -1.754,0.88 l -1.2,1.455 c -0.809,0.982 -2.003,1.569 -3.276,1.609 -1.261,0.035 -2.5,-0.47 -3.371,-1.4 l -1.666,-1.783 c -0.473,-0.506 -1.168,-0.774 -1.834,-0.768 -0.693,0.019 -1.346,0.334 -1.792,0.865 l -1.261,1.502 c -0.82,0.977 -2.021,1.552 -3.295,1.578 -1.294,0.031 -2.499,-0.497 -3.359,-1.438 l -1.585,-1.734 c -0.465,-0.509 -1.1,-0.789 -1.788,-0.789 -0.006,0 -0.012,0 -0.018,0 -0.696,0.005 -1.334,0.295 -1.797,0.815 l -1.502,1.692 c -0.806,0.908 -1.964,1.449 -3.178,1.484 -1.204,0.063 -2.404,-0.438 -3.263,-1.299 l -1.613,-1.618 c -0.458,-0.459 -1.066,-0.712 -1.714,-0.713 h -10e-4 c -0.647,0 -1.256,0.252 -1.714,0.711 z"
   id="path611" />
		</g>
		<g
   id="g613">
			<path
   fill="#111111"
   d="m 172.969,644.159 c -0.859,0 -1.667,-0.335 -2.275,-0.941 l -2.439,-2.441 c -0.607,-0.607 -0.942,-1.416 -0.942,-2.275 0,-0.858 0.335,-1.667 0.943,-2.274 l 2.438,-2.438 c 1.217,-1.217 3.336,-1.216 4.551,0 l 2.439,2.438 c 1.254,1.255 1.254,3.295 0,4.55 l -2.44,2.44 c -0.607,0.606 -1.415,0.941 -2.275,0.941 z m 0,-9.314 c -0.325,0 -0.631,0.127 -0.861,0.357 l -2.439,2.438 c -0.23,0.23 -0.357,0.536 -0.357,0.86 0,0.325 0.126,0.631 0.357,0.861 l 2.439,2.44 c 0.459,0.46 1.262,0.458 1.723,0 l 2.439,-2.44 c 0.474,-0.475 0.474,-1.247 0,-1.722 l -2.439,-2.438 c -0.231,-0.229 -0.537,-0.356 -0.862,-0.356 z"
   id="path612" />
		</g>
		<g
   id="g614">
			<path
   fill="#111111"
   d="m 515.41,561.263 c -0.859,0 -1.667,-0.335 -2.276,-0.943 l -2.439,-2.438 c -1.254,-1.255 -1.254,-3.296 0,-4.551 l 2.439,-2.439 c 1.217,-1.217 3.335,-1.215 4.551,0 l 2.438,2.439 c 1.254,1.255 1.254,3.296 0,4.551 l -2.439,2.438 c -0.606,0.608 -1.414,0.943 -2.274,0.943 z m 0,-9.315 c -0.325,0 -0.631,0.127 -0.862,0.356 l -2.438,2.439 c -0.475,0.475 -0.475,1.248 0,1.723 l 2.438,2.438 c 0.461,0.461 1.262,0.46 1.722,10e-4 l 2.439,-2.439 c 0.475,-0.475 0.475,-1.248 0,-1.723 l -2.438,-2.439 c -0.23,-0.23 -0.536,-0.356 -0.861,-0.356 z"
   id="path613" />
		</g>
		<g
   id="g615">
			<path
   fill="#111111"
   d="m 739.109,757.557 c -0.859,0 -1.667,-0.335 -2.275,-0.942 l -2.438,-2.438 c -0.608,-0.607 -0.943,-1.416 -0.943,-2.275 0,-0.86 0.335,-1.669 0.944,-2.276 l 2.438,-2.438 c 1.216,-1.215 3.335,-1.214 4.55,0 l 2.439,2.438 c 0.608,0.607 0.943,1.416 0.943,2.275 0,0.86 -0.335,1.669 -0.943,2.276 l -2.44,2.438 c -0.608,0.607 -1.415,0.942 -2.275,0.942 z m 0,-9.314 c -0.325,0 -0.631,0.126 -0.861,0.356 l -2.438,2.438 c -0.23,0.23 -0.357,0.536 -0.357,0.862 0,0.325 0.127,0.631 0.357,0.861 l 2.439,2.438 c 0.461,0.462 1.263,0.462 1.721,0 l 2.44,-2.438 c 0.23,-0.23 0.357,-0.536 0.357,-0.862 0,-0.325 -0.127,-0.631 -0.357,-0.861 l -2.44,-2.438 c -0.23,-0.23 -0.536,-0.356 -0.861,-0.356 z"
   id="path614" />
		</g>
		<g
   id="g616">
			<path
   fill="#111111"
   d="m 140.877,690.836 c -0.859,0 -1.667,-0.335 -2.275,-0.942 l -2.439,-2.438 c -1.254,-1.256 -1.254,-3.298 0,-4.552 l 2.439,-2.438 c 1.216,-1.215 3.335,-1.215 4.551,0 l 2.438,2.438 c 1.255,1.254 1.255,3.296 0,4.552 l -2.439,2.438 c -0.607,0.607 -1.415,0.942 -2.275,0.942 z m 0,-9.314 c -0.325,0 -0.631,0.126 -0.861,0.356 l -2.439,2.438 c -0.475,0.475 -0.475,1.248 0,1.724 l 2.438,2.438 c 0.46,0.461 1.263,0.461 1.723,0 l 2.438,-2.438 c 0.475,-0.476 0.475,-1.249 0,-1.724 l -2.438,-2.438 c -0.229,-0.23 -0.535,-0.356 -0.861,-0.356 z"
   id="path615" />
		</g>
		<g
   id="g623">
			<g
   id="g617">
				<path
   fill="#111111"
   d="m 270.75,704.595 -1.981,-0.271 c 0.13,-0.955 0.221,-1.931 0.27,-2.9 l 1.997,0.1 c -0.052,1.025 -0.148,2.058 -0.286,3.071 z m -73.898,-1.365 c -0.089,-1.018 -0.139,-2.053 -0.146,-3.077 l 2,-0.014 c 0.007,0.971 0.053,1.952 0.138,2.915 z m 72.153,-5.69 c -0.063,-0.963 -0.168,-1.938 -0.314,-2.896 l 1.978,-0.301 c 0.154,1.016 0.266,2.047 0.333,3.066 z m -70.119,-1.288 -1.99,-0.199 c 0.102,-1.02 0.247,-2.046 0.429,-3.049 l 1.968,0.357 c -0.174,0.952 -0.311,1.924 -0.407,2.891 z m 69.009,-5.414 c -0.25,-0.935 -0.543,-1.871 -0.871,-2.784 l 1.883,-0.674 c 0.345,0.964 0.655,1.953 0.919,2.94 z m -67.704,-1.262 -1.918,-0.566 c 0.29,-0.982 0.623,-1.964 0.99,-2.916 l 1.866,0.719 c -0.348,0.902 -0.663,1.832 -0.938,2.763 z m 65.324,-5.106 c -0.424,-0.872 -0.889,-1.737 -1.381,-2.571 l 1.723,-1.016 c 0.519,0.879 1.009,1.792 1.457,2.712 z m -62.792,-1.204 -1.777,-0.918 c 0.469,-0.908 0.983,-1.81 1.527,-2.678 l 1.694,1.063 c -0.515,0.821 -1,1.672 -1.444,2.533 z m 59.257,-4.607 c -0.578,-0.775 -1.195,-1.539 -1.836,-2.269 l 1.503,-1.32 c 0.676,0.771 1.328,1.576 1.937,2.394 z m -55.567,-1.098 -1.565,-1.244 c 0.633,-0.798 1.313,-1.581 2.021,-2.328 l 1.452,1.375 c -0.668,0.704 -1.31,1.444 -1.908,2.197 z m 51.01,-3.95 c -0.717,-0.658 -1.467,-1.291 -2.228,-1.881 l 1.225,-1.58 c 0.805,0.623 1.597,1.292 2.355,1.986 z m -46.277,-0.913 -1.288,-1.531 c 0.783,-0.658 1.603,-1.292 2.438,-1.884 l 1.156,1.633 c -0.79,0.559 -1.566,1.158 -2.306,1.782 z M 252,669.521 c -0.828,-0.507 -1.685,-0.983 -2.547,-1.416 l 0.897,-1.787 c 0.912,0.458 1.818,0.961 2.693,1.496 z m -35.256,-0.669 -0.968,-1.75 c 0.89,-0.492 1.817,-0.955 2.757,-1.377 l 0.819,1.824 c -0.889,0.399 -1.767,0.838 -2.608,1.303 z m 29.143,-2.29 c -0.906,-0.334 -1.84,-0.633 -2.775,-0.889 l 0.528,-1.93 c 0.99,0.271 1.978,0.588 2.938,0.941 z m -22.906,-0.408 -0.613,-1.904 c 0.978,-0.314 1.977,-0.593 2.967,-0.825 l 0.457,1.947 c -0.938,0.22 -1.884,0.483 -2.811,0.782 z m 16.332,-1.299 c -0.955,-0.15 -1.93,-0.262 -2.897,-0.332 l 0.145,-1.994 c 1.023,0.074 2.053,0.191 3.063,0.35 z m -9.693,-0.162 -0.24,-1.986 c 1.017,-0.123 2.05,-0.205 3.071,-0.245 l 0.078,1.998 c -0.966,0.038 -1.945,0.116 -2.909,0.233 z"
   id="path616" />
			</g>
			<g
   id="g618">
				<rect
   x="216.339"
   y="743.88898"
   fill="#e6e6e6"
   width="35.105"
   height="27.063999"
   id="rect617" />
			</g>
			<g
   id="g619">
				<polygon
   fill="#7c7e82"
   points="251.436,743.895 216.344,743.895 175.062,689.836 292.718,689.836 "
   id="polygon618" />
			</g>
			<g
   id="g620">
				<rect
   x="172.97"
   y="688.836"
   fill="#111111"
   width="121.84"
   height="2"
   id="rect619" />
			</g>
			<g
   id="g621">
				<polygon
   fill="#111111"
   points="276.667,708.289 278.272,709.482 251.938,744.895 244.609,744.895 244.609,742.895 250.933,742.895 "
   id="polygon620" />
			</g>
			<g
   id="g622">
				<rect
   x="216.34399"
   y="742.88898"
   fill="#111111"
   width="17.546"
   height="2"
   id="rect621" />
			</g>
		</g>
		<g
   id="g626">
			<g
   id="g624">
				<path
   fill-rule="evenodd"
   clip-rule="evenodd"
   fill="#6bc8d8"
   d="m 489.206,714.871 c -9.184,0 -19.181,7.109 -19.181,18.967 0,18.047 19.227,37.118 19.227,37.118 0,0 19.226,-19.382 19.226,-37.118 -0.001,-11.858 -10.612,-18.967 -19.272,-18.967 z m 4.762,27.103 c -1.279,0.781 -2.852,1.256 -4.717,1.282 -2.617,-0.037 -4.658,-0.957 -6.124,-2.371 -5.39,-4.994 -3.337,-16.537 6.163,-16.537 10.282,0 11.839,13.519 4.678,17.626 z"
   id="path623" />
			</g>
			<g
   id="g625">
				<path
   fill="#111111"
   d="m 489.29,749.346 c -0.446,0 -0.887,-0.019 -1.324,-0.056 l 0.166,-1.992 c 0.923,0.076 1.882,0.062 2.809,-0.052 l 0.24,1.986 c -0.622,0.076 -1.259,0.114 -1.891,0.114 z m -5.506,-1.001 c -1.002,-0.379 -1.97,-0.865 -2.878,-1.445 l 1.078,-1.686 c 0.791,0.507 1.635,0.931 2.507,1.26 z m 11.542,-0.212 -0.775,-1.844 c 0.86,-0.361 1.688,-0.815 2.459,-1.35 l 1.138,1.645 c -0.885,0.612 -1.835,1.134 -2.822,1.549 z m -17.68,-4.017 c -0.715,-0.803 -1.347,-1.682 -1.88,-2.612 l 1.735,-0.994 c 0.464,0.811 1.016,1.577 1.639,2.278 z m 23.658,-0.432 -1.542,-1.273 c 0.598,-0.724 1.121,-1.509 1.556,-2.336 l 1.771,0.93 c -0.5,0.948 -1.1,1.849 -1.785,2.679 z m -27.136,-6.16 c -0.257,-1.037 -0.407,-2.11 -0.446,-3.188 l 1.999,-0.072 c 0.034,0.939 0.165,1.875 0.389,2.779 z m 30.371,-0.556 -1.958,-0.408 c 0.19,-0.913 0.287,-1.853 0.287,-2.792 l 2,-0.061 v 0.061 c 0,1.076 -0.111,2.153 -0.329,3.2 z m -28.443,-6.421 -1.943,-0.473 c 0.254,-1.046 0.619,-2.066 1.083,-3.034 l 1.803,0.865 c -0.404,0.843 -0.721,1.732 -0.943,2.642 z m 26.246,-0.535 c -0.258,-0.899 -0.612,-1.773 -1.051,-2.601 l 1.767,-0.938 c 0.504,0.949 0.91,1.953 1.206,2.985 z m -23.238,-5.223 -1.5,-1.322 c 0.709,-0.805 1.505,-1.539 2.365,-2.183 l 1.198,1.602 c -0.75,0.561 -1.445,1.202 -2.063,1.903 z m 19.999,-0.407 c -0.647,-0.678 -1.367,-1.289 -2.138,-1.818 l 1.131,-1.648 c 0.885,0.606 1.71,1.308 2.453,2.084 z m -14.666,-3.3 -0.715,-1.867 c 1,-0.384 2.047,-0.663 3.111,-0.832 l 0.313,1.975 c -0.926,0.147 -1.838,0.391 -2.709,0.724 z m 9.185,-0.186 c -0.883,-0.298 -1.804,-0.504 -2.738,-0.613 l 0.233,-1.986 c 1.071,0.126 2.128,0.362 3.142,0.703 z"
   id="path624" />
			</g>
		</g>
		<g
   id="g627">
			<rect
   x="278.409"
   y="771.15198"
   fill="#111111"
   width="453.60101"
   height="2"
   id="rect626" />
		</g>
		<g
   id="g637">
			<g
   id="g628">
				<path
   fill="#6bc8d8"
   d="m 317.014,732.674 c -10.461,-0.736 -20.135,-9.027 -20.135,-9.027 0,0 -9.673,8.291 -20.134,9.027 0,0 -3.577,31.256 20.134,38.279 23.711,-7.023 20.135,-38.279 20.135,-38.279 z"
   id="path627" />
			</g>
			<g
   id="g635">
				<g
   id="g629">
					<polygon
   fill="#111111"
   points="282.716,737.895 282.735,738.603 280.736,738.667 280.676,736.377 282.873,735.778 283.409,737.706 "
   id="polygon628" />
				</g>
				<g
   id="g630">
					<path
   fill="#111111"
   d="m 288.268,735.993 -0.78,-1.842 c 1.108,-0.47 2.23,-0.999 3.335,-1.574 l 0.924,1.773 c -1.152,0.6 -2.323,1.153 -3.479,1.643 z"
   id="path629" />
				</g>
				<g
   id="g631">
					<polygon
   fill="#111111"
   points="296.879,728.904 298.674,730.086 297.59,731.766 296.879,731.299 296.168,731.766 295.084,730.086 "
   id="polygon630" />
				</g>
				<g
   id="g632">
					<path
   fill="#111111"
   d="m 305.488,735.992 c -1.15,-0.487 -2.32,-1.04 -3.479,-1.644 l 0.924,-1.773 c 1.112,0.579 2.234,1.108 3.335,1.575 z"
   id="path631" />
				</g>
				<g
   id="g633">
					<polygon
   fill="#111111"
   points="310.886,735.778 313.084,736.377 313.021,738.667 311.022,738.603 311.042,737.895 310.374,737.712 "
   id="polygon632" />
				</g>
				<g
   id="g634">
					<path
   fill="#111111"
   d="m 296.878,766.613 -0.982,-0.398 c -0.257,-0.104 -0.514,-0.214 -0.766,-0.328 l 0.822,-1.822 c 0.229,0.103 0.459,0.202 0.694,0.297 l 0.233,0.094 0.232,-0.094 c 0.245,-0.1 0.489,-0.204 0.73,-0.313 l 0.824,1.822 c -0.264,0.119 -0.531,0.233 -0.802,0.344 z m -5.314,-2.762 c -0.833,-0.592 -1.632,-1.254 -2.375,-1.969 l 1.387,-1.441 c 0.671,0.646 1.394,1.245 2.146,1.779 z m 10.665,-0.025 -1.161,-1.629 c 0.754,-0.538 1.475,-1.138 2.142,-1.783 l 1.391,1.438 c -0.739,0.713 -1.537,1.377 -2.372,1.974 z m -15.709,-5.055 c -0.579,-0.814 -1.121,-1.69 -1.612,-2.602 l 1.761,-0.949 c 0.452,0.84 0.951,1.645 1.482,2.393 z m 20.745,-0.036 -1.633,-1.154 c 0.53,-0.749 1.027,-1.556 1.479,-2.396 l 1.762,0.945 c -0.491,0.914 -1.032,1.79 -1.608,2.605 z m -24.022,-6.263 c -0.34,-0.915 -0.652,-1.884 -0.928,-2.88 l 1.928,-0.533 c 0.261,0.941 0.555,1.855 0.875,2.716 z m 27.288,-0.041 -1.876,-0.693 c 0.32,-0.865 0.613,-1.779 0.872,-2.718 l 1.929,0.531 c -0.275,0.993 -0.586,1.962 -0.925,2.88 z m -29.093,-6.757 c -0.17,-0.972 -0.312,-1.973 -0.421,-2.976 l 1.988,-0.217 c 0.104,0.96 0.24,1.918 0.403,2.847 z m 30.89,-0.043 -1.971,-0.342 c 0.161,-0.926 0.296,-1.884 0.401,-2.849 l 1.988,0.217 c -0.11,1.007 -0.25,2.007 -0.418,2.974 z"
   id="path633" />
				</g>
			</g>
			<g
   id="g636">
				<path
   fill="#ea572e"
   d="m 295.208,756.265 -7.372,-6.83 c -0.688,-0.636 -0.729,-1.71 -0.092,-2.396 v 0 c 0.637,-0.688 1.71,-0.729 2.396,-0.091 l 5.244,4.855 c 0.36,0.333 0.931,0.269 1.207,-0.136 l 7.778,-11.42 c 0.527,-0.773 1.583,-0.974 2.356,-0.446 v 0 c 0.774,0.527 0.975,1.582 0.447,2.356 l -9.411,13.816 c -0.583,0.859 -1.792,0.996 -2.553,0.292 z"
   id="path635" />
			</g>
		</g>
		<g
   id="g638">
			<rect
   x="75.209"
   y="771.15198"
   fill="#111111"
   width="192.217"
   height="2"
   id="rect637" />
		</g>
		<g
   id="g639">
			<rect
   x="480.311"
   y="540.992"
   fill="#111111"
   width="22.799999"
   height="2"
   id="rect638" />
		</g>
	</g>
	
		
	
</g>
</svg>
