<?xml version="1.0" encoding="utf-8"?>
<!-- Generator: Adobe Illustrator 18.0.0, SVG Export Plug-In . SVG Version: 6.00 Build 0)  -->
<!DOCTYPE svg PUBLIC "-//W3C//DTD SVG 1.1//EN" "http://www.w3.org/Graphics/SVG/1.1/DTD/svg11.dtd">
<svg version="1.1" id="Layer_1" xmlns="http://www.w3.org/2000/svg" xmlns:xlink="http://www.w3.org/1999/xlink" x="0px" y="0px"
	 viewBox="0 0 129.5 129.5" enable-background="new 0 0 129.5 129.5" xml:space="preserve">
<g>
	<g>
		<path fill="#FFFFFF" d="M97.8,69.7c4.2-6.3,6.7-13.9,6.7-22c0-22.8-19.3-41.2-42.5-39.5C42.5,9.6,26.8,25.3,25.4,44.7
			c-0.8,10.6,2.6,20.4,8.7,27.9c6.1,7.5,9.7,16.8,9.7,26.5v1.8H86v-1.7c0-4.6,0.8-9.2,2.3-13.5"/>
		<path fill="#FFFFFF" d="M67.8,18.8l6.3,12.8c0.5,1,1.4,1.7,2.5,1.8l14.1,2c2.7,0.4,3.8,3.8,1.8,5.7l-10.2,9.9
			c-0.8,0.8-1.1,1.9-1,3l2.4,14c0.5,2.7-2.4,4.8-4.8,3.5l-12.6-6.6c-1-0.5-2.1-0.5-3.1,0l-12.6,6.6c-2.4,1.3-5.3-0.8-4.8-3.5l2.4-14
			c0.2-1.1-0.2-2.2-1-3l-10.2-9.9c-2-1.9-0.9-5.3,1.8-5.7l14.1-2c1.1-0.2,2-0.8,2.5-1.8l6.3-12.8C63.1,16.3,66.6,16.3,67.8,18.8z"/>
		<path fill="#FFD05B" d="M80.6,70c-0.2,0-0.4-0.1-0.7-0.2l-12.6-6.6c-0.8-0.4-1.6-0.6-2.4-0.6c-0.8,0-1.7,0.2-2.4,0.6l-12.6,6.6
			C49.6,70,49.4,70,49.1,70c-0.4,0-0.8-0.2-1.1-0.5c-0.2-0.2-0.4-0.6-0.3-1.1l2.4-14c0.3-1.7-0.3-3.4-1.5-4.7l-10.2-9.9
			c-0.6-0.5-0.4-1.2-0.4-1.4c0.1-0.2,0.4-0.8,1.1-1l14.1-2c1.7-0.2,3.2-1.3,4-2.9l6.3-12.8c0.3-0.7,1-0.8,1.3-0.8
			c0.3,0,0.9,0.1,1.3,0.8l6.3,12.8c0.8,1.6,2.2,2.6,4,2.9l14.1,2c0.8,0.1,1.1,0.7,1.1,1c0.1,0.2,0.2,0.9-0.4,1.4l-10.2,9.9
			c-1.2,1.2-1.8,3-1.5,4.7l2.4,14c0.1,0.5-0.1,0.9-0.3,1.1C81.4,69.8,81,70,80.6,70z"/>
		<path fill="#231F20" d="M64.1,95.4c-0.3,0-0.7,0-1,0l0.1-1.5c0.3,0,0.7,0,1,0L64.1,95.4z M66.1,95.3l0-1.5c0.3,0,0.7,0,1,0
			l0.1,1.5C66.8,95.3,66.5,95.3,66.1,95.3z M61.1,95.2c-0.3,0-0.7-0.1-1-0.1l0.1-1.5c0.3,0,0.7,0.1,1,0.1L61.1,95.2z M69.2,95.2
			L69,93.7c0.3,0,0.7-0.1,1-0.1l0.2,1.5C69.8,95.1,69.5,95.1,69.2,95.2z M58,94.9c-0.3,0-0.7-0.1-1-0.2l0.2-1.5
			c0.3,0.1,0.6,0.1,1,0.1L58,94.9z M72.2,94.8L72,93.3c0.3,0,0.6-0.1,1-0.2l0.3,1.5C72.9,94.7,72.5,94.7,72.2,94.8z M55,94.3
			c-0.3-0.1-0.7-0.1-1-0.2l0.3-1.5c0.3,0.1,0.6,0.1,1,0.2L55,94.3z M75.2,94.2l-0.3-1.5c0.3-0.1,0.6-0.1,1-0.2l0.4,1.5
			C75.8,94.1,75.5,94.2,75.2,94.2z M52.1,93.6c-0.3-0.1-0.7-0.2-1-0.3l0.4-1.4c0.3,0.1,0.6,0.2,0.9,0.3L52.1,93.6z M78.1,93.5
			L77.7,92c0.3-0.1,0.6-0.2,0.9-0.3l0.4,1.4C78.8,93.3,78.5,93.4,78.1,93.5z M49.2,92.7c-0.3-0.1-0.6-0.2-1-0.3l0.5-1.4
			c0.3,0.1,0.6,0.2,0.9,0.3L49.2,92.7z M81,92.5l-0.5-1.4c0.3-0.1,0.6-0.2,0.9-0.3l0.5,1.4C81.7,92.3,81.4,92.4,81,92.5z M46.3,91.6
			c-0.3-0.1-0.6-0.3-0.9-0.4l0.6-1.4c0.3,0.1,0.6,0.3,0.9,0.4L46.3,91.6z M83.9,91.4L83.3,90c0.3-0.1,0.6-0.3,0.9-0.4l0.6,1.4
			C84.5,91.1,84.2,91.3,83.9,91.4z M43.6,90.4c-0.3-0.2-0.6-0.3-0.9-0.5l0.7-1.3c0.3,0.2,0.6,0.3,0.9,0.4L43.6,90.4z M86.6,90.1
			L86,88.8c0.3-0.2,0.6-0.3,0.9-0.5l0.7,1.3C87.2,89.8,86.9,90,86.6,90.1z M40.9,88.9c-0.3-0.2-0.6-0.3-0.9-0.5l0.8-1.3
			c0.3,0.2,0.6,0.3,0.8,0.5L40.9,88.9z M89.3,88.6l-0.8-1.3c0.3-0.2,0.6-0.3,0.8-0.5l0.8,1.3C89.9,88.3,89.6,88.4,89.3,88.6z
			 M38.3,87.3c-0.3-0.2-0.6-0.4-0.8-0.6l0.9-1.2c0.3,0.2,0.5,0.4,0.8,0.6L38.3,87.3z M91.9,87L91,85.7c0.3-0.2,0.5-0.4,0.8-0.6
			l0.9,1.2C92.4,86.6,92.2,86.8,91.9,87z M35.8,85.5c-0.3-0.2-0.5-0.4-0.8-0.6l0.9-1.2c0.3,0.2,0.5,0.4,0.8,0.6L35.8,85.5z
			 M94.3,85.2L93.4,84c0.3-0.2,0.5-0.4,0.8-0.6l1,1.2C94.9,84.7,94.6,85,94.3,85.2z M33.5,83.6c-0.3-0.2-0.5-0.4-0.8-0.7l1-1.1
			c0.2,0.2,0.5,0.4,0.7,0.7L33.5,83.6z M96.7,83.2l-1-1.1c0.2-0.2,0.5-0.4,0.7-0.7l1,1.1C97.2,82.8,96.9,83,96.7,83.2z M31.3,81.5
			c-0.2-0.2-0.5-0.5-0.7-0.7l1.1-1c0.2,0.2,0.5,0.5,0.7,0.7L31.3,81.5z M98.9,81.1L97.8,80c0.2-0.2,0.5-0.5,0.7-0.7l1.1,1
			C99.3,80.6,99.1,80.9,98.9,81.1z M29.2,79.3c-0.2-0.3-0.4-0.5-0.7-0.8l1.1-1c0.2,0.3,0.4,0.5,0.6,0.7L29.2,79.3z M100.9,78.9
			l-1.1-1c0.2-0.2,0.4-0.5,0.6-0.8l1.2,1C101.4,78.3,101.2,78.6,100.9,78.9z M27.2,76.9c-0.2-0.3-0.4-0.5-0.6-0.8l1.2-0.9
			c0.2,0.3,0.4,0.5,0.6,0.8L27.2,76.9z M102.9,76.5l-1.2-0.9c0.2-0.3,0.4-0.5,0.6-0.8l1.2,0.9C103.3,76,103.1,76.2,102.9,76.5z
			 M25.4,74.5c-0.2-0.3-0.4-0.6-0.6-0.8l1.3-0.8c0.2,0.3,0.4,0.5,0.5,0.8L25.4,74.5z M104.6,74l-1.2-0.8c0.2-0.3,0.4-0.5,0.5-0.8
			l1.3,0.8C105,73.5,104.8,73.7,104.6,74z M23.8,71.9c-0.2-0.3-0.3-0.6-0.5-0.9l1.3-0.7c0.2,0.3,0.3,0.6,0.5,0.9L23.8,71.9z
			 M106.2,71.4l-1.3-0.7c0.2-0.3,0.3-0.6,0.5-0.9l1.3,0.7C106.5,70.8,106.4,71.1,106.2,71.4z M22.3,69.2c-0.2-0.3-0.3-0.6-0.5-0.9
			l1.4-0.7c0.1,0.3,0.3,0.6,0.4,0.9L22.3,69.2z M107.6,68.7l-1.3-0.7c0.1-0.3,0.3-0.6,0.4-0.9l1.4,0.6
			C107.9,68.1,107.8,68.4,107.6,68.7z M21,66.5c-0.1-0.3-0.3-0.6-0.4-0.9L22,65c0.1,0.3,0.3,0.6,0.4,0.9L21,66.5z M108.9,66
			l-1.4-0.6c0.1-0.3,0.2-0.6,0.4-0.9l1.4,0.5C109.2,65.4,109,65.7,108.9,66z M19.9,63.6c-0.1-0.3-0.2-0.6-0.3-1l1.4-0.5
			c0.1,0.3,0.2,0.6,0.3,0.9L19.9,63.6z M110,63.1l-1.4-0.5c0.1-0.3,0.2-0.6,0.3-0.9l1.4,0.5C110.2,62.5,110.1,62.8,110,63.1z
			 M19,60.7c-0.1-0.3-0.2-0.7-0.3-1l1.5-0.4c0.1,0.3,0.2,0.6,0.3,0.9L19,60.7z M110.9,60.2l-1.4-0.4c0.1-0.3,0.2-0.6,0.2-1l1.5,0.4
			C111,59.6,111,59.9,110.9,60.2z M18.2,57.8c-0.1-0.3-0.1-0.7-0.2-1l1.5-0.3c0.1,0.3,0.1,0.6,0.2,1L18.2,57.8z M111.6,57.3
			l-1.5-0.3c0.1-0.3,0.1-0.6,0.2-1l1.5,0.3C111.7,56.6,111.6,56.9,111.6,57.3z M17.7,54.8c-0.1-0.3-0.1-0.7-0.1-1l1.5-0.2
			c0,0.3,0.1,0.6,0.1,1L17.7,54.8z M112.1,54.3l-1.5-0.2c0-0.3,0.1-0.6,0.1-1l1.5,0.2C112.2,53.6,112.1,53.9,112.1,54.3z M17.3,51.7
			c0-0.3-0.1-0.7-0.1-1l1.5-0.1c0,0.3,0,0.7,0.1,1L17.3,51.7z M112.4,51.2l-1.5-0.1c0-0.3,0-0.7,0.1-1l1.5,0.1
			C112.5,50.6,112.4,50.9,112.4,51.2z M17.2,48.7c0-0.3,0-0.7,0-1c0-0.3,0-0.7,0-1l1.5,0c0,0.3,0,0.6,0,1c0,0.3,0,0.7,0,1L17.2,48.7
			z M112.5,48.2l-1.5,0l0-0.5l0-0.5l1.5,0l0,0.5L112.5,48.2z M111,45.2c0-0.3,0-0.7-0.1-1l1.5-0.1c0,0.3,0,0.7,0.1,1L111,45.2z
			 M18.8,44.7l-1.5-0.1c0-0.3,0-0.7,0.1-1l1.5,0.1C18.8,44.1,18.8,44.4,18.8,44.7z M110.7,42.3c0-0.3-0.1-0.7-0.1-1l1.5-0.2
			c0,0.3,0.1,0.7,0.1,1L110.7,42.3z M19,41.8l-1.5-0.2c0-0.3,0.1-0.7,0.1-1l1.5,0.2C19.1,41.2,19.1,41.5,19,41.8z M110.3,39.4
			c-0.1-0.3-0.1-0.6-0.2-1l1.5-0.3c0.1,0.3,0.1,0.7,0.2,1L110.3,39.4z M19.5,38.9L18,38.6c0.1-0.3,0.1-0.7,0.2-1l1.5,0.3
			C19.6,38.2,19.6,38.6,19.5,38.9z M109.7,36.5c-0.1-0.3-0.2-0.6-0.2-1l1.4-0.4c0.1,0.3,0.2,0.7,0.3,1L109.7,36.5z M20.2,36
			l-1.5-0.4c0.1-0.3,0.2-0.7,0.3-1l1.4,0.4C20.3,35.4,20.2,35.7,20.2,36z M108.9,33.6c-0.1-0.3-0.2-0.6-0.3-0.9l1.4-0.5
			c0.1,0.3,0.2,0.6,0.3,1L108.9,33.6z M21,33.2l-1.4-0.5c0.1-0.3,0.2-0.6,0.3-1l1.4,0.5C21.2,32.6,21.1,32.9,21,33.2z M107.9,30.8
			c-0.1-0.3-0.2-0.6-0.4-0.9l1.4-0.6c0.1,0.3,0.3,0.6,0.4,0.9L107.9,30.8z M22,30.4l-1.4-0.6c0.1-0.3,0.3-0.6,0.4-0.9l1.4,0.6
			C22.3,29.8,22.1,30.1,22,30.4z M106.7,28.1c-0.1-0.3-0.3-0.6-0.4-0.9l1.3-0.7c0.2,0.3,0.3,0.6,0.4,0.9L106.7,28.1z M23.2,27.7
			l-1.4-0.6c0.1-0.3,0.3-0.6,0.4-0.9l1.3,0.7C23.5,27.1,23.3,27.4,23.2,27.7z M105.4,25.5c-0.2-0.3-0.3-0.6-0.5-0.9l1.3-0.8
			c0.2,0.3,0.3,0.6,0.5,0.9L105.4,25.5z M24.6,25.1l-1.3-0.7c0.2-0.3,0.3-0.6,0.5-0.9l1.3,0.8C24.9,24.5,24.7,24.8,24.6,25.1z
			 M103.9,22.9c-0.2-0.3-0.4-0.6-0.5-0.8l1.2-0.8c0.2,0.3,0.4,0.6,0.6,0.9L103.9,22.9z M26.1,22.6l-1.3-0.8c0.2-0.3,0.4-0.6,0.6-0.8
			l1.2,0.8C26.4,22,26.3,22.3,26.1,22.6z M102.2,20.5c-0.2-0.3-0.4-0.5-0.6-0.8l1.2-0.9c0.2,0.3,0.4,0.5,0.6,0.8L102.2,20.5z
			 M27.8,20.2l-1.2-0.9c0.2-0.3,0.4-0.5,0.6-0.8l1.2,0.9C28.2,19.6,28,19.9,27.8,20.2z M100.4,18.2c-0.2-0.3-0.4-0.5-0.6-0.8l1.1-1
			c0.2,0.3,0.4,0.5,0.7,0.8L100.4,18.2z M29.6,17.9l-1.1-1c0.2-0.3,0.4-0.5,0.7-0.8l1.1,1C30,17.4,29.8,17.6,29.6,17.9z M98.4,16
			c-0.2-0.2-0.5-0.5-0.7-0.7l1.1-1.1c0.2,0.2,0.5,0.5,0.7,0.7L98.4,16z M31.6,15.7l-1.1-1c0.2-0.2,0.5-0.5,0.7-0.7l1.1,1.1
			C32,15.2,31.8,15.4,31.6,15.7z M96.3,13.9c-0.2-0.2-0.5-0.4-0.7-0.7l1-1.1c0.3,0.2,0.5,0.5,0.8,0.7L96.3,13.9z M33.7,13.6l-1-1.1
			c0.3-0.2,0.5-0.5,0.8-0.7l1,1.1C34.2,13.2,33.9,13.4,33.7,13.6z M94.1,11.9c-0.3-0.2-0.5-0.4-0.8-0.6l0.9-1.2
			c0.3,0.2,0.5,0.4,0.8,0.6L94.1,11.9z M35.9,11.7L35,10.5c0.3-0.2,0.5-0.4,0.8-0.6l0.9,1.2C36.4,11.3,36.2,11.5,35.9,11.7z
			 M91.8,10.2C91.5,10,91.2,9.8,91,9.6l0.8-1.2c0.3,0.2,0.6,0.4,0.8,0.6L91.8,10.2z M38.3,9.9l-0.9-1.2c0.3-0.2,0.6-0.4,0.8-0.6
			l0.8,1.2C38.8,9.5,38.6,9.7,38.3,9.9z M89.3,8.5c-0.3-0.2-0.6-0.3-0.8-0.5l0.8-1.3c0.3,0.2,0.6,0.3,0.9,0.5L89.3,8.5z M40.8,8.3
			L40,7c0.3-0.2,0.6-0.4,0.9-0.5l0.8,1.3C41.3,7.9,41,8.1,40.8,8.3z M86.8,7c-0.3-0.2-0.6-0.3-0.9-0.5l0.7-1.3
			c0.3,0.2,0.6,0.3,0.9,0.5L86.8,7z M43.3,6.8l-0.7-1.3c0.3-0.2,0.6-0.3,0.9-0.5l0.7,1.3C43.9,6.5,43.6,6.7,43.3,6.8z M84.2,5.7
			c-0.3-0.1-0.6-0.3-0.9-0.4l0.6-1.4c0.3,0.1,0.6,0.3,0.9,0.4L84.2,5.7z M46,5.5l-0.6-1.4C45.7,4,46,3.9,46.3,3.7l0.6,1.4
			C46.6,5.3,46.3,5.4,46,5.5z M81.4,4.6c-0.3-0.1-0.6-0.2-0.9-0.3L81,2.8c0.3,0.1,0.6,0.2,1,0.4L81.4,4.6z M48.7,4.4L48.2,3
			c0.3-0.1,0.6-0.2,1-0.3l0.5,1.4C49.3,4.2,49,4.3,48.7,4.4z M78.7,3.6c-0.3-0.1-0.6-0.2-0.9-0.3l0.4-1.4c0.3,0.1,0.6,0.2,1,0.3
			L78.7,3.6z M51.5,3.5L51.1,2c0.3-0.1,0.6-0.2,1-0.3l0.4,1.4C52.1,3.3,51.8,3.4,51.5,3.5z M75.8,2.8c-0.3-0.1-0.6-0.2-1-0.2
			l0.3-1.5c0.3,0.1,0.7,0.1,1,0.2L75.8,2.8z M54.4,2.7L54,1.2c0.3-0.1,0.7-0.1,1-0.2l0.3,1.5C55,2.5,54.7,2.6,54.4,2.7z M72.9,2.2
			c-0.3-0.1-0.6-0.1-1-0.2l0.2-1.5c0.3,0.1,0.7,0.1,1,0.2L72.9,2.2z M57.3,2.1L57,0.6c0.3-0.1,0.7-0.1,1-0.2L58.2,2
			C57.9,2,57.6,2.1,57.3,2.1z M70,1.8c-0.3,0-0.7-0.1-1-0.1l0.1-1.5c0.3,0,0.7,0.1,1,0.1L70,1.8z M60.2,1.7L60,0.2
			c0.3,0,0.7-0.1,1-0.1l0.1,1.5C60.8,1.7,60.5,1.7,60.2,1.7z M67.1,1.5c-0.3,0-0.7,0-1,0l0-1.5c0.3,0,0.7,0,1,0L67.1,1.5z M63.1,1.5
			L63.1,0c0.3,0,0.7,0,1,0l0,1.5C63.8,1.5,63.5,1.5,63.1,1.5z"/>
		<circle fill="#FF7058" cx="102.3" cy="2.9" r="2.3"/>
		<circle fill="#84DBFF" cx="3.2" cy="36.9" r="2.3"/>
		<circle fill="#84DBFF" cx="126.3" cy="35.6" r="2.6"/>
		<circle fill="#E6E9EE" cx="116.3" cy="40.6" r="0.1"/>
		<path fill="#231F20" d="M116.3,14.6c-0.2,0-0.4-0.1-0.5-0.2c-0.3-0.3-0.3-0.8,0-1.1l1.3-1.3c0.3-0.3,0.8-0.3,1.1,0
			c0.3,0.3,0.3,0.8,0,1.1l-1.3,1.3C116.7,14.5,116.5,14.6,116.3,14.6z"/>
		<path fill="#231F20" d="M112.3,18.6c-0.2,0-0.4-0.1-0.5-0.2c-0.3-0.3-0.3-0.8,0-1.1l1.3-1.3c0.3-0.3,0.8-0.3,1.1,0
			c0.3,0.3,0.3,0.8,0,1.1l-1.3,1.3C112.7,18.5,112.5,18.6,112.3,18.6z"/>
		<path fill="#231F20" d="M117.6,18.6c-0.2,0-0.4-0.1-0.5-0.2l-1.3-1.3c-0.3-0.3-0.3-0.8,0-1.1c0.3-0.3,0.8-0.3,1.1,0l1.3,1.3
			c0.3,0.3,0.3,0.8,0,1.1C118,18.5,117.8,18.6,117.6,18.6z"/>
		<path fill="#231F20" d="M113.6,14.6c-0.2,0-0.4-0.1-0.5-0.2l-1.3-1.3c-0.3-0.3-0.3-0.8,0-1.1c0.3-0.3,0.8-0.3,1.1,0l1.3,1.3
			c0.3,0.3,0.3,0.8,0,1.1C114,14.5,113.8,14.6,113.6,14.6z"/>
		<path fill="#231F20" d="M11.8,75.2c-0.2,0-0.4-0.1-0.5-0.2c-0.3-0.3-0.3-0.8,0-1.1l1.3-1.3c0.3-0.3,0.8-0.3,1.1,0
			c0.3,0.3,0.3,0.8,0,1.1L12.3,75C12.2,75.1,12,75.2,11.8,75.2z"/>
		<path fill="#231F20" d="M7.8,79.2c-0.2,0-0.4-0.1-0.5-0.2C7,78.7,7,78.3,7.3,78l1.3-1.3c0.3-0.3,0.8-0.3,1.1,0
			c0.3,0.3,0.3,0.8,0,1.1L8.3,79C8.2,79.2,8,79.2,7.8,79.2z"/>
		<path fill="#231F20" d="M13.1,79.2c-0.2,0-0.4-0.1-0.5-0.2l-1.3-1.3c-0.3-0.3-0.3-0.8,0-1.1c0.3-0.3,0.8-0.3,1.1,0l1.3,1.3
			c0.3,0.3,0.3,0.8,0,1.1C13.5,79.2,13.3,79.2,13.1,79.2z"/>
		<path fill="#231F20" d="M9.1,75.2c-0.2,0-0.4-0.1-0.5-0.2l-1.3-1.3c-0.3-0.3-0.3-0.8,0-1.1c0.3-0.3,0.8-0.3,1.1,0l1.3,1.3
			c0.3,0.3,0.3,0.8,0,1.1C9.5,75.1,9.3,75.2,9.1,75.2z"/>
		<path fill="#231F20" d="M17.1,15.6c-0.2,0-0.4-0.1-0.5-0.2c-0.3-0.3-0.3-0.8,0-1.1l1.3-1.3c0.3-0.3,0.8-0.3,1.1,0
			c0.3,0.3,0.3,0.8,0,1.1l-1.3,1.3C17.5,15.5,17.3,15.6,17.1,15.6z"/>
		<path fill="#231F20" d="M13.1,19.6c-0.2,0-0.4-0.1-0.5-0.2c-0.3-0.3-0.3-0.8,0-1.1l1.3-1.3c0.3-0.3,0.8-0.3,1.1,0
			c0.3,0.3,0.3,0.8,0,1.1l-1.3,1.3C13.5,19.6,13.3,19.6,13.1,19.6z"/>
		<path fill="#231F20" d="M18.4,19.6c-0.2,0-0.4-0.1-0.5-0.2l-1.3-1.3c-0.3-0.3-0.3-0.8,0-1.1c0.3-0.3,0.8-0.3,1.1,0l1.3,1.3
			c0.3,0.3,0.3,0.8,0,1.1C18.8,19.6,18.6,19.6,18.4,19.6z"/>
		<path fill="#231F20" d="M14.4,15.6c-0.2,0-0.4-0.1-0.5-0.2l-1.3-1.3c-0.3-0.3-0.3-0.8,0-1.1c0.3-0.3,0.8-0.3,1.1,0l1.3,1.3
			c0.3,0.3,0.3,0.8,0,1.1C14.8,15.5,14.6,15.6,14.4,15.6z"/>
		<path fill="#E6E9EE" d="M78.1,128.7H51.4c-4.2,0-7.7-3.4-7.7-7.7v-10h42v10C85.8,125.3,82.3,128.7,78.1,128.7z"/>
		<rect x="58.2" y="61.1" fill="#FFFFFF" width="13.4" height="39.7"/>
		<polygon fill="#FFFFFF" points="71.6,61.1 64.9,45.4 58.2,61.1 		"/>
		<polygon fill="#FFFFFF" points="68,52.9 64.9,45.4 61.7,52.9 		"/>
		<line fill="#FFFFFF" x1="64.9" y1="61.1" x2="64.9" y2="100.8"/>
		<g>
			<path fill="#231F20" d="M92.4,18.1C84.1,10.4,73.2,6.6,61.9,7.4C42.1,8.8,26.1,24.8,24.6,44.6C23.9,55,27,65.1,33.5,73.1
				c6.1,7.6,9.5,16.8,9.5,26v1h-2.1v1.5h48v-1.5h-2.1v-0.9c0-4.5,0.8-8.9,2.3-13.2l-1.4-0.5c-1.6,4.5-2.4,9.1-2.4,13.7v0.9H72.3
				V68.9l6.4,3.3c0.6,0.3,1.2,0.5,1.9,0.5c1.2,0,2.3-0.5,3.1-1.5c0.8-0.9,1.1-2.1,0.9-3.3l-2.4-14c-0.1-0.8,0.1-1.7,0.7-2.3
				l10.2-9.9c1.1-1.1,1.5-2.7,1-4.2c-0.5-1.5-1.7-2.6-3.3-2.8l-14.1-2c-0.8-0.1-1.6-0.7-1.9-1.4l-6.3-12.8c-0.7-1.4-2.1-2.3-3.7-2.3
				c-1.6,0-3,0.9-3.7,2.3l-6.3,12.8c-0.4,0.8-1.1,1.3-1.9,1.4l-14.1,2c-1.5,0.2-2.8,1.3-3.3,2.8c-0.5,1.5-0.1,3.1,1,4.2l10.2,9.9
				c0.6,0.6,0.9,1.4,0.7,2.3l-2.4,14c-0.2,1.2,0.1,2.4,0.9,3.3c1.2,1.4,3.3,1.9,5,1l6.4-3.3v31.2H44.5v-1c0-9.5-3.5-19.1-9.9-26.9
				c-6.2-7.7-9.3-17.4-8.5-27.4C27.5,25.7,42.9,10.3,62,8.9c10.9-0.8,21.4,2.9,29.3,10.3c7.9,7.3,12.4,17.7,12.4,28.4
				c0,7.7-2.3,15.2-6.6,21.6l1.2,0.8c4.5-6.6,6.8-14.4,6.8-22.5C105.2,36.5,100.5,25.7,92.4,18.1z M65.6,100.1V61.9h5.2v38.2H65.6z
				 M67.6,53.7l2.9,6.7H59.3l2.9-6.7H67.6z M62.8,52.2l2.1-4.8l2.1,4.8H62.8z M50.4,70.9c-1.1,0.6-2.4,0.3-3.2-0.6
				c-0.5-0.6-0.7-1.3-0.6-2.1l2.4-14c0.2-1.3-0.2-2.7-1.2-3.6l-10.2-9.9c-0.7-0.7-1-1.7-0.7-2.6c0.3-1,1.1-1.6,2.1-1.8l14.1-2
				c1.3-0.2,2.5-1,3.1-2.2l6.3-12.8c0.4-0.9,1.3-1.4,2.3-1.4c1,0,1.9,0.5,2.3,1.4l6.3,12.8c0.6,1.2,1.7,2,3.1,2.2l14.1,2
				c1,0.1,1.8,0.8,2.1,1.8c0.3,1,0.1,1.9-0.7,2.6l-10.2,9.9c-1,0.9-1.4,2.3-1.2,3.6l2.4,14c0.1,0.8-0.1,1.5-0.6,2.1
				c-0.8,0.9-2.1,1.2-3.2,0.6l-7.1-3.7v-6c0-0.1,0-0.2-0.1-0.3l0,0l-6.7-15.7c-0.2-0.6-1.1-0.6-1.4,0l-6.7,15.7l0,0
				c0,0.1-0.1,0.2-0.1,0.3v6L50.4,70.9z M58.9,61.9h5.2v38.2h-5.2V61.9z"/>
			<rect x="40.9" y="103.5" fill="#231F20" width="48" height="1.5"/>
			<rect x="40.9" y="106.9" fill="#231F20" width="48" height="1.5"/>
			<path fill="#231F20" d="M40.9,111.9H43v9.2c0,4.6,3.8,8.4,8.4,8.4h26.7c4.6,0,8.4-3.8,8.4-8.4v-9.2h2.3v-1.5h-48V111.9z
				 M44.5,111.9H85v9.2c0,3.8-3.1,6.9-6.9,6.9H51.4c-3.8,0-6.9-3.1-6.9-6.9V111.9z"/>
		</g>
		<circle fill="#FFFFFF" cx="18.2" cy="111.3" r="16.8"/>
		<path fill="#231F20" d="M18.2,128.9c-9.7,0-17.6-7.9-17.6-17.6c0-9.7,7.9-17.6,17.6-17.6s17.6,7.9,17.6,17.6
			C35.8,121,27.9,128.9,18.2,128.9z M18.2,95.2c-8.9,0-16.1,7.2-16.1,16.1c0,8.9,7.2,16.1,16.1,16.1s16.1-7.2,16.1-16.1
			C34.3,102.5,27.1,95.2,18.2,95.2z"/>
		<circle fill="#84DBFF" cx="18.2" cy="111.3" r="14.5"/>
		<rect x="11.4" y="100.1" transform="matrix(0.5 0.866 -0.866 0.5 93.3963 39.8751)" fill="#231F20" width="1.5" height="1.5"/>
		
			<rect x="23.5" y="121.1" transform="matrix(0.4998 0.8661 -0.8661 0.4998 117.6808 39.8977)" fill="#231F20" width="1.5" height="1.5"/>
		<rect x="7" y="104.5" transform="matrix(0.866 0.5 -0.5 0.866 53.6678 10.2418)" fill="#231F20" width="1.5" height="1.5"/>
		
			<rect x="28" y="116.6" transform="matrix(0.8661 0.4998 -0.4998 0.8661 62.5228 1.3524)" fill="#231F20" width="1.5" height="1.5"/>
		<rect x="29.6" y="110.6" fill="#231F20" width="1.5" height="1.5"/>
		<rect x="7" y="116.6" transform="matrix(0.5 0.866 -0.866 0.5 105.529 52.0073)" fill="#231F20" width="1.5" height="1.5"/>
		
			<rect x="28" y="104.5" transform="matrix(0.5001 0.866 -0.866 0.5001 105.5258 27.7406)" fill="#231F20" width="1.5" height="1.5"/>
		
			<rect x="11.4" y="121.1" transform="matrix(0.866 0.5001 -0.5001 0.866 62.5584 10.2458)" fill="#231F20" width="1.5" height="1.5"/>
		
			<rect x="23.5" y="100.1" transform="matrix(0.866 0.5001 -0.5001 0.866 53.6758 1.3625)" fill="#231F20" width="1.5" height="1.5"/>
		<polygon fill="#231F20" points="24.3,112.1 17.5,112.1 17.5,103.3 19,103.3 19,110.6 24.3,110.6 		"/>
		<rect x="17.5" y="98.4" fill="#231F20" width="1.5" height="1.5"/>
		<rect x="17.5" y="122.7" fill="#231F20" width="1.5" height="1.5"/>
		<rect x="5.3" y="110.6" fill="#231F20" width="1.5" height="1.5"/>
		<g>
			<circle fill="#FFFFFF" cx="111.3" cy="96.7" r="16.3"/>
			<circle fill="#FF7058" cx="111.3" cy="96.7" r="4.4"/>
			<path fill="#231F20" d="M111.3,79.6c-4.4,0-8.5,1.7-11.5,4.5l-4-4l0.7-5.1c0-0.2,0-0.5-0.2-0.6L90,68c-0.2-0.2-0.5-0.3-0.8-0.2
				c-0.3,0.1-0.5,0.3-0.5,0.6l-0.7,5l-5,0.7c-0.3,0-0.5,0.2-0.6,0.5c-0.1,0.3,0,0.6,0.2,0.8l6.3,6.3c0.1,0.1,0.3,0.2,0.5,0.2
				c0,0,0.1,0,0.1,0l5.1-0.7l4,4c-2.8,3-4.5,7.1-4.5,11.5c0,9.4,7.7,17.1,17.1,17.1s17.1-7.7,17.1-17.1S120.7,79.6,111.3,79.6z
				 M90,70.1l5,5l-0.5,3.7l-5-5L90,70.1z M89.7,80.4l-5-5l3.7-0.5l5,5L89.7,80.4z M111.3,112.2c-8.6,0-15.6-7-15.6-15.6
				c0-4,1.5-7.7,4.1-10.4l2,2c-2,2.3-3.2,5.2-3.2,8.4c0,7,5.7,12.7,12.7,12.7s12.7-5.7,12.7-12.7c0-7-5.7-12.7-12.7-12.7
				c-3.2,0-6.2,1.2-8.4,3.2l-2-2c2.8-2.5,6.4-4.1,10.4-4.1c8.6,0,15.6,7,15.6,15.6C126.8,105.2,119.8,112.2,111.3,112.2z
				 M104.7,91.2c-1.2,1.5-2,3.4-2,5.5c0,4.7,3.8,8.5,8.5,8.5s8.5-3.8,8.5-8.5c0-4.7-3.8-8.5-8.5-8.5c-2.1,0-4,0.8-5.5,2l-1.9-1.9
				c2-1.7,4.6-2.8,7.4-2.8c6.2,0,11.2,5,11.2,11.2c0,6.2-5,11.2-11.2,11.2c-6.2,0-11.2-5-11.2-11.2c0-2.8,1.1-5.4,2.8-7.4
				L104.7,91.2z M110.7,97.2c0.1,0.1,0.3,0.2,0.5,0.2c0.2,0,0.4-0.1,0.5-0.2c0.3-0.3,0.3-0.8,0-1.1l-4.9-4.9c1.2-1,2.7-1.6,4.4-1.6
				c3.9,0,7,3.2,7,7c0,3.9-3.2,7-7,7c-3.9,0-7-3.2-7-7c0-1.7,0.6-3.2,1.6-4.4L110.7,97.2z"/>
		</g>
	</g>
</g>
</svg>
