<?xml version="1.0" encoding="UTF-8"?>
<svg xmlns="http://www.w3.org/2000/svg" xmlns:xlink="http://www.w3.org/1999/xlink" width="200px" height="200px" viewBox="0 0 200 200" version="1.1">
<g id="surface1">
<path style=" stroke:none;fill-rule:nonzero;fill:rgb(13.72549%,12.156863%,12.54902%);fill-opacity:1;" d="M 182.394531 10.8125 C 182.085938 10.8125 181.777344 10.65625 181.621094 10.5 C 181.160156 10.039062 181.160156 9.265625 181.621094 8.804688 L 183.628906 6.796875 C 184.09375 6.332031 184.863281 6.332031 185.328125 6.796875 C 185.792969 7.257812 185.792969 8.03125 185.328125 8.496094 L 183.320312 10.5 C 183.011719 10.65625 182.703125 10.8125 182.394531 10.8125 Z M 182.394531 10.8125 "/>
<path style=" stroke:none;fill-rule:nonzero;fill:rgb(13.72549%,12.156863%,12.54902%);fill-opacity:1;" d="M 176.214844 16.988281 C 175.90625 16.988281 175.597656 16.832031 175.445312 16.679688 C 174.980469 16.214844 174.980469 15.445312 175.445312 14.980469 L 177.453125 12.972656 C 177.914062 12.507812 178.6875 12.507812 179.152344 12.972656 C 179.613281 13.4375 179.613281 14.207031 179.152344 14.671875 L 177.144531 16.679688 C 176.832031 16.988281 176.523438 16.988281 176.214844 16.988281 Z M 176.214844 16.988281 "/>
<path style=" stroke:none;fill-rule:nonzero;fill:rgb(13.72549%,12.156863%,12.54902%);fill-opacity:1;" d="M 184.402344 16.988281 C 184.09375 16.988281 183.785156 16.832031 183.628906 16.679688 L 181.621094 14.671875 C 181.160156 14.207031 181.160156 13.4375 181.621094 12.972656 C 182.085938 12.507812 182.855469 12.507812 183.320312 12.972656 L 185.328125 14.980469 C 185.792969 15.445312 185.792969 16.214844 185.328125 16.679688 C 185.019531 16.988281 184.710938 16.988281 184.402344 16.988281 Z M 184.402344 16.988281 "/>
<path style=" stroke:none;fill-rule:nonzero;fill:rgb(13.72549%,12.156863%,12.54902%);fill-opacity:1;" d="M 178.222656 10.8125 C 177.914062 10.8125 177.605469 10.65625 177.453125 10.5 L 175.445312 8.496094 C 174.980469 8.03125 174.980469 7.257812 175.445312 6.796875 C 175.90625 6.332031 176.679688 6.332031 177.144531 6.796875 L 179.152344 8.804688 C 179.613281 9.265625 179.613281 10.039062 179.152344 10.5 C 178.839844 10.65625 178.53125 10.8125 178.222656 10.8125 Z M 178.222656 10.8125 "/>
<path style=" stroke:none;fill-rule:nonzero;fill:rgb(13.72549%,12.156863%,12.54902%);fill-opacity:1;" d="M 185.484375 106.71875 C 185.171875 106.71875 184.863281 106.5625 184.710938 106.410156 C 184.246094 105.945312 184.246094 105.171875 184.710938 104.710938 L 186.71875 102.703125 C 187.179688 102.238281 187.953125 102.238281 188.417969 102.703125 C 188.878906 103.167969 188.878906 103.9375 188.417969 104.402344 L 186.410156 106.410156 C 186.101562 106.5625 185.792969 106.71875 185.484375 106.71875 Z M 185.484375 106.71875 "/>
<path style=" stroke:none;fill-rule:nonzero;fill:rgb(13.72549%,12.156863%,12.54902%);fill-opacity:1;" d="M 179.304688 113.050781 C 178.996094 113.050781 178.6875 112.894531 178.53125 112.742188 C 178.070312 112.277344 178.070312 111.503906 178.53125 111.042969 L 180.539062 109.035156 C 181.003906 108.570312 181.777344 108.570312 182.238281 109.035156 C 182.703125 109.5 182.703125 110.269531 182.238281 110.734375 L 180.230469 112.742188 C 179.921875 112.894531 179.613281 113.050781 179.304688 113.050781 Z M 179.304688 113.050781 "/>
<path style=" stroke:none;fill-rule:nonzero;fill:rgb(13.72549%,12.156863%,12.54902%);fill-opacity:1;" d="M 187.492188 113.050781 C 187.179688 113.050781 186.871094 112.894531 186.71875 112.742188 L 184.710938 110.734375 C 184.246094 110.269531 184.246094 109.5 184.710938 109.035156 C 185.171875 108.570312 185.945312 108.570312 186.410156 109.035156 L 188.417969 111.042969 C 188.878906 111.503906 188.878906 112.277344 188.417969 112.742188 C 188.109375 112.894531 187.800781 113.050781 187.492188 113.050781 Z M 187.492188 113.050781 "/>
<path style=" stroke:none;fill-rule:nonzero;fill:rgb(13.72549%,12.156863%,12.54902%);fill-opacity:1;" d="M 181.3125 106.71875 C 181.003906 106.71875 180.695312 106.5625 180.539062 106.410156 L 178.53125 104.402344 C 178.070312 103.9375 178.070312 103.167969 178.53125 102.703125 C 178.996094 102.238281 179.769531 102.238281 180.230469 102.703125 L 182.238281 104.710938 C 182.703125 105.171875 182.703125 105.945312 182.238281 106.410156 C 181.929688 106.5625 181.621094 106.71875 181.3125 106.71875 Z M 181.3125 106.71875 "/>
<path style=" stroke:none;fill-rule:nonzero;fill:rgb(13.72549%,12.156863%,12.54902%);fill-opacity:1;" d="M 22.703125 104.710938 C 22.394531 104.710938 22.085938 104.554688 21.929688 104.402344 C 21.46875 103.9375 21.46875 103.167969 21.929688 102.703125 L 23.9375 100.695312 C 24.402344 100.230469 25.171875 100.230469 25.636719 100.695312 C 26.101562 101.160156 26.101562 101.929688 25.636719 102.394531 L 23.628906 104.402344 C 23.320312 104.554688 23.011719 104.710938 22.703125 104.710938 Z M 22.703125 104.710938 "/>
<path style=" stroke:none;fill-rule:nonzero;fill:rgb(13.72549%,12.156863%,12.54902%);fill-opacity:1;" d="M 16.523438 110.886719 C 16.214844 110.886719 15.90625 110.734375 15.753906 110.578125 C 15.289062 110.117188 15.289062 109.34375 15.753906 108.878906 L 17.761719 106.871094 C 18.222656 106.410156 18.996094 106.410156 19.460938 106.871094 C 19.921875 107.335938 19.921875 108.109375 19.460938 108.570312 L 17.453125 110.578125 C 17.144531 110.734375 16.832031 110.886719 16.523438 110.886719 Z M 16.523438 110.886719 "/>
<path style=" stroke:none;fill-rule:nonzero;fill:rgb(13.72549%,12.156863%,12.54902%);fill-opacity:1;" d="M 24.710938 110.886719 C 24.402344 110.886719 24.09375 110.734375 23.9375 110.578125 L 21.929688 108.570312 C 21.46875 108.109375 21.46875 107.335938 21.929688 106.871094 C 22.394531 106.410156 23.167969 106.410156 23.628906 106.871094 L 25.636719 108.878906 C 26.101562 109.34375 26.101562 110.117188 25.636719 110.578125 C 25.328125 110.734375 25.019531 110.886719 24.710938 110.886719 Z M 24.710938 110.886719 "/>
<path style=" stroke:none;fill-rule:nonzero;fill:rgb(13.72549%,12.156863%,12.54902%);fill-opacity:1;" d="M 18.53125 104.710938 C 18.222656 104.710938 17.914062 104.554688 17.761719 104.402344 L 15.753906 102.394531 C 15.289062 101.929688 15.289062 101.160156 15.753906 100.695312 C 16.214844 100.230469 16.988281 100.230469 17.453125 100.695312 L 19.460938 102.703125 C 19.921875 103.167969 19.921875 103.9375 19.460938 104.402344 C 18.996094 104.554688 18.6875 104.710938 18.53125 104.710938 Z M 18.53125 104.710938 "/>
<path style=" stroke:none;fill-rule:nonzero;fill:rgb(90.196078%,91.372549%,93.333333%);fill-opacity:1;" d="M 162.007812 26.5625 L 149.34375 102.703125 L 149.5 26.5625 Z M 162.007812 26.5625 "/>
<path style=" stroke:none;fill-rule:nonzero;fill:rgb(90.196078%,91.372549%,93.333333%);fill-opacity:1;" d="M 37.527344 26.5625 L 50.039062 102.703125 L 50.039062 26.5625 Z M 37.527344 26.5625 "/>
<path style=" stroke:none;fill-rule:nonzero;fill:rgb(100%,100%,100%);fill-opacity:1;" d="M 14.054688 71.195312 L 186.71875 71.195312 L 186.71875 82.164062 L 14.054688 82.164062 Z M 14.054688 71.195312 "/>
<path style=" stroke:none;fill-rule:nonzero;fill:rgb(100%,100%,100%);fill-opacity:1;" d="M 14.054688 71.195312 L 1.234375 76.601562 L 14.054688 82.164062 Z M 14.054688 71.195312 "/>
<path style=" stroke:none;fill-rule:nonzero;fill:rgb(100%,100%,100%);fill-opacity:1;" d="M 198.917969 72.894531 L 198.917969 80.617188 C 198.917969 81.542969 198.148438 82.316406 197.21875 82.316406 L 186.71875 82.316406 L 186.71875 71.351562 L 197.21875 71.351562 C 198.148438 71.195312 198.917969 71.96875 198.917969 72.894531 Z M 198.917969 72.894531 "/>
<path style=" stroke:none;fill-rule:nonzero;fill:rgb(90.196078%,91.372549%,93.333333%);fill-opacity:1;" d="M 39.382812 126.488281 L 50.5 126.488281 L 50.5 133.746094 L 39.382812 133.746094 Z M 39.382812 126.488281 "/>
<path style=" stroke:none;fill-rule:nonzero;fill:rgb(90.196078%,91.372549%,93.333333%);fill-opacity:1;" d="M 53.128906 126.488281 L 64.246094 126.488281 L 64.246094 133.746094 L 53.128906 133.746094 Z M 53.128906 126.488281 "/>
<path style=" stroke:none;fill-rule:nonzero;fill:rgb(90.196078%,91.372549%,93.333333%);fill-opacity:1;" d="M 66.71875 126.488281 L 77.835938 126.488281 L 77.835938 133.746094 L 66.71875 133.746094 Z M 66.71875 126.488281 "/>
<path style=" stroke:none;fill-rule:nonzero;fill:rgb(90.196078%,91.372549%,93.333333%);fill-opacity:1;" d="M 80.464844 126.488281 L 91.582031 126.488281 L 91.582031 133.746094 L 80.464844 133.746094 Z M 80.464844 126.488281 "/>
<path style=" stroke:none;fill-rule:nonzero;fill:rgb(90.196078%,91.372549%,93.333333%);fill-opacity:1;" d="M 107.800781 126.488281 L 118.917969 126.488281 L 118.917969 133.746094 L 107.800781 133.746094 Z M 107.800781 126.488281 "/>
<path style=" stroke:none;fill-rule:nonzero;fill:rgb(90.196078%,91.372549%,93.333333%);fill-opacity:1;" d="M 121.699219 126.488281 L 132.820312 126.488281 L 132.820312 133.746094 L 121.699219 133.746094 Z M 121.699219 126.488281 "/>
<path style=" stroke:none;fill-rule:nonzero;fill:rgb(90.196078%,91.372549%,93.333333%);fill-opacity:1;" d="M 135.597656 126.488281 L 146.71875 126.488281 L 146.71875 133.746094 L 135.597656 133.746094 Z M 135.597656 126.488281 "/>
<path style=" stroke:none;fill-rule:nonzero;fill:rgb(90.196078%,91.372549%,93.333333%);fill-opacity:1;" d="M 149.5 126.488281 L 160.617188 126.488281 L 160.617188 133.746094 L 149.5 133.746094 Z M 149.5 126.488281 "/>
<path style=" stroke:none;fill-rule:nonzero;fill:rgb(90.196078%,91.372549%,93.333333%);fill-opacity:1;" d="M 94.207031 126.488281 L 105.328125 126.488281 L 105.328125 133.746094 L 94.207031 133.746094 Z M 94.207031 126.488281 "/>
<path style=" stroke:none;fill-rule:nonzero;fill:rgb(90.196078%,91.372549%,93.333333%);fill-opacity:1;" d="M 46.175781 116.601562 L 57.296875 116.601562 L 57.296875 123.859375 L 46.175781 123.859375 Z M 46.175781 116.601562 "/>
<path style=" stroke:none;fill-rule:nonzero;fill:rgb(90.196078%,91.372549%,93.333333%);fill-opacity:1;" d="M 59.921875 116.601562 L 71.042969 116.601562 L 71.042969 123.859375 L 59.921875 123.859375 Z M 59.921875 116.601562 "/>
<path style=" stroke:none;fill-rule:nonzero;fill:rgb(90.196078%,91.372549%,93.333333%);fill-opacity:1;" d="M 73.667969 116.601562 L 84.789062 116.601562 L 84.789062 123.859375 L 73.667969 123.859375 Z M 73.667969 116.601562 "/>
<path style=" stroke:none;fill-rule:nonzero;fill:rgb(90.196078%,91.372549%,93.333333%);fill-opacity:1;" d="M 101.003906 116.601562 L 112.125 116.601562 L 112.125 123.859375 L 101.003906 123.859375 Z M 101.003906 116.601562 "/>
<path style=" stroke:none;fill-rule:nonzero;fill:rgb(90.196078%,91.372549%,93.333333%);fill-opacity:1;" d="M 114.902344 116.601562 L 126.023438 116.601562 L 126.023438 123.859375 L 114.902344 123.859375 Z M 114.902344 116.601562 "/>
<path style=" stroke:none;fill-rule:nonzero;fill:rgb(90.196078%,91.372549%,93.333333%);fill-opacity:1;" d="M 128.804688 116.601562 L 139.921875 116.601562 L 139.921875 123.859375 L 128.804688 123.859375 Z M 128.804688 116.601562 "/>
<path style=" stroke:none;fill-rule:nonzero;fill:rgb(90.196078%,91.372549%,93.333333%);fill-opacity:1;" d="M 142.546875 116.601562 L 153.667969 116.601562 L 153.667969 123.859375 L 142.546875 123.859375 Z M 142.546875 116.601562 "/>
<path style=" stroke:none;fill-rule:nonzero;fill:rgb(90.196078%,91.372549%,93.333333%);fill-opacity:1;" d="M 87.257812 116.601562 L 98.378906 116.601562 L 98.378906 123.859375 L 87.257812 123.859375 Z M 87.257812 116.601562 "/>
<path style=" stroke:none;fill-rule:nonzero;fill:rgb(90.196078%,91.372549%,93.333333%);fill-opacity:1;" d="M 46.175781 136.0625 L 57.296875 136.0625 L 57.296875 143.320312 L 46.175781 143.320312 Z M 46.175781 136.0625 "/>
<path style=" stroke:none;fill-rule:nonzero;fill:rgb(90.196078%,91.372549%,93.333333%);fill-opacity:1;" d="M 59.921875 136.0625 L 71.042969 136.0625 L 71.042969 143.320312 L 59.921875 143.320312 Z M 59.921875 136.0625 "/>
<path style=" stroke:none;fill-rule:nonzero;fill:rgb(90.196078%,91.372549%,93.333333%);fill-opacity:1;" d="M 73.667969 136.0625 L 84.789062 136.0625 L 84.789062 143.320312 L 73.667969 143.320312 Z M 73.667969 136.0625 "/>
<path style=" stroke:none;fill-rule:nonzero;fill:rgb(90.196078%,91.372549%,93.333333%);fill-opacity:1;" d="M 101.003906 136.0625 L 112.125 136.0625 L 112.125 143.320312 L 101.003906 143.320312 Z M 101.003906 136.0625 "/>
<path style=" stroke:none;fill-rule:nonzero;fill:rgb(90.196078%,91.372549%,93.333333%);fill-opacity:1;" d="M 114.902344 136.0625 L 126.023438 136.0625 L 126.023438 143.320312 L 114.902344 143.320312 Z M 114.902344 136.0625 "/>
<path style=" stroke:none;fill-rule:nonzero;fill:rgb(90.196078%,91.372549%,93.333333%);fill-opacity:1;" d="M 128.804688 136.0625 L 139.921875 136.0625 L 139.921875 143.320312 L 128.804688 143.320312 Z M 128.804688 136.0625 "/>
<path style=" stroke:none;fill-rule:nonzero;fill:rgb(90.196078%,91.372549%,93.333333%);fill-opacity:1;" d="M 142.546875 136.0625 L 153.667969 136.0625 L 153.667969 143.320312 L 142.546875 143.320312 Z M 142.546875 136.0625 "/>
<path style=" stroke:none;fill-rule:nonzero;fill:rgb(90.196078%,91.372549%,93.333333%);fill-opacity:1;" d="M 87.257812 136.0625 L 98.378906 136.0625 L 98.378906 143.320312 L 87.257812 143.320312 Z M 87.257812 136.0625 "/>
<path style=" stroke:none;fill-rule:nonzero;fill:rgb(90.196078%,91.372549%,93.333333%);fill-opacity:1;" d="M 79.226562 146.410156 L 117.21875 146.410156 L 117.21875 162.316406 L 79.226562 162.316406 Z M 79.226562 146.410156 "/>
<path style=" stroke:none;fill-rule:nonzero;fill:rgb(100%,100%,100%);fill-opacity:1;" d="M 157.992188 136.832031 C 155.367188 136.523438 153.203125 138.6875 153.203125 141.160156 L 153.203125 134.363281 C 153.203125 132.046875 151.503906 130.039062 149.34375 129.882812 C 146.71875 129.574219 144.554688 131.738281 144.554688 134.207031 L 144.554688 128.183594 C 144.554688 125.558594 142.394531 123.550781 139.769531 123.859375 C 137.453125 124.015625 135.90625 126.175781 135.90625 128.339844 L 135.90625 133.746094 C 135.90625 131.121094 133.746094 129.113281 131.121094 129.421875 C 128.804688 129.574219 127.257812 131.738281 127.257812 133.898438 L 127.257812 152.585938 C 127.257812 149.960938 125.097656 147.953125 122.472656 148.261719 C 120.15625 148.417969 118.609375 150.578125 118.609375 152.742188 L 118.609375 165.867188 C 118.609375 172.046875 121.390625 177.914062 126.332031 181.777344 C 129.730469 184.554688 131.738281 188.726562 131.738281 193.050781 L 131.738281 198.609375 L 158.609375 198.609375 L 158.609375 192.277344 C 158.609375 190.117188 158.765625 187.953125 159.226562 185.945312 L 161.851562 177.144531 C 162.164062 174.980469 162.472656 172.820312 162.472656 170.8125 L 162.472656 141.3125 C 162.007812 139.152344 160.308594 136.988281 157.992188 136.832031 Z M 157.992188 136.832031 "/>
<path style=" stroke:none;fill-rule:nonzero;fill:rgb(100%,100%,100%);fill-opacity:1;" d="M 42.007812 136.832031 C 44.632812 136.523438 46.796875 138.6875 46.796875 141.160156 L 46.796875 134.363281 C 46.796875 132.046875 48.496094 130.039062 50.65625 129.882812 C 53.28125 129.574219 55.445312 131.738281 55.445312 134.207031 L 55.445312 128.183594 C 55.445312 125.558594 57.605469 123.550781 60.230469 123.859375 C 62.546875 124.015625 64.09375 126.175781 64.09375 128.339844 L 64.09375 133.746094 C 64.09375 131.121094 66.253906 129.113281 68.878906 129.421875 C 71.195312 129.574219 72.742188 131.738281 72.742188 133.898438 L 72.742188 152.585938 C 72.742188 149.960938 74.902344 147.953125 77.527344 148.261719 C 79.84375 148.417969 81.390625 150.578125 81.390625 152.742188 L 81.390625 165.867188 C 81.390625 172.046875 78.609375 177.914062 73.667969 181.777344 C 70.269531 184.554688 68.261719 188.726562 68.261719 193.050781 L 68.261719 198.609375 L 41.699219 198.609375 L 41.699219 192.277344 C 41.699219 190.117188 41.542969 187.953125 41.082031 185.945312 L 38.457031 177.144531 C 38.148438 174.980469 37.835938 172.820312 37.835938 170.8125 L 37.835938 141.3125 C 37.992188 139.152344 39.691406 136.988281 42.007812 136.832031 Z M 42.007812 136.832031 "/>
<path style=" stroke:none;fill-rule:nonzero;fill:rgb(100%,100%,100%);fill-opacity:1;" d="M 149.34375 102.703125 L 149.34375 4.015625 C 149.34375 2.472656 148.109375 1.390625 146.71875 1.390625 L 53.28125 1.390625 C 51.738281 1.390625 50.65625 2.625 50.65625 4.015625 L 50.65625 102.703125 Z M 149.34375 102.703125 "/>
<path style=" stroke:none;fill-rule:nonzero;fill:rgb(90.196078%,91.372549%,93.333333%);fill-opacity:1;" d="M 149.34375 23.320312 L 149.34375 4.015625 C 149.34375 2.472656 148.109375 1.390625 146.71875 1.390625 L 53.28125 1.390625 C 51.738281 1.390625 50.65625 2.625 50.65625 4.015625 L 50.65625 23.167969 L 149.34375 23.167969 Z M 149.34375 23.320312 "/>
<path style=" stroke:none;fill-rule:nonzero;fill:rgb(32.941176%,75.294118%,92.156863%);fill-opacity:1;" d="M 149.34375 4.015625 L 149.34375 11.738281 L 77.683594 11.738281 L 75.832031 6.488281 L 60.230469 6.488281 L 58.378906 11.738281 L 50.65625 11.738281 L 50.65625 4.015625 C 50.65625 2.472656 51.890625 1.390625 53.28125 1.390625 L 146.71875 1.390625 C 148.109375 1.390625 149.34375 2.625 149.34375 4.015625 Z M 149.34375 4.015625 "/>
<path style=" stroke:none;fill-rule:nonzero;fill:rgb(100%,43.921569%,34.509804%);fill-opacity:1;" d="M 144.710938 6.640625 C 144.710938 8.003906 143.605469 9.113281 142.238281 9.113281 C 140.875 9.113281 139.769531 8.003906 139.769531 6.640625 C 139.769531 5.277344 140.875 4.167969 142.238281 4.167969 C 143.605469 4.167969 144.710938 5.277344 144.710938 6.640625 Z M 144.710938 6.640625 "/>
<path style=" stroke:none;fill-rule:nonzero;fill:rgb(100%,81.568627%,35.686275%);fill-opacity:1;" d="M 137.761719 6.640625 C 137.761719 8.003906 136.652344 9.113281 135.289062 9.113281 C 133.925781 9.113281 132.820312 8.003906 132.820312 6.640625 C 132.820312 5.277344 133.925781 4.167969 135.289062 4.167969 C 136.652344 4.167969 137.761719 5.277344 137.761719 6.640625 Z M 137.761719 6.640625 "/>
<path style=" stroke:none;fill-rule:nonzero;fill:rgb(90.196078%,91.372549%,93.333333%);fill-opacity:1;" d="M 131.121094 6.640625 C 131.121094 8.003906 130.011719 9.113281 128.648438 9.113281 C 127.285156 9.113281 126.175781 8.003906 126.175781 6.640625 C 126.175781 5.277344 127.285156 4.167969 128.648438 4.167969 C 130.011719 4.167969 131.121094 5.277344 131.121094 6.640625 Z M 131.121094 6.640625 "/>
<path style=" stroke:none;fill-rule:nonzero;fill:rgb(80.784314%,83.529412%,87.843137%);fill-opacity:1;" d="M 96.988281 11.738281 L 77.683594 11.738281 L 79.535156 6.640625 L 95.136719 6.640625 Z M 96.988281 11.738281 "/>
<path style=" stroke:none;fill-rule:nonzero;fill:rgb(100%,100%,100%);fill-opacity:1;" d="M 63.628906 14.515625 L 134.207031 14.515625 L 134.207031 20.847656 L 63.628906 20.847656 Z M 63.628906 14.515625 "/>
<path style=" stroke:none;fill-rule:nonzero;fill:rgb(19.607843%,29.019608%,36.862745%);fill-opacity:1;" d="M 65.636719 16.214844 L 65.945312 16.214844 L 65.945312 17.453125 C 65.945312 17.296875 66.101562 17.296875 66.253906 17.144531 C 66.410156 17.144531 66.5625 16.988281 66.5625 16.988281 C 66.871094 16.988281 67.335938 17.144531 67.335938 17.914062 L 67.335938 19.152344 L 67.027344 19.152344 L 67.027344 18.070312 C 67.027344 17.761719 66.871094 17.453125 66.5625 17.453125 C 66.253906 17.453125 66.101562 17.605469 66.101562 17.761719 C 66.101562 17.761719 66.101562 17.914062 66.101562 17.914062 L 66.101562 19.152344 L 65.792969 19.152344 L 65.792969 16.214844 Z M 65.636719 16.214844 "/>
<path style=" stroke:none;fill-rule:nonzero;fill:rgb(19.607843%,29.019608%,36.862745%);fill-opacity:1;" d="M 68.261719 16.523438 L 68.261719 17.144531 L 68.726562 17.144531 L 68.726562 17.453125 L 68.261719 17.453125 L 68.261719 18.53125 C 68.261719 18.839844 68.261719 18.996094 68.570312 18.996094 C 68.726562 18.996094 68.726562 18.996094 68.726562 18.996094 L 68.726562 19.304688 C 68.726562 19.304688 68.570312 19.304688 68.417969 19.304688 C 68.261719 19.304688 68.109375 19.304688 67.953125 19.152344 C 67.953125 18.839844 67.953125 18.6875 67.953125 18.378906 L 67.953125 17.296875 L 67.644531 17.296875 L 67.644531 16.988281 L 67.953125 16.988281 L 67.953125 16.523438 Z M 68.261719 16.523438 "/>
<path style=" stroke:none;fill-rule:nonzero;fill:rgb(19.607843%,29.019608%,36.862745%);fill-opacity:1;" d="M 69.652344 16.523438 L 69.652344 17.144531 L 70.117188 17.144531 L 70.117188 17.453125 L 69.652344 17.453125 L 69.652344 18.53125 C 69.652344 18.839844 69.652344 18.996094 69.960938 18.996094 C 70.117188 18.996094 70.117188 18.996094 70.117188 18.996094 L 70.117188 19.304688 C 70.117188 19.304688 69.960938 19.304688 69.808594 19.304688 C 69.652344 19.304688 69.5 19.304688 69.34375 19.152344 C 69.1875 18.996094 69.1875 18.839844 69.1875 18.6875 L 69.1875 17.605469 L 68.878906 17.605469 L 68.878906 17.296875 L 69.1875 17.296875 L 69.1875 16.832031 Z M 69.652344 16.523438 "/>
<path style=" stroke:none;fill-rule:nonzero;fill:rgb(19.607843%,29.019608%,36.862745%);fill-opacity:1;" d="M 70.578125 17.761719 C 70.578125 17.453125 70.578125 17.296875 70.578125 17.144531 L 70.886719 17.144531 L 70.886719 17.453125 C 71.042969 17.144531 71.195312 16.988281 71.660156 16.988281 C 72.125 16.988281 72.433594 17.453125 72.433594 18.070312 C 72.433594 18.839844 71.96875 19.152344 71.503906 19.152344 C 71.195312 19.152344 71.042969 18.996094 70.886719 18.839844 L 70.886719 19.921875 L 70.578125 19.921875 Z M 71.042969 18.222656 C 71.042969 18.378906 71.042969 18.378906 71.042969 18.222656 C 71.195312 18.6875 71.351562 18.839844 71.660156 18.839844 C 71.96875 18.839844 72.277344 18.53125 72.277344 18.070312 C 72.277344 17.605469 72.125 17.296875 71.660156 17.296875 C 71.351562 17.296875 71.195312 17.453125 71.042969 17.761719 C 71.042969 17.761719 71.042969 17.914062 71.042969 17.914062 Z M 71.042969 18.222656 "/>
<path style=" stroke:none;fill-rule:nonzero;fill:rgb(19.607843%,29.019608%,36.862745%);fill-opacity:1;" d="M 72.894531 17.453125 C 72.894531 17.296875 73.050781 17.144531 73.203125 17.144531 C 73.359375 17.144531 73.511719 17.296875 73.511719 17.453125 C 73.511719 17.605469 73.359375 17.761719 73.203125 17.761719 C 73.050781 17.605469 72.894531 17.605469 72.894531 17.453125 Z M 72.894531 18.839844 C 72.894531 18.6875 73.050781 18.53125 73.203125 18.53125 C 73.359375 18.53125 73.511719 18.6875 73.511719 18.839844 C 73.511719 18.996094 73.359375 19.152344 73.203125 19.152344 C 73.050781 19.152344 72.894531 18.996094 72.894531 18.839844 Z M 72.894531 18.839844 "/>
<path style=" stroke:none;fill-rule:nonzero;fill:rgb(19.607843%,29.019608%,36.862745%);fill-opacity:1;" d="M 73.511719 19.304688 L 74.59375 16.371094 L 74.902344 16.371094 L 73.824219 19.304688 Z M 73.511719 19.304688 "/>
<path style=" stroke:none;fill-rule:nonzero;fill:rgb(19.607843%,29.019608%,36.862745%);fill-opacity:1;" d="M 74.902344 19.304688 L 75.984375 16.371094 L 76.292969 16.371094 L 75.210938 19.304688 Z M 74.902344 19.304688 "/>
<path style=" stroke:none;fill-rule:nonzero;fill:rgb(19.607843%,29.019608%,36.862745%);fill-opacity:1;" d="M 77.683594 17.144531 L 77.992188 18.222656 C 77.992188 18.378906 78.148438 18.6875 78.148438 18.839844 C 78.148438 18.6875 78.300781 18.378906 78.300781 18.222656 L 78.609375 17.144531 L 78.917969 17.144531 L 79.226562 18.070312 C 79.226562 18.378906 79.382812 18.53125 79.382812 18.6875 C 79.382812 18.53125 79.535156 18.222656 79.535156 18.070312 L 79.84375 17.144531 L 80.15625 17.144531 L 79.535156 19.152344 L 79.226562 19.152344 L 78.917969 18.222656 C 78.917969 18.070312 78.765625 17.761719 78.765625 17.605469 C 78.765625 17.914062 78.609375 18.070312 78.609375 18.222656 L 78.300781 19.152344 L 77.992188 19.152344 L 77.375 17.144531 Z M 77.683594 17.144531 "/>
<path style=" stroke:none;fill-rule:nonzero;fill:rgb(19.607843%,29.019608%,36.862745%);fill-opacity:1;" d="M 80.773438 17.144531 L 81.082031 18.222656 C 81.082031 18.378906 81.234375 18.6875 81.234375 18.839844 C 81.234375 18.6875 81.390625 18.378906 81.390625 18.222656 L 81.699219 17.144531 L 82.007812 17.144531 L 82.316406 18.070312 C 82.316406 18.378906 82.472656 18.53125 82.472656 18.6875 C 82.472656 18.53125 82.625 18.222656 82.625 18.070312 L 82.933594 17.144531 L 83.242188 17.144531 L 82.625 19.152344 L 82.316406 19.152344 L 82.007812 18.222656 C 82.007812 18.070312 81.851562 17.761719 81.851562 17.605469 C 81.851562 17.914062 81.699219 18.070312 81.699219 18.222656 L 81.390625 19.152344 L 81.082031 19.152344 L 80.464844 17.144531 Z M 80.773438 17.144531 "/>
<path style=" stroke:none;fill-rule:nonzero;fill:rgb(19.607843%,29.019608%,36.862745%);fill-opacity:1;" d="M 83.859375 17.144531 L 84.167969 18.222656 C 84.167969 18.378906 84.324219 18.6875 84.324219 18.839844 C 84.324219 18.6875 84.480469 18.378906 84.480469 18.222656 L 84.789062 17.144531 L 85.097656 17.144531 L 85.40625 18.070312 C 85.40625 18.378906 85.558594 18.53125 85.558594 18.6875 C 85.558594 18.53125 85.714844 18.222656 85.714844 18.070312 L 86.023438 17.144531 L 86.332031 17.144531 L 85.714844 19.152344 L 85.40625 19.152344 L 85.097656 18.222656 C 85.097656 18.070312 84.941406 17.761719 84.941406 17.605469 C 84.941406 17.914062 84.789062 18.070312 84.789062 18.222656 L 84.480469 19.152344 L 84.167969 19.152344 L 83.550781 17.144531 Z M 83.859375 17.144531 "/>
<path style=" stroke:none;fill-rule:nonzero;fill:rgb(19.607843%,29.019608%,36.862745%);fill-opacity:1;" d="M 86.488281 18.839844 C 86.488281 18.6875 86.640625 18.53125 86.796875 18.53125 C 86.949219 18.53125 87.105469 18.6875 87.105469 18.839844 C 87.105469 18.996094 86.949219 19.152344 86.796875 19.152344 C 86.640625 19.152344 86.488281 18.996094 86.488281 18.839844 Z M 86.488281 18.839844 "/>
<path style=" stroke:none;fill-rule:nonzero;fill:rgb(100%,100%,100%);fill-opacity:1;" d="M 183.476562 27.644531 C 180.539062 27.644531 177.914062 28.878906 176.214844 31.042969 C 174.515625 29.035156 171.890625 27.644531 168.957031 27.644531 C 163.550781 27.644531 159.226562 31.96875 159.226562 37.375 C 159.226562 50.191406 176.214844 59.613281 176.214844 59.613281 C 176.214844 59.613281 193.203125 50.347656 193.203125 37.375 C 193.203125 31.96875 188.878906 27.644531 183.476562 27.644531 Z M 183.476562 27.644531 "/>
<path style=" stroke:none;fill-rule:nonzero;fill:rgb(100%,43.921569%,34.509804%);fill-opacity:1;" d="M 176.214844 56.832031 C 172.664062 54.671875 162.472656 47.566406 161.699219 38.609375 C 161.390625 35.210938 163.242188 31.816406 166.488281 30.578125 C 169.421875 29.5 172.507812 30.425781 174.515625 32.742188 C 175.445312 33.824219 177.144531 33.824219 178.070312 32.742188 C 180.078125 30.425781 183.167969 29.652344 186.101562 30.578125 C 189.34375 31.816406 191.195312 35.210938 190.886719 38.609375 C 189.960938 47.414062 179.613281 54.671875 176.214844 56.832031 Z M 176.214844 56.832031 "/>
<path style=" stroke:none;fill-rule:nonzero;fill:rgb(100%,100%,100%);fill-opacity:1;" d="M 28.109375 63.320312 C 32.894531 63.320312 37.375 62.085938 41.234375 59.921875 L 54.980469 63.320312 L 51.582031 49.421875 C 53.746094 45.558594 54.980469 41.082031 54.980469 36.292969 C 54.980469 21.46875 42.933594 9.421875 28.109375 9.421875 C 13.28125 9.421875 1.234375 21.46875 1.234375 36.292969 C 1.234375 51.121094 13.28125 63.320312 28.109375 63.320312 Z M 28.109375 63.320312 "/>
<path style=" stroke:none;fill-rule:nonzero;fill:rgb(13.72549%,12.156863%,12.54902%);fill-opacity:1;" d="M 153.203125 154.902344 C 152.585938 154.902344 151.96875 155.367188 151.96875 156.140625 L 151.96875 157.683594 C 151.96875 158.300781 152.433594 158.917969 153.203125 158.917969 C 153.824219 158.917969 154.441406 158.457031 154.441406 157.683594 L 154.441406 156.140625 C 154.441406 155.519531 153.824219 154.902344 153.203125 154.902344 Z M 153.203125 154.902344 "/>
<path style=" stroke:none;fill-rule:nonzero;fill:rgb(13.72549%,12.156863%,12.54902%);fill-opacity:1;" d="M 144.554688 158.300781 C 143.9375 158.300781 143.320312 158.765625 143.320312 159.535156 L 143.320312 161.082031 C 143.320312 161.699219 143.785156 162.316406 144.554688 162.316406 C 145.171875 162.316406 145.792969 161.851562 145.792969 161.082031 L 145.792969 159.535156 C 145.636719 158.917969 145.171875 158.300781 144.554688 158.300781 Z M 144.554688 158.300781 "/>
<path style=" stroke:none;fill-rule:nonzero;fill:rgb(13.72549%,12.156863%,12.54902%);fill-opacity:1;" d="M 135.753906 158.300781 C 135.136719 158.300781 134.515625 158.765625 134.515625 159.535156 L 134.515625 161.082031 C 134.515625 161.699219 134.980469 162.316406 135.753906 162.316406 C 136.371094 162.316406 136.988281 161.851562 136.988281 161.082031 L 136.988281 159.535156 C 136.832031 158.917969 136.371094 158.300781 135.753906 158.300781 Z M 135.753906 158.300781 "/>
<path style=" stroke:none;fill-rule:nonzero;fill:rgb(13.72549%,12.156863%,12.54902%);fill-opacity:1;" d="M 46.796875 154.902344 C 46.175781 154.902344 45.558594 155.367188 45.558594 156.140625 L 45.558594 157.683594 C 45.558594 158.300781 46.023438 158.917969 46.796875 158.917969 C 47.414062 158.917969 48.03125 158.457031 48.03125 157.683594 L 48.03125 156.140625 C 47.875 155.519531 47.414062 154.902344 46.796875 154.902344 Z M 46.796875 154.902344 "/>
<path style=" stroke:none;fill-rule:nonzero;fill:rgb(13.72549%,12.156863%,12.54902%);fill-opacity:1;" d="M 55.445312 158.300781 C 54.828125 158.300781 54.207031 158.765625 54.207031 159.535156 L 54.207031 161.082031 C 54.207031 161.699219 54.671875 162.316406 55.445312 162.316406 C 56.0625 162.316406 56.679688 161.851562 56.679688 161.082031 L 56.679688 159.535156 C 56.679688 158.917969 56.214844 158.300781 55.445312 158.300781 Z M 55.445312 158.300781 "/>
<path style=" stroke:none;fill-rule:nonzero;fill:rgb(13.72549%,12.156863%,12.54902%);fill-opacity:1;" d="M 64.246094 158.300781 C 63.628906 158.300781 63.011719 158.765625 63.011719 159.535156 L 63.011719 161.082031 C 63.011719 161.699219 63.476562 162.316406 64.246094 162.316406 C 64.863281 162.316406 65.484375 161.851562 65.484375 161.082031 L 65.484375 159.535156 C 65.484375 158.917969 64.863281 158.300781 64.246094 158.300781 Z M 64.246094 158.300781 "/>
<path style=" stroke:none;fill-rule:nonzero;fill:rgb(13.72549%,12.156863%,12.54902%);fill-opacity:1;" d="M 197.21875 69.960938 L 163.707031 69.960938 L 163.707031 50.8125 C 168.648438 56.679688 175.289062 60.386719 175.753906 60.695312 C 175.90625 60.847656 176.0625 60.847656 176.371094 60.847656 C 176.523438 60.847656 176.679688 60.847656 176.988281 60.695312 C 177.761719 60.230469 194.59375 50.8125 194.59375 37.527344 C 194.59375 31.503906 189.808594 26.71875 183.785156 26.71875 C 181.003906 26.71875 178.53125 27.800781 176.523438 29.5 C 174.515625 27.644531 171.890625 26.71875 169.265625 26.71875 C 167.257812 26.71875 165.40625 27.335938 163.707031 28.261719 C 163.089844 26.71875 161.699219 25.636719 159.84375 25.636719 L 150.734375 25.636719 L 150.734375 4.015625 C 150.734375 1.851562 149.035156 0.15625 146.871094 0.15625 L 53.28125 0.15625 C 51.121094 0.15625 49.421875 1.851562 49.421875 4.015625 L 49.421875 18.070312 C 44.324219 12.046875 36.601562 8.183594 28.109375 8.183594 C 12.664062 8.183594 0 20.847656 0 36.292969 C 0 51.738281 12.664062 64.402344 28.109375 64.402344 C 30.886719 64.402344 33.667969 63.9375 36.292969 63.167969 L 36.292969 70.117188 L 14.054688 70.117188 C 13.898438 70.117188 13.746094 70.117188 13.589844 70.269531 L 0.773438 75.675781 C 0.308594 75.832031 0 76.140625 0 76.601562 C 0 77.066406 0.308594 77.527344 0.773438 77.683594 L 13.589844 83.089844 C 13.746094 83.089844 13.898438 83.242188 14.054688 83.242188 L 36.449219 83.242188 L 36.449219 112.433594 L 14.515625 157.527344 C 14.054688 158.300781 13.746094 159.226562 13.746094 160.308594 L 13.746094 166.949219 C 13.746094 169.882812 16.0625 172.199219 18.996094 172.199219 L 36.910156 172.199219 C 36.910156 174.054688 37.066406 175.90625 37.527344 177.761719 L 40.15625 186.410156 C 40.464844 188.417969 40.617188 190.578125 40.617188 192.585938 L 40.617188 197.683594 L 37.066406 197.683594 C 36.449219 197.683594 35.832031 198.148438 35.832031 198.917969 C 35.832031 199.535156 36.292969 200.15625 37.066406 200.15625 L 74.285156 200.15625 C 74.902344 200.15625 75.519531 199.691406 75.519531 198.917969 C 75.519531 198.300781 75.058594 197.683594 74.285156 197.683594 L 69.808594 197.683594 L 69.808594 193.050781 C 69.808594 189.035156 71.660156 185.171875 74.75 182.703125 C 78.300781 179.921875 80.773438 176.214844 82.007812 171.890625 L 117.992188 171.890625 C 119.226562 176.0625 121.699219 179.769531 125.25 182.703125 C 128.496094 185.171875 130.191406 189.035156 130.191406 193.050781 L 130.191406 197.375 L 125.714844 197.375 C 125.097656 197.375 124.480469 197.835938 124.480469 198.609375 C 124.480469 199.226562 124.941406 199.84375 125.714844 199.84375 L 162.933594 199.84375 C 163.550781 199.84375 164.167969 199.382812 164.167969 198.609375 C 164.167969 197.992188 163.707031 197.375 162.933594 197.375 L 159.382812 197.375 L 159.382812 192.277344 C 159.382812 190.269531 159.535156 188.109375 159.84375 186.253906 L 162.472656 177.453125 C 162.78125 175.597656 162.933594 173.898438 162.933594 172.046875 L 180.847656 172.046875 C 183.785156 172.046875 186.101562 169.730469 186.101562 166.796875 L 186.101562 160.15625 C 186.101562 159.226562 185.792969 158.300781 185.328125 157.527344 L 163.707031 112.433594 L 163.707031 83.242188 L 197.21875 83.242188 C 198.765625 83.242188 200 82.007812 200 80.464844 L 200 72.742188 C 200 71.351562 198.765625 69.960938 197.21875 69.960938 Z M 12.820312 80.308594 L 4.167969 76.601562 L 12.820312 72.894531 Z M 168.804688 28.878906 C 171.273438 28.878906 173.589844 29.960938 175.289062 31.816406 C 175.753906 32.277344 176.679688 32.277344 176.988281 31.816406 C 178.6875 29.960938 181.003906 28.878906 183.476562 28.878906 C 188.109375 28.878906 191.96875 32.742188 191.96875 37.375 C 191.96875 48.03125 178.996094 56.523438 176.214844 58.222656 C 173.28125 56.523438 160.464844 48.183594 160.464844 37.375 C 160.308594 32.742188 164.167969 28.878906 168.804688 28.878906 Z M 150.578125 27.800781 L 159.691406 27.800781 C 160.617188 27.800781 161.390625 28.570312 161.390625 29.5 C 159.382812 31.503906 158.148438 34.285156 158.148438 37.21875 C 158.148438 40.925781 159.535156 44.480469 161.390625 47.414062 L 161.390625 69.808594 L 150.578125 69.808594 Z M 150.578125 83.242188 L 161.390625 83.242188 L 161.390625 101.46875 L 150.578125 101.46875 Z M 161.390625 103.9375 L 161.390625 111.660156 L 38.609375 111.660156 L 38.609375 103.9375 Z M 38.609375 101.621094 L 38.609375 83.242188 L 49.421875 83.242188 L 49.421875 101.46875 L 38.609375 101.46875 Z M 49.421875 69.960938 L 38.609375 69.960938 L 38.609375 62.238281 C 39.535156 61.929688 40.464844 61.46875 41.390625 61.003906 L 49.421875 63.011719 Z M 51.738281 4.015625 C 51.738281 3.242188 52.355469 2.472656 53.28125 2.472656 L 146.71875 2.472656 C 147.492188 2.472656 148.261719 3.089844 148.261719 4.015625 L 148.261719 101.46875 L 51.738281 101.46875 L 51.738281 63.628906 L 54.671875 64.402344 C 54.828125 64.402344 54.828125 64.402344 54.980469 64.402344 C 55.289062 64.402344 55.597656 64.246094 55.753906 64.09375 C 56.0625 63.785156 56.214844 63.320312 56.0625 63.011719 L 52.664062 49.730469 C 54.828125 45.714844 56.0625 41.082031 56.0625 36.449219 C 56.0625 30.886719 54.363281 25.792969 51.738281 21.46875 Z M 28.109375 62.085938 C 13.898438 62.085938 2.316406 50.5 2.316406 36.292969 C 2.316406 22.085938 13.898438 10.5 28.109375 10.5 C 42.316406 10.5 53.898438 22.085938 53.898438 36.292969 C 53.898438 40.617188 52.820312 45.097656 50.65625 48.957031 C 50.5 49.265625 50.5 49.574219 50.5 49.882812 L 53.4375 61.777344 L 41.542969 58.6875 C 41.234375 58.6875 40.925781 58.6875 40.617188 58.839844 C 36.910156 61.003906 32.433594 62.085938 28.109375 62.085938 Z M 15.136719 72.277344 L 49.421875 72.277344 L 49.421875 75.367188 L 15.136719 75.367188 Z M 15.136719 80.925781 L 15.136719 77.835938 L 49.421875 77.835938 L 49.421875 80.925781 Z M 80.617188 165.867188 C 80.617188 171.738281 77.992188 177.144531 73.359375 180.847656 C 69.652344 183.785156 67.492188 188.261719 67.492188 193.050781 L 67.492188 197.375 L 42.933594 197.375 L 42.933594 192.277344 C 42.933594 190.117188 42.78125 187.800781 42.316406 185.484375 L 39.691406 176.832031 C 39.382812 174.828125 39.226562 172.664062 39.226562 170.65625 L 39.226562 141.3125 C 39.226562 139.613281 40.464844 138.070312 42.164062 137.914062 C 44.015625 137.761719 45.714844 139.304688 45.714844 141.160156 L 45.714844 152.585938 C 45.714844 153.203125 46.175781 153.824219 46.949219 153.824219 C 47.566406 153.824219 48.183594 153.359375 48.183594 152.585938 L 48.183594 134.363281 C 48.183594 132.664062 49.421875 131.121094 51.121094 130.964844 C 52.972656 130.8125 54.671875 132.355469 54.671875 134.207031 L 54.671875 155.367188 C 54.671875 155.984375 55.136719 156.601562 55.90625 156.601562 C 56.523438 156.601562 57.144531 156.140625 57.144531 155.367188 L 57.144531 128.183594 C 57.144531 126.332031 58.6875 124.789062 60.695312 124.941406 C 62.238281 125.097656 63.628906 126.640625 63.628906 128.339844 L 63.628906 155.367188 C 63.628906 155.984375 64.09375 156.601562 64.863281 156.601562 C 65.484375 156.601562 66.101562 156.140625 66.101562 155.367188 L 66.101562 133.898438 C 66.101562 132.046875 67.644531 130.5 69.652344 130.65625 C 71.195312 130.8125 72.585938 132.355469 72.585938 134.054688 L 72.585938 163.089844 C 72.585938 163.707031 73.050781 164.324219 73.824219 164.324219 C 74.59375 164.324219 75.058594 163.859375 75.058594 163.089844 L 75.058594 152.585938 C 75.058594 150.734375 76.601562 149.1875 78.609375 149.34375 C 80.15625 149.5 81.542969 151.042969 81.542969 152.742188 L 81.542969 165.867188 Z M 160.773438 170.8125 C 160.773438 172.820312 160.617188 174.980469 160.308594 176.832031 L 157.683594 185.636719 C 157.375 187.800781 157.066406 189.960938 157.066406 192.277344 L 157.066406 197.375 L 132.664062 197.375 L 132.664062 193.050781 C 132.664062 188.261719 130.5 183.785156 126.796875 180.847656 C 122.164062 177.144531 119.535156 171.738281 119.535156 165.867188 L 119.535156 152.894531 C 119.535156 151.195312 120.773438 149.652344 122.472656 149.5 C 124.324219 149.34375 126.023438 150.886719 126.023438 152.742188 L 126.023438 163.242188 C 126.023438 163.859375 126.488281 164.480469 127.257812 164.480469 C 127.875 164.480469 128.496094 164.015625 128.496094 163.242188 L 128.496094 134.054688 C 128.496094 132.355469 129.730469 130.8125 131.429688 130.65625 C 133.28125 130.5 134.980469 132.046875 134.980469 133.898438 L 134.980469 155.367188 C 134.980469 155.984375 135.445312 156.601562 136.214844 156.601562 C 136.832031 156.601562 137.453125 156.140625 137.453125 155.367188 L 137.453125 128.339844 C 137.453125 126.640625 138.6875 125.097656 140.386719 124.941406 C 142.238281 124.789062 143.9375 126.332031 143.9375 128.183594 L 143.9375 155.367188 C 143.9375 155.984375 144.402344 156.601562 145.171875 156.601562 C 145.792969 156.601562 146.410156 156.140625 146.410156 155.367188 L 146.410156 134.207031 C 146.410156 132.355469 147.953125 130.8125 149.960938 130.964844 C 151.503906 131.121094 152.894531 132.664062 152.894531 134.363281 L 152.894531 152.742188 C 152.894531 153.359375 153.359375 153.976562 154.132812 153.976562 C 154.75 153.976562 155.367188 153.511719 155.367188 152.742188 L 155.367188 141.3125 C 155.367188 139.460938 156.910156 137.914062 158.917969 138.070312 C 160.464844 138.222656 161.851562 139.769531 161.851562 141.46875 L 161.851562 170.8125 Z M 183.476562 158.765625 C 183.785156 159.226562 183.9375 159.691406 183.9375 160.308594 L 183.9375 166.949219 C 183.9375 168.496094 182.703125 169.882812 181.003906 169.882812 L 163.089844 169.882812 L 163.089844 141.3125 C 163.089844 138.378906 160.925781 135.90625 158.148438 135.597656 C 156.757812 135.445312 155.367188 135.90625 154.441406 136.523438 L 154.441406 134.363281 C 154.441406 131.429688 152.277344 128.957031 149.5 128.648438 C 148.109375 128.496094 146.71875 128.957031 145.792969 129.574219 L 145.792969 128.183594 C 145.792969 124.941406 143.011719 122.316406 139.769531 122.625 C 136.988281 122.933594 134.828125 125.40625 134.828125 128.339844 L 134.828125 129.265625 C 133.746094 128.496094 132.507812 128.183594 131.121094 128.339844 C 128.339844 128.648438 126.175781 131.121094 126.175781 134.054688 L 126.175781 148.261719 C 125.097656 147.492188 123.859375 147.179688 122.472656 147.335938 C 119.691406 147.644531 117.527344 150.117188 117.527344 153.050781 L 117.527344 166.175781 C 117.527344 167.414062 117.683594 168.648438 117.835938 169.882812 L 82.472656 169.882812 C 82.625 168.648438 82.78125 167.414062 82.78125 166.175781 L 82.78125 152.894531 C 82.78125 149.960938 80.617188 147.492188 77.835938 147.179688 C 76.449219 147.027344 75.058594 147.492188 74.132812 148.109375 L 74.132812 133.898438 C 74.132812 130.964844 71.96875 128.496094 69.1875 128.183594 C 67.800781 128.03125 66.410156 128.496094 65.484375 129.113281 L 65.484375 128.183594 C 65.484375 125.25 63.320312 122.78125 60.539062 122.472656 C 57.296875 122.164062 54.515625 124.789062 54.515625 128.03125 L 54.515625 129.730469 C 53.4375 128.957031 52.199219 128.648438 50.8125 128.804688 C 48.03125 129.113281 45.867188 131.582031 45.867188 134.515625 L 45.867188 136.832031 C 44.789062 136.0625 43.550781 135.753906 42.164062 135.90625 C 39.382812 136.214844 37.21875 138.6875 37.21875 141.621094 L 37.21875 169.882812 L 18.996094 169.882812 C 17.453125 169.882812 16.0625 168.648438 16.0625 166.949219 L 16.0625 160.308594 C 16.0625 159.84375 16.214844 159.226562 16.523438 158.765625 L 38.148438 113.976562 L 161.699219 113.976562 Z M 185.484375 80.925781 L 150.425781 80.925781 L 150.425781 77.835938 L 185.484375 77.835938 Z M 185.484375 75.519531 L 150.425781 75.519531 L 150.425781 72.433594 L 185.484375 72.433594 Z M 197.683594 80.464844 C 197.683594 80.773438 197.527344 80.925781 197.21875 80.925781 L 187.800781 80.925781 L 187.800781 72.277344 L 197.21875 72.277344 C 197.527344 72.277344 197.683594 72.433594 197.683594 72.742188 Z M 197.683594 80.464844 "/>
<path style=" stroke:none;fill-rule:nonzero;fill:rgb(100%,81.568627%,35.686275%);fill-opacity:1;" d="M 50.5 36.140625 C 50.5 48.507812 40.476562 58.53125 28.109375 58.53125 C 15.742188 58.53125 5.714844 48.507812 5.714844 36.140625 C 5.714844 23.769531 15.742188 13.746094 28.109375 13.746094 C 40.476562 13.746094 50.5 23.769531 50.5 36.140625 Z M 50.5 36.140625 "/>
<path style=" stroke:none;fill-rule:nonzero;fill:rgb(100%,100%,100%);fill-opacity:1;" d="M 20.539062 36.140625 C 20.539062 38.355469 18.742188 40.15625 16.523438 40.15625 C 14.308594 40.15625 12.507812 38.355469 12.507812 36.140625 C 12.507812 33.921875 14.308594 32.125 16.523438 32.125 C 18.742188 32.125 20.539062 33.921875 20.539062 36.140625 Z M 20.539062 36.140625 "/>
<path style=" stroke:none;fill-rule:nonzero;fill:rgb(100%,100%,100%);fill-opacity:1;" d="M 32.125 36.140625 C 32.125 38.355469 30.324219 40.15625 28.109375 40.15625 C 25.890625 40.15625 24.09375 38.355469 24.09375 36.140625 C 24.09375 33.921875 25.890625 32.125 28.109375 32.125 C 30.324219 32.125 32.125 33.921875 32.125 36.140625 Z M 32.125 36.140625 "/>
<path style=" stroke:none;fill-rule:nonzero;fill:rgb(100%,100%,100%);fill-opacity:1;" d="M 43.707031 36.140625 C 43.707031 38.355469 41.910156 40.15625 39.691406 40.15625 C 37.472656 40.15625 35.675781 38.355469 35.675781 36.140625 C 35.675781 33.921875 37.472656 32.125 39.691406 32.125 C 41.910156 32.125 43.707031 33.921875 43.707031 36.140625 Z M 43.707031 36.140625 "/>
<path style=" stroke:none;fill-rule:nonzero;fill:rgb(90.196078%,91.372549%,93.333333%);fill-opacity:1;" d="M 58.222656 27.644531 L 79.382812 27.644531 L 79.382812 48.804688 L 58.222656 48.804688 Z M 58.222656 27.644531 "/>
<path style=" stroke:none;fill-rule:nonzero;fill:rgb(51.764706%,85.882353%,100%);fill-opacity:1;" d="M 83.089844 27.644531 L 141.777344 27.644531 L 141.777344 90.65625 L 83.089844 90.65625 Z M 83.089844 27.644531 "/>
<path style=" stroke:none;fill-rule:nonzero;fill:rgb(100%,100%,100%);fill-opacity:1;" d="M 73.511719 34.132812 C 73.511719 36.691406 71.4375 38.765625 68.878906 38.765625 C 66.320312 38.765625 64.246094 36.691406 64.246094 34.132812 C 64.246094 31.574219 66.320312 29.5 68.878906 29.5 C 71.4375 29.5 73.511719 31.574219 73.511719 34.132812 Z M 73.511719 34.132812 "/>
<path style=" stroke:none;fill-rule:nonzero;fill:rgb(100%,100%,100%);fill-opacity:1;" d="M 77.992188 48.957031 C 77.835938 44.015625 73.824219 40.15625 68.878906 40.15625 C 63.9375 40.15625 59.921875 44.015625 59.769531 48.957031 Z M 77.992188 48.957031 "/>
<path style=" stroke:none;fill-rule:nonzero;fill:rgb(100%,100%,100%);fill-opacity:1;" d="M 87.105469 31.195312 L 138.222656 31.195312 L 138.222656 33.511719 L 87.105469 33.511719 Z M 87.105469 31.195312 "/>
<path style=" stroke:none;fill-rule:nonzero;fill:rgb(100%,100%,100%);fill-opacity:1;" d="M 87.105469 36.449219 L 138.222656 36.449219 L 138.222656 38.765625 L 87.105469 38.765625 Z M 87.105469 36.449219 "/>
<path style=" stroke:none;fill-rule:nonzero;fill:rgb(100%,100%,100%);fill-opacity:1;" d="M 87.105469 41.851562 L 122.007812 41.851562 L 122.007812 44.167969 L 87.105469 44.167969 Z M 87.105469 41.851562 "/>
<path style=" stroke:none;fill-rule:nonzero;fill:rgb(13.72549%,12.156863%,12.54902%);fill-opacity:1;" d="M 58.6875 55.597656 L 79.226562 55.597656 L 79.226562 57.914062 L 58.6875 57.914062 Z M 58.6875 55.597656 "/>
<path style=" stroke:none;fill-rule:nonzero;fill:rgb(13.72549%,12.156863%,12.54902%);fill-opacity:1;" d="M 58.6875 63.476562 L 79.226562 63.476562 L 79.226562 65.792969 L 58.6875 65.792969 Z M 58.6875 63.476562 "/>
<path style=" stroke:none;fill-rule:nonzero;fill:rgb(13.72549%,12.156863%,12.54902%);fill-opacity:1;" d="M 58.6875 71.351562 L 79.226562 71.351562 L 79.226562 73.667969 L 58.6875 73.667969 Z M 58.6875 71.351562 "/>
<path style=" stroke:none;fill-rule:nonzero;fill:rgb(13.72549%,12.156863%,12.54902%);fill-opacity:1;" d="M 58.6875 79.226562 L 79.226562 79.226562 L 79.226562 81.542969 L 58.6875 81.542969 Z M 58.6875 79.226562 "/>
<path style=" stroke:none;fill-rule:nonzero;fill:rgb(13.72549%,12.156863%,12.54902%);fill-opacity:1;" d="M 58.6875 87.105469 L 79.226562 87.105469 L 79.226562 89.421875 L 58.6875 89.421875 Z M 58.6875 87.105469 "/>
</g>
</svg>
