<?xml version="1.0" encoding="utf-8"?>
<!-- Generator: Adobe Illustrator 18.0.0, SVG Export Plug-In . SVG Version: 6.00 Build 0)  -->
<!DOCTYPE svg PUBLIC "-//W3C//DTD SVG 1.1//EN" "http://www.w3.org/Graphics/SVG/1.1/DTD/svg11.dtd">
<svg version="1.1" id="Layer_1" xmlns="http://www.w3.org/2000/svg" xmlns:xlink="http://www.w3.org/1999/xlink" x="0px" y="0px"
	 viewBox="0 0 129.5 129.5" enable-background="new 0 0 129.5 129.5" xml:space="preserve">
<g>
	<g>
		<g>
			<g>
				<path fill="#231F20" d="M116.1,11.1c-0.2,0-0.4-0.1-0.5-0.2c-0.3-0.3-0.3-0.8,0-1.1l1.3-1.3c0.3-0.3,0.8-0.3,1.1,0
					c0.3,0.3,0.3,0.8,0,1.1l-1.3,1.3C116.5,11.1,116.3,11.1,116.1,11.1z"/>
			</g>
			<g>
				<path fill="#231F20" d="M112.1,15.2c-0.2,0-0.4-0.1-0.5-0.2c-0.3-0.3-0.3-0.8,0-1.1l1.3-1.3c0.3-0.3,0.8-0.3,1.1,0
					c0.3,0.3,0.3,0.8,0,1.1l-1.3,1.3C112.4,15.1,112.3,15.2,112.1,15.2z"/>
			</g>
			<g>
				<path fill="#231F20" d="M117.4,15.2c-0.2,0-0.4-0.1-0.5-0.2l-1.3-1.3c-0.3-0.3-0.3-0.8,0-1.1c0.3-0.3,0.8-0.3,1.1,0l1.3,1.3
					c0.3,0.3,0.3,0.8,0,1.1C117.8,15.1,117.6,15.2,117.4,15.2z"/>
			</g>
			<g>
				<path fill="#231F20" d="M113.3,11.1c-0.2,0-0.4-0.1-0.5-0.2l-1.3-1.3c-0.3-0.3-0.3-0.8,0-1.1c0.3-0.3,0.8-0.3,1.1,0l1.3,1.3
					c0.3,0.3,0.3,0.8,0,1.1C113.7,11.1,113.5,11.1,113.3,11.1z"/>
			</g>
		</g>
		<g>
			<g>
				<path fill="#231F20" d="M25.5,125.5c-0.2,0-0.4-0.1-0.5-0.2c-0.3-0.3-0.3-0.8,0-1.1l1.3-1.3c0.3-0.3,0.8-0.3,1.1,0
					c0.3,0.3,0.3,0.8,0,1.1l-1.3,1.3C25.9,125.4,25.7,125.5,25.5,125.5z"/>
			</g>
			<g>
				<path fill="#231F20" d="M21.5,129.5c-0.2,0-0.4-0.1-0.5-0.2c-0.3-0.3-0.3-0.8,0-1.1l1.3-1.3c0.3-0.3,0.8-0.3,1.1,0
					c0.3,0.3,0.3,0.8,0,1.1l-1.3,1.3C21.9,129.4,21.7,129.5,21.5,129.5z"/>
			</g>
			<g>
				<path fill="#231F20" d="M26.8,129.5c-0.2,0-0.4-0.1-0.5-0.2L25,128c-0.3-0.3-0.3-0.8,0-1.1c0.3-0.3,0.8-0.3,1.1,0l1.3,1.3
					c0.3,0.3,0.3,0.8,0,1.1C27.2,129.4,27,129.5,26.8,129.5z"/>
			</g>
			<g>
				<path fill="#231F20" d="M22.8,125.5c-0.2,0-0.4-0.1-0.5-0.2L21,124c-0.3-0.3-0.3-0.8,0-1.1c0.3-0.3,0.8-0.3,1.1,0l1.3,1.3
					c0.3,0.3,0.3,0.8,0,1.1C23.2,125.4,23,125.5,22.8,125.5z"/>
			</g>
		</g>
		<g>
			<g>
				<path fill="#231F20" d="M110.5,115.1c-0.2,0-0.4-0.1-0.5-0.2c-0.3-0.3-0.3-0.8,0-1.1l1.3-1.3c0.3-0.3,0.8-0.3,1.1,0
					c0.3,0.3,0.3,0.8,0,1.1l-1.3,1.3C110.9,115.1,110.7,115.1,110.5,115.1z"/>
			</g>
			<g>
				<path fill="#231F20" d="M106.5,119.2c-0.2,0-0.4-0.1-0.5-0.2c-0.3-0.3-0.3-0.8,0-1.1l1.3-1.3c0.3-0.3,0.8-0.3,1.1,0
					c0.3,0.3,0.3,0.8,0,1.1l-1.3,1.3C106.8,119.1,106.7,119.2,106.5,119.2z"/>
			</g>
			<g>
				<path fill="#231F20" d="M111.8,119.2c-0.2,0-0.4-0.1-0.5-0.2l-1.3-1.3c-0.3-0.3-0.3-0.8,0-1.1c0.3-0.3,0.8-0.3,1.1,0l1.3,1.3
					c0.3,0.3,0.3,0.8,0,1.1C112.2,119.1,112,119.2,111.8,119.2z"/>
			</g>
			<g>
				<path fill="#231F20" d="M107.8,115.1c-0.2,0-0.4-0.1-0.5-0.2l-1.3-1.3c-0.3-0.3-0.3-0.8,0-1.1c0.3-0.3,0.8-0.3,1.1,0l1.3,1.3
					c0.3,0.3,0.3,0.8,0,1.1C108.1,115.1,107.9,115.1,107.8,115.1z"/>
			</g>
		</g>
		<g>
			<path fill="#231F20" d="M40.5,1.5h-4.6c-0.4,0-0.8-0.3-0.8-0.8c0-0.4,0.3-0.8,0.8-0.8h4.6c0.4,0,0.8,0.3,0.8,0.8
				C41.2,1.2,40.9,1.5,40.5,1.5z"/>
		</g>
		<g>
			<polygon fill="#84DBFF" points="83,19.7 83,7.9 94.8,19.7 			"/>
		</g>
		<g>
			<rect x="33.7" y="8.5" fill="#231F20" width="27.8" height="1.5"/>
		</g>
		<g>
			<rect x="33.7" y="12.9" fill="#231F20" width="27.8" height="1.5"/>
		</g>
		<g>
			<rect x="33.7" y="17.3" fill="#231F20" width="17.8" height="1.5"/>
		</g>
		<g>
			<rect x="33.7" y="31.3" fill="#231F20" width="54.5" height="1.5"/>
		</g>
		<g>
			<rect x="33.7" y="35.3" fill="#231F20" width="54.5" height="1.5"/>
		</g>
		<g>
			<rect x="33.7" y="39.3" fill="#231F20" width="31.2" height="1.5"/>
		</g>
		<g>
			<rect x="45.5" y="27.3" fill="#231F20" width="42.7" height="1.5"/>
		</g>
		<g>
			<rect x="33.7" y="51.4" fill="#231F20" width="54.5" height="1.5"/>
		</g>
		<g>
			<rect x="33.7" y="55.4" fill="#231F20" width="54.5" height="1.5"/>
		</g>
		<g>
			<rect x="33.7" y="59.4" fill="#231F20" width="31.2" height="1.5"/>
		</g>
		<g>
			<rect x="45.5" y="47.4" fill="#231F20" width="42.7" height="1.5"/>
		</g>
		<g>
			<path fill="#FF7058" d="M46.8,81.3v12.5l-5.4-5.4L36,93.8V81.3c1.4,1.3,3.3,2.1,5.4,2.1C43.5,83.4,45.4,82.6,46.8,81.3z"/>
		</g>
		<g>
			<path fill="#231F20" d="M41.4,84.1c-4.8,0-8.7-3.9-8.7-8.7s3.9-8.7,8.7-8.7s8.7,3.9,8.7,8.7S46.2,84.1,41.4,84.1z M41.4,68.2
				c-4,0-7.2,3.2-7.2,7.2c0,4,3.2,7.2,7.2,7.2c4,0,7.2-3.2,7.2-7.2C48.6,71.4,45.4,68.2,41.4,68.2z"/>
		</g>
		<g>
			<path fill="#FF7058" d="M41.4,81c-3.1,0-5.6-2.5-5.6-5.6c0-3.1,2.5-5.6,5.6-5.6c3.1,0,5.6,2.5,5.6,5.6C47,78.5,44.5,81,41.4,81z"
				/>
		</g>
		<path fill="#FFFFFF" d="M128.4,83.3v-4.7l-0.3,0c-1.9-0.2-3.4-1.4-4.1-3.2c-0.1-0.3-0.3-0.7-0.4-1c-0.8-1.7-0.6-3.7,0.6-5.2
			l0.2-0.2l-3.3-3.3l-0.2,0.2c-1.4,1.2-3.4,1.4-5.2,0.6c-0.3-0.2-0.7-0.3-1-0.4c-1.8-0.7-3-2.2-3.2-4.1l0-0.3h-4.7l0,0.3
			c-0.2,1.9-1.4,3.4-3.2,4.1c-0.3,0.1-0.7,0.3-1,0.4c-1.7,0.8-3.7,0.6-5.2-0.6l-0.2-0.2L93.9,69l0.2,0.2c1.2,1.4,1.4,3.4,0.6,5.2
			c-0.2,0.3-0.3,0.7-0.4,1c-0.7,1.8-2.2,3-4.1,3.2l-0.3,0v4.7l0.3,0c1.9,0.2,3.4,1.4,4.1,3.2c0.1,0.3,0.3,0.7,0.4,1
			c0.8,1.7,0.6,3.7-0.6,5.2L93.9,93l3.3,3.3l0.2-0.2c1.4-1.2,3.4-1.4,5.2-0.6c0.3,0.2,0.7,0.3,1,0.4c1.8,0.7,3,2.2,3.2,4.1l0,0.3
			h4.7l0-0.3c0.2-1.9,1.4-3.4,3.2-4.1c0.3-0.1,0.7-0.3,1-0.4c1.7-0.8,3.7-0.6,5.2,0.6l0.2,0.2l3.3-3.3l-0.2-0.2
			c-1.2-1.4-1.4-3.4-0.6-5.2c0.2-0.3,0.3-0.7,0.4-1c0.7-1.8,2.2-3,4.1-3.2L128.4,83.3z"/>
		<path fill="#231F20" d="M128.4,77.9l-0.3,0c-1.5-0.1-2.9-1.2-3.4-2.7c-0.1-0.4-0.3-0.7-0.4-1.1c-0.7-1.5-0.5-3.2,0.5-4.4l0.2-0.2
			c0.2-0.3,0.2-0.7,0-1l-3.3-3.3c-0.3-0.3-0.7-0.3-1,0l-0.2,0.2c-1.2,1-2.9,1.2-4.4,0.5c-0.3-0.2-0.7-0.3-1.1-0.4
			c-1.5-0.6-2.6-1.9-2.7-3.4l0-0.3c0-0.4-0.4-0.7-0.7-0.7h-4.7c-0.4,0-0.7,0.3-0.7,0.7l0,0.3c-0.1,1.5-1.2,2.9-2.7,3.4
			c-0.2,0.1-0.4,0.2-0.7,0.3V22.6c0-0.2-0.1-0.4-0.2-0.5L80.6,0.2C80.4,0.1,80.2,0,80,0H45.7c-0.4,0-0.8,0.3-0.8,0.8
			c0,0.4,0.3,0.8,0.8,0.8h33.6v21.1c0,0.4,0.3,0.8,0.8,0.8h21.1v42.8c-1.2,0.2-2.4-0.1-3.3-0.8l-0.2-0.2c-0.3-0.2-0.7-0.2-1,0
			l-3.3,3.3c-0.3,0.3-0.3,0.7,0,1l0.2,0.2c1,1.2,1.2,2.9,0.5,4.4c-0.2,0.3-0.3,0.7-0.4,1.1c-0.6,1.5-1.9,2.6-3.4,2.7l-0.3,0
			c-0.4,0-0.7,0.4-0.7,0.7v4.7c0,0.4,0.3,0.7,0.7,0.7l0.3,0c1.5,0.1,2.9,1.2,3.4,2.7c0.1,0.4,0.3,0.7,0.4,1.1
			c0.7,1.5,0.5,3.2-0.5,4.4l-0.2,0.2c-0.2,0.3-0.2,0.7,0,1l3.3,3.3c0.3,0.3,0.7,0.3,1,0l0.2-0.2c0.9-0.7,2.1-1,3.3-0.8v7.5l-80.4,0
			l0-101.8h10.9c0.4,0,0.8-0.3,0.8-0.8c0-0.4-0.3-0.8-0.8-0.8H20c-0.4,0-0.8,0.3-0.8,0.8v5.1h-5.1c-0.4,0-0.8,0.3-0.8,0.8v5.1H8.3
			c-0.4,0-0.7,0.3-0.7,0.8v103.3c0,0.4,0.3,0.8,0.7,0.8h81.9c0.4,0,0.8-0.3,0.8-0.8v-5.1H96c0.4,0,0.8-0.3,0.8-0.8v-5.1h5.1
			c0.4,0,0.8-0.3,0.8-0.8v-7.8c0.2,0.1,0.4,0.2,0.7,0.3c1.5,0.6,2.6,1.9,2.7,3.4l0,0.3c0,0.4,0.4,0.7,0.7,0.7h4.7
			c0.4,0,0.7-0.3,0.7-0.7l0-0.3c0.1-1.5,1.2-2.9,2.7-3.4c0.4-0.1,0.7-0.3,1.1-0.4c1.5-0.7,3.2-0.5,4.4,0.5l0.2,0.2
			c0.3,0.2,0.7,0.2,1,0l3.3-3.3c0.3-0.3,0.3-0.7,0-1l-0.2-0.2c-1-1.2-1.2-2.9-0.5-4.4c0.2-0.3,0.3-0.7,0.4-1.1
			c0.6-1.5,1.9-2.6,3.4-2.7l0.3,0c0.4,0,0.7-0.4,0.7-0.7v-4.7C129.1,78.3,128.8,78,128.4,77.9z M80.8,21.9V2.6l19.3,19.3H80.8z
			 M89.4,115H9.1V13.2h4.3v96.7c0,0.4,0.3,0.8,0.8,0.8h75.3V115z M95.3,109.2H14.9V7.3h4.3v96.7c0,0.4,0.3,0.8,0.8,0.8h75.3V109.2z
			 M127.6,82.7c-2,0.3-3.6,1.7-4.3,3.6c-0.1,0.3-0.3,0.6-0.4,1c-0.9,1.9-0.7,4,0.5,5.6l-2.4,2.4c-1.6-1.1-3.8-1.3-5.6-0.5
			c-0.3,0.1-0.6,0.3-1,0.4c-2,0.7-3.3,2.4-3.6,4.3h-3.3c-0.3-2-1.7-3.6-3.6-4.3c-0.3-0.1-0.7-0.3-1-0.4c-1.8-0.8-4.1-0.7-5.6,0.5
			l-2.4-2.4c1.2-1.6,1.3-3.7,0.5-5.6c-0.1-0.3-0.3-0.6-0.4-1c-0.7-2-2.4-3.3-4.3-3.6v-3.3c2-0.3,3.6-1.7,4.3-3.6
			c0.1-0.3,0.3-0.7,0.4-1c0.9-1.9,0.7-4-0.5-5.6l2.4-2.4c1.6,1.1,3.8,1.3,5.6,0.5c0.3-0.1,0.6-0.3,1-0.4c2-0.7,3.3-2.4,3.6-4.3h3.3
			c0.3,2,1.7,3.6,3.6,4.3c0.3,0.1,0.7,0.3,1,0.4c1.8,0.8,4.1,0.7,5.6-0.5l2.4,2.4c-1.2,1.6-1.3,3.7-0.5,5.6c0.1,0.3,0.3,0.6,0.4,1
			c0.7,2,2.4,3.3,4.3,3.6V82.7z"/>
		<g>
			<path fill="#231F20" d="M109.1,93.8l-0.1-0.8v-0.8c0.3,0,0.6,0,0.9,0l0.1,1.5C109.8,93.8,109.5,93.8,109.1,93.8z M107,93.6
				c-0.4-0.1-0.7-0.1-1-0.2l0.4-1.5c0.3,0.1,0.6,0.1,0.9,0.2L107,93.6z M112.2,93.4l-0.4-1.5c0.3-0.1,0.6-0.2,0.9-0.3l0.5,1.4
				C112.9,93.2,112.6,93.3,112.2,93.4z M103.9,92.7c-0.3-0.1-0.6-0.3-1-0.5l0.7-1.3c0.3,0.1,0.6,0.3,0.8,0.4L103.9,92.7z
				 M115.2,92.3l-0.7-1.3c0.3-0.1,0.5-0.3,0.8-0.5l0.8,1.3C115.8,91.9,115.5,92.1,115.2,92.3z M101.2,91.1c-0.3-0.2-0.5-0.4-0.8-0.7
				l1-1.1c0.2,0.2,0.5,0.4,0.7,0.6L101.2,91.1z M117.8,90.4l-1-1.1c0.2-0.2,0.5-0.4,0.7-0.7l1.1,1C118.3,90,118,90.2,117.8,90.4z
				 M99,88.8c-0.2-0.3-0.4-0.6-0.6-0.9l1.3-0.8c0.2,0.3,0.3,0.5,0.5,0.8L99,88.8z M119.8,88l-1.3-0.8c0.2-0.3,0.3-0.5,0.5-0.8
				l1.3,0.7C120.2,87.4,120,87.7,119.8,88z M97.4,86.1c-0.1-0.3-0.3-0.7-0.4-1l1.4-0.5c0.1,0.3,0.2,0.6,0.3,0.9L97.4,86.1z
				 M121.2,85.2l-1.4-0.5c0.1-0.3,0.2-0.6,0.3-0.9l1.5,0.4C121.5,84.5,121.4,84.8,121.2,85.2z M96.5,83c-0.1-0.3-0.1-0.7-0.1-1.1
				l1.5-0.1c0,0.3,0.1,0.6,0.1,0.9L96.5,83z M121.9,82.1l-1.5-0.1c0-0.3,0-0.6,0-0.9c0-0.3,0-0.5,0-0.8l1.5-0.1c0,0.3,0,0.6,0,0.8
				C121.9,81.4,121.9,81.7,121.9,82.1z M97.9,80l-1.5-0.1c0-0.4,0.1-0.7,0.1-1.1L98,79C97.9,79.3,97.9,79.7,97.9,80z M120.1,78.4
				c-0.1-0.3-0.2-0.6-0.3-0.9l1.4-0.5c0.1,0.3,0.2,0.7,0.3,1L120.1,78.4z M98.5,77.2L97,76.7c0.1-0.3,0.3-0.7,0.4-1l1.4,0.6
				C98.7,76.6,98.6,76.9,98.5,77.2z M119.2,75.8c-0.1-0.3-0.3-0.5-0.5-0.8l1.3-0.8c0.2,0.3,0.4,0.6,0.5,0.9L119.2,75.8z M99.7,74.7
				l-1.2-0.8c0.2-0.3,0.4-0.6,0.6-0.9l1.2,0.9C100.1,74.2,99.9,74.5,99.7,74.7z M117.6,73.5c-0.2-0.2-0.4-0.5-0.7-0.7l1-1.1
				c0.3,0.2,0.5,0.5,0.7,0.8L117.6,73.5z M101.6,72.6l-1-1.1c0.3-0.2,0.5-0.5,0.8-0.7l0.9,1.2C102,72.2,101.8,72.4,101.6,72.6z
				 M115.4,71.6c-0.3-0.2-0.5-0.3-0.8-0.5l0.7-1.3c0.3,0.2,0.6,0.4,0.9,0.6L115.4,71.6z M103.9,71l-0.7-1.3c0.3-0.2,0.6-0.3,1-0.5
				l0.6,1.4C104.4,70.7,104.1,70.8,103.9,71z M112.9,70.4c-0.3-0.1-0.6-0.2-0.9-0.3l0.4-1.4c0.3,0.1,0.7,0.2,1,0.3L112.9,70.4z
				 M106.5,70l-0.3-1.5c0.3-0.1,0.7-0.2,1-0.2l0.2,1.5C107.1,69.9,106.8,69.9,106.5,70z M110.2,69.7c-0.3,0-0.6,0-0.9,0l0-1.5
				c0.4,0,0.7,0,1.1,0.1L110.2,69.7z"/>
		</g>
		<g>
			<circle fill="#E6E9EE" cx="109.1" cy="81" r="9.6"/>
		</g>
		<g>
			<circle fill="#FFFFFF" cx="109.1" cy="81" r="4.8"/>
			<path fill="#231F20" d="M109.1,86.5c-3.1,0-5.5-2.5-5.5-5.5c0-3.1,2.5-5.5,5.5-5.5c3.1,0,5.5,2.5,5.5,5.5
				C114.7,84.1,112.2,86.5,109.1,86.5z M109.1,77c-2.2,0-4,1.8-4,4c0,2.2,1.8,4,4,4c2.2,0,4-1.8,4-4C113.2,78.8,111.3,77,109.1,77z"
				/>
		</g>
		<g>
			<circle fill="#FFD05B" cx="3.3" cy="3.7" r="2.9"/>
		</g>
		<g>
			<circle fill="#FF7058" cx="114.2" cy="32.6" r="2.5"/>
		</g>
		<g>
			<circle fill="#84DBFF" cx="59" cy="122.3" r="2.5"/>
		</g>
		<g>
			<g>
				<line fill="#FFFFFF" x1="58.5" y1="79.2" x2="67.2" y2="79.2"/>
				<path fill="#231F20" d="M67.2,80h-8.7c-0.4,0-0.8-0.3-0.8-0.8c0-0.4,0.3-0.8,0.8-0.8h8.7c0.4,0,0.8,0.3,0.8,0.8
					C68,79.6,67.6,80,67.2,80z"/>
			</g>
			<g>
				<line fill="#FFFFFF" x1="66.4" y1="82.4" x2="70.6" y2="82.4"/>
				<path fill="#231F20" d="M70.6,83.1h-4.3c-0.4,0-0.8-0.3-0.8-0.8c0-0.4,0.3-0.8,0.8-0.8h4.3c0.4,0,0.8,0.3,0.8,0.8
					C71.4,82.8,71.1,83.1,70.6,83.1z"/>
			</g>
			<g>
				<line fill="#FFFFFF" x1="71.2" y1="79.2" x2="75.2" y2="79.2"/>
				<path fill="#231F20" d="M75.2,80h-4.1c-0.4,0-0.8-0.3-0.8-0.8c0-0.4,0.3-0.8,0.8-0.8h4.1c0.4,0,0.8,0.3,0.8,0.8
					C76,79.6,75.6,80,75.2,80z"/>
			</g>
			<g>
				<line fill="#FFFFFF" x1="62.5" y1="82.4" x2="63.3" y2="82.4"/>
				<path fill="#231F20" d="M63.3,83.1h-0.8c-0.4,0-0.8-0.3-0.8-0.8c0-0.4,0.3-0.8,0.8-0.8h0.8c0.4,0,0.8,0.3,0.8,0.8
					C64,82.8,63.7,83.1,63.3,83.1z"/>
			</g>
		</g>
	</g>
</g>
</svg>
