<?xml version="1.0" encoding="UTF-8" standalone="no"?>
<!-- Generator: Adobe Illustrator 15.0.2, SVG Export Plug-In . SVG Version: 6.00 Build 0)  -->

<svg
   version="1.1"
   id="layer_1"
   x="0px"
   y="0px"
   width="710.81799"
   height="263.14301"
   viewBox="0 0 710.81799 263.14301"
   enable-background="new 0 0 800 800"
   xml:space="preserve"
   sodipodi:docname="17-04-24.svg"
   inkscape:version="1.3.2 (091e20e, 2023-11-25, custom)"
   xmlns:inkscape="http://www.inkscape.org/namespaces/inkscape"
   xmlns:sodipodi="http://sodipodi.sourceforge.net/DTD/sodipodi-0.dtd"
   xmlns:xlink="http://www.w3.org/1999/xlink"
   xmlns="http://www.w3.org/2000/svg"
   xmlns:svg="http://www.w3.org/2000/svg"><defs
   id="defs553">
	<defs
   id="defs1">
		<polygon
   id="SVGID_1_"
   points="800,800 800,400 800,0 0.378,0 0.378,400 0,400 0,800 " />
	</defs>
	
	
	
	
	

		
		
		
		
		
		
		
		
		
		
		
		
		
		
		
		
		
		
		
		
		
		
		
		
		
		
		
		
		
		
		
		
		
		
		
		
		
		
		
		
		
		
		
		
		
	<clipPath
   clipPathUnits="userSpaceOnUse"
   id="clipPath553"><g
     id="g554"><use
       xlink:href="#SVGID_1_"
       overflow="visible"
       id="use554" /></g></clipPath><clipPath
   clipPathUnits="userSpaceOnUse"
   id="clipPath554"><g
     id="g555"><use
       xlink:href="#SVGID_1_"
       overflow="visible"
       id="use555" /></g></clipPath><clipPath
   clipPathUnits="userSpaceOnUse"
   id="clipPath555"><g
     id="g556"><use
       xlink:href="#SVGID_1_"
       overflow="visible"
       id="use556" /></g></clipPath><clipPath
   clipPathUnits="userSpaceOnUse"
   id="clipPath556"><g
     id="g557"><use
       xlink:href="#SVGID_1_"
       overflow="visible"
       id="use557" /></g></clipPath><clipPath
   clipPathUnits="userSpaceOnUse"
   id="clipPath557"><g
     id="g558"><use
       xlink:href="#SVGID_1_"
       overflow="visible"
       id="use558" /></g></clipPath><clipPath
   clipPathUnits="userSpaceOnUse"
   id="clipPath558"><g
     id="g559"><use
       xlink:href="#SVGID_1_"
       overflow="visible"
       id="use559" /></g></clipPath><clipPath
   clipPathUnits="userSpaceOnUse"
   id="clipPath559"><g
     id="g560"><use
       xlink:href="#SVGID_1_"
       overflow="visible"
       id="use560" /></g></clipPath><clipPath
   clipPathUnits="userSpaceOnUse"
   id="clipPath560"><g
     id="g561"><use
       xlink:href="#SVGID_1_"
       overflow="visible"
       id="use561" /></g></clipPath><clipPath
   clipPathUnits="userSpaceOnUse"
   id="clipPath561"><g
     id="g562"><use
       xlink:href="#SVGID_1_"
       overflow="visible"
       id="use562" /></g></clipPath><clipPath
   clipPathUnits="userSpaceOnUse"
   id="clipPath562"><g
     id="g563"><use
       xlink:href="#SVGID_1_"
       overflow="visible"
       id="use563" /></g></clipPath><clipPath
   clipPathUnits="userSpaceOnUse"
   id="clipPath563"><g
     id="g564"><use
       xlink:href="#SVGID_1_"
       overflow="visible"
       id="use564" /></g></clipPath><clipPath
   clipPathUnits="userSpaceOnUse"
   id="clipPath564"><g
     id="g565"><use
       xlink:href="#SVGID_1_"
       overflow="visible"
       id="use565" /></g></clipPath><clipPath
   clipPathUnits="userSpaceOnUse"
   id="clipPath565"><g
     id="g566"><use
       xlink:href="#SVGID_1_"
       overflow="visible"
       id="use566" /></g></clipPath><clipPath
   clipPathUnits="userSpaceOnUse"
   id="clipPath566"><g
     id="g567"><use
       xlink:href="#SVGID_1_"
       overflow="visible"
       id="use567" /></g></clipPath><clipPath
   clipPathUnits="userSpaceOnUse"
   id="clipPath567"><g
     id="g568"><use
       xlink:href="#SVGID_1_"
       overflow="visible"
       id="use568" /></g></clipPath><clipPath
   clipPathUnits="userSpaceOnUse"
   id="clipPath568"><g
     id="g569"><use
       xlink:href="#SVGID_1_"
       overflow="visible"
       id="use569" /></g></clipPath><clipPath
   clipPathUnits="userSpaceOnUse"
   id="clipPath569"><g
     id="g570"><use
       xlink:href="#SVGID_1_"
       overflow="visible"
       id="use570" /></g></clipPath><clipPath
   clipPathUnits="userSpaceOnUse"
   id="clipPath570"><g
     id="g571"><use
       xlink:href="#SVGID_1_"
       overflow="visible"
       id="use571" /></g></clipPath><clipPath
   clipPathUnits="userSpaceOnUse"
   id="clipPath571"><g
     id="g572"><use
       xlink:href="#SVGID_1_"
       overflow="visible"
       id="use572" /></g></clipPath><clipPath
   clipPathUnits="userSpaceOnUse"
   id="clipPath572"><g
     id="g573"><use
       xlink:href="#SVGID_1_"
       overflow="visible"
       id="use573" /></g></clipPath><clipPath
   clipPathUnits="userSpaceOnUse"
   id="clipPath573"><g
     id="g574"><use
       xlink:href="#SVGID_1_"
       overflow="visible"
       id="use574" /></g></clipPath><clipPath
   clipPathUnits="userSpaceOnUse"
   id="clipPath574"><g
     id="g575"><use
       xlink:href="#SVGID_1_"
       overflow="visible"
       id="use575" /></g></clipPath><clipPath
   clipPathUnits="userSpaceOnUse"
   id="clipPath575"><g
     id="g576"><use
       xlink:href="#SVGID_1_"
       overflow="visible"
       id="use576" /></g></clipPath><clipPath
   clipPathUnits="userSpaceOnUse"
   id="clipPath576"><g
     id="g577"><use
       xlink:href="#SVGID_1_"
       overflow="visible"
       id="use577" /></g></clipPath><clipPath
   clipPathUnits="userSpaceOnUse"
   id="clipPath577"><g
     id="g578"><use
       xlink:href="#SVGID_1_"
       overflow="visible"
       id="use578" /></g></clipPath><clipPath
   clipPathUnits="userSpaceOnUse"
   id="clipPath578"><g
     id="g579"><use
       xlink:href="#SVGID_1_"
       overflow="visible"
       id="use579" /></g></clipPath><clipPath
   clipPathUnits="userSpaceOnUse"
   id="clipPath579"><g
     id="g580"><use
       xlink:href="#SVGID_1_"
       overflow="visible"
       id="use580" /></g></clipPath><clipPath
   clipPathUnits="userSpaceOnUse"
   id="clipPath580"><g
     id="g581"><use
       xlink:href="#SVGID_1_"
       overflow="visible"
       id="use581" /></g></clipPath><clipPath
   clipPathUnits="userSpaceOnUse"
   id="clipPath581"><g
     id="g582"><use
       xlink:href="#SVGID_1_"
       overflow="visible"
       id="use582" /></g></clipPath><clipPath
   clipPathUnits="userSpaceOnUse"
   id="clipPath582"><g
     id="g583"><use
       xlink:href="#SVGID_1_"
       overflow="visible"
       id="use583" /></g></clipPath><clipPath
   clipPathUnits="userSpaceOnUse"
   id="clipPath583"><g
     id="g584"><use
       xlink:href="#SVGID_1_"
       overflow="visible"
       id="use584" /></g></clipPath><clipPath
   clipPathUnits="userSpaceOnUse"
   id="clipPath584"><g
     id="g585"><use
       xlink:href="#SVGID_1_"
       overflow="visible"
       id="use585" /></g></clipPath><clipPath
   clipPathUnits="userSpaceOnUse"
   id="clipPath585"><g
     id="g586"><use
       xlink:href="#SVGID_1_"
       overflow="visible"
       id="use586" /></g></clipPath><clipPath
   clipPathUnits="userSpaceOnUse"
   id="clipPath586"><g
     id="g587"><use
       xlink:href="#SVGID_1_"
       overflow="visible"
       id="use587" /></g></clipPath><clipPath
   clipPathUnits="userSpaceOnUse"
   id="clipPath587"><g
     id="g588"><use
       xlink:href="#SVGID_1_"
       overflow="visible"
       id="use588" /></g></clipPath><clipPath
   clipPathUnits="userSpaceOnUse"
   id="clipPath588"><g
     id="g589"><use
       xlink:href="#SVGID_1_"
       overflow="visible"
       id="use589" /></g></clipPath><clipPath
   clipPathUnits="userSpaceOnUse"
   id="clipPath589"><g
     id="g590"><use
       xlink:href="#SVGID_1_"
       overflow="visible"
       id="use590" /></g></clipPath><clipPath
   clipPathUnits="userSpaceOnUse"
   id="clipPath590"><g
     id="g591"><use
       xlink:href="#SVGID_1_"
       overflow="visible"
       id="use591" /></g></clipPath><clipPath
   clipPathUnits="userSpaceOnUse"
   id="clipPath591"><g
     id="g592"><use
       xlink:href="#SVGID_1_"
       overflow="visible"
       id="use592" /></g></clipPath><clipPath
   clipPathUnits="userSpaceOnUse"
   id="clipPath592"><g
     id="g593"><use
       xlink:href="#SVGID_1_"
       overflow="visible"
       id="use593" /></g></clipPath><clipPath
   clipPathUnits="userSpaceOnUse"
   id="clipPath593"><g
     id="g594"><use
       xlink:href="#SVGID_1_"
       overflow="visible"
       id="use594" /></g></clipPath><clipPath
   clipPathUnits="userSpaceOnUse"
   id="clipPath594"><g
     id="g595"><use
       xlink:href="#SVGID_1_"
       overflow="visible"
       id="use595" /></g></clipPath><clipPath
   clipPathUnits="userSpaceOnUse"
   id="clipPath595"><g
     id="g596"><use
       xlink:href="#SVGID_1_"
       overflow="visible"
       id="use596" /></g></clipPath><clipPath
   clipPathUnits="userSpaceOnUse"
   id="clipPath596"><g
     id="g597"><use
       xlink:href="#SVGID_1_"
       overflow="visible"
       id="use597" /></g></clipPath><clipPath
   clipPathUnits="userSpaceOnUse"
   id="clipPath597"><g
     id="g598"><use
       xlink:href="#SVGID_1_"
       overflow="visible"
       id="use598" /></g></clipPath>
		
		
	<clipPath
   clipPathUnits="userSpaceOnUse"
   id="clipPath599"><g
     id="g600"><use
       xlink:href="#SVGID_1_"
       overflow="visible"
       id="use600" /></g></clipPath><clipPath
   clipPathUnits="userSpaceOnUse"
   id="clipPath600"><g
     id="g601"><use
       xlink:href="#SVGID_1_"
       overflow="visible"
       id="use601" /></g></clipPath>
		
		
	<clipPath
   clipPathUnits="userSpaceOnUse"
   id="clipPath602"><g
     id="g603"><use
       xlink:href="#SVGID_1_"
       overflow="visible"
       id="use603" /></g></clipPath><clipPath
   clipPathUnits="userSpaceOnUse"
   id="clipPath603"><g
     id="g604"><use
       xlink:href="#SVGID_1_"
       overflow="visible"
       id="use604" /></g></clipPath>
		
		
		
		
		
		
		
		
		
		
		
		
		
		
		
		
		
		
		
		
		
		
		
		
		
		
		
		
		
	<clipPath
   clipPathUnits="userSpaceOnUse"
   id="clipPath605"><g
     id="g606"><use
       xlink:href="#SVGID_1_"
       overflow="visible"
       id="use605" /></g></clipPath><clipPath
   clipPathUnits="userSpaceOnUse"
   id="clipPath606"><g
     id="g607"><use
       xlink:href="#SVGID_1_"
       overflow="visible"
       id="use606" /></g></clipPath><clipPath
   clipPathUnits="userSpaceOnUse"
   id="clipPath607"><g
     id="g608"><use
       xlink:href="#SVGID_1_"
       overflow="visible"
       id="use607" /></g></clipPath><clipPath
   clipPathUnits="userSpaceOnUse"
   id="clipPath608"><g
     id="g609"><use
       xlink:href="#SVGID_1_"
       overflow="visible"
       id="use608" /></g></clipPath><clipPath
   clipPathUnits="userSpaceOnUse"
   id="clipPath609"><g
     id="g610"><use
       xlink:href="#SVGID_1_"
       overflow="visible"
       id="use609" /></g></clipPath><clipPath
   clipPathUnits="userSpaceOnUse"
   id="clipPath610"><g
     id="g611"><use
       xlink:href="#SVGID_1_"
       overflow="visible"
       id="use610" /></g></clipPath><clipPath
   clipPathUnits="userSpaceOnUse"
   id="clipPath611"><g
     id="g612"><use
       xlink:href="#SVGID_1_"
       overflow="visible"
       id="use611" /></g></clipPath><clipPath
   clipPathUnits="userSpaceOnUse"
   id="clipPath612"><g
     id="g613"><use
       xlink:href="#SVGID_1_"
       overflow="visible"
       id="use612" /></g></clipPath><clipPath
   clipPathUnits="userSpaceOnUse"
   id="clipPath613"><g
     id="g614"><use
       xlink:href="#SVGID_1_"
       overflow="visible"
       id="use613" /></g></clipPath><clipPath
   clipPathUnits="userSpaceOnUse"
   id="clipPath614"><g
     id="g615"><use
       xlink:href="#SVGID_1_"
       overflow="visible"
       id="use614" /></g></clipPath><clipPath
   clipPathUnits="userSpaceOnUse"
   id="clipPath615"><g
     id="g616"><use
       xlink:href="#SVGID_1_"
       overflow="visible"
       id="use615" /></g></clipPath><clipPath
   clipPathUnits="userSpaceOnUse"
   id="clipPath616"><g
     id="g617"><use
       xlink:href="#SVGID_1_"
       overflow="visible"
       id="use616" /></g></clipPath><clipPath
   clipPathUnits="userSpaceOnUse"
   id="clipPath617"><g
     id="g618"><use
       xlink:href="#SVGID_1_"
       overflow="visible"
       id="use617" /></g></clipPath><clipPath
   clipPathUnits="userSpaceOnUse"
   id="clipPath618"><g
     id="g619"><use
       xlink:href="#SVGID_1_"
       overflow="visible"
       id="use618" /></g></clipPath><clipPath
   clipPathUnits="userSpaceOnUse"
   id="clipPath619"><g
     id="g620"><use
       xlink:href="#SVGID_1_"
       overflow="visible"
       id="use619" /></g></clipPath><clipPath
   clipPathUnits="userSpaceOnUse"
   id="clipPath620"><g
     id="g621"><use
       xlink:href="#SVGID_1_"
       overflow="visible"
       id="use620" /></g></clipPath><clipPath
   clipPathUnits="userSpaceOnUse"
   id="clipPath621"><g
     id="g622"><use
       xlink:href="#SVGID_1_"
       overflow="visible"
       id="use621" /></g></clipPath><clipPath
   clipPathUnits="userSpaceOnUse"
   id="clipPath622"><g
     id="g623"><use
       xlink:href="#SVGID_1_"
       overflow="visible"
       id="use622" /></g></clipPath><clipPath
   clipPathUnits="userSpaceOnUse"
   id="clipPath623"><g
     id="g624"><use
       xlink:href="#SVGID_1_"
       overflow="visible"
       id="use623" /></g></clipPath><clipPath
   clipPathUnits="userSpaceOnUse"
   id="clipPath624"><g
     id="g625"><use
       xlink:href="#SVGID_1_"
       overflow="visible"
       id="use624" /></g></clipPath><clipPath
   clipPathUnits="userSpaceOnUse"
   id="clipPath625"><g
     id="g626"><use
       xlink:href="#SVGID_1_"
       overflow="visible"
       id="use625" /></g></clipPath><clipPath
   clipPathUnits="userSpaceOnUse"
   id="clipPath626"><g
     id="g627"><use
       xlink:href="#SVGID_1_"
       overflow="visible"
       id="use626" /></g></clipPath><clipPath
   clipPathUnits="userSpaceOnUse"
   id="clipPath627"><g
     id="g628"><use
       xlink:href="#SVGID_1_"
       overflow="visible"
       id="use627" /></g></clipPath><clipPath
   clipPathUnits="userSpaceOnUse"
   id="clipPath628"><g
     id="g629"><use
       xlink:href="#SVGID_1_"
       overflow="visible"
       id="use628" /></g></clipPath><clipPath
   clipPathUnits="userSpaceOnUse"
   id="clipPath629"><g
     id="g630"><use
       xlink:href="#SVGID_1_"
       overflow="visible"
       id="use629" /></g></clipPath><clipPath
   clipPathUnits="userSpaceOnUse"
   id="clipPath630"><g
     id="g631"><use
       xlink:href="#SVGID_1_"
       overflow="visible"
       id="use630" /></g></clipPath><clipPath
   clipPathUnits="userSpaceOnUse"
   id="clipPath631"><g
     id="g632"><use
       xlink:href="#SVGID_1_"
       overflow="visible"
       id="use631" /></g></clipPath><clipPath
   clipPathUnits="userSpaceOnUse"
   id="clipPath632"><g
     id="g633"><use
       xlink:href="#SVGID_1_"
       overflow="visible"
       id="use632" /></g></clipPath><clipPath
   clipPathUnits="userSpaceOnUse"
   id="clipPath633"><g
     id="g634"><use
       xlink:href="#SVGID_1_"
       overflow="visible"
       id="use633" /></g></clipPath><polygon
   id="SVGID_1_-5"
   points="800,800 800,400 800,0 0.378,0 0.378,400 0,400 0,800 " />
	<defs
   id="defs1-9">
		<polygon
   id="polygon634"
   points="0.378,0 0.378,400 0,400 0,800 800,800 800,400 800,0 " />
	</defs>
	<clipPath
   id="SVGID_2_">
		<use
   xlink:href="#SVGID_1_-5"
   overflow="visible"
   id="use1" />
	</clipPath>
	
	
	
	
</defs><sodipodi:namedview
   id="namedview553"
   pagecolor="#ffffff"
   bordercolor="#000000"
   borderopacity="0.25"
   inkscape:showpageshadow="2"
   inkscape:pageopacity="0.0"
   inkscape:pagecheckerboard="0"
   inkscape:deskcolor="#d1d1d1"
   showgrid="false"
   showguides="false"
   inkscape:zoom="1.3912326"
   inkscape:cx="189.75979"
   inkscape:cy="156.33619"
   inkscape:window-width="1920"
   inkscape:window-height="1001"
   inkscape:window-x="-9"
   inkscape:window-y="-9"
   inkscape:window-maximized="1"
   inkscape:current-layer="layer_1" />

		
	
		
	
		
	
		
	
<g
   clip-path="url(#SVGID_2_)"
   id="g552"
   transform="translate(-50.561004,-500.79525)">
		<g
   id="g301">
			<g
   id="g288">
				<polygon
   fill="#f3a52d"
   points="153.393,755.381 70.802,755.381 70.744,699.588 112.046,662.084 153.348,699.234 "
   id="polygon286" />
				<g
   id="g287">
					<polygon
   fill="#111111"
   points="70.072,698.848 112.043,660.736 154.017,698.491 152.679,699.979 112.049,663.432 71.416,700.328 "
   id="polygon287" />
				</g>
			</g>
			<rect
   x="80.970001"
   y="685.18201"
   fill="#ffffff"
   width="62.616001"
   height="60.887001"
   id="rect288" />
			<polygon
   fill="#f3a52d"
   points="153.379,762.925 124.149,735.497 100.097,735.497 70.802,762.938 "
   id="polygon288" />
			<polygon
   fill="#f3a52d"
   points="70.802,706.136 100.152,735.497 70.802,762.938 "
   id="polygon289" />
			<polygon
   fill="#f3a52d"
   points="153.393,706.136 124.149,735.497 153.393,762.938 "
   id="polygon290" />
			<g
   id="g290">
				<path
   fill="#111111"
   d="m 70.802,763.938 c -0.41,0 -0.779,-0.251 -0.93,-0.633 -0.151,-0.382 -0.054,-0.816 0.246,-1.098 l 29.295,-27.441 c 0.186,-0.173 0.43,-0.27 0.684,-0.27 h 24.053 c 0.254,0 0.499,0.097 0.685,0.271 l 29.23,27.429 c 0.299,0.28 0.396,0.715 0.245,1.097 -0.15,0.382 -0.52,0.632 -0.93,0.632 z m 29.69,-27.441 -27.16,25.44 77.521,-0.012 -27.1,-25.429 h -23.261 z"
   id="path290" />
			</g>
			<g
   id="g291">
				
					<rect
   x="73.649002"
   y="723.63599"
   transform="matrix(0.7071,0.7071,-0.7071,0.7071,538.4717,149.3076)"
   fill="#111111"
   width="30.719"
   height="2"
   id="rect290" />
			</g>
			<g
   id="g292">
				
					<rect
   x="129.55901"
   y="720.02301"
   transform="matrix(0.7071,0.7071,-0.7071,0.7071,553.7825,121.2255)"
   fill="#111111"
   width="2"
   height="18.129"
   id="rect291" />
			</g>
			<g
   id="g293">
				<rect
   x="69.744003"
   y="715.625"
   fill="#111111"
   width="2"
   height="18.129"
   id="rect292" />
			</g>
			<g
   id="g300">
				<g
   id="g294">
					<rect
   x="113.197"
   y="694.427"
   fill="#111111"
   width="3.6029999"
   height="2"
   id="rect293" />
				</g>
				<g
   id="g295">
					<rect
   x="103.196"
   y="694.427"
   fill="#111111"
   width="3.602"
   height="2"
   id="rect294" />
				</g>
				<g
   id="g296">
					<rect
   x="93.195"
   y="694.427"
   fill="#111111"
   width="3.602"
   height="2"
   id="rect295" />
				</g>
				<g
   id="g297">
					<rect
   x="93.195"
   y="700.72198"
   fill="#111111"
   width="38.165001"
   height="2"
   id="rect296" />
				</g>
				<g
   id="g298">
					<rect
   x="93.195"
   y="706.93903"
   fill="#111111"
   width="38.165001"
   height="2"
   id="rect297" />
				</g>
				<g
   id="g299">
					<rect
   x="93.195"
   y="713.15601"
   fill="#111111"
   width="14.595"
   height="2"
   id="rect298" />
				</g>
			</g>
		</g>
		<g
   id="g309">
			<g
   id="g302">
				<path
   fill="#ffffff"
   d="m 208.942,556.821 c 5.139,0 9.904,1.519 13.84,4.236 2.669,-3.034 6.34,-5.187 10.506,-5.879 -0.173,-1.169 -0.262,-2.374 -0.262,-3.591 0,-13.471 10.921,-24.405 24.396,-24.405 13.472,0 24.399,10.921 24.399,24.392 0,1.989 -0.245,3.918 -0.694,5.763 1.805,-0.424 3.69,-0.516 5.625,-0.516 13.474,0 24.396,11.204 24.396,24.536 H 184.542 c 0,-13.332 10.921,-24.536 24.4,-24.536 z"
   id="path301" />
			</g>
			<g
   id="g308">
				<g
   id="g303">
					<path
   fill="#111111"
   d="M 312.148,582.357 H 267.66 v -2 h 42.468 c -0.524,-12.516 -10.808,-22.536 -23.376,-22.536 v -2 c 14.004,0 25.396,11.455 25.396,25.536 z"
   id="path302" />
				</g>
				<g
   id="g304">
					<path
   fill="#111111"
   d="m 274.685,535.784 c -2.112,-2.307 -4.617,-4.14 -7.442,-5.448 l 0.84,-1.814 c 3.067,1.42 5.785,3.409 8.077,5.912 z"
   id="path303" />
				</g>
				<g
   id="g305">
					<path
   fill="#111111"
   d="m 236.868,540.4 -1.756,-0.957 c 3.078,-5.646 8.117,-9.884 14.19,-11.934 l 0.639,1.895 c -5.594,1.889 -10.237,5.794 -13.073,10.996 z"
   id="path304" />
				</g>
				<g
   id="g306">
					<path
   fill="#111111"
   d="m 227.549,582.357 h -44.007 v -1 c 0,-14.081 11.395,-25.536 25.4,-25.536 4.945,0 9.657,1.356 13.683,3.931 1.285,-1.334 2.745,-2.468 4.351,-3.379 l 0.986,1.739 c -1.664,0.944 -3.154,2.157 -4.429,3.605 l -0.587,0.668 -0.731,-0.506 c -3.844,-2.655 -8.434,-4.059 -13.272,-4.059 -12.57,0 -22.856,10.021 -23.379,22.536 h 41.986 v 2.001 z"
   id="path305" />
				</g>
				<g
   id="g307">
					<rect
   x="234.51401"
   y="580.35699"
   fill="#111111"
   width="15.132"
   height="2"
   id="rect306" />
				</g>
			</g>
		</g>
		<g
   id="g317">
			<g
   id="g310">
				<path
   fill="#e6e6e6"
   d="m 488.928,545.065 c 5.14,0 9.904,1.519 13.84,4.236 2.67,-3.033 6.341,-5.187 10.506,-5.879 -0.173,-1.169 -0.262,-2.374 -0.262,-3.591 0,-13.47 10.922,-24.405 24.396,-24.405 13.473,0 24.399,10.922 24.399,24.392 0,1.989 -0.245,3.918 -0.694,5.763 1.805,-0.424 3.69,-0.516 5.626,-0.516 13.474,0 24.396,11.204 24.396,24.536 H 464.527 c 0,-13.331 10.922,-24.536 24.401,-24.536 z"
   id="path309" />
			</g>
			<g
   id="g316">
				<g
   id="g311">
					<path
   fill="#111111"
   d="m 592.134,570.602 h -44.488 v -2 h 42.468 c -0.523,-12.516 -10.808,-22.535 -23.376,-22.535 v -2 c 14.004,0 25.396,11.455 25.396,25.535 z"
   id="path310" />
				</g>
				<g
   id="g312">
					<path
   fill="#111111"
   d="m 554.67,524.029 c -2.112,-2.307 -4.616,-4.14 -7.442,-5.448 l 0.84,-1.814 c 3.068,1.42 5.785,3.409 8.077,5.912 z"
   id="path311" />
				</g>
				<g
   id="g313">
					<path
   fill="#111111"
   d="m 516.854,528.646 -1.756,-0.957 c 3.078,-5.646 8.117,-9.885 14.19,-11.935 l 0.64,1.895 c -5.595,1.888 -10.239,5.793 -13.074,10.997 z"
   id="path312" />
				</g>
				<g
   id="g314">
					<path
   fill="#111111"
   d="m 507.534,570.602 h -44.007 v -1 c 0,-14.08 11.395,-25.535 25.4,-25.535 4.945,0 9.656,1.356 13.683,3.931 1.285,-1.334 2.745,-2.469 4.351,-3.379 l 0.986,1.739 c -1.664,0.944 -3.154,2.157 -4.429,3.605 l -0.588,0.667 -0.731,-0.505 c -3.845,-2.655 -8.434,-4.059 -13.271,-4.059 -12.57,0 -22.856,10.02 -23.379,22.535 h 41.985 z"
   id="path313" />
				</g>
				<g
   id="g315">
					<rect
   x="514.5"
   y="568.60199"
   fill="#111111"
   width="15.132"
   height="2"
   id="rect314" />
				</g>
			</g>
		</g>
		<g
   id="XMLID_16_">
			<g
   id="g319">
				<g
   id="g318">
					<path
   fill="#e6e6e6"
   d="m 235.655,605 v 9.986 h 19.206 v -0.353 c 0,-5.32 4.313,-9.634 9.633,-9.634 h 0.194 c 5.32,0 9.633,4.313 9.633,9.634 V 762.86 h -99.12 V 605 Z"
   id="path317" />
				</g>
			</g>
			<g
   id="g322">
				<g
   id="g321">
					<g
   id="g320">
						<path
   fill="#111111"
   d="m 174.202,604 h 62.454 v 9.986 h 17.225 c 0.336,-5.563 4.968,-9.986 10.614,-9.986 h 0.194 c 5.863,0 10.633,4.771 10.633,10.634 v 149.228 h -101.12 z m 99.119,10.634 c 0,-4.761 -3.874,-8.634 -8.633,-8.634 h -0.194 c -4.761,0 -8.634,3.873 -8.634,8.634 v 1.353 H 234.655 V 606 h -58.454 v 155.861 h 97.12 z"
   id="path319" />
					</g>
				</g>
			</g>
			<g
   id="g323">
				<path
   fill="#ffffff"
   d="m 265.036,605 c -4.317,0 -10.229,2.453 -10.229,10.62 l -0.07,136.878 c 0,5.669 -2.434,10.418 -9.29,10.418 -4.329,0 -10.471,-1.237 -10.471,-11.051 l -73.758,3.844 0.07,-140.089 c 0,-5.871 5.806,-10.62 12.94,-10.62 z"
   id="path322" />
			</g>
			<g
   id="g325">
				<g
   id="g324">
					<path
   fill="#111111"
   d="m 234,752.918 -73.782,3.845 0.071,-141.143 c 0,-6.407 6.254,-11.62 13.94,-11.62 h 90.807 v 2 c -1.541,0 -9.229,0.464 -9.229,9.621 l -0.069,136.877 c 0,7.256 -3.751,11.418 -10.29,11.418 -7.27,0 -11.118,-3.699 -11.448,-10.998 z M 174.229,606 c -6.584,0 -11.94,4.315 -11.94,9.621 l -0.069,139.034 73.757,-3.844 v 1.054 c 0,9.009 5.405,10.051 9.471,10.051 6.852,0 8.29,-5.121 8.29,-9.419 l 0.069,-136.877 c 0,-4.785 1.883,-7.848 4.446,-9.62 z"
   id="path323" />
				</g>
			</g>
			<g
   id="g328">
				<g
   id="g326">
					<rect
   x="209.67"
   y="678.87701"
   fill="#111111"
   width="38.175999"
   height="2"
   id="rect325" />
				</g>
				<g
   id="g327">
					<rect
   x="167.16701"
   y="678.87701"
   fill="#111111"
   width="35.375"
   height="2"
   id="rect326" />
				</g>
			</g>
			<g
   id="g331">
				<g
   id="g329">
					<rect
   x="209.67"
   y="684.64398"
   fill="#111111"
   width="38.175999"
   height="2"
   id="rect328" />
				</g>
				<g
   id="g330">
					<rect
   x="167.16701"
   y="684.64398"
   fill="#111111"
   width="35.375"
   height="2"
   id="rect329" />
				</g>
			</g>
			<g
   id="g334">
				<g
   id="g332">
					<rect
   x="209.67"
   y="690.40997"
   fill="#111111"
   width="38.175999"
   height="2"
   id="rect331" />
				</g>
				<g
   id="g333">
					<rect
   x="167.16701"
   y="690.40997"
   fill="#111111"
   width="35.375"
   height="2"
   id="rect332" />
				</g>
			</g>
			<g
   id="g337">
				<g
   id="g335">
					<rect
   x="209.67"
   y="696.177"
   fill="#111111"
   width="38.175999"
   height="2"
   id="rect334" />
				</g>
				<g
   id="g336">
					<rect
   x="167.16701"
   y="696.177"
   fill="#111111"
   width="35.375"
   height="2"
   id="rect335" />
				</g>
			</g>
			<g
   id="g340">
				<g
   id="g338">
					<rect
   x="209.67"
   y="701.94299"
   fill="#111111"
   width="38.175999"
   height="2"
   id="rect337" />
				</g>
				<g
   id="g339">
					<rect
   x="167.16701"
   y="701.94299"
   fill="#111111"
   width="35.375"
   height="2"
   id="rect338" />
				</g>
			</g>
			<g
   id="g343">
				<g
   id="g341">
					<rect
   x="209.67"
   y="707.71002"
   fill="#111111"
   width="38.175999"
   height="2"
   id="rect340" />
				</g>
				<g
   id="g342">
					<rect
   x="167.16701"
   y="707.71002"
   fill="#111111"
   width="35.375"
   height="2"
   id="rect341" />
				</g>
			</g>
			<g
   id="g346">
				<g
   id="g344">
					<rect
   x="209.67"
   y="713.47699"
   fill="#111111"
   width="38.175999"
   height="2"
   id="rect343" />
				</g>
				<g
   id="g345">
					<rect
   x="167.16701"
   y="713.47699"
   fill="#111111"
   width="35.375"
   height="2"
   id="rect344" />
				</g>
			</g>
			<g
   id="g349">
				<g
   id="g347">
					<rect
   x="209.67"
   y="719.24298"
   fill="#111111"
   width="38.175999"
   height="2"
   id="rect346" />
				</g>
				<g
   id="g348">
					<rect
   x="167.16701"
   y="719.24298"
   fill="#111111"
   width="35.375"
   height="2"
   id="rect347" />
				</g>
			</g>
			<g
   id="g352">
				<g
   id="g350">
					<rect
   x="209.67"
   y="725.01001"
   fill="#111111"
   width="38.175999"
   height="2"
   id="rect349" />
				</g>
				<g
   id="g351">
					<rect
   x="167.16701"
   y="725.01001"
   fill="#111111"
   width="35.375"
   height="2"
   id="rect350" />
				</g>
			</g>
			<g
   id="g355">
				<g
   id="g353">
					<rect
   x="209.67"
   y="730.776"
   fill="#111111"
   width="38.175999"
   height="2"
   id="rect352" />
				</g>
				<g
   id="g354">
					<rect
   x="167.16701"
   y="730.776"
   fill="#111111"
   width="35.375"
   height="2"
   id="rect353" />
				</g>
			</g>
			<g
   id="g358">
				<g
   id="g356">
					<rect
   x="209.67"
   y="736.54303"
   fill="#111111"
   width="38.175999"
   height="2"
   id="rect355" />
				</g>
				<g
   id="g357">
					<rect
   x="167.16701"
   y="736.54303"
   fill="#111111"
   width="35.375"
   height="2"
   id="rect356" />
				</g>
			</g>
			<g
   id="g361">
				<g
   id="g359">
					<rect
   x="209.67"
   y="742.31"
   fill="#111111"
   width="38.175999"
   height="2"
   id="rect358" />
				</g>
				<g
   id="g360">
					<rect
   x="167.16701"
   y="742.31"
   fill="#111111"
   width="35.375"
   height="2"
   id="rect359" />
				</g>
			</g>
			<g
   id="g364">
				<g
   id="g362">
					<rect
   x="209.67"
   y="748.07501"
   fill="#111111"
   width="38.175999"
   height="2"
   id="rect361" />
				</g>
				<g
   id="g363">
					<rect
   x="167.16701"
   y="748.07501"
   fill="#111111"
   width="35.375"
   height="2"
   id="rect362" />
				</g>
			</g>
			<g
   id="XMLID_20_">
				<g
   id="XMLID_24_">
					<path
   fill="#ffffff"
   d="m 139.247,702.353 v 49.503 c 0,0 -1.029,11.083 14.537,11.083 22.21,0 90.814,-0.014 90.814,-0.014 -1.327,-0.037 -9.612,-0.751 -9.612,-11.048 v -37.456 c 0,0 1.164,-12.068 -11.347,-12.068 z"
   id="path364" />
				</g>
				<g
   id="XMLID_21_">
					<path
   fill="#ffffff"
   d="m 244.845,762.924 -0.248,10e-4 c 0.157,0.004 0.248,-10e-4 0.248,-10e-4 z"
   id="path365" />
				</g>
			</g>
			<g
   id="XMLID_17_">
				<g
   id="XMLID_19_">
					<g
   id="g366">
						<path
   fill="#111111"
   d="m 141.03,759.526 c -3.14,-3.445 -2.795,-7.589 -2.783,-7.671 v -50.503 h 85.392 c 4.051,0 7.196,1.201 9.348,3.57 3.503,3.857 3.018,9.361 3,9.498 v 37.457 c 0,9.339 7.197,10.008 8.64,10.047 l -0.027,2 c 0,0 -68.604,0.014 -90.815,0.014 -5.795,0 -10.086,-1.484 -12.755,-4.412 z m 92.956,-7.648 0.004,-37.553 c 0.004,-0.048 0.43,-4.849 -2.485,-8.059 -1.757,-1.934 -4.403,-2.914 -7.867,-2.914 h -83.392 l -0.004,48.592 c -0.003,0.034 -0.264,3.48 2.289,6.259 2.276,2.479 6.063,3.735 11.252,3.735 18.175,0 67.416,-0.009 84.71,-0.013 -2.364,-1.638 -4.507,-4.621 -4.507,-10.047 z"
   id="path366" />
					</g>
				</g>
				<g
   id="XMLID_18_">
					<g
   id="g367">
						<path
   fill="#111111"
   d="m 244.732,763.927 c 0.1,0 0.156,-0.003 0.156,-0.003 l -0.043,-1.999 h -0.247 l -0.026,2 c 0.063,0.001 0.116,0.002 0.16,0.002 z"
   id="path367" />
					</g>
				</g>
			</g>
			<g
   id="g368">
				<path
   fill="#e6e6e6"
   d="m 215.437,715.856 c -3.644,-11.956 8.208,-13.497 8.208,-13.497 0,0 -72.884,0 -84.39,0 -12.259,0 -13.254,7.578 -12.163,13.497 z"
   id="path368" />
			</g>
			<g
   id="g370">
				<g
   id="g369">
					<path
   fill="#111111"
   d="m 126.109,716.039 c -0.837,-4.54 -0.191,-8.127 1.92,-10.661 2.22,-2.667 5.997,-4.019 11.227,-4.019 h 84.39 l 0.131,1.991 c -0.047,0.007 -4.701,0.666 -6.886,4.068 -1.341,2.088 -1.508,4.829 -0.496,8.146 l 0.394,1.292 H 126.26 Z m 89.109,-9.715 c 0.83,-1.288 1.914,-2.25 3.023,-2.965 h -78.985 c -4.607,0 -7.867,1.109 -9.689,3.298 -1.592,1.912 -2.137,4.668 -1.625,8.2 h 86.193 c -0.773,-3.352 -0.41,-6.218 1.083,-8.533 z"
   id="path369" />
				</g>
			</g>
			<g
   id="g373">
				<g
   id="g371">
					<rect
   x="188.67"
   y="725.01001"
   fill="#111111"
   width="38.175999"
   height="2"
   id="rect370" />
				</g>
				<g
   id="g372">
					<rect
   x="146.16701"
   y="725.01001"
   fill="#111111"
   width="35.375"
   height="2"
   id="rect371" />
				</g>
			</g>
			<g
   id="g376">
				<g
   id="g374">
					<rect
   x="188.67"
   y="730.776"
   fill="#111111"
   width="38.175999"
   height="2"
   id="rect373" />
				</g>
				<g
   id="g375">
					<rect
   x="146.16701"
   y="730.776"
   fill="#111111"
   width="35.375"
   height="2"
   id="rect374" />
				</g>
			</g>
			<g
   id="g379">
				<g
   id="g377">
					<rect
   x="188.67"
   y="736.54303"
   fill="#111111"
   width="38.175999"
   height="2"
   id="rect376" />
				</g>
				<g
   id="g378">
					<rect
   x="146.16701"
   y="736.54303"
   fill="#111111"
   width="35.375"
   height="2"
   id="rect377" />
				</g>
			</g>
			<g
   id="g382">
				<g
   id="g380">
					<rect
   x="188.67"
   y="742.31"
   fill="#111111"
   width="38.175999"
   height="2"
   id="rect379" />
				</g>
				<g
   id="g381">
					<rect
   x="146.16701"
   y="742.31"
   fill="#111111"
   width="35.375"
   height="2"
   id="rect380" />
				</g>
			</g>
			<g
   id="g385">
				<g
   id="g383">
					<rect
   x="188.67"
   y="748.07501"
   fill="#111111"
   width="38.175999"
   height="2"
   id="rect382" />
				</g>
				<g
   id="g384">
					<rect
   x="146.16701"
   y="748.07501"
   fill="#111111"
   width="35.375"
   height="2"
   id="rect383" />
				</g>
			</g>
			<g
   id="XMLID_877_">
				<g
   id="XMLID_878_">
					<polygon
   id="XMLID_881_"
   fill="#f3a52d"
   points="185.422,621.211 194.356,626.574 203.291,626.574 212.354,621.319 221.546,631.829 230.481,626.574 239.544,621.319 247.845,626.145 247.845,669.101 167.167,669.101 167.167,619.617 176.101,626.52 " />
				</g>
				<g
   id="XMLID_883_">
					<polygon
   id="XMLID_884_"
   fill="#3dc7d2"
   points="196.007,638.733 213.139,632.046 221.417,643.478 230.481,631.829 239.673,637.246 247.845,632.489 247.845,669.101 167.167,669.101 167.167,632.046 175.973,637.449 185.293,626.52 " />
				</g>
				<g
   id="XMLID_890_">
					<polygon
   id="XMLID_931_"
   fill="#7c7e82"
   points="185.165,637.138 193.736,648.821 203.42,642.556 212.483,637.321 221.546,653.206 230.609,647.811 239.673,653.358 247.845,648.333 247.845,669.101 167.167,669.101 167.167,638.213 176.23,631.829 " />
				</g>
				<g
   id="XMLID_935_">
					<polygon
   id="XMLID_955_"
   fill="#ea572e"
   points="194.099,653.282 203.291,647.974 208.608,657.088 228.001,659.158 239.544,647.864 247.845,652.755 247.845,669.101 167.167,669.101 167.167,646.83 176.101,650.413 185.165,642.664 " />
				</g>
			</g>
		</g>
		<g
   id="g397">
			<g
   id="g392">
				<g
   id="g386">
					<circle
   fill="#3dc7d2"
   cx="729.81403"
   cy="653.60199"
   r="21.774"
   id="circle385" />
				</g>
				<g
   id="g387">
					<path
   fill="#ffffff"
   d="m 729.814,631.828 c 8.43,0 15.289,9.768 15.289,21.773 0,12.005 -6.859,21.773 -15.289,21.773 -8.431,0 -15.29,-9.768 -15.29,-21.773 0,-12.005 6.86,-21.773 15.29,-21.773 z m 0,41.579 c 7.293,0 13.226,-8.885 13.226,-19.806 0,-10.922 -5.933,-19.806 -13.226,-19.806 -7.294,0 -13.227,8.884 -13.227,19.806 10e-4,10.921 5.934,19.806 13.227,19.806 z"
   id="path386" />
				</g>
				<g
   id="g388">
					<path
   fill="#ffffff"
   d="m 729.814,631.828 c 4.649,0 7.082,10.953 7.082,21.773 0,10.819 -2.433,21.773 -7.082,21.773 -4.65,0 -7.083,-10.954 -7.083,-21.773 0,-10.82 2.433,-21.773 7.083,-21.773 z m 0,41.579 c 2.046,0 5.02,-7.716 5.02,-19.806 0,-12.09 -2.974,-19.806 -5.02,-19.806 -2.047,0 -5.021,7.716 -5.021,19.806 0,12.09 2.975,19.806 5.021,19.806 z"
   id="path387" />
				</g>
				<g
   id="g389">
					<path
   fill="#ffffff"
   d="m 729.814,660.577 c 6.284,0 12.354,2.63 16.651,7.215 l -1.505,1.411 c -3.967,-4.232 -9.346,-6.563 -15.146,-6.563 -5.802,0 -11.181,2.331 -15.147,6.563 l -1.505,-1.411 c 4.298,-4.585 10.367,-7.215 16.652,-7.215 z"
   id="path388" />
				</g>
				<g
   id="g390">
					<path
   fill="#ffffff"
   d="m 744.922,637.957 1.503,1.414 c -4.291,4.559 -10.346,7.174 -16.61,7.174 -6.267,0 -12.32,-2.615 -16.611,-7.174 l 1.503,-1.414 c 3.959,4.208 9.325,6.525 15.108,6.525 5.782,0 11.147,-2.317 15.107,-6.525 z"
   id="path389" />
				</g>
				<g
   id="g391">
					<rect
   x="708.03998"
   y="652.57001"
   fill="#ffffff"
   width="43.564999"
   height="2.063"
   id="rect390" />
				</g>
			</g>
			<g
   id="g396">
				<g
   id="g393">
					<path
   fill="#111111"
   d="m 730.878,685.15 -0.064,-1.999 c 0.797,-0.025 1.608,-0.086 2.411,-0.179 l 0.229,1.987 c -0.858,0.1 -1.725,0.164 -2.576,0.191 z"
   id="path392" />
				</g>
				<g
   id="g394">
					<path
   fill="#111111"
   d="m 739.458,683.661 -0.611,-1.904 c 1.518,-0.487 3.008,-1.104 4.431,-1.831 l 0.911,1.78 c -1.519,0.776 -3.111,1.435 -4.731,1.955 z m 9.897,-5.27 -1.237,-1.571 c 0.35,-0.274 0.693,-0.56 1.031,-0.851 0.875,-0.757 1.712,-1.567 2.487,-2.411 l 1.473,1.354 c -0.827,0.9 -1.72,1.765 -2.652,2.57 -0.36,0.311 -0.728,0.615 -1.102,0.909 z m 7.451,-8.382 -1.707,-1.042 c 0.832,-1.362 1.557,-2.803 2.152,-4.281 l 1.854,0.748 c -0.636,1.58 -1.41,3.119 -2.299,4.575 z m 4.028,-10.468 -1.965,-0.373 c 0.211,-1.116 0.361,-2.265 0.444,-3.41 0.033,-0.452 0.056,-0.904 0.067,-1.356 l 1.999,0.05 c -0.012,0.484 -0.036,0.969 -0.071,1.452 -0.088,1.221 -0.248,2.445 -0.474,3.637 z m -1.871,-10.875 c -0.271,-1.571 -0.671,-3.135 -1.189,-4.646 l 1.891,-0.649 c 0.555,1.612 0.981,3.28 1.27,4.957 z m -57.294,-4.123 -1.905,-0.609 c 0.52,-1.624 1.178,-3.217 1.956,-4.732 l 1.779,0.913 c -0.728,1.418 -1.344,2.908 -1.83,4.428 z m 53.723,-5.761 c -0.8,-1.388 -1.717,-2.714 -2.725,-3.944 l 1.547,-1.268 c 1.076,1.313 2.056,2.73 2.91,4.212 z m -48.778,-3.5 -1.566,-1.243 c 1.054,-1.328 2.229,-2.587 3.493,-3.739 l 1.348,1.478 c -1.185,1.08 -2.286,2.259 -3.275,3.504 z m 41.99,-4.517 c -1.233,-1.019 -2.557,-1.941 -3.932,-2.741 l 1.006,-1.729 c 1.469,0.854 2.882,1.84 4.199,2.928 z m -34.111,-2.437 -1.038,-1.71 c 1.459,-0.886 2.998,-1.657 4.575,-2.295 l 0.749,1.854 c -1.477,0.597 -2.919,1.321 -4.286,2.151 z m 24.952,-2.695 c -1.506,-0.517 -3.068,-0.914 -4.646,-1.182 l 0.335,-1.972 c 1.684,0.286 3.353,0.71 4.96,1.262 z m -15.149,-1.08 -0.376,-1.965 c 1.676,-0.32 3.388,-0.505 5.091,-0.548 l 0.051,1.999 c -1.594,0.041 -3.198,0.213 -4.766,0.514 z"
   id="path393" />
				</g>
				<g
   id="g395">
					<path
   fill="#111111"
   d="m 700.292,652.632 -1.999,-0.067 0.01,-0.358 c 0.008,-0.301 0.016,-0.601 0.037,-0.902 0.033,-0.44 0.073,-0.878 0.123,-1.313 l 1.987,0.228 c -0.047,0.408 -0.085,0.819 -0.115,1.232 -0.02,0.269 -0.025,0.537 -0.032,0.805 z"
   id="path394" />
				</g>
			</g>
		</g>
		<g
   id="g427">
			<rect
   x="602.95599"
   y="559.77502"
   fill="#7c7e82"
   width="9.5170002"
   height="203.16299"
   id="rect397" />
			<g
   id="g398">
				<rect
   x="513.28003"
   y="577.16699"
   fill="#ffffff"
   width="188.868"
   height="121.24"
   id="rect398" />
			</g>
			<g
   id="g410">
				<g
   id="g409">
					<g
   id="g402">
						<g
   id="g401">
							<g
   id="g400">
								<g
   id="g399">
									<path
   fill="#111111"
   d="m 567.85,669.943 c -17.76,0 -32.208,-14.448 -32.208,-32.208 0,-16.89 13.204,-30.991 30.061,-32.104 l 1.065,-0.07 v 33.252 h 33.253 l -0.07,1.065 c -1.118,16.86 -15.218,30.065 -32.101,30.065 z m -3.082,-62.226 c -15.296,1.553 -27.126,14.536 -27.126,30.019 0,16.657 13.551,30.208 30.208,30.208 15.477,0 28.459,-11.832 30.016,-27.13 h -33.098 z"
   id="path398" />
								</g>
							</g>
						</g>
					</g>
					<g
   id="g405">
						<g
   id="g404">
							<g
   id="g403">
								<path
   fill="#3dc7d2"
   d="m 569.931,634.441 v -25.765 c 9.974,0.711 18.566,6.464 23.256,14.714 z"
   id="path402" />
							</g>
						</g>
					</g>
					<g
   id="g408">
						<g
   id="g407">
							<g
   id="g406">
								<path
   fill="#f3a52d"
   d="m 596.904,635.651 h -19.827 l 17.917,-8.51 c 1.068,2.726 1.706,5.577 1.91,8.51 z"
   id="path405" />
							</g>
						</g>
					</g>
				</g>
			</g>
			<g
   id="g411">
				<rect
   x="504.47101"
   y="576.16602"
   fill="#111111"
   width="206.48599"
   height="2"
   id="rect410" />
			</g>
			<g
   id="g419">
				<g
   id="g412">
					<rect
   x="640.77197"
   y="603.948"
   fill="#111111"
   width="3.9260001"
   height="2"
   id="rect411" />
				</g>
				<g
   id="g413">
					<rect
   x="629.87299"
   y="603.948"
   fill="#111111"
   width="3.9260001"
   height="2"
   id="rect412" />
				</g>
				<g
   id="g414">
					<rect
   x="618.97302"
   y="603.948"
   fill="#111111"
   width="3.9260001"
   height="2"
   id="rect413" />
				</g>
				<g
   id="g415">
					<rect
   x="618.974"
   y="611.40503"
   fill="#111111"
   width="61.039001"
   height="2"
   id="rect414" />
				</g>
				<g
   id="g416">
					<rect
   x="618.974"
   y="618.771"
   fill="#111111"
   width="61.039001"
   height="2"
   id="rect415" />
				</g>
				<g
   id="g417">
					<rect
   x="618.974"
   y="626.13702"
   fill="#111111"
   width="27.868999"
   height="2"
   id="rect416" />
				</g>
				<g
   id="g418">
					<rect
   x="618.974"
   y="633.44"
   fill="#111111"
   width="61.039001"
   height="2"
   id="rect417" />
				</g>
			</g>
			<g
   id="g420">
				<rect
   x="504.47101"
   y="697.40698"
   fill="#111111"
   width="206.48599"
   height="2"
   id="rect419" />
			</g>
			<g
   id="g424">
				<g
   id="g421">
					<polygon
   fill="#111111"
   points="690.755,650.022 659.136,663.58 640.111,658.707 611.544,669.875 610.815,668.013 639.982,656.609 658.974,661.474 689.966,648.186 "
   id="polygon420" />
				</g>
				<circle
   fill="#f3a52d"
   cx="659.05499"
   cy="662.52698"
   r="3.1630001"
   id="circle421" />
				<circle
   fill="#f3a52d"
   cx="690.35999"
   cy="649.104"
   r="3.1630001"
   id="circle422" />
				<circle
   fill="#f3a52d"
   cx="640.04797"
   cy="657.65802"
   r="3.1630001"
   id="circle423" />
				<circle
   fill="#f3a52d"
   cx="611.17999"
   cy="668.94299"
   r="3.1630001"
   id="circle424" />
			</g>
			<g
   id="g425">
				<rect
   x="701.14801"
   y="577.16602"
   fill="#111111"
   width="2"
   height="121.241"
   id="rect424" />
			</g>
			<g
   id="g426">
				<rect
   x="512.28003"
   y="577.16602"
   fill="#111111"
   width="2"
   height="121.241"
   id="rect425" />
			</g>
		</g>
		<g
   id="g469">
			<g
   id="XMLID_61_">
				<g
   id="g428">
					<rect
   x="365"
   y="717.62299"
   fill-rule="evenodd"
   clip-rule="evenodd"
   fill="#d9d9d9"
   width="70"
   height="38.175999"
   id="rect427" />
				</g>
			</g>
			<g
   id="g429">
				<rect
   x="323.883"
   y="750.93799"
   fill="#d9d9d9"
   width="152.02299"
   height="12"
   id="rect428" />
			</g>
			<g
   id="XMLID_60_">
				<g
   id="g430">
					<path
   fill-rule="evenodd"
   clip-rule="evenodd"
   fill="#d9d9d9"
   d="m 279.994,555.771 h 240.012 c 6.501,0 11.819,5.319 11.819,11.82 v 138.212 c 0,6.501 -5.318,11.82 -11.819,11.82 H 279.994 c -6.501,0 -11.819,-5.319 -11.819,-11.82 V 567.591 c 0,-6.501 5.318,-11.82 11.819,-11.82 z"
   id="path429" />
				</g>
			</g>
			<g
   id="g431">
				<rect
   x="383.63599"
   y="703.729"
   fill="#111111"
   width="23.729"
   height="2"
   id="rect430" />
			</g>
			<g
   id="XMLID_59_">
				<g
   id="g433">
					<g
   id="g432">
						<path
   fill="#111111"
   d="m 520.006,718.623 h -98.837 v -2 h 98.837 c 5.966,0 10.819,-4.854 10.819,-10.82 V 567.59 c 0,-5.966 -4.854,-10.82 -10.819,-10.82 H 279.994 c -5.966,0 -10.819,4.854 -10.819,10.82 v 138.213 c 0,5.967 4.854,10.82 10.819,10.82 H 381.39 v 2 H 279.994 c -7.069,0 -12.819,-5.75 -12.819,-12.82 V 567.59 c 0,-7.068 5.75,-12.82 12.819,-12.82 h 240.012 c 7.068,0 12.819,5.752 12.819,12.82 v 138.213 c 0,7.07 -5.751,12.82 -12.819,12.82 z"
   id="path431" />
					</g>
				</g>
				<g
   id="g434">
					<rect
   x="396.849"
   y="716.62299"
   fill="#111111"
   width="16.785"
   height="2"
   id="rect433" />
				</g>
			</g>
			<rect
   x="277.69901"
   y="565.81403"
   fill-rule="evenodd"
   clip-rule="evenodd"
   fill="#7c7e82"
   width="244.60201"
   height="127.554"
   id="rect434" />
			<g
   id="g435">
				<path
   fill="#ffffff"
   d="m 522.329,614.05 c -0.815,-0.092 -1.644,-0.144 -2.483,-0.144 -12.124,0 -21.952,9.828 -21.952,21.952 0,1.793 0.221,3.534 0.626,5.202 -5.555,2.769 -9.811,7.75 -11.612,13.793 -1.632,-0.754 -3.448,-1.178 -5.365,-1.178 -5.681,0 -10.496,3.697 -12.179,8.815 -3.762,-3.024 -8.538,-4.838 -13.74,-4.838 -9.158,0 -17.004,5.61 -20.295,13.581 -1.406,-0.396 -2.889,-0.611 -4.422,-0.611 -1.655,0 -3.253,0.249 -4.759,0.707 -0.731,-4.273 -4.451,-7.526 -8.933,-7.526 -1.36,0 -2.65,0.302 -3.808,0.839 -1.01,-2.774 -2.867,-5.14 -5.258,-6.787 v -21.997 h -16.204 v 22.178 c -1.825,1.317 -3.32,3.06 -4.342,5.084 -0.398,-0.039 -0.801,-0.06 -1.209,-0.06 -5.047,0 -9.378,3.058 -11.247,7.421 -1.339,-0.78 -2.896,-1.23 -4.558,-1.23 -1.538,0 -2.986,0.385 -4.255,1.061 -2.089,-5.253 -7.215,-8.968 -13.212,-8.968 -0.999,0 -1.973,0.104 -2.914,0.301 -3.486,-7.513 -11.091,-12.725 -19.917,-12.725 -6.114,0 -11.642,2.502 -15.622,6.535 -2.607,-2.459 -6.021,-4.067 -9.805,-4.387 0.101,-0.939 0.154,-1.893 0.154,-2.858 0,-14.647 -11.874,-26.521 -26.521,-26.521 -0.341,0 -0.681,0.009 -1.019,0.021 v 71.658 H 522.33 V 614.05 Z"
   id="path434" />
			</g>
			<g
   id="g437">
				<g
   id="g436">
					<path
   fill="#111111"
   d="M 523.329,694.368 H 276.478 v -73.621 l 0.962,-0.036 c 0.351,-0.014 0.703,-0.022 1.057,-0.022 15.175,0 27.521,12.346 27.521,27.521 0,0.655 -0.024,1.316 -0.071,1.976 3.192,0.461 6.22,1.82 8.692,3.903 4.263,-3.985 9.785,-6.169 15.652,-6.169 8.641,0 16.598,4.923 20.486,12.605 0.775,-0.121 1.562,-0.182 2.345,-0.182 5.918,0 11.194,3.354 13.719,8.632 2.496,-1.003 5.396,-0.944 7.846,0.147 2.276,-4.323 6.762,-7.063 11.707,-7.063 0.212,0 0.424,0.005 0.634,0.016 0.986,-1.752 2.326,-3.305 3.918,-4.54 v -22.678 h 18.204 v 22.482 c 2.111,1.565 3.757,3.618 4.812,6.002 1.044,-0.358 2.134,-0.539 3.254,-0.539 4.549,0 8.458,3.007 9.676,7.29 2.565,-0.61 5.274,-0.626 7.859,-0.038 3.735,-8.171 11.835,-13.402 20.873,-13.402 4.754,0 9.42,1.497 13.284,4.24 2.195,-4.967 7.114,-8.218 12.635,-8.218 1.637,0 3.229,0.282 4.749,0.841 1.938,-5.529 5.91,-10.189 11.084,-12.988 -0.319,-1.541 -0.481,-3.108 -0.481,-4.67 0,-12.656 10.296,-22.952 22.952,-22.952 0.839,0 1.712,0.051 2.596,0.149 l 0.888,0.101 v 81.213 z m -244.851,-2 H 521.33 v -77.407 c -0.504,-0.036 -1,-0.055 -1.483,-0.055 -11.553,0 -20.952,9.399 -20.952,20.952 0,1.663 0.201,3.334 0.598,4.966 l 0.188,0.775 -0.714,0.355 c -5.352,2.668 -9.397,7.473 -11.1,13.184 l -0.329,1.106 -1.048,-0.483 c -1.561,-0.721 -3.225,-1.086 -4.947,-1.086 -5.118,0 -9.631,3.267 -11.229,8.128 l -0.451,1.372 -1.126,-0.905 c -3.757,-3.021 -8.291,-4.617 -13.113,-4.617 -8.516,0 -16.119,5.088 -19.371,12.963 l -0.339,0.821 -0.855,-0.24 c -2.82,-0.793 -5.832,-0.757 -8.619,0.09 l -1.085,0.33 -0.191,-1.118 c -0.664,-3.88 -4.007,-6.695 -7.947,-6.695 -1.181,0 -2.32,0.251 -3.387,0.746 l -0.988,0.458 -0.372,-1.023 c -0.935,-2.566 -2.624,-4.747 -4.886,-6.306 l -0.433,-0.298 v -21.522 h -14.204 v 21.689 l -0.415,0.299 c -1.699,1.227 -3.094,2.86 -4.035,4.724 l -0.309,0.612 -0.682,-0.067 c -0.366,-0.036 -0.737,-0.055 -1.112,-0.055 -4.501,0 -8.555,2.675 -10.327,6.814 l -0.445,1.041 -0.978,-0.57 c -2.361,-1.379 -5.426,-1.436 -7.838,-0.151 l -0.986,0.525 -0.413,-1.039 c -2.015,-5.064 -6.836,-8.337 -12.283,-8.337 -0.909,0 -1.82,0.094 -2.709,0.279 l -0.777,0.162 -0.334,-0.72 c -3.424,-7.378 -10.886,-12.146 -19.011,-12.146 -5.646,0 -10.941,2.215 -14.91,6.237 l -0.687,0.696 -0.711,-0.671 c -2.508,-2.366 -5.777,-3.829 -9.203,-4.119 l -1.02,-0.086 0.11,-1.018 c 0.098,-0.912 0.148,-1.837 0.148,-2.75 0,-14.072 -11.449,-25.521 -25.521,-25.521 -0.006,0 -0.013,0 -0.019,0 v 69.681 z"
   id="path435" />
				</g>
			</g>
			<g
   id="g439">
				<g
   id="g438">
					<path
   fill="#111111"
   d="m 458.809,673.771 -1.848,-0.764 c 2.636,-6.383 8.8,-10.508 15.703,-10.508 3.854,0 7.631,1.33 10.633,3.744 l -1.254,1.559 c -2.687,-2.161 -5.93,-3.303 -9.379,-3.303 -6.091,10e-4 -11.529,3.641 -13.855,9.272 z"
   id="path437" />
				</g>
			</g>
			<g
   id="g441">
				<g
   id="g440">
					<path
   fill="#111111"
   d="m 484.439,684.162 -1.85,-0.764 c 4.002,-9.691 13.36,-15.953 23.842,-15.953 5.934,0 11.516,1.965 16.141,5.683 l -1.252,1.559 c -4.267,-3.429 -9.415,-5.241 -14.889,-5.241 -9.668,-10e-4 -18.301,5.776 -21.992,14.716 z"
   id="path439" />
				</g>
			</g>
			<g
   id="g443">
				<g
   id="g442">
					<path
   fill="#111111"
   d="m 324.594,684.162 c -3.691,-8.94 -12.323,-14.717 -21.992,-14.717 -5.474,0 -10.622,1.813 -14.888,5.241 l -1.253,-1.559 c 4.559,-3.664 10.292,-5.683 16.141,-5.683 10.481,0 19.839,6.262 23.841,15.953 z"
   id="path441" />
				</g>
			</g>
			<g
   id="g445">
				<g
   id="g444">
					<path
   fill="#111111"
   d="m 355.578,674.133 c -0.373,-3.428 -1.859,-6.529 -4.297,-8.968 -4.307,-4.307 -10.725,-5.579 -16.353,-3.24 l -0.768,-1.848 c 6.379,-2.646 13.653,-1.208 18.535,3.674 2.725,2.725 4.455,6.335 4.872,10.165 z"
   id="path443" />
				</g>
			</g>
			<g
   id="g448">
				<g
   id="g446">
					
						<rect
   x="347.67099"
   y="736.388"
   transform="matrix(0.7072,0.707,-0.707,0.7072,624.29,-32.587)"
   fill="#111111"
   width="7.6300001"
   height="2"
   id="rect445" />
				</g>
				<g
   id="g447">
					<polygon
   fill="#111111"
   points="344.729,730.631 352.434,732.694 346.793,738.336 "
   id="polygon446" />
				</g>
			</g>
			<g
   id="g449">
				<rect
   x="323.883"
   y="749.146"
   fill="#111111"
   width="78.518997"
   height="2"
   id="rect448" />
			</g>
			<g
   id="g450">
				<rect
   x="425.66901"
   y="749.146"
   fill="#111111"
   width="12.067"
   height="2"
   id="rect449" />
			</g>
			<g
   id="g451">
				<rect
   x="274.75"
   y="692.36798"
   fill="#111111"
   width="250.5"
   height="2"
   id="rect450" />
			</g>
			<g
   id="g468">
				<path
   fill="#f3a52d"
   d="m 446.948,557.025 c 0,-27.187 -23.125,-49.002 -50.701,-47.117 -24.574,1.683 -43.489,23.115 -43.191,47.743 0.209,17.389 9.165,32.499 24.152,40.508 5.337,2.85 8.551,8.53 8.551,14.577 v 0.113 h 29.503 v -0.113 c 0,-6.111 3.111,-11.84 8.329,-15.018 13.468,-8.213 23.357,-23.356 23.357,-40.693 z"
   id="path451" />
				<g
   id="g455">
					<g
   id="g452">
						<path
   fill="#111111"
   d="m 434.493,601.028 -1.256,-1.557 c 0.511,-0.412 1.015,-0.832 1.509,-1.26 l 1.309,1.512 c -0.512,0.444 -1.034,0.88 -1.562,1.305 z"
   id="path452" />
					</g>
					<g
   id="g453">
						<path
   fill="#111111"
   d="m 359.713,596.212 c -0.957,-0.973 -1.888,-1.994 -2.768,-3.037 l 1.528,-1.289 c 0.847,1.003 1.744,1.987 2.665,2.924 z m 80.071,-0.012 -1.436,-1.393 c 0.914,-0.943 1.809,-1.933 2.658,-2.941 l 1.529,1.289 c -0.878,1.044 -1.804,2.069 -2.751,3.045 z m -85.96,-7.105 c -0.777,-1.127 -1.519,-2.293 -2.205,-3.468 l 1.727,-1.008 c 0.661,1.131 1.375,2.254 2.125,3.339 z m 91.839,-0.008 -1.639,-1.148 c 0.756,-1.078 1.482,-2.196 2.16,-3.324 l 1.715,1.031 c -0.702,1.167 -1.454,2.325 -2.236,3.441 z m 4.679,-7.955 -1.799,-0.873 c 0.572,-1.182 1.11,-2.4 1.599,-3.625 l 1.857,0.742 c -0.506,1.268 -1.063,2.531 -1.657,3.756 z m -101.097,-0.06 c -0.572,-1.234 -1.105,-2.511 -1.586,-3.792 l 1.873,-0.701 c 0.462,1.234 0.977,2.463 1.527,3.653 z m 104.437,-8.547 -1.918,-0.568 c 0.375,-1.266 0.706,-2.557 0.984,-3.835 l 1.955,0.426 c -0.289,1.326 -0.633,2.664 -1.021,3.977 z m -107.6,-0.131 c -0.358,-1.313 -0.673,-2.658 -0.937,-4 l 1.963,-0.385 c 0.254,1.294 0.558,2.593 0.903,3.859 z m 109.477,-8.911 -1.986,-0.24 c 0.158,-1.309 0.269,-2.635 0.326,-3.942 l 1.998,0.088 c -0.061,1.358 -0.174,2.736 -0.338,4.094 z m -111.177,-0.164 c -0.143,-1.347 -0.24,-2.725 -0.29,-4.096 l 1.999,-0.072 c 0.048,1.324 0.142,2.656 0.28,3.957 z m 109.502,-8.965 c -0.064,-1.314 -0.178,-2.642 -0.337,-3.944 l 1.984,-0.242 c 0.166,1.35 0.283,2.726 0.351,4.089 z m -107.756,-0.157 -1.997,-0.104 c 0.071,-1.36 0.193,-2.736 0.364,-4.09 l 1.984,0.25 c -0.164,1.307 -0.282,2.634 -0.351,3.944 z m 106.591,-8.667 c -0.28,-1.289 -0.61,-2.579 -0.982,-3.835 l 1.918,-0.568 c 0.386,1.304 0.729,2.642 1.02,3.978 z m -105.399,-0.154 -1.953,-0.428 c 0.292,-1.329 0.637,-2.668 1.026,-3.978 l 1.917,0.57 c -0.376,1.264 -0.709,2.555 -0.99,3.836 z m 102.793,-8.356 c -0.484,-1.212 -1.024,-2.431 -1.604,-3.624 l 1.799,-0.875 c 0.602,1.236 1.16,2.501 1.663,3.757 z m -100.178,-0.156 -1.857,-0.74 c 0.504,-1.264 1.063,-2.528 1.66,-3.758 l 1.799,0.875 c -0.578,1.186 -1.116,2.405 -1.602,3.623 z m 96.204,-7.814 c -0.685,-1.13 -1.416,-2.243 -2.176,-3.311 l 1.629,-1.16 c 0.788,1.107 1.548,2.263 2.258,3.434 z m -92.239,-0.16 -1.712,-1.033 c 0.708,-1.173 1.464,-2.329 2.247,-3.438 l 1.634,1.154 c -0.756,1.07 -1.486,2.186 -2.169,3.317 z m 87.013,-7.053 c -0.854,-0.998 -1.758,-1.978 -2.685,-2.912 l 1.42,-1.408 c 0.961,0.969 1.897,1.984 2.784,3.02 z m -81.809,-0.178 -1.524,-1.295 c 0.343,-0.404 0.693,-0.805 1.049,-1.201 0.561,-0.625 1.134,-1.236 1.718,-1.833 l 1.429,1.4 c -0.564,0.575 -1.117,1.165 -1.659,1.769 -0.344,0.383 -0.682,0.77 -1.013,1.16 z m 75.484,-6.09 c -1.003,-0.845 -2.052,-1.665 -3.119,-2.438 l 1.174,-1.619 c 1.106,0.802 2.194,1.652 3.234,2.528 z m -69.192,-0.214 -1.296,-1.523 c 1.041,-0.886 2.125,-1.741 3.223,-2.544 l 1.18,1.615 c -1.059,0.774 -2.104,1.598 -3.107,2.452 z m 61.937,-4.945 c -1.126,-0.67 -2.294,-1.309 -3.473,-1.897 l 0.895,-1.789 c 1.222,0.611 2.434,1.273 3.602,1.968 z m -54.704,-0.239 -1.025,-1.717 c 1.172,-0.7 2.385,-1.363 3.604,-1.972 l 0.894,1.789 c -1.175,0.587 -2.344,1.226 -3.473,1.9 z m 46.711,-3.666 c -1.227,-0.479 -2.484,-0.918 -3.739,-1.304 l 0.59,-1.912 c 1.301,0.401 2.604,0.856 3.876,1.353 z m -38.714,-0.228 -0.719,-1.867 c 1.273,-0.49 2.581,-0.938 3.889,-1.33 l 0.574,1.916 c -1.258,0.377 -2.517,0.809 -3.744,1.281 z m 30.184,-2.317 c -1.29,-0.271 -2.603,-0.498 -3.901,-0.673 l 0.268,-1.982 c 1.347,0.182 2.708,0.417 4.046,0.698 z m -21.64,-0.159 -0.39,-1.961 c 1.339,-0.267 2.705,-0.484 4.06,-0.647 l 0.239,1.986 c -1.304,0.156 -2.62,0.366 -3.909,0.622 z m 12.809,-0.954 c -1.31,-0.056 -2.629,-0.066 -3.963,-0.029 l -0.056,-2 c 1.381,-0.038 2.749,-0.028 4.104,0.031 z"
   id="path453" />
					</g>
					<g
   id="g454">
						<path
   fill="#111111"
   d="m 365.152,601.041 c -0.537,-0.416 -1.066,-0.842 -1.585,-1.275 l 1.283,-1.535 c 0.5,0.418 1.009,0.828 1.526,1.229 z"
   id="path454" />
					</g>
				</g>
				<g
   id="g456">
					<path
   fill="#111111"
   d="M 416.263,613.85 H 384.76 v -1.113 c 0,-5.806 -3.074,-11.053 -8.023,-13.695 -15.241,-8.144 -24.468,-23.612 -24.681,-41.378 -0.147,-12.221 4.3,-23.995 12.525,-33.156 8.287,-9.229 19.508,-14.769 31.598,-15.597 1.125,-0.076 2.265,-0.115 3.387,-0.115 26.678,0 48.382,21.636 48.382,48.23 0,16.66 -9.134,32.58 -23.836,41.547 -4.842,2.948 -7.85,8.375 -7.85,14.164 v 1.113 z m -29.524,-2 h 27.545 c 0.291,-6.146 3.603,-11.828 8.787,-14.985 14.111,-8.605 22.877,-23.871 22.877,-39.839 0,-25.492 -20.807,-46.23 -46.382,-46.23 -1.077,0 -2.17,0.037 -3.25,0.111 -23.594,1.615 -42.551,22.58 -42.26,46.733 0.205,17.024 9.036,31.843 23.624,39.638 5.347,2.854 8.76,8.381 9.059,14.572 z"
   id="path455" />
				</g>
				<g
   id="g461">
					<g
   id="g458">
						<g
   id="g457">
							<path
   fill="#ea572e"
   d="m 405.476,521.756 c 2.413,0 4.369,2.043 4.369,4.563 0,0.227 -0.016,0.448 -0.046,0.666 0.801,-1.021 2.018,-1.673 3.38,-1.673 2.414,0 4.37,2.043 4.37,4.563 0,0.832 -0.214,1.611 -0.587,2.283 0.61,-0.339 1.307,-0.532 2.047,-0.532 2.413,0 4.369,2.043 4.369,4.563 0,1.452 -0.649,2.744 -1.661,3.58 0.227,-0.038 0.46,-0.059 0.697,-0.059 2.414,0 4.37,2.043 4.37,4.563 0,1.802 -1,3.359 -2.452,4.101 1.452,0.742 2.452,2.3 2.452,4.102 0,2.52 -1.956,4.563 -4.37,4.563 -0.154,0 -0.307,-0.008 -0.457,-0.024 0.873,0.834 1.421,2.034 1.421,3.367 0,2.521 -1.956,4.563 -4.369,4.563 -0.701,0 -1.363,-0.174 -1.951,-0.48 0.313,0.629 0.491,1.343 0.491,2.102 0,2.52 -1.956,4.563 -4.37,4.563 -1.339,0 -2.536,-0.629 -3.338,-1.62 -0.087,2.44 -2.008,4.39 -4.365,4.39 -2.251,0 -4.104,-1.777 -4.343,-4.063 l -0.026,-0.008 v -43.51 c -0.001,-2.52 1.956,-4.563 4.369,-4.563 z"
   id="path456" />
						</g>
						<path
   fill="#111111"
   d="m 425.109,548.473 c 1.799,-1.334 2.502,-3.704 1.782,-5.869 -0.623,-1.879 -2.306,-3.081 -4.182,-3.239 1.313,-1.726 1.428,-4.121 0.23,-6.009 -1.134,-1.794 -3.277,-2.489 -5.221,-1.961 0.597,-2.023 0.013,-4.244 -1.727,-5.604 -1.738,-1.36 -4.096,-1.181 -5.736,0.114 -0.209,-2.488 -2.101,-4.577 -4.756,-4.649 -2.817,0.077 -4.791,2.43 -4.791,5.174 v 40.155 c -0.039,0.09 -0.034,0.175 0,0.248 v 3.222 c 0,0.076 0.021,0.149 0.055,0.213 0.409,2.472 2.37,4.382 4.97,4.309 2.263,-0.063 3.938,-1.854 4.419,-3.934 1.629,1.364 3.942,1.534 5.754,0.265 1.786,-1.258 2.374,-3.517 1.85,-5.536 1.867,0.494 3.887,-0.119 5.055,-1.782 1.287,-1.828 1.257,-4.215 0.034,-6.005 1.85,-0.195 3.354,-1.466 4.045,-3.247 0.82,-2.115 -0.025,-4.544 -1.781,-5.865 z m -2.799,14.306 c -1.002,1.769 -3.218,2.37 -5.017,1.514 -0.545,-0.474 -0.958,-1.096 -1.27,-1.739 -0.865,-1.79 -0.184,-3.678 0.938,-5.174 0.337,-0.447 -0.418,-0.878 -0.75,-0.439 -0.503,0.669 -0.896,1.39 -1.146,2.144 -1.82,-1.525 -4.368,-1.926 -6.376,-0.455 -0.451,0.328 -0.017,1.082 0.439,0.75 1.845,-1.352 4.138,-0.878 5.706,0.669 -0.119,0.827 -0.055,1.675 0.261,2.531 0.319,0.865 0.891,1.734 1.603,2.34 0.81,1.815 0.357,3.87 -1.143,5.17 -1.654,1.428 -4.066,0.899 -5.392,-0.665 -0.063,-0.072 -0.141,-0.115 -0.217,-0.128 -0.609,-2.109 -0.277,-4.505 1.738,-5.741 0.478,-0.289 0.043,-1.044 -0.438,-0.75 -2.57,1.573 -2.958,4.804 -1.889,7.438 -0.315,1.824 -1.7,3.303 -3.622,3.465 -2.144,0.179 -3.87,-1.624 -4.13,-3.644 -0.004,-0.043 -0.013,-0.086 -0.025,-0.124 v -3.077 c 0.085,-0.098 0.213,-0.251 0.251,-0.29 0.294,-0.311 0.622,-0.588 0.972,-0.835 1.049,-0.746 2.276,-1.022 3.524,-0.661 0.537,0.158 0.768,-0.682 0.23,-0.839 -0.635,-0.184 -1.274,-0.222 -1.893,-0.141 0.486,-1.049 1.386,-1.922 2.498,-2.237 0.537,-0.154 0.311,-0.993 -0.23,-0.84 -1.572,0.447 -2.8,1.777 -3.294,3.324 -0.755,0.264 -1.458,0.699 -2.059,1.253 V 552.22 c 2.484,1.104 5.468,0.959 7.876,-0.243 0.503,-0.251 0.06,-1.002 -0.439,-0.75 -0.903,0.447 -1.905,0.729 -2.928,0.835 0.597,-1.185 0.341,-2.715 -0.175,-3.891 -0.222,-0.512 -0.972,-0.068 -0.75,0.438 0.465,1.058 0.687,2.553 -0.153,3.491 -1.193,-0.026 -2.378,-0.299 -3.431,-0.84 v -10.028 c 2.088,-1.296 4.76,-0.388 6.524,1.057 0.431,0.354 1.049,-0.26 0.614,-0.613 -0.699,-0.575 -1.526,-1.074 -2.404,-1.424 0.602,-0.775 0.661,-1.875 0.367,-2.813 -0.167,-0.537 -1.006,-0.307 -0.836,0.229 0.192,0.614 0.239,1.232 -0.072,1.816 -0.081,0.153 -0.264,0.362 -0.379,0.469 -1.274,-0.333 -2.613,-0.312 -3.814,0.281 v -13.268 c 0,-2.152 0.835,-4.181 3.132,-4.761 0.256,-0.063 0.524,-0.076 0.789,-0.081 2.578,0.068 4.13,2.392 3.878,4.825 -0.038,0.583 -0.324,1.338 -0.656,1.904 -0.925,1.573 -2.711,2.11 -4.44,2.136 -0.563,0.009 -0.563,0.878 0,0.869 2.851,-0.038 5.655,-1.696 5.949,-4.727 1.317,-1.482 3.342,-1.866 5.055,-0.784 1.833,1.151 2.229,3.648 1.338,5.498 -1.228,0.699 -2.024,1.786 -2.382,3.018 -1.236,-0.166 -2.485,-0.896 -2.826,-2.161 -0.145,-0.541 -0.984,-0.311 -0.839,0.23 0.43,1.598 1.917,2.531 3.485,2.778 -0.119,0.951 0,1.952 0.371,2.902 0.2,0.521 1.04,0.294 0.84,-0.229 -0.861,-2.208 -0.273,-4.68 1.905,-5.856 1.884,-0.979 4.015,-0.311 5.131,1.453 1.117,1.761 0.64,4.075 -0.835,5.447 -0.874,0.251 -1.701,0.788 -2.314,1.444 -0.469,0.503 -0.759,1.07 -0.912,1.667 -1.9,-0.341 -3.614,0.563 -4.548,2.16 -0.409,-0.639 -0.95,-1.21 -1.648,-1.683 -0.47,-0.315 -0.904,0.438 -0.439,0.754 0.614,0.413 1.24,1.287 1.641,2.08 0.013,0.063 0.038,0.119 0.077,0.166 0.013,0.021 0.025,0.047 0.038,0.072 0.584,1.292 0.674,2.693 0.478,4.074 -0.009,0.034 -0.018,0.072 -0.018,0.115 -0.217,1.402 -0.72,2.779 -1.308,4.006 -0.239,0.503 0.511,0.946 0.754,0.439 0.341,-0.716 0.652,-1.521 0.899,-2.365 1.031,3.077 4.206,4.936 7.526,5.237 h 0.047 c 1.304,1.44 1.525,3.49 0.563,5.186 z m -0.372,-6.051 c -0.055,-0.004 -0.102,0 -0.148,0.018 -0.03,-0.009 -0.06,-0.014 -0.09,-0.018 -1.057,-0.098 -2.34,-0.49 -3.367,-0.98 -2.212,-1.053 -3.601,-2.97 -3.635,-5.455 0,-0.072 -0.021,-0.141 -0.047,-0.191 0.191,-1.539 0.098,-3.09 -0.461,-4.445 0.656,-1.619 2.195,-2.578 3.93,-2.255 -0.047,1.036 0.234,2.114 0.652,3.09 0.217,0.516 0.967,0.073 0.75,-0.438 -0.687,-1.606 -0.887,-3.423 0.431,-4.748 0.494,-0.498 1.181,-0.895 1.862,-1.069 1.974,-0.281 3.699,0.976 4.309,2.816 0.627,1.884 -0.226,3.947 -1.884,4.948 -2.677,-0.707 -5.145,0.797 -6.137,3.32 -0.205,0.524 0.635,0.746 0.839,0.23 0.84,-2.132 2.954,-3.32 5.191,-2.677 3.713,2.108 2.247,8.22 -2.195,7.854 z"
   id="path457" />
					</g>
					<g
   id="g460">
						<g
   id="g459">
							<path
   fill="#ea572e"
   d="m 394.401,521.756 c -2.413,0 -4.369,2.043 -4.369,4.563 0,0.227 0.016,0.448 0.046,0.666 -0.801,-1.021 -2.018,-1.673 -3.38,-1.673 -2.414,0 -4.37,2.043 -4.37,4.563 0,0.832 0.214,1.611 0.586,2.283 -0.61,-0.339 -1.307,-0.532 -2.046,-0.532 -2.413,0 -4.37,2.043 -4.37,4.563 0,1.452 0.65,2.744 1.662,3.58 -0.228,-0.038 -0.46,-0.059 -0.698,-0.059 -2.414,0 -4.37,2.043 -4.37,4.563 0,1.802 1,3.359 2.452,4.101 -1.452,0.742 -2.452,2.3 -2.452,4.102 0,2.52 1.956,4.563 4.37,4.563 0.154,0 0.307,-0.008 0.458,-0.024 -0.874,0.834 -1.421,2.034 -1.421,3.367 0,2.521 1.957,4.563 4.37,4.563 0.701,0 1.364,-0.174 1.951,-0.48 -0.313,0.629 -0.491,1.343 -0.491,2.102 0,2.52 1.956,4.563 4.37,4.563 1.339,0 2.537,-0.629 3.338,-1.62 0.087,2.44 2.008,4.39 4.365,4.39 2.251,0 4.104,-1.777 4.343,-4.063 l 0.027,-0.008 v -43.51 c -10e-4,-2.52 -1.958,-4.563 -4.371,-4.563 z"
   id="path458" />
						</g>
						<path
   fill="#111111"
   d="m 399.293,531.103 c 0,-2.952 0.648,-6.836 -1.982,-8.889 -0.81,-0.632 -1.793,-0.932 -2.811,-0.96 -2.653,0.073 -4.544,2.162 -4.756,4.649 -1.617,-1.286 -3.875,-1.427 -5.65,-0.18 -1.83,1.285 -2.407,3.62 -1.813,5.667 -1.964,-0.547 -3.993,0.216 -5.222,1.963 -1.275,1.815 -1.051,4.297 0.235,6.008 -1.894,0.149 -3.463,1.379 -4.185,3.241 -0.82,2.116 0.024,4.552 1.786,5.87 -1.737,1.288 -2.45,3.523 -1.858,5.646 0.53,1.901 2.218,3.252 4.121,3.463 -1.184,1.727 -1.253,4 -0.099,5.825 1.129,1.785 3.242,2.472 5.181,1.965 -0.526,1.995 0.067,4.141 1.765,5.466 1.774,1.384 4.188,1.177 5.835,-0.192 0.479,2.118 2.151,3.742 4.425,3.932 2.583,0.216 4.567,-1.932 4.969,-4.311 0.036,-0.063 0.058,-0.135 0.058,-0.213 0,-1.074 0,-2.147 0,-3.222 0.031,-0.074 0.035,-0.157 0,-0.245 0,-6.776 0,-13.553 0,-20.329 0.001,-5.051 0.001,-10.103 0.001,-15.154 z m -23.425,17.771 c 2.236,-0.644 4.352,0.546 5.191,2.677 0.204,0.516 1.045,0.292 0.839,-0.231 -0.994,-2.522 -3.461,-4.029 -6.139,-3.318 -1.708,-1.032 -2.418,-3.025 -1.883,-4.947 0.52,-1.865 2.407,-3.091 4.311,-2.821 0.651,0.17 1.271,0.538 1.769,0.982 1.434,1.278 1.212,3.223 0.523,4.839 -0.217,0.51 0.532,0.954 0.751,0.438 0.431,-1.01 0.699,-2.068 0.639,-3.09 1.741,-0.33 3.282,0.63 3.939,2.254 -0.555,1.352 -0.649,2.905 -0.458,4.442 -0.027,0.055 -0.045,0.119 -0.046,0.194 -0.036,2.513 -1.434,4.364 -3.636,5.457 -1.013,0.502 -2.317,0.882 -3.366,0.978 -0.032,0.003 -0.062,0.009 -0.09,0.017 -0.045,-0.015 -0.095,-0.021 -0.149,-0.017 -4.443,0.367 -5.906,-5.748 -2.195,-7.854 z m 18.399,24.834 c -1.915,-0.054 -3.304,-1.688 -3.623,-3.462 1.07,-2.637 0.684,-5.869 -1.889,-7.441 -0.48,-0.293 -0.917,0.459 -0.439,0.751 2.018,1.233 2.35,3.63 1.739,5.739 -0.077,0.015 -0.152,0.055 -0.215,0.13 -1.318,1.552 -3.384,1.951 -5.125,0.856 -1.772,-1.115 -2.22,-3.536 -1.406,-5.361 0.721,-0.615 1.246,-1.474 1.598,-2.34 0.342,-0.842 0.406,-1.705 0.273,-2.543 1.571,-1.538 3.853,-2.005 5.697,-0.657 0.454,0.332 0.887,-0.424 0.439,-0.751 -2.01,-1.469 -4.556,-1.072 -6.376,0.452 -0.257,-0.763 -0.66,-1.488 -1.148,-2.139 -0.333,-0.442 -1.088,-0.01 -0.751,0.439 1.151,1.532 1.753,3.341 0.94,5.171 -0.287,0.646 -0.732,1.273 -1.272,1.739 -1.783,0.852 -3.772,0.275 -4.896,-1.324 -1.162,-1.652 -0.872,-3.917 0.445,-5.371 0.016,0 0.03,0.002 0.046,0 3.319,-0.302 6.496,-2.159 7.525,-5.236 0.248,0.844 0.559,1.646 0.901,2.364 0.242,0.507 0.992,0.065 0.751,-0.438 -1.198,-2.514 -1.99,-5.515 -0.844,-8.195 0.01,-0.023 0.021,-0.047 0.031,-0.07 0.045,-0.051 0.077,-0.113 0.087,-0.186 0.389,-0.792 1.035,-1.659 1.637,-2.065 0.462,-0.312 0.027,-1.066 -0.439,-0.751 -0.701,0.473 -1.242,1.044 -1.65,1.683 -0.937,-1.603 -2.657,-2.51 -4.568,-2.159 -0.145,-0.547 -0.401,-1.075 -0.804,-1.569 -0.584,-0.719 -1.501,-1.285 -2.4,-1.546 -1.529,-1.415 -1.871,-3.622 -0.838,-5.443 1.028,-1.815 3.32,-2.396 5.134,-1.453 2.174,1.175 2.764,3.646 1.905,5.855 -0.204,0.523 0.638,0.748 0.838,0.231 0.37,-0.951 0.491,-1.953 0.37,-2.907 1.567,-0.243 3.057,-1.18 3.484,-2.777 0.146,-0.543 -0.693,-0.772 -0.838,-0.231 -0.34,1.268 -1.59,1.995 -2.823,2.163 -0.361,-1.231 -1.159,-2.319 -2.383,-3.02 -0.891,-1.84 -0.482,-3.962 1.069,-5.303 1.629,-1.407 3.98,-0.914 5.322,0.586 0.29,3.032 3.096,4.692 5.95,4.732 0.562,0.008 0.561,-0.862 0,-0.87 -1.769,-0.025 -3.466,-0.576 -4.442,-2.134 -0.345,-0.552 -0.619,-1.331 -0.654,-1.907 -0.255,-2.435 1.298,-4.754 3.876,-4.825 2.275,0.063 3.868,1.944 3.923,4.156 0.004,0.183 0,0.366 0,0.549 0,1.313 0,2.625 0,3.937 0,3.156 0,6.312 0,9.467 -1.203,-0.591 -2.54,-0.612 -3.816,-0.282 -0.095,-0.092 -0.25,-0.259 -0.33,-0.382 -0.379,-0.579 -0.317,-1.27 -0.12,-1.9 0.167,-0.537 -0.672,-0.765 -0.839,-0.23 -0.293,0.94 -0.23,2.04 0.369,2.814 -0.88,0.349 -1.705,0.848 -2.404,1.422 -0.435,0.355 0.185,0.968 0.615,0.615 1.761,-1.444 4.434,-2.352 6.524,-1.06 0,1.503 0,3.007 0,4.51 0,1.84 0,3.679 0,5.519 -1.056,0.541 -2.239,0.816 -3.431,0.844 -0.841,-0.939 -0.617,-2.437 -0.156,-3.491 0.223,-0.509 -0.526,-0.952 -0.751,-0.439 -0.514,1.175 -0.77,2.705 -0.172,3.889 -1.023,-0.104 -2.025,-0.385 -2.928,-0.835 -0.5,-0.25 -0.941,0.5 -0.439,0.751 2.406,1.201 5.392,1.348 7.877,0.245 0,4.458 0,8.916 0,13.374 -0.604,-0.552 -1.305,-0.987 -2.059,-1.253 -0.494,-1.546 -1.725,-2.875 -3.294,-3.321 -0.541,-0.153 -0.77,0.687 -0.231,0.839 1.114,0.316 2.013,1.187 2.499,2.236 -0.619,-0.081 -1.257,-0.043 -1.894,0.143 -0.538,0.156 -0.309,0.996 0.231,0.839 1.275,-0.371 2.443,-0.063 3.525,0.661 0.354,0.236 0.671,0.529 0.969,0.834 0.04,0.04 0.169,0.19 0.254,0.287 0,1.027 0,2.054 0,3.08 -0.012,0.039 -0.021,0.079 -0.027,0.122 -0.273,2.109 -1.976,3.703 -4.129,3.643 z"
   id="path459" />
					</g>
				</g>
				<g
   id="g463">
					<g
   id="g462">
						<path
   fill="#ffffff"
   d="m 415.737,636.697 h -30.452 c -3.475,0 -6.304,-2.828 -6.304,-6.303 v -13.509 c 0,-3.475 2.829,-6.302 6.304,-6.302 h 30.452 c 3.476,0 6.304,2.827 6.304,6.302 v 13.509 c 0,3.475 -2.828,6.303 -6.304,6.303 z"
   id="path461" />
					</g>
				</g>
				<g
   id="g466">
					<g
   id="g465">
						<g
   id="g464">
							<path
   fill="#111111"
   d="m 415.737,637.696 h -30.452 c -4.027,0 -7.304,-3.275 -7.304,-7.302 v -13.509 c 0,-4.026 3.276,-7.302 7.304,-7.302 h 30.452 c 4.027,0 7.304,3.275 7.304,7.302 v 13.509 c 0,4.027 -3.276,7.302 -7.304,7.302 z m -30.451,-26.112 c -2.924,0 -5.304,2.378 -5.304,5.302 v 13.509 c 0,2.924 2.379,5.302 5.304,5.302 h 30.452 c 2.925,0 5.304,-2.378 5.304,-5.302 v -13.509 c 0,-2.924 -2.379,-5.302 -5.304,-5.302 z"
   id="path463" />
						</g>
					</g>
				</g>
				<g
   id="g467">
					<rect
   x="397.87"
   y="584.75"
   fill="#111111"
   width="4.2589998"
   height="25.834"
   id="rect466" />
				</g>
				<path
   fill="#111111"
   d="m 417.207,587.881 c 6.316,-3.971 11.374,-9.817 14.314,-16.549 l 2.515,1.055 c -3.16,7.257 -8.605,13.555 -15.409,17.822 z"
   id="path467" />
				<path
   fill="#111111"
   d="m 434.377,555.734 c -0.243,-4.56 -1.35,-8.952 -3.293,-13.068 l 2.45,-1.199 c 2.111,4.464 3.31,9.223 3.566,14.161 z"
   id="path468" />
			</g>
		</g>
		<g
   id="g474">
			<g
   id="g471">
				<g
   id="g470">
					<path
   fill="#111111"
   d="m 676.567,551.775 c 0,-0.541 0.215,-1.041 0.621,-1.447 l 3.701,-3.701 2.315,2.315 c 0.411,0.411 0.968,0.583 1.121,0.536 l 3.197,-3.212 c -0.008,-0.391 -0.226,-0.859 -0.505,-1.138 l -2.315,-2.315 3.283,-3.282 c 0.929,-0.929 2.747,-1.182 3.87,-0.061 l 2.276,2.277 0.915,-0.914 c 0.475,-0.476 1.1,-0.759 1.76,-0.796 0.728,-0.041 1.416,0.223 1.937,0.744 l 3.688,3.688 c 0.988,0.989 0.945,2.711 -0.046,3.702 l -0.914,0.915 2.681,2.681 c 0.563,0.563 0.898,1.439 0.898,2.346 0,0.742 -0.236,1.388 -0.665,1.816 l -3.283,3.284 -3.018,-3.019 c -0.053,-0.052 -0.091,-0.081 -0.113,-0.097 -0.014,0.027 -0.126,0.099 -0.322,0.294 l -3.239,3.239 c -0.129,0.13 -0.198,0.217 -0.234,0.27 0.021,0.026 0.052,0.062 0.096,0.105 l 3.018,3.02 -3.7,3.701 c -0.548,0.548 -1.344,0.688 -2.182,0.387 -0.717,-0.259 -1.288,-0.762 -1.564,-1.038 l -2.681,-2.681 -1.332,1.332 c -0.482,0.482 -1.112,0.752 -1.774,0.76 -0.686,0.008 -1.346,-0.271 -1.858,-0.783 l -3.688,-3.689 c -0.503,-0.503 -0.78,-1.149 -0.78,-1.822 v 0 c 0,-0.672 0.271,-1.313 0.763,-1.805 l 1.332,-1.331 -2.277,-2.277 c -0.643,-0.638 -0.982,-1.332 -0.982,-2.004 z m 4.323,-2.32 -2.322,2.32 c 0,0.052 0.072,0.271 0.394,0.591 l 3.691,3.691 -2.746,2.746 c -0.231,0.231 -0.235,0.544 0.018,0.798 l 3.688,3.689 c 0.131,0.131 0.277,0.199 0.422,0.197 0.136,-10e-4 0.271,-0.063 0.383,-0.174 l 2.746,-2.746 4.096,4.095 c 0.447,0.447 0.879,0.62 1,0.609 l 2.208,-2.24 -1.607,-1.608 c -0.473,-0.471 -0.713,-0.98 -0.713,-1.515 0,-0.744 0.454,-1.294 0.851,-1.69 l 3.239,-3.239 c 1.507,-1.506 2.691,-0.77 3.264,-0.197 l 1.604,1.604 1.869,-1.869 c 0.024,-0.03 0.079,-0.172 0.079,-0.402 0,-0.406 -0.157,-0.776 -0.313,-0.932 l -4.095,-4.095 2.328,-2.329 c 0.243,-0.243 0.288,-0.632 0.045,-0.874 l -3.688,-3.688 c -0.117,-0.118 -0.251,-0.171 -0.409,-0.162 -0.163,0.01 -0.335,0.089 -0.458,0.213 l -2.33,2.329 -3.69,-3.69 c -0.271,-0.271 -0.824,-0.157 -1.042,0.06 l -1.869,1.868 0.902,0.901 c 0.657,0.658 1.082,1.632 1.082,2.479 0,0.595 -0.2,1.108 -0.578,1.486 l -3.239,3.239 c -1.033,1.031 -2.832,0.511 -3.907,-0.563 z"
   id="path469" />
				</g>
			</g>
			<g
   id="g473">
				<g
   id="g472">
					<path
   fill="#ea572e"
   d="m 683.277,539.946 -2.071,-2.071 3.47,-3.471 c 0.679,-0.679 1.468,-1.89 0.871,-2.487 l -3.152,-3.152 -2.5,2.499 c -0.678,0.679 -0.879,0.46 -1.475,-0.137 l -3.239,-3.238 c -0.598,-0.597 -1.113,-1.096 -0.434,-1.774 l 2.498,-2.499 -2.496,-2.495 c -0.595,-0.596 -2.068,-0.069 -2.748,0.609 l -3.47,3.471 -1.811,-1.81 c -0.596,-0.597 -1.717,-1 -2.396,-0.321 l -3.689,3.689 c -0.678,0.679 -0.451,1.977 0.146,2.572 l 1.81,1.811 -2.885,2.885 c -0.679,0.68 -0.603,1.549 -0.006,2.146 l 2.494,2.495 1.486,-1.486 c 0.679,-0.678 2.19,-1.175 2.787,-0.578 l 3.238,3.239 c 0.597,0.596 -0.197,1.81 -0.876,2.488 l -1.486,1.485 3.152,3.153 c 0.598,0.597 1.206,0.412 1.885,-0.268 l 2.885,-2.886 2.071,2.071 c 0.596,0.597 1.632,0.563 2.312,-0.115 l 3.689,-3.689 c 0.679,-0.68 0.536,-1.539 -0.06,-2.136 z"
   id="path471" />
				</g>
			</g>
		</g>
		<g
   id="g478">
			<g
   id="g475">
				<rect
   x="739.91101"
   y="597.08099"
   fill="#111111"
   width="19"
   height="2"
   id="rect474" />
			</g>
			<g
   id="g476">
				<rect
   x="727.745"
   y="597.08099"
   fill="#111111"
   width="8.5"
   height="2"
   id="rect475" />
			</g>
			<g
   id="g477">
				<path
   fill="#111111"
   d="m 719.838,602.341 c -2.349,0 -4.26,-1.911 -4.26,-4.26 0,-2.35 1.911,-4.261 4.26,-4.261 2.349,0 4.26,1.911 4.26,4.261 0,2.349 -1.911,4.26 -4.26,4.26 z m 0,-6.521 c -1.246,0 -2.26,1.015 -2.26,2.261 0,1.246 1.014,2.26 2.26,2.26 1.246,0 2.26,-1.014 2.26,-2.26 0,-1.246 -1.014,-2.261 -2.26,-2.261 z"
   id="path476" />
			</g>
		</g>
		<g
   id="g482">
			<g
   id="g479">
				<rect
   x="649.51001"
   y="561.42499"
   fill="#111111"
   width="19"
   height="2"
   id="rect478" />
			</g>
			<g
   id="g480">
				<rect
   x="637.34399"
   y="561.42499"
   fill="#111111"
   width="8.5"
   height="2"
   id="rect479" />
			</g>
			<g
   id="g481">
				<path
   fill="#111111"
   d="m 629.437,566.685 c -2.349,0 -4.26,-1.911 -4.26,-4.26 0,-2.35 1.911,-4.261 4.26,-4.261 2.349,0 4.26,1.911 4.26,4.261 -10e-4,2.348 -1.912,4.26 -4.26,4.26 z m 0,-6.521 c -1.246,0 -2.26,1.015 -2.26,2.261 0,1.246 1.014,2.26 2.26,2.26 1.246,0 2.26,-1.014 2.26,-2.26 0,-1.246 -1.014,-2.261 -2.26,-2.261 z"
   id="path480" />
			</g>
		</g>
		<g
   id="g486">
			<g
   id="g483">
				<rect
   x="318.233"
   y="533.87799"
   fill="#111111"
   width="19"
   height="2"
   id="rect482" />
			</g>
			<g
   id="g484">
				<rect
   x="306.06699"
   y="533.87799"
   fill="#111111"
   width="8.5"
   height="2"
   id="rect483" />
			</g>
			<g
   id="g485">
				<path
   fill="#111111"
   d="m 298.16,539.138 c -2.349,0 -4.26,-1.911 -4.26,-4.26 0,-2.35 1.911,-4.261 4.26,-4.261 2.349,0 4.26,1.911 4.26,4.261 0,2.349 -1.911,4.26 -4.26,4.26 z m 0,-6.521 c -1.246,0 -2.26,1.015 -2.26,2.261 0,1.246 1.014,2.26 2.26,2.26 1.246,0 2.26,-1.014 2.26,-2.26 0,-1.246 -1.014,-2.261 -2.26,-2.261 z"
   id="path484" />
			</g>
		</g>
		<g
   id="g490">
			<g
   id="g487">
				<rect
   x="125.385"
   y="640.44202"
   fill="#111111"
   width="19"
   height="2"
   id="rect486" />
			</g>
			<g
   id="g488">
				<rect
   x="113.219"
   y="640.44202"
   fill="#111111"
   width="8.5"
   height="2"
   id="rect487" />
			</g>
			<g
   id="g489">
				<path
   fill="#111111"
   d="m 105.312,645.702 c -2.349,0 -4.26,-1.911 -4.26,-4.26 0,-2.35 1.911,-4.261 4.26,-4.261 2.349,0 4.26,1.911 4.26,4.261 0,2.349 -1.911,4.26 -4.26,4.26 z m 0,-6.52 c -1.246,0 -2.26,1.015 -2.26,2.261 0,1.246 1.014,2.26 2.26,2.26 1.246,0 2.26,-1.014 2.26,-2.26 0,-1.246 -1.014,-2.261 -2.26,-2.261 z"
   id="path488" />
			</g>
		</g>
		<g
   id="g491">
			<path
   fill="#111111"
   d="m 744.194,726.257 c -0.761,0 -1.476,-0.297 -2.014,-0.835 l -2.032,-2.032 c -1.11,-1.11 -1.11,-2.917 0,-4.028 l 2.032,-2.032 c 1.076,-1.076 2.952,-1.075 4.028,0 l 2.032,2.032 c 1.11,1.111 1.11,2.918 0,4.028 l -2.032,2.032 c -0.537,0.538 -1.253,0.835 -2.014,0.835 z m 0,-7.762 c -0.227,0 -0.439,0.088 -0.6,0.248 l -2.032,2.032 c -0.33,0.331 -0.33,0.869 0,1.2 l 2.032,2.032 c 0.32,0.321 0.88,0.321 1.2,0 l 2.032,-2.032 c 0.33,-0.331 0.33,-0.869 0,-1.2 l -2.032,-2.032 c -0.159,-0.16 -0.373,-0.248 -0.6,-0.248 z"
   id="path490" />
		</g>
		<g
   id="g492">
			<path
   fill="#111111"
   d="m 334.544,739.686 c -0.761,0 -1.476,-0.296 -2.014,-0.834 l -2.032,-2.032 c -1.111,-1.111 -1.111,-2.918 0,-4.028 l 2.032,-2.032 c 1.077,-1.076 2.952,-1.076 4.028,-10e-4 l 2.032,2.033 c 1.11,1.11 1.11,2.917 0,4.028 l -2.032,2.032 c -0.538,0.538 -1.254,0.834 -2.014,0.834 z m 0,-7.762 c -0.227,0 -0.44,0.088 -0.6,0.249 l -2.032,2.032 c -0.33,0.331 -0.33,0.869 0,1.2 l 2.032,2.032 c 0.321,0.321 0.88,0.32 1.2,-10e-4 l 2.032,-2.031 c 0.33,-0.331 0.33,-0.869 0,-1.2 l -2.032,-2.032 c -0.16,-0.16 -0.374,-0.249 -0.6,-0.249 z"
   id="path491" />
		</g>
		<g
   id="g493">
			<path
   fill="#111111"
   d="m 146.167,666.951 c -0.761,0 -1.476,-0.296 -2.014,-0.834 l -2.032,-2.032 c -1.111,-1.111 -1.111,-2.918 0,-4.028 l 2.032,-2.032 c 1.076,-1.076 2.952,-1.076 4.028,-10e-4 l 2.032,2.033 c 1.111,1.11 1.111,2.917 0,4.028 l -2.032,2.032 c -0.538,0.538 -1.254,0.834 -2.014,0.834 z m 0,-7.762 c -0.227,0 -0.44,0.088 -0.6,0.249 l -2.032,2.032 c -0.33,0.331 -0.33,0.869 0,1.2 l 2.032,2.032 c 0.321,0.321 0.88,0.32 1.2,-10e-4 l 2.033,-2.031 c 0.33,-0.331 0.33,-0.869 0,-1.2 l -2.033,-2.032 c -0.161,-0.16 -0.374,-0.249 -0.6,-0.249 z"
   id="path492" />
		</g>
		<g
   id="g494">
			<path
   fill="#111111"
   d="m 73.215,585.225 c -0.761,0 -1.476,-0.297 -2.014,-0.835 l -2.032,-2.032 c -1.11,-1.11 -1.11,-2.917 0,-4.028 l 2.032,-2.032 c 1.076,-1.076 2.952,-1.075 4.028,0 l 2.032,2.032 c 1.11,1.111 1.11,2.918 0,4.028 l -2.032,2.032 c -0.537,0.538 -1.253,0.835 -2.014,0.835 z m 0,-7.762 c -0.227,0 -0.439,0.088 -0.6,0.248 l -2.032,2.032 c -0.33,0.331 -0.33,0.869 0,1.2 l 2.032,2.032 c 0.32,0.321 0.88,0.321 1.2,0 l 2.032,-2.032 c 0.33,-0.331 0.33,-0.869 0,-1.2 l -2.032,-2.032 c -0.159,-0.16 -0.373,-0.248 -0.6,-0.248 z"
   id="path493" />
		</g>
		<g
   id="g495">
			<polygon
   fill="#111111"
   points="639.903,541.497 638.679,543.078 631.658,537.643 625.095,543.811 617.588,537.592 610.844,543.812 603.521,537.608 596.615,543.632 589.471,538.082 582.953,543.128 581.729,541.547 589.473,535.551 596.542,541.042 603.503,534.971 610.788,541.143 617.518,534.937 625.012,541.145 631.532,535.016 "
   id="polygon494" />
		</g>
		<g
   id="g496">
			<path
   fill="#111111"
   d="m 155.681,542.546 -1.414,-1.414 3.5,-3.499 c 0.728,-0.728 1.695,-1.129 2.724,-1.129 10e-4,0 0.002,0 0.003,0 1.03,10e-4 1.999,0.403 2.727,1.133 l 1.344,1.349 c 0.363,0.364 0.815,0.56 1.365,0.544 0.517,-0.015 0.99,-0.235 1.333,-0.622 l 1.252,-1.41 c 0.724,-0.815 1.764,-1.287 2.854,-1.295 1.073,-0.002 2.137,0.448 2.873,1.253 l 1.32,1.445 c 0.365,0.4 0.887,0.625 1.406,0.603 0.542,-0.011 1.032,-0.246 1.381,-0.661 l 1.052,-1.252 c 0.708,-0.844 1.746,-1.345 2.848,-1.374 1.082,-0.035 2.166,0.415 2.918,1.221 l 1.388,1.485 c 0.369,0.396 0.901,0.604 1.411,0.587 0.542,-0.018 1.029,-0.257 1.374,-0.674 l 0.998,-1.214 c 0.69,-0.837 1.707,-1.347 2.79,-1.399 1.095,-0.054 2.144,0.358 2.909,1.125 l 3.736,3.736 -1.414,1.414 -3.736,-3.736 c -0.374,-0.374 -0.859,-0.564 -1.399,-0.541 -0.528,0.025 -1.005,0.265 -1.342,0.673 l -0.998,1.213 c -0.706,0.857 -1.747,1.367 -2.855,1.402 -1.112,0.017 -2.178,-0.411 -2.935,-1.221 l -1.388,-1.485 c -0.367,-0.393 -0.857,-0.597 -1.403,-0.587 -0.538,0.015 -1.024,0.249 -1.37,0.661 l -1.052,1.252 c -0.714,0.851 -1.76,1.352 -2.87,1.375 -1.096,0.009 -2.176,-0.434 -2.925,-1.254 l -1.32,-1.444 c -0.358,-0.393 -0.894,-0.629 -1.382,-0.603 -0.532,0.004 -1.02,0.225 -1.372,0.622 l -1.252,1.411 c -0.703,0.791 -1.714,1.263 -2.771,1.293 -1.059,0.028 -2.093,-0.382 -2.839,-1.132 l -1.344,-1.348 c -0.352,-0.352 -0.808,-0.582 -1.313,-0.545 -0.494,0 -0.96,0.193 -1.31,0.543 z"
   id="path495" />
		</g>
		<g
   id="g497">
			<rect
   x="466.40601"
   y="527.646"
   fill="#111111"
   width="19"
   height="2"
   id="rect496" />
		</g>
		<g
   id="g498">
			<rect
   x="721.98901"
   y="702.96301"
   fill="#111111"
   width="19"
   height="2"
   id="rect497" />
		</g>
		<g
   id="g499">
			<rect
   x="448.38501"
   y="735.711"
   fill="#111111"
   width="19"
   height="2"
   id="rect498" />
		</g>
		<g
   id="g500">
			<rect
   x="55.903999"
   y="667.44501"
   fill="#111111"
   width="19"
   height="2"
   id="rect499" />
		</g>
		<g
   id="g501">
			<rect
   x="105.824"
   y="535.20203"
   fill="#111111"
   width="19"
   height="2"
   id="rect500" />
		</g>
		<g
   id="g504">
			<g
   id="g503">
				<g
   id="g502">
					<path
   fill="#111111"
   d="m 111.477,614.317 c -1.105,-0.733 -2.178,-1.547 -3.188,-2.42 -0.83,-0.713 -1.622,-1.468 -2.362,-2.251 l -0.013,0.006 -0.605,-0.673 c -1.8,-1.999 -3.335,-4.215 -4.564,-6.586 -1.991,-3.841 -3.162,-7.995 -3.478,-12.351 -0.619,-8.485 2.111,-16.713 7.688,-23.168 5.577,-6.455 13.32,-10.351 21.805,-10.967 8.383,-0.612 16.731,2.138 23.129,7.641 6.475,5.579 10.387,13.337 11.017,21.848 0.617,8.487 -2.113,16.717 -7.687,23.175 -5.58,6.455 -13.326,10.351 -21.813,10.969 -0.789,0.059 -1.588,0.088 -2.377,0.088 -6.269,0 -12.339,-1.836 -17.552,-5.311 z m 15.456,-56.038 c -7.851,0.572 -15.017,4.177 -20.179,10.15 -5.16,5.975 -7.688,13.589 -7.115,21.441 0.294,4.031 1.377,7.876 3.218,11.428 1.025,1.978 2.282,3.84 3.741,5.544 l 0.488,0.548 c 0.842,0.947 1.768,1.856 2.755,2.705 0.937,0.808 1.93,1.562 2.953,2.241 5.43,3.618 11.886,5.309 18.438,4.831 7.853,-0.572 15.022,-4.178 20.185,-10.152 5.159,-5.977 7.686,-13.592 7.115,-21.444 -0.583,-7.876 -4.205,-15.056 -10.197,-20.22 -5.363,-4.612 -12.182,-7.153 -19.199,-7.153 -0.729,0 -1.47,0.029 -2.203,0.081 z"
   id="path501" />
				</g>
			</g>
			
				<rect
   x="102.268"
   y="610.87402"
   transform="matrix(-0.7071,0.7071,-0.7071,-0.7071,612.7252,970.3466)"
   fill="#111111"
   width="6.29"
   height="2.3789999"
   id="rect503" />
			
				<rect
   x="63.161999"
   y="624.32599"
   transform="matrix(-0.7071,0.7071,-0.7071,-0.7071,593.9386,1015.7195)"
   fill="#f3a52d"
   width="46.895"
   height="13.083"
   id="rect504" />
			<g
   id="XMLID_10_">
				<path
   id="XMLID_15_"
   fill="#ea572e"
   d="m 129.117,587.773 -15.816,19.604 c -8.677,-6.985 -11.717,-18.191 -7.754,-28.589 z" />
				<path
   id="XMLID_13_"
   fill="#7c7e82"
   d="M 129.117,587.773 144.93,568.16 c 10.845,8.732 12.558,24.597 3.822,35.425 -8.731,10.83 -24.606,12.531 -35.45,3.793 v 0 z" />
				<path
   id="XMLID_12_"
   fill="#f3a52d"
   d="m 129.117,587.773 -13.792,-21.106 c 9.324,-6.081 20.927,-5.491 29.605,1.493 z" />
				<path
   id="XMLID_11_"
   fill="#3dc7d2"
   d="m 129.117,587.773 -23.57,-8.984 c 1.982,-5.201 5.114,-9.078 9.777,-12.122 z" />
				<g
   id="XMLID_35_">
					<path
   fill="#111111"
   d="m 129.118,613.964 c -5.957,0 -11.797,-2.063 -16.444,-5.808 l -0.779,-0.628 32.884,-40.773 0.778,0.626 c 5.454,4.392 8.87,10.642 9.621,17.599 0.751,6.958 -1.255,13.788 -5.648,19.233 -4.996,6.196 -12.436,9.751 -20.412,9.751 z m -14.398,-6.752 c 4.194,3.112 9.15,4.752 14.398,4.752 7.368,0 14.24,-3.283 18.855,-9.007 4.057,-5.028 5.91,-11.337 5.216,-17.763 -0.658,-6.095 -3.53,-11.601 -8.121,-15.613 z"
   id="path504" />
				</g>
			</g>
		</g>
		<g
   id="g512">
			<path
   fill-rule="evenodd"
   clip-rule="evenodd"
   fill="#e6e6e6"
   d="m 719.599,733.769 h -9.913 c -3.404,0 -6.189,-2.786 -6.189,-6.189 v 0 c 0,-3.404 2.785,-6.189 6.189,-6.189 h 9.913 c 3.403,0 6.188,2.785 6.188,6.189 v 0 c 0,3.402 -2.785,6.189 -6.188,6.189 z"
   id="path505" />
			<path
   fill-rule="evenodd"
   clip-rule="evenodd"
   fill="#e6e6e6"
   d="m 738.005,751.563 h -9.913 c -3.404,0 -6.189,-2.785 -6.189,-6.188 v 0 c 0,-3.404 2.785,-6.189 6.189,-6.189 h 9.913 c 3.404,0 6.189,2.785 6.189,6.189 v 0 c 0,3.403 -2.785,6.188 -6.189,6.188 z"
   id="path506" />
			<g
   id="g508">
				<circle
   fill-rule="evenodd"
   clip-rule="evenodd"
   fill="#7c7e82"
   cx="739.61499"
   cy="745.69098"
   r="1.5599999"
   id="circle506" />
				<circle
   fill-rule="evenodd"
   clip-rule="evenodd"
   fill="#7c7e82"
   cx="733.04901"
   cy="745.69098"
   r="1.5599999"
   id="circle507" />
				<circle
   fill-rule="evenodd"
   clip-rule="evenodd"
   fill="#7c7e82"
   cx="726.48102"
   cy="745.69098"
   r="1.5599999"
   id="circle508" />
			</g>
			<g
   id="g511">
				<circle
   fill-rule="evenodd"
   clip-rule="evenodd"
   fill="#7c7e82"
   cx="721.20801"
   cy="727.57898"
   r="1.5599999"
   id="circle509" />
				<circle
   fill-rule="evenodd"
   clip-rule="evenodd"
   fill="#7c7e82"
   cx="714.64203"
   cy="727.57898"
   r="1.5599999"
   id="circle510" />
				<circle
   fill-rule="evenodd"
   clip-rule="evenodd"
   fill="#7c7e82"
   cx="708.07501"
   cy="727.57898"
   r="1.5599999"
   id="circle511" />
			</g>
		</g>
		<g
   id="g515">
			<g
   id="g513">
				<path
   fill-rule="evenodd"
   clip-rule="evenodd"
   fill="#ea572e"
   d="m 299.744,706.776 c -9.184,0 -19.181,7.107 -19.181,18.966 0,18.047 19.227,37.118 19.227,37.118 0,0 19.226,-19.382 19.226,-37.118 0,-11.858 -10.612,-18.966 -19.272,-18.966 z m -0.023,30.474 c -14.832,0 -14.832,-23 0,-23 14.832,0 14.832,23 0,23 z"
   id="path512" />
			</g>
			<g
   id="g514">
				<path
   fill="#111111"
   d="m 299.829,741.25 c -0.446,0 -0.887,-0.019 -1.324,-0.056 l 0.166,-1.992 c 0.923,0.076 1.882,0.063 2.809,-0.052 l 0.24,1.986 c -0.623,0.076 -1.259,0.114 -1.891,0.114 z m -5.507,-1.001 c -1.002,-0.379 -1.97,-0.865 -2.878,-1.445 l 1.078,-1.686 c 0.791,0.507 1.635,0.931 2.507,1.26 z m 11.543,-0.212 -0.775,-1.844 c 0.86,-0.362 1.688,-0.816 2.459,-1.35 l 1.138,1.645 c -0.885,0.613 -1.834,1.133 -2.822,1.549 z m -17.68,-4.016 c -0.715,-0.803 -1.347,-1.682 -1.88,-2.612 l 1.735,-0.994 c 0.464,0.811 1.016,1.577 1.639,2.278 z m 23.658,-0.433 -1.542,-1.273 c 0.598,-0.724 1.121,-1.509 1.556,-2.336 l 1.771,0.93 c -0.5,0.948 -1.1,1.85 -1.785,2.679 z m -27.136,-6.159 c -0.257,-1.037 -0.407,-2.11 -0.446,-3.188 l 1.999,-0.072 c 0.034,0.939 0.165,1.875 0.389,2.779 z m 30.371,-0.557 -1.958,-0.408 c 0.19,-0.913 0.287,-1.853 0.287,-2.792 l 2,-0.061 v 0.061 c 0,1.076 -0.111,2.153 -0.329,3.2 z m -28.443,-6.421 -1.943,-0.473 c 0.254,-1.046 0.619,-2.066 1.083,-3.034 l 1.803,0.865 c -0.404,0.843 -0.722,1.732 -0.943,2.642 z m 26.246,-0.535 c -0.258,-0.899 -0.612,-1.773 -1.051,-2.601 l 1.767,-0.938 c 0.504,0.949 0.91,1.953 1.206,2.985 z m -23.239,-5.222 -1.5,-1.322 c 0.709,-0.805 1.505,-1.539 2.365,-2.183 l 1.198,1.602 c -0.75,0.562 -1.444,1.202 -2.063,1.903 z m 19.999,-0.408 c -0.647,-0.678 -1.367,-1.289 -2.138,-1.818 l 1.131,-1.648 c 0.885,0.606 1.71,1.308 2.453,2.084 z m -14.665,-3.3 -0.715,-1.867 c 1.005,-0.385 2.052,-0.665 3.112,-0.832 l 0.312,1.975 c -0.923,0.146 -1.834,0.389 -2.709,0.724 z m 9.184,-0.186 c -0.883,-0.298 -1.804,-0.504 -2.738,-0.613 l 0.233,-1.986 c 1.071,0.126 2.128,0.362 3.142,0.703 z"
   id="path513" />
			</g>
		</g>
		<g
   id="g525">
			<circle
   fill="#ffffff"
   cx="530.37299"
   cy="711.45001"
   r="51.487999"
   id="circle515" />
			<g
   id="g519">
				<g
   id="g516">
					<path
   fill="#111111"
   d="m 571.079,756.995 -1.332,-1.49 c 0.488,-0.438 0.969,-0.882 1.442,-1.335 l 1.383,1.445 c -0.489,0.469 -0.987,0.929 -1.493,1.38 z"
   id="path515" />
				</g>
				<g
   id="g517">
					<path
   fill="#111111"
   d="m 576.118,751.933 -1.496,-1.326 c 0.872,-0.984 1.721,-2.01 2.523,-3.048 l 1.582,1.223 c -0.829,1.072 -1.706,2.133 -2.609,3.151 z m -91.584,-0.105 c -0.898,-1.02 -1.774,-2.081 -2.603,-3.157 l 1.584,-1.221 c 0.802,1.041 1.648,2.068 2.519,3.054 z m 97.153,-7.22 -1.678,-1.088 c 0.716,-1.104 1.402,-2.245 2.039,-3.391 l 1.748,0.973 c -0.659,1.185 -1.369,2.364 -2.109,3.506 z M 478.983,744.49 c -0.735,-1.139 -1.442,-2.321 -2.103,-3.513 l 1.75,-0.969 c 0.638,1.152 1.322,2.296 2.032,3.397 z m 107.11,-7.958 -1.824,-0.822 c 0.541,-1.199 1.047,-2.43 1.505,-3.66 l 1.875,0.699 c -0.474,1.271 -0.998,2.544 -1.556,3.783 z m -111.499,-0.13 c -0.556,-1.237 -1.076,-2.513 -1.548,-3.79 l 1.875,-0.693 c 0.457,1.235 0.961,2.469 1.497,3.665 z m 114.635,-8.519 -1.926,-0.537 c 0.354,-1.27 0.667,-2.563 0.933,-3.843 l 1.959,0.406 c -0.276,1.324 -0.6,2.661 -0.966,3.974 z m -117.754,-0.144 c -0.363,-1.32 -0.685,-2.659 -0.955,-3.98 l 1.959,-0.4 c 0.262,1.277 0.572,2.572 0.924,3.85 z m 119.547,-8.878 -1.986,-0.24 c 0.158,-1.3 0.273,-2.626 0.346,-3.942 l 1.996,0.109 c -0.073,1.359 -0.193,2.73 -0.356,4.073 z m -121.317,-0.153 c -0.16,-1.351 -0.276,-2.724 -0.347,-4.082 l 1.998,-0.103 c 0.067,1.314 0.18,2.643 0.335,3.948 z m 119.736,-8.976 c -0.037,-1.317 -0.119,-2.646 -0.243,-3.949 l 1.99,-0.191 c 0.129,1.349 0.214,2.723 0.253,4.084 z m -118.136,-0.155 -1.998,-0.064 c 0.043,-1.361 0.132,-2.735 0.264,-4.082 l 1.99,0.195 c -0.128,1.303 -0.214,2.632 -0.256,3.951 z m 117.219,-8.694 c -0.232,-1.291 -0.513,-2.593 -0.833,-3.868 l 1.939,-0.486 c 0.331,1.318 0.621,2.664 0.862,3.999 z m -116.277,-0.155 -1.967,-0.361 c 0.247,-1.346 0.54,-2.69 0.873,-3.996 l 1.938,0.492 c -0.32,1.263 -0.605,2.563 -0.844,3.865 z m 114.039,-8.455 c -0.427,-1.246 -0.901,-2.492 -1.41,-3.704 l 1.844,-0.773 c 0.526,1.253 1.017,2.541 1.459,3.829 z m -111.775,-0.149 -1.891,-0.654 c 0.444,-1.284 0.938,-2.567 1.465,-3.813 l 1.842,0.779 c -0.51,1.205 -0.987,2.446 -1.416,3.688 z m 108.256,-8.032 c -0.607,-1.159 -1.264,-2.319 -1.953,-3.446 l 1.707,-1.043 c 0.712,1.165 1.391,2.363 2.018,3.562 z m -104.723,-0.125 -1.77,-0.932 c 0.631,-1.199 1.312,-2.395 2.023,-3.552 l 1.703,1.049 c -0.687,1.118 -1.346,2.274 -1.956,3.435 z m 100.013,-7.43 c -0.778,-1.06 -1.602,-2.106 -2.448,-3.113 l 1.531,-1.287 c 0.874,1.04 1.726,2.122 2.528,3.217 z m -95.289,-0.106 -1.611,-1.186 c 0.801,-1.088 1.654,-2.168 2.535,-3.21 l 1.527,1.291 c -0.853,1.009 -1.678,2.053 -2.451,3.105 z m 89.501,-6.657 c -0.932,-0.937 -1.901,-1.849 -2.883,-2.711 l 1.32,-1.502 c 1.015,0.892 2.018,1.835 2.98,2.803 z m -83.703,-0.091 -1.414,-1.414 c 0.957,-0.958 1.961,-1.898 2.985,-2.796 l 1.318,1.504 c -0.99,0.868 -1.962,1.779 -2.889,2.706 z m 76.973,-5.729 c -1.055,-0.782 -2.149,-1.539 -3.255,-2.25 l 1.082,-1.682 c 1.143,0.734 2.274,1.517 3.364,2.324 z m -70.227,-0.079 -1.188,-1.609 c 1.101,-0.812 2.234,-1.591 3.372,-2.319 l 1.078,1.686 c -1.1,0.703 -2.198,1.458 -3.262,2.242 z m 62.704,-4.668 c -1.156,-0.614 -2.352,-1.197 -3.553,-1.733 l 0.816,-1.826 c 1.241,0.555 2.478,1.157 3.674,1.792 z m -55.165,-0.065 -0.932,-1.77 c 1.208,-0.636 2.447,-1.237 3.685,-1.787 l 0.813,1.828 c -1.198,0.531 -2.397,1.113 -3.566,1.729 z m 47.02,-3.494 c -1.25,-0.437 -2.521,-0.832 -3.777,-1.178 l 0.529,-1.928 c 1.3,0.356 2.614,0.766 3.906,1.217 z m -38.852,-0.05 -0.654,-1.891 c 1.279,-0.443 2.595,-0.85 3.909,-1.208 l 0.525,1.93 c -1.271,0.346 -2.542,0.739 -3.78,1.169 z m 30.254,-2.239 c -1.298,-0.242 -2.613,-0.441 -3.911,-0.594 l 0.232,-1.986 c 1.343,0.157 2.703,0.364 4.044,0.613 z m -21.65,-0.029 -0.361,-1.967 c 1.331,-0.245 2.692,-0.448 4.046,-0.604 l 0.229,1.986 c -1.31,0.152 -2.627,0.349 -3.914,0.585 z m 12.805,-0.939 c -1.316,-0.043 -2.644,-0.046 -3.958,-0.006 l -0.064,-1.998 c 1.359,-0.045 2.733,-0.04 4.091,0.006 z"
   id="path516" />
				</g>
				<g
   id="g518">
					<path
   fill="#111111"
   d="m 489.664,756.995 c -0.504,-0.452 -1.001,-0.911 -1.491,-1.38 l 1.381,-1.445 c 0.475,0.453 0.956,0.898 1.444,1.335 z"
   id="path517" />
				</g>
			</g>
			<g
   id="g520">
				<path
   fill="#111111"
   d="m 530.371,763.938 c -28.941,0 -52.486,-23.546 -52.486,-52.488 0,-28.941 23.545,-52.487 52.486,-52.487 28.943,0 52.488,23.546 52.488,52.487 0,28.943 -23.545,52.488 -52.488,52.488 z m 0,-102.975 c -27.838,0 -50.486,22.648 -50.486,50.487 0,27.839 22.648,50.488 50.486,50.488 27.84,0 50.488,-22.649 50.488,-50.488 0,-27.839 -22.648,-50.487 -50.488,-50.487 z"
   id="path519" />
			</g>
			<circle
   fill="#ea572e"
   cx="530.37201"
   cy="711.45001"
   r="40.366001"
   id="circle520" />
			<circle
   fill="#ffffff"
   cx="530.37299"
   cy="711.45001"
   r="27.306999"
   id="circle521" />
			<g
   id="g521">
				<path
   fill="#111111"
   d="m 530.373,739.757 c -15.609,0 -28.307,-12.698 -28.307,-28.307 0,-15.609 12.697,-28.307 28.307,-28.307 15.608,0 28.307,12.698 28.307,28.307 0,15.609 -12.699,28.307 -28.307,28.307 z m 0,-54.613 c -14.506,0 -26.307,11.801 -26.307,26.307 0,14.506 11.801,26.307 26.307,26.307 14.506,0 26.307,-11.801 26.307,-26.307 0,-14.506 -11.801,-26.307 -26.307,-26.307 z"
   id="path521" />
			</g>
			<circle
   fill="#ea572e"
   cx="530.37299"
   cy="711.45001"
   r="12.729"
   id="circle522" />
			<g
   id="g524">
				<g
   id="g522">
					<rect
   x="530.37201"
   y="707.69897"
   fill="#111111"
   width="102.469"
   height="7.5009999"
   id="rect522" />
				</g>
				<g
   id="g523">
					<polygon
   fill="#111111"
   points="630.99,712.283 630.99,710.619 642.973,703.387 657.549,703.387 649.487,711.45 657.549,719.514 642.973,719.514 "
   id="polygon522" />
				</g>
			</g>
		</g>
		<g
   id="g546">
			<g
   id="g535">
				<g
   id="g526">
					<rect
   x="677.78998"
   y="723.95001"
   fill="#f3a52d"
   width="13.421"
   height="14.492"
   id="rect525" />
				</g>
				<g
   id="g527">
					<path
   fill="#f3a52d"
   d="m 694.131,750.92 h -2.92 V 740.818 H 677.79 v 10.102 h -2.77 c -2.301,0 -4.165,2.178 -4.219,4.891 h 27.548 c -0.052,-2.717 -1.915,-4.891 -4.218,-4.891 z"
   id="path526" />
				</g>
				<g
   id="g529">
					<g
   id="g528">
						<path
   fill="#ea572e"
   d="m 695.359,711.607 h -7.243 c 0.548,-0.944 0.836,-1.884 0.729,-2.955 -0.172,-1.718 -1.39,-3.227 -3.054,-3.688 -2.831,-0.782 -5.379,1.445 -5.379,4.155 0,0.894 0.279,1.675 0.752,2.487 h -7.523 c 0,4.881 2.95,8.948 7.086,10.168 h 7.548 c 4.136,-1.218 7.084,-5.286 7.084,-10.167 z"
   id="path527" />
					</g>
				</g>
				<g
   id="g530">
					<rect
   x="674.922"
   y="738.659"
   fill="#111111"
   width="19.156"
   height="2"
   id="rect529" />
				</g>
				<g
   id="g531">
					<rect
   x="666.75299"
   y="755.40698"
   fill="#111111"
   width="35.494999"
   height="2"
   id="rect530" />
				</g>
				<g
   id="g533">
					<g
   id="g532">
						<rect
   x="668.28497"
   y="757.40698"
   fill="#ea572e"
   width="32.43"
   height="5.7080002"
   id="rect531" />
					</g>
				</g>
				<g
   id="g534">
					<rect
   x="674.04498"
   y="721.78802"
   fill="#111111"
   width="20.91"
   height="2"
   id="rect533" />
				</g>
			</g>
			<g
   id="g545">
				<g
   id="g536">
					<rect
   x="636.86902"
   y="716.099"
   fill="#f3a52d"
   width="16.034"
   height="17.315001"
   id="rect535" />
				</g>
				<g
   id="g537">
					<path
   fill="#f3a52d"
   d="m 656.393,748.546 h -3.489 V 736.477 H 636.87 v 12.069 h -3.309 c -2.748,0 -4.976,2.601 -5.041,5.842 h 32.913 c -0.063,-3.245 -2.289,-5.842 -5.04,-5.842 z"
   id="path536" />
				</g>
				<g
   id="g539">
					<g
   id="g538">
						<path
   fill="#ea572e"
   d="m 657.907,701.952 h -8.653 c 0.654,-1.128 0.999,-2.251 0.871,-3.531 -0.206,-2.052 -1.662,-3.854 -3.649,-4.405 -3.382,-0.936 -6.426,1.727 -6.426,4.965 0,1.066 0.333,2.001 0.898,2.972 h -8.988 c 0,5.83 3.524,10.69 8.466,12.146 h 9.017 c 4.943,-1.456 8.464,-6.317 8.464,-12.147 z"
   id="path537" />
					</g>
				</g>
				<g
   id="g540">
					<rect
   x="634.43201"
   y="733.91101"
   fill="#111111"
   width="20.91"
   height="2"
   id="rect539" />
				</g>
				<g
   id="g541">
					<rect
   x="625.51398"
   y="754.388"
   fill="#111111"
   width="38.744999"
   height="2"
   id="rect540" />
				</g>
				<g
   id="g543">
					<g
   id="g542">
						<rect
   x="625.51398"
   y="756.40698"
   fill="#ea572e"
   width="38.744999"
   height="6.7080002"
   id="rect541" />
					</g>
				</g>
				<g
   id="g544">
					<rect
   x="634.43201"
   y="714.099"
   fill="#111111"
   width="20.91"
   height="2"
   id="rect543" />
				</g>
			</g>
		</g>
		<g
   id="g551">
			<g
   id="g547">
				<rect
   x="735.23901"
   y="761.93799"
   fill="#111111"
   width="14.199"
   height="2"
   id="rect546" />
			</g>
			<g
   id="g548">
				<rect
   x="64.422997"
   y="761.93799"
   fill="#111111"
   width="422.995"
   height="2"
   id="rect547" />
			</g>
			<g
   id="g549">
				<rect
   x="50.561001"
   y="761.93799"
   fill="#111111"
   width="10.378"
   height="2"
   id="rect548" />
			</g>
			<g
   id="g550">
				<rect
   x="502.73001"
   y="761.93799"
   fill="#111111"
   width="225.408"
   height="2"
   id="rect549" />
			</g>
		</g>
	</g></svg>
