<?xml version="1.0" encoding="utf-8"?>
<!-- Generator: Adobe Illustrator 18.0.0, SVG Export Plug-In . SVG Version: 6.00 Build 0)  -->
<!DOCTYPE svg PUBLIC "-//W3C//DTD SVG 1.1//EN" "http://www.w3.org/Graphics/SVG/1.1/DTD/svg11.dtd">
<svg version="1.1" id="Layer_1" xmlns="http://www.w3.org/2000/svg" xmlns:xlink="http://www.w3.org/1999/xlink" x="0px" y="0px"
	 viewBox="0 0 129.5 129.5" enable-background="new 0 0 129.5 129.5" xml:space="preserve">
<g>
	<g>
		<g>
			<g>
				<path fill="#231F20" d="M30.5,4.2c-0.2,0-0.4-0.1-0.5-0.2c-0.3-0.3-0.3-0.8,0-1.1l1.3-1.3c0.3-0.3,0.8-0.3,1.1,0
					c0.3,0.3,0.3,0.8,0,1.1L31,3.9C30.8,4.1,30.7,4.2,30.5,4.2z"/>
			</g>
			<g>
				<path fill="#231F20" d="M26.4,8.3c-0.2,0-0.4-0.1-0.5-0.2c-0.3-0.3-0.3-0.8,0-1.1l1.3-1.3c0.3-0.3,0.8-0.3,1.1,0
					c0.3,0.3,0.3,0.8,0,1.1L26.9,8C26.7,8.2,26.6,8.3,26.4,8.3z"/>
			</g>
			<g>
				<path fill="#231F20" d="M31.8,8.3c-0.2,0-0.4-0.1-0.5-0.2l-1.3-1.3c-0.3-0.3-0.3-0.8,0-1.1c0.3-0.3,0.8-0.3,1.1,0L32.3,7
					c0.3,0.3,0.3,0.8,0,1.1C32.2,8.2,32,8.3,31.8,8.3z"/>
			</g>
			<g>
				<path fill="#231F20" d="M27.7,4.2c-0.2,0-0.4-0.1-0.5-0.2l-1.3-1.3c-0.3-0.3-0.3-0.8,0-1.1c0.3-0.3,0.8-0.3,1.1,0l1.3,1.3
					c0.3,0.3,0.3,0.8,0,1.1C28.1,4.1,27.9,4.2,27.7,4.2z"/>
			</g>
		</g>
		<g>
			<g>
				<path fill="#231F20" d="M103.9,47.8c-0.2,0-0.4-0.1-0.5-0.2c-0.3-0.3-0.3-0.8,0-1.1l1.3-1.3c0.3-0.3,0.8-0.3,1.1,0
					c0.3,0.3,0.3,0.8,0,1.1l-1.3,1.3C104.3,47.7,104.1,47.8,103.9,47.8z"/>
			</g>
			<g>
				<path fill="#231F20" d="M99.8,51.9c-0.2,0-0.4-0.1-0.5-0.2c-0.3-0.3-0.3-0.8,0-1.1l1.3-1.3c0.3-0.3,0.8-0.3,1.1,0
					c0.3,0.3,0.3,0.8,0,1.1l-1.3,1.3C100.2,51.8,100,51.9,99.8,51.9z"/>
			</g>
			<g>
				<path fill="#231F20" d="M105.2,51.9c-0.2,0-0.4-0.1-0.5-0.2l-1.3-1.3c-0.3-0.3-0.3-0.8,0-1.1s0.8-0.3,1.1,0l1.3,1.3
					c0.3,0.3,0.3,0.8,0,1.1C105.6,51.8,105.4,51.9,105.2,51.9z"/>
			</g>
			<g>
				<path fill="#231F20" d="M101.1,47.8c-0.2,0-0.4-0.1-0.5-0.2l-1.3-1.3c-0.3-0.3-0.3-0.8,0-1.1c0.3-0.3,0.8-0.3,1.1,0l1.3,1.3
					c0.3,0.3,0.3,0.8,0,1.1C101.5,47.7,101.3,47.8,101.1,47.8z"/>
			</g>
		</g>
		<g>
			<g>
				<path fill="#231F20" d="M31.5,124c-0.2,0-0.4-0.1-0.5-0.2c-0.3-0.3-0.3-0.8,0-1.1l1.3-1.3c0.3-0.3,0.8-0.3,1.1,0
					c0.3,0.3,0.3,0.8,0,1.1l-1.3,1.3C31.9,124,31.7,124,31.5,124z"/>
			</g>
			<g>
				<path fill="#231F20" d="M27.4,128.1c-0.2,0-0.4-0.1-0.5-0.2c-0.3-0.3-0.3-0.8,0-1.1l1.3-1.3c0.3-0.3,0.8-0.3,1.1,0
					c0.3,0.3,0.3,0.8,0,1.1l-1.3,1.3C27.8,128.1,27.6,128.1,27.4,128.1z"/>
			</g>
			<g>
				<path fill="#231F20" d="M32.8,128.1c-0.2,0-0.4-0.1-0.5-0.2l-1.3-1.3c-0.3-0.3-0.3-0.8,0-1.1c0.3-0.3,0.8-0.3,1.1,0l1.3,1.3
					c0.3,0.3,0.3,0.8,0,1.1C33.2,128.1,33,128.1,32.8,128.1z"/>
			</g>
			<g>
				<path fill="#231F20" d="M28.7,124c-0.2,0-0.4-0.1-0.5-0.2l-1.3-1.3c-0.3-0.3-0.3-0.8,0-1.1c0.3-0.3,0.8-0.3,1.1,0l1.3,1.3
					c0.3,0.3,0.3,0.8,0,1.1C29.1,124,28.9,124,28.7,124z"/>
			</g>
		</g>
		<g>
			<g>
				<circle fill="#FFD05B" cx="13.9" cy="25.8" r="13.1"/>
			</g>
			<g>
				<circle fill="#FFFFFF" cx="13.9" cy="19.1" r="3.1"/>
				<path fill="#231F20" d="M13.9,23c-2.1,0-3.8-1.7-3.8-3.8c0-2.1,1.7-3.8,3.8-3.8c2.1,0,3.8,1.7,3.8,3.8C17.7,21.2,16,23,13.9,23z
					 M13.9,16.8c-1.3,0-2.3,1-2.3,2.3c0,1.3,1,2.3,2.3,2.3c1.3,0,2.3-1,2.3-2.3C16.2,17.9,15.2,16.8,13.9,16.8z"/>
			</g>
			<g>
				<path fill="#231F20" d="M22.3,33.2h-1.5c0-3.8-3.1-7-7-7s-7,3.1-7,7H5.4c0-4.7,3.8-8.5,8.5-8.5C18.5,24.7,22.3,28.5,22.3,33.2z"
					/>
			</g>
		</g>
		<g>
			<circle fill="#84DBFF" cx="115.6" cy="64.3" r="13.1"/>
		</g>
		<g>
			<circle fill="#FFFFFF" cx="115.6" cy="57.6" r="3.1"/>
			<path fill="#231F20" d="M115.6,61.5c-2.1,0-3.8-1.7-3.8-3.8c0-2.1,1.7-3.8,3.8-3.8c2.1,0,3.8,1.7,3.8,3.8
				C119.4,59.8,117.7,61.5,115.6,61.5z M115.6,55.3c-1.3,0-2.3,1-2.3,2.3c0,1.3,1,2.3,2.3,2.3c1.3,0,2.3-1,2.3-2.3
				C117.9,56.4,116.9,55.3,115.6,55.3z"/>
		</g>
		<g>
			<path fill="#231F20" d="M124.1,71.7h-1.5c0-3.8-3.1-7-7-7s-7,3.1-7,7h-1.5c0-4.7,3.8-8.5,8.5-8.5C120.3,63.3,124.1,67,124.1,71.7
				z"/>
		</g>
		<g>
			<circle fill="#FFD05B" cx="17" cy="103.3" r="13.1"/>
		</g>
		<g>
			<circle fill="#FFFFFF" cx="17" cy="96.6" r="3.1"/>
			<path fill="#231F20" d="M17,100.5c-2.1,0-3.8-1.7-3.8-3.8c0-2.1,1.7-3.8,3.8-3.8c2.1,0,3.8,1.7,3.8,3.8
				C20.8,98.7,19.1,100.5,17,100.5z M17,94.3c-1.3,0-2.3,1-2.3,2.3c0,1.3,1,2.3,2.3,2.3c1.3,0,2.3-1,2.3-2.3
				C19.3,95.4,18.2,94.3,17,94.3z"/>
		</g>
		<g>
			<path fill="#231F20" d="M25.4,110.7h-1.5c0-3.8-3.1-7-7-7c-3.8,0-7,3.1-7,7H8.5c0-4.7,3.8-8.5,8.5-8.5
				C21.6,102.2,25.4,106,25.4,110.7z"/>
		</g>
		<g>
			<path fill="#231F20" d="M125.5,42.4H39.1c-0.4,0-0.8-0.3-0.8-0.8V26.7l-7.2-4.6c-0.2-0.1-0.3-0.4-0.3-0.6c0-0.3,0.1-0.5,0.3-0.6
				l7.2-4.6v-3.6c0-0.4,0.3-0.8,0.8-0.8h86.4c0.4,0,0.8,0.3,0.8,0.8v29C126.2,42.1,125.9,42.4,125.5,42.4z M39.8,40.9h84.9V13.4
				H39.8v3.2c0,0.3-0.1,0.5-0.3,0.6l-6.6,4.2l6.6,4.2c0.2,0.1,0.3,0.4,0.3,0.6V40.9z"/>
		</g>
		<g>
			<path fill="#231F20" d="M125.5,118.5H39.1c-0.4,0-0.8-0.3-0.8-0.8v-14.9l-7.2-4.6c-0.2-0.1-0.3-0.4-0.3-0.6
				c0-0.3,0.1-0.5,0.3-0.6l7.2-4.6v-3.6c0-0.4,0.3-0.8,0.8-0.8h86.4c0.4,0,0.8,0.3,0.8,0.8v29C126.2,118.2,125.9,118.5,125.5,118.5z
				 M39.8,117h84.9V89.5H39.8v3.2c0,0.3-0.1,0.5-0.3,0.6l-6.6,4.2l6.6,4.2c0.2,0.1,0.3,0.4,0.3,0.6V117z"/>
		</g>
		<g>
			<path fill="#231F20" d="M92.7,80.9H6.3c-0.4,0-0.8-0.3-0.8-0.8v-29c0-0.4,0.3-0.8,0.8-0.8h86.4c0.4,0,0.8,0.3,0.8,0.8v3.6
				l7.2,4.6c0.2,0.1,0.3,0.4,0.3,0.6c0,0.3-0.1,0.5-0.3,0.6l-7.2,4.6v14.9C93.5,80.6,93.2,80.9,92.7,80.9z M7.1,79.4H92V64.8
				c0-0.3,0.1-0.5,0.3-0.6l6.6-4.2l-6.6-4.2c-0.2-0.1-0.3-0.4-0.3-0.6v-3.2H7.1V79.4z"/>
		</g>
		<g>
			<polygon fill="#E6E9EE" points="8.4,78.1 8.4,53.2 90.7,53.2 90.7,56.2 96.5,60 90.7,63.7 90.7,78.1 			"/>
		</g>
		<g>
			<g>
				<path fill="#231F20" d="M115.6,20.6H51c-0.4,0-0.8-0.3-0.8-0.8c0-0.4,0.3-0.8,0.8-0.8h64.6c0.4,0,0.8,0.3,0.8,0.8
					C116.4,20.2,116,20.6,115.6,20.6z"/>
			</g>
			<g>
				<path fill="#231F20" d="M115.6,25.5H51c-0.4,0-0.8-0.3-0.8-0.8c0-0.4,0.3-0.8,0.8-0.8h64.6c0.4,0,0.8,0.3,0.8,0.8
					C116.4,25.1,116,25.5,115.6,25.5z"/>
			</g>
			<g>
				<path fill="#231F20" d="M115.6,30.3H51c-0.4,0-0.8-0.3-0.8-0.8c0-0.4,0.3-0.8,0.8-0.8h64.6c0.4,0,0.8,0.3,0.8,0.8
					C116.4,30,116,30.3,115.6,30.3z"/>
			</g>
			<g>
				<path fill="#231F20" d="M85,35.2H51c-0.4,0-0.8-0.3-0.8-0.8s0.3-0.8,0.8-0.8h34c0.4,0,0.8,0.3,0.8,0.8S85.5,35.2,85,35.2z"/>
			</g>
		</g>
		<g>
			<g>
				<rect x="17" y="57.6" fill="#FFFFFF" width="64.6" height="1.5"/>
			</g>
			<g>
				<rect x="17" y="62.5" fill="#FFFFFF" width="64.6" height="1.5"/>
			</g>
			<g>
				<rect x="17" y="67.3" fill="#FFFFFF" width="64.6" height="1.5"/>
			</g>
			<g>
				<rect x="17" y="72.2" fill="#FFFFFF" width="34" height="1.5"/>
			</g>
		</g>
		<g>
			<g>
				<path fill="#231F20" d="M115.5,96.7H51c-0.4,0-0.8-0.3-0.8-0.8c0-0.4,0.3-0.8,0.8-0.8h64.6c0.4,0,0.8,0.3,0.8,0.8
					C116.3,96.4,115.9,96.7,115.5,96.7z"/>
			</g>
			<g>
				<path fill="#231F20" d="M115.5,101.6H51c-0.4,0-0.8-0.3-0.8-0.8c0-0.4,0.3-0.8,0.8-0.8h64.6c0.4,0,0.8,0.3,0.8,0.8
					C116.3,101.2,115.9,101.6,115.5,101.6z"/>
			</g>
			<g>
				<path fill="#231F20" d="M115.5,106.5H51c-0.4,0-0.8-0.3-0.8-0.8c0-0.4,0.3-0.8,0.8-0.8h64.6c0.4,0,0.8,0.3,0.8,0.8
					C116.3,106.1,115.9,106.5,115.5,106.5z"/>
			</g>
			<g>
				<path fill="#231F20" d="M85,111.3H51c-0.4,0-0.8-0.3-0.8-0.8c0-0.4,0.3-0.8,0.8-0.8h34c0.4,0,0.8,0.3,0.8,0.8
					C85.7,111,85.4,111.3,85,111.3z"/>
			</g>
		</g>
		<g>
			<circle fill="#E6E9EE" cx="53.4" cy="4.5" r="2.4"/>
		</g>
		<g>
			<circle fill="#FF7058" cx="28" cy="43.9" r="2.4"/>
		</g>
		<g>
			<circle fill="#FF7058" cx="112.5" cy="123.3" r="2.4"/>
		</g>
		<g>
			<g>
				<path fill="#231F20" d="M87.8,5.6h-7.3c-0.4,0-0.8-0.3-0.8-0.8c0-0.4,0.3-0.8,0.8-0.8h7.3c0.4,0,0.8,0.3,0.8,0.8
					C88.6,5.3,88.2,5.6,87.8,5.6z"/>
			</g>
			<g>
				<path fill="#231F20" d="M95.4,5.6h-3c-0.4,0-0.8-0.3-0.8-0.8c0-0.4,0.3-0.8,0.8-0.8h3c0.4,0,0.8,0.3,0.8,0.8
					C96.1,5.3,95.8,5.6,95.4,5.6z"/>
			</g>
			<g>
				<path fill="#231F20" d="M93.5,8.3h-7.2c-0.4,0-0.8-0.3-0.8-0.7c0-0.4,0.3-0.8,0.8-0.8h7.2c0.4,0,0.8,0.3,0.8,0.8
					C94.3,7.9,93.9,8.3,93.5,8.3z"/>
			</g>
		</g>
	</g>
</g>
</svg>
