<?xml version="1.0" encoding="utf-8"?>
<!-- Generator: Adobe Illustrator 18.0.0, SVG Export Plug-In . SVG Version: 6.00 Build 0)  -->
<!DOCTYPE svg PUBLIC "-//W3C//DTD SVG 1.1//EN" "http://www.w3.org/Graphics/SVG/1.1/DTD/svg11.dtd">
<svg version="1.1" id="Layer_1" xmlns="http://www.w3.org/2000/svg" xmlns:xlink="http://www.w3.org/1999/xlink" x="0px" y="0px"
	 viewBox="0 0 129.5 129.5" enable-background="new 0 0 129.5 129.5" xml:space="preserve">
<g>
	<g>
		<g>
			<rect x="28.4" y="65.1" fill="#FFFFFF" width="1.4" height="0.9"/>
			<path fill="#231F20" d="M29.8,66.2h-1.4c-0.1,0-0.1-0.1-0.1-0.1v-0.9c0-0.1,0.1-0.1,0.1-0.1h1.4c0.1,0,0.1,0.1,0.1,0.1V66
				C30,66.1,29.9,66.2,29.8,66.2z M28.5,65.9h1.2v-0.7h-1.2V65.9z"/>
		</g>
		<g>
			<g>
				<path fill="#231F20" d="M45.4,46.3c-0.2,0-0.4-0.1-0.5-0.2c-0.3-0.3-0.3-0.8,0-1.1l1.3-1.3c0.3-0.3,0.8-0.3,1.1,0
					c0.3,0.3,0.3,0.8,0,1.1l-1.3,1.3C45.7,46.2,45.5,46.3,45.4,46.3z"/>
			</g>
			<g>
				<path fill="#231F20" d="M41.3,50.3c-0.2,0-0.4-0.1-0.5-0.2c-0.3-0.3-0.3-0.8,0-1.1l1.3-1.3c0.3-0.3,0.8-0.3,1.1,0
					c0.3,0.3,0.3,0.8,0,1.1l-1.3,1.3C41.7,50.2,41.5,50.3,41.3,50.3z"/>
			</g>
			<g>
				<path fill="#231F20" d="M46.6,50.3c-0.2,0-0.4-0.1-0.5-0.2l-1.3-1.3c-0.3-0.3-0.3-0.8,0-1.1c0.3-0.3,0.8-0.3,1.1,0l1.3,1.3
					c0.3,0.3,0.3,0.8,0,1.1C47,50.2,46.8,50.3,46.6,50.3z"/>
			</g>
			<g>
				<path fill="#231F20" d="M42.6,46.3c-0.2,0-0.4-0.1-0.5-0.2l-1.3-1.3c-0.3-0.3-0.3-0.8,0-1.1c0.3-0.3,0.8-0.3,1.1,0l1.3,1.3
					c0.3,0.3,0.3,0.8,0,1.1C43,46.2,42.8,46.3,42.6,46.3z"/>
			</g>
		</g>
		<g>
			<g>
				<path fill="#231F20" d="M78.3,92.7c-0.2,0-0.4-0.1-0.5-0.2c-0.3-0.3-0.3-0.8,0-1.1l1.3-1.3c0.3-0.3,0.8-0.3,1.1,0
					c0.3,0.3,0.3,0.8,0,1.1l-1.3,1.3C78.7,92.6,78.5,92.7,78.3,92.7z"/>
			</g>
			<g>
				<path fill="#231F20" d="M74.3,96.7c-0.2,0-0.4-0.1-0.5-0.2c-0.3-0.3-0.3-0.8,0-1.1l1.3-1.3c0.3-0.3,0.8-0.3,1.1,0
					c0.3,0.3,0.3,0.8,0,1.1l-1.3,1.3C74.7,96.7,74.5,96.7,74.3,96.7z"/>
			</g>
			<g>
				<path fill="#231F20" d="M79.6,96.7c-0.2,0-0.4-0.1-0.5-0.2l-1.3-1.3c-0.3-0.3-0.3-0.8,0-1.1c0.3-0.3,0.8-0.3,1.1,0l1.3,1.3
					c0.3,0.3,0.3,0.8,0,1.1C80,96.7,79.8,96.7,79.6,96.7z"/>
			</g>
			<g>
				<path fill="#231F20" d="M75.6,92.7c-0.2,0-0.4-0.1-0.5-0.2l-1.3-1.3c-0.3-0.3-0.3-0.8,0-1.1c0.3-0.3,0.8-0.3,1.1,0l1.3,1.3
					c0.3,0.3,0.3,0.8,0,1.1C76,92.6,75.8,92.7,75.6,92.7z"/>
			</g>
		</g>
		<g>
			<g>
				<path fill="#231F20" d="M113.3,2.8c-0.2,0-0.4-0.1-0.5-0.2c-0.3-0.3-0.3-0.8,0-1.1l1.3-1.3c0.3-0.3,0.8-0.3,1.1,0
					c0.3,0.3,0.3,0.8,0,1.1l-1.3,1.3C113.7,2.7,113.5,2.8,113.3,2.8z"/>
			</g>
			<g>
				<path fill="#231F20" d="M109.3,6.8c-0.2,0-0.4-0.1-0.5-0.2c-0.3-0.3-0.3-0.8,0-1.1l1.3-1.3c0.3-0.3,0.8-0.3,1.1,0
					c0.3,0.3,0.3,0.8,0,1.1l-1.3,1.3C109.7,6.7,109.5,6.8,109.3,6.8z"/>
			</g>
			<g>
				<path fill="#231F20" d="M114.6,6.8c-0.2,0-0.4-0.1-0.5-0.2l-1.3-1.3c-0.3-0.3-0.3-0.8,0-1.1c0.3-0.3,0.8-0.3,1.1,0l1.3,1.3
					c0.3,0.3,0.3,0.8,0,1.1C115,6.7,114.8,6.8,114.6,6.8z"/>
			</g>
			<g>
				<path fill="#231F20" d="M110.6,2.8c-0.2,0-0.4-0.1-0.5-0.2l-1.3-1.3c-0.3-0.3-0.3-0.8,0-1.1c0.3-0.3,0.8-0.3,1.1,0l1.3,1.3
					c0.3,0.3,0.3,0.8,0,1.1C111,2.7,110.8,2.8,110.6,2.8z"/>
			</g>
		</g>
		<rect x="11.5" y="22" fill="#FFFFFF" width="106.5" height="14.7"/>
		<g>
			<rect x="13.5" y="24" fill="#84DBFF" width="102.5" height="10.7"/>
		</g>
		<g>
			<rect x="65.7" y="45.6" fill="#231F20" width="39.7" height="1.5"/>
		</g>
		<g>
			<rect x="65.7" y="50.7" fill="#231F20" width="39.7" height="1.5"/>
		</g>
		<g>
			<rect x="65.7" y="55.9" fill="#231F20" width="39.7" height="1.5"/>
		</g>
		<g>
			<rect x="65.7" y="61" fill="#231F20" width="22.6" height="1.5"/>
		</g>
		<rect x="23.4" y="117.6" fill="#E6E9EE" width="35.8" height="11.1"/>
		<path fill="#FFD05B" d="M53.5,64.5c-2.4-0.2-4.5,1.7-4.5,4.1v-1.1c0-2.1-1.6-4-3.7-4.3c-2.4-0.2-4.5,1.7-4.5,4.1v-2.4
			c0-2.4-2.1-4.3-4.5-4.1c-2.1,0.2-3.7,2.1-3.7,4.3l0-14.7c0-2.4-2.1-4.3-4.5-4.1c-2.1,0.2-3.7,2.1-3.7,4.3v23.9
			c0-2.4-2.1-4.3-4.5-4.1c-2.1,0.2-3.7,2.1-3.7,4.3V87c0,5.8,2.7,11.3,7.2,14.9c3.2,2.6,5.1,6.4,5.1,10.6v5.2h25.1v-5.9
			c0-2,0.2-4,0.5-6l2.4-8.2c0.3-2,0.5-4,0.5-6V68.7C57.2,66.6,55.7,64.7,53.5,64.5z"/>
		<path fill="#231F20" d="M112.6,11.8H16.9c-3.4,0-6.1,2.7-6.1,6.1v51.8c0,2.9,2.1,5.3,4.8,5.9V87c0,6.1,2.7,11.7,7.5,15.5
			c3.1,2.4,4.8,6.1,4.8,10v4.4h-4.5c-0.4,0-0.8,0.3-0.8,0.8v11.1c0,0.4,0.3,0.8,0.8,0.8h35.8c0.4,0,0.8-0.3,0.8-0.8v-11.1
			c0-0.4-0.3-0.8-0.8-0.8h-4.7v-5.1c0-2,0.2-3.9,0.5-5.8l2.5-8.3c0.3-2,0.5-4.1,0.5-6.1V75.8h54.7c3.4,0,6.1-2.7,6.1-6.1V17.9
			C118.7,14.5,116,11.8,112.6,11.8z M16.9,13.3h95.8c2.5,0,4.6,2.1,4.6,4.6v3.3h-105v-3.3C12.3,15.4,14.3,13.3,16.9,13.3z M117.2,36
			h-105V22.7h105V36z M58.5,118.4v9.6H24.2v-9.6H58.5z M56.5,91.6c0,2-0.2,3.9-0.5,5.8l-2.5,8.3c-0.3,2-0.5,4.1-0.5,6.1v5.1H29.4
			v-4.4c0-4.4-2-8.4-5.4-11.2c-4.4-3.5-6.9-8.7-6.9-14.3V74.7c0-1.8,1.3-3.3,3-3.5c2-0.2,3.7,1.4,3.7,3.3c0,0.4,0.3,0.8,0.8,0.8
			c0.4,0,0.8-0.3,0.8-0.8V50.6c0-1.8,1.3-3.3,3-3.5c2-0.2,3.7,1.4,3.7,3.3v23.9c0,0.4,0.3,0.8,0.7,0.8c0.4,0,0.8-0.3,0.8-0.8v-9.3
			c0-1.8,1.3-3.3,3-3.5c2-0.2,3.7,1.4,3.7,3.3v9.8c0,0.4,0.3,0.8,0.8,0.8c0.4,0,0.8-0.3,0.8-0.8v-7.4c0-2,1.7-3.5,3.7-3.3
			c1.7,0.2,3,1.7,3,3.5v7.2c0,0.4,0.3,0.8,0.8,0.8c0.4,0,0.8-0.3,0.8-0.8v-6.2c0-2,1.7-3.5,3.7-3.3c1.7,0.2,3,1.7,3,3.5V91.6z
			 M112.6,74.3H58v-5.6c0-2.6-1.9-4.8-4.4-5c-1.7-0.2-3.2,0.6-4.2,1.8c-0.7-1.6-2.2-2.8-4-3c-1.5-0.1-2.9,0.4-3.9,1.4
			c-0.5-2.3-2.7-4-5.2-3.8c-1.1,0.1-2.1,0.6-2.9,1.4v-11c0-2.8-2.4-5.1-5.3-4.8c-2.5,0.2-4.4,2.4-4.4,5v20.4c-1-0.9-2.3-1.5-3.8-1.3
			c-2.3,0.2-4,2.1-4.3,4.4c-1.9-0.5-3.3-2.3-3.3-4.4V37.5h105v32.3C117.2,72.3,115.2,74.3,112.6,74.3z"/>
		<g>
			<path fill="#231F20" d="M110.6,115.7c-2.3,0-4.2-1.9-4.2-4.2c0-2.3,1.9-4.2,4.2-4.2s4.2,1.9,4.2,4.2
				C114.7,113.8,112.9,115.7,110.6,115.7z M110.6,108.9c-1.5,0-2.7,1.2-2.7,2.7c0,1.5,1.2,2.7,2.7,2.7c1.5,0,2.7-1.2,2.7-2.7
				C113.2,110.1,112,108.9,110.6,108.9z"/>
		</g>
		<g>
			<circle fill="#FF7058" cx="33" cy="3.5" r="2.7"/>
		</g>
		<g>
			<circle fill="#E6E9EE" cx="78.3" cy="6.2" r="2.7"/>
		</g>
		<g>
			<circle fill="#FFD05B" cx="96.4" cy="88.6" r="2.7"/>
		</g>
		<g>
			<circle fill="#84DBFF" cx="81" cy="120.3" r="2.7"/>
		</g>
		<g>
			<path fill="#231F20" d="M103.1,123.5c0-0.4-0.3-0.8-0.8-0.8h-8.7c-0.4,0-0.8,0.3-0.8,0.8c0,0.4,0.3,0.8,0.8,0.8h8.7
				C102.8,124.3,103.1,123.9,103.1,123.5z"/>
			<path fill="#231F20" d="M105.8,125.9h-4.3c-0.4,0-0.8,0.3-0.8,0.8c0,0.4,0.3,0.8,0.8,0.8h4.3c0.4,0,0.8-0.3,0.8-0.8
				C106.5,126.3,106.2,125.9,105.8,125.9z"/>
			<path fill="#231F20" d="M110.3,122.8h-4.1c-0.4,0-0.8,0.3-0.8,0.8c0,0.4,0.3,0.8,0.8,0.8h4.1c0.4,0,0.8-0.3,0.8-0.8
				C111.1,123.1,110.8,122.8,110.3,122.8z"/>
			<path fill="#231F20" d="M98.4,125.9h-0.8c-0.4,0-0.8,0.3-0.8,0.8c0,0.4,0.3,0.8,0.8,0.8h0.8c0.4,0,0.8-0.3,0.8-0.8
				C99.2,126.3,98.8,125.9,98.4,125.9z"/>
		</g>
	</g>
</g>
</svg>
