<?xml version="1.0" encoding="UTF-8"?>
<svg xmlns="http://www.w3.org/2000/svg" xmlns:xlink="http://www.w3.org/1999/xlink" width="160px" height="160px" viewBox="0 0 160 160" version="1.1">
<g id="surface1">
<path style=" stroke:none;fill-rule:nonzero;fill:rgb(13.72549%,12.156863%,12.54902%);fill-opacity:1;" d="M 86.613281 9.390625 C 86.367188 9.390625 86.117188 9.265625 85.996094 9.144531 C 85.625 8.773438 85.625 8.15625 85.996094 7.785156 L 87.601562 6.179688 C 87.96875 5.808594 88.589844 5.808594 88.957031 6.179688 C 89.328125 6.550781 89.328125 7.167969 88.957031 7.539062 L 87.351562 9.144531 C 87.105469 9.390625 86.859375 9.390625 86.613281 9.390625 Z M 86.613281 9.390625 "/>
<path style=" stroke:none;fill-rule:nonzero;fill:rgb(13.72549%,12.156863%,12.54902%);fill-opacity:1;" d="M 81.667969 14.328125 C 81.417969 14.328125 81.171875 14.207031 81.050781 14.082031 C 80.679688 13.710938 80.679688 13.09375 81.050781 12.722656 L 82.65625 11.117188 C 83.023438 10.75 83.640625 10.75 84.011719 11.117188 C 84.382812 11.488281 84.382812 12.105469 84.011719 12.476562 L 82.40625 14.082031 C 82.160156 14.328125 81.914062 14.328125 81.667969 14.328125 Z M 81.667969 14.328125 "/>
<path style=" stroke:none;fill-rule:nonzero;fill:rgb(13.72549%,12.156863%,12.54902%);fill-opacity:1;" d="M 88.21875 14.328125 C 87.96875 14.328125 87.722656 14.207031 87.601562 14.082031 L 85.996094 12.476562 C 85.625 12.105469 85.625 11.488281 85.996094 11.117188 C 86.367188 10.75 86.984375 10.75 87.351562 11.117188 L 88.957031 12.722656 C 89.328125 13.09375 89.328125 13.710938 88.957031 14.082031 C 88.710938 14.328125 88.464844 14.328125 88.21875 14.328125 Z M 88.21875 14.328125 "/>
<path style=" stroke:none;fill-rule:nonzero;fill:rgb(13.72549%,12.156863%,12.54902%);fill-opacity:1;" d="M 83.273438 9.390625 C 83.023438 9.390625 82.777344 9.265625 82.65625 9.144531 L 81.050781 7.539062 C 80.679688 7.167969 80.679688 6.550781 81.050781 6.179688 C 81.417969 5.808594 82.035156 5.808594 82.40625 6.179688 L 84.011719 7.785156 C 84.382812 8.15625 84.382812 8.773438 84.011719 9.144531 C 83.765625 9.390625 83.519531 9.390625 83.273438 9.390625 Z M 83.273438 9.390625 "/>
<path style=" stroke:none;fill-rule:nonzero;fill:rgb(13.72549%,12.156863%,12.54902%);fill-opacity:1;" d="M 148.632812 72.03125 C 148.386719 72.03125 148.140625 71.90625 148.015625 71.78125 C 147.648438 71.410156 147.648438 70.792969 148.015625 70.425781 L 149.621094 68.820312 C 149.992188 68.449219 150.609375 68.449219 150.980469 68.820312 C 151.351562 69.191406 151.351562 69.808594 150.980469 70.175781 L 149.375 71.78125 C 149.003906 71.90625 148.882812 72.03125 148.632812 72.03125 Z M 148.632812 72.03125 "/>
<path style=" stroke:none;fill-rule:nonzero;fill:rgb(13.72549%,12.156863%,12.54902%);fill-opacity:1;" d="M 143.6875 76.976562 C 143.441406 76.976562 143.195312 76.851562 143.070312 76.726562 C 142.699219 76.359375 142.699219 75.742188 143.070312 75.371094 L 144.675781 73.757812 C 145.054688 73.386719 145.671875 73.386719 146.042969 73.757812 C 146.410156 74.128906 146.410156 74.746094 146.042969 75.125 L 144.429688 76.726562 C 144.058594 76.851562 143.933594 76.976562 143.6875 76.976562 Z M 143.6875 76.976562 "/>
<path style=" stroke:none;fill-rule:nonzero;fill:rgb(13.72549%,12.156863%,12.54902%);fill-opacity:1;" d="M 150.117188 76.976562 C 149.867188 76.976562 149.621094 76.851562 149.5 76.726562 L 147.894531 75.125 C 147.523438 74.746094 147.523438 74.128906 147.894531 73.757812 C 148.265625 73.386719 148.882812 73.386719 149.25 73.757812 L 150.855469 75.371094 C 151.226562 75.742188 151.226562 76.359375 150.855469 76.726562 C 150.609375 76.851562 150.363281 76.976562 150.117188 76.976562 Z M 150.117188 76.976562 "/>
<path style=" stroke:none;fill-rule:nonzero;fill:rgb(13.72549%,12.156863%,12.54902%);fill-opacity:1;" d="M 145.175781 72.03125 C 144.921875 72.03125 144.675781 71.90625 144.550781 71.78125 L 142.949219 70.175781 C 142.578125 69.808594 142.578125 69.191406 142.949219 68.820312 C 143.316406 68.449219 143.933594 68.449219 144.304688 68.820312 L 145.917969 70.425781 C 146.289062 70.792969 146.289062 71.410156 145.917969 71.78125 C 145.671875 71.90625 145.425781 72.03125 145.175781 72.03125 Z M 145.175781 72.03125 "/>
<path style=" stroke:none;fill-rule:nonzero;fill:rgb(13.72549%,12.156863%,12.54902%);fill-opacity:1;" d="M 62.886719 142.949219 C 62.640625 142.949219 62.390625 142.824219 62.269531 142.699219 C 61.898438 142.332031 61.898438 141.714844 62.269531 141.34375 L 63.875 139.738281 C 64.242188 139.367188 64.859375 139.367188 65.238281 139.738281 C 65.609375 140.109375 65.609375 140.726562 65.238281 141.09375 L 63.625 142.699219 C 63.378906 142.949219 63.132812 142.949219 62.886719 142.949219 Z M 62.886719 142.949219 "/>
<path style=" stroke:none;fill-rule:nonzero;fill:rgb(13.72549%,12.156863%,12.54902%);fill-opacity:1;" d="M 57.949219 147.894531 C 57.699219 147.894531 57.453125 147.769531 57.332031 147.648438 C 56.960938 147.277344 56.960938 146.660156 57.332031 146.289062 L 58.933594 144.675781 C 59.304688 144.304688 59.921875 144.304688 60.292969 144.675781 C 60.664062 145.054688 60.664062 145.671875 60.292969 146.042969 L 58.6875 147.648438 C 58.441406 147.894531 58.195312 147.894531 57.949219 147.894531 Z M 57.949219 147.894531 "/>
<path style=" stroke:none;fill-rule:nonzero;fill:rgb(13.72549%,12.156863%,12.54902%);fill-opacity:1;" d="M 64.492188 147.894531 C 64.242188 147.894531 63.996094 147.769531 63.875 147.648438 L 62.269531 146.042969 C 61.898438 145.671875 61.898438 145.054688 62.269531 144.675781 C 62.640625 144.304688 63.257812 144.304688 63.625 144.675781 L 65.238281 146.289062 C 65.609375 146.660156 65.609375 147.277344 65.238281 147.648438 C 64.859375 147.894531 64.738281 147.894531 64.492188 147.894531 Z M 64.492188 147.894531 "/>
<path style=" stroke:none;fill-rule:nonzero;fill:rgb(13.72549%,12.156863%,12.54902%);fill-opacity:1;" d="M 59.550781 142.949219 C 59.304688 142.949219 59.058594 142.824219 58.933594 142.699219 L 57.332031 141.09375 C 56.960938 140.726562 56.960938 140.109375 57.332031 139.738281 C 57.699219 139.367188 58.316406 139.367188 58.6875 139.738281 L 60.292969 141.34375 C 60.664062 141.714844 60.664062 142.332031 60.292969 142.699219 C 60.046875 142.949219 59.800781 142.949219 59.550781 142.949219 Z M 59.550781 142.949219 "/>
<path style=" stroke:none;fill-rule:nonzero;fill:rgb(51.764706%,85.882353%,100%);fill-opacity:1;" d="M 5.5625 47.199219 L 16.929688 47.199219 L 28.292969 35.832031 L 51.027344 58.566406 L 62.390625 47.199219 L 73.757812 58.566406 L 73.757812 81.296875 L 5.5625 81.296875 Z M 5.5625 47.199219 "/>
<path style=" stroke:none;fill-rule:nonzero;fill:rgb(90.196078%,91.372549%,93.333333%);fill-opacity:1;" d="M 73.757812 81.296875 L 73.757812 58.566406 L 62.390625 69.929688 L 39.660156 58.566406 L 28.292969 69.929688 L 16.929688 58.566406 L 5.5625 69.929688 L 5.5625 81.296875 Z M 73.757812 81.296875 "/>
<path style=" stroke:none;fill-rule:nonzero;fill:rgb(13.72549%,12.156863%,12.54902%);fill-opacity:1;" d="M 86.242188 81.050781 C 86.242188 80.925781 86.117188 80.800781 85.996094 80.800781 L 81.417969 76.234375 C 81.050781 75.863281 80.433594 75.863281 80.0625 76.234375 C 79.691406 76.605469 79.691406 77.222656 80.0625 77.59375 L 83.148438 80.679688 L 74.746094 80.679688 L 74.746094 13.09375 C 74.746094 12.601562 74.375 12.105469 73.757812 12.105469 L 6.425781 12.105469 L 6.425781 3.828125 L 9.515625 6.921875 C 9.636719 7.042969 9.882812 7.042969 10.132812 7.042969 C 10.378906 7.042969 10.625 6.921875 10.75 6.796875 C 11.117188 6.425781 11.117188 5.933594 10.75 5.5625 L 6.179688 0.863281 C 6.058594 0.742188 5.808594 0.617188 5.5625 0.617188 C 5.316406 0.617188 5.070312 0.742188 4.9375 0.863281 L 0.246094 5.5625 C -0.125 5.933594 -0.125 6.550781 0.246094 6.921875 C 0.617188 7.292969 1.234375 7.292969 1.605469 6.921875 L 4.691406 3.828125 L 4.691406 81.417969 C 4.691406 81.914062 5.070312 82.40625 5.6875 82.40625 L 83.273438 82.40625 L 80.183594 85.5 C 79.816406 85.871094 79.816406 86.488281 80.183594 86.859375 C 80.308594 86.984375 80.554688 87.105469 80.800781 87.105469 C 81.050781 87.105469 81.296875 86.984375 81.417969 86.859375 L 85.996094 82.285156 C 86.117188 82.160156 86.117188 82.035156 86.242188 82.035156 C 86.242188 81.542969 86.242188 81.171875 86.242188 81.050781 Z M 61.527344 46.335938 L 52.015625 46.335938 L 52.015625 36.820312 L 61.527344 36.820312 Z M 63.378906 36.820312 L 72.894531 36.820312 L 72.894531 46.335938 L 63.378906 46.335938 Z M 50.160156 46.335938 L 40.648438 46.335938 L 40.648438 36.820312 L 50.160156 36.820312 Z M 40.648438 34.960938 L 40.648438 25.457031 L 50.160156 25.457031 L 50.160156 34.960938 Z M 38.796875 34.960938 L 29.28125 34.960938 L 29.28125 25.457031 L 38.796875 25.457031 Z M 38.796875 36.820312 L 38.796875 46.335938 L 29.28125 46.335938 L 29.28125 36.820312 Z M 27.308594 46.335938 L 17.792969 46.335938 L 17.792969 36.820312 L 27.308594 36.820312 Z M 15.941406 46.335938 L 6.425781 46.335938 L 6.425781 36.820312 L 15.941406 36.820312 Z M 15.941406 48.1875 L 15.941406 57.699219 L 6.425781 57.699219 L 6.425781 48.1875 Z M 17.792969 48.1875 L 27.308594 48.1875 L 27.308594 57.699219 L 17.792969 57.699219 Z M 29.160156 48.1875 L 38.671875 48.1875 L 38.671875 57.699219 L 29.160156 57.699219 Z M 38.796875 59.550781 L 38.796875 69.066406 L 29.28125 69.066406 L 29.28125 59.550781 Z M 40.648438 59.550781 L 50.160156 59.550781 L 50.160156 69.066406 L 40.648438 69.066406 Z M 40.648438 57.699219 L 40.648438 48.1875 L 50.160156 48.1875 L 50.160156 57.699219 Z M 52.015625 48.1875 L 61.527344 48.1875 L 61.527344 57.699219 L 52.015625 57.699219 Z M 63.378906 48.1875 L 72.894531 48.1875 L 72.894531 57.699219 L 63.378906 57.699219 Z M 72.894531 34.960938 L 63.378906 34.960938 L 63.378906 25.457031 L 72.894531 25.457031 Z M 61.527344 34.960938 L 52.015625 34.960938 L 52.015625 25.457031 L 61.527344 25.457031 Z M 52.015625 23.59375 L 52.015625 14.082031 L 61.527344 14.082031 L 61.527344 23.59375 Z M 50.160156 23.59375 L 40.648438 23.59375 L 40.648438 14.082031 L 50.160156 14.082031 Z M 38.796875 23.59375 L 29.28125 23.59375 L 29.28125 14.082031 L 38.796875 14.082031 Z M 27.308594 23.59375 L 17.792969 23.59375 L 17.792969 14.082031 L 27.308594 14.082031 Z M 27.308594 25.457031 L 27.308594 34.960938 L 17.792969 34.960938 L 17.792969 25.457031 Z M 15.941406 34.960938 L 6.425781 34.960938 L 6.425781 25.457031 L 15.941406 25.457031 Z M 6.425781 59.550781 L 15.941406 59.550781 L 15.941406 69.066406 L 6.425781 69.066406 Z M 17.792969 59.550781 L 27.308594 59.550781 L 27.308594 69.066406 L 17.792969 69.066406 Z M 27.308594 70.917969 L 27.308594 80.433594 L 17.792969 80.433594 L 17.792969 70.917969 Z M 29.160156 70.917969 L 38.671875 70.917969 L 38.671875 80.433594 L 29.160156 80.433594 Z M 40.648438 70.917969 L 50.160156 70.917969 L 50.160156 80.433594 L 40.648438 80.433594 Z M 52.015625 70.917969 L 61.527344 70.917969 L 61.527344 80.433594 L 52.015625 80.433594 Z M 52.015625 69.066406 L 52.015625 59.550781 L 61.527344 59.550781 L 61.527344 69.066406 Z M 63.378906 59.550781 L 72.894531 59.550781 L 72.894531 69.066406 L 63.378906 69.066406 Z M 72.894531 23.59375 L 63.378906 23.59375 L 63.378906 14.082031 L 72.894531 14.082031 Z M 15.941406 14.082031 L 15.941406 23.59375 L 6.425781 23.59375 L 6.425781 14.082031 Z M 6.425781 70.917969 L 15.941406 70.917969 L 15.941406 80.433594 L 6.425781 80.433594 Z M 63.378906 80.433594 L 63.378906 70.917969 L 72.894531 70.917969 L 72.894531 80.433594 Z M 63.378906 80.433594 "/>
<path style=" stroke:none;fill-rule:nonzero;fill:rgb(100%,43.921569%,34.509804%);fill-opacity:1;" d="M 118.609375 156.050781 C 98.347656 156.050781 81.789062 139.492188 81.789062 119.226562 C 81.789062 106.875 88.09375 95.386719 98.226562 88.589844 L 116.140625 119.96875 L 119.84375 155.925781 C 119.476562 155.925781 118.980469 156.050781 118.609375 156.050781 Z M 118.609375 156.050781 "/>
<path style=" stroke:none;fill-rule:nonzero;fill:rgb(13.72549%,12.156863%,12.54902%);fill-opacity:1;" d="M 160 103.285156 C 155.433594 85.378906 139.492188 72.894531 121.082031 72.894531 C 114.160156 72.894531 107.246094 74.746094 101.1875 78.210938 C 100.695312 78.457031 100.570312 79.074219 100.816406 79.445312 L 120.214844 113.542969 C 120.339844 113.789062 120.710938 114.035156 121.082031 114.035156 C 121.203125 114.035156 121.203125 114.035156 121.328125 114.035156 L 159.382812 104.398438 C 159.753906 104.273438 160.125 103.78125 160 103.285156 Z M 121.449219 112.058594 L 102.917969 79.320312 C 108.480469 76.359375 114.777344 74.746094 121.082031 74.746094 C 138.378906 74.746094 153.324219 86.242188 158.023438 102.792969 Z M 121.449219 112.058594 "/>
<path style=" stroke:none;fill-rule:nonzero;fill:rgb(13.72549%,12.156863%,12.54902%);fill-opacity:1;" d="M 157.035156 108.851562 C 156.789062 108.726562 156.542969 108.726562 156.296875 108.726562 L 118.980469 118.117188 L 99.953125 84.628906 C 99.832031 84.382812 99.582031 84.257812 99.335938 84.136719 C 99.089844 84.011719 98.84375 84.136719 98.59375 84.257812 C 86.242188 91.425781 78.457031 104.890625 78.457031 119.226562 C 78.457031 141.34375 96.496094 159.382812 118.609375 159.382812 C 119.96875 159.382812 121.328125 159.257812 122.808594 159.136719 C 143.316406 157.035156 158.765625 139.859375 158.765625 119.226562 C 158.765625 115.894531 158.394531 112.554688 157.53125 109.34375 C 157.40625 109.097656 157.285156 108.972656 157.035156 108.851562 Z M 118.609375 157.53125 C 97.484375 157.53125 80.308594 140.355469 80.308594 119.226562 C 80.308594 105.886719 87.351562 93.402344 98.84375 86.488281 L 117.746094 119.597656 L 121.699219 157.53125 C 120.585938 157.53125 119.597656 157.53125 118.609375 157.53125 Z M 123.425781 157.160156 L 119.597656 119.84375 L 155.925781 110.703125 C 156.542969 113.542969 156.914062 116.390625 156.914062 119.226562 C 156.914062 138.625 142.578125 154.808594 123.425781 157.160156 Z M 123.425781 157.160156 "/>
<path style=" stroke:none;fill-rule:nonzero;fill:rgb(90.196078%,91.372549%,93.333333%);fill-opacity:1;" d="M 121.203125 121.082031 L 154.683594 112.554688 C 155.0625 114.777344 155.308594 117.007812 155.308594 119.226562 C 155.308594 137.390625 142.332031 152.460938 124.785156 155.433594 Z M 121.203125 121.082031 "/>
<path style=" stroke:none;fill-rule:nonzero;fill:rgb(100%,81.568627%,35.686275%);fill-opacity:1;" d="M 55.476562 114.53125 C 55.476562 127.222656 45.183594 137.515625 32.492188 137.515625 C 19.800781 137.515625 9.515625 127.222656 9.515625 114.53125 C 9.515625 101.84375 19.800781 91.550781 32.492188 91.550781 C 45.183594 91.550781 55.476562 101.84375 55.476562 114.53125 Z M 55.476562 114.53125 "/>
<path style=" stroke:none;fill-rule:nonzero;fill:rgb(13.72549%,12.156863%,12.54902%);fill-opacity:1;" d="M 15.695312 114.53125 L 13.835938 114.53125 C 13.835938 114.035156 13.835938 113.664062 13.835938 113.292969 L 15.695312 113.417969 C 15.695312 113.664062 15.695312 114.035156 15.695312 114.53125 Z M 16.066406 110.949219 L 14.207031 110.578125 C 14.328125 110.207031 14.453125 109.714844 14.574219 109.34375 L 16.3125 109.839844 C 16.3125 110.207031 16.1875 110.578125 16.066406 110.949219 Z M 17.175781 107.617188 L 15.449219 106.875 C 15.570312 106.503906 15.816406 106.132812 16.066406 105.765625 L 17.667969 106.628906 C 17.546875 107 17.300781 107.367188 17.175781 107.617188 Z M 18.90625 104.644531 L 17.421875 103.535156 C 17.667969 103.164062 17.917969 102.792969 18.164062 102.546875 L 19.523438 103.78125 C 19.398438 104.027344 19.152344 104.273438 18.90625 104.644531 Z M 21.25 102.050781 L 20.015625 100.695312 C 20.386719 100.449219 20.632812 100.078125 21.003906 99.832031 L 22.113281 101.3125 C 21.867188 101.558594 21.621094 101.804688 21.25 102.050781 Z M 24.089844 99.953125 L 23.101562 98.347656 C 23.472656 98.101562 23.84375 97.976562 24.214844 97.730469 L 25.085938 99.335938 C 24.832031 99.582031 24.460938 99.832031 24.089844 99.953125 Z M 27.308594 98.59375 L 26.691406 96.867188 C 27.058594 96.742188 27.554688 96.621094 27.925781 96.496094 L 28.417969 98.347656 C 28.046875 98.347656 27.675781 98.472656 27.308594 98.59375 Z M 30.765625 97.855469 L 30.515625 96.003906 C 30.886719 96.003906 31.382812 95.878906 31.875 95.878906 L 31.875 97.730469 C 31.503906 97.730469 31.132812 97.730469 30.765625 97.855469 Z M 30.765625 97.855469 "/>
<path style=" stroke:none;fill-rule:nonzero;fill:rgb(13.72549%,12.156863%,12.54902%);fill-opacity:1;" d="M 32.492188 133.0625 C 22.730469 133.0625 14.574219 125.410156 13.957031 115.773438 L 15.816406 115.648438 C 16.433594 124.414062 23.71875 131.210938 32.492188 131.210938 C 41.757812 131.210938 49.296875 123.671875 49.296875 114.40625 C 49.296875 105.640625 42.375 98.226562 33.601562 97.730469 L 33.726562 95.878906 C 43.488281 96.496094 51.148438 104.644531 51.148438 114.40625 C 51.148438 124.785156 42.746094 133.0625 32.492188 133.0625 Z M 32.492188 133.0625 "/>
<path style=" stroke:none;fill-rule:nonzero;fill:rgb(13.72549%,12.156863%,12.54902%);fill-opacity:1;" d="M 36.820312 123.796875 L 28.171875 123.796875 C 26.195312 123.796875 24.460938 122.191406 24.460938 120.09375 C 24.460938 119.597656 24.832031 119.105469 25.457031 119.105469 C 26.074219 119.105469 26.441406 119.476562 26.441406 120.09375 C 26.441406 121.082031 27.308594 121.945312 28.292969 121.945312 L 36.945312 121.945312 C 37.933594 121.945312 38.796875 121.082031 38.796875 120.09375 L 38.796875 117.253906 C 38.796875 116.265625 37.933594 115.402344 36.945312 115.402344 L 28.292969 115.402344 C 26.320312 115.402344 24.582031 113.789062 24.582031 111.691406 L 24.582031 108.851562 C 24.582031 106.875 26.195312 105.148438 28.292969 105.148438 L 36.945312 105.148438 C 38.917969 105.148438 40.648438 106.75 40.648438 108.851562 C 40.648438 109.34375 40.277344 109.714844 39.660156 109.714844 C 39.167969 109.714844 38.671875 109.34375 38.671875 108.851562 C 38.671875 107.863281 37.808594 107 36.820312 107 L 28.171875 107 C 27.183594 107 26.320312 107.863281 26.320312 108.851562 L 26.320312 111.691406 C 26.320312 112.675781 27.183594 113.542969 28.171875 113.542969 L 36.820312 113.542969 C 38.796875 113.542969 40.523438 115.15625 40.523438 117.253906 L 40.523438 120.09375 C 40.402344 122.066406 38.796875 123.796875 36.820312 123.796875 Z M 36.820312 123.796875 "/>
<path style=" stroke:none;fill-rule:nonzero;fill:rgb(13.72549%,12.156863%,12.54902%);fill-opacity:1;" d="M 32.492188 126.890625 C 32 126.890625 31.503906 126.519531 31.503906 125.902344 L 31.503906 102.917969 C 31.503906 102.421875 31.875 101.929688 32.492188 101.929688 C 32.984375 101.929688 33.480469 102.300781 33.480469 102.917969 L 33.480469 126.027344 C 33.355469 126.519531 32.984375 126.890625 32.492188 126.890625 Z M 32.492188 126.890625 "/>
<path style=" stroke:none;fill-rule:nonzero;fill:rgb(13.72549%,12.156863%,12.54902%);fill-opacity:1;" d="M 146.90625 59.550781 L 138.257812 59.550781 C 137.761719 59.550781 137.269531 59.183594 137.269531 58.566406 L 137.269531 14.945312 C 137.269531 14.453125 137.640625 13.957031 138.257812 13.957031 L 146.90625 13.957031 C 147.398438 13.957031 147.894531 14.328125 147.894531 14.945312 L 147.894531 58.6875 C 147.769531 59.058594 147.398438 59.550781 146.90625 59.550781 Z M 139.242188 57.699219 L 146.042969 57.699219 L 146.042969 15.816406 L 139.242188 15.816406 Z M 139.242188 57.699219 "/>
<path style=" stroke:none;fill-rule:nonzero;fill:rgb(13.72549%,12.156863%,12.54902%);fill-opacity:1;" d="M 132.570312 59.550781 L 123.917969 59.550781 C 123.425781 59.550781 122.933594 59.183594 122.933594 58.566406 L 122.933594 29.160156 C 122.933594 28.664062 123.300781 28.171875 123.917969 28.171875 L 132.570312 28.171875 C 133.0625 28.171875 133.558594 28.542969 133.558594 29.160156 L 133.558594 58.6875 C 133.433594 59.058594 133.0625 59.550781 132.570312 59.550781 Z M 124.785156 57.699219 L 131.582031 57.699219 L 131.582031 30.023438 L 124.785156 30.023438 Z M 124.785156 57.699219 "/>
<path style=" stroke:none;fill-rule:nonzero;fill:rgb(13.72549%,12.156863%,12.54902%);fill-opacity:1;" d="M 118.117188 59.550781 L 109.46875 59.550781 C 108.972656 59.550781 108.480469 59.183594 108.480469 58.566406 L 108.480469 37.933594 C 108.480469 37.4375 108.851562 36.945312 109.46875 36.945312 L 118.117188 36.945312 C 118.609375 36.945312 119.105469 37.316406 119.105469 37.933594 L 119.105469 58.6875 C 119.105469 59.058594 118.609375 59.550781 118.117188 59.550781 Z M 110.457031 57.699219 L 117.253906 57.699219 L 117.253906 38.796875 L 110.457031 38.796875 Z M 110.457031 57.699219 "/>
<path style=" stroke:none;fill-rule:nonzero;fill:rgb(13.72549%,12.156863%,12.54902%);fill-opacity:1;" d="M 103.78125 59.550781 L 95.140625 59.550781 C 94.636719 59.550781 94.144531 59.183594 94.144531 58.566406 L 94.144531 22.484375 C 94.144531 21.992188 94.515625 21.496094 95.140625 21.496094 L 103.78125 21.496094 C 104.273438 21.496094 104.769531 21.867188 104.769531 22.484375 L 104.769531 58.566406 C 104.644531 59.058594 104.273438 59.550781 103.78125 59.550781 Z M 96.003906 57.699219 L 102.792969 57.699219 L 102.792969 23.472656 L 96.003906 23.472656 Z M 96.003906 57.699219 "/>
<path style=" stroke:none;fill-rule:nonzero;fill:rgb(13.72549%,12.156863%,12.54902%);fill-opacity:1;" d="M 66.96875 101.433594 C 63.996094 101.433594 61.527344 98.964844 61.527344 96.003906 C 61.527344 93.03125 63.996094 90.5625 66.96875 90.5625 C 69.929688 90.5625 72.398438 93.03125 72.398438 96.003906 C 72.398438 99.089844 69.929688 101.433594 66.96875 101.433594 Z M 66.96875 92.414062 C 64.984375 92.414062 63.378906 94.019531 63.378906 96.003906 C 63.378906 97.976562 64.984375 99.582031 66.96875 99.582031 C 68.941406 99.582031 70.546875 97.976562 70.546875 96.003906 C 70.546875 94.019531 68.941406 92.414062 66.96875 92.414062 Z M 66.96875 92.414062 "/>
<path style=" stroke:none;fill-rule:nonzero;fill:rgb(100%,43.921569%,34.509804%);fill-opacity:1;" d="M 120.214844 11.734375 C 120.214844 13.511719 118.78125 14.945312 117.007812 14.945312 C 115.230469 14.945312 113.789062 13.511719 113.789062 11.734375 C 113.789062 9.960938 115.230469 8.527344 117.007812 8.527344 C 118.78125 8.527344 120.214844 9.960938 120.214844 11.734375 Z M 120.214844 11.734375 "/>
<path style=" stroke:none;fill-rule:nonzero;fill:rgb(100%,81.568627%,35.686275%);fill-opacity:1;" d="M 87.722656 65.484375 C 87.722656 66.78125 86.675781 67.832031 85.378906 67.832031 C 84.082031 67.832031 83.023438 66.78125 83.023438 65.484375 C 83.023438 64.191406 84.082031 63.132812 85.378906 63.132812 C 86.675781 63.132812 87.722656 64.191406 87.722656 65.484375 Z M 87.722656 65.484375 "/>
<path style=" stroke:none;fill-rule:nonzero;fill:rgb(90.196078%,91.372549%,93.333333%);fill-opacity:1;" d="M 47.816406 3.828125 C 47.816406 5.125 46.765625 6.179688 45.46875 6.179688 C 44.175781 6.179688 43.117188 5.125 43.117188 3.828125 C 43.117188 2.53125 44.175781 1.480469 45.46875 1.480469 C 46.765625 1.480469 47.816406 2.53125 47.816406 3.828125 Z M 47.816406 3.828125 "/>
<path style=" stroke:none;fill-rule:nonzero;fill:rgb(51.764706%,85.882353%,100%);fill-opacity:1;" d="M 36.082031 149.375 C 36.082031 151.351562 34.476562 152.957031 32.492188 152.957031 C 30.515625 152.957031 28.910156 151.351562 28.910156 149.375 C 28.910156 147.390625 30.515625 145.792969 32.492188 145.792969 C 34.476562 145.792969 36.082031 147.390625 36.082031 149.375 Z M 36.082031 149.375 "/>
<path style=" stroke:none;fill-rule:nonzero;fill:rgb(51.764706%,85.882353%,100%);fill-opacity:1;" d="M 157.777344 155.800781 C 157.777344 157.230469 156.613281 158.394531 155.183594 158.394531 C 153.75 158.394531 152.585938 157.230469 152.585938 155.800781 C 152.585938 154.367188 153.75 153.203125 155.183594 153.203125 C 156.613281 153.203125 157.777344 154.367188 157.777344 155.800781 Z M 157.777344 155.800781 "/>
</g>
</svg>
