<?xml version="1.0" encoding="utf-8"?>
<!-- Generator: Adobe Illustrator 18.0.0, SVG Export Plug-In . SVG Version: 6.00 Build 0)  -->
<!DOCTYPE svg PUBLIC "-//W3C//DTD SVG 1.1//EN" "http://www.w3.org/Graphics/SVG/1.1/DTD/svg11.dtd">
<svg version="1.1" id="Layer_1" xmlns="http://www.w3.org/2000/svg" xmlns:xlink="http://www.w3.org/1999/xlink" x="0px" y="0px"
	 viewBox="0 0 129.5 129.5" enable-background="new 0 0 129.5 129.5" xml:space="preserve">
<g>
	<g>
		<path fill="#231F20" d="M34.7,83.4c-0.2,0-0.4-0.1-0.5-0.2c-0.3-0.3-0.3-0.8,0-1.1l1.3-1.3c0.3-0.3,0.8-0.3,1.1,0
			c0.3,0.3,0.3,0.8,0,1.1l-1.3,1.3C35.1,83.3,34.9,83.4,34.7,83.4z"/>
		<path fill="#231F20" d="M30.7,87.4c-0.2,0-0.4-0.1-0.5-0.2c-0.3-0.3-0.3-0.8,0-1.1l1.3-1.3c0.3-0.3,0.8-0.3,1.1,0
			c0.3,0.3,0.3,0.8,0,1.1l-1.3,1.3C31.1,87.4,30.9,87.4,30.7,87.4z"/>
		<path fill="#231F20" d="M36,87.4c-0.2,0-0.4-0.1-0.5-0.2l-1.3-1.3c-0.3-0.3-0.3-0.8,0-1.1c0.3-0.3,0.8-0.3,1.1,0l1.3,1.3
			c0.3,0.3,0.3,0.8,0,1.1C36.4,87.4,36.2,87.4,36,87.4z"/>
		<path fill="#231F20" d="M32,83.4c-0.2,0-0.4-0.1-0.5-0.2l-1.3-1.3c-0.3-0.3-0.3-0.8,0-1.1c0.3-0.3,0.8-0.3,1.1,0l1.3,1.3
			c0.3,0.3,0.3,0.8,0,1.1C32.4,83.3,32.2,83.4,32,83.4z"/>
		<path fill="#231F20" d="M104.3,26.7c-0.2,0-0.4-0.1-0.5-0.2c-0.3-0.3-0.3-0.8,0-1.1l1.3-1.3c0.3-0.3,0.8-0.3,1.1,0
			c0.3,0.3,0.3,0.8,0,1.1l-1.3,1.3C104.7,26.6,104.5,26.7,104.3,26.7z"/>
		<path fill="#231F20" d="M100.3,30.7c-0.2,0-0.4-0.1-0.5-0.2c-0.3-0.3-0.3-0.8,0-1.1l1.3-1.3c0.3-0.3,0.8-0.3,1.1,0
			c0.3,0.3,0.3,0.8,0,1.1l-1.3,1.3C100.7,30.6,100.5,30.7,100.3,30.7z"/>
		<path fill="#231F20" d="M105.6,30.7c-0.2,0-0.4-0.1-0.5-0.2l-1.3-1.3c-0.3-0.3-0.3-0.8,0-1.1c0.3-0.3,0.8-0.3,1.1,0l1.3,1.3
			c0.3,0.3,0.3,0.8,0,1.1C106,30.6,105.8,30.7,105.6,30.7z"/>
		<path fill="#231F20" d="M101.6,26.7c-0.2,0-0.4-0.1-0.5-0.2l-1.3-1.3c-0.3-0.3-0.3-0.8,0-1.1c0.3-0.3,0.8-0.3,1.1,0l1.3,1.3
			c0.3,0.3,0.3,0.8,0,1.1C102,26.6,101.8,26.7,101.6,26.7z"/>
		<path fill="#231F20" d="M86.2,112.2c-0.2,0-0.4-0.1-0.5-0.2c-0.3-0.3-0.3-0.8,0-1.1l1.3-1.3c0.3-0.3,0.8-0.3,1.1,0
			c0.3,0.3,0.3,0.8,0,1.1l-1.3,1.3C86.6,112.1,86.4,112.2,86.2,112.2z"/>
		<path fill="#231F20" d="M82.1,116.2c-0.2,0-0.4-0.1-0.5-0.2c-0.3-0.3-0.3-0.8,0-1.1l1.3-1.3c0.3-0.3,0.8-0.3,1.1,0
			c0.3,0.3,0.3,0.8,0,1.1l-1.3,1.3C82.5,116.1,82.3,116.2,82.1,116.2z"/>
		<path fill="#231F20" d="M87.5,116.2c-0.2,0-0.4-0.1-0.5-0.2l-1.3-1.3c-0.3-0.3-0.3-0.8,0-1.1c0.3-0.3,0.8-0.3,1.1,0l1.3,1.3
			c0.3,0.3,0.3,0.8,0,1.1C87.8,116.1,87.6,116.2,87.5,116.2z"/>
		<path fill="#231F20" d="M83.4,112.2c-0.2,0-0.4-0.1-0.5-0.2l-1.3-1.3c-0.3-0.3-0.3-0.8,0-1.1s0.8-0.3,1.1,0l1.3,1.3
			c0.3,0.3,0.3,0.8,0,1.1C83.8,112.1,83.6,112.2,83.4,112.2z"/>
		<path fill="#231F20" d="M44.7,113.6h-7.2c-0.4,0-0.8-0.3-0.8-0.8c0-0.4,0.3-0.8,0.8-0.8h7.2c0.4,0,0.8,0.3,0.8,0.8
			C45.4,113.2,45.1,113.6,44.7,113.6z"/>
		<path fill="#231F20" d="M52.1,113.6h-2.9c-0.4,0-0.8-0.3-0.8-0.8c0-0.4,0.3-0.8,0.8-0.8h2.9c0.4,0,0.8,0.3,0.8,0.8
			C52.8,113.2,52.5,113.6,52.1,113.6z"/>
		<path fill="#231F20" d="M50.3,116.1h-7.1c-0.4,0-0.8-0.3-0.8-0.8s0.3-0.8,0.8-0.8h7.1c0.4,0,0.8,0.3,0.8,0.8
			S50.7,116.1,50.3,116.1z"/>
		<path fill="#FFFFFF" d="M90.5,79.2l0.6,4.9c2.8,0.8,5.6,1.9,8.5,3.4L97,82.6l3.3-3.8l5.2,0.6c-0.3-1.5-0.2-3,0-4.5l-8.8-1.1
			L90.5,79.2z"/>
		<path fill="#FFFFFF" d="M84.8,72.5v10c2,0.3,4.1,0.8,6.3,1.5l-0.6-4.9l6.3-5.3l8.8,1.1c0.5-3.7,2.1-6.7,2.1-6.7l-3.8-4.3h-8.5
			L84.8,72.5z"/>
		<path fill="#FFFFFF" d="M89.2,69.4c0,2.8-2.2,5-5,5c-0.5,0-1-0.1-1.4-0.2v11.5H71c0.3,0.6,0.5,1.4,0.5,2.1c0,2.8-2.2,5-5,5
			c-2.8,0-5-2.2-5-5c0-0.8,0.2-1.5,0.5-2.1H50.2V74.2c0.4,0.1,0.9,0.2,1.4,0.2c2.8,0,5-2.2,5-5c0-2.8-2.2-5-5-5
			c-0.5,0-1,0.1-1.4,0.2V53.1H62c-0.3,0.6-0.5,1.4-0.5,2.1c0,2.8,2.2,5,5,5c2.8,0,5-2.2,5-5c0-0.8-0.2-1.5-0.5-2.1h11.8v11.5
			c0.4-0.1,0.9-0.2,1.4-0.2C87,64.4,89.2,66.6,89.2,69.4z"/>
		<path fill="#FFD05B" d="M65.9,90.7c-1.2-0.3-2.2-1.3-2.3-2.5c-0.1-0.6,0-1.1,0.3-1.6l0,0c0.6-1.3-0.3-2.9-1.8-2.9h-9.8v-7.4
			c3.6-0.3,6.4-3.3,6.4-7c0-3.6-2.8-6.6-6.4-7v-7.4h7.3l0,0c0,3,1.8,5.7,4.6,6.7c4.9,1.6,9.4-2,9.4-6.6c0,0,0-0.1,0-0.1h7.3v9.5
			c0,1.3,1.3,2.3,2.6,1.9l0,0c0.3-0.1,0.6-0.1,0.8-0.1c1.6,0,3,1.3,3,3c0,1.6-1.3,3-3,3c-0.3,0-0.6,0-0.8-0.1l0,0
			c-1.3-0.4-2.6,0.6-2.6,1.9v9.5H71c-1.5,0-2.4,1.5-1.8,2.9l0,0c0.2,0.4,0.3,0.8,0.3,1.3C69.5,89.7,67.8,91.1,65.9,90.7z"/>
		<path fill="#FF7058" d="M63.7,44.1c-1.2-0.2-2.2-1.3-2.3-2.5c-0.1-0.6,0-1.1,0.3-1.7l0,0c0.6-1.3-0.3-2.9-1.8-2.9H50v-7.4
			c3.6-0.3,6.4-3.3,6.4-7c0-3.6-2.8-6.6-6.4-7V8.4h7.3l0,0.1c0,3,1.8,5.7,4.6,6.7c4.9,1.6,9.4-2,9.4-6.6c0,0,0-0.1,0-0.1h7.3v9.5
			c0,1.3,1.3,2.3,2.6,1.9l0,0c0.3-0.1,0.6-0.1,0.8-0.1c1.6,0,3,1.3,3,3c0,1.6-1.3,3-3,3c-0.3,0-0.6,0-0.8-0.1l0,0
			c-1.3-0.4-2.6,0.6-2.6,1.9V37h-9.8c-1.5,0-2.4,1.5-1.8,2.9l0,0c0.2,0.4,0.3,0.8,0.3,1.3C67.3,43,65.6,44.5,63.7,44.1z"/>
		<path fill="#FFFFFF" d="M39.1,32.5l-0.6,4.9c-2.8,0.8-5.6,1.9-8.5,3.4l2.6-4.9l-3.3-3.8l-5.2,0.6c0.3-1.5,0.2-3,0-4.5l8.8-1.1
			L39.1,32.5z"/>
		<path fill="#FFFFFF" d="M44.8,25.9v10c-2,0.3-4.1,0.8-6.3,1.5l0.6-4.9l-6.3-5.3l-8.8,1.1c-0.5-3.7-2.1-6.7-2.1-6.7l3.8-4.3h8.5
			L44.8,25.9z"/>
		<path fill="#FFFFFF" d="M1,82.1h5.7c7.6-5,18.6-13.5,22.7-23.8c0,0,10-10.4,24.5-13.9c2.3-0.6,3.9-2.9,3.5-5.3
			c-0.4-2.3-2.4-4-4.8-4c-5.9,0.1-17.2,1.5-27.2,8.5c0.4-2.8-3.3-6.6-3.3-6.6c5-5.4-0.1-15.4-0.1-15.4L31.4,11l10.5-2.9l1.6,0.8
			c3.8,2,8.5,0.8,11-2.6l-6.8-3.8c-2.4-1.3-5.1-1.9-7.8-1.6l-8.8,0.9c-2.3,0.2-4.4,1-6.3,2.4L4.7,18.3c-1.5,1.1-2.8,2.4-3.7,4"/>
		<path fill="#231F20" d="M82.1,17c-0.2,0-0.4,0-0.7,0V6.4c0-0.4-0.3-0.8-0.8-0.8H68.9c-0.3,0-0.5,0.1-0.6,0.4
			c-0.1,0.2-0.2,0.5,0,0.7c0.3,0.6,0.4,1.2,0.4,1.8c0,2.3-1.9,4.2-4.2,4.2c-2.3,0-4.2-1.9-4.2-4.2c0-0.6,0.1-1.2,0.4-1.8
			c0.1-0.2,0.1-0.5,0-0.7c-0.1-0.2-0.4-0.4-0.6-0.4h-4.9c0,0,0,0,0,0L48,1.8c-2.5-1.4-5.4-2-8.3-1.7L31,1c-2.4,0.2-4.7,1.1-6.7,2.5
			L4.3,17.6c-1.6,1.1-2.9,2.5-3.9,4.3l1.3,0.8c0.9-1.5,2.1-2.8,3.5-3.8L25.2,4.7c1.8-1.2,3.8-2,5.9-2.2l8.8-0.9
			c2.6-0.3,5.1,0.3,7.4,1.5l6.1,3.4c-2.4,2.7-6.2,3.4-9.5,1.7l-1.6-0.8c-0.2-0.1-0.4-0.1-0.5-0.1l-10.5,2.9c-0.1,0-0.3,0.1-0.4,0.2
			L21.4,21c-0.2,0.2-0.3,0.6-0.1,0.8c0,0.1,4.8,9.6,0.2,14.6c-0.3,0.3-0.3,0.7,0,1c1,1,3.4,4,3.1,6c0,0.3,0.1,0.6,0.4,0.7
			c0.3,0.2,0.6,0.1,0.8,0c9.8-6.9,21-8.2,26.8-8.3c2,0,3.7,1.4,4,3.3c0.3,2-1,3.9-2.9,4.4c-14.6,3.5-24.5,13.7-24.9,14.1
			c-0.1,0.1-0.1,0.1-0.2,0.2c-4,9.9-14.2,18.1-22.2,23.3H1v1.5h5.7c0.1,0,0.3,0,0.4-0.1c8.2-5.3,18.8-13.8,22.9-24
			c1.1-1.1,10.6-10.4,24-13.6c2.4-0.6,4.1-2.8,4.1-5.3h0.6c-0.1,0.4-0.2,0.9-0.2,1.4c0,3.2,2.6,5.7,5.7,5.7c3.2,0,5.7-2.6,5.7-5.7
			c0-0.5-0.1-0.9-0.2-1.4h10.7c0.4,0,0.8-0.3,0.8-0.8V28.4c0.2,0,0.4,0,0.7,0c3.2,0,5.7-2.6,5.7-5.7C87.8,19.6,85.2,17,82.1,17z
			 M23.1,36.9c0.8-1.1,1.3-2.3,1.6-3.5L29,33l2.7,3.1l-2.3,4.2c-1.1,0.6-2.2,1.2-3.3,1.9C25.7,40.1,23.9,37.9,23.1,36.9z M24.9,28.9
			l7.7-0.9l5.7,4.8l-0.5,4c-0.1,0-0.1,0-0.2,0.1c-0.9,0.3-1.8,0.6-2.6,0.9c-0.3,0.1-0.5,0.2-0.8,0.3c-0.7,0.3-1.3,0.5-2,0.8
			c-0.2,0.1-0.3,0.1-0.5,0.2l1.5-2.8c0.1-0.3,0.1-0.6-0.1-0.8l-3.3-3.8c-0.1-0.2-0.4-0.3-0.6-0.3c0,0-0.1,0-0.1,0L25,31.9
			c0,0,0,0,0,0C25.1,30.9,25,29.9,24.9,28.9z M39.3,36.3l0.5-3.7c0-0.3-0.1-0.5-0.3-0.7l-6.3-5.3c-0.2-0.1-0.4-0.2-0.6-0.2l-8,1
			c-0.5-2.6-1.4-4.9-1.8-5.8l3.3-3.7H34l10,8.2v9c0,0,0,0,0,0C42.5,35.5,41,35.9,39.3,36.3z M47.6,26.9c-0.2,0.1-0.3,0.4-0.3,0.6
			v7.3c-0.6,0.1-1.2,0.2-1.8,0.2v-9.1c0-0.2-0.1-0.4-0.3-0.6l-10.5-8.6c-0.1-0.1-0.3-0.2-0.5-0.2h-6.8l4.4-4.9l10-2.7l1.3,0.7
			c1.3,0.7,2.7,1,4.1,1.1v7.3c0,0.2,0.1,0.5,0.3,0.6c0.2,0.1,0.4,0.2,0.7,0.1c0.4-0.1,0.8-0.2,1.2-0.2c2.3,0,4.2,1.9,4.2,4.2
			c0,2.3-1.9,4.2-4.2,4.2c-0.4,0-0.8-0.1-1.2-0.2C48,26.7,47.8,26.8,47.6,26.9z M82.1,27c-0.4,0-0.8-0.1-1.2-0.2
			c-0.2-0.1-0.5,0-0.7,0.1c-0.2,0.1-0.3,0.4-0.3,0.6v10.8H68.9c-0.3,0-0.5,0.1-0.6,0.3c-0.1,0.2-0.2,0.5,0,0.7
			c0.3,0.6,0.4,1.2,0.4,1.8c0,2.3-1.9,4.2-4.2,4.2c-2.3,0-4.2-1.9-4.2-4.2c0-0.6,0.1-1.2,0.4-1.8c0.1-0.2,0.1-0.5,0-0.7
			c-0.1-0.2-0.4-0.4-0.6-0.4H58c-0.7-2.3-2.9-4-5.4-3.9c-1.1,0-2.4,0.1-3.8,0.2v-6.2c0.2,0,0.4,0,0.6,0c3.2,0,5.7-2.6,5.7-5.7
			c0-3.2-2.6-5.7-5.7-5.7c-0.2,0-0.4,0-0.6,0v-6.5c2.3-0.3,4.4-1.5,6-3.4h4c-0.1,0.4-0.2,0.9-0.2,1.4c0,3.2,2.6,5.7,5.7,5.7
			c3.2,0,5.7-2.6,5.7-5.7c0-0.5-0.1-0.9-0.2-1.4h10v10.8c0,0.2,0.1,0.5,0.3,0.6c0.2,0.1,0.4,0.2,0.7,0.1c0.4-0.1,0.8-0.2,1.2-0.2
			c2.3,0,4.2,1.9,4.2,4.2C86.3,25.1,84.4,27,82.1,27z"/>
		<path fill="#FFFFFF" d="M128.5,68.8c-0.9-1.5-2.2-2.9-3.6-3.9l-20.1-14.2c-1.9-1.3-4-2.1-6.3-2.4l-8.8-0.9
			c-2.7-0.3-5.4,0.3-7.8,1.6L75.1,53c2.5,3.5,7.2,4.6,11,2.6l1.6-0.8l10.5,2.9l9.5,10.6c0,0-5.1,10-0.1,15.4c0,0-3.7,3.8-3.3,6.6
			c-10-7-21.3-8.3-27.2-8.5c-2.4-0.1-4.4,1.6-4.8,4c-0.4,2.4,1.1,4.7,3.5,5.3c14.5,3.5,24.5,13.9,24.5,13.9
			c4.2,10.3,15.1,18.8,22.7,23.8h5.6"/>
		<path fill="#231F20" d="M100.9,104.7c0-0.1-0.1-0.2-0.2-0.2c-0.4-0.4-10.3-10.6-24.9-14.1c-1.9-0.5-3.2-2.4-2.9-4.4
			c0.3-2,2-3.4,4-3.3c5.8,0.1,16.9,1.4,26.8,8.3c0.2,0.2,0.6,0.2,0.8,0c0.3-0.2,0.4-0.4,0.4-0.7c-0.3-2,2.2-5,3.1-6
			c0.3-0.3,0.3-0.7,0-1c-4.6-5,0.2-14.5,0.2-14.6c0.1-0.3,0.1-0.6-0.1-0.8l-9.5-10.6c-0.1-0.1-0.2-0.2-0.4-0.2L87.8,54
			c-0.2-0.1-0.4,0-0.5,0.1l-1.6,0.8c-3.2,1.7-7.1,0.9-9.5-1.7l6.1-3.4c2.3-1.3,4.8-1.8,7.4-1.5l8.8,0.9c2.1,0.2,4.2,1,5.9,2.2
			l20.1,14.2c1.4,1,2.5,2.2,3.4,3.7l1.3-0.8c-1-1.7-2.3-3.1-3.9-4.2l-20.1-14.2c-2-1.4-4.3-2.3-6.7-2.5l-8.8-0.9
			c-2.9-0.3-5.7,0.3-8.3,1.7l-6.8,3.8c0,0,0,0,0,0H71c-0.3,0-0.5,0.1-0.6,0.4c-0.1,0.2-0.2,0.5,0,0.7c0.3,0.6,0.4,1.2,0.4,1.8
			c0,2.3-1.9,4.2-4.2,4.2c-2.3,0-4.2-1.9-4.2-4.2c0-0.6,0.1-1.2,0.4-1.8c0.1-0.2,0.1-0.5,0-0.7c-0.1-0.2-0.4-0.4-0.6-0.4H50.2
			c-0.4,0-0.8,0.3-0.8,0.8v11.5c0,0.2,0.1,0.5,0.3,0.6c0.2,0.1,0.4,0.2,0.7,0.1c0.4-0.1,0.8-0.2,1.2-0.2c2.3,0,4.2,1.9,4.2,4.2
			c0,2.3-1.9,4.2-4.2,4.2c-0.4,0-0.8-0.1-1.2-0.2c-0.2-0.1-0.5,0-0.7,0.1c-0.2,0.1-0.3,0.4-0.3,0.6v11.5c0,0.4,0.3,0.8,0.8,0.8h10.7
			c-0.1,0.4-0.2,0.9-0.2,1.4c0,3.2,2.6,5.7,5.7,5.7c2.7,0,5-1.9,5.6-4.4c0.7,1.3,1.9,2.3,3.4,2.6c13.4,3.2,23,12.5,24,13.6
			c4.2,10.2,14.8,18.7,22.9,24c0.1,0.1,0.3,0.1,0.4,0.1h5.6V128h-5.4C115.1,122.8,104.8,114.5,100.9,104.7z M83.6,81.6v-6.5
			c0.2,0,0.3,0,0.5,0v6.6C83.9,81.7,83.7,81.6,83.6,81.6z M97.3,85.6c-0.6-0.3-1.3-0.6-1.9-0.8c-0.3-0.1-0.6-0.2-0.8-0.3
			c-0.9-0.3-1.8-0.6-2.6-0.9c-0.1,0-0.1,0-0.2-0.1l-0.5-4l5.7-4.8l7.7,0.9c-0.1,1-0.1,2,0,3c0,0,0,0,0,0l-4.3-0.5
			c-0.2,0-0.5,0.1-0.7,0.3l-3.3,3.8c-0.2,0.2-0.2,0.6-0.1,0.8l1.5,2.8C97.7,85.7,97.5,85.6,97.3,85.6z M106.5,83.6
			c-0.8,1-2.6,3.1-3,5.3c-1.1-0.7-2.2-1.4-3.3-1.9l-2.3-4.2l2.7-3.1l4.3,0.5C105.1,81.3,105.6,82.5,106.5,83.6z M106.7,68.3
			c-0.4,0.9-1.4,3.2-1.8,5.8l-8-1c-0.2,0-0.4,0-0.6,0.2L90,78.6c-0.2,0.2-0.3,0.4-0.3,0.7l0.5,3.7c-1.6-0.4-3.2-0.8-4.7-1.1l0,0v-7
			c2.5-0.6,4.4-2.9,4.4-5.6c0,0,0-0.1,0-0.1l5.6-4.6h7.9L106.7,68.3z M86.4,56.2l1.3-0.7l10,2.7l4.4,4.9h-6.8
			c-0.2,0-0.3,0.1-0.5,0.2l-5.2,4.2c-0.8-2.3-2.9-3.9-5.4-3.9c-0.2,0-0.4,0-0.7,0v-6.5C84.5,57,85.5,56.7,86.4,56.2z M71.6,85H71
			c-0.3,0-0.5,0.1-0.6,0.4c-0.1,0.2-0.2,0.5,0,0.7c0.3,0.6,0.4,1.2,0.4,1.8c0,2.3-1.9,4.2-4.2,4.2c-2.3,0-4.2-1.9-4.2-4.2
			c0-0.6,0.1-1.2,0.4-1.8c0.1-0.2,0.1-0.5,0-0.7C62.5,85.1,62.2,85,62,85H50.9v-9.9c0.2,0,0.4,0,0.6,0c3.2,0,5.7-2.6,5.7-5.7
			c0-3.2-2.6-5.7-5.7-5.7c-0.2,0-0.4,0-0.6,0v-9.9h10c-0.1,0.4-0.2,0.9-0.2,1.4c0,3.2,2.6,5.7,5.7,5.7c3.2,0,5.7-2.6,5.7-5.7
			c0-0.5-0.1-0.9-0.2-1.4h2.8c1.8,2.2,4.5,3.4,7.2,3.4v7.3c0,0.2,0.1,0.5,0.3,0.6c0.2,0.1,0.4,0.2,0.7,0.1c0.4-0.1,0.8-0.2,1.2-0.2
			c2.3,0,4.2,1.9,4.2,4.2c0,2.3-1.9,4.2-4.2,4.2c-0.4,0-0.8-0.1-1.2-0.2c-0.2-0.1-0.5,0-0.7,0.1c-0.2,0.1-0.3,0.4-0.3,0.6v7.2
			c-2-0.2-3.7-0.3-5.1-0.4C74.5,81,72.3,82.6,71.6,85z"/>
		<circle fill="#E6E9EE" cx="14.9" cy="114.2" r="2.6"/>
		<circle fill="#84DBFF" cx="115.3" cy="11" r="2.6"/>
		<circle fill="#84DBFF" cx="98" cy="40.8" r="2.6"/>
		<circle fill="#E6E9EE" cx="3.4" cy="3.4" r="2.6"/>
		<circle fill="#FFFFFF" cx="10" cy="55.3" r="2.2"/>
		<path fill="#231F20" d="M10,58.3c-1.6,0-3-1.3-3-3c0-1.6,1.3-3,3-3s3,1.3,3,3C13,57,11.7,58.3,10,58.3z M10,53.8
			c-0.8,0-1.5,0.7-1.5,1.5c0,0.8,0.7,1.5,1.5,1.5s1.5-0.7,1.5-1.5C11.5,54.5,10.8,53.8,10,53.8z"/>
		<circle fill="#FFFFFF" cx="90.5" cy="3.4" r="2.2"/>
		<path fill="#231F20" d="M90.5,6.3c-1.6,0-3-1.3-3-3c0-1.6,1.3-3,3-3c1.6,0,3,1.3,3,3C93.5,5,92.1,6.3,90.5,6.3z M90.5,1.9
			c-0.8,0-1.5,0.7-1.5,1.5s0.7,1.5,1.5,1.5c0.8,0,1.5-0.7,1.5-1.5S91.3,1.9,90.5,1.9z"/>
	</g>
</g>
</svg>
