<?xml version="1.0" encoding="utf-8"?>
<!-- Generator: Adobe Illustrator 18.0.0, SVG Export Plug-In . SVG Version: 6.00 Build 0)  -->
<!DOCTYPE svg PUBLIC "-//W3C//DTD SVG 1.1//EN" "http://www.w3.org/Graphics/SVG/1.1/DTD/svg11.dtd">
<svg version="1.1" id="Layer_1" xmlns="http://www.w3.org/2000/svg" xmlns:xlink="http://www.w3.org/1999/xlink" x="0px" y="0px"
	 viewBox="0 0 129.5 129.5" enable-background="new 0 0 129.5 129.5" xml:space="preserve">
<g>
	<g>
		<polygon fill="#E6E9EE" points="65.3,69.3 109.8,69.3 109.8,76.5 		"/>
		<polygon fill="#E6E9EE" points="66.9,110 22.4,110 22.4,117.3 		"/>
		<path fill="#E6E9EE" d="M109.8,24.2V9.4c0-2.6-2.1-4.6-4.6-4.6H27c-2.6,0-4.6,2.1-4.6,4.6v14.7H109.8z"/>
		<path fill="#54C0EB" d="M109.8,9.4V14H46.3l-1.7-4.6H30.8L29.2,14h-6.8V9.4c0-2.6,2.1-4.6,4.6-4.6h78.1
			C107.7,4.8,109.8,6.9,109.8,9.4z"/>
		<polygon fill="#CED5E0" points="63.5,14 46.3,14 48,9.4 61.8,9.4 		"/>
		<circle fill="#FF7058" cx="103.4" cy="9.5" r="2.2"/>
		<circle fill="#54C0EB" cx="97.4" cy="9.5" r="2.2"/>
		<circle fill="#E6E9EE" cx="91.4" cy="9.5" r="2.2"/>
		<rect x="33.8" y="16.4" fill="#FFFFFF" width="62.4" height="5.5"/>
		<path fill="#324A5E" d="M35.6,17.9H36V19h0c0.1-0.1,0.1-0.2,0.2-0.2c0.1-0.1,0.2-0.1,0.3-0.1c0.2,0,0.6,0.1,0.6,0.8v1.1h-0.3v-1
			c0-0.3-0.1-0.5-0.4-0.5c-0.2,0-0.4,0.1-0.4,0.3c0,0,0,0.1,0,0.2v1.1h-0.3V17.9z"/>
		<path fill="#324A5E" d="M38,18.2v0.5h0.5v0.2H38v1c0,0.2,0.1,0.3,0.2,0.3c0.1,0,0.1,0,0.2,0l0,0.2c-0.1,0-0.2,0-0.3,0
			c-0.2,0-0.3,0-0.3-0.1c-0.1-0.1-0.1-0.3-0.1-0.5v-1h-0.3v-0.2h0.3v-0.4L38,18.2z"/>
		<path fill="#324A5E" d="M39.3,18.2v0.5h0.5v0.2h-0.5v1c0,0.2,0.1,0.3,0.2,0.3c0.1,0,0.1,0,0.2,0l0,0.2c-0.1,0-0.2,0-0.3,0
			c-0.2,0-0.3,0-0.3-0.1c-0.1-0.1-0.1-0.3-0.1-0.5v-1h-0.3v-0.2h0.3v-0.4L39.3,18.2z"/>
		<path fill="#324A5E" d="M40.1,19.3c0-0.2,0-0.4,0-0.6h0.3l0,0.3h0c0.1-0.2,0.3-0.3,0.6-0.3c0.4,0,0.7,0.4,0.7,0.9
			c0,0.6-0.4,0.9-0.8,0.9c-0.2,0-0.4-0.1-0.5-0.3h0v1h-0.3V19.3z M40.4,19.7c0,0,0,0.1,0,0.1c0.1,0.2,0.3,0.4,0.5,0.4
			c0.3,0,0.5-0.3,0.5-0.7c0-0.4-0.2-0.7-0.5-0.7c-0.2,0-0.4,0.2-0.5,0.4c0,0,0,0.1,0,0.1V19.7z"/>
		<path fill="#324A5E" d="M42.1,19c0-0.1,0.1-0.2,0.2-0.2c0.1,0,0.2,0.1,0.2,0.2c0,0.1-0.1,0.2-0.2,0.2C42.2,19.2,42.1,19.1,42.1,19
			z M42.1,20.3c0-0.1,0.1-0.2,0.2-0.2c0.1,0,0.2,0.1,0.2,0.2c0,0.1-0.1,0.2-0.2,0.2C42.2,20.5,42.1,20.4,42.1,20.3z"/>
		<path fill="#324A5E" d="M42.7,20.6l1-2.6h0.2l-1,2.6H42.7z"/>
		<path fill="#324A5E" d="M43.9,20.6l1-2.6h0.2l-1,2.6H43.9z"/>
		<path fill="#324A5E" d="M46.3,18.7l0.2,0.9c0.1,0.2,0.1,0.4,0.1,0.6h0c0-0.2,0.1-0.4,0.2-0.6l0.3-0.9h0.3l0.3,0.9
			c0.1,0.2,0.1,0.4,0.2,0.6h0c0-0.2,0.1-0.4,0.1-0.6l0.3-0.9h0.3L48,20.4h-0.3l-0.3-0.8c-0.1-0.2-0.1-0.4-0.2-0.6h0
			c0,0.2-0.1,0.4-0.2,0.6l-0.3,0.8h-0.3L46,18.7H46.3z"/>
		<path fill="#324A5E" d="M49.1,18.7l0.2,0.9c0.1,0.2,0.1,0.4,0.1,0.6h0c0-0.2,0.1-0.4,0.2-0.6l0.3-0.9h0.3l0.3,0.9
			c0.1,0.2,0.1,0.4,0.2,0.6h0c0-0.2,0.1-0.4,0.1-0.6l0.3-0.9h0.3l-0.6,1.8h-0.3l-0.3-0.8c-0.1-0.2-0.1-0.4-0.2-0.6h0
			c0,0.2-0.1,0.4-0.2,0.6l-0.3,0.8h-0.3l-0.5-1.8H49.1z"/>
		<path fill="#324A5E" d="M51.8,18.7l0.2,0.9c0.1,0.2,0.1,0.4,0.1,0.6h0c0-0.2,0.1-0.4,0.2-0.6l0.3-0.9h0.3l0.3,0.9
			c0.1,0.2,0.1,0.4,0.2,0.6h0c0-0.2,0.1-0.4,0.1-0.6l0.3-0.9H54l-0.6,1.8h-0.3l-0.3-0.8c-0.1-0.2-0.1-0.4-0.2-0.6h0
			c0,0.2-0.1,0.4-0.2,0.6l-0.3,0.8H52l-0.5-1.8H51.8z"/>
		<path fill="#324A5E" d="M54.2,20.3c0-0.1,0.1-0.2,0.2-0.2c0.1,0,0.2,0.1,0.2,0.2c0,0.1-0.1,0.2-0.2,0.2
			C54.2,20.5,54.2,20.4,54.2,20.3z"/>
		<path fill="#FFFFFF" d="M122.3,33.5h-57c-2.1,0-3.8,1.7-3.8,3.8v3.1l-6.1,6.1l6.1,6.1v12.7c0,2.1,1.7,3.8,3.8,3.8h57
			c2.1,0,3.8-1.7,3.8-3.8V37.4C126.2,35.2,124.5,33.5,122.3,33.5z"/>
		<path fill="#84DBFF" d="M49.2,59H34.8c-1.9,0-3.5-1.5-3.5-3.5V41.2c0-1.9,1.5-3.5,3.5-3.5h14.4c1.9,0,3.5,1.5,3.5,3.5v14.4
			C52.7,57.5,51.1,59,49.2,59z"/>
		<circle fill="#FFFFFF" cx="41.9" cy="44.8" r="3.2"/>
		<path fill="#231F20" d="M41.9,48.8c-2.2,0-4-1.8-4-4s1.8-4,4-4c2.2,0,4,1.8,4,4S44.1,48.8,41.9,48.8z M41.9,42.3
			c-1.4,0-2.5,1.1-2.5,2.5c0,1.4,1.1,2.5,2.5,2.5c1.4,0,2.5-1.1,2.5-2.5C44.3,43.5,43.2,42.3,41.9,42.3z"/>
		<path fill="#FFFFFF" d="M48.5,55.2c-0.9-2.7-3.4-4.7-6.5-4.7c-3,0-5.6,2-6.5,4.7H48.5z"/>
		<path fill="#231F20" d="M48.5,55.9H35.6c-0.2,0-0.5-0.1-0.6-0.3c-0.1-0.2-0.2-0.4-0.1-0.7c1-3.1,3.9-5.3,7.2-5.3
			c3.3,0,6.2,2.1,7.2,5.3c0.1,0.2,0,0.5-0.1,0.7C49,55.8,48.7,55.9,48.5,55.9z M36.7,54.4h10.7c-1-2-3.1-3.2-5.3-3.2
			C39.8,51.2,37.7,52.5,36.7,54.4z"/>
		<path fill="#FFFFFF" d="M9.8,77.8h57c2.1,0,3.8,1.7,3.8,3.8v3.1l6.1,6.1L70.7,97v9.4c0,2.1-1.7,3.8-3.8,3.8h-57
			c-2.1,0-3.8-1.7-3.8-3.8V81.6C6,79.5,7.7,77.8,9.8,77.8z"/>
		<path fill="#231F20" d="M122.3,32.8h-11.8v-23c0-3.1-2.6-5.7-5.7-5.7H27.3c-3.1,0-5.7,2.6-5.7,5.7V77H9.8c-2.5,0-4.6,2.1-4.6,4.6
			v24.8c0,2.5,2.1,4.6,4.6,4.6h11.8v9.5c0,3.1,2.6,5.7,5.7,5.7h77.5c3.1,0,5.7-2.6,5.7-5.7V70h11.8c2.5,0,4.6-2.1,4.6-4.6V37.4
			C126.9,34.8,124.9,32.8,122.3,32.8z M6.8,106.4V81.6c0-1.7,1.4-3.1,3.1-3.1h57c1.7,0,3.1,1.4,3.1,3.1v3.5l5.8,5.8L70,96.7v9.7
			c0,1.7-1.4,3.1-3.1,3.1h-57C8.1,109.5,6.8,108.1,6.8,106.4z M109,120.5c0,2.3-1.9,4.2-4.2,4.2H27.3c-2.3,0-4.2-1.9-4.2-4.2V111
			h43.7c2.5,0,4.6-2.1,4.6-4.6v-9.1l6.4-6.4l-6.4-6.4v-2.8c0-2.5-2.1-4.6-4.6-4.6H23.1V9.7c0-2.3,1.9-4.2,4.2-4.2h77.5
			c2.3,0,4.2,1.9,4.2,4.2v23H65.3c-2.5,0-4.6,2.1-4.6,4.6v2.8l-6.4,6.4l6.4,6.4v12.3c0,2.5,2.1,4.6,4.6,4.6H109V120.5z M125.4,65.4
			c0,1.7-1.4,3.1-3.1,3.1h-57c-1.7,0-3.1-1.4-3.1-3.1v-13l-5.8-5.8l5.8-5.8v-3.5c0-1.7,1.4-3.1,3.1-3.1h57c1.7,0,3.1,1.4,3.1,3.1
			V65.4z"/>
		<path fill="#FF7058" d="M98.1,102.8H83.9c-1.9,0-3.4-1.5-3.4-3.4V85.1c0-1.9,1.5-3.4,3.4-3.4h14.2c1.9,0,3.4,1.5,3.4,3.4v14.2
			C101.5,101.2,100,102.8,98.1,102.8z"/>
		<circle fill="#FFFFFF" cx="90.8" cy="88.7" r="3.2"/>
		<path fill="#231F20" d="M90.8,92.7c-2.2,0-4-1.8-4-4c0-2.2,1.8-4,4-4c2.2,0,4,1.8,4,4C94.8,90.9,93,92.7,90.8,92.7z M90.8,86.3
			c-1.4,0-2.5,1.1-2.5,2.5c0,1.4,1.1,2.5,2.5,2.5s2.5-1.1,2.5-2.5C93.3,87.4,92.2,86.3,90.8,86.3z"/>
		<path fill="#FFFFFF" d="M97.4,99c-0.9-2.7-3.4-4.7-6.4-4.7s-5.5,2-6.4,4.7H97.4z"/>
		<path fill="#231F20" d="M97.4,99.7H84.6c-0.2,0-0.5-0.1-0.6-0.3c-0.1-0.2-0.2-0.4-0.1-0.7c1-3.1,3.8-5.2,7.1-5.2
			c3.3,0,6.1,2.1,7.1,5.2c0.1,0.2,0,0.5-0.1,0.7C97.9,99.6,97.6,99.7,97.4,99.7z M85.7,98.2h10.5c-1-1.9-3-3.2-5.3-3.2
			C88.8,95,86.7,96.3,85.7,98.2z"/>
		<line fill="#FFFFFF" x1="71.1" y1="43.9" x2="116.5" y2="43.9"/>
		<rect x="71.1" y="43.1" fill="#231F20" width="45.3" height="1.5"/>
		<line fill="#FFFFFF" x1="71.1" y1="48.9" x2="116.5" y2="48.9"/>
		<rect x="71.1" y="48.1" fill="#231F20" width="45.3" height="1.5"/>
		<line fill="#FFFFFF" x1="71.1" y1="53.9" x2="116.5" y2="53.9"/>
		<rect x="71.1" y="53.2" fill="#231F20" width="45.3" height="1.5"/>
		<line fill="#FFFFFF" x1="71.1" y1="58.9" x2="97.7" y2="58.9"/>
		<rect x="71.1" y="58.2" fill="#231F20" width="26.6" height="1.5"/>
		<line fill="#FFFFFF" x1="15.7" y1="86.5" x2="61" y2="86.5"/>
		<rect x="15.7" y="85.8" fill="#231F20" width="45.3" height="1.5"/>
		<line fill="#FFFFFF" x1="15.7" y1="91.5" x2="61" y2="91.5"/>
		<rect x="15.7" y="90.8" fill="#231F20" width="45.3" height="1.5"/>
		<line fill="#FFFFFF" x1="15.7" y1="96.5" x2="61" y2="96.5"/>
		<rect x="15.7" y="95.8" fill="#231F20" width="45.3" height="1.5"/>
		<line fill="#FFFFFF" x1="15.7" y1="101.5" x2="42.2" y2="101.5"/>
		<rect x="15.7" y="100.8" fill="#231F20" width="26.6" height="1.5"/>
		<path fill="#231F20" d="M124.9,2.8c-0.2,0-0.4-0.1-0.5-0.2c-0.3-0.3-0.3-0.8,0-1.1l1.3-1.3c0.3-0.3,0.8-0.3,1.1,0
			c0.3,0.3,0.3,0.8,0,1.1l-1.3,1.3C125.3,2.7,125.1,2.8,124.9,2.8z"/>
		<path fill="#231F20" d="M120.8,6.9c-0.2,0-0.4-0.1-0.5-0.2c-0.3-0.3-0.3-0.8,0-1.1l1.3-1.3c0.3-0.3,0.8-0.3,1.1,0
			c0.3,0.3,0.3,0.8,0,1.1l-1.3,1.3C121.2,6.8,121,6.9,120.8,6.9z"/>
		<path fill="#231F20" d="M126.2,6.9c-0.2,0-0.4-0.1-0.5-0.2l-1.3-1.3c-0.3-0.3-0.3-0.8,0-1.1c0.3-0.3,0.8-0.3,1.1,0l1.3,1.3
			c0.3,0.3,0.3,0.8,0,1.1C126.6,6.8,126.4,6.9,126.2,6.9z"/>
		<path fill="#231F20" d="M122.1,2.8c-0.2,0-0.4-0.1-0.5-0.2l-1.3-1.3c-0.3-0.3-0.3-0.8,0-1.1c0.3-0.3,0.8-0.3,1.1,0l1.3,1.3
			c0.3,0.3,0.3,0.8,0,1.1C122.5,2.7,122.3,2.8,122.1,2.8z"/>
		<path fill="#231F20" d="M7.4,37.9c-0.2,0-0.4-0.1-0.5-0.2c-0.3-0.3-0.3-0.8,0-1.1l1.3-1.3c0.3-0.3,0.8-0.3,1.1,0
			c0.3,0.3,0.3,0.8,0,1.1l-1.3,1.3C7.8,37.8,7.6,37.9,7.4,37.9z"/>
		<path fill="#231F20" d="M3.3,41.9c-0.2,0-0.4-0.1-0.5-0.2c-0.3-0.3-0.3-0.8,0-1.1l1.3-1.3c0.3-0.3,0.8-0.3,1.1,0
			c0.3,0.3,0.3,0.8,0,1.1l-1.3,1.3C3.7,41.9,3.5,41.9,3.3,41.9z"/>
		<path fill="#231F20" d="M8.7,41.9c-0.2,0-0.4-0.1-0.5-0.2l-1.3-1.3c-0.3-0.3-0.3-0.8,0-1.1c0.3-0.3,0.8-0.3,1.1,0l1.3,1.3
			c0.3,0.3,0.3,0.8,0,1.1C9.1,41.9,8.9,41.9,8.7,41.9z"/>
		<path fill="#231F20" d="M4.6,37.9c-0.2,0-0.4-0.1-0.5-0.2l-1.3-1.3c-0.3-0.3-0.3-0.8,0-1.1c0.3-0.3,0.8-0.3,1.1,0l1.3,1.3
			c0.3,0.3,0.3,0.8,0,1.1C5,37.8,4.8,37.9,4.6,37.9z"/>
		<path fill="#231F20" d="M123.5,93.7c-0.2,0-0.4-0.1-0.5-0.2c-0.3-0.3-0.3-0.8,0-1.1l1.3-1.3c0.3-0.3,0.8-0.3,1.1,0
			c0.3,0.3,0.3,0.8,0,1.1l-1.3,1.3C123.9,93.6,123.7,93.7,123.5,93.7z"/>
		<path fill="#231F20" d="M119.4,97.7c-0.2,0-0.4-0.1-0.5-0.2c-0.3-0.3-0.3-0.8,0-1.1l1.3-1.3c0.3-0.3,0.8-0.3,1.1,0
			c0.3,0.3,0.3,0.8,0,1.1l-1.3,1.3C119.8,97.6,119.6,97.7,119.4,97.7z"/>
		<path fill="#231F20" d="M124.8,97.7c-0.2,0-0.4-0.1-0.5-0.2l-1.3-1.3c-0.3-0.3-0.3-0.8,0-1.1c0.3-0.3,0.8-0.3,1.1,0l1.3,1.3
			c0.3,0.3,0.3,0.8,0,1.1C125.2,97.6,125,97.7,124.8,97.7z"/>
		<path fill="#231F20" d="M120.7,93.7c-0.2,0-0.4-0.1-0.5-0.2l-1.3-1.3c-0.3-0.3-0.3-0.8,0-1.1c0.3-0.3,0.8-0.3,1.1,0l1.3,1.3
			c0.3,0.3,0.3,0.8,0,1.1C121.1,93.6,120.9,93.7,120.7,93.7z"/>
		<circle fill="#FFD05B" cx="123.5" cy="20.5" r="2.2"/>
		<circle fill="#FFD05B" cx="13" cy="60.4" r="2.2"/>
		<circle fill="#E6E9EE" cx="120.8" cy="127.3" r="2.2"/>
		<circle fill="#FF7058" cx="10.8" cy="21" r="2.2"/>
	</g>
</g>
</svg>
