<?xml version="1.0" encoding="utf-8"?>
<!-- Generator: Adobe Illustrator 18.0.0, SVG Export Plug-In . SVG Version: 6.00 Build 0)  -->
<!DOCTYPE svg PUBLIC "-//W3C//DTD SVG 1.1//EN" "http://www.w3.org/Graphics/SVG/1.1/DTD/svg11.dtd">
<svg version="1.1" id="Layer_1" xmlns="http://www.w3.org/2000/svg" xmlns:xlink="http://www.w3.org/1999/xlink" x="0px" y="0px"
	 viewBox="0 0 129.5 129.5" enable-background="new 0 0 129.5 129.5" xml:space="preserve">
<g>
	<g>
		<g>
			<circle fill="#E6E9EE" cx="7.9" cy="6.3" r="2.5"/>
		</g>
		<g>
			<circle fill="#FFD05B" cx="124.6" cy="22.1" r="2.5"/>
		</g>
		<g>
			<circle fill="#FF7058" cx="118.3" cy="119" r="2.5"/>
		</g>
		<g>
			<circle fill="#54C0EB" cx="22.8" cy="92" r="2.5"/>
		</g>
		<g>
			<rect x="39.1" y="39.6" fill="#84DBFF" width="51.3" height="10.5"/>
		</g>
		<g>
			<rect x="39.1" y="59.5" fill="#FFD05B" width="51.3" height="10.5"/>
		</g>
		<g>
			<rect x="39.1" y="79.5" fill="#E6E9EE" width="51.3" height="10.5"/>
		</g>
		<g>
			<g>
				<circle fill="#FFFFFF" cx="85.8" cy="44.8" r="2.3"/>
				<path fill="#231F20" d="M85.8,47.8c-1.7,0-3-1.4-3-3c0-1.7,1.4-3,3-3c1.7,0,3,1.4,3,3C88.9,46.5,87.5,47.8,85.8,47.8z
					 M85.8,43.3c-0.8,0-1.5,0.7-1.5,1.5c0,0.8,0.7,1.5,1.5,1.5c0.8,0,1.5-0.7,1.5-1.5C87.4,44,86.7,43.3,85.8,43.3z"/>
			</g>
			<g>
				<circle fill="#FFFFFF" cx="77.8" cy="44.8" r="2.3"/>
				<path fill="#231F20" d="M77.8,47.8c-1.7,0-3-1.4-3-3c0-1.7,1.4-3,3-3c1.7,0,3,1.4,3,3C80.8,46.5,79.4,47.8,77.8,47.8z
					 M77.8,43.3c-0.8,0-1.5,0.7-1.5,1.5c0,0.8,0.7,1.5,1.5,1.5c0.8,0,1.5-0.7,1.5-1.5C79.3,44,78.6,43.3,77.8,43.3z"/>
			</g>
			<g>
				<circle fill="#FFFFFF" cx="69.7" cy="44.8" r="2.3"/>
				<path fill="#231F20" d="M69.7,47.8c-1.7,0-3-1.4-3-3c0-1.7,1.4-3,3-3c1.7,0,3,1.4,3,3C72.7,46.5,71.3,47.8,69.7,47.8z
					 M69.7,43.3c-0.8,0-1.5,0.7-1.5,1.5c0,0.8,0.7,1.5,1.5,1.5c0.8,0,1.5-0.7,1.5-1.5C71.2,44,70.5,43.3,69.7,43.3z"/>
			</g>
		</g>
		<g>
			<g>
				<circle fill="#FFFFFF" cx="85.8" cy="64.8" r="2.3"/>
				<path fill="#231F20" d="M85.8,67.8c-1.7,0-3-1.4-3-3c0-1.7,1.4-3,3-3c1.7,0,3,1.4,3,3C88.9,66.4,87.5,67.8,85.8,67.8z
					 M85.8,63.2c-0.8,0-1.5,0.7-1.5,1.5c0,0.8,0.7,1.5,1.5,1.5c0.8,0,1.5-0.7,1.5-1.5C87.4,63.9,86.7,63.2,85.8,63.2z"/>
			</g>
			<g>
				<circle fill="#FFFFFF" cx="77.8" cy="64.8" r="2.3"/>
				<path fill="#231F20" d="M77.8,67.8c-1.7,0-3-1.4-3-3c0-1.7,1.4-3,3-3c1.7,0,3,1.4,3,3C80.8,66.4,79.4,67.8,77.8,67.8z
					 M77.8,63.2c-0.8,0-1.5,0.7-1.5,1.5c0,0.8,0.7,1.5,1.5,1.5c0.8,0,1.5-0.7,1.5-1.5C79.3,63.9,78.6,63.2,77.8,63.2z"/>
			</g>
			<g>
				<circle fill="#FFFFFF" cx="69.7" cy="64.8" r="2.3"/>
				<path fill="#231F20" d="M69.7,67.8c-1.7,0-3-1.4-3-3c0-1.7,1.4-3,3-3c1.7,0,3,1.4,3,3C72.7,66.4,71.3,67.8,69.7,67.8z
					 M69.7,63.2c-0.8,0-1.5,0.7-1.5,1.5c0,0.8,0.7,1.5,1.5,1.5c0.8,0,1.5-0.7,1.5-1.5C71.2,63.9,70.5,63.2,69.7,63.2z"/>
			</g>
		</g>
		<g>
			<g>
				<circle fill="#FFFFFF" cx="85.8" cy="84.7" r="2.3"/>
				<path fill="#231F20" d="M85.8,87.7c-1.7,0-3-1.4-3-3c0-1.7,1.4-3,3-3c1.7,0,3,1.4,3,3C88.9,86.4,87.5,87.7,85.8,87.7z
					 M85.8,83.2c-0.8,0-1.5,0.7-1.5,1.5c0,0.8,0.7,1.5,1.5,1.5c0.8,0,1.5-0.7,1.5-1.5C87.4,83.9,86.7,83.2,85.8,83.2z"/>
			</g>
			<g>
				<circle fill="#FFFFFF" cx="77.8" cy="84.7" r="2.3"/>
				<path fill="#231F20" d="M77.8,87.7c-1.7,0-3-1.4-3-3c0-1.7,1.4-3,3-3c1.7,0,3,1.4,3,3C80.8,86.4,79.4,87.7,77.8,87.7z
					 M77.8,83.2c-0.8,0-1.5,0.7-1.5,1.5c0,0.8,0.7,1.5,1.5,1.5c0.8,0,1.5-0.7,1.5-1.5C79.3,83.9,78.6,83.2,77.8,83.2z"/>
			</g>
			<g>
				<circle fill="#FFFFFF" cx="69.7" cy="84.7" r="2.3"/>
				<path fill="#231F20" d="M69.7,87.7c-1.7,0-3-1.4-3-3c0-1.7,1.4-3,3-3c1.7,0,3,1.4,3,3C72.7,86.4,71.3,87.7,69.7,87.7z
					 M69.7,83.2c-0.8,0-1.5,0.7-1.5,1.5c0,0.8,0.7,1.5,1.5,1.5c0.8,0,1.5-0.7,1.5-1.5C71.2,83.9,70.5,83.2,69.7,83.2z"/>
			</g>
		</g>
		<g>
			<g>
				<rect x="43.5" y="41.9" fill="#231F20" width="1.5" height="4.8"/>
			</g>
			<g>
				<rect x="47.3" y="41.9" fill="#231F20" width="1.5" height="4.8"/>
			</g>
			<g>
				<rect x="51.2" y="41.9" fill="#231F20" width="1.5" height="4.8"/>
			</g>
			<g>
				<rect x="55.1" y="41.9" fill="#231F20" width="1.5" height="4.8"/>
			</g>
		</g>
		<g>
			<g>
				<rect x="43.5" y="62.4" fill="#231F20" width="1.5" height="4.8"/>
			</g>
			<g>
				<rect x="47.3" y="62.4" fill="#231F20" width="1.5" height="4.8"/>
			</g>
			<g>
				<rect x="51.2" y="62.4" fill="#231F20" width="1.5" height="4.8"/>
			</g>
			<g>
				<rect x="55.1" y="62.4" fill="#231F20" width="1.5" height="4.8"/>
			</g>
		</g>
		<g>
			<g>
				<rect x="43.5" y="82.8" fill="#231F20" width="1.5" height="4.8"/>
			</g>
			<g>
				<rect x="47.3" y="82.8" fill="#231F20" width="1.5" height="4.8"/>
			</g>
			<g>
				<rect x="51.2" y="82.8" fill="#231F20" width="1.5" height="4.8"/>
			</g>
			<g>
				<rect x="55.1" y="82.8" fill="#231F20" width="1.5" height="4.8"/>
			</g>
		</g>
		<g>
			<path fill="#231F20" d="M24.2,20.8l-1-1.1c0.2-0.2,0.5-0.5,0.7-0.7l1,1.1C24.7,20.4,24.4,20.6,24.2,20.8z M26.4,18.9l-1-1.2
				c0.3-0.2,0.5-0.4,0.8-0.6l0.9,1.2C26.9,18.4,26.7,18.7,26.4,18.9z M28.7,17l-0.9-1.2c0.3-0.2,0.5-0.4,0.8-0.6l0.9,1.2
				C29.3,16.6,29,16.8,28.7,17z M31.1,15.3l-0.8-1.2c0.3-0.2,0.6-0.4,0.8-0.6l0.8,1.3C31.7,14.9,31.4,15.1,31.1,15.3z M33.6,13.7
				l-0.8-1.3c0.3-0.2,0.6-0.3,0.9-0.5l0.8,1.3C34.2,13.3,33.9,13.5,33.6,13.7z M36.2,12.2l-0.7-1.3c0.3-0.2,0.6-0.3,0.9-0.5l0.7,1.3
				C36.8,11.9,36.5,12.1,36.2,12.2z M38.8,10.9l-0.7-1.4c0.3-0.1,0.6-0.3,0.9-0.4l0.6,1.4C39.4,10.6,39.1,10.7,38.8,10.9z M41.5,9.6
				l-0.6-1.4c0.3-0.1,0.6-0.3,0.9-0.4l0.6,1.4C42.1,9.4,41.8,9.5,41.5,9.6z M44.3,8.6l-0.5-1.4c0.3-0.1,0.6-0.2,1-0.3l0.5,1.4
				C44.9,8.3,44.6,8.4,44.3,8.6z M47.1,7.6l-0.4-1.4c0.3-0.1,0.6-0.2,1-0.3L48,7.3C47.7,7.4,47.4,7.5,47.1,7.6z M49.9,6.8l-0.4-1.5
				c0.3-0.1,0.7-0.2,1-0.2l0.3,1.5C50.6,6.6,50.3,6.7,49.9,6.8z M52.8,6.1l-0.3-1.5c0.3-0.1,0.7-0.1,1-0.2L53.8,6
				C53.5,6,53.2,6.1,52.8,6.1z M55.7,5.6l-0.2-1.5l0.2,0l0.2,1.5L55.7,5.6z"/>
		</g>
		<path fill="#FFFFFF" d="M4.9,55.8c2.6-3.9,6.6-8.6,10.3-11.2l-7.8,0.9l-6.6-4.3C2.8,45.2,4.3,51.1,4.9,55.8z"/>
		<path fill="#231F20" d="M24.2,20.8l-1-1.1C15.8,26.5,10.3,35,7,44.4l-5.8-3.8c-0.3-0.2-0.7-0.2-0.9,0.1c-0.3,0.2-0.3,0.6-0.2,0.9
			c2.2,4.2,3.5,10.3,4,14.4c0,0.3,0.3,0.6,0.6,0.6c0.1,0,0.1,0,0.2,0c0.2,0,0.5-0.1,0.6-0.3c2.2-3.4,6.2-8.3,10.1-11
			c0.3-0.2,0.4-0.6,0.3-0.9c-0.1-0.3-0.5-0.5-0.8-0.5l-6.6,0.7C11.7,35.6,17.1,27.4,24.2,20.8z M5.3,53.8c-0.5-3.3-1.5-7.2-2.8-10.6
			l4.4,2.9c0.1,0.1,0.3,0.1,0.5,0.1l5.2-0.6C9.9,48,7.3,51.1,5.3,53.8z"/>
		<g>
			<path fill="#231F20" d="M123.8,55.2c-0.1-0.3-0.1-0.7-0.2-1l1.5-0.3c0.1,0.3,0.1,0.7,0.2,1L123.8,55.2z M123.2,52.3
				c-0.1-0.3-0.1-0.6-0.2-1l1.5-0.3c0.1,0.3,0.1,0.7,0.2,1L123.2,52.3z M122.5,49.4c-0.1-0.3-0.2-0.6-0.3-1l1.4-0.4
				c0.1,0.3,0.2,0.6,0.3,1L122.5,49.4z M121.7,46.5c-0.1-0.3-0.2-0.6-0.3-0.9l1.4-0.5c0.1,0.3,0.2,0.6,0.3,1L121.7,46.5z
				 M120.7,43.8c-0.1-0.3-0.2-0.6-0.4-0.9l1.4-0.5c0.1,0.3,0.2,0.6,0.4,0.9L120.7,43.8z M119.6,41c-0.1-0.3-0.3-0.6-0.4-0.9l1.4-0.6
				c0.1,0.3,0.3,0.6,0.4,0.9L119.6,41z M118.4,38.3c-0.1-0.3-0.3-0.6-0.4-0.9l1.3-0.7c0.2,0.3,0.3,0.6,0.5,0.9L118.4,38.3z
				 M117,35.7c-0.2-0.3-0.3-0.6-0.5-0.9l1.3-0.8c0.2,0.3,0.3,0.6,0.5,0.9L117,35.7z M115.5,33.1c-0.2-0.3-0.4-0.6-0.5-0.8l1.3-0.8
				c0.2,0.3,0.4,0.6,0.5,0.9L115.5,33.1z M113.9,30.7c-0.2-0.3-0.4-0.5-0.6-0.8l1.2-0.9c0.2,0.3,0.4,0.5,0.6,0.8L113.9,30.7z
				 M112.1,28.3c-0.2-0.3-0.4-0.5-0.6-0.8l1.2-0.9c0.2,0.3,0.4,0.5,0.6,0.8L112.1,28.3z"/>
		</g>
		<path fill="#FFFFFF" d="M73.7,4.9c3.9,2.6,8.6,6.6,11.2,10.3L84,7.3l4.3-6.6C84.3,2.8,78.4,4.3,73.7,4.9z"/>
		<path fill="#231F20" d="M85.1,7l3.8-5.8c0.2-0.3,0.2-0.7-0.1-0.9C88.6,0,88.3-0.1,88,0.1c-4.2,2.2-10.3,3.5-14.4,4
			c-0.3,0-0.6,0.3-0.6,0.6C72.9,5,73,5.3,73.3,5.5c3.4,2.2,8.3,6.2,11,10.1c0.1,0.2,0.4,0.3,0.6,0.3c0.1,0,0.2,0,0.3,0
			c0.3-0.1,0.5-0.4,0.5-0.8l-0.8-6.6c10.5,3.7,19.6,10.3,26.6,19.1l1.2-0.9C105.5,17.5,96,10.8,85.1,7z M75.7,5.3
			c3.3-0.5,7.2-1.5,10.6-2.8l-2.9,4.4c-0.1,0.1-0.1,0.3-0.1,0.5l0.6,5.2C81.5,9.9,78.4,7.3,75.7,5.3z"/>
		<g>
			<path fill="#231F20" d="M19.2,105.8c-0.2-0.3-0.4-0.5-0.7-0.8l1.1-1c0.2,0.2,0.4,0.5,0.7,0.7L19.2,105.8z M17.3,103.5
				c-0.2-0.3-0.4-0.5-0.6-0.8l1.2-0.9c0.2,0.3,0.4,0.5,0.6,0.8L17.3,103.5z M15.4,101.1c-0.2-0.3-0.4-0.5-0.6-0.8l1.2-0.9
				c0.2,0.3,0.4,0.5,0.6,0.8L15.4,101.1z M13.7,98.6c-0.2-0.3-0.4-0.6-0.6-0.8l1.3-0.8c0.2,0.3,0.4,0.6,0.5,0.8L13.7,98.6z M12,96
				c-0.2-0.3-0.3-0.6-0.5-0.9l1.3-0.7c0.2,0.3,0.3,0.6,0.5,0.9L12,96z M10.6,93.4c-0.2-0.3-0.3-0.6-0.5-0.9l1.3-0.7
				c0.1,0.3,0.3,0.6,0.5,0.9L10.6,93.4z M9.2,90.7c-0.1-0.3-0.3-0.6-0.4-0.9l1.4-0.6c0.1,0.3,0.3,0.6,0.4,0.9L9.2,90.7z M8,87.9
				c-0.1-0.3-0.3-0.6-0.4-0.9L9,86.4c0.1,0.3,0.2,0.6,0.4,0.9L8,87.9z M6.9,85.1c-0.1-0.3-0.2-0.6-0.3-1L8,83.6
				c0.1,0.3,0.2,0.6,0.3,0.9L6.9,85.1z M6,82.2c-0.1-0.3-0.2-0.6-0.3-1l1.4-0.4c0.1,0.3,0.2,0.6,0.3,0.9L6,82.2z M5.2,79.2
				c-0.1-0.3-0.2-0.7-0.2-1l1.5-0.3c0.1,0.3,0.1,0.6,0.2,1L5.2,79.2z M4.5,76.3c-0.1-0.3-0.1-0.7-0.2-1L5.8,75C5.9,75.3,6,75.7,6,76
				L4.5,76.3z"/>
		</g>
		<path fill="#FFFFFF" d="M55.8,124.6c-3.9-2.6-8.6-6.6-11.2-10.3l0.9,7.8l-4.3,6.6C45.2,126.7,51.1,125.2,55.8,124.6z"/>
		<path fill="#231F20" d="M56.2,124c-3.4-2.2-8.3-6.2-11-10.1c-0.2-0.3-0.6-0.4-0.9-0.3c-0.3,0.1-0.5,0.4-0.5,0.8l0.8,6.6
			c-9.3-3.3-17.6-8.9-24.3-16.3l-1.1,1c6.9,7.6,15.5,13.4,25.1,16.7l-3.8,5.8c-0.2,0.3-0.2,0.7,0.1,0.9c0.1,0.2,0.3,0.2,0.6,0.2
			c0.1,0,0.2,0,0.3-0.1c4.2-2.2,10.3-3.5,14.4-4c0.3,0,0.6-0.3,0.6-0.6C56.6,124.5,56.5,124.2,56.2,124z M43.3,127l2.9-4.4
			c0.1-0.1,0.1-0.3,0.1-0.5l-0.6-5.2c2.4,2.7,5.5,5.3,8.2,7.3C50.5,124.7,46.6,125.6,43.3,127z"/>
		<g>
			<path fill="#231F20" d="M74.4,125.3l-0.2-1.5c0.3-0.1,0.6-0.1,1-0.2l0.3,1.5C75.1,125.2,74.8,125.2,74.4,125.3z M77.4,124.7
				l-0.3-1.5c0.3-0.1,0.6-0.1,1-0.2l0.3,1.5C78.1,124.6,77.8,124.7,77.4,124.7z M80.4,124l-0.4-1.5c0.3-0.1,0.6-0.2,1-0.3l0.4,1.4
				C81,123.9,80.7,123.9,80.4,124z M83.3,123.2l-0.5-1.4c0.3-0.1,0.6-0.2,0.9-0.3l0.5,1.4C83.9,123,83.6,123.1,83.3,123.2z
				 M86.2,122.2l-0.5-1.4c0.3-0.1,0.6-0.2,0.9-0.4l0.5,1.4C86.8,122,86.5,122.1,86.2,122.2z M89,121.1l-0.6-1.4
				c0.3-0.1,0.6-0.3,0.9-0.4l0.6,1.4C89.6,120.8,89.3,120.9,89,121.1z M91.7,119.8l-0.7-1.3c0.3-0.1,0.6-0.3,0.9-0.4l0.7,1.3
				C92.3,119.5,92,119.6,91.7,119.8z M94.4,118.4l-0.7-1.3c0.3-0.2,0.6-0.3,0.9-0.5l0.8,1.3C95,118.1,94.7,118.2,94.4,118.4z
				 M97,116.8l-0.8-1.3c0.3-0.2,0.6-0.3,0.8-0.5l0.8,1.3C97.6,116.5,97.3,116.7,97,116.8z M99.6,115.2l-0.9-1.2
				c0.3-0.2,0.5-0.4,0.8-0.6l0.9,1.2C100.1,114.8,99.9,115,99.6,115.2z M102,113.4l-0.9-1.2c0.3-0.2,0.5-0.4,0.8-0.6l0.9,1.2
				C102.6,113,102.3,113.2,102,113.4z M104.4,111.5l-1-1.1c0.3-0.2,0.5-0.4,0.7-0.6l1,1.1C104.9,111,104.7,111.3,104.4,111.5z
				 M106.7,109.5l-1-1.1c0.2-0.2,0.5-0.5,0.7-0.7l1,1.1C107.2,109,106.9,109.2,106.7,109.5z"/>
		</g>
		<path fill="#FFFFFF" d="M124.6,73.7c-2.6,3.9-6.6,8.6-10.3,11.2l7.8-0.9l6.6,4.3C126.7,84.3,125.2,78.4,124.6,73.7z"/>
		<path fill="#231F20" d="M129.4,88c-2.2-4.2-3.5-10.3-4-14.4c0-0.3-0.3-0.6-0.6-0.6c-0.3-0.1-0.6,0.1-0.8,0.3
			c-2.2,3.4-6.2,8.3-10.1,11c-0.3,0.2-0.4,0.6-0.3,0.9c0.1,0.3,0.4,0.5,0.8,0.5l6.5-0.7c-3.1,8.6-8.1,16.4-14.7,22.8l1,1.1
			c6.8-6.6,12-14.7,15.1-23.6l5.8,3.8c0.1,0.1,0.3,0.1,0.4,0.1c0.2,0,0.4-0.1,0.5-0.2C129.5,88.6,129.6,88.3,129.4,88z M122.6,83.4
			c-0.1-0.1-0.3-0.1-0.4-0.1c0,0-0.1,0-0.1,0l-5.2,0.6c2.7-2.4,5.3-5.5,7.3-8.2c0.5,3.3,1.5,7.2,2.8,10.6L122.6,83.4z"/>
		<g>
			<g>
				<path fill="#231F20" d="M78.2,23.8c-0.2,0-0.4-0.1-0.5-0.2c-7.1-7.1-18.7-7.1-25.8,0l-1.1-1.1c7.7-7.7,20.3-7.7,28,0
					c0.3,0.3,0.3,0.8,0,1.1C78.6,23.7,78.4,23.8,78.2,23.8z"/>
			</g>
			<g>
				<path fill="#231F20" d="M74.4,26.8c-2.6-2.6-6-4-9.7-4c-3.6,0-7.1,1.4-9.7,4L54,25.8c2.9-2.9,6.7-4.4,10.7-4.4h0
					c4,0,7.9,1.6,10.7,4.4L74.4,26.8z"/>
			</g>
			<g>
				<path fill="#231F20" d="M70.6,30.6c-3.2-3.2-8.5-3.2-11.7,0l-1.1-1.1c3.8-3.8,10-3.8,13.9,0L70.6,30.6z"/>
			</g>
		</g>
		<g>
			<g>
				<g>
					<path fill="#231F20" d="M112.5,58.6h-1v-1.5h1V58.6z M109.5,58.6h-1v-1.5h1V58.6z M106.5,58.6h-1v-1.5h1V58.6z M103.5,58.6h-1
						v-1.5h1V58.6z M100.5,58.6h-1v-1.5h1V58.6z M97.5,58.6h-1v-1.5h1V58.6z"/>
				</g>
				<g>
					<g>
						<path fill="#231F20" d="M117,77.3c-0.1,0-0.2,0-0.3-0.1c-0.3-0.1-0.5-0.4-0.5-0.7v-4.2H96v-1.5h21c0.4,0,0.8,0.3,0.8,0.8v3.1
							l10-10l-10-10v3.1c0,0.4-0.3,0.8-0.8,0.8h-4.4v-1.5h3.7V53c0-0.3,0.2-0.6,0.5-0.7c0.3-0.1,0.6-0.1,0.8,0.2l11.8,11.8
							c0.3,0.3,0.3,0.8,0,1.1L117.5,77C117.4,77.2,117.2,77.3,117,77.3z"/>
					</g>
					<g>
						<rect x="95.6" y="64" fill="#231F20" width="2.2" height="1.5"/>
					</g>
					<g>
						<rect x="100.3" y="64" fill="#231F20" width="1.2" height="1.5"/>
					</g>
					<g>
						<rect x="104" y="64" fill="#231F20" width="5.4" height="1.5"/>
					</g>
				</g>
			</g>
			<g>
				<g>
					<path fill="#231F20" d="M33,72.4h-1v-1.5h1V72.4z M30,72.4h-1v-1.5h1V72.4z M27,72.4h-1v-1.5h1V72.4z M24,72.4h-1v-1.5h1V72.4z
						 M21,72.4h-1v-1.5h1V72.4z M18,72.4h-1v-1.5h1V72.4z"/>
				</g>
				<g>
					<g>
						<path fill="#231F20" d="M12.5,77.3c-0.2,0-0.4-0.1-0.5-0.2L0.2,65.3C0,65,0,64.5,0.2,64.2L12,52.5c0.2-0.2,0.5-0.3,0.8-0.2
							c0.3,0.1,0.5,0.4,0.5,0.7v4.2l20.2,0v1.5l-21,0c-0.4,0-0.8-0.3-0.8-0.8v-3.1l-10,10l10,10v-3.1c0-0.4,0.3-0.8,0.8-0.8H17v1.5
							h-3.7v4.2c0,0.3-0.2,0.6-0.5,0.7C12.7,77.2,12.6,77.3,12.5,77.3z"/>
					</g>
					<g>
						<rect x="31.8" y="64" fill="#231F20" width="2.2" height="1.5"/>
					</g>
					<g>
						<rect x="28" y="64" fill="#231F20" width="1.2" height="1.5"/>
					</g>
					<g>
						<rect x="20.2" y="64" fill="#231F20" width="5.4" height="1.5"/>
					</g>
				</g>
			</g>
		</g>
		<path fill="#231F20" d="M92.5,52.9c0.4,0,0.8-0.3,0.8-0.8V37.5c0-0.4-0.3-0.8-0.8-0.8H37.1c-0.4,0-0.8,0.3-0.8,0.8v14.6
			c0,0.4,0.3,0.8,0.8,0.8h6.4v3.8h-6.4c-0.4,0-0.8,0.3-0.8,0.8v14.6c0,0.4,0.3,0.8,0.8,0.8h6.4v3.8h-6.4c-0.4,0-0.8,0.3-0.8,0.8V92
			c0,0.4,0.3,0.8,0.8,0.8h27v5.8H48.2c-0.4,0-0.8,0.3-0.8,0.8v1.2c-1.4,0.3-2.4,1.5-2.4,3c0,1.7,1.4,3,3,3c1.7,0,3-1.4,3-3
			c0-1.4-0.9-2.5-2.2-2.9V100h31.6v0.5c-1.3,0.3-2.3,1.5-2.3,2.9c0,1.7,1.4,3,3,3c1.7,0,3-1.4,3-3c0-1.4-1-2.6-2.3-2.9v-1.2
			c0-0.4-0.3-0.8-0.8-0.8H65.5v-5.8h27c0.4,0,0.8-0.3,0.8-0.8V77.4c0-0.4-0.3-0.8-0.8-0.8H86v-3.8h6.4c0.4,0,0.8-0.3,0.8-0.8V57.5
			c0-0.4-0.3-0.8-0.8-0.8H86v-3.8H92.5z M49.6,103.4c0,0.8-0.7,1.5-1.5,1.5c-0.8,0-1.5-0.7-1.5-1.5c0-0.8,0.7-1.5,1.5-1.5
			C48.9,101.9,49.6,102.6,49.6,103.4z M82.8,103.4c0,0.8-0.7,1.5-1.5,1.5c-0.8,0-1.5-0.7-1.5-1.5c0-0.8,0.7-1.5,1.5-1.5
			C82.2,101.9,82.8,102.6,82.8,103.4z M37.8,51.4V38.3h53.9v13.1H37.8z M91.7,78.1v13.1H37.8V78.1H91.7z M84.5,76.6H45v-3.8h39.5
			V76.6z M91.7,71.3H37.8V58.2h53.9V71.3z M45,56.7v-3.8h39.5v3.8H45z"/>
		<g>
			<g>
				<g>
					<line fill="#FFFFFF" x1="6.5" y1="120.9" x2="15.5" y2="120.9"/>
					<path fill="#231F20" d="M15.5,121.7h-9c-0.4,0-0.8-0.3-0.8-0.8c0-0.4,0.3-0.8,0.8-0.8h9c0.4,0,0.8,0.3,0.8,0.8
						C16.2,121.3,15.9,121.7,15.5,121.7z"/>
				</g>
				<g>
					<line fill="#FFFFFF" x1="14.6" y1="124.2" x2="19" y2="124.2"/>
					<path fill="#231F20" d="M19,124.9h-4.4c-0.4,0-0.8-0.3-0.8-0.8c0-0.4,0.3-0.8,0.8-0.8H19c0.4,0,0.8,0.3,0.8,0.8
						C19.8,124.6,19.4,124.9,19,124.9z"/>
				</g>
				<g>
					<line fill="#FFFFFF" x1="19.6" y1="120.9" x2="23.8" y2="120.9"/>
					<path fill="#231F20" d="M23.8,121.7h-4.2c-0.4,0-0.8-0.3-0.8-0.8c0-0.4,0.3-0.8,0.8-0.8h4.2c0.4,0,0.8,0.3,0.8,0.8
						C24.5,121.3,24.2,121.7,23.8,121.7z"/>
				</g>
				<g>
					<line fill="#FFFFFF" x1="10.5" y1="124.2" x2="11.4" y2="124.2"/>
					<path fill="#231F20" d="M11.4,124.9h-0.9c-0.4,0-0.8-0.3-0.8-0.8c0-0.4,0.3-0.8,0.8-0.8h0.9c0.4,0,0.8,0.3,0.8,0.8
						C12.2,124.6,11.8,124.9,11.4,124.9z"/>
				</g>
			</g>
		</g>
		<g>
			<g>
				<g>
					<line fill="#FFFFFF" x1="105.7" y1="6.3" x2="114.7" y2="6.3"/>
					<path fill="#231F20" d="M114.7,7h-9c-0.4,0-0.8-0.3-0.8-0.8c0-0.4,0.3-0.8,0.8-0.8h9c0.4,0,0.8,0.3,0.8,0.8
						C115.5,6.7,115.2,7,114.7,7z"/>
				</g>
				<g>
					<line fill="#FFFFFF" x1="113.9" y1="9.6" x2="118.3" y2="9.6"/>
					<path fill="#231F20" d="M118.3,10.3h-4.4c-0.4,0-0.8-0.3-0.8-0.8s0.3-0.8,0.8-0.8h4.4c0.4,0,0.8,0.3,0.8,0.8
						S118.7,10.3,118.3,10.3z"/>
				</g>
				<g>
					<line fill="#FFFFFF" x1="118.8" y1="6.3" x2="123" y2="6.3"/>
					<path fill="#231F20" d="M123,7h-4.2c-0.4,0-0.8-0.3-0.8-0.8c0-0.4,0.3-0.8,0.8-0.8h4.2c0.4,0,0.8,0.3,0.8,0.8
						C123.8,6.7,123.4,7,123,7z"/>
				</g>
				<g>
					<line fill="#FFFFFF" x1="109.8" y1="9.6" x2="110.7" y2="9.6"/>
					<path fill="#231F20" d="M110.7,10.3h-0.9c-0.4,0-0.8-0.3-0.8-0.8s0.3-0.8,0.8-0.8h0.9c0.4,0,0.8,0.3,0.8,0.8
						S111.1,10.3,110.7,10.3z"/>
				</g>
			</g>
		</g>
	</g>
</g>
</svg>
