<?xml version="1.0" encoding="utf-8"?>
<!-- Generator: Adobe Illustrator 18.0.0, SVG Export Plug-In . SVG Version: 6.00 Build 0)  -->
<!DOCTYPE svg PUBLIC "-//W3C//DTD SVG 1.1//EN" "http://www.w3.org/Graphics/SVG/1.1/DTD/svg11.dtd">
<svg version="1.1" id="Layer_1" xmlns="http://www.w3.org/2000/svg" xmlns:xlink="http://www.w3.org/1999/xlink" x="0px" y="0px"
	 viewBox="0 0 129.5 129.5" enable-background="new 0 0 129.5 129.5" xml:space="preserve">
<g>
	<g>
		<path fill="#231F20" d="M65.2,129.4l0-1.5c0.3,0,0.7,0,1,0l0,1.5C65.9,129.4,65.6,129.4,65.2,129.4z M63.2,129.4c-0.3,0-0.7,0-1,0
			l0.1-1.5c0.3,0,0.7,0,1,0L63.2,129.4z M68.3,129.3l-0.1-1.5c0.3,0,0.7,0,1-0.1l0.1,1.5C68.9,129.3,68.6,129.3,68.3,129.3z
			 M60.2,129.3c-0.3,0-0.7,0-1-0.1l0.1-1.5c0.3,0,0.7,0.1,1,0.1L60.2,129.3z M71.3,129.1l-0.2-1.5c0.3,0,0.7-0.1,1-0.1l0.2,1.5
			C71.9,129,71.6,129.1,71.3,129.1z M57.1,129c-0.3,0-0.7-0.1-1-0.1l0.2-1.5c0.3,0,0.7,0.1,1,0.1L57.1,129z M74.3,128.7l-0.2-1.5
			c0.3,0,0.7-0.1,1-0.2l0.2,1.5C75,128.6,74.6,128.7,74.3,128.7z M54.1,128.6c-0.3-0.1-0.7-0.1-1-0.2l0.3-1.5c0.3,0.1,0.6,0.1,1,0.2
			L54.1,128.6z M77.3,128.2l-0.3-1.5c0.3-0.1,0.6-0.1,1-0.2l0.3,1.5C77.9,128.1,77.6,128.1,77.3,128.2z M51.2,128
			c-0.3-0.1-0.7-0.1-1-0.2l0.3-1.5c0.3,0.1,0.6,0.1,1,0.2L51.2,128z M80.2,127.6l-0.4-1.5c0.3-0.1,0.6-0.2,1-0.2l0.4,1.5
			C80.9,127.4,80.6,127.5,80.2,127.6z M48.2,127.3c-0.3-0.1-0.7-0.2-1-0.3l0.4-1.4c0.3,0.1,0.6,0.2,1,0.3L48.2,127.3z M83.2,126.8
			l-0.4-1.4c0.3-0.1,0.6-0.2,0.9-0.3l0.4,1.4C83.8,126.6,83.5,126.7,83.2,126.8z M45.3,126.5c-0.3-0.1-0.6-0.2-1-0.3l0.5-1.4
			c0.3,0.1,0.6,0.2,0.9,0.3L45.3,126.5z M86.1,125.8l-0.5-1.4c0.3-0.1,0.6-0.2,0.9-0.3l0.5,1.4C86.7,125.6,86.4,125.7,86.1,125.8z
			 M42.4,125.5c-0.3-0.1-0.6-0.2-1-0.4l0.5-1.4c0.3,0.1,0.6,0.2,0.9,0.3L42.4,125.5z M88.9,124.8l-0.6-1.4c0.3-0.1,0.6-0.2,0.9-0.4
			l0.6,1.4C89.5,124.5,89.2,124.6,88.9,124.8z M39.6,124.4c-0.3-0.1-0.6-0.3-0.9-0.4l0.6-1.4c0.3,0.1,0.6,0.3,0.9,0.4L39.6,124.4z
			 M91.7,123.6l-0.6-1.4c0.3-0.1,0.6-0.3,0.9-0.4l0.6,1.4C92.3,123.3,92,123.4,91.7,123.6z M36.8,123.1c-0.3-0.1-0.6-0.3-0.9-0.4
			l0.7-1.3c0.3,0.1,0.6,0.3,0.9,0.4L36.8,123.1z M94.4,122.2l-0.7-1.3c0.3-0.2,0.6-0.3,0.9-0.5l0.7,1.3
			C95,121.9,94.7,122.1,94.4,122.2z M34.1,121.7c-0.3-0.2-0.6-0.3-0.9-0.5l0.7-1.3c0.3,0.2,0.6,0.3,0.9,0.5L34.1,121.7z M97,120.8
			l-0.8-1.3c0.3-0.2,0.6-0.3,0.8-0.5l0.8,1.3C97.6,120.4,97.3,120.6,97,120.8z M31.4,120.2c-0.3-0.2-0.6-0.4-0.9-0.5l0.8-1.3
			c0.3,0.2,0.6,0.3,0.8,0.5L31.4,120.2z M99.6,119.2l-0.8-1.3c0.3-0.2,0.6-0.4,0.8-0.5l0.8,1.2C100.2,118.8,99.9,119,99.6,119.2z
			 M28.9,118.6c-0.3-0.2-0.6-0.4-0.8-0.6l0.9-1.2c0.3,0.2,0.5,0.4,0.8,0.6L28.9,118.6z M102.1,117.5l-0.9-1.2
			c0.3-0.2,0.5-0.4,0.8-0.6l0.9,1.2C102.7,117.1,102.4,117.3,102.1,117.5z M26.4,116.9c-0.3-0.2-0.5-0.4-0.8-0.6l0.9-1.2
			c0.3,0.2,0.5,0.4,0.8,0.6L26.4,116.9z M104.6,115.7l-0.9-1.2c0.3-0.2,0.5-0.4,0.8-0.6l0.9,1.2
			C105.1,115.3,104.8,115.5,104.6,115.7z M24,115c-0.3-0.2-0.5-0.4-0.8-0.6l1-1.2c0.3,0.2,0.5,0.4,0.8,0.6L24,115z M106.9,113.8
			l-1-1.1c0.3-0.2,0.5-0.4,0.7-0.6l1,1.1C107.4,113.3,107.2,113.6,106.9,113.8z M21.7,113c-0.3-0.2-0.5-0.5-0.8-0.7l1-1.1
			c0.2,0.2,0.5,0.4,0.7,0.7L21.7,113z M109.2,111.7l-1-1.1c0.2-0.2,0.5-0.5,0.7-0.7l1,1.1C109.7,111.3,109.4,111.5,109.2,111.7z
			 M19.5,111c-0.2-0.2-0.5-0.5-0.7-0.7l1.1-1.1c0.2,0.2,0.5,0.5,0.7,0.7L19.5,111z M111.3,109.6l-1.1-1c0.2-0.2,0.5-0.5,0.7-0.7
			l1.1,1C111.8,109.1,111.6,109.4,111.3,109.6z M17.3,108.8c-0.2-0.2-0.5-0.5-0.7-0.7l1.1-1c0.2,0.2,0.4,0.5,0.7,0.7L17.3,108.8z
			 M113.4,107.4l-1.1-1c0.2-0.2,0.4-0.5,0.6-0.7l1.1,1C113.8,106.9,113.6,107.1,113.4,107.4z M15.3,106.5c-0.2-0.3-0.4-0.5-0.6-0.8
			l1.2-1c0.2,0.3,0.4,0.5,0.6,0.8L15.3,106.5z M115.3,105l-1.2-0.9c0.2-0.3,0.4-0.5,0.6-0.8l1.2,0.9
			C115.7,104.5,115.5,104.8,115.3,105z M13.4,104.2c-0.2-0.3-0.4-0.5-0.6-0.8l1.2-0.9c0.2,0.3,0.4,0.5,0.6,0.8L13.4,104.2z
			 M117.2,102.6l-1.2-0.9c0.2-0.3,0.4-0.5,0.6-0.8l1.2,0.9C117.6,102.1,117.4,102.4,117.2,102.6z M11.6,101.7
			c-0.2-0.3-0.4-0.6-0.6-0.8l1.2-0.8c0.2,0.3,0.4,0.5,0.6,0.8L11.6,101.7z M118.9,100.1l-1.3-0.8c0.2-0.3,0.4-0.6,0.5-0.8l1.3,0.8
			C119.3,99.6,119.1,99.8,118.9,100.1z M10,99.2c-0.2-0.3-0.4-0.6-0.5-0.9l1.3-0.8c0.2,0.3,0.3,0.6,0.5,0.8L10,99.2z M120.5,97.5
			l-1.3-0.8c0.2-0.3,0.3-0.6,0.5-0.9l1.3,0.7C120.8,97,120.7,97.3,120.5,97.5z M8.4,96.6c-0.2-0.3-0.3-0.6-0.5-0.9L9.2,95
			c0.2,0.3,0.3,0.6,0.5,0.9L8.4,96.6z M122,94.9l-1.3-0.7c0.2-0.3,0.3-0.6,0.5-0.9l1.3,0.7C122.3,94.3,122.1,94.6,122,94.9z M7,93.9
			c-0.2-0.3-0.3-0.6-0.4-0.9l1.3-0.7C8,92.7,8.2,93,8.3,93.3L7,93.9z M123.3,92.2l-1.4-0.6c0.1-0.3,0.3-0.6,0.4-0.9l1.4,0.6
			C123.6,91.6,123.5,91.9,123.3,92.2z M5.7,91.2c-0.1-0.3-0.3-0.6-0.4-0.9l1.4-0.6C6.8,90,6.9,90.3,7,90.6L5.7,91.2z M124.6,89.4
			l-1.4-0.6c0.1-0.3,0.2-0.6,0.4-0.9l1.4,0.5C124.8,88.8,124.7,89.1,124.6,89.4z M4.5,88.4c-0.1-0.3-0.2-0.6-0.4-0.9L5.5,87
			c0.1,0.3,0.2,0.6,0.4,0.9L4.5,88.4z M125.7,86.5l-1.4-0.5c0.1-0.3,0.2-0.6,0.3-0.9l1.4,0.5C125.9,85.9,125.8,86.2,125.7,86.5z
			 M3.4,85.6c-0.1-0.3-0.2-0.6-0.3-1l1.4-0.5c0.1,0.3,0.2,0.6,0.3,0.9L3.4,85.6z M126.6,83.7l-1.4-0.4c0.1-0.3,0.2-0.6,0.3-0.9
			l1.4,0.4C126.8,83,126.7,83.3,126.6,83.7z M2.5,82.7c-0.1-0.3-0.2-0.6-0.3-1l1.4-0.4c0.1,0.3,0.2,0.6,0.3,1L2.5,82.7z M127.4,80.7
			l-1.5-0.4c0.1-0.3,0.2-0.6,0.2-1l1.5,0.3C127.6,80.1,127.5,80.4,127.4,80.7z M1.8,79.8c-0.1-0.3-0.2-0.7-0.2-1L3,78.4
			c0.1,0.3,0.1,0.6,0.2,1L1.8,79.8z M128.1,77.8l-1.5-0.3c0.1-0.3,0.1-0.6,0.2-1l1.5,0.3C128.2,77.1,128.2,77.4,128.1,77.8z
			 M1.1,76.8c-0.1-0.3-0.1-0.7-0.2-1l1.5-0.3c0.1,0.3,0.1,0.6,0.2,1L1.1,76.8z M128.6,74.8l-1.5-0.2c0.1-0.3,0.1-0.7,0.1-1l1.5,0.2
			C128.7,74.1,128.7,74.5,128.6,74.8z M0.6,73.8c0-0.3-0.1-0.7-0.1-1L2,72.6c0,0.3,0.1,0.7,0.1,1L0.6,73.8z M129,71.8l-1.5-0.2
			c0-0.3,0.1-0.7,0.1-1l1.5,0.1C129.1,71.1,129.1,71.4,129,71.8z M0.3,70.8c0-0.3-0.1-0.7-0.1-1l1.5-0.1c0,0.3,0.1,0.7,0.1,1
			L0.3,70.8z M129.3,68.8l-1.5-0.1c0-0.3,0-0.7,0.1-1l1.5,0.1C129.3,68.1,129.3,68.4,129.3,68.8z M0.1,67.8c0-0.3,0-0.7,0-1l1.5,0
			c0,0.3,0,0.7,0,1L0.1,67.8z M129.4,65.7l-1.5,0c0-0.3,0-0.7,0-1c0-0.1,0-0.2,0-0.2l0.7,0.2h0.8l0,0
			C129.4,65.1,129.4,65.4,129.4,65.7z M0,64.7c0-0.3,0-0.7,0-1l1.5,0c0,0.3,0,0.7,0,1L0,64.7z M127.9,62.7c0-0.3,0-0.7,0-1l1.5-0.1
			c0,0.3,0,0.7,0,1L127.9,62.7z M1.6,61.8l-1.5-0.1c0-0.3,0-0.7,0.1-1l1.5,0.1C1.6,61.1,1.6,61.4,1.6,61.8z M127.7,59.8
			c0-0.3-0.1-0.7-0.1-1l1.5-0.1c0,0.3,0.1,0.7,0.1,1L127.7,59.8z M1.8,58.8l-1.5-0.1c0-0.3,0.1-0.7,0.1-1l1.5,0.2
			C1.8,58.1,1.8,58.5,1.8,58.8z M127.4,56.8c0-0.3-0.1-0.7-0.1-1l1.5-0.2c0,0.3,0.1,0.7,0.1,1L127.4,56.8z M2.1,55.9l-1.5-0.2
			c0-0.3,0.1-0.7,0.1-1l1.5,0.2C2.2,55.2,2.2,55.5,2.1,55.9z M127,53.9c-0.1-0.3-0.1-0.6-0.2-1l1.5-0.3c0.1,0.3,0.1,0.7,0.2,1
			L127,53.9z M2.6,52.9l-1.5-0.3c0.1-0.3,0.1-0.7,0.2-1L2.8,52C2.7,52.3,2.7,52.6,2.6,52.9z M126.4,51c-0.1-0.3-0.1-0.6-0.2-1
			l1.5-0.3c0.1,0.3,0.2,0.7,0.2,1L126.4,51z M3.2,50l-1.5-0.3c0.1-0.3,0.2-0.7,0.2-1l1.5,0.4C3.4,49.4,3.3,49.7,3.2,50z M125.7,48.1
			c-0.1-0.3-0.2-0.6-0.3-1l1.4-0.4c0.1,0.3,0.2,0.6,0.3,1L125.7,48.1z M4,47.2l-1.4-0.4c0.1-0.3,0.2-0.6,0.3-1l1.4,0.4
			C4.2,46.5,4.1,46.8,4,47.2z M124.9,45.3c-0.1-0.3-0.2-0.6-0.3-0.9l1.4-0.5c0.1,0.3,0.2,0.6,0.3,1L124.9,45.3z M4.9,44.3l-1.4-0.5
			c0.1-0.3,0.2-0.6,0.3-1l1.4,0.5C5.1,43.7,5,44,4.9,44.3z M123.9,42.5c-0.1-0.3-0.2-0.6-0.4-0.9l1.4-0.5c0.1,0.3,0.2,0.6,0.4,0.9
			L123.9,42.5z M5.9,41.5L4.5,41c0.1-0.3,0.3-0.6,0.4-0.9l1.4,0.6C6.1,40.9,6,41.2,5.9,41.5z M122.8,39.7c-0.1-0.3-0.3-0.6-0.4-0.9
			l1.4-0.6c0.1,0.3,0.3,0.6,0.4,0.9L122.8,39.7z M7,38.8l-1.4-0.6c0.1-0.3,0.3-0.6,0.4-0.9l1.4,0.6C7.3,38.2,7.2,38.5,7,38.8z
			 M121.6,37c-0.1-0.3-0.3-0.6-0.4-0.9l1.3-0.7c0.2,0.3,0.3,0.6,0.4,0.9L121.6,37z M8.3,36.1L7,35.4c0.2-0.3,0.3-0.6,0.5-0.9
			l1.3,0.7C8.6,35.5,8.5,35.8,8.3,36.1z M120.2,34.4c-0.2-0.3-0.3-0.6-0.5-0.9l1.3-0.7c0.2,0.3,0.3,0.6,0.5,0.9L120.2,34.4z
			 M9.7,33.5l-1.3-0.7c0.2-0.3,0.3-0.6,0.5-0.9l1.3,0.8C10.1,32.9,9.9,33.2,9.7,33.5z M118.7,31.9c-0.2-0.3-0.3-0.6-0.5-0.8l1.3-0.8
			c0.2,0.3,0.4,0.6,0.5,0.9L118.7,31.9z M11.3,31L10,30.2c0.2-0.3,0.4-0.6,0.5-0.9l1.3,0.8C11.6,30.4,11.4,30.7,11.3,31z
			 M117.1,29.4c-0.2-0.3-0.4-0.5-0.6-0.8l1.2-0.9c0.2,0.3,0.4,0.6,0.6,0.8L117.1,29.4z M12.9,28.5l-1.2-0.9c0.2-0.3,0.4-0.6,0.6-0.8
			l1.2,0.9C13.3,28,13.1,28.2,12.9,28.5z M115.4,27c-0.2-0.3-0.4-0.5-0.6-0.8l1.2-0.9c0.2,0.3,0.4,0.5,0.6,0.8L115.4,27z M14.7,26.1
			l-1.2-0.9c0.2-0.3,0.4-0.5,0.6-0.8l1.2,0.9C15.1,25.6,14.9,25.8,14.7,26.1z M113.6,24.6c-0.2-0.3-0.4-0.5-0.6-0.8l1.1-1
			c0.2,0.3,0.4,0.5,0.6,0.8L113.6,24.6z M16.5,23.8l-1.1-1c0.2-0.3,0.4-0.5,0.7-0.8l1.1,1C17,23.3,16.7,23.5,16.5,23.8z M111.7,22.4
			c-0.2-0.2-0.4-0.5-0.7-0.7l1.1-1c0.2,0.2,0.5,0.5,0.7,0.7L111.7,22.4z M18.5,21.6l-1.1-1c0.2-0.2,0.5-0.5,0.7-0.7l1.1,1
			C19,21.1,18.7,21.3,18.5,21.6z M109.6,20.2c-0.2-0.2-0.5-0.5-0.7-0.7l1-1.1c0.2,0.2,0.5,0.5,0.7,0.7L109.6,20.2z M20.6,19.5
			l-1-1.1c0.2-0.2,0.5-0.5,0.7-0.7l1,1.1C21,19,20.8,19.2,20.6,19.5z M107.5,18.2c-0.2-0.2-0.5-0.4-0.7-0.7l1-1.1
			c0.3,0.2,0.5,0.5,0.8,0.7L107.5,18.2z M22.7,17.4l-1-1.1c0.3-0.2,0.5-0.4,0.8-0.7l1,1.1C23.2,17,23,17.2,22.7,17.4z M105.3,16.2
			c-0.3-0.2-0.5-0.4-0.8-0.6l0.9-1.2c0.3,0.2,0.5,0.4,0.8,0.6L105.3,16.2z M25,15.5l-0.9-1.2c0.3-0.2,0.5-0.4,0.8-0.6l0.9,1.2
			C25.5,15.1,25.3,15.3,25,15.5z M102.9,14.4c-0.3-0.2-0.5-0.4-0.8-0.6l0.9-1.2c0.3,0.2,0.5,0.4,0.8,0.6L102.9,14.4z M27.3,13.7
			l-0.9-1.2c0.3-0.2,0.5-0.4,0.8-0.6l0.9,1.2C27.9,13.3,27.6,13.5,27.3,13.7z M100.5,12.6c-0.3-0.2-0.5-0.4-0.8-0.6l0.8-1.2
			c0.3,0.2,0.6,0.4,0.8,0.6L100.5,12.6z M29.8,12l-0.8-1.2c0.3-0.2,0.6-0.4,0.8-0.6l0.8,1.3C30.3,11.7,30,11.8,29.8,12z M98,11
			c-0.3-0.2-0.6-0.3-0.8-0.5L98,9.2c0.3,0.2,0.6,0.3,0.9,0.5L98,11z M32.3,10.4l-0.8-1.3c0.3-0.2,0.6-0.3,0.9-0.5l0.8,1.3
			C32.8,10.1,32.6,10.3,32.3,10.4z M95.5,9.5c-0.3-0.2-0.6-0.3-0.9-0.5l0.7-1.3c0.3,0.2,0.6,0.3,0.9,0.5L95.5,9.5z M34.8,9l-0.7-1.3
			c0.3-0.2,0.6-0.3,0.9-0.5l0.7,1.3C35.4,8.7,35.1,8.8,34.8,9z M92.9,8.1C92.6,8,92.3,7.8,92,7.7l0.6-1.4c0.3,0.1,0.6,0.3,0.9,0.4
			L92.9,8.1z M37.5,7.7l-0.6-1.4c0.3-0.1,0.6-0.3,0.9-0.4l0.6,1.4C38.1,7.4,37.8,7.5,37.5,7.7z M90.2,6.8c-0.3-0.1-0.6-0.3-0.9-0.4
			l0.6-1.4c0.3,0.1,0.6,0.3,0.9,0.4L90.2,6.8z M40.2,6.4l-0.6-1.4c0.3-0.1,0.6-0.3,0.9-0.4l0.6,1.4C40.8,6.2,40.5,6.3,40.2,6.4z
			 M87.4,5.7c-0.3-0.1-0.6-0.2-0.9-0.3L87,3.9c0.3,0.1,0.6,0.2,1,0.4L87.4,5.7z M42.9,5.4l-0.5-1.4c0.3-0.1,0.6-0.2,1-0.3L43.9,5
			C43.6,5.1,43.2,5.2,42.9,5.4z M84.6,4.7c-0.3-0.1-0.6-0.2-0.9-0.3L84.1,3c0.3,0.1,0.6,0.2,1,0.3L84.6,4.7z M45.7,4.4L45.3,3
			c0.3-0.1,0.6-0.2,1-0.3l0.4,1.4C46.4,4.2,46.1,4.3,45.7,4.4z M81.8,3.8c-0.3-0.1-0.6-0.2-1-0.3l0.4-1.5c0.3,0.1,0.7,0.2,1,0.3
			L81.8,3.8z M48.6,3.6l-0.4-1.5c0.3-0.1,0.7-0.2,1-0.2l0.4,1.5C49.2,3.4,48.9,3.5,48.6,3.6z M78.9,3.1C78.6,3,78.3,3,78,2.9
			l0.3-1.5c0.3,0.1,0.7,0.1,1,0.2L78.9,3.1z M51.5,2.9l-0.3-1.5c0.3-0.1,0.7-0.1,1-0.2l0.3,1.5C52.1,2.8,51.8,2.8,51.5,2.9z M76,2.5
			c-0.3-0.1-0.6-0.1-1-0.2l0.2-1.5c0.3,0.1,0.7,0.1,1,0.2L76,2.5z M54.4,2.3l-0.2-1.5c0.3-0.1,0.7-0.1,1-0.2l0.2,1.5
			C55,2.2,54.7,2.3,54.4,2.3z M73.1,2.1c-0.3,0-0.7-0.1-1-0.1l0.2-1.5c0.3,0,0.7,0.1,1,0.1L73.1,2.1z M57.3,1.9l-0.2-1.5
			c0.3,0,0.7-0.1,1-0.1l0.2,1.5C58,1.9,57.6,1.9,57.3,1.9z M70.1,1.7c-0.3,0-0.7-0.1-1-0.1l0.1-1.5c0.3,0,0.7,0,1,0.1L70.1,1.7z
			 M60.3,1.7l-0.1-1.5c0.3,0,0.7,0,1-0.1l0.1,1.5C60.9,1.6,60.6,1.6,60.3,1.7z M67.2,1.6c-0.3,0-0.7,0-1,0l0-1.5c0.3,0,0.7,0,1,0
			L67.2,1.6z M63.2,1.5l0-1.5c0.3,0,0.7,0,1,0l0,1.5C63.9,1.5,63.6,1.5,63.2,1.5z"/>
		<path fill="#FFFFFF" d="M118.6,94.2H10.8c-1.3,0-2.3-1-2.3-2.3V22.1c0-1.3,1-2.3,2.3-2.3h107.7c1.3,0,2.3,1,2.3,2.3v69.9
			C120.9,93.2,119.9,94.2,118.6,94.2z"/>
		<rect x="12.7" y="24.1" fill="#84DBFF" width="103.9" height="58.8"/>
		<circle fill="#E6E9EE" cx="64.7" cy="88.5" r="2.9"/>
		<path fill="#E6E9EE" d="M128.7,99.7H0.8v5c0,2.8,2.2,5,5,5h117.9c2.8,0,5-2.2,5-5V99.7z"/>
		<polygon fill="#E6E9EE" points="82.9,99.7 46.5,99.7 50.4,105.4 79.1,105.4 		"/>
		<line fill="#FFFFFF" x1="80.6" y1="80.6" x2="84.6" y2="84.6"/>
		<path fill="#231F20" d="M84.6,85.3c-0.2,0-0.4-0.1-0.5-0.2l-4-4c-0.3-0.3-0.3-0.8,0-1.1c0.3-0.3,0.8-0.3,1.1,0l4,4
			c0.3,0.3,0.3,0.8,0,1.1C85,85.3,84.8,85.3,84.6,85.3z"/>
		<line fill="#FFFFFF" x1="87.8" y1="96.4" x2="96.4" y2="87.8"/>
		<line fill="#FFFFFF" x1="114.5" y1="123.2" x2="123.2" y2="114.5"/>
		<path fill="#231F20" d="M115.9,6.2c-0.2,0-0.4-0.1-0.5-0.2c-0.3-0.3-0.3-0.8,0-1.1l1.3-1.3c0.3-0.3,0.8-0.3,1.1,0
			c0.3,0.3,0.3,0.8,0,1.1L116.4,6C116.3,6.1,116.1,6.2,115.9,6.2z"/>
		<path fill="#231F20" d="M111.9,10.2c-0.2,0-0.4-0.1-0.5-0.2c-0.3-0.3-0.3-0.8,0-1.1l1.3-1.3c0.3-0.3,0.8-0.3,1.1,0
			c0.3,0.3,0.3,0.8,0,1.1l-1.3,1.3C112.3,10.2,112.1,10.2,111.9,10.2z"/>
		<path fill="#231F20" d="M117.2,10.2c-0.2,0-0.4-0.1-0.5-0.2l-1.3-1.3c-0.3-0.3-0.3-0.8,0-1.1c0.3-0.3,0.8-0.3,1.1,0l1.3,1.3
			c0.3,0.3,0.3,0.8,0,1.1C117.6,10.2,117.4,10.2,117.2,10.2z"/>
		<path fill="#231F20" d="M113.2,6.2c-0.2,0-0.4-0.1-0.5-0.2l-1.3-1.3c-0.3-0.3-0.3-0.8,0-1.1c0.3-0.3,0.8-0.3,1.1,0l1.3,1.3
			c0.3,0.3,0.3,0.8,0,1.1C113.5,6.1,113.3,6.2,113.2,6.2z"/>
		<path fill="#231F20" d="M14,118.2c-0.2,0-0.4-0.1-0.5-0.2c-0.3-0.3-0.3-0.8,0-1.1l1.3-1.3c0.3-0.3,0.8-0.3,1.1,0
			c0.3,0.3,0.3,0.8,0,1.1l-1.3,1.3C14.4,118.2,14.2,118.2,14,118.2z"/>
		<path fill="#231F20" d="M10,122.3c-0.2,0-0.4-0.1-0.5-0.2c-0.3-0.3-0.3-0.8,0-1.1l1.3-1.3c0.3-0.3,0.8-0.3,1.1,0
			c0.3,0.3,0.3,0.8,0,1.1l-1.3,1.3C10.4,122.2,10.2,122.3,10,122.3z"/>
		<path fill="#231F20" d="M15.3,122.3c-0.2,0-0.4-0.1-0.5-0.2l-1.3-1.3c-0.3-0.3-0.3-0.8,0-1.1c0.3-0.3,0.8-0.3,1.1,0l1.3,1.3
			c0.3,0.3,0.3,0.8,0,1.1C15.7,122.2,15.5,122.3,15.3,122.3z"/>
		<path fill="#231F20" d="M11.3,118.2c-0.2,0-0.4-0.1-0.5-0.2l-1.3-1.3c-0.3-0.3-0.3-0.8,0-1.1c0.3-0.3,0.8-0.3,1.1,0l1.3,1.3
			c0.3,0.3,0.3,0.8,0,1.1C11.7,118.2,11.5,118.2,11.3,118.2z"/>
		<path fill="#231F20" d="M25.8,35.7c-0.2,0-0.4-0.1-0.5-0.2c-0.3-0.3-0.3-0.8,0-1.1l1.3-1.3c0.3-0.3,0.8-0.3,1.1,0
			c0.3,0.3,0.3,0.8,0,1.1l-1.3,1.3C26.2,35.6,26,35.7,25.8,35.7z"/>
		<path fill="#231F20" d="M21.8,39.7c-0.2,0-0.4-0.1-0.5-0.2c-0.3-0.3-0.3-0.8,0-1.1l1.3-1.3c0.3-0.3,0.8-0.3,1.1,0
			c0.3,0.3,0.3,0.8,0,1.1l-1.3,1.3C22.2,39.6,22,39.7,21.8,39.7z"/>
		<path fill="#231F20" d="M27.1,39.7c-0.2,0-0.4-0.1-0.5-0.2l-1.3-1.3c-0.3-0.3-0.3-0.8,0-1.1c0.3-0.3,0.8-0.3,1.1,0l1.3,1.3
			c0.3,0.3,0.3,0.8,0,1.1C27.5,39.6,27.3,39.7,27.1,39.7z"/>
		<path fill="#231F20" d="M23.1,35.7c-0.2,0-0.4-0.1-0.5-0.2l-1.3-1.3c-0.3-0.3-0.3-0.8,0-1.1c0.3-0.3,0.8-0.3,1.1,0l1.3,1.3
			c0.3,0.3,0.3,0.8,0,1.1C23.5,35.6,23.3,35.7,23.1,35.7z"/>
		<path fill="#231F20" d="M103.9,70.9h-7.5c-0.4,0-0.8-0.3-0.8-0.8c0-0.4,0.3-0.8,0.8-0.8h7.5c0.4,0,0.8,0.3,0.8,0.8
			C104.6,70.6,104.3,70.9,103.9,70.9z"/>
		<path fill="#231F20" d="M108.8,70.9h-2.1c-0.4,0-0.8-0.3-0.8-0.8c0-0.4,0.3-0.8,0.8-0.8h2.1c0.4,0,0.8,0.3,0.8,0.8
			C109.6,70.6,109.2,70.9,108.8,70.9z"/>
		<path fill="#231F20" d="M106,73.6h-2.1c-0.4,0-0.8-0.3-0.8-0.8c0-0.4,0.3-0.8,0.8-0.8h2.1c0.4,0,0.8,0.3,0.8,0.8
			C106.7,73.3,106.4,73.6,106,73.6z"/>
		<circle fill="#84DBFF" cx="66.1" cy="10.3" r="2.1"/>
		<circle fill="#FF7058" cx="64.2" cy="117.5" r="2.1"/>
		<circle fill="#FFD05B" cx="103.9" cy="125.2" r="2.1"/>
		<circle fill="#FFD05B" cx="17.5" cy="6.9" r="2.1"/>
		<circle fill="#FFFFFF" cx="59.9" cy="59.9" r="29.2"/>
		<path fill="#FFFFFF" d="M85.6,83.5l-2.1,2.1c-1.8,1.8-1.8,4.7,0,6.5l35.3,35.3c1.8,1.8,4.7,1.8,6.5,0l2.1-2.1
			c1.8-1.8,1.8-4.7,0-6.5L92.1,83.5C90.3,81.7,87.4,81.7,85.6,83.5z"/>
		<path fill="#FF7058" d="M59.9,51c-4.5,0-8.2,3.7-8.2,8.2v7.2c0,4.5,3.7,8.2,8.2,8.2c4.5,0,8.2-3.7,8.2-8.2v-7.2
			C68.2,54.7,64.5,51,59.9,51z"/>
		<path fill="#FF7058" d="M61,53.7h-2.1c-1.8,0-3.2-1.4-3.2-3.2v-2.1c0-1.8,1.4-3.2,3.2-3.2H61c1.8,0,3.2,1.4,3.2,3.2v2.1
			C64.2,52.3,62.7,53.7,61,53.7z"/>
		<g>
			<path fill="#231F20" d="M42.2,45.5l-1.2-1c-0.2,0.3-0.4,0.5-0.6,0.8l1.2,0.9C41.8,46,42,45.7,42.2,45.5z"/>
			<path fill="#231F20" d="M51.5,38.7l-0.6-1.4c-0.3,0.1-0.6,0.3-1,0.4l0.6,1.4C50.9,38.9,51.2,38.8,51.5,38.7z"/>
			<path fill="#231F20" d="M39.6,73.4c0.2,0.3,0.4,0.6,0.6,0.8l1.2-0.9c-0.2-0.3-0.4-0.5-0.6-0.8L39.6,73.4z"/>
			<path fill="#231F20" d="M39.1,50.4l-1.4-0.6c-0.1,0.3-0.3,0.6-0.4,0.9l1.4,0.6C38.9,51,39,50.7,39.1,50.4z"/>
			<path fill="#231F20" d="M40.5,47.8L39.2,47c-0.2,0.3-0.4,0.6-0.5,0.9l1.3,0.7C40.2,48.4,40.3,48.1,40.5,47.8z"/>
			<path fill="#231F20" d="M38.3,67.4l-1.4,0.5c0.1,0.3,0.2,0.6,0.4,1l1.4-0.5C38.5,68,38.4,67.7,38.3,67.4z"/>
			<path fill="#231F20" d="M37.5,64.6l-1.5,0.3c0.1,0.3,0.1,0.7,0.2,1l1.5-0.4C37.7,65.2,37.6,64.9,37.5,64.6z"/>
			<path fill="#231F20" d="M39.4,70.1l-1.3,0.7c0.2,0.3,0.3,0.6,0.5,0.9l1.3-0.7C39.7,70.6,39.6,70.3,39.4,70.1z"/>
			<path fill="#231F20" d="M38.1,53.1l-1.4-0.4c-0.1,0.3-0.2,0.7-0.3,1l1.4,0.4C37.9,53.7,38,53.4,38.1,53.1z"/>
			<path fill="#231F20" d="M37.4,55.9l-1.5-0.3c-0.1,0.3-0.1,0.7-0.2,1l1.5,0.2C37.3,56.6,37.4,56.2,37.4,55.9z"/>
			<path fill="#231F20" d="M37.1,61.7l-1.5,0.1c0,0.3,0.1,0.7,0.1,1l1.5-0.2C37.2,62.3,37.1,62,37.1,61.7z"/>
			<path fill="#231F20" d="M37.1,58.8l-1.5-0.1c0,0.3,0,0.7,0,1l1.5,0C37.1,59.4,37.1,59.1,37.1,58.8z"/>
			<path fill="#231F20" d="M54.2,37.8l-0.4-1.5c-0.3,0.1-0.7,0.2-1,0.3l0.4,1.4C53.6,37.9,53.9,37.9,54.2,37.8z"/>
			<path fill="#231F20" d="M82.2,54.6l1.5-0.4c-0.1-0.3-0.2-0.7-0.3-1l-1.4,0.4C82,54,82.1,54.3,82.2,54.6z"/>
			<path fill="#231F20" d="M81.3,51.8l1.4-0.5c-0.1-0.3-0.3-0.6-0.4-1L81,50.9C81.1,51.2,81.2,51.5,81.3,51.8z"/>
			<path fill="#231F20" d="M80.1,49.2l1.3-0.7c-0.2-0.3-0.3-0.6-0.5-0.9l-1.3,0.8C79.8,48.6,80,48.9,80.1,49.2z"/>
			<path fill="#231F20" d="M76.8,42.3c-0.2-0.2-0.5-0.5-0.8-0.7l-1,1.1c0.2,0.2,0.5,0.4,0.7,0.7L76.8,42.3z"/>
			<path fill="#231F20" d="M82.7,57.5l1.5-0.2c0-0.3-0.1-0.7-0.1-1l-1.5,0.2C82.6,56.8,82.7,57.1,82.7,57.5z"/>
			<path fill="#231F20" d="M82.8,60.4l1.5,0c0-0.3,0-0.7,0-1l-1.5,0C82.8,59.7,82.8,60,82.8,60.4z"/>
			<path fill="#231F20" d="M71.8,38.6c-0.3-0.2-0.6-0.3-0.9-0.5l-0.7,1.3c0.3,0.1,0.6,0.3,0.9,0.5L71.8,38.6z"/>
			<path fill="#231F20" d="M60,37l0-1.5c-0.3,0-0.7,0-1,0l0.1,1.5C59.3,37.1,59.6,37,60,37z"/>
			<path fill="#231F20" d="M63.1,35.7c-0.3,0-0.7-0.1-1-0.1l-0.1,1.5c0.3,0,0.6,0.1,1,0.1L63.1,35.7z"/>
			<path fill="#231F20" d="M66.1,36.3c-0.3-0.1-0.7-0.2-1-0.2l-0.3,1.5c0.3,0.1,0.6,0.1,0.9,0.2L66.1,36.3z"/>
			<path fill="#231F20" d="M57.1,37.2l-0.2-1.5c-0.3,0-0.7,0.1-1,0.1l0.2,1.5C56.4,37.3,56.7,37.3,57.1,37.2z"/>
			<path fill="#231F20" d="M69,37.3c-0.3-0.1-0.6-0.2-1-0.4l-0.5,1.4c0.3,0.1,0.6,0.2,0.9,0.3L69,37.3z"/>
			<path fill="#231F20" d="M78.1,73.8l1.2,0.9c0.2-0.3,0.4-0.6,0.6-0.8L78.7,73C78.5,73.3,78.3,73.6,78.1,73.8z"/>
			<path fill="#231F20" d="M75,79.1c0.3-0.2,0.5-0.4,0.8-0.7l-1-1.1c-0.2,0.2-0.5,0.4-0.7,0.6L75,79.1z"/>
			<path fill="#231F20" d="M76.8,44.5l1.1-1c-0.2-0.3-0.5-0.5-0.7-0.7l-1.1,1.1C76.3,44,76.6,44.2,76.8,44.5z"/>
			<path fill="#231F20" d="M74.4,40.3c-0.3-0.2-0.6-0.4-0.8-0.6L72.7,41c0.3,0.2,0.5,0.4,0.8,0.6L74.4,40.3z"/>
			<path fill="#231F20" d="M41.5,75.9c0.2,0.3,0.5,0.5,0.7,0.8l1.1-1c-0.2-0.2-0.4-0.5-0.6-0.7L41.5,75.9z"/>
			<path fill="#231F20" d="M76.2,76l1.1,1.1c0.2-0.2,0.5-0.5,0.7-0.7l-1.1-1C76.7,75.6,76.4,75.8,76.2,76z"/>
			<path fill="#231F20" d="M72.4,80.9c0.3-0.2,0.6-0.4,0.9-0.5l-0.8-1.3c-0.3,0.2-0.5,0.3-0.8,0.5L72.4,80.9z"/>
			<path fill="#231F20" d="M79.7,71.4l1.3,0.8c0.2-0.3,0.3-0.6,0.5-0.9l-1.3-0.7C80.1,70.9,79.9,71.1,79.7,71.4z"/>
			<path fill="#231F20" d="M82,66.1l1.4,0.4c0.1-0.3,0.2-0.7,0.3-1l-1.5-0.3C82.1,65.5,82.1,65.8,82,66.1z"/>
			<path fill="#231F20" d="M82.6,63.2l1.5,0.2c0-0.3,0.1-0.7,0.1-1l-1.5-0.2C82.7,62.6,82.6,62.9,82.6,63.2z"/>
			<path fill="#231F20" d="M79.8,45.8c-0.2-0.3-0.4-0.6-0.6-0.8L78,45.9c0.2,0.3,0.4,0.5,0.6,0.8L79.8,45.8z"/>
			<path fill="#231F20" d="M66.3,81.9l0.4,1.4c0.3-0.1,0.7-0.2,1-0.3l-0.5-1.4C67,81.7,66.6,81.8,66.3,81.9z"/>
			<path fill="#231F20" d="M81,68.8l1.4,0.6c0.1-0.3,0.3-0.6,0.4-1l-1.4-0.5C81.3,68.2,81.2,68.5,81,68.8z"/>
			<path fill="#231F20" d="M69.1,80.9l0.6,1.4c0.3-0.1,0.6-0.3,0.9-0.4l-0.7-1.3C69.7,80.7,69.4,80.8,69.1,80.9z"/>
			<path fill="#231F20" d="M46.1,80c0.3,0.2,0.6,0.4,0.9,0.6l0.8-1.3c-0.3-0.2-0.5-0.4-0.8-0.5L46.1,80z"/>
			<path fill="#231F20" d="M45.5,40.3c-0.3,0.2-0.5,0.4-0.8,0.6l0.9,1.2c0.3-0.2,0.5-0.4,0.8-0.6L45.5,40.3z"/>
			<path fill="#231F20" d="M48.1,38.6c-0.3,0.2-0.6,0.3-0.9,0.5l0.8,1.3c0.3-0.2,0.6-0.3,0.8-0.5L48.1,38.6z"/>
			<path fill="#231F20" d="M48.7,81.6c0.3,0.2,0.6,0.3,0.9,0.5l0.6-1.4c-0.3-0.1-0.6-0.3-0.9-0.4L48.7,81.6z"/>
			<path fill="#231F20" d="M63.5,82.5l0.2,1.5c0.3-0.1,0.7-0.1,1-0.2l-0.3-1.5C64.1,82.4,63.8,82.5,63.5,82.5z"/>
			<path fill="#231F20" d="M44.2,43.4l-1-1.1c-0.1,0.1-0.3,0.3-0.4,0.4L42.4,43l1.1,1l0.3-0.3C43.9,43.6,44,43.5,44.2,43.4z"/>
			<path fill="#231F20" d="M43.6,78.1c0.3,0.2,0.5,0.5,0.8,0.7l1-1.2c-0.2-0.2-0.5-0.4-0.7-0.6L43.6,78.1z"/>
			<path fill="#231F20" d="M60.6,82.8l0,1.5c0.3,0,0.7,0,1-0.1l-0.1-1.5C61.3,82.8,60.9,82.8,60.6,82.8z"/>
			<path fill="#231F20" d="M57.6,84.2c0.3,0,0.7,0.1,1,0.1l0.1-1.5c-0.3,0-0.6,0-1-0.1L57.6,84.2z"/>
			<path fill="#231F20" d="M54.5,83.7c0.3,0.1,0.7,0.1,1,0.2l0.3-1.5c-0.3-0.1-0.6-0.1-0.9-0.2L54.5,83.7z"/>
			<path fill="#231F20" d="M51.6,82.8c0.3,0.1,0.6,0.2,1,0.3l0.5-1.4c-0.3-0.1-0.6-0.2-0.9-0.3L51.6,82.8z"/>
			<path fill="#231F20" d="M127.9,118.2l-7.8-7.8h3.5c3.2,0,5.7-2.6,5.7-5.7v-5c0-0.4-0.3-0.8-0.8-0.8h-20l-4-4h13.9
				c1.7,0,3.1-1.4,3.1-3.1V22.1c0-1.7-1.4-3.1-3.1-3.1H10.8c-1.7,0-3.1,1.4-3.1,3.1v69.9c0,1.7,1.4,3.1,3.1,3.1h74.4l4,4H0.8
				c-0.4,0-0.7,0.3-0.7,0.8v5c0,3.2,2.6,5.7,5.7,5.7h95l17.5,17.5c2.1,2.1,5.5,2.1,7.5,0l2.1-2.1C130,123.7,130,120.3,127.9,118.2z
				 M127.9,100.4v4.2c0,2.3-1.9,4.2-4.2,4.2h-5l-8.5-8.5H127.9z M120.1,91.9c0,0.9-0.7,1.6-1.6,1.6h-15.4l-9.8-9.8h26.8V91.9z
				 M9.3,22.1c0-0.9,0.7-1.6,1.6-1.6h107.7c0.9,0,1.6,0.7,1.6,1.6v60.1H91.6c-1.7-1-3.7-1-5.4,0h-3l-1.6-1.6
				c11.1-11.7,11-30.3-0.5-41.8c-11.7-11.7-30.7-11.7-42.3,0c-11.7,11.7-11.7,30.7,0,42.3c0.4,0.4,0.7,0.7,1.1,1.1H9.3V22.1z
				 M39.8,80c-11.1-11.1-11.1-29.1,0-40.2C50.9,28.7,69,28.7,80,39.8C91.1,50.9,91.1,68.9,80,80C69,91.1,50.9,91.1,39.8,80z
				 M80.6,81.6l0.5,0.5h-1.2C80.2,82,80.4,81.8,80.6,81.6z M10.8,93.5c-0.9,0-1.6-0.7-1.6-1.6v-8.3h32.4c10.7,8.2,25.7,8.2,36.5,0
				h4.4l0.9,0.9L83,85.1c-2.1,2.1-2.1,5.5,0,7.5l0.8,0.8H10.8z M84,91.6c-1.5-1.5-1.5-3.9,0-5.4l1.1-1.1v0h0l1.1-1.1
				c1.5-1.5,3.9-1.5,5.4,0l3.7,3.7l-7.6,7.6L84,91.6z M81.5,100.4l-2.8,4.2H50.8l-2.8-4.2H81.5z M5.7,108.9c-2.3,0-4.2-1.9-4.2-4.2
				v-4.2h44.6l3.6,5.3c0.1,0.2,0.4,0.3,0.6,0.3h28.7c0.2,0,0.5-0.1,0.6-0.3l3.6-5.3h7.5l8.5,8.5H5.7z M88.8,96.4l7.6-7.6l25.7,25.7
				l-7.6,7.6L88.8,96.4z M126.9,124.7l-2.1,2.1c-1.5,1.5-3.9,1.5-5.4,0l-3.7-3.7l7.6-7.6l3.7,3.7
				C128.4,120.8,128.4,123.2,126.9,124.7z"/>
			<path fill="#231F20" d="M67,71.9l3.4,1.1c0.1,0,0.2,0,0.2,0c0.3,0,0.6-0.2,0.7-0.5c0.1-0.4-0.1-0.8-0.5-0.9l-3-1
				c0.7-1.2,1-2.6,1.1-4.1l1.6,0.2c0,0,0.1,0,0.1,0c0.4,0,0.7-0.3,0.7-0.7c0-0.4-0.3-0.8-0.7-0.8L68.9,65v-4.4l1.8-0.2
				c0.4,0,0.7-0.4,0.7-0.8c0-0.4-0.4-0.7-0.8-0.7l-1.6,0.2c0-1.5-0.4-2.8-1.1-4.1l3-1c0.4-0.1,0.6-0.6,0.5-0.9
				c-0.1-0.4-0.5-0.6-0.9-0.5L67,53.7c-0.6-0.8-1.4-1.5-2.2-2c0.1-0.4,0.2-0.7,0.2-1.1v-2.1c0-2.2-1.8-3.9-3.9-3.9h-2.1
				c-2.2,0-3.9,1.8-3.9,3.9v2.1c0,0.4,0.1,0.8,0.2,1.1c-0.9,0.5-1.6,1.2-2.2,2l-3.4-1.1c-0.4-0.1-0.8,0.1-0.9,0.5
				c-0.1,0.4,0.1,0.8,0.5,0.9l3,1c-0.7,1.2-1,2.6-1.1,4.1l-1.6-0.2c-0.4,0-0.8,0.3-0.8,0.7c0,0.4,0.3,0.8,0.7,0.8l1.8,0.2V65
				l-1.8,0.2c-0.4,0-0.7,0.4-0.7,0.8c0,0.4,0.4,0.7,0.7,0.7c0,0,0.1,0,0.1,0l1.6-0.2c0,1.5,0.4,2.9,1.1,4.1l-3,1
				c-0.4,0.1-0.6,0.6-0.5,0.9c0.1,0.3,0.4,0.5,0.7,0.5c0.1,0,0.2,0,0.2,0l3.4-1.1c1.6,2.1,4.2,3.4,7.1,3.4
				C62.8,75.4,65.3,74,67,71.9z M64,53c2,1.3,3.4,3.6,3.4,6.2v7.2c0,0.2,0,0.4,0,0.6c-3.7-0.3-6.7-3.5-6.7-7.3v-5.2H61
				C62.2,54.5,63.3,53.9,64,53z M56.4,48.4c0-1.3,1.1-2.4,2.4-2.4H61c1.3,0,2.4,1.1,2.4,2.4v2.1c0,1.3-1.1,2.4-2.4,2.4h-2.1
				c-1.3,0-2.4-1.1-2.4-2.4V48.4z M52.5,66.4v-7.2c0-2.6,1.3-4.9,3.4-6.2c0.7,0.9,1.8,1.5,3,1.5h0.3v5.2c0,3.8-2.9,7-6.7,7.3
				C52.5,66.8,52.5,66.6,52.5,66.4z M59.9,73.9c-3.4,0-6.3-2.3-7.2-5.4c3.2-0.3,5.9-2.4,7.2-5.2c1.3,2.8,4,4.9,7.2,5.2
				C66.2,71.6,63.3,73.9,59.9,73.9z"/>
		</g>
	</g>
</g>
</svg>
