<?xml version="1.0" encoding="utf-8"?>
<!-- Generator: Adobe Illustrator 18.0.0, SVG Export Plug-In . SVG Version: 6.00 Build 0)  -->
<!DOCTYPE svg PUBLIC "-//W3C//DTD SVG 1.1//EN" "http://www.w3.org/Graphics/SVG/1.1/DTD/svg11.dtd">
<svg version="1.1" id="Layer_1" xmlns="http://www.w3.org/2000/svg" xmlns:xlink="http://www.w3.org/1999/xlink" x="0px" y="0px"
	 viewBox="0 0 129.5 129.5" enable-background="new 0 0 129.5 129.5" xml:space="preserve">
<g>
	<g>
		<g>
			<path fill="#231F20" d="M64.8,123.1l-0.7,0l0-1.5l0.7,0l0.3,0l0,1.5L64.8,123.1z M67.1,123.1l-0.1-1.5c0.3,0,0.7,0,1,0l0.1,1.5
				C67.7,123.1,67.4,123.1,67.1,123.1z M62,123.1c-0.3,0-0.7,0-1-0.1l0.1-1.5c0.3,0,0.7,0,1,0.1L62,123.1z M70.1,122.9l-0.1-1.5
				c0.3,0,0.7-0.1,1-0.1l0.2,1.5C70.8,122.8,70.4,122.9,70.1,122.9z M59,122.8c-0.3,0-0.7-0.1-1-0.1l0.2-1.5c0.3,0,0.7,0.1,1,0.1
				L59,122.8z M73.1,122.5l-0.2-1.5c0.3,0,0.7-0.1,1-0.1l0.2,1.5C73.8,122.4,73.4,122.5,73.1,122.5z M55.9,122.5
				c-0.3-0.1-0.7-0.1-1-0.2l0.3-1.5c0.3,0.1,0.6,0.1,1,0.2L55.9,122.5z M76.1,122l-0.3-1.5c0.3-0.1,0.6-0.1,1-0.2l0.3,1.5
				C76.8,121.9,76.4,122,76.1,122z M53,121.9c-0.3-0.1-0.7-0.1-1-0.2l0.3-1.5c0.3,0.1,0.6,0.1,1,0.2L53,121.9z M79.1,121.4l-0.4-1.5
				c0.3-0.1,0.6-0.2,1-0.3l0.4,1.4C79.7,121.2,79.4,121.3,79.1,121.4z M50,121.2c-0.3-0.1-0.7-0.2-1-0.3l0.4-1.4
				c0.3,0.1,0.6,0.2,1,0.3L50,121.2z M82,120.5l-0.4-1.4c0.3-0.1,0.6-0.2,0.9-0.3l0.5,1.4C82.6,120.3,82.3,120.4,82,120.5z
				 M47.1,120.4c-0.3-0.1-0.6-0.2-1-0.3l0.5-1.4c0.3,0.1,0.6,0.2,0.9,0.3L47.1,120.4z M84.9,119.6l-0.5-1.4c0.3-0.1,0.6-0.2,0.9-0.3
				l0.5,1.4C85.5,119.3,85.2,119.4,84.9,119.6z M44.2,119.4c-0.3-0.1-0.6-0.2-0.9-0.4l0.6-1.4c0.3,0.1,0.6,0.2,0.9,0.4L44.2,119.4z
				 M87.7,118.4l-0.6-1.4c0.3-0.1,0.6-0.3,0.9-0.4l0.6,1.4C88.3,118.2,88,118.3,87.7,118.4z M41.4,118.2c-0.3-0.1-0.6-0.3-0.9-0.4
				l0.6-1.4c0.3,0.1,0.6,0.3,0.9,0.4L41.4,118.2z M90.4,117.2l-0.7-1.3c0.3-0.1,0.6-0.3,0.9-0.4l0.7,1.3
				C91,116.9,90.7,117,90.4,117.2z M38.6,117c-0.3-0.2-0.6-0.3-0.9-0.5l0.7-1.3c0.3,0.2,0.6,0.3,0.9,0.5L38.6,117z M93.1,115.8
				l-0.7-1.3c0.3-0.2,0.6-0.3,0.9-0.5l0.8,1.3C93.7,115.4,93.4,115.6,93.1,115.8z M35.9,115.5c-0.3-0.2-0.6-0.3-0.9-0.5l0.8-1.3
				c0.3,0.2,0.6,0.3,0.9,0.5L35.9,115.5z M14.6,94.4c-0.2-0.3-0.3-0.6-0.5-0.9l1.3-0.7c0.2,0.3,0.3,0.6,0.5,0.9L14.6,94.4z
				 M116.2,92.2l-1.3-0.7c0.2-0.3,0.3-0.6,0.5-0.9l1.3,0.7C116.5,91.6,116.3,91.9,116.2,92.2z M13.1,91.8c-0.2-0.3-0.3-0.6-0.5-0.9
				l1.3-0.7c0.1,0.3,0.3,0.6,0.4,0.9L13.1,91.8z M117.5,89.5l-1.4-0.6c0.1-0.3,0.3-0.6,0.4-0.9l1.4,0.6
				C117.8,88.9,117.7,89.2,117.5,89.5z M11.8,89c-0.1-0.3-0.3-0.6-0.4-0.9l1.4-0.6c0.1,0.3,0.3,0.6,0.4,0.9L11.8,89z M118.7,86.7
				l-1.4-0.6c0.1-0.3,0.2-0.6,0.4-0.9l1.4,0.5C119,86.1,118.9,86.4,118.7,86.7z M10.6,86.2c-0.1-0.3-0.2-0.6-0.4-0.9l1.4-0.5
				c0.1,0.3,0.2,0.6,0.4,0.9L10.6,86.2z M119.8,83.8l-1.4-0.5c0.1-0.3,0.2-0.6,0.3-0.9l1.4,0.5C120,83.2,119.9,83.5,119.8,83.8z
				 M9.5,83.4c-0.1-0.3-0.2-0.6-0.3-1l1.4-0.5c0.1,0.3,0.2,0.6,0.3,0.9L9.5,83.4z M120.7,80.9l-1.4-0.4c0.1-0.3,0.2-0.6,0.3-1
				L121,80C120.9,80.3,120.8,80.6,120.7,80.9z M8.7,80.5c-0.1-0.3-0.2-0.7-0.3-1l1.5-0.4c0.1,0.3,0.2,0.6,0.3,1L8.7,80.5z M121.5,78
				l-1.5-0.3c0.1-0.3,0.1-0.6,0.2-1l1.5,0.3C121.6,77.3,121.6,77.7,121.5,78z M7.9,77.5c-0.1-0.3-0.1-0.7-0.2-1l1.5-0.3
				c0.1,0.3,0.1,0.6,0.2,1L7.9,77.5z M122.1,75l-1.5-0.3c0.1-0.3,0.1-0.6,0.2-1l1.5,0.2C122.2,74.3,122.1,74.7,122.1,75z M7.3,74.6
				c-0.1-0.3-0.1-0.7-0.2-1l1.5-0.2c0,0.3,0.1,0.7,0.2,1L7.3,74.6z M122.5,72l-1.5-0.2c0-0.3,0.1-0.7,0.1-1l1.5,0.2
				C122.6,71.3,122.6,71.7,122.5,72z M6.9,71.5c0-0.3-0.1-0.7-0.1-1l1.5-0.1c0,0.3,0.1,0.7,0.1,1L6.9,71.5z M122.8,69l-1.5-0.1
				c0-0.3,0-0.7,0.1-1l1.5,0.1C122.9,68.3,122.8,68.6,122.8,69z M6.7,68.5c0-0.3,0-0.7-0.1-1l1.5-0.1c0,0.3,0,0.7,0.1,1L6.7,68.5z
				 M122.9,65.9l-1.5,0c0-0.3,0-0.7,0-1h1.5C123,65.3,122.9,65.6,122.9,65.9z M6.6,65.5l0-0.6l0-0.5l1.5,0l0,0.4l0,0.5L6.6,65.5z
				 M121.5,64.8c0-0.3,0-0.7,0-1l1.5,0c0,0.3,0,0.7,0,1L121.5,64.8z M8.1,62.5l-1.5-0.1c0-0.3,0-0.7,0.1-1l1.5,0.1
				C8.1,61.9,8.1,62.2,8.1,62.5z M121.4,61.9c0-0.3,0-0.7-0.1-1l1.5-0.1c0,0.3,0,0.7,0.1,1L121.4,61.9z M8.3,59.6l-1.5-0.1
				c0-0.3,0.1-0.7,0.1-1l1.5,0.2C8.4,58.9,8.3,59.2,8.3,59.6z M121.1,58.9c0-0.3-0.1-0.7-0.1-1l1.5-0.2c0,0.3,0.1,0.7,0.1,1
				L121.1,58.9z M8.7,56.6l-1.5-0.2c0-0.3,0.1-0.7,0.2-1l1.5,0.2C8.8,56,8.7,56.3,8.7,56.6z M120.8,56c-0.1-0.3-0.1-0.7-0.2-1
				l1.5-0.3c0.1,0.3,0.1,0.7,0.2,1L120.8,56z M9.2,53.7l-1.5-0.3c0.1-0.3,0.1-0.7,0.2-1l1.5,0.3C9.3,53.1,9.2,53.4,9.2,53.7z
				 M120.2,53.1c-0.1-0.3-0.1-0.6-0.2-1l1.5-0.3c0.1,0.3,0.1,0.7,0.2,1L120.2,53.1z M9.8,50.8l-1.5-0.4c0.1-0.3,0.2-0.7,0.3-1
				l1.4,0.4C10,50.2,9.9,50.5,9.8,50.8z M119.5,50.2c-0.1-0.3-0.2-0.6-0.3-0.9l1.4-0.4c0.1,0.3,0.2,0.7,0.3,1L119.5,50.2z M10.6,48
				l-1.4-0.4c0.1-0.3,0.2-0.6,0.3-1l1.4,0.5C10.8,47.3,10.7,47.7,10.6,48z M118.7,47.4c-0.1-0.3-0.2-0.6-0.3-0.9l1.4-0.5
				c0.1,0.3,0.2,0.6,0.3,1L118.7,47.4z M11.6,45.2l-1.4-0.5c0.1-0.3,0.2-0.6,0.4-0.9l1.4,0.5C11.8,44.5,11.7,44.9,11.6,45.2z
				 M117.7,44.6c-0.1-0.3-0.2-0.6-0.4-0.9l1.4-0.6c0.1,0.3,0.3,0.6,0.4,0.9L117.7,44.6z M12.7,42.4l-1.4-0.6
				c0.1-0.3,0.3-0.6,0.4-0.9l1.4,0.6C13,41.8,12.8,42.1,12.7,42.4z M116.6,41.9c-0.1-0.3-0.3-0.6-0.4-0.9l1.4-0.6
				c0.1,0.3,0.3,0.6,0.4,0.9L116.6,41.9z M13.9,39.7l-1.3-0.7c0.2-0.3,0.3-0.6,0.5-0.9l1.3,0.7C14.2,39.1,14.1,39.4,13.9,39.7z
				 M115.3,39.2c-0.1-0.3-0.3-0.6-0.5-0.9l1.3-0.7c0.2,0.3,0.3,0.6,0.5,0.9L115.3,39.2z M38.4,14.7l-0.7-1.3
				c0.3-0.2,0.6-0.3,0.9-0.5l0.7,1.3C39,14.4,38.7,14.6,38.4,14.7z M90.6,14.5c-0.3-0.2-0.6-0.3-0.9-0.4l0.7-1.3
				c0.3,0.1,0.6,0.3,0.9,0.5L90.6,14.5z M41,13.4l-0.6-1.4c0.3-0.1,0.6-0.3,0.9-0.4l0.6,1.4C41.6,13.1,41.3,13.3,41,13.4z
				 M87.9,13.2c-0.3-0.1-0.6-0.3-0.9-0.4l0.6-1.4c0.3,0.1,0.6,0.3,0.9,0.4L87.9,13.2z M43.7,12.3l-0.6-1.4c0.3-0.1,0.6-0.2,0.9-0.4
				l0.5,1.4C44.3,12,44,12.1,43.7,12.3z M85.2,12c-0.3-0.1-0.6-0.2-0.9-0.3l0.5-1.4c0.3,0.1,0.6,0.2,1,0.4L85.2,12z M46.5,11.2
				L46,9.8c0.3-0.1,0.6-0.2,1-0.3l0.5,1.4C47.1,11,46.8,11.1,46.5,11.2z M82.4,11c-0.3-0.1-0.6-0.2-0.9-0.3l0.4-1.4
				c0.3,0.1,0.6,0.2,1,0.3L82.4,11z M49.3,10.3l-0.4-1.4c0.3-0.1,0.7-0.2,1-0.3l0.4,1.5C50,10.2,49.6,10.3,49.3,10.3z M79.6,10.2
				c-0.3-0.1-0.6-0.2-1-0.2L79,8.5c0.3,0.1,0.7,0.2,1,0.3L79.6,10.2z M52.2,9.6l-0.3-1.5c0.3-0.1,0.7-0.1,1-0.2l0.3,1.5
				C52.8,9.5,52.5,9.5,52.2,9.6z M76.7,9.5c-0.3-0.1-0.6-0.1-1-0.2L76,7.8c0.3,0.1,0.7,0.1,1,0.2L76.7,9.5z M55.1,9l-0.3-1.5
				c0.3-0.1,0.7-0.1,1-0.2l0.2,1.5C55.8,8.9,55.4,9,55.1,9z M73.8,8.9c-0.3-0.1-0.6-0.1-1-0.1L73,7.3c0.3,0,0.7,0.1,1,0.2L73.8,8.9z
				 M58,8.6l-0.2-1.5c0.3,0,0.7-0.1,1-0.1L59,8.5C58.7,8.5,58.4,8.6,58,8.6z M70.8,8.6c-0.3,0-0.7-0.1-1-0.1L70,7
				c0.3,0,0.7,0.1,1,0.1L70.8,8.6z M61,8.4l-0.1-1.5c0.3,0,0.7,0,1-0.1L62,8.3C61.6,8.3,61.3,8.3,61,8.4z M67.9,8.3
				c-0.3,0-0.7,0-1,0L67,6.8c0.3,0,0.7,0,1,0L67.9,8.3z M63.9,8.2l0-1.5c0.3,0,0.6,0,0.8,0l0.2,0l0,1.5l-0.2,0
				C64.5,8.2,64.2,8.2,63.9,8.2z"/>
		</g>
		<rect x="33.7" y="55.2" fill="#FFFFFF" width="62" height="41"/>
		<polygon fill="#FFFFFF" points="64.8,69.7 33.9,96.1 95.6,96.1 		"/>
		<path fill="#231F20" d="M96.1,95.6L72.2,75.1c-0.3,0.4-0.7,0.7-1.1,1l22.4,19.3l2.7,1C96.4,96.1,96.3,95.8,96.1,95.6z"/>
		<polygon fill="#FFFFFF" points="95.6,55.2 64.7,82 33.9,55.2 64.8,28.3 		"/>
		<polygon fill="#FFFFFF" points="41.1,34.7 41.1,61.4 64.7,82 88.4,61.4 88.4,34.7 		"/>
		<path fill="#231F20" d="M95.9,54.5l-6.8-5.9V34.7c0-0.4-0.3-0.8-0.8-0.8h-16l-7.2-6.2c-0.3-0.2-0.7-0.2-1,0L57.1,34h-16
			c-0.4,0-0.8,0.3-0.8,0.8v13.8l-6.8,5.9c-0.3,0.1-0.6,0.4-0.6,0.7v41c0,0.4,0.3,0.8,0.8,0.8h62c0.4,0,0.8-0.3,0.8-0.8v-41
			C96.5,54.8,96.3,54.5,95.9,54.5z M89.2,50.6l5.3,4.6l-5.3,4.6V50.6z M64.8,29.3l5.4,4.7H59.4L64.8,29.3z M41.8,35.5h45.8v25.6
			L64.7,81L41.8,61.1V35.5z M40.3,50.6v9.2L35,55.2L40.3,50.6z M34.5,56.7l22,19.1l-22,18.9V56.7z M95,95.4H35.9l21.7-18.6l6.7,5.8
			c0.1,0.1,0.3,0.2,0.5,0.2c0.2,0,0.4-0.1,0.5-0.2L95,56.7V95.4z"/>
		<g>
			<circle fill="#FFFFFF" cx="24" cy="24.3" r="16.9"/>
			<path fill="#231F20" d="M24,41.9c-9.7,0-17.6-7.9-17.6-17.6c0-9.7,7.9-17.6,17.6-17.6c9.7,0,17.6,7.9,17.6,17.6
				C41.6,34,33.7,41.9,24,41.9z M24,8.2c-8.9,0-16.1,7.2-16.1,16.1c0,8.9,7.2,16.1,16.1,16.1c8.9,0,16.1-7.2,16.1-16.1
				C40.1,15.4,32.9,8.2,24,8.2z"/>
		</g>
		<g>
			<circle fill="#84DBFF" cx="24" cy="24.3" r="14.8"/>
		</g>
		<g>
			<circle fill="#FFFFFF" cx="110.9" cy="111.1" r="16.6"/>
			<path fill="#231F20" d="M110.9,128.4c-9.6,0-17.3-7.8-17.3-17.3c0-9.6,7.8-17.3,17.3-17.3c9.6,0,17.3,7.8,17.3,17.3
				C128.2,120.6,120.5,128.4,110.9,128.4z M110.9,95.3c-8.7,0-15.8,7.1-15.8,15.8s7.1,15.8,15.8,15.8c8.7,0,15.8-7.1,15.8-15.8
				S119.6,95.3,110.9,95.3z"/>
		</g>
		<g>
			<g>
				<line fill="#FFFFFF" x1="45.8" y1="44.8" x2="66.2" y2="44.8"/>
				<rect x="45.8" y="44.1" fill="#231F20" width="20.4" height="1.5"/>
			</g>
			<g>
				<line fill="#FFFFFF" x1="45.8" y1="49.3" x2="83.7" y2="49.3"/>
				<rect x="45.8" y="48.5" fill="#231F20" width="37.8" height="1.5"/>
			</g>
			<g>
				<line fill="#FFFFFF" x1="45.8" y1="53.7" x2="83.7" y2="53.7"/>
				<rect x="45.8" y="52.9" fill="#231F20" width="37.8" height="1.5"/>
			</g>
			<g>
				<line fill="#FFFFFF" x1="45.8" y1="58.1" x2="83.7" y2="58.1"/>
				<rect x="45.8" y="57.4" fill="#231F20" width="37.8" height="1.5"/>
			</g>
		</g>
		<g>
			<path fill="#FFFFFF" d="M109.5,2.2c-9.9,0-17.9,8-17.9,17.9c0,4,1.3,7.6,3.5,10.6l-3.5,7.4l7.4-3.5c3,2.2,6.6,3.5,10.6,3.5
				c9.9,0,17.9-8,17.9-17.9S119.5,2.2,109.5,2.2z"/>
			<path fill="#231F20" d="M91.6,38.8c-0.2,0-0.4-0.1-0.5-0.2c-0.2-0.2-0.3-0.6-0.1-0.8l3.3-7c-2.2-3.1-3.3-6.8-3.3-10.6
				c0-10.3,8.4-18.7,18.7-18.7c10.3,0,18.7,8.4,18.7,18.7s-8.4,18.7-18.7,18.7c-3.8,0-7.5-1.2-10.6-3.3l-7,3.3
				C91.8,38.8,91.7,38.8,91.6,38.8z M99,33.9c0.2,0,0.3,0,0.4,0.1c3,2.2,6.5,3.3,10.1,3.3c9.5,0,17.2-7.7,17.2-17.2
				c0-9.5-7.7-17.2-17.2-17.2c-9.5,0-17.2,7.7-17.2,17.2c0,3.6,1.1,7.1,3.3,10.1c0.2,0.2,0.2,0.5,0.1,0.8l-2.6,5.5l5.5-2.6
				C98.8,33.9,98.9,33.9,99,33.9z"/>
		</g>
		<g>
			<circle fill="#FFD05B" cx="109.5" cy="20.1" r="15.7"/>
		</g>
		<g>
			<path fill="#231F20" d="M96.8,20.1h-1.5c0-0.4,0-0.7,0-1.1l1.5,0.1C96.8,19.5,96.8,19.8,96.8,20.1z M97.1,17.3L95.6,17
				c0.1-0.3,0.2-0.7,0.3-1l1.4,0.4C97.3,16.7,97.2,17,97.1,17.3z M98,14.6L96.7,14c0.2-0.3,0.3-0.6,0.5-0.9l1.3,0.7
				C98.3,14.1,98.2,14.4,98,14.6z M99.5,12.2l-1.2-0.9c0.2-0.3,0.4-0.5,0.7-0.8l1.1,1C99.9,11.8,99.7,12,99.5,12.2z M101.5,10.2
				l-0.9-1.2c0.3-0.2,0.6-0.4,0.8-0.6l0.9,1.2C102,9.8,101.7,10,101.5,10.2z M103.9,8.7l-0.7-1.3c0.3-0.2,0.6-0.3,1-0.4l0.6,1.4
				C104.4,8.4,104.2,8.6,103.9,8.7z M106.5,7.7l-0.4-1.5c0.3-0.1,0.7-0.2,1-0.2l0.2,1.5C107.1,7.6,106.8,7.7,106.5,7.7z M109.3,7.4
				l0-1.5l0.2,0l0,1.5L109.3,7.4z"/>
		</g>
		<g>
			<path fill="#231F20" d="M109.5,34.4c-7.5,0-13.7-5.8-14.2-13.3l1.5-0.1c0.5,6.7,6,11.9,12.7,11.9c7,0,12.8-5.7,12.8-12.8
				c0-6.7-5.2-12.3-11.9-12.7l0.1-1.5c7.5,0.5,13.3,6.7,13.3,14.2C123.8,28,117.4,34.4,109.5,34.4z"/>
		</g>
		<path fill="#231F20" d="M112.8,19.4h-2.5v-4.9h2.5c0.7,0,1.3,0.6,1.3,1.3c0,0.4,0.3,0.8,0.8,0.8c0.4,0,0.8-0.3,0.8-0.8
			c0-1.6-1.3-2.8-2.8-2.8h-2.5v-1.7c0-0.4-0.3-0.8-0.8-0.8c-0.4,0-0.8,0.3-0.8,0.8V13h-2.5c-1.6,0-2.8,1.3-2.8,2.8V18
			c0,1.6,1.3,2.8,2.8,2.8h2.5v4.9h-2.5c-0.7,0-1.3-0.6-1.3-1.3c0-0.4-0.3-0.8-0.8-0.8s-0.8,0.3-0.8,0.8c0,1.6,1.3,2.8,2.8,2.8h2.5
			v1.7c0,0.4,0.3,0.8,0.8,0.8c0.4,0,0.8-0.3,0.8-0.8v-1.7h2.5c1.6,0,2.8-1.3,2.8-2.8v-2.2C115.7,20.6,114.4,19.4,112.8,19.4z
			 M106.3,19.4c-0.7,0-1.3-0.6-1.3-1.3v-2.2c0-0.7,0.6-1.3,1.3-1.3h2.5v4.9H106.3z M114.2,24.4c0,0.7-0.6,1.3-1.3,1.3h-2.5v-4.9h2.5
			c0.7,0,1.3,0.6,1.3,1.3V24.4z"/>
		<g>
			<g>
				<path fill="#84DBFF" d="M105,106.6l-4.2-4.2c-1.8,2.1-3,4.7-3.2,7.7h5.9C103.7,108.8,104.2,107.6,105,106.6z"/>
			</g>
			<g>
				<path fill="#FFD05B" d="M118.3,112.1c-0.2,1.3-0.7,2.5-1.4,3.5l4.2,4.2c1.8-2.1,3-4.7,3.2-7.7H118.3z"/>
			</g>
			<g>
				<path fill="#84DBFF" d="M103.5,112.1h-5.9c0.5,6.6,5.7,11.8,12.3,12.3v-5.9C106.6,118.1,104,115.4,103.5,112.1z"/>
			</g>
			<g>
				<path fill="#FF7058" d="M110.9,103.6c3.8,0,6.9,2.8,7.4,6.5h5.9c-0.5-6.9-6.3-12.3-13.3-12.3c-3.3,0-6.3,1.2-8.7,3.2l4.2,4.2
					C107.7,104.2,109.2,103.6,110.9,103.6z"/>
			</g>
			<g>
				<path fill="#FFD05B" d="M111.9,118.5v5.9c2.9-0.2,5.6-1.4,7.7-3.2l-4.2-4.2C114.4,117.8,113.2,118.3,111.9,118.5z"/>
			</g>
		</g>
		<g>
			<circle fill="#FF7058" cx="51.7" cy="21.6" r="2.5"/>
		</g>
		<g>
			<circle fill="#E6E9EE" cx="24.8" cy="82" r="2.5"/>
		</g>
		<g>
			<circle fill="#FFD05B" cx="60.8" cy="107.5" r="2.5"/>
		</g>
		<g>
			<circle fill="#84DBFF" cx="105" cy="64.9" r="2.5"/>
		</g>
		<g>
			<g>
				<path fill="#231F20" d="M51.7,129.5h-7.9c-0.4,0-0.8-0.3-0.8-0.8c0-0.4,0.3-0.7,0.8-0.7h7.9c0.4,0,0.8,0.3,0.8,0.7
					C52.4,129.2,52.1,129.5,51.7,129.5z"/>
			</g>
			<g>
				<path fill="#231F20" d="M44.5,126.6h-3.9c-0.4,0-0.8-0.3-0.8-0.8s0.3-0.8,0.8-0.8h3.9c0.4,0,0.8,0.3,0.8,0.8
					S44.9,126.6,44.5,126.6z"/>
			</g>
			<g>
				<path fill="#231F20" d="M40.2,129.5h-3.7c-0.4,0-0.8-0.3-0.8-0.8c0-0.4,0.3-0.7,0.8-0.7h3.7c0.4,0,0.8,0.3,0.8,0.7
					C40.9,129.2,40.6,129.5,40.2,129.5z"/>
			</g>
			<g>
				<path fill="#231F20" d="M48.1,126.6h-0.8c-0.4,0-0.8-0.3-0.8-0.8s0.3-0.8,0.8-0.8h0.8c0.4,0,0.8,0.3,0.8,0.8
					S48.5,126.6,48.1,126.6z"/>
			</g>
		</g>
		<g>
			<g>
				<path fill="#231F20" d="M91.3,4.4h-7.9c-0.4,0-0.8-0.3-0.8-0.8s0.3-0.8,0.8-0.8h7.9c0.4,0,0.8,0.3,0.8,0.8S91.7,4.4,91.3,4.4z"
					/>
			</g>
			<g>
				<path fill="#231F20" d="M84.1,1.5h-3.9c-0.4,0-0.8-0.3-0.8-0.8S79.8,0,80.2,0h3.9c0.4,0,0.8,0.3,0.8,0.8S84.5,1.5,84.1,1.5z"/>
			</g>
			<g>
				<path fill="#231F20" d="M79.7,4.4H76c-0.4,0-0.8-0.3-0.8-0.8s0.3-0.8,0.8-0.8h3.7c0.4,0,0.8,0.3,0.8,0.8S80.2,4.4,79.7,4.4z"/>
			</g>
			<g>
				<path fill="#231F20" d="M87.7,1.5h-0.8c-0.4,0-0.8-0.3-0.8-0.8S86.5,0,86.9,0h0.8c0.4,0,0.8,0.3,0.8,0.8S88.1,1.5,87.7,1.5z"/>
			</g>
		</g>
		<g>
			<g>
				<path fill="#231F20" d="M77.6,18.4c-0.2,0-0.4-0.1-0.5-0.2c-0.3-0.3-0.3-0.8,0-1.1l1.3-1.3c0.3-0.3,0.8-0.3,1.1,0
					c0.3,0.3,0.3,0.8,0,1.1l-1.3,1.3C78,18.3,77.8,18.4,77.6,18.4z"/>
			</g>
			<g>
				<path fill="#231F20" d="M73.7,22.3c-0.2,0-0.4-0.1-0.5-0.2c-0.3-0.3-0.3-0.8,0-1.1l1.3-1.3c0.3-0.3,0.8-0.3,1.1,0
					c0.3,0.3,0.3,0.8,0,1.1l-1.3,1.3C74,22.2,73.8,22.3,73.7,22.3z"/>
			</g>
			<g>
				<path fill="#231F20" d="M78.9,22.3c-0.2,0-0.4-0.1-0.5-0.2l-1.3-1.3c-0.3-0.3-0.3-0.8,0-1.1c0.3-0.3,0.8-0.3,1.1,0l1.3,1.3
					c0.3,0.3,0.3,0.8,0,1.1C79.2,22.2,79.1,22.3,78.9,22.3z"/>
			</g>
			<g>
				<path fill="#231F20" d="M74.9,18.4c-0.2,0-0.4-0.1-0.5-0.2l-1.3-1.3c-0.3-0.3-0.3-0.8,0-1.1c0.3-0.3,0.8-0.3,1.1,0l1.3,1.3
					c0.3,0.3,0.3,0.8,0,1.1C75.3,18.3,75.1,18.4,74.9,18.4z"/>
			</g>
		</g>
		<g>
			<g>
				<path fill="#231F20" d="M21.7,64.3c-0.2,0-0.4-0.1-0.5-0.2c-0.3-0.3-0.3-0.8,0-1.1l1.3-1.3c0.3-0.3,0.8-0.3,1.1,0
					c0.3,0.3,0.3,0.8,0,1.1l-1.3,1.3C22.1,64.3,21.9,64.3,21.7,64.3z"/>
			</g>
			<g>
				<path fill="#231F20" d="M17.8,68.3c-0.2,0-0.4-0.1-0.5-0.2c-0.3-0.3-0.3-0.8,0-1.1l1.3-1.3c0.3-0.3,0.8-0.3,1.1,0
					c0.3,0.3,0.3,0.8,0,1.1l-1.3,1.3C18.2,68.2,18,68.3,17.8,68.3z"/>
			</g>
			<g>
				<path fill="#231F20" d="M23,68.3c-0.2,0-0.4-0.1-0.5-0.2l-1.3-1.3c-0.3-0.3-0.3-0.8,0-1.1c0.3-0.3,0.8-0.3,1.1,0l1.3,1.3
					c0.3,0.3,0.3,0.8,0,1.1C23.4,68.2,23.2,68.3,23,68.3z"/>
			</g>
			<g>
				<path fill="#231F20" d="M19,64.3c-0.2,0-0.4-0.1-0.5-0.2l-1.3-1.3c-0.3-0.3-0.3-0.8,0-1.1c0.3-0.3,0.8-0.3,1.1,0l1.3,1.3
					c0.3,0.3,0.3,0.8,0,1.1C19.4,64.3,19.2,64.3,19,64.3z"/>
			</g>
		</g>
		<g>
			<g>
				<path fill="#231F20" d="M78.9,109.5c-0.2,0-0.4-0.1-0.5-0.2c-0.3-0.3-0.3-0.8,0-1.1l1.3-1.3c0.3-0.3,0.8-0.3,1.1,0
					c0.3,0.3,0.3,0.8,0,1.1l-1.3,1.3C79.3,109.4,79.1,109.5,78.9,109.5z"/>
			</g>
			<g>
				<path fill="#231F20" d="M75,113.5c-0.2,0-0.4-0.1-0.5-0.2c-0.3-0.3-0.3-0.8,0-1.1l1.3-1.3c0.3-0.3,0.8-0.3,1.1,0
					c0.3,0.3,0.3,0.8,0,1.1l-1.3,1.3C75.4,113.4,75.2,113.5,75,113.5z"/>
			</g>
			<g>
				<path fill="#231F20" d="M80.2,113.5c-0.2,0-0.4-0.1-0.5-0.2l-1.3-1.3c-0.3-0.3-0.3-0.8,0-1.1c0.3-0.3,0.8-0.3,1.1,0l1.3,1.3
					c0.3,0.3,0.3,0.8,0,1.1C80.6,113.4,80.4,113.5,80.2,113.5z"/>
			</g>
			<g>
				<path fill="#231F20" d="M76.3,109.5c-0.2,0-0.4-0.1-0.5-0.2l-1.3-1.3c-0.3-0.3-0.3-0.8,0-1.1c0.3-0.3,0.8-0.3,1.1,0l1.3,1.3
					c0.3,0.3,0.3,0.8,0,1.1C76.6,109.4,76.5,109.5,76.3,109.5z"/>
			</g>
		</g>
		<g>
			<g>
				<path fill="#231F20" d="M24,32.8c-4.7,0-8.5-3.8-8.5-8.5c0-2.4,1-4.8,2.9-6.4c1.8-1.6,4.2-2.4,6.7-2.1c3.9,0.4,7.1,3.6,7.5,7.5
					c0.2,1.9-0.1,3.7-1.1,5.3c-0.7,1.2-2.1,1.8-3.5,1.5c-1.4-0.4-2.3-1.5-2.3-3c0-0.4,0.3-0.8,0.8-0.8c0.4,0,0.8,0.3,0.8,0.8
					c0,0.9,0.6,1.4,1.2,1.5c0.6,0.2,1.4,0,1.8-0.8c0.8-1.3,1.1-2.8,0.9-4.4c-0.4-3.2-3-5.8-6.2-6.1c-2-0.2-4,0.4-5.5,1.7
					c-1.5,1.3-2.4,3.3-2.4,5.3c0,3.9,3.2,7,7,7c0.4,0,0.8,0.3,0.8,0.8C24.8,32.5,24.4,32.8,24,32.8z"/>
			</g>
			<g>
				<path fill="#231F20" d="M24,28.7c-2.4,0-4.4-2-4.4-4.4s2-4.4,4.4-4.4c1.1,0,2.1,0.4,2.9,1.1c0.2,0.1,0.3,0.3,0.3,0.6V27
					c0,0.2-0.1,0.4-0.3,0.6C26.1,28.3,25.1,28.7,24,28.7z M24,21.4c-1.6,0-2.9,1.3-2.9,2.9s1.3,2.9,2.9,2.9c0.7,0,1.3-0.3,1.6-0.5
					v-4.7C25.3,21.7,24.7,21.4,24,21.4z"/>
			</g>
			<g>
				<path fill="#231F20" d="M26.4,22.3c-0.4,0-0.8-0.3-0.8-0.8v-0.9c0-0.4,0.3-0.8,0.8-0.8c0.4,0,0.8,0.3,0.8,0.8v0.9
					C27.2,22,26.8,22.3,26.4,22.3z"/>
			</g>
		</g>
		<circle fill="#FFFFFF" cx="17.8" cy="111.9" r="15.8"/>
		<ellipse fill="#FFFFFF" cx="17.8" cy="111.9" rx="9.2" ry="15.8"/>
		<path fill="#231F20" d="M17.8,95.4c-9.1,0-16.5,7.4-16.5,16.5c0,9.1,7.4,16.5,16.5,16.5c9.1,0,16.5-7.4,16.5-16.5
			C34.3,102.8,26.9,95.4,17.8,95.4z M32.7,111.2h-5c-0.2-5.6-2-10.5-4.8-13.3C28.5,99.9,32.4,105,32.7,111.2z M17,97v14.2H9.3
			C9.5,103.7,12.8,97.6,17,97z M17,112.7v14.2c-4.2-0.7-7.5-6.7-7.7-14.2H17z M18.5,126.8v-14.2h7.7C26,120.1,22.7,126.2,18.5,126.8
			z M18.5,111.2V97c4.2,0.7,7.5,6.7,7.7,14.2H18.5z M12.6,97.8c-2.7,2.8-4.6,7.7-4.8,13.3h-5C3.1,105,7.1,99.9,12.6,97.8z
			 M2.8,112.7h5c0.2,5.6,2,10.5,4.8,13.3C7.1,123.9,3.1,118.8,2.8,112.7z M22.9,126c2.7-2.8,4.6-7.7,4.8-13.3h5
			C32.4,118.8,28.4,123.9,22.9,126z"/>
	</g>
</g>
</svg>
