<?xml version="1.0" encoding="utf-8"?>
<!-- Generator: Adobe Illustrator 18.0.0, SVG Export Plug-In . SVG Version: 6.00 Build 0)  -->
<!DOCTYPE svg PUBLIC "-//W3C//DTD SVG 1.1//EN" "http://www.w3.org/Graphics/SVG/1.1/DTD/svg11.dtd">
<svg version="1.1" id="Layer_1" xmlns="http://www.w3.org/2000/svg" xmlns:xlink="http://www.w3.org/1999/xlink" x="0px" y="0px"
	 viewBox="0 0 129.5 129.5" enable-background="new 0 0 129.5 129.5" xml:space="preserve">
<g>
	<g>
		<g>
			<g>
				<path fill="#231F20" d="M89.4,6.6c-0.2,0-0.4-0.1-0.5-0.2c-0.3-0.3-0.3-0.8,0-1.1l1.3-1.3c0.3-0.3,0.8-0.3,1.1,0
					c0.3,0.3,0.3,0.8,0,1.1l-1.3,1.3C89.8,6.6,89.6,6.6,89.4,6.6z"/>
			</g>
			<g>
				<path fill="#231F20" d="M85.4,10.7c-0.2,0-0.4-0.1-0.5-0.2c-0.3-0.3-0.3-0.8,0-1.1l1.3-1.3c0.3-0.3,0.8-0.3,1.1,0
					c0.3,0.3,0.3,0.8,0,1.1l-1.3,1.3C85.8,10.6,85.6,10.7,85.4,10.7z"/>
			</g>
			<g>
				<path fill="#231F20" d="M90.7,10.7c-0.2,0-0.4-0.1-0.5-0.2l-1.3-1.3c-0.3-0.3-0.3-0.8,0-1.1c0.3-0.3,0.8-0.3,1.1,0l1.3,1.3
					c0.3,0.3,0.3,0.8,0,1.1C91.1,10.6,90.9,10.7,90.7,10.7z"/>
			</g>
			<g>
				<path fill="#231F20" d="M86.7,6.6c-0.2,0-0.4-0.1-0.5-0.2l-1.3-1.3c-0.3-0.3-0.3-0.8,0-1.1c0.3-0.3,0.8-0.3,1.1,0l1.3,1.3
					c0.3,0.3,0.3,0.8,0,1.1C87.1,6.6,86.9,6.6,86.7,6.6z"/>
			</g>
		</g>
		<g>
			<g>
				<path fill="#231F20" d="M5.3,55.7c-0.2,0-0.4-0.1-0.5-0.2c-0.3-0.3-0.3-0.8,0-1.1L6,53.1c0.3-0.3,0.8-0.3,1.1,0
					c0.3,0.3,0.3,0.8,0,1.1l-1.3,1.3C5.7,55.6,5.5,55.7,5.3,55.7z"/>
			</g>
			<g>
				<path fill="#231F20" d="M1.3,59.7c-0.2,0-0.4-0.1-0.5-0.2c-0.3-0.3-0.3-0.8,0-1.1L2,57.1c0.3-0.3,0.8-0.3,1.1,0
					c0.3,0.3,0.3,0.8,0,1.1l-1.3,1.3C1.7,59.6,1.5,59.7,1.3,59.7z"/>
			</g>
			<g>
				<path fill="#231F20" d="M6.6,59.7c-0.2,0-0.4-0.1-0.5-0.2l-1.3-1.3c-0.3-0.3-0.3-0.8,0-1.1c0.3-0.3,0.8-0.3,1.1,0l1.3,1.3
					c0.3,0.3,0.3,0.8,0,1.1C7,59.6,6.8,59.7,6.6,59.7z"/>
			</g>
			<g>
				<path fill="#231F20" d="M2.6,55.7c-0.2,0-0.4-0.1-0.5-0.2l-1.3-1.3c-0.3-0.3-0.3-0.8,0-1.1c0.3-0.3,0.8-0.3,1.1,0l1.3,1.3
					c0.3,0.3,0.3,0.8,0,1.1C2.9,55.6,2.8,55.7,2.6,55.7z"/>
			</g>
		</g>
		<g>
			<g>
				<path fill="#231F20" d="M79.7,125c-0.2,0-0.4-0.1-0.5-0.2c-0.3-0.3-0.3-0.8,0-1.1l1.3-1.3c0.3-0.3,0.8-0.3,1.1,0
					c0.3,0.3,0.3,0.8,0,1.1l-1.3,1.3C80,124.9,79.8,125,79.7,125z"/>
			</g>
			<g>
				<path fill="#231F20" d="M75.6,129c-0.2,0-0.4-0.1-0.5-0.2c-0.3-0.3-0.3-0.8,0-1.1l1.3-1.3c0.3-0.3,0.8-0.3,1.1,0
					c0.3,0.3,0.3,0.8,0,1.1l-1.3,1.3C76,128.9,75.8,129,75.6,129z"/>
			</g>
			<g>
				<path fill="#231F20" d="M80.9,129c-0.2,0-0.4-0.1-0.5-0.2l-1.3-1.3c-0.3-0.3-0.3-0.8,0-1.1c0.3-0.3,0.8-0.3,1.1,0l1.3,1.3
					c0.3,0.3,0.3,0.8,0,1.1C81.3,128.9,81.1,129,80.9,129z"/>
			</g>
			<g>
				<path fill="#231F20" d="M76.9,125c-0.2,0-0.4-0.1-0.5-0.2l-1.3-1.3c-0.3-0.3-0.3-0.8,0-1.1c0.3-0.3,0.8-0.3,1.1,0l1.3,1.3
					c0.3,0.3,0.3,0.8,0,1.1C77.3,124.9,77.1,125,76.9,125z"/>
			</g>
		</g>
		<g>
			<g>
				<line fill="#FFFFFF" x1="0.7" y1="73.1" x2="8.8" y2="73.1"/>
				<path fill="#231F20" d="M8.8,73.9H0.7c-0.4,0-0.7-0.3-0.7-0.8s0.3-0.8,0.7-0.8h8.1c0.4,0,0.8,0.3,0.8,0.8S9.2,73.9,8.8,73.9z"/>
			</g>
			<g>
				<line fill="#FFFFFF" x1="8" y1="76" x2="12" y2="76"/>
				<path fill="#231F20" d="M12,76.8H8c-0.4,0-0.8-0.3-0.8-0.8s0.3-0.8,0.8-0.8H12c0.4,0,0.8,0.3,0.8,0.8S12.4,76.8,12,76.8z"/>
			</g>
			<g>
				<line fill="#FFFFFF" x1="12.5" y1="73.1" x2="16.2" y2="73.1"/>
				<path fill="#231F20" d="M16.2,73.9h-3.8c-0.4,0-0.8-0.3-0.8-0.8s0.3-0.8,0.8-0.8h3.8c0.4,0,0.8,0.3,0.8,0.8S16.6,73.9,16.2,73.9
					z"/>
			</g>
			<g>
				<line fill="#FFFFFF" x1="4.4" y1="76" x2="5.2" y2="76"/>
				<path fill="#231F20" d="M5.2,76.8H4.4c-0.4,0-0.7-0.3-0.7-0.8s0.3-0.8,0.7-0.8h0.8c0.4,0,0.8,0.3,0.8,0.8S5.6,76.8,5.2,76.8z"/>
			</g>
		</g>
		<g>
			<g>
				<line fill="#FFFFFF" x1="50.8" y1="117.5" x2="58.8" y2="117.5"/>
				<path fill="#231F20" d="M58.8,118.3h-8.1c-0.4,0-0.8-0.3-0.8-0.8s0.3-0.8,0.8-0.8h8.1c0.4,0,0.8,0.3,0.8,0.8
					S59.2,118.3,58.8,118.3z"/>
			</g>
			<g>
				<line fill="#FFFFFF" x1="58.1" y1="120.5" x2="62" y2="120.5"/>
				<path fill="#231F20" d="M62,121.2h-3.9c-0.4,0-0.8-0.3-0.8-0.8s0.3-0.8,0.8-0.8H62c0.4,0,0.8,0.3,0.8,0.8S62.4,121.2,62,121.2z"
					/>
			</g>
			<g>
				<line fill="#FFFFFF" x1="62.5" y1="117.5" x2="66.2" y2="117.5"/>
				<path fill="#231F20" d="M66.2,118.3h-3.8c-0.4,0-0.8-0.3-0.8-0.8s0.3-0.8,0.8-0.8h3.8c0.4,0,0.8,0.3,0.8,0.8
					S66.7,118.3,66.2,118.3z"/>
			</g>
			<g>
				<line fill="#FFFFFF" x1="54.4" y1="120.5" x2="55.2" y2="120.5"/>
				<path fill="#231F20" d="M55.2,121.2h-0.8c-0.4,0-0.8-0.3-0.8-0.8s0.3-0.8,0.8-0.8h0.8c0.4,0,0.8,0.3,0.8,0.8
					S55.6,121.2,55.2,121.2z"/>
			</g>
		</g>
		<path fill="#FFFFFF" d="M65,15.6c0,0-20.9,19.2-47.8,15.6c0,0-0.5,60.8,47.8,77.5c48.3-16.7,47.8-77.5,47.8-77.5
			C85.9,34.9,65,15.6,65,15.6z"/>
		<g>
			<path fill="#F1543F" d="M65,28.2v69.9c15.1-6.3,26-18.8,32.4-37.1c2.5-7.2,3.9-14.2,4.6-19.5C85.8,40.5,72.5,33.3,65,28.2z"/>
		</g>
		<g>
			<path fill="#FF7058" d="M65,98.1c-15.1-6.3-26-18.8-32.4-37.1c-2.5-7.2-3.9-14.2-4.6-19.5c16.3-1.1,29.5-8.3,37-13.4"/>
		</g>
		<path fill="#FFFFFF" d="M1.3,16.6c0,3.7,3,6.6,6.6,6.6h21.3c3.7,0,6.6-3,6.6-6.6c0-3-2-5.5-4.8-6.4c0-0.1,0-0.2,0-0.3
			c0-5.1-4.1-9.2-9.2-9.2c-3.6,0-6.6,2-8.2,5c-0.6-0.4-1.3-0.7-2.1-0.7c-2.1,0-3.7,1.7-3.7,3.7C7.9,9.2,8,9.6,8.1,10
			C8,10,8,10,7.9,10C4.3,10,1.3,13,1.3,16.6z"/>
		<path fill="#FFFFFF" d="M22.9,14.4c0,2.7,2.2,5,5,5h16c2.7,0,5-2.2,5-5c0-2.3-1.5-4.2-3.6-4.8c0-0.1,0-0.1,0-0.2
			c0-3.8-3.1-6.9-6.9-6.9c-2.7,0-5,1.5-6.1,3.7c-0.4-0.3-1-0.5-1.6-0.5c-1.5,0-2.8,1.3-2.8,2.8c0,0.3,0,0.6,0.1,0.9c0,0-0.1,0-0.1,0
			C25.2,9.4,22.9,11.7,22.9,14.4z"/>
		<path fill="#231F20" d="M46,9.1c-0.2-4.1-3.5-7.3-7.6-7.3c-2.6,0-5,1.3-6.4,3.5C31.6,5.1,31.2,5,30.7,5c-0.1,0-0.1,0-0.2,0
			c-1.7-3-4.9-5-8.6-5c-3.5,0-6.6,1.8-8.4,4.7c-0.6-0.3-1.2-0.4-1.8-0.4c-2.5,0-4.5,2-4.5,4.5c0,0.1,0,0.3,0,0.4
			c-3.7,0.4-6.7,3.5-6.7,7.4c0,4.1,3.3,7.4,7.4,7.4h21.3c2.8,0,5.2-1.6,6.5-3.9h8.1c3.2,0,5.7-2.6,5.7-5.7C49.6,12.1,48.1,10,46,9.1
			z M29.2,22.5H7.9c-3.2,0-5.9-2.6-5.9-5.9c0-3.2,2.6-5.9,5.9-5.9l0.1,0c0.2,0,0.5-0.1,0.6-0.3c0.2-0.2,0.2-0.5,0.1-0.7
			C8.7,9.5,8.7,9.1,8.7,8.8c0-1.6,1.3-3,3-3c0.6,0,1.2,0.2,1.7,0.5c0.2,0.1,0.4,0.2,0.6,0.1c0.2-0.1,0.4-0.2,0.5-0.4
			c1.5-2.8,4.3-4.6,7.5-4.6c3,0,5.6,1.6,7.1,3.9c-1.1,0.6-1.9,1.8-1.9,3.1c0,0.1,0,0.1,0,0.2c-2.8,0.4-5,2.8-5,5.7
			c0,3.2,2.6,5.7,5.7,5.7h6C32.9,21.6,31.2,22.5,29.2,22.5z M43.9,18.6h-16c-2.3,0-4.2-1.9-4.2-4.2c0-2.3,1.9-4.2,4.3-4.2
			c0,0,0,0,0,0c0.3,0,0.5-0.1,0.6-0.3c0.2-0.2,0.2-0.5,0.1-0.7c-0.1-0.2-0.1-0.4-0.1-0.6c0-1.1,0.9-2.1,2.1-2.1
			c0.4,0,0.8,0.1,1.2,0.4C32,7,32.3,7,32.5,7c0.2-0.1,0.4-0.2,0.5-0.4c1.1-2,3.1-3.3,5.4-3.3c3.4,0,6.1,2.8,6.1,6.1l0,0.2
			c0,0.3,0.2,0.7,0.5,0.8c1.8,0.5,3,2.2,3,4C48.1,16.7,46.2,18.6,43.9,18.6z"/>
		<rect x="81.1" y="76.3" fill="#FFFFFF" width="47.7" height="12"/>
		<rect x="81.1" y="61" fill="#FFFFFF" width="47.7" height="12"/>
		<rect x="81.1" y="45.8" fill="#FFFFFF" width="47.7" height="12"/>
		<rect x="83.7" y="57.8" fill="#FFFFFF" width="42.4" height="3.2"/>
		<rect x="83.7" y="73.1" fill="#FFFFFF" width="42.4" height="3.2"/>
		<path fill="#231F20" d="M128.8,58.6c0.4,0,0.8-0.3,0.8-0.8v-12c0-0.4-0.3-0.8-0.8-0.8h-16.4c1.2-8.1,1.2-13.7,1.2-13.8
			c0-0.2-0.1-0.4-0.3-0.6c-0.2-0.1-0.4-0.2-0.6-0.2c-2.2,0.3-4.4,0.4-6.6,0.4c-23,0-40.4-15.7-40.6-15.9c-0.3-0.3-0.7-0.3-1,0
			C64.3,15.3,47,31,23.9,31h0c-2.2,0-4.5-0.1-6.6-0.4c-0.2,0-0.4,0-0.6,0.2c-0.2,0.1-0.3,0.3-0.3,0.6c0,0.2-0.1,15.5,5.8,32.7
			c5.4,15.9,17.2,36.7,42.5,45.5c0.1,0,0.2,0,0.2,0s0.2,0,0.2,0c12.8-4.4,22.1-12,28.9-20.4h34.5c0.4,0,0.8-0.3,0.8-0.8v-12
			c0-0.4-0.3-0.8-0.8-0.8h-1.9v-1.7h1.9c0.4,0,0.8-0.3,0.8-0.8V61c0-0.4-0.3-0.8-0.8-0.8h-1.9v-1.7H128.8z M65,108
			C21.1,92.6,18.1,39.5,18,32.1c2,0.2,4,0.3,6,0.3c0,0,0,0,0,0c21.4,0,38-13.2,41.1-15.8c3.1,2.6,19.7,15.8,41.1,15.8
			c2,0,4-0.1,6-0.3c0,1.8-0.3,6.6-1.3,12.9H81.1c-0.4,0-0.8,0.3-0.8,0.8v12c0,0.4,0.3,0.8,0.8,0.8h1.9v1.7h-1.9
			c-0.4,0-0.8,0.3-0.8,0.8v12c0,0.4,0.3,0.8,0.8,0.8h1.9v1.7h-1.9c-0.4,0-0.8,0.3-0.8,0.8v12c0,0.4,0.3,0.8,0.8,0.8h11.2
			C85.6,97,76.8,103.8,65,108z M128,77v10.5H81.8V77h44.3H128z M84.4,75.5v-1.7h40.9v1.7H84.4z M128,61.8v10.5H81.8V61.8h1.9h42.4
			H128z M84.4,60.3v-1.7h40.9v1.7H84.4z M81.8,57.1V46.5H128v10.5H81.8z"/>
		<g>
			<circle fill="#FFFFFF" cx="88" cy="51.8" r="2"/>
			<path fill="#231F20" d="M88,54.6c-1.5,0-2.8-1.3-2.8-2.8c0-1.5,1.3-2.8,2.8-2.8s2.8,1.3,2.8,2.8C90.8,53.3,89.6,54.6,88,54.6z
				 M88,50.5c-0.7,0-1.3,0.6-1.3,1.3c0,0.7,0.6,1.3,1.3,1.3c0.7,0,1.3-0.6,1.3-1.3C89.3,51.1,88.8,50.5,88,50.5z"/>
		</g>
		<g>
			<circle fill="#FFFFFF" cx="94.6" cy="51.8" r="2"/>
			<path fill="#231F20" d="M94.6,54.6c-1.5,0-2.8-1.3-2.8-2.8c0-1.5,1.3-2.8,2.8-2.8c1.5,0,2.8,1.3,2.8,2.8
				C97.4,53.3,96.1,54.6,94.6,54.6z M94.6,50.5c-0.7,0-1.3,0.6-1.3,1.3c0,0.7,0.6,1.3,1.3,1.3c0.7,0,1.3-0.6,1.3-1.3
				C95.9,51.1,95.3,50.5,94.6,50.5z"/>
		</g>
		<g>
			<circle fill="#FFFFFF" cx="101.1" cy="51.8" r="2"/>
			<path fill="#231F20" d="M101.1,54.6c-1.5,0-2.8-1.3-2.8-2.8c0-1.5,1.3-2.8,2.8-2.8s2.8,1.3,2.8,2.8
				C103.9,53.3,102.6,54.6,101.1,54.6z M101.1,50.5c-0.7,0-1.3,0.6-1.3,1.3c0,0.7,0.6,1.3,1.3,1.3c0.7,0,1.3-0.6,1.3-1.3
				C102.4,51.1,101.8,50.5,101.1,50.5z"/>
		</g>
		<g>
			<circle fill="#FFFFFF" cx="88" cy="67.1" r="2"/>
			<path fill="#231F20" d="M88,69.8c-1.5,0-2.8-1.3-2.8-2.8c0-1.5,1.3-2.8,2.8-2.8s2.8,1.3,2.8,2.8C90.8,68.6,89.6,69.8,88,69.8z
				 M88,65.8c-0.7,0-1.3,0.6-1.3,1.3c0,0.7,0.6,1.3,1.3,1.3c0.7,0,1.3-0.6,1.3-1.3C89.3,66.3,88.8,65.8,88,65.8z"/>
		</g>
		<g>
			<circle fill="#FFFFFF" cx="94.6" cy="67.1" r="2"/>
			<path fill="#231F20" d="M94.6,69.8c-1.5,0-2.8-1.3-2.8-2.8c0-1.5,1.3-2.8,2.8-2.8c1.5,0,2.8,1.3,2.8,2.8
				C97.4,68.6,96.1,69.8,94.6,69.8z M94.6,65.8c-0.7,0-1.3,0.6-1.3,1.3c0,0.7,0.6,1.3,1.3,1.3c0.7,0,1.3-0.6,1.3-1.3
				C95.9,66.3,95.3,65.8,94.6,65.8z"/>
		</g>
		<g>
			<circle fill="#FFFFFF" cx="101.1" cy="67.1" r="2"/>
			<path fill="#231F20" d="M101.1,69.8c-1.5,0-2.8-1.3-2.8-2.8c0-1.5,1.3-2.8,2.8-2.8s2.8,1.3,2.8,2.8
				C103.9,68.6,102.6,69.8,101.1,69.8z M101.1,65.8c-0.7,0-1.3,0.6-1.3,1.3c0,0.7,0.6,1.3,1.3,1.3c0.7,0,1.3-0.6,1.3-1.3
				C102.4,66.3,101.8,65.8,101.1,65.8z"/>
		</g>
		<g>
			<circle fill="#FFFFFF" cx="88" cy="82.3" r="2"/>
			<path fill="#231F20" d="M88,85.1c-1.5,0-2.8-1.3-2.8-2.8s1.3-2.8,2.8-2.8s2.8,1.3,2.8,2.8S89.6,85.1,88,85.1z M88,81
				c-0.7,0-1.3,0.6-1.3,1.3c0,0.7,0.6,1.3,1.3,1.3c0.7,0,1.3-0.6,1.3-1.3C89.3,81.6,88.8,81,88,81z"/>
		</g>
		<g>
			<circle fill="#FFFFFF" cx="94.6" cy="82.3" r="2"/>
			<path fill="#231F20" d="M94.6,85.1c-1.5,0-2.8-1.3-2.8-2.8s1.3-2.8,2.8-2.8c1.5,0,2.8,1.3,2.8,2.8S96.1,85.1,94.6,85.1z M94.6,81
				c-0.7,0-1.3,0.6-1.3,1.3c0,0.7,0.6,1.3,1.3,1.3c0.7,0,1.3-0.6,1.3-1.3C95.9,81.6,95.3,81,94.6,81z"/>
		</g>
		<g>
			<circle fill="#FFFFFF" cx="101.1" cy="82.3" r="2"/>
			<path fill="#231F20" d="M101.1,85.1c-1.5,0-2.8-1.3-2.8-2.8s1.3-2.8,2.8-2.8s2.8,1.3,2.8,2.8S102.6,85.1,101.1,85.1z M101.1,81
				c-0.7,0-1.3,0.6-1.3,1.3c0,0.7,0.6,1.3,1.3,1.3c0.7,0,1.3-0.6,1.3-1.3C102.4,81.6,101.8,81,101.1,81z"/>
		</g>
		<g>
			<g>
				<circle fill="#4CDBC4" cx="10.5" cy="98.5" r="9.2"/>
			</g>
			<g>
				<circle fill="#FFFFFF" cx="10.5" cy="94.5" r="2"/>
				<path fill="#231F20" d="M10.5,97.3c-1.5,0-2.8-1.3-2.8-2.8c0-1.5,1.3-2.8,2.8-2.8c1.5,0,2.8,1.3,2.8,2.8
					C13.3,96,12.1,97.3,10.5,97.3z M10.5,93.2c-0.7,0-1.3,0.6-1.3,1.3c0,0.7,0.6,1.3,1.3,1.3c0.7,0,1.3-0.6,1.3-1.3
					C11.8,93.8,11.3,93.2,10.5,93.2z"/>
			</g>
			<g>
				<path fill="#FFFFFF" d="M5.4,103.5c0-2.8,2.3-5.1,5.1-5.1c2.8,0,5.1,2.3,5.1,5.1"/>
				<path fill="#231F20" d="M16.4,103.5h-1.5c0-2.4-1.9-4.3-4.3-4.3c-2.4,0-4.3,1.9-4.3,4.3H4.7c0-3.2,2.6-5.8,5.8-5.8
					C13.8,97.7,16.4,100.3,16.4,103.5z"/>
			</g>
			<g>
				<circle fill="#84DBFF" cx="31" cy="105.8" r="9.2"/>
			</g>
			<g>
				<circle fill="#FFFFFF" cx="31" cy="101.7" r="2"/>
				<path fill="#231F20" d="M31,104.5c-1.5,0-2.8-1.3-2.8-2.8c0-1.5,1.3-2.8,2.8-2.8c1.5,0,2.8,1.3,2.8,2.8
					C33.8,103.3,32.5,104.5,31,104.5z M31,100.4c-0.7,0-1.3,0.6-1.3,1.3s0.6,1.3,1.3,1.3c0.7,0,1.3-0.6,1.3-1.3S31.7,100.4,31,100.4
					z"/>
			</g>
			<g>
				<path fill="#FFFFFF" d="M25.9,110.8c0-2.8,2.3-5.1,5.1-5.1s5.1,2.3,5.1,5.1"/>
				<path fill="#231F20" d="M36.8,110.8h-1.5c0-2.4-1.9-4.3-4.3-4.3c-2.4,0-4.3,1.9-4.3,4.3h-1.5c0-3.2,2.6-5.8,5.8-5.8
					C34.2,104.9,36.8,107.6,36.8,110.8z"/>
			</g>
			<g>
				<circle fill="#CED5E0" cx="12.6" cy="119" r="9.2"/>
			</g>
			<g>
				<circle fill="#FFFFFF" cx="12.6" cy="114.9" r="2"/>
				<path fill="#231F20" d="M12.6,117.7c-1.5,0-2.8-1.3-2.8-2.8c0-1.5,1.3-2.8,2.8-2.8c1.5,0,2.8,1.3,2.8,2.8
					C15.4,116.5,14.1,117.7,12.6,117.7z M12.6,113.6c-0.7,0-1.3,0.6-1.3,1.3s0.6,1.3,1.3,1.3c0.7,0,1.3-0.6,1.3-1.3
					S13.3,113.6,12.6,113.6z"/>
			</g>
			<g>
				<path fill="#FFFFFF" d="M7.5,124c0-2.8,2.3-5.1,5.1-5.1s5.1,2.3,5.1,5.1"/>
				<path fill="#231F20" d="M18.4,124h-1.5c0-2.4-1.9-4.3-4.3-4.3c-2.4,0-4.3,1.9-4.3,4.3H6.7c0-3.2,2.6-5.8,5.8-5.8
					C15.8,118.2,18.4,120.8,18.4,124z"/>
			</g>
		</g>
		<circle fill="#FFFFFF" cx="102.5" cy="111.4" r="17"/>
		<ellipse fill="#FFFFFF" cx="102.5" cy="111.4" rx="9.2" ry="17"/>
		<path fill="#231F20" d="M102.5,93.6c-9.8,0-17.8,8-17.8,17.8c0,9.8,8,17.8,17.8,17.8c9.8,0,17.8-8,17.8-17.8
			C120.3,101.6,112.3,93.6,102.5,93.6z M103.3,95.2c4.1,0.7,7.5,7.4,7.7,15.5h-7.7V95.2z M101.8,95.2v15.5h-7.7
			C94.3,102.7,97.7,96,101.8,95.2z M101.8,112.2v15.5c-4.1-0.7-7.5-7.4-7.7-15.5H101.8z M103.3,127.6v-15.5h7.7
			C110.8,120.2,107.4,126.9,103.3,127.6z M118.8,110.7h-6.3c-0.1-6.4-2.1-11.9-5-14.8C113.8,97.9,118.5,103.7,118.8,110.7z
			 M97.6,95.9c-2.9,2.9-4.9,8.3-5,14.8h-6.3C86.6,103.7,91.2,97.9,97.6,95.9z M86.3,112.2h6.3c0.1,6.4,2.1,11.9,5,14.8
			C91.2,124.9,86.6,119.1,86.3,112.2z M107.5,126.9c2.9-2.9,4.9-8.3,5-14.8h6.3C118.5,119.1,113.8,124.9,107.5,126.9z"/>
		<g>
			<g>
				<path fill="#FFFFFF" d="M106.9,0.8c12,0,21.8,9.8,21.8,21.8"/>
				<path fill="#231F20" d="M128.8,23.4c-0.4,0-0.8-0.3-0.8-0.8c0-11.6-9.5-21.1-21.1-21.1c-0.4,0-0.8-0.3-0.8-0.8s0.3-0.8,0.8-0.8
					c12.4,0,22.6,10.1,22.6,22.6C129.5,23,129.2,23.4,128.8,23.4z"/>
			</g>
			<g>
				<path fill="#FFFFFF" d="M106.9,6.5c8.9,0,16.1,7.2,16.1,16.1"/>
				<path fill="#231F20" d="M123.1,23.4c-0.4,0-0.8-0.3-0.8-0.8c0-8.5-6.9-15.4-15.4-15.4c-0.4,0-0.8-0.3-0.8-0.8
					c0-0.4,0.3-0.8,0.8-0.8c9.3,0,16.9,7.6,16.9,16.9C123.8,23,123.5,23.4,123.1,23.4z"/>
			</g>
			<g>
				<path fill="#FFFFFF" d="M106.9,12.9c5.4,0,9.7,4.4,9.7,9.7"/>
				<path fill="#231F20" d="M116.7,23.4c-0.4,0-0.8-0.3-0.8-0.8c0-5-4-9-9-9c-0.4,0-0.8-0.3-0.8-0.8c0-0.4,0.3-0.8,0.8-0.8
					c5.8,0,10.5,4.7,10.5,10.5C117.4,23,117.1,23.4,116.7,23.4z"/>
			</g>
			<g>
				<circle fill="#FFFFFF" cx="106.9" cy="22.6" r="4.1"/>
				<path fill="#231F20" d="M106.9,27.5c-2.7,0-4.9-2.2-4.9-4.9c0-2.7,2.2-4.9,4.9-4.9c2.7,0,4.9,2.2,4.9,4.9
					C111.8,25.3,109.6,27.5,106.9,27.5z M106.9,19.2c-1.8,0-3.4,1.5-3.4,3.4c0,1.8,1.5,3.4,3.4,3.4c1.8,0,3.4-1.5,3.4-3.4
					C110.3,20.8,108.8,19.2,106.9,19.2z"/>
			</g>
		</g>
		<polygon fill="#FFFFFF" points="52.2,51.4 40.5,47.9 44,59.6 46.8,54.2 		"/>
		<path fill="#231F20" d="M52.4,50.7l-11.7-3.5c-0.3-0.1-0.6,0-0.7,0.2c-0.2,0.2-0.3,0.5-0.2,0.7l3.5,11.7c0.1,0.3,0.3,0.5,0.7,0.5
			c0,0,0,0,0.1,0c0.3,0,0.5-0.2,0.7-0.4l2.3-4.5l3.9,3.9c0.1,0.1,0.3,0.2,0.5,0.2c0.2,0,0.4-0.1,0.5-0.2c0.3-0.3,0.3-0.8,0-1.1
			L48,54.4l4.5-2.3c0.3-0.1,0.4-0.4,0.4-0.7C52.9,51.1,52.7,50.8,52.4,50.7z M46.4,53.5c-0.1,0.1-0.3,0.2-0.3,0.3l-1.9,3.8L41.6,49
			l8.6,2.6L46.4,53.5z"/>
		<g>
			<circle fill="#84DBFF" cx="65" cy="5.9" r="2.5"/>
		</g>
		<g>
			<circle fill="#E6E9EE" cx="5.3" cy="37.2" r="2.5"/>
		</g>
		<g>
			<circle fill="#FFD05B" cx="126.1" cy="34.7" r="2.5"/>
		</g>
		<g>
			<circle fill="#FF7058" cx="123.6" cy="96.5" r="2.5"/>
		</g>
		<g>
			<circle fill="#E6E9EE" cx="33.1" cy="127" r="2.5"/>
		</g>
	</g>
</g>
</svg>
