<?xml version="1.0" encoding="utf-8"?>
<!-- Generator: Adobe Illustrator 18.0.0, SVG Export Plug-In . SVG Version: 6.00 Build 0)  -->
<!DOCTYPE svg PUBLIC "-//W3C//DTD SVG 1.1//EN" "http://www.w3.org/Graphics/SVG/1.1/DTD/svg11.dtd">
<svg version="1.1" id="Layer_1" xmlns="http://www.w3.org/2000/svg" xmlns:xlink="http://www.w3.org/1999/xlink" x="0px" y="0px"
	 viewBox="0 0 129.5 129.5" enable-background="new 0 0 129.5 129.5" xml:space="preserve">
<g>
	<g>
		<path fill="#231F20" d="M64.7,129.5c-0.3,0-0.6,0-0.9,0l0-1.5c0.3,0,0.6,0,0.9,0l0,1L64.7,129.5C64.8,129.5,64.7,129.5,64.7,129.5
			z M66.8,129.5l-0.1-1.5c0.3,0,0.7,0,1-0.1l0.1,1.5C67.5,129.4,67.2,129.4,66.8,129.5z M61.8,129.4c-0.3,0-0.7,0-1-0.1l0.1-1.5
			c0.3,0,0.7,0,1,0.1L61.8,129.4z M69.9,129.2l-0.2-1.5c0.3,0,0.7-0.1,1-0.1l0.2,1.5C70.6,129.2,70.2,129.2,69.9,129.2z M58.7,129.1
			c-0.3,0-0.7-0.1-1-0.1l0.2-1.5c0.3,0,0.7,0.1,1,0.1L58.7,129.1z M72.9,128.8l-0.3-1.5c0.3-0.1,0.6-0.1,1-0.2l0.3,1.5
			C73.6,128.7,73.2,128.8,72.9,128.8z M55.7,128.7c-0.3-0.1-0.7-0.1-1-0.2L55,127c0.3,0.1,0.6,0.1,1,0.2L55.7,128.7z M75.9,128.2
			l-0.3-1.5c0.3-0.1,0.6-0.2,1-0.2l0.4,1.5C76.5,128.1,76.2,128.1,75.9,128.2z M52.8,128c-0.3-0.1-0.7-0.2-1-0.3l0.4-1.4
			c0.3,0.1,0.6,0.2,1,0.3L52.8,128z M78.8,127.4l-0.4-1.4c0.3-0.1,0.6-0.2,0.9-0.3l0.5,1.4C79.5,127.2,79.2,127.3,78.8,127.4z
			 M49.8,127.2c-0.3-0.1-0.6-0.2-1-0.3l0.5-1.4c0.3,0.1,0.6,0.2,0.9,0.3L49.8,127.2z M81.7,126.5l-0.5-1.4c0.3-0.1,0.6-0.2,0.9-0.4
			l0.6,1.4C82.4,126.2,82,126.3,81.7,126.5z M47,126.1c-0.3-0.1-0.6-0.3-0.9-0.4l0.6-1.4c0.3,0.1,0.6,0.3,0.9,0.4L47,126.1z
			 M84.5,125.3l-0.6-1.4c0.3-0.1,0.6-0.3,0.9-0.4l0.6,1.4C85.1,125,84.8,125.2,84.5,125.3z M44.2,124.9c-0.3-0.1-0.6-0.3-0.9-0.4
			l0.7-1.3c0.3,0.1,0.6,0.3,0.9,0.4L44.2,124.9z M87.3,124l-0.7-1.3c0.3-0.2,0.6-0.3,0.9-0.5l0.7,1.3
			C87.9,123.7,87.6,123.8,87.3,124z M41.4,123.5c-0.3-0.2-0.6-0.3-0.9-0.5l0.8-1.3c0.3,0.2,0.6,0.3,0.9,0.5L41.4,123.5z M89.9,122.5
			l-0.8-1.3c0.3-0.2,0.6-0.3,0.8-0.5l0.8,1.3C90.5,122.1,90.2,122.3,89.9,122.5z M38.8,122c-0.3-0.2-0.6-0.4-0.9-0.6l0.8-1.2
			c0.3,0.2,0.5,0.4,0.8,0.5L38.8,122z M92.5,120.8l-0.9-1.2c0.3-0.2,0.5-0.4,0.8-0.6l0.9,1.2C93,120.4,92.7,120.6,92.5,120.8z
			 M36.3,120.3c-0.3-0.2-0.5-0.4-0.8-0.6l0.9-1.2c0.3,0.2,0.5,0.4,0.8,0.6L36.3,120.3z M94.9,119l-0.9-1.2c0.3-0.2,0.5-0.4,0.8-0.6
			l1,1.2C95.4,118.6,95.2,118.8,94.9,119z M33.9,118.4c-0.3-0.2-0.5-0.4-0.8-0.7l1-1.1c0.2,0.2,0.5,0.4,0.8,0.6L33.9,118.4z
			 M97.2,117l-1-1.1c0.2-0.2,0.5-0.4,0.7-0.7l1,1.1C97.7,116.6,97.5,116.8,97.2,117z M31.6,116.4c-0.2-0.2-0.5-0.5-0.7-0.7l1-1.1
			c0.2,0.2,0.5,0.5,0.7,0.7L31.6,116.4z M99.4,114.9l-1.1-1.1c0.2-0.2,0.5-0.5,0.7-0.7l1.1,1C99.9,114.4,99.7,114.7,99.4,114.9z
			 M29.4,114.2c-0.2-0.2-0.5-0.5-0.7-0.7l1.1-1c0.2,0.2,0.4,0.5,0.7,0.7L29.4,114.2z M101.5,112.7l-1.1-1c0.2-0.2,0.4-0.5,0.6-0.8
			l1.2,1C101.9,112.2,101.7,112.4,101.5,112.7z M27.4,112c-0.2-0.3-0.4-0.5-0.6-0.8l1.2-0.9c0.2,0.3,0.4,0.5,0.6,0.8L27.4,112z
			 M103.4,110.3l-1.2-0.9c0.2-0.3,0.4-0.5,0.6-0.8l1.2,0.9C103.8,109.8,103.6,110,103.4,110.3z M25.5,109.6
			c-0.2-0.3-0.4-0.5-0.6-0.8l1.2-0.9c0.2,0.3,0.4,0.5,0.6,0.8L25.5,109.6z M105.2,107.8l-1.2-0.8c0.2-0.3,0.4-0.5,0.5-0.8l1.3,0.8
			C105.5,107.3,105.4,107.6,105.2,107.8z M23.8,107.1c-0.2-0.3-0.4-0.6-0.5-0.9l1.3-0.8c0.2,0.3,0.3,0.6,0.5,0.8L23.8,107.1z
			 M106.8,105.2l-1.3-0.7c0.2-0.3,0.3-0.6,0.5-0.9l1.3,0.7C107.1,104.7,107,104.9,106.8,105.2z M22.3,104.4
			c-0.2-0.3-0.3-0.6-0.5-0.9l1.3-0.7c0.2,0.3,0.3,0.6,0.5,0.9L22.3,104.4z M108.2,102.6l-1.3-0.7c0.1-0.3,0.3-0.6,0.4-0.9l1.4,0.6
			C108.5,101.9,108.4,102.2,108.2,102.6z M20.9,101.7c-0.1-0.3-0.3-0.6-0.4-0.9l1.4-0.6c0.1,0.3,0.3,0.6,0.4,0.9L20.9,101.7z
			 M109.5,99.8l-1.4-0.6c0.1-0.3,0.3-0.6,0.4-0.9l1.4,0.6C109.8,99.2,109.6,99.5,109.5,99.8z M19.7,99c-0.1-0.3-0.2-0.6-0.4-0.9
			l1.4-0.5c0.1,0.3,0.2,0.6,0.4,0.9L19.7,99z M110.6,96.9l-1.4-0.5c0.1-0.3,0.2-0.6,0.3-0.9l1.4,0.5
			C110.8,96.3,110.7,96.6,110.6,96.9z M18.6,96.1c-0.1-0.3-0.2-0.6-0.3-1l1.4-0.4c0.1,0.3,0.2,0.6,0.3,0.9L18.6,96.1z M111.5,94
			l-1.4-0.4c0.1-0.3,0.2-0.6,0.3-1l1.5,0.4C111.7,93.4,111.6,93.7,111.5,94z M17.8,93.2c-0.1-0.3-0.2-0.7-0.2-1l1.5-0.3
			c0.1,0.3,0.2,0.6,0.2,1L17.8,93.2z M112.2,91.1l-1.5-0.3c0.1-0.3,0.1-0.6,0.2-1l1.5,0.3C112.4,90.4,112.3,90.7,112.2,91.1z
			 M17.1,90.2c-0.1-0.3-0.1-0.7-0.2-1l1.5-0.3c0.1,0.3,0.1,0.6,0.2,1L17.1,90.2z M112.8,88.1l-1.5-0.2c0-0.3,0.1-0.6,0.1-1l1.5,0.2
			C112.9,87.4,112.8,87.7,112.8,88.1z M16.6,87.2c0-0.3-0.1-0.7-0.1-1L18,86c0,0.3,0.1,0.7,0.1,1L16.6,87.2z M113.1,85l-1.5-0.1
			c0-0.3,0.1-0.7,0.1-1l1.5,0.1C113.2,84.4,113.1,84.7,113.1,85z M16.3,84.2c0-0.3,0-0.7-0.1-1l1.5-0.1c0,0.3,0,0.7,0.1,1L16.3,84.2
			z M113.3,82l-1.5,0c0-0.3,0-0.7,0-1v-0.3h1.5V81C113.3,81.3,113.3,81.7,113.3,82z M17.7,81.1h-1.5V81c0-0.3,0-0.6,0-0.9l1.5,0
			c0,0.3,0,0.6,0,0.9V81.1z M111.7,78.7c0-0.3,0-0.7-0.1-1l1.5-0.1c0,0.3,0,0.7,0.1,1L111.7,78.7z M17.8,78.2l-1.5-0.1
			c0-0.3,0-0.7,0.1-1l1.5,0.1C17.9,77.5,17.8,77.8,17.8,78.2z M111.5,75.8c0-0.3-0.1-0.7-0.1-1l1.5-0.2c0,0.3,0.1,0.7,0.1,1
			L111.5,75.8z M18.1,75.2L16.6,75c0-0.3,0.1-0.7,0.1-1l1.5,0.2C18.2,74.6,18.1,74.9,18.1,75.2z M111.1,72.9c-0.1-0.3-0.1-0.6-0.2-1
			l1.5-0.3c0.1,0.3,0.1,0.7,0.2,1L111.1,72.9z M18.5,72.3L17.1,72c0.1-0.3,0.1-0.7,0.2-1l1.5,0.3C18.6,71.7,18.6,72,18.5,72.3z
			 M110.5,70c-0.1-0.3-0.2-0.6-0.2-1l1.5-0.4c0.1,0.3,0.2,0.7,0.2,1L110.5,70z M19.2,69.4l-1.5-0.4c0.1-0.3,0.2-0.7,0.3-1l1.4,0.4
			C19.3,68.8,19.2,69.1,19.2,69.4z M109.7,67.1c-0.1-0.3-0.2-0.6-0.3-0.9l1.4-0.5c0.1,0.3,0.2,0.6,0.3,1L109.7,67.1z M20,66.6
			l-1.4-0.5c0.1-0.3,0.2-0.6,0.3-1l1.4,0.5C20.2,66,20.1,66.3,20,66.6z M108.8,64.4c-0.1-0.3-0.2-0.6-0.4-0.9l1.4-0.6
			c0.1,0.3,0.2,0.6,0.4,0.9L108.8,64.4z M21,63.8l-1.4-0.5c0.1-0.3,0.3-0.6,0.4-0.9l1.4,0.6C21.2,63.2,21.1,63.5,21,63.8z
			 M107.6,61.6c-0.1-0.3-0.3-0.6-0.4-0.9l1.4-0.6c0.1,0.3,0.3,0.6,0.4,0.9L107.6,61.6z M22.1,61.1l-1.4-0.6c0.1-0.3,0.3-0.6,0.4-0.9
			l1.3,0.7C22.4,60.5,22.3,60.8,22.1,61.1z M106.3,59c-0.2-0.3-0.3-0.6-0.5-0.9l1.3-0.7c0.2,0.3,0.3,0.6,0.5,0.9L106.3,59z
			 M23.5,58.4l-1.3-0.7c0.2-0.3,0.3-0.6,0.5-0.9l1.3,0.7C23.8,57.9,23.6,58.1,23.5,58.4z M104.9,56.4c-0.2-0.3-0.3-0.6-0.5-0.8
			l1.3-0.8c0.2,0.3,0.4,0.6,0.5,0.9L104.9,56.4z M25,55.9l-1.3-0.8c0.2-0.3,0.4-0.6,0.6-0.9l1.3,0.8C25.3,55.3,25.1,55.6,25,55.9z
			 M103.2,54c-0.2-0.3-0.4-0.5-0.6-0.8l1.2-0.9c0.2,0.3,0.4,0.5,0.6,0.8L103.2,54z M26.6,53.4l-1.2-0.9c0.2-0.3,0.4-0.5,0.6-0.8
			l1.2,0.9C27,52.9,26.8,53.2,26.6,53.4z M101.5,51.6c-0.2-0.3-0.4-0.5-0.6-0.8l1.2-1c0.2,0.3,0.4,0.5,0.6,0.8L101.5,51.6z
			 M28.4,51.1l-1.2-1c0.2-0.3,0.4-0.5,0.7-0.8l1.1,1C28.9,50.6,28.6,50.9,28.4,51.1z M99.6,49.4c-0.2-0.2-0.4-0.5-0.7-0.7l1.1-1
			c0.2,0.2,0.5,0.5,0.7,0.7L99.6,49.4z M30.4,48.9l-1.1-1c0.2-0.2,0.5-0.5,0.7-0.7l1.1,1C30.8,48.4,30.6,48.6,30.4,48.9z M97.5,47.2
			c-0.2-0.2-0.5-0.5-0.7-0.7l1-1.1c0.2,0.2,0.5,0.5,0.7,0.7L97.5,47.2z M32.5,46.8l-1-1.1c0.2-0.2,0.5-0.5,0.7-0.7l1,1.1
			C32.9,46.3,32.7,46.6,32.5,46.8z M95.3,45.2c-0.2-0.2-0.5-0.4-0.8-0.6l1-1.2c0.3,0.2,0.5,0.4,0.8,0.7L95.3,45.2z M34.7,44.8
			l-1-1.2c0.3-0.2,0.5-0.4,0.8-0.6l0.9,1.2C35.2,44.4,34.9,44.6,34.7,44.8z M93,43.4c-0.3-0.2-0.5-0.4-0.8-0.6l0.9-1.2
			c0.3,0.2,0.5,0.4,0.8,0.6L93,43.4z M37,43l-0.9-1.2c0.3-0.2,0.5-0.4,0.8-0.6l0.9,1.2C37.5,42.6,37.3,42.8,37,43z M90.6,41.7
			c-0.3-0.2-0.6-0.4-0.8-0.5l0.8-1.3c0.3,0.2,0.6,0.4,0.9,0.6L90.6,41.7z M39.4,41.3l-0.8-1.3c0.3-0.2,0.6-0.4,0.9-0.5l0.8,1.3
			C40,41,39.7,41.2,39.4,41.3z M88.1,40.1c-0.3-0.2-0.6-0.3-0.9-0.5l0.7-1.3c0.3,0.2,0.6,0.3,0.9,0.5L88.1,40.1z M42,39.8l-0.7-1.3
			c0.3-0.2,0.6-0.3,0.9-0.5l0.7,1.3C42.5,39.5,42.2,39.7,42,39.8z M85.5,38.8c-0.3-0.1-0.6-0.3-0.9-0.4l0.6-1.4
			c0.3,0.1,0.6,0.3,0.9,0.4L85.5,38.8z M44.6,38.5l-0.6-1.4c0.3-0.1,0.6-0.3,0.9-0.4l0.6,1.4C45.2,38.2,44.9,38.3,44.6,38.5z
			 M82.8,37.5c-0.3-0.1-0.6-0.2-0.9-0.4l0.5-1.4c0.3,0.1,0.6,0.3,0.9,0.4L82.8,37.5z M47.3,37.3l-0.6-1.4c0.3-0.1,0.6-0.2,0.9-0.4
			l0.5,1.4C47.9,37.1,47.6,37.2,47.3,37.3z"/>
		<path fill="#84DBFF" d="M78.3,43c-0.4,0.7-1,1.3-1.8,1.7c-0.1,0.1-0.2,0.1-0.4,0.2c-4.8,7.3-9.4,13.2-9.8,13.8l-0.5,0.6
			c0.3,0,0.6-0.1,0.9-0.1c1.8,0,2.9,0.8,3.5,1.4c0.2,0.2,0.3,0.4,0.5,0.6c0,0,0,0,0,0.1c0,0,0.4,0,0.4,0c0.1,0,0.3,0,0.4,0
			c3.4,0,6.5,2.3,7.5,5.5l0.5,1.5L78,69c-0.8,0.4-1.6,0.7-2.4,0.9c1.2,0.2,2.4,0.8,3.4,1.6c1.2,1,2,2.2,2.8,3.4
			c0.2,0.4,0.5,0.7,0.7,1.1c1.2,1.7,2.7,3.1,4.3,4.2c1.6,1.1,2.9,1.6,4.2,1.7c1.2,0,2.3-0.7,2.7-1.5c0.2-0.4,0.2-1.1,0.2-1.8
			c0-0.8,0-1.6-0.3-2.1c-0.4-0.6-1.4-1-2.5-1.5c-0.3-0.1-0.7-0.3-1-0.4c-2.4-1.1-4.7-3.5-3.8-6.2l0.1-0.2l0.1-0.2
			c0.5-0.8,1.4-1.3,2.4-1.3c0.5,0,1,0.1,1.5,0.4c0.6,0.3,1,0.7,1.3,1c0.1,0.1,0.2,0.2,0.2,0.2c0.5,0.5,1.4,0.7,2.7,0.7
			c0.4,0,0.7,0,1.1,0l0.1,0c0.4,0,0.7,0,1.1,0c0.5,0,0.9,0,1.3,0.1c1.1,0.2,2,0.8,2.6,1.2c1.4,1,2.5,2.2,3.5,3.5
			C101.9,59.7,92.1,47.9,78.3,43z M58.1,51.7c-0.5,0.2-1.1,0.6-1.6,0.9l-8.7,5c-1.1,0.7-2.1,1.2-2.4,2c-0.1,0.4-0.1,0.8,0,1.2
			c0.1,0.3,0.3,0.5,0.6,0.7c0-0.2,0-0.3,0.1-0.5c0.6-2.7,3.4-3.8,4.8-4.2c1.2-0.4,2.6-0.9,4.1-0.9c1.3,0,2.4,0.4,3.3,1
			c0.8,0.6,1.3,1.4,1.8,2.1c0.3,0.5,0.6,1,0.9,1.2c0.1,0,0.2,0.1,0.5,0.1c0.6,0,1.5-0.3,2.4-0.6c0.1,0,0.2,0,0.2-0.1l-0.8-1
			C63,58.3,60.9,55.6,58.1,51.7z M88.7,91.1c-0.5,0-1-0.1-1.5-0.3c-0.9-0.3-1.5-0.9-1.9-1.3L81.6,86c-3.1-2.9-6.3-6-9.1-9.4
			c-0.6-0.8-2.2-2.7-1.4-5l0.2-0.7l0.6-0.4c0.1-0.1,0.2-0.1,0.4-0.2c-0.5,0-1,0-1.5,0l-8.3-0.1c-0.8,0-2.7,0-3.8-1.5
			c-0.5-0.7-0.7-1.5-0.7-2c0-0.1,0-0.3-0.1-0.4c-0.1-0.5-0.7-1-1.5-1.3c-0.6-0.2-1.3-0.3-2.3-0.3c-0.3,0-0.7,0-1,0
			c-0.6,0-1.2,0-1.6,0.2c-0.2,0.1-0.4,0.3-0.7,0.5c-0.4,0.4-1,0.8-1.7,1.1c-0.9,0.4-1.7,0.4-2.4,0.4c-0.4,0-0.8,0-1,0.1
			c-0.5,0.2-1.1,0.8-1.7,1.4c-1.1,1.2-2.3,2.5-2.7,4c0,0.1-0.1,0.3-0.1,0.4c-0.1,0.4-0.2,0.9-0.4,1.4c-0.2,0.6-0.6,1.1-1,1.5
			c-1,1-1.4,2.4-1.3,3.8c0.2,1.9,0,3.9-0.7,5.7c-0.1,0.2-0.1,0.3-0.2,0.5c-0.2,0.5-0.4,1.1-0.4,1.4c0,0.8,1.3,1.5,2.6,1.9l0.7,0.2
			c1.8,0.5,4,1.1,5.3,3c0.1,0.2,0.3,0.4,0.4,0.6c0.1,0.2,0.2,0.4,0.3,0.4c0.1,0.1,0.5,0.2,0.8,0.3l6,2.1l0.2,1.2
			c0.5,3.3,1.8,6.5,3.8,9.2c0.5,0.1,1,0.4,1.4,0.9c0.7,0.9,1.1,2.2,0.9,3.2c-0.1,0.7-0.4,1.3-0.6,1.8c-0.1,0.3-0.3,0.6-0.3,0.8
			c-0.1,0.4,0.3,1.2,1,1.9c0.2,0.2,0.4,0.4,0.6,0.6c0.8,0.8,1.8,1.7,2.4,3c0.1,0.2,0.2,0.5,0.3,0.7c0.1,0.2,0.2,0.4,0.2,0.6
			c0.1,0,0.3,0,0.5,0c0.3,0,0.8,0.1,1.2,0.2c0.7,0.2,1.3,0.5,1.8,0.8c0.3,0.2,0.6,0.4,0.8,0.4l0,0c0.4,0,1-0.4,1.4-0.6
			c1.4-0.8,2.9-1.7,3.9-2.9c0.4-0.5,0.7-1,1.1-1.6c0.8-1.3,1.7-2.9,3.3-3.8c0.4-0.2,0.8-0.4,1.2-0.5c0.3-0.1,0.8-0.3,0.9-0.5
			c0.1-0.1,0.1-0.6,0.2-0.9c0-0.4,0.1-0.7,0.2-1.1c0.3-1.2,0.8-2.1,1.3-3c0.4-0.7,0.8-1.4,0.9-2c0-0.2,0-0.5,0-0.9
			c0-0.8,0-1.7,0.4-2.7c0.7-1.5,2-2.2,3-2.7l0.3-0.2c2.9-1.6,5.2-4.6,6.2-7.8C90.9,90.6,89.9,91.1,88.7,91.1z"/>
		<path fill="#FFFFFF" d="M73.1,59c0.8-0.2,1.5-0.1,2.2-0.6c0.4-0.3,0.9-0.7,1.4-0.8c0.4-0.1,0.9,0.1,1.3,0.3
			c1.1,0.4,2.2,0.5,3.4,0.3c0.5-0.1,1-0.2,1.2-0.7c0.2-0.5-0.1-1-0.6-1.2c-0.4-0.2-0.9-0.3-1.4-0.4c-0.5-0.1-1-0.3-1.3-0.7
			c-0.2-0.3-0.3-0.8-0.6-1.1c-0.7-0.6-1.9,0.5-2.8,0.1c-0.7-0.2-0.9-1.2-1.7-1.2c-0.6,0-1,0.5-1.2,1.1c-0.4,0.8-0.8,1.5-1.2,2.3
			c-0.2,0.3-0.3,0.6-0.4,0.9C71.4,58.3,72.2,59.1,73.1,59z"/>
		<path fill="#FFFFFF" d="M89.9,61.1c-0.4-0.1-0.8-0.3-1.2-0.4c-0.1,0-0.2-0.1-0.3-0.1c-0.1-0.1-0.1-0.3-0.1-0.5
			c-0.1-0.7-0.3-1.5-0.8-1.9c-0.4-0.3-0.8-0.5-1.2-0.8c-0.7-0.5-1.3-1.2-1.6-2c-0.2-0.5-0.3-1-0.1-1.5c0.2-0.5,0.7-0.9,1.1-1.3
			c0.1-0.1,0.3-0.2,0.4-0.1c0.1,0,0.1,0.1,0.2,0.1c0.3,0.4,0.4,0.9,0.4,1.4c0,0.2,0,0.3,0,0.5c0.1,0.3,0.5,0.4,0.8,0.5
			c0.7,0.3,1.2,1,1.7,1.7c0.4,0.5,0.7,1.1,1.1,1.6c0.3,0.5,0.7,1,0.6,1.6c0,0.6-0.6,1.1-1.2,0.9"/>
		<path fill="#FFFFFF" d="M64.8,0.7c-11.1,0-20.1,9-20.1,20.1c0,11.1,20.1,36.6,20.1,36.6s20.1-25.5,20.1-36.6
			C84.8,9.7,75.8,0.7,64.8,0.7z M64.8,29.7c-4.9,0-8.9-4-8.9-8.9s4-8.9,8.9-8.9c4.9,0,8.9,4,8.9,8.9S69.7,29.7,64.8,29.7z"/>
		<g>
			<path fill="#231F20" d="M77.7,40.1c4.2-6.9,7.9-14.4,7.9-19.2C85.6,9.3,76.2,0,64.8,0C53.3,0,43.9,9.3,43.9,20.8
				c0,4.9,3.6,12.3,7.8,19.2c-17.4,5.5-30,21.8-30,40.9c0,23.7,19.3,43,43,43c23.7,0,43-19.3,43-43C107.7,61.8,95.1,45.6,77.7,40.1z
				 M64.8,1.5c10.7,0,19.3,8.7,19.3,19.3c0,9.7-16,31.1-19.3,35.4c-3.3-4.3-19.3-25.8-19.3-35.4C45.4,10.2,54.1,1.5,64.8,1.5z
				 M23.3,81c0-18.6,12.4-34.4,29.3-39.6c1.7,2.7,3.4,5.3,5,7.7c-0.9,0.3-1.8,0.8-2.5,1.2l-8.7,5c-1.2,0.7-2.8,1.6-3.5,3.2
				c-0.4,1-0.4,2.3,0,3.4c0.5,1,1.3,1.8,2.3,2.2c0.7,0.2,1.4,0.2,2-0.1c1.1-0.5,1.2-1.4,1.3-2c0-0.1,0-0.3,0.1-0.4
				c0.3-1.2,1.6-1.8,3.1-2.4c1-0.4,2.1-0.7,3.2-0.7c0.7,0,1.2,0.2,1.7,0.5c0.5,0.3,0.8,0.9,1.1,1.4c0.5,0.7,1,1.5,1.8,2
				c0.5,0.3,1.2,0.5,1.9,0.5c1.1,0,2.2-0.4,3.2-0.7c1.7-0.6,2.9-0.5,3.6,0.2c0.1,0.1,0.2,0.2,0.3,0.3c0.2,0.3,0.5,0.7,1,0.9
				c0.4,0.2,1,0.2,1.5,0.2l0.2,0c2.1-0.1,4.1,1.2,5,3c-1.7,0.7-3.7,0.8-5.4,0.8l-8.2-0.1c-0.7,0-1.4-0.1-1.7-0.4
				c-0.1-0.2-0.2-0.5-0.3-0.9c0-0.2-0.1-0.4-0.1-0.6c-0.4-1.4-1.6-2.6-3.3-3.1c-1.1-0.3-2.2-0.4-3.1-0.4c-0.4,0-0.7,0-1.1,0
				c-0.8,0-1.8,0-2.7,0.5c-0.5,0.2-0.8,0.5-1.2,0.8c-0.3,0.3-0.7,0.6-1,0.7c-0.4,0.2-0.9,0.2-1.5,0.2c-0.5,0-1.1,0-1.6,0.2
				c-1.3,0.4-2.2,1.3-2.9,2.1c-1.2,1.3-2.8,3-3.3,5.1c0,0.2-0.1,0.4-0.1,0.6c-0.1,0.3-0.1,0.6-0.3,0.9c-0.1,0.3-0.3,0.5-0.5,0.8
				c-1.5,1.6-2.2,3.7-2,5.9c0.2,1.5,0,3.1-0.5,4.5c-0.1,0.2-0.1,0.3-0.2,0.5c-0.3,0.7-0.6,1.6-0.5,2.5c0.1,1.9,1.8,3.4,4.5,4.2
				l0.7,0.2c1.5,0.4,3,0.9,3.8,2c0.1,0.1,0.2,0.3,0.3,0.4c0.2,0.3,0.4,0.7,0.7,1c0.5,0.5,1.2,0.8,1.8,1l4.5,1.6
				c0.6,3.9,2.3,7.6,4.9,10.7l0.3,0.5l0.6-0.3c0.2,0.1,0.5,0.7,0.4,1.2c-0.1,0.4-0.2,0.7-0.4,1.1c-0.2,0.4-0.4,0.9-0.5,1.4
				c-0.3,1.4,0.3,2.8,1.7,4.3c0.2,0.2,0.5,0.5,0.7,0.7c0.7,0.7,1.4,1.4,1.8,2.2c0.1,0.2,0.1,0.4,0.2,0.5c0.2,0.6,0.5,1.4,1.2,1.8
				c0.6,0.4,1.2,0.5,1.8,0.5c0.1,0,0.2,0,0.3,0C41.4,122,23.3,103.5,23.3,81z M67.4,122.3c-0.4-0.1-0.8-0.3-1.2-0.6
				c-0.5-0.3-0.9-0.5-1.5-0.7c-0.4-0.1-0.7-0.1-1-0.1c-0.4,0-0.8-0.1-1.1-0.2c-0.3-0.2-0.5-0.6-0.6-1.1c-0.1-0.2-0.2-0.4-0.3-0.6
				c-0.5-1.1-1.3-1.9-2.1-2.6c-0.2-0.2-0.5-0.4-0.7-0.7c-0.7-0.7-1.5-1.9-1.3-2.9c0.1-0.3,0.2-0.7,0.4-1c0.2-0.4,0.5-0.9,0.5-1.5
				c0.1-0.7-0.2-1.7-0.7-2.3c-0.4-0.5-0.9-0.6-1.2-0.6h0c-2.3-2.9-3.8-6.4-4.3-10.1l-0.1-0.5L47,94.8c-0.5-0.2-0.9-0.3-1.2-0.6
				c-0.2-0.2-0.3-0.4-0.5-0.7c-0.1-0.2-0.2-0.4-0.3-0.5c-1.1-1.6-3-2.1-4.7-2.6l-0.7-0.2c-0.8-0.2-3.3-1.1-3.4-2.9
				c0-0.6,0.2-1.2,0.4-1.9c0.1-0.2,0.1-0.3,0.2-0.5c0.6-1.6,0.8-3.4,0.6-5.2c-0.2-1.7,0.4-3.5,1.6-4.7c0.3-0.4,0.6-0.8,0.8-1.2
				c0.2-0.4,0.2-0.8,0.3-1.2c0-0.2,0.1-0.3,0.1-0.5c0.5-1.7,1.8-3.2,3-4.4c0.8-0.8,1.4-1.5,2.2-1.7c0.4-0.1,0.8-0.1,1.3-0.1
				c0.6,0,1.3,0,2-0.3c0.6-0.2,1-0.6,1.4-0.9c0.3-0.3,0.6-0.5,0.9-0.7c0.6-0.3,1.3-0.3,2-0.3c0.4,0,0.7,0,1.1,0c0.8,0,1.7,0,2.6,0.3
				c0.9,0.3,2,1,2.3,2.1c0,0.2,0.1,0.3,0.1,0.5c0.1,0.5,0.2,1,0.5,1.5c0.8,1,2.1,1,2.9,1l8.3,0.1c2.1,0,4.6-0.1,6.7-1.2l0.5-0.3
				l-0.2-0.6c-0.9-2.8-3.8-4.9-6.8-4.7l-0.2,0c-0.3,0-0.6,0-0.8,0c-0.1-0.1-0.3-0.3-0.4-0.5c-0.1-0.2-0.2-0.3-0.4-0.5
				c-1-1.1-2.7-1.4-5.2-0.5c-1.4,0.5-2.9,0.9-3.8,0.3c-0.5-0.3-0.9-0.9-1.3-1.5c-0.4-0.7-0.8-1.3-1.5-1.8c-0.7-0.5-1.6-0.8-2.6-0.8
				c-1.3,0-2.6,0.4-3.7,0.8c-1.1,0.4-3.5,1.3-4,3.4c0,0.2-0.1,0.3-0.1,0.5c-0.1,0.5-0.1,0.7-0.5,0.9c-0.3,0.1-0.6,0.1-0.9,0
				c-0.6-0.2-1.1-0.7-1.4-1.4c-0.3-0.7-0.3-1.5,0-2.2c0.5-1.1,1.6-1.8,2.9-2.5l8.7-5c0.8-0.5,1.7-1,2.6-1.3c3,4.3,5.4,7.3,5.7,7.6
				l0.6,0.8l0.6-0.8c0.4-0.6,6.3-8,11.6-16.6c16.5,5.1,28.6,20.1,29.3,38.1c-1.3-3.1-3.1-6.2-5.9-8.3c-0.8-0.6-1.5-0.9-2.2-1
				c-0.6-0.1-1.4-0.1-2.1-0.1l-0.1,0c-0.4,0-0.8,0-1.1,0c-1.6,0-2.7-0.3-3.5-1c-0.1-0.1-0.2-0.2-0.3-0.3c-0.3-0.3-0.6-0.6-1-0.8
				c-0.8-0.4-1.9-0.2-2.3,0.5l-0.1,0.1c-0.7,2,1.1,3.9,3.1,4.8c0.3,0.1,0.6,0.3,0.9,0.4c1.3,0.5,2.5,1,3,2c0.4,0.7,0.4,1.6,0.4,2.6
				c0,0.8,0,1.5-0.2,2.2C94.3,82.2,92.5,83,91,83h0c-1.5,0-3-0.6-4.8-1.9c-1.8-1.2-3.3-2.8-4.6-4.5c-0.3-0.4-0.5-0.7-0.8-1.1
				c-0.8-1.1-1.5-2.2-2.6-3.1c-1.7-1.4-4.1-1.8-5.7-0.9l-0.2,0.1l-0.1,0.3c-0.5,1.5,0.5,3,1.3,4c2.7,3.4,5.9,6.4,8.9,9.3l3.7,3.5
				c0.4,0.4,0.9,0.8,1.5,1.1c0.3,0.1,0.7,0.2,1.1,0.2c1,0,1.9-0.4,2.7-0.8c0.7-0.3,1.4-0.7,2-0.7c-0.6,4.3-3.4,8.4-7.2,10.6L86,99.1
				c-0.9,0.5-2,1.1-2.5,2.2c-0.3,0.7-0.3,1.5-0.3,2.2c0,0.4,0,0.7,0,1c-0.1,0.8-0.6,1.6-1.1,2.4c-0.5,0.8-1,1.6-1.2,2.6
				c-0.1,0.3-0.1,0.6-0.1,0.9c-0.1,0.6-0.1,1.1-0.4,1.5c-0.3,0.4-0.8,0.6-1.4,0.9c-0.4,0.1-0.7,0.3-1.1,0.5
				c-1.4,0.8-2.1,2.1-2.9,3.4c-0.4,0.6-0.7,1.3-1.1,1.8c-1.1,1.4-2.7,2.3-4.2,3.1C68.8,122,68.1,122.4,67.4,122.3z M72.2,121.8
				c1-0.7,2-1.4,2.8-2.4c0.5-0.6,0.9-1.3,1.3-2c0.7-1.2,1.3-2.2,2.3-2.8c0.3-0.1,0.6-0.3,0.9-0.4c0.7-0.3,1.6-0.6,2.1-1.4
				c0.5-0.7,0.6-1.5,0.7-2.1c0-0.3,0.1-0.5,0.1-0.8c0.2-0.7,0.6-1.4,1-2.2c0.5-0.9,1.1-1.9,1.3-3c0.1-0.4,0-0.8,0-1.3
				c0-0.6,0-1.1,0.2-1.5c0.3-0.6,1-1,1.8-1.5l0.3-0.2c4.5-2.5,7.6-7.3,8-12.4l0-0.6l-0.5-0.2c-0.3-0.1-0.7-0.2-1.1-0.2
				c-1,0-1.9,0.4-2.7,0.8c-1,0.5-1.9,0.9-2.6,0.6c-0.4-0.1-0.7-0.5-1-0.8l-3.7-3.5c-3-2.9-6.2-5.8-8.8-9.1c-0.5-0.6-1.1-1.5-1.1-2.3
				c1-0.5,2.6-0.1,3.7,0.9c0.9,0.8,1.6,1.8,2.3,2.8c0.3,0.4,0.5,0.8,0.8,1.1c1.4,1.9,3,3.5,5,4.9c2,1.4,3.9,2.1,5.7,2.1
				c2.3,0,4.5-1.3,5.2-3.3c0.3-0.9,0.3-1.7,0.3-2.7c0-1.2-0.1-2.4-0.6-3.4c-0.8-1.4-2.4-2.1-3.8-2.6c-0.3-0.1-0.6-0.2-0.9-0.4
				c-1.3-0.6-2.5-1.7-2.3-2.8c0.1,0,0.2,0,0.3,0.1c0.2,0.1,0.4,0.3,0.6,0.5c0.1,0.1,0.2,0.2,0.4,0.3c1,0.9,2.5,1.4,4.5,1.4
				c0.4,0,0.8,0,1.2,0l0.2,0c0.6,0,1.3-0.1,1.7,0c0.5,0.1,1,0.4,1.6,0.8c3.2,2.3,4.9,6.2,6.2,9.7c0.2,0.4,0.3,0.8,0.5,1.2
				C105,102.6,90.8,118.4,72.2,121.8z"/>
			<path fill="#231F20" d="M74.4,20.8c0-5.3-4.3-9.6-9.6-9.6c-5.3,0-9.6,4.3-9.6,9.6c0,5.3,4.3,9.6,9.6,9.6
				C70.1,30.5,74.4,26.1,74.4,20.8z M56.6,20.8c0-4.5,3.6-8.1,8.1-8.1s8.1,3.6,8.1,8.1S69.2,29,64.8,29S56.6,25.3,56.6,20.8z"/>
		</g>
		<path fill="#FF7058" d="M64.7,54.3c-6.2-8.2-18.2-25.6-18.2-33.5c0-10,8.2-18.2,18.2-18.2c10,0,18.2,8.2,18.2,18.2
			C82.9,28.7,70.9,46.1,64.7,54.3z M64.7,10c-6,0-10.8,4.8-10.8,10.8s4.8,10.8,10.8,10.8c6,0,10.8-4.8,10.8-10.8S70.7,10,64.7,10z"
			/>
		<path fill="#231F20" d="M119.7,29.3H98.3c-4.2,0-7.6-3.4-7.6-7.6c0-3.4,2.2-6.3,5.3-7.3c0.2-4.7,4.1-8.5,8.9-8.5
			c3.1,0,6,1.6,7.6,4.3c0.7-0.3,1.5-0.5,2.3-0.5c3.1,0,5.6,2.5,5.6,5.6c3.5,0.4,6.3,3.4,6.3,7C126.7,26.2,123.6,29.3,119.7,29.3z
			 M104.9,7.4c-4.1,0-7.4,3.3-7.4,7.4c0,0,0,0.1,0,0.2c0,0.4-0.2,0.7-0.6,0.8c-2.8,0.6-4.7,3.1-4.7,5.9c0,3.4,2.7,6.1,6.1,6.1h21.4
			c3,0,5.5-2.5,5.5-5.5s-2.5-5.5-5.5-5.5c-0.2,0-0.5-0.1-0.6-0.3c-0.1-0.2-0.2-0.4-0.2-0.6c0-0.2,0-0.4,0-0.6c0-2.3-1.9-4.1-4.1-4.1
			c-0.8,0-1.5,0.2-2.2,0.6c-0.2,0.1-0.4,0.1-0.6,0.1c-0.2-0.1-0.4-0.2-0.5-0.4C110.3,9,107.8,7.4,104.9,7.4z"/>
		<path fill="#231F20" d="M29.9,36.7h-20c-3.9,0-7.2-3.2-7.2-7.2c0-3.1,2-5.9,5-6.8c0.2-4.4,3.9-8,8.4-8c2.9,0,5.6,1.5,7.1,4
			c0.7-0.3,1.4-0.4,2.1-0.4c2.9,0,5.3,2.3,5.3,5.2c3.3,0.4,5.9,3.2,5.9,6.6C36.5,33.8,33.5,36.7,29.9,36.7z M16.1,16.3
			c-3.8,0-6.9,3.1-6.9,6.9c0,0.4-0.2,0.8-0.6,0.9c-2.6,0.6-4.4,2.9-4.4,5.5c0,3.1,2.5,5.7,5.7,5.7h20c2.8,0,5.1-2.3,5.1-5.1
			c0-2.8-2.3-5.1-5.1-5.1c-0.2,0-0.4-0.1-0.6-0.3c-0.1-0.2-0.2-0.4-0.2-0.6c0-0.2,0-0.4,0-0.5c0-2.1-1.7-3.8-3.8-3.8
			c-0.7,0-1.4,0.2-2,0.6c-0.2,0.1-0.4,0.1-0.6,0.1c-0.2-0.1-0.4-0.2-0.5-0.4C21.1,17.8,18.7,16.3,16.1,16.3z"/>
		<g>
			<circle fill="#84DBFF" cx="15.7" cy="43" r="1.8"/>
		</g>
		<g>
			<circle fill="#FFD05B" cx="120.5" cy="59.6" r="1.8"/>
		</g>
		<g>
			<circle fill="#FFD05B" cx="5.4" cy="103.6" r="1.8"/>
		</g>
		<g>
			<g>
				<path fill="#231F20" d="M31.9,9.2c-0.2,0-0.4-0.1-0.5-0.2c-0.3-0.3-0.3-0.8,0-1.1l1.3-1.3c0.3-0.3,0.8-0.3,1.1,0
					c0.3,0.3,0.3,0.8,0,1.1L32.4,9C32.3,9.1,32.1,9.2,31.9,9.2z"/>
			</g>
			<g>
				<path fill="#231F20" d="M27.8,13.2c-0.2,0-0.4-0.1-0.5-0.2c-0.3-0.3-0.3-0.8,0-1.1l1.3-1.3c0.3-0.3,0.8-0.3,1.1,0
					c0.3,0.3,0.3,0.8,0,1.1L28.4,13C28.2,13.2,28,13.2,27.8,13.2z"/>
			</g>
			<g>
				<path fill="#231F20" d="M33.2,13.2c-0.2,0-0.4-0.1-0.5-0.2l-1.3-1.3c-0.3-0.3-0.3-0.8,0-1.1c0.3-0.3,0.8-0.3,1.1,0l1.3,1.3
					c0.3,0.3,0.3,0.8,0,1.1C33.5,13.2,33.4,13.2,33.2,13.2z"/>
			</g>
			<g>
				<path fill="#231F20" d="M29.1,9.2c-0.2,0-0.4-0.1-0.5-0.2l-1.3-1.3c-0.3-0.3-0.3-0.8,0-1.1c0.3-0.3,0.8-0.3,1.1,0l1.3,1.3
					C30,8.2,30,8.7,29.7,9C29.5,9.1,29.3,9.2,29.1,9.2z"/>
			</g>
		</g>
		<g>
			<g>
				<path fill="#231F20" d="M117.9,115.7c-0.2,0-0.4-0.1-0.5-0.2c-0.3-0.3-0.3-0.8,0-1.1l1.3-1.3c0.3-0.3,0.8-0.3,1.1,0
					s0.3,0.8,0,1.1l-1.3,1.3C118.2,115.6,118,115.7,117.9,115.7z"/>
			</g>
			<g>
				<path fill="#231F20" d="M113.8,119.7c-0.2,0-0.4-0.1-0.5-0.2c-0.3-0.3-0.3-0.8,0-1.1l1.3-1.3c0.3-0.3,0.8-0.3,1.1,0
					c0.3,0.3,0.3,0.8,0,1.1l-1.3,1.3C114.2,119.6,114,119.7,113.8,119.7z"/>
			</g>
			<g>
				<path fill="#231F20" d="M119.1,119.7c-0.2,0-0.4-0.1-0.5-0.2l-1.3-1.3c-0.3-0.3-0.3-0.8,0-1.1c0.3-0.3,0.8-0.3,1.1,0l1.3,1.3
					c0.3,0.3,0.3,0.8,0,1.1C119.5,119.6,119.3,119.7,119.1,119.7z"/>
			</g>
			<g>
				<path fill="#231F20" d="M115.1,115.7c-0.2,0-0.4-0.1-0.5-0.2l-1.3-1.3c-0.3-0.3-0.3-0.8,0-1.1c0.3-0.3,0.8-0.3,1.1,0l1.3,1.3
					c0.3,0.3,0.3,0.8,0,1.1C115.5,115.6,115.3,115.7,115.1,115.7z"/>
			</g>
		</g>
		<g>
			<g>
				<path fill="#231F20" d="M15.7,113.7c-0.2,0-0.4-0.1-0.5-0.2c-0.3-0.3-0.3-0.8,0-1.1l1.3-1.3c0.3-0.3,0.8-0.3,1.1,0
					c0.3,0.3,0.3,0.8,0,1.1l-1.3,1.3C16.1,113.6,15.9,113.7,15.7,113.7z"/>
			</g>
			<g>
				<path fill="#231F20" d="M11.7,117.7c-0.2,0-0.4-0.1-0.5-0.2c-0.3-0.3-0.3-0.8,0-1.1l1.3-1.3c0.3-0.3,0.8-0.3,1.1,0
					c0.3,0.3,0.3,0.8,0,1.1l-1.3,1.3C12,117.6,11.9,117.7,11.7,117.7z"/>
			</g>
			<g>
				<path fill="#231F20" d="M17,117.7c-0.2,0-0.4-0.1-0.5-0.2l-1.3-1.3c-0.3-0.3-0.3-0.8,0-1.1c0.3-0.3,0.8-0.3,1.1,0l1.3,1.3
					c0.3,0.3,0.3,0.8,0,1.1C17.4,117.6,17.2,117.7,17,117.7z"/>
			</g>
			<g>
				<path fill="#231F20" d="M12.9,113.7c-0.2,0-0.4-0.1-0.5-0.2l-1.3-1.3c-0.3-0.3-0.3-0.8,0-1.1c0.3-0.3,0.8-0.3,1.1,0l1.3,1.3
					c0.3,0.3,0.3,0.8,0,1.1C13.3,113.6,13.1,113.7,12.9,113.7z"/>
			</g>
		</g>
		<g>
			<g>
				<path fill="#231F20" d="M113,36.9h-8.1c-0.4,0-0.8-0.3-0.8-0.8c0-0.4,0.3-0.8,0.8-0.8h8.1c0.4,0,0.8,0.3,0.8,0.8
					C113.8,36.5,113.5,36.9,113,36.9z"/>
			</g>
			<g>
				<path fill="#231F20" d="M116.2,39.8h-4c-0.4,0-0.8-0.3-0.8-0.8s0.3-0.8,0.8-0.8h4c0.4,0,0.8,0.3,0.8,0.8S116.6,39.8,116.2,39.8z
					"/>
			</g>
			<g>
				<path fill="#231F20" d="M120.5,36.9h-3.8c-0.4,0-0.8-0.3-0.8-0.8c0-0.4,0.3-0.8,0.8-0.8h3.8c0.4,0,0.8,0.3,0.8,0.8
					C121.2,36.5,120.9,36.9,120.5,36.9z"/>
			</g>
			<g>
				<path fill="#231F20" d="M109.4,39.8h-0.8c-0.4,0-0.8-0.3-0.8-0.8s0.3-0.8,0.8-0.8h0.8c0.4,0,0.8,0.3,0.8,0.8
					S109.8,39.8,109.4,39.8z"/>
			</g>
		</g>
		<g>
			<g>
				<path fill="#231F20" d="M13.3,51H5.2c-0.4,0-0.8-0.3-0.8-0.8s0.3-0.8,0.8-0.8h8.1c0.4,0,0.8,0.3,0.8,0.8S13.7,51,13.3,51z"/>
			</g>
			<g>
				<path fill="#231F20" d="M16.5,53.9h-4c-0.4,0-0.8-0.3-0.8-0.8s0.3-0.8,0.8-0.8h4c0.4,0,0.8,0.3,0.8,0.8S16.9,53.9,16.5,53.9z"/>
			</g>
			<g>
				<path fill="#231F20" d="M20.7,51h-3.8c-0.4,0-0.8-0.3-0.8-0.8s0.3-0.8,0.8-0.8h3.8c0.4,0,0.8,0.3,0.8,0.8S21.1,51,20.7,51z"/>
			</g>
			<g>
				<path fill="#231F20" d="M9.6,53.9H8.8c-0.4,0-0.8-0.3-0.8-0.8s0.3-0.8,0.8-0.8h0.8c0.4,0,0.8,0.3,0.8,0.8S10,53.9,9.6,53.9z"/>
			</g>
		</g>
	</g>
</g>
</svg>
