<?xml version="1.0" encoding="utf-8"?>
<!-- Generator: Adobe Illustrator 18.0.0, SVG Export Plug-In . SVG Version: 6.00 Build 0)  -->
<!DOCTYPE svg PUBLIC "-//W3C//DTD SVG 1.1//EN" "http://www.w3.org/Graphics/SVG/1.1/DTD/svg11.dtd">
<svg version="1.1" id="Layer_1" xmlns="http://www.w3.org/2000/svg" xmlns:xlink="http://www.w3.org/1999/xlink" x="0px" y="0px"
	 viewBox="0 0 129.5 129.5" enable-background="new 0 0 129.5 129.5" xml:space="preserve">
<g>
	<g>
		<g>
			<circle fill="#84DBFF" cx="15.7" cy="42" r="2.4"/>
		</g>
		<g>
			<circle fill="#FFD05B" cx="114.1" cy="42" r="2.4"/>
		</g>
		<g>
			<circle fill="#E6E9EE" cx="100.7" cy="73.4" r="2.4"/>
		</g>
		<g>
			<g>
				<path fill="#231F20" d="M16.4,12.2c-0.2,0-0.4-0.1-0.5-0.2c-0.3-0.3-0.3-0.8,0-1.1l1.3-1.3c0.3-0.3,0.8-0.3,1.1,0
					c0.3,0.3,0.3,0.8,0,1.1L17,12C16.8,12.2,16.6,12.2,16.4,12.2z"/>
			</g>
			<g>
				<path fill="#231F20" d="M12.4,16.3c-0.2,0-0.4-0.1-0.5-0.2c-0.3-0.3-0.3-0.8,0-1.1l1.3-1.3c0.3-0.3,0.8-0.3,1.1,0
					c0.3,0.3,0.3,0.8,0,1.1L13,16.1C12.8,16.2,12.6,16.3,12.4,16.3z"/>
			</g>
			<g>
				<path fill="#231F20" d="M17.7,16.3c-0.2,0-0.4-0.1-0.5-0.2l-1.3-1.3c-0.3-0.3-0.3-0.8,0-1.1c0.3-0.3,0.8-0.3,1.1,0l1.3,1.3
					c0.3,0.3,0.3,0.8,0,1.1C18.1,16.2,17.9,16.3,17.7,16.3z"/>
			</g>
			<g>
				<path fill="#231F20" d="M13.7,12.2c-0.2,0-0.4-0.1-0.5-0.2l-1.3-1.3c-0.3-0.3-0.3-0.8,0-1.1s0.8-0.3,1.1,0l1.3,1.3
					c0.3,0.3,0.3,0.8,0,1.1C14.1,12.2,13.9,12.2,13.7,12.2z"/>
			</g>
		</g>
		<g>
			<g>
				<path fill="#231F20" d="M115.5,59c-0.2,0-0.4-0.1-0.5-0.2c-0.3-0.3-0.3-0.8,0-1.1l1.3-1.3c0.3-0.3,0.8-0.3,1.1,0
					c0.3,0.3,0.3,0.8,0,1.1l-1.3,1.3C115.9,58.9,115.7,59,115.5,59z"/>
			</g>
			<g>
				<path fill="#231F20" d="M111.4,63c-0.2,0-0.4-0.1-0.5-0.2c-0.3-0.3-0.3-0.8,0-1.1l1.3-1.3c0.3-0.3,0.8-0.3,1.1,0
					c0.3,0.3,0.3,0.8,0,1.1l-1.3,1.3C111.8,63,111.6,63,111.4,63z"/>
			</g>
			<g>
				<path fill="#231F20" d="M116.8,63c-0.2,0-0.4-0.1-0.5-0.2l-1.3-1.3c-0.3-0.3-0.3-0.8,0-1.1c0.3-0.3,0.8-0.3,1.1,0l1.3,1.3
					c0.3,0.3,0.3,0.8,0,1.1C117.1,63,117,63,116.8,63z"/>
			</g>
			<g>
				<path fill="#231F20" d="M112.7,59c-0.2,0-0.4-0.1-0.5-0.2l-1.3-1.3c-0.3-0.3-0.3-0.8,0-1.1c0.3-0.3,0.8-0.3,1.1,0l1.3,1.3
					c0.3,0.3,0.3,0.8,0,1.1C113.1,58.9,112.9,59,112.7,59z"/>
			</g>
		</g>
		<g>
			<g>
				<path fill="#231F20" d="M15.1,116.2c-0.2,0-0.4-0.1-0.5-0.2c-0.3-0.3-0.3-0.8,0-1.1l1.3-1.3c0.3-0.3,0.8-0.3,1.1,0
					c0.3,0.3,0.3,0.8,0,1.1l-1.3,1.3C15.5,116.1,15.3,116.2,15.1,116.2z"/>
			</g>
			<g>
				<path fill="#231F20" d="M11.1,120.2c-0.2,0-0.4-0.1-0.5-0.2c-0.3-0.3-0.3-0.8,0-1.1l1.3-1.3c0.3-0.3,0.8-0.3,1.1,0
					c0.3,0.3,0.3,0.8,0,1.1l-1.3,1.3C11.4,120.1,11.2,120.2,11.1,120.2z"/>
			</g>
			<g>
				<path fill="#231F20" d="M16.4,120.2c-0.2,0-0.4-0.1-0.5-0.2l-1.3-1.3c-0.3-0.3-0.3-0.8,0-1.1c0.3-0.3,0.8-0.3,1.1,0l1.3,1.3
					c0.3,0.3,0.3,0.8,0,1.1C16.7,120.1,16.6,120.2,16.4,120.2z"/>
			</g>
			<g>
				<path fill="#231F20" d="M12.3,116.2c-0.2,0-0.4-0.1-0.5-0.2l-1.3-1.3c-0.3-0.3-0.3-0.8,0-1.1c0.3-0.3,0.8-0.3,1.1,0l1.3,1.3
					c0.3,0.3,0.3,0.8,0,1.1C12.7,116.1,12.5,116.2,12.3,116.2z"/>
			</g>
		</g>
		<g>
			<path fill="#FFFFFF" stroke="#231F20" stroke-width="1.5" stroke-linecap="round" stroke-miterlimit="10" d="M95.8,89.6"/>
		</g>
		<path fill="#FF7058" d="M100.3,128.8v-6c0-19.5-15.8-35.4-35.4-35.4h0c-19.5,0-35.4,15.8-35.4,35.4v6H100.3z"/>
		<path fill="#FFFFFF" d="M74.2,87.2v-8.3H55.6v8.3c0,5.1,4.2,9.3,9.3,9.3l0,0C70,96.5,74.2,92.3,74.2,87.2z"/>
		<path fill="#CED5E0" d="M85.2,16.7c-0.4-5.3-4.8-9.3-9.8-8.8c-23.4,2.3-39-7.2-39-7.2s-0.9,10.6,3.4,18.8c-3.5,3-5.7,7.4-5.7,12.3
			v22.8c0,3.3,2.7,5.9,5.9,5.9h49.9c3.3,0,5.9-2.7,5.9-5.9V31.9C95.8,24.9,91.4,19,85.2,16.7z"/>
		<path fill="#FFFFFF" d="M90.1,48.4h-0.2v-6.5c-10.1-1-18.3-8.1-21-17.6C62.8,34.2,52.2,41.1,40,41.9v6.5h-0.2
			c-2,0-3.7,1.6-3.7,3.7s1.6,3.7,3.7,3.7H40v5c0,13.8,11.2,25,25,25c13.8,0,24.9-11.2,24.9-25v-5h0.2c2,0,3.7-1.6,3.7-3.7
			S92.1,48.4,90.1,48.4z"/>
		<g>
			<path fill="#231F20" d="M81.1,51.5c-0.4,0-0.7-0.3-0.7-0.6c-0.3-1.9-2-3.2-3.9-3.2c-1.9,0-3.5,1.4-3.9,3.2
				c-0.1,0.4-0.5,0.7-0.9,0.6c-0.4-0.1-0.7-0.5-0.6-0.9c0.5-2.6,2.7-4.4,5.3-4.4c2.6,0,4.9,1.9,5.3,4.4c0.1,0.4-0.2,0.8-0.6,0.9
				C81.2,51.5,81.2,51.5,81.1,51.5z"/>
		</g>
		<g>
			<path fill="#231F20" d="M57.9,51.5c-0.4,0-0.7-0.3-0.7-0.6c-0.3-1.9-2-3.2-3.9-3.2c-1.9,0-3.5,1.4-3.9,3.2
				c-0.1,0.4-0.5,0.7-0.9,0.6c-0.4-0.1-0.7-0.5-0.6-0.9c0.5-2.6,2.7-4.4,5.3-4.4c2.6,0,4.9,1.9,5.3,4.4c0.1,0.4-0.2,0.8-0.6,0.9
				C58,51.5,58,51.5,57.9,51.5z"/>
		</g>
		<g>
			<path fill="#84DBFF" d="M56.6,68.5c1,3.6,4.4,6.3,8.3,6.3c4,0,7.3-2.7,8.3-6.3H56.6z"/>
			<path fill="#231F20" d="M64.9,75.5c-4.2,0-7.9-2.8-9.1-6.9l-0.3-1h18.6l-0.3,1C72.8,72.7,69.1,75.5,64.9,75.5z M57.6,69.2
				c1.2,2.9,4.1,4.8,7.3,4.8c3.2,0,6-1.9,7.3-4.8H57.6z"/>
		</g>
		<g>
			<g>
				<path fill="#FFFFFF" d="M104,17.8c-0.8-2.2-1-4.7-0.5-7.2c1.5-6.8,8.3-11.1,15.2-9.6c6.8,1.5,11.1,8.3,9.6,15.2
					c-1.5,6.8-8.3,11.1-15.2,9.6c-2.5-0.6-4.6-1.8-6.3-3.5l-6.1,0.7L104,17.8z"/>
				<path fill="#231F20" d="M115.9,26.9c-1,0-2-0.1-3-0.3c-2.4-0.5-4.6-1.7-6.4-3.5l-5.7,0.7c-0.3,0-0.6-0.1-0.7-0.3
					c-0.2-0.2-0.2-0.6,0-0.8l3.1-4.8c-0.8-2.3-0.9-4.9-0.4-7.3C104.2,4.3,109.6,0,115.9,0c1,0,2,0.1,3,0.3
					c7.2,1.6,11.8,8.8,10.1,16.1C127.6,22.6,122.2,26.9,115.9,26.9z M106.8,21.5c0.2,0,0.4,0.1,0.5,0.2c1.6,1.7,3.7,2.8,5.9,3.3
					c0.9,0.2,1.8,0.3,2.6,0.3c5.5,0,10.4-3.9,11.6-9.3c1.4-6.4-2.6-12.8-9-14.3c-0.9-0.2-1.8-0.3-2.6-0.3c-5.6,0-10.4,3.8-11.6,9.3
					c-0.5,2.3-0.4,4.6,0.5,6.8c0.1,0.2,0.1,0.5-0.1,0.7l-2.4,3.8L106.8,21.5C106.7,21.5,106.8,21.5,106.8,21.5z"/>
			</g>
			<g>
				<g>
					<line fill="#FFFFFF" x1="122.2" y1="9.3" x2="109.4" y2="9.3"/>
					<rect x="109.4" y="8.5" fill="#231F20" width="12.9" height="1.5"/>
				</g>
				<g>
					<line fill="#FFFFFF" x1="122.2" y1="12.9" x2="109.4" y2="12.9"/>
					<rect x="109.4" y="12.1" fill="#231F20" width="12.9" height="1.5"/>
				</g>
				<g>
					<line fill="#FFFFFF" x1="122.2" y1="16.5" x2="114.1" y2="16.5"/>
					<rect x="114.1" y="15.7" fill="#231F20" width="8.1" height="1.5"/>
				</g>
			</g>
		</g>
		<circle fill="#FFFFFF" cx="95.8" cy="97.9" r="12.3"/>
		<path fill="#231F20" d="M108.9,97.9c0-7.2-5.9-13.1-13.1-13.1c-5.2,0-9.7,3-11.8,7.4c-2.8-1.8-5.9-3.2-9.1-4.1c0-0.3,0-0.6,0-0.9
			v-2.9c9-3.8,15.3-12.6,15.6-22.9c3.4-0.4,6-3.2,6-6.6V31.9c0-6.9-4.3-13.1-10.6-15.7c-0.6-5.4-5.3-9.5-10.6-9
			c-2.4,0.2-4.9,0.4-7.3,0.4c-18.8,0-31.1-7.4-31.2-7.5C36.5,0,36.3,0,36,0.1c-0.2,0.1-0.4,0.3-0.4,0.6c0,0.4-0.8,10.5,3.2,18.7
			c-3.5,3.2-5.5,7.7-5.5,12.5v22.8c0,3.4,2.6,6.3,6,6.6c0.3,10.3,6.7,19.1,15.6,22.9v2.9c0,0.3,0,0.6,0,0.9
			c-15.1,4.3-26.1,18.2-26.1,34.7v6.7H101v-6.7c0-4.3-0.8-8.3-2.1-12.1C104.6,109.3,108.9,104.1,108.9,97.9z M39.2,59.9
			c-2.5-0.4-4.4-2.5-4.4-5.1V31.9c0-4.5,2-8.8,5.4-11.7c0.3-0.2,0.3-0.6,0.2-0.9C37.1,12.9,37,4.9,37.1,2C40.5,3.8,52,9.1,68,9.1
			c2.5,0,5-0.1,7.5-0.4c4.6-0.5,8.7,3.3,9,8.1c0,0.3,0.2,0.6,0.5,0.7c6,2.2,10.1,8,10.1,14.5v22.8c0,2.6-1.9,4.7-4.5,5.1v-3.4
			c2.2-0.2,3.9-2.1,3.9-4.4c0-2.3-1.7-4.1-3.9-4.4v-5c0.6,0,1.1,0.1,1.7,0.1c0.4,0,0.8-0.3,0.8-0.8c0-0.4-0.3-0.8-0.8-0.8
			c-0.8,0-1.6,0-2.4-0.1c-9.6-0.9-17.7-7.8-20.4-17c-0.1-0.3-0.3-0.5-0.6-0.5c-0.3,0-0.6,0.1-0.7,0.4c-6.1,10-16.7,16.4-28.3,17.2
			c-0.9,0.1-1.8,0.1-2.7,0.1c-0.4,0-0.8,0.3-0.8,0.8c0,0.4,0.3,0.8,0.8,0.8c0.7,0,1.3,0,2-0.1v5c-2.2,0.2-3.9,2.1-3.9,4.4
			c0,2.3,1.7,4.1,3.9,4.4V59.9z M40.7,60.6v-5.7h-1c-1.6,0-2.9-1.3-2.9-2.9c0-1.6,1.3-2.9,2.9-2.9h1v-6.5c11.3-1,21.6-7.1,27.9-16.5
			c3.2,8.8,11.2,15.3,20.5,16.5v6.6h1c1.6,0,2.9,1.3,2.9,2.9c0,1.6-1.3,2.9-2.9,2.9h-1v5.7c0,13.3-10.9,24.2-24.2,24.2
			C51.6,84.8,40.7,74,40.7,60.6z M73.5,84.9v2.3c0,4.7-3.8,8.5-8.5,8.5s-8.5-3.8-8.5-8.5v-2.3c2.7,0.9,5.5,1.5,8.5,1.5
			C67.9,86.3,70.8,85.8,73.5,84.9z M99.5,122.8v5.2H85.7v-11.2h-1.5V128H45.7v-11.2h-1.5V128H30.3v-5.2c0-15.7,10.5-29,24.9-33.2
			c1.1,4.4,5,7.7,9.7,7.7c4.7,0,8.7-3.3,9.7-7.6c3.2,0.9,6.1,2.3,8.8,4c-0.5,1.3-0.7,2.8-0.7,4.3c0,7.2,5.9,13.1,13.1,13.1
			c0.5,0,1.1,0,1.6-0.1C98.8,114.6,99.5,118.6,99.5,122.8z M95.8,109.5c-6.4,0-11.6-5.2-11.6-11.6c0-6.4,5.2-11.6,11.6-11.6
			c6.4,0,11.6,5.2,11.6,11.6C107.4,104.3,102.2,109.5,95.8,109.5z"/>
		<g>
			<path fill="#231F20" d="M109.9,107.5l-1.2-0.8c0.2-0.3,0.4-0.5,0.5-0.8l1.3,0.8C110.3,106.9,110.1,107.2,109.9,107.5z
				 M111.4,104.8l-1.4-0.6c0.1-0.3,0.2-0.6,0.4-0.9l1.4,0.5C111.7,104.2,111.5,104.5,111.4,104.8z M112.4,101.8l-1.5-0.3
				c0.1-0.3,0.1-0.6,0.2-0.9l1.5,0.2C112.5,101.1,112.5,101.5,112.4,101.8z M112.8,98.7l-1.5-0.1c0-0.2,0-0.5,0-0.7l0-0.2l1.5,0
				l0,0.3C112.8,98.2,112.8,98.5,112.8,98.7z M111.2,95.8c0-0.3-0.1-0.6-0.2-0.9l1.5-0.3c0.1,0.3,0.1,0.7,0.2,1L111.2,95.8z
				 M110.5,93c-0.1-0.3-0.2-0.6-0.3-0.9l1.4-0.6c0.1,0.3,0.3,0.7,0.4,1L110.5,93z M109.4,90.4c-0.2-0.3-0.3-0.5-0.5-0.8l1.3-0.8
				c0.2,0.3,0.4,0.6,0.5,0.9L109.4,90.4z M107.8,88c-0.2-0.2-0.4-0.5-0.6-0.7l1.1-1c0.2,0.3,0.5,0.5,0.7,0.8L107.8,88z M105.8,86
				c-0.2-0.2-0.5-0.4-0.8-0.6l0.9-1.2c0.3,0.2,0.6,0.4,0.8,0.6L105.8,86z M86.7,85.4l-0.9-1.2c0.2-0.1,0.3-0.2,0.5-0.3l0.8,1.2
				C87,85.2,86.8,85.3,86.7,85.4z M103.4,84.4c-0.3-0.2-0.6-0.3-0.8-0.4l0.7-1.4c0.3,0.2,0.6,0.3,0.9,0.5L103.4,84.4z M88.8,84.1
				l-0.7-1.3c0.3-0.2,0.6-0.3,0.9-0.4l0.6,1.4C89.3,83.8,89,84,88.8,84.1z M100.8,83.2c-0.3-0.1-0.6-0.2-0.9-0.3l0.4-1.4
				c0.3,0.1,0.7,0.2,1,0.3L100.8,83.2z M91.4,83.1L91,81.6c0.3-0.1,0.7-0.2,1-0.3l0.3,1.5C92,82.9,91.7,83,91.4,83.1z M98,82.6
				c-0.3,0-0.6-0.1-0.9-0.1l0.1-1.5c0.4,0,0.7,0.1,1,0.1L98,82.6z M94.2,82.5L94.1,81c0.3,0,0.7-0.1,1-0.1l0.1,1.5
				C94.8,82.4,94.5,82.5,94.2,82.5z"/>
		</g>
		<polygon fill="#231F20" points="103.2,97.2 96.6,97.2 96.6,90.6 95.1,90.6 95.1,97.2 88.4,97.2 88.4,98.7 95.1,98.7 95.1,105.3 
			96.6,105.3 96.6,98.7 103.2,98.7 		"/>
		<g>
			<g>
				<polygon fill="#FFFFFF" points="70.3,117.1 64.9,122.8 59.5,117.1 59.5,117.1 62.8,103.5 61.8,100.3 68,100.3 67.1,103.5 				
					"/>
			</g>
		</g>
		<g>
			<circle fill="#FFFFFF" cx="13.3" cy="87.9" r="12.4"/>
			<g>
				<circle fill="#FF7058" cx="13.3" cy="87.9" r="3.4"/>
			</g>
			<path fill="#231F20" d="M35.4,71.1c-0.1-0.3-0.3-0.5-0.6-0.5l-3.6-0.5l-0.5-3.6c0-0.3-0.2-0.5-0.5-0.6c-0.3-0.1-0.6,0-0.8,0.2
				l-4.8,4.8c-0.2,0.2-0.2,0.4-0.2,0.6l0.5,3.8L22,78.1C16.9,73.5,9,73.7,4,78.6c-5.1,5.1-5.1,13.4,0,18.6c5.1,5.1,13.4,5.1,18.6,0
				c4.9-4.9,5.1-12.9,0.5-18l2.8-2.8l3.8,0.5c0.2,0,0.5,0,0.6-0.2l4.8-4.8C35.4,71.6,35.4,71.4,35.4,71.1z M29.3,68.1l0.3,2.3
				l-3.5,3.5l-0.3-2.3L29.3,68.1z M21.5,96.1c-4.5,4.5-11.9,4.5-16.4,0c-4.5-4.5-4.5-11.9,0-16.4c4.4-4.4,11.3-4.5,15.9-0.5
				l-1.3,1.3c-3.9-3.3-9.7-3.2-13.4,0.5c-3.8,3.8-3.8,10.1,0,13.9c3.8,3.8,10.1,3.8,13.9,0c1.9-1.9,2.9-4.3,2.9-7
				c0-2.4-0.8-4.6-2.4-6.4l1.3-1.3C26,84.8,25.9,91.8,21.5,96.1z M16.9,91.5c-2,2-5.3,2-7.3,0c-2-2-2-5.3,0-7.3
				c1.8-1.8,4.7-2,6.7-0.5l-3.6,3.6c-0.3,0.3-0.3,0.8,0,1.1c0.3,0.3,0.8,0.3,1.1,0l3.6-3.6C18.9,86.8,18.8,89.7,16.9,91.5z
				 M17.4,82.7c-2.6-2.1-6.4-1.9-8.8,0.5C6,85.8,6,90,8.6,92.6c2.6,2.6,6.8,2.6,9.4,0c2.4-2.4,2.6-6.2,0.5-8.8l1.2-1.2
				c1.3,1.5,1.9,3.4,1.9,5.3c0,2.2-0.9,4.3-2.4,5.9c-3.3,3.3-8.6,3.3-11.8,0c-3.3-3.3-3.3-8.6,0-11.8c3.1-3.1,8-3.2,11.2-0.5
				L17.4,82.7z M29.6,75.3L27.2,75l3.5-3.5l2.3,0.3L29.6,75.3z"/>
		</g>
	</g>
</g>
</svg>
