<?xml version="1.0" encoding="utf-8"?>
<!-- Generator: Adobe Illustrator 18.0.0, SVG Export Plug-In . SVG Version: 6.00 Build 0)  -->
<!DOCTYPE svg PUBLIC "-//W3C//DTD SVG 1.1//EN" "http://www.w3.org/Graphics/SVG/1.1/DTD/svg11.dtd">
<svg version="1.1" id="Layer_1" xmlns="http://www.w3.org/2000/svg" xmlns:xlink="http://www.w3.org/1999/xlink" x="0px" y="0px"
	 viewBox="0 0 129.5 129.5" enable-background="new 0 0 129.5 129.5" xml:space="preserve">
<g>
	<g>
		<g>
			<path fill="#231F20" d="M65.3,129.5c-0.1,0-0.2,0-0.3-0.1C32.5,115.6,17.3,87,10.3,65.5C2.7,42.2,2.8,22,2.8,21.8
				c0-0.2,0.1-0.4,0.2-0.5C3.2,21.1,3.4,21,3.6,21c1.1,0,2.1,0,3.2,0h0C47,21.1,64.5,0.5,64.7,0.3C64.8,0.1,65,0,65.3,0l0,0
				c0.2,0,0.4,0.1,0.6,0.3C66,0.5,84.4,22.1,126.9,21c0.2,0,0.4,0.1,0.5,0.2c0.1,0.1,0.2,0.3,0.2,0.5c0,0.2,0.1,20.5-7.5,43.7
				c-7,21.5-22.2,50.1-54.6,63.9C65.5,129.5,65.4,129.5,65.3,129.5z M4.3,22.5c0.1,3.9,0.7,22,7.4,42.6
				c6.9,21.1,21.8,49.2,53.5,62.8c31.7-13.7,46.6-41.7,53.5-62.8c6.7-20.5,7.4-38.7,7.4-42.6c-0.8,0-1.6,0-2.4,0
				c-36.9,0-55.1-17.1-58.5-20.7C61.9,5.4,43.7,22.6,6.8,22.6h0C6,22.6,5.2,22.5,4.3,22.5z"/>
		</g>
		<g>
			<path fill="#231F20" d="M65.3,125.6c-0.1,0-0.2,0-0.3-0.1c-0.3-0.1-0.6-0.3-0.9-0.4l0.6-1.4c0.2,0.1,0.4,0.2,0.6,0.3
				c0.2-0.1,0.3-0.2,0.5-0.2l0.6,1.4c-0.3,0.1-0.5,0.3-0.8,0.4C65.5,125.5,65.4,125.6,65.3,125.6z M68.2,124.2l-0.7-1.3l0.9-0.4
				l0.7,1.3L68.2,124.2z M62.2,124.2c-0.3-0.1-0.6-0.3-0.9-0.4l0.7-1.3c0.3,0.1,0.6,0.3,0.9,0.4L62.2,124.2z M70.9,122.9l-0.7-1.3
				c0.3-0.2,0.6-0.3,0.9-0.5l0.7,1.3C71.5,122.6,71.2,122.7,70.9,122.9z M59.5,122.8c-0.3-0.2-0.6-0.3-0.9-0.5l0.7-1.3
				c0.3,0.2,0.6,0.3,0.9,0.5L59.5,122.8z M73.5,121.4l-0.8-1.3c0.3-0.2,0.6-0.3,0.9-0.5l0.8,1.3C74.1,121.1,73.8,121.2,73.5,121.4z
				 M56.9,121.3c-0.3-0.2-0.6-0.3-0.9-0.5l0.8-1.3c0.3,0.2,0.6,0.3,0.9,0.5L56.9,121.3z M76.1,119.8l-0.8-1.3
				c0.3-0.2,0.6-0.4,0.8-0.5l0.8,1.3C76.7,119.5,76.4,119.7,76.1,119.8z M54.3,119.8c-0.3-0.2-0.6-0.4-0.8-0.5l0.8-1.3
				c0.3,0.2,0.6,0.4,0.8,0.5L54.3,119.8z M78.7,118.2l-0.8-1.2c0.3-0.2,0.5-0.4,0.8-0.6l0.9,1.2C79.2,117.8,78.9,118,78.7,118.2z
				 M51.8,118.1c-0.3-0.2-0.6-0.4-0.8-0.6l0.9-1.2c0.3,0.2,0.5,0.4,0.8,0.6L51.8,118.1z M81.1,116.4l-0.9-1.2
				c0.3-0.2,0.5-0.4,0.8-0.6l0.9,1.2C81.7,116,81.4,116.2,81.1,116.4z M49.3,116.4c-0.3-0.2-0.5-0.4-0.8-0.6l0.9-1.2
				c0.3,0.2,0.5,0.4,0.8,0.6L49.3,116.4z M83.5,114.6l-0.9-1.2c0.3-0.2,0.5-0.4,0.8-0.6l0.9,1.2C84.1,114.2,83.8,114.4,83.5,114.6z
				 M46.9,114.5c-0.3-0.2-0.5-0.4-0.8-0.6l0.9-1.2c0.3,0.2,0.5,0.4,0.8,0.6L46.9,114.5z M85.9,112.7l-1-1.1c0.3-0.2,0.5-0.4,0.8-0.6
				l1,1.1C86.4,112.2,86.1,112.5,85.9,112.7z M44.6,112.6c-0.3-0.2-0.5-0.4-0.8-0.7l1-1.1c0.2,0.2,0.5,0.4,0.8,0.6L44.6,112.6z
				 M88.2,110.7l-1-1.1c0.2-0.2,0.5-0.4,0.7-0.7l1,1.1C88.6,110.2,88.4,110.5,88.2,110.7z M42.3,110.6c-0.2-0.2-0.5-0.5-0.7-0.7
				l1-1.1c0.2,0.2,0.5,0.5,0.7,0.7L42.3,110.6z M90.4,108.6l-1.1-1.1l0.7-0.7l1.1,1.1L90.4,108.6z M40.1,108.5l-0.7-0.7l1.1-1.1
				l0.7,0.7L40.1,108.5z M92.5,106.4l-1.1-1c0.2-0.2,0.5-0.5,0.7-0.7l1.1,1C92.9,106,92.7,106.2,92.5,106.4z M38,106.4
				c-0.2-0.2-0.5-0.5-0.7-0.7l1.1-1c0.2,0.2,0.5,0.5,0.7,0.7L38,106.4z M94.5,104.2l-1.1-1c0.2-0.2,0.4-0.5,0.7-0.7l1.1,1
				C95,103.7,94.8,104,94.5,104.2z M35.9,104.1l-0.7-0.8l1.1-1l0.7,0.7L35.9,104.1z M96.5,101.9l-1.2-1l0.6-0.8l1.2,1L96.5,101.9z
				 M34,101.9c-0.2-0.3-0.4-0.5-0.6-0.8l1.2-0.9c0.2,0.3,0.4,0.5,0.6,0.8L34,101.9z M98.4,99.6l-1.2-0.9l0.6-0.8l1.2,0.9L98.4,99.6z
				 M32.1,99.5l-0.6-0.8l1.2-0.9l0.6,0.8L32.1,99.5z M100.2,97.2L99,96.3c0.2-0.3,0.4-0.5,0.6-0.8l1.2,0.9
				C100.6,96.6,100.4,96.9,100.2,97.2z M30.2,97.1c-0.2-0.3-0.4-0.5-0.6-0.8l1.2-0.9c0.2,0.3,0.4,0.5,0.6,0.8L30.2,97.1z M102,94.7
				l-1.2-0.8l0.6-0.8l1.2,0.8L102,94.7z M28.5,94.6l-0.6-0.8l1.2-0.8l0.6,0.8L28.5,94.6z M103.6,92.2l-1.3-0.8l0.5-0.8l1.3,0.8
				L103.6,92.2z M26.8,92.1c-0.2-0.3-0.4-0.6-0.5-0.9l1.3-0.8c0.2,0.3,0.4,0.6,0.5,0.8L26.8,92.1z M105.2,89.6l-1.3-0.8
				c0.2-0.3,0.3-0.6,0.5-0.9l1.3,0.8C105.6,89,105.4,89.3,105.2,89.6z M25.2,89.5l-0.5-0.9l1.3-0.8l0.5,0.9L25.2,89.5z M106.8,87
				l-1.3-0.7l0.5-0.9l1.3,0.7L106.8,87z M23.7,86.9L23.2,86l1.3-0.7l0.5,0.9L23.7,86.9z M108.2,84.4l-1.3-0.7l0.5-0.9l1.3,0.7
				L108.2,84.4z M22.3,84.3l-0.5-0.9l1.3-0.7l0.5,0.9L22.3,84.3z M109.6,81.7l-1.3-0.7c0.1-0.3,0.3-0.6,0.4-0.9l1.3,0.7
				C109.9,81.1,109.7,81.4,109.6,81.7z M20.9,81.6l-0.4-0.9l1.3-0.7l0.4,0.9L20.9,81.6z M110.9,79l-1.4-0.6c0.1-0.3,0.3-0.6,0.4-0.9
				l1.4,0.6C111.2,78.3,111,78.7,110.9,79z M19.6,78.9l-0.4-0.9l1.4-0.6l0.4,0.9L19.6,78.9z M112.1,76.2l-1.4-0.6l0.4-0.9l1.4,0.6
				L112.1,76.2z M18.3,76.1c-0.1-0.3-0.3-0.6-0.4-0.9l1.4-0.6c0.1,0.3,0.3,0.6,0.4,0.9L18.3,76.1z M113.3,73.4l-1.4-0.6
				c0.1-0.3,0.2-0.6,0.4-0.9l1.4,0.6C113.6,72.8,113.5,73.1,113.3,73.4z M17.2,73.3c-0.1-0.3-0.3-0.6-0.4-0.9l1.4-0.6
				c0.1,0.3,0.2,0.6,0.4,0.9L17.2,73.3z M114.4,70.6l-1.4-0.5l0.4-0.9l1.4,0.5L114.4,70.6z M16,70.5c-0.1-0.3-0.2-0.6-0.4-0.9
				l1.4-0.5l0.3,0.9L16,70.5z M115.5,67.8l-1.4-0.5l0.3-0.9l1.4,0.5L115.5,67.8z M15,67.7c-0.1-0.3-0.2-0.6-0.3-1l1.4-0.5
				c0.1,0.3,0.2,0.6,0.3,0.9L15,67.7z M116.5,64.9l-1.4-0.5l0.3-0.9l1.4,0.5L116.5,64.9z M14,64.8l-0.3-1l1.4-0.5l0.3,0.9L14,64.8z
				 M117.4,62.1l-1.4-0.4l0.3-1l1.4,0.4L117.4,62.1z M13.1,62l-0.3-1l1.4-0.4l0.3,1L13.1,62z M118.2,59.2l-1.4-0.4l0.3-1l1.4,0.4
				L118.2,59.2z M12.3,59.1l-0.3-1l1.4-0.4l0.3,1L12.3,59.1z M119,56.3l-1.5-0.4l0.3-1l1.5,0.4L119,56.3z M11.5,56.2l-0.3-1l1.5-0.4
				l0.3,1L11.5,56.2z M119.8,53.3l-1.5-0.3l0.2-1l1.5,0.3L119.8,53.3z M10.7,53.2l-0.2-1l1.5-0.3l0.2,1L10.7,53.2z M120.5,50.4
				l-1.5-0.3l0.2-1l1.5,0.3L120.5,50.4z M10,50.3l-0.2-1l1.5-0.3l0.2,1L10,50.3z M121.1,47.4l-1.5-0.3l0.2-1l1.5,0.3L121.1,47.4z
				 M9.4,47.3l-0.2-1l1.5-0.3l0.2,1L9.4,47.3z M121.7,44.5l-1.5-0.3l0.2-1l1.5,0.3L121.7,44.5z M8.8,44.4l-0.2-1l1.5-0.3l0.2,1
				L8.8,44.4z M122.2,41.5l-1.5-0.2l0.2-1l1.5,0.2L122.2,41.5z M8.3,41.4l-0.2-1l1.5-0.2l0.2,1L8.3,41.4z M122.6,38.5l-1.5-0.2
				l0.1-1l1.5,0.2L122.6,38.5z M7.9,38.4l-0.1-1l1.5-0.2l0.1,1L7.9,38.4z M123,35.5l-1.5-0.2l0.1-1l1.5,0.2L123,35.5z M7.5,35.4
				l-0.1-1l1.5-0.2l0.1,1L7.5,35.4z M123.4,32.5l-1.5-0.2l0.1-1l1.5,0.1L123.4,32.5z M7.1,32.4l-0.1-1l1.5-0.1l0.1,1L7.1,32.4z
				 M123.7,29.5l-1.5-0.1l0.1-1l1.5,0.1L123.7,29.5z M6.8,29.4l-0.1-1l1.5-0.1l0.1,1L6.8,29.4z M123.9,26.5l-1.5-0.1l0.1-1l1.5,0.1
				L123.9,26.5z M6.6,26.4l-0.1-0.9c0-0.2,0.1-0.4,0.2-0.6c0.1-0.1,0.3-0.2,0.5-0.2l0,0.7l0.7,0l0.1,0.9L6.6,26.4z M121.2,26.2l-1,0
				l0-1.5l1,0L121.2,26.2z M9.4,26.1l0-1.5l1,0l0,1.5L9.4,26.1z M118.2,26.1l-1,0l0.1-1.5l1,0L118.2,26.1z M12.4,26l-0.1-1.5l1-0.1
				l0.1,1.5L12.4,26z M115.2,25.9l-1-0.1l0.1-1.5l1,0.1L115.2,25.9z M15.4,25.9l-0.1-1.5l1-0.1l0.1,1.5L15.4,25.9z M112.2,25.6
				c-0.3,0-0.7-0.1-1-0.1l0.2-1.5l1,0.1L112.2,25.6z M18.4,25.6l-0.1-1.5l1-0.1l0.2,1.5L18.4,25.6z M109.2,25.3
				c-0.3,0-0.7-0.1-1-0.1l0.2-1.5c0.3,0,0.7,0.1,1,0.1L109.2,25.3z M21.4,25.3l-0.2-1.5l1-0.1l0.2,1.5L21.4,25.3z M106.2,24.9
				l-1-0.2l0.2-1.5l1,0.2L106.2,24.9z M24.4,24.8l-0.2-1.5c0.3-0.1,0.7-0.1,1-0.2l0.2,1.5C25.1,24.7,24.7,24.8,24.4,24.8z
				 M103.2,24.4c-0.3-0.1-0.7-0.1-1-0.2l0.3-1.5l1,0.2L103.2,24.4z M27.4,24.3l-0.3-1.5c0.3-0.1,0.7-0.1,1-0.2l0.3,1.5
				C28.1,24.2,27.7,24.3,27.4,24.3z M100.3,23.8l-1-0.2l0.3-1.5l1,0.2L100.3,23.8z M30.4,23.7L30,22.3l1-0.2l0.3,1.5L30.4,23.7z
				 M97.3,23.1l-1-0.3l0.4-1.5l1,0.2L97.3,23.1z M33.3,23l-0.4-1.5c0.3-0.1,0.6-0.2,1-0.2l0.4,1.5C34,22.9,33.6,23,33.3,23z
				 M94.4,22.3c-0.3-0.1-0.6-0.2-1-0.3l0.4-1.4c0.3,0.1,0.6,0.2,1,0.3L94.4,22.3z M36.2,22.3l-0.4-1.4c0.3-0.1,0.6-0.2,1-0.3
				l0.4,1.4C36.9,22.1,36.5,22.2,36.2,22.3z M91.5,21.4c-0.3-0.1-0.6-0.2-1-0.3l0.5-1.4c0.3,0.1,0.6,0.2,0.9,0.3L91.5,21.4z
				 M39.1,21.4l-0.5-1.4c0.3-0.1,0.6-0.2,0.9-0.3l0.5,1.4C39.8,21.2,39.4,21.3,39.1,21.4z M88.7,20.4c-0.3-0.1-0.6-0.2-0.9-0.3
				l0.5-1.4c0.3,0.1,0.6,0.2,0.9,0.3L88.7,20.4z M42,20.4L41.5,19l0.9-0.3l0.5,1.4L42,20.4z M85.8,19.3c-0.3-0.1-0.6-0.3-0.9-0.4
				l0.6-1.4c0.3,0.1,0.6,0.3,0.9,0.4L85.8,19.3z M44.8,19.3l-0.6-1.4c0.3-0.1,0.6-0.3,0.9-0.4l0.6,1.4C45.4,19,45.1,19.2,44.8,19.3z
				 M83,18.2c-0.3-0.1-0.6-0.3-0.9-0.4l0.6-1.4c0.3,0.1,0.6,0.3,0.9,0.4L83,18.2z M47.6,18.1L47,16.7c0.3-0.1,0.6-0.3,0.9-0.4
				l0.6,1.4C48.2,17.8,47.9,18,47.6,18.1z M80.3,16.9c-0.3-0.2-0.6-0.3-0.9-0.5l0.7-1.3c0.3,0.1,0.6,0.3,0.9,0.4L80.3,16.9z
				 M50.3,16.8l-0.7-1.3c0.3-0.1,0.6-0.3,0.9-0.4l0.7,1.3C50.9,16.5,50.6,16.7,50.3,16.8z M77.6,15.5c-0.3-0.2-0.6-0.3-0.9-0.5
				l0.7-1.3c0.3,0.2,0.6,0.3,0.9,0.5L77.6,15.5z M53,15.4l-0.7-1.3c0.3-0.2,0.6-0.3,0.9-0.5l0.7,1.3C53.6,15.1,53.3,15.3,53,15.4z
				 M75,14c-0.3-0.2-0.6-0.3-0.9-0.5l0.8-1.3c0.3,0.2,0.6,0.3,0.8,0.5L75,14z M55.6,13.9l-0.8-1.3c0.3-0.2,0.6-0.3,0.8-0.5l0.8,1.3
				C56.2,13.6,55.9,13.7,55.6,13.9z M72.4,12.4c-0.3-0.2-0.6-0.4-0.8-0.6l0.8-1.2c0.3,0.2,0.5,0.4,0.8,0.5L72.4,12.4z M58.2,12.3
				l-0.8-1.3c0.3-0.2,0.6-0.4,0.8-0.5l0.8,1.2C58.8,11.9,58.5,12.1,58.2,12.3z M69.9,10.6c-0.3-0.2-0.5-0.4-0.8-0.6L70,8.8
				c0.3,0.2,0.5,0.4,0.8,0.6L69.9,10.6z M60.7,10.6l-0.9-1.2c0.3-0.2,0.5-0.4,0.8-0.6l0.9,1.2C61.3,10.2,61,10.4,60.7,10.6z
				 M67.5,8.8c-0.3-0.2-0.5-0.4-0.8-0.6l1-1.2c0.2,0.2,0.5,0.4,0.8,0.6L67.5,8.8z M63.1,8.7l-0.9-1.2c0.3-0.2,0.5-0.4,0.8-0.6l1,1.2
				C63.7,8.3,63.4,8.5,63.1,8.7z M65.2,6.8l-0.4-0.4L65,6.2l-0.5-0.6l0.3-0.3c0.3-0.3,0.7-0.3,1,0l0.4,0.4l-0.5,0.6l0.1,0.1
				l-0.3,0.3l-0.1-0.1L65.2,6.8z"/>
		</g>
		<g>
			<path fill="#FF7058" d="M107.1,66c4.7-12.8,6.8-24.9,7.7-33.2c-24.4-1.7-40.6-10.4-49.6-17c0,0,0,0,0,0V66H107.1z"/>
		</g>
		<g>
			<path fill="#F1543F" d="M65.2,15.8c-9,6.6-25.2,15.3-49.6,17c0.9,8.3,3,20.4,7.7,33.2h42V15.8z"/>
		</g>
		<g>
			<path fill="#FF7058" d="M23.3,66c6.9,18.7,19.3,38.9,42,50.2V66H23.3z"/>
		</g>
		<g>
			<path fill="#F1543F" d="M65.2,66v50.2c0,0,0,0,0,0c22.6-11.4,35-31.5,41.9-50.3H65.2z"/>
		</g>
		<g>
			<g>
				<path fill="#231F20" d="M6.8,5.2C6.7,5.2,6.5,5.1,6.3,5C6,4.7,6,4.2,6.3,3.9l1.4-1.4c0.3-0.3,0.8-0.3,1.1,0C9,2.8,9,3.3,8.7,3.6
					L7.4,5C7.2,5.1,7,5.2,6.8,5.2z"/>
			</g>
			<g>
				<path fill="#231F20" d="M2.5,9.5C2.4,9.5,2.2,9.4,2,9.3C1.7,9,1.7,8.5,2,8.2l1.4-1.4c0.3-0.3,0.8-0.3,1.1,0
					c0.3,0.3,0.3,0.8,0,1.1L3.1,9.3C2.9,9.4,2.7,9.5,2.5,9.5z"/>
			</g>
			<g>
				<path fill="#231F20" d="M8.2,9.5C8,9.5,7.8,9.4,7.7,9.3L6.3,7.9C6,7.6,6,7.1,6.3,6.8c0.3-0.3,0.8-0.3,1.1,0l1.4,1.4
					C9,8.5,9,9,8.7,9.3C8.6,9.4,8.4,9.5,8.2,9.5z"/>
			</g>
			<g>
				<path fill="#231F20" d="M3.9,5.2C3.7,5.2,3.5,5.1,3.4,5L2,3.6C1.7,3.3,1.7,2.8,2,2.5c0.3-0.3,0.8-0.3,1.1,0l1.4,1.4
					c0.3,0.3,0.3,0.8,0,1.1C4.3,5.1,4.1,5.2,3.9,5.2z"/>
			</g>
		</g>
		<g>
			<g>
				<path fill="#231F20" d="M118.6,5.2c-0.2,0-0.4-0.1-0.5-0.2c-0.3-0.3-0.3-0.8,0-1.1l1.4-1.4c0.3-0.3,0.8-0.3,1.1,0
					c0.3,0.3,0.3,0.8,0,1.1L119.1,5C119,5.1,118.8,5.2,118.6,5.2z"/>
			</g>
			<g>
				<path fill="#231F20" d="M114.3,9.5c-0.2,0-0.4-0.1-0.5-0.2c-0.3-0.3-0.3-0.8,0-1.1l1.4-1.4c0.3-0.3,0.8-0.3,1.1,0
					c0.3,0.3,0.3,0.8,0,1.1l-1.4,1.4C114.7,9.4,114.5,9.5,114.3,9.5z"/>
			</g>
			<g>
				<path fill="#231F20" d="M120,9.5c-0.2,0-0.4-0.1-0.5-0.2l-1.4-1.4c-0.3-0.3-0.3-0.8,0-1.1c0.3-0.3,0.8-0.3,1.1,0l1.4,1.4
					c0.3,0.3,0.3,0.8,0,1.1C120.4,9.4,120.2,9.5,120,9.5z"/>
			</g>
			<g>
				<path fill="#231F20" d="M115.7,5.2c-0.2,0-0.4-0.1-0.5-0.2l-1.4-1.4c-0.3-0.3-0.3-0.8,0-1.1c0.3-0.3,0.8-0.3,1.1,0l1.4,1.4
					c0.3,0.3,0.3,0.8,0,1.1C116.1,5.1,115.9,5.2,115.7,5.2z"/>
			</g>
		</g>
		<g>
			<g>
				<path fill="#231F20" d="M17.1,118.4c-0.2,0-0.4-0.1-0.5-0.2c-0.3-0.3-0.3-0.8,0-1.1l1.4-1.4c0.3-0.3,0.8-0.3,1.1,0
					c0.3,0.3,0.3,0.8,0,1.1l-1.4,1.4C17.5,118.3,17.3,118.4,17.1,118.4z"/>
			</g>
			<g>
				<path fill="#231F20" d="M12.8,122.7c-0.2,0-0.4-0.1-0.5-0.2c-0.3-0.3-0.3-0.8,0-1.1l1.4-1.4c0.3-0.3,0.8-0.3,1.1,0
					c0.3,0.3,0.3,0.8,0,1.1l-1.4,1.4C13.2,122.6,13,122.7,12.8,122.7z"/>
			</g>
			<g>
				<path fill="#231F20" d="M18.5,122.7c-0.2,0-0.4-0.1-0.5-0.2l-1.4-1.4c-0.3-0.3-0.3-0.8,0-1.1c0.3-0.3,0.8-0.3,1.1,0l1.4,1.4
					c0.3,0.3,0.3,0.8,0,1.1C18.8,122.6,18.6,122.7,18.5,122.7z"/>
			</g>
			<g>
				<path fill="#231F20" d="M14.2,118.4c-0.2,0-0.4-0.1-0.5-0.2l-1.4-1.4c-0.3-0.3-0.3-0.8,0-1.1c0.3-0.3,0.8-0.3,1.1,0l1.4,1.4
					c0.3,0.3,0.3,0.8,0,1.1C14.5,118.3,14.3,118.4,14.2,118.4z"/>
			</g>
		</g>
		<g>
			<g>
				<g>
					<path fill="#231F20" d="M117.1,124h-8.6c-0.4,0-0.8-0.3-0.8-0.8c0-0.4,0.3-0.8,0.8-0.8h8.6c0.4,0,0.8,0.3,0.8,0.8
						C117.9,123.6,117.6,124,117.1,124z"/>
				</g>
				<g>
					<path fill="#231F20" d="M120.5,127.1h-4.2c-0.4,0-0.8-0.3-0.8-0.8c0-0.4,0.3-0.8,0.8-0.8h4.2c0.4,0,0.8,0.3,0.8,0.8
						C121.3,126.8,121,127.1,120.5,127.1z"/>
				</g>
				<g>
					<path fill="#231F20" d="M125.1,124h-4c-0.4,0-0.8-0.3-0.8-0.8c0-0.4,0.3-0.8,0.8-0.8h4c0.4,0,0.8,0.3,0.8,0.8
						C125.8,123.6,125.5,124,125.1,124z"/>
				</g>
				<g>
					<path fill="#231F20" d="M113.2,127.1h-0.8c-0.4,0-0.8-0.3-0.8-0.8c0-0.4,0.3-0.8,0.8-0.8h0.8c0.4,0,0.8,0.3,0.8,0.8
						C114,126.8,113.7,127.1,113.2,127.1z"/>
				</g>
			</g>
		</g>
		<g>
			<g>
				<g>
					<path fill="#231F20" d="M30.3,4.5h-8.6c-0.4,0-0.8-0.3-0.8-0.7c0-0.4,0.3-0.8,0.8-0.8h8.6C30.7,3,31,3.3,31,3.7
						C31,4.1,30.7,4.5,30.3,4.5z"/>
				</g>
				<g>
					<path fill="#231F20" d="M33.7,7.6h-4.2c-0.4,0-0.8-0.3-0.8-0.8c0-0.4,0.3-0.8,0.8-0.8h4.2c0.4,0,0.8,0.3,0.8,0.8
						C34.4,7.3,34.1,7.6,33.7,7.6z"/>
				</g>
				<g>
					<path fill="#231F20" d="M38.2,4.5h-4c-0.4,0-0.8-0.3-0.8-0.7c0-0.4,0.3-0.8,0.8-0.8h4C38.6,3,39,3.3,39,3.7
						C39,4.1,38.6,4.5,38.2,4.5z"/>
				</g>
				<g>
					<path fill="#231F20" d="M26.4,7.6h-0.8c-0.4,0-0.8-0.3-0.8-0.8c0-0.4,0.3-0.8,0.8-0.8h0.8c0.4,0,0.8,0.3,0.8,0.8
						C27.1,7.3,26.8,7.6,26.4,7.6z"/>
				</g>
			</g>
		</g>
		<g>
			<path fill="#231F20" d="M117.7,107c-2.3,0-4.1-1.9-4.1-4.1c0-2.3,1.9-4.1,4.1-4.1c2.3,0,4.1,1.9,4.1,4.1
				C121.8,105.2,120,107,117.7,107z M117.7,100.3c-1.4,0-2.6,1.2-2.6,2.6c0,1.4,1.2,2.6,2.6,2.6c1.4,0,2.6-1.2,2.6-2.6
				C120.3,101.4,119.1,100.3,117.7,100.3z"/>
		</g>
		<g>
			<circle fill="#FFFFFF" cx="65.3" cy="47.5" r="6.6"/>
			<path fill="#231F20" d="M65.3,54.9c-4.1,0-7.4-3.3-7.4-7.4c0-4.1,3.3-7.4,7.4-7.4c4.1,0,7.4,3.3,7.4,7.4
				C72.6,51.6,69.3,54.9,65.3,54.9z M65.3,41.7c-3.2,0-5.9,2.6-5.9,5.9c0,3.2,2.6,5.9,5.9,5.9s5.9-2.6,5.9-5.9
				C71.1,44.3,68.5,41.7,65.3,41.7z"/>
		</g>
		<g>
			<path fill="#FFFFFF" d="M71.9,66c0,14.6-3,33.5-6.6,33.5c-3.7,0-6.6-18.9-6.6-33.5c0-3.7,3-6.6,6.6-6.6
				C68.9,59.4,71.9,62.4,71.9,66z"/>
			<path fill="#231F20" d="M65.3,100.3c-4.9,0-7.4-21.9-7.4-34.2c0-4.1,3.3-7.4,7.4-7.4c4.1,0,7.4,3.3,7.4,7.4
				C72.6,78.3,70.2,100.3,65.3,100.3z M65.3,60.2c-3.2,0-5.9,2.6-5.9,5.9c0,16.2,3.4,32.7,5.9,32.7c2.5,0,5.9-16.5,5.9-32.7
				C71.1,62.8,68.5,60.2,65.3,60.2z"/>
		</g>
		<g>
			<circle fill="#84DBFF" cx="96.8" cy="5.9" r="2.8"/>
		</g>
		<g>
			<circle fill="#FFD05B" cx="105.7" cy="112" r="2.4"/>
		</g>
		<g>
			<circle fill="#FFD05B" cx="10.1" cy="96.7" r="2"/>
		</g>
	</g>
</g>
</svg>
