<?xml version="1.0" encoding="utf-8"?>
<!-- Generator: Adobe Illustrator 18.0.0, SVG Export Plug-In . SVG Version: 6.00 Build 0)  -->
<!DOCTYPE svg PUBLIC "-//W3C//DTD SVG 1.1//EN" "http://www.w3.org/Graphics/SVG/1.1/DTD/svg11.dtd">
<svg version="1.1" id="Layer_1" xmlns="http://www.w3.org/2000/svg" xmlns:xlink="http://www.w3.org/1999/xlink" x="0px" y="0px"
	 viewBox="0 0 129.5 129.5" enable-background="new 0 0 129.5 129.5" xml:space="preserve">
<g>
	<g>
		<g>
			<path fill="#231F20" d="M118.7,11.8c-0.2,0-0.4-0.1-0.5-0.2c-0.3-0.3-0.3-0.8,0-1.1l1.3-1.3c0.3-0.3,0.8-0.3,1.1,0
				c0.3,0.3,0.3,0.8,0,1.1l-1.3,1.3C119,11.7,118.8,11.8,118.7,11.8z"/>
		</g>
		<g>
			<path fill="#231F20" d="M114.6,15.8c-0.2,0-0.4-0.1-0.5-0.2c-0.3-0.3-0.3-0.8,0-1.1l1.3-1.3c0.3-0.3,0.8-0.3,1.1,0
				c0.3,0.3,0.3,0.8,0,1.1l-1.3,1.3C115,15.7,114.8,15.8,114.6,15.8z"/>
		</g>
		<g>
			<path fill="#231F20" d="M119.9,15.8c-0.2,0-0.4-0.1-0.5-0.2l-1.3-1.3c-0.3-0.3-0.3-0.8,0-1.1c0.3-0.3,0.8-0.3,1.1,0l1.3,1.3
				c0.3,0.3,0.3,0.8,0,1.1C120.3,15.7,120.1,15.8,119.9,15.8z"/>
		</g>
		<g>
			<path fill="#231F20" d="M115.9,11.8c-0.2,0-0.4-0.1-0.5-0.2l-1.3-1.3c-0.3-0.3-0.3-0.8,0-1.1c0.3-0.3,0.8-0.3,1.1,0l1.3,1.3
				c0.3,0.3,0.3,0.8,0,1.1C116.3,11.7,116.1,11.8,115.9,11.8z"/>
		</g>
		<g>
			<path fill="#231F20" d="M100.7,117.7c-0.2,0-0.4-0.1-0.5-0.2c-0.3-0.3-0.3-0.8,0-1.1l1.3-1.3c0.3-0.3,0.8-0.3,1.1,0
				c0.3,0.3,0.3,0.8,0,1.1l-1.3,1.3C101.1,117.6,100.9,117.7,100.7,117.7z"/>
		</g>
		<g>
			<path fill="#231F20" d="M96.7,121.7c-0.2,0-0.4-0.1-0.5-0.2c-0.3-0.3-0.3-0.8,0-1.1l1.3-1.3c0.3-0.3,0.8-0.3,1.1,0
				c0.3,0.3,0.3,0.8,0,1.1l-1.3,1.3C97,121.6,96.8,121.7,96.7,121.7z"/>
		</g>
		<g>
			<path fill="#231F20" d="M102,121.7c-0.2,0-0.4-0.1-0.5-0.2l-1.3-1.3c-0.3-0.3-0.3-0.8,0-1.1c0.3-0.3,0.8-0.3,1.1,0l1.3,1.3
				c0.3,0.3,0.3,0.8,0,1.1C102.4,121.6,102.2,121.7,102,121.7z"/>
		</g>
		<g>
			<path fill="#231F20" d="M97.9,117.7c-0.2,0-0.4-0.1-0.5-0.2l-1.3-1.3c-0.3-0.3-0.3-0.8,0-1.1c0.3-0.3,0.8-0.3,1.1,0l1.3,1.3
				c0.3,0.3,0.3,0.8,0,1.1C98.3,117.6,98.1,117.7,97.9,117.7z"/>
		</g>
		<g>
			<path fill="#E6E9EE" d="M97.7,27.8v-21c0-1.6-1.3-2.9-2.9-2.9H3.7c-1.6,0-2.9,1.3-2.9,2.9v21H97.7z"/>
		</g>
		<g>
			<path fill="#54C0EB" d="M97.7,6.8v8.4H30.3l-2.1-5.7h-17l-2.1,5.7H0.7V6.8c0-1.6,1.3-2.9,2.9-2.9h91.1
				C96.4,3.9,97.7,5.2,97.7,6.8z"/>
		</g>
		<g>
			<polygon fill="#CED5E0" points="51.4,15.2 30.3,15.2 32.3,9.6 49.3,9.6 			"/>
		</g>
		<g>
			<rect x="14.9" y="18.2" fill="#FFFFFF" width="66.2" height="6.8"/>
		</g>
		<g>
			<path fill="#324A5E" d="M17.1,20h0.4v1.4h0c0.1-0.1,0.2-0.2,0.3-0.3C17.9,21,18,21,18.2,21c0.3,0,0.8,0.2,0.8,0.9v1.3h-0.4v-1.3
				c0-0.4-0.1-0.7-0.5-0.7c-0.3,0-0.5,0.2-0.5,0.4c0,0.1,0,0.1,0,0.2v1.3h-0.4V20z"/>
			<path fill="#324A5E" d="M20.1,20.4V21h0.6v0.3h-0.6v1.2c0,0.3,0.1,0.4,0.3,0.4c0.1,0,0.2,0,0.2,0l0,0.3c-0.1,0-0.2,0.1-0.4,0.1
				c-0.2,0-0.3-0.1-0.4-0.2c-0.1-0.1-0.2-0.3-0.2-0.6v-1.2h-0.3V21h0.3v-0.5L20.1,20.4z"/>
			<path fill="#324A5E" d="M21.6,20.4V21h0.6v0.3h-0.6v1.2c0,0.3,0.1,0.4,0.3,0.4c0.1,0,0.2,0,0.2,0l0,0.3c-0.1,0-0.2,0.1-0.4,0.1
				c-0.2,0-0.3-0.1-0.4-0.2c-0.1-0.1-0.2-0.3-0.2-0.6v-1.2h-0.3V21h0.3v-0.5L21.6,20.4z"/>
			<path fill="#324A5E" d="M22.6,21.7c0-0.3,0-0.5,0-0.7h0.4l0,0.4h0c0.2-0.3,0.4-0.4,0.8-0.4c0.5,0,0.9,0.4,0.9,1.1
				c0,0.8-0.5,1.2-1,1.2c-0.3,0-0.5-0.1-0.7-0.3h0v1.2h-0.4V21.7z M23,22.3c0,0.1,0,0.1,0,0.2c0.1,0.3,0.3,0.5,0.6,0.5
				c0.4,0,0.7-0.3,0.7-0.8c0-0.4-0.2-0.8-0.7-0.8c-0.3,0-0.5,0.2-0.6,0.5c0,0,0,0.1,0,0.2V22.3z"/>
			<path fill="#324A5E" d="M25,21.4c0-0.2,0.1-0.3,0.3-0.3c0.2,0,0.3,0.1,0.3,0.3c0,0.2-0.1,0.3-0.3,0.3C25.2,21.7,25,21.5,25,21.4z
				 M25,23c0-0.2,0.1-0.3,0.3-0.3c0.2,0,0.3,0.1,0.3,0.3c0,0.2-0.1,0.3-0.3,0.3C25.2,23.3,25,23.1,25,23z"/>
			<path fill="#324A5E" d="M25.7,23.4l1.3-3.3h0.3L26,23.4H25.7z"/>
			<path fill="#324A5E" d="M27.3,23.4l1.3-3.3h0.3l-1.3,3.3H27.3z"/>
			<path fill="#324A5E" d="M30.3,21l0.3,1.1c0.1,0.2,0.1,0.5,0.2,0.7h0c0-0.2,0.1-0.5,0.2-0.7l0.4-1.1h0.3l0.3,1.1
				c0.1,0.3,0.1,0.5,0.2,0.7h0c0-0.2,0.1-0.5,0.2-0.7l0.3-1.1h0.4l-0.7,2.2H32l-0.3-1c-0.1-0.2-0.1-0.5-0.2-0.7h0
				c-0.1,0.3-0.1,0.5-0.2,0.7l-0.4,1h-0.4L29.9,21H30.3z"/>
			<path fill="#324A5E" d="M33.7,21l0.3,1.1c0.1,0.2,0.1,0.5,0.2,0.7h0c0-0.2,0.1-0.5,0.2-0.7l0.4-1.1H35l0.3,1.1
				c0.1,0.3,0.1,0.5,0.2,0.7h0c0-0.2,0.1-0.5,0.2-0.7L36,21h0.4l-0.7,2.2h-0.4l-0.3-1c-0.1-0.2-0.1-0.5-0.2-0.7h0
				c-0.1,0.3-0.1,0.5-0.2,0.7l-0.4,1h-0.4L33.3,21H33.7z"/>
			<path fill="#324A5E" d="M37,21l0.3,1.1c0.1,0.2,0.1,0.5,0.2,0.7h0c0-0.2,0.1-0.5,0.2-0.7l0.4-1.1h0.3l0.3,1.1
				c0.1,0.3,0.1,0.5,0.2,0.7h0c0-0.2,0.1-0.5,0.2-0.7l0.3-1.1h0.4l-0.7,2.2h-0.4l-0.3-1c-0.1-0.2-0.1-0.5-0.2-0.7h0
				c-0.1,0.3-0.1,0.5-0.2,0.7l-0.4,1h-0.4L36.6,21H37z"/>
			<path fill="#324A5E" d="M39.9,23c0-0.2,0.1-0.3,0.3-0.3c0.2,0,0.3,0.1,0.3,0.3c0,0.2-0.1,0.3-0.3,0.3C40,23.3,39.9,23.1,39.9,23z
				"/>
		</g>
		<g>
			<path fill="#231F20" d="M94.8,87.8H3.7c-2,0-3.7-1.7-3.7-3.7V6.8c0-2,1.7-3.7,3.7-3.7h91.1c2,0,3.7,1.7,3.7,3.7v77.3
				C98.5,86.2,96.8,87.8,94.8,87.8z M3.7,4.6c-1.2,0-2.2,1-2.2,2.2v77.3c0,1.2,1,2.2,2.2,2.2h91.1c1.2,0,2.2-1,2.2-2.2V6.8
				c0-1.2-1-2.2-2.2-2.2H3.7z"/>
		</g>
		<g>
			<circle fill="#FFFFFF" cx="89.8" cy="9.6" r="2.7"/>
		</g>
		<g>
			<circle fill="#FFFFFF" cx="81.1" cy="9.6" r="2.7"/>
		</g>
		<g>
			<circle fill="#FFFFFF" cx="72.4" cy="9.6" r="2.7"/>
		</g>
		<g>
			<path fill="#FFFFFF" d="M123.7,110.3H51.1c-2.8,0-5-2.2-5-5V55.6c0-2.8,2.2-5,5-5h72.6c2.8,0,5,2.2,5,5v49.7
				C128.7,108.1,126.5,110.3,123.7,110.3z"/>
		</g>
		<g>
			<path fill="#84DBFF" d="M128.7,64.6v-9c0-2.8-2.2-5-5-5H51.1c-2.8,0-5,2.2-5,5v9H128.7z"/>
		</g>
		<g>
			<circle fill="#FFFFFF" cx="119.9" cy="58.5" r="2.6"/>
		</g>
		<g>
			<circle fill="#FFFFFF" cx="111.2" cy="58.5" r="2.6"/>
		</g>
		<g>
			<circle fill="#FFFFFF" cx="102.6" cy="58.5" r="2.6"/>
		</g>
		<g>
			<g>
				<g>
					<polygon fill="#231F20" points="96.5,93.8 95.5,92.7 101.6,86.6 95.5,80.6 96.5,79.5 103.7,86.6 					"/>
				</g>
				<g>
					<polygon fill="#231F20" points="78.4,93.8 71.2,86.6 78.4,79.5 79.4,80.6 73.3,86.6 79.4,92.7 					"/>
				</g>
			</g>
			<g>
				
					<rect x="86.7" y="73.3" transform="matrix(0.8931 0.4498 -0.4498 0.8931 48.3196 -30.0743)" fill="#231F20" width="1.5" height="26.8"/>
			</g>
		</g>
		<path fill="#FFFFFF" d="M30.3,108l0-60.1l-9.1,0V108c0,2.5,2,4.6,4.6,4.6l0,0C28.2,112.6,30.3,110.5,30.3,108z"/>
		<path fill="#FFFFFF" d="M21.1,98.6v9.4c0,2.5,2,4.6,4.6,4.6h0c2.5,0,4.6-2,4.6-4.6v-9.4L21.1,98.6z"/>
		<polygon fill="#FFFFFF" points="21.1,47.9 25.7,36.8 30.3,47.9 		"/>
		<g>
			<rect x="12.2" y="124.9" fill="#231F20" width="1" height="1.5"/>
			<rect x="11" y="120.1" fill="#231F20" width="1.5" height="1"/>
			<rect x="15.2" y="124.9" fill="#231F20" width="1" height="1.5"/>
			<rect x="11" y="123.1" fill="#231F20" width="1.5" height="1"/>
			<rect x="18.2" y="124.9" fill="#231F20" width="1" height="1.5"/>
			<rect x="33.2" y="124.9" fill="#231F20" width="1" height="1.5"/>
			<rect x="21.2" y="124.9" fill="#231F20" width="1" height="1.5"/>
			<rect x="27.2" y="124.9" fill="#231F20" width="1" height="1.5"/>
			<rect x="24.2" y="124.9" fill="#231F20" width="1" height="1.5"/>
			<rect x="11" y="99.1" fill="#231F20" width="1.5" height="1"/>
			<rect x="11" y="102.1" fill="#231F20" width="1.5" height="1"/>
			<rect x="36.2" y="124.9" fill="#231F20" width="1" height="1.5"/>
			<rect x="11" y="96.1" fill="#231F20" width="1.5" height="1"/>
			<rect x="11" y="93.1" fill="#231F20" width="1.5" height="1"/>
			<rect x="11" y="117.1" fill="#231F20" width="1.5" height="1"/>
			<rect x="11" y="90.1" fill="#231F20" width="1.5" height="1"/>
			<rect x="11" y="111.1" fill="#231F20" width="1.5" height="1"/>
			<rect x="11" y="105.1" fill="#231F20" width="1.5" height="1"/>
			<rect x="11" y="114.1" fill="#231F20" width="1.5" height="1"/>
			<rect x="11" y="108.1" fill="#231F20" width="1.5" height="1"/>
			<rect x="30.2" y="124.9" fill="#231F20" width="1" height="1.5"/>
			<rect x="75.2" y="124.9" fill="#231F20" width="1" height="1.5"/>
			<rect x="78.2" y="124.9" fill="#231F20" width="1" height="1.5"/>
			<rect x="79.5" y="123.7" fill="#231F20" width="1.5" height="1"/>
			<rect x="72.2" y="124.9" fill="#231F20" width="1" height="1.5"/>
			<rect x="79.5" y="111.7" fill="#231F20" width="1.5" height="1"/>
			<rect x="79.5" y="114.7" fill="#231F20" width="1.5" height="1"/>
			<rect x="69.2" y="124.9" fill="#231F20" width="1" height="1.5"/>
			<rect x="79.5" y="117.7" fill="#231F20" width="1.5" height="1"/>
			<rect x="79.5" y="120.7" fill="#231F20" width="1.5" height="1"/>
			<rect x="63.2" y="124.9" fill="#231F20" width="1" height="1.5"/>
			<rect x="45.2" y="124.9" fill="#231F20" width="1" height="1.5"/>
			<rect x="48.2" y="124.9" fill="#231F20" width="1" height="1.5"/>
			<rect x="51.2" y="124.9" fill="#231F20" width="1" height="1.5"/>
			<rect x="66.2" y="124.9" fill="#231F20" width="1" height="1.5"/>
			<rect x="42.2" y="124.9" fill="#231F20" width="1" height="1.5"/>
			<rect x="39.2" y="124.9" fill="#231F20" width="1" height="1.5"/>
			<rect x="60.2" y="124.9" fill="#231F20" width="1" height="1.5"/>
			<rect x="54.2" y="124.9" fill="#231F20" width="1" height="1.5"/>
			<rect x="57.2" y="124.9" fill="#231F20" width="1" height="1.5"/>
			<rect x="61.7" y="40.6" fill="#231F20" width="20.6" height="1.5"/>
			<path fill="#231F20" d="M123.8,49.8H98.5v-43c0-2-1.7-3.7-3.7-3.7H3.7C1.7,3.1,0,4.8,0,6.8v77.3c0,2,1.7,3.7,3.7,3.7H11v0.3h1.5
				v-0.3h7.9V108c0,2.9,2.4,5.3,5.3,5.3s5.3-2.4,5.3-5.3V87.8h14.4v17.5c0,3.2,2.6,5.8,5.8,5.8h72.6c3.2,0,5.8-2.6,5.8-5.8V55.6
				C129.5,52.4,126.9,49.8,123.8,49.8z M29.5,108c0,2.1-1.7,3.8-3.8,3.8c-2.1,0-3.8-1.7-3.8-3.8v-8.6h7.6V108z M25,48.7v49.2h-3.1
				V48.7H25z M22.3,47.2l3.4-8.4l3.4,8.4H22.3z M29.5,97.9h-3.1V48.7h3.1V97.9z M45.4,69.7h-7.6v1.5h7.6v15.2H31V71.2h2.9v-1.5H31
				v-4.3h14.4V69.7z M45.4,58h-9.5v1.5h9.5v4.3H31V53.7h12.2v-1.5H31v-4.3c0,0,0,0,0,0h51.3v-1.5H30.4l-1.8-4.3h29.1v-1.5H28.1
				l-1.7-4c-0.2-0.6-1.2-0.6-1.4,0l-1.7,4h-7.2v1.5h6.5L21,46.4h-4.8v1.5h4.2c0,0,0,0,0,0v4.3h-4.2v1.5h4.2V58h-4.2v1.5h4.2v4.3
				h-4.2v1.5h4.2v4.3h-4.2v1.5h4.2v15.2H3.7c-1.2,0-2.2-1-2.2-2.2V6.8c0-1.2,1-2.2,2.2-2.2h91.1c1.2,0,2.2,1,2.2,2.2v43H51.1
				c-3.2,0-5.8,2.6-5.8,5.8V58z M128,105.3c0,2.3-1.9,4.3-4.3,4.3H51.1c-2.3,0-4.3-1.9-4.3-4.3V55.6c0-2.3,1.9-4.3,4.3-4.3h72.6
				c2.3,0,4.3,1.9,4.3,4.3V105.3z"/>
		</g>
		<circle fill="#FF7058" cx="105.2" cy="21.7" r="2.6"/>
		<circle fill="#FFD05B" cx="118.7" cy="41.3" r="1.9"/>
		<circle fill="#FF7058" cx="2.7" cy="100.5" r="1.9"/>
		<circle fill="#FFD05B" cx="43.2" cy="116.3" r="1.9"/>
	</g>
</g>
</svg>
