<?xml version="1.0" encoding="utf-8"?>
<!-- Generator: Adobe Illustrator 18.0.0, SVG Export Plug-In . SVG Version: 6.00 Build 0)  -->
<!DOCTYPE svg PUBLIC "-//W3C//DTD SVG 1.1//EN" "http://www.w3.org/Graphics/SVG/1.1/DTD/svg11.dtd">
<svg version="1.1" id="Layer_1" xmlns="http://www.w3.org/2000/svg" xmlns:xlink="http://www.w3.org/1999/xlink" x="0px" y="0px"
	 viewBox="0 0 129.5 129.5" enable-background="new 0 0 129.5 129.5" xml:space="preserve">
<g>
	<g>
		<circle fill="#84DBFF" cx="15.4" cy="19.2" r="6.7"/>
		<polygon fill="#FFFFFF" points="14.1,16.6 14.1,21.8 17.4,19.2 		"/>
		<path fill="#231F20" d="M28.1,15.5h-2V9.4c0-2-1.6-3.6-3.6-3.6h-14c-2,0-3.6,1.6-3.6,3.6v6.1h-2c-1.5,0-2.8,1.2-2.8,2.8v5.6
			c0,1.5,1.2,2.8,2.8,2.8h3.5V9.4c0-1.2,0.9-2.1,2.1-2.1h14c1.2,0,2.1,0.9,2.1,2.1v19.3c0,1.8-1.5,3.3-3.3,3.3h-0.8
			c-0.3-1.1-1.3-1.9-2.6-1.9h-3.5c-1.5,0-2.7,1.2-2.7,2.7c0,1.5,1.2,2.7,2.7,2.7h3.5c1.2,0,2.2-0.8,2.6-1.9h0.8
			c2.6,0,4.8-2.1,4.8-4.8v-2.2h2c1.5,0,2.8-1.2,2.8-2.8v-5.6C30.8,16.7,29.6,15.5,28.1,15.5z M1.5,23.8v-5.6c0-0.7,0.6-1.3,1.3-1.3
			h2v8.1h-2C2.1,25.1,1.5,24.5,1.5,23.8z M17.9,34h-3.5c-0.7,0-1.2-0.5-1.2-1.2c0-0.7,0.5-1.2,1.2-1.2h3.5c0.7,0,1.2,0.5,1.2,1.2
			C19.1,33.5,18.5,34,17.9,34z M29.3,23.8c0,0.7-0.6,1.3-1.3,1.3h-2V17h2c0.7,0,1.3,0.6,1.3,1.3V23.8z"/>
		<path fill="#E6E9EE" d="M9.4,126.5c-1.9,0-3.5-1.6-3.5-3.5v-2.7h117.7v2.7c0,1.9-1.6,3.5-3.5,3.5H9.4z"/>
		<rect x="19.1" y="59.4" fill="#84DBFF" width="91.3" height="52.6"/>
		<path fill="#231F20" d="M74.1,124.1h-1v-1.5h1V124.1z M71.1,124.1h-1v-1.5h1V124.1z M68.1,124.1h-1v-1.5h1V124.1z M65.1,124.1h-1
			v-1.5h1V124.1z M62.1,124.1h-1v-1.5h1V124.1z M59.1,124.1h-1v-1.5h1V124.1z M56.1,124.1h-1v-1.5h1V124.1z"/>
		<path fill="#FF7058" d="M95.6,118.3v-5.5c0-17.9-14.5-32.4-32.4-32.4h0c-17.9,0-32.4,14.5-32.4,32.4v5.5H95.6z"/>
		<path fill="#FFFFFF" d="M71.7,80.2v-7.6h-17v7.6c0,4.7,3.8,8.5,8.5,8.5l0,0C67.9,88.7,71.7,84.9,71.7,80.2z"/>
		<path fill="#FFD05B" d="M81.8,15.7c-0.3-4.9-4.4-8.5-9-8.1C51.4,9.8,37,1,37,1s-0.8,9.7,3.1,17.2c-3.2,2.7-5.2,6.8-5.2,11.3v20.9
			c0,3,2.4,5.4,5.4,5.4H86c3,0,5.4-2.4,5.4-5.4V29.6C91.5,23.2,87.4,17.8,81.8,15.7z"/>
		<path fill="#FFFFFF" d="M86.3,44.7H86v-5.9c-9.2-0.9-16.8-7.4-19.3-16.1C61.2,31.7,51.5,38,40.3,38.8v5.9h-0.2
			c-1.8,0-3.3,1.5-3.3,3.3s1.5,3.3,3.3,3.3h0.2v4.5c0,12.6,10.2,22.9,22.9,22.9C75.8,78.7,86,68.5,86,55.9v-4.5h0.2
			c1.8,0,3.3-1.5,3.3-3.3S88.1,44.7,86.3,44.7z"/>
		<path fill="#231F20" d="M78,47.6c-0.4,0-0.7-0.3-0.7-0.6C77,45.3,75.5,44,73.8,44c-1.7,0-3.2,1.2-3.5,2.9
			c-0.1,0.4-0.5,0.7-0.9,0.6c-0.4-0.1-0.7-0.5-0.6-0.9c0.4-2.4,2.5-4.1,5-4.1c2.4,0,4.5,1.7,5,4.1c0.1,0.4-0.2,0.8-0.6,0.9
			C78.1,47.5,78.1,47.6,78,47.6z"/>
		<path fill="#231F20" d="M56.8,47.6c-0.4,0-0.7-0.3-0.7-0.6c-0.3-1.7-1.8-2.9-3.5-2.9c-1.7,0-3.2,1.2-3.5,2.9
			c-0.1,0.4-0.5,0.7-0.9,0.6c-0.4-0.1-0.7-0.5-0.6-0.9c0.4-2.4,2.5-4.1,5-4.1c2.4,0,4.5,1.7,5,4.1c0.1,0.4-0.2,0.8-0.6,0.9
			C56.9,47.5,56.8,47.6,56.8,47.6z"/>
		<path fill="#E6E9EE" d="M55.6,63.1c0.9,3.3,4,5.8,7.6,5.8c3.6,0,6.7-2.4,7.6-5.8H55.6z"/>
		<path fill="#231F20" d="M63.2,69.6c-3.9,0-7.3-2.6-8.4-6.3l-0.3-1h17.2l-0.3,1C70.5,67,67.1,69.6,63.2,69.6z M56.6,63.8
			c1.1,2.6,3.7,4.3,6.6,4.3c2.9,0,5.4-1.7,6.6-4.3H56.6z"/>
		<line fill="#FFFFFF" x1="81.5" y1="118.3" x2="81.5" y2="107.3"/>
		<line fill="#FFFFFF" x1="44.9" y1="118.3" x2="44.9" y2="107.3"/>
		<polygon fill="#FFFFFF" points="68.2,107.6 63.2,112.8 58.2,107.6 58.2,107.6 61.2,95.1 60.3,92.2 66,92.2 65.1,95.1 		"/>
		<path fill="#231F20" d="M63.2,113.5c-0.2,0-0.4-0.1-0.5-0.2l-4.9-5.2c0,0-0.1-0.1-0.1-0.1c-0.1-0.2-0.2-0.4-0.1-0.6l3-12.2
			l-0.8-2.8c-0.1-0.2,0-0.5,0.1-0.7c0.1-0.2,0.4-0.3,0.6-0.3H66c0.2,0,0.5,0.1,0.6,0.3c0.1,0.2,0.2,0.4,0.1,0.7l-0.8,2.8l3,12.3
			c0.1,0.2,0,0.5-0.2,0.7l-5,5.2C63.6,113.5,63.4,113.5,63.2,113.5z M59,107.3l4.2,4.4l4.1-4.3l-2.9-12c0-0.1,0-0.3,0-0.4l0.6-2
			h-3.7l0.6,2c0,0.1,0,0.3,0,0.4L59,107.3z"/>
		<path fill="#FFFFFF" d="M124.8,3.7h-20.4c-2.2,0-4,1.8-4,4v1.9l-6.1,3.6l6.1,3.6v51.2c0,2.2,1.8,4,4,4h20.4c2.2,0,4-1.8,4-4V7.7
			C128.7,5.5,127,3.7,124.8,3.7z"/>
		<path fill="#231F20" d="M124.8,3h-20.4c-2.6,0-4.7,2.1-4.7,4.7v1.4l-5.8,3.3c-0.2,0.1-0.4,0.4-0.4,0.6s0.1,0.5,0.4,0.6l5.8,3.3
			v35.3h-7.7c0.2-0.6,0.3-1.3,0.3-1.9V29.6c0-6.3-3.9-12.1-9.8-14.4c-0.6-5-4.9-8.8-9.8-8.3c-2.2,0.2-4.5,0.3-6.7,0.3
			c-17.2,0-28.4-6.7-28.6-6.8c-0.2-0.1-0.5-0.1-0.7,0c-0.2,0.1-0.4,0.3-0.4,0.6c0,0.4-0.8,9.6,2.9,17.1c-3.2,2.9-5,7.1-5,11.5v20.9
			c0,0.7,0.1,1.3,0.3,1.9H17c-2.7,0-4.9,2.2-4.9,4.9v60.2h-9v5.4c0,3.5,2.8,6.3,6.3,6.3h110.7c3.5,0,6.3-2.8,6.3-6.3v-5.4h-9V72.6
			h7.4c2.6,0,4.7-2.1,4.7-4.7V7.7C129.5,5.1,127.4,3,124.8,3z M35.6,29.6c0-4.1,1.8-8,5-10.7c0.3-0.2,0.3-0.6,0.2-0.9
			c-3-5.7-3.1-12.9-3-15.7C41,4,51.3,8.7,66,8.7c2.3,0,4.6-0.1,6.8-0.3c4.2-0.4,7.9,3,8.2,7.4c0,0.3,0.2,0.6,0.5,0.7
			c5.5,2,9.2,7.3,9.2,13.2v20.9c0,2.3-1.7,4.3-4,4.6v-3c2-0.3,3.6-2,3.6-4.1c0-2.1-1.6-3.8-3.6-4.1v-4.4c0.5,0,1,0.1,1.5,0.1
			c0.4,0,0.8-0.3,0.8-0.8c0-0.4-0.3-0.8-0.8-0.8c-0.7,0-1.4,0-2.2-0.1c-8.7-0.9-16.2-7.1-18.6-15.6c-0.1-0.3-0.3-0.5-0.6-0.5
			c-0.3,0-0.6,0.1-0.7,0.4c-5.6,9.1-15.2,15-25.9,15.8c-0.8,0.1-1.6,0.1-2.4,0.1c-0.4,0-0.8,0.3-0.8,0.8c0,0.4,0.3,0.8,0.8,0.8
			c0.6,0,1.2,0,1.7-0.1V44c-2,0.3-3.6,2-3.6,4.1c0,2.1,1.6,3.8,3.6,4.1v3c-2.2-0.4-3.9-2.3-3.9-4.6V29.6z M94.8,117.5H82.2v-10.2
			h-1.5v10.2H45.6v-10.2h-1.5v10.2H31.6v-4.7c0-14.3,9.6-26.4,22.7-30.3c1,4,4.6,7,9,7c4.3,0,7.9-3,9-7c13.1,3.9,22.7,16,22.7,30.3
			V117.5z M55.4,80.2v-2c2.4,0.8,5,1.3,7.8,1.3c2.7,0,5.3-0.5,7.8-1.3v2c0,4.3-3.5,7.8-7.8,7.8C58.9,88,55.4,84.5,55.4,80.2z
			 M63.2,78C51,78,41.1,68.1,41.1,55.9v-4.5c0-0.4-0.3-0.8-0.8-0.8h-0.2c-1.4,0-2.6-1.2-2.6-2.6c0-1.4,1.2-2.6,2.6-2.6h0.2
			c0.4,0,0.8-0.3,0.8-0.8v-5.2c10.3-1,19.7-6.5,25.5-15.1c2.9,8,10.2,13.9,18.7,15v5.3c0,0.4,0.3,0.8,0.8,0.8h0.2
			c1.4,0,2.6,1.2,2.6,2.6c0,1.4-1.2,2.6-2.6,2.6H86c-0.4,0-0.8,0.3-0.8,0.8v4.5C85.3,68.1,75.4,78,63.2,78z M13.6,57.3
			c0-1.9,1.5-3.4,3.4-3.4h18.2c1,1.5,2.6,2.5,4.4,2.7c0.3,9.4,6.1,17.4,14.3,21v2.6c0,0.3,0,0.5,0,0.8c-13.8,4-23.9,16.7-23.9,31.8
			v4.7H13.6V57.3z M124.9,119v3.9c0,2.6-2.1,4.8-4.8,4.8H9.4c-2.6,0-4.8-2.1-4.8-4.8V119H124.9z M96.3,117.5v-4.7
			C96.3,97.7,86.2,85,72.4,81c0-0.3,0-0.5,0-0.8v-2.6c8.2-3.5,14-11.6,14.3-21c1.8-0.2,3.4-1.2,4.4-2.7h8.4v14
			c0,2.6,2.1,4.7,4.7,4.7h11.5v44.9H96.3z M128,67.9c0,1.8-1.4,3.2-3.2,3.2h-20.4c-1.8,0-3.2-1.4-3.2-3.2V16.7
			c0-0.3-0.1-0.5-0.4-0.6l-5-2.9l5-2.9c0.2-0.1,0.4-0.4,0.4-0.6V7.7c0-1.8,1.4-3.2,3.2-3.2h20.4c1.8,0,3.2,1.4,3.2,3.2V67.9z"/>
		<g>
			<g>
				<line fill="#FFFFFF" x1="104.7" y1="16.3" x2="107.2" y2="16.3"/>
				<rect x="104.7" y="15.6" fill="#231F20" width="2.5" height="1.5"/>
			</g>
			<g>
				<line fill="#FFFFFF" x1="109" y1="16.3" x2="124.3" y2="16.3"/>
				<rect x="109" y="15.6" fill="#231F20" width="15.3" height="1.5"/>
			</g>
		</g>
		<g>
			<g>
				<line fill="#FFFFFF" x1="104.7" y1="22.5" x2="107.2" y2="22.5"/>
				<rect x="104.7" y="21.7" fill="#231F20" width="2.5" height="1.5"/>
			</g>
			<g>
				<line fill="#FFFFFF" x1="109" y1="22.5" x2="124.3" y2="22.5"/>
				<rect x="109" y="21.7" fill="#231F20" width="15.3" height="1.5"/>
			</g>
		</g>
		<g>
			<g>
				<line fill="#FFFFFF" x1="104.7" y1="28.6" x2="107.2" y2="28.6"/>
				<rect x="104.7" y="27.9" fill="#231F20" width="2.5" height="1.5"/>
			</g>
			<g>
				<line fill="#FFFFFF" x1="109" y1="28.6" x2="124.3" y2="28.6"/>
				<rect x="109" y="27.9" fill="#231F20" width="15.3" height="1.5"/>
			</g>
		</g>
		<g>
			<g>
				<line fill="#FFFFFF" x1="104.7" y1="34.7" x2="107.2" y2="34.7"/>
				<rect x="104.7" y="34" fill="#231F20" width="2.5" height="1.5"/>
			</g>
			<g>
				<line fill="#FFFFFF" x1="109" y1="34.7" x2="124.3" y2="34.7"/>
				<rect x="109" y="34" fill="#231F20" width="15.3" height="1.5"/>
			</g>
		</g>
		<g>
			<g>
				<line fill="#FFFFFF" x1="104.7" y1="40.9" x2="107.2" y2="40.9"/>
				<rect x="104.7" y="40.1" fill="#231F20" width="2.5" height="1.5"/>
			</g>
			<g>
				<line fill="#FFFFFF" x1="109" y1="40.9" x2="124.3" y2="40.9"/>
				<rect x="109" y="40.1" fill="#231F20" width="15.3" height="1.5"/>
			</g>
		</g>
		<g>
			<g>
				<line fill="#FFFFFF" x1="104.7" y1="47" x2="107.2" y2="47"/>
				<rect x="104.7" y="46.3" fill="#231F20" width="2.5" height="1.5"/>
			</g>
			<g>
				<line fill="#FFFFFF" x1="109" y1="47" x2="124.3" y2="47"/>
				<rect x="109" y="46.3" fill="#231F20" width="15.3" height="1.5"/>
			</g>
		</g>
		<g>
			<g>
				<line fill="#FFFFFF" x1="104.7" y1="53.1" x2="107.2" y2="53.1"/>
				<rect x="104.7" y="52.4" fill="#231F20" width="2.5" height="1.5"/>
			</g>
			<g>
				<line fill="#FFFFFF" x1="109" y1="53.1" x2="124.3" y2="53.1"/>
				<rect x="109" y="52.4" fill="#231F20" width="15.3" height="1.5"/>
			</g>
		</g>
		<g>
			<g>
				<line fill="#FFFFFF" x1="104.7" y1="59.3" x2="107.2" y2="59.3"/>
				<rect x="104.7" y="58.5" fill="#231F20" width="2.5" height="1.5"/>
			</g>
			<g>
				<line fill="#FFFFFF" x1="109" y1="59.3" x2="124.3" y2="59.3"/>
				<rect x="109" y="58.5" fill="#231F20" width="15.3" height="1.5"/>
			</g>
		</g>
		<path fill="#231F20" d="M7.2,42.7c-0.2,0-0.4-0.1-0.5-0.2c-0.3-0.3-0.3-0.8,0-1.1L8,40.1c0.3-0.3,0.8-0.3,1.1,0
			c0.3,0.3,0.3,0.8,0,1.1l-1.3,1.3C7.6,42.6,7.4,42.7,7.2,42.7z"/>
		<path fill="#231F20" d="M3.2,46.7c-0.2,0-0.4-0.1-0.5-0.2c-0.3-0.3-0.3-0.8,0-1.1L4,44.1c0.3-0.3,0.8-0.3,1.1,0
			c0.3,0.3,0.3,0.8,0,1.1l-1.3,1.3C3.6,46.6,3.4,46.7,3.2,46.7z"/>
		<path fill="#231F20" d="M8.5,46.7c-0.2,0-0.4-0.1-0.5-0.2l-1.3-1.3c-0.3-0.3-0.3-0.8,0-1.1c0.3-0.3,0.8-0.3,1.1,0l1.3,1.3
			c0.3,0.3,0.3,0.8,0,1.1C8.9,46.6,8.7,46.7,8.5,46.7z"/>
		<path fill="#231F20" d="M4.5,42.7c-0.2,0-0.4-0.1-0.5-0.2l-1.3-1.3c-0.3-0.3-0.3-0.8,0-1.1c0.3-0.3,0.8-0.3,1.1,0L5,41.4
			c0.3,0.3,0.3,0.8,0,1.1C4.9,42.6,4.7,42.7,4.5,42.7z"/>
		<path fill="#231F20" d="M89.6,3.1c-0.2,0-0.4-0.1-0.5-0.2c-0.3-0.3-0.3-0.8,0-1.1l1.3-1.3c0.3-0.3,0.8-0.3,1.1,0
			c0.3,0.3,0.3,0.8,0,1.1l-1.3,1.3C90,3.1,89.8,3.1,89.6,3.1z"/>
		<path fill="#231F20" d="M85.6,7.2c-0.2,0-0.4-0.1-0.5-0.2c-0.3-0.3-0.3-0.8,0-1.1l1.3-1.3c0.3-0.3,0.8-0.3,1.1,0
			c0.3,0.3,0.3,0.8,0,1.1l-1.3,1.3C86,7.1,85.8,7.2,85.6,7.2z"/>
		<path fill="#231F20" d="M90.9,7.2c-0.2,0-0.4-0.1-0.5-0.2l-1.3-1.3c-0.3-0.3-0.3-0.8,0-1.1c0.3-0.3,0.8-0.3,1.1,0l1.3,1.3
			c0.3,0.3,0.3,0.8,0,1.1C91.3,7.1,91.1,7.2,90.9,7.2z"/>
		<path fill="#231F20" d="M86.9,3.1c-0.2,0-0.4-0.1-0.5-0.2l-1.3-1.3c-0.3-0.3-0.3-0.8,0-1.1c0.3-0.3,0.8-0.3,1.1,0l1.3,1.3
			c0.3,0.3,0.3,0.8,0,1.1C87.3,3.1,87.1,3.1,86.9,3.1z"/>
		<path fill="#231F20" d="M5.9,98.7c-0.2,0-0.4-0.1-0.5-0.2c-0.3-0.3-0.3-0.8,0-1.1l1.3-1.3c0.3-0.3,0.8-0.3,1.1,0
			c0.3,0.3,0.3,0.8,0,1.1l-1.3,1.3C6.3,98.7,6.1,98.7,5.9,98.7z"/>
		<path fill="#231F20" d="M1.8,102.8c-0.2,0-0.4-0.1-0.5-0.2c-0.3-0.3-0.3-0.8,0-1.1l1.3-1.3c0.3-0.3,0.8-0.3,1.1,0
			c0.3,0.3,0.3,0.8,0,1.1l-1.3,1.3C2.2,102.7,2,102.8,1.8,102.8z"/>
		<path fill="#231F20" d="M7.2,102.8c-0.2,0-0.4-0.1-0.5-0.2l-1.3-1.3c-0.3-0.3-0.3-0.8,0-1.1c0.3-0.3,0.8-0.3,1.1,0l1.3,1.3
			c0.3,0.3,0.3,0.8,0,1.1C7.5,102.7,7.4,102.8,7.2,102.8z"/>
		<path fill="#231F20" d="M3.1,98.7c-0.2,0-0.4-0.1-0.5-0.2l-1.3-1.3c-0.3-0.3-0.3-0.8,0-1.1c0.3-0.3,0.8-0.3,1.1,0l1.3,1.3
			c0.3,0.3,0.3,0.8,0,1.1C3.5,98.7,3.3,98.7,3.1,98.7z"/>
		<circle fill="#FF7058" cx="22" cy="43.3" r="2"/>
		<circle fill="#FFD05B" cx="2.8" cy="78.7" r="1.7"/>
		<circle fill="#FF7058" cx="125.6" cy="80.7" r="1.7"/>
		<path fill="#FFFFFF" d="M92.2,78.3h-8.1c-0.4,0-0.8-0.3-0.8-0.8c0-0.4,0.3-0.8,0.8-0.8h8.1c0.4,0,0.8,0.3,0.8,0.8
			C93,77.9,92.6,78.3,92.2,78.3z"/>
		<path fill="#FFFFFF" d="M95.4,81.2h-4c-0.4,0-0.8-0.3-0.8-0.8c0-0.4,0.3-0.8,0.8-0.8h4c0.4,0,0.8,0.3,0.8,0.8
			C96.2,80.9,95.8,81.2,95.4,81.2z"/>
		<path fill="#FFFFFF" d="M99.7,78.3h-3.8c-0.4,0-0.8-0.3-0.8-0.8c0-0.4,0.3-0.8,0.8-0.8h3.8c0.4,0,0.8,0.3,0.8,0.8
			C100.4,77.9,100.1,78.3,99.7,78.3z"/>
		<path fill="#FFFFFF" d="M88.6,81.2h-0.8c-0.4,0-0.8-0.3-0.8-0.8c0-0.4,0.3-0.8,0.8-0.8h0.8c0.4,0,0.8,0.3,0.8,0.8
			C89.3,80.9,89,81.2,88.6,81.2z"/>
		<path fill="#FFFFFF" d="M33.1,80H25c-0.4,0-0.8-0.3-0.8-0.8c0-0.4,0.3-0.8,0.8-0.8h8.1c0.4,0,0.8,0.3,0.8,0.8
			C33.8,79.6,33.5,80,33.1,80z"/>
		<path fill="#FFFFFF" d="M36.3,82.9h-4c-0.4,0-0.7-0.3-0.7-0.8c0-0.4,0.3-0.8,0.7-0.8h4c0.4,0,0.8,0.3,0.8,0.8
			C37,82.6,36.7,82.9,36.3,82.9z"/>
		<path fill="#FFFFFF" d="M40.5,80h-3.8c-0.4,0-0.8-0.3-0.8-0.8c0-0.4,0.3-0.8,0.8-0.8h3.8c0.4,0,0.8,0.3,0.8,0.8
			C41.3,79.6,40.9,80,40.5,80z"/>
		<path fill="#FFFFFF" d="M29.4,82.9h-0.8c-0.4,0-0.8-0.3-0.8-0.8c0-0.4,0.3-0.8,0.8-0.8h0.8c0.4,0,0.8,0.3,0.8,0.8
			C30.2,82.6,29.8,82.9,29.4,82.9z"/>
	</g>
</g>
</svg>
