<?xml version="1.0" encoding="UTF-8"?>
<svg xmlns="http://www.w3.org/2000/svg" xmlns:xlink="http://www.w3.org/1999/xlink" width="100px" height="100px" viewBox="0 0 100 100" version="1.1">
<g id="surface1">
<path style=" stroke:none;fill-rule:nonzero;fill:rgb(13.72549%,12.156863%,12.54902%);fill-opacity:1;" d="M 8.261719 11.042969 C 8.109375 11.042969 7.953125 10.964844 7.875 10.886719 C 7.644531 10.65625 7.644531 10.269531 7.875 10.039062 L 8.878906 9.035156 C 9.113281 8.804688 9.5 8.804688 9.730469 9.035156 C 9.960938 9.265625 9.960938 9.652344 9.730469 9.882812 L 8.726562 10.886719 C 8.570312 11.042969 8.417969 11.042969 8.261719 11.042969 Z M 8.261719 11.042969 "/>
<path style=" stroke:none;fill-rule:nonzero;fill:rgb(13.72549%,12.156863%,12.54902%);fill-opacity:1;" d="M 5.171875 14.132812 C 5.019531 14.132812 4.863281 14.054688 4.789062 13.976562 C 4.554688 13.746094 4.554688 13.359375 4.789062 13.128906 L 5.792969 12.125 C 6.023438 11.890625 6.410156 11.890625 6.640625 12.125 C 6.871094 12.355469 6.871094 12.742188 6.640625 12.972656 L 5.636719 13.976562 C 5.484375 14.132812 5.328125 14.132812 5.171875 14.132812 Z M 5.171875 14.132812 "/>
<path style=" stroke:none;fill-rule:nonzero;fill:rgb(13.72549%,12.156863%,12.54902%);fill-opacity:1;" d="M 9.265625 14.132812 C 9.113281 14.132812 8.957031 14.054688 8.878906 13.976562 L 7.875 12.972656 C 7.644531 12.742188 7.644531 12.355469 7.875 12.125 C 8.109375 11.890625 8.496094 11.890625 8.726562 12.125 L 9.730469 13.128906 C 9.960938 13.359375 9.960938 13.746094 9.730469 13.976562 C 9.574219 14.132812 9.421875 14.132812 9.265625 14.132812 Z M 9.265625 14.132812 "/>
<path style=" stroke:none;fill-rule:nonzero;fill:rgb(13.72549%,12.156863%,12.54902%);fill-opacity:1;" d="M 6.175781 11.042969 C 6.023438 11.042969 5.867188 10.964844 5.792969 10.886719 L 4.789062 9.882812 C 4.554688 9.652344 4.554688 9.265625 4.789062 9.035156 C 5.019531 8.804688 5.40625 8.804688 5.636719 9.035156 L 6.5625 10.039062 C 6.796875 10.269531 6.796875 10.65625 6.5625 10.886719 C 6.488281 11.042969 6.332031 11.042969 6.175781 11.042969 Z M 6.175781 11.042969 "/>
<path style=" stroke:none;fill-rule:nonzero;fill:rgb(13.72549%,12.156863%,12.54902%);fill-opacity:1;" d="M 50.964844 86.488281 C 50.8125 86.488281 50.65625 86.410156 50.578125 86.332031 C 50.347656 86.101562 50.347656 85.714844 50.578125 85.484375 L 51.582031 84.480469 C 51.816406 84.246094 52.199219 84.246094 52.433594 84.480469 C 52.664062 84.710938 52.664062 85.097656 52.433594 85.328125 L 51.429688 86.332031 C 51.273438 86.410156 51.121094 86.488281 50.964844 86.488281 Z M 50.964844 86.488281 "/>
<path style=" stroke:none;fill-rule:nonzero;fill:rgb(13.72549%,12.156863%,12.54902%);fill-opacity:1;" d="M 47.875 89.574219 C 47.722656 89.574219 47.566406 89.5 47.492188 89.421875 C 47.257812 89.1875 47.257812 88.804688 47.492188 88.570312 L 48.496094 87.566406 C 48.726562 87.335938 49.113281 87.335938 49.34375 87.566406 C 49.574219 87.800781 49.574219 88.183594 49.34375 88.417969 L 48.339844 89.421875 C 48.183594 89.5 48.03125 89.574219 47.875 89.574219 Z M 47.875 89.574219 "/>
<path style=" stroke:none;fill-rule:nonzero;fill:rgb(13.72549%,12.156863%,12.54902%);fill-opacity:1;" d="M 51.96875 89.574219 C 51.816406 89.574219 51.660156 89.5 51.582031 89.421875 L 50.578125 88.417969 C 50.347656 88.183594 50.347656 87.800781 50.578125 87.566406 C 50.8125 87.335938 51.195312 87.335938 51.429688 87.566406 L 52.433594 88.570312 C 52.664062 88.804688 52.664062 89.1875 52.433594 89.421875 C 52.277344 89.5 52.125 89.574219 51.96875 89.574219 Z M 51.96875 89.574219 "/>
<path style=" stroke:none;fill-rule:nonzero;fill:rgb(13.72549%,12.156863%,12.54902%);fill-opacity:1;" d="M 48.878906 86.488281 C 48.726562 86.488281 48.570312 86.410156 48.496094 86.332031 L 47.492188 85.328125 C 47.257812 85.097656 47.257812 84.710938 47.492188 84.480469 C 47.722656 84.246094 48.109375 84.246094 48.339844 84.480469 L 49.34375 85.484375 C 49.574219 85.714844 49.574219 86.101562 49.34375 86.332031 C 49.1875 86.410156 49.035156 86.488281 48.878906 86.488281 Z M 48.878906 86.488281 "/>
<path style=" stroke:none;fill-rule:nonzero;fill:rgb(13.72549%,12.156863%,12.54902%);fill-opacity:1;" d="M 98.300781 2.238281 C 98.148438 2.238281 97.992188 2.164062 97.914062 2.085938 C 97.683594 1.851562 97.683594 1.46875 97.914062 1.234375 L 98.917969 0.230469 C 99.152344 0 99.535156 0 99.769531 0.230469 C 100 0.464844 100 0.847656 99.769531 1.082031 L 98.765625 2.085938 C 98.609375 2.164062 98.457031 2.238281 98.300781 2.238281 Z M 98.300781 2.238281 "/>
<path style=" stroke:none;fill-rule:nonzero;fill:rgb(13.72549%,12.156863%,12.54902%);fill-opacity:1;" d="M 95.210938 5.328125 C 95.058594 5.328125 94.902344 5.25 94.828125 5.171875 C 94.59375 4.941406 94.59375 4.554688 94.828125 4.324219 L 95.832031 3.320312 C 96.0625 3.089844 96.449219 3.089844 96.679688 3.320312 C 96.910156 3.550781 96.910156 3.9375 96.679688 4.167969 L 95.675781 5.171875 C 95.519531 5.25 95.367188 5.328125 95.210938 5.328125 Z M 95.210938 5.328125 "/>
<path style=" stroke:none;fill-rule:nonzero;fill:rgb(13.72549%,12.156863%,12.54902%);fill-opacity:1;" d="M 99.304688 5.328125 C 99.152344 5.328125 98.996094 5.25 98.917969 5.171875 L 97.914062 4.167969 C 97.683594 3.9375 97.683594 3.550781 97.914062 3.320312 C 98.148438 3.089844 98.53125 3.089844 98.765625 3.320312 L 99.769531 4.324219 C 100 4.554688 100 4.941406 99.769531 5.171875 C 99.613281 5.25 99.460938 5.328125 99.304688 5.328125 Z M 99.304688 5.328125 "/>
<path style=" stroke:none;fill-rule:nonzero;fill:rgb(13.72549%,12.156863%,12.54902%);fill-opacity:1;" d="M 96.214844 2.238281 C 96.0625 2.238281 95.90625 2.164062 95.832031 2.085938 L 94.828125 1.082031 C 94.59375 0.847656 94.59375 0.464844 94.828125 0.230469 C 95.058594 0 95.445312 0 95.675781 0.230469 L 96.679688 1.234375 C 96.910156 1.46875 96.910156 1.851562 96.679688 2.085938 C 96.449219 2.164062 96.371094 2.238281 96.214844 2.238281 Z M 96.214844 2.238281 "/>
<path style=" stroke:none;fill-rule:nonzero;fill:rgb(90.196078%,91.372549%,93.333333%);fill-opacity:1;" d="M 16.371094 55.445312 L 16.371094 61.542969 C 16.371094 64.09375 18.457031 66.175781 21.003906 66.175781 L 94.671875 66.175781 C 97.21875 66.175781 99.304688 64.09375 99.304688 61.542969 L 99.304688 55.445312 Z M 16.371094 55.445312 "/>
<path style=" stroke:none;fill-rule:nonzero;fill:rgb(100%,81.568627%,35.686275%);fill-opacity:1;" d="M 21.003906 13.203125 L 94.671875 13.203125 L 94.671875 50.886719 L 21.003906 50.886719 Z M 21.003906 13.203125 "/>
<path style=" stroke:none;fill-rule:nonzero;fill:rgb(90.196078%,91.372549%,93.333333%);fill-opacity:1;" d="M 80.847656 80.773438 L 34.75 80.773438 L 34.75 78.6875 C 34.75 76.601562 36.449219 74.980469 38.457031 74.980469 L 77.144531 74.980469 C 79.226562 74.980469 80.847656 76.679688 80.847656 78.6875 Z M 80.847656 80.773438 "/>
<path style=" stroke:none;fill-rule:nonzero;fill:rgb(100%,100%,100%);fill-opacity:1;" d="M 36.757812 36.601562 C 36.757812 38.308594 35.375 39.691406 33.667969 39.691406 C 31.960938 39.691406 30.578125 38.308594 30.578125 36.601562 C 30.578125 34.894531 31.960938 33.511719 33.667969 33.511719 C 35.375 33.511719 36.757812 34.894531 36.757812 36.601562 Z M 36.757812 36.601562 "/>
<path style=" stroke:none;fill-rule:nonzero;fill:rgb(13.72549%,12.156863%,12.54902%);fill-opacity:1;" d="M 33.667969 40.230469 C 31.660156 40.230469 29.960938 38.609375 29.960938 36.523438 C 29.960938 34.515625 31.582031 32.820312 33.667969 32.820312 C 35.675781 32.820312 37.375 34.441406 37.375 36.523438 C 37.375 38.609375 35.753906 40.230469 33.667969 40.230469 Z M 33.667969 34.054688 C 32.277344 34.054688 31.121094 35.210938 31.121094 36.601562 C 31.121094 37.992188 32.277344 39.152344 33.667969 39.152344 C 35.058594 39.152344 36.214844 37.992188 36.214844 36.601562 C 36.214844 35.210938 35.058594 34.054688 33.667969 34.054688 Z M 33.667969 34.054688 "/>
<path style=" stroke:none;fill-rule:nonzero;fill:rgb(100%,100%,100%);fill-opacity:1;" d="M 52.046875 21.3125 C 52.046875 23.019531 50.664062 24.402344 48.957031 24.402344 C 47.25 24.402344 45.867188 23.019531 45.867188 21.3125 C 45.867188 19.605469 47.25 18.222656 48.957031 18.222656 C 50.664062 18.222656 52.046875 19.605469 52.046875 21.3125 Z M 52.046875 21.3125 "/>
<path style=" stroke:none;fill-rule:nonzero;fill:rgb(13.72549%,12.156863%,12.54902%);fill-opacity:1;" d="M 48.957031 25.019531 C 46.949219 25.019531 45.25 23.398438 45.25 21.390625 C 45.25 19.382812 46.871094 17.683594 48.957031 17.683594 C 50.964844 17.683594 52.585938 19.304688 52.585938 21.390625 C 52.585938 23.398438 50.964844 25.019531 48.957031 25.019531 Z M 48.957031 18.839844 C 47.566406 18.839844 46.410156 20 46.410156 21.390625 C 46.410156 22.78125 47.566406 23.9375 48.957031 23.9375 C 50.347656 23.9375 51.429688 22.78125 51.429688 21.390625 C 51.429688 19.921875 50.347656 18.839844 48.957031 18.839844 Z M 48.957031 18.839844 "/>
<path style=" stroke:none;fill-rule:nonzero;fill:rgb(100%,100%,100%);fill-opacity:1;" d="M 60.308594 33.511719 C 60.308594 35.21875 58.925781 36.601562 57.21875 36.601562 C 55.515625 36.601562 54.132812 35.21875 54.132812 33.511719 C 54.132812 31.808594 55.515625 30.425781 57.21875 30.425781 C 58.925781 30.425781 60.308594 31.808594 60.308594 33.511719 Z M 60.308594 33.511719 "/>
<path style=" stroke:none;fill-rule:nonzero;fill:rgb(13.72549%,12.156863%,12.54902%);fill-opacity:1;" d="M 57.21875 37.144531 C 55.210938 37.144531 53.511719 35.519531 53.511719 33.4375 C 53.511719 31.429688 55.136719 29.730469 57.21875 29.730469 C 59.226562 29.730469 60.925781 31.351562 60.925781 33.4375 C 60.925781 35.519531 59.226562 37.144531 57.21875 37.144531 Z M 57.21875 30.964844 C 55.832031 30.964844 54.671875 32.125 54.671875 33.511719 C 54.671875 34.902344 55.832031 36.0625 57.21875 36.0625 C 58.609375 36.0625 59.769531 34.902344 59.769531 33.511719 C 59.769531 32.125 58.609375 30.964844 57.21875 30.964844 Z M 57.21875 30.964844 "/>
<path style=" stroke:none;fill-rule:nonzero;fill:rgb(100%,100%,100%);fill-opacity:1;" d="M 72.585938 21.234375 C 72.585938 22.941406 71.203125 24.324219 69.5 24.324219 C 67.792969 24.324219 66.410156 22.941406 66.410156 21.234375 C 66.410156 19.53125 67.792969 18.148438 69.5 18.148438 C 71.203125 18.148438 72.585938 19.53125 72.585938 21.234375 Z M 72.585938 21.234375 "/>
<path style=" stroke:none;fill-rule:nonzero;fill:rgb(13.72549%,12.156863%,12.54902%);fill-opacity:1;" d="M 69.5 24.941406 C 67.492188 24.941406 65.792969 23.320312 65.792969 21.234375 C 65.792969 19.226562 67.414062 17.527344 69.5 17.527344 C 71.503906 17.527344 73.203125 19.152344 73.203125 21.234375 C 73.128906 23.320312 71.503906 24.941406 69.5 24.941406 Z M 69.5 18.765625 C 68.109375 18.765625 66.949219 19.921875 66.949219 21.3125 C 66.949219 22.703125 68.109375 23.859375 69.5 23.859375 C 70.886719 23.859375 72.046875 22.703125 72.046875 21.3125 C 71.96875 19.84375 70.8125 18.765625 69.5 18.765625 Z M 69.5 18.765625 "/>
<path style=" stroke:none;fill-rule:nonzero;fill:rgb(100%,100%,100%);fill-opacity:1;" d="M 85.019531 33.746094 C 85.019531 35.449219 83.636719 36.832031 81.929688 36.832031 C 80.222656 36.832031 78.839844 35.449219 78.839844 33.746094 C 78.839844 32.039062 80.222656 30.65625 81.929688 30.65625 C 83.636719 30.65625 85.019531 32.039062 85.019531 33.746094 Z M 85.019531 33.746094 "/>
<path style=" stroke:none;fill-rule:nonzero;fill:rgb(13.72549%,12.156863%,12.54902%);fill-opacity:1;" d="M 81.929688 37.375 C 79.921875 37.375 78.222656 35.753906 78.222656 33.667969 C 78.222656 31.660156 79.84375 29.960938 81.929688 29.960938 C 83.9375 29.960938 85.636719 31.582031 85.636719 33.667969 C 85.636719 35.753906 83.9375 37.375 81.929688 37.375 Z M 81.929688 31.195312 C 80.539062 31.195312 79.382812 32.355469 79.382812 33.746094 C 79.382812 35.136719 80.539062 36.292969 81.929688 36.292969 C 83.320312 36.292969 84.480469 35.136719 84.480469 33.746094 C 84.480469 32.355469 83.320312 31.195312 81.929688 31.195312 Z M 81.929688 31.195312 "/>
<path style=" stroke:none;fill-rule:nonzero;fill:rgb(13.72549%,12.156863%,12.54902%);fill-opacity:1;" d="M 35.90625 34.980469 C 35.753906 34.980469 35.597656 34.902344 35.519531 34.828125 C 35.289062 34.59375 35.289062 34.207031 35.519531 33.976562 L 46.332031 23.011719 C 46.5625 22.78125 46.949219 22.78125 47.179688 23.011719 C 47.414062 23.242188 47.414062 23.628906 47.179688 23.859375 L 36.292969 34.828125 C 36.214844 34.980469 36.0625 34.980469 35.90625 34.980469 Z M 35.90625 34.980469 "/>
<path style=" stroke:none;fill-rule:nonzero;fill:rgb(13.72549%,12.156863%,12.54902%);fill-opacity:1;" d="M 58.839844 31.429688 C 58.6875 31.429688 58.53125 31.351562 58.378906 31.195312 C 58.148438 30.964844 58.222656 30.578125 58.457031 30.347656 L 66.949219 23.011719 C 67.179688 22.78125 67.566406 22.855469 67.800781 23.089844 C 68.03125 23.320312 67.953125 23.707031 67.722656 23.9375 L 59.226562 31.273438 C 59.074219 31.351562 58.996094 31.429688 58.839844 31.429688 Z M 58.839844 31.429688 "/>
<path style=" stroke:none;fill-rule:nonzero;fill:rgb(13.72549%,12.156863%,12.54902%);fill-opacity:1;" d="M 79.921875 31.96875 C 79.769531 31.96875 79.613281 31.890625 79.535156 31.816406 L 71.195312 23.9375 C 70.964844 23.707031 70.964844 23.320312 71.195312 23.089844 C 71.429688 22.855469 71.816406 22.855469 72.046875 23.089844 L 80.386719 30.964844 C 80.617188 31.195312 80.617188 31.582031 80.386719 31.816406 C 80.230469 31.890625 80.078125 31.96875 79.921875 31.96875 Z M 79.921875 31.96875 "/>
<path style=" stroke:none;fill-rule:nonzero;fill:rgb(13.72549%,12.156863%,12.54902%);fill-opacity:1;" d="M 55.597656 31.429688 C 55.445312 31.429688 55.210938 31.351562 55.136719 31.195312 L 50.117188 24.324219 C 49.960938 24.09375 49.960938 23.707031 50.269531 23.550781 C 50.5 23.398438 50.886719 23.398438 51.042969 23.707031 L 56.0625 30.578125 C 56.214844 30.8125 56.214844 31.195312 55.90625 31.351562 C 55.90625 31.429688 55.753906 31.429688 55.597656 31.429688 Z M 55.597656 31.429688 "/>
<path style=" stroke:none;fill-rule:nonzero;fill:rgb(67.45098%,70.196078%,72.941176%);fill-opacity:1;" d="M 61.003906 60.847656 C 61.003906 62.597656 59.585938 64.015625 57.835938 64.015625 C 56.089844 64.015625 54.671875 62.597656 54.671875 60.847656 C 54.671875 59.101562 56.089844 57.683594 57.835938 57.683594 C 59.585938 57.683594 61.003906 59.101562 61.003906 60.847656 Z M 61.003906 60.847656 "/>
<path style=" stroke:none;fill-rule:nonzero;fill:rgb(13.72549%,12.156863%,12.54902%);fill-opacity:1;" d="M 99.691406 90.578125 C 94.207031 85.097656 86.871094 82.007812 79.074219 82.007812 C 71.273438 82.007812 63.9375 85.019531 58.457031 90.578125 C 58.222656 90.8125 58.222656 91.195312 58.457031 91.429688 C 63.9375 96.910156 71.273438 100 79.074219 100 C 86.871094 100 94.207031 96.988281 99.691406 91.429688 C 99.921875 91.195312 99.921875 90.8125 99.691406 90.578125 Z M 79.074219 83.628906 C 83.242188 83.628906 86.640625 87.027344 86.640625 91.195312 C 86.640625 95.367188 83.242188 98.765625 79.074219 98.765625 C 74.902344 98.765625 71.503906 95.367188 71.503906 91.195312 C 71.503906 87.027344 74.902344 83.628906 79.074219 83.628906 Z M 59.691406 90.964844 C 63.9375 86.871094 69.265625 84.324219 74.980469 83.476562 C 72.199219 84.941406 70.347656 87.875 70.347656 91.195312 C 70.347656 94.132812 71.816406 96.757812 74.054688 98.300781 C 68.648438 97.375 63.707031 94.828125 59.691406 90.964844 Z M 84.09375 98.300781 C 86.332031 96.679688 87.800781 94.132812 87.800781 91.195312 C 87.800781 87.875 85.945312 84.941406 83.167969 83.476562 C 88.878906 84.324219 94.207031 86.871094 98.457031 90.964844 C 94.441406 94.828125 89.5 97.375 84.09375 98.300781 Z M 84.09375 98.300781 "/>
<path style=" stroke:none;fill-rule:nonzero;fill:rgb(51.764706%,85.882353%,100%);fill-opacity:1;" d="M 83.320312 91.195312 C 83.320312 93.542969 81.417969 95.445312 79.074219 95.445312 C 76.726562 95.445312 74.828125 93.542969 74.828125 91.195312 C 74.828125 88.851562 76.726562 86.949219 79.074219 86.949219 C 81.417969 86.949219 83.320312 88.851562 83.320312 91.195312 Z M 83.320312 91.195312 "/>
<path style=" stroke:none;fill-rule:nonzero;fill:rgb(32.941176%,75.294118%,92.156863%);fill-opacity:1;" d="M 81.003906 91.195312 C 81.003906 92.261719 80.140625 93.128906 79.074219 93.128906 C 78.007812 93.128906 77.144531 92.261719 77.144531 91.195312 C 77.144531 90.128906 78.007812 89.265625 79.074219 89.265625 C 80.140625 89.265625 81.003906 90.128906 81.003906 91.195312 Z M 81.003906 91.195312 "/>
<path style=" stroke:none;fill-rule:nonzero;fill:rgb(13.72549%,12.156863%,12.54902%);fill-opacity:1;" d="M 79.074219 97.761719 C 78.839844 97.761719 78.609375 97.761719 78.378906 97.761719 L 78.53125 96.601562 C 78.6875 96.601562 78.917969 96.601562 79.074219 96.601562 L 79.226562 96.601562 L 79.226562 97.761719 Z M 80.925781 97.527344 L 80.617188 96.449219 C 80.847656 96.371094 81.082031 96.292969 81.234375 96.214844 L 81.699219 97.296875 C 81.46875 97.296875 81.160156 97.453125 80.925781 97.527344 Z M 76.757812 97.375 C 76.523438 97.296875 76.214844 97.144531 75.984375 96.988281 L 76.523438 95.984375 C 76.757812 96.0625 76.910156 96.214844 77.144531 96.292969 Z M 83.167969 96.371094 L 82.472656 95.445312 C 82.625 95.289062 82.855469 95.136719 83.011719 94.980469 L 83.859375 95.753906 C 83.550781 95.984375 83.398438 96.140625 83.167969 96.371094 Z M 74.59375 95.984375 C 74.363281 95.832031 74.207031 95.597656 73.976562 95.367188 L 74.902344 94.59375 C 75.058594 94.75 75.210938 94.980469 75.367188 95.136719 Z M 84.789062 94.441406 L 83.785156 93.898438 C 83.859375 93.667969 84.015625 93.511719 84.09375 93.28125 L 85.171875 93.746094 C 85.019531 93.898438 84.941406 94.207031 84.789062 94.441406 Z M 73.128906 93.976562 C 72.972656 93.746094 72.894531 93.4375 72.820312 93.203125 L 73.898438 92.820312 C 73.976562 93.050781 74.054688 93.28125 74.132812 93.4375 Z M 85.558594 92.046875 L 84.402344 91.890625 C 84.402344 91.660156 84.480469 91.429688 84.480469 91.195312 C 84.480469 91.042969 84.480469 90.8125 84.480469 90.65625 L 85.636719 90.5 C 85.636719 90.734375 85.636719 90.964844 85.636719 91.195312 C 85.636719 91.503906 85.636719 91.738281 85.558594 92.046875 Z M 72.507812 91.503906 C 72.507812 91.429688 72.507812 91.273438 72.507812 91.195312 C 72.507812 91.042969 72.507812 90.886719 72.507812 90.65625 L 73.667969 90.734375 C 73.667969 90.886719 73.667969 91.042969 73.667969 91.121094 C 73.667969 91.195312 73.667969 91.273438 73.667969 91.429688 Z M 73.976562 89.421875 L 72.894531 89.035156 C 72.972656 88.804688 73.128906 88.496094 73.203125 88.261719 L 74.207031 88.804688 C 74.132812 88.957031 74.054688 89.1875 73.976562 89.421875 Z M 84.167969 89.265625 C 84.09375 89.035156 84.015625 88.804688 83.859375 88.648438 L 84.863281 88.109375 C 85.019531 88.339844 85.097656 88.648438 85.25 88.878906 Z M 74.980469 87.644531 L 74.132812 86.871094 C 74.285156 86.640625 74.515625 86.488281 74.75 86.253906 L 75.519531 87.105469 C 75.289062 87.257812 75.136719 87.414062 74.980469 87.644531 Z M 83.011719 87.492188 C 82.855469 87.335938 82.703125 87.179688 82.472656 87.027344 L 83.242188 86.101562 C 83.476562 86.253906 83.628906 86.488281 83.859375 86.71875 Z M 76.679688 86.332031 L 76.140625 85.328125 C 76.371094 85.171875 76.679688 85.097656 76.910156 85.019531 L 77.296875 86.101562 C 77.066406 86.175781 76.832031 86.253906 76.679688 86.332031 Z M 81.390625 86.253906 C 81.160156 86.175781 80.925781 86.101562 80.773438 86.023438 L 81.160156 84.941406 C 81.390625 85.019531 81.699219 85.097656 81.929688 85.25 Z M 78.6875 85.792969 L 78.609375 84.632812 C 78.917969 84.632812 79.152344 84.632812 79.460938 84.632812 L 79.382812 85.792969 C 79.152344 85.792969 78.917969 85.792969 78.6875 85.792969 Z M 78.6875 85.792969 "/>
<path style=" stroke:none;fill-rule:nonzero;fill:rgb(100%,100%,100%);fill-opacity:1;" d="M 78.917969 89.882812 C 78.917969 90.480469 78.433594 90.964844 77.835938 90.964844 C 77.242188 90.964844 76.757812 90.480469 76.757812 89.882812 C 76.757812 89.285156 77.242188 88.804688 77.835938 88.804688 C 78.433594 88.804688 78.917969 89.285156 78.917969 89.882812 Z M 78.917969 89.882812 "/>
<path style=" stroke:none;fill-rule:nonzero;fill:rgb(100%,100%,100%);fill-opacity:1;" d="M 36.523438 99.382812 L 3.707031 99.382812 C 1.929688 99.382812 0.539062 97.992188 0.539062 96.214844 L 0.539062 48.109375 C 0.539062 46.332031 1.929688 44.941406 3.707031 44.941406 L 36.449219 44.941406 C 38.222656 44.941406 39.613281 46.332031 39.613281 48.109375 L 39.613281 96.214844 C 39.691406 97.914062 38.222656 99.382812 36.523438 99.382812 Z M 36.523438 99.382812 "/>
<path style=" stroke:none;fill-rule:nonzero;fill:rgb(80.784314%,83.529412%,87.843137%);fill-opacity:1;" d="M 2.085938 52.972656 L 38.070312 52.972656 L 38.070312 88.570312 L 2.085938 88.570312 Z M 2.085938 52.972656 "/>
<path style=" stroke:none;fill-rule:nonzero;fill:rgb(100%,100%,100%);fill-opacity:1;" d="M 0.617188 90.039062 L 0.617188 96.214844 C 0.617188 97.992188 2.007812 99.382812 3.785156 99.382812 L 36.523438 99.382812 C 38.300781 99.382812 39.691406 97.992188 39.691406 96.214844 L 39.691406 90.039062 Z M 0.617188 90.039062 "/>
<path style=" stroke:none;fill-rule:nonzero;fill:rgb(100%,100%,100%);fill-opacity:1;" d="M 39.691406 51.582031 L 39.691406 48.03125 C 39.691406 46.253906 38.300781 44.863281 36.523438 44.863281 L 3.707031 44.863281 C 1.929688 44.863281 0.539062 46.253906 0.539062 48.03125 L 0.539062 51.582031 Z M 39.691406 51.582031 "/>
<path style=" stroke:none;fill-rule:nonzero;fill:rgb(100%,100%,100%);fill-opacity:1;" d="M 22.472656 94.671875 C 22.472656 95.953125 21.433594 96.988281 20.15625 96.988281 C 18.875 96.988281 17.835938 95.953125 17.835938 94.671875 C 17.835938 93.390625 18.875 92.355469 20.15625 92.355469 C 21.433594 92.355469 22.472656 93.390625 22.472656 94.671875 Z M 22.472656 94.671875 "/>
<path style=" stroke:none;fill-rule:nonzero;fill:rgb(13.72549%,12.156863%,12.54902%);fill-opacity:1;" d="M 20.15625 97.605469 C 18.53125 97.605469 17.21875 96.292969 17.21875 94.671875 C 17.21875 93.050781 18.53125 91.738281 20.15625 91.738281 C 21.777344 91.738281 23.089844 93.050781 23.089844 94.671875 C 23.089844 96.292969 21.699219 97.605469 20.15625 97.605469 Z M 20.15625 92.894531 C 19.152344 92.894531 18.378906 93.667969 18.378906 94.671875 C 18.378906 95.675781 19.152344 96.449219 20.15625 96.449219 C 21.160156 96.449219 21.929688 95.675781 21.929688 94.671875 C 21.851562 93.746094 21.082031 92.894531 20.15625 92.894531 Z M 20.15625 92.894531 "/>
<path style=" stroke:none;fill-rule:nonzero;fill:rgb(13.72549%,12.156863%,12.54902%);fill-opacity:1;" d="M 15.210938 48.878906 L 12.585938 48.878906 C 12.277344 48.878906 11.96875 48.648438 11.96875 48.261719 C 11.96875 47.953125 12.199219 47.644531 12.585938 47.644531 L 15.210938 47.644531 C 15.519531 47.644531 15.832031 47.875 15.832031 48.261719 C 15.753906 48.570312 15.519531 48.878906 15.210938 48.878906 Z M 15.210938 48.878906 "/>
<path style=" stroke:none;fill-rule:nonzero;fill:rgb(13.72549%,12.156863%,12.54902%);fill-opacity:1;" d="M 27.644531 48.878906 L 17.144531 48.878906 C 16.832031 48.878906 16.523438 48.648438 16.523438 48.261719 C 16.523438 47.953125 16.757812 47.644531 17.144531 47.644531 L 27.644531 47.644531 C 27.953125 47.644531 28.261719 47.875 28.261719 48.261719 C 28.183594 48.570312 27.953125 48.878906 27.644531 48.878906 Z M 27.644531 48.878906 "/>
<path style=" stroke:none;fill-rule:nonzero;fill:rgb(100%,100%,100%);fill-opacity:1;" d="M 27.875 58.6875 L 21.621094 58.6875 C 21.3125 58.6875 21.003906 58.457031 21.003906 58.070312 C 21.003906 57.761719 21.234375 57.453125 21.621094 57.453125 L 27.875 57.453125 C 28.183594 57.453125 28.496094 57.683594 28.496094 58.070312 C 28.496094 58.378906 28.183594 58.6875 27.875 58.6875 Z M 27.875 58.6875 "/>
<path style=" stroke:none;fill-rule:nonzero;fill:rgb(100%,100%,100%);fill-opacity:1;" d="M 30.347656 60.925781 L 27.257812 60.925781 C 26.949219 60.925781 26.640625 60.695312 26.640625 60.308594 C 26.640625 60 26.871094 59.691406 27.257812 59.691406 L 30.347656 59.691406 C 30.65625 59.691406 30.964844 59.921875 30.964844 60.308594 C 30.886719 60.695312 30.65625 60.925781 30.347656 60.925781 Z M 30.347656 60.925781 "/>
<path style=" stroke:none;fill-rule:nonzero;fill:rgb(100%,100%,100%);fill-opacity:1;" d="M 33.589844 58.6875 L 30.65625 58.6875 C 30.347656 58.6875 30.039062 58.457031 30.039062 58.070312 C 30.039062 57.761719 30.269531 57.453125 30.65625 57.453125 L 33.589844 57.453125 C 33.898438 57.453125 34.207031 57.683594 34.207031 58.070312 C 34.207031 58.378906 33.976562 58.6875 33.589844 58.6875 Z M 33.589844 58.6875 "/>
<path style=" stroke:none;fill-rule:nonzero;fill:rgb(100%,100%,100%);fill-opacity:1;" d="M 25.097656 60.925781 L 24.480469 60.925781 C 24.167969 60.925781 23.859375 60.695312 23.859375 60.308594 C 23.859375 60 24.09375 59.691406 24.480469 59.691406 L 25.097656 59.691406 C 25.40625 59.691406 25.714844 59.921875 25.714844 60.308594 C 25.636719 60.695312 25.40625 60.925781 25.097656 60.925781 Z M 25.097656 60.925781 "/>
<path style=" stroke:none;fill-rule:nonzero;fill:rgb(100%,100%,100%);fill-opacity:1;" d="M 13.4375 82.085938 L 7.179688 82.085938 C 6.871094 82.085938 6.5625 81.851562 6.5625 81.46875 C 6.5625 81.082031 6.796875 80.847656 7.179688 80.847656 L 13.4375 80.847656 C 13.746094 80.847656 14.054688 81.082031 14.054688 81.46875 C 14.054688 81.851562 13.746094 82.085938 13.4375 82.085938 Z M 13.4375 82.085938 "/>
<path style=" stroke:none;fill-rule:nonzero;fill:rgb(100%,100%,100%);fill-opacity:1;" d="M 15.90625 84.324219 L 12.820312 84.324219 C 12.507812 84.324219 12.277344 84.09375 12.277344 83.707031 C 12.277344 83.398438 12.507812 83.089844 12.820312 83.089844 L 15.90625 83.089844 C 16.214844 83.089844 16.523438 83.320312 16.523438 83.707031 C 16.449219 84.09375 16.214844 84.324219 15.90625 84.324219 Z M 15.90625 84.324219 "/>
<path style=" stroke:none;fill-rule:nonzero;fill:rgb(100%,100%,100%);fill-opacity:1;" d="M 19.152344 82.085938 L 16.214844 82.085938 C 15.90625 82.085938 15.597656 81.851562 15.597656 81.46875 C 15.597656 81.082031 15.832031 80.847656 16.214844 80.847656 L 19.152344 80.847656 C 19.460938 80.847656 19.769531 81.082031 19.769531 81.46875 C 19.769531 81.851562 19.460938 82.085938 19.152344 82.085938 Z M 19.152344 82.085938 "/>
<path style=" stroke:none;fill-rule:nonzero;fill:rgb(100%,100%,100%);fill-opacity:1;" d="M 10.578125 84.324219 L 10.039062 84.324219 C 9.730469 84.324219 9.421875 84.09375 9.421875 83.707031 C 9.421875 83.398438 9.652344 83.089844 10.039062 83.089844 L 10.65625 83.089844 C 10.964844 83.089844 11.273438 83.320312 11.273438 83.707031 C 11.195312 84.09375 10.886719 84.324219 10.578125 84.324219 Z M 10.578125 84.324219 "/>
<path style=" stroke:none;fill-rule:nonzero;fill:rgb(100%,43.921569%,34.509804%);fill-opacity:1;" d="M 77.375 4.246094 C 77.375 5.144531 76.648438 5.867188 75.753906 5.867188 C 74.855469 5.867188 74.132812 5.144531 74.132812 4.246094 C 74.132812 3.351562 74.855469 2.625 75.753906 2.625 C 76.648438 2.625 77.375 3.351562 77.375 4.246094 Z M 77.375 4.246094 "/>
<path style=" stroke:none;fill-rule:nonzero;fill:rgb(51.764706%,85.882353%,100%);fill-opacity:1;" d="M 15.984375 5.714844 C 15.984375 6.609375 15.257812 7.335938 14.363281 7.335938 C 13.46875 7.335938 12.742188 6.609375 12.742188 5.714844 C 12.742188 4.820312 13.46875 4.09375 14.363281 4.09375 C 15.257812 4.09375 15.984375 4.820312 15.984375 5.714844 Z M 15.984375 5.714844 "/>
<path style=" stroke:none;fill-rule:nonzero;fill:rgb(90.196078%,91.372549%,93.333333%);fill-opacity:1;" d="M 8.804688 36.601562 C 8.804688 37.496094 8.078125 38.222656 7.179688 38.222656 C 6.285156 38.222656 5.558594 37.496094 5.558594 36.601562 C 5.558594 35.707031 6.285156 34.980469 7.179688 34.980469 C 8.078125 34.980469 8.804688 35.707031 8.804688 36.601562 Z M 8.804688 36.601562 "/>
<path style=" stroke:none;fill-rule:nonzero;fill:rgb(100%,43.921569%,34.509804%);fill-opacity:1;" d="M 86.410156 73.128906 C 86.410156 74.023438 85.683594 74.75 84.789062 74.75 C 83.890625 74.75 83.167969 74.023438 83.167969 73.128906 C 83.167969 72.230469 83.890625 71.503906 84.789062 71.503906 C 85.683594 71.503906 86.410156 72.230469 86.410156 73.128906 Z M 86.410156 73.128906 "/>
<path style=" stroke:none;fill-rule:nonzero;fill:rgb(100%,81.568627%,35.686275%);fill-opacity:1;" d="M 51.503906 96.292969 C 51.503906 97.1875 50.78125 97.914062 49.882812 97.914062 C 48.988281 97.914062 48.261719 97.1875 48.261719 96.292969 C 48.261719 95.398438 48.988281 94.671875 49.882812 94.671875 C 50.78125 94.671875 51.503906 95.398438 51.503906 96.292969 Z M 51.503906 96.292969 "/>
<path style=" stroke:none;fill-rule:nonzero;fill:rgb(100%,100%,100%);fill-opacity:1;" d="M 87.492188 52.199219 C 87.492188 58.9375 82.027344 64.402344 75.289062 64.402344 C 68.550781 64.402344 63.089844 58.9375 63.089844 52.199219 C 63.089844 45.460938 68.550781 40 75.289062 40 C 82.027344 40 87.492188 45.460938 87.492188 52.199219 Z M 87.492188 52.199219 "/>
<path style=" stroke:none;fill-rule:nonzero;fill:rgb(51.764706%,85.882353%,100%);fill-opacity:1;" d="M 84.710938 52.199219 C 84.710938 57.402344 80.492188 61.621094 75.289062 61.621094 C 70.085938 61.621094 65.867188 57.402344 65.867188 52.199219 C 65.867188 46.996094 70.085938 42.78125 75.289062 42.78125 C 80.492188 42.78125 84.710938 46.996094 84.710938 52.199219 Z M 84.710938 52.199219 "/>
<path style=" stroke:none;fill-rule:nonzero;fill:rgb(100%,100%,100%);fill-opacity:1;" d="M 83.9375 60.847656 L 85.558594 62.472656 "/>
<path style=" stroke:none;fill-rule:nonzero;fill:rgb(100%,100%,100%);fill-opacity:1;" d="M 85.097656 62.933594 L 86.023438 62.007812 C 86.71875 61.3125 87.800781 61.3125 88.496094 62.007812 L 98.917969 72.433594 C 99.613281 73.128906 99.613281 74.207031 98.917969 74.902344 L 97.992188 75.832031 C 97.296875 76.523438 96.214844 76.523438 95.519531 75.832031 L 85.097656 65.40625 C 84.480469 64.710938 84.480469 63.628906 85.097656 62.933594 Z M 85.097656 62.933594 "/>
<path style=" stroke:none;fill-rule:nonzero;fill:rgb(13.72549%,12.156863%,12.54902%);fill-opacity:1;" d="M 99.304688 72.046875 L 94.054688 66.796875 L 94.671875 66.796875 C 97.527344 66.796875 99.84375 64.480469 99.84375 61.621094 L 99.84375 13.203125 C 99.84375 10.347656 97.527344 8.03125 94.671875 8.03125 L 21.003906 8.03125 C 18.148438 8.03125 15.832031 10.347656 15.832031 13.203125 L 15.832031 44.402344 L 3.707031 44.402344 C 1.621094 44.402344 0 46.101562 0 48.109375 L 0 96.214844 C 0 98.300781 1.699219 99.921875 3.707031 99.921875 L 36.449219 99.921875 C 38.53125 99.921875 40.15625 98.222656 40.15625 96.214844 L 40.15625 81.3125 L 80.773438 81.3125 C 81.082031 81.3125 81.390625 81.082031 81.390625 80.695312 L 81.390625 78.609375 C 81.390625 76.214844 79.460938 74.285156 77.066406 74.285156 L 72.820312 74.285156 L 72.820312 66.71875 L 85.714844 66.71875 L 95.136719 76.140625 C 96.0625 77.066406 97.527344 77.066406 98.378906 76.140625 L 99.304688 75.210938 C 100.230469 74.441406 100.230469 72.972656 99.304688 72.046875 Z M 98.6875 61.542969 C 98.6875 63.785156 96.832031 65.558594 94.671875 65.558594 L 92.894531 65.558594 L 88.878906 61.542969 C 87.953125 60.617188 86.488281 60.617188 85.636719 61.542969 L 85.558594 61.621094 L 84.710938 60.773438 C 86.023438 59.382812 86.949219 57.683594 87.492188 55.984375 L 98.6875 55.984375 Z M 83.550781 60.464844 C 78.996094 65.019531 71.582031 65.019531 67.105469 60.464844 C 62.546875 55.90625 62.546875 48.496094 67.105469 44.015625 C 71.660156 39.460938 79.074219 39.460938 83.550781 44.015625 C 88.109375 48.496094 88.109375 55.90625 83.550781 60.464844 Z M 39.074219 96.214844 C 39.074219 97.605469 37.914062 98.765625 36.523438 98.765625 L 3.707031 98.765625 C 2.316406 98.765625 1.160156 97.605469 1.160156 96.214844 L 1.160156 90.65625 L 39.074219 90.65625 Z M 39.074219 89.5 L 1.160156 89.5 L 1.160156 52.199219 L 39.074219 52.199219 Z M 39.074219 51.042969 L 1.160156 51.042969 L 1.160156 48.109375 C 1.160156 46.71875 2.316406 45.558594 3.707031 45.558594 L 36.449219 45.558594 C 37.835938 45.558594 38.996094 46.71875 38.996094 48.109375 L 38.996094 51.042969 Z M 36.523438 44.324219 L 16.910156 44.324219 L 16.910156 13.203125 C 16.910156 10.964844 18.765625 9.1875 20.925781 9.1875 L 94.59375 9.1875 C 96.832031 9.1875 98.609375 11.042969 98.609375 13.203125 L 98.609375 54.902344 L 87.722656 54.902344 C 88.570312 50.8125 87.492188 46.332031 84.246094 43.167969 C 79.226562 38.148438 71.121094 38.148438 66.101562 43.167969 C 62.933594 46.332031 61.777344 50.8125 62.625 54.902344 L 40.230469 54.902344 L 40.230469 48.109375 C 40.230469 46.023438 38.53125 44.324219 36.523438 44.324219 Z M 40.230469 66.796875 L 42.703125 66.796875 L 42.703125 74.363281 L 40.230469 74.363281 Z M 77.144531 75.519531 C 78.839844 75.519531 80.308594 76.910156 80.308594 78.6875 L 80.308594 80.230469 L 40.230469 80.230469 L 40.230469 75.597656 L 77.144531 75.597656 Z M 43.859375 74.363281 L 43.859375 66.796875 L 71.738281 66.796875 L 71.738281 74.363281 Z M 40.230469 65.636719 L 40.230469 56.0625 L 63.089844 56.0625 C 63.707031 57.992188 64.710938 59.769531 66.253906 61.3125 C 71.121094 66.175781 78.917969 66.253906 83.9375 61.699219 L 84.789062 62.546875 L 84.710938 62.625 C 83.859375 63.476562 83.859375 64.789062 84.554688 65.714844 L 40.230469 65.714844 Z M 98.53125 74.515625 L 97.605469 75.445312 C 97.144531 75.90625 96.449219 75.90625 95.984375 75.445312 L 85.558594 65.019531 C 85.097656 64.554688 85.097656 63.859375 85.558594 63.398438 L 86.488281 62.472656 C 86.949219 62.007812 87.644531 62.007812 88.109375 62.472656 L 98.53125 72.894531 C 98.917969 73.28125 98.917969 74.054688 98.53125 74.515625 Z M 98.53125 74.515625 "/>
</g>
</svg>
