<?xml version="1.0" encoding="utf-8"?>
<!-- Generator: Adobe Illustrator 18.0.0, SVG Export Plug-In . SVG Version: 6.00 Build 0)  -->
<!DOCTYPE svg PUBLIC "-//W3C//DTD SVG 1.1//EN" "http://www.w3.org/Graphics/SVG/1.1/DTD/svg11.dtd">
<svg version="1.1" id="Layer_1" xmlns="http://www.w3.org/2000/svg" xmlns:xlink="http://www.w3.org/1999/xlink" x="0px" y="0px"
	 viewBox="0 0 129.5 129.5" enable-background="new 0 0 129.5 129.5" xml:space="preserve">
<g>
	<g>
		<g>
			<path fill="#231F20" d="M120.9,2.8c-0.2,0-0.4-0.1-0.5-0.2c-0.3-0.3-0.3-0.8,0-1.1l1.3-1.3c0.3-0.3,0.8-0.3,1.1,0
				c0.3,0.3,0.3,0.8,0,1.1l-1.3,1.3C121.3,2.7,121.1,2.8,120.9,2.8z"/>
		</g>
		<g>
			<path fill="#231F20" d="M116.9,6.8c-0.2,0-0.4-0.1-0.5-0.2c-0.3-0.3-0.3-0.8,0-1.1l1.3-1.3c0.3-0.3,0.8-0.3,1.1,0
				c0.3,0.3,0.3,0.8,0,1.1l-1.3,1.3C117.3,6.7,117.1,6.8,116.9,6.8z"/>
		</g>
		<g>
			<path fill="#231F20" d="M122.2,6.8c-0.2,0-0.4-0.1-0.5-0.2l-1.3-1.3c-0.3-0.3-0.3-0.8,0-1.1c0.3-0.3,0.8-0.3,1.1,0l1.3,1.3
				c0.3,0.3,0.3,0.8,0,1.1C122.6,6.7,122.4,6.8,122.2,6.8z"/>
		</g>
		<g>
			<path fill="#231F20" d="M118.2,2.8c-0.2,0-0.4-0.1-0.5-0.2l-1.3-1.3c-0.3-0.3-0.3-0.8,0-1.1c0.3-0.3,0.8-0.3,1.1,0l1.3,1.3
				c0.3,0.3,0.3,0.8,0,1.1C118.6,2.7,118.4,2.8,118.2,2.8z"/>
		</g>
		<g>
			<path fill="#231F20" d="M11.1,13.4c-0.2,0-0.4-0.1-0.5-0.2c-0.3-0.3-0.3-0.8,0-1.1l1.3-1.3c0.3-0.3,0.8-0.3,1.1,0
				c0.3,0.3,0.3,0.8,0,1.1l-1.3,1.3C11.5,13.4,11.3,13.4,11.1,13.4z"/>
		</g>
		<g>
			<path fill="#231F20" d="M7.1,17.5c-0.2,0-0.4-0.1-0.5-0.2c-0.3-0.3-0.3-0.8,0-1.1l1.3-1.3c0.3-0.3,0.8-0.3,1.1,0
				c0.3,0.3,0.3,0.8,0,1.1l-1.3,1.3C7.5,17.4,7.3,17.5,7.1,17.5z"/>
		</g>
		<g>
			<path fill="#231F20" d="M12.4,17.5c-0.2,0-0.4-0.1-0.5-0.2L10.6,16c-0.3-0.3-0.3-0.8,0-1.1c0.3-0.3,0.8-0.3,1.1,0l1.3,1.3
				c0.3,0.3,0.3,0.8,0,1.1C12.8,17.4,12.6,17.5,12.4,17.5z"/>
		</g>
		<g>
			<path fill="#231F20" d="M8.4,13.4c-0.2,0-0.4-0.1-0.5-0.2l-1.3-1.3c-0.3-0.3-0.3-0.8,0-1.1s0.8-0.3,1.1,0l1.3,1.3
				c0.3,0.3,0.3,0.8,0,1.1C8.8,13.4,8.6,13.4,8.4,13.4z"/>
		</g>
		<g>
			<path fill="#231F20" d="M72.9,129.5H48.5c-0.4,0-0.8-0.3-0.8-0.8s0.3-0.8,0.8-0.8h24.4c0.4,0,0.8,0.3,0.8,0.8
				S73.3,129.5,72.9,129.5z"/>
		</g>
		<g>
			<path fill="#231F20" d="M81,129.5h-4.3c-0.4,0-0.8-0.3-0.8-0.8s0.3-0.8,0.8-0.8H81c0.4,0,0.8,0.3,0.8,0.8S81.4,129.5,81,129.5z"
				/>
		</g>
		<g>
			<path fill="#231F20" d="M105.7,124.5H81.3c-0.4,0-0.8-0.3-0.8-0.8c0-0.4,0.3-0.8,0.8-0.8h24.4c0.4,0,0.8,0.3,0.8,0.8
				C106.4,124.2,106.1,124.5,105.7,124.5z"/>
		</g>
		<g>
			<path fill="#231F20" d="M113.8,124.5h-4.3c-0.4,0-0.8-0.3-0.8-0.8c0-0.4,0.3-0.8,0.8-0.8h4.3c0.4,0,0.8,0.3,0.8,0.8
				C114.6,124.2,114.2,124.5,113.8,124.5z"/>
		</g>
		<g>
			<path fill="#231F20" d="M18.4,126h-5.3c-0.4,0-0.8-0.3-0.8-0.8c0-0.4,0.3-0.8,0.8-0.8h5.3c0.4,0,0.8,0.3,0.8,0.8
				C19.2,125.7,18.8,126,18.4,126z"/>
		</g>
		<g>
			<path fill="#231F20" d="M61.4,126H23.9c-0.4,0-0.8-0.3-0.8-0.8c0-0.4,0.3-0.8,0.8-0.8h37.5c0.4,0,0.8,0.3,0.8,0.8
				C62.1,125.7,61.8,126,61.4,126z"/>
		</g>
		<g>
			<g>
				<path fill="#FF7058" d="M101.8,9H90.1v12.2h11.6c1.1,0,2-0.9,2-2V11C103.8,9.9,102.9,9,101.8,9z"/>
			</g>
			<g>
				<path fill="#FFFFFF" d="M95.6,17.1c-0.8,0-1.6-0.3-2.1-0.9c-1.2-1.2-1.2-3.1,0-4.3c1.1-1.1,3.1-1.1,4.3,0c1.2,1.2,1.2,3.1,0,4.3
					C97.1,16.8,96.4,17.1,95.6,17.1z M95.6,12.5c-0.4,0-0.8,0.2-1.1,0.4c-0.6,0.6-0.6,1.5,0,2.1c0.6,0.6,1.6,0.6,2.1,0
					c0.6-0.6,0.6-1.5,0-2.1C96.3,12.7,96,12.5,95.6,12.5z"/>
			</g>
			<g>
				<path fill="#FFFFFF" d="M99.8,19.1c-0.2,0-0.4-0.1-0.5-0.2l-2.7-2.7c-0.3-0.3-0.3-0.8,0-1.1c0.3-0.3,0.8-0.3,1.1,0l2.7,2.7
					c0.3,0.3,0.3,0.8,0,1.1C100.2,19,100,19.1,99.8,19.1z"/>
			</g>
			<g>
				<path fill="#E6E9EE" d="M38.9,14.4c0.1,0.1,0.2,0.2,0.4,0.2c0.1,0.1,0.3,0.1,0.6,0.2c0.3,0.1,0.6,0.2,0.8,0.2
					c0.2,0.1,0.4,0.2,0.5,0.4c0.1,0.2,0.2,0.4,0.2,0.7c0,0.2-0.1,0.4-0.2,0.6c-0.1,0.2-0.3,0.3-0.6,0.4c-0.2,0.1-0.5,0.2-0.8,0.2
					c-0.5,0-1-0.1-1.5-0.3c0,0-0.1-0.1-0.1-0.1c0,0,0-0.1,0-0.2c0-0.1,0-0.1,0.1-0.2c0-0.1,0.1-0.1,0.2-0.1c0,0,0.1,0,0.1,0
					c0.4,0.2,0.8,0.3,1.2,0.3c0.7,0,1.1-0.2,1.1-0.7c0-0.1,0-0.2-0.1-0.3c-0.1-0.1-0.2-0.1-0.3-0.2c-0.1,0-0.3-0.1-0.6-0.2
					c-0.3-0.1-0.6-0.2-0.8-0.3c-0.2-0.1-0.4-0.2-0.5-0.4c-0.1-0.2-0.2-0.4-0.2-0.6c0-0.2,0.1-0.5,0.2-0.6c0.1-0.2,0.3-0.3,0.6-0.5
					c0.2-0.1,0.5-0.2,0.9-0.2c0.5,0,0.9,0.1,1.2,0.2c0.1,0,0.2,0.1,0.2,0.2c0,0.1,0,0.1-0.1,0.2c0,0.1-0.1,0.1-0.2,0.1
					c0,0-0.1,0-0.1,0c-0.3-0.1-0.7-0.2-1-0.2c-0.3,0-0.6,0.1-0.8,0.2c-0.2,0.1-0.3,0.3-0.3,0.5C38.8,14.2,38.8,14.3,38.9,14.4z"/>
				<path fill="#E6E9EE" d="M45.2,16.8c0.1,0.1,0.1,0.1,0.1,0.2c0,0.1,0,0.1-0.1,0.2c-0.1,0-0.1,0.1-0.2,0.1h-2.5
					c-0.1,0-0.1,0-0.2-0.1c-0.1-0.1-0.1-0.1-0.1-0.2v-3.8c0-0.1,0-0.1,0.1-0.2c0.1-0.1,0.1-0.1,0.2-0.1H45c0.1,0,0.1,0,0.2,0.1
					c0.1,0.1,0.1,0.1,0.1,0.2c0,0.1,0,0.1-0.1,0.2c-0.1,0-0.1,0.1-0.2,0.1h-2.2v1.4h2c0.1,0,0.1,0,0.2,0.1c0.1,0.1,0.1,0.1,0.1,0.2
					c0,0.1,0,0.1-0.1,0.2c-0.1,0-0.1,0.1-0.2,0.1h-2v1.4H45C45.1,16.7,45.2,16.7,45.2,16.8z"/>
				<path fill="#E6E9EE" d="M49.8,17c0,0.1,0,0.1-0.1,0.2c-0.1,0.1-0.1,0.1-0.2,0.1c-0.1,0-0.1,0-0.2,0c0,0-0.1-0.1-0.1-0.1l-0.4-1
					h-2.1l-0.4,1c0,0.1-0.1,0.1-0.1,0.1c0,0-0.1,0-0.2,0c-0.1,0-0.2,0-0.2-0.1c-0.1-0.1-0.1-0.1-0.1-0.2c0,0,0-0.1,0-0.1l1.6-3.7
					c0-0.1,0.1-0.1,0.1-0.2c0.1,0,0.1-0.1,0.2-0.1h0.1c0.1,0,0.2,0,0.2,0.1c0.1,0,0.1,0.1,0.1,0.2l1.6,3.7
					C49.8,16.9,49.8,16.9,49.8,17z M47.8,13.6l-0.8,2h1.7L47.8,13.6z"/>
				<path fill="#E6E9EE" d="M53.9,17.2c-0.1,0.1-0.1,0.1-0.2,0.1c-0.1,0-0.2,0-0.2-0.1c-0.1-0.1-0.1-0.1-0.1-0.2v-0.2
					c0-0.2,0-0.4-0.1-0.6c0-0.2-0.1-0.3-0.3-0.5c-0.1-0.1-0.4-0.2-0.6-0.2h-1.3V17c0,0.1,0,0.1-0.1,0.2s-0.1,0.1-0.2,0.1
					c-0.1,0-0.1,0-0.2-0.1c-0.1-0.1-0.1-0.1-0.1-0.2v-3.8c0-0.1,0-0.1,0.1-0.2c0.1-0.1,0.1-0.1,0.2-0.1h1.4c0.6,0,1,0.1,1.3,0.3
					s0.4,0.5,0.4,0.9c0,0.2-0.1,0.5-0.2,0.7c-0.1,0.2-0.3,0.4-0.6,0.4c0.3,0.1,0.5,0.3,0.6,0.6c0.1,0.3,0.2,0.6,0.2,0.9V17
					C54,17,53.9,17.1,53.9,17.2z M53.1,14.8c0.2-0.1,0.3-0.3,0.3-0.6c0-0.2-0.1-0.4-0.3-0.6c-0.2-0.1-0.5-0.2-0.9-0.2h-1.1V15h1.1
					C52.6,15,52.9,14.9,53.1,14.8z"/>
				<path fill="#E6E9EE" d="M58.4,16.5c0,0,0.1,0.1,0.1,0.2c0,0.1,0,0.2-0.1,0.2c-0.2,0.1-0.4,0.2-0.7,0.3c-0.2,0.1-0.5,0.1-0.8,0.1
					c-0.4,0-0.8-0.1-1.1-0.3c-0.3-0.2-0.6-0.4-0.8-0.8c-0.2-0.3-0.3-0.7-0.3-1.2c0-0.5,0.1-0.8,0.3-1.2c0.2-0.3,0.4-0.6,0.8-0.8
					c0.3-0.2,0.7-0.3,1.1-0.3c0.3,0,0.5,0,0.8,0.1c0.2,0.1,0.4,0.2,0.7,0.3c0.1,0,0.1,0.1,0.1,0.2c0,0.1,0,0.1-0.1,0.2
					c0,0-0.1,0.1-0.2,0.1c0,0-0.1,0-0.1,0c-0.2-0.1-0.4-0.2-0.5-0.2c-0.2,0-0.4-0.1-0.6-0.1c-0.4,0-0.7,0.1-0.9,0.2
					c-0.3,0.1-0.4,0.3-0.6,0.6c-0.1,0.3-0.2,0.5-0.2,0.9c0,0.3,0.1,0.6,0.2,0.9c0.1,0.3,0.3,0.5,0.6,0.6c0.3,0.1,0.6,0.2,0.9,0.2
					c0.2,0,0.4,0,0.6-0.1c0.2,0,0.4-0.1,0.5-0.2c0,0,0.1,0,0.1,0C58.3,16.4,58.4,16.4,58.4,16.5z"/>
				<path fill="#E6E9EE" d="M62.8,12.9c0.1,0.1,0.1,0.1,0.1,0.2V17c0,0.1,0,0.1-0.1,0.2c-0.1,0.1-0.1,0.1-0.2,0.1
					c-0.1,0-0.1,0-0.2-0.1c-0.1-0.1-0.1-0.1-0.1-0.2v-1.7h-2.4V17c0,0.1,0,0.1-0.1,0.2c-0.1,0.1-0.1,0.1-0.2,0.1
					c-0.1,0-0.1,0-0.2-0.1c-0.1-0.1-0.1-0.1-0.1-0.2v-3.8c0-0.1,0-0.1,0.1-0.2c0.1-0.1,0.1-0.1,0.2-0.1c0.1,0,0.1,0,0.2,0.1
					c0.1,0.1,0.1,0.1,0.1,0.2v1.7h2.4v-1.7c0-0.1,0-0.1,0.1-0.2c0.1-0.1,0.1-0.1,0.2-0.1C62.6,12.8,62.7,12.9,62.8,12.9z"/>
			</g>
		</g>
		<g>
			<path fill="#231F20" d="M101.8,21.9H36.7c-1.5,0-2.8-1.2-2.8-2.8V11c0-1.5,1.2-2.8,2.8-2.8h65.1c1.5,0,2.8,1.2,2.8,2.8v8.1
				C104.5,20.6,103.3,21.9,101.8,21.9z M36.7,9.7c-0.7,0-1.3,0.6-1.3,1.3v8.1c0,0.7,0.6,1.3,1.3,1.3h65.1c0.7,0,1.3-0.6,1.3-1.3V11
				c0-0.7-0.6-1.3-1.3-1.3H36.7z"/>
		</g>
		<polygon fill="#CED5E0" points="76.8,112.7 74.4,104.6 56.5,104.6 55,109.6 		"/>
		<rect x="17.4" y="36.9" fill="#84DBFF" width="96.1" height="51.6"/>
		<circle fill="#CED5E0" cx="65.5" cy="96.6" r="3.9"/>
		<rect x="1.6" y="69.4" fill="#FFFFFF" width="40.8" height="41.2"/>
		<path fill="#E6E9EE" d="M1.6,110.6v6.3c0,1.9,1.6,3.5,3.5,3.5h33.8c1.9,0,3.5-1.6,3.5-3.5v-6.3H1.6z"/>
		<path fill="#E6E9EE" d="M42.4,69.4v-2.6c0-1.9-1.6-3.5-3.5-3.5H5.1c-1.9,0-3.5,1.6-3.5,3.5v2.6H42.4z"/>
		<path fill="#FFFFFF" d="M124.4,120.4h-19.7c-1.9,0-3.5-1.6-3.5-3.5V81.7c0-1.9,1.6-3.5,3.5-3.5h19.7c1.9,0,3.5,1.6,3.5,3.5v35.2
			C127.9,118.8,126.3,120.4,124.4,120.4z"/>
		<path fill="#E6E9EE" d="M101.2,111.9v4.6c0,2.2,1.7,3.9,3.9,3.9H124c2.2,0,3.9-1.7,3.9-3.9v-4.6H101.2z"/>
		<path fill="#E6E9EE" d="M127.9,85.6v-3.5c0-2.2-1.7-3.9-3.9-3.9h-18.9c-2.2,0-3.9,1.7-3.9,3.9v3.5H127.9z"/>
		<path fill="#231F20" d="M128.8,119.6h-1.2c0.6-0.7,1-1.7,1-2.8V81.7c0-2.3-1.9-4.3-4.3-4.3h-5.1V35.7c0-2.5-2-4.6-4.6-4.6H16.2
			c-2.5,0-4.6,2-4.6,4.6v26.8H5.1c-2.3,0-4.3,1.9-4.3,4.3v50.1c0,1.1,0.4,2,1,2.8H0.8c-0.4,0-0.8,0.3-0.8,0.8c0,0.4,0.3,0.8,0.8,0.8
			h128c0.4,0,0.8-0.3,0.8-0.8C129.5,120,129.2,119.6,128.8,119.6z M41.7,116.9c0,1.5-1.2,2.8-2.8,2.8H5.1c-1.5,0-2.7-1.2-2.7-2.8
			v-5.6h39.3V116.9z M41.7,109.8H2.4V70.1h39.3V109.8z M41.7,68.6H2.4v-1.9c0-1.5,1.2-2.8,2.7-2.8h33.8c1.5,0,2.8,1.2,2.8,2.8V68.6z
			 M80,116.1c2.2,0,4,1.5,4.4,3.6H46.5c0.5-2,2.3-3.6,4.4-3.6H80z M54.3,114.6l2.8-9.2h16.8l2.8,9.2H54.3z M43.2,103.9V89.2h57.3
			v14.7H43.2z M55.5,105.4l-2.8,9.2h-1.8c-3,0-5.5,2.2-6,5.1h-2.9c0.6-0.7,1-1.7,1-2.8v-11.5H55.5z M85.9,119.6
			c-0.5-2.9-3-5.1-6-5.1h-1.8l-2.8-9.2h25v11.5c0,1.1,0.4,2,1,2.8H85.9z M100.4,81.7v6H43.2v-21c0-2.3-1.9-4.3-4.3-4.3H13.1V35.7
			c0-1.7,1.4-3.1,3.1-3.1h98.5c1.7,0,3.1,1.4,3.1,3.1v41.8h-13.1C102.3,77.5,100.4,79.4,100.4,81.7z M127.1,116.5
			c0,1.7-1.4,3.1-3.1,3.1h-18.9c-1.7,0-3.1-1.4-3.1-3.1v-3.8h25.2V116.5z M127.1,111.2h-25.2V86.4h25.2V111.2z M127.1,84.9h-25.2
			v-2.7c0-1.7,1.4-3.1,3.1-3.1H124c1.7,0,3.1,1.4,3.1,3.1V84.9z"/>
		<g>
			<line fill="#E6E9EE" x1="14.7" y1="66.3" x2="17.4" y2="66.3"/>
			<path fill="#231F20" d="M17.4,67.1h-2.7c-0.4,0-0.8-0.3-0.8-0.8c0-0.4,0.3-0.8,0.8-0.8h2.7c0.4,0,0.8,0.3,0.8,0.8
				C18.2,66.7,17.8,67.1,17.4,67.1z"/>
		</g>
		<g>
			<line fill="#E6E9EE" x1="20.6" y1="66.3" x2="29.3" y2="66.3"/>
			<path fill="#231F20" d="M29.3,67.1h-8.7c-0.4,0-0.8-0.3-0.8-0.8c0-0.4,0.3-0.8,0.8-0.8h8.7c0.4,0,0.8,0.3,0.8,0.8
				C30.1,66.7,29.7,67.1,29.3,67.1z"/>
		</g>
		<g>
			<line fill="#E6E9EE" x1="110.1" y1="81.9" x2="111.8" y2="81.9"/>
			<path fill="#231F20" d="M111.8,82.7h-1.6c-0.4,0-0.8-0.3-0.8-0.8c0-0.4,0.3-0.8,0.8-0.8h1.6c0.4,0,0.8,0.3,0.8,0.8
				C112.5,82.3,112.2,82.7,111.8,82.7z"/>
		</g>
		<g>
			<line fill="#E6E9EE" x1="113.6" y1="81.9" x2="118.9" y2="81.9"/>
			<path fill="#231F20" d="M118.9,82.7h-5.3c-0.4,0-0.8-0.3-0.8-0.8c0-0.4,0.3-0.8,0.8-0.8h5.3c0.4,0,0.8,0.3,0.8,0.8
				C119.7,82.3,119.3,82.7,118.9,82.7z"/>
		</g>
		<circle fill="#ACB3BA" cx="22" cy="115.5" r="1.8"/>
		<circle fill="#ACB3BA" cx="114.5" cy="116.2" r="1.8"/>
		<g>
			<path fill="#231F20" d="M127.5,55.4c-0.2,0-0.4-0.1-0.5-0.2c-0.3-0.3-0.3-0.8,0-1.1l1.3-1.3c0.3-0.3,0.8-0.3,1.1,0
				c0.3,0.3,0.3,0.8,0,1.1l-1.3,1.3C127.8,55.3,127.7,55.4,127.5,55.4z"/>
		</g>
		<g>
			<path fill="#231F20" d="M123.4,59.4c-0.2,0-0.4-0.1-0.5-0.2c-0.3-0.3-0.3-0.8,0-1.1l1.3-1.3c0.3-0.3,0.8-0.3,1.1,0
				c0.3,0.3,0.3,0.8,0,1.1l-1.3,1.3C123.8,59.3,123.6,59.4,123.4,59.4z"/>
		</g>
		<g>
			<path fill="#231F20" d="M128.8,59.4c-0.2,0-0.4-0.1-0.5-0.2l-1.3-1.3c-0.3-0.3-0.3-0.8,0-1.1c0.3-0.3,0.8-0.3,1.1,0l1.3,1.3
				c0.3,0.3,0.3,0.8,0,1.1C129.1,59.3,128.9,59.4,128.8,59.4z"/>
		</g>
		<g>
			<path fill="#231F20" d="M124.7,55.4c-0.2,0-0.4-0.1-0.5-0.2l-1.3-1.3c-0.3-0.3-0.3-0.8,0-1.1c0.3-0.3,0.8-0.3,1.1,0l1.3,1.3
				c0.3,0.3,0.3,0.8,0,1.1C125.1,55.3,124.9,55.4,124.7,55.4z"/>
		</g>
		<g>
			<path fill="#FFFFFF" d="M38.2,45h-8.1c-0.4,0-0.8-0.3-0.8-0.8c0-0.4,0.3-0.8,0.8-0.8h8.1c0.4,0,0.8,0.3,0.8,0.8
				C38.9,44.6,38.6,45,38.2,45z"/>
		</g>
		<g>
			<path fill="#FFFFFF" d="M41.3,47.9h-4c-0.4,0-0.8-0.3-0.8-0.8c0-0.4,0.3-0.8,0.8-0.8h4c0.4,0,0.8,0.3,0.8,0.8
				C42.1,47.6,41.7,47.9,41.3,47.9z"/>
		</g>
		<g>
			<path fill="#FFFFFF" d="M45.6,45h-3.8c-0.4,0-0.8-0.3-0.8-0.8c0-0.4,0.3-0.8,0.8-0.8h3.8c0.4,0,0.8,0.3,0.8,0.8
				C46.3,44.6,46,45,45.6,45z"/>
		</g>
		<g>
			<path fill="#FFFFFF" d="M34.5,47.9h-0.8c-0.4,0-0.8-0.3-0.8-0.8c0-0.4,0.3-0.8,0.8-0.8h0.8c0.4,0,0.8,0.3,0.8,0.8
				C35.2,47.6,34.9,47.9,34.5,47.9z"/>
		</g>
		<g>
			<path fill="#FFFFFF" d="M97.5,67.5h-8.1c-0.4,0-0.8-0.3-0.8-0.8S89,66,89.4,66h8.1c0.4,0,0.8,0.3,0.8,0.8S97.9,67.5,97.5,67.5z"
				/>
		</g>
		<g>
			<path fill="#FFFFFF" d="M100.7,70.5h-4c-0.4,0-0.8-0.3-0.8-0.8c0-0.4,0.3-0.8,0.8-0.8h4c0.4,0,0.8,0.3,0.8,0.8
				C101.4,70.1,101.1,70.5,100.7,70.5z"/>
		</g>
		<g>
			<path fill="#FFFFFF" d="M104.9,67.5h-3.8c-0.4,0-0.8-0.3-0.8-0.8s0.3-0.8,0.8-0.8h3.8c0.4,0,0.8,0.3,0.8,0.8
				S105.3,67.5,104.9,67.5z"/>
		</g>
		<g>
			<path fill="#FFFFFF" d="M93.8,70.5h-0.8c-0.4,0-0.8-0.3-0.8-0.8c0-0.4,0.3-0.8,0.8-0.8h0.8c0.4,0,0.8,0.3,0.8,0.8
				C94.6,70.1,94.2,70.5,93.8,70.5z"/>
		</g>
		<path fill="#FFFFFF" d="M61.5,48.6c0.5,0.3,1,0.8,1.2,1.3c0.3,0.5,0.4,1.1,0.4,1.7c0,0.6-0.1,1.2-0.4,1.7c-0.3,0.5-0.7,1-1.2,1.3
			c-0.5,0.3-1.2,0.5-2,0.5h-2.1c-0.1,0-0.2,0-0.3-0.1C57,55,57,54.9,57,54.8v-6.2c0-0.1,0-0.2,0.1-0.3c0.1-0.1,0.2-0.1,0.3-0.1h2.1
			C60.3,48.1,61,48.3,61.5,48.6z M60.9,54c0.4-0.2,0.8-0.5,1-1c0.2-0.4,0.3-0.9,0.3-1.4c0-0.5-0.1-1-0.3-1.4c-0.2-0.4-0.6-0.7-1-1
			C60.5,49.1,60,49,59.4,49h-1.5v5.4h1.5C60,54.4,60.5,54.3,60.9,54z"/>
		<path fill="#FFFFFF" d="M69.6,54.5c0.1,0.1,0.1,0.2,0.1,0.3c0,0.1,0,0.2-0.1,0.3c-0.1,0.1-0.2,0.1-0.3,0.1h-4.1
			c-0.1,0-0.2,0-0.3-0.1c-0.1-0.1-0.1-0.2-0.1-0.3v-6.2c0-0.1,0-0.2,0.1-0.3c0.1-0.1,0.2-0.1,0.3-0.1h4.1c0.1,0,0.2,0,0.3,0.1
			c0.1,0.1,0.1,0.2,0.1,0.3c0,0.1,0,0.2-0.1,0.3c-0.1,0.1-0.2,0.1-0.3,0.1h-3.6v2.3h3.3c0.1,0,0.2,0,0.3,0.1
			c0.1,0.1,0.1,0.2,0.1,0.3c0,0.1,0,0.2-0.1,0.3c-0.1,0.1-0.2,0.1-0.3,0.1h-3.3v2.3h3.6C69.4,54.4,69.5,54.4,69.6,54.5z"/>
		<path fill="#FFFFFF" d="M72,50.6c0.2,0.2,0.4,0.3,0.6,0.4c0.2,0.1,0.6,0.2,1,0.3c0.5,0.1,1,0.3,1.3,0.4c0.3,0.1,0.6,0.3,0.9,0.6
			c0.2,0.3,0.4,0.6,0.4,1.1c0,0.4-0.1,0.7-0.3,1c-0.2,0.3-0.5,0.5-0.9,0.7c-0.4,0.2-0.9,0.3-1.4,0.3c-0.9,0-1.7-0.2-2.4-0.5
			c-0.1,0-0.2-0.1-0.2-0.2c-0.1-0.1-0.1-0.2-0.1-0.3c0-0.1,0-0.2,0.1-0.3c0.1-0.1,0.2-0.1,0.3-0.1c0.1,0,0.1,0,0.2,0
			c0.6,0.3,1.3,0.4,2,0.4c1.2,0,1.8-0.4,1.8-1.2c0-0.2-0.1-0.4-0.2-0.5c-0.2-0.1-0.3-0.2-0.6-0.3c-0.2-0.1-0.5-0.2-1-0.3
			c-0.6-0.1-1-0.3-1.3-0.4c-0.3-0.1-0.6-0.3-0.9-0.6c-0.2-0.3-0.4-0.6-0.4-1.1c0-0.4,0.1-0.7,0.3-1.1c0.2-0.3,0.5-0.6,0.9-0.8
			c0.4-0.2,0.9-0.3,1.4-0.3c0.8,0,1.4,0.1,2,0.3c0.2,0.1,0.3,0.2,0.3,0.4c0,0.1,0,0.2-0.1,0.3c-0.1,0.1-0.2,0.1-0.3,0.1
			c0,0-0.1,0-0.2,0c-0.5-0.2-1.1-0.3-1.7-0.3c-0.5,0-1,0.1-1.3,0.3c-0.3,0.2-0.5,0.5-0.5,0.9C71.8,50.3,71.9,50.5,72,50.6z"/>
		<path fill="#FFFFFF" d="M78.4,48.2c0.1,0.1,0.1,0.2,0.1,0.3v6.3c0,0.1,0,0.2-0.1,0.3c-0.1,0.1-0.2,0.1-0.3,0.1
			c-0.1,0-0.2,0-0.3-0.1c-0.1-0.1-0.1-0.2-0.1-0.3v-6.3c0-0.1,0-0.2,0.1-0.3c0.1-0.1,0.2-0.1,0.3-0.1C78.2,48,78.3,48.1,78.4,48.2z"
			/>
		<path fill="#FFFFFF" d="M86.3,51.5c0.1,0.1,0.1,0.2,0.1,0.3v2.3c0,0.1,0,0.3-0.1,0.4c-0.1,0.1-0.2,0.2-0.3,0.3
			c-0.8,0.4-1.5,0.6-2.4,0.6c-0.7,0-1.3-0.2-1.9-0.5c-0.5-0.3-1-0.7-1.3-1.3c-0.3-0.6-0.5-1.2-0.5-1.9c0-0.7,0.2-1.4,0.5-1.9
			c0.3-0.6,0.7-1,1.3-1.3c0.5-0.3,1.1-0.5,1.8-0.5c0.5,0,1,0.1,1.4,0.2c0.4,0.1,0.8,0.3,1.2,0.5c0.1,0,0.1,0.1,0.1,0.1
			c0,0.1,0.1,0.1,0.1,0.2c0,0.1,0,0.2-0.1,0.3c-0.1,0.1-0.2,0.1-0.3,0.1c-0.1,0-0.1,0-0.2-0.1c-0.3-0.2-0.6-0.3-1-0.4
			c-0.3-0.1-0.7-0.1-1-0.1c-0.5,0-1,0.1-1.4,0.3c-0.4,0.2-0.7,0.5-1,1c-0.2,0.4-0.4,0.9-0.4,1.5c0,0.5,0.1,1,0.3,1.4
			c0.2,0.4,0.5,0.8,1,1c0.4,0.2,0.9,0.4,1.5,0.4c0.6,0,1.2-0.2,1.8-0.5v-1.9h-1.7c-0.1,0-0.2,0-0.3-0.1c-0.1-0.1-0.1-0.2-0.1-0.3
			c0-0.1,0-0.2,0.1-0.3c0.1-0.1,0.2-0.1,0.3-0.1h2C86.1,51.3,86.2,51.4,86.3,51.5z"/>
		<path fill="#FFFFFF" d="M94.3,48.2c0.1,0.1,0.1,0.2,0.1,0.3v6.1c0,0.2-0.1,0.3-0.2,0.5c-0.1,0.1-0.3,0.2-0.5,0.2h-0.1
			c-0.1,0-0.2,0-0.3-0.1c-0.1-0.1-0.2-0.1-0.2-0.2l-4-5.7v5.6c0,0.1,0,0.2-0.1,0.3c-0.1,0.1-0.2,0.1-0.3,0.1s-0.2,0-0.3-0.1
			c-0.1-0.1-0.1-0.2-0.1-0.3v-6.1c0-0.2,0.1-0.3,0.2-0.5c0.1-0.1,0.3-0.2,0.5-0.2h0.1c0.2,0,0.4,0.1,0.6,0.3l4,5.7v-5.5
			c0-0.1,0-0.2,0.1-0.3c0.1-0.1,0.2-0.1,0.3-0.1C94.1,48,94.2,48.1,94.3,48.2z"/>
		<circle fill="#FFD05B" cx="116.2" cy="16.7" r="2.7"/>
		<circle fill="#FF7058" cx="21.3" cy="21.1" r="2.1"/>
	</g>
</g>
</svg>
