<?xml version="1.0" encoding="utf-8"?>
<!-- Generator: Adobe Illustrator 18.0.0, SVG Export Plug-In . SVG Version: 6.00 Build 0)  -->
<!DOCTYPE svg PUBLIC "-//W3C//DTD SVG 1.1//EN" "http://www.w3.org/Graphics/SVG/1.1/DTD/svg11.dtd">
<svg version="1.1" id="Layer_1" xmlns="http://www.w3.org/2000/svg" xmlns:xlink="http://www.w3.org/1999/xlink" x="0px" y="0px"
	 viewBox="0 0 129.5 129.5" enable-background="new 0 0 129.5 129.5" xml:space="preserve">
<g>
	<g>
		<path fill="#FFFFFF" d="M124.6,81.2H4.6c-2.2,0-4-1.8-4-4v-73c0-2.2,1.8-4,4-4h119.9c2.2,0,4,1.8,4,4v73
			C128.6,79.4,126.8,81.2,124.6,81.2z"/>
		<rect x="0.6" y="15.6" fill="#84DBFF" width="128" height="17.3"/>
		<path fill="#FFFFFF" d="M124.9,129.6H75.2c-2.1,0-3.7-1.7-3.7-3.7V92.2c0-2.1,1.7-3.7,3.7-3.7h49.6c2.1,0,3.7,1.7,3.7,3.7v33.6
			C128.6,127.9,126.9,129.6,124.9,129.6z"/>
		<path fill="#FFFFFF" d="M88.7,88.5V71c0-6.3,5.1-11.3,11.3-11.3c6.3,0,11.3,5.1,11.3,11.3v17.4h8.4V71c0-10.9-8.8-19.8-19.8-19.8
			c-10.9,0-19.8,8.8-19.8,19.8v17.4H88.7z"/>
		<path fill="#E6E9EE" d="M113.4,86.5V71c0-7.4-6-13.3-13.3-13.3c-7.4,0-13.3,6-13.3,13.3v15.4h-4.4V71c0-9.8,8-17.8,17.8-17.8
			c9.8,0,17.8,8,17.8,17.8v15.4H113.4z"/>
		<path fill="#84DBFF" d="M100,118.6L100,118.6c-5.3,0-9.6-4.3-9.6-9.6l0,0c0-5.3,4.3-9.6,9.6-9.6l0,0c5.3,0,9.6,4.3,9.6,9.6l0,0
			C109.7,114.3,105.4,118.6,100,118.6z"/>
		<path fill="#231F20" d="M100,119.4c-5.7,0-10.4-4.7-10.4-10.4c0-5.7,4.7-10.4,10.4-10.4c5.7,0,10.4,4.7,10.4,10.4
			C110.4,114.7,105.8,119.4,100,119.4z M100,100.1c-4.9,0-8.9,4-8.9,8.9c0,4.9,4,8.9,8.9,8.9c4.9,0,8.9-4,8.9-8.9
			C108.9,104.1,104.9,100.1,100,100.1z"/>
		<circle fill="#E6E9EE" cx="22.2" cy="49" r="8"/>
		<circle fill="#FF7058" cx="35.4" cy="49" r="8"/>
		<path fill="#231F20" d="M35.4,40.3c-2.6,0-5,1.2-6.6,3c-1.6-1.8-3.9-3-6.6-3c-4.8,0-8.7,3.9-8.7,8.7s3.9,8.7,8.7,8.7
			c2.6,0,5-1.2,6.6-3c1.6,1.8,3.9,3,6.6,3c4.8,0,8.7-3.9,8.7-8.7S40.2,40.3,35.4,40.3z M22.2,56.2c-4,0-7.2-3.2-7.2-7.2
			s3.2-7.2,7.2-7.2c2.3,0,4.3,1.1,5.7,2.8c-0.8,1.3-1.2,2.8-1.2,4.5c0,1.6,0.5,3.1,1.2,4.4C26.6,55.1,24.5,56.2,22.2,56.2z
			 M35.4,56.2c-4,0-7.2-3.2-7.2-7.2s3.2-7.2,7.2-7.2s7.2,3.2,7.2,7.2S39.3,56.2,35.4,56.2z"/>
		<path fill="#FFFFFF" d="M63.2,101.4v-6.3l-4.9-0.9c-0.7-4.4-2.4-8.4-4.9-11.9l2.8-4.1l-4.4-4.4l-4.1,2.8
			c-3.4-2.5-7.5-4.3-11.9-4.9L35,67h-6.3l-0.9,4.9c-4.4,0.7-8.4,2.4-11.9,4.9L12,73.9l-4.4,4.4l2.8,4.1c-2.5,3.4-4.3,7.5-4.9,11.9
			l-4.9,0.9v6.3l4.9,0.9c0.7,4.4,2.4,8.4,4.9,11.9l-2.8,4.1l4.4,4.4l4.1-2.8c3.4,2.5,7.5,4.3,11.9,4.9l0.9,4.9H35l0.9-4.9
			c4.4-0.7,8.4-2.4,11.9-4.9l4.1,2.8l4.4-4.4l-2.8-4.1c2.5-3.4,4.3-7.5,4.9-11.9L63.2,101.4z"/>
		<path fill="#231F20" d="M124.7-0.7H4.8C2.1-0.7,0,1.4,0,4.1v73c0,2.6,2.1,4.8,4.8,4.8h4.5l0.3,0.4c-2.4,3.3-4,7.2-4.7,11.2
			l-4.3,0.8C0.3,94.3,0,94.7,0,95v6.3c0,0.4,0.3,0.7,0.6,0.7l4.3,0.8c0.7,4,2.3,7.9,4.7,11.2l-2.5,3.6c-0.2,0.3-0.2,0.7,0.1,1
			l4.4,4.4c0.3,0.3,0.7,0.3,1,0.1l3.6-2.5c3.3,2.4,7.2,4,11.2,4.7l0.8,4.3c0.1,0.4,0.4,0.6,0.7,0.6h6.3c0.4,0,0.7-0.3,0.7-0.6
			l0.8-4.3c4-0.7,7.9-2.3,11.2-4.7l3.6,2.5c0.3,0.2,0.7,0.2,1-0.1l4.4-4.4c0.3-0.3,0.3-0.7,0.1-1l-2.5-3.6c2.4-3.3,4-7.2,4.7-11.2
			l4.3-0.8c0.4-0.1,0.6-0.4,0.6-0.7V95c0-0.4-0.3-0.7-0.6-0.7l-4.3-0.8c-0.7-4-2.3-7.9-4.7-11.2l0.3-0.4h24.9v5.8h-4.3
			c-2.5,0-4.5,2-4.5,4.5v33.6c0,2.5,2,4.5,4.5,4.5H125c2.5,0,4.5-2,4.5-4.5V92.1c0-2.5-2-4.5-4.5-4.5h-4.3v-5.8h4
			c2.6,0,4.8-2.1,4.8-4.8v-73C129.5,1.4,127.4-0.7,124.7-0.7z M4.8,0.8h119.9c1.8,0,3.3,1.5,3.3,3.3v10.7H1.5V4.1
			C1.5,2.3,3,0.8,4.8,0.8z M128,32H1.5V16.3H128V32z M53,81.8c-0.2,0.3-0.2,0.6,0,0.9c2.5,3.4,4.2,7.4,4.8,11.5
			c0,0.3,0.3,0.6,0.6,0.6l4.2,0.8v5l-4.2,0.8c-0.3,0.1-0.6,0.3-0.6,0.6c-0.6,4.2-2.3,8.1-4.8,11.5c-0.2,0.3-0.2,0.6,0,0.9l2.5,3.5
			l-3.5,3.5l-3.5-2.5c-0.3-0.2-0.6-0.2-0.9,0c-3.4,2.5-7.4,4.2-11.5,4.8c-0.3,0-0.6,0.3-0.6,0.6l-0.8,4.2h-5l-0.8-4.2
			c-0.1-0.3-0.3-0.6-0.6-0.6c-4.2-0.6-8.1-2.3-11.5-4.8c-0.3-0.2-0.6-0.2-0.9,0l-3.5,2.5L8.7,118l2.5-3.5c0.2-0.3,0.2-0.6,0-0.9
			c-2.5-3.4-4.2-7.4-4.8-11.5c0-0.3-0.3-0.6-0.6-0.6l-4.2-0.8v-5l4.2-0.8c0.3-0.1,0.6-0.3,0.6-0.6c0.6-4.2,2.3-8.1,4.8-11.5
			c0.2-0.3,0.2-0.6,0-0.9l-2.5-3.5l3.5-3.5l3.5,2.5c0.3,0.2,0.6,0.2,0.9,0c3.4-2.5,7.4-4.2,11.5-4.8c0.3,0,0.6-0.3,0.6-0.6l0.8-4.2
			h5l0.8,4.2c0.1,0.3,0.3,0.6,0.6,0.6c4.2,0.6,8.1,2.3,11.5,4.8c0.3,0.2,0.6,0.2,0.9,0l3.5-2.5l3.5,3.5L53,81.8z M125,89.1
			c1.6,0,3,1.3,3,3v33.6c0,1.6-1.3,3-3,3H75.4c-1.6,0-3-1.3-3-3V92.1c0-1.6,1.3-3,3-3H125z M100.2,58.8c-6.7,0-12.1,5.4-12.1,12.1
			v16.7h-6.9V70.9c0-10.5,8.5-19,19-19s19,8.5,19,19v16.7h-6.9V70.9C112.3,64.2,106.9,58.8,100.2,58.8z M89.6,80.3v-9.4
			c0-5.8,4.8-10.6,10.6-10.6c5.8,0,10.6,4.8,10.6,10.6v9.4H89.6z M110.8,81.8v5.8H89.6v-5.8H110.8z M124.7,80.3h-4v-9.4
			c0-11.3-9.2-20.5-20.5-20.5s-20.5,9.2-20.5,20.5v9.4H55.8l1.2-1.7c0.2-0.3,0.2-0.7-0.1-1l-4.4-4.4c-0.3-0.3-0.7-0.3-1-0.1
			l-3.6,2.5c-3.3-2.4-7.2-4-11.2-4.7l-0.8-4.3c-0.1-0.4-0.4-0.6-0.7-0.6h-6.3c-0.4,0-0.7,0.3-0.7,0.6L27.4,71
			c-4,0.7-7.9,2.3-11.2,4.7l-3.6-2.5c-0.3-0.2-0.7-0.2-1,0.1l-4.4,4.4c-0.3,0.3-0.3,0.7-0.1,1l1.2,1.7H4.8c-1.8,0-3.3-1.5-3.3-3.3
			V33.5H128V77C128,78.9,126.5,80.3,124.7,80.3z"/>
		<circle fill="#84DBFF" cx="31.9" cy="98.3" r="20.5"/>
		<circle fill="#FFFFFF" cx="31.9" cy="98.3" r="11.4"/>
		<path fill="#231F20" d="M31.9,110.4c-6.7,0-12.2-5.5-12.2-12.2c0-6.7,5.5-12.2,12.2-12.2c6.7,0,12.2,5.5,12.2,12.2
			C44.1,105,38.6,110.4,31.9,110.4z M31.9,87.6c-5.9,0-10.7,4.8-10.7,10.7s4.8,10.7,10.7,10.7c5.9,0,10.7-4.8,10.7-10.7
			S37.8,87.6,31.9,87.6z"/>
		<path fill="#231F20" d="M67.2,49.8c-0.2,0-0.4-0.1-0.5-0.2c-0.3-0.3-0.3-0.8,0-1.1l1.3-1.3c0.3-0.3,0.8-0.3,1.1,0
			c0.3,0.3,0.3,0.8,0,1.1l-1.3,1.3C67.6,49.7,67.4,49.8,67.2,49.8z"/>
		<path fill="#231F20" d="M63.2,53.8c-0.2,0-0.4-0.1-0.5-0.2c-0.3-0.3-0.3-0.8,0-1.1l1.3-1.3c0.3-0.3,0.8-0.3,1.1,0
			c0.3,0.3,0.3,0.8,0,1.1l-1.3,1.3C63.6,53.7,63.4,53.8,63.2,53.8z"/>
		<path fill="#231F20" d="M68.5,53.8c-0.2,0-0.4-0.1-0.5-0.2l-1.3-1.3c-0.3-0.3-0.3-0.8,0-1.1c0.3-0.3,0.8-0.3,1.1,0l1.3,1.3
			c0.3,0.3,0.3,0.8,0,1.1C68.9,53.7,68.7,53.8,68.5,53.8z"/>
		<path fill="#231F20" d="M64.5,49.8c-0.2,0-0.4-0.1-0.5-0.2l-1.3-1.3c-0.3-0.3-0.3-0.8,0-1.1c0.3-0.3,0.8-0.3,1.1,0l1.3,1.3
			c0.3,0.3,0.3,0.8,0,1.1C64.9,49.7,64.7,49.8,64.5,49.8z"/>
		<path fill="#231F20" d="M118.5,97.6c-0.2,0-0.4-0.1-0.5-0.2c-0.3-0.3-0.3-0.8,0-1.1l1.3-1.3c0.3-0.3,0.8-0.3,1.1,0
			c0.3,0.3,0.3,0.8,0,1.1l-1.3,1.3C118.9,97.6,118.7,97.6,118.5,97.6z"/>
		<path fill="#231F20" d="M114.5,101.7c-0.2,0-0.4-0.1-0.5-0.2c-0.3-0.3-0.3-0.8,0-1.1l1.3-1.3c0.3-0.3,0.8-0.3,1.1,0
			c0.3,0.3,0.3,0.8,0,1.1l-1.3,1.3C114.9,101.6,114.7,101.7,114.5,101.7z"/>
		<path fill="#231F20" d="M119.8,101.7c-0.2,0-0.4-0.1-0.5-0.2l-1.3-1.3c-0.3-0.3-0.3-0.8,0-1.1c0.3-0.3,0.8-0.3,1.1,0l1.3,1.3
			c0.3,0.3,0.3,0.8,0,1.1C120.2,101.6,120,101.7,119.8,101.7z"/>
		<path fill="#231F20" d="M115.8,97.6c-0.2,0-0.4-0.1-0.5-0.2l-1.3-1.3c-0.3-0.3-0.3-0.8,0-1.1c0.3-0.3,0.8-0.3,1.1,0l1.3,1.3
			c0.3,0.3,0.3,0.8,0,1.1C116.1,97.6,116,97.6,115.8,97.6z"/>
		<g>
			<path fill="#231F20" d="M18,6.2c0.2,0,0.4-0.1,0.5-0.2l1.3-1.3c0.3-0.3,0.3-0.8,0-1.1c-0.3-0.3-0.8-0.3-1.1,0l-1.3,1.3
				c-0.3,0.3-0.3,0.8,0,1.1C17.6,6.1,17.8,6.2,18,6.2z"/>
			<path fill="#231F20" d="M14.7,7.6l-1.3,1.3c-0.3,0.3-0.3,0.8,0,1.1c0.1,0.1,0.3,0.2,0.5,0.2s0.4-0.1,0.5-0.2l1.3-1.3
				c0.3-0.3,0.3-0.8,0-1.1C15.5,7.4,15,7.4,14.7,7.6z"/>
			<path fill="#231F20" d="M19.8,8.9l-1.3-1.3c-0.3-0.3-0.8-0.3-1.1,0c-0.3,0.3-0.3,0.8,0,1.1l1.3,1.3c0.1,0.1,0.3,0.2,0.5,0.2
				s0.4-0.1,0.5-0.2C20.1,9.7,20.1,9.2,19.8,8.9z"/>
			<path fill="#231F20" d="M14.7,6c0.1,0.1,0.3,0.2,0.5,0.2s0.4-0.1,0.5-0.2c0.3-0.3,0.3-0.8,0-1.1l-1.3-1.3c-0.3-0.3-0.8-0.3-1.1,0
				s-0.3,0.8,0,1.1L14.7,6z"/>
		</g>
		<path fill="#FFFFFF" d="M9.4,29.1c-0.4,0-0.8-0.3-0.8-0.8v-8.1c0-0.4,0.3-0.8,0.8-0.8c0.4,0,0.8,0.3,0.8,0.8v8.1
			C10.1,28.7,9.8,29.1,9.4,29.1z"/>
		<path fill="#FFFFFF" d="M19.4,29.1c-0.4,0-0.8-0.3-0.8-0.8v-8.1c0-0.4,0.3-0.8,0.8-0.8c0.4,0,0.8,0.3,0.8,0.8v8.1
			C20.2,28.7,19.8,29.1,19.4,29.1z"/>
		<path fill="#FFFFFF" d="M29.5,29.1c-0.4,0-0.8-0.3-0.8-0.8v-8.1c0-0.4,0.3-0.8,0.8-0.8c0.4,0,0.8,0.3,0.8,0.8v8.1
			C30.2,28.7,29.9,29.1,29.5,29.1z"/>
		<path fill="#FFFFFF" d="M39.5,29.1c-0.4,0-0.8-0.3-0.8-0.8v-8.1c0-0.4,0.3-0.8,0.8-0.8c0.4,0,0.8,0.3,0.8,0.8v8.1
			C40.2,28.7,39.9,29.1,39.5,29.1z"/>
		<path fill="#FFFFFF" d="M49.5,29.1c-0.4,0-0.8-0.3-0.8-0.8v-8.1c0-0.4,0.3-0.8,0.8-0.8c0.4,0,0.8,0.3,0.8,0.8v8.1
			C50.3,28.7,49.9,29.1,49.5,29.1z"/>
		<path fill="#FFFFFF" d="M59.6,29.1c-0.4,0-0.8-0.3-0.8-0.8v-8.1c0-0.4,0.3-0.8,0.8-0.8s0.8,0.3,0.8,0.8v8.1
			C60.3,28.7,60,29.1,59.6,29.1z"/>
		<path fill="#FFFFFF" d="M69.6,29.1c-0.4,0-0.8-0.3-0.8-0.8v-8.1c0-0.4,0.3-0.8,0.8-0.8s0.8,0.3,0.8,0.8v8.1
			C70.4,28.7,70,29.1,69.6,29.1z"/>
		<path fill="#FFFFFF" d="M79.6,29.1c-0.4,0-0.8-0.3-0.8-0.8v-8.1c0-0.4,0.3-0.8,0.8-0.8s0.8,0.3,0.8,0.8v8.1
			C80.4,28.7,80.1,29.1,79.6,29.1z"/>
		<path fill="#FFFFFF" d="M89.7,29.1c-0.4,0-0.8-0.3-0.8-0.8v-8.1c0-0.4,0.3-0.8,0.8-0.8c0.4,0,0.8,0.3,0.8,0.8v8.1
			C90.4,28.7,90.1,29.1,89.7,29.1z"/>
		<path fill="#FFFFFF" d="M99.7,29.1c-0.4,0-0.8-0.3-0.8-0.8v-8.1c0-0.4,0.3-0.8,0.8-0.8c0.4,0,0.8,0.3,0.8,0.8v8.1
			C100.5,28.7,100.1,29.1,99.7,29.1z"/>
		<path fill="#FFFFFF" d="M109.8,29.1c-0.4,0-0.8-0.3-0.8-0.8v-8.1c0-0.4,0.3-0.8,0.8-0.8c0.4,0,0.8,0.3,0.8,0.8v8.1
			C110.5,28.7,110.2,29.1,109.8,29.1z"/>
		<path fill="#FFFFFF" d="M119.8,29.1c-0.4,0-0.8-0.3-0.8-0.8v-8.1c0-0.4,0.3-0.8,0.8-0.8c0.4,0,0.8,0.3,0.8,0.8v8.1
			C120.5,28.7,120.2,29.1,119.8,29.1z"/>
		<path fill="#231F20" d="M31.8,116.1c-0.4,0-0.7,0-1,0l0.1-1.5c0.3,0,0.6,0,1,0L31.8,116.1z M33.9,116l-0.2-1.5
			c0.3,0,0.6-0.1,0.9-0.1l0.3,1.5C34.6,115.9,34.2,116,33.9,116z M28.7,115.9c-0.3-0.1-0.7-0.1-1-0.2l0.4-1.5
			c0.3,0.1,0.6,0.1,0.9,0.2L28.7,115.9z M37,115.4l-0.4-1.4c0.3-0.1,0.6-0.2,0.9-0.3l0.5,1.4C37.6,115.2,37.3,115.3,37,115.4z
			 M25.7,115c-0.3-0.1-0.6-0.3-1-0.4l0.6-1.4c0.3,0.1,0.6,0.2,0.9,0.4L25.7,115z M39.9,114.3l-0.7-1.3c0.3-0.1,0.6-0.3,0.8-0.5
			l0.7,1.3C40.5,113.9,40.2,114.1,39.9,114.3z M22.9,113.7c-0.3-0.2-0.6-0.4-0.9-0.6l0.8-1.2c0.3,0.2,0.5,0.3,0.8,0.5L22.9,113.7z
			 M42.5,112.6l-0.9-1.2c0.3-0.2,0.5-0.4,0.8-0.6l1,1.2C43.1,112.2,42.8,112.4,42.5,112.6z M20.3,111.9c-0.3-0.2-0.5-0.5-0.8-0.7
			l1-1.1c0.2,0.2,0.5,0.4,0.7,0.6L20.3,111.9z M44.9,110.6l-1.1-1c0.2-0.2,0.4-0.5,0.6-0.7l1.1,1C45.3,110,45.1,110.3,44.9,110.6z
			 M18.1,109.7c-0.2-0.3-0.4-0.5-0.6-0.8l1.2-0.9c0.2,0.3,0.4,0.5,0.6,0.8L18.1,109.7z M46.8,108.1l-1.3-0.8
			c0.2-0.3,0.3-0.5,0.5-0.8l1.3,0.8C47.2,107.5,47,107.8,46.8,108.1z M16.3,107.1c-0.2-0.3-0.3-0.6-0.5-0.9l1.3-0.7
			c0.1,0.3,0.3,0.6,0.4,0.8L16.3,107.1z M48.3,105.4l-1.4-0.6c0.1-0.3,0.2-0.6,0.4-0.9l1.4,0.5C48.6,104.7,48.4,105,48.3,105.4z
			 M15,104.3c-0.1-0.3-0.2-0.7-0.3-1l1.4-0.4c0.1,0.3,0.2,0.6,0.3,0.9L15,104.3z M49.3,102.4l-1.5-0.3c0.1-0.3,0.1-0.6,0.2-0.9
			l1.5,0.3C49.4,101.7,49.4,102.1,49.3,102.4z M14.2,101.2c-0.1-0.3-0.1-0.7-0.1-1l1.5-0.2c0,0.3,0.1,0.6,0.1,0.9L14.2,101.2z
			 M49.7,99.3l-1.5-0.1c0-0.3,0-0.6,0-1h1.5C49.8,98.6,49.8,99,49.7,99.3z M15.5,98.1l-1.5,0c0-0.3,0-0.7,0-1l1.5,0.1
			C15.5,97.5,15.5,97.8,15.5,98.1z M48.2,96.6c0-0.3-0.1-0.6-0.1-0.9l1.5-0.2c0.1,0.3,0.1,0.7,0.1,1L48.2,96.6z M15.8,95.3L14.3,95
			c0.1-0.3,0.1-0.7,0.2-1l1.5,0.4C15.9,94.6,15.8,95,15.8,95.3z M47.7,93.8c-0.1-0.3-0.2-0.6-0.3-0.9l1.4-0.5c0.1,0.3,0.2,0.7,0.3,1
			L47.7,93.8z M16.5,92.5L15.1,92c0.1-0.3,0.3-0.7,0.4-1l1.4,0.6C16.8,91.9,16.6,92.2,16.5,92.5z M46.6,91.1
			c-0.1-0.3-0.3-0.6-0.4-0.8l1.3-0.7c0.2,0.3,0.3,0.6,0.5,0.9L46.6,91.1z M17.8,89.9l-1.3-0.8c0.2-0.3,0.4-0.6,0.6-0.9l1.2,0.8
			C18.1,89.4,17.9,89.7,17.8,89.9z M45.2,88.7c-0.2-0.3-0.4-0.5-0.6-0.8l1.2-0.9c0.2,0.3,0.4,0.5,0.6,0.8L45.2,88.7z M19.4,87.6
			l-1.1-1c0.2-0.3,0.5-0.5,0.7-0.8l1.1,1C19.9,87.1,19.6,87.4,19.4,87.6z M43.3,86.5c-0.2-0.2-0.5-0.4-0.7-0.6l1-1.1
			c0.3,0.2,0.5,0.5,0.8,0.7L43.3,86.5z M21.5,85.6l-1-1.2c0.3-0.2,0.5-0.4,0.8-0.6l0.9,1.2C22,85.2,21.7,85.4,21.5,85.6z M41.1,84.7
			c-0.3-0.2-0.5-0.4-0.8-0.5l0.8-1.3c0.3,0.2,0.6,0.4,0.9,0.6L41.1,84.7z M23.8,84l-0.7-1.3c0.3-0.2,0.6-0.3,0.9-0.5l0.7,1.3
			C24.4,83.7,24.1,83.8,23.8,84z M38.6,83.3c-0.3-0.1-0.6-0.3-0.9-0.4l0.5-1.4c0.3,0.1,0.7,0.3,1,0.4L38.6,83.3z M26.4,82.8L26,81.4
			c0.3-0.1,0.7-0.2,1-0.3l0.4,1.4C27.1,82.6,26.7,82.7,26.4,82.8z M35.9,82.4c-0.3-0.1-0.6-0.1-0.9-0.2l0.3-1.5
			c0.3,0.1,0.7,0.1,1,0.2L35.9,82.4z M29.2,82.1L29,80.6c0.3-0.1,0.7-0.1,1-0.1l0.2,1.5C29.9,82,29.5,82,29.2,82.1z M33,81.9
			c-0.3,0-0.6,0-1,0l0-1.5c0.4,0,0.7,0,1,0L33,81.9z"/>
	</g>
</g>
</svg>
