<?xml version="1.0" encoding="utf-8"?>
<!-- Generator: Adobe Illustrator 18.0.0, SVG Export Plug-In . SVG Version: 6.00 Build 0)  -->
<!DOCTYPE svg PUBLIC "-//W3C//DTD SVG 1.1//EN" "http://www.w3.org/Graphics/SVG/1.1/DTD/svg11.dtd">
<svg version="1.1" id="Layer_1" xmlns="http://www.w3.org/2000/svg" xmlns:xlink="http://www.w3.org/1999/xlink" x="0px" y="0px"
	 viewBox="0 0 129.5 129.5" enable-background="new 0 0 129.5 129.5" xml:space="preserve">
<g>
	<g>
		<g>
			<path fill="#231F20" d="M24.1,7.1c-0.2,0-0.4-0.1-0.5-0.2c-0.3-0.3-0.3-0.8,0-1.1l1.3-1.3c0.3-0.3,0.8-0.3,1.1,0
				c0.3,0.3,0.3,0.8,0,1.1l-1.3,1.3C24.5,7,24.3,7.1,24.1,7.1z"/>
		</g>
		<g>
			<path fill="#231F20" d="M20,11.2c-0.2,0-0.4-0.1-0.5-0.2c-0.3-0.3-0.3-0.8,0-1.1l1.3-1.3c0.3-0.3,0.8-0.3,1.1,0
				c0.3,0.3,0.3,0.8,0,1.1L20.6,11C20.4,11.1,20.2,11.2,20,11.2z"/>
		</g>
		<g>
			<path fill="#231F20" d="M25.4,11.2c-0.2,0-0.4-0.1-0.5-0.2l-1.3-1.3c-0.3-0.3-0.3-0.8,0-1.1c0.3-0.3,0.8-0.3,1.1,0L26,9.9
				c0.3,0.3,0.3,0.8,0,1.1C25.8,11.1,25.6,11.2,25.4,11.2z"/>
		</g>
		<g>
			<path fill="#231F20" d="M21.3,7.1c-0.2,0-0.4-0.1-0.5-0.2l-1.3-1.3c-0.3-0.3-0.3-0.8,0-1.1c0.3-0.3,0.8-0.3,1.1,0l1.3,1.3
				c0.3,0.3,0.3,0.8,0,1.1C21.7,7,21.5,7.1,21.3,7.1z"/>
		</g>
		<g>
			<path fill="#231F20" d="M122.7,7.5c-0.2,0-0.4-0.1-0.5-0.2c-0.3-0.3-0.3-0.8,0-1.1l1.3-1.3c0.3-0.3,0.8-0.3,1.1,0
				c0.3,0.3,0.3,0.8,0,1.1l-1.3,1.3C123.1,7.5,122.9,7.5,122.7,7.5z"/>
		</g>
		<g>
			<path fill="#231F20" d="M118.6,11.6c-0.2,0-0.4-0.1-0.5-0.2c-0.3-0.3-0.3-0.8,0-1.1l1.3-1.3c0.3-0.3,0.8-0.3,1.1,0
				c0.3,0.3,0.3,0.8,0,1.1l-1.3,1.3C119,11.6,118.8,11.6,118.6,11.6z"/>
		</g>
		<g>
			<path fill="#231F20" d="M124,11.6c-0.2,0-0.4-0.1-0.5-0.2l-1.3-1.3c-0.3-0.3-0.3-0.8,0-1.1c0.3-0.3,0.8-0.3,1.1,0l1.3,1.3
				c0.3,0.3,0.3,0.8,0,1.1C124.4,11.6,124.2,11.6,124,11.6z"/>
		</g>
		<g>
			<path fill="#231F20" d="M119.9,7.5c-0.2,0-0.4-0.1-0.5-0.2L118.1,6c-0.3-0.3-0.3-0.8,0-1.1c0.3-0.3,0.8-0.3,1.1,0l1.3,1.3
				c0.3,0.3,0.3,0.8,0,1.1C120.3,7.5,120.1,7.5,119.9,7.5z"/>
		</g>
		<g>
			<path fill="#231F20" d="M43.4,119c-0.2,0-0.4-0.1-0.5-0.2c-0.3-0.3-0.3-0.8,0-1.1l1.3-1.3c0.3-0.3,0.8-0.3,1.1,0
				c0.3,0.3,0.3,0.8,0,1.1l-1.3,1.3C43.8,118.9,43.6,119,43.4,119z"/>
		</g>
		<g>
			<path fill="#231F20" d="M39.3,123.1c-0.2,0-0.4-0.1-0.5-0.2c-0.3-0.3-0.3-0.8,0-1.1l1.3-1.3c0.3-0.3,0.8-0.3,1.1,0
				c0.3,0.3,0.3,0.8,0,1.1l-1.3,1.3C39.7,123,39.5,123.1,39.3,123.1z"/>
		</g>
		<g>
			<path fill="#231F20" d="M44.7,123.1c-0.2,0-0.4-0.1-0.5-0.2l-1.3-1.3c-0.3-0.3-0.3-0.8,0-1.1c0.3-0.3,0.8-0.3,1.1,0l1.3,1.3
				c0.3,0.3,0.3,0.8,0,1.1C45.1,123,44.9,123.1,44.7,123.1z"/>
		</g>
		<g>
			<path fill="#231F20" d="M40.6,119c-0.2,0-0.4-0.1-0.5-0.2l-1.3-1.3c-0.3-0.3-0.3-0.8,0-1.1c0.3-0.3,0.8-0.3,1.1,0l1.3,1.3
				c0.3,0.3,0.3,0.8,0,1.1C41,118.9,40.8,119,40.6,119z"/>
		</g>
		<g>
			<path fill="#231F20" d="M123.3,48h-8.2c-0.4,0-0.8-0.3-0.8-0.8c0-0.4,0.3-0.8,0.8-0.8h8.2c0.4,0,0.8,0.3,0.8,0.8
				C124,47.7,123.7,48,123.3,48z"/>
		</g>
		<g>
			<path fill="#231F20" d="M115.9,45.1h-4c-0.4,0-0.8-0.3-0.8-0.8c0-0.4,0.3-0.8,0.8-0.8h4c0.4,0,0.8,0.3,0.8,0.8
				C116.6,44.7,116.3,45.1,115.9,45.1z"/>
		</g>
		<g>
			<path fill="#231F20" d="M111.4,48h-3.8c-0.4,0-0.8-0.3-0.8-0.8c0-0.4,0.3-0.8,0.8-0.8h3.8c0.4,0,0.8,0.3,0.8,0.8
				C112.1,47.7,111.8,48,111.4,48z"/>
		</g>
		<g>
			<path fill="#231F20" d="M119.6,45.1h-0.8c-0.4,0-0.8-0.3-0.8-0.8c0-0.4,0.3-0.8,0.8-0.8h0.8c0.4,0,0.8,0.3,0.8,0.8
				C120.3,44.7,120,45.1,119.6,45.1z"/>
		</g>
		<path fill="#FF7058" d="M81.4,100.4v-3.3c0-10.9-8.8-19.7-19.7-19.7h0C50.8,77.4,42,86.2,42,97.1v3.3H81.4z"/>
		<path fill="#FFFFFF" d="M66.9,77.3v-4.6H56.5v4.6c0,2.9,2.3,5.2,5.2,5.2h0C64.6,82.4,66.9,80.1,66.9,77.3z"/>
		<path fill="#FFD05B" d="M73,38c-0.2-3-2.7-5.2-5.5-4.9c-13,1.3-21.7-4-21.7-4s-0.5,5.9,1.9,10.5c-1.9,1.7-3.2,4.1-3.2,6.9v12.7
			c0,1.8,1.5,3.3,3.3,3.3h27.8c1.8,0,3.3-1.5,3.3-3.3V46.4C78.9,42.6,76.5,39.3,73,38z"/>
		<path fill="#FFFFFF" d="M75.8,55.6h-0.1V52c-5.6-0.6-10.2-4.5-11.7-9.8c-3.4,5.5-9.3,9.3-16.1,9.8v3.6h-0.1c-1.1,0-2,0.9-2,2
			s0.9,2,2,2h0.1v2.8c0,7.7,6.2,13.9,13.9,13.9s13.9-6.2,13.9-13.9v-2.8h0.1c1.1,0,2-0.9,2-2S76.9,55.6,75.8,55.6z"/>
		<path fill="#231F20" d="M70.7,57.7c-0.4,0-0.7-0.3-0.7-0.6c-0.2-0.9-0.9-1.5-1.8-1.5c-0.9,0-1.7,0.6-1.8,1.5
			c-0.1,0.4-0.5,0.7-0.9,0.6c-0.4-0.1-0.7-0.5-0.6-0.9c0.3-1.6,1.7-2.8,3.3-2.8s3,1.2,3.3,2.8c0.1,0.4-0.2,0.8-0.6,0.9
			C70.8,57.7,70.8,57.7,70.7,57.7z"/>
		<path fill="#231F20" d="M57.8,57.7c-0.4,0-0.7-0.3-0.7-0.6c-0.2-0.9-0.9-1.5-1.8-1.5c-0.9,0-1.7,0.6-1.8,1.5
			c-0.1,0.4-0.5,0.7-0.9,0.6c-0.4-0.1-0.7-0.5-0.6-0.9c0.3-1.6,1.7-2.8,3.3-2.8c1.6,0,3,1.2,3.3,2.8c0.1,0.4-0.2,0.8-0.6,0.9
			C57.9,57.7,57.9,57.7,57.8,57.7z"/>
		<path fill="#E6E9EE" d="M57.1,66.8c0.6,2,2.4,3.5,4.6,3.5c2.2,0,4.1-1.5,4.6-3.5H57.1z"/>
		<path fill="#231F20" d="M61.7,71.1c-2.5,0-4.7-1.7-5.4-4.1l-0.3-1h11.3l-0.3,1C66.4,69.4,64.2,71.1,61.7,71.1z M58.2,67.6
			c0.7,1.2,2,2,3.5,2c1.5,0,2.8-0.8,3.5-2H58.2z"/>
		<path fill="#231F20" d="M67.6,77.5c0-0.1,0-0.2,0-0.3v-1.4c4.9-2.2,8.4-7,8.7-12.7c1.9-0.3,3.4-2,3.4-4V46.4c0-3.9-2.4-7.5-6-9
			c-0.5-3.1-3.2-5.4-6.3-5.1c-1.3,0.1-2.7,0.2-4,0.2c0,0,0,0,0,0c-10.3,0-17.1-4.1-17.2-4.1c-0.2-0.1-0.5-0.1-0.7,0
			c-0.2,0.1-0.4,0.3-0.4,0.6c0,0.2-0.5,5.8,1.7,10.4c-1.9,1.8-3,4.4-3,7v12.7c0,2,1.4,3.7,3.3,4c0.3,5.7,3.8,10.5,8.7,12.7v1.4
			c0,0.1,0,0.2,0,0.3c-8.4,2.5-14.5,10.3-14.5,19.5v4.1h40.9v-4.1C82.2,87.9,76,80.1,67.6,77.5z M78.2,59.2c0,1.1-0.8,2.1-1.8,2.4
			v-1.2c0.8-0.2,1.4-0.7,1.8-1.3V59.2z M45.3,46.4c0-2.4,1.1-4.7,2.9-6.3c0.3-0.2,0.3-0.6,0.2-0.9c-1.6-3.1-1.8-7-1.8-8.9
			c2.4,1.2,8.5,3.7,16.9,3.7h0c1.4,0,2.8-0.1,4.2-0.2c2.4-0.2,4.5,1.7,4.7,4.2c0,0.3,0.2,0.6,0.5,0.7c3.2,1.2,5.4,4.3,5.4,7.7v9.8
			c-0.4-0.7-1-1.2-1.8-1.3v-2.1c0.2,0,0.4,0,0.6,0c0.4,0,0.8-0.3,0.8-0.8c0-0.4-0.3-0.8-0.8-0.8c-0.4,0-0.9,0-1.3-0.1
			c-5.2-0.5-9.6-4.2-11.1-9.2c-0.1-0.3-0.3-0.5-0.6-0.5c-0.3,0-0.6,0.1-0.7,0.4c-3.3,5.5-9.1,9-15.5,9.4c-0.5,0-1,0.1-1.5,0.1
			c-0.4,0-0.8,0.3-0.8,0.8c0,0.4,0.3,0.8,0.8,0.8c0.3,0,0.5,0,0.8,0v2.1c-0.8,0.2-1.4,0.7-1.8,1.3V46.4z M47.1,61.6
			c-1-0.3-1.8-1.3-1.8-2.4v-0.1c0.4,0.7,1,1.2,1.8,1.3V61.6z M48.6,62.5v-2.8c0-0.4-0.3-0.8-0.8-0.8h-0.1c-0.7,0-1.3-0.6-1.3-1.3
			c0-0.7,0.6-1.3,1.3-1.3h0.1c0.4,0,0.8-0.3,0.8-0.8v-2.9c0,0,0,0,0,0c6.1-0.6,11.6-3.9,15.1-8.8c1.9,4.6,6.2,8,11.2,8.8
			c0,0,0,0,0,0v2.9c0,0.4,0.3,0.8,0.8,0.8h0.1c0.7,0,1.3,0.6,1.3,1.3c0,0.7-0.6,1.3-1.3,1.3h-0.1c-0.4,0-0.8,0.3-0.8,0.8v2.8
			c0,7.2-5.9,13.1-13.1,13.1C54.5,75.6,48.6,69.7,48.6,62.5z M61.7,77.1c1.5,0,3-0.2,4.4-0.7v0.8c0,2.4-2,4.4-4.4,4.4
			c-2.4,0-4.4-2-4.4-4.4v-0.8C58.7,76.9,60.2,77.1,61.7,77.1z M80.7,99.7h-7v-5.9h-1.5v5.9H51.3v-5.9h-1.5v5.9h-7v-2.6
			c0-8.5,5.6-15.6,13.3-18c0.8,2.4,3,4.1,5.7,4.1c2.6,0,4.9-1.7,5.7-4.1c7.7,2.4,13.3,9.6,13.3,18V99.7z"/>
		<polygon fill="#FFFFFF" points="64.7,93.9 61.7,97.1 58.7,93.9 58.7,93.9 60.5,86.3 60,84.5 63.4,84.5 62.9,86.3 		"/>
		<path fill="#231F20" d="M63.7,86.4l0.5-1.6c0.1-0.2,0-0.5-0.1-0.7c-0.1-0.2-0.4-0.3-0.6-0.3H60c-0.2,0-0.5,0.1-0.6,0.3
			c-0.1,0.2-0.2,0.4-0.1,0.7l0.5,1.6L58,93.7c-0.1,0.2,0,0.5,0.1,0.6c0,0,0.1,0.1,0.1,0.1l3,3.1c0.1,0.2,0.3,0.2,0.5,0.2
			c0.2,0,0.4-0.1,0.5-0.2l3-3.2c0.2-0.2,0.2-0.5,0.2-0.7L63.7,86.4z M61.7,96l-2.2-2.3l1.7-7.2c0-0.1,0-0.3,0-0.4L61,85.3h1.4
			l-0.2,0.8c0,0.1,0,0.3,0,0.4l1.7,7.2L61.7,96z"/>
		<path fill="#FFFFFF" d="M64.7,25.5c1.6-4.3,4.3-9.7,7.2-13l-7.2,2.6l-7.2-2.6C60.4,15.9,63.2,21.2,64.7,25.5z"/>
		<path fill="#FFFFFF" d="M64.8,104c-1.6,4.3-4.3,9.7-7.2,13l7.2-2.6L72,117C69.1,113.6,66.3,108.3,64.8,104z"/>
		<path fill="#FFFFFF" d="M37,92.5c-4.2,1.9-9.9,3.8-14.3,4.1l6.9,3.3l3.3,6.9C33.2,102.4,35.1,96.7,37,92.5z"/>
		<path fill="#FFFFFF" d="M25.5,64.8c-4.3-1.6-9.7-4.3-13-7.2l2.6,7.2L12.5,72C15.9,69.1,21.2,66.3,25.5,64.8z"/>
		<path fill="#FFFFFF" d="M37,37c-1.9-4.2-3.8-9.9-4.1-14.3l-3.3,6.9l-6.9,3.3C27.1,33.2,32.8,35.1,37,37z"/>
		<g>
			<path fill="#231F20" d="M71.7,11.8l-6.2,2.2V0H64v14.1l-6.2-2.2c-0.3-0.1-0.7,0-0.9,0.3c-0.2,0.3-0.2,0.7,0.1,0.9
				c3,3.5,5.7,9,7.1,12.7c0.1,0.3,0.4,0.5,0.7,0.5c0.3,0,0.6-0.2,0.7-0.5c1.4-3.7,4.1-9.3,7.1-12.7c0.2-0.3,0.2-0.6,0.1-0.9
				C72.4,11.8,72,11.7,71.7,11.8z M64.7,23.4c-1.2-3-3-6.4-5-9.3l4.7,1.7c0.2,0.1,0.4,0.1,0.5,0l4.7-1.7C67.7,17,66,20.5,64.7,23.4z
				"/>
			<path fill="#231F20" d="M65.5,103.7c-0.1-0.3-0.4-0.5-0.7-0.5c-0.3,0-0.6,0.2-0.7,0.5c-1.4,3.7-4.1,9.3-7.1,12.7
				c-0.2,0.3-0.2,0.6-0.1,0.9c0.2,0.3,0.6,0.4,0.9,0.3l6.2-2.2v14.1h1.5v-14.1l6.2,2.2c0.3,0.1,0.7,0,0.9-0.3
				c0.2-0.3,0.2-0.7-0.1-0.9C69.5,113,66.8,107.4,65.5,103.7z M65,113.6c-0.2-0.1-0.4-0.1-0.5,0l-4.7,1.7c2-2.9,3.8-6.3,5-9.3
				c1.2,3,3,6.4,5,9.3L65,113.6z"/>
			<path fill="#231F20" d="M92.8,37.7c3.6-1.6,9.4-3.7,14-4c0.3,0,0.6-0.3,0.7-0.6c0.1-0.3-0.1-0.7-0.4-0.8l-6-2.8l9.9-9.9l-1.1-1.1
				l-9.9,9.9l-2.8-6c-0.1-0.3-0.5-0.5-0.8-0.4c-0.3,0.1-0.6,0.3-0.6,0.7c-0.3,4.6-2.4,10.4-4,14c-0.1,0.3-0.1,0.6,0.2,0.9
				C92.2,37.8,92.5,37.8,92.8,37.7z M97,25.4l2.1,4.6c0.1,0.2,0.2,0.3,0.4,0.4l4.6,2.1c-3.4,0.6-7.1,1.8-10.1,3
				C95.2,32.6,96.4,28.9,97,25.4z"/>
			<path fill="#231F20" d="M36.7,91.8c-3.6,1.6-9.4,3.7-14,4c-0.3,0-0.6,0.3-0.7,0.6c-0.1,0.3,0.1,0.7,0.4,0.8l6,2.8l-9.9,9.9
				l1.1,1.1l9.9-9.9l2.8,6c0.1,0.3,0.5,0.5,0.8,0.4c0.3-0.1,0.6-0.3,0.6-0.7c0.3-4.6,2.4-10.4,4-14c0.1-0.3,0.1-0.6-0.2-0.9
				C37.3,91.7,37,91.7,36.7,91.8z M32.5,104.1l-2.1-4.6c-0.1-0.2-0.2-0.3-0.4-0.4L25.4,97c3.4-0.6,7.1-1.8,10.1-3
				C34.3,96.9,33.1,100.6,32.5,104.1z"/>
			<path fill="#231F20" d="M129.5,64h-14.1l2.2-6.2c0.1-0.3,0-0.7-0.3-0.9c-0.3-0.2-0.7-0.2-0.9,0.1c-3.5,3-9,5.7-12.7,7.1
				c-0.3,0.1-0.5,0.4-0.5,0.7c0,0.3,0.2,0.6,0.5,0.7c3.7,1.4,9.3,4.1,12.7,7.1c0.3,0.2,0.6,0.2,0.9,0.1c0.3-0.2,0.4-0.6,0.3-0.9
				l-2.2-6.2h14.1V64z M106.1,64.7c3-1.2,6.4-3,9.3-5l-1.7,4.7c-0.1,0.2-0.1,0.4,0,0.5l1.7,4.7C112.5,67.7,109,66,106.1,64.7z"/>
			<path fill="#231F20" d="M26.3,64.8c0-0.3-0.2-0.6-0.5-0.7C22.1,62.7,16.5,60,13,57c-0.3-0.2-0.6-0.2-0.9-0.1
				c-0.3,0.2-0.4,0.6-0.3,0.9l2.2,6.2H0v1.5h14.1l-2.2,6.2c-0.1,0.3,0,0.7,0.3,0.9c0.3,0.2,0.7,0.2,0.9-0.1c3.5-3,9-5.7,12.7-7.1
				C26.1,65.4,26.3,65.1,26.3,64.8z M14.2,69.8l1.7-4.7c0.1-0.2,0.1-0.4,0-0.5l-1.7-4.7c2.9,2,6.3,3.8,9.3,5
				C20.5,66,17,67.7,14.2,69.8z"/>
			<path fill="#231F20" d="M107.1,97.3c0.3-0.1,0.5-0.5,0.4-0.8c-0.1-0.3-0.3-0.6-0.7-0.6c-4.6-0.3-10.4-2.4-14-4
				c-0.3-0.1-0.6-0.1-0.9,0.2c-0.2,0.2-0.3,0.6-0.2,0.9c1.6,3.6,3.7,9.4,4,14c0,0.3,0.3,0.6,0.6,0.7c0.3,0.1,0.7-0.1,0.8-0.4l2.8-6
				l9.9,9.9l1.1-1.1l-9.9-9.9L107.1,97.3z M99.5,99.1c-0.2,0.1-0.3,0.2-0.4,0.4l-2.1,4.6c-0.6-3.4-1.8-7.1-3-10.1
				c3,1.2,6.7,2.4,10.1,3L99.5,99.1z"/>
			<path fill="#231F20" d="M22.4,32.2c-0.3,0.1-0.5,0.5-0.4,0.8c0.1,0.3,0.3,0.6,0.7,0.6c4.6,0.3,10.4,2.4,14,4
				c0.3,0.1,0.6,0.1,0.9-0.2c0.2-0.2,0.3-0.6,0.2-0.9c-1.6-3.6-3.7-9.4-4-14c0-0.3-0.3-0.6-0.6-0.7c-0.3-0.1-0.7,0.1-0.8,0.4l-2.8,6
				l-9.9-9.9l-1.1,1.1l9.9,9.9L22.4,32.2z M30,30.4c0.2-0.1,0.3-0.2,0.4-0.4l2.1-4.6c0.6,3.4,1.8,7.1,3,10.1c-3-1.2-6.7-2.4-10.1-3
				L30,30.4z"/>
		</g>
		<circle fill="#E6E9EE" cx="8.2" cy="9.6" r="2.1"/>
		<circle fill="#84DBFF" cx="92.5" cy="11.7" r="2"/>
		<circle fill="#FF7058" cx="113.1" cy="88.9" r="2.3"/>
		<circle fill="#84DBFF" cx="21.3" cy="77.5" r="2.3"/>
		<circle fill="#E6E9EE" cx="24.1" cy="120.4" r="2.4"/>
	</g>
</g>
</svg>
