<?xml version="1.0" encoding="utf-8"?>
<!-- Generator: Adobe Illustrator 18.0.0, SVG Export Plug-In . SVG Version: 6.00 Build 0)  -->
<!DOCTYPE svg PUBLIC "-//W3C//DTD SVG 1.1//EN" "http://www.w3.org/Graphics/SVG/1.1/DTD/svg11.dtd">
<svg version="1.1" id="Layer_1" xmlns="http://www.w3.org/2000/svg" xmlns:xlink="http://www.w3.org/1999/xlink" x="0px" y="0px"
	 viewBox="0 0 129.5 129.5" enable-background="new 0 0 129.5 129.5" xml:space="preserve">
<g>
	<g>
		<rect x="23.5" y="112.1" fill="#FFFFFF" width="49.5" height="7.1"/>
		<polygon fill="#FFFFFF" points="73,119.2 81.3,115.6 73,112.1 		"/>
		<path fill="#FFFFFF" d="M15.6,118.1v-5c0-0.6,0.5-1.1,1.1-1.1h6.8v7.1l-6.8,0C16.1,119.2,15.6,118.7,15.6,118.1z"/>
		<path fill="#231F20" d="M81.6,115l-8.3-3.5c-0.1,0-0.2-0.1-0.4-0.1v0l-56.3,0c-1,0-1.8,0.8-1.8,1.8v5c0,1,0.8,1.8,1.8,1.8H73v0
			c0,0,0,0,0.1,0c0.1,0,0.2,0,0.3-0.1l8.3-3.5c0.3-0.1,0.5-0.4,0.5-0.7C82.1,115.3,81.9,115.1,81.6,115z M72.3,112.9v2h-48v-2
			L72.3,112.9z M22.7,118.4h-6.1c-0.2,0-0.3-0.1-0.3-0.3v-5c0-0.2,0.1-0.3,0.3-0.3h6.1V118.4z M24.2,116.4h48v2h-48V116.4z
			 M73.8,118.1v-4.8l5.6,2.4L73.8,118.1z"/>
		<g>
			<g>
				<path fill="#231F20" d="M121.3,12.7c-0.2,0-0.4-0.1-0.5-0.2c-0.3-0.3-0.3-0.8,0-1.1l1.3-1.3c0.3-0.3,0.8-0.3,1.1,0
					c0.3,0.3,0.3,0.8,0,1.1l-1.3,1.3C121.6,12.6,121.4,12.7,121.3,12.7z"/>
			</g>
			<g>
				<path fill="#231F20" d="M117.2,16.7c-0.2,0-0.4-0.1-0.5-0.2c-0.3-0.3-0.3-0.8,0-1.1l1.3-1.3c0.3-0.3,0.8-0.3,1.1,0
					c0.3,0.3,0.3,0.8,0,1.1l-1.3,1.3C117.6,16.6,117.4,16.7,117.2,16.7z"/>
			</g>
			<g>
				<path fill="#231F20" d="M122.5,16.7c-0.2,0-0.4-0.1-0.5-0.2l-1.3-1.3c-0.3-0.3-0.3-0.8,0-1.1c0.3-0.3,0.8-0.3,1.1,0l1.3,1.3
					c0.3,0.3,0.3,0.8,0,1.1C122.9,16.6,122.7,16.7,122.5,16.7z"/>
			</g>
			<g>
				<path fill="#231F20" d="M118.5,12.7c-0.2,0-0.4-0.1-0.5-0.2l-1.3-1.3c-0.3-0.3-0.3-0.8,0-1.1c0.3-0.3,0.8-0.3,1.1,0l1.3,1.3
					c0.3,0.3,0.3,0.8,0,1.1C118.9,12.6,118.7,12.7,118.5,12.7z"/>
			</g>
		</g>
		<g>
			<g>
				<path fill="#231F20" d="M121.3,97.5c-0.2,0-0.4-0.1-0.5-0.2c-0.3-0.3-0.3-0.8,0-1.1l1.3-1.3c0.3-0.3,0.8-0.3,1.1,0
					c0.3,0.3,0.3,0.8,0,1.1l-1.3,1.3C121.6,97.4,121.4,97.5,121.3,97.5z"/>
			</g>
			<g>
				<path fill="#231F20" d="M117.2,101.5c-0.2,0-0.4-0.1-0.5-0.2c-0.3-0.3-0.3-0.8,0-1.1L118,99c0.3-0.3,0.8-0.3,1.1,0
					c0.3,0.3,0.3,0.8,0,1.1l-1.3,1.3C117.6,101.5,117.4,101.5,117.2,101.5z"/>
			</g>
			<g>
				<path fill="#231F20" d="M122.5,101.5c-0.2,0-0.4-0.1-0.5-0.2l-1.3-1.3c-0.3-0.3-0.3-0.8,0-1.1c0.3-0.3,0.8-0.3,1.1,0l1.3,1.3
					c0.3,0.3,0.3,0.8,0,1.1C122.9,101.5,122.7,101.5,122.5,101.5z"/>
			</g>
			<g>
				<path fill="#231F20" d="M118.5,97.5c-0.2,0-0.4-0.1-0.5-0.2l-1.3-1.3c-0.3-0.3-0.3-0.8,0-1.1c0.3-0.3,0.8-0.3,1.1,0l1.3,1.3
					c0.3,0.3,0.3,0.8,0,1.1C118.9,97.4,118.7,97.5,118.5,97.5z"/>
			</g>
		</g>
		<g>
			<g>
				<path fill="#231F20" d="M5.1,17.2c-0.2,0-0.4-0.1-0.5-0.2c-0.3-0.3-0.3-0.8,0-1.1l1.3-1.3c0.3-0.3,0.8-0.3,1.1,0
					c0.3,0.3,0.3,0.8,0,1.1L5.7,17C5.5,17.1,5.3,17.2,5.1,17.2z"/>
			</g>
			<g>
				<path fill="#231F20" d="M1.1,21.2c-0.2,0-0.4-0.1-0.5-0.2c-0.3-0.3-0.3-0.8,0-1.1l1.3-1.3c0.3-0.3,0.8-0.3,1.1,0
					c0.3,0.3,0.3,0.8,0,1.1L1.6,21C1.5,21.2,1.3,21.2,1.1,21.2z"/>
			</g>
			<g>
				<path fill="#231F20" d="M6.4,21.2c-0.2,0-0.4-0.1-0.5-0.2l-1.3-1.3c-0.3-0.3-0.3-0.8,0-1.1c0.3-0.3,0.8-0.3,1.1,0l1.3,1.3
					c0.3,0.3,0.3,0.8,0,1.1C6.8,21.2,6.6,21.2,6.4,21.2z"/>
			</g>
			<g>
				<path fill="#231F20" d="M2.4,17.2c-0.2,0-0.4-0.1-0.5-0.2l-1.3-1.3c-0.3-0.3-0.3-0.8,0-1.1c0.3-0.3,0.8-0.3,1.1,0l1.3,1.3
					c0.3,0.3,0.3,0.8,0,1.1C2.8,17.1,2.6,17.2,2.4,17.2z"/>
			</g>
		</g>
		<path fill="#FFFFFF" d="M93.3,4.7l4-4v93.7c0,4.8-3.8,8.6-8.6,8.6H9.4c4.8,0,8.6-3.9,8.6-8.6V0.8l0,0l4,4l4-4l4,4l4-4l4,4l4-4l4,4
			l4-4l4,4l4-4l4,4l4-4l4,4l4-4l4,4l4-4l4,4l4-4L93.3,4.7z"/>
		<path fill="#FFFFFF" d="M0.8,36.6v57.8c0,4.8,3.9,8.6,8.6,8.6c4.8,0,8.6-3.9,8.6-8.6V36.6H0.8z"/>
		<g>
			<path fill="#E6E9EE" d="M9.4,100.1c-3.1,0-5.6-2.5-5.6-5.6V39.6H15v54.8C15,97.6,12.5,100.1,9.4,100.1z"/>
		</g>
		<g>
			<rect x="48.5" y="43.9" fill="#231F20" width="18.5" height="1.5"/>
		</g>
		<g>
			<rect x="48.5" y="47.8" fill="#231F20" width="18.5" height="1.5"/>
		</g>
		<g>
			<rect x="48.5" y="51.6" fill="#231F20" width="18.5" height="1.5"/>
		</g>
		<g>
			<path fill="#231F20" d="M79.1,57.4h-1v-1.5h1V57.4z M76.1,57.4h-1v-1.5h1V57.4z M73.1,57.4h-1v-1.5h1V57.4z M70.1,57.4h-1v-1.5h1
				V57.4z M67.1,57.4h-1v-1.5h1V57.4z M64.1,57.4h-1v-1.5h1V57.4z M61.1,57.4h-1v-1.5h1V57.4z M58.1,57.4h-1v-1.5h1V57.4z
				 M55.1,57.4h-1v-1.5h1V57.4z M52.1,57.4h-1v-1.5h1V57.4z M49.1,57.4h-1v-1.5h1V57.4z M46.1,57.4h-1v-1.5h1V57.4z M43.1,57.4h-1
				v-1.5h1V57.4z M40.1,57.4h-1v-1.5h1V57.4z M37.1,57.4h-1v-1.5h1V57.4z M34.1,57.4h-1v-1.5h1V57.4z M31.1,57.4h-1v-1.5h1V57.4z
				 M28.1,57.4h-1v-1.5h1V57.4z M25.1,57.4h-1v-1.5h1V57.4z"/>
		</g>
		<g>
			<rect x="24.1" y="18.6" fill="#231F20" width="67.4" height="1.5"/>
		</g>
		<g>
			<rect x="48.5" y="60.2" fill="#231F20" width="18.5" height="1.5"/>
		</g>
		<g>
			<rect x="48.5" y="64.1" fill="#231F20" width="18.5" height="1.5"/>
		</g>
		<g>
			<rect x="48.5" y="68" fill="#231F20" width="18.5" height="1.5"/>
		</g>
		<g>
			<rect x="72.9" y="24.5" fill="#231F20" width="18.5" height="1.5"/>
		</g>
		<g>
			<rect x="72.9" y="28.4" fill="#231F20" width="18.5" height="1.5"/>
		</g>
		<g>
			<rect x="72.9" y="32.3" fill="#231F20" width="18.5" height="1.5"/>
		</g>
		<g>
			<rect x="72.9" y="36.1" fill="#231F20" width="18.5" height="1.5"/>
		</g>
		<g>
			<rect x="72.9" y="40" fill="#231F20" width="18.5" height="1.5"/>
		</g>
		<g>
			<rect x="24.3" y="43.9" fill="#231F20" width="18.1" height="1.5"/>
		</g>
		<g>
			<rect x="24.3" y="47.8" fill="#231F20" width="18.1" height="1.5"/>
		</g>
		<g>
			<rect x="24.3" y="51.6" fill="#231F20" width="18.1" height="1.5"/>
		</g>
		<g>
			<rect x="24.3" y="60.2" fill="#231F20" width="18.1" height="1.5"/>
		</g>
		<g>
			<rect x="24.3" y="64.1" fill="#231F20" width="18.1" height="1.5"/>
		</g>
		<g>
			<rect x="24.3" y="68" fill="#231F20" width="18.1" height="1.5"/>
		</g>
		<g>
			<rect x="24.3" y="71.9" fill="#231F20" width="18.1" height="1.5"/>
		</g>
		<g>
			<rect x="24.3" y="75.7" fill="#231F20" width="18.1" height="1.5"/>
		</g>
		<g>
			<rect x="24.3" y="79.6" fill="#231F20" width="18.1" height="1.5"/>
		</g>
		<g>
			<rect x="24.3" y="83.5" fill="#231F20" width="18.1" height="1.5"/>
		</g>
		<g>
			<rect x="24.3" y="87.4" fill="#231F20" width="18.1" height="1.5"/>
		</g>
		<g>
			<rect x="23.6" y="24.6" fill="#84DBFF" width="44" height="16.1"/>
		</g>
		<g>
			<rect x="35" y="11.1" fill="#E6E9EE" width="44" height="4.3"/>
		</g>
		<g>
			<rect x="48.5" y="72.6" fill="#FF7058" width="43" height="15.5"/>
		</g>
		<circle fill="#FFFFFF" cx="105.3" cy="63.9" r="23.5"/>
		<circle fill="#84DBFF" cx="105.3" cy="63.9" r="19"/>
		<g>
			<path fill="#84DBFF" d="M91,63.9c0-7.9,6.4-14.2,14.2-14.2"/>
			<path fill="#FFFFFF" d="M91,64.6c-0.4,0-0.8-0.3-0.8-0.8c0-8.3,6.7-15,15-15c0.4,0,0.8,0.3,0.8,0.8c0,0.4-0.3,0.8-0.8,0.8
				c-7.4,0-13.5,6-13.5,13.5C91.8,64.3,91.5,64.6,91,64.6z"/>
		</g>
		<path fill="#E6E9EE" d="M105.3,128.8L105.3,128.8c-1.9,0-3.4-1.5-3.4-3.4V98.9c0-1.9,1.5-3.4,3.4-3.4l0,0c1.9,0,3.4,1.5,3.4,3.4
			v26.5C108.7,127.2,107.1,128.8,105.3,128.8z"/>
		<g>
			<path fill="#231F20" d="M129.5,63.9c0-13.4-10.9-24.2-24.2-24.2c-2.5,0-4.9,0.4-7.2,1.1v-40c0-0.3-0.2-0.6-0.5-0.7
				C97.3-0.1,97,0,96.8,0.2l-3.4,3.4l-3.4-3.4c-0.3-0.3-0.8-0.3-1.1,0l-3.4,3.4L82,0.2c-0.3-0.3-0.8-0.3-1.1,0l-3.4,3.4L74,0.2
				c-0.3-0.3-0.8-0.3-1.1,0l-3.4,3.4l-3.4-3.4c-0.3-0.3-0.8-0.3-1.1,0l-3.4,3.4l-3.4-3.4c-0.3-0.3-0.8-0.3-1.1,0l-3.4,3.4l-3.4-3.4
				c-0.3-0.3-0.8-0.3-1.1,0l-3.4,3.4l-3.4-3.4c-0.3-0.3-0.8-0.3-1.1,0l-3.4,3.4l-3.4-3.4c-0.3-0.3-0.8-0.3-1.1,0l-3.4,3.4l-3.4-3.4
				c-0.3-0.3-0.8-0.3-1.1,0L22,3.7l-3.4-3.4c-0.3-0.3-0.8-0.3-1.1,0c-0.1,0.1-0.2,0.3-0.2,0.5v35.1H0v58.6c0,5.2,4.2,9.3,9.3,9.4
				c0,0,0,0,0,0h79.3c5.2,0,9.4-4.2,9.4-9.4V87c2.1,0.6,4.2,1,6.5,1.1v6.7c-1.9,0.4-3.4,2-3.4,4.1v26.5c0,2.3,1.9,4.2,4.2,4.2
				c2.3,0,4.2-1.9,4.2-4.2V98.9c0-2-1.5-3.7-3.4-4.1v-6.7C119,87.7,129.5,77,129.5,63.9z M1.5,94.5V37.4h15.7v57.1
				c0,4.3-3.5,7.9-7.9,7.9v0C5,102.3,1.5,98.8,1.5,94.5z M96.5,94.5c0,4.3-3.5,7.9-7.9,7.9H14.4c2.6-1.7,4.3-4.6,4.3-7.9V2.5
				l2.7,2.7c0.3,0.3,0.8,0.3,1.1,0l3.4-3.4l3.4,3.4c0.3,0.3,0.8,0.3,1.1,0l3.4-3.4l3.4,3.4c0.3,0.3,0.8,0.3,1.1,0l3.4-3.4l3.4,3.4
				c0.3,0.3,0.8,0.3,1.1,0l3.4-3.4l3.4,3.4c0.3,0.3,0.8,0.3,1.1,0l3.4-3.4l3.4,3.4c0.3,0.3,0.8,0.3,1.1,0l3.4-3.4L69,5.2
				c0.3,0.3,0.8,0.3,1.1,0l3.4-3.4l3.4,3.4c0.3,0.3,0.8,0.3,1.1,0l3.4-3.4l3.4,3.4c0.3,0.3,0.8,0.3,1.1,0l3.4-3.4l3.4,3.4
				c0.3,0.3,0.8,0.3,1.1,0l2.7-2.7v38.7c-1.8,0.7-3.4,1.6-4.9,2.6H72.9v1.5h16.7c-0.9,0.7-1.7,1.5-2.4,2.4H72.9v1.5H86
				c-0.6,0.8-1.1,1.6-1.6,2.4H72.9v1.5h10.7c-1.1,2.2-1.9,4.6-2.3,7.1h-8.4v1.5h8.2c-0.1,0.7-0.1,1.4-0.1,2.1c0,0.1,0,0.2,0,0.3
				h-8.1v1.5h8.2c0.1,0.8,0.2,1.6,0.3,2.4h-8.5v1.5h8.8c1.9,7.8,7.5,14.1,14.9,17V94.5z M107.9,125.3c0,1.5-1.2,2.7-2.7,2.7
				c-1.5,0-2.7-1.2-2.7-2.7v-2.6h5.3V125.3z M107.9,121.2h-5.3v-19.3h5.3V121.2z M107.9,98.9v1.5h-5.3v-1.5c0-1.5,1.2-2.7,2.7-2.7
				C106.7,96.2,107.9,97.4,107.9,98.9z M105.3,86.6c-12.5,0-22.7-10.2-22.7-22.7c0-12.5,10.2-22.7,22.7-22.7
				c12.5,0,22.7,10.2,22.7,22.7C128,76.4,117.8,86.6,105.3,86.6z"/>
			<path fill="#231F20" d="M105.3,44.1c-10.9,0-19.8,8.9-19.8,19.8c0,10.9,8.9,19.8,19.8,19.8c10.9,0,19.8-8.9,19.8-19.8
				C125,53,116.2,44.1,105.3,44.1z M105.3,82.1C95.2,82.1,87,73.9,87,63.9c0-10.1,8.2-18.3,18.3-18.3s18.3,8.2,18.3,18.3
				C123.5,73.9,115.3,82.1,105.3,82.1z"/>
		</g>
		<g>
			<circle fill="#E6E9EE" cx="113.1" cy="26.4" r="3.1"/>
		</g>
		<g>
			<circle fill="#FFD05B" cx="89.3" cy="113.6" r="3.1"/>
		</g>
		<g>
			<circle fill="#FF7058" cx="4.9" cy="5.3" r="2"/>
		</g>
		<g>
			<circle fill="#E6E9EE" cx="7.2" cy="111.3" r="2.3"/>
		</g>
	</g>
</g>
</svg>
