<?xml version="1.0" encoding="utf-8"?>
<!-- Generator: Adobe Illustrator 18.0.0, SVG Export Plug-In . SVG Version: 6.00 Build 0)  -->
<!DOCTYPE svg PUBLIC "-//W3C//DTD SVG 1.1//EN" "http://www.w3.org/Graphics/SVG/1.1/DTD/svg11.dtd">
<svg version="1.1" id="Layer_1" xmlns="http://www.w3.org/2000/svg" xmlns:xlink="http://www.w3.org/1999/xlink" x="0px" y="0px"
	 viewBox="0 0 129.5 129.5" enable-background="new 0 0 129.5 129.5" xml:space="preserve">
<g>
	<g>
		<g>
			<path fill="#231F20" d="M13,11.3c-0.2,0-0.4-0.1-0.5-0.2c-0.3-0.3-0.3-0.8,0-1.1l1.3-1.3c0.3-0.3,0.8-0.3,1.1,0
				c0.3,0.3,0.3,0.8,0,1.1l-1.3,1.3C13.4,11.3,13.2,11.3,13,11.3z"/>
		</g>
		<g>
			<path fill="#231F20" d="M9,15.4c-0.2,0-0.4-0.1-0.5-0.2c-0.3-0.3-0.3-0.8,0-1.1l1.3-1.3c0.3-0.3,0.8-0.3,1.1,0
				c0.3,0.3,0.3,0.8,0,1.1l-1.3,1.3C9.4,15.3,9.2,15.4,9,15.4z"/>
		</g>
		<g>
			<path fill="#231F20" d="M14.3,15.4c-0.2,0-0.4-0.1-0.5-0.2l-1.3-1.3c-0.3-0.3-0.3-0.8,0-1.1c0.3-0.3,0.8-0.3,1.1,0l1.3,1.3
				c0.3,0.3,0.3,0.8,0,1.1C14.7,15.3,14.5,15.4,14.3,15.4z"/>
		</g>
		<g>
			<path fill="#231F20" d="M10.3,11.3c-0.2,0-0.4-0.1-0.5-0.2L8.4,9.8c-0.3-0.3-0.3-0.8,0-1.1c0.3-0.3,0.8-0.3,1.1,0l1.3,1.3
				c0.3,0.3,0.3,0.8,0,1.1C10.6,11.3,10.4,11.3,10.3,11.3z"/>
		</g>
		<g>
			<path fill="#231F20" d="M116.5,113.8c-0.2,0-0.4-0.1-0.5-0.2c-0.3-0.3-0.3-0.8,0-1.1l1.3-1.3c0.3-0.3,0.8-0.3,1.1,0
				c0.3,0.3,0.3,0.8,0,1.1l-1.3,1.3C116.9,113.8,116.7,113.8,116.5,113.8z"/>
		</g>
		<g>
			<path fill="#231F20" d="M112.5,117.9c-0.2,0-0.4-0.1-0.5-0.2c-0.3-0.3-0.3-0.8,0-1.1l1.3-1.3c0.3-0.3,0.8-0.3,1.1,0
				c0.3,0.3,0.3,0.8,0,1.1l-1.3,1.3C112.9,117.8,112.7,117.9,112.5,117.9z"/>
		</g>
		<g>
			<path fill="#231F20" d="M117.8,117.9c-0.2,0-0.4-0.1-0.5-0.2l-1.3-1.3c-0.3-0.3-0.3-0.8,0-1.1c0.3-0.3,0.8-0.3,1.1,0l1.3,1.3
				c0.3,0.3,0.3,0.8,0,1.1C118.2,117.8,118,117.9,117.8,117.9z"/>
		</g>
		<g>
			<path fill="#231F20" d="M113.8,113.8c-0.2,0-0.4-0.1-0.5-0.2l-1.3-1.3c-0.3-0.3-0.3-0.8,0-1.1c0.3-0.3,0.8-0.3,1.1,0l1.3,1.3
				c0.3,0.3,0.3,0.8,0,1.1C114.2,113.8,114,113.8,113.8,113.8z"/>
		</g>
		<g>
			<path fill="#231F20" d="M13,112.5c-0.2,0-0.4-0.1-0.5-0.2c-0.3-0.3-0.3-0.8,0-1.1l1.3-1.3c0.3-0.3,0.8-0.3,1.1,0
				c0.3,0.3,0.3,0.8,0,1.1l-1.3,1.3C13.4,112.4,13.2,112.5,13,112.5z"/>
		</g>
		<g>
			<path fill="#231F20" d="M9,116.5c-0.2,0-0.4-0.1-0.5-0.2c-0.3-0.3-0.3-0.8,0-1.1l1.3-1.3c0.3-0.3,0.8-0.3,1.1,0
				c0.3,0.3,0.3,0.8,0,1.1l-1.3,1.3C9.4,116.4,9.2,116.5,9,116.5z"/>
		</g>
		<g>
			<path fill="#231F20" d="M14.3,116.5c-0.2,0-0.4-0.1-0.5-0.2l-1.3-1.3c-0.3-0.3-0.3-0.8,0-1.1c0.3-0.3,0.8-0.3,1.1,0l1.3,1.3
				c0.3,0.3,0.3,0.8,0,1.1C14.7,116.4,14.5,116.5,14.3,116.5z"/>
		</g>
		<g>
			<path fill="#231F20" d="M10.3,112.5c-0.2,0-0.4-0.1-0.5-0.2L8.4,111c-0.3-0.3-0.3-0.8,0-1.1c0.3-0.3,0.8-0.3,1.1,0l1.3,1.3
				c0.3,0.3,0.3,0.8,0,1.1C10.6,112.4,10.4,112.5,10.3,112.5z"/>
		</g>
		<path fill="#231F20" d="M64.7,117l-0.4,0l0-1.5l0.4,0l0.6,0l0,1.5L64.7,117z M62.2,117c-0.3,0-0.7,0-1-0.1l0.1-1.5
			c0.3,0,0.7,0,1,0.1L62.2,117z M67.3,116.9l-0.1-1.5c0.3,0,0.7,0,1-0.1l0.1,1.5C68,116.9,67.6,116.9,67.3,116.9z M59.2,116.7
			c-0.3,0-0.7-0.1-1-0.1l0.2-1.5c0.3,0,0.7,0.1,1,0.1L59.2,116.7z M70.3,116.7l-0.1-1.5c0.3,0,0.7-0.1,1-0.1l0.2,1.5
			C71,116.7,70.7,116.7,70.3,116.7z M56.2,116.4c-0.3,0-0.7-0.1-1-0.2l0.3-1.5c0.3,0.1,0.6,0.1,1,0.2L56.2,116.4z M73.3,116.3
			l-0.2-1.5c0.3,0,0.6-0.1,1-0.2l0.3,1.5C74,116.2,73.7,116.3,73.3,116.3z M53.2,115.8c-0.3-0.1-0.7-0.1-1-0.2l0.3-1.5
			c0.3,0.1,0.6,0.1,1,0.2L53.2,115.8z M76.3,115.8l-0.3-1.5c0.3-0.1,0.6-0.1,1-0.2l0.3,1.5C77,115.7,76.7,115.7,76.3,115.8z
			 M50.2,115.1c-0.3-0.1-0.7-0.2-1-0.3l0.4-1.4c0.3,0.1,0.6,0.2,0.9,0.3L50.2,115.1z M79.3,115.1l-0.4-1.5c0.3-0.1,0.6-0.2,0.9-0.3
			l0.4,1.4C79.9,114.9,79.6,115,79.3,115.1z M47.3,114.3c-0.3-0.1-0.6-0.2-1-0.3l0.5-1.4c0.3,0.1,0.6,0.2,0.9,0.3L47.3,114.3z
			 M82.2,114.2l-0.5-1.4c0.3-0.1,0.6-0.2,0.9-0.3l0.5,1.4C82.8,114,82.5,114.1,82.2,114.2z M44.4,113.3c-0.3-0.1-0.6-0.2-0.9-0.4
			l0.6-1.4c0.3,0.1,0.6,0.2,0.9,0.4L44.4,113.3z M85.1,113.2l-0.5-1.4c0.3-0.1,0.6-0.2,0.9-0.4l0.6,1.4
			C85.7,113,85.4,113.1,85.1,113.2z M41.6,112.1c-0.3-0.1-0.6-0.3-0.9-0.4l0.6-1.4c0.3,0.1,0.6,0.3,0.9,0.4L41.6,112.1z M87.9,112
			l-0.6-1.4c0.3-0.1,0.6-0.3,0.9-0.4l0.6,1.4C88.5,111.8,88.2,111.9,87.9,112z M38.9,110.8c-0.3-0.2-0.6-0.3-0.9-0.5l0.7-1.3
			c0.3,0.2,0.6,0.3,0.9,0.5L38.9,110.8z M90.6,110.7l-0.7-1.3c0.3-0.1,0.6-0.3,0.9-0.5l0.7,1.3C91.2,110.4,90.9,110.6,90.6,110.7z
			 M36.2,109.3c-0.3-0.2-0.6-0.3-0.9-0.5l0.8-1.3c0.3,0.2,0.6,0.3,0.8,0.5L36.2,109.3z M93.2,109.3l-0.8-1.3
			c0.3-0.2,0.6-0.3,0.8-0.5l0.8,1.3C93.8,108.9,93.5,109.1,93.2,109.3z M33.6,107.7c-0.3-0.2-0.6-0.4-0.8-0.6l0.8-1.2
			c0.3,0.2,0.5,0.4,0.8,0.6L33.6,107.7z M95.8,107.7l-0.8-1.3c0.3-0.2,0.5-0.4,0.8-0.6l0.9,1.2C96.4,107.3,96.1,107.5,95.8,107.7z
			 M31.1,106c-0.3-0.2-0.5-0.4-0.8-0.6l0.9-1.2c0.3,0.2,0.5,0.4,0.8,0.6L31.1,106z M98.3,105.9l-0.9-1.2c0.3-0.2,0.5-0.4,0.8-0.6
			l0.9,1.2C98.8,105.5,98.6,105.7,98.3,105.9z M28.7,104.1c-0.3-0.2-0.5-0.4-0.8-0.7l1-1.1c0.3,0.2,0.5,0.4,0.8,0.6L28.7,104.1z
			 M100.7,104l-1-1.2c0.3-0.2,0.5-0.4,0.8-0.6l1,1.1C101.2,103.6,101,103.8,100.7,104z M26.4,102.1c-0.2-0.2-0.5-0.5-0.7-0.7l1-1.1
			c0.2,0.2,0.5,0.5,0.7,0.7L26.4,102.1z M103,102l-1-1.1c0.2-0.2,0.5-0.4,0.7-0.7l1,1.1C103.5,101.6,103.2,101.8,103,102z M24.3,100
			c-0.2-0.2-0.5-0.5-0.7-0.7l1.1-1c0.2,0.2,0.5,0.5,0.7,0.7L24.3,100z M105.2,99.9l-1.1-1c0.2-0.2,0.5-0.5,0.7-0.7l1.1,1
			C105.6,99.4,105.4,99.7,105.2,99.9z M22.2,97.7c-0.2-0.3-0.4-0.5-0.7-0.8l1.1-1c0.2,0.3,0.4,0.5,0.6,0.7L22.2,97.7z M107.2,97.7
			l-1.1-1c0.2-0.2,0.4-0.5,0.6-0.7l1.1,1C107.7,97.2,107.4,97.4,107.2,97.7z M20.3,95.4c-0.2-0.3-0.4-0.5-0.6-0.8l1.2-0.9
			c0.2,0.3,0.4,0.5,0.6,0.8L20.3,95.4z M109.2,95.3l-1.2-0.9c0.2-0.3,0.4-0.5,0.6-0.8l1.2,0.9C109.6,94.8,109.4,95.1,109.2,95.3z
			 M18.5,93c-0.2-0.3-0.4-0.6-0.6-0.8l1.2-0.8c0.2,0.3,0.4,0.5,0.6,0.8L18.5,93z M111,92.9l-1.2-0.9c0.2-0.3,0.4-0.5,0.6-0.8
			l1.2,0.8C111.4,92.4,111.2,92.6,111,92.9z M16.8,90.4c-0.2-0.3-0.4-0.6-0.5-0.9l1.3-0.8c0.2,0.3,0.3,0.6,0.5,0.8L16.8,90.4z
			 M112.7,90.4l-1.3-0.8c0.2-0.3,0.3-0.6,0.5-0.8l1.3,0.8C113,89.8,112.8,90.1,112.7,90.4z M15.2,87.8c-0.2-0.3-0.3-0.6-0.5-0.9
			l1.3-0.7c0.2,0.3,0.3,0.6,0.5,0.9L15.2,87.8z M114.2,87.7l-1.3-0.7c0.2-0.3,0.3-0.6,0.5-0.9l1.3,0.7
			C114.5,87.1,114.4,87.4,114.2,87.7z M13.8,85.1c-0.1-0.3-0.3-0.6-0.4-0.9l1.4-0.6c0.1,0.3,0.3,0.6,0.4,0.9L13.8,85.1z M115.6,85
			l-1.4-0.7c0.1-0.3,0.3-0.6,0.4-0.9l1.4,0.6C115.9,84.4,115.7,84.7,115.6,85z M12.6,82.4c-0.1-0.3-0.3-0.6-0.4-0.9l1.4-0.6
			c0.1,0.3,0.2,0.6,0.4,0.9L12.6,82.4z M116.8,82.3l-1.4-0.6c0.1-0.3,0.3-0.6,0.4-0.9l1.4,0.6C117.1,81.6,117,81.9,116.8,82.3z
			 M11.5,79.5c-0.1-0.3-0.2-0.6-0.3-1l1.4-0.5c0.1,0.3,0.2,0.6,0.3,0.9L11.5,79.5z M117.9,79.4l-1.4-0.5c0.1-0.3,0.2-0.6,0.3-0.9
			l1.4,0.5C118.2,78.8,118,79.1,117.9,79.4z M10.6,76.6c-0.1-0.3-0.2-0.6-0.3-1l1.4-0.4c0.1,0.3,0.2,0.6,0.3,0.9L10.6,76.6z
			 M118.9,76.5l-1.4-0.4c0.1-0.3,0.2-0.6,0.3-0.9l1.4,0.4C119.1,75.9,119,76.2,118.9,76.5z M9.8,73.7c-0.1-0.3-0.2-0.7-0.2-1
			l1.5-0.3c0.1,0.3,0.1,0.6,0.2,1L9.8,73.7z M119.7,73.6l-1.5-0.3c0.1-0.3,0.1-0.6,0.2-1l1.5,0.3C119.8,72.9,119.7,73.3,119.7,73.6z
			 M9.1,70.7c-0.1-0.3-0.1-0.7-0.2-1l1.5-0.2c0.1,0.3,0.1,0.6,0.2,1L9.1,70.7z M120.3,70.6l-1.5-0.3c0.1-0.3,0.1-0.6,0.2-1l1.5,0.2
			C120.4,69.9,120.3,70.3,120.3,70.6z M8.7,67.7c0-0.3-0.1-0.7-0.1-1l1.5-0.2c0,0.3,0.1,0.7,0.1,1L8.7,67.7z M120.7,67.6l-1.5-0.2
			c0-0.3,0.1-0.7,0.1-1l1.5,0.2C120.8,66.9,120.8,67.3,120.7,67.6z M8.4,64.7c0-0.3,0-0.7-0.1-1l1.5-0.1c0,0.3,0,0.7,0.1,1L8.4,64.7
			z M121,64.6l-1.5-0.1c0-0.3,0-0.7,0.1-1l1.5,0.1C121.1,63.9,121.1,64.2,121,64.6z M8.2,61.7c0-0.3,0-0.7,0-1l1.5,0
			c0,0.3,0,0.7,0,1L8.2,61.7z M121.2,61.5l-1.5,0c0-0.3,0-0.7,0-1h1.5C121.2,60.9,121.2,61.2,121.2,61.5z M119.7,59.3
			c0-0.3,0-0.7,0-1l1.5-0.1c0,0.3,0,0.7,0,1L119.7,59.3z M9.7,58.7l-1.5-0.1c0-0.3,0-0.7,0-1l1.5,0.1C9.8,58,9.8,58.3,9.7,58.7z
			 M119.5,56.3c0-0.3-0.1-0.7-0.1-1l1.5-0.1c0,0.3,0.1,0.7,0.1,1L119.5,56.3z M9.9,55.7l-1.5-0.1c0-0.3,0.1-0.7,0.1-1l1.5,0.2
			C10,55.1,10,55.4,9.9,55.7z M119.2,53.4c0-0.3-0.1-0.7-0.1-1l1.5-0.2c0,0.3,0.1,0.7,0.1,1L119.2,53.4z M10.3,52.8l-1.5-0.2
			c0-0.3,0.1-0.7,0.2-1l1.5,0.2C10.4,52.1,10.3,52.5,10.3,52.8z M118.8,50.5c-0.1-0.3-0.1-0.6-0.2-1l1.5-0.3c0.1,0.3,0.1,0.7,0.2,1
			L118.8,50.5z M10.8,49.9l-1.5-0.3c0.1-0.3,0.1-0.7,0.2-1l1.5,0.3C10.9,49.2,10.8,49.5,10.8,49.9z M118.1,47.6
			c-0.1-0.3-0.2-0.6-0.2-1l1.5-0.4c0.1,0.3,0.2,0.7,0.2,1L118.1,47.6z M11.4,47l-1.5-0.4c0.1-0.3,0.2-0.7,0.3-1l1.4,0.4
			C11.6,46.3,11.5,46.7,11.4,47z M117.4,44.7c-0.1-0.3-0.2-0.6-0.3-0.9l1.4-0.5c0.1,0.3,0.2,0.6,0.3,1L117.4,44.7z M12.2,44.1
			l-1.4-0.4c0.1-0.3,0.2-0.6,0.3-1l1.4,0.5C12.4,43.5,12.3,43.8,12.2,44.1z M116.4,41.9c-0.1-0.3-0.2-0.6-0.3-0.9l1.4-0.5
			c0.1,0.3,0.2,0.6,0.4,0.9L116.4,41.9z M13.2,41.3l-1.4-0.5c0.1-0.3,0.2-0.6,0.4-1l1.4,0.6C13.4,40.7,13.3,41,13.2,41.3z
			 M115.4,39.2c-0.1-0.3-0.3-0.6-0.4-0.9l1.4-0.6c0.1,0.3,0.3,0.6,0.4,0.9L115.4,39.2z M14.3,38.6L12.9,38c0.1-0.3,0.3-0.6,0.4-0.9
			l1.4,0.6C14.5,38,14.4,38.3,14.3,38.6z M114.1,36.5c-0.1-0.3-0.3-0.6-0.4-0.9l1.3-0.7c0.2,0.3,0.3,0.6,0.5,0.9L114.1,36.5z
			 M15.5,35.9l-1.3-0.7c0.2-0.3,0.3-0.6,0.5-0.9L16,35C15.8,35.3,15.7,35.6,15.5,35.9z M112.8,33.9c-0.2-0.3-0.3-0.6-0.5-0.9
			l1.3-0.8c0.2,0.3,0.3,0.6,0.5,0.9L112.8,33.9z M16.9,33.3l-1.3-0.7c0.2-0.3,0.3-0.6,0.5-0.9l1.3,0.8C17.3,32.7,17.1,33,16.9,33.3z
			 M111.3,31.3c-0.2-0.3-0.4-0.6-0.5-0.8l1.3-0.8c0.2,0.3,0.4,0.6,0.5,0.9L111.3,31.3z M18.5,30.7l-1.3-0.8c0.2-0.3,0.4-0.6,0.6-0.8
			l1.2,0.8C18.8,30.2,18.7,30.5,18.5,30.7z M109.6,28.9c-0.2-0.3-0.4-0.5-0.6-0.8l1.2-0.9c0.2,0.3,0.4,0.5,0.6,0.8L109.6,28.9z
			 M20.1,28.3l-1.2-0.9c0.2-0.3,0.4-0.5,0.6-0.8l1.2,0.9C20.5,27.8,20.3,28,20.1,28.3z M107.9,26.5c-0.2-0.3-0.4-0.5-0.6-0.8
			l1.2-0.9c0.2,0.3,0.4,0.5,0.6,0.8L107.9,26.5z M21.9,26L20.8,25c0.2-0.3,0.4-0.5,0.6-0.8l1.1,1C22.4,25.4,22.2,25.7,21.9,26z
			 M106,24.2c-0.2-0.2-0.4-0.5-0.7-0.7l1.1-1c0.2,0.3,0.5,0.5,0.7,0.8L106,24.2z M23.9,23.7l-1.1-1c0.2-0.3,0.5-0.5,0.7-0.7l1.1,1
			C24.3,23.2,24.1,23.5,23.9,23.7z M104,22.1c-0.2-0.2-0.5-0.5-0.7-0.7l1.1-1.1c0.2,0.2,0.5,0.5,0.7,0.7L104,22.1z M25.9,21.6
			l-1.1-1.1c0.2-0.2,0.5-0.5,0.7-0.7l1,1.1C26.4,21.1,26.1,21.3,25.9,21.6z M101.8,20c-0.2-0.2-0.5-0.4-0.7-0.7l1-1.1
			c0.3,0.2,0.5,0.5,0.8,0.7L101.8,20z M28.1,19.5l-1-1.1c0.3-0.2,0.5-0.4,0.8-0.7l1,1.1C28.6,19.1,28.3,19.3,28.1,19.5z M99.6,18.1
			c-0.3-0.2-0.5-0.4-0.8-0.6l0.9-1.2c0.3,0.2,0.5,0.4,0.8,0.6L99.6,18.1z M30.3,17.6l-0.9-1.2c0.3-0.2,0.5-0.4,0.8-0.6l0.9,1.2
			C30.8,17.2,30.6,17.4,30.3,17.6z M97.3,16.2c-0.3-0.2-0.5-0.4-0.8-0.6l0.9-1.2c0.3,0.2,0.5,0.4,0.8,0.6L97.3,16.2z M32.7,15.8
			l-0.9-1.2c0.3-0.2,0.5-0.4,0.8-0.6l0.9,1.2C33.2,15.5,32.9,15.6,32.7,15.8z M94.8,14.5c-0.3-0.2-0.6-0.4-0.8-0.5l0.8-1.3
			c0.3,0.2,0.6,0.4,0.9,0.6L94.8,14.5z M35.1,14.2l-0.8-1.3c0.3-0.2,0.6-0.4,0.9-0.5l0.8,1.3C35.7,13.8,35.4,14,35.1,14.2z M92.3,13
			c-0.3-0.2-0.6-0.3-0.9-0.5l0.7-1.3c0.3,0.2,0.6,0.3,0.9,0.5L92.3,13z M37.7,12.7l-0.7-1.3c0.3-0.2,0.6-0.3,0.9-0.5l0.7,1.3
			C38.2,12.3,37.9,12.5,37.7,12.7z M89.7,11.6c-0.3-0.2-0.6-0.3-0.9-0.4l0.7-1.3c0.3,0.1,0.6,0.3,0.9,0.5L89.7,11.6z M40.3,11.3
			l-0.7-1.3c0.3-0.1,0.6-0.3,0.9-0.4l0.6,1.4C40.8,11,40.6,11.1,40.3,11.3z M87,10.3c-0.3-0.1-0.6-0.3-0.9-0.4l0.6-1.4
			c0.3,0.1,0.6,0.3,0.9,0.4L87,10.3z M42.9,10l-0.6-1.4c0.3-0.1,0.6-0.3,0.9-0.4l0.6,1.4C43.5,9.8,43.2,9.9,42.9,10z M84.3,9.1
			C84,9,83.7,8.9,83.4,8.8l0.5-1.4c0.3,0.1,0.6,0.2,1,0.4L84.3,9.1z M45.7,8.9l-0.5-1.4c0.3-0.1,0.6-0.2,1-0.3l0.5,1.4
			C46.3,8.7,46,8.8,45.7,8.9z M81.5,8.2c-0.3-0.1-0.6-0.2-0.9-0.3L81,6.4c0.3,0.1,0.6,0.2,1,0.3L81.5,8.2z M48.5,8L48,6.5
			c0.3-0.1,0.6-0.2,1-0.3l0.4,1.4C49.1,7.8,48.8,7.9,48.5,8z M78.7,7.3c-0.3-0.1-0.6-0.2-1-0.2l0.4-1.5c0.3,0.1,0.7,0.2,1,0.2
			L78.7,7.3z M51.3,7.2L51,5.7c0.3-0.1,0.7-0.2,1-0.2L52.3,7C52,7,51.6,7.1,51.3,7.2z M75.8,6.7c-0.3-0.1-0.6-0.1-1-0.2L75.1,5
			c0.3,0.1,0.7,0.1,1,0.2L75.8,6.7z M54.2,6.5l-0.3-1.5c0.3-0.1,0.7-0.1,1-0.2l0.3,1.5C54.9,6.4,54.5,6.5,54.2,6.5z M72.9,6.2
			c-0.3,0-0.6-0.1-1-0.1l0.2-1.5c0.3,0,0.7,0.1,1,0.1L72.9,6.2z M57.1,6.1l-0.2-1.5c0.3,0,0.7-0.1,1-0.1l0.2,1.5
			C57.8,6,57.5,6,57.1,6.1z M69.9,5.8c-0.3,0-0.7-0.1-1-0.1l0.1-1.5c0.3,0,0.7,0.1,1,0.1L69.9,5.8z M60.1,5.7L60,4.2
			c0.3,0,0.7-0.1,1-0.1l0.1,1.5C60.7,5.7,60.4,5.7,60.1,5.7z M67,5.6c-0.3,0-0.7,0-1,0l0-1.5c0.3,0,0.7,0,1,0L67,5.6z M63,5.6l0-1.5
			c0.3,0,0.7,0,1,0l0,1.5C63.7,5.6,63.4,5.6,63,5.6z"/>
		<path fill="#FFFFFF" d="M89.9,128.7H36.6c-1.7,0-3.1-1.4-3.1-3.1V49.8c0-1.7,1.4-3.1,3.1-3.1h53.4c1.7,0,3.1,1.4,3.1,3.1v75.7
			C93,127.3,91.6,128.7,89.9,128.7z"/>
		<rect x="39.8" y="55" fill="#84DBFF" width="46.9" height="59.4"/>
		<polygon fill="#54C0EB" points="86.7,114.4 39.8,114.4 86.7,55 		"/>
		<g>
			<line fill="#FFFFFF" x1="53.7" y1="51.1" x2="56.4" y2="51.1"/>
			<path fill="#231F20" d="M56.4,51.9h-2.6c-0.4,0-0.8-0.3-0.8-0.8s0.3-0.8,0.8-0.8h2.6c0.4,0,0.8,0.3,0.8,0.8S56.8,51.9,56.4,51.9z
				"/>
		</g>
		<g>
			<line fill="#FFFFFF" x1="58.8" y1="51.1" x2="72.7" y2="51.1"/>
			<path fill="#231F20" d="M72.7,51.9H58.8c-0.4,0-0.8-0.3-0.8-0.8s0.3-0.8,0.8-0.8h13.9c0.4,0,0.8,0.3,0.8,0.8S73.2,51.9,72.7,51.9
				z"/>
		</g>
		<circle fill="#FFFFFF" cx="63.2" cy="120.7" r="3.7"/>
		<path fill="#231F20" d="M63.2,125.2c-2.5,0-4.5-2-4.5-4.5c0-2.5,2-4.5,4.5-4.5c2.5,0,4.5,2,4.5,4.5
			C67.7,123.2,65.7,125.2,63.2,125.2z M63.2,117.7c-1.6,0-3,1.3-3,3c0,1.6,1.3,3,3,3c1.6,0,3-1.3,3-3
			C66.2,119,64.9,117.7,63.2,117.7z"/>
		<g>
			<path fill="#FFFFFF" d="M91.7,26.6c-1.3-3.4-1.6-7.1-0.7-10.9c2.3-10.3,12.6-16.8,22.9-14.5c10.3,2.3,16.8,12.6,14.5,22.9
				c-2.3,10.3-12.6,16.8-22.9,14.5c-3.8-0.9-7-2.8-9.5-5.3l-9.2,1.1L91.7,26.6z"/>
			<path fill="#231F20" d="M109.6,39.9c-1.5,0-3-0.2-4.4-0.5c-3.7-0.8-7-2.7-9.6-5.3l-8.8,1.1c-0.3,0-0.6-0.1-0.7-0.3
				c-0.2-0.2-0.2-0.6,0-0.8l4.8-7.5c-1.2-3.5-1.5-7.3-0.6-11c2.1-9.1,10-15.5,19.4-15.5c1.5,0,3,0.2,4.4,0.5
				c5.2,1.2,9.6,4.3,12.4,8.8c2.8,4.5,3.8,9.8,2.6,15C126.9,33.5,119,39.9,109.6,39.9z M95.9,32.5c0.2,0,0.4,0.1,0.5,0.2
				c2.5,2.6,5.7,4.3,9.1,5.1c1.3,0.3,2.7,0.5,4.1,0.5c8.5,0,16-6,17.9-14.3c1.1-4.8,0.2-9.7-2.4-13.9c-2.6-4.2-6.7-7-11.5-8.1
				c-1.3-0.3-2.7-0.5-4.1-0.5c-8.5,0-16,6-17.9,14.3c-0.8,3.5-0.5,7.1,0.7,10.5c0.1,0.2,0.1,0.5-0.1,0.7l-4.1,6.4L95.9,32.5
				C95.8,32.5,95.8,32.5,95.9,32.5z"/>
		</g>
		<g>
			<path fill="#FF7058" d="M109.5,30.8c-2.4-1.1-10.3-5.3-10.3-13.7c0-2.8,2.3-5.1,5.1-5.1c1.4,0,2.8,0.6,3.8,1.7l1.4,1.6l1.4-1.6
				c1-1.1,2.4-1.7,3.8-1.7c2.8,0,5.1,2.3,5.1,5.1C119.8,25.5,111.9,29.7,109.5,30.8z"/>
		</g>
		<path fill="#231F20" d="M79.2,15.9c-0.2-0.1-0.4-0.2-0.6-0.2L61.7,19c-0.4,0.1-0.6,0.4-0.6,0.7v14C60.5,33.3,59.8,33,59,33
			c-2,0-3.6,1.6-3.6,3.6c0,2,1.6,3.6,3.6,3.6c2,0,3.6-1.6,3.6-3.6V24.1L78,21.2v9.3c-0.6-0.4-1.3-0.7-2.1-0.7c-2,0-3.6,1.6-3.6,3.6
			s1.6,3.6,3.6,3.6s3.6-1.6,3.6-3.6V16.5C79.5,16.3,79.4,16.1,79.2,15.9z M59,38.7c-1.2,0-2.1-0.9-2.1-2.1c0-1.2,0.9-2.1,2.1-2.1
			c1.2,0,2.1,0.9,2.1,2.1C61.1,37.8,60.2,38.7,59,38.7z M62.6,22.6v-2.2L78,17.4v2.2L62.6,22.6z M75.9,35.5c-1.2,0-2.1-0.9-2.1-2.1
			c0-1.2,0.9-2.1,2.1-2.1c1.2,0,2.1,0.9,2.1,2.1C78,34.6,77,35.5,75.9,35.5z"/>
		<g>
			<path fill="#FFFFFF" d="M67.8,74.4h-65c-1.1,0-2-0.9-2-2v-8.1c0-1.1,0.9-2,2-2h65c1.1,0,2,0.9,2,2v8.1
				C69.8,73.5,68.9,74.4,67.8,74.4z"/>
		</g>
		<g>
			<path fill="#FF7058" d="M67.8,62.2H56.2v12.2h11.6c1.1,0,2-0.9,2-2v-8.1C69.8,63.1,68.9,62.2,67.8,62.2z"/>
		</g>
		<path fill="#231F20" d="M89.9,46H36.6c-2.1,0-3.9,1.7-3.9,3.9v11.6H2.8c-1.5,0-2.8,1.2-2.8,2.8v8.1c0,1.5,1.2,2.8,2.8,2.8h29.9
			v50.4c0,2.1,1.7,3.9,3.9,3.9h53.4c2.1,0,3.9-1.7,3.9-3.9V49.8C93.8,47.7,92,46,89.9,46z M1.5,72.4v-8.1c0-0.7,0.6-1.3,1.3-1.3h65
			c0.7,0,1.3,0.6,1.3,1.3v8.1c0,0.7-0.6,1.3-1.3,1.3h-65C2.1,73.6,1.5,73.1,1.5,72.4z M92.3,125.6c0,1.3-1.1,2.4-2.4,2.4H36.6
			c-1.3,0-2.4-1.1-2.4-2.4V75.1h33.6c1.5,0,2.8-1.2,2.8-2.8v-8.1c0-1.5-1.2-2.8-2.8-2.8H34.2V49.8c0-1.3,1.1-2.4,2.4-2.4h53.4
			c1.3,0,2.4,1.1,2.4,2.4V125.6z"/>
		<g>
			<g>
				<path fill="#FFFFFF" d="M61.6,70.3c-0.8,0-1.6-0.3-2.1-0.9c-1.2-1.2-1.2-3.1,0-4.3c1.1-1.1,3.1-1.1,4.3,0c1.2,1.2,1.2,3.1,0,4.3
					C63.2,70,62.4,70.3,61.6,70.3z M61.6,65.8c-0.4,0-0.8,0.2-1.1,0.4c-0.6,0.6-0.6,1.5,0,2.1c0.6,0.6,1.6,0.6,2.1,0
					c0.6-0.6,0.6-1.5,0-2.1C62.4,66,62,65.8,61.6,65.8z"/>
			</g>
			<g>
				<path fill="#FFFFFF" d="M65.9,72.3c-0.2,0-0.4-0.1-0.5-0.2l-2.7-2.7c-0.3-0.3-0.3-0.8,0-1.1c0.3-0.3,0.8-0.3,1.1,0l2.7,2.7
					c0.3,0.3,0.3,0.8,0,1.1C66.3,72.3,66.1,72.3,65.9,72.3z"/>
			</g>
		</g>
		<g>
			<path fill="#E6E9EE" d="M5,67.7c0.1,0.1,0.2,0.2,0.4,0.2C5.5,67.9,5.7,68,6,68c0.3,0.1,0.6,0.2,0.8,0.2c0.2,0.1,0.4,0.2,0.5,0.4
				c0.1,0.2,0.2,0.4,0.2,0.7c0,0.2-0.1,0.4-0.2,0.6c-0.1,0.2-0.3,0.3-0.6,0.4c-0.2,0.1-0.5,0.2-0.8,0.2c-0.5,0-1-0.1-1.5-0.3
				c0,0-0.1-0.1-0.1-0.1c0,0,0-0.1,0-0.2c0-0.1,0-0.1,0.1-0.2c0-0.1,0.1-0.1,0.2-0.1c0,0,0.1,0,0.1,0C5,69.9,5.4,70,5.8,70
				c0.7,0,1.1-0.2,1.1-0.7c0-0.1,0-0.2-0.1-0.3c-0.1-0.1-0.2-0.1-0.3-0.2c-0.1,0-0.3-0.1-0.6-0.2c-0.3-0.1-0.6-0.2-0.8-0.3
				c-0.2-0.1-0.4-0.2-0.5-0.4c-0.1-0.2-0.2-0.4-0.2-0.6c0-0.2,0.1-0.5,0.2-0.6c0.1-0.2,0.3-0.3,0.6-0.5c0.2-0.1,0.5-0.2,0.9-0.2
				c0.5,0,0.9,0.1,1.2,0.2c0.1,0,0.2,0.1,0.2,0.2c0,0.1,0,0.1-0.1,0.2c0,0.1-0.1,0.1-0.2,0.1c0,0-0.1,0-0.1,0
				c-0.3-0.1-0.7-0.2-1-0.2c-0.3,0-0.6,0.1-0.8,0.2c-0.2,0.1-0.3,0.3-0.3,0.5C4.8,67.4,4.9,67.6,5,67.7z"/>
			<path fill="#E6E9EE" d="M11.3,70c0.1,0.1,0.1,0.1,0.1,0.2c0,0.1,0,0.1-0.1,0.2c-0.1,0-0.1,0.1-0.2,0.1H8.6c-0.1,0-0.1,0-0.2-0.1
				c-0.1-0.1-0.1-0.1-0.1-0.2v-3.8c0-0.1,0-0.1,0.1-0.2c0.1-0.1,0.1-0.1,0.2-0.1h2.5c0.1,0,0.1,0,0.2,0.1c0.1,0.1,0.1,0.1,0.1,0.2
				c0,0.1,0,0.1-0.1,0.2c-0.1,0-0.1,0.1-0.2,0.1H8.9V68h2c0.1,0,0.1,0,0.2,0.1c0.1,0.1,0.1,0.1,0.1,0.2c0,0.1,0,0.1-0.1,0.2
				c-0.1,0-0.1,0.1-0.2,0.1h-2v1.4h2.2C11.2,69.9,11.3,70,11.3,70z"/>
			<path fill="#E6E9EE" d="M15.9,70.2c0,0.1,0,0.1-0.1,0.2c-0.1,0.1-0.1,0.1-0.2,0.1c-0.1,0-0.1,0-0.2,0c0,0-0.1-0.1-0.1-0.1l-0.4-1
				h-2.1l-0.4,1c0,0.1-0.1,0.1-0.1,0.1c0,0-0.1,0-0.2,0c-0.1,0-0.2,0-0.2-0.1c-0.1-0.1-0.1-0.1-0.1-0.2c0,0,0-0.1,0-0.1l1.6-3.7
				c0-0.1,0.1-0.1,0.1-0.2c0.1,0,0.1-0.1,0.2-0.1h0.1c0.1,0,0.2,0,0.2,0.1c0.1,0,0.1,0.1,0.1,0.2l1.6,3.7
				C15.9,70.1,15.9,70.2,15.9,70.2z M13.9,66.8l-0.8,2h1.7L13.9,66.8z"/>
			<path fill="#E6E9EE" d="M20,70.4c-0.1,0.1-0.1,0.1-0.2,0.1c-0.1,0-0.2,0-0.2-0.1c-0.1-0.1-0.1-0.1-0.1-0.2V70
				c0-0.2,0-0.4-0.1-0.6c0-0.2-0.1-0.3-0.3-0.5c-0.1-0.1-0.4-0.2-0.6-0.2h-1.3v1.4c0,0.1,0,0.1-0.1,0.2c-0.1,0.1-0.1,0.1-0.2,0.1
				s-0.1,0-0.2-0.1c-0.1-0.1-0.1-0.1-0.1-0.2v-3.8c0-0.1,0-0.1,0.1-0.2c0.1-0.1,0.1-0.1,0.2-0.1h1.4c0.6,0,1,0.1,1.3,0.3
				c0.3,0.2,0.4,0.5,0.4,0.9c0,0.2-0.1,0.5-0.2,0.7c-0.1,0.2-0.3,0.4-0.6,0.4c0.3,0.1,0.5,0.3,0.6,0.6c0.1,0.3,0.2,0.6,0.2,0.9v0.3
				C20,70.3,20,70.4,20,70.4z M19.2,68c0.2-0.1,0.3-0.3,0.3-0.6c0-0.2-0.1-0.4-0.3-0.6c-0.2-0.1-0.5-0.2-0.9-0.2h-1.1v1.6h1.1
				C18.7,68.2,19,68.2,19.2,68z"/>
			<path fill="#E6E9EE" d="M24.5,69.7c0,0,0.1,0.1,0.1,0.2c0,0.1,0,0.2-0.1,0.2c-0.2,0.1-0.4,0.2-0.7,0.3c-0.2,0.1-0.5,0.1-0.8,0.1
				c-0.4,0-0.8-0.1-1.1-0.3c-0.3-0.2-0.6-0.4-0.8-0.8c-0.2-0.3-0.3-0.7-0.3-1.2c0-0.5,0.1-0.8,0.3-1.2c0.2-0.3,0.4-0.6,0.8-0.8
				c0.3-0.2,0.7-0.3,1.1-0.3c0.3,0,0.5,0,0.8,0.1c0.2,0.1,0.4,0.2,0.7,0.3c0.1,0,0.1,0.1,0.1,0.2c0,0.1,0,0.1-0.1,0.2
				c0,0-0.1,0.1-0.2,0.1c0,0-0.1,0-0.1,0c-0.2-0.1-0.4-0.2-0.5-0.2c-0.2,0-0.4-0.1-0.6-0.1c-0.4,0-0.7,0.1-0.9,0.2
				c-0.3,0.1-0.4,0.3-0.6,0.6c-0.1,0.3-0.2,0.5-0.2,0.9c0,0.3,0.1,0.6,0.2,0.9c0.1,0.3,0.3,0.5,0.6,0.6c0.3,0.1,0.6,0.2,0.9,0.2
				c0.2,0,0.4,0,0.6-0.1c0.2,0,0.4-0.1,0.5-0.2c0,0,0.1,0,0.1,0C24.4,69.7,24.4,69.7,24.5,69.7z"/>
			<path fill="#E6E9EE" d="M28.8,66.2c0.1,0.1,0.1,0.1,0.1,0.2v3.8c0,0.1,0,0.1-0.1,0.2c-0.1,0.1-0.1,0.1-0.2,0.1
				c-0.1,0-0.1,0-0.2-0.1c-0.1-0.1-0.1-0.1-0.1-0.2v-1.7H26v1.7c0,0.1,0,0.1-0.1,0.2c-0.1,0.1-0.1,0.1-0.2,0.1s-0.1,0-0.2-0.1
				c-0.1-0.1-0.1-0.1-0.1-0.2v-3.8c0-0.1,0-0.1,0.1-0.2c0.1-0.1,0.1-0.1,0.2-0.1s0.1,0,0.2,0.1c0.1,0.1,0.1,0.1,0.1,0.2V68h2.4v-1.7
				c0-0.1,0-0.1,0.1-0.2c0.1-0.1,0.1-0.1,0.2-0.1C28.7,66.1,28.8,66.1,28.8,66.2z"/>
		</g>
		<g>
			<path fill="#FFFFFF" d="M119.7,64.1l-3.5-1.6l-0.1,0.2c-0.8,1.3-2.2,2.1-3.8,2c-0.3,0-0.6,0-0.9,0c-1.5,0-3-0.8-3.7-2.2l-0.1-0.2
				l-3.6,1.4l0.1,0.2c0.4,1.5-0.1,3-1.3,4.1c-0.2,0.2-0.4,0.4-0.7,0.6c-1.1,1.1-2.7,1.5-4.1,1l-0.2-0.1L96.3,73l0.2,0.1
				c1.3,0.8,2.1,2.2,2,3.8c0,0.3,0,0.6,0,0.9c0,1.5-0.8,3-2.2,3.7l-0.2,0.1l1.4,3.6l0.2-0.1c1.5-0.4,3,0.1,4.1,1.3
				c0.2,0.2,0.4,0.4,0.6,0.7c1.1,1.1,1.5,2.7,1,4.1l-0.1,0.2l3.5,1.6l0.1-0.2c0.8-1.3,2.2-2.1,3.8-2c0.3,0,0.6,0,0.9,0
				c1.5,0,3,0.8,3.7,2.2l0.1,0.2l3.6-1.4l-0.1-0.2c-0.4-1.5,0.1-3,1.3-4.1c0.2-0.2,0.4-0.4,0.7-0.6c1.1-1.1,2.7-1.5,4.1-1l0.2,0.1
				l1.6-3.5l-0.2-0.1c-1.3-0.8-2.1-2.2-2-3.8c0-0.3,0-0.6,0-0.9c0-1.5,0.8-3,2.2-3.7l0.2-0.1l-1.4-3.6l-0.2,0.1
				c-1.5,0.4-3-0.1-4.1-1.3c-0.2-0.2-0.4-0.4-0.6-0.7c-1.1-1.1-1.5-2.7-1-4.1L119.7,64.1z"/>
			<path fill="#231F20" d="M115.4,93.9c-0.3,0-0.5-0.2-0.7-0.4l-0.1-0.2c-0.5-1.1-1.7-1.8-3-1.8c-0.4,0-0.7,0-1,0
				c-1.3-0.1-2.5,0.5-3.1,1.6l-0.1,0.2c-0.2,0.3-0.6,0.5-1,0.3L103,92c-0.4-0.2-0.5-0.6-0.4-0.9l0.1-0.2c0.4-1.2,0.1-2.4-0.8-3.3
				c-0.2-0.2-0.4-0.5-0.7-0.7c-0.8-1-2.1-1.4-3.3-1l-0.2,0.1c-0.4,0.1-0.8-0.1-0.9-0.5l-1.4-3.6c-0.1-0.4,0-0.8,0.4-0.9l0.2-0.1
				c1.1-0.5,1.8-1.7,1.8-3c0-0.3,0-0.6,0-1c0.1-1.3-0.5-2.5-1.6-3.1L96,73.6c-0.3-0.2-0.5-0.6-0.3-1l1.6-3.5
				c0.2-0.4,0.6-0.5,0.9-0.4l0.2,0.1c1.1,0.4,2.5,0,3.3-0.8c0.2-0.2,0.5-0.4,0.7-0.7c1-0.9,1.4-2.1,1-3.3l-0.1-0.2
				c-0.1-0.4,0.1-0.8,0.5-0.9l3.6-1.4c0.4-0.1,0.8,0,0.9,0.4l0.1,0.2c0.5,1.1,1.7,1.8,3,1.8c0.4,0,0.7,0,1,0
				c1.3,0.1,2.5-0.5,3.1-1.6l0.1-0.2c0.2-0.3,0.6-0.5,1-0.3l3.5,1.6c0.4,0.2,0.5,0.6,0.4,0.9l-0.1,0.2c-0.4,1.2-0.1,2.4,0.8,3.3
				c0.2,0.2,0.4,0.5,0.7,0.7c0.8,1,2.1,1.4,3.3,1l0.2-0.1c0.4-0.1,0.8,0.1,0.9,0.5l1.4,3.6c0.1,0.4,0,0.8-0.4,0.9l-0.2,0.1
				c-1.1,0.5-1.8,1.7-1.8,3c0,0.3,0,0.6,0,1c-0.1,1.3,0.5,2.5,1.6,3.1l0.2,0.1c0.3,0.2,0.5,0.6,0.3,1l-1.6,3.5
				c-0.2,0.4-0.6,0.5-0.9,0.4l-0.2-0.1c-1.1-0.4-2.5,0-3.3,0.8c-0.2,0.2-0.5,0.4-0.7,0.7c-1,0.9-1.4,2.1-1.1,3.3l0.1,0.2
				c0.1,0.4-0.1,0.8-0.5,0.9l-3.6,1.4C115.5,93.9,115.4,93.9,115.4,93.9z M111.5,90c1.8,0,3.3,0.8,4.2,2.2l2.3-0.9
				c-0.3-1.6,0.3-3.3,1.6-4.4c0.2-0.2,0.4-0.4,0.6-0.6c1.2-1.2,2.9-1.7,4.5-1.3l1-2.3c-1.3-0.9-2.1-2.5-2-4.2c0-0.3,0-0.6,0-0.8
				c0-1.7,0.8-3.3,2.2-4.1l-0.9-2.3c-1.6,0.3-3.3-0.3-4.4-1.6c-0.2-0.2-0.4-0.4-0.6-0.6c-1.2-1.2-1.7-2.9-1.3-4.5l-2.3-1
				c-0.9,1.3-2.5,2.1-4.2,2c-0.3,0-0.5,0-0.8,0c-1.8,0-3.3-0.8-4.2-2.2l-2.3,0.9c0.3,1.6-0.3,3.3-1.6,4.4c-0.2,0.2-0.4,0.4-0.6,0.6
				c-1.2,1.2-2.9,1.7-4.5,1.3l-1,2.3c1.3,0.9,2.1,2.5,2,4.2c0,0.3,0,0.6,0,0.8c0,1.7-0.8,3.3-2.2,4.1l0.9,2.3
				c1.6-0.3,3.3,0.3,4.4,1.6c0.2,0.2,0.4,0.4,0.6,0.6c1.2,1.2,1.7,2.9,1.3,4.5l2.3,1c0.9-1.3,2.5-2.1,4.2-2
				C111,90,111.3,90,111.5,90L111.5,90z"/>
		</g>
		<g>
			<path fill="#231F20" d="M111.4,88.3c-0.4,0-0.7,0-1.1-0.1l0.2-1.5c0.3,0,0.6,0.1,0.9,0.1L111.4,88.3z M113.6,88.1l-0.3-1.5
				c0.3-0.1,0.6-0.1,0.9-0.2l0.4,1.4C114.3,88,113.9,88.1,113.6,88.1z M108.3,87.8c-0.3-0.1-0.7-0.2-1-0.4l0.6-1.4
				c0.3,0.1,0.6,0.2,0.9,0.3L108.3,87.8z M116.6,87l-0.7-1.3c0.3-0.1,0.5-0.3,0.8-0.5l0.8,1.2C117.2,86.7,116.9,86.9,116.6,87z
				 M105.4,86.4c-0.3-0.2-0.6-0.4-0.8-0.7l1-1.1c0.2,0.2,0.5,0.4,0.7,0.6L105.4,86.4z M119.2,85.1l-1.1-1c0.2-0.2,0.4-0.5,0.6-0.7
				l1.2,0.9C119.6,84.6,119.4,84.8,119.2,85.1z M103.1,84.1c-0.2-0.3-0.4-0.6-0.6-0.9l1.3-0.8c0.2,0.3,0.3,0.5,0.5,0.8L103.1,84.1z
				 M121,82.5l-1.3-0.7c0.1-0.1,0.1-0.3,0.2-0.4c0.1-0.2,0.1-0.3,0.2-0.5l1.4,0.5c-0.1,0.2-0.1,0.4-0.2,0.5
				C121.2,82.2,121.1,82.3,121,82.5z M101.5,81.3c-0.1-0.3-0.2-0.7-0.3-1l1.5-0.4c0.1,0.3,0.2,0.6,0.3,0.9L101.5,81.3z M122,79.4
				l-1.5-0.2c0.1-0.3,0.1-0.6,0.1-0.9l1.5,0.1C122.1,78.7,122.1,79.1,122,79.4z M100.9,78.2c0-0.2,0-0.3,0-0.5c0-0.2,0-0.4,0-0.6
				l1.5,0.1c0,0.2,0,0.3,0,0.5c0,0.1,0,0.3,0,0.4L100.9,78.2z M120.6,76.4c0-0.3-0.1-0.6-0.2-0.9l1.5-0.4c0.1,0.3,0.2,0.7,0.2,1.1
				L120.6,76.4z M102.7,75.3l-1.5-0.4c0.1-0.3,0.2-0.7,0.3-1l1.4,0.5C102.9,74.8,102.8,75.1,102.7,75.3z M119.8,73.8
				c-0.1-0.3-0.3-0.6-0.4-0.8l1.3-0.8c0.2,0.3,0.4,0.6,0.5,0.9L119.8,73.8z M103.8,72.8l-1.3-0.8c0.2-0.3,0.4-0.6,0.6-0.9l1.2,0.9
				C104.1,72.3,103.9,72.6,103.8,72.8z M118.2,71.5c-0.2-0.2-0.4-0.4-0.7-0.6l1-1.1c0.3,0.2,0.5,0.5,0.8,0.8L118.2,71.5z
				 M105.6,70.7l-1-1.1c0.3-0.2,0.6-0.5,0.9-0.7l0.9,1.2C106.1,70.3,105.8,70.5,105.6,70.7z M116.1,69.8c-0.3-0.2-0.5-0.3-0.8-0.4
				l0.6-1.4c0.3,0.1,0.6,0.3,1,0.5L116.1,69.8z M107.9,69.3l-0.6-1.4c0.3-0.1,0.7-0.3,1-0.4l0.5,1.4C108.5,69,108.2,69.1,107.9,69.3
				z M114.3,69c-0.3-0.1-0.6-0.2-0.9-0.2l0.3-1.5c0.3,0.1,0.7,0.2,1,0.3L114.3,69z M110.6,68.6l-0.2-1.5c0.4,0,0.7-0.1,1.1-0.1
				l0,1.5C111.2,68.5,110.9,68.6,110.6,68.6z"/>
		</g>
		<g>
			<circle fill="#E6E9EE" cx="111.5" cy="77.7" r="7.9"/>
		</g>
		<g>
			<circle fill="#FFFFFF" cx="111.5" cy="77.7" r="3.9"/>
			<path fill="#231F20" d="M111.5,82.4c-0.7,0-1.3-0.1-1.9-0.4c-1.1-0.5-2-1.4-2.5-2.6c-0.4-1.2-0.4-2.4,0.1-3.6
				c0.8-1.7,2.4-2.8,4.3-2.8c0.7,0,1.3,0.1,1.9,0.4c1.1,0.5,2,1.4,2.5,2.6c0.4,1.2,0.4,2.4-0.1,3.6C115,81.3,113.4,82.4,111.5,82.4z
				 M111.5,74.5c-1.3,0-2.4,0.7-2.9,1.9c-0.3,0.8-0.4,1.6-0.1,2.4c0.3,0.8,0.9,1.4,1.7,1.8c0.4,0.2,0.8,0.3,1.3,0.3
				c1.3,0,2.4-0.7,2.9-1.9c0.3-0.8,0.4-1.6,0.1-2.4c-0.3-0.8-0.9-1.4-1.7-1.8C112.4,74.6,112,74.5,111.5,74.5z"/>
		</g>
		<g>
			<circle fill="#FFD05B" cx="17.2" cy="42.5" r="11.8"/>
		</g>
		<g>
			<path fill="#FFFFFF" d="M9.9,45.2c1.1,3,3.9,5.1,7.3,5.1c3.3,0,6.2-2.1,7.3-5.1H9.9z"/>
			<path fill="#231F20" d="M17.2,51.1c-3.5,0-6.7-2.2-8-5.6c-0.1-0.2-0.1-0.5,0.1-0.7c0.1-0.2,0.4-0.3,0.6-0.3h14.6
				c0.2,0,0.5,0.1,0.6,0.3c0.1,0.2,0.2,0.5,0.1,0.7C24,48.8,20.7,51.1,17.2,51.1z M11.1,46c1.2,2.2,3.6,3.6,6.1,3.6s4.9-1.4,6.1-3.6
				H11.1z"/>
		</g>
		<g>
			<circle fill="#FFFFFF" cx="21.8" cy="39.6" r="1.8"/>
			<path fill="#231F20" d="M21.8,42.1c-1.4,0-2.6-1.1-2.6-2.6s1.1-2.6,2.6-2.6c1.4,0,2.6,1.1,2.6,2.6S23.2,42.1,21.8,42.1z
				 M21.8,38.5c-0.6,0-1.1,0.5-1.1,1.1s0.5,1.1,1.1,1.1c0.6,0,1.1-0.5,1.1-1.1S22.4,38.5,21.8,38.5z"/>
		</g>
		<g>
			<circle fill="#FFFFFF" cx="12.6" cy="39.6" r="1.8"/>
			<path fill="#231F20" d="M12.6,42.1c-1.4,0-2.6-1.1-2.6-2.6s1.1-2.6,2.6-2.6c1.4,0,2.6,1.1,2.6,2.6S14,42.1,12.6,42.1z M12.6,38.5
				c-0.6,0-1.1,0.5-1.1,1.1s0.5,1.1,1.1,1.1c0.6,0,1.1-0.5,1.1-1.1S13.2,38.5,12.6,38.5z"/>
		</g>
		<g>
			<path fill="#FFFFFF" d="M48.4,22.2c0.9-2.4,1.1-5.1,0.5-7.9C47.2,6.9,39.9,2.3,32.4,3.9C25,5.6,20.3,13,22,20.5
				c1.7,7.4,9.1,12.1,16.5,10.4c2.7-0.6,5.1-2,6.9-3.9l6.6,0.8L48.4,22.2z"/>
			<path fill="#231F20" d="M35.4,32c-6.8,0-12.7-4.7-14.2-11.4c-0.9-3.8-0.2-7.7,1.9-11c2.1-3.3,5.3-5.6,9.1-6.4
				c1.1-0.2,2.1-0.4,3.2-0.4c6.8,0,12.7,4.7,14.2,11.4c0.6,2.6,0.4,5.4-0.4,7.9l3.4,5.3c0.2,0.2,0.2,0.6,0,0.8
				c-0.2,0.2-0.4,0.4-0.7,0.3l-6.2-0.8c-1.9,1.9-4.3,3.2-7,3.8C37.6,31.9,36.5,32,35.4,32z M35.5,4.4c-1,0-1.9,0.1-2.9,0.3
				c-3.4,0.8-6.3,2.8-8.2,5.8c-1.9,3-2.5,6.4-1.7,9.9c1.3,5.9,6.7,10.2,12.7,10.2c1,0,1.9-0.1,2.9-0.3c2.5-0.6,4.7-1.8,6.5-3.6
				c0.2-0.2,0.4-0.3,0.6-0.2l5,0.6l-2.7-4.3c-0.1-0.2-0.2-0.4-0.1-0.7c0.9-2.4,1.1-4.9,0.5-7.4C46.9,8.6,41.5,4.4,35.5,4.4z"/>
		</g>
		<g>
			<g>
				<line fill="#FFFFFF" x1="28.5" y1="12.9" x2="42.6" y2="12.9"/>
				<rect x="28.5" y="12.1" fill="#231F20" width="14" height="1.5"/>
			</g>
			<g>
				<line fill="#FFFFFF" x1="28.5" y1="16.8" x2="42.6" y2="16.8"/>
				<rect x="28.5" y="16.1" fill="#231F20" width="14" height="1.5"/>
			</g>
			<g>
				<line fill="#FFFFFF" x1="28.5" y1="20.7" x2="37.4" y2="20.7"/>
				<rect x="28.5" y="20" fill="#231F20" width="8.9" height="1.5"/>
			</g>
		</g>
	</g>
</g>
</svg>
