<?xml version="1.0" encoding="UTF-8"?>
<svg xmlns="http://www.w3.org/2000/svg" xmlns:xlink="http://www.w3.org/1999/xlink" width="82px" height="82px" viewBox="0 0 82 82" version="1.1">
<g id="surface1">
<path style=" stroke:none;fill-rule:nonzero;fill:rgb(100%,100%,100%);fill-opacity:1;" d="M 76.933594 1.644531 L 74.71875 0.632812 L 74.65625 0.761719 C 74.148438 1.582031 73.261719 2.089844 72.25 2.027344 C 72.058594 2.027344 71.867188 2.027344 71.679688 2.027344 C 70.730469 2.027344 69.777344 1.519531 69.335938 0.632812 L 69.273438 0.507812 L 66.992188 1.394531 L 67.054688 1.519531 C 67.308594 2.46875 66.992188 3.417969 66.234375 4.117188 C 66.105469 4.242188 65.980469 4.367188 65.789062 4.496094 C 65.09375 5.191406 64.082031 5.445312 63.195312 5.128906 L 63.128906 5.066406 L 62.117188 7.28125 L 62.242188 7.34375 C 63.066406 7.851562 63.574219 8.738281 63.511719 9.75 C 63.511719 9.941406 63.511719 10.132812 63.511719 10.320312 C 63.511719 11.269531 63.003906 12.222656 62.117188 12.664062 L 61.925781 12.664062 L 62.8125 14.945312 L 62.941406 14.878906 C 63.890625 14.628906 64.839844 14.945312 65.535156 15.703125 C 65.664062 15.832031 65.789062 15.957031 65.917969 16.148438 C 66.613281 16.84375 66.867188 17.855469 66.550781 18.742188 L 66.488281 18.871094 L 68.703125 19.882812 L 68.765625 19.757812 C 69.273438 18.933594 70.160156 18.425781 71.171875 18.488281 C 71.363281 18.488281 71.550781 18.488281 71.742188 18.488281 C 72.691406 18.488281 73.640625 18.996094 74.085938 19.882812 L 74.148438 20.007812 L 76.429688 19.121094 L 76.363281 18.996094 C 76.109375 18.046875 76.429688 17.097656 77.1875 16.398438 C 77.3125 16.273438 77.441406 16.148438 77.632812 16.019531 C 78.328125 15.324219 79.339844 15.070312 80.226562 15.386719 L 80.355469 15.449219 L 81.367188 13.234375 L 81.238281 13.171875 C 80.417969 12.664062 79.910156 11.777344 79.972656 10.765625 C 79.972656 10.574219 79.972656 10.382812 79.972656 10.195312 C 79.972656 9.246094 80.480469 8.296875 81.367188 7.851562 L 81.492188 7.789062 L 80.605469 5.507812 L 80.480469 5.570312 C 79.53125 5.824219 78.582031 5.507812 77.882812 4.75 C 77.757812 4.621094 77.632812 4.496094 77.503906 4.304688 C 76.808594 3.609375 76.554688 2.597656 76.871094 1.710938 Z M 76.933594 1.644531 "/>
<path style=" stroke:none;fill-rule:nonzero;fill:rgb(13.72549%,12.156863%,12.54902%);fill-opacity:1;" d="M 74.148438 20.515625 C 73.957031 20.515625 73.832031 20.390625 73.703125 20.261719 L 73.640625 20.136719 C 73.324219 19.4375 72.566406 18.996094 71.742188 18.996094 C 71.488281 18.996094 71.300781 18.996094 71.109375 18.996094 C 70.285156 18.933594 69.527344 19.3125 69.144531 20.007812 L 69.082031 20.136719 C 68.957031 20.324219 68.703125 20.453125 68.449219 20.324219 L 66.234375 19.3125 C 65.980469 19.1875 65.917969 18.933594 65.980469 18.742188 L 66.042969 18.617188 C 66.296875 17.855469 66.105469 17.097656 65.535156 16.527344 C 65.410156 16.398438 65.285156 16.210938 65.09375 16.082031 C 64.585938 15.449219 63.765625 15.195312 63.003906 15.386719 L 62.878906 15.449219 C 62.625 15.511719 62.371094 15.386719 62.308594 15.132812 L 61.421875 12.855469 C 61.359375 12.601562 61.421875 12.347656 61.675781 12.285156 L 61.800781 12.222656 C 62.496094 11.902344 62.941406 11.144531 62.941406 10.320312 C 62.941406 10.132812 62.941406 9.941406 62.941406 9.6875 C 63.003906 8.863281 62.625 8.105469 61.925781 7.726562 L 61.800781 7.660156 C 61.609375 7.535156 61.484375 7.28125 61.609375 7.027344 L 62.6875 4.875 C 62.8125 4.621094 63.066406 4.558594 63.257812 4.621094 L 63.382812 4.6875 C 64.082031 4.9375 64.964844 4.6875 65.472656 4.179688 C 65.601562 4.050781 65.789062 3.925781 65.917969 3.734375 C 66.550781 3.167969 66.804688 2.40625 66.613281 1.644531 L 66.550781 1.519531 C 66.488281 1.265625 66.613281 1.011719 66.867188 0.949219 L 69.144531 0.0625 C 69.398438 0 69.652344 0.0625 69.714844 0.316406 L 69.777344 0.441406 C 70.097656 1.140625 70.855469 1.582031 71.679688 1.582031 C 71.933594 1.582031 72.121094 1.582031 72.3125 1.582031 C 73.136719 1.644531 73.894531 1.265625 74.273438 0.570312 L 74.339844 0.441406 C 74.464844 0.253906 74.71875 0.125 74.972656 0.253906 L 77.1875 1.265625 C 77.441406 1.394531 77.503906 1.644531 77.441406 1.835938 L 77.3125 1.898438 C 77.0625 2.660156 77.25 3.417969 77.820312 3.988281 C 77.949219 4.117188 78.074219 4.304688 78.265625 4.433594 C 78.769531 5.066406 79.59375 5.320312 80.355469 5.128906 L 80.480469 5.066406 C 80.734375 5.003906 80.988281 5.128906 81.050781 5.382812 L 81.9375 7.660156 C 82 7.914062 81.9375 8.167969 81.683594 8.230469 L 81.558594 8.296875 C 80.859375 8.613281 80.417969 9.371094 80.417969 10.195312 C 80.417969 10.382812 80.417969 10.574219 80.417969 10.828125 C 80.355469 11.652344 80.734375 12.410156 81.429688 12.789062 L 81.558594 12.855469 C 81.746094 12.980469 81.875 13.234375 81.746094 13.488281 L 80.734375 15.703125 C 80.605469 15.957031 80.355469 16.019531 80.164062 15.957031 L 80.035156 15.894531 C 79.339844 15.640625 78.453125 15.894531 77.949219 16.398438 C 77.820312 16.527344 77.632812 16.652344 77.503906 16.84375 C 76.871094 17.414062 76.617188 18.171875 76.808594 18.933594 L 76.871094 19.058594 C 76.933594 19.3125 76.808594 19.566406 76.554688 19.628906 L 74.273438 20.515625 C 74.273438 20.515625 74.210938 20.515625 74.148438 20.515625 Z M 71.046875 18.046875 C 71.109375 18.046875 71.171875 18.046875 71.234375 18.046875 C 71.425781 18.046875 71.550781 18.046875 71.742188 18.046875 C 72.882812 18.046875 73.832031 18.554688 74.402344 19.4375 L 75.859375 18.871094 C 75.667969 17.855469 76.046875 16.78125 76.871094 16.082031 C 76.996094 15.957031 77.125 15.832031 77.25 15.703125 C 78.011719 14.945312 79.085938 14.628906 80.101562 14.878906 L 80.734375 13.425781 C 79.910156 12.855469 79.402344 11.839844 79.46875 10.765625 C 79.46875 10.574219 79.46875 10.382812 79.46875 10.257812 C 79.46875 9.179688 79.972656 8.167969 80.859375 7.660156 L 80.289062 6.207031 C 79.277344 6.394531 78.199219 6.015625 77.503906 5.191406 C 77.378906 5.066406 77.25 4.9375 77.125 4.8125 C 76.363281 4.050781 76.046875 2.976562 76.300781 1.964844 L 74.84375 1.328125 C 74.273438 2.152344 73.261719 2.660156 72.183594 2.597656 C 71.996094 2.597656 71.867188 2.597656 71.679688 2.597656 C 70.539062 2.597656 69.589844 2.089844 69.019531 1.203125 L 67.5625 1.773438 C 67.753906 2.785156 67.371094 3.863281 66.550781 4.558594 C 66.421875 4.6875 66.296875 4.8125 66.167969 4.9375 C 65.410156 5.699219 64.332031 6.015625 63.320312 5.761719 L 62.6875 7.21875 C 63.511719 7.789062 64.015625 8.800781 63.953125 9.878906 C 63.953125 10.066406 63.953125 10.257812 63.953125 10.382812 C 63.953125 11.460938 63.445312 12.472656 62.5625 12.980469 L 63.128906 14.4375 C 64.144531 14.246094 65.21875 14.628906 65.917969 15.449219 C 66.042969 15.578125 66.167969 15.703125 66.296875 15.832031 C 67.054688 16.589844 67.371094 17.667969 67.121094 18.679688 L 68.574219 19.3125 C 69.082031 18.488281 70.03125 18.046875 71.046875 18.046875 Z M 71.046875 18.046875 "/>
<path style=" stroke:none;fill-rule:nonzero;fill:rgb(13.72549%,12.156863%,12.54902%);fill-opacity:1;" d="M 71.679688 17.035156 C 71.425781 17.035156 71.234375 17.035156 70.980469 16.96875 L 71.109375 16.019531 C 71.300781 16.019531 71.488281 16.082031 71.679688 16.082031 Z M 73.070312 16.90625 L 72.882812 15.957031 C 73.070312 15.894531 73.261719 15.894531 73.453125 15.832031 L 73.703125 16.714844 C 73.515625 16.78125 73.261719 16.84375 73.070312 16.90625 Z M 69.652344 16.652344 C 69.460938 16.589844 69.210938 16.527344 69.019531 16.398438 L 69.398438 15.511719 C 69.589844 15.578125 69.777344 15.640625 69.96875 15.703125 Z M 74.972656 16.210938 L 74.527344 15.386719 C 74.71875 15.324219 74.84375 15.195312 75.035156 15.070312 L 75.542969 15.832031 C 75.351562 15.957031 75.160156 16.082031 74.972656 16.210938 Z M 67.878906 15.765625 C 67.691406 15.640625 67.5 15.511719 67.308594 15.324219 L 67.941406 14.628906 C 68.070312 14.753906 68.257812 14.878906 68.386719 15.007812 Z M 76.554688 14.945312 L 75.859375 14.308594 C 75.984375 14.183594 76.109375 13.992188 76.238281 13.867188 L 76.996094 14.4375 C 76.871094 14.628906 76.746094 14.816406 76.554688 14.945312 Z M 66.359375 14.375 C 66.234375 14.183594 66.105469 13.992188 65.980469 13.804688 L 66.804688 13.296875 C 66.929688 13.488281 66.992188 13.613281 67.121094 13.804688 Z M 77.757812 13.296875 L 76.933594 12.855469 C 76.996094 12.789062 76.996094 12.664062 77.0625 12.601562 C 77.125 12.472656 77.125 12.410156 77.1875 12.285156 L 78.074219 12.601562 C 78.011719 12.726562 78.011719 12.855469 77.949219 12.917969 C 77.820312 13.105469 77.820312 13.171875 77.757812 13.296875 Z M 65.410156 12.601562 C 65.347656 12.410156 65.285156 12.15625 65.21875 11.96875 L 66.167969 11.714844 C 66.234375 11.902344 66.296875 12.09375 66.359375 12.285156 Z M 78.390625 11.335938 L 77.441406 11.207031 C 77.503906 11.019531 77.503906 10.828125 77.503906 10.636719 L 78.453125 10.699219 C 78.453125 10.890625 78.453125 11.144531 78.390625 11.335938 Z M 65.03125 10.574219 C 65.03125 10.449219 65.03125 10.320312 65.03125 10.257812 C 65.03125 10.132812 65.03125 10.003906 65.03125 9.941406 L 65.980469 10.003906 C 65.980469 10.132812 65.980469 10.195312 65.980469 10.320312 C 65.980469 10.449219 65.980469 10.511719 65.980469 10.636719 Z M 77.503906 9.433594 C 77.503906 9.246094 77.441406 9.054688 77.378906 8.863281 L 78.328125 8.613281 C 78.390625 8.800781 78.453125 9.054688 78.453125 9.308594 Z M 66.105469 8.800781 L 65.15625 8.546875 C 65.21875 8.359375 65.285156 8.105469 65.347656 7.914062 L 66.234375 8.230469 C 66.234375 8.421875 66.167969 8.613281 66.105469 8.800781 Z M 76.996094 7.789062 C 76.933594 7.597656 76.808594 7.410156 76.746094 7.28125 L 77.566406 6.773438 C 77.695312 6.964844 77.820312 7.15625 77.882812 7.34375 Z M 66.804688 7.21875 L 65.980469 6.710938 C 66.105469 6.523438 66.234375 6.332031 66.359375 6.140625 L 67.121094 6.710938 C 67.054688 6.839844 66.929688 7.027344 66.804688 7.21875 Z M 75.984375 6.332031 C 75.859375 6.207031 75.730469 6.078125 75.542969 5.953125 L 76.175781 5.253906 C 76.363281 5.382812 76.492188 5.570312 76.679688 5.761719 Z M 67.941406 5.890625 L 67.308594 5.191406 C 67.5 5.066406 67.691406 4.875 67.816406 4.75 L 68.386719 5.507812 C 68.257812 5.636719 68.132812 5.761719 67.941406 5.890625 Z M 74.65625 5.253906 C 74.464844 5.128906 74.339844 5.066406 74.148438 5.003906 L 74.527344 4.117188 C 74.71875 4.179688 74.972656 4.304688 75.160156 4.433594 Z M 69.460938 4.9375 L 69.082031 4.050781 C 69.273438 3.988281 69.527344 3.863281 69.714844 3.800781 L 70.03125 4.6875 C 69.777344 4.8125 69.589844 4.875 69.460938 4.9375 Z M 73.453125 4.75 C 73.261719 4.6875 73.070312 4.621094 72.882812 4.621094 L 73.070312 3.671875 C 73.261719 3.734375 73.515625 3.800781 73.703125 3.863281 Z M 71.109375 4.496094 L 70.980469 3.546875 C 71.234375 3.546875 71.425781 3.484375 71.679688 3.484375 L 71.679688 4.433594 C 71.488281 4.496094 71.300781 4.496094 71.109375 4.496094 Z M 71.109375 4.496094 "/>
<path style=" stroke:none;fill-rule:nonzero;fill:rgb(100%,43.921569%,34.509804%);fill-opacity:1;" d="M 76.746094 10.257812 C 76.746094 13.019531 74.503906 15.261719 71.742188 15.261719 C 68.980469 15.261719 66.738281 13.019531 66.738281 10.257812 C 66.738281 7.496094 68.980469 5.253906 71.742188 5.253906 C 74.503906 5.253906 76.746094 7.496094 76.746094 10.257812 Z M 76.746094 10.257812 "/>
<path style=" stroke:none;fill-rule:nonzero;fill:rgb(100%,100%,100%);fill-opacity:1;" d="M 74.210938 10.257812 C 74.210938 11.621094 73.105469 12.726562 71.742188 12.726562 C 70.378906 12.726562 69.273438 11.621094 69.273438 10.257812 C 69.273438 8.894531 70.378906 7.789062 71.742188 7.789062 C 73.105469 7.789062 74.210938 8.894531 74.210938 10.257812 Z M 74.210938 10.257812 "/>
<path style=" stroke:none;fill-rule:nonzero;fill:rgb(13.72549%,12.156863%,12.54902%);fill-opacity:1;" d="M 71.742188 13.234375 C 71.300781 13.234375 70.917969 13.171875 70.539062 12.980469 C 69.84375 12.664062 69.273438 12.09375 68.957031 11.335938 C 68.703125 10.574219 68.703125 9.816406 69.019531 9.054688 C 69.527344 7.976562 70.539062 7.28125 71.742188 7.28125 C 72.183594 7.28125 72.566406 7.34375 72.945312 7.535156 C 74.464844 8.230469 75.097656 9.941406 74.464844 11.460938 C 73.957031 12.539062 72.882812 13.234375 71.742188 13.234375 Z M 71.742188 8.230469 C 70.917969 8.230469 70.222656 8.675781 69.90625 9.433594 C 69.714844 9.941406 69.652344 10.449219 69.84375 10.953125 C 70.03125 11.460938 70.414062 11.839844 70.917969 12.09375 C 71.171875 12.222656 71.488281 12.285156 71.742188 12.285156 C 72.566406 12.285156 73.261719 11.839844 73.578125 11.082031 C 74.023438 10.066406 73.578125 8.863281 72.566406 8.421875 C 72.3125 8.296875 71.996094 8.230469 71.742188 8.230469 Z M 71.742188 8.230469 "/>
<path style=" stroke:none;fill-rule:nonzero;fill:rgb(100%,100%,100%);fill-opacity:1;" d="M 22.164062 81.558594 L 22.164062 59.332031 L 17.667969 59.332031 L 17.667969 54.835938 L 0.507812 54.835938 L 0.507812 81.558594 Z M 22.164062 81.558594 "/>
<path style=" stroke:none;fill-rule:nonzero;fill:rgb(100%,100%,100%);fill-opacity:1;" d="M 17.667969 54.835938 L 17.667969 59.332031 L 22.164062 59.332031 Z M 17.667969 54.835938 "/>
<path style=" stroke:none;fill-rule:nonzero;fill:rgb(13.72549%,12.156863%,12.54902%);fill-opacity:1;" d="M 22.480469 59.015625 L 17.984375 54.519531 C 17.917969 54.457031 17.792969 54.390625 17.667969 54.390625 L 0.507812 54.390625 C 0.253906 54.390625 0 54.582031 0 54.898438 L 0 81.621094 C 0 81.875 0.191406 82.125 0.507812 82.125 L 22.164062 82.125 C 22.414062 82.125 22.667969 81.9375 22.667969 81.621094 L 22.667969 59.457031 C 22.667969 59.203125 22.605469 59.078125 22.480469 59.015625 Z M 18.109375 55.976562 L 21.023438 58.886719 L 18.109375 58.886719 Z M 21.71875 81.050781 L 0.949219 81.050781 L 0.949219 55.277344 L 17.160156 55.277344 L 17.160156 59.332031 C 17.160156 59.585938 17.351562 59.835938 17.667969 59.835938 L 21.71875 59.835938 Z M 21.71875 81.050781 "/>
<path style=" stroke:none;fill-rule:nonzero;fill:rgb(13.72549%,12.156863%,12.54902%);fill-opacity:1;" d="M 5.445312 64.902344 L 17.160156 64.902344 L 17.160156 65.851562 L 5.445312 65.851562 Z M 5.445312 64.902344 "/>
<path style=" stroke:none;fill-rule:nonzero;fill:rgb(13.72549%,12.156863%,12.54902%);fill-opacity:1;" d="M 5.445312 67.691406 L 17.160156 67.691406 L 17.160156 68.640625 L 5.445312 68.640625 Z M 5.445312 67.691406 "/>
<path style=" stroke:none;fill-rule:nonzero;fill:rgb(13.72549%,12.156863%,12.54902%);fill-opacity:1;" d="M 5.445312 70.476562 L 17.160156 70.476562 L 17.160156 71.425781 L 5.445312 71.425781 Z M 5.445312 70.476562 "/>
<path style=" stroke:none;fill-rule:nonzero;fill:rgb(13.72549%,12.156863%,12.54902%);fill-opacity:1;" d="M 54.773438 6.585938 C 54.644531 6.585938 54.519531 6.523438 54.457031 6.457031 C 54.265625 6.269531 54.265625 5.953125 54.457031 5.761719 L 55.277344 4.9375 C 55.46875 4.75 55.785156 4.75 55.976562 4.9375 C 56.164062 5.128906 56.164062 5.445312 55.976562 5.636719 L 55.152344 6.457031 C 55.027344 6.523438 54.898438 6.585938 54.773438 6.585938 Z M 54.773438 6.585938 "/>
<path style=" stroke:none;fill-rule:nonzero;fill:rgb(13.72549%,12.156863%,12.54902%);fill-opacity:1;" d="M 52.238281 9.117188 C 52.113281 9.117188 51.984375 9.054688 51.921875 8.992188 C 51.734375 8.800781 51.734375 8.484375 51.921875 8.296875 L 52.746094 7.472656 C 52.9375 7.28125 53.253906 7.28125 53.441406 7.472656 C 53.632812 7.660156 53.632812 7.976562 53.441406 8.167969 L 52.554688 8.992188 C 52.492188 9.117188 52.367188 9.117188 52.238281 9.117188 Z M 52.238281 9.117188 "/>
<path style=" stroke:none;fill-rule:nonzero;fill:rgb(13.72549%,12.156863%,12.54902%);fill-opacity:1;" d="M 55.59375 9.117188 C 55.46875 9.117188 55.34375 9.054688 55.277344 8.992188 L 54.457031 8.167969 C 54.265625 7.976562 54.265625 7.660156 54.457031 7.472656 C 54.644531 7.28125 54.960938 7.28125 55.152344 7.472656 L 55.976562 8.296875 C 56.164062 8.484375 56.164062 8.800781 55.976562 8.992188 C 55.847656 9.117188 55.722656 9.117188 55.59375 9.117188 Z M 55.59375 9.117188 "/>
<path style=" stroke:none;fill-rule:nonzero;fill:rgb(13.72549%,12.156863%,12.54902%);fill-opacity:1;" d="M 53.0625 6.585938 C 52.9375 6.585938 52.808594 6.523438 52.746094 6.457031 L 51.921875 5.636719 C 51.734375 5.445312 51.734375 5.128906 51.921875 4.9375 C 52.113281 4.75 52.429688 4.75 52.621094 4.9375 L 53.441406 5.761719 C 53.632812 5.953125 53.632812 6.269531 53.441406 6.457031 C 53.316406 6.523438 53.1875 6.585938 53.0625 6.585938 Z M 53.0625 6.585938 "/>
<path style=" stroke:none;fill-rule:nonzero;fill:rgb(13.72549%,12.156863%,12.54902%);fill-opacity:1;" d="M 9.5 43.945312 C 9.371094 43.945312 9.246094 43.882812 9.179688 43.816406 C 8.992188 43.628906 8.992188 43.3125 9.179688 43.121094 L 10.003906 42.296875 C 10.195312 42.109375 10.511719 42.109375 10.699219 42.296875 C 10.890625 42.488281 10.890625 42.804688 10.699219 42.996094 L 9.878906 43.816406 C 9.75 43.882812 9.625 43.945312 9.5 43.945312 Z M 9.5 43.945312 "/>
<path style=" stroke:none;fill-rule:nonzero;fill:rgb(13.72549%,12.156863%,12.54902%);fill-opacity:1;" d="M 6.964844 46.476562 C 6.839844 46.476562 6.710938 46.414062 6.648438 46.351562 C 6.457031 46.160156 6.457031 45.84375 6.648438 45.652344 L 7.472656 44.832031 C 7.660156 44.640625 7.976562 44.640625 8.167969 44.832031 C 8.359375 45.019531 8.359375 45.335938 8.167969 45.527344 L 7.34375 46.351562 C 7.15625 46.414062 7.027344 46.476562 6.964844 46.476562 Z M 6.964844 46.476562 "/>
<path style=" stroke:none;fill-rule:nonzero;fill:rgb(13.72549%,12.156863%,12.54902%);fill-opacity:1;" d="M 10.320312 46.476562 C 10.195312 46.476562 10.066406 46.414062 10.003906 46.351562 L 9.179688 45.527344 C 8.992188 45.335938 8.992188 45.019531 9.179688 44.832031 C 9.371094 44.640625 9.6875 44.640625 9.878906 44.832031 L 10.699219 45.652344 C 10.890625 45.84375 10.890625 46.160156 10.699219 46.351562 C 10.574219 46.476562 10.449219 46.476562 10.320312 46.476562 Z M 10.320312 46.476562 "/>
<path style=" stroke:none;fill-rule:nonzero;fill:rgb(13.72549%,12.156863%,12.54902%);fill-opacity:1;" d="M 7.726562 43.945312 C 7.597656 43.945312 7.472656 43.882812 7.410156 43.816406 L 6.585938 42.996094 C 6.394531 42.804688 6.394531 42.488281 6.585938 42.296875 C 6.773438 42.109375 7.09375 42.109375 7.28125 42.296875 L 8.105469 43.121094 C 8.296875 43.3125 8.296875 43.628906 8.105469 43.816406 C 7.976562 43.882812 7.851562 43.945312 7.726562 43.945312 Z M 7.726562 43.945312 "/>
<path style=" stroke:none;fill-rule:nonzero;fill:rgb(13.72549%,12.156863%,12.54902%);fill-opacity:1;" d="M 76.808594 42.679688 C 76.679688 42.679688 76.554688 42.613281 76.492188 42.550781 C 76.300781 42.363281 76.300781 42.042969 76.492188 41.855469 L 77.3125 41.03125 C 77.503906 40.839844 77.820312 40.839844 78.011719 41.03125 C 78.199219 41.222656 78.199219 41.539062 78.011719 41.726562 L 77.1875 42.550781 C 76.996094 42.613281 76.871094 42.679688 76.808594 42.679688 Z M 76.808594 42.679688 "/>
<path style=" stroke:none;fill-rule:nonzero;fill:rgb(13.72549%,12.156863%,12.54902%);fill-opacity:1;" d="M 74.210938 45.210938 C 74.085938 45.210938 73.957031 45.148438 73.894531 45.085938 C 73.703125 44.894531 73.703125 44.578125 73.894531 44.386719 L 74.71875 43.566406 C 74.90625 43.375 75.226562 43.375 75.414062 43.566406 C 75.605469 43.753906 75.605469 44.070312 75.414062 44.261719 L 74.589844 45.085938 C 74.464844 45.148438 74.339844 45.210938 74.210938 45.210938 Z M 74.210938 45.210938 "/>
<path style=" stroke:none;fill-rule:nonzero;fill:rgb(13.72549%,12.156863%,12.54902%);fill-opacity:1;" d="M 77.566406 45.210938 C 77.441406 45.210938 77.3125 45.148438 77.25 45.085938 L 76.429688 44.261719 C 76.238281 44.070312 76.238281 43.753906 76.429688 43.566406 C 76.617188 43.375 76.933594 43.375 77.125 43.566406 L 77.949219 44.386719 C 78.136719 44.578125 78.136719 44.894531 77.949219 45.085938 C 77.820312 45.148438 77.695312 45.210938 77.566406 45.210938 Z M 77.566406 45.210938 "/>
<path style=" stroke:none;fill-rule:nonzero;fill:rgb(13.72549%,12.156863%,12.54902%);fill-opacity:1;" d="M 75.035156 42.679688 C 74.90625 42.679688 74.78125 42.613281 74.71875 42.550781 L 73.894531 41.726562 C 73.703125 41.539062 73.703125 41.222656 73.894531 41.03125 C 74.085938 40.839844 74.402344 40.839844 74.589844 41.03125 L 75.414062 41.855469 C 75.605469 42.042969 75.605469 42.363281 75.414062 42.550781 C 75.289062 42.613281 75.160156 42.679688 75.035156 42.679688 Z M 75.035156 42.679688 "/>
<path style=" stroke:none;fill-rule:nonzero;fill:rgb(13.72549%,12.156863%,12.54902%);fill-opacity:1;" d="M 32.738281 5.636719 L 27.609375 5.636719 C 27.355469 5.636719 27.101562 5.445312 27.101562 5.128906 C 27.101562 4.875 27.292969 4.621094 27.609375 4.621094 L 32.738281 4.621094 C 32.988281 4.621094 33.242188 4.8125 33.242188 5.128906 C 33.242188 5.445312 32.988281 5.636719 32.738281 5.636719 Z M 32.738281 5.636719 "/>
<path style=" stroke:none;fill-rule:nonzero;fill:rgb(13.72549%,12.156863%,12.54902%);fill-opacity:1;" d="M 34.761719 7.535156 L 32.230469 7.535156 C 31.976562 7.535156 31.722656 7.34375 31.722656 7.027344 C 31.722656 6.773438 31.914062 6.523438 32.230469 6.523438 L 34.761719 6.523438 C 35.015625 6.523438 35.269531 6.710938 35.269531 7.027344 C 35.207031 7.28125 35.015625 7.535156 34.761719 7.535156 Z M 34.761719 7.535156 "/>
<path style=" stroke:none;fill-rule:nonzero;fill:rgb(13.72549%,12.156863%,12.54902%);fill-opacity:1;" d="M 37.484375 5.636719 L 35.078125 5.636719 C 34.828125 5.636719 34.574219 5.445312 34.574219 5.128906 C 34.574219 4.875 34.761719 4.621094 35.078125 4.621094 L 37.484375 4.621094 C 37.738281 4.621094 37.992188 4.8125 37.992188 5.128906 C 37.929688 5.445312 37.738281 5.636719 37.484375 5.636719 Z M 37.484375 5.636719 "/>
<path style=" stroke:none;fill-rule:nonzero;fill:rgb(13.72549%,12.156863%,12.54902%);fill-opacity:1;" d="M 30.457031 7.535156 L 29.949219 7.535156 C 29.699219 7.535156 29.445312 7.34375 29.445312 7.027344 C 29.445312 6.773438 29.632812 6.523438 29.949219 6.523438 L 30.457031 6.523438 C 30.710938 6.523438 30.964844 6.710938 30.964844 7.027344 C 30.898438 7.28125 30.710938 7.535156 30.457031 7.535156 Z M 30.457031 7.535156 "/>
<path style=" stroke:none;fill-rule:nonzero;fill:rgb(13.72549%,12.156863%,12.54902%);fill-opacity:1;" d="M 45.589844 74.402344 C 44.199219 74.402344 43.058594 73.261719 43.058594 71.867188 C 43.058594 70.476562 44.199219 69.335938 45.589844 69.335938 C 46.984375 69.335938 48.125 70.476562 48.125 71.867188 C 48.1875 73.261719 46.984375 74.402344 45.589844 74.402344 Z M 45.589844 70.222656 C 44.703125 70.222656 44.007812 70.917969 44.007812 71.804688 C 44.007812 72.691406 44.703125 73.386719 45.589844 73.386719 C 46.476562 73.386719 47.171875 72.691406 47.171875 71.804688 C 47.238281 70.980469 46.476562 70.222656 45.589844 70.222656 Z M 45.589844 70.222656 "/>
<path style=" stroke:none;fill-rule:nonzero;fill:rgb(100%,100%,100%);fill-opacity:1;" d="M 67.878906 41.160156 L 67.878906 37.867188 L 64.648438 37.042969 C 64.523438 35.839844 64.269531 34.699219 63.953125 33.558594 L 66.613281 31.535156 L 65.347656 28.496094 L 62.054688 29 C 61.484375 27.988281 60.789062 26.972656 60.089844 26.089844 L 61.800781 23.175781 L 59.457031 20.832031 L 56.546875 22.542969 C 55.59375 21.78125 54.644531 21.148438 53.632812 20.578125 L 54.074219 17.285156 L 51.035156 16.019531 L 49.011719 18.679688 C 47.871094 18.363281 46.730469 18.109375 45.527344 17.984375 L 44.703125 14.753906 L 41.410156 14.753906 L 40.523438 17.917969 C 39.320312 18.046875 38.183594 18.300781 37.042969 18.617188 L 35.015625 15.957031 L 31.976562 17.222656 L 32.421875 20.515625 C 31.40625 21.085938 30.394531 21.78125 29.507812 22.480469 L 26.59375 20.769531 L 24.25 23.113281 L 25.960938 26.023438 C 25.203125 26.972656 24.566406 27.925781 24 28.9375 L 20.707031 28.496094 L 19.4375 31.535156 L 22.164062 33.558594 C 21.84375 34.699219 21.59375 35.839844 21.464844 37.042969 L 18.234375 37.867188 L 18.234375 41.160156 L 21.464844 41.980469 C 21.59375 43.183594 21.84375 44.324219 22.164062 45.464844 L 19.4375 47.492188 L 20.707031 50.53125 L 24 50.085938 C 24.566406 51.101562 25.265625 52.113281 25.960938 53 L 24.25 55.910156 L 26.59375 58.253906 L 29.507812 56.546875 C 30.457031 57.304688 31.40625 57.9375 32.421875 58.507812 L 31.976562 61.800781 L 35.015625 63.066406 L 37.042969 60.40625 C 38.183594 60.722656 39.320312 60.976562 40.523438 61.105469 L 41.347656 64.332031 L 44.640625 64.332031 L 45.464844 61.105469 C 46.667969 60.976562 47.808594 60.722656 48.945312 60.40625 L 50.972656 63.066406 L 54.011719 61.800781 L 53.570312 58.507812 C 54.582031 57.9375 55.59375 57.242188 56.480469 56.546875 L 59.394531 58.253906 L 61.738281 55.910156 L 60.027344 53 C 60.789062 52.050781 61.421875 51.101562 61.992188 50.085938 L 65.285156 50.53125 L 66.550781 47.492188 L 63.890625 45.464844 C 64.207031 44.324219 64.460938 43.183594 64.585938 41.980469 Z M 67.878906 41.160156 "/>
<path style=" stroke:none;fill-rule:nonzero;fill:rgb(100%,100%,100%);fill-opacity:1;" d="M 60.535156 39.511719 C 60.535156 49.164062 52.710938 56.988281 43.058594 56.988281 C 33.40625 56.988281 25.582031 49.164062 25.582031 39.511719 C 25.582031 29.859375 33.40625 22.035156 43.058594 22.035156 C 52.710938 22.035156 60.535156 29.859375 60.535156 39.511719 Z M 60.535156 39.511719 "/>
<path style=" stroke:none;fill-rule:nonzero;fill:rgb(13.72549%,12.156863%,12.54902%);fill-opacity:1;" d="M 43.5 54.203125 L 43.5 53.253906 C 43.691406 53.253906 43.882812 53.253906 44.132812 53.1875 L 44.199219 54.140625 C 43.945312 54.203125 43.753906 54.203125 43.5 54.203125 Z M 42.234375 54.203125 C 42.042969 54.203125 41.792969 54.203125 41.601562 54.140625 L 41.726562 53.1875 C 41.917969 53.1875 42.109375 53.253906 42.363281 53.253906 Z M 45.464844 54.011719 L 45.335938 53.0625 C 45.527344 53 45.71875 53 45.90625 52.9375 L 46.097656 53.886719 C 45.90625 53.949219 45.652344 54.011719 45.464844 54.011719 Z M 40.273438 53.949219 C 40.082031 53.886719 39.828125 53.886719 39.636719 53.824219 L 39.828125 52.871094 C 40.019531 52.9375 40.207031 52.9375 40.398438 53 Z M 47.363281 53.570312 L 47.109375 52.683594 C 47.300781 52.621094 47.492188 52.554688 47.679688 52.492188 L 47.996094 53.378906 C 47.808594 53.441406 47.554688 53.503906 47.363281 53.570312 Z M 38.371094 53.441406 C 38.183594 53.378906 37.929688 53.316406 37.738281 53.1875 L 38.054688 52.300781 C 38.246094 52.367188 38.433594 52.429688 38.625 52.492188 Z M 49.199219 52.871094 L 48.820312 51.984375 C 49.011719 51.921875 49.199219 51.796875 49.390625 51.734375 L 49.832031 52.554688 C 49.578125 52.683594 49.390625 52.808594 49.199219 52.871094 Z M 36.535156 52.746094 C 36.347656 52.621094 36.15625 52.554688 35.964844 52.429688 L 36.410156 51.605469 C 36.597656 51.734375 36.789062 51.796875 36.980469 51.859375 Z M 50.910156 51.921875 L 50.402344 51.101562 C 50.59375 50.972656 50.71875 50.847656 50.910156 50.78125 L 51.480469 51.542969 C 51.289062 51.667969 51.101562 51.796875 50.910156 51.921875 Z M 34.828125 51.734375 C 34.636719 51.605469 34.445312 51.480469 34.320312 51.351562 L 34.890625 50.59375 C 35.078125 50.71875 35.207031 50.847656 35.394531 50.972656 Z M 52.492188 50.78125 L 51.921875 50.023438 C 52.050781 49.898438 52.238281 49.769531 52.367188 49.644531 L 53 50.339844 C 52.808594 50.464844 52.683594 50.59375 52.492188 50.78125 Z M 33.304688 50.53125 C 33.117188 50.402344 32.988281 50.214844 32.800781 50.085938 L 33.433594 49.390625 C 33.558594 49.515625 33.75 49.644531 33.875 49.832031 Z M 53.949219 49.390625 L 53.1875 48.757812 C 53.316406 48.628906 53.441406 48.441406 53.570312 48.3125 L 54.328125 48.945312 C 54.203125 49.074219 54.074219 49.261719 53.949219 49.390625 Z M 31.914062 49.136719 C 31.785156 48.945312 31.660156 48.820312 31.46875 48.628906 L 32.230469 48.058594 C 32.355469 48.25 32.484375 48.375 32.609375 48.503906 Z M 55.152344 47.871094 L 54.390625 47.300781 C 54.519531 47.109375 54.644531 46.984375 54.707031 46.792969 L 55.53125 47.300781 C 55.40625 47.492188 55.277344 47.679688 55.152344 47.871094 Z M 30.773438 47.554688 C 30.648438 47.363281 30.519531 47.171875 30.457031 46.984375 L 31.28125 46.476562 C 31.40625 46.667969 31.46875 46.855469 31.597656 46.984375 Z M 56.164062 46.160156 L 55.34375 45.71875 C 55.40625 45.527344 55.53125 45.335938 55.59375 45.148438 L 56.480469 45.527344 C 56.355469 45.78125 56.230469 45.96875 56.164062 46.160156 Z M 29.761719 45.84375 C 29.699219 45.652344 29.570312 45.464844 29.507812 45.273438 L 30.394531 44.894531 C 30.457031 45.085938 30.582031 45.273438 30.648438 45.464844 Z M 56.925781 44.386719 L 56.039062 44.070312 C 56.101562 43.882812 56.164062 43.691406 56.230469 43.5 L 57.113281 43.753906 C 57.050781 43.945312 56.988281 44.199219 56.925781 44.386719 Z M 29.0625 44.070312 C 29 43.882812 28.9375 43.628906 28.875 43.4375 L 29.761719 43.183594 C 29.824219 43.375 29.886719 43.566406 29.949219 43.753906 Z M 57.433594 42.488281 L 56.480469 42.296875 C 56.546875 42.109375 56.546875 41.917969 56.609375 41.664062 L 57.558594 41.792969 C 57.496094 42.042969 57.496094 42.296875 57.433594 42.488281 Z M 28.558594 42.171875 C 28.496094 41.980469 28.496094 41.726562 28.429688 41.539062 L 29.378906 41.410156 C 29.378906 41.601562 29.445312 41.792969 29.445312 42.042969 Z M 57.683594 40.523438 L 56.734375 40.460938 C 56.734375 40.273438 56.734375 40.082031 56.734375 39.828125 L 57.683594 39.828125 C 57.683594 40.082031 57.683594 40.335938 57.683594 40.523438 Z M 28.367188 40.207031 C 28.367188 40.019531 28.367188 39.765625 28.367188 39.574219 L 29.316406 39.511719 L 29.316406 39.574219 C 29.316406 39.765625 29.316406 39.957031 29.316406 40.144531 Z M 56.734375 38.625 C 56.734375 38.433594 56.734375 38.246094 56.671875 37.992188 L 57.621094 37.867188 C 57.621094 38.054688 57.683594 38.308594 57.683594 38.5 Z M 29.378906 38.246094 L 28.429688 38.183594 C 28.429688 37.992188 28.496094 37.738281 28.496094 37.550781 L 29.445312 37.675781 C 29.378906 37.867188 29.378906 38.054688 29.378906 38.246094 Z M 56.480469 36.851562 C 56.417969 36.664062 56.417969 36.472656 56.355469 36.28125 L 57.304688 36.03125 C 57.367188 36.21875 57.433594 36.472656 57.433594 36.664062 Z M 29.632812 36.472656 L 28.683594 36.28125 C 28.746094 36.09375 28.8125 35.839844 28.875 35.648438 L 29.761719 35.902344 C 29.761719 36.03125 29.699219 36.28125 29.632812 36.472656 Z M 56.039062 35.078125 C 55.976562 34.890625 55.910156 34.699219 55.847656 34.507812 L 56.734375 34.128906 C 56.796875 34.320312 56.863281 34.507812 56.988281 34.761719 Z M 30.203125 34.699219 L 29.316406 34.382812 C 29.378906 34.191406 29.507812 34.003906 29.570312 33.75 L 30.457031 34.128906 C 30.332031 34.320312 30.265625 34.507812 30.203125 34.699219 Z M 55.34375 33.371094 C 55.277344 33.179688 55.152344 32.988281 55.027344 32.800781 L 55.847656 32.355469 C 55.976562 32.546875 56.039062 32.738281 56.164062 32.925781 Z M 30.964844 33.054688 L 30.140625 32.609375 C 30.265625 32.421875 30.332031 32.230469 30.457031 32.039062 L 31.28125 32.546875 C 31.152344 32.671875 31.027344 32.863281 30.964844 33.054688 Z M 54.390625 31.785156 C 54.265625 31.597656 54.140625 31.46875 54.011719 31.28125 L 54.773438 30.710938 C 54.898438 30.898438 55.027344 31.089844 55.152344 31.21875 Z M 31.914062 31.46875 L 31.152344 30.898438 C 31.28125 30.710938 31.40625 30.582031 31.535156 30.394531 L 32.292969 30.964844 C 32.167969 31.152344 32.039062 31.34375 31.914062 31.46875 Z M 53.253906 30.332031 C 53.125 30.203125 53 30.015625 52.808594 29.886719 L 53.503906 29.191406 C 53.632812 29.316406 53.824219 29.507812 53.949219 29.699219 Z M 33.117188 30.078125 L 32.421875 29.445312 C 32.546875 29.316406 32.738281 29.128906 32.863281 29 L 33.496094 29.699219 C 33.371094 29.761719 33.242188 29.949219 33.117188 30.078125 Z M 51.921875 29.0625 C 51.796875 28.9375 51.605469 28.8125 51.417969 28.683594 L 51.984375 27.925781 C 52.175781 28.050781 52.300781 28.175781 52.492188 28.367188 Z M 34.445312 28.8125 L 33.875 28.050781 C 34.066406 27.925781 34.191406 27.796875 34.382812 27.671875 L 34.953125 28.429688 C 34.761719 28.558594 34.574219 28.683594 34.445312 28.8125 Z M 50.464844 27.988281 C 50.277344 27.859375 50.148438 27.796875 49.960938 27.671875 L 50.464844 26.847656 C 50.65625 26.972656 50.847656 27.101562 51.035156 27.164062 Z M 35.964844 27.796875 L 35.460938 26.972656 C 35.648438 26.847656 35.839844 26.722656 36.03125 26.65625 L 36.472656 27.480469 C 36.28125 27.542969 36.09375 27.671875 35.964844 27.796875 Z M 48.820312 27.101562 C 48.628906 27.039062 48.441406 26.910156 48.25 26.847656 L 48.628906 25.960938 C 48.820312 26.023438 49.011719 26.152344 49.199219 26.214844 Z M 37.550781 26.910156 L 37.167969 26.023438 C 37.359375 25.960938 37.550781 25.835938 37.800781 25.769531 L 38.117188 26.65625 C 37.929688 26.785156 37.738281 26.847656 37.550781 26.910156 Z M 47.109375 26.40625 C 46.921875 26.339844 46.730469 26.277344 46.539062 26.214844 L 46.792969 25.265625 C 46.984375 25.328125 47.238281 25.390625 47.425781 25.453125 Z M 39.320312 26.339844 L 39.070312 25.453125 C 39.257812 25.390625 39.511719 25.328125 39.703125 25.265625 L 39.890625 26.214844 C 39.703125 26.214844 39.511719 26.277344 39.320312 26.339844 Z M 45.335938 26.023438 C 45.148438 25.960938 44.957031 25.960938 44.703125 25.960938 L 44.832031 25.011719 C 45.019531 25.011719 45.273438 25.074219 45.464844 25.136719 Z M 41.09375 25.960938 L 40.96875 25.011719 C 41.160156 25.011719 41.410156 24.949219 41.601562 24.949219 L 41.664062 25.898438 C 41.476562 25.898438 41.285156 25.898438 41.09375 25.960938 Z M 43.566406 25.835938 C 43.375 25.835938 43.246094 25.835938 43.058594 25.835938 L 42.929688 25.835938 L 42.929688 24.886719 L 43.058594 24.886719 C 43.246094 24.886719 43.4375 24.886719 43.566406 24.886719 Z M 43.566406 25.835938 "/>
<path style=" stroke:none;fill-rule:nonzero;fill:rgb(90.196078%,91.372549%,93.333333%);fill-opacity:1;" d="M 55.34375 39.511719 C 55.34375 46.296875 49.84375 51.796875 43.058594 51.796875 C 36.273438 51.796875 30.773438 46.296875 30.773438 39.511719 C 30.773438 32.726562 36.273438 27.226562 43.058594 27.226562 C 49.84375 27.226562 55.34375 32.726562 55.34375 39.511719 Z M 55.34375 39.511719 "/>
<path style=" stroke:none;fill-rule:nonzero;fill:rgb(13.72549%,12.156863%,12.54902%);fill-opacity:1;" d="M 38.011719 29.898438 L 38.644531 30.992188 L 37.824219 31.46875 L 37.191406 30.371094 Z M 38.011719 29.898438 "/>
<path style=" stroke:none;fill-rule:nonzero;fill:rgb(13.72549%,12.156863%,12.54902%);fill-opacity:1;" d="M 48.234375 47.589844 L 48.867188 48.6875 L 48.046875 49.164062 L 47.410156 48.066406 Z M 48.234375 47.589844 "/>
<path style=" stroke:none;fill-rule:nonzero;fill:rgb(13.72549%,12.156863%,12.54902%);fill-opacity:1;" d="M 33.824219 33.667969 L 34.917969 34.300781 L 34.445312 35.121094 L 33.347656 34.488281 Z M 33.824219 33.667969 "/>
<path style=" stroke:none;fill-rule:nonzero;fill:rgb(13.72549%,12.156863%,12.54902%);fill-opacity:1;" d="M 51.601562 43.949219 L 52.699219 44.585938 L 52.222656 45.40625 L 51.125 44.773438 Z M 51.601562 43.949219 "/>
<path style=" stroke:none;fill-rule:nonzero;fill:rgb(13.72549%,12.156863%,12.54902%);fill-opacity:1;" d="M 32.167969 39.070312 L 33.433594 39.070312 L 33.433594 40.019531 L 32.167969 40.019531 Z M 32.167969 39.070312 "/>
<path style=" stroke:none;fill-rule:nonzero;fill:rgb(13.72549%,12.156863%,12.54902%);fill-opacity:1;" d="M 52.621094 39.070312 L 53.886719 39.070312 L 53.886719 40.019531 L 52.621094 40.019531 Z M 52.621094 39.070312 "/>
<path style=" stroke:none;fill-rule:nonzero;fill:rgb(13.72549%,12.156863%,12.54902%);fill-opacity:1;" d="M 34.492188 43.917969 L 34.96875 44.738281 L 33.871094 45.371094 L 33.394531 44.550781 Z M 34.492188 43.917969 "/>
<path style=" stroke:none;fill-rule:nonzero;fill:rgb(13.72549%,12.156863%,12.54902%);fill-opacity:1;" d="M 52.242188 33.660156 L 52.714844 34.484375 L 51.621094 35.117188 L 51.144531 34.292969 Z M 52.242188 33.660156 "/>
<path style=" stroke:none;fill-rule:nonzero;fill:rgb(13.72549%,12.156863%,12.54902%);fill-opacity:1;" d="M 37.820312 47.585938 L 38.640625 48.0625 L 38.007812 49.15625 L 37.1875 48.683594 Z M 37.820312 47.585938 "/>
<path style=" stroke:none;fill-rule:nonzero;fill:rgb(13.72549%,12.156863%,12.54902%);fill-opacity:1;" d="M 48.074219 29.859375 L 48.894531 30.335938 L 48.261719 31.433594 L 47.441406 30.957031 Z M 48.074219 29.859375 "/>
<path style=" stroke:none;fill-rule:nonzero;fill:rgb(13.72549%,12.156863%,12.54902%);fill-opacity:1;" d="M 48.1875 40.019531 L 42.550781 40.019531 L 42.550781 32.738281 L 43.5 32.738281 L 43.5 39.070312 L 48.1875 39.070312 Z M 48.1875 40.019531 "/>
<path style=" stroke:none;fill-rule:nonzero;fill:rgb(13.72549%,12.156863%,12.54902%);fill-opacity:1;" d="M 42.550781 28.621094 L 43.5 28.621094 L 43.5 29.886719 L 42.550781 29.886719 Z M 42.550781 28.621094 "/>
<path style=" stroke:none;fill-rule:nonzero;fill:rgb(13.72549%,12.156863%,12.54902%);fill-opacity:1;" d="M 42.550781 49.136719 L 43.5 49.136719 L 43.5 50.402344 L 42.550781 50.402344 Z M 42.550781 49.136719 "/>
<path style=" stroke:none;fill-rule:nonzero;fill:rgb(100%,100%,100%);fill-opacity:1;" d="M 57.621094 50.402344 L 58.316406 50.402344 L 58.316406 50.847656 L 57.621094 50.847656 Z M 57.621094 50.402344 "/>
<path style=" stroke:none;fill-rule:nonzero;fill:rgb(13.72549%,12.156863%,12.54902%);fill-opacity:1;" d="M 58.316406 50.910156 L 57.621094 50.910156 C 57.558594 50.910156 57.558594 50.847656 57.558594 50.847656 L 57.558594 50.402344 C 57.558594 50.339844 57.621094 50.339844 57.621094 50.339844 L 58.316406 50.339844 C 58.382812 50.339844 58.382812 50.402344 58.382812 50.402344 L 58.382812 50.847656 C 58.445312 50.910156 58.382812 50.910156 58.316406 50.910156 Z M 57.75 50.78125 L 58.253906 50.78125 L 58.253906 50.464844 L 57.75 50.464844 Z M 57.75 50.78125 "/>
<path style=" stroke:none;fill-rule:nonzero;fill:rgb(51.764706%,85.882353%,100%);fill-opacity:1;" d="M 72.691406 81.558594 L 72.691406 76.046875 L 55.214844 76.046875 L 55.214844 81.558594 "/>
<path style=" stroke:none;fill-rule:nonzero;fill:rgb(100%,100%,100%);fill-opacity:1;" d="M 69.96875 50.085938 C 68.765625 49.960938 67.753906 50.910156 67.753906 52.050781 L 67.753906 51.542969 C 67.753906 50.464844 66.992188 49.578125 65.917969 49.453125 C 64.714844 49.328125 63.699219 50.277344 63.699219 51.417969 L 63.699219 50.277344 C 63.699219 49.074219 62.6875 48.1875 61.484375 48.3125 C 60.472656 48.441406 59.648438 49.328125 59.648438 50.402344 L 59.648438 43.246094 C 59.648438 42.109375 58.632812 41.160156 57.433594 41.285156 C 56.417969 41.410156 55.59375 42.296875 55.59375 43.375 L 55.59375 55.089844 C 55.59375 53.949219 54.582031 53 53.378906 53.125 C 52.367188 53.253906 51.542969 54.140625 51.542969 55.214844 L 51.542969 61.230469 C 51.542969 64.082031 52.871094 66.738281 55.089844 68.511719 C 56.671875 69.777344 57.621094 71.679688 57.621094 73.703125 L 57.621094 76.238281 L 69.90625 76.238281 L 69.90625 73.386719 C 69.90625 72.375 69.96875 71.425781 70.160156 70.476562 L 71.363281 66.488281 C 71.550781 65.535156 71.617188 64.523438 71.617188 63.574219 L 71.617188 52.175781 C 71.742188 51.101562 70.980469 50.148438 69.96875 50.085938 Z M 69.96875 50.085938 "/>
<path style=" stroke:none;fill-rule:nonzero;fill:rgb(13.72549%,12.156863%,12.54902%);fill-opacity:1;" d="M 72.691406 75.605469 L 70.476562 75.605469 L 70.476562 73.199219 C 70.476562 72.25 70.539062 71.300781 70.730469 70.414062 L 71.933594 66.359375 C 72.121094 65.347656 72.183594 64.332031 72.183594 63.320312 L 72.183594 52.175781 C 72.183594 50.847656 71.171875 49.769531 69.96875 49.644531 C 69.144531 49.578125 68.449219 49.898438 67.941406 50.402344 C 67.625 49.769531 67.121094 49.328125 66.488281 49.136719 L 67.054688 47.742188 C 67.121094 47.554688 67.054688 47.300781 66.929688 47.171875 L 64.523438 45.335938 C 64.777344 44.386719 64.964844 43.375 65.09375 42.425781 L 68.007812 41.664062 C 68.195312 41.601562 68.386719 41.410156 68.386719 41.222656 L 68.386719 37.929688 C 68.386719 37.738281 68.257812 37.550781 68.007812 37.484375 L 65.09375 36.726562 C 64.964844 35.777344 64.777344 34.761719 64.523438 33.8125 L 66.929688 31.976562 C 67.121094 31.851562 67.183594 31.597656 67.054688 31.40625 L 65.789062 28.367188 C 65.726562 28.175781 65.472656 28.050781 65.285156 28.050781 L 62.308594 28.496094 C 61.800781 27.671875 61.292969 26.847656 60.660156 26.023438 L 62.179688 23.429688 C 62.308594 23.238281 62.242188 22.984375 62.117188 22.859375 L 59.773438 20.515625 C 59.648438 20.390625 59.394531 20.324219 59.203125 20.453125 L 56.609375 21.972656 C 55.847656 21.339844 55.027344 20.832031 54.140625 20.324219 L 54.582031 17.351562 C 54.582031 17.160156 54.519531 16.90625 54.265625 16.84375 L 51.226562 15.578125 C 51.035156 15.511719 50.78125 15.578125 50.65625 15.703125 L 48.820312 18.109375 C 47.871094 17.855469 46.855469 17.667969 45.90625 17.539062 L 45.148438 14.5625 C 45.085938 14.375 44.894531 14.183594 44.703125 14.183594 L 41.410156 14.183594 C 41.222656 14.183594 41.03125 14.308594 40.96875 14.5625 L 40.207031 17.476562 C 39.257812 17.601562 38.246094 17.792969 37.296875 18.046875 L 35.460938 15.703125 C 35.332031 15.511719 35.078125 15.449219 34.890625 15.578125 L 31.851562 16.84375 C 31.660156 16.90625 31.535156 17.160156 31.535156 17.351562 L 31.976562 20.324219 C 31.152344 20.832031 30.265625 21.402344 29.507812 21.972656 L 26.910156 20.453125 C 26.722656 20.324219 26.46875 20.390625 26.339844 20.515625 L 24 22.796875 C 23.871094 22.921875 23.808594 23.175781 23.933594 23.367188 L 25.453125 25.960938 C 24.820312 26.722656 24.316406 27.609375 23.808594 28.429688 L 20.832031 27.988281 C 20.640625 27.988281 20.390625 28.050781 20.324219 28.304688 L 19.058594 31.34375 C 18.996094 31.535156 19.058594 31.785156 19.1875 31.914062 L 21.59375 33.75 C 21.339844 34.699219 21.148438 35.710938 21.023438 36.664062 L 18.109375 37.421875 C 17.917969 37.484375 17.730469 37.675781 17.730469 37.867188 L 17.730469 41.160156 C 17.730469 41.347656 17.855469 41.539062 18.109375 41.601562 L 21.023438 42.363281 C 21.148438 43.3125 21.339844 44.324219 21.59375 45.273438 L 19.1875 47.109375 C 18.996094 47.238281 18.933594 47.492188 18.996094 47.679688 L 20.261719 50.71875 C 20.324219 50.910156 20.578125 51.035156 20.769531 51.035156 L 23.746094 50.59375 C 24.25 51.417969 24.820312 52.300781 25.390625 53.0625 L 23.871094 55.722656 C 23.746094 55.910156 23.808594 56.164062 23.933594 56.292969 L 26.277344 58.632812 C 26.40625 58.761719 26.65625 58.824219 26.847656 58.699219 L 29.445312 57.179688 C 30.203125 57.8125 31.027344 58.316406 31.914062 58.824219 L 31.46875 61.800781 C 31.46875 61.992188 31.535156 62.242188 31.785156 62.308594 L 34.828125 63.574219 C 35.015625 63.636719 35.269531 63.574219 35.394531 63.445312 L 37.234375 61.039062 C 38.183594 61.292969 39.195312 61.484375 40.144531 61.609375 L 40.90625 64.523438 C 40.96875 64.714844 41.160156 64.902344 41.347656 64.902344 L 44.640625 64.902344 C 44.832031 64.902344 45.019531 64.777344 45.085938 64.523438 L 45.84375 61.609375 C 46.792969 61.484375 47.808594 61.292969 48.757812 61.039062 L 50.59375 63.445312 C 50.71875 63.636719 50.972656 63.699219 51.164062 63.574219 L 51.480469 63.445312 C 51.984375 65.535156 53.1875 67.4375 54.898438 68.765625 C 56.355469 69.90625 57.242188 71.679688 57.242188 73.578125 L 57.242188 75.605469 L 55.152344 75.605469 C 54.898438 75.605469 54.644531 75.792969 54.644531 76.109375 L 54.644531 81.558594 L 55.59375 81.558594 L 55.59375 76.554688 L 72.183594 76.554688 L 72.183594 81.558594 L 73.136719 81.558594 L 73.136719 76.109375 C 73.199219 75.792969 73.007812 75.605469 72.691406 75.605469 Z M 51.164062 62.5625 L 49.390625 60.15625 C 49.261719 60.027344 49.074219 59.902344 48.882812 59.964844 C 47.742188 60.28125 46.605469 60.535156 45.464844 60.660156 C 45.273438 60.660156 45.085938 60.851562 45.085938 61.039062 L 44.324219 63.953125 L 41.726562 63.953125 L 40.96875 61.039062 C 40.90625 60.851562 40.777344 60.722656 40.589844 60.660156 C 39.449219 60.535156 38.308594 60.28125 37.167969 59.964844 C 36.980469 59.902344 36.789062 59.964844 36.664062 60.15625 L 34.890625 62.5625 L 32.546875 61.546875 L 32.988281 58.570312 C 32.988281 58.382812 32.925781 58.191406 32.738281 58.066406 C 31.722656 57.496094 30.773438 56.863281 29.886719 56.164062 C 29.761719 56.039062 29.507812 56.039062 29.378906 56.101562 L 26.785156 57.621094 L 24.949219 55.785156 L 26.46875 53.1875 C 26.59375 53 26.53125 52.808594 26.40625 52.683594 C 25.707031 51.796875 25.011719 50.78125 24.503906 49.832031 C 24.378906 49.644531 24.25 49.578125 24 49.578125 L 21.023438 50.023438 L 20.007812 47.679688 L 22.414062 45.90625 C 22.542969 45.78125 22.667969 45.589844 22.605469 45.402344 C 22.289062 44.261719 22.035156 43.121094 21.910156 41.980469 C 21.910156 41.792969 21.71875 41.601562 21.527344 41.601562 L 18.617188 40.839844 L 18.617188 38.246094 L 21.527344 37.484375 C 21.71875 37.421875 21.84375 37.296875 21.910156 37.105469 C 22.035156 35.964844 22.289062 34.828125 22.605469 33.6875 C 22.667969 33.496094 22.605469 33.304688 22.414062 33.179688 L 20.007812 31.40625 L 21.023438 29.0625 L 24 29.507812 C 24.1875 29.507812 24.378906 29.445312 24.503906 29.253906 C 25.074219 28.242188 25.707031 27.292969 26.40625 26.40625 C 26.53125 26.277344 26.53125 26.023438 26.46875 25.898438 L 24.949219 23.300781 L 26.785156 21.464844 L 29.378906 22.984375 C 29.570312 23.113281 29.761719 23.046875 29.886719 22.921875 C 30.773438 22.226562 31.785156 21.527344 32.738281 21.023438 C 32.925781 20.894531 32.988281 20.707031 32.988281 20.515625 L 32.546875 17.539062 L 34.890625 16.527344 L 36.664062 18.933594 C 36.789062 19.058594 36.980469 19.1875 37.167969 19.121094 C 38.308594 18.804688 39.449219 18.554688 40.589844 18.425781 C 40.777344 18.425781 40.96875 18.234375 40.96875 18.046875 L 41.726562 15.132812 L 44.324219 15.132812 L 45.085938 18.046875 C 45.148438 18.234375 45.273438 18.363281 45.464844 18.425781 C 46.605469 18.554688 47.742188 18.804688 48.882812 19.121094 C 49.074219 19.1875 49.261719 19.121094 49.390625 18.933594 L 51.164062 16.527344 L 53.503906 17.539062 L 53.0625 20.515625 C 53.0625 20.707031 53.125 20.894531 53.316406 21.023438 C 54.328125 21.59375 55.277344 22.226562 56.164062 22.921875 C 56.292969 23.046875 56.546875 23.046875 56.671875 22.984375 L 59.269531 21.464844 L 61.105469 23.300781 L 59.585938 25.898438 C 59.457031 26.089844 59.519531 26.277344 59.648438 26.40625 C 60.34375 27.292969 61.039062 28.304688 61.546875 29.253906 C 61.675781 29.445312 61.800781 29.507812 62.054688 29.507812 L 65.03125 29.0625 L 66.042969 31.40625 L 63.636719 33.179688 C 63.511719 33.304688 63.382812 33.496094 63.445312 33.6875 C 63.765625 34.828125 64.015625 35.964844 64.144531 37.105469 C 64.144531 37.296875 64.332031 37.484375 64.523438 37.484375 L 67.4375 38.246094 L 67.4375 40.839844 L 64.523438 41.601562 C 64.332031 41.664062 64.207031 41.792969 64.144531 41.980469 C 64.015625 43.121094 63.765625 44.261719 63.445312 45.402344 C 63.382812 45.589844 63.445312 45.78125 63.636719 45.90625 L 66.042969 47.679688 L 65.472656 49.011719 C 64.964844 49.074219 64.460938 49.261719 64.082031 49.578125 C 63.765625 48.503906 62.6875 47.679688 61.484375 47.808594 C 60.976562 47.871094 60.535156 48.058594 60.21875 48.3125 L 60.21875 44.640625 C 60.722656 42.996094 60.976562 41.285156 60.976562 39.511719 C 60.976562 29.632812 52.9375 21.59375 43.058594 21.59375 C 33.179688 21.59375 25.136719 29.632812 25.136719 39.511719 C 25.136719 49.390625 33.179688 57.433594 43.058594 57.433594 C 46.035156 57.433594 48.820312 56.671875 51.289062 55.40625 L 51.289062 61.039062 C 51.289062 61.484375 51.351562 61.992188 51.417969 62.433594 Z M 55.214844 43.3125 L 55.214844 51.289062 C 54.773438 51.734375 54.328125 52.113281 53.886719 52.492188 C 53.757812 52.492188 53.570312 52.492188 53.441406 52.492188 C 52.429688 52.554688 51.605469 53.316406 51.351562 54.265625 C 48.882812 55.660156 46.035156 56.480469 42.996094 56.480469 C 33.625 56.480469 26.023438 48.882812 26.023438 39.511719 C 26.023438 30.140625 33.625 22.542969 42.996094 22.542969 C 52.367188 22.542969 59.964844 30.140625 59.964844 39.511719 C 59.964844 40.335938 59.902344 41.160156 59.773438 41.917969 C 59.332031 41.160156 58.445312 40.589844 57.433594 40.714844 C 56.230469 40.839844 55.214844 41.980469 55.214844 43.3125 Z M 55.214844 52.621094 L 55.214844 53.0625 C 55.152344 53 55.027344 52.9375 54.960938 52.871094 C 55.089844 52.808594 55.152344 52.683594 55.214844 52.621094 Z M 69.589844 73.199219 L 69.589844 75.605469 L 58.253906 75.605469 L 58.253906 73.578125 C 58.253906 71.425781 57.304688 69.398438 55.59375 68.007812 C 53.441406 66.296875 52.238281 63.828125 52.238281 61.105469 L 52.238281 55.089844 C 52.238281 54.265625 52.871094 53.570312 53.632812 53.503906 C 54.519531 53.441406 55.34375 54.140625 55.34375 55.027344 C 55.34375 55.277344 55.53125 55.53125 55.847656 55.53125 C 56.101562 55.53125 56.355469 55.34375 56.355469 55.027344 L 56.355469 43.3125 C 56.355469 42.488281 56.988281 41.792969 57.75 41.726562 C 58.632812 41.664062 59.457031 42.363281 59.457031 43.246094 L 59.457031 54.960938 C 59.457031 55.214844 59.648438 55.46875 59.964844 55.46875 C 60.28125 55.46875 60.472656 55.277344 60.472656 54.960938 L 60.472656 50.402344 C 60.472656 49.578125 61.105469 48.882812 61.863281 48.820312 C 62.75 48.757812 63.574219 49.453125 63.574219 50.339844 L 63.574219 55.089844 C 63.574219 55.34375 63.765625 55.59375 64.082031 55.59375 C 64.332031 55.59375 64.585938 55.40625 64.585938 55.089844 L 64.585938 51.480469 C 64.585938 50.59375 65.347656 49.898438 66.296875 49.960938 C 67.054688 50.023438 67.691406 50.71875 67.691406 51.542969 L 67.691406 55.089844 C 67.691406 55.34375 67.878906 55.59375 68.195312 55.59375 C 68.449219 55.59375 68.703125 55.40625 68.703125 55.089844 L 68.703125 52.050781 C 68.703125 51.164062 69.460938 50.464844 70.414062 50.53125 C 71.171875 50.59375 71.804688 51.289062 71.804688 52.113281 L 71.804688 63.320312 C 71.804688 64.269531 71.742188 65.21875 71.550781 66.105469 L 70.347656 70.160156 C 69.652344 71.171875 69.589844 72.183594 69.589844 73.199219 Z M 69.589844 73.199219 "/>
<path style=" stroke:none;fill-rule:nonzero;fill:rgb(100%,81.568627%,35.686275%);fill-opacity:1;" d="M 6.140625 24.1875 L 14.121094 24.1875 C 14.4375 21.339844 15.511719 18.679688 17.414062 16.527344 C 18.933594 14.816406 19.820312 12.601562 19.820312 10.195312 C 19.820312 4.496094 14.878906 -0.0625 9.054688 0.570312 C 4.621094 1.011719 1.078125 4.558594 0.570312 8.992188 C 0.253906 11.902344 1.203125 14.5625 2.914062 16.527344 C 4.75 18.617188 5.824219 21.339844 6.140625 24.1875 Z M 6.140625 24.1875 "/>
<path style=" stroke:none;fill-rule:nonzero;fill:rgb(100%,100%,100%);fill-opacity:1;" d="M 5.320312 24.1875 L 15.007812 24.1875 L 15.007812 29.378906 L 5.320312 29.378906 Z M 5.320312 24.1875 "/>
<path style=" stroke:none;fill-rule:nonzero;fill:rgb(100%,100%,100%);fill-opacity:1;" d="M 7.976562 29.378906 L 12.347656 29.378906 L 12.347656 31.152344 L 7.976562 31.152344 Z M 7.976562 29.378906 "/>
<path style=" stroke:none;fill-rule:nonzero;fill:rgb(100%,100%,100%);fill-opacity:1;" d="M 9.179688 16.90625 L 8.613281 24.1875 L 11.652344 24.1875 L 11.082031 16.90625 Z M 9.179688 16.90625 "/>
<path style=" stroke:none;fill-rule:nonzero;fill:rgb(100%,100%,100%);fill-opacity:1;" d="M 14.5625 7.535156 L 11.019531 16.90625 "/>
<path style=" stroke:none;fill-rule:nonzero;fill:rgb(100%,100%,100%);fill-opacity:1;" d="M 9.308594 16.90625 L 5.761719 7.535156 "/>
<path style=" stroke:none;fill-rule:nonzero;fill:rgb(13.72549%,12.156863%,12.54902%);fill-opacity:1;" d="M 16.398438 26.339844 L 16.398438 25.390625 L 15.449219 25.390625 L 15.449219 24.125 C 15.449219 23.871094 15.261719 23.617188 14.945312 23.617188 L 12.03125 23.617188 L 11.460938 16.78125 C 11.460938 16.78125 11.460938 16.714844 11.460938 16.714844 L 14.878906 7.660156 L 13.992188 7.34375 L 13.675781 8.230469 L 11.585938 8.230469 C 11.460938 8.230469 11.335938 8.296875 11.269531 8.359375 L 10.382812 9.246094 L 10.382812 6.964844 C 10.382812 6.773438 10.257812 6.585938 10.066406 6.523438 C 9.878906 6.457031 9.6875 6.457031 9.5625 6.648438 L 7.976562 8.230469 L 6.457031 8.230469 L 6.140625 7.410156 L 5.253906 7.726562 L 8.675781 16.78125 C 8.675781 16.78125 8.675781 16.84375 8.675781 16.84375 L 8.105469 23.683594 L 5.320312 23.683594 C 5.066406 23.683594 4.8125 23.871094 4.8125 24.1875 L 4.8125 25.453125 L 3.863281 25.453125 L 3.863281 26.40625 L 4.8125 26.40625 L 4.8125 27.164062 L 3.863281 27.164062 L 3.863281 28.113281 L 4.8125 28.113281 L 4.8125 29.378906 C 4.8125 29.632812 5.003906 29.886719 5.320312 29.886719 L 7.535156 29.886719 L 7.535156 31.21875 C 7.535156 31.46875 7.726562 31.722656 8.042969 31.722656 L 12.410156 31.722656 C 12.664062 31.722656 12.917969 31.535156 12.917969 31.21875 L 12.917969 29.886719 L 15.132812 29.886719 C 15.386719 29.886719 15.640625 29.699219 15.640625 29.378906 L 15.640625 28.113281 L 16.589844 28.113281 L 16.589844 27.164062 L 15.640625 27.164062 L 15.640625 26.40625 L 16.398438 26.40625 Z M 6.839844 9.179688 L 8.230469 9.179688 C 8.359375 9.179688 8.484375 9.117188 8.546875 9.054688 L 9.5 8.105469 L 9.5 10.449219 C 9.5 10.636719 9.625 10.828125 9.816406 10.890625 C 9.878906 10.890625 9.941406 10.953125 10.003906 10.953125 C 10.132812 10.953125 10.257812 10.890625 10.320312 10.828125 L 11.902344 9.246094 L 13.488281 9.246094 L 10.765625 16.398438 L 9.6875 16.398438 Z M 11.144531 23.683594 L 9.117188 23.683594 L 9.625 17.351562 L 10.636719 17.351562 Z M 11.839844 30.648438 L 8.421875 30.648438 L 8.421875 29.824219 L 11.839844 29.824219 Z M 14.5 28.875 L 5.761719 28.875 L 5.761719 28.113281 L 14.5 28.113281 Z M 14.5 27.164062 L 5.761719 27.164062 L 5.761719 26.40625 L 14.5 26.40625 Z M 14.5 25.390625 L 5.761719 25.390625 L 5.761719 24.632812 L 14.5 24.632812 Z M 14.5 25.390625 "/>
<path style=" stroke:none;fill-rule:nonzero;fill:rgb(100%,100%,100%);fill-opacity:1;" d="M 35.839844 74.023438 L 16.019531 74.023438 L 16.019531 78.199219 L 35.839844 78.199219 C 36.980469 78.199219 37.929688 77.25 37.929688 76.109375 C 37.929688 74.90625 36.980469 74.023438 35.839844 74.023438 Z M 35.839844 74.023438 "/>
<path style=" stroke:none;fill-rule:nonzero;fill:rgb(100%,100%,100%);fill-opacity:1;" d="M 31.535156 78.136719 L 35.839844 78.136719 C 36.980469 78.136719 37.929688 77.1875 37.929688 76.046875 C 37.929688 74.90625 36.980469 73.957031 35.839844 73.957031 L 31.535156 73.957031 Z M 31.535156 78.136719 "/>
<path style=" stroke:none;fill-rule:nonzero;fill:rgb(100%,100%,100%);fill-opacity:1;" d="M 16.019531 78.136719 L 10.953125 76.046875 L 16.019531 74.023438 Z M 16.019531 78.136719 "/>
<path style=" stroke:none;fill-rule:nonzero;fill:rgb(13.72549%,12.156863%,12.54902%);fill-opacity:1;" d="M 35.839844 73.515625 L 16.019531 73.515625 C 15.957031 73.515625 15.894531 73.515625 15.832031 73.578125 L 10.765625 75.667969 C 10.574219 75.730469 10.449219 75.921875 10.449219 76.109375 C 10.449219 76.300781 10.574219 76.492188 10.765625 76.554688 L 15.832031 78.644531 C 15.894531 78.644531 15.957031 78.707031 16.019531 78.707031 L 35.839844 78.707031 C 37.234375 78.707031 38.371094 77.566406 38.371094 76.175781 C 38.371094 74.78125 37.296875 73.515625 35.839844 73.515625 Z M 15.511719 74.71875 L 15.511719 77.503906 L 12.15625 76.109375 Z M 16.464844 74.464844 L 31.027344 74.464844 L 31.027344 77.695312 L 16.464844 77.695312 Z M 35.839844 77.695312 L 32.039062 77.695312 L 32.039062 74.464844 L 35.839844 74.464844 C 36.726562 74.464844 37.421875 75.160156 37.421875 76.046875 C 37.484375 76.933594 36.726562 77.695312 35.839844 77.695312 Z M 35.839844 77.695312 "/>
<path style=" stroke:none;fill-rule:nonzero;fill:rgb(100%,43.921569%,34.509804%);fill-opacity:1;" d="M 46.222656 6.078125 C 46.222656 6.953125 45.515625 7.660156 44.640625 7.660156 C 43.765625 7.660156 43.058594 6.953125 43.058594 6.078125 C 43.058594 5.203125 43.765625 4.496094 44.640625 4.496094 C 45.515625 4.496094 46.222656 5.203125 46.222656 6.078125 Z M 46.222656 6.078125 "/>
<path style=" stroke:none;fill-rule:nonzero;fill:rgb(90.196078%,91.372549%,93.333333%);fill-opacity:1;" d="M 13.867188 37.738281 C 13.867188 38.613281 13.160156 39.320312 12.285156 39.320312 C 11.410156 39.320312 10.699219 38.613281 10.699219 37.738281 C 10.699219 36.863281 11.410156 36.15625 12.285156 36.15625 C 13.160156 36.15625 13.867188 36.863281 13.867188 37.738281 Z M 13.867188 37.738281 "/>
<path style=" stroke:none;fill-rule:nonzero;fill:rgb(100%,43.921569%,34.509804%);fill-opacity:1;" d="M 38.433594 69.777344 C 38.433594 70.652344 37.726562 71.363281 36.851562 71.363281 C 35.976562 71.363281 35.269531 70.652344 35.269531 69.777344 C 35.269531 68.90625 35.976562 68.195312 36.851562 68.195312 C 37.726562 68.195312 38.433594 68.90625 38.433594 69.777344 Z M 38.433594 69.777344 "/>
<path style=" stroke:none;fill-rule:nonzero;fill:rgb(90.196078%,91.372549%,93.333333%);fill-opacity:1;" d="M 78.390625 51.796875 C 78.390625 52.671875 77.683594 53.378906 76.808594 53.378906 C 75.933594 53.378906 75.226562 52.671875 75.226562 51.796875 C 75.226562 50.921875 75.933594 50.214844 76.808594 50.214844 C 77.683594 50.214844 78.390625 50.921875 78.390625 51.796875 Z M 78.390625 51.796875 "/>
<path style=" stroke:none;fill-rule:nonzero;fill:rgb(100%,81.568627%,35.686275%);fill-opacity:1;" d="M 76.238281 25.960938 C 76.238281 26.835938 75.527344 27.542969 74.65625 27.542969 C 73.78125 27.542969 73.070312 26.835938 73.070312 25.960938 C 73.070312 25.085938 73.78125 24.378906 74.65625 24.378906 C 75.527344 24.378906 76.238281 25.085938 76.238281 25.960938 Z M 76.238281 25.960938 "/>
</g>
</svg>
