<?xml version="1.0" encoding="utf-8"?>
<!-- Generator: Adobe Illustrator 18.0.0, SVG Export Plug-In . SVG Version: 6.00 Build 0)  -->
<!DOCTYPE svg PUBLIC "-//W3C//DTD SVG 1.1//EN" "http://www.w3.org/Graphics/SVG/1.1/DTD/svg11.dtd">
<svg version="1.1" id="Layer_1" xmlns="http://www.w3.org/2000/svg" xmlns:xlink="http://www.w3.org/1999/xlink" x="0px" y="0px"
	 viewBox="0 0 129.5 129.5" enable-background="new 0 0 129.5 129.5" xml:space="preserve">
<g>
	<g>
		<path fill="#231F20" d="M69.1,2.8c-0.2,0-0.4-0.1-0.5-0.2c-0.3-0.3-0.3-0.8,0-1.1l1.3-1.3c0.3-0.3,0.8-0.3,1.1,0
			c0.3,0.3,0.3,0.8,0,1.1l-1.3,1.3C69.4,2.7,69.2,2.8,69.1,2.8z"/>
		<path fill="#231F20" d="M65,6.8c-0.2,0-0.4-0.1-0.5-0.2c-0.3-0.3-0.3-0.8,0-1.1l1.3-1.3c0.3-0.3,0.8-0.3,1.1,0
			c0.3,0.3,0.3,0.8,0,1.1l-1.3,1.3C65.4,6.7,65.2,6.8,65,6.8z"/>
		<path fill="#231F20" d="M70.3,6.8c-0.2,0-0.4-0.1-0.5-0.2l-1.3-1.3c-0.3-0.3-0.3-0.8,0-1.1c0.3-0.3,0.8-0.3,1.1,0l1.3,1.3
			c0.3,0.3,0.3,0.8,0,1.1C70.7,6.7,70.5,6.8,70.3,6.8z"/>
		<path fill="#231F20" d="M66.3,2.8c-0.2,0-0.4-0.1-0.5-0.2l-1.3-1.3c-0.3-0.3-0.3-0.8,0-1.1c0.3-0.3,0.8-0.3,1.1,0l1.3,1.3
			c0.3,0.3,0.3,0.8,0,1.1C66.7,2.7,66.5,2.8,66.3,2.8z"/>
		<path fill="#231F20" d="M83.7,59.9c-0.2,0-0.4-0.1-0.5-0.2c-0.3-0.3-0.3-0.8,0-1.1l1.3-1.3c0.3-0.3,0.8-0.3,1.1,0
			c0.3,0.3,0.3,0.8,0,1.1l-1.3,1.3C84.1,59.9,83.9,59.9,83.7,59.9z"/>
		<path fill="#231F20" d="M79.6,64c-0.2,0-0.4-0.1-0.5-0.2c-0.3-0.3-0.3-0.8,0-1.1l1.3-1.3c0.3-0.3,0.8-0.3,1.1,0
			c0.3,0.3,0.3,0.8,0,1.1l-1.3,1.3C80,63.9,79.8,64,79.6,64z"/>
		<path fill="#231F20" d="M85,64c-0.2,0-0.4-0.1-0.5-0.2l-1.3-1.3c-0.3-0.3-0.3-0.8,0-1.1c0.3-0.3,0.8-0.3,1.1,0l1.3,1.3
			c0.3,0.3,0.3,0.8,0,1.1C85.3,63.9,85.2,64,85,64z"/>
		<path fill="#231F20" d="M80.9,59.9c-0.2,0-0.4-0.1-0.5-0.2l-1.3-1.3c-0.3-0.3-0.3-0.8,0-1.1c0.3-0.3,0.8-0.3,1.1,0l1.3,1.3
			c0.3,0.3,0.3,0.8,0,1.1C81.3,59.9,81.1,59.9,80.9,59.9z"/>
		<path fill="#231F20" d="M121.5,120.9c-0.2,0-0.4-0.1-0.5-0.2c-0.3-0.3-0.3-0.8,0-1.1l1.3-1.3c0.3-0.3,0.8-0.3,1.1,0
			c0.3,0.3,0.3,0.8,0,1.1l-1.3,1.3C121.9,120.9,121.7,120.9,121.5,120.9z"/>
		<path fill="#231F20" d="M117.5,125c-0.2,0-0.4-0.1-0.5-0.2c-0.3-0.3-0.3-0.8,0-1.1l1.3-1.3c0.3-0.3,0.8-0.3,1.1,0
			c0.3,0.3,0.3,0.8,0,1.1l-1.3,1.3C117.9,124.9,117.7,125,117.5,125z"/>
		<path fill="#231F20" d="M122.8,125c-0.2,0-0.4-0.1-0.5-0.2l-1.3-1.3c-0.3-0.3-0.3-0.8,0-1.1c0.3-0.3,0.8-0.3,1.1,0l1.3,1.3
			c0.3,0.3,0.3,0.8,0,1.1C123.2,124.9,123,125,122.8,125z"/>
		<path fill="#231F20" d="M118.8,120.9c-0.2,0-0.4-0.1-0.5-0.2l-1.3-1.3c-0.3-0.3-0.3-0.8,0-1.1c0.3-0.3,0.8-0.3,1.1,0l1.3,1.3
			c0.3,0.3,0.3,0.8,0,1.1C119.2,120.9,119,120.9,118.8,120.9z"/>
		<path fill="#FFFFFF" d="M86.4,121.6H11.2V72.3c0-1.8,1.5-3.3,3.3-3.3h68.7c1.8,0,3.3,1.5,3.3,3.3V121.6z"/>
		<rect x="15.2" y="74.6" fill="#84DBFF" width="67.1" height="41.3"/>
		<path fill="#FFFFFF" d="M95.4,121.6H2.2v0c2.1,4.4,6.6,7.2,11.5,7.2h70.2C88.8,128.8,93.3,126,95.4,121.6L95.4,121.6z"/>
		<line fill="#FFFFFF" x1="11.2" y1="115.9" x2="86.4" y2="115.9"/>
		<polygon fill="#FFFFFF" points="57.5,121.6 40.1,121.6 41.2,125.2 56.4,125.2 		"/>
		
			<rect x="80.4" y="73.6" transform="matrix(-0.7071 -0.7071 0.7071 -0.7071 82.5957 205.0372)" fill="#FFFFFF" width="6.8" height="23.7"/>
		<polygon fill="#FFFFFF" points="73,91.4 69.7,99.4 77.8,96.2 		"/>
		<path fill="#FFFFFF" d="M97.5,71.7L97.5,71.7c1.3,1.3,1.3,3.5,0,4.8l-3,3l-4.8-4.8l3-3C94,70.3,96.2,70.3,97.5,71.7z"/>
		<path fill="#231F20" d="M98,77c1.6-1.6,1.6-4.3,0-5.9c-0.8-0.8-1.8-1.2-2.9-1.2c-1.1,0-2.2,0.4-2.9,1.2l-5,5v-3.9c0-2.2-1.8-4-4-4
			H14.5c-2.2,0-4,1.8-4,4v48.5H2.2c-0.3,0-0.5,0.1-0.6,0.4c-0.1,0.2-0.2,0.5,0,0.7c2.2,4.6,7,7.6,12.2,7.6h70.2
			c5.1,0,9.9-3,12.2-7.6c0.1-0.2,0.1-0.5,0-0.7c-0.1-0.2-0.4-0.4-0.6-0.4h-8.3V87.9L98,77z M93.2,72.2c1-1,2.8-1,3.8,0
			c1,1,1,2.7,0,3.8l-2.4,2.4l-3.8-3.8L93.2,72.2z M12,72.3c0-1.4,1.1-2.5,2.5-2.5h68.7c1.4,0,2.5,1.1,2.5,2.5v5.4L72.4,90.8
			c-0.1,0.1-0.1,0.2-0.2,0.2c0,0,0,0,0,0L69,99.2c-0.1,0.3,0,0.6,0.2,0.8c0.1,0.1,0.3,0.2,0.5,0.2c0.1,0,0.2,0,0.3-0.1l8.1-3.2l0,0
			c0.1,0,0.2-0.1,0.2-0.2l7.3-7.3v25.8H12V72.3z M73.3,92.7l3.2,3.2l-5.4,2.2L73.3,92.7z M12,116.7h73.7v4.1H12V116.7z M56.5,122.3
			l-0.6,2.1H41.7l-0.6-2.1H56.5z M94.1,122.3c-2.2,3.5-6.1,5.7-10.2,5.7H13.7c-4.2,0-8-2.2-10.2-5.7h36l0.9,3.1
			c0.1,0.3,0.4,0.5,0.7,0.5h15.3c0.3,0,0.6-0.2,0.7-0.5l0.9-3.1H94.1z M77.8,95.1L74,91.4l15.7-15.7l3.8,3.8L77.8,95.1z"/>
		<g>
			<g>
				<path fill="#231F20" d="M69.7,106.7h-6.2c-2.4,0-4.4-2-4.4-4.4c0-1-0.8-1.8-1.8-1.8c-1,0-1.8,0.8-1.8,1.8c0,1.4-1.2,2.6-2.6,2.6
					c-1.4,0-2.6-1.2-2.6-2.6c0-0.4,0.3-0.8,0.8-0.8c0.4,0,0.8,0.3,0.8,0.8c0,0.6,0.5,1.1,1.1,1.1c0.6,0,1.1-0.5,1.1-1.1
					c0-1.8,1.5-3.3,3.3-3.3c1.8,0,3.3,1.5,3.3,3.3c0,1.6,1.3,2.9,2.9,2.9h6.2c0.4,0,0.8,0.3,0.8,0.8
					C70.5,106.3,70.1,106.7,69.7,106.7z"/>
			</g>
			<g>
				<path fill="#231F20" d="M73.7,106.7H72c-0.4,0-0.8-0.3-0.8-0.8c0-0.4,0.3-0.8,0.8-0.8h1.6c0.4,0,0.8,0.3,0.8,0.8
					C74.4,106.3,74.1,106.7,73.7,106.7z"/>
			</g>
		</g>
		<g>
			<g>
				<path fill="#231F20" d="M46.6,110.8c-0.2,0-0.4-0.1-0.5-0.2c-0.2-0.1-0.2-0.3-0.2-0.5c0-0.2,0.1-0.4,0.2-0.5
					c0.3-0.3,0.8-0.3,1.1,0c0.1,0.1,0.2,0.3,0.2,0.5c0,0.2-0.1,0.4-0.2,0.5C47,110.7,46.8,110.8,46.6,110.8z"/>
			</g>
			<g>
				<path fill="#231F20" d="M49.2,110.8c-0.2,0-0.4-0.1-0.5-0.2c-0.1-0.1-0.2-0.3-0.2-0.5c0-0.2,0.1-0.4,0.2-0.5
					c0.3-0.3,0.8-0.3,1.1,0c0.1,0.1,0.2,0.3,0.2,0.5c0,0.2-0.1,0.4-0.2,0.5C49.6,110.7,49.4,110.8,49.2,110.8z"/>
			</g>
			<g>
				<path fill="#231F20" d="M51.8,110.8c-0.2,0-0.4-0.1-0.5-0.2c-0.1-0.1-0.2-0.3-0.2-0.5c0-0.2,0.1-0.4,0.2-0.5
					c0.3-0.3,0.8-0.3,1.1,0c0.1,0.1,0.2,0.3,0.2,0.5c0,0.2-0.1,0.4-0.2,0.5C52.2,110.7,52,110.8,51.8,110.8z"/>
			</g>
			<g>
				<path fill="#231F20" d="M54.5,110.8c-0.2,0-0.4-0.1-0.5-0.2c-0.1-0.1-0.2-0.3-0.2-0.5c0-0.2,0.1-0.4,0.2-0.5
					c0.3-0.3,0.8-0.3,1.1,0c0.1,0.1,0.2,0.3,0.2,0.5c0,0.2-0.1,0.4-0.2,0.5C54.9,110.7,54.7,110.8,54.5,110.8z"/>
			</g>
			<g>
				<path fill="#231F20" d="M57.1,110.8c-0.2,0-0.4-0.1-0.5-0.2c-0.1-0.1-0.2-0.3-0.2-0.5c0-0.2,0.1-0.4,0.2-0.5
					c0.3-0.3,0.8-0.3,1.1,0c0.1,0.1,0.2,0.3,0.2,0.5c0,0.2-0.1,0.4-0.2,0.5C57.5,110.7,57.3,110.8,57.1,110.8z"/>
			</g>
			<g>
				<path fill="#231F20" d="M59.8,110.8c-0.2,0-0.4-0.1-0.5-0.2c-0.1-0.1-0.2-0.3-0.2-0.5c0-0.2,0.1-0.4,0.2-0.5
					c0.3-0.3,0.8-0.3,1.1,0c0.1,0.1,0.2,0.3,0.2,0.5c0,0.2-0.1,0.4-0.2,0.5C60.1,110.7,60,110.8,59.8,110.8z"/>
			</g>
			<g>
				<path fill="#231F20" d="M62.4,110.8c-0.2,0-0.4-0.1-0.5-0.2c-0.1-0.1-0.2-0.3-0.2-0.5c0-0.2,0.1-0.4,0.2-0.5
					c0.3-0.3,0.8-0.3,1.1,0c0.1,0.1,0.2,0.3,0.2,0.5c0,0.2-0.1,0.4-0.2,0.5C62.8,110.7,62.6,110.8,62.4,110.8z"/>
			</g>
			<g>
				<path fill="#231F20" d="M65,110.8c-0.2,0-0.4-0.1-0.5-0.2c-0.2-0.1-0.2-0.3-0.2-0.5c0-0.2,0.1-0.4,0.2-0.5
					c0.3-0.3,0.8-0.3,1.1,0c0.1,0.1,0.2,0.3,0.2,0.5c0,0.2-0.1,0.4-0.2,0.5C65.4,110.7,65.2,110.8,65,110.8z"/>
			</g>
			<g>
				<path fill="#231F20" d="M67.7,110.8c-0.2,0-0.4-0.1-0.5-0.2c-0.1-0.1-0.2-0.3-0.2-0.5c0-0.2,0.1-0.4,0.2-0.5
					c0.3-0.3,0.8-0.3,1.1,0c0.1,0.1,0.2,0.3,0.2,0.5c0,0.2-0.1,0.4-0.2,0.5C68.1,110.7,67.9,110.8,67.7,110.8z"/>
			</g>
			<g>
				<path fill="#231F20" d="M70.3,110.8c-0.2,0-0.4-0.1-0.5-0.2c-0.1-0.1-0.2-0.3-0.2-0.5c0-0.2,0.1-0.4,0.2-0.5
					c0.3-0.3,0.8-0.3,1,0c0.2,0.1,0.2,0.3,0.2,0.5c0,0.2-0.1,0.4-0.2,0.5C70.7,110.7,70.5,110.8,70.3,110.8z"/>
			</g>
			<g>
				<path fill="#231F20" d="M72.9,110.8c-0.2,0-0.4-0.1-0.5-0.2c-0.1-0.1-0.2-0.3-0.2-0.5c0-0.2,0.1-0.4,0.2-0.5
					c0.3-0.3,0.8-0.3,1.1,0c0.1,0.1,0.2,0.3,0.2,0.5c0,0.2-0.1,0.4-0.2,0.5C73.3,110.7,73.1,110.8,72.9,110.8z"/>
			</g>
			<g>
				<path fill="#231F20" d="M75.6,110.8c-0.2,0-0.4-0.1-0.5-0.2c-0.1-0.1-0.2-0.3-0.2-0.5c0-0.2,0.1-0.4,0.2-0.5
					c0.3-0.3,0.8-0.3,1.1,0c0.1,0.1,0.2,0.3,0.2,0.5c0,0.2-0.1,0.4-0.2,0.5C76,110.7,75.8,110.8,75.6,110.8z"/>
			</g>
			<g>
				<path fill="#231F20" d="M78.2,110.8c-0.2,0-0.4-0.1-0.5-0.2c-0.1-0.1-0.2-0.3-0.2-0.5c0-0.2,0.1-0.4,0.2-0.5
					c0.3-0.3,0.8-0.3,1.1,0c0.1,0.1,0.2,0.3,0.2,0.5c0,0.2-0.1,0.4-0.2,0.5C78.6,110.7,78.4,110.8,78.2,110.8z"/>
			</g>
		</g>
		<path fill="#231F20" d="M65.3,92.4H50c-0.4,0-0.8-0.3-0.8-0.8s0.3-0.8,0.8-0.8h15.2c0.4,0,0.8,0.3,0.8,0.8S65.7,92.4,65.3,92.4z"
			/>
		<path fill="#231F20" d="M59.7,95.9H50c-0.4,0-0.8-0.3-0.8-0.8c0-0.4,0.3-0.8,0.8-0.8h9.6c0.4,0,0.8,0.3,0.8,0.8
			C60.4,95.6,60.1,95.9,59.7,95.9z"/>
		<polygon fill="#FFFFFF" points="127.3,66 127.3,30.9 120.2,30.9 120.2,23.8 93,23.8 93,66 		"/>
		<polygon fill="#FFFFFF" points="120.2,23.8 120.2,30.9 127.3,30.9 		"/>
		<path fill="#231F20" d="M127.8,30.4l-7.1-7.1c-0.1-0.1-0.3-0.2-0.5-0.2H93c-0.4,0-0.8,0.3-0.8,0.8V66c0,0.4,0.3,0.8,0.8,0.8h34.3
			c0.4,0,0.8-0.3,0.8-0.8v-35C128.1,30.7,128,30.5,127.8,30.4z M120.9,25.6l4.6,4.6h-4.6V25.6z M126.6,65.2H93.8V24.5h25.6v6.4
			c0,0.4,0.3,0.8,0.8,0.8h6.4V65.2z"/>
		<g>
			<g>
				<rect x="98.2" y="38.4" fill="#FFFFFF" width="6.7" height="6.7"/>
				<path fill="#231F20" d="M104.9,45.8h-6.7c-0.4,0-0.8-0.3-0.8-0.8v-6.7c0-0.4,0.3-0.8,0.8-0.8h6.7c0.4,0,0.8,0.3,0.8,0.8v6.7
					C105.6,45.5,105.3,45.8,104.9,45.8z M98.9,44.3h5.2v-5.2h-5.2V44.3z"/>
			</g>
			<g>
				<g>
					<line fill="#FFFFFF" x1="108.4" y1="38.5" x2="122.2" y2="38.5"/>
					<rect x="108.4" y="37.8" fill="#231F20" width="13.7" height="1.5"/>
				</g>
				<g>
					<line fill="#FFFFFF" x1="108.4" y1="41.7" x2="122.2" y2="41.7"/>
					<rect x="108.4" y="41" fill="#231F20" width="13.7" height="1.5"/>
				</g>
				<g>
					<line fill="#FFFFFF" x1="108.4" y1="44.9" x2="116.8" y2="44.9"/>
					<rect x="108.4" y="44.2" fill="#231F20" width="8.3" height="1.5"/>
				</g>
			</g>
		</g>
		<g>
			<g>
				<rect x="98.2" y="49.8" fill="#FFFFFF" width="6.7" height="6.7"/>
				<path fill="#231F20" d="M104.9,57.2h-6.7c-0.4,0-0.8-0.3-0.8-0.7v-6.7c0-0.4,0.3-0.8,0.8-0.8h6.7c0.4,0,0.8,0.3,0.8,0.8v6.7
					C105.6,56.9,105.3,57.2,104.9,57.2z M98.9,55.7h5.2v-5.2h-5.2V55.7z"/>
			</g>
			<g>
				<g>
					<line fill="#FFFFFF" x1="108.4" y1="49.9" x2="122.2" y2="49.9"/>
					<rect x="108.4" y="49.1" fill="#231F20" width="13.7" height="1.5"/>
				</g>
				<g>
					<line fill="#FFFFFF" x1="108.4" y1="53.1" x2="122.2" y2="53.1"/>
					<rect x="108.4" y="52.4" fill="#231F20" width="13.7" height="1.5"/>
				</g>
				<g>
					<line fill="#FFFFFF" x1="108.4" y1="56.3" x2="116.8" y2="56.3"/>
					<rect x="108.4" y="55.6" fill="#231F20" width="8.3" height="1.5"/>
				</g>
			</g>
		</g>
		<rect x="35.4" y="16.3" fill="#FFFFFF" width="52.4" height="35.8"/>
		<rect x="35.4" y="16.3" fill="#FFD05B" width="52.4" height="7.3"/>
		<circle fill="#FFFFFF" cx="82.9" cy="19.9" r="1.2"/>
		<circle fill="#FFFFFF" cx="78.3" cy="19.9" r="1.2"/>
		<circle fill="#FFFFFF" cx="73.7" cy="19.9" r="1.2"/>
		<line fill="#FFFFFF" x1="51.8" y1="36.9" x2="80.6" y2="36.9"/>
		<rect x="51.8" y="36.1" fill="#231F20" width="28.8" height="1.5"/>
		<line fill="#FFFFFF" x1="51.8" y1="40.7" x2="80.6" y2="40.7"/>
		<rect x="51.8" y="40" fill="#231F20" width="28.8" height="1.5"/>
		<line fill="#FFFFFF" x1="51.8" y1="44.5" x2="66.2" y2="44.5"/>
		<rect x="51.8" y="43.8" fill="#231F20" width="14.4" height="1.5"/>
		<path fill="#E6E9EE" d="M29.2,54c0,0-0.1,0-0.1,0c0-0.2,0.1-0.5,0.1-0.8c0-2.8-2.3-5.1-5.1-5.1c-0.7,0-1.4,0.2-2.1,0.4
			c-0.9-2.2-3.1-3.7-5.6-3.7c-2.3,0-4.4,1.3-5.4,3.3c0,0-0.1,0-0.1,0c-2.7,0-4.9,2.2-4.9,4.9c0,0,0,0,0,0.1c-2,0.9-3.4,3-3.4,5.3
			c0,3.2,2.6,5.8,5.8,5.8h20.9c2.8,0,5.2-2.3,5.2-5.2C34.3,56.3,32,54,29.2,54z"/>
		<path fill="#E6E9EE" d="M116.7,9.8C116.7,9.8,116.7,9.8,116.7,9.8c-0.1-0.2,0-0.4,0-0.6c0-2.2-1.8-3.9-3.9-3.9
			c-0.6,0-1.1,0.1-1.6,0.3c-0.7-1.7-2.4-2.8-4.3-2.8c-1.8,0-3.4,1-4.2,2.5c0,0-0.1,0-0.1,0c-2.1,0-3.8,1.7-3.8,3.8c0,0,0,0,0,0
			c-1.6,0.7-2.6,2.3-2.6,4.1c0,2.5,2,4.5,4.5,4.5h16.1c2.2,0,4-1.8,4-4C120.7,11.6,118.9,9.8,116.7,9.8z"/>
		<path fill="#231F20" d="M119.3,88.5c-2.7-2.5-6.3-3.9-10-3.9h0h0l0,0c-3.7,0-7.2,1.4-10,3.9c-3.1,2.8-4.8,6.8-4.8,10.9
			c0,4.1,1.8,8.1,4.8,10.9c2.7,2.5,6.3,3.9,10,3.9l0,0h0h0c3.7,0,7.2-1.4,10-3.9c3.1-2.8,4.8-6.8,4.8-10.9
			C124.2,95.3,122.4,91.3,119.3,88.5z M122.6,98.7h-5.1c-0.1-5-1.6-9.3-3.8-11.8c1.7,0.6,3.3,1.5,4.6,2.7
			C120.9,92,122.4,95.2,122.6,98.7z M108.6,86.3l0,12.4h-5.8C103,92.3,105.5,87,108.6,86.3z M108.6,100.2l0,12.4
			c-3.1-0.8-5.6-6.1-5.8-12.4H108.6z M110.1,112.6l0-12.4h5.8C115.8,106.6,113.2,111.9,110.1,112.6z M110.1,98.7l0-12.4
			c3.1,0.7,5.7,6.1,5.8,12.4H110.1z M100.4,89.6c1.3-1.2,2.9-2.1,4.6-2.7c-2.2,2.5-3.6,6.8-3.8,11.8h-5.1
			C96.3,95.2,97.9,92,100.4,89.6z M96.1,100.2h5.1c0.1,5,1.6,9.3,3.8,11.8c-1.7-0.6-3.3-1.5-4.6-2.7
			C97.9,106.9,96.3,103.6,96.1,100.2z M118.3,109.3c-1.3,1.2-2.9,2.1-4.6,2.7c2.2-2.5,3.6-6.8,3.8-11.8h5.1
			C122.4,103.6,120.9,106.9,118.3,109.3z"/>
		<rect x="5.8" y="4.5" fill="#FFFFFF" width="45.8" height="30.8"/>
		<rect x="5.8" y="29.1" fill="#FFFFFF" width="45.8" height="6.2"/>
		<path fill="#231F20" d="M87.8,15.5H52.4v-11c0-0.4-0.3-0.7-0.8-0.7H5.8C5.4,3.8,5,4.1,5,4.5v30.8v0c0,0.4,0.3,0.8,0.8,0.8h28.9v16
			c0,0.4,0.3,0.8,0.8,0.8h52.4c0.4,0,0.8-0.3,0.8-0.8V16.3C88.5,15.9,88.2,15.5,87.8,15.5z M87,17v5.8H52.4V17H87z M6.5,5.3h44.3
			v23.1H6.5V5.3z M6.5,34.6v-4.7h44.3v4.7H6.5z M36.2,51.4V36.1h15.5c0.4,0,0.8-0.3,0.8-0.8v0v-11H87v27H36.2z"/>
		<polygon fill="#FFFFFF" points="25.5,12.5 25.5,22 33.5,17.2 		"/>
		<path fill="#231F20" d="M25.5,22.7c-0.1,0-0.3,0-0.4-0.1c-0.2-0.1-0.4-0.4-0.4-0.7v-9.5c0-0.3,0.1-0.5,0.4-0.7
			c0.2-0.1,0.5-0.1,0.8,0l7.9,4.7c0.2,0.1,0.4,0.4,0.4,0.6c0,0.3-0.1,0.5-0.4,0.6l-7.9,4.7C25.8,22.7,25.7,22.7,25.5,22.7z
			 M26.3,13.8v6.8l5.7-3.4L26.3,13.8z"/>
	</g>
</g>
</svg>
