<?xml version="1.0" encoding="UTF-8"?>
<svg xmlns="http://www.w3.org/2000/svg" xmlns:xlink="http://www.w3.org/1999/xlink" width="100px" height="100px" viewBox="0 0 100 100" version="1.1">
<g id="surface1">
<path style=" stroke:none;fill-rule:nonzero;fill:rgb(80.784314%,83.529412%,87.843137%);fill-opacity:1;" d="M 57.835938 86.175781 L 41.621094 86.175781 L 42.625 89.5 L 56.832031 89.5 Z M 57.835938 86.175781 "/>
<path style=" stroke:none;fill-rule:nonzero;fill:rgb(80.784314%,83.529412%,87.843137%);fill-opacity:1;" d="M 47.875 9.882812 L 47.875 12.199219 L 58.6875 12.199219 L 61.003906 13.4375 L 64.863281 12.199219 L 64.863281 9.960938 L 61.003906 8.726562 L 58.6875 9.882812 Z M 47.875 9.882812 "/>
<path style=" stroke:none;fill-rule:nonzero;fill:rgb(80.784314%,83.529412%,87.843137%);fill-opacity:1;" d="M 19.613281 41.082031 C 20.464844 41.851562 21.542969 42.316406 22.625 42.625 L 22.703125 44.167969 L 24.402344 44.324219 L 24.710938 42.78125 C 25.867188 42.703125 26.949219 42.316406 27.875 41.699219 L 29.113281 42.78125 L 30.425781 41.699219 L 29.5 40.308594 C 30.191406 39.460938 30.734375 38.457031 30.964844 37.375 L 32.664062 37.296875 L 32.820312 35.597656 L 31.195312 35.210938 C 31.121094 34.054688 30.734375 32.972656 30.191406 32.046875 L 31.273438 30.8125 L 30.191406 29.5 L 28.804688 30.347656 C 27.953125 29.574219 26.949219 29.035156 25.867188 28.804688 L 25.792969 27.179688 L 24.09375 27.027344 L 23.785156 28.570312 C 22.625 28.648438 21.46875 29.035156 20.539062 29.574219 L 19.382812 28.570312 L 18.070312 29.652344 L 18.917969 30.964844 C 18.148438 31.816406 17.605469 32.894531 17.296875 34.054688 L 15.753906 34.132812 L 15.597656 35.832031 L 17.066406 36.140625 C 17.144531 37.296875 17.527344 38.457031 18.148438 39.460938 L 17.144531 40.617188 L 18.222656 41.929688 Z M 20.15625 35.367188 C 20.308594 33.128906 22.316406 31.429688 24.632812 31.582031 C 26.871094 31.738281 28.570312 33.746094 28.417969 36.0625 C 28.261719 38.300781 26.253906 40 23.9375 39.84375 C 21.621094 39.613281 20 37.683594 20.15625 35.367188 Z M 20.15625 35.367188 "/>
<path style=" stroke:none;fill-rule:nonzero;fill:rgb(80.784314%,83.529412%,87.843137%);fill-opacity:1;" d="M 8.878906 47.492188 L 8.339844 48.417969 L 9.1875 49.113281 L 9.960938 48.339844 C 10.578125 48.648438 11.273438 48.878906 12.046875 48.878906 L 12.355469 49.960938 L 13.4375 49.808594 L 13.4375 48.726562 C 14.132812 48.496094 14.828125 48.109375 15.289062 47.644531 L 16.214844 48.183594 L 16.910156 47.335938 L 16.140625 46.5625 C 16.523438 45.945312 16.679688 45.171875 16.757812 44.480469 L 17.761719 44.167969 L 17.605469 43.089844 L 16.601562 43.089844 C 16.371094 42.316406 15.984375 41.699219 15.519531 41.160156 L 15.984375 40.308594 L 15.136719 39.613281 L 14.441406 40.308594 C 13.824219 39.921875 13.050781 39.769531 12.277344 39.691406 L 12.046875 38.765625 L 10.964844 38.917969 L 10.964844 39.921875 C 10.191406 40.15625 9.574219 40.539062 9.035156 41.082031 L 8.183594 40.617188 L 7.492188 41.46875 L 8.183594 42.164062 C 7.800781 42.78125 7.644531 43.550781 7.644531 44.324219 L 6.640625 44.632812 L 6.796875 45.714844 L 7.875 45.714844 C 8.03125 46.332031 8.417969 46.949219 8.878906 47.492188 Z M 9.574219 44.710938 C 9.34375 43.242188 10.425781 41.851562 11.890625 41.699219 C 13.359375 41.46875 14.75 42.546875 14.902344 44.015625 C 15.136719 45.484375 14.054688 46.871094 12.585938 47.027344 C 11.121094 47.179688 9.730469 46.175781 9.574219 44.710938 Z M 9.574219 44.710938 "/>
<path style=" stroke:none;fill-rule:nonzero;fill:rgb(80.784314%,83.529412%,87.843137%);fill-opacity:1;" d="M 4.402344 36.523438 C 5.25 37.144531 6.253906 37.527344 7.257812 37.683594 L 7.492188 39.152344 L 9.035156 39.152344 L 9.1875 37.683594 C 10.191406 37.527344 11.121094 37.144531 11.96875 36.523438 L 13.203125 37.453125 L 14.285156 36.371094 L 13.359375 35.136719 C 13.976562 34.285156 14.363281 33.359375 14.515625 32.355469 L 15.984375 32.125 L 15.984375 30.578125 L 14.515625 30.425781 C 14.363281 29.421875 13.976562 28.417969 13.359375 27.566406 L 14.207031 26.410156 L 13.128906 25.25 L 11.96875 26.101562 C 11.121094 25.484375 10.117188 25.097656 9.113281 24.941406 L 8.878906 23.550781 L 7.335938 23.550781 L 7.179688 24.941406 C 6.175781 25.097656 5.171875 25.484375 4.246094 26.101562 L 3.167969 25.25 L 2.085938 26.332031 L 2.933594 27.414062 C 2.316406 28.261719 1.929688 29.265625 1.777344 30.347656 L 0.386719 30.578125 L 0.386719 32.125 L 1.777344 32.277344 C 1.929688 33.28125 2.316406 34.285156 3.011719 35.136719 L 2.164062 36.292969 L 3.242188 37.375 Z M 5.484375 28.726562 C 6.949219 27.257812 9.34375 27.257812 10.8125 28.726562 C 12.277344 30.191406 12.277344 32.585938 10.8125 34.054688 C 9.34375 35.519531 6.949219 35.519531 5.484375 34.054688 C 4.09375 32.585938 4.015625 30.191406 5.484375 28.726562 Z M 5.484375 28.726562 "/>
<path style=" stroke:none;fill-rule:nonzero;fill:rgb(100%,100%,100%);fill-opacity:1;" d="M 84.710938 86.175781 L 14.75 86.175781 L 14.75 39.84375 C 14.75 38.457031 15.90625 37.296875 17.296875 37.296875 L 82.164062 37.296875 C 83.550781 37.296875 84.710938 38.457031 84.710938 39.84375 Z M 84.710938 86.175781 "/>
<path style=" stroke:none;fill-rule:nonzero;fill:rgb(51.764706%,85.882353%,100%);fill-opacity:1;" d="M 18.457031 42.546875 L 80.925781 42.546875 L 80.925781 81.003906 L 18.457031 81.003906 Z M 18.457031 42.546875 "/>
<path style=" stroke:none;fill-rule:nonzero;fill:rgb(13.72549%,12.156863%,12.54902%);fill-opacity:1;" d="M 59.84375 19.074219 C 59.691406 19.074219 59.535156 18.996094 59.460938 18.917969 C 59.226562 18.6875 59.226562 18.300781 59.460938 18.070312 L 60.464844 17.066406 C 60.695312 16.832031 61.082031 16.832031 61.3125 17.066406 C 61.542969 17.296875 61.542969 17.683594 61.3125 17.914062 L 60.230469 18.917969 C 60.15625 18.996094 60 19.074219 59.84375 19.074219 Z M 59.84375 19.074219 "/>
<path style=" stroke:none;fill-rule:nonzero;fill:rgb(13.72549%,12.156863%,12.54902%);fill-opacity:1;" d="M 56.757812 22.164062 C 56.601562 22.164062 56.449219 22.085938 56.371094 22.007812 C 56.140625 21.777344 56.140625 21.390625 56.371094 21.160156 L 57.375 20.15625 C 57.605469 19.921875 57.992188 19.921875 58.222656 20.15625 C 58.457031 20.386719 58.457031 20.773438 58.222656 21.003906 L 57.144531 22.007812 C 57.066406 22.085938 56.910156 22.164062 56.757812 22.164062 Z M 56.757812 22.164062 "/>
<path style=" stroke:none;fill-rule:nonzero;fill:rgb(13.72549%,12.156863%,12.54902%);fill-opacity:1;" d="M 60.847656 22.164062 C 60.695312 22.164062 60.539062 22.085938 60.464844 22.007812 L 59.460938 21.003906 C 59.226562 20.773438 59.226562 20.386719 59.460938 20.15625 C 59.691406 19.921875 60.078125 19.921875 60.308594 20.15625 L 61.3125 21.160156 C 61.542969 21.390625 61.542969 21.777344 61.3125 22.007812 C 61.160156 22.085938 61.003906 22.164062 60.847656 22.164062 Z M 60.847656 22.164062 "/>
<path style=" stroke:none;fill-rule:nonzero;fill:rgb(13.72549%,12.156863%,12.54902%);fill-opacity:1;" d="M 57.761719 19.074219 C 57.605469 19.074219 57.453125 18.996094 57.375 18.917969 L 56.371094 17.914062 C 56.140625 17.683594 56.140625 17.296875 56.371094 17.066406 C 56.601562 16.832031 56.988281 16.832031 57.21875 17.066406 L 58.222656 18.070312 C 58.457031 18.300781 58.457031 18.6875 58.222656 18.917969 C 58.070312 18.996094 57.914062 19.074219 57.761719 19.074219 Z M 57.761719 19.074219 "/>
<path style=" stroke:none;fill-rule:nonzero;fill:rgb(13.72549%,12.156863%,12.54902%);fill-opacity:1;" d="M 94.132812 41.082031 C 93.976562 41.082031 93.824219 41.003906 93.746094 40.925781 C 93.511719 40.695312 93.511719 40.308594 93.746094 40.078125 L 94.75 39.074219 C 94.980469 38.839844 95.367188 38.839844 95.597656 39.074219 C 95.832031 39.304688 95.832031 39.691406 95.597656 39.921875 L 94.59375 40.925781 C 94.441406 41.003906 94.285156 41.082031 94.132812 41.082031 Z M 94.132812 41.082031 "/>
<path style=" stroke:none;fill-rule:nonzero;fill:rgb(13.72549%,12.156863%,12.54902%);fill-opacity:1;" d="M 90.964844 44.167969 C 90.8125 44.167969 90.65625 44.09375 90.578125 44.015625 C 90.347656 43.785156 90.347656 43.398438 90.578125 43.167969 L 91.582031 42.164062 C 91.816406 41.929688 92.199219 41.929688 92.433594 42.164062 C 92.664062 42.394531 92.664062 42.78125 92.433594 43.011719 L 91.429688 44.015625 C 91.273438 44.09375 91.121094 44.167969 90.964844 44.167969 Z M 90.964844 44.167969 "/>
<path style=" stroke:none;fill-rule:nonzero;fill:rgb(13.72549%,12.156863%,12.54902%);fill-opacity:1;" d="M 95.136719 44.167969 C 94.980469 44.167969 94.828125 44.09375 94.75 44.015625 L 93.746094 43.011719 C 93.511719 42.78125 93.511719 42.394531 93.746094 42.164062 C 93.976562 41.929688 94.363281 41.929688 94.59375 42.164062 L 95.597656 43.167969 C 95.832031 43.398438 95.832031 43.785156 95.597656 44.015625 C 95.367188 44.09375 95.210938 44.167969 95.136719 44.167969 Z M 95.136719 44.167969 "/>
<path style=" stroke:none;fill-rule:nonzero;fill:rgb(13.72549%,12.156863%,12.54902%);fill-opacity:1;" d="M 91.96875 41.082031 C 91.816406 41.082031 91.660156 41.003906 91.582031 40.925781 L 90.578125 39.921875 C 90.347656 39.691406 90.347656 39.304688 90.578125 39.074219 C 90.8125 38.839844 91.195312 38.839844 91.429688 39.074219 L 92.433594 40.078125 C 92.664062 40.308594 92.664062 40.695312 92.433594 40.925781 C 92.277344 41.003906 92.125 41.082031 91.96875 41.082031 Z M 91.96875 41.082031 "/>
<path style=" stroke:none;fill-rule:nonzero;fill:rgb(13.72549%,12.156863%,12.54902%);fill-opacity:1;" d="M 7.644531 66.410156 C 7.492188 66.410156 7.335938 66.332031 7.257812 66.253906 C 7.027344 66.023438 7.027344 65.636719 7.257812 65.40625 L 8.261719 64.402344 C 8.496094 64.167969 8.878906 64.167969 9.113281 64.402344 C 9.34375 64.632812 9.34375 65.019531 9.113281 65.25 L 8.109375 66.253906 C 7.953125 66.332031 7.800781 66.410156 7.644531 66.410156 Z M 7.644531 66.410156 "/>
<path style=" stroke:none;fill-rule:nonzero;fill:rgb(13.72549%,12.156863%,12.54902%);fill-opacity:1;" d="M 4.554688 69.5 C 4.402344 69.5 4.246094 69.421875 4.167969 69.34375 C 3.9375 69.113281 3.9375 68.726562 4.167969 68.496094 L 5.171875 67.492188 C 5.40625 67.257812 5.792969 67.257812 6.023438 67.492188 C 6.253906 67.722656 6.253906 68.109375 6.023438 68.339844 L 5.019531 69.34375 C 4.863281 69.5 4.710938 69.5 4.554688 69.5 Z M 4.554688 69.5 "/>
<path style=" stroke:none;fill-rule:nonzero;fill:rgb(13.72549%,12.156863%,12.54902%);fill-opacity:1;" d="M 8.648438 69.5 C 8.496094 69.5 8.339844 69.421875 8.261719 69.34375 L 7.257812 68.339844 C 7.027344 68.109375 7.027344 67.722656 7.257812 67.492188 C 7.492188 67.257812 7.875 67.257812 8.109375 67.492188 L 9.113281 68.496094 C 9.34375 68.726562 9.34375 69.113281 9.113281 69.34375 C 8.957031 69.5 8.804688 69.5 8.648438 69.5 Z M 8.648438 69.5 "/>
<path style=" stroke:none;fill-rule:nonzero;fill:rgb(13.72549%,12.156863%,12.54902%);fill-opacity:1;" d="M 5.558594 66.410156 C 5.40625 66.410156 5.25 66.332031 5.171875 66.253906 L 4.167969 65.25 C 3.9375 65.019531 3.9375 64.632812 4.167969 64.402344 C 4.402344 64.167969 4.789062 64.167969 5.019531 64.402344 L 6.023438 65.40625 C 6.175781 65.636719 6.175781 66.023438 5.945312 66.253906 C 5.867188 66.332031 5.714844 66.410156 5.558594 66.410156 Z M 5.558594 66.410156 "/>
<path style=" stroke:none;fill-rule:nonzero;fill:rgb(100%,100%,100%);fill-opacity:1;" d="M 65.792969 80.925781 L 65.792969 78.222656 C 65.792969 69.34375 58.609375 62.164062 49.730469 62.164062 C 40.847656 62.164062 33.667969 69.34375 33.667969 78.222656 L 33.667969 80.925781 Z M 65.792969 80.925781 "/>
<path style=" stroke:none;fill-rule:nonzero;fill:rgb(100%,100%,100%);fill-opacity:1;" d="M 53.898438 58.300781 L 45.484375 58.300781 L 45.484375 65.171875 C 45.484375 67.414062 47.335938 69.265625 49.574219 69.265625 L 49.882812 69.265625 C 52.125 69.265625 53.976562 67.414062 53.976562 65.171875 L 53.976562 58.300781 Z M 53.898438 58.300781 "/>
<path style=" stroke:none;fill-rule:nonzero;fill:rgb(100%,81.568627%,35.686275%);fill-opacity:1;" d="M 58.917969 30.039062 C 58.765625 27.644531 56.757812 25.792969 54.441406 26.023438 C 43.785156 27.105469 36.679688 22.78125 36.679688 22.78125 C 36.679688 22.78125 36.292969 27.566406 38.222656 31.351562 C 36.601562 32.664062 35.597656 34.671875 35.597656 36.910156 L 35.597656 47.257812 C 35.597656 48.726562 36.832031 49.960938 38.300781 49.960938 L 61.003906 49.960938 C 62.472656 49.960938 63.707031 48.726562 63.707031 47.257812 L 63.707031 36.910156 C 63.785156 33.746094 61.777344 31.042969 58.917969 30.039062 Z M 58.917969 30.039062 "/>
<path style=" stroke:none;fill-rule:nonzero;fill:rgb(100%,100%,100%);fill-opacity:1;" d="M 61.160156 44.402344 L 61.082031 44.402344 L 61.082031 41.46875 C 56.523438 41.003906 52.742188 37.761719 51.503906 33.511719 C 48.726562 37.992188 43.9375 41.082031 38.378906 41.542969 L 38.378906 44.480469 L 38.300781 44.480469 C 37.375 44.480469 36.679688 45.25 36.679688 46.101562 C 36.679688 47.027344 37.453125 47.722656 38.300781 47.722656 L 38.378906 47.722656 L 38.378906 49.960938 C 38.378906 56.214844 43.476562 61.3125 49.730469 61.3125 C 55.984375 61.3125 61.082031 56.214844 61.082031 49.960938 L 61.082031 47.722656 L 61.160156 47.722656 C 62.085938 47.722656 62.78125 46.949219 62.78125 46.101562 C 62.855469 45.171875 62.085938 44.402344 61.160156 44.402344 Z M 61.160156 44.402344 "/>
<path style=" stroke:none;fill-rule:nonzero;fill:rgb(13.72549%,12.156863%,12.54902%);fill-opacity:1;" d="M 57.066406 46.023438 C 56.757812 46.023438 56.523438 45.792969 56.523438 45.558594 C 56.371094 44.789062 55.753906 44.324219 54.980469 44.324219 C 54.207031 44.324219 53.589844 44.863281 53.4375 45.558594 C 53.359375 45.867188 53.050781 46.101562 52.742188 46.023438 C 52.433594 45.945312 52.199219 45.636719 52.277344 45.328125 C 52.507812 44.015625 53.667969 43.089844 54.902344 43.089844 C 56.214844 43.089844 57.296875 44.015625 57.527344 45.328125 C 57.605469 45.636719 57.375 45.945312 57.066406 46.023438 C 57.144531 46.023438 57.144531 46.023438 57.066406 46.023438 Z M 57.066406 46.023438 "/>
<path style=" stroke:none;fill-rule:nonzero;fill:rgb(13.72549%,12.156863%,12.54902%);fill-opacity:1;" d="M 46.5625 46.023438 C 46.253906 46.023438 46.023438 45.792969 46.023438 45.558594 C 45.867188 44.789062 45.25 44.324219 44.480469 44.324219 C 43.707031 44.324219 43.089844 44.863281 42.933594 45.558594 C 42.855469 45.867188 42.546875 46.101562 42.238281 46.023438 C 41.929688 45.945312 41.699219 45.636719 41.777344 45.328125 C 42.007812 44.015625 43.167969 43.089844 44.402344 43.089844 C 45.636719 43.089844 46.796875 44.015625 47.027344 45.328125 C 47.105469 45.636719 46.871094 45.945312 46.5625 46.023438 C 46.640625 46.023438 46.5625 46.023438 46.5625 46.023438 Z M 46.5625 46.023438 "/>
<path style=" stroke:none;fill-rule:nonzero;fill:rgb(13.72549%,12.156863%,12.54902%);fill-opacity:1;" d="M 49.730469 56.988281 C 47.722656 56.988281 45.945312 55.597656 45.40625 53.667969 L 45.171875 52.894531 L 54.285156 52.894531 L 54.054688 53.667969 C 53.511719 55.675781 51.738281 56.988281 49.730469 56.988281 Z M 46.796875 54.132812 C 47.414062 55.136719 48.496094 55.832031 49.730469 55.832031 C 50.964844 55.832031 52.046875 55.136719 52.664062 54.132812 Z M 46.796875 54.132812 "/>
<path style=" stroke:none;fill-rule:nonzero;fill:rgb(13.72549%,12.156863%,12.54902%);fill-opacity:1;" d="M 55.984375 98.839844 L 37.144531 98.839844 C 36.832031 98.839844 36.523438 99.074219 36.523438 99.460938 C 36.523438 99.769531 36.757812 100.078125 37.144531 100.078125 L 55.984375 100.078125 C 56.292969 100.078125 56.601562 99.84375 56.601562 99.460938 C 56.601562 99.074219 56.292969 98.839844 55.984375 98.839844 Z M 55.984375 98.839844 "/>
<path style=" stroke:none;fill-rule:nonzero;fill:rgb(13.72549%,12.156863%,12.54902%);fill-opacity:1;" d="M 62.238281 98.839844 L 58.917969 98.839844 C 58.609375 98.839844 58.300781 99.074219 58.300781 99.460938 C 58.300781 99.769531 58.53125 100.078125 58.917969 100.078125 L 62.238281 100.078125 C 62.546875 100.078125 62.855469 99.84375 62.855469 99.460938 C 62.855469 99.074219 62.546875 98.839844 62.238281 98.839844 Z M 62.238281 98.839844 "/>
<path style=" stroke:none;fill-rule:nonzero;fill:rgb(13.72549%,12.156863%,12.54902%);fill-opacity:1;" d="M 81.3125 94.980469 L 62.472656 94.980469 C 62.164062 94.980469 61.851562 95.210938 61.851562 95.597656 C 61.851562 95.90625 62.085938 96.214844 62.472656 96.214844 L 81.3125 96.214844 C 81.621094 96.214844 81.929688 95.984375 81.929688 95.597656 C 81.851562 95.289062 81.621094 94.980469 81.3125 94.980469 Z M 81.3125 94.980469 "/>
<path style=" stroke:none;fill-rule:nonzero;fill:rgb(13.72549%,12.156863%,12.54902%);fill-opacity:1;" d="M 87.566406 94.980469 L 84.167969 94.980469 C 83.859375 94.980469 83.550781 95.210938 83.550781 95.597656 C 83.550781 95.90625 83.785156 96.214844 84.167969 96.214844 L 87.492188 96.214844 C 87.800781 96.214844 88.109375 95.984375 88.109375 95.597656 C 88.109375 95.289062 87.875 94.980469 87.566406 94.980469 Z M 87.566406 94.980469 "/>
<path style=" stroke:none;fill-rule:nonzero;fill:rgb(13.72549%,12.156863%,12.54902%);fill-opacity:1;" d="M 13.976562 96.140625 L 9.882812 96.140625 C 9.574219 96.140625 9.265625 96.371094 9.265625 96.757812 C 9.265625 97.066406 9.5 97.375 9.882812 97.375 L 13.976562 97.375 C 14.285156 97.375 14.59375 97.144531 14.59375 96.757812 C 14.59375 96.449219 14.285156 96.140625 13.976562 96.140625 Z M 13.976562 96.140625 "/>
<path style=" stroke:none;fill-rule:nonzero;fill:rgb(13.72549%,12.156863%,12.54902%);fill-opacity:1;" d="M 47.644531 96.757812 C 47.644531 96.449219 47.414062 96.140625 47.027344 96.140625 L 18.222656 96.140625 C 17.914062 96.140625 17.605469 96.371094 17.605469 96.757812 C 17.605469 97.066406 17.835938 97.375 18.222656 97.375 L 47.105469 97.375 C 47.414062 97.296875 47.644531 97.066406 47.644531 96.757812 Z M 47.644531 96.757812 "/>
<path style=" stroke:none;fill-rule:nonzero;fill:rgb(13.72549%,12.156863%,12.54902%);fill-opacity:1;" d="M 87.257812 92.433594 C 89.960938 91.273438 92.199219 89.1875 93.589844 86.410156 C 93.667969 86.253906 93.667969 86.023438 93.589844 85.867188 C 93.511719 85.714844 93.28125 85.558594 93.128906 85.558594 L 85.328125 85.558594 L 85.328125 39.84375 C 85.328125 38.148438 83.9375 36.757812 82.238281 36.757812 L 64.324219 36.757812 C 64.246094 33.667969 62.316406 30.886719 59.460938 29.652344 C 59.074219 27.105469 56.910156 25.25 54.363281 25.484375 C 53.28125 25.558594 52.125 25.636719 51.042969 25.636719 C 42.625 25.636719 37.066406 22.316406 36.988281 22.316406 L 36.214844 21.851562 L 36.140625 22.78125 C 36.140625 23.011719 35.753906 27.492188 37.527344 31.273438 C 35.984375 32.742188 35.136719 34.671875 35.058594 36.832031 L 17.296875 36.832031 C 15.597656 36.832031 14.207031 38.222656 14.207031 39.921875 L 14.207031 85.714844 L 6.410156 85.714844 C 6.175781 85.714844 6.023438 85.792969 5.945312 86.023438 C 5.867188 86.175781 5.792969 86.410156 5.945312 86.5625 C 7.257812 89.265625 9.574219 91.351562 12.277344 92.585938 L 0.386719 92.585938 L 0.386719 93.746094 L 99.074219 93.746094 L 99.074219 92.585938 L 87.257812 92.585938 Z M 64.324219 47.335938 L 64.324219 37.835938 L 82.164062 37.835938 C 83.242188 37.835938 84.09375 38.6875 84.09375 39.769531 L 84.09375 80.308594 L 66.332031 80.308594 L 66.332031 78.148438 C 66.332031 70.65625 61.3125 64.324219 54.515625 62.238281 L 54.515625 60.773438 C 58.53125 58.996094 61.390625 55.058594 61.621094 50.425781 C 63.167969 50.269531 64.324219 48.957031 64.324219 47.335938 Z M 58.222656 75.519531 L 58.222656 80.386719 L 41.234375 80.386719 L 41.234375 75.519531 L 40.078125 75.519531 L 40.078125 80.386719 L 34.285156 80.386719 L 34.285156 78.222656 C 34.285156 71.351562 38.765625 65.558594 44.941406 63.550781 L 44.941406 65.171875 C 44.941406 67.722656 47.027344 69.808594 49.574219 69.808594 L 49.882812 69.808594 C 52.433594 69.808594 54.515625 67.722656 54.515625 65.171875 L 54.515625 63.550781 C 60.695312 65.558594 65.171875 71.429688 65.171875 78.222656 L 65.171875 80.386719 L 59.382812 80.386719 L 59.382812 75.519531 Z M 38.222656 47.179688 C 37.605469 47.179688 37.144531 46.71875 37.144531 46.101562 C 37.144531 45.484375 37.605469 45.019531 38.222656 45.019531 L 38.917969 45.019531 L 38.917969 42.007812 C 43.859375 41.46875 48.417969 38.839844 51.273438 34.75 C 52.820312 38.53125 56.292969 41.3125 60.386719 41.929688 L 60.386719 44.941406 L 61.082031 44.941406 C 61.699219 44.941406 62.164062 45.40625 62.164062 46.023438 C 62.164062 46.640625 61.699219 47.105469 61.082031 47.105469 L 60.386719 47.105469 L 60.386719 49.960938 C 60.386719 55.90625 55.519531 60.695312 49.652344 60.695312 C 43.707031 60.695312 38.917969 55.832031 38.917969 49.960938 L 38.917969 47.105469 L 38.222656 47.105469 Z M 63.167969 47.027344 L 63.167969 47.257812 C 63.167969 48.261719 62.472656 49.035156 61.621094 49.265625 L 61.621094 48.183594 C 62.316406 48.109375 62.855469 47.644531 63.167969 47.027344 Z M 46.101562 61.3125 C 47.257812 61.699219 48.496094 61.851562 49.730469 61.851562 C 50.964844 61.851562 52.199219 61.621094 53.359375 61.3125 L 53.359375 65.171875 C 53.359375 67.105469 51.816406 68.648438 49.882812 68.648438 L 49.574219 68.648438 C 47.644531 68.648438 46.101562 67.105469 46.101562 65.171875 Z M 36.214844 36.910156 C 36.214844 34.902344 37.066406 33.050781 38.609375 31.738281 L 38.996094 31.429688 L 38.765625 31.042969 C 37.453125 28.417969 37.21875 25.25 37.296875 23.707031 C 39.226562 24.632812 44.167969 26.796875 51.121094 26.796875 C 52.277344 26.796875 53.4375 26.71875 54.515625 26.640625 C 56.449219 26.410156 58.222656 28.03125 58.378906 30.117188 L 58.378906 30.5 L 58.765625 30.65625 C 61.390625 31.660156 63.242188 34.207031 63.242188 36.988281 L 63.242188 45.171875 C 62.933594 44.554688 62.394531 44.09375 61.699219 43.9375 L 61.699219 42.164062 C 61.851562 42.164062 62.085938 42.164062 62.238281 42.164062 C 62.546875 42.164062 62.855469 41.929688 62.855469 41.542969 C 62.855469 41.160156 62.472656 40.925781 62.164062 40.925781 C 61.851562 40.925781 61.46875 40.925781 61.082031 40.847656 C 56.832031 40.464844 53.203125 37.375 52.046875 33.28125 C 51.96875 33.050781 51.816406 32.894531 51.582031 32.894531 C 51.351562 32.894531 51.121094 32.972656 51.042969 33.203125 C 48.339844 37.683594 43.550781 40.539062 38.378906 40.925781 C 37.992188 40.925781 37.605469 41.003906 37.21875 41.003906 C 36.910156 41.003906 36.601562 41.234375 36.601562 41.621094 C 36.601562 42.007812 36.832031 42.238281 37.21875 42.238281 C 37.453125 42.238281 37.683594 42.238281 37.835938 42.238281 L 37.835938 44.015625 C 37.144531 44.167969 36.601562 44.632812 36.292969 45.25 L 36.292969 36.910156 Z M 36.214844 47.027344 C 36.523438 47.644531 37.066406 48.109375 37.761719 48.261719 L 37.761719 49.34375 C 36.832031 49.113281 36.214844 48.261719 36.214844 47.335938 Z M 15.289062 39.84375 C 15.289062 38.765625 16.140625 37.914062 17.21875 37.914062 L 35.058594 37.914062 L 35.058594 47.335938 C 35.058594 48.957031 36.214844 50.269531 37.761719 50.578125 C 37.992188 55.210938 40.847656 59.152344 44.863281 60.925781 L 44.863281 62.394531 C 37.992188 64.480469 33.050781 70.8125 33.050781 78.300781 L 33.050781 80.464844 L 15.289062 80.464844 Z M 15.289062 81.542969 L 84.09375 81.542969 L 84.09375 85.636719 L 15.289062 85.636719 Z M 7.335938 86.71875 L 92.046875 86.71875 C 90.039062 90.117188 86.332031 92.277344 82.316406 92.277344 L 17.066406 92.277344 C 13.050781 92.277344 9.34375 90.117188 7.335938 86.71875 Z M 7.335938 86.71875 "/>
<path style=" stroke:none;fill-rule:nonzero;fill:rgb(100%,100%,100%);fill-opacity:1;" d="M 99.074219 15.445312 C 99.074219 23.675781 92.402344 30.347656 84.167969 30.347656 C 75.9375 30.347656 69.265625 23.675781 69.265625 15.445312 C 69.265625 7.214844 75.9375 0.539062 84.167969 0.539062 C 92.402344 0.539062 99.074219 7.214844 99.074219 15.445312 Z M 99.074219 15.445312 "/>
<path style=" stroke:none;fill-rule:nonzero;fill:rgb(13.72549%,12.156863%,12.54902%);fill-opacity:1;" d="M 84.167969 30.964844 C 75.675781 30.964844 68.726562 24.015625 68.726562 15.519531 C 68.726562 7.027344 75.675781 0.078125 84.167969 0.078125 C 92.664062 0.078125 99.613281 7.027344 99.613281 15.519531 C 99.613281 24.015625 92.742188 30.964844 84.167969 30.964844 Z M 84.167969 1.160156 C 76.292969 1.160156 69.882812 7.566406 69.882812 15.445312 C 69.882812 23.320312 76.292969 29.730469 84.167969 29.730469 C 92.046875 29.730469 98.457031 23.320312 98.457031 15.445312 C 98.457031 7.566406 92.046875 1.160156 84.167969 1.160156 Z M 84.167969 1.160156 "/>
<path style=" stroke:none;fill-rule:nonzero;fill:rgb(100%,43.921569%,34.509804%);fill-opacity:1;" d="M 95.984375 15.445312 C 95.984375 21.96875 90.695312 27.257812 84.167969 27.257812 C 77.644531 27.257812 72.355469 21.96875 72.355469 15.445312 C 72.355469 8.917969 77.644531 3.628906 84.167969 3.628906 C 90.695312 3.628906 95.984375 8.917969 95.984375 15.445312 Z M 95.984375 15.445312 "/>
<path style=" stroke:none;fill-rule:nonzero;fill:rgb(100%,100%,100%);fill-opacity:1;" d="M 82.625 18.609375 L 87.179688 14.054688 C 87.800781 13.4375 88.648438 13.128906 89.5 13.203125 C 89.574219 13.203125 89.574219 13.203125 89.652344 13.203125 C 90.65625 13.203125 91.582031 12.664062 92.125 11.890625 L 89.1875 11.890625 L 88.648438 10.117188 L 89.1875 8.339844 L 92.125 8.339844 C 91.503906 7.492188 90.5 6.949219 89.34375 7.027344 C 87.875 7.105469 86.71875 8.339844 86.5625 9.808594 C 86.5625 9.882812 86.5625 9.882812 86.5625 9.960938 C 86.5625 10.734375 86.253906 11.503906 85.714844 12.046875 L 80.925781 16.832031 C 80.308594 17.453125 79.535156 17.683594 78.6875 17.683594 C 77.683594 17.683594 76.757812 18.222656 76.214844 18.996094 L 79.152344 18.996094 L 79.691406 20.773438 L 79.152344 22.546875 L 76.214844 22.546875 C 76.832031 23.398438 77.761719 23.9375 78.917969 23.859375 C 80.386719 23.785156 81.621094 22.625 81.777344 21.160156 C 81.777344 21.003906 81.777344 20.847656 81.777344 20.773438 C 81.699219 19.921875 82.085938 19.152344 82.625 18.609375 Z M 82.625 18.609375 "/>
<path style=" stroke:none;fill-rule:nonzero;fill:rgb(100%,100%,100%);fill-opacity:1;" d="M 81.082031 13.898438 L 85.636719 18.457031 C 86.253906 19.074219 86.5625 19.921875 86.488281 20.773438 C 86.488281 20.847656 86.488281 20.847656 86.488281 20.925781 C 86.488281 21.929688 87.027344 22.855469 87.800781 23.398438 L 87.800781 20.464844 L 89.574219 19.921875 L 91.351562 20.464844 L 91.351562 23.398438 C 92.199219 22.78125 92.742188 21.777344 92.664062 20.617188 C 92.585938 19.152344 91.351562 17.992188 89.882812 17.835938 C 89.808594 17.835938 89.808594 17.835938 89.730469 17.835938 C 88.957031 17.835938 88.183594 17.527344 87.644531 16.988281 L 82.855469 12.199219 C 82.238281 11.582031 82.007812 10.8125 82.007812 9.960938 C 82.007812 8.957031 81.46875 8.03125 80.695312 7.492188 L 80.695312 10.425781 L 78.917969 10.964844 L 77.144531 10.425781 L 77.144531 7.492188 C 76.292969 8.109375 75.753906 9.035156 75.832031 10.191406 C 75.90625 11.660156 77.066406 12.894531 78.53125 13.050781 C 78.6875 13.050781 78.839844 13.050781 78.917969 13.050781 C 79.691406 13.050781 80.464844 13.359375 81.082031 13.898438 Z M 81.082031 13.898438 "/>
<path style=" stroke:none;fill-rule:nonzero;fill:rgb(51.764706%,85.882353%,100%);fill-opacity:1;" d="M 46.175781 7.492188 L 30.734375 7.492188 C 30.734375 8.417969 31.429688 9.113281 32.355469 9.113281 L 44.554688 9.113281 C 45.40625 9.113281 46.175781 8.339844 46.175781 7.492188 Z M 46.175781 7.492188 "/>
<path style=" stroke:none;fill-rule:nonzero;fill:rgb(51.764706%,85.882353%,100%);fill-opacity:1;" d="M 30.734375 14.671875 L 46.175781 14.671875 C 46.175781 13.746094 45.484375 13.050781 44.554688 13.050781 L 32.355469 13.050781 C 31.429688 13.050781 30.734375 13.746094 30.734375 14.671875 Z M 30.734375 14.671875 "/>
<path style=" stroke:none;fill-rule:nonzero;fill:rgb(13.72549%,12.156863%,12.54902%);fill-opacity:1;" d="M 47.875 15.210938 L 29.5 15.210938 C 28.339844 15.210938 27.335938 14.207031 27.335938 13.050781 L 27.335938 9.035156 C 27.335938 7.875 28.339844 6.871094 29.5 6.871094 L 47.875 6.871094 C 48.183594 6.871094 48.496094 7.105469 48.496094 7.492188 L 48.496094 14.671875 C 48.496094 14.980469 48.183594 15.210938 47.875 15.210938 Z M 29.5 8.03125 C 28.957031 8.03125 28.496094 8.496094 28.496094 9.035156 L 28.496094 13.050781 C 28.496094 13.589844 28.957031 14.054688 29.5 14.054688 L 47.257812 14.054688 L 47.257812 8.03125 Z M 29.5 8.03125 "/>
<path style=" stroke:none;fill-rule:nonzero;fill:rgb(51.764706%,85.882353%,100%);fill-opacity:1;" d="M 44.863281 12.046875 L 31.660156 12.046875 C 31.121094 12.046875 30.734375 11.582031 30.734375 11.121094 C 30.734375 10.578125 31.195312 10.191406 31.660156 10.191406 L 44.863281 10.191406 C 45.40625 10.191406 45.792969 10.65625 45.792969 11.121094 C 45.867188 11.582031 45.40625 12.046875 44.863281 12.046875 Z M 44.863281 12.046875 "/>
<path style=" stroke:none;fill-rule:nonzero;fill:rgb(100%,100%,100%);fill-opacity:1;" d="M 70.039062 60.773438 L 63.785156 60.773438 C 63.476562 60.773438 63.167969 60.539062 63.167969 60.15625 C 63.167969 59.84375 63.398438 59.535156 63.785156 59.535156 L 70.039062 59.535156 C 70.347656 59.535156 70.65625 59.769531 70.65625 60.15625 C 70.65625 60.539062 70.347656 60.773438 70.039062 60.773438 Z M 70.039062 60.773438 "/>
<path style=" stroke:none;fill-rule:nonzero;fill:rgb(100%,100%,100%);fill-opacity:1;" d="M 72.507812 63.011719 L 69.421875 63.011719 C 69.113281 63.011719 68.804688 62.78125 68.804688 62.394531 C 68.804688 62.085938 69.035156 61.777344 69.421875 61.777344 L 72.507812 61.777344 C 72.820312 61.777344 73.128906 62.007812 73.128906 62.394531 C 73.128906 62.78125 72.820312 63.011719 72.507812 63.011719 Z M 72.507812 63.011719 "/>
<path style=" stroke:none;fill-rule:nonzero;fill:rgb(100%,100%,100%);fill-opacity:1;" d="M 75.832031 60.773438 L 72.894531 60.773438 C 72.585938 60.773438 72.277344 60.539062 72.277344 60.15625 C 72.277344 59.84375 72.507812 59.535156 72.894531 59.535156 L 75.832031 59.535156 C 76.140625 59.535156 76.449219 59.769531 76.449219 60.15625 C 76.371094 60.539062 76.140625 60.773438 75.832031 60.773438 Z M 75.832031 60.773438 "/>
<path style=" stroke:none;fill-rule:nonzero;fill:rgb(100%,100%,100%);fill-opacity:1;" d="M 67.257812 63.011719 L 66.640625 63.011719 C 66.332031 63.011719 66.023438 62.78125 66.023438 62.394531 C 66.023438 62.085938 66.253906 61.777344 66.640625 61.777344 L 67.257812 61.777344 C 67.566406 61.777344 67.875 62.007812 67.875 62.394531 C 67.800781 62.78125 67.566406 63.011719 67.257812 63.011719 Z M 67.257812 63.011719 "/>
<path style=" stroke:none;fill-rule:nonzero;fill:rgb(100%,100%,100%);fill-opacity:1;" d="M 29.882812 57.761719 L 23.628906 57.761719 C 23.320312 57.761719 23.011719 57.527344 23.011719 57.144531 C 23.011719 56.832031 23.242188 56.523438 23.628906 56.523438 L 29.882812 56.523438 C 30.191406 56.523438 30.5 56.757812 30.5 57.144531 C 30.425781 57.453125 30.191406 57.761719 29.882812 57.761719 Z M 29.882812 57.761719 "/>
<path style=" stroke:none;fill-rule:nonzero;fill:rgb(100%,100%,100%);fill-opacity:1;" d="M 32.355469 60 L 29.265625 60 C 28.957031 60 28.648438 59.769531 28.648438 59.382812 C 28.648438 59.074219 28.878906 58.765625 29.265625 58.765625 L 32.355469 58.765625 C 32.664062 58.765625 32.972656 58.996094 32.972656 59.382812 C 32.894531 59.769531 32.664062 60 32.355469 60 Z M 32.355469 60 "/>
<path style=" stroke:none;fill-rule:nonzero;fill:rgb(100%,100%,100%);fill-opacity:1;" d="M 35.597656 57.761719 L 32.664062 57.761719 C 32.355469 57.761719 32.046875 57.527344 32.046875 57.144531 C 32.046875 56.832031 32.277344 56.523438 32.664062 56.523438 L 35.597656 56.523438 C 35.90625 56.523438 36.214844 56.757812 36.214844 57.144531 C 36.214844 57.453125 35.90625 57.761719 35.597656 57.761719 Z M 35.597656 57.761719 "/>
<path style=" stroke:none;fill-rule:nonzero;fill:rgb(100%,100%,100%);fill-opacity:1;" d="M 27.027344 60 L 26.410156 60 C 26.101562 60 25.792969 59.769531 25.792969 59.382812 C 25.792969 59.074219 26.023438 58.765625 26.410156 58.765625 L 27.027344 58.765625 C 27.335938 58.765625 27.644531 58.996094 27.644531 59.382812 C 27.644531 59.769531 27.335938 60 27.027344 60 Z M 27.027344 60 "/>
<path style=" stroke:none;fill-rule:nonzero;fill:rgb(100%,81.568627%,35.686275%);fill-opacity:1;" d="M 27.335938 19.769531 C 27.335938 20.835938 26.472656 21.699219 25.40625 21.699219 C 24.339844 21.699219 23.476562 20.835938 23.476562 19.769531 C 23.476562 18.703125 24.339844 17.835938 25.40625 17.835938 C 26.472656 17.835938 27.335938 18.703125 27.335938 19.769531 Z M 27.335938 19.769531 "/>
<path style=" stroke:none;fill-rule:nonzero;fill:rgb(51.764706%,85.882353%,100%);fill-opacity:1;" d="M 93.898438 53.511719 C 93.898438 54.578125 93.035156 55.445312 91.96875 55.445312 C 90.902344 55.445312 90.039062 54.578125 90.039062 53.511719 C 90.039062 52.449219 90.902344 51.582031 91.96875 51.582031 C 93.035156 51.582031 93.898438 52.449219 93.898438 53.511719 Z M 93.898438 53.511719 "/>
<path style=" stroke:none;fill-rule:nonzero;fill:rgb(13.72549%,12.156863%,12.54902%);fill-opacity:1;" d="M 93.050781 77.992188 C 91.660156 77.992188 90.578125 76.832031 90.578125 75.519531 C 90.578125 74.132812 91.738281 73.050781 93.050781 73.050781 C 94.441406 73.050781 95.519531 74.207031 95.519531 75.519531 C 95.519531 76.910156 94.441406 77.992188 93.050781 77.992188 Z M 93.050781 74.132812 C 92.277344 74.132812 91.738281 74.75 91.738281 75.445312 C 91.738281 76.214844 92.355469 76.757812 93.050781 76.757812 C 93.746094 76.757812 94.363281 76.140625 94.363281 75.445312 C 94.363281 74.75 93.824219 74.132812 93.050781 74.132812 Z M 93.050781 74.132812 "/>
<path style=" stroke:none;fill-rule:nonzero;fill:rgb(100%,43.921569%,34.509804%);fill-opacity:1;" d="M 8.496094 77.453125 C 8.496094 78.519531 7.628906 79.382812 6.5625 79.382812 C 5.496094 79.382812 4.632812 78.519531 4.632812 77.453125 C 4.632812 76.386719 5.496094 75.519531 6.5625 75.519531 C 7.628906 75.519531 8.496094 76.386719 8.496094 77.453125 Z M 8.496094 77.453125 "/>
<path style=" stroke:none;fill-rule:nonzero;fill:rgb(13.72549%,12.156863%,12.54902%);fill-opacity:1;" d="M 12.199219 0 C 7.105469 0 2.933594 4.167969 2.933594 9.265625 C 2.933594 14.363281 7.105469 18.53125 12.199219 18.53125 C 17.296875 18.53125 21.46875 14.363281 21.46875 9.265625 C 21.46875 4.167969 17.296875 0 12.199219 0 Z M 20.308594 8.648438 L 17.375 8.648438 C 17.296875 5.792969 16.449219 3.242188 15.289062 1.699219 C 18.070312 2.855469 20.078125 5.558594 20.308594 8.648438 Z M 11.660156 1.234375 L 11.660156 8.648438 L 8.261719 8.648438 C 8.417969 4.941406 9.808594 1.851562 11.660156 1.234375 Z M 11.660156 9.808594 L 11.660156 17.21875 C 9.882812 16.679688 8.417969 13.511719 8.261719 9.808594 Z M 12.820312 17.296875 L 12.820312 9.882812 L 16.214844 9.882812 C 16.0625 13.589844 14.59375 16.679688 12.820312 17.296875 Z M 12.820312 8.648438 L 12.820312 1.234375 C 14.59375 1.777344 16.0625 4.941406 16.214844 8.648438 Z M 9.1875 1.777344 C 7.953125 3.320312 7.179688 5.792969 7.105469 8.726562 L 4.167969 8.726562 C 4.324219 5.558594 6.410156 2.855469 9.1875 1.777344 Z M 4.167969 9.808594 L 7.105469 9.808594 C 7.179688 12.664062 8.03125 15.210938 9.1875 16.757812 C 6.410156 15.675781 4.324219 12.972656 4.167969 9.808594 Z M 15.210938 16.757812 C 16.449219 15.210938 17.21875 12.742188 17.296875 9.808594 L 20.230469 9.808594 C 20.078125 12.972656 18.070312 15.675781 15.210938 16.757812 Z M 15.210938 16.757812 "/>
</g>
</svg>
