<?xml version="1.0" encoding="utf-8"?>
<!-- Generator: Adobe Illustrator 18.0.0, SVG Export Plug-In . SVG Version: 6.00 Build 0)  -->
<!DOCTYPE svg PUBLIC "-//W3C//DTD SVG 1.1//EN" "http://www.w3.org/Graphics/SVG/1.1/DTD/svg11.dtd">
<svg version="1.1" id="Layer_1" xmlns="http://www.w3.org/2000/svg" xmlns:xlink="http://www.w3.org/1999/xlink" x="0px" y="0px"
	 viewBox="0 0 129.5 129.5" enable-background="new 0 0 129.5 129.5" xml:space="preserve">
<g>
	<g>
		<path fill="#231F20" d="M96.5,6.5c-0.2,0-0.4-0.1-0.5-0.2c-0.3-0.3-0.3-0.8,0-1.1l1.3-1.3c0.3-0.3,0.8-0.3,1.1,0
			c0.3,0.3,0.3,0.8,0,1.1L97,6.3C96.9,6.4,96.7,6.5,96.5,6.5z"/>
		<path fill="#231F20" d="M92.4,10.5c-0.2,0-0.4-0.1-0.5-0.2c-0.3-0.3-0.3-0.8,0-1.1L93.2,8c0.3-0.3,0.8-0.3,1.1,0
			c0.3,0.3,0.3,0.8,0,1.1L93,10.3C92.8,10.5,92.6,10.5,92.4,10.5z"/>
		<path fill="#231F20" d="M97.8,10.5c-0.2,0-0.4-0.1-0.5-0.2L95.9,9c-0.3-0.3-0.3-0.8,0-1.1c0.3-0.3,0.8-0.3,1.1,0l1.3,1.3
			c0.3,0.3,0.3,0.8,0,1.1C98.1,10.5,98,10.5,97.8,10.5z"/>
		<path fill="#231F20" d="M93.7,6.5c-0.2,0-0.4-0.1-0.5-0.2L91.9,5c-0.3-0.3-0.3-0.8,0-1.1c0.3-0.3,0.8-0.3,1.1,0l1.3,1.3
			c0.3,0.3,0.3,0.8,0,1.1C94.1,6.4,93.9,6.5,93.7,6.5z"/>
		<path fill="#231F20" d="M16.2,107.2c-0.2,0-0.4-0.1-0.5-0.2c-0.3-0.3-0.3-0.8,0-1.1l1.3-1.3c0.3-0.3,0.8-0.3,1.1,0
			c0.3,0.3,0.3,0.8,0,1.1l-1.3,1.3C16.6,107.2,16.4,107.2,16.2,107.2z"/>
		<path fill="#231F20" d="M12.2,111.3c-0.2,0-0.4-0.1-0.5-0.2c-0.3-0.3-0.3-0.8,0-1.1l1.3-1.3c0.3-0.3,0.8-0.3,1.1,0
			c0.3,0.3,0.3,0.8,0,1.1l-1.3,1.3C12.6,111.2,12.4,111.3,12.2,111.3z"/>
		<path fill="#231F20" d="M17.5,111.3c-0.2,0-0.4-0.1-0.5-0.2l-1.3-1.3c-0.3-0.3-0.3-0.8,0-1.1c0.3-0.3,0.8-0.3,1.1,0l1.3,1.3
			c0.3,0.3,0.3,0.8,0,1.1C17.9,111.2,17.7,111.3,17.5,111.3z"/>
		<path fill="#231F20" d="M13.5,107.2c-0.2,0-0.4-0.1-0.5-0.2l-1.3-1.3c-0.3-0.3-0.3-0.8,0-1.1c0.3-0.3,0.8-0.3,1.1,0L14,106
			c0.3,0.3,0.3,0.8,0,1.1C13.9,107.2,13.7,107.2,13.5,107.2z"/>
		<path fill="#231F20" d="M10,25.9c-0.2,0-0.4-0.1-0.5-0.2c-0.3-0.3-0.3-0.8,0-1.1l1.3-1.3c0.3-0.3,0.8-0.3,1.1,0
			c0.3,0.3,0.3,0.8,0,1.1l-1.3,1.3C10.4,25.8,10.2,25.9,10,25.9z"/>
		<path fill="#231F20" d="M6,29.9c-0.2,0-0.4-0.1-0.5-0.2c-0.3-0.3-0.3-0.8,0-1.1l1.3-1.3C7,27,7.5,27,7.8,27.3
			c0.3,0.3,0.3,0.8,0,1.1l-1.3,1.3C6.4,29.8,6.2,29.9,6,29.9z"/>
		<path fill="#231F20" d="M11.3,29.9c-0.2,0-0.4-0.1-0.5-0.2l-1.3-1.3c-0.3-0.3-0.3-0.8,0-1.1c0.3-0.3,0.8-0.3,1.1,0l1.3,1.3
			c0.3,0.3,0.3,0.8,0,1.1C11.7,29.8,11.5,29.9,11.3,29.9z"/>
		<path fill="#231F20" d="M7.3,25.9c-0.2,0-0.4-0.1-0.5-0.2l-1.3-1.3c-0.3-0.3-0.3-0.8,0-1.1c0.3-0.3,0.8-0.3,1.1,0l1.3,1.3
			c0.3,0.3,0.3,0.8,0,1.1C7.7,25.8,7.5,25.9,7.3,25.9z"/>
		<path fill="#CED5E0" d="M24.4,11.4c0,0-0.1,0-0.1,0c0-0.2,0.1-0.4,0.1-0.7c0-2.5-2-4.5-4.5-4.5c-0.7,0-1.3,0.1-1.8,0.4
			c-0.8-1.9-2.7-3.3-5-3.3c-2.1,0-3.9,1.2-4.8,2.9c0,0-0.1,0-0.1,0c-2.4,0-4.4,2-4.4,4.4c0,0,0,0,0,0c-1.8,0.8-3,2.6-3,4.7
			c0,2.9,2.3,5.2,5.2,5.2h18.5c2.5,0,4.6-2,4.6-4.6C29,13.4,26.9,11.4,24.4,11.4z"/>
		<path fill="#E6E9EE" d="M32.8,8C32.8,8,32.7,8,32.8,8c-0.1-0.2,0-0.4,0-0.6c0-2.3-1.8-4.1-4.1-4.1c-0.6,0-1.1,0.1-1.7,0.4
			c-0.7-1.7-2.5-2.9-4.5-2.9c-1.9,0-3.5,1.1-4.3,2.6c0,0-0.1,0-0.1,0c-2.2,0-3.9,1.8-3.9,3.9c0,0,0,0,0,0c-1.6,0.7-2.7,2.4-2.7,4.2
			c0,2.6,2.1,4.7,4.7,4.7h16.7c2.3,0,4.1-1.8,4.1-4.1C36.9,9.9,35.1,8,32.8,8z"/>
		<circle fill="#FFFFFF" cx="111.9" cy="111.9" r="16.8"/>
		<circle fill="#CED5E0" cx="111.9" cy="111.9" r="14.5"/>
		<rect x="105.1" y="100.6" transform="matrix(0.5 0.866 -0.866 0.5 140.7164 -40.9664)" fill="#231F20" width="1.5" height="1.5"/>
		
			<rect x="117.2" y="121.6" transform="matrix(0.5003 0.8658 -0.8658 0.5003 164.9282 -40.9811)" fill="#231F20" width="1.5" height="1.5"/>
		
			<rect x="100.6" y="105.1" transform="matrix(0.866 0.5001 -0.5001 0.866 66.5078 -36.5227)" fill="#231F20" width="1.5" height="1.5"/>
		
			<rect x="121.6" y="117.2" transform="matrix(0.8658 0.5003 -0.5003 0.8658 75.437 -45.4175)" fill="#231F20" width="1.5" height="1.5"/>
		<rect x="99" y="111.1" fill="#231F20" width="1.5" height="1.5"/>
		<rect x="123.3" y="111.1" fill="#231F20" width="1.5" height="1.5"/>
		
			<rect x="100.6" y="117.2" transform="matrix(0.5001 0.866 -0.866 0.5001 152.8433 -28.8375)" fill="#231F20" width="1.5" height="1.5"/>
		
			<rect x="121.7" y="105.1" transform="matrix(0.5001 0.866 -0.866 0.5001 152.8423 -53.0975)" fill="#231F20" width="1.5" height="1.5"/>
		
			<rect x="105.1" y="121.6" transform="matrix(0.866 0.5001 -0.5001 0.866 75.392 -36.5232)" fill="#231F20" width="1.5" height="1.5"/>
		
			<rect x="117.2" y="100.6" transform="matrix(0.866 0.5001 -0.5001 0.866 66.5098 -45.4049)" fill="#231F20" width="1.5" height="1.5"/>
		<polygon fill="#231F20" points="118,112.6 111.2,112.6 111.2,103.8 112.7,103.8 112.7,111.1 118,111.1 		"/>
		<rect x="111.2" y="99" fill="#231F20" width="1.5" height="1.5"/>
		<rect x="111.2" y="123.3" fill="#231F20" width="1.5" height="1.5"/>
		<circle fill="#FFFFFF" cx="28.3" cy="64.7" r="27.5"/>
		<path fill="#84DBFF" d="M28.3,77.5L28.3,77.5c-6.7,0-12.3,4.9-13.2,11.4c3.9,2.2,8.4,3.4,13.2,3.4c4.8,0,9.3-1.2,13.2-3.4
			C40.5,82.4,35,77.5,28.3,77.5z"/>
		<path fill="#FFFFFF" d="M31.8,74.3h-7v6c0,1.8,1.4,3.2,3.2,3.2h0.7c1.8,0,3.2-1.4,3.2-3.2V74.3z"/>
		<path fill="#FFD05B" d="M36.6,49.3c-0.1-2.2-2-3.8-4-3.6c-9.6,1-16-3-16-3s-0.4,4.4,1.4,7.7c-1.4,1.2-2.3,3-2.3,5.1v9.4
			c0,1.3,1.1,2.4,2.4,2.4h20.5c1.3,0,2.4-1.1,2.4-2.4v-9.4C40.9,52.7,39.1,50.2,36.6,49.3z"/>
		<path fill="#FFFFFF" d="M37.8,62.7L37.8,62.7l-0.1-2.5c-3.8-0.4-6.9-3.1-8-6.7c-2.3,3.7-6.3,6.3-10.9,6.7v2.4h-0.1
			c-0.8,0-1.4,0.6-1.4,1.4c0,0.8,0.6,1.4,1.4,1.4h0.1v1.9c0,5.2,4.2,9.5,9.5,9.5s9.4-4.2,9.4-9.5v-1.9h0.1c0.8,0,1.4-0.6,1.4-1.4
			C39.2,63.3,38.6,62.7,37.8,62.7z"/>
		<path fill="#231F20" d="M34.4,64.3c-0.4,0-0.7-0.3-0.7-0.6c-0.1-0.5-0.5-0.8-1-0.8c-0.5,0-0.9,0.4-1,0.8c-0.1,0.4-0.5,0.7-0.9,0.6
			c-0.4-0.1-0.7-0.5-0.6-0.9c0.2-1.2,1.3-2.1,2.5-2.1c1.2,0,2.3,0.9,2.5,2.1c0.1,0.4-0.2,0.8-0.6,0.9C34.5,64.3,34.4,64.3,34.4,64.3
			z"/>
		<path fill="#231F20" d="M25.6,64.3c-0.4,0-0.7-0.3-0.7-0.6c-0.1-0.5-0.5-0.8-1-0.8c-0.5,0-0.9,0.4-1,0.8c-0.1,0.4-0.5,0.7-0.9,0.6
			c-0.4-0.1-0.7-0.5-0.6-0.9c0.2-1.2,1.3-2.1,2.5-2.1s2.3,0.9,2.5,2.1c0.1,0.4-0.2,0.8-0.6,0.9C25.7,64.3,25.7,64.3,25.6,64.3z"/>
		<path fill="#231F20" d="M28.3,73.4c-1.8,0-3.4-1.2-3.9-2.9l-0.3-1h8.3l-0.3,1C31.6,72.2,30,73.4,28.3,73.4z M26.3,71.1
			c0.5,0.6,1.2,0.9,1.9,0.9c0.8,0,1.5-0.3,1.9-0.9H26.3z"/>
		<line fill="#FFFFFF" x1="35.8" y1="91.2" x2="35.8" y2="88.6"/>
		<line fill="#FFFFFF" x1="20.7" y1="91.2" x2="20.7" y2="88.6"/>
		<circle fill="#FFFFFF" cx="101.2" cy="64.7" r="27.5"/>
		<path fill="#FF7058" d="M114.3,66.5c0,2.4-0.3,4.7-0.8,6.8c-2.9-1.3-7.4-2.1-12.3-2.1c-5,0-9.4,0.8-12.3,2.1
			c-0.5-2.1-0.8-4.4-0.8-6.8c0-14.4,5.9-20.4,13.1-20.4C108.5,46.1,114.3,52.1,114.3,66.5z"/>
		<path fill="#84DBFF" d="M101.2,77.5L101.2,77.5c-6.7,0-12.3,4.9-13.2,11.4c3.9,2.2,8.4,3.4,13.2,3.4c4.8,0,9.3-1.2,13.2-3.4
			C113.5,82.4,107.9,77.5,101.2,77.5z"/>
		<path fill="#FFFFFF" d="M104.8,74.3h-7v6c0,1.8,1.4,3.2,3.2,3.2h0.7c1.8,0,3.2-1.4,3.2-3.2V74.3z"/>
		<path fill="#FFFFFF" d="M112.2,64.1c0,0.8-0.6,1.4-1.4,1.4h-0.1v1.9c0,5.2-4.2,9.5-9.4,9.5c-5.2,0-9.5-4.2-9.5-9.5v-1.9h-0.1
			c-0.8,0-1.4-0.6-1.4-1.4c0-0.8,0.6-1.4,1.4-1.4h0.1v-4.9c2.2,1.1,5.6,1.8,9.4,1.8c3.8,0,7.2-0.7,9.5-1.8v4.9h0.1
			C111.5,62.7,112.2,63.3,112.2,64.1z"/>
		<path fill="#231F20" d="M107.4,64.3c-0.4,0-0.7-0.3-0.7-0.6c-0.1-0.5-0.5-0.8-1-0.8c-0.5,0-0.9,0.4-1,0.8
			c-0.1,0.4-0.5,0.7-0.9,0.6c-0.4-0.1-0.7-0.5-0.6-0.9c0.2-1.2,1.3-2.1,2.5-2.1c1.2,0,2.3,0.9,2.5,2.1c0.1,0.4-0.2,0.8-0.6,0.9
			C107.5,64.3,107.4,64.3,107.4,64.3z"/>
		<path fill="#231F20" d="M95.1,64.3c0,0-0.1,0-0.1,0c-0.4-0.1-0.7-0.5-0.6-0.9c0.2-1.2,1.3-2.1,2.5-2.1c1.2,0,2.3,0.9,2.5,2.1
			c0.1,0.4-0.2,0.8-0.6,0.9c-0.4,0.1-0.8-0.2-0.9-0.6c-0.1-0.5-0.5-0.8-1-0.8c-0.5,0-0.9,0.4-1,0.8C95.8,64.1,95.5,64.3,95.1,64.3z"
			/>
		<path fill="#231F20" d="M101.2,73.4c-1.8,0-3.4-1.2-3.9-2.9l-0.3-1h8.3l-0.3,1C104.6,72.2,103,73.4,101.2,73.4z M99.3,71.1
			c0.5,0.6,1.2,0.9,1.9,0.9s1.5-0.3,1.9-0.9H99.3z"/>
		<line fill="#FFFFFF" x1="108.8" y1="91.2" x2="108.8" y2="88.6"/>
		<line fill="#FFFFFF" x1="93.7" y1="91.2" x2="93.7" y2="88.6"/>
		<path fill="#FFFFFF" d="M70.1,128.7H36.4c-2,0-3.6-1.6-3.6-3.6v-24.7c0-2,1.6-3.6,3.6-3.6h33.8c2,0,3.6,1.6,3.6,3.6v24.7
			C73.7,127.1,72.1,128.7,70.1,128.7z"/>
		<g>
			<path fill="#231F20" d="M111.9,94.3c-0.6,0-1.3,0-1.9,0.1c0.8-1.2,1.5-2.4,2.2-3.7c10.1-4.3,17.2-14.3,17.2-26
				c0-11.7-7.1-21.7-17.2-26c-9.2-16.8-27.1-28.2-47.6-28.2c-20.5,0-38.3,11.4-47.5,28.2C7.1,43,0,53.1,0,64.7
				c0,11.7,7.1,21.7,17.2,26c3.7,6.7,8.7,12.5,14.8,17.1v17.3c0,2.4,2,4.4,4.4,4.4h33.8c2.4,0,4.4-2,4.4-4.4V118
				c7.3-1.3,14-4.1,19.9-8c-0.1,0.6-0.1,1.3-0.1,1.9c0,9.7,7.9,17.6,17.6,17.6c9.7,0,17.6-7.9,17.6-17.6
				C129.5,102.2,121.6,94.3,111.9,94.3z M109.6,90.1v-1.6c0-0.4-0.3-0.8-0.8-0.8c-0.4,0-0.8,0.3-0.8,0.8v2c-2.2,0.6-4.5,0.9-6.8,0.9
				c-2.4,0-4.6-0.3-6.8-0.9v-2c0-0.4-0.3-0.8-0.8-0.8c-0.4,0-0.8,0.3-0.8,0.8v1.6c-1.4-0.5-2.8-1-4.1-1.7c0.9-4.4,4.1-7.9,8.1-9.4
				v1.2c0,2.2,1.8,3.9,3.9,3.9h0.7c2.2,0,3.9-1.8,3.9-3.9V79c4.1,1.5,7.3,5,8.1,9.4C112.3,89.1,111,89.7,109.6,90.1z M92.4,64.7
				h-0.8c-0.3,0-0.6-0.3-0.6-0.6c0-0.3,0.3-0.6,0.7-0.6h0.8v-4.5c2.3,0.9,5.4,1.4,8.7,1.4c3.3,0,6.4-0.5,8.7-1.4v3.8l0.1,0.8h0.8
				c0.3,0,0.6,0.3,0.6,0.6c0,0.3-0.3,0.6-0.7,0.6h-0.8v2.6c0,4.8-3.9,8.7-8.7,8.7c-4.8,0-8.7-3.9-8.7-8.7v-1.9L92.4,64.7z M104,77.1
				v3.1c0,1.3-1.1,2.4-2.4,2.4h-0.7c-1.3,0-2.4-1.1-2.4-2.4v-3.1c0.9,0.3,1.8,0.4,2.8,0.4C102.2,77.5,103.1,77.4,104,77.1z
				 M128,64.7c0,9.7-5.2,18.2-13,22.9c-1.1-4.9-4.8-8.7-9.5-10.2v-0.8c3.5-1.6,5.9-5.2,5.9-9.3v-1.2c0.9-0.3,1.5-1.1,1.5-2
				c0-0.9-0.6-1.7-1.5-2v-5.5l-1.1,0.5c-2.2,1.1-5.5,1.7-9.1,1.7c-3.6,0-6.9-0.6-9.1-1.7L91,56.6V62c-0.9,0.3-1.5,1.1-1.5,2
				c0,0.9,0.6,1.7,1.5,2v1.2c0,4.1,2.4,7.6,5.9,9.3v0.8c-4.7,1.5-8.4,5.4-9.5,10.2c-7.8-4.7-13-13.2-13-22.9
				c0-14.7,12-26.7,26.7-26.7C116,38,128,50,128,64.7z M110.1,37.9c-2.8-0.9-5.7-1.4-8.8-1.4c-1.5,0-3,0.1-4.4,0.3
				c-4.5-10.9-11.6-19.2-20-23.4C91,16.8,102.9,25.8,110.1,37.9z M95.3,37.1c-5,1.1-9.5,3.4-13.1,6.8C80.1,28.7,75.6,17.1,70,12.6
				C80.7,14.9,89.9,24.2,95.3,37.1z M65.5,12.1c6.9,0.9,12.8,14.6,15.3,33.2C76.2,50.1,73.2,56.7,73,64h-7.5V12.1z M64,12.1V64h-7.5
				c-0.2-7.3-3.1-13.8-7.8-18.8C51.2,26.7,57.1,13,64,12.1z M48.7,84.2c4.7-4.9,7.6-11.5,7.8-18.7H64v30.6H50.9
				C50,92.4,49.2,88.5,48.7,84.2z M49.3,96.1H36.4c-0.1,0-0.3,0-0.4,0c-0.6-1.2-1.2-2.5-1.8-3.8c5-1.1,9.5-3.4,13.1-6.8
				C47.8,89.3,48.5,92.8,49.3,96.1z M47.3,43.9c-3.6-3.3-8.1-5.7-13.1-6.8c5.5-13,14.6-22.2,25.3-24.5
				C53.9,17.1,49.4,28.7,47.3,43.9z M52.7,13.4c-8.4,4.2-15.4,12.6-20,23.4c-1.4-0.2-2.9-0.4-4.4-0.4c-3.1,0-6,0.5-8.8,1.4
				C26.7,25.8,38.6,16.8,52.7,13.4z M1.5,64.7C1.5,50,13.5,38,28.3,38c6.6,0,12.7,2.4,17.4,6.5h1.8v1.7C52.1,51,55,57.5,55,64.7
				c0,9.7-5.2,18.2-13,22.9c-1.1-4.9-4.8-8.7-9.5-10.2v-0.8c3.5-1.6,5.9-5.2,5.9-9.3v-1.2c0.9-0.3,1.5-1.1,1.5-2
				c0-0.9-0.6-1.7-1.5-2v-1c0.1,0,0.1,0,0.2,0c0.4,0,0.8-0.3,0.8-0.8c0-0.4-0.3-0.8-0.8-0.8c-0.3,0-0.6,0-0.9,0
				c-3.4-0.3-6.4-2.8-7.3-6.1c-0.1-0.3-0.3-0.5-0.6-0.5c-0.3,0-0.6,0.1-0.7,0.4c-2.2,3.6-6.1,6-10.4,6.3c-0.3,0-0.6,0-1,0
				c-0.4,0-0.8,0.3-0.8,0.8c0,0.4,0.3,0.8,0.8,0.8c0.1,0,0.2,0,0.3,0v1c-0.9,0.3-1.5,1.1-1.5,2c0,0.9,0.6,1.7,1.5,2v1.2
				c0,4.1,2.4,7.6,5.9,9.3v0.8c-4.7,1.5-8.4,5.4-9.5,10.2C6.7,83,1.5,74.5,1.5,64.7z M28.3,76c-4.8,0-8.7-3.9-8.7-8.7v-1.9l-0.1-0.8
				h-0.8c-0.3,0-0.6-0.3-0.6-0.6c0-0.3,0.3-0.6,0.7-0.6h0.8v-2.5c0,0,0,0,0,0c0,0,0-0.1,0,0c4-0.5,7.6-2.5,10-5.7
				c1.4,3,4.2,5.1,7.4,5.7v1.8l0.1,0.8h0.8c0.3,0,0.6,0.3,0.6,0.6c0,0.3-0.3,0.6-0.7,0.6H37v2.6C37,72.1,33.1,76,28.3,76z M31,77.1
				v3.1c0,1.3-1.1,2.4-2.4,2.4h-0.7c-1.3,0-2.4-1.1-2.4-2.4v-3.1c0.9,0.2,1.8,0.4,2.8,0.4C29.2,77.5,30.1,77.4,31,77.1z M15.9,88.4
				c0.9-4.4,4-7.9,8.1-9.4v1.2c0,2.2,1.8,3.9,3.9,3.9h0.7c2.2,0,3.9-1.8,3.9-3.9V79c4.1,1.5,7.3,5,8.1,9.4c-1.3,0.7-2.7,1.3-4.1,1.7
				v-1.6c0-0.4-0.3-0.8-0.8-0.8c-0.4,0-0.8,0.3-0.8,0.8v2c-2.2,0.6-4.5,0.9-6.8,0.9s-4.6-0.3-6.8-0.9v-2c0-0.4-0.3-0.8-0.8-0.8
				s-0.8,0.3-0.8,0.8v1.6C18.5,89.7,17.2,89.1,15.9,88.4z M32,100.4v5.5c-5-4-9.2-8.8-12.5-14.3c2.8,0.9,5.7,1.4,8.8,1.4
				c1.5,0,3-0.1,4.4-0.3c0.6,1.3,1.2,2.6,1.8,3.9C33,97.2,32,98.7,32,100.4z M73,125.1c0,1.6-1.3,2.9-2.9,2.9H36.4
				c-1.6,0-2.9-1.3-2.9-2.9v-24.7c0-1.6,1.3-2.9,2.9-2.9h33.8c1.6,0,2.9,1.3,2.9,2.9V125.1z M70.1,96.1h-4.6V65.5H73
				c0.2,7.3,3.1,13.8,7.8,18.7c-1.3,9.6-3.5,17.9-6.3,23.8v-7.6C74.5,98,72.5,96.1,70.1,96.1z M74.5,111.3
				c3.5-5.9,6.2-14.9,7.7-25.8c3.6,3.3,8.1,5.7,13.1,6.8c-4.7,11.1-12.1,19.4-20.8,23.1V111.3z M76.8,116c8.4-4.2,15.5-12.6,20-23.4
				c1.4,0.2,2.9,0.3,4.4,0.3c3.1,0,6-0.5,8.8-1.4c-0.7,1.1-1.4,2.2-2.1,3.2c-6.5,1.5-11.7,6.6-13.2,13.2
				C89.4,111.7,83.4,114.5,76.8,116z M111.9,128c-8.9,0-16.1-7.2-16.1-16.1c0-8.9,7.2-16.1,16.1-16.1c8.9,0,16.1,7.2,16.1,16.1
				C128,120.8,120.8,128,111.9,128z"/>
			<path fill="#231F20" d="M19.6,60.9C19.6,60.9,19.6,60.9,19.6,60.9L19.6,60.9L19.6,60.9C19.6,60.9,19.6,60.9,19.6,60.9z"/>
		</g>
		<path fill="#FFD05B" d="M73.7,103.3v-2.9c0-2-1.6-3.6-3.6-3.6H36.4c-2,0-3.6,1.6-3.6,3.6v2.9H73.7z"/>
		<path fill="#FF7058" d="M77.5,13.5c0,11.7-12.8,23.7-12.8,23.7S52,25.2,52,13.5c0-7.1,5.7-12.8,12.8-12.8
			C71.8,0.7,77.5,6.5,77.5,13.5z"/>
		<path fill="#231F20" d="M73.7,104.1h-41c-0.4,0-0.8-0.3-0.8-0.8v-2.9c0-2.4,2-4.4,4.4-4.4h33.8c2.4,0,4.4,2,4.4,4.4v2.9
			C74.5,103.7,74.2,104.1,73.7,104.1z M33.5,102.6H73v-2.1c0-1.6-1.3-2.9-2.9-2.9H36.4c-1.6,0-2.9,1.3-2.9,2.9V102.6z"/>
		<circle fill="#FFFFFF" cx="70.1" cy="99.9" r="1.2"/>
		<circle fill="#FFFFFF" cx="66.3" cy="99.9" r="1.2"/>
		<circle fill="#FFFFFF" cx="62.5" cy="99.9" r="1.2"/>
		<rect x="37.1" y="110.1" fill="#231F20" width="5.2" height="1.5"/>
		<rect x="43.8" y="110.1" fill="#231F20" width="21.4" height="1.5"/>
		<rect x="39.2" y="112.7" fill="#231F20" width="5.2" height="1.5"/>
		<rect x="45.9" y="112.7" fill="#231F20" width="17.2" height="1.5"/>
		<rect x="42.2" y="115.3" fill="#231F20" width="5.2" height="1.5"/>
		<rect x="49" y="115.3" fill="#231F20" width="11.1" height="1.5"/>
		<rect x="39.8" y="117.8" fill="#231F20" width="5.2" height="1.5"/>
		<rect x="46.5" y="117.8" fill="#231F20" width="22.9" height="1.5"/>
		<rect x="40.5" y="120.4" fill="#231F20" width="5.2" height="1.5"/>
		<rect x="47.3" y="120.4" fill="#231F20" width="14.5" height="1.5"/>
		<path fill="#FFFFFF" d="M128.7,14c-0.1-0.8-0.8-1.4-1.7-1.4l-1.2,0c0.9,0,1.7-0.8,1.6-1.8c-0.1-0.8-0.8-1.4-1.7-1.4h-6.4
			c-0.4,0-0.7-0.4-0.5-0.8l0.5-1.2c0.4-1,0.9-2.6,0.1-4.8c-0.4-1.1-1.4-1.9-2.6-1.9h-0.8v3.5c0,0.5-0.1,1-0.4,1.5l-2.2,3.5
			c-0.5,0.8-1.3,1.3-2.2,1.4l-2,0.1v11.1l5.5,0.2H125c0.8,0,1.6-0.6,1.7-1.4c0.1-1-0.7-1.8-1.6-1.8h0.6c0.8,0,1.6-0.6,1.7-1.4
			c0.1-1-0.7-1.8-1.6-1.8h1.4C128.1,15.8,128.8,14.9,128.7,14z"/>
		<path fill="#231F20" d="M125,22.9h-10.2l-5.5-0.2c-0.4,0-0.7-0.3-0.7-0.7V10.8c0-0.4,0.3-0.7,0.7-0.7l2-0.1c0.7,0,1.3-0.4,1.6-1
			l2.2-3.5c0.2-0.3,0.3-0.7,0.3-1.1V0.8c0-0.4,0.3-0.8,0.8-0.8h0.8c1.5,0,2.8,1,3.3,2.4c0.8,2.4,0.4,4.1-0.1,5.3l-0.4,0.9h6.1
			c1.2,0,2.3,0.9,2.4,2.1c0,0.4,0,0.9-0.2,1.3c0.8,0.3,1.4,1.1,1.5,1.9c0.1,0.7-0.2,1.3-0.6,1.8c-0.3,0.3-0.6,0.5-1,0.6
			c0.2,0.4,0.2,0.8,0.2,1.2c-0.1,0.7-0.5,1.3-1,1.7c0.3,0.4,0.4,1,0.4,1.5C127.3,22,126.2,22.9,125,22.9z M110.1,21.2l4.8,0.2
			l10.2,0c0.5,0,0.9-0.3,0.9-0.8c0-0.2-0.1-0.5-0.2-0.7c-0.2-0.2-0.4-0.3-0.6-0.3c-0.4,0-0.8-0.3-0.8-0.8c0-0.4,0.3-0.8,0.8-0.8h0.6
			c0.5,0,0.9-0.3,0.9-0.8c0-0.2-0.1-0.5-0.2-0.7c-0.2-0.2-0.4-0.3-0.6-0.3c-0.4,0-0.8-0.3-0.8-0.8c0-0.4,0.3-0.8,0.8-0.8h1.4
			c0.2,0,0.5-0.1,0.6-0.3c0.2-0.2,0.2-0.4,0.2-0.7c0-0.4-0.4-0.8-0.9-0.8h-1.2c-0.4,0-0.8-0.3-0.8-0.8c0-0.4,0.3-0.8,0.8-0.8
			c0.2,0,0.5-0.1,0.6-0.3c0.2-0.2,0.2-0.4,0.2-0.7c0-0.4-0.4-0.8-0.9-0.8h-6.4c-0.4,0-0.8-0.2-1.1-0.6c-0.2-0.4-0.3-0.8-0.1-1.2
			l0.5-1.2c0.4-1.1,0.7-2.4,0.1-4.3c-0.3-0.8-1-1.4-1.9-1.4h0v2.8c0,0.7-0.2,1.3-0.5,1.9l-2.2,3.5c-0.6,1-1.7,1.6-2.8,1.7l-1.3,0.1
			V21.2z"/>
		
			<path fill="#FFFFFF" stroke="#231F20" stroke-width="1.5" stroke-linecap="round" stroke-linejoin="round" stroke-miterlimit="10" d="
			M125.9,12.5"/>
		
			<path fill="#FFFFFF" stroke="#231F20" stroke-width="1.5" stroke-linecap="round" stroke-linejoin="round" stroke-miterlimit="10" d="
			M125.8,15.7"/>
		
			<path fill="#FFFFFF" stroke="#231F20" stroke-width="1.5" stroke-linecap="round" stroke-linejoin="round" stroke-miterlimit="10" d="
			M125.1,19"/>
		<rect x="105.6" y="9" fill="#84DBFF" width="4.5" height="14.9"/>
		<path fill="#231F20" d="M120,33.5c-1.8,0-3.3-1.5-3.3-3.2c0-1.8,1.5-3.2,3.3-3.2s3.3,1.5,3.3,3.2C123.2,32.1,121.8,33.5,120,33.5z
			 M120,28.5c-1,0-1.8,0.8-1.8,1.8c0,1,0.8,1.7,1.8,1.7s1.8-0.8,1.8-1.7C121.7,29.3,121,28.5,120,28.5z"/>
		<circle fill="#84DBFF" cx="16.2" cy="121.7" r="2.5"/>
		<circle fill="#FF7058" cx="3.3" cy="37.9" r="2.5"/>
		<circle fill="#FFFFFF" cx="64.7" cy="13.7" r="8.2"/>
	</g>
</g>
</svg>
