<?xml version="1.0" encoding="utf-8"?>
<!-- Generator: Adobe Illustrator 18.0.0, SVG Export Plug-In . SVG Version: 6.00 Build 0)  -->
<!DOCTYPE svg PUBLIC "-//W3C//DTD SVG 1.1//EN" "http://www.w3.org/Graphics/SVG/1.1/DTD/svg11.dtd">
<svg version="1.1" id="Layer_1" xmlns="http://www.w3.org/2000/svg" xmlns:xlink="http://www.w3.org/1999/xlink" x="0px" y="0px"
	 viewBox="0 0 129.5 129.5" enable-background="new 0 0 129.5 129.5" xml:space="preserve">
<g>
	<g>
		
			<path fill="#FFFFFF" stroke="#231F20" stroke-width="0.25" stroke-linecap="round" stroke-linejoin="round" stroke-miterlimit="10" d="
			M57.6,51.5"/>
		<g>
			<path fill="#231F20" d="M89.9,6.5c-0.2,0-0.4-0.1-0.5-0.2c-0.3-0.3-0.3-0.8,0-1.1L90.7,4c0.3-0.3,0.8-0.3,1.1,0
				C92,4.3,92,4.7,91.7,5l-1.3,1.3C90.3,6.5,90.1,6.5,89.9,6.5z"/>
		</g>
		<g>
			<path fill="#231F20" d="M85.9,10.6c-0.2,0-0.4-0.1-0.5-0.2c-0.3-0.3-0.3-0.8,0-1.1L86.6,8c0.3-0.3,0.8-0.3,1.1,0
				c0.3,0.3,0.3,0.8,0,1.1l-1.3,1.3C86.3,10.5,86.1,10.6,85.9,10.6z"/>
		</g>
		<g>
			<path fill="#231F20" d="M91.2,10.6c-0.2,0-0.4-0.1-0.5-0.2l-1.3-1.3c-0.3-0.3-0.3-0.8,0-1.1c0.3-0.3,0.8-0.3,1.1,0l1.3,1.3
				c0.3,0.3,0.3,0.8,0,1.1C91.6,10.5,91.4,10.6,91.2,10.6z"/>
		</g>
		<g>
			<path fill="#231F20" d="M87.2,6.5c-0.2,0-0.4-0.1-0.5-0.2L85.3,5c-0.3-0.3-0.3-0.8,0-1.1c0.3-0.3,0.8-0.3,1.1,0l1.3,1.3
				C88,5.5,88,6,87.7,6.3C87.5,6.5,87.4,6.5,87.2,6.5z"/>
		</g>
		<g>
			<path fill="#231F20" d="M14.1,36.3c-0.2,0-0.4-0.1-0.5-0.2c-0.3-0.3-0.3-0.8,0-1.1l1.3-1.3c0.3-0.3,0.8-0.3,1.1,0
				c0.3,0.3,0.3,0.8,0,1.1l-1.3,1.3C14.5,36.2,14.3,36.3,14.1,36.3z"/>
		</g>
		<g>
			<path fill="#231F20" d="M10.1,40.3c-0.2,0-0.4-0.1-0.5-0.2c-0.3-0.3-0.3-0.8,0-1.1l1.3-1.3c0.3-0.3,0.8-0.3,1.1,0
				c0.3,0.3,0.3,0.8,0,1.1l-1.3,1.3C10.5,40.3,10.3,40.3,10.1,40.3z"/>
		</g>
		<g>
			<path fill="#231F20" d="M15.4,40.3c-0.2,0-0.4-0.1-0.5-0.2l-1.3-1.3c-0.3-0.3-0.3-0.8,0-1.1c0.3-0.3,0.8-0.3,1.1,0l1.3,1.3
				c0.3,0.3,0.3,0.8,0,1.1C15.8,40.3,15.6,40.3,15.4,40.3z"/>
		</g>
		<g>
			<path fill="#231F20" d="M11.4,36.3c-0.2,0-0.4-0.1-0.5-0.2l-1.3-1.3c-0.3-0.3-0.3-0.8,0-1.1c0.3-0.3,0.8-0.3,1.1,0l1.3,1.3
				c0.3,0.3,0.3,0.8,0,1.1C11.8,36.2,11.6,36.3,11.4,36.3z"/>
		</g>
		<g>
			<path fill="#231F20" d="M118.9,117.2c-0.2,0-0.4-0.1-0.5-0.2c-0.3-0.3-0.3-0.8,0-1.1l1.3-1.3c0.3-0.3,0.8-0.3,1.1,0
				c0.3,0.3,0.3,0.8,0,1.1l-1.3,1.3C119.3,117.1,119.1,117.2,118.9,117.2z"/>
		</g>
		<g>
			<path fill="#231F20" d="M114.8,121.2c-0.2,0-0.4-0.1-0.5-0.2c-0.3-0.3-0.3-0.8,0-1.1l1.3-1.3c0.3-0.3,0.8-0.3,1.1,0
				c0.3,0.3,0.3,0.8,0,1.1l-1.3,1.3C115.2,121.1,115,121.2,114.8,121.2z"/>
		</g>
		<g>
			<path fill="#231F20" d="M120.2,121.2c-0.2,0-0.4-0.1-0.5-0.2l-1.3-1.3c-0.3-0.3-0.3-0.8,0-1.1c0.3-0.3,0.8-0.3,1.1,0l1.3,1.3
				c0.3,0.3,0.3,0.8,0,1.1C120.5,121.1,120.3,121.2,120.2,121.2z"/>
		</g>
		<g>
			<path fill="#231F20" d="M116.1,117.2c-0.2,0-0.4-0.1-0.5-0.2l-1.3-1.3c-0.3-0.3-0.3-0.8,0-1.1c0.3-0.3,0.8-0.3,1.1,0l1.3,1.3
				c0.3,0.3,0.3,0.8,0,1.1C116.5,117.1,116.3,117.2,116.1,117.2z"/>
		</g>
		<g>
			<line fill="#FFFFFF" x1="40.6" y1="35.6" x2="48.7" y2="35.6"/>
			<path fill="#231F20" d="M48.7,36.4h-8.1c-0.4,0-0.8-0.3-0.8-0.8c0-0.4,0.3-0.8,0.8-0.8h8.1c0.4,0,0.8,0.3,0.8,0.8
				C49.4,36,49.1,36.4,48.7,36.4z"/>
		</g>
		<g>
			<line fill="#FFFFFF" x1="47.9" y1="38.6" x2="51.8" y2="38.6"/>
			<path fill="#231F20" d="M51.8,39.3h-4c-0.4,0-0.8-0.3-0.8-0.8c0-0.4,0.3-0.8,0.8-0.8h4c0.4,0,0.8,0.3,0.8,0.8
				C52.6,39,52.3,39.3,51.8,39.3z"/>
		</g>
		<g>
			<line fill="#FFFFFF" x1="52.3" y1="35.6" x2="56.1" y2="35.6"/>
			<path fill="#231F20" d="M56.1,36.4h-3.8c-0.4,0-0.8-0.3-0.8-0.8c0-0.4,0.3-0.8,0.8-0.8h3.8c0.4,0,0.8,0.3,0.8,0.8
				C56.9,36,56.5,36.4,56.1,36.4z"/>
		</g>
		<g>
			<line fill="#FFFFFF" x1="44.2" y1="38.6" x2="45" y2="38.6"/>
			<path fill="#231F20" d="M45,39.3h-0.8c-0.4,0-0.8-0.3-0.8-0.8c0-0.4,0.3-0.8,0.8-0.8H45c0.4,0,0.8,0.3,0.8,0.8
				C45.7,39,45.4,39.3,45,39.3z"/>
		</g>
		<circle fill="#FFFFFF" cx="97.1" cy="33.8" r="3.3"/>
		<path fill="#231F20" d="M97.1,37.8c-2.2,0-4-1.8-4-4s1.8-4,4-4c2.2,0,4,1.8,4,4S99.3,37.8,97.1,37.8z M97.1,31.3
			c-1.4,0-2.5,1.1-2.5,2.5s1.1,2.5,2.5,2.5c1.4,0,2.5-1.1,2.5-2.5S98.5,31.3,97.1,31.3z"/>
		<circle fill="#E6E9EE" cx="11.4" cy="87.5" r="2.5"/>
		<circle fill="#84DBFF" cx="117.5" cy="34.9" r="2.5"/>
		<circle fill="#84DBFF" cx="8.9" cy="50.1" r="2.5"/>
		<circle fill="#FFD05B" cx="104.5" cy="125.2" r="2.5"/>
		<circle fill="#FF7058" cx="124.1" cy="73.6" r="2.5"/>
		<path fill="#E6E9EE" d="M40.5,17.6c0,3.9-3.2,7.1-7.1,7.1H10.7c-3.9,0-7.1-3.2-7.1-7.1c0-3.2,2.1-5.9,5.1-6.8c0-0.1,0-0.2,0-0.3
			c0-5.4,4.4-9.8,9.8-9.8c3.8,0,7.1,2.1,8.7,5.3c0.6-0.4,1.4-0.7,2.3-0.7c2.2,0,4,1.8,4,4c0,0.4-0.1,0.8-0.2,1.2c0.1,0,0.1,0,0.2,0
			C37.3,10.5,40.5,13.7,40.5,17.6z"/>
		<path fill="#FFFFFF" d="M23.5,22.3c0,4.4,3.6,7.9,7.9,7.9H57c4.4,0,7.9-3.6,7.9-7.9c0-3.6-2.4-6.6-5.7-7.6c0-0.1,0-0.2,0-0.3
			c0-6.1-4.9-11-11-11c-4.2,0-7.9,2.4-9.8,5.9c-0.7-0.5-1.6-0.8-2.5-0.8c-2.5,0-4.5,2-4.5,4.5c0,0.5,0.1,0.9,0.2,1.4
			c-0.1,0-0.1,0-0.2,0C27.1,14.4,23.5,17.9,23.5,22.3z"/>
		<path fill="#FFFFFF" d="M92.1,46.2H43.2c-2.9,0-5.3,2.4-5.3,5.3v72.1c0,2.9,2.4,5.3,5.3,5.3h48.9c2.9,0,5.3-2.4,5.3-5.3V51.4
			C97.4,48.5,95,46.2,92.1,46.2z"/>
		<rect x="42.3" y="55.2" fill="#FFD05B" width="50.7" height="59.8"/>
		<circle fill="#FFFFFF" cx="67.7" cy="122" r="3.3"/>
		<path fill="#231F20" d="M67.7,126c-2.2,0-4-1.8-4-4c0-2.2,1.8-4,4-4c2.2,0,4,1.8,4,4C71.7,124.2,69.9,126,67.7,126z M67.7,119.5
			c-1.4,0-2.5,1.1-2.5,2.5c0,1.4,1.1,2.5,2.5,2.5c1.4,0,2.5-1.1,2.5-2.5C70.2,120.6,69.1,119.5,67.7,119.5z"/>
		<g>
			<line fill="#FFFFFF" x1="60.9" y1="51.5" x2="69.9" y2="51.5"/>
			<path fill="#231F20" d="M69.9,52.3h-9c-0.4,0-0.8-0.3-0.8-0.8c0-0.4,0.3-0.8,0.8-0.8h9c0.4,0,0.8,0.3,0.8,0.8
				C70.7,51.9,70.3,52.3,69.9,52.3z"/>
		</g>
		<g>
			<line fill="#FFFFFF" x1="72.7" y1="51.5" x2="74.4" y2="51.5"/>
			<path fill="#231F20" d="M74.4,52.3h-1.7c-0.4,0-0.8-0.3-0.8-0.8c0-0.4,0.3-0.8,0.8-0.8h1.7c0.4,0,0.8,0.3,0.8,0.8
				C75.1,51.9,74.8,52.3,74.4,52.3z"/>
		</g>
		<circle fill="#FFFFFF" cx="63.1" cy="102.2" r="9.1"/>
		<circle fill="#FFFFFF" cx="63.1" cy="98.3" r="2"/>
		<path fill="#231F20" d="M63.1,101c-1.5,0-2.8-1.2-2.8-2.8c0-1.5,1.2-2.8,2.8-2.8c1.5,0,2.8,1.2,2.8,2.8
			C65.8,99.8,64.6,101,63.1,101z M63.1,97c-0.7,0-1.3,0.6-1.3,1.3c0,0.7,0.6,1.3,1.3,1.3c0.7,0,1.3-0.6,1.3-1.3
			C64.3,97.6,63.8,97,63.1,97z"/>
		<path fill="#FFFFFF" d="M58.1,107.1c0-2.8,2.2-5,5-5c2.8,0,5,2.2,5,5"/>
		<path fill="#231F20" d="M68.8,107.1h-1.5c0-2.3-1.9-4.2-4.2-4.2c-2.3,0-4.2,1.9-4.2,4.2h-1.5c0-3.2,2.6-5.7,5.7-5.7
			C66.2,101.4,68.8,104,68.8,107.1z"/>
		<circle fill="#FFFFFF" cx="71.7" cy="75.5" r="9.1"/>
		<circle fill="#FFFFFF" cx="71.7" cy="71.5" r="2"/>
		<path fill="#231F20" d="M71.7,74.3c-1.5,0-2.8-1.2-2.8-2.8c0-1.5,1.2-2.8,2.8-2.8c1.5,0,2.8,1.2,2.8,2.8
			C74.5,73.1,73.3,74.3,71.7,74.3z M71.7,70.3c-0.7,0-1.3,0.6-1.3,1.3c0,0.7,0.6,1.3,1.3,1.3c0.7,0,1.3-0.6,1.3-1.3
			C73,70.9,72.4,70.3,71.7,70.3z"/>
		<path fill="#FFFFFF" d="M66.8,80.4c0-2.8,2.2-5,5-5s5,2.2,5,5"/>
		<path fill="#231F20" d="M77.5,80.4H76c0-2.3-1.9-4.2-4.2-4.2s-4.2,1.9-4.2,4.2H66c0-3.2,2.6-5.7,5.7-5.7
			C74.9,74.7,77.5,77.3,77.5,80.4z"/>
		<path fill="#FFFFFF" d="M54,70.7c1.3-3.5,1.6-7.4,0.8-11.3c-2.4-10.7-13-17.4-23.7-15c-10.7,2.4-17.4,13-15,23.7
			c2.4,10.7,13,17.4,23.7,15c3.9-0.9,7.3-2.9,9.9-5.5l9.5,1.2L54,70.7z"/>
		<path fill="#FFFFFF" d="M81.3,97.4c-1.3-3.5-1.6-7.4-0.8-11.3c2.4-10.7,13-17.4,23.7-15c10.7,2.4,17.4,13,15,23.7
			c-2.4,10.7-13,17.4-23.7,15c-3.9-0.9-7.3-2.9-9.9-5.5l-9.5,1.2L81.3,97.4z"/>
		<path fill="#231F20" d="M117.3,79.5c-2.9-4.6-7.5-7.9-12.9-9.1c-1.5-0.3-3-0.5-4.6-0.5c-0.6,0-1.2,0-1.8,0.1V51.4c0-3.3-2.7-6-6-6
			H44.8c-2.8-1.4-6-2.3-9.4-2.3c-1.5,0-3.1,0.2-4.6,0.5c-5.4,1.2-9.9,4.4-12.9,9.1c-2.9,4.6-3.9,10.2-2.7,15.5
			c2.1,9.4,10.4,16,20,16c0.6,0,1.2,0,1.8-0.1v39.3c0,3.3,2.7,6,6,6h48.9c3.3,0,6-2.7,6-6V111c0.6,0.1,1.2,0.1,1.8,0.1
			c9.7,0,17.9-6.6,20.1-16C121.2,89.6,120.2,84.1,117.3,79.5z M16.8,68c-1.1-5-0.2-10.1,2.5-14.4c2.7-4.3,7-7.3,11.9-8.4
			c1.4-0.3,2.8-0.5,4.2-0.5c8.8,0,16.6,6.3,18.6,14.9c0.8,3.6,0.6,7.4-0.7,10.9c-0.1,0.2-0.1,0.5,0.1,0.7l4.3,6.7l-7.9-1
			c-0.2,0-0.5,0.1-0.6,0.2c-2.6,2.7-5.9,4.5-9.5,5.3c-1.4,0.3-2.8,0.5-4.2,0.5C26.6,82.8,18.8,76.6,16.8,68z M96.6,123.5
			c0,2.5-2,4.5-4.5,4.5H43.2c-2.5,0-4.5-2-4.5-4.5V84.1c0.4-0.1,0.8-0.1,1.3-0.2c3.8-0.9,7.2-2.7,10-5.5l9.1,1.1
			c0.3,0,0.6-0.1,0.7-0.3c0.2-0.2,0.2-0.6,0-0.8l-4.9-7.7c1.3-3.6,1.5-7.6,0.7-11.4c-1.2-5.1-4.1-9.4-8.2-12.3h44.8
			c2.5,0,4.5,2,4.5,4.5v18.7c-8.2,1.3-14.9,7.4-16.8,15.8c-0.9,3.8-0.6,7.7,0.7,11.4l-4.9,7.7c-0.2,0.2-0.2,0.6,0,0.8
			c0.2,0.2,0.4,0.4,0.7,0.3l9.1-1.1c2.7,2.7,6.2,4.6,10,5.5c0.4,0.1,0.8,0.2,1.3,0.2V123.5z M118.5,94.7c-2,8.8-9.6,14.9-18.6,14.9
			c-1.4,0-2.8-0.2-4.2-0.5c-3.6-0.8-6.9-2.7-9.5-5.3c-0.1-0.1-0.3-0.2-0.5-0.2c0,0-0.1,0-0.1,0l-7.9,1l4.3-6.7
			c0.1-0.2,0.2-0.4,0.1-0.7c-1.3-3.5-1.5-7.2-0.7-10.9c1.9-8.6,9.8-14.9,18.6-14.9c1.4,0,2.8,0.2,4.2,0.5c5,1.1,9.2,4.1,11.9,8.4
			C118.7,84.6,119.6,89.7,118.5,94.7z"/>
		<g>
			<line fill="#FFFFFF" x1="25.5" y1="58.1" x2="45.7" y2="58.1"/>
			<rect x="25.5" y="57.4" fill="#231F20" width="20.2" height="1.5"/>
		</g>
		<g>
			<line fill="#FFFFFF" x1="25.5" y1="63.8" x2="45.7" y2="63.8"/>
			<rect x="25.5" y="63" fill="#231F20" width="20.2" height="1.5"/>
		</g>
		<g>
			<line fill="#FFFFFF" x1="25.5" y1="69.4" x2="38.2" y2="69.4"/>
			<rect x="25.5" y="68.6" fill="#231F20" width="12.7" height="1.5"/>
		</g>
		<g>
			<line fill="#FFFFFF" x1="109.8" y1="84.8" x2="89.7" y2="84.8"/>
			<rect x="89.7" y="84.1" fill="#231F20" width="20.2" height="1.5"/>
		</g>
		<g>
			<line fill="#FFFFFF" x1="109.8" y1="90.5" x2="89.7" y2="90.5"/>
			<rect x="89.7" y="89.7" fill="#231F20" width="20.2" height="1.5"/>
		</g>
		<g>
			<line fill="#FFFFFF" x1="109.8" y1="96.1" x2="97.1" y2="96.1"/>
			<rect x="97.1" y="95.4" fill="#231F20" width="12.7" height="1.5"/>
		</g>
		<g>
			<path fill="#FFFFFF" d="M106.3,46.2c8.4,0,15.1,6.8,15.1,15.1"/>
			<path fill="#231F20" d="M121.4,62.1c-0.4,0-0.8-0.3-0.8-0.8c0-7.9-6.5-14.4-14.4-14.4c-0.4,0-0.8-0.3-0.8-0.8
				c0-0.4,0.3-0.8,0.8-0.8c8.8,0,15.9,7.1,15.9,15.9C122.2,61.7,121.9,62.1,121.4,62.1z"/>
		</g>
		<g>
			<path fill="#FFFFFF" d="M106.3,50.1c6.2,0,11.2,5,11.2,11.2"/>
			<path fill="#231F20" d="M117.5,62.1c-0.4,0-0.8-0.3-0.8-0.8c0-5.8-4.7-10.4-10.4-10.4c-0.4,0-0.8-0.3-0.8-0.8
				c0-0.4,0.3-0.8,0.8-0.8c6.6,0,11.9,5.4,11.9,11.9C118.2,61.7,117.9,62.1,117.5,62.1z"/>
		</g>
		<g>
			<path fill="#FFFFFF" d="M106.3,54.6c3.7,0,6.8,3,6.8,6.8"/>
			<path fill="#231F20" d="M113.1,62.1c-0.4,0-0.8-0.3-0.8-0.8c0-3.3-2.7-6-6-6c-0.4,0-0.8-0.3-0.8-0.8s0.3-0.8,0.8-0.8
				c4.1,0,7.5,3.4,7.5,7.5C113.8,61.7,113.5,62.1,113.1,62.1z"/>
		</g>
		<g>
			<circle fill="#FFFFFF" cx="106.3" cy="61.3" r="2.8"/>
			<path fill="#231F20" d="M106.3,64.9c-2,0-3.6-1.6-3.6-3.6c0-2,1.6-3.6,3.6-3.6s3.6,1.6,3.6,3.6C109.9,63.3,108.3,64.9,106.3,64.9
				z M106.3,59.2c-1.2,0-2.1,0.9-2.1,2.1c0,1.2,0.9,2.1,2.1,2.1c1.2,0,2.1-0.9,2.1-2.1C108.4,60.2,107.5,59.2,106.3,59.2z"/>
		</g>
		<polygon fill="#FFFFFF" points="82.2,28.7 70.4,25.2 74,36.9 76.7,31.5 		"/>
		<path fill="#231F20" d="M82.4,28l-11.8-3.5c-0.3-0.1-0.6,0-0.7,0.2c-0.2,0.2-0.3,0.5-0.2,0.7l3.5,11.8c0.1,0.3,0.3,0.5,0.7,0.5
			c0,0,0,0,0.1,0c0.3,0,0.5-0.2,0.7-0.4l2.3-4.5l4,4l1.1-1.1l-4-4l4.5-2.3c0.3-0.1,0.4-0.4,0.4-0.7C82.9,28.3,82.7,28.1,82.4,28z
			 M76.4,30.8c-0.1,0.1-0.3,0.2-0.3,0.3l-1.9,3.8l-2.6-8.6l8.6,2.6L76.4,30.8z"/>
		<circle fill="#FFFFFF" cx="8.2" cy="104" r="4.5"/>
		<path fill="#FFFFFF" d="M30.3,113.3c0,2.5-2,4.6-4.5,4.5c-2.5,0-4.5-2.1-4.5-4.6c0-2.5,2-4.6,4.5-4.5
			C28.3,108.7,30.3,110.7,30.3,113.3z"/>
		<circle fill="#FFFFFF" cx="25.8" cy="94.8" r="4.5"/>
		<path fill="#231F20" d="M25.8,107.9c-1.8,0-3.3,0.9-4.3,2.2l-8.3-4.4c0.2-0.6,0.3-1.1,0.3-1.8c0-0.6-0.1-1.2-0.3-1.8l8.3-4.4
			c0.2,0.2,0.3,0.4,0.5,0.7c1,1,2.3,1.6,3.7,1.6c1.4,0,2.7-0.6,3.7-1.6c2.1-2.1,2.1-5.4,0-7.5c-1-1-2.3-1.6-3.7-1.6
			C24.4,89.5,23,90,22,91c-1.5,1.5-1.9,3.6-1.2,5.5l-8.3,4.4c-1-1.3-2.5-2.2-4.3-2.2c-2.9,0-5.3,2.4-5.3,5.3c0,2.9,2.4,5.3,5.3,5.3
			c1.8,0,3.3-0.9,4.3-2.2l8.3,4.4c-0.2,0.6-0.3,1.1-0.3,1.8c0,2.9,2.4,5.3,5.3,5.3c0,0,0,0,0,0c2.9,0,5.3-2.4,5.3-5.3
			C31.1,110.3,28.7,107.9,25.8,107.9z M23.1,92.1c0.7-0.7,1.7-1.1,2.7-1.1c1,0,2,0.4,2.7,1.1c1.5,1.5,1.5,3.9,0,5.4
			c-1.4,1.4-3.9,1.4-5.4,0C21.6,96,21.6,93.5,23.1,92.1z M8.2,107.8c-2.1,0-3.8-1.7-3.8-3.8c0-2.1,1.7-3.8,3.8-3.8
			c2.1,0,3.8,1.7,3.8,3.8C12,106.1,10.3,107.8,8.2,107.8z M25.8,117v0.8V117c-2.1,0-3.8-1.7-3.8-3.8c0-2.1,1.7-3.8,3.8-3.8
			c2.1,0,3.8,1.7,3.8,3.8C29.6,115.3,27.9,117,25.8,117z"/>
		<g>
			<path fill="#FFFFFF" d="M76.7,20.8H42.6c-1.1,0-2-0.9-2-2v-4c0-1.1,0.9-2,2-2h34.1c1.1,0,2,0.9,2,2v4
				C78.7,19.9,77.8,20.8,76.7,20.8z"/>
		</g>
		<g>
			<path fill="#FF7058" d="M77.4,12.7h-7.7v8.1h7.7c0.7,0,1.3-0.6,1.3-1.3v-5.4C78.7,13.3,78.1,12.7,77.4,12.7z"/>
		</g>
		<g>
			<g>
				<path fill="#FFFFFF" d="M73.2,18.3c-0.6,0-1.2-0.2-1.6-0.7c-0.9-0.9-0.9-2.3,0-3.2c0.8-0.8,2.3-0.8,3.2,0c0.9,0.9,0.9,2.3,0,3.2
					C74.4,18.1,73.8,18.3,73.2,18.3z M73.2,15.3c-0.2,0-0.4,0.1-0.5,0.2c-0.3,0.3-0.3,0.8,0,1.1c0.3,0.3,0.8,0.3,1.1,0
					c0.3-0.3,0.3-0.8,0-1.1C73.6,15.4,73.4,15.3,73.2,15.3z"/>
			</g>
			<g>
				<path fill="#FFFFFF" d="M76.1,19.7c-0.2,0-0.4-0.1-0.5-0.2l-1.8-1.8c-0.3-0.3-0.3-0.8,0-1.1c0.3-0.3,0.8-0.3,1.1,0l1.8,1.8
					c0.3,0.3,0.3,0.8,0,1.1C76.5,19.6,76.3,19.7,76.1,19.7z"/>
			</g>
		</g>
		<path fill="#231F20" d="M76.7,12h-17c-1.1-5.3-5.8-9.3-11.5-9.3c-4.1,0-7.9,2.1-10,5.6c-0.7-0.3-1.5-0.5-2.2-0.5
			c-2.9,0-5.2,2.3-5.2,5.2c0,0.2,0,0.4,0,0.7c-4.5,0.4-8,4.1-8,8.7c0,4.8,3.9,8.7,8.7,8.7H57c4.8,0,8.7-3.9,8.7-8.7
			c0-0.3,0-0.5,0-0.8h11.1c1.5,0,2.8-1.2,2.8-2.8v-4C79.5,13.2,78.2,12,76.7,12z M64.1,22.3c0,4-3.2,7.2-7.2,7.2H31.5
			c-4,0-7.2-3.2-7.2-7.2c0-4,3.2-7.2,7.2-7.2l0.2,0c0.2,0,0.5-0.1,0.6-0.3c0.2-0.2,0.2-0.5,0.1-0.7c-0.1-0.4-0.2-0.8-0.2-1.2
			c0-2.1,1.7-3.7,3.7-3.7c0.8,0,1.5,0.2,2.1,0.7c0.2,0.1,0.4,0.2,0.6,0.1c0.2-0.1,0.4-0.2,0.5-0.4c1.8-3.4,5.3-5.5,9.1-5.5
			c4.8,0,8.9,3.4,9.9,7.8H42.6c-1.5,0-2.8,1.2-2.8,2.8v4c0,1.5,1.2,2.8,2.8,2.8h21.5C64.1,21.8,64.1,22,64.1,22.3z M78,18.8
			c0,0.7-0.6,1.3-1.3,1.3H42.6c-0.7,0-1.3-0.6-1.3-1.3v-4c0-0.7,0.6-1.3,1.3-1.3h34.1c0.7,0,1.3,0.6,1.3,1.3V18.8z"/>
		<circle fill="#FFFFFF" cx="111.4" cy="13.5" r="12.7"/>
		<ellipse fill="#FFFFFF" cx="111.4" cy="13.5" rx="6.9" ry="12.7"/>
		<path fill="#231F20" d="M111.4,0c-7.4,0-13.5,6-13.5,13.5c0,7.4,6,13.5,13.5,13.5c7.4,0,13.5-6,13.5-13.5C124.8,6,118.8,0,111.4,0
			z M117.5,12.7h-5.4V1.6C115,2.3,117.3,7.1,117.5,12.7z M110.6,1.6v11.1h-5.4C105.4,7.1,107.7,2.3,110.6,1.6z M110.6,14.2v11.1
			c-2.9-0.7-5.2-5.5-5.4-11.1H110.6z M112.1,25.4V14.2h5.4C117.3,19.9,115,24.6,112.1,25.4z M123.3,12.7H119
			c-0.1-4.4-1.4-8.1-3.3-10.4C119.9,4,123,8,123.3,12.7z M107,2.3c-1.9,2.3-3.1,6-3.3,10.4h-4.3C99.7,8,102.8,4,107,2.3z M99.4,14.2
			h4.3c0.1,4.4,1.4,8.1,3.3,10.4C102.8,23,99.7,19,99.4,14.2z M115.7,24.6c1.9-2.3,3.1-6,3.3-10.4h4.3C123,19,119.9,23,115.7,24.6z"
			/>
	</g>
</g>
</svg>
