<?xml version="1.0" encoding="UTF-8"?>
<svg xmlns="http://www.w3.org/2000/svg" xmlns:xlink="http://www.w3.org/1999/xlink" width="100px" height="100px" viewBox="0 0 100 100" version="1.1">
<g id="surface1">
<path style=" stroke:none;fill-rule:nonzero;fill:rgb(100%,100%,100%);fill-opacity:1;" d="M 60.230469 10.269531 C 60.230469 15.644531 55.875 20 50.5 20 C 45.128906 20 40.773438 15.644531 40.773438 10.269531 C 40.773438 4.898438 45.128906 0.539062 50.5 0.539062 C 55.875 0.539062 60.230469 4.898438 60.230469 10.269531 Z M 60.230469 10.269531 "/>
<path style=" stroke:none;fill-rule:nonzero;fill:rgb(100%,100%,100%);fill-opacity:1;" d="M 60.230469 49.960938 C 60.230469 55.335938 55.875 59.691406 50.5 59.691406 C 45.128906 59.691406 40.773438 55.335938 40.773438 49.960938 C 40.773438 44.585938 45.128906 40.230469 50.5 40.230469 C 55.875 40.230469 60.230469 44.585938 60.230469 49.960938 Z M 60.230469 49.960938 "/>
<path style=" stroke:none;fill-rule:nonzero;fill:rgb(13.72549%,12.156863%,12.54902%);fill-opacity:1;" d="M 50.5 60.308594 C 44.789062 60.308594 40.230469 55.675781 40.230469 50.039062 C 40.230469 44.402344 44.863281 39.769531 50.5 39.769531 C 56.140625 39.769531 60.773438 44.402344 60.773438 50.039062 C 60.773438 55.675781 56.214844 60.308594 50.5 60.308594 Z M 50.5 40.847656 C 45.484375 40.847656 41.390625 44.941406 41.390625 49.960938 C 41.390625 54.980469 45.484375 59.074219 50.5 59.074219 C 55.519531 59.074219 59.613281 54.980469 59.613281 49.960938 C 59.691406 44.941406 55.597656 40.847656 50.5 40.847656 Z M 50.5 40.847656 "/>
<path style=" stroke:none;fill-rule:nonzero;fill:rgb(90.196078%,91.372549%,93.333333%);fill-opacity:1;" d="M 55.984375 10.269531 C 55.984375 13.296875 53.53125 15.753906 50.5 15.753906 C 47.472656 15.753906 45.019531 13.296875 45.019531 10.269531 C 45.019531 7.242188 47.472656 4.789062 50.5 4.789062 C 53.53125 4.789062 55.984375 7.242188 55.984375 10.269531 Z M 55.984375 10.269531 "/>
<path style=" stroke:none;fill-rule:nonzero;fill:rgb(100%,100%,100%);fill-opacity:1;" d="M 94.671875 29.730469 C 94.671875 35.101562 90.316406 39.460938 84.941406 39.460938 C 79.570312 39.460938 75.210938 35.101562 75.210938 29.730469 C 75.210938 24.355469 79.570312 20 84.941406 20 C 90.316406 20 94.671875 24.355469 94.671875 29.730469 Z M 94.671875 29.730469 "/>
<path style=" stroke:none;fill-rule:nonzero;fill:rgb(100%,100%,100%);fill-opacity:1;" d="M 25.867188 29.730469 C 25.867188 35.101562 21.511719 39.460938 16.140625 39.460938 C 10.765625 39.460938 6.410156 35.101562 6.410156 29.730469 C 6.410156 24.355469 10.765625 20 16.140625 20 C 21.511719 20 25.867188 24.355469 25.867188 29.730469 Z M 25.867188 29.730469 "/>
<path style=" stroke:none;fill-rule:nonzero;fill:rgb(100%,100%,100%);fill-opacity:1;" d="M 94.671875 70.269531 C 94.671875 75.644531 90.316406 80 84.941406 80 C 79.570312 80 75.210938 75.644531 75.210938 70.269531 C 75.210938 64.898438 79.570312 60.539062 84.941406 60.539062 C 90.316406 60.539062 94.671875 64.898438 94.671875 70.269531 Z M 94.671875 70.269531 "/>
<path style=" stroke:none;fill-rule:nonzero;fill:rgb(100%,100%,100%);fill-opacity:1;" d="M 25.867188 70.269531 C 25.867188 75.644531 21.511719 80 16.140625 80 C 10.765625 80 6.410156 75.644531 6.410156 70.269531 C 6.410156 64.898438 10.765625 60.539062 16.140625 60.539062 C 21.511719 60.539062 25.867188 64.898438 25.867188 70.269531 Z M 25.867188 70.269531 "/>
<path style=" stroke:none;fill-rule:nonzero;fill:rgb(100%,100%,100%);fill-opacity:1;" d="M 60.230469 89.730469 C 60.230469 95.101562 55.875 99.460938 50.5 99.460938 C 45.128906 99.460938 40.773438 95.101562 40.773438 89.730469 C 40.773438 84.355469 45.128906 80 50.5 80 C 55.875 80 60.230469 84.355469 60.230469 89.730469 Z M 60.230469 89.730469 "/>
<path style=" stroke:none;fill-rule:nonzero;fill:rgb(13.72549%,12.156863%,12.54902%);fill-opacity:1;" d="M 15.597656 56.757812 L 16.757812 56.757812 L 16.757812 57.527344 L 15.597656 57.527344 Z M 15.597656 56.757812 "/>
<path style=" stroke:none;fill-rule:nonzero;fill:rgb(13.72549%,12.156863%,12.54902%);fill-opacity:1;" d="M 15.597656 59.074219 L 16.757812 59.074219 L 16.757812 59.84375 L 15.597656 59.84375 Z M 15.597656 59.074219 "/>
<path style=" stroke:none;fill-rule:nonzero;fill:rgb(13.72549%,12.156863%,12.54902%);fill-opacity:1;" d="M 15.597656 54.441406 L 16.757812 54.441406 L 16.757812 55.210938 L 15.597656 55.210938 Z M 15.597656 54.441406 "/>
<path style=" stroke:none;fill-rule:nonzero;fill:rgb(13.72549%,12.156863%,12.54902%);fill-opacity:1;" d="M 15.597656 45.171875 L 16.757812 45.171875 L 16.757812 45.945312 L 15.597656 45.945312 Z M 15.597656 45.171875 "/>
<path style=" stroke:none;fill-rule:nonzero;fill:rgb(13.72549%,12.156863%,12.54902%);fill-opacity:1;" d="M 15.597656 47.492188 L 16.757812 47.492188 L 16.757812 48.261719 L 15.597656 48.261719 Z M 15.597656 47.492188 "/>
<path style=" stroke:none;fill-rule:nonzero;fill:rgb(13.72549%,12.156863%,12.54902%);fill-opacity:1;" d="M 15.597656 42.855469 L 16.757812 42.855469 L 16.757812 43.628906 L 15.597656 43.628906 Z M 15.597656 42.855469 "/>
<path style=" stroke:none;fill-rule:nonzero;fill:rgb(13.72549%,12.156863%,12.54902%);fill-opacity:1;" d="M 15.597656 49.808594 L 16.757812 49.808594 L 16.757812 50.578125 L 15.597656 50.578125 Z M 15.597656 49.808594 "/>
<path style=" stroke:none;fill-rule:nonzero;fill:rgb(13.72549%,12.156863%,12.54902%);fill-opacity:1;" d="M 15.597656 52.125 L 16.757812 52.125 L 16.757812 52.894531 L 15.597656 52.894531 Z M 15.597656 52.125 "/>
<path style=" stroke:none;fill-rule:nonzero;fill:rgb(13.72549%,12.156863%,12.54902%);fill-opacity:1;" d="M 35.3125 81.542969 L 34.644531 81.160156 L 35.222656 80.15625 L 35.890625 80.542969 Z M 35.3125 81.542969 "/>
<path style=" stroke:none;fill-rule:nonzero;fill:rgb(13.72549%,12.156863%,12.54902%);fill-opacity:1;" d="M 37.320312 82.699219 L 36.652344 82.316406 L 37.230469 81.3125 L 37.898438 81.699219 Z M 37.320312 82.699219 "/>
<path style=" stroke:none;fill-rule:nonzero;fill:rgb(13.72549%,12.156863%,12.54902%);fill-opacity:1;" d="M 39.324219 83.867188 L 38.652344 83.480469 L 39.234375 82.476562 L 39.902344 82.863281 Z M 39.324219 83.867188 "/>
<path style=" stroke:none;fill-rule:nonzero;fill:rgb(13.72549%,12.156863%,12.54902%);fill-opacity:1;" d="M 41.878906 84.050781 L 41.296875 85.050781 L 40.628906 84.667969 L 41.207031 83.664062 Z M 41.878906 84.050781 "/>
<path style=" stroke:none;fill-rule:nonzero;fill:rgb(13.72549%,12.156863%,12.54902%);fill-opacity:1;" d="M 31.300781 79.230469 L 30.632812 78.84375 L 31.214844 77.839844 L 31.882812 78.226562 Z M 31.300781 79.230469 "/>
<path style=" stroke:none;fill-rule:nonzero;fill:rgb(13.72549%,12.156863%,12.54902%);fill-opacity:1;" d="M 29.296875 78.070312 L 28.628906 77.683594 L 29.207031 76.683594 L 29.875 77.070312 Z M 29.296875 78.070312 "/>
<path style=" stroke:none;fill-rule:nonzero;fill:rgb(13.72549%,12.156863%,12.54902%);fill-opacity:1;" d="M 27.292969 76.914062 L 26.625 76.527344 L 27.203125 75.523438 L 27.871094 75.910156 Z M 27.292969 76.914062 "/>
<path style=" stroke:none;fill-rule:nonzero;fill:rgb(13.72549%,12.156863%,12.54902%);fill-opacity:1;" d="M 33.3125 80.386719 L 32.640625 80 L 33.222656 79 L 33.890625 79.382812 Z M 33.3125 80.386719 "/>
<path style=" stroke:none;fill-rule:nonzero;fill:rgb(13.72549%,12.156863%,12.54902%);fill-opacity:1;" d="M 26.566406 23.476562 L 27.148438 24.480469 L 26.480469 24.867188 L 25.898438 23.863281 Z M 26.566406 23.476562 "/>
<path style=" stroke:none;fill-rule:nonzero;fill:rgb(13.72549%,12.156863%,12.54902%);fill-opacity:1;" d="M 60.023438 16.421875 L 60.601562 15.417969 L 61.269531 15.804688 L 60.691406 16.808594 Z M 60.023438 16.421875 "/>
<path style=" stroke:none;fill-rule:nonzero;fill:rgb(13.72549%,12.156863%,12.54902%);fill-opacity:1;" d="M 64.609375 17.722656 L 65.277344 18.109375 L 64.699219 19.113281 L 64.027344 18.726562 Z M 64.609375 17.722656 "/>
<path style=" stroke:none;fill-rule:nonzero;fill:rgb(13.72549%,12.156863%,12.54902%);fill-opacity:1;" d="M 66.613281 18.878906 L 67.28125 19.261719 L 66.699219 20.265625 L 66.03125 19.878906 Z M 66.613281 18.878906 "/>
<path style=" stroke:none;fill-rule:nonzero;fill:rgb(13.72549%,12.156863%,12.54902%);fill-opacity:1;" d="M 62.601562 16.5625 L 63.269531 16.949219 L 62.691406 17.949219 L 62.023438 17.566406 Z M 62.601562 16.5625 "/>
<path style=" stroke:none;fill-rule:nonzero;fill:rgb(13.72549%,12.156863%,12.54902%);fill-opacity:1;" d="M 68.617188 20.035156 L 69.289062 20.421875 L 68.707031 21.425781 L 68.039062 21.039062 Z M 68.617188 20.035156 "/>
<path style=" stroke:none;fill-rule:nonzero;fill:rgb(13.72549%,12.156863%,12.54902%);fill-opacity:1;" d="M 70.632812 21.199219 L 71.300781 21.585938 L 70.722656 22.585938 L 70.050781 22.203125 Z M 70.632812 21.199219 "/>
<path style=" stroke:none;fill-rule:nonzero;fill:rgb(13.72549%,12.156863%,12.54902%);fill-opacity:1;" d="M 74.644531 23.515625 L 75.316406 23.902344 L 74.734375 24.90625 L 74.066406 24.519531 Z M 74.644531 23.515625 "/>
<path style=" stroke:none;fill-rule:nonzero;fill:rgb(13.72549%,12.156863%,12.54902%);fill-opacity:1;" d="M 72.640625 22.355469 L 73.308594 22.742188 L 72.726562 23.746094 L 72.058594 23.359375 Z M 72.640625 22.355469 "/>
<path style=" stroke:none;fill-rule:nonzero;fill:rgb(13.72549%,12.156863%,12.54902%);fill-opacity:1;" d="M 32.589844 20.003906 L 33.167969 21.007812 L 32.5 21.394531 L 31.921875 20.390625 Z M 32.589844 20.003906 "/>
<path style=" stroke:none;fill-rule:nonzero;fill:rgb(13.72549%,12.156863%,12.54902%);fill-opacity:1;" d="M 28.574219 22.320312 L 29.15625 23.320312 L 28.484375 23.707031 L 27.90625 22.707031 Z M 28.574219 22.320312 "/>
<path style=" stroke:none;fill-rule:nonzero;fill:rgb(13.72549%,12.156863%,12.54902%);fill-opacity:1;" d="M 30.582031 21.160156 L 31.160156 22.164062 L 30.492188 22.550781 L 29.914062 21.546875 Z M 30.582031 21.160156 "/>
<path style=" stroke:none;fill-rule:nonzero;fill:rgb(13.72549%,12.156863%,12.54902%);fill-opacity:1;" d="M 40.617188 15.378906 L 41.195312 16.378906 L 40.527344 16.765625 L 39.949219 15.761719 Z M 40.617188 15.378906 "/>
<path style=" stroke:none;fill-rule:nonzero;fill:rgb(13.72549%,12.156863%,12.54902%);fill-opacity:1;" d="M 59.921875 84.941406 L 59.304688 83.9375 L 59.074219 84.09375 C 57.21875 81.3125 54.054688 79.460938 50.425781 79.460938 C 44.710938 79.460938 40.15625 84.09375 40.15625 89.730469 C 40.15625 95.445312 44.789062 100 50.425781 100 C 56.0625 100 60.695312 95.367188 60.695312 89.730469 C 60.695312 88.03125 60.308594 86.488281 59.613281 85.097656 Z M 50.5 98.839844 C 45.484375 98.839844 41.390625 94.75 41.390625 89.730469 C 41.390625 84.710938 45.484375 80.617188 50.5 80.617188 C 55.519531 80.617188 59.613281 84.710938 59.613281 89.730469 C 59.691406 94.75 55.597656 98.839844 50.5 98.839844 Z M 50.5 98.839844 "/>
<path style=" stroke:none;fill-rule:nonzero;fill:rgb(13.72549%,12.156863%,12.54902%);fill-opacity:1;" d="M 15.597656 40.539062 L 16.757812 40.539062 L 16.757812 41.3125 L 15.597656 41.3125 Z M 15.597656 40.539062 "/>
<path style=" stroke:none;fill-rule:nonzero;fill:rgb(13.72549%,12.156863%,12.54902%);fill-opacity:1;" d="M 34.597656 18.847656 L 35.175781 19.851562 L 34.507812 20.238281 L 33.925781 19.234375 Z M 34.597656 18.847656 "/>
<path style=" stroke:none;fill-rule:nonzero;fill:rgb(13.72549%,12.156863%,12.54902%);fill-opacity:1;" d="M 38.609375 16.535156 L 39.191406 17.535156 L 38.519531 17.921875 L 37.941406 16.921875 Z M 38.609375 16.535156 "/>
<path style=" stroke:none;fill-rule:nonzero;fill:rgb(13.72549%,12.156863%,12.54902%);fill-opacity:1;" d="M 36.601562 17.691406 L 37.183594 18.695312 L 36.515625 19.082031 L 35.933594 18.078125 Z M 36.601562 17.691406 "/>
<path style=" stroke:none;fill-rule:nonzero;fill:rgb(13.72549%,12.156863%,12.54902%);fill-opacity:1;" d="M 84.324219 57.296875 L 85.484375 57.296875 L 85.484375 58.070312 L 84.324219 58.070312 Z M 84.324219 57.296875 "/>
<path style=" stroke:none;fill-rule:nonzero;fill:rgb(13.72549%,12.156863%,12.54902%);fill-opacity:1;" d="M 84.324219 43.398438 L 85.484375 43.398438 L 85.484375 44.167969 L 84.324219 44.167969 Z M 84.324219 43.398438 "/>
<path style=" stroke:none;fill-rule:nonzero;fill:rgb(13.72549%,12.156863%,12.54902%);fill-opacity:1;" d="M 67.273438 80.652344 L 66.695312 79.648438 L 67.363281 79.261719 L 67.945312 80.265625 Z M 67.273438 80.652344 "/>
<path style=" stroke:none;fill-rule:nonzero;fill:rgb(13.72549%,12.156863%,12.54902%);fill-opacity:1;" d="M 65.269531 81.8125 L 64.691406 80.808594 L 65.359375 80.421875 L 65.9375 81.425781 Z M 65.269531 81.8125 "/>
<path style=" stroke:none;fill-rule:nonzero;fill:rgb(13.72549%,12.156863%,12.54902%);fill-opacity:1;" d="M 84.324219 45.714844 L 85.484375 45.714844 L 85.484375 46.488281 L 84.324219 46.488281 Z M 84.324219 45.714844 "/>
<path style=" stroke:none;fill-rule:nonzero;fill:rgb(13.72549%,12.156863%,12.54902%);fill-opacity:1;" d="M 84.324219 41.082031 L 85.484375 41.082031 L 85.484375 41.851562 L 84.324219 41.851562 Z M 84.324219 41.082031 "/>
<path style=" stroke:none;fill-rule:nonzero;fill:rgb(13.72549%,12.156863%,12.54902%);fill-opacity:1;" d="M 84.324219 48.03125 L 85.484375 48.03125 L 85.484375 48.804688 L 84.324219 48.804688 Z M 84.324219 48.03125 "/>
<path style=" stroke:none;fill-rule:nonzero;fill:rgb(13.72549%,12.156863%,12.54902%);fill-opacity:1;" d="M 61.257812 84.128906 L 60.679688 83.125 L 61.347656 82.742188 L 61.925781 83.742188 Z M 61.257812 84.128906 "/>
<path style=" stroke:none;fill-rule:nonzero;fill:rgb(13.72549%,12.156863%,12.54902%);fill-opacity:1;" d="M 63.265625 82.96875 L 62.683594 81.96875 L 63.355469 81.582031 L 63.933594 82.585938 Z M 63.265625 82.96875 "/>
<path style=" stroke:none;fill-rule:nonzero;fill:rgb(13.72549%,12.156863%,12.54902%);fill-opacity:1;" d="M 71.324219 78.398438 L 70.746094 77.394531 L 71.414062 77.007812 L 71.992188 78.011719 Z M 71.324219 78.398438 "/>
<path style=" stroke:none;fill-rule:nonzero;fill:rgb(13.72549%,12.156863%,12.54902%);fill-opacity:1;" d="M 84.324219 54.980469 L 85.484375 54.980469 L 85.484375 55.753906 L 84.324219 55.753906 Z M 84.324219 54.980469 "/>
<path style=" stroke:none;fill-rule:nonzero;fill:rgb(13.72549%,12.156863%,12.54902%);fill-opacity:1;" d="M 84.324219 52.664062 L 85.484375 52.664062 L 85.484375 53.4375 L 84.324219 53.4375 Z M 84.324219 52.664062 "/>
<path style=" stroke:none;fill-rule:nonzero;fill:rgb(13.72549%,12.156863%,12.54902%);fill-opacity:1;" d="M 75.335938 76.078125 L 74.757812 75.078125 L 75.425781 74.691406 L 76.003906 75.695312 Z M 75.335938 76.078125 "/>
<path style=" stroke:none;fill-rule:nonzero;fill:rgb(13.72549%,12.156863%,12.54902%);fill-opacity:1;" d="M 84.324219 50.347656 L 85.484375 50.347656 L 85.484375 51.121094 L 84.324219 51.121094 Z M 84.324219 50.347656 "/>
<path style=" stroke:none;fill-rule:nonzero;fill:rgb(13.72549%,12.156863%,12.54902%);fill-opacity:1;" d="M 69.320312 79.558594 L 68.738281 78.554688 L 69.410156 78.167969 L 69.988281 79.171875 Z M 69.320312 79.558594 "/>
<path style=" stroke:none;fill-rule:nonzero;fill:rgb(13.72549%,12.156863%,12.54902%);fill-opacity:1;" d="M 73.328125 77.238281 L 72.75 76.234375 L 73.417969 75.851562 L 74 76.851562 Z M 73.328125 77.238281 "/>
<path style=" stroke:none;fill-rule:nonzero;fill:rgb(13.72549%,12.156863%,12.54902%);fill-opacity:1;" d="M 49.960938 31.121094 L 51.121094 31.121094 L 51.121094 31.890625 L 49.960938 31.890625 Z M 49.960938 31.121094 "/>
<path style=" stroke:none;fill-rule:nonzero;fill:rgb(13.72549%,12.156863%,12.54902%);fill-opacity:1;" d="M 49.960938 33.4375 L 51.121094 33.4375 L 51.121094 34.207031 L 49.960938 34.207031 Z M 49.960938 33.4375 "/>
<path style=" stroke:none;fill-rule:nonzero;fill:rgb(13.72549%,12.156863%,12.54902%);fill-opacity:1;" d="M 49.960938 77.453125 L 51.121094 77.453125 L 51.121094 78.222656 L 49.960938 78.222656 Z M 49.960938 77.453125 "/>
<path style=" stroke:none;fill-rule:nonzero;fill:rgb(13.72549%,12.156863%,12.54902%);fill-opacity:1;" d="M 49.960938 28.804688 L 51.121094 28.804688 L 51.121094 29.574219 L 49.960938 29.574219 Z M 49.960938 28.804688 "/>
<path style=" stroke:none;fill-rule:nonzero;fill:rgb(13.72549%,12.156863%,12.54902%);fill-opacity:1;" d="M 49.960938 38.070312 L 51.121094 38.070312 L 51.121094 38.839844 L 49.960938 38.839844 Z M 49.960938 38.070312 "/>
<path style=" stroke:none;fill-rule:nonzero;fill:rgb(13.72549%,12.156863%,12.54902%);fill-opacity:1;" d="M 49.960938 35.753906 L 51.121094 35.753906 L 51.121094 36.523438 L 49.960938 36.523438 Z M 49.960938 35.753906 "/>
<path style=" stroke:none;fill-rule:nonzero;fill:rgb(13.72549%,12.156863%,12.54902%);fill-opacity:1;" d="M 49.960938 24.167969 L 51.121094 24.167969 L 51.121094 24.941406 L 49.960938 24.941406 Z M 49.960938 24.167969 "/>
<path style=" stroke:none;fill-rule:nonzero;fill:rgb(13.72549%,12.156863%,12.54902%);fill-opacity:1;" d="M 49.960938 21.851562 L 51.121094 21.851562 L 51.121094 22.625 L 49.960938 22.625 Z M 49.960938 21.851562 "/>
<path style=" stroke:none;fill-rule:nonzero;fill:rgb(13.72549%,12.156863%,12.54902%);fill-opacity:1;" d="M 49.960938 26.488281 L 51.121094 26.488281 L 51.121094 27.257812 L 49.960938 27.257812 Z M 49.960938 26.488281 "/>
<path style=" stroke:none;fill-rule:nonzero;fill:rgb(13.72549%,12.156863%,12.54902%);fill-opacity:1;" d="M 49.960938 65.867188 L 51.121094 65.867188 L 51.121094 66.640625 L 49.960938 66.640625 Z M 49.960938 65.867188 "/>
<path style=" stroke:none;fill-rule:nonzero;fill:rgb(13.72549%,12.156863%,12.54902%);fill-opacity:1;" d="M 49.960938 75.136719 L 51.121094 75.136719 L 51.121094 75.90625 L 49.960938 75.90625 Z M 49.960938 75.136719 "/>
<path style=" stroke:none;fill-rule:nonzero;fill:rgb(13.72549%,12.156863%,12.54902%);fill-opacity:1;" d="M 49.960938 70.5 L 51.121094 70.5 L 51.121094 71.273438 L 49.960938 71.273438 Z M 49.960938 70.5 "/>
<path style=" stroke:none;fill-rule:nonzero;fill:rgb(13.72549%,12.156863%,12.54902%);fill-opacity:1;" d="M 49.960938 68.183594 L 51.121094 68.183594 L 51.121094 68.957031 L 49.960938 68.957031 Z M 49.960938 68.183594 "/>
<path style=" stroke:none;fill-rule:nonzero;fill:rgb(13.72549%,12.156863%,12.54902%);fill-opacity:1;" d="M 49.960938 72.820312 L 51.121094 72.820312 L 51.121094 73.589844 L 49.960938 73.589844 Z M 49.960938 72.820312 "/>
<path style=" stroke:none;fill-rule:nonzero;fill:rgb(13.72549%,12.156863%,12.54902%);fill-opacity:1;" d="M 49.960938 63.550781 L 51.121094 63.550781 L 51.121094 64.324219 L 49.960938 64.324219 Z M 49.960938 63.550781 "/>
<path style=" stroke:none;fill-rule:nonzero;fill:rgb(13.72549%,12.156863%,12.54902%);fill-opacity:1;" d="M 49.960938 61.234375 L 51.121094 61.234375 L 51.121094 62.007812 L 49.960938 62.007812 Z M 49.960938 61.234375 "/>
<path style=" stroke:none;fill-rule:nonzero;fill:rgb(13.72549%,12.156863%,12.54902%);fill-opacity:1;" d="M 34.496094 40.03125 L 35.164062 40.414062 L 34.585938 41.417969 L 33.917969 41.03125 Z M 34.496094 40.03125 "/>
<path style=" stroke:none;fill-rule:nonzero;fill:rgb(13.72549%,12.156863%,12.54902%);fill-opacity:1;" d="M 60.59375 55.097656 L 61.261719 55.484375 L 60.683594 56.484375 L 60.011719 56.101562 Z M 60.59375 55.097656 "/>
<path style=" stroke:none;fill-rule:nonzero;fill:rgb(13.72549%,12.156863%,12.54902%);fill-opacity:1;" d="M 70.058594 61.902344 L 70.636719 60.898438 L 71.308594 61.285156 L 70.726562 62.285156 Z M 70.058594 61.902344 "/>
<path style=" stroke:none;fill-rule:nonzero;fill:rgb(13.72549%,12.156863%,12.54902%);fill-opacity:1;" d="M 40.519531 43.503906 L 41.1875 43.890625 L 40.609375 44.894531 L 39.941406 44.507812 Z M 40.519531 43.503906 "/>
<path style=" stroke:none;fill-rule:nonzero;fill:rgb(13.72549%,12.156863%,12.54902%);fill-opacity:1;" d="M 72.066406 63.058594 L 72.644531 62.054688 L 73.3125 62.441406 L 72.734375 63.445312 Z M 72.066406 63.058594 "/>
<path style=" stroke:none;fill-rule:nonzero;fill:rgb(13.72549%,12.156863%,12.54902%);fill-opacity:1;" d="M 74.648438 63.210938 L 75.316406 63.59375 L 74.738281 64.597656 L 74.070312 64.210938 Z M 74.648438 63.210938 "/>
<path style=" stroke:none;fill-rule:nonzero;fill:rgb(13.72549%,12.156863%,12.54902%);fill-opacity:1;" d="M 30.480469 37.710938 L 31.152344 38.097656 L 30.570312 39.097656 L 29.902344 38.714844 Z M 30.480469 37.710938 "/>
<path style=" stroke:none;fill-rule:nonzero;fill:rgb(13.72549%,12.156863%,12.54902%);fill-opacity:1;" d="M 62.03125 57.273438 L 62.609375 56.269531 L 63.277344 56.65625 L 62.699219 57.660156 Z M 62.03125 57.273438 "/>
<path style=" stroke:none;fill-rule:nonzero;fill:rgb(13.72549%,12.156863%,12.54902%);fill-opacity:1;" d="M 28.476562 36.550781 L 29.144531 36.9375 L 28.5625 37.941406 L 27.894531 37.554688 Z M 28.476562 36.550781 "/>
<path style=" stroke:none;fill-rule:nonzero;fill:rgb(13.72549%,12.156863%,12.54902%);fill-opacity:1;" d="M 38.511719 42.347656 L 39.179688 42.734375 L 38.601562 43.738281 L 37.933594 43.351562 Z M 38.511719 42.347656 "/>
<path style=" stroke:none;fill-rule:nonzero;fill:rgb(13.72549%,12.156863%,12.54902%);fill-opacity:1;" d="M 36.503906 41.183594 L 37.171875 41.570312 L 36.59375 42.574219 L 35.921875 42.1875 Z M 36.503906 41.183594 "/>
<path style=" stroke:none;fill-rule:nonzero;fill:rgb(13.72549%,12.156863%,12.54902%);fill-opacity:1;" d="M 32.488281 38.871094 L 33.160156 39.253906 L 32.578125 40.257812 L 31.910156 39.871094 Z M 32.488281 38.871094 "/>
<path style=" stroke:none;fill-rule:nonzero;fill:rgb(13.72549%,12.156863%,12.54902%);fill-opacity:1;" d="M 64.039062 58.429688 L 64.617188 57.425781 L 65.285156 57.8125 L 64.707031 58.816406 Z M 64.039062 58.429688 "/>
<path style=" stroke:none;fill-rule:nonzero;fill:rgb(13.72549%,12.156863%,12.54902%);fill-opacity:1;" d="M 66.046875 59.585938 L 66.625 58.582031 L 67.292969 58.96875 L 66.714844 59.972656 Z M 66.046875 59.585938 "/>
<path style=" stroke:none;fill-rule:nonzero;fill:rgb(13.72549%,12.156863%,12.54902%);fill-opacity:1;" d="M 68.050781 60.742188 L 68.632812 59.742188 L 69.300781 60.125 L 68.722656 61.128906 Z M 68.050781 60.742188 "/>
<path style=" stroke:none;fill-rule:nonzero;fill:rgb(13.72549%,12.156863%,12.54902%);fill-opacity:1;" d="M 26.582031 36.882812 L 25.914062 36.496094 L 26.492188 35.492188 L 27.160156 35.878906 Z M 26.582031 36.882812 "/>
<path style=" stroke:none;fill-rule:nonzero;fill:rgb(13.72549%,12.156863%,12.54902%);fill-opacity:1;" d="M 66.628906 40.1875 L 67.214844 41.1875 L 66.546875 41.574219 L 65.964844 40.574219 Z M 66.628906 40.1875 "/>
<path style=" stroke:none;fill-rule:nonzero;fill:rgb(13.72549%,12.156863%,12.54902%);fill-opacity:1;" d="M 59.925781 44.070312 L 60.59375 43.679688 L 61.175781 44.679688 L 60.507812 45.070312 Z M 59.925781 44.070312 "/>
<path style=" stroke:none;fill-rule:nonzero;fill:rgb(13.72549%,12.156863%,12.54902%);fill-opacity:1;" d="M 74.578125 35.492188 L 75.164062 36.492188 L 74.496094 36.882812 L 73.914062 35.882812 Z M 74.578125 35.492188 "/>
<path style=" stroke:none;fill-rule:nonzero;fill:rgb(13.72549%,12.156863%,12.54902%);fill-opacity:1;" d="M 62.632812 42.496094 L 63.21875 43.496094 L 62.550781 43.886719 L 61.96875 42.886719 Z M 62.632812 42.496094 "/>
<path style=" stroke:none;fill-rule:nonzero;fill:rgb(13.72549%,12.156863%,12.54902%);fill-opacity:1;" d="M 70.585938 37.804688 L 71.167969 38.804688 L 70.503906 39.195312 L 69.917969 38.195312 Z M 70.585938 37.804688 "/>
<path style=" stroke:none;fill-rule:nonzero;fill:rgb(13.72549%,12.156863%,12.54902%);fill-opacity:1;" d="M 64.632812 41.34375 L 65.214844 42.34375 L 64.550781 42.734375 L 63.964844 41.734375 Z M 64.632812 41.34375 "/>
<path style=" stroke:none;fill-rule:nonzero;fill:rgb(13.72549%,12.156863%,12.54902%);fill-opacity:1;" d="M 68.589844 38.960938 L 69.171875 39.964844 L 68.503906 40.351562 L 67.921875 39.351562 Z M 68.589844 38.960938 "/>
<path style=" stroke:none;fill-rule:nonzero;fill:rgb(13.72549%,12.156863%,12.54902%);fill-opacity:1;" d="M 72.582031 36.648438 L 73.167969 37.648438 L 72.5 38.039062 L 71.914062 37.039062 Z M 72.582031 36.648438 "/>
<path style=" stroke:none;fill-rule:nonzero;fill:rgb(13.72549%,12.156863%,12.54902%);fill-opacity:1;" d="M 31.875 60.375 L 32.542969 59.984375 L 33.125 60.988281 L 32.460938 61.375 Z M 31.875 60.375 "/>
<path style=" stroke:none;fill-rule:nonzero;fill:rgb(13.72549%,12.156863%,12.54902%);fill-opacity:1;" d="M 33.886719 59.210938 L 34.554688 58.824219 L 35.136719 59.824219 L 34.472656 60.214844 Z M 33.886719 59.210938 "/>
<path style=" stroke:none;fill-rule:nonzero;fill:rgb(13.72549%,12.156863%,12.54902%);fill-opacity:1;" d="M 29.96875 61.5625 L 30.636719 61.175781 L 31.222656 62.175781 L 30.554688 62.5625 Z M 29.96875 61.5625 "/>
<path style=" stroke:none;fill-rule:nonzero;fill:rgb(13.72549%,12.156863%,12.54902%);fill-opacity:1;" d="M 27.960938 62.730469 L 28.625 62.339844 L 29.210938 63.339844 L 28.542969 63.730469 Z M 27.960938 62.730469 "/>
<path style=" stroke:none;fill-rule:nonzero;fill:rgb(13.72549%,12.156863%,12.54902%);fill-opacity:1;" d="M 40.636719 55.328125 L 41.222656 56.332031 L 40.554688 56.71875 L 39.96875 55.71875 Z M 40.636719 55.328125 "/>
<path style=" stroke:none;fill-rule:nonzero;fill:rgb(13.72549%,12.156863%,12.54902%);fill-opacity:1;" d="M 25.949219 63.890625 L 26.613281 63.503906 L 27.199219 64.503906 L 26.53125 64.890625 Z M 25.949219 63.890625 "/>
<path style=" stroke:none;fill-rule:nonzero;fill:rgb(13.72549%,12.156863%,12.54902%);fill-opacity:1;" d="M 37.90625 56.886719 L 38.574219 56.496094 L 39.15625 57.5 L 38.492188 57.886719 Z M 37.90625 56.886719 "/>
<path style=" stroke:none;fill-rule:nonzero;fill:rgb(13.72549%,12.156863%,12.54902%);fill-opacity:1;" d="M 35.894531 58.046875 L 36.5625 57.65625 L 37.144531 58.65625 L 36.480469 59.046875 Z M 35.894531 58.046875 "/>
<path style=" stroke:none;fill-rule:nonzero;fill:rgb(13.72549%,12.156863%,12.54902%);fill-opacity:1;" d="M 50.5 20.617188 C 56.214844 20.617188 60.773438 15.984375 60.773438 10.347656 C 60.773438 4.710938 56.214844 0 50.5 0 C 44.789062 0 40.230469 4.632812 40.230469 10.269531 C 40.230469 15.90625 44.863281 20.617188 50.5 20.617188 Z M 50.5 1.160156 C 55.519531 1.160156 59.613281 5.25 59.613281 10.269531 C 59.613281 15.289062 55.519531 19.382812 50.5 19.382812 C 45.484375 19.382812 41.390625 15.289062 41.390625 10.269531 C 41.390625 5.25 45.484375 1.160156 50.5 1.160156 Z M 50.5 1.160156 "/>
<path style=" stroke:none;fill-rule:nonzero;fill:rgb(13.72549%,12.156863%,12.54902%);fill-opacity:1;" d="M 84.941406 40.078125 C 90.65625 40.078125 95.210938 35.445312 95.210938 29.808594 C 95.210938 24.09375 90.578125 19.535156 84.941406 19.535156 C 79.304688 19.535156 74.671875 24.167969 74.671875 29.808594 C 74.59375 35.445312 79.226562 40.078125 84.941406 40.078125 Z M 84.941406 20.617188 C 89.960938 20.617188 94.054688 24.710938 94.054688 29.730469 C 94.054688 34.75 89.960938 38.839844 84.941406 38.839844 C 79.921875 38.839844 75.832031 34.75 75.832031 29.730469 C 75.753906 24.710938 79.84375 20.617188 84.941406 20.617188 Z M 84.941406 20.617188 "/>
<path style=" stroke:none;fill-rule:nonzero;fill:rgb(13.72549%,12.156863%,12.54902%);fill-opacity:1;" d="M 16.140625 40.078125 C 21.851562 40.078125 26.410156 35.445312 26.410156 29.808594 C 26.410156 24.09375 21.777344 19.535156 16.140625 19.535156 C 10.425781 19.535156 5.867188 24.167969 5.867188 29.808594 C 5.867188 35.445312 10.5 40.078125 16.140625 40.078125 Z M 16.140625 20.617188 C 21.160156 20.617188 25.25 24.710938 25.25 29.730469 C 25.25 34.75 21.160156 38.839844 16.140625 38.839844 C 11.121094 38.839844 7.027344 34.75 7.027344 29.730469 C 7.027344 24.710938 11.121094 20.617188 16.140625 20.617188 Z M 16.140625 20.617188 "/>
<path style=" stroke:none;fill-rule:nonzero;fill:rgb(13.72549%,12.156863%,12.54902%);fill-opacity:1;" d="M 85.484375 60 L 85.484375 59.691406 L 84.324219 59.691406 L 84.324219 60 C 78.917969 60.308594 74.59375 64.789062 74.59375 70.269531 C 74.59375 75.984375 79.226562 80.539062 84.863281 80.539062 C 90.5 80.539062 95.136719 75.90625 95.136719 70.269531 C 95.210938 64.789062 90.886719 60.308594 85.484375 60 Z M 84.941406 79.382812 C 79.921875 79.382812 75.832031 75.289062 75.832031 70.269531 C 75.832031 65.25 79.921875 61.160156 84.941406 61.160156 C 89.960938 61.160156 94.054688 65.25 94.054688 70.269531 C 94.054688 75.289062 89.960938 79.382812 84.941406 79.382812 Z M 84.941406 79.382812 "/>
<path style=" stroke:none;fill-rule:nonzero;fill:rgb(13.72549%,12.156863%,12.54902%);fill-opacity:1;" d="M 16.140625 59.921875 C 10.425781 59.921875 5.867188 64.554688 5.867188 70.191406 C 5.867188 75.90625 10.5 80.464844 16.140625 80.464844 C 19.84375 80.464844 23.089844 78.457031 24.941406 75.519531 L 25.25 75.675781 L 25.867188 74.671875 L 25.484375 74.59375 C 26.101562 73.28125 26.488281 71.816406 26.488281 70.269531 C 26.488281 64.554688 21.851562 59.921875 16.140625 59.921875 Z M 16.140625 79.382812 C 11.121094 79.382812 7.027344 75.289062 7.027344 70.269531 C 7.027344 65.25 11.121094 61.160156 16.140625 61.160156 C 21.160156 61.160156 25.25 65.25 25.25 70.269531 C 25.328125 75.289062 21.234375 79.382812 16.140625 79.382812 Z M 16.140625 79.382812 "/>
<path style=" stroke:none;fill-rule:nonzero;fill:rgb(90.196078%,91.372549%,93.333333%);fill-opacity:1;" d="M 55.984375 89.730469 C 55.984375 92.757812 53.53125 95.210938 50.5 95.210938 C 47.472656 95.210938 45.019531 92.757812 45.019531 89.730469 C 45.019531 86.703125 47.472656 84.246094 50.5 84.246094 C 53.53125 84.246094 55.984375 86.703125 55.984375 89.730469 Z M 55.984375 89.730469 "/>
<path style=" stroke:none;fill-rule:nonzero;fill:rgb(100%,43.921569%,34.509804%);fill-opacity:1;" d="M 55.984375 49.960938 C 55.984375 52.988281 53.53125 55.445312 50.5 55.445312 C 47.472656 55.445312 45.019531 52.988281 45.019531 49.960938 C 45.019531 46.933594 47.472656 44.480469 50.5 44.480469 C 53.53125 44.480469 55.984375 46.933594 55.984375 49.960938 Z M 55.984375 49.960938 "/>
<path style=" stroke:none;fill-rule:nonzero;fill:rgb(100%,81.568627%,35.686275%);fill-opacity:1;" d="M 21.621094 70.269531 C 21.621094 73.296875 19.167969 75.753906 16.140625 75.753906 C 13.109375 75.753906 10.65625 73.296875 10.65625 70.269531 C 10.65625 67.242188 13.109375 64.789062 16.140625 64.789062 C 19.167969 64.789062 21.621094 67.242188 21.621094 70.269531 Z M 21.621094 70.269531 "/>
<path style=" stroke:none;fill-rule:nonzero;fill:rgb(100%,81.568627%,35.686275%);fill-opacity:1;" d="M 90.425781 29.730469 C 90.425781 32.757812 87.96875 35.210938 84.941406 35.210938 C 81.914062 35.210938 79.460938 32.757812 79.460938 29.730469 C 79.460938 26.703125 81.914062 24.246094 84.941406 24.246094 C 87.96875 24.246094 90.425781 26.703125 90.425781 29.730469 Z M 90.425781 29.730469 "/>
<path style=" stroke:none;fill-rule:nonzero;fill:rgb(51.764706%,85.882353%,100%);fill-opacity:1;" d="M 90.425781 70.269531 C 90.425781 73.296875 87.96875 75.753906 84.941406 75.753906 C 81.914062 75.753906 79.460938 73.296875 79.460938 70.269531 C 79.460938 67.242188 81.914062 64.789062 84.941406 64.789062 C 87.96875 64.789062 90.425781 67.242188 90.425781 70.269531 Z M 90.425781 70.269531 "/>
<path style=" stroke:none;fill-rule:nonzero;fill:rgb(51.764706%,85.882353%,100%);fill-opacity:1;" d="M 21.621094 29.730469 C 21.621094 32.757812 19.167969 35.210938 16.140625 35.210938 C 13.109375 35.210938 10.65625 32.757812 10.65625 29.730469 C 10.65625 26.703125 13.109375 24.246094 16.140625 24.246094 C 19.167969 24.246094 21.621094 26.703125 21.621094 29.730469 Z M 21.621094 29.730469 "/>
<path style=" stroke:none;fill-rule:nonzero;fill:rgb(13.72549%,12.156863%,12.54902%);fill-opacity:1;" d="M 93.511719 5.636719 C 93.667969 5.636719 93.824219 5.558594 93.898438 5.484375 L 94.902344 4.480469 C 95.136719 4.246094 95.136719 3.859375 94.902344 3.628906 C 94.671875 3.398438 94.285156 3.398438 94.054688 3.628906 L 93.050781 4.632812 C 92.820312 4.863281 92.820312 5.25 93.050781 5.484375 C 93.203125 5.558594 93.359375 5.636719 93.511719 5.636719 Z M 93.511719 5.636719 "/>
<path style=" stroke:none;fill-rule:nonzero;fill:rgb(13.72549%,12.156863%,12.54902%);fill-opacity:1;" d="M 90.964844 6.71875 L 89.960938 7.722656 C 89.730469 7.953125 89.730469 8.339844 89.960938 8.570312 C 90.039062 8.648438 90.191406 8.726562 90.347656 8.726562 C 90.5 8.726562 90.65625 8.648438 90.734375 8.570312 L 91.738281 7.566406 C 91.96875 7.335938 91.96875 6.949219 91.738281 6.71875 C 91.582031 6.5625 91.195312 6.5625 90.964844 6.71875 Z M 90.964844 6.71875 "/>
<path style=" stroke:none;fill-rule:nonzero;fill:rgb(13.72549%,12.156863%,12.54902%);fill-opacity:1;" d="M 93.898438 6.71875 C 93.667969 6.488281 93.28125 6.488281 93.050781 6.71875 C 92.820312 6.949219 92.820312 7.335938 93.050781 7.566406 L 94.054688 8.570312 C 94.132812 8.648438 94.285156 8.726562 94.441406 8.726562 C 94.59375 8.726562 94.75 8.648438 94.828125 8.570312 C 95.058594 8.339844 95.058594 7.953125 94.828125 7.722656 Z M 93.898438 6.71875 "/>
<path style=" stroke:none;fill-rule:nonzero;fill:rgb(13.72549%,12.156863%,12.54902%);fill-opacity:1;" d="M 90.8125 3.628906 C 90.578125 3.398438 90.191406 3.398438 89.960938 3.628906 C 89.730469 3.859375 89.730469 4.246094 89.960938 4.480469 L 90.964844 5.484375 C 91.042969 5.558594 91.195312 5.636719 91.351562 5.636719 C 91.503906 5.636719 91.660156 5.558594 91.738281 5.484375 C 91.96875 5.25 91.96875 4.863281 91.738281 4.632812 Z M 90.8125 3.628906 "/>
<path style=" stroke:none;fill-rule:nonzero;fill:rgb(13.72549%,12.156863%,12.54902%);fill-opacity:1;" d="M 91.429688 92.585938 C 91.582031 92.585938 91.738281 92.507812 91.816406 92.433594 L 92.820312 91.429688 C 93.050781 91.195312 93.050781 90.8125 92.820312 90.578125 C 92.585938 90.347656 92.199219 90.347656 91.96875 90.578125 L 90.964844 91.582031 C 90.734375 91.816406 90.734375 92.199219 90.964844 92.433594 C 91.121094 92.585938 91.273438 92.585938 91.429688 92.585938 Z M 91.429688 92.585938 "/>
<path style=" stroke:none;fill-rule:nonzero;fill:rgb(13.72549%,12.156863%,12.54902%);fill-opacity:1;" d="M 88.878906 93.746094 L 87.875 94.75 C 87.644531 94.980469 87.644531 95.367188 87.875 95.597656 C 87.953125 95.675781 88.109375 95.753906 88.261719 95.753906 C 88.417969 95.753906 88.570312 95.675781 88.648438 95.597656 L 89.652344 94.59375 C 89.882812 94.363281 89.882812 93.976562 89.652344 93.746094 C 89.5 93.511719 89.113281 93.511719 88.878906 93.746094 Z M 88.878906 93.746094 "/>
<path style=" stroke:none;fill-rule:nonzero;fill:rgb(13.72549%,12.156863%,12.54902%);fill-opacity:1;" d="M 91.816406 93.746094 C 91.582031 93.511719 91.195312 93.511719 90.964844 93.746094 C 90.734375 93.976562 90.734375 94.363281 90.964844 94.59375 L 91.96875 95.597656 C 92.046875 95.675781 92.199219 95.753906 92.355469 95.753906 C 92.507812 95.753906 92.664062 95.675781 92.742188 95.597656 C 92.972656 95.367188 92.972656 94.980469 92.742188 94.75 Z M 91.816406 93.746094 "/>
<path style=" stroke:none;fill-rule:nonzero;fill:rgb(13.72549%,12.156863%,12.54902%);fill-opacity:1;" d="M 88.726562 90.65625 C 88.496094 90.425781 88.109375 90.425781 87.875 90.65625 C 87.644531 90.886719 87.644531 91.273438 87.875 91.503906 L 88.878906 92.507812 C 88.957031 92.585938 89.113281 92.664062 89.265625 92.664062 C 89.421875 92.664062 89.574219 92.585938 89.652344 92.507812 C 89.882812 92.277344 89.882812 91.890625 89.652344 91.660156 Z M 88.726562 90.65625 "/>
<path style=" stroke:none;fill-rule:nonzero;fill:rgb(13.72549%,12.156863%,12.54902%);fill-opacity:1;" d="M 11.738281 9.34375 C 11.890625 9.34375 12.046875 9.265625 12.125 9.1875 L 13.128906 8.183594 C 13.359375 7.953125 13.359375 7.566406 13.128906 7.335938 C 12.894531 7.105469 12.507812 7.105469 12.277344 7.335938 L 11.273438 8.339844 C 11.042969 8.570312 11.042969 8.957031 11.273438 9.1875 C 11.429688 9.265625 11.582031 9.34375 11.738281 9.34375 Z M 11.738281 9.34375 "/>
<path style=" stroke:none;fill-rule:nonzero;fill:rgb(13.72549%,12.156863%,12.54902%);fill-opacity:1;" d="M 9.265625 10.425781 L 8.261719 11.429688 C 8.03125 11.660156 8.03125 12.046875 8.261719 12.277344 C 8.339844 12.355469 8.496094 12.433594 8.648438 12.433594 C 8.804688 12.433594 8.957031 12.355469 9.035156 12.277344 L 10.039062 11.273438 C 10.269531 11.042969 10.269531 10.65625 10.039062 10.425781 C 9.808594 10.191406 9.421875 10.191406 9.265625 10.425781 Z M 9.265625 10.425781 "/>
<path style=" stroke:none;fill-rule:nonzero;fill:rgb(13.72549%,12.156863%,12.54902%);fill-opacity:1;" d="M 12.199219 10.425781 C 11.96875 10.191406 11.582031 10.191406 11.351562 10.425781 C 11.121094 10.65625 11.121094 11.042969 11.351562 11.273438 L 12.355469 12.277344 C 12.433594 12.355469 12.585938 12.433594 12.742188 12.433594 C 12.894531 12.433594 13.050781 12.355469 13.128906 12.277344 C 13.359375 12.046875 13.359375 11.660156 13.128906 11.429688 Z M 12.199219 10.425781 "/>
<path style=" stroke:none;fill-rule:nonzero;fill:rgb(13.72549%,12.156863%,12.54902%);fill-opacity:1;" d="M 9.035156 7.335938 C 8.804688 7.105469 8.417969 7.105469 8.183594 7.335938 C 7.953125 7.566406 7.953125 7.953125 8.183594 8.183594 L 9.1875 9.1875 C 9.265625 9.265625 9.421875 9.34375 9.574219 9.34375 C 9.730469 9.34375 9.882812 9.265625 9.960938 9.1875 C 10.191406 8.957031 10.191406 8.570312 9.960938 8.339844 Z M 9.035156 7.335938 "/>
<path style=" stroke:none;fill-rule:nonzero;fill:rgb(13.72549%,12.156863%,12.54902%);fill-opacity:1;" d="M 16.988281 86.796875 C 16.988281 86.488281 16.757812 86.175781 16.371094 86.175781 L 10.117188 86.175781 C 9.808594 86.175781 9.5 86.410156 9.5 86.796875 C 9.5 87.105469 9.730469 87.414062 10.117188 87.414062 L 16.371094 87.414062 C 16.757812 87.335938 16.988281 87.105469 16.988281 86.796875 Z M 16.988281 86.796875 "/>
<path style=" stroke:none;fill-rule:nonzero;fill:rgb(13.72549%,12.156863%,12.54902%);fill-opacity:1;" d="M 18.839844 88.496094 L 15.753906 88.496094 C 15.445312 88.496094 15.136719 88.726562 15.136719 89.113281 C 15.136719 89.421875 15.367188 89.730469 15.753906 89.730469 L 18.839844 89.730469 C 19.152344 89.730469 19.460938 89.5 19.460938 89.113281 C 19.460938 88.726562 19.152344 88.496094 18.839844 88.496094 Z M 18.839844 88.496094 "/>
<path style=" stroke:none;fill-rule:nonzero;fill:rgb(13.72549%,12.156863%,12.54902%);fill-opacity:1;" d="M 22.164062 86.175781 L 19.226562 86.175781 C 18.917969 86.175781 18.609375 86.410156 18.609375 86.796875 C 18.609375 87.105469 18.839844 87.414062 19.226562 87.414062 L 22.164062 87.414062 C 22.472656 87.414062 22.78125 87.179688 22.78125 86.796875 C 22.703125 86.488281 22.472656 86.175781 22.164062 86.175781 Z M 22.164062 86.175781 "/>
<path style=" stroke:none;fill-rule:nonzero;fill:rgb(13.72549%,12.156863%,12.54902%);fill-opacity:1;" d="M 13.589844 88.496094 L 12.972656 88.496094 C 12.664062 88.496094 12.355469 88.726562 12.355469 89.113281 C 12.355469 89.421875 12.585938 89.730469 12.972656 89.730469 L 13.589844 89.730469 C 13.898438 89.730469 14.207031 89.5 14.207031 89.113281 C 14.132812 88.726562 13.898438 88.496094 13.589844 88.496094 Z M 13.589844 88.496094 "/>
<path style=" stroke:none;fill-rule:nonzero;fill:rgb(90.196078%,91.372549%,93.333333%);fill-opacity:1;" d="M 8.03125 49.960938 C 8.03125 50.855469 7.304688 51.582031 6.410156 51.582031 C 5.511719 51.582031 4.789062 50.855469 4.789062 49.960938 C 4.789062 49.066406 5.511719 48.339844 6.410156 48.339844 C 7.304688 48.339844 8.03125 49.066406 8.03125 49.960938 Z M 8.03125 49.960938 "/>
<path style=" stroke:none;fill-rule:nonzero;fill:rgb(51.764706%,85.882353%,100%);fill-opacity:1;" d="M 27.722656 94.132812 C 27.722656 95.027344 26.996094 95.753906 26.101562 95.753906 C 25.203125 95.753906 24.480469 95.027344 24.480469 94.132812 C 24.480469 93.234375 25.203125 92.507812 26.101562 92.507812 C 26.996094 92.507812 27.722656 93.234375 27.722656 94.132812 Z M 27.722656 94.132812 "/>
<path style=" stroke:none;fill-rule:nonzero;fill:rgb(51.764706%,85.882353%,100%);fill-opacity:1;" d="M 76.832031 8.261719 C 76.832031 9.15625 76.109375 9.882812 75.210938 9.882812 C 74.316406 9.882812 73.589844 9.15625 73.589844 8.261719 C 73.589844 7.367188 74.316406 6.640625 75.210938 6.640625 C 76.109375 6.640625 76.832031 7.367188 76.832031 8.261719 Z M 76.832031 8.261719 "/>
</g>
</svg>
