<?xml version="1.0" encoding="utf-8"?>
<!-- Generator: Adobe Illustrator 18.0.0, SVG Export Plug-In . SVG Version: 6.00 Build 0)  -->
<!DOCTYPE svg PUBLIC "-//W3C//DTD SVG 1.1//EN" "http://www.w3.org/Graphics/SVG/1.1/DTD/svg11.dtd">
<svg version="1.1" id="Layer_1" xmlns="http://www.w3.org/2000/svg" xmlns:xlink="http://www.w3.org/1999/xlink" x="0px" y="0px"
	 viewBox="0 0 129.5 129.5" enable-background="new 0 0 129.5 129.5" xml:space="preserve">
<g>
	<g>
		<circle fill="#FFFFFF" cx="65.4" cy="13.3" r="12.6"/>
		<circle fill="#FFFFFF" cx="65.4" cy="64.7" r="12.6"/>
		<path fill="#231F20" d="M65.4,78.1c-7.4,0-13.3-6-13.3-13.3s6-13.3,13.3-13.3s13.3,6,13.3,13.3S72.8,78.1,65.4,78.1z M65.4,52.9
			c-6.5,0-11.8,5.3-11.8,11.8c0,6.5,5.3,11.8,11.8,11.8c6.5,0,11.8-5.3,11.8-11.8C77.3,58.2,72,52.9,65.4,52.9z"/>
		<circle fill="#E6E9EE" cx="65.4" cy="13.3" r="7.1"/>
		<circle fill="#FFFFFF" cx="110" cy="38.5" r="12.6"/>
		<circle fill="#FFFFFF" cx="20.9" cy="38.5" r="12.6"/>
		<circle fill="#FFFFFF" cx="110" cy="91" r="12.6"/>
		<circle fill="#FFFFFF" cx="20.9" cy="91" r="12.6"/>
		<circle fill="#FFFFFF" cx="65.4" cy="116.2" r="12.6"/>
		<g>
			<rect x="20.2" y="73.5" fill="#231F20" width="1.5" height="1"/>
			<rect x="20.2" y="76.5" fill="#231F20" width="1.5" height="1"/>
			<rect x="20.2" y="70.5" fill="#231F20" width="1.5" height="1"/>
			<rect x="20.2" y="58.5" fill="#231F20" width="1.5" height="1"/>
			<rect x="20.2" y="61.5" fill="#231F20" width="1.5" height="1"/>
			<rect x="20.2" y="55.5" fill="#231F20" width="1.5" height="1"/>
			<rect x="20.2" y="64.5" fill="#231F20" width="1.5" height="1"/>
			<rect x="20.2" y="67.5" fill="#231F20" width="1.5" height="1"/>
			
				<rect x="45.1" y="104" transform="matrix(-0.8661 -0.4999 0.4999 -0.8661 32.8003 218.2199)" fill="#231F20" width="1" height="1.5"/>
			
				<rect x="47.7" y="105.5" transform="matrix(-0.866 -0.5001 0.5001 -0.866 36.8762 222.3156)" fill="#231F20" width="1" height="1.5"/>
			
				<rect x="50.3" y="107" transform="matrix(-0.8659 -0.5001 0.5001 -0.8659 40.967 226.4133)" fill="#231F20" width="1" height="1.5"/>
			
				<rect x="52.7" y="108.7" transform="matrix(-0.5001 0.866 -0.866 -0.5001 174.7211 117.5666)" fill="#231F20" width="1.5" height="1"/>
			
				<rect x="39.9" y="101" transform="matrix(-0.8661 -0.4999 0.4999 -0.8661 24.6045 210.0241)" fill="#231F20" width="1" height="1.5"/>
			
				<rect x="37.3" y="99.5" transform="matrix(-0.8661 -0.4999 0.4999 -0.8661 20.505 205.9259)" fill="#231F20" width="1" height="1.5"/>
			
				<rect x="34.7" y="98" transform="matrix(-0.8661 -0.4999 0.4999 -0.8661 16.4065 201.8279)" fill="#231F20" width="1" height="1.5"/>
			
				<rect x="42.5" y="102.5" transform="matrix(-0.8661 -0.4999 0.4999 -0.8661 28.7073 214.1226)" fill="#231F20" width="1" height="1.5"/>
			<rect x="33.6" y="30.8" transform="matrix(0.5001 0.866 -0.866 0.5001 44.275 -14.099)" fill="#231F20" width="1.5" height="1"/>
			<rect x="77.8" y="20.4" transform="matrix(0.5 -0.866 0.866 0.5 21.1624 78.4404)" fill="#231F20" width="1.5" height="1"/>
			
				<rect x="83.2" y="23.1" transform="matrix(0.866 0.5001 -0.5001 0.866 23.1684 -38.662)" fill="#231F20" width="1" height="1.5"/>
			
				<rect x="85.8" y="24.6" transform="matrix(0.8659 0.5001 -0.5001 0.8659 24.27 -39.7634)" fill="#231F20" width="1" height="1.5"/>
			
				<rect x="80.6" y="21.6" transform="matrix(0.8661 0.4999 -0.4999 0.8661 22.0581 -37.5521)" fill="#231F20" width="1" height="1.5"/>
			
				<rect x="88.4" y="26.1" transform="matrix(0.8659 0.5001 -0.5001 0.8659 25.3685 -40.8617)" fill="#231F20" width="1" height="1.5"/>
			
				<rect x="91" y="27.6" transform="matrix(0.8661 0.4999 -0.4999 0.8661 26.4494 -41.9437)" fill="#231F20" width="1" height="1.5"/>
			
				<rect x="96.2" y="30.6" transform="matrix(0.8661 0.4999 -0.4999 0.8661 28.6451 -44.1397)" fill="#231F20" width="1" height="1.5"/>
			
				<rect x="93.6" y="29.1" transform="matrix(0.8661 0.4999 -0.4999 0.8661 27.5473 -43.0417)" fill="#231F20" width="1" height="1.5"/>
			
				<rect x="41.4" y="26.3" transform="matrix(0.5001 0.866 -0.866 0.5001 44.2747 -23.0985)" fill="#231F20" width="1.5" height="1"/>
			
				<rect x="36.2" y="29.3" transform="matrix(0.5001 0.866 -0.866 0.5001 44.2749 -17.0988)" fill="#231F20" width="1.5" height="1"/>
			
				<rect x="38.8" y="27.8" transform="matrix(0.5001 0.866 -0.866 0.5001 44.2749 -20.0987)" fill="#231F20" width="1.5" height="1"/>
			
				<rect x="51.8" y="20.3" transform="matrix(0.5001 0.866 -0.866 0.5001 44.2742 -35.0976)" fill="#231F20" width="1.5" height="1"/>
			<path fill="#231F20" d="M77.6,110l-0.8-1.3l-0.3,0.2c-2.4-3.6-6.5-6-11.2-6c-7.4,0-13.3,6-13.3,13.3c0,7.4,6,13.3,13.3,13.3
				s13.3-6,13.3-13.3c0-2.2-0.5-4.2-1.4-6L77.6,110z M65.4,128c-6.5,0-11.8-5.3-11.8-11.8c0-6.5,5.3-11.8,11.8-11.8
				c6.5,0,11.8,5.3,11.8,11.8C77.3,122.7,72,128,65.4,128z"/>
			<rect x="20.2" y="52.5" fill="#231F20" width="1.5" height="1"/>
			<rect x="44" y="24.8" transform="matrix(0.5001 0.866 -0.866 0.5001 44.2745 -26.0982)" fill="#231F20" width="1.5" height="1"/>
			
				<rect x="49.2" y="21.8" transform="matrix(0.5001 0.866 -0.866 0.5001 44.2744 -32.0979)" fill="#231F20" width="1.5" height="1"/>
			
				<rect x="46.6" y="23.3" transform="matrix(0.5001 0.866 -0.866 0.5001 44.2745 -29.0981)" fill="#231F20" width="1.5" height="1"/>
			<rect x="109.2" y="74.2" fill="#231F20" width="1.5" height="1"/>
			<rect x="109.2" y="56.2" fill="#231F20" width="1.5" height="1"/>
			
				<rect x="86.5" y="103.1" transform="matrix(-0.5001 -0.866 0.866 -0.5001 41.095 230.9124)" fill="#231F20" width="1.5" height="1"/>
			
				<rect x="83.9" y="104.6" transform="matrix(-0.5001 -0.866 0.866 -0.5001 35.899 230.9128)" fill="#231F20" width="1.5" height="1"/>
			<rect x="109.2" y="59.2" fill="#231F20" width="1.5" height="1"/>
			<rect x="109.2" y="53.2" fill="#231F20" width="1.5" height="1"/>
			<rect x="109.2" y="62.2" fill="#231F20" width="1.5" height="1"/>
			
				<rect x="78.7" y="107.6" transform="matrix(-0.5001 -0.866 0.866 -0.5001 25.5062 230.9131)" fill="#231F20" width="1.5" height="1"/>
			
				<rect x="81.3" y="106.1" transform="matrix(-0.5001 -0.866 0.866 -0.5001 30.7025 230.9129)" fill="#231F20" width="1.5" height="1"/>
			
				<rect x="91.6" y="100.1" transform="matrix(-0.5001 -0.866 0.866 -0.5001 51.4877 230.9121)" fill="#231F20" width="1.5" height="1"/>
			<rect x="109.2" y="71.2" fill="#231F20" width="1.5" height="1"/>
			<rect x="109.2" y="68.2" fill="#231F20" width="1.5" height="1"/>
			
				<rect x="96.8" y="97.1" transform="matrix(-0.5001 -0.866 0.866 -0.5001 61.8801 230.9116)" fill="#231F20" width="1.5" height="1"/>
			<rect x="109.2" y="65.2" fill="#231F20" width="1.5" height="1"/>
			
				<rect x="89" y="101.6" transform="matrix(-0.5001 -0.866 0.866 -0.5001 46.2913 230.9123)" fill="#231F20" width="1.5" height="1"/>
			
				<rect x="94.2" y="98.6" transform="matrix(-0.5001 -0.866 0.866 -0.5001 56.6838 230.9118)" fill="#231F20" width="1.5" height="1"/>
			<rect x="64.7" y="40.3" fill="#231F20" width="1.5" height="1"/>
			<rect x="64.7" y="43.3" fill="#231F20" width="1.5" height="1"/>
			<rect x="64.7" y="100.3" fill="#231F20" width="1.5" height="1"/>
			<rect x="64.7" y="37.3" fill="#231F20" width="1.5" height="1"/>
			<rect x="64.7" y="49.3" fill="#231F20" width="1.5" height="1"/>
			<rect x="64.7" y="46.3" fill="#231F20" width="1.5" height="1"/>
			<rect x="64.7" y="31.3" fill="#231F20" width="1.5" height="1"/>
			<rect x="64.7" y="28.3" fill="#231F20" width="1.5" height="1"/>
			<rect x="64.7" y="34.3" fill="#231F20" width="1.5" height="1"/>
			<rect x="64.7" y="85.3" fill="#231F20" width="1.5" height="1"/>
			<rect x="64.7" y="97.3" fill="#231F20" width="1.5" height="1"/>
			<rect x="64.7" y="91.3" fill="#231F20" width="1.5" height="1"/>
			<rect x="64.7" y="88.3" fill="#231F20" width="1.5" height="1"/>
			<rect x="64.7" y="94.3" fill="#231F20" width="1.5" height="1"/>
			<rect x="64.7" y="82.3" fill="#231F20" width="1.5" height="1"/>
			<rect x="64.7" y="79.3" fill="#231F20" width="1.5" height="1"/>
			<rect x="44.2" y="52" transform="matrix(0.866 0.5001 -0.5001 0.866 32.4005 -15.2984)" fill="#231F20" width="1" height="1.5"/>
			
				<rect x="78" y="71.5" transform="matrix(0.8661 0.4999 -0.4999 0.8661 46.6538 -29.5677)" fill="#231F20" width="1" height="1.5"/>
			
				<rect x="90.8" y="79.3" transform="matrix(0.5001 -0.866 0.866 0.5001 -23.3564 119.1364)" fill="#231F20" width="1.5" height="1"/>
			
				<rect x="52" y="56.5" transform="matrix(0.8661 0.4999 -0.4999 0.8661 35.6804 -18.5898)" fill="#231F20" width="1" height="1.5"/>
			
				<rect x="93.4" y="80.8" transform="matrix(0.5001 -0.866 0.866 0.5001 -23.3565 122.1363)" fill="#231F20" width="1.5" height="1"/>
			
				<rect x="96.2" y="82" transform="matrix(0.8661 0.4999 -0.4999 0.8661 54.3439 -37.2549)" fill="#231F20" width="1" height="1.5"/>
			<rect x="39" y="49" transform="matrix(0.8661 0.4999 -0.4999 0.8661 30.1912 -13.1001)" fill="#231F20" width="1" height="1.5"/>
			
				<rect x="80.4" y="73.3" transform="matrix(0.5001 -0.866 0.866 0.5001 -23.3558 107.1374)" fill="#231F20" width="1.5" height="1"/>
			
				<rect x="36.4" y="47.5" transform="matrix(0.8661 0.4999 -0.4999 0.8661 29.0939 -12.0022)" fill="#231F20" width="1" height="1.5"/>
			<rect x="49.4" y="55" transform="matrix(0.866 0.5001 -0.5001 0.866 34.5972 -17.495)" fill="#231F20" width="1" height="1.5"/>
			
				<rect x="46.8" y="53.5" transform="matrix(0.8659 0.5001 -0.5001 0.8659 33.5024 -16.3974)" fill="#231F20" width="1" height="1.5"/>
			
				<rect x="41.6" y="50.5" transform="matrix(0.8661 0.4999 -0.4999 0.8661 31.289 -14.1981)" fill="#231F20" width="1" height="1.5"/>
			<rect x="83" y="74.8" transform="matrix(0.5001 -0.866 0.866 0.5001 -23.356 110.1371)" fill="#231F20" width="1.5" height="1"/>
			
				<rect x="85.6" y="76.3" transform="matrix(0.5001 -0.866 0.866 0.5001 -23.3561 113.1369)" fill="#231F20" width="1.5" height="1"/>
			
				<rect x="88.2" y="77.8" transform="matrix(0.5001 -0.866 0.866 0.5001 -23.3562 116.1367)" fill="#231F20" width="1.5" height="1"/>
			
				<rect x="33.8" y="46" transform="matrix(-0.8661 -0.4999 0.4999 -0.8661 40.702 104.4988)" fill="#231F20" width="1" height="1.5"/>
			
				<rect x="85.5" y="52.4" transform="matrix(0.5039 0.8638 -0.8638 0.5039 88.4657 -48.218)" fill="#231F20" width="1.5" height="1"/>
			
				<rect x="77.9" y="56.7" transform="matrix(0.864 -0.5035 0.5035 0.864 -18.2508 47.3026)" fill="#231F20" width="1" height="1.5"/>
			
				<rect x="95.8" y="46.4" transform="matrix(0.5034 0.8641 -0.8641 0.5034 88.4492 -60.176)" fill="#231F20" width="1.5" height="1"/>
			
				<rect x="80.3" y="55.4" transform="matrix(0.5038 0.8638 -0.8638 0.5038 88.5105 -42.2409)" fill="#231F20" width="1.5" height="1"/>
			
				<rect x="90.6" y="49.4" transform="matrix(0.5039 0.8638 -0.8638 0.5039 88.4265 -54.1948)" fill="#231F20" width="1.5" height="1"/>
			
				<rect x="82.9" y="53.9" transform="matrix(0.5039 0.8638 -0.8638 0.5039 88.4852 -45.2295)" fill="#231F20" width="1.5" height="1"/>
			
				<rect x="88" y="50.9" transform="matrix(0.5039 0.8638 -0.8638 0.5039 88.446 -51.2062)" fill="#231F20" width="1.5" height="1"/>
			
				<rect x="93.2" y="47.9" transform="matrix(0.5039 0.8638 -0.8638 0.5039 88.4069 -57.1831)" fill="#231F20" width="1.5" height="1"/>
			
				<rect x="41.6" y="77.8" transform="matrix(0.8638 -0.5039 0.5039 0.8638 -33.8582 31.9445)" fill="#231F20" width="1" height="1.5"/>
			
				<rect x="44.2" y="76.3" transform="matrix(0.8638 -0.5039 0.5039 0.8638 -32.7436 33.0446)" fill="#231F20" width="1" height="1.5"/>
			
				<rect x="39.1" y="79.4" transform="matrix(0.8639 -0.5037 0.5037 0.8639 -34.9603 30.8258)" fill="#231F20" width="1" height="1.5"/>
			
				<rect x="36.5" y="80.9" transform="matrix(0.8638 -0.5039 0.5039 0.8638 -36.0872 29.7445)" fill="#231F20" width="1" height="1.5"/>
			
				<rect x="51.8" y="72" transform="matrix(0.5033 0.8641 -0.8641 0.5033 88.7703 -9.3466)" fill="#231F20" width="1.5" height="1"/>
			
				<rect x="33.9" y="82.4" transform="matrix(0.8638 -0.5039 0.5039 0.8638 -37.2018 28.6445)" fill="#231F20" width="1" height="1.5"/>
			
				<rect x="49.4" y="73.3" transform="matrix(0.864 -0.5035 0.5035 0.864 -30.4979 35.2098)" fill="#231F20" width="1" height="1.5"/>
			
				<rect x="46.8" y="74.8" transform="matrix(0.8639 -0.5036 0.5036 0.8639 -31.6149 34.1172)" fill="#231F20" width="1" height="1.5"/>
			<path fill="#231F20" d="M65.4,26.7c7.4,0,13.3-6,13.3-13.3S72.8,0,65.4,0S52.1,6,52.1,13.3S58.1,26.7,65.4,26.7z M65.4,1.5
				c6.5,0,11.8,5.3,11.8,11.8c0,6.5-5.3,11.8-11.8,11.8c-6.5,0-11.8-5.3-11.8-11.8C53.6,6.8,58.9,1.5,65.4,1.5z"/>
			<path fill="#231F20" d="M110,51.9c7.4,0,13.3-6,13.3-13.3c0-7.4-6-13.3-13.3-13.3s-13.3,6-13.3,13.3
				C96.6,45.9,102.6,51.9,110,51.9z M110,26.7c6.5,0,11.8,5.3,11.8,11.8c0,6.5-5.3,11.8-11.8,11.8c-6.5,0-11.8-5.3-11.8-11.8
				C98.1,32,103.4,26.7,110,26.7z"/>
			<path fill="#231F20" d="M20.9,51.9c7.4,0,13.3-6,13.3-13.3c0-7.4-6-13.3-13.3-13.3c-7.4,0-13.3,6-13.3,13.3
				C7.6,45.9,13.6,51.9,20.9,51.9z M20.9,26.7c6.5,0,11.8,5.3,11.8,11.8c0,6.5-5.3,11.8-11.8,11.8c-6.5,0-11.8-5.3-11.8-11.8
				C9.1,32,14.4,26.7,20.9,26.7z"/>
			<path fill="#231F20" d="M110.7,77.7v-0.4h-1.5v0.4c-7,0.4-12.6,6.2-12.6,13.3c0,7.4,6,13.3,13.3,13.3s13.3-6,13.3-13.3
				C123.3,83.9,117.7,78.1,110.7,77.7z M110,102.8c-6.5,0-11.8-5.3-11.8-11.8c0-6.5,5.3-11.8,11.8-11.8c6.5,0,11.8,5.3,11.8,11.8
				C121.8,97.5,116.5,102.8,110,102.8z"/>
			<path fill="#231F20" d="M20.9,77.6c-7.4,0-13.3,6-13.3,13.3c0,7.4,6,13.3,13.3,13.3c4.8,0,9-2.6,11.4-6.4l0.4,0.2l0.8-1.3
				L33,96.6c0.8-1.7,1.3-3.6,1.3-5.6C34.3,83.6,28.3,77.6,20.9,77.6z M20.9,102.8c-6.5,0-11.8-5.3-11.8-11.8
				c0-6.5,5.3-11.8,11.8-11.8c6.5,0,11.8,5.3,11.8,11.8C32.8,97.5,27.5,102.8,20.9,102.8z"/>
		</g>
		<circle fill="#E6E9EE" cx="65.4" cy="116.2" r="7.1"/>
		<circle fill="#FF7058" cx="65.4" cy="64.7" r="7.1"/>
		<circle fill="#FFD05B" cx="20.9" cy="91" r="7.1"/>
		<circle fill="#FFD05B" cx="110" cy="38.5" r="7.1"/>
		<circle fill="#84DBFF" cx="110" cy="91" r="7.1"/>
		<circle fill="#84DBFF" cx="20.9" cy="38.5" r="7.1"/>
		<g>
			<path fill="#231F20" d="M121.1,7.3c0.2,0,0.4-0.1,0.5-0.2l1.3-1.3c0.3-0.3,0.3-0.8,0-1.1c-0.3-0.3-0.8-0.3-1.1,0L120.5,6
				c-0.3,0.3-0.3,0.8,0,1.1C120.7,7.2,120.9,7.3,121.1,7.3z"/>
			<path fill="#231F20" d="M117.8,8.7l-1.3,1.3c-0.3,0.3-0.3,0.8,0,1.1c0.1,0.1,0.3,0.2,0.5,0.2c0.2,0,0.4-0.1,0.5-0.2l1.3-1.3
				c0.3-0.3,0.3-0.8,0-1.1C118.6,8.5,118.1,8.5,117.8,8.7z"/>
			<path fill="#231F20" d="M121.6,8.7c-0.3-0.3-0.8-0.3-1.1,0c-0.3,0.3-0.3,0.8,0,1.1l1.3,1.3c0.1,0.1,0.3,0.2,0.5,0.2
				c0.2,0,0.4-0.1,0.5-0.2c0.3-0.3,0.3-0.8,0-1.1L121.6,8.7z"/>
			<path fill="#231F20" d="M117.6,4.7c-0.3-0.3-0.8-0.3-1.1,0c-0.3,0.3-0.3,0.8,0,1.1l1.3,1.3c0.1,0.1,0.3,0.2,0.5,0.2
				s0.4-0.1,0.5-0.2c0.3-0.3,0.3-0.8,0-1.1L117.6,4.7z"/>
		</g>
		<g>
			<path fill="#231F20" d="M118.4,119.9c0.2,0,0.4-0.1,0.5-0.2l1.3-1.3c0.3-0.3,0.3-0.8,0-1.1c-0.3-0.3-0.8-0.3-1.1,0l-1.3,1.3
				c-0.3,0.3-0.3,0.8,0,1.1C118,119.9,118.2,119.9,118.4,119.9z"/>
			<path fill="#231F20" d="M115.1,121.4l-1.3,1.3c-0.3,0.3-0.3,0.8,0,1.1c0.1,0.1,0.3,0.2,0.5,0.2c0.2,0,0.4-0.1,0.5-0.2l1.3-1.3
				c0.3-0.3,0.3-0.8,0-1.1C115.9,121.1,115.4,121.1,115.1,121.4z"/>
			<path fill="#231F20" d="M118.9,121.4c-0.3-0.3-0.8-0.3-1.1,0c-0.3,0.3-0.3,0.8,0,1.1l1.3,1.3c0.1,0.1,0.3,0.2,0.5,0.2
				s0.4-0.1,0.5-0.2c0.3-0.3,0.3-0.8,0-1.1L118.9,121.4z"/>
			<path fill="#231F20" d="M114.9,117.4c-0.3-0.3-0.8-0.3-1.1,0c-0.3,0.3-0.3,0.8,0,1.1l1.3,1.3c0.1,0.1,0.3,0.2,0.5,0.2
				c0.2,0,0.4-0.1,0.5-0.2c0.3-0.3,0.3-0.8,0-1.1L114.9,117.4z"/>
		</g>
		<g>
			<path fill="#231F20" d="M15.2,12.1c0.2,0,0.4-0.1,0.5-0.2l1.3-1.3c0.3-0.3,0.3-0.8,0-1.1s-0.8-0.3-1.1,0l-1.3,1.3
				c-0.3,0.3-0.3,0.8,0,1.1C14.8,12,15,12.1,15.2,12.1z"/>
			<path fill="#231F20" d="M12,13.5l-1.3,1.3c-0.3,0.3-0.3,0.8,0,1.1c0.1,0.1,0.3,0.2,0.5,0.2c0.2,0,0.4-0.1,0.5-0.2l1.3-1.3
				c0.3-0.3,0.3-0.8,0-1.1C12.7,13.2,12.2,13.2,12,13.5z"/>
			<path fill="#231F20" d="M15.8,13.5c-0.3-0.3-0.8-0.3-1.1,0c-0.3,0.3-0.3,0.8,0,1.1l1.3,1.3c0.1,0.1,0.3,0.2,0.5,0.2
				c0.2,0,0.4-0.1,0.5-0.2c0.3-0.3,0.3-0.8,0-1.1L15.8,13.5z"/>
			<path fill="#231F20" d="M11.7,9.5c-0.3-0.3-0.8-0.3-1.1,0c-0.3,0.3-0.3,0.8,0,1.1l1.3,1.3c0.1,0.1,0.3,0.2,0.5,0.2
				c0.2,0,0.4-0.1,0.5-0.2c0.3-0.3,0.3-0.8,0-1.1L11.7,9.5z"/>
		</g>
		<g>
			<path fill="#231F20" d="M22,112.4c0-0.4-0.3-0.8-0.8-0.8h-8.1c-0.4,0-0.8,0.3-0.8,0.8c0,0.4,0.3,0.8,0.8,0.8h8.1
				C21.7,113.1,22,112.8,22,112.4z"/>
			<path fill="#231F20" d="M24.4,114.6h-4c-0.4,0-0.8,0.3-0.8,0.8c0,0.4,0.3,0.8,0.8,0.8h4c0.4,0,0.8-0.3,0.8-0.8
				C25.2,114.9,24.8,114.6,24.4,114.6z"/>
			<path fill="#231F20" d="M28.7,111.6h-3.8c-0.4,0-0.8,0.3-0.8,0.8c0,0.4,0.3,0.8,0.8,0.8h3.8c0.4,0,0.8-0.3,0.8-0.8
				C29.4,112,29.1,111.6,28.7,111.6z"/>
			<path fill="#231F20" d="M17.6,114.6h-0.8c-0.4,0-0.8,0.3-0.8,0.8c0,0.4,0.3,0.8,0.8,0.8h0.8c0.4,0,0.8-0.3,0.8-0.8
				C18.3,114.9,18,114.6,17.6,114.6z"/>
		</g>
		<circle fill="#E6E9EE" cx="8.3" cy="64.7" r="2.1"/>
		<circle fill="#84DBFF" cx="33.8" cy="121.9" r="2.1"/>
		<circle fill="#84DBFF" cx="97.4" cy="10.7" r="2.1"/>
	</g>
</g>
</svg>
