<?xml version="1.0" encoding="utf-8"?>
<!-- Generator: Adobe Illustrator 18.0.0, SVG Export Plug-In . SVG Version: 6.00 Build 0)  -->
<!DOCTYPE svg PUBLIC "-//W3C//DTD SVG 1.1//EN" "http://www.w3.org/Graphics/SVG/1.1/DTD/svg11.dtd">
<svg version="1.1" id="Layer_1" xmlns="http://www.w3.org/2000/svg" xmlns:xlink="http://www.w3.org/1999/xlink" x="0px" y="0px"
	 viewBox="0 0 129.5 129.5" enable-background="new 0 0 129.5 129.5" xml:space="preserve">
<g>
	<g>
		<g>
			<g>
				<path fill="#231F20" d="M14.3,8.4c-0.2,0-0.4-0.1-0.5-0.2c-0.3-0.3-0.3-0.8,0-1.1l1.3-1.3c0.3-0.3,0.8-0.3,1.1,0
					c0.3,0.3,0.3,0.8,0,1.1l-1.3,1.3C14.7,8.4,14.5,8.4,14.3,8.4z"/>
			</g>
			<g>
				<path fill="#231F20" d="M10.3,12.5c-0.2,0-0.4-0.1-0.5-0.2c-0.3-0.3-0.3-0.8,0-1.1L11,9.9c0.3-0.3,0.8-0.3,1.1,0
					c0.3,0.3,0.3,0.8,0,1.1l-1.3,1.3C10.7,12.4,10.5,12.5,10.3,12.5z"/>
			</g>
			<g>
				<path fill="#231F20" d="M15.6,12.5c-0.2,0-0.4-0.1-0.5-0.2L13.8,11c-0.3-0.3-0.3-0.8,0-1.1c0.3-0.3,0.8-0.3,1.1,0l1.3,1.3
					c0.3,0.3,0.3,0.8,0,1.1C16,12.4,15.8,12.5,15.6,12.5z"/>
			</g>
			<g>
				<path fill="#231F20" d="M11.6,8.4c-0.2,0-0.4-0.1-0.5-0.2L9.8,6.9c-0.3-0.3-0.3-0.8,0-1.1c0.3-0.3,0.8-0.3,1.1,0l1.3,1.3
					c0.3,0.3,0.3,0.8,0,1.1C12,8.4,11.8,8.4,11.6,8.4z"/>
			</g>
		</g>
		<g>
			<g>
				<path fill="#231F20" d="M117.9,10.5c-0.2,0-0.4-0.1-0.5-0.2c-0.3-0.3-0.3-0.8,0-1.1l1.3-1.3c0.3-0.3,0.8-0.3,1.1,0
					c0.3,0.3,0.3,0.8,0,1.1l-1.3,1.3C118.3,10.4,118.1,10.5,117.9,10.5z"/>
			</g>
			<g>
				<path fill="#231F20" d="M113.9,14.5c-0.2,0-0.4-0.1-0.5-0.2c-0.3-0.3-0.3-0.8,0-1.1l1.3-1.3c0.3-0.3,0.8-0.3,1.1,0
					c0.3,0.3,0.3,0.8,0,1.1l-1.3,1.3C114.3,14.4,114.1,14.5,113.9,14.5z"/>
			</g>
			<g>
				<path fill="#231F20" d="M119.2,14.5c-0.2,0-0.4-0.1-0.5-0.2l-1.3-1.3c-0.3-0.3-0.3-0.8,0-1.1c0.3-0.3,0.8-0.3,1.1,0l1.3,1.3
					c0.3,0.3,0.3,0.8,0,1.1C119.6,14.4,119.4,14.5,119.2,14.5z"/>
			</g>
			<g>
				<path fill="#231F20" d="M115.2,10.5c-0.2,0-0.4-0.1-0.5-0.2l-1.3-1.3c-0.3-0.3-0.3-0.8,0-1.1c0.3-0.3,0.8-0.3,1.1,0l1.3,1.3
					c0.3,0.3,0.3,0.8,0,1.1C115.6,10.4,115.4,10.5,115.2,10.5z"/>
			</g>
		</g>
		<g>
			<g>
				<path fill="#231F20" d="M12.9,122.5c-0.2,0-0.4-0.1-0.5-0.2c-0.3-0.3-0.3-0.8,0-1.1l1.3-1.3c0.3-0.3,0.8-0.3,1.1,0
					c0.3,0.3,0.3,0.8,0,1.1l-1.3,1.3C13.3,122.4,13.1,122.5,12.9,122.5z"/>
			</g>
			<g>
				<path fill="#231F20" d="M8.9,126.5c-0.2,0-0.4-0.1-0.5-0.2c-0.3-0.3-0.3-0.8,0-1.1l1.3-1.3c0.3-0.3,0.8-0.3,1.1,0s0.3,0.8,0,1.1
					l-1.3,1.3C9.3,126.5,9.1,126.5,8.9,126.5z"/>
			</g>
			<g>
				<path fill="#231F20" d="M14.2,126.5c-0.2,0-0.4-0.1-0.5-0.2l-1.3-1.3c-0.3-0.3-0.3-0.8,0-1.1c0.3-0.3,0.8-0.3,1.1,0l1.3,1.3
					c0.3,0.3,0.3,0.8,0,1.1C14.6,126.5,14.4,126.5,14.2,126.5z"/>
			</g>
			<g>
				<path fill="#231F20" d="M10.2,122.5c-0.2,0-0.4-0.1-0.5-0.2L8.4,121c-0.3-0.3-0.3-0.8,0-1.1c0.3-0.3,0.8-0.3,1.1,0l1.3,1.3
					c0.3,0.3,0.3,0.8,0,1.1C10.6,122.4,10.4,122.5,10.2,122.5z"/>
			</g>
		</g>
		<g>
			<path fill="#231F20" d="M63.6,106.5c-0.3,0-0.7,0-1,0l0.1-1.5c0.3,0,0.7,0,1,0L63.6,106.5z M60.5,106.3c-0.3,0-0.7-0.1-1-0.1
				l0.2-1.5c0.3,0,0.6,0.1,1,0.1L60.5,106.3z M57.5,105.8c-0.3-0.1-0.7-0.1-1-0.2l0.3-1.5c0.3,0.1,0.6,0.1,1,0.2L57.5,105.8z
				 M54.5,105.2c-0.3-0.1-0.7-0.2-1-0.3l0.4-1.4c0.3,0.1,0.6,0.2,0.9,0.3L54.5,105.2z M51.6,104.3c-0.3-0.1-0.6-0.2-1-0.3l0.5-1.4
				c0.3,0.1,0.6,0.2,0.9,0.3L51.6,104.3z M48.7,103.3c-0.3-0.1-0.6-0.3-0.9-0.4l0.6-1.4c0.3,0.1,0.6,0.3,0.9,0.4L48.7,103.3z
				 M45.9,102c-0.3-0.2-0.6-0.3-0.9-0.5l0.7-1.3c0.3,0.2,0.6,0.3,0.9,0.5L45.9,102z M43.2,100.5c-0.3-0.2-0.6-0.4-0.9-0.5l0.8-1.3
				c0.3,0.2,0.6,0.3,0.8,0.5L43.2,100.5z M40.7,98.8c-0.3-0.2-0.6-0.4-0.8-0.6l0.9-1.2c0.3,0.2,0.5,0.4,0.8,0.6L40.7,98.8z M38.3,97
				c-0.3-0.2-0.5-0.4-0.8-0.7l1-1.1c0.2,0.2,0.5,0.4,0.8,0.6L38.3,97z M36,95c-0.2-0.2-0.5-0.5-0.7-0.7l1.1-1.1
				c0.2,0.2,0.5,0.5,0.7,0.7L36,95z"/>
		</g>
		<g>
			<path fill="#231F20" d="M35.2,94.3C27.4,86.4,23,75.9,23,64.7h1.5c0,10.7,4.2,20.8,11.8,28.4L35.2,94.3z"/>
		</g>
		<g>
			<path fill="#231F20" d="M24.5,63.6l-1.5,0c0-0.3,0-0.7,0-1l1.5,0.1C24.6,62.9,24.5,63.3,24.5,63.6z M24.7,60.7l-1.5-0.2
				c0-0.3,0.1-0.7,0.1-1l1.5,0.2C24.8,60,24.8,60.3,24.7,60.7z M25.1,57.7l-1.5-0.3c0.1-0.3,0.1-0.7,0.2-1l1.5,0.3
				C25.3,57.1,25.2,57.4,25.1,57.7z M25.8,54.9l-1.5-0.4c0.1-0.3,0.2-0.7,0.3-1l1.4,0.4C25.9,54.2,25.8,54.5,25.8,54.9z M26.6,52
				l-1.4-0.5c0.1-0.3,0.2-0.6,0.3-1l1.4,0.5C26.8,51.4,26.7,51.7,26.6,52z M27.6,49.3l-1.4-0.6c0.1-0.3,0.3-0.6,0.4-0.9l1.4,0.6
				C27.9,48.7,27.7,49,27.6,49.3z M28.8,46.6l-1.3-0.7c0.2-0.3,0.3-0.6,0.5-0.9l1.3,0.7C29.1,46,29,46.3,28.8,46.6z M30.3,44
				L29,43.2c0.2-0.3,0.4-0.6,0.5-0.9l1.3,0.8C30.6,43.5,30.4,43.7,30.3,44z M31.9,41.6l-1.2-0.9c0.2-0.3,0.4-0.6,0.6-0.8l1.2,0.9
				C32.3,41,32.1,41.3,31.9,41.6z M33.7,39.2l-1.2-1c0.2-0.3,0.4-0.5,0.7-0.8l1.1,1C34.1,38.7,33.9,39,33.7,39.2z M35.6,37l-1.1-1
				c0.2-0.2,0.5-0.5,0.7-0.7l1.1,1.1C36.1,36.5,35.8,36.8,35.6,37z"/>
		</g>
		<g>
			<path fill="#231F20" d="M36.3,36.3l-1.1-1.1C43.1,27.4,53.6,23,64.8,23v1.5C54,24.5,43.9,28.7,36.3,36.3z"/>
		</g>
		<g>
			<path fill="#231F20" d="M94.3,94.3l-1.1-1.1c0.2-0.2,0.5-0.5,0.7-0.7l1.1,1C94.7,93.8,94.5,94,94.3,94.3z M96.3,92l-1.1-1
				c0.2-0.2,0.4-0.5,0.6-0.8l1.2,1C96.8,91.5,96.6,91.8,96.3,92z M98.3,89.6L97,88.7c0.2-0.3,0.4-0.5,0.6-0.8l1.2,0.9
				C98.7,89.1,98.5,89.4,98.3,89.6z M100,87.1l-1.3-0.8c0.2-0.3,0.3-0.6,0.5-0.8l1.3,0.8C100.3,86.5,100.2,86.8,100,87.1z
				 M101.5,84.5l-1.3-0.7c0.2-0.3,0.3-0.6,0.5-0.9l1.3,0.7C101.8,83.9,101.7,84.2,101.5,84.5z M102.9,81.7l-1.4-0.6
				c0.1-0.3,0.3-0.6,0.4-0.9l1.4,0.6C103.1,81.1,103,81.4,102.9,81.7z M104,78.9l-1.4-0.5c0.1-0.3,0.2-0.6,0.3-0.9l1.4,0.5
				C104.2,78.3,104.1,78.6,104,78.9z M104.9,76l-1.4-0.4c0.1-0.3,0.2-0.6,0.3-0.9l1.5,0.4C105.1,75.3,105,75.7,104.9,76z M105.7,73
				l-1.5-0.3c0.1-0.3,0.1-0.6,0.2-1l1.5,0.3C105.8,72.4,105.7,72.7,105.7,73z M106.1,70l-1.5-0.2c0-0.3,0.1-0.6,0.1-1l1.5,0.2
				C106.2,69.3,106.2,69.7,106.1,70z M106.4,67l-1.5-0.1c0-0.3,0-0.7,0-1l1.5,0C106.5,66.3,106.4,66.6,106.4,67z"/>
		</g>
		<g>
			<path fill="#231F20" d="M64.8,106.5V105c10.7,0,20.8-4.2,28.4-11.8l1.1,1.1C86.4,102.1,75.9,106.5,64.8,106.5z"/>
		</g>
		<g>
			<path fill="#231F20" d="M93.2,36.3c-0.2-0.2-0.5-0.5-0.7-0.7l1-1.1c0.2,0.2,0.5,0.5,0.7,0.7L93.2,36.3z M91,34.3
				c-0.2-0.2-0.5-0.4-0.8-0.6l1-1.2c0.3,0.2,0.5,0.4,0.8,0.7L91,34.3z M88.7,32.5c-0.3-0.2-0.5-0.4-0.8-0.6l0.9-1.2
				c0.3,0.2,0.6,0.4,0.8,0.6L88.7,32.5z M86.3,30.8c-0.3-0.2-0.6-0.3-0.8-0.5l0.8-1.3c0.3,0.2,0.6,0.4,0.9,0.5L86.3,30.8z
				 M83.8,29.3c-0.3-0.2-0.6-0.3-0.9-0.5l0.7-1.3c0.3,0.2,0.6,0.3,0.9,0.5L83.8,29.3z M81.1,28c-0.3-0.1-0.6-0.3-0.9-0.4l0.6-1.4
				c0.3,0.1,0.6,0.3,0.9,0.4L81.1,28z M78.4,26.9c-0.3-0.1-0.6-0.2-0.9-0.3l0.5-1.4c0.3,0.1,0.6,0.2,1,0.3L78.4,26.9z M75.6,26
				c-0.3-0.1-0.6-0.2-0.9-0.3l0.4-1.5c0.3,0.1,0.7,0.2,1,0.3L75.6,26z M72.7,25.3c-0.3-0.1-0.6-0.1-1-0.2l0.3-1.5
				c0.3,0.1,0.7,0.1,1,0.2L72.7,25.3z M69.8,24.8c-0.3,0-0.6-0.1-1-0.1l0.2-1.5c0.3,0,0.7,0.1,1,0.1L69.8,24.8z M66.9,24.6
				c-0.3,0-0.7,0-1,0l0-1.5c0.3,0,0.7,0,1,0L66.9,24.6z"/>
		</g>
		<g>
			<path fill="#231F20" d="M106.5,64.7H105c0-10.7-4.2-20.8-11.8-28.4l1.1-1.1C102.1,43.1,106.5,53.6,106.5,64.7z"/>
		</g>
		<g>
			<circle fill="#FFD05B" cx="64.8" cy="64.8" r="36.9"/>
			<path fill="#231F20" d="M64.8,102.4c-20.8,0-37.6-16.9-37.6-37.6C27.1,44,44,27.1,64.8,27.1c20.8,0,37.6,16.9,37.6,37.6
				C102.4,85.5,85.5,102.4,64.8,102.4z M64.8,28.6c-19.9,0-36.1,16.2-36.1,36.1c0,19.9,16.2,36.1,36.1,36.1
				c19.9,0,36.1-16.2,36.1-36.1C100.9,44.8,84.7,28.6,64.8,28.6z"/>
		</g>
		<g>
			<circle fill="#FFFFFF" cx="64.8" cy="64.8" r="30.6"/>
			<path fill="#231F20" d="M64.8,96.1c-17.3,0-31.3-14.1-31.3-31.3c0-17.3,14.1-31.3,31.3-31.3s31.3,14.1,31.3,31.3
				C96.1,82,82,96.1,64.8,96.1z M64.8,34.9c-16.5,0-29.8,13.4-29.8,29.8c0,16.5,13.4,29.8,29.8,29.8s29.8-13.4,29.8-29.8
				C94.6,48.3,81.2,34.9,64.8,34.9z"/>
		</g>
		<g>
			<path fill="#231F20" d="M83.5,66.7c-1.6,0-3-1.3-3-3c0-1.6,1.3-3,3-3c1.6,0,3,1.3,3,3C86.5,65.4,85.2,66.7,83.5,66.7z M83.5,62.3
				c-0.8,0-1.5,0.7-1.5,1.5c0,0.8,0.7,1.5,1.5,1.5s1.5-0.7,1.5-1.5C85,62.9,84.3,62.3,83.5,62.3z"/>
		</g>
		<g>
			<path fill="#231F20" d="M43.8,66.7c-1.6,0-3-1.3-3-3c0-1.6,1.3-3,3-3c1.6,0,3,1.3,3,3C46.8,65.4,45.5,66.7,43.8,66.7z M43.8,62.3
				c-0.8,0-1.5,0.7-1.5,1.5c0,0.8,0.7,1.5,1.5,1.5s1.5-0.7,1.5-1.5C45.3,62.9,44.6,62.3,43.8,62.3z"/>
		</g>
		<g>
			<path fill="#231F20" d="M71,64.9l1-1.1c-0.3-0.2-0.6-0.5-0.8-0.7l-0.9,1.2C70.5,64.5,70.7,64.7,71,64.9z"/>
			<path fill="#231F20" d="M72.3,66.3c0.2,0.2,0.4,0.5,0.5,0.8l1.3-0.8c-0.2-0.3-0.4-0.6-0.6-0.9L72.3,66.3z"/>
			<path fill="#231F20" d="M67.8,63.1c0.3,0.1,0.6,0.2,0.9,0.3l0.6-1.4c-0.3-0.1-0.7-0.3-1-0.4L67.8,63.1z"/>
			<path fill="#231F20" d="M74.3,71.3c0,0.3,0,0.6,0,0.9c0,4.3-2.9,8.1-7,9.3c-0.3,0.1-0.5,0.4-0.5,0.7v2.5h-4.2v-2.5
				c0-0.3-0.2-0.6-0.5-0.7c-3.9-1.1-6.6-4.5-6.9-8.5h4.3c0.4,2.6,2.6,4.6,5.3,4.6c3,0,5.4-2.4,5.4-5.4c0-3-2.4-5.4-5.4-5.4v1.5
				c2.1,0,3.9,1.7,3.9,3.9c0,2.1-1.7,3.9-3.9,3.9c-2.1,0-3.9-1.7-3.9-3.9c0-0.4-0.3-0.8-0.8-0.8h-5.7c-0.4,0-0.8,0.3-0.8,0.8
				c0,4.7,3.1,9,7.5,10.5v2.7c0,0.4,0.3,0.8,0.8,0.8h5.7c0.4,0,0.8-0.3,0.8-0.8v-2.7c4.5-1.5,7.5-5.8,7.5-10.5c0-0.4,0-0.7,0-1.1
				L74.3,71.3z"/>
			<path fill="#231F20" d="M75.4,69.1c-0.1-0.3-0.2-0.7-0.4-1l-1.4,0.6c0.1,0.3,0.2,0.6,0.3,0.9L75.4,69.1z"/>
			<path fill="#231F20" d="M66,62.7l0.2-1.5c-0.4,0-0.7-0.1-1.1-0.1l0,1.5C65.4,62.6,65.7,62.7,66,62.7z"/>
			<path fill="#231F20" d="M55.2,58.2c0-0.3,0-0.6,0-0.9c0-4.3,2.9-8.1,7-9.2c0.3-0.1,0.5-0.4,0.5-0.7v-2.5h4.2v2.5
				c0,0.3,0.2,0.6,0.5,0.7c3.9,1.1,6.6,4.5,6.9,8.5h-4.3c-0.4-2.6-2.6-4.6-5.3-4.6c-3,0-5.4,2.4-5.4,5.4c0,3,2.4,5.4,5.4,5.4v-1.5
				c-2.1,0-3.9-1.7-3.9-3.9c0-2.1,1.7-3.9,3.9-3.9c2.1,0,3.9,1.7,3.9,3.9c0,0.4,0.3,0.8,0.8,0.8h5.7c0.4,0,0.8-0.3,0.8-0.8
				c0-4.7-3.1-9-7.5-10.5V44c0-0.4-0.3-0.8-0.8-0.8h-5.7c-0.4,0-0.8,0.3-0.8,0.8v2.7c-4.5,1.5-7.5,5.8-7.5,10.5c0,0.4,0,0.7,0,1.1
				L55.2,58.2z"/>
			<path fill="#231F20" d="M64.4,68.4l0-1.5c-0.3,0-0.6,0-0.9-0.1l-0.2,1.5C63.7,68.3,64.1,68.4,64.4,68.4z"/>
			<path fill="#231F20" d="M54.1,60.4c0.1,0.3,0.2,0.7,0.4,1l1.4-0.6c-0.1-0.3-0.2-0.6-0.3-0.9L54.1,60.4z"/>
			<path fill="#231F20" d="M57.2,63.2c-0.2-0.2-0.4-0.5-0.5-0.8l-1.3,0.8c0.2,0.3,0.4,0.6,0.6,0.9L57.2,63.2z"/>
			<path fill="#231F20" d="M60.3,67.4c0.3,0.1,0.7,0.3,1,0.4l0.5-1.4c-0.3-0.1-0.6-0.2-0.9-0.3L60.3,67.4z"/>
			<path fill="#231F20" d="M58.4,66.4l0.9-1.2c-0.3-0.2-0.5-0.4-0.7-0.6l-1,1.1C57.8,65.9,58.1,66.2,58.4,66.4z"/>
		</g>
		<g>
			<path fill="#231F20" d="M64.8,0C62.2,0,60,2.1,60,4.7c0,2.3,1.7,4.3,4,4.6v9.3h1.5V9.4c2.2-0.4,4-2.3,4-4.6
				C69.5,2.1,67.3,0,64.8,0z M64.8,7.9c-1.8,0-3.2-1.4-3.2-3.2c0-1.8,1.4-3.2,3.2-3.2c1.8,0,3.2,1.4,3.2,3.2
				C68,6.5,66.5,7.9,64.8,7.9z"/>
			<path fill="#231F20" d="M65.5,120.1v-9.3H64v9.3c-2.2,0.4-4,2.3-4,4.6c0,2.6,2.1,4.7,4.7,4.7c2.6,0,4.7-2.1,4.7-4.7
				C69.5,122.4,67.7,120.5,65.5,120.1z M64.8,128c-1.8,0-3.2-1.4-3.2-3.2c0-1.8,1.4-3.2,3.2-3.2c1.8,0,3.2,1.4,3.2,3.2
				C68,126.6,66.5,128,64.8,128z"/>
			<path fill="#231F20" d="M124.8,60c-2.3,0-4.3,1.7-4.6,4h-9.3v1.5h9.3c0.4,2.2,2.3,4,4.6,4c2.6,0,4.7-2.1,4.7-4.7
				C129.5,62.2,127.4,60,124.8,60z M124.8,68c-1.8,0-3.2-1.4-3.2-3.2c0-1.8,1.4-3.2,3.2-3.2c1.8,0,3.2,1.4,3.2,3.2
				C128,66.5,126.6,68,124.8,68z"/>
			<path fill="#231F20" d="M9.4,65.5h9.3V64H9.4c-0.4-2.2-2.3-4-4.6-4C2.1,60,0,62.1,0,64.7c0,2.6,2.1,4.7,4.7,4.7
				C7.1,69.5,9,67.7,9.4,65.5z M1.5,64.7c0-1.8,1.4-3.2,3.2-3.2c1.8,0,3.2,1.4,3.2,3.2c0,1.8-1.4,3.2-3.2,3.2
				C2.9,68,1.5,66.5,1.5,64.7z"/>
			<path fill="#231F20" d="M97.9,32.7l6.6-6.6c0.8,0.6,1.7,0.9,2.8,0.9c1.3,0,2.4-0.5,3.3-1.4c0.9-0.9,1.4-2.1,1.4-3.3
				c0-1.3-0.5-2.4-1.4-3.3c-0.9-0.9-2.1-1.4-3.3-1.4c-1.3,0-2.4,0.5-3.3,1.4c-0.9,0.9-1.4,2.1-1.4,3.3c0,1,0.3,2,0.9,2.8l-6.6,6.6
				L97.9,32.7z M104.9,20c0.6-0.6,1.4-0.9,2.3-0.9c0.9,0,1.7,0.3,2.3,0.9c0.6,0.6,0.9,1.4,0.9,2.3s-0.3,1.7-0.9,2.3
				c-1.2,1.2-3.3,1.2-4.5,0c-0.6-0.6-0.9-1.4-0.9-2.3S104.3,20.6,104.9,20z"/>
			<path fill="#231F20" d="M31.7,96.8l-6.6,6.6c-0.8-0.6-1.7-0.9-2.8-0.9c-1.3,0-2.4,0.5-3.3,1.4c-0.9,0.9-1.4,2.1-1.4,3.3
				c0,1.3,0.5,2.4,1.4,3.3c0.9,0.9,2.1,1.4,3.3,1.4c1.3,0,2.4-0.5,3.3-1.4c0.9-0.9,1.4-2.1,1.4-3.3c0-1-0.3-2-0.9-2.8l6.6-6.6
				L31.7,96.8z M24.6,109.5c-1.2,1.2-3.3,1.2-4.5,0c-0.6-0.6-0.9-1.4-0.9-2.3s0.3-1.7,0.9-2.3c0.6-0.6,1.4-0.9,2.3-0.9
				c0.9,0,1.7,0.3,2.3,0.9c0.6,0.6,0.9,1.4,0.9,2.3S25.2,108.9,24.6,109.5z"/>
			<path fill="#231F20" d="M107.2,102.5c-1,0-2,0.3-2.8,0.9l-6.6-6.6l-1.1,1.1l6.6,6.6c-0.6,0.8-0.9,1.7-0.9,2.8
				c0,1.3,0.5,2.4,1.4,3.3c0.9,0.9,2.1,1.4,3.3,1.4c1.3,0,2.4-0.5,3.3-1.4c0.9-0.9,1.4-2.1,1.4-3.3c0-1.3-0.5-2.4-1.4-3.3
				C109.6,103,108.5,102.5,107.2,102.5z M109.5,109.5c-1.2,1.2-3.3,1.2-4.5,0c-0.6-0.6-0.9-1.4-0.9-2.3s0.3-1.7,0.9-2.3
				c0.6-0.6,1.4-0.9,2.3-0.9c0.9,0,1.7,0.3,2.3,0.9c0.6,0.6,0.9,1.4,0.9,2.3S110.1,108.9,109.5,109.5z"/>
			<path fill="#231F20" d="M27,22.3c0-1.3-0.5-2.4-1.4-3.3c-0.9-0.9-2.1-1.4-3.3-1.4S19.9,18.1,19,19c-0.9,0.9-1.4,2.1-1.4,3.3
				c0,1.3,0.5,2.4,1.4,3.3c0.9,0.9,2.1,1.4,3.3,1.4c1,0,2-0.3,2.8-0.9l6.6,6.6l1.1-1.1L26.1,25C26.7,24.2,27,23.3,27,22.3z M20,24.6
				c-0.6-0.6-0.9-1.4-0.9-2.3c0-0.9,0.3-1.7,0.9-2.3c0.6-0.6,1.4-0.9,2.3-0.9s1.7,0.3,2.3,0.9c0.6,0.6,0.9,1.4,0.9,2.3
				c0,0.9-0.3,1.7-0.9,2.3C23.4,25.8,21.2,25.8,20,24.6z"/>
			<path fill="#231F20" d="M46.1,11.1c0.5-1.2,0.5-2.4,0-3.6c-0.7-1.8-2.4-2.9-4.4-2.9c-0.6,0-1.2,0.1-1.8,0.4
				c-1.2,0.5-2.1,1.4-2.6,2.6c-0.5,1.2-0.5,2.4,0,3.6c0.7,1.8,2.4,2.9,4.4,2.9c0.4,0,0.7-0.1,1.1-0.1l3.6,8.6l1.4-0.6l-3.6-8.6
				C45.1,12.8,45.7,12,46.1,11.1z M38.8,10.5c-0.3-0.8-0.3-1.7,0-2.5c0.3-0.8,0.9-1.4,1.7-1.7c0.4-0.2,0.8-0.2,1.2-0.2
				c1.3,0,2.5,0.8,3,2c0.3,0.8,0.3,1.7,0,2.5c-0.3,0.8-0.9,1.4-1.7,1.7c-0.4,0.2-0.8,0.2-1.2,0.2C40.5,12.5,39.3,11.7,38.8,10.5z"/>
			<path fill="#231F20" d="M87.7,115.5c-0.4,0-0.7,0.1-1.1,0.1l-3.6-8.6l-1.4,0.6l3.6,8.6c-0.8,0.5-1.5,1.3-1.9,2.2
				c-0.5,1.2-0.5,2.4,0,3.6c0.7,1.8,2.4,2.9,4.4,2.9c0.6,0,1.2-0.1,1.8-0.4c2.4-1,3.5-3.8,2.6-6.2C91.3,116.6,89.6,115.5,87.7,115.5
				z M89,123.2c-0.4,0.2-0.8,0.2-1.2,0.2c-1.3,0-2.5-0.8-3-2c-0.3-0.8-0.3-1.7,0-2.5c0.3-0.8,0.9-1.4,1.7-1.7
				c0.4-0.2,0.8-0.2,1.2-0.2c1.3,0,2.5,0.8,3,2C91.4,120.6,90.6,122.5,89,123.2z"/>
			<path fill="#231F20" d="M107,46.4l0.6,1.4l8.6-3.6c0.8,1.4,2.4,2.2,4,2.2c0.6,0,1.2-0.1,1.8-0.4c2.4-1,3.5-3.8,2.6-6.2
				c-0.7-1.8-2.4-2.9-4.4-2.9c-0.6,0-1.2,0.1-1.8,0.4c-2.2,0.9-3.3,3.2-2.8,5.4L107,46.4z M119,38.8c0.4-0.2,0.8-0.2,1.2-0.2
				c1.3,0,2.5,0.8,3,2c0.3,0.8,0.3,1.7,0,2.5c-0.3,0.8-0.9,1.4-1.7,1.7c-0.4,0.2-0.8,0.2-1.2,0.2c-1.3,0-2.5-0.8-3-2
				C116.6,41.4,117.4,39.5,119,38.8z"/>
			<path fill="#231F20" d="M22.5,83.1l-0.6-1.4l-8.6,3.6c-0.8-1.4-2.4-2.2-4-2.2c-0.6,0-1.2,0.1-1.8,0.4c-2.4,1-3.5,3.8-2.6,6.2
				c0.7,1.8,2.4,2.9,4.4,2.9c0.6,0,1.2-0.1,1.8-0.4c1.2-0.5,2.1-1.4,2.6-2.6c0.4-0.9,0.4-1.9,0.2-2.9L22.5,83.1z M12.3,89
				c-0.3,0.8-0.9,1.4-1.7,1.7c-0.4,0.2-0.8,0.2-1.2,0.2c-1.3,0-2.5-0.8-3-2c-0.7-1.6,0.1-3.5,1.7-4.2c0.4-0.2,0.8-0.2,1.2-0.2
				c1.3,0,2.5,0.8,3,2C12.6,87.3,12.6,88.2,12.3,89z"/>
			<path fill="#231F20" d="M89.5,4.9c-0.6-0.2-1.2-0.4-1.8-0.4c-1.9,0-3.6,1.1-4.4,2.9c-0.5,1.2-0.5,2.4,0,3.6
				c0.4,0.9,1,1.7,1.9,2.2l-3.6,8.6l1.4,0.6l3.6-8.6c0.4,0.1,0.7,0.1,1.1,0.1c1.9,0,3.6-1.1,4.4-2.9c0.5-1.2,0.5-2.4,0-3.6
				C91.6,6.3,90.7,5.4,89.5,4.9z M90.7,10.5c-0.5,1.2-1.7,2-3,2c-0.4,0-0.8-0.1-1.2-0.2c-0.8-0.3-1.4-0.9-1.7-1.7
				c-0.3-0.8-0.3-1.7,0-2.5c0.5-1.2,1.7-2,3-2c0.4,0,0.8,0.1,1.2,0.2c0.8,0.3,1.4,0.9,1.7,1.7C91,8.8,91,9.7,90.7,10.5z"/>
			<path fill="#231F20" d="M46.4,107l-3.6,8.6c-0.4-0.1-0.7-0.1-1.1-0.1c-1.9,0-3.6,1.1-4.4,2.9c-1,2.4,0.2,5.2,2.6,6.2
				c0.6,0.2,1.2,0.4,1.8,0.4h0c1.9,0,3.6-1.1,4.4-2.9c0.5-1.2,0.5-2.4,0-3.6c-0.4-0.9-1-1.7-1.9-2.2l3.6-8.6L46.4,107z M44.7,121.4
				c-0.5,1.2-1.7,2-3,2c-0.4,0-0.8-0.1-1.2-0.2c-1.6-0.7-2.4-2.6-1.7-4.2c0.5-1.2,1.7-2,3-2c0.4,0,0.8,0.1,1.2,0.2
				c0.8,0.3,1.4,0.9,1.7,1.7C45.1,119.8,45.1,120.7,44.7,121.4z"/>
			<path fill="#231F20" d="M122,83.4c-0.6-0.2-1.2-0.4-1.8-0.4c-1.7,0-3.2,0.9-4,2.2l-8.6-3.6l-0.6,1.4l8.6,3.6
				c-0.5,2.2,0.6,4.5,2.8,5.4c0.6,0.2,1.2,0.4,1.8,0.4c1.9,0,3.6-1.1,4.4-2.9c0.5-1.2,0.5-2.4,0-3.6C124.1,84.8,123.2,83.9,122,83.4
				z M123.2,89c-0.5,1.2-1.7,2-3,2c-0.4,0-0.8-0.1-1.2-0.2c-1.6-0.7-2.4-2.6-1.7-4.2c0.5-1.2,1.7-2,3-2c0.4,0,0.8,0.1,1.2,0.2
				c0.8,0.3,1.4,0.9,1.7,1.7C123.5,87.3,123.5,88.2,123.2,89z"/>
			<path fill="#231F20" d="M7.5,46.1c0.6,0.2,1.2,0.4,1.8,0.4c1.7,0,3.2-0.9,4-2.2l8.6,3.6l0.6-1.4l-8.6-3.6c0.2-1,0.2-2-0.2-2.9
				c-0.5-1.2-1.4-2.1-2.6-2.6c-0.6-0.2-1.2-0.4-1.8-0.4c-1.9,0-3.6,1.1-4.4,2.9c-0.5,1.2-0.5,2.4,0,3.6C5.4,44.7,6.3,45.6,7.5,46.1z
				 M6.3,40.5c0.5-1.2,1.7-2,3-2c0.4,0,0.8,0.1,1.2,0.2c0.8,0.3,1.4,0.9,1.7,1.7s0.3,1.7,0,2.5c-0.5,1.2-1.7,2-3,2
				c-0.4,0-0.8-0.1-1.2-0.2C6.4,44.1,5.6,42.2,6.3,40.5z"/>
		</g>
	</g>
</g>
</svg>
