<?xml version="1.0" encoding="UTF-8"?>
<svg xmlns="http://www.w3.org/2000/svg" xmlns:xlink="http://www.w3.org/1999/xlink" width="100px" height="100px" viewBox="0 0 100 100" version="1.1">
<g id="surface1">
<path style=" stroke:none;fill-rule:nonzero;fill:rgb(51.764706%,85.882353%,100%);fill-opacity:1;" d="M 71.351562 50.039062 C 71.351562 61.808594 61.808594 71.351562 50.039062 71.351562 C 38.269531 71.351562 28.726562 61.808594 28.726562 50.039062 C 28.726562 38.269531 38.269531 28.726562 50.039062 28.726562 C 61.808594 28.726562 71.351562 38.269531 71.351562 50.039062 Z M 71.351562 50.039062 "/>
<path style=" stroke:none;fill-rule:nonzero;fill:rgb(13.72549%,12.156863%,12.54902%);fill-opacity:1;" d="M 19.613281 5.019531 C 19.460938 5.019531 19.304688 4.941406 19.226562 4.863281 C 18.996094 4.632812 18.996094 4.246094 19.226562 4.015625 L 20.230469 3.089844 C 20.464844 2.855469 20.847656 2.855469 21.082031 3.089844 C 21.3125 3.320312 21.3125 3.707031 21.082031 3.9375 L 20.078125 4.941406 C 19.921875 5.019531 19.769531 5.019531 19.613281 5.019531 Z M 19.613281 5.019531 "/>
<path style=" stroke:none;fill-rule:nonzero;fill:rgb(13.72549%,12.156863%,12.54902%);fill-opacity:1;" d="M 16.523438 8.183594 C 16.371094 8.183594 16.214844 8.109375 16.140625 8.03125 C 15.90625 7.800781 15.90625 7.414062 16.140625 7.179688 L 17.066406 6.175781 C 17.296875 5.945312 17.683594 5.945312 17.914062 6.175781 C 18.148438 6.410156 18.148438 6.796875 17.914062 7.027344 L 16.910156 8.03125 C 16.832031 8.109375 16.679688 8.183594 16.523438 8.183594 Z M 16.523438 8.183594 "/>
<path style=" stroke:none;fill-rule:nonzero;fill:rgb(13.72549%,12.156863%,12.54902%);fill-opacity:1;" d="M 20.617188 8.183594 C 20.464844 8.183594 20.308594 8.109375 20.230469 8.03125 L 19.226562 7.027344 C 18.996094 6.796875 18.996094 6.410156 19.226562 6.175781 C 19.460938 5.945312 19.84375 5.945312 20.078125 6.175781 L 21.082031 7.179688 C 21.3125 7.414062 21.3125 7.800781 21.082031 8.03125 C 20.925781 8.109375 20.773438 8.183594 20.617188 8.183594 Z M 20.617188 8.183594 "/>
<path style=" stroke:none;fill-rule:nonzero;fill:rgb(13.72549%,12.156863%,12.54902%);fill-opacity:1;" d="M 17.527344 5.019531 C 17.375 5.019531 17.21875 4.941406 17.144531 4.863281 L 16.0625 3.859375 C 15.832031 3.628906 15.832031 3.242188 16.0625 3.011719 C 16.292969 2.78125 16.679688 2.78125 16.910156 3.011719 L 17.914062 4.015625 C 18.148438 4.246094 18.148438 4.632812 17.914062 4.863281 C 17.761719 5.019531 17.683594 5.019531 17.527344 5.019531 Z M 17.527344 5.019531 "/>
<path style=" stroke:none;fill-rule:nonzero;fill:rgb(13.72549%,12.156863%,12.54902%);fill-opacity:1;" d="M 77.835938 92.125 C 77.683594 92.125 77.527344 92.046875 77.453125 91.96875 C 77.21875 91.738281 77.21875 91.351562 77.453125 91.121094 L 78.457031 90.117188 C 78.6875 89.882812 79.074219 89.882812 79.304688 90.117188 C 79.535156 90.347656 79.535156 90.734375 79.304688 90.964844 L 78.300781 91.96875 C 78.070312 92.125 77.914062 92.125 77.835938 92.125 Z M 77.835938 92.125 "/>
<path style=" stroke:none;fill-rule:nonzero;fill:rgb(13.72549%,12.156863%,12.54902%);fill-opacity:1;" d="M 74.671875 95.289062 C 74.515625 95.289062 74.363281 95.210938 74.285156 95.136719 C 74.054688 94.902344 74.054688 94.515625 74.285156 94.285156 L 75.289062 93.28125 C 75.519531 93.050781 75.90625 93.050781 76.140625 93.28125 C 76.371094 93.511719 76.371094 93.898438 76.140625 94.132812 L 75.136719 95.136719 C 74.980469 95.210938 74.828125 95.289062 74.671875 95.289062 Z M 74.671875 95.289062 "/>
<path style=" stroke:none;fill-rule:nonzero;fill:rgb(13.72549%,12.156863%,12.54902%);fill-opacity:1;" d="M 78.765625 95.289062 C 78.609375 95.289062 78.457031 95.210938 78.378906 95.136719 L 77.375 94.132812 C 77.144531 93.898438 77.144531 93.511719 77.375 93.28125 C 77.605469 93.050781 77.992188 93.050781 78.222656 93.28125 L 79.226562 94.285156 C 79.460938 94.515625 79.460938 94.902344 79.226562 95.136719 C 79.074219 95.210938 78.917969 95.289062 78.765625 95.289062 Z M 78.765625 95.289062 "/>
<path style=" stroke:none;fill-rule:nonzero;fill:rgb(13.72549%,12.156863%,12.54902%);fill-opacity:1;" d="M 75.675781 92.125 C 75.519531 92.125 75.367188 92.046875 75.289062 91.96875 L 74.285156 90.964844 C 74.054688 90.734375 74.054688 90.347656 74.285156 90.117188 C 74.515625 89.882812 74.902344 89.882812 75.136719 90.117188 L 76.140625 91.121094 C 76.371094 91.351562 76.371094 91.738281 76.140625 91.96875 C 75.984375 92.125 75.832031 92.125 75.675781 92.125 Z M 75.675781 92.125 "/>
<path style=" stroke:none;fill-rule:nonzero;fill:rgb(13.72549%,12.156863%,12.54902%);fill-opacity:1;" d="M 8.417969 82.933594 C 8.261719 82.933594 8.109375 82.855469 8.03125 82.78125 C 7.800781 82.546875 7.800781 82.164062 8.03125 81.929688 L 9.035156 80.925781 C 9.265625 80.695312 9.652344 80.695312 9.882812 80.925781 C 10.117188 81.160156 10.117188 81.542969 9.882812 81.777344 L 8.878906 82.78125 C 8.726562 82.855469 8.570312 82.933594 8.417969 82.933594 Z M 8.417969 82.933594 "/>
<path style=" stroke:none;fill-rule:nonzero;fill:rgb(13.72549%,12.156863%,12.54902%);fill-opacity:1;" d="M 5.328125 86.023438 C 5.171875 86.023438 5.019531 85.945312 4.941406 85.867188 C 4.710938 85.636719 4.710938 85.25 4.941406 85.019531 L 5.945312 84.015625 C 6.175781 83.785156 6.5625 83.785156 6.796875 84.015625 C 7.027344 84.246094 7.027344 84.632812 6.796875 84.863281 L 5.792969 85.867188 C 5.636719 85.945312 5.484375 86.023438 5.328125 86.023438 Z M 5.328125 86.023438 "/>
<path style=" stroke:none;fill-rule:nonzero;fill:rgb(13.72549%,12.156863%,12.54902%);fill-opacity:1;" d="M 9.421875 86.023438 C 9.265625 86.023438 9.113281 85.945312 9.035156 85.867188 L 8.03125 84.863281 C 7.800781 84.632812 7.800781 84.246094 8.03125 84.015625 C 8.261719 83.785156 8.648438 83.785156 8.878906 84.015625 L 9.882812 85.019531 C 10.117188 85.25 10.117188 85.636719 9.882812 85.867188 C 9.730469 85.945312 9.574219 86.023438 9.421875 86.023438 Z M 9.421875 86.023438 "/>
<path style=" stroke:none;fill-rule:nonzero;fill:rgb(13.72549%,12.156863%,12.54902%);fill-opacity:1;" d="M 6.332031 82.933594 C 6.175781 82.933594 6.023438 82.855469 5.945312 82.78125 L 4.941406 81.777344 C 4.710938 81.542969 4.710938 81.160156 4.941406 80.925781 C 5.171875 80.695312 5.558594 80.695312 5.792969 80.925781 L 6.796875 81.929688 C 7.027344 82.164062 7.027344 82.546875 6.796875 82.78125 C 6.640625 82.855469 6.488281 82.933594 6.332031 82.933594 Z M 6.332031 82.933594 "/>
<path style=" stroke:none;fill-rule:nonzero;fill:rgb(13.72549%,12.156863%,12.54902%);fill-opacity:1;" d="M 52.199219 83.9375 L 47.722656 83.9375 C 47.492188 83.9375 47.257812 83.785156 47.179688 83.476562 L 45.867188 78.457031 C 44.789062 78.300781 43.785156 78.070312 42.78125 77.835938 L 39.691406 81.929688 C 39.535156 82.164062 39.226562 82.238281 38.996094 82.085938 L 34.902344 80.386719 C 34.671875 80.308594 34.515625 80 34.515625 79.769531 L 35.210938 74.671875 C 34.285156 74.132812 33.4375 73.511719 32.585938 72.894531 L 28.261719 75.675781 C 28.03125 75.832031 27.722656 75.753906 27.566406 75.597656 L 24.402344 72.433594 C 24.246094 72.277344 24.167969 71.96875 24.324219 71.738281 L 26.949219 67.335938 C 26.332031 66.488281 25.714844 65.636719 25.171875 64.710938 L 20.078125 65.40625 C 19.84375 65.484375 19.535156 65.328125 19.460938 65.019531 L 17.761719 60.925781 C 17.683594 60.695312 17.761719 60.386719 17.914062 60.230469 L 22.007812 57.144531 C 21.777344 56.140625 21.542969 55.058594 21.390625 54.054688 L 16.371094 52.742188 C 16.140625 52.664062 15.90625 52.433594 15.90625 52.199219 L 15.90625 47.722656 C 15.90625 47.492188 16.0625 47.257812 16.371094 47.179688 L 21.390625 45.867188 C 21.542969 44.789062 21.777344 43.785156 22.007812 42.78125 L 17.914062 39.691406 C 17.683594 39.535156 17.605469 39.226562 17.761719 38.996094 L 19.460938 34.902344 C 19.535156 34.671875 19.84375 34.515625 20.078125 34.515625 L 25.171875 35.210938 C 25.714844 34.285156 26.332031 33.4375 26.949219 32.585938 L 24.324219 28.183594 C 24.167969 27.953125 24.246094 27.644531 24.402344 27.492188 L 27.566406 24.324219 C 27.722656 24.167969 28.03125 24.09375 28.261719 24.246094 L 32.664062 26.871094 C 33.511719 26.253906 34.363281 25.636719 35.289062 25.097656 L 34.59375 20.078125 C 34.59375 19.84375 34.671875 19.535156 34.980469 19.460938 L 39.074219 17.761719 C 39.304688 17.683594 39.613281 17.761719 39.769531 17.914062 L 42.855469 22.007812 C 43.859375 21.777344 44.941406 21.542969 45.945312 21.390625 L 47.257812 16.371094 C 47.335938 16.140625 47.566406 15.90625 47.800781 15.90625 L 52.277344 15.90625 C 52.507812 15.90625 52.742188 16.0625 52.820312 16.371094 L 54.132812 21.390625 C 55.210938 21.542969 56.214844 21.777344 57.21875 22.007812 L 60.308594 17.914062 C 60.464844 17.683594 60.773438 17.605469 61.003906 17.761719 L 65.097656 19.460938 C 65.328125 19.535156 65.484375 19.84375 65.484375 20.078125 L 64.789062 25.171875 C 65.714844 25.714844 66.5625 26.332031 67.414062 26.949219 L 71.816406 24.324219 C 72.046875 24.167969 72.355469 24.246094 72.507812 24.402344 L 75.675781 27.566406 C 75.832031 27.722656 75.90625 28.03125 75.753906 28.261719 L 73.128906 32.664062 C 73.746094 33.511719 74.363281 34.363281 74.902344 35.289062 L 80 34.59375 C 80.230469 34.59375 80.539062 34.671875 80.617188 34.980469 L 82.316406 39.074219 C 82.394531 39.304688 82.316406 39.613281 82.164062 39.769531 L 78.070312 42.855469 C 78.300781 43.859375 78.53125 44.863281 78.6875 45.945312 L 83.707031 47.257812 C 83.9375 47.335938 84.167969 47.566406 84.167969 47.800781 L 84.167969 52.277344 C 84.167969 52.507812 84.015625 52.742188 83.707031 52.820312 L 78.6875 54.132812 C 78.53125 55.210938 78.300781 56.214844 78.070312 57.21875 L 82.164062 60.308594 C 82.394531 60.464844 82.472656 60.773438 82.316406 61.003906 L 80.617188 65.097656 C 80.539062 65.328125 80.230469 65.484375 80 65.484375 L 74.902344 64.789062 C 74.363281 65.714844 73.746094 66.5625 73.128906 67.414062 L 75.753906 71.816406 C 75.90625 72.046875 75.832031 72.355469 75.675781 72.507812 L 72.507812 75.675781 C 72.355469 75.832031 72.046875 75.90625 71.816406 75.753906 L 67.414062 73.128906 C 66.5625 73.746094 65.714844 74.363281 64.789062 74.902344 L 65.484375 80 C 65.484375 80.230469 65.40625 80.539062 65.097656 80.617188 L 61.003906 82.316406 C 60.773438 82.394531 60.464844 82.316406 60.308594 82.164062 L 57.21875 78.070312 C 56.214844 78.300781 55.136719 78.53125 54.132812 78.6875 L 52.820312 83.707031 C 52.742188 83.785156 52.507812 83.9375 52.199219 83.9375 Z M 48.261719 82.78125 L 51.738281 82.78125 L 53.050781 77.835938 C 53.128906 77.605469 53.28125 77.453125 53.511719 77.375 C 54.75 77.21875 55.984375 76.988281 57.21875 76.679688 C 57.453125 76.601562 57.683594 76.679688 57.835938 76.910156 L 60.925781 81.003906 L 64.167969 79.613281 L 63.476562 74.59375 C 63.476562 74.363281 63.550781 74.132812 63.785156 73.976562 C 64.863281 73.359375 65.945312 72.664062 66.949219 71.890625 C 67.105469 71.738281 67.414062 71.738281 67.566406 71.816406 L 71.96875 74.363281 L 74.441406 71.890625 L 71.890625 67.492188 C 71.738281 67.257812 71.816406 67.027344 71.96875 66.871094 C 72.742188 65.867188 73.4375 64.789062 74.054688 63.707031 C 74.207031 63.476562 74.441406 63.398438 74.671875 63.398438 L 79.691406 64.09375 L 81.082031 60.847656 L 76.988281 57.761719 C 76.832031 57.605469 76.679688 57.375 76.757812 57.144531 C 77.066406 55.984375 77.296875 54.671875 77.453125 53.4375 C 77.453125 53.203125 77.683594 52.972656 77.914062 52.972656 L 82.855469 51.660156 L 82.855469 48.109375 L 77.914062 46.796875 C 77.683594 46.71875 77.527344 46.5625 77.453125 46.332031 C 77.296875 45.097656 77.066406 43.785156 76.757812 42.625 C 76.679688 42.394531 76.757812 42.164062 76.988281 42.007812 L 81.082031 38.917969 L 79.691406 35.675781 L 74.671875 36.371094 C 74.441406 36.371094 74.207031 36.292969 74.054688 36.0625 C 73.4375 34.980469 72.742188 33.898438 71.96875 32.894531 C 71.816406 32.742188 71.816406 32.433594 71.890625 32.277344 L 74.441406 27.875 L 71.96875 25.40625 L 67.566406 27.953125 C 67.335938 28.109375 67.105469 28.03125 66.949219 27.875 C 65.945312 27.105469 64.863281 26.410156 63.785156 25.792969 C 63.550781 25.636719 63.476562 25.40625 63.476562 25.171875 L 64.167969 20.15625 L 60.925781 18.765625 L 57.835938 22.855469 C 57.683594 23.011719 57.453125 23.167969 57.21875 23.089844 C 55.984375 22.78125 54.75 22.546875 53.511719 22.394531 C 53.28125 22.394531 53.050781 22.164062 53.050781 21.929688 L 51.738281 17.21875 L 48.183594 17.21875 L 46.871094 22.164062 C 46.796875 22.394531 46.640625 22.546875 46.410156 22.625 C 45.171875 22.78125 43.9375 23.011719 42.703125 23.320312 C 42.472656 23.398438 42.238281 23.320312 42.085938 23.089844 L 38.996094 18.996094 L 35.753906 20.386719 L 36.449219 25.40625 C 36.449219 25.636719 36.371094 25.867188 36.140625 26.023438 C 35.058594 26.640625 33.976562 27.335938 32.972656 28.109375 C 32.820312 28.261719 32.507812 28.261719 32.355469 28.183594 L 27.953125 25.636719 L 25.484375 28.109375 L 28.03125 32.507812 C 28.183594 32.742188 28.109375 32.972656 27.953125 33.128906 C 27.179688 34.132812 26.488281 35.210938 25.867188 36.292969 C 25.714844 36.523438 25.558594 36.601562 25.25 36.601562 L 20.230469 35.90625 L 18.839844 39.152344 L 22.933594 42.238281 C 23.089844 42.394531 23.242188 42.625 23.167969 42.855469 C 22.855469 44.015625 22.625 45.328125 22.472656 46.5625 C 22.472656 46.796875 22.238281 47.027344 22.007812 47.027344 L 17.066406 48.339844 L 17.066406 51.738281 L 22.007812 53.050781 C 22.238281 53.128906 22.394531 53.28125 22.472656 53.511719 C 22.625 54.75 22.855469 56.0625 23.167969 57.21875 C 23.242188 57.453125 23.167969 57.683594 22.933594 57.835938 L 18.839844 60.925781 L 20.230469 64.167969 L 25.25 63.476562 C 25.484375 63.476562 25.714844 63.550781 25.867188 63.785156 C 26.488281 64.863281 27.179688 65.945312 27.953125 66.949219 C 28.109375 67.105469 28.109375 67.414062 28.03125 67.566406 L 25.484375 71.96875 L 27.953125 74.441406 L 32.355469 71.890625 C 32.585938 71.738281 32.820312 71.816406 32.972656 71.96875 C 33.976562 72.742188 35.058594 73.4375 36.140625 74.054688 C 36.371094 74.207031 36.449219 74.441406 36.449219 74.671875 L 35.753906 79.691406 L 38.996094 81.082031 L 42.085938 76.988281 C 42.238281 76.832031 42.472656 76.679688 42.703125 76.757812 C 43.9375 77.066406 45.171875 77.296875 46.410156 77.453125 C 46.640625 77.453125 46.871094 77.683594 46.871094 77.914062 Z M 48.261719 82.78125 "/>
<path style=" stroke:none;fill-rule:nonzero;fill:rgb(13.72549%,12.156863%,12.54902%);fill-opacity:1;" d="M 49.882812 66.71875 C 49.652344 66.71875 49.34375 66.71875 49.113281 66.71875 L 49.1875 65.558594 C 49.421875 65.558594 49.652344 65.558594 49.960938 65.558594 Z M 51.429688 66.640625 L 51.351562 65.484375 C 51.582031 65.484375 51.816406 65.40625 52.125 65.40625 L 52.277344 66.5625 C 51.96875 66.5625 51.738281 66.640625 51.429688 66.640625 Z M 47.492188 66.488281 C 47.257812 66.410156 46.949219 66.410156 46.71875 66.332031 L 46.949219 65.171875 C 47.179688 65.25 47.414062 65.25 47.644531 65.328125 Z M 53.824219 66.253906 L 53.589844 65.097656 C 53.824219 65.019531 54.054688 64.941406 54.285156 64.941406 L 54.59375 66.023438 C 54.363281 66.175781 54.054688 66.175781 53.824219 66.253906 Z M 45.171875 66.023438 C 44.941406 65.945312 44.632812 65.867188 44.402344 65.792969 L 44.789062 64.710938 C 45.019531 64.789062 45.25 64.863281 45.484375 64.941406 Z M 56.140625 65.558594 L 55.675781 64.480469 C 55.90625 64.402344 56.140625 64.324219 56.371094 64.167969 L 56.832031 65.25 C 56.601562 65.328125 56.371094 65.484375 56.140625 65.558594 Z M 42.933594 65.097656 C 42.703125 65.019531 42.472656 64.863281 42.238281 64.710938 L 42.78125 63.707031 C 43.011719 63.859375 43.242188 63.9375 43.476562 64.015625 Z M 58.300781 64.554688 L 57.761719 63.550781 C 57.992188 63.398438 58.222656 63.320312 58.378906 63.167969 L 58.996094 64.167969 C 58.765625 64.246094 58.53125 64.402344 58.300781 64.554688 Z M 40.773438 63.9375 C 40.539062 63.785156 40.308594 63.628906 40.078125 63.476562 L 40.773438 62.546875 C 41.003906 62.703125 41.160156 62.855469 41.390625 63.011719 Z M 60.230469 63.167969 L 59.535156 62.238281 C 59.769531 62.085938 59.921875 61.929688 60.078125 61.777344 L 60.847656 62.625 C 60.695312 62.855469 60.464844 63.011719 60.230469 63.167969 Z M 38.917969 62.472656 C 38.6875 62.316406 38.53125 62.085938 38.300781 61.929688 L 39.074219 61.082031 C 39.226562 61.234375 39.460938 61.390625 39.613281 61.621094 Z M 62.085938 61.542969 L 61.234375 60.773438 C 61.390625 60.617188 61.542969 60.386719 61.777344 60.230469 L 62.625 61.003906 C 62.394531 61.160156 62.238281 61.390625 62.085938 61.542969 Z M 37.21875 60.773438 C 37.066406 60.539062 36.910156 60.386719 36.757812 60.15625 L 37.683594 59.460938 C 37.835938 59.691406 37.992188 59.84375 38.148438 60.078125 Z M 63.550781 59.769531 L 62.625 59.074219 C 62.78125 58.839844 62.933594 58.6875 63.011719 58.457031 L 64.015625 59.074219 C 63.859375 59.304688 63.707031 59.535156 63.550781 59.769531 Z M 35.832031 58.839844 C 35.675781 58.609375 35.519531 58.378906 35.445312 58.148438 L 36.449219 57.605469 C 36.601562 57.835938 36.679688 58.070312 36.832031 58.222656 Z M 64.863281 57.683594 L 63.785156 57.144531 C 63.859375 56.910156 64.015625 56.679688 64.09375 56.449219 L 65.171875 56.910156 C 65.097656 57.21875 64.941406 57.453125 64.863281 57.683594 Z M 34.671875 56.757812 C 34.59375 56.523438 34.441406 56.292969 34.363281 55.984375 L 35.445312 55.597656 C 35.519531 55.832031 35.597656 56.0625 35.753906 56.292969 Z M 65.792969 55.519531 L 64.710938 55.136719 C 64.789062 54.902344 64.863281 54.671875 64.941406 54.441406 L 66.023438 54.75 C 65.945312 54.980469 65.867188 55.210938 65.792969 55.519531 Z M 33.898438 54.441406 C 33.824219 54.207031 33.746094 53.898438 33.667969 53.667969 L 34.828125 53.4375 C 34.902344 53.667969 34.902344 53.898438 34.980469 54.132812 Z M 66.410156 53.203125 L 65.25 52.972656 C 65.328125 52.742188 65.328125 52.507812 65.40625 52.199219 L 66.5625 52.355469 C 66.488281 52.664062 66.488281 52.894531 66.410156 53.203125 Z M 33.4375 52.125 C 33.4375 51.890625 33.359375 51.582031 33.359375 51.351562 L 34.515625 51.273438 C 34.515625 51.503906 34.59375 51.738281 34.59375 52.046875 Z M 66.71875 50.8125 L 65.558594 50.734375 C 65.558594 50.5 65.558594 50.269531 65.558594 49.960938 L 66.71875 49.960938 C 66.71875 50.269531 66.71875 50.5 66.71875 50.8125 Z M 34.441406 49.730469 L 33.28125 49.730469 C 33.28125 49.5 33.28125 49.1875 33.28125 48.957031 L 34.441406 49.035156 C 34.441406 49.265625 34.441406 49.5 34.441406 49.730469 Z M 65.558594 49.035156 C 65.558594 48.804688 65.558594 48.570312 65.484375 48.261719 L 66.640625 48.109375 C 66.640625 48.339844 66.71875 48.648438 66.71875 48.878906 Z M 34.671875 47.492188 L 33.511719 47.335938 C 33.589844 47.105469 33.589844 46.796875 33.667969 46.5625 L 34.828125 46.796875 C 34.75 47.027344 34.671875 47.257812 34.671875 47.492188 Z M 65.25 46.796875 C 65.171875 46.5625 65.171875 46.332031 65.097656 46.101562 L 66.253906 45.792969 C 66.332031 46.023438 66.410156 46.332031 66.410156 46.5625 Z M 35.136719 45.328125 L 34.054688 45.019531 C 34.132812 44.789062 34.207031 44.480469 34.285156 44.246094 L 35.367188 44.632812 C 35.289062 44.863281 35.210938 45.097656 35.136719 45.328125 Z M 64.632812 44.632812 C 64.554688 44.402344 64.480469 44.167969 64.324219 43.9375 L 65.40625 43.476562 C 65.484375 43.707031 65.636719 43.9375 65.714844 44.246094 Z M 35.984375 43.242188 L 34.902344 42.78125 C 35.058594 42.546875 35.136719 42.316406 35.289062 42.085938 L 36.292969 42.625 C 36.214844 42.855469 36.0625 43.089844 35.984375 43.242188 Z M 63.707031 42.625 C 63.550781 42.394531 63.476562 42.164062 63.320312 42.007812 L 64.324219 41.390625 C 64.480469 41.621094 64.554688 41.851562 64.710938 42.085938 Z M 37.066406 41.3125 L 36.140625 40.695312 C 36.292969 40.464844 36.449219 40.230469 36.601562 40.078125 L 37.527344 40.773438 C 37.375 40.925781 37.21875 41.160156 37.066406 41.3125 Z M 62.472656 40.773438 C 62.316406 40.539062 62.164062 40.386719 62.007812 40.15625 L 62.933594 39.460938 C 63.089844 39.691406 63.242188 39.84375 63.398438 40.078125 Z M 38.457031 39.613281 L 37.605469 38.839844 C 37.761719 38.609375 37.992188 38.457031 38.148438 38.222656 L 38.996094 39.074219 C 38.765625 39.226562 38.609375 39.382812 38.457031 39.613281 Z M 61.082031 39.074219 C 60.925781 38.917969 60.695312 38.6875 60.539062 38.53125 L 61.3125 37.683594 C 61.542969 37.835938 61.699219 38.070312 61.851562 38.222656 Z M 40.078125 38.070312 L 39.304688 37.144531 C 39.535156 36.988281 39.691406 36.832031 39.921875 36.679688 L 40.617188 37.605469 C 40.464844 37.683594 40.230469 37.835938 40.078125 38.070312 Z M 59.382812 37.605469 C 59.152344 37.453125 58.996094 37.296875 58.765625 37.144531 L 59.382812 36.214844 C 59.613281 36.371094 59.84375 36.523438 60 36.679688 Z M 41.851562 36.757812 L 41.234375 35.753906 C 41.46875 35.597656 41.699219 35.445312 41.929688 35.367188 L 42.472656 36.371094 C 42.316406 36.449219 42.085938 36.601562 41.851562 36.757812 Z M 57.527344 36.371094 C 57.296875 36.214844 57.066406 36.140625 56.832031 36.0625 L 57.375 35.058594 C 57.605469 35.210938 57.835938 35.289062 58.070312 35.445312 Z M 43.859375 35.675781 L 43.398438 34.59375 C 43.628906 34.515625 43.859375 34.363281 44.167969 34.285156 L 44.554688 35.367188 C 44.324219 35.519531 44.09375 35.597656 43.859375 35.675781 Z M 55.445312 35.445312 C 55.210938 35.367188 54.980469 35.289062 54.75 35.210938 L 55.136719 34.132812 C 55.367188 34.207031 55.675781 34.285156 55.90625 34.363281 Z M 45.945312 34.980469 L 45.636719 33.898438 C 45.867188 33.824219 46.175781 33.746094 46.410156 33.746094 L 46.640625 34.902344 C 46.410156 34.828125 46.175781 34.902344 45.945312 34.980469 Z M 53.359375 34.828125 C 53.128906 34.75 52.894531 34.75 52.664062 34.671875 L 52.894531 33.511719 C 53.128906 33.589844 53.4375 33.589844 53.667969 33.667969 Z M 48.183594 34.515625 L 48.03125 33.359375 C 48.261719 33.359375 48.570312 33.28125 48.804688 33.28125 L 48.878906 34.441406 C 48.648438 34.515625 48.417969 34.515625 48.183594 34.515625 Z M 51.121094 34.515625 C 50.886719 34.515625 50.65625 34.515625 50.347656 34.515625 L 50.347656 33.359375 C 50.578125 33.359375 50.886719 33.359375 51.121094 33.359375 Z M 51.121094 34.515625 "/>
<path style=" stroke:none;fill-rule:nonzero;fill:rgb(100%,100%,100%);fill-opacity:1;" d="M 61.46875 50.039062 C 61.46875 56.351562 56.351562 61.46875 50.039062 61.46875 C 43.726562 61.46875 38.609375 56.351562 38.609375 50.039062 C 38.609375 43.726562 43.726562 38.609375 50.039062 38.609375 C 56.351562 38.609375 61.46875 43.726562 61.46875 50.039062 Z M 61.46875 50.039062 "/>
<path style=" stroke:none;fill-rule:nonzero;fill:rgb(13.72549%,12.156863%,12.54902%);fill-opacity:1;" d="M 50.039062 62.007812 C 43.398438 62.007812 38.070312 56.601562 38.070312 50.039062 C 38.070312 43.476562 43.476562 38.070312 50.039062 38.070312 C 56.679688 38.070312 62.007812 43.476562 62.007812 50.039062 C 62.007812 56.601562 56.601562 62.007812 50.039062 62.007812 Z M 50.039062 39.152344 C 44.09375 39.152344 39.226562 44.015625 39.226562 49.960938 C 39.226562 55.90625 44.09375 60.773438 50.039062 60.773438 C 55.984375 60.773438 60.847656 55.90625 60.847656 49.960938 C 60.847656 44.015625 55.984375 39.152344 50.039062 39.152344 Z M 50.039062 39.152344 "/>
<path style=" stroke:none;fill-rule:nonzero;fill:rgb(13.72549%,12.156863%,12.54902%);fill-opacity:1;" d="M 50.039062 56.371094 C 46.5625 56.371094 43.707031 53.511719 43.707031 50.039062 C 43.707031 46.5625 46.5625 43.707031 50.039062 43.707031 C 53.511719 43.707031 56.371094 46.5625 56.371094 50.039062 C 56.371094 53.511719 53.511719 56.371094 50.039062 56.371094 Z M 50.039062 44.789062 C 47.105469 44.789062 44.789062 47.105469 44.789062 50.039062 C 44.789062 52.894531 47.105469 55.210938 49.960938 55.210938 C 52.820312 55.210938 55.136719 52.894531 55.136719 50.039062 C 55.210938 47.105469 52.894531 44.789062 50.039062 44.789062 Z M 50.039062 44.789062 "/>
<path style=" stroke:none;fill-rule:nonzero;fill:rgb(13.72549%,12.156863%,12.54902%);fill-opacity:1;" d="M 50.039062 95.058594 L 49.882812 95.058594 L 49.882812 93.898438 L 50.039062 93.898438 Z M 48.261719 94.980469 C 48.03125 94.980469 47.722656 94.980469 47.492188 94.980469 L 47.566406 93.824219 C 47.800781 93.824219 48.109375 93.824219 48.339844 93.824219 Z M 45.945312 94.828125 C 45.714844 94.828125 45.40625 94.75 45.171875 94.75 L 45.328125 93.589844 C 45.558594 93.589844 45.867188 93.667969 46.101562 93.667969 Z M 43.628906 94.59375 C 43.398438 94.59375 43.089844 94.515625 42.855469 94.441406 L 43.011719 93.28125 C 43.242188 93.359375 43.476562 93.359375 43.785156 93.359375 Z M 41.3125 94.207031 C 41.082031 94.132812 40.773438 94.132812 40.539062 94.054688 L 40.773438 92.894531 C 41.003906 92.972656 41.234375 92.972656 41.542969 93.050781 Z M 38.996094 93.667969 C 38.765625 93.589844 38.457031 93.511719 38.222656 93.4375 L 38.53125 92.355469 C 38.765625 92.433594 38.996094 92.507812 39.304688 92.507812 Z M 36.757812 93.050781 C 36.523438 92.972656 36.292969 92.894531 35.984375 92.820312 L 36.371094 91.738281 C 36.601562 91.816406 36.832031 91.890625 37.066406 91.96875 Z M 34.515625 92.277344 C 34.285156 92.199219 34.054688 92.125 33.746094 91.96875 L 34.132812 90.886719 C 34.363281 90.964844 34.59375 91.042969 34.828125 91.121094 Z M 32.355469 91.429688 C 32.125 91.351562 31.890625 91.195312 31.660156 91.121094 L 32.125 90.039062 C 32.355469 90.117188 32.585938 90.269531 32.820312 90.347656 Z M 30.191406 90.5 C 29.960938 90.425781 29.730469 90.269531 29.5 90.117188 L 30.039062 89.113281 C 30.269531 89.265625 30.5 89.34375 30.734375 89.421875 Z M 28.109375 89.421875 C 27.875 89.265625 27.644531 89.1875 27.414062 89.035156 L 28.03125 88.03125 C 28.261719 88.183594 28.496094 88.261719 28.726562 88.417969 Z M 26.101562 88.183594 C 25.867188 88.03125 25.636719 87.875 25.40625 87.800781 L 26.023438 86.796875 C 26.253906 86.949219 26.488281 87.105469 26.640625 87.179688 Z M 24.167969 86.871094 C 23.9375 86.71875 23.707031 86.5625 23.550781 86.410156 L 24.246094 85.484375 C 24.480469 85.636719 24.632812 85.792969 24.863281 85.945312 Z M 22.238281 85.484375 C 22.007812 85.328125 21.851562 85.171875 21.621094 85.019531 L 22.316406 84.09375 C 22.546875 84.246094 22.703125 84.402344 22.933594 84.554688 Z M 20.464844 84.015625 C 20.230469 83.859375 20.078125 83.707031 19.84375 83.476562 L 20.617188 82.625 C 20.773438 82.78125 21.003906 82.933594 21.160156 83.167969 Z M 18.6875 82.394531 C 18.53125 82.238281 18.300781 82.007812 18.148438 81.851562 L 18.996094 81.003906 C 19.152344 81.160156 19.382812 81.390625 19.535156 81.542969 Z M 18.6875 82.394531 "/>
<path style=" stroke:none;fill-rule:nonzero;fill:rgb(13.72549%,12.156863%,12.54902%);fill-opacity:1;" d="M 6.101562 50.039062 L 4.941406 50.039062 L 4.941406 49.882812 L 6.101562 49.882812 Z M 6.175781 48.339844 L 5.019531 48.261719 C 5.019531 48.03125 5.019531 47.722656 5.019531 47.492188 L 6.175781 47.566406 C 6.175781 47.800781 6.175781 48.109375 6.175781 48.339844 Z M 6.253906 46.023438 L 5.097656 45.945312 C 5.097656 45.714844 5.171875 45.40625 5.171875 45.171875 L 6.332031 45.328125 C 6.332031 45.558594 6.332031 45.792969 6.253906 46.023438 Z M 6.5625 43.785156 L 5.40625 43.628906 C 5.40625 43.398438 5.484375 43.089844 5.558594 42.855469 L 6.71875 43.011719 C 6.640625 43.242188 6.5625 43.550781 6.5625 43.785156 Z M 6.949219 41.542969 L 5.792969 41.3125 C 5.867188 41.082031 5.867188 40.773438 5.945312 40.539062 L 7.105469 40.773438 C 7.027344 41.003906 6.949219 41.234375 6.949219 41.542969 Z M 7.414062 39.304688 L 6.253906 38.996094 C 6.332031 38.765625 6.410156 38.457031 6.488281 38.222656 L 7.566406 38.53125 C 7.566406 38.765625 7.492188 39.074219 7.414062 39.304688 Z M 8.03125 37.066406 L 6.949219 36.757812 C 7.027344 36.523438 7.105469 36.292969 7.179688 35.984375 L 8.261719 36.371094 C 8.183594 36.601562 8.109375 36.832031 8.03125 37.066406 Z M 8.804688 34.902344 L 7.722656 34.515625 C 7.800781 34.285156 7.875 34.054688 8.03125 33.746094 L 9.113281 34.132812 C 8.957031 34.441406 8.878906 34.671875 8.804688 34.902344 Z M 9.652344 32.820312 L 8.570312 32.355469 C 8.648438 32.125 8.804688 31.890625 8.878906 31.660156 L 9.960938 32.125 C 9.808594 32.355469 9.730469 32.585938 9.652344 32.820312 Z M 10.578125 30.734375 L 9.574219 30.191406 C 9.652344 29.960938 9.808594 29.730469 9.960938 29.5 L 10.964844 30.039062 C 10.8125 30.269531 10.65625 30.5 10.578125 30.734375 Z M 11.660156 28.648438 L 10.65625 28.109375 C 10.8125 27.875 10.886719 27.644531 11.042969 27.414062 L 12.046875 28.03125 C 11.890625 28.261719 11.738281 28.417969 11.660156 28.648438 Z M 12.820312 26.71875 L 11.816406 26.101562 C 11.96875 25.867188 12.125 25.636719 12.199219 25.40625 L 13.203125 26.023438 C 13.050781 26.253906 12.894531 26.488281 12.820312 26.71875 Z M 14.054688 24.789062 L 13.128906 24.167969 C 13.28125 23.9375 13.4375 23.707031 13.589844 23.550781 L 14.515625 24.246094 C 14.363281 24.402344 14.207031 24.554688 14.054688 24.789062 Z M 15.445312 22.933594 L 14.515625 22.238281 C 14.671875 22.007812 14.828125 21.851562 14.980469 21.621094 L 15.90625 22.316406 C 15.753906 22.546875 15.597656 22.78125 15.445312 22.933594 Z M 16.910156 21.234375 L 16.0625 20.464844 C 16.214844 20.230469 16.371094 20.078125 16.601562 19.84375 L 17.453125 20.617188 C 17.21875 20.847656 17.066406 21.003906 16.910156 21.234375 Z M 18.457031 19.535156 L 17.605469 18.765625 C 17.761719 18.609375 17.992188 18.378906 18.148438 18.222656 L 18.996094 19.074219 C 18.765625 19.152344 18.609375 19.304688 18.457031 19.535156 Z M 18.457031 19.535156 "/>
<path style=" stroke:none;fill-rule:nonzero;fill:rgb(13.72549%,12.156863%,12.54902%);fill-opacity:1;" d="M 81.851562 81.851562 L 81.003906 81.003906 C 81.160156 80.847656 81.390625 80.617188 81.542969 80.464844 L 82.394531 81.234375 C 82.238281 81.46875 82.007812 81.699219 81.851562 81.851562 Z M 83.476562 80.15625 L 82.625 79.382812 C 82.78125 79.226562 82.933594 78.996094 83.167969 78.839844 L 84.015625 79.613281 C 83.785156 79.769531 83.628906 79.921875 83.476562 80.15625 Z M 85.019531 78.378906 L 84.09375 77.683594 C 84.246094 77.453125 84.402344 77.296875 84.554688 77.066406 L 85.484375 77.761719 C 85.328125 77.992188 85.171875 78.148438 85.019531 78.378906 Z M 86.410156 76.523438 L 85.484375 75.832031 C 85.636719 75.597656 85.792969 75.445312 85.945312 75.210938 L 86.871094 75.90625 C 86.71875 76.0625 86.5625 76.292969 86.410156 76.523438 Z M 87.800781 74.59375 L 86.796875 73.976562 C 86.949219 73.746094 87.105469 73.511719 87.179688 73.359375 L 88.183594 73.976562 C 88.03125 74.132812 87.875 74.363281 87.800781 74.59375 Z M 88.957031 72.585938 L 87.953125 71.96875 C 88.109375 71.738281 88.183594 71.503906 88.339844 71.273438 L 89.34375 71.816406 C 89.265625 72.125 89.113281 72.355469 88.957031 72.585938 Z M 90.117188 70.5 L 89.113281 69.960938 C 89.265625 69.730469 89.34375 69.5 89.421875 69.265625 L 90.425781 69.808594 C 90.347656 70.039062 90.269531 70.269531 90.117188 70.5 Z M 91.121094 68.417969 L 90.039062 67.953125 C 90.117188 67.722656 90.269531 67.492188 90.347656 67.257812 L 91.429688 67.722656 C 91.351562 67.875 91.273438 68.183594 91.121094 68.417969 Z M 92.046875 66.253906 L 90.964844 65.867188 C 91.042969 65.636719 91.121094 65.40625 91.195312 65.171875 L 92.277344 65.558594 C 92.199219 65.714844 92.125 65.945312 92.046875 66.253906 Z M 92.820312 64.015625 L 91.738281 63.628906 C 91.816406 63.398438 91.890625 63.167969 91.96875 62.933594 L 93.050781 63.242188 C 92.972656 63.476562 92.894531 63.785156 92.820312 64.015625 Z M 93.511719 61.777344 L 92.433594 61.46875 C 92.507812 61.234375 92.585938 61.003906 92.585938 60.695312 L 93.746094 61.003906 C 93.589844 61.234375 93.589844 61.46875 93.511719 61.777344 Z M 94.054688 59.460938 L 92.894531 59.226562 C 92.972656 58.996094 92.972656 58.765625 93.050781 58.457031 L 94.207031 58.6875 C 94.132812 58.996094 94.132812 59.226562 94.054688 59.460938 Z M 94.441406 57.144531 L 93.28125 56.988281 C 93.359375 56.757812 93.359375 56.523438 93.359375 56.214844 L 94.515625 56.371094 C 94.515625 56.679688 94.515625 56.910156 94.441406 57.144531 Z M 94.75 54.828125 L 93.589844 54.671875 C 93.589844 54.441406 93.667969 54.132812 93.667969 53.898438 L 94.828125 53.976562 C 94.828125 54.285156 94.828125 54.59375 94.75 54.828125 Z M 94.980469 52.507812 L 93.824219 52.433594 C 93.824219 52.199219 93.824219 51.890625 93.824219 51.660156 L 94.980469 51.738281 C 94.980469 51.96875 94.980469 52.277344 94.980469 52.507812 Z M 95.058594 50.191406 L 93.898438 50.191406 L 93.898438 50.039062 L 95.058594 50.039062 Z M 95.058594 50.191406 "/>
<path style=" stroke:none;fill-rule:nonzero;fill:rgb(13.72549%,12.156863%,12.54902%);fill-opacity:1;" d="M 81.003906 18.996094 C 80.847656 18.839844 80.617188 18.609375 80.464844 18.457031 L 81.234375 17.605469 C 81.390625 17.761719 81.621094 17.992188 81.777344 18.148438 Z M 79.382812 17.375 C 79.226562 17.21875 78.996094 17.066406 78.839844 16.832031 L 79.613281 15.984375 C 79.84375 16.140625 80 16.292969 80.230469 16.523438 Z M 77.605469 15.90625 C 77.375 15.753906 77.21875 15.597656 76.988281 15.445312 L 77.683594 14.515625 C 77.914062 14.671875 78.070312 14.828125 78.300781 14.980469 Z M 75.832031 14.515625 C 75.597656 14.363281 75.445312 14.207031 75.210938 14.054688 L 75.90625 13.128906 C 76.140625 13.28125 76.371094 13.4375 76.523438 13.589844 Z M 73.898438 13.203125 C 73.667969 13.050781 73.4375 12.894531 73.28125 12.820312 L 73.898438 11.816406 C 74.132812 11.96875 74.363281 12.125 74.59375 12.199219 Z M 71.96875 11.96875 C 71.738281 11.816406 71.503906 11.738281 71.273438 11.582031 L 71.816406 10.578125 C 72.046875 10.734375 72.277344 10.8125 72.507812 10.964844 Z M 69.960938 10.886719 C 69.730469 10.734375 69.5 10.65625 69.265625 10.578125 L 69.808594 9.574219 C 70.039062 9.652344 70.269531 9.808594 70.5 9.960938 Z M 67.875 9.960938 C 67.644531 9.882812 67.414062 9.730469 67.179688 9.652344 L 67.644531 8.570312 C 67.875 8.648438 68.109375 8.804688 68.339844 8.878906 Z M 65.792969 9.035156 C 65.558594 8.957031 65.328125 8.878906 65.097656 8.804688 L 65.484375 7.722656 C 65.714844 7.800781 65.945312 7.875 66.253906 8.03125 Z M 63.628906 8.261719 C 63.398438 8.183594 63.167969 8.109375 62.933594 8.03125 L 63.242188 6.949219 C 63.476562 7.027344 63.707031 7.105469 64.015625 7.179688 Z M 61.46875 7.644531 C 61.234375 7.566406 61.003906 7.492188 60.695312 7.492188 L 61.003906 6.332031 C 61.234375 6.410156 61.542969 6.488281 61.777344 6.5625 Z M 59.226562 7.105469 C 58.996094 7.027344 58.765625 7.027344 58.457031 6.949219 L 58.6875 5.792969 C 58.917969 5.867188 59.226562 5.867188 59.460938 5.945312 Z M 56.988281 6.640625 C 56.757812 6.5625 56.523438 6.5625 56.214844 6.5625 L 56.371094 5.40625 C 56.601562 5.40625 56.910156 5.484375 57.144531 5.558594 Z M 54.75 6.332031 C 54.515625 6.332031 54.207031 6.253906 53.976562 6.253906 L 54.054688 5.171875 C 54.285156 5.171875 54.59375 5.25 54.828125 5.25 Z M 52.433594 6.175781 C 52.199219 6.175781 51.890625 6.175781 51.660156 6.175781 L 51.738281 5.019531 C 51.96875 5.019531 52.277344 5.019531 52.507812 5.019531 Z M 50.191406 6.101562 L 50.039062 6.101562 L 50.039062 4.941406 L 50.191406 4.941406 Z M 50.191406 6.101562 "/>
<path style=" stroke:none;fill-rule:nonzero;fill:rgb(100%,100%,100%);fill-opacity:1;" d="M 98.917969 5.558594 C 95.984375 4.480469 92.277344 2.625 90.039062 0.617188 L 91.816406 5.558594 L 90.039062 10.5 C 92.277344 8.496094 95.984375 6.640625 98.917969 5.558594 Z M 98.917969 5.558594 "/>
<path style=" stroke:none;fill-rule:nonzero;fill:rgb(100%,100%,100%);fill-opacity:1;" d="M 1.082031 94.441406 C 4.015625 95.519531 7.722656 97.375 9.960938 99.382812 L 8.183594 94.441406 L 9.960938 89.5 C 7.722656 91.503906 4.015625 93.359375 1.082031 94.441406 Z M 1.082031 94.441406 "/>
<path style=" stroke:none;fill-rule:nonzero;fill:rgb(100%,100%,100%);fill-opacity:1;" d="M 94.441406 98.917969 C 95.519531 95.984375 97.375 92.277344 99.382812 90.039062 L 94.441406 91.816406 L 89.5 90.039062 C 91.503906 92.277344 93.359375 95.984375 94.441406 98.917969 Z M 94.441406 98.917969 "/>
<path style=" stroke:none;fill-rule:nonzero;fill:rgb(100%,100%,100%);fill-opacity:1;" d="M 5.558594 1.082031 C 4.402344 4.015625 2.546875 7.722656 0.617188 9.960938 L 5.558594 8.183594 L 10.5 9.960938 C 8.496094 7.722656 6.640625 4.015625 5.558594 1.082031 Z M 5.558594 1.082031 "/>
<path style=" stroke:none;fill-rule:nonzero;fill:rgb(13.72549%,12.156863%,12.54902%);fill-opacity:1;" d="M 99.921875 89.652344 C 99.769531 89.421875 99.460938 89.34375 99.226562 89.421875 L 95.058594 90.964844 L 95.058594 50.039062 C 95.058594 37.992188 90.347656 26.71875 81.851562 18.222656 L 81.003906 19.074219 C 89.265625 27.335938 93.824219 38.378906 93.824219 50.117188 L 93.824219 91.121094 L 89.652344 89.574219 C 89.421875 89.5 89.113281 89.574219 88.957031 89.808594 C 88.804688 90.039062 88.804688 90.347656 89.035156 90.5 C 91.121094 92.894531 92.972656 96.679688 93.898438 99.226562 C 93.976562 99.460938 94.207031 99.613281 94.441406 99.613281 C 94.671875 99.613281 94.902344 99.460938 94.980469 99.226562 C 95.90625 96.679688 97.761719 92.894531 99.84375 90.5 C 100 90.191406 100.078125 89.882812 99.921875 89.652344 Z M 94.441406 97.375 C 93.589844 95.445312 92.507812 93.128906 91.195312 91.273438 L 94.285156 92.355469 C 94.441406 92.433594 94.515625 92.433594 94.671875 92.355469 L 97.761719 91.273438 C 96.449219 93.128906 95.289062 95.367188 94.441406 97.375 Z M 94.441406 97.375 "/>
<path style=" stroke:none;fill-rule:nonzero;fill:rgb(13.72549%,12.156863%,12.54902%);fill-opacity:1;" d="M 50.039062 6.101562 L 91.042969 6.101562 L 89.5 10.269531 C 89.421875 10.5 89.5 10.8125 89.730469 10.964844 C 89.808594 11.042969 89.960938 11.042969 90.039062 11.042969 C 90.191406 11.042969 90.347656 10.964844 90.425781 10.886719 C 92.820312 8.804688 96.601562 6.949219 99.152344 6.023438 C 99.382812 5.945312 99.535156 5.714844 99.535156 5.484375 C 99.535156 5.25 99.382812 5.019531 99.152344 4.941406 C 96.601562 4.015625 92.820312 2.164062 90.425781 0.078125 C 90.191406 -0.078125 89.960938 -0.078125 89.730469 0 C 89.5 0.15625 89.421875 0.464844 89.5 0.695312 L 91.042969 4.863281 L 50.039062 4.863281 C 37.992188 4.863281 26.71875 9.574219 18.222656 18.070312 L 19.074219 18.917969 C 27.257812 10.65625 38.300781 6.101562 50.039062 6.101562 Z M 97.375 5.558594 C 95.445312 6.410156 93.128906 7.492188 91.273438 8.804688 L 92.355469 5.714844 C 92.433594 5.558594 92.433594 5.484375 92.355469 5.328125 L 91.273438 2.238281 C 93.128906 3.550781 95.367188 4.710938 97.375 5.558594 Z M 97.375 5.558594 "/>
<path style=" stroke:none;fill-rule:nonzero;fill:rgb(13.72549%,12.156863%,12.54902%);fill-opacity:1;" d="M 50.039062 93.898438 L 9.035156 93.898438 L 10.578125 89.730469 C 10.65625 89.5 10.578125 89.1875 10.347656 89.035156 C 10.117188 88.878906 9.808594 88.878906 9.652344 89.113281 C 7.257812 91.195312 3.476562 93.050781 0.925781 93.976562 C 0.695312 94.054688 0.539062 94.285156 0.539062 94.515625 C 0.539062 94.75 0.695312 94.980469 0.925781 95.058594 C 3.476562 95.984375 7.257812 97.835938 9.652344 99.921875 C 9.730469 100 9.882812 100.078125 10.039062 100.078125 C 10.117188 100.078125 10.269531 100.078125 10.347656 100 C 10.578125 99.84375 10.65625 99.535156 10.578125 99.304688 L 9.035156 95.136719 L 50.039062 95.136719 C 62.085938 95.136719 73.359375 90.425781 81.851562 81.929688 L 81.003906 81.082031 C 72.742188 89.34375 61.699219 93.898438 50.039062 93.898438 Z M 2.625 94.441406 C 4.554688 93.589844 6.871094 92.507812 8.726562 91.195312 L 7.644531 94.285156 C 7.566406 94.441406 7.566406 94.515625 7.644531 94.671875 L 8.726562 97.761719 C 6.871094 96.449219 4.632812 95.289062 2.625 94.441406 Z M 2.625 94.441406 "/>
<path style=" stroke:none;fill-rule:nonzero;fill:rgb(13.72549%,12.156863%,12.54902%);fill-opacity:1;" d="M 0.773438 10.5 L 4.941406 8.957031 L 4.941406 49.960938 C 4.941406 62.007812 9.652344 73.28125 18.148438 81.777344 L 18.996094 80.925781 C 10.65625 72.742188 6.101562 61.699219 6.101562 50.039062 L 6.101562 9.035156 L 10.269531 10.578125 C 10.5 10.65625 10.8125 10.578125 10.964844 10.347656 C 11.121094 10.117188 11.121094 9.808594 10.886719 9.652344 C 8.804688 7.257812 6.949219 3.476562 6.023438 0.925781 C 6.023438 0.617188 5.792969 0.539062 5.558594 0.539062 C 5.328125 0.539062 5.097656 0.695312 5.019531 0.925781 C 4.015625 3.398438 2.238281 7.257812 0.15625 9.574219 C 0 9.808594 0 10.039062 0.078125 10.269531 C 0.15625 10.425781 0.386719 10.5 0.539062 10.5 C 0.617188 10.578125 0.695312 10.578125 0.773438 10.5 Z M 5.558594 2.625 C 6.410156 4.554688 7.492188 6.871094 8.804688 8.726562 L 5.714844 7.644531 C 5.558594 7.566406 5.484375 7.566406 5.328125 7.644531 L 2.238281 8.726562 C 3.550781 6.871094 4.710938 4.632812 5.558594 2.625 Z M 5.558594 2.625 "/>
<path style=" stroke:none;fill-rule:nonzero;fill:rgb(100%,81.568627%,35.686275%);fill-opacity:1;" d="M 93.4375 18.53125 C 93.4375 19.8125 92.398438 20.847656 91.121094 20.847656 C 89.839844 20.847656 88.804688 19.8125 88.804688 18.53125 C 88.804688 17.253906 89.839844 16.214844 91.121094 16.214844 C 92.398438 16.214844 93.4375 17.253906 93.4375 18.53125 Z M 93.4375 18.53125 "/>
<path style=" stroke:none;fill-rule:nonzero;fill:rgb(100%,43.921569%,34.509804%);fill-opacity:1;" d="M 7.644531 71.351562 C 7.644531 72.628906 6.609375 73.667969 5.328125 73.667969 C 4.046875 73.667969 3.011719 72.628906 3.011719 71.351562 C 3.011719 70.070312 4.046875 69.035156 5.328125 69.035156 C 6.609375 69.035156 7.644531 70.070312 7.644531 71.351562 Z M 7.644531 71.351562 "/>
<path style=" stroke:none;fill-rule:nonzero;fill:rgb(90.196078%,91.372549%,93.333333%);fill-opacity:1;" d="M 13.511719 16.601562 C 13.511719 17.414062 12.855469 18.070312 12.046875 18.070312 C 11.234375 18.070312 10.578125 17.414062 10.578125 16.601562 C 10.578125 15.792969 11.234375 15.136719 12.046875 15.136719 C 12.855469 15.136719 13.511719 15.792969 13.511719 16.601562 Z M 13.511719 16.601562 "/>
<path style=" stroke:none;fill-rule:nonzero;fill:rgb(90.196078%,91.372549%,93.333333%);fill-opacity:1;" d="M 89.421875 85.40625 C 89.421875 86.214844 88.765625 86.871094 87.953125 86.871094 C 87.144531 86.871094 86.488281 86.214844 86.488281 85.40625 C 86.488281 84.59375 87.144531 83.9375 87.953125 83.9375 C 88.765625 83.9375 89.421875 84.59375 89.421875 85.40625 Z M 89.421875 85.40625 "/>
<path style=" stroke:none;fill-rule:nonzero;fill:rgb(51.764706%,85.882353%,100%);fill-opacity:1;" d="M 67.179688 96.214844 C 67.179688 97.027344 66.523438 97.683594 65.714844 97.683594 C 64.902344 97.683594 64.246094 97.027344 64.246094 96.214844 C 64.246094 95.40625 64.902344 94.75 65.714844 94.75 C 66.523438 94.75 67.179688 95.40625 67.179688 96.214844 Z M 67.179688 96.214844 "/>
</g>
</svg>
