<?xml version="1.0" encoding="UTF-8"?>
<svg xmlns="http://www.w3.org/2000/svg" xmlns:xlink="http://www.w3.org/1999/xlink" width="82px" height="82px" viewBox="0 0 82 82" version="1.1">
<g id="surface1">
<path style=" stroke:none;fill-rule:nonzero;fill:rgb(13.72549%,12.156863%,12.54902%);fill-opacity:1;" d="M 49.832031 15.957031 L 44.703125 15.957031 C 44.449219 15.957031 44.199219 15.765625 44.199219 15.449219 C 44.199219 15.195312 44.386719 14.945312 44.703125 14.945312 L 49.832031 14.945312 C 50.085938 14.945312 50.339844 15.132812 50.339844 15.449219 C 50.277344 15.765625 50.085938 15.957031 49.832031 15.957031 Z M 49.832031 15.957031 "/>
<path style=" stroke:none;fill-rule:nonzero;fill:rgb(13.72549%,12.156863%,12.54902%);fill-opacity:1;" d="M 51.859375 17.855469 L 49.328125 17.855469 C 49.074219 17.855469 48.820312 17.667969 48.820312 17.351562 C 48.820312 17.097656 49.011719 16.84375 49.328125 16.84375 L 51.859375 16.84375 C 52.113281 16.84375 52.367188 17.035156 52.367188 17.351562 C 52.300781 17.601562 52.113281 17.855469 51.859375 17.855469 Z M 51.859375 17.855469 "/>
<path style=" stroke:none;fill-rule:nonzero;fill:rgb(13.72549%,12.156863%,12.54902%);fill-opacity:1;" d="M 54.519531 15.957031 L 52.113281 15.957031 C 51.859375 15.957031 51.605469 15.765625 51.605469 15.449219 C 51.605469 15.195312 51.796875 14.945312 52.113281 14.945312 L 54.519531 14.945312 C 54.773438 14.945312 55.027344 15.132812 55.027344 15.449219 C 55.027344 15.765625 54.773438 15.957031 54.519531 15.957031 Z M 54.519531 15.957031 "/>
<path style=" stroke:none;fill-rule:nonzero;fill:rgb(13.72549%,12.156863%,12.54902%);fill-opacity:1;" d="M 47.492188 17.855469 L 46.984375 17.855469 C 46.730469 17.855469 46.476562 17.667969 46.476562 17.351562 C 46.476562 17.097656 46.667969 16.84375 46.984375 16.84375 L 47.492188 16.84375 C 47.742188 16.84375 47.996094 17.035156 47.996094 17.351562 C 47.996094 17.601562 47.742188 17.855469 47.492188 17.855469 Z M 47.492188 17.855469 "/>
<path style=" stroke:none;fill-rule:nonzero;fill:rgb(13.72549%,12.156863%,12.54902%);fill-opacity:1;" d="M 29.253906 64.585938 L 24.125 64.585938 C 23.871094 64.585938 23.617188 64.398438 23.617188 64.082031 C 23.617188 63.828125 23.808594 63.574219 24.125 63.574219 L 29.253906 63.574219 C 29.507812 63.574219 29.761719 63.765625 29.761719 64.082031 C 29.761719 64.398438 29.507812 64.585938 29.253906 64.585938 Z M 29.253906 64.585938 "/>
<path style=" stroke:none;fill-rule:nonzero;fill:rgb(13.72549%,12.156863%,12.54902%);fill-opacity:1;" d="M 31.28125 66.421875 L 28.746094 66.421875 C 28.496094 66.421875 28.242188 66.234375 28.242188 65.917969 C 28.242188 65.664062 28.429688 65.410156 28.746094 65.410156 L 31.28125 65.410156 C 31.535156 65.410156 31.785156 65.601562 31.785156 65.917969 C 31.722656 66.234375 31.535156 66.421875 31.28125 66.421875 Z M 31.28125 66.421875 "/>
<path style=" stroke:none;fill-rule:nonzero;fill:rgb(13.72549%,12.156863%,12.54902%);fill-opacity:1;" d="M 33.941406 64.585938 L 31.535156 64.585938 C 31.28125 64.585938 31.027344 64.398438 31.027344 64.082031 C 31.027344 63.828125 31.21875 63.574219 31.535156 63.574219 L 33.941406 63.574219 C 34.191406 63.574219 34.445312 63.765625 34.445312 64.082031 C 34.445312 64.398438 34.257812 64.585938 33.941406 64.585938 Z M 33.941406 64.585938 "/>
<path style=" stroke:none;fill-rule:nonzero;fill:rgb(13.72549%,12.156863%,12.54902%);fill-opacity:1;" d="M 26.910156 66.421875 L 26.40625 66.421875 C 26.152344 66.421875 25.898438 66.234375 25.898438 65.917969 C 25.898438 65.664062 26.089844 65.410156 26.40625 65.410156 L 26.910156 65.410156 C 27.164062 65.410156 27.417969 65.601562 27.417969 65.917969 C 27.417969 66.234375 27.226562 66.421875 26.910156 66.421875 Z M 26.910156 66.421875 "/>
<path style=" stroke:none;fill-rule:nonzero;fill:rgb(13.72549%,12.156863%,12.54902%);fill-opacity:1;" d="M 6.710938 5.128906 C 6.585938 5.128906 6.457031 5.066406 6.394531 5.003906 C 6.207031 4.8125 6.207031 4.496094 6.394531 4.304688 L 7.21875 3.484375 C 7.410156 3.292969 7.726562 3.292969 7.914062 3.484375 C 8.105469 3.671875 8.105469 3.988281 7.914062 4.179688 L 7.09375 5.003906 C 6.964844 5.066406 6.839844 5.128906 6.710938 5.128906 Z M 6.710938 5.128906 "/>
<path style=" stroke:none;fill-rule:nonzero;fill:rgb(13.72549%,12.156863%,12.54902%);fill-opacity:1;" d="M 4.179688 7.660156 C 4.050781 7.660156 3.925781 7.597656 3.863281 7.535156 C 3.671875 7.34375 3.671875 7.027344 3.863281 6.839844 L 4.6875 6.015625 C 4.875 5.824219 5.191406 5.824219 5.382812 6.015625 C 5.570312 6.207031 5.570312 6.523438 5.382812 6.710938 L 4.558594 7.535156 C 4.433594 7.660156 4.304688 7.660156 4.179688 7.660156 Z M 4.179688 7.660156 "/>
<path style=" stroke:none;fill-rule:nonzero;fill:rgb(13.72549%,12.156863%,12.54902%);fill-opacity:1;" d="M 7.535156 7.660156 C 7.410156 7.660156 7.28125 7.597656 7.21875 7.535156 L 6.394531 6.710938 C 6.207031 6.523438 6.207031 6.207031 6.394531 6.015625 C 6.585938 5.824219 6.902344 5.824219 7.09375 6.015625 L 7.914062 6.839844 C 8.105469 7.027344 8.105469 7.34375 7.914062 7.535156 C 7.789062 7.660156 7.660156 7.660156 7.535156 7.660156 Z M 7.535156 7.660156 "/>
<path style=" stroke:none;fill-rule:nonzero;fill:rgb(13.72549%,12.156863%,12.54902%);fill-opacity:1;" d="M 5.003906 5.128906 C 4.875 5.128906 4.75 5.066406 4.621094 5.003906 L 3.800781 4.179688 C 3.671875 3.988281 3.671875 3.671875 3.800781 3.484375 C 3.988281 3.292969 4.304688 3.292969 4.496094 3.484375 L 5.320312 4.304688 C 5.507812 4.496094 5.507812 4.8125 5.320312 5.003906 C 5.191406 5.066406 5.128906 5.128906 5.003906 5.128906 Z M 5.003906 5.128906 "/>
<path style=" stroke:none;fill-rule:nonzero;fill:rgb(13.72549%,12.156863%,12.54902%);fill-opacity:1;" d="M 65.15625 26.847656 C 65.03125 26.847656 64.902344 26.785156 64.839844 26.722656 C 64.648438 26.53125 64.648438 26.214844 64.839844 26.023438 L 65.664062 25.203125 C 65.851562 25.011719 66.167969 25.011719 66.359375 25.203125 C 66.550781 25.390625 66.550781 25.707031 66.359375 25.898438 L 65.535156 26.722656 C 65.410156 26.785156 65.285156 26.847656 65.15625 26.847656 Z M 65.15625 26.847656 "/>
<path style=" stroke:none;fill-rule:nonzero;fill:rgb(13.72549%,12.156863%,12.54902%);fill-opacity:1;" d="M 62.625 29.378906 C 62.496094 29.378906 62.371094 29.316406 62.308594 29.253906 C 62.117188 29.0625 62.117188 28.746094 62.308594 28.558594 L 63.128906 27.734375 C 63.320312 27.542969 63.636719 27.542969 63.828125 27.734375 C 64.015625 27.925781 64.015625 28.242188 63.828125 28.429688 L 63.003906 29.253906 C 62.878906 29.316406 62.75 29.378906 62.625 29.378906 Z M 62.625 29.378906 "/>
<path style=" stroke:none;fill-rule:nonzero;fill:rgb(13.72549%,12.156863%,12.54902%);fill-opacity:1;" d="M 65.980469 29.378906 C 65.851562 29.378906 65.726562 29.316406 65.664062 29.253906 L 64.839844 28.429688 C 64.648438 28.242188 64.648438 27.925781 64.839844 27.734375 C 65.03125 27.542969 65.347656 27.542969 65.535156 27.734375 L 66.359375 28.558594 C 66.550781 28.746094 66.550781 29.0625 66.359375 29.253906 C 66.234375 29.316406 66.105469 29.378906 65.980469 29.378906 Z M 65.980469 29.378906 "/>
<path style=" stroke:none;fill-rule:nonzero;fill:rgb(13.72549%,12.156863%,12.54902%);fill-opacity:1;" d="M 63.445312 26.847656 C 63.320312 26.847656 63.195312 26.785156 63.128906 26.722656 L 62.308594 25.898438 C 62.117188 25.707031 62.117188 25.390625 62.308594 25.203125 C 62.496094 25.011719 62.8125 25.011719 63.003906 25.203125 L 63.828125 26.023438 C 64.015625 26.214844 64.015625 26.53125 63.828125 26.722656 C 63.636719 26.785156 63.574219 26.847656 63.445312 26.847656 Z M 63.445312 26.847656 "/>
<path style=" stroke:none;fill-rule:nonzero;fill:rgb(13.72549%,12.156863%,12.54902%);fill-opacity:1;" d="M 75.730469 5.507812 C 75.605469 5.507812 75.476562 5.445312 75.414062 5.382812 C 75.226562 5.191406 75.226562 4.875 75.414062 4.6875 L 76.238281 3.863281 C 76.429688 3.671875 76.746094 3.671875 76.933594 3.863281 C 77.125 4.050781 77.125 4.367188 76.933594 4.558594 L 76.109375 5.382812 C 75.984375 5.507812 75.859375 5.507812 75.730469 5.507812 Z M 75.730469 5.507812 "/>
<path style=" stroke:none;fill-rule:nonzero;fill:rgb(13.72549%,12.156863%,12.54902%);fill-opacity:1;" d="M 73.199219 8.105469 C 73.070312 8.105469 72.945312 8.042969 72.882812 7.976562 C 72.691406 7.789062 72.691406 7.472656 72.882812 7.28125 L 73.703125 6.457031 C 73.894531 6.269531 74.210938 6.269531 74.402344 6.457031 C 74.589844 6.648438 74.589844 6.964844 74.402344 7.15625 L 73.578125 7.976562 C 73.386719 8.042969 73.324219 8.105469 73.199219 8.105469 Z M 73.199219 8.105469 "/>
<path style=" stroke:none;fill-rule:nonzero;fill:rgb(13.72549%,12.156863%,12.54902%);fill-opacity:1;" d="M 76.554688 8.105469 C 76.429688 8.105469 76.300781 8.042969 76.238281 7.976562 L 75.414062 7.15625 C 75.226562 6.964844 75.226562 6.648438 75.414062 6.457031 C 75.605469 6.269531 75.921875 6.269531 76.109375 6.457031 L 76.933594 7.28125 C 77.125 7.472656 77.125 7.789062 76.933594 7.976562 C 76.808594 8.042969 76.679688 8.105469 76.554688 8.105469 Z M 76.554688 8.105469 "/>
<path style=" stroke:none;fill-rule:nonzero;fill:rgb(13.72549%,12.156863%,12.54902%);fill-opacity:1;" d="M 73.957031 5.507812 C 73.832031 5.507812 73.703125 5.445312 73.640625 5.382812 L 72.820312 4.558594 C 72.628906 4.367188 72.628906 4.050781 72.820312 3.863281 C 73.007812 3.671875 73.324219 3.671875 73.515625 3.863281 L 74.339844 4.6875 C 74.527344 4.875 74.527344 5.191406 74.339844 5.382812 C 74.210938 5.507812 74.085938 5.507812 73.957031 5.507812 Z M 73.957031 5.507812 "/>
<path style=" stroke:none;fill-rule:nonzero;fill:rgb(13.72549%,12.156863%,12.54902%);fill-opacity:1;" d="M 6.710938 76.238281 C 6.585938 76.238281 6.457031 76.175781 6.394531 76.109375 C 6.207031 75.921875 6.207031 75.605469 6.394531 75.414062 L 7.21875 74.589844 C 7.410156 74.402344 7.726562 74.402344 7.914062 74.589844 C 8.105469 74.78125 8.105469 75.097656 7.914062 75.289062 L 7.09375 76.109375 C 6.964844 76.175781 6.839844 76.238281 6.710938 76.238281 Z M 6.710938 76.238281 "/>
<path style=" stroke:none;fill-rule:nonzero;fill:rgb(13.72549%,12.156863%,12.54902%);fill-opacity:1;" d="M 4.179688 78.769531 C 4.050781 78.769531 3.925781 78.707031 3.863281 78.644531 C 3.671875 78.453125 3.671875 78.136719 3.863281 77.949219 L 4.6875 77.125 C 4.875 76.933594 5.191406 76.933594 5.382812 77.125 C 5.570312 77.3125 5.570312 77.632812 5.382812 77.820312 L 4.558594 78.644531 C 4.433594 78.707031 4.304688 78.769531 4.179688 78.769531 Z M 4.179688 78.769531 "/>
<path style=" stroke:none;fill-rule:nonzero;fill:rgb(13.72549%,12.156863%,12.54902%);fill-opacity:1;" d="M 7.535156 78.769531 C 7.410156 78.769531 7.28125 78.707031 7.21875 78.644531 L 6.394531 77.820312 C 6.207031 77.632812 6.207031 77.3125 6.394531 77.125 C 6.585938 76.933594 6.902344 76.933594 7.09375 77.125 L 7.914062 77.949219 C 8.105469 78.136719 8.105469 78.453125 7.914062 78.644531 C 7.789062 78.707031 7.660156 78.769531 7.535156 78.769531 Z M 7.535156 78.769531 "/>
<path style=" stroke:none;fill-rule:nonzero;fill:rgb(13.72549%,12.156863%,12.54902%);fill-opacity:1;" d="M 5.003906 76.238281 C 4.875 76.238281 4.75 76.175781 4.6875 76.109375 L 3.800781 75.289062 C 3.609375 75.097656 3.609375 74.78125 3.800781 74.589844 C 3.988281 74.402344 4.304688 74.402344 4.496094 74.589844 L 5.320312 75.414062 C 5.507812 75.605469 5.507812 75.921875 5.320312 76.109375 C 5.191406 76.175781 5.128906 76.238281 5.003906 76.238281 Z M 5.003906 76.238281 "/>
<path style=" stroke:none;fill-rule:nonzero;fill:rgb(13.72549%,12.156863%,12.54902%);fill-opacity:1;" d="M 45.84375 38.117188 L 45.210938 38.117188 L 45.210938 37.167969 L 45.84375 37.167969 Z M 43.945312 38.117188 L 43.3125 38.117188 L 43.3125 37.167969 L 43.945312 37.167969 Z M 42.042969 38.117188 L 41.410156 38.117188 L 41.410156 37.167969 L 42.042969 37.167969 Z M 40.144531 38.117188 L 39.511719 38.117188 L 39.511719 37.167969 L 40.144531 37.167969 Z M 38.246094 38.117188 L 37.613281 38.117188 L 37.613281 37.167969 L 38.246094 37.167969 Z M 36.347656 38.117188 L 35.710938 38.117188 L 35.710938 37.167969 L 36.347656 37.167969 Z M 34.445312 38.117188 L 33.8125 38.117188 L 33.8125 37.167969 L 34.445312 37.167969 Z M 32.546875 38.117188 L 31.914062 38.117188 L 31.914062 37.167969 L 32.546875 37.167969 Z M 30.648438 38.117188 L 30.015625 38.117188 L 30.015625 37.167969 L 30.648438 37.167969 Z M 28.746094 38.117188 L 28.113281 38.117188 L 28.113281 37.167969 L 28.746094 37.167969 Z M 26.847656 38.117188 L 26.214844 38.117188 L 26.214844 37.167969 L 26.847656 37.167969 Z M 24.949219 38.117188 L 24.316406 38.117188 L 24.316406 37.167969 L 24.949219 37.167969 Z M 23.046875 38.117188 L 22.414062 38.117188 L 22.414062 37.167969 L 23.046875 37.167969 Z M 23.046875 38.117188 "/>
<path style=" stroke:none;fill-rule:nonzero;fill:rgb(100%,81.568627%,35.686275%);fill-opacity:1;" d="M 46.855469 24.695312 L 18.234375 24.695312 L 18.234375 20.074219 L 7.15625 31.152344 L 18.234375 42.296875 L 18.234375 37.675781 L 22.414062 37.675781 "/>
<path style=" stroke:none;fill-rule:nonzero;fill:rgb(13.72549%,12.156863%,12.54902%);fill-opacity:1;" d="M 18.742188 43.4375 L 6.457031 31.152344 L 18.742188 18.933594 L 18.742188 24.25 L 46.855469 24.25 L 46.855469 25.203125 L 17.792969 25.203125 L 17.792969 21.210938 L 7.789062 31.152344 L 17.792969 41.160156 L 17.792969 37.167969 L 22.414062 37.167969 L 22.414062 38.117188 L 18.742188 38.117188 Z M 18.742188 43.4375 "/>
<path style=" stroke:none;fill-rule:nonzero;fill:rgb(13.72549%,12.156863%,12.54902%);fill-opacity:1;" d="M 42.804688 31.660156 L 41.664062 31.660156 C 41.410156 31.660156 41.160156 31.46875 41.160156 31.152344 C 41.160156 30.898438 41.347656 30.648438 41.664062 30.648438 L 42.804688 30.648438 C 43.058594 30.648438 43.3125 30.835938 43.3125 31.152344 C 43.246094 31.46875 43.058594 31.660156 42.804688 31.660156 Z M 42.804688 31.660156 "/>
<path style=" stroke:none;fill-rule:nonzero;fill:rgb(13.72549%,12.156863%,12.54902%);fill-opacity:1;" d="M 39.320312 31.660156 L 25.453125 31.660156 C 25.203125 31.660156 24.949219 31.46875 24.949219 31.152344 C 24.949219 30.898438 25.136719 30.648438 25.453125 30.648438 L 39.320312 30.648438 C 39.574219 30.648438 39.828125 30.835938 39.828125 31.152344 C 39.765625 31.46875 39.574219 31.660156 39.320312 31.660156 Z M 39.320312 31.660156 "/>
<path style=" stroke:none;fill-rule:nonzero;fill:rgb(13.72549%,12.156863%,12.54902%);fill-opacity:1;" d="M 40.589844 57.75 L 39.957031 57.75 L 39.957031 56.796875 L 40.589844 56.796875 Z M 38.6875 57.75 L 38.054688 57.75 L 38.054688 56.796875 L 38.6875 56.796875 Z M 36.789062 57.75 L 36.15625 57.75 L 36.15625 56.796875 L 36.789062 56.796875 Z M 53.253906 57.75 L 53.253906 56.796875 L 53.886719 56.796875 L 53.886719 57.75 Z M 51.984375 57.75 L 51.351562 57.75 L 51.351562 56.796875 L 51.984375 56.796875 Z M 50.085938 57.75 L 49.453125 57.75 L 49.453125 56.796875 L 50.085938 56.796875 Z M 48.1875 57.75 L 47.554688 57.75 L 47.554688 56.796875 L 48.1875 56.796875 Z M 46.289062 57.75 L 45.652344 57.75 L 45.652344 56.796875 L 46.289062 56.796875 Z M 44.386719 57.75 L 43.753906 57.75 L 43.753906 56.796875 L 44.386719 56.796875 Z M 42.488281 57.75 L 41.855469 57.75 L 41.855469 56.796875 L 42.488281 56.796875 Z M 59.585938 57.75 L 58.953125 57.75 L 58.953125 56.796875 L 59.585938 56.796875 Z M 57.683594 57.75 L 57.050781 57.75 L 57.050781 56.796875 L 57.683594 56.796875 Z M 55.785156 57.75 L 55.152344 57.75 L 55.152344 56.796875 L 55.785156 56.796875 Z M 55.785156 57.75 "/>
<path style=" stroke:none;fill-rule:nonzero;fill:rgb(100%,43.921569%,34.509804%);fill-opacity:1;" d="M 35.144531 44.324219 L 63.765625 44.324219 L 63.765625 39.703125 L 74.84375 50.847656 L 63.765625 61.925781 L 63.765625 57.304688 L 59.585938 57.304688 "/>
<path style=" stroke:none;fill-rule:nonzero;fill:rgb(13.72549%,12.156863%,12.54902%);fill-opacity:1;" d="M 63.257812 63.066406 L 63.257812 57.75 L 59.585938 57.75 L 59.585938 56.796875 L 64.207031 56.796875 L 64.207031 60.789062 L 74.210938 50.847656 L 64.207031 40.839844 L 64.207031 44.832031 L 35.144531 44.832031 L 35.144531 43.882812 L 63.257812 43.882812 L 63.257812 38.5625 L 75.542969 50.847656 Z M 63.257812 63.066406 "/>
<path style=" stroke:none;fill-rule:nonzero;fill:rgb(13.72549%,12.156863%,12.54902%);fill-opacity:1;" d="M 40.335938 51.289062 L 39.195312 51.289062 C 38.941406 51.289062 38.6875 51.101562 38.6875 50.78125 C 38.6875 50.53125 38.878906 50.277344 39.195312 50.277344 L 40.335938 50.277344 C 40.589844 50.277344 40.777344 50.464844 40.777344 50.78125 C 40.839844 51.101562 40.589844 51.289062 40.335938 51.289062 Z M 40.335938 51.289062 "/>
<path style=" stroke:none;fill-rule:nonzero;fill:rgb(13.72549%,12.156863%,12.54902%);fill-opacity:1;" d="M 42.679688 51.289062 C 42.425781 51.289062 42.171875 51.101562 42.171875 50.78125 C 42.171875 50.53125 42.363281 50.277344 42.679688 50.277344 L 56.546875 50.277344 C 56.796875 50.277344 57.050781 50.464844 57.050781 50.78125 C 57.050781 51.035156 56.863281 51.289062 56.546875 51.289062 Z M 42.679688 51.289062 "/>
<path style=" stroke:none;fill-rule:nonzero;fill:rgb(13.72549%,12.156863%,12.54902%);fill-opacity:1;" d="M 40.523438 82 C 40.335938 82 40.082031 82 39.890625 82 L 39.890625 81.050781 C 40.082031 81.050781 40.335938 81.050781 40.523438 81.050781 Z M 41.792969 82 L 41.792969 81.050781 C 41.980469 81.050781 42.234375 81.050781 42.425781 81.050781 L 42.488281 82 C 42.234375 82 41.980469 82 41.792969 82 Z M 38.5625 81.9375 C 38.371094 81.9375 38.117188 81.9375 37.929688 81.875 L 37.992188 80.921875 C 38.183594 80.921875 38.433594 80.921875 38.625 80.988281 Z M 43.691406 81.9375 L 43.628906 80.988281 C 43.816406 80.988281 44.070312 80.988281 44.261719 80.921875 L 44.324219 81.875 C 44.132812 81.875 43.945312 81.875 43.691406 81.9375 Z M 36.664062 81.746094 C 36.472656 81.746094 36.21875 81.683594 36.03125 81.683594 L 36.15625 80.734375 C 36.347656 80.734375 36.597656 80.796875 36.789062 80.796875 Z M 45.652344 81.746094 L 45.527344 80.796875 C 45.71875 80.796875 45.96875 80.734375 46.160156 80.734375 L 46.289062 81.683594 C 46.035156 81.683594 45.84375 81.746094 45.652344 81.746094 Z M 34.761719 81.558594 C 34.574219 81.492188 34.320312 81.492188 34.128906 81.429688 L 34.320312 80.480469 C 34.507812 80.542969 34.761719 80.542969 34.953125 80.605469 Z M 47.554688 81.492188 L 47.425781 80.542969 C 47.617188 80.480469 47.871094 80.480469 48.058594 80.417969 L 48.25 81.367188 C 47.933594 81.429688 47.742188 81.429688 47.554688 81.492188 Z M 32.863281 81.175781 C 32.671875 81.113281 32.421875 81.113281 32.230469 81.050781 L 32.421875 80.101562 C 32.609375 80.164062 32.800781 80.164062 33.054688 80.226562 Z M 49.390625 81.113281 L 49.199219 80.164062 C 49.390625 80.101562 49.578125 80.101562 49.832031 80.035156 L 50.023438 80.988281 C 49.832031 81.050781 49.644531 81.113281 49.390625 81.113281 Z M 31.027344 80.796875 C 30.835938 80.734375 30.582031 80.671875 30.394531 80.605469 L 30.648438 79.71875 C 30.835938 79.785156 31.027344 79.847656 31.28125 79.847656 Z M 51.289062 80.671875 L 51.035156 79.71875 C 51.226562 79.65625 51.417969 79.59375 51.667969 79.53125 L 51.921875 80.417969 C 51.734375 80.605469 51.480469 80.671875 51.289062 80.671875 Z M 29.128906 80.226562 C 28.9375 80.164062 28.746094 80.101562 28.496094 80.035156 L 28.8125 79.152344 C 29 79.214844 29.191406 79.277344 29.378906 79.339844 Z M 53.125 80.164062 L 52.871094 79.277344 C 53.0625 79.214844 53.253906 79.152344 53.441406 79.085938 L 53.757812 79.972656 C 53.570312 80.035156 53.316406 80.101562 53.125 80.164062 Z M 27.355469 79.65625 C 27.164062 79.59375 26.972656 79.53125 26.722656 79.46875 L 27.039062 78.582031 C 27.226562 78.644531 27.417969 78.707031 27.609375 78.769531 Z M 54.960938 79.53125 L 54.644531 78.644531 C 54.835938 78.582031 55.027344 78.515625 55.214844 78.453125 L 55.53125 79.339844 C 55.34375 79.402344 55.152344 79.46875 54.960938 79.53125 Z M 25.519531 78.960938 C 25.328125 78.898438 25.136719 78.769531 24.949219 78.707031 L 25.328125 77.882812 C 25.519531 77.949219 25.707031 78.074219 25.898438 78.136719 Z M 56.734375 78.832031 L 56.355469 77.949219 C 56.546875 77.882812 56.734375 77.757812 56.925781 77.695312 L 57.304688 78.582031 C 57.179688 78.707031 56.925781 78.769531 56.734375 78.832031 Z M 23.746094 78.199219 C 23.554688 78.136719 23.367188 78.011719 23.175781 77.949219 L 23.617188 77.0625 C 23.808594 77.125 24 77.25 24.1875 77.3125 Z M 58.507812 78.074219 L 58.128906 77.1875 C 58.316406 77.125 58.507812 76.996094 58.699219 76.933594 L 59.140625 77.757812 C 58.886719 77.882812 58.699219 78.011719 58.507812 78.074219 Z M 22.035156 77.378906 C 21.84375 77.25 21.65625 77.1875 21.464844 77.0625 L 21.910156 76.238281 C 22.097656 76.363281 22.289062 76.429688 22.480469 76.554688 Z M 60.21875 77.25 L 59.773438 76.429688 C 59.964844 76.300781 60.15625 76.238281 60.34375 76.109375 L 60.789062 76.933594 C 60.597656 76.996094 60.40625 77.125 60.21875 77.25 Z M 20.390625 76.429688 C 20.199219 76.300781 20.007812 76.238281 19.820312 76.109375 L 20.324219 75.289062 C 20.515625 75.414062 20.707031 75.476562 20.832031 75.605469 Z M 61.925781 76.300781 L 61.421875 75.476562 C 61.609375 75.351562 61.800781 75.289062 61.992188 75.160156 L 62.496094 75.984375 C 62.308594 76.046875 62.117188 76.175781 61.925781 76.300781 Z M 18.742188 75.414062 C 18.554688 75.289062 18.363281 75.160156 18.234375 75.035156 L 18.742188 74.273438 C 18.933594 74.402344 19.058594 74.527344 19.25 74.589844 Z M 63.574219 75.289062 L 63.066406 74.464844 C 63.257812 74.339844 63.382812 74.210938 63.574219 74.085938 L 64.082031 74.84375 C 63.890625 75.035156 63.699219 75.160156 63.574219 75.289062 Z M 17.160156 74.339844 C 16.96875 74.210938 16.84375 74.085938 16.652344 73.957031 L 17.222656 73.199219 C 17.414062 73.324219 17.539062 73.453125 17.730469 73.578125 Z M 65.09375 74.148438 L 64.523438 73.386719 C 64.714844 73.261719 64.839844 73.136719 65.03125 73.007812 L 65.601562 73.769531 C 65.472656 73.894531 65.285156 74.023438 65.09375 74.148438 Z M 15.640625 73.199219 C 15.449219 73.070312 15.324219 72.945312 15.132812 72.820312 L 15.703125 72.058594 C 15.894531 72.183594 16.019531 72.3125 16.210938 72.4375 Z M 66.675781 73.007812 L 66.105469 72.25 C 66.296875 72.121094 66.421875 71.996094 66.613281 71.867188 L 67.246094 72.628906 C 66.992188 72.691406 66.804688 72.882812 66.675781 73.007812 Z M 14.121094 71.996094 C 13.929688 71.867188 13.804688 71.742188 13.613281 71.550781 L 14.246094 70.855469 C 14.375 70.980469 14.5625 71.109375 14.691406 71.300781 Z M 68.132812 71.742188 L 67.5 71.046875 C 67.625 70.917969 67.816406 70.792969 67.941406 70.601562 L 68.574219 71.300781 C 68.449219 71.488281 68.257812 71.617188 68.132812 71.742188 Z M 12.726562 70.664062 C 12.601562 70.539062 12.410156 70.347656 12.285156 70.222656 L 12.980469 69.527344 C 13.105469 69.652344 13.296875 69.84375 13.425781 69.96875 Z M 69.527344 70.414062 L 68.894531 69.714844 C 69.019531 69.589844 69.210938 69.398438 69.335938 69.273438 L 69.398438 69.210938 L 70.097656 69.84375 L 69.96875 69.96875 C 69.84375 70.160156 69.714844 70.285156 69.527344 70.414062 Z M 11.335938 69.335938 C 11.207031 69.210938 11.019531 69.019531 10.890625 68.894531 L 11.585938 68.257812 C 11.714844 68.386719 11.902344 68.574219 12.03125 68.703125 Z M 70.980469 68.957031 L 70.285156 68.324219 C 70.414062 68.195312 70.539062 68.007812 70.730469 67.878906 L 71.425781 68.511719 C 71.234375 68.640625 71.109375 68.828125 70.980469 68.957031 Z M 10.066406 67.878906 C 9.941406 67.691406 9.816406 67.5625 9.625 67.371094 L 10.320312 66.738281 C 10.449219 66.929688 10.574219 67.054688 10.699219 67.246094 Z M 72.25 67.5625 L 71.550781 66.929688 C 71.679688 66.738281 71.804688 66.613281 71.933594 66.421875 L 72.691406 67.054688 C 72.5 67.246094 72.375 67.371094 72.25 67.5625 Z M 8.800781 66.421875 C 8.675781 66.234375 8.546875 66.105469 8.421875 65.917969 L 9.179688 65.347656 C 9.308594 65.535156 9.433594 65.664062 9.5625 65.851562 Z M 73.453125 66.042969 L 72.691406 65.472656 C 72.820312 65.285156 72.945312 65.15625 73.070312 64.964844 L 73.832031 65.535156 C 73.703125 65.726562 73.578125 65.917969 73.453125 66.042969 Z M 7.660156 64.902344 C 7.535156 64.714844 7.410156 64.523438 7.28125 64.398438 L 8.042969 63.828125 C 8.167969 64.015625 8.296875 64.144531 8.421875 64.332031 Z M 74.589844 64.523438 L 73.832031 63.953125 C 73.957031 63.765625 74.085938 63.636719 74.210938 63.445312 L 74.972656 63.953125 C 74.84375 64.144531 74.71875 64.332031 74.589844 64.523438 Z M 6.585938 63.320312 C 6.457031 63.128906 6.332031 62.941406 6.269531 62.75 L 7.09375 62.242188 C 7.21875 62.433594 7.34375 62.625 7.410156 62.75 Z M 75.667969 62.941406 L 74.84375 62.433594 C 74.972656 62.242188 75.035156 62.054688 75.160156 61.925781 L 75.984375 62.433594 C 75.859375 62.5625 75.792969 62.75 75.667969 62.941406 Z M 5.570312 61.675781 C 5.445312 61.484375 5.382812 61.292969 5.253906 61.105469 L 6.078125 60.660156 C 6.207031 60.851562 6.269531 61.039062 6.394531 61.230469 Z M 76.679688 61.292969 L 75.859375 60.851562 C 75.984375 60.660156 76.046875 60.472656 76.175781 60.28125 L 76.996094 60.722656 C 76.871094 60.914062 76.746094 61.105469 76.679688 61.292969 Z M 4.621094 59.964844 C 4.496094 59.773438 4.433594 59.585938 4.304688 59.394531 L 5.128906 58.953125 C 5.191406 59.140625 5.320312 59.332031 5.445312 59.519531 Z M 77.566406 59.585938 L 76.746094 59.140625 C 76.808594 58.953125 76.933594 58.761719 76.996094 58.570312 L 77.820312 59.015625 C 77.757812 59.203125 77.632812 59.394531 77.566406 59.585938 Z M 3.800781 58.253906 C 3.734375 58.066406 3.609375 57.875 3.546875 57.683594 L 4.433594 57.304688 C 4.496094 57.496094 4.621094 57.683594 4.6875 57.875 Z M 78.390625 57.875 L 77.503906 57.496094 C 77.566406 57.304688 77.695312 57.113281 77.757812 56.925781 L 78.644531 57.304688 C 78.582031 57.433594 78.453125 57.683594 78.390625 57.875 Z M 3.039062 56.480469 C 2.976562 56.292969 2.847656 56.101562 2.785156 55.910156 L 3.671875 55.59375 C 3.734375 55.722656 3.800781 55.910156 3.925781 56.101562 Z M 79.152344 56.101562 L 78.265625 55.722656 C 78.328125 55.53125 78.390625 55.34375 78.515625 55.152344 L 79.402344 55.46875 C 79.277344 55.660156 79.214844 55.910156 79.152344 56.101562 Z M 2.34375 54.707031 C 2.28125 54.519531 2.214844 54.328125 2.152344 54.074219 L 3.039062 53.757812 C 3.101562 53.949219 3.167969 54.140625 3.230469 54.328125 Z M 79.785156 54.265625 L 78.898438 53.949219 C 78.960938 53.757812 79.023438 53.570312 79.085938 53.378906 L 79.972656 53.695312 C 79.910156 53.886719 79.847656 54.074219 79.785156 54.265625 Z M 1.773438 52.871094 C 1.710938 52.683594 1.644531 52.492188 1.582031 52.238281 L 2.46875 51.984375 C 2.53125 52.175781 2.597656 52.367188 2.660156 52.554688 Z M 80.355469 52.429688 L 79.46875 52.175781 C 79.53125 51.984375 79.59375 51.796875 79.65625 51.542969 L 80.542969 51.796875 C 80.480469 52.050781 80.417969 52.238281 80.355469 52.429688 Z M 1.265625 51.035156 C 1.203125 50.847656 1.140625 50.59375 1.140625 50.402344 L 2.089844 50.214844 C 2.152344 50.402344 2.214844 50.59375 2.214844 50.847656 Z M 80.859375 50.59375 L 79.910156 50.339844 C 79.972656 50.148438 80.035156 49.960938 80.035156 49.707031 L 80.988281 49.898438 C 80.988281 50.148438 80.921875 50.402344 80.859375 50.59375 Z M 0.824219 49.136719 C 0.761719 48.945312 0.761719 48.695312 0.695312 48.503906 L 1.644531 48.3125 C 1.710938 48.503906 1.710938 48.695312 1.773438 48.945312 Z M 81.238281 48.695312 L 80.289062 48.503906 C 80.355469 48.3125 80.355469 48.125 80.417969 47.871094 L 81.367188 48.058594 C 81.367188 48.3125 81.304688 48.503906 81.238281 48.695312 Z M 0.507812 47.238281 C 0.441406 47.046875 0.441406 46.792969 0.441406 46.605469 L 1.394531 46.476562 C 1.394531 46.667969 1.457031 46.921875 1.457031 47.109375 Z M 81.558594 46.792969 L 80.605469 46.667969 C 80.605469 46.476562 80.671875 46.222656 80.671875 46.035156 L 81.621094 46.160156 C 81.621094 46.414062 81.621094 46.605469 81.558594 46.792969 Z M 0.253906 45.335938 C 0.253906 45.148438 0.191406 44.894531 0.191406 44.703125 L 1.140625 44.640625 C 1.140625 44.832031 1.203125 45.085938 1.203125 45.273438 Z M 81.808594 44.894531 L 80.859375 44.832031 C 80.859375 44.640625 80.921875 44.386719 80.921875 44.199219 L 81.875 44.261719 C 81.875 44.515625 81.808594 44.703125 81.808594 44.894531 Z M 0.0625 43.4375 C 0.0625 43.246094 0.0625 42.996094 0 42.804688 L 0.949219 42.742188 C 0.949219 42.929688 0.949219 43.183594 1.011719 43.375 Z M 81.9375 42.996094 L 80.988281 42.929688 C 80.988281 42.742188 80.988281 42.488281 80.988281 42.296875 L 81.9375 42.296875 C 82 42.550781 81.9375 42.804688 81.9375 42.996094 Z M 0 41.476562 L 0 40.839844 L 0.949219 40.839844 L 0.949219 41.476562 Z M 82 41.09375 L 81.050781 41.09375 L 81.050781 41.03125 C 81.050781 40.839844 81.050781 40.652344 81.050781 40.460938 L 82 40.460938 C 82 40.652344 82 40.839844 82 41.03125 Z M 0.949219 39.636719 L 0 39.574219 C 0 39.386719 0 39.132812 0 38.941406 L 0.949219 39.003906 C 1.011719 39.195312 0.949219 39.386719 0.949219 39.636719 Z M 80.988281 39.195312 C 80.988281 39.003906 80.988281 38.753906 80.921875 38.5625 L 81.875 38.5 C 81.875 38.6875 81.875 38.941406 81.9375 39.132812 Z M 1.078125 37.738281 L 0.125 37.675781 C 0.125 37.484375 0.191406 37.234375 0.191406 37.042969 L 1.140625 37.105469 C 1.140625 37.296875 1.078125 37.550781 1.078125 37.738281 Z M 80.859375 37.296875 C 80.859375 37.105469 80.796875 36.851562 80.796875 36.664062 L 81.746094 36.535156 C 81.746094 36.726562 81.808594 36.980469 81.808594 37.167969 Z M 1.265625 35.902344 L 0.316406 35.777344 C 0.316406 35.585938 0.378906 35.332031 0.378906 35.144531 L 1.328125 35.269531 C 1.328125 35.460938 1.328125 35.648438 1.265625 35.902344 Z M 80.671875 35.460938 C 80.671875 35.269531 80.605469 35.015625 80.605469 34.828125 L 81.558594 34.699219 C 81.621094 34.890625 81.621094 35.144531 81.621094 35.332031 Z M 1.582031 34.003906 L 0.632812 33.875 C 0.695312 33.6875 0.695312 33.433594 0.761719 33.242188 L 1.710938 33.433594 C 1.644531 33.625 1.582031 33.8125 1.582031 34.003906 Z M 80.355469 33.625 C 80.289062 33.433594 80.289062 33.242188 80.226562 32.988281 L 81.175781 32.800781 C 81.238281 32.988281 81.238281 33.242188 81.304688 33.433594 Z M 1.898438 32.167969 L 0.949219 31.976562 C 1.011719 31.785156 1.011719 31.535156 1.078125 31.34375 L 2.027344 31.597656 C 2.027344 31.785156 1.964844 31.976562 1.898438 32.167969 Z M 79.972656 31.785156 C 79.910156 31.597656 79.847656 31.40625 79.847656 31.152344 L 80.796875 30.898438 C 80.859375 31.089844 80.921875 31.34375 80.921875 31.535156 Z M 2.40625 30.332031 L 1.519531 30.078125 C 1.582031 29.886719 1.644531 29.632812 1.710938 29.445312 L 2.53125 29.761719 C 2.46875 29.949219 2.46875 30.140625 2.40625 30.332031 Z M 79.53125 29.949219 C 79.46875 29.761719 79.402344 29.570312 79.339844 29.378906 L 80.226562 29.128906 C 80.289062 29.316406 80.355469 29.507812 80.417969 29.761719 Z M 2.914062 28.558594 L 2.027344 28.242188 C 2.089844 28.050781 2.152344 27.859375 2.214844 27.609375 L 3.101562 27.925781 C 3.039062 28.175781 2.976562 28.367188 2.914062 28.558594 Z M 78.960938 28.175781 C 78.898438 27.988281 78.832031 27.796875 78.769531 27.609375 L 79.65625 27.292969 C 79.71875 27.480469 79.785156 27.671875 79.847656 27.925781 Z M 3.546875 26.785156 L 2.660156 26.46875 C 2.722656 26.277344 2.785156 26.089844 2.914062 25.898438 L 3.800781 26.214844 C 3.671875 26.40625 3.609375 26.59375 3.546875 26.785156 Z M 78.328125 26.40625 C 78.265625 26.214844 78.199219 26.023438 78.074219 25.835938 L 78.960938 25.453125 C 79.023438 25.644531 79.152344 25.835938 79.214844 26.023438 Z M 4.242188 25.074219 L 3.355469 24.695312 C 3.417969 24.503906 3.546875 24.316406 3.609375 24.125 L 4.496094 24.503906 C 4.433594 24.695312 4.304688 24.886719 4.242188 25.074219 Z M 77.566406 24.632812 C 77.503906 24.441406 77.378906 24.25 77.3125 24.0625 L 78.199219 23.683594 C 78.265625 23.871094 78.390625 24.0625 78.453125 24.25 Z M 5.066406 23.367188 L 4.242188 22.921875 C 4.304688 22.730469 4.433594 22.542969 4.558594 22.351562 L 5.320312 22.796875 C 5.191406 22.984375 5.128906 23.175781 5.066406 23.367188 Z M 76.746094 22.984375 C 76.679688 22.796875 76.554688 22.605469 76.429688 22.414062 L 77.25 21.972656 C 77.378906 22.164062 77.441406 22.351562 77.566406 22.542969 Z M 5.890625 21.71875 L 5.066406 21.210938 C 5.191406 21.023438 5.253906 20.832031 5.382812 20.640625 L 6.207031 21.085938 C 6.078125 21.339844 6.015625 21.527344 5.890625 21.71875 Z M 75.859375 21.277344 C 75.730469 21.085938 75.667969 20.894531 75.542969 20.707031 L 76.363281 20.199219 C 76.492188 20.390625 76.554688 20.578125 76.679688 20.769531 Z M 6.839844 20.074219 L 6.015625 19.566406 C 6.140625 19.375 6.269531 19.1875 6.332031 18.996094 L 7.15625 19.503906 C 7.09375 19.691406 6.964844 19.882812 6.839844 20.074219 Z M 74.90625 19.691406 C 74.78125 19.503906 74.65625 19.3125 74.589844 19.1875 L 75.414062 18.679688 C 75.542969 18.871094 75.667969 19.058594 75.730469 19.25 Z M 7.851562 18.488281 L 7.09375 17.984375 C 7.21875 17.792969 7.34375 17.601562 7.472656 17.476562 L 8.230469 18.046875 C 8.105469 18.171875 7.976562 18.300781 7.851562 18.488281 Z M 73.894531 18.109375 C 73.769531 17.917969 73.640625 17.792969 73.515625 17.601562 L 74.273438 17.035156 C 74.402344 17.222656 74.527344 17.414062 74.65625 17.539062 Z M 8.929688 16.96875 L 8.167969 16.398438 C 8.296875 16.210938 8.421875 16.082031 8.546875 15.894531 L 9.308594 16.464844 C 9.179688 16.652344 9.054688 16.78125 8.929688 16.96875 Z M 72.753906 16.589844 C 72.628906 16.398438 72.5 16.273438 72.375 16.082031 L 73.136719 15.511719 C 73.261719 15.703125 73.386719 15.832031 73.515625 16.019531 Z M 10.132812 15.511719 L 9.371094 14.878906 C 9.5 14.691406 9.625 14.5625 9.816406 14.375 L 10.511719 15.007812 C 10.382812 15.195312 10.257812 15.324219 10.132812 15.511719 Z M 71.617188 15.132812 C 71.488281 14.945312 71.363281 14.816406 71.234375 14.628906 L 71.933594 13.992188 C 72.058594 14.183594 72.183594 14.308594 72.375 14.5 Z M 11.335938 14.058594 L 10.636719 13.425781 C 10.765625 13.296875 10.953125 13.105469 11.082031 12.980469 L 11.777344 13.613281 C 11.652344 13.804688 11.460938 13.929688 11.335938 14.058594 Z M 70.347656 13.742188 C 70.222656 13.613281 70.03125 13.425781 69.90625 13.296875 L 70.601562 12.664062 C 70.730469 12.789062 70.917969 12.980469 71.046875 13.105469 Z M 12.664062 12.726562 L 11.96875 12.03125 L 12.03125 12.03125 C 12.15625 11.902344 12.285156 11.777344 12.472656 11.585938 L 13.105469 12.285156 C 12.917969 12.410156 12.789062 12.539062 12.664062 12.726562 Z M 69.019531 12.410156 C 68.894531 12.285156 68.703125 12.09375 68.574219 11.96875 L 69.210938 11.269531 C 69.335938 11.398438 69.527344 11.585938 69.652344 11.714844 Z M 13.992188 11.398438 L 13.359375 10.699219 C 13.488281 10.574219 13.675781 10.382812 13.867188 10.257812 L 14.5 10.953125 C 14.308594 11.144531 14.121094 11.269531 13.992188 11.398438 Z M 67.691406 11.082031 C 67.5625 10.953125 67.371094 10.828125 67.246094 10.636719 L 67.878906 9.941406 C 68.070312 10.066406 68.195312 10.195312 68.386719 10.382812 Z M 15.386719 10.195312 L 14.753906 9.433594 C 14.945312 9.308594 15.070312 9.179688 15.261719 9.054688 L 15.832031 9.816406 C 15.703125 9.941406 15.578125 10.066406 15.386719 10.195312 Z M 66.234375 9.878906 C 66.042969 9.75 65.917969 9.625 65.726562 9.5 L 66.296875 8.738281 C 66.488281 8.863281 66.613281 8.992188 66.804688 9.117188 Z M 16.90625 8.992188 L 16.335938 8.230469 C 16.527344 8.105469 16.652344 7.976562 16.84375 7.851562 L 17.414062 8.613281 C 17.222656 8.738281 17.035156 8.863281 16.90625 8.992188 Z M 64.777344 8.738281 C 64.585938 8.613281 64.460938 8.484375 64.269531 8.359375 L 64.839844 7.597656 C 65.03125 7.726562 65.15625 7.851562 65.347656 7.976562 Z M 18.425781 7.914062 L 17.917969 7.15625 C 18.109375 7.027344 18.300781 6.902344 18.425781 6.773438 L 18.933594 7.597656 C 18.742188 7.660156 18.554688 7.789062 18.425781 7.914062 Z M 63.195312 7.660156 C 63.003906 7.535156 62.878906 7.410156 62.6875 7.34375 L 63.195312 6.523438 C 63.382812 6.648438 63.574219 6.773438 63.699219 6.902344 Z M 20.007812 6.902344 L 19.503906 6.078125 C 19.691406 5.953125 19.882812 5.824219 20.074219 5.761719 L 20.578125 6.585938 C 20.324219 6.648438 20.136719 6.773438 20.007812 6.902344 Z M 61.609375 6.648438 C 61.421875 6.523438 61.230469 6.457031 61.105469 6.332031 L 61.609375 5.507812 C 61.800781 5.636719 61.992188 5.699219 62.179688 5.824219 Z M 21.59375 5.953125 L 21.148438 5.128906 C 21.339844 5.003906 21.527344 4.9375 21.71875 4.8125 L 22.164062 5.636719 C 21.972656 5.761719 21.78125 5.824219 21.59375 5.953125 Z M 60.027344 5.761719 C 59.835938 5.636719 59.648438 5.570312 59.457031 5.445312 L 59.902344 4.621094 C 60.089844 4.75 60.28125 4.8125 60.472656 4.9375 Z M 23.238281 5.066406 L 22.796875 4.242188 C 22.984375 4.179688 23.175781 4.050781 23.367188 3.988281 L 23.746094 4.875 C 23.617188 4.875 23.429688 5.003906 23.238281 5.066406 Z M 58.316406 4.875 C 58.128906 4.8125 57.9375 4.6875 57.75 4.621094 L 58.128906 3.734375 C 58.316406 3.800781 58.507812 3.925781 58.699219 3.988281 Z M 24.949219 4.304688 L 24.566406 3.417969 C 24.757812 3.355469 24.949219 3.230469 25.136719 3.167969 L 25.519531 4.050781 C 25.328125 4.117188 25.136719 4.179688 24.949219 4.304688 Z M 56.609375 4.117188 C 56.417969 4.050781 56.230469 3.925781 56.039062 3.863281 L 56.417969 2.976562 C 56.609375 3.101562 56.796875 3.167969 56.988281 3.230469 Z M 26.722656 3.546875 L 26.40625 2.660156 C 26.59375 2.597656 26.785156 2.53125 27.039062 2.40625 L 27.355469 3.292969 C 27.101562 3.417969 26.910156 3.484375 26.722656 3.546875 Z M 54.898438 3.417969 C 54.707031 3.355469 54.519531 3.292969 54.328125 3.230469 L 54.644531 2.34375 C 54.835938 2.40625 55.027344 2.46875 55.277344 2.53125 Z M 28.496094 2.976562 L 28.175781 2.089844 C 28.367188 2.027344 28.558594 1.964844 28.8125 1.898438 L 29.0625 2.785156 C 28.875 2.785156 28.683594 2.914062 28.496094 2.976562 Z M 53.125 2.785156 C 52.9375 2.722656 52.746094 2.660156 52.554688 2.597656 L 52.808594 1.710938 C 53 1.773438 53.1875 1.835938 53.441406 1.898438 Z M 30.265625 2.40625 L 30.015625 1.519531 C 30.203125 1.457031 30.457031 1.394531 30.648438 1.328125 L 30.898438 2.28125 C 30.710938 2.28125 30.457031 2.34375 30.265625 2.40625 Z M 51.289062 2.28125 C 51.101562 2.214844 50.910156 2.152344 50.65625 2.152344 L 50.910156 1.203125 C 51.101562 1.265625 51.351562 1.328125 51.542969 1.394531 Z M 32.101562 1.964844 L 31.914062 1.011719 C 32.101562 0.949219 32.355469 0.949219 32.546875 0.886719 L 32.738281 1.835938 C 32.484375 1.835938 32.292969 1.898438 32.101562 1.964844 Z M 49.515625 1.835938 C 49.328125 1.773438 49.136719 1.773438 48.882812 1.710938 L 49.074219 0.761719 C 49.261719 0.824219 49.515625 0.824219 49.707031 0.886719 Z M 33.941406 1.582031 L 33.75 0.632812 C 33.941406 0.570312 34.191406 0.570312 34.382812 0.507812 L 34.507812 1.457031 C 34.382812 1.519531 34.128906 1.519531 33.941406 1.582031 Z M 47.617188 1.519531 C 47.425781 1.457031 47.171875 1.457031 46.984375 1.394531 L 47.109375 0.441406 C 47.300781 0.441406 47.554688 0.507812 47.742188 0.570312 Z M 35.777344 1.265625 L 35.648438 0.316406 C 35.839844 0.316406 36.09375 0.253906 36.28125 0.253906 L 36.410156 1.203125 C 36.21875 1.265625 36.03125 1.265625 35.777344 1.265625 Z M 45.78125 1.265625 C 45.589844 1.265625 45.335938 1.203125 45.148438 1.203125 L 45.273438 0.253906 C 45.464844 0.253906 45.71875 0.316406 45.90625 0.316406 Z M 37.675781 1.078125 L 37.613281 0.125 C 37.800781 0.125 38.054688 0.0625 38.246094 0.0625 L 38.308594 1.011719 C 38.054688 1.078125 37.867188 1.078125 37.675781 1.078125 Z M 43.945312 1.078125 C 43.753906 1.078125 43.5 1.078125 43.3125 1.011719 L 43.375 0.0625 C 43.566406 0.0625 43.816406 0.0625 44.007812 0.125 Z M 39.511719 0.949219 L 39.511719 0 C 39.703125 0 39.957031 0 40.144531 0 L 40.144531 0.949219 C 39.957031 0.949219 39.765625 0.949219 39.511719 0.949219 Z M 42.042969 0.949219 C 41.855469 0.949219 41.601562 0.949219 41.410156 0.949219 L 41.410156 0 C 41.601562 0 41.855469 0 42.042969 0 Z M 42.042969 0.949219 "/>
<path style=" stroke:none;fill-rule:nonzero;fill:rgb(13.72549%,12.156863%,12.54902%);fill-opacity:1;" d="M 40.96875 79.46875 C 30.710938 79.46875 21.023438 75.476562 13.742188 68.195312 C 6.523438 60.914062 2.53125 51.289062 2.53125 41.03125 C 2.53125 30.773438 6.523438 21.085938 13.804688 13.804688 C 21.085938 6.523438 30.710938 2.53125 40.96875 2.53125 C 51.226562 2.53125 60.914062 6.523438 68.195312 13.804688 C 83.203125 28.8125 83.203125 53.1875 68.195312 68.195312 C 60.914062 75.476562 51.289062 79.46875 40.96875 79.46875 Z M 40.96875 3.484375 C 30.964844 3.484375 21.527344 7.410156 14.4375 14.5 C 7.410156 21.527344 3.484375 30.964844 3.484375 41.03125 C 3.484375 51.035156 7.410156 60.472656 14.5 67.5625 C 21.59375 74.65625 30.964844 78.515625 40.96875 78.515625 C 50.972656 78.515625 60.40625 74.589844 67.5 67.5 C 82.125 52.871094 82.125 29.0625 67.5 14.4375 C 60.472656 7.410156 51.035156 3.484375 40.96875 3.484375 Z M 40.96875 3.484375 "/>
<path style=" stroke:none;fill-rule:nonzero;fill:rgb(100%,81.568627%,35.686275%);fill-opacity:1;" d="M 13.742188 2.660156 C 13.742188 3.535156 13.03125 4.242188 12.15625 4.242188 C 11.285156 4.242188 10.574219 3.535156 10.574219 2.660156 C 10.574219 1.785156 11.285156 1.078125 12.15625 1.078125 C 13.03125 1.078125 13.742188 1.785156 13.742188 2.660156 Z M 13.742188 2.660156 "/>
<path style=" stroke:none;fill-rule:nonzero;fill:rgb(51.764706%,85.882353%,100%);fill-opacity:1;" d="M 80.921875 10.828125 C 80.921875 11.703125 80.214844 12.410156 79.339844 12.410156 C 78.464844 12.410156 77.757812 11.703125 77.757812 10.828125 C 77.757812 9.953125 78.464844 9.246094 79.339844 9.246094 C 80.214844 9.246094 80.921875 9.953125 80.921875 10.828125 Z M 80.921875 10.828125 "/>
<path style=" stroke:none;fill-rule:nonzero;fill:rgb(100%,43.921569%,34.509804%);fill-opacity:1;" d="M 36.21875 17.351562 C 36.21875 18.222656 35.511719 18.933594 34.636719 18.933594 C 33.761719 18.933594 33.054688 18.222656 33.054688 17.351562 C 33.054688 16.476562 33.761719 15.765625 34.636719 15.765625 C 35.511719 15.765625 36.21875 16.476562 36.21875 17.351562 Z M 36.21875 17.351562 "/>
<path style=" stroke:none;fill-rule:nonzero;fill:rgb(100%,81.568627%,35.686275%);fill-opacity:1;" d="M 49.074219 67.5625 C 49.074219 68.4375 48.363281 69.144531 47.492188 69.144531 C 46.617188 69.144531 45.90625 68.4375 45.90625 67.5625 C 45.90625 66.6875 46.617188 65.980469 47.492188 65.980469 C 48.363281 65.980469 49.074219 66.6875 49.074219 67.5625 Z M 49.074219 67.5625 "/>
<path style=" stroke:none;fill-rule:nonzero;fill:rgb(80.784314%,83.529412%,87.843137%);fill-opacity:1;" d="M 4.558594 70.730469 C 4.558594 71.601562 3.851562 72.3125 2.976562 72.3125 C 2.101562 72.3125 1.394531 71.601562 1.394531 70.730469 C 1.394531 69.855469 2.101562 69.144531 2.976562 69.144531 C 3.851562 69.144531 4.558594 69.855469 4.558594 70.730469 Z M 4.558594 70.730469 "/>
<path style=" stroke:none;fill-rule:nonzero;fill:rgb(13.72549%,12.156863%,12.54902%);fill-opacity:1;" d="M 20.324219 55.53125 C 18.871094 55.53125 17.730469 54.390625 17.730469 52.9375 C 17.730469 51.480469 18.871094 50.339844 20.324219 50.339844 C 21.78125 50.339844 22.921875 51.480469 22.921875 52.9375 C 22.921875 54.390625 21.78125 55.53125 20.324219 55.53125 Z M 20.324219 51.289062 C 19.4375 51.289062 18.679688 52.050781 18.679688 52.9375 C 18.679688 53.824219 19.4375 54.582031 20.324219 54.582031 C 21.210938 54.582031 21.972656 53.824219 21.972656 52.9375 C 21.972656 52.050781 21.210938 51.289062 20.324219 51.289062 Z M 20.324219 51.289062 "/>
</g>
</svg>
