<?xml version="1.0" encoding="utf-8"?>
<!-- Generator: Adobe Illustrator 18.0.0, SVG Export Plug-In . SVG Version: 6.00 Build 0)  -->
<!DOCTYPE svg PUBLIC "-//W3C//DTD SVG 1.1//EN" "http://www.w3.org/Graphics/SVG/1.1/DTD/svg11.dtd">
<svg version="1.1" id="Layer_1" xmlns="http://www.w3.org/2000/svg" xmlns:xlink="http://www.w3.org/1999/xlink" x="0px" y="0px"
	 viewBox="0 0 129.5 129.5" enable-background="new 0 0 129.5 129.5" xml:space="preserve">
<g>
	<g>
		<g>
			<path fill="#FFFFFF" d="M111.1,85.3H18c-1,0-1.8-0.8-1.8-1.8V22.2c0-1,0.8-1.8,1.8-1.8h93.2c1,0,1.8,0.8,1.8,1.8v61.3
				C113,84.4,112.2,85.3,111.1,85.3z"/>
		</g>
		<g>
			<g>
				<polygon fill="#E6E9EE" points="97.3,20.3 109.4,20.3 97.3,68.7 				"/>
			</g>
			<g>
				<polygon fill="#E6E9EE" points="31.8,20.3 19.7,20.3 31.8,68.7 				"/>
			</g>
		</g>
		<g>
			<path fill="#231F20" d="M10.2,115.2h-4c-0.4,0-0.8-0.3-0.8-0.8c0-0.4,0.3-0.8,0.8-0.8h4c0.4,0,0.8,0.3,0.8,0.8
				C10.9,114.8,10.6,115.2,10.2,115.2z"/>
		</g>
		<g>
			<path fill="#231F20" d="M14.4,115.2h-1.3c-0.4,0-0.8-0.3-0.8-0.8c0-0.4,0.3-0.8,0.8-0.8h1.3c0.4,0,0.8,0.3,0.8,0.8
				C15.1,114.8,14.8,115.2,14.4,115.2z"/>
		</g>
		<g>
			<path fill="#231F20" d="M13.2,118.1h-1.6c-0.4,0-0.8-0.3-0.8-0.8s0.3-0.8,0.8-0.8h1.6c0.4,0,0.8,0.3,0.8,0.8
				S13.7,118.1,13.2,118.1z"/>
		</g>
		<g>
			<path fill="#231F20" d="M8.8,118.1H8.3c-0.4,0-0.8-0.3-0.8-0.8s0.3-0.8,0.8-0.8h0.5c0.4,0,0.8,0.3,0.8,0.8S9.2,118.1,8.8,118.1z"
				/>
		</g>
		<g>
			<path fill="#231F20" d="M14.4,13.9c-2.6,0-4.8-2.1-4.8-4.8s2.1-4.8,4.8-4.8s4.8,2.1,4.8,4.8S17,13.9,14.4,13.9z M14.4,5.9
				c-1.8,0-3.3,1.5-3.3,3.3c0,1.8,1.5,3.3,3.3,3.3s3.3-1.5,3.3-3.3C17.6,7.3,16.2,5.9,14.4,5.9z"/>
		</g>
		<g>
			<path fill="#231F20" d="M123.2,83.2c-2.1,0-3.8-1.7-3.8-3.8c0-2.1,1.7-3.8,3.8-3.8c2.1,0,3.8,1.7,3.8,3.8
				C127,81.5,125.3,83.2,123.2,83.2z M123.2,77.1c-1.3,0-2.3,1-2.3,2.3c0,1.3,1,2.3,2.3,2.3c1.3,0,2.3-1,2.3-2.3
				C125.5,78.1,124.4,77.1,123.2,77.1z"/>
		</g>
		<g>
			<path fill="#231F20" d="M6.5,37.8c-0.2,0-0.4-0.1-0.5-0.2c-0.3-0.3-0.3-0.8,0-1.1l1-1c0.3-0.3,0.8-0.3,1.1,0
				c0.3,0.3,0.3,0.8,0,1.1l-1,1C6.9,37.8,6.7,37.8,6.5,37.8z"/>
		</g>
		<g>
			<path fill="#231F20" d="M3.3,41.1c-0.2,0-0.4-0.1-0.5-0.2c-0.3-0.3-0.3-0.8,0-1.1l1-1c0.3-0.3,0.8-0.3,1.1,0
				c0.3,0.3,0.3,0.8,0,1.1l-1,1C3.7,41,3.5,41.1,3.3,41.1z"/>
		</g>
		<g>
			<path fill="#231F20" d="M7.5,41.1c-0.2,0-0.4-0.1-0.5-0.2l-1-1c-0.3-0.3-0.3-0.8,0-1.1c0.3-0.3,0.8-0.3,1.1,0l1,1
				c0.3,0.3,0.3,0.8,0,1.1C7.9,41,7.7,41.1,7.5,41.1z"/>
		</g>
		<g>
			<path fill="#231F20" d="M4.3,37.8c-0.2,0-0.4-0.1-0.5-0.2l-1-1c-0.3-0.3-0.3-0.8,0-1.1c0.3-0.3,0.8-0.3,1.1,0l1,1
				c0.3,0.3,0.3,0.8,0,1.1C4.7,37.8,4.5,37.8,4.3,37.8z"/>
		</g>
		<g>
			<path fill="#231F20" d="M121.9,43.1c-0.2,0-0.4-0.1-0.5-0.2c-0.3-0.3-0.3-0.8,0-1.1l1-1c0.3-0.3,0.8-0.3,1.1,0
				c0.3,0.3,0.3,0.8,0,1.1l-1,1C122.3,43,122.1,43.1,121.9,43.1z"/>
		</g>
		<g>
			<path fill="#231F20" d="M118.7,46.3c-0.2,0-0.4-0.1-0.5-0.2c-0.3-0.3-0.3-0.8,0-1.1l1-1c0.3-0.3,0.8-0.3,1.1,0
				c0.3,0.3,0.3,0.8,0,1.1l-1,1C119,46.3,118.9,46.3,118.7,46.3z"/>
		</g>
		<g>
			<path fill="#231F20" d="M122.9,46.3c-0.2,0-0.4-0.1-0.5-0.2l-1-1c-0.3-0.3-0.3-0.8,0-1.1c0.3-0.3,0.8-0.3,1.1,0l1,1
				c0.3,0.3,0.3,0.8,0,1.1C123.3,46.3,123.1,46.3,122.9,46.3z"/>
		</g>
		<g>
			<path fill="#231F20" d="M119.7,43.1c-0.2,0-0.4-0.1-0.5-0.2l-1-1c-0.3-0.3-0.3-0.8,0-1.1c0.3-0.3,0.8-0.3,1.1,0l1,1
				c0.3,0.3,0.3,0.8,0,1.1C120.1,43,119.9,43.1,119.7,43.1z"/>
		</g>
		<g>
			<path fill="#FFFFFF" d="M97.3,73.5V2c0-0.7-0.6-1.3-1.3-1.3H33.1c-0.7,0-1.3,0.6-1.3,1.3v71.5H97.3z"/>
		</g>
		<g>
			<path fill="#54C0EB" d="M97.3,2v6.4H49.7l-1.3-3.8H38.1l-1.3,3.8h-5.1V2c0-0.7,0.6-1.3,1.3-1.3H96C96.7,0.7,97.3,1.3,97.3,2z"/>
		</g>
		<g>
			<polygon fill="#CED5E0" points="62.4,8.4 48.2,8.4 49.6,4.6 61,4.6 			"/>
		</g>
		<g>
			<circle fill="#FF7058" cx="93.8" cy="4.8" r="1.9"/>
		</g>
		<g>
			<circle fill="#FFD05B" cx="88.5" cy="4.8" r="1.9"/>
		</g>
		<g>
			<circle fill="#E6E9EE" cx="83.3" cy="4.8" r="1.9"/>
		</g>
		<polygon fill="#E6E9EE" points="74.2,91.3 72.1,85.3 57,85.3 54.9,91.3 		"/>
		<g>
			<path fill="#231F20" d="M91.8,50h-5.3v-5.3h5.3V50z M88,48.5h2.3v-2.3H88V48.5z"/>
		</g>
		<g>
			<rect x="88.3" y="33.7" fill="#231F20" width="1.5" height="11.8"/>
		</g>
		<g>
			<path fill="#231F20" d="M89.1,34.4c-1.2,0-2.3-1-2.3-2.3c0-1.2,1-2.3,2.3-2.3c1.2,0,2.3,1,2.3,2.3C91.3,33.4,90.3,34.4,89.1,34.4
				z M89.1,31.4c-0.4,0-0.8,0.3-0.8,0.8c0,0.4,0.3,0.8,0.8,0.8c0.4,0,0.8-0.3,0.8-0.8C89.8,31.7,89.5,31.4,89.1,31.4z"/>
		</g>
		<g>
			<rect x="88.3" y="49.2" fill="#231F20" width="1.5" height="11.8"/>
		</g>
		<g>
			<path fill="#231F20" d="M89.1,64.8c-1.2,0-2.3-1-2.3-2.3c0-1.2,1-2.3,2.3-2.3c1.2,0,2.3,1,2.3,2.3C91.3,63.8,90.3,64.8,89.1,64.8
				z M89.1,61.8c-0.4,0-0.8,0.3-0.8,0.8s0.3,0.8,0.8,0.8c0.4,0,0.8-0.3,0.8-0.8S89.5,61.8,89.1,61.8z"/>
		</g>
		<g>
			<path fill="#FFD05B" d="M72.5,61.5c-1.3,0-2.5-0.2-3.6-0.5c3.4-3.5,5.5-8.3,5.5-13.6c0-5.3-2.1-10.1-5.5-13.6
				c1.2-0.3,2.4-0.5,3.6-0.5c7.8,0,14.1,6.3,14.1,14.1C86.6,55.1,80.3,61.5,72.5,61.5z"/>
		</g>
		<g>
			<path fill="#84DBFF" d="M54.8,61.5c-7.8,0-14.1-6.3-14.1-14.1c0-7.8,6.3-14.1,14.1-14.1c1.3,0,2.5,0.2,3.6,0.5
				c-3.4,3.5-5.5,8.3-5.5,13.6c0,5.3,2.1,10.1,5.5,13.6C57.2,61.3,56,61.5,54.8,61.5z"/>
		</g>
		<g>
			<path fill="#FF7058" d="M58.4,47.4c0,4.4,2,8.4,5.2,10.9c3.2-2.6,5.2-6.5,5.2-10.9c0-4.4-2-8.4-5.2-10.9
				C60.5,39,58.4,42.9,58.4,47.4z"/>
		</g>
		<g>
			<path fill="#231F20" d="M72.5,64.8c-0.7,0-1.3,0-2-0.1l0.2-1.5c0.6,0.1,1.2,0.1,1.8,0.1V64.8z M74.2,64.7l-0.1-1.5
				c0.6-0.1,1.2-0.2,1.8-0.3l0.3,1.5C75.5,64.6,74.9,64.7,74.2,64.7z M68.6,64.4c-0.6-0.1-1.3-0.3-1.9-0.5l0.5-1.4
				c0.6,0.2,1.1,0.4,1.7,0.5L68.6,64.4z M78.1,63.9l-0.5-1.4c0.6-0.2,1.1-0.4,1.7-0.7l0.6,1.4C79.3,63.5,78.7,63.7,78.1,63.9z
				 M64.9,63.1c-0.6-0.3-1.2-0.6-1.7-1l0.8-1.3c0.5,0.3,1,0.6,1.6,0.9L64.9,63.1z M81.6,62.3L80.8,61c0.5-0.3,1-0.7,1.5-1l0.9,1.2
				C82.7,61.5,82.2,61.9,81.6,62.3z M61.6,61c-0.5-0.4-1-0.8-1.5-1.3l1.1-1.1c0.4,0.4,0.9,0.8,1.3,1.2L61.6,61z M84.7,59.9l-1-1.1
				c0.4-0.4,0.8-0.9,1.2-1.3l1.2,1C85.6,58.9,85.2,59.4,84.7,59.9z M58.9,58.2c-0.4-0.5-0.8-1-1.1-1.6l1.3-0.8c0.3,0.5,0.7,1,1,1.5
				L58.9,58.2z M87.2,56.8L85.9,56c0.3-0.5,0.6-1,0.9-1.6l1.3,0.7C87.9,55.7,87.5,56.3,87.2,56.8z M56.8,54.9
				c-0.3-0.6-0.5-1.2-0.7-1.8l1.4-0.5c0.2,0.6,0.4,1.1,0.7,1.7L56.8,54.9z M88.9,53.3l-1.4-0.5c0.2-0.6,0.4-1.1,0.5-1.7l1.5,0.3
				C89.3,52.1,89.2,52.7,88.9,53.3z M55.5,51.2c-0.1-0.6-0.3-1.3-0.3-1.9l1.5-0.2c0.1,0.6,0.2,1.2,0.3,1.8L55.5,51.2z M89.1,50h-1.7
				v-1.5h1.7c0.2,0,0.4,0.1,0.6,0.3c0.1,0.2,0.2,0.4,0.2,0.6l0,0.2l-0.7-0.1V50z M88,47.5h-1.5v-1.9H88V47.5z M56.6,47.3l-1.5,0
				c0-0.7,0-1.3,0.1-2l1.5,0.2C56.6,46.1,56.6,46.7,56.6,47.3z M89.1,46.2H89v-0.7l-0.6,0.1c-0.1-0.5-0.1-1.1-0.3-1.6l1.5-0.3
				c0.1,0.6,0.2,1.2,0.3,1.8c0,0.2,0,0.4-0.2,0.6C89.5,46.1,89.3,46.2,89.1,46.2z M57,43.8l-1.5-0.3c0.1-0.6,0.3-1.3,0.5-1.9
				l1.4,0.5C57.3,42.6,57.1,43.2,57,43.8z M87.6,42.2c-0.2-0.6-0.4-1.1-0.7-1.7l1.4-0.6c0.3,0.6,0.5,1.2,0.7,1.8L87.6,42.2z
				 M58.2,40.4l-1.3-0.7c0.3-0.6,0.6-1.2,1-1.7l1.3,0.8C58.7,39.3,58.4,39.8,58.2,40.4z M86.1,39c-0.3-0.5-0.7-1-1-1.5l1.2-0.9
				c0.4,0.5,0.8,1.1,1.1,1.6L86.1,39z M60.1,37.4l-1.2-0.9c0.4-0.5,0.8-1,1.3-1.5l1.1,1.1C60.9,36.4,60.5,36.9,60.1,37.4z
				 M83.9,36.2c-0.4-0.4-0.9-0.8-1.3-1.2l0.9-1.2c0.5,0.4,1,0.9,1.5,1.3L83.9,36.2z M62.6,34.8l-0.9-1.2c0.5-0.4,1.1-0.8,1.6-1.1
				l0.8,1.3C63.6,34.1,63.1,34.5,62.6,34.8z M81.1,33.9c-0.5-0.3-1-0.6-1.6-0.9l0.7-1.3c0.6,0.3,1.2,0.6,1.7,1L81.1,33.9z
				 M65.7,32.9L65,31.6c0.6-0.3,1.2-0.5,1.8-0.7l0.5,1.4C66.8,32.5,66.2,32.7,65.7,32.9z M77.9,32.3c-0.6-0.2-1.1-0.4-1.7-0.5
				l0.3-1.5c0.6,0.1,1.3,0.3,1.9,0.6L77.9,32.3z M69.1,31.8l-0.3-1.5c0.6-0.1,1.3-0.2,1.9-0.3l0.2,1.5
				C70.2,31.6,69.6,31.6,69.1,31.8z M74.4,31.5c-0.6-0.1-1.2-0.1-1.8-0.1l0-1.5c0.7,0,1.3,0,2,0.1L74.4,31.5z"/>
		</g>
		<g>
			<path fill="#231F20" d="M54.8,64.8c-9.6,0-17.5-7.8-17.5-17.5c0-9.6,7.8-17.5,17.5-17.5c9.6,0,17.5,7.8,17.5,17.5
				C72.2,57,64.4,64.8,54.8,64.8z M54.8,31.4c-8.8,0-16,7.2-16,16s7.2,16,16,16s16-7.2,16-16S63.6,31.4,54.8,31.4z"/>
		</g>
		<g>
			<path fill="#E6E9EE" d="M111.2,128.7L111.2,128.7c-4.9,0-8.9-4-8.9-8.9v-10.5c0-4.9,4-8.9,8.9-8.9l0,0c4.9,0,8.9,4,8.9,8.9v10.5
				C120.1,124.8,116.1,128.7,111.2,128.7z"/>
			<path fill="#231F20" d="M111.2,129.5c-5.3,0-9.6-4.3-9.6-9.6v-10.5c0-5.3,4.3-9.6,9.6-9.6c5.3,0,9.6,4.3,9.6,9.6v10.5
				C120.8,125.2,116.5,129.5,111.2,129.5z M111.2,101.3c-4.5,0-8.1,3.6-8.1,8.1v10.5c0,4.5,3.6,8.1,8.1,8.1c4.5,0,8.1-3.6,8.1-8.1
				v-10.5C119.3,104.9,115.7,101.3,111.2,101.3z"/>
		</g>
		<path fill="#E6E9EE" d="M86.2,128.7h-63c-0.9,0-1.7-0.8-1.7-1.7v-21.5c0-0.9,0.8-1.7,1.7-1.7h63c0.9,0,1.7,0.8,1.7,1.7V127
			C87.9,128,87.1,128.7,86.2,128.7z"/>
		<g>
			<g>
				<rect x="24.9" y="106.4" fill="#CED5E0" width="5" height="3.6"/>
			</g>
			<g>
				<rect x="32.7" y="106.4" fill="#CED5E0" width="5" height="3.6"/>
			</g>
			<g>
				<rect x="40.5" y="106.4" fill="#CED5E0" width="5" height="3.6"/>
			</g>
			<g>
				<rect x="48.3" y="106.4" fill="#CED5E0" width="5" height="3.6"/>
			</g>
			<g>
				<rect x="56.1" y="106.4" fill="#CED5E0" width="5" height="3.6"/>
			</g>
			<g>
				<rect x="63.9" y="106.4" fill="#CED5E0" width="5" height="3.6"/>
			</g>
			<g>
				<rect x="71.7" y="106.4" fill="#CED5E0" width="5" height="3.6"/>
			</g>
			<g>
				<rect x="79.5" y="106.4" fill="#CED5E0" width="5" height="3.6"/>
			</g>
		</g>
		<g>
			<g>
				<rect x="24.9" y="111.8" fill="#CED5E0" width="5" height="3.6"/>
			</g>
			<g>
				<rect x="32.7" y="111.8" fill="#CED5E0" width="5" height="3.6"/>
			</g>
			<g>
				<rect x="40.5" y="111.8" fill="#CED5E0" width="5" height="3.6"/>
			</g>
			<g>
				<rect x="48.3" y="111.8" fill="#CED5E0" width="5" height="3.6"/>
			</g>
			<g>
				<rect x="56.1" y="111.8" fill="#CED5E0" width="5" height="3.6"/>
			</g>
			<g>
				<rect x="63.9" y="111.8" fill="#CED5E0" width="5" height="3.6"/>
			</g>
			<g>
				<rect x="71.7" y="111.8" fill="#CED5E0" width="5" height="3.6"/>
			</g>
			<g>
				<rect x="79.5" y="111.8" fill="#CED5E0" width="5" height="3.6"/>
			</g>
		</g>
		<g>
			<g>
				<rect x="24.9" y="117.2" fill="#CED5E0" width="5" height="3.6"/>
			</g>
			<g>
				<rect x="32.7" y="117.2" fill="#CED5E0" width="5" height="3.6"/>
			</g>
			<g>
				<rect x="40.5" y="117.2" fill="#CED5E0" width="5" height="3.6"/>
			</g>
			<g>
				<rect x="48.3" y="117.2" fill="#CED5E0" width="5" height="3.6"/>
			</g>
			<g>
				<rect x="56.1" y="117.2" fill="#CED5E0" width="5" height="3.6"/>
			</g>
			<g>
				<rect x="63.9" y="117.2" fill="#CED5E0" width="5" height="3.6"/>
			</g>
			<g>
				<rect x="71.7" y="117.2" fill="#CED5E0" width="5" height="3.6"/>
			</g>
			<g>
				<rect x="79.5" y="117.2" fill="#CED5E0" width="5" height="3.6"/>
			</g>
		</g>
		<g>
			<g>
				<rect x="24.9" y="122.6" fill="#CED5E0" width="5" height="3.6"/>
			</g>
			<g>
				<rect x="32.7" y="122.6" fill="#CED5E0" width="28.4" height="3.6"/>
			</g>
			<g>
				<rect x="63.9" y="122.6" fill="#CED5E0" width="5" height="3.6"/>
			</g>
			<g>
				<rect x="71.7" y="122.6" fill="#CED5E0" width="5" height="3.6"/>
			</g>
			<g>
				<rect x="79.5" y="122.6" fill="#CED5E0" width="5" height="3.6"/>
			</g>
		</g>
		<g>
			<circle fill="#CED5E0" cx="111.2" cy="107.4" r="2.6"/>
		</g>
		<path fill="#E6E9EE" d="M113,73.5v9.9c0,1-0.8,1.8-1.8,1.8H18c-1,0-1.8-0.8-1.8-1.8v-9.9H113z"/>
		<g>
			<polygon fill="#E6E9EE" points="97.3,8.4 97.3,16.8 31.8,16.8 31.8,8.4 36.9,8.4 38.1,4.6 48.5,4.6 49.7,8.4 			"/>
		</g>
		<g>
			<rect x="37.8" y="10.4" fill="#FFFFFF" width="51.7" height="4.6"/>
		</g>
		<g>
			<path fill="#324A5E" d="M39.3,11.6h0.3v0.9h0c0-0.1,0.1-0.1,0.2-0.2c0.1,0,0.2-0.1,0.3-0.1c0.2,0,0.5,0.1,0.5,0.6v0.9h-0.3v-0.8
				c0-0.2-0.1-0.4-0.3-0.4c-0.2,0-0.3,0.1-0.4,0.3c0,0,0,0.1,0,0.1v0.9h-0.3V11.6z"/>
			<path fill="#324A5E" d="M41.3,11.8v0.4h0.4v0.2h-0.4v0.8c0,0.2,0.1,0.3,0.2,0.3c0.1,0,0.1,0,0.2,0l0,0.2c-0.1,0-0.1,0-0.2,0
				c-0.1,0-0.2,0-0.3-0.1c-0.1-0.1-0.1-0.2-0.1-0.4v-0.8h-0.2v-0.2h0.2v-0.4L41.3,11.8z"/>
			<path fill="#324A5E" d="M42.3,11.8v0.4h0.4v0.2h-0.4v0.8c0,0.2,0.1,0.3,0.2,0.3c0.1,0,0.1,0,0.2,0l0,0.2c-0.1,0-0.1,0-0.2,0
				c-0.1,0-0.2,0-0.3-0.1c-0.1-0.1-0.1-0.2-0.1-0.4v-0.8h-0.2v-0.2h0.2v-0.4L42.3,11.8z"/>
			<path fill="#324A5E" d="M43,12.7c0-0.2,0-0.3,0-0.5h0.2l0,0.3h0c0.1-0.2,0.3-0.3,0.5-0.3c0.4,0,0.6,0.3,0.6,0.7
				c0,0.5-0.3,0.8-0.7,0.8c-0.2,0-0.4-0.1-0.5-0.2h0v0.8H43V12.7z M43.3,13.1c0,0,0,0.1,0,0.1c0,0.2,0.2,0.3,0.4,0.3
				c0.3,0,0.4-0.2,0.4-0.6c0-0.3-0.2-0.5-0.4-0.5c-0.2,0-0.4,0.1-0.4,0.3c0,0,0,0.1,0,0.1V13.1z"/>
			<path fill="#324A5E" d="M44.7,12.5c0-0.1,0.1-0.2,0.2-0.2c0.1,0,0.2,0.1,0.2,0.2c0,0.1-0.1,0.2-0.2,0.2
				C44.7,12.7,44.7,12.6,44.7,12.5z M44.7,13.6c0-0.1,0.1-0.2,0.2-0.2c0.1,0,0.2,0.1,0.2,0.2c0,0.1-0.1,0.2-0.2,0.2
				C44.7,13.8,44.7,13.7,44.7,13.6z"/>
			<path fill="#324A5E" d="M45.1,13.9l0.8-2.2h0.2l-0.9,2.2H45.1z"/>
			<path fill="#324A5E" d="M46.2,13.9l0.8-2.2h0.2l-0.9,2.2H46.2z"/>
			<path fill="#324A5E" d="M48.2,12.3l0.2,0.7c0,0.2,0.1,0.3,0.1,0.5h0c0-0.1,0.1-0.3,0.1-0.5l0.2-0.8h0.2l0.2,0.7
				c0.1,0.2,0.1,0.3,0.1,0.5h0c0-0.1,0.1-0.3,0.1-0.5l0.2-0.7H50l-0.5,1.5h-0.2L49.1,13c-0.1-0.2-0.1-0.3-0.1-0.5h0
				c0,0.2-0.1,0.3-0.1,0.5l-0.2,0.7h-0.2l-0.4-1.5H48.2z"/>
			<path fill="#324A5E" d="M50.5,12.3l0.2,0.7c0,0.2,0.1,0.3,0.1,0.5h0c0-0.1,0.1-0.3,0.1-0.5l0.2-0.8h0.2l0.2,0.7
				c0.1,0.2,0.1,0.3,0.1,0.5h0c0-0.1,0.1-0.3,0.1-0.5l0.2-0.7h0.3l-0.5,1.5h-0.2L51.4,13c-0.1-0.2-0.1-0.3-0.1-0.5h0
				c0,0.2-0.1,0.3-0.1,0.5l-0.2,0.7h-0.2l-0.4-1.5H50.5z"/>
			<path fill="#324A5E" d="M52.7,12.3l0.2,0.7c0,0.2,0.1,0.3,0.1,0.5h0c0-0.1,0.1-0.3,0.1-0.5l0.2-0.8h0.2l0.2,0.7
				c0.1,0.2,0.1,0.3,0.1,0.5h0c0-0.1,0.1-0.3,0.1-0.5l0.2-0.7h0.3l-0.5,1.5h-0.2L53.6,13c-0.1-0.2-0.1-0.3-0.1-0.5h0
				c0,0.2-0.1,0.3-0.1,0.5l-0.2,0.7h-0.2l-0.4-1.5H52.7z"/>
			<path fill="#324A5E" d="M54.7,13.6c0-0.1,0.1-0.2,0.2-0.2c0.1,0,0.2,0.1,0.2,0.2c0,0.1-0.1,0.2-0.2,0.2
				C54.7,13.8,54.7,13.7,54.7,13.6z"/>
		</g>
		<g>
			<path fill="#231F20" d="M86.2,103.1H73.6v-0.6c0-0.2,0-0.4,0-0.6l-1.5,0.2c0,0.1,0,0.2,0,0.3v0.6h-49c-1.4,0-2.5,1.1-2.5,2.5V127
				c0,1.4,1.1,2.5,2.5,2.5h63c1.4,0,2.5-1.1,2.5-2.5v-21.5C88.6,104.2,87.5,103.1,86.2,103.1z M87.1,127c0,0.5-0.4,1-1,1h-63
				c-0.5,0-1-0.4-1-1v-21.5c0-0.5,0.4-1,1-1h63c0.5,0,1,0.4,1,1V127z"/>
			<rect x="40.4" y="98.6" fill="#231F20" width="1.9" height="1.5"/>
			<rect x="36.7" y="98.6" fill="#231F20" width="1.9" height="1.5"/>
			<rect x="35.5" y="92.1" fill="#231F20" width="1.9" height="1.5"/>
			<rect x="39.2" y="92.1" fill="#231F20" width="1.9" height="1.5"/>
			<path fill="#231F20" d="M42.8,92l0.4,1.5c0.8-0.2,1.4-0.6,2-1.2l-1.1-1C43.7,91.7,43.3,91.9,42.8,92z"/>
			<rect x="32.9" y="98.6" fill="#231F20" width="1.9" height="1.5"/>
			<path fill="#231F20" d="M27,99.6l0.7-1.3c-0.4-0.2-0.8-0.6-1-1l-1.3,0.7C25.8,98.6,26.3,99.2,27,99.6z"/>
			<path fill="#231F20" d="M25,95.7l1.5,0.2c0-0.5,0.2-0.9,0.5-1.3l-1.2-1C25.4,94.2,25.1,94.9,25,95.7z"/>
			<rect x="31.7" y="92.1" fill="#231F20" width="1.9" height="1.5"/>
			<rect x="44.2" y="98.6" fill="#231F20" width="1.9" height="1.5"/>
			<rect x="29.2" y="98.6" fill="#231F20" width="1.9" height="1.5"/>
			<path fill="#231F20" d="M27.8,92.3l0.4,1.4c0.2-0.1,0.5-0.1,0.7-0.1h0.9v-1.5h-0.9C28.5,92.1,28.1,92.2,27.8,92.3z"/>
			<rect x="66.7" y="98.6" fill="#231F20" width="1.9" height="1.5"/>
			<rect x="63" y="98.6" fill="#231F20" width="1.9" height="1.5"/>
			<path fill="#231F20" d="M46.2,89.6v-1.3h-1.5v1.3c0,0.1,0,0.3,0,0.4l1.5,0.3C46.2,90.1,46.2,89.9,46.2,89.6z"/>
			<path fill="#231F20" d="M70.7,98.7l-0.4,1.4c0.5,0.1,0.9,0.4,1.2,0.8l1.1-1C72.1,99.3,71.4,98.9,70.7,98.7z"/>
			<rect x="48" y="98.6" fill="#231F20" width="1.9" height="1.5"/>
			<rect x="59.2" y="98.6" fill="#231F20" width="1.9" height="1.5"/>
			<rect x="51.7" y="98.6" fill="#231F20" width="1.9" height="1.5"/>
			<rect x="55.5" y="98.6" fill="#231F20" width="1.9" height="1.5"/>
			<rect x="112.2" y="53.3" fill="#231F20" width="1.5" height="5.5"/>
			<path fill="#231F20" d="M111.7,19.6H98V2c0-1.1-0.9-2-2-2H33.1c-1.1,0-2,0.9-2,2v17.5H17.4c-1.1,0-2,0.9-2,2v61.8
				c0,1.4,1.2,2.6,2.6,2.6h26.7v0.4h1.5V86H56l-1.6,4.6h-3.7v1.5h27.8v-1.5h-3.7L73.1,86h38c1.4,0,2.6-1.2,2.6-2.6v-20h-1.5v9.4H98
				V21.1h13.7c0.3,0,0.5,0.2,0.5,0.5v26.5h1.5V21.6C113.7,20.5,112.8,19.6,111.7,19.6z M16.9,21.6c0-0.3,0.2-0.5,0.5-0.5h13.7v51.7
				H16.9V21.6z M56,90.6l1.6-4.6h14l1.6,4.6H56z M112.2,83.4c0,0.6-0.5,1.1-1.1,1.1H18c-0.6,0-1.1-0.5-1.1-1.1v-9.1h95.4V83.4z
				 M32.6,72.8V2c0-0.3,0.2-0.5,0.5-0.5H96c0.3,0,0.5,0.2,0.5,0.5v70.8H32.6z"/>
		</g>
		<g>
			<circle fill="#CED5E0" cx="64.5" cy="79.4" r="2.5"/>
		</g>
		<g>
			<circle fill="#84DBFF" cx="119.8" cy="6.7" r="2.4"/>
		</g>
		<g>
			<circle fill="#FFD05B" cx="16.9" cy="94.4" r="3.1"/>
		</g>
		<g>
			<polygon fill="#FFFFFF" points="43.1,23.5 40.1,29.9 46.8,41.7 53.6,29.9 50.6,23.5 			"/>
			<path fill="#231F20" d="M46.8,42.5c-0.3,0-0.5-0.1-0.7-0.4l-6.7-11.8c-0.1-0.2-0.1-0.5,0-0.7l3-6.4c0.1-0.3,0.4-0.4,0.7-0.4h7.4
				c0.3,0,0.6,0.2,0.7,0.4l3,6.4c0.1,0.2,0.1,0.5,0,0.7l-6.7,11.8C47.4,42.3,47.1,42.5,46.8,42.5z M41,29.9l5.9,10.3l5.9-10.3
				l-2.6-5.6h-6.5L41,29.9z"/>
		</g>
		<g>
			<circle fill="#FFFFFF" cx="46.9" cy="30.6" r="1.6"/>
			<path fill="#231F20" d="M46.9,33c-1.3,0-2.3-1-2.3-2.3c0-1.3,1-2.3,2.3-2.3c1.3,0,2.3,1,2.3,2.3C49.2,31.9,48.1,33,46.9,33z
				 M46.9,29.8c-0.5,0-0.8,0.4-0.8,0.8c0,0.5,0.4,0.8,0.8,0.8c0.5,0,0.8-0.4,0.8-0.8C47.7,30.2,47.3,29.8,46.9,29.8z"/>
		</g>
		<g>
			<rect x="46.1" y="32.2" fill="#231F20" width="1.5" height="9.5"/>
		</g>
		<g>
			<path fill="#231F20" d="M52.1,24.3H41.6c-0.4,0-0.8-0.3-0.8-0.8v-2.8h1.5v2.1h9v-2.1h1.5v2.8C52.9,24,52.6,24.3,52.1,24.3z"/>
		</g>
	</g>
</g>
</svg>
