<?xml version="1.0" encoding="utf-8"?>
<!-- Generator: Adobe Illustrator 18.0.0, SVG Export Plug-In . SVG Version: 6.00 Build 0)  -->
<!DOCTYPE svg PUBLIC "-//W3C//DTD SVG 1.1//EN" "http://www.w3.org/Graphics/SVG/1.1/DTD/svg11.dtd">
<svg version="1.1" id="Layer_1" xmlns="http://www.w3.org/2000/svg" xmlns:xlink="http://www.w3.org/1999/xlink" x="0px" y="0px"
	 viewBox="0 0 129.5 129.5" enable-background="new 0 0 129.5 129.5" xml:space="preserve">
<g>
	<g>
		<g>
			<g>
				<path fill="#231F20" d="M15.3,7.1c-0.2,0-0.4-0.1-0.5-0.2c-0.3-0.3-0.3-0.8,0-1.1l1.3-1.3c0.3-0.3,0.8-0.3,1.1,0
					c0.3,0.3,0.3,0.8,0,1.1l-1.3,1.3C15.7,7,15.5,7.1,15.3,7.1z"/>
			</g>
			<g>
				<path fill="#231F20" d="M11.2,11.2c-0.2,0-0.4-0.1-0.5-0.2c-0.3-0.3-0.3-0.8,0-1.1L12,8.6c0.3-0.3,0.8-0.3,1.1,0
					c0.3,0.3,0.3,0.8,0,1.1l-1.3,1.3C11.6,11.1,11.4,11.2,11.2,11.2z"/>
			</g>
			<g>
				<path fill="#231F20" d="M16.6,11.2c-0.2,0-0.4-0.1-0.5-0.2l-1.3-1.3c-0.3-0.3-0.3-0.8,0-1.1c0.3-0.3,0.8-0.3,1.1,0l1.3,1.3
					c0.3,0.3,0.3,0.8,0,1.1C17,11.1,16.8,11.2,16.6,11.2z"/>
			</g>
			<g>
				<path fill="#231F20" d="M12.5,7.1c-0.2,0-0.4-0.1-0.5-0.2l-1.3-1.3c-0.3-0.3-0.3-0.8,0-1.1c0.3-0.3,0.8-0.3,1.1,0l1.3,1.3
					c0.3,0.3,0.3,0.8,0,1.1C12.9,7,12.7,7.1,12.5,7.1z"/>
			</g>
		</g>
		<g>
			<g>
				<path fill="#231F20" d="M36.4,85.3c-0.2,0-0.4-0.1-0.5-0.2c-0.3-0.3-0.3-0.8,0-1.1l1.3-1.3c0.3-0.3,0.8-0.3,1.1,0
					c0.3,0.3,0.3,0.8,0,1.1l-1.3,1.3C36.8,85.3,36.6,85.3,36.4,85.3z"/>
			</g>
			<g>
				<path fill="#231F20" d="M32.3,89.4c-0.2,0-0.4-0.1-0.5-0.2c-0.3-0.3-0.3-0.8,0-1.1l1.3-1.3c0.3-0.3,0.8-0.3,1.1,0
					c0.3,0.3,0.3,0.8,0,1.1l-1.3,1.3C32.7,89.3,32.5,89.4,32.3,89.4z"/>
			</g>
			<g>
				<path fill="#231F20" d="M37.7,89.4c-0.2,0-0.4-0.1-0.5-0.2l-1.3-1.3c-0.3-0.3-0.3-0.8,0-1.1c0.3-0.3,0.8-0.3,1.1,0l1.3,1.3
					c0.3,0.3,0.3,0.8,0,1.1C38.1,89.3,37.9,89.4,37.7,89.4z"/>
			</g>
			<g>
				<path fill="#231F20" d="M33.6,85.3c-0.2,0-0.4-0.1-0.5-0.2l-1.3-1.3c-0.3-0.3-0.3-0.8,0-1.1c0.3-0.3,0.8-0.3,1.1,0l1.3,1.3
					c0.3,0.3,0.3,0.8,0,1.1C34,85.3,33.8,85.3,33.6,85.3z"/>
			</g>
		</g>
		<g>
			<g>
				<path fill="#231F20" d="M119.1,9.8c-0.2,0-0.4-0.1-0.5-0.2c-0.3-0.3-0.3-0.8,0-1.1l1.3-1.3c0.3-0.3,0.8-0.3,1.1,0
					c0.3,0.3,0.3,0.8,0,1.1l-1.3,1.3C119.5,9.7,119.3,9.8,119.1,9.8z"/>
			</g>
			<g>
				<path fill="#231F20" d="M115,13.8c-0.2,0-0.4-0.1-0.5-0.2c-0.3-0.3-0.3-0.8,0-1.1l1.3-1.3c0.3-0.3,0.8-0.3,1.1,0
					c0.3,0.3,0.3,0.8,0,1.1l-1.3,1.3C115.4,13.8,115.2,13.8,115,13.8z"/>
			</g>
			<g>
				<path fill="#231F20" d="M120.4,13.8c-0.2,0-0.4-0.1-0.5-0.2l-1.3-1.3c-0.3-0.3-0.3-0.8,0-1.1c0.3-0.3,0.8-0.3,1.1,0l1.3,1.3
					c0.3,0.3,0.3,0.8,0,1.1C120.7,13.8,120.6,13.8,120.4,13.8z"/>
			</g>
			<g>
				<path fill="#231F20" d="M116.3,9.8c-0.2,0-0.4-0.1-0.5-0.2l-1.3-1.3c-0.3-0.3-0.3-0.8,0-1.1c0.3-0.3,0.8-0.3,1.1,0l1.3,1.3
					c0.3,0.3,0.3,0.8,0,1.1C116.7,9.7,116.5,9.8,116.3,9.8z"/>
			</g>
		</g>
		<g>
			<g>
				<path fill="#231F20" d="M66.3,87.9h-8.2c-0.4,0-0.8-0.3-0.8-0.8c0-0.4,0.3-0.8,0.8-0.8h8.2c0.4,0,0.8,0.3,0.8,0.8
					C67,87.6,66.7,87.9,66.3,87.9z"/>
			</g>
			<g>
				<path fill="#231F20" d="M69.5,90.9h-4c-0.4,0-0.8-0.3-0.8-0.8c0-0.4,0.3-0.8,0.8-0.8h4c0.4,0,0.8,0.3,0.8,0.8
					C70.2,90.5,69.9,90.9,69.5,90.9z"/>
			</g>
			<g>
				<path fill="#231F20" d="M73.8,87.9H70c-0.4,0-0.8-0.3-0.8-0.8c0-0.4,0.3-0.8,0.8-0.8h3.8c0.4,0,0.8,0.3,0.8,0.8
					C74.5,87.6,74.2,87.9,73.8,87.9z"/>
			</g>
			<g>
				<path fill="#231F20" d="M62.6,90.9h-0.8c-0.4,0-0.8-0.3-0.8-0.8c0-0.4,0.3-0.8,0.8-0.8h0.8c0.4,0,0.8,0.3,0.8,0.8
					C63.3,90.5,63,90.9,62.6,90.9z"/>
			</g>
		</g>
		<g>
			<circle fill="#84DBFF" cx="11.9" cy="118.2" r="2.4"/>
		</g>
		<g>
			<circle fill="#FF7058" cx="8.8" cy="22.9" r="2.4"/>
		</g>
		<g>
			<circle fill="#FFD05B" cx="120.5" cy="29.9" r="2.4"/>
		</g>
		<g>
			<circle fill="#CED5E0" cx="104" cy="102.1" r="2.4"/>
		</g>
		<path fill="#231F20" d="M94.6,46.1c0-3.3-4.2-5.9-10.4-7.6c0.3-0.5,0.6-1,0.8-1.5c2.7-5.2,3.1-9.2,1.1-11.1
			c-0.8-0.8-2-1.2-3.4-1.2c-2.4,0-5.7,1.2-9.3,3.2c-1.7-6.1-4.3-10.4-7.6-10.4c-3.3,0-5.9,4.2-7.6,10.4c-3.6-2-6.8-3.2-9.3-3.2
			c-1.5,0-2.6,0.4-3.4,1.2c-2,1.9-1.5,5.9,1.1,11.1c0.3,0.5,0.5,1,0.8,1.5c-6.1,1.7-10.4,4.3-10.4,7.6c0,3.3,4.2,5.9,10.4,7.6
			c-0.3,0.5-0.6,1-0.8,1.5c-2.7,5.2-3.1,9.2-1.1,11.1c0.8,0.8,2,1.2,3.4,1.2c2.4,0,5.7-1.2,9.3-3.2c1.7,6.1,4.3,10.4,7.6,10.4
			c3.3,0,5.9-4.2,7.6-10.4c3.6,2,6.8,3.2,9.3,3.2c1.5,0,2.6-0.4,3.4-1.2c2-1.9,1.5-5.9-1.1-11.1c-0.3-0.5-0.5-1-0.8-1.5
			C90.3,52,94.6,49.4,94.6,46.1z M82.7,26.1c1.1,0,1.9,0.3,2.4,0.8c1.4,1.4,0.9,4.9-1.4,9.4c-0.3,0.6-0.6,1.2-1,1.8
			c-2.3-0.6-4.9-1-7.5-1.3c-0.3-2.7-0.7-5.2-1.3-7.5C77.4,27.3,80.5,26.1,82.7,26.1z M74.2,46.1c0,1.2,0,2.3-0.1,3.4
			c-0.8,0.8-1.5,1.6-2.4,2.5c-0.8,0.8-1.6,1.6-2.5,2.4c-1.1,0-2.2,0.1-3.4,0.1c-1.2,0-2.3,0-3.4-0.1c-0.8-0.8-1.6-1.5-2.5-2.4
			c-0.8-0.8-1.6-1.6-2.4-2.5c0-1.1-0.1-2.2-0.1-3.4c0-1.2,0-2.3,0.1-3.4c0.8-0.8,1.5-1.6,2.4-2.5c0.8-0.8,1.6-1.6,2.5-2.4
			c1.1,0,2.2-0.1,3.4-0.1c1.2,0,2.3,0,3.4,0.1c0.8,0.8,1.6,1.5,2.5,2.4c0.8,0.8,1.6,1.6,2.4,2.5C74.2,43.8,74.2,44.9,74.2,46.1z
			 M72.8,39.2c-0.4-0.4-0.8-0.8-1.2-1.2c0.8,0,1.5,0.1,2.2,0.2c0.1,0.7,0.1,1.5,0.2,2.2C73.6,40,73.2,39.6,72.8,39.2z M69.9,36.4
			c-0.9-0.9-1.9-1.7-2.8-2.4c1.9-1.5,3.7-2.8,5.4-3.9c0.5,2,0.8,4.2,1.1,6.6C72.4,36.6,71.2,36.5,69.9,36.4z M67.6,36.3
			c-0.6,0-1.1,0-1.7,0c-0.6,0-1.1,0-1.7,0c0.6-0.5,1.1-0.9,1.7-1.4C66.5,35.4,67,35.9,67.6,36.3z M61.9,36.4
			c-1.3,0.1-2.5,0.2-3.7,0.3c0.3-2.4,0.7-4.6,1.1-6.6c1.8,1.1,3.6,2.4,5.4,3.9C63.8,34.8,62.9,35.6,61.9,36.4z M60.2,38
			c-0.4,0.4-0.8,0.8-1.2,1.2c-0.4,0.4-0.8,0.8-1.2,1.2c0-0.8,0.1-1.5,0.2-2.2C58.8,38.1,59.5,38.1,60.2,38z M56.3,42.1
			c-0.8,0.9-1.7,1.9-2.4,2.8c-1.5-1.8-2.8-3.7-3.9-5.4c2-0.5,4.2-0.8,6.6-1.1C56.4,39.6,56.3,40.8,56.3,42.1z M56.2,44.4
			c0,0.6,0,1.1,0,1.7c0,0.6,0,1.1,0,1.7c-0.5-0.6-1-1.1-1.4-1.7C55.2,45.5,55.7,45,56.2,44.4z M56.3,50.1c0.1,1.3,0.2,2.5,0.3,3.7
			c-2.4-0.3-4.6-0.7-6.6-1.1c1.1-1.8,2.4-3.6,3.9-5.4C54.6,48.2,55.4,49.1,56.3,50.1z M57.9,51.8c0.4,0.4,0.8,0.8,1.2,1.2
			c0.4,0.4,0.8,0.8,1.2,1.2c-0.8,0-1.5-0.1-2.2-0.2C58,53.3,57.9,52.5,57.9,51.8z M61.9,55.7c0.9,0.9,1.9,1.7,2.8,2.4
			c-1.9,1.5-3.7,2.8-5.4,3.9c-0.5-2-0.8-4.2-1.1-6.6C59.4,55.6,60.7,55.7,61.9,55.7z M64.3,55.8c0.6,0,1.1,0,1.7,0
			c0.6,0,1.1,0,1.7,0c-0.6,0.5-1.1,0.9-1.7,1.4C65.4,56.8,64.8,56.3,64.3,55.8z M69.9,55.7c1.3-0.1,2.5-0.2,3.7-0.3
			c-0.3,2.4-0.7,4.6-1.1,6.6c-1.8-1.1-3.6-2.4-5.4-3.9C68.1,57.4,69,56.6,69.9,55.7z M71.6,54.2c0.4-0.4,0.8-0.8,1.2-1.2
			c0.4-0.4,0.8-0.8,1.2-1.2c0,0.8-0.1,1.5-0.2,2.2C73.1,54,72.4,54.1,71.6,54.2z M75.6,50.1c0.8-0.9,1.7-1.9,2.4-2.8
			c1.5,1.8,2.8,3.7,3.9,5.4c-2,0.5-4.2,0.8-6.6,1.1C75.4,52.6,75.5,51.3,75.6,50.1z M75.7,47.7c0-0.6,0-1.1,0-1.7c0-0.6,0-1.1,0-1.7
			c0.5,0.6,1,1.1,1.4,1.7C76.6,46.6,76.2,47.2,75.7,47.7z M75.6,42.1c-0.1-1.3-0.2-2.5-0.3-3.7c2.4,0.3,4.6,0.7,6.6,1.1
			c-1.1,1.8-2.4,3.6-3.9,5.4C77.3,44,76.4,43,75.6,42.1z M65.9,19c2.3,0,4.6,3.6,6.3,9.6c-2,1.2-4.1,2.7-6.3,4.4
			c-2.1-1.7-4.2-3.2-6.3-4.4C61.3,22.5,63.7,19,65.9,19z M48.2,36.3c-2.3-4.5-2.8-8-1.4-9.4c0.5-0.5,1.3-0.8,2.4-0.8
			c2.2,0,5.4,1.2,8.9,3.2c-0.6,2.3-1,4.9-1.3,7.5c-2.7,0.3-5.2,0.7-7.5,1.3C48.8,37.5,48.5,36.9,48.2,36.3z M38.8,46.1
			c0-2.3,3.6-4.6,9.6-6.3c1.2,2,2.7,4.1,4.4,6.3c-1.7,2.1-3.2,4.2-4.4,6.3C42.4,50.7,38.8,48.4,38.8,46.1z M49.1,66.1
			c-1.1,0-1.9-0.3-2.4-0.8c-1.4-1.4-0.9-4.9,1.4-9.4c0.3-0.6,0.6-1.2,1-1.8c2.3,0.6,4.9,1,7.5,1.3c0.3,2.7,0.7,5.2,1.3,7.5
			C54.5,64.9,51.4,66.1,49.1,66.1z M65.9,73.2c-2.3,0-4.6-3.6-6.3-9.6c2-1.2,4.1-2.7,6.3-4.4c2.1,1.7,4.2,3.2,6.3,4.4
			C70.6,69.7,68.2,73.2,65.9,73.2z M83.7,55.9c2.3,4.5,2.8,8,1.4,9.4c-0.5,0.5-1.3,0.8-2.4,0.8c-2.2,0-5.4-1.2-8.9-3.2
			c0.6-2.3,1-4.9,1.3-7.5c2.7-0.3,5.2-0.7,7.5-1.3C83.1,54.6,83.4,55.3,83.7,55.9z M83.4,52.3c-1.2-2-2.7-4.1-4.4-6.3
			c1.7-2.1,3.2-4.2,4.4-6.3c6.1,1.6,9.6,4,9.6,6.3C93.1,48.4,89.5,50.7,83.4,52.3z"/>
		<g>
			<path fill="#FF7058" d="M114,90.7v-7.2h12v7.2c0,1.2-1,2.3-2.3,2.3h-7.5C115,93,114,92,114,90.7z"/>
		</g>
		<path fill="#231F20" d="M128,80.8h-1.8v-8.7h-1.5v8.7h-9.6v-8.7h-1.5v8.7H112c-0.4,0-0.8,0.3-0.8,0.8v9.2c0,2.8,2.2,5,5,5h3.5
			v24.8c0,4.1-3.4,7.5-7.5,7.5H75.3c-1.2,0-2.3-1-2.3-2.3c0-1.2,1-2.3,2.3-2.3h18c2.3,0,4.1-1.9,4.1-4.1c0-2.3-1.9-4.1-4.1-4.1H56.9
			c-2.6,0-4.7-2.1-4.7-4.7c0-2.6,2.1-4.7,4.7-4.7h29.3c1.9,0,3.8-0.8,5.1-2.2c1.4-1.4,2.1-3.2,2-5.2l-0.3-7.8l7.7-9.5c0,0,0,0,0,0
			c8.2-9,12.8-20.6,12.8-32.7c0-5.4-0.9-10.6-2.6-15.7C104.3,13.1,85.9,0,65.2,0C38.6,0,16.9,21.7,16.9,48.3c0,0.8,0,1.7,0.1,2.7
			L0.9,71.3c-0.2,0.2-0.2,0.5-0.1,0.7c0.1,0.2,0.3,0.4,0.5,0.5l14.4,3.9l1.8,29.6c0,0.4,0.3,0.7,0.7,0.7l19.6,0.5l-0.7,21.5l1.5,0
			l0.7-22.3c0-0.2-0.1-0.4-0.2-0.5c-0.1-0.1-0.3-0.2-0.5-0.2l-19.7-0.5l-1.8-29.5c0-0.3-0.2-0.6-0.6-0.7L2.8,71.3l15.5-19.6
			c0.1-0.1,0.2-0.3,0.2-0.5c-0.1-1.1-0.1-2-0.1-2.9c0-25.8,21-46.8,46.8-46.8c20,0,37.8,12.7,44.3,31.7c1.7,4.9,2.5,10,2.5,15.2
			c0,11.8-4.4,23.1-12.4,31.8c0,0-0.1,0.1-0.1,0.1l-7.8,9.7c-0.1,0.1-0.2,0.3-0.2,0.5l0.3,8.1c0.1,1.5-0.5,3-1.6,4.1
			c-1.1,1.1-2.5,1.7-4,1.7H56.9c-3.4,0-6.2,2.8-6.2,6.2s2.8,6.2,6.2,6.2h36.5c1.4,0,2.6,1.2,2.6,2.6c0,1.4-1.2,2.6-2.6,2.6h-18
			c-2.1,0-3.8,1.7-3.8,3.8s1.7,3.8,3.8,3.8h36.9c5,0,9-4,9-9V95.7h2.6c2.8,0,5-2.2,5-5v-9.2C128.8,81.1,128.4,80.8,128,80.8z
			 M127.3,90.7c0,1.9-1.6,3.5-3.5,3.5h-7.6c-1.9,0-3.5-1.6-3.5-3.5v-8.4h14.6V90.7z"/>
		<g>
			<circle fill="#FFFFFF" cx="120" cy="88.3" r="2.3"/>
			<path fill="#231F20" d="M120,91.3c-1.7,0-3.1-1.4-3.1-3.1c0-1.7,1.4-3.1,3.1-3.1c1.7,0,3.1,1.4,3.1,3.1
				C123,90,121.7,91.3,120,91.3z M120,86.7c-0.9,0-1.6,0.7-1.6,1.6c0,0.9,0.7,1.6,1.6,1.6c0.9,0,1.6-0.7,1.6-1.6
				C121.5,87.4,120.8,86.7,120,86.7z"/>
		</g>
	</g>
</g>
</svg>
