<?xml version="1.0" encoding="utf-8"?>
<!-- Generator: Adobe Illustrator 18.0.0, SVG Export Plug-In . SVG Version: 6.00 Build 0)  -->
<!DOCTYPE svg PUBLIC "-//W3C//DTD SVG 1.1//EN" "http://www.w3.org/Graphics/SVG/1.1/DTD/svg11.dtd">
<svg version="1.1" id="Layer_1" xmlns="http://www.w3.org/2000/svg" xmlns:xlink="http://www.w3.org/1999/xlink" x="0px" y="0px"
	 viewBox="0 0 129.5 129.5" enable-background="new 0 0 129.5 129.5" xml:space="preserve">
<g>
	<g>
		<g>
			<path fill="#231F20" d="M13.1,8.1c-0.2,0-0.4-0.1-0.5-0.2c-0.3-0.3-0.3-0.8,0-1.1l1.3-1.3c0.3-0.3,0.8-0.3,1.1,0
				c0.3,0.3,0.3,0.8,0,1.1l-1.3,1.3C13.5,8,13.3,8.1,13.1,8.1z"/>
		</g>
		<g>
			<path fill="#231F20" d="M9.1,12.1c-0.2,0-0.4-0.1-0.5-0.2c-0.3-0.3-0.3-0.8,0-1.1l1.3-1.3c0.3-0.3,0.8-0.3,1.1,0
				c0.3,0.3,0.3,0.8,0,1.1l-1.3,1.3C9.4,12,9.3,12.1,9.1,12.1z"/>
		</g>
		<g>
			<path fill="#231F20" d="M14.3,12.1c-0.2,0-0.4-0.1-0.5-0.2l-1.3-1.3c-0.3-0.3-0.3-0.8,0-1.1c0.3-0.3,0.8-0.3,1.1,0l1.3,1.3
				c0.3,0.3,0.3,0.8,0,1.1C14.7,12,14.5,12.1,14.3,12.1z"/>
		</g>
		<g>
			<path fill="#231F20" d="M10.3,8.1C10.2,8.1,10,8,9.8,7.9L8.5,6.6c-0.3-0.3-0.3-0.8,0-1.1c0.3-0.3,0.8-0.3,1.1,0l1.3,1.3
				c0.3,0.3,0.3,0.8,0,1.1C10.7,8,10.5,8.1,10.3,8.1z"/>
		</g>
		<g>
			<path fill="#231F20" d="M121.8,6.7c-0.2,0-0.4-0.1-0.5-0.2c-0.3-0.3-0.3-0.8,0-1.1l1.3-1.3c0.3-0.3,0.8-0.3,1.1,0
				c0.3,0.3,0.3,0.8,0,1.1l-1.3,1.3C122.2,6.6,122,6.7,121.8,6.7z"/>
		</g>
		<g>
			<path fill="#231F20" d="M117.8,10.7c-0.2,0-0.4-0.1-0.5-0.2c-0.3-0.3-0.3-0.8,0-1.1l1.3-1.3c0.3-0.3,0.8-0.3,1.1,0
				c0.3,0.3,0.3,0.8,0,1.1l-1.3,1.3C118.2,10.7,118,10.7,117.8,10.7z"/>
		</g>
		<g>
			<path fill="#231F20" d="M123.1,10.7c-0.2,0-0.4-0.1-0.5-0.2l-1.3-1.3c-0.3-0.3-0.3-0.8,0-1.1c0.3-0.3,0.8-0.3,1.1,0l1.3,1.3
				c0.3,0.3,0.3,0.8,0,1.1C123.5,10.7,123.3,10.7,123.1,10.7z"/>
		</g>
		<g>
			<path fill="#231F20" d="M119.1,6.7c-0.2,0-0.4-0.1-0.5-0.2l-1.3-1.3c-0.3-0.3-0.3-0.8,0-1.1s0.8-0.3,1.1,0l1.3,1.3
				c0.3,0.3,0.3,0.8,0,1.1C119.5,6.6,119.3,6.7,119.1,6.7z"/>
		</g>
		<g>
			<path fill="#231F20" d="M29,117.8c-0.2,0-0.4-0.1-0.5-0.2c-0.3-0.3-0.3-0.8,0-1.1l1.3-1.3c0.3-0.3,0.8-0.3,1.1,0
				c0.3,0.3,0.3,0.8,0,1.1l-1.3,1.3C29.4,117.8,29.2,117.8,29,117.8z"/>
		</g>
		<g>
			<path fill="#231F20" d="M25,121.8c-0.2,0-0.4-0.1-0.5-0.2c-0.3-0.3-0.3-0.8,0-1.1l1.3-1.3c0.3-0.3,0.8-0.3,1.1,0
				c0.3,0.3,0.3,0.8,0,1.1l-1.3,1.3C25.4,121.8,25.2,121.8,25,121.8z"/>
		</g>
		<g>
			<path fill="#231F20" d="M30.3,121.8c-0.2,0-0.4-0.1-0.5-0.2l-1.3-1.3c-0.3-0.3-0.3-0.8,0-1.1s0.8-0.3,1.1,0l1.3,1.3
				c0.3,0.3,0.3,0.8,0,1.1C30.7,121.8,30.5,121.8,30.3,121.8z"/>
		</g>
		<g>
			<path fill="#231F20" d="M26.3,117.8c-0.2,0-0.4-0.1-0.5-0.2l-1.3-1.3c-0.3-0.3-0.3-0.8,0-1.1c0.3-0.3,0.8-0.3,1.1,0l1.3,1.3
				c0.3,0.3,0.3,0.8,0,1.1C26.7,117.8,26.5,117.8,26.3,117.8z"/>
		</g>
		<g>
			<path fill="#231F20" d="M62.4,24.9h-8c-0.4,0-0.8-0.3-0.8-0.8s0.3-0.8,0.8-0.8h8c0.4,0,0.8,0.3,0.8,0.8S62.8,24.9,62.4,24.9z"/>
		</g>
		<g>
			<path fill="#231F20" d="M65.6,27.8h-3.9c-0.4,0-0.8-0.3-0.8-0.8c0-0.4,0.3-0.8,0.8-0.8h3.9c0.4,0,0.8,0.3,0.8,0.8
				C66.3,27.5,66,27.8,65.6,27.8z"/>
		</g>
		<g>
			<path fill="#231F20" d="M69.8,24.9h-3.8c-0.4,0-0.8-0.3-0.8-0.8s0.3-0.8,0.8-0.8h3.8c0.4,0,0.8,0.3,0.8,0.8S70.2,24.9,69.8,24.9z
				"/>
		</g>
		<g>
			<path fill="#231F20" d="M58.8,27.8H58c-0.4,0-0.8-0.3-0.8-0.8c0-0.4,0.3-0.8,0.8-0.8h0.8c0.4,0,0.8,0.3,0.8,0.8
				C59.5,27.5,59.2,27.8,58.8,27.8z"/>
		</g>
		<g>
			<circle fill="#FF7058" cx="31.8" cy="32.5" r="2.4"/>
		</g>
		<g>
			<circle fill="#FFD05B" cx="120.4" cy="21.7" r="2.4"/>
		</g>
		<g>
			<circle fill="#E6E9EE" cx="103.4" cy="58.1" r="1.8"/>
		</g>
		<g>
			<circle fill="#E6E9EE" cx="112.8" cy="119.8" r="4.2"/>
		</g>
		<g>
			<circle fill="#84DBFF" cx="7.4" cy="19.3" r="2.4"/>
		</g>
		<path fill="#FFD05B" d="M86.1,52.5C84.6,51.6,82.9,51,81,51h-6.2v-5.5c0-3.1,2.5-5.6,5.6-5.6c1.5,0,3,0.6,4,1.7c1,1,1.7,2.4,1.7,4
			V52.5z"/>
		<path fill="#FFD05B" d="M69.2,65.6c-1.5,0-3-0.6-4-1.7c-1-1-1.7-2.4-1.7-4V45.8c0-3.2,2.6-6,5.8-5.9c1.5,0,2.8,0.7,3.8,1.7
			c1,1,1.7,2.4,1.7,4V51h-7.3c0,4.7,3,8.7,7.2,10.3C74.1,63.7,71.8,65.6,69.2,65.6z"/>
		<path fill="#FFD05B" d="M52.3,60V45.5c0-3.1-2.5-5.6-5.6-5.6c-3.1,0-5.6,2.5-5.6,5.6V60c0,3.1,2.5,5.6,5.6,5.6h0.1
			C49.7,65.6,52.3,63.1,52.3,60z"/>
		<path fill="#FFD05B" d="M63.5,60V45.5c0-3.1-2.5-5.6-5.6-5.6c-3.1,0-5.6,2.5-5.6,5.6l0,14.5c0,3.1,2.5,5.6,5.6,5.6h0.1
			C61,65.6,63.5,63.1,63.5,60z"/>
		<g>
			<path fill="#231F20" d="M74.6,75c0-0.4-0.3-0.8-0.8-0.8c-6.9,0-12.4,5.6-12.4,12.4c0,0.4,0.3,0.8,0.8,0.8c0.4,0,0.8-0.3,0.8-0.8
				c0-6,4.9-10.9,10.9-10.9C74.2,75.7,74.6,75.4,74.6,75z"/>
			<path fill="#231F20" d="M88.2,53.3c-0.4-0.4-0.9-0.8-1.4-1.2v-6.6c0-1.7-0.7-3.3-1.9-4.5c-1.2-1.2-2.8-1.9-4.5-1.9
				c-2.4,0-4.6,1.4-5.6,3.4c-0.3-0.6-0.7-1.1-1.1-1.5c-1.2-1.2-2.7-1.8-4.3-1.9l-0.2,0c-2.4,0-4.5,1.4-5.6,3.5
				c-1.1-2.1-3.2-3.5-5.7-3.5c-2.4,0-4.6,1.4-5.6,3.4c-1.1-2-3.2-3.4-5.6-3.4c-3.5,0-6.4,2.9-6.4,6.4V51v9v29c0,0.2,0.1,0.4,0.2,0.5
				L44,93v35.7c0,0.4,0.3,0.8,0.8,0.8s0.8-0.3,0.8-0.8v-36c0-0.2-0.1-0.4-0.2-0.5l-3.5-3.5V64.1c1.2,1.4,2.9,2.3,4.8,2.3h0.1
				c2.4,0,4.5-1.4,5.6-3.4c1.1,2,3.2,3.4,5.6,3.4h0.1c2.4,0,4.5-1.4,5.6-3.4c0.3,0.5,0.7,1,1.1,1.5c1.2,1.2,2.8,1.9,4.5,1.9
				c2.7,0,5-1.7,6-4.1c0.8,0.2,1.6,0.4,2.5,0.4v2.8c0,0.4,0.3,0.8,0.8,0.8c0.4,0,0.8-0.3,0.8-0.8v-2.8h1.2c0.4,0,0.8-0.3,0.8-0.8
				c0-0.4-0.3-0.8-0.8-0.8h-2c-5.3,0-9.7-4.1-10.1-9.4H81c2.3,0,4.5,0.9,6.2,2.6c1.7,1.7,2.6,3.9,2.6,6.2v12.6
				c0,1.7-0.7,3.3-1.9,4.5L74.5,91h-3.7c-0.4,0-0.8,0.3-0.8,0.8c0,0.4,0.3,0.8,0.8,0.8h3.3v35.3c0,0.4,0.3,0.8,0.8,0.8
				s0.8-0.3,0.8-0.8V92.1L89,78.7c1.5-1.5,2.3-3.4,2.3-5.5V60.6C91.3,57.8,90.2,55.2,88.2,53.3z M51.5,60c0,2.7-2.2,4.8-4.8,4.8
				h-0.1c-2.7,0-4.8-2.2-4.8-4.8v-9v-5.5c0-2.7,2.2-4.9,4.9-4.9c2.7,0,4.9,2.2,4.9,4.9V60z M62.8,60c0,2.7-2.2,4.8-4.8,4.8h-0.1
				c-2.7,0-4.8-2.2-4.8-4.8V45.5c0-2.7,2.2-4.9,4.9-4.9c2.7,0,4.9,2.2,4.9,4.9V60z M74,50.3h-6.6c-0.4,0-0.8,0.3-0.8,0.8
				c0,4.8,2.9,8.9,7,10.7l0,0c-0.7,1.9-2.5,3.1-4.6,3.1c-1.3,0-2.5-0.5-3.4-1.4c-0.9-0.9-1.4-2.1-1.4-3.4V45.8
				c0-2.8,2.2-5.2,4.9-5.2l0.1,0c1.2,0,2.4,0.5,3.3,1.4c0.9,0.9,1.4,2.2,1.4,3.5V50.3z M81,50.3h-5.4v-4.8c0-2.7,2.2-4.9,4.9-4.9
				c1.3,0,2.5,0.5,3.4,1.4c0.9,0.9,1.4,2.2,1.4,3.5v5.8l0,0C84,50.6,82.5,50.3,81,50.3z"/>
			<rect x="57.5" y="91" fill="#231F20" width="1" height="1.5"/>
			<rect x="60.5" y="91" fill="#231F20" width="1" height="1.5"/>
			<rect x="63.5" y="91" fill="#231F20" width="1" height="1.5"/>
			<rect x="66.5" y="91" fill="#231F20" width="1" height="1.5"/>
		</g>
		<g>
			<line fill="#FFFFFF" x1="91.9" y1="89.7" x2="91.9" y2="110.8"/>
			<rect x="91.4" y="89.7" fill="#231F20" width="1" height="21"/>
		</g>
		<g>
			<line fill="#FFFFFF" x1="86.3" y1="101.9" x2="86.3" y2="118"/>
			<rect x="85.8" y="101.9" fill="#231F20" width="1" height="16.1"/>
		</g>
		<g>
			<path fill="#231F20" d="M89.9,123.5h-1.5v-0.2h1.5V123.5z M89.9,121.3h-1.5v-1h1.5V121.3z M89.9,118.3h-1.5v-1h1.5V118.3z
				 M89.9,115.3h-1.5v-1h1.5V115.3z M89.9,112.3h-1.5v-1h1.5V112.3z M89.9,109.3h-1.5v-1h1.5V109.3z M89.9,106.3h-1.5v-1h1.5V106.3z
				 M89.9,103.3h-1.5v-1h1.5V103.3z M89.9,100.3h-1.5v-1h1.5V100.3z M89.9,97.3h-1.5v-1h1.5V97.3z"/>
		</g>
		<g>
			<line fill="#FFFFFF" x1="31.8" y1="58.1" x2="31.8" y2="79.2"/>
			<rect x="31.3" y="58.1" fill="#231F20" width="1" height="21"/>
		</g>
		<g>
			<line fill="#FFFFFF" x1="26.2" y1="70.3" x2="26.2" y2="86.4"/>
			<rect x="25.7" y="70.3" fill="#231F20" width="1" height="16.1"/>
		</g>
		<g>
			<path fill="#231F20" d="M29.8,91.8h-1.5v-0.2h1.5V91.8z M29.8,89.6h-1.5v-1h1.5V89.6z M29.8,86.6h-1.5v-1h1.5V86.6z M29.8,83.6
				h-1.5v-1h1.5V83.6z M29.8,80.6h-1.5v-1h1.5V80.6z M29.8,77.6h-1.5v-1h1.5V77.6z M29.8,74.6h-1.5v-1h1.5V74.6z M29.8,71.6h-1.5v-1
				h1.5V71.6z M29.8,68.6h-1.5v-1h1.5V68.6z M29.8,65.6h-1.5v-1h1.5V65.6z"/>
		</g>
		<g>
			<path fill="#231F20" d="M19.2,109.9c-0.2-0.2-0.5-0.5-0.7-0.7l1.1-1c0.2,0.2,0.5,0.5,0.7,0.7L19.2,109.9z M111.6,108.5l-1.1-1
				c0.2-0.2,0.5-0.5,0.7-0.7l1.1,1C112.1,108,111.8,108.3,111.6,108.5z M17.1,107.7c-0.2-0.3-0.5-0.5-0.7-0.8l1.1-1
				c0.2,0.2,0.4,0.5,0.7,0.7L17.1,107.7z M113.6,106.3l-1.1-1c0.2-0.3,0.4-0.5,0.6-0.8l1.2,1C114.1,105.7,113.9,106,113.6,106.3z
				 M15.1,105.4c-0.2-0.3-0.4-0.5-0.6-0.8l1.2-0.9c0.2,0.3,0.4,0.5,0.6,0.8L15.1,105.4z M115.6,103.9l-1.2-0.9
				c0.2-0.3,0.4-0.5,0.6-0.8l1.2,0.9C116,103.4,115.8,103.7,115.6,103.9z M13.3,103c-0.2-0.3-0.4-0.5-0.6-0.8l1.2-0.9
				c0.2,0.3,0.4,0.5,0.6,0.8L13.3,103z M117.4,101.5l-1.2-0.9c0.2-0.3,0.4-0.5,0.6-0.8l1.2,0.8C117.8,100.9,117.6,101.2,117.4,101.5
				z M11.5,100.6c-0.2-0.3-0.4-0.6-0.6-0.8l1.3-0.8c0.2,0.3,0.4,0.5,0.5,0.8L11.5,100.6z M119.1,99l-1.3-0.8
				c0.2-0.3,0.4-0.6,0.5-0.8l1.3,0.8C119.4,98.4,119.2,98.7,119.1,99z M9.8,98c-0.2-0.3-0.4-0.6-0.5-0.9l1.3-0.8
				c0.2,0.3,0.3,0.6,0.5,0.8L9.8,98z M120.6,96.4l-1.3-0.7c0.2-0.3,0.3-0.6,0.5-0.9l1.3,0.7C121,95.8,120.8,96.1,120.6,96.4z
				 M8.3,95.4c-0.2-0.3-0.3-0.6-0.5-0.9l1.3-0.7c0.2,0.3,0.3,0.6,0.5,0.9L8.3,95.4z M122.1,93.7l-1.3-0.7c0.1-0.3,0.3-0.6,0.4-0.9
				l1.3,0.7C122.4,93.1,122.2,93.4,122.1,93.7z M6.9,92.7c-0.1-0.3-0.3-0.6-0.4-0.9l1.4-0.6C8,91.4,8.1,91.7,8.2,92L6.9,92.7z
				 M123.4,91l-1.4-0.6c0.1-0.3,0.3-0.6,0.4-0.9l1.4,0.6C123.7,90.4,123.5,90.7,123.4,91z M5.6,89.9c-0.1-0.3-0.3-0.6-0.4-0.9
				l1.4-0.6C6.7,88.7,6.9,89,7,89.3L5.6,89.9z M124.6,88.2l-1.4-0.6c0.1-0.3,0.2-0.6,0.4-0.9l1.4,0.5
				C124.8,87.6,124.7,87.9,124.6,88.2z M4.5,87.1c-0.1-0.3-0.2-0.6-0.3-1l1.4-0.5c0.1,0.3,0.2,0.6,0.3,0.9L4.5,87.1z M125.6,85.4
				l-1.4-0.5c0.1-0.3,0.2-0.6,0.3-0.9l1.4,0.5C125.8,84.7,125.7,85,125.6,85.4z M3.5,84.2c-0.1-0.3-0.2-0.6-0.3-1l1.4-0.4
				c0.1,0.3,0.2,0.6,0.3,0.9L3.5,84.2z M126.5,82.5l-1.4-0.4c0.1-0.3,0.2-0.6,0.3-1l1.4,0.4C126.7,81.8,126.6,82.1,126.5,82.5z
				 M2.6,81.3c-0.1-0.3-0.2-0.7-0.3-1L3.8,80c0.1,0.3,0.2,0.6,0.3,1L2.6,81.3z M127.3,79.5l-1.5-0.4c0.1-0.3,0.2-0.6,0.2-1l1.5,0.3
				C127.5,78.9,127.4,79.2,127.3,79.5z M1.9,78.4c-0.1-0.3-0.1-0.7-0.2-1l1.5-0.3c0.1,0.3,0.1,0.6,0.2,1L1.9,78.4z M128,76.6
				l-1.5-0.3c0.1-0.3,0.1-0.6,0.2-1l1.5,0.3C128.1,75.9,128,76.2,128,76.6z M1.3,75.4c-0.1-0.3-0.1-0.7-0.2-1l1.5-0.2
				c0.1,0.3,0.1,0.7,0.2,1L1.3,75.4z M128.5,73.6l-1.5-0.2c0-0.3,0.1-0.7,0.1-1l1.5,0.2C128.6,72.9,128.5,73.2,128.5,73.6z
				 M0.9,72.4c0-0.3-0.1-0.7-0.1-1l1.5-0.2c0,0.3,0.1,0.7,0.1,1L0.9,72.4z M128.8,70.6l-1.5-0.1c0-0.3,0.1-0.7,0.1-1l1.5,0.1
				C128.9,69.9,128.9,70.2,128.8,70.6z M0.6,69.4c0-0.3,0-0.7-0.1-1L2,68.3c0,0.3,0,0.7,0.1,1L0.6,69.4z M129,67.5l-1.5-0.1
				c0-0.3,0-0.7,0-1l1.5,0.1C129.1,66.9,129.1,67.2,129,67.5z M0.4,66.3c0-0.3,0-0.7,0-1l1.5,0c0,0.3,0,0.7,0,1L0.4,66.3z
				 M129.1,64.5h-1.5v-0.1c0-0.3,0-0.6,0-0.9l1.5,0c0,0.3,0,0.6,0,0.9V64.5z M1.9,63.3l-1.5,0c0-0.3,0-0.7,0-1l1.5,0
				C1.9,62.7,1.9,63,1.9,63.3z M127.6,61.5c0-0.3,0-0.7-0.1-1l1.5-0.1c0,0.3,0,0.7,0.1,1L127.6,61.5z M2,60.4l-1.5-0.1
				c0-0.3,0-0.7,0.1-1l1.5,0.1C2,59.7,2,60,2,60.4z M127.4,58.6c0-0.3-0.1-0.7-0.1-1l1.5-0.2c0,0.3,0.1,0.7,0.1,1L127.4,58.6z
				 M2.3,57.4l-1.5-0.2c0-0.3,0.1-0.7,0.1-1l1.5,0.2C2.3,56.8,2.3,57.1,2.3,57.4z M127,55.6c0-0.3-0.1-0.7-0.1-1l1.5-0.2
				c0.1,0.3,0.1,0.7,0.1,1L127,55.6z M2.6,54.5l-1.5-0.2c0.1-0.3,0.1-0.7,0.2-1l1.5,0.3C2.8,53.8,2.7,54.2,2.6,54.5z M126.5,52.7
				c-0.1-0.3-0.1-0.6-0.2-1l1.5-0.3c0.1,0.3,0.1,0.7,0.2,1L126.5,52.7z M3.2,51.6l-1.5-0.3c0.1-0.3,0.1-0.7,0.2-1l1.5,0.3
				C3.3,50.9,3.2,51.2,3.2,51.6z M125.9,49.8c-0.1-0.3-0.2-0.6-0.2-1l1.5-0.4c0.1,0.3,0.2,0.7,0.2,1L125.9,49.8z M3.8,48.7l-1.5-0.4
				c0.1-0.3,0.2-0.7,0.3-1l1.4,0.4C4,48,3.9,48.4,3.8,48.7z M125.2,46.9c-0.1-0.3-0.2-0.6-0.3-0.9l1.4-0.4c0.1,0.3,0.2,0.6,0.3,1
				L125.2,46.9z M4.7,45.8l-1.4-0.4c0.1-0.3,0.2-0.6,0.3-1L5,44.9C4.8,45.2,4.7,45.5,4.7,45.8z M124.3,44.1
				c-0.1-0.3-0.2-0.6-0.3-0.9l1.4-0.5c0.1,0.3,0.2,0.6,0.3,1L124.3,44.1z M5.6,43l-1.4-0.5c0.1-0.3,0.2-0.6,0.4-0.9l1.4,0.5
				C5.8,42.4,5.7,42.7,5.6,43z M123.3,41.3c-0.1-0.3-0.2-0.6-0.4-0.9l1.4-0.6c0.1,0.3,0.3,0.6,0.4,0.9L123.3,41.3z M6.7,40.3
				l-1.4-0.6c0.1-0.3,0.3-0.6,0.4-0.9L7,39.3C6.9,39.6,6.8,40,6.7,40.3z M122.1,38.6c-0.1-0.3-0.3-0.6-0.4-0.9l1.4-0.6
				c0.1,0.3,0.3,0.6,0.4,0.9L122.1,38.6z M7.9,37.5l-1.4-0.6c0.1-0.3,0.3-0.6,0.4-0.9l1.3,0.7C8.1,37,8,37.3,7.9,37.5z M120.8,35.9
				c-0.1-0.3-0.3-0.6-0.5-0.9l1.3-0.7c0.2,0.3,0.3,0.6,0.5,0.9L120.8,35.9z M9.2,34.9l-1.3-0.7c0.2-0.3,0.3-0.6,0.5-0.9L9.7,34
				C9.5,34.3,9.3,34.6,9.2,34.9z M119.4,33.3c-0.2-0.3-0.3-0.6-0.5-0.9l1.3-0.8c0.2,0.3,0.3,0.6,0.5,0.9L119.4,33.3z M10.6,32.3
				l-1.3-0.8c0.2-0.3,0.3-0.6,0.5-0.9l1.3,0.8C11,31.8,10.8,32,10.6,32.3z M117.9,30.8c-0.2-0.3-0.4-0.6-0.5-0.8l1.3-0.8
				c0.2,0.3,0.4,0.6,0.6,0.9L117.9,30.8z M12.2,29.8L11,29c0.2-0.3,0.4-0.6,0.6-0.8l1.2,0.8C12.6,29.3,12.4,29.5,12.2,29.8z
				 M116.2,28.3c-0.2-0.3-0.4-0.5-0.6-0.8l1.2-0.9c0.2,0.3,0.4,0.5,0.6,0.8L116.2,28.3z M13.9,27.4l-1.2-0.9
				c0.2-0.3,0.4-0.5,0.6-0.8l1.2,0.9C14.3,26.9,14.1,27.1,13.9,27.4z M114.5,25.9c-0.2-0.3-0.4-0.5-0.6-0.8l1.2-0.9
				c0.2,0.3,0.4,0.5,0.6,0.8L114.5,25.9z M15.7,25l-1.2-0.9c0.2-0.3,0.4-0.5,0.6-0.8l1.2,1C16.1,24.5,15.9,24.8,15.7,25z
				 M112.6,23.6c-0.2-0.3-0.4-0.5-0.6-0.7l1.1-1c0.2,0.3,0.4,0.5,0.7,0.8L112.6,23.6z M17.6,22.8l-1.1-1c0.2-0.3,0.4-0.5,0.7-0.8
				l1.1,1C18,22.3,17.8,22.5,17.6,22.8z M110.6,21.4c-0.2-0.2-0.5-0.5-0.7-0.7l1.1-1c0.2,0.2,0.5,0.5,0.7,0.7L110.6,21.4z
				 M19.6,20.6l-1.1-1c0.2-0.2,0.5-0.5,0.7-0.7l0.6,0.5l0.5,0.6C20.1,20.1,19.8,20.4,19.6,20.6z M108.5,19.3
				c-0.2-0.2-0.5-0.5-0.7-0.7l1-1.1c0.2,0.2,0.5,0.5,0.7,0.7L108.5,19.3z M21.7,18.5l-1-1.1c0.2-0.2,0.5-0.5,0.7-0.7l1,1.1
				C22.2,18.1,22,18.3,21.7,18.5z M106.4,17.2c-0.2-0.2-0.5-0.4-0.7-0.6l1-1.1c0.3,0.2,0.5,0.4,0.8,0.7L106.4,17.2z M23.9,16.5
				l-1-1.1c0.3-0.2,0.5-0.4,0.8-0.7l1,1.2C24.4,16.1,24.2,16.3,23.9,16.5z M104.1,15.3c-0.3-0.2-0.5-0.4-0.8-0.6l0.9-1.2
				c0.3,0.2,0.5,0.4,0.8,0.6L104.1,15.3z M26.2,14.7l-0.9-1.2c0.3-0.2,0.5-0.4,0.8-0.6l0.9,1.2C26.8,14.3,26.5,14.5,26.2,14.7z
				 M101.8,13.5c-0.3-0.2-0.5-0.4-0.8-0.6l0.9-1.2c0.3,0.2,0.5,0.4,0.8,0.6L101.8,13.5z M28.6,12.9l-0.9-1.2
				c0.3-0.2,0.6-0.4,0.8-0.6l0.8,1.2C29.2,12.5,28.9,12.7,28.6,12.9z M99.3,11.9c-0.3-0.2-0.6-0.4-0.8-0.5l0.8-1.3
				c0.3,0.2,0.6,0.4,0.8,0.5L99.3,11.9z M31.1,11.2L30.3,10c0.3-0.2,0.6-0.4,0.9-0.5l0.8,1.3C31.7,10.9,31.4,11.1,31.1,11.2z
				 M96.8,10.3c-0.3-0.2-0.6-0.3-0.9-0.5l0.7-1.3C97,8.6,97.3,8.8,97.6,9L96.8,10.3z M33.6,9.7l-0.7-1.3c0.3-0.2,0.6-0.3,0.9-0.5
				l0.7,1.3C34.2,9.4,33.9,9.6,33.6,9.7z M94.2,8.8c-0.3-0.2-0.6-0.3-0.9-0.5L94.1,7c0.3,0.2,0.6,0.3,0.9,0.5L94.2,8.8z M36.2,8.3
				L35.6,7c0.3-0.2,0.6-0.3,0.9-0.5l0.7,1.3C36.8,8,36.5,8.2,36.2,8.3z M91.6,7.5c-0.3-0.1-0.6-0.3-0.9-0.4l0.6-1.4
				c0.3,0.1,0.6,0.3,0.9,0.4L91.6,7.5z M38.9,7l-0.6-1.4c0.3-0.1,0.6-0.3,0.9-0.4l0.6,1.4C39.5,6.8,39.2,6.9,38.9,7z M88.9,6.3
				c-0.3-0.1-0.6-0.3-0.9-0.4l0.6-1.4c0.3,0.1,0.6,0.3,0.9,0.4L88.9,6.3z M41.7,5.9l-0.5-1.4c0.3-0.1,0.6-0.2,0.9-0.4l0.5,1.4
				C42.3,5.6,42,5.8,41.7,5.9z M86.1,5.2c-0.3-0.1-0.6-0.2-0.9-0.3l0.5-1.4c0.3,0.1,0.6,0.2,1,0.3L86.1,5.2z M44.4,4.9L44,3.4
				c0.3-0.1,0.6-0.2,1-0.3l0.5,1.4C45.1,4.6,44.8,4.7,44.4,4.9z M83.3,4.3C83,4.2,82.7,4.1,82.4,4l0.4-1.4c0.3,0.1,0.6,0.2,1,0.3
				L83.3,4.3z M47.3,4l-0.4-1.4c0.3-0.1,0.7-0.2,1-0.3l0.4,1.4C47.9,3.8,47.6,3.9,47.3,4z M80.5,3.5c-0.3-0.1-0.6-0.2-1-0.2l0.4-1.5
				c0.3,0.1,0.7,0.2,1,0.2L80.5,3.5z M50.1,3.2l-0.3-1.5c0.3-0.1,0.7-0.2,1-0.2L51.1,3C50.8,3.1,50.5,3.1,50.1,3.2z M77.6,2.8
				c-0.3-0.1-0.6-0.1-1-0.2l0.3-1.5c0.3,0.1,0.7,0.1,1,0.2L77.6,2.8z M53,2.6l-0.3-1.5c0.3-0.1,0.7-0.1,1-0.2L54,2.4
				C53.7,2.5,53.4,2.5,53,2.6z M74.7,2.3c-0.3-0.1-0.6-0.1-1-0.1l0.2-1.5c0.3,0,0.7,0.1,1,0.2L74.7,2.3z M56,2.1l-0.2-1.5
				c0.3,0,0.7-0.1,1-0.1L56.9,2C56.6,2,56.3,2.1,56,2.1z M71.7,1.9c-0.3,0-0.7-0.1-1-0.1l0.1-1.5c0.3,0,0.7,0.1,1,0.1L71.7,1.9z
				 M58.9,1.8l-0.1-1.5c0.3,0,0.7-0.1,1-0.1l0.1,1.5C59.6,1.7,59.2,1.7,58.9,1.8z M68.8,1.6c-0.3,0-0.7,0-1-0.1l0.1-1.5
				c0.3,0,0.7,0,1,0.1L68.8,1.6z M61.9,1.6l-0.1-1.5c0.3,0,0.7,0,1,0l0,1.5C62.5,1.5,62.2,1.5,61.9,1.6z M65.8,1.5c-0.3,0-0.7,0-1,0
				V0c0.3,0,0.7,0,1,0L65.8,1.5z"/>
		</g>
		<g>
			<path fill="#231F20" d="M22,107.1C10.6,95.7,4.3,80.5,4.3,64.4C4.3,48.2,10.6,33,22,21.6C45.6-2,83.9-2,107.5,21.6
				c23.6,23.6,23.6,61.9,0,85.5l-1.1-1.1c23-23,23-60.4,0-83.4c-23-23-60.4-23-83.4,0C11.9,33.8,5.8,48.6,5.8,64.4
				c0,15.8,6.1,30.6,17.3,41.7L22,107.1z"/>
		</g>
		<g>
			<path fill="#231F20" d="M24.8,104.3c-0.2-0.2-0.5-0.5-0.7-0.7l1.1-1c0.2,0.2,0.5,0.5,0.7,0.7L24.8,104.3z M105,104l-1.1-1.1
				c0.2-0.2,0.5-0.5,0.7-0.7l1.1,1C105.4,103.5,105.2,103.7,105,104z M22.8,102.1c-0.2-0.3-0.5-0.5-0.7-0.8l1.1-1
				c0.2,0.2,0.4,0.5,0.7,0.7L22.8,102.1z M107.1,101.7l-1.1-1c0.2-0.2,0.4-0.5,0.6-0.7l1.1,1C107.5,101.2,107.3,101.5,107.1,101.7z
				 M20.8,99.8c-0.2-0.3-0.4-0.5-0.6-0.8l1.2-0.9c0.2,0.3,0.4,0.5,0.6,0.8L20.8,99.8z M109,99.4l-1.2-0.9c0.2-0.3,0.4-0.5,0.6-0.8
				l1.2,0.9C109.4,98.9,109.2,99.1,109,99.4z M18.9,97.3c-0.2-0.3-0.4-0.6-0.6-0.8l1.2-0.9c0.2,0.3,0.4,0.5,0.6,0.8L18.9,97.3z
				 M110.8,97l-1.2-0.9c0.2-0.3,0.4-0.5,0.6-0.8l1.2,0.8C111.2,96.4,111,96.7,110.8,97z M17.2,94.8c-0.2-0.3-0.4-0.6-0.5-0.9
				l1.3-0.8c0.2,0.3,0.3,0.6,0.5,0.8L17.2,94.8z M112.5,94.5l-1.3-0.8c0.2-0.3,0.3-0.6,0.5-0.8l1.3,0.8
				C112.9,93.9,112.7,94.2,112.5,94.5z M15.6,92.2c-0.2-0.3-0.3-0.6-0.5-0.9l1.3-0.7c0.2,0.3,0.3,0.6,0.5,0.9L15.6,92.2z
				 M114.1,91.8l-1.3-0.7c0.2-0.3,0.3-0.6,0.5-0.9l1.3,0.7C114.4,91.3,114.2,91.6,114.1,91.8z M14.2,89.5c-0.2-0.3-0.3-0.6-0.4-0.9
				l1.4-0.6c0.1,0.3,0.3,0.6,0.4,0.9L14.2,89.5z M115.5,89.2l-1.3-0.7c0.1-0.3,0.3-0.6,0.4-0.9l1.4,0.6
				C115.8,88.5,115.6,88.9,115.5,89.2z M12.9,86.8c-0.1-0.3-0.3-0.6-0.4-0.9l1.4-0.6c0.1,0.3,0.3,0.6,0.4,0.9L12.9,86.8z
				 M116.7,86.4l-1.4-0.6c0.1-0.3,0.3-0.6,0.4-0.9l1.4,0.6C117,85.8,116.9,86.1,116.7,86.4z M11.8,83.9c-0.1-0.3-0.2-0.6-0.3-1
				l1.4-0.5c0.1,0.3,0.2,0.6,0.3,0.9L11.8,83.9z M117.8,83.6l-1.4-0.5c0.1-0.3,0.2-0.6,0.3-0.9l1.4,0.5
				C118.1,82.9,117.9,83.2,117.8,83.6z M10.8,81.1c-0.1-0.3-0.2-0.6-0.3-1l1.4-0.4c0.1,0.3,0.2,0.6,0.3,0.9L10.8,81.1z M118.8,80.7
				l-1.4-0.4c0.1-0.3,0.2-0.6,0.3-0.9l1.4,0.4C119,80,118.9,80.4,118.8,80.7z M10,78.1c-0.1-0.3-0.2-0.7-0.2-1l1.5-0.3
				c0.1,0.3,0.2,0.6,0.2,1L10,78.1z M119.6,77.7l-1.5-0.4c0.1-0.3,0.2-0.6,0.2-1l1.5,0.3C119.7,77.1,119.7,77.4,119.6,77.7z
				 M9.3,75.2c-0.1-0.3-0.1-0.7-0.2-1l1.5-0.3c0.1,0.3,0.1,0.6,0.2,1L9.3,75.2z M120.2,74.8l-1.5-0.3c0.1-0.3,0.1-0.6,0.2-1l1.5,0.2
				C120.3,74.1,120.3,74.4,120.2,74.8z M8.8,72.2c0-0.3-0.1-0.7-0.1-1l1.5-0.2c0,0.3,0.1,0.7,0.1,1L8.8,72.2z M120.7,71.8l-1.5-0.2
				c0-0.3,0.1-0.7,0.1-1l1.5,0.2C120.8,71.1,120.7,71.4,120.7,71.8z M8.5,69.1c0-0.3-0.1-0.7-0.1-1L9.9,68c0,0.3,0,0.7,0.1,1
				L8.5,69.1z M121,68.8l-1.5-0.1c0-0.3,0-0.7,0.1-1l1.5,0.1C121.1,68.1,121,68.4,121,68.8z M8.3,66.1c0-0.3,0-0.7,0-1l1.5,0
				c0,0.3,0,0.7,0,1L8.3,66.1z M121.2,65.7l-1.5,0c0-0.3,0-0.7,0-1l1.5,0C121.2,65,121.2,65.4,121.2,65.7z M9.8,63.1l-1.5,0
				c0-0.3,0-0.7,0-1l1.5,0.1C9.8,62.4,9.8,62.8,9.8,63.1z M119.7,62.7c0-0.3,0-0.7,0-1l1.5-0.1c0,0.3,0,0.7,0,1L119.7,62.7z
				 M10,60.1L8.5,60c0-0.3,0.1-0.7,0.1-1l1.5,0.1C10,59.5,10,59.8,10,60.1z M119.5,59.8c0-0.3-0.1-0.7-0.1-1l1.5-0.2
				c0,0.3,0.1,0.7,0.1,1L119.5,59.8z M10.3,57.2L8.8,57c0-0.3,0.1-0.7,0.1-1l1.5,0.2C10.4,56.6,10.3,56.9,10.3,57.2z M119.2,56.8
				c0-0.3-0.1-0.7-0.1-1l1.5-0.2c0.1,0.3,0.1,0.7,0.1,1L119.2,56.8z M10.7,54.3L9.3,54c0.1-0.3,0.1-0.7,0.2-1l1.5,0.3
				C10.9,53.6,10.8,54,10.7,54.3z M118.7,53.9c-0.1-0.3-0.1-0.6-0.2-1l1.5-0.3c0.1,0.3,0.1,0.7,0.2,1L118.7,53.9z M11.4,51.4L9.9,51
				c0.1-0.3,0.2-0.7,0.2-1l1.5,0.4C11.5,50.8,11.4,51.1,11.4,51.4z M118,51c-0.1-0.3-0.2-0.6-0.2-1l1.4-0.4c0.1,0.3,0.2,0.7,0.3,1
				L118,51z M12.1,48.5l-1.4-0.4c0.1-0.3,0.2-0.6,0.3-1l1.4,0.5C12.3,47.9,12.2,48.2,12.1,48.5z M117.2,48.2
				c-0.1-0.3-0.2-0.6-0.3-0.9l1.4-0.5c0.1,0.3,0.2,0.6,0.3,1L117.2,48.2z M13.1,45.7l-1.4-0.5c0.1-0.3,0.2-0.6,0.4-0.9l1.4,0.5
				C13.3,45.1,13.2,45.4,13.1,45.7z M116.3,45.4c-0.1-0.3-0.2-0.6-0.4-0.9l1.4-0.5c0.1,0.3,0.2,0.6,0.4,0.9L116.3,45.4z M14.1,43
				l-1.4-0.6c0.1-0.3,0.3-0.6,0.4-0.9l1.4,0.6C14.4,42.4,14.3,42.7,14.1,43z M115.2,42.6c-0.1-0.3-0.3-0.6-0.4-0.9l1.4-0.6
				c0.1,0.3,0.3,0.6,0.4,0.9L115.2,42.6z M15.4,40.3L14,39.6c0.1-0.3,0.3-0.6,0.5-0.9l1.3,0.7C15.7,39.7,15.5,40,15.4,40.3z
				 M114,39.9c-0.1-0.3-0.3-0.6-0.4-0.9l1.3-0.7c0.2,0.3,0.3,0.6,0.5,0.9L114,39.9z M16.7,37.7l-1.3-0.7c0.2-0.3,0.3-0.6,0.5-0.9
				l1.3,0.8C17.1,37.1,16.9,37.4,16.7,37.7z M112.6,37.3c-0.2-0.3-0.3-0.6-0.5-0.9l1.3-0.8c0.2,0.3,0.3,0.6,0.5,0.9L112.6,37.3z
				 M18.2,35.1L17,34.3c0.2-0.3,0.4-0.6,0.5-0.9l1.3,0.8C18.6,34.6,18.4,34.8,18.2,35.1z M111,34.8c-0.2-0.3-0.4-0.6-0.5-0.8
				l1.2-0.8c0.2,0.3,0.4,0.6,0.6,0.9L111,34.8z M19.9,32.7l-1.2-0.9c0.2-0.3,0.4-0.5,0.6-0.8l1.2,0.9C20.3,32.1,20.1,32.4,19.9,32.7
				z M109.4,32.3c-0.2-0.3-0.4-0.5-0.6-0.8l1.2-0.9c0.2,0.3,0.4,0.5,0.6,0.8L109.4,32.3z M21.7,30.3l-1.2-0.9
				c0.2-0.3,0.4-0.5,0.6-0.8l1.2,1C22.1,29.8,21.9,30,21.7,30.3z M107.6,30c-0.2-0.3-0.4-0.5-0.6-0.8l1.2-1c0.2,0.3,0.4,0.5,0.6,0.8
				L107.6,30z M23.5,28l-1.1-1c0.2-0.3,0.4-0.5,0.7-0.8l1.1,1C24,27.5,23.8,27.8,23.5,28z M105.6,27.7c-0.2-0.2-0.4-0.5-0.7-0.7
				l1.1-1c0.2,0.2,0.5,0.5,0.7,0.8L105.6,27.7z M25.6,25.9l-1.1-1.1l0.7-0.7l1.1,1.1L25.6,25.9z M103.6,25.6
				c-0.2-0.2-0.5-0.5-0.7-0.7l1-1.1c0.2,0.2,0.5,0.5,0.7,0.7L103.6,25.6z M27.7,23.8l-1-1.1c0.3-0.2,0.5-0.5,0.8-0.7l1,1.1
				C28.2,23.4,27.9,23.6,27.7,23.8z M101.5,23.5c-0.2-0.2-0.5-0.4-0.7-0.7l1-1.1c0.3,0.2,0.5,0.4,0.8,0.7L101.5,23.5z M29.9,21.9
				l-1-1.2c0.3-0.2,0.5-0.4,0.8-0.6l0.9,1.2C30.4,21.5,30.2,21.7,29.9,21.9z M99.2,21.6c-0.3-0.2-0.5-0.4-0.8-0.6l0.9-1.2
				c0.3,0.2,0.5,0.4,0.8,0.6L99.2,21.6z M32.3,20.1l-0.9-1.2c0.3-0.2,0.5-0.4,0.8-0.6l0.9,1.2C32.8,19.7,32.5,19.9,32.3,20.1z
				 M96.9,19.8c-0.3-0.2-0.5-0.4-0.8-0.6l0.9-1.2c0.3,0.2,0.5,0.4,0.8,0.6L96.9,19.8z M34.7,18.4l-0.8-1.3c0.3-0.2,0.6-0.4,0.9-0.5
				l0.8,1.3C35.3,18,35,18.2,34.7,18.4z M94.4,18.1c-0.3-0.2-0.6-0.4-0.8-0.5l0.8-1.3c0.3,0.2,0.6,0.4,0.9,0.5L94.4,18.1z
				 M37.2,16.8l-0.8-1.3c0.3-0.2,0.6-0.3,0.9-0.5l0.7,1.3C37.8,16.5,37.5,16.7,37.2,16.8z M91.9,16.6c-0.3-0.2-0.6-0.3-0.9-0.5
				l0.7-1.3c0.3,0.2,0.6,0.3,0.9,0.5L91.9,16.6z M39.8,15.4l-0.7-1.3c0.3-0.2,0.6-0.3,0.9-0.5l0.7,1.3
				C40.4,15.1,40.1,15.3,39.8,15.4z M89.3,15.2c-0.3-0.1-0.6-0.3-0.9-0.4l0.6-1.4c0.3,0.1,0.6,0.3,0.9,0.4L89.3,15.2z M42.5,14.1
				l-0.6-1.4c0.3-0.1,0.6-0.3,0.9-0.4l0.6,1.4C43.1,13.9,42.8,14,42.5,14.1z M86.6,14c-0.3-0.1-0.6-0.3-0.9-0.4l0.6-1.4
				c0.3,0.1,0.6,0.3,0.9,0.4L86.6,14z M45.2,13l-0.5-1.4c0.3-0.1,0.6-0.2,1-0.4l0.5,1.4C45.9,12.8,45.6,12.9,45.2,13z M83.9,12.9
				c-0.3-0.1-0.6-0.2-0.9-0.3l0.5-1.4c0.3,0.1,0.6,0.2,1,0.3L83.9,12.9z M48,12l-0.5-1.4c0.3-0.1,0.6-0.2,1-0.3l0.4,1.4
				C48.7,11.8,48.4,11.9,48,12z M81.1,11.9c-0.3-0.1-0.6-0.2-0.9-0.3l0.4-1.4c0.3,0.1,0.6,0.2,1,0.3L81.1,11.9z M50.9,11.2l-0.4-1.5
				c0.3-0.1,0.7-0.2,1-0.2l0.4,1.5C51.5,11,51.2,11.1,50.9,11.2z M78.2,11.1c-0.3-0.1-0.6-0.2-1-0.2l0.3-1.5c0.3,0.1,0.7,0.2,1,0.2
				L78.2,11.1z M53.8,10.5l-0.3-1.5c0.3-0.1,0.7-0.1,1-0.2l0.3,1.5C54.4,10.4,54.1,10.5,53.8,10.5z M75.3,10.5
				c-0.3-0.1-0.6-0.1-1-0.2l0.3-1.5c0.3,0.1,0.7,0.1,1,0.2L75.3,10.5z M56.7,10l-0.2-1.5c0.3,0,0.7-0.1,1-0.1l0.2,1.5
				C57.3,9.9,57,10,56.7,10z M72.4,10c-0.3,0-0.7-0.1-1-0.1l0.2-1.5c0.3,0,0.7,0.1,1,0.1L72.4,10z M59.6,9.7l-0.1-1.5
				c0.3,0,0.7-0.1,1-0.1l0.1,1.5C60.3,9.6,60,9.7,59.6,9.7z M69.5,9.6c-0.3,0-0.7-0.1-1-0.1l0.1-1.5c0.3,0,0.7,0,1,0.1L69.5,9.6z
				 M62.6,9.5L62.5,8c0.3,0,0.7,0,1,0l0,1.5C63.2,9.5,62.9,9.5,62.6,9.5z M66.5,9.5c-0.3,0-0.7,0-1,0l0-1.5c0.3,0,0.7,0,1,0
				L66.5,9.5z"/>
		</g>
	</g>
</g>
</svg>
