<?xml version="1.0" encoding="utf-8"?>
<!-- Generator: Adobe Illustrator 18.0.0, SVG Export Plug-In . SVG Version: 6.00 Build 0)  -->
<!DOCTYPE svg PUBLIC "-//W3C//DTD SVG 1.1//EN" "http://www.w3.org/Graphics/SVG/1.1/DTD/svg11.dtd">
<svg version="1.1" id="Layer_1" xmlns="http://www.w3.org/2000/svg" xmlns:xlink="http://www.w3.org/1999/xlink" x="0px" y="0px"
	 viewBox="0 0 129.5 129.5" enable-background="new 0 0 129.5 129.5" xml:space="preserve">
<g>
	<g>
		<g>
			<g>
				<path fill="#231F20" d="M117.9,61.9c-0.2,0-0.4-0.1-0.5-0.2c-0.3-0.3-0.3-0.8,0-1.1l1.3-1.3c0.3-0.3,0.8-0.3,1.1,0
					c0.3,0.3,0.3,0.8,0,1.1l-1.3,1.3C118.3,61.8,118.1,61.9,117.9,61.9z"/>
			</g>
			<g>
				<path fill="#231F20" d="M113.9,65.9c-0.2,0-0.4-0.1-0.5-0.2c-0.3-0.3-0.3-0.8,0-1.1l1.3-1.3c0.3-0.3,0.8-0.3,1.1,0
					c0.3,0.3,0.3,0.8,0,1.1l-1.3,1.3C114.3,65.8,114.1,65.9,113.9,65.9z"/>
			</g>
			<g>
				<path fill="#231F20" d="M119.2,65.9c-0.2,0-0.4-0.1-0.5-0.2l-1.3-1.3c-0.3-0.3-0.3-0.8,0-1.1c0.3-0.3,0.8-0.3,1.1,0l1.3,1.3
					c0.3,0.3,0.3,0.8,0,1.1C119.6,65.8,119.4,65.9,119.2,65.9z"/>
			</g>
			<g>
				<path fill="#231F20" d="M115.2,61.9c-0.2,0-0.4-0.1-0.5-0.2l-1.3-1.3c-0.3-0.3-0.3-0.8,0-1.1c0.3-0.3,0.8-0.3,1.1,0l1.3,1.3
					c0.3,0.3,0.3,0.8,0,1.1C115.6,61.8,115.4,61.9,115.2,61.9z"/>
			</g>
		</g>
		<g>
			<g>
				<path fill="#231F20" d="M78.7,14.4c-0.2,0-0.4-0.1-0.5-0.2c-0.3-0.3-0.3-0.8,0-1.1l1.3-1.3c0.3-0.3,0.8-0.3,1.1,0
					c0.3,0.3,0.3,0.8,0,1.1l-1.3,1.3C79.1,14.3,78.9,14.4,78.7,14.4z"/>
			</g>
			<g>
				<path fill="#231F20" d="M74.7,18.4c-0.2,0-0.4-0.1-0.5-0.2c-0.3-0.3-0.3-0.8,0-1.1l1.3-1.3c0.3-0.3,0.8-0.3,1.1,0
					c0.3,0.3,0.3,0.8,0,1.1l-1.3,1.3C75,18.3,74.9,18.4,74.7,18.4z"/>
			</g>
			<g>
				<path fill="#231F20" d="M80,18.4c-0.2,0-0.4-0.1-0.5-0.2l-1.3-1.3c-0.3-0.3-0.3-0.8,0-1.1c0.3-0.3,0.8-0.3,1.1,0l1.3,1.3
					c0.3,0.3,0.3,0.8,0,1.1C80.4,18.3,80.2,18.4,80,18.4z"/>
			</g>
			<g>
				<path fill="#231F20" d="M75.9,14.4c-0.2,0-0.4-0.1-0.5-0.2l-1.3-1.3c-0.3-0.3-0.3-0.8,0-1.1c0.3-0.3,0.8-0.3,1.1,0l1.3,1.3
					c0.3,0.3,0.3,0.8,0,1.1C76.3,14.3,76.1,14.4,75.9,14.4z"/>
			</g>
		</g>
		<g>
			<g>
				<path fill="#231F20" d="M110,118.8c-0.2,0-0.4-0.1-0.5-0.2c-0.3-0.3-0.3-0.8,0-1.1l1.3-1.3c0.3-0.3,0.8-0.3,1.1,0
					c0.3,0.3,0.3,0.8,0,1.1l-1.3,1.3C110.4,118.7,110.2,118.8,110,118.8z"/>
			</g>
			<g>
				<path fill="#231F20" d="M106,122.8c-0.2,0-0.4-0.1-0.5-0.2c-0.3-0.3-0.3-0.8,0-1.1l1.3-1.3c0.3-0.3,0.8-0.3,1.1,0
					c0.3,0.3,0.3,0.8,0,1.1l-1.3,1.3C106.4,122.7,106.2,122.8,106,122.8z"/>
			</g>
			<g>
				<path fill="#231F20" d="M111.3,122.8c-0.2,0-0.4-0.1-0.5-0.2l-1.3-1.3c-0.3-0.3-0.3-0.8,0-1.1c0.3-0.3,0.8-0.3,1.1,0l1.3,1.3
					c0.3,0.3,0.3,0.8,0,1.1C111.7,122.7,111.5,122.8,111.3,122.8z"/>
			</g>
			<g>
				<path fill="#231F20" d="M107.3,118.8c-0.2,0-0.4-0.1-0.5-0.2l-1.3-1.3c-0.3-0.3-0.3-0.8,0-1.1c0.3-0.3,0.8-0.3,1.1,0l1.3,1.3
					c0.3,0.3,0.3,0.8,0,1.1C107.7,118.7,107.5,118.8,107.3,118.8z"/>
			</g>
		</g>
		<g>
			<g>
				<path fill="#231F20" d="M17.4,96.4c-0.2,0-0.4-0.1-0.5-0.2c-0.3-0.3-0.3-0.8,0-1.1l1.3-1.3c0.3-0.3,0.8-0.3,1.1,0s0.3,0.8,0,1.1
					L18,96.2C17.8,96.3,17.6,96.4,17.4,96.4z"/>
			</g>
			<g>
				<path fill="#231F20" d="M13.4,100.4c-0.2,0-0.4-0.1-0.5-0.2c-0.3-0.3-0.3-0.8,0-1.1l1.3-1.3c0.3-0.3,0.8-0.3,1.1,0
					s0.3,0.8,0,1.1l-1.3,1.3C13.8,100.4,13.6,100.4,13.4,100.4z"/>
			</g>
			<g>
				<path fill="#231F20" d="M18.7,100.4c-0.2,0-0.4-0.1-0.5-0.2l-1.3-1.3c-0.3-0.3-0.3-0.8,0-1.1c0.3-0.3,0.8-0.3,1.1,0l1.3,1.3
					c0.3,0.3,0.3,0.8,0,1.1C19.1,100.4,18.9,100.4,18.7,100.4z"/>
			</g>
			<g>
				<path fill="#231F20" d="M14.7,96.4c-0.2,0-0.4-0.1-0.5-0.2l-1.3-1.3c-0.3-0.3-0.3-0.8,0-1.1c0.3-0.3,0.8-0.3,1.1,0l1.3,1.3
					c0.3,0.3,0.3,0.8,0,1.1C15.1,96.3,14.9,96.4,14.7,96.4z"/>
			</g>
		</g>
		<g>
			<circle fill="#FFD05B" cx="80.6" cy="28.1" r="1.9"/>
		</g>
		<g>
			<circle fill="#FF7058" cx="66.3" cy="6" r="1.9"/>
		</g>
		<g>
			<circle fill="#CED5E0" cx="124" cy="49.7" r="2.8"/>
		</g>
		<g>
			<circle fill="#FF7058" cx="121" cy="84.6" r="1.9"/>
		</g>
		<g>
			<circle fill="#FFD05B" cx="18.1" cy="109.3" r="1.9"/>
		</g>
		<g>
			<polygon fill="#FFFFFF" points="50.6,0.7 50.6,18.1 68,18.1 			"/>
		</g>
		<g>
			<polygon fill="#ACB3BA" points="52.6,16.1 52.6,5.6 63.1,16.1 			"/>
		</g>
		<path fill="#FFFFFF" d="M95.5,52.6v76.1H29.3v-76c0-1.9-0.8-3.6-2-4.9c-1.2-1.2-3-2-4.9-2h66.3C92.5,45.9,95.5,48.9,95.5,52.6z"/>
		<g>
			<path fill="#ACB3BA" d="M16.1,81.6c1-1.4,1.5-3.1,1.5-4.9v-24c0-1.3,0.5-2.5,1.4-3.5c0.9-0.9,2.2-1.4,3.5-1.4
				c1.3,0,2.5,0.5,3.5,1.4c0.9,0.9,1.4,2.2,1.4,3.5v28.9H16.1z"/>
		</g>
		<g>
			<g>
				<path fill="#231F20" d="M43.9,107.9h-7.4c-0.4,0-0.8-0.3-0.8-0.8v-7.4c0-0.4,0.3-0.8,0.8-0.8h7.4c0.4,0,0.8,0.3,0.8,0.8v7.4
					C44.6,107.6,44.3,107.9,43.9,107.9z M37.2,106.4h5.9v-5.9h-5.9V106.4z"/>
			</g>
			<g>
				<g>
					<path fill="#231F20" d="M80.7,102H47.3c-0.4,0-0.8-0.3-0.8-0.8c0-0.4,0.3-0.8,0.8-0.8h33.4c0.4,0,0.8,0.3,0.8,0.8
						C81.5,101.7,81.1,102,80.7,102z"/>
				</g>
				<g>
					<path fill="#231F20" d="M87.6,106.1H47.3c-0.4,0-0.8-0.3-0.8-0.8c0-0.4,0.3-0.8,0.8-0.8h40.2c0.4,0,0.8,0.3,0.8,0.8
						C88.3,105.8,88,106.1,87.6,106.1z"/>
				</g>
			</g>
		</g>
		<g>
			<path fill="#231F20" d="M111.2,43.7h-5.1c-0.4,0-0.7-0.3-0.7-0.7l-0.3-3.4c-2.3-0.5-4.5-1.4-6.4-2.7L96,39.1
				c-0.3,0.2-0.7,0.2-1,0l-3.6-3.6c-0.3-0.3-0.3-0.7,0-1l2.2-2.6c-1.3-2-2.2-4.1-2.7-6.4l-3.4-0.3c-0.4,0-0.7-0.4-0.7-0.7v-5.1
				c0-0.4,0.3-0.7,0.7-0.7l3.4-0.3c0.5-2.3,1.4-4.5,2.7-6.4l-2.2-2.6c-0.2-0.3-0.2-0.7,0-1L95,4.6c0.3-0.3,0.7-0.3,1,0l2.6,2.2
				c2-1.3,4.1-2.2,6.4-2.7l0.3-3.4c0-0.4,0.4-0.7,0.7-0.7h5.1c0.4,0,0.7,0.3,0.7,0.7l0.3,3.4c2.3,0.5,4.5,1.4,6.4,2.7l2.6-2.2
				c0.3-0.2,0.7-0.2,1,0l3.6,3.6c0.3,0.3,0.3,0.7,0,1l-2.2,2.6c1.3,2,2.2,4.1,2.7,6.4l3.4,0.3c0.4,0,0.7,0.4,0.7,0.7v5.1
				c0,0.4-0.3,0.7-0.7,0.7l-3.4,0.3c-0.5,2.3-1.4,4.5-2.7,6.4l2.2,2.6c0.2,0.3,0.2,0.7,0,1l-3.6,3.6c-0.3,0.3-0.7,0.3-1,0l-2.6-2.2
				c-2,1.3-4.1,2.2-6.4,2.7L112,43C111.9,43.4,111.6,43.7,111.2,43.7z M106.8,42.2h3.7l0.3-3.2c0-0.3,0.3-0.6,0.6-0.7
				c2.5-0.4,4.8-1.4,6.8-2.8c0.3-0.2,0.7-0.2,0.9,0l2.5,2.1l2.6-2.6l-2.1-2.5c-0.2-0.3-0.2-0.6,0-0.9c1.5-2.1,2.4-4.4,2.8-6.8
				c0.1-0.3,0.3-0.6,0.7-0.6l3.2-0.3V20l-3.2-0.3c-0.3,0-0.6-0.3-0.7-0.6c-0.4-2.5-1.4-4.8-2.8-6.8c-0.2-0.3-0.2-0.7,0-0.9l2.1-2.5
				l-2.6-2.6l-2.5,2.1c-0.3,0.2-0.6,0.2-0.9,0c-2.1-1.5-4.4-2.4-6.8-2.8c-0.3-0.1-0.6-0.3-0.6-0.7l-0.3-3.2h-3.7l-0.3,3.2
				c0,0.3-0.3,0.6-0.6,0.7c-2.5,0.4-4.8,1.4-6.8,2.8c-0.3,0.2-0.7,0.2-0.9,0l-2.5-2.1L93,8.8l2.1,2.5c0.2,0.3,0.2,0.6,0,0.9
				c-1.5,2.1-2.4,4.4-2.8,6.8c-0.1,0.3-0.3,0.6-0.7,0.6L88.3,20v3.7l3.2,0.3c0.3,0,0.6,0.3,0.7,0.6c0.4,2.5,1.4,4.8,2.8,6.8
				c0.2,0.3,0.2,0.7,0,0.9L93,34.9l2.6,2.6l2.5-2.1c0.3-0.2,0.6-0.2,0.9,0c2.1,1.5,4.4,2.4,6.8,2.8c0.3,0.1,0.6,0.3,0.6,0.7
				L106.8,42.2z"/>
		</g>
		<g>
			<path fill="#231F20" d="M108.4,35.8c-0.4,0-0.7,0-1.1-0.1l0.1-1.5c0.3,0,0.6,0,0.9,0.1L108.4,35.8z M110.5,35.7l-0.2-1.5
				c0.3,0,0.6-0.1,0.9-0.2l0.3,1.5C111.2,35.6,110.9,35.6,110.5,35.7z M105.3,35.4c-0.3-0.1-0.7-0.2-1-0.3l0.5-1.4
				c0.3,0.1,0.6,0.2,0.9,0.3L105.3,35.4z M113.6,34.9l-0.5-1.4c0.3-0.1,0.6-0.2,0.9-0.4l0.6,1.4C114.2,34.6,113.9,34.8,113.6,34.9z
				 M102.3,34.3c-0.3-0.2-0.6-0.3-0.9-0.5l0.8-1.3c0.3,0.2,0.5,0.3,0.8,0.5L102.3,34.3z M116.4,33.5l-0.8-1.2
				c0.3-0.2,0.5-0.4,0.8-0.6l0.9,1.2C117,33.1,116.7,33.3,116.4,33.5z M99.7,32.5c-0.3-0.2-0.5-0.5-0.8-0.7l1-1.1
				c0.2,0.2,0.5,0.4,0.7,0.6L99.7,32.5z M118.8,31.4l-1.1-1c0.2-0.2,0.4-0.5,0.6-0.7l1.2,0.9C119.3,30.9,119,31.2,118.8,31.4z
				 M97.5,30.2c-0.2-0.3-0.4-0.6-0.6-0.9l1.3-0.8c0.2,0.3,0.3,0.5,0.5,0.8L97.5,30.2z M120.7,28.9l-1.3-0.8c0.2-0.3,0.3-0.5,0.4-0.8
				l1.3,0.7C121,28.3,120.9,28.6,120.7,28.9z M95.9,27.5c-0.1-0.3-0.3-0.6-0.4-1l1.4-0.5c0.1,0.3,0.2,0.6,0.3,0.9L95.9,27.5z
				 M122,26l-1.4-0.4c0.1-0.3,0.2-0.6,0.2-0.9l1.5,0.3C122.2,25.3,122.1,25.7,122,26z M94.9,24.5c-0.1-0.3-0.1-0.7-0.2-1l1.5-0.2
				c0,0.3,0.1,0.6,0.1,0.9L94.9,24.5z M122.6,22.9l-1.5-0.1c0-0.3,0-0.6,0-0.9h1.5C122.6,22.2,122.6,22.5,122.6,22.9z M96.2,21.4
				l-1.5-0.1c0-0.4,0-0.7,0.1-1.1l1.5,0.2C96.2,20.7,96.2,21.1,96.2,21.4z M121.1,20.9c0-0.3-0.1-0.6-0.1-0.9l1.5-0.2
				c0.1,0.3,0.1,0.7,0.1,1L121.1,20.9z M96.6,18.6l-1.4-0.4c0.1-0.3,0.2-0.7,0.3-1l1.4,0.5C96.8,18,96.7,18.3,96.6,18.6z
				 M120.5,18.1c-0.1-0.3-0.2-0.6-0.3-0.9l1.4-0.6c0.1,0.3,0.2,0.7,0.4,1L120.5,18.1z M97.7,16l-1.3-0.7c0.2-0.3,0.3-0.6,0.5-0.9
				l1.3,0.8C98,15.4,97.8,15.7,97.7,16z M119.4,15.5c-0.2-0.3-0.3-0.5-0.5-0.8l1.2-0.9c0.2,0.3,0.4,0.6,0.6,0.9L119.4,15.5z
				 M99.3,13.6l-1.1-1c0.2-0.3,0.5-0.5,0.7-0.8l1.1,1.1C99.7,13.2,99.5,13.4,99.3,13.6z M117.7,13.3c-0.2-0.2-0.4-0.4-0.7-0.7l1-1.1
				c0.3,0.2,0.5,0.5,0.8,0.7L117.7,13.3z M101.4,11.7l-0.9-1.2c0.3-0.2,0.6-0.4,0.9-0.6l0.8,1.3C101.9,11.4,101.6,11.6,101.4,11.7z
				 M115.5,11.4c-0.3-0.2-0.5-0.3-0.8-0.5l0.7-1.3c0.3,0.2,0.6,0.4,0.9,0.6L115.5,11.4z M103.8,10.4L103.2,9c0.3-0.1,0.7-0.3,1-0.4
				l0.5,1.4C104.4,10.1,104.1,10.2,103.8,10.4z M113,10.2c-0.3-0.1-0.6-0.2-0.9-0.3l0.4-1.4c0.3,0.1,0.7,0.2,1,0.3L113,10.2z
				 M106.5,9.6l-0.3-1.5c0.3-0.1,0.7-0.1,1-0.1l0.1,1.5C107.1,9.5,106.8,9.5,106.5,9.6z M110.3,9.5c-0.3,0-0.6-0.1-0.9-0.1l0.1-1.5
				c0.4,0,0.7,0.1,1.1,0.1L110.3,9.5z"/>
		</g>
		<g>
			<circle fill="#FF7058" cx="108.7" cy="21.8" r="10.5"/>
		</g>
		<g>
			<circle fill="#FFFFFF" cx="108.7" cy="21.8" r="5.2"/>
			<path fill="#231F20" d="M108.7,27.8c-3.3,0-6-2.7-6-6c0-3.3,2.7-6,6-6c3.3,0,6,2.7,6,6C114.6,25.1,112,27.8,108.7,27.8z
				 M108.7,17.3c-2.5,0-4.5,2-4.5,4.5c0,2.5,2,4.5,4.5,4.5c2.5,0,4.5-2,4.5-4.5C113.1,19.4,111.1,17.3,108.7,17.3z"/>
		</g>
		<circle fill="#84DBFF" cx="78.1" cy="64.5" r="26.1"/>
		<g>
			<circle fill="#FFFFFF" cx="78.1" cy="64.5" r="20.5"/>
			<path fill="#231F20" d="M78.1,85.8c-5.7,0-11-2.2-15.1-6.2c-8.3-8.3-8.3-21.8,0-30.1c4-4,9.4-6.2,15.1-6.2c5.7,0,11,2.2,15.1,6.2
				c4,4,6.2,9.4,6.2,15.1c0,5.7-2.2,11-6.2,15.1C89.1,83.6,83.8,85.8,78.1,85.8z M78.1,44.7c-5.3,0-10.3,2.1-14,5.8
				c-7.7,7.7-7.7,20.3,0,28c3.7,3.7,8.7,5.8,14,5.8c5.3,0,10.3-2.1,14-5.8c3.7-3.7,5.8-8.7,5.8-14c0-5.3-2.1-10.3-5.8-14
				C88.4,46.8,83.4,44.7,78.1,44.7z"/>
		</g>
		<path fill="#FFFFFF" d="M101.8,88.2L101.8,88.2c-2.1,2.1-2.1,5.6,0,7.7l16.1,16.1c2.1,2.1,5.6,2.1,7.7,0v0c2.1-2.1,2.1-5.6,0-7.7
			l-16.1-16.1C107.4,86.1,104,86.1,101.8,88.2z"/>
		
			<rect x="104.6" y="94.7" transform="matrix(0.7071 0.7071 -0.7071 0.7071 104.1117 -51.086)" fill="#E6E9EE" width="18.2" height="10.9"/>
		<g>
			<path fill="#231F20" d="M86.6,76.5c-0.1,0-0.2,0-0.3-0.1l-8.1-4.3L70,76.4c-0.3,0.1-0.6,0.1-0.8-0.1c-0.2-0.2-0.3-0.5-0.3-0.7
				l1.6-9l-6.6-6.4c-0.2-0.2-0.3-0.5-0.2-0.8c0.1-0.3,0.3-0.5,0.6-0.5l9.1-1.3l4.1-8.2c0.1-0.3,0.4-0.4,0.7-0.4l0,0
				c0.3,0,0.5,0.2,0.7,0.4l4.1,8.2l9.1,1.3c0.3,0,0.5,0.2,0.6,0.5c0.1,0.3,0,0.6-0.2,0.8l-6.6,6.4l1.6,9c0,0.3-0.1,0.6-0.3,0.7
				C86.9,76.4,86.7,76.5,86.6,76.5z M78.1,70.5c0.1,0,0.2,0,0.3,0.1l7.1,3.7l-1.4-7.9c0-0.2,0-0.5,0.2-0.7l5.8-5.6l-8-1.2
				c-0.2,0-0.5-0.2-0.6-0.4l-3.6-7.2l-3.6,7.2C74.4,58.8,74.2,59,74,59l-8,1.2l5.8,5.6c0.2,0.2,0.3,0.4,0.2,0.7l-1.4,7.9l7.1-3.7
				C77.9,70.6,78,70.5,78.1,70.5z"/>
		</g>
		<g>
			<polygon fill="#FFD05B" points="73.4,65.6 68.7,61 75.2,60.1 78.1,54.2 81,60.1 87.5,61 82.8,65.6 83.9,72.1 78.1,69 72.3,72.1 
							"/>
		</g>
		<g>
			<g>
				<path fill="#231F20" d="M16.1,40.2H8.6c-0.4,0-0.8-0.3-0.8-0.8V32c0-0.4,0.3-0.8,0.8-0.8h7.4c0.4,0,0.8,0.3,0.8,0.8v7.4
					C16.8,39.8,16.5,40.2,16.1,40.2z M9.4,38.7h5.9v-5.9H9.4V38.7z"/>
			</g>
			<g>
				<g>
					<path fill="#231F20" d="M38.6,34.4H19.5c-0.4,0-0.8-0.3-0.8-0.8c0-0.4,0.3-0.8,0.8-0.8h19.1c0.4,0,0.8,0.3,0.8,0.8
						C39.4,34.1,39,34.4,38.6,34.4z"/>
				</g>
				<g>
					<path fill="#231F20" d="M45.5,38.5h-26c-0.4,0-0.8-0.3-0.8-0.8c0-0.4,0.3-0.8,0.8-0.8h26c0.4,0,0.8,0.3,0.8,0.8
						C46.2,38.1,45.9,38.5,45.5,38.5z"/>
				</g>
			</g>
		</g>
		<g>
			<circle fill="#84DBFF" cx="17" cy="15" r="6.5"/>
		</g>
		<g>
			<path fill="#231F20" d="M17,24.7c-5.4,0-9.7-4.4-9.7-9.8c0-5.4,4.4-9.8,9.7-9.8s9.8,4.4,9.8,9.8C26.7,20.4,22.3,24.7,17,24.7z
				 M17,6.7c-4.5,0-8.2,3.7-8.2,8.3c0,4.5,3.7,8.3,8.2,8.3c4.5,0,8.3-3.7,8.3-8.3C25.2,10.4,21.5,6.7,17,6.7z"/>
		</g>
		<g>
			<path fill="#231F20" d="M17,24.7c-2.7,0-4.1-5-4.1-9.8c0-4.7,1.5-9.8,4.1-9.8c2.7,0,4.1,5,4.1,9.8C21.1,19.7,19.6,24.7,17,24.7z
				 M17,6.7c-1.1,0-2.6,3.2-2.6,8.3c0,5,1.6,8.3,2.6,8.3s2.6-3.2,2.6-8.3C19.6,9.9,18,6.7,17,6.7z"/>
		</g>
		<g>
			<rect x="8" y="14.2" fill="#231F20" width="18" height="1.5"/>
		</g>
		<rect x="6.3" y="116.6" fill="#FFFFFF" width="67" height="7.1"/>
		<path fill="#FFFFFF" d="M3.3,123.7h3v-7.1h-3c-2,0-3.5,1.6-3.5,3.5l0,0C-0.2,122.1,1.3,123.7,3.3,123.7z"/>
		<polygon fill="#FFFFFF" points="73.3,116.6 84.9,120.2 73.3,123.7 		"/>
		<g>
			<path fill="#231F20" d="M43.9,68.3h-7.4c-0.4,0-0.8,0.3-0.8,0.8v7.4c0,0.4,0.3,0.8,0.8,0.8h7.4c0.4,0,0.8-0.3,0.8-0.8v-7.4
				C44.6,68.6,44.3,68.3,43.9,68.3z M43.1,75.7h-5.9v-5.9h5.9V75.7z"/>
			<path fill="#231F20" d="M43.9,82.2h-7.4c-0.4,0-0.8,0.3-0.8,0.8v7.4c0,0.4,0.3,0.8,0.8,0.8h7.4c0.4,0,0.8-0.3,0.8-0.8V83
				C44.6,82.6,44.3,82.2,43.9,82.2z M43.1,89.6h-5.9v-5.9h5.9V89.6z"/>
			<rect x="35.1" fill="#231F20" width="2.9" height="1.5"/>
			<path fill="#231F20" d="M126.2,103.8l-16.1-16.1c-1.2-1.2-2.7-1.8-4.4-1.8c-1.4,0-2.7,0.5-3.8,1.3l-4.3-4.3
				c9.9-10.5,9.8-27.1-0.5-37.4c-5.1-5.1-11.8-7.9-19-7.9c-3.3,0-6.4,0.6-9.4,1.7V18.1c0-0.2-0.1-0.4-0.2-0.5L51.2,0.2
				C51,0.1,50.8,0,50.6,0H41v1.5h8.9v16.6c0,0.4,0.3,0.8,0.8,0.8h16.6V40c-2.8,1.2-5.4,3-7.6,5.1H22.4c-2,0-4,0.8-5.4,2.2
				c-1.4,1.4-2.2,3.4-2.2,5.4v24c0,1.6-0.6,3.2-1.8,4.4c-1.2,1.2-2.7,1.8-4.3,1.8c-3.4,0-6.2-2.8-6.2-6.2V1.5H32V0H1.7
				C1.3,0,1,0.3,1,0.8v76c0,4.2,3.4,7.7,7.7,7.7h19.9v31.5H3.3c-2.4,0-4.3,1.9-4.3,4.3s1.9,4.3,4.3,4.3h25.3v4.3
				c0,0.4,0.3,0.8,0.8,0.8h66.2c0.4,0,0.8-0.3,0.8-0.8V84.2c0.1-0.1,0.2-0.1,0.2-0.2l4.3,4.3c-0.9,1.1-1.3,2.4-1.3,3.8
				c0,1.7,0.6,3.2,1.8,4.4l16.1,16.1c1.2,1.2,2.7,1.8,4.4,1.8c1.7,0,3.2-0.6,4.4-1.8C128.6,110.1,128.6,106.2,126.2,103.8z
				 M51.4,17.3V2.6l14.8,14.8H51.4z M13.2,82.9c0.3-0.2,0.6-0.5,0.9-0.7c1.4-1.4,2.2-3.4,2.2-5.4v-24c0-1.6,0.6-3.2,1.8-4.3
				c1.2-1.2,2.7-1.8,4.4-1.8c1.6,0,3.2,0.6,4.3,1.8c1.2,1.2,1.8,2.7,1.8,4.3v30.1H13.2z M7,117.4h65.5v2H7V117.4z M5.5,123H3.3
				c-1.5,0-2.8-1.3-2.8-2.8s1.3-2.8,2.8-2.8h2.2V123z M7,123v-2h65.5v2H7z M94.8,128H30.1v-3.5h43.2c0.1,0,0.1,0,0.2,0l11.6-3.5
				c0.3-0.1,0.5-0.4,0.5-0.7s-0.2-0.6-0.5-0.7l-11.6-3.5c0,0-0.1,0-0.1,0c0,0-0.1,0-0.1,0H30.1V52.8c0-2-0.8-4-2.2-5.4
				c-0.3-0.3-0.6-0.5-0.9-0.7h31.1c-4.4,4.9-6.8,11.2-6.8,17.9c0,1.8,0.2,3.6,0.5,5.3h-4.5c-0.4,0-0.8,0.3-0.8,0.8
				c0,0.4,0.3,0.8,0.8,0.8h4.8c0.2,0.9,0.5,1.7,0.8,2.6h-5.6c-0.4,0-0.8,0.3-0.8,0.8c0,0.4,0.3,0.8,0.8,0.8h6.2
				c1.3,3,3.2,5.7,5.6,8.1c0.1,0.1,0.3,0.3,0.4,0.4H47.3c-0.4,0-0.8,0.3-0.8,0.8c0,0.4,0.3,0.8,0.8,0.8h13.9c1.2,1,2.5,1.8,3.8,2.6
				H47.3c-0.4,0-0.8,0.3-0.8,0.8c0,0.4,0.3,0.8,0.8,0.8h20.9c3.1,1.2,6.5,1.9,9.9,1.9c6.1,0,12-2.1,16.7-5.8V128z M74,122.7v-5.1
				l8.3,2.5L74,122.7z M96,82.4c-4.8,4.8-11.1,7.4-17.9,7.4c-6.8,0-13.1-2.6-17.9-7.4c-4.8-4.8-7.4-11.1-7.4-17.9
				c0-6.8,2.6-13.1,7.4-17.9c4.8-4.8,11.1-7.4,17.9-7.4c6.8,0,13.1,2.6,17.9,7.4C105.9,56.5,105.9,72.6,96,82.4z M102.4,95.4
				c-0.9-0.9-1.4-2.1-1.4-3.3c0-1.3,0.5-2.4,1.4-3.3c0.9-0.9,2.1-1.4,3.3-1.4c1.3,0,2.4,0.5,3.3,1.4l1.1,1.1l-6.7,6.7L102.4,95.4z
				 M104.5,97.5l6.7-6.7l5.9,5.9l5.9,5.9l-6.7,6.7L104.5,97.5z M125.1,111.5c-0.9,0.9-2.1,1.4-3.3,1.4c-1.3,0-2.4-0.5-3.3-1.4
				l-1.1-1.1l6.7-6.7l1.1,1.1C126.9,106.7,126.9,109.7,125.1,111.5z"/>
		</g>
	</g>
</g>
</svg>
