<?xml version="1.0" encoding="utf-8"?>
<!-- Generator: Adobe Illustrator 18.0.0, SVG Export Plug-In . SVG Version: 6.00 Build 0)  -->
<!DOCTYPE svg PUBLIC "-//W3C//DTD SVG 1.1//EN" "http://www.w3.org/Graphics/SVG/1.1/DTD/svg11.dtd">
<svg version="1.1" id="Layer_1" xmlns="http://www.w3.org/2000/svg" xmlns:xlink="http://www.w3.org/1999/xlink" x="0px" y="0px"
	 viewBox="0 0 129.5 129.5" enable-background="new 0 0 129.5 129.5" xml:space="preserve">
<g>
	<g>
		<g>
			<path fill="#231F20" d="M45.5,109.3c-0.3-0.1-0.6-0.3-0.9-0.4l0.6-1.4c0.3,0.1,0.6,0.3,0.9,0.4L45.5,109.3z M42.7,108
				c-0.3-0.2-0.6-0.3-0.9-0.5l0.7-1.3c0.3,0.2,0.6,0.3,0.9,0.5L42.7,108z M40,106.5c-0.3-0.2-0.6-0.3-0.9-0.5l0.8-1.3
				c0.3,0.2,0.6,0.3,0.8,0.5L40,106.5z M37.5,104.9c-0.3-0.2-0.6-0.4-0.8-0.6l0.9-1.2c0.3,0.2,0.5,0.4,0.8,0.6L37.5,104.9z
				 M35,103.1c-0.3-0.2-0.5-0.4-0.8-0.6l0.9-1.2c0.3,0.2,0.5,0.4,0.8,0.6L35,103.1z M32.7,101.1c-0.3-0.2-0.5-0.5-0.8-0.7l1-1.1
				c0.2,0.2,0.5,0.4,0.7,0.7L32.7,101.1z M30.4,99c-0.2-0.2-0.5-0.5-0.7-0.7l1.1-1c0.2,0.2,0.5,0.5,0.7,0.7L30.4,99z M28.4,96.8
				c-0.2-0.3-0.4-0.5-0.7-0.8l1.1-1c0.2,0.3,0.4,0.5,0.6,0.7L28.4,96.8z M26.4,94.5c-0.2-0.3-0.4-0.5-0.6-0.8l1.2-0.9
				c0.2,0.3,0.4,0.5,0.6,0.8L26.4,94.5z M24.6,92c-0.2-0.3-0.4-0.6-0.6-0.8l1.3-0.8c0.2,0.3,0.4,0.5,0.5,0.8L24.6,92z M23,89.4
				c-0.2-0.3-0.3-0.6-0.5-0.9l1.3-0.7c0.2,0.3,0.3,0.6,0.5,0.8L23,89.4z M21.5,86.8c-0.2-0.3-0.3-0.6-0.5-0.9l1.4-0.7
				c0.1,0.3,0.3,0.6,0.4,0.9L21.5,86.8z"/>
		</g>
		<g>
			<path fill="#231F20" d="M85.9,108.4l-0.7-1.3c0.3-0.1,0.6-0.3,0.9-0.4l0.7,1.3C86.5,108.1,86.2,108.3,85.9,108.4z M88.6,107
				l-0.7-1.3c0.3-0.2,0.6-0.3,0.9-0.5l0.8,1.3C89.1,106.7,88.8,106.8,88.6,107z M91.2,105.4l-0.8-1.3c0.3-0.2,0.5-0.4,0.8-0.5
				l0.8,1.2C91.7,105.1,91.4,105.2,91.2,105.4z M93.7,103.7l-0.9-1.2c0.3-0.2,0.5-0.4,0.8-0.6l0.9,1.2
				C94.2,103.3,93.9,103.5,93.7,103.7z M96,101.8l-1-1.1c0.3-0.2,0.5-0.4,0.7-0.6l1,1.1C96.6,101.4,96.3,101.6,96,101.8z M98.3,99.8
				l-1-1.1c0.2-0.2,0.5-0.5,0.7-0.7l1.1,1.1C98.8,99.3,98.6,99.5,98.3,99.8z M100.4,97.6l-1.1-1c0.2-0.2,0.4-0.5,0.7-0.7l1.1,1
				C100.9,97.1,100.7,97.3,100.4,97.6z M102.4,95.3l-1.2-0.9c0.2-0.3,0.4-0.5,0.6-0.8l1.2,0.9C102.9,94.8,102.6,95,102.4,95.3z
				 M104.3,92.9l-1.2-0.9c0.2-0.3,0.4-0.5,0.6-0.8l1.2,0.8C104.7,92.3,104.5,92.6,104.3,92.9z M106,90.3l-1.3-0.8
				c0.2-0.3,0.3-0.6,0.5-0.8l1.3,0.8C106.3,89.7,106.1,90,106,90.3z M107.5,87.7l-1.3-0.7c0.2-0.3,0.3-0.6,0.5-0.9l1.3,0.7
				C107.8,87.1,107.7,87.4,107.5,87.7z M108.9,85l-1.4-0.6c0.1-0.3,0.3-0.6,0.4-0.9l1.4,0.6C109.1,84.3,109,84.7,108.9,85z"/>
		</g>
		<g>
			<path fill="#231F20" d="M21.6,46.1l-1.4-0.6c0.1-0.3,0.3-0.6,0.4-0.9l1.4,0.6C21.9,45.5,21.7,45.8,21.6,46.1z M22.9,43.4
				l-1.3-0.7c0.2-0.3,0.3-0.6,0.5-0.9l1.3,0.7C23.2,42.8,23,43.1,22.9,43.4z M24.3,40.8L23,40.1c0.2-0.3,0.3-0.6,0.5-0.9l1.3,0.8
				C24.6,40.3,24.5,40.5,24.3,40.8z M25.9,38.3l-1.2-0.8c0.2-0.3,0.4-0.6,0.6-0.8l1.2,0.9C26.2,37.8,26.1,38.1,25.9,38.3z
				 M27.6,35.9L26.4,35c0.2-0.3,0.4-0.5,0.6-0.8l1.2,0.9C28,35.4,27.8,35.7,27.6,35.9z M29.5,33.7l-1.1-1c0.2-0.3,0.5-0.5,0.7-0.8
				l1.1,1C29.9,33.2,29.7,33.4,29.5,33.7z M31.5,31.5l-1.1-1.1c0.2-0.2,0.5-0.5,0.7-0.7l1,1.1C32,31.1,31.8,31.3,31.5,31.5z
				 M33.7,29.5l-1-1.1c0.3-0.2,0.5-0.4,0.8-0.7l1,1.1C34.2,29.1,33.9,29.3,33.7,29.5z M35.9,27.6L35,26.4c0.3-0.2,0.5-0.4,0.8-0.6
				l0.9,1.2C36.5,27.2,36.2,27.4,35.9,27.6z M38.3,25.9l-0.8-1.2c0.3-0.2,0.6-0.4,0.8-0.6l0.8,1.3C38.9,25.5,38.6,25.7,38.3,25.9z
				 M40.8,24.3L40.1,23c0.3-0.2,0.6-0.3,0.9-0.5l0.7,1.3C41.4,24,41.1,24.1,40.8,24.3z M43.4,22.9l-0.7-1.3c0.3-0.2,0.6-0.3,0.9-0.5
				l0.7,1.3C44,22.6,43.7,22.7,43.4,22.9z"/>
		</g>
		<g>
			<path fill="#231F20" d="M107.1,44.3c-0.1-0.3-0.3-0.6-0.4-0.9l1.3-0.7c0.2,0.3,0.3,0.6,0.5,0.9L107.1,44.3z M105.7,41.7
				c-0.2-0.3-0.3-0.6-0.5-0.8l1.3-0.8c0.2,0.3,0.3,0.6,0.5,0.9L105.7,41.7z M104.2,39.2c-0.2-0.3-0.4-0.5-0.5-0.8l1.2-0.8
				c0.2,0.3,0.4,0.6,0.6,0.8L104.2,39.2z M102.5,36.7c-0.2-0.3-0.4-0.5-0.6-0.8l1.2-0.9c0.2,0.3,0.4,0.5,0.6,0.8L102.5,36.7z
				 M100.7,34.4c-0.2-0.3-0.4-0.5-0.6-0.7l1.1-1c0.2,0.3,0.4,0.5,0.7,0.8L100.7,34.4z M98.7,32.2c-0.2-0.2-0.5-0.5-0.7-0.7l1.1-1.1
				c0.2,0.2,0.5,0.5,0.7,0.7L98.7,32.2z M96.6,30.2c-0.2-0.2-0.5-0.4-0.7-0.7l1-1.1c0.3,0.2,0.5,0.5,0.8,0.7L96.6,30.2z M94.3,28.2
				c-0.3-0.2-0.5-0.4-0.8-0.6l0.9-1.2c0.3,0.2,0.5,0.4,0.8,0.6L94.3,28.2z M92,26.4c-0.3-0.2-0.5-0.4-0.8-0.6l0.8-1.2
				c0.3,0.2,0.6,0.4,0.8,0.6L92,26.4z M89.5,24.8c-0.3-0.2-0.6-0.3-0.8-0.5l0.8-1.3c0.3,0.2,0.6,0.3,0.9,0.5L89.5,24.8z M87,23.3
				c-0.3-0.2-0.6-0.3-0.9-0.5l0.7-1.3c0.3,0.2,0.6,0.3,0.9,0.5L87,23.3z M84.3,22c-0.3-0.1-0.6-0.3-0.9-0.4l0.6-1.4
				c0.3,0.1,0.6,0.3,0.9,0.4L84.3,22z"/>
		</g>
		<circle fill="#FFFFFF" cx="117.9" cy="64.8" r="10.8"/>
		<g>
			<path fill="#84DBFF" d="M117.9,71.6c-3.8,0-6.8-3.1-6.8-6.8c0-3.8,3.1-6.8,6.8-6.8c3.8,0,6.8,3.1,6.8,6.8
				C124.7,68.5,121.7,71.6,117.9,71.6z"/>
		</g>
		<circle fill="#FFFFFF" cx="64.7" cy="11.6" r="10.8"/>
		<g>
			<path fill="#FF7058" d="M64.7,18.4c-3.8,0-6.8-3.1-6.8-6.8c0-3.8,3.1-6.8,6.8-6.8c3.8,0,6.8,3.1,6.8,6.8
				C71.6,15.3,68.5,18.4,64.7,18.4z"/>
		</g>
		<path fill="#FFFFFF" d="M3.9,72.4c-4.2-4.2-4.2-11.1,0-15.3c4.2-4.2,11.1-4.2,15.3,0c4.2,4.2,4.2,11.1,0,15.3
			C15,76.6,8.1,76.6,3.9,72.4"/>
		<g>
			<path fill="#CED5E0" d="M11.6,71.6c-3.8,0-6.8-3.1-6.8-6.8c0-3.8,3.1-6.8,6.8-6.8c3.8,0,6.8,3.1,6.8,6.8
				C18.4,68.5,15.3,71.6,11.6,71.6z"/>
		</g>
		<circle fill="#FFFFFF" cx="64.7" cy="117.9" r="10.8"/>
		<g>
			<path fill="#FFD05B" d="M64.7,124.7c-3.8,0-6.8-3.1-6.8-6.8c0-3.8,3.1-6.8,6.8-6.8c3.8,0,6.8,3.1,6.8,6.8
				C71.6,121.7,68.5,124.7,64.7,124.7z"/>
		</g>
		<g>
			<g>
				<path fill="#231F20" d="M15.6,8.9c-0.2,0-0.4-0.1-0.5-0.2c-0.3-0.3-0.3-0.8,0-1.1l1.3-1.3c0.3-0.3,0.8-0.3,1.1,0
					c0.3,0.3,0.3,0.8,0,1.1l-1.3,1.3C16,8.8,15.8,8.9,15.6,8.9z"/>
			</g>
			<g>
				<path fill="#231F20" d="M11.6,13c-0.2,0-0.4-0.1-0.5-0.2c-0.3-0.3-0.3-0.8,0-1.1l1.3-1.3c0.3-0.3,0.8-0.3,1.1,0
					c0.3,0.3,0.3,0.8,0,1.1l-1.3,1.3C11.9,12.9,11.8,13,11.6,13z"/>
			</g>
			<g>
				<path fill="#231F20" d="M16.9,13c-0.2,0-0.4-0.1-0.5-0.2l-1.3-1.3c-0.3-0.3-0.3-0.8,0-1.1c0.3-0.3,0.8-0.3,1.1,0l1.3,1.3
					c0.3,0.3,0.3,0.8,0,1.1C17.3,12.9,17.1,13,16.9,13z"/>
			</g>
			<g>
				<path fill="#231F20" d="M12.9,8.9c-0.2,0-0.4-0.1-0.5-0.2L11,7.4c-0.3-0.3-0.3-0.8,0-1.1c0.3-0.3,0.8-0.3,1.1,0l1.3,1.3
					c0.3,0.3,0.3,0.8,0,1.1C13.2,8.8,13,8.9,12.9,8.9z"/>
			</g>
		</g>
		<g>
			<g>
				<path fill="#231F20" d="M119.3,10.9c-0.2,0-0.4-0.1-0.5-0.2c-0.3-0.3-0.3-0.8,0-1.1l1.3-1.3c0.3-0.3,0.8-0.3,1.1,0
					c0.3,0.3,0.3,0.8,0,1.1l-1.3,1.3C119.7,10.9,119.5,10.9,119.3,10.9z"/>
			</g>
			<g>
				<path fill="#231F20" d="M115.3,15c-0.2,0-0.4-0.1-0.5-0.2c-0.3-0.3-0.3-0.8,0-1.1l1.3-1.3c0.3-0.3,0.8-0.3,1.1,0
					c0.3,0.3,0.3,0.8,0,1.1l-1.3,1.3C115.6,14.9,115.5,15,115.3,15z"/>
			</g>
			<g>
				<path fill="#231F20" d="M120.6,15c-0.2,0-0.4-0.1-0.5-0.2l-1.3-1.3c-0.3-0.3-0.3-0.8,0-1.1c0.3-0.3,0.8-0.3,1.1,0l1.3,1.3
					c0.3,0.3,0.3,0.8,0,1.1C121,14.9,120.8,15,120.6,15z"/>
			</g>
			<g>
				<path fill="#231F20" d="M116.6,10.9c-0.2,0-0.4-0.1-0.5-0.2l-1.3-1.3c-0.3-0.3-0.3-0.8,0-1.1c0.3-0.3,0.8-0.3,1.1,0l1.3,1.3
					c0.3,0.3,0.3,0.8,0,1.1C116.9,10.9,116.7,10.9,116.6,10.9z"/>
			</g>
		</g>
		<g>
			<g>
				<path fill="#231F20" d="M20.7,116.8c-0.2,0-0.4-0.1-0.5-0.2c-0.3-0.3-0.3-0.8,0-1.1l1.3-1.3c0.3-0.3,0.8-0.3,1.1,0
					c0.3,0.3,0.3,0.8,0,1.1l-1.3,1.3C21.1,116.8,20.9,116.8,20.7,116.8z"/>
			</g>
			<g>
				<path fill="#231F20" d="M16.7,120.9c-0.2,0-0.4-0.1-0.5-0.2c-0.3-0.3-0.3-0.8,0-1.1l1.3-1.3c0.3-0.3,0.8-0.3,1.1,0
					c0.3,0.3,0.3,0.8,0,1.1l-1.3,1.3C17,120.8,16.8,120.9,16.7,120.9z"/>
			</g>
			<g>
				<path fill="#231F20" d="M22,120.9c-0.2,0-0.4-0.1-0.5-0.2l-1.3-1.3c-0.3-0.3-0.3-0.8,0-1.1c0.3-0.3,0.8-0.3,1.1,0l1.3,1.3
					c0.3,0.3,0.3,0.8,0,1.1C22.4,120.8,22.2,120.9,22,120.9z"/>
			</g>
			<g>
				<path fill="#231F20" d="M17.9,116.8c-0.2,0-0.4-0.1-0.5-0.2l-1.3-1.3c-0.3-0.3-0.3-0.8,0-1.1c0.3-0.3,0.8-0.3,1.1,0l1.3,1.3
					c0.3,0.3,0.3,0.8,0,1.1C18.3,116.8,18.1,116.8,17.9,116.8z"/>
			</g>
		</g>
		<g>
			<g>
				<path fill="#231F20" d="M108.9,117.2h-8.1c-0.4,0-0.8-0.3-0.8-0.8c0-0.4,0.3-0.8,0.8-0.8h8.1c0.4,0,0.8,0.3,0.8,0.8
					C109.7,116.9,109.3,117.2,108.9,117.2z"/>
			</g>
			<g>
				<path fill="#231F20" d="M112.1,120.2h-4c-0.4,0-0.8-0.3-0.8-0.8c0-0.4,0.3-0.8,0.8-0.8h4c0.4,0,0.8,0.3,0.8,0.8
					C112.8,119.8,112.5,120.2,112.1,120.2z"/>
			</g>
			<g>
				<path fill="#231F20" d="M116.4,117.2h-3.8c-0.4,0-0.8-0.3-0.8-0.8c0-0.4,0.3-0.8,0.8-0.8h3.8c0.4,0,0.8,0.3,0.8,0.8
					C117.1,116.9,116.8,117.2,116.4,117.2z"/>
			</g>
			<g>
				<path fill="#231F20" d="M105.2,120.2h-0.8c-0.4,0-0.8-0.3-0.8-0.8c0-0.4,0.3-0.8,0.8-0.8h0.8c0.4,0,0.8,0.3,0.8,0.8
					C106,119.8,105.6,120.2,105.2,120.2z"/>
			</g>
		</g>
		<path fill="#FFFFFF" d="M78.1,47.4c-0.2-3.5-3.1-6.1-6.5-5.8C56.3,43.1,46,36.8,46,36.8s-0.6,7,2.2,12.4c-2.3,2-3.8,4.9-3.8,8.1
			v15c0,2.2,1.7,3.9,3.9,3.9h32.8c2.2,0,3.9-1.7,3.9-3.9v-15C85.1,52.7,82.2,48.9,78.1,47.4z"/>
		<path fill="#FFFFFF" d="M81.3,68.2h-0.2v-4.3c-6.6-0.7-12.1-5.3-13.8-11.6c-4,6.5-10.9,11-19,11.6v4.2h-0.2
			c-1.3,0-2.4,1.1-2.4,2.4s1.1,2.4,2.4,2.4h0.2v3.3c0,9.1,7.3,16.4,16.4,16.4s16.4-7.3,16.4-16.4V73h0.2c1.3,0,2.4-1.1,2.4-2.4
			S82.6,68.2,81.3,68.2z"/>
		<path fill="#231F20" d="M78.8,46.8c-0.5-3.6-3.7-6.4-7.2-6c-1.6,0.2-3.2,0.2-4.8,0.2c-12.3,0-20.3-4.8-20.4-4.9l-1-0.6l-0.1,1.2
			c0,0.3-0.5,6.8,2,12.3c-2.3,2.1-3.6,5.1-3.6,8.3v15c0,2.3,1.7,4.2,3.9,4.6c0.4,9.1,7.9,16.5,17.1,16.5c9.2,0,16.8-7.3,17.1-16.5
			c2.2-0.3,4-2.3,4-4.6v-15C85.8,52.7,83,48.6,78.8,46.8z M48.7,49.8l0.5-0.4l-0.3-0.5c-2-3.9-2.2-8.6-2.2-10.8
			c2.6,1.3,9.9,4.5,20.1,4.5c1.6,0,3.3-0.1,4.9-0.2c2.9-0.3,5.4,2,5.7,5.1l0,0.5l0.5,0.2c3.9,1.4,6.5,5.1,6.5,9.3v12.3
			c-0.3-1.1-1.3-1.9-2.4-2.2v-2.8c0.3,0,0.6,0,0.9,0c0.4,0,0.8-0.3,0.8-0.7c0-0.4-0.3-0.8-0.8-0.8c-0.5,0-1,0-1.5-0.1
			c-6.2-0.6-11.5-5-13.2-11c-0.1-0.3-0.3-0.5-0.6-0.5c-0.3,0-0.6,0.1-0.7,0.4c-4,6.5-10.9,10.7-18.4,11.2c-0.6,0-1.1,0.1-1.7,0.1
			c-0.4,0-0.8,0.3-0.8,0.8c0,0.4,0.3,0.7,0.8,0.7c0.3,0,0.7,0,1,0v2.8c-1.1,0.2-2.1,1.1-2.4,2.2V57.3C45.2,54.4,46.4,51.7,48.7,49.8
			z M45.2,72.4v-0.8c0.3,1.1,1.3,1.9,2.4,2.2v1.7C46.2,75.1,45.2,73.8,45.2,72.4z M80.4,76.2c0,8.6-7,15.7-15.7,15.7
			c-8.6,0-15.7-7-15.7-15.7v-4h-0.9c-0.9,0-1.7-0.7-1.7-1.7c0-0.9,0.7-1.7,1.7-1.7h0.9v-4.3c7.2-0.7,13.8-4.6,18-10.6
			c2.2,5.6,7.3,9.7,13.3,10.5v4.4h0.9c0.9,0,1.7,0.7,1.7,1.7c0,0.9-0.7,1.7-1.7,1.7h-0.9V76.2z M81.9,75.4v-1.7
			c1.2-0.2,2.1-1.1,2.4-2.2v0.9C84.3,73.8,83.3,75.1,81.9,75.4z"/>
		<g>
			<path fill="#E6E9EE" d="M75.4,69.7c-0.3-1.4-1.5-2.5-3-2.5c-1.5,0-2.8,1.1-3,2.5"/>
			<path fill="#231F20" d="M75.4,70.5c-0.4,0-0.7-0.3-0.7-0.6c-0.2-1.1-1.2-1.9-2.3-1.9c-1.1,0-2.1,0.8-2.3,1.9
				c-0.1,0.4-0.5,0.7-0.9,0.6c-0.4-0.1-0.7-0.5-0.6-0.9c0.3-1.8,1.9-3.1,3.8-3.1c1.8,0,3.4,1.3,3.8,3.1c0.1,0.4-0.2,0.8-0.6,0.9
				C75.5,70.5,75.4,70.5,75.4,70.5z"/>
		</g>
		<g>
			<path fill="#E6E9EE" d="M60.2,69.7c-0.3-1.4-1.5-2.5-3-2.5s-2.8,1.1-3,2.5"/>
			<path fill="#231F20" d="M60.1,70.5c-0.4,0-0.7-0.3-0.7-0.6c-0.2-1.1-1.2-1.9-2.3-1.9c-1.1,0-2.1,0.8-2.3,1.9
				c-0.1,0.4-0.5,0.7-0.9,0.6c-0.4-0.1-0.7-0.5-0.6-0.9c0.3-1.8,1.9-3.1,3.8-3.1s3.4,1.3,3.8,3.1c0.1,0.4-0.2,0.8-0.6,0.9
				C60.2,70.5,60.2,70.5,60.1,70.5z"/>
		</g>
		<g>
			<path fill="#231F20" d="M64.7,86.3c-2.9,0-5.4-1.9-6.2-4.7l-0.3-1h12.9l-0.3,1C70.2,84.4,67.6,86.3,64.7,86.3z M60.4,82.2
				c0.8,1.6,2.5,2.7,4.4,2.7c1.9,0,3.5-1.1,4.4-2.7H60.4z"/>
		</g>
		<g>
			<circle fill="#84DBFF" cx="11.3" cy="25.5" r="2.1"/>
		</g>
		<g>
			<circle fill="#FFD05B" cx="100.4" cy="9.5" r="2.1"/>
		</g>
		<g>
			<circle fill="#CED5E0" cx="119.3" cy="105.3" r="2.1"/>
		</g>
		<g>
			<circle fill="#FF7058" cx="9.3" cy="124.7" r="2.1"/>
		</g>
		<path fill="#231F20" d="M117.9,53.2c-0.2,0-0.3,0-0.5,0c-4.5-20.5-20.6-36.6-41.1-41.1c0-0.2,0-0.3,0-0.5C76.3,5.2,71.1,0,64.7,0
			c-6.4,0-11.6,5.2-11.6,11.6c0,0.2,0,0.3,0,0.5c-20.5,4.5-36.6,20.6-41.1,41.1c-0.2,0-0.3,0-0.5,0c-3.1,0-6,1.2-8.2,3.4
			c-4.5,4.5-4.5,11.8,0,16.4c2.2,2.2,5.1,3.4,8.2,3.4c0.2,0,0.3,0,0.5,0c4.5,20.5,20.6,36.6,41.1,41.1c0,0.2,0,0.3,0,0.5
			c0,6.4,5.2,11.6,11.6,11.6c6.4,0,11.6-5.2,11.6-11.6c0-0.2,0-0.3,0-0.5c20.5-4.5,36.6-20.6,41.1-41.1c0.2,0,0.3,0,0.5,0
			c6.4,0,11.6-5.2,11.6-11.6C129.5,58.4,124.3,53.2,117.9,53.2z M64.7,1.5c5.6,0,10.1,4.5,10.1,10.1c0,5.6-4.5,10.1-10.1,10.1
			c-5.6,0-10.1-4.5-10.1-10.1C54.7,6,59.2,1.5,64.7,1.5z M11.6,74.8c-2.7,0-5.2-1-7.1-2.9c-3.9-3.9-3.9-10.3,0-14.2
			c1.9-1.9,4.4-2.9,7.1-2.9c2.7,0,5.2,1,7.1,2.9c3.9,3.9,3.9,10.3,0,14.2C16.8,73.8,14.3,74.8,11.6,74.8z M64.7,128
			c-5.6,0-10.1-4.5-10.1-10.1c0-5.6,4.5-10.1,10.1-10.1c5.6,0,10.1,4.5,10.1,10.1C74.8,123.5,70.3,128,64.7,128z M76.1,115.9
			c-0.9-5.2-5.3-9.2-10.6-9.5V93.7H64v12.7c-5.4,0.3-9.7,4.3-10.6,9.5c-19.8-4.4-35.4-20-39.8-39.8c2.3-0.4,4.5-1.5,6.2-3.2
			c2.1-2.1,3.2-4.9,3.4-7.7h12.5v-1.5H23.1c-0.2-2.6-1.3-5.2-3.3-7.2c-1.7-1.7-3.8-2.8-6.2-3.2C18,33.6,33.6,18,53.4,13.6
			c0.9,5.2,5.3,9.2,10.6,9.5v12.3h1.5V23.1c5.3-0.3,9.7-4.3,10.6-9.5c19.8,4.4,35.4,20,39.8,39.8c-5.1,0.9-9.1,5.2-9.5,10.4H93.9
			v1.5h12.5c0.2,5.5,4.3,9.9,9.5,10.9C111.5,95.9,95.9,111.5,76.1,115.9z M117.9,74.8c-5.6,0-10.1-4.5-10.1-10.1
			c0-5.6,4.5-10.1,10.1-10.1c5.6,0,10.1,4.5,10.1,10.1C128,70.3,123.5,74.8,117.9,74.8z"/>
	</g>
</g>
</svg>
