<?xml version="1.0" encoding="UTF-8"?>
<svg xmlns="http://www.w3.org/2000/svg" xmlns:xlink="http://www.w3.org/1999/xlink" width="82px" height="82px" viewBox="0 0 82 82" version="1.1">
<g id="surface1">
<path style=" stroke:none;fill-rule:nonzero;fill:rgb(13.72549%,12.156863%,12.54902%);fill-opacity:1;" d="M 41.03125 22.414062 C 34.890625 22.414062 29.824219 17.414062 29.824219 11.207031 L 30.773438 11.207031 C 30.773438 16.84375 35.394531 21.464844 41.03125 21.464844 C 46.667969 21.464844 51.289062 16.84375 51.289062 11.207031 C 51.289062 5.570312 46.667969 0.949219 41.03125 0.949219 L 41.03125 0 C 47.171875 0 52.238281 5.003906 52.238281 11.207031 C 52.175781 17.351562 47.171875 22.414062 41.03125 22.414062 Z M 41.03125 22.414062 "/>
<path style=" stroke:none;fill-rule:nonzero;fill:rgb(13.72549%,12.156863%,12.54902%);fill-opacity:1;" d="M 30.773438 11.207031 L 29.824219 11.207031 C 29.824219 11.019531 29.824219 10.765625 29.824219 10.574219 L 30.773438 10.636719 C 30.773438 10.765625 30.773438 11.019531 30.773438 11.207031 Z M 30.898438 9.371094 L 29.949219 9.179688 C 30.015625 8.992188 30.015625 8.738281 30.078125 8.546875 L 31.027344 8.738281 C 30.964844 8.992188 30.964844 9.179688 30.898438 9.371094 Z M 31.40625 7.660156 L 30.519531 7.34375 C 30.582031 7.15625 30.710938 6.902344 30.773438 6.710938 L 31.660156 7.09375 C 31.535156 7.28125 31.46875 7.472656 31.40625 7.660156 Z M 32.167969 6.015625 L 31.34375 5.507812 C 31.46875 5.320312 31.597656 5.128906 31.722656 4.9375 L 32.484375 5.445312 C 32.355469 5.636719 32.292969 5.824219 32.167969 6.015625 Z M 33.242188 4.496094 L 32.546875 3.863281 C 32.671875 3.671875 32.863281 3.546875 32.988281 3.355469 L 33.6875 3.988281 C 33.496094 4.242188 33.371094 4.367188 33.242188 4.496094 Z M 34.507812 3.230469 L 33.875 2.46875 C 34.066406 2.34375 34.191406 2.214844 34.382812 2.089844 L 34.953125 2.847656 C 34.828125 2.976562 34.699219 3.101562 34.507812 3.230469 Z M 36.03125 2.214844 L 35.585938 1.394531 C 35.777344 1.265625 35.964844 1.203125 36.15625 1.078125 L 36.597656 1.898438 C 36.347656 2.027344 36.21875 2.152344 36.03125 2.214844 Z M 37.675781 1.519531 L 37.359375 0.632812 C 37.550781 0.570312 37.800781 0.507812 37.992188 0.441406 L 38.246094 1.328125 C 38.054688 1.394531 37.867188 1.457031 37.675781 1.519531 Z M 39.449219 1.078125 L 39.320312 0.125 C 39.511719 0.0625 39.765625 0.0625 39.957031 0.0625 L 40.019531 1.011719 C 39.828125 1.011719 39.636719 1.011719 39.449219 1.078125 Z M 39.449219 1.078125 "/>
<path style=" stroke:none;fill-rule:nonzero;fill:rgb(13.72549%,12.156863%,12.54902%);fill-opacity:1;" d="M 41.03125 82 C 34.890625 82 29.824219 76.996094 29.824219 70.792969 L 30.773438 70.792969 C 30.773438 76.429688 35.394531 81.050781 41.03125 81.050781 C 46.667969 81.050781 51.289062 76.429688 51.289062 70.792969 C 51.289062 65.15625 46.667969 60.535156 41.03125 60.535156 L 41.03125 59.585938 C 47.171875 59.585938 52.238281 64.585938 52.238281 70.792969 C 52.238281 76.996094 47.171875 82 41.03125 82 Z M 41.03125 82 "/>
<path style=" stroke:none;fill-rule:nonzero;fill:rgb(13.72549%,12.156863%,12.54902%);fill-opacity:1;" d="M 30.773438 70.792969 L 29.824219 70.792969 C 29.824219 70.601562 29.824219 70.347656 29.824219 70.160156 L 30.773438 70.222656 C 30.773438 70.414062 30.773438 70.601562 30.773438 70.792969 Z M 30.898438 69.019531 L 29.949219 68.828125 C 30.015625 68.640625 30.015625 68.386719 30.078125 68.195312 L 31.027344 68.386719 C 30.964844 68.574219 30.964844 68.828125 30.898438 69.019531 Z M 31.40625 67.246094 L 30.519531 66.929688 C 30.582031 66.738281 30.710938 66.488281 30.773438 66.296875 L 31.660156 66.675781 C 31.535156 66.867188 31.46875 67.054688 31.40625 67.246094 Z M 32.167969 65.601562 L 31.34375 65.09375 C 31.46875 64.902344 31.597656 64.714844 31.722656 64.523438 L 32.484375 65.03125 C 32.355469 65.285156 32.292969 65.410156 32.167969 65.601562 Z M 33.242188 64.144531 L 32.546875 63.511719 C 32.671875 63.320312 32.863281 63.195312 32.988281 63.003906 L 33.6875 63.636719 C 33.496094 63.828125 33.371094 64.015625 33.242188 64.144531 Z M 34.507812 62.878906 L 33.875 62.117188 C 34.066406 61.992188 34.191406 61.863281 34.382812 61.738281 L 34.953125 62.496094 C 34.828125 62.625 34.699219 62.75 34.507812 62.878906 Z M 36.03125 61.863281 L 35.585938 61.039062 C 35.777344 60.914062 35.964844 60.851562 36.15625 60.722656 L 36.597656 61.546875 C 36.347656 61.675781 36.21875 61.738281 36.03125 61.863281 Z M 37.675781 61.105469 L 37.359375 60.21875 C 37.550781 60.15625 37.800781 60.089844 37.992188 60.027344 L 38.246094 60.914062 C 38.054688 60.976562 37.867188 61.039062 37.675781 61.105469 Z M 39.449219 60.660156 L 39.320312 59.710938 C 39.511719 59.648438 39.765625 59.648438 39.957031 59.648438 L 40.019531 60.597656 C 39.828125 60.597656 39.636719 60.660156 39.449219 60.660156 Z M 39.449219 60.660156 "/>
<path style=" stroke:none;fill-rule:nonzero;fill:rgb(13.72549%,12.156863%,12.54902%);fill-opacity:1;" d="M 70.792969 52.175781 C 64.648438 52.175781 59.585938 47.171875 59.585938 40.96875 L 60.535156 40.96875 C 60.535156 46.605469 65.15625 51.226562 70.792969 51.226562 C 76.429688 51.226562 81.050781 46.605469 81.050781 40.96875 C 81.050781 35.332031 76.429688 30.710938 70.792969 30.710938 L 70.792969 29.761719 C 76.933594 29.761719 82 34.761719 82 40.96875 C 82 47.171875 76.996094 52.175781 70.792969 52.175781 Z M 70.792969 52.175781 "/>
<path style=" stroke:none;fill-rule:nonzero;fill:rgb(13.72549%,12.156863%,12.54902%);fill-opacity:1;" d="M 60.535156 41.03125 L 59.585938 41.03125 C 59.585938 40.839844 59.585938 40.589844 59.585938 40.398438 L 60.535156 40.460938 C 60.597656 40.589844 60.535156 40.777344 60.535156 41.03125 Z M 60.722656 39.195312 L 59.773438 39.003906 C 59.835938 38.816406 59.835938 38.5625 59.902344 38.371094 L 60.851562 38.5625 C 60.789062 38.816406 60.789062 39.003906 60.722656 39.195312 Z M 61.167969 37.421875 L 60.28125 37.105469 C 60.34375 36.914062 60.472656 36.664062 60.535156 36.472656 L 61.421875 36.851562 C 61.359375 37.042969 61.292969 37.234375 61.167969 37.421875 Z M 61.992188 35.777344 L 61.167969 35.269531 C 61.292969 35.078125 61.421875 34.890625 61.546875 34.699219 L 62.308594 35.207031 C 62.179688 35.460938 62.054688 35.648438 61.992188 35.777344 Z M 63.003906 34.320312 L 62.308594 33.6875 C 62.433594 33.496094 62.625 33.371094 62.75 33.179688 L 63.445312 33.8125 C 63.320312 34.003906 63.195312 34.191406 63.003906 34.320312 Z M 64.332031 33.054688 L 63.699219 32.292969 C 63.890625 32.167969 64.015625 32.039062 64.207031 31.914062 L 64.777344 32.671875 C 64.648438 32.800781 64.460938 32.925781 64.332031 33.054688 Z M 65.851562 32.039062 L 65.410156 31.21875 C 65.601562 31.089844 65.789062 31.027344 65.980469 30.898438 L 66.421875 31.722656 C 66.167969 31.851562 65.980469 31.976562 65.851562 32.039062 Z M 67.5 31.28125 L 67.183594 30.394531 C 67.371094 30.332031 67.625 30.265625 67.816406 30.203125 L 68.070312 31.089844 C 67.878906 31.152344 67.691406 31.21875 67.5 31.28125 Z M 69.273438 30.898438 L 69.144531 29.949219 C 69.335938 29.886719 69.589844 29.886719 69.777344 29.886719 L 69.84375 30.835938 C 69.652344 30.835938 69.460938 30.835938 69.273438 30.898438 Z M 69.273438 30.898438 "/>
<path style=" stroke:none;fill-rule:nonzero;fill:rgb(100%,43.921569%,34.509804%);fill-opacity:1;" d="M 78.011719 41.03125 C 78.011719 45.019531 74.777344 48.25 70.792969 48.25 C 66.804688 48.25 63.574219 45.019531 63.574219 41.03125 C 63.574219 37.046875 66.804688 33.8125 70.792969 33.8125 C 74.777344 33.8125 78.011719 37.046875 78.011719 41.03125 Z M 78.011719 41.03125 "/>
<path style=" stroke:none;fill-rule:nonzero;fill:rgb(90.196078%,91.372549%,93.333333%);fill-opacity:1;" d="M 18.425781 41.03125 C 18.425781 45.019531 15.195312 48.25 11.207031 48.25 C 7.222656 48.25 3.988281 45.019531 3.988281 41.03125 C 3.988281 37.046875 7.222656 33.8125 11.207031 33.8125 C 15.195312 33.8125 18.425781 37.046875 18.425781 41.03125 Z M 18.425781 41.03125 "/>
<path style=" stroke:none;fill-rule:nonzero;fill:rgb(100%,81.568627%,35.686275%);fill-opacity:1;" d="M 48.1875 70.792969 C 48.1875 74.777344 44.953125 78.011719 40.96875 78.011719 C 36.980469 78.011719 33.75 74.777344 33.75 70.792969 C 33.75 66.804688 36.980469 63.574219 40.96875 63.574219 C 44.953125 63.574219 48.1875 66.804688 48.1875 70.792969 Z M 48.1875 70.792969 "/>
<path style=" stroke:none;fill-rule:nonzero;fill:rgb(51.764706%,85.882353%,100%);fill-opacity:1;" d="M 48.1875 11.207031 C 48.1875 15.195312 44.953125 18.425781 40.96875 18.425781 C 36.980469 18.425781 33.75 15.195312 33.75 11.207031 C 33.75 7.222656 36.980469 3.988281 40.96875 3.988281 C 44.953125 3.988281 48.1875 7.222656 48.1875 11.207031 Z M 48.1875 11.207031 "/>
<path style=" stroke:none;fill-rule:nonzero;fill:rgb(100%,100%,100%);fill-opacity:1;" d="M 21.910156 22.984375 L 15.324219 25.835938 L 16.148438 18.679688 Z M 21.910156 22.984375 "/>
<path style=" stroke:none;fill-rule:nonzero;fill:rgb(100%,100%,100%);fill-opacity:1;" d="M 59.015625 21.910156 L 56.164062 15.324219 L 63.320312 16.148438 Z M 59.015625 21.910156 "/>
<path style=" stroke:none;fill-rule:nonzero;fill:rgb(100%,100%,100%);fill-opacity:1;" d="M 22.984375 60.089844 L 25.835938 66.675781 L 18.679688 65.851562 Z M 22.984375 60.089844 "/>
<path style=" stroke:none;fill-rule:nonzero;fill:rgb(100%,100%,100%);fill-opacity:1;" d="M 60.089844 59.015625 L 66.675781 56.164062 L 65.851562 63.320312 Z M 60.089844 59.015625 "/>
<path style=" stroke:none;fill-rule:nonzero;fill:rgb(13.72549%,12.156863%,12.54902%);fill-opacity:1;" d="M 15.324219 26.339844 C 15.386719 26.339844 15.449219 26.339844 15.511719 26.277344 L 22.097656 23.367188 C 22.226562 23.300781 22.351562 23.175781 22.351562 22.984375 C 22.351562 22.796875 22.289062 22.667969 22.164062 22.542969 L 19.757812 20.769531 C 21.59375 18.804688 23.746094 17.097656 26.023438 15.703125 L 25.519531 14.878906 C 23.046875 16.335938 20.894531 18.109375 18.933594 20.136719 L 16.335938 18.234375 C 16.210938 18.109375 16.019531 18.109375 15.894531 18.171875 C 15.765625 18.234375 15.640625 18.363281 15.640625 18.554688 L 14.816406 25.707031 C 14.816406 25.898438 14.878906 26.023438 15.007812 26.152344 C 15.132812 26.277344 15.261719 26.339844 15.324219 26.339844 Z M 16.527344 19.566406 L 21.023438 22.859375 L 15.957031 25.074219 Z M 16.527344 19.566406 "/>
<path style=" stroke:none;fill-rule:nonzero;fill:rgb(13.72549%,12.156863%,12.54902%);fill-opacity:1;" d="M 58.953125 22.414062 C 59.015625 22.414062 59.015625 22.414062 58.953125 22.414062 C 59.140625 22.414062 59.269531 22.351562 59.394531 22.226562 L 61.167969 19.820312 C 63.128906 21.65625 64.839844 23.808594 66.234375 26.152344 L 67.054688 25.644531 C 65.601562 23.175781 63.828125 21.023438 61.800781 19.058594 L 63.699219 16.464844 C 63.828125 16.335938 63.828125 16.148438 63.765625 16.019531 C 63.699219 15.894531 63.574219 15.765625 63.382812 15.765625 L 56.230469 14.945312 C 56.039062 14.945312 55.910156 15.007812 55.785156 15.132812 C 55.660156 15.261719 55.660156 15.449219 55.722656 15.578125 L 58.570312 22.164062 C 58.699219 22.289062 58.824219 22.351562 58.953125 22.414062 Z M 62.433594 16.527344 L 59.140625 21.023438 L 56.925781 15.957031 Z M 62.433594 16.527344 "/>
<path style=" stroke:none;fill-rule:nonzero;fill:rgb(13.72549%,12.156863%,12.54902%);fill-opacity:1;" d="M 23.367188 59.902344 C 23.300781 59.773438 23.175781 59.648438 22.984375 59.648438 C 22.796875 59.648438 22.667969 59.710938 22.542969 59.835938 L 20.769531 62.308594 C 18.804688 60.472656 17.097656 58.316406 15.765625 55.976562 L 14.945312 56.480469 C 16.398438 58.953125 18.171875 61.105469 20.199219 63.066406 L 18.300781 65.664062 C 18.171875 65.789062 18.171875 65.980469 18.234375 66.105469 C 18.300781 66.234375 18.425781 66.359375 18.617188 66.359375 L 25.769531 67.183594 C 25.769531 67.183594 25.835938 67.183594 25.835938 67.183594 C 25.960938 67.183594 26.152344 67.121094 26.214844 66.992188 C 26.339844 66.867188 26.339844 66.675781 26.277344 66.550781 Z M 19.566406 65.472656 L 22.859375 60.976562 L 25.074219 66.042969 Z M 19.566406 65.472656 "/>
<path style=" stroke:none;fill-rule:nonzero;fill:rgb(13.72549%,12.156863%,12.54902%);fill-opacity:1;" d="M 66.929688 55.785156 C 66.804688 55.660156 66.613281 55.660156 66.488281 55.722656 L 59.902344 58.632812 C 59.773438 58.699219 59.648438 58.824219 59.648438 59.015625 C 59.648438 59.203125 59.710938 59.332031 59.835938 59.457031 L 62.308594 61.230469 C 60.472656 63.195312 58.316406 64.902344 55.976562 66.234375 L 56.480469 67.054688 C 58.953125 65.601562 61.105469 63.828125 63.066406 61.800781 L 65.664062 63.699219 C 65.726562 63.765625 65.851562 63.765625 65.917969 63.765625 C 65.980469 63.765625 66.042969 63.765625 66.105469 63.699219 C 66.234375 63.636719 66.359375 63.511719 66.359375 63.320312 L 67.183594 56.164062 C 67.183594 56.039062 67.054688 55.910156 66.929688 55.785156 Z M 65.472656 62.433594 L 60.976562 59.140625 L 66.042969 56.925781 Z M 65.472656 62.433594 "/>
<path style=" stroke:none;fill-rule:nonzero;fill:rgb(13.72549%,12.156863%,12.54902%);fill-opacity:1;" d="M 11.207031 52.175781 C 5.003906 52.175781 0 47.171875 0 41.03125 L 0.949219 41.03125 C 0.949219 46.667969 5.570312 51.289062 11.207031 51.289062 C 16.84375 51.289062 21.464844 46.667969 21.464844 41.03125 C 21.464844 35.394531 16.84375 30.773438 11.207031 30.773438 L 11.207031 29.824219 C 17.351562 29.824219 22.414062 34.828125 22.414062 41.03125 C 22.414062 47.238281 17.351562 52.175781 11.207031 52.175781 Z M 11.207031 52.175781 "/>
<path style=" stroke:none;fill-rule:nonzero;fill:rgb(13.72549%,12.156863%,12.54902%);fill-opacity:1;" d="M 0.949219 41.03125 L 0 41.03125 C 0 40.839844 0 40.589844 0 40.398438 L 0.949219 40.460938 C 0.949219 40.589844 0.949219 40.777344 0.949219 41.03125 Z M 1.140625 39.195312 L 0.191406 39.003906 C 0.253906 38.816406 0.253906 38.5625 0.316406 38.371094 L 1.203125 38.625 C 1.203125 38.816406 1.140625 39.003906 1.140625 39.195312 Z M 1.582031 37.421875 L 0.695312 37.105469 C 0.761719 36.914062 0.886719 36.664062 0.949219 36.472656 L 1.835938 36.851562 C 1.710938 37.042969 1.644531 37.234375 1.582031 37.421875 Z M 2.34375 35.777344 L 1.519531 35.269531 C 1.644531 35.078125 1.773438 34.890625 1.898438 34.699219 L 2.660156 35.207031 C 2.597656 35.460938 2.46875 35.648438 2.34375 35.777344 Z M 3.417969 34.320312 L 2.722656 33.6875 C 2.847656 33.558594 2.976562 33.371094 3.167969 33.242188 L 3.863281 33.875 C 3.671875 34.003906 3.546875 34.191406 3.417969 34.320312 Z M 4.6875 33.054688 L 4.050781 32.292969 C 4.242188 32.167969 4.367188 32.039062 4.558594 31.914062 L 5.128906 32.671875 C 5.003906 32.800781 4.875 32.925781 4.6875 33.054688 Z M 6.207031 32.039062 L 5.761719 31.21875 C 5.953125 31.089844 6.140625 31.027344 6.332031 30.898438 L 6.773438 31.722656 C 6.585938 31.851562 6.394531 31.976562 6.207031 32.039062 Z M 7.851562 31.28125 L 7.535156 30.394531 C 7.726562 30.332031 7.976562 30.265625 8.167969 30.203125 L 8.421875 31.089844 C 8.230469 31.152344 8.042969 31.21875 7.851562 31.28125 Z M 9.625 30.898438 L 9.5 29.949219 C 9.6875 29.886719 9.941406 29.886719 10.132812 29.886719 L 10.195312 30.835938 C 10.003906 30.835938 9.816406 30.835938 9.625 30.898438 Z M 9.625 30.898438 "/>
<path style=" stroke:none;fill-rule:nonzero;fill:rgb(100%,100%,100%);fill-opacity:1;" d="M 36.597656 41.03125 C 36.597656 42.152344 35.691406 43.058594 34.574219 43.058594 C 33.453125 43.058594 32.546875 42.152344 32.546875 41.03125 C 32.546875 39.914062 33.453125 39.003906 34.574219 39.003906 C 35.691406 39.003906 36.597656 39.914062 36.597656 41.03125 Z M 36.597656 41.03125 "/>
<path style=" stroke:none;fill-rule:nonzero;fill:rgb(13.72549%,12.156863%,12.54902%);fill-opacity:1;" d="M 34.574219 43.5 C 33.179688 43.5 32.101562 42.363281 32.101562 41.03125 C 32.101562 39.636719 33.242188 38.5625 34.574219 38.5625 C 35.964844 38.5625 37.042969 39.703125 37.042969 41.03125 C 37.042969 42.363281 35.964844 43.5 34.574219 43.5 Z M 34.574219 39.449219 C 33.75 39.449219 33.054688 40.144531 33.054688 40.96875 C 33.054688 41.792969 33.75 42.488281 34.574219 42.488281 C 35.394531 42.488281 36.09375 41.792969 36.09375 40.96875 C 36.09375 40.144531 35.394531 39.449219 34.574219 39.449219 Z M 34.574219 39.449219 "/>
<path style=" stroke:none;fill-rule:nonzero;fill:rgb(100%,100%,100%);fill-opacity:1;" d="M 42.996094 41.03125 C 42.996094 42.152344 42.085938 43.058594 40.96875 43.058594 C 39.847656 43.058594 38.941406 42.152344 38.941406 41.03125 C 38.941406 39.914062 39.847656 39.003906 40.96875 39.003906 C 42.085938 39.003906 42.996094 39.914062 42.996094 41.03125 Z M 42.996094 41.03125 "/>
<path style=" stroke:none;fill-rule:nonzero;fill:rgb(13.72549%,12.156863%,12.54902%);fill-opacity:1;" d="M 41.03125 43.5 C 39.636719 43.5 38.5625 42.363281 38.5625 41.03125 C 38.5625 39.636719 39.703125 38.5625 41.03125 38.5625 C 42.425781 38.5625 43.5 39.703125 43.5 41.03125 C 43.5 42.363281 42.363281 43.5 41.03125 43.5 Z M 41.03125 39.449219 C 40.207031 39.449219 39.511719 40.144531 39.511719 40.96875 C 39.511719 41.792969 40.207031 42.488281 41.03125 42.488281 C 41.855469 42.488281 42.550781 41.792969 42.550781 40.96875 C 42.550781 40.144531 41.855469 39.449219 41.03125 39.449219 Z M 41.03125 39.449219 "/>
<path style=" stroke:none;fill-rule:nonzero;fill:rgb(100%,100%,100%);fill-opacity:1;" d="M 49.453125 41.03125 C 49.453125 42.152344 48.546875 43.058594 47.425781 43.058594 C 46.308594 43.058594 45.402344 42.152344 45.402344 41.03125 C 45.402344 39.914062 46.308594 39.003906 47.425781 39.003906 C 48.546875 39.003906 49.453125 39.914062 49.453125 41.03125 Z M 49.453125 41.03125 "/>
<path style=" stroke:none;fill-rule:nonzero;fill:rgb(13.72549%,12.156863%,12.54902%);fill-opacity:1;" d="M 47.425781 43.5 C 46.035156 43.5 44.957031 42.363281 44.957031 41.03125 C 44.957031 39.636719 46.097656 38.5625 47.425781 38.5625 C 48.820312 38.5625 49.898438 39.703125 49.898438 41.03125 C 49.898438 42.363281 48.757812 43.5 47.425781 43.5 Z M 47.425781 39.449219 C 46.605469 39.449219 45.90625 40.144531 45.90625 40.96875 C 45.90625 41.792969 46.605469 42.488281 47.425781 42.488281 C 48.25 42.488281 48.945312 41.792969 48.945312 40.96875 C 48.945312 40.144531 48.25 39.449219 47.425781 39.449219 Z M 47.425781 39.449219 "/>
<path style=" stroke:none;fill-rule:nonzero;fill:rgb(13.72549%,12.156863%,12.54902%);fill-opacity:1;" d="M 38.816406 14.753906 C 38.6875 14.753906 38.5625 14.691406 38.5 14.628906 L 36.28125 12.410156 L 36.980469 11.714844 L 38.878906 13.613281 L 44.957031 7.535156 L 45.652344 8.230469 L 39.132812 14.628906 C 39.070312 14.691406 38.941406 14.753906 38.816406 14.753906 Z M 38.816406 14.753906 "/>
<path style=" stroke:none;fill-rule:nonzero;fill:rgb(13.72549%,12.156863%,12.54902%);fill-opacity:1;" d="M 74.039062 37.117188 L 74.710938 37.789062 L 67.636719 44.863281 L 66.964844 44.191406 Z M 74.039062 37.117188 "/>
<path style=" stroke:none;fill-rule:nonzero;fill:rgb(13.72549%,12.156863%,12.54902%);fill-opacity:1;" d="M 67.59375 37.117188 L 74.667969 44.191406 L 73.996094 44.863281 L 66.921875 37.789062 Z M 67.59375 37.117188 "/>
<path style=" stroke:none;fill-rule:nonzero;fill:rgb(13.72549%,12.156863%,12.54902%);fill-opacity:1;" d="M 40.523438 74.085938 C 40.523438 72.945312 41.160156 71.867188 42.234375 71.363281 C 43.246094 70.792969 43.816406 69.652344 43.566406 68.511719 C 43.375 67.5 42.550781 66.675781 41.539062 66.488281 C 40.777344 66.359375 39.957031 66.550781 39.320312 67.054688 C 38.6875 67.5625 38.371094 68.257812 38.371094 69.082031 L 37.421875 69.082031 C 37.421875 68.007812 37.867188 66.992188 38.6875 66.359375 C 39.511719 65.664062 40.589844 65.410156 41.664062 65.601562 C 43.058594 65.851562 44.199219 66.992188 44.449219 68.386719 C 44.765625 69.96875 44.007812 71.488281 42.613281 72.25 C 41.855469 72.628906 41.410156 73.324219 41.410156 74.085938 Z M 40.523438 74.085938 "/>
<path style=" stroke:none;fill-rule:nonzero;fill:rgb(13.72549%,12.156863%,12.54902%);fill-opacity:1;" d="M 40.523438 74.65625 L 41.476562 74.65625 L 41.476562 75.667969 L 40.523438 75.667969 Z M 40.523438 74.65625 "/>
<path style=" stroke:none;fill-rule:nonzero;fill:rgb(13.72549%,12.156863%,12.54902%);fill-opacity:1;" d="M 10.699219 36.597656 L 11.652344 36.597656 L 11.652344 42.488281 L 10.699219 42.488281 Z M 10.699219 36.597656 "/>
<path style=" stroke:none;fill-rule:nonzero;fill:rgb(13.72549%,12.156863%,12.54902%);fill-opacity:1;" d="M 10.699219 44.132812 L 11.652344 44.132812 L 11.652344 45.402344 L 10.699219 45.402344 Z M 10.699219 44.132812 "/>
<path style=" stroke:none;fill-rule:nonzero;fill:rgb(90.196078%,91.372549%,93.333333%);fill-opacity:1;" d="M 61.039062 7.535156 C 61.039062 8.269531 60.445312 8.863281 59.710938 8.863281 C 58.976562 8.863281 58.382812 8.269531 58.382812 7.535156 C 58.382812 6.800781 58.976562 6.207031 59.710938 6.207031 C 60.445312 6.207031 61.039062 6.800781 61.039062 7.535156 Z M 61.039062 7.535156 "/>
<path style=" stroke:none;fill-rule:nonzero;fill:rgb(51.764706%,85.882353%,100%);fill-opacity:1;" d="M 76.996094 56.863281 C 76.996094 57.597656 76.402344 58.191406 75.667969 58.191406 C 74.933594 58.191406 74.339844 57.597656 74.339844 56.863281 C 74.339844 56.128906 74.933594 55.53125 75.667969 55.53125 C 76.402344 55.53125 76.996094 56.128906 76.996094 56.863281 Z M 76.996094 56.863281 "/>
<path style=" stroke:none;fill-rule:nonzero;fill:rgb(100%,43.921569%,34.509804%);fill-opacity:1;" d="M 22.984375 76.808594 C 22.984375 77.542969 22.390625 78.136719 21.65625 78.136719 C 20.921875 78.136719 20.324219 77.542969 20.324219 76.808594 C 20.324219 76.074219 20.921875 75.476562 21.65625 75.476562 C 22.390625 75.476562 22.984375 76.074219 22.984375 76.808594 Z M 22.984375 76.808594 "/>
<path style=" stroke:none;fill-rule:nonzero;fill:rgb(100%,81.568627%,35.686275%);fill-opacity:1;" d="M 8.296875 22.289062 C 8.296875 23.023438 7.699219 23.617188 6.964844 23.617188 C 6.230469 23.617188 5.636719 23.023438 5.636719 22.289062 C 5.636719 21.554688 6.230469 20.960938 6.964844 20.960938 C 7.699219 20.960938 8.296875 21.554688 8.296875 22.289062 Z M 8.296875 22.289062 "/>
<path style=" stroke:none;fill-rule:nonzero;fill:rgb(13.72549%,12.156863%,12.54902%);fill-opacity:1;" d="M 12.03125 6.332031 C 11.902344 6.332031 11.777344 6.269531 11.714844 6.207031 C 11.523438 6.015625 11.523438 5.699219 11.714844 5.507812 L 12.539062 4.6875 C 12.726562 4.496094 13.042969 4.496094 13.234375 4.6875 C 13.425781 4.875 13.425781 5.191406 13.234375 5.382812 L 12.410156 6.207031 C 12.285156 6.332031 12.15625 6.332031 12.03125 6.332031 Z M 12.03125 6.332031 "/>
<path style=" stroke:none;fill-rule:nonzero;fill:rgb(13.72549%,12.156863%,12.54902%);fill-opacity:1;" d="M 9.5 8.929688 C 9.371094 8.929688 9.246094 8.863281 9.179688 8.800781 C 8.992188 8.613281 8.992188 8.296875 9.179688 8.105469 L 10.003906 7.28125 C 10.195312 7.09375 10.511719 7.09375 10.699219 7.28125 C 10.890625 7.472656 10.890625 7.789062 10.699219 7.976562 L 9.878906 8.800781 C 9.75 8.863281 9.625 8.929688 9.5 8.929688 Z M 9.5 8.929688 "/>
<path style=" stroke:none;fill-rule:nonzero;fill:rgb(13.72549%,12.156863%,12.54902%);fill-opacity:1;" d="M 12.855469 8.929688 C 12.726562 8.929688 12.601562 8.863281 12.539062 8.800781 L 11.714844 7.976562 C 11.523438 7.789062 11.523438 7.472656 11.714844 7.28125 C 11.902344 7.09375 12.222656 7.09375 12.410156 7.28125 L 13.234375 8.105469 C 13.425781 8.296875 13.425781 8.613281 13.234375 8.800781 C 13.105469 8.863281 12.980469 8.929688 12.855469 8.929688 Z M 12.855469 8.929688 "/>
<path style=" stroke:none;fill-rule:nonzero;fill:rgb(13.72549%,12.156863%,12.54902%);fill-opacity:1;" d="M 10.320312 6.332031 C 10.195312 6.332031 10.066406 6.269531 10.003906 6.207031 L 9.179688 5.382812 C 8.992188 5.191406 8.992188 4.875 9.179688 4.6875 C 9.371094 4.496094 9.6875 4.496094 9.878906 4.6875 L 10.699219 5.507812 C 10.890625 5.699219 10.890625 6.015625 10.699219 6.207031 C 10.574219 6.332031 10.449219 6.332031 10.320312 6.332031 Z M 10.320312 6.332031 "/>
<path style=" stroke:none;fill-rule:nonzero;fill:rgb(13.72549%,12.156863%,12.54902%);fill-opacity:1;" d="M 71.679688 8.929688 C 71.550781 8.929688 71.425781 8.863281 71.363281 8.800781 C 71.171875 8.613281 71.171875 8.296875 71.363281 8.105469 L 72.183594 7.28125 C 72.375 7.09375 72.691406 7.09375 72.882812 7.28125 C 73.070312 7.472656 73.070312 7.789062 72.882812 7.976562 L 72.058594 8.800781 C 71.933594 8.863281 71.804688 8.929688 71.679688 8.929688 Z M 71.679688 8.929688 "/>
<path style=" stroke:none;fill-rule:nonzero;fill:rgb(13.72549%,12.156863%,12.54902%);fill-opacity:1;" d="M 69.144531 11.460938 C 69.019531 11.460938 68.894531 11.398438 68.828125 11.335938 C 68.640625 11.144531 68.640625 10.828125 68.828125 10.636719 L 69.652344 9.816406 C 69.84375 9.625 70.160156 9.625 70.347656 9.816406 C 70.539062 10.003906 70.539062 10.320312 70.347656 10.511719 L 69.527344 11.335938 C 69.335938 11.398438 69.273438 11.460938 69.144531 11.460938 Z M 69.144531 11.460938 "/>
<path style=" stroke:none;fill-rule:nonzero;fill:rgb(13.72549%,12.156863%,12.54902%);fill-opacity:1;" d="M 72.5 11.460938 C 72.375 11.460938 72.25 11.398438 72.183594 11.335938 L 71.363281 10.511719 C 71.171875 10.320312 71.171875 10.003906 71.363281 9.816406 C 71.550781 9.625 71.867188 9.625 72.058594 9.816406 L 72.882812 10.636719 C 73.070312 10.828125 73.070312 11.144531 72.882812 11.335938 C 72.753906 11.398438 72.628906 11.460938 72.5 11.460938 Z M 72.5 11.460938 "/>
<path style=" stroke:none;fill-rule:nonzero;fill:rgb(13.72549%,12.156863%,12.54902%);fill-opacity:1;" d="M 69.96875 8.929688 C 69.84375 8.929688 69.714844 8.863281 69.652344 8.800781 L 68.828125 7.976562 C 68.640625 7.789062 68.640625 7.472656 68.828125 7.28125 C 69.019531 7.09375 69.335938 7.09375 69.527344 7.28125 L 70.347656 8.105469 C 70.539062 8.296875 70.539062 8.613281 70.347656 8.800781 C 70.160156 8.863281 70.03125 8.929688 69.96875 8.929688 Z M 69.96875 8.929688 "/>
<path style=" stroke:none;fill-rule:nonzero;fill:rgb(13.72549%,12.156863%,12.54902%);fill-opacity:1;" d="M 12.03125 75.542969 C 11.902344 75.542969 11.777344 75.476562 11.714844 75.414062 C 11.523438 75.226562 11.523438 74.90625 11.714844 74.71875 L 12.539062 73.894531 C 12.726562 73.703125 13.042969 73.703125 13.234375 73.894531 C 13.425781 74.085938 13.425781 74.402344 13.234375 74.589844 L 12.410156 75.414062 C 12.285156 75.476562 12.15625 75.542969 12.03125 75.542969 Z M 12.03125 75.542969 "/>
<path style=" stroke:none;fill-rule:nonzero;fill:rgb(13.72549%,12.156863%,12.54902%);fill-opacity:1;" d="M 9.5 78.074219 C 9.371094 78.074219 9.246094 78.011719 9.179688 77.949219 C 8.992188 77.757812 8.992188 77.441406 9.179688 77.25 L 10.003906 76.429688 C 10.195312 76.238281 10.511719 76.238281 10.699219 76.429688 C 10.890625 76.617188 10.890625 76.933594 10.699219 77.125 L 9.878906 77.949219 C 9.75 78.011719 9.625 78.074219 9.5 78.074219 Z M 9.5 78.074219 "/>
<path style=" stroke:none;fill-rule:nonzero;fill:rgb(13.72549%,12.156863%,12.54902%);fill-opacity:1;" d="M 12.855469 78.074219 C 12.726562 78.074219 12.601562 78.011719 12.539062 77.949219 L 11.714844 77.125 C 11.523438 76.933594 11.523438 76.617188 11.714844 76.429688 C 11.902344 76.238281 12.222656 76.238281 12.410156 76.429688 L 13.234375 77.25 C 13.425781 77.441406 13.425781 77.757812 13.234375 77.949219 C 13.105469 78.011719 12.980469 78.074219 12.855469 78.074219 Z M 12.855469 78.074219 "/>
<path style=" stroke:none;fill-rule:nonzero;fill:rgb(13.72549%,12.156863%,12.54902%);fill-opacity:1;" d="M 10.320312 75.542969 C 10.195312 75.542969 10.066406 75.476562 10.003906 75.414062 L 9.179688 74.589844 C 8.992188 74.402344 8.992188 74.085938 9.179688 73.894531 C 9.371094 73.703125 9.6875 73.703125 9.878906 73.894531 L 10.699219 74.71875 C 10.890625 74.90625 10.890625 75.226562 10.699219 75.414062 C 10.574219 75.476562 10.449219 75.542969 10.320312 75.542969 Z M 10.320312 75.542969 "/>
<path style=" stroke:none;fill-rule:nonzero;fill:rgb(13.72549%,12.156863%,12.54902%);fill-opacity:1;" d="M 51.921875 29.253906 L 46.792969 29.253906 C 46.539062 29.253906 46.289062 29.0625 46.289062 28.746094 C 46.289062 28.496094 46.476562 28.242188 46.792969 28.242188 L 51.921875 28.242188 C 52.175781 28.242188 52.429688 28.429688 52.429688 28.746094 C 52.429688 29 52.175781 29.253906 51.921875 29.253906 Z M 51.921875 29.253906 "/>
<path style=" stroke:none;fill-rule:nonzero;fill:rgb(13.72549%,12.156863%,12.54902%);fill-opacity:1;" d="M 53.949219 31.089844 L 51.417969 31.089844 C 51.164062 31.089844 50.910156 30.898438 50.910156 30.582031 C 50.910156 30.332031 51.101562 30.078125 51.417969 30.078125 L 53.949219 30.078125 C 54.203125 30.078125 54.457031 30.265625 54.457031 30.582031 C 54.390625 30.898438 54.203125 31.089844 53.949219 31.089844 Z M 53.949219 31.089844 "/>
<path style=" stroke:none;fill-rule:nonzero;fill:rgb(13.72549%,12.156863%,12.54902%);fill-opacity:1;" d="M 56.609375 29.253906 L 54.203125 29.253906 C 53.949219 29.253906 53.695312 29.0625 53.695312 28.746094 C 53.695312 28.496094 53.886719 28.242188 54.203125 28.242188 L 56.609375 28.242188 C 56.863281 28.242188 57.113281 28.429688 57.113281 28.746094 C 57.113281 29 56.925781 29.253906 56.609375 29.253906 Z M 56.609375 29.253906 "/>
<path style=" stroke:none;fill-rule:nonzero;fill:rgb(13.72549%,12.156863%,12.54902%);fill-opacity:1;" d="M 49.578125 31.089844 L 49.074219 31.089844 C 48.820312 31.089844 48.566406 30.898438 48.566406 30.582031 C 48.566406 30.332031 48.757812 30.078125 49.074219 30.078125 L 49.578125 30.078125 C 49.832031 30.078125 50.085938 30.265625 50.085938 30.582031 C 50.085938 30.898438 49.898438 31.089844 49.578125 31.089844 Z M 49.578125 31.089844 "/>
<path style=" stroke:none;fill-rule:nonzero;fill:rgb(13.72549%,12.156863%,12.54902%);fill-opacity:1;" d="M 10.132812 66.867188 L 5.003906 66.867188 C 4.75 66.867188 4.558594 66.675781 4.558594 66.359375 C 4.558594 66.105469 4.75 65.851562 5.003906 65.851562 L 10.132812 65.851562 C 10.382812 65.851562 10.636719 66.042969 10.636719 66.359375 C 10.574219 66.675781 10.382812 66.867188 10.132812 66.867188 Z M 10.132812 66.867188 "/>
<path style=" stroke:none;fill-rule:nonzero;fill:rgb(13.72549%,12.156863%,12.54902%);fill-opacity:1;" d="M 12.15625 68.765625 L 9.625 68.765625 C 9.371094 68.765625 9.117188 68.574219 9.117188 68.257812 C 9.117188 68.007812 9.308594 67.753906 9.625 67.753906 L 12.15625 67.753906 C 12.410156 67.753906 12.664062 67.941406 12.664062 68.257812 C 12.601562 68.511719 12.410156 68.765625 12.15625 68.765625 Z M 12.15625 68.765625 "/>
<path style=" stroke:none;fill-rule:nonzero;fill:rgb(13.72549%,12.156863%,12.54902%);fill-opacity:1;" d="M 14.816406 66.867188 L 12.410156 66.867188 C 12.15625 66.867188 11.902344 66.675781 11.902344 66.359375 C 11.902344 66.105469 12.09375 65.851562 12.410156 65.851562 L 14.816406 65.851562 C 15.070312 65.851562 15.324219 66.042969 15.324219 66.359375 C 15.324219 66.675781 15.070312 66.867188 14.816406 66.867188 Z M 14.816406 66.867188 "/>
<path style=" stroke:none;fill-rule:nonzero;fill:rgb(13.72549%,12.156863%,12.54902%);fill-opacity:1;" d="M 7.789062 68.765625 L 7.28125 68.765625 C 7.027344 68.765625 6.773438 68.574219 6.773438 68.257812 C 6.773438 68.007812 6.964844 67.753906 7.28125 67.753906 L 7.789062 67.753906 C 8.042969 67.753906 8.296875 67.941406 8.296875 68.257812 C 8.296875 68.511719 8.042969 68.765625 7.789062 68.765625 Z M 7.789062 68.765625 "/>
</g>
</svg>
