<?xml version="1.0" encoding="UTF-8"?>
<svg xmlns="http://www.w3.org/2000/svg" xmlns:xlink="http://www.w3.org/1999/xlink" width="100px" height="100px" viewBox="0 0 100 100" version="1.1">
<g id="surface1">
<path style=" stroke:none;fill-rule:nonzero;fill:rgb(13.72549%,12.156863%,12.54902%);fill-opacity:1;" d="M 12.664062 14.441406 C 12.507812 14.441406 12.355469 14.363281 12.277344 14.285156 C 12.046875 14.054688 12.046875 13.667969 12.277344 13.4375 L 13.28125 12.433594 C 13.511719 12.199219 13.898438 12.199219 14.132812 12.433594 C 14.363281 12.664062 14.363281 13.050781 14.132812 13.28125 L 13.128906 14.285156 C 12.972656 14.441406 12.820312 14.441406 12.664062 14.441406 Z M 12.664062 14.441406 "/>
<path style=" stroke:none;fill-rule:nonzero;fill:rgb(13.72549%,12.156863%,12.54902%);fill-opacity:1;" d="M 9.5 17.605469 C 9.34375 17.605469 9.1875 17.527344 9.113281 17.453125 C 8.878906 17.21875 8.878906 16.832031 9.113281 16.601562 L 10.117188 15.597656 C 10.347656 15.367188 10.734375 15.367188 10.964844 15.597656 C 11.195312 15.832031 11.195312 16.214844 10.964844 16.449219 L 9.960938 17.453125 C 9.808594 17.527344 9.652344 17.605469 9.5 17.605469 Z M 9.5 17.605469 "/>
<path style=" stroke:none;fill-rule:nonzero;fill:rgb(13.72549%,12.156863%,12.54902%);fill-opacity:1;" d="M 13.667969 17.605469 C 13.511719 17.605469 13.359375 17.527344 13.28125 17.453125 L 12.277344 16.449219 C 12.046875 16.214844 12.046875 15.832031 12.277344 15.597656 C 12.507812 15.367188 12.894531 15.367188 13.128906 15.597656 L 14.132812 16.601562 C 14.363281 16.832031 14.363281 17.21875 14.132812 17.453125 C 13.976562 17.527344 13.824219 17.605469 13.667969 17.605469 Z M 13.667969 17.605469 "/>
<path style=" stroke:none;fill-rule:nonzero;fill:rgb(13.72549%,12.156863%,12.54902%);fill-opacity:1;" d="M 10.5 14.441406 C 10.347656 14.441406 10.191406 14.363281 10.117188 14.285156 L 9.113281 13.28125 C 8.878906 13.050781 8.878906 12.664062 9.113281 12.433594 C 9.34375 12.199219 9.730469 12.199219 9.960938 12.433594 L 10.964844 13.4375 C 11.195312 13.667969 11.195312 14.054688 10.964844 14.285156 C 10.8125 14.441406 10.65625 14.441406 10.5 14.441406 Z M 10.5 14.441406 "/>
<path style=" stroke:none;fill-rule:nonzero;fill:rgb(51.764706%,85.882353%,100%);fill-opacity:1;" d="M 25.867188 1.929688 C 25.867188 2.996094 25.003906 3.859375 23.9375 3.859375 C 22.871094 3.859375 22.007812 2.996094 22.007812 1.929688 C 22.007812 0.863281 22.871094 0 23.9375 0 C 25.003906 0 25.867188 0.863281 25.867188 1.929688 Z M 25.867188 1.929688 "/>
<path style=" stroke:none;fill-rule:nonzero;fill:rgb(13.72549%,12.156863%,12.54902%);fill-opacity:1;" d="M 91.429688 3.707031 C 91.273438 3.707031 91.121094 3.628906 91.042969 3.550781 C 90.8125 3.320312 90.8125 2.933594 91.042969 2.703125 L 92.046875 1.699219 C 92.277344 1.46875 92.664062 1.46875 92.894531 1.699219 C 93.128906 1.929688 93.128906 2.316406 92.894531 2.546875 L 91.890625 3.550781 C 91.738281 3.628906 91.582031 3.707031 91.429688 3.707031 Z M 91.429688 3.707031 "/>
<path style=" stroke:none;fill-rule:nonzero;fill:rgb(13.72549%,12.156863%,12.54902%);fill-opacity:1;" d="M 88.261719 6.796875 C 88.109375 6.796875 87.953125 6.71875 87.875 6.640625 C 87.644531 6.410156 87.644531 6.023438 87.875 5.792969 L 88.878906 4.789062 C 89.113281 4.554688 89.5 4.554688 89.730469 4.789062 C 89.960938 5.019531 89.960938 5.40625 89.730469 5.636719 L 88.726562 6.640625 C 88.570312 6.796875 88.417969 6.796875 88.261719 6.796875 Z M 88.261719 6.796875 "/>
<path style=" stroke:none;fill-rule:nonzero;fill:rgb(13.72549%,12.156863%,12.54902%);fill-opacity:1;" d="M 92.433594 6.796875 C 92.277344 6.796875 92.125 6.71875 92.046875 6.640625 L 91.042969 5.636719 C 90.8125 5.40625 90.8125 5.019531 91.042969 4.789062 C 91.273438 4.554688 91.660156 4.554688 91.890625 4.789062 L 92.894531 5.792969 C 93.128906 6.023438 93.128906 6.410156 92.894531 6.640625 C 92.742188 6.796875 92.585938 6.796875 92.433594 6.796875 Z M 92.433594 6.796875 "/>
<path style=" stroke:none;fill-rule:nonzero;fill:rgb(13.72549%,12.156863%,12.54902%);fill-opacity:1;" d="M 89.265625 3.707031 C 89.113281 3.707031 88.957031 3.628906 88.878906 3.550781 L 87.875 2.546875 C 87.644531 2.316406 87.644531 1.929688 87.875 1.699219 C 88.109375 1.46875 88.496094 1.46875 88.726562 1.699219 L 89.730469 2.703125 C 89.960938 2.933594 89.960938 3.320312 89.730469 3.550781 C 89.574219 3.628906 89.421875 3.707031 89.265625 3.707031 Z M 89.265625 3.707031 "/>
<path style=" stroke:none;fill-rule:nonzero;fill:rgb(29.803922%,85.882353%,76.862745%);fill-opacity:1;" d="M 100 22.625 C 100 23.691406 99.136719 24.554688 98.070312 24.554688 C 97.003906 24.554688 96.140625 23.691406 96.140625 22.625 C 96.140625 21.558594 97.003906 20.695312 98.070312 20.695312 C 99.136719 20.695312 100 21.558594 100 22.625 Z M 100 22.625 "/>
<path style=" stroke:none;fill-rule:nonzero;fill:rgb(100%,43.921569%,34.509804%);fill-opacity:1;" d="M 3.242188 87.027344 C 3.242188 87.921875 2.515625 88.648438 1.621094 88.648438 C 0.726562 88.648438 0 87.921875 0 87.027344 C 0 86.132812 0.726562 85.40625 1.621094 85.40625 C 2.515625 85.40625 3.242188 86.132812 3.242188 87.027344 Z M 3.242188 87.027344 "/>
<path style=" stroke:none;fill-rule:nonzero;fill:rgb(100%,81.568627%,35.686275%);fill-opacity:1;" d="M 26.410156 44.554688 C 26.410156 51.847656 20.496094 57.761719 13.203125 57.761719 C 5.910156 57.761719 0 51.847656 0 44.554688 C 0 37.261719 5.910156 31.351562 13.203125 31.351562 C 20.496094 31.351562 26.410156 37.261719 26.410156 44.554688 Z M 26.410156 44.554688 "/>
<path style=" stroke:none;fill-rule:nonzero;fill:rgb(13.72549%,12.156863%,12.54902%);fill-opacity:1;" d="M 3.859375 44.554688 L 2.703125 44.554688 C 2.703125 44.246094 2.703125 44.015625 2.703125 43.707031 L 3.859375 43.785156 C 3.859375 44.015625 3.859375 44.246094 3.859375 44.554688 Z M 4.09375 42.316406 L 2.933594 42.007812 C 3.011719 41.777344 3.089844 41.46875 3.167969 41.234375 L 4.246094 41.621094 C 4.246094 41.851562 4.167969 42.085938 4.09375 42.316406 Z M 4.863281 40.308594 L 3.859375 39.769531 C 4.015625 39.535156 4.09375 39.304688 4.246094 39.074219 L 5.25 39.691406 C 5.097656 39.84375 5.019531 40.078125 4.863281 40.308594 Z M 6.101562 38.457031 L 5.171875 37.683594 C 5.40625 37.453125 5.558594 37.296875 5.792969 37.066406 L 6.640625 37.914062 C 6.410156 38.070312 6.253906 38.222656 6.101562 38.457031 Z M 7.722656 36.910156 L 7.027344 35.984375 C 7.257812 35.832031 7.492188 35.675781 7.722656 35.519531 L 8.339844 36.523438 C 8.109375 36.679688 7.875 36.832031 7.722656 36.910156 Z M 9.652344 35.832031 L 9.1875 34.75 C 9.421875 34.671875 9.730469 34.515625 9.960938 34.441406 L 10.347656 35.519531 C 10.117188 35.675781 9.882812 35.753906 9.652344 35.832031 Z M 11.738281 35.289062 L 11.582031 34.132812 C 11.890625 34.054688 12.125 34.054688 12.433594 34.054688 L 12.507812 35.210938 C 12.199219 35.210938 11.96875 35.210938 11.738281 35.289062 Z M 11.738281 35.289062 "/>
<path style=" stroke:none;fill-rule:nonzero;fill:rgb(100%,100%,100%);fill-opacity:1;" d="M 13.203125 47.335938 L 91.582031 47.335938 L 91.582031 89.265625 L 13.203125 89.265625 Z M 13.203125 47.335938 "/>
<path style=" stroke:none;fill-rule:nonzero;fill:rgb(13.72549%,12.156863%,12.54902%);fill-opacity:1;" d="M 23.550781 46.71875 C 23.707031 46.023438 23.785156 45.25 23.785156 44.480469 C 23.785156 38.6875 19.074219 33.898438 13.203125 33.898438 L 13.203125 35.058594 C 18.378906 35.058594 22.546875 39.226562 22.546875 44.402344 C 22.546875 45.171875 22.472656 45.867188 22.238281 46.640625 L 18.222656 46.640625 L 18.222656 46.175781 C 18.222656 44.863281 17.21875 43.859375 15.90625 43.859375 L 13.746094 43.859375 L 13.746094 39.769531 L 15.90625 39.769531 C 16.523438 39.769531 17.066406 40.308594 17.066406 40.925781 C 17.066406 41.234375 17.296875 41.542969 17.683594 41.542969 C 17.992188 41.542969 18.300781 41.3125 18.300781 40.925781 C 18.300781 39.613281 17.296875 38.609375 15.984375 38.609375 L 13.824219 38.609375 L 13.824219 37.761719 C 13.824219 37.453125 13.589844 37.144531 13.203125 37.144531 C 12.820312 37.144531 12.585938 37.375 12.585938 37.761719 L 12.585938 38.609375 L 10.425781 38.609375 C 9.113281 38.609375 8.109375 39.613281 8.109375 40.925781 L 8.109375 42.78125 C 8.109375 44.09375 9.113281 45.097656 10.425781 45.097656 L 12.585938 45.097656 L 12.585938 49.1875 L 10.425781 49.1875 C 9.808594 49.1875 9.265625 48.648438 9.265625 48.03125 C 9.265625 47.722656 9.035156 47.414062 8.648438 47.414062 C 8.339844 47.414062 8.03125 47.644531 8.03125 48.03125 C 8.03125 49.34375 9.035156 50.347656 10.347656 50.347656 L 12.507812 50.347656 L 12.507812 53.824219 C 7.722656 53.589844 3.859375 49.5 3.859375 44.554688 L 2.703125 44.554688 C 2.703125 50.191406 7.105469 54.75 12.664062 55.058594 L 12.664062 89.882812 L 92.199219 89.882812 L 92.199219 46.71875 Z M 10.5 43.9375 C 9.882812 43.9375 9.34375 43.398438 9.34375 42.78125 L 9.34375 40.925781 C 9.34375 40.308594 9.882812 39.769531 10.5 39.769531 L 12.664062 39.769531 L 12.664062 43.859375 L 10.5 43.859375 Z M 13.824219 45.097656 L 15.984375 45.097656 C 16.601562 45.097656 17.144531 45.636719 17.144531 46.253906 L 17.144531 46.71875 L 13.824219 46.71875 Z M 90.964844 88.648438 L 13.824219 88.648438 L 13.824219 47.875 L 90.964844 47.875 Z M 90.964844 88.648438 "/>
<path style=" stroke:none;fill-rule:nonzero;fill:rgb(90.196078%,91.372549%,93.333333%);fill-opacity:1;" d="M 17.683594 75.210938 L 17.683594 61.3125 C 22.933594 61.3125 27.257812 57.066406 27.257812 51.738281 L 77.605469 51.738281 C 77.605469 56.988281 81.851562 61.3125 87.179688 61.3125 L 87.179688 75.210938 C 81.929688 75.210938 77.605469 79.460938 77.605469 84.789062 L 27.257812 84.789062 C 27.257812 79.535156 22.933594 75.210938 17.683594 75.210938 Z M 17.683594 75.210938 "/>
<path style=" stroke:none;fill-rule:nonzero;fill:rgb(13.72549%,12.156863%,12.54902%);fill-opacity:1;" d="M 17.683594 62.238281 L 17.683594 61.082031 C 22.78125 61.082031 26.949219 56.910156 26.949219 51.816406 L 28.109375 51.816406 C 28.183594 57.527344 23.476562 62.238281 17.683594 62.238281 Z M 17.683594 62.238281 "/>
<path style=" stroke:none;fill-rule:nonzero;fill:rgb(13.72549%,12.156863%,12.54902%);fill-opacity:1;" d="M 87.105469 62.238281 C 81.3125 62.238281 76.601562 57.527344 76.601562 51.738281 L 77.761719 51.738281 C 77.761719 56.832031 81.929688 61.003906 87.027344 61.003906 L 87.027344 62.238281 Z M 87.105469 62.238281 "/>
<path style=" stroke:none;fill-rule:nonzero;fill:rgb(13.72549%,12.156863%,12.54902%);fill-opacity:1;" d="M 28.183594 84.789062 L 27.027344 84.789062 C 27.027344 79.691406 22.855469 75.519531 17.761719 75.519531 L 17.761719 74.363281 C 23.476562 74.363281 28.183594 78.996094 28.183594 84.789062 Z M 28.183594 84.789062 "/>
<path style=" stroke:none;fill-rule:nonzero;fill:rgb(13.72549%,12.156863%,12.54902%);fill-opacity:1;" d="M 77.835938 84.789062 L 76.679688 84.789062 C 76.679688 78.996094 81.390625 74.285156 87.179688 74.285156 L 87.179688 75.445312 C 82.007812 75.519531 77.835938 79.691406 77.835938 84.789062 Z M 77.835938 84.789062 "/>
<path style=" stroke:none;fill-rule:nonzero;fill:rgb(100%,100%,100%);fill-opacity:1;" d="M 64.632812 68.261719 C 64.632812 75 59.171875 80.464844 52.433594 80.464844 C 45.695312 80.464844 40.230469 75 40.230469 68.261719 C 40.230469 61.523438 45.695312 56.0625 52.433594 56.0625 C 59.171875 56.0625 64.632812 61.523438 64.632812 68.261719 Z M 64.632812 68.261719 "/>
<path style=" stroke:none;fill-rule:nonzero;fill:rgb(13.72549%,12.156863%,12.54902%);fill-opacity:1;" d="M 55.832031 75.445312 L 49.035156 75.445312 C 47.566406 75.445312 46.332031 74.207031 46.332031 72.742188 C 46.332031 72.433594 46.5625 72.125 46.949219 72.125 C 47.257812 72.125 47.566406 72.355469 47.566406 72.742188 C 47.566406 73.589844 48.261719 74.285156 49.113281 74.285156 L 55.90625 74.285156 C 56.757812 74.285156 57.453125 73.589844 57.453125 72.742188 L 57.453125 70.425781 C 57.453125 69.574219 56.757812 68.878906 55.90625 68.878906 L 49.113281 68.878906 C 47.644531 68.878906 46.410156 67.644531 46.410156 66.175781 L 46.410156 63.859375 C 46.410156 62.394531 47.644531 61.160156 49.113281 61.160156 L 55.90625 61.160156 C 57.375 61.160156 58.609375 62.394531 58.609375 63.859375 C 58.609375 64.167969 58.378906 64.480469 57.992188 64.480469 C 57.605469 64.480469 57.375 64.246094 57.375 63.859375 C 57.375 63.011719 56.679688 62.316406 55.832031 62.316406 L 49.035156 62.316406 C 48.183594 62.316406 47.492188 63.011719 47.492188 63.859375 L 47.492188 66.175781 C 47.492188 67.027344 48.183594 67.722656 49.035156 67.722656 L 55.832031 67.722656 C 57.296875 67.722656 58.53125 68.957031 58.53125 70.425781 L 58.53125 72.742188 C 58.53125 74.207031 57.296875 75.445312 55.832031 75.445312 Z M 55.832031 75.445312 "/>
<path style=" stroke:none;fill-rule:nonzero;fill:rgb(13.72549%,12.156863%,12.54902%);fill-opacity:1;" d="M 52.433594 77.21875 C 52.125 77.21875 51.816406 76.988281 51.816406 76.601562 L 51.816406 59.921875 C 51.816406 59.613281 52.046875 59.304688 52.433594 59.304688 C 52.742188 59.304688 53.050781 59.535156 53.050781 59.921875 L 53.050781 76.679688 C 52.972656 76.988281 52.742188 77.21875 52.433594 77.21875 Z M 52.433594 77.21875 "/>
<path style=" stroke:none;fill-rule:nonzero;fill:rgb(100%,100%,100%);fill-opacity:1;" d="M 74.980469 68.261719 C 74.980469 69.710938 73.804688 70.886719 72.355469 70.886719 C 70.90625 70.886719 69.730469 69.710938 69.730469 68.261719 C 69.730469 66.8125 70.90625 65.636719 72.355469 65.636719 C 73.804688 65.636719 74.980469 66.8125 74.980469 68.261719 Z M 74.980469 68.261719 "/>
<path style=" stroke:none;fill-rule:nonzero;fill:rgb(13.72549%,12.156863%,12.54902%);fill-opacity:1;" d="M 72.355469 71.503906 C 70.578125 71.503906 69.113281 70.039062 69.113281 68.261719 C 69.113281 66.488281 70.578125 65.019531 72.355469 65.019531 C 74.132812 65.019531 75.597656 66.488281 75.597656 68.261719 C 75.597656 70.117188 74.207031 71.503906 72.355469 71.503906 Z M 72.355469 66.253906 C 71.195312 66.253906 70.269531 67.179688 70.269531 68.339844 C 70.269531 69.5 71.195312 70.425781 72.355469 70.425781 C 73.511719 70.425781 74.441406 69.5 74.441406 68.339844 C 74.441406 67.179688 73.511719 66.253906 72.355469 66.253906 Z M 72.355469 66.253906 "/>
<path style=" stroke:none;fill-rule:nonzero;fill:rgb(100%,100%,100%);fill-opacity:1;" d="M 35.058594 68.261719 C 35.058594 69.710938 33.882812 70.886719 32.433594 70.886719 C 30.980469 70.886719 29.808594 69.710938 29.808594 68.261719 C 29.808594 66.8125 30.980469 65.636719 32.433594 65.636719 C 33.882812 65.636719 35.058594 66.8125 35.058594 68.261719 Z M 35.058594 68.261719 "/>
<path style=" stroke:none;fill-rule:nonzero;fill:rgb(13.72549%,12.156863%,12.54902%);fill-opacity:1;" d="M 32.433594 71.503906 C 30.65625 71.503906 29.1875 70.039062 29.1875 68.261719 C 29.1875 66.488281 30.65625 65.019531 32.433594 65.019531 C 34.207031 65.019531 35.675781 66.488281 35.675781 68.261719 C 35.675781 70.117188 34.207031 71.503906 32.433594 71.503906 Z M 32.433594 66.253906 C 31.273438 66.253906 30.347656 67.179688 30.347656 68.339844 C 30.347656 69.5 31.273438 70.425781 32.433594 70.425781 C 33.589844 70.425781 34.515625 69.5 34.515625 68.339844 C 34.515625 67.179688 33.589844 66.253906 32.433594 66.253906 Z M 32.433594 66.253906 "/>
<path style=" stroke:none;fill-rule:nonzero;fill:rgb(100%,81.568627%,35.686275%);fill-opacity:1;" d="M 100 85.714844 C 100 93.605469 93.605469 100 85.714844 100 C 77.824219 100 71.429688 93.605469 71.429688 85.714844 C 71.429688 77.824219 77.824219 71.429688 85.714844 71.429688 C 93.605469 71.429688 100 77.824219 100 85.714844 Z M 100 85.714844 "/>
<path style=" stroke:none;fill-rule:nonzero;fill:rgb(13.72549%,12.156863%,12.54902%);fill-opacity:1;" d="M 85.714844 97.066406 C 79.460938 97.066406 74.363281 91.96875 74.363281 85.714844 L 75.519531 85.714844 C 75.519531 91.351562 80.078125 95.90625 85.714844 95.90625 C 91.351562 95.90625 95.90625 91.351562 95.90625 85.714844 C 95.90625 80.078125 91.351562 75.519531 85.714844 75.519531 L 85.714844 74.363281 C 91.96875 74.363281 97.066406 79.460938 97.066406 85.714844 C 97.066406 91.96875 91.96875 97.066406 85.714844 97.066406 Z M 85.714844 97.066406 "/>
<path style=" stroke:none;fill-rule:nonzero;fill:rgb(13.72549%,12.156863%,12.54902%);fill-opacity:1;" d="M 75.445312 85.714844 L 74.285156 85.714844 C 74.285156 85.40625 74.285156 85.171875 74.285156 84.863281 L 75.445312 84.941406 C 75.519531 85.171875 75.445312 85.40625 75.445312 85.714844 Z M 75.753906 83.476562 L 74.59375 83.242188 C 74.671875 83.011719 74.75 82.703125 74.828125 82.472656 L 75.984375 82.78125 C 75.832031 83.011719 75.753906 83.242188 75.753906 83.476562 Z M 76.449219 81.390625 L 75.367188 80.925781 C 75.519531 80.695312 75.597656 80.464844 75.753906 80.15625 L 76.757812 80.695312 C 76.679688 80.925781 76.523438 81.160156 76.449219 81.390625 Z M 77.605469 79.460938 L 76.679688 78.765625 C 76.832031 78.53125 76.988281 78.300781 77.21875 78.148438 L 78.070312 78.917969 C 77.914062 79.074219 77.683594 79.304688 77.605469 79.460938 Z M 79.074219 77.914062 L 78.300781 76.988281 C 78.53125 76.832031 78.6875 76.679688 78.917969 76.449219 L 79.613281 77.375 C 79.460938 77.605469 79.304688 77.761719 79.074219 77.914062 Z M 80.925781 76.679688 L 80.386719 75.675781 C 80.617188 75.519531 80.847656 75.445312 81.160156 75.289062 L 81.621094 76.371094 C 81.390625 76.449219 81.160156 76.523438 80.925781 76.679688 Z M 83.011719 75.832031 L 82.703125 74.671875 C 82.933594 74.59375 83.242188 74.515625 83.476562 74.515625 L 83.707031 75.675781 C 83.476562 75.753906 83.242188 75.753906 83.011719 75.832031 Z M 85.171875 75.519531 L 85.097656 74.363281 C 85.25 74.363281 85.484375 74.363281 85.636719 74.363281 L 85.636719 75.519531 C 85.484375 75.445312 85.328125 75.519531 85.171875 75.519531 Z M 85.171875 75.519531 "/>
<path style=" stroke:none;fill-rule:nonzero;fill:rgb(13.72549%,12.156863%,12.54902%);fill-opacity:1;" d="M 88.648438 91.96875 L 82.703125 91.96875 C 81.3125 91.96875 80.230469 90.886719 80.230469 89.5 C 80.230469 89.1875 80.464844 88.878906 80.847656 88.878906 C 81.234375 88.878906 81.46875 89.113281 81.46875 89.5 C 81.46875 90.191406 82.007812 90.8125 82.78125 90.8125 L 88.726562 90.8125 C 89.421875 90.8125 90.039062 90.269531 90.039062 89.5 L 90.039062 87.492188 C 90.039062 86.796875 89.5 86.175781 88.726562 86.175781 L 82.78125 86.175781 C 81.390625 86.175781 80.308594 85.097656 80.308594 83.707031 L 80.308594 81.851562 C 80.308594 80.464844 81.390625 79.382812 82.78125 79.382812 L 88.726562 79.382812 C 90.117188 79.382812 91.195312 80.464844 91.195312 81.851562 C 91.195312 82.164062 90.964844 82.472656 90.578125 82.472656 C 90.269531 82.472656 89.960938 82.238281 89.960938 81.851562 C 89.960938 81.160156 89.421875 80.539062 88.648438 80.539062 L 82.703125 80.539062 C 82.007812 80.539062 81.390625 81.082031 81.390625 81.851562 L 81.390625 83.859375 C 81.390625 84.554688 81.929688 85.171875 82.703125 85.171875 L 88.648438 85.171875 C 90.039062 85.171875 91.121094 86.253906 91.121094 87.644531 L 91.121094 89.652344 C 91.121094 90.886719 89.960938 91.96875 88.648438 91.96875 Z M 88.648438 91.96875 "/>
<path style=" stroke:none;fill-rule:nonzero;fill:rgb(13.72549%,12.156863%,12.54902%);fill-opacity:1;" d="M 85.714844 93.589844 C 85.40625 93.589844 85.097656 93.359375 85.097656 92.972656 L 85.097656 78.378906 C 85.097656 78.070312 85.328125 77.761719 85.714844 77.761719 C 86.023438 77.761719 86.332031 77.992188 86.332031 78.378906 L 86.332031 92.972656 C 86.253906 93.28125 86.023438 93.589844 85.714844 93.589844 Z M 85.714844 93.589844 "/>
<path style=" stroke:none;fill-rule:nonzero;fill:rgb(13.72549%,12.156863%,12.54902%);fill-opacity:1;" d="M 58.839844 4.863281 L 60 4.863281 L 60 5.636719 L 58.839844 5.636719 Z M 58.839844 4.863281 "/>
<path style=" stroke:none;fill-rule:nonzero;fill:rgb(13.72549%,12.156863%,12.54902%);fill-opacity:1;" d="M 58.839844 7.257812 L 60 7.257812 L 60 8.03125 L 58.839844 8.03125 Z M 58.839844 7.257812 "/>
<path style=" stroke:none;fill-rule:nonzero;fill:rgb(13.72549%,12.156863%,12.54902%);fill-opacity:1;" d="M 58.839844 9.574219 L 60 9.574219 L 60 10.347656 L 58.839844 10.347656 Z M 58.839844 9.574219 "/>
<path style=" stroke:none;fill-rule:nonzero;fill:rgb(13.72549%,12.156863%,12.54902%);fill-opacity:1;" d="M 58.839844 2.546875 L 60 2.546875 L 60 3.320312 L 58.839844 3.320312 Z M 58.839844 2.546875 "/>
<path style=" stroke:none;fill-rule:nonzero;fill:rgb(13.72549%,12.156863%,12.54902%);fill-opacity:1;" d="M 58.839844 0.230469 L 60 0.230469 L 60 1.003906 L 58.839844 1.003906 Z M 58.839844 0.230469 "/>
<path style=" stroke:none;fill-rule:nonzero;fill:rgb(13.72549%,12.156863%,12.54902%);fill-opacity:1;" d="M 58.839844 18.917969 L 60 18.917969 L 60 19.691406 L 58.839844 19.691406 Z M 58.839844 18.917969 "/>
<path style=" stroke:none;fill-rule:nonzero;fill:rgb(13.72549%,12.156863%,12.54902%);fill-opacity:1;" d="M 58.839844 21.3125 L 60 21.3125 L 60 22.085938 L 58.839844 22.085938 Z M 58.839844 21.3125 "/>
<path style=" stroke:none;fill-rule:nonzero;fill:rgb(13.72549%,12.156863%,12.54902%);fill-opacity:1;" d="M 58.839844 16.601562 L 60 16.601562 L 60 17.375 L 58.839844 17.375 Z M 58.839844 16.601562 "/>
<path style=" stroke:none;fill-rule:nonzero;fill:rgb(13.72549%,12.156863%,12.54902%);fill-opacity:1;" d="M 58.839844 14.285156 L 60 14.285156 L 60 15.058594 L 58.839844 15.058594 Z M 58.839844 14.285156 "/>
<path style=" stroke:none;fill-rule:nonzero;fill:rgb(13.72549%,12.156863%,12.54902%);fill-opacity:1;" d="M 58.839844 11.890625 L 60 11.890625 L 60 12.664062 L 58.839844 12.664062 Z M 58.839844 11.890625 "/>
<path style=" stroke:none;fill-rule:nonzero;fill:rgb(13.72549%,12.156863%,12.54902%);fill-opacity:1;" d="M 60 28.878906 L 60 23.628906 L 58.839844 23.628906 L 58.839844 30.039062 L 63.628906 30.039062 L 51.660156 41.929688 L 39.769531 30.039062 L 44.480469 30.039062 L 44.480469 0 L 43.320312 0 L 43.320312 28.878906 L 36.910156 28.878906 L 51.660156 43.628906 L 66.410156 28.878906 Z M 60 28.878906 "/>
<path style=" stroke:none;fill-rule:nonzero;fill:rgb(13.72549%,12.156863%,12.54902%);fill-opacity:1;" d="M 86.332031 15.675781 L 87.492188 15.675781 L 87.492188 16.449219 L 86.332031 16.449219 Z M 86.332031 15.675781 "/>
<path style=" stroke:none;fill-rule:nonzero;fill:rgb(13.72549%,12.156863%,12.54902%);fill-opacity:1;" d="M 86.332031 18.070312 L 87.492188 18.070312 L 87.492188 18.839844 L 86.332031 18.839844 Z M 86.332031 18.070312 "/>
<path style=" stroke:none;fill-rule:nonzero;fill:rgb(13.72549%,12.156863%,12.54902%);fill-opacity:1;" d="M 86.332031 20.386719 L 87.492188 20.386719 L 87.492188 21.160156 L 86.332031 21.160156 Z M 86.332031 20.386719 "/>
<path style=" stroke:none;fill-rule:nonzero;fill:rgb(13.72549%,12.156863%,12.54902%);fill-opacity:1;" d="M 86.332031 13.359375 L 87.492188 13.359375 L 87.492188 14.132812 L 86.332031 14.132812 Z M 86.332031 13.359375 "/>
<path style=" stroke:none;fill-rule:nonzero;fill:rgb(13.72549%,12.156863%,12.54902%);fill-opacity:1;" d="M 86.332031 22.703125 L 87.492188 22.703125 L 87.492188 23.476562 L 86.332031 23.476562 Z M 86.332031 22.703125 "/>
<path style=" stroke:none;fill-rule:nonzero;fill:rgb(13.72549%,12.156863%,12.54902%);fill-opacity:1;" d="M 86.332031 27.414062 L 87.492188 27.414062 L 87.492188 28.183594 L 86.332031 28.183594 Z M 86.332031 27.414062 "/>
<path style=" stroke:none;fill-rule:nonzero;fill:rgb(13.72549%,12.156863%,12.54902%);fill-opacity:1;" d="M 86.332031 11.042969 L 87.492188 11.042969 L 87.492188 11.816406 L 86.332031 11.816406 Z M 86.332031 11.042969 "/>
<path style=" stroke:none;fill-rule:nonzero;fill:rgb(13.72549%,12.156863%,12.54902%);fill-opacity:1;" d="M 86.332031 25.097656 L 87.492188 25.097656 L 87.492188 25.867188 L 86.332031 25.867188 Z M 86.332031 25.097656 "/>
<path style=" stroke:none;fill-rule:nonzero;fill:rgb(13.72549%,12.156863%,12.54902%);fill-opacity:1;" d="M 87.492188 33.28125 L 87.492188 29.808594 L 86.332031 29.808594 L 86.332031 34.515625 L 89.1875 34.515625 L 81.699219 41.929688 L 74.285156 34.515625 L 77.144531 34.515625 L 77.144531 11.042969 L 75.984375 11.042969 L 75.984375 33.28125 L 71.429688 33.28125 L 81.699219 43.628906 L 92.046875 33.28125 Z M 87.492188 33.28125 "/>
<path style=" stroke:none;fill-rule:nonzero;fill:rgb(13.72549%,12.156863%,12.54902%);fill-opacity:1;" d="M 39.613281 7.875 C 39.304688 7.875 38.996094 7.644531 38.996094 7.257812 L 38.996094 5.40625 C 38.996094 5.097656 39.226562 4.789062 39.613281 4.789062 C 39.921875 4.789062 40.230469 5.019531 40.230469 5.40625 L 40.230469 7.335938 C 40.230469 7.644531 39.921875 7.875 39.613281 7.875 Z M 39.613281 7.875 "/>
<path style=" stroke:none;fill-rule:nonzero;fill:rgb(13.72549%,12.156863%,12.54902%);fill-opacity:1;" d="M 39.613281 11.273438 C 39.304688 11.273438 38.996094 11.042969 38.996094 10.65625 L 38.996094 9.574219 C 38.996094 9.265625 39.226562 8.957031 39.613281 8.957031 C 39.921875 8.957031 40.230469 9.1875 40.230469 9.574219 L 40.230469 10.65625 C 40.230469 11.042969 39.921875 11.273438 39.613281 11.273438 Z M 39.613281 11.273438 "/>
<path style=" stroke:none;fill-rule:nonzero;fill:rgb(13.72549%,12.156863%,12.54902%);fill-opacity:1;" d="M 39.613281 26.796875 C 39.304688 26.796875 38.996094 26.5625 38.996094 26.175781 L 38.996094 12.972656 C 38.996094 12.664062 39.226562 12.355469 39.613281 12.355469 C 39.921875 12.355469 40.230469 12.585938 40.230469 12.972656 L 40.230469 26.175781 C 40.230469 26.488281 39.921875 26.796875 39.613281 26.796875 Z M 39.613281 26.796875 "/>
<path style=" stroke:none;fill-rule:nonzero;fill:rgb(13.72549%,12.156863%,12.54902%);fill-opacity:1;" d="M 54.515625 5.097656 C 54.207031 5.097656 53.898438 4.863281 53.898438 4.480469 L 53.898438 2.546875 C 53.898438 2.238281 54.132812 1.929688 54.515625 1.929688 C 54.828125 1.929688 55.136719 2.164062 55.136719 2.546875 L 55.136719 4.480469 C 55.136719 4.789062 54.902344 5.097656 54.515625 5.097656 Z M 54.515625 5.097656 "/>
<path style=" stroke:none;fill-rule:nonzero;fill:rgb(13.72549%,12.156863%,12.54902%);fill-opacity:1;" d="M 54.515625 8.496094 C 54.207031 8.496094 53.898438 8.261719 53.898438 7.875 L 53.898438 6.796875 C 53.898438 6.488281 54.132812 6.175781 54.515625 6.175781 C 54.828125 6.175781 55.136719 6.410156 55.136719 6.796875 L 55.136719 7.875 C 55.136719 8.183594 54.902344 8.496094 54.515625 8.496094 Z M 54.515625 8.496094 "/>
<path style=" stroke:none;fill-rule:nonzero;fill:rgb(13.72549%,12.156863%,12.54902%);fill-opacity:1;" d="M 54.515625 23.9375 C 54.207031 23.9375 53.898438 23.707031 53.898438 23.320312 L 53.898438 10.117188 C 53.898438 9.808594 54.132812 9.5 54.515625 9.5 C 54.828125 9.5 55.136719 9.730469 55.136719 10.117188 L 55.136719 23.320312 C 55.136719 23.707031 54.902344 23.9375 54.515625 23.9375 Z M 54.515625 23.9375 "/>
<path style=" stroke:none;fill-rule:nonzero;fill:rgb(13.72549%,12.156863%,12.54902%);fill-opacity:1;" d="M 81.699219 12.972656 C 81.390625 12.972656 81.082031 12.742188 81.082031 12.355469 L 81.082031 10.734375 C 81.082031 10.425781 81.3125 10.117188 81.699219 10.117188 C 82.007812 10.117188 82.316406 10.347656 82.316406 10.734375 L 82.316406 12.355469 C 82.316406 12.664062 82.085938 12.972656 81.699219 12.972656 Z M 81.699219 12.972656 "/>
<path style=" stroke:none;fill-rule:nonzero;fill:rgb(13.72549%,12.156863%,12.54902%);fill-opacity:1;" d="M 81.699219 15.753906 C 81.390625 15.753906 81.082031 15.519531 81.082031 15.136719 L 81.082031 14.207031 C 81.082031 13.898438 81.3125 13.589844 81.699219 13.589844 C 82.007812 13.589844 82.316406 13.824219 82.316406 14.207031 L 82.316406 15.136719 C 82.316406 15.519531 82.085938 15.753906 81.699219 15.753906 Z M 81.699219 15.753906 "/>
<path style=" stroke:none;fill-rule:nonzero;fill:rgb(13.72549%,12.156863%,12.54902%);fill-opacity:1;" d="M 81.699219 28.726562 C 81.390625 28.726562 81.082031 28.496094 81.082031 28.109375 L 81.082031 17.066406 C 81.082031 16.757812 81.3125 16.449219 81.699219 16.449219 C 82.007812 16.449219 82.316406 16.679688 82.316406 17.066406 L 82.316406 28.183594 C 82.316406 28.496094 82.085938 28.726562 81.699219 28.726562 Z M 81.699219 28.726562 "/>
<path style=" stroke:none;fill-rule:nonzero;fill:rgb(13.72549%,12.156863%,12.54902%);fill-opacity:1;" d="M 72.820312 4.09375 C 72.507812 4.09375 72.199219 3.859375 72.199219 3.476562 L 72.199219 1.851562 C 72.199219 1.542969 72.433594 1.234375 72.820312 1.234375 C 73.128906 1.234375 73.4375 1.46875 73.4375 1.851562 L 73.4375 3.476562 C 73.4375 3.859375 73.203125 4.09375 72.820312 4.09375 Z M 72.820312 4.09375 "/>
<path style=" stroke:none;fill-rule:nonzero;fill:rgb(13.72549%,12.156863%,12.54902%);fill-opacity:1;" d="M 72.820312 6.949219 C 72.507812 6.949219 72.199219 6.71875 72.199219 6.332031 L 72.199219 5.484375 C 72.199219 5.171875 72.433594 4.863281 72.820312 4.863281 C 73.128906 4.863281 73.4375 5.097656 73.4375 5.484375 L 73.4375 6.410156 C 73.4375 6.71875 73.203125 6.949219 72.820312 6.949219 Z M 72.820312 6.949219 "/>
<path style=" stroke:none;fill-rule:nonzero;fill:rgb(13.72549%,12.156863%,12.54902%);fill-opacity:1;" d="M 72.820312 19.921875 C 72.507812 19.921875 72.199219 19.691406 72.199219 19.304688 L 72.199219 8.261719 C 72.199219 7.953125 72.433594 7.644531 72.820312 7.644531 C 73.128906 7.644531 73.4375 7.875 73.4375 8.261719 L 73.4375 19.304688 C 73.4375 19.613281 73.203125 19.921875 72.820312 19.921875 Z M 72.820312 19.921875 "/>
<path style=" stroke:none;fill-rule:nonzero;fill:rgb(13.72549%,12.156863%,12.54902%);fill-opacity:1;" d="M 30.578125 18.300781 C 30.269531 18.300781 29.960938 18.070312 29.960938 17.683594 L 29.960938 15.753906 C 29.960938 15.445312 30.191406 15.136719 30.578125 15.136719 C 30.964844 15.136719 31.195312 15.367188 31.195312 15.753906 L 31.195312 17.761719 C 31.121094 18.070312 30.886719 18.300781 30.578125 18.300781 Z M 30.578125 18.300781 "/>
<path style=" stroke:none;fill-rule:nonzero;fill:rgb(13.72549%,12.156863%,12.54902%);fill-opacity:1;" d="M 30.578125 21.699219 C 30.269531 21.699219 29.960938 21.46875 29.960938 21.082031 L 29.960938 20.078125 C 29.960938 19.769531 30.191406 19.460938 30.578125 19.460938 C 30.964844 19.460938 31.195312 19.691406 31.195312 20.078125 L 31.195312 21.160156 C 31.121094 21.46875 30.886719 21.699219 30.578125 21.699219 Z M 30.578125 21.699219 "/>
<path style=" stroke:none;fill-rule:nonzero;fill:rgb(13.72549%,12.156863%,12.54902%);fill-opacity:1;" d="M 30.578125 37.21875 C 30.269531 37.21875 29.960938 36.988281 29.960938 36.601562 L 29.960938 23.398438 C 29.960938 23.089844 30.191406 22.78125 30.578125 22.78125 C 30.964844 22.78125 31.195312 23.011719 31.195312 23.398438 L 31.195312 36.601562 C 31.121094 36.910156 30.886719 37.21875 30.578125 37.21875 Z M 30.578125 37.21875 "/>
<path style=" stroke:none;fill-rule:nonzero;fill:rgb(13.72549%,12.156863%,12.54902%);fill-opacity:1;" d="M 34.515625 5.558594 C 34.207031 5.558594 33.898438 5.328125 33.898438 4.941406 L 33.898438 3.011719 C 33.898438 2.703125 34.132812 2.394531 34.515625 2.394531 C 34.828125 2.394531 35.136719 2.625 35.136719 3.011719 L 35.136719 4.941406 C 35.136719 5.328125 34.828125 5.558594 34.515625 5.558594 Z M 34.515625 5.558594 "/>
<path style=" stroke:none;fill-rule:nonzero;fill:rgb(13.72549%,12.156863%,12.54902%);fill-opacity:1;" d="M 34.515625 8.957031 C 34.207031 8.957031 33.898438 8.726562 33.898438 8.339844 L 33.898438 7.257812 C 33.898438 6.949219 34.132812 6.640625 34.515625 6.640625 C 34.828125 6.640625 35.136719 6.871094 35.136719 7.257812 L 35.136719 8.339844 C 35.136719 8.726562 34.828125 8.957031 34.515625 8.957031 Z M 34.515625 8.957031 "/>
<path style=" stroke:none;fill-rule:nonzero;fill:rgb(13.72549%,12.156863%,12.54902%);fill-opacity:1;" d="M 34.515625 24.402344 C 34.207031 24.402344 33.898438 24.167969 33.898438 23.785156 L 33.898438 10.578125 C 33.898438 10.269531 34.132812 9.960938 34.515625 9.960938 C 34.828125 9.960938 35.136719 10.191406 35.136719 10.578125 L 35.136719 23.785156 C 35.136719 24.167969 34.828125 24.402344 34.515625 24.402344 Z M 34.515625 24.402344 "/>
</g>
</svg>
