<?xml version="1.0" encoding="utf-8"?>
<!-- Generator: Adobe Illustrator 18.0.0, SVG Export Plug-In . SVG Version: 6.00 Build 0)  -->
<!DOCTYPE svg PUBLIC "-//W3C//DTD SVG 1.1//EN" "http://www.w3.org/Graphics/SVG/1.1/DTD/svg11.dtd">
<svg version="1.1" id="Layer_1" xmlns="http://www.w3.org/2000/svg" xmlns:xlink="http://www.w3.org/1999/xlink" x="0px" y="0px"
	 viewBox="0 0 129.5 129.5" enable-background="new 0 0 129.5 129.5" xml:space="preserve">
<g>
	<g>
		<g>
			<path fill="#231F20" d="M77,113.3c-0.2,0-0.4-0.1-0.5-0.2c-0.3-0.3-0.3-0.8,0-1.1l1.3-1.3c0.3-0.3,0.8-0.3,1.1,0
				c0.3,0.3,0.3,0.8,0,1.1l-1.3,1.3C77.4,113.2,77.2,113.3,77,113.3z"/>
		</g>
		<g>
			<path fill="#231F20" d="M73,117.3c-0.2,0-0.4-0.1-0.5-0.2c-0.3-0.3-0.3-0.8,0-1.1l1.3-1.3c0.3-0.3,0.8-0.3,1.1,0
				c0.3,0.3,0.3,0.8,0,1.1l-1.3,1.3C73.4,117.2,73.2,117.3,73,117.3z"/>
		</g>
		<g>
			<path fill="#231F20" d="M78.3,117.3c-0.2,0-0.4-0.1-0.5-0.2l-1.3-1.3c-0.3-0.3-0.3-0.8,0-1.1c0.3-0.3,0.8-0.3,1.1,0l1.3,1.3
				c0.3,0.3,0.3,0.8,0,1.1C78.7,117.2,78.5,117.3,78.3,117.3z"/>
		</g>
		<g>
			<path fill="#231F20" d="M74.3,113.3c-0.2,0-0.4-0.1-0.5-0.2l-1.3-1.3c-0.3-0.3-0.3-0.8,0-1.1c0.3-0.3,0.8-0.3,1.1,0l1.3,1.3
				c0.3,0.3,0.3,0.8,0,1.1C74.7,113.2,74.5,113.3,74.3,113.3z"/>
		</g>
		<g>
			<path fill="#231F20" d="M22.9,7.9c-0.2,0-0.4-0.1-0.5-0.2c-0.3-0.3-0.3-0.8,0-1.1l1.3-1.3c0.3-0.3,0.8-0.3,1.1,0
				c0.3,0.3,0.3,0.8,0,1.1l-1.3,1.3C23.3,7.8,23.1,7.9,22.9,7.9z"/>
		</g>
		<g>
			<path fill="#231F20" d="M18.9,11.9c-0.2,0-0.4-0.1-0.5-0.2c-0.3-0.3-0.3-0.8,0-1.1l1.3-1.3c0.3-0.3,0.8-0.3,1.1,0
				c0.3,0.3,0.3,0.8,0,1.1l-1.3,1.3C19.3,11.8,19.1,11.9,18.9,11.9z"/>
		</g>
		<g>
			<path fill="#231F20" d="M24.2,11.9c-0.2,0-0.4-0.1-0.5-0.2l-1.3-1.3c-0.3-0.3-0.3-0.8,0-1.1c0.3-0.3,0.8-0.3,1.1,0l1.3,1.3
				c0.3,0.3,0.3,0.8,0,1.1C24.6,11.8,24.4,11.9,24.2,11.9z"/>
		</g>
		<g>
			<path fill="#231F20" d="M20.2,7.9c-0.2,0-0.4-0.1-0.5-0.2l-1.3-1.3c-0.3-0.3-0.3-0.8,0-1.1c0.3-0.3,0.8-0.3,1.1,0l1.3,1.3
				c0.3,0.3,0.3,0.8,0,1.1C20.6,7.8,20.4,7.9,20.2,7.9z"/>
		</g>
		<g>
			<path fill="#231F20" d="M110,9.2c-0.2,0-0.4-0.1-0.5-0.2c-0.3-0.3-0.3-0.8,0-1.1l1.3-1.3c0.3-0.3,0.8-0.3,1.1,0
				c0.3,0.3,0.3,0.8,0,1.1L110.5,9C110.3,9.2,110.1,9.2,110,9.2z"/>
		</g>
		<g>
			<path fill="#231F20" d="M105.9,13.2c-0.2,0-0.4-0.1-0.5-0.2c-0.3-0.3-0.3-0.8,0-1.1l1.3-1.3c0.3-0.3,0.8-0.3,1.1,0
				c0.3,0.3,0.3,0.8,0,1.1l-1.3,1.3C106.3,13.2,106.1,13.2,105.9,13.2z"/>
		</g>
		<g>
			<path fill="#231F20" d="M111.2,13.2c-0.2,0-0.4-0.1-0.5-0.2l-1.3-1.3c-0.3-0.3-0.3-0.8,0-1.1c0.3-0.3,0.8-0.3,1.1,0l1.3,1.3
				c0.3,0.3,0.3,0.8,0,1.1C111.6,13.2,111.4,13.2,111.2,13.2z"/>
		</g>
		<g>
			<path fill="#231F20" d="M107.2,9.2c-0.2,0-0.4-0.1-0.5-0.2l-1.3-1.3c-0.3-0.3-0.3-0.8,0-1.1c0.3-0.3,0.8-0.3,1.1,0l1.3,1.3
				c0.3,0.3,0.3,0.8,0,1.1C107.6,9.2,107.4,9.2,107.2,9.2z"/>
		</g>
		<g>
			<circle fill="#E6E9EE" cx="104.1" cy="105.3" r="17.2"/>
		</g>
		<g>
			<path fill="#FFFFFF" d="M93.4,109.3c1.6,4.3,5.8,7.4,10.6,7.4c4.9,0,9-3.1,10.6-7.4H93.4z"/>
			<path fill="#231F20" d="M104.1,117.5c-5,0-9.6-3.2-11.4-7.9c-0.1-0.2-0.1-0.5,0.1-0.7c0.1-0.2,0.4-0.3,0.6-0.3h21.3
				c0.2,0,0.5,0.1,0.6,0.3c0.1,0.2,0.2,0.5,0.1,0.7C113.7,114.3,109.1,117.5,104.1,117.5z M94.6,110.1c1.8,3.6,5.5,5.9,9.5,5.9
				c4,0,7.7-2.3,9.5-5.9H94.6z"/>
		</g>
		<g>
			<circle fill="#FFFFFF" cx="110.8" cy="101.1" r="2.6"/>
			<path fill="#231F20" d="M110.8,104.4c-1.9,0-3.4-1.5-3.4-3.4c0-1.9,1.5-3.4,3.4-3.4c1.9,0,3.4,1.5,3.4,3.4
				C114.2,102.9,112.7,104.4,110.8,104.4z M110.8,99.2c-1,0-1.9,0.8-1.9,1.9s0.8,1.9,1.9,1.9s1.9-0.8,1.9-1.9S111.9,99.2,110.8,99.2
				z"/>
		</g>
		<g>
			<circle fill="#FFFFFF" cx="97.4" cy="101.1" r="2.6"/>
			<path fill="#231F20" d="M97.4,104.4c-1.9,0-3.4-1.5-3.4-3.4c0-1.9,1.5-3.4,3.4-3.4c1.9,0,3.4,1.5,3.4,3.4
				C100.7,102.9,99.2,104.4,97.4,104.4z M97.4,99.2c-1,0-1.9,0.8-1.9,1.9s0.8,1.9,1.9,1.9s1.9-0.8,1.9-1.9S98.4,99.2,97.4,99.2z"/>
		</g>
		<g>
			<path fill="#FFFFFF" d="M11.5,70.6c-1.2,0-2.3,0.5-3,1.4c-0.7-0.8-1.8-1.4-3-1.4c-2.3,0-4.1,1.8-4.1,4.1c0,6.6,7.1,9.2,7.1,9.2
				s7.1-2.6,7.1-9.2C15.6,72.4,13.8,70.6,11.5,70.6z"/>
			<path fill="#231F20" d="M8.5,84.6c-0.1,0-0.2,0-0.3,0c-0.3-0.1-7.6-2.9-7.6-9.9c0-2.7,2.2-4.8,4.8-4.8c1.1,0,2.2,0.4,3,1.1
				c0.9-0.7,1.9-1.1,3-1.1c2.7,0,4.8,2.2,4.8,4.8c0,7-7.3,9.8-7.6,9.9C8.7,84.6,8.6,84.6,8.5,84.6z M5.5,71.3
				c-1.8,0-3.3,1.5-3.3,3.3c0,5.3,5.1,7.9,6.4,8.4c1.2-0.5,6.4-3.1,6.4-8.4c0-1.8-1.5-3.3-3.3-3.3c-0.9,0-1.8,0.4-2.5,1.1
				c-0.1,0.2-0.3,0.2-0.6,0.2l0,0c-0.2,0-0.4-0.1-0.6-0.2C7.3,71.7,6.4,71.3,5.5,71.3z"/>
		</g>
		<path fill="#FFFFFF" d="M65,61.5c-2.1-5.7-2.7-12.1-1.2-18.5c3.9-17.5,21.3-28.4,38.8-24.5c17.5,3.9,28.4,21.3,24.5,38.8
			c-3.9,17.5-21.3,28.4-38.8,24.5c-6.4-1.4-11.9-4.7-16.1-9.1l-15.5,1.9L65,61.5z"/>
		<g>
			<path fill="#FFFFFF" d="M64,91.5c1.6,4.4,2.1,9.3,1,14.2c-3,13.4-16.3,21.8-29.8,18.8c-13.4-3-21.8-16.3-18.8-29.8
				c3-13.4,16.3-21.8,29.8-18.8c4.9,1.1,9.1,3.6,12.4,6.9l11.9-1.5L64,91.5z"/>
			<path fill="#231F20" d="M40.7,125.8c-1.9,0-3.8-0.2-5.7-0.6c-6.7-1.5-12.4-5.5-16-11.3c-3.7-5.8-4.8-12.7-3.3-19.3
				c2.7-11.8,12.9-20,25-20c1.9,0,3.8,0.2,5.7,0.6c4.7,1.1,9.1,3.5,12.5,6.9l11.5-1.4c0.3,0,0.6,0.1,0.7,0.3c0.2,0.2,0.2,0.6,0,0.8
				l-6.2,9.8c1.6,4.6,1.9,9.5,0.9,14.2C63,117.6,52.7,125.8,40.7,125.8z M40.6,76.1c-11.2,0-21.1,7.9-23.5,18.8
				c-1.4,6.3-0.3,12.8,3.1,18.2c3.4,5.5,8.8,9.2,15.1,10.7c1.8,0.4,3.6,0.6,5.3,0.6c11.2,0,21.1-7.9,23.5-18.8
				c1-4.6,0.7-9.3-0.9-13.7c-0.1-0.2-0.1-0.5,0.1-0.7l5.6-8.8l-10.3,1.3c-0.2,0-0.5-0.1-0.6-0.2c-3.3-3.4-7.4-5.7-12-6.7
				C44.2,76.3,42.4,76.1,40.6,76.1z"/>
		</g>
		<g>
			<path fill="#FF7058" d="M95.3,68.6c-4.1-1.8-17.5-8.9-17.5-23.3c0-4.8,3.9-8.7,8.7-8.7c2.4,0,4.8,1.1,6.4,2.9l2.4,2.7l2.4-2.7
				c1.6-1.8,4-2.9,6.4-2.9c4.8,0,8.7,3.9,8.7,8.7C112.8,59.6,99.3,66.8,95.3,68.6z"/>
		</g>
		<g>
			<line fill="#FFFFFF" x1="65.9" y1="33.3" x2="69" y2="33.3"/>
			<path fill="#231F20" d="M69,34.1h-3.1c-0.4,0-0.8-0.3-0.8-0.8s0.3-0.8,0.8-0.8H69c0.4,0,0.8,0.3,0.8,0.8S69.5,34.1,69,34.1z"/>
		</g>
		<g>
			<line fill="#FFFFFF" x1="68.8" y1="41.2" x2="63.9" y2="41.2"/>
			<path fill="#231F20" d="M68.8,41.9h-4.8c-0.4,0-0.8-0.3-0.8-0.8c0-0.4,0.3-0.8,0.8-0.8h4.8c0.4,0,0.8,0.3,0.8,0.8
				C69.5,41.6,69.2,41.9,68.8,41.9z"/>
		</g>
		<g>
			<line fill="#FFFFFF" x1="67.2" y1="49" x2="63.9" y2="49"/>
			<path fill="#231F20" d="M67.2,49.8h-3.3c-0.4,0-0.8-0.3-0.8-0.8c0-0.4,0.3-0.8,0.8-0.8h3.3c0.4,0,0.8,0.3,0.8,0.8
				C68,49.5,67.6,49.8,67.2,49.8z"/>
		</g>
		<g>
			<path fill="#FFD05B" d="M41.5,88.8l2.9,6.4c0.1,0.3,0.4,0.5,0.7,0.5L52,97c0.8,0.1,1.1,1.1,0.5,1.6l-5.2,4.7
				c-0.2,0.2-0.3,0.5-0.3,0.8l0.9,7c0.1,0.8-0.7,1.3-1.4,1l-6.1-3.5c-0.3-0.2-0.6-0.2-0.9,0l-6.3,3c-0.7,0.3-1.5-0.3-1.3-1.1
				l1.5-6.9c0.1-0.3,0-0.6-0.2-0.9l-4.8-5.1c-0.5-0.6-0.2-1.5,0.6-1.6l7-0.7c0.3,0,0.6-0.2,0.7-0.5l3.4-6.2
				C40.2,88,41.2,88.1,41.5,88.8z"/>
		</g>
		<g>
			<circle fill="#84DBFF" cx="122.7" cy="19.9" r="2.1"/>
		</g>
		<g>
			<circle fill="#FFD05B" cx="88.7" cy="8" r="3.2"/>
		</g>
		<g>
			<rect x="62.3" y="6.3" fill="#FFFFFF" width="10.7" height="10.7"/>
			<path fill="#231F20" d="M73,17.8H62.3c-0.4,0-0.8-0.3-0.8-0.8V6.3c0-0.4,0.3-0.8,0.8-0.8H73c0.4,0,0.8,0.3,0.8,0.8v10.7
				C73.8,17.5,73.4,17.8,73,17.8z M63,16.3h9.2V7.1H63V16.3z"/>
		</g>
		<g>
			<path fill="#231F20" d="M68.5,14.6c-0.2,0-0.4-0.1-0.5-0.2l-2.6-2.6c-0.3-0.3-0.3-0.8,0-1.1s0.8-0.3,1.1,0l2.1,2.1l8.9-8.9
				c0.3-0.3,0.8-0.3,1.1,0c0.3,0.3,0.3,0.8,0,1.1L69,14.4C68.9,14.5,68.7,14.6,68.5,14.6z"/>
		</g>
		<path fill="#FFFFFF" d="M76,36.9c-0.2-2-2-3.5-4.1-3.5l-2.9,0c2.3,0,4.1-2,3.9-4.3c-0.2-2-2-3.5-4.1-3.5H53.3c-1,0-1.6-1-1.3-1.8
			l1.1-2.9c1-2.6,2.1-6.3,0.3-11.7c-0.9-2.8-3.4-4.6-6.3-4.6h-1.9v8.7c0,1.3-0.4,2.6-1,3.7l-5.3,8.7c-1.2,1.9-3.2,3.2-5.5,3.3
			l-4.9,0.3v27.3l13.4,0.6h25.1c2.1,0,3.9-1.5,4.1-3.5c0.2-2.3-1.6-4.3-3.9-4.3h1.5c2.1,0,3.9-1.5,4.1-3.5c0.2-2.3-1.6-4.3-3.9-4.3
			h3.4C74.4,41.2,76.3,39.2,76,36.9z"/>
		<g>
			<line fill="#FFFFFF" x1="61.7" y1="33.3" x2="62.9" y2="33.3"/>
			<path fill="#231F20" d="M62.9,34.1h-1.2c-0.4,0-0.8-0.3-0.8-0.8s0.3-0.8,0.8-0.8h1.2c0.4,0,0.8,0.3,0.8,0.8S63.3,34.1,62.9,34.1z
				"/>
		</g>
		<g>
			<line fill="#FFFFFF" x1="61.2" y1="41.2" x2="60" y2="41.2"/>
			<path fill="#231F20" d="M61.2,41.9H60c-0.4,0-0.8-0.3-0.8-0.8c0-0.4,0.3-0.8,0.8-0.8h1.2c0.4,0,0.8,0.3,0.8,0.8
				C62,41.6,61.6,41.9,61.2,41.9z"/>
		</g>
		<g>
			<line fill="#FFFFFF" x1="61.2" y1="49" x2="60" y2="49"/>
			<path fill="#231F20" d="M61.2,49.8H60c-0.4,0-0.8-0.3-0.8-0.8c0-0.4,0.3-0.8,0.8-0.8h1.2c0.4,0,0.8,0.3,0.8,0.8
				C62,49.5,61.6,49.8,61.2,49.8z"/>
		</g>
		<rect x="21.5" y="23.5" fill="#FFFFFF" width="6.9" height="36.6"/>
		<polyline fill="#84DBFF" points="0.4,19 21.5,19 21.5,63.4 0.4,63.4 		"/>
		<g>
			<circle fill="#FFFFFF" cx="10.3" cy="55.2" r="3.3"/>
			<path fill="#231F20" d="M10.3,59.3c-2.3,0-4.1-1.8-4.1-4.1c0-2.3,1.8-4.1,4.1-4.1c2.3,0,4.1,1.8,4.1,4.1
				C14.4,57.4,12.5,59.3,10.3,59.3z M10.3,52.6c-1.4,0-2.6,1.2-2.6,2.6c0,1.4,1.2,2.6,2.6,2.6c1.4,0,2.6-1.2,2.6-2.6
				C12.9,53.7,11.7,52.6,10.3,52.6z"/>
		</g>
		<polygon fill="#FFFFFF" points="122.7,89.6 126.7,85.6 119.8,78.8 128.4,75.1 105.9,68.8 112.2,91.3 115.9,82.7 		"/>
		<path fill="#231F20" d="M128.6,74.4l-8.2-2.3c3.6-4.1,6.2-9,7.4-14.6c2-8.6,0.4-17.5-4.3-25c-4.7-7.5-12.1-12.7-20.7-14.7
			c-2.4-0.5-4.9-0.8-7.3-0.8c-8.9,0-17,3.5-23,9.2c-0.9-0.9-2.2-1.5-3.5-1.5H53.3c-0.2,0-0.4-0.1-0.5-0.3c-0.1-0.2-0.1-0.4-0.1-0.6
			l1.1-2.9c1.2-3,2.1-6.8,0.3-12.2c-1-3.1-3.8-5.1-7.1-5.1h-1.9c-0.4,0-0.8,0.3-0.8,0.7v8.7c0,1.2-0.3,2.3-0.9,3.3L38.1,25
			c-1.1,1.7-2.9,2.8-4.9,3l-4.1,0.3v-4.8c0-0.4-0.3-0.8-0.8-0.8h-6.1V19c0-0.4-0.3-0.8-0.8-0.8H0.4v1.5h20.4v42.9H0.4v1.5h21.2
			c0.4,0,0.8-0.3,0.8-0.8v-2.6h6.1c0.4,0,0.8-0.3,0.8-0.8v-2.9l12.7,0.5h21.3c0.3,1.2,0.6,2.5,1,3.7L56,74.3c-0.2,0.2-0.2,0.6,0,0.8
			c0.2,0.2,0.4,0.4,0.7,0.3l15.1-1.9c4.4,4.5,10.1,7.6,16.2,9c2.4,0.5,4.9,0.8,7.3,0.8c4.6,0,9-1,13-2.7l3,10.8
			c0.1,0.3,0.4,0.5,0.7,0.5c0,0,0,0,0,0c0.3,0,0.6-0.2,0.7-0.5l3.2-7.5l6.1,6.1c0.3,0.3,0.8,0.3,1.1,0l4-4c0.1-0.1,0.2-0.3,0.2-0.5
			c0-0.2-0.1-0.4-0.2-0.5l-6.1-6.1l7.5-3.2c0.3-0.1,0.5-0.4,0.5-0.7C129.1,74.8,128.9,74.5,128.6,74.4z M27.7,59.3h-5.4V24.2h5.4
			V59.3z M41.9,56.2l-12.7-0.5V29.8l4.2-0.3c2.5-0.2,4.8-1.6,6.1-3.7l5.3-8.7c0.8-1.2,1.1-2.6,1.1-4.1V5.2h1.2
			c2.6,0,4.8,1.6,5.6,4.1c1.7,5,0.8,8.5-0.3,11.2l-1.1,2.9c-0.3,0.6-0.2,1.4,0.2,2c0.4,0.6,1,0.9,1.7,0.9h15.6
			c1.7,0,3.2,1.3,3.3,2.9c0.1,0.9-0.2,1.8-0.8,2.5c-0.6,0.7-1.5,1-2.4,1c-0.4,0-0.8,0.3-0.8,0.8s0.3,0.8,0.8,0.8l2.9,0
			c1.7,0,3.2,1.3,3.3,2.9c0.1,0.9-0.2,1.8-0.8,2.5c-0.6,0.7-1.5,1-2.4,1h-3.4c-0.4,0-0.8,0.3-0.8,0.8c0,0.4,0.3,0.8,0.8,0.8
			c0.9,0,1.8,0.4,2.4,1c0.6,0.7,0.9,1.5,0.8,2.5c-0.2,1.6-1.6,2.9-3.3,2.9h-1.5c-0.4,0-0.8,0.3-0.8,0.8c0,0.4,0.3,0.8,0.8,0.8
			c0.9,0,1.8,0.4,2.4,1c0.6,0.7,0.9,1.5,0.8,2.5c-0.2,1.6-1.6,2.9-3.3,2.9L41.9,56.2z M95.5,81.9c-2.3,0-4.7-0.3-7-0.8
			c-6-1.4-11.5-4.4-15.8-8.8c-0.1-0.1-0.3-0.2-0.5-0.2c0,0-0.1,0-0.1,0l-13.9,1.7l7.5-11.8c0.1-0.2,0.2-0.4,0.1-0.7
			c-0.4-1.2-0.8-2.3-1-3.5h2.2c2.5,0,4.6-1.9,4.8-4.2c0.1-1.3-0.3-2.6-1.2-3.6c-0.1-0.1-0.2-0.2-0.3-0.3c1.7-0.6,3-2.1,3.2-3.9
			c0.1-1.3-0.3-2.6-1.2-3.6l0,0c1.3,0,2.5-0.6,3.4-1.5c0.9-1,1.3-2.3,1.2-3.6c-0.2-2.2-2.1-4-4.3-4.2c0,0,0,0,0.1-0.1
			c0.9-1,1.3-2.3,1.2-3.6c0-0.5-0.2-0.9-0.4-1.4c5.8-5.7,13.7-9.1,22.1-9.1c2.3,0,4.7,0.3,7,0.8c8.3,1.9,15.3,6.8,19.8,14
			c4.5,7.2,6,15.6,4.1,23.9c-1.3,5.6-3.9,10.5-7.6,14.5l-12.6-3.5c-0.3-0.1-0.5,0-0.7,0.2c-0.2,0.2-0.3,0.5-0.2,0.7l2.9,10.2
			C104.2,80.9,99.9,81.9,95.5,81.9z M119.5,78.1c-0.2,0.1-0.4,0.3-0.4,0.5c0,0.2,0,0.5,0.2,0.7l6.3,6.3l-2.9,2.9l-6.3-6.3
			c-0.2-0.2-0.4-0.3-0.7-0.2c-0.2,0-0.4,0.2-0.5,0.4l-2.8,6.6L107,69.9l19.1,5.4L119.5,78.1z"/>
	</g>
</g>
</svg>
