<?xml version="1.0" encoding="utf-8"?>
<!-- Generator: Adobe Illustrator 18.0.0, SVG Export Plug-In . SVG Version: 6.00 Build 0)  -->
<!DOCTYPE svg PUBLIC "-//W3C//DTD SVG 1.1//EN" "http://www.w3.org/Graphics/SVG/1.1/DTD/svg11.dtd">
<svg version="1.1" id="Layer_1" xmlns="http://www.w3.org/2000/svg" xmlns:xlink="http://www.w3.org/1999/xlink" x="0px" y="0px"
	 viewBox="0 0 129.5 129.5" enable-background="new 0 0 129.5 129.5" xml:space="preserve">
<g>
	<g>
		<g>
			<g>
				<path fill="#231F20" d="M127.5,3.7c-0.2,0-0.4-0.1-0.5-0.2c-0.3-0.3-0.3-0.8,0-1.1l1.3-1.3c0.3-0.3,0.8-0.3,1.1,0
					c0.3,0.3,0.3,0.8,0,1.1L128,3.5C127.9,3.6,127.7,3.7,127.5,3.7z"/>
			</g>
			<g>
				<path fill="#231F20" d="M123.5,7.7c-0.2,0-0.4-0.1-0.5-0.2c-0.3-0.3-0.3-0.8,0-1.1l1.3-1.3c0.3-0.3,0.8-0.3,1.1,0
					c0.3,0.3,0.3,0.8,0,1.1L124,7.5C123.9,7.6,123.7,7.7,123.5,7.7z"/>
			</g>
			<g>
				<path fill="#231F20" d="M128.7,7.7c-0.2,0-0.4-0.1-0.5-0.2l-1.3-1.3c-0.3-0.3-0.3-0.8,0-1.1c0.3-0.3,0.8-0.3,1.1,0l1.3,1.3
					c0.3,0.3,0.3,0.8,0,1.1C129.1,7.6,128.9,7.7,128.7,7.7z"/>
			</g>
			<g>
				<path fill="#231F20" d="M124.8,3.7c-0.2,0-0.4-0.1-0.5-0.2L123,2.2c-0.3-0.3-0.3-0.8,0-1.1s0.8-0.3,1.1,0l1.3,1.3
					c0.3,0.3,0.3,0.8,0,1.1C125.2,3.6,125,3.7,124.8,3.7z"/>
			</g>
		</g>
		<g>
			<g>
				<path fill="#231F20" d="M6.6,46.9c-0.2,0-0.4-0.1-0.5-0.2c-0.3-0.3-0.3-0.8,0-1.1l1.3-1.3c0.3-0.3,0.8-0.3,1.1,0
					c0.3,0.3,0.3,0.8,0,1.1l-1.3,1.3C7,46.9,6.8,46.9,6.6,46.9z"/>
			</g>
			<g>
				<path fill="#231F20" d="M2.6,50.9c-0.2,0-0.4-0.1-0.5-0.2c-0.3-0.3-0.3-0.8,0-1.1l1.3-1.3c0.3-0.3,0.8-0.3,1.1,0
					c0.3,0.3,0.3,0.8,0,1.1l-1.3,1.3C3,50.8,2.8,50.9,2.6,50.9z"/>
			</g>
			<g>
				<path fill="#231F20" d="M7.9,50.9c-0.2,0-0.4-0.1-0.5-0.2l-1.3-1.3c-0.3-0.3-0.3-0.8,0-1.1c0.3-0.3,0.8-0.3,1.1,0l1.3,1.3
					c0.3,0.3,0.3,0.8,0,1.1C8.2,50.8,8,50.9,7.9,50.9z"/>
			</g>
			<g>
				<path fill="#231F20" d="M3.9,46.9c-0.2,0-0.4-0.1-0.5-0.2l-1.3-1.3c-0.3-0.3-0.3-0.8,0-1.1c0.3-0.3,0.8-0.3,1.1,0l1.3,1.3
					c0.3,0.3,0.3,0.8,0,1.1C4.3,46.9,4.1,46.9,3.9,46.9z"/>
			</g>
		</g>
		<g>
			<g>
				<path fill="#231F20" d="M127.5,124.6c-0.2,0-0.4-0.1-0.5-0.2c-0.3-0.3-0.3-0.8,0-1.1l1.3-1.3c0.3-0.3,0.8-0.3,1.1,0
					c0.3,0.3,0.3,0.8,0,1.1l-1.3,1.3C127.9,124.5,127.7,124.6,127.5,124.6z"/>
			</g>
			<g>
				<path fill="#231F20" d="M123.5,128.6c-0.2,0-0.4-0.1-0.5-0.2c-0.3-0.3-0.3-0.8,0-1.1l1.3-1.3c0.3-0.3,0.8-0.3,1.1,0
					c0.3,0.3,0.3,0.8,0,1.1l-1.3,1.3C123.9,128.5,123.7,128.6,123.5,128.6z"/>
			</g>
			<g>
				<path fill="#231F20" d="M128.7,128.6c-0.2,0-0.4-0.1-0.5-0.2l-1.3-1.3c-0.3-0.3-0.3-0.8,0-1.1c0.3-0.3,0.8-0.3,1.1,0l1.3,1.3
					c0.3,0.3,0.3,0.8,0,1.1C129.1,128.5,128.9,128.6,128.7,128.6z"/>
			</g>
			<g>
				<path fill="#231F20" d="M124.8,124.6c-0.2,0-0.4-0.1-0.5-0.2l-1.3-1.3c-0.3-0.3-0.3-0.8,0-1.1c0.3-0.3,0.8-0.3,1.1,0l1.3,1.3
					c0.3,0.3,0.3,0.8,0,1.1C125.2,124.5,125,124.6,124.8,124.6z"/>
			</g>
		</g>
		<g>
			<circle fill="#FFD05B" cx="125.6" cy="46.1" r="3.5"/>
		</g>
		<g>
			<circle fill="#FF7058" cx="5.2" cy="84.3" r="2.6"/>
		</g>
		<g>
			<path fill="#FFFFFF" d="M114.8,118.7V10.8c0-1.5-1.2-2.7-2.7-2.7H20.1c-1.5,0-2.7,1.2-2.7,2.7v107.9c0,1.5,1.2,2.7,2.7,2.7h92.1
				C113.6,121.4,114.8,120.2,114.8,118.7z"/>
		</g>
		<g>
			<path fill="#E6E9EE" d="M114.8,29.7V10.8c0-1.5-1.2-2.7-2.7-2.7H20.1c-1.5,0-2.7,1.2-2.7,2.7v18.9H114.8z"/>
		</g>
		<g>
			<path fill="#54C0EB" d="M114.8,10.8v7.6H44.1l-1.9-5.1H26.8L25,18.4h-7.6v-7.6c0-1.5,1.2-2.7,2.7-2.7h92.1
				C113.6,8.1,114.8,9.3,114.8,10.8z"/>
		</g>
		<g>
			<circle fill="#FF7058" cx="107.7" cy="13.4" r="2.4"/>
		</g>
		<g>
			<circle fill="#FFD05B" cx="100.9" cy="13.4" r="2.4"/>
		</g>
		<g>
			<circle fill="#E6E9EE" cx="94.3" cy="13.4" r="2.4"/>
		</g>
		<g>
			<polygon fill="#CED5E0" points="63.2,18.4 44.1,18.4 45.9,13.3 61.3,13.3 			"/>
		</g>
		<g>
			<rect x="30.2" y="21.1" fill="#FFFFFF" width="69.6" height="6.2"/>
		</g>
		<g>
			<path fill="#324A5E" d="M32.2,22.7h0.4v1.2h0c0.1-0.1,0.1-0.2,0.3-0.3c0.1-0.1,0.2-0.1,0.4-0.1c0.3,0,0.7,0.2,0.7,0.8v1.2h-0.4
				v-1.1c0-0.3-0.1-0.6-0.5-0.6c-0.2,0-0.4,0.2-0.5,0.4c0,0,0,0.1,0,0.2v1.2h-0.4V22.7z"/>
			<path fill="#324A5E" d="M34.9,23.1v0.6h0.5v0.3h-0.5V25c0,0.2,0.1,0.4,0.3,0.4c0.1,0,0.2,0,0.2,0l0,0.3c-0.1,0-0.2,0-0.3,0
				c-0.2,0-0.3-0.1-0.4-0.2c-0.1-0.1-0.1-0.3-0.1-0.5v-1.1h-0.3v-0.3h0.3v-0.5L34.9,23.1z"/>
			<path fill="#324A5E" d="M36.2,23.1v0.6h0.5v0.3h-0.5V25c0,0.2,0.1,0.4,0.3,0.4c0.1,0,0.2,0,0.2,0l0,0.3c-0.1,0-0.2,0-0.3,0
				c-0.2,0-0.3-0.1-0.4-0.2c-0.1-0.1-0.1-0.3-0.1-0.5v-1.1h-0.3v-0.3h0.3v-0.5L36.2,23.1z"/>
			<path fill="#324A5E" d="M37.1,24.3c0-0.3,0-0.5,0-0.6h0.3l0,0.3h0c0.1-0.2,0.4-0.4,0.7-0.4c0.5,0,0.8,0.4,0.8,1
				c0,0.7-0.4,1.1-0.9,1.1c-0.3,0-0.5-0.1-0.6-0.3h0v1.1h-0.4V24.3z M37.5,24.8c0,0.1,0,0.1,0,0.1c0.1,0.2,0.3,0.4,0.5,0.4
				c0.4,0,0.6-0.3,0.6-0.8c0-0.4-0.2-0.7-0.6-0.7c-0.2,0-0.5,0.2-0.5,0.4c0,0,0,0.1,0,0.1V24.8z"/>
			<path fill="#324A5E" d="M39.4,24c0-0.2,0.1-0.3,0.2-0.3s0.2,0.1,0.2,0.3c0,0.1-0.1,0.3-0.2,0.3C39.5,24.2,39.4,24.1,39.4,24z
				 M39.4,25.4c0-0.2,0.1-0.3,0.2-0.3s0.2,0.1,0.2,0.3c0,0.1-0.1,0.3-0.2,0.3C39.5,25.6,39.4,25.5,39.4,25.4z"/>
			<path fill="#324A5E" d="M40,25.8l1.1-3h0.3l-1.1,3H40z"/>
			<path fill="#324A5E" d="M41.4,25.8l1.1-3h0.3l-1.1,3H41.4z"/>
			<path fill="#324A5E" d="M44.1,23.6l0.3,1c0.1,0.2,0.1,0.4,0.1,0.6h0c0-0.2,0.1-0.4,0.2-0.6l0.3-1h0.3l0.3,1
				c0.1,0.2,0.1,0.4,0.2,0.6h0c0-0.2,0.1-0.4,0.2-0.6l0.3-1h0.4l-0.6,2h-0.3l-0.3-0.9c-0.1-0.2-0.1-0.4-0.2-0.6h0
				c0,0.2-0.1,0.4-0.2,0.7l-0.3,0.9h-0.3l-0.6-2H44.1z"/>
			<path fill="#324A5E" d="M47.2,23.6l0.3,1c0.1,0.2,0.1,0.4,0.1,0.6h0c0-0.2,0.1-0.4,0.2-0.6l0.3-1h0.3l0.3,1
				c0.1,0.2,0.1,0.4,0.2,0.6h0c0-0.2,0.1-0.4,0.2-0.6l0.3-1h0.4l-0.6,2h-0.3l-0.3-0.9c-0.1-0.2-0.1-0.4-0.2-0.6h0
				c0,0.2-0.1,0.4-0.2,0.7l-0.3,0.9h-0.3l-0.6-2H47.2z"/>
			<path fill="#324A5E" d="M50.2,23.6l0.3,1c0.1,0.2,0.1,0.4,0.1,0.6h0c0-0.2,0.1-0.4,0.2-0.6l0.3-1h0.3l0.3,1
				c0.1,0.2,0.1,0.4,0.2,0.6h0c0-0.2,0.1-0.4,0.2-0.6l0.3-1h0.4l-0.6,2h-0.3l-0.3-0.9c-0.1-0.2-0.1-0.4-0.2-0.6h0
				c0,0.2-0.1,0.4-0.2,0.7l-0.3,0.9h-0.3l-0.6-2H50.2z"/>
			<path fill="#324A5E" d="M52.8,25.4c0-0.2,0.1-0.3,0.2-0.3s0.2,0.1,0.2,0.3c0,0.1-0.1,0.3-0.2,0.3C52.9,25.6,52.8,25.5,52.8,25.4z
				"/>
		</g>
		<g>
			<g>
				<g>
					<path fill="#231F20" d="M79.4,72.1H21.9V34h57.5V72.1z M23.4,70.6h54.5V35.5H23.4V70.6z"/>
				</g>
				<g>
					<rect x="25.2" y="37.3" fill="#84DBFF" width="51" height="31.6"/>
				</g>
				<g>
					<circle fill="#FFFFFF" cx="50.7" cy="51.5" r="9"/>
					<path fill="#231F20" d="M50.7,61.3c-5.4,0-9.8-4.4-9.8-9.8s4.4-9.8,9.8-9.8c5.4,0,9.8,4.4,9.8,9.8S56.1,61.3,50.7,61.3z
						 M50.7,43.2c-4.6,0-8.3,3.7-8.3,8.3c0,4.6,3.7,8.3,8.3,8.3c4.6,0,8.3-3.7,8.3-8.3C58.9,46.9,55.2,43.2,50.7,43.2z"/>
				</g>
				<g>
					<path fill="#84DBFF" d="M47.4,47.6v7.8c0,0.9,1,1.5,1.8,1l5.7-3.9c0.7-0.5,0.7-1.5,0-1.9l-5.7-3.9
						C48.4,46.1,47.4,46.6,47.4,47.6z"/>
				</g>
				<g>
					<rect x="28.6" y="64.7" fill="#231F20" width="44.1" height="1.5"/>
				</g>
				<g>
					<rect x="32.3" y="63.5" fill="#231F20" width="1.5" height="3.9"/>
				</g>
			</g>
			<g>
				<g>
					<path fill="#231F20" d="M98.3,43.4H84.1V34h14.2V43.4z M85.6,41.9h11.2v-6.3H85.6V41.9z"/>
				</g>
				<g>
					<rect x="100" y="34" fill="#231F20" width="9.6" height="1.5"/>
				</g>
				<g>
					<rect x="100" y="37.9" fill="#231F20" width="6.6" height="1.5"/>
				</g>
			</g>
			<g>
				<g>
					<path fill="#231F20" d="M98.3,56.1H84.1v-9.3h14.2V56.1z M85.6,54.6h11.2v-6.3H85.6V54.6z"/>
				</g>
				<g>
					<rect x="100" y="46.8" fill="#231F20" width="9.6" height="1.5"/>
				</g>
				<g>
					<rect x="100" y="50.7" fill="#231F20" width="6.6" height="1.5"/>
				</g>
			</g>
			<g>
				<g>
					<path fill="#231F20" d="M98.3,68.9H84.1v-9.3h14.2V68.9z M85.6,67.4h11.2v-6.3H85.6V67.4z"/>
				</g>
				<g>
					<rect x="100" y="59.5" fill="#231F20" width="9.6" height="1.5"/>
				</g>
				<g>
					<rect x="100" y="63.5" fill="#231F20" width="6.6" height="1.5"/>
				</g>
			</g>
			<g>
				<g>
					<path fill="#231F20" d="M98.3,81.6H84.1v-9.3h14.2V81.6z M85.6,80.1h11.2v-6.3H85.6V80.1z"/>
				</g>
				<g>
					<rect x="100" y="72.3" fill="#231F20" width="9.6" height="1.5"/>
				</g>
				<g>
					<rect x="100" y="76.2" fill="#231F20" width="6.6" height="1.5"/>
				</g>
			</g>
		</g>
		<g>
			<rect x="22.7" y="75.2" fill="#231F20" width="47.1" height="1.5"/>
		</g>
		<g>
			<rect x="22.7" y="80.1" fill="#231F20" width="38.5" height="1.5"/>
		</g>
		<g>
			<path fill="#231F20" d="M78.1,87.8h-1v-1.5h1V87.8z M75.1,87.8h-1v-1.5h1V87.8z M72.1,87.8h-1v-1.5h1V87.8z M69.1,87.8h-1v-1.5h1
				V87.8z M66,87.8h-1v-1.5h1V87.8z M63,87.8h-1v-1.5h1V87.8z M60,87.8h-1v-1.5h1V87.8z M57,87.8h-1v-1.5h1V87.8z M53.9,87.8h-1
				v-1.5h1V87.8z M50.9,87.8h-1v-1.5h1V87.8z M47.9,87.8h-1v-1.5h1V87.8z M44.8,87.8h-1v-1.5h1V87.8z M41.8,87.8h-1v-1.5h1V87.8z
				 M38.8,87.8h-1v-1.5h1V87.8z M35.8,87.8h-1v-1.5h1V87.8z M32.7,87.8h-1v-1.5h1V87.8z M29.7,87.8h-1v-1.5h1V87.8z M26.7,87.8h-1
				v-1.5h1V87.8z M23.7,87.8h-1v-1.5h1V87.8z"/>
		</g>
		<g>
			<path fill="#231F20" d="M29.2,101.1h-7.3v-7.3h7.3V101.1z M23.4,99.6h4.3v-4.3h-4.3V99.6z"/>
		</g>
		<g>
			<path fill="#231F20" d="M79.4,111H35.6v-7.4L30.3,97h5.3v-3.3h43.8V111z M37.1,109.4h40.8V95.3H37.1v3.3h-3.6l3.6,4.4V109.4z"/>
		</g>
		<polygon fill="#FFFFFF" points="122.2,97 96.3,87.8 105.4,113.7 109.7,104.3 117,111.6 120,108.6 112.7,101.3 		"/>
		<path fill="#231F20" d="M124.2,96.9l-8.7-3.1v-83c0-1.9-1.5-3.4-3.4-3.4H20.1c-1.9,0-3.4,1.5-3.4,3.4l0,107.9
			c0,1.9,1.5,3.4,3.4,3.4h92.1c1.9,0,3.4-1.5,3.4-3.4v-7.5l1.5,1.5l4.1-4.1l-7.1-7.1L124.2,96.9z M114,118.7c0,1-0.9,1.9-1.9,1.9
			H20.1c-1,0-1.9-0.8-1.9-1.9l0-107.9c0-1,0.9-1.9,1.9-1.9h92.1c1,0,1.9,0.9,1.9,1.9v82.5l-19-6.7l10.3,29.2l4.6-10.2l4.1,4.1V118.7
			z M118.9,108.6l-1.9,1.9l-7.5-7.5l-4,8.8l-8-22.6l22.6,8l-8.8,4L118.9,108.6z"/>
		<g>
			<circle fill="#E6E9EE" cx="89.2" cy="111.1" r="2.6"/>
		</g>
		<g>
			<circle fill="#84DBFF" cx="2.6" cy="32.2" r="2.6"/>
		</g>
	</g>
</g>
</svg>
