<?xml version="1.0" encoding="utf-8"?>
<!-- Generator: Adobe Illustrator 18.0.0, SVG Export Plug-In . SVG Version: 6.00 Build 0)  -->
<!DOCTYPE svg PUBLIC "-//W3C//DTD SVG 1.1//EN" "http://www.w3.org/Graphics/SVG/1.1/DTD/svg11.dtd">
<svg version="1.1" id="Layer_1" xmlns="http://www.w3.org/2000/svg" xmlns:xlink="http://www.w3.org/1999/xlink" x="0px" y="0px"
	 viewBox="0 0 129.5 129.5" enable-background="new 0 0 129.5 129.5" xml:space="preserve">
<g>
	<g>
		<polygon fill="#FFFFFF" points="68.3,81.7 74.7,21.7 50.5,21.7 57,81.7 		"/>
		<circle fill="#FFFFFF" cx="62.6" cy="18.2" r="16.9"/>
		<rect x="14.2" y="32" fill="#FFFFFF" width="9.9" height="37.7"/>
		<g>
			<rect x="0.4" y="27.4" fill="#84DBFF" width="16.4" height="46.9"/>
		</g>
		<path fill="#FFFFFF" d="M76.7,68h-9.7c-2.2,0-3.9-1.7-3.9-3.9V64c0-2.2,1.7-3.9,3.9-3.9h9.7c2.2,0,3.9,1.7,3.9,3.9v0.1
			C80.6,66.3,78.8,68,76.7,68z"/>
		<path fill="#FFFFFF" d="M80.4,60.1H65.5c-2.2,0-3.9-1.7-3.9-3.9V56c0-2.2,1.7-3.9,3.9-3.9h14.9c2.2,0,3.9,1.7,3.9,3.9v0.1
			C84.3,58.3,82.6,60.1,80.4,60.1z"/>
		<path fill="#FFFFFF" d="M84,52.3H65.5c-2.2,0-3.9-1.7-3.9-3.9v-0.1c0-2.2,1.7-3.9,3.9-3.9H84c2.2,0,3.9,1.7,3.9,3.9v0.1
			C87.9,50.6,86.1,52.3,84,52.3z"/>
		<path fill="#FFFFFF" d="M82,44.4H65.3c-2.1,0-3.8-1.7-3.8-3.8v-0.4c0-2.1,1.7-3.8,3.8-3.8H82c2.1,0,3.8,1.7,3.8,3.8v0.4
			C85.7,42.7,84,44.4,82,44.4z"/>
		<path fill="#FFFFFF" d="M44.6,48.4L44.6,48.4c5.5,0,10-4.5,10-10l0,0h14.9c5.3,0,9.5-4.3,9.5-9.5l0,0H40.6l-9.5,8.3h-6.9"/>
		<rect x="25.8" y="81.7" fill="#FFFFFF" width="73.7" height="10.3"/>
		<rect x="30.7" y="92" fill="#E6E9EE" width="63.9" height="6.1"/>
		<path fill="#231F20" d="M99.5,80.9H69.1l1.3-12.1h6.2c2.6,0,4.6-2.1,4.6-4.7V64c0-1.2-0.5-2.3-1.3-3.1h0.3c2.6,0,4.7-2.1,4.7-4.7
			V56c0-1.1-0.4-2.2-1.1-3h0c2.6,0,4.7-2.1,4.7-4.7v-0.1c0-2.2-1.5-4-3.5-4.5c0.8-0.8,1.3-2,1.3-3.2v-0.4c0-2.5-2-4.5-4.5-4.5h-4.8
			c1.6-1.8,2.6-4.2,2.6-6.8c0-0.4-0.3-0.8-0.8-0.8h-1.8c1.9-2.8,3.1-6.2,3.1-9.9c0-9.8-7.9-17.7-17.7-17.7S44.9,8.5,44.9,18.2
			c0,3.7,1.2,7,3.1,9.9h-7.4c-0.2,0-0.4,0.1-0.5,0.2l-9.3,8.1h-5.9V32c0-0.4-0.3-0.8-0.8-0.8h-7.3v1.5h6.5v36.2h-6.5v1.5h7.3
			c0.4,0,0.8-0.3,0.8-0.8v-5.1h8.8l4,4c0.1,0.1,0.3,0.2,0.5,0.2h16.7l1.3,12.1H25.8c-0.4,0-0.8,0.3-0.8,0.8V92
			c0,0.4,0.3,0.8,0.8,0.8h4.2v5.4c0,0.4,0.3,0.8,0.8,0.8h63.9c0.4,0,0.8-0.3,0.8-0.8v-5.4h4.2c0.4,0,0.8-0.3,0.8-0.8V81.7
			C100.2,81.2,99.9,80.9,99.5,80.9z M79.8,64.1c0,1.7-1.4,3.2-3.1,3.2h-9.7c-1.7,0-3.2-1.4-3.2-3.2V64c0-1.7,1.4-3.1,3.2-3.1h9.7
			c1.7,0,3.1,1.4,3.1,3.1V64.1z M83.6,56.2c0,1.7-1.4,3.2-3.2,3.2H65.5c-1.7,0-3.1-1.4-3.1-3.2V56c0-1.5,1-2.7,2.4-3
			c0.3,0,0.5,0.1,0.8,0.1h16c1.2,0.4,2.1,1.6,2.1,3V56.2z M87.1,48.3v0.1c0,1.7-1.4,3.2-3.2,3.2h-2.3c-0.4-0.1-0.8-0.2-1.2-0.2H65.5
			c-0.3,0-0.5,0-0.8,0.1c-1.4-0.3-2.4-1.6-2.4-3v-0.1c0-1.7,1.4-3.2,3.1-3.2H84C85.7,45.1,87.1,46.6,87.1,48.3z M82,37.2
			c1.7,0,3,1.4,3,3v0.4c0,1.7-1.3,3-3,3H65.3c-1.7,0-3-1.4-3-3v-0.4c0-0.4,0.1-0.7,0.2-1.1h7c2.3,0,4.3-0.7,6-2H82z M46.4,18.2
			c0-8.9,7.3-16.2,16.2-16.2c8.9,0,16.2,7.3,16.2,16.2c0,3.7-1.3,7.2-3.4,9.9H49.8C47.7,25.4,46.4,22,46.4,18.2z M38.5,67.3l-4-4
			c-0.1-0.1-0.3-0.2-0.5-0.2h-9.1V37.9h6.2c0.2,0,0.4-0.1,0.5-0.2l9.3-8.1h37.3c-0.4,4.5-4.2,8-8.8,8H54.5c-0.4,0-0.8,0.3-0.8,0.8
			c0,5.1-4.1,9.2-9.2,9.2c-0.4,0-0.8,0.3-0.8,0.8c0,0.4,0.3,0.8,0.8,0.8c3.1,0,5.8-1.3,7.8-3.3l2.3,21.5H38.5z M53.7,44
			c0.9-1.4,1.5-3.1,1.6-4.9h5.7c-0.1,0.3-0.1,0.7-0.1,1.1v0.4c0,1.6,0.8,3,2.1,3.8c-1.3,0.8-2.1,2.3-2.1,3.9v0.1c0,1.6,0.8,3,2,3.8
			c-1.2,0.8-2,2.2-2,3.8v0.1c0,2,1.3,3.7,3,4.3c-1,0.9-1.6,2.1-1.6,3.5v0.1c0,2.6,2.1,4.7,4.7,4.7h2l-1.3,12.1h-10L53.7,44z
			 M93.8,97.3H31.4v-4.6h62.4V97.3z M98.7,91.2H26.5v-8.8h72.2V91.2z"/>
		<g>
			<polygon fill="#4CDBC4" points="81.7,105.6 78.1,102 59.2,120.9 52.9,114.6 49.3,118.3 59.2,128.2 			"/>
			<path fill="#231F20" d="M59.2,128.9c-0.2,0-0.4-0.1-0.5-0.2l-9.9-9.9c-0.1-0.1-0.2-0.3-0.2-0.5c0-0.2,0.1-0.4,0.2-0.5l3.6-3.6
				c0.3-0.3,0.8-0.3,1.1,0l5.7,5.7l18.4-18.4c0.1-0.1,0.3-0.2,0.5-0.2l0,0c0.2,0,0.4,0.1,0.5,0.2l3.6,3.6c0.3,0.3,0.3,0.8,0,1.1
				l-22.5,22.5C59.6,128.9,59.4,128.9,59.2,128.9z M50.3,118.3l8.9,8.9l21.5-21.5l-2.6-2.6l-18.4,18.4c-0.3,0.3-0.8,0.3-1.1,0
				l-5.7-5.7L50.3,118.3z"/>
		</g>
		<g>
			<g>
				<path fill="#FFFFFF" d="M119.2,15.2l-4.4-2l-0.2,0.3c-1,1.7-2.8,2.6-4.8,2.5c-0.4,0-0.8,0-1.1,0c-2,0-3.8-1-4.6-2.8l-0.1-0.3
					l-4.5,1.7l0.1,0.3c0.5,1.9-0.2,3.9-1.6,5.2c-0.3,0.3-0.6,0.5-0.8,0.8c-1.4,1.4-3.4,1.9-5.2,1.3L91.5,22l-2,4.4l0.3,0.2
					c1.7,1,2.6,2.8,2.5,4.8c0,0.4,0,0.8,0,1.1c0,2-1,3.8-2.8,4.6l-0.3,0.1l1.7,4.5l0.3-0.1c1.9-0.5,3.9,0.2,5.2,1.6
					c0.3,0.3,0.5,0.6,0.8,0.8c1.4,1.4,1.9,3.4,1.3,5.2l-0.1,0.3l4.4,2l0.2-0.3c1-1.7,2.8-2.6,4.8-2.5c0.4,0,0.8,0,1.1,0
					c2,0,3.8,1,4.6,2.8l0.1,0.3l4.5-1.7l-0.1-0.3c-0.5-1.9,0.2-3.9,1.6-5.2c0.3-0.3,0.6-0.5,0.8-0.8c1.4-1.4,3.4-1.9,5.2-1.3
					l0.3,0.1l2-4.4l-0.3-0.2c-1.7-1-2.6-2.8-2.5-4.8c0-0.4,0-0.8,0-1.1c0-2,1-3.8,2.8-4.6l0.3-0.1l-1.7-4.5l-0.3,0.1
					c-1.9,0.5-3.9-0.2-5.2-1.6c-0.3-0.3-0.5-0.6-0.8-0.8c-1.4-1.4-1.9-3.4-1.3-5.2L119.2,15.2z"/>
				<path fill="#231F20" d="M113.6,52.8c-0.3,0-0.5-0.2-0.7-0.4l-0.1-0.3c-0.7-1.5-2.2-2.4-3.9-2.4h-0.1c-0.4,0-0.7,0-1.1,0
					c-1.7-0.1-3.3,0.7-4.1,2.1l-0.2,0.3c-0.2,0.3-0.6,0.5-1,0.3l-4.4-2c-0.4-0.2-0.5-0.6-0.4-0.9l0.1-0.3c0.5-1.5,0.1-3.2-1.1-4.4
					c-0.3-0.3-0.6-0.6-0.8-0.9c-1.1-1.3-2.8-1.8-4.4-1.4l-0.3,0.1c-0.4,0.1-0.8-0.1-0.9-0.5l-1.7-4.5c-0.1-0.4,0-0.8,0.4-0.9
					l0.3-0.1c1.5-0.7,2.4-2.2,2.4-4c0-0.4,0-0.8,0-1.2c0.1-1.7-0.7-3.3-2.1-4.1l-0.3-0.1c-0.3-0.2-0.5-0.6-0.3-1l2-4.4
					c0.2-0.4,0.6-0.5,0.9-0.4l0.3,0.1c1.5,0.5,3.3,0.1,4.5-1.1c0.3-0.3,0.6-0.6,0.9-0.8c1.3-1.1,1.8-2.8,1.4-4.4l-0.1-0.3
					c-0.1-0.4,0.1-0.8,0.5-0.9l4.5-1.7c0.4-0.1,0.8,0,0.9,0.4l0.1,0.3c0.7,1.4,2.2,2.4,3.9,2.4h0.1c0.4,0,0.7,0,1.1,0
					c1.7,0.1,3.3-0.7,4.1-2.1l0.2-0.3c0.2-0.3,0.6-0.5,1-0.3l4.4,2c0.4,0.2,0.5,0.6,0.4,0.9l-0.1,0.3c-0.5,1.5-0.1,3.2,1.1,4.5
					c0.3,0.3,0.6,0.6,0.8,0.9c1.1,1.3,2.8,1.8,4.4,1.4l0.3-0.1c0.4-0.1,0.8,0.1,0.9,0.5l1.7,4.5c0.1,0.4,0,0.8-0.4,0.9l-0.3,0.1
					c-1.5,0.7-2.4,2.2-2.4,4c0,0.4,0,0.8,0,1.2c-0.1,1.7,0.7,3.3,2.1,4.1l0.3,0.1c0.3,0.2,0.5,0.6,0.3,1l-2,4.4
					c-0.2,0.4-0.6,0.5-0.9,0.4l-0.3-0.1c-1.5-0.5-3.3-0.1-4.5,1.1c-0.3,0.3-0.6,0.6-0.9,0.8c-1.3,1.1-1.8,2.8-1.4,4.4l0.1,0.3
					c0.1,0.4-0.1,0.8-0.5,0.9l-4.5,1.7C113.8,52.8,113.7,52.8,113.6,52.8z M108.9,48.2c2.2,0,4.1,1.1,5.1,2.9l3.3-1.3
					c-0.4-2,0.3-4.1,1.9-5.5c0.3-0.2,0.5-0.5,0.8-0.7c1.5-1.5,3.7-2.1,5.6-1.6l1.4-3.2c-1.7-1.1-2.7-3.1-2.6-5.3c0-0.4,0-0.7,0-1.1
					c0-2.2,1.1-4.1,2.9-5.1l-1.3-3.3c-2,0.4-4.1-0.3-5.5-1.9c-0.2-0.3-0.5-0.5-0.8-0.8c-1.5-1.5-2.1-3.7-1.6-5.6l-3.2-1.4
					c-1.1,1.7-3.1,2.7-5.3,2.6c-0.3,0-0.7,0-1,0l-0.1-0.8v0.8c-2.2,0-4.1-1.1-5.1-2.9l-3.3,1.3c0.4,2-0.3,4.1-1.9,5.5
					c-0.3,0.2-0.5,0.5-0.8,0.7c-1.5,1.5-3.7,2.1-5.6,1.6l-1.4,3.2c1.7,1.1,2.7,3.1,2.6,5.3c0,0.4,0,0.7,0,1.1c0,2.2-1.1,4.1-2.9,5.1
					l1.3,3.3c2-0.4,4.1,0.3,5.5,1.9c0.2,0.3,0.5,0.5,0.8,0.8c1.5,1.5,2.1,3.7,1.6,5.6l3.2,1.4c1.1-1.7,3.1-2.7,5.3-2.6
					c0.3,0,0.7,0,1,0H108.9z"/>
			</g>
			<g>
				<path fill="#231F20" d="M108.9,45.8l0-1.5c0.3,0,0.6,0,0.9,0l0.1,1.5C109.6,45.7,109.3,45.8,108.9,45.8z M106.8,45.6
					c-0.3-0.1-0.7-0.1-1-0.2l0.3-1.5c0.3,0.1,0.6,0.1,0.9,0.2L106.8,45.6z M112.1,45.3l-0.4-1.5c0.3-0.1,0.6-0.2,0.9-0.3l0.5,1.4
					C112.8,45.2,112.4,45.3,112.1,45.3z M103.8,44.8c-0.1-0.1-0.3-0.1-0.4-0.2c-0.2-0.1-0.4-0.2-0.5-0.3l0.7-1.3
					c0.2,0.1,0.3,0.2,0.5,0.2c0.1,0.1,0.2,0.1,0.4,0.2L103.8,44.8z M115,44.2l-0.7-1.3c0.3-0.1,0.5-0.3,0.8-0.5l0.8,1.3
					C115.6,43.9,115.3,44,115,44.2z M101,43.2c-0.3-0.2-0.6-0.4-0.8-0.7l1-1.1c0.2,0.2,0.5,0.4,0.7,0.6L101,43.2z M117.6,42.4
					l-1-1.1c0.2-0.2,0.5-0.4,0.7-0.7l1.1,1C118.2,41.9,117.9,42.2,117.6,42.4z M98.7,41.1c-0.2-0.3-0.4-0.5-0.7-0.8l1.2-0.9
					c0.2,0.3,0.4,0.5,0.6,0.7L98.7,41.1z M119.7,40l-1.2-0.9c0.2-0.3,0.3-0.5,0.5-0.8l1.3,0.8C120.1,39.4,119.9,39.7,119.7,40z
					 M96.9,38.4c-0.2-0.3-0.3-0.6-0.4-1l1.4-0.6c0.1,0.3,0.2,0.6,0.4,0.9L96.9,38.4z M121.2,37.2l-1.4-0.5c0.1-0.3,0.2-0.6,0.3-0.9
					l1.4,0.4C121.5,36.5,121.3,36.9,121.2,37.2z M95.8,35.5c-0.1-0.3-0.1-0.7-0.2-1l1.5-0.2c0,0.3,0.1,0.6,0.2,0.9L95.8,35.5z
					 M122,34.1l-1.5-0.2c0-0.3,0.1-0.6,0.1-0.9l1.5,0.1C122.1,33.4,122,33.8,122,34.1z M97,32.3l-1.5,0c0-0.4,0-0.7,0.1-1.1l1.5,0.1
					C97,31.7,97,32,97,32.3z M120.5,31.1c0-0.3-0.1-0.6-0.1-0.9l1.5-0.3c0.1,0.3,0.1,0.7,0.2,1L120.5,31.1z M97.4,29.5l-1.5-0.4
					c0.1-0.3,0.2-0.7,0.3-1l1.4,0.5C97.5,28.9,97.4,29.2,97.4,29.5z M119.9,28.4c-0.1-0.3-0.2-0.6-0.4-0.9l1.4-0.6
					c0.1,0.3,0.3,0.6,0.4,1L119.9,28.4z M98.4,26.9l-1.3-0.7c0.2-0.3,0.3-0.6,0.5-0.9l1.3,0.8C98.7,26.4,98.5,26.6,98.4,26.9z
					 M118.6,25.9c-0.2-0.3-0.4-0.5-0.6-0.8l1.2-0.9c0.2,0.3,0.4,0.6,0.6,0.9L118.6,25.9z M100,24.6l-1.1-1c0.2-0.3,0.5-0.5,0.7-0.8
					l1,1.1C100.4,24.1,100.2,24.4,100,24.6z M116.8,23.8c-0.2-0.2-0.5-0.4-0.7-0.6L117,22c0.3,0.2,0.6,0.4,0.8,0.7L116.8,23.8z
					 M102.1,22.7l-0.8-1.2c0.3-0.2,0.6-0.4,0.9-0.6l0.7,1.3C102.6,22.4,102.4,22.6,102.1,22.7z M114.5,22.1
					c-0.3-0.1-0.6-0.3-0.8-0.4c-0.2-0.1-0.5-0.2-0.7-0.3l0.5-1.4c0.3,0.1,0.6,0.2,0.8,0.3c0.3,0.1,0.6,0.3,0.9,0.5L114.5,22.1z
					 M104.6,21.4l-0.5-1.4c0.3-0.1,0.7-0.2,1-0.3l0.4,1.4C105.2,21.2,104.9,21.3,104.6,21.4z M111.1,20.9c-0.3-0.1-0.6-0.1-0.9-0.1
					l0.2-1.5c0.3,0,0.7,0.1,1,0.2L111.1,20.9z M107.3,20.8l-0.2-1.5c0.3,0,0.7-0.1,1.1-0.1l0.1,1.5C108,20.7,107.6,20.7,107.3,20.8z
					"/>
			</g>
			<g>
				<circle fill="#FF7058" cx="108.8" cy="32.5" r="10"/>
			</g>
			<g>
				<circle fill="#FFFFFF" cx="108.8" cy="32.5" r="5"/>
				<path fill="#231F20" d="M108.8,38.2c-0.8,0-1.6-0.2-2.3-0.5c-1.4-0.6-2.5-1.8-3-3.2c-0.5-1.4-0.5-3,0.1-4.4
					c0.9-2.1,3-3.4,5.2-3.4c0.8,0,1.6,0.2,2.3,0.5c1.4,0.6,2.5,1.8,3,3.2c0.5,1.4,0.5,3-0.1,4.4C113.1,36.9,111,38.2,108.8,38.2z
					 M108.8,28.2c-1.7,0-3.2,1-3.9,2.5c-0.5,1-0.5,2.2-0.1,3.2c0.4,1.1,1.2,1.9,2.2,2.4c0.5,0.2,1.1,0.4,1.7,0.4
					c1.7,0,3.2-1,3.9-2.5c0.5-1,0.5-2.2,0.1-3.2c-0.4-1.1-1.2-1.9-2.2-2.4C110,28.4,109.4,28.2,108.8,28.2z"/>
			</g>
		</g>
		<g>
			<g>
				<g>
					<path fill="#231F20" d="M32.2,113.9c-0.2,0-0.4-0.1-0.5-0.2c-0.3-0.3-0.3-0.8,0-1.1l1.3-1.3c0.3-0.3,0.8-0.3,1.1,0
						c0.3,0.3,0.3,0.8,0,1.1l-1.3,1.3C32.6,113.8,32.4,113.9,32.2,113.9z"/>
				</g>
				<g>
					<path fill="#231F20" d="M28.2,118c-0.2,0-0.4-0.1-0.5-0.2c-0.3-0.3-0.3-0.8,0-1.1l1.3-1.3c0.3-0.3,0.8-0.3,1.1,0
						c0.3,0.3,0.3,0.8,0,1.1l-1.3,1.3C28.5,117.9,28.3,118,28.2,118z"/>
				</g>
				<g>
					<path fill="#231F20" d="M33.6,118c-0.2,0-0.4-0.1-0.5-0.2l-1.3-1.3c-0.3-0.3-0.3-0.8,0-1.1c0.3-0.3,0.8-0.3,1.1,0l1.3,1.3
						c0.3,0.3,0.3,0.8,0,1.1C33.9,117.9,33.8,118,33.6,118z"/>
				</g>
				<g>
					<path fill="#231F20" d="M29.5,113.9c-0.2,0-0.4-0.1-0.5-0.2l-1.3-1.3c-0.3-0.3-0.3-0.8,0-1.1c0.3-0.3,0.8-0.3,1.1,0l1.3,1.3
						c0.3,0.3,0.3,0.8,0,1.1C29.8,113.8,29.7,113.9,29.5,113.9z"/>
				</g>
			</g>
			<g>
				<g>
					<path fill="#231F20" d="M95.6,70.9c-0.2,0-0.4-0.1-0.5-0.2c-0.3-0.3-0.3-0.8,0-1.1l1.3-1.3c0.3-0.3,0.8-0.3,1.1,0
						c0.3,0.3,0.3,0.8,0,1.1l-1.3,1.3C96,70.9,95.8,70.9,95.6,70.9z"/>
				</g>
				<g>
					<path fill="#231F20" d="M91.5,75c-0.2,0-0.4-0.1-0.5-0.2c-0.3-0.3-0.3-0.8,0-1.1l1.3-1.3c0.3-0.3,0.8-0.3,1.1,0
						c0.3,0.3,0.3,0.8,0,1.1l-1.3,1.3C91.9,75,91.7,75,91.5,75z"/>
				</g>
				<g>
					<path fill="#231F20" d="M96.9,75c-0.2,0-0.4-0.1-0.5-0.2l-1.3-1.3c-0.3-0.3-0.3-0.8,0-1.1c0.3-0.3,0.8-0.3,1.1,0l1.3,1.3
						c0.3,0.3,0.3,0.8,0,1.1C97.3,75,97.1,75,96.9,75z"/>
				</g>
				<g>
					<path fill="#231F20" d="M92.8,70.9c-0.2,0-0.4-0.1-0.5-0.2L91,69.4c-0.3-0.3-0.3-0.8,0-1.1c0.3-0.3,0.8-0.3,1.1,0l1.3,1.3
						c0.3,0.3,0.3,0.8,0,1.1C93.2,70.9,93,70.9,92.8,70.9z"/>
				</g>
			</g>
			<g>
				<g>
					<path fill="#231F20" d="M29.5,17.6c-0.2,0-0.4-0.1-0.5-0.2c-0.3-0.3-0.3-0.8,0-1.1l1.3-1.3c0.3-0.3,0.8-0.3,1.1,0
						c0.3,0.3,0.3,0.8,0,1.1l-1.3,1.3C29.9,17.5,29.7,17.6,29.5,17.6z"/>
				</g>
				<g>
					<path fill="#231F20" d="M25.4,21.7c-0.2,0-0.4-0.1-0.5-0.2c-0.3-0.3-0.3-0.8,0-1.1l1.3-1.3c0.3-0.3,0.8-0.3,1.1,0
						c0.3,0.3,0.3,0.8,0,1.1L26,21.5C25.8,21.6,25.6,21.7,25.4,21.7z"/>
				</g>
				<g>
					<path fill="#231F20" d="M30.9,21.7c-0.2,0-0.4-0.1-0.5-0.2L29,20.2c-0.3-0.3-0.3-0.8,0-1.1c0.3-0.3,0.8-0.3,1.1,0l1.3,1.3
						c0.3,0.3,0.3,0.8,0,1.1C31.2,21.6,31,21.7,30.9,21.7z"/>
				</g>
				<g>
					<path fill="#231F20" d="M26.8,17.6c-0.2,0-0.4-0.1-0.5-0.2l-1.3-1.3c-0.3-0.3-0.3-0.8,0-1.1c0.3-0.3,0.8-0.3,1.1,0l1.3,1.3
						c0.3,0.3,0.3,0.8,0,1.1C27.1,17.5,26.9,17.6,26.8,17.6z"/>
				</g>
			</g>
			<g>
				<circle fill="#FF7058" cx="97.7" cy="125.9" r="2.3"/>
			</g>
			<g>
				<circle fill="#84DBFF" cx="85.4" cy="3.6" r="2.3"/>
			</g>
			<g>
				<circle fill="#FFD05B" cx="120.2" cy="89.7" r="1.5"/>
			</g>
			<g>
				<circle fill="#4CDBC4" cx="6.7" cy="95.8" r="2.3"/>
			</g>
			<g>
				<circle fill="#FFD05B" cx="11.7" cy="12.8" r="2.3"/>
			</g>
			<g>
				<path fill="#231F20" d="M116.5,76.3c-2.5,0-4.5-2-4.5-4.5c0-2.5,2-4.5,4.5-4.5s4.5,2,4.5,4.5C121,74.3,119,76.3,116.5,76.3z
					 M116.5,68.8c-1.7,0-3,1.4-3,3c0,1.7,1.4,3,3,3s3-1.4,3-3C119.5,70.1,118.1,68.8,116.5,68.8z"/>
			</g>
		</g>
	</g>
</g>
</svg>
