<?xml version="1.0" encoding="utf-8"?>
<!-- Generator: Adobe Illustrator 18.0.0, SVG Export Plug-In . SVG Version: 6.00 Build 0)  -->
<!DOCTYPE svg PUBLIC "-//W3C//DTD SVG 1.1//EN" "http://www.w3.org/Graphics/SVG/1.1/DTD/svg11.dtd">
<svg version="1.1" id="Layer_1" xmlns="http://www.w3.org/2000/svg" xmlns:xlink="http://www.w3.org/1999/xlink" x="0px" y="0px"
	 viewBox="0 0 129.5 129.5" enable-background="new 0 0 129.5 129.5" xml:space="preserve">
<g>
	<g>
		<g>
			<path fill="#231F20" d="M65.8,120.5l0-1.5c0.3,0,0.7,0,1,0l0.1,1.5C66.5,120.4,66.1,120.4,65.8,120.5z M63.8,120.4
				c-0.3,0-0.7,0-1,0l0.1-1.5c0.3,0,0.7,0,1,0L63.8,120.4z M68.8,120.3l-0.1-1.5c0.3,0,0.7,0,1-0.1l0.1,1.5
				C69.5,120.3,69.2,120.3,68.8,120.3z M60.7,120.3c-0.3,0-0.7-0.1-1-0.1l0.1-1.5c0.3,0,0.7,0.1,1,0.1L60.7,120.3z M71.8,120
				l-0.2-1.5c0.3,0,0.7-0.1,1-0.1l0.2,1.5C72.5,119.9,72.2,120,71.8,120z M57.7,120c-0.3,0-0.7-0.1-1-0.1l0.2-1.5
				c0.3,0,0.7,0.1,1,0.1L57.7,120z M74.8,119.6l-0.3-1.5c0.3-0.1,0.6-0.1,1-0.2l0.3,1.5C75.5,119.4,75.2,119.5,74.8,119.6z
				 M54.7,119.5c-0.3-0.1-0.7-0.1-1-0.2l0.3-1.5c0.3,0.1,0.6,0.1,1,0.2L54.7,119.5z M77.8,118.9l-0.3-1.5c0.3-0.1,0.6-0.2,1-0.2
				l0.4,1.5C78.5,118.8,78.1,118.9,77.8,118.9z M51.7,118.9c-0.3-0.1-0.7-0.2-1-0.2l0.4-1.5c0.3,0.1,0.6,0.2,1,0.2L51.7,118.9z
				 M80.8,118.1l-0.4-1.4c0.3-0.1,0.6-0.2,0.9-0.3l0.5,1.4C81.4,117.9,81.1,118,80.8,118.1z M48.8,118.1c-0.3-0.1-0.6-0.2-1-0.3
				l0.5-1.4c0.3,0.1,0.6,0.2,0.9,0.3L48.8,118.1z M83.7,117.2l-0.5-1.4c0.3-0.1,0.6-0.2,0.9-0.3l0.5,1.4
				C84.3,117,84,117.1,83.7,117.2z M45.9,117.1c-0.3-0.1-0.6-0.2-0.9-0.4l0.5-1.4c0.3,0.1,0.6,0.2,0.9,0.3L45.9,117.1z M86.5,116.1
				l-0.6-1.4c0.3-0.1,0.6-0.3,0.9-0.4l0.6,1.4C87.1,115.8,86.8,116,86.5,116.1z M43.1,116c-0.3-0.1-0.6-0.3-0.9-0.4l0.6-1.4
				c0.3,0.1,0.6,0.3,0.9,0.4L43.1,116z M89.3,114.8l-0.7-1.3c0.3-0.1,0.6-0.3,0.9-0.4l0.7,1.3C89.9,114.5,89.6,114.7,89.3,114.8z
				 M40.3,114.8c-0.3-0.1-0.6-0.3-0.9-0.5l0.7-1.3c0.3,0.2,0.6,0.3,0.9,0.4L40.3,114.8z M92,113.4l-0.7-1.3c0.3-0.2,0.6-0.3,0.9-0.5
				l0.8,1.3C92.6,113.1,92.3,113.2,92,113.4z M37.6,113.3c-0.3-0.2-0.6-0.3-0.9-0.5l0.8-1.3c0.3,0.2,0.6,0.3,0.9,0.5L37.6,113.3z
				 M94.6,111.8l-0.8-1.3c0.3-0.2,0.6-0.4,0.8-0.5l0.8,1.3C95.1,111.5,94.9,111.7,94.6,111.8z M35,111.8c-0.3-0.2-0.6-0.4-0.8-0.5
				L35,110c0.3,0.2,0.6,0.4,0.8,0.5L35,111.8z M97.1,110.1l-0.9-1.2c0.3-0.2,0.5-0.4,0.8-0.6l0.9,1.2
				C97.6,109.7,97.4,109.9,97.1,110.1z M32.5,110.1c-0.3-0.2-0.5-0.4-0.8-0.6l0.9-1.2c0.3,0.2,0.5,0.4,0.8,0.6L32.5,110.1z
				 M99.5,108.3l-0.9-1.2c0.3-0.2,0.5-0.4,0.8-0.6l1,1.2C100.1,107.9,99.8,108.1,99.5,108.3z M30.1,108.2c-0.3-0.2-0.5-0.4-0.8-0.6
				l1-1.2c0.3,0.2,0.5,0.4,0.8,0.6L30.1,108.2z M101.8,106.3l-1-1.1c0.2-0.2,0.5-0.4,0.7-0.7l1,1.1
				C102.3,105.9,102.1,106.1,101.8,106.3z M27.8,106.3c-0.3-0.2-0.5-0.5-0.7-0.7l1-1.1c0.2,0.2,0.5,0.4,0.7,0.7L27.8,106.3z
				 M104.1,104.3l-1.1-1.1c0.2-0.2,0.5-0.5,0.7-0.7l1.1,1C104.5,103.8,104.3,104,104.1,104.3z M25.6,104.2c-0.2-0.2-0.5-0.5-0.7-0.7
				l1.1-1c0.2,0.2,0.5,0.5,0.7,0.7L25.6,104.2z M106.2,102.1l-1.1-1c0.2-0.2,0.4-0.5,0.7-0.7l1.1,1
				C106.6,101.5,106.4,101.8,106.2,102.1z M23.5,102c-0.2-0.3-0.4-0.5-0.7-0.8l1.1-1c0.2,0.2,0.4,0.5,0.7,0.7L23.5,102z M108.1,99.7
				l-1.2-0.9c0.2-0.3,0.4-0.5,0.6-0.8l1.2,0.9C108.5,99.2,108.3,99.5,108.1,99.7z M21.5,99.7c-0.2-0.3-0.4-0.5-0.6-0.8l1.2-0.9
				c0.2,0.3,0.4,0.5,0.6,0.8L21.5,99.7z M110,97.3l-1.2-0.9c0.2-0.3,0.4-0.5,0.6-0.8l1.2,0.9C110.4,96.8,110.2,97,110,97.3z
				 M19.7,97.2c-0.2-0.3-0.4-0.6-0.6-0.8l1.2-0.9c0.2,0.3,0.4,0.5,0.6,0.8L19.7,97.2z M111.7,94.8l-1.3-0.8c0.2-0.3,0.4-0.6,0.5-0.8
				l1.3,0.8C112,94.2,111.8,94.5,111.7,94.8z M18,94.7c-0.2-0.3-0.4-0.6-0.5-0.9l1.3-0.8c0.2,0.3,0.3,0.6,0.5,0.8L18,94.7z
				 M113.2,92.2l-1.3-0.7c0.2-0.3,0.3-0.6,0.5-0.9l1.3,0.7C113.6,91.6,113.4,91.9,113.2,92.2z M16.4,92.1c-0.2-0.3-0.3-0.6-0.5-0.9
				l1.3-0.7c0.2,0.3,0.3,0.6,0.5,0.9L16.4,92.1z M114.7,89.5l-1.3-0.7c0.1-0.3,0.3-0.6,0.4-0.9l1.4,0.6
				C114.9,88.9,114.8,89.2,114.7,89.5z M15,89.4c-0.1-0.3-0.3-0.6-0.4-0.9l1.4-0.6c0.1,0.3,0.3,0.6,0.4,0.9L15,89.4z M115.9,86.8
				l-1.4-0.6c0.1-0.3,0.3-0.6,0.4-0.9l1.4,0.6C116.2,86.2,116.1,86.5,115.9,86.8z M13.7,86.6c-0.1-0.3-0.3-0.6-0.4-0.9l1.4-0.6
				c0.1,0.3,0.3,0.6,0.4,0.9L13.7,86.6z M117,84l-1.4-0.5c0.1-0.3,0.2-0.6,0.3-0.9l1.4,0.5C117.3,83.3,117.2,83.6,117,84z
				 M12.6,83.8c-0.1-0.3-0.2-0.6-0.3-1l1.4-0.5c0.1,0.3,0.2,0.6,0.3,0.9L12.6,83.8z M118,81.1l-1.4-0.4c0.1-0.3,0.2-0.6,0.3-0.9
				l1.4,0.4C118.2,80.4,118.1,80.7,118,81.1z M11.7,80.9c-0.1-0.3-0.2-0.6-0.3-1l1.4-0.4c0.1,0.3,0.2,0.6,0.3,0.9L11.7,80.9z
				 M118.8,78.1l-1.5-0.4c0.1-0.3,0.2-0.6,0.2-1l1.5,0.3C119,77.5,118.9,77.8,118.8,78.1z M10.9,78c-0.1-0.3-0.2-0.7-0.2-1l1.5-0.3
				c0.1,0.3,0.1,0.6,0.2,1L10.9,78z M119.4,75.2l-1.5-0.3c0.1-0.3,0.1-0.6,0.2-1l1.5,0.2C119.6,74.5,119.5,74.8,119.4,75.2z
				 M10.2,75c-0.1-0.3-0.1-0.7-0.2-1l1.5-0.2c0.1,0.3,0.1,0.6,0.2,1L10.2,75z M119.9,72.2l-1.5-0.2c0-0.3,0.1-0.7,0.1-1l1.5,0.2
				C120,71.5,120,71.8,119.9,72.2z M9.8,72c0-0.3-0.1-0.7-0.1-1l1.5-0.2c0,0.3,0.1,0.7,0.1,1L9.8,72z M120.2,69.1l-1.5-0.1
				c0-0.3,0-0.7,0.1-1l1.5,0.1C120.3,68.5,120.3,68.8,120.2,69.1z M9.5,69c0-0.3,0-0.7-0.1-1l1.5-0.1c0,0.3,0,0.7,0.1,1L9.5,69z
				 M120.4,66.1l-1.5,0c0-0.3,0-0.7,0-1l1.5,0C120.4,65.4,120.4,65.8,120.4,66.1z M9.3,65.9c0-0.3,0-0.7,0-1h1.5c0,0.3,0,0.7,0,1
				L9.3,65.9z M10.8,63.6l-1.5,0c0-0.3,0-0.7,0-1l1.5,0.1C10.8,62.9,10.8,63.3,10.8,63.6z M118.9,63.1c0-0.3,0-0.7,0-1l1.5-0.1
				c0,0.3,0,0.7,0,1L118.9,63.1z M11,60.7l-1.5-0.1c0-0.3,0.1-0.7,0.1-1l1.5,0.1C11,60,11,60.3,11,60.7z M118.7,60.2
				c0-0.3-0.1-0.7-0.1-1l1.5-0.2c0,0.3,0.1,0.7,0.1,1L118.7,60.2z M11.3,57.7l-1.5-0.2c0-0.3,0.1-0.7,0.1-1l1.5,0.2
				C11.4,57.1,11.3,57.4,11.3,57.7z M118.3,57.2c0-0.3-0.1-0.6-0.1-1l1.5-0.2c0.1,0.3,0.1,0.7,0.2,1L118.3,57.2z M11.8,54.8
				l-1.5-0.3c0.1-0.3,0.1-0.7,0.2-1l1.5,0.3C11.9,54.1,11.8,54.5,11.8,54.8z M117.8,54.3c-0.1-0.3-0.1-0.6-0.2-1l1.5-0.3
				c0.1,0.3,0.1,0.7,0.2,1L117.8,54.3z M12.4,51.9l-1.5-0.4c0.1-0.3,0.2-0.7,0.3-1l1.4,0.4C12.6,51.3,12.5,51.6,12.4,51.9z
				 M117.2,51.4c-0.1-0.3-0.2-0.6-0.3-1l1.4-0.4c0.1,0.3,0.2,0.7,0.3,1L117.2,51.4z M13.2,49.1l-1.4-0.4c0.1-0.3,0.2-0.6,0.3-1
				l1.4,0.5C13.4,48.4,13.3,48.7,13.2,49.1z M116.4,48.6c-0.1-0.3-0.2-0.6-0.3-0.9l1.4-0.5c0.1,0.3,0.2,0.6,0.3,1L116.4,48.6z
				 M14.1,46.2l-1.4-0.5c0.1-0.3,0.2-0.6,0.4-0.9l1.4,0.5C14.4,45.6,14.2,45.9,14.1,46.2z M115.4,45.8c-0.1-0.3-0.2-0.6-0.4-0.9
				l1.4-0.6c0.1,0.3,0.3,0.6,0.4,1L115.4,45.8z M15.2,43.5l-1.4-0.6c0.1-0.3,0.3-0.6,0.4-0.9l1.4,0.6C15.5,42.9,15.4,43.2,15.2,43.5
				z M114.3,43c-0.1-0.3-0.3-0.6-0.4-0.9l1.4-0.6c0.1,0.3,0.3,0.6,0.4,0.9L114.3,43z M16.5,40.8l-1.3-0.7c0.2-0.3,0.3-0.6,0.5-0.9
				l1.3,0.7C16.8,40.2,16.6,40.5,16.5,40.8z M113,40.4c-0.2-0.3-0.3-0.6-0.5-0.9l1.3-0.7c0.2,0.3,0.3,0.6,0.5,0.9L113,40.4z
				 M17.9,38.2l-1.3-0.7c0.2-0.3,0.3-0.6,0.5-0.9l1.3,0.8C18.2,37.7,18,37.9,17.9,38.2z M111.6,37.8c-0.2-0.3-0.3-0.6-0.5-0.8
				l1.3-0.8c0.2,0.3,0.3,0.6,0.5,0.9L111.6,37.8z M19.4,35.7l-1.3-0.8c0.2-0.3,0.4-0.6,0.6-0.8l1.2,0.8
				C19.7,35.2,19.6,35.4,19.4,35.7z M110,35.2c-0.2-0.3-0.4-0.5-0.6-0.8l1.2-0.8c0.2,0.3,0.4,0.6,0.6,0.8L110,35.2z M21.1,33.3
				l-1.2-0.9c0.2-0.3,0.4-0.5,0.6-0.8l1.2,0.9C21.4,32.7,21.2,33,21.1,33.3z M108.3,32.8c-0.2-0.3-0.4-0.5-0.6-0.8l1.2-0.9
				c0.2,0.3,0.4,0.5,0.6,0.8L108.3,32.8z M22.9,30.9L21.7,30c0.2-0.3,0.4-0.5,0.6-0.8l1.1,1C23.3,30.4,23.1,30.7,22.9,30.9z
				 M106.5,30.5c-0.2-0.3-0.4-0.5-0.6-0.8l1.1-1c0.2,0.3,0.4,0.5,0.7,0.8L106.5,30.5z M24.8,28.7l-1.1-1c0.2-0.3,0.5-0.5,0.7-0.7
				l1.1,1C25.2,28.2,25,28.4,24.8,28.7z M104.5,28.3c-0.2-0.2-0.5-0.5-0.7-0.7l1.1-1c0.2,0.2,0.5,0.5,0.7,0.7L104.5,28.3z
				 M26.8,26.5l-1.1-1.1c0.2-0.2,0.5-0.5,0.7-0.7l1,1.1C27.3,26.1,27.1,26.3,26.8,26.5z M102.5,26.1c-0.2-0.2-0.5-0.5-0.7-0.7l1-1.1
				c0.2,0.2,0.5,0.5,0.7,0.7L102.5,26.1z M29,24.5l-1-1.1c0.3-0.2,0.5-0.4,0.8-0.7l1,1.1C29.5,24.1,29.2,24.3,29,24.5z M100.3,24.1
				c-0.2-0.2-0.5-0.4-0.7-0.6l1-1.2c0.3,0.2,0.5,0.4,0.8,0.7L100.3,24.1z M31.2,22.6l-0.9-1.2c0.3-0.2,0.5-0.4,0.8-0.6L32,22
				C31.8,22.2,31.5,22.4,31.2,22.6z M98,22.3c-0.3-0.2-0.5-0.4-0.8-0.6l0.9-1.2c0.3,0.2,0.5,0.4,0.8,0.6L98,22.3z M33.6,20.8
				l-0.9-1.2c0.3-0.2,0.6-0.4,0.8-0.6l0.8,1.2C34.1,20.5,33.9,20.6,33.6,20.8z M95.6,20.5c-0.3-0.2-0.5-0.4-0.8-0.6l0.8-1.2
				c0.3,0.2,0.6,0.4,0.8,0.6L95.6,20.5z M36.1,19.2l-0.8-1.3c0.3-0.2,0.6-0.4,0.9-0.5l0.8,1.3C36.6,18.8,36.3,19,36.1,19.2z
				 M93.2,18.9c-0.3-0.2-0.6-0.3-0.8-0.5l0.8-1.3c0.3,0.2,0.6,0.3,0.9,0.5L93.2,18.9z M38.6,17.7l-0.7-1.3c0.3-0.2,0.6-0.3,0.9-0.5
				l0.7,1.3C39.2,17.4,38.9,17.5,38.6,17.7z M90.6,17.4c-0.3-0.2-0.6-0.3-0.9-0.5l0.7-1.3c0.3,0.2,0.6,0.3,0.9,0.5L90.6,17.4z
				 M41.2,16.3L40.6,15c0.3-0.1,0.6-0.3,0.9-0.4l0.6,1.4C41.8,16,41.5,16.2,41.2,16.3z M88,16.1c-0.3-0.1-0.6-0.3-0.9-0.4l0.6-1.4
				c0.3,0.1,0.6,0.3,0.9,0.4L88,16.1z M43.9,15.1l-0.6-1.4c0.3-0.1,0.6-0.3,0.9-0.4l0.6,1.4C44.6,14.8,44.3,15,43.9,15.1z
				 M85.3,14.9c-0.3-0.1-0.6-0.2-0.9-0.4l0.5-1.4c0.3,0.1,0.6,0.2,0.9,0.4L85.3,14.9z M46.7,14l-0.5-1.4c0.3-0.1,0.6-0.2,1-0.3
				l0.5,1.4C47.3,13.8,47,13.9,46.7,14z M82.5,13.8c-0.3-0.1-0.6-0.2-0.9-0.3l0.5-1.4c0.3,0.1,0.6,0.2,1,0.3L82.5,13.8z M49.5,13.1
				l-0.4-1.4c0.3-0.1,0.6-0.2,1-0.3l0.4,1.4C50.2,12.9,49.8,13,49.5,13.1z M79.7,13c-0.3-0.1-0.6-0.2-1-0.3l0.4-1.4
				c0.3,0.1,0.7,0.2,1,0.3L79.7,13z M52.4,12.3L52,10.9c0.3-0.1,0.7-0.2,1-0.2l0.3,1.5C53,12.2,52.7,12.3,52.4,12.3z M76.8,12.2
				c-0.3-0.1-0.6-0.1-1-0.2l0.3-1.5c0.3,0.1,0.7,0.1,1,0.2L76.8,12.2z M55.3,11.7L55,10.3c0.3-0.1,0.7-0.1,1-0.2l0.2,1.5
				C55.9,11.6,55.6,11.7,55.3,11.7z M73.9,11.6c-0.3-0.1-0.6-0.1-1-0.2l0.2-1.5c0.3,0,0.7,0.1,1,0.2L73.9,11.6z M58.2,11.3L58,9.8
				c0.3,0,0.7-0.1,1-0.1l0.2,1.5C58.9,11.2,58.5,11.3,58.2,11.3z M71,11.2c-0.3,0-0.7-0.1-1-0.1l0.1-1.5c0.3,0,0.7,0.1,1,0.1
				L71,11.2z M61.2,11l-0.1-1.5c0.3,0,0.7,0,1-0.1l0.1,1.5C61.8,11,61.5,11,61.2,11z M68.1,11c-0.3,0-0.7,0-1,0l0.1-1.5
				c0.3,0,0.7,0,1,0.1L68.1,11z M64.1,10.9l0-1.5c0.3,0,0.5,0,0.8,0l0.3,0l0,1.5l-0.2,0C64.6,10.9,64.4,10.9,64.1,10.9z"/>
		</g>
		<g>
			<path fill="#231F20" d="M64.9,113.8c-27,0-48.9-21.9-48.9-48.9S37.9,16,64.9,16s48.9,21.9,48.9,48.9c0,1.5-0.1,3.1-0.2,4.7
				C111.2,94.8,90.2,113.8,64.9,113.8z M64.9,17.5c-26.1,0-47.4,21.3-47.4,47.4c0,26.1,21.3,47.4,47.4,47.4
				c24.6,0,44.9-18.4,47.2-42.9c0.1-1.5,0.2-3,0.2-4.5C112.3,38.8,91,17.5,64.9,17.5z"/>
		</g>
		<path fill="#E6E9EE" d="M82.4,48.4c0.7-0.7,0.8-1.8,0.2-2.6c-2.9-4-6.1-7.7-9.6-11.2l-5.6-5.6c-0.8-0.8-2-1-3-0.3
			c-1.1,0.8-1.2,2.4-0.3,3.4l-1.7-1.7c-0.8-0.8-2-1-3-0.3c-1.1,0.8-1.2,2.4-0.3,3.4l-2.6-2.6c-0.8-0.8-2-1-2.9-0.3
			c-1.1,0.8-1.2,2.4-0.3,3.4l0.9,0.9c-1-1-2.6-0.9-3.4,0.3c-0.6,0.9-0.5,2.2,0.3,2.9l7.7,7.7c-1-1-2.6-0.9-3.4,0.3
			c-0.6,0.9-0.5,2.2,0.3,2.9l1.4,1.4c3.5,3.5,7.2,6.7,11.2,9.6c0.8,0.6,1.9,0.5,2.6-0.2L82.4,48.4z"/>
		<path fill="#84DBFF" d="M80.5,82.6c0.7,0.7,1.8,0.8,2.6,0.2c4-2.9,7.7-6.1,11.2-9.6l5.6-5.6c0.8-0.8,1-2,0.3-2.9
			c-0.8-1.1-2.4-1.2-3.4-0.3l1.7-1.7c0.8-0.8,1-2,0.3-3c-0.8-1.1-2.4-1.2-3.4-0.3l2.6-2.6c0.8-0.8,1-2,0.3-2.9
			c-0.8-1.1-2.4-1.2-3.4-0.3l-0.9,0.9c1-1,0.9-2.6-0.3-3.4c-0.9-0.6-2.2-0.5-2.9,0.3l-7.7,7.7c1-1,0.9-2.6-0.3-3.4
			c-0.9-0.6-2.2-0.5-2.9,0.3l-1.4,1.4c-3.5,3.5-6.7,7.2-9.6,11.2c-0.6,0.8-0.5,1.9,0.2,2.6L80.5,82.6z"/>
		<path fill="#FFD05B" d="M47.3,82.1c-0.7,0.7-0.8,1.8-0.2,2.6c2.9,4,6.1,7.7,9.6,11.2l5.6,5.6c0.8,0.8,2,1,3,0.3
			c1.1-0.8,1.2-2.4,0.3-3.4l1.7,1.7c0.8,0.8,2,1,3,0.3c1.1-0.8,1.2-2.4,0.3-3.4l2.6,2.6c0.8,0.8,2,1,2.9,0.3
			c1.1-0.8,1.2-2.4,0.3-3.4l-0.9-0.9c1,1,2.6,0.9,3.4-0.3c0.6-0.9,0.5-2.2-0.3-2.9l-7.7-7.7c1,1,2.6,0.9,3.4-0.3
			c0.6-0.9,0.5-2.2-0.3-2.9l-1.4-1.4c-3.5-3.5-7.2-6.7-11.2-9.6c-0.8-0.6-1.9-0.5-2.6,0.2L47.3,82.1z"/>
		<g>
			<path fill="#231F20" d="M65.5,99.3c-0.2,0-0.4-0.1-0.5-0.2l-5.6-5.6c-0.3-0.3-0.3-0.8,0-1.1c0.3-0.3,0.8-0.3,1.1,0l5.6,5.6
				c0.3,0.3,0.3,0.8,0,1.1C65.9,99.2,65.7,99.3,65.5,99.3z"/>
		</g>
		<g>
			<path fill="#231F20" d="M70.4,97.9c-0.2,0-0.4-0.1-0.5-0.2l-5.7-5.7c-0.3-0.3-0.3-0.8,0-1.1c0.3-0.3,0.8-0.3,1.1,0l5.7,5.7
				c0.3,0.3,0.3,0.8,0,1.1C70.8,97.8,70.6,97.9,70.4,97.9z"/>
		</g>
		<g>
			<path fill="#231F20" d="M75.4,96.6c-0.2,0-0.4-0.1-0.5-0.2l-7.6-7.6c-0.3-0.3-0.3-0.8,0-1.1c0.3-0.3,0.8-0.3,1.1,0l7.6,7.6
				c0.3,0.3,0.3,0.8,0,1.1C75.8,96.6,75.6,96.6,75.4,96.6z"/>
		</g>
		<path fill="#FF7058" d="M48.3,47.9c-0.7-0.7-1.8-0.8-2.6-0.2c-4,2.9-7.7,6.1-11.2,9.6l-5.6,5.6c-0.8,0.8-1,2-0.3,2.9
			c0.8,1.1,2.4,1.2,3.4,0.3l-1.7,1.7c-0.8,0.8-1,2-0.3,3c0.8,1.1,2.4,1.2,3.4,0.3l-2.6,2.6c-0.8,0.8-1,2-0.3,2.9
			c0.8,1.1,2.4,1.2,3.4,0.3l0.9-0.9c-1,1-0.9,2.6,0.3,3.4c0.9,0.6,2.2,0.5,2.9-0.3l7.7-7.7c-1,1-0.9,2.6,0.3,3.4
			c0.9,0.6,2.2,0.5,2.9-0.3l1.4-1.4c3.5-3.5,6.7-7.2,9.6-11.2c0.6-0.8,0.5-1.9-0.2-2.6L48.3,47.9z"/>
		<g>
			<path fill="#231F20" d="M69.8,38.3c-0.2,0-0.4-0.1-0.5-0.2l-5.6-5.6c-0.3-0.3-0.3-0.8,0-1.1c0.3-0.3,0.8-0.3,1.1,0l5.6,5.6
				c0.3,0.3,0.3,0.8,0,1.1C70.1,38.2,69.9,38.3,69.8,38.3z"/>
		</g>
		<g>
			<path fill="#231F20" d="M65,39.9c-0.2,0-0.4-0.1-0.5-0.2l-5.7-5.7c-0.3-0.3-0.3-0.8,0-1.1c0.3-0.3,0.8-0.3,1.1,0l5.7,5.7
				c0.3,0.3,0.3,0.8,0,1.1C65.4,39.8,65.2,39.9,65,39.9z"/>
		</g>
		<path fill="#231F20" d="M104.1,69.6l-2.7-2.7c0.3-0.9,0.2-1.9-0.4-2.6c-0.4-0.6-1-1-1.7-1.1c0.9-1.1,1.1-2.7,0.3-3.8
			c-0.4-0.6-1-1-1.6-1.1l0.7-0.7c1.1-1.1,1.2-2.8,0.4-3.9c-0.6-0.8-1.5-1.3-2.4-1.3c-0.4,0-0.8,0.1-1.1,0.2
			c-0.1-0.8-0.6-1.5-1.2-1.9c-1.1-0.8-2.9-0.6-3.9,0.4l-2.5,2.5l-4.8-4.8c0.8-1,0.8-2.3,0.1-3.3c-1.3-1.8-2.7-3.6-4.1-5.3l2.2-2.2
			c0.3-0.3,0.3-0.8,0-1.1L70.6,26.2c-0.3-0.3-0.8-0.3-1.1,0l-1.9,1.9c-1-0.8-2.6-0.9-3.6-0.2c-0.6,0.4-1,1-1.1,1.7
			c-1-0.9-2.7-1-3.8-0.3c-0.6,0.4-1,1-1.1,1.6l-0.7-0.7c-1-1-2.8-1.2-3.9-0.4c-0.7,0.5-1.2,1.3-1.2,2.2c0,0.5,0,0.9,0.2,1.3
			c-0.8,0.1-1.5,0.6-1.9,1.2c-0.8,1.2-0.7,2.8,0.4,3.9l3.3,3.3l-5.4,5.4c-0.9-0.8-2.3-0.8-3.3-0.1c-1.9,1.4-3.8,2.9-5.7,4.4
			l-2.3-2.3c-0.3-0.3-0.8-0.3-1.1,0L25.6,59.8c-0.1,0.1-0.2,0.3-0.2,0.5c0,0.2,0.1,0.4,0.2,0.5l2.2,2.2c-0.6,1-0.5,2.3,0.1,3.2
			c0.4,0.6,1,1,1.6,1.1c-0.9,1.1-1.1,2.7-0.3,3.8c0.4,0.6,1,1,1.6,1.1l-0.7,0.7c-1.1,1.1-1.2,2.8-0.4,3.9c0.6,0.8,1.5,1.3,2.4,1.3
			c0.4,0,0.8-0.1,1.1-0.2c0.1,0.8,0.6,1.5,1.2,1.9c0.5,0.3,1.1,0.5,1.7,0.5c0.8,0,1.6-0.3,2.2-0.9l2.9-2.9l5.2,5.2
			c-0.8,1-0.8,2.3-0.1,3.3c1.2,1.6,2.5,3.3,3.8,4.8l-2.6,2.6c-0.3,0.3-0.3,0.8,0,1.1l10.6,10.6c0.1,0.1,0.3,0.2,0.5,0.2
			c0.2,0,0.4-0.1,0.5-0.2l2.3-2.3l0.1,0.1c0.6,0.6,1.4,0.9,2.2,0.9c0.6,0,1.2-0.2,1.7-0.5c0.6-0.4,1-1,1.1-1.7c1,0.9,2.7,1,3.8,0.3
			c0.6-0.4,1-1,1.1-1.6l0.7,0.7c1,1,2.8,1.2,3.9,0.4c0.7-0.5,1.2-1.3,1.2-2.2c0-0.5,0-0.9-0.2-1.3c0.8-0.1,1.5-0.6,1.9-1.2
			C80.2,94.7,80,93,79,92l-3.7-3.7l4.9-4.9c0.5,0.4,1.1,0.6,1.7,0.6c0.6,0,1.1-0.2,1.6-0.5c2.1-1.5,4.1-3.1,6.1-4.8l2.7,2.7
			c0.1,0.1,0.3,0.2,0.5,0.2s0.4-0.1,0.5-0.2l10.6-10.6C104.3,70.4,104.3,69.9,104.1,69.6z M86.8,54.5l-2.3,2.3
			c-0.2-0.7-0.6-1.2-1.1-1.6c-1.1-0.8-2.9-0.6-3.9,0.4L78.1,57c-1.3,1.3-2.6,2.7-3.8,4.1l-1.7-1.7l9.6-9.6L86.8,54.5z M68.5,71.6
			l-2.1,2.1c-1.6-1.3-3.2-2.6-4.8-3.8c-1-0.7-2.4-0.6-3.3,0.1L56,67.8c1.6-1.8,3-3.7,4.4-5.7c0.7-1,0.7-2.4-0.1-3.3l2.5-2.5
			c1.7,1.4,3.5,2.8,5.3,4.1c0.5,0.3,1,0.5,1.6,0.5c0.6,0,1.2-0.2,1.7-0.6l1.8,1.8c-1.7,2-3.3,4-4.8,6.1
			C67.7,69.3,67.7,70.7,68.5,71.6z M70.1,27.8l9.6,9.6l-1.5,1.5c-1.5-1.7-3-3.3-4.6-4.9l-4.9-4.9L70.1,27.8z M51.8,37.5
			c-0.6-0.6-0.7-1.4-0.3-2c0.5-0.7,1.6-0.8,2.3-0.2c0.1,0.1,0.2,0.1,0.3,0.2l7.3,7.3c0.1,0.1,0.3,0.2,0.5,0.2c0.2,0,0.4-0.1,0.5-0.2
			c0.3-0.3,0.3-0.8,0-1.1l-7.6-7.6c-0.1-0.1-0.2-0.1-0.3-0.2L54,33.3c-0.3-0.3-0.5-0.7-0.4-1.2c0-0.4,0.3-0.8,0.6-1.1
			c0.6-0.4,1.4-0.3,2,0.3l2.6,2.6c0.3,0.3,0.8,0.3,1.1,0c0.3-0.3,0.3-0.8,0-1.1c-0.3-0.3-0.5-0.7-0.4-1.2c0-0.4,0.3-0.8,0.6-1.1
			c0.6-0.4,1.4-0.3,2,0.2l1.7,1.7c0.3,0.3,0.8,0.3,1.1,0c0.3-0.3,0.3-0.8,0-1.1c-0.3-0.3-0.5-0.7-0.4-1.2c0-0.4,0.3-0.8,0.6-1.1
			c0.6-0.4,1.4-0.3,2,0.3l5.6,5.6c3.4,3.4,6.6,7.2,9.5,11.1c0.4,0.5,0.3,1.2-0.1,1.6L70.6,59.2c-0.2,0.2-0.6,0.4-0.9,0.4
			c-0.3,0-0.5-0.1-0.7-0.2c-4-2.9-7.7-6.1-11.1-9.5l-1.4-1.4c-0.6-0.6-0.7-1.4-0.3-2c0.3-0.4,0.7-0.6,1.2-0.6c0.4,0,0.8,0.2,1,0.4
			l2.1,2.1c0.1,0.1,0.3,0.2,0.5,0.2c0.2,0,0.4-0.1,0.5-0.2c0.3-0.3,0.3-0.8,0-1.1l-2.1-2.1L51.8,37.5z M55.1,42.8l1.6,1.6
			C56,44.6,55.4,45,55,45.6c-0.8,1.2-0.7,2.8,0.4,3.9l1.4,1.4c1.6,1.6,3.2,3.1,4.9,4.6l-2.4,2.4l-9.6-9.6L55.1,42.8z M27.2,60.4
			l9.6-9.6l1.7,1.7c-1.6,1.4-3.1,2.8-4.5,4.2l-5.2,5.2L27.2,60.4z M37.4,78.5c-0.5,0.5-1.4,0.7-2,0.2c-0.4-0.3-0.6-0.6-0.6-1.1
			c0-0.4,0.1-0.9,0.4-1.2c0.1-0.1,7.4-7.5,7.4-7.5c0.3-0.3,0.3-0.8,0-1.1c-0.3-0.3-0.8-0.3-1.1,0l-8.3,8.4c-0.6,0.6-1.7,0.5-2.3-0.2
			c-0.4-0.6-0.3-1.4,0.2-2l2.6-2.6l5.7-5.7c0.3-0.3,0.3-0.8,0-1.1c-0.3-0.3-0.8-0.3-1.1,0l-5.7,5.7c-0.6,0.6-1.7,0.5-2.3-0.2
			c-0.4-0.6-0.3-1.4,0.3-2l1.7-1.7l5.6-5.6c0.3-0.3,0.3-0.8,0-1.1c-0.3-0.3-0.8-0.3-1.1,0l-5.6,5.6c-0.6,0.6-1.7,0.5-2.3-0.2
			c-0.4-0.6-0.3-1.4,0.2-2l5.6-5.6c3.4-3.4,7.2-6.6,11.1-9.5c0.5-0.3,1.2-0.3,1.6,0.1l11.3,11.3c0.4,0.4,0.5,1.1,0.1,1.6
			c-2.9,4-6.1,7.7-9.5,11.1l-1.4,1.4c-0.3,0.3-0.7,0.5-1.2,0.5c-0.3,0-0.6-0.1-0.8-0.3c-0.4-0.3-0.6-0.6-0.6-1.1
			c0-0.4,0.1-0.9,0.4-1.2l0,0l2.1-2.1c0.3-0.3,0.3-0.8,0-1.1c-0.3-0.3-0.8-0.3-1.1,0L37.4,78.5z M42.4,75.6l1.9-1.9
			c0.2,0.7,0.6,1.2,1.1,1.6c0.5,0.3,1.1,0.5,1.7,0.5c0.8,0,1.6-0.3,2.2-0.9l1.4-1.4c1.5-1.5,2.9-3,4.2-4.5l2.2,2.2l-9.6,9.6
			L42.4,75.6z M58.8,102.7l-9.6-9.6l2-2c1.6,1.8,3.2,3.6,4.9,5.3l4.4,4.4L58.8,102.7z M77.9,93c0.6,0.6,0.7,1.4,0.3,2
			c-0.5,0.7-1.6,0.8-2.3,0.2c-0.3-0.3-0.8-0.3-1.1,0c-0.3,0.3-0.3,0.8,0,1.1l0.9,0.9c0.3,0.3,0.5,0.7,0.4,1.2c0,0.4-0.3,0.8-0.6,1.1
			c-0.6,0.4-1.4,0.3-2-0.2L71,96.6c-0.3-0.3-0.8-0.3-1.1,0c-0.3,0.3-0.3,0.8,0,1.1c0.3,0.3,0.5,0.7,0.4,1.2c0,0.4-0.3,0.8-0.6,1.1
			c-0.6,0.4-1.4,0.3-2-0.2L66.1,98v0c-0.3-0.3-0.8-0.3-1.1,0c-0.3,0.3-0.3,0.8,0,1.1v0c0.3,0.3,0.5,0.7,0.4,1.2
			c0,0.4-0.3,0.8-0.6,1.1c-0.6,0.4-1.4,0.3-2-0.2l-5.6-5.6c-3.4-3.4-6.6-7.2-9.5-11.1c-0.4-0.5-0.3-1.2,0.1-1.6l0.3-0.3l10.6-10.6
			l0,0l0.3-0.3c0.2-0.2,0.6-0.4,0.9-0.4c0.3,0,0.5,0.1,0.7,0.2c4,2.9,7.7,6.1,11.1,9.5l1.4,1.4c0.6,0.6,0.7,1.4,0.3,2
			c-0.5,0.7-1.6,0.8-2.3,0.2l-2.1-2.1c-0.3-0.3-0.8-0.3-1.1,0c-0.3,0.3-0.3,0.8,0,1.1L77.9,93z M74.2,87.2l-1.2-1.2
			c0.7-0.2,1.2-0.6,1.6-1.1c0.8-1.2,0.7-2.8-0.4-3.9l-1.4-1.4c-1.7-1.7-3.5-3.4-5.3-4.9l2-2l4.8,4.8l4.8,4.8L74.2,87.2z M82.7,82.3
			c-0.2,0.2-0.5,0.2-0.7,0.2c-0.3,0-0.7-0.1-0.9-0.4l-0.3-0.3v0l-5.3-5.3l-5.7-5.7c-0.4-0.4-0.5-1.1-0.1-1.6c2.9-4,6.1-7.7,9.5-11.1
			l1.4-1.4c0.3-0.3,0.7-0.5,1.2-0.5c0.3,0,0.6,0.1,0.8,0.3c0.4,0.3,0.6,0.6,0.6,1.1c0,0.4-0.1,0.9-0.4,1.2l0,0l-2.1,2.1
			c-0.3,0.3-0.3,0.8,0,1.1c0.1,0.1,0.3,0.2,0.5,0.2c0.2,0,0.4-0.1,0.5-0.2l2.1-2.1l0,0l7.7-7.7c0.5-0.5,1.4-0.7,2-0.2
			c0.4,0.3,0.6,0.6,0.6,1.1c0,0.4-0.1,0.9-0.4,1.2c-0.1,0.1-0.1,0.2-0.2,0.3l-7.3,7.3c-0.3,0.3-0.3,0.8,0,1.1
			c0.1,0.1,0.3,0.2,0.5,0.2c0.2,0,0.4-0.1,0.5-0.2l7.6-7.6c0.1-0.1,0.1-0.2,0.2-0.3l0.6-0.6c0.6-0.6,1.7-0.5,2.3,0.2
			c0.4,0.6,0.3,1.4-0.3,2L95,59c0,0,0,0,0,0l-5.7,5.7c-0.3,0.3-0.3,0.8,0,1.1c0.1,0.1,0.3,0.2,0.5,0.2s0.4-0.1,0.5-0.2l5.7-5.7l0,0
			c0.6-0.6,1.7-0.5,2.3,0.2c0.4,0.6,0.3,1.4-0.3,2l-1.7,1.7l-5.6,5.6c-0.3,0.3-0.3,0.8,0,1.1c0.1,0.1,0.3,0.2,0.5,0.2
			s0.4-0.1,0.5-0.2l5.6-5.6c0.6-0.6,1.7-0.5,2.3,0.2c0.4,0.6,0.3,1.4-0.3,2l-5.6,5.6C90.4,76.2,86.6,79.4,82.7,82.3z M92.9,79.7
			l-2.1-2.1c1.4-1.2,2.8-2.5,4.1-3.8l5.6-5.6l2,2L92.9,79.7z"/>
		<g>
			<g>
				<path fill="#231F20" d="M126.3,6.8c-0.2,0-0.4-0.1-0.5-0.2c-0.3-0.3-0.3-0.8,0-1.1l1.3-1.3c0.3-0.3,0.8-0.3,1.1,0
					c0.3,0.3,0.3,0.8,0,1.1l-1.3,1.3C126.7,6.8,126.5,6.8,126.3,6.8z"/>
			</g>
			<g>
				<path fill="#231F20" d="M122.3,10.9c-0.2,0-0.4-0.1-0.5-0.2c-0.3-0.3-0.3-0.8,0-1.1l1.3-1.3c0.3-0.3,0.8-0.3,1.1,0
					c0.3,0.3,0.3,0.8,0,1.1l-1.3,1.3C122.6,10.8,122.5,10.9,122.3,10.9z"/>
			</g>
			<g>
				<path fill="#231F20" d="M127.6,10.9c-0.2,0-0.4-0.1-0.5-0.2l-1.3-1.3c-0.3-0.3-0.3-0.8,0-1.1c0.3-0.3,0.8-0.3,1.1,0l1.3,1.3
					c0.3,0.3,0.3,0.8,0,1.1C128,10.8,127.8,10.9,127.6,10.9z"/>
			</g>
			<g>
				<path fill="#231F20" d="M123.5,6.8c-0.2,0-0.4-0.1-0.5-0.2l-1.3-1.3c-0.3-0.3-0.3-0.8,0-1.1c0.3-0.3,0.8-0.3,1.1,0l1.3,1.3
					c0.3,0.3,0.3,0.8,0,1.1C123.9,6.8,123.7,6.8,123.5,6.8z"/>
			</g>
		</g>
		<g>
			<g>
				<path fill="#231F20" d="M122.1,118.8c-0.2,0-0.4-0.1-0.5-0.2c-0.3-0.3-0.3-0.8,0-1.1l1.3-1.3c0.3-0.3,0.8-0.3,1.1,0
					c0.3,0.3,0.3,0.8,0,1.1l-1.3,1.3C122.4,118.7,122.3,118.8,122.1,118.8z"/>
			</g>
			<g>
				<path fill="#231F20" d="M118,122.8c-0.2,0-0.4-0.1-0.5-0.2c-0.3-0.3-0.3-0.8,0-1.1l1.3-1.3c0.3-0.3,0.8-0.3,1.1,0
					c0.3,0.3,0.3,0.8,0,1.1l-1.3,1.3C118.4,122.8,118.2,122.8,118,122.8z"/>
			</g>
			<g>
				<path fill="#231F20" d="M123.3,122.8c-0.2,0-0.4-0.1-0.5-0.2l-1.3-1.3c-0.3-0.3-0.3-0.8,0-1.1c0.3-0.3,0.8-0.3,1.1,0l1.3,1.3
					c0.3,0.3,0.3,0.8,0,1.1C123.7,122.8,123.5,122.8,123.3,122.8z"/>
			</g>
			<g>
				<path fill="#231F20" d="M119.3,118.8c-0.2,0-0.4-0.1-0.5-0.2l-1.3-1.3c-0.3-0.3-0.3-0.8,0-1.1c0.3-0.3,0.8-0.3,1.1,0l1.3,1.3
					c0.3,0.3,0.3,0.8,0,1.1C119.7,118.7,119.5,118.8,119.3,118.8z"/>
			</g>
		</g>
		<g>
			<g>
				<path fill="#231F20" d="M4.9,14c-0.2,0-0.4-0.1-0.5-0.2c-0.3-0.3-0.3-0.8,0-1.1l1.3-1.3c0.3-0.3,0.8-0.3,1.1,0
					c0.3,0.3,0.3,0.8,0,1.1l-1.3,1.3C5.3,13.9,5.1,14,4.9,14z"/>
			</g>
			<g>
				<path fill="#231F20" d="M0.9,18c-0.2,0-0.4-0.1-0.5-0.2C0,17.5,0,17,0.3,16.8l1.3-1.3c0.3-0.3,0.8-0.3,1.1,0
					c0.3,0.3,0.3,0.8,0,1.1l-1.3,1.3C1.2,18,1.1,18,0.9,18z"/>
			</g>
			<g>
				<path fill="#231F20" d="M6.2,18C6,18,5.8,18,5.6,17.8l-1.3-1.3c-0.3-0.3-0.3-0.8,0-1.1c0.3-0.3,0.8-0.3,1.1,0l1.3,1.3
					C7,17,7,17.5,6.7,17.8C6.6,18,6.4,18,6.2,18z"/>
			</g>
			<g>
				<path fill="#231F20" d="M2.1,14c-0.2,0-0.4-0.1-0.5-0.2l-1.3-1.3c-0.3-0.3-0.3-0.8,0-1.1c0.3-0.3,0.8-0.3,1.1,0l1.3,1.3
					C3,13,3,13.5,2.7,13.8C2.5,13.9,2.3,14,2.1,14z"/>
			</g>
		</g>
		<path fill="#E6E9EE" d="M26.8,116.3c-2.2-4-4.4-9.5-5-13.8l-2.7,7.1l-6.6,3.7C16.8,113.2,22.5,114.7,26.8,116.3z"/>
		<path fill="#E6E9EE" d="M13.6,26.3c4-2.1,9.5-4.3,13.8-4.8l-7-2.8L16.8,12C16.8,16.3,15.3,22.1,13.6,26.3z"/>
		<path fill="#E6E9EE" d="M115.9,103.3c-4,2.1-9.5,4.3-13.8,4.8l7,2.8l3.6,6.7C112.7,113.2,114.2,107.5,115.9,103.3z"/>
		<path fill="#E6E9EE" d="M103.7,14c2.1,4,4.2,9.6,4.7,13.9l2.9-7l6.7-3.5C113.7,17.3,108,15.7,103.7,14z"/>
		<g>
			<path fill="#231F20" d="M27.4,115.9c-1.9-3.4-4.3-9-4.9-13.5c0-0.3-0.3-0.6-0.7-0.6c-0.4,0-0.7,0.2-0.8,0.5l-2.3,6
				C0.2,88.5-3.8,58.7,9.1,34.8l-1.3-0.7c-13.3,24.6-9.1,55.2,10.1,75.3l-5.8,3.2c-0.3,0.2-0.4,0.5-0.4,0.8c0.1,0.3,0.4,0.6,0.7,0.6
				c4.5,0,10.4,1.6,14.1,3c0.1,0,0.2,0,0.3,0c0.2,0,0.4-0.1,0.6-0.3C27.6,116.5,27.6,116.2,27.4,115.9z M15.1,112.6l4.4-2.4
				c0.2-0.1,0.3-0.2,0.3-0.4l1.8-4.6c0.8,3.4,2.3,6.9,3.7,9.8C22.2,113.9,18.5,113,15.1,112.6z"/>
			<path fill="#231F20" d="M20.6,17.4l-3.1-5.8c-0.2-0.3-0.5-0.5-0.8-0.4c-0.3,0.1-0.6,0.4-0.6,0.7c0,4.5-1.7,10.4-3.1,14.1
				c-0.1,0.3,0,0.6,0.2,0.8c0.1,0.1,0.3,0.2,0.5,0.2c0.1,0,0.2,0,0.4-0.1c3.5-1.8,9.1-4.2,13.6-4.8c0.3,0,0.6-0.3,0.6-0.6
				c0-0.3-0.1-0.7-0.5-0.8l-6-2.4C41.6,0,71.5-3.8,95.3,9.4L96,8.1C71.6-5.4,40.9-1.5,20.6,17.4z M15,24.8c1-3,2-6.7,2.4-10.1
				l2.4,4.4c0.1,0.2,0.2,0.3,0.4,0.3l4.6,1.8C21.4,22,17.9,23.4,15,24.8z"/>
			<path fill="#231F20" d="M116.4,102.7c-0.2-0.2-0.6-0.2-0.9-0.1c-3.5,1.8-9.1,4.2-13.6,4.8c-0.3,0-0.6,0.3-0.6,0.6
				c0,0.3,0.1,0.7,0.5,0.8l6,2.4c-19.4,18-48.9,22-72.4,9.6l-0.7,1.3c9.4,5,19.7,7.4,30,7.4c16.1,0,32.1-6,44.3-17.3l3.2,5.8
				c0.1,0.2,0.4,0.4,0.7,0.4c0.1,0,0.1,0,0.2,0c0.3-0.1,0.6-0.4,0.6-0.7c0-4.5,1.7-10.4,3.1-14.1
				C116.7,103.2,116.6,102.9,116.4,102.7z M112.1,114.9l-2.4-4.4c-0.1-0.2-0.2-0.3-0.4-0.3l-4.6-1.8c3.4-0.8,6.9-2.2,9.8-3.6
				C113.5,107.8,112.5,111.5,112.1,114.9z"/>
			<path fill="#231F20" d="M112.5,21.1l5.8-3.1c0.3-0.2,0.5-0.5,0.4-0.8s-0.4-0.6-0.7-0.6c-4.5-0.1-10.4-1.8-14-3.3
				c-0.3-0.1-0.6,0-0.8,0.2c-0.2,0.2-0.3,0.6-0.1,0.8c1.8,3.5,4.1,9.1,4.6,13.6c0,0.3,0.3,0.6,0.6,0.7c0,0,0.1,0,0.1,0
				c0.3,0,0.6-0.2,0.7-0.5l2.4-5.9c17.8,19.6,21.5,49.1,8.9,72.5l1.3,0.7C134.8,71.4,130.9,41.2,112.5,21.1z M108.7,25.2
				c-0.7-3.4-2.1-6.9-3.5-9.8c3,1.1,6.7,2.1,10.1,2.5l-4.4,2.3c-0.2,0.1-0.3,0.2-0.3,0.4L108.7,25.2z"/>
		</g>
		<g>
			<circle fill="#FFD05B" cx="7" cy="105.8" r="2.1"/>
		</g>
		<g>
			<circle fill="#FF7058" cx="103.7" cy="6.1" r="2.1"/>
		</g>
		<g>
			<circle fill="#FF7058" cx="87.5" cy="92.1" r="2.1"/>
		</g>
		<g>
			<circle fill="#84DBFF" cx="24.1" cy="8.1" r="2.1"/>
		</g>
	</g>
</g>
</svg>
