<?xml version="1.0" encoding="UTF-8"?>
<svg xmlns="http://www.w3.org/2000/svg" xmlns:xlink="http://www.w3.org/1999/xlink" width="100px" height="100px" viewBox="0 0 100 100" version="1.1">
<g id="surface1">
<path style=" stroke:none;fill-rule:nonzero;fill:rgb(13.72549%,12.156863%,12.54902%);fill-opacity:1;" d="M 98.457031 5.25 C 98.300781 5.25 98.148438 5.171875 98.070312 5.097656 C 97.835938 4.863281 97.835938 4.480469 98.070312 4.246094 L 99.074219 3.242188 C 99.304688 3.011719 99.691406 3.011719 99.921875 3.242188 C 100.15625 3.476562 100.15625 3.859375 99.921875 4.09375 L 98.839844 5.097656 C 98.6875 5.171875 98.609375 5.25 98.457031 5.25 Z M 98.457031 5.25 "/>
<path style=" stroke:none;fill-rule:nonzero;fill:rgb(13.72549%,12.156863%,12.54902%);fill-opacity:1;" d="M 95.289062 8.339844 C 95.136719 8.339844 94.980469 8.261719 94.902344 8.183594 C 94.671875 7.953125 94.671875 7.566406 94.902344 7.335938 L 95.90625 6.332031 C 96.140625 6.101562 96.523438 6.101562 96.757812 6.332031 C 96.988281 6.5625 96.988281 6.949219 96.757812 7.179688 L 95.753906 8.183594 C 95.597656 8.339844 95.445312 8.339844 95.289062 8.339844 Z M 95.289062 8.339844 "/>
<path style=" stroke:none;fill-rule:nonzero;fill:rgb(13.72549%,12.156863%,12.54902%);fill-opacity:1;" d="M 99.460938 8.339844 C 99.304688 8.339844 99.152344 8.261719 99.074219 8.183594 L 98.070312 7.179688 C 97.835938 6.949219 97.835938 6.5625 98.070312 6.332031 C 98.300781 6.101562 98.6875 6.101562 98.917969 6.332031 L 99.921875 7.335938 C 100.15625 7.566406 100.15625 7.953125 99.921875 8.183594 C 99.691406 8.339844 99.535156 8.339844 99.460938 8.339844 Z M 99.460938 8.339844 "/>
<path style=" stroke:none;fill-rule:nonzero;fill:rgb(13.72549%,12.156863%,12.54902%);fill-opacity:1;" d="M 96.292969 5.25 C 96.140625 5.25 95.984375 5.171875 95.90625 5.097656 L 94.902344 4.09375 C 94.671875 3.859375 94.671875 3.476562 94.902344 3.242188 C 95.136719 3.011719 95.519531 3.011719 95.753906 3.242188 L 96.757812 4.246094 C 96.988281 4.480469 96.988281 4.863281 96.757812 5.097656 C 96.601562 5.171875 96.449219 5.25 96.292969 5.25 Z M 96.292969 5.25 "/>
<path style=" stroke:none;fill-rule:nonzero;fill:rgb(13.72549%,12.156863%,12.54902%);fill-opacity:1;" d="M 3.707031 96.910156 C 3.550781 96.910156 3.398438 96.832031 3.320312 96.757812 C 3.089844 96.523438 3.089844 96.140625 3.320312 95.90625 L 4.324219 94.902344 C 4.554688 94.671875 4.941406 94.671875 5.171875 94.902344 C 5.40625 95.136719 5.40625 95.519531 5.171875 95.753906 L 4.167969 96.757812 C 4.015625 96.832031 3.859375 96.910156 3.707031 96.910156 Z M 3.707031 96.910156 "/>
<path style=" stroke:none;fill-rule:nonzero;fill:rgb(13.72549%,12.156863%,12.54902%);fill-opacity:1;" d="M 0.617188 100 C 0.464844 100 0.308594 99.921875 0.230469 99.84375 C 0 99.613281 0 99.226562 0.230469 98.996094 L 1.234375 97.992188 C 1.46875 97.761719 1.851562 97.761719 2.085938 97.992188 C 2.316406 98.222656 2.316406 98.609375 2.085938 98.839844 L 1.082031 99.84375 C 0.847656 99.921875 0.695312 100 0.617188 100 Z M 0.617188 100 "/>
<path style=" stroke:none;fill-rule:nonzero;fill:rgb(13.72549%,12.156863%,12.54902%);fill-opacity:1;" d="M 4.710938 100 C 4.554688 100 4.402344 99.921875 4.324219 99.84375 L 3.242188 98.839844 C 3.011719 98.609375 3.011719 98.222656 3.242188 97.992188 C 3.476562 97.761719 3.859375 97.761719 4.09375 97.992188 L 5.097656 98.996094 C 5.328125 99.226562 5.328125 99.613281 5.097656 99.84375 C 4.941406 99.921875 4.863281 100 4.710938 100 Z M 4.710938 100 "/>
<path style=" stroke:none;fill-rule:nonzero;fill:rgb(13.72549%,12.156863%,12.54902%);fill-opacity:1;" d="M 1.542969 96.910156 C 1.390625 96.910156 1.234375 96.832031 1.160156 96.757812 L 0.15625 95.753906 C -0.078125 95.519531 -0.078125 95.136719 0.15625 94.902344 C 0.386719 94.671875 0.773438 94.671875 1.003906 94.902344 L 2.007812 95.90625 C 2.238281 96.140625 2.238281 96.523438 2.007812 96.757812 C 1.851562 96.832031 1.699219 96.910156 1.542969 96.910156 Z M 1.542969 96.910156 "/>
<path style=" stroke:none;fill-rule:nonzero;fill:rgb(13.72549%,12.156863%,12.54902%);fill-opacity:1;" d="M 95.289062 44.632812 C 95.136719 44.632812 94.980469 44.554688 94.902344 44.480469 C 94.671875 44.246094 94.671875 43.859375 94.902344 43.628906 L 95.90625 42.625 C 96.140625 42.394531 96.523438 42.394531 96.757812 42.625 C 96.988281 42.855469 96.988281 43.242188 96.757812 43.476562 L 95.753906 44.480469 C 95.597656 44.554688 95.445312 44.632812 95.289062 44.632812 Z M 95.289062 44.632812 "/>
<path style=" stroke:none;fill-rule:nonzero;fill:rgb(13.72549%,12.156863%,12.54902%);fill-opacity:1;" d="M 92.199219 47.722656 C 92.046875 47.722656 91.890625 47.644531 91.816406 47.566406 C 91.582031 47.335938 91.582031 46.949219 91.816406 46.71875 L 92.820312 45.714844 C 93.050781 45.484375 93.4375 45.484375 93.667969 45.714844 C 93.898438 45.945312 93.898438 46.332031 93.667969 46.5625 L 92.664062 47.566406 C 92.507812 47.644531 92.355469 47.722656 92.199219 47.722656 Z M 92.199219 47.722656 "/>
<path style=" stroke:none;fill-rule:nonzero;fill:rgb(13.72549%,12.156863%,12.54902%);fill-opacity:1;" d="M 96.292969 47.722656 C 96.140625 47.722656 95.984375 47.644531 95.90625 47.566406 L 94.902344 46.5625 C 94.671875 46.332031 94.671875 45.945312 94.902344 45.714844 C 95.136719 45.484375 95.519531 45.484375 95.753906 45.714844 L 96.757812 46.71875 C 96.988281 46.949219 96.988281 47.335938 96.757812 47.566406 C 96.601562 47.644531 96.449219 47.722656 96.292969 47.722656 Z M 96.292969 47.722656 "/>
<path style=" stroke:none;fill-rule:nonzero;fill:rgb(13.72549%,12.156863%,12.54902%);fill-opacity:1;" d="M 93.203125 44.632812 C 93.050781 44.632812 92.894531 44.554688 92.820312 44.480469 L 91.816406 43.476562 C 91.582031 43.242188 91.582031 42.855469 91.816406 42.625 C 92.046875 42.394531 92.433594 42.394531 92.664062 42.625 L 93.667969 43.628906 C 93.898438 43.859375 93.898438 44.246094 93.667969 44.480469 C 93.511719 44.554688 93.359375 44.632812 93.203125 44.632812 Z M 93.203125 44.632812 "/>
<path style=" stroke:none;fill-rule:nonzero;fill:rgb(100%,81.568627%,35.686275%);fill-opacity:1;" d="M 30.5 35.90625 C 30.5 35.753906 30.5 35.675781 30.5 35.519531 C 30.5 34.054688 29.960938 32.742188 28.957031 31.738281 C 27.722656 30.5 26.023438 29.960938 24.246094 30.269531 C 21.929688 30.65625 20.15625 32.585938 19.84375 34.828125 C 19.769531 35.210938 19.769531 35.519531 19.84375 35.90625 L 14.285156 35.90625 L 14.285156 14.132812 L 36.0625 14.132812 L 36.0625 21.777344 C 36.0625 22.933594 37.375 23.707031 38.378906 23.089844 C 38.996094 22.703125 39.691406 22.703125 40.308594 22.933594 C 40.925781 23.167969 41.46875 23.707031 41.699219 24.402344 C 42.164062 25.945312 41.003906 27.335938 39.535156 27.335938 C 39.152344 27.335938 38.765625 27.257812 38.378906 27.027344 C 37.375 26.410156 36.0625 27.179688 36.0625 28.339844 L 36.0625 35.984375 L 30.5 35.984375 Z M 30.5 35.90625 "/>
<path style=" stroke:none;fill-rule:nonzero;fill:rgb(100%,43.921569%,34.509804%);fill-opacity:1;" d="M 55.367188 35.90625 C 55.367188 35.753906 55.367188 35.675781 55.367188 35.519531 C 55.367188 34.054688 54.828125 32.742188 53.824219 31.738281 C 52.585938 30.5 50.886719 29.960938 49.113281 30.269531 C 46.796875 30.65625 45.019531 32.585938 44.710938 34.828125 C 44.632812 35.210938 44.632812 35.519531 44.710938 35.90625 L 39.152344 35.90625 L 39.152344 30.347656 C 39.304688 30.347656 39.382812 30.347656 39.535156 30.347656 C 41.003906 30.347656 42.316406 29.808594 43.320312 28.804688 C 44.324219 27.800781 44.863281 26.488281 44.863281 25.019531 C 44.863281 23.628906 44.324219 22.238281 43.320312 21.234375 C 42.316406 20.230469 41.003906 19.691406 39.535156 19.691406 C 39.382812 19.691406 39.304688 19.691406 39.152344 19.691406 L 39.152344 14.132812 L 60.925781 14.132812 L 60.925781 21.777344 C 60.925781 22.933594 62.238281 23.707031 63.242188 23.089844 C 63.859375 22.703125 64.554688 22.703125 65.25 22.933594 C 65.867188 23.167969 66.410156 23.707031 66.5625 24.402344 C 66.949219 25.945312 65.867188 27.335938 64.402344 27.335938 C 64.015625 27.335938 63.628906 27.257812 63.242188 27.027344 C 62.238281 26.410156 60.925781 27.179688 60.925781 28.339844 L 60.925781 35.984375 L 55.367188 35.984375 Z M 55.367188 35.90625 "/>
<path style=" stroke:none;fill-rule:nonzero;fill:rgb(51.764706%,85.882353%,100%);fill-opacity:1;" d="M 80.230469 35.90625 C 80.230469 35.753906 80.230469 35.675781 80.230469 35.519531 C 80.230469 34.054688 79.691406 32.742188 78.6875 31.738281 C 77.683594 30.734375 76.371094 30.191406 74.902344 30.191406 C 71.96875 30.191406 69.574219 32.585938 69.574219 35.519531 C 69.574219 35.675781 69.574219 35.753906 69.574219 35.90625 L 64.015625 35.90625 L 64.015625 30.347656 C 64.167969 30.347656 64.246094 30.347656 64.402344 30.347656 C 65.867188 30.347656 67.179688 29.808594 68.183594 28.804688 C 69.1875 27.800781 69.730469 26.488281 69.730469 25.019531 C 69.730469 23.628906 69.1875 22.238281 68.183594 21.234375 C 67.179688 20.230469 65.867188 19.691406 64.402344 19.691406 C 64.246094 19.691406 64.167969 19.691406 64.015625 19.691406 L 64.015625 14.132812 L 85.792969 14.132812 L 85.792969 35.90625 Z M 80.230469 35.90625 "/>
<path style=" stroke:none;fill-rule:nonzero;fill:rgb(100%,81.568627%,35.686275%);fill-opacity:1;" d="M 30.5 60.925781 C 30.5 60.773438 30.5 60.695312 30.5 60.539062 C 30.5 59.074219 29.960938 57.761719 28.957031 56.757812 C 27.953125 55.753906 26.71875 55.210938 25.328125 55.210938 C 24.246094 55.210938 23.242188 55.597656 22.472656 56.214844 C 20.230469 57.914062 19.769531 59.460938 19.84375 61.003906 L 14.285156 61.003906 L 14.285156 39.074219 L 21.929688 39.074219 C 23.089844 39.074219 23.859375 37.761719 23.242188 36.757812 C 22.855469 36.140625 22.78125 35.445312 23.089844 34.75 C 23.398438 34.132812 23.9375 33.589844 24.554688 33.4375 C 26.023438 33.050781 27.414062 34.207031 27.414062 35.597656 C 27.414062 35.984375 27.335938 36.371094 27.105469 36.757812 C 26.488281 37.761719 27.257812 39.074219 28.417969 39.074219 L 36.0625 39.074219 L 36.0625 46.71875 C 36.0625 47.875 37.375 48.648438 38.378906 48.03125 C 38.996094 47.644531 39.691406 47.566406 40.386719 47.875 C 41.003906 48.109375 41.542969 48.726562 41.699219 49.34375 C 42.085938 50.886719 40.925781 52.199219 39.535156 52.199219 C 39.152344 52.199219 38.765625 52.125 38.378906 51.890625 C 37.375 51.273438 36.0625 52.046875 36.0625 53.203125 L 36.0625 60.847656 L 30.5 60.847656 Z M 30.5 60.925781 "/>
<path style=" stroke:none;fill-rule:nonzero;fill:rgb(100%,81.568627%,35.686275%);fill-opacity:1;" d="M 55.367188 60.925781 C 55.367188 60.773438 55.367188 60.695312 55.367188 60.539062 C 55.367188 59.074219 54.828125 57.761719 53.824219 56.757812 C 52.820312 55.753906 51.582031 55.210938 50.191406 55.210938 C 49.113281 55.210938 48.109375 55.597656 47.335938 56.214844 C 45.097656 57.914062 44.632812 59.460938 44.710938 61.003906 L 39.152344 61.003906 L 39.152344 55.445312 C 39.304688 55.445312 39.382812 55.445312 39.535156 55.445312 C 41.003906 55.445312 42.316406 54.902344 43.320312 53.898438 C 44.324219 52.894531 44.863281 51.582031 44.863281 50.117188 C 44.863281 48.648438 44.324219 47.335938 43.320312 46.332031 C 42.316406 45.328125 41.003906 44.789062 39.535156 44.789062 C 39.382812 44.789062 39.304688 44.789062 39.152344 44.789062 L 39.152344 39.226562 L 46.796875 39.226562 C 47.953125 39.226562 48.726562 37.914062 48.109375 36.910156 C 47.722656 36.292969 47.722656 35.597656 47.953125 34.902344 C 48.183594 34.285156 48.726562 33.746094 49.421875 33.589844 C 50.964844 33.203125 52.277344 34.363281 52.277344 35.753906 C 52.277344 36.140625 52.199219 36.523438 51.96875 36.910156 C 51.351562 37.914062 52.125 39.226562 53.28125 39.226562 L 60.925781 39.226562 L 60.925781 46.871094 C 60.925781 48.03125 62.238281 48.804688 63.242188 48.183594 C 63.859375 47.800781 64.554688 47.722656 65.25 48.03125 C 65.867188 48.261719 66.410156 48.878906 66.5625 49.5 C 66.949219 51.042969 65.792969 52.355469 64.402344 52.355469 C 64.015625 52.355469 63.628906 52.277344 63.242188 52.046875 C 62.238281 51.429688 60.925781 52.199219 60.925781 53.359375 L 60.925781 61.003906 L 55.367188 61.003906 Z M 55.367188 60.925781 "/>
<path style=" stroke:none;fill-rule:nonzero;fill:rgb(90.196078%,91.372549%,93.333333%);fill-opacity:1;" d="M 80.230469 60.925781 C 80.230469 60.773438 80.230469 60.695312 80.230469 60.539062 C 80.230469 59.074219 79.691406 57.761719 78.6875 56.757812 C 77.683594 55.753906 76.449219 55.210938 75.058594 55.210938 C 73.976562 55.210938 72.972656 55.597656 72.199219 56.214844 C 69.960938 57.914062 69.5 59.460938 69.574219 61.003906 L 64.015625 61.003906 L 64.015625 55.445312 C 64.167969 55.445312 64.246094 55.445312 64.402344 55.445312 C 65.867188 55.445312 67.179688 54.902344 68.183594 53.898438 C 69.1875 52.894531 69.730469 51.582031 69.730469 50.117188 C 69.730469 48.648438 69.1875 47.335938 68.183594 46.332031 C 67.179688 45.328125 65.867188 44.789062 64.402344 44.789062 C 64.246094 44.789062 64.167969 44.789062 64.015625 44.789062 L 64.015625 39.226562 L 71.660156 39.226562 C 72.820312 39.226562 73.589844 37.914062 72.972656 36.910156 C 72.585938 36.292969 72.585938 35.597656 72.820312 34.902344 C 73.050781 34.285156 73.589844 33.746094 74.285156 33.589844 C 75.832031 33.203125 77.144531 34.363281 77.144531 35.753906 C 77.144531 36.140625 77.066406 36.523438 76.832031 36.910156 C 76.214844 37.914062 76.988281 39.226562 78.148438 39.226562 L 85.792969 39.226562 L 85.792969 61.003906 L 80.230469 61.003906 Z M 80.230469 60.925781 "/>
<path style=" stroke:none;fill-rule:nonzero;fill:rgb(90.196078%,91.372549%,93.333333%);fill-opacity:1;" d="M 14.207031 85.867188 L 14.207031 64.09375 L 21.851562 64.09375 C 23.011719 64.09375 23.785156 62.78125 23.167969 61.777344 C 22.78125 61.160156 22.703125 60.464844 23.011719 59.769531 C 23.242188 59.152344 23.859375 58.609375 24.480469 58.457031 C 26.023438 58.070312 27.335938 59.226562 27.335938 60.617188 C 27.335938 61.003906 27.257812 61.390625 27.027344 61.777344 C 26.410156 62.78125 27.179688 64.09375 28.339844 64.09375 L 35.984375 64.09375 L 35.984375 71.738281 C 35.984375 72.894531 37.296875 73.667969 38.300781 73.050781 C 38.917969 72.664062 39.613281 72.664062 40.230469 72.894531 C 40.847656 73.128906 41.390625 73.667969 41.621094 74.363281 C 42.085938 75.90625 40.925781 77.296875 39.460938 77.296875 C 39.074219 77.296875 38.6875 77.21875 38.300781 76.988281 C 37.296875 76.371094 35.984375 77.144531 35.984375 78.300781 L 35.984375 85.945312 L 14.207031 85.945312 Z M 14.207031 85.867188 "/>
<path style=" stroke:none;fill-rule:nonzero;fill:rgb(51.764706%,85.882353%,100%);fill-opacity:1;" d="M 39.074219 85.867188 L 39.074219 80.308594 C 39.226562 80.308594 39.304688 80.308594 39.460938 80.308594 C 40.925781 80.308594 42.238281 79.769531 43.242188 78.765625 C 44.246094 77.761719 44.789062 76.449219 44.789062 74.980469 C 44.789062 73.589844 44.246094 72.199219 43.242188 71.195312 C 42.238281 70.191406 40.925781 69.652344 39.460938 69.652344 C 39.304688 69.652344 39.226562 69.652344 39.074219 69.652344 L 39.074219 64.09375 L 46.71875 64.09375 C 47.875 64.09375 48.648438 62.78125 48.03125 61.777344 C 47.644531 61.160156 47.566406 60.464844 47.875 59.769531 C 48.109375 59.152344 48.726562 58.609375 49.34375 58.457031 C 50.886719 58.070312 52.199219 59.226562 52.199219 60.617188 C 52.199219 61.003906 52.125 61.390625 51.890625 61.777344 C 51.273438 62.78125 52.046875 64.09375 53.203125 64.09375 L 60.847656 64.09375 L 60.847656 71.738281 C 60.847656 72.894531 62.164062 73.667969 63.167969 73.050781 C 63.785156 72.664062 64.480469 72.664062 65.171875 72.894531 C 65.792969 73.128906 66.332031 73.667969 66.488281 74.363281 C 66.871094 75.90625 65.792969 77.296875 64.324219 77.296875 C 63.9375 77.296875 63.550781 77.21875 63.167969 76.988281 C 62.164062 76.371094 60.847656 77.144531 60.847656 78.300781 L 60.847656 85.945312 L 39.074219 85.945312 Z M 39.074219 85.867188 "/>
<path style=" stroke:none;fill-rule:nonzero;fill:rgb(100%,100%,100%);fill-opacity:1;" d="M 23.167969 2.316406 L 19.84375 0.847656 L 19.769531 1.082031 C 19.074219 2.394531 17.605469 3.089844 16.140625 2.933594 C 15.832031 2.933594 15.597656 2.933594 15.289062 2.933594 C 13.824219 2.933594 12.433594 2.164062 11.816406 0.847656 L 11.738281 0.617188 L 8.339844 1.929688 L 8.417969 2.164062 C 8.804688 3.550781 8.339844 5.097656 7.179688 6.023438 C 6.871094 6.175781 6.640625 6.332031 6.488281 6.5625 C 5.40625 7.644531 3.9375 8.03125 2.546875 7.566406 L 2.316406 7.492188 L 0.847656 10.8125 L 1.082031 10.886719 C 2.394531 11.582031 3.089844 13.050781 2.933594 14.515625 C 2.933594 14.828125 2.933594 15.058594 2.933594 15.367188 C 2.933594 16.832031 2.164062 18.222656 0.847656 18.839844 L 0.617188 18.917969 L 1.851562 22.394531 L 2.085938 22.316406 C 3.476562 21.929688 5.019531 22.394531 5.945312 23.550781 C 6.101562 23.785156 6.332031 23.9375 6.5625 24.167969 C 7.644531 25.171875 8.03125 26.71875 7.566406 28.109375 L 7.492188 28.339844 L 10.8125 29.808594 L 10.886719 29.574219 C 11.582031 28.261719 13.050781 27.566406 14.515625 27.722656 C 14.828125 27.722656 15.058594 27.722656 15.367188 27.722656 C 16.832031 27.722656 18.222656 28.496094 18.839844 29.808594 L 18.917969 30.039062 L 22.316406 28.726562 L 22.316406 28.570312 C 21.929688 27.179688 22.394531 25.636719 23.550781 24.710938 C 23.785156 24.554688 23.9375 24.324219 24.167969 24.09375 C 25.171875 23.011719 26.71875 22.625 28.109375 23.089844 L 28.339844 23.167969 L 29.808594 19.84375 L 29.574219 19.769531 C 28.261719 19.074219 27.566406 17.605469 27.722656 16.140625 C 27.722656 15.832031 27.722656 15.597656 27.722656 15.289062 C 27.722656 13.824219 28.496094 12.433594 29.808594 11.816406 L 30.039062 11.738281 L 28.726562 8.339844 L 28.570312 8.339844 C 27.179688 8.726562 25.636719 8.261719 24.710938 7.105469 C 24.554688 6.871094 24.324219 6.71875 24.09375 6.488281 C 23.011719 5.484375 22.625 3.9375 23.089844 2.546875 Z M 23.167969 2.316406 "/>
<path style=" stroke:none;fill-rule:nonzero;fill:rgb(13.72549%,12.156863%,12.54902%);fill-opacity:1;" d="M 87.335938 11.96875 L 30.578125 11.96875 C 30.65625 11.816406 30.734375 11.582031 30.65625 11.429688 L 29.34375 8.03125 C 29.265625 7.722656 28.957031 7.566406 28.648438 7.644531 L 28.417969 7.722656 C 27.257812 8.03125 25.945312 7.644531 25.097656 6.640625 C 24.863281 6.410156 24.710938 6.175781 24.480469 6.023438 C 23.550781 5.097656 23.242188 3.859375 23.628906 2.703125 L 23.707031 2.472656 C 23.785156 2.164062 23.707031 1.851562 23.398438 1.777344 L 20.078125 0.308594 C 19.769531 0.15625 19.460938 0.308594 19.304688 0.539062 L 19.226562 0.773438 C 18.609375 1.851562 17.453125 2.472656 16.140625 2.394531 C 15.832031 2.394531 15.597656 2.394531 15.289062 2.394531 L 15.210938 2.394531 C 13.898438 2.394531 12.820312 1.699219 12.277344 0.617188 L 12.199219 0.386719 C 12.046875 0.15625 11.738281 0 11.503906 0.078125 L 8.109375 1.390625 C 7.800781 1.46875 7.644531 1.777344 7.722656 2.007812 L 7.722656 2.238281 C 8.03125 3.398438 7.644531 4.710938 6.640625 5.558594 C 6.488281 5.714844 6.253906 5.945312 6.023438 6.175781 C 5.171875 7.027344 3.859375 7.414062 2.703125 7.027344 L 2.472656 6.949219 C 2.238281 6.871094 1.929688 6.949219 1.777344 7.257812 L 0.308594 10.578125 C 0.15625 10.886719 0.308594 11.195312 0.539062 11.351562 L 0.773438 11.429688 C 1.851562 12.046875 2.472656 13.203125 2.394531 14.515625 C 2.394531 14.828125 2.394531 15.136719 2.394531 15.445312 C 2.394531 16.757812 1.699219 17.914062 0.617188 18.378906 L 0.386719 18.457031 C 0.15625 18.609375 0 18.917969 0.078125 19.152344 L 1.390625 22.546875 C 1.46875 22.855469 1.777344 23.011719 2.085938 22.933594 L 2.316406 22.855469 C 3.476562 22.546875 4.789062 22.933594 5.636719 23.9375 C 5.867188 24.167969 6.023438 24.402344 6.253906 24.554688 C 7.179688 25.484375 7.492188 26.71875 7.105469 27.875 L 6.949219 28.183594 C 6.871094 28.496094 6.949219 28.804688 7.257812 28.878906 L 10.578125 30.347656 C 10.8125 30.5 11.195312 30.347656 11.351562 30.117188 L 11.429688 29.882812 C 11.582031 29.574219 11.816406 29.265625 12.125 29.035156 L 12.125 87.335938 C 12.125 87.644531 12.355469 87.953125 12.664062 87.953125 L 62.394531 87.953125 C 62.703125 87.953125 63.011719 87.722656 63.011719 87.335938 L 63.011719 79.074219 C 63.476562 79.226562 63.859375 79.304688 64.324219 79.304688 C 66.71875 79.304688 68.726562 77.296875 68.726562 74.902344 C 68.726562 72.507812 66.71875 70.5 64.324219 70.5 C 63.859375 70.5 63.398438 70.578125 63.011719 70.734375 L 63.011719 63.011719 L 71.503906 63.011719 C 71.816406 63.011719 72.125 62.78125 72.125 62.394531 C 72.125 62.238281 72.046875 62.085938 71.96875 62.007812 C 71.738281 61.542969 71.582031 61.003906 71.582031 60.464844 C 71.582031 58.6875 73.050781 57.21875 74.828125 57.21875 C 75.675781 57.21875 76.523438 57.527344 77.144531 58.148438 C 77.761719 58.765625 78.070312 59.535156 78.070312 60.464844 C 78.070312 61.003906 77.914062 61.621094 77.605469 62.085938 C 77.527344 62.238281 77.527344 62.472656 77.605469 62.703125 C 77.683594 62.855469 77.914062 63.011719 78.148438 63.011719 L 87.257812 63.011719 C 87.566406 63.011719 87.875 62.78125 87.875 62.394531 L 87.875 12.585938 C 87.875 12.277344 87.644531 11.96875 87.335938 11.96875 Z M 38.148438 13.128906 L 61.851562 13.128906 L 61.851562 21.699219 C 61.851562 21.929688 61.929688 22.085938 62.164062 22.238281 C 62.316406 22.316406 62.546875 22.316406 62.78125 22.238281 C 63.320312 21.929688 63.859375 21.777344 64.402344 21.777344 C 66.175781 21.777344 67.644531 23.242188 67.644531 25.019531 C 67.644531 26.796875 66.175781 28.261719 64.402344 28.261719 C 63.859375 28.261719 63.320312 28.109375 62.78125 27.800781 C 62.625 27.722656 62.394531 27.722656 62.164062 27.800781 C 62.007812 27.875 61.851562 28.109375 61.851562 28.339844 L 61.851562 36.910156 L 54.207031 36.910156 C 54.363281 36.449219 54.441406 36.0625 54.441406 35.597656 C 54.441406 34.441406 53.976562 33.28125 53.128906 32.507812 C 52.277344 31.660156 51.195312 31.195312 50.039062 31.195312 C 47.644531 31.195312 45.636719 33.203125 45.636719 35.597656 C 45.636719 36.0625 45.714844 36.523438 45.867188 36.910156 L 38.222656 36.910156 L 38.222656 29.1875 C 38.6875 29.34375 39.074219 29.421875 39.535156 29.421875 C 41.929688 29.421875 43.9375 27.414062 43.9375 25.019531 C 43.9375 22.625 41.929688 20.617188 39.535156 20.617188 C 39.074219 20.617188 38.609375 20.695312 38.222656 20.847656 L 38.222656 13.128906 Z M 62.085938 52.820312 C 61.929688 52.894531 61.777344 53.128906 61.777344 53.359375 L 61.777344 61.929688 L 54.132812 61.929688 C 54.285156 61.46875 54.363281 61.082031 54.363281 60.617188 C 54.363281 59.460938 53.898438 58.300781 53.050781 57.527344 C 52.199219 56.679688 51.121094 56.214844 49.960938 56.214844 C 47.566406 56.214844 45.558594 58.222656 45.558594 60.617188 C 45.558594 61.082031 45.636719 61.542969 45.792969 61.929688 L 38.148438 61.929688 L 38.148438 54.207031 C 38.609375 54.363281 38.996094 54.441406 39.460938 54.441406 C 40.617188 54.441406 41.777344 53.976562 42.546875 53.128906 C 43.398438 52.277344 43.859375 51.195312 43.859375 50.039062 C 43.859375 48.878906 43.398438 47.800781 42.546875 46.949219 C 41.699219 46.101562 40.617188 45.636719 39.460938 45.636719 C 38.996094 45.636719 38.53125 45.714844 38.148438 45.867188 L 38.148438 38.148438 L 46.71875 38.148438 C 47.027344 38.148438 47.335938 37.914062 47.335938 37.527344 C 47.335938 37.375 47.257812 37.21875 47.179688 37.144531 C 46.949219 36.679688 46.796875 36.140625 46.796875 35.597656 C 46.796875 33.824219 48.261719 32.355469 50.039062 32.355469 C 50.886719 32.355469 51.738281 32.664062 52.355469 33.28125 C 52.972656 33.898438 53.28125 34.671875 53.28125 35.597656 C 53.28125 36.140625 53.128906 36.757812 52.820312 37.21875 C 52.742188 37.375 52.742188 37.605469 52.820312 37.835938 C 52.894531 37.992188 53.128906 38.148438 53.359375 38.148438 L 61.851562 38.148438 L 61.851562 46.796875 C 61.851562 47.027344 61.929688 47.179688 62.164062 47.335938 C 62.316406 47.414062 62.546875 47.414062 62.78125 47.335938 C 63.242188 47.027344 63.859375 46.871094 64.402344 46.871094 C 65.25 46.871094 66.101562 47.179688 66.71875 47.800781 C 67.335938 48.417969 67.644531 49.1875 67.644531 50.117188 C 67.644531 50.964844 67.335938 51.816406 66.71875 52.433594 C 66.101562 53.050781 65.328125 53.359375 64.402344 53.359375 C 63.859375 53.359375 63.242188 53.203125 62.78125 52.894531 C 62.546875 52.664062 62.316406 52.664062 62.085938 52.820312 Z M 28.261719 57.453125 C 27.414062 56.601562 26.332031 56.140625 25.171875 56.140625 C 22.78125 56.140625 20.773438 58.148438 20.773438 60.539062 C 20.773438 61.003906 20.847656 61.46875 21.003906 61.851562 L 13.359375 61.851562 L 13.359375 38.070312 L 21.929688 38.070312 C 22.238281 38.070312 22.546875 37.835938 22.546875 37.453125 C 22.546875 37.296875 22.472656 37.144531 22.394531 37.066406 C 22.164062 36.601562 22.007812 36.0625 22.007812 35.519531 C 22.007812 33.746094 23.476562 32.277344 25.25 32.277344 C 26.101562 32.277344 26.949219 32.585938 27.566406 33.203125 C 28.183594 33.824219 28.496094 34.59375 28.496094 35.519531 C 28.496094 36.0625 28.339844 36.679688 28.03125 37.144531 C 27.953125 37.296875 27.953125 37.527344 28.03125 37.761719 C 28.109375 37.914062 28.339844 38.070312 28.570312 38.070312 L 37.066406 38.070312 L 37.066406 46.71875 C 37.066406 46.949219 37.144531 47.105469 37.375 47.257812 C 37.527344 47.335938 37.761719 47.335938 37.992188 47.257812 C 38.457031 46.949219 39.074219 46.796875 39.613281 46.796875 C 40.464844 46.796875 41.3125 47.105469 41.929688 47.722656 C 42.546875 48.339844 42.855469 49.113281 42.855469 50.039062 C 42.855469 50.886719 42.546875 51.738281 41.929688 52.355469 C 41.3125 52.972656 40.539062 53.28125 39.613281 53.28125 C 39.074219 53.28125 38.457031 53.128906 37.992188 52.820312 C 37.835938 52.742188 37.605469 52.742188 37.375 52.820312 C 37.21875 52.894531 37.066406 53.128906 37.066406 53.359375 L 37.066406 61.929688 L 29.34375 61.929688 C 29.5 61.46875 29.574219 61.082031 29.574219 60.617188 C 29.574219 59.382812 29.113281 58.222656 28.261719 57.453125 Z M 36.988281 13.128906 L 36.988281 21.699219 C 36.988281 21.929688 37.066406 22.085938 37.296875 22.238281 C 37.453125 22.316406 37.683594 22.316406 37.914062 22.238281 C 38.457031 21.929688 38.996094 21.777344 39.535156 21.777344 C 41.3125 21.777344 42.78125 23.242188 42.78125 25.019531 C 42.78125 26.796875 41.3125 28.261719 39.535156 28.261719 C 38.996094 28.261719 38.457031 28.109375 37.914062 27.800781 C 37.761719 27.722656 37.527344 27.722656 37.296875 27.800781 C 37.144531 27.875 36.988281 28.109375 36.988281 28.339844 L 36.988281 36.988281 L 29.34375 36.988281 C 29.5 36.523438 29.574219 36.140625 29.574219 35.675781 C 29.574219 34.515625 29.113281 33.359375 28.261719 32.585938 C 27.414062 31.738281 26.332031 31.273438 25.171875 31.273438 C 22.78125 31.273438 20.773438 33.28125 20.773438 35.675781 C 20.773438 36.140625 20.847656 36.601562 21.003906 36.988281 L 13.359375 36.988281 L 13.359375 28.496094 C 13.746094 28.417969 14.132812 28.339844 14.59375 28.339844 C 14.902344 28.339844 15.136719 28.339844 15.445312 28.339844 C 16.757812 28.339844 17.835938 29.035156 18.378906 30.117188 L 18.457031 30.347656 C 18.53125 30.578125 18.765625 30.65625 18.996094 30.65625 C 19.074219 30.65625 19.152344 30.65625 19.226562 30.65625 L 22.625 29.34375 C 22.933594 29.265625 23.089844 28.957031 23.011719 28.648438 L 22.933594 28.417969 C 22.625 27.257812 23.011719 25.945312 24.015625 25.097656 C 24.246094 24.863281 24.480469 24.710938 24.632812 24.480469 C 25.484375 23.550781 26.871094 23.242188 27.953125 23.628906 L 28.183594 23.707031 C 28.496094 23.785156 28.804688 23.707031 28.878906 23.398438 L 30.347656 20.078125 C 30.5 19.769531 30.347656 19.460938 30.117188 19.304688 L 29.882812 19.226562 C 28.804688 18.609375 28.183594 17.453125 28.261719 16.140625 C 28.261719 15.832031 28.261719 15.519531 28.261719 15.210938 C 28.261719 14.441406 28.496094 13.667969 28.957031 13.128906 Z M 10.578125 29.113281 L 8.183594 28.03125 C 8.570312 26.5625 8.109375 24.941406 6.949219 23.785156 C 6.71875 23.628906 6.5625 23.398438 6.410156 23.167969 C 5.328125 21.929688 3.707031 21.390625 2.238281 21.699219 L 1.3125 19.304688 C 2.625 18.53125 3.476562 17.066406 3.476562 15.445312 C 3.476562 15.136719 3.476562 14.902344 3.476562 14.59375 C 3.550781 12.972656 2.855469 11.503906 1.542969 10.578125 L 2.625 8.183594 C 4.09375 8.570312 5.792969 8.109375 6.871094 6.949219 C 7.105469 6.71875 7.257812 6.5625 7.492188 6.410156 C 8.726562 5.328125 9.265625 3.785156 8.957031 2.238281 L 11.429688 1.3125 C 12.199219 2.625 13.667969 3.476562 15.289062 3.476562 L 15.367188 3.476562 C 15.597656 3.476562 15.90625 3.476562 16.140625 3.476562 C 17.683594 3.550781 19.226562 2.855469 20.078125 1.542969 L 22.472656 2.625 C 22.085938 4.09375 22.546875 5.714844 23.707031 6.871094 C 23.9375 7.027344 24.09375 7.257812 24.246094 7.492188 C 25.328125 8.726562 26.949219 9.265625 28.417969 8.957031 L 29.34375 11.429688 C 28.03125 12.199219 27.179688 13.667969 27.179688 15.289062 C 27.179688 15.597656 27.179688 15.832031 27.179688 16.140625 C 27.105469 17.761719 27.800781 19.304688 29.113281 20.15625 L 28.03125 22.546875 C 26.5625 22.164062 24.863281 22.625 23.785156 23.785156 C 23.628906 24.015625 23.398438 24.167969 23.167969 24.324219 C 21.929688 25.40625 21.390625 26.949219 21.699219 28.496094 L 19.304688 29.34375 C 18.53125 28.03125 17.066406 27.179688 15.445312 27.179688 L 15.367188 27.179688 C 15.136719 27.179688 14.828125 27.179688 14.59375 27.179688 C 12.972656 27.105469 11.429688 27.800781 10.578125 29.113281 Z M 13.28125 86.871094 L 13.28125 63.011719 L 21.851562 63.011719 C 22.164062 63.011719 22.472656 62.78125 22.472656 62.394531 C 22.472656 62.238281 22.394531 62.085938 22.316406 62.007812 C 22.085938 61.542969 21.929688 61.003906 21.929688 60.464844 C 21.929688 58.6875 23.398438 57.21875 25.171875 57.21875 C 26.023438 57.21875 26.871094 57.527344 27.492188 58.148438 C 28.109375 58.765625 28.417969 59.535156 28.417969 60.464844 C 28.417969 61.003906 28.261719 61.621094 27.953125 62.085938 C 27.875 62.238281 27.875 62.472656 27.953125 62.703125 C 28.03125 62.855469 28.261719 63.011719 28.496094 63.011719 L 37.066406 63.011719 L 37.066406 71.660156 C 37.066406 71.890625 37.144531 72.046875 37.375 72.199219 C 37.527344 72.277344 37.761719 72.277344 37.992188 72.199219 C 38.53125 71.890625 39.074219 71.738281 39.613281 71.738281 C 41.390625 71.738281 42.855469 73.203125 42.855469 74.980469 C 42.855469 76.757812 41.390625 78.222656 39.613281 78.222656 C 39.074219 78.222656 38.53125 78.070312 37.992188 77.761719 C 37.835938 77.683594 37.605469 77.683594 37.375 77.761719 C 37.21875 77.835938 37.066406 78.070312 37.066406 78.300781 L 37.066406 86.871094 Z M 64.402344 71.738281 C 66.175781 71.738281 67.644531 73.203125 67.644531 74.980469 C 67.644531 76.757812 66.175781 78.222656 64.402344 78.222656 C 63.859375 78.222656 63.320312 78.070312 62.78125 77.761719 C 62.625 77.683594 62.394531 77.683594 62.164062 77.761719 C 62.007812 77.835938 61.851562 78.070312 61.851562 78.300781 L 61.851562 86.871094 L 38.148438 86.871094 L 38.148438 79.152344 C 38.609375 79.304688 38.996094 79.382812 39.460938 79.382812 C 41.851562 79.382812 43.859375 77.375 43.859375 74.980469 C 43.859375 72.585938 41.851562 70.578125 39.460938 70.578125 C 38.996094 70.578125 38.53125 70.65625 38.148438 70.8125 L 38.148438 63.089844 L 46.640625 63.089844 C 46.949219 63.089844 47.257812 62.855469 47.257812 62.472656 C 47.257812 62.316406 47.179688 62.164062 47.105469 62.085938 C 46.871094 61.621094 46.71875 61.082031 46.71875 60.539062 C 46.71875 58.765625 48.183594 57.296875 49.960938 57.296875 C 50.8125 57.296875 51.660156 57.605469 52.277344 58.222656 C 52.894531 58.839844 53.203125 59.613281 53.203125 60.539062 C 53.203125 61.082031 53.050781 61.699219 52.742188 62.164062 C 52.664062 62.316406 52.664062 62.546875 52.742188 62.78125 C 52.820312 62.933594 53.050781 63.089844 53.28125 63.089844 L 61.851562 63.089844 L 61.851562 71.738281 C 61.851562 71.96875 61.929688 72.125 62.164062 72.277344 C 62.316406 72.355469 62.546875 72.355469 62.78125 72.277344 C 63.242188 71.890625 63.785156 71.738281 64.402344 71.738281 Z M 86.71875 61.851562 L 79.074219 61.851562 C 79.226562 61.390625 79.304688 61.003906 79.304688 60.539062 C 79.304688 59.382812 78.839844 58.222656 77.992188 57.453125 C 77.144531 56.601562 76.0625 56.140625 74.902344 56.140625 C 72.507812 56.140625 70.5 58.148438 70.5 60.539062 C 70.5 61.003906 70.578125 61.46875 70.734375 61.851562 L 63.089844 61.851562 L 63.089844 54.132812 C 63.550781 54.285156 63.9375 54.363281 64.402344 54.363281 C 65.558594 54.363281 66.71875 53.898438 67.492188 53.050781 C 68.339844 52.199219 68.804688 51.121094 68.804688 49.960938 C 68.804688 48.804688 68.339844 47.722656 67.492188 46.871094 C 66.640625 46.023438 65.558594 45.558594 64.402344 45.558594 C 63.9375 45.558594 63.476562 45.636719 63.089844 45.792969 L 63.089844 38.070312 L 71.660156 38.070312 C 71.96875 38.070312 72.277344 37.835938 72.277344 37.453125 C 72.277344 37.296875 72.199219 37.144531 72.125 37.066406 C 71.890625 36.601562 71.738281 36.0625 71.738281 35.519531 C 71.738281 33.746094 73.203125 32.277344 74.980469 32.277344 C 75.832031 32.277344 76.679688 32.585938 77.296875 33.203125 C 77.914062 33.824219 78.222656 34.59375 78.222656 35.519531 C 78.222656 36.0625 78.070312 36.679688 77.761719 37.144531 C 77.683594 37.296875 77.683594 37.527344 77.761719 37.761719 C 77.835938 37.914062 78.070312 38.070312 78.300781 38.070312 L 86.871094 38.070312 L 86.871094 61.851562 Z M 86.71875 36.910156 L 79.074219 36.910156 C 79.226562 36.449219 79.304688 36.0625 79.304688 35.597656 C 79.304688 34.441406 78.839844 33.28125 77.992188 32.507812 C 77.144531 31.660156 76.0625 31.195312 74.902344 31.195312 C 72.507812 31.195312 70.5 33.203125 70.5 35.597656 C 70.5 36.0625 70.578125 36.523438 70.734375 36.910156 L 63.089844 36.910156 L 63.089844 29.1875 C 63.550781 29.34375 63.9375 29.421875 64.402344 29.421875 C 66.796875 29.421875 68.804688 27.414062 68.804688 25.019531 C 68.804688 22.625 66.796875 20.617188 64.402344 20.617188 C 63.9375 20.617188 63.476562 20.695312 63.089844 20.847656 L 63.089844 13.128906 L 86.796875 13.128906 L 86.796875 36.910156 Z M 86.71875 36.910156 "/>
<path style=" stroke:none;fill-rule:nonzero;fill:rgb(13.72549%,12.156863%,12.54902%);fill-opacity:1;" d="M 15.367188 25.328125 C 15.210938 25.328125 14.980469 25.328125 14.828125 25.328125 L 14.902344 24.167969 C 15.058594 24.167969 15.210938 24.167969 15.367188 24.167969 L 15.597656 24.167969 L 15.597656 25.328125 Z M 17.21875 25.171875 L 16.988281 24.015625 C 17.21875 23.9375 17.453125 23.9375 17.683594 23.859375 L 17.992188 24.941406 C 17.761719 25.097656 17.453125 25.171875 17.21875 25.171875 Z M 13.128906 25.097656 C 12.894531 25.019531 12.585938 24.941406 12.355469 24.863281 L 12.664062 23.785156 C 12.894531 23.859375 13.128906 23.9375 13.359375 23.9375 Z M 19.535156 24.402344 L 19.074219 23.320312 C 19.304688 23.242188 19.535156 23.089844 19.691406 23.011719 L 20.230469 24.015625 C 20 24.167969 19.769531 24.324219 19.535156 24.402344 Z M 10.8125 24.324219 C 10.578125 24.167969 10.347656 24.09375 10.117188 23.9375 L 10.734375 22.933594 C 10.964844 23.089844 11.121094 23.167969 11.351562 23.320312 Z M 21.621094 23.167969 L 20.925781 22.238281 C 21.082031 22.085938 21.3125 21.929688 21.46875 21.777344 L 22.238281 22.625 C 22.085938 22.78125 21.851562 23.011719 21.621094 23.167969 Z M 8.804688 22.933594 C 8.570312 22.78125 8.417969 22.546875 8.183594 22.394531 L 9.035156 21.542969 C 9.1875 21.699219 9.34375 21.851562 9.574219 22.007812 Z M 23.320312 21.390625 L 22.394531 20.695312 C 22.546875 20.539062 22.703125 20.308594 22.78125 20.078125 L 23.785156 20.695312 C 23.628906 20.925781 23.476562 21.160156 23.320312 21.390625 Z M 7.105469 21.160156 C 6.949219 20.925781 6.796875 20.695312 6.640625 20.464844 L 7.644531 19.84375 C 7.800781 20.078125 7.875 20.230469 8.03125 20.464844 Z M 24.554688 19.226562 L 23.476562 18.765625 C 23.550781 18.53125 23.628906 18.300781 23.707031 18.070312 L 24.789062 18.457031 C 24.789062 18.765625 24.710938 18.996094 24.554688 19.226562 Z M 5.945312 18.996094 C 5.867188 18.765625 5.792969 18.457031 5.714844 18.222656 L 6.796875 17.914062 C 6.871094 18.070312 6.949219 18.300781 7.027344 18.53125 Z M 25.25 16.910156 L 24.09375 16.757812 C 24.09375 16.523438 24.167969 16.292969 24.167969 16.0625 L 25.328125 16.140625 C 25.328125 16.371094 25.328125 16.601562 25.25 16.910156 Z M 5.40625 16.601562 C 5.40625 16.292969 5.328125 16.0625 5.328125 15.753906 L 6.488281 15.675781 C 6.488281 15.90625 6.488281 16.140625 6.5625 16.371094 Z M 24.167969 14.59375 C 24.167969 14.363281 24.09375 14.132812 24.09375 13.898438 L 25.25 13.667969 C 25.328125 13.898438 25.328125 14.207031 25.328125 14.515625 Z M 6.488281 14.285156 L 5.40625 14.132812 C 5.40625 13.898438 5.484375 13.589844 5.558594 13.359375 L 6.71875 13.589844 C 6.5625 13.824219 6.5625 14.054688 6.488281 14.285156 Z M 23.707031 12.433594 C 23.628906 12.199219 23.550781 11.96875 23.476562 11.738281 L 24.554688 11.273438 C 24.632812 11.503906 24.789062 11.816406 24.863281 12.046875 Z M 7.027344 12.199219 L 5.945312 11.816406 C 6.023438 11.582031 6.101562 11.429688 6.175781 11.195312 L 6.253906 10.964844 L 7.335938 11.429688 L 7.257812 11.660156 C 7.179688 11.890625 7.105469 12.046875 7.027344 12.199219 Z M 22.78125 10.5 C 22.625 10.269531 22.472656 10.117188 22.394531 9.882812 L 23.320312 9.1875 C 23.476562 9.421875 23.628906 9.652344 23.785156 9.882812 Z M 8.03125 10.269531 L 7.105469 9.574219 C 7.257812 9.34375 7.414062 9.113281 7.566406 8.957031 L 8.496094 9.730469 C 8.339844 9.882812 8.183594 10.039062 8.03125 10.269531 Z M 21.390625 8.804688 C 21.234375 8.648438 21.003906 8.496094 20.847656 8.339844 L 21.542969 7.414062 C 21.777344 7.566406 21.929688 7.722656 22.164062 7.953125 Z M 9.5 8.648438 L 8.726562 7.800781 C 8.957031 7.644531 9.113281 7.414062 9.34375 7.257812 L 10.039062 8.183594 C 9.882812 8.339844 9.652344 8.496094 9.5 8.648438 Z M 19.613281 7.566406 C 19.382812 7.492188 19.152344 7.335938 18.996094 7.257812 L 19.460938 6.175781 C 19.691406 6.253906 19.921875 6.410156 20.15625 6.5625 Z M 11.273438 7.414062 L 10.8125 6.410156 C 11.042969 6.253906 11.273438 6.175781 11.582031 6.101562 L 12.046875 7.179688 C 11.738281 7.179688 11.503906 7.335938 11.273438 7.414062 Z M 18.300781 6.949219 C 18.070312 6.871094 17.835938 6.796875 17.605469 6.71875 L 17.914062 5.636719 C 18.148438 5.714844 18.457031 5.792969 18.6875 5.867188 Z M 13.359375 6.71875 L 13.128906 5.558594 C 13.359375 5.484375 13.667969 5.484375 13.898438 5.40625 L 14.054688 6.5625 C 13.824219 6.5625 13.589844 6.640625 13.359375 6.71875 Z M 16.214844 6.488281 C 15.984375 6.488281 15.753906 6.410156 15.519531 6.410156 L 15.519531 5.25 C 15.832031 5.25 16.0625 5.25 16.371094 5.328125 Z M 16.214844 6.488281 "/>
<path style=" stroke:none;fill-rule:nonzero;fill:rgb(100%,81.568627%,35.686275%);fill-opacity:1;" d="M 22.855469 15.367188 C 22.855469 19.503906 19.503906 22.855469 15.367188 22.855469 C 11.230469 22.855469 7.875 19.503906 7.875 15.367188 C 7.875 11.230469 11.230469 7.875 15.367188 7.875 C 19.503906 7.875 22.855469 11.230469 22.855469 15.367188 Z M 22.855469 15.367188 "/>
<path style=" stroke:none;fill-rule:nonzero;fill:rgb(100%,100%,100%);fill-opacity:1;" d="M 19.152344 15.367188 C 19.152344 17.457031 17.457031 19.152344 15.367188 19.152344 C 13.277344 19.152344 11.582031 17.457031 11.582031 15.367188 C 11.582031 13.277344 13.277344 11.582031 15.367188 11.582031 C 17.457031 11.582031 19.152344 13.277344 19.152344 15.367188 Z M 19.152344 15.367188 "/>
<path style=" stroke:none;fill-rule:nonzero;fill:rgb(13.72549%,12.156863%,12.54902%);fill-opacity:1;" d="M 15.367188 19.691406 C 14.75 19.691406 14.132812 19.535156 13.589844 19.304688 C 12.507812 18.839844 11.738281 17.992188 11.351562 16.910156 C 10.964844 15.832031 10.964844 14.671875 11.429688 13.589844 C 12.125 12.046875 13.667969 11.042969 15.367188 11.042969 C 15.984375 11.042969 16.601562 11.195312 17.144531 11.429688 C 18.222656 11.890625 18.996094 12.742188 19.382812 13.824219 C 19.769531 14.902344 19.769531 16.0625 19.304688 17.144531 C 18.609375 18.6875 17.066406 19.691406 15.367188 19.691406 Z M 15.367188 12.125 C 14.132812 12.125 12.972656 12.894531 12.433594 13.976562 C 12.125 14.75 12.046875 15.597656 12.355469 16.371094 C 12.664062 17.144531 13.28125 17.761719 14.054688 18.148438 C 14.441406 18.300781 14.902344 18.457031 15.367188 18.457031 C 16.601562 18.457031 17.761719 17.683594 18.300781 16.601562 C 18.609375 15.832031 18.6875 14.980469 18.378906 14.207031 C 18.070312 13.4375 17.453125 12.820312 16.679688 12.433594 C 16.214844 12.277344 15.753906 12.125 15.367188 12.125 Z M 15.367188 12.125 "/>
<path style=" stroke:none;fill-rule:nonzero;fill:rgb(90.196078%,91.372549%,93.333333%);fill-opacity:1;" d="M 68.183594 3.476562 C 68.183594 5.054688 66.90625 6.332031 65.328125 6.332031 C 63.75 6.332031 62.472656 5.054688 62.472656 3.476562 C 62.472656 1.898438 63.75 0.617188 65.328125 0.617188 C 66.90625 0.617188 68.183594 1.898438 68.183594 3.476562 Z M 68.183594 3.476562 "/>
<path style=" stroke:none;fill-rule:nonzero;fill:rgb(51.764706%,85.882353%,100%);fill-opacity:1;" d="M 6.332031 47.179688 C 6.332031 48.757812 5.054688 50.039062 3.476562 50.039062 C 1.898438 50.039062 0.617188 48.757812 0.617188 47.179688 C 0.617188 45.601562 1.898438 44.324219 3.476562 44.324219 C 5.054688 44.324219 6.332031 45.601562 6.332031 47.179688 Z M 6.332031 47.179688 "/>
<path style=" stroke:none;fill-rule:nonzero;fill:rgb(100%,81.568627%,35.686275%);fill-opacity:1;" d="M 62.394531 96.371094 C 62.394531 97.949219 61.113281 99.226562 59.535156 99.226562 C 57.957031 99.226562 56.679688 97.949219 56.679688 96.371094 C 56.679688 94.792969 57.957031 93.511719 59.535156 93.511719 C 61.113281 93.511719 62.394531 94.792969 62.394531 96.371094 Z M 62.394531 96.371094 "/>
<path style=" stroke:none;fill-rule:nonzero;fill:rgb(100%,100%,100%);fill-opacity:1;" d="M 91.121094 88.03125 C 91.121094 94.34375 86.003906 99.460938 79.691406 99.460938 C 73.378906 99.460938 68.261719 94.34375 68.261719 88.03125 C 68.261719 81.71875 73.378906 76.601562 79.691406 76.601562 C 86.003906 76.601562 91.121094 81.71875 91.121094 88.03125 Z M 91.121094 88.03125 "/>
<path style=" stroke:none;fill-rule:nonzero;fill:rgb(100%,43.921569%,34.509804%);fill-opacity:1;" d="M 82.78125 88.03125 C 82.78125 89.738281 81.398438 91.121094 79.691406 91.121094 C 77.984375 91.121094 76.601562 89.738281 76.601562 88.03125 C 76.601562 86.324219 77.984375 84.941406 79.691406 84.941406 C 81.398438 84.941406 82.78125 86.324219 82.78125 88.03125 Z M 82.78125 88.03125 "/>
<path style=" stroke:none;fill-rule:nonzero;fill:rgb(13.72549%,12.156863%,12.54902%);fill-opacity:1;" d="M 100 72.507812 C 99.921875 72.277344 99.769531 72.125 99.535156 72.125 L 96.140625 71.660156 L 95.675781 68.261719 C 95.675781 68.03125 95.519531 67.875 95.289062 67.800781 C 95.058594 67.722656 94.828125 67.800781 94.671875 67.953125 L 90.269531 72.355469 C 90.117188 72.507812 90.117188 72.664062 90.117188 72.820312 L 90.65625 76.371094 L 87.953125 79.074219 C 85.792969 77.144531 83.011719 75.90625 79.921875 75.90625 C 73.28125 75.90625 67.953125 81.3125 67.953125 87.875 C 67.953125 94.441406 73.359375 99.84375 79.921875 99.84375 C 86.488281 99.84375 91.890625 94.441406 91.890625 87.875 C 91.890625 84.789062 90.734375 81.929688 88.726562 79.84375 L 91.429688 77.144531 L 94.980469 77.683594 C 94.980469 77.683594 95.058594 77.683594 95.058594 77.683594 C 95.210938 77.683594 95.367188 77.605469 95.445312 77.527344 L 99.84375 73.128906 C 100 72.972656 100.078125 72.742188 100 72.507812 Z M 94.59375 69.5 L 94.902344 71.890625 L 91.503906 75.289062 L 91.195312 72.894531 Z M 90.578125 88.03125 C 90.578125 93.976562 85.714844 98.839844 79.769531 98.839844 C 73.824219 98.839844 68.957031 93.976562 68.957031 88.03125 C 68.957031 82.085938 73.824219 77.21875 79.769531 77.21875 C 82.546875 77.21875 85.097656 78.300781 87.027344 80 L 85.714844 81.3125 C 84.167969 79.921875 82.085938 79.074219 79.769531 79.074219 C 74.828125 79.074219 70.8125 83.089844 70.8125 88.03125 C 70.8125 92.972656 74.828125 96.988281 79.769531 96.988281 C 84.710938 96.988281 88.726562 92.972656 88.726562 88.03125 C 88.726562 85.792969 87.875 83.707031 86.488281 82.085938 L 87.800781 80.773438 C 89.5 82.703125 90.578125 85.25 90.578125 88.03125 Z M 79.304688 88.417969 C 79.382812 88.496094 79.535156 88.570312 79.691406 88.570312 C 79.84375 88.570312 80 88.496094 80.078125 88.417969 L 83.476562 85.019531 C 84.09375 85.867188 84.554688 86.871094 84.554688 88.03125 C 84.554688 90.734375 82.394531 92.894531 79.691406 92.894531 C 76.988281 92.894531 74.828125 90.734375 74.828125 88.03125 C 74.828125 85.328125 76.988281 83.167969 79.691406 83.167969 C 80.847656 83.167969 81.851562 83.550781 82.703125 84.246094 L 79.304688 87.644531 C 79.074219 87.800781 79.074219 88.183594 79.304688 88.417969 Z M 83.550781 83.320312 C 82.546875 82.472656 81.160156 81.929688 79.691406 81.929688 C 76.371094 81.929688 73.667969 84.632812 73.667969 87.953125 C 73.667969 91.273438 76.371094 93.976562 79.691406 93.976562 C 83.011719 93.976562 85.714844 91.273438 85.714844 87.953125 C 85.714844 86.488281 85.171875 85.171875 84.324219 84.09375 L 85.558594 82.855469 C 86.71875 84.246094 87.492188 86.023438 87.492188 87.953125 C 87.492188 92.277344 84.015625 95.753906 79.691406 95.753906 C 75.367188 95.753906 71.890625 92.277344 71.890625 87.953125 C 71.890625 83.628906 75.367188 80.15625 79.691406 80.15625 C 81.621094 80.15625 83.398438 80.847656 84.789062 82.085938 Z M 94.75 76.523438 L 92.355469 76.214844 L 95.753906 72.820312 L 98.148438 73.128906 Z M 94.75 76.523438 "/>
</g>
</svg>
