<?xml version="1.0" encoding="utf-8"?>
<!-- Generator: Adobe Illustrator 18.0.0, SVG Export Plug-In . SVG Version: 6.00 Build 0)  -->
<!DOCTYPE svg PUBLIC "-//W3C//DTD SVG 1.1//EN" "http://www.w3.org/Graphics/SVG/1.1/DTD/svg11.dtd">
<svg version="1.1" id="Layer_1" xmlns="http://www.w3.org/2000/svg" xmlns:xlink="http://www.w3.org/1999/xlink" x="0px" y="0px"
	 viewBox="0 0 129.5 129.5" enable-background="new 0 0 129.5 129.5" xml:space="preserve">
<g>
	<g>
		<circle fill="#84DBFF" cx="59.7" cy="70.7" r="2.6"/>
		<circle fill="#E6E9EE" cx="59.7" cy="9.2" r="2.6"/>
		<circle fill="#FFD05B" cx="60.3" cy="120.3" r="2.6"/>
		<circle fill="#FF7058" cx="59.7" cy="58" r="2.6"/>
		<path fill="#FFD05B" d="M25.7,126.7c-12.7,0-23-10.3-23-23c0-12.7,10.3-23,23-23s23,10.3,23,23C48.7,116.4,38.4,126.7,25.7,126.7z
			"/>
		<path fill="#FF7058" d="M103.7,126.7c-12.7,0-23-10.3-23-23c0-12.7,10.3-23,23-23s23,10.3,23,23
			C126.7,116.4,116.4,126.7,103.7,126.7z"/>
		<path fill="#FF7058" d="M25.7,48.7c-12.7,0-23-10.3-23-23c0-12.7,10.3-23,23-23s23,10.3,23,23C48.7,38.4,38.4,48.7,25.7,48.7z"/>
		<path fill="#FFFFFF" d="M36.5,19.6c-0.2-0.1-0.5-0.1-0.7,0c0.1-0.9,0.2-1.8,0.2-2.7c0-7.6-4.6-10.4-10.3-10.4
			c-5.7,0-10.3,2.8-10.3,10.4c0,0.9,0.1,1.8,0.2,2.7c-0.3-0.1-0.5-0.1-0.7,0c-0.6,0.3-0.7,1.5-0.1,2.7c0.5,1,1.2,1.6,1.8,1.6
			c1.7,4.9,5.1,8.8,9,8.8s7.3-3.9,9-8.8c0.6,0,1.4-0.7,1.8-1.6C37.2,21.2,37.2,19.9,36.5,19.6z"/>
		<circle fill="#FFFFFF" cx="103.7" cy="25.7" r="25"/>
		<path fill="#E6E9EE" d="M103.7,48.7c-12.7,0-23-10.3-23-23s10.3-23,23-23c12.7,0,23,10.3,23,23S116.4,48.7,103.7,48.7z"/>
		<path fill="#FFFFFF" d="M114.5,19.6c-0.2-0.1-0.5-0.1-0.7,0c0.1-0.9,0.2-1.8,0.2-2.7c0-7.6-4.6-10.4-10.3-10.4
			c-5.7,0-10.3,2.8-10.3,10.4c0,0.9,0.1,1.8,0.2,2.7c-0.3-0.1-0.5-0.1-0.7,0c-0.6,0.3-0.7,1.5-0.1,2.7c0.5,1,1.2,1.6,1.8,1.6
			c1.7,4.9,5.1,8.8,9,8.8s7.3-3.9,9-8.8c0.6,0,1.4-0.7,1.8-1.6C115.2,21.2,115.2,19.9,114.5,19.6z"/>
		<path fill="#FFFFFF" d="M30.3,109v4.2l-4.5,2.5l-4.5-2.5V109c1.4,1.1,2.9,1.8,4.5,1.8C27.4,110.8,28.9,110.1,30.3,109z"/>
		<path fill="#FFFFFF" d="M36.5,97.6c-0.2-0.1-0.5-0.1-0.7,0c0.1-0.9,0.2-1.8,0.2-2.7c0-7.6-4.6-10.4-10.3-10.4
			c-5.7,0-10.3,2.8-10.3,10.4c0,0.9,0.1,1.8,0.2,2.7c-0.3-0.1-0.5-0.1-0.7,0c-0.6,0.3-0.7,1.5-0.1,2.7c0.5,1,1.2,1.6,1.8,1.6
			c1.7,4.9,5.1,8.8,9,8.8s7.3-3.9,9-8.8c0.6,0,1.4-0.7,1.8-1.6C37.2,99.2,37.2,97.9,36.5,97.6z"/>
		<path fill="#FFFFFF" d="M108.3,109v4.2l-4.5,2.5l-4.5-2.5V109c1.4,1.1,2.9,1.8,4.5,1.8C105.4,110.8,106.9,110.1,108.3,109z"/>
		<path fill="#FFFFFF" d="M114.5,97.6c-0.2-0.1-0.5-0.1-0.7,0c0.1-0.9,0.2-1.8,0.2-2.7c0-7.6-4.6-10.4-10.3-10.4
			c-5.7,0-10.3,2.8-10.3,10.4c0,0.9,0.1,1.8,0.2,2.7c-0.3-0.1-0.5-0.1-0.7,0c-0.6,0.3-0.7,1.5-0.1,2.7c0.5,1,1.2,1.6,1.8,1.6
			c1.7,4.9,5.1,8.8,9,8.8s7.3-3.9,9-8.8c0.6,0,1.4-0.7,1.8-1.6C115.2,99.2,115.2,97.9,114.5,97.6z"/>
		<g>
			<g>
				<path fill="#231F20" d="M103.8,0.1C89.6,0.1,78,11.6,78,25.8s11.6,25.8,25.8,25.8c14.2,0,25.8-11.6,25.8-25.8
					S117.9,0.1,103.8,0.1z M103.8,1.6c13.4,0,24.3,10.9,24.3,24.3c0,4.9-1.5,9.5-4,13.3l-11.2-3.7l-3-3c-0.1-0.1-0.3-0.2-0.5-0.2
					H109v-0.9c1.8-1.6,3.3-3.8,4.3-6.7c0.7-0.3,1.5-1,2-1.9c0.8-1.6,0.6-3.2-0.4-3.7c-0.1,0-0.1-0.1-0.2-0.1
					c0.1-0.7,0.1-1.3,0.1-1.9c0-7.1-4-11.2-11-11.2c-7,0-11,4.1-11,11.2c0,0.6,0,1.3,0.1,1.9c-0.1,0-0.1,0.1-0.2,0.1
					c-0.6,0.3-0.9,0.9-0.9,1.7c0,0.6,0.2,1.4,0.5,2.1c0.5,1,1.2,1.7,2,1.9c1.1,2.8,2.6,5.1,4.3,6.7v0.9h-0.3c-0.2,0-0.4,0.1-0.5,0.2
					l-3,3l-11.2,3.7c-2.5-3.8-4-8.4-4-13.3C79.5,12.4,90.4,1.6,103.8,1.6z M98.9,35.9l3.8,2.1l-2.4,3.2l-4.1-5l2.4-2.4v1.5
					C98.5,35.5,98.6,35.8,98.9,35.9z M94.2,17.1c0-8,5.2-9.7,9.5-9.7c4.3,0,9.5,1.7,9.5,9.7c0,0.8-0.1,1.7-0.2,2.6
					c0,0.3,0.1,0.5,0.3,0.7c0.2,0.2,0.5,0.2,0.7,0.1c0.1,0,0.1,0,0.1,0c0.1,0.1,0.2,0.8-0.2,1.7c-0.4,0.8-1,1.2-1.2,1.2
					c-0.3,0-0.6,0.2-0.7,0.5c-1.8,5-5,8.3-8.3,8.3c-3.3,0-6.5-3.3-8.3-8.3c-0.1-0.3-0.4-0.5-0.7-0.5c-0.3,0-0.8-0.4-1.2-1.2
					c-0.5-1-0.3-1.6-0.2-1.7c0,0,0.1,0,0.1,0c0.2,0.1,0.5,0,0.7-0.1c0.2-0.2,0.3-0.4,0.3-0.7C94.3,18.7,94.2,17.9,94.2,17.1z
					 M100,34.8v-2.3l0,0c1.2,0.7,2.5,1.1,3.8,1.1c1.3,0,2.6-0.4,3.8-1.1l0,0v2.3l-3.8,2.1L100,34.8z M108.6,35.9
					c0.2-0.1,0.4-0.4,0.4-0.7v-1.5l2.4,2.4l-4.1,5l-2.4-3.2L108.6,35.9z M103.8,50.1c-7.9,0-14.9-3.8-19.4-9.7L94.8,37l4.8,5.9
					c0.1,0.2,0.4,0.3,0.6,0.3c0.2,0,0.4-0.1,0.6-0.3l2.9-3.8l2.9,3.8c0.1,0.2,0.4,0.3,0.6,0.3c0,0,0,0,0,0c0.2,0,0.4-0.1,0.6-0.3
					l4.8-5.9l10.4,3.4C118.7,46.3,111.6,50.1,103.8,50.1z"/>
				<path fill="#231F20" d="M25.8,0.1C11.6,0.1,0,11.6,0,25.8s11.6,25.8,25.8,25.8c14.2,0,25.7-11.6,25.7-25.8S39.9,0.1,25.8,0.1z
					 M25.8,1.6C39.1,1.6,50,12.4,50,25.8c0,4.9-1.5,9.5-4,13.3l-11.2-3.7l-3-3c-0.1-0.1-0.3-0.2-0.5-0.2H31v-0.9
					c1.8-1.6,3.3-3.8,4.3-6.7c0.7-0.3,1.5-1,2-1.9c0.8-1.6,0.6-3.2-0.4-3.7c-0.1,0-0.1-0.1-0.2-0.1c0.1-0.7,0.1-1.3,0.1-1.9
					c0-7.1-4-11.2-11-11.2c-7,0-11,4.1-11,11.2c0,0.6,0,1.3,0.1,1.9c-0.1,0-0.1,0.1-0.2,0.1c-0.6,0.3-0.9,0.9-0.9,1.7
					c0,0.6,0.2,1.4,0.5,2.1c0.5,1,1.2,1.7,2,1.9c1.1,2.8,2.6,5.1,4.3,6.7v0.9h-0.3c-0.2,0-0.4,0.1-0.5,0.2l-3,3L5.5,39.1
					c-2.5-3.8-4-8.4-4-13.3C1.5,12.4,12.4,1.6,25.8,1.6z M20.9,35.9l3.8,2.1l-2.4,3.2l-4.1-5l2.4-2.4v1.5
					C20.5,35.5,20.6,35.8,20.9,35.9z M16.2,17.1c0-8,5.2-9.7,9.5-9.7c4.3,0,9.5,1.7,9.5,9.7c0,0.8-0.1,1.7-0.2,2.6
					c0,0.3,0.1,0.5,0.3,0.7c0.2,0.2,0.5,0.2,0.7,0.1c0.1,0,0.1,0,0.1,0c0.1,0.1,0.2,0.8-0.2,1.7c-0.4,0.8-1,1.2-1.2,1.2
					c-0.3,0-0.6,0.2-0.7,0.5c-1.8,5-5,8.3-8.3,8.3c-3.3,0-6.5-3.3-8.3-8.3c-0.1-0.3-0.4-0.5-0.7-0.5c-0.3,0-0.8-0.4-1.2-1.2
					c-0.5-1-0.3-1.6-0.2-1.7c0,0,0.1,0,0.1,0c0.2,0.1,0.5,0,0.7-0.1c0.2-0.2,0.3-0.4,0.3-0.7C16.3,18.7,16.2,17.9,16.2,17.1z
					 M22,34.8v-2.3l0,0c1.2,0.7,2.5,1.1,3.8,1.1c1.3,0,2.6-0.4,3.8-1.1l0,0v2.3l-3.8,2.1L22,34.8z M30.6,35.9
					c0.2-0.1,0.4-0.4,0.4-0.7v-1.5l2.4,2.4l-4.1,5L26.9,38L30.6,35.9z M25.8,50.1c-7.9,0-14.9-3.8-19.4-9.7L16.8,37l4.8,5.9
					c0.1,0.2,0.4,0.3,0.6,0.3c0.2,0,0.4-0.1,0.6-0.3l2.9-3.8l2.9,3.8c0.1,0.2,0.4,0.3,0.6,0.3c0,0,0,0,0,0c0.2,0,0.4-0.1,0.6-0.3
					l4.8-5.9l10.4,3.4C40.7,46.3,33.6,50.1,25.8,50.1z"/>
			</g>
			<g>
				<path fill="#231F20" d="M103.8,77.9C89.6,77.9,78,89.5,78,103.7s11.6,25.8,25.8,25.8c14.2,0,25.8-11.6,25.8-25.8
					S117.9,77.9,103.8,77.9z M103.8,79.4c13.4,0,24.3,10.9,24.3,24.3c0,4.9-1.5,9.5-4,13.3l-11.2-3.7l-3-3c-0.1-0.1-0.3-0.2-0.5-0.2
					H109v-0.9c1.8-1.6,3.3-3.8,4.3-6.7c0.7-0.3,1.5-1,2-1.9c0.8-1.6,0.6-3.2-0.4-3.7c-0.1,0-0.1-0.1-0.2-0.1
					c0.1-0.7,0.1-1.3,0.1-1.9c0-7.1-4-11.2-11-11.2c-7,0-11,4.1-11,11.2c0,0.6,0,1.3,0.1,1.9c-0.1,0-0.1,0.1-0.2,0.1
					c-0.6,0.3-0.9,0.9-0.9,1.7c0,0.6,0.2,1.4,0.5,2.1c0.5,1,1.2,1.7,2,1.9c1.1,2.8,2.6,5.1,4.3,6.7v0.9h-0.3c-0.2,0-0.4,0.1-0.5,0.2
					l-3,3L83.5,117c-2.5-3.8-4-8.4-4-13.3C79.5,90.3,90.4,79.4,103.8,79.4z M98.9,113.8l3.8,2.1l-2.4,3.2l-4.1-5l2.4-2.4v1.5
					C98.5,113.4,98.6,113.7,98.9,113.8z M94.2,94.9c0-8,5.2-9.7,9.5-9.7c4.3,0,9.5,1.7,9.5,9.7c0,0.8-0.1,1.7-0.2,2.6
					c0,0.3,0.1,0.5,0.3,0.7c0.2,0.2,0.5,0.2,0.7,0.1c0.1,0,0.1,0,0.1,0c0.1,0.1,0.2,0.8-0.2,1.7c-0.4,0.8-1,1.2-1.2,1.2
					c-0.3,0-0.6,0.2-0.7,0.5c-1.8,5-5,8.3-8.3,8.3c-3.3,0-6.5-3.3-8.3-8.3c-0.1-0.3-0.4-0.5-0.7-0.5c-0.3,0-0.8-0.4-1.2-1.2
					c-0.5-1-0.3-1.6-0.2-1.7c0,0,0.1,0,0.1,0c0.2,0.1,0.5,0,0.7-0.1c0.2-0.2,0.3-0.4,0.3-0.7C94.3,96.6,94.2,95.8,94.2,94.9z
					 M100,112.7v-2.3l0,0c1.2,0.7,2.5,1.1,3.8,1.1c1.3,0,2.6-0.4,3.8-1.1l0,0v2.3l-3.8,2.1L100,112.7z M108.6,113.8
					c0.2-0.1,0.4-0.4,0.4-0.7v-1.5l2.4,2.4l-4.1,5l-2.4-3.2L108.6,113.8z M103.8,127.9c-7.9,0-14.9-3.8-19.4-9.7l10.4-3.4l4.8,5.9
					c0.1,0.2,0.4,0.3,0.6,0.3c0.2,0,0.4-0.1,0.6-0.3l2.9-3.8l2.9,3.8c0.1,0.2,0.4,0.3,0.6,0.3c0,0,0,0,0,0c0.2,0,0.4-0.1,0.6-0.3
					l4.8-5.9l10.4,3.4C118.7,124.2,111.6,127.9,103.8,127.9z"/>
				<path fill="#231F20" d="M25.8,77.9C11.6,77.9,0,89.5,0,103.7s11.6,25.8,25.8,25.8c14.2,0,25.7-11.6,25.7-25.8
					S39.9,77.9,25.8,77.9z M25.8,79.4c13.4,0,24.2,10.9,24.2,24.3c0,4.9-1.5,9.5-4,13.3l-11.2-3.7l-3-3c-0.1-0.1-0.3-0.2-0.5-0.2H31
					v-0.9c1.8-1.6,3.3-3.8,4.3-6.7c0.7-0.3,1.5-1,2-1.9c0.8-1.6,0.6-3.2-0.4-3.7c-0.1,0-0.1-0.1-0.2-0.1c0.1-0.7,0.1-1.3,0.1-1.9
					c0-7.1-4-11.2-11-11.2c-7,0-11,4.1-11,11.2c0,0.6,0,1.3,0.1,1.9c-0.1,0-0.1,0.1-0.2,0.1c-0.6,0.3-0.9,0.9-0.9,1.7
					c0,0.6,0.2,1.4,0.5,2.1c0.5,1,1.2,1.7,2,1.9c1.1,2.8,2.6,5.1,4.3,6.7v0.9h-0.3c-0.2,0-0.4,0.1-0.5,0.2l-3,3L5.5,117
					c-2.5-3.8-4-8.4-4-13.3C1.5,90.3,12.4,79.4,25.8,79.4z M20.9,113.8l3.8,2.1l-2.4,3.2l-4.1-5l2.4-2.4v1.5
					C20.5,113.4,20.6,113.7,20.9,113.8z M16.2,94.9c0-8,5.2-9.7,9.5-9.7c4.3,0,9.5,1.7,9.5,9.7c0,0.8-0.1,1.7-0.2,2.6
					c0,0.3,0.1,0.5,0.3,0.7c0.2,0.2,0.5,0.2,0.7,0.1c0.1,0,0.1,0,0.1,0c0.1,0.1,0.2,0.8-0.2,1.7c-0.4,0.8-1,1.2-1.2,1.2
					c-0.3,0-0.6,0.2-0.7,0.5c-1.8,5-5,8.3-8.3,8.3c-3.3,0-6.5-3.3-8.3-8.3c-0.1-0.3-0.4-0.5-0.7-0.5c-0.3,0-0.8-0.4-1.2-1.2
					c-0.5-1-0.3-1.6-0.2-1.7c0,0,0.1,0,0.1,0c0.2,0.1,0.5,0,0.7-0.1c0.2-0.2,0.3-0.4,0.3-0.7C16.3,96.6,16.2,95.8,16.2,94.9z
					 M22,112.7v-2.3l0,0c1.2,0.7,2.5,1.1,3.8,1.1c1.3,0,2.6-0.4,3.8-1.1l0,0v2.3l-3.8,2.1L22,112.7z M30.6,113.8
					c0.2-0.1,0.4-0.4,0.4-0.7v-1.5l2.4,2.4l-4.1,5l-2.4-3.2L30.6,113.8z M25.8,127.9c-7.9,0-14.9-3.8-19.4-9.7l10.4-3.4l4.8,5.9
					c0.1,0.2,0.4,0.3,0.6,0.3c0.2,0,0.4-0.1,0.6-0.3l2.9-3.8l2.9,3.8c0.1,0.2,0.4,0.3,0.6,0.3c0,0,0,0,0,0c0.2,0,0.4-0.1,0.6-0.3
					l4.8-5.9l10.4,3.4C40.7,124.2,33.6,127.9,25.8,127.9z"/>
			</g>
		</g>
		<path fill="#231F20" d="M72.9,6.6c-0.2,0-0.4-0.1-0.5-0.2c-0.3-0.3-0.3-0.8,0-1.1L73.7,4c0.3-0.3,0.8-0.3,1.1,0
			c0.3,0.3,0.3,0.8,0,1.1l-1.3,1.3C73.3,6.5,73.1,6.6,72.9,6.6z"/>
		<path fill="#231F20" d="M68.9,10.6c-0.2,0-0.4-0.1-0.5-0.2c-0.3-0.3-0.3-0.8,0-1.1L69.7,8c0.3-0.3,0.8-0.3,1.1,0
			c0.3,0.3,0.3,0.8,0,1.1l-1.3,1.3C69.3,10.5,69.1,10.6,68.9,10.6z"/>
		<path fill="#231F20" d="M74.2,10.6c-0.2,0-0.4-0.1-0.5-0.2l-1.3-1.3c-0.3-0.3-0.3-0.8,0-1.1c0.3-0.3,0.8-0.3,1.1,0l1.3,1.3
			c0.3,0.3,0.3,0.8,0,1.1C74.6,10.5,74.4,10.6,74.2,10.6z"/>
		<path fill="#231F20" d="M70.2,6.6c-0.2,0-0.4-0.1-0.5-0.2l-1.3-1.3c-0.3-0.3-0.3-0.8,0-1.1c0.3-0.3,0.8-0.3,1.1,0l1.3,1.3
			c0.3,0.3,0.3,0.8,0,1.1C70.6,6.5,70.4,6.6,70.2,6.6z"/>
		<path fill="#231F20" d="M80.1,55.4c-0.2,0-0.4-0.1-0.5-0.2c-0.3-0.3-0.3-0.8,0-1.1l1.3-1.3c0.3-0.3,0.8-0.3,1.1,0
			c0.3,0.3,0.3,0.8,0,1.1l-1.3,1.3C80.5,55.3,80.3,55.4,80.1,55.4z"/>
		<path fill="#231F20" d="M76.1,59.4c-0.2,0-0.4-0.1-0.5-0.2c-0.3-0.3-0.3-0.8,0-1.1l1.3-1.3c0.3-0.3,0.8-0.3,1.1,0
			c0.3,0.3,0.3,0.8,0,1.1l-1.3,1.3C76.5,59.3,76.3,59.4,76.1,59.4z"/>
		<path fill="#231F20" d="M81.4,59.4c-0.2,0-0.4-0.1-0.5-0.2l-1.3-1.3c-0.3-0.3-0.3-0.8,0-1.1c0.3-0.3,0.8-0.3,1.1,0l1.3,1.3
			c0.3,0.3,0.3,0.8,0,1.1C81.8,59.3,81.6,59.4,81.4,59.4z"/>
		<path fill="#231F20" d="M77.4,55.4c-0.2,0-0.4-0.1-0.5-0.2l-1.3-1.3c-0.3-0.3-0.3-0.8,0-1.1c0.3-0.3,0.8-0.3,1.1,0l1.3,1.3
			c0.3,0.3,0.3,0.8,0,1.1C77.8,55.3,77.6,55.4,77.4,55.4z"/>
		<path fill="#231F20" d="M8.8,72.8c-0.2,0-0.4-0.1-0.5-0.2c-0.3-0.3-0.3-0.8,0-1.1l1.3-1.3c0.3-0.3,0.8-0.3,1.1,0
			c0.3,0.3,0.3,0.8,0,1.1l-1.3,1.3C9.2,72.7,9,72.8,8.8,72.8z"/>
		<path fill="#231F20" d="M4.8,76.8c-0.2,0-0.4-0.1-0.5-0.2c-0.3-0.3-0.3-0.8,0-1.1l1.3-1.3c0.3-0.3,0.8-0.3,1.1,0
			c0.3,0.3,0.3,0.8,0,1.1l-1.3,1.3C5.1,76.7,5,76.8,4.8,76.8z"/>
		<path fill="#231F20" d="M10.1,76.8c-0.2,0-0.4-0.1-0.5-0.2l-1.3-1.3C8,75,8,74.5,8.3,74.2c0.3-0.3,0.8-0.3,1.1,0l1.3,1.3
			c0.3,0.3,0.3,0.8,0,1.1C10.5,76.7,10.3,76.8,10.1,76.8z"/>
		<path fill="#231F20" d="M6,72.8c-0.2,0-0.4-0.1-0.5-0.2l-1.3-1.3c-0.3-0.3-0.3-0.8,0-1.1c0.3-0.3,0.8-0.3,1.1,0l1.3,1.3
			c0.3,0.3,0.3,0.8,0,1.1C6.4,72.7,6.2,72.8,6,72.8z"/>
		<g>
			<rect x="66.5" y="20.4" fill="#231F20" width="1" height="1.5"/>
			<rect x="63.5" y="20.4" fill="#231F20" width="1" height="1.5"/>
			<rect x="60.5" y="20.4" fill="#231F20" width="1" height="1.5"/>
			<rect x="54.5" y="20.4" fill="#231F20" width="1" height="1.5"/>
			<rect x="57.5" y="20.4" fill="#231F20" width="1" height="1.5"/>
			<path fill="#231F20" d="M75.3,20.8l-3.1-3.1l-0.7,0.7l2.2,2.2h-5.6v1h5.6l-2.2,2.2l0.7,0.7l3.1-3.1C75.5,21.3,75.5,21,75.3,20.8z
				"/>
			<rect x="62" y="29.5" fill="#231F20" width="1" height="1.5"/>
			<rect x="65" y="29.5" fill="#231F20" width="1" height="1.5"/>
			<rect x="71" y="29.5" fill="#231F20" width="1" height="1.5"/>
			<rect x="74" y="29.5" fill="#231F20" width="1" height="1.5"/>
			<rect x="68" y="29.5" fill="#231F20" width="1" height="1.5"/>
			<path fill="#231F20" d="M58,27.5l-0.7-0.7l-3.1,3.1c-0.2,0.2-0.2,0.5,0,0.7l3.1,3.1L58,33l-2.2-2.2l5.6,0v-1l-5.6,0L58,27.5z"/>
		</g>
		<g>
			<rect x="57.5" y="98.4" fill="#231F20" width="1" height="1.5"/>
			<rect x="60.5" y="98.4" fill="#231F20" width="1" height="1.5"/>
			<rect x="54.5" y="98.4" fill="#231F20" width="1" height="1.5"/>
			<rect x="66.5" y="98.4" fill="#231F20" width="1" height="1.5"/>
			<rect x="63.5" y="98.4" fill="#231F20" width="1" height="1.5"/>
			<path fill="#231F20" d="M75.3,98.8l-3.1-3.1l-0.7,0.7l2.2,2.2h-5.6v1h5.6l-2.2,2.2l0.7,0.7l3.1-3.1C75.5,99.3,75.5,99,75.3,98.8z
				"/>
		</g>
		<g>
			<rect x="65" y="107.5" fill="#231F20" width="1" height="1.5"/>
			<rect x="68" y="107.5" fill="#231F20" width="1" height="1.5"/>
			<rect x="62" y="107.5" fill="#231F20" width="1" height="1.5"/>
			<rect x="74" y="107.5" fill="#231F20" width="1" height="1.5"/>
			<rect x="71" y="107.5" fill="#231F20" width="1" height="1.5"/>
			<path fill="#231F20" d="M58,105.5l-0.7-0.7l-3.1,3.1c-0.2,0.2-0.2,0.5,0,0.7l3.1,3.1L58,111l-2.2-2.2l5.6,0v-1l-5.6,0L58,105.5z"
				/>
		</g>
		<g>
			<rect x="107.5" y="60.5" fill="#231F20" width="1.5" height="1"/>
			<rect x="107.5" y="66.5" fill="#231F20" width="1.5" height="1"/>
			<rect x="107.5" y="57.5" fill="#231F20" width="1.5" height="1"/>
			<rect x="107.5" y="54.5" fill="#231F20" width="1.5" height="1"/>
			<rect x="107.5" y="63.5" fill="#231F20" width="1.5" height="1"/>
			<path fill="#231F20" d="M111,71.5l-2.2,2.2v-5.6h-1v5.6l-2.3-2.2l-0.7,0.7l3.1,3.1c0.1,0.1,0.2,0.1,0.4,0.1c0.1,0,0.3,0,0.4-0.1
				l3.1-3.1L111,71.5z"/>
			<rect x="98.5" y="70.9" fill="#231F20" width="1.5" height="1"/>
			<rect x="98.5" y="64.9" fill="#231F20" width="1.5" height="1"/>
			<rect x="98.5" y="61.9" fill="#231F20" width="1.5" height="1"/>
			<rect x="98.5" y="67.9" fill="#231F20" width="1.5" height="1"/>
			<rect x="98.5" y="73.9" fill="#231F20" width="1.5" height="1"/>
			<path fill="#231F20" d="M98.9,54.1l-3.1,3.1l0.7,0.7l2.2-2.2v5.6h1v-5.6l2.2,2.2l0.7-0.7l-3.1-3.1C99.4,53.9,99,53.9,98.9,54.1z"
				/>
		</g>
		<g>
			<rect x="29.5" y="60.5" fill="#231F20" width="1.5" height="1"/>
			<rect x="29.5" y="63.5" fill="#231F20" width="1.5" height="1"/>
			<rect x="29.5" y="66.5" fill="#231F20" width="1.5" height="1"/>
			<rect x="29.5" y="54.5" fill="#231F20" width="1.5" height="1"/>
			<rect x="29.5" y="57.5" fill="#231F20" width="1.5" height="1"/>
			<path fill="#231F20" d="M33,71.5l-2.2,2.2v-5.6h-1v5.6l-2.3-2.2l-0.7,0.7l3.1,3.1c0.1,0.1,0.2,0.1,0.4,0.1c0.1,0,0.3,0,0.4-0.1
				l3.1-3.1L33,71.5z"/>
			<rect x="20.5" y="70.9" fill="#231F20" width="1.5" height="1"/>
			<rect x="20.5" y="73.9" fill="#231F20" width="1.5" height="1"/>
			<rect x="20.5" y="64.9" fill="#231F20" width="1.5" height="1"/>
			<rect x="20.5" y="61.9" fill="#231F20" width="1.5" height="1"/>
			<rect x="20.5" y="67.9" fill="#231F20" width="1.5" height="1"/>
			<path fill="#231F20" d="M20.9,54.1l-3.1,3.1l0.7,0.7l2.2-2.2v5.6h1v-5.6l2.2,2.2l0.7-0.7l-3.1-3.1C21.4,53.9,21,53.9,20.9,54.1z"
				/>
		</g>
		<path fill="#231F20" d="M57.7,51.2c-2,0-3.6-1.6-3.6-3.6c0-2,1.6-3.6,3.6-3.6c2,0,3.6,1.6,3.6,3.6C61.3,49.6,59.7,51.2,57.7,51.2z
			 M57.7,44.9c-1.5,0-2.6,1.2-2.6,2.6c0,1.5,1.2,2.6,2.6,2.6c1.5,0,2.6-1.2,2.6-2.6C60.3,46.1,59.1,44.9,57.7,44.9z"/>
	</g>
</g>
</svg>
