<?xml version="1.0" encoding="UTF-8" standalone="no"?>
<!-- Created with Inkscape (http://www.inkscape.org/) -->

<svg
   xmlns:dc="http://purl.org/dc/elements/1.1/"
   xmlns:cc="http://creativecommons.org/ns#"
   xmlns:rdf="http://www.w3.org/1999/02/22-rdf-syntax-ns#"
   xmlns:svg="http://www.w3.org/2000/svg"
   xmlns="http://www.w3.org/2000/svg"
   xmlns:sodipodi="http://sodipodi.sourceforge.net/DTD/sodipodi-0.dtd"
   xmlns:inkscape="http://www.inkscape.org/namespaces/inkscape"
   width="46mm"
   height="46mm"
   viewBox="0 0 46 46"
   version="1.1"
   id="svg69052"
   inkscape:version="0.92.3 (2405546, 2018-03-11)"
   sodipodi:docname="Adaptability.svg">
  <defs
     id="defs69046">
    <clipPath
       clipPathUnits="userSpaceOnUse"
       id="clipPath23530">
      <path
         d="M 0,13509.354 H 1152.441 V 0 H 0 Z"
         id="path23528"
         inkscape:connector-curvature="0" />
    </clipPath>
    <clipPath
       clipPathUnits="userSpaceOnUse"
       id="clipPath6928">
      <path
         d="M 0,13509.354 H 1152.441 V 0 H 0 Z"
         id="path6926"
         inkscape:connector-curvature="0" />
    </clipPath>
  </defs>
  <sodipodi:namedview
     id="base"
     pagecolor="#ffffff"
     bordercolor="#666666"
     borderopacity="1.0"
     inkscape:pageopacity="0.0"
     inkscape:pageshadow="2"
     inkscape:zoom="1.979899"
     inkscape:cx="43.275873"
     inkscape:cy="110.20252"
     inkscape:document-units="mm"
     inkscape:current-layer="layer1"
     showgrid="false"
     inkscape:window-width="1920"
     inkscape:window-height="1001"
     inkscape:window-x="-9"
     inkscape:window-y="-9"
     inkscape:window-maximized="1" />
  <metadata
     id="metadata69049">
    <rdf:RDF>
      <cc:Work
         rdf:about="">
        <dc:format>image/svg+xml</dc:format>
        <dc:type
           rdf:resource="http://purl.org/dc/dcmitype/StillImage" />
        <dc:title></dc:title>
      </cc:Work>
    </rdf:RDF>
  </metadata>
  <g
     inkscape:label="Layer 1"
     inkscape:groupmode="layer"
     id="layer1"
     transform="translate(0,-251)">
    <g
       transform="matrix(0.34772295,0,0,-0.35545179,-179.40056,963.90161)"
       id="g6922">
      <g
         id="g6924"
         clip-path="url(#clipPath6928)">
        <g
           id="g6930"
           transform="translate(644.6506,1940.8715)">
          <path
             d="M 0,0 V -0.03 C -0.017,-35.247 -28.58,-64 -64,-64 c -35.262,0 -64,28.578 -64,64 0,35.413 28.704,64 64,64 C -28.654,64 0,35.339 0,0"
             style="fill:#f2f2f2;fill-opacity:1;fill-rule:nonzero;stroke:none"
             id="path6932"
             inkscape:connector-curvature="0" />
        </g>
        <g
           id="g6934"
           transform="translate(647.5019,1938.9609)">
          <path
             d="m 0,0 v -24.91 c 0,-1.63 -1.32,-2.95 -2.95,-2.95 h -4.04 v -10.57 l -10.57,10.57 h -22.4 c -1.63,0 -2.95,1.32 -2.95,2.95 V 0 c 0,1.62 1.32,2.94 2.95,2.94 H -2.95 C -1.32,2.94 0,1.62 0,0"
             style="fill:#464e58;fill-opacity:1;fill-rule:nonzero;stroke:none"
             id="path6936"
             inkscape:connector-curvature="0" />
        </g>
        <g
           id="g6938"
           transform="translate(565.4775,1994.1451)">
          <path
             d="m 0,0 v -24.911 c 0,-1.623 -1.323,-2.946 -2.946,-2.946 h -24.353 l 2.476,-11.373 -12.878,11.373 h -2.259 c -1.632,0 -2.955,1.323 -2.955,2.946 V 0 c 0,1.623 1.323,2.946 2.955,2.946 H -2.946 C -1.323,2.946 0,1.623 0,0"
             style="fill:#7ccedc;fill-opacity:1;fill-rule:nonzero;stroke:none"
             id="path6940"
             inkscape:connector-curvature="0" />
        </g>
        <g
           id="g6942"
           transform="translate(536.1727,1981.6893)">
          <path
             d="m 0,0 c 0,-1.646 -1.335,-2.981 -2.981,-2.981 -1.646,0 -2.981,1.335 -2.981,2.981 0,1.646 1.335,2.981 2.981,2.981 C -1.335,2.981 0,1.646 0,0"
             style="fill:#ffffff;fill-opacity:1;fill-rule:nonzero;stroke:none"
             id="path6944"
             inkscape:connector-curvature="0" />
        </g>
        <g
           id="g6946"
           transform="translate(547.0006,1981.6893)">
          <path
             d="m 0,0 c 0,-1.646 -1.335,-2.981 -2.981,-2.981 -1.646,0 -2.98,1.335 -2.98,2.981 0,1.646 1.334,2.981 2.98,2.981 C -1.335,2.981 0,1.646 0,0"
             style="fill:#ffffff;fill-opacity:1;fill-rule:nonzero;stroke:none"
             id="path6948"
             inkscape:connector-curvature="0" />
        </g>
        <g
           id="g6950"
           transform="translate(557.8286,1981.6893)">
          <path
             d="m 0,0 c 0,-1.646 -1.335,-2.981 -2.981,-2.981 -1.646,0 -2.98,1.335 -2.98,2.981 0,1.646 1.334,2.981 2.98,2.981 C -1.335,2.981 0,1.646 0,0"
             style="fill:#ffffff;fill-opacity:1;fill-rule:nonzero;stroke:none"
             id="path6952"
             inkscape:connector-curvature="0" />
        </g>
        <g
           id="g6954"
           transform="translate(618.1997,1926.501)">
          <path
             d="m 0,0 c 0,-1.646 -1.335,-2.981 -2.981,-2.981 -1.646,0 -2.98,1.335 -2.98,2.981 0,1.646 1.334,2.981 2.98,2.981 C -1.335,2.981 0,1.646 0,0"
             style="fill:#ffffff;fill-opacity:1;fill-rule:nonzero;stroke:none"
             id="path6956"
             inkscape:connector-curvature="0" />
        </g>
        <g
           id="g6958"
           transform="translate(629.0277,1926.501)">
          <path
             d="m 0,0 c 0,-1.646 -1.335,-2.981 -2.981,-2.981 -1.646,0 -2.981,1.335 -2.981,2.981 0,1.646 1.335,2.981 2.981,2.981 C -1.335,2.981 0,1.646 0,0"
             style="fill:#ffffff;fill-opacity:1;fill-rule:nonzero;stroke:none"
             id="path6960"
             inkscape:connector-curvature="0" />
        </g>
        <g
           id="g6962"
           transform="translate(639.8557,1926.501)">
          <path
             d="m 0,0 c 0,-1.646 -1.335,-2.981 -2.981,-2.981 -1.646,0 -2.981,1.335 -2.981,2.981 0,1.646 1.335,2.981 2.981,2.981 C -1.335,2.981 0,1.646 0,0"
             style="fill:#ffffff;fill-opacity:1;fill-rule:nonzero;stroke:none"
             id="path6964"
             inkscape:connector-curvature="0" />
        </g>
        <g
           id="g6966"
           transform="translate(620.2607,1890.6115)">
          <path
             d="m 0,0 c -15.76,-12.516 -36.656,-16.731 -55.95,-11.63 v 25.47 h -13.41 l -1.52,15.18 h -9.05 l 6.93,21.26 -0.83,8.37 c -2.37,21.73 14.67,40.71 36.52,40.71 23.706,0 41.459,-21.971 35.13,-46.05 L -9.97,20.75 Z"
             style="fill:#f37c5a;fill-opacity:1;fill-rule:nonzero;stroke:none"
             id="path6968"
             inkscape:connector-curvature="0" />
        </g>
        <g
           id="g6970"
           transform="translate(610.2706,1953.1044)">
          <path
             d="m 0,0 c 0,-15.18 -12.242,-27.485 -27.344,-27.485 -15.101,0 -27.343,12.305 -27.343,27.485 0,15.18 12.242,27.485 27.343,27.485 C -12.242,27.485 0,15.18 0,0"
             style="fill:#f2f2f2;fill-opacity:1;fill-rule:nonzero;stroke:none"
             id="path6972"
             inkscape:connector-curvature="0" />
        </g>
        <g
           id="g6974"
           transform="translate(568.3596,1967.6655)">
          <path
             d="m 0,0 -1.061,1.061 c 6.89,6.889 17.663,8.502 26.199,3.92 L 24.43,3.66 C 16.471,7.931 6.425,6.425 0,0"
             style="fill:#464e58;fill-opacity:1;fill-rule:nonzero;stroke:none"
             id="path6976"
             inkscape:connector-curvature="0" />
        </g>
        <g
           id="g6978"
           transform="translate(563.3857,1942.5334)">
          <path
             d="M 0,0 C -0.165,0.306 -0.321,0.615 -0.47,0.927 L 0.884,1.573 C 1.023,1.282 1.168,0.995 1.32,0.71 Z"
             style="fill:#464e58;fill-opacity:1;fill-rule:nonzero;stroke:none"
             id="path6980"
             inkscape:connector-curvature="0" />
        </g>
        <g
           id="g6982"
           transform="translate(564.1377,1964.7515)">
          <path
             d="M 0,0 C 0.352,0.565 0.737,1.125 1.146,1.666 L 2.342,0.76 C 1.96,0.256 1.601,-0.266 1.273,-0.793 Z m -1.815,-3.605 c 0.245,0.623 0.522,1.243 0.825,1.844 l 1.339,-0.674 c -0.281,-0.56 -0.54,-1.139 -0.769,-1.719 z m -1.131,-3.874 c 0.128,0.657 0.288,1.317 0.477,1.962 l 1.439,-0.42 c -0.175,-0.602 -0.325,-1.217 -0.446,-1.831 z m -0.416,-4.016 c 0.009,0.673 0.047,1.351 0.117,2.017 l 1.491,-0.155 c -0.064,-0.62 -0.1,-1.253 -0.108,-1.882 z m 0.315,-4.028 c -0.113,0.663 -0.196,1.337 -0.249,2.006 L -1.8,-13.4 c 0.048,-0.624 0.126,-1.253 0.232,-1.87 z m 1.04,-3.902 c -0.232,0.629 -0.435,1.277 -0.609,1.926 l 1.45,0.387 c 0.161,-0.606 0.352,-1.21 0.567,-1.797 z"
             style="fill:#464e58;fill-opacity:1;fill-rule:nonzero;stroke:none"
             id="path6984"
             inkscape:connector-curvature="0" />
        </g>
        <g
           id="g6986"
           transform="translate(566.585,1967.979)">
          <path
             d="m 0,0 c 0.231,0.253 0.47,0.503 0.714,0.747 l 1.061,-1.06 C 1.545,-0.543 1.323,-0.776 1.106,-1.012 Z"
             style="fill:#464e58;fill-opacity:1;fill-rule:nonzero;stroke:none"
             id="path6988"
             inkscape:connector-curvature="0" />
        </g>
        <g
           id="g6990"
           transform="translate(601.9741,1961.2303)">
          <path
             d="M 0,0 C -0.246,0.587 -0.525,1.171 -0.829,1.74 L 0.492,2.448 C 0.82,1.839 1.119,1.211 1.384,0.58 Z m 1.15,-3.677 c -0.132,0.624 -0.296,1.25 -0.488,1.864 l 1.432,0.448 c 0.205,-0.658 0.382,-1.332 0.524,-2.001 z m 0.447,-3.831 c -0.015,0.641 -0.06,1.289 -0.134,1.925 l 1.49,0.173 C 3.032,-6.093 3.081,-6.786 3.097,-7.472 Z M 1.33,-11.352 c 0.103,0.629 0.177,1.274 0.222,1.915 L 3.049,-9.542 C 3.001,-10.228 2.92,-10.919 2.81,-11.595 Z m -0.971,-3.729 c 0.218,0.601 0.41,1.221 0.572,1.842 l 1.451,-0.38 c -0.173,-0.665 -0.379,-1.328 -0.613,-1.972 z m -1.643,-3.483 c 0.323,0.547 0.628,1.12 0.903,1.703 l 1.356,-0.641 C 0.68,-18.127 0.354,-18.741 0.006,-19.329 Z m -2.265,-3.125 c 0.426,0.488 0.832,0.996 1.205,1.51 l 1.214,-0.882 c -0.4,-0.551 -0.834,-1.094 -1.29,-1.615 z"
             style="fill:#464e58;fill-opacity:1;fill-rule:nonzero;stroke:none"
             id="path6992"
             inkscape:connector-curvature="0" />
        </g>
        <g
           id="g6994"
           transform="translate(572.3537,1933.5656)">
          <path
             d="M 0,0 0.708,1.322 C 8.667,-2.949 18.71,-1.447 25.131,4.975 L 26.192,3.914 C 19.307,-2.971 8.536,-4.581 0,0"
             style="fill:#464e58;fill-opacity:1;fill-rule:nonzero;stroke:none"
             id="path6996"
             inkscape:connector-curvature="0" />
        </g>
        <g
           id="g6998"
           transform="translate(597.413,1953.1044)">
          <path
             d="m 0,0 c 0,-8.042 -6.486,-14.561 -14.486,-14.561 -8.001,0 -14.486,6.519 -14.486,14.561 0,8.042 6.485,14.561 14.486,14.561 C -6.486,14.561 0,8.042 0,0"
             style="fill:#fdda7f;fill-opacity:1;fill-rule:nonzero;stroke:none"
             id="path7000"
             inkscape:connector-curvature="0" />
        </g>
        <g
           id="g7002"
           transform="translate(582.978,1943.8894)" />
      </g>
    </g>
  </g>
</svg>
