<?xml version="1.0" encoding="utf-8"?>
<!-- Generator: Adobe Illustrator 18.0.0, SVG Export Plug-In . SVG Version: 6.00 Build 0)  -->
<!DOCTYPE svg PUBLIC "-//W3C//DTD SVG 1.1//EN" "http://www.w3.org/Graphics/SVG/1.1/DTD/svg11.dtd">
<svg version="1.1" id="Layer_1" xmlns="http://www.w3.org/2000/svg" xmlns:xlink="http://www.w3.org/1999/xlink" x="0px" y="0px"
	 viewBox="0 0 129.5 129.5" enable-background="new 0 0 129.5 129.5" xml:space="preserve">
<g>
	<g>
		<path fill="#231F20" d="M59.9,72.6c-0.2,0-0.4-0.1-0.5-0.2c-0.3-0.3-0.3-0.8,0-1.1l0.8-0.8c0.3-0.3,0.8-0.3,1.1,0
			c0.3,0.3,0.3,0.8,0,1.1l-0.8,0.8C60.3,72.5,60.1,72.6,59.9,72.6z"/>
		<path fill="#231F20" d="M57.3,75.2c-0.2,0-0.4-0.1-0.5-0.2c-0.3-0.3-0.3-0.8,0-1.1l0.8-0.8c0.3-0.3,0.8-0.3,1.1,0
			c0.3,0.3,0.3,0.8,0,1.1L57.8,75C57.7,75.1,57.5,75.2,57.3,75.2z"/>
		<path fill="#231F20" d="M60.7,75.2c-0.2,0-0.4-0.1-0.5-0.2l-0.8-0.8c-0.3-0.3-0.3-0.8,0-1.1c0.3-0.3,0.8-0.3,1.1,0l0.8,0.8
			c0.3,0.3,0.3,0.8,0,1.1C61.1,75.1,60.9,75.2,60.7,75.2z"/>
		<path fill="#231F20" d="M58.1,72.6c-0.2,0-0.4-0.1-0.5-0.2l-0.8-0.8c-0.3-0.3-0.3-0.8,0-1.1c0.3-0.3,0.8-0.3,1.1,0l0.8,0.8
			c0.3,0.3,0.3,0.8,0,1.1C58.5,72.5,58.3,72.6,58.1,72.6z"/>
		<circle fill="#CED5E0" cx="87.6" cy="82.5" r="1.9"/>
		<circle fill="#E6E9EE" cx="72.2" cy="74.5" r="1.4"/>
		<g>
			<path fill="#231F20" d="M8.8,107.7c-0.2,0-0.4-0.1-0.5-0.2c-0.3-0.3-0.3-0.8,0-1.1l1.3-1.3c0.3-0.3,0.8-0.3,1.1,0
				c0.3,0.3,0.3,0.8,0,1.1l-1.3,1.3C9.1,107.7,8.9,107.7,8.8,107.7z"/>
		</g>
		<g>
			<path fill="#231F20" d="M4.7,111.8c-0.2,0-0.4-0.1-0.5-0.2c-0.3-0.3-0.3-0.8,0-1.1l1.3-1.3c0.3-0.3,0.8-0.3,1.1,0
				c0.3,0.3,0.3,0.8,0,1.1l-1.3,1.3C5.1,111.7,4.9,111.8,4.7,111.8z"/>
		</g>
		<g>
			<path fill="#231F20" d="M10,111.8c-0.2,0-0.4-0.1-0.5-0.2l-1.3-1.3c-0.3-0.3-0.3-0.8,0-1.1c0.3-0.3,0.8-0.3,1.1,0l1.3,1.3
				c0.3,0.3,0.3,0.8,0,1.1C10.4,111.7,10.2,111.8,10,111.8z"/>
		</g>
		<g>
			<path fill="#231F20" d="M6,107.7c-0.2,0-0.4-0.1-0.5-0.2l-1.3-1.3c-0.3-0.3-0.3-0.8,0-1.1c0.3-0.3,0.8-0.3,1.1,0l1.3,1.3
				c0.3,0.3,0.3,0.8,0,1.1C6.4,107.7,6.2,107.7,6,107.7z"/>
		</g>
		<g>
			<path fill="#231F20" d="M120.4,7.1c-0.2,0-0.4-0.1-0.5-0.2c-0.3-0.3-0.3-0.8,0-1.1l1.3-1.3c0.3-0.3,0.8-0.3,1.1,0
				c0.3,0.3,0.3,0.8,0,1.1l-1.3,1.3C120.8,7,120.6,7.1,120.4,7.1z"/>
		</g>
		<g>
			<path fill="#231F20" d="M116.3,11.2c-0.2,0-0.4-0.1-0.5-0.2c-0.3-0.3-0.3-0.8,0-1.1l1.3-1.3c0.3-0.3,0.8-0.3,1.1,0
				c0.3,0.3,0.3,0.8,0,1.1l-1.3,1.3C116.7,11.1,116.5,11.2,116.3,11.2z"/>
		</g>
		<g>
			<path fill="#231F20" d="M121.7,11.2c-0.2,0-0.4-0.1-0.5-0.2l-1.3-1.3c-0.3-0.3-0.3-0.8,0-1.1c0.3-0.3,0.8-0.3,1.1,0l1.3,1.3
				c0.3,0.3,0.3,0.8,0,1.1C122.1,11.1,121.9,11.2,121.7,11.2z"/>
		</g>
		<g>
			<path fill="#231F20" d="M117.6,7.1c-0.2,0-0.4-0.1-0.5-0.2l-1.3-1.3c-0.3-0.3-0.3-0.8,0-1.1c0.3-0.3,0.8-0.3,1.1,0l1.3,1.3
				c0.3,0.3,0.3,0.8,0,1.1C118,7,117.8,7.1,117.6,7.1z"/>
		</g>
		<g>
			<path fill="#231F20" d="M92.2,35.3c-0.2,0-0.4-0.1-0.5-0.2c-0.3-0.3-0.3-0.8,0-1.1l1.3-1.3c0.3-0.3,0.8-0.3,1.1,0
				c0.3,0.3,0.3,0.8,0,1.1l-1.3,1.3C92.6,35.3,92.4,35.3,92.2,35.3z"/>
		</g>
		<g>
			<path fill="#231F20" d="M88.2,39.4c-0.2,0-0.4-0.1-0.5-0.2c-0.3-0.3-0.3-0.8,0-1.1l1.3-1.3c0.3-0.3,0.8-0.3,1.1,0
				c0.3,0.3,0.3,0.8,0,1.1l-1.3,1.3C88.6,39.3,88.4,39.4,88.2,39.4z"/>
		</g>
		<g>
			<path fill="#231F20" d="M93.5,39.4c-0.2,0-0.4-0.1-0.5-0.2l-1.3-1.3c-0.3-0.3-0.3-0.8,0-1.1c0.3-0.3,0.8-0.3,1.1,0l1.3,1.3
				c0.3,0.3,0.3,0.8,0,1.1C93.9,39.3,93.7,39.4,93.5,39.4z"/>
		</g>
		<g>
			<path fill="#231F20" d="M89.5,35.3c-0.2,0-0.4-0.1-0.5-0.2l-1.3-1.3c-0.3-0.3-0.3-0.8,0-1.1c0.3-0.3,0.8-0.3,1.1,0L90,34
				c0.3,0.3,0.3,0.8,0,1.1C89.8,35.3,89.7,35.3,89.5,35.3z"/>
		</g>
		<rect x="3.1" y="3.4" fill="#84DBFF" width="68.3" height="16.8"/>
		<rect x="7.4" y="22.5" fill="#FFFFFF" width="59.7" height="5.5"/>
		<rect x="7.4" y="49.4" fill="#FFFFFF" width="59.7" height="5.5"/>
		<rect x="0.8" y="28" fill="#FFFFFF" width="73" height="21.4"/>
		<rect x="3.1" y="30.3" fill="#FFD05B" width="68.3" height="16.8"/>
		<rect x="0.8" y="54.9" fill="#FFFFFF" width="73" height="21.4"/>
		<rect x="3.1" y="57.2" fill="#CED5E0" width="68.3" height="16.8"/>
		<circle fill="#FFFFFF" cx="65.8" cy="11.5" r="2.7"/>
		<path fill="#231F20" d="M65.8,14.9c-1.9,0-3.5-1.6-3.5-3.5S63.8,8,65.8,8c1.9,0,3.5,1.6,3.5,3.5S67.7,14.9,65.8,14.9z M65.8,9.5
			c-1.1,0-2,0.9-2,2c0,1.1,0.9,2,2,2c1.1,0,2-0.9,2-2C67.7,10.4,66.8,9.5,65.8,9.5z"/>
		<circle fill="#FFFFFF" cx="56.2" cy="11.5" r="2.7"/>
		<path fill="#231F20" d="M56.2,14.9c-1.9,0-3.5-1.6-3.5-3.5S54.2,8,56.2,8s3.5,1.6,3.5,3.5S58.1,14.9,56.2,14.9z M56.2,9.5
			c-1.1,0-2,0.9-2,2c0,1.1,0.9,2,2,2c1.1,0,2-0.9,2-2C58.1,10.4,57.2,9.5,56.2,9.5z"/>
		<circle fill="#FFFFFF" cx="46.6" cy="11.5" r="2.7"/>
		<path fill="#231F20" d="M46.6,14.9c-1.9,0-3.5-1.6-3.5-3.5S44.6,8,46.6,8S50,9.6,50,11.5S48.5,14.9,46.6,14.9z M46.6,9.5
			c-1.1,0-2,0.9-2,2c0,1.1,0.9,2,2,2c1.1,0,2-0.9,2-2C48.5,10.4,47.6,9.5,46.6,9.5z"/>
		<circle fill="#FFFFFF" cx="65.8" cy="38.7" r="2.7"/>
		<path fill="#231F20" d="M65.8,42.2c-1.9,0-3.5-1.6-3.5-3.5s1.6-3.5,3.5-3.5c1.9,0,3.5,1.6,3.5,3.5S67.7,42.2,65.8,42.2z
			 M65.8,36.7c-1.1,0-2,0.9-2,2c0,1.1,0.9,2,2,2c1.1,0,2-0.9,2-2C67.7,37.6,66.8,36.7,65.8,36.7z"/>
		<circle fill="#FFFFFF" cx="56.2" cy="38.7" r="2.7"/>
		<path fill="#231F20" d="M56.2,42.2c-1.9,0-3.5-1.6-3.5-3.5s1.6-3.5,3.5-3.5s3.5,1.6,3.5,3.5S58.1,42.2,56.2,42.2z M56.2,36.7
			c-1.1,0-2,0.9-2,2c0,1.1,0.9,2,2,2c1.1,0,2-0.9,2-2C58.1,37.6,57.2,36.7,56.2,36.7z"/>
		<circle fill="#FFFFFF" cx="46.6" cy="38.7" r="2.7"/>
		<path fill="#231F20" d="M46.6,42.2c-1.9,0-3.5-1.6-3.5-3.5s1.6-3.5,3.5-3.5s3.5,1.6,3.5,3.5S48.5,42.2,46.6,42.2z M46.6,36.7
			c-1.1,0-2,0.9-2,2c0,1.1,0.9,2,2,2c1.1,0,2-0.9,2-2C48.5,37.6,47.6,36.7,46.6,36.7z"/>
		<circle fill="#FFFFFF" cx="65.8" cy="64.3" r="2.7"/>
		<path fill="#231F20" d="M65.8,67.8c-1.9,0-3.5-1.6-3.5-3.5c0-1.9,1.6-3.5,3.5-3.5c1.9,0,3.5,1.6,3.5,3.5
			C69.2,66.2,67.7,67.8,65.8,67.8z M65.8,62.3c-1.1,0-2,0.9-2,2c0,1.1,0.9,2,2,2c1.1,0,2-0.9,2-2C67.7,63.2,66.8,62.3,65.8,62.3z"/>
		<circle fill="#FFFFFF" cx="56.2" cy="64.3" r="2.7"/>
		<path fill="#231F20" d="M56.2,67.8c-1.9,0-3.5-1.6-3.5-3.5c0-1.9,1.6-3.5,3.5-3.5s3.5,1.6,3.5,3.5C59.6,66.2,58.1,67.8,56.2,67.8z
			 M56.2,62.3c-1.1,0-2,0.9-2,2c0,1.1,0.9,2,2,2c1.1,0,2-0.9,2-2C58.1,63.2,57.2,62.3,56.2,62.3z"/>
		<circle fill="#FFFFFF" cx="46.6" cy="64.3" r="2.7"/>
		<path fill="#231F20" d="M46.6,67.8c-1.9,0-3.5-1.6-3.5-3.5c0-1.9,1.6-3.5,3.5-3.5s3.5,1.6,3.5,3.5C50,66.2,48.5,67.8,46.6,67.8z
			 M46.6,62.3c-1.1,0-2,0.9-2,2c0,1.1,0.9,2,2,2c1.1,0,2-0.9,2-2C48.5,63.2,47.6,62.3,46.6,62.3z"/>
		<circle fill="#FFFFFF" cx="65.8" cy="91.6" r="2.7"/>
		<path fill="#231F20" d="M65.8,95c-1.9,0-3.5-1.6-3.5-3.5c0-1.9,1.6-3.5,3.5-3.5c1.9,0,3.5,1.6,3.5,3.5C69.2,93.5,67.7,95,65.8,95z
			 M65.8,89.6c-1.1,0-2,0.9-2,2c0,1.1,0.9,2,2,2c1.1,0,2-0.9,2-2C67.7,90.5,66.8,89.6,65.8,89.6z"/>
		<circle fill="#FFFFFF" cx="56.2" cy="91.6" r="2.7"/>
		<path fill="#231F20" d="M56.2,95c-1.9,0-3.5-1.6-3.5-3.5c0-1.9,1.6-3.5,3.5-3.5s3.5,1.6,3.5,3.5C59.6,93.5,58.1,95,56.2,95z
			 M56.2,89.6c-1.1,0-2,0.9-2,2c0,1.1,0.9,2,2,2c1.1,0,2-0.9,2-2C58.1,90.5,57.2,89.6,56.2,89.6z"/>
		<circle fill="#FFFFFF" cx="46.6" cy="91.6" r="2.7"/>
		<path fill="#231F20" d="M46.6,95c-1.9,0-3.5-1.6-3.5-3.5c0-1.9,1.6-3.5,3.5-3.5s3.5,1.6,3.5,3.5C50,93.5,48.5,95,46.6,95z
			 M46.6,89.6c-1.1,0-2,0.9-2,2c0,1.1,0.9,2,2,2c1.1,0,2-0.9,2-2C48.5,90.5,47.6,89.6,46.6,89.6z"/>
		<path fill="#E6E9EE" d="M120,115.6H31.1c-1.3,0-2.3-1-2.3-2.3V48.5c0-1.3,1-2.3,2.3-2.3H120c1.3,0,2.3,1,2.3,2.3v64.8
			C122.3,114.6,121.2,115.6,120,115.6z"/>
		<rect x="32.3" y="49.8" fill="#FFFFFF" width="86.4" height="56.4"/>
		<rect x="32.3" y="49.8" fill="#FFFFFF" width="86.4" height="9"/>
		<rect x="33.9" y="51.5" fill="#84DBFF" width="83.1" height="5.6"/>
		<path fill="#E6E9EE" d="M128.8,120.2H22.3v4.2c0,2.3,1.9,4.2,4.2,4.2h98.1c2.3,0,4.2-1.9,4.2-4.2V120.2z"/>
		<polygon fill="#E6E9EE" points="90.7,120.2 60.4,120.2 63.6,124.9 87.5,124.9 		"/>
		<g>
			<path fill="#231F20" d="M28.1,113.3c0,1.7,1.4,3.1,3.1,3.1H120c1.7,0,3.1-1.4,3.1-3.1V48.5c0-1.7-1.4-3.1-3.1-3.1H74.5V27.2h-6.6
				v-4h6.6V0.3H0v22.9h6.6v4H0v22.9h6.6v4H0v22.9h28.1V113.3z M28.1,54.2H8.1v-4h19.9V54.2z M120,114.9H31.1c-0.9,0-1.6-0.7-1.6-1.6
				v-6.4h92v6.4C121.5,114.2,120.8,114.9,120,114.9z M33,59.5h84.9v45.9H33V59.5z M117.9,58H33v-7.5h84.9V58z M120,46.9
				c0.9,0,1.6,0.7,1.6,1.6v57h-2.1V49.8c0-0.4-0.3-0.8-0.8-0.8H32.3c-0.4,0-0.7,0.3-0.7,0.8v55.6h-1.9v-57c0-0.9,0.7-1.6,1.6-1.6
				H120z M1.5,21.7V1.8H73v19.9H1.5z M66.4,23.2v4H8.1v-4H66.4z M1.5,48.6V28.7H73v16.7H31.1c-1.7,0-3.1,1.4-3.1,3.1v0.2H1.5z
				 M1.5,75.6V55.7h26.6v19.9H1.5z"/>
			<path fill="#231F20" d="M128.8,119.4H22.3c-0.4,0-0.8,0.3-0.8,0.8v4.2c0,2.7,2.2,4.9,4.9,4.9h98.1c2.7,0,4.9-2.2,4.9-4.9v-4.2
				C129.5,119.7,129.2,119.4,128.8,119.4z M89.3,120.9l-2.2,3.2H64l-2.2-3.2H89.3z M128,124.3c0,1.9-1.5,3.4-3.4,3.4H26.5
				c-1.9,0-3.4-1.5-3.4-3.4v-3.4H60l3,4.4c0.1,0.2,0.4,0.3,0.6,0.3h23.9c0.2,0,0.5-0.1,0.6-0.3l3-4.4H128V124.3z"/>
		</g>
		<g>
			<path fill="#231F20" d="M85.8,88.3c-0.2,0-0.4-0.1-0.5-0.2c-0.3-0.3-0.3-0.8,0-1.1l7.4-7.4l-7.4-7.4c-0.3-0.3-0.3-0.8,0-1.1
				c0.3-0.3,0.8-0.3,1.1,0l8,8c0.3,0.3,0.3,0.8,0,1.1l-8,8C86.2,88.2,86,88.3,85.8,88.3z"/>
		</g>
		<g>
			<path fill="#231F20" d="M65.1,88.3c-0.2,0-0.4-0.1-0.5-0.2l-8-8c-0.3-0.3-0.3-0.8,0-1.1l8-8c0.3-0.3,0.8-0.3,1.1,0
				c0.3,0.3,0.3,0.8,0,1.1l-7.4,7.4l7.4,7.4c0.3,0.3,0.3,0.8,0,1.1C65.5,88.2,65.3,88.3,65.1,88.3z"/>
		</g>
		<g>
			<path fill="#231F20" d="M70.3,92.6c-0.1,0-0.2,0-0.3-0.1c-0.4-0.2-0.6-0.6-0.4-1l10.3-24.5c0.2-0.4,0.6-0.6,1-0.4
				c0.4,0.2,0.6,0.6,0.4,1L71,92.1C70.9,92.4,70.6,92.6,70.3,92.6z"/>
		</g>
		<circle fill="#FFD05B" cx="119.4" cy="34.6" r="2.1"/>
		<circle fill="#84DBFF" cx="10" cy="91.6" r="2.1"/>
		<circle fill="#FF7058" cx="85.8" cy="8.7" r="2.1"/>
		<g>
			<path fill="#231F20" d="M105.3,21.9h-7.5c-0.4,0-0.8-0.3-0.8-0.8c0-0.4,0.3-0.8,0.8-0.8h7.5c0.4,0,0.8,0.3,0.8,0.8
				C106.1,21.5,105.8,21.9,105.3,21.9z"/>
		</g>
		<g>
			<path fill="#231F20" d="M110.3,21.9h-2.1c-0.4,0-0.8-0.3-0.8-0.8c0-0.4,0.3-0.8,0.8-0.8h2.1c0.4,0,0.8,0.3,0.8,0.8
				C111,21.5,110.7,21.9,110.3,21.9z"/>
		</g>
		<g>
			<path fill="#231F20" d="M107.4,24.6h-2.1c-0.4,0-0.8-0.3-0.8-0.8c0-0.4,0.3-0.8,0.8-0.8h2.1c0.4,0,0.8,0.3,0.8,0.8
				C108.2,24.2,107.8,24.6,107.4,24.6z"/>
		</g>
	</g>
</g>
</svg>
