<?xml version="1.0" encoding="utf-8"?>
<!-- Generator: Adobe Illustrator 18.0.0, SVG Export Plug-In . SVG Version: 6.00 Build 0)  -->
<!DOCTYPE svg PUBLIC "-//W3C//DTD SVG 1.1//EN" "http://www.w3.org/Graphics/SVG/1.1/DTD/svg11.dtd">
<svg version="1.1" id="Layer_1" xmlns="http://www.w3.org/2000/svg" xmlns:xlink="http://www.w3.org/1999/xlink" x="0px" y="0px"
	 viewBox="0 0 129.5 129.5" enable-background="new 0 0 129.5 129.5" xml:space="preserve">
<g>
	<g>
		<g>
			<path fill="#231F20" d="M119.5,11c-0.2,0-0.4-0.1-0.5-0.2c-0.3-0.3-0.3-0.8,0-1.1l1.3-1.3c0.3-0.3,0.8-0.3,1.1,0
				c0.3,0.3,0.3,0.8,0,1.1l-1.3,1.3C119.9,11,119.7,11,119.5,11z"/>
		</g>
		<g>
			<path fill="#231F20" d="M115.5,15.1c-0.2,0-0.4-0.1-0.5-0.2c-0.3-0.3-0.3-0.8,0-1.1l1.3-1.3c0.3-0.3,0.8-0.3,1.1,0s0.3,0.8,0,1.1
				l-1.3,1.3C115.9,15,115.7,15.1,115.5,15.1z"/>
		</g>
		<g>
			<path fill="#231F20" d="M120.8,15.1c-0.2,0-0.4-0.1-0.5-0.2l-1.3-1.3c-0.3-0.3-0.3-0.8,0-1.1c0.3-0.3,0.8-0.3,1.1,0l1.3,1.3
				c0.3,0.3,0.3,0.8,0,1.1C121.2,15,121,15.1,120.8,15.1z"/>
		</g>
		<g>
			<path fill="#231F20" d="M116.8,11c-0.2,0-0.4-0.1-0.5-0.2L115,9.5c-0.3-0.3-0.3-0.8,0-1.1c0.3-0.3,0.8-0.3,1.1,0l1.3,1.3
				c0.3,0.3,0.3,0.8,0,1.1C117.2,11,117,11,116.8,11z"/>
		</g>
		<g>
			<path fill="#231F20" d="M9.7,116.9c-0.2,0-0.4-0.1-0.5-0.2c-0.3-0.3-0.3-0.8,0-1.1l1.3-1.3c0.3-0.3,0.8-0.3,1.1,0
				c0.3,0.3,0.3,0.8,0,1.1l-1.3,1.3C10.1,116.8,9.9,116.9,9.7,116.9z"/>
		</g>
		<g>
			<path fill="#231F20" d="M5.7,120.9c-0.2,0-0.4-0.1-0.5-0.2c-0.3-0.3-0.3-0.8,0-1.1l1.3-1.3c0.3-0.3,0.8-0.3,1.1,0
				c0.3,0.3,0.3,0.8,0,1.1l-1.3,1.3C6.1,120.8,5.9,120.9,5.7,120.9z"/>
		</g>
		<g>
			<path fill="#231F20" d="M11,120.9c-0.2,0-0.4-0.1-0.5-0.2l-1.3-1.3c-0.3-0.3-0.3-0.8,0-1.1c0.3-0.3,0.8-0.3,1.1,0l1.3,1.3
				c0.3,0.3,0.3,0.8,0,1.1C11.3,120.8,11.2,120.9,11,120.9z"/>
		</g>
		<g>
			<path fill="#231F20" d="M6.9,116.9c-0.2,0-0.4-0.1-0.5-0.2l-1.3-1.3c-0.3-0.3-0.3-0.8,0-1.1c0.3-0.3,0.8-0.3,1.1,0l1.3,1.3
				c0.3,0.3,0.3,0.8,0,1.1C7.3,116.8,7.1,116.9,6.9,116.9z"/>
		</g>
		<g>
			<path fill="#231F20" d="M19.5,12.4h-8.1c-0.4,0-0.8-0.3-0.8-0.8c0-0.4,0.3-0.8,0.8-0.8h8.1c0.4,0,0.8,0.3,0.8,0.8
				C20.3,12.1,20,12.4,19.5,12.4z"/>
		</g>
		<g>
			<path fill="#231F20" d="M12.3,9.5H8.3c-0.4,0-0.8-0.3-0.8-0.8C7.6,8.3,7.9,8,8.3,8h3.9C12.7,8,13,8.3,13,8.7
				C13,9.1,12.7,9.5,12.3,9.5z"/>
		</g>
		<g>
			<path fill="#231F20" d="M7.8,12.4H4.1c-0.4,0-0.8-0.3-0.8-0.8c0-0.4,0.3-0.8,0.8-0.8h3.8c0.4,0,0.8,0.3,0.8,0.8
				C8.6,12.1,8.2,12.4,7.8,12.4z"/>
		</g>
		<g>
			<path fill="#231F20" d="M15.9,9.5h-0.8c-0.4,0-0.8-0.3-0.8-0.8c0-0.4,0.3-0.7,0.8-0.7h0.8c0.4,0,0.8,0.3,0.8,0.7
				C16.6,9.1,16.3,9.5,15.9,9.5z"/>
		</g>
		<g>
			<path fill="#231F20" d="M125.4,118.7h-8.1c-0.4,0-0.8-0.3-0.8-0.8s0.3-0.8,0.8-0.8h8.1c0.4,0,0.8,0.3,0.8,0.8
				S125.8,118.7,125.4,118.7z"/>
		</g>
		<g>
			<path fill="#231F20" d="M118.1,115.8h-3.9c-0.4,0-0.8-0.3-0.8-0.8c0-0.4,0.3-0.8,0.8-0.8h3.9c0.4,0,0.8,0.3,0.8,0.8
				C118.9,115.5,118.6,115.8,118.1,115.8z"/>
		</g>
		<g>
			<path fill="#231F20" d="M113.7,118.7H110c-0.4,0-0.8-0.3-0.8-0.8s0.3-0.8,0.8-0.8h3.8c0.4,0,0.8,0.3,0.8,0.8
				S114.1,118.7,113.7,118.7z"/>
		</g>
		<g>
			<path fill="#231F20" d="M121.8,115.8H121c-0.4,0-0.8-0.3-0.8-0.8c0-0.4,0.3-0.8,0.8-0.8h0.8c0.4,0,0.8,0.3,0.8,0.8
				C122.5,115.5,122.2,115.8,121.8,115.8z"/>
		</g>
		<g>
			<path fill="#231F20" d="M63.8,129.2c-0.3,0-0.7,0-1,0l0-1.5c0.3,0,0.7,0,1,0L63.8,129.2z M65.8,129.2l0-1.5c0.3,0,0.7,0,1,0
				l0.1,1.5C66.5,129.2,66.2,129.2,65.8,129.2z M60.8,129.1c-0.3,0-0.7,0-1-0.1l0.1-1.5c0.3,0,0.7,0,1,0.1L60.8,129.1z M68.9,129.1
				l-0.1-1.5c0.3,0,0.7,0,1-0.1l0.1,1.5C69.6,129,69.2,129,68.9,129.1z M57.8,128.8c-0.3,0-0.7-0.1-1-0.1l0.2-1.5
				c0.3,0,0.7,0.1,1,0.1L57.8,128.8z M71.9,128.8l-0.2-1.5c0.3,0,0.7-0.1,1-0.1l0.2,1.5C72.6,128.7,72.2,128.7,71.9,128.8z
				 M54.8,128.4c-0.3-0.1-0.7-0.1-1-0.2l0.3-1.5c0.3,0.1,0.6,0.1,1,0.2L54.8,128.4z M74.9,128.4l-0.2-1.5c0.3-0.1,0.6-0.1,1-0.2
				l0.3,1.5C75.6,128.2,75.2,128.3,74.9,128.4z M51.8,127.8c-0.3-0.1-0.7-0.1-1-0.2l0.3-1.5c0.3,0.1,0.6,0.1,1,0.2L51.8,127.8z
				 M77.9,127.8l-0.3-1.5c0.3-0.1,0.6-0.1,1-0.2l0.3,1.5C78.6,127.6,78.2,127.7,77.9,127.8z M48.8,127.1c-0.3-0.1-0.7-0.2-1-0.3
				l0.4-1.4c0.3,0.1,0.6,0.2,1,0.3L48.8,127.1z M80.8,127.1l-0.4-1.4c0.3-0.1,0.6-0.2,0.9-0.3l0.4,1.4
				C81.5,126.9,81.2,127,80.8,127.1z M45.9,126.2c-0.3-0.1-0.6-0.2-1-0.3l0.5-1.4c0.3,0.1,0.6,0.2,0.9,0.3L45.9,126.2z M83.8,126.2
				l-0.5-1.4c0.3-0.1,0.6-0.2,0.9-0.3l0.5,1.4C84.4,126,84.1,126.1,83.8,126.2z M43,125.2c-0.3-0.1-0.6-0.2-0.9-0.4l0.6-1.4
				c0.3,0.1,0.6,0.2,0.9,0.4L43,125.2z M86.6,125.2l-0.5-1.4c0.3-0.1,0.6-0.2,0.9-0.4l0.6,1.4C87.2,124.9,86.9,125.1,86.6,125.2z
				 M40.2,124.1c-0.3-0.1-0.6-0.3-0.9-0.4l0.6-1.4c0.3,0.1,0.6,0.3,0.9,0.4L40.2,124.1z M89.4,124l-0.6-1.4c0.3-0.1,0.6-0.3,0.9-0.4
				l0.6,1.4C90,123.8,89.7,123.9,89.4,124z M37.5,122.8c-0.3-0.2-0.6-0.3-0.9-0.5l0.7-1.3c0.3,0.2,0.6,0.3,0.9,0.4L37.5,122.8z
				 M92.2,122.7l-0.7-1.3c0.3-0.1,0.6-0.3,0.9-0.4l0.7,1.3C92.8,122.4,92.5,122.6,92.2,122.7z M34.8,121.4c-0.3-0.2-0.6-0.3-0.9-0.5
				l0.8-1.3c0.3,0.2,0.6,0.3,0.9,0.5L34.8,121.4z M94.8,121.3l-0.7-1.3c0.3-0.2,0.6-0.3,0.9-0.5l0.8,1.3
				C95.4,121,95.1,121.2,94.8,121.3z M32.2,119.8c-0.3-0.2-0.6-0.4-0.9-0.5l0.8-1.3c0.3,0.2,0.6,0.4,0.8,0.5L32.2,119.8z
				 M97.4,119.8l-0.8-1.3c0.3-0.2,0.6-0.4,0.8-0.5l0.8,1.3C98,119.4,97.7,119.6,97.4,119.8z M29.6,118.1c-0.3-0.2-0.6-0.4-0.8-0.6
				l0.9-1.2c0.3,0.2,0.5,0.4,0.8,0.6L29.6,118.1z M100,118.1l-0.9-1.2c0.3-0.2,0.5-0.4,0.8-0.6l0.9,1.2
				C100.5,117.7,100.2,117.9,100,118.1z M27.2,116.3c-0.3-0.2-0.5-0.4-0.8-0.6l0.9-1.2c0.3,0.2,0.5,0.4,0.8,0.6L27.2,116.3z
				 M102.4,116.3l-0.9-1.2c0.3-0.2,0.5-0.4,0.8-0.6l0.9,1.2C102.9,115.9,102.7,116.1,102.4,116.3z M24.8,114.4
				c-0.3-0.2-0.5-0.4-0.8-0.7l1-1.1c0.2,0.2,0.5,0.4,0.7,0.7L24.8,114.4z M104.7,114.4l-1-1.1c0.3-0.2,0.5-0.4,0.7-0.7l1,1.1
				C105.2,113.9,105,114.1,104.7,114.4z M22.6,112.4c-0.2-0.2-0.5-0.5-0.7-0.7l1.1-1.1c0.2,0.2,0.5,0.5,0.7,0.7L22.6,112.4z
				 M107,112.3l-1-1.1c0.2-0.2,0.5-0.5,0.7-0.7l1.1,1.1C107.5,111.8,107.2,112.1,107,112.3z M20.4,110.2c-0.2-0.2-0.5-0.5-0.7-0.7
				l1.1-1c0.2,0.2,0.4,0.5,0.7,0.7L20.4,110.2z M109.1,110.2l-1.1-1c0.2-0.2,0.5-0.5,0.7-0.7l1.1,1
				C109.6,109.7,109.4,109.9,109.1,110.2z M18.4,108c-0.2-0.3-0.4-0.5-0.7-0.8l1.2-1c0.2,0.3,0.4,0.5,0.6,0.8L18.4,108z
				 M111.2,107.9l-1.1-1c0.2-0.3,0.4-0.5,0.6-0.8l1.2,1C111.6,107.4,111.4,107.7,111.2,107.9z M16.5,105.6c-0.2-0.3-0.4-0.5-0.6-0.8
				l1.2-0.9c0.2,0.3,0.4,0.5,0.6,0.8L16.5,105.6z M113.1,105.6l-1.2-0.9c0.2-0.3,0.4-0.5,0.6-0.8l1.2,0.9
				C113.5,105,113.3,105.3,113.1,105.6z M14.7,103.2c-0.2-0.3-0.4-0.6-0.6-0.8l1.2-0.8c0.2,0.3,0.4,0.5,0.6,0.8L14.7,103.2z
				 M114.9,103.1l-1.2-0.9c0.2-0.3,0.4-0.5,0.6-0.8l1.2,0.8C115.3,102.6,115.1,102.9,114.9,103.1z M13,100.7
				c-0.2-0.3-0.4-0.6-0.5-0.9l1.3-0.8c0.2,0.3,0.3,0.6,0.5,0.8L13,100.7z M116.6,100.6l-1.3-0.8c0.2-0.3,0.3-0.6,0.5-0.8l1.3,0.8
				C117,100,116.8,100.3,116.6,100.6z M11.4,98.1c-0.2-0.3-0.3-0.6-0.5-0.9l1.3-0.7c0.2,0.3,0.3,0.6,0.5,0.9L11.4,98.1z M118.2,98
				l-1.3-0.7c0.2-0.3,0.3-0.6,0.5-0.9l1.3,0.7C118.5,97.4,118.3,97.7,118.2,98z M10,95.4c-0.2-0.3-0.3-0.6-0.4-0.9l1.3-0.7
				c0.1,0.3,0.3,0.6,0.4,0.9L10,95.4z M119.6,95.3l-1.3-0.7c0.1-0.3,0.3-0.6,0.4-0.9l1.4,0.6C119.9,94.7,119.7,95,119.6,95.3z
				 M8.7,92.7c-0.1-0.3-0.3-0.6-0.4-0.9l1.4-0.6c0.1,0.3,0.3,0.6,0.4,0.9L8.7,92.7z M120.9,92.5l-1.4-0.6c0.1-0.3,0.3-0.6,0.4-0.9
				l1.4,0.6C121.1,91.9,121,92.2,120.9,92.5z M7.5,89.9c-0.1-0.3-0.2-0.6-0.4-0.9l1.4-0.5c0.1,0.3,0.2,0.6,0.3,0.9L7.5,89.9z
				 M122,89.7l-1.4-0.5c0.1-0.3,0.2-0.6,0.3-0.9l1.4,0.5C122.3,89.1,122.1,89.4,122,89.7z M6.5,87c-0.1-0.3-0.2-0.6-0.3-1l1.4-0.4
				c0.1,0.3,0.2,0.6,0.3,0.9L6.5,87z M123,86.9l-1.4-0.5c0.1-0.3,0.2-0.6,0.3-0.9l1.4,0.4C123.2,86.2,123.1,86.5,123,86.9z
				 M5.6,84.1c-0.1-0.3-0.2-0.7-0.3-1l1.5-0.4c0.1,0.3,0.2,0.6,0.3,1L5.6,84.1z M123.9,83.9l-1.4-0.4c0.1-0.3,0.2-0.6,0.3-1l1.5,0.4
				C124.1,83.3,124,83.6,123.9,83.9z M4.9,81.2c-0.1-0.3-0.1-0.7-0.2-1l1.5-0.3c0.1,0.3,0.1,0.6,0.2,1L4.9,81.2z M124.6,81l-1.5-0.3
				c0.1-0.3,0.1-0.6,0.2-1l1.5,0.3C124.8,80.3,124.7,80.7,124.6,81z M4.3,78.2c-0.1-0.3-0.1-0.7-0.2-1L5.7,77c0,0.3,0.1,0.7,0.2,1
				L4.3,78.2z M125.2,78l-1.5-0.2c0.1-0.3,0.1-0.6,0.2-1l1.5,0.2C125.3,77.3,125.2,77.7,125.2,78z M3.9,75.2c0-0.3-0.1-0.7-0.1-1
				L5.3,74c0,0.3,0.1,0.7,0.1,1L3.9,75.2z M125.6,75l-1.5-0.2c0-0.3,0.1-0.7,0.1-1l1.5,0.1C125.7,74.3,125.7,74.7,125.6,75z
				 M3.6,72.2c0-0.3,0-0.7-0.1-1l1.5-0.1c0,0.3,0,0.7,0.1,1L3.6,72.2z M125.9,72l-1.5-0.1c0-0.3,0-0.7,0.1-1l1.5,0.1
				C125.9,71.3,125.9,71.6,125.9,72z M3.5,69.1c0-0.3,0-0.7,0-1l1.5,0c0,0.3,0,0.7,0,1L3.5,69.1z M126,68.9l-1.5,0c0-0.3,0-0.7,0-1
				h1.5C126,68.3,126,68.6,126,68.9z M124.5,66.6c0-0.3,0-0.7,0-1l1.5-0.1c0,0.3,0,0.7,0,1L124.5,66.6z M5,66.1l-1.5,0
				c0-0.3,0-0.7,0-1L5,65.1C5,65.5,5,65.8,5,66.1z M124.4,63.6c0-0.3,0-0.7-0.1-1l1.5-0.1c0,0.3,0.1,0.7,0.1,1L124.4,63.6z
				 M5.2,63.2l-1.5-0.1c0-0.3,0.1-0.7,0.1-1l1.5,0.1C5.2,62.5,5.2,62.8,5.2,63.2z M124.1,60.7c0-0.3-0.1-0.7-0.1-1l1.5-0.2
				c0,0.3,0.1,0.7,0.1,1L124.1,60.7z M5.5,60.2L4,60c0-0.3,0.1-0.7,0.1-1l1.5,0.2C5.6,59.6,5.5,59.9,5.5,60.2z M123.7,57.8
				c-0.1-0.3-0.1-0.6-0.2-1l1.5-0.3c0.1,0.3,0.1,0.7,0.2,1L123.7,57.8z M5.9,57.3L4.4,57c0.1-0.3,0.1-0.7,0.2-1l1.5,0.3
				C6,56.7,6,57,5.9,57.3z M123.1,54.9c-0.1-0.3-0.1-0.6-0.2-1l1.5-0.4c0.1,0.3,0.2,0.7,0.2,1L123.1,54.9z M6.5,54.4l-1.5-0.3
				c0.1-0.3,0.2-0.7,0.2-1l1.5,0.4C6.7,53.8,6.6,54.1,6.5,54.4z M122.4,52c-0.1-0.3-0.2-0.6-0.3-1l1.4-0.4c0.1,0.3,0.2,0.6,0.3,1
				L122.4,52z M7.3,51.5l-1.4-0.4c0.1-0.3,0.2-0.6,0.3-1l1.4,0.4C7.4,50.9,7.4,51.2,7.3,51.5z M121.5,49.1c-0.1-0.3-0.2-0.6-0.3-0.9
				l1.4-0.5c0.1,0.3,0.2,0.6,0.3,1L121.5,49.1z M8.1,48.7l-1.4-0.5c0.1-0.3,0.2-0.6,0.3-1l1.4,0.5C8.4,48.1,8.3,48.4,8.1,48.7z
				 M120.5,46.4c-0.1-0.3-0.2-0.6-0.4-0.9l1.4-0.6c0.1,0.3,0.3,0.6,0.4,0.9L120.5,46.4z M9.2,45.9l-1.4-0.6C7.9,45,8,44.7,8.2,44.4
				L9.5,45C9.4,45.3,9.3,45.6,9.2,45.9z M119.4,43.6c-0.1-0.3-0.3-0.6-0.4-0.9l1.4-0.6c0.1,0.3,0.3,0.6,0.4,0.9L119.4,43.6z
				 M10.3,43.2L9,42.6c0.1-0.3,0.3-0.6,0.4-0.9l1.4,0.6C10.6,42.6,10.5,42.9,10.3,43.2z M118.1,41c-0.1-0.3-0.3-0.6-0.5-0.9l1.3-0.7
				c0.2,0.3,0.3,0.6,0.5,0.9L118.1,41z M11.6,40.5l-1.3-0.7c0.2-0.3,0.3-0.6,0.5-0.9l1.3,0.7C11.9,39.9,11.8,40.2,11.6,40.5z
				 M116.7,38.4c-0.2-0.3-0.3-0.6-0.5-0.9l1.3-0.8c0.2,0.3,0.3,0.6,0.5,0.9L116.7,38.4z M13.1,37.9l-1.3-0.8
				c0.2-0.3,0.3-0.6,0.5-0.9l1.3,0.8C13.4,37.3,13.2,37.6,13.1,37.9z M115.2,35.8c-0.2-0.3-0.4-0.6-0.5-0.8l1.3-0.8
				c0.2,0.3,0.4,0.6,0.6,0.8L115.2,35.8z M14.6,35.4l-1.3-0.8c0.2-0.3,0.4-0.6,0.6-0.8l1.2,0.8C15,34.8,14.8,35.1,14.6,35.4z
				 M113.5,33.4c-0.2-0.3-0.4-0.5-0.6-0.8l1.2-0.9c0.2,0.3,0.4,0.5,0.6,0.8L113.5,33.4z M16.3,32.9l-1.2-0.9
				c0.2-0.3,0.4-0.5,0.6-0.8l1.2,0.9C16.7,32.4,16.5,32.7,16.3,32.9z M111.8,31c-0.2-0.3-0.4-0.5-0.6-0.8l1.2-0.9
				c0.2,0.3,0.4,0.5,0.6,0.8L111.8,31z M18.1,30.6l-1.2-0.9c0.2-0.3,0.4-0.5,0.6-0.8l1.2,1C18.5,30.1,18.3,30.3,18.1,30.6z
				 M109.9,28.7c-0.2-0.2-0.4-0.5-0.7-0.7l1.1-1c0.2,0.3,0.4,0.5,0.7,0.8L109.9,28.7z M20,28.3l-1.1-1c0.2-0.3,0.5-0.5,0.7-0.8
				l1.1,1C20.4,27.8,20.2,28.1,20,28.3z M107.9,26.5c-0.2-0.2-0.5-0.5-0.7-0.7l1.1-1.1c0.2,0.2,0.5,0.5,0.7,0.7L107.9,26.5z
				 M22,26.1l-1.1-1c0.2-0.2,0.5-0.5,0.7-0.7l1.1,1.1C22.5,25.7,22.2,25.9,22,26.1z M105.8,24.5c-0.2-0.2-0.5-0.5-0.7-0.7l1-1.1
				c0.2,0.2,0.5,0.5,0.7,0.7L105.8,24.5z M24.1,24.1l-1-1.1c0.2-0.2,0.5-0.5,0.8-0.7l1,1.1C24.6,23.6,24.4,23.9,24.1,24.1z
				 M103.6,22.5c-0.3-0.2-0.5-0.4-0.8-0.6l1-1.2c0.3,0.2,0.5,0.4,0.8,0.6L103.6,22.5z M26.4,22.1l-1-1.1c0.3-0.2,0.5-0.4,0.8-0.6
				l0.9,1.2C26.9,21.7,26.6,21.9,26.4,22.1z M101.3,20.6c-0.3-0.2-0.5-0.4-0.8-0.6l0.9-1.2c0.3,0.2,0.5,0.4,0.8,0.6L101.3,20.6z
				 M28.7,20.3l-0.9-1.2c0.3-0.2,0.5-0.4,0.8-0.6l0.9,1.2C29.2,19.9,28.9,20.1,28.7,20.3z M98.9,18.9c-0.3-0.2-0.5-0.4-0.8-0.6
				l0.8-1.2c0.3,0.2,0.6,0.4,0.8,0.6L98.9,18.9z M31.1,18.5l-0.8-1.2c0.3-0.2,0.6-0.4,0.8-0.6l0.8,1.3
				C31.6,18.2,31.3,18.4,31.1,18.5z M96.4,17.2c-0.3-0.2-0.6-0.3-0.8-0.5l0.8-1.3c0.3,0.2,0.6,0.4,0.9,0.5L96.4,17.2z M33.6,16.9
				l-0.8-1.3c0.3-0.2,0.6-0.3,0.9-0.5l0.8,1.3C34.1,16.6,33.8,16.8,33.6,16.9z M93.8,15.7c-0.3-0.2-0.6-0.3-0.9-0.5l0.7-1.3
				c0.3,0.2,0.6,0.3,0.9,0.5L93.8,15.7z M36.1,15.5l-0.7-1.3c0.3-0.2,0.6-0.3,0.9-0.5L37,15C36.7,15.1,36.4,15.3,36.1,15.5z
				 M91.2,14.3c-0.3-0.1-0.6-0.3-0.9-0.4l0.6-1.4c0.3,0.1,0.6,0.3,0.9,0.4L91.2,14.3z M38.7,14.1l-0.7-1.3c0.3-0.1,0.6-0.3,0.9-0.4
				l0.6,1.4C39.3,13.8,39,14,38.7,14.1z M88.5,13.1c-0.3-0.1-0.6-0.3-0.9-0.4l0.6-1.4c0.3,0.1,0.6,0.3,0.9,0.4L88.5,13.1z
				 M41.4,12.9l-0.6-1.4c0.3-0.1,0.6-0.3,0.9-0.4l0.6,1.4C42,12.6,41.7,12.8,41.4,12.9z M85.8,12c-0.3-0.1-0.6-0.2-0.9-0.3l0.5-1.4
				c0.3,0.1,0.6,0.2,1,0.4L85.8,12z M44.2,11.8l-0.5-1.4c0.3-0.1,0.6-0.2,1-0.3l0.5,1.4C44.8,11.6,44.5,11.7,44.2,11.8z M83,11
				c-0.3-0.1-0.6-0.2-0.9-0.3l0.4-1.4c0.3,0.1,0.6,0.2,1,0.3L83,11z M47,10.8l-0.4-1.4c0.3-0.1,0.6-0.2,1-0.3l0.4,1.4
				C47.6,10.7,47.3,10.8,47,10.8z M80.1,10.2c-0.3-0.1-0.6-0.2-1-0.2l0.4-1.5c0.3,0.1,0.7,0.2,1,0.3L80.1,10.2z M49.8,10l-0.4-1.5
				c0.3-0.1,0.7-0.2,1-0.2l0.3,1.5C50.5,9.9,50.2,10,49.8,10z M77.2,9.5c-0.3-0.1-0.6-0.1-1-0.2l0.3-1.5c0.3,0.1,0.7,0.1,1,0.2
				L77.2,9.5z M52.7,9.4l-0.3-1.5c0.3-0.1,0.7-0.1,1-0.2l0.3,1.5C53.4,9.2,53,9.3,52.7,9.4z M74.3,8.9c-0.3-0.1-0.7-0.1-1-0.1
				l0.2-1.5c0.3,0,0.7,0.1,1,0.2L74.3,8.9z M55.6,8.9l-0.2-1.5c0.3-0.1,0.7-0.1,1-0.1l0.2,1.5C56.3,8.8,56,8.8,55.6,8.9z M71.4,8.5
				c-0.3,0-0.7-0.1-1-0.1l0.1-1.5c0.3,0,0.7,0.1,1,0.1L71.4,8.5z M58.6,8.5L58.4,7c0.3,0,0.7-0.1,1-0.1l0.1,1.5
				C59.2,8.4,58.9,8.4,58.6,8.5z M68.4,8.3c-0.3,0-0.7,0-1-0.1l0.1-1.5c0.3,0,0.7,0,1,0.1L68.4,8.3z M61.5,8.2l-0.1-1.5
				c0.3,0,0.7,0,1,0l0.1,1.5C62.2,8.2,61.9,8.2,61.5,8.2z M65.5,8.2l-0.7,0l-0.3,0V6.7l0.3,0l0.8,0L65.5,8.2z"/>
		</g>
		<polygon fill="#FFFFFF" points="64.7,1 84.5,41.1 128.7,47.5 96.7,78.7 104.3,122.8 64.7,102 25.2,122.8 32.7,78.7 0.7,47.5 
			45,41.1 		"/>
		<path fill="#231F20" d="M129.5,47.3c-0.1-0.3-0.3-0.5-0.6-0.5L113,44.5c-7.7-15.7-22.7-27.1-40.6-29.6l-7-14.1
			c-0.3-0.5-1.1-0.5-1.3,0l-7,14.1c-17.9,2.6-33,14-40.6,29.7L0.6,46.8c-0.3,0-0.5,0.2-0.6,0.5c-0.1,0.3,0,0.6,0.2,0.8l11.5,11.3
			c-0.5,2.8-0.7,5.7-0.7,8.6c0,15,6.2,28.6,16.2,38.4l-2.8,16.3c0,0.3,0.1,0.6,0.3,0.7c0.2,0.2,0.5,0.2,0.8,0.1l14.7-7.7
			c7.3,3.8,15.7,5.9,24.5,5.9c8.8,0,17.1-2.2,24.5-5.9l14.7,7.7c0.1,0.1,0.2,0.1,0.3,0.1c0.2,0,0.3,0,0.4-0.1
			c0.2-0.2,0.3-0.5,0.3-0.7l-2.8-16.3c10-9.8,16.2-23.3,16.2-38.4c0-2.9-0.3-5.8-0.7-8.6l11.5-11.2
			C129.5,47.9,129.6,47.6,129.5,47.3z M111.2,44.2L85,40.4L73.2,16.5C89.8,19.2,103.8,29.7,111.2,44.2z M56.3,16.5L44.5,40.4
			l-26.2,3.8C25.7,29.7,39.7,19.2,56.3,16.5z M12.6,67.9c0-2.5,0.2-4.9,0.5-7.3L31.9,79l-4.4,25.5C18.3,95.1,12.6,82.2,12.6,67.9z
			 M64.8,120.1c-8.2,0-15.9-1.9-22.8-5.3l22.8-12l22.8,12C80.7,118.2,72.9,120.1,64.8,120.1z M116.9,67.9c0,14.2-5.7,27.1-15,36.6
			L97.6,79l18.9-18.4C116.8,63,116.9,65.4,116.9,67.9z M96.2,78.2C96,78.3,96,78.6,96,78.8l7.3,42.5l-38.2-20.1
			c-0.2-0.1-0.5-0.1-0.7,0l-38.2,20.1l7.3-42.5c0-0.2,0-0.5-0.2-0.7L2.4,48l42.7-6.2c0.2,0,0.5-0.2,0.6-0.4L64.8,2.7l19.1,38.7
			c0.1,0.2,0.3,0.4,0.6,0.4l42.7,6.2L96.2,78.2z"/>
		<g>
			<polygon fill="#FFD05B" points="64.7,86.2 43.7,97.3 47.7,73.9 30.6,57.2 54.2,53.8 64.7,32.5 75.3,53.8 98.9,57.2 81.8,73.9 
				85.8,97.3 			"/>
		</g>
		<g>
			<circle fill="#FF7058" cx="91.6" cy="32.8" r="2.4"/>
		</g>
		<g>
			<circle fill="#E6E9EE" cx="37.9" cy="32.8" r="2.4"/>
		</g>
		<g>
			<circle fill="#FF7058" cx="64.7" cy="112.6" r="2.4"/>
		</g>
		<g>
			<circle fill="#84DBFF" cx="107.5" cy="81.5" r="2.4"/>
		</g>
		<g>
			<circle fill="#84DBFF" cx="22" cy="81.5" r="2.4"/>
		</g>
		<g>
			<path fill="#231F20" d="M73.7,67.3c-0.2,0-0.4-0.1-0.5-0.2c-0.3-0.3-0.3-0.8,0-1.1l1.3-1.3c0.3-0.3,0.8-0.3,1.1,0
				c0.3,0.3,0.3,0.8,0,1.1l-1.3,1.3C74.1,67.2,73.9,67.3,73.7,67.3z"/>
		</g>
		<g>
			<path fill="#231F20" d="M69.7,71.3c-0.2,0-0.4-0.1-0.5-0.2c-0.3-0.3-0.3-0.8,0-1.1l1.3-1.3c0.3-0.3,0.8-0.3,1.1,0
				c0.3,0.3,0.3,0.8,0,1.1l-1.3,1.3C70.1,71.3,69.9,71.3,69.7,71.3z"/>
		</g>
		<g>
			<path fill="#231F20" d="M75,71.3c-0.2,0-0.4-0.1-0.5-0.2l-1.3-1.3c-0.3-0.3-0.3-0.8,0-1.1c0.3-0.3,0.8-0.3,1.1,0l1.3,1.3
				c0.3,0.3,0.3,0.8,0,1.1C75.4,71.3,75.2,71.3,75,71.3z"/>
		</g>
		<g>
			<path fill="#231F20" d="M71,67.3c-0.2,0-0.4-0.1-0.5-0.2l-1.3-1.3c-0.3-0.3-0.3-0.8,0-1.1c0.3-0.3,0.8-0.3,1.1,0l1.3,1.3
				c0.3,0.3,0.3,0.8,0,1.1C71.4,67.2,71.2,67.3,71,67.3z"/>
		</g>
	</g>
</g>
</svg>
