<?xml version="1.0" encoding="utf-8"?>
<!-- Generator: Adobe Illustrator 18.0.0, SVG Export Plug-In . SVG Version: 6.00 Build 0)  -->
<!DOCTYPE svg PUBLIC "-//W3C//DTD SVG 1.1//EN" "http://www.w3.org/Graphics/SVG/1.1/DTD/svg11.dtd">
<svg version="1.1" id="Layer_1" xmlns="http://www.w3.org/2000/svg" xmlns:xlink="http://www.w3.org/1999/xlink" x="0px" y="0px"
	 viewBox="0 0 129.5 129.5" enable-background="new 0 0 129.5 129.5" xml:space="preserve">
<g>
	<g>
		<path fill="#FFFFFF" d="M83,85.5H46.5c-1.4,0-2.5-1.1-2.5-2.5V46.5c0-1.4,1.1-2.5,2.5-2.5H83c1.4,0,2.5,1.1,2.5,2.5V83
			C85.5,84.4,84.4,85.5,83,85.5z"/>
		<polygon fill="#84DBFF" points="73.1,49.9 49.9,49.9 49.9,79.6 79.6,79.6 79.6,56.4 		"/>
		<circle fill="#84DBFF" cx="78.3" cy="51.2" r="1.3"/>
		<path fill="#231F20" d="M125.9,73c-1.7,0-3.2,1.2-3.5,2.9h-11.7l-6.9-4.9c-0.1-0.1-0.3-0.1-0.4-0.1H90.9v-1.2
			c0-0.4-0.3-0.8-0.8-0.8h-3.9v-1.5h3.9c0.4,0,0.8-0.3,0.8-0.8v-1.2h21c0.3,1.6,1.8,2.9,3.5,2.9c2,0,3.6-1.6,3.6-3.6
			c0-2-1.6-3.6-3.6-3.6c-1.7,0-3.2,1.2-3.5,2.9h-21v-1.2c0-0.4-0.3-0.8-0.8-0.8h-3.9v-1.5h3.9c0.4,0,0.8-0.3,0.8-0.8v-1.2h11
			c0.2,0,0.3,0,0.4-0.1l6.9-4.9h11.6c0.3,1.6,1.8,2.9,3.5,2.9c2,0,3.6-1.6,3.6-3.6c0-2-1.6-3.6-3.6-3.6c-1.7,0-3.2,1.2-3.5,2.9
			h-11.8c-0.2,0-0.3,0-0.4,0.1l-6.9,4.9H90.9V56c0-0.4-0.3-0.8-0.8-0.8h-3.9v-1.5h3.9c0.4,0,0.8-0.3,0.8-0.8v-1.2h6.4
			c0.3,1.6,1.8,2.9,3.5,2.9c2,0,3.6-1.6,3.6-3.6c0-2-1.6-3.6-3.6-3.6c-1.7,0-3.2,1.2-3.5,2.9h-6.4v-1.2c0-0.4-0.3-0.8-0.8-0.8h-3.9
			v-1.9c0-1.8-1.5-3.3-3.3-3.3h-1.9v-3.9c0-0.4-0.3-0.8-0.8-0.8h-1.2v-7.8c1.6-0.3,2.9-1.8,2.9-3.5c0-2-1.6-3.6-3.6-3.6
			c-2,0-3.6,1.6-3.6,3.6c0,1.7,1.2,3.2,2.9,3.5v7.8h-1.2c-0.4,0-0.8,0.3-0.8,0.8v3.9h-1.5v-3.9c0-0.4-0.3-0.8-0.8-0.8h-1.1V26.5
			l4.9-6.9c0.1-0.1,0.1-0.3,0.1-0.4v-12c1.6-0.3,2.9-1.8,2.9-3.5c0-2-1.6-3.6-3.6-3.6c-2,0-3.6,1.6-3.6,3.6c0,1.7,1.2,3.2,2.9,3.5
			v11.7L71,25.8c-0.1,0.1-0.1,0.3-0.1,0.4v12.4h-1.2c-0.4,0-0.8,0.3-0.8,0.8v3.9h-1.5v-3.9c0-0.4-0.3-0.8-0.8-0.8h-1.2v-21
			c1.6-0.3,2.9-1.8,2.9-3.5c0-2-1.6-3.6-3.6-3.6c-2,0-3.6,1.6-3.6,3.6c0,1.7,1.2,3.2,2.9,3.5v21h-1.2c-0.4,0-0.8,0.3-0.8,0.8v3.9
			h-1.5v-3.9c0-0.4-0.3-0.8-0.8-0.8h-1.2v-11c0-0.2,0-0.3-0.1-0.4l-4.9-6.9l0-11.6c1.6-0.3,2.9-1.8,2.9-3.5c0-2-1.6-3.6-3.6-3.6
			c-2,0-3.6,1.6-3.6,3.6c0,1.7,1.2,3.2,2.9,3.5l0,11.8c0,0.2,0,0.3,0.1,0.4l4.9,6.9v10.7H56c-0.4,0-0.8,0.3-0.8,0.8v3.9h-1.5v-3.9
			c0-0.4-0.3-0.8-0.8-0.8h-1.2v-6.4c1.6-0.3,2.9-1.8,2.9-3.5c0-2-1.6-3.6-3.6-3.6c-2,0-3.6,1.6-3.6,3.6c0,1.7,1.2,3.2,2.9,3.5v6.4
			h-1.2c-0.4,0-0.8,0.3-0.8,0.8v3.9h-1.9c-1.8,0-3.3,1.5-3.3,3.3v1.9h-3.9c-0.4,0-0.8,0.3-0.8,0.8v1.2h-7.8
			c-0.3-1.6-1.8-2.9-3.5-2.9c-2,0-3.6,1.6-3.6,3.6c0,2,1.6,3.6,3.6,3.6c1.7,0,3.2-1.2,3.5-2.9h7.8V53c0,0.4,0.3,0.8,0.8,0.8h3.9v1.5
			h-3.9c-0.4,0-0.8,0.3-0.8,0.8v1.1H26.5l-6.9-4.9c-0.1-0.1-0.3-0.1-0.4-0.1h-12c-0.3-1.6-1.8-2.9-3.5-2.9c-2,0-3.6,1.6-3.6,3.6
			c0,2,1.6,3.6,3.6,3.6c1.7,0,3.2-1.2,3.5-2.9h11.7l6.9,4.9c0.1,0.1,0.3,0.1,0.4,0.1h12.4v1.2c0,0.4,0.3,0.8,0.8,0.8h3.9v1.5h-3.9
			c-0.4,0-0.8,0.3-0.8,0.8V64h-21c-0.3-1.6-1.8-2.9-3.5-2.9c-2,0-3.6,1.6-3.6,3.6c0,2,1.6,3.6,3.6,3.6c1.7,0,3.2-1.2,3.5-2.9h21v1.2
			c0,0.4,0.3,0.8,0.8,0.8h3.9v1.5h-3.9c-0.4,0-0.8,0.3-0.8,0.8v1.2h-11c-0.2,0-0.3,0-0.4,0.1l-6.9,4.9H8.7C8.4,74.2,6.9,73,5.2,73
			c-2,0-3.6,1.6-3.6,3.6c0,2,1.6,3.6,3.6,3.6c1.7,0,3.2-1.2,3.5-2.9h11.8c0.2,0,0.3,0,0.4-0.1l6.9-4.9h10.7v1.1
			c0,0.4,0.3,0.8,0.8,0.8h3.9v1.5h-3.9c-0.4,0-0.8,0.3-0.8,0.8v1.2h-6.4c-0.3-1.6-1.8-2.9-3.5-2.9c-2,0-3.6,1.6-3.6,3.6
			c0,2,1.6,3.6,3.6,3.6c1.7,0,3.2-1.2,3.5-2.9h6.4v1.2c0,0.4,0.3,0.8,0.8,0.8h3.9V83c0,1.8,1.5,3.3,3.3,3.3h1.9v3.9
			c0,0.4,0.3,0.8,0.8,0.8h1.2l0,7.8c-1.6,0.3-2.9,1.8-2.9,3.5c0,2,1.6,3.6,3.6,3.6c2,0,3.6-1.6,3.6-3.6c0-1.7-1.2-3.2-2.9-3.5l0-7.8
			H53c0.4,0,0.8-0.3,0.8-0.8v-3.9h1.5v3.9c0,0.4,0.3,0.8,0.8,0.8h1.1V103l-4.9,6.9c-0.1,0.1-0.1,0.3-0.1,0.4v12
			c-1.6,0.3-2.9,1.8-2.9,3.5c0,2,1.6,3.6,3.6,3.6c2,0,3.6-1.6,3.6-3.6c0-1-0.4-1.9-1.1-2.6c-0.5-0.5-1.1-0.8-1.8-1v-11.7l4.9-6.9
			c0.1-0.1,0.1-0.3,0.1-0.4V90.9h1.2c0.4,0,0.8-0.3,0.8-0.8v-3.9h1.5v3.9c0,0.4,0.3,0.8,0.8,0.8H64l0,21c-1.6,0.3-2.9,1.8-2.9,3.5
			c0,2,1.6,3.6,3.6,3.6c2,0,3.6-1.6,3.6-3.6c0-1.7-1.2-3.2-2.9-3.5l0-21h1.2c0.4,0,0.8-0.3,0.8-0.8v-3.9h1.5v3.9
			c0,0.4,0.3,0.8,0.8,0.8h1.2v11c0,0.2,0,0.3,0.1,0.4l4.9,6.9v11.6c-1.6,0.3-2.9,1.8-2.9,3.5c0,2,1.6,3.6,3.6,3.6s3.6-1.6,3.6-3.6
			c0-1.7-1.2-3.2-2.9-3.5v-11.8c0-0.2,0-0.3-0.1-0.4l-4.9-6.9V90.9h1.1c0.4,0,0.8-0.3,0.8-0.8v-3.9h1.5v3.9c0,0.4,0.3,0.8,0.8,0.8
			h1.2v6.4c-1.6,0.3-2.9,1.8-2.9,3.5c0,2,1.6,3.6,3.6,3.6c2,0,3.6-1.6,3.6-3.6c0-1.7-1.2-3.2-2.9-3.5v-6.4h1.2
			c0.4,0,0.8-0.3,0.8-0.8v-3.9H83c1.8,0,3.3-1.5,3.3-3.3v-1.9h3.9c0.4,0,0.8-0.3,0.8-0.8v-1.2h7.8c0.3,1.6,1.8,2.9,3.5,2.9
			c2,0,3.6-1.6,3.6-3.6c0-2-1.6-3.6-3.6-3.6c-1.7,0-3.2,1.2-3.5,2.9h-7.8v-1.2c0-0.4-0.3-0.8-0.8-0.8h-3.9v-1.5h3.9
			c0.4,0,0.8-0.3,0.8-0.8v-1.1H103l6.9,4.9c0.1,0.1,0.3,0.1,0.4,0.1h12c0.3,1.6,1.8,2.9,3.5,2.9c2,0,3.6-1.6,3.6-3.6
			C129.5,74.6,127.9,73,125.9,73z M115.4,62.6c1.2,0,2.1,1,2.1,2.1s-1,2.1-2.1,2.1s-2.1-1-2.1-2.1S114.2,62.6,115.4,62.6z
			 M124.3,50.8c1.2,0,2.1,1,2.1,2.1c0,1.2-1,2.1-2.1,2.1s-2.1-1-2.1-2.1C122.2,51.7,123.1,50.8,124.3,50.8z M100.8,49
			c1.2,0,2.1,1,2.1,2.1c0,1.2-1,2.1-2.1,2.1c-1.2,0-2.1-1-2.1-2.1C98.7,49.9,99.7,49,100.8,49z M74.5,3.6c0-1.2,1-2.1,2.1-2.1
			c1.2,0,2.1,1,2.1,2.1s-1,2.1-2.1,2.1C75.4,5.7,74.5,4.8,74.5,3.6z M50.8,5.2c0-1.2,1-2.1,2.1-2.1c1.2,0,2.1,1,2.1,2.1
			s-1,2.1-2.1,2.1C51.7,7.3,50.8,6.4,50.8,5.2z M27.2,53.2c-1.2,0-2.1-1-2.1-2.1c0-1.2,1-2.1,2.1-2.1s2.1,1,2.1,2.1
			C29.4,52.3,28.4,53.2,27.2,53.2z M43.2,52.3h-3.1v-2.3h3.1V52.3z M3.6,55c-1.2,0-2.1-1-2.1-2.1c0-1.2,1-2.1,2.1-2.1s2.1,1,2.1,2.1
			C5.7,54.1,4.8,55,3.6,55z M43.2,59.1h-3.1v-2.3h3.1V59.1z M14.1,66.9c-1.2,0-2.1-1-2.1-2.1s1-2.1,2.1-2.1c1.2,0,2.1,1,2.1,2.1
			S15.3,66.9,14.1,66.9z M43.2,65.9h-3.1v-2.3h3.1V65.9z M5.2,78.7c-1.2,0-2.1-1-2.1-2.1s1-2.1,2.1-2.1c1.2,0,2.1,1,2.1,2.1
			S6.4,78.7,5.2,78.7z M43.2,72.7h-3.1v-2.3h3.1V72.7z M28.7,80.5c-1.2,0-2.1-1-2.1-2.1c0-1.2,1-2.1,2.1-2.1s2.1,1,2.1,2.1
			C30.8,79.6,29.8,80.5,28.7,80.5z M43.2,79.6h-3.1v-2.3h3.1V79.6z M54.4,124.4c0.4,0.4,0.6,0.9,0.6,1.5c0,1.2-1,2.1-2.1,2.1
			c-1.2,0-2.1-1-2.1-2.1c0-1.2,1-2.1,2.1-2.1C53.5,123.8,54,124,54.4,124.4z M78.7,124.3c0,1.2-1,2.1-2.1,2.1c-1.2,0-2.1-1-2.1-2.1
			s1-2.1,2.1-2.1C77.8,122.2,78.7,123.1,78.7,124.3z M76.3,27.2c0-1.2,1-2.1,2.1-2.1c1.2,0,2.1,1,2.1,2.1c0,1.2-1,2.1-2.1,2.1
			C77.2,29.4,76.3,28.4,76.3,27.2z M77.2,40.1h2.3v3.1h-2.3V40.1z M70.4,40.1h2.3v3.1h-2.3V40.1z M62.6,14.1c0-1.2,1-2.1,2.1-2.1
			c1.2,0,2.1,1,2.1,2.1s-1,2.1-2.1,2.1C63.6,16.2,62.6,15.3,62.6,14.1z M63.6,40.1h2.3v3.1h-2.3V40.1z M56.8,40.1h2.3v3.1h-2.3V40.1
			z M49,28.7c0-1.2,1-2.1,2.1-2.1c1.2,0,2.1,1,2.1,2.1s-1,2.1-2.1,2.1C49.9,30.8,49,29.8,49,28.7z M49.9,40.1h2.3v3.1h-2.3V40.1z
			 M53.2,102.3c0,1.2-1,2.1-2.1,2.1c-1.2,0-2.1-1-2.1-2.1s1-2.1,2.1-2.1C52.3,100.1,53.2,101.1,53.2,102.3z M52.3,89.4h-2.3v-3.1
			h2.3V89.4z M59.1,89.4h-2.3v-3.1h2.3V89.4z M66.9,115.4c0,1.2-1,2.1-2.1,2.1c-1.2,0-2.1-1-2.1-2.1c0-1.2,1-2.1,2.1-2.1
			C65.9,113.3,66.9,114.2,66.9,115.4z M65.9,89.4h-2.3v-3.1h2.3V89.4z M72.7,89.4h-2.3v-3.1h2.3V89.4z M80.5,100.8
			c0,1.2-1,2.1-2.1,2.1c-1.2,0-2.1-1-2.1-2.1c0-1.2,1-2.1,2.1-2.1C79.6,98.7,80.5,99.7,80.5,100.8z M79.6,89.4h-2.3v-3.1h2.3V89.4z
			 M84.8,83c0,1-0.8,1.8-1.8,1.8H46.5c-1,0-1.8-0.8-1.8-1.8V46.5c0-1,0.8-1.8,1.8-1.8H83c1,0,1.8,0.8,1.8,1.8V83z M102.3,76.3
			c1.2,0,2.1,1,2.1,2.1c0,1.2-1,2.1-2.1,2.1c-1.2,0-2.1-1-2.1-2.1C100.1,77.2,101.1,76.3,102.3,76.3z M89.4,63.6v2.3h-3.1v-2.3H89.4
			z M89.4,56.8v2.3h-3.1v-2.3H89.4z M89.4,49.9v2.3h-3.1v-2.3H89.4z M89.4,77.2v2.3h-3.1v-2.3H89.4z M89.4,72.7h-3.1v-2.3h3.1V72.7z
			 M125.9,78.7c-1.2,0-2.1-1-2.1-2.1s1-2.1,2.1-2.1c1.2,0,2.1,1,2.1,2.1S127,78.7,125.9,78.7z"/>
		<g>
			<path fill="#231F20" d="M113.9,16.4c-0.2,0-0.4-0.1-0.5-0.2c-0.3-0.3-0.3-0.8,0-1.1l1.3-1.3c0.3-0.3,0.8-0.3,1.1,0
				c0.3,0.3,0.3,0.8,0,1.1l-1.3,1.3C114.3,16.3,114.1,16.4,113.9,16.4z"/>
		</g>
		<g>
			<path fill="#231F20" d="M109.8,20.4c-0.2,0-0.4-0.1-0.5-0.2c-0.3-0.3-0.3-0.8,0-1.1l1.3-1.3c0.3-0.3,0.8-0.3,1.1,0
				c0.3,0.3,0.3,0.8,0,1.1l-1.3,1.3C110.2,20.3,110,20.4,109.8,20.4z"/>
		</g>
		<g>
			<path fill="#231F20" d="M115.2,20.4c-0.2,0-0.4-0.1-0.5-0.2l-1.3-1.3c-0.3-0.3-0.3-0.8,0-1.1c0.3-0.3,0.8-0.3,1.1,0l1.3,1.3
				c0.3,0.3,0.3,0.8,0,1.1C115.6,20.3,115.4,20.4,115.2,20.4z"/>
		</g>
		<g>
			<path fill="#231F20" d="M111.1,16.4c-0.2,0-0.4-0.1-0.5-0.2l-1.3-1.3c-0.3-0.3-0.3-0.8,0-1.1c0.3-0.3,0.8-0.3,1.1,0l1.3,1.3
				c0.3,0.3,0.3,0.8,0,1.1C111.5,16.3,111.3,16.4,111.1,16.4z"/>
		</g>
		<g>
			<path fill="#231F20" d="M24.3,27.6c-0.2,0-0.4-0.1-0.5-0.2c-0.3-0.3-0.3-0.8,0-1.1l1.3-1.3c0.3-0.3,0.8-0.3,1.1,0
				c0.3,0.3,0.3,0.8,0,1.1l-1.3,1.3C24.7,27.5,24.5,27.6,24.3,27.6z"/>
		</g>
		<g>
			<path fill="#231F20" d="M20.3,31.6c-0.2,0-0.4-0.1-0.5-0.2c-0.3-0.3-0.3-0.8,0-1.1L21,29c0.3-0.3,0.8-0.3,1.1,0
				c0.3,0.3,0.3,0.8,0,1.1l-1.3,1.3C20.6,31.5,20.5,31.6,20.3,31.6z"/>
		</g>
		<g>
			<path fill="#231F20" d="M25.6,31.6c-0.2,0-0.4-0.1-0.5-0.2l-1.3-1.3c-0.3-0.3-0.3-0.8,0-1.1c0.3-0.3,0.8-0.3,1.1,0l1.3,1.3
				c0.3,0.3,0.3,0.8,0,1.1C26,31.5,25.8,31.6,25.6,31.6z"/>
		</g>
		<g>
			<path fill="#231F20" d="M21.6,27.6c-0.2,0-0.4-0.1-0.5-0.2L19.7,26c-0.3-0.3-0.3-0.8,0-1.1c0.3-0.3,0.8-0.3,1.1,0l1.3,1.3
				c0.3,0.3,0.3,0.8,0,1.1C21.9,27.5,21.7,27.6,21.6,27.6z"/>
		</g>
		<g>
			<path fill="#231F20" d="M106.5,105.9c-0.2,0-0.4-0.1-0.5-0.2c-0.3-0.3-0.3-0.8,0-1.1l1.3-1.3c0.3-0.3,0.8-0.3,1.1,0
				c0.3,0.3,0.3,0.8,0,1.1l-1.3,1.3C106.9,105.9,106.7,105.9,106.5,105.9z"/>
		</g>
		<g>
			<path fill="#231F20" d="M102.5,110c-0.2,0-0.4-0.1-0.5-0.2c-0.3-0.3-0.3-0.8,0-1.1l1.3-1.3c0.3-0.3,0.8-0.3,1.1,0
				c0.3,0.3,0.3,0.8,0,1.1l-1.3,1.3C102.8,109.9,102.7,110,102.5,110z"/>
		</g>
		<g>
			<path fill="#231F20" d="M107.8,110c-0.2,0-0.4-0.1-0.5-0.2l-1.3-1.3c-0.3-0.3-0.3-0.8,0-1.1c0.3-0.3,0.8-0.3,1.1,0l1.3,1.3
				c0.3,0.3,0.3,0.8,0,1.1C108.2,109.9,108,110,107.8,110z"/>
		</g>
		<g>
			<path fill="#231F20" d="M103.8,105.9c-0.2,0-0.4-0.1-0.5-0.2l-1.3-1.3c-0.3-0.3-0.3-0.8,0-1.1c0.3-0.3,0.8-0.3,1.1,0l1.3,1.3
				c0.3,0.3,0.3,0.8,0,1.1C104.1,105.9,104,105.9,103.8,105.9z"/>
		</g>
		<g>
			<path fill="#231F20" d="M24.7,103.7c0-0.4-0.3-0.8-0.8-0.8h-8.2c-0.4,0-0.8,0.3-0.8,0.8c0,0.4,0.3,0.8,0.8,0.8H24
				C24.4,104.4,24.7,104.1,24.7,103.7z"/>
			<path fill="#231F20" d="M27.2,105.9h-4c-0.4,0-0.8,0.3-0.8,0.8c0,0.4,0.3,0.8,0.8,0.8h4c0.4,0,0.8-0.3,0.8-0.8
				C27.9,106.3,27.6,105.9,27.2,105.9z"/>
			<path fill="#231F20" d="M31.5,102.9h-3.8c-0.4,0-0.8,0.3-0.8,0.8c0,0.4,0.3,0.8,0.8,0.8h3.8c0.4,0,0.7-0.3,0.7-0.8
				C32.2,103.3,31.9,102.9,31.5,102.9z"/>
			<path fill="#231F20" d="M20.3,105.9h-0.8c-0.4,0-0.8,0.3-0.8,0.8c0,0.4,0.3,0.8,0.8,0.8h0.8c0.4,0,0.8-0.3,0.8-0.8
				C21,106.3,20.7,105.9,20.3,105.9z"/>
		</g>
		<circle fill="#E6E9EE" cx="115.4" cy="35.5" r="2.2"/>
		<circle fill="#FF7058" cx="87.8" cy="19" r="2.2"/>
		<circle fill="#FFD05B" cx="30.2" cy="14.1" r="2.2"/>
		<circle fill="#E6E9EE" cx="14.1" cy="92.3" r="2.2"/>
		<circle fill="#84DBFF" cx="115.4" cy="94" r="2.2"/>
	</g>
</g>
</svg>
