<?xml version="1.0" encoding="utf-8"?>
<!-- Generator: Adobe Illustrator 18.0.0, SVG Export Plug-In . SVG Version: 6.00 Build 0)  -->
<!DOCTYPE svg PUBLIC "-//W3C//DTD SVG 1.1//EN" "http://www.w3.org/Graphics/SVG/1.1/DTD/svg11.dtd">
<svg version="1.1" id="Layer_1" xmlns="http://www.w3.org/2000/svg" xmlns:xlink="http://www.w3.org/1999/xlink" x="0px" y="0px"
	 viewBox="0 0 129.5 129.5" enable-background="new 0 0 129.5 129.5" xml:space="preserve">
<g>
	<g>
		<rect x="0.8" y="20.7" fill="#E6E9EE" width="128" height="5.5"/>
		<path fill="#231F20" d="M109.4,49.2c-0.2,0-0.4-0.1-0.5-0.2c-0.3-0.3-0.3-0.8,0-1.1l1.3-1.3c0.3-0.3,0.8-0.3,1.1,0
			c0.3,0.3,0.3,0.8,0,1.1l-1.3,1.3C109.8,49.2,109.6,49.2,109.4,49.2z"/>
		<path fill="#231F20" d="M105.3,53.3c-0.2,0-0.4-0.1-0.5-0.2c-0.3-0.3-0.3-0.8,0-1.1l1.3-1.3c0.3-0.3,0.8-0.3,1.1,0
			c0.3,0.3,0.3,0.8,0,1.1l-1.3,1.3C105.7,53.2,105.5,53.3,105.3,53.3z"/>
		<path fill="#231F20" d="M110.7,53.3c-0.2,0-0.4-0.1-0.5-0.2l-1.3-1.3c-0.3-0.3-0.3-0.8,0-1.1c0.3-0.3,0.8-0.3,1.1,0l1.3,1.3
			c0.3,0.3,0.3,0.8,0,1.1C111,53.2,110.8,53.3,110.7,53.3z"/>
		<path fill="#231F20" d="M106.6,49.2c-0.2,0-0.4-0.1-0.5-0.2l-1.3-1.3c-0.3-0.3-0.3-0.8,0-1.1c0.3-0.3,0.8-0.3,1.1,0l1.3,1.3
			c0.3,0.3,0.3,0.8,0,1.1C107,49.2,106.8,49.2,106.6,49.2z"/>
		<path fill="#231F20" d="M18.2,3.7c-0.2,0-0.4-0.1-0.5-0.2c-0.3-0.3-0.3-0.8,0-1.1L19,1.1c0.3-0.3,0.8-0.3,1.1,0
			c0.3,0.3,0.3,0.8,0,1.1l-1.3,1.3C18.6,3.6,18.4,3.7,18.2,3.7z"/>
		<path fill="#231F20" d="M14.2,7.7c-0.2,0-0.4-0.1-0.5-0.2c-0.3-0.3-0.3-0.8,0-1.1L15,5.1c0.3-0.3,0.8-0.3,1.1,0
			c0.3,0.3,0.3,0.8,0,1.1l-1.3,1.3C14.6,7.6,14.4,7.7,14.2,7.7z"/>
		<path fill="#231F20" d="M19.5,7.7c-0.2,0-0.4-0.1-0.5-0.2l-1.3-1.3c-0.3-0.3-0.3-0.8,0-1.1c0.3-0.3,0.8-0.3,1.1,0L20,6.4
			c0.3,0.3,0.3,0.8,0,1.1C19.9,7.6,19.7,7.7,19.5,7.7z"/>
		<path fill="#231F20" d="M15.5,3.7c-0.2,0-0.4-0.1-0.5-0.2l-1.3-1.3c-0.3-0.3-0.3-0.8,0-1.1c0.3-0.3,0.8-0.3,1.1,0L16,2.4
			c0.3,0.3,0.3,0.8,0,1.1C15.9,3.6,15.7,3.7,15.5,3.7z"/>
		<path fill="#231F20" d="M16.9,92.7c-0.2,0-0.4-0.1-0.5-0.2c-0.3-0.3-0.3-0.8,0-1.1l1.3-1.3c0.3-0.3,0.8-0.3,1.1,0
			c0.3,0.3,0.3,0.8,0,1.1l-1.3,1.3C17.3,92.6,17.1,92.7,16.9,92.7z"/>
		<path fill="#231F20" d="M12.9,96.7c-0.2,0-0.4-0.1-0.5-0.2c-0.3-0.3-0.3-0.8,0-1.1l1.3-1.3c0.3-0.3,0.8-0.3,1.1,0
			c0.3,0.3,0.3,0.8,0,1.1l-1.3,1.3C13.3,96.7,13.1,96.7,12.9,96.7z"/>
		<path fill="#231F20" d="M18.2,96.7c-0.2,0-0.4-0.1-0.5-0.2l-1.3-1.3c-0.3-0.3-0.3-0.8,0-1.1c0.3-0.3,0.8-0.3,1.1,0l1.3,1.3
			c0.3,0.3,0.3,0.8,0,1.1C18.6,96.7,18.4,96.7,18.2,96.7z"/>
		<path fill="#231F20" d="M14.2,92.7c-0.2,0-0.4-0.1-0.5-0.2l-1.3-1.3c-0.3-0.3-0.3-0.8,0-1.1c0.3-0.3,0.8-0.3,1.1,0l1.3,1.3
			c0.3,0.3,0.3,0.8,0,1.1C14.6,92.6,14.4,92.7,14.2,92.7z"/>
		<path fill="#231F20" d="M23.8,65.7h-7.5c-0.4,0-0.7-0.3-0.7-0.8c0-0.4,0.3-0.8,0.7-0.8h7.5c0.4,0,0.8,0.3,0.8,0.8
			C24.6,65.4,24.2,65.7,23.8,65.7z"/>
		<path fill="#231F20" d="M28.7,65.7h-2.1c-0.4,0-0.8-0.3-0.8-0.8c0-0.4,0.3-0.8,0.8-0.8h2.1c0.4,0,0.8,0.3,0.8,0.8
			C29.5,65.4,29.2,65.7,28.7,65.7z"/>
		<path fill="#231F20" d="M25.9,68.4h-2.1c-0.4,0-0.8-0.3-0.8-0.8c0-0.4,0.3-0.8,0.8-0.8h2.1c0.4,0,0.8,0.3,0.8,0.8
			C26.6,68.1,26.3,68.4,25.9,68.4z"/>
		<path fill="#231F20" d="M107.3,113.6h-7.5c-0.4,0-0.8-0.3-0.8-0.8c0-0.4,0.3-0.8,0.8-0.8h7.5c0.4,0,0.8,0.3,0.8,0.8
			C108,113.3,107.7,113.6,107.3,113.6z"/>
		<path fill="#231F20" d="M112.2,113.6h-2.1c-0.4,0-0.8-0.3-0.8-0.8c0-0.4,0.3-0.8,0.8-0.8h2.1c0.4,0,0.8,0.3,0.8,0.8
			C113,113.3,112.6,113.6,112.2,113.6z"/>
		<path fill="#231F20" d="M109.3,116.3h-2.1c-0.4,0-0.8-0.3-0.8-0.8c0-0.4,0.3-0.8,0.8-0.8h2.1c0.4,0,0.8,0.3,0.8,0.8
			C110.1,116,109.8,116.3,109.3,116.3z"/>
		<circle fill="#FFFFFF" cx="65.2" cy="23.4" r="22.7"/>
		<path fill="#231F20" d="M64.5,42.8c-0.3,0-0.7,0-1-0.1l0.1-1.5c0.3,0,0.6,0,1,0.1L64.5,42.8z M66.5,42.7l-0.1-1.5
			c0.3,0,0.6-0.1,1-0.1l0.2,1.5C67.2,42.7,66.9,42.7,66.5,42.7z M61.4,42.4c-0.3-0.1-0.7-0.1-1-0.2l0.4-1.5c0.3,0.1,0.6,0.2,0.9,0.2
			L61.4,42.4z M69.6,42.3l-0.3-1.5c0.3-0.1,0.6-0.2,0.9-0.2l0.4,1.4C70.3,42.1,70,42.2,69.6,42.3z M58.4,41.6
			c-0.3-0.1-0.6-0.3-1-0.4l0.6-1.4c0.3,0.1,0.6,0.3,0.9,0.4L58.4,41.6z M72.6,41.3L72,40c0.3-0.1,0.6-0.3,0.9-0.4l0.6,1.4
			C73.2,41.1,72.9,41.2,72.6,41.3z M55.6,40.2c-0.3-0.2-0.6-0.4-0.9-0.5l0.8-1.3c0.3,0.2,0.5,0.3,0.8,0.5L55.6,40.2z M75.4,39.9
			l-0.8-1.3c0.3-0.2,0.5-0.3,0.8-0.5l0.9,1.2C76,39.5,75.7,39.7,75.4,39.9z M53,38.5c-0.3-0.2-0.5-0.4-0.8-0.7l1-1.1
			c0.2,0.2,0.5,0.4,0.7,0.6L53,38.5z M77.9,38.1l-1-1.1c0.2-0.2,0.5-0.4,0.7-0.6l1,1.1C78.4,37.6,78.1,37.9,77.9,38.1z M50.7,36.3
			c-0.2-0.3-0.5-0.5-0.7-0.8l1.2-0.9c0.2,0.3,0.4,0.5,0.6,0.7L50.7,36.3z M80.1,35.9l-1.2-1c0.2-0.2,0.4-0.5,0.6-0.8l1.2,0.9
			C80.5,35.3,80.3,35.6,80.1,35.9z M48.9,33.8c-0.2-0.3-0.4-0.6-0.5-0.9l1.3-0.7c0.2,0.3,0.3,0.6,0.5,0.8L48.9,33.8z M81.9,33.3
			l-1.3-0.8c0.2-0.3,0.3-0.6,0.5-0.8l1.3,0.7C82.2,32.7,82.1,33,81.9,33.3z M47.4,31.1c-0.1-0.3-0.3-0.6-0.4-1l1.4-0.5
			c0.1,0.3,0.2,0.6,0.4,0.9L47.4,31.1z M83.3,30.5L81.9,30c0.1-0.3,0.2-0.6,0.3-0.9l1.4,0.5C83.5,29.9,83.4,30.2,83.3,30.5z
			 M46.4,28.1c-0.1-0.3-0.2-0.7-0.2-1l1.5-0.3c0.1,0.3,0.1,0.6,0.2,0.9L46.4,28.1z M84.2,27.5l-1.5-0.3c0.1-0.3,0.1-0.6,0.2-0.9
			l1.5,0.2C84.3,26.9,84.2,27.2,84.2,27.5z M45.9,25c0-0.3,0-0.7-0.1-1l1.5,0c0,0.3,0,0.6,0.1,1L45.9,25z M84.6,24.4l-1.5-0.1
			c0-0.3,0-0.6,0-1l0-0.1l1.5,0l0,0.1C84.6,23.8,84.6,24.1,84.6,24.4z M47.4,22l-1.5-0.1c0-0.3,0.1-0.7,0.1-1l1.5,0.2
			C47.4,21.4,47.4,21.7,47.4,22z M83,21.4c0-0.3-0.1-0.6-0.1-1l1.5-0.3c0.1,0.3,0.1,0.7,0.1,1L83,21.4z M47.8,19.2l-1.5-0.4
			c0.1-0.3,0.2-0.7,0.3-1l1.4,0.4C48,18.6,47.9,18.9,47.8,19.2z M82.4,18.5c-0.1-0.3-0.2-0.6-0.3-0.9l1.4-0.5c0.1,0.3,0.2,0.7,0.3,1
			L82.4,18.5z M48.7,16.5l-1.4-0.6c0.1-0.3,0.3-0.6,0.4-0.9l1.4,0.7C49,15.9,48.8,16.2,48.7,16.5z M81.4,15.8
			c-0.1-0.3-0.3-0.6-0.4-0.9l1.3-0.7c0.2,0.3,0.3,0.6,0.5,0.9L81.4,15.8z M50.1,13.9l-1.3-0.8c0.2-0.3,0.4-0.6,0.6-0.9l1.2,0.9
			C50.4,13.4,50.2,13.6,50.1,13.9z M80,13.3c-0.2-0.3-0.4-0.5-0.6-0.8l1.2-0.9c0.2,0.3,0.4,0.6,0.6,0.8L80,13.3z M51.8,11.6l-1.1-1
			c0.2-0.3,0.5-0.5,0.7-0.8l1.1,1C52.2,11.1,52,11.4,51.8,11.6z M78.2,11.1c-0.2-0.2-0.4-0.5-0.7-0.7l1-1.1c0.3,0.2,0.5,0.5,0.7,0.7
			L78.2,11.1z M53.8,9.6l-1-1.2c0.3-0.2,0.5-0.4,0.8-0.6L54.6,9C54.3,9.2,54.1,9.4,53.8,9.6z M76.1,9.2c-0.3-0.2-0.5-0.4-0.8-0.6
			l0.8-1.2C76.4,7.6,76.7,7.8,77,8L76.1,9.2z M56.2,8l-0.8-1.3c0.3-0.2,0.6-0.3,0.9-0.5L57,7.5C56.7,7.6,56.5,7.8,56.2,8z M73.6,7.6
			c-0.3-0.2-0.6-0.3-0.9-0.4l0.6-1.4C73.7,6,74,6.1,74.3,6.3L73.6,7.6z M58.8,6.7l-0.5-1.4c0.3-0.1,0.6-0.2,1-0.3l0.5,1.4
			C59.4,6.5,59.1,6.6,58.8,6.7z M71,6.5c-0.3-0.1-0.6-0.2-0.9-0.3l0.4-1.4c0.3,0.1,0.7,0.2,1,0.3L71,6.5z M61.5,5.9l-0.3-1.5
			c0.3-0.1,0.7-0.1,1-0.2l0.2,1.5C62.2,5.8,61.9,5.8,61.5,5.9z M68.2,5.8c-0.3-0.1-0.6-0.1-1-0.1l0.2-1.5c0.3,0,0.7,0.1,1,0.1
			L68.2,5.8z M64.4,5.5L64.3,4c0.3,0,0.6,0,0.9,0l0.2,0l0,1.5l-0.1,0C64.9,5.5,64.7,5.5,64.4,5.5z"/>
		<circle fill="#FF7058" cx="65.2" cy="23.4" r="14.7"/>
		<path fill="#231F20" d="M65.2,29.9c-3.6,0-6.5-2.9-6.5-6.5c0-3.6,2.9-6.5,6.5-6.5c3.6,0,6.5,2.9,6.5,6.5
			C71.7,27,68.8,29.9,65.2,29.9z M65.2,18.4c-2.7,0-5,2.2-5,5c0,2.7,2.2,5,5,5c2.7,0,5-2.2,5-5C70.2,20.7,68,18.4,65.2,18.4z"/>
		<path fill="#231F20" d="M77.4,23.4h-1.5c0-5.9-4.8-10.7-10.7-10.7v-1.5C71.9,11.2,77.4,16.7,77.4,23.4z"/>
		<path fill="#FFFFFF" d="M84.7,78.5l-6.4-9.7c-0.1-0.2-0.3-0.4-0.5-0.6c-1.3-1.3-3.4-1.2-4.6,0.1c-1.3,1.3-1.2,3.4,0.1,4.6l7.2,6.9
			l-4.3,10.2c-0.1,0.2,0,0.4,0.1,0.5c0.2,0.1,0.4,0.1,0.6-0.1l7.8-10.1C85.1,79.9,85.1,79.1,84.7,78.5z"/>
		<path fill="#FFFFFF" d="M45.7,78.5l6.4-9.7c0.1-0.2,0.3-0.4,0.5-0.6c1.3-1.3,3.4-1.2,4.6,0.1c1.3,1.3,1.2,3.4-0.1,4.6l-7.2,6.9
			l4.3,10.2c0.1,0.2,0,0.4-0.1,0.5c-0.2,0.1-0.4,0.1-0.6-0.1l-7.8-10.1C45.3,79.9,45.3,79.1,45.7,78.5z"/>
		<path fill="#231F20" d="M86.9,14.6C83.4,6.1,75,0,65.2,0C55.4,0,47,6.1,43.5,14.6H0v17.6h43.5C46,38.2,50.9,43,57,45.3v9.2h3.9v12
			c0,0-6.1,0-6.1,0c-1.1,0-2.1,0.4-2.8,1.1c-0.2,0.2-0.4,0.4-0.6,0.7l-6.4,9.7c-0.6,0.9-0.5,2,0.1,2.8L53,91
			c0.2,0.3,0.6,0.4,0.9,0.4c0.3,0,0.5-0.1,0.7-0.2c0.4-0.3,0.6-0.9,0.4-1.4l-4.1-9.7l5.9-5.7h17.1l5.9,5.7l-4.1,9.7
			c-0.2,0.5-0.1,1,0.4,1.4c0.2,0.2,0.5,0.2,0.7,0.2c0.4,0,0.7-0.2,0.9-0.4l7.8-10.1c0.6-0.8,0.7-1.9,0.1-2.8L79,68.4
			c-0.2-0.2-0.4-0.5-0.6-0.7c-0.8-0.7-1.8-1.1-2.8-1.1c0,0-6.1,0-6.1,0v-12h3.9v-9.2c6.1-2.3,11-7.1,13.5-13.1h42.6V14.6H86.9z
			 M43,30.7H1.5V16.1H43c-0.8,2.3-1.2,4.7-1.2,7.3C41.8,26,42.2,28.4,43,30.7z M52.5,87.9l-6.2-8c-0.2-0.3-0.3-0.7,0-1.1l6.4-9.7
			c0.1-0.2,0.2-0.3,0.4-0.4c0.5-0.5,1.1-0.7,1.8-0.7c0.7,0,1.3,0.3,1.8,0.8c0.5,0.5,0.7,1.1,0.7,1.8c0,0.7-0.3,1.3-0.8,1.8L49,79.7
			L52.5,87.9z M73.8,68.8c0.5-0.5,1.1-0.8,1.8-0.8c0.7,0,1.3,0.3,1.8,0.7c0.1,0.1,0.3,0.3,0.4,0.4l6.4,9.7c0.2,0.3,0.2,0.8,0,1.1
			l-6.2,8l3.5-8.2l-7.5-7.3c-0.5-0.5-0.8-1.1-0.8-1.8C73.1,70,73.3,69.3,73.8,68.8z M72.5,68.1c-0.6,0.7-0.9,1.6-0.9,2.6
			c0,0.8,0.3,1.6,0.7,2.2H58.1c0.5-0.7,0.7-1.4,0.7-2.2c0-1-0.3-1.9-0.9-2.6H72.5z M62.4,66.6v-12H68v12H62.4z M71.9,53H58.5v-7.2
			l0,0c2.1,0.6,4.4,1,6.7,1c2.3,0,4.6-0.4,6.7-1V53z M65.2,45.3c-12.1,0-21.9-9.8-21.9-21.9c0-12.1,9.8-21.9,21.9-21.9
			c12.1,0,21.9,9.8,21.9,21.9C87.1,35.5,77.3,45.3,65.2,45.3z M128,30.7H87.5c0.8-2.3,1.2-4.7,1.2-7.3c0-2.5-0.4-5-1.2-7.3H128V30.7
			z"/>
		<polygon fill="#FFFFFF" points="64.8,90.7 48.2,99.7 64.8,108.7 81.3,99.7 		"/>
		<polygon fill="#FFD05B" points="52.4,99.7 64.8,92.9 77.1,99.7 64.8,106.5 		"/>
		<polygon fill="#FFFFFF" points="48.2,99.7 48.2,119.7 64.8,128.7 64.8,108.7 		"/>
		<g>
			<polygon fill="#FFD05B" points="50.2,118.5 50.2,103.1 62.8,109.9 62.8,125.4 			"/>
		</g>
		<polygon fill="#FFFFFF" points="81.3,99.7 81.3,119.7 64.8,128.7 64.8,108.7 		"/>
		<path fill="#231F20" d="M81.9,99.3C81.9,99.3,81.9,99.3,81.9,99.3c-0.1-0.2-0.2-0.2-0.3-0.3c0,0,0,0,0,0c0,0,0,0,0,0l-16.5-9
			c-0.2-0.1-0.5-0.1-0.7,0l-16.5,9c0,0,0,0,0,0c0,0,0,0,0,0c-0.1,0-0.1,0.1-0.2,0.2c0,0-0.1,0.1-0.1,0.1c-0.1,0.1-0.1,0.2-0.1,0.4
			v20c0,0.3,0.1,0.5,0.4,0.7l16.5,9c0.1,0.1,0.2,0.1,0.4,0.1c0.1,0,0.2,0,0.4-0.1l16.5-9c0.2-0.1,0.4-0.4,0.4-0.7v-20
			C82,99.6,82,99.4,81.9,99.3z M64.8,91.5l15,8.2l-15,8.2l-15-8.2L64.8,91.5z M49,101l15,8.2v18.3l-15-8.2V101z M80.5,119.3l-15,8.2
			v-18.3l15-8.2V119.3z"/>
		<g>
			<polygon fill="#FFD05B" points="66.8,109.9 79.3,103.1 79.3,118.5 66.8,125.4 			"/>
		</g>
		<circle fill="#FF7058" cx="104.3" cy="94.7" r="3"/>
		<circle fill="#84DBFF" cx="22.5" cy="117.2" r="3"/>
		<circle fill="#E6E9EE" cx="112.4" cy="41.1" r="2.2"/>
		<circle fill="#FFD05B" cx="19.5" cy="47.2" r="3"/>
		<circle fill="#324A5E" cx="54.8" cy="70.5" r="1.1"/>
		<circle fill="#324A5E" cx="75.4" cy="70.5" r="1.1"/>
		<path fill="#231F20" d="M105.6,74.4c-2.8,0-5.1-2.3-5.1-5.1c0-2.8,2.3-5.1,5.1-5.1c2.8,0,5.1,2.3,5.1,5.1
			C110.7,72.1,108.4,74.4,105.6,74.4z M105.6,65.7c-2,0-3.6,1.6-3.6,3.6s1.6,3.6,3.6,3.6s3.6-1.6,3.6-3.6S107.6,65.7,105.6,65.7z"/>
	</g>
</g>
</svg>
