<?xml version="1.0" encoding="utf-8"?>
<!-- Generator: Adobe Illustrator 18.0.0, SVG Export Plug-In . SVG Version: 6.00 Build 0)  -->
<!DOCTYPE svg PUBLIC "-//W3C//DTD SVG 1.1//EN" "http://www.w3.org/Graphics/SVG/1.1/DTD/svg11.dtd">
<svg version="1.1" id="Layer_1" xmlns="http://www.w3.org/2000/svg" xmlns:xlink="http://www.w3.org/1999/xlink" x="0px" y="0px"
	 viewBox="0 0 129.5 129.5" enable-background="new 0 0 129.5 129.5" xml:space="preserve">
<g>
	<g>
		<g>
			<g>
				<path fill="#231F20" d="M121.3,17.9c-0.2,0-0.4-0.1-0.5-0.2c-0.3-0.3-0.3-0.8,0-1.1l1.3-1.3c0.3-0.3,0.8-0.3,1.1,0
					c0.3,0.3,0.3,0.8,0,1.1l-1.3,1.3C121.6,17.8,121.4,17.9,121.3,17.9z"/>
			</g>
			<g>
				<path fill="#231F20" d="M117.2,21.9c-0.2,0-0.4-0.1-0.5-0.2c-0.3-0.3-0.3-0.8,0-1.1l1.3-1.3c0.3-0.3,0.8-0.3,1.1,0
					c0.3,0.3,0.3,0.8,0,1.1l-1.3,1.3C117.6,21.8,117.4,21.9,117.2,21.9z"/>
			</g>
			<g>
				<path fill="#231F20" d="M122.5,21.9c-0.2,0-0.4-0.1-0.5-0.2l-1.3-1.3c-0.3-0.3-0.3-0.8,0-1.1c0.3-0.3,0.8-0.3,1.1,0l1.3,1.3
					c0.3,0.3,0.3,0.8,0,1.1C122.9,21.8,122.7,21.9,122.5,21.9z"/>
			</g>
			<g>
				<path fill="#231F20" d="M118.5,17.9c-0.2,0-0.4-0.1-0.5-0.2l-1.3-1.3c-0.3-0.3-0.3-0.8,0-1.1c0.3-0.3,0.8-0.3,1.1,0l1.3,1.3
					c0.3,0.3,0.3,0.8,0,1.1C118.9,17.8,118.7,17.9,118.5,17.9z"/>
			</g>
		</g>
		<g>
			<g>
				<path fill="#231F20" d="M109.2,113c-0.2,0-0.4-0.1-0.5-0.2c-0.3-0.3-0.3-0.8,0-1.1l1.3-1.3c0.3-0.3,0.8-0.3,1.1,0
					c0.3,0.3,0.3,0.8,0,1.1l-1.3,1.3C109.5,112.9,109.3,113,109.2,113z"/>
			</g>
			<g>
				<path fill="#231F20" d="M105.1,117c-0.2,0-0.4-0.1-0.5-0.2c-0.3-0.3-0.3-0.8,0-1.1l1.3-1.3c0.3-0.3,0.8-0.3,1.1,0
					c0.3,0.3,0.3,0.8,0,1.1l-1.3,1.3C105.5,116.9,105.3,117,105.1,117z"/>
			</g>
			<g>
				<path fill="#231F20" d="M110.4,117c-0.2,0-0.4-0.1-0.5-0.2l-1.3-1.3c-0.3-0.3-0.3-0.8,0-1.1c0.3-0.3,0.8-0.3,1.1,0l1.3,1.3
					c0.3,0.3,0.3,0.8,0,1.1C110.8,116.9,110.6,117,110.4,117z"/>
			</g>
			<g>
				<path fill="#231F20" d="M106.4,113c-0.2,0-0.4-0.1-0.5-0.2l-1.3-1.3c-0.3-0.3-0.3-0.8,0-1.1c0.3-0.3,0.8-0.3,1.1,0l1.3,1.3
					c0.3,0.3,0.3,0.8,0,1.1C106.8,112.9,106.6,113,106.4,113z"/>
			</g>
		</g>
		<g>
			<g>
				<path fill="#231F20" d="M36.5,58.1c-0.2,0-0.4-0.1-0.5-0.2c-0.3-0.3-0.3-0.8,0-1.1l1.3-1.3c0.3-0.3,0.8-0.3,1.1,0
					c0.3,0.3,0.3,0.8,0,1.1L37,57.9C36.9,58,36.7,58.1,36.5,58.1z"/>
			</g>
			<g>
				<path fill="#231F20" d="M32.4,62.1c-0.2,0-0.4-0.1-0.5-0.2c-0.3-0.3-0.3-0.8,0-1.1l1.3-1.3c0.3-0.3,0.8-0.3,1.1,0
					c0.3,0.3,0.3,0.8,0,1.1L33,61.9C32.8,62.1,32.6,62.1,32.4,62.1z"/>
			</g>
			<g>
				<path fill="#231F20" d="M37.8,62.1c-0.2,0-0.4-0.1-0.5-0.2l-1.3-1.3c-0.3-0.3-0.3-0.8,0-1.1c0.3-0.3,0.8-0.3,1.1,0l1.3,1.3
					c0.3,0.3,0.3,0.8,0,1.1C38.1,62.1,38,62.1,37.8,62.1z"/>
			</g>
			<g>
				<path fill="#231F20" d="M33.7,58.1c-0.2,0-0.4-0.1-0.5-0.2l-1.3-1.3c-0.3-0.3-0.3-0.8,0-1.1c0.3-0.3,0.8-0.3,1.1,0l1.3,1.3
					c0.3,0.3,0.3,0.8,0,1.1C34.1,58,33.9,58.1,33.7,58.1z"/>
			</g>
		</g>
		<g>
			<polygon fill="#FF7058" points="70.8,129.1 68.7,86.1 60.8,86.1 58.7,129.1 			"/>
		</g>
		<path fill="#231F20" d="M79,45.7l-14.2-26l-14.2,26l7.6,14.7l-3.1,68.7l1.5,0.1L58.8,84h11.9l2.2,45.2l1.5-0.1l-3.1-68.7L79,45.7z
			 M64.8,41c1.5,0,2.6,1.2,2.6,2.6c0,1.5-1.2,2.6-2.6,2.6c-1.5,0-2.6-1.2-2.6-2.6C62.1,42.2,63.3,41,64.8,41z M58.8,82.5L59.7,61
			h10.2l0.8,21.5H58.8z M70.1,59.5H59.4l-7.2-13.8L64,24.1v15.5c-1.9,0.4-3.4,2-3.4,4.1c0,2.3,1.9,4.1,4.1,4.1
			c2.3,0,4.1-1.9,4.1-4.1c0-2-1.5-3.7-3.4-4.1V24.1l11.8,21.6L70.1,59.5z"/>
		<g>
			<path fill="#231F20" d="M64.7,114.3l-0.7,0l0-1.5l0.6,0l0.3,0l0,1.5L64.7,114.3z M67.1,114.3l-0.1-1.5c0.3,0,0.7,0,1-0.1l0.1,1.5
				C67.8,114.3,67.5,114.3,67.1,114.3z M62.1,114.3c-0.3,0-0.7,0-1-0.1l0.1-1.5c0.3,0,0.7,0,1,0.1L62.1,114.3z M70.2,114.1l-0.1-1.5
				c0.3,0,0.7-0.1,1-0.1l0.2,1.5C70.8,114,70.5,114,70.2,114.1z M59,114c-0.3,0-0.7-0.1-1-0.1l0.2-1.5c0.3,0,0.7,0.1,1,0.1L59,114z
				 M73.2,113.7l-0.2-1.5c0.3-0.1,0.6-0.1,1-0.2l0.3,1.5C73.8,113.6,73.5,113.6,73.2,113.7z M56,113.7c-0.3-0.1-0.7-0.1-1-0.2
				l0.3-1.5c0.3,0.1,0.6,0.1,1,0.2L56,113.7z M76.2,113.2l-0.3-1.5c0.3-0.1,0.6-0.1,1-0.2l0.3,1.5C76.8,113,76.5,113.1,76.2,113.2z
				 M53,113.1c-0.3-0.1-0.7-0.1-1-0.2l0.3-1.5c0.3,0.1,0.6,0.1,1,0.2L53,113.1z M79.1,112.4l-0.4-1.4c0.3-0.1,0.6-0.2,0.9-0.3
				l0.4,1.4C79.8,112.3,79.5,112.4,79.1,112.4z M50.1,112.4c-0.3-0.1-0.7-0.2-1-0.3l0.4-1.4c0.3,0.1,0.6,0.2,0.9,0.3L50.1,112.4z
				 M82,111.6l-0.5-1.4c0.3-0.1,0.6-0.2,0.9-0.3l0.5,1.4C82.7,111.4,82.4,111.5,82,111.6z M47.2,111.5c-0.3-0.1-0.6-0.2-1-0.3
				l0.5-1.4c0.3,0.1,0.6,0.2,0.9,0.3L47.2,111.5z M84.9,110.5l-0.5-1.4c0.3-0.1,0.6-0.2,0.9-0.4l0.6,1.4
				C85.5,110.3,85.2,110.4,84.9,110.5z M44.3,110.4c-0.3-0.1-0.6-0.3-0.9-0.4l0.6-1.4c0.3,0.1,0.6,0.3,0.9,0.4L44.3,110.4z
				 M87.7,109.3l-0.6-1.4c0.3-0.1,0.6-0.3,0.9-0.4l0.7,1.4C88.3,109.1,88,109.2,87.7,109.3z M41.5,109.2c-0.3-0.1-0.6-0.3-0.9-0.4
				l0.7-1.3c0.3,0.1,0.6,0.3,0.9,0.4L41.5,109.2z M90.4,108l-0.7-1.3c0.3-0.2,0.6-0.3,0.9-0.5l0.7,1.3C91,107.7,90.7,107.8,90.4,108
				z M38.8,107.8c-0.3-0.2-0.6-0.3-0.9-0.5l0.7-1.3c0.3,0.2,0.6,0.3,0.9,0.5L38.8,107.8z M93.1,106.5l-0.8-1.3
				c0.3-0.2,0.6-0.3,0.8-0.5l0.8,1.3C93.6,106.2,93.3,106.3,93.1,106.5z M36.1,106.3c-0.3-0.2-0.6-0.4-0.9-0.5l0.8-1.3
				c0.3,0.2,0.6,0.4,0.8,0.5L36.1,106.3z M95.6,104.9l-0.8-1.2c0.3-0.2,0.5-0.4,0.8-0.6l0.9,1.2C96.2,104.5,95.9,104.7,95.6,104.9z
				 M33.6,104.7c-0.3-0.2-0.6-0.4-0.8-0.6l0.9-1.2c0.3,0.2,0.5,0.4,0.8,0.6L33.6,104.7z M98.1,103.1l-0.9-1.2
				c0.3-0.2,0.5-0.4,0.8-0.6l0.9,1.2C98.6,102.7,98.3,102.9,98.1,103.1z M31.1,102.9c-0.3-0.2-0.5-0.4-0.8-0.6l0.9-1.2
				c0.3,0.2,0.5,0.4,0.8,0.6L31.1,102.9z M100.4,101.2l-1-1.1c0.3-0.2,0.5-0.4,0.7-0.6l1,1.1C101,100.8,100.7,101,100.4,101.2z
				 M28.8,101c-0.3-0.2-0.5-0.4-0.8-0.7l1-1.1c0.2,0.2,0.5,0.4,0.7,0.7L28.8,101z M102.7,99.2l-1-1.1c0.2-0.2,0.5-0.5,0.7-0.7
				l1.1,1.1C103.2,98.7,102.9,98.9,102.7,99.2z M26.5,98.9c-0.2-0.2-0.5-0.5-0.7-0.7l1.1-1.1c0.2,0.2,0.5,0.5,0.7,0.7L26.5,98.9z
				 M104.8,97l-1.1-1c0.2-0.2,0.4-0.5,0.7-0.7l1.1,1C105.3,96.5,105.1,96.8,104.8,97z M24.4,96.7c-0.2-0.2-0.5-0.5-0.7-0.7l1.1-1
				c0.2,0.2,0.4,0.5,0.7,0.7L24.4,96.7z M106.9,94.7l-1.1-1c0.2-0.3,0.4-0.5,0.6-0.8l1.2,0.9C107.3,94.2,107.1,94.5,106.9,94.7z
				 M22.4,94.5c-0.2-0.3-0.4-0.5-0.6-0.8l1.2-0.9c0.2,0.3,0.4,0.5,0.6,0.8L22.4,94.5z M108.8,92.4l-1.2-0.9c0.2-0.3,0.4-0.5,0.6-0.8
				l1.2,0.9C109.2,91.8,109,92.1,108.8,92.4z M20.5,92.1c-0.2-0.3-0.4-0.5-0.6-0.8l1.2-0.9c0.2,0.3,0.4,0.5,0.6,0.8L20.5,92.1z
				 M110.5,89.9l-1.2-0.8c0.2-0.3,0.4-0.5,0.5-0.8l1.3,0.8C110.9,89.3,110.7,89.6,110.5,89.9z M18.8,89.6c-0.2-0.3-0.4-0.6-0.5-0.8
				l1.3-0.8c0.2,0.3,0.4,0.6,0.5,0.8L18.8,89.6z M112.1,87.3l-1.3-0.8c0.2-0.3,0.3-0.6,0.5-0.9l1.3,0.7
				C112.5,86.7,112.3,87,112.1,87.3z M17.2,87c-0.2-0.3-0.3-0.6-0.5-0.9l1.3-0.7c0.2,0.3,0.3,0.6,0.5,0.9L17.2,87z M113.6,84.6
				l-1.3-0.7c0.2-0.3,0.3-0.6,0.4-0.9l1.3,0.7C113.9,84,113.8,84.3,113.6,84.6z M15.7,84.3c-0.2-0.3-0.3-0.6-0.5-0.9l1.3-0.7
				c0.1,0.3,0.3,0.6,0.4,0.9L15.7,84.3z M114.9,81.9l-1.4-0.6c0.1-0.3,0.3-0.6,0.4-0.9l1.4,0.6C115.2,81.3,115.1,81.6,114.9,81.9z
				 M14.4,81.6c-0.1-0.3-0.3-0.6-0.4-0.9l1.4-0.6c0.1,0.3,0.3,0.6,0.4,0.9L14.4,81.6z M116.1,79.1l-1.4-0.5c0.1-0.3,0.2-0.6,0.3-0.9
				l1.4,0.5C116.4,78.4,116.2,78.8,116.1,79.1z M13.3,78.8c-0.1-0.3-0.2-0.6-0.3-1l1.4-0.5c0.1,0.3,0.2,0.6,0.3,0.9L13.3,78.8z
				 M117.1,76.2l-1.4-0.5c0.1-0.3,0.2-0.6,0.3-0.9l1.4,0.4C117.3,75.6,117.2,75.9,117.1,76.2z M12.3,75.9c-0.1-0.3-0.2-0.6-0.3-1
				l1.4-0.4c0.1,0.3,0.2,0.6,0.3,0.9L12.3,75.9z M118,73.3l-1.5-0.4c0.1-0.3,0.2-0.6,0.2-1l1.5,0.4C118.2,72.6,118.1,73,118,73.3z
				 M11.4,73c-0.1-0.3-0.2-0.7-0.2-1l1.5-0.3c0.1,0.3,0.2,0.6,0.2,1L11.4,73z M118.7,70.3l-1.5-0.3c0.1-0.3,0.1-0.6,0.2-1l1.5,0.3
				C118.8,69.7,118.7,70,118.7,70.3z M10.8,70c-0.1-0.3-0.1-0.7-0.2-1l1.5-0.3c0.1,0.3,0.1,0.6,0.2,1L10.8,70z M119.2,67.3l-1.5-0.2
				c0-0.3,0.1-0.7,0.1-1l1.5,0.2C119.3,66.7,119.2,67,119.2,67.3z M10.3,67c0-0.3-0.1-0.7-0.1-1l1.5-0.2c0,0.3,0.1,0.7,0.1,1
				L10.3,67z M119.6,64.3l-1.5-0.1c0-0.3,0.1-0.7,0.1-1l1.5,0.1C119.6,63.6,119.6,64,119.6,64.3z M9.9,64c0-0.2,0-0.5-0.1-0.7
				l1.5-0.1c0,0.2,0,0.5,0.1,0.7L9.9,64z"/>
		</g>
		<path fill="#231F20" d="M78,5.9h37c0.4,2,2.2,3.5,4.3,3.5c2.4,0,4.4-2,4.4-4.4c0-2.4-2-4.4-4.4-4.4c-2.2,0-4,1.7-4.3,3.8H69.4V0.4
			h-9.4v4.1H14.6c-0.3-2.1-2.1-3.8-4.3-3.8c-2.4,0-4.4,2-4.4,4.4c0,2.4,2,4.4,4.4,4.4c2.1,0,3.9-1.5,4.3-3.5h37
			C29.1,11.5,11.9,31,9.9,54.6H5.8V64h9.4v-9.4h-3.7C13.7,28.9,34.4,8.2,60.1,6v3.7h9.4V6c25.7,2.2,46.4,22.9,48.6,48.6h-3.7V64h9.4
			v-9.4h-4.1C117.6,31,100.4,11.5,78,5.9z M119.3,2.1c1.6,0,2.9,1.3,2.9,2.9c0,1.6-1.3,2.9-2.9,2.9h0c-1.6,0-2.9-1.3-2.9-2.9
			C116.4,3.4,117.7,2.1,119.3,2.1z M10.2,7.9C8.6,7.9,7.3,6.6,7.3,5c0-1.6,1.3-2.9,2.9-2.9c1.6,0,2.9,1.3,2.9,2.9
			C13.1,6.6,11.8,7.9,10.2,7.9z M13.6,56.1v6.4H7.3v-6.4H13.6z M67.9,8.2h-6.4V1.9h6.4V8.2z M122.2,62.5h-6.4v-6.4h6.4V62.5z"/>
		<g>
			<path fill="#231F20" d="M92.2,74.9c-2.9,0-5.3-2.4-5.3-5.3c0-2.9,2.4-5.3,5.3-5.3c2.9,0,5.3,2.4,5.3,5.3
				C97.5,72.5,95.1,74.9,92.2,74.9z M92.2,65.9c-2.1,0-3.8,1.7-3.8,3.8c0,2.1,1.7,3.8,3.8,3.8c2.1,0,3.8-1.7,3.8-3.8
				C96,67.5,94.3,65.9,92.2,65.9z"/>
		</g>
		<g>
			<g>
				<path fill="#231F20" d="M64.7,18.2c-0.4,0-0.8-0.3-0.8-0.8v-5.1c0-0.4,0.3-0.8,0.8-0.8s0.8,0.3,0.8,0.8v5.1
					C65.5,17.9,65.2,18.2,64.7,18.2z"/>
			</g>
			<g>
				<path fill="#231F20" d="M64.7,36.6c-0.4,0-0.8-0.3-0.8-0.8v-5.1c0-0.4,0.3-0.8,0.8-0.8s0.8,0.3,0.8,0.8v5.1
					C65.5,36.3,65.2,36.6,64.7,36.6z"/>
			</g>
		</g>
		<g>
			<path fill="#231F20" d="M76.5,24.9h-5.1c-0.4,0-0.8-0.3-0.8-0.8c0-0.4,0.3-0.8,0.8-0.8h5.1c0.4,0,0.8,0.3,0.8,0.8
				C77.3,24.5,76.9,24.9,76.5,24.9z"/>
		</g>
		<g>
			<path fill="#231F20" d="M58.1,24.9H53c-0.4,0-0.8-0.3-0.8-0.8c0-0.4,0.3-0.8,0.8-0.8h5.1c0.4,0,0.8,0.3,0.8,0.8
				C58.9,24.5,58.5,24.9,58.1,24.9z"/>
		</g>
		<g>
			<path fill="#231F20" d="M69.4,20.2c-0.2,0-0.4-0.1-0.5-0.2c-0.3-0.3-0.3-0.8,0-1.1l3.6-3.6c0.3-0.3,0.8-0.3,1.1,0
				c0.3,0.3,0.3,0.8,0,1.1L70,20C69.8,20.1,69.6,20.2,69.4,20.2z"/>
		</g>
		<g>
			<path fill="#231F20" d="M60.1,20.2c-0.2,0-0.4-0.1-0.5-0.2l-3.6-3.6c-0.3-0.3-0.3-0.8,0-1.1c0.3-0.3,0.8-0.3,1.1,0l3.6,3.6
				c0.3,0.3,0.3,0.8,0,1.1C60.4,20.1,60.3,20.2,60.1,20.2z"/>
		</g>
		<g>
			<circle fill="#FF7058" cx="9.3" cy="18.5" r="2.7"/>
		</g>
		<g>
			<circle fill="#FFD05B" cx="105.5" cy="11.4" r="2.3"/>
		</g>
		<g>
			<circle fill="#84DBFF" cx="14.4" cy="99.9" r="2.3"/>
		</g>
		<g>
			<g>
				<line fill="#FFFFFF" x1="26.3" y1="77.6" x2="35" y2="77.6"/>
				<path fill="#231F20" d="M35,78.3h-8.7c-0.4,0-0.8-0.3-0.8-0.8c0-0.4,0.3-0.8,0.8-0.8H35c0.4,0,0.8,0.3,0.8,0.8
					C35.8,78,35.4,78.3,35,78.3z"/>
			</g>
			<g>
				<line fill="#FFFFFF" x1="34.2" y1="80.7" x2="38.4" y2="80.7"/>
				<path fill="#231F20" d="M38.4,81.5h-4.3c-0.4,0-0.8-0.3-0.8-0.8s0.3-0.8,0.8-0.8h4.3c0.4,0,0.8,0.3,0.8,0.8S38.8,81.5,38.4,81.5
					z"/>
			</g>
			<g>
				<line fill="#FFFFFF" x1="38.9" y1="77.6" x2="43" y2="77.6"/>
				<path fill="#231F20" d="M43,78.3h-4.1c-0.4,0-0.8-0.3-0.8-0.8c0-0.4,0.3-0.8,0.8-0.8H43c0.4,0,0.8,0.3,0.8,0.8
					C43.7,78,43.4,78.3,43,78.3z"/>
			</g>
			<g>
				<line fill="#FFFFFF" x1="30.2" y1="80.7" x2="31.1" y2="80.7"/>
				<path fill="#231F20" d="M31.1,81.5h-0.8c-0.4,0-0.8-0.3-0.8-0.8s0.3-0.8,0.8-0.8h0.8c0.4,0,0.8,0.3,0.8,0.8S31.5,81.5,31.1,81.5
					z"/>
			</g>
		</g>
	</g>
</g>
</svg>
