<?xml version="1.0" encoding="UTF-8" standalone="no"?>
<svg
   xmlns:dc="http://purl.org/dc/elements/1.1/"
   xmlns:cc="http://creativecommons.org/ns#"
   xmlns:rdf="http://www.w3.org/1999/02/22-rdf-syntax-ns#"
   xmlns:svg="http://www.w3.org/2000/svg"
   xmlns="http://www.w3.org/2000/svg"
   xmlns:xlink="http://www.w3.org/1999/xlink"
   xmlns:sodipodi="http://sodipodi.sourceforge.net/DTD/sodipodi-0.dtd"
   xmlns:inkscape="http://www.inkscape.org/namespaces/inkscape"
   width="1080"
   height="532"
   version="1.1"
   id="svg948"
   sodipodi:docname="finbyz-consulting.svg"
   inkscape:version="0.92.3 (2405546, 2018-03-11)">
  <metadata
     id="metadata952">
    <rdf:RDF>
      <cc:Work
         rdf:about="">
        <dc:format>image/svg+xml</dc:format>
        <dc:type
           rdf:resource="http://purl.org/dc/dcmitype/StillImage" />
        <dc:title></dc:title>
      </cc:Work>
    </rdf:RDF>
  </metadata>
  <sodipodi:namedview
     pagecolor="#ffffff"
     bordercolor="#666666"
     borderopacity="1"
     objecttolerance="10"
     gridtolerance="10"
     guidetolerance="10"
     inkscape:pageopacity="0"
     inkscape:pageshadow="2"
     inkscape:window-width="1920"
     inkscape:window-height="1001"
     id="namedview950"
     showgrid="false"
     inkscape:zoom="0.86227744"
     inkscape:cx="519.33101"
     inkscape:cy="108.6617"
     inkscape:window-x="-9"
     inkscape:window-y="-9"
     inkscape:window-maximized="1"
     inkscape:current-layer="svg948" />
  <style
     id="style815"><![CDATA[.B{fill:#282d33}.C{fill:#ffd05b}.D{fill-opacity:.478}.E{fill:#fffd8c}]]></style>
  <path
     d="M263.715 478.316l-47.98 15.6c4.577 9.013 11.192 16.853 19.696 23.333l28.284-38.933M275.6 461.25v-82.826c-8.564.15-15.908 1.4-24.213 4.096-21.376 6.942-38.77 21.8-48.98 41.833-9.933 19.496-11.897 41.616-5.588 62.5l78.78-25.613m1.804 70.2c18.395 0 35.693-7.16 48.696-20.16 26.87-26.866 26.87-70.6-.004-97.466-10.847-10.852-23.603-17.403-37.943-19.5v71.82l-3.9 5.267-38.175 52.547c9.64 4.907 20.42 7.493 31.3 7.493h.005"
     class="E D"
     id="path817"
     style="fill:#f0f7ff;fill-opacity:1" />
  <path
     d="M82.72 133.673H12.24v140h93.333v-117.14l-22.852-22.86"
     fill="#fffc8c"
     fill-opacity=".48"
     id="path819"
     style="fill:#f0f7ff;fill-opacity:1" />
  <path
     d="M82.71 157.476h23.805L82.71 133.664z"
     class="C"
     id="path821"
     style="fill:#84dbff;fill-opacity:1" />
  <path
     d="M27.373 168.476h-25.9v-5.333h25.9v5.333m35.155 11.252H1v-5.333h61.537v5.333m-.01 11.255H1v-5.333h61.537v5.333m.001 11.253H1v-5.333h61.537v5.333m-21.724 11.252H1v-5.333h39.823v5.333"
     class="B"
     id="path823" />
  <path
     d="M637.988 266.74v-74.774c12.724-12.752 20.585-30.343 20.585-49.767 0-38.908-31.537-70.46-70.456-70.46-38.912 0-70.46 31.55-70.46 70.46 0 1.068.036 2.124.083 3.184l-22.78 39.456h16.37v27.817a19 19 0 0 0 18.995 19.003h30.092v35.08h77.572"
     class="D E"
     id="path825"
     style="fill:#f0f7ff;fill-opacity:1" />
  <path
     d="M604.863 341.57v-99.4h31.396v74.337h38.437v25.062h-69.833m-126.018-6.196c-12.812 9.435-29.565 9.154-33.8 9.154-14.5 0-28.3-2.394-40.127-11.264-4.505-3.38-7.18-6.334-10.56-10.7l24.077-15.347c2.1 3.38 3.377 4.928 4.785 6.054 5.632 4.93 16.052 7.04 22.95 7.04 8.87 0 15.065-2.676 15.065-7.604 0-1.125-.564-1.97-.704-2.392-.704-1.408-1.83-2.676-4.787-3.663-3.52-1.265-9.856-2.112-18.725-3.94-13.657-2.674-20.98-6.055-25.765-10.278-3.097-2.673-8.73-9.292-8.6-20.133 0-2.675.14-8.728 3.66-15.064 10.137-18.584 36.465-18.304 40.267-18.304 5.068 0 22.95.28 37.17 10.7 3.096 2.252 4.927 4.224 7.6 6.9l-19.852 16.473c-1.267-1.7-1.97-2.535-2.815-3.24-5.773-5.348-15.77-6.897-23.23-6.897-.704 0-4.505 0-7.463 1.267-.564.283-3.943 1.83-3.943 5.2 0 1.83 1.127 3.52 2.535 4.505 2.535 1.55 8.448 2.676 11.123 3.097 3.52.564 12.812 1.83 22.667 5.07 6.196 1.97 21.543 7.46 21.543 27.312 0 14.784-8.73 22.8-13.095 26.046"
     class="C"
     id="path827"
     style="fill:#84dbff;fill-opacity:1" />
  <path
     d="M575.75 352.04h-5.333v-50.458c0-.707.28-1.384.78-1.884 9.804-9.824 15.203-22.877 15.203-36.755 0-28.692-23.343-52.036-52.033-52.036s-52.04 23.344-52.04 52.036c0 .8.028 1.573.06 2.357.023.507-.1 1.008-.353 1.447l-15.376 26.636h8.09a2.67 2.67 0 0 1 2.667 2.667v21.595a12.1 12.1 0 0 0 12.079 12.088h23.36a2.67 2.67 0 0 1 2.667 2.667v19.64h-5.333v-16.974h-20.695a17.44 17.44 0 0 1-17.412-17.421v-18.928h-10.044c-.952 0-1.833-.508-2.31-1.333a2.67 2.67 0 0 1 0-2.667l17.3-29.967a50.76 50.76 0 0 1-.036-1.807c0-31.633 25.736-57.37 57.372-57.37s57.367 25.736 57.367 57.37a56.98 56.98 0 0 1-15.981 39.727v49.37"
     class="B"
     id="path829" />
  <g
     class="E D"
     id="g835"
     style="fill:#f0f7ff;fill-opacity:1">
    <path
       d="M 329.8,285.408 V 176.083 c 18.6,-18.644 30.096,-44.36 30.096,-72.76 0,-56.887 -46.1,-103.015 -103,-103.015 -56.9,0 -103.02,46.128 -103.02,103.015 0,1.563 0.053,3.107 0.12,4.66 l -33.303,57.684 h 23.93 v 40.672 c 0,15.343 12.43,27.783 27.772,27.783 h 43.996 v 51.3 H 329.8 M 869.448,421.408 V 312.083 c -18.6,-18.644 -30.096,-44.36 -30.096,-72.76 0,-56.887 46.1,-103.015 103,-103.015 56.892,0 103.02,46.128 103.02,103.015 0,1.563 -0.055,3.107 -0.12,4.66 l 33.3,57.684 h -23.93 v 40.672 c 0,15.343 -12.428,27.783 -27.772,27.783 h -43.996 v 51.3 H 869.458"
       id="path831"
       style="fill:#f0f7ff;fill-opacity:1"
       inkscape:connector-curvature="0" />
    <path
       d="m 853.622,313.056 v -96.92 c 16.492,-16.528 26.68,-39.327 26.68,-64.504 0,-50.43 -40.877,-91.325 -91.32,-91.325 -50.436,0 -91.33,40.895 -91.33,91.325 0,1.386 0.047,2.755 0.107,4.13 l -29.523,51.14 h 21.215 v 36.058 a 24.63,24.63 0 0 0 24.62,24.63 h 39.004 v 45.468 H 853.62 M 280.05,248.075 v -76.603 c -13.035,-13.064 -21.1,-31.084 -21.1,-50.984 0,-39.858 32.3,-72.18 72.18,-72.18 39.864,0 72.185,32.323 72.185,72.18 a 73.66,73.66 0 0 1 -0.085,3.264 l 23.335,40.42 h -16.768 v 28.5 c 0,10.752 -8.708,19.468 -19.46,19.468 H 359.52 v 35.938 h -79.47"
       id="path833"
       style="fill:#f0f7ff;fill-opacity:1"
       inkscape:connector-curvature="0" />
  </g>
  <g
     class="B"
     id="g843"
     style="fill:#282d33">
    <path
       d="M 442.204,75.047 H 416.36 v -5.333 h 25.844 v 5.333 m 13.533,0 h -8.613 v -5.333 h 8.613 v 5.333 m 46.467,24 H 476.36 v -5.333 h 25.844 v 5.333 m 13.533,0 h -8.613 v -5.333 h 8.613 v 5.333 M 380.873,137.712 H 355.03 v -5.333 h 25.844 v 5.333 m 13.533,0 h -8.613 v -5.333 h 8.613 v 5.333 m 218.74,291.425 h -5.333 v -8.617 h 5.333 v 8.617 m -21.4,5.74 -4.3,-7.465 4.62,-2.667 4.3,7.465 -4.62,2.667 m -11.063,13 -7.46,-4.307 2.667,-4.613 7.46,4.307 -2.667,4.613 m -3.068,16.787 H 569 v -5.333 h 8.617 v 5.333 m -1.73,20.387 -2.667,-4.613 7.463,-4.307 2.667,4.613 -7.463,4.307 m 16.16,14.213 -4.62,-2.667 4.3,-7.466 4.62,2.667 -4.3,7.467 m 15.766,4.236 -0.003,-8.626 h 5.333 l 0.003,8.626 h -5.333 m 21.1,-4.227 -4.3,-7.467 4.62,-2.667 4.3,7.466 -4.62,2.667 m 16.16,-14.222 -7.464,-4.307 2.665,-4.613 7.464,4.307 -2.665,4.613 m 6.888,-20.387 h -8.62 v -5.333 h 8.62 v 5.333 m -11.685,-16.788 -2.668,-4.613 7.463,-4.307 2.668,4.613 -7.463,4.307 m -11.052,-13 -4.62,-2.667 4.305,-7.465 4.62,2.665 -4.305,7.467 m -18.744,32.387 c -1.493,0 -2.92,-0.64 -3.92,-1.747 -1.935,-2.173 -1.747,-5.507 0.4,-7.44 0.968,-0.854 2.212,-1.333 3.507,-1.333 a 5.28,5.28 0 0 1 3.92,1.747 5.24,5.24 0 0 1 1.332,3.8 5.25,5.25 0 0 1 -1.747,3.64 5.29,5.29 0 0 1 -3.505,1.333"
       id="path837"
       inkscape:connector-curvature="0" />
    <path
       d="m 606.763,461.85 -18.052,-20.187 3.976,-3.56 18.052,20.187 -3.976,3.56"
       id="path839"
       inkscape:connector-curvature="0" />
    <path
       d="m 613.38,462.97 -3.556,-3.973 17.776,-15.894 3.556,3.974 -17.776,15.893"
       id="path841"
       inkscape:connector-curvature="0" />
  </g>
  <path
     d="M160.923 327.772c-5.915 6.76-18.585 16.896-40.7 16.896-12.67 0-23.935-3.1-33.65-11.405-16.613-13.938-17.88-33.8-17.88-40.83 0-6.054.704-19.85 10.28-33.227 13.657-19.288 32.664-20.696 41.393-20.696 22.668 0 36.184 11.827 41.676 18.162 2.956 3.38 4.364 5.773 6.476 9.574L142.2 279.34c-.423-.985-.987-1.97-1.4-2.956-1.688-3.38-6.616-13.658-19.288-13.516-5.772 0-9.433 2.112-11.404 3.52-9.857 7.32-9.433 21.683-9.433 24.217 0 13.657 4.364 20.98 9.152 24.78 4.927 3.803 9.433 3.943 11.827 3.943 10.84 0 15.9-7.322 17.88-10.7.704-1.408 1.267-2.675 2.253-5.632l26.9 12.953c-3.52 6.478-5.35 9-7.743 11.827m104.752 2.67c-14.08 14.08-32.24 14.36-38.576 14.36s-24.78-.28-38.437-14.22c-9.715-9.714-14.5-24.216-14.5-38.717 0-6.62 1.125-25.343 14.784-39 6.195-6.053 18.02-14.36 38.717-14.36 6.476 0 24.075.142 37.873 13.656 5.913 5.773 15.347 18.022 15.347 38.86 0 6.055-.987 25.2-15.207 39.42m-27.053-63.917c-4.505-2.676-9.15-2.957-10.98-2.957-2.393 0-9.573.42-14.784 5.913-3.52 3.662-7.18 10.7-7.18 22.387 0 1.83-.14 13.376 5.5 20.556a18.49 18.49 0 0 0 6.617 5.208c1.972.847 5.07 1.97 9.856 1.97 5.913 0 10.56-1.688 14.5-6.193 3.8-4.085 7.04-10.56 7.04-22.528 0-2.674.423-17.738-10.56-24.356m114.472 75.042l-33.088-57.724.283 57.724h-29.285v-99.4h33.368l33.65 57.865-.423-57.865h29.427v99.398h-33.93m236.385-22.244c-6.9 18.02-24.92 24.92-42.66 24.92-3.66 0-13.516-.28-23.372-4.646-4.224-1.83-14.36-6.76-19.007-19.005-1.83-4.93-2.535-9.012-2.535-19.432v-59h31.537v62.1c0 .987-.14 4.504.985 7.603 2.535 7.603 10.42 8.024 12.672 8.024 2.112 0 9.996-.42 12.812-7.884.985-2.533.985-4.787.985-7.743v-62.1h31.68v59.554c0 6.336-.845 11.687-3.097 17.6m133.055-52.647v74.9H691.17v-74.9h-25.343V242.17h81.94v24.497h-25.203m31.684 74.903v-99.4h31.537v99.398h-31.537m106.158.002l-33.087-57.724.283 57.724h-29.287v-99.4h33.368l33.65 57.865-.423-57.865h29.425v99.398h-33.93m118.835-64.904c-.564-2.676-.987-4.646-2.533-7.04-4.788-7.46-14.924-7.744-16.756-7.744-2.252 0-7.04.143-12.108 3.1-12.108 6.9-11.404 23.793-11.404 26.328 0 3.8.28 8.167 1.267 11.825 2.113 7.323 7.463 13.66 14.784 16.192 1.83.563 4.083 1.27 8.305 1.27 4.788 0 9.857-1.128 13.66-4.225 1.267-.987 2.393-2.253 3.237-3.662 1.268-2.392 1.7-5.5 1.83-6.194h-18.444V286.52h45.616v55.05h-23.37v-6.9c-2.957 2.112-5.2 3.52-6.476 4.224-9.293 4.927-20.415 5.35-23.512 5.35-3.52 0-11.97-.28-20.837-4.365-9.715-4.646-28.02-18.303-28.02-47.307 0-6.334.847-23.23 12.953-37.3 10.28-11.967 24.64-17.176 39.987-17.176 16.05 0 34.072 5.772 44.068 19.007 3.66 4.93 5.068 9.435 5.913 11.686l-28.16 7.885"
     class="C"
     id="path845"
     style="fill:#84dbff;fill-opacity:1" />
  <g
     class="B"
     id="g869"
     style="fill:#282d33">
    <path
       d="m 598.56,109.648 c -2.703,0 -4.9,2.197 -4.9,4.9 a 4.91,4.91 0 0 0 4.901,4.904 4.91,4.91 0 0 0 4.9,-4.904 c 0,-2.703 -2.2,-4.9 -4.9,-4.9 z m 0,15.137 a 10.25,10.25 0 0 1 -10.235,-10.237 c 0,-5.643 4.59,-10.233 10.235,-10.233 5.645,0 10.233,4.6 10.233,10.233 a 10.25,10.25 0 0 1 -10.233,10.237"
       id="path847"
       inkscape:connector-curvature="0" />
    <path
       d="m 601.227,105.35 h -5.333 v -7.156 h 5.333 v 7.156 m 0,25.555 h -5.333 v -7.156 h 5.333 v 7.156 m -11.967,-18.645 -6.197,-3.58 2.667,-4.618 6.197,3.578 -2.667,4.62 m 22.132,12.778 -6.2,-3.58 2.667,-4.617 6.2,3.577 -2.667,4.62 m -25.664,0 -2.667,-4.62 6.197,-3.577 2.667,4.617 -6.197,3.58 m 22.132,-12.778 -2.667,-4.62 6.2,-3.578 2.667,4.618 -6.2,3.58 m 49.053,190.057 h 8.324 l -2.892,-14.43 1.615,-0.967 c 1.72,-1.03 2.747,-2.83 2.747,-4.82 0,-3.105 -2.524,-5.632 -5.625,-5.632 a 5.64,5.64 0 0 0 -5.632,5.632 5.57,5.57 0 0 0 2.748,4.82 l 1.615,0.966 z m 14.832,5.333 H 650.4 l 3.475,-17.295 a 10.84,10.84 0 0 1 -3.76,-8.253 10.98,10.98 0 0 1 10.965,-10.965 10.98,10.98 0 0 1 10.96,10.965 c 0,3.224 -1.377,6.193 -3.76,8.255 l 3.465,17.293 M 958.548,242.32 H 857.433 v -5.333 h 101.115 v 5.333"
       id="path849"
       inkscape:connector-curvature="0" />
    <path
       d="m 869.9,257.008 h -5.333 v -17.356 h 5.333 v 17.356 m 24.157,0 h -5.333 v -17.356 h 5.333 v 17.356"
       id="path851"
       inkscape:connector-curvature="0" />
    <path
       d="m 881.982,250.216 h -5.333 v -10.564 h 5.333 v 10.564 m 80.49,-36.57 c -6.656,0 -12.072,5.414 -12.072,12.068 a 12.09,12.09 0 0 0 12.072,12.076 c 6.657,0 12.075,-5.417 12.075,-12.076 a 12.09,12.09 0 0 0 -12.075,-12.068 z m 0,29.478 c -9.597,0 -17.405,-7.8 -17.405,-17.4 0,-9.6 7.808,-17.4 17.405,-17.4 9.597,0 17.408,7.807 17.408,17.4 0,9.593 -7.8,17.4 -17.408,17.4"
       id="path853"
       inkscape:connector-curvature="0" />
    <path
       d="m 962.473,243.777 a 12.09,12.09 0 0 0 -12.072,12.072 12.09,12.09 0 0 0 12.072,12.075 c 6.657,0 12.075,-5.417 12.075,-12.075 a 12.09,12.09 0 0 0 -12.075,-12.072 z m 0,29.48 c -9.597,0 -17.405,-7.8 -17.405,-17.408 a 17.43,17.43 0 0 1 17.405,-17.405 c 9.6,0 17.408,7.808 17.408,17.405 0,9.597 -7.81,17.408 -17.408,17.408"
       id="path855"
       inkscape:connector-curvature="0" />
    <path
       d="m 989.332,228.7 a 12.09,12.09 0 0 0 -12.071,12.075 c 0,6.656 5.415,12.07 12.07,12.07 a 12.09,12.09 0 0 0 12.075,-12.071 c 0,-6.657 -5.417,-12.075 -12.075,-12.075 z m 0,29.48 c -9.597,0 -17.404,-7.808 -17.404,-17.404 a 17.43,17.43 0 0 1 17.404,-17.408 c 9.6,0 17.408,7.8 17.408,17.408 A 17.43,17.43 0 0 1 989.332,258.18 M 741.5,430.314 h -5.333 v -20.1 H 711.75 c -10.896,0 -19.76,-8.867 -19.76,-19.767 v -22.365 h -16.687 l 22.424,-38.83 a 57.71,57.71 0 0 1 -0.045,-2.207 c 0,-29.008 18.58,-54.34 46.23,-63.04 a 65.88,65.88 0 0 1 15.764,-2.908 l 0.324,5.324 a 60.67,60.67 0 0 0 -14.488,2.67 c -25.417,7.998 -42.496,31.287 -42.496,57.954 a 58.27,58.27 0 0 0 0.073,2.743 l 0.036,0.78 -18.58,32.18 h 12.78 v 27.698 a 14.45,14.45 0 0 0 14.427,14.434 h 29.74 v 25.432 m 69.806,0.002 h -5.333 v -59.6 l 0.78,-0.78 c 11.44,-11.46 17.743,-26.696 17.743,-42.897 0,-22.598 -12.427,-43.195 -32.43,-53.753 a 60.34,60.34 0 0 0 -12.55,-4.923 l 1.38,-5.152 c 4.73,1.267 9.327,3.07 13.66,5.36 21.76,11.485 35.275,33.9 35.275,58.47 0,17.252 -6.568,33.497 -18.523,45.872 v 57.396 m -41.606,-2.597 -16.6,-30.53 v -5.56 h 5.333 v 4.202 l 11.276,20.727 11.275,-20.724 v -4.203 h 5.333 v 5.56 l -16.608,30.526"
       id="path857"
       inkscape:connector-curvature="0" />
    <path
       d="M 753.1,395.157 V 274.192 h 5.333 v 115.632 l 22.52,-0.002 v -111.63 h 5.333 v 116.963 l -33.187,0.002 m 13.93,-7.35 -0.004,-126.973 h 5.333 l 0.004,126.973 h -5.333 m 19.3,-133 -5.333,-0.002 0.005,-11.005 a 0.91,0.91 0 0 0 -0.4,-0.08 h -21.787 c -0.2,0 -0.327,0.042 -0.4,0.083 v 11.002 h -5.333 v -11.25 c 0,-1.467 0.687,-2.867 1.885,-3.84 1.053,-0.856 2.424,-1.328 3.856,-1.328 l 21.78,-0.001 c 3.203,0 5.72,2.267 5.732,5.16 l -0.005,11.26 M 68.813,243.38 l -1.237,-5.187 2.768,-0.575 0.925,5.253 -2.456,0.508 m -9.02,3.308 -2.404,-4.76 c 1.615,-0.814 3.3,-1.542 4.983,-2.164 l 1.836,5.008 a 41.53,41.53 0 0 0 -4.415,1.917 z m -8.02,5.296 -3.43,-4.085 a 47.81,47.81 0 0 1 4.349,-3.247 l 2.94,4.45 a 42.16,42.16 0 0 0 -3.859,2.881 z m -6.6,6.984 -4.272,-3.193 a 47.17,47.17 0 0 1 3.493,-4.152 l 3.877,3.663 a 41.93,41.93 0 0 0 -3.099,3.683 z m -4.825,8.303 -4.9,-2.128 a 46.87,46.87 0 0 1 2.451,-4.841 l 4.6,2.68 a 41.69,41.69 0 0 0 -2.171,4.29 z m -2.784,9.187 -5.25,-0.94 a 47.06,47.06 0 0 1 1.27,-5.28 l 5.104,1.548 a 41.95,41.95 0 0 0 -1.124,4.675 z m -1.124,11.023 -2.748,-1.588 -2.064,0.088 -0.055,-2.12 0.092,-2.958 5.323,0.33 -0.08,2.628 0.05,1.9 0.033,0.776 z m -5.12,8.875 -4.62,-2.667 2.56,-4.437 4.62,2.667 z m -5.124,8.875 -4.62,-2.668 2.563,-4.437 4.617,2.668 -2.56,4.438 m -3.553,8.1 h -7.285 l 3.643,-6.3 1.692,0.976 h 1.95 v 1.127 l 0.976,0.564 -0.976,1.7 v 1.952 m 10.3,-0.018 H 27.6 V 308 h 5.333 v 5.333 m -10e-4,9.743 H 27.6 v -4.87 h 5.333 z m -4.236,10.643 a 14.55,14.55 0 0 1 -1.097,-5.567 v -0.203 h 5.333 v 0.203 a 9.23,9.23 0 0 0 0.695,3.535 z m 8.297,8.1 a 14.58,14.58 0 0 1 -4.983,-3.188 l 3.723,-3.82 a 9.22,9.22 0 0 0 3.165,2.025 l -1.905,4.983"
       id="path859"
       inkscape:connector-curvature="0" />
    <path
       d="m 45.4,342.764 h -2.667 v -5.333 H 45.4 v 5.333 m 43.347,13.238 H 83.414 V 342.765 H 67.167 A 14.63,14.63 0 0 1 52.56,328.153 v -14.82 H 40.316 L 56.56,285.2 a 37.26,37.26 0 0 1 -0.025,-1.339 l 0.12,-3.38 5.32,0.38 -0.107,2.998 0.05,1.9 0.033,0.775 L 49.556,308 h 8.337 v 20.153 a 9.29,9.29 0 0 0 9.273,9.279 h 21.58 v 18.57 m 48.754,0 h -5.333 v -41.96 l 0.78,-0.78 a 41.35,41.35 0 0 0 12.16,-29.4 c 0,-22.952 -18.67,-41.625 -41.62,-41.625 -16.16,0 -30.995,9.48 -37.793,24.155 l -4.84,-2.24 c 7.668,-16.552 24.4,-27.247 42.632,-27.247 25.9,0 46.955,21.065 46.955,46.958 0,12.152 -4.587,23.603 -12.94,32.368 v 39.772 m -53.384,-38.797 -14.884,-14.888 14.884,-14.894 3.772,3.77 -11.116,11.123 11.127,11.116 -3.772,3.772"
       id="path861"
       inkscape:connector-curvature="0" />
    <path
       d="m 76.545,304.984 v -5.333 l 47.14,-0.005 v 5.333 l -47.14,0.005 M 92.077,287.78 88.305,284 99.42,272.876 l -11.115,-11.12 3.772,-3.77 14.883,14.9 -14.883,14.893"
       id="path863"
       inkscape:connector-curvature="0" />
    <path
       d="m 52.517,275.556 v -5.333 l 47.14,-0.002 v 5.333 l -47.14,0.003 m 109.543,96.73 1.77,6.616 -0.837,1.052 a 41.49,41.49 0 0 0 -9.12,26.104 c 0,23.137 18.824,41.962 41.96,41.962 23.136,0 41.96,-18.825 41.96,-41.962 0,-23.137 -18.823,-41.96 -41.96,-41.96 a 41.51,41.51 0 0 0 -26.111,9.125 l -1.052,0.837 z m 33.773,81.068 c -26.08,0 -47.295,-21.213 -47.295,-47.296 0,-10.35 3.263,-20.123 9.45,-28.352 l -3.472,-12.964 12.96,3.475 c 8.233,-6.2 18.008,-9.454 28.357,-9.454 26.077,0 47.293,21.217 47.293,47.295 0,26.078 -21.216,47.296 -47.293,47.296 m 2.484,-45.307 -3.38,-4.124 4.792,-3.904 c 1.5,-0.954 2.363,-1.944 2.363,-2.713 v -4.332 a 3.7,3.7 0 0 0 -3.696,-3.7 h -5.1 c -2.04,0 -3.697,1.66 -3.697,3.7 V 395 h -5.333 v -2.024 c 0,-4.98 4.05,-9.035 9.03,-9.035 h 5.1 c 4.98,0 9.03,4.053 9.03,9.035 v 4.332 c 0,2.707 -1.58,5.104 -4.695,7.124 l -4.413,3.617"
       id="path865"
       inkscape:connector-curvature="0" />
    <path
       d="m 195.244,415.616 h -5.333 v -4.333 c 0,-2.706 1.58,-5.102 4.695,-7.122 l 4.417,-3.62 3.38,4.125 -4.796,3.905 c -1.5,0.955 -2.363,1.943 -2.363,2.7 v 4.333 m 0,11.002 h -5.333 v -4.953 h 5.333 v 4.953 m 588.54,-230.5 9.835,0.001 1.057,-12.677 2,-0.38 c 4.452,-0.848 8.655,-2.47 12.5,-4.823 l 1.645,-1.008 9.94,8.415 6.956,-6.954 -8.215,-9.7 1.14,-1.675 a 37.13,37.13 0 0 0 5.42,-12.248 l 0.45,-1.873 12.983,-1.08 v -9.837 l -12.677,-1.055 -0.38,-1.992 a 37.15,37.15 0 0 0 -4.824,-12.495 l -1.007,-1.643 8.4,-9.94 -6.953,-6.955 -9.705,8.212 -1.673,-1.137 c -3.74,-2.537 -7.86,-4.36 -12.25,-5.416 l -1.873,-0.45 L 795.46,96.4 h -9.835 l -1.057,12.678 -2,0.38 a 37.08,37.08 0 0 0 -12.493,4.823 l -1.644,1.008 -9.944,-8.414 -6.955,6.954 8.22,9.7 -1.14,1.676 c -2.535,3.724 -4.357,7.844 -5.416,12.245 l -0.45,1.874 -12.987,1.083 -10e-4,9.835 12.68,1.057 0.38,2 a 37.14,37.14 0 0 0 4.82,12.495 l 1.008,1.644 -8.415,9.943 6.952,6.955 9.715,-8.215 1.675,1.14 a 37.09,37.09 0 0 0 12.243,5.415 l 1.875,0.45 z m 14.743,5.336 -19.65,-0.004 -1.176,-14.077 c -3.668,-1.057 -7.153,-2.595 -10.405,-4.588 L 756.892,191.571 743,177.68 752.124,166.9 a 42.34,42.34 0 0 1 -4.108,-10.608 l -13.584,-1.135 0.004,-19.647 14.08,-1.174 a 42.26,42.26 0 0 1 4.59,-10.407 l -8.804,-10.4 13.896,-13.894 10.78,9.123 a 42.43,42.43 0 0 1 10.609,-4.109 l 1.133,-13.58 h 19.647 l 1.175,14.083 c 3.664,1.06 7.152,2.595 10.407,4.587 l 10.4,-8.8 13.893,13.897 -9.12,10.78 a 42.36,42.36 0 0 1 4.11,10.608 l 13.58,1.13 v 19.653 l -14.08,1.17 a 42.41,42.41 0 0 1 -4.59,10.41 l 8.8,10.4 -13.9,13.892 -10.78,-9.123 a 42.34,42.34 0 0 1 -10.605,4.108 l -1.132,13.582 m -8.9,-68.876 c -7.547,0 -13.685,6.137 -13.685,13.683 0,7.546 6.14,13.687 13.685,13.687 7.545,0 13.68,-6.14 13.68,-13.687 A 13.7,13.7 0 0 0 789.624,132.57 Z m 0,32.703 c -10.487,0 -19.02,-8.532 -19.02,-19.02 0,-10.488 8.532,-19.016 19.02,-19.016 10.488,0 19.015,8.53 19.015,19.016 0,10.486 -8.53,19.02 -19.015,19.02"
       id="path867"
       inkscape:connector-curvature="0" />
  </g>
  <path
     d="M247.256 133.59c-9.452-9.45-9.452-24.773 0-34.227s24.777-9.454 34.23-.003 9.453 24.78 0 34.23a24.21 24.21 0 0 1-34.229-.001zm63.407 46.536l15.432-15.426-12.576-14.863c4.09-6.008 6.96-12.596 8.605-19.424l19.99-1.664-.001-21.82-19.39-1.616a59.15 59.15 0 0 0-7.661-19.811l12.96-15.32-15.43-15.43-14.86 12.572c-6.008-4.085-12.593-6.96-19.42-8.602l-1.66-19.99-21.825-.004-1.616 19.395c-6.912 1.314-13.632 3.875-19.812 7.66l-15.316-12.96-15.433 15.427 12.573 14.86a59 59 0 0 0-8.6 19.424l-19.99 1.664-.003 21.822 19.39 1.616c1.317 6.912 3.877 13.63 7.66 19.81l-12.96 15.317 15.43 15.434 14.86-12.574a59.12 59.12 0 0 0 19.421 8.602l1.665 19.988 21.823.001 1.62-19.39c6.912-1.317 13.63-3.877 19.81-7.66l15.317 12.96"
     class="C"
     id="path871"
     style="fill:#84dbff;fill-opacity:1" />
  <path
     d="M277.293 87.73h-5.34v-5.333h5.34zm10.683 0h-5.34v-5.333h5.34zm10.683 0h-5.34v-5.333h5.34zm10.683 0H304v-5.333h5.34zm10.683 0h-5.34v-5.333h5.34zm10.683 0h-5.34v-5.333h5.34zm10.684 0h-5.34v-5.333h5.34zm10.683 0h-5.343v-5.333h5.343zm10.683 0h-5.34v-5.333h5.34zm10.683 0h-5.34v-5.333h5.34zm10.683 0h-5.34v-5.333h5.34zm10.683 0h-5.34v-5.333h5.34zm10.683 0h-5.34v-5.333h5.34zm10.683 0h-5.34v-5.333h5.34zm10.683 0h-5.34v-5.333h5.34zm10.683 0h-5.34v-5.333h5.34zm10.684 0h-5.343v-5.333h5.343zm10.68 0h-5.34v-5.333h5.34zm10.684 0h-5.34v-5.333h5.34zm10.683 0h-5.34v-5.333h5.34zm10.683 0h-5.34v-5.333h5.34zm10.683 0h-5.34v-5.333h5.34zm10.683 0h-5.34v-5.333h5.34zm10.683 0h-5.34v-5.333h5.34zm10.683 0h-5.34v-5.333h5.34zm10.684 0h-5.343v-5.333h5.343zm10.68 0h-5.34v-5.333h5.34zm10.683 0h-5.34v-5.333h5.34zm10.684 0h-5.34v-5.333h5.34zm10.683 0h-5.34v-5.333h5.34zm10.613.01l-.772-.01h-4.5v-5.333h4.5l.91.012zm-336.353.005l-.17-5.33 1.127-.02h4.3v5.333h-4.3l-.956.016zm345.88 1.9a28.2 28.2 0 0 0-4.681-1.363l1.043-5.23a33.57 33.57 0 0 1 5.567 1.62zm-355.395.065l-1.957-4.96c1.797-.71 3.665-1.265 5.552-1.654l1.076 5.224a28.47 28.47 0 0 0-4.671 1.391zm363.728 4.94c-1.23-1.06-2.56-2.024-3.952-2.86l2.748-4.57c1.652.993 3.23 2.134 4.69 3.396zm-372.027.115l-3.51-4.016c1.455-1.27 3.027-2.422 4.67-3.422l2.773 4.555c-1.384.844-2.708 1.813-3.933 2.884zm378.21 7.392c-.804-1.41-1.736-2.76-2.77-4.016l4.117-3.39a34.03 34.03 0 0 1 3.284 4.763zm-384.345.155l-4.65-2.613c.944-1.68 2.04-3.3 3.256-4.786l4.14 3.364c-1.027 1.26-1.95 2.62-2.745 4.035zm387.64 8.98c-.28-1.602-.703-3.186-1.253-4.71l5.017-1.81c.653 1.812 1.155 3.695 1.49 5.597zm-390.88.18l-5.26-.89c.32-1.9.81-3.786 1.453-5.605l5.03 1.776a28.48 28.48 0 0 0-1.224 4.72zm396.156 10.568l-5.256-.9c.273-1.596.412-3.232.412-4.864l5.333-.13v.13a34.23 34.23 0 0 1-.489 5.764zm-401.39.07a33.98 33.98 0 0 1-.501-5.766l5.333-.008c.003 1.63.145 3.265.42 4.86zm397.52 10.804l-4.644-2.623c.8-1.418 1.48-2.91 2.025-4.437l5.025 1.8a33.96 33.96 0 0 1-2.407 5.271zm-393.627.058c-.953-1.68-1.765-3.45-2.415-5.263l5.02-1.797c.545 1.524 1.23 3.015 2.032 4.428zm386.332 8.875l-3.5-4.024c1.227-1.067 2.37-2.246 3.397-3.504l4.13 3.375c-1.22 1.49-2.573 2.89-4.028 4.153zm-379.02.044a34.37 34.37 0 0 1-4.036-4.146l4.124-3.383c1.032 1.257 2.177 2.435 3.404 3.498zm369.16 5.938l-1.947-4.965c1.51-.592 2.98-1.32 4.368-2.162l2.767 4.56c-1.65 1-3.395 1.864-5.188 2.567zm-359.28.025a33.82 33.82 0 0 1-5.197-2.559l2.757-4.565a28.47 28.47 0 0 0 4.376 2.155zm347.975 2.284l-.163-5.33a28.68 28.68 0 0 0 4.847-.562l1.065 5.227c-1.884.383-3.82.608-5.75.667zm-336.664.003c-1.932-.055-3.865-.276-5.75-.656l1.055-5.228a28.74 28.74 0 0 0 4.845.554zm10.76.013h-5.34v-5.333h5.34zm10.683 0h-5.34v-5.333h5.34zm10.683 0h-5.34v-5.333h5.34zm10.683 0h-5.34v-5.333h5.34zm10.683 0h-5.34v-5.333h5.34zm10.683 0h-5.34v-5.333h5.34zm10.683 0h-5.34v-5.333h5.34zm10.684 0h-5.343v-5.333h5.343zm10.683 0h-5.343v-5.333h5.343zm10.68 0h-5.34v-5.333h5.34zm10.684 0h-5.34v-5.333h5.34zm10.683 0h-5.34v-5.333h5.34zm10.683 0h-5.34v-5.333h5.34zm10.683 0h-5.34v-5.333h5.34zm10.683 0h-5.34v-5.333h5.34zm10.683 0h-5.34v-5.333h5.34zm10.683 0h-5.34v-5.333h5.34zm10.683 0h-5.34v-5.333h5.34zm10.683 0h-5.34v-5.333h5.34zm10.684 0h-5.34v-5.333h5.34zm10.683 0H480.4v-5.333h5.343zm10.683 0h-5.34v-5.333h5.34zm10.683 0h-5.34v-5.333h5.34zm10.683 0h-5.34v-5.333h5.34zm10.683 0h-5.34v-5.333h5.34zm10.683 0h-5.34v-5.333h5.34zm10.683 0h-5.34v-5.333h5.34zm10.683 0h-5.34v-5.333h5.34zm10.683 0h-5.34v-5.333h5.34zm10.684 0h-5.343v-5.333h5.343zm10.683 0h-5.34v-5.333h5.34v5.333"
     class="B"
     id="path873" />
  <g
     class="C"
     id="g879"
     style="fill:#ffd05b">
    <path
       d="m 794.756,80.768 -5.12,-0.196 V 75.24 l 5.53,0.212 z m 10.115,1.58 -5.027,-0.988 0.824,-5.27 5.435,1.068 z m 9.74,3.143 -4.812,-1.764 1.637,-5.076 5.207,1.9 z m 9.137,4.63 -4.477,-2.495 2.412,-4.756 4.84,2.696 z m 8.307,5.995 -4.037,-3.16 3.123,-4.325 4.36,3.413 z m 7.277,7.205 -3.5,-3.744 3.752,-3.8 3.78,4.045 z m 6.07,8.24 -2.875,-4.237 4.293,-3.164 3.1,4.583 z m 4.72,9.08 -2.18,-4.63 4.732,-2.46 2.36,5.008 z m 3.24,9.702 -1.43,-4.916 5.06,-1.7 1.547,5.32 z m 1.685,10.097 -0.645,-5.083 5.26,-0.877 0.7,5.492 z m 5.428,10.595 -5.32,-0.354 0.147,-4.432 -0.003,-0.7 5.333,-0.06 0.003,0.754 -0.16,4.78 z m -1.6,10.952 -5.2,-1.177 0.932,-5.035 5.28,0.766 -1,5.446 z m -3.283,10.58 -4.953,-1.976 1.7,-4.832 5.093,1.58 -1.85,5.23 z m -4.896,9.935 -4.585,-2.724 2.444,-4.505 4.784,2.36 -2.643,4.87 z m -6.38,9.05 -4.107,-3.403 3.113,-4.07 4.36,3.074 -3.367,4.4 z m -7.7,7.95 -3.532,-3.996 3.705,-3.54 3.83,3.7 -4.004,3.825 z m -8.836,6.66 -2.87,-4.495 4.205,-2.922 3.2,4.258 -4.547,3.16 z m -68.85,4.164 -2.168,-1.086 2.47,-4.727 2.008,1.005 z m 59.1,1.045 -2.133,-4.888 4.604,-2.23 2.512,4.705 -4.983,2.412 z m -48.76,2.948 -5.243,-1.793 1.92,-4.976 4.848,1.66 z m 38.303,0.673 -1.344,-5.16 4.9,-1.484 1.744,5.04 -5.3,1.605 z m -27.473,1.648 -5.46,-0.95 1.12,-5.214 5.05,0.878 z m 16.577,0.288 -0.523,-5.307 5.075,-0.7 0.933,5.252 -5.485,0.756 z m -7.04,0.346 a 72.13,72.13 0 0 1 -4.02,-0.112 l 0.296,-5.325 5.127,0.1 0.115,5.332 -1.517,0.016 M 585.84,97.14 583.548,92.324 a 24.96,24.96 0 0 1 5.647,-1.899 l 1.083,5.223 c -1.53,0.317 -3.023,0.82 -4.437,1.492 z m -7.22,5.87 -4.24,-3.232 a 25.16,25.16 0 0 1 4.139,-4.273 l 3.367,4.136 a 19.86,19.86 0 0 0 -3.264,3.369 z m -3.72,8.52 -5.255,-0.9 c 0.34,-1.965 0.917,-3.886 1.715,-5.7 l 4.887,2.136 a 19.54,19.54 0 0 0 -1.347,4.484 z m -4.48,10.884 a 25,25 0 0 1 -1.09,-5.854 l 5.32,-0.346 a 19.77,19.77 0 0 0 0.856,4.604 z m 6.112,10.124 a 25.17,25.17 0 0 1 -3.663,-4.693 l 4.564,-2.76 a 19.87,19.87 0 0 0 2.884,3.696 z m 10.072,6.195 a 24.93,24.93 0 0 1 -5.411,-2.496 l 2.797,-4.542 c 1.335,0.823 2.765,1.48 4.25,1.96 l -1.637,5.076"
       id="path875"
       inkscape:connector-curvature="0"
       style="fill:#84dbff;fill-opacity:1" />
    <path
       d="m 788.378,80.904 -0.397,-5.318 4.98,-0.372 0.397,5.32 z m -10.636,0.795 -0.397,-5.32 5.32,-0.396 0.397,5.318 z m -10.637,0.793 -0.397,-5.32 5.32,-0.397 0.397,5.32 z m -10.637,0.794 -0.397,-5.32 5.32,-0.397 0.397,5.32 z m -10.637,0.793 -0.397,-5.32 5.32,-0.397 0.396,5.318 z m -10.636,0.794 -0.397,-5.318 5.32,-0.397 0.396,5.32 z m -10.637,0.795 -0.397,-5.32 5.32,-0.396 0.397,5.32 z m -10.637,0.793 -0.397,-5.32 5.32,-0.397 0.397,5.32 z m -10.637,0.794 -0.397,-5.32 5.32,-0.397 0.397,5.318 z m -10.637,0.793 -0.396,-5.32 5.317,-0.397 0.397,5.32 z M 682,88.842 l -0.396,-5.318 5.317,-0.397 0.397,5.32 z m -10.636,0.795 -0.397,-5.32 5.32,-0.396 0.397,5.32 z m -10.637,0.793 -0.397,-5.32 5.32,-0.397 0.397,5.32 z m -10.637,0.794 -0.397,-5.32 5.32,-0.397 0.397,5.318 z m -10.637,0.794 -0.397,-5.318 5.32,-0.397 0.397,5.32 z m -10.636,0.793 -0.397,-5.318 5.32,-0.397 0.396,5.32 z m -10.637,0.795 -0.397,-5.32 5.32,-0.396 0.397,5.32 z m -10.637,0.793 -0.397,-5.318 5.32,-0.397 0.397,5.32 z m -10.637,0.795 -0.397,-5.32 5.32,-0.397 0.397,5.318 -5.32,0.397 m -5.236,45.514 -3.55,-1.483 2.055,-4.92 3.55,1.48 z m 9.844,4.108 -4.923,-2.055 2.055,-4.92 4.923,2.055 z m 9.843,4.1 -4.92,-2.055 2.055,-4.92 4.923,2.053 z m 9.844,4.1 -4.92,-2.055 2.055,-4.923 4.92,2.055 z m 9.844,4.108 -4.923,-2.055 2.055,-4.92 4.923,2.055 z m 9.843,4.1 -4.92,-2.055 2.055,-4.92 4.92,2.053 z m 9.844,4.1 -4.923,-2.055 2.055,-4.923 4.923,2.055 z m 9.844,4.108 -4.923,-2.055 2.055,-4.92 4.923,2.055 z m 9.843,4.1 -4.92,-2.055 2.055,-4.923 4.92,2.055 z m 9.844,4.108 -4.923,-2.053 2.055,-4.923 4.923,2.055 z m 9.844,4.1 -4.923,-2.055 2.055,-4.92 4.923,2.055 z m 9.843,4.1 -4.92,-2.055 2.055,-4.92 4.92,2.055 z m 9.844,4.1 -4.923,-2.055 2.055,-4.92 4.92,2.053 z m 9.843,4.1 -4.92,-2.054 2.055,-4.923 4.92,2.055 z m 9.844,4.108 -4.923,-2.055 2.055,-4.92 4.923,2.055 z m 9.844,4.1 -4.92,-2.055 2.053,-4.92 4.923,2.053 z m 9.843,4.1 -4.92,-2.054 2.055,-4.923 4.92,2.055 z m 9.844,4.108 -4.923,-2.055 2.055,-4.92 4.923,2.055 -2.055,4.92"
       id="path877"
       inkscape:connector-curvature="0"
       style="fill:#84dbff;fill-opacity:1" />
  </g>
  <g
     class="B"
     id="g899"
     style="fill:#282d33">
    <path
       d="m 227.432,284.676 c -4.065,0 -7.375,3.308 -7.375,7.375 a 7.39,7.39 0 0 0 7.375,7.377 7.39,7.39 0 0 0 7.377,-7.377 7.38,7.38 0 0 0 -7.377,-7.375 z m 0,20.085 c -7.007,0 -12.708,-5.7 -12.708,-12.7 a 12.73,12.73 0 0 1 12.708,-12.708 c 7.008,0 12.7,5.7 12.7,12.708 a 12.72,12.72 0 0 1 -12.71,12.7 m 18.338,-29.336 c -4.7,-5.187 -11.373,-8.16 -18.337,-8.16 a 24.78,24.78 0 0 0 -18.345,8.156 l -3.956,-3.576 c 5.697,-6.3 13.825,-9.913 22.3,-9.913 8.475,0 16.595,3.615 22.293,9.917 l -3.956,3.577 m -18.335,46.744 c -8.468,0 -16.593,-3.615 -22.292,-9.917 l 3.956,-3.576 c 4.7,5.186 11.372,8.16 18.336,8.16 6.975,0 13.66,-2.972 18.347,-8.156 l 3.957,3.578 a 30.12,30.12 0 0 1 -22.304,9.912 m -34.497,-14.328 -3.773,-3.77 10.633,-10.646 -10.633,-10.648 3.773,-3.768 14.4,14.416 -14.4,14.416"
       id="path881"
       inkscape:connector-curvature="0" />
    <path
       d="m 201.776,296.2 h -16.86 c -11.064,0 -20.064,-9.008 -20.064,-20.08 a 20.09,20.09 0 0 1 20.064,-20.06 v 5.333 a 14.75,14.75 0 0 0 -14.731,14.727 14.76,14.76 0 0 0 14.73,14.746 h 16.86 v 5.333 M 264,307.845 249.6,293.428 264,279.01 l 3.773,3.768 -10.635,10.65 10.635,10.646 -3.773,3.77"
       id="path883"
       inkscape:connector-curvature="0" />
    <path
       d="M 272.024,296.2 H 255.16 v -5.333 h 16.863 a 14.76,14.76 0 0 0 14.731,-14.746 c 0,-8.12 -6.6,-14.724 -14.73,-14.724 v -5.333 c 11.063,0 20.064,8.998 20.064,20.057 0,11.07 -9,20.08 -20.064,20.08 m 108.62,-94.085 H 375.3 v -8.9 h 5.333 v 8.9 m 19.824,5.86 -5.012,-1.824 3.048,-8.372 5.012,1.824 -3.048,8.372 m 16.618,12.284 -4.075,-3.427 5.724,-6.825 4.085,3.427 -5.724,6.825 m 11.403,17.233 -2.668,-4.62 7.713,-4.457 2.668,4.62 -7.713,4.457 m 4.83,20.094 -0.927,-5.253 8.776,-1.55 0.927,5.253 -8.776,1.55 m -104.18,54.878 -4.088,-3.425 5.725,-6.83 4.088,3.426 -5.725,6.83 m -14.82,-18.406 -2.668,-4.62 7.717,-4.458 2.668,4.62 -7.717,4.458 m -7.63,-22.367 -0.93,-5.25 8.776,-1.555 0.93,5.25 -8.776,1.555 m 9.257,-22.086 -8.78,-1.54 0.92,-5.252 8.78,1.54 -0.92,5.252 m 7.475,-19.127 -7.72,-4.452 2.665,-4.62 7.72,4.452 -2.665,4.62 m 13.564,-15.423 -5.73,-6.822 4.085,-3.43 5.73,6.823 -4.084,3.43 M 355,205.2 l -3.055,-8.375 5,-1.827 3.055,8.375 -5,1.827 m 42.535,135.6 h -5.333 v -17.584 h 23.923 c 5.93,0 10.755,-4.827 10.755,-10.758 v -22.32 h 9.612 l -14.165,-24.542 0.03,-0.768 0.056,-2.148 c 0,-25.98 -21.137,-47.112 -47.116,-47.112 -25.979,0 -47.1,21.133 -47.1,47.112 0,12.563 4.9,24.38 13.765,33.277 l 0.78,0.78 v 44.06 h -5.333 v -41.872 a 52.1,52.1 0 0 1 -14.544,-36.248 c 0,-28.92 23.527,-52.445 52.444,-52.445 28.917,0 52.45,23.526 52.45,52.445 a 48.75,48.75 0 0 1 -0.032,1.58 l 18.017,31.2 h -13.517 v 16.985 c 0,8.873 -7.217,16.092 -16.088,16.092 h -18.6 v 12.25 m -21.642,-36.97 c -22.388,0 -40.6,-18.216 -40.6,-40.605 0,-22.389 18.213,-40.604 40.6,-40.604 v 5.333 c -19.447,0 -35.268,15.823 -35.268,35.27 0,19.447 15.82,35.272 35.268,35.272 19.448,0 35.273,-15.82 35.273,-35.28 h 5.333 c 0,22.4 -18.216,40.605 -40.605,40.605"
       id="path885"
       inkscape:connector-curvature="0" />
    <path
       d="m 416.503,263.2 h -5.333 l -0.087,-2.48 5.32,-0.37 0.1,2.85 M 387.36,229.843 a 35.29,35.29 0 0 0 -4.419,-1.2 l 1.06,-5.227 a 40.25,40.25 0 0 1 5.09,1.383 z m 8.18,4.066 a 35.62,35.62 0 0 0 -3.957,-2.301 l 2.375,-4.774 a 40.63,40.63 0 0 1 4.557,2.649 z m 6.87,6.038 a 35.55,35.55 0 0 0 -3.24,-3.243 l 3.52,-4.005 a 41.11,41.11 0 0 1 3.727,3.728 z m 5.097,7.593 a 35.18,35.18 0 0 0 -2.301,-3.961 l 4.428,-2.975 a 40.61,40.61 0 0 1 2.65,4.562 z m 2.964,8.646 a 34.87,34.87 0 0 0 -1.197,-4.42 l 5.044,-1.73 a 40.38,40.38 0 0 1 1.381,5.096 l -5.228,1.055 m -32.096,-28.16 -2.477,-0.088 v -5.333 l 2.855,0.1 -0.377,5.32 m -2.48,63.397 V 286.1 c 12.615,0 22.88,-10.263 22.88,-22.877 0,-12.614 -10.264,-22.88 -22.88,-22.88 -12.616,0 -22.875,10.264 -22.875,22.88 h -5.333 c 0,-15.557 12.653,-28.213 28.208,-28.213 15.555,0 28.212,12.656 28.212,28.213 0,15.557 -12.656,28.2 -28.212,28.2"
       id="path887"
       inkscape:connector-curvature="0" />
    <path
       d="m 347.84,266.152 a 28.64,28.64 0 0 1 -0.151,-2.94 h 5.333 a 23.21,23.21 0 0 0 0.123,2.388 l -5.305,0.552 m 3.213,10.43 a 28.29,28.29 0 0 1 -2.12,-5.056 l 5.097,-1.57 c 0.435,1.415 1.012,2.8 1.716,4.093 z m 6.924,8.416 a 28.35,28.35 0 0 1 -3.87,-3.872 l 4.12,-3.4 a 23.12,23.12 0 0 0 3.143,3.144 z m 9.6,5.175 c -1.743,-0.537 -3.443,-1.25 -5.055,-2.12 l 2.532,-4.695 a 22.89,22.89 0 0 0 4.092,1.716 l -1.57,5.097 m 8.32,1.252 c -0.975,0 -1.96,-0.05 -2.937,-0.15 l 0.545,-5.307 a 23.24,23.24 0 0 0 2.392,0.124 v 5.333 m 0,-38.673 c -5.767,0 -10.457,4.692 -10.457,10.46 a 10.47,10.47 0 0 0 10.457,10.458 10.48,10.48 0 0 0 10.46,-10.458 c 0,-5.758 -4.693,-10.46 -10.46,-10.46 z m 0,26.252 c -8.707,0 -15.8,-7.084 -15.8,-15.792 0,-8.708 7.084,-15.793 15.8,-15.793 8.716,0 15.795,7.085 15.795,15.793 0,8.708 -7.085,15.792 -15.795,15.792 m 196.477,7.762 -5.193,-1.2 a 20.68,20.68 0 0 0 0.535,-4.681 h 5.333 a 26.03,26.03 0 0 1 -0.675,5.9 z m -49.2,3.877 c -0.747,-1.834 -1.283,-3.758 -1.6,-5.717 l 5.268,-0.83 a 20.45,20.45 0 0 0 1.263,4.533 z m 43.97,6.7 -4.115,-3.393 a 20.57,20.57 0 0 0 2.561,-3.952 l 4.78,2.367 a 25.92,25.92 0 0 1 -3.225,4.98 z m -37.155,2.92 a 26.01,26.01 0 0 1 -3.96,-4.412 l 4.35,-3.087 a 20.68,20.68 0 0 0 3.147,3.508 z m 27.796,4.235 -2.2,-4.86 a 20.24,20.24 0 0 0 4.04,-2.415 l 3.24,4.236 a 25.83,25.83 0 0 1 -5.092,3.04 z m -17.427,1.375 c -1.9,-0.52 -3.764,-1.26 -5.5,-2.207 l 2.537,-4.7 a 20.53,20.53 0 0 0 4.37,1.75 z m 6.8,0.9 a 26.95,26.95 0 0 1 -0.935,-0.016 l 0.187,-5.33 a 21,21 0 0 0 4.701,-0.367 l 1.02,5.235 a 26.06,26.06 0 0 1 -4.972,0.477 m -25.465,-37.406 -5.333,-10e-4 0.007,-18.035 18.032,-0.003 v 5.323 l -12.7,10e-4 -0.005,12.704"
       id="path889"
       inkscape:connector-curvature="0" />
    <path
       d="m 545.273,283.993 -26.03,-26.028 3.77,-3.77 26.03,26.028 -3.77,3.77 m 27.35,-14.648 -0.004,-12.7 -12.7,-0.004 v -5.34 l 18.03,0.005 0.005,18.03 h -5.333"
       id="path891"
       inkscape:connector-curvature="0" />
    <path
       d="m 549.108,283.93 -3.77,-3.77 25.97,-25.968 3.77,3.77 -25.97,25.968"
       id="path893"
       inkscape:connector-curvature="0" />
    <path
       d="m 549.825,344.984 h -5.333 V 281.96 h 5.333 v 63.024 m 381.935,-231.5 c -15.143,0 -27.46,12.317 -27.46,27.46 0,15.143 12.32,27.457 27.46,27.457 15.14,0 27.46,-12.317 27.46,-27.457 0,-15.14 -12.32,-27.46 -27.46,-27.46 z m 0,60.25 c -18.083,0 -32.795,-14.7 -32.795,-32.8 0,-18.1 14.712,-32.792 32.795,-32.792 18.083,0 32.793,14.7 32.793,32.792 0,18.092 -14.712,32.8 -32.793,32.8 m 0,-40.162 a 4.87,4.87 0 0 0 -4.861,4.862 4.87,4.87 0 0 0 4.861,4.861 4.87,4.87 0 0 0 4.863,-4.861 4.87,4.87 0 0 0 -4.863,-4.862 z m 0,15.057 a 10.21,10.21 0 0 1 -10.195,-10.195 10.21,10.21 0 0 1 10.195,-10.196 10.21,10.21 0 0 1 10.196,10.196 10.21,10.21 0 0 1 -10.196,10.195"
       id="path895"
       inkscape:connector-curvature="0" />
    <path
       d="m 921.284,153.754 a 16.48,16.48 0 0 0 10.476,3.753 c 3.836,0 7.513,-1.326 10.476,-3.753 a 4.87,4.87 0 0 0 -4.829,-4.299 h -11.29 c -2.492,0 -4.552,1.883 -4.832,4.3 z m 10.476,9.086 a 21.81,21.81 0 0 1 -15.003,-5.969 l -0.84,-0.79 v -1.763 a 10.21,10.21 0 0 1 10.197,-10.196 h 11.29 a 10.21,10.21 0 0 1 10.196,10.196 v 1.763 l -0.84,0.79 c -4.09,3.85 -9.42,5.97 -15.004,5.97"
       id="path897"
       inkscape:connector-curvature="0" />
  </g>
  <path
     d="M401.736 496.236h146.296v-103.89h-27.32l-27.56-27.562v27.563h-91.417v103.89"
     class="D E"
     id="path901"
     style="fill:#f0f7ff;fill-opacity:1" />
  <g
     class="B"
     id="g907"
     style="fill:#282d33">
    <path
       d="m 518.533,461.796 h -87.296 v -5.333 h 87.296 v 5.333 m 0,-15.596 h -87.296 v -5.333 h 87.296 v 5.333 m 0,-15.58 h -87.296 v -5.333 h 87.296 v 5.333"
       id="path903"
       inkscape:connector-curvature="0" />
    <path
       d="m 355.57,440.703 h 87.476 V 380.135 H 385.051 V 366.42 l -13.71,13.716 h -15.77 z m 92.81,5.333 H 350.237 V 374.8 h 18.895 l 21.253,-21.263 V 374.8 h 57.995 v 71.235"
       id="path905"
       inkscape:connector-curvature="0" />
  </g>
  <path
     d="M868.258 424.436V393.41a34.05 34.05 0 0 1 31.899 31.025h-31.9"
     class="C"
     id="path909"
     style="fill:#84dbff;fill-opacity:1" />
  <path
     d="M895.492 460.343l-3.58-3.96c8.1-7.333 12.744-17.813 12.744-28.73 0-20.73-16.205-37.74-36.895-38.72l.252-5.327c23.54 1.116 41.976 20.464 41.976 44.048a44.2 44.2 0 0 1-14.496 32.69m-37.73-70.597c-17.517 3.876-30.377 19.636-30.377 37.852 0 21.384 17.395 38.77 38.776 38.77 5.8 0 11.5-1.293 16.683-3.76l-25.08-32.75zm8.4 81.956c-24.323 0-44.1-19.787-44.1-44.104 0-21.9 16.34-40.68 38-43.68l3.033-.42v44.552l27.747 36.238-2.625 1.52a44.17 44.17 0 0 1-22.056 5.894"
     class="B"
     id="path911" />
  <path
     d="M871.745 429.648l17.78 22.92.745-.693c6-6 9.5-13.827 9.98-22.228h-28.507M657.796 360H608.08v42.884h7.715l11.376 11.375v-11.375h30.627V360"
     class="E D"
     id="path913"
     style="fill:#f0f7ff;fill-opacity:1" />
  <g
     class="B"
     id="g919"
     style="fill:#282d33">
    <path
       d="m 631.603,372.317 a 9.01,9.01 0 0 0 -9,9 c 0,4.962 4.037,9 9,9 4.963,0 9,-4.038 9,-9 a 9.01,9.01 0 0 0 -9,-9 z m 0,23.333 c -7.904,0 -14.333,-6.43 -14.333,-14.333 0,-7.903 6.43,-14.333 14.333,-14.333 7.903,0 14.333,6.43 14.333,14.333 0,7.903 -6.43,14.333 -14.333,14.333"
       id="path915"
       inkscape:connector-curvature="0" />
    <path
       d="m 641.1,395.155 -7.115,-7.113 3.77,-3.772 7.115,7.113 -3.77,3.772"
       id="path917"
       inkscape:connector-curvature="0" />
  </g>
  <path
     d="M672.464 485.65h49.717v-42.88h-7.715l-11.375-11.377v11.377h-30.628v42.88"
     class="C"
     id="path921"
     style="fill:#84dbff;fill-opacity:1" />
  <g
     class="B"
     id="g943"
     style="fill:#282d33">
    <path
       d="m 709.35,477.703 -11.493,-19.907 -11.492,19.907 -4.62,-2.667 13.8,-23.907 c 0.476,-0.827 1.357,-1.333 2.31,-1.333 a 2.66,2.66 0 0 1 2.309,1.333 l 13.803,23.907 -4.62,2.667"
       id="path923"
       inkscape:connector-curvature="0" />
    <path
       d="m 707.412,472.103 h -19.11 v -5.333 h 19.11 v 5.333"
       id="path925"
       inkscape:connector-curvature="0" />
    <use
       xlink:href="#B"
       id="use927"
       x="0"
       y="0"
       width="100%"
       height="100%" />
    <use
       xlink:href="#B"
       y="9.6660004"
       id="use929"
       x="0"
       width="100%"
       height="100%" />
    <path
       d="m 743.66,466.2 -6.435,-4.16 2.89,-4.48 2.383,1.533 5.2,-6.507 4.168,3.32 -8.207,10.293"
       id="path931"
       inkscape:connector-curvature="0" />
    <use
       xlink:href="#B"
       y="28.813"
       id="use933"
       x="0"
       width="100%"
       height="100%" />
    <use
       xlink:href="#B"
       y="38.466"
       id="use935"
       x="0"
       width="100%"
       height="100%" />
    <path
       d="m 743.66,495 -6.436,-4.146 2.893,-4.48 2.383,1.533 5.2,-6.52 4.168,3.333 -8.208,10.28 m 56.092,19.853 h -43.315 v -5.334 h 43.315 v 5.334"
       id="path937"
       inkscape:connector-curvature="0" />
    <use
       xlink:href="#B"
       y="67.279999"
       id="use939"
       x="0"
       width="100%"
       height="100%" />
    <path
       d="m 743.66,523.823 -6.436,-4.16 2.893,-4.48 2.383,1.547 5.2,-6.52 4.168,3.32 -8.207,10.293"
       id="path941"
       inkscape:connector-curvature="0" />
  </g>
  <defs
     id="defs946">
    <path
       id="B"
       d="M799.753 457.25h-43.315v-5.333h43.315v5.333" />
  </defs>
</svg>
