<svg xmlns="http://www.w3.org/2000/svg" xmlns:xlink="http://www.w3.org/1999/xlink" width="1205" height="550"><style><![CDATA[.B{fill:#282d33}.C{fill:#84dbff}.D{fill:#4e96c1}]]></style><path d="M947.622 143.915h172.744c6.9-12.867 20.48-21.627 36.1-21.627 16.47 0 30.63 9.747 37.132 23.76h-34.9l-9.928 17.197 9.928 17.197h34.9c-6.503 14.02-20.664 23.754-37.132 23.754-15.628.003-29.2-8.753-36.108-21.624H977.46l-29.84-.002c-6.908 12.868-20.48 21.63-36.108 21.63-16.47-.003-30.632-9.74-37.133-23.757h34.892l9.925-17.2-9.923-17.194H874.38c6.496-14.027 20.66-23.76 37.128-23.76 15.633 0 29.2 8.747 36.1 21.627m-171.52 3.48c.173-1.48.283-2.974.283-4.494 0-20.96-16.984-37.96-37.95-37.96-3.553 0-7 .534-10.26 1.44-3.717-27.133-26.98-48.053-55.153-48.053-30.76 0-55.695 24.934-55.695 55.68 0 .12.007.253.007.373-16.935 1.934-30.097 16.293-30.097 33.747 0 18.773 15.215 34 33.987 34h152.853l.025-.077a16.82 16.82 0 0 0 1.467.077c9.597 0 17.375-7.778 17.375-17.378 0-9.416-7.495-17.065-16.843-17.345" class="D"/><g class="C"><path d="M586.944 340.454c-30.652 0-55.5-24.85-55.5-55.508 0-30.65 24.848-55.508 55.5-55.508 30.664 0 55.5 24.857 55.5 55.508 0 30.66-24.845 55.508-55.5 55.508m-448.81-68.027c-3.04-1.88-5.5-2.893-12.012-2.893h-12.156v54.846h12.3c3.473 0 6.223-.3 9.407-1.88 12.012-5.8 11.723-24.168 11.723-25.76 0-.868.3-18.1-9.26-24.313zm40.23 39.797c-1.592 6.657-6.8 27.063-28.364 33.285-8.25 2.46-17.5 2.315-25.904 2.315H81.55V245.656h34.73c4.487 0 9.117.145 13.604.3 13.603.58 26.048 1.88 36.323 11.722 6.657 6.513 13.748 17.945 13.748 38.64 0 7.524-1.013 13.168-1.592 15.917"/><path d="M190.08 347.824V245.656h80.895v22.43h-48.48v15.194h45.296v22.142h-45.44v20.26h52.964v22.142H190.08m154.987 0h-33.72l-34.153-102.168h32.995l18.235 62.66 18.1-62.66h33.14l-34.587 102.168m40.94 0V245.656h80.895v22.43h-48.48v15.194h45.296v22.142h-45.44v20.26h52.965v22.142h-85.236m93.483 0V245.656h32.27v76.4h39.507v25.76H479.5m236.97-74.953c-3.183-5.8-9.984-5.8-11.72-5.8h-18.233v26.05h18.38c.433 0 3.617-.145 5.8-.868 2.893-1.013 7.38-4.197 7.38-12.3 0-1.157 0-4.197-1.593-7.1zm31.26 20.695c-1.304 3.472-6.513 14.18-17.8 18.377-6.08 2.316-12.157 2.604-18.524 2.604h-24.9v33.286H654.1v-102.17h58.32c9.987 0 19.248.724 27.208 7.67 10.275 8.828 10.563 21.128 10.563 25.614 0 2.027-.144 8.54-2.46 14.618"/></g><path d="M737.873 255.335c-7.42-6.475-16.276-7.012-25.455-7.012H654.1v-5.333h58.32c9.825 0 20.155.644 28.96 8.327zm-32.98 40.455l-.003-5.333c.617-.004 3.315-.188 4.95-.732 1.643-.576 5.556-2.708 5.556-9.77 0-1.05 0-3.512-1.263-5.807-1.61-2.924-4.767-4.407-9.385-4.407h-18.233v-5.333h18.233c8.36 0 12.26 3.9 14.06 7.17 1.923 3.495 1.923 7.04 1.923 8.376 0 10.772-7.016 14.065-9.167 14.817-2.833.944-6.633 1.02-6.67 1.02zm-15.712 52.035h-5.333v-35.952h27.557v5.333h-22.224v30.62" class="B"/><path d="M845.866 321.464l7.78-73.685-27.792 71.65-23.9-2.428-12.52-75.748-7.35 73.728-30.52-3.103 10.332-101.644 46.07 4.683 10.06 65.607 22.767-62.27 46.072 4.682-10.332 101.646-30.667-3.118m49.318 26.36V245.656h80.895v22.43H927.6v15.194h45.296v22.142h-45.44v20.26h52.965v22.142h-85.236m157.3 0l-34.008-59.332.3 59.332h-30.1V245.656h34.3l34.587 59.477-.435-59.477h30.244v102.168h-34.875m99.556-76.988v76.988h-32.27v-76.988h-26.05v-25.18h84.224v25.18h-25.904" class="C"/><g class="B"><path d="M84.216 347.824h-5.333V243h37.398c4.673 0 9.672.162 13.7.3 13.84.6 27.143 1.985 38.08 12.46l-3.688 3.85c-9.6-9.203-21.352-10.42-34.592-10.983l-13.5-.287H84.216v99.5m186.244-42.397h-5.333v-19.475h-42.63v-5.333h47.963zm7.524 45.068h-90.57v-107.5h83.56v5.333h-78.228v96.834h79.903V328.35h-50.297v-5.333h55.63v27.475m68.998.008h-35.63v-5.333h31.805l9.443-27.9 5.052 1.7-10.67 31.515m478.604-28.4l-23.9-2.428.54-5.307 23.9 2.43zm53.332 5.422l-33.32-3.387.54-5.307 28.013 2.848 9.793-96.34-41.357-4.203-22.053 60.32-5.14-.5-9.745-63.566-44.017-4.474.54-5.307 48.124 4.892 8.8 57.38L839 215.4l50.788 5.162-10.872 106.952m97.162-79.19h-80.895V243h80.895zm-.516 57.1h-5.333v-19.475H927.6v-5.333h47.963zm4.857 22.927h-52.965v-5.333h52.965v5.333m10.913 19.474H986V243h36.965v5.333h-31.632v99.5M1154.7 350.5h-37.604v-79.655h5.333v74.32h26.937V268.17h25.904v-19.847h-81.557V243h86.9v30.514H1154.7v76.988"/><use xlink:href="#B"/><path d="M913.154 91.768l-28.55-28.56 3.77-3.76 28.55 28.546-3.77 3.773m147.49 81.325h23.216v-23.217h-23.216zm28.55 5.333h-33.883V144.54h33.883v33.884"/><path d="M1084.642 177.646l-28.55-28.557 3.77-3.76 28.55 28.545-3.77 3.772"/><path d="M1060.645 201.688h23.216v-23.216h-23.216zm28.55 5.333h-33.883V173.14h33.883v33.883"/><use xlink:href="#C"/><path d="M1060.645 230.237h23.216V207.02h-23.216zm28.55 5.333h-33.883v-33.883h33.883v33.883"/><use xlink:href="#C" y="28.56"/><path d="M1060.645 258.787h23.216V235.57h-23.216zm28.55 5.333h-33.883v-33.883h33.883v33.883"/><use xlink:href="#C" y="57.1"/><path d="M1060.645 57.98h23.216V34.768h-23.216zm28.55 5.333h-33.883v-33.88h33.883v33.88"/><path d="M1084.642 62.528l-28.55-28.547 3.77-3.773 28.55 28.56-3.77 3.76m-23.997 53.932h23.216V93.248h-23.216zm28.55 5.333h-33.883v-33.88h33.883v33.88"/><path d="M1084.642 121.008l-28.55-28.547 3.77-3.773 28.55 28.547-3.77 3.773"/><path d="M1060.645 145.008h23.216v-23.213h-23.216zm28.55 5.333h-33.883v-33.88h33.883v33.88"/><path d="M1084.642 149.555l-28.55-28.546 3.77-3.773 28.55 28.56-3.77 3.76m-23.997 137.78h23.216V264.12h-23.216zm28.55 5.333h-33.883v-33.883h33.883v33.883"/><use xlink:href="#C" y="85.648"/><path d="M1060.63 315.885h23.216V292.67h-23.216zm28.55 5.333h-33.883v-33.883h33.883v33.883"/><use xlink:href="#C" x="-0.014" y="114.198"/><path d="M1060.63 344.435h23.216V321.22h-23.216zm28.55 5.333h-33.883v-33.883h33.883v33.883"/><use xlink:href="#C" x="-0.014" y="142.747"/><path d="M1060.63 373.65h23.216v-23.216h-23.216zm28.55 5.333h-33.883v-33.882h33.883v33.882"/><use xlink:href="#C" x="-0.014" y="171.963"/><path d="M1060.63 402.867h23.216V379.65h-23.216zm28.55 5.333h-33.883v-33.883h33.883V408.2"/><path d="M1084.628 407.42l-28.55-28.55 3.77-3.77 28.55 28.55-3.77 3.772"/><path d="M1043.568 373.65h57.34v-23.216h-57.34zm62.675 5.333h-68.008v-33.882h68.008v33.882"/><path d="M1043.568 402.867h57.34V379.65h-57.34zm62.675 5.333h-68.008v-33.883h68.008V408.2m-84.718 25.855h101.456V423.12h-101.456zm106.8 5.333h-112.123v-21.602h112.123v21.602"/><path d="M1031.8 417.6h80.885v-8.877H1031.8zm86.22 5.333h-91.552V403.39h91.552v19.544M917.204 87.208h23.216V63.995h-23.216zm28.55 5.333H911.87V58.66h33.883v33.88"/><use xlink:href="#D"/><path d="M946 87.208h23.216V63.995H946zm28.55 5.333h-33.883v-33.88h33.883v33.88"/><path d="M969.997 91.768l-28.55-28.56 3.772-3.773 28.55 28.56-3.772 3.773"/><path d="M974.8 87.208h23.216V63.995H974.8zm28.55 5.333h-33.883v-33.88h33.883v33.88"/><path d="M998.796 91.768l-28.55-28.56 3.772-3.773 28.55 28.56-3.772 3.773"/><use xlink:href="#B" x="114.439"/><use xlink:href="#D" x="86.393"/><use xlink:href="#B" x="143.237"/><path d="M1056.392 91.768l-28.55-28.56 3.772-3.773 28.55 28.56-3.77 3.773"/><path d="M1061.2 87.208h23.217V63.995H1061.2zm28.55 5.333h-33.884v-33.88h33.884v33.88"/><path d="M1085.19 91.768l-28.55-28.56 3.772-3.773 28.55 28.56-3.77 3.773"/><use xlink:href="#B" x="200.831"/><use xlink:href="#D" x="172.785"/><use xlink:href="#B" x="229.629"/><use xlink:href="#D" x="201.584"/><path d="M1147.582 87.208h23.217V63.995h-23.217zm28.55 5.333h-33.884v-33.88h33.884v33.88"/><path d="M1171.58 91.768l-28.55-28.56 3.77-3.773 28.55 28.56-3.772 3.773"/><use xlink:href="#B" x="287.223"/><use xlink:href="#D" x="259.178"/><path d="M773.42 87.208h23.216V63.995H773.42zm28.55 5.333h-33.883v-33.88h33.883v33.88"/><use xlink:href="#D" x="-143.782"/><path d="M802.22 87.208h23.215V63.995H802.22zm28.548 5.333h-33.88v-33.88h33.88v33.88"/><path d="M826.216 91.768l-28.55-28.56 3.772-3.773 28.548 28.56-3.77 3.773"/><path d="M831.017 87.208h23.215V63.995h-23.215zm28.548 5.333h-33.88v-33.88h33.88v33.88"/><path d="M855.012 91.768l-28.548-28.56 3.772-3.773 28.548 28.56-3.772 3.773"/><path d="M859.814 87.208h23.216V63.995h-23.216zm28.55 5.333H854.48v-33.88h33.883v33.88"/><use xlink:href="#D" x="-57.388"/><path d="M1083.917 32.808l-11.668-21.653-11.667 21.653-4.695-2.533 14.015-26.013h4.695l14.016 26.013-4.696 2.533"/><path d="M771.24 63.955l-.97-5.253 302.3-55.947 130.757 56.12-2.103 4.907-129.273-55.48-300.7 55.653m329.967 283.503l-18.075-56.445 5.08-1.625 18.073 56.445-5.08 1.625m-57.948 0l-5.08-1.625 18.076-56.445 5.08 1.625-18.075 56.445m132.577-237.57h23.752V92.82h-23.752zm29.085 5.333h-34.42V87.488h34.42v27.733"/><path d="M1175.846 109.888h23.752v-5.027h-23.752zm29.085 5.333h-34.42V99.528h34.42v15.693m-402.75-5.333h23.752V92.82H802.18zm29.085 5.333h-34.42V87.488h34.42v27.733"/><path d="M802.18 109.888h23.752v-5.027H802.18zm29.085 5.333h-34.42V99.528h34.42v15.693"/><path d="M815.173 142.42h-5.333v-30.04h5.333v30.04"/><path d="M810.297 163.146h4.74v-17.337h-4.74zm10.075 5.333h-15.408v-28.004h15.408v28.004"/><path d="M812.668 187.79a10.24 10.24 0 0 1-10.224-10.224 10.24 10.24 0 0 1 10.224-10.224v5.333c-2.697 0-4.89 2.193-4.89 4.89a4.9 4.9 0 0 0 4.891 4.891 4.9 4.9 0 0 0 4.889-4.891h5.333a10.24 10.24 0 0 1-10.223 10.224"/><path d="M845.113 232.155l-32.445-49.34-15.223 23.134-6.21 8.096-4.232-3.247 6.15-8.02 17.285-26.28h4.456l34.675 52.725-4.457 2.93"/></g><path d="M544.773 449.03c-9.452-9.45-9.452-24.773 0-34.227s24.777-9.453 34.23-.002 9.453 24.778 0 34.23a24.21 24.21 0 0 1-34.229-.001zm63.407 46.536l15.432-15.427-12.576-14.863a59.06 59.06 0 0 0 8.605-19.424l19.99-1.664-.001-21.82-19.39-1.616a59.16 59.16 0 0 0-7.661-19.811l12.96-15.32-15.43-15.43-14.86 12.572a59.06 59.06 0 0 0-19.421-8.601l-1.66-20-21.825-.004-1.616 19.395c-6.912 1.315-13.632 3.875-19.812 7.662l-15.316-12.96-15.433 15.427 12.573 14.86c-4.087 6.01-6.96 12.595-8.6 19.424l-19.99 1.664-.003 21.823 19.39 1.616a59.13 59.13 0 0 0 7.661 19.811l-12.96 15.317 15.43 15.433 14.86-12.573c6.01 4.085 12.595 6.958 19.42 8.6l1.665 19.988 21.823.001 1.62-19.39c6.912-1.317 13.63-3.877 19.81-7.662l15.317 12.96" class="D"/><g class="B"><path d="M518.453 86.168h-2.667v-5.333h2.667v5.333m10.872 0h-5.436v-5.333h5.436zm10.87 0h-5.435v-5.333h5.435zm10.872 0h-5.435v-5.333h5.435zm10.872 0h-5.436v-5.333h5.436zm10.872 0h-5.436v-5.333h5.436zm10.872 0h-5.436v-5.333h5.436v5.333m8.103 0h-2.667v-5.333h2.667v5.333m-120 14.667h-2.667V95.5h2.667v5.333m10.874.002h-5.436V95.5h5.436zm10.87 0h-5.435V95.5h5.435zm10.872 0h-5.435V95.5h5.435zm10.872 0h-5.436V95.5h5.436zm10.872 0H520.7V95.5h5.436zm10.872 0h-5.436V95.5h5.436v5.333m8.102.002h-2.667V95.5h2.667v5.333m-212-17.333h-2.667v-5.333h2.667V83.5m10.773 0h-5.387v-5.333h5.387zm10.773 0h-5.387v-5.333h5.387zm10.773 0h-5.388v-5.333h5.388zm10.773 0h-5.387v-5.333h5.387zm10.773 0H381.6v-5.333h5.387zm10.773 0h-5.387v-5.333h5.387zm10.773 0h-5.387v-5.333h5.387zm10.773 0h-5.387v-5.333h5.387zm10.772 0h-5.387v-5.333h5.387zm10.775 0h-5.387v-5.333h5.387zm10.773 0h-5.387v-5.333h5.387zm10.773 0H457v-5.333h5.387V83.5m8.066 0h-2.667v-5.333h2.667V83.5m-41.44 35.36h-5.333V99.3h5.333v19.56"/><path d="M436.124 111.742H416.57v-5.333h19.555v5.333M607.68 76.195h-5.333v-19.56h5.333v19.56"/><path d="M614.79 69.075h-19.555v-5.333h19.555v5.333"/></g><path d="M676.168 114.075a10.99 10.99 0 0 1-10.988-10.986c0-6.067 4.92-11 10.988-11s10.99 4.933 10.99 11a10.99 10.99 0 0 1-10.991 10.986zm26.543-6.8V99.82l-6.624-.546a20.22 20.22 0 0 0-2.609-6.773l4.423-5.227-5.268-5.267-5.07 4.293c-1.985-1.347-4.227-2.347-6.63-2.934l-.57-6.827h-7.45l-.552 6.626a20.2 20.2 0 0 0-6.765 2.614l-5.227-4.427-5.268 5.267 4.29 5.066c-1.35 1.987-2.352 4.227-2.932 6.64l-6.827.573v7.44l6.623.56c.463 2.427 1.36 4.72 2.61 6.76l-4.42 5.227 5.265 5.267 5.07-4.293c1.988 1.36 4.228 2.36 6.635 2.934l.565 6.827h7.452l.55-6.613c2.44-.467 4.72-1.36 6.767-2.613l5.227 4.413 5.268-5.267-4.29-5.066c1.35-1.987 2.355-4.227 2.933-6.627l6.827-.573" class="C"/><g class="B"><path d="M116.04 272.833c-4.97 0-9.012 4.04-9.012 9.005s4.043 9.008 9.012 9.008a9.02 9.02 0 0 0 9.003-9.008c0-4.965-4.04-9.005-9.003-9.005zm0 23.347c-7.91 0-14.345-6.434-14.345-14.34s6.435-14.34 14.345-14.34c7.904 0 14.336 6.432 14.336 14.34a14.36 14.36 0 0 1-14.336 14.341"/><path d="M118.707 335.177h-5.333v-41.664h5.333v41.664"/><path d="M116.04 331.73H107v-5.333h9.04v5.333m0-8.747H107v-5.333h9.04v5.333"/></g><path d="M71.9 164.425L23.92 180.02c4.577 9.016 11.192 16.85 19.696 23.334l28.284-38.93m11.875-17.07V64.528c-8.564.146-15.908 1.4-24.213 4.093-21.376 6.947-38.77 21.8-48.98 41.84-9.933 19.493-11.898 41.613-5.588 62.504l78.78-25.6m1.813 70.193c18.395 0 35.693-7.162 48.696-20.166 26.87-26.87 26.87-70.597-.004-97.464-10.847-10.854-23.603-17.4-37.943-19.507v71.827l-3.9 5.264L54.27 210.06c9.642 4.914 20.42 7.5 31.3 7.5h.005" class="D"/><path d="M316.17 297.736l-27.22-21.576 27.217-21.58 3.313 4.18-21.947 17.4 21.947 17.396-3.312 4.18m45.156 0l-3.312-4.18 21.948-17.396-21.948-17.397 3.312-4.18 27.22 21.576-27.22 21.576m-28.087 9.605l-5.12-1.5 17.724-60.868 5.12 1.5-17.725 60.868" class="B"/><path d="M895.153 343.908c0 2.015 1.633 3.646 3.647 3.646h3.1a4.65 4.65 0 0 0-.379 1.844v9.113h24.915v-9.11c0-.676-.144-1.3-.376-1.844h3.112c2.012 0 3.644-1.632 3.644-3.646v-90.715c0-2.013-1.633-3.645-3.648-3.645h-30.38c-2.013 0-3.645 1.632-3.645 3.645l.001 90.715m18.834 14.68l.001 50.832-.001-50.832" class="C"/><g class="B"><path d="M911.322 409.42l-.001-50.832h5.333l.001 50.832h-5.333"/><path d="M911.965 435.64h4.048l3.427-15.5-5.45-6.696-5.452 6.696zm8.33 5.333h-12.613l-4.91-22.2 8.775-10.776h4.885l8.772 10.776-4.91 22.2"/></g><path d="M921.28 337.287v-77.472 77.472" class="C"/><path d="M923.948 337.287h-5.333v-77.472h5.333v77.472" class="B"/><path d="M906.697 337.287v-77.472 77.472" class="C"/><path d="M909.364 337.287h-5.333v-77.472h5.333v77.472" class="B"/><path d="M932.905 347.12h-37.752 37.752" class="C"/><g class="B"><path d="M932.905 349.787h-37.752v-5.333h37.752v5.333M228.24 160.096h-52.72v-5.333h52.72v5.333m-22.537 14.332h-20.12v-5.333h20.12v5.333m0 14.332h-20.12v-5.333h20.12v5.333m0 14.34h-20.12v-5.333h20.12v5.333m101.065-28.662h-49.204v-5.333h49.204v5.333m0 14.322h-61.736v-5.333h61.736v5.333m0 14.33h-61.736v-5.333h61.736v5.333m-78.528-28.662h-13.86v-5.333h13.86v5.333m.327 14.332h-14.175v-5.333h14.175v5.333m0 14.34h-14.175v-5.333h14.175v5.333m9.886-14.33h-3.765v-5.333h3.765v5.333m0 14.32h-3.765v-5.333h3.765v5.333"/><use xlink:href="#E"/><use xlink:href="#E" y="14.332"/><use xlink:href="#E" y="28.662"/><path d="M216.68 231.75h-31.1v-5.333h31.1v5.333m90.088 0h-47.1v-5.333h47.1v5.333m-63.568 0h-17.83v-5.333h17.83v5.333m9.893 0h-3.776v-5.333h3.776v5.333M454.48 376.412H308.597v-5.333H454.48v5.333m-157.316 0h-69.97v-5.333h69.97v5.333M408.75 231.75h-47.104v-5.333h47.104v5.333m-63.566 0H320.03v-5.333h25.153v5.333m9.89 0h-3.77v-5.333h3.77v5.333m62.196 0h-3.77v-5.333h3.77v5.333"/><use xlink:href="#E" y="57.322"/><path d="M216.68 405.073h-31.1v-5.333h31.1v5.333"/><use xlink:href="#E" y="230.645"/><path d="M226.395 405.073h-3.77v-5.333h3.77v5.333m-33.498 57.32h-31.1v-5.333h31.1v5.333m-36.925.001H152.2v-5.333h3.773v5.333"/><use xlink:href="#E" x="22.867" y="287.966"/><use xlink:href="#E" x="26.069" y="216.312"/><path d="M220.34 362.082h-18.297v-5.333h18.297v5.333m78.176 0h-71.323v-5.333h71.323v5.333m113.437-187.654h-61.737v-5.333h61.737v5.333m0 14.332h-61.737v-5.333h61.737v5.333m0 14.34h-61.737v-5.333h61.737v5.333m111.132-28.662H415.16v-5.333h107.925v5.333m39.787 14.322H415.16v-5.333h147.712v5.333m26.52 14.33H415.16v-5.333h174.233v5.333m-255.638-28.662h-14.18v-5.333h14.18v5.333m0 14.332h-14.18v-5.333h14.18v5.333m0 14.33h-14.18v-5.333h14.18v5.333"/><use xlink:href="#E" x="163.892"/><use xlink:href="#E" x="163.892" y="14.332"/><use xlink:href="#E" x="163.892" y="28.662"/><path d="M541.03 174.428h-3.777v-5.333h3.777v5.333"/><use xlink:href="#E" x="397.582" y="14.332"/><path d="M602.03 203.1h-3.78v-5.333h3.78v5.333m-304.866 14.333h-121.64V212.1h121.64v5.333M181 492.868h-20.124v-5.333H181v5.333m47.097 28.664h-20.113V516.2h20.113v5.333m172.88-.001H267.44V516.2h133.537v5.333M372.62 507.2H176.895v-5.333H372.62v5.333m-121.643 14.332H236.8V516.2h14.177v5.333m9.9-.001h-3.77V516.2h3.77v5.333m-105.825-28.665h-3.772v-5.333h3.772v5.333m34.304 0h-3.775v-5.333h3.775v5.333m54.76 42.992h-9.148v-5.333h9.148v5.333m-14.976 0h-3.77v-5.333h3.77v5.333m23.324 0h-3.775v-5.333h3.775v5.333m-50.308-14.328h-3.773V516.2h3.773v5.333m281.774 28.66H251.435v-5.333H483.93v5.333m-74.607-28.66h-3.773V516.2h3.773v5.333M342.896 419.4H175.523v-5.333h167.373v5.333m80.494 14.335H175.523V428.4H423.4v5.333m-163.732 14.33h-84.145v-5.333h84.145v5.333"/><use xlink:href="#F"/><use xlink:href="#F" y="14.332"/><use xlink:href="#F" y="28.664"/><use xlink:href="#F" y="42.994"/><use xlink:href="#F" y="57.327"/><use xlink:href="#F" y="71.654"/><use xlink:href="#F" y="201.986"/><use xlink:href="#F" y="216.316"/><use xlink:href="#F" y="230.644"/><use xlink:href="#F" y="244.977"/><use xlink:href="#F" y="259.304"/><path d="M117.897 433.735h-9.145V428.4h9.145v5.333"/><use xlink:href="#F" y="287.967"/><use xlink:href="#F" y="302.298"/><use xlink:href="#F" y="316.63"/><use xlink:href="#F" y="330.957"/><use xlink:href="#F" y="345.289"/><path d="M755.6 264.3a17.47 17.47 0 0 0-17.448 17.445c0 7.327 11.34 19.15 17.448 24.705 6.107-5.555 17.447-17.378 17.447-24.705A17.47 17.47 0 0 0 755.6 264.31zm0 49.212l-1.73-1.475c-2.155-1.837-21.05-18.293-21.05-30.292 0-12.56 10.22-22.78 22.78-22.78s22.78 10.22 22.78 22.78c0 12-18.896 28.455-21.05 30.292l-1.73 1.475m0-37.3c-3.05 0-5.53 2.478-5.53 5.523s2.48 5.525 5.53 5.525a5.53 5.53 0 0 0 5.52-5.525 5.53 5.53 0 0 0-5.52-5.523zm0 16.38a10.87 10.87 0 0 1-10.863-10.858c0-5.986 4.863-10.844 10.863-10.844a10.87 10.87 0 0 1 10.853 10.856c0 5.986-4.87 10.858-10.853 10.858m-49.604-85.86h-5.333V151.9h5.333v54.852"/><path d="M714.878 163.956l-11.55-11.548-11.55 11.548-3.772-3.77 15.32-15.324 15.32 15.324-3.77 3.77m-44.88 39.528h-5.333v-54.85h5.333v54.85"/><path d="M667.33 210.524L652 195.204l3.772-3.77 11.55 11.55 11.55-11.55 3.77 3.77-15.32 15.32M179.896 58.768h126v-10h-126zM311.23 64.1H174.563V43.435H311.23v20.667"/><path d="M311.23 143.542h-52.5v-5.333h47.167V87.235l-9.472 10.68-7.663-4.96-12.807 12.906-3.785-3.76 15.855-15.973 7.45 4.813 15.755-17.76v70.36m-84.5.001h-52.167V108.73l14.696 9.213 22.573-14.64 2.9 4.48-25.427 16.48-9.4-5.907v19.853h46.833v5.333m-38.525-87.214h-4.984v-5.333h4.984v5.333m8.634 0h-4.988v-5.333h4.988v5.333"/><path d="M205.473 56.328h-4.987v-5.333h4.987v5.333m37.594 17.707c-7.65.027-14.768 2.974-20.1 8.32-5.355 5.36-8.304 12.506-8.303 20.106s2.953 14.733 8.312 20.08c5.363 5.374 12.505 8.32 20.115 8.32v2.667l.045-2.667c7.576-.013 14.692-2.973 20.036-8.32a28.19 28.19 0 0 0 8.307-20.093c-.005-7.6-2.96-14.747-8.32-20.093a28.2 28.2 0 0 0-20.08-8.32zm.013 62.16c-9.033 0-17.516-3.507-23.885-9.88-6.367-6.36-9.873-14.827-9.875-23.854a33.51 33.51 0 0 1 9.864-23.867c6.345-6.36 14.8-9.867 23.807-9.893 9.095 0 17.564 3.506 23.927 9.88 6.368 6.36 9.88 14.84 9.884 23.867a33.49 33.49 0 0 1-9.868 23.867 33.58 33.58 0 0 1-23.797 9.88h-.056m-3.373 35.8h6.704v-20.68h-6.704zm12.037 5.333h-17.37V145.98h17.37v31.345"/><path d="M239.667 146.355h-5.333l.004-8.6h17.45v8.6h-5.333v-3.267h-6.785l-.001 3.267"/><path d="M246.195 138.9h-5.333l.003-6.573h5.333l-.003 6.573M235.7 116.995l-15.9-5.853 1.84-5 12.58 4.626 18.54-19.827 14.6 9.253-2.86 4.507-10.865-6.894-17.933 19.187m-55.806-11.466h-5.333V60.195h5.333v45.333M311.23 69.755h-5.333v-9.56h5.333v9.56m203.82 268.232h-5.333v-88.935h-27.58v88.935h-5.333V243.72h38.247v94.268m-46-.001h-5.333V285.72h-27.58v52.268h-5.333v-57.602h38.247v57.602"/><path d="M423.05 337.987h-5.333v-9.602h-27.58v9.602h-5.333v-14.935h38.247v14.935M476.627 211.5l-.04 15.518 16.535.03 2.136 3.707 2.132-3.707h16.508l.036-15.516zm18.63 29.914l-5.216-9.034h-13.413c-2.963 0-5.372-2.406-5.372-5.362V211.54a5.37 5.37 0 0 1 5.372-5.364H513.9c2.96 0 5.37 2.407 5.37 5.364v15.487a5.37 5.37 0 0 1-5.37 5.362h-13.42l-5.22 9.034m10.056-19.323h-20.1v-5.333h20.1v5.333m45.137 127.23H367.787v-5.333h182.667v5.333m36.41-26.018c-21.816 0-39.564-17.748-39.564-39.564s17.748-39.562 39.564-39.562v5.333c-18.875 0-34.23 15.354-34.23 34.23s15.356 34.23 34.23 34.23v5.333"/><path d="M586.865 323.312c-13.465 0-24.012-17.378-24.012-39.564s10.547-39.562 24.012-39.562c9.864 0 18.596 9.644 22.247 24.568l-5.18 1.267c-3-12.263-9.86-20.5-17.067-20.5-10.125 0-18.68 15.674-18.68 34.23s8.553 34.23 18.68 34.23v5.333"/><path d="M618.545 270.756c-4.957-12.074-16.165-20.148-29.013-21.136v13.987H584.2v-19.42h2.667a39.44 39.44 0 0 1 36.613 24.544l-4.933 2.027M578.8 299.42h-28.3l-.65-1.728c-1.704-4.532-2.567-9.224-2.567-13.944s.864-9.417 2.572-13.948l.65-1.727h28.288v5.333h-24.548c-1.08 3.385-1.628 6.856-1.628 10.34s.545 6.952 1.625 10.34h24.55v5.333"/><path d="M589.57 355.325h81.65v-81.89h-81.65zm86.984 5.333h-92.317v-92.556h92.317v92.556"/><path d="M673.887 292.77h-86.984v-5.333h86.984v5.333m-41.334-9.6h-38.317v-5.333h38.317v5.333m32.803-.01h-4.988v-5.333h4.988v5.333m-7.962 49.25h-56.667v-5.333h56.667v5.333"/><path d="M657.394 301.243h-56.667V319.9h56.667zm-5.333 5.333v8h-46v-8h46m5.333 37.167h-56.667V338.4h56.667v5.333m-88.06 59.437h-5.328v-5.333h5.328zm10.66 0h-5.33v-5.333h5.33zm10.66 0h-5.33v-5.333h5.33zm10.657 0h-5.328v-5.333h5.328zm10.66 0h-5.33v-5.333h5.33zm10.657 0h-5.33v-5.333h5.33zm10.66 0h-5.33v-5.333h5.33zm10.657 0h-5.33v-5.333h5.33zm10.66 0h-5.33v-5.333h5.33zm10.66 0h-5.33v-5.333h5.33zm10.657 0h-5.328v-5.333h5.328zm10.66 0h-5.33v-5.333h5.33zm10.66 0h-5.33v-5.333h5.33zm10.657 0h-5.328v-5.333h5.328zm10.66 0h-5.33v-5.333h5.33zm10.66 0h-5.33v-5.333h5.33zm10.66 0h-5.33v-5.333h5.33zm10.657 0h-5.33v-5.333h5.33zm10.66 0h-5.33v-5.333h5.33zm10.66 0h-5.33v-5.333h5.33zm10.657 0h-5.33v-5.333h5.33zm10.66 0h-5.33v-5.333h5.33zm10.66 0h-5.33v-5.333h5.33zm10.657 0h-5.328v-5.333h5.328zm10.66 0h-5.33v-5.333h5.33zm10.66 0h-5.33v-5.333h5.33zm10.657 0h-5.328v-5.333h5.328zm10.66 0h-5.33v-5.333h5.33zm10.66 0h-5.33v-5.333h5.33zm10.66 0h-5.33v-5.333h5.33zm10.657 0h-5.33v-5.333h5.33zm10.66 0h-5.33v-5.333h5.33zm10.66 0h-5.33v-5.333h5.33zm10.657 0h-5.33v-5.333h5.33zm10.66 0h-5.33v-5.333h5.33zm10.66 0h-5.33v-5.333h5.33zm10.657 0h-5.328v-5.333h5.328zm10.576.013l-.868-.013h-4.38v-5.333h4.38l1.033.016zm-409.667.595l-1.092-5.22a34.18 34.18 0 0 1 5.73-.7l.195 5.33c-1.625.06-3.25.257-4.833.6zm419.172 1.336a28.56 28.56 0 0 0-4.668-1.373l1.06-5.227a33.67 33.67 0 0 1 5.547 1.632zm-428.176 2.243l-2.785-4.548a33.97 33.97 0 0 1 5.164-2.585l1.97 4.956a28.51 28.51 0 0 0-4.349 2.177zm436.48 2.772a28.63 28.63 0 0 0-3.937-2.864l2.76-4.564a34.06 34.06 0 0 1 4.672 3.396zm-443.773 3.624l-4.143-3.357c1.2-1.496 2.557-2.895 4.003-4.16l3.516 4c-1.22 1.068-2.355 2.248-3.376 3.508zm449.93 3.876a28.74 28.74 0 0 0-2.759-4.011l4.123-3.385a34.07 34.07 0 0 1 3.271 4.757zm-454.67 4.585l-5.03-1.774a33.79 33.79 0 0 1 2.383-5.266l4.653 2.608c-.793 1.415-1.468 2.905-2.007 4.432zm457.95 4.53a28.14 28.14 0 0 0-1.25-4.7l5.02-1.807a33.87 33.87 0 0 1 1.484 5.585zm-464.93 5.036v-.065a34.22 34.22 0 0 1 .475-5.682l5.26.888a28.93 28.93 0 0 0-.4 4.793zm470.18 5.687l-5.257-.9a28.87 28.87 0 0 0 .411-4.852l5.333-.152v.172a34.15 34.15 0 0 1-.487 5.732zm-468.2 5.657a34.09 34.09 0 0 1-1.472-5.586l5.256-.912a28.45 28.45 0 0 0 1.237 4.704zm464.355 5.195l-4.645-2.62a28.3 28.3 0 0 0 2.016-4.428l5.025 1.786a33.63 33.63 0 0 1-2.396 5.26zm-458.7 4.823a33.77 33.77 0 0 1-3.26-4.766l4.64-2.625a28.61 28.61 0 0 0 2.749 4.016zM985 457.245l-3.508-4.02a28.84 28.84 0 0 0 3.384-3.5l4.136 3.367a34.08 34.08 0 0 1-4.012 4.153zm-442.74 3.448a33.94 33.94 0 0 1-4.664-3.406l3.5-4.024a28.71 28.71 0 0 0 3.932 2.872zm432.917 2.54l-1.96-4.96a28.53 28.53 0 0 0 4.353-2.168l2.776 4.553a33.78 33.78 0 0 1-5.168 2.575zM553 464.9a33.69 33.69 0 0 1-5.545-1.644l1.952-4.964a28.12 28.12 0 0 0 4.664 1.383zm410.923.672l-.183-5.33a28.73 28.73 0 0 0 4.833-.579l1.083 5.223c-1.876.4-3.805.62-5.733.688zm-399.775.02h-4.3a31.13 31.13 0 0 1-1.105-.018l.175-5.33.93.015h4.3zm10.66 0h-5.33v-5.333h5.33zm10.657 0h-5.33v-5.333h5.33zm10.66 0h-5.33v-5.333h5.33zm10.66 0h-5.33v-5.333h5.33zm10.657 0h-5.33v-5.333h5.33zm10.66 0h-5.33v-5.333h5.33zm10.657 0h-5.328v-5.333h5.328zm10.66 0h-5.328v-5.333h5.328zm10.66 0h-5.33v-5.333h5.33zm10.657 0h-5.328v-5.333h5.328zm10.66 0h-5.328v-5.333h5.328zm10.66 0h-5.33v-5.333h5.33zm10.66 0h-5.33v-5.333h5.33zm10.66 0h-5.33v-5.333h5.33zm10.657 0h-5.33v-5.333h5.33zm10.66 0h-5.33v-5.333h5.33zm10.657 0H740v-5.333h5.33zm10.66 0h-5.33v-5.333H756zm10.66 0h-5.33v-5.333h5.33zm10.657 0H772v-5.333h5.328zm10.66 0h-5.328v-5.333h5.328zm10.66 0h-5.33v-5.333h5.33zm10.657 0h-5.328v-5.333h5.328zm10.66 0h-5.33v-5.333h5.33zm10.66 0h-5.33v-5.333h5.33zm10.66 0h-5.33v-5.333h5.33zm10.66 0h-5.33v-5.333h5.33zm10.657 0h-5.33v-5.333h5.33zm10.66 0h-5.33v-5.333h5.33zm10.657 0h-5.33v-5.333h5.33zm10.66 0h-5.33v-5.333h5.33zm10.66 0h-5.33v-5.333h5.33zm10.657 0h-5.328v-5.333h5.328zm10.66 0h-5.33v-5.333h5.33zm10.66 0h-5.33v-5.333h5.33zm10.66 0h-5.33v-5.333h5.33zm10.66 0h-5.33v-5.333h5.33v5.333m2.627-40.005c-2.703 0-4.9 2.197-4.9 4.9a4.91 4.91 0 0 0 4.901 4.904 4.91 4.91 0 0 0 4.901-4.904 4.91 4.91 0 0 0-4.9-4.9zm0 15.137a10.25 10.25 0 0 1-10.235-10.237 10.25 10.25 0 0 1 10.235-10.233 10.25 10.25 0 0 1 10.235 10.233 10.25 10.25 0 0 1-10.235 10.237"/><path d="M963.818 421.3h-5.333v-7.156h5.333v7.156m0 25.544h-5.333v-7.156h5.333v7.156m-11.966-18.647l-6.2-3.58L948.32 420l6.2 3.577-2.667 4.62m22.13 12.78l-6.197-3.58 2.667-4.617 6.197 3.577-2.667 4.62m-25.663-.001l-2.667-4.62 6.2-3.577 2.667 4.617-6.2 3.58m22.133-12.78l-2.667-4.62 6.197-3.577 2.667 4.617-6.197 3.58"/></g><path d="M708.424 452.823l15.845-17.813c-8.3-8.68-13.413-20.437-13.408-33.372 0-12.856 5.004-24.973 14.115-34.112 9.147-9.192 21.3-14.248 34.215-14.248a47.93 47.93 0 0 1 34.183 14.176c9.15 9.13 14.184 21.276 14.197 34.163.007 12.552-4.773 24.37-13.48 33.43l15.835 17.796c.124-.124.257-.24.38-.367 13.59-13.628 21.05-31.687 21.048-50.863-.013-19.224-7.527-37.35-21.172-50.972-13.65-13.663-31.747-21.15-51-21.146-19.27.002-37.4 7.545-51.048 21.257-13.584 13.633-21.056 31.704-21.056 50.892-.007 19.996 8.168 38.108 21.347 51.177" class="C"/><path d="M794.09 435.047l15.832 17.796.384-.367c13.59-13.628 21.05-31.687 21.048-50.863-.01-12.49-3.21-24.515-9.172-35.14l-20.7 11.697c3.964 7.1 6.08 15.117 6.09 23.447.007 12.552-4.773 24.37-13.48 33.43" class="D"/><path d="M760.578 334.03v12.33-12.33" class="C"/><path d="M763.245 346.36h-5.333v-12.33h5.333v12.33" class="B"/><path d="M727.078 342.125l6.16 10.68-6.16-10.68" class="C"/><path d="M730.93 354.136l-6.16-10.68 4.62-2.666 6.16 10.68-4.62 2.666" class="B"/><path d="M702.12 365.89l10.672 6.156-10.672-6.156" class="C"/><path d="M711.46 374.357l-10.672-6.157 2.665-4.62 10.672 6.156-2.665 4.62" class="B"/><path d="M692.377 398.95" class="C"/><path d="M704.7 401.616h-12.323v-5.333H704.7v5.333" class="B"/><path d="M700.47 432.44l10.68-6.16-10.68 6.16" class="C"/><path d="M701.804 434.752l-2.665-4.62 10.68-6.16 2.665 4.62-10.68 6.163" class="B"/><path d="M815.755 435.287l-10.68-6.16 10.68 6.16" class="C"/><path d="M814.422 437.596l-10.68-6.16 2.665-4.62 10.68 6.162-2.664 4.62" class="B"/><path d="M825.5 402.23h-12.324H825.5" class="C"/><path d="M825.5 404.896h-12.324v-5.333H825.5v5.333" class="B"/><path d="M817.396 368.728l-10.672 6.167 10.672-6.167" class="C"/><path d="M808.057 377.203l-2.668-4.616 10.672-6.167 2.668 4.616-10.672 6.167" class="B"/><path d="M792.686 381.395l-24.39 14.084 24.39-14.084" class="C"/><path d="M769.63 397.787l-2.667-4.617 24.39-14.084 2.667 4.62-24.39 14.083" class="B"/><path d="M793.636 343.763l-6.163 10.68 6.163-10.68" class="C"/><path d="M789.782 355.776l-4.62-2.665 6.163-10.68 4.62 2.666-6.163 10.68" class="B"/><path d="M766.246 408.623c-1.88 1.888-4.377 2.925-7.033 2.932a9.94 9.94 0 0 1-9.927-9.929c0-2.642 1.027-5.132 2.9-7.003 1.875-1.895 4.372-2.93 7.025-2.93 2.648 0 5.14 1.03 7.02 2.912 1.876 1.876 2.908 4.37 2.91 7.018 0 2.64-1.027 5.125-2.9 7" class="C"/><path d="M759.213 394.36a7.16 7.16 0 0 0-5.131 2.14 7.19 7.19 0 0 0-2.129 5.127 7.27 7.27 0 0 0 7.256 7.263 7.25 7.25 0 0 0 5.148-2.148c1.368-1.372 2.12-3.19 2.12-5.12-.001-1.936-.76-3.76-2.13-5.132a7.22 7.22 0 0 0-5.135-2.13zm.004 19.862h-.007a12.61 12.61 0 0 1-12.591-12.596 12.48 12.48 0 0 1 3.683-8.89c2.364-2.39 5.533-3.7 8.91-3.7a12.52 12.52 0 0 1 12.599 12.593c0 3.355-1.305 6.51-3.677 8.887a12.54 12.54 0 0 1-8.915 3.716h-.003" class="B"/><defs ><path id="B" d="M889.157 87.208h23.216V63.995h-23.216zm28.55 5.333h-33.883v-33.88h33.883v33.88"/><path id="C" d="M1084.642 206.24l-28.55-28.55 3.77-3.77 28.55 28.55-3.77 3.77"/><path id="D" d="M941.2 91.768l-28.55-28.56 3.77-3.773 28.55 28.56-3.77 3.773"/><path id="E" d="M179.748 174.428h-3.773v-5.333h3.773v5.333"/><path id="F" d="M117.897 160.096h-9.145v-5.333h9.145v5.333"/></defs></svg>