<svg xmlns="http://www.w3.org/2000/svg" xmlns:xlink="http://www.w3.org/1999/xlink" width="1150" height="595"><style><![CDATA[.B{fill:#282d33}.C{fill:#ffd23d}.D{fill:#4cbdda}.E{fill:#84dbff}]]></style><path d="M136.753 144.108c14-14.005 21.715-32.628 21.715-52.437 0-18.072-6.45-35.203-18.256-48.708L125.08 58.095c17.063 20.712 15.884 51.628-3.413 70.93-19.307 19.305-50.22 20.478-70.932 3.412l-15.133 15.136c13.512 11.803 30.635 18.256 48.716 18.253 19.803 0 38.425-7.7 52.436-21.72" class="C"/><path d="M133.795 36.452c-12.317-11.06-27.76-17.6-44.277-18.737l-.001 21.404a52.416-52.416 0 0 0 29.169 12.44l15.11-15.107" class="D"/><path d="M77.7 20.514c-16.58 1.51-32.092 8.768-43.944 20.616-26.176 26.18-27.95 67.865-4.53 96.116l11.376-11.38c-17.104-21.84-15.33-53.624 4.47-73.424a55.311-55.311 0 0 0 32.629-15.856zM28.986 145.036l-1.88-2.096c-27.23-30.354-25.96-76.733 2.89-105.58C43.447 23.91 61.29 15.966 80.238 14.987l2.804-.144.004 26.646-2.475.18c-12.12.876-23.088 5.905-31.717 14.543-18.43 18.428-19.58 48.336-2.627 68.093l1.61 1.875-18.85 18.856" class="B"/><path d="M231.07 401.713a13.51 13.51 0 0 0-13.501-13.512 13.505-13.505 0 0 1-13.509 13.512c0 4.92 2.644 9.21 6.583 11.568l-5.163 33.265h24.156l-5.147-33.265c3.936-2.36 6.58-6.648 6.58-11.568" class="C"/><g class="B"><path d="M195.124 409.77H105.79v-5.333h89.333v5.333"/><path d="M189.124 422.436h-5.333v-15.333h5.333v15.333m-21.334 0h-5.333v-15.333h5.333v15.333"/><path d="M178.457 416.436h-5.333v-9.333h5.333v9.333m-76.134-32a10.293-10.293 0 0 1-7.324 3.032 10.292-10.292 0 0 1-3.032 7.323 10.37 10.37 0 0 0 10.357 10.354h.007a10.37 10.37 0 0 0 10.349-10.354 10.37 10.37 0 0 0-10.357-10.354zm.01 26.04h-.01a15.71 15.71 0 0 1-15.689-15.687 15.58 15.58 0 0 1 4.595-11.093 15.589-15.589 0 0 0 11.095-4.595c8.65 0 15.688 7.04 15.7 15.688a15.71 15.71 0 0 1-15.681 15.687"/><path d="M102.323 411.055a10.291-10.291 0 0 1-7.324 3.034 10.289-10.289 0 0 1-3.032 7.324c0 5.71 4.645 10.36 10.356 10.36s10.356-4.65 10.356-10.36a10.37 10.37 0 0 0-10.356-10.357zm0 26.05c-8.65 0-15.69-7.042-15.69-15.693a15.587-15.586 0 0 0 4.595-11.096 15.587-15.586 0 0 0 11.095-4.595c8.65 0 15.69 7.04 15.69 15.7s-7.04 15.693-15.69 15.693"/><path d="M78.594 397.746a10.279-10.278 0 0 1-7.321 3.033 10.287-10.287 0 0 1-3.033 7.323 10.37 10.37 0 0 0 10.355 10.354 10.37 10.37 0 0 0 10.355-10.354 10.285-10.285 0 0 1-3.032-7.323 10.281-10.281 0 0 1-7.323-3.033zm0 26.044a15.71 15.71 0 0 1-15.688-15.688 15.59 15.59 0 0 1 4.595-11.095 15.58-15.58 0 0 0 11.093-4.595 15.58 15.58 0 0 1 11.093 4.595 15.587-15.586 0 0 0 4.595 11.096c0 8.65-7.037 15.687-15.688 15.687m515.1-389.644l-55.736-.004V28.81l55.737.004-.001 5.333"/><path d="M568.506 59.346h-5.333V3.615h5.333v55.73m81.194 11.8l-29.735-.002V65.8l29.735.002v5.333"/><path d="M637.5 83.344h-5.333V53.612h5.333v29.732"/><use xlink:href="#B"/><use xlink:href="#B" y="13.217"/><path d="M187.043 370.26l-6.868-6.348 3.62-3.917 2.655 2.456 8.587-10.763 4.17 3.325-12.164 15.247M141.66 213.283h-5.333v-11.06l15.877-17.276 3.927 3.6-14.47 15.746v8.98"/><path d="M175.76 187.624h-49.317v-5.333h47.717v-74.818h-61.648v19.415h-5.333v-21.013a3.737-3.737 0 0 0 3.733-3.735h64.848a3.74 3.74 0 0 1 3.733 3.735v78.015a3.739-3.739 0 0 0-3.733 3.736"/></g><path d="M119.02 125.864v-11.663h48.632v11.663H119.02" class="D"/><g class="B"><use xlink:href="#C"/><use xlink:href="#C" x="14.316"/><use xlink:href="#D"/><use xlink:href="#C" x="42.945"/><use xlink:href="#C" x="14.316" y="9.124"/><use xlink:href="#D" y="9.124"/><use xlink:href="#C" x="42.945" y="9.124"/><use xlink:href="#C" y="18.254"/><use xlink:href="#C" x="14.316" y="18.254"/><use xlink:href="#D" y="18.254"/><use xlink:href="#C" x="42.945" y="18.254"/><use xlink:href="#C" y="27.381"/><use xlink:href="#C" x="14.316" y="27.381"/><use xlink:href="#D" y="27.381"/><use xlink:href="#C" x="42.945" y="27.381"/><use xlink:href="#C" y="36.504"/><use xlink:href="#C" x="14.316" y="36.504"/><use xlink:href="#D" y="36.504"/><use xlink:href="#C" x="42.945" y="36.504"/><path d="M95.656 213.283h-5.333v-55.21l10.885-24.637 26.595.403.116 3.15-.06 3.697c-.125 7.61-6.404 13.733-14.02 13.583l-.5-.016-2.23 6.7c7.005 6.062 11.287 16.304 11.284 27.26.003 9.468-3.007 19.064-7.853 25.044l-4.144-3.357c4.05-4.998 6.665-13.51 6.664-21.686.001-10.075-4.08-19.344-10.65-24.194l-1.56-1.15 4.684-14.076 4.432.146c4.616.064 8.48-3.668 8.557-8.34l.025-1.505-17.893-.27-9.003 20.377v54.084"/><path d="M90.323 348.142H85V210.224h62.12v18.036h-5.333v-12.703H90.323v132.585"/></g><path d="M1047.337 123.18l-31.3-.004v-16.28h31.307c3.152-7.328 10.42-12.448 18.91-12.448 5.23-.013 9.995 1.965 13.635 5.177l-12.253-.007-7.245 12.547 7.252 12.526 16.8.007c-3.467 6.504-10.31 10.93-18.188 10.93-8.472.01-15.755-5.123-18.916-12.448" class="C"/><g class="B"><path d="M969.83 185.02h-5.333v-18.976a23.643-23.643 0 0 0-8.593-5.202l-.188-.196-23.15-26.933V113.22l-.167-1.92.167-.07v-10.787l-.167-.02.167-3.166v-1.604l.107-.008.013-.206H939.188a14.56 14.56 0 0 1 14.541 14.539v19.89h-5.333v-19.89a9.22 9.22 0 0 0-9.208-9.206H937.9V112.7l.385 1.897-.387.163v16.98l21.77 25.325a18.299-18.298 0 0 1 8.129 4.396l2.033.498v23.064"/><path d="M1008.7 178.354h-5.333V159.16l1.07-.8c4.663-3.487 7.337-8.805 7.337-14.59v-36.276l-.388-7.884c-.003-2.947-2.293-5.235-5.11-5.235-5.093 0-5.104 2.204-5.104 3.155v.006h-5.333V95.6a5.113-5.113 0 0 1-5.108-5.109 5.112-5.112 0 0 1-5.107 5.109h-5.333v-3.89a5.109-5.109 0 0 1-5.101-5.107 5.111-5.11 0 0 1-5.107 5.107v4.376h-5.333c0-2.182-2.428-4.815-5.445-4.815a5.38-5.38 0 0 1-5.376 5.372v33.223h-5.333V96.644c0-5.904 4.804-10.707 10.71-10.707 2.225 0 4.372.753 6.156 1.99 1.52-3.89 5.307-6.656 9.73-6.656a10.449-10.449 0 0 0 9.393 5.892 10.387-10.386 0 0 0 6.147-2.006 10.449-10.449 0 0 0 9.097 5.318c1.683-.933 3.86-1.432 6.45-1.432 5.757 0 10.44 4.68 10.44 10.44l.387 7.884.004 36.405a23.33 23.33 0 0 1-8.408 18.013v16.57"/></g><path d="M917.376 106.896l31.3.004v16.278H917.37c-3.152 7.33-10.42 12.45-18.91 12.45-5.23.014-9.995-1.965-13.636-5.177l12.253.007 7.245-12.548-7.253-12.525-16.8-.005c3.467-6.507 10.312-10.93 18.19-10.93 8.47-.008 15.755 5.123 18.915 12.448" class="C"/><path d="M680.248 194.3h-5.333v-2.667h5.333v2.667m0 10.555h-5.333v-5.277h5.333zm0 10.556h-5.333v-5.277h5.333zm0 10.556h-5.333V220.7h5.333v5.278m0 7.942h-5.333v-2.667h5.333v2.667m-205.97 142.86h-2.667v-5.333h2.667v5.333m-72.048 0h-5.336v-5.333h5.336zm10.675 0h-5.337v-5.333h5.337zm10.673 0h-5.337v-5.333h5.337zm10.673 0h-5.336v-5.333h5.336zm10.675 0H439.6v-5.333h5.337zm10.673 0h-5.337v-5.333h5.337zm10.673 0h-5.336v-5.333h5.336v5.333m-74.714 0h-2.667v-5.333h2.667v5.333M667.6 454.12h-2.667v-5.333h2.667v5.333m-72.046 0h-5.336v-5.333h5.336zm10.675 0h-5.337v-5.333h5.337zm10.673 0h-5.337v-5.333h5.337zm10.673 0h-5.336v-5.333h5.336zm10.675 0h-5.337v-5.333h5.337zm10.673 0h-5.337v-5.333h5.337zm10.673 0h-5.336v-5.333h5.336v5.333m-74.706 0h-2.667v-5.333h2.667v5.333" class="B"/><path d="M650.684 427.754l.005-26.716a3.484-3.484 0 0 0 3.455-3.128 3.48-3.48 0 0 0 2.715 1.329 11.728-11.728 0 0 1 9.301 4.585c6.497.002 11.765-5.264 11.77-11.764a11.77 11.77 0 0 0-11.763-11.77 11.767-11.767 0 0 1-9.313 4.589 3.457-3.457 0 0 0-2.713 1.324c-1.8 0-3.263-1.375-3.45-3.127l.004-27.08-26.988-.004a3.471-3.471 0 0 1-3.076 3.443 3.485-3.485 0 0 1 1.323 2.714 11.725-11.725 0 0 0 4.587 9.307c0 6.496-5.27 11.763-11.77 11.76a11.76-11.76 0 0 0-11.759-11.768 11.733-11.733 0 0 0 4.58-9.301c.804-.64 1.33-1.6 1.332-2.72-.003-1.783-1.352-3.23-3.08-3.44l-26.903-.007-.015 71.752 71.755.02M616.534 151.4c5.253 1.107 10.4-2.26 11.505-7.515l11.397-34.556-14.112 8.22-12.34 33.077c.125.035.25.08.38.108l3.17.665m20.082-12.155a9.712-9.712 0 0 1 10.451-8.915l5.804-27.647-11.933 7.3L633 138.93a2.67 2.67 0 0 0 .396.059l3.23.255" class="D"/><path d="M574.21 183.8l20.953 2.534c2.93.583 4.947 3.353 4.593 6.31a5.727-5.727 0 0 0-2.684 4.183c-2.11 1.26-3.46 3.328-3.747 5.7a7.7-7.7 0 0 1 6.711 8.553 7.7 7.7 0 0 0 8.549-6.709 7.635-7.635 0 0 1-2.248-6.396c-1.267-1.296-1.855-3.005-1.65-4.727a5.733-5.733 0 0 0 3.179-4.462v-.92l23.736 2.857 6.923-57.4-57.393-6.92-2.563 21.13c-.656 2.848-3.3 4.78-6.263 4.416a5.707-5.707 0 0 0-4.181-2.692c-1.255-2.102-3.323-3.45-5.696-3.736a7.68-7.68 0 0 1-8.551 6.709 7.696-7.696 0 0 1 6.711 8.552 7.712-7.712 0 0 1 6.396-2.252c1.283-1.262 2.963-1.85 4.72-1.648a5.725-5.725 0 0 0 5.04 5.778l-.02.283zm26.756 32.667c-.52 0-1.048-.033-1.567-.096-7.128-.86-12.227-7.36-11.37-14.485.485-4.02 2.77-7.525 6.268-9.615.043-.026.145-.12.164-.27.025-.208-.12-.364-.28-.42l-25.905-3.126 3.132-25.94a.387-.387 0 0 1-.337-.333c-.17-.032-.268.077-.316.126-2.775 2.813-6.84 4.25-10.804 3.772a13.04 13.04 0 0 1-11.368-14.485 13.02 13.02 0 0 1 12.909-11.46 13.03 13.03 0 0 1 1.577.095 12.927-12.926 0 0 0 9.613 6.261.38-.38 0 0 1 .264.167.404-.404 0 0 1 .401-.246l3.128-25.937 67.982 8.196-8.2 67.98-25.867-3.117c-.196.004-.383.123-.41.344-.017.142.063.26.133.33a12.915-12.915 0 0 0 3.765 10.798 13.021-13.021 0 0 0-12.916 11.46" class="B"/><path d="M611.374 133.52l11.317-14.5.472-.26.008.008 30.868-18.582 53.296 2.188a10.453-10.453 0 0 0 3.004.122l1.02.176-.143.027c1.028.287 29.813 3 29.813 3l5.18 32.934-44.932-5.363-36.233 27.705-37.525-3.792c.003-.133-.27.1-.257-.032l.248-3.276a9.853-9.853 0 0 0 10.229-9.124l7.82.807a12.5 12.5 0 0 0 13.7-11.138 12.483-12.482 0 0 1-2.224-8.455l-2.288-1.5-5.892-2.867-21.007 11.795-2.528 2.548-4.183 13.588a10.43 10.43 0 0 1-12.805 7.297l-3.347-.918c-.145-.038-.28-.095-.407-.142l6.797-22.24M364.096 87.56l-.604-.343-23.3 8.548-1.488 2.62-.005.005-5.955 6.277 24.373-6.672.104.1-34.708 9.5-1.488 2.62v.007l-6.837 11.505 33.933-9.3-42.37 11.595-17.317 30.476.365.234 2.98 1.695a10.309-10.309 0 0 1 14.055-3.864l9.424-16.6 29.583-8.148.808.46 29.82 16.943-.544-.1.316 21.217c-.62 1.1-2.716 5.092-4.455 8.867l-4.008 7.053a9.76-9.76 0 0 1 3.664 13.313l2.825 1.6c.127.07.245.124.372.183l27.245-47.96 11.405-20.684a12.013-12.013 0 0 1-4.511-16.375L364.096 87.56" class="C"/><g class="D"><path d="M357.345 92.24c-.825 1.844-.95 3.854-.5 5.83l-24.1 6.598 7.448-8.903 21.99-8.188c-2.16.964-3.892 2.542-4.837 4.664"/><path d="M311.728 122.4l2.464-.677 6.835-11.508 1.488-2.62 34.364-9.4.135.52c-2.895.833-5.244 2.628-6.4 5.242-1.153 2.583-.933 5.496.335 8.183l-39.2 10.3-.01-.037m133.477 35.28h-45.64V96.02h45.64v61.665m424.116-9.988V89.03h-164.9v58.667h164.9"/></g><g class="B"><path d="M601.552 101.03h-128v-5.333h128v5.333m-184.367 46h-8.9v-5.333h8.9v5.333m282.37-4.666h-5.333v-52h5.333v52M852.9 207.63a6.4-6.4 0 0 1-6.392 6.395 6.399-6.398 0 0 1 6.392 6.389 6.4 6.4 0 0 0 6.384-6.4 6.396-6.396 0 0 1-6.384-6.395zm0 18.117c-6.465 0-11.725-5.26-11.725-11.723s5.26-11.728 11.725-11.728a11.74 11.74 0 0 1 11.717 11.728c0 6.462-5.256 11.723-11.717 11.723"/><path d="M855.556 203.015h-5.333v-8.562h5.333v8.563m12.948 23.104l-7.416-4.284 2.667-4.617 7.416 4.284-2.667 4.617m-26.482-15.293l-7.42-4.28 2.667-4.62 7.417 4.28-2.665 4.62m21.733 0l-2.667-4.62 7.416-4.28 2.667 4.62-7.416 4.28M837.27 226.12l-2.667-4.62 7.417-4.284 2.668 4.62-7.42 4.284m-97.02 204.26l4.9 11.54 8.835-2.907-2.845-11.907 1.772-.98a35.711-35.71 0 0 1 9.96-8.154l1.247-1.468 11.617 4.7 4.192-8.3-10.436-6.408.56-1.95a35.584-35.584 0 0 1 1.268-12.803l-.157-1.92 11.544-4.9-2.905-8.83-11.912 2.843-.98-1.773a35.495-35.495 0 0 1-8.151-9.951l-1.473-1.246 4.704-11.624-8.296-4.187-6.416 10.428-1.947-.56a35.733-35.733 0 0 1-12.8-1.268l-1.92.16-4.893-11.545-8.835 2.905 2.845 11.908-1.77.98a35.761-35.761 0 0 1-9.956 8.156l-1.248 1.47-11.616-4.707-4.192 8.3 10.428 6.412-.56 1.946a35.681-35.681 0 0 1-1.269 12.808l.157 1.92-11.54 4.888 2.904 8.84 11.907-2.845.98 1.77a35.797-35.797 0 0 1 8.156 9.958l1.468 1.245-4.696 11.617 8.3 4.187 6.4-10.42 1.947.556a36.04-36.04 0 0 1 12.813 1.265zm1.893 18.14l-5.32-12.56c-3.66.12-7.27-.227-10.797-1.054l-6.88 11.2-17.06-8.613 5.1-12.635a41.111-41.11 0 0 0-6.885-8.387l-12.8 3.058-5.967-18.164 12.55-5.317a40.85 40.85 0 0 1 1.059-10.8l-11.2-6.887 8.617-17.062 12.636 5.12a40.929-40.929 0 0 0 8.384-6.885l-3.056-12.792 18.16-5.97 5.32 12.557a40.987-40.986 0 0 0 10.797 1.055l6.9-11.197 17.055 8.608-5.115 12.64a40.809-40.809 0 0 0 6.885 8.387l12.8-3.052 5.972 18.148-12.56 5.33a40.839-40.838 0 0 0-1.053 10.799l11.205 6.88-8.617 17.06-12.64-5.1a40.901-40.901 0 0 0-8.388 6.885l3.055 12.788-18.157 5.973m-6.717-66.983a13.093-13.093 0 0 1-4.099.662 12.993-12.993 0 0 1-7.591 6.531 13.004-13.004 0 0 1-.748 9.992 13.061-13.061 0 0 1 16.517 8.345 12.997-12.997 0 0 1 7.599-6.535 12.992-12.992 0 0 1 .751-9.989 13.061-13.061 0 0 1-12.429-9.005zm-.01 31.52a18.387-18.387 0 0 0-17.495-12.671 18.307-18.307 0 0 0 1.053-14.061 18.292-18.292 0 0 0 10.685-9.195 18.44 18.44 0 0 1 5.765-.928c7.973 0 15.005 5.093 17.496 12.672a18.303-18.303 0 0 0-1.056 14.061 18.296-18.296 0 0 0-10.695 9.195 18.41 18.41 0 0 1-5.755.927"/></g><path d="M1014.45 407.436h-74.93v-48.374h74.93v48.374" class="D"/><path d="M976.985 391.755l-39.12-28.253 3.124-4.322 35.996 25.997 35.996-25.997 3.123 4.322-39.12 28.253m-466.5 12.905h-5.28c-2.12 0-3.844-1.737-3.844-3.87v-8.525c0-2.132 1.724-3.867 3.844-3.867h5.28v5.333h-3.792v5.596h3.792v5.333m79.336-.015h-2.864v-5.333h1.712l6.157-2.8-6.157-2.8h-1.712v-5.333h2.864l17.928 8.124-17.928 8.123" class="B"/><path d="M516.294 402.098h70.3v-11.133h-70.3v11.133" class="C"/><g class="B"><path d="M232.596 107.273l-9.296-3.617c-3.727-2.37-4.51-4.984-4.51-6.76v-3.938a8.463-8.462 0 0 0 8.452-8.452h4.644a8.461-8.461 0 0 0 8.449 8.452v1.84h-5.333v-1.84a3.12-3.12 0 0 1-3.116-3.119h-4.644a3.123-3.123 0 0 1-3.119 3.119v3.938c0 .57.68 1.354 1.825 2.122l8.553 3.274-1.907 4.98"/><path d="M231.887 122.085h-4.644a8.461-8.461 0 0 0-8.452-8.451v-1.843h5.333v1.843a3.123-3.123 0 0 1 3.119 3.117h4.644a3.12-3.12 0 0 1 3.116-3.117v-3.94c0-.476-.597-1.332-1.924-2.22l-8.152-3.14 1.916-4.976 8.883 3.475c3.016 1.912 4.6 4.284 4.6 6.86v3.94a8.46-8.46 0 0 0-8.449 8.451m.693-34.192h-5.333v-8.64h5.333v8.64"/><path d="M232.58 126.657h-5.333v-8.637h5.333v8.637m78-74.7h-5.333v-9.273h5.333v9.273m-14.023 5.807L290 51.2l3.77-3.77 6.557 6.555-3.77 3.77M294.517 68h-9.273v-5.333h9.273V68m-.747 15.266l-3.77-3.77 6.556-6.556 3.77 3.77-6.556 6.556m16.808 4.757h-5.333v-9.276h5.333v9.276m11.48-4.753l-6.56-6.56 3.772-3.77 6.56 6.56-3.772 3.77m8.526-15.25H321.3v-5.333l9.275.001-.001 5.333M319.27 57.764l-3.77-3.77 6.56-6.558 3.77 3.77-6.56 6.557m-109.6-7.426H202v-5.333h7.7v5.333m-10.1-8.575l-4.62-2.667 3.844-6.658 4.62 2.667-3.843 6.657m-13.244.455l-3.843-6.66 4.62-2.667 3.844 6.66-4.62 2.667m-1.6 9.027h-7.7V45.9h7.7v5.333m3.168 12.567l-4.62-2.667 3.845-6.66 4.62 2.667-3.845 6.66m11.692-.443l-3.845-6.66 4.62-2.667 3.844 6.66-4.62 2.667"/></g><use xlink:href="#E" fill="#ffd13d"/><path d="M320.845 414.313V373.28c22.37 1.412 40.155 18.715 42.176 41.033h-42.176" class="D"/><use xlink:href="#E" class="C"/><path d="M317.704 476.026a57.373-57.373 0 0 0-38.132-14.48l3.54-3.987a52.043-52.042 0 0 1 34.591 13.133c28.745 0 52.132-23.386 52.132-52.126 0-27.873-21.792-50.745-49.612-52.066l.253-5.328c30.668 1.46 54.692 26.67 54.692 57.395 0 31.687-25.78 57.46-57.465 57.46m-4.047-114.92c-29.927 2.082-53.56 27-53.56 57.46 0 14.66 5.475 28.02 14.483 38.193l39.077-39.895zm-4.944 5.576v48.16l-33.76 34.463a52.555-52.554 0 0 0-9.912-30.74c0-25.75 18.793-47.588 43.672-51.884" class="B"/><path d="M951.073 443.252l-3.752-23.187-20.883 1.62a63.681-63.681 0 0 1-11.533-19.737l11.13-18.492-19.047-13.737-13.617 15.9a63.6-63.6 0 0 1-22.109-5.786l-5.217-20.952-23.177 3.75 1.617 20.884a63.52-63.52 0 0 1-19.735 11.536l-18.492-11.13-13.74 19.044 15.907 13.614a63.576-63.576 0 0 1-5.78 22.116l-20.956 5.2 3.75 23.187 20.885-1.614a63.456-63.456 0 0 1 11.535 19.72l-11.127 18.506 19.04 13.733 13.62-15.906a63.608-63.608 0 0 1 22.109 5.787l5.213 20.946 23.18-3.747-1.62-20.88a63.755-63.754 0 0 1 19.736-11.533l18.497 11.12 13.736-19.04-15.91-13.613a63.707-63.707 0 0 1 5.788-22.12l20.952-5.2" class="D"/><path d="M869.33 406.875h-5.333v-9.3h5.333v9.3m17.392 6.087l-4.62-2.667 4.652-8.06 4.62 2.667-4.653 8.06m12.013 13.968l-2.667-4.62 8.065-4.655 2.665 4.62-8.064 4.653m12.73 18.112h-9.305v-5.333h9.305v5.333m-7.33 22.04l-8.064-4.653 2.667-4.626 8.064 4.667-2.667 4.613m-17.375 15.425l-4.653-8.066 4.62-2.667 4.652 8.067-4.617 2.667m-17.43 4.665h-5.333v-9.307h5.333v9.307m-22.76-4.666l-4.616-2.68 4.657-8.053 4.617 2.667-4.66 8.066m-17.37-15.426l-2.667-4.613 8.06-4.653 2.667 4.613-8.06 4.653m1.973-22.04h-9.307v-5.333h9.307v5.333m3.418-18.1l-8.057-4.656 2.668-4.617 8.06 4.656-2.67 4.617m12.015-13.968l-4.648-8.06 4.62-2.664 4.648 8.06-4.62 2.664" class="B"/><path d="M867.265 443.68L848.7 432.066l2.828-4.52 14.912 9.332 19.673-20.257 3.825 3.716-22.675 23.34m-398.217 25.776h16.765V452.68h-16.765zm22.1 5.333h-27.432v-27.44h27.432v27.44" class="C"/><path d="M466.034 416.125H452.22v-13.812h13.813v13.812m137.95 107.955h-24.17v-24.16h24.17v24.16" class="D"/><path d="M443.67 463.64h-13.812v-13.8h13.812v13.8m151.888 124.546h-13.812v-13.8h13.812v13.8" class="C"/><g class="B"><path d="M564.304 557.76h-5.333v-22.227h5.333v22.227"/><path d="M572.744 549.306H550.53v-5.333h22.213v5.333M407.815 428.914h30.476V398.44h-30.476zm35.8 5.338h-41.143v-41.146h41.143v41.146"/><path d="M407.034 433.466l-3.772-3.77 35.81-35.808 3.77 3.77-35.81 35.808"/><path d="M439.073 433.466l-35.8-35.808 3.772-3.77 35.8 35.808-3.77 3.77M514.564 480h-5.333v-5.333h5.333V480m9.258 0h-4.63v-5.333h4.63zm9.26 0h-4.63v-5.333h4.63zm9.257 0h-4.64v-5.333h4.628V480m9.972 0h-5.333v-5.333h5.333V480m.001 9.252h-5.333v-4.626h5.333zm0 9.267h-5.333v-4.626h5.333zm0 9.253h-5.333v-4.626h5.333v4.626m0 9.96h-5.333V512.4h5.333v5.333m-28.477-.001h-4.63V512.4h4.63zm9.26 0h-4.63V512.4h4.63zm9.257 0h-4.63V512.4h4.63v5.333m-27.776-.001h-5.333V512.4h5.333v5.333"/><path d="M514.564 489.266h-5.333v-4.64h5.333zm0 9.253h-5.333v-4.626h5.333zm0 9.253h-5.333v-4.626h5.333v4.626m528.096-129.564c-26.13 0-47.388 21.257-47.388 47.384 0 26.14 21.26 47.395 47.388 47.395s47.4-21.253 47.4-47.395c0-26.126-21.26-47.384-47.4-47.384zm0 100.112c-29.07 0-52.72-23.653-52.72-52.728 0-29.068 23.65-52.717 52.72-52.717s52.724 23.65 52.724 52.717c0 29.075-23.652 52.728-52.724 52.728"/><path d="M1042.66 378.208c-14.25 0-26.29 21.7-26.29 47.384s12.04 47.395 26.29 47.395c14.244 0 26.277-21.707 26.277-47.395s-12.033-47.384-26.277-47.384zm0 100.112c-17.732 0-31.623-23.16-31.623-52.728 0-29.56 13.89-52.717 31.623-52.717 17.725 0 31.61 23.157 31.61 52.717 0 29.568-13.885 52.728-31.61 52.728"/><path d="M1045.327 378.282v94.637c24.896-1.4 44.724-22.093 44.724-47.328s-19.828-45.922-44.724-47.31zm-2.667 100.037h-2.667V372.874h2.667c29.072 0 52.724 23.65 52.724 52.717 0 29.075-23.652 52.728-52.724 52.728"/><path d="M997.743 440.573h89.834a46.976-46.976 0 0 1 2.473-14.981 46.907-46.906 0 0 1-2.473-14.975h-89.834a47.067-47.066 0 0 1-2.471 14.975c0 5.05.83 10.075 2.47 14.98zm93.556 5.333h-97.284l-.65-1.733c-2.273-6.04-3.427-12.293-3.427-18.582s1.153-12.537 3.427-18.58l.65-1.728h97.284l.652 1.724c2.28 6.027 3.433 12.28 3.433 18.584s-1.155 12.555-3.433 18.595l-.652 1.72m-4.736-310.476l-3.77-3.773 14.072-14.062 14.067 14.064-3.77 3.77-10.297-10.292-10.3 10.293m35.998 26.667l-3.77-3.773 14.072-14.063 14.067 14.064-3.77 3.77-10.297-10.292-10.3 10.293"/></g><path d="M372.565 261.468c-3.648-6.683-11.444-6.683-13.436-6.683h-20.9v30.073h21.067c.5 0 4.147-.166 6.635-1.003 3.32-1.168 8.46-4.844 8.46-14.2 0-1.336 0-4.845-1.825-8.187zm35.83 23.893c-1.493 4.008-7.464 16.374-20.403 21.217-6.967 2.675-13.933 3.008-21.23 3.008h-28.533v38.426h-37.155V230.06h66.848c11.445 0 22.06.836 31.184 8.854 11.777 10.192 12.11 24.394 12.11 29.573 0 2.337-.165 9.857-2.82 16.875" class="E"/><path d="M359.296 287.265H338.23v-4.813h21.067c.43 0 3.76-.166 5.88-.878 2.03-.716 6.827-3.333 6.827-11.917 0-1.156 0-4.227-1.53-7.028-1.97-3.607-5.787-5.437-11.344-5.437v-4.812c9.257 0 13.555 4.312 15.53 7.93 2.12 3.885 2.12 7.854 2.12 9.348 0 11.993-7.7 15.64-10.06 16.47-3.135 1.056-7.384 1.14-7.424 1.14zm-18.677 60.75h-4.78V307.18h30.92c6.556 0 13.53-.22 20.38-2.85l1.7 4.498c-7.61 2.92-15.08 3.164-22.08 3.164h-26.144v36.022" class="B"/><path d="M254.065 348.003l.333-85.536-23.556 85.536h-27.73l-23.223-85.536.168 85.536h-35.42V230.06h53.46l19.2 74.176 18.88-74.176h53.46v117.946h-35.585m-163.735.138V230.2h36.06v117.945h-36.06" class="E"/><path d="M128.16 343.854h-3.844V230.2h3.844v113.653" class="B"/><path d="M427.045 348.013V230.06h37.257v88.216h45.61v29.74h-82.866" class="E"/><g class="B"><path d="M494.034 318.274h-29.732V301.27h5.333v11.67H488.7v-11.32h5.333v16.653m.001-104.833H488.7V190h-19.065v23.083h-5.333V184.68h29.732v28.76"/><path d="M502.4 304.68h-46.46V212.9h46.46v30.507h-5.333v-25.173H461.27v81.104h35.795v-20.38h5.333v25.715m-2.665-101.426h-41.128v-5.333h41.128v5.333m13.242 142.9h-71.797v-5.333h71.797v5.333M420.84 381.95H538.2v-10.58a3.612-3.612 0 0 1-3.608-3.606H424.45a3.612-3.612 0 0 1-3.608 3.606zm122.684 5.333H415.507V371.37a8.951-8.951 0 0 0 8.941-8.94h110.134a8.951-8.951 0 0 0 8.941 8.94v15.912"/></g><path d="M515.415 261.234a17.08 17.08 0 0 1-17.077 17.077c-9.433 0-17.08-7.646-17.08-17.077s7.647-17.077 17.08-17.077a17.08 17.08 0 0 1 17.077 17.077" class="C"/><path d="M530.875 348.005V230.06h93.386v25.896h-55.965v17.54h52.292v25.563h-52.46v23.387h61.147v25.56h-98.4" class="E"/><g class="B"><use xlink:href="#B" x="367.63" y="-29.472"/><use xlink:href="#B" x="367.63" y="-16.26"/><path d="M554.673 340.785l-6.868-6.35 3.62-3.916 2.656 2.456 8.585-10.763 4.17 3.326-12.164 15.248"/><use xlink:href="#B" x="367.63" y="2.876"/><use xlink:href="#B" x="367.63" y="16.092"/><path d="M554.673 373.134l-6.868-6.348 3.62-3.917 2.655 2.456 8.587-10.763 4.17 3.326-12.164 15.247"/></g><path d="M809.428 348.013V230.06h91.78v25.897h-55.003V273.5h51.392v25.563H846.04v23.394h60.093v25.56h-96.706m187.66-.036l-39.56-68.5.337 68.5H922.85V230.025h39.896l40.235 68.667-.507-68.667h35.183V347.98h-40.57m122.4-88.88v88.882h-37.1V259.1h-29.937v-29.073h96.798V259.1h-29.772m-364.56 88.92l.333-85.546-23.56 85.546h-27.735l-23.227-85.546.168 85.546h-35.422V230.06h53.466l19.215 74.182 18.88-74.184H790.5v117.96h-35.588" class="E"/><g class="B"><path d="M804.537 292.52h-17.485v-5.333h17.485v5.333m0 9.78h-17.485v-5.333h17.485v5.333m0 9.777h-17.485v-5.333h17.485v5.333m-22.517 0h-17.484v-5.333h17.484v5.333m0 9.778h-17.484v-5.333h17.484v5.333m-6.666 9.778h-10.817V326.3h10.817v5.333m240.596-63.737h-33.4v-5.532h33.4v5.533m0 11.525h-33.4V273.9h33.4v5.534m0 11.516h-33.4v-5.534h33.4v5.534m-779.33 9.192h-5.333v-50.607l1.068-.8c3.647-2.728 5.737-6.884 5.737-11.402v-29.367l-.3-6.36c-.003-2.127-1.63-3.753-3.628-3.753-3.617 0-3.63 1.376-3.63 2.045v.006H225.2v-1.572a3.63 3.63 0 0 0-3.624-3.626 3.63 3.63 0 0 0-3.627 3.626h-5.333v-3.146a3.629-3.629 0 0 1-3.625-3.625 3.629-3.629 0 0 1-3.624 3.625v3.54h-5.333l-.056-36.245a3.847-3.847 0 0 1-3.844-3.846 3.845-3.845 0 0 1-3.841 3.841l-.036 63.602-5.33.1-.13-3.1-.001-13.116a6.953-6.953 0 0 1-6.947-6.943h-.537v9.216l.2 2.2-.2.05V227.4l17.488 20.344a14.224-14.224 0 0 1 6.329 3.412l2.035.498v20.572h-5.333v-16.503a19.573-19.573 0 0 0-6.797-4.2l-.185-.196-18.87-21.95V202.7l-.167-.023.167-2.995v-1.743l.117-.01.016-.233 5.737-.001a12.22-12.22 0 0 0 7.091 2.259l.02-37.48a9.184-9.184 0 0 0 9.175-9.173 9.19 9.19 0 0 1 9.177 9.174l.04 24.525c1.113-.497 2.345-.773 3.64-.773 3.333 0 6.248 1.83 7.8 4.54a8.915-8.915 0 0 0 4.795-1.393 8.96-8.96 0 0 0 7.556 4.152c1.296-.628 2.953-1.005 5.032-1.005a8.968-8.968 0 0 0 8.959 8.959l.3 6.36.003 29.496a19.387-19.387 0 0 0-6.805 14.814v47.996"/><use xlink:href="#B" y="-32.347"/><use xlink:href="#B" y="-19.134"/><path d="M187.043 337.9l-6.868-6.35 3.62-3.916 2.656 2.456 8.585-10.763 4.17 3.325-12.164 15.248m130.882-123.2h29.085c.535-3.828 1.624-6.847 3.248-8.997 12.36-15.923 12.765-30.788 12.765-30.934 0-16.833-13.7-30.53-30.537-30.53s-30.533 13.696-30.533 30.53c0 .144.395 15.016 12.74 30.904 1.64 2.183 2.72 5.207 3.232 9.025zm31.484 5.333H315.5l-2.66-2.488c-.26-3.854-1.1-6.92-2.395-8.632-13.46-17.32-13.836-33.98-13.836-34.143 0-19.776 16.1-35.864 35.867-35.864s35.87 16.088 35.87 35.864c0 .163-.377 16.8-13.864 34.176-1.272 1.683-2.14 4.752-2.424 8.616l-2.66 2.47"/><path d="M321.034 217.758l-6.57-36.5 5.25-.945 6.57 36.5-5.25.945m22.908.002l-5.248-.945 6.572-36.492 5.25.945-6.573 36.492"/><path d="M346.813 187.777l-4.2-1.45-4.2 1.45h-1.74l-4.195-1.448-4.193 1.448h-1.74l-4.2-1.448-4.195 1.448-1.74-5.042 5.065-1.75h1.74l4.188 1.448 4.193-1.448h1.74l4.195 1.448 4.2-1.448h1.74l5.07 1.75-1.74 5.042m7.263 32.66h-43.177v-5.333h43.177v5.333m.01 8.387h-43.177v-5.333h43.177v5.333m0 8.388h-43.177v-5.333h43.177v5.333"/><path d="M348.206 245.6H316.77v-5.333h31.435v5.333m-29.63-11.447h-5.333v-15.937h5.333v15.938m780.945 49.543h-5.333l.003-159h5.333l-.003 159m36 26.667h-5.333l.003-159h5.333l-.003 159M498.338 357.66v-5.333c24.475 0 44.385-19.912 44.385-44.385s-19.9-44.387-44.385-44.387v-5.333c27.415 0 49.72 22.304 49.72 49.72s-22.304 49.72-49.72 49.72m289.2-8.236h-37.676l.34-87.173 4.803.018-.32 82.353h32.853v4.803m-69.37-45.185l-4.653-1.184 18.707-73.508 4.653 1.184-18.707 73.508M432.375 347.98h-5.333l.003-117.922h5.333l-.003 117.922m-142.83 2.814H251.87l.34-87.175 4.8.02-.32 82.354h32.853v4.8m-144.783.065h37.676l-.34-87.173-4.803.02.323 82.353h-32.853v4.802M624.26 235.392h-25.912v-5.333h25.912v5.333m35.154 11.254h-61.537v-5.333h61.537v5.333m0 11.254h-61.537v-5.333h61.537v5.333m0 11.252h-61.537v-5.333h61.537v5.333M637.7 280.408h-39.823v-5.333H637.7v5.333M855.556 233.6h-5.333v-8.56h5.333v8.56m259.694 119.183h-37.675l.34-87.173 4.803.017-.323 82.353h32.855v4.803m-209-3.393h-96.516v-5.333h96.516v5.333m-9.202-47.168h-49.864v-5.333h49.864v5.333m4.238-43.427h-40.128v-5.333h40.127v5.333m-88.867 50.285h-5.333l.003-78.938h5.333l-.003 78.938"/></g><defs ><path id="B" d="M249.752 359.76h-45.64v-5.333h45.64v5.333"/><path id="C" d="M126.94 139.156h-10.15v-5.333h10.15v5.333"/><path id="D" d="M155.568 139.156h-10.152v-5.333h10.152v5.333"/><path id="E" d="M317.888 463.88c-11.12 0-21.632-3.974-29.91-11.253l31.413-31.42h43.763c-.64 11.115-5.267 21.46-13.2 29.395a45.08 45.08 0 0 1-32.067 13.28"/></defs></svg>