<svg xmlns="http://www.w3.org/2000/svg" xmlns:xlink="http://www.w3.org/1999/xlink" width="700" height="250"><style><![CDATA[.K{fill:#111}.L{fill:#fff}.M{fill-rule:evenodd}.N{fill:#7c7e82}.O{fill:#ea572e}.P{fill:#3dc7d2}.Q{fill:#e6e6e6}.R{fill:#f3a52d}]]></style><defs><clipPath id="A"><use xlink:href="#B"/></clipPath><path id="B" d="M800 800V0H0v400h.38v400z"/><path id="C" d="M582.67 294.726V275.15h-21.156v94.99h21.156v-40.666h2v42.666h-25.156v-98.99h25.156v21.576z"/><path id="D" d="M262.44 329.587h-5.178a1.89 1.89 0 0 1-1.892-1.892v-5.18a1.89 1.89 0 0 1 1.892-1.892h5.178a1.89 1.89 0 0 1 1.892 1.892v5.18a1.89 1.89 0 0 1-1.892 1.892z"/><path id="E" d="M262.44 340.68h-5.178a1.89 1.89 0 0 1-1.892-1.892v-5.18c0-1.045.847-1.893 1.892-1.893h5.178c1.045 0 1.892.848 1.892 1.893v5.18a1.89 1.89 0 0 1-1.892 1.892z"/></defs><g clip-path="url(#A)" transform="matrix(.993646 0 0 .999944 -50.236507 -122.11779)"><path d="M564.476 276.383h-7.883c-.754 0-1.464-.294-1.997-.828a2.8 2.8 0 0 1-.826-1.996V269.786a25.16 25.16 0 0 1-5.921-2.421l-2.658 2.657c-1.066 1.066-2.927 1.067-3.994.001l-5.574-5.574a2.83 2.83 0 0 1 0-3.994l2.668-2.668c-1.074-1.856-1.903-3.835-2.475-5.9h-3.76a2.83 2.83 0 0 1-2.825-2.824v-7.883a2.83 2.83 0 0 1 2.825-2.824h3.773a25.15 25.15 0 0 1 2.421-5.922l-2.658-2.658c-1.1-1.1-1.102-2.892-.001-3.993l5.575-5.573c1.066-1.068 2.928-1.068 3.994 0l2.667 2.667c1.856-1.073 3.835-1.903 5.9-2.476v-3.758a2.83 2.83 0 0 1 2.824-2.825h7.883a2.83 2.83 0 0 1 2.824 2.825v3.773c2.072.553 4.058 1.364 5.922 2.42l2.657-2.657c1.067-1.067 2.927-1.067 3.995-.001l5.573 5.574c1.102 1.102 1.102 2.894 0 3.994l-2.668 2.668c1.074 1.857 1.904 3.835 2.476 5.9h3.76a2.83 2.83 0 0 1 2.824 2.824v7.883a2.83 2.83 0 0 1-2.824 2.824h-3.773c-.553 2.073-1.365 4.058-2.422 5.92l2.66 2.658c.533.533.827 1.243.827 1.998s-.294 1.463-.827 1.996l-5.574 5.574c-1.064 1.066-2.928 1.067-3.994-.001l-2.668-2.667a25.2 25.2 0 0 1-5.899 2.475v3.76a2.83 2.83 0 0 1-2.824 2.824zm-16.94-11.535l.67.408c2.104 1.28 4.388 2.214 6.79 2.775l.772.18.001 5.348a.81.81 0 0 0 .241.582c.155.156.362.242.582.242h7.883c.455 0 .824-.37.824-.824v-5.318l.764-.186a23.18 23.18 0 0 0 6.763-2.839l.674-.42 3.78 3.78a.84.84 0 0 0 1.165 0l5.575-5.574a.82.82 0 0 0 .241-.582c0-.22-.086-.428-.24-.584l-3.762-3.76.408-.672a23.15 23.15 0 0 0 2.776-6.789l.18-.772h5.347c.454 0 .824-.37.824-.824v-7.883c0-.454-.37-.824-.824-.824h-5.317l-.187-.764a23.18 23.18 0 0 0-2.839-6.763l-.42-.674 3.78-3.78c.32-.32.32-.844 0-1.166l-5.573-5.573c-.312-.312-.855-.312-1.167 0l-3.76 3.76-.67-.408c-2.104-1.28-4.39-2.215-6.8-2.775l-.772-.18v-5.347c0-.455-.37-.825-.824-.825h-7.883c-.454 0-.824.37-.824.825v5.317l-.764.187c-2.393.582-4.668 1.537-6.763 2.838l-.662.41-.56-.542-3.232-3.23c-.312-.313-.854-.312-1.165 0l-5.574 5.573c-.32.32-.32.845 0 1.165l3.76 3.762-.41.67c-1.28 2.103-2.213 4.386-2.774 6.79l-.18.772h-5.347c-.455 0-.825.37-.825.824v7.883c0 .455.37.824.825.824h5.317l.187.764a23.2 23.2 0 0 0 2.838 6.764l.42.674-3.78 3.78c-.32.32-.32.845.001 1.166l5.573 5.573c.312.31.854.313 1.166 0z" class="K"/><path d="M560.514 265.332c11.173 0 20.23-9.06 20.23-20.232s-9.06-20.23-20.23-20.23-20.232 9.058-20.232 20.23 9.058 20.232 20.232 20.232z" class="M R"/><path d="M560.523 261.42l-.032-2h.032a14.47 14.47 0 0 0 2.708-.255l.377 1.963c-1.008.193-2.046.292-3.085.292zm-4.17-.538a16.29 16.29 0 0 1-2.938-1.088l.872-1.8a14.28 14.28 0 0 0 2.577.953zm11.22-1.06l-.864-1.804a14.5 14.5 0 0 0 2.352-1.42l1.194 1.604a16.27 16.27 0 0 1-2.682 1.621zm-17.65-2.312c-.794-.68-1.525-1.438-2.176-2.254L549.31 254a14.53 14.53 0 0 0 1.91 1.98zm23.334-2.203l-1.56-1.252c.574-.715 1.082-1.488 1.508-2.298l1.77.93a16.48 16.48 0 0 1-1.72 2.62zm-27.67-3.62a16.3 16.3 0 0 1-.983-2.977l1.95-.44c.202.893.492 1.77.863 2.6zm30.842-2.912l-1.95-.45c.205-.9.325-1.808.357-2.727l2 .07c-.037 1.046-.174 2.1-.407 3.106zm-30.22-4.15l-2-.066c.035-1.05.17-2.094.4-3.105l1.95.444a14.52 14.52 0 0 0-.351 2.727zm28.3-2.67c-.2-.893-.488-1.77-.857-2.6l1.832-.804a16.24 16.24 0 0 1 .977 2.978zm-26.673-3.5l-1.77-.928a16.35 16.35 0 0 1 1.713-2.623l1.563 1.25c-.574.717-1.08 1.5-1.505 2.302zm23.927-2.257c-.57-.718-1.212-1.386-1.908-1.983l1.304-1.517a16.48 16.48 0 0 1 2.17 2.257zm-19.8-2.593l-1.196-1.602c.84-.627 1.74-1.174 2.68-1.626l.868 1.802c-.824.397-1.615.877-2.35 1.426zm14.824-1.4a14.38 14.38 0 0 0-2.574-.96l.514-1.933a16.62 16.62 0 0 1 2.937 1.094zm-9-1.178l-.38-1.963c1.02-.197 2.07-.298 3.116-.298l.063 2-.086-.002a14.58 14.58 0 0 0-2.713.262zM129.8 251.068h-7.883a2.81 2.81 0 0 1-1.997-.828c-.534-.534-.827-1.243-.827-1.998v-3.77c-2.072-.554-4.058-1.365-5.92-2.422l-2.658 2.658c-1.066 1.066-2.927 1.066-3.994 0l-5.574-5.574a2.83 2.83 0 0 1 0-3.994l2.668-2.668c-1.074-1.856-1.904-3.834-2.475-5.898H97.4a2.83 2.83 0 0 1-2.825-2.825v-7.883a2.83 2.83 0 0 1 2.825-2.823h3.773c.553-2.073 1.365-4.06 2.42-5.922l-2.658-2.658a2.83 2.83 0 0 1 0-3.994l5.575-5.574c1.066-1.066 2.928-1.066 3.994.001l2.667 2.667a25.25 25.25 0 0 1 5.899-2.475v-3.76a2.83 2.83 0 0 1 2.824-2.824h7.883a2.83 2.83 0 0 1 2.824 2.824v3.774a25.14 25.14 0 0 1 5.92 2.42l2.658-2.658a2.9 2.9 0 0 1 3.995 0l5.574 5.574a2.83 2.83 0 0 1 0 3.994l-2.668 2.668c1.074 1.855 1.904 3.834 2.476 5.898h3.758a2.83 2.83 0 0 1 2.824 2.824v7.883a2.83 2.83 0 0 1-2.824 2.824h-3.773c-.553 2.073-1.365 4.06-2.422 5.922l2.66 2.658a2.8 2.8 0 0 1 .827 1.997 2.81 2.81 0 0 1-.827 1.997l-5.574 5.572c-1.064 1.068-2.928 1.068-3.994 0l-2.668-2.666a25.18 25.18 0 0 1-5.899 2.475v3.76a2.83 2.83 0 0 1-2.824 2.825zm-16.94-11.535l.67.408a23.25 23.25 0 0 0 6.789 2.775l.772.18v5.347a.82.82 0 0 0 .823.825h7.883c.455 0 .824-.37.824-.825v-5.318l.764-.186a23.14 23.14 0 0 0 6.763-2.839l.674-.418 3.78 3.78c.313.313.854.313 1.165.001l5.575-5.575c.156-.155.24-.362.24-.582a.82.82 0 0 0-.241-.583l-3.762-3.76.4-.67c1.28-2.104 2.214-4.387 2.776-6.8l.18-.773h5.347c.455 0 .824-.37.824-.824v-7.883c0-.455-.37-.824-.824-.824h-5.317l-.186-.764a23.18 23.18 0 0 0-2.839-6.763l-.418-.674 3.78-3.78a.83.83 0 0 0 0-1.166l-5.573-5.574a.85.85 0 0 0-1.167 0l-3.76 3.76-.67-.408a23.19 23.19 0 0 0-6.79-2.775l-.772-.18v-5.348c0-.454-.37-.824-.824-.824h-7.883c-.455 0-.824.37-.824.824v5.318l-.764.186c-2.393.583-4.668 1.537-6.763 2.84l-.663.4-.56-.54-3.232-3.23c-.312-.312-.854-.312-1.165 0l-5.575 5.573a.83.83 0 0 0 0 1.166l3.76 3.76-.4.67a23.18 23.18 0 0 0-2.775 6.79l-.18.773H97.4c-.455 0-.825.37-.825.823v7.883c0 .454.37.825.825.825h5.318l.186.763c.582 2.393 1.537 4.67 2.838 6.765l.418.673-3.78 3.78a.83.83 0 0 0 0 1.166l5.573 5.574c.312.3.854.312 1.166 0z" class="K"/><path d="M125.85 240.018c11.173 0 20.23-9.06 20.23-20.233s-9.06-20.23-20.23-20.23-20.232 9.058-20.232 20.23 9.057 20.233 20.232 20.233z" class="M N"/><path d="M125.858 236.105l-.032-2h.032a14.47 14.47 0 0 0 2.708-.255l.377 1.964c-1.01.194-2.047.29-3.085.29zm-4.17-.537c-1.01-.268-2-.633-2.938-1.088l.872-1.8a14.24 14.24 0 0 0 2.577.955zm11.22-1.058l-.864-1.805c.825-.396 1.616-.873 2.352-1.42l1.194 1.604c-.84.625-1.74 1.17-2.682 1.622zm-17.65-2.314a16.49 16.49 0 0 1-2.176-2.253l1.564-1.246c.57.717 1.214 1.383 1.91 1.98zm23.334-2.202l-1.56-1.252a14.29 14.29 0 0 0 1.507-2.299l1.77.932a16.41 16.41 0 0 1-1.718 2.619zm-27.672-3.62c-.422-.956-.753-1.958-.983-2.976l1.95-.44c.202.893.492 1.77.863 2.61zm30.843-2.912l-1.95-.448c.205-.89.325-1.81.357-2.727l2 .07c-.037 1.046-.174 2.09-.407 3.106zm-30.22-4.15l-2-.066c.035-1.05.17-2.094.4-3.106l1.95.444a14.53 14.53 0 0 0-.351 2.728zm28.3-2.672c-.2-.893-.49-1.77-.857-2.61l1.832-.803a16.28 16.28 0 0 1 .977 2.977zm-26.673-3.5l-1.77-.927c.483-.924 1.06-1.807 1.713-2.623l1.563 1.248a14.37 14.37 0 0 0-1.505 2.302zm23.926-2.256c-.57-.717-1.21-1.385-1.908-1.982l1.304-1.518c.792.682 1.522 1.44 2.17 2.257zm-19.8-2.592L116.1 206.7a16.46 16.46 0 0 1 2.678-1.626l.868 1.802c-.823.397-1.614.877-2.35 1.427zm14.824-1.402c-.823-.4-1.69-.724-2.575-.958l.514-1.934a16.33 16.33 0 0 1 2.937 1.094zm-9-1.176l-.38-1.964c1.02-.197 2.07-.298 3.117-.298l.063 2h-.086c-.898 0-1.818.088-2.714.262z" class="K"/><path d="M514.202 274.15h23.155v97h-23.155z" class="O"/><circle r="5.312" cy="355.837" cx="525.78" class="N"/><path d="M525.78 362.648c-3.756 0-6.812-3.056-6.812-6.813a6.82 6.82 0 0 1 6.812-6.811 6.82 6.82 0 0 1 6.812 6.811 6.82 6.82 0 0 1-6.812 6.813zm0-10.623c-2.102 0-3.812 1.71-3.812 3.81a3.82 3.82 0 0 0 3.812 3.813 3.82 3.82 0 0 0 3.812-3.813c0-2.102-1.7-3.81-3.812-3.81z" class="L"/><path d="M537.357 274.15h23.156v97h-23.156z" class="N"/><path d="M560.514 274.15h23.155v97h-23.155z" class="P"/><g class="K"><use xlink:href="#C"/><path d="M582.67 304.227h2v9.75h-2z"/><use xlink:href="#C" x="-23.157"/><path d="M559.513 304.227h2v9.75h-2zm-23.156 65.913v-95H515.2v5.577h-2v-7.577h25.156v99H513.2v-56.665h2v54.665zM513.2 282.643h2v24.917h-2z"/></g><circle r="5.312" cy="354.955" cx="548.936" class="N"/><path d="M548.935 361.768c-3.756 0-6.812-3.057-6.812-6.813a6.82 6.82 0 0 1 6.812-6.811 6.82 6.82 0 0 1 6.812 6.811c0 3.756-3.057 6.813-6.812 6.813zm0-10.623c-2.102 0-3.812 1.71-3.812 3.81a3.82 3.82 0 0 0 3.812 3.813 3.82 3.82 0 0 0 3.812-3.813c0-2.102-1.71-3.81-3.812-3.81z" class="L"/><circle r="5.312" cy="354.955" cx="572.091" class="N"/><path d="M572.09 361.768c-3.756 0-6.812-3.057-6.812-6.813a6.82 6.82 0 0 1 6.812-6.811 6.82 6.82 0 0 1 6.812 6.811c0 3.756-3.056 6.813-6.812 6.813zm0-10.623c-2.102 0-3.812 1.71-3.812 3.81a3.82 3.82 0 0 0 3.812 3.813 3.82 3.82 0 0 0 3.812-3.813c0-2.102-1.71-3.81-3.812-3.81z" class="L"/><path d="M484.17 147.828c3.055 0 5.888.902 8.227 2.518 1.588-1.802 3.77-3.083 6.243-3.495-.103-.695-.155-1.412-.155-2.134a14.51 14.51 0 0 1 14.501-14.508c8.01 0 14.503 6.49 14.503 14.5 0 1.184-.146 2.328-.412 3.424 1.072-.252 2.19-.305 3.342-.305 8 0 14.502 6.658 14.502 14.582h-75.253c-.001-7.924 6.49-14.582 14.502-14.582z" class="R"/><path d="M735.24 370.14h14.2v2h-14.2zm-663.9 0h359.705v2H71.34zm-20.78 0h10.38v2H50.56zm388.88 0h288.7v2h-288.7z" class="K"/><g class="Q"><path d="M368.19 331.94h63.618v31.07H368.19z" class="M"/><path d="M323.883 358.15h152.023v12H323.883z"/><path d="M279.995 171.588h240.012c6.5 0 11.82 5.32 11.82 11.82V320.12c0 6.5-5.318 11.82-11.82 11.82H279.995c-6.5 0-11.82-5.32-11.82-11.82V183.408c-.001-6.5 5.318-11.82 11.82-11.82z" class="M"/></g><path d="M383.636 318.047h23.73v2h-23.73zm136.37 14.893H421.17v-2h98.837c5.966 0 10.82-4.854 10.82-10.82V183.408c0-5.967-4.854-10.82-10.82-10.82h-240c-5.966 0-10.82 4.854-10.82 10.82V320.12c0 5.967 4.854 10.82 10.82 10.82H381.4v2H279.995c-7.07 0-12.82-5.75-12.82-12.82V183.408c0-7.07 5.75-12.82 12.82-12.82h240c7.068 0 12.82 5.75 12.82 12.82V320.12c0 7.07-5.75 12.82-12.82 12.82zm-123.156-2h16.785v2H396.85z" class="K"/><path d="M277.7 181.633h244.6v126.053H277.7z" class="M N"/><g class="K"><path d="M349.047 344.17l5.395 5.395-1.414 1.414-5.395-5.395z"/><path d="M351.987 342.887l-5.64 5.64-2.064-7.705zm-28.104 13.473h78.52v2h-78.52zm101.787 0h12.067v2H425.67z"/></g><path d="M398.104 168.625v-28.197c-25.67.502-48.836 11.104-65.773 27.98l19.623 19.103c12.506-11.566 29.14-18.816 46.15-18.885z" class="Q"/><path d="M386.922 170.7l-.37-1.965c3.52-.664 7.064-1.036 10.553-1.107v-27.2h2v29.193l-.996.004c-3.688.014-7.45.38-11.186 1.084zm-34.987 18.177l-20.303-19.764 1.396-1.433 18.947 18.444c7.76-6.992 16.976-12.3 26.706-15.4l.605 1.906c-9.748 3.097-18.964 8.5-26.655 15.602z" class="K"/><path d="M464.144 307.686c11.213-10.092 20.036-22.79 25.515-37.143l-28.493-8.283c-9.86 22.746-33.178 39.585-58.004 41.542v3.884z" class="Q"/><path d="M403.16 140.474v28.333c35.492 2.496 61.315 32.4 62.9 67.5.33 7.36-.803 14.5-3.077 21.2l28.342 8.24c2.98-9.246 4.64-19.082 4.65-29.317.056-51.972-41.226-94.293-92.803-95.967zm-67.306 167.212h62.25v-3.678c-37.826-.137-65.8-31.094-67.45-67.7-.77-17.17 6.307-33.144 17.695-45.258l-19.556-19.04c-15.362 16.992-24.73 39.508-24.756 64.22-.03 28.37 12.26 53.865 31.817 71.447z" class="P"/><path d="M331.04 247.682h11.656v38.12H331.04z" class="Q"/><path d="M354.35 233.295h11.656V285.8H354.35z" class="L"/><path d="M377.662 242.67h11.656v43.13h-11.656z" class="P"/><path d="M400.972 223.295h11.657V285.8h-11.657z" class="Q"/><path d="M424.283 205.79h11.657v80h-11.657z" class="P"/><path d="M447.594 196.067h11.656V285.8h-11.656z" class="L"/><path d="M343.697 286.802H330.04v-40.12h13.656zm-11.656-2h9.656v-36.12h-9.656zm81.6 2h-13.657v-64.507h13.657zm-11.657-2h9.657v-60.507h-9.657zm-42.95-72.262l-30.445 21.572-1.156-1.632 30.965-21.94h39.4l40.416-27.452 1.123 1.654-40.924 27.798zm-84.273 94.146h250.5v2h-250.5z" class="K"/><path d="M430.352 179.486l10.062 13.643 6.78-15.535z" class="L"/><path d="M244.168 144.264h2v19.867h-2zm-7.156 4.416h2v15.452h-2zm-7.157 4.306h2v11.145h-2zm-7.155 4.2h2v6.954h-2zM627 240.224h2v19.867h-2zm-7.156 4.416h2v15.452h-2zm-7.146 4.305h2v11.146h-2zm-7.158 4.192h2v6.954h-2z" class="K"/><path d="M160.874 307.366l.045 56.148h-82.59l-.058-55.795 41.302-37.503z" class="R"/><path d="M119.575 271.563L78.942 308.46l-1.344-1.48 41.97-38.11 41.973 37.755-1.337 1.486z" class="K"/><path d="M88.496 293.313h62.616V354.2H88.496z" class="L"/><g class="R"><path d="M160.906 371.057l-29.23-27.428h-24.052l-29.295 27.44z"/><path d="M107.678 343.63l-29.35 27.44v-56.802zm23.997 0l29.244 27.44v-56.802z"/></g><g class="K"><path d="M78.328 372.07a1 1 0 0 1-.684-1.731l29.295-27.44a1 1 0 0 1 .684-.27h24.053a1 1 0 0 1 .685.271l29.23 27.43a1 1 0 0 1-.685 1.729zm29.7-27.44l-27.16 25.44 77.52-.013-27.1-25.428h-23.26z"/><path d="M86.386 321.2l21.72 21.72-1.414 1.414-21.72-21.72zm57.404 8.9l1.414 1.414-12.82 12.82-1.414-1.414zm-66.52-6.344h2v18.13h-2zm43.453-21.196h3.603v2h-3.603zm-10 0h3.602v2h-3.602zm-10.002 0h3.602v2h-3.602zm0 6.294h38.165v2H100.72zm0 6.216h38.165v2H100.72zm-.001 6.217h14.595v2H100.72zm71.092-79.387h55.706v8.87h15.086c.353-4.95 4.494-8.87 9.534-8.87h.172a9.57 9.57 0 0 1 9.558 9.559v120.6h-90.056zm88.056 9.56a7.57 7.57 0 0 0-7.558-7.559h-.172a7.57 7.57 0 0 0-7.558 7.559v1.313h-19.062v-8.87h-51.706v126.16h86.056z"/></g><path d="M252.618 242.9c-3.834 0-9.087 2.18-9.087 9.434l-.062 109.52c0 5.035-2.162 9.254-8.252 9.254l-74.826.02.062-118.795c0-5.215 5.157-9.434 11.496-9.434z" class="L"/><path d="M161.44 273l-.008 8.434-2-.001.008-8.434zm-2.04 99.14l75.827-.02c5.88 0 9.252-3.738 9.252-10.254l.062-109.52c0-8.03 6.736-8.436 8.087-8.436v-2h-80.67c-6.9 0-12.496 4.682-12.496 10.434l-.007 13.037 2 .002.007-13.037c0-4.652 4.708-8.436 10.496-8.436h74.368c-2.235 1.68-3.785 4.447-3.785 8.434l-.062 109.52c0 3.768-1.258 8.256-7.252 8.256l-73.826.02.04-82.18-2-.002z" class="K"/><path d="M140.87 317.316v43.977s-.914 9.848 12.914 9.848l80.677-.014c-1.18-.03-8.54-.666-8.54-9.814v-33.275s1.035-10.72-10.08-10.72h-74.97z" class="Q"/><path d="M234.68 371.127h-.22.22z" class="L"/><g class="K"><path d="M142.374 368.184c-2.823-3.098-2.513-6.826-2.502-6.89v-44.977h75.97c3.632 0 6.454 1.078 8.387 3.207 3.146 3.465 2.71 8.4 2.693 8.514v33.275c0 8.2 6.303 8.78 7.566 8.814l-.026 2-80.677.014c-5.18.001-9.02-1.33-11.412-3.956zm82.548-6.87l.004-33.37c.004-.043.363-4.29-2.188-7.086-1.54-1.686-3.86-2.54-6.897-2.54h-73.97l-.004 43.07c-.002.03-.25 2.998 1.985 5.45 1.998 2.19 5.34 3.303 9.934 3.303l74.9-.014c-2.01-1.5-3.764-4.162-3.764-8.814z"/><path d="M234.58 372.13l.15-.004-.048-1.998h-.22l-.028 2z"/></g><path d="M208.556 329.313c-3.236-10.62 7.293-12 7.293-12h-74.97c-10.89 0-11.774 6.732-10.805 12z" class="L"/><path d="M165.574 328.313h6.333v2h-6.333zm-36.334 2h30.53v-2h-28.846c-.427-3.06.054-5.445 1.432-7.1 1.596-1.918 4.463-2.9 8.522-2.9h69.802c-.9.62-1.743 1.422-2.413 2.46-1.323 2.05-1.66 4.58-1.008 7.53h-25.43v2h28.078l-.394-1.3c-.9-2.92-.743-5.328.436-7.154 1.927-2.988 6-3.547 6.03-3.553l-.13-1.992h-74.97c-4.68 0-8.065 1.215-10.06 3.6-1.897 2.28-2.48 5.496-1.73 9.563z" class="K"/><path d="M189.573 264.66l-7.74-5.535-7.85-5.535-7.19 5.082v45.256h69.87v-52.13l-7.738 7.27-8.072-5.593-7.738 5.65h-7.737l-7.85-5.535z" class="O"/><path d="M236.667 264.89l-7.626 5.693-8.073-11.516-9.278 12.868-14.837-7.045-7.17 12.043-7.85-12.274-7.96 5.71-7.078-5.012v38.57h69.87z" class="P"/><path d="M236.667 280.467l-7.738 3.773-7.848-8.162-7.74 11.186-7.96-5.594-4.605 9.6-16.796 2.182-9.996-11.898-7.19 5.152v17.22h69.87z" class="R"/><path d="M145.475 351.584l-.07-1.066h13.542v-13.543l1.066.07c7.156.475 12.762 6.46 12.762 13.63 0 7.54-6.134 13.674-13.673 13.674a13.7 13.7 0 0 1-13.627-12.764zm15.472.934H147.6c.89 5.592 5.754 9.83 11.512 9.83a11.69 11.69 0 0 0 11.673-11.674 11.7 11.7 0 0 0-9.828-11.514z" class="K"/><path d="M158.257 349.336v-10.46c-4.05.29-7.54 2.625-9.443 5.975z" class="O"/><path d="M147.305 349.828h8.05l-7.275-3.455a11.65 11.65 0 0 0-.776 3.455z" fill="#2e8d9a"/><path d="M191.347 339.977h3.74v2h-3.74zm10.383 0h3.738v2h-3.738zm10.37 0h3.74v2h-3.74zm-35.876 6.53h39.614v2h-39.614zm.01 6.456h39.614v2h-39.614zm24.466 6.45h15.15v2H200.7z" class="K"/><path d="M491.63 313.923c-9.184 0-19.182 7.107-19.182 18.966 0 18.047 19.228 37.118 19.228 37.118s19.226-19.382 19.226-37.118c-.001-11.86-10.612-18.966-19.272-18.966zm4.763 27.1c-1.28.782-2.853 1.256-4.717 1.28-2.616-.035-4.658-.956-6.124-2.37-5.4-4.996-3.338-16.54 6.163-16.54 10.283 0 11.84 13.52 4.678 17.627z" class="M O"/><path d="M491.716 348.396a16.09 16.09 0 0 1-1.324-.056l.166-1.992c.924.076 1.883.063 2.8-.052l.24 1.986a15.7 15.7 0 0 1-1.892.114zm-5.507-1a15.69 15.69 0 0 1-2.878-1.445l1.077-1.686c.8.507 1.636.93 2.508 1.26zm11.543-.212l-.775-1.844c.86-.362 1.688-.816 2.46-1.35l1.138 1.645a15.78 15.78 0 0 1-2.822 1.55zm-17.68-4.017c-.715-.803-1.348-1.682-1.88-2.612l1.735-.994c.464.8 1.017 1.577 1.64 2.278zm23.657-.433l-1.542-1.273a13.66 13.66 0 0 0 1.556-2.336l1.77.93a15.59 15.59 0 0 1-1.785 2.679zm-27.135-6.16a15.63 15.63 0 0 1-.446-3.188l2-.072c.033.94.165 1.875.4 2.78zm30.37-.556l-1.958-.408c.2-.913.287-1.853.287-2.792l2-.06v.06c0 1.076-.1 2.153-.33 3.2zm-28.444-6.42l-1.943-.473a15.49 15.49 0 0 1 1.084-3.034l1.803.865c-.404.843-.722 1.732-.944 2.642zm26.247-.535a13.4 13.4 0 0 0-1.05-2.6l1.767-.938a15.47 15.47 0 0 1 1.206 2.985zm-23.24-5.222l-1.5-1.322a15.69 15.69 0 0 1 2.366-2.183l1.197 1.602a13.78 13.78 0 0 0-2.063 1.903zm20-.408c-.647-.678-1.366-1.3-2.138-1.818l1.13-1.648a15.58 15.58 0 0 1 2.452 2.084zm-14.665-3.3l-.715-1.867a15.43 15.43 0 0 1 3.112-.832l.3 1.975a13.61 13.61 0 0 0-2.708.724zm9.185-.187a13.47 13.47 0 0 0-2.738-.613l.234-1.986a15.62 15.62 0 0 1 3.142.703zM269.97 157.37l-1.414-1.414 3.5-3.5a3.83 3.83 0 0 1 2.724-1.128c1.033.001 2.002.403 2.73 1.133l1.344 1.35a1.79 1.79 0 0 0 1.365.545c.517-.016 1-.236 1.333-.623l1.252-1.4c.724-.814 1.764-1.287 2.854-1.295 1.073-.002 2.137.448 2.873 1.254l1.32 1.444a1.82 1.82 0 0 0 1.406.603 1.83 1.83 0 0 0 1.381-.66l1.052-1.252a3.85 3.85 0 0 1 2.848-1.375 3.87 3.87 0 0 1 2.918 1.22l1.388 1.485a1.87 1.87 0 0 0 1.411.587c.542-.018 1.03-.256 1.374-.674l.998-1.213a3.86 3.86 0 0 1 2.79-1.4 3.84 3.84 0 0 1 2.91 1.125l3.736 3.736-1.414 1.414-3.736-3.736a1.82 1.82 0 0 0-1.399-.541c-.528.025-1.005.265-1.342.674l-.998 1.213a3.85 3.85 0 0 1-2.855 1.4c-1.112.018-2.178-.4-2.935-1.22l-1.388-1.484a1.83 1.83 0 0 0-1.403-.586c-.538.014-1.024.248-1.37.66l-1.052 1.252a3.85 3.85 0 0 1-2.87 1.375c-1.096.01-2.176-.434-2.925-1.254l-1.32-1.443c-.358-.395-.894-.63-1.382-.604a1.83 1.83 0 0 0-1.372.622l-1.252 1.4a3.87 3.87 0 0 1-2.77 1.293 3.88 3.88 0 0 1-2.84-1.13l-1.344-1.35c-.352-.35-.808-.582-1.313-.545a1.84 1.84 0 0 0-1.31.543z" class="K"/><path d="M350.02 133.46h-2.094a11.16 11.16 0 0 0-1.368-3.26l1.488-1.488a.84.84 0 0 0 0-1.192l-2.575-2.575c-.33-.33-.863-.33-1.193 0l-1.48 1.48c-1.027-.625-2.133-1.07-3.272-1.338v-2.104c0-.466-.377-.844-.843-.844h-3.643c-.466 0-.843.378-.843.844v2.094c-1.17.285-2.266.752-3.26 1.37l-.007-.008-1.48-1.48c-.33-.33-.863-.33-1.192 0l-2.576 2.576a.84.84 0 0 0 0 1.191l1.48 1.48c-.625 1.027-1.07 2.133-1.337 3.272h-2.105c-.465 0-.843.377-.843.843v3.643c0 .466.377.843.843.843h2.095a11.16 11.16 0 0 0 1.368 3.26l-.006.008-1.48 1.48c-.33.33-.33.863 0 1.192l2.576 2.575a.84.84 0 0 0 1.192 0l1.48-1.48c1.027.625 2.133 1.07 3.272 1.338v2.104c0 .466.377.844.843.844h3.643c.465 0 .843-.377.843-.844v-2.094c1.17-.285 2.266-.75 3.26-1.368l.006.007 1.48 1.48a.84.84 0 0 0 1.192 0l2.576-2.576a.84.84 0 0 0 0-1.191l-1.48-1.48c.625-1.027 1.072-2.134 1.338-3.273h2.104c.466 0 .843-.377.843-.843v-3.643c-.002-.466-.38-.843-.845-.843z" class="P"/><path d="M336.874 144.213l-.042-2h.042a6.03 6.03 0 0 0 2.601-.583l.857 1.807a8.02 8.02 0 0 1-3.458.776zm-4.584-1.426c-1-.684-1.83-1.597-2.43-2.64l1.734-.994a6.15 6.15 0 0 0 1.83 1.988zm11.55-2.56l-1.724-1.015a6 6 0 0 0 .816-2.573l1.993.165a7.98 7.98 0 0 1-1.085 3.423zm-13.028-4.568l-1.994-.152a7.98 7.98 0 0 1 1.066-3.43l1.73 1.006a5.98 5.98 0 0 0-.8 2.576zm11.358-2.516a6.15 6.15 0 0 0-1.819-1.999l1.146-1.64c.987.7 1.822 1.607 2.415 2.655zm-7.93-2.494l-.867-1.8a8 8 0 0 1 3.501-.797l.082 1-.082 1a6.05 6.05 0 0 0-2.634.598zm266.284 93.22h19v2h-19zm-368.678-36.224h19v2h-19zm314.4 5.962h19v2h-19zm8.466-54.133h19v2h-19zm-420.93 123.24h16.15v2h-16.15zm518.07-66.847h33.56v2h-33.56zM638.8 172.96h19v2h-19zm22.666 0h8.5v2h-8.5zm16.407 5.26a4.26 4.26 0 0 1-4.26-4.26 4.26 4.26 0 1 1 4.26 4.26zm0-6.52c-1.246 0-2.26 1.014-2.26 2.26s1.014 2.26 2.26 2.26 2.26-1.014 2.26-2.26-1.014-2.26-2.26-2.26zM170.23 223.666h19v2h-19zm22.667 0h8.5v2h-8.5zm16.407 5.26a4.26 4.26 0 0 1-4.26-4.26 4.25 4.25 0 1 1 8.52 0 4.26 4.26 0 0 1-4.26 4.26zm0-6.52c-1.246 0-2.26 1.014-2.26 2.26s1.014 2.26 2.26 2.26 2.26-1.013 2.26-2.26-1.014-2.26-2.26-2.26zm182.68-92.35h19v2h-19zm-12.166.001h8.5v2h-8.5zm-7.908 5.26c-2.35 0-4.26-1.912-4.26-4.26a4.26 4.26 0 0 1 4.26-4.26 4.25 4.25 0 1 1 0 8.52zm0-6.52c-1.246 0-2.26 1.014-2.26 2.26s1.014 2.26 2.26 2.26 2.26-1.015 2.26-2.26-1.014-2.26-2.26-2.26zM711.704 349.66h19v2h-19zm22.666 0h8.5v2h-8.5zm16.407 5.26a4.26 4.26 0 0 1-4.26-4.26 4.25 4.25 0 0 1 4.26-4.26 4.26 4.26 0 1 1 0 8.52zm0-6.52c-1.246 0-2.26 1.014-2.26 2.26s1.014 2.26 2.26 2.26 2.26-1.015 2.26-2.26-1.014-2.26-2.26-2.26zM424.335 133.867l7.743-5.995 7.07 5.5 6.962-6.072 7.285 6.173 6.73-6.206 7.494 6.207 6.52-6.128 8.37 6.48-1.225 1.58-7.02-5.435-6.563 6.167-7.507-6.218-6.745 6.22-7.32-6.203-6.907 6.023-7.145-5.55-6.516 5.046zm129.08 48.593a2.84 2.84 0 0 1-2.015-.834l-2.032-2.033a2.85 2.85 0 0 1 0-4.027l2.033-2.033a2.92 2.92 0 0 1 4.027 0l2.033 2.033a2.85 2.85 0 0 1 0 4.027l-2.033 2.033a2.83 2.83 0 0 1-2.013.834zm0-7.762a.84.84 0 0 0-.6.248l-2.033 2.033a.85.85 0 0 0 0 1.199l2.033 2.033a.87.87 0 0 0 1.199 0l2.033-2.033a.85.85 0 0 0 0-1.199l-2.033-2.033a.84.84 0 0 0-.599-.248zM731.27 302.732c-.762 0-1.477-.297-2.015-.834l-2.032-2.033a2.85 2.85 0 0 1 0-4.027l2.032-2.033c1.075-1.076 2.95-1.076 4.028 0l2.032 2.033a2.85 2.85 0 0 1 0 4.027l-2.032 2.033a2.83 2.83 0 0 1-2.013.834zm0-7.76a.84.84 0 0 0-.6.248l-2.033 2.033a.85.85 0 0 0 0 1.199l2.033 2.033c.32.318.88.32 1.2 0l2.032-2.033a.85.85 0 0 0 0-1.199l-2.032-2.033a.84.84 0 0 0-.599-.248zm-80.702-39.947a2.83 2.83 0 0 1-2.015-.835l-2.032-2.032a2.87 2.87 0 0 1 0-4.028l2.032-2.032a2.92 2.92 0 0 1 4.028 0l2.032 2.032a2.85 2.85 0 0 1 0 4.028l-2.032 2.032a2.82 2.82 0 0 1-2.013.835zm0-7.76a.84.84 0 0 0-.6.248l-2.032 2.032a.85.85 0 0 0 0 1.2l2.032 2.032a.87.87 0 0 0 1.2 0l2.032-2.032a.85.85 0 0 0 0-1.2l-2.032-2.032a.84.84 0 0 0-.599-.248zm-48.16 36.548c-.76 0-1.477-.296-2.014-.835l-2.033-2.032c-1.1-1.1-1.1-2.917 0-4.028l2.033-2.032a2.92 2.92 0 0 1 4.027 0l2.033 2.032a2.87 2.87 0 0 1 0 4.028l-2.033 2.032c-.537.54-1.252.835-2.013.835zm0-7.76a.84.84 0 0 0-.6.248l-2.033 2.032a.85.85 0 0 0 0 1.2l2.033 2.032a.87.87 0 0 0 1.199 0l2.033-2.032a.85.85 0 0 0 0-1.2l-2.033-2.032a.84.84 0 0 0-.599-.248zM84.22 265.723a2.83 2.83 0 0 1-2.014-.835l-2.032-2.032a2.83 2.83 0 0 1-.834-2.014c0-.762.296-1.477.834-2.016l2.032-2.03a2.92 2.92 0 0 1 4.028 0l2.033 2.032c1.1 1.1 1.1 2.917 0 4.028l-2.033 2.032a2.82 2.82 0 0 1-2.014.836zm0-7.762a.84.84 0 0 0-.6.248l-2.032 2.032c-.16.16-.25.374-.25.6a.84.84 0 0 0 .249.599l2.032 2.033a.87.87 0 0 0 1.2 0l2.033-2.032a.85.85 0 0 0 0-1.2l-2.032-2.04a.84.84 0 0 0-.6-.249zm-28.47 80.875a2.83 2.83 0 0 1-2.014-.835l-2.032-2.032a2.85 2.85 0 0 1 0-4.028l2.032-2.032c1.077-1.076 2.952-1.076 4.028 0l2.033 2.03c1.1 1.1 1.1 2.918 0 4.03l-2.033 2.033c-.538.537-1.253.834-2.014.834zm0-7.762a.84.84 0 0 0-.6.248l-2.033 2.032a.85.85 0 0 0 0 1.2l2.033 2.032a.87.87 0 0 0 1.199 0l2.033-2.032a.85.85 0 0 0 0-1.2l-2.033-2.032a.84.84 0 0 0-.599-.248z" class="K"/><path d="M597.03 194.04c11.488 0 20.802-9.315 20.802-20.803s-9.313-20.8-20.802-20.8-20.802 9.31-20.802 20.8 9.315 20.803 20.802 20.803z" class="M O"/><g class="K"><path d="M597.04 187.367l-.027-2h.027c.902 0 1.803-.1 2.675-.295l.438 1.95c-1.016.23-2.063.344-3.113.344zm-4.2-.633c-1.006-.3-1.98-.738-2.897-1.27l1.005-1.73a11.97 11.97 0 0 0 2.483 1.09zm11.227-1.24l-.997-1.734a12.11 12.11 0 0 0 2.188-1.609l1.357 1.47a14.1 14.1 0 0 1-2.548 1.874zm-17.4-2.662c-.72-.775-1.35-1.633-1.876-2.545l1.732-.998c.452.783.994 1.518 1.6 2.186zm22.593-2.494l-1.73-1.006a12.12 12.12 0 0 0 1.094-2.484l1.9.596a14.06 14.06 0 0 1-1.274 2.894zm-26.004-3.973a14.24 14.24 0 0 1-.347-3.127l2-.016v.016c0 .906.1 1.8.298 2.686zm25.915-3.088v-.04a12.27 12.27 0 0 0-.293-2.662l1.952-.438a14.22 14.22 0 0 1 .341 3.1zm-23.723-3.627l-1.9-.6a13.88 13.88 0 0 1 1.27-2.898l1.73 1.002a12.15 12.15 0 0 0-1.088 2.486zm22.12-2.44a12.16 12.16 0 0 0-1.606-2.19l1.47-1.355a14.07 14.07 0 0 1 1.87 2.55zm-18.775-2.87l-1.36-1.467c.774-.72 1.63-1.35 2.544-1.88l1 1.732a12.19 12.19 0 0 0-2.185 1.614zm14.35-1.588a12.02 12.02 0 0 0-2.48-1.096l.595-1.9a14.03 14.03 0 0 1 2.896 1.279zm-8.803-1.346l-.444-1.95c1.022-.232 2.08-.352 3.143-.352l.055 2h-.055a12.29 12.29 0 0 0-2.7.3zm3.82 19.186h-1.604c-1.892 0-3.43-1.54-3.43-3.43v-.748h2v.748a1.43 1.43 0 0 0 1.43 1.43h1.604a1.32 1.32 0 0 0 1.32-1.32v-1.533a1.5 1.5 0 0 0-1.5-1.5h-2.126a3.28 3.28 0 0 1-3.276-3.279v-.746c0-2.174 1.77-3.94 3.94-3.94h1.026c1.86 0 3.372 1.512 3.372 3.37v1.2h-2v-1.2c0-.756-.615-1.37-1.372-1.37h-1.026c-1.07 0-1.94.87-1.94 1.94v.746a1.28 1.28 0 0 0 1.276 1.279h2.126c1.93 0 3.5 1.57 3.5 3.5v1.533c0 1.83-1.5 3.32-3.32 3.32z"/><path d="M596.03 179.592h2v3.178h-2zm0-15.887h2v3.566h-2zm1.05 36.353a27.22 27.22 0 0 1-1.998-.074c-7.135-.52-13.647-3.795-18.338-9.222a26.67 26.67 0 0 1-6.462-19.482 26.68 26.68 0 0 1 9.262-18.367 26.88 26.88 0 0 1 19.444-6.424 26.62 26.62 0 0 1 18.331 9.22 26.64 26.64 0 0 1 6.463 19.478c-.266 3.66-1.25 7.154-2.924 10.383a26.54 26.54 0 0 1-3.837 5.537l-.5.565-.01-.005c-.622.658-1.288 1.293-1.985 1.893a26.91 26.91 0 0 1-2.68 2.034c-4.382 2.92-9.484 4.464-14.755 4.464zm-.1-51.644c-5.9 0-11.632 2.136-16.14 6.014a24.7 24.7 0 0 0-8.572 16.998 24.68 24.68 0 0 0 5.98 18.028 24.66 24.66 0 0 0 16.97 8.535c5.5.4 10.936-1.02 15.5-4.062a24.89 24.89 0 0 0 2.482-1.884 24.66 24.66 0 0 0 2.316-2.274l.4-.46a24.6 24.6 0 0 0 3.146-4.66 24.65 24.65 0 0 0 2.705-9.607 24.66 24.66 0 0 0-5.981-18.025c-4.34-5.022-10.364-8.053-16.964-8.533a25.26 25.26 0 0 0-1.853-.07zm18.814 35.338l-1.775-.92a16.29 16.29 0 0 0 1.8-6.432l1.994.144a18.48 18.48 0 0 1-2.03 7.208z"/><path d="M607.862 191.705l-.928-1.77a16.57 16.57 0 0 0 1.502-.891 16.71 16.71 0 0 0 1.662-1.262c.544-.47 1.565-1.537 1.576-1.547l1.445 1.383-1.717 1.68a18.91 18.91 0 0 1-1.859 1.412c-.54.36-1.105.693-1.68.996zm7.906-.59l3.74 3.74-1.414 1.414-3.74-3.74z"/></g><path d="M622.69 191.673l27.877 27.877-7.777 7.777-27.877-27.877z" class="R"/><path d="M256.202 218.953h-2.094c-.284-1.168-.75-2.266-1.37-3.26l.007-.006 1.48-1.48c.33-.33.33-.863 0-1.192l-2.576-2.576c-.33-.328-.863-.328-1.193 0l-1.48 1.48c-1.027-.626-2.133-1.07-3.272-1.338v-2.105c0-.465-.377-.843-.843-.843h-3.643c-.466 0-.843.378-.843.843v2.095c-1.17.284-2.266.75-3.26 1.368l-1.488-1.488c-.33-.328-.863-.328-1.192 0l-2.576 2.576c-.33.33-.33.863 0 1.192l1.48 1.48a11.19 11.19 0 0 0-1.338 3.271h-2.104c-.465 0-.843.378-.843.844v3.643c0 .465.377.843.843.843h2.095a11.15 11.15 0 0 0 1.368 3.26l-.007.007-1.48 1.48c-.33.33-.33.863 0 1.193l2.576 2.575c.33.33.863.33 1.192 0l1.48-1.48a11.16 11.16 0 0 0 3.272 1.338v2.105c0 .466.377.843.843.843h3.643c.465 0 .843-.377.843-.843v-2.095a11.17 11.17 0 0 0 3.26-1.367l.007.006 1.48 1.48c.33.33.863.33 1.192 0l2.576-2.575c.33-.33.33-.863 0-1.192l-1.48-1.48a11.16 11.16 0 0 0 1.338-3.272h2.105c.465 0 .843-.377.843-.843v-3.643c-.001-.466-.38-.844-.844-.844z" class="O"/><path d="M243.056 229.707l-.04-2h.04c.91 0 1.787-.195 2.603-.582l.857 1.807a8.01 8.01 0 0 1-3.46.775zm-4.582-1.425a8.15 8.15 0 0 1-2.431-2.641l1.734-.994a6.12 6.12 0 0 0 1.831 1.988zm11.548-2.56l-1.723-1.016c.465-.8.74-1.656.814-2.572l1.994.164c-.1 1.22-.464 2.37-1.085 3.424zm-13.027-4.57l-1.994-.15c.092-1.22.45-2.373 1.065-3.43l1.73 1.006c-.462.794-.73 1.66-.8 2.575zm11.357-2.515c-.446-.79-1.075-1.48-1.82-2l1.145-1.64a8.14 8.14 0 0 1 2.415 2.654zm-7.93-2.493l-.867-1.803a8.03 8.03 0 0 1 3.501-.796l.082 1-.082 1c-.922.001-1.81.202-2.634.6z" class="K"/><circle r="51.488" cy="319.313" cx="655.903" class="L"/><path d="M655.902 371.8c-28.94 0-52.487-23.547-52.487-52.488s23.546-52.488 52.487-52.488 52.488 23.547 52.488 52.488-23.545 52.488-52.488 52.488zm0-102.977c-27.84 0-50.487 22.65-50.487 50.488s22.648 50.488 50.487 50.488 50.488-22.65 50.488-50.488-22.65-50.488-50.488-50.488z" class="K"/><circle r="40.367" cy="319.313" cx="655.903" class="O"/><circle r="27.307" cy="319.313" cx="655.903" class="L"/><path d="M655.903 347.62c-15.608 0-28.307-12.698-28.307-28.307s12.698-28.307 28.307-28.307 28.307 12.698 28.307 28.307-12.698 28.307-28.307 28.307zm0-54.613c-14.506 0-26.307 11.8-26.307 26.307s11.8 26.307 26.307 26.307 26.307-11.8 26.307-26.307-11.8-26.307-26.307-26.307z" class="K"/><circle r="12.729" cy="319.313" cx="655.903" class="O"/><g class="K"><path d="M655.903 315.562h74.218v7.5h-74.218z"/><path d="M754.83 327.376h-14.575l-11.983-7.23v-1.666l11.983-7.23h14.575l-8.06 8.064z"/></g><path d="M321.276 364.144a7.01 7.01 0 0 1-7.009 7.009h-57.802a7.01 7.01 0 0 1-7.009-7.009V299.74a7.01 7.01 0 0 1 7.009-7.009h57.802a7.01 7.01 0 0 1 7.009 7.009z" class="P"/><path d="M322.276 338.832h-2V299.74a6.02 6.02 0 0 0-6.009-6.01h-57.802a6.02 6.02 0 0 0-6.009 6.01v20.307h-2V299.74a8.02 8.02 0 0 1 8.009-8.01h57.802a8.02 8.02 0 0 1 8.009 8.01zm-8 33.32h-57.802a8.02 8.02 0 0 1-8.009-8.008v-30.176h2v30.176c0 3.313 2.695 6.008 6 6.008h57.802a6.02 6.02 0 0 0 6.01-6.008v-9.182h2v9.182a8.02 8.02 0 0 1-8.009 8.008zm6-28.102h2v5.322h-2z" class="K"/><path d="M311.617 313.005h-52.5a3.55 3.55 0 0 1-3.55-3.55v-7.37a3.55 3.55 0 0 1 3.55-3.55h52.5a3.55 3.55 0 0 1 3.55 3.55v7.37a3.55 3.55 0 0 1-3.55 3.55z" class="L"/><g class="N"><use xlink:href="#D"/><use xlink:href="#E"/><use xlink:href="#D" y="23.043"/><use xlink:href="#D" x="11.09"/><use xlink:href="#E" x="11.09"/><use xlink:href="#D" x="11.09" y="23.043"/><use xlink:href="#D" x="21.846"/><use xlink:href="#E" x="21.846"/><path d="M301.33 340.68h-5.18a1.89 1.89 0 0 1-1.892-1.892v-5.18c0-1.045.847-1.893 1.892-1.893h5.18c1.045 0 1.892.848 1.892 1.893v5.18a1.89 1.89 0 0 1-1.892 1.892z"/><use xlink:href="#E" x="49.646"/><path d="M301.33 329.587h-5.18a1.89 1.89 0 0 1-1.892-1.892v-5.18a1.89 1.89 0 0 1 1.892-1.892h5.18a1.89 1.89 0 0 1 1.892 1.892v5.18a1.89 1.89 0 0 1-1.892 1.892z"/><use xlink:href="#D" x="49.646"/><use xlink:href="#D" x="21.846" y="23.043"/><use xlink:href="#D" y="33.911"/><use xlink:href="#D" x="11.09" y="33.911"/><use xlink:href="#D" x="21.846" y="33.911"/></g><path d="M312.662 364.387h-17.085c-1.595 0-2.892-1.297-2.892-2.893v-5.178c0-1.596 1.297-2.893 2.892-2.893h17.085c1.595 0 2.892 1.297 2.892 2.893v5.178c0 1.596-1.297 2.893-2.892 2.893zm-17.085-8.963c-.492 0-.892.4-.892.893v5.178c0 .492.4.893.892.893h17.085c.492 0 .892-.4.892-.893v-5.178c0-.492-.4-.893-.892-.893z" class="K"/><g class="Q"><path d="M312.662 352.195h-17.085a1.89 1.89 0 0 1-1.892-1.892v-5.18a1.89 1.89 0 0 1 1.892-1.892h17.085a1.89 1.89 0 0 1 1.892 1.892v5.18a1.89 1.89 0 0 1-1.892 1.892z"/><path d="M208.34 203.475h-14.146c-4.857 0-8.832-3.975-8.832-8.832s3.975-8.832 8.832-8.832h14.146a8.86 8.86 0 0 1 8.832 8.832 8.86 8.86 0 0 1-8.832 8.832z" class="M"/></g><g class="M N"><circle r="2.226" cy="194.643" cx="210.639"/><circle r="2.226" cy="194.643" cx="201.268"/><circle r="2.226" cy="194.643" cx="191.897"/></g><path d="M182.322 177.455h-14.146a8.86 8.86 0 0 1-8.832-8.832 8.86 8.86 0 0 1 8.832-8.832h14.146a8.86 8.86 0 0 1 8.832 8.832c0 4.857-3.975 8.832-8.832 8.832z" class="M Q"/><g class="M N"><circle r="2.226" cy="168.623" cx="184.619"/><circle r="2.226" cy="168.623" cx="175.249"/><circle r="2.226" cy="168.623" cx="165.877"/></g><path d="M626.466 353.334l-1.346-1.48 1.396-1.348 1.432 1.398-1.482 1.43zm4.834-5.44l-1.627-1.164a32.4 32.4 0 0 0 2.097-3.34l1.756.96a34.93 34.93 0 0 1-2.226 3.545zm-54.085-.044a32.37 32.37 0 0 1-2.193-3.576l1.77-.932a30.22 30.22 0 0 0 2.057 3.352zm58.457-8.276l-1.883-.676a31.03 31.03 0 0 0 1.094-3.781l1.953.432a33.22 33.22 0 0 1-1.164 4.025zm-62.7-.12a33.62 33.62 0 0 1-1.077-4.05l1.96-.393a31.65 31.65 0 0 0 1.013 3.807zm64.6-9.097l-1.996-.112.047-1.668-.08-2.268 1.994-.143.087 2.4-.05 1.78zm-66.3-.15l-.034-1.198-.002-.416.097-2.567 1.994.148-.1 2.42.002.394.032 1.134zm63.53-8.762a31.31 31.31 0 0 0-1.14-3.77l1.873-.7a32.88 32.88 0 0 1 1.214 4.014zm-60.728-.135l-1.947-.456a33.61 33.61 0 0 1 1.209-4.011l1.875.696a31.59 31.59 0 0 0-1.137 3.77zm57.508-8.095a31.48 31.48 0 0 0-2.152-3.3l1.604-1.195a34.8 34.8 0 0 1 2.29 3.5zm-54.303-.14l-1.744-.98a33.56 33.56 0 0 1 2.272-3.516l1.6 1.188a31.7 31.7 0 0 0-2.137 3.307zm48.912-6.865a32.04 32.04 0 0 0-2.98-2.574l1.2-1.593a33.86 33.86 0 0 1 3.171 2.737zm-43.55-.156l-1.402-1.426a33.29 33.29 0 0 1 3.166-2.744l1.2 1.6a31.03 31.03 0 0 0-2.975 2.579zm36.433-5.082a31.56 31.56 0 0 0-3.576-1.644l.72-1.866a35.25 35.25 0 0 1 3.803 1.75zm-29.32-.155l-.94-1.766a32.67 32.67 0 0 1 3.819-1.732l.707 1.87a30.47 30.47 0 0 0-3.585 1.627zm21.03-2.893a31.57 31.57 0 0 0-3.896-.579l.17-1.992a33.55 33.55 0 0 1 4.144.615zm-12.717-.1l-.395-1.96a32.81 32.81 0 0 1 4.154-.561l.14 1.996a30.43 30.43 0 0 0-3.898.526zm-15.91 55.52l-1.502-1.415 1.418-1.4 1.408 1.327z" class="K"/><path d="M629.612 328.578c0-14.6-12.41-26.297-27.207-25.285-13.188.902-23.337 12.404-23.178 25.62.112 9.33 4.918 17.44 12.96 21.736 2.864 1.53 4.59 4.578 4.59 7.823v.06h15.832v-.06c0-3.28 1.67-6.354 4.47-8.06 7.227-4.406 12.533-12.532 12.533-21.835z" class="R"/><path d="M614.65 346.432l-1.04-1.707c3.525-2.15 6.333-5.398 7.907-9.145l1.844.775c-1.735 4.13-4.828 7.7-8.7 10.077zm8.284-18.592a18.4 18.4 0 0 0-1.869-7.415l1.797-.88a20.36 20.36 0 0 1 2.07 8.216z" class="K"/><path d="M612.864 371.33h-16.342a3.39 3.39 0 0 1-3.382-3.382v-7.25a3.39 3.39 0 0 1 3.382-3.382h16.342a3.39 3.39 0 0 1 3.382 3.382v7.25c0 1.864-1.517 3.382-3.382 3.382z" class="L"/><g class="K"><path d="M612.864 372.14h-16.342c-2.312 0-4.19-1.88-4.19-4.19v-7.25c0-2.312 1.88-4.19 4.19-4.19h16.342c2.312 0 4.19 1.88 4.19 4.19v7.25c.001 2.31-1.88 4.192-4.19 4.192zm-16.342-14.014c-1.42 0-2.573 1.154-2.573 2.573v7.25c0 1.418 1.154 2.572 2.573 2.572h16.342c1.42 0 2.573-1.154 2.573-2.572v-7.25c0-1.42-1.154-2.573-2.573-2.573z"/><path d="M603.275 340.197h2.286v17.12h-2.286z"/></g><circle r="21.773" cy="241.917" cx="700.958" class="P"/><g class="L"><path d="M700.958 220.144c8.43 0 15.29 9.768 15.29 21.773s-6.858 21.773-15.29 21.773-15.29-9.768-15.29-21.773 6.858-21.773 15.29-21.773zm0 41.58c7.293 0 13.227-8.885 13.227-19.806s-5.934-19.806-13.227-19.806-13.227 8.885-13.227 19.806 5.934 19.806 13.227 19.806z"/><path d="M700.958 220.144c4.65 0 7.082 10.953 7.082 21.773s-2.433 21.773-7.082 21.773-7.082-10.954-7.082-21.773 2.433-21.773 7.082-21.773zm0 41.58c2.046 0 5.02-7.716 5.02-19.806s-2.974-19.806-5.02-19.806-5.02 7.715-5.02 19.806 2.973 19.806 5.02 19.806z"/><path d="M700.958 248.893a22.91 22.91 0 0 1 16.652 7.215l-1.506 1.4c-3.967-4.232-9.346-6.563-15.146-6.563a20.55 20.55 0 0 0-15.146 6.563l-1.506-1.4c4.298-4.586 10.368-7.215 16.652-7.215zm15.108-22.62l1.503 1.413a22.9 22.9 0 0 1-16.611 7.174 22.89 22.89 0 0 1-16.61-7.174l1.502-1.413c3.96 4.207 9.325 6.524 15.108 6.524s11.148-2.317 15.108-6.524zm-36.882 14.613h43.565v2.063h-43.565z"/></g><path d="M702.02 273.466l-.064-2 2.4-.18.23 1.987-2.576.2zm8.582-1.5l-.6-1.904c1.518-.487 3.008-1.104 4.43-1.83l.9 1.78c-1.52.776-3.1 1.434-4.73 1.955zm9.898-5.27l-1.238-1.57 1.03-.852a30.13 30.13 0 0 0 2.487-2.41l1.473 1.354a32.04 32.04 0 0 1-2.652 2.57l-1.1.9zm7.45-8.382l-1.707-1.04a29.09 29.09 0 0 0 2.152-4.283l1.855.75c-.637 1.58-1.4 3.12-2.3 4.575zm4.03-10.468l-1.965-.372a30.71 30.71 0 0 0 .444-3.41l.067-1.356 2 .05-.07 1.452a32.8 32.8 0 0 1-.474 3.637zm-1.872-10.875a29.91 29.91 0 0 0-1.19-4.647l1.892-.648c.554 1.612.98 3.28 1.27 4.957zm-57.293-4.122l-1.905-.6c.52-1.625 1.178-3.217 1.956-4.733l1.78.913a29.01 29.01 0 0 0-1.83 4.43zm53.722-5.76a29.33 29.33 0 0 0-2.725-3.943l1.547-1.268a31.45 31.45 0 0 1 2.91 4.211zm-48.777-3.5l-1.566-1.243a31.97 31.97 0 0 1 3.494-3.74l1.347 1.477a30.1 30.1 0 0 0-3.275 3.505zm42-4.518a29.48 29.48 0 0 0-3.932-2.742l1.006-1.73c1.47.855 2.882 1.84 4.2 2.93zm-34.1-2.436l-1.038-1.7a31.75 31.75 0 0 1 4.575-2.295l.75 1.854a29.7 29.7 0 0 0-4.286 2.15zm24.952-2.696c-1.506-.517-3.068-.914-4.646-1.18l.335-1.973a31.49 31.49 0 0 1 4.96 1.262zm-15.15-1.08l-.376-1.964a31.47 31.47 0 0 1 5.09-.548l.05 2a29.6 29.6 0 0 0-4.766.513zm-24.026 28.078l-1.998-.067.01-.358.037-.902.123-1.313 1.987.228-.115 1.232-.032.805z" class="K"/></g></svg>