<?xml version="1.0" encoding="UTF-8" standalone="no"?>
<!-- Created with Inkscape (http://www.inkscape.org/) -->

<svg
   xmlns:dc="http://purl.org/dc/elements/1.1/"
   xmlns:cc="http://creativecommons.org/ns#"
   xmlns:rdf="http://www.w3.org/1999/02/22-rdf-syntax-ns#"
   xmlns:svg="http://www.w3.org/2000/svg"
   xmlns="http://www.w3.org/2000/svg"
   xmlns:sodipodi="http://sodipodi.sourceforge.net/DTD/sodipodi-0.dtd"
   xmlns:inkscape="http://www.inkscape.org/namespaces/inkscape"
   width="235.412mm"
   height="51.332001mm"
   viewBox="0 0 235.412 51.332001"
   version="1.1"
   id="svg8"
   inkscape:version="0.92.3 (2405546, 2018-03-11)"
   sodipodi:docname="Benefits of ERP and CRM integration.svg">
  <defs
     id="defs2" />
  <sodipodi:namedview
     id="base"
     pagecolor="#ffffff"
     bordercolor="#666666"
     borderopacity="1.0"
     inkscape:pageopacity="0.0"
     inkscape:pageshadow="2"
     inkscape:zoom="0.7"
     inkscape:cx="472.29848"
     inkscape:cy="-69.134202"
     inkscape:document-units="mm"
     inkscape:current-layer="layer1"
     showgrid="false"
     inkscape:window-width="1920"
     inkscape:window-height="1001"
     inkscape:window-x="-9"
     inkscape:window-y="-9"
     inkscape:window-maximized="1" />
  <metadata
     id="metadata5">
    <rdf:RDF>
      <cc:Work
         rdf:about="">
        <dc:format>image/svg+xml</dc:format>
        <dc:type
           rdf:resource="http://purl.org/dc/dcmitype/StillImage" />
        <dc:title></dc:title>
      </cc:Work>
    </rdf:RDF>
  </metadata>
  <g
     inkscape:label="Layer 1"
     inkscape:groupmode="layer"
     id="layer1"
     transform="translate(0,-245.668)">
    <g
       transform="matrix(0.35277777,0,0,-0.35277777,-22.948053,315.25942)"
       inkscape:label="ink_ext_XXXXXX"
       id="g1554">
      <g
         transform="scale(0.1)"
         id="g1556">
        <path
           inkscape:connector-curvature="0"
           id="path1560"
           style="fill:#484f59;fill-opacity:1;fill-rule:nonzero;stroke:none"
           d="m 6687.69,1878.33 h -30 v 94.34 h 30 v -94.34" />
        <path
           inkscape:connector-curvature="0"
           id="path1562"
           style="fill:#484f59;fill-opacity:1;fill-rule:nonzero;stroke:none"
           d="m 6485.02,1843.64 -32.26,88.64 28.18,10.25 32.27,-88.63 -28.19,-10.26" />
        <path
           inkscape:connector-curvature="0"
           id="path1564"
           style="fill:#484f59;fill-opacity:1;fill-rule:nonzero;stroke:none"
           d="m 6334.63,1751.98 -60.63,72.27 22.98,19.28 60.63,-72.27 -22.98,-19.28" />
        <path
           inkscape:connector-curvature="0"
           id="path1566"
           style="fill:#484f59;fill-opacity:1;fill-rule:nonzero;stroke:none"
           d="m 6224.66,1614.41 -81.69,47.16 15,25.98 81.69,-47.17 -15,-25.97" />
        <path
           inkscape:connector-curvature="0"
           id="path1568"
           style="fill:#484f59;fill-opacity:1;fill-rule:nonzero;stroke:none"
           d="m 6168.37,1447.53 -92.88,16.37 5.21,29.55 92.88,-16.37 -5.21,-29.55" />
        <path
           inkscape:connector-curvature="0"
           id="path1570"
           style="fill:#484f59;fill-opacity:1;fill-rule:nonzero;stroke:none"
           d="m 6079.67,1255.09 -5.21,29.55 92.89,16.37 5.2,-29.55 -92.88,-16.37" />
        <path
           inkscape:connector-curvature="0"
           id="path1572"
           style="fill:#484f59;fill-opacity:1;fill-rule:nonzero;stroke:none"
           d="m 6155.02,1060.27 -15,25.97 81.69,47.17 15,-25.98 -81.69,-47.16" />
        <path
           inkscape:connector-curvature="0"
           id="path1574"
           style="fill:#484f59;fill-opacity:1;fill-rule:nonzero;stroke:none"
           d="m 6292.47,903 -22.99,19.281 60.62,72.258 22.99,-19.269 -60.62,-72.27" />
        <path
           inkscape:connector-curvature="0"
           id="path1576"
           style="fill:#484f59;fill-opacity:1;fill-rule:nonzero;stroke:none"
           d="m 7042.5,899.211 -60.64,72.269 22.98,19.27 60.63,-72.262 -22.97,-19.277" />
        <path
           inkscape:connector-curvature="0"
           id="path1578"
           style="fill:#484f59;fill-opacity:1;fill-rule:nonzero;stroke:none"
           d="m 7181.5,1055.19 -81.7,47.15 15,25.97 81.7,-47.15 -15,-25.97" />
        <path
           inkscape:connector-curvature="0"
           id="path1580"
           style="fill:#484f59;fill-opacity:1;fill-rule:nonzero;stroke:none"
           d="m 7258.77,1249.27 -92.89,16.39 5.21,29.55 92.89,-16.39 -5.21,-29.55" />
        <path
           inkscape:connector-curvature="0"
           id="path1582"
           style="fill:#484f59;fill-opacity:1;fill-rule:nonzero;stroke:none"
           d="m 7172.12,1441.71 -5.21,29.55 92.89,16.39 5.21,-29.55 -92.89,-16.39" />
        <path
           inkscape:connector-curvature="0"
           id="path1584"
           style="fill:#484f59;fill-opacity:1;fill-rule:nonzero;stroke:none"
           d="m 7117.75,1609.31 -15,25.98 81.69,47.16 15,-25.97 -81.69,-47.17" />
        <path
           inkscape:connector-curvature="0"
           id="path1586"
           style="fill:#484f59;fill-opacity:1;fill-rule:nonzero;stroke:none"
           d="m 7009.36,1748.2 -22.99,19.27 60.63,72.27 22.98,-19.28 -60.62,-72.26" />
        <path
           inkscape:connector-curvature="0"
           id="path1588"
           style="fill:#484f59;fill-opacity:1;fill-rule:nonzero;stroke:none"
           d="m 6860,1841.61 -28.2,10.26 32.26,88.65 28.19,-10.25 -32.25,-88.66" />
        <path
           inkscape:connector-curvature="0"
           id="path1590"
           style="fill:#cdd5d7;fill-opacity:1;fill-rule:nonzero;stroke:none"
           d="m 3218.9,592.789 c -35.86,0 -65.07,29.18 -65.07,65.051 v 1136.39 c 0,35.9 29.21,65.08 65.07,65.08 h 1764.62 c 35.89,0 65.08,-29.18 65.08,-65.08 V 657.84 c 0,-35.871 -29.19,-65.051 -65.08,-65.051 H 3218.9" />
        <path
           inkscape:connector-curvature="0"
           id="path1592"
           style="fill:#484f59;fill-opacity:1;fill-rule:nonzero;stroke:none"
           d="m 3218.9,1844.31 c -27.61,0 -50.07,-22.46 -50.07,-50.08 V 657.84 c 0,-27.59 22.46,-50.051 50.07,-50.051 h 1764.62 c 27.61,0 50.08,22.461 50.08,50.051 v 1136.39 c 0,27.62 -22.47,50.08 -50.08,50.08 z M 4983.52,577.789 H 3218.9 c -44.15,0 -80.07,35.91 -80.07,80.051 v 1136.39 c 0,44.16 35.92,80.08 80.07,80.08 h 1764.62 c 44.16,0 80.08,-35.92 80.08,-80.08 V 657.84 c 0,-44.141 -35.92,-80.051 -80.08,-80.051" />
        <path
           inkscape:connector-curvature="0"
           id="path1594"
           style="fill:#88d8fb;fill-opacity:1;fill-rule:nonzero;stroke:none"
           d="M 3267.25,771.031 V 1753.59 H 4935.2 V 771.031 H 3267.25" />
        <path
           inkscape:connector-curvature="0"
           id="path1596"
           style="fill:#484f59;fill-opacity:1;fill-rule:nonzero;stroke:none"
           d="M 4950.2,1768.59 H 3252.25 V 756.031 H 4950.2 Z m -30,-30 V 786.031 H 3282.25 V 1738.59 H 4920.2" />
        <path
           inkscape:connector-curvature="0"
           id="path1598"
           style="fill:#f6fafb;fill-opacity:1;fill-rule:nonzero;stroke:none"
           d="M 5365.89,591.672 H 2836.52 v 73.988 h 2529.37 v -73.988" />
        <path
           inkscape:connector-curvature="0"
           id="path1600"
           style="fill:#484f59;fill-opacity:1;fill-rule:nonzero;stroke:none"
           d="M 2851.52,606.672 H 5350.89 V 650.66 H 2851.52 Z m 2514.37,-30 H 2836.52 c -8.29,0 -15,6.719 -15,15 v 73.988 c 0,8.281 6.71,15 15,15 h 2529.37 c 8.29,0 15,-6.719 15,-15 v -73.988 c 0,-8.281 -6.71,-15 -15,-15" />
        <path
           inkscape:connector-curvature="0"
           id="path1602"
           style="fill:#e5e8ec;fill-opacity:1;fill-rule:nonzero;stroke:none"
           d="m 2840.22,591.672 c 29.89,-31.641 84.9,-44.082 122.84,-44.082 h 2276.28 c 37.95,0 92.97,12.441 122.85,44.082 H 2840.22" />
        <path
           inkscape:connector-curvature="0"
           id="path1604"
           style="fill:none;stroke:#484f59;stroke-width:30;stroke-linecap:butt;stroke-linejoin:round;stroke-miterlimit:10;stroke-dasharray:none;stroke-opacity:1"
           d="m 2840.22,591.672 c 29.89,-31.641 84.9,-44.082 122.84,-44.082 h 2276.28 c 37.95,0 92.97,12.441 122.85,44.082 z" />
        <path
           inkscape:connector-curvature="0"
           id="path1606"
           style="fill:#e5e8ec;fill-opacity:1;fill-rule:nonzero;stroke:none"
           d="m 3929.41,665.66 v -7.93 c 0,-14.609 11.83,-26.449 26.42,-26.449 h 290.77 c 14.6,0 26.43,11.84 26.43,26.449 v 7.93 h -343.62" />
        <path
           inkscape:connector-curvature="0"
           id="path1608"
           style="fill:none;stroke:#484f59;stroke-width:30;stroke-linecap:butt;stroke-linejoin:round;stroke-miterlimit:10;stroke-dasharray:none;stroke-opacity:1"
           d="m 3929.41,665.66 v -7.93 c 0,-14.609 11.83,-26.449 26.42,-26.449 h 290.77 c 14.6,0 26.43,11.84 26.43,26.449 v 7.93 z" />
        <path
           inkscape:connector-curvature="0"
           id="path1610"
           style="fill:#484f59;fill-opacity:1;fill-rule:nonzero;stroke:none"
           d="m 3596.21,866.398 h 30 v 30 h -30 z m 60,-30 h -90 v 90 h 90 v -90" />
        <path
           inkscape:connector-curvature="0"
           id="path1612"
           style="fill:#484f59;fill-opacity:1;fill-rule:nonzero;stroke:none"
           d="m 3718.71,866.398 h 30 v 30 h -30 z m 60,-30 h -90 v 90 h 90 v -90" />
        <path
           inkscape:connector-curvature="0"
           id="path1614"
           style="fill:#484f59;fill-opacity:1;fill-rule:nonzero;stroke:none"
           d="m 3841.21,866.398 h 30 v 30 h -30 z m 60,-30 h -90 v 90 h 90 v -90" />
        <path
           inkscape:connector-curvature="0"
           id="path1616"
           style="fill:#484f59;fill-opacity:1;fill-rule:nonzero;stroke:none"
           d="m 3963.71,866.398 h 30 v 30 h -30 z m 60,-30 h -90 v 90 h 90 v -90" />
        <path
           inkscape:connector-curvature="0"
           id="path1618"
           style="fill:#484f59;fill-opacity:1;fill-rule:nonzero;stroke:none"
           d="m 4086.21,866.398 h 30 v 30 h -30 z m 60,-30 h -90 v 90 h 90 v -90" />
        <path
           inkscape:connector-curvature="0"
           id="path1620"
           style="fill:#484f59;fill-opacity:1;fill-rule:nonzero;stroke:none"
           d="m 4208.71,866.398 h 30 v 30 h -30 z m 60,-30 h -90 v 90 h 90 v -90" />
        <path
           inkscape:connector-curvature="0"
           id="path1622"
           style="fill:#484f59;fill-opacity:1;fill-rule:nonzero;stroke:none"
           d="m 4331.21,866.398 h 30 v 30 h -30 z m 60,-30 h -90 v 90 h 90 v -90" />
        <path
           inkscape:connector-curvature="0"
           id="path1624"
           style="fill:#484f59;fill-opacity:1;fill-rule:nonzero;stroke:none"
           d="m 4453.71,866.398 h 30 v 30 h -30 z m 60,-30 h -90 v 90 h 90 v -90" />
        <path
           inkscape:connector-curvature="0"
           id="path1626"
           style="fill:#484f59;fill-opacity:1;fill-rule:nonzero;stroke:none"
           d="m 4576.21,866.398 h 30 v 30 h -30 z m 60,-30 h -90 v 90 h 90 v -90" />
        <path
           inkscape:connector-curvature="0"
           id="path1628"
           style="fill:#ffc400;fill-opacity:1;fill-rule:nonzero;stroke:none"
           d="m 6825.4,791.59 v 55.789 c 0,14.57 -9.92,26.5 -22,26.5 h -267.32 c -12.09,0 -21.95,-11.93 -21.95,-26.5 V 791.59 h 311.27" />
        <path
           inkscape:connector-curvature="0"
           id="path1630"
           style="fill:#484f59;fill-opacity:1;fill-rule:nonzero;stroke:none"
           d="m 6529.13,806.59 h 281.27 v 40.789 c 0,7.012 -4.14,11.5 -7,11.5 h -267.32 c -2.83,0 -6.95,-4.488 -6.95,-11.5 z m 311.27,-30 h -341.27 v 70.789 c 0,22.871 16.58,41.5 36.95,41.5 h 267.32 c 20.4,0 37,-18.629 37,-41.5 V 776.59" />
        <path
           inkscape:connector-curvature="0"
           id="path1632"
           style="fill:#ffc400;fill-opacity:1;fill-rule:nonzero;stroke:none"
           d="M 6882.79,1512.69 H 6456.7 c -11.57,-37.83 -17.87,-78.03 -17.87,-119.75 0,-149.26 79.71,-279.37 197.93,-348.71 V 894.68 h 65.99 v 149.55 c 118.23,69.34 197.89,199.45 197.89,348.71 0,41.72 -6.28,81.92 -17.85,119.75" />
        <path
           inkscape:connector-curvature="0"
           id="path1634"
           style="fill:#ffdc69;fill-opacity:1;fill-rule:nonzero;stroke:none"
           d="m 6845.33,1417.57 c 0,33.32 -3.81,65.33 -10.77,95.12 h -359.51 c -6.97,-29.79 -10.79,-61.8 -10.79,-95.12 0,-158.36 85.32,-286.72 190.53,-286.72 105.25,0 190.54,128.36 190.54,286.72" />
        <path
           inkscape:connector-curvature="0"
           id="path1636"
           style="fill:#484f59;fill-opacity:1;fill-rule:nonzero;stroke:none"
           d="m 6508.95,1274.64 c -10.39,36.39 -15.65,74.2 -15.65,112.4 0,41.41 6.24,82.42 18.55,121.96 l 28.64,-8.93 c -11.41,-36.64 -17.19,-74.65 -17.19,-113.03 0,-35.43 4.87,-70.46 14.49,-104.16 l -28.84,-8.24" />
        <path
           inkscape:connector-curvature="0"
           id="path1638"
           style="fill:#484f59;fill-opacity:1;fill-rule:nonzero;stroke:none"
           d="m 6651.76,897.898 h 35.99 v 154.932 l 7.41,4.35 c 117.5,68.89 190.48,197.54 190.48,335.76 0,35.51 -4.74,70.7 -14.11,104.75 h -403.57 c -9.38,-34.06 -14.13,-69.24 -14.13,-104.75 0,-138.18 73,-266.85 190.52,-335.76 l 7.41,-4.35 z m 65.99,-30 h -95.99 v 167.852 c -122.31,75.28 -197.93,211.33 -197.93,357.19 0,42.19 6.23,83.95 18.53,124.14 l 3.25,10.61 h 448.28 l 3.24,-10.61 c 12.29,-40.19 18.51,-81.95 18.51,-124.14 0,-145.9 -75.6,-281.93 -197.89,-357.19 V 867.898" />
        <path
           inkscape:connector-curvature="0"
           id="path1640"
           style="fill:#484f59;fill-opacity:1;fill-rule:nonzero;stroke:none"
           d="m 6806.91,1117.94 c -6.23,0 -12.05,3.91 -14.19,10.14 -2.69,7.83 1.48,16.37 9.32,19.06 123.59,42.46 208.72,164.9 215.4,307.5 h -123.75 c -8.29,0 -15,6.72 -15,15 0,8.28 6.71,15 15,15 h 154.27 l -0.11,-15.12 c -1.24,-161.71 -96.11,-302.67 -236.07,-350.76 -1.61,-0.54 -3.25,-0.82 -4.87,-0.82" />
        <path
           inkscape:connector-curvature="0"
           id="path1642"
           style="fill:#484f59;fill-opacity:1;fill-rule:nonzero;stroke:none"
           d="m 6532.62,1117.92 c -1.62,0 -3.26,0.28 -4.87,0.82 -139.96,48.05 -234.85,189.01 -236.14,350.76 l -0.12,15.12 h 154.3 c 8.28,0 15,-6.72 15,-15 0,-8.28 -6.72,-15 -15,-15 h -123.76 c 6.71,-142.63 91.87,-265.08 215.46,-307.5 7.83,-2.69 12,-11.23 9.31,-19.06 -2.13,-6.23 -7.95,-10.14 -14.18,-10.14" />
        <path
           inkscape:connector-curvature="0"
           id="path1644"
           style="fill:#e5e8ec;fill-opacity:1;fill-rule:nonzero;stroke:none"
           d="m 6911.96,539.371 h -484.43 v 65.449 h 484.43 v -65.449" />
        <path
           inkscape:connector-curvature="0"
           id="path1646"
           style="fill:#cdd5d7;fill-opacity:1;fill-rule:nonzero;stroke:none"
           d="M 6894.24,604.82 V 816.148 H 6445.26 V 604.82 h 448.98" />
        <path
           inkscape:connector-curvature="0"
           id="path1648"
           style="fill:#e5e8ec;fill-opacity:1;fill-rule:nonzero;stroke:none"
           d="m 6509.75,668.898 v 82.75 h 320 v -82.75 h -320" />
        <path
           inkscape:connector-curvature="0"
           id="path1650"
           style="fill:#484f59;fill-opacity:1;fill-rule:nonzero;stroke:none"
           d="m 6524.75,683.898 h 290 v 52.75 h -290 z m 320,-30 h -350 v 112.75 h 350 v -112.75" />
        <path
           inkscape:connector-curvature="0"
           id="path1652"
           style="fill:#484f59;fill-opacity:1;fill-rule:nonzero;stroke:none"
           d="m 6442.53,554.371 h 454.43 v 35.449 h -454.43 z m 484.43,-30 h -514.43 v 95.449 h 514.43 v -95.449" />
        <path
           inkscape:connector-curvature="0"
           id="path1654"
           style="fill:#484f59;fill-opacity:1;fill-rule:nonzero;stroke:none"
           d="m 6460.26,619.82 h 418.98 v 181.328 h -418.98 z m 448.98,-30 h -478.98 v 241.328 h 478.98 V 589.82" />
        <path
           inkscape:connector-curvature="0"
           id="path1656"
           style="fill:#484f59;fill-opacity:1;fill-rule:nonzero;stroke:none"
           d="m 1663.34,782.59 h -260 v 30 h 260 v -30" />
        <path
           inkscape:connector-curvature="0"
           id="path1658"
           style="fill:#484f59;fill-opacity:1;fill-rule:nonzero;stroke:none"
           d="M 6041.56,532.59 H 5804.9 v 30 h 236.66 v -30" />
        <path
           inkscape:connector-curvature="0"
           id="path1660"
           style="fill:#484f59;fill-opacity:1;fill-rule:nonzero;stroke:none"
           d="M 6381.56,532.59 H 6224.9 v 30 h 156.66 v -30" />
        <path
           inkscape:connector-curvature="0"
           id="path1662"
           style="fill:#484f59;fill-opacity:1;fill-rule:nonzero;stroke:none"
           d="M 7201.56,532.59 H 6964.9 v 30 h 236.66 v -30" />
        <path
           inkscape:connector-curvature="0"
           id="path1664"
           style="fill:#484f59;fill-opacity:1;fill-rule:nonzero;stroke:none"
           d="m 7323.58,532.59 h -74.03 v 30 h 74.03 v -30" />
        <path
           inkscape:connector-curvature="0"
           id="path1666"
           style="fill:#484f59;fill-opacity:1;fill-rule:nonzero;stroke:none"
           d="m 6191.67,532.59 h -100.21 v 30 h 100.21 v -30" />
        <path
           inkscape:connector-curvature="0"
           id="path1668"
           style="fill:#484f59;fill-opacity:1;fill-rule:nonzero;stroke:none"
           d="m 2238.6,532.59 h -117.18 v 30 h 117.18 v -30" />
        <path
           inkscape:connector-curvature="0"
           id="path1670"
           style="fill:#484f59;fill-opacity:1;fill-rule:nonzero;stroke:none"
           d="M 2652.66,532.59 H 2350 v 30 h 302.66 v -30" />
        <path
           inkscape:connector-curvature="0"
           id="path1672"
           style="fill:#e5e8ec;fill-opacity:1;fill-rule:nonzero;stroke:none"
           d="m 2095.24,1817.61 c 0,-23.75 19.25,-42.99 42.99,-42.99 23.74,0 43,19.24 43,42.99 0,23.75 -19.26,43.01 -43,43.01 -23.74,0 -42.99,-19.26 -42.99,-43.01" />
        <path
           inkscape:connector-curvature="0"
           id="path1674"
           style="fill:#484f59;fill-opacity:1;fill-rule:nonzero;stroke:none"
           d="m 2138.23,1845.62 c -15.44,0 -27.99,-12.56 -27.99,-28.01 0,-15.43 12.55,-27.99 27.99,-27.99 15.44,0 28,12.56 28,27.99 0,15.45 -12.56,28.01 -28,28.01 z m 0,-86 c -31.98,0 -57.99,26.02 -57.99,57.99 0,31.99 26.01,58.01 57.99,58.01 31.98,0 58,-26.02 58,-58.01 0,-31.97 -26.02,-57.99 -58,-57.99" />
        <path
           inkscape:connector-curvature="0"
           id="path1676"
           style="fill:#484f59;fill-opacity:1;fill-rule:nonzero;stroke:none"
           d="m 1190.58,1650.27 -21.22,21.21 77.96,77.97 21.22,-21.22 -77.96,-77.96" />
        <path
           inkscape:connector-curvature="0"
           id="path1678"
           style="fill:#484f59;fill-opacity:1;fill-rule:nonzero;stroke:none"
           d="m 1247.35,1650.27 -77.99,77.98 21.21,21.21 78,-77.98 -21.22,-21.21" />
        <path
           inkscape:connector-curvature="0"
           id="path1680"
           style="fill:#484f59;fill-opacity:1;fill-rule:nonzero;stroke:none"
           d="m 2249.33,1496.22 h -182.76 v 30 h 182.76 v -30" />
        <path
           inkscape:connector-curvature="0"
           id="path1682"
           style="fill:#484f59;fill-opacity:1;fill-rule:nonzero;stroke:none"
           d="m 2031.76,1496.22 h -60.92 v 30 h 60.92 v -30" />
        <path
           inkscape:connector-curvature="0"
           id="path1684"
           style="fill:#484f59;fill-opacity:1;fill-rule:nonzero;stroke:none"
           d="m 5714.46,1651.2 h -137.48 v 30 h 137.48 v -30" />
        <path
           inkscape:connector-curvature="0"
           id="path1686"
           style="fill:#484f59;fill-opacity:1;fill-rule:nonzero;stroke:none"
           d="m 5540.8,1651.2 h -45.83 v 30 h 45.83 v -30" />
        <path
           inkscape:connector-curvature="0"
           id="path1688"
           style="fill:#484f59;fill-opacity:1;fill-rule:nonzero;stroke:none"
           d="m 5859.33,1727.32 h -15 v 30 h 15 v -30" />
        <path
           inkscape:connector-curvature="0"
           id="path1690"
           style="fill:#484f59;fill-opacity:1;fill-rule:nonzero;stroke:none"
           d="m 5633.53,1727.32 h -30.11 v 30 h 30.11 z m 60.23,0 h -30.11 v 30 h 30.11 z m 60.23,0 h -30.12 v 30 h 30.12 z m 60.22,0 h -30.11 v 30 h 30.11 v -30" />
        <path
           inkscape:connector-curvature="0"
           id="path1692"
           style="fill:#484f59;fill-opacity:1;fill-rule:nonzero;stroke:none"
           d="m 5573.31,1727.32 h -15 v 30 h 15 v -30" />
        <path
           inkscape:connector-curvature="0"
           id="path1694"
           style="fill:#484f59;fill-opacity:1;fill-rule:nonzero;stroke:none"
           d="m 979.324,1567.32 h -15 v 30 h 15 v -30" />
        <path
           inkscape:connector-curvature="0"
           id="path1696"
           style="fill:#484f59;fill-opacity:1;fill-rule:nonzero;stroke:none"
           d="m 753.535,1567.32 h -30.113 v 30 h 30.113 z m 60.227,0 h -30.114 v 30 h 30.114 z m 60.226,0 h -30.117 v 30 h 30.117 z m 60.227,0 h -30.113 v 30 h 30.113 v -30" />
        <path
           inkscape:connector-curvature="0"
           id="path1698"
           style="fill:#484f59;fill-opacity:1;fill-rule:nonzero;stroke:none"
           d="m 693.305,1567.32 h -15 v 30 h 15 v -30" />
        <path
           inkscape:connector-curvature="0"
           id="path1700"
           style="fill:#484f59;fill-opacity:1;fill-rule:nonzero;stroke:none"
           d="m 1179.33,647.32 h -15 v 30 h 15 v -30" />
        <path
           inkscape:connector-curvature="0"
           id="path1702"
           style="fill:#484f59;fill-opacity:1;fill-rule:nonzero;stroke:none"
           d="m 953.535,647.32 h -30.113 v 30 h 30.113 z m 60.225,0 h -30.112 v 30 h 30.112 z m 60.23,0 h -30.12 v 30 h 30.12 z m 60.22,0 h -30.11 v 30 h 30.11 v -30" />
        <path
           inkscape:connector-curvature="0"
           id="path1704"
           style="fill:#484f59;fill-opacity:1;fill-rule:nonzero;stroke:none"
           d="m 893.305,647.32 h -15 v 30 h 15 v -30" />
        <path
           inkscape:connector-curvature="0"
           id="path1706"
           style="fill:#484f59;fill-opacity:1;fill-rule:nonzero;stroke:none"
           d="M 6104.61,801.77 H 5804.9 v 30 h 299.71 v -30" />
        <path
           inkscape:connector-curvature="0"
           id="path1708"
           style="fill:#484f59;fill-opacity:1;fill-rule:nonzero;stroke:none"
           d="m 6055.22,733.391 -21.21,21.211 63.28,63.277 -63.28,63.281 21.21,21.219 84.5,-84.5 -84.5,-84.488" />
        <path
           inkscape:connector-curvature="0"
           id="path1710"
           style="fill:#484f59;fill-opacity:1;fill-rule:nonzero;stroke:none"
           d="m 1899.34,1114.82 h -180.4 v 30 h 180.4 v -30" />
        <path
           inkscape:connector-curvature="0"
           id="path1712"
           style="fill:#484f59;fill-opacity:1;fill-rule:nonzero;stroke:none"
           d="m 1828.74,1054.82 h -109.8 v 30 h 109.8 v -30" />
        <path
           inkscape:connector-curvature="0"
           id="path1714"
           style="fill:#484f59;fill-opacity:1;fill-rule:nonzero;stroke:none"
           d="m 1290.69,1308.16 h -180.4 v 30 h 180.4 v -30" />
        <path
           inkscape:connector-curvature="0"
           id="path1716"
           style="fill:#484f59;fill-opacity:1;fill-rule:nonzero;stroke:none"
           d="M 1120.71,1684.86 H 788.258 v 30 h 332.452 v -30" />
        <path
           inkscape:connector-curvature="0"
           id="path1718"
           style="fill:#484f59;fill-opacity:1;fill-rule:nonzero;stroke:none"
           d="m 933.484,1323.16 44.786,-44.79 44.78,44.77 -44.784,44.8 z m 44.782,-87.21 -87.207,87.21 87.211,87.2 87.21,-87.22 -87.214,-87.19" />
        <path
           inkscape:connector-curvature="0"
           id="path1720"
           style="fill:#ffffff;fill-opacity:1;fill-rule:nonzero;stroke:none"
           d="m 1632.05,968.199 h -341.12 v 196.481 h 341.12 V 968.199" />
        <path
           inkscape:connector-curvature="0"
           id="path1722"
           style="fill:#484f59;fill-opacity:1;fill-rule:nonzero;stroke:none"
           d="m 1305.93,983.199 h 311.12 v 166.481 h -311.12 z m 326.12,-30 h -341.12 c -8.29,0 -15,6.711 -15,15 v 196.481 c 0,8.28 6.71,15 15,15 h 341.12 c 8.28,0 15,-6.72 15,-15 V 968.199 c 0,-8.289 -6.72,-15 -15,-15" />
        <path
           inkscape:connector-curvature="0"
           id="path1724"
           style="fill:#ffffff;fill-opacity:1;fill-rule:nonzero;stroke:none"
           d="m 1631.81,1164.88 h -153.73 c -4.6,0 -10.67,0 -16.73,0 -6.06,0 -12.12,0 -16.72,0 h -137.03 -16.72 l 42.62,-36.37 29.9,-25.49 c 3.49,-2.97 8.11,-6.91 12.72,-10.86 l 39.79,-33.94 32.72,-27.89 c 6.99,-5.96 18.44,-5.96 25.44,0 l 32.72,27.89 39.79,33.94 c 4.63,3.95 9.23,7.89 12.73,10.86 l 29.89,25.49 42.61,36.37" />
        <path
           inkscape:connector-curvature="0"
           id="path1726"
           style="fill:#484f59;fill-opacity:1;fill-rule:nonzero;stroke:none"
           d="m 1331.57,1149.88 126.79,-108.13 c 1.29,-1.13 4.69,-1.09 5.99,0 l 126.78,108.13 z m 129.77,-139.03 c -8.38,0 -16.35,2.87 -22.45,8.07 l -157.75,134.55 c -4.78,4.08 -6.51,10.7 -4.34,16.6 2.18,5.9 7.8,9.81 14.08,9.81 h 340.93 c 6.28,0 11.9,-3.91 14.07,-9.81 2.17,-5.9 0.44,-12.52 -4.33,-16.6 L 1483.8,1018.92 c -6.1,-5.2 -14.08,-8.07 -22.46,-8.07" />
        <path
           inkscape:connector-curvature="0"
           id="path1728"
           style="fill:#ffffff;fill-opacity:1;fill-rule:nonzero;stroke:none"
           d="m 1292.21,969.559 113.55,98.051 -113.55,-98.051" />
        <path
           inkscape:connector-curvature="0"
           id="path1730"
           style="fill:#484f59;fill-opacity:1;fill-rule:nonzero;stroke:none"
           d="m 1302.02,958.219 -19.61,22.711 113.54,98.05 19.61,-22.72 -113.54,-98.041" />
        <path
           inkscape:connector-curvature="0"
           id="path1732"
           style="fill:#ffffff;fill-opacity:1;fill-rule:nonzero;stroke:none"
           d="m 1631.78,969.559 -113.55,98.051 113.55,-98.051" />
        <path
           inkscape:connector-curvature="0"
           id="path1734"
           style="fill:#484f59;fill-opacity:1;fill-rule:nonzero;stroke:none"
           d="m 1621.98,958.219 -113.55,98.041 19.61,22.72 113.55,-98.05 -19.61,-22.711" />
        <path
           inkscape:connector-curvature="0"
           id="path1736"
           style="fill:#ffffff;fill-opacity:1;fill-rule:nonzero;stroke:none"
           d="m 4341.58,988.66 h -985 v 685 h 985 v -685" />
        <path
           inkscape:connector-curvature="0"
           id="path1738"
           style="fill:#484f59;fill-opacity:1;fill-rule:nonzero;stroke:none"
           d="m 3371.58,1003.66 h 955 v 655 h -955 z m 985,-30 h -1015 v 715 h 1015 v -715" />
        <path
           inkscape:connector-curvature="0"
           id="path1740"
           style="fill:#cdd5d7;fill-opacity:1;fill-rule:nonzero;stroke:none"
           d="m 4341.58,1578.66 h -985 v 95 h 985 v -95" />
        <path
           inkscape:connector-curvature="0"
           id="path1742"
           style="fill:#484f59;fill-opacity:1;fill-rule:nonzero;stroke:none"
           d="m 3371.58,1593.66 h 955 v 65 h -955 z m 985,-30 h -1015 v 125 h 1015 v -125" />
        <path
           inkscape:connector-curvature="0"
           id="path1744"
           style="fill:#484f59;fill-opacity:1;fill-rule:nonzero;stroke:none"
           d="m 3422.49,1612 h -30.91 v 30 h 30.91 v -30" />
        <path
           inkscape:connector-curvature="0"
           id="path1746"
           style="fill:#484f59;fill-opacity:1;fill-rule:nonzero;stroke:none"
           d="m 3476,1612 h -30.91 v 30 H 3476 v -30" />
        <path
           inkscape:connector-curvature="0"
           id="path1748"
           style="fill:#484f59;fill-opacity:1;fill-rule:nonzero;stroke:none"
           d="m 3529.5,1612 h -30.92 v 30 h 30.92 v -30" />
        <path
           inkscape:connector-curvature="0"
           id="path1750"
           style="fill:#ffc400;fill-opacity:1;fill-rule:nonzero;stroke:none"
           d="m 3603.23,1331.36 -235,-222.5 -15,-117.501 h 250 v 340.001" />
        <path
           inkscape:connector-curvature="0"
           id="path1752"
           style="fill:#ffc400;fill-opacity:1;fill-rule:nonzero;stroke:none"
           d="m 4350.73,1411.36 -422.5,-215 -2.5,-202.501 h 417.5 l 7.5,417.501" />
        <path
           inkscape:connector-curvature="0"
           id="path1754"
           style="fill:#ffdc69;fill-opacity:1;fill-rule:nonzero;stroke:none"
           d="m 3605.73,1331.36 320,-132.5 2.27,-205.001 h -315.47 l -6.8,337.501" />
        <path
           inkscape:connector-curvature="0"
           id="path1756"
           style="fill:#484f59;fill-opacity:1;fill-rule:nonzero;stroke:none"
           d="m 3615.73,981.359 h -30 v 350.001 h 30 V 981.359" />
        <path
           inkscape:connector-curvature="0"
           id="path1758"
           style="fill:#484f59;fill-opacity:1;fill-rule:nonzero;stroke:none"
           d="m 3940.73,986.359 h -30 v 210.001 h 30 V 986.359" />
        <path
           inkscape:connector-curvature="0"
           id="path1760"
           style="fill:#484f59;fill-opacity:1;fill-rule:nonzero;stroke:none"
           d="m 3371.12,1090.54 -20.77,21.66 252.18,241.88 327.53,-141.1 398.64,211.64 14.07,-26.5 -411.36,-218.38 -322.47,138.91 -237.82,-228.11" />
        <path
           inkscape:connector-curvature="0"
           id="path1762"
           style="fill:#484f59;fill-opacity:1;fill-rule:nonzero;stroke:none"
           d="m 3371.58,1003.66 h 955 v 655 h -955 z m 985,-30 h -1015 v 715 h 1015 v -715" />
        <path
           inkscape:connector-curvature="0"
           id="path1764"
           style="fill:#cdd5d7;fill-opacity:1;fill-rule:nonzero;stroke:none"
           d="m 3410.73,1101.36 c 0,-27.62 -22.39,-50 -50,-50 -27.61,0 -50,22.38 -50,50 0,27.62 22.39,50 50,50 27.61,0 50,-22.38 50,-50" />
        <path
           inkscape:connector-curvature="0"
           id="path1766"
           style="fill:#484f59;fill-opacity:1;fill-rule:nonzero;stroke:none"
           d="m 3360.73,1136.36 c -19.3,0 -35,-15.7 -35,-35 0,-19.3 15.7,-35 35,-35 19.3,0 35,15.7 35,35 0,19.3 -15.7,35 -35,35 z m 0,-100 c -35.84,0 -65,29.16 -65,65 0,35.84 29.16,65 65,65 35.84,0 65,-29.16 65,-65 0,-35.84 -29.16,-65 -65,-65" />
        <path
           inkscape:connector-curvature="0"
           id="path1768"
           style="fill:#cdd5d7;fill-opacity:1;fill-rule:nonzero;stroke:none"
           d="m 3655.73,1336.36 c 0,-27.62 -22.39,-50 -50,-50 -27.61,0 -50,22.38 -50,50 0,27.62 22.39,50 50,50 27.61,0 50,-22.38 50,-50" />
        <path
           inkscape:connector-curvature="0"
           id="path1770"
           style="fill:#484f59;fill-opacity:1;fill-rule:nonzero;stroke:none"
           d="m 3605.73,1371.36 c -19.3,0 -35,-15.7 -35,-35 0,-19.3 15.7,-35 35,-35 19.3,0 35,15.7 35,35 0,19.3 -15.7,35 -35,35 z m 0,-100 c -35.84,0 -65,29.16 -65,65 0,35.84 29.16,65 65,65 35.84,0 65,-29.16 65,-65 0,-35.84 -29.16,-65 -65,-65" />
        <path
           inkscape:connector-curvature="0"
           id="path1772"
           style="fill:#cdd5d7;fill-opacity:1;fill-rule:nonzero;stroke:none"
           d="m 3980.73,1196.36 c 0,-27.62 -22.39,-50 -50,-50 -27.61,0 -50,22.38 -50,50 0,27.62 22.39,50 50,50 27.61,0 50,-22.38 50,-50" />
        <path
           inkscape:connector-curvature="0"
           id="path1774"
           style="fill:#484f59;fill-opacity:1;fill-rule:nonzero;stroke:none"
           d="m 3930.73,1231.36 c -19.3,0 -35,-15.7 -35,-35 0,-19.3 15.7,-35 35,-35 19.3,0 35,15.7 35,35 0,19.3 -15.7,35 -35,35 z m 0,-100 c -35.84,0 -65,29.16 -65,65 0,35.84 29.16,65 65,65 35.84,0 65,-29.16 65,-65 0,-35.84 -29.16,-65 -65,-65" />
        <path
           inkscape:connector-curvature="0"
           id="path1776"
           style="fill:#cdd5d7;fill-opacity:1;fill-rule:nonzero;stroke:none"
           d="m 4385.73,1406.36 c 0,-27.62 -22.39,-50 -50,-50 -27.61,0 -50,22.38 -50,50 0,27.62 22.39,50 50,50 27.61,0 50,-22.38 50,-50" />
        <path
           inkscape:connector-curvature="0"
           id="path1778"
           style="fill:#484f59;fill-opacity:1;fill-rule:nonzero;stroke:none"
           d="m 4335.73,1441.36 c -19.3,0 -35,-15.7 -35,-35 0,-19.3 15.7,-35 35,-35 19.3,0 35,15.7 35,35 0,19.3 -15.7,35 -35,35 z m 0,-100 c -35.84,0 -65,29.16 -65,65 0,35.84 29.16,65 65,65 35.84,0 65,-29.16 65,-65 0,-35.84 -29.16,-65 -65,-65" />
        <path
           inkscape:connector-curvature="0"
           id="path1780"
           style="fill:#484f59;fill-opacity:1;fill-rule:nonzero;stroke:none"
           d="m 3620.73,1471.36 h -200 v 30 h 200 v -30" />
        <path
           inkscape:connector-curvature="0"
           id="path1782"
           style="fill:#484f59;fill-opacity:1;fill-rule:nonzero;stroke:none"
           d="m 3505.73,1406.36 h -85 v 30 h 85 v -30" />
        <path
           inkscape:connector-curvature="0"
           id="path1784"
           style="fill:#ffc400;fill-opacity:1;fill-rule:nonzero;stroke:none"
           d="m 4597.12,1457 h 533.41 v -341.62 h -352.97 l -90.61,-90.62 v 90.62 h -89.83 V 1457" />
        <path
           inkscape:connector-curvature="0"
           id="path1786"
           style="fill:#484f59;fill-opacity:1;fill-rule:nonzero;stroke:none"
           d="m 4612.12,1130.38 h 89.83 v -69.39 l 69.4,69.39 h 344.18 V 1442 h -503.41 z m 59.83,-141.829 v 111.829 h -89.83 V 1472 h 563.41 V 1100.38 H 4783.78 L 4671.95,988.551" />
        <path
           inkscape:connector-curvature="0"
           id="path1788"
           style="fill:#ffffff;fill-opacity:1;fill-rule:nonzero;stroke:none"
           d="M 5428.23,1752.53 H 4763.59 V 1280.5 h 415.32 l 125.21,-125.21 v 125.21 h 124.11 v 472.03" />
        <path
           inkscape:connector-curvature="0"
           id="path1790"
           style="fill:#484f59;fill-opacity:1;fill-rule:nonzero;stroke:none"
           d="m 4778.59,1295.5 h 406.53 l 104,-104 v 104 h 124.11 v 442.03 h -634.64 z m 540.53,-176.42 -146.42,146.42 h -424.11 v 502.03 h 694.64 V 1265.5 h -124.11 v -146.42" />
        <path
           inkscape:connector-curvature="0"
           id="path1792"
           style="fill:#bae5f8;fill-opacity:1;fill-rule:nonzero;stroke:none"
           d="m 4883.97,1601.69 h 423.87 -423.87" />
        <path
           inkscape:connector-curvature="0"
           id="path1794"
           style="fill:#484f59;fill-opacity:1;fill-rule:nonzero;stroke:none"
           d="m 5307.84,1586.69 h -423.87 v 30 h 423.87 v -30" />
        <path
           inkscape:connector-curvature="0"
           id="path1796"
           style="fill:#bae5f8;fill-opacity:1;fill-rule:nonzero;stroke:none"
           d="m 4883.97,1509.02 h 423.87 -423.87" />
        <path
           inkscape:connector-curvature="0"
           id="path1798"
           style="fill:#484f59;fill-opacity:1;fill-rule:nonzero;stroke:none"
           d="m 5307.84,1494.02 h -423.87 v 30 h 423.87 v -30" />
        <path
           inkscape:connector-curvature="0"
           id="path1800"
           style="fill:#bae5f8;fill-opacity:1;fill-rule:nonzero;stroke:none"
           d="m 4883.97,1416.4 h 423.87 -423.87" />
        <path
           inkscape:connector-curvature="0"
           id="path1802"
           style="fill:#484f59;fill-opacity:1;fill-rule:nonzero;stroke:none"
           d="m 5307.84,1401.4 h -423.87 v 30 h 423.87 v -30" />
        <path
           inkscape:connector-curvature="0"
           id="path1804"
           style="fill:#ffffff;fill-opacity:1;fill-rule:nonzero;stroke:none"
           d="m 2206.92,1112.02 c -40,0 -72.43,32.43 -72.43,72.43 0,40.02 32.43,72.42 72.43,72.42 40,0 72.45,-32.4 72.45,-72.42 0,-40 -32.45,-72.43 -72.45,-72.43 z m 148.71,161.08 c -38.78,38.81 -90.19,60.08 -144.9,60.06 -54.7,0 -106.24,-21.43 -145,-60.35 -38.57,-38.75 -59.8,-90.08 -59.8,-144.59 -0.01,-55.63 22.32,-106.06 58.42,-143.009 0,15.449 0,33.319 0,58.979 0.03,20.18 15.91,43.64 36.06,49.79 69.47,20.74 143.55,20.74 213.03,0 20.18,-6.15 36.03,-29.57 36.05,-49.79 0,-29.8 0,-49.081 0,-66.249 2.16,1.969 4.42,3.809 6.5,5.899 38.59,38.71 59.8,90 59.78,144.47 -0.06,54.59 -21.39,106.08 -60.14,144.79" />
        <path
           inkscape:connector-curvature="0"
           id="path1806"
           style="fill:#484f59;fill-opacity:1;fill-rule:nonzero;stroke:none"
           d="m 2206.92,1241.87 c -31.67,0 -57.43,-25.76 -57.43,-57.42 0,-31.66 25.76,-57.43 57.43,-57.43 31.68,0 57.45,25.77 57.45,57.43 0,31.66 -25.77,57.42 -57.45,57.42 z m 59.04,-121.86 c 17.48,-2.69 34.77,-6.58 51.77,-11.66 25.8,-7.85 46.74,-36.62 46.76,-64.14 v -27.42 c 23.57,32.25 36.29,70.94 36.28,111.52 -0.05,50.67 -19.85,98.32 -55.74,134.18 -35.88,35.9 -83.55,55.67 -134.22,55.67 -50.82,0 -98.54,-19.87 -134.45,-55.94 -35.75,-35.9 -55.43,-83.5 -55.43,-134 -0.01,-35.69 9.9,-70 28.42,-99.77 v 15.74 c 0.05,27.54 20.99,56.29 46.68,64.14 17.05,5.08 34.37,8.99 51.86,11.68 -17.45,16 -28.4,38.97 -28.4,64.44 0,48.2 39.22,87.42 87.43,87.42 48.22,0 87.45,-39.22 87.45,-87.42 0,-25.47 -10.96,-48.44 -28.41,-64.44 z m 68.53,-176.049 v 100.229 c -0.01,14.49 -12.13,31.39 -25.43,35.45 -66.2,19.77 -138,19.79 -204.36,-0.04 -12.96,-3.94 -25.33,-21.19 -25.35,-35.43 v -95.779 l -25.73,26.347 c -40.44,41.392 -62.7,95.902 -62.69,153.482 0,58.49 22.79,113.61 64.17,155.17 41.58,41.76 96.85,64.77 155.63,64.77 58.77,0 113.97,-22.89 155.51,-64.46 41.55,-41.5 64.47,-96.68 64.53,-155.37 0.02,-58.47 -22.76,-113.55 -64.16,-155.08 -1.59,-1.602 -3.27,-3.078 -4.95,-4.551 l -27.17,-24.738" />
        <path
           inkscape:connector-curvature="0"
           id="path1808"
           style="fill:#ffc400;fill-opacity:1;fill-rule:nonzero;stroke:none"
           d="m 2313.44,1093.98 c -69.48,20.74 -143.56,20.74 -213.03,0 -20.15,-6.15 -36.03,-29.61 -36.06,-49.79 0,-25.66 0,-43.53 0,-58.979 18.57,-19.012 40.77,-34.461 65.52,-45.121 v 91.76 -91.76 c 24.86,-10.719 52.21,-16.719 80.96,-16.699 25.43,0.019 50.1,4.828 73.18,13.668 v 94.791 -94.791 c 23.98,9.203 46.12,22.972 65.48,40.882 0,17.168 0,36.449 0,66.249 -0.02,20.22 -15.87,43.64 -36.05,49.79" />
        <path
           inkscape:connector-curvature="0"
           id="path1810"
           style="fill:#484f59;fill-opacity:1;fill-rule:nonzero;stroke:none"
           d="m 2144.87,950.23 c 21.1,-7.851 43.19,-11.839 65.81,-11.839 v -15 l 0.14,15 c 19.73,0.019 39.26,3.148 58.19,9.281 v 84.178 h 30 v -71.518 c 12.63,6.668 24.49,14.797 35.48,24.309 v 59.549 c -0.01,14.49 -12.13,31.39 -25.43,35.45 -66.2,19.77 -138,19.79 -204.36,-0.04 -12.96,-3.94 -25.33,-21.19 -25.35,-35.43 v -52.709 c 10.84,-10.449 22.73,-19.473 35.52,-26.992 v 67.381 h 30 z m 65.97,-41.839 h -0.16 c -22.5,0 -44.55,3.398 -65.81,10.121 v -1.211 l -20.77,8.937 -0.11,0.063 -0.05,0.019 -0.25,0.102 -8.82,4.039 c -22.75,11.059 -43.32,25.918 -61.25,44.277 l -4.27,4.352 v 65.1 c 0.05,27.54 20.99,56.29 46.68,64.14 72.11,21.53 149.75,21.49 221.7,0.02 25.8,-7.85 46.74,-36.62 46.76,-64.14 v -72.831 l -4.82,-4.449 c -18.12,-16.758 -38.49,-30.16 -60.66,-39.91 v -0.27 l -9.63,-3.691 -0.07,-0.02 -20.3,-7.789 v 1.09 c -19,-5.25 -38.49,-7.93 -58.17,-7.949" />
        <path
           inkscape:connector-curvature="0"
           id="path1812"
           style="fill:#ffc400;fill-opacity:1;fill-rule:nonzero;stroke:none"
           d="m 2206.92,1256.87 c -40,0 -72.43,-32.4 -72.43,-72.42 0,-40 32.43,-72.43 72.43,-72.43 40,0 72.45,32.43 72.45,72.43 0,40.02 -32.45,72.42 -72.45,72.42" />
        <path
           inkscape:connector-curvature="0"
           id="path1814"
           style="fill:#484f59;fill-opacity:1;fill-rule:nonzero;stroke:none"
           d="m 2206.92,1241.87 c -31.67,0 -57.43,-25.76 -57.43,-57.42 0,-31.66 25.76,-57.43 57.43,-57.43 31.68,0 57.45,25.77 57.45,57.43 0,31.66 -25.77,57.42 -57.45,57.42 z m 0,-144.85 c -48.21,0 -87.43,39.22 -87.43,87.43 0,48.2 39.22,87.42 87.43,87.42 48.22,0 87.45,-39.22 87.45,-87.42 0,-48.21 -39.23,-87.43 -87.45,-87.43" />
        <path
           inkscape:connector-curvature="0"
           id="path1816"
           style="fill:#88d8fb;fill-opacity:1;fill-rule:nonzero;stroke:none"
           d="m 2652.88,1863.37 c -181.63,0 -328.79,-147.15 -328.79,-328.75 0,-81.13 29.47,-155.25 78.26,-212.63 l -76.66,-145.22 139.36,88.26 c 53.26,-37.17 117.91,-59.16 187.83,-59.16 181.52,0 328.68,147.23 328.68,328.75 0,181.6 -147.16,328.75 -328.68,328.75" />
        <path
           inkscape:connector-curvature="0"
           id="path1818"
           style="fill:#484f59;fill-opacity:1;fill-rule:nonzero;stroke:none"
           d="m 2652.88,1848.37 c -173.03,0 -313.79,-140.74 -313.79,-313.75 0,-74.2 26.52,-146.27 74.69,-202.91 3.97,-4.69 4.7,-11.31 1.84,-16.72 l -50.36,-95.41 91.76,58.13 c 5.11,3.24 11.66,3.08 16.61,-0.37 52.93,-36.94 114.92,-56.47 179.25,-56.47 172.97,0 313.68,140.74 313.68,313.75 0,173.01 -140.71,313.75 -313.68,313.75 z m -327.18,-686.6 c -3.68,0 -7.34,1.35 -10.19,3.98 -4.99,4.61 -6.26,12.02 -3.08,18.03 l 71.99,136.37 c -48.65,60.8 -75.33,136.56 -75.33,214.47 0,189.55 154.22,343.75 343.79,343.75 189.51,0 343.68,-154.2 343.68,-343.75 0,-189.55 -154.17,-343.75 -343.68,-343.75 -67.16,0 -131.98,19.42 -188.1,56.23 l -131.06,-83.01 c -2.47,-1.56 -5.25,-2.32 -8.02,-2.32" />
        <path
           inkscape:connector-curvature="0"
           id="path1820"
           style="fill:#81cdee;fill-opacity:1;fill-rule:nonzero;stroke:none"
           d="m 2916.65,1534.99 c 0,-148.02 -120.02,-268.04 -268.07,-268.04 -148.04,0 -268.06,120.02 -268.06,268.04 0,148.05 120.02,268.07 268.06,268.07 148.05,0 268.07,-120.02 268.07,-268.07" />
        <path
           inkscape:connector-curvature="0"
           id="path1822"
           style="fill:#ffffff;fill-opacity:1;fill-rule:nonzero;stroke:none"
           d="m 2700.44,1419.39 h -70 l 0.29,70.99 c 4.77,36.96 28.01,55 44.97,68.19 17.86,13.88 27.7,21.54 27.7,51.72 0,5 -1.83,48.9 -64.86,48.9 -44.97,0 -61.7,-37.73 -62.4,-73.05 l -69.97,1.33 c 1.59,83.44 56.04,141.72 132.37,141.72 98.93,0 134.86,-71.11 134.86,-118.9 0,-64.46 -32.94,-90.04 -54.76,-106.98 -12.97,-10.1 -16.89,-13.73 -18.2,-20.11 z m 0.1,-66.39 h -70 v 66.97 h 70 V 1353" />
        <path
           inkscape:connector-curvature="0"
           id="path1824"
           style="fill:#484f59;fill-opacity:1;fill-rule:nonzero;stroke:none"
           d="m 2645.5,1434.97 h 39.94 l 0.3,51.23 c 2.56,12.5 10.97,19.05 23.69,28.95 20.67,16.05 48.97,38.01 48.97,95.14 0,41.75 -31.92,103.9 -119.86,103.9 -63.06,0 -109.27,-45.33 -116.44,-112.01 l 40.17,-0.76 c 5.97,44.69 34.76,72.77 76.27,72.77 63.04,0 79.86,-40.17 79.86,-63.9 0,-37.54 -14.78,-49.03 -33.49,-63.56 -16.41,-12.75 -34.97,-27.17 -39.18,-57.38 z m 0.04,-66.97 h 40 v 36.39 h -40 z m 70,-30 h -100 l 0.32,154.3 c 5.55,43.06 32.67,64.16 50.61,78.1 16.85,13.09 21.93,17.03 21.93,39.89 0,5.66 -2.41,33.9 -49.86,33.9 -41.75,0 -47.06,-40.8 -47.4,-58.34 l -0.29,-14.98 -99.97,1.9 0.29,15 c 1.76,92.11 62.37,156.42 147.37,156.42 109.95,0 149.86,-80.08 149.86,-133.9 0,-71.82 -37.91,-101.24 -60.56,-118.81 -3.56,-2.8 -10.79,-8.4 -12.4,-10.63 l 0.1,-142.85" />
        <path
           inkscape:connector-curvature="0"
           id="path1826"
           style="fill:#88d8fb;fill-opacity:1;fill-rule:nonzero;stroke:none"
           d="m 5713.76,1318.35 c 0,-50.15 -40.67,-90.8 -90.8,-90.8 -50.16,0 -90.83,40.65 -90.83,90.8 0,50.18 40.67,90.84 90.83,90.84 50.13,0 90.8,-40.66 90.8,-90.84" />
        <path
           inkscape:connector-curvature="0"
           id="path1828"
           style="fill:#484f59;fill-opacity:1;fill-rule:nonzero;stroke:none"
           d="m 5622.96,1394.19 c -41.81,0 -75.83,-34.02 -75.83,-75.84 0,-41.79 34.02,-75.8 75.83,-75.8 41.8,0 75.8,34.01 75.8,75.8 0,41.82 -34,75.84 -75.8,75.84 z m 0,-181.64 c -58.35,0 -105.83,47.46 -105.83,105.8 0,58.36 47.48,105.84 105.83,105.84 58.34,0 105.8,-47.48 105.8,-105.84 0,-58.34 -47.46,-105.8 -105.8,-105.8" />
        <path
           inkscape:connector-curvature="0"
           id="path1830"
           style="fill:#88d8fb;fill-opacity:1;fill-rule:nonzero;stroke:none"
           d="m 6012.11,1309.88 -57.38,42.96 -102.22,-136.5 -157.42,0.57 h -186.84 l -80.37,-192.5 h -188.57 v -71.699 h 236.11 l 50.91,120.489 V 547.59 h 193.24 v 531.11 l 0.23,62.68 167.03,1.15 125.28,167.35" />
        <path
           inkscape:connector-curvature="0"
           id="path1832"
           style="fill:#484f59;fill-opacity:1;fill-rule:nonzero;stroke:none"
           d="m 5541.33,562.59 h 163.24 v 516.11 l 0.29,77.56 174.42,1.21 111.84,149.4 -33.38,24.98 -97.74,-130.55 -164.96,0.61 h -176.8 l -80.37,-192.5 h -183.56 v -41.699 h 211.17 l 47.03,111.329 28.82,-5.84 z m 193.24,-30 h -223.24 v 466.558 l -25.96,-61.437 h -261.06 v 101.699 h 193.58 l 80.36,192.5 h 196.84 l 149.93,-0.55 106.69,142.48 81.4,-60.94 -138.74,-185.33 -159.62,-1.09 -0.18,-47.83 V 532.59" />
        <path
           inkscape:connector-curvature="0"
           id="path1834"
           style="fill:#88d8fb;fill-opacity:1;fill-rule:nonzero;stroke:none"
           d="M 5622.96,849.039 V 547.59 849.039" />
        <path
           inkscape:connector-curvature="0"
           id="path1836"
           style="fill:#88d8fb;fill-opacity:1;fill-rule:nonzero;stroke:none"
           d="M 5622.96,849.039 V 547.59 849.039" />
        <path
           inkscape:connector-curvature="0"
           id="path1838"
           style="fill:#484f59;fill-opacity:1;fill-rule:nonzero;stroke:none"
           d="m 5637.96,547.59 h -30 v 301.449 h 30 V 547.59" />
        <path
           inkscape:connector-curvature="0"
           id="path1840"
           style="fill:#cdd5d7;fill-opacity:1;fill-rule:nonzero;stroke:none"
           d="m 2620.85,895.809 c -26.15,0 -47.38,21.191 -47.38,47.371 0,26.191 21.23,47.422 47.38,47.422 26.17,0 47.4,-21.231 47.4,-47.422 0,-26.18 -21.23,-47.371 -47.4,-47.371 z m 159.91,14.55 -0.03,60.45 -54.21,12.781 30.62,49.45 -42.75,42.73 -47.39,-29.31 -13.32,56.62 h -60.44 l -12.76,-54.24 -49.46,30.63 -42.74,-42.74 29.31,-47.359 -56.61,-13.34 v -60.449 l 54.23,-12.773 -30.63,-49.457 42.75,-42.731 47.37,29.289 13.32,-56.601 h 60.45 l 12.77,54.222 49.46,-30.601 42.74,42.75 -29.32,47.359 56.64,13.32" />
        <path
           inkscape:connector-curvature="0"
           id="path1842"
           style="fill:#484f59;fill-opacity:1;fill-rule:nonzero;stroke:none"
           d="m 2620.85,975.602 c -17.85,0 -32.38,-14.532 -32.38,-32.422 0,-17.84 14.53,-32.371 32.38,-32.371 17.87,0 32.4,14.531 32.4,32.371 0,17.89 -14.53,32.422 -32.4,32.422 z m 0,-94.793 c -34.4,0 -62.38,27.992 -62.38,62.371 0,34.429 27.98,62.42 62.38,62.42 34.41,0 62.4,-27.991 62.4,-62.42 0,-34.379 -27.99,-62.371 -62.4,-62.371 z m -20.95,-82.5 h 36.69 l 14.82,62.953 57.08,-35.332 25.94,25.961 -34.04,55 65.36,15.371 -0.01,36.679 -62.94,14.821 35.33,57.068 -25.95,25.94 -55.01,-34.02 -15.37,65.33 h -36.68 l -14.81,-62.97 -57.09,35.35 -25.94,-25.94 34.03,-54.981 -65.33,-15.391 v -36.699 l 62.96,-14.82 -35.35,-57.07 25.95,-25.938 54.98,34.027 z m 60.44,-30 h -84.2 l -11.27,47.89 -39.74,-24.59 -59.56,59.539 25.92,41.832 -45.51,10.719 v 84.199 l 47.89,11.293 -24.6,39.749 59.54,59.53 41.84,-25.9 10.7,45.51 h 84.21 l 11.27,-47.89 39.77,24.59 59.55,-59.53 -25.9,-41.84 45.48,-10.719 0.03,-84.203 -47.92,-11.269 24.6,-39.75 -59.53,-59.547 -41.85,25.898 -10.72,-45.511" />
        <path
           inkscape:connector-curvature="0"
           id="path1858"
           style="fill:#484f59;fill-opacity:1;fill-rule:nonzero;stroke:none"
           d="m 1883.23,907.73 c -37.58,0 -68.15,-30.589 -68.15,-68.191 v -195.84 c 0,-37.59 30.57,-68.179 68.15,-68.179 h 25.88 c 37.58,0 68.16,30.589 68.16,68.179 v 195.84 c 0,37.602 -30.58,68.191 -68.16,68.191 z m 25.88,-362.21 h -25.88 c -54.12,0 -98.15,44.039 -98.15,98.179 v 195.84 c 0,54.141 44.03,98.191 98.15,98.191 h 25.88 c 54.12,0 98.16,-44.05 98.16,-98.191 v -195.84 c 0,-54.14 -44.04,-98.179 -98.16,-98.179" />
        <path
           inkscape:connector-curvature="0"
           id="path1860"
           style="fill:#ffc400;fill-opacity:1;fill-rule:nonzero;stroke:none"
           d="m 1753.67,532.59 v 266.539 h 285.01 V 532.59 h -285.01" />
        <path
           inkscape:connector-curvature="0"
           id="path1862"
           style="fill:#484f59;fill-opacity:1;fill-rule:nonzero;stroke:none"
           d="M 2053.68,814.129 H 1738.67 V 517.59 h 315.01 v 30 236.539 z m -30,-30 V 547.59 h -255.01 v 236.539 h 255.01" />
        <path
           inkscape:connector-curvature="0"
           id="path1864"
           style="fill:#cdd5d7;fill-opacity:1;fill-rule:nonzero;stroke:none"
           d="m 1891.84,691.691 c -2.62,1.579 -4.18,4.297 -4.18,7.309 0,4.68 3.82,8.512 8.52,8.512 4.7,0 8.52,-3.832 8.52,-8.512 0,-3.012 -1.56,-5.73 -4.17,-7.289 l -4.36,-2.621 z m 3.39,-55.8 0.94,10.257 0.94,-10.257 z" />
        <path
           inkscape:connector-curvature="0"
           id="path1866"
           style="fill:#484f59;fill-opacity:1;fill-rule:nonzero;stroke:none"
           d="m 1896.18,722.512 c -12.98,0 -23.52,-10.512 -23.52,-23.512 0,-8.578 4.61,-16.059 11.45,-20.16 l -5.32,-57.949 h 17.39 17.37 l -5.32,57.949 c 6.87,4.101 11.47,11.582 11.47,20.16 0,13 -10.54,23.512 -23.52,23.512" />
        <path
           inkscape:connector-curvature="0"
           id="path1868"
           style="fill:#88d8fb;fill-opacity:1;fill-rule:nonzero;stroke:none"
           d="m 788.23,797.609 c -33.679,0 -60.96,27.289 -60.96,60.942 0,33.629 27.281,60.898 60.96,60.898 33.665,0 60.895,-27.269 60.895,-60.898 0,-33.653 -27.23,-60.942 -60.895,-60.942 z m 0,183.629 c -67.816,0 -122.734,-54.937 -122.734,-122.687 0,-67.832 122.734,-172.442 122.734,-172.442 0,0 122.708,104.61 122.708,172.442 0,67.75 -54.907,122.687 -122.708,122.687" />
        <path
           inkscape:connector-curvature="0"
           id="path1870"
           style="fill:#484f59;fill-opacity:1;fill-rule:nonzero;stroke:none"
           d="m 788.23,904.449 c -25.339,0 -45.96,-20.59 -45.96,-45.898 0,-25.332 20.621,-45.942 45.96,-45.942 25.309,0 45.895,20.61 45.895,45.942 0,25.308 -20.586,45.898 -45.895,45.898 z m 0,-121.84 c -41.882,0 -75.96,34.063 -75.96,75.942 0,41.847 34.078,75.898 75.96,75.898 41.852,0 75.895,-34.051 75.895,-75.898 0,-41.879 -34.043,-75.942 -75.895,-75.942 z m 0,183.629 c -59.402,0 -107.734,-48.316 -107.734,-107.687 0,-45.512 70.539,-118.77 107.734,-152.442 37.188,33.672 107.708,106.93 107.708,152.442 0,59.371 -48.317,107.687 -107.708,107.687 z m 0.004,-299.84 -9.73,8.301 c -13.106,11.153 -128.008,111.192 -128.008,183.852 0,75.918 61.789,137.687 137.734,137.687 75.934,0 137.708,-61.769 137.708,-137.687 0,-72.66 -114.875,-172.68 -127.973,-183.852 l -9.731,-8.301" />
        <path
           inkscape:connector-curvature="0"
           id="path1872"
           style="fill:#f6fafb;fill-opacity:1;fill-rule:nonzero;stroke:none"
           d="m 788.23,797.609 c -33.679,0 -60.96,27.289 -60.96,60.942 0,33.629 27.281,60.898 60.96,60.898 33.665,0 60.895,-27.269 60.895,-60.898 0,-33.653 -27.23,-60.942 -60.895,-60.942" />
        <path
           inkscape:connector-curvature="0"
           id="path1874"
           style="fill:#484f59;fill-opacity:1;fill-rule:nonzero;stroke:none"
           d="m 788.23,904.449 c -25.339,0 -45.96,-20.59 -45.96,-45.898 0,-25.332 20.621,-45.942 45.96,-45.942 25.309,0 45.895,20.61 45.895,45.942 0,25.308 -20.586,45.898 -45.895,45.898 z m 0,-121.84 c -41.882,0 -75.96,34.063 -75.96,75.942 0,41.847 34.078,75.898 75.96,75.898 41.852,0 75.895,-34.051 75.895,-75.898 0,-41.879 -34.043,-75.942 -75.895,-75.942" />
      </g>
    </g>
    <g
       id="g2512"
       transform="matrix(0.88511119,0,0,0.88511119,-31.145897,90.31798)">
      <path
         d="m 86.454498,193.97124 c 0,5.78026 -4.6863,10.46621 -10.466212,10.46621 -5.780969,0 -10.466211,-4.68595 -10.466211,-10.46621 0,-5.78027 4.685242,-10.46621 10.466211,-10.46621 5.779912,0 10.466212,4.68594 10.466212,10.46621"
         style="fill:#c3e8fa;fill-opacity:1;fill-rule:nonzero;stroke:none;stroke-width:0.03527778"
         id="path1231"
         inkscape:connector-curvature="0" />
      <path
         d="m 84.255634,193.97124 c 0,4.566 -3.701697,8.26805 -8.267348,8.26805 -4.566708,0 -8.2677,-3.70205 -8.2677,-8.26805 0,-4.56636 3.700992,-8.26735 8.2677,-8.26735 4.565651,0 8.267348,3.70099 8.267348,8.26735"
         style="fill:#88d8fb;fill-opacity:1;fill-rule:nonzero;stroke:none;stroke-width:0.03527778"
         id="path1233"
         inkscape:connector-curvature="0" />
      <path
         d="m 75.988286,183.92765 c -5.538258,0 -10.043936,4.50533 -10.043936,10.04359 0,5.5379 4.505678,10.04358 10.043936,10.04358 5.538259,0 10.043584,-4.50568 10.043584,-10.04358 0,-5.53826 -4.505325,-10.04359 -10.043584,-10.04359 z m 0,21.1455 c -6.121753,0 -11.10227,-4.98016 -11.10227,-11.10191 0,-6.12176 4.980517,-11.10192 11.10227,-11.10192 6.121753,0 11.101918,4.98016 11.101918,11.10192 0,6.12175 -4.980165,11.10191 -11.101918,11.10191"
         style="fill:#484f59;fill-opacity:1;fill-rule:nonzero;stroke:none;stroke-width:0.03527778"
         id="path1235"
         inkscape:connector-curvature="0" />
      <path
         d="m 75.988286,183.92765 c -3.080808,0 -5.587294,4.50533 -5.587294,10.04359 0,5.5379 2.506486,10.04358 5.587294,10.04358 3.079045,0 5.584473,-4.50568 5.584473,-10.04358 0,-5.53826 -2.505428,-10.04359 -5.584473,-10.04359 z m 0,21.1455 c -3.726744,0 -6.645628,-4.87644 -6.645628,-11.10191 0,-6.22547 2.918884,-11.10192 6.645628,-11.10192 3.724981,0 6.642806,4.87645 6.642806,11.10192 0,6.22547 -2.917825,11.10191 -6.642806,11.10191"
         style="fill:#484f59;fill-opacity:1;fill-rule:nonzero;stroke:none;stroke-width:0.03527778"
         id="path1237"
         inkscape:connector-curvature="0" />
      <path
         d="m 76.517453,183.94141 v 20.05965 c 5.293078,-0.27587 9.514417,-4.66936 9.514417,-10.02982 0,-5.36046 -4.221339,-9.75396 -9.514417,-10.02983 z m -0.529167,21.13174 c -0.292452,0 -0.529166,-0.23706 -0.529166,-0.52916 v -21.1455 c 0,-0.29246 0.236714,-0.52917 0.529166,-0.52917 6.121753,0 11.101918,4.98016 11.101918,11.10192 0,6.12175 -4.980165,11.10191 -11.101918,11.10191"
         style="fill:#484f59;fill-opacity:1;fill-rule:nonzero;stroke:none;stroke-width:0.03527778"
         id="path1239"
         inkscape:connector-curvature="0" />
      <path
         d="m 66.47528,197.16846 h 19.024601 c 0.353131,-1.04281 0.531989,-2.11666 0.531989,-3.19722 0,-1.08056 -0.178858,-2.15442 -0.531989,-3.19829 H 66.475633 c -0.352778,1.04423 -0.531283,2.11879 -0.531283,3.19829 0,1.07914 0.178505,2.15265 0.53093,3.19722 z m 19.397135,1.05834 H 66.102041 c -0.220133,0 -0.417689,-0.13653 -0.4953,-0.3429 -0.478014,-1.27142 -0.720725,-2.58763 -0.720725,-3.91266 0,-1.32645 0.242711,-2.64301 0.721784,-3.91407 0.07761,-0.20602 0.274813,-0.34255 0.4953,-0.34255 h 19.769315 c 0.220133,0 0.417336,0.13653 0.4953,0.34184 0.479425,1.27071 0.722489,2.58763 0.722489,3.91478 0,1.32715 -0.243064,2.64371 -0.722842,3.91336 -0.07761,0.20602 -0.274814,0.3422 -0.494947,0.3422"
         style="fill:#484f59;fill-opacity:1;fill-rule:nonzero;stroke:none;stroke-width:0.03527778"
         id="path1241"
         inkscape:connector-curvature="0" />
    </g>
  </g>
</svg>
