<?xml version="1.0" encoding="UTF-8" standalone="no"?>
<!-- Created with Inkscape (http://www.inkscape.org/) -->

<svg
   xmlns:dc="http://purl.org/dc/elements/1.1/"
   xmlns:cc="http://creativecommons.org/ns#"
   xmlns:rdf="http://www.w3.org/1999/02/22-rdf-syntax-ns#"
   xmlns:svg="http://www.w3.org/2000/svg"
   xmlns="http://www.w3.org/2000/svg"
   xmlns:xlink="http://www.w3.org/1999/xlink"
   xmlns:sodipodi="http://sodipodi.sourceforge.net/DTD/sodipodi-0.dtd"
   xmlns:inkscape="http://www.inkscape.org/namespaces/inkscape"
   width="698.97699"
   height="259.707"
   viewBox="0 0 184.93766 68.714146"
   version="1.1"
   id="svg8"
   inkscape:version="0.92.3 (2405546, 2018-03-11)"
   sodipodi:docname="benefits-of-erp-for-manufacturing.svg">
  <defs
     id="defs2"><polygon
   points="0.378,800 800,800 800,400 800,0 0,0 0,400 0.378,400 "
   id="SVGID_1_" />
<polygon
   points="0.378,800 800,800 800,400 800,0 0,0 0,400 0.378,400 "
   id="SVGID_1_-2" />

	<defs
   id="defs6323">
		<polygon
   id="polygon8515"
   points="800,400 800,0 0,0 0,400 0.378,400 0.378,800 800,800 " />

	</defs>

	<clipPath
   id="SVGID_2_">
		<use
   height="100%"
   width="100%"
   y="0"
   x="0"
   style="overflow:visible"
   xlink:href="#SVGID_1_-2"
   overflow="visible"
   id="use6325" />

	</clipPath>

	
	
	
	
	

		
		
		
		
		
		
		
		
		
		
		
		
		
		
		
		
		
		
		
		
		
		
		
		
		
		
		
		
		
		
		
		
		
		
		
		
	
		
		
		
		
		
		
		
		
		
		
		
		
		
		
		
		
		
		
		
		
		
		
		
		
		
		
		
		
		
		
		
		
		
		
		
		
		
		
	</defs>
  <sodipodi:namedview
     id="base"
     pagecolor="#ffffff"
     bordercolor="#666666"
     borderopacity="1.0"
     inkscape:pageopacity="0.0"
     inkscape:pageshadow="2"
     inkscape:zoom="1.4"
     inkscape:cx="294.85925"
     inkscape:cy="29.841591"
     inkscape:document-units="mm"
     inkscape:current-layer="layer1"
     showgrid="false"
     units="px"
     inkscape:pagecheckerboard="true"
     inkscape:window-width="1920"
     inkscape:window-height="1001"
     inkscape:window-x="-9"
     inkscape:window-y="-9"
     inkscape:window-maximized="1" />
  <metadata
     id="metadata5">
    <rdf:RDF>
      <cc:Work
         rdf:about="">
        <dc:format>image/svg+xml</dc:format>
        <dc:type
           rdf:resource="http://purl.org/dc/dcmitype/StillImage" />
        <dc:title></dc:title>
      </cc:Work>
    </rdf:RDF>
  </metadata>
  <g
     inkscape:label="Layer 1"
     inkscape:groupmode="layer"
     id="layer1"
     transform="translate(0,-228.28583)">
    <g
       id="g8107"
       transform="matrix(0.26458333,0,0,0.26458333,-343.20238,266.7619)">
			<g
   id="XMLID_2_">
				<g
   id="g8074">
					<g
   id="g8072">
						<g
   id="g8070">
							
						</g>

					</g>

				</g>

			</g>

			<g
   id="g8105">
				<g
   id="g8083">
					<g
   id="g8081">
						<g
   id="g8079">
							
						</g>

					</g>

				</g>

				<g
   id="g8103">
					<g
   id="g8101">
						<g
   id="g8087">
							
						</g>

						<g
   id="g8091">
							
						</g>

						<g
   id="g8095">
							
						</g>

						<g
   id="g8099">
							
						</g>

					</g>

				</g>

			</g>

		</g>
    <g
       id="g12102"
       transform="matrix(1.0001431,0,0,1,329.87197,-68.253582)">
      <path
         style="fill:#ffffff;stroke-width:0.26458332"
         inkscape:connector-curvature="0"
         d="m -205.41508,318.96447 c 1.00568,0 1.93807,0.29739 2.70774,0.8292 0.52282,-0.59319 1.24037,-1.01494 2.05528,-1.15067 -0.0339,-0.22834 -0.0513,-0.46435 -0.0513,-0.70221 0,-2.63577 2.13678,-4.7744 4.77256,-4.7744 2.63578,0 4.77361,2.13598 4.77361,4.77176 0,0.38973 -0.0484,0.76623 -0.13599,1.12739 0.35321,-0.0828 0.72151,-0.10107 1.10013,-0.10107 2.63631,0 4.77282,2.19207 4.77282,4.80007 h -24.76791 c 0,-2.60774 2.13678,-4.80007 4.77308,-4.80007 z"
         id="path6449" />
      <g
         transform="matrix(0.26458333,0,0,0.26458333,-256.94663,145.88251)"
         id="g6489">
			<path
   style="fill:#7c7e82"
   inkscape:connector-curvature="0"
   d="m 333.317,671.636 h -6.757 c -0.917,-3.771 -2.423,-7.312 -4.415,-10.519 l 0.022,-0.021 4.779,-4.779 c 1.063,-1.062 1.063,-2.784 0,-3.847 l -8.31,-8.311 c -1.063,-1.063 -2.785,-1.063 -3.848,0 l -4.778,4.777 c -3.314,-2.018 -6.882,-3.456 -10.559,-4.315 v -0.031 -6.758 c 0,-1.503 -1.218,-2.721 -2.72,-2.721 h -11.754 c -1.502,0 -2.72,1.218 -2.72,2.721 v 6.757 c -3.771,0.917 -7.312,2.423 -10.519,4.415 l -0.022,-0.022 -4.779,-4.778 c -1.062,-1.063 -2.785,-1.063 -3.847,0 l -8.312,8.311 c -1.062,1.063 -1.062,2.785 0,3.847 l 4.779,4.779 c -2.018,3.314 -3.457,6.883 -4.316,10.559 h -0.031 -6.759 c -1.502,0 -2.72,1.218 -2.72,2.72 v 11.754 c 0,1.502 1.218,2.721 2.72,2.721 h 6.758 c 0.917,3.771 2.422,7.311 4.415,10.518 l -0.022,0.022 -4.779,4.778 c -1.062,1.063 -1.063,2.785 0,3.848 l 8.311,8.311 c 1.063,1.063 2.785,1.063 3.847,0 l 4.778,-4.778 c 3.315,2.018 6.883,3.456 10.56,4.315 v 0.031 6.759 c 0,1.502 1.218,2.72 2.72,2.72 h 11.754 c 1.502,0 2.72,-1.218 2.72,-2.72 v -6.758 c 3.771,-0.917 7.312,-2.423 10.519,-4.414 l 0.022,0.021 4.779,4.778 c 1.062,1.063 2.785,1.063 3.847,0 l 8.311,-8.311 c 1.063,-1.063 1.063,-2.784 0,-3.847 l -4.779,-4.778 c 2.018,-3.315 3.458,-6.883 4.317,-10.56 h 0.03 6.759 c 1.502,0 2.72,-1.218 2.72,-2.72 v -11.754 c -0.001,-1.502 -1.219,-2.72 -2.721,-2.72 z"
   id="path6471" />

			<g
   id="g6481">
				<g
   id="g6475">
					<path
   style="fill:#111111"
   inkscape:connector-curvature="0"
   d="m 290.885,713.316 -0.066,-2 h 0.066 c 0.954,0 1.918,-0.045 2.868,-0.134 l 0.186,1.992 c -1.012,0.095 -2.039,0.142 -3.054,0.142 z m -4.225,-0.271 c -1.033,-0.134 -2.068,-0.319 -3.079,-0.552 l 0.447,-1.949 c 0.948,0.218 1.919,0.392 2.888,0.517 z m 11.396,-0.521 -0.439,-1.951 c 0.958,-0.216 1.91,-0.479 2.827,-0.782 l 0.628,1.898 c -0.98,0.325 -1.994,0.605 -3.016,0.835 z m -18.469,-1.222 c -0.97,-0.358 -1.938,-0.771 -2.879,-1.228 l 0.873,-1.799 c 0.882,0.428 1.79,0.814 2.698,1.149 z m 25.353,-1.169 -0.865,-1.803 c 0.874,-0.42 1.743,-0.889 2.583,-1.396 l 1.032,1.713 c -0.894,0.54 -1.819,1.04 -2.75,1.486 z m -31.856,-2.112 c -0.87,-0.569 -1.721,-1.188 -2.531,-1.836 l 1.25,-1.561 c 0.76,0.608 1.56,1.188 2.377,1.723 z m 38.03,-1.753 -1.244,-1.566 c 0.761,-0.604 1.504,-1.255 2.209,-1.934 l 1.388,1.439 c -0.75,0.724 -1.542,1.416 -2.353,2.061 z m -43.641,-2.889 c -0.721,-0.746 -1.415,-1.537 -2.063,-2.351 l 1.564,-1.246 c 0.608,0.765 1.26,1.507 1.937,2.206 z m 48.805,-2.249 -1.56,-1.252 c 0.607,-0.757 1.188,-1.556 1.727,-2.375 l 1.671,1.1 c -0.573,0.871 -1.192,1.721 -1.838,2.527 z m -53.25,-3.524 c -0.537,-0.885 -1.038,-1.811 -1.49,-2.75 l 1.803,-0.867 c 0.424,0.882 0.894,1.75 1.397,2.58 z m 57.145,-2.628 -1.799,-0.875 c 0.425,-0.874 0.813,-1.782 1.154,-2.697 l 1.874,0.697 c -0.362,0.975 -0.776,1.942 -1.229,2.875 z m -60.197,-3.988 c -0.326,-0.989 -0.607,-2.004 -0.836,-3.015 l 1.951,-0.441 c 0.214,0.949 0.478,1.901 0.784,2.829 z m 62.624,-2.882 -1.949,-0.449 c 0.218,-0.947 0.393,-1.919 0.52,-2.888 l 1.983,0.26 c -0.135,1.032 -0.322,2.068 -0.554,3.077 z m -64.116,-4.249 c -0.096,-1.019 -0.145,-2.058 -0.145,-3.088 l 2,-0.034 v 0.034 c 0,0.968 0.046,1.943 0.136,2.9 z m 62.946,-2.989 v -0.099 c 0,-0.945 -0.044,-1.9 -0.13,-2.836 l 1.991,-0.184 c 0.092,0.997 0.139,2.013 0.139,3.02 z m -60.839,-4.035 -1.983,-0.256 c 0.132,-1.03 0.316,-2.065 0.547,-3.079 l 1.95,0.445 c -0.216,0.951 -0.389,1.922 -0.514,2.89 z m 60.101,-2.764 c -0.212,-0.948 -0.474,-1.9 -0.778,-2.83 l 1.9,-0.623 c 0.325,0.991 0.604,2.006 0.83,3.016 z m -58.473,-3.875 -1.876,-0.693 c 0.36,-0.975 0.771,-1.942 1.223,-2.878 l 1.801,0.871 c -0.424,0.877 -0.81,1.785 -1.148,2.7 z m 56.238,-2.586 c -0.422,-0.883 -0.89,-1.752 -1.392,-2.583 l 1.712,-1.033 c 0.535,0.886 1.034,1.813 1.484,2.753 z m -53.166,-3.518 -1.675,-1.094 c 0.569,-0.87 1.186,-1.723 1.834,-2.533 l 1.562,1.25 c -0.609,0.761 -1.188,1.56 -1.721,2.377 z m 49.543,-2.281 c -0.607,-0.766 -1.257,-1.509 -1.931,-2.21 l 1.44,-1.387 c 0.719,0.746 1.412,1.538 2.058,2.354 z m -45.191,-2.992 -1.39,-1.438 c 0.748,-0.723 1.538,-1.417 2.348,-2.063 l 1.247,1.563 c -0.76,0.607 -1.502,1.26 -2.205,1.938 z m 40.374,-1.861 c -0.762,-0.613 -1.56,-1.194 -2.372,-1.728 l 1.098,-1.672 c 0.866,0.568 1.717,1.188 2.528,1.841 z m -34.96,-2.317 -1.036,-1.711 c 0.893,-0.541 1.818,-1.043 2.748,-1.491 l 0.869,1.801 c -0.874,0.421 -1.742,0.892 -2.581,1.401 z m 29.189,-1.347 c -0.881,-0.429 -1.788,-0.818 -2.695,-1.155 l 0.696,-1.875 c 0.969,0.36 1.937,0.775 2.876,1.233 z m -22.982,-1.522 -0.63,-1.898 c 0.987,-0.327 2,-0.61 3.013,-0.84 l 0.443,1.949 c -0.949,0.217 -1.9,0.482 -2.826,0.789 z m 16.54,-0.758 c -0.947,-0.22 -1.918,-0.396 -2.887,-0.523 l 0.261,-1.982 c 1.032,0.136 2.067,0.323 3.077,0.557 z m -9.851,-0.65 -0.189,-1.99 c 1.033,-0.099 2.083,-0.148 3.122,-0.148 l 0.133,10e-4 v 2 l -0.155,-10e-4 c -0.954,0 -1.941,0.046 -2.911,0.138 z"
   id="path6473" />

				</g>

				<g
   id="g6479">
					<path
   style="fill:#111111"
   inkscape:connector-curvature="0"
   d="m 290.994,707.896 h -0.109 c -1.061,0 -2.126,-0.062 -3.166,-0.184 l 0.232,-1.986 c 0.963,0.112 1.95,0.17 2.934,0.17 h 0.109 z m 4.215,-0.343 -0.315,-1.975 c 0.966,-0.154 1.931,-0.367 2.868,-0.634 l 0.547,1.924 c -1.013,0.288 -2.056,0.518 -3.1,0.685 z m -11.639,-0.655 c -1.013,-0.283 -2.022,-0.63 -3.001,-1.032 l 0.76,-1.85 c 0.907,0.372 1.842,0.693 2.78,0.956 z m 18.703,-1.501 -0.842,-1.814 c 0.888,-0.412 1.759,-0.88 2.588,-1.39 l 1.047,1.705 c -0.895,0.55 -1.835,1.054 -2.793,1.499 z m -25.478,-1.442 c -0.9,-0.549 -1.778,-1.156 -2.609,-1.807 l 1.232,-1.574 c 0.77,0.602 1.583,1.165 2.417,1.672 z m 31.69,-2.544 -1.299,-1.521 c 0.745,-0.636 1.458,-1.32 2.121,-2.034 l 1.467,1.359 c -0.715,0.77 -1.485,1.51 -2.289,2.196 z m -37.416,-2.117 c -0.72,-0.771 -1.403,-1.591 -2.028,-2.438 l 1.609,-1.188 c 0.58,0.786 1.211,1.546 1.879,2.259 z m 42.331,-3.392 -1.659,-1.115 c 0.547,-0.814 1.05,-1.666 1.496,-2.531 l 1.778,0.916 c -0.481,0.933 -1.024,1.852 -1.615,2.73 z m -46.595,-2.633 c -0.488,-0.938 -0.924,-1.913 -1.296,-2.896 l 1.871,-0.707 c 0.344,0.909 0.747,1.811 1.199,2.681 z m 49.845,-3.999 -1.899,-0.627 c 0.306,-0.926 0.56,-1.881 0.754,-2.84 l 1.96,0.398 c -0.21,1.036 -0.485,2.069 -0.815,3.069 z m -52.322,-2.957 c -0.214,-1.031 -0.37,-2.088 -0.461,-3.139 L 265.859,683 c 0.085,0.973 0.229,1.951 0.427,2.906 z m 53.653,-4.305 -1.998,-0.092 c 0.018,-0.38 0.026,-0.762 0.026,-1.145 0,-0.604 -0.021,-1.202 -0.063,-1.795 l 1.995,-0.141 c 0.045,0.639 0.068,1.29 0.068,1.936 0,0.415 -0.009,0.826 -0.028,1.237 z m -52.165,-2.925 -1.995,-0.133 c 0.07,-1.055 0.203,-2.113 0.394,-3.146 l 1.967,0.363 c -0.178,0.957 -0.3,1.938 -0.366,2.916 z m 49.553,-3.979 c -0.22,-0.952 -0.499,-1.9 -0.828,-2.818 l 1.883,-0.676 c 0.355,0.992 0.656,2.017 0.894,3.045 z m -48.175,-2.719 -1.886,-0.668 c 0.353,-0.995 0.768,-1.979 1.233,-2.925 l 1.794,0.885 c -0.43,0.875 -0.814,1.786 -1.141,2.708 z m 45.741,-3.667 c -0.469,-0.855 -0.994,-1.692 -1.56,-2.489 l 1.63,-1.158 c 0.611,0.859 1.178,1.763 1.684,2.687 z m -42.599,-2.408 -1.634,-1.152 c 0.606,-0.86 1.271,-1.695 1.976,-2.481 l 1.489,1.334 c -0.652,0.728 -1.268,1.502 -1.831,2.299 z m 38.53,-3.087 c -0.682,-0.698 -1.413,-1.365 -2.172,-1.981 l 1.26,-1.553 c 0.82,0.664 1.608,1.384 2.344,2.138 z M 275,661.304 l -1.266,-1.549 c 0.816,-0.667 1.68,-1.293 2.568,-1.86 l 1.077,1.686 c -0.822,0.525 -1.623,1.105 -2.379,1.723 z m 28.467,-2.283 c -0.845,-0.49 -1.728,-0.936 -2.624,-1.323 l 0.794,-1.836 c 0.968,0.419 1.921,0.899 2.834,1.429 z m -22.634,-1.284 -0.802,-1.832 c 0.967,-0.423 1.969,-0.792 2.978,-1.098 l 0.579,1.914 c -0.934,0.283 -1.861,0.625 -2.755,1.016 z m 16.304,-1.307 c -0.946,-0.241 -1.917,-0.43 -2.885,-0.56 l 0.266,-1.982 c 1.045,0.141 2.093,0.344 3.114,0.604 z m -9.725,-0.545 -0.273,-1.98 c 1.042,-0.145 2.105,-0.229 3.159,-0.252 l 0.044,2 c -0.978,0.021 -1.964,0.099 -2.93,0.232 z"
   id="path6477" />

				</g>

			</g>

			<path
   style="fill:#3dc7d2;fill-opacity:1"
   inkscape:connector-curvature="0"
   d="m 290.885,659.438 c -11.782,0 -21.333,9.551 -21.333,21.334 0,11.782 9.551,21.334 21.333,21.334 11.782,0 21.333,-9.552 21.333,-21.334 0,-11.784 -9.551,-21.334 -21.333,-21.334 z"
   id="path6483" />

			<g
   id="g6487">
				
			</g>

		</g>
      <g
         transform="matrix(0.26458333,0,0,0.26458333,-239.52355,154.31134)"
         id="g6761">
			<g
   id="g6751">
				<g
   id="g6749">
					<circle
   style="fill:#f3a52d"
   cx="141.21899"
   cy="572.03497"
   r="21.023001"
   id="circle6747" />

				</g>

			</g>

			<g
   id="g6759">
				<g
   id="g6757">
					<g
   id="g6755">
						<path
   style="fill:#111111"
   inkscape:connector-curvature="0"
   d="m 141.761,601.596 -0.035,-2 c 0.945,-0.017 1.903,-0.083 2.846,-0.197 l 0.24,1.986 c -1.011,0.122 -2.038,0.193 -3.051,0.211 z m -4.07,-0.202 c -1.01,-0.12 -2.024,-0.295 -3.016,-0.519 l 0.441,-1.951 c 0.924,0.209 1.87,0.372 2.81,0.483 z m 11.125,-0.778 -0.512,-1.934 c 0.916,-0.242 1.829,-0.536 2.714,-0.873 l 0.711,1.869 c -0.95,0.362 -1.93,0.677 -2.913,0.938 z m -18.049,-0.915 c -0.956,-0.362 -1.898,-0.776 -2.802,-1.23 l 0.898,-1.787 c 0.842,0.424 1.721,0.81 2.612,1.146 z m 24.661,-1.731 -0.963,-1.754 c 0.828,-0.454 1.644,-0.959 2.426,-1.5 l 1.138,1.645 c -0.838,0.579 -1.713,1.12 -2.601,1.609 z m -30.973,-1.577 c -0.836,-0.577 -1.652,-1.204 -2.425,-1.864 l 1.299,-1.521 c 0.721,0.616 1.482,1.201 2.262,1.739 z m 36.758,-2.578 -1.352,-1.475 c 0.696,-0.639 1.369,-1.323 1.999,-2.034 l 1.497,1.326 c -0.675,0.764 -1.396,1.498 -2.144,2.183 z m -42.095,-2.141 c -0.677,-0.762 -1.32,-1.565 -1.912,-2.388 l 1.624,-1.168 c 0.552,0.768 1.151,1.517 1.783,2.228 z m 46.727,-3.271 -1.664,-1.109 c 0.524,-0.787 1.014,-1.612 1.456,-2.452 l 1.771,0.93 c -0.475,0.902 -1.001,1.787 -1.563,2.631 z m -50.786,-2.58 c -0.475,-0.898 -0.908,-1.833 -1.286,-2.775 l 1.855,-0.746 c 0.353,0.879 0.757,1.75 1.199,2.588 z m 53.991,-3.785 -1.882,-0.678 c 0.32,-0.89 0.597,-1.808 0.823,-2.729 l 1.942,0.477 c -0.242,0.989 -0.539,1.974 -0.883,2.93 z m -56.53,-2.873 c -0.244,-0.983 -0.439,-1.994 -0.58,-3.004 l 1.98,-0.277 c 0.132,0.941 0.313,1.884 0.541,2.801 z m 58.109,-4.077 -1.989,-0.205 c 0.096,-0.938 0.145,-1.896 0.145,-2.848 v -0.116 h 2 v 0.104 c 0,1.033 -0.053,2.059 -0.156,3.065 z m -58.975,-2.994 v -0.059 c 0,-0.999 0.05,-2.006 0.149,-2.993 l 1.99,0.199 c -0.093,0.922 -0.14,1.861 -0.14,2.794 z m 56.856,-3.964 c -0.133,-0.94 -0.317,-1.883 -0.546,-2.799 l 1.94,-0.484 c 0.246,0.982 0.443,1.993 0.586,3.002 z m -54.076,-2.633 -1.943,-0.473 c 0.241,-0.991 0.537,-1.979 0.878,-2.933 l 1.883,0.674 c -0.318,0.889 -0.593,1.808 -0.818,2.732 z m 52.355,-3.779 c -0.355,-0.879 -0.76,-1.749 -1.204,-2.585 l 1.767,-0.938 c 0.477,0.897 0.911,1.83 1.292,2.774 z m -50.014,-2.44 -1.772,-0.926 c 0.471,-0.901 0.995,-1.787 1.557,-2.635 l 1.667,1.105 c -0.524,0.791 -1.013,1.617 -1.452,2.456 z m 46.802,-3.372 c -0.553,-0.766 -1.155,-1.514 -1.788,-2.223 l 1.492,-1.332 c 0.679,0.761 1.324,1.563 1.917,2.385 z m -43.036,-2.099 -1.5,-1.324 c 0.672,-0.762 1.392,-1.497 2.139,-2.186 l 1.355,1.471 c -0.696,0.642 -1.367,1.328 -1.994,2.039 z m 38.526,-2.78 c -0.719,-0.613 -1.481,-1.196 -2.265,-1.734 l 1.132,-1.648 c 0.84,0.576 1.658,1.202 2.43,1.859 z m -33.567,-1.639 -1.142,-1.643 c 0.832,-0.578 1.706,-1.121 2.598,-1.613 l 0.967,1.75 c -0.831,0.46 -1.647,0.966 -2.423,1.506 z m 28.026,-2.026 c -0.85,-0.425 -1.73,-0.809 -2.615,-1.142 l 0.704,-1.871 c 0.949,0.356 1.893,0.769 2.804,1.224 z m -22.158,-1.081 -0.715,-1.867 c 0.953,-0.365 1.933,-0.683 2.912,-0.943 l 0.515,1.934 c -0.913,0.241 -1.825,0.536 -2.712,0.876 z m 15.899,-1.146 c -0.924,-0.207 -1.87,-0.367 -2.811,-0.478 l 0.231,-1.986 c 1.01,0.118 2.025,0.29 3.017,0.513 z m -9.456,-0.458 -0.244,-1.984 c 1.01,-0.125 2.036,-0.197 3.05,-0.218 l 0.039,2 c -0.946,0.018 -1.903,0.087 -2.845,0.202 z"
   id="path6753" />

					</g>

				</g>

			</g>

		</g>
      <g
         transform="matrix(0.26458333,0,0,0.26458333,-343.20238,266.7619)"
         id="g7262">
			<path
   style="fill:#ea572e"
   inkscape:connector-curvature="0"
   d="m 86.722,341.105 h -2.436 c -0.331,-1.359 -0.874,-2.635 -1.591,-3.791 l 0.008,-0.008 1.723,-1.723 c 0.383,-0.384 0.383,-1.004 0,-1.388 L 81.43,331.2 c -0.383,-0.384 -1.004,-0.384 -1.387,0 l -1.722,1.722 c -1.195,-0.728 -2.481,-1.246 -3.807,-1.556 v -0.012 -2.436 c 0,-0.542 -0.439,-0.98 -0.98,-0.98 h -4.237 c -0.542,0 -0.98,0.438 -0.98,0.98 v 2.436 c -1.359,0.331 -2.636,0.873 -3.792,1.592 l -0.008,-0.008 -1.723,-1.723 c -0.383,-0.383 -1.003,-0.383 -1.387,0 l -2.996,2.996 c -0.383,0.383 -0.383,1.004 0,1.387 l 1.723,1.723 c -0.727,1.194 -1.246,2.48 -1.556,3.807 H 58.567 56.13 c -0.542,0 -0.98,0.438 -0.98,0.98 v 4.236 c 0,0.541 0.439,0.98 0.98,0.98 h 2.436 c 0.331,1.359 0.874,2.636 1.592,3.792 l -0.008,0.008 -1.723,1.723 c -0.383,0.384 -0.383,1.004 0,1.388 l 2.996,2.995 c 0.383,0.384 1.004,0.384 1.387,0 l 1.723,-1.723 c 1.195,0.728 2.481,1.246 3.806,1.556 v 0.012 2.437 c 0,0.541 0.438,0.979 0.98,0.979 h 4.237 c 0.542,0 0.98,-0.438 0.98,-0.979 v -2.437 c 1.359,-0.33 2.636,-0.873 3.792,-1.592 l 0.008,0.008 1.723,1.723 c 0.383,0.384 1.004,0.384 1.387,0 l 2.996,-2.995 c 0.383,-0.383 0.383,-1.004 0,-1.387 l -1.723,-1.723 c 0.728,-1.195 1.247,-2.481 1.557,-3.807 h 0.011 2.437 c 0.542,0 0.98,-0.438 0.98,-0.98 v -4.237 c -10e-4,-0.54 -0.44,-0.98 -0.982,-0.98 z"
   id="path7254" />

			<g
   id="g7260">
				<g
   id="g7258">
					<path
   style="fill:#111111"
   inkscape:connector-curvature="0"
   d="m 71.43,352.295 -0.041,-2 h 0.041 c 0.911,0 1.787,-0.195 2.603,-0.582 l 0.857,1.807 c -1.086,0.515 -2.25,0.775 -3.46,0.775 z m -4.582,-1.425 c -0.992,-0.684 -1.833,-1.597 -2.431,-2.641 l 1.734,-0.994 c 0.45,0.786 1.084,1.474 1.831,1.988 z m 11.549,-2.559 -1.723,-1.016 c 0.465,-0.79 0.739,-1.655 0.814,-2.572 l 1.994,0.164 c -0.101,1.219 -0.465,2.371 -1.085,3.424 z m -13.027,-4.569 -1.994,-0.15 c 0.092,-1.218 0.45,-2.373 1.065,-3.431 l 1.729,1.006 c -0.462,0.794 -0.731,1.661 -0.8,2.575 z m 11.356,-2.515 c -0.446,-0.789 -1.075,-1.48 -1.819,-1.999 l 1.145,-1.64 c 0.987,0.688 1.822,1.606 2.415,2.654 z m -7.93,-2.493 -0.867,-1.803 c 1.099,-0.527 2.276,-0.795 3.501,-0.795 l 0.082,1 -0.082,1 c -0.922,10e-4 -1.808,0.201 -2.634,0.598 z"
   id="path7256" />

				</g>

			</g>

		</g>
      <g
         transform="matrix(0.26458333,0,0,0.26458333,-343.20238,266.7619)"
         id="g7290">
			<g
   id="g7266">
				<path
   style="fill:#e6e6e6"
   inkscape:connector-curvature="0"
   d="m 267.528,173.173 c -5.14,0 -9.905,1.519 -13.84,4.236 -2.669,-3.034 -6.34,-5.187 -10.505,-5.879 0.173,-1.169 0.262,-2.374 0.262,-3.591 0,-13.471 -10.921,-24.405 -24.396,-24.405 -13.472,0 -24.398,10.921 -24.398,24.392 0,1.989 0.245,3.918 0.694,5.763 -1.805,-0.425 -3.69,-0.516 -5.625,-0.516 -13.475,0 -24.396,11.204 -24.396,24.536 H 291.93 c -0.002,-13.332 -10.923,-24.536 -24.402,-24.536 z"
   id="path7264" />

			</g>

			<g
   id="g7288">
				<g
   id="g7270">
					<path
   style="fill:#111111"
   inkscape:connector-curvature="0"
   d="m 164.322,198.709 h 44.488 v -2 h -42.468 c 0.523,-12.516 10.808,-22.535 23.376,-22.535 v -2 c -14.004,0 -25.396,11.455 -25.396,25.535 z"
   id="path7268" />

				</g>

				<g
   id="g7274">
					<path
   style="fill:#111111"
   inkscape:connector-curvature="0"
   d="m 201.786,152.137 c 2.113,-2.307 4.617,-4.141 7.442,-5.449 l -0.84,-1.814 c -3.068,1.42 -5.785,3.41 -8.077,5.912 z"
   id="path7272" />

				</g>

				<g
   id="g7278">
					<path
   style="fill:#111111"
   inkscape:connector-curvature="0"
   d="m 239.602,156.752 1.756,-0.957 c -3.078,-5.646 -8.117,-9.884 -14.19,-11.934 l -0.64,1.895 c 5.595,1.889 10.238,5.794 13.074,10.996 z"
   id="path7276" />

				</g>

				<g
   id="g7282">
					<path
   style="fill:#111111"
   inkscape:connector-curvature="0"
   d="m 248.922,198.709 h 44.006 v -1 c 0,-14.08 -11.395,-25.535 -25.4,-25.535 -4.945,0 -9.657,1.355 -13.683,3.93 -1.285,-1.334 -2.745,-2.468 -4.351,-3.379 l -0.986,1.74 c 1.664,0.943 3.154,2.156 4.429,3.605 l 0.587,0.667 0.731,-0.505 c 3.845,-2.656 8.434,-4.059 13.272,-4.059 12.57,0 22.856,10.02 23.379,22.535 h -41.985 v 2.001 z"
   id="path7280" />

				</g>

				<g
   id="g7286">
					<rect
   style="fill:#111111"
   x="226.82401"
   y="196.709"
   width="15.132"
   height="2"
   id="rect7284" />

				</g>

			</g>

		</g>
      <g
         transform="matrix(0.26458333,0,0,0.26458333,-343.20238,266.7619)"
         id="g7306">
			<g
   id="g7294">
				<path
   style="fill:#111111"
   inkscape:connector-curvature="0"
   d="m 250.088,276.32 h -7.883 c -0.754,0 -1.464,-0.293 -1.997,-0.827 -0.534,-0.534 -0.827,-1.243 -0.827,-1.997 v -3.773 c -2.072,-0.553 -4.058,-1.364 -5.921,-2.42 l -2.658,2.657 c -1.066,1.066 -2.927,1.067 -3.994,0.001 l -5.574,-5.574 c -1.101,-1.102 -1.101,-2.895 0,-3.994 l 2.668,-2.668 c -1.074,-1.857 -1.904,-3.836 -2.475,-5.9 h -3.759 c -1.558,0 -2.825,-1.267 -2.825,-2.824 v -7.883 c 0,-1.557 1.267,-2.824 2.825,-2.824 h 3.773 c 0.553,-2.072 1.365,-4.059 2.421,-5.921 l -2.658,-2.658 c -1.101,-1.101 -1.101,-2.892 0,-3.993 l 5.575,-5.574 c 1.066,-1.067 2.928,-1.068 3.994,0 l 2.667,2.668 c 1.856,-1.074 3.835,-1.904 5.899,-2.476 v -3.759 c 0,-1.558 1.267,-2.824 2.824,-2.824 h 7.883 c 1.557,0 2.824,1.267 2.824,2.824 v 3.773 c 2.072,0.553 4.058,1.365 5.921,2.421 l 2.658,-2.657 c 1.067,-1.068 2.927,-1.067 3.995,-0.001 l 5.574,5.573 c 1.101,1.102 1.101,2.895 0,3.995 l -2.668,2.668 c 1.074,1.856 1.904,3.835 2.476,5.899 h 3.758 c 1.557,0 2.824,1.267 2.824,2.824 v 7.883 c 0,1.557 -1.267,2.824 -2.824,2.824 h -3.773 c -0.553,2.072 -1.365,4.058 -2.422,5.921 l 2.659,2.658 c 0.534,0.533 0.827,1.243 0.827,1.997 0,0.754 -0.294,1.464 -0.827,1.997 l -5.574,5.573 c -1.064,1.067 -2.928,1.068 -3.994,0 l -2.668,-2.668 c -1.857,1.075 -3.835,1.904 -5.899,2.476 v 3.759 c -0.001,1.558 -1.268,2.824 -2.825,2.824 z m -16.94,-11.535 0.671,0.409 c 2.104,1.28 4.388,2.214 6.789,2.774 l 0.772,0.181 v 5.347 c 0,0.221 0.085,0.428 0.241,0.583 0.155,0.155 0.362,0.241 0.583,0.241 h 7.883 c 0.455,0 0.824,-0.369 0.824,-0.824 v -5.318 l 0.764,-0.186 c 2.391,-0.582 4.667,-1.536 6.763,-2.838 l 0.674,-0.419 3.781,3.78 c 0.313,0.313 0.854,0.313 1.165,0 l 5.575,-5.574 c 0.156,-0.155 0.241,-0.361 0.241,-0.582 0,-0.221 -0.085,-0.428 -0.241,-0.583 l -3.762,-3.761 0.409,-0.672 c 1.28,-2.102 2.214,-4.387 2.776,-6.789 l 0.18,-0.771 h 5.347 c 0.455,0 0.824,-0.37 0.824,-0.824 v -7.883 c 0,-0.455 -0.37,-0.824 -0.824,-0.824 h -5.317 l -0.186,-0.764 c -0.582,-2.393 -1.537,-4.668 -2.839,-6.764 l -0.418,-0.674 3.781,-3.78 c 0.321,-0.321 0.321,-0.845 0,-1.167 l -5.573,-5.572 c -0.312,-0.313 -0.855,-0.313 -1.167,0 l -3.76,3.76 -0.671,-0.408 c -2.104,-1.28 -4.388,-2.215 -6.79,-2.775 l -0.772,-0.18 v -5.348 c 0,-0.455 -0.37,-0.824 -0.824,-0.824 h -7.883 c -0.455,0 -0.824,0.369 -0.824,0.824 v 5.318 l -0.764,0.186 c -2.393,0.582 -4.668,1.537 -6.763,2.838 l -0.663,0.412 -0.561,-0.543 -3.232,-3.23 c -0.312,-0.313 -0.854,-0.311 -1.165,0 l -5.575,5.574 c -0.321,0.32 -0.321,0.844 0,1.165 l 3.761,3.761 -0.409,0.672 c -1.279,2.102 -2.213,4.386 -2.775,6.789 l -0.18,0.771 h -5.347 c -0.455,0 -0.825,0.37 -0.825,0.824 V 249 c 0,0.455 0.37,0.824 0.825,0.824 h 5.318 l 0.186,0.764 c 0.582,2.393 1.537,4.668 2.838,6.764 l 0.418,0.674 -3.781,3.781 c -0.321,0.32 -0.321,0.844 0,1.166 l 5.573,5.573 c 0.312,0.311 0.854,0.312 1.166,0 z"
   id="path7292" />

			</g>

			<g
   id="g7298">
				<path
   style="clip-rule:evenodd;fill:#f3a52d;fill-rule:evenodd"
   inkscape:connector-curvature="0"
   d="m 246.126,265.27 c 11.173,0.001 20.231,-9.059 20.231,-20.232 0,-11.173 -9.058,-20.23 -20.231,-20.23 -11.174,0 -20.232,9.057 -20.232,20.23 0,11.173 9.058,20.232 20.232,20.232 z"
   id="path7296" />

			</g>

			<g
   id="g7304">
				<g
   id="g7302">
					<path
   style="fill:#111111"
   inkscape:connector-curvature="0"
   d="m 246.136,261.359 -0.032,-2 h 0.032 c 0.912,0 1.823,-0.086 2.708,-0.256 l 0.377,1.964 c -1.01,0.194 -2.047,0.292 -3.085,0.292 z m -4.171,-0.538 c -1.011,-0.267 -1.999,-0.633 -2.938,-1.088 l 0.872,-1.8 c 0.824,0.398 1.691,0.72 2.577,0.954 z m 11.22,-1.059 -0.864,-1.803 c 0.825,-0.396 1.616,-0.874 2.352,-1.422 l 1.194,1.604 c -0.839,0.625 -1.741,1.17 -2.682,1.621 z m -17.649,-2.313 c -0.794,-0.679 -1.526,-1.438 -2.176,-2.253 l 1.564,-1.246 c 0.571,0.717 1.214,1.382 1.911,1.979 z m 23.334,-2.202 -1.56,-1.252 c 0.574,-0.716 1.082,-1.489 1.507,-2.298 l 1.771,0.93 c -0.485,0.924 -1.064,1.805 -1.718,2.62 z m -27.671,-3.62 c -0.422,-0.957 -0.753,-1.958 -0.983,-2.976 l 1.95,-0.441 c 0.202,0.893 0.492,1.771 0.863,2.609 z m 30.842,-2.912 -1.949,-0.448 c 0.205,-0.891 0.325,-1.808 0.357,-2.727 l 1.999,0.069 c -0.037,1.046 -0.174,2.091 -0.407,3.106 z m -30.22,-4.151 -1.999,-0.066 c 0.035,-1.048 0.169,-2.093 0.4,-3.105 l 1.95,0.445 c -0.202,0.889 -0.32,1.806 -0.351,2.726 z m 28.29,-2.669 c -0.2,-0.893 -0.489,-1.771 -0.857,-2.611 l 1.832,-0.805 c 0.42,0.959 0.749,1.961 0.977,2.979 z m -26.673,-3.491 -1.771,-0.928 c 0.483,-0.924 1.06,-1.806 1.713,-2.623 l 1.563,1.25 c -0.574,0.717 -1.08,1.492 -1.505,2.301 z m 23.927,-2.256 c -0.57,-0.719 -1.211,-1.386 -1.908,-1.984 l 1.304,-1.516 c 0.792,0.68 1.522,1.439 2.17,2.256 z m -19.791,-2.592 -1.196,-1.603 c 0.839,-0.626 1.74,-1.173 2.678,-1.625 l 0.868,1.801 c -0.822,0.397 -1.613,0.877 -2.35,1.427 z m 14.824,-1.402 c -0.823,-0.4 -1.689,-0.723 -2.575,-0.959 l 0.514,-1.932 c 1.01,0.268 1.998,0.636 2.937,1.094 z m -8.999,-1.176 -0.38,-1.964 c 1.021,-0.197 2.07,-0.297 3.117,-0.297 l 0.063,2 -0.086,-0.001 c -0.897,0.001 -1.818,0.089 -2.714,0.262 z"
   id="path7300" />

				</g>

			</g>

		</g>
      <g
         transform="matrix(0.26458333,0,0,0.26458333,-343.20238,266.7619)"
         id="g7390">
			<g
   id="g7312">
				<g
   id="g7310">
					<path
   style="fill:#7c7e82"
   inkscape:connector-curvature="0"
   d="m 244.058,267.321 v -4.813 h -34.183 c -1.141,0 -2.601,-0.984 -2.601,-2.528 v -51.563 c 0,-4.051 -3.296,-7.349 -7.349,-7.349 h -1.692 c -4.052,0 -7.349,3.298 -7.349,7.349 v 51.563 c 0,1.351 -1.099,2.45 -2.45,2.45 h -1.308 c -1.351,0 -2.45,-1.1 -2.45,-2.45 v -51.65 c 0,-4.053 -3.247,-7.349 -7.237,-7.349 -3.991,0 -7.238,3.296 -7.238,7.349 v 50.604 c 0,1.352 -1.099,2.45 -2.449,2.45 h -0.927 c -1.351,0 -2.45,-1.099 -2.45,-2.45 v -52.318 c 0,-4.052 -3.296,-7.348 -7.348,-7.348 h -0.543 c -4.052,0 -7.349,3.296 -7.349,7.348 v 55.459 c 0,1.351 -1.049,2.449 -2.338,2.449 -1.289,0 -2.338,-1.099 -2.338,-2.449 v -55.459 c 0,-4.052 -3.296,-7.348 -7.348,-7.348 h -0.543 c -4.052,0 -7.349,3.296 -7.349,7.348 v 87.199 h 4.899 v -87.199 c 0,-1.35 1.099,-2.449 2.45,-2.449 h 0.543 c 1.351,0 2.449,1.1 2.449,2.449 v 55.459 c 0,4.053 3.247,7.349 7.237,7.349 3.991,0 7.237,-3.296 7.237,-7.349 v -55.459 c 0,-1.35 1.099,-2.449 2.45,-2.449 h 0.543 c 1.351,0 2.449,1.1 2.449,2.449 v 52.318 c 0,4.053 3.297,7.35 7.349,7.35 h 0.927 c 4.052,0 7.348,-3.297 7.348,-7.35 V 208.33 c 0,-1.351 1.049,-2.45 2.339,-2.45 1.289,0 2.338,1.1 2.338,2.45 v 51.65 c 0,4.053 3.297,7.35 7.349,7.35 h 1.308 c 4.052,0 7.349,-3.297 7.349,-7.35 v -51.563 c 0,-1.35 1.099,-2.449 2.45,-2.449 h 1.692 c 1.351,0 2.45,1.1 2.45,2.449 v 51.563 c 0,3.997 3.208,7.252 7.185,7.341 z"
   id="path7308" />

				</g>

			</g>

			<g
   id="g7320">
				<polygon
   style="fill:#7c7e82"
   points="121.314,184.334 123.899,280.027 103.864,280.027 106.449,184.334 "
   id="polygon7314" />

				<g
   id="g7318">
					<path
   style="fill:#111111"
   inkscape:connector-curvature="0"
   d="m 124.926,281.027 h -22.09 l 2.639,-97.693 h 16.812 z m -20.035,-2 h 17.98 l -2.53,-93.693 h -12.919 z"
   id="path7316" />

				</g>

			</g>

			<polygon
   style="fill:#ea572e"
   points="155.641,228.703 158.275,321.564 134.943,321.564 138.331,228.703 "
   id="polygon7322" />

			<rect
   style="fill:#e6e6e6"
   x="94.315002"
   y="275.57501"
   width="108.656"
   height="23.565001"
   id="rect7324" />

			<g
   id="g7328">
				<path
   style="fill:#111111"
   inkscape:connector-curvature="0"
   d="M 203.971,300.141 H 93.315 v -25.565 h 110.656 z m -108.656,-2 H 201.971 V 276.576 H 95.315 Z"
   id="path7326" />

			</g>

			<rect
   style="fill:#7c7e82"
   x="78.847"
   y="289.97601"
   width="139.59399"
   height="81.165001"
   id="rect7330" />

			<g
   id="g7334">
				<path
   style="fill:#111111"
   inkscape:connector-curvature="0"
   d="M 219.441,372.141 H 77.847 v -83.165 h 141.594 z m -139.594,-2 H 217.441 V 290.976 H 79.847 Z"
   id="path7332" />

			</g>

			<rect
   style="fill:#ea572e"
   x="92.787003"
   y="299.14099"
   width="23.504"
   height="7.8540001"
   id="rect7336" />

			<rect
   style="fill:#ffffff"
   x="121.663"
   y="299.14099"
   width="23.503"
   height="7.8540001"
   id="rect7338" />

			<rect
   style="fill:#ffffff"
   x="92.787003"
   y="313.539"
   width="23.504"
   height="7.855"
   id="rect7340" />

			<g
   id="g7344">
				<path
   style="fill:#111111"
   inkscape:connector-curvature="0"
   d="m 146.166,322.395 h -25.503 v -9.855 h 25.503 z m -23.503,-2 h 21.503 v -5.855 h -21.503 z"
   id="path7342" />

			</g>

			<g
   id="g7348">
				<path
   style="fill:#111111"
   inkscape:connector-curvature="0"
   d="M 117.291,336.794 H 91.787 v -9.854 h 25.504 z m -23.504,-2 h 21.504 V 328.94 H 93.787 Z"
   id="path7346" />

			</g>

			<rect
   style="fill:#ffffff"
   x="121.663"
   y="327.939"
   width="23.503"
   height="7.8540001"
   id="rect7350" />

			<rect
   style="fill:#ffffff"
   x="92.787003"
   y="342.34"
   width="23.504"
   height="7.8540001"
   id="rect7352" />

			<rect
   style="fill:#ea572e"
   x="121.663"
   y="342.34"
   width="23.503"
   height="7.8540001"
   id="rect7354" />

			<g
   id="g7358">
				<path
   style="fill:#111111"
   inkscape:connector-curvature="0"
   d="m 176.298,307.994 h -25.504 v -9.854 h 25.504 z m -23.504,-2 h 21.504 v -5.854 h -21.504 z"
   id="path7356" />

			</g>

			<rect
   style="fill:#ffffff"
   x="180.67"
   y="299.14099"
   width="23.503"
   height="7.8540001"
   id="rect7360" />

			<rect
   style="fill:#ffffff"
   x="151.79401"
   y="313.539"
   width="23.504"
   height="7.855"
   id="rect7362" />

			<rect
   style="fill:#ea572e"
   x="180.67"
   y="313.539"
   width="23.503"
   height="7.855"
   id="rect7364" />

			<g
   id="g7368">
				<path
   style="fill:#111111"
   inkscape:connector-curvature="0"
   d="m 176.298,336.794 h -25.504 v -9.854 h 25.504 z m -23.504,-2 h 21.504 v -5.854 h -21.504 z"
   id="path7366" />

			</g>

			<rect
   style="fill:#ffffff"
   x="180.67"
   y="327.939"
   width="23.503"
   height="7.8540001"
   id="rect7370" />

			<rect
   style="fill:#ea572e"
   x="151.79401"
   y="342.34"
   width="23.504"
   height="7.8540001"
   id="rect7372" />

			<g
   id="g7376">
				<path
   style="fill:#111111"
   inkscape:connector-curvature="0"
   d="M 205.173,351.193 H 179.67 v -9.854 h 25.503 z m -23.503,-2 h 21.503 v -5.854 H 181.67 Z"
   id="path7374" />

			</g>

			<g
   id="g7380">
				<rect
   style="fill:#111111"
   x="136.554"
   y="227.703"
   width="20.862"
   height="2"
   id="rect7378" />

			</g>

			<g
   id="g7384">
				<rect
   style="fill:#111111"
   x="104.554"
   y="259.168"
   width="18.82"
   height="2"
   id="rect7382" />

			</g>

			<g
   id="g7388">
				<rect
   style="fill:#111111"
   x="104.554"
   y="247.084"
   width="18.82"
   height="2"
   id="rect7386" />

			</g>

		</g>
      <g
         transform="matrix(0.26458333,0,0,0.26458333,-343.20238,266.7619)"
         id="g7418">
			<g
   id="g7394">
				<path
   style="fill:#e6e6e6"
   inkscape:connector-curvature="0"
   d="m 429.162,142.184 c -5.139,0 -9.904,1.519 -13.84,4.236 -2.669,-3.033 -6.34,-5.186 -10.506,-5.879 0.173,-1.169 0.262,-2.374 0.262,-3.59 0,-13.471 -10.921,-24.406 -24.396,-24.406 -13.472,0 -24.398,10.922 -24.398,24.392 0,1.989 0.245,3.918 0.694,5.763 -1.805,-0.424 -3.69,-0.516 -5.625,-0.516 -13.475,0 -24.396,11.205 -24.396,24.536 h 126.606 c 0,-13.331 -10.921,-24.536 -24.401,-24.536 z"
   id="path7392" />

			</g>

			<g
   id="g7416">
				<g
   id="g7398">
					<path
   style="fill:#111111"
   inkscape:connector-curvature="0"
   d="m 325.956,167.72 h 44.488 v -2 h -42.468 c 0.523,-12.516 10.808,-22.536 23.376,-22.536 v -2 c -14.004,0 -25.396,11.455 -25.396,25.536 z"
   id="path7396" />

				</g>

				<g
   id="g7402">
					<path
   style="fill:#111111"
   inkscape:connector-curvature="0"
   d="m 363.42,121.146 c 2.113,-2.307 4.617,-4.139 7.442,-5.447 l -0.84,-1.814 c -3.068,1.42 -5.785,3.408 -8.077,5.912 z"
   id="path7400" />

				</g>

				<g
   id="g7406">
					<path
   style="fill:#111111"
   inkscape:connector-curvature="0"
   d="m 401.236,125.764 1.756,-0.957 c -3.078,-5.646 -8.117,-9.885 -14.19,-11.935 l -0.64,1.895 c 5.595,1.888 10.238,5.794 13.074,10.997 z"
   id="path7404" />

				</g>

				<g
   id="g7410">
					<path
   style="fill:#111111"
   inkscape:connector-curvature="0"
   d="m 410.557,167.72 h 44.006 v -1 c 0,-14.081 -11.395,-25.536 -25.399,-25.536 -4.945,0 -9.657,1.357 -13.684,3.932 -1.284,-1.334 -2.744,-2.469 -4.351,-3.379 l -0.986,1.738 c 1.664,0.945 3.154,2.158 4.43,3.605 l 0.587,0.668 0.731,-0.506 c 3.845,-2.654 8.435,-4.059 13.272,-4.059 12.569,0 22.856,10.021 23.379,22.536 h -41.985 z"
   id="path7408" />

				</g>

				<g
   id="g7414">
					<rect
   style="fill:#111111"
   x="388.45801"
   y="165.72"
   width="15.132"
   height="2"
   id="rect7412" />

				</g>

			</g>

		</g>
      <g
         transform="matrix(0.26458333,0,0,0.26458333,-343.20238,266.7619)"
         id="g7422">
			<path
   style="fill:#7c7e82"
   inkscape:connector-curvature="0"
   d="m 603.607,159.792 c 2.328,0 4.487,0.688 6.27,1.919 1.21,-1.373 2.872,-2.35 4.759,-2.664 -0.078,-0.529 -0.119,-1.076 -0.119,-1.626 0,-6.103 4.948,-11.057 11.052,-11.057 6.104,0 11.054,4.946 11.054,11.05 0,0.903 -0.111,1.775 -0.314,2.611 0.817,-0.193 1.67,-0.233 2.547,-0.233 6.104,0 11.053,5.074 11.053,11.113 h -57.354 c -10e-4,-6.039 4.947,-11.113 11.052,-11.113 z"
   id="path7420" />

		</g>
      <g
         transform="matrix(0.26458333,0,0,0.26458333,-343.20238,266.7619)"
         id="g7464">
			<rect
   style="fill:#ffffff"
   x="383.89401"
   y="125.971"
   width="22.58"
   height="244.94501"
   id="rect7424" />

			<g
   id="g7428">
				<rect
   style="fill:#7c7e82"
   x="383.89401"
   y="141.646"
   width="22.58"
   height="34.625"
   id="rect7426" />

			</g>

			<g
   id="g7432">
				<rect
   style="fill:#7c7e82"
   x="383.89401"
   y="206.965"
   width="22.58"
   height="34.624001"
   id="rect7430" />

			</g>

			<rect
   style="fill:#ffffff"
   x="380.51999"
   y="120.135"
   width="29.327999"
   height="5.836"
   id="rect7434" />

			<g
   id="g7438">
				<path
   style="fill:#111111"
   inkscape:connector-curvature="0"
   d="M 410.848,126.971 H 379.52 v -7.836 h 31.328 z m -29.328,-2 h 27.328 v -3.836 H 381.52 Z"
   id="path7436" />

			</g>

			<g
   id="g7442">
				<path
   style="fill:#111111"
   inkscape:connector-curvature="0"
   d="m 407.474,371.916 h -24.58 V 124.971 h 24.58 z m -22.58,-2 h 20.58 V 126.971 h -20.58 z"
   id="path7440" />

			</g>

			<rect
   style="fill:#ffffff"
   x="244.168"
   y="135.367"
   width="21.714001"
   height="235.549"
   id="rect7444" />

			<g
   id="g7448">
				<rect
   style="fill:#7c7e82"
   x="244.168"
   y="150.44099"
   width="21.714001"
   height="33.296001"
   id="rect7446" />

			</g>

			<g
   id="g7452">
				<rect
   style="fill:#7c7e82"
   x="244.168"
   y="213.254"
   width="21.714001"
   height="33.294998"
   id="rect7450" />

			</g>

			<rect
   style="fill:#ffffff"
   x="240.923"
   y="129.754"
   width="28.202999"
   height="5.6129999"
   id="rect7454" />

			<g
   id="g7458">
				<path
   style="fill:#111111"
   inkscape:connector-curvature="0"
   d="M 266.881,371.916 H 243.168 V 134.367 h 23.713 z m -21.713,-2 h 19.713 V 136.367 h -19.713 z"
   id="path7456" />

			</g>

			<g
   id="g7462">
				<path
   style="fill:#111111"
   inkscape:connector-curvature="0"
   d="m 270.126,136.367 h -30.203 v -7.613 h 30.203 z m -28.203,-2 h 26.203 v -3.613 h -26.203 z"
   id="path7460" />

			</g>

		</g>
      <g
         transform="matrix(0.26458333,0,0,0.26458333,-343.20238,266.7619)"
         id="g7960">
			<g
   id="g7936">
				<g
   id="g7918">
					<path
   style="fill:#ffffff"
   inkscape:connector-curvature="0"
   d="m 489.561,236.282 c 0,-10.96 0,-44.487 0,-44.487 h -65.743 c 0,0 0,33.527 0,44.487 0,44.849 -21.026,134.705 -21.026,134.705 h 107.796 c -0.001,0 -21.027,-89.856 -21.027,-134.705 z"
   id="path7916" />

				</g>

				<g
   id="g7922">
					<rect
   style="fill:#ea572e"
   x="423.81699"
   y="196.392"
   width="65.749001"
   height="10.461"
   id="rect7920" />

				</g>

				<g
   id="g7926">
					<rect
   style="fill:#ea572e"
   x="423.81699"
   y="216.744"
   width="65.749001"
   height="10.461"
   id="rect7924" />

				</g>

				<g
   id="g7932">
					<g
   id="g7930">
						<path
   style="fill:#111111"
   inkscape:connector-curvature="0"
   d="M 511.848,371.987 H 401.53 l 0.287,-1.228 c 0.21,-0.898 21,-90.258 21,-134.478 v -45.487 h 67.743 v 45.487 c 0,44.222 20.79,133.579 21,134.478 z m -107.8,-2 H 509.33 c -2.511,-10.958 -20.77,-92.101 -20.77,-133.705 v -43.487 h -63.743 v 43.487 c 0,41.605 -18.258,122.747 -20.769,133.705 z"
   id="path7928" />

					</g>

				</g>

				<path
   style="fill:#ea572e"
   inkscape:connector-curvature="0"
   d="m 422.259,190.795 c -2.984,0 -5.413,-2.428 -5.413,-5.412 0,-2.986 2.429,-5.414 5.413,-5.414 h 68.86 c 2.984,0 5.413,2.428 5.413,5.414 0,2.984 -2.429,5.412 -5.413,5.412 z"
   id="path7934" />

			</g>

			<g
   id="g7958">
				<g
   id="g7940">
					<path
   style="fill:#ffffff"
   inkscape:connector-curvature="0"
   d="m 361.462,214.905 c 0,-12.698 0,-51.546 0,-51.546 h -76.177 c 0,0 0,38.848 0,51.546 0,51.966 -24.362,156.082 -24.362,156.082 h 124.902 c 0,0 -24.363,-104.116 -24.363,-156.082 z"
   id="path7938" />

				</g>

				<g
   id="g7944">
					<rect
   style="fill:#ea572e"
   x="285.28601"
   y="168.686"
   width="76.183998"
   height="12.12"
   id="rect7942" />

				</g>

				<g
   id="g7948">
					<rect
   style="fill:#ea572e"
   x="285.28601"
   y="192.267"
   width="76.183998"
   height="12.12"
   id="rect7946" />

				</g>

				<g
   id="g7954">
					<g
   id="g7952">
						<path
   style="fill:#111111"
   inkscape:connector-curvature="0"
   d="M 387.086,371.987 H 259.663 l 0.287,-1.228 c 0.243,-1.041 24.336,-104.6 24.336,-155.854 v -52.546 h 78.177 v 52.546 c 0,51.255 24.093,154.813 24.336,155.854 z m -124.905,-2 H 384.568 C 381.839,358.092 360.463,263.349 360.463,214.905 v -50.546 h -74.177 v 50.546 c 0,48.445 -21.376,143.188 -24.105,155.082 z"
   id="path7950" />

					</g>

				</g>

				<path
   style="fill:#ea572e"
   inkscape:connector-curvature="0"
   d="m 283.386,162.42 c -3.458,0 -6.271,-2.814 -6.271,-6.273 0,-3.459 2.813,-6.271 6.271,-6.271 h 79.788 c 3.458,0 6.272,2.813 6.272,6.271 0,3.458 -2.814,6.273 -6.272,6.273 z"
   id="path7956" />

			</g>

		</g>
      <g
         transform="matrix(0.26458333,0,0,0.26458333,-343.20238,266.7619)"
         id="g8066">
			<rect
   style="fill:#7c7e82"
   x="412.384"
   y="249.299"
   width="18.429001"
   height="21.927999"
   id="rect7962" />

			<rect
   style="fill:#ea572e"
   x="410.651"
   y="240.739"
   width="21.893999"
   height="7.6069999"
   id="rect7964" />

			<rect
   style="fill:#7c7e82"
   x="490.82401"
   y="249.299"
   width="18.43"
   height="21.927999"
   id="rect7966" />

			<rect
   style="fill:#ea572e"
   x="489.09201"
   y="240.739"
   width="21.895"
   height="7.6069999"
   id="rect7968" />

			<rect
   style="fill:#7c7e82"
   x="568.87201"
   y="249.299"
   width="18.429001"
   height="21.927999"
   id="rect7970" />

			<g
   id="g7974">
				<path
   style="fill:#111111"
   inkscape:connector-curvature="0"
   d="m 431.813,272.227 h -20.429 v -23.928 h 20.429 z m -18.429,-2 h 16.429 v -19.928 h -16.429 z"
   id="path7972" />

			</g>

			<g
   id="g7978">
				<path
   style="fill:#111111"
   inkscape:connector-curvature="0"
   d="m 510.254,272.227 h -20.43 v -23.928 h 20.43 z m -18.43,-2 h 16.43 v -19.928 h -16.43 z"
   id="path7976" />

			</g>

			<g
   id="g7982">
				<path
   style="fill:#111111"
   inkscape:connector-curvature="0"
   d="m 588.301,272.227 h -20.429 v -23.928 h 20.429 z m -18.429,-2 h 16.429 v -19.928 h -16.429 z"
   id="path7980" />

			</g>

			<rect
   style="fill:#ea572e"
   x="567.13898"
   y="240.739"
   width="21.895"
   height="7.6069999"
   id="rect7984" />

			<polygon
   style="fill:#f3a52d"
   points="607.258,285.37 528.585,251.975 528.585,285.104 450.538,251.975 450.538,285.271 372.097,251.975 372.097,371.252 607.258,371.252 "
   id="polygon7986" />

			<g
   id="g7990">
				<path
   style="fill:#111111"
   inkscape:connector-curvature="0"
   d="M 608.258,372.252 H 371.097 V 250.464 l 78.441,33.297 v -33.297 l 78.047,33.13 v -33.13 l 80.673,34.244 z m -235.161,-2 h 233.161 v -84.22 l -76.673,-32.547 v 33.13 l -78.047,-33.13 v 33.297 l -78.441,-33.297 z"
   id="path7988" />

			</g>

			<polygon
   style="fill:#7c7e82"
   points="450.55,285.125 450.55,277.912 366.784,242.031 366.784,249.698 "
   id="polygon7992" />

			<g
   id="g7996">
				<path
   style="fill:#111111"
   inkscape:connector-curvature="0"
   d="m 409.84,299.687 h -29.092 v -26.761 h 29.092 z m -27.092,-2 h 25.092 v -22.761 h -25.092 z"
   id="path7994" />

			</g>

			<rect
   style="fill:#ffffff"
   x="381.74799"
   y="304.33801"
   width="27.091999"
   height="26.077999"
   id="rect7998" />

			<rect
   style="fill:#3dc7d2"
   x="381.74799"
   y="336.06799"
   width="27.091999"
   height="24.76"
   id="rect8000" />

			<rect
   style="fill:#ffffff"
   x="414.58899"
   y="304.33801"
   width="27.091999"
   height="26.077999"
   id="rect8002" />

			<rect
   style="fill:#ffffff"
   x="414.58899"
   y="336.06799"
   width="27.091999"
   height="24.76"
   id="rect8004" />

			<polygon
   style="fill:#7c7e82"
   points="528.585,285.104 528.585,277.87 445.225,242.031 445.225,249.719 "
   id="polygon8006" />

			<g
   id="g8010">
				<path
   style="fill:#111111"
   inkscape:connector-curvature="0"
   d="m 451.55,286.635 -85.766,-36.273 v -9.846 l 85.766,36.736 z m -83.766,-37.6 81.766,34.582 v -5.045 l -81.766,-35.025 z"
   id="path8008" />

			</g>

			<g
   id="g8014">
				<path
   style="fill:#111111"
   inkscape:connector-curvature="0"
   d="m 529.585,286.615 -85.36,-36.234 v -9.868 l 85.36,36.698 z m -83.36,-37.558 81.36,34.537 v -5.064 l -81.36,-34.979 z"
   id="path8012" />

			</g>

			<rect
   style="fill:#ffffff"
   x="460.18799"
   y="273.92599"
   width="27.091999"
   height="24.761"
   id="rect8016" />

			<g
   id="g8020">
				<path
   style="fill:#111111"
   inkscape:connector-curvature="0"
   d="m 488.28,331.416 h -29.092 v -28.078 h 29.092 z m -27.092,-2 h 25.092 v -24.078 h -25.092 z"
   id="path8018" />

			</g>

			<rect
   style="fill:#ffffff"
   x="460.18799"
   y="336.06799"
   width="27.091999"
   height="24.76"
   id="rect8022" />

			<rect
   style="fill:#3dc7d2"
   x="495.707"
   y="304.33801"
   width="27.093"
   height="26.077999"
   id="rect8024" />

			<rect
   style="fill:#ffffff"
   x="493.02899"
   y="336.06799"
   width="27.093"
   height="24.76"
   id="rect8026" />

			<polygon
   style="fill:#7c7e82"
   points="611.636,280.092 523.272,242.031 523.272,249.741 611.636,287.32 "
   id="polygon8028" />

			<g
   id="g8032">
				<path
   style="fill:#111111"
   inkscape:connector-curvature="0"
   d="m 612.636,288.833 -90.363,-38.431 v -9.891 l 90.363,38.922 z m -88.364,-39.753 86.363,36.729 v -5.059 l -86.363,-37.199 z"
   id="path8030" />

			</g>

			<rect
   style="fill:#ffffff"
   x="538.23499"
   y="273.92599"
   width="27.093"
   height="24.761"
   id="rect8034" />

			<rect
   style="fill:#ffffff"
   x="538.23499"
   y="304.33801"
   width="27.093"
   height="26.077999"
   id="rect8036" />

			<rect
   style="fill:#3dc7d2"
   x="538.23499"
   y="336.06799"
   width="27.093"
   height="24.76"
   id="rect8038" />

			<rect
   style="fill:#ffffff"
   x="571.07703"
   y="304.33801"
   width="27.091999"
   height="26.077999"
   id="rect8040" />

			<g
   id="g8044">
				<path
   style="fill:#111111"
   inkscape:connector-curvature="0"
   d="m 599.169,361.828 h -29.092 v -26.76 h 29.092 z m -27.092,-2 h 25.092 v -22.76 h -25.092 z"
   id="path8042" />

			</g>

			<g
   id="g8054">
				<g
   id="g8048">
					<rect
   style="fill:#111111"
   x="527.58502"
   y="282.82001"
   width="2"
   height="26.5"
   id="rect8046" />

				</g>

				<g
   id="g8052">
					<rect
   style="fill:#111111"
   x="527.58502"
   y="318.15399"
   width="2"
   height="17.829"
   id="rect8050" />

				</g>

			</g>

			<g
   id="g8064">
				<g
   id="g8058">
					<rect
   style="fill:#111111"
   x="449.54999"
   y="318.39801"
   width="2"
   height="26.5"
   id="rect8056" />

				</g>

				<g
   id="g8062">
					<rect
   style="fill:#111111"
   x="449.54999"
   y="291.73499"
   width="2"
   height="17.829"
   id="rect8060" />

				</g>

			</g>

		</g>
      <g
         transform="matrix(0.26458333,0,0,0.26458333,-325.21058,266.7619)"
         id="g8223">
			<circle
   style="fill:#7c7e82"
   cx="184.045"
   cy="362.25699"
   r="8.8870001"
   id="circle8109" />

			<circle
   style="fill:#7c7e82"
   cx="274.96301"
   cy="362.25699"
   r="8.8870001"
   id="circle8111" />

			<g
   id="g8115">
				<path
   style="fill:#111111"
   inkscape:connector-curvature="0"
   d="m 184.045,372.145 c -5.452,0 -9.887,-4.436 -9.887,-9.888 0,-5.452 4.436,-9.888 9.887,-9.888 5.451,0 9.887,4.436 9.887,9.888 0,5.452 -4.435,9.888 -9.887,9.888 z m 0,-17.776 c -4.349,0 -7.887,3.539 -7.887,7.888 0,4.35 3.538,7.888 7.887,7.888 4.349,0 7.887,-3.538 7.887,-7.888 0.001,-4.349 -3.537,-7.888 -7.887,-7.888 z"
   id="path8113" />

			</g>

			<g
   id="g8119">
				<path
   style="fill:#111111"
   inkscape:connector-curvature="0"
   d="m 274.963,372.145 c -5.452,0 -9.887,-4.436 -9.887,-9.888 0,-5.452 4.436,-9.888 9.887,-9.888 5.451,0 9.887,4.436 9.887,9.888 0,5.452 -4.435,9.888 -9.887,9.888 z m 0,-17.776 c -4.349,0 -7.887,3.539 -7.887,7.888 0,4.35 3.538,7.888 7.887,7.888 4.349,0 7.887,-3.538 7.887,-7.888 0,-4.349 -3.538,-7.888 -7.887,-7.888 z"
   id="path8117" />

			</g>

			<rect
   style="fill:#7c7e82"
   x="178.89101"
   y="304.48801"
   width="13.859"
   height="50.925999"
   id="rect8121" />

			<path
   style="fill:#ea572e"
   inkscape:connector-curvature="0"
   d="m 293.772,308.202 c -0.251,-1.026 -0.585,-2.005 -1.015,-2.936 -2.518,-5.502 -8.067,-9.31 -14.5,-9.31 h -33.941 v 59.457 h 49.885 v -43.512 c 0,-1.276 -0.155,-2.517 -0.429,-3.699 z"
   id="path8123" />

			<rect
   style="fill:#e6e6e6"
   x="263.89899"
   y="345.85199"
   width="30.302"
   height="2.937"
   id="rect8125" />

			<path
   style="fill:#e6e6e6"
   inkscape:connector-curvature="0"
   d="m 293.772,308.202 h -30.301 c -0.239,-1.026 -0.585,-2.005 -1.015,-2.936 h 30.301 c 0.43,0.931 0.764,1.91 1.015,2.936 z"
   id="path8127" />

			<g
   id="g8131">
				<path
   style="fill:#111111"
   inkscape:connector-curvature="0"
   d="m 295.202,356.414 h -51.886 v -61.457 h 34.941 c 6.61,0 12.659,3.884 15.409,9.894 0.444,0.962 0.807,2.011 1.077,3.114 l 0.003,0.012 c 0.302,1.301 0.456,2.622 0.456,3.926 z m -49.886,-2 h 47.886 v -42.512 c 0,-1.149 -0.135,-2.316 -0.402,-3.468 -0.239,-0.977 -0.559,-1.901 -0.95,-2.749 -2.427,-5.303 -7.762,-8.729 -13.592,-8.729 h -32.941 v 57.458 z"
   id="path8129" />

			</g>

			<path
   style="fill:#e6e6e6"
   inkscape:connector-curvature="0"
   d="m 178.891,304.488 h -23.996 c 0,0 -12.265,1.066 -12.265,14.265 0,13.199 0,11.198 0,11.198 0,0 -4.933,1.6 -4.933,5.467 0,3.865 0,5.998 0,5.998 h 41.193 v -36.928 z"
   id="path8133" />

			<ellipse
   style="fill:#ea572e"
   cx="137.625"
   cy="348.52701"
   rx="2.3989999"
   ry="4.3109999"
   id="ellipse8135" />

			<rect
   style="fill:#f3a52d"
   x="137.698"
   y="341.41599"
   width="41.193001"
   height="13.998"
   id="rect8137" />

			<g
   id="g8141">
				<path
   style="fill:#111111"
   inkscape:connector-curvature="0"
   d="m 179.891,356.414 h -43.193 v -20.997 c 0,-3.618 3.424,-5.497 4.933,-6.148 v -10.516 c 0,-13.954 13.046,-15.249 13.178,-15.261 l 0.086,-0.004 h 24.996 z m -41.193,-2 h 39.193 v -48.926 h -22.948 c -0.856,0.088 -11.313,1.41 -11.313,13.265 v 11.926 l -0.691,0.224 c -0.041,0.014 -4.241,1.432 -4.241,4.515 z"
   id="path8139" />

			</g>

			<path
   style="fill:#7c7e82"
   inkscape:connector-curvature="0"
   d="m 295.736,355.414 h -64.111 v 6.666 h 64.111 c 1.84,0 3.333,-1.492 3.333,-3.334 0,-1.84 -1.492,-3.332 -3.333,-3.332 z"
   id="path8143" />

			<g
   id="g8147">
				<path
   style="fill:#111111"
   inkscape:connector-curvature="0"
   d="m 295.736,363.08 h -65.111 v -8.666 h 65.111 c 2.389,0 4.333,1.943 4.333,4.333 0,2.39 -1.944,4.333 -4.333,4.333 z m -63.111,-2 h 63.111 c 1.286,0 2.333,-1.047 2.333,-2.333 0,-1.286 -1.046,-2.333 -2.333,-2.333 h -63.111 z"
   id="path8145" />

			</g>

			<path
   style="fill:#7c7e82"
   inkscape:connector-curvature="0"
   d="m 138.02,355.414 h 32.739 93.442 c 1.841,0 3.333,1.492 3.333,3.333 v 0 c 0,1.841 -1.492,3.333 -3.333,3.333 h -93.442 -32.928 c -1.901,0 -3.429,-1.592 -3.328,-3.514 0.095,-1.801 1.712,-3.152 3.517,-3.152 z"
   id="path8149" />

			<g
   id="g8153">
				<path
   style="fill:#111111"
   inkscape:connector-curvature="0"
   d="m 264.201,363.08 h -126.37 c -1.183,0 -2.329,-0.492 -3.144,-1.352 -0.826,-0.871 -1.247,-2.012 -1.183,-3.215 0.121,-2.299 2.104,-4.1 4.515,-4.1 H 264.2 c 2.389,0 4.333,1.943 4.333,4.333 0,2.39 -1.943,4.334 -4.332,4.334 z M 138.02,356.414 c -1.325,0 -2.454,0.989 -2.518,2.205 -0.034,0.648 0.192,1.264 0.637,1.732 0.445,0.47 1.046,0.729 1.693,0.729 h 126.37 c 1.287,0 2.333,-1.047 2.333,-2.333 0,-1.286 -1.046,-2.333 -2.333,-2.333 H 138.02 Z"
   id="path8151" />

			</g>

			<path
   style="fill:#f3a52d"
   inkscape:connector-curvature="0"
   d="m 263.9,311.902 v 43.512 h -78.611 v -43.512 c 0,-1.277 0.155,-2.519 0.43,-3.7 0.25,-1.026 0.584,-2.005 1.014,-2.936 2.518,-5.502 8.068,-9.31 14.5,-9.31 h 46.723 c 1.206,0 2.387,0.132 3.521,0.395 4.893,1.098 8.939,4.451 10.979,8.915 0.926,1.767 1.444,4.829 1.444,6.636 z"
   id="path8155" />

			<rect
   style="fill:#ffffff"
   x="185.28999"
   y="345.85199"
   width="78.609001"
   height="2.938"
   id="rect8157" />

			<path
   style="fill:#ffffff"
   inkscape:connector-curvature="0"
   d="m 263.471,308.202 h -77.752 c 0.251,-1.026 0.585,-2.005 1.015,-2.936 h 75.723 c 0.429,0.931 0.775,1.91 1.014,2.936 z"
   id="path8159" />

			<g
   id="g8163">
				<path
   style="fill:#111111"
   inkscape:connector-curvature="0"
   d="m 264.9,356.414 h -80.611 v -44.512 c 0,-1.304 0.153,-2.625 0.456,-3.926 0.272,-1.114 0.634,-2.163 1.081,-3.129 2.749,-6.007 8.797,-9.891 15.408,-9.891 h 46.723 c 1.283,0 2.544,0.142 3.746,0.42 5.113,1.148 9.476,4.689 11.664,9.474 0.952,1.814 1.535,5.024 1.535,7.052 v 44.512 z m -78.611,-2 H 262.9 v -42.512 c 0,-1.747 -0.508,-4.604 -1.33,-6.172 -1.953,-4.267 -5.799,-7.391 -10.313,-8.403 -1.062,-0.245 -2.17,-0.37 -3.302,-0.37 h -46.723 c -5.831,0 -11.166,3.426 -13.591,8.726 -0.394,0.853 -0.713,1.778 -0.952,2.757 -0.266,1.143 -0.401,2.311 -0.401,3.463 v 42.511 z"
   id="path8161" />

			</g>

			
			<g
   id="g8169">
				
			</g>

			<path
   style="fill:#3dc7d2"
   inkscape:connector-curvature="0"
   d="m 174.092,307.955 v 22.529 H 145.43 l 1.933,-15.664 c 0,0 1.667,-6.865 8.065,-6.865 6.398,0 18.664,0 18.664,0 z"
   id="path8171" />

			<circle
   style="fill:#7c7e82"
   cx="148.02901"
   cy="332.81799"
   r="1.6670001"
   id="circle8173" />

			<g
   id="g8177">
				<path
   style="fill:#7c7e82"
   inkscape:connector-curvature="0"
   d="m 144.83,333.284 h 2.6 v -1.6 h -2.6 c -1.969,0 -2.344,-1.708 -2.4,-2.058 v -3.542 h -1.6 l 0.005,3.694 c 0.145,1.212 1.165,3.506 3.995,3.506 z"
   id="path8175" />

			</g>

			<path
   style="fill:#f3a52d"
   inkscape:connector-curvature="0"
   d="m 138.631,324.152 c 0,1.877 1.521,3.399 3.399,3.399 v 0 c 1.877,0 3.399,-1.522 3.399,-3.399 v -7.398 c 0,-1.878 -1.522,-3.4 -3.399,-3.4 v 0 c -1.878,0 -3.399,1.522 -3.399,3.4 z"
   id="path8179" />

			<rect
   style="fill:#7c7e82"
   x="166.826"
   y="333.88501"
   width="6.599"
   height="2.865"
   id="rect8181" />

			<path
   style="fill:#ea572e"
   inkscape:connector-curvature="0"
   d="m 140.186,347.07 c 0,0.742 0.602,1.345 1.344,1.345 h 3.488 c 0.742,0 1.344,-0.603 1.344,-1.345 v 0 c 0,-0.741 -0.602,-1.344 -1.344,-1.344 h -3.488 c -0.742,10e-4 -1.344,0.603 -1.344,1.344 z"
   id="path8183" />

			<path
   style="fill:#7c7e82"
   inkscape:connector-curvature="0"
   d="m 157.871,349.037 c 7.203,0 13.042,5.84 13.042,13.043 h -1.688 -24.396 c 0,-7.203 5.839,-13.043 13.042,-13.043 z"
   id="path8185" />

			<g
   id="g8189">
				<path
   style="fill:#111111"
   inkscape:connector-curvature="0"
   d="M 171.914,363.08 H 143.83 v -1 c 0,-7.744 6.299,-14.043 14.042,-14.043 7.743,0 14.042,6.299 14.042,14.043 z m -26.044,-2 h 24.002 c -0.51,-6.174 -5.698,-11.043 -12.001,-11.043 -6.303,0 -11.491,4.869 -12.001,11.043 z"
   id="path8187" />

			</g>

			<circle
   style="fill:#7c7e82"
   cx="157.87199"
   cy="362.25699"
   r="8.8870001"
   id="circle8191" />

			<circle
   style="fill:#e6e6e6"
   cx="157.871"
   cy="362.189"
   r="3.9990001"
   id="circle8193" />

			<path
   style="fill:#7c7e82"
   inkscape:connector-curvature="0"
   d="m 238.55,349.037 c 7.203,0 13.043,5.84 13.043,13.043 h -26.084 c -10e-4,-7.203 5.838,-13.043 13.041,-13.043 z"
   id="path8195" />

			<g
   id="g8199">
				<path
   style="fill:#111111"
   inkscape:connector-curvature="0"
   d="m 252.593,363.08 h -28.084 v -1 c 0,-7.744 6.299,-14.043 14.042,-14.043 7.743,0 14.043,6.299 14.043,14.043 v 1 z m -26.044,-2 h 24.002 c -0.51,-6.174 -5.698,-11.043 -12.002,-11.043 -6.302,0 -11.489,4.869 -12,11.043 z"
   id="path8197" />

			</g>

			<circle
   style="fill:#7c7e82"
   cx="238.55099"
   cy="362.25699"
   r="8.8870001"
   id="circle8201" />

			<g
   id="g8205">
				<path
   style="fill:#111111"
   inkscape:connector-curvature="0"
   d="m 157.872,372.145 c -5.452,0 -9.887,-4.436 -9.887,-9.888 0,-5.452 4.436,-9.888 9.887,-9.888 5.451,0 9.887,4.436 9.887,9.888 0,5.452 -4.436,9.888 -9.887,9.888 z m 0,-17.776 c -4.349,0 -7.887,3.539 -7.887,7.888 0,4.35 3.538,7.888 7.887,7.888 4.349,0 7.887,-3.538 7.887,-7.888 0,-4.349 -3.538,-7.888 -7.887,-7.888 z"
   id="path8203" />

			</g>

			<g
   id="g8209">
				<path
   style="fill:#111111"
   inkscape:connector-curvature="0"
   d="m 238.551,372.145 c -5.452,0 -9.887,-4.436 -9.887,-9.888 0,-5.452 4.436,-9.888 9.887,-9.888 5.451,0 9.887,4.436 9.887,9.888 0,5.452 -4.436,9.888 -9.887,9.888 z m 0,-17.776 c -4.349,0 -7.887,3.539 -7.887,7.888 0,4.35 3.538,7.888 7.887,7.888 4.349,0 7.887,-3.538 7.887,-7.888 0,-4.349 -3.539,-7.888 -7.887,-7.888 z"
   id="path8207" />

			</g>

			<circle
   style="fill:#e6e6e6"
   cx="238.55099"
   cy="362.189"
   r="3.9990001"
   id="circle8211" />

			<g
   id="g8215">
				
			</g>

			<g
   id="g8221">
				<g
   id="g8219">
					
				</g>

			</g>

		</g>
      <g
         transform="matrix(0.26458333,0,0,0.26458333,-343.20238,266.7619)"
         id="g8239">
			<g
   id="g8227">
				<path
   style="fill:#111111"
   inkscape:connector-curvature="0"
   d="m 705.824,367.573 h -7.883 c -0.754,0 -1.464,-0.294 -1.997,-0.827 -0.533,-0.534 -0.827,-1.243 -0.826,-1.998 l -0.001,-3.772 c -2.071,-0.554 -4.058,-1.364 -5.921,-2.421 l -2.658,2.658 c -1.066,1.066 -2.927,1.066 -3.994,0 l -5.574,-5.574 c -1.101,-1.102 -1.101,-2.894 0,-3.994 l 2.668,-2.668 c -1.074,-1.857 -1.903,-3.835 -2.475,-5.899 h -3.759 c -1.558,0 -2.825,-1.267 -2.825,-2.824 v -7.883 c 0,-1.558 1.268,-2.824 2.825,-2.824 h 3.773 c 0.553,-2.073 1.365,-4.059 2.421,-5.921 l -2.658,-2.658 c -1.101,-1.102 -1.102,-2.893 -0.001,-3.994 l 5.575,-5.574 c 1.066,-1.066 2.928,-1.067 3.994,0.001 l 2.667,2.667 c 1.856,-1.074 3.835,-1.904 5.899,-2.475 v -3.76 c 0,-1.557 1.268,-2.824 2.824,-2.824 h 7.883 c 1.558,0 2.824,1.268 2.824,2.824 v 3.773 c 2.072,0.554 4.058,1.365 5.922,2.422 l 2.657,-2.658 c 1.067,-1.067 2.928,-1.066 3.995,0 l 5.573,5.573 c 1.102,1.102 1.102,2.894 0,3.995 l -2.668,2.668 c 1.074,1.855 1.904,3.834 2.476,5.898 h 3.759 c 1.557,0 2.824,1.268 2.824,2.824 v 7.883 c 0,1.557 -1.268,2.824 -2.824,2.824 h -3.773 c -0.553,2.072 -1.365,4.059 -2.422,5.922 l 2.659,2.658 c 0.533,0.533 0.827,1.242 0.827,1.996 0,0.755 -0.294,1.465 -0.827,1.998 l -5.574,5.572 c -1.064,1.068 -2.928,1.068 -3.994,0 l -2.668,-2.667 c -1.857,1.075 -3.836,1.904 -5.899,2.476 v 3.759 c 0,1.558 -1.266,2.824 -2.824,2.824 z m -16.939,-11.535 0.671,0.409 c 2.104,1.279 4.388,2.213 6.789,2.774 l 0.772,0.181 0.001,5.347 c 0,0.22 0.085,0.427 0.241,0.583 0.155,0.155 0.362,0.241 0.582,0.241 h 7.883 c 0.455,0 0.824,-0.37 0.824,-0.824 v -5.319 l 0.764,-0.186 c 2.392,-0.581 4.667,-1.535 6.763,-2.838 l 0.674,-0.418 3.781,3.779 c 0.313,0.313 0.854,0.313 1.165,10e-4 l 5.575,-5.574 c 0.155,-0.155 0.241,-0.362 0.241,-0.583 0,-0.22 -0.086,-0.427 -0.241,-0.582 l -3.762,-3.762 0.409,-0.671 c 1.28,-2.103 2.214,-4.387 2.775,-6.789 l 0.181,-0.772 h 5.347 c 0.454,0 0.824,-0.369 0.824,-0.824 v -7.883 c 0,-0.455 -0.37,-0.824 -0.824,-0.824 h -5.317 l -0.187,-0.764 c -0.582,-2.393 -1.537,-4.668 -2.839,-6.763 l -0.419,-0.674 3.781,-3.78 c 0.321,-0.322 0.321,-0.846 0,-1.167 l -5.573,-5.573 c -0.312,-0.312 -0.855,-0.312 -1.167,0 l -3.76,3.76 -0.671,-0.408 c -2.104,-1.279 -4.389,-2.214 -6.79,-2.775 l -0.772,-0.18 v -5.348 c 0,-0.454 -0.369,-0.824 -0.824,-0.824 h -7.883 c -0.454,0 -0.824,0.37 -0.824,0.824 v 5.318 l -0.764,0.186 c -2.393,0.582 -4.668,1.537 -6.763,2.839 l -0.662,0.411 -0.561,-0.542 -3.232,-3.231 c -0.312,-0.312 -0.854,-0.311 -1.165,0 l -5.574,5.574 c -0.321,0.321 -0.321,0.844 0,1.166 l 3.761,3.76 -0.409,0.672 c -1.279,2.102 -2.213,4.387 -2.774,6.789 l -0.181,0.772 h -5.347 c -0.455,0 -0.825,0.37 -0.825,0.824 v 7.883 c 0,0.454 0.37,0.824 0.825,0.824 h 5.317 l 0.187,0.764 c 0.582,2.392 1.537,4.668 2.838,6.764 l 0.419,0.674 -3.781,3.78 c -0.321,0.321 -0.321,0.845 10e-4,1.166 l 5.573,5.574 c 0.312,0.311 0.854,0.311 1.166,0 z"
   id="path8225" />

			</g>

			<g
   id="g8231">
				<path
   style="clip-rule:evenodd;fill:#f3a52d;fill-rule:evenodd"
   inkscape:connector-curvature="0"
   d="m 701.862,356.522 c 11.173,0 20.231,-9.06 20.231,-20.232 0,-11.174 -9.059,-20.231 -20.231,-20.231 -11.174,0 -20.232,9.058 -20.232,20.231 0,11.173 9.058,20.232 20.232,20.232 z"
   id="path8229" />

			</g>

			<g
   id="g8237">
				<g
   id="g8235">
					<path
   style="fill:#111111"
   inkscape:connector-curvature="0"
   d="m 701.872,352.611 -0.032,-2 h 0.032 c 0.912,0 1.823,-0.086 2.708,-0.256 l 0.377,1.965 c -1.009,0.194 -2.047,0.291 -3.085,0.291 z m -4.171,-0.537 c -1.011,-0.268 -1.999,-0.633 -2.938,-1.088 l 0.872,-1.801 c 0.824,0.399 1.691,0.721 2.577,0.955 z m 11.221,-1.059 -0.864,-1.804 c 0.824,-0.396 1.616,-0.873 2.352,-1.422 l 1.194,1.605 c -0.839,0.624 -1.742,1.169 -2.682,1.621 z m -17.65,-2.314 c -0.794,-0.678 -1.525,-1.437 -2.176,-2.252 l 1.564,-1.246 c 0.571,0.717 1.214,1.382 1.911,1.979 z m 23.334,-2.201 -1.56,-1.252 c 0.574,-0.716 1.082,-1.489 1.508,-2.299 l 1.771,0.931 c -0.486,0.923 -1.064,1.805 -1.719,2.62 z m -27.67,-3.621 c -0.422,-0.956 -0.753,-1.957 -0.983,-2.975 l 1.95,-0.441 c 0.202,0.893 0.492,1.77 0.863,2.609 z m 30.841,-2.912 -1.949,-0.447 c 0.205,-0.891 0.325,-1.809 0.357,-2.727 l 1.999,0.068 c -0.037,1.047 -0.173,2.092 -0.407,3.106 z m -30.219,-4.15 -1.999,-0.066 c 0.035,-1.048 0.17,-2.093 0.4,-3.105 l 1.95,0.444 c -0.202,0.889 -0.32,1.806 -0.351,2.727 z m 28.29,-2.671 c -0.2,-0.893 -0.488,-1.771 -0.857,-2.611 l 1.832,-0.804 c 0.42,0.958 0.749,1.96 0.977,2.978 z m -26.673,-3.489 -1.771,-0.928 c 0.483,-0.924 1.061,-1.806 1.713,-2.623 l 1.563,1.249 c -0.575,0.717 -1.08,1.493 -1.505,2.302 z m 23.927,-2.257 c -0.57,-0.718 -1.212,-1.385 -1.908,-1.983 l 1.304,-1.517 c 0.792,0.681 1.522,1.439 2.171,2.257 z m -19.791,-2.591 -1.196,-1.604 c 0.839,-0.625 1.74,-1.172 2.679,-1.625 l 0.868,1.802 c -0.824,0.397 -1.615,0.876 -2.351,1.427 z m 14.824,-1.402 c -0.822,-0.401 -1.689,-0.724 -2.574,-0.959 l 0.514,-1.933 c 1.01,0.268 1.998,0.637 2.937,1.094 z m -8.999,-1.177 -0.38,-1.965 c 1.021,-0.197 2.069,-0.297 3.116,-0.297 l 0.063,2 h -0.086 c -0.897,10e-4 -1.818,0.089 -2.713,0.262 z"
   id="path8233" />

				</g>

			</g>

		</g>
      <g
         transform="matrix(0.26458333,0,0,0.26458333,-343.20238,266.7619)"
         id="g8243">
			<path
   style="fill:#111111"
   inkscape:connector-curvature="0"
   d="m 426.727,129.425 -1.414,-1.414 3.5,-3.499 c 0.728,-0.729 1.695,-1.129 2.724,-1.129 0.001,0 0.002,0 0.003,0 1.03,0 1.999,0.402 2.727,1.133 l 1.344,1.348 c 0.363,0.365 0.815,0.561 1.365,0.545 0.517,-0.016 0.99,-0.236 1.333,-0.623 l 1.252,-1.41 c 0.724,-0.814 1.764,-1.287 2.854,-1.295 1.073,-0.002 2.137,0.449 2.873,1.254 l 1.32,1.445 c 0.365,0.4 0.887,0.625 1.406,0.603 0.542,-0.011 1.032,-0.246 1.381,-0.661 l 1.052,-1.252 c 0.708,-0.844 1.746,-1.346 2.848,-1.375 1.082,-0.034 2.166,0.416 2.918,1.222 l 1.388,1.485 c 0.369,0.395 0.901,0.604 1.411,0.586 0.542,-0.017 1.029,-0.256 1.374,-0.674 l 0.998,-1.213 c 0.69,-0.838 1.707,-1.348 2.79,-1.399 1.095,-0.054 2.144,0.358 2.909,1.124 l 3.736,3.736 -1.414,1.414 -3.736,-3.736 c -0.374,-0.373 -0.859,-0.564 -1.399,-0.54 -0.528,0.025 -1.005,0.265 -1.342,0.673 l -0.998,1.213 c -0.706,0.857 -1.747,1.367 -2.855,1.402 -1.112,0.016 -2.178,-0.411 -2.935,-1.221 l -1.388,-1.485 c -0.367,-0.394 -0.857,-0.597 -1.403,-0.587 -0.538,0.014 -1.024,0.249 -1.37,0.66 l -1.052,1.253 c -0.714,0.851 -1.76,1.352 -2.87,1.374 -1.096,0.01 -2.176,-0.434 -2.925,-1.253 l -1.32,-1.444 c -0.358,-0.393 -0.894,-0.629 -1.382,-0.604 -0.532,0.004 -1.02,0.226 -1.372,0.623 l -1.252,1.41 c -0.703,0.792 -1.714,1.264 -2.771,1.294 -1.059,0.028 -2.093,-0.382 -2.839,-1.132 l -1.344,-1.348 c -0.352,-0.352 -0.808,-0.582 -1.313,-0.545 -0.494,0 -0.96,0.193 -1.31,0.543 z"
   id="path8241" />

		</g>
      <g
         transform="matrix(0.26458333,0,0,0.26458333,-343.20238,266.7619)"
         id="g8253">
			<path
   style="fill:#3dc7d2"
   inkscape:connector-curvature="0"
   d="m 729.545,272.074 h -2.094 c -0.284,-1.168 -0.751,-2.266 -1.368,-3.26 l 0.007,-0.007 1.48,-1.481 c 0.33,-0.328 0.33,-0.863 0,-1.191 l -2.575,-2.576 c -0.329,-0.329 -0.863,-0.33 -1.192,0 l -1.48,1.48 c -1.027,-0.625 -2.134,-1.07 -3.272,-1.338 v -0.009 -2.095 c 0,-0.466 -0.378,-0.844 -0.844,-0.844 h -3.643 c -0.466,0 -0.843,0.378 -0.843,0.844 v 2.094 c -1.169,0.285 -2.266,0.752 -3.26,1.369 l -0.007,-0.008 -1.481,-1.48 c -0.329,-0.329 -0.862,-0.329 -1.192,0 l -2.575,2.576 c -0.329,0.328 -0.329,0.863 0,1.191 l 1.48,1.481 c -0.625,1.027 -1.071,2.134 -1.337,3.272 h -0.01 -2.095 c -0.466,0 -0.843,0.377 -0.843,0.843 v 3.644 c 0,0.465 0.377,0.842 0.843,0.842 h 2.094 c 0.285,1.169 0.751,2.267 1.368,3.26 l -0.006,0.008 -1.481,1.48 c -0.329,0.33 -0.329,0.863 0,1.192 l 2.575,2.575 c 0.33,0.33 0.863,0.33 1.192,0 l 1.481,-1.48 c 1.027,0.625 2.133,1.071 3.272,1.338 v 0.01 2.094 c 0,0.466 0.377,0.844 0.843,0.844 h 3.643 c 0.466,0 0.843,-0.377 0.843,-0.844 v -2.094 c 1.169,-0.284 2.267,-0.751 3.26,-1.368 l 0.007,0.007 1.481,1.48 c 0.329,0.33 0.863,0.33 1.192,0 l 2.575,-2.575 c 0.33,-0.329 0.33,-0.862 0,-1.192 l -1.48,-1.48 c 0.625,-1.027 1.071,-2.133 1.338,-3.273 h 0.01 2.094 c 0.466,0 0.844,-0.377 0.844,-0.842 v -3.643 c 0,-0.467 -0.378,-0.844 -0.844,-0.844 z"
   id="path8245" />

			<g
   id="g8251">
				<g
   id="g8249">
					<path
   style="fill:#111111"
   inkscape:connector-curvature="0"
   d="m 716.399,282.828 -0.041,-2 h 0.041 c 0.911,0 1.786,-0.197 2.602,-0.583 l 0.857,1.807 c -1.086,0.514 -2.249,0.776 -3.459,0.776 z m -4.584,-1.426 c -0.99,-0.684 -1.831,-1.597 -2.43,-2.641 l 1.734,-0.994 c 0.451,0.785 1.084,1.473 1.831,1.988 z m 11.551,-2.559 -1.724,-1.015 c 0.466,-0.791 0.74,-1.656 0.815,-2.573 l 1.993,0.165 c -0.099,1.219 -0.465,2.37 -1.084,3.423 z m -13.029,-4.568 -1.994,-0.152 c 0.094,-1.221 0.452,-2.375 1.066,-3.43 l 1.729,1.006 c -0.461,0.793 -0.731,1.659 -0.801,2.576 z m 11.358,-2.516 c -0.445,-0.788 -1.075,-1.479 -1.818,-1.999 l 1.146,-1.641 c 0.986,0.689 1.821,1.607 2.414,2.655 z m -7.929,-2.493 -0.867,-1.801 c 1.098,-0.529 2.275,-0.797 3.501,-0.797 l 0.082,1 -0.082,1 c -0.923,0 -1.81,0.201 -2.634,0.598 z"
   id="path8247" />

				</g>

			</g>

		</g>
      <g
         transform="matrix(0.26458333,0,0,0.26458333,-343.20238,266.7619)"
         id="g8257">
			<rect
   style="fill:#111111"
   x="525.961"
   y="131.056"
   width="19"
   height="2"
   id="rect8255" />

		</g>
      <g
         transform="matrix(0.26458333,0,0,0.26458333,-343.20238,266.7619)"
         id="g8261">
			<rect
   style="fill:#111111"
   x="490.82401"
   y="125.764"
   width="16.15"
   height="2"
   id="rect8259" />

		</g>
      <g
         transform="matrix(0.26458333,0,0,0.26458333,-343.20238,266.7619)"
         id="g8265">
			<rect
   style="fill:#111111"
   x="686.987"
   y="182.045"
   width="19"
   height="2"
   id="rect8263" />

		</g>
      <g
         transform="matrix(0.26458333,0,0,0.26458333,-343.20238,266.7619)"
         id="g8269">
			<rect
   style="fill:#111111"
   x="591.76099"
   y="137.92799"
   width="19"
   height="2"
   id="rect8267" />

		</g>
      <g
         transform="matrix(0.26458333,0,0,0.26458333,-343.20238,266.7619)"
         id="g8273">
			<rect
   style="fill:#111111"
   x="184.85699"
   y="131.056"
   width="16.15"
   height="2"
   id="rect8271" />

		</g>
      <g
         transform="matrix(0.26458333,0,0,0.26458333,-343.20238,266.7619)"
         id="g8277">
			<rect
   style="fill:#111111"
   x="76.906998"
   y="233.53999"
   width="16.15"
   height="2"
   id="rect8275" />

		</g>
      <g
         transform="matrix(0.26458333,0,0,0.26458333,-343.20238,266.7619)"
         id="g8291">
			<g
   id="g8281">
				<rect
   style="fill:#111111"
   x="506.31799"
   y="151.675"
   width="19"
   height="2"
   id="rect8279" />

			</g>

			<g
   id="g8285">
				<rect
   style="fill:#111111"
   x="528.98401"
   y="151.675"
   width="8.5"
   height="2"
   id="rect8283" />

			</g>

			<g
   id="g8289">
				<path
   style="fill:#111111"
   inkscape:connector-curvature="0"
   d="m 545.392,156.935 c -2.349,0 -4.26,-1.911 -4.26,-4.26 0,-2.349 1.911,-4.26 4.26,-4.26 2.349,0 4.26,1.911 4.26,4.26 0,2.349 -1.912,4.26 -4.26,4.26 z m 0,-6.52 c -1.246,0 -2.26,1.014 -2.26,2.26 0,1.246 1.014,2.26 2.26,2.26 1.246,0 2.26,-1.014 2.26,-2.26 0,-1.246 -1.014,-2.26 -2.26,-2.26 z"
   id="path8287" />

			</g>

		</g>
      <g
         transform="matrix(0.26458333,0,0,0.26458333,-343.20238,266.7619)"
         id="g8305">
			<g
   id="g8295">
				<rect
   style="fill:#111111"
   x="666.24298"
   y="158.791"
   width="19"
   height="2"
   id="rect8293" />

			</g>

			<g
   id="g8299">
				<rect
   style="fill:#111111"
   x="688.909"
   y="158.791"
   width="8.5"
   height="2"
   id="rect8297" />

			</g>

			<g
   id="g8303">
				<path
   style="fill:#111111"
   inkscape:connector-curvature="0"
   d="m 705.316,164.05 c -2.349,0 -4.26,-1.911 -4.26,-4.259 0,-2.35 1.911,-4.261 4.26,-4.261 2.349,0 4.26,1.911 4.26,4.261 0,2.348 -1.911,4.259 -4.26,4.259 z m 0,-6.52 c -1.246,0 -2.26,1.014 -2.26,2.261 0,1.246 1.014,2.259 2.26,2.259 1.246,0 2.26,-1.013 2.26,-2.259 0,-1.247 -1.013,-2.261 -2.26,-2.261 z"
   id="path8301" />

			</g>

		</g>
      <g
         transform="matrix(0.26458333,0,0,0.26458333,-343.20238,266.7619)"
         id="g8319">
			<g
   id="g8309">
				<rect
   style="fill:#111111"
   x="314.09399"
   y="127.053"
   width="19"
   height="2"
   id="rect8307" />

			</g>

			<g
   id="g8313">
				<rect
   style="fill:#111111"
   x="301.92801"
   y="127.053"
   width="8.5"
   height="2"
   id="rect8311" />

			</g>

			<g
   id="g8317">
				<path
   style="fill:#111111"
   inkscape:connector-curvature="0"
   d="m 294.021,132.313 c -2.349,0 -4.26,-1.911 -4.26,-4.26 0,-2.35 1.911,-4.26 4.26,-4.26 2.349,0 4.26,1.91 4.26,4.26 0,2.348 -1.911,4.26 -4.26,4.26 z m 0,-6.52 c -1.246,0 -2.26,1.014 -2.26,2.26 0,1.246 1.014,2.26 2.26,2.26 1.246,0 2.26,-1.014 2.26,-2.26 0,-1.246 -1.014,-2.26 -2.26,-2.26 z"
   id="path8315" />

			</g>

		</g>
      <g
         transform="matrix(0.26458333,0,0,0.26458333,-343.20238,266.7619)"
         id="g8333">
			<g
   id="g8323">
				<rect
   style="fill:#111111"
   x="79.556999"
   y="253.271"
   width="19"
   height="2"
   id="rect8321" />

			</g>

			<g
   id="g8327">
				<rect
   style="fill:#111111"
   x="67.390999"
   y="253.271"
   width="8.5"
   height="2"
   id="rect8325" />

			</g>

			<g
   id="g8331">
				<path
   style="fill:#111111"
   inkscape:connector-curvature="0"
   d="m 59.483,258.53 c -2.349,0 -4.26,-1.911 -4.26,-4.26 0,-2.349 1.911,-4.261 4.26,-4.261 2.349,0 4.26,1.912 4.26,4.261 0,2.349 -1.911,4.26 -4.26,4.26 z m 0,-6.52 c -1.246,0 -2.26,1.015 -2.26,2.261 0,1.246 1.014,2.26 2.26,2.26 1.246,0 2.26,-1.014 2.26,-2.26 0,-1.246 -1.014,-2.261 -2.26,-2.261 z"
   id="path8329" />

			</g>

		</g>
      <g
         transform="matrix(0.26458333,0,0,0.26458333,-343.20238,266.7619)"
         id="g8337">
			<polygon
   style="fill:#111111"
   points="168.872,146.684 162.309,152.852 154.802,146.633 148.057,152.853 140.735,146.648 133.829,152.673 126.684,147.123 120.167,152.168 118.942,150.588 126.686,144.592 133.755,150.083 140.717,144.012 148.001,150.184 154.732,143.978 162.226,150.186 168.746,144.057 177.117,150.538 175.892,152.119 "
   id="polygon8335" />

		</g>
      <g
         transform="matrix(0.26458333,0,0,0.26458333,-343.20238,266.7619)"
         id="g8341">
			<path
   style="fill:#111111"
   inkscape:connector-curvature="0"
   d="m 146.364,179.613 c -0.761,0 -1.476,-0.297 -2.014,-0.835 l -2.032,-2.032 c -0.538,-0.538 -0.834,-1.254 -0.834,-2.014 0,-0.762 0.296,-1.477 0.834,-2.016 l 2.032,-2.031 c 1.076,-1.076 2.952,-1.077 4.028,0 l 2.033,2.032 c 1.11,1.11 1.11,2.917 0,4.028 l -2.033,2.032 c -0.538,0.539 -1.253,0.836 -2.014,0.836 z m 0,-7.761 c -0.227,0 -0.44,0.088 -0.6,0.248 l -2.032,2.032 c -0.161,0.161 -0.249,0.374 -0.249,0.601 0,0.226 0.088,0.438 0.249,0.599 l 2.032,2.033 c 0.32,0.319 0.879,0.32 1.2,0 l 2.033,-2.032 c 0.331,-0.331 0.331,-0.869 0,-1.2 l -2.033,-2.032 c -0.161,-0.162 -0.374,-0.249 -0.6,-0.249 z"
   id="path8339" />

		</g>
      <g
         transform="matrix(0.26458333,0,0,0.26458333,-343.20238,266.7619)"
         id="g8345">
			<path
   style="fill:#111111"
   inkscape:connector-curvature="0"
   d="m 67.93,312.822 c -0.761,0 -1.476,-0.297 -2.014,-0.835 l -2.032,-2.032 c -0.538,-0.538 -0.834,-1.254 -0.834,-2.014 0,-0.762 0.296,-1.477 0.834,-2.016 l 2.032,-2.031 c 1.076,-1.076 2.952,-1.077 4.028,0 l 2.033,2.032 c 1.11,1.11 1.11,2.917 0,4.028 l -2.033,2.032 c -0.538,0.539 -1.253,0.836 -2.014,0.836 z m 0,-7.761 c -0.227,0 -0.44,0.088 -0.6,0.248 l -2.032,2.032 c -0.161,0.161 -0.249,0.374 -0.249,0.601 0,0.226 0.088,0.438 0.249,0.599 l 2.032,2.033 c 0.32,0.319 0.879,0.32 1.2,0 l 2.033,-2.032 c 0.331,-0.331 0.331,-0.869 0,-1.2 L 68.53,305.31 c -0.16,-0.162 -0.373,-0.249 -0.6,-0.249 z"
   id="path8343" />

		</g>
      <g
         transform="matrix(0.26458333,0,0,0.26458333,-343.20238,266.7619)"
         id="g8349">
			<path
   style="fill:#111111"
   inkscape:connector-curvature="0"
   d="m 91.058,206.49 c -0.761,0 -1.476,-0.297 -2.014,-0.835 l -2.032,-2.032 c -0.538,-0.538 -0.834,-1.254 -0.834,-2.014 0,-0.762 0.296,-1.477 0.834,-2.016 l 2.032,-2.031 c 1.076,-1.076 2.952,-1.077 4.028,0 l 2.033,2.032 c 1.11,1.11 1.11,2.917 0,4.028 l -2.033,2.032 c -0.538,0.539 -1.253,0.836 -2.014,0.836 z m 0,-7.761 c -0.227,0 -0.44,0.088 -0.6,0.248 l -2.032,2.032 c -0.161,0.161 -0.249,0.374 -0.249,0.601 0,0.226 0.088,0.438 0.249,0.599 l 2.032,2.033 c 0.32,0.319 0.879,0.32 1.2,0 l 2.033,-2.032 c 0.331,-0.331 0.331,-0.869 0,-1.2 l -2.033,-2.032 c -0.16,-0.162 -0.373,-0.249 -0.6,-0.249 z"
   id="path8347" />

		</g>
      <g
         transform="matrix(0.26458333,0,0,0.26458333,-343.20238,266.7619)"
         id="g8353">
			<path
   style="fill:#111111"
   inkscape:connector-curvature="0"
   d="m 619.141,275.291 c -0.761,0 -1.476,-0.297 -2.014,-0.834 l -2.032,-2.033 c -1.111,-1.109 -1.111,-2.918 0,-4.027 l 2.032,-2.033 c 1.076,-1.076 2.951,-1.076 4.027,0 l 2.033,2.032 c 1.11,1.111 1.11,2.918 0,4.028 l -2.033,2.033 c -0.538,0.537 -1.253,0.834 -2.013,0.834 z m 0,-7.762 c -0.227,0 -0.439,0.088 -0.6,0.248 l -2.032,2.033 c -0.331,0.33 -0.331,0.869 0,1.199 l 2.032,2.033 c 0.32,0.32 0.879,0.32 1.199,0 l 2.033,-2.033 c 0.33,-0.33 0.33,-0.869 0,-1.199 l -2.033,-2.032 c -0.16,-0.161 -0.373,-0.249 -0.599,-0.249 z"
   id="path8351" />

		</g>
      <g
         transform="matrix(0.26458333,0,0,0.26458333,-343.20238,266.7619)"
         id="g8357">
			<path
   style="fill:#111111"
   inkscape:connector-curvature="0"
   d="m 688.766,293.609 c -0.761,0 -1.477,-0.297 -2.015,-0.834 l -2.032,-2.033 c -1.11,-1.11 -1.11,-2.918 0,-4.028 l 2.032,-2.032 c 1.077,-1.076 2.952,-1.076 4.028,0 l 2.033,2.032 c 1.109,1.111 1.109,2.918 0,4.028 l -2.033,2.033 c -0.538,0.538 -1.254,0.834 -2.013,0.834 z m 0,-7.761 c -0.227,0 -0.439,0.088 -0.6,0.248 l -2.033,2.033 c -0.33,0.33 -0.33,0.868 0,1.199 l 2.033,2.032 c 0.32,0.32 0.879,0.321 1.199,0 l 2.033,-2.032 c 0.33,-0.331 0.33,-0.869 0,-1.199 l -2.033,-2.032 c -0.16,-0.161 -0.373,-0.249 -0.599,-0.249 z"
   id="path8355" />

		</g>
      <g
         transform="matrix(0.26458333,0,0,0.26458333,-343.20238,266.7619)"
         id="g8375">
			<g
   id="g8361">
				<rect
   style="fill:#111111"
   x="735.23901"
   y="370.14099"
   width="14.199"
   height="2"
   id="rect8359" />

			</g>

			<g
   id="g8365">
				<rect
   style="fill:#111111"
   x="71.338997"
   y="370.14099"
   width="454.21899"
   height="2"
   id="rect8363" />

			</g>

			<g
   id="g8369">
				<rect
   style="fill:#111111"
   x="50.561001"
   y="370.13901"
   width="10.378"
   height="2"
   id="rect8367" />

			</g>

			<g
   id="g8373">
				<rect
   style="fill:#111111"
   x="533.95398"
   y="370.14099"
   width="194.185"
   height="2"
   id="rect8371" />

			</g>

		</g>
      <g
         transform="matrix(0.26458333,0,0,0.26458333,-343.20238,266.7619)"
         id="g8389">
			<g
   id="g8379">
				<path
   style="clip-rule:evenodd;fill:#3dc7d2;fill-rule:evenodd"
   inkscape:connector-curvature="0"
   d="m 646.701,278.178 c -15.059,0 -31.452,11.654 -31.452,31.1 0,29.592 31.527,60.863 31.527,60.863 0,0 31.524,-31.781 31.524,-60.863 0.001,-19.446 -17.399,-31.1 -31.599,-31.1 z m 0.049,47.576 c -9.206,0 -16.022,-7.523 -16.421,-16.42 -0.397,-8.869 7.831,-16.422 16.421,-16.422 9.206,0 16.022,7.524 16.421,16.422 0.397,8.867 -7.831,16.42 -16.421,16.42 z"
   id="path8377" />

			</g>

			<g
   id="g8383">
				<path
   style="fill:#111111"
   inkscape:connector-curvature="0"
   d="m 644.999,331.932 c -1.394,-0.112 -2.778,-0.353 -4.115,-0.715 l 0.522,-1.93 c 1.219,0.329 2.481,0.549 3.753,0.65 z m 5.212,-0.175 -0.294,-1.979 c 1.259,-0.187 2.503,-0.49 3.7,-0.903 l 0.652,1.891 c -1.313,0.453 -2.678,0.786 -4.058,0.991 z m -14.175,-2.472 c -1.225,-0.66 -2.395,-1.438 -3.479,-2.313 l 1.255,-1.557 c 0.988,0.797 2.057,1.507 3.174,2.109 z m 22.938,-0.776 -1.066,-1.691 c 1.074,-0.678 2.092,-1.457 3.024,-2.318 l 1.356,1.471 c -1.021,0.941 -2.137,1.796 -3.314,2.538 z m -30.08,-5.247 c -0.86,-1.098 -1.622,-2.278 -2.265,-3.508 l 1.772,-0.926 c 0.586,1.122 1.281,2.198 2.066,3.201 z m 36.799,-1.243 -1.653,-1.125 c 0.715,-1.051 1.336,-2.172 1.846,-3.333 l 1.831,0.803 c -0.559,1.273 -1.239,2.502 -2.024,3.655 z m -40.932,-7.137 c -0.344,-1.345 -0.565,-2.732 -0.658,-4.125 l 1.995,-0.133 c 0.085,1.271 0.287,2.536 0.601,3.762 z m 44.488,-1.508 -1.967,-0.363 c 0.229,-1.241 0.346,-2.519 0.346,-3.795 0,-0.619 -0.028,-1.246 -0.083,-1.861 l 1.992,-0.178 c 0.061,0.675 0.091,1.36 0.091,2.039 0,1.397 -0.128,2.797 -0.379,4.158 z m -42.93,-7.506 -1.975,-0.32 c 0.223,-1.375 0.574,-2.735 1.045,-4.044 l 1.882,0.678 c -0.428,1.192 -0.75,2.432 -0.952,3.686 z m 40.265,-3.175 c -0.396,-1.203 -0.908,-2.377 -1.521,-3.49 l 1.752,-0.965 c 0.672,1.221 1.234,2.509 1.669,3.828 z m -37.197,-4.776 -1.678,-1.088 c 0.756,-1.165 1.624,-2.269 2.583,-3.282 l 1.453,1.375 c -0.876,0.925 -1.669,1.932 -2.358,2.995 z m 32.919,-2.592 c -0.85,-0.945 -1.791,-1.817 -2.796,-2.592 l 1.221,-1.584 c 1.101,0.848 2.131,1.803 3.063,2.838 z m -26.916,-3.463 -1.103,-1.668 c 1.16,-0.768 2.398,-1.432 3.68,-1.974 l 0.779,1.842 c -1.168,0.495 -2.298,1.1 -3.356,1.8 z m 20.041,-1.582 c -1.153,-0.525 -2.364,-0.945 -3.598,-1.25 l 0.479,-1.941 c 1.354,0.333 2.682,0.795 3.948,1.371 z m -12.119,-1.555 -0.337,-1.971 c 1.267,-0.217 2.562,-0.326 3.849,-0.326 0.006,0 0.011,0 0.018,0 l 0.294,0.002 -0.021,2 -0.274,-0.002 c -0.006,0 -0.011,0 -0.017,0 -1.176,0 -2.357,0.099 -3.512,0.297 z"
   id="path8381" />

			</g>

			<g
   id="g8387">
				<polygon
   style="fill:#f3a52d"
   points="645.493,310.369 637.529,310.369 644.562,296.607 652.482,296.607 646.067,305.92 654.021,305.92 642.558,322.641 "
   id="polygon8385" />

			</g>

		</g>
    </g>
    <g
       id="g8425"
       transform="matrix(0.26458333,0,0,0.26458333,-343.20238,266.7619)">
			
			<g
   id="g8395">
				
			</g>

			
			<g
   id="g8401">
				
			</g>

			<g
   id="g8407">
				<g
   id="g8405">
					
				</g>

			</g>

			<g
   id="g8411">
				
			</g>

			<g
   id="g8415">
				
			</g>

			<g
   id="g8419">
				
			</g>

			<g
   id="g8423">
				
			</g>

		</g>
    <g
       id="g8461"
       transform="matrix(0.26458333,0,0,0.26458333,-343.20238,266.7619)">
			
			<g
   id="g8431">
				
			</g>

			
			<g
   id="g8437">
				
			</g>

			<g
   id="g8443">
				<g
   id="g8441">
					
				</g>

			</g>

			<g
   id="g8447">
				
			</g>

			<g
   id="g8451">
				
			</g>

			<g
   id="g8455">
				
			</g>

			<g
   id="g8459">
				
			</g>

		</g>
    <g
       id="g8501"
       transform="matrix(0.26458333,0,0,0.26458333,-343.20238,266.7619)">
			
			
			
			<g
   id="g8471">
				
			</g>

			<g
   id="g8475">
				
			</g>

			<g
   id="g8479">
				
			</g>

			
			
			
			
			
			
			
			
			
			
		</g>
  </g>
</svg>
