<?xml version="1.0" encoding="UTF-8" standalone="no"?>
<!-- Generator: Adobe Illustrator 15.0.2, SVG Export Plug-In . SVG Version: 6.00 Build 0)  -->

<svg
   xmlns:dc="http://purl.org/dc/elements/1.1/"
   xmlns:cc="http://creativecommons.org/ns#"
   xmlns:rdf="http://www.w3.org/1999/02/22-rdf-syntax-ns#"
   xmlns:svg="http://www.w3.org/2000/svg"
   xmlns="http://www.w3.org/2000/svg"
   xmlns:xlink="http://www.w3.org/1999/xlink"
   xmlns:sodipodi="http://sodipodi.sourceforge.net/DTD/sodipodi-0.dtd"
   xmlns:inkscape="http://www.inkscape.org/namespaces/inkscape"
   version="1.1"
   id="layer_1"
   x="0px"
   y="0px"
   width="700"
   height="250"
   viewBox="0 0 700 250"
   enable-background="new 0 0 800 800"
   xml:space="preserve"
   sodipodi:docname="Benefits of ERP .svg"
   inkscape:version="0.92.3 (2405546, 2018-03-11)"><metadata
   id="metadata1968"><rdf:RDF><cc:Work
       rdf:about=""><dc:format>image/svg+xml</dc:format><dc:type
         rdf:resource="http://purl.org/dc/dcmitype/StillImage" /><dc:title></dc:title></cc:Work></rdf:RDF></metadata><defs
   id="defs1966">
	<defs
   id="defs3">
		<polygon
   points="800,800 800,400 800,0 0,0 0,400 0.379,400 0.379,800 "
   id="SVGID_1_" />
	</defs>
	<clipPath
   id="SVGID_2_">
		<use
   height="100%"
   width="100%"
   y="0"
   x="0"
   style="overflow:visible"
   id="use5"
   overflow="visible"
   xlink:href="#SVGID_1_" />
	</clipPath>
	
	
	
	
</defs><sodipodi:namedview
   pagecolor="#ffffff"
   bordercolor="#666666"
   borderopacity="1"
   objecttolerance="10"
   gridtolerance="10"
   guidetolerance="10"
   inkscape:pageopacity="0"
   inkscape:pageshadow="2"
   inkscape:window-width="1920"
   inkscape:window-height="1001"
   id="namedview1964"
   showgrid="false"
   inkscape:zoom="0.5"
   inkscape:cx="1032.1747"
   inkscape:cy="340.96868"
   inkscape:window-x="-9"
   inkscape:window-y="-9"
   inkscape:window-maximized="1"
   inkscape:current-layer="layer_1" />
<g
   id="g1959"
   clip-path="url(#SVGID_2_)"
   transform="matrix(0.99364634,0,0,0.999944,-50.236508,-122.11779)">
		<g
   id="g891">
			<g
   id="g879">
				<path
   style="fill:#111111"
   inkscape:connector-curvature="0"
   id="path877"
   d="m 564.476,276.383 h -7.883 c -0.754,0 -1.464,-0.294 -1.997,-0.828 -0.533,-0.533 -0.827,-1.242 -0.826,-1.996 l -10e-4,-3.773 c -2.071,-0.553 -4.058,-1.365 -5.921,-2.421 l -2.658,2.657 c -1.066,1.066 -2.927,1.067 -3.994,0.001 l -5.574,-5.574 c -1.101,-1.102 -1.101,-2.894 0,-3.994 l 2.668,-2.668 c -1.074,-1.856 -1.903,-3.835 -2.475,-5.899 h -3.759 c -1.558,0 -2.825,-1.268 -2.825,-2.824 v -7.883 c 0,-1.557 1.268,-2.824 2.825,-2.824 h 3.773 c 0.553,-2.072 1.365,-4.059 2.421,-5.922 l -2.658,-2.658 c -1.101,-1.1 -1.102,-2.892 -10e-4,-3.993 l 5.575,-5.573 c 1.066,-1.068 2.928,-1.068 3.994,0 l 2.667,2.667 c 1.856,-1.073 3.835,-1.903 5.899,-2.476 v -3.758 c 0,-1.559 1.268,-2.825 2.824,-2.825 h 7.883 c 1.558,0 2.824,1.267 2.824,2.825 v 3.773 c 2.072,0.553 4.058,1.364 5.922,2.42 l 2.657,-2.657 c 1.067,-1.067 2.927,-1.067 3.995,-0.001 l 5.573,5.574 c 1.102,1.102 1.102,2.894 0,3.994 l -2.668,2.668 c 1.074,1.857 1.904,3.835 2.476,5.899 h 3.759 c 1.557,0 2.824,1.267 2.824,2.824 v 7.883 c 0,1.558 -1.268,2.824 -2.824,2.824 h -3.773 c -0.553,2.073 -1.365,4.058 -2.422,5.921 l 2.659,2.658 c 0.533,0.533 0.827,1.243 0.827,1.998 0,0.754 -0.294,1.463 -0.827,1.996 l -5.574,5.574 c -1.064,1.066 -2.928,1.067 -3.994,-0.001 l -2.668,-2.667 c -1.857,1.074 -3.836,1.904 -5.899,2.475 v 3.76 c 0,1.556 -1.267,2.824 -2.824,2.824 z m -16.94,-11.535 0.671,0.408 c 2.104,1.28 4.388,2.214 6.789,2.775 l 0.772,0.18 10e-4,5.348 c 0,0.221 0.085,0.428 0.241,0.582 0.155,0.156 0.362,0.242 0.582,0.242 h 7.883 c 0.455,0 0.824,-0.369 0.824,-0.824 v -5.318 l 0.764,-0.186 c 2.392,-0.582 4.667,-1.537 6.763,-2.839 l 0.674,-0.419 3.781,3.781 c 0.313,0.313 0.854,0.313 1.165,0 l 5.575,-5.574 c 0.155,-0.156 0.241,-0.362 0.241,-0.582 0,-0.221 -0.086,-0.428 -0.241,-0.584 l -3.762,-3.76 0.408,-0.672 c 1.281,-2.103 2.215,-4.387 2.776,-6.789 l 0.181,-0.772 h 5.347 c 0.454,0 0.824,-0.37 0.824,-0.824 v -7.883 c 0,-0.454 -0.37,-0.824 -0.824,-0.824 h -5.317 l -0.187,-0.764 c -0.582,-2.392 -1.537,-4.667 -2.839,-6.763 l -0.419,-0.674 3.781,-3.781 c 0.321,-0.32 0.321,-0.844 0,-1.166 l -5.573,-5.573 c -0.312,-0.312 -0.855,-0.312 -1.167,0 l -3.76,3.761 -0.671,-0.408 c -2.104,-1.281 -4.389,-2.215 -6.79,-2.775 l -0.772,-0.181 v -5.347 c 0,-0.455 -0.369,-0.825 -0.824,-0.825 h -7.883 c -0.454,0 -0.824,0.37 -0.824,0.825 v 5.317 l -0.764,0.187 c -2.393,0.582 -4.668,1.537 -6.763,2.838 l -0.662,0.411 -0.561,-0.542 -3.232,-3.23 c -0.312,-0.313 -0.854,-0.312 -1.165,0 l -5.574,5.573 c -0.321,0.321 -0.321,0.845 0,1.165 l 3.761,3.762 -0.409,0.671 c -1.279,2.103 -2.213,4.386 -2.774,6.789 l -0.181,0.772 h -5.347 c -0.455,0 -0.825,0.369 -0.825,0.824 v 7.883 c 0,0.455 0.37,0.824 0.825,0.824 h 5.317 l 0.187,0.764 c 0.582,2.393 1.537,4.668 2.838,6.764 l 0.419,0.674 -3.781,3.78 c -0.321,0.321 -0.321,0.845 10e-4,1.166 l 5.573,5.573 c 0.312,0.311 0.854,0.313 1.166,0 z" />
			</g>
			<g
   id="g883">
				<path
   style="clip-rule:evenodd;fill:#f3a52d;fill-rule:evenodd"
   inkscape:connector-curvature="0"
   id="path881"
   d="m 560.514,265.332 c 11.173,0 20.231,-9.059 20.231,-20.232 0,-11.173 -9.059,-20.231 -20.231,-20.231 -11.174,0 -20.232,9.058 -20.232,20.231 0,11.173 9.058,20.232 20.232,20.232 z" />
			</g>
			<g
   id="g889">
				<g
   id="g887">
					<path
   style="fill:#111111"
   inkscape:connector-curvature="0"
   id="path885"
   d="m 560.523,261.421 -0.032,-2 h 0.032 c 0.912,0 1.823,-0.086 2.708,-0.255 l 0.377,1.963 c -1.008,0.193 -2.046,0.292 -3.085,0.292 z m -4.17,-0.538 c -1.011,-0.267 -1.999,-0.633 -2.938,-1.088 l 0.872,-1.799 c 0.824,0.398 1.691,0.719 2.577,0.953 z m 11.22,-1.059 -0.864,-1.804 c 0.824,-0.396 1.616,-0.874 2.352,-1.421 l 1.194,1.604 c -0.839,0.625 -1.741,1.17 -2.682,1.621 z m -17.649,-2.312 c -0.794,-0.68 -1.525,-1.438 -2.176,-2.254 l 1.564,-1.246 c 0.571,0.717 1.214,1.383 1.911,1.979 z m 23.334,-2.203 -1.56,-1.252 c 0.574,-0.715 1.082,-1.488 1.508,-2.298 l 1.771,0.931 c -0.487,0.923 -1.065,1.804 -1.719,2.619 z m -27.671,-3.62 c -0.422,-0.957 -0.753,-1.959 -0.983,-2.977 l 1.95,-0.441 c 0.202,0.893 0.492,1.771 0.863,2.609 z m 30.842,-2.912 -1.949,-0.449 c 0.205,-0.891 0.325,-1.808 0.357,-2.727 l 1.999,0.07 c -0.037,1.046 -0.174,2.091 -0.407,3.106 z m -30.22,-4.15 -1.999,-0.066 c 0.035,-1.049 0.17,-2.094 0.4,-3.105 l 1.95,0.444 c -0.202,0.888 -0.32,1.805 -0.351,2.727 z m 28.29,-2.671 c -0.2,-0.893 -0.488,-1.771 -0.857,-2.611 l 1.832,-0.804 c 0.42,0.958 0.749,1.96 0.977,2.978 z m -26.673,-3.489 -1.771,-0.928 c 0.483,-0.924 1.061,-1.807 1.713,-2.623 l 1.563,1.249 c -0.574,0.717 -1.08,1.491 -1.505,2.302 z m 23.927,-2.257 c -0.57,-0.718 -1.212,-1.386 -1.908,-1.983 l 1.304,-1.517 c 0.792,0.681 1.522,1.44 2.171,2.257 z m -19.791,-2.593 -1.196,-1.602 c 0.839,-0.627 1.74,-1.174 2.679,-1.626 l 0.868,1.802 c -0.824,0.397 -1.615,0.877 -2.351,1.426 z m 14.824,-1.4 c -0.822,-0.4 -1.689,-0.724 -2.574,-0.959 l 0.514,-1.933 c 1.01,0.269 1.998,0.636 2.937,1.094 z m -8.999,-1.178 -0.38,-1.963 c 1.021,-0.197 2.069,-0.298 3.116,-0.298 l 0.063,2.001 -0.086,-0.002 c -0.896,0.001 -1.817,0.089 -2.713,0.262 z" />
				</g>
			</g>
		</g>
		<g
   id="g907">
			<g
   id="g895">
				<path
   style="fill:#111111"
   inkscape:connector-curvature="0"
   id="path893"
   d="m 129.811,251.068 h -7.883 c -0.754,0 -1.464,-0.295 -1.997,-0.828 -0.534,-0.534 -0.827,-1.243 -0.827,-1.998 v -3.771 c -2.072,-0.554 -4.058,-1.365 -5.921,-2.422 l -2.658,2.658 c -1.066,1.066 -2.927,1.066 -3.994,0 l -5.574,-5.574 c -1.101,-1.102 -1.101,-2.894 0,-3.994 l 2.668,-2.668 c -1.074,-1.856 -1.904,-3.834 -2.475,-5.898 h -3.76 c -1.558,0 -2.825,-1.268 -2.825,-2.825 v -7.883 c 0,-1.557 1.267,-2.823 2.825,-2.823 h 3.773 c 0.553,-2.073 1.365,-4.06 2.421,-5.922 l -2.658,-2.658 c -1.101,-1.102 -1.101,-2.893 0,-3.994 l 5.575,-5.574 c 1.066,-1.066 2.928,-1.066 3.994,0.001 l 2.667,2.667 c 1.856,-1.073 3.835,-1.903 5.899,-2.475 v -3.76 c 0,-1.557 1.267,-2.824 2.824,-2.824 h 7.883 c 1.557,0 2.824,1.268 2.824,2.824 v 3.774 c 2.072,0.554 4.058,1.364 5.921,2.421 l 2.658,-2.658 c 1.067,-1.066 2.927,-1.066 3.995,0 l 5.574,5.574 c 1.101,1.102 1.101,2.893 0,3.994 l -2.668,2.668 c 1.074,1.855 1.904,3.834 2.476,5.898 h 3.758 c 1.557,0 2.824,1.268 2.824,2.824 v 7.883 c 0,1.558 -1.267,2.824 -2.824,2.824 h -3.773 c -0.553,2.073 -1.365,4.059 -2.422,5.922 l 2.659,2.658 c 0.534,0.533 0.827,1.242 0.827,1.997 0,0.754 -0.294,1.464 -0.827,1.997 l -5.574,5.572 c -1.064,1.068 -2.928,1.068 -3.994,0 l -2.668,-2.666 c -1.857,1.074 -3.835,1.904 -5.899,2.475 v 3.759 c 0,1.558 -1.267,2.825 -2.824,2.825 z m -16.94,-11.535 0.671,0.408 c 2.104,1.279 4.388,2.213 6.789,2.775 l 0.772,0.18 v 5.347 c 0,0.22 0.085,0.428 0.241,0.583 0.155,0.155 0.362,0.242 0.583,0.242 h 7.883 c 0.455,0 0.824,-0.37 0.824,-0.825 v -5.318 l 0.764,-0.186 c 2.391,-0.581 4.667,-1.536 6.763,-2.839 l 0.674,-0.418 3.781,3.78 c 0.313,0.313 0.854,0.313 1.165,0.001 l 5.575,-5.575 c 0.156,-0.155 0.241,-0.362 0.241,-0.582 0,-0.22 -0.085,-0.427 -0.241,-0.583 l -3.762,-3.761 0.409,-0.671 c 1.28,-2.104 2.214,-4.387 2.776,-6.789 l 0.18,-0.773 h 5.347 c 0.455,0 0.824,-0.369 0.824,-0.824 v -7.883 c 0,-0.455 -0.37,-0.824 -0.824,-0.824 h -5.317 l -0.186,-0.764 c -0.582,-2.392 -1.537,-4.667 -2.839,-6.763 l -0.418,-0.674 3.781,-3.78 c 0.321,-0.321 0.321,-0.846 0,-1.166 l -5.573,-5.574 c -0.312,-0.311 -0.855,-0.311 -1.167,0 l -3.76,3.761 -0.671,-0.408 c -2.104,-1.28 -4.388,-2.214 -6.79,-2.775 l -0.772,-0.181 v -5.348 c 0,-0.454 -0.37,-0.824 -0.824,-0.824 h -7.883 c -0.455,0 -0.824,0.37 -0.824,0.824 v 5.318 l -0.764,0.186 c -2.393,0.583 -4.668,1.537 -6.763,2.839 l -0.663,0.411 -0.561,-0.541 -3.232,-3.231 c -0.312,-0.312 -0.854,-0.312 -1.165,0 l -5.575,5.573 c -0.321,0.321 -0.321,0.845 0,1.166 l 3.761,3.761 -0.409,0.671 c -1.279,2.102 -2.213,4.387 -2.775,6.789 l -0.18,0.773 H 97.39 c -0.455,0 -0.825,0.369 -0.825,0.823 v 7.883 c 0,0.454 0.37,0.825 0.825,0.825 h 5.318 l 0.186,0.763 c 0.582,2.393 1.537,4.669 2.838,6.765 l 0.418,0.673 -3.781,3.78 c -0.321,0.322 -0.321,0.845 0,1.166 l 5.573,5.574 c 0.312,0.311 0.854,0.312 1.166,0 z" />
			</g>
			<g
   id="g899">
				<path
   style="clip-rule:evenodd;fill:#7c7e82;fill-rule:evenodd"
   inkscape:connector-curvature="0"
   id="path897"
   d="m 125.849,240.018 c 11.173,0 20.231,-9.061 20.231,-20.233 0,-11.174 -9.059,-20.231 -20.231,-20.231 -11.174,0 -20.232,9.058 -20.232,20.231 0,11.173 9.057,20.233 20.232,20.233 z" />
			</g>
			<g
   id="g905">
				<g
   id="g903">
					<path
   style="fill:#111111"
   inkscape:connector-curvature="0"
   id="path901"
   d="m 125.858,236.105 -0.032,-2 h 0.032 c 0.912,0 1.823,-0.086 2.708,-0.255 l 0.377,1.964 c -1.009,0.194 -2.047,0.291 -3.085,0.291 z m -4.17,-0.537 c -1.011,-0.268 -1.999,-0.633 -2.938,-1.088 l 0.872,-1.801 c 0.824,0.4 1.691,0.721 2.577,0.955 z m 11.22,-1.058 -0.864,-1.805 c 0.825,-0.396 1.616,-0.873 2.352,-1.421 l 1.194,1.604 c -0.839,0.625 -1.741,1.171 -2.682,1.622 z m -17.649,-2.314 c -0.794,-0.679 -1.526,-1.437 -2.176,-2.253 l 1.564,-1.246 c 0.571,0.717 1.214,1.383 1.911,1.979 z m 23.334,-2.202 -1.56,-1.252 c 0.574,-0.716 1.082,-1.488 1.507,-2.299 l 1.771,0.932 c -0.486,0.922 -1.064,1.805 -1.718,2.619 z m -27.672,-3.62 c -0.422,-0.956 -0.753,-1.958 -0.983,-2.976 l 1.95,-0.441 c 0.202,0.893 0.492,1.771 0.863,2.609 z m 30.843,-2.912 -1.949,-0.448 c 0.205,-0.891 0.325,-1.809 0.357,-2.727 l 1.999,0.069 c -0.037,1.046 -0.174,2.091 -0.407,3.106 z m -30.22,-4.149 -1.999,-0.066 c 0.035,-1.049 0.169,-2.094 0.4,-3.106 l 1.95,0.444 c -0.202,0.888 -0.32,1.806 -0.351,2.728 z m 28.29,-2.672 c -0.2,-0.893 -0.489,-1.771 -0.857,-2.611 l 1.832,-0.803 c 0.42,0.957 0.749,1.959 0.977,2.977 z m -26.673,-3.49 -1.771,-0.927 c 0.483,-0.924 1.06,-1.807 1.713,-2.623 l 1.563,1.248 c -0.574,0.717 -1.081,1.493 -1.505,2.302 z m 23.926,-2.256 c -0.57,-0.717 -1.211,-1.385 -1.908,-1.982 l 1.304,-1.518 c 0.792,0.682 1.522,1.439 2.17,2.257 z m -19.79,-2.592 -1.196,-1.603 c 0.839,-0.626 1.74,-1.173 2.678,-1.626 l 0.868,1.802 c -0.823,0.397 -1.614,0.877 -2.35,1.427 z m 14.824,-1.402 c -0.823,-0.4 -1.689,-0.724 -2.575,-0.958 l 0.514,-1.934 c 1.01,0.269 1.998,0.637 2.937,1.094 z m -8.999,-1.176 -0.38,-1.964 c 1.021,-0.197 2.07,-0.298 3.117,-0.298 l 0.063,2 h -0.086 c -0.898,0 -1.818,0.088 -2.714,0.262 z" />
				</g>
			</g>
		</g>
		<g
   id="g963">
			<rect
   style="fill:#ea572e"
   id="rect909"
   height="96.989998"
   width="23.155001"
   y="274.14999"
   x="514.20203" />
			<g
   id="g915">
				<circle
   style="fill:#7c7e82"
   id="circle911"
   r="5.3119998"
   cy="355.83701"
   cx="525.78003" />
				<path
   style="fill:#ffffff"
   inkscape:connector-curvature="0"
   id="path913"
   d="m 525.779,362.648 c -3.756,0 -6.812,-3.056 -6.812,-6.813 0,-3.756 3.056,-6.811 6.812,-6.811 3.756,0 6.812,3.055 6.812,6.811 0,3.758 -3.056,6.813 -6.812,6.813 z m 0,-10.623 c -2.102,0 -3.812,1.709 -3.812,3.811 0,2.103 1.71,3.813 3.812,3.813 2.102,0 3.812,-1.71 3.812,-3.813 0,-2.102 -1.71,-3.811 -3.812,-3.811 z" />
			</g>
			<rect
   style="fill:#7c7e82"
   id="rect917"
   height="96.989998"
   width="23.156"
   y="274.14999"
   x="537.35699" />
			<rect
   style="fill:#3dc7d2"
   id="rect919"
   height="96.989998"
   width="23.155001"
   y="274.14999"
   x="560.51398" />
			<g
   id="g929">
				<g
   id="g923">
					<polygon
   style="fill:#111111"
   id="polygon921"
   points="582.669,294.726 582.669,275.15 561.513,275.15 561.513,370.141 582.669,370.141 582.669,329.475 584.669,329.475 584.669,372.141 559.513,372.141 559.513,273.15 584.669,273.15 584.669,294.726 " />
				</g>
				<g
   id="g927">
					<rect
   style="fill:#111111"
   id="rect925"
   height="9.7489996"
   width="2"
   y="304.22699"
   x="582.66901" />
				</g>
			</g>
			<g
   id="g939">
				<g
   id="g933">
					<polygon
   style="fill:#111111"
   id="polygon931"
   points="559.513,294.726 559.513,275.15 538.357,275.15 538.357,370.141 559.513,370.141 559.513,329.475 561.513,329.475 561.513,372.141 536.357,372.141 536.357,273.15 561.513,273.15 561.513,294.726 " />
				</g>
				<g
   id="g937">
					<rect
   style="fill:#111111"
   id="rect935"
   height="9.7489996"
   width="2"
   y="304.22699"
   x="559.513" />
				</g>
			</g>
			<g
   id="g949">
				<g
   id="g943">
					<polygon
   style="fill:#111111"
   id="polygon941"
   points="536.357,370.141 536.357,275.15 515.201,275.15 515.201,280.727 513.201,280.727 513.201,273.15 538.357,273.15 538.357,372.141 513.201,372.141 513.201,315.476 515.201,315.476 515.201,370.141 " />
				</g>
				<g
   id="g947">
					<rect
   style="fill:#111111"
   id="rect945"
   height="24.917"
   width="2"
   y="282.64301"
   x="513.20099" />
				</g>
			</g>
			<g
   id="g955">
				<circle
   style="fill:#7c7e82"
   id="circle951"
   r="5.3119998"
   cy="354.95499"
   cx="548.93597" />
				<path
   style="fill:#ffffff"
   inkscape:connector-curvature="0"
   id="path953"
   d="m 548.935,361.768 c -3.756,0 -6.812,-3.057 -6.812,-6.813 0,-3.756 3.056,-6.811 6.812,-6.811 3.756,0 6.812,3.055 6.812,6.811 0,3.756 -3.057,6.813 -6.812,6.813 z m 0,-10.623 c -2.102,0 -3.812,1.709 -3.812,3.811 0,2.102 1.71,3.813 3.812,3.813 2.102,0 3.812,-1.711 3.812,-3.813 0,-2.102 -1.711,-3.811 -3.812,-3.811 z" />
			</g>
			<g
   id="g961">
				<circle
   style="fill:#7c7e82"
   id="circle957"
   r="5.3119998"
   cy="354.95499"
   cx="572.091" />
				<path
   style="fill:#ffffff"
   inkscape:connector-curvature="0"
   id="path959"
   d="m 572.091,361.768 c -3.756,0 -6.812,-3.057 -6.812,-6.813 0,-3.756 3.056,-6.811 6.812,-6.811 3.756,0 6.812,3.055 6.812,6.811 0,3.756 -3.056,6.813 -6.812,6.813 z m 0,-10.623 c -2.102,0 -3.812,1.709 -3.812,3.811 0,2.102 1.71,3.813 3.812,3.813 2.102,0 3.812,-1.711 3.812,-3.813 0,-2.102 -1.711,-3.811 -3.812,-3.811 z" />
			</g>
		</g>
		<g
   id="g967">
			<path
   style="fill:#f3a52d"
   inkscape:connector-curvature="0"
   id="path965"
   d="m 484.17,147.828 c 3.055,0 5.888,0.902 8.227,2.518 1.588,-1.802 3.769,-3.083 6.243,-3.495 -0.103,-0.695 -0.155,-1.412 -0.155,-2.134 0,-8.008 6.492,-14.508 14.501,-14.508 8.009,0 14.503,6.491 14.503,14.5 0,1.184 -0.146,2.328 -0.412,3.424 1.072,-0.252 2.191,-0.305 3.342,-0.305 8.01,0 14.502,6.658 14.502,14.582 h -75.253 c -0.001,-7.924 6.491,-14.582 14.502,-14.582 z" />
		</g>
		<g
   id="g985">
			<g
   id="g971">
				<rect
   style="fill:#111111"
   id="rect969"
   height="2"
   width="14.2"
   y="370.14099"
   x="735.23901" />
			</g>
			<g
   id="g975">
				<rect
   style="fill:#111111"
   id="rect973"
   height="2"
   width="359.70499"
   y="370.14099"
   x="71.338997" />
			</g>
			<g
   id="g979">
				<rect
   style="fill:#111111"
   id="rect977"
   height="2"
   width="10.378"
   y="370.13901"
   x="50.561001" />
			</g>
			<g
   id="g983">
				<rect
   style="fill:#111111"
   id="rect981"
   height="2"
   width="288.70001"
   y="370.14099"
   x="439.439" />
			</g>
		</g>
		<g
   id="g1198">
			<g
   id="XMLID_6_">
				<g
   id="g989">
					<rect
   style="clip-rule:evenodd;fill:#e6e6e6;fill-rule:evenodd"
   id="rect987"
   height="31.07"
   width="63.618"
   y="331.94101"
   x="368.19101" />
				</g>
			</g>
			<g
   id="g994">
				<rect
   style="fill:#e6e6e6"
   id="rect992"
   height="12"
   width="152.02299"
   y="358.14999"
   x="323.883" />
			</g>
			<g
   id="XMLID_5_">
				<g
   id="g998">
					<path
   style="clip-rule:evenodd;fill:#e6e6e6;fill-rule:evenodd"
   inkscape:connector-curvature="0"
   id="path996"
   d="m 279.995,171.588 h 240.012 c 6.501,0 11.819,5.32 11.819,11.82 v 136.713 c 0,6.501 -5.318,11.82 -11.819,11.82 H 279.995 c -6.501,0 -11.819,-5.319 -11.819,-11.82 V 183.408 c -10e-4,-6.5 5.318,-11.82 11.819,-11.82 z" />
				</g>
			</g>
			<g
   id="g1003">
				<rect
   style="fill:#111111"
   id="rect1001"
   height="2"
   width="23.729"
   y="318.047"
   x="383.63599" />
			</g>
			<g
   id="XMLID_4_">
				<g
   id="g1009">
					<g
   id="g1007">
						<path
   style="fill:#111111"
   inkscape:connector-curvature="0"
   id="path1005"
   d="m 520.006,332.941 h -98.837 v -2 h 98.837 c 5.966,0 10.819,-4.854 10.819,-10.82 V 183.408 c 0,-5.967 -4.854,-10.82 -10.819,-10.82 H 279.995 c -5.966,0 -10.819,4.854 -10.819,10.82 v 136.713 c 0,5.967 4.854,10.82 10.819,10.82 h 101.396 v 2 H 279.995 c -7.069,0 -12.819,-5.75 -12.819,-12.82 V 183.408 c 0,-7.069 5.75,-12.82 12.819,-12.82 h 240.011 c 7.068,0 12.819,5.751 12.819,12.82 v 136.713 c 0,7.07 -5.751,12.82 -12.819,12.82 z" />
					</g>
				</g>
				<g
   id="g1013">
					<rect
   style="fill:#111111"
   id="rect1011"
   height="2"
   width="16.785"
   y="330.94101"
   x="396.849" />
				</g>
			</g>
			<rect
   style="clip-rule:evenodd;fill:#7c7e82;fill-rule:evenodd"
   id="rect1016"
   height="126.053"
   width="244.601"
   y="181.633"
   x="277.70001" />
			<g
   id="g1026">
				<g
   id="g1020">
					
						<rect
   style="fill:#111111"
   id="rect1018"
   height="2"
   width="7.6300001"
   transform="matrix(0.7071,0.7071,-0.7071,0.7071,348.592,-146.4183)"
   y="346.57901"
   x="347.22299" />
				</g>
				<g
   id="g1024">
					<polygon
   style="fill:#111111"
   id="polygon1022"
   points="351.987,342.887 346.346,348.527 344.282,340.822 " />
				</g>
			</g>
			<g
   id="g1030">
				<rect
   style="fill:#111111"
   id="rect1028"
   height="2"
   width="78.518997"
   y="356.35901"
   x="323.883" />
			</g>
			<g
   id="g1034">
				<rect
   style="fill:#111111"
   id="rect1032"
   height="2"
   width="12.067"
   y="356.35901"
   x="425.66901" />
			</g>
			<g
   id="g1042">
				<g
   id="g1040">
					<g
   id="g1038">
						<path
   style="fill:#e6e6e6"
   inkscape:connector-curvature="0"
   id="path1036"
   d="m 398.104,168.625 v -28.197 c -25.67,0.502 -48.836,11.104 -65.773,27.979 l 19.623,19.103 c 12.506,-11.566 29.141,-18.816 46.15,-18.885 z" />
					</g>
				</g>
			</g>
			<g
   id="g1056">
				<g
   id="g1054">
					<g
   id="g1052">
						<g
   id="g1046">
							<path
   style="fill:#111111"
   inkscape:connector-curvature="0"
   id="path1044"
   d="m 386.922,170.709 -0.371,-1.965 c 3.519,-0.664 7.064,-1.036 10.553,-1.107 v -27.209 h 2 v 29.193 l -0.996,0.004 c -3.688,0.014 -7.451,0.379 -11.186,1.084 z" />
						</g>
						<g
   id="g1050">
							<path
   style="fill:#111111"
   inkscape:connector-curvature="0"
   id="path1048"
   d="m 351.935,188.887 -20.303,-19.764 1.396,-1.433 18.947,18.444 c 7.761,-6.992 16.976,-12.309 26.706,-15.399 l 0.605,1.906 c -9.748,3.097 -18.964,8.491 -26.655,15.602 z" />
						</g>
					</g>
				</g>
			</g>
			<g
   id="g1064">
				<g
   id="g1062">
					<g
   id="g1060">
						<path
   style="fill:#e6e6e6"
   inkscape:connector-curvature="0"
   id="path1058"
   d="m 464.144,307.686 c 11.213,-10.092 20.036,-22.789 25.515,-37.143 l -28.493,-8.283 c -9.859,22.746 -33.178,39.585 -58.004,41.542 v 3.884 z" />
					</g>
				</g>
			</g>
			<g
   id="g1074">
				<g
   id="g1072">
					<g
   id="g1070">
						<g
   id="g1068">
							<path
   style="fill:#3dc7d2"
   inkscape:connector-curvature="0"
   id="path1066"
   d="m 403.161,140.474 v 28.333 c 35.492,2.496 61.315,32.4 62.889,67.51 0.329,7.359 -0.803,14.491 -3.077,21.201 l 28.342,8.24 c 2.98,-9.246 4.64,-19.082 4.649,-29.317 0.056,-51.972 -41.226,-94.293 -92.803,-95.967 z" />
						</g>
					</g>
				</g>
			</g>
			<g
   id="g1084">
				<g
   id="g1082">
					<g
   id="g1080">
						<g
   id="g1078">
							<path
   style="fill:#3dc7d2"
   inkscape:connector-curvature="0"
   id="path1076"
   d="m 335.854,307.686 h 62.25 v -3.678 c -37.826,-0.137 -65.811,-31.094 -67.45,-67.691 -0.769,-17.17 6.307,-33.144 17.695,-45.258 L 328.793,172.02 c -15.362,16.992 -24.73,39.508 -24.756,64.219 -0.03,28.37 12.261,53.865 31.817,71.447 z" />
						</g>
					</g>
				</g>
			</g>
			<g
   id="g1094">
				<g
   id="g1092">
					<g
   id="g1090">
						<g
   id="g1088">
							<rect
   style="fill:#e6e6e6"
   id="rect1086"
   height="38.118999"
   width="11.656"
   y="247.68201"
   x="331.04099" />
						</g>
					</g>
				</g>
			</g>
			<g
   id="g1106">
				<g
   id="g1104">
					<g
   id="g1102">
						<g
   id="g1100">
							<g
   id="g1098">
								<rect
   style="fill:#ffffff"
   id="rect1096"
   height="52.506001"
   width="11.656"
   y="233.295"
   x="354.35101" />
							</g>
						</g>
					</g>
				</g>
			</g>
			<g
   id="g1120">
				<g
   id="g1118">
					<g
   id="g1116">
						<g
   id="g1114">
							<g
   id="g1112">
								<g
   id="g1110">
									<rect
   style="fill:#3dc7d2"
   id="rect1108"
   height="43.130001"
   width="11.656"
   y="242.67101"
   x="377.66199" />
								</g>
							</g>
						</g>
					</g>
				</g>
			</g>
			<g
   id="g1130">
				<g
   id="g1128">
					<g
   id="g1126">
						<g
   id="g1124">
							<rect
   style="fill:#e6e6e6"
   id="rect1122"
   height="62.506001"
   width="11.657"
   y="223.295"
   x="400.97198" />
						</g>
					</g>
				</g>
			</g>
			<g
   id="g1144">
				<g
   id="g1142">
					<g
   id="g1140">
						<g
   id="g1138">
							<g
   id="g1136">
								<g
   id="g1134">
									<rect
   style="fill:#3dc7d2"
   id="rect1132"
   height="80.010002"
   width="11.657"
   y="205.791"
   x="424.28299" />
								</g>
							</g>
						</g>
					</g>
				</g>
			</g>
			<g
   id="g1156">
				<g
   id="g1154">
					<g
   id="g1152">
						<g
   id="g1150">
							<g
   id="g1148">
								<rect
   style="fill:#ffffff"
   id="rect1146"
   height="89.733002"
   width="11.656"
   y="196.067"
   x="447.59399" />
							</g>
						</g>
					</g>
				</g>
			</g>
			<g
   id="g1168">
				<g
   id="g1166">
					<g
   id="g1164">
						<g
   id="g1162">
							<g
   id="g1160">
								<path
   style="fill:#111111"
   inkscape:connector-curvature="0"
   id="path1158"
   d="m 343.697,286.802 h -13.656 v -40.12 h 13.656 z m -11.656,-2 h 9.656 v -36.12 h -9.656 z" />
							</g>
						</g>
					</g>
				</g>
			</g>
			<g
   id="g1180">
				<g
   id="g1178">
					<g
   id="g1176">
						<g
   id="g1174">
							<g
   id="g1172">
								<path
   style="fill:#111111"
   inkscape:connector-curvature="0"
   id="path1170"
   d="m 413.629,286.802 h -13.657 v -64.507 h 13.657 z m -11.657,-2 h 9.657 v -60.507 h -9.657 z" />
							</g>
						</g>
					</g>
				</g>
			</g>
			<g
   id="g1184">
				<polygon
   style="fill:#111111"
   id="polygon1182"
   points="359.023,212.539 328.578,234.111 327.422,232.479 358.387,210.539 397.796,210.539 438.212,183.087 439.335,184.741 398.411,212.539 " />
			</g>
			<g
   id="g1188">
				<rect
   style="fill:#111111"
   id="rect1186"
   height="2"
   width="250.5"
   y="306.686"
   x="274.75" />
			</g>
			<g
   id="g1196">
				<g
   id="g1194">
					<g
   id="g1192">
						<polygon
   style="fill:#ffffff"
   id="polygon1190"
   points="430.352,179.486 440.414,193.129 447.195,177.594 " />
					</g>
				</g>
			</g>
		</g>
		<g
   id="g1216">
			<g
   id="g1202">
				<rect
   style="fill:#111111"
   id="rect1200"
   height="19.867001"
   width="2"
   y="144.26401"
   x="244.168" />
			</g>
			<g
   id="g1206">
				<rect
   style="fill:#111111"
   id="rect1204"
   height="15.452"
   width="2"
   y="148.679"
   x="237.01199" />
			</g>
			<g
   id="g1210">
				<rect
   style="fill:#111111"
   id="rect1208"
   height="11.145"
   width="2"
   y="152.98599"
   x="229.855" />
			</g>
			<g
   id="g1214">
				<rect
   style="fill:#111111"
   id="rect1212"
   height="6.954"
   width="2"
   y="157.177"
   x="222.69901" />
			</g>
		</g>
		<g
   id="g1234">
			<g
   id="g1220">
				<rect
   style="fill:#111111"
   id="rect1218"
   height="19.867001"
   width="2"
   y="240.224"
   x="627.01099" />
			</g>
			<g
   id="g1224">
				<rect
   style="fill:#111111"
   id="rect1222"
   height="15.452"
   width="2"
   y="244.63901"
   x="619.854" />
			</g>
			<g
   id="g1228">
				<rect
   style="fill:#111111"
   id="rect1226"
   height="11.146"
   width="2"
   y="248.94501"
   x="612.698" />
			</g>
			<g
   id="g1232">
				<rect
   style="fill:#111111"
   id="rect1230"
   height="6.954"
   width="2"
   y="253.13699"
   x="605.54102" />
			</g>
		</g>
		<g
   id="g1294">
			<g
   id="g1242">
				<polygon
   style="fill:#f3a52d"
   id="polygon1236"
   points="160.874,307.366 160.919,363.514 78.328,363.514 78.27,307.719 119.572,270.216 " />
				<g
   id="g1240">
					<polygon
   style="fill:#111111"
   id="polygon1238"
   points="119.575,271.563 78.942,308.459 77.598,306.979 119.569,268.868 161.542,306.623 160.205,308.109 " />
				</g>
			</g>
			<rect
   style="fill:#ffffff"
   id="rect1244"
   height="60.887001"
   width="62.616001"
   y="293.31299"
   x="88.496002" />
			<polygon
   style="fill:#f3a52d"
   id="polygon1246"
   points="160.906,371.057 131.675,343.629 107.623,343.629 78.328,371.07 " />
			<polygon
   style="fill:#f3a52d"
   id="polygon1248"
   points="107.678,343.629 78.328,371.07 78.328,314.268 " />
			<polygon
   style="fill:#f3a52d"
   id="polygon1250"
   points="131.675,343.629 160.919,371.07 160.919,314.268 " />
			<g
   id="g1254">
				<path
   style="fill:#111111"
   inkscape:connector-curvature="0"
   id="path1252"
   d="m 78.328,372.07 c -0.41,0 -0.779,-0.251 -0.93,-0.633 -0.151,-0.382 -0.054,-0.816 0.246,-1.098 l 29.295,-27.441 c 0.186,-0.174 0.43,-0.27 0.684,-0.27 h 24.053 c 0.254,0 0.499,0.096 0.685,0.271 l 29.23,27.429 c 0.299,0.279 0.396,0.715 0.245,1.096 -0.15,0.383 -0.52,0.633 -0.93,0.633 z m 29.69,-27.441 -27.16,25.44 77.521,-0.013 -27.1,-25.428 h -23.261 z" />
			</g>
			<g
   id="g1258">
				
					<rect
   style="fill:#111111"
   id="rect1256"
   height="2"
   width="30.719"
   transform="matrix(0.7071,0.7071,-0.7071,0.7071,263.5802,29.2072)"
   y="331.76801"
   x="81.175003" />
			</g>
			<g
   id="g1262">
				
					<rect
   style="fill:#111111"
   id="rect1260"
   height="18.129999"
   width="2"
   transform="matrix(0.7071,0.7071,-0.7071,0.7071,278.8938,1.1283)"
   y="328.15399"
   x="137.08501" />
			</g>
			<g
   id="g1266">
				<rect
   style="fill:#111111"
   id="rect1264"
   height="18.129999"
   width="2"
   y="323.75601"
   x="77.269997" />
			</g>
			<g
   id="g1292">
				<g
   id="g1270">
					<rect
   style="fill:#111111"
   id="rect1268"
   height="2"
   width="3.6029999"
   y="302.55899"
   x="120.723" />
				</g>
				<g
   id="g1274">
					<rect
   style="fill:#111111"
   id="rect1272"
   height="2"
   width="3.602"
   y="302.55899"
   x="110.722" />
				</g>
				<g
   id="g1278">
					<rect
   style="fill:#111111"
   id="rect1276"
   height="2"
   width="3.602"
   y="302.55899"
   x="100.721" />
				</g>
				<g
   id="g1282">
					<rect
   style="fill:#111111"
   id="rect1280"
   height="2"
   width="38.165001"
   y="308.854"
   x="100.721" />
				</g>
				<g
   id="g1286">
					<rect
   style="fill:#111111"
   id="rect1284"
   height="2"
   width="38.165001"
   y="315.07001"
   x="100.721" />
				</g>
				<g
   id="g1290">
					<rect
   style="fill:#111111"
   id="rect1288"
   height="2"
   width="14.595"
   y="321.28699"
   x="100.721" />
				</g>
			</g>
		</g>
		<g
   id="g1433">
			<g
   id="XMLID_169_">
				<g
   id="g1302">
					<g
   id="g1300">
						<g
   id="g1298">
							<path
   style="fill:#111111"
   inkscape:connector-curvature="0"
   id="path1296"
   d="m 171.812,241.91 h 55.706 v 8.871 h 15.086 c 0.353,-4.951 4.494,-8.871 9.534,-8.871 h 0.172 c 5.271,0 9.558,4.287 9.558,9.559 V 372.07 h -90.056 z m 88.056,9.559 c 0,-4.168 -3.391,-7.559 -7.558,-7.559 h -0.172 c -4.167,0 -7.558,3.391 -7.558,7.559 v 1.313 h -19.062 v -8.871 h -51.706 v 126.16 h 86.056 z" />
						</g>
					</g>
				</g>
				<g
   id="g1308">
					<g
   id="g1306">
						<path
   style="fill:#ffffff"
   inkscape:connector-curvature="0"
   id="path1304"
   d="m 252.618,242.91 c -3.834,0 -9.087,2.18 -9.087,9.434 l -0.062,109.521 c 0,5.035 -2.162,9.254 -8.252,9.254 l -74.826,0.02 0.062,-118.795 c 0,-5.215 5.157,-9.434 11.496,-9.434 z" />
					</g>
				</g>
				<g
   id="g1318">
					<g
   id="g1312">
						
							<rect
   style="fill:#111111"
   id="rect1310"
   height="2"
   width="8.434"
   transform="rotate(90.053073,160.43499,277.2158)"
   y="276.216"
   x="156.218" />
					</g>
					<g
   id="g1316">
						<path
   style="fill:#111111"
   inkscape:connector-curvature="0"
   id="path1314"
   d="m 159.39,372.141 75.827,-0.021 c 5.879,0 9.252,-3.738 9.252,-10.254 l 0.062,-109.52 c 0,-8.029 6.736,-8.436 8.087,-8.436 v -2 h -80.669 c -6.89,0 -12.496,4.682 -12.496,10.434 l -0.007,13.037 2,0.002 0.007,-13.037 c 0,-4.652 4.708,-8.436 10.496,-8.436 h 74.368 c -2.235,1.68 -3.785,4.447 -3.785,8.434 l -0.062,109.52 c 0,3.768 -1.258,8.256 -7.252,8.256 l -73.826,0.021 0.041,-82.18 -2,-0.002 z" />
					</g>
				</g>
				<g
   id="XMLID_25_">
					<g
   id="XMLID_7_">
						<g
   id="g1322">
							<path
   style="fill:#e6e6e6"
   inkscape:connector-curvature="0"
   id="path1320"
   d="m 140.871,317.316 v 43.977 c 0,0 -0.914,9.848 12.914,9.848 19.731,0 80.677,-0.014 80.677,-0.014 -1.179,-0.031 -8.54,-0.666 -8.54,-9.814 v -33.275 c 0,0 1.035,-10.721 -10.081,-10.721 h -74.97 z" />
						</g>
					</g>
					<g
   id="XMLID_26_">
						<g
   id="g1327">
							<path
   style="fill:#ffffff"
   inkscape:connector-curvature="0"
   id="path1325"
   d="m 234.681,371.127 h -0.219 c 0.138,0.004 0.219,0 0.219,0 z" />
						</g>
					</g>
				</g>
				<g
   id="XMLID_186_">
					<g
   id="XMLID_188_">
						<g
   id="g1333">
							<path
   style="fill:#111111"
   inkscape:connector-curvature="0"
   id="path1331"
   d="m 142.374,368.184 c -2.823,-3.098 -2.513,-6.826 -2.502,-6.891 v -44.977 h 75.971 c 3.632,0 6.454,1.078 8.387,3.207 3.146,3.465 2.709,8.4 2.693,8.514 v 33.275 c 0,8.199 6.303,8.781 7.566,8.814 l -0.026,2 c 0,0 -60.946,0.014 -80.677,0.014 -5.181,0.001 -9.02,-1.331 -11.412,-3.956 z m 82.548,-6.871 0.004,-33.369 c 0.004,-0.043 0.363,-4.289 -2.188,-7.086 -1.539,-1.686 -3.859,-2.541 -6.897,-2.541 H 141.87 l -0.004,43.07 c -0.002,0.029 -0.25,2.998 1.985,5.451 1.998,2.191 5.34,3.303 9.934,3.303 16.024,0 59.232,-0.01 74.901,-0.014 -2.009,-1.51 -3.764,-4.162 -3.764,-8.814 z" />
						</g>
					</g>
					<g
   id="XMLID_187_">
						<g
   id="g1338">
							<polygon
   style="fill:#111111"
   id="polygon1336"
   points="234.58,372.129 234.729,372.125 234.681,370.127 234.462,370.127 234.434,372.127 " />
						</g>
					</g>
				</g>
				<g
   id="g1346">
					<g
   id="g1344">
						<path
   style="fill:#ffffff"
   inkscape:connector-curvature="0"
   id="path1342"
   d="m 208.556,329.313 c -3.236,-10.621 7.293,-11.99 7.293,-11.99 0,0 -64.749,0 -74.971,0 -10.891,0 -11.774,6.732 -10.805,11.99 z" />
					</g>
				</g>
				<g
   id="g1356">
					<g
   id="g1350">
						<rect
   style="fill:#111111"
   id="rect1348"
   height="2"
   width="6.3330002"
   y="328.31299"
   x="165.57401" />
					</g>
					<g
   id="g1354">
						<path
   style="fill:#111111"
   inkscape:connector-curvature="0"
   id="path1352"
   d="m 129.241,330.313 h 30.529 v -2 h -28.846 c -0.427,-3.059 0.054,-5.445 1.432,-7.1 1.596,-1.918 4.463,-2.891 8.522,-2.891 h 69.802 c -0.889,0.619 -1.743,1.422 -2.413,2.461 -1.323,2.051 -1.661,4.58 -1.008,7.529 h -25.431 v 2 h 28.078 l -0.394,-1.291 c -0.89,-2.92 -0.743,-5.328 0.436,-7.154 1.927,-2.988 5.989,-3.547 6.03,-3.553 l -0.129,-1.992 h -74.971 c -4.681,0 -8.065,1.215 -10.059,3.609 -1.897,2.279 -2.479,5.496 -1.729,9.563 z" />
					</g>
				</g>
				<g
   id="XMLID_170_">
					<g
   id="XMLID_177_">
						<g
   id="XMLID_179_">
							<polygon
   style="fill:#ea572e"
   id="polygon1358"
   points="189.573,264.66 181.834,259.125 173.985,253.59 166.796,258.672 166.796,303.928 236.667,303.928 236.667,251.797 228.929,259.068 220.857,253.475 213.119,259.125 205.382,259.125 197.533,253.59 " />
						</g>
					</g>
					<g
   id="XMLID_175_">
						<g
   id="XMLID_176_">
							<polygon
   style="fill:#3dc7d2"
   id="polygon1362"
   points="236.667,264.891 229.041,270.584 220.968,259.068 211.69,271.936 196.853,264.891 189.684,276.934 181.834,264.66 173.874,270.369 166.796,265.357 166.796,303.928 236.667,303.928 " />
						</g>
					</g>
					<g
   id="XMLID_171_">
						<g
   id="g1368">
							<polygon
   style="fill:#f3a52d"
   id="polygon1366"
   points="236.667,280.467 228.929,284.24 221.081,276.078 213.342,287.264 205.382,281.67 200.777,291.271 183.981,293.453 173.985,281.555 166.796,286.707 166.796,303.928 236.667,303.928 " />
						</g>
					</g>
				</g>
			</g>
			<g
   id="g1405">
				<g
   id="g1403">
					<g
   id="g1381">
						<g
   id="g1379">
							<g
   id="g1377">
								<g
   id="g1375">
									<path
   style="fill:#111111"
   inkscape:connector-curvature="0"
   id="path1373"
   d="m 145.475,351.584 -0.07,-1.066 h 13.542 v -13.543 l 1.066,0.07 c 7.156,0.475 12.762,6.461 12.762,13.629 0,7.539 -6.134,13.674 -13.673,13.674 -7.168,0 -13.153,-5.608 -13.627,-12.764 z m 15.472,0.934 H 147.59 c 0.891,5.592 5.754,9.83 11.512,9.83 6.437,0 11.673,-5.236 11.673,-11.674 0,-5.758 -4.238,-10.623 -9.828,-11.514 z" />
								</g>
							</g>
						</g>
					</g>
					<g
   id="g1391">
						<g
   id="g1389">
							<g
   id="g1387">
								<g
   id="g1385">
									<path
   style="fill:#ea572e"
   inkscape:connector-curvature="0"
   id="path1383"
   d="m 158.257,349.336 v -10.461 c -4.05,0.289 -7.539,2.625 -9.443,5.975 z" />
								</g>
							</g>
						</g>
					</g>
					<g
   id="g1401">
						<g
   id="g1399">
							<g
   id="g1397">
								<g
   id="g1395">
									<path
   style="fill:#2e8d9a"
   inkscape:connector-curvature="0"
   id="path1393"
   d="m 147.305,349.828 h 8.051 l -7.275,-3.455 c -0.434,1.107 -0.693,2.264 -0.776,3.455 z" />
								</g>
							</g>
						</g>
					</g>
				</g>
			</g>
			<g
   id="g1431">
				<g
   id="g1409">
					<rect
   style="fill:#111111"
   id="rect1407"
   height="2"
   width="3.74"
   y="339.97699"
   x="191.347" />
				</g>
				<g
   id="g1413">
					<rect
   style="fill:#111111"
   id="rect1411"
   height="2"
   width="3.7379999"
   y="339.97699"
   x="201.729" />
				</g>
				<g
   id="g1417">
					<rect
   style="fill:#111111"
   id="rect1415"
   height="2"
   width="3.74"
   y="339.97699"
   x="212.10899" />
				</g>
				<g
   id="g1421">
					<rect
   style="fill:#111111"
   id="rect1419"
   height="2"
   width="39.613998"
   y="346.508"
   x="176.23399" />
				</g>
				<g
   id="g1425">
					<rect
   style="fill:#111111"
   id="rect1423"
   height="2"
   width="39.613998"
   y="352.96301"
   x="176.23399" />
				</g>
				<g
   id="g1429">
					<rect
   style="fill:#111111"
   id="rect1427"
   height="2"
   width="15.149"
   y="359.414"
   x="200.69901" />
				</g>
			</g>
		</g>
		<g
   id="g1443">
			<g
   id="g1437">
				<path
   style="clip-rule:evenodd;fill:#ea572e;fill-rule:evenodd"
   inkscape:connector-curvature="0"
   id="path1435"
   d="m 491.631,313.923 c -9.184,0 -19.182,7.107 -19.182,18.966 0,18.047 19.228,37.118 19.228,37.118 0,0 19.226,-19.382 19.226,-37.118 -0.001,-11.859 -10.612,-18.966 -19.272,-18.966 z m 4.763,27.101 c -1.279,0.782 -2.853,1.256 -4.717,1.281 -2.616,-0.035 -4.658,-0.956 -6.124,-2.369 -5.39,-4.996 -3.338,-16.539 6.163,-16.539 10.283,0 11.839,13.521 4.678,17.627 z" />
			</g>
			<g
   id="g1441">
				<path
   style="fill:#111111"
   inkscape:connector-curvature="0"
   id="path1439"
   d="m 491.716,348.396 c -0.446,0 -0.888,-0.019 -1.324,-0.056 l 0.166,-1.992 c 0.924,0.076 1.883,0.063 2.81,-0.052 l 0.24,1.986 c -0.624,0.076 -1.26,0.114 -1.892,0.114 z m -5.507,-1 c -1.002,-0.379 -1.97,-0.865 -2.878,-1.445 l 1.077,-1.686 c 0.791,0.507 1.636,0.931 2.508,1.26 z m 11.543,-0.212 -0.775,-1.844 c 0.86,-0.362 1.688,-0.816 2.459,-1.35 l 1.138,1.645 c -0.886,0.612 -1.835,1.133 -2.822,1.549 z m -17.68,-4.017 c -0.715,-0.803 -1.348,-1.682 -1.881,-2.612 l 1.735,-0.994 c 0.464,0.811 1.017,1.577 1.64,2.278 z m 23.657,-0.433 -1.542,-1.273 c 0.598,-0.724 1.121,-1.509 1.556,-2.336 l 1.771,0.93 c -0.499,0.949 -1.099,1.85 -1.785,2.679 z m -27.135,-6.159 c -0.257,-1.037 -0.407,-2.11 -0.446,-3.188 l 1.999,-0.072 c 0.033,0.939 0.165,1.875 0.389,2.779 z m 30.371,-0.556 -1.958,-0.408 c 0.19,-0.913 0.287,-1.853 0.287,-2.792 l 2,-0.061 v 0.061 c 0,1.076 -0.111,2.153 -0.329,3.2 z m -28.444,-6.421 -1.943,-0.473 c 0.255,-1.046 0.619,-2.066 1.084,-3.034 l 1.803,0.865 c -0.404,0.843 -0.722,1.732 -0.944,2.642 z m 26.247,-0.535 c -0.258,-0.899 -0.611,-1.773 -1.051,-2.601 l 1.767,-0.938 c 0.504,0.949 0.91,1.953 1.206,2.985 z m -23.24,-5.222 -1.5,-1.322 c 0.71,-0.805 1.505,-1.539 2.366,-2.183 l 1.197,1.602 c -0.749,0.561 -1.444,1.202 -2.063,1.903 z m 19.999,-0.408 c -0.647,-0.678 -1.366,-1.289 -2.138,-1.818 l 1.131,-1.648 c 0.885,0.606 1.71,1.308 2.452,2.084 z m -14.665,-3.3 -0.715,-1.867 c 1.005,-0.385 2.052,-0.665 3.112,-0.832 l 0.311,1.975 c -0.921,0.146 -1.832,0.389 -2.708,0.724 z m 9.185,-0.187 c -0.883,-0.298 -1.805,-0.504 -2.738,-0.613 l 0.234,-1.986 c 1.07,0.126 2.127,0.362 3.142,0.703 z" />
			</g>
		</g>
		<g
   id="g1447">
			<path
   style="fill:#111111"
   inkscape:connector-curvature="0"
   id="path1445"
   d="m 269.97,157.369 -1.414,-1.414 3.5,-3.5 c 0.728,-0.727 1.695,-1.128 2.724,-1.128 0.001,0 0.002,0 0.003,0 1.03,0.001 1.999,0.403 2.727,1.133 l 1.344,1.349 c 0.363,0.364 0.815,0.559 1.365,0.545 0.517,-0.016 0.99,-0.236 1.333,-0.623 l 1.252,-1.41 c 0.724,-0.814 1.764,-1.287 2.854,-1.295 1.073,-0.002 2.137,0.448 2.873,1.254 l 1.32,1.444 c 0.365,0.4 0.887,0.626 1.406,0.603 0.542,-0.011 1.032,-0.246 1.381,-0.66 l 1.052,-1.252 c 0.708,-0.844 1.746,-1.346 2.848,-1.375 1.082,-0.035 2.166,0.416 2.918,1.221 l 1.388,1.485 c 0.369,0.396 0.901,0.604 1.411,0.587 0.542,-0.018 1.029,-0.256 1.374,-0.674 l 0.998,-1.213 c 0.69,-0.838 1.707,-1.348 2.79,-1.4 1.095,-0.054 2.144,0.359 2.909,1.125 l 3.736,3.736 -1.414,1.414 -3.736,-3.736 c -0.374,-0.375 -0.859,-0.564 -1.399,-0.541 -0.528,0.025 -1.005,0.265 -1.342,0.674 l -0.998,1.213 c -0.706,0.856 -1.747,1.367 -2.855,1.4 -1.112,0.018 -2.178,-0.41 -2.935,-1.221 l -1.388,-1.484 c -0.367,-0.393 -0.857,-0.597 -1.403,-0.586 -0.538,0.014 -1.024,0.248 -1.37,0.66 l -1.052,1.252 c -0.714,0.851 -1.76,1.352 -2.87,1.375 -1.096,0.009 -2.176,-0.434 -2.925,-1.254 l -1.32,-1.443 c -0.358,-0.395 -0.894,-0.63 -1.382,-0.604 -0.532,0.004 -1.02,0.225 -1.372,0.622 l -1.252,1.411 c -0.703,0.791 -1.714,1.264 -2.771,1.293 -1.059,0.028 -2.093,-0.382 -2.839,-1.131 l -1.344,-1.349 c -0.352,-0.351 -0.808,-0.582 -1.313,-0.545 -0.494,0 -0.96,0.193 -1.31,0.543 z" />
		</g>
		<g
   id="g1457">
			<path
   style="fill:#3dc7d2"
   inkscape:connector-curvature="0"
   id="path1449"
   d="m 350.02,133.459 h -2.094 c -0.284,-1.169 -0.75,-2.266 -1.368,-3.26 l 0.007,-0.007 1.481,-1.481 c 0.33,-0.329 0.33,-0.863 0,-1.192 l -2.575,-2.575 c -0.33,-0.33 -0.863,-0.33 -1.193,0 l -1.48,1.48 c -1.027,-0.625 -2.133,-1.071 -3.272,-1.338 v -0.01 -2.094 c 0,-0.466 -0.377,-0.844 -0.843,-0.844 h -3.643 c -0.466,0 -0.843,0.378 -0.843,0.844 v 2.094 c -1.169,0.285 -2.266,0.752 -3.26,1.369 l -0.007,-0.008 -1.481,-1.48 c -0.329,-0.329 -0.863,-0.329 -1.192,0 l -2.576,2.576 c -0.329,0.328 -0.329,0.863 0,1.191 l 1.481,1.481 c -0.625,1.027 -1.071,2.133 -1.337,3.272 h -0.01 -2.095 c -0.465,0 -0.843,0.377 -0.843,0.843 v 3.643 c 0,0.466 0.377,0.843 0.843,0.843 h 2.095 c 0.284,1.169 0.75,2.266 1.368,3.26 l -0.006,0.008 -1.481,1.48 c -0.329,0.329 -0.329,0.863 0,1.192 l 2.576,2.575 c 0.33,0.33 0.863,0.33 1.192,0 l 1.481,-1.48 c 1.027,0.625 2.133,1.071 3.272,1.338 v 0.01 2.094 c 0,0.466 0.377,0.844 0.843,0.844 h 3.643 c 0.465,0 0.843,-0.377 0.843,-0.844 v -2.094 c 1.169,-0.285 2.266,-0.751 3.26,-1.368 l 0.006,0.007 1.481,1.48 c 0.329,0.33 0.863,0.33 1.192,0 l 2.576,-2.576 c 0.329,-0.328 0.329,-0.862 0,-1.191 l -1.481,-1.48 c 0.625,-1.027 1.072,-2.134 1.338,-3.273 h 0.01 2.094 c 0.466,0 0.843,-0.377 0.843,-0.843 v -3.643 c -0.002,-0.466 -0.38,-0.843 -0.845,-0.843 z" />
			<g
   id="g1455">
				<g
   id="g1453">
					<path
   style="fill:#111111"
   inkscape:connector-curvature="0"
   id="path1451"
   d="m 336.874,144.213 -0.042,-2 h 0.042 c 0.911,0 1.786,-0.197 2.601,-0.583 l 0.857,1.807 c -1.085,0.514 -2.249,0.776 -3.458,0.776 z m -4.584,-1.426 c -0.991,-0.684 -1.831,-1.597 -2.43,-2.641 l 1.734,-0.994 c 0.451,0.785 1.084,1.473 1.831,1.988 z m 11.55,-2.559 -1.724,-1.015 c 0.466,-0.791 0.74,-1.656 0.816,-2.573 l 1.993,0.165 c -0.1,1.218 -0.465,2.37 -1.085,3.423 z m -13.028,-4.568 -1.994,-0.152 c 0.094,-1.221 0.452,-2.375 1.066,-3.43 l 1.729,1.006 c -0.462,0.793 -0.731,1.659 -0.801,2.576 z m 11.358,-2.516 c -0.446,-0.788 -1.075,-1.479 -1.819,-1.999 l 1.146,-1.641 c 0.987,0.689 1.822,1.607 2.415,2.655 z m -7.93,-2.494 -0.867,-1.801 c 1.098,-0.529 2.275,-0.797 3.501,-0.797 l 0.082,1 -0.082,1 c -0.923,0.001 -1.81,0.202 -2.634,0.598 z" />
				</g>
			</g>
		</g>
		<g
   id="g1461">
			<rect
   style="fill:#111111"
   id="rect1459"
   height="2"
   width="19"
   y="223.868"
   x="600.52399" />
		</g>
		<g
   id="g1465">
			<rect
   style="fill:#111111"
   id="rect1463"
   height="2"
   width="19"
   y="187.645"
   x="231.84599" />
		</g>
		<g
   id="g1469">
			<rect
   style="fill:#111111"
   id="rect1467"
   height="2"
   width="19"
   y="193.60699"
   x="546.24597" />
		</g>
		<g
   id="g1473">
			<rect
   style="fill:#111111"
   id="rect1471"
   height="2"
   width="18.999001"
   y="139.474"
   x="554.71198" />
		</g>
		<g
   id="g1477">
			<rect
   style="fill:#111111"
   id="rect1475"
   height="2"
   width="16.15"
   y="262.71301"
   x="133.782" />
		</g>
		<g
   id="g1481">
			<rect
   style="fill:#111111"
   id="rect1479"
   height="2"
   width="33.561001"
   y="195.867"
   x="651.85199" />
		</g>
		<g
   id="g1495">
			<g
   id="g1485">
				<rect
   style="fill:#111111"
   id="rect1483"
   height="2"
   width="19"
   y="172.961"
   x="638.79999" />
			</g>
			<g
   id="g1489">
				<rect
   style="fill:#111111"
   id="rect1487"
   height="2"
   width="8.5"
   y="172.961"
   x="661.466" />
			</g>
			<g
   id="g1493">
				<path
   style="fill:#111111"
   inkscape:connector-curvature="0"
   id="path1491"
   d="m 677.873,178.221 c -2.349,0 -4.26,-1.911 -4.26,-4.26 0,-2.349 1.911,-4.26 4.26,-4.26 2.349,0 4.26,1.911 4.26,4.26 0,2.349 -1.911,4.26 -4.26,4.26 z m 0,-6.52 c -1.246,0 -2.26,1.014 -2.26,2.26 0,1.246 1.014,2.26 2.26,2.26 1.246,0 2.26,-1.014 2.26,-2.26 0,-1.246 -1.014,-2.26 -2.26,-2.26 z" />
			</g>
		</g>
		<g
   id="g1509">
			<g
   id="g1499">
				<rect
   style="fill:#111111"
   id="rect1497"
   height="2"
   width="19"
   y="223.666"
   x="170.23" />
			</g>
			<g
   id="g1503">
				<rect
   style="fill:#111111"
   id="rect1501"
   height="2"
   width="8.5"
   y="223.666"
   x="192.897" />
			</g>
			<g
   id="g1507">
				<path
   style="fill:#111111"
   inkscape:connector-curvature="0"
   id="path1505"
   d="m 209.304,228.925 c -2.349,0 -4.26,-1.911 -4.26,-4.259 0,-2.35 1.911,-4.261 4.26,-4.261 2.349,0 4.26,1.911 4.26,4.261 -0.001,2.348 -1.912,4.259 -4.26,4.259 z m 0,-6.52 c -1.246,0 -2.26,1.014 -2.26,2.261 0,1.246 1.014,2.259 2.26,2.259 1.246,0 2.26,-1.013 2.26,-2.259 -0.001,-1.247 -1.014,-2.261 -2.26,-2.261 z" />
			</g>
		</g>
		<g
   id="g1523">
			<g
   id="g1513">
				<rect
   style="fill:#111111"
   id="rect1511"
   height="2"
   width="19"
   y="130.056"
   x="391.98401" />
			</g>
			<g
   id="g1517">
				<rect
   style="fill:#111111"
   id="rect1515"
   height="2"
   width="8.5"
   y="130.056"
   x="379.81799" />
			</g>
			<g
   id="g1521">
				<path
   style="fill:#111111"
   inkscape:connector-curvature="0"
   id="path1519"
   d="m 371.911,135.316 c -2.349,0 -4.26,-1.912 -4.26,-4.261 0,-2.349 1.911,-4.26 4.26,-4.26 2.349,0 4.26,1.911 4.26,4.26 0,2.349 -1.911,4.261 -4.26,4.261 z m 0,-6.52 c -1.246,0 -2.26,1.014 -2.26,2.26 0,1.246 1.014,2.261 2.26,2.261 1.246,0 2.26,-1.015 2.26,-2.261 0,-1.246 -1.014,-2.26 -2.26,-2.26 z" />
			</g>
		</g>
		<g
   id="g1537">
			<g
   id="g1527">
				<rect
   style="fill:#111111"
   id="rect1525"
   height="2"
   width="18.999001"
   y="349.66"
   x="711.70398" />
			</g>
			<g
   id="g1531">
				<rect
   style="fill:#111111"
   id="rect1529"
   height="2"
   width="8.5"
   y="349.66"
   x="734.37" />
			</g>
			<g
   id="g1535">
				<path
   style="fill:#111111"
   inkscape:connector-curvature="0"
   id="path1533"
   d="m 750.777,354.921 c -2.349,0 -4.26,-1.911 -4.26,-4.261 0,-2.348 1.911,-4.26 4.26,-4.26 2.349,0 4.26,1.912 4.26,4.26 0,2.35 -1.911,4.261 -4.26,4.261 z m 0,-6.521 c -1.246,0 -2.26,1.014 -2.26,2.26 0,1.246 1.014,2.261 2.26,2.261 1.246,0 2.26,-1.015 2.26,-2.261 0,-1.246 -1.014,-2.26 -2.26,-2.26 z" />
			</g>
		</g>
		<g
   id="g1541">
			<polygon
   style="fill:#111111"
   id="polygon1539"
   points="424.335,133.867 432.078,127.872 439.147,133.363 446.109,127.291 453.394,133.464 460.124,127.258 467.618,133.465 474.138,127.337 482.509,133.818 481.284,135.399 474.264,129.964 467.701,136.131 460.194,129.913 453.449,136.133 446.128,129.93 439.221,135.953 432.076,130.403 425.56,135.449 " />
		</g>
		<g
   id="g1545">
			<path
   style="fill:#111111"
   inkscape:connector-curvature="0"
   id="path1543"
   d="m 553.414,182.461 c -0.761,0 -1.477,-0.297 -2.015,-0.834 l -2.032,-2.033 c -1.11,-1.109 -1.11,-2.917 0,-4.027 l 2.033,-2.033 c 1.075,-1.075 2.951,-1.076 4.027,0 l 2.033,2.033 c 1.11,1.11 1.11,2.918 0,4.027 l -2.033,2.033 c -0.536,0.537 -1.252,0.834 -2.013,0.834 z m 0,-7.762 c -0.227,0 -0.439,0.088 -0.6,0.248 l -2.033,2.033 c -0.33,0.33 -0.33,0.869 0,1.199 l 2.033,2.033 c 0.321,0.32 0.879,0.321 1.199,0 l 2.033,-2.033 c 0.33,-0.33 0.33,-0.869 0,-1.199 l -2.033,-2.033 c -0.159,-0.16 -0.372,-0.248 -0.599,-0.248 z" />
		</g>
		<g
   id="g1549">
			<path
   style="fill:#111111"
   inkscape:connector-curvature="0"
   id="path1547"
   d="m 731.269,302.732 c -0.762,0 -1.477,-0.297 -2.015,-0.834 l -2.032,-2.033 c -1.11,-1.11 -1.11,-2.918 0,-4.027 l 2.032,-2.033 c 1.075,-1.076 2.951,-1.076 4.028,0 l 2.032,2.033 c 1.111,1.109 1.111,2.917 0,4.027 l -2.032,2.033 c -0.538,0.538 -1.253,0.834 -2.013,0.834 z m 0,-7.761 c -0.228,0 -0.44,0.088 -0.601,0.248 l -2.033,2.033 c -0.33,0.33 -0.33,0.869 0,1.199 l 2.033,2.033 c 0.319,0.318 0.879,0.32 1.2,0 l 2.032,-2.033 c 0.331,-0.33 0.331,-0.869 0,-1.199 l -2.032,-2.033 c -0.16,-0.16 -0.373,-0.248 -0.599,-0.248 z" />
		</g>
		<g
   id="g1553">
			<path
   style="fill:#111111"
   inkscape:connector-curvature="0"
   id="path1551"
   d="m 650.568,255.025 c -0.762,0 -1.477,-0.297 -2.015,-0.835 l -2.032,-2.032 c -1.11,-1.111 -1.11,-2.918 0,-4.028 l 2.032,-2.032 c 1.075,-1.076 2.952,-1.077 4.028,0 l 2.032,2.032 c 1.111,1.11 1.111,2.917 0,4.028 l -2.032,2.032 c -0.537,0.539 -1.252,0.835 -2.013,0.835 z m 0,-7.761 c -0.228,0 -0.44,0.088 -0.601,0.248 l -2.032,2.032 c -0.331,0.331 -0.331,0.869 0,1.2 l 2.032,2.032 c 0.319,0.319 0.879,0.32 1.2,0 l 2.032,-2.032 c 0.331,-0.331 0.331,-0.869 0,-1.2 l -2.032,-2.032 c -0.159,-0.16 -0.372,-0.248 -0.599,-0.248 z" />
		</g>
		<g
   id="g1557">
			<path
   style="fill:#111111"
   inkscape:connector-curvature="0"
   id="path1555"
   d="m 602.408,283.813 c -0.761,0 -1.477,-0.296 -2.014,-0.835 l -2.033,-2.032 c -1.11,-1.11 -1.11,-2.917 0,-4.028 l 2.033,-2.032 c 1.074,-1.075 2.951,-1.077 4.027,0 l 2.033,2.032 c 1.11,1.111 1.11,2.918 0,4.028 l -2.033,2.032 c -0.537,0.54 -1.252,0.835 -2.013,0.835 z m 0,-7.761 c -0.227,0 -0.439,0.088 -0.6,0.248 l -2.033,2.032 c -0.33,0.331 -0.33,0.869 0,1.2 l 2.033,2.032 c 0.319,0.32 0.878,0.32 1.199,0 l 2.033,-2.032 c 0.33,-0.331 0.33,-0.869 0,-1.2 l -2.033,-2.032 c -0.159,-0.16 -0.372,-0.248 -0.599,-0.248 z" />
		</g>
		<g
   id="g1561">
			<path
   style="fill:#111111"
   inkscape:connector-curvature="0"
   id="path1559"
   d="m 84.22,265.723 c -0.761,0 -1.476,-0.297 -2.014,-0.835 l -2.032,-2.032 c -0.538,-0.538 -0.834,-1.254 -0.834,-2.014 0,-0.762 0.296,-1.477 0.834,-2.016 l 2.032,-2.031 c 1.076,-1.076 2.952,-1.077 4.028,0 l 2.033,2.032 c 1.11,1.11 1.11,2.917 0,4.028 l -2.033,2.032 c -0.538,0.539 -1.253,0.836 -2.014,0.836 z m 0,-7.762 c -0.227,0 -0.44,0.088 -0.6,0.248 l -2.032,2.032 c -0.161,0.161 -0.249,0.374 -0.249,0.601 0,0.226 0.088,0.438 0.249,0.599 l 2.032,2.033 c 0.32,0.319 0.879,0.32 1.2,0 l 2.033,-2.032 c 0.331,-0.331 0.331,-0.869 0,-1.2 L 84.82,258.21 c -0.16,-0.161 -0.373,-0.249 -0.6,-0.249 z" />
		</g>
		<g
   id="g1565">
			<path
   style="fill:#111111"
   inkscape:connector-curvature="0"
   id="path1563"
   d="m 55.75,338.836 c -0.761,0 -1.476,-0.297 -2.014,-0.835 l -2.032,-2.032 c -1.111,-1.11 -1.111,-2.918 0,-4.028 l 2.032,-2.032 c 1.077,-1.076 2.952,-1.076 4.028,0 l 2.033,2.031 c 1.11,1.111 1.11,2.918 0,4.029 l -2.033,2.033 c -0.538,0.537 -1.253,0.834 -2.014,0.834 z m 0,-7.762 c -0.227,0 -0.439,0.088 -0.6,0.248 l -2.033,2.032 c -0.331,0.331 -0.331,0.869 0,1.2 l 2.033,2.032 c 0.32,0.32 0.879,0.321 1.199,0 l 2.033,-2.032 c 0.33,-0.331 0.33,-0.869 0,-1.2 l -2.033,-2.032 c -0.16,-0.16 -0.372,-0.248 -0.599,-0.248 z" />
		</g>
		<g
   id="g1625">
			<g
   id="g1593">
				<g
   id="g1571">
					<g
   id="g1569">
						<path
   style="clip-rule:evenodd;fill:#ea572e;fill-rule:evenodd"
   inkscape:connector-curvature="0"
   id="path1567"
   d="m 597.031,194.039 c 11.488,0 20.802,-9.315 20.802,-20.803 0,-11.489 -9.313,-20.801 -20.802,-20.8 -11.487,0 -20.802,9.311 -20.802,20.8 0,11.488 9.315,20.803 20.802,20.803 z" />
					</g>
				</g>
				<g
   id="g1577">
					<g
   id="g1575">
						<path
   style="fill:#111111"
   inkscape:connector-curvature="0"
   id="path1573"
   d="m 597.04,187.367 -0.027,-2 h 0.027 c 0.902,0 1.803,-0.1 2.675,-0.295 l 0.438,1.951 c -1.016,0.229 -2.063,0.344 -3.113,0.344 z m -4.19,-0.633 c -1.006,-0.311 -1.981,-0.738 -2.897,-1.271 l 1.005,-1.729 c 0.786,0.457 1.621,0.824 2.483,1.09 z m 11.227,-1.24 -0.997,-1.734 c 0.785,-0.451 1.521,-0.992 2.188,-1.609 l 1.357,1.469 c -0.776,0.718 -1.634,1.349 -2.548,1.874 z m -17.41,-2.662 c -0.719,-0.775 -1.35,-1.633 -1.876,-2.545 l 1.732,-0.998 c 0.452,0.783 0.994,1.518 1.611,2.186 z m 22.593,-2.494 -1.729,-1.006 c 0.456,-0.783 0.824,-1.619 1.094,-2.484 l 1.909,0.596 c -0.313,1.007 -0.743,1.982 -1.274,2.894 z m -26.004,-3.973 c -0.23,-1.02 -0.347,-2.072 -0.347,-3.127 l 2,-0.016 v 0.016 c 0,0.906 0.1,1.811 0.298,2.686 z m 25.915,-3.088 v -0.039 c 0,-0.9 -0.099,-1.795 -0.293,-2.662 l 1.952,-0.438 c 0.226,1.01 0.341,2.053 0.341,3.1 z m -23.723,-3.627 -1.911,-0.59 c 0.311,-1.008 0.737,-1.982 1.269,-2.898 l 1.73,1.002 c -0.455,0.787 -0.821,1.623 -1.088,2.486 z m 22.121,-2.441 c -0.452,-0.787 -0.992,-1.525 -1.606,-2.191 l 1.47,-1.355 c 0.716,0.775 1.346,1.635 1.871,2.551 z m -18.775,-2.869 -1.36,-1.467 c 0.774,-0.719 1.631,-1.35 2.544,-1.879 l 1.001,1.732 c -0.785,0.454 -1.52,0.997 -2.185,1.614 z m 14.351,-1.588 c -0.784,-0.459 -1.619,-0.826 -2.481,-1.096 l 0.595,-1.91 c 1.007,0.314 1.98,0.744 2.896,1.279 z m -8.803,-1.346 -0.444,-1.949 c 1.022,-0.232 2.08,-0.352 3.143,-0.352 l 0.055,2 h -0.055 c -0.914,0 -1.822,0.102 -2.699,0.301 z" />
					</g>
				</g>
				<g
   id="g1591">
					<g
   id="g1581">
						<path
   style="fill:#111111"
   inkscape:connector-curvature="0"
   id="path1579"
   d="m 598.161,180.592 h -1.604 c -1.892,0 -3.43,-1.539 -3.43,-3.43 v -0.748 h 2 v 0.748 c 0,0.789 0.642,1.43 1.43,1.43 h 1.604 c 0.729,0 1.321,-0.594 1.321,-1.32 v -1.533 c 0,-0.828 -0.673,-1.5 -1.5,-1.5 h -2.126 c -1.807,0 -3.276,-1.471 -3.276,-3.279 v -0.746 c 0,-2.174 1.769,-3.941 3.941,-3.941 h 1.026 c 1.859,0 3.372,1.512 3.372,3.371 v 1.211 h -2 v -1.211 c 0,-0.756 -0.615,-1.371 -1.372,-1.371 h -1.026 c -1.07,0 -1.941,0.871 -1.941,1.941 v 0.746 c 0,0.705 0.572,1.279 1.276,1.279 h 2.126 c 1.93,0 3.5,1.57 3.5,3.5 v 1.533 c 0,1.83 -1.489,3.32 -3.321,3.32 z" />
					</g>
					<g
   id="g1585">
						<rect
   style="fill:#111111"
   id="rect1583"
   height="3.178"
   width="2"
   y="179.592"
   x="596.03101" />
					</g>
					<g
   id="g1589">
						<rect
   style="fill:#111111"
   id="rect1587"
   height="3.566"
   width="2"
   y="163.705"
   x="596.03101" />
					</g>
				</g>
			</g>
			<g
   id="g1623">
				<g
   id="g1601">
					<g
   id="g1599">
						<g
   id="g1597">
							<path
   style="fill:#111111"
   inkscape:connector-curvature="0"
   id="path1595"
   d="m 597.079,200.058 c -0.663,0 -1.335,-0.025 -1.998,-0.074 -7.135,-0.52 -13.647,-3.795 -18.338,-9.222 -4.686,-5.429 -6.98,-12.348 -6.462,-19.482 0.529,-7.155 3.818,-13.677 9.262,-18.367 5.379,-4.626 12.396,-6.938 19.444,-6.424 7.133,0.519 13.643,3.793 18.331,9.22 4.688,5.427 6.983,12.344 6.463,19.478 -0.266,3.661 -1.25,7.154 -2.924,10.383 -1.033,1.993 -2.324,3.856 -3.837,5.537 l -0.509,0.565 -0.011,-0.005 c -0.622,0.658 -1.288,1.293 -1.985,1.893 -0.85,0.733 -1.752,1.418 -2.681,2.034 -4.382,2.92 -9.484,4.464 -14.755,4.464 z m -0.091,-51.644 c -5.899,0 -11.632,2.136 -16.141,6.014 -5.037,4.341 -8.082,10.377 -8.572,16.998 -0.479,6.602 1.645,13.004 5.981,18.028 4.341,5.022 10.368,8.054 16.97,8.535 5.509,0.401 10.936,-1.02 15.501,-4.062 0.86,-0.571 1.695,-1.205 2.482,-1.884 0.83,-0.714 1.608,-1.479 2.316,-2.274 l 0.41,-0.461 c 1.227,-1.433 2.283,-2.998 3.146,-4.66 1.548,-2.986 2.458,-6.219 2.705,-9.607 0.481,-6.602 -1.644,-13.003 -5.981,-18.025 -4.34,-5.022 -10.364,-8.053 -16.964,-8.533 -0.615,-0.045 -1.238,-0.069 -1.853,-0.069 z" />
						</g>
					</g>
				</g>
				<g
   id="g1613">
					<g
   id="g1607">
						<g
   id="g1605">
							<path
   style="fill:#111111"
   inkscape:connector-curvature="0"
   id="path1603"
   d="m 615.804,183.752 -1.775,-0.92 c 1.036,-1.998 1.646,-4.163 1.811,-6.432 l 1.994,0.144 c -0.186,2.544 -0.868,4.968 -2.03,7.208 z" />
						</g>
					</g>
					<g
   id="g1611">
						<path
   style="fill:#111111"
   inkscape:connector-curvature="0"
   id="path1609"
   d="m 607.862,191.705 -0.928,-1.771 c 0.514,-0.27 1.019,-0.568 1.502,-0.891 0.574,-0.381 1.133,-0.807 1.662,-1.262 0.544,-0.469 1.565,-1.537 1.576,-1.547 l 1.445,1.383 c -0.045,0.045 -1.101,1.148 -1.717,1.68 -0.591,0.51 -1.217,0.984 -1.859,1.412 -0.539,0.359 -1.105,0.693 -1.681,0.996 z" />
					</g>
				</g>
				<g
   id="g1617">
					
						<rect
   style="fill:#111111"
   id="rect1615"
   height="2"
   width="5.2880001"
   transform="matrix(0.7071,0.7071,-0.7071,0.7071,317.6605,-379.5048)"
   y="192.698"
   x="614.289" />
				</g>
				<g
   id="g1621">
					
						<rect
   style="fill:#f3a52d"
   id="rect1619"
   height="10.999"
   width="39.424"
   transform="matrix(0.7071,0.7071,-0.7071,0.7071,333.4686,-386.0527)"
   y="204.006"
   x="613.02899" />
				</g>
			</g>
		</g>
		<g
   id="g1635">
			<path
   style="fill:#ea572e"
   inkscape:connector-curvature="0"
   id="path1627"
   d="m 256.202,218.953 h -2.094 c -0.284,-1.168 -0.751,-2.266 -1.369,-3.26 l 0.007,-0.006 1.481,-1.481 c 0.329,-0.329 0.329,-0.863 0,-1.192 l -2.576,-2.576 c -0.33,-0.328 -0.863,-0.328 -1.193,0 l -1.48,1.481 c -1.027,-0.626 -2.133,-1.071 -3.272,-1.338 v -0.009 -2.096 c 0,-0.465 -0.377,-0.843 -0.843,-0.843 h -3.643 c -0.466,0 -0.843,0.378 -0.843,0.843 v 2.095 c -1.169,0.284 -2.266,0.751 -3.26,1.368 l -0.007,-0.007 -1.481,-1.481 c -0.329,-0.328 -0.863,-0.328 -1.192,0 l -2.576,2.576 c -0.329,0.329 -0.329,0.863 0,1.192 l 1.481,1.481 c -0.625,1.027 -1.072,2.133 -1.338,3.271 h -0.01 -2.094 c -0.465,0 -0.843,0.378 -0.843,0.844 v 3.643 c 0,0.465 0.377,0.843 0.843,0.843 h 2.095 c 0.284,1.169 0.75,2.267 1.368,3.26 l -0.007,0.007 -1.481,1.48 c -0.329,0.33 -0.329,0.863 0,1.193 l 2.576,2.575 c 0.329,0.329 0.863,0.329 1.192,0 l 1.481,-1.481 c 1.027,0.626 2.133,1.072 3.272,1.338 v 0.01 2.095 c 0,0.466 0.377,0.843 0.843,0.843 h 3.643 c 0.465,0 0.843,-0.377 0.843,-0.843 v -2.095 c 1.168,-0.283 2.266,-0.75 3.26,-1.367 l 0.007,0.006 1.481,1.481 c 0.329,0.329 0.863,0.329 1.192,0 l 2.576,-2.575 c 0.329,-0.33 0.329,-0.863 0,-1.192 l -1.481,-1.481 c 0.626,-1.027 1.072,-2.133 1.338,-3.272 h 0.01 2.095 c 0.465,0 0.843,-0.377 0.843,-0.843 v -3.643 c -10e-4,-0.466 -0.379,-0.844 -0.844,-0.844 z" />
			<g
   id="g1633">
				<g
   id="g1631">
					<path
   style="fill:#111111"
   inkscape:connector-curvature="0"
   id="path1629"
   d="m 243.056,229.707 -0.041,-2 h 0.041 c 0.911,0 1.787,-0.195 2.603,-0.582 l 0.857,1.807 c -1.086,0.515 -2.25,0.775 -3.46,0.775 z m -4.582,-1.425 c -0.992,-0.684 -1.833,-1.597 -2.431,-2.641 l 1.734,-0.994 c 0.45,0.786 1.084,1.474 1.831,1.988 z m 11.548,-2.559 -1.723,-1.016 c 0.465,-0.79 0.739,-1.656 0.814,-2.572 l 1.994,0.164 c -0.1,1.22 -0.464,2.371 -1.085,3.424 z m -13.027,-4.569 -1.994,-0.15 c 0.092,-1.219 0.45,-2.373 1.065,-3.431 l 1.729,1.006 c -0.462,0.794 -0.731,1.661 -0.8,2.575 z m 11.357,-2.515 c -0.446,-0.789 -1.075,-1.48 -1.819,-2 L 247.678,215 c 0.987,0.688 1.822,1.606 2.415,2.654 z m -7.93,-2.493 -0.867,-1.803 c 1.099,-0.527 2.276,-0.796 3.501,-0.796 l 0.082,1 -0.082,1 c -0.922,0.001 -1.809,0.202 -2.634,0.599 z" />
				</g>
			</g>
		</g>
		<g
   id="g1663">
			<circle
   style="fill:#ffffff"
   id="circle1637"
   r="51.487999"
   cy="319.31299"
   cx="655.90302" />
			<g
   id="g1641">
				<path
   style="fill:#111111"
   inkscape:connector-curvature="0"
   id="path1639"
   d="m 655.902,371.801 c -28.941,0 -52.487,-23.547 -52.487,-52.488 0,-28.941 23.546,-52.488 52.487,-52.488 28.942,0 52.488,23.547 52.488,52.488 0,28.941 -23.545,52.488 -52.488,52.488 z m 0,-102.977 c -27.839,0 -50.487,22.649 -50.487,50.488 0,27.839 22.648,50.488 50.487,50.488 27.839,0 50.488,-22.649 50.488,-50.488 0,-27.839 -22.649,-50.488 -50.488,-50.488 z" />
			</g>
			<circle
   style="fill:#ea572e"
   id="circle1643"
   r="40.367001"
   cy="319.31299"
   cx="655.90302" />
			<circle
   style="fill:#ffffff"
   id="circle1645"
   r="27.306999"
   cy="319.31299"
   cx="655.90302" />
			<g
   id="g1649">
				<path
   style="fill:#111111"
   inkscape:connector-curvature="0"
   id="path1647"
   d="m 655.903,347.619 c -15.608,0 -28.307,-12.698 -28.307,-28.307 0,-15.609 12.698,-28.307 28.307,-28.307 15.609,0 28.307,12.698 28.307,28.307 0,15.609 -12.698,28.307 -28.307,28.307 z m 0,-54.613 c -14.506,0 -26.307,11.801 -26.307,26.307 0,14.506 11.801,26.307 26.307,26.307 14.506,0 26.307,-11.801 26.307,-26.307 0,-14.506 -11.801,-26.307 -26.307,-26.307 z" />
			</g>
			<circle
   style="fill:#ea572e"
   id="circle1651"
   r="12.729"
   cy="319.31299"
   cx="655.90302" />
			<g
   id="g1661">
				<g
   id="g1655">
					<rect
   style="fill:#111111"
   id="rect1653"
   height="7.5009999"
   width="74.218002"
   y="315.56201"
   x="655.90302" />
				</g>
				<g
   id="g1659">
					<polygon
   style="fill:#111111"
   id="polygon1657"
   points="754.829,327.376 740.254,327.376 728.271,320.146 728.271,318.48 740.254,311.249 754.829,311.249 746.768,319.313 " />
				</g>
			</g>
		</g>
		<g
   id="g1845">
			<g
   id="g1671">
				<g
   id="g1669">
					<g
   id="g1667">
						<path
   style="fill:#3dc7d2"
   inkscape:connector-curvature="0"
   id="path1665"
   d="m 321.276,364.144 c 0,3.871 -3.138,7.009 -7.009,7.009 h -57.802 c -3.871,0 -7.009,-3.138 -7.009,-7.009 V 299.74 c 0,-3.87 3.138,-7.009 7.009,-7.009 h 57.802 c 3.871,0 7.009,3.139 7.009,7.009 z" />
					</g>
				</g>
			</g>
			<g
   id="g1689">
				<g
   id="g1687">
					<g
   id="g1685">
						<g
   id="g1675">
							<path
   style="fill:#111111"
   inkscape:connector-curvature="0"
   id="path1673"
   d="m 322.276,338.832 h -2 V 299.74 c 0,-3.314 -2.695,-6.01 -6.009,-6.01 h -57.802 c -3.313,0 -6.009,2.695 -6.009,6.01 v 20.307 h -2 V 299.74 c 0,-4.417 3.593,-8.01 8.009,-8.01 h 57.802 c 4.416,0 8.009,3.593 8.009,8.01 z" />
						</g>
						<g
   id="g1679">
							<path
   style="fill:#111111"
   inkscape:connector-curvature="0"
   id="path1677"
   d="m 314.267,372.152 h -57.802 c -4.416,0 -8.009,-3.592 -8.009,-8.008 v -30.176 h 2 v 30.176 c 0,3.313 2.695,6.008 6.009,6.008 h 57.802 c 3.313,0 6.009,-2.695 6.009,-6.008 v -9.182 h 2 v 9.182 c 0,4.417 -3.593,8.008 -8.009,8.008 z" />
						</g>
						<g
   id="g1683">
							<rect
   style="fill:#111111"
   id="rect1681"
   height="5.322"
   width="2"
   y="344.05099"
   x="320.276" />
						</g>
					</g>
				</g>
			</g>
			<g
   id="g1697">
				<g
   id="g1695">
					<g
   id="g1693">
						<path
   style="fill:#ffffff"
   inkscape:connector-curvature="0"
   id="path1691"
   d="m 311.617,313.005 h -52.501 c -1.961,0 -3.55,-1.59 -3.55,-3.55 v -7.37 c 0,-1.96 1.589,-3.55 3.55,-3.55 h 52.501 c 1.96,0 3.55,1.59 3.55,3.55 v 7.37 c 0,1.96 -1.59,3.55 -3.55,3.55 z" />
					</g>
				</g>
			</g>
			<g
   id="g1705">
				<g
   id="g1703">
					<g
   id="g1701">
						<path
   style="fill:#7c7e82"
   inkscape:connector-curvature="0"
   id="path1699"
   d="m 262.44,329.587 h -5.178 c -1.045,0 -1.892,-0.847 -1.892,-1.892 v -5.179 c 0,-1.045 0.847,-1.892 1.892,-1.892 h 5.178 c 1.045,0 1.892,0.847 1.892,1.892 v 5.179 c 0,1.045 -0.847,1.892 -1.892,1.892 z" />
					</g>
				</g>
			</g>
			<g
   id="g1713">
				<g
   id="g1711">
					<g
   id="g1709">
						<path
   style="fill:#7c7e82"
   inkscape:connector-curvature="0"
   id="path1707"
   d="m 262.44,340.68 h -5.178 c -1.045,0 -1.892,-0.847 -1.892,-1.892 v -5.179 c 0,-1.045 0.847,-1.893 1.892,-1.893 h 5.178 c 1.045,0 1.892,0.848 1.892,1.893 v 5.179 c 0,1.045 -0.847,1.892 -1.892,1.892 z" />
					</g>
				</g>
			</g>
			<g
   id="g1721">
				<g
   id="g1719">
					<g
   id="g1717">
						<path
   style="fill:#7c7e82"
   inkscape:connector-curvature="0"
   id="path1715"
   d="m 262.44,352.631 h -5.178 c -1.045,0 -1.892,-0.847 -1.892,-1.892 v -5.179 c 0,-1.045 0.847,-1.892 1.892,-1.892 h 5.178 c 1.045,0 1.892,0.847 1.892,1.892 v 5.179 c 0,1.045 -0.847,1.892 -1.892,1.892 z" />
					</g>
				</g>
			</g>
			<g
   id="g1729">
				<g
   id="g1727">
					<g
   id="g1725">
						<path
   style="fill:#7c7e82"
   inkscape:connector-curvature="0"
   id="path1723"
   d="m 273.531,329.587 h -5.178 c -1.045,0 -1.892,-0.847 -1.892,-1.892 v -5.179 c 0,-1.045 0.847,-1.892 1.892,-1.892 h 5.178 c 1.045,0 1.892,0.847 1.892,1.892 v 5.179 c 0,1.045 -0.847,1.892 -1.892,1.892 z" />
					</g>
				</g>
			</g>
			<g
   id="g1737">
				<g
   id="g1735">
					<g
   id="g1733">
						<path
   style="fill:#7c7e82"
   inkscape:connector-curvature="0"
   id="path1731"
   d="m 273.531,340.68 h -5.178 c -1.045,0 -1.892,-0.847 -1.892,-1.892 v -5.179 c 0,-1.045 0.847,-1.893 1.892,-1.893 h 5.178 c 1.045,0 1.892,0.848 1.892,1.893 v 5.179 c 0,1.045 -0.847,1.892 -1.892,1.892 z" />
					</g>
				</g>
			</g>
			<g
   id="g1745">
				<g
   id="g1743">
					<g
   id="g1741">
						<path
   style="fill:#7c7e82"
   inkscape:connector-curvature="0"
   id="path1739"
   d="m 273.531,352.631 h -5.178 c -1.045,0 -1.892,-0.847 -1.892,-1.892 v -5.179 c 0,-1.045 0.847,-1.892 1.892,-1.892 h 5.178 c 1.045,0 1.892,0.847 1.892,1.892 v 5.179 c 0,1.045 -0.847,1.892 -1.892,1.892 z" />
					</g>
				</g>
			</g>
			<g
   id="g1753">
				<g
   id="g1751">
					<g
   id="g1749">
						<path
   style="fill:#7c7e82"
   inkscape:connector-curvature="0"
   id="path1747"
   d="m 284.286,329.587 h -5.178 c -1.045,0 -1.892,-0.847 -1.892,-1.892 v -5.179 c 0,-1.045 0.847,-1.892 1.892,-1.892 h 5.178 c 1.045,0 1.892,0.847 1.892,1.892 v 5.179 c 0,1.045 -0.847,1.892 -1.892,1.892 z" />
					</g>
				</g>
			</g>
			<g
   id="g1761">
				<g
   id="g1759">
					<g
   id="g1757">
						<path
   style="fill:#7c7e82"
   inkscape:connector-curvature="0"
   id="path1755"
   d="m 284.286,340.68 h -5.178 c -1.045,0 -1.892,-0.847 -1.892,-1.892 v -5.179 c 0,-1.045 0.847,-1.893 1.892,-1.893 h 5.178 c 1.045,0 1.892,0.848 1.892,1.893 v 5.179 c 0,1.045 -0.847,1.892 -1.892,1.892 z" />
					</g>
				</g>
			</g>
			<g
   id="g1769">
				<g
   id="g1767">
					<g
   id="g1765">
						<path
   style="fill:#7c7e82"
   inkscape:connector-curvature="0"
   id="path1763"
   d="m 301.331,340.68 h -5.179 c -1.045,0 -1.892,-0.847 -1.892,-1.892 v -5.179 c 0,-1.045 0.847,-1.893 1.892,-1.893 h 5.179 c 1.045,0 1.892,0.848 1.892,1.893 v 5.179 c 0,1.045 -0.847,1.892 -1.892,1.892 z" />
					</g>
				</g>
			</g>
			<g
   id="g1777">
				<g
   id="g1775">
					<g
   id="g1773">
						<path
   style="fill:#7c7e82"
   inkscape:connector-curvature="0"
   id="path1771"
   d="m 312.086,340.68 h -5.178 c -1.045,0 -1.892,-0.847 -1.892,-1.892 v -5.179 c 0,-1.045 0.847,-1.893 1.892,-1.893 h 5.178 c 1.045,0 1.892,0.848 1.892,1.893 v 5.179 c 0,1.045 -0.847,1.892 -1.892,1.892 z" />
					</g>
				</g>
			</g>
			<g
   id="g1785">
				<g
   id="g1783">
					<g
   id="g1781">
						<path
   style="fill:#7c7e82"
   inkscape:connector-curvature="0"
   id="path1779"
   d="m 301.331,329.587 h -5.179 c -1.045,0 -1.892,-0.847 -1.892,-1.892 v -5.179 c 0,-1.045 0.847,-1.892 1.892,-1.892 h 5.179 c 1.045,0 1.892,0.847 1.892,1.892 v 5.179 c 0,1.045 -0.847,1.892 -1.892,1.892 z" />
					</g>
				</g>
			</g>
			<g
   id="g1793">
				<g
   id="g1791">
					<g
   id="g1789">
						<path
   style="fill:#7c7e82"
   inkscape:connector-curvature="0"
   id="path1787"
   d="m 312.086,329.587 h -5.178 c -1.045,0 -1.892,-0.847 -1.892,-1.892 v -5.179 c 0,-1.045 0.847,-1.892 1.892,-1.892 h 5.178 c 1.045,0 1.892,0.847 1.892,1.892 v 5.179 c 0,1.045 -0.847,1.892 -1.892,1.892 z" />
					</g>
				</g>
			</g>
			<g
   id="g1801">
				<g
   id="g1799">
					<g
   id="g1797">
						<path
   style="fill:#7c7e82"
   inkscape:connector-curvature="0"
   id="path1795"
   d="m 284.286,352.631 h -5.178 c -1.045,0 -1.892,-0.847 -1.892,-1.892 v -5.179 c 0,-1.045 0.847,-1.892 1.892,-1.892 h 5.178 c 1.045,0 1.892,0.847 1.892,1.892 v 5.179 c 0,1.045 -0.847,1.892 -1.892,1.892 z" />
					</g>
				</g>
			</g>
			<g
   id="g1809">
				<g
   id="g1807">
					<g
   id="g1805">
						<path
   style="fill:#7c7e82"
   inkscape:connector-curvature="0"
   id="path1803"
   d="m 262.44,363.498 h -5.178 c -1.045,0 -1.892,-0.847 -1.892,-1.892 v -5.179 c 0,-1.045 0.847,-1.892 1.892,-1.892 h 5.178 c 1.045,0 1.892,0.847 1.892,1.892 v 5.179 c 0,1.045 -0.847,1.892 -1.892,1.892 z" />
					</g>
				</g>
			</g>
			<g
   id="g1817">
				<g
   id="g1815">
					<g
   id="g1813">
						<path
   style="fill:#7c7e82"
   inkscape:connector-curvature="0"
   id="path1811"
   d="m 273.531,363.498 h -5.178 c -1.045,0 -1.892,-0.847 -1.892,-1.892 v -5.179 c 0,-1.045 0.847,-1.892 1.892,-1.892 h 5.178 c 1.045,0 1.892,0.847 1.892,1.892 v 5.179 c 0,1.045 -0.847,1.892 -1.892,1.892 z" />
					</g>
				</g>
			</g>
			<g
   id="g1825">
				<g
   id="g1823">
					<g
   id="g1821">
						<path
   style="fill:#7c7e82"
   inkscape:connector-curvature="0"
   id="path1819"
   d="m 284.286,363.498 h -5.178 c -1.045,0 -1.892,-0.847 -1.892,-1.892 v -5.179 c 0,-1.045 0.847,-1.892 1.892,-1.892 h 5.178 c 1.045,0 1.892,0.847 1.892,1.892 v 5.179 c 0,1.045 -0.847,1.892 -1.892,1.892 z" />
					</g>
				</g>
			</g>
			<g
   id="g1835">
				<g
   id="g1833">
					<g
   id="g1831">
						<g
   id="g1829">
							<path
   style="fill:#111111"
   inkscape:connector-curvature="0"
   id="path1827"
   d="m 312.662,364.387 h -17.085 c -1.595,0 -2.892,-1.297 -2.892,-2.893 v -5.178 c 0,-1.596 1.297,-2.893 2.892,-2.893 h 17.085 c 1.595,0 2.892,1.297 2.892,2.893 v 5.178 c 0,1.596 -1.297,2.893 -2.892,2.893 z m -17.085,-8.963 c -0.492,0 -0.892,0.4 -0.892,0.893 v 5.178 c 0,0.492 0.4,0.893 0.892,0.893 h 17.085 c 0.492,0 0.892,-0.4 0.892,-0.893 v -5.178 c 0,-0.492 -0.4,-0.893 -0.892,-0.893 z" />
						</g>
					</g>
				</g>
			</g>
			<g
   id="g1843">
				<g
   id="g1841">
					<g
   id="g1839">
						<path
   style="fill:#e6e6e6"
   inkscape:connector-curvature="0"
   id="path1837"
   d="m 312.662,352.195 h -17.085 c -1.045,0 -1.892,-0.847 -1.892,-1.892 v -5.179 c 0,-1.045 0.847,-1.892 1.892,-1.892 h 17.085 c 1.045,0 1.892,0.847 1.892,1.892 v 5.179 c 0,1.046 -0.847,1.892 -1.892,1.892 z" />
					</g>
				</g>
			</g>
		</g>
		<g
   id="g1871">
			<g
   id="g1857">
				<path
   style="clip-rule:evenodd;fill:#e6e6e6;fill-rule:evenodd"
   inkscape:connector-curvature="0"
   id="path1847"
   d="m 208.341,203.475 h -14.146 c -4.857,0 -8.832,-3.975 -8.832,-8.832 v 0 c 0,-4.857 3.975,-8.832 8.832,-8.832 h 14.146 c 4.858,0 8.832,3.975 8.832,8.832 v 0 c 0,4.857 -3.974,8.832 -8.832,8.832 z" />
				<g
   id="g1855">
					<circle
   style="clip-rule:evenodd;fill:#7c7e82;fill-rule:evenodd"
   id="circle1849"
   r="2.2260001"
   cy="194.64301"
   cx="210.63901" />
					<circle
   style="clip-rule:evenodd;fill:#7c7e82;fill-rule:evenodd"
   id="circle1851"
   r="2.2260001"
   cy="194.64301"
   cx="201.26801" />
					<circle
   style="clip-rule:evenodd;fill:#7c7e82;fill-rule:evenodd"
   id="circle1853"
   r="2.2260001"
   cy="194.64301"
   cx="191.897" />
				</g>
			</g>
			<g
   id="g1869">
				<path
   style="clip-rule:evenodd;fill:#e6e6e6;fill-rule:evenodd"
   inkscape:connector-curvature="0"
   id="path1859"
   d="m 182.322,177.455 h -14.146 c -4.858,0 -8.832,-3.975 -8.832,-8.832 v 0 c 0,-4.858 3.974,-8.832 8.832,-8.832 h 14.146 c 4.857,0 8.832,3.974 8.832,8.832 v 0 c 0,4.857 -3.975,8.832 -8.832,8.832 z" />
				<g
   id="g1867">
					<circle
   style="clip-rule:evenodd;fill:#7c7e82;fill-rule:evenodd"
   id="circle1861"
   r="2.2260001"
   cy="168.623"
   cx="184.619" />
					<circle
   style="clip-rule:evenodd;fill:#7c7e82;fill-rule:evenodd"
   id="circle1863"
   r="2.2260001"
   cy="168.623"
   cx="175.24899" />
					<circle
   style="clip-rule:evenodd;fill:#7c7e82;fill-rule:evenodd"
   id="circle1865"
   r="2.2260001"
   cy="168.623"
   cx="165.877" />
				</g>
			</g>
		</g>
		<g
   id="g1915">
			<g
   id="g1885">
				<g
   id="g1875">
					<path
   style="fill:#111111"
   inkscape:connector-curvature="0"
   id="path1873"
   d="m 626.466,353.334 -1.346,-1.48 c 0.479,-0.436 0.945,-0.885 1.396,-1.348 l 1.432,1.398 c -0.478,0.491 -0.973,0.967 -1.482,1.43 z" />
				</g>
				<g
   id="g1879">
					<path
   style="fill:#111111"
   inkscape:connector-curvature="0"
   id="path1877"
   d="m 631.31,347.894 -1.627,-1.164 c 0.764,-1.067 1.47,-2.19 2.097,-3.34 l 1.756,0.959 c -0.667,1.219 -1.416,2.413 -2.226,3.545 z m -54.085,-0.044 c -0.806,-1.141 -1.544,-2.344 -2.193,-3.576 l 1.77,-0.932 c 0.609,1.156 1.301,2.283 2.057,3.352 z m 58.457,-8.276 -1.883,-0.676 c 0.444,-1.236 0.813,-2.509 1.094,-3.781 l 1.953,0.432 c -0.3,1.355 -0.692,2.71 -1.164,4.025 z m -62.71,-0.119 c -0.44,-1.316 -0.803,-2.68 -1.077,-4.049 l 1.961,-0.393 c 0.258,1.288 0.599,2.569 1.013,3.807 z m 64.59,-9.097 -1.996,-0.112 c 0.031,-0.555 0.047,-1.111 0.047,-1.668 0,-0.755 -0.027,-1.518 -0.081,-2.268 l 1.994,-0.143 c 0.058,0.797 0.087,1.607 0.087,2.41 -0.001,0.595 -0.018,1.19 -0.051,1.781 z m -66.299,-0.149 c -0.018,-0.397 -0.029,-0.797 -0.034,-1.198 l -0.002,-0.416 c 10e-4,-0.86 0.033,-1.724 0.097,-2.567 l 1.994,0.148 c -0.06,0.795 -0.09,1.609 -0.091,2.42 l 0.002,0.394 c 0.005,0.378 0.017,0.757 0.032,1.134 z m 63.53,-8.762 c -0.298,-1.272 -0.682,-2.541 -1.14,-3.771 l 1.873,-0.699 c 0.488,1.31 0.896,2.659 1.214,4.014 z m -60.728,-0.135 -1.947,-0.456 c 0.318,-1.357 0.725,-2.707 1.209,-4.011 l 1.875,0.696 c -0.455,1.226 -0.838,2.494 -1.137,3.771 z m 57.508,-8.095 c -0.645,-1.139 -1.368,-2.248 -2.152,-3.301 l 1.604,-1.195 c 0.834,1.119 1.604,2.3 2.289,3.51 z m -54.303,-0.141 -1.744,-0.979 c 0.68,-1.213 1.444,-2.395 2.272,-3.516 l 1.609,1.188 c -0.779,1.055 -1.498,2.168 -2.137,3.307 z m 48.912,-6.865 c -0.936,-0.916 -1.939,-1.782 -2.981,-2.574 l 1.209,-1.593 c 1.109,0.843 2.176,1.764 3.171,2.737 z m -43.551,-0.156 -1.402,-1.426 c 0.993,-0.978 2.059,-1.9 3.166,-2.744 l 1.211,1.591 c -1.041,0.792 -2.042,1.66 -2.975,2.579 z m 36.433,-5.082 c -1.153,-0.619 -2.356,-1.173 -3.576,-1.644 l 0.721,-1.866 c 1.297,0.501 2.577,1.09 3.803,1.75 z m -29.319,-0.155 -0.941,-1.766 c 1.231,-0.657 2.517,-1.24 3.819,-1.732 l 0.707,1.871 c -1.223,0.462 -2.429,1.009 -3.585,1.627 z m 21.029,-2.893 c -1.276,-0.272 -2.588,-0.468 -3.896,-0.579 l 0.17,-1.992 c 1.391,0.118 2.785,0.325 4.144,0.615 z m -12.717,-0.089 -0.395,-1.961 c 1.362,-0.274 2.76,-0.463 4.154,-0.561 l 0.139,1.996 c -1.309,0.091 -2.62,0.268 -3.898,0.526 z" />
				</g>
				<g
   id="g1883">
					<path
   style="fill:#111111"
   inkscape:connector-curvature="0"
   id="path1881"
   d="m 582.158,353.343 c -0.518,-0.457 -1.019,-0.929 -1.502,-1.415 l 1.418,-1.41 c 0.454,0.455 0.924,0.898 1.408,1.327 z" />
				</g>
			</g>
			<path
   style="fill:#f3a52d"
   inkscape:connector-curvature="0"
   id="path1887"
   d="m 629.612,328.578 c 0,-14.59 -12.409,-26.297 -27.207,-25.285 -13.188,0.902 -23.337,12.404 -23.178,25.621 0.112,9.33 4.918,17.439 12.961,21.736 2.864,1.529 4.589,4.578 4.589,7.823 v 0.061 h 15.832 v -0.061 c 0,-3.28 1.67,-6.354 4.47,-8.06 7.227,-4.406 12.533,-12.532 12.533,-21.835 z" />
			<g
   id="g1891">
				<path
   style="fill:#111111"
   inkscape:connector-curvature="0"
   id="path1889"
   d="m 614.649,346.432 -1.041,-1.707 c 3.525,-2.15 6.333,-5.398 7.907,-9.145 l 1.844,0.775 c -1.735,4.131 -4.828,7.709 -8.71,10.077 z" />
			</g>
			<g
   id="g1895">
				<path
   style="fill:#111111"
   inkscape:connector-curvature="0"
   id="path1893"
   d="m 622.934,327.84 c -0.102,-2.594 -0.73,-5.089 -1.869,-7.415 l 1.797,-0.879 c 1.262,2.577 1.958,5.341 2.07,8.216 z" />
			</g>
			<g
   id="g1901">
				<g
   id="g1899">
					<path
   style="fill:#ffffff"
   inkscape:connector-curvature="0"
   id="path1897"
   d="m 612.864,371.331 h -16.342 c -1.864,0 -3.382,-1.518 -3.382,-3.382 V 360.7 c 0,-1.864 1.518,-3.382 3.382,-3.382 h 16.342 c 1.864,0 3.382,1.518 3.382,3.382 v 7.249 c 0,1.864 -1.517,3.382 -3.382,3.382 z" />
				</g>
			</g>
			<g
   id="g1909">
				<g
   id="g1907">
					<g
   id="g1905">
						<path
   style="fill:#111111"
   inkscape:connector-curvature="0"
   id="path1903"
   d="m 612.864,372.141 h -16.342 c -2.312,0 -4.191,-1.881 -4.191,-4.191 v -7.25 c 0,-2.312 1.88,-4.191 4.191,-4.191 h 16.342 c 2.312,0 4.191,1.88 4.191,4.191 v 7.249 c 0.001,2.311 -1.879,4.192 -4.191,4.192 z m -16.342,-14.014 c -1.419,0 -2.573,1.154 -2.573,2.573 v 7.249 c 0,1.418 1.154,2.572 2.573,2.572 h 16.342 c 1.419,0 2.573,-1.154 2.573,-2.572 V 360.7 c 0,-1.419 -1.154,-2.573 -2.573,-2.573 z" />
					</g>
				</g>
			</g>
			<g
   id="g1913">
				<rect
   style="fill:#111111"
   id="rect1911"
   height="17.121"
   width="2.286"
   y="340.19699"
   x="603.27502" />
			</g>
		</g>
		<g
   id="g1957">
			<g
   id="g1941">
				<g
   id="g1919">
					<circle
   style="fill:#3dc7d2"
   id="circle1917"
   r="21.773001"
   cy="241.91701"
   cx="700.95801" />
				</g>
				<g
   id="g1923">
					<path
   style="fill:#ffffff"
   inkscape:connector-curvature="0"
   id="path1921"
   d="m 700.958,220.144 c 8.431,0 15.289,9.768 15.289,21.773 0,12.005 -6.858,21.773 -15.289,21.773 -8.431,0 -15.289,-9.768 -15.289,-21.773 0,-12.005 6.858,-21.773 15.289,-21.773 z m 0,41.579 c 7.293,0 13.227,-8.885 13.227,-19.806 0,-10.921 -5.934,-19.806 -13.227,-19.806 -7.293,0 -13.227,8.885 -13.227,19.806 0,10.921 5.934,19.806 13.227,19.806 z" />
				</g>
				<g
   id="g1927">
					<path
   style="fill:#ffffff"
   inkscape:connector-curvature="0"
   id="path1925"
   d="m 700.958,220.144 c 4.649,0 7.082,10.953 7.082,21.773 0,10.819 -2.433,21.773 -7.082,21.773 -4.649,0 -7.082,-10.954 -7.082,-21.773 0,-10.82 2.433,-21.773 7.082,-21.773 z m 0,41.579 c 2.046,0 5.02,-7.716 5.02,-19.806 0,-12.091 -2.974,-19.806 -5.02,-19.806 -2.047,0 -5.02,7.715 -5.02,19.806 0,12.09 2.973,19.806 5.02,19.806 z" />
				</g>
				<g
   id="g1931">
					<path
   style="fill:#ffffff"
   inkscape:connector-curvature="0"
   id="path1929"
   d="m 700.958,248.893 c 6.284,0 12.354,2.63 16.652,7.215 l -1.506,1.411 c -3.967,-4.232 -9.346,-6.563 -15.146,-6.563 -5.802,0 -11.181,2.331 -15.146,6.563 l -1.506,-1.411 c 4.298,-4.586 10.368,-7.215 16.652,-7.215 z" />
				</g>
				<g
   id="g1935">
					<path
   style="fill:#ffffff"
   inkscape:connector-curvature="0"
   id="path1933"
   d="m 716.066,226.273 1.503,1.413 c -4.292,4.56 -10.347,7.174 -16.611,7.174 -6.266,0 -12.32,-2.614 -16.61,-7.174 l 1.502,-1.413 c 3.96,4.207 9.325,6.524 15.108,6.524 5.783,0 11.148,-2.317 15.108,-6.524 z" />
				</g>
				<g
   id="g1939">
					<rect
   style="fill:#ffffff"
   id="rect1937"
   height="2.063"
   width="43.564999"
   y="240.886"
   x="679.18402" />
				</g>
			</g>
			<g
   id="g1955">
				<g
   id="g1945">
					<path
   style="fill:#111111"
   inkscape:connector-curvature="0"
   id="path1943"
   d="m 702.021,273.466 -0.064,-1.999 c 0.797,-0.025 1.608,-0.086 2.411,-0.179 l 0.229,1.987 c -0.858,0.1 -1.724,0.163 -2.576,0.191 z" />
				</g>
				<g
   id="g1949">
					<path
   style="fill:#111111"
   inkscape:connector-curvature="0"
   id="path1947"
   d="m 710.602,271.977 -0.611,-1.904 c 1.518,-0.487 3.008,-1.104 4.431,-1.831 l 0.911,1.78 c -1.52,0.776 -3.111,1.434 -4.731,1.955 z m 9.898,-5.271 -1.238,-1.571 c 0.35,-0.274 0.693,-0.559 1.031,-0.852 0.875,-0.756 1.712,-1.566 2.487,-2.41 l 1.473,1.354 c -0.827,0.9 -1.72,1.766 -2.652,2.57 -0.361,0.312 -0.728,0.615 -1.101,0.909 z m 7.449,-8.382 -1.707,-1.041 c 0.832,-1.363 1.557,-2.804 2.152,-4.283 l 1.855,0.749 c -0.637,1.58 -1.41,3.119 -2.3,4.575 z m 4.029,-10.468 -1.965,-0.372 c 0.211,-1.117 0.361,-2.266 0.444,-3.411 0.033,-0.452 0.056,-0.904 0.067,-1.356 l 1.999,0.05 c -0.012,0.483 -0.036,0.968 -0.071,1.452 -0.089,1.222 -0.249,2.445 -0.474,3.637 z m -1.872,-10.875 c -0.271,-1.571 -0.671,-3.136 -1.189,-4.647 l 1.892,-0.648 c 0.554,1.612 0.98,3.281 1.269,4.957 z m -57.293,-4.122 -1.905,-0.609 c 0.52,-1.625 1.178,-3.217 1.956,-4.733 l 1.779,0.913 c -0.729,1.419 -1.344,2.908 -1.83,4.429 z m 53.722,-5.761 c -0.8,-1.388 -1.717,-2.714 -2.725,-3.943 l 1.547,-1.268 c 1.076,1.313 2.056,2.73 2.91,4.211 z m -48.777,-3.5 -1.566,-1.243 c 1.055,-1.329 2.229,-2.587 3.494,-3.739 l 1.347,1.477 c -1.185,1.081 -2.287,2.261 -3.275,3.505 z m 41.99,-4.518 c -1.233,-1.019 -2.557,-1.941 -3.932,-2.742 l 1.006,-1.729 c 1.469,0.855 2.882,1.841 4.199,2.929 z m -34.111,-2.436 -1.038,-1.71 c 1.459,-0.886 2.998,-1.658 4.575,-2.295 l 0.749,1.854 c -1.478,0.597 -2.919,1.32 -4.286,2.151 z m 24.952,-2.696 c -1.506,-0.517 -3.068,-0.914 -4.646,-1.181 l 0.335,-1.973 c 1.684,0.285 3.353,0.71 4.96,1.262 z m -15.15,-1.081 -0.376,-1.964 c 1.676,-0.32 3.388,-0.505 5.091,-0.548 l 0.051,1.999 c -1.594,0.042 -3.197,0.213 -4.766,0.513 z" />
				</g>
				<g
   id="g1953">
					<path
   style="fill:#111111"
   inkscape:connector-curvature="0"
   id="path1951"
   d="m 671.436,240.947 -1.998,-0.067 0.009,-0.358 c 0.008,-0.301 0.016,-0.6 0.037,-0.902 0.033,-0.439 0.073,-0.877 0.123,-1.313 l 1.987,0.228 c -0.047,0.408 -0.085,0.82 -0.115,1.232 -0.02,0.269 -0.025,0.537 -0.032,0.805 z" />
				</g>
			</g>
		</g>
	</g>
</svg>