<?xml version="1.0" encoding="utf-8"?>
<!-- Generator: Adobe Illustrator 18.0.0, SVG Export Plug-In . SVG Version: 6.00 Build 0)  -->
<!DOCTYPE svg PUBLIC "-//W3C//DTD SVG 1.1//EN" "http://www.w3.org/Graphics/SVG/1.1/DTD/svg11.dtd">
<svg version="1.1" id="Layer_1" xmlns="http://www.w3.org/2000/svg" xmlns:xlink="http://www.w3.org/1999/xlink" x="0px" y="0px"
	 viewBox="0 0 129.5 129.5" enable-background="new 0 0 129.5 129.5" xml:space="preserve">
<g>
	<g>
		<rect x="26.7" y="19.3" fill="#FFD05B" width="82.1" height="102.3"/>
		<rect x="89.1" y="30.7" fill="#231F20" width="9" height="1.5"/>
		<rect x="37.5" y="30.7" fill="#231F20" width="46" height="1.5"/>
		<rect x="89.1" y="38.6" fill="#231F20" width="9" height="1.5"/>
		<rect x="37.5" y="38.6" fill="#231F20" width="46" height="1.5"/>
		<rect x="89.1" y="46.5" fill="#231F20" width="9" height="1.5"/>
		<rect x="37.5" y="46.5" fill="#231F20" width="46" height="1.5"/>
		<rect x="89.1" y="54.3" fill="#231F20" width="9" height="1.5"/>
		<rect x="37.5" y="54.3" fill="#231F20" width="46" height="1.5"/>
		<rect x="89.1" y="62.2" fill="#231F20" width="9" height="1.5"/>
		<rect x="37.5" y="62.2" fill="#231F20" width="46" height="1.5"/>
		<rect x="89.1" y="70.1" fill="#231F20" width="9" height="1.5"/>
		<rect x="37.5" y="70.1" fill="#231F20" width="46" height="1.5"/>
		<path fill="#FFFFFF" d="M60.2,8.3c0-4.2,3.4-7.6,7.6-7.6c4.2,0,7.6,3.4,7.6,7.6h12.9v11H47.4v-11H60.2z"/>
		<path fill="#FF7058" d="M49.4,17.3v-7h12.9v-2c0-3.1,2.5-5.6,5.6-5.6c3.1,0,5.6,2.5,5.6,5.6v2h12.9v7H49.4z"/>
		<rect x="1.3" y="38.8" fill="#FFFFFF" width="10.3" height="75.1"/>
		<polygon fill="#FFFFFF" points="11.6,113.8 6.5,128.7 1.3,113.8 		"/>
		<path fill="#231F20" d="M12.4,38.8c0-0.2-0.1-0.4-0.2-0.5C12,38.1,11.8,38,11.6,38H1.3c-0.4,0-0.8,0.3-0.8,0.8v75.1
			c0,0.1,0,0.1,0,0.2c0,0,0,0.1,0,0.1L5.8,129c0.1,0.3,0.4,0.5,0.7,0.5c0.3,0,0.6-0.2,0.7-0.5l5.2-14.9c0,0,0-0.1,0-0.1
			c0-0.1,0-0.1,0-0.2L12.4,38.8z M2,39.5h8.8l0,73.6H2V39.5z M6.5,126.5l-4.1-11.9h8.2L6.5,126.5z"/>
		<path fill="#231F20" d="M7.8,7.9c-0.2,0-0.4-0.1-0.5-0.2C7,7.4,7,6.9,7.3,6.6l1.3-1.3c0.3-0.3,0.8-0.3,1.1,0
			c0.3,0.3,0.3,0.8,0,1.1L8.4,7.7C8.2,7.8,8,7.9,7.8,7.9z"/>
		<path fill="#231F20" d="M3.8,11.9c-0.2,0-0.4-0.1-0.5-0.2C3,11.4,3,11,3.3,10.7l1.3-1.3c0.3-0.3,0.8-0.3,1.1,0
			c0.3,0.3,0.3,0.8,0,1.1l-1.3,1.3C4.2,11.9,4,11.9,3.8,11.9z"/>
		<path fill="#231F20" d="M9.1,11.9c-0.2,0-0.4-0.1-0.5-0.2l-1.3-1.3C7,10.1,7,9.7,7.3,9.4c0.3-0.3,0.8-0.3,1.1,0l1.3,1.3
			c0.3,0.3,0.3,0.8,0,1.1C9.5,11.9,9.3,11.9,9.1,11.9z"/>
		<path fill="#231F20" d="M5.1,7.9c-0.2,0-0.4-0.1-0.5-0.2L3.3,6.4C3,6.1,3,5.6,3.3,5.4c0.3-0.3,0.8-0.3,1.1,0l1.3,1.3
			c0.3,0.3,0.3,0.8,0,1.1C5.5,7.8,5.3,7.9,5.1,7.9z"/>
		<circle fill="#FF7058" cx="25.1" cy="4.1" r="2.4"/>
		<circle fill="#E6E9EE" cx="104.4" cy="2.8" r="2"/>
		<circle fill="#84DBFF" cx="9.1" cy="27.1" r="1.9"/>
		<circle fill="#E6E9EE" cx="124.5" cy="71.3" r="1.9"/>
		<path fill="#FFFFFF" d="M128.2,106.3c-30-30-78.6-30-108.6,0l0,0l0,0C49.6,136.2,98.2,136.2,128.2,106.3L128.2,106.3L128.2,106.3z
			"/>
		<path fill="#231F20" d="M74.1,123.1l0-1.5c0.3,0,0.6,0,1,0l0.1,1.5C74.8,123,74.5,123.1,74.1,123.1z M72.1,123
			c-0.3,0-0.7-0.1-1-0.1l0.3-1.5c0.3,0.1,0.6,0.1,0.9,0.1L72.1,123z M77.3,122.7l-0.3-1.5c0.3-0.1,0.6-0.1,0.9-0.2l0.4,1.4
			C77.9,122.6,77.6,122.7,77.3,122.7z M69,122.3c-0.3-0.1-0.7-0.2-1-0.3l0.5-1.4c0.3,0.1,0.6,0.2,0.9,0.3L69,122.3z M80.3,121.8
			l-0.6-1.4c0.3-0.1,0.6-0.2,0.9-0.4l0.7,1.3C80.9,121.5,80.6,121.7,80.3,121.8z M66.1,121.1c-0.3-0.2-0.6-0.3-0.9-0.5l0.8-1.3
			c0.3,0.2,0.5,0.3,0.8,0.5L66.1,121.1z M83,120.4l-0.8-1.3c0.3-0.2,0.5-0.4,0.8-0.5l0.9,1.2C83.6,120,83.3,120.2,83,120.4z
			 M63.5,119.4c-0.3-0.2-0.5-0.4-0.8-0.7l1-1.1c0.2,0.2,0.5,0.4,0.7,0.6L63.5,119.4z M85.5,118.4l-1-1.1c0.2-0.2,0.5-0.4,0.7-0.7
			l1.1,1C86,117.9,85.7,118.2,85.5,118.4z M61.2,117.2c-0.2-0.3-0.4-0.5-0.7-0.8l1.2-0.9c0.2,0.3,0.4,0.5,0.6,0.7L61.2,117.2z
			 M87.6,116.1l-1.2-0.9c0.2-0.3,0.4-0.5,0.5-0.8l1.3,0.8C88,115.5,87.8,115.8,87.6,116.1z M59.4,114.7c-0.2-0.3-0.3-0.6-0.5-0.9
			l1.3-0.7c0.1,0.3,0.3,0.6,0.5,0.8L59.4,114.7z M89.1,113.4l-1.4-0.6c0.1-0.3,0.3-0.6,0.4-0.9l1.4,0.5
			C89.4,112.7,89.3,113,89.1,113.4z M58.1,111.9c-0.1-0.3-0.2-0.7-0.3-1l1.4-0.4c0.1,0.3,0.2,0.6,0.3,0.9L58.1,111.9z M90.2,110.4
			l-1.5-0.4c0.1-0.3,0.1-0.6,0.2-0.9l1.5,0.3C90.4,109.7,90.3,110.1,90.2,110.4z M57.3,108.8c-0.1-0.3-0.1-0.7-0.1-1l1.5-0.1
			c0,0.3,0.1,0.6,0.1,0.9L57.3,108.8z M90.7,107.3l-1.5-0.1c0-0.3,0-0.6,0-1h1.5C90.7,106.6,90.7,107,90.7,107.3z M58.6,105.7
			l-1.5-0.1c0-0.4,0-0.7,0.1-1l1.5,0.1C58.6,105.1,58.6,105.4,58.6,105.7z M89.2,105.4c0-0.3,0-0.6-0.1-0.9l1.5-0.2
			c0,0.3,0.1,0.7,0.1,1L89.2,105.4z M59,102.9l-1.5-0.3c0.1-0.3,0.2-0.7,0.3-1l1.4,0.4C59.1,102.3,59,102.6,59,102.9z M88.8,102.6
			c-0.1-0.3-0.2-0.6-0.3-0.9l1.4-0.5c0.1,0.3,0.2,0.7,0.3,1L88.8,102.6z M59.9,100.2l-1.4-0.6c0.1-0.3,0.3-0.6,0.4-0.9l1.3,0.7
			C60.1,99.6,60,99.9,59.9,100.2z M87.8,99.9c-0.1-0.3-0.3-0.6-0.4-0.9l1.3-0.7c0.2,0.3,0.3,0.6,0.5,0.9L87.8,99.9z M61.2,97.7
			L60,96.8c0.2-0.3,0.4-0.6,0.6-0.8l1.2,0.9C61.6,97.2,61.4,97.4,61.2,97.7z M86.4,97.4c-0.2-0.3-0.4-0.5-0.6-0.8l1.2-0.9
			c0.2,0.3,0.4,0.5,0.6,0.8L86.4,97.4z M63,95.5L62,94.4c0.2-0.2,0.5-0.5,0.8-0.7l1,1.1C63.5,95,63.3,95.3,63,95.5z M84.5,95.3
			c-0.2-0.2-0.5-0.4-0.7-0.6l1-1.1c0.3,0.2,0.5,0.5,0.8,0.7L84.5,95.3z M65.2,93.6l-0.8-1.2c0.3-0.2,0.6-0.4,0.9-0.6l0.8,1.3
			C65.8,93.3,65.5,93.5,65.2,93.6z M82.3,93.5c-0.3-0.2-0.5-0.3-0.8-0.5l0.7-1.3c0.3,0.2,0.6,0.4,0.9,0.5L82.3,93.5z M67.7,92.3
			l-0.6-1.4c0.3-0.1,0.6-0.3,1-0.4l0.5,1.4C68.3,92,68,92.1,67.7,92.3z M79.8,92.1c-0.3-0.1-0.6-0.2-0.9-0.3l0.5-1.4
			c0.3,0.1,0.7,0.2,1,0.4L79.8,92.1z M70.4,91.4l-0.3-1.5c0.3-0.1,0.7-0.1,1-0.2l0.2,1.5C71.1,91.2,70.7,91.3,70.4,91.4z M77.1,91.3
			c-0.3-0.1-0.6-0.1-0.9-0.2l0.2-1.5c0.3,0,0.7,0.1,1,0.2L77.1,91.3z M73.3,91l-0.1-1.5c0.2,0,0.5,0,0.7,0l0.3,0l0,1.5l-0.3,0
			C73.7,91,73.5,91,73.3,91z"/>
		<path fill="#231F20" d="M128.7,105.7c-3.7-3.7-7.7-7-12-9.8V12.2c0-0.4-0.3-0.8-0.8-0.8H89V8.3c0-0.4-0.3-0.8-0.8-0.8H76.1
			c-0.4-4.2-4-7.6-8.3-7.6c-4.3,0-7.9,3.3-8.3,7.6H47.4c-0.4,0-0.8,0.3-0.8,0.8v3.1h-27c-0.4,0-0.8,0.3-0.8,0.8v116.6
			c0,0.4,0.3,0.8,0.8,0.8H116c0.4,0,0.8-0.3,0.8-0.8v-12.1c4.3-2.8,8.3-6.1,12-9.8C129,106.5,129,106,128.7,105.7z M48.1,9.1h12.1
			c0.4,0,0.8-0.3,0.8-0.8c0-3.8,3.1-6.8,6.8-6.8c3.8,0,6.8,3.1,6.8,6.8c0,0.4,0.3,0.8,0.8,0.8h12.1v9.5H48.1V9.1z M20.4,12.9h26.3
			v6.4c0,0.4,0.3,0.8,0.8,0.8h40.9c0.4,0,0.8-0.3,0.8-0.8v-6.4h26.3v82C103,87.2,88.8,83,73.9,83c-20.1,0-39.1,7.6-53.5,21.5V12.9z
			 M20.4,128v-20c10.7,10.3,23.9,17.1,38.3,20H20.4z M20.7,106.3c12-11.7,27.1-19,43.5-21.1c-8,3.7-13.5,11.8-13.5,21.1
			s5.6,17.4,13.5,21.1C47.8,125.3,32.6,118,20.7,106.3z M73.9,84.5c12,0,21.7,9.8,21.7,21.7S85.9,128,73.9,128s-21.7-9.8-21.7-21.7
			S61.9,84.5,73.9,84.5z M115.3,128H89.2c9.3-1.8,18.1-5.4,26.1-10.4V128z M83.6,127.4c8-3.7,13.5-11.8,13.5-21.1
			c0-9.4-5.6-17.4-13.5-21.1c16.4,2.1,31.6,9.4,43.5,21.1C115.2,118,100,125.3,83.6,127.4z"/>
		<circle fill="#84DBFF" cx="73.9" cy="106.3" r="13"/>
		<circle fill="#54C0EB" cx="73.9" cy="106.3" r="8"/>
		<circle fill="#FFFFFF" cx="69.9" cy="102.3" r="4"/>
	</g>
</g>
</svg>
