<svg xmlns="http://www.w3.org/2000/svg" xmlns:xlink="http://www.w3.org/1999/xlink" width="500" height="356"><style><![CDATA[.c{fill:#fff}.d{fill:#c78ee0}.e{fill:#1ed9de}.f{fill:#0c4b84}.g{fill:#359cdb}.h{fill:#ffd55c}.i{fill:#ffce63}.j{fill-rule:evenodd}]]></style><defs><clipPath id="A"><path d="M58.397 325.198H470.7V96.638H58.397z"/></clipPath><linearGradient id="B" spreadMethod="pad" gradientTransform="matrix(413.73108,-53.01358,-144.96945,-383.79443,60.487793,232.45215)" gradientUnits="userSpaceOnUse" y2="0" x2="1" y1="0" x1="0"><stop offset="0" stop-color="#13c095"/><stop offset=".986" stop-color="#1fb5b7"/><stop offset="1" stop-color="#1fb5b7"/></linearGradient><linearGradient id="C" spreadMethod="pad" gradientTransform="matrix(-379.99579,-35.066055,36.308395,-378.67328,435.33105,190.66016)" gradientUnits="userSpaceOnUse" y2="0" x2="1" y1="0" x1="0"><stop offset="0" stop-color="#13c095"/><stop offset=".986" stop-color="#1fb5b7"/><stop offset="1" stop-color="#1fb5b7"/></linearGradient><linearGradient id="D" spreadMethod="pad" gradientTransform="matrix(33.772919,239.51318,-247.15536,38.916168,261.29199,67.046875)" gradientUnits="userSpaceOnUse" y2="0" x2="1" y1="0" x1="0"><stop offset="0" stop-color="#4dffd3"/><stop offset=".408" stop-color="#4dffd3"/><stop offset="1" stop-color="#72c9cb"/></linearGradient><clipPath id="E"><path d="M0 0h800v800H0z"/></clipPath><clipPath id="F"><path d="M238.378 149.43h58.493v-10.157h-58.493z"/></clipPath><path id="G" d="M198.727 189.286a4.16 4.16 0 0 0-4.152-4.16 4.16 4.16 0 1 0 0 8.321 4.16 4.16 0 0 0 4.152-4.161"/><path id="H" d="M188.173 183.892h-4.032v3.943h4.032z"/><path id="I" d="M170.514 183.892h-4.03v3.943h4.03z"/><path id="J" d="M250.227 222.126h34.932v-1.777h-34.932z"/><path id="K" d="M374.072 222.66h-2.564v2.564h2.564z"/></defs><g transform="matrix(1.171405 0 0 -1.351482 -55.864087 443.688927)"><path d="M66.713 247.944c-26.524-55.114 13.836-108.63 72.42-135.298 67.527-30.74 296.6-18.293 327.36 46.75 28.83 60.96-96.24 147.842-200.11 162.31-106.11 14.778-173.2-18.762-199.67-73.76" fill="url(#B)" clip-path="url(#A)" opacity=".3"/><path d="M217.667 283.666c-80.437-8.212-167.152-72.473-163.495-115.942C58.53 115.897 239.58 54.365 320.25 67.2c79.883 12.708 143.047 63.854 107.778 128.124-27.393 49.92-94.34 89.865-180.836 89.863-9.607 0-19.464-.493-29.526-1.52" fill="url(#C)"/><path d="M179.614 271.01C88.612 213.696 65.076 127.474 99.11 104.283c94.93-64.687 392.312 7.294 367.04 110.983-11.345 46.547-87.22 88.012-169.874 88.01-39.435-.001-80.414-9.44-116.662-32.268" fill="url(#D)"/><g clip-path="url(#E)"><path d="M209.89 120.41h-65.093v80.12h65.093z" class="i"/><path d="M194.575 185.126a4.16 4.16 0 1 0 0 8.321 4.16 4.16 0 1 0 0-8.321m2.62-6.75h-5.2v2.402h5.2zm-9.022 11.038h-4.032v3.95h4.032zm0-5.523h-4.032v3.943h4.032zm0-5.628h-4.032v3.942h4.032zm-5.878 11.15h-4.032v3.95h4.032zm0-5.523h-4.032v3.943h4.032zm0-5.628h-4.032v3.942h4.032zm-5.968 11.15h-4.023v3.95h4.023zm0-5.523h-4.023v3.943h4.023zm0-5.628h-4.023v3.942h4.023zm-5.814 11.15h-4.03v3.95h4.03zm0-5.523h-4.03v3.943h4.03zm0-5.628h-4.03v3.942h4.03zm-5.87 11.15h-4.03v3.95h4.03zm0-5.523h-4.03v3.943h4.03zm0-5.628h-4.03v3.942h4.03zm-5.966 11.15h-4.03v3.95h4.03zm0-5.523h-4.03v3.943h4.03zm0-5.628h-4.03v3.942h4.03zm47.686 9.587v9.338h-58.04v-9.338h2.846v-4.08h-2.846v-9.337h58.04v9.337h-3.28v4.08z" class="f"/><g class="c"><path d="M197.195 178.377h-5.2v2.402h5.2z"/><use xlink:href="#G"/><path d="M158.677 189.415h-4.03v3.95h4.03zm5.967 0h-4.03v3.95h4.03zm5.87 0h-4.03v3.95h4.03zm5.813 0h-4.023v3.95h4.023zm5.968 0h-4.032v3.95h4.032zm5.878 0h-4.032v3.95h4.032z"/><use xlink:href="#H"/><use xlink:href="#H" x="-5.878"/><path d="M176.327 183.892h-4.023v3.943h4.023z"/><use xlink:href="#I"/><use xlink:href="#I" x="-5.87"/><use xlink:href="#I" x="-11.837"/><path d="M158.677 178.264h-4.03v3.942h4.03zm5.967 0h-4.03v3.942h4.03zm5.87 0h-4.03v3.942h4.03zm5.813 0h-4.023v3.942h4.023zm5.968 0h-4.032v3.942h4.032zm5.878 0h-4.032v3.942h4.032z"/></g><path d="M194.575 134.6a4.16 4.16 0 1 0 0 8.321 4.16 4.16 0 1 0 0-8.321m2.62-6.75h-5.2v2.402h5.2zm-9.022 11.038h-4.032v3.95h4.032zm0-5.523h-4.032v3.943h4.032zm0-5.628h-4.032v3.943h4.032zm-5.878 11.15h-4.032v3.95h4.032zm0-5.523h-4.032v3.943h4.032zm0-5.628h-4.032v3.943h4.032zm-5.968 11.15h-4.023v3.95h4.023zm0-5.523h-4.023v3.943h4.023zm0-5.628h-4.023v3.943h4.023zm-5.814 11.15h-4.03v3.95h4.03zm0-5.523h-4.03v3.943h4.03zm0-5.628h-4.03v3.943h4.03zm-5.87 11.15h-4.03v3.95h4.03zm0-5.523h-4.03v3.943h4.03zm0-5.628h-4.03v3.943h4.03zm-5.966 11.15h-4.03v3.95h4.03zm0-5.523h-4.03v3.943h4.03zm0-5.628h-4.03v3.943h4.03zm47.686 9.588v9.337h-58.04v-9.337h2.846v-4.08h-2.846v-9.338h58.04v9.338h-3.28v4.08z" class="f"/><g class="c"><path d="M197.195 127.86h-5.2v2.402h5.2z"/><use xlink:href="#G" y="-50.516"/><path d="M158.677 138.9h-4.03v3.95h4.03zm5.967 0h-4.03v3.95h4.03zm5.87 0h-4.03v3.95h4.03zm5.813 0h-4.023v3.95h4.023zm5.968 0h-4.032v3.95h4.032zm5.878 0h-4.032v3.95h4.032z"/><use xlink:href="#H" y="-50.516"/><use xlink:href="#H" x="-5.878" y="-50.516"/><path d="M176.327 133.376h-4.023v3.943h4.023z"/><use xlink:href="#I" y="-50.516"/><use xlink:href="#I" x="-5.87" y="-50.516"/><use xlink:href="#I" x="-11.837" y="-50.516"/><use xlink:href="#I" x="-11.837" y="-56.144"/><use xlink:href="#I" x="-5.87" y="-56.144"/><use xlink:href="#I" y="-56.144"/><path d="M176.327 127.748h-4.023v3.943h4.023z"/><use xlink:href="#H" x="-5.878" y="-56.144"/><use xlink:href="#H" y="-56.144"/></g><path d="M194.575 159.868a4.16 4.16 0 1 0 0 8.321 4.16 4.16 0 1 0 0-8.321m2.62-6.75h-5.2v2.402h5.2zm-9.022 11.038h-4.032v3.95h4.032zm0-5.523h-4.032v3.943h4.032zm0-5.628h-4.032v3.943h4.032zm-5.878 11.15h-4.032v3.95h4.032zm0-5.523h-4.032v3.943h4.032zm0-5.628h-4.032v3.943h4.032zm-5.968 11.15h-4.023v3.95h4.023zm0-5.523h-4.023v3.943h4.023zm0-5.628h-4.023v3.943h4.023zm-5.814 11.15h-4.03v3.95h4.03zm0-5.523h-4.03v3.943h4.03zm0-5.628h-4.03v3.943h4.03zm-5.87 11.15h-4.03v3.95h4.03zm0-5.523h-4.03v3.943h4.03zm0-5.628h-4.03v3.943h4.03zm-5.966 11.15h-4.03v3.95h4.03zm0-5.523h-4.03v3.943h4.03zm0-5.628h-4.03v3.943h4.03zm47.686 9.587v9.338h-58.04v-9.338h2.846v-4.08h-2.846v-9.338h58.04v9.338h-3.28v4.08z" class="f"/><g class="c"><path d="M197.195 153.12h-5.2v2.402h5.2z"/><use xlink:href="#G" y="-25.258"/><path d="M158.677 164.157h-4.03v3.95h4.03zm5.967 0h-4.03v3.95h4.03zm5.87 0h-4.03v3.95h4.03zm5.813 0h-4.023v3.95h4.023zm5.968 0h-4.032v3.95h4.032zm5.878 0h-4.032v3.95h4.032z"/><use xlink:href="#H" y="-25.258"/><use xlink:href="#H" x="-5.878" y="-25.258"/><path d="M176.327 158.634h-4.023v3.943h4.023z"/><use xlink:href="#I" y="-25.258"/><use xlink:href="#I" x="-5.87" y="-25.258"/><use xlink:href="#I" x="-11.837" y="-25.258"/><use xlink:href="#I" x="-11.837" y="-30.886"/><use xlink:href="#I" x="-5.87" y="-30.886"/><use xlink:href="#I" y="-30.886"/><path d="M176.327 153.006h-4.023v3.943h4.023z"/><use xlink:href="#H" x="-5.878" y="-30.886"/><use xlink:href="#H" y="-30.886"/></g><path d="M391.545 157.612c0-20.546-16.655-37.2-37.2-37.2s-37.2 16.655-37.2 37.2 16.655 37.2 37.2 37.2 37.2-16.655 37.2-37.2" class="d"/><g class="c"><path d="M354.344 191.45c-12.46 0-22.6-15.18-22.6-33.84s10.138-33.84 22.6-33.84 22.6 15.18 22.6 33.84-10.138 33.84-22.6 33.84m0-71.04c-14.404 0-26.123 16.688-26.123 37.2s11.72 37.2 26.123 37.2 26.123-16.688 26.123-37.2-11.72-37.2-26.123-37.2"/><path d="M354.344 191.45c-3.497 0-8.576-13.183-8.576-33.84s5.08-33.84 8.576-33.84 8.576 13.184 8.576 33.84-5.08 33.84-8.576 33.84m0-71.04c-7.944 0-12.1 18.714-12.1 37.2s4.157 37.2 12.1 37.2 12.1-18.715 12.1-37.2-4.157-37.2-12.1-37.2"/><path d="M354.344 169.53c-10.737 0-21.108 4.493-28.45 12.328l2.572 2.4c6.777-7.23 15.967-11.214 25.88-11.214a35.12 35.12 0 0 1 25.88 11.214l2.572-2.4c-7.343-7.835-17.714-12.328-28.45-12.328m-25.818-38.647l-2.568 2.415c7.333 7.8 17.677 12.258 28.38 12.258a39.12 39.12 0 0 0 28.38-12.258l-2.567-2.415c-6.765 7.2-15.932 11.148-25.813 11.148s-19.047-3.96-25.813-11.148m63.017 24.967H317.1v3.524h74.435z"/></g><g class="j"><path d="M376.237 183.66c-.563-.344-1.256-.553-2.076-.564-1.152.015-2.05.42-2.695 1.043-2.372 2.198-1.468 7.277 2.712 7.277 4.525 0 5.2-5.95 2.06-7.756m-2.087 9.8c-3 0-6.285-2.33-6.285-6.216 0-5.914 6.3-12.164 6.3-12.164s6.3 6.35 6.3 12.164c0 3.886-3.478 6.216-6.316 6.216m-37.556-48.514c-.563-.345-1.256-.554-2.076-.564-1.152.015-2.05.42-2.695 1.043-2.372 2.198-1.468 7.277 2.712 7.277 4.525 0 5.2-5.95 2.06-7.756m-2.087 9.8c-3 0-6.286-2.33-6.286-6.216 0-5.915 6.3-12.164 6.3-12.164s6.3 6.35 6.3 12.164c0 3.886-3.478 6.216-6.316 6.216m31.206-5.926c-.563-.345-1.256-.553-2.076-.564-1.152.015-2.05.42-2.695 1.043-2.372 2.198-1.468 7.277 2.712 7.277 4.525 0 5.2-5.95 2.06-7.756m-2.087 9.8c-3 0-6.286-2.33-6.286-6.216 0-5.914 6.3-12.164 6.3-12.164s6.3 6.35 6.3 12.164c0 3.886-3.478 6.216-6.316 6.216" class="f"/><path d="M238.378 124.04h58.493v26.738h-58.493z" fill="#f1f0f6"/></g><g clip-path="url(#F)" opacity=".7" class="j"><path d="M238.378 139.274h58.493v10.156h-58.493z" fill="#f1f0f6"/></g><g class="j"><path d="M193.495 239.94H341.89a7.62 7.62 0 0 0 7.591-7.594V151.59c0-4.175-3.416-7.592-7.59-7.592H193.495a7.62 7.62 0 0 0-7.593 7.592v80.754a7.62 7.62 0 0 0 7.593 7.594" class="c"/><path d="M190.94 157.556h153.502v77.953H190.94z" class="f"/><path d="M218.392 127.855H313.4c2.047 0 3.722-1.675 3.722-3.723s-1.675-3.72-3.722-3.72h-94.998c-2.048 0-3.723 1.674-3.723 3.72s1.675 3.723 3.723 3.723" class="c"/></g><g class="g"><path d="M194.258 191.968h49.322v-1.777h-49.322zm0 4.725h49.322v-1.776h-49.322zm0 4.727h49.322v-1.776h-49.322z"/><use xlink:href="#J"/><use xlink:href="#J" y="4.648"/><use xlink:href="#J" y="9.296"/><use xlink:href="#J" y="-13.942"/><use xlink:href="#J" y="-9.296"/><use xlink:href="#J" y="-4.646"/><use xlink:href="#J" y="-27.886"/><use xlink:href="#J" y="-23.238"/><use xlink:href="#J" y="-18.591"/><use xlink:href="#J" y="-41.829"/><use xlink:href="#J" y="-37.182"/><use xlink:href="#J" x="48.759" y="-59.67"/><use xlink:href="#J" x="48.759" y="-55.022"/><use xlink:href="#J" x="48.759" y="-50.223"/><use xlink:href="#J" x="48.759" y="-45.422"/><path d="M250.227 189.592h34.932v-1.776h-34.932zm-55.97-9.295h49.322v-1.777h-49.322zm.001 4.725h49.322v-1.777h-49.322z"/></g><path d="M199.72 227.815l5.697 2.774 5.463-2.8h5.462l5.54 2.744 5.62-5.5 5.462 2.746 5.54 2.744 5.074-2.52v-22.44h-49.32v25.85z" class="h"/><path d="M199.642 222.106l5.698 5.71 6.55-6.38 10.474 3.493 5.06-5.97 5.54 6.085 5.62-2.83 4.996 2.486v-19.125h-49.32v19.356z" class="e"/><path d="M199.8 225.042l5.463-2.773 5.24-6.104 5.92 3.273 5.54 2.735 5.54-8.298 5.54 2.82 5.54-2.898 4.996 2.625v-10.85h-49.32v16.135z" class="c"/><path d="M199.72 215.334l5.54 4.048 5.46-5.547 5.62 2.773 3.25-4.76 11.857-1.082 7.056 5.9 5.074-2.555v-8.538h-49.32v11.634zm.6-48.6l-5.752 1.873c.825 2.544 3.08 4.186 5.752 4.186z" class="d"/><path d="M200.31 166.735l5.755-1.87a6.05 6.05 0 0 0-7.624-3.889 6.06 6.06 0 0 0-3.883 7.632z" class="e"/><path d="M200.31 166.735l3.558 4.9c2.16-1.573 3.022-4.227 2.197-6.77z" class="h"/><path d="M200.31 166.735v6.06c1.337 0 2.475-.37 3.558-1.158z" class="g"/><path d="M221.317 166.73l-5.392-2.743a5.95 5.95 0 0 0 1.108 7.026z" class="d"/><path d="M221.317 166.73l5.392 2.746a6.05 6.05 0 0 0-2.642-8.14c-2.977-1.516-6.623-.33-8.142 2.65z" class="e"/><path d="M221.317 166.73l-.95 5.98c2.64.417 5.126-.85 6.342-3.234z" class="h"/><path d="M221.317 166.73l-4.284 4.283a5.79 5.79 0 0 0 3.334 1.697z" class="g"/><path d="M242.332 166.73l2.743-5.39a5.95 5.95 0 0 0-7.026 1.108z" class="d"/><path d="M242.332 166.73l-2.746 5.393a6.05 6.05 0 0 0 8.14-2.642c1.516-2.977.33-6.623-2.65-8.142z" class="e"/><path d="M242.332 166.73l-5.98-.95c-.417 2.64.85 5.125 3.234 6.342z" class="h"/><path d="M242.332 166.73l-4.283-4.283a5.79 5.79 0 0 0-1.697 3.334z" class="g"/><path d="M263.34 166.736l5.752-1.872a5.95 5.95 0 0 0-5.752-4.186z" class="d"/><path d="M263.34 166.736l-5.754 1.87a6.05 6.05 0 0 0 7.623 3.888 6.06 6.06 0 0 0 3.883-7.631z" class="e"/><path d="M263.34 166.736l-3.557-4.9c-2.162 1.572-3.022 4.226-2.197 6.77z" class="h"/><path d="M263.34 166.736v-6.058a5.79 5.79 0 0 0-3.557 1.158z" class="g"/><path d="M284.333 166.735l-5.752 1.873c.825 2.544 3.08 4.186 5.752 4.186z" class="d"/><path d="M284.333 166.735l5.755-1.87a6.05 6.05 0 0 0-7.623-3.889 6.06 6.06 0 0 0-3.884 7.632z" class="e"/><path d="M284.333 166.735l3.558 4.9c2.162-1.573 3.02-4.227 2.197-6.77z" class="h"/><path d="M284.333 166.735v6.06c1.337 0 2.476-.37 3.558-1.158zm53.34 9.727l6.204 6.076-7.9 8.067-6.205-6.08z" class="g"/><path d="M354.875 159.005a4.27 4.27 0 1 1 6.101 5.976l-17.79 18.158a4.27 4.27 0 0 1-6.036.062 4.27 4.27 0 0 1-.061-6.037z" class="i"/><path d="M315.557 232.097v-7.76c9.72-.683 16.793-8.874 17.225-18.49.09-2.016-.22-3.97-.843-5.807l7.762-2.257c.816 2.533 1.27 5.227 1.273 8.03.016 14.234-11.3 25.824-25.417 26.283" class="e"/><path d="M314.172 224.387v7.723c-7.03-.138-13.375-3.04-18.014-7.663l5.374-5.232c3.426 3.167 7.982 5.153 12.64 5.172" class="d"/><path d="M295.7 205.848c-.21 4.702 1.727 9.077 4.846 12.395l-5.356 5.214c-4.208-4.653-6.773-10.82-6.78-17.588-.015-14.35 11.476-26.018 25.763-26.297v7.737c-10.36.037-18.025 8.516-18.473 18.54" class="e"/><path d="M331.443 198.742c-2.7-6.23-9.087-10.842-15.887-11.378v-7.79c10.837.352 20.014 7.265 23.69 16.898z" class="d"/><path d="M313.643 205.068h16.697c-.54-8.18-7.332-14.657-15.65-14.657-8.672 0-15.703 7.03-15.703 15.703 0 8.32 6.474 15.11 14.656 15.65z" class="c"/><path d="M315.737 207.77v12.964c5.02-.358 9.342-3.252 11.7-7.403z" class="i"/><path d="M329.3 207.162h-9.977l9.016 4.282c.537-1.37.858-2.805.96-4.282" class="d"/><g class="f"><path d="M376.166 238.596h1.106v-13.16h-1.106zm12.426 0h1.107v-13.16h-1.107zm-1.792-18.25h14.656v-1.106H386.8zm-4.28 6.778v6.65h-3.314v4.822h1.107v-3.715h3.314v-7.758zm7.462-1.532v1.107h6.65v3.315h4.822v-1.108h-3.714v-3.314zm.735-29.232v2.07h-1.954v4.515h1.106v-3.408h1.955v-3.177zm-20.694 34.086v4.846h3.165v3.303h1.106v-4.4h-3.165v-3.738zm-8.945-23.583v3.165h-3.74v1.107h4.846v-3.165H369v-1.107zm-3.738 9.294v1.106h3.74v3.165h7.913v-1.106h-6.805v-3.165zm43-5.757v2.823l-3.9-.01-2.065.013-.282.01.04 1.104.283-.01 2-.013 5.02.016V210.4zm-25.72-13.985v1.107h1.407l.003 5.954.01.283 1.106-.042-.01-.282-.001-6.342.004-.678zm7.88 0l.002.557v6.463l-.01.283 1.107.04.01-.282.003-5.954h2.823v-1.107zm9.544 11.632h9.4v-1.106h-9.4zm-34.704 18.64h12.4v-1.107h-12.4zm0-12.427h9.412v-1.106h-9.412zm12.683-8.434h1.106v-9.4h-1.106z"/><path d="M372.322 228.868h-3.633v2.23h3.633zm6.214 0h-3.634v2.23h3.634zm6.214 0h-3.634v2.23h3.634zm6.212 0h-3.634v2.23h3.634zm-18.64-26.338h-3.633v2.23h3.633zm6.214 0h-3.634v2.23h3.634zm6.214 0h-3.634v2.23h3.634zm6.212 0h-3.634v2.23h3.634zm.918 25.42h2.23v-3.633h-2.23zm0-6.214h2.23v-3.634h-2.23zm0-6.213h2.23v-3.634h-2.23zm0-6.223h2.23v-3.633h-2.23zm-26.338 18.65h2.23v-3.633h-2.23zm0-6.214h2.23v-3.634h-2.23zm0-6.213h2.23v-3.634h-2.23zm0-6.223h2.23v-3.633h-2.23z"/><path d="M392.995 203.644h-26.34v26.34h26.34z"/></g><path d="M390.293 206.346h-20.935v20.935h20.935z" class="i"/><g class="f"><use xlink:href="#K"/><use xlink:href="#K" x="3.528"/><path d="M381.107 222.66h-2.563v2.564h2.563zm3.518 0h-2.563v2.564h2.563z"/><use xlink:href="#K" x="14.072"/><use xlink:href="#K" y="-3.564"/><use xlink:href="#K" x="3.528" y="-3.564"/><path d="M381.107 219.096h-2.563v2.564h2.563zm3.518 0h-2.563v2.564h2.563z"/><use xlink:href="#K" x="14.072" y="-3.564"/><path d="M374.072 215.53h-2.564v2.563h2.564zm3.528 0h-2.564v2.563h2.564zm3.507 0h-2.563v2.563h2.563zm3.518 0h-2.563v2.563h2.563zm3.52 0h-2.564v2.563h2.564z"/><use xlink:href="#K" y="-10.694"/><use xlink:href="#K" x="3.528" y="-10.694"/><path d="M381.107 211.966h-2.563v2.564h2.563zm3.518 0h-2.563v2.564h2.563z"/><use xlink:href="#K" x="14.072" y="-10.694"/><use xlink:href="#K" y="-14.26"/><use xlink:href="#K" x="3.528" y="-14.26"/><path d="M381.107 208.4h-2.563v2.564h2.563zm3.518 0h-2.563v2.564h2.563z"/><use xlink:href="#K" x="14.072" y="-14.26"/></g><path d="M421.324 172.47h-6.732v7.145h1.732v-3.675h2.962v-1.436l2.344 2.016-2.344 1.827v-1.44h-2.03v2.704h3.637v.06c2.36.402 4 2.697 4.117 5.038-.152 2.883-2.208 4.937-5.095 5.092-.054.003-.108 0-.16 0a5.86 5.86 0 0 1 .124.864c-.146 2.67-2.048 4.57-4.717 4.714-1.568.084-2.87-.717-3.7-1.884-.836 1.1-2.14 1.798-3.712 1.884-2.663.145-4.58-2.263-4.713-4.714a4.19 4.19 0 0 1 .056-.91l-.5.047c-2.88.158-4.95-2.44-5.094-5.092-.145-2.7 2.145-4.703 4.624-5.05v-.044h4.023v-2.624H404.1v1.434l-2.344-2.016 2.344-1.826v1.436h2.963v3.596h1.64v-7.145h-8.3v1.435l-2.343-2.016 2.343-1.826v1.434h9.245v8.118h1.466V166.1h-1.436l2.016-2.344 1.827 2.344h-1.436v13.505h1.597v-8.118h7.662v-1.434l2.344 2.015-2.344 1.827zm-276.967-39.295H127.8V120.4h16.557z" class="c"/><path d="M144.354 133.173h-16.55l-19.47 25.495h55.49z" class="d"/><path d="M166.323 161.04c0 1.32-1.07 2.392-2.39 2.392h-55.71c-1.32 0-2.39-1.072-2.39-2.392s1.07-2.392 2.39-2.392h55.71c1.32 0 2.39 1.072 2.39 2.392" class="g"/><path d="M127.525 160.64c.396 0 .716-.32.716-.717v-1.432c0-.396-.32-.716-.716-.716s-.717.32-.717.716v1.432c0 .396.32.717.717.717m0 5.014c.396 0 .716-.32.716-.716v-1.433c0-.395-.32-.717-.716-.717a.72.72 0 0 0-.717.717v1.433c0 .395.32.716.717.716m0 5.014c.396 0 .716-.32.716-.716v-1.433c0-.396-.32-.716-.716-.716s-.717.32-.717.716v1.433c0 .395.32.716.717.716m0 5.014c.396 0 .716-.32.716-.716v-1.433c0-.395-.32-.716-.716-.716s-.717.32-.717.716v1.433c0 .396.32.716.717.716m8.13-20.355c.396 0 .717-.32.717-.717v-1.432c0-.396-.32-.716-.717-.716s-.716.32-.716.716v1.432c0 .396.32.717.716.717m0 5.014c.396 0 .717-.32.717-.716v-1.433a.72.72 0 0 0-.717-.717c-.396 0-.716.322-.716.717v1.433c0 .395.32.716.716.716m0 5.013c.396 0 .717-.32.717-.715v-1.433c0-.396-.32-.716-.717-.716s-.716.32-.716.716v1.433c0 .395.32.715.716.715m0 5.015c.396 0 .717-.32.717-.716v-1.433c0-.395-.32-.716-.717-.716s-.716.32-.716.716v1.433c0 .396.32.716.716.716m0 5.015a.72.72 0 0 0 .717-.717v-1.433c0-.395-.32-.716-.717-.716s-.716.32-.716.716v1.433c0 .395.32.717.716.717m0 5.013c.396 0 .717-.32.717-.716v-1.432c0-.397-.32-.717-.717-.717s-.716.32-.716.717v1.432c0 .396.32.716.716.716m8.975-23.04c.396 0 .717-.32.717-.717v-1.432c0-.396-.32-.716-.717-.716s-.717.32-.717.716v1.432c0 .396.32.717.717.717m0 5.014c.396 0 .717-.32.717-.716v-1.433a.72.72 0 0 0-.717-.717.72.72 0 0 0-.717.717v1.433c0 .395.32.716.717.716m0 5.014c.396 0 .717-.32.717-.716v-1.433c0-.396-.32-.716-.717-.716s-.717.32-.717.716v1.433c0 .395.32.716.717.716m0 5.014c.396 0 .717-.32.717-.716v-1.432c0-.396-.32-.717-.717-.717s-.717.32-.717.717v1.432c0 .396.32.716.717.716m0 5.015a.72.72 0 0 0 .717-.717v-1.433c0-.395-.32-.716-.717-.716s-.717.32-.717.716v1.433a.72.72 0 0 0 .717.717m0 3.653c.396 0 .717-.32.717-.717v-.07c0-.397-.32-.717-.717-.717s-.717.32-.717.717v.07c0 .396.32.717.717.717" class="c"/></g></g></svg>