<?xml version="1.0" encoding="utf-8"?>
<!-- Generator: Adobe Illustrator 18.0.0, SVG Export Plug-In . SVG Version: 6.00 Build 0)  -->
<!DOCTYPE svg PUBLIC "-//W3C//DTD SVG 1.1//EN" "http://www.w3.org/Graphics/SVG/1.1/DTD/svg11.dtd">
<svg version="1.1" id="Layer_1" xmlns="http://www.w3.org/2000/svg" xmlns:xlink="http://www.w3.org/1999/xlink" x="0px" y="0px"
	 viewBox="0 0 129.5 129.5" enable-background="new 0 0 129.5 129.5" xml:space="preserve">
<g>
	<g>
		<g>
			<path fill="#FFFFFF" d="M111.1,85.3H18c-1,0-1.8-0.8-1.8-1.8V22.2c0-1,0.8-1.8,1.8-1.8h93.2c1,0,1.8,0.8,1.8,1.8v61.3
				C113,84.4,112.2,85.3,111.1,85.3z"/>
		</g>
		<g>
			<polygon fill="#E6E9EE" points="97.3,20.3 109.4,20.3 97.3,68.7 			"/>
		</g>
		<g>
			<polygon fill="#E6E9EE" points="31.8,20.3 19.7,20.3 31.8,68.7 			"/>
		</g>
		<g>
			<g>
				<path fill="#231F20" d="M6.5,37.8c-0.2,0-0.4-0.1-0.5-0.2c-0.3-0.3-0.3-0.8,0-1.1l1-1c0.3-0.3,0.8-0.3,1.1,0
					c0.3,0.3,0.3,0.8,0,1.1l-1,1C6.9,37.8,6.7,37.8,6.5,37.8z"/>
			</g>
			<g>
				<path fill="#231F20" d="M3.3,41.1c-0.2,0-0.4-0.1-0.5-0.2c-0.3-0.3-0.3-0.8,0-1.1l1-1c0.3-0.3,0.8-0.3,1.1,0
					c0.3,0.3,0.3,0.8,0,1.1l-1,1C3.7,41,3.5,41.1,3.3,41.1z"/>
			</g>
			<g>
				<path fill="#231F20" d="M7.5,41.1c-0.2,0-0.4-0.1-0.5-0.2l-1-1c-0.3-0.3-0.3-0.8,0-1.1c0.3-0.3,0.8-0.3,1.1,0l1,1
					c0.3,0.3,0.3,0.8,0,1.1C7.9,41,7.7,41.1,7.5,41.1z"/>
			</g>
			<g>
				<path fill="#231F20" d="M4.3,37.8c-0.2,0-0.4-0.1-0.5-0.2l-1-1c-0.3-0.3-0.3-0.8,0-1.1c0.3-0.3,0.8-0.3,1.1,0l1,1
					c0.3,0.3,0.3,0.8,0,1.1C4.7,37.8,4.5,37.8,4.3,37.8z"/>
			</g>
		</g>
		<g>
			<path fill="#231F20" d="M121.9,43.1c-0.2,0-0.4-0.1-0.5-0.2c-0.3-0.3-0.3-0.8,0-1.1l1-1c0.3-0.3,0.8-0.3,1.1,0
				c0.3,0.3,0.3,0.8,0,1.1l-1,1C122.3,43,122.1,43.1,121.9,43.1z"/>
		</g>
		<g>
			<path fill="#231F20" d="M118.7,46.3c-0.2,0-0.4-0.1-0.5-0.2c-0.3-0.3-0.3-0.8,0-1.1l1-1c0.3-0.3,0.8-0.3,1.1,0
				c0.3,0.3,0.3,0.8,0,1.1l-1,1C119,46.3,118.9,46.3,118.7,46.3z"/>
		</g>
		<g>
			<path fill="#231F20" d="M122.9,46.3c-0.2,0-0.4-0.1-0.5-0.2l-1-1c-0.3-0.3-0.3-0.8,0-1.1s0.8-0.3,1.1,0l1,1
				c0.3,0.3,0.3,0.8,0,1.1C123.3,46.3,123.1,46.3,122.9,46.3z"/>
		</g>
		<g>
			<path fill="#231F20" d="M119.7,43.1c-0.2,0-0.4-0.1-0.5-0.2l-1-1c-0.3-0.3-0.3-0.8,0-1.1s0.8-0.3,1.1,0l1,1
				c0.3,0.3,0.3,0.8,0,1.1C120.1,43,119.9,43.1,119.7,43.1z"/>
		</g>
		<path fill="#FFFFFF" d="M97.3,73.5V2c0-0.7-0.6-1.3-1.3-1.3H33.1c-0.7,0-1.3,0.6-1.3,1.3v71.5H97.3z"/>
		<g>
			<path fill="#54C0EB" d="M97.3,2v6.4H49.7l-1.3-3.8H38.1l-1.3,3.8h-5.1V2c0-0.7,0.6-1.3,1.3-1.3H96C96.7,0.7,97.3,1.3,97.3,2z"/>
		</g>
		<g>
			<polygon fill="#CED5E0" points="62.4,8.4 48.2,8.4 49.6,4.6 61,4.6 			"/>
		</g>
		<g>
			<circle fill="#FF7058" cx="93.8" cy="4.8" r="1.9"/>
		</g>
		<g>
			<circle fill="#FFD05B" cx="88.5" cy="4.8" r="1.9"/>
		</g>
		<g>
			<circle fill="#E6E9EE" cx="83.3" cy="4.8" r="1.9"/>
		</g>
		<polygon fill="#E6E9EE" points="74.2,91.4 72.1,85.3 57,85.3 54.9,91.4 		"/>
		<path fill="#E6E9EE" d="M94.2,128.7h-63c-0.9,0-1.7-0.8-1.7-1.7v-21.5c0-0.9,0.8-1.7,1.7-1.7h63c0.9,0,1.7,0.8,1.7,1.7V127
			C95.9,128,95.1,128.7,94.2,128.7z"/>
		<g>
			<rect x="32.9" y="106.4" fill="#CED5E0" width="5" height="3.6"/>
		</g>
		<g>
			<rect x="40.7" y="106.4" fill="#CED5E0" width="5" height="3.6"/>
		</g>
		<g>
			<rect x="48.5" y="106.4" fill="#CED5E0" width="5" height="3.6"/>
		</g>
		<g>
			<rect x="56.3" y="106.4" fill="#CED5E0" width="5" height="3.6"/>
		</g>
		<g>
			<rect x="64.1" y="106.4" fill="#CED5E0" width="5" height="3.6"/>
		</g>
		<g>
			<rect x="71.9" y="106.4" fill="#CED5E0" width="5" height="3.6"/>
		</g>
		<g>
			<rect x="79.7" y="106.4" fill="#CED5E0" width="5" height="3.6"/>
		</g>
		<g>
			<rect x="87.5" y="106.4" fill="#CED5E0" width="5" height="3.6"/>
		</g>
		<g>
			<rect x="32.9" y="111.8" fill="#CED5E0" width="5" height="3.6"/>
		</g>
		<g>
			<rect x="40.7" y="111.8" fill="#CED5E0" width="5" height="3.6"/>
		</g>
		<g>
			<rect x="48.5" y="111.8" fill="#CED5E0" width="5" height="3.6"/>
		</g>
		<g>
			<rect x="56.3" y="111.8" fill="#CED5E0" width="5" height="3.6"/>
		</g>
		<g>
			<rect x="64.1" y="111.8" fill="#CED5E0" width="5" height="3.6"/>
		</g>
		<g>
			<rect x="71.9" y="111.8" fill="#CED5E0" width="5" height="3.6"/>
		</g>
		<g>
			<rect x="79.7" y="111.8" fill="#CED5E0" width="5" height="3.6"/>
		</g>
		<g>
			<rect x="87.5" y="111.8" fill="#CED5E0" width="5" height="3.6"/>
		</g>
		<g>
			<rect x="32.9" y="117.2" fill="#CED5E0" width="5" height="3.6"/>
		</g>
		<g>
			<rect x="40.7" y="117.2" fill="#CED5E0" width="5" height="3.6"/>
		</g>
		<g>
			<rect x="48.5" y="117.2" fill="#CED5E0" width="5" height="3.6"/>
		</g>
		<g>
			<rect x="56.3" y="117.2" fill="#CED5E0" width="5" height="3.6"/>
		</g>
		<g>
			<rect x="64.1" y="117.2" fill="#CED5E0" width="5" height="3.6"/>
		</g>
		<g>
			<rect x="71.9" y="117.2" fill="#CED5E0" width="5" height="3.6"/>
		</g>
		<g>
			<rect x="79.7" y="117.2" fill="#CED5E0" width="5" height="3.6"/>
		</g>
		<g>
			<rect x="87.5" y="117.2" fill="#CED5E0" width="5" height="3.6"/>
		</g>
		<g>
			<rect x="32.9" y="122.6" fill="#CED5E0" width="5" height="3.6"/>
		</g>
		<g>
			<rect x="40.7" y="122.6" fill="#CED5E0" width="28.4" height="3.6"/>
		</g>
		<g>
			<rect x="71.9" y="122.6" fill="#CED5E0" width="5" height="3.6"/>
		</g>
		<g>
			<rect x="79.7" y="122.6" fill="#CED5E0" width="5" height="3.6"/>
		</g>
		<g>
			<rect x="87.5" y="122.6" fill="#CED5E0" width="5" height="3.6"/>
		</g>
		<g>
			<g>
				<path fill="#E6E9EE" d="M119.9,128.7L119.9,128.7c-4.9,0-8.9-4-8.9-8.9v-6.5c0-4.9,4-8.9,8.9-8.9l0,0c4.9,0,8.9,4,8.9,8.9v6.5
					C128.8,124.8,124.8,128.7,119.9,128.7z"/>
				<path fill="#231F20" d="M119.9,129.5c-5.3,0-9.6-4.3-9.6-9.6v-6.5c0-5.3,4.3-9.6,9.6-9.6c5.3,0,9.6,4.3,9.6,9.6v6.5
					C129.5,125.2,125.2,129.5,119.9,129.5z M119.9,105.3c-4.5,0-8.1,3.6-8.1,8.1v6.5c0,4.5,3.6,8.1,8.1,8.1c4.5,0,8.1-3.6,8.1-8.1
					v-6.5C128,108.9,124.4,105.3,119.9,105.3z"/>
			</g>
			<g>
				<circle fill="#CED5E0" cx="119.9" cy="111.4" r="2.6"/>
			</g>
		</g>
		<g>
			<polygon fill="#E6E9EE" points="97.3,8.4 97.3,16.8 31.8,16.8 31.8,8.4 36.9,8.4 38.1,4.6 48.5,4.6 49.7,8.4 			"/>
		</g>
		<g>
			<rect x="37.8" y="10.4" fill="#FFFFFF" width="51.7" height="4.6"/>
		</g>
		<g>
			<path fill="#324A5E" d="M39.3,11.6h0.3v0.9h0c0-0.1,0.1-0.1,0.2-0.2c0.1,0,0.2-0.1,0.3-0.1c0.2,0,0.5,0.1,0.5,0.6v0.9h-0.3v-0.8
				c0-0.2-0.1-0.4-0.3-0.4c-0.2,0-0.3,0.1-0.4,0.3c0,0,0,0.1,0,0.1v0.9h-0.3V11.6z"/>
			<path fill="#324A5E" d="M41.3,11.8v0.4h0.4v0.2h-0.4v0.8c0,0.2,0.1,0.3,0.2,0.3c0.1,0,0.1,0,0.2,0l0,0.2c-0.1,0-0.1,0-0.2,0
				c-0.1,0-0.2,0-0.3-0.1c-0.1-0.1-0.1-0.2-0.1-0.4v-0.8h-0.2v-0.2h0.2v-0.4L41.3,11.8z"/>
			<path fill="#324A5E" d="M42.3,11.8v0.4h0.4v0.2h-0.4v0.8c0,0.2,0.1,0.3,0.2,0.3c0.1,0,0.1,0,0.2,0l0,0.2c-0.1,0-0.1,0-0.2,0
				c-0.1,0-0.2,0-0.3-0.1c-0.1-0.1-0.1-0.2-0.1-0.4v-0.8h-0.2v-0.2h0.2v-0.4L42.3,11.8z"/>
			<path fill="#324A5E" d="M43,12.7c0-0.2,0-0.3,0-0.5h0.2l0,0.3h0c0.1-0.2,0.3-0.3,0.5-0.3c0.4,0,0.6,0.3,0.6,0.7
				c0,0.5-0.3,0.8-0.7,0.8c-0.2,0-0.4-0.1-0.5-0.2h0v0.8H43V12.7z M43.3,13.1c0,0,0,0.1,0,0.1c0,0.2,0.2,0.3,0.4,0.3
				c0.3,0,0.4-0.2,0.4-0.6c0-0.3-0.2-0.5-0.4-0.5c-0.2,0-0.4,0.1-0.4,0.3c0,0,0,0.1,0,0.1V13.1z"/>
			<path fill="#324A5E" d="M44.7,12.5c0-0.1,0.1-0.2,0.2-0.2c0.1,0,0.2,0.1,0.2,0.2c0,0.1-0.1,0.2-0.2,0.2
				C44.7,12.7,44.7,12.6,44.7,12.5z M44.7,13.6c0-0.1,0.1-0.2,0.2-0.2c0.1,0,0.2,0.1,0.2,0.2c0,0.1-0.1,0.2-0.2,0.2
				C44.7,13.8,44.7,13.7,44.7,13.6z"/>
			<path fill="#324A5E" d="M45.1,13.9l0.8-2.2h0.2l-0.9,2.2H45.1z"/>
			<path fill="#324A5E" d="M46.2,13.9l0.8-2.2h0.2l-0.9,2.2H46.2z"/>
			<path fill="#324A5E" d="M48.2,12.3l0.2,0.7c0,0.2,0.1,0.3,0.1,0.5h0c0-0.1,0.1-0.3,0.1-0.5l0.2-0.8h0.2l0.2,0.7
				c0.1,0.2,0.1,0.3,0.1,0.5h0c0-0.1,0.1-0.3,0.1-0.5l0.2-0.7H50l-0.5,1.5h-0.2L49.1,13c-0.1-0.2-0.1-0.3-0.1-0.5h0
				c0,0.2-0.1,0.3-0.1,0.5l-0.2,0.7h-0.2l-0.4-1.5H48.2z"/>
			<path fill="#324A5E" d="M50.5,12.3l0.2,0.7c0,0.2,0.1,0.3,0.1,0.5h0c0-0.1,0.1-0.3,0.1-0.5l0.2-0.8h0.2l0.2,0.7
				c0.1,0.2,0.1,0.3,0.1,0.5h0c0-0.1,0.1-0.3,0.1-0.5l0.2-0.7h0.3l-0.5,1.5h-0.2L51.4,13c-0.1-0.2-0.1-0.3-0.1-0.5h0
				c0,0.2-0.1,0.3-0.1,0.5l-0.2,0.7h-0.2l-0.4-1.5H50.5z"/>
			<path fill="#324A5E" d="M52.7,12.3l0.2,0.7c0,0.2,0.1,0.3,0.1,0.5h0c0-0.1,0.1-0.3,0.1-0.5l0.2-0.8h0.2l0.2,0.7
				c0.1,0.2,0.1,0.3,0.1,0.5h0c0-0.1,0.1-0.3,0.1-0.5l0.2-0.7h0.3l-0.5,1.5h-0.2L53.6,13c-0.1-0.2-0.1-0.3-0.1-0.5h0
				c0,0.2-0.1,0.3-0.1,0.5l-0.2,0.7h-0.2l-0.4-1.5H52.7z"/>
			<path fill="#324A5E" d="M54.7,13.6c0-0.1,0.1-0.2,0.2-0.2c0.1,0,0.2,0.1,0.2,0.2c0,0.1-0.1,0.2-0.2,0.2
				C54.7,13.8,54.7,13.7,54.7,13.6z"/>
		</g>
		<g>
			<circle fill="#84DBFF" cx="119.8" cy="6.8" r="2.4"/>
		</g>
		<g>
			<g>
				<path fill="#FFFFFF" d="M83.3,23.2l-3-1.4L80.2,22c-0.7,1.2-1.9,1.8-3.3,1.7c-0.3,0-0.5,0-0.8,0c-1.3,0-2.6-0.7-3.2-1.9
					l-0.1-0.2l-3.1,1.2l0.1,0.2c0.4,1.3-0.1,2.6-1.1,3.5c-0.2,0.2-0.4,0.4-0.6,0.5c-0.9,1-2.3,1.3-3.6,0.9l-0.2-0.1l-1.4,3l0.2,0.1
					c1.2,0.7,1.8,1.9,1.7,3.3c0,0.3,0,0.5,0,0.8c0,1.3-0.7,2.6-1.9,3.2l-0.2,0.1l1.2,3.1l0.2-0.1c1.3-0.4,2.6,0.1,3.5,1.1
					c0.2,0.2,0.4,0.4,0.5,0.6c1,0.9,1.3,2.3,0.9,3.6l-0.1,0.2l3,1.4l0.1-0.2c0.7-1.2,1.9-1.8,3.3-1.7c0.3,0,0.5,0,0.8,0
					c1.3,0,2.6,0.7,3.2,1.9l0.1,0.2l3.1-1.2L82.6,47c-0.4-1.3,0.1-2.6,1.1-3.5c0.2-0.2,0.4-0.4,0.6-0.5c0.9-1,2.3-1.3,3.6-0.9
					l0.2,0.1l1.4-3L89.2,39c-1.2-0.7-1.8-1.9-1.7-3.3c0-0.3,0-0.5,0-0.8c0-1.3,0.7-2.6,1.9-3.2l0.2-0.1l-1.2-3.1l-0.2,0.1
					c-1.3,0.4-2.6-0.1-3.5-1.1c-0.2-0.2-0.4-0.4-0.5-0.6c-1-0.9-1.3-2.3-0.9-3.6L83.3,23.2z"/>
				<path fill="#231F20" d="M79.5,49.1c-0.3,0-0.5-0.2-0.7-0.4l-0.1-0.2c-0.4-0.9-1.4-1.5-2.5-1.5c-0.4,0-0.6,0-0.8,0
					c-1.1-0.1-2.1,0.4-2.6,1.3l-0.1,0.2c-0.2,0.3-0.6,0.5-1,0.3l-3-1.4c-0.4-0.2-0.5-0.6-0.4-0.9l0.1-0.2c0.3-1,0.1-2-0.7-2.8
					c-0.2-0.2-0.4-0.4-0.6-0.6c-0.7-0.8-1.8-1.2-2.8-0.9l-0.2,0.1c-0.4,0.1-0.8-0.1-0.9-0.5l-1.2-3.1c-0.1-0.4,0-0.8,0.4-0.9
					l0.2-0.1c0.9-0.4,1.5-1.4,1.5-2.5c0-0.3,0-0.6,0-0.8c0.1-1.1-0.4-2.1-1.3-2.6l-0.2-0.1c-0.3-0.2-0.5-0.6-0.3-1l1.4-3
					c0.2-0.4,0.6-0.5,0.9-0.4l0.2,0.1c0.9,0.3,2.1,0,2.8-0.7c0.2-0.2,0.4-0.4,0.6-0.6c0.8-0.7,1.2-1.8,0.9-2.8L69.1,23
					c-0.1-0.4,0.1-0.8,0.5-0.9l3.1-1.2c0.4-0.1,0.8,0,0.9,0.4l0.1,0.2c0.4,0.9,1.4,1.5,2.5,1.5c0.3,0,0.6,0,0.8,0
					c1.1,0.1,2.1-0.4,2.6-1.3l0.1-0.2c0.2-0.3,0.6-0.5,1-0.3l3,1.4c0.4,0.2,0.5,0.6,0.4,0.9L84,23.6c-0.3,1-0.1,2,0.7,2.8
					c0.2,0.2,0.4,0.4,0.6,0.6c0.7,0.8,1.8,1.2,2.8,0.9l0.2-0.1c0.4-0.1,0.8,0.1,0.9,0.5l1.2,3.1c0.1,0.4,0,0.8-0.4,0.9l-0.2,0.1
					c-0.9,0.4-1.5,1.4-1.5,2.5c0,0.3,0,0.6,0,0.8c-0.1,1.1,0.4,2.1,1.3,2.6l0.2,0.1c0.3,0.2,0.5,0.6,0.3,1l-1.4,3
					c-0.2,0.4-0.6,0.5-0.9,0.4l-0.2-0.1c-0.9-0.3-2.1,0-2.8,0.7c-0.2,0.2-0.4,0.4-0.6,0.6c-0.8,0.7-1.2,1.8-0.9,2.8l0.1,0.2
					c0.1,0.4-0.1,0.8-0.5,0.9l-3.1,1.2C79.7,49.1,79.6,49.1,79.5,49.1z M75.2,45.5c0.1,0,0.2,0,0.3,0c0.2,0,0.5,0,0.7,0
					c1.5,0,2.9,0.7,3.7,1.9l1.9-0.7c-0.2-1.4,0.3-2.8,1.4-3.8c0.2-0.2,0.4-0.3,0.5-0.5c1-1,2.5-1.5,3.9-1.2l0.8-1.8
					c-1.1-0.8-1.8-2.2-1.7-3.7c0-0.2,0-0.5,0-0.7c0-1.5,0.7-2.8,1.9-3.6L88,29.4c-1.4,0.2-2.8-0.3-3.8-1.4c-0.2-0.2-0.3-0.4-0.5-0.5
					c-1.1-1.1-1.5-2.5-1.2-3.9l-1.8-0.8c-0.8,1.1-2.2,1.8-3.7,1.7c-0.2,0-0.5,0-0.7,0c-1.5,0-2.9-0.7-3.7-1.9l-1.9,0.7
					c0.2,1.4-0.3,2.8-1.4,3.8c-0.2,0.2-0.4,0.3-0.5,0.5c-1,1-2.5,1.5-3.9,1.2L64,30.6c1.1,0.8,1.8,2.2,1.7,3.7c0,0.2,0,0.5,0,0.7
					c0,1.5-0.7,2.8-1.9,3.6l0.7,1.9c1.4-0.2,2.8,0.3,3.8,1.4c0.2,0.2,0.3,0.4,0.5,0.5c1.1,1.1,1.5,2.5,1.2,3.9l1.8,0.8
					C72.6,46.1,73.9,45.5,75.2,45.5z"/>
			</g>
			<g>
				<path fill="#231F20" d="M75.5,44.3c-0.4,0-0.7-0.1-1.1-0.1l0.3-1.5c0.3,0.1,0.6,0.1,0.9,0.1L75.5,44.3z M77.7,44.2l-0.2-1.5
					c0.3,0,0.6-0.1,0.9-0.2l0.4,1.4C78.4,44.1,78,44.1,77.7,44.2z M72.4,43.5c-0.3-0.2-0.7-0.3-1-0.5l0.8-1.3
					c0.3,0.2,0.5,0.3,0.8,0.4L72.4,43.5z M80.7,43.1L80,41.8c0.3-0.1,0.5-0.3,0.8-0.5l0.9,1.2C81.4,42.8,81.1,43,80.7,43.1z
					 M69.7,41.6c-0.3-0.3-0.5-0.5-0.7-0.8l1.2-0.9c0.2,0.2,0.4,0.5,0.6,0.7L69.7,41.6z M83.3,41.1l-1.1-1c0.2-0.2,0.4-0.5,0.6-0.7
					l1.2,0.8C83.7,40.5,83.5,40.8,83.3,41.1z M67.8,39c-0.2-0.3-0.3-0.7-0.4-1l1.4-0.5c0.1,0.3,0.2,0.6,0.3,0.8L67.8,39z M84.9,38.3
					l-1.4-0.5c0.1-0.3,0.2-0.6,0.3-0.9l1.5,0.4C85.2,37.6,85.1,38,84.9,38.3z M66.9,35.9c0-0.3,0-0.6,0-0.9l0-0.2l1.5,0l0,0.1
					c0,0.3,0,0.5,0,0.8L66.9,35.9z M85.5,35.1l-1.5,0l0-0.1c0-0.3,0-0.5,0-0.8l1.5-0.2c0,0.3,0,0.6,0,0.9L85.5,35.1z M68.6,33
					l-1.5-0.4c0.1-0.3,0.2-0.7,0.3-1l1.4,0.5C68.8,32.4,68.7,32.7,68.6,33z M83.6,32.4c-0.1-0.3-0.2-0.6-0.3-0.8l1.4-0.7
					c0.2,0.3,0.3,0.7,0.4,1L83.6,32.4z M69.8,30.5l-1.2-0.8c0.2-0.3,0.4-0.6,0.7-0.9l1.1,1C70.1,30,69.9,30.3,69.8,30.5z M82.3,30
					c-0.2-0.2-0.4-0.5-0.6-0.7l1-1.1c0.3,0.3,0.5,0.5,0.7,0.8L82.3,30z M71.7,28.6l-0.9-1.2c0.3-0.2,0.6-0.4,0.9-0.6l0.7,1.3
					C72.2,28.3,71.9,28.4,71.7,28.6z M80.2,28.2c-0.3-0.2-0.5-0.3-0.8-0.4l0.6-1.4c0.3,0.1,0.7,0.3,1,0.5L80.2,28.2z M74.1,27.4
					L73.7,26c0.3-0.1,0.7-0.2,1.1-0.2l0.2,1.5C74.7,27.3,74.4,27.3,74.1,27.4z M77.7,27.3c-0.3-0.1-0.6-0.1-0.9-0.1l0.1-1.5
					c0.4,0,0.7,0.1,1.1,0.1L77.7,27.3z"/>
			</g>
			<g>
				<circle fill="#FFD05B" cx="76.2" cy="35" r="6.8"/>
			</g>
			<g>
				<circle fill="#FFFFFF" cx="76.2" cy="35" r="3.4"/>
				<path fill="#231F20" d="M76.2,39.1c-0.6,0-1.2-0.1-1.7-0.4c-1-0.5-1.8-1.3-2.2-2.3c-0.4-1-0.4-2.2,0.1-3.2
					c0.7-1.5,2.2-2.5,3.8-2.5c0.6,0,1.2,0.1,1.7,0.4c1,0.5,1.8,1.3,2.2,2.3c0.4,1,0.4,2.2-0.1,3.2C79.3,38.2,77.8,39.1,76.2,39.1z
					 M76.2,32.3c-1,0-2,0.6-2.4,1.6c-0.3,0.6-0.3,1.4-0.1,2c0.3,0.7,0.7,1.2,1.4,1.5c1.3,0.6,2.9,0,3.5-1.3c0.6-1.3,0-2.9-1.3-3.5
					C77,32.4,76.6,32.3,76.2,32.3z"/>
			</g>
		</g>
		<circle fill="#FFFFFF" cx="12.6" cy="12.6" r="11.9"/>
		<polygon fill="#FFFFFF" points="56,40.4 39.5,33.2 29.3,43.4 36.6,59.9 		"/>
		<path fill="#FFFFFF" d="M39.7,33c-0.4-0.7-0.8-1.4-1.4-2c-3.1-3.1-8-3.1-11.1,0c-3.1,3.1-3.1,8,0,11.1c0.6,0.6,1.3,1.1,2,1.4
			L39.7,33z"/>
		<path fill="#FFFFFF" d="M35.5,99.2H5.9l0,0c0-3.2,2.6-5.7,5.7-5.7h18.2C32.9,93.5,35.5,96,35.5,99.2L35.5,99.2z"/>
		<circle fill="#FFD05B" cx="5.9" cy="64.3" r="5.1"/>
		<path fill="#E6E9EE" d="M113,73.5v9.9c0,1-0.8,1.8-1.8,1.8H18c-1,0-1.8-0.8-1.8-1.8v-9.9H113z"/>
		<g>
			<rect x="112.2" y="50.3" fill="#231F20" width="1.5" height="10.5"/>
			<rect x="11.9" y="2.5" fill="#231F20" width="1.5" height="1.1"/>
			<rect x="11.9" y="21.6" fill="#231F20" width="1.5" height="1.1"/>
			
				<rect x="7.3" y="3.6" transform="matrix(0.5002 0.8659 -0.8659 0.5002 7.7196 -4.6193)" fill="#231F20" width="1.1" height="1.5"/>
			
				<rect x="16.8" y="20.1" transform="matrix(-0.4998 -0.8662 0.8662 -0.4998 7.9938 46.3407)" fill="#231F20" width="1.1" height="1.5"/>
			
				<rect x="3.8" y="7.1" transform="matrix(-0.8662 -0.4998 0.4998 -0.8662 4.2399 16.857)" fill="#231F20" width="1.1" height="1.5"/>
			
				<rect x="20.3" y="16.6" transform="matrix(0.8659 0.5002 -0.5002 0.8659 11.4887 -8.1045)" fill="#231F20" width="1.1" height="1.5"/>
			
				<rect x="3.6" y="16.8" transform="matrix(-0.5001 -0.866 0.866 -0.5001 -8.4832 29.8589)" fill="#231F20" width="1.5" height="1.1"/>
			<rect x="20.1" y="7.3" transform="matrix(0.5 0.866 -0.866 0.5 17.2377 -14.1365)" fill="#231F20" width="1.5" height="1.1"/>
			
				<rect x="7.1" y="20.3" transform="matrix(-0.866 -0.5001 0.5001 -0.866 4.2362 42.8593)" fill="#231F20" width="1.5" height="1.1"/>
			
				<rect x="16.6" y="3.8" transform="matrix(-0.866 -0.5001 0.5001 -0.866 30.2392 16.858)" fill="#231F20" width="1.5" height="1.1"/>
			<rect x="2.5" y="11.9" fill="#231F20" width="1.1" height="1.5"/>
			<rect x="21.6" y="11.9" fill="#231F20" width="1.1" height="1.5"/>
			<polygon fill="#231F20" points="11.9,11.9 7.4,11.9 7.4,13.4 13.4,13.4 13.4,6.9 11.9,6.9 			"/>
			
				<rect x="53.7" y="46.7" transform="matrix(-0.7071 -0.7071 0.7071 -0.7071 61.7729 120.523)" fill="#231F20" width="4.4" height="1.5"/>
			
				<rect x="51.2" y="49.2" transform="matrix(-0.7071 -0.7071 0.7071 -0.7071 55.8586 122.9741)" fill="#231F20" width="4.4" height="1.5"/>
			
				<rect x="48.8" y="51.6" transform="matrix(-0.7071 -0.7071 0.7071 -0.7071 49.9434 125.424)" fill="#231F20" width="4.4" height="1.5"/>
			
				<rect x="46.3" y="54.1" transform="matrix(-0.7071 -0.7072 0.7072 -0.7071 44.0213 127.8745)" fill="#231F20" width="4.4" height="1.5"/>
			
				<rect x="43.9" y="56.5" transform="matrix(-0.7071 -0.7071 0.7071 -0.7071 38.1105 130.3248)" fill="#231F20" width="4.4" height="1.5"/>
			
				<rect x="41.4" y="59" transform="matrix(-0.7071 -0.7071 0.7071 -0.7071 32.194 132.7755)" fill="#231F20" width="4.4" height="1.5"/>
			<path fill="#231F20" d="M111.7,19.6H98V2c0-1.1-0.9-2-2-2H33.1c-1.1,0-2,0.9-2,2v17.5h-7.9c1.3-2,2.1-4.4,2.1-6.9
				c0-7-5.7-12.6-12.6-12.6S0,5.7,0,12.6s5.7,12.6,12.6,12.6c0.9,0,1.9-0.1,2.7-0.3v28.3l-6.1,6.4c-1-0.7-2.2-1.1-3.5-1.1
				c-3.2,0-5.9,2.6-5.9,5.9c0,3.2,2.6,5.9,5.9,5.9c0.7,0,1.3-0.1,1.9-0.3l11.4,22.9h-7.6c-3.3,0-6,2.5-6.4,5.7H1.5
				c-0.4,0-0.8,0.3-0.8,0.8c0,0.4,0.3,0.8,0.8,0.8h38.4c0.4,0,0.8-0.3,0.8-0.8c0-0.4-0.3-0.8-0.8-0.8h-3.7c-0.4-3.2-3.1-5.7-6.4-5.7
				h-8.9L17.5,86c0.2,0,0.3,0,0.5,0h38l-1.6,4.6h-3.7v1.5h27.8v-1.5h-3.7L73.1,86h12.7v3.6c0,2.2,1.8,4,4,4h13.3
				c1.4,0,2.5,1.1,2.5,2.5c0,1.4-1.1,2.5-2.5,2.5H70.4c-2.2,0-4,1.8-4,4v0.6H31.2c-1.4,0-2.5,1.1-2.5,2.5V127c0,1.4,1.1,2.5,2.5,2.5
				h63c1.4,0,2.5-1.1,2.5-2.5v-21.5c0-1.4-1.1-2.5-2.5-2.5H68v-0.6c0-1.4,1.1-2.5,2.5-2.5h32.7c2.2,0,4-1.8,4-4c0-2.2-1.8-4-4-4
				H89.9c-1.4,0-2.5-1.1-2.5-2.5V86h23.8c1.4,0,2.6-1.2,2.6-2.6v-20h-1.5v9.4H98V21.1h13.7c0.3,0,0.5,0.2,0.5,0.5v26.5h1.5V21.6
				C113.7,20.5,112.8,19.6,111.7,19.6z M5.9,68.7c-2.4,0-4.4-2-4.4-4.4c0-2.4,2-4.4,4.4-4.4s4.4,2,4.4,4.4
				C10.2,66.7,8.3,68.7,5.9,68.7z M15.4,81.7L9.1,69.2c1.6-1.1,2.6-2.8,2.6-4.9c0-1.4-0.5-2.7-1.3-3.7l5-5.2V81.7z M29.8,94.2
				c2.5,0,4.5,1.8,4.9,4.2h-28c0.4-2.4,2.4-4.2,4.9-4.2H29.8z M94.2,104.6c0.5,0,1,0.4,1,1V127c0,0.5-0.4,1-1,1h-63
				c-0.5,0-1-0.4-1-1v-21.5c0-0.5,0.4-1,1-1H94.2z M32.6,2c0-0.3,0.2-0.5,0.5-0.5H96c0.3,0,0.5,0.2,0.5,0.5v70.8h-64V52.7l3.3,7.5
				c0.1,0.2,0.3,0.4,0.5,0.4c0,0,0.1,0,0.1,0c0.2,0,0.4-0.1,0.5-0.2L56.6,41c0.2-0.2,0.3-0.4,0.2-0.7c0-0.2-0.2-0.4-0.4-0.5l-16-7.1
				c0,0,0,0,0,0c-0.4-0.8-0.9-1.5-1.6-2.2C37.1,28.9,35,28,32.7,28c0,0-0.1,0-0.1,0V2z M30.2,43.6l9.5-9.5l15,6.6L36.8,58.6
				L30.2,43.6z M31.1,49.3v23.5H16.9v-19l10.2-10.8c0.5,0.4,1.1,0.8,1.7,1.2c0,0,0,0,0,0L31.1,49.3z M32.7,29.5c1.9,0,3.7,0.7,5,2.1
				c0.4,0.4,0.7,0.8,1,1.3L29,42.6c-0.5-0.3-0.9-0.6-1.3-1c-2.8-2.8-2.8-7.3,0-10C29,30.2,30.8,29.5,32.7,29.5z M31.1,21.1v7.1
				c-1.7,0.3-3.2,1.1-4.4,2.4c-3.1,3.1-3.3,8.1-0.6,11.5l-9.2,9.7V24.5c2-0.7,3.7-1.9,5.1-3.4H31.1z M12.6,23.7
				c-6.1,0-11.1-5-11.1-11.1c0-6.1,5-11.1,11.1-11.1c6.1,0,11.1,5,11.1,11.1C23.7,18.8,18.8,23.7,12.6,23.7z M73.1,90.6H56l1.6-4.6
				h14L73.1,90.6z M112.2,74.3v9.1c0,0.6-0.5,1.1-1.1,1.1H18c-0.6,0-1.1-0.5-1.1-1.1v-9.1H112.2z"/>
		</g>
		<g>
			<circle fill="#CED5E0" cx="64.5" cy="79.4" r="2.5"/>
		</g>
	</g>
</g>
</svg>
