<svg xmlns="http://www.w3.org/2000/svg" xmlns:xlink="http://www.w3.org/1999/xlink" viewBox="0 0 129.5 129.5"><style><![CDATA[.B{fill:#231F20}.C{fill:#fff}]]></style><g class="B"><use xlink:href="#B"/><use xlink:href="#B" x="-4" y="4.1"/><use xlink:href="#C"/><use xlink:href="#C" x="-4" y="-4.1"/><path d="M40 37.3c-.2 0-.4-.1-.5-.2-.3-.3-.3-.8 0-1.1l1.3-1.3c.3-.3.8-.3 1.1 0s.3.8 0 1.1L40.5 37a.55.55 0 0 1-.5.3zm-4 4c-.2 0-.4-.1-.5-.2-.3-.3-.3-.8 0-1.1l1.3-1.3c.3-.3.8-.3 1.1 0s.3.8 0 1.1l-1.3 1.3c-.3.1-.5.2-.6.2z"/><use xlink:href="#C" x="-81.8" y="30.9"/><use xlink:href="#C" x="-85.9" y="26.9"/><path d="M75.1 119.8c-.2 0-.4-.1-.5-.2-.3-.3-.3-.8 0-1.1l1.3-1.3c.3-.3.8-.3 1.1 0s.3.8 0 1.1l-1.3 1.3c-.2.2-.4.2-.6.2z"/><use xlink:href="#B" x="-50.8" y="117.6"/><use xlink:href="#C" x="-46.7" y="113.5"/><path d="M72.3 119.8c-.2 0-.4-.1-.5-.2l-1.3-1.3c-.3-.3-.3-.8 0-1.1s.8-.3 1.1 0l1.3 1.3c.3.3.3.8 0 1.1-.2.2-.4.2-.6.2z"/></g><circle cx="23.6" cy="10.6" r="2.8" fill="#E6E9EE"/><circle cx="42.1" cy="123.9" r="2.1" fill="#4CDBC4"/><circle cx="127.4" cy="42.9" r="2.1" fill="#84DBFF"/><path d="M30.7 74.4L24.3 78a4.54 4.54 0 0 0-1.9 5.9v.1c2 4.7.5 10.3-3.6 13.3-5.7 4.2-13.6 2.4-16.8-3.7-2.8-5.3-.6-12.3 4.6-15.2L26.5 67l4.2 7.4z" fill="#FF7058"/><path d="M60.6 18.7h55.2v88.9H60.6z" class="C"/><path d="M65.1 96V30.2c3.9 0 7-3.1 7-7h32.2c0 3.9 3.1 7 7 7V96c-3.9 0-7 3.1-7 7H72.1c0-3.8-3.1-7-7-7z" fill="#84DBFF"/><g class="C"><path d="M30.3 52.5l42.6 24.3 21.7 12.4c-9.2 4.5-20.1 3.9-28.7-1.6l-30.7-20-1-4.5-7.5-4.3"/><circle cx="40.8" cy="63.8" r="2.2"/></g><path d="M40.8 66.7a3.01 3.01 0 0 1-3-3 3.01 3.01 0 0 1 3-3 3.01 3.01 0 0 1 3 3c0 1.7-1.3 3-3 3zm0-4.4a1.54 1.54 0 0 0-1.5 1.5 1.54 1.54 0 0 0 1.5 1.5 1.54 1.54 0 0 0 1.5-1.5 1.54 1.54 0 0 0-1.5-1.5z" class="B"/><path d="M30.7 51.8l-6.4-3.6a4.54 4.54 0 0 1-1.9-5.9v-.1c2-4.7.5-10.3-3.6-13.3-5.7-4.3-13.6-2.4-16.8 3.7-2.8 5.3-.6 12.3 4.6 15.2l19.9 11.4 4.2-7.4z" fill="#FF7058"/><path d="M59.9 17.9v23.9L38 55.9l-6.6-3.8.4-.6-7-4c-1.7-1-2.4-3.1-1.6-5v-.1c2.1-5 .5-11-3.9-14.2-2.1-1.6-4.6-2.4-7.3-2.4-4.5 0-8.6 2.5-10.7 6.4-3 5.6-.7 13 4.9 16.2l20.6 11.7.2-.3 5.7 3.2-5.7 3.4-.2-.4L6.2 77.8C.6 81-1.7 88.4 1.3 94c2.1 4 6.2 6.4 10.7 6.4 2.6 0 5.1-.8 7.3-2.4 4.3-3.2 5.9-9.2 3.9-14.2v-.1c-.8-1.8-.1-4 1.6-4.9l7-4-.4-.6 6.6-3.8 21.9 14.1v23.8h56.7V17.9H59.9zm-9.3 45.2l9.3-5.3v10.6l-9.3-5.3zm9.3-19.5v12.5L49 62.3l-9.6-5.5 20.5-13.2zM26.2 58.2L7 47.2C2 44.4 0 37.8 2.6 33c1.8-3.5 5.4-5.6 9.3-5.6 2.3 0 4.5.7 6.4 2.1 3.8 2.8 5.2 8.1 3.4 12.4v.1c-1.1 2.6-.1 5.5 2.3 6.9l5.7 3.3-3.5 6zm-2.3 19.2c-2.4 1.4-3.3 4.3-2.3 6.9v.1c1.8 4.4.4 9.6-3.4 12.4-1.9 1.4-4.1 2.1-6.4 2.1-3.9 0-7.5-2.1-9.3-5.6C0 88.4 2 81.9 7 79.1l19.2-11 3.4 6-5.7 3.3zm6.7-4.6l-2.9-5.1 5.9-3.4.9 3.8 2 1.3-5.9 3.4zm5.2-5.6l-1-4.5-7.1-4.1 2.9-5.1L93 89c-8.6 3.7-18.7 2.9-26.6-2.2L35.8 67.2zm30.1 21.1c4.8 3 10.3 4.5 15.8 4.5 4.5 0 9-1 13.2-3.1l1.3-.6-30.3-17.2v-41c3.7-.4 6.6-3.3 7-7h30.7c.4 3.7 3.3 6.6 7 7v64.3c-3.7.4-6.6 3.3-7 7H72.9c-.4-3.7-3.3-6.6-7-7v-6.9zm49.2 18.5H61.4V85.4l3 1.9v9.4h.8c3.5 0 6.3 2.8 6.3 6.3v.8h33.7v-.8c0-3.5 2.8-6.3 6.3-6.3h.8V29.5h-.8c-3.5 0-6.3-2.8-6.3-6.3v-.8H71.4v.8c0 3.5-2.8 6.3-6.3 6.3h-.8V71l-3-1.7V19.4H115v87.4z" class="B"/><circle cx="12" cy="37.9" r="8.3" class="C"/><path d="M12 46.9c-1.6 0-3.1-.4-4.5-1.2-2.1-1.2-3.6-3.1-4.2-5.5-.6-2.3-.3-4.8.9-6.9 1.6-2.8 4.6-4.6 7.8-4.6 1.6 0 3.1.4 4.5 1.2 4.3 2.5 5.8 8 3.4 12.3-1.7 3-4.7 4.7-7.9 4.7zm0-16.5c-2.7 0-5.2 1.5-6.5 3.8-1 1.7-1.3 3.8-.7 5.7.5 1.9 1.8 3.6 3.5 4.5 1.1.6 2.4 1 3.7 1 2.7 0 5.2-1.5 6.5-3.8 2.1-3.6.8-8.2-2.8-10.3-1.1-.6-2.4-.9-3.7-.9z" class="B"/><circle cx="88.3" cy="63.1" r="14.5" class="C"/><g class="B"><path d="M88.3 78.4c-8.4 0-15.3-6.9-15.3-15.3s6.9-15.3 15.3-15.3 15.3 6.9 15.3 15.3-6.9 15.3-15.3 15.3zm0-29.1c-7.6 0-13.8 6.2-13.8 13.8s6.2 13.8 13.8 13.8 13.8-6.2 13.8-13.8-6.2-13.8-13.8-13.8zm5 20.9c-.4 0-.8-.3-.8-.8 0-.4.3-.8.8-.8.9 0 1.7-.8 1.7-1.7v-7.8c0-.9-.8-1.7-1.7-1.7h-2.6c-.9 0-1.7.8-1.7 1.7V67c0 1.8-1.4 3.2-3.2 3.2h-2.6c-1.8 0-3.2-1.4-3.2-3.2v-7.8c0-1.8 1.4-3.2 3.2-3.2.4 0 .8.3.8.8 0 .4-.3.8-.8.8-.9 0-1.7.8-1.7 1.7V67c0 .9.8 1.7 1.7 1.7h2.6c.9 0 1.7-.8 1.7-1.7v-7.8c0-1.8 1.4-3.2 3.2-3.2h2.6c1.8 0 3.2 1.4 3.2 3.2V67c.1 1.8-1.4 3.2-3.2 3.2z"/><path d="M78.6 63.9c-.4 0-.8-.3-.8-.8 0-.4.3-.8.8-.8h19.3c.4 0 .8.3.8.8 0 .4-.3.8-.8.8H78.6z"/></g><circle cx="88.3" cy="37" r="4.3" fill="#E6E9EE"/><path d="M88.3 42.1c-2.8 0-5-2.3-5-5 0-2.8 2.3-5 5-5s5 2.3 5 5-2.3 5-5 5zm0-8.6c-2 0-3.5 1.6-3.5 3.5 0 2 1.6 3.5 3.5 3.5s3.5-1.6 3.5-3.5-1.6-3.5-3.5-3.5z" class="B"/><circle cx="62.4" cy="19.9" r="13.6" fill="#FFD05B"/><g class="B"><path d="M62.4 30.9a10.97 10.97 0 0 1-11-11h1.5c0 5.2 4.3 9.5 9.5 9.5s9.5-4.3 9.5-9.5-4.3-9.5-9.5-9.5V8.9a10.97 10.97 0 0 1 11 11 10.97 10.97 0 0 1-11 11z"/><path d="M52.9 19.9h-1.5c0-.4 0-.7.1-1.1l1.5.1c-.1.4-.1.7-.1 1zm.4-2.8l-1.4-.4c.1-.3.2-.7.4-1l1.4.6c-.2.2-.3.5-.4.8zm1.2-2.5l-1.3-.8.6-.9 1.2 1c-.2.2-.3.5-.5.7zm1.8-2l-1-1.2.9-.6.8 1.3c-.2.1-.4.3-.7.5zm2.4-1.5l-.6-1.4c.3-.1.7-.3 1-.4l.4 1.4c-.2.2-.5.3-.8.4zm2.7-.7l-.1-1.5c.4 0 .7-.1 1.1-.1v1.5c-.4.1-.7.1-1 .1zm3.8 15.7h-5.6c-1.4 0-2.5-1.1-2.5-2.5 0-.4.3-.8.8-.8.4 0 .8.3.8.8 0 .6.5 1 1 1h5.6c.6 0 1-.5 1-1v-1.9c0-.6-.5-1-1-1h-5.6c-1.4 0-2.5-1.1-2.5-2.5v-1.9c0-1.4 1.1-2.5 2.5-2.5h5.6c1.4 0 2.5 1.1 2.5 2.5 0 .4-.3.8-.8.8-.4 0-.8-.3-.8-.8 0-.6-.5-1-1-1h-5.6c-.6 0-1 .5-1 1v1.9c0 .6.5 1 1 1h5.6c1.4 0 2.5 1.1 2.5 2.5v1.9c0 1.4-1.1 2.5-2.5 2.5z"/><path d="M62.4 27.6c-.4 0-.8-.3-.8-.8V12.9c0-.4.3-.8.8-.8.4 0 .8.3.8.8v13.9c-.1.5-.4.8-.8.8z"/></g><circle cx="114.4" cy="107.5" r="15.1" fill="#FFD05B"/><g class="B"><path d="M114.4 119.7a12.08 12.08 0 0 1-12.1-12.1h1.5c0 5.9 4.8 10.6 10.6 10.6 5.9 0 10.6-4.8 10.6-10.6 0-5.9-4.8-10.6-10.6-10.6v-1.5a12.08 12.08 0 0 1 12.1 12.1c0 6.6-5.4 12.1-12.1 12.1zm-10.6-12.2h-1.5v-1.1l1.5.1v1zm.3-2.8l-1.5-.4.3-1 1.4.5c0 .3-.1.6-.2.9zm1.1-2.6l-1.3-.8.6-.9 1.2.9c-.2.3-.3.6-.5.8zm1.7-2.2l-1.1-1.1c.3-.3.5-.5.8-.7l1 1.2c-.2.2-.4.4-.7.6zm2.3-1.7l-.7-1.3c.3-.2.6-.3 1-.5l.6 1.4-.9.4zm2.6-1l-.4-1.5c.3-.1.7-.2 1.1-.2l.2 1.5c-.3.1-.6.1-.9.2zm5.7 17.1h-6.2a2.69 2.69 0 0 1-2.7-2.7c0-.4.3-.8.8-.8.4 0 .8.3.8.8 0 .7.5 1.2 1.2 1.2h6.2c.7 0 1.2-.5 1.2-1.2v-2.1c0-.7-.5-1.2-1.2-1.2h-6.2a2.69 2.69 0 0 1-2.7-2.7v-2.1a2.69 2.69 0 0 1 2.7-2.7h6.2a2.69 2.69 0 0 1 2.7 2.7c0 .4-.3.8-.8.8-.4 0-.8-.3-.8-.8 0-.7-.5-1.2-1.2-1.2h-6.2c-.7 0-1.2.5-1.2 1.2v2.1c0 .7.5 1.2 1.2 1.2h6.2a2.69 2.69 0 0 1 2.7 2.7v2.1a2.69 2.69 0 0 1-2.7 2.7z"/><path d="M114.4 116c-.4 0-.8-.3-.8-.8V99.8c0-.4.3-.8.8-.8.4 0 .8.3.8.8v15.4c-.1.5-.4.8-.8.8z"/></g><circle cx="12" cy="88.4" r="8.3" class="C"/><path d="M12 97.4c-3.2 0-6.2-1.7-7.8-4.6-1.2-2.1-1.5-4.5-.9-6.9.6-2.3 2.1-4.3 4.2-5.5 1.4-.8 2.9-1.2 4.5-1.2 3.2 0 6.2 1.7 7.8 4.6 1.2 2.1 1.5 4.5.9 6.9-.6 2.3-2.1 4.3-4.2 5.5a9.2 9.2 0 0 1-4.5 1.2zm0-16.5c-1.3 0-2.6.3-3.7 1-1.7 1-3 2.6-3.5 4.5s-.3 4 .7 5.7c1.3 2.3 3.8 3.8 6.5 3.8 1.3 0 2.6-.3 3.7-1 1.7-1 3-2.6 3.5-4.5s.3-4-.7-5.7c-1.3-2.4-3.8-3.8-6.5-3.8zm28.6 20.4c-2.3 0-4.1-1.8-4.1-4.1s1.8-4.1 4.1-4.1 4.1 1.8 4.1 4.1-1.9 4.1-4.1 4.1zm0-6.6a2.65 2.65 0 0 0-2.6 2.6 2.65 2.65 0 0 0 2.6 2.6 2.65 2.65 0 0 0 2.6-2.6c0-1.5-1.2-2.6-2.6-2.6z" class="B"/><path d="M10 117.3h8.7" class="C"/><path d="M18.7 118.1H10c-.4 0-.8-.3-.8-.8 0-.4.3-.8.8-.8h8.8c.4 0 .8.3.8.8-.1.4-.4.8-.9.8z" class="B"/><path d="M17.9 120.5h4.3" class="C"/><path d="M22.2 121.3h-4.3c-.4 0-.8-.3-.8-.8s.3-.8.8-.8h4.3c.4 0 .8.3.8.8s-.4.8-.8.8z" class="B"/><path d="M22.7 117.3h4.1" class="C"/><path d="M26.8 118.1h-4.1c-.4 0-.8-.3-.8-.8 0-.4.3-.8.8-.8h4.1c.4 0 .8.3.8.8-.1.4-.4.8-.8.8z" class="B"/><path d="M14 120.5h.8" class="C"/><path d="M14.8 121.3H14c-.4 0-.8-.3-.8-.8s.3-.8.8-.8h.8c.4 0 .8.3.8.8s-.4.8-.8.8z" class="B"/><defs ><path id="B" d="M121.8 6.3c-.2 0-.4-.1-.5-.2-.3-.3-.3-.8 0-1.1l1.3-1.3c.3-.3.8-.3 1.1 0s.3.8 0 1.1l-1.3 1.3c-.2.1-.4.2-.6.2z"/><path id="C" d="M123.1 10.4c-.2 0-.4-.1-.5-.2l-1.3-1.3c-.3-.3-.3-.8 0-1.1s.8-.3 1.1 0l1.3 1.3c.3.3.3.8 0 1.1-.2.1-.4.2-.6.2z"/></defs></svg>