<?xml version="1.0" encoding="utf-8"?>
<!-- Generator: Adobe Illustrator 18.0.0, SVG Export Plug-In . SVG Version: 6.00 Build 0)  -->
<!DOCTYPE svg PUBLIC "-//W3C//DTD SVG 1.1//EN" "http://www.w3.org/Graphics/SVG/1.1/DTD/svg11.dtd">
<svg version="1.1" id="Layer_1" xmlns="http://www.w3.org/2000/svg" xmlns:xlink="http://www.w3.org/1999/xlink" x="0px" y="0px"
	 viewBox="0 0 129.5 129.5" enable-background="new 0 0 129.5 129.5" xml:space="preserve">
<g>
	<g>
		<g>
			<g>
				<path fill="#231F20" d="M60.8,19.9c-0.2,0-0.4-0.1-0.5-0.2c-0.3-0.3-0.3-0.8,0-1.1l1.3-1.3c0.3-0.3,0.8-0.3,1.1,0
					c0.3,0.3,0.3,0.8,0,1.1l-1.3,1.3C61.2,19.8,61,19.9,60.8,19.9z"/>
			</g>
			<g>
				<path fill="#231F20" d="M56.7,23.9c-0.2,0-0.4-0.1-0.5-0.2c-0.3-0.3-0.3-0.8,0-1.1l1.3-1.3c0.3-0.3,0.8-0.3,1.1,0
					c0.3,0.3,0.3,0.8,0,1.1l-1.3,1.3C57.1,23.9,56.9,23.9,56.7,23.9z"/>
			</g>
			<g>
				<path fill="#231F20" d="M62.1,23.9c-0.2,0-0.4-0.1-0.5-0.2l-1.3-1.3c-0.3-0.3-0.3-0.8,0-1.1c0.3-0.3,0.8-0.3,1.1,0l1.3,1.3
					c0.3,0.3,0.3,0.8,0,1.1C62.4,23.9,62.3,23.9,62.1,23.9z"/>
			</g>
			<g>
				<path fill="#231F20" d="M58,19.9c-0.2,0-0.4-0.1-0.5-0.2l-1.3-1.3c-0.3-0.3-0.3-0.8,0-1.1c0.3-0.3,0.8-0.3,1.1,0l1.3,1.3
					c0.3,0.3,0.3,0.8,0,1.1C58.4,19.8,58.2,19.9,58,19.9z"/>
			</g>
		</g>
		<g>
			<g>
				<path fill="#231F20" d="M93.7,104.8c-0.2,0-0.4-0.1-0.5-0.2c-0.3-0.3-0.3-0.8,0-1.1l1.3-1.3c0.3-0.3,0.8-0.3,1.1,0
					c0.3,0.3,0.3,0.8,0,1.1l-1.3,1.3C94.1,104.7,93.9,104.8,93.7,104.8z"/>
			</g>
			<g>
				<path fill="#231F20" d="M89.7,108.8c-0.2,0-0.4-0.1-0.5-0.2c-0.3-0.3-0.3-0.8,0-1.1l1.3-1.3c0.3-0.3,0.8-0.3,1.1,0
					c0.3,0.3,0.3,0.8,0,1.1l-1.3,1.3C90,108.7,89.8,108.8,89.7,108.8z"/>
			</g>
			<g>
				<path fill="#231F20" d="M95,108.8c-0.2,0-0.4-0.1-0.5-0.2l-1.3-1.3c-0.3-0.3-0.3-0.8,0-1.1s0.8-0.3,1.1,0l1.3,1.3
					c0.3,0.3,0.3,0.8,0,1.1C95.4,108.7,95.2,108.8,95,108.8z"/>
			</g>
			<g>
				<path fill="#231F20" d="M90.9,104.8c-0.2,0-0.4-0.1-0.5-0.2l-1.3-1.3c-0.3-0.3-0.3-0.8,0-1.1c0.3-0.3,0.8-0.3,1.1,0l1.3,1.3
					c0.3,0.3,0.3,0.8,0,1.1C91.3,104.7,91.1,104.8,90.9,104.8z"/>
			</g>
		</g>
		<g>
			<g>
				<path fill="#231F20" d="M41.6,104.8c-0.2,0-0.4-0.1-0.5-0.2c-0.3-0.3-0.3-0.8,0-1.1l1.3-1.3c0.3-0.3,0.8-0.3,1.1,0
					c0.3,0.3,0.3,0.8,0,1.1l-1.3,1.3C42,104.7,41.8,104.8,41.6,104.8z"/>
			</g>
			<g>
				<path fill="#231F20" d="M37.6,108.8c-0.2,0-0.4-0.1-0.5-0.2c-0.3-0.3-0.3-0.8,0-1.1l1.3-1.3c0.3-0.3,0.8-0.3,1.1,0
					c0.3,0.3,0.3,0.8,0,1.1l-1.3,1.3C38,108.7,37.8,108.8,37.6,108.8z"/>
			</g>
			<g>
				<path fill="#231F20" d="M42.9,108.8c-0.2,0-0.4-0.1-0.5-0.2l-1.3-1.3c-0.3-0.3-0.3-0.8,0-1.1c0.3-0.3,0.8-0.3,1.1,0l1.3,1.3
					c0.3,0.3,0.3,0.8,0,1.1C43.3,108.7,43.1,108.8,42.9,108.8z"/>
			</g>
			<g>
				<path fill="#231F20" d="M38.9,104.8c-0.2,0-0.4-0.1-0.5-0.2l-1.3-1.3c-0.3-0.3-0.3-0.8,0-1.1c0.3-0.3,0.8-0.3,1.1,0l1.3,1.3
					c0.3,0.3,0.3,0.8,0,1.1C39.3,104.7,39.1,104.8,38.9,104.8z"/>
			</g>
		</g>
		<g>
			<path fill="#231F20" d="M106.1,27.6c-0.1,0-0.1,0-0.2,0l-4.8-1.5c-1.7,1-3.7,1.5-5.7,1.5c-6.3,0-11.5-5.2-11.5-11.5
				S89,4.6,95.3,4.6c6.3,0,11.5,5.2,11.5,11.5c0,2-0.5,4-1.5,5.7l1.5,4.8c0.1,0.3,0,0.6-0.2,0.8C106.5,27.6,106.3,27.6,106.1,27.6z
				 M95.3,6.1c-5.5,0-10,4.5-10,10s4.5,10,10,10c1.8,0,3.6-0.5,5.2-1.5c0.2-0.1,0.4-0.1,0.6-0.1l3.8,1.2l-1.2-3.8
				c-0.1-0.2,0-0.4,0.1-0.6c1-1.6,1.5-3.4,1.5-5.2C105.3,10.6,100.8,6.1,95.3,6.1z"/>
		</g>
		<g>
			<path fill="#231F20" d="M20.5,29c-0.2,0-0.4-0.1-0.5-0.2c-0.2-0.2-0.3-0.5-0.2-0.8l1.5-4.8c-1-1.7-1.5-3.7-1.5-5.7
				C19.8,11.2,24.9,6,31.3,6c6.3,0,11.5,5.2,11.5,11.5c0,6.3-5.2,11.5-11.5,11.5c-2,0-4-0.5-5.7-1.5L20.8,29
				C20.7,29,20.6,29,20.5,29z M25.7,25.9c0.1,0,0.3,0,0.4,0.1c1.6,1,3.4,1.5,5.2,1.5c5.5,0,10-4.5,10-10c0-5.5-4.5-10-10-10
				c-5.5,0-10,4.5-10,10c0,1.8,0.5,3.6,1.5,5.2c0.1,0.2,0.1,0.4,0.1,0.6l-1.2,3.8l3.8-1.2C25.6,25.9,25.6,25.9,25.7,25.9z"/>
		</g>
		<g>
			<rect x="89.7" y="12.3" fill="#231F20" width="11.3" height="1.5"/>
		</g>
		<g>
			<rect x="89.7" y="15.4" fill="#231F20" width="11.3" height="1.5"/>
		</g>
		<g>
			<rect x="89.7" y="18.4" fill="#231F20" width="11.3" height="1.5"/>
		</g>
		<g>
			<rect x="25.6" y="13.7" fill="#231F20" width="11.3" height="1.5"/>
		</g>
		<g>
			<rect x="25.6" y="16.7" fill="#231F20" width="11.3" height="1.5"/>
		</g>
		<g>
			<rect x="25.6" y="19.8" fill="#231F20" width="11.3" height="1.5"/>
		</g>
		<polygon fill="#FFD05B" points="115.5,124.6 112.5,98.9 109.5,124.6 104,124.6 102.2,86.2 122.9,86.2 121,124.6 		"/>
		<polygon fill="#FF7058" points="61.7,124.6 64.7,98.9 67.8,124.6 73.3,124.6 75.1,86.2 54.4,86.2 56.2,124.6 		"/>
		<polygon fill="#E6E9EE" points="20,124.6 17,98.9 14,124.6 8.5,124.6 6.6,86.2 27.3,86.2 25.5,124.6 		"/>
		<g>
			<path fill="#231F20" d="M11.4,41.3c1.2,3.4,3.4,5.6,5.6,5.6c2.2,0,4.4-2.2,5.6-5.6c0.4-0.2,0.7-0.5,1-0.9
				c0.8-1.1,0.9-2.4,0.2-3.1c-0.1-0.1-0.2-0.2-0.4-0.3c0-0.1,0-0.2,0-0.2c0-4.1-2.3-6.5-6.4-6.5c-4.1,0-6.4,2.4-6.4,6.5
				c0,0.1,0,0.2,0,0.2c-0.1,0.1-0.3,0.2-0.4,0.3c-0.7,0.7-0.6,2,0.2,3.1C10.7,40.8,11,41.1,11.4,41.3z M11.9,38.3
				c0.2-0.2,0.3-0.4,0.3-0.6c0-0.3,0-0.6,0-0.8c0-4.1,2.7-5,4.9-5c2.2,0,4.9,0.9,4.9,5c0,0.3,0,0.5,0,0.8c0,0.2,0.1,0.5,0.3,0.6
				c0.2,0.1,0.4,0.2,0.6,0.2c0,0.2,0,0.6-0.4,1.1c-0.2,0.3-0.5,0.5-0.6,0.5c-0.2,0.1-0.4,0.3-0.5,0.5c-0.9,2.9-2.7,4.9-4.3,4.9
				c-1.6,0-3.3-2-4.3-4.9c-0.1-0.2-0.3-0.4-0.5-0.5c-0.1,0-0.4-0.2-0.6-0.5c-0.4-0.5-0.4-1-0.4-1.1C11.5,38.5,11.7,38.4,11.9,38.3z"
				/>
			<rect x="15.6" y="81.9" fill="#231F20" width="1" height="1.5"/>
			<rect x="18.6" y="81.9" fill="#231F20" width="1" height="1.5"/>
			<rect x="9.6" y="81.9" fill="#231F20" width="1" height="1.5"/>
			<rect x="12.6" y="81.9" fill="#231F20" width="1" height="1.5"/>
			<rect x="21.6" y="81.9" fill="#231F20" width="1" height="1.5"/>
			<path fill="#231F20" d="M27.4,49.5L24.2,49l-1-2.2l-1.4,0.6L23,50c0.1,0.2,0.3,0.4,0.6,0.4l3.6,0.6c3.1,0.7,5.3,3.4,5.3,6.6v4.7
				h-3.5v1.5h3.5v1.1h-4.4v-6.4h-1.5v26.9H7.4v-2h0.3v-1.5H7.4V58.5H5.9v6.4H1.5v-1.1H5v-1.5H1.5v-4.7c0-3.2,2.2-5.9,5.2-6.6
				l3.8-0.6c0.2,0,0.5-0.2,0.6-0.4l1.2-2.6l-1.4-0.6l-1,2.2l-3.5,0.5C2.7,50.4,0,53.7,0,57.6v8c0,0.4,0.3,0.8,0.8,0.8h0.9v17.3
				c0,0.2,0.1,0.4,0.3,0.6l4.1,3.5l1.7,36.1h-1c-2.7,0-4.9,2.2-4.9,4.9c0,0.4,0.3,0.8,0.8,0.8H14c0.4,0,0.8-0.3,0.8-0.8v-4.1
				l2.3-19.3c0,0,2.3,19.4,2.3,19.5v4c0,0.4,0.3,0.8,0.8,0.8h11.4c0.4,0,0.8-0.3,0.8-0.8c0-2.7-2.2-4.9-4.9-4.9h-1L28,87.8l4.1-3.5
				c0.2-0.1,0.3-0.4,0.3-0.6V66.4h0.9c0.4,0,0.8-0.3,0.8-0.8v-8C33.9,53.7,31.3,50.4,27.4,49.5z M5.9,85.7l-2.8-2.4v-17h2.8V85.7z
				 M13.2,128H3.4c0.3-1.5,1.7-2.6,3.3-2.6h6.5V128z M27.3,125.4c1.6,0,3,1.1,3.3,2.6h-9.8v-2.6H27.3z M24.8,123.9h-4.1l-2.9-25.1
				c0-0.4-0.4-0.7-0.7-0.7s-0.7,0.3-0.7,0.7l-2.9,25.1H9.2l-1.8-37h19.1L24.8,123.9z M30.8,83.4l-2.8,2.4V66.4h2.8V83.4z"/>
		</g>
		<g>
			<path fill="#231F20" d="M107,41.3c1.2,3.4,3.4,5.6,5.6,5.6c2.2,0,4.4-2.2,5.6-5.6c0.4-0.2,0.7-0.5,1-0.9c0.8-1.1,0.9-2.4,0.2-3.1
				c-0.1-0.1-0.2-0.2-0.4-0.3c0-0.1,0-0.2,0-0.2c0-4.1-2.3-6.5-6.4-6.5c-4.1,0-6.4,2.4-6.4,6.5c0,0.1,0,0.2,0,0.2
				c-0.1,0.1-0.3,0.2-0.4,0.3c-0.7,0.7-0.6,2,0.2,3.1C106.3,40.8,106.6,41.1,107,41.3z M107.5,38.3c0.2-0.2,0.3-0.4,0.3-0.6
				c0-0.3,0-0.6,0-0.8c0-4.1,2.7-5,4.9-5c2.2,0,4.9,0.9,4.9,5c0,0.3,0,0.5,0,0.8c0,0.2,0.1,0.5,0.3,0.6c0.2,0.1,0.4,0.2,0.6,0.2
				c0,0.2,0,0.6-0.4,1.1c-0.2,0.3-0.5,0.5-0.6,0.5c-0.2,0.1-0.4,0.3-0.5,0.5c-0.9,2.9-2.7,4.9-4.3,4.9c-1.6,0-3.3-2-4.3-4.9
				c-0.1-0.2-0.3-0.4-0.5-0.5c-0.1,0-0.4-0.2-0.6-0.5c-0.4-0.5-0.4-1-0.4-1.1C107,38.5,107.3,38.4,107.5,38.3z"/>
			<rect x="111.2" y="81.9" fill="#231F20" width="1" height="1.5"/>
			<rect x="114.2" y="81.9" fill="#231F20" width="1" height="1.5"/>
			<rect x="105.2" y="81.9" fill="#231F20" width="1" height="1.5"/>
			<rect x="108.2" y="81.9" fill="#231F20" width="1" height="1.5"/>
			<rect x="117.2" y="81.9" fill="#231F20" width="1" height="1.5"/>
			<path fill="#231F20" d="M123,49.5l-3.2-0.5l-1-2.2l-1.4,0.6l1.2,2.6c0.1,0.2,0.3,0.4,0.6,0.4l3.6,0.6c3.1,0.7,5.3,3.4,5.3,6.6
				v4.7h-3.5v1.5h3.5v1.1h-4.4v-6.4h-1.5v26.9h-19.2v-2h0.3v-1.5h-0.3V58.5h-1.5v6.4h-4.4v-1.1h3.5v-1.5h-3.5v-4.7
				c0-3.2,2.2-5.9,5.2-6.6l3.8-0.6c0.2,0,0.5-0.2,0.6-0.4l1.2-2.6l-1.4-0.6l-1,2.2l-3.5,0.5c-3.8,0.8-6.5,4.2-6.5,8.1v8
				c0,0.4,0.3,0.8,0.8,0.8h0.9v17.3c0,0.2,0.1,0.4,0.3,0.6l4.1,3.5l1.7,36.1h-1c-2.7,0-4.9,2.2-4.9,4.9c0,0.4,0.3,0.8,0.8,0.8h11.4
				c0.4,0,0.8-0.3,0.8-0.8v-4.1l2.3-19.3c0,0,2.3,19.4,2.3,19.5v4c0,0.4,0.3,0.8,0.8,0.8H127c0.4,0,0.8-0.3,0.8-0.8
				c0-2.7-2.2-4.9-4.9-4.9h-1l1.7-36.1l4.1-3.5c0.2-0.1,0.3-0.4,0.3-0.6V66.4h0.9c0.4,0,0.8-0.3,0.8-0.8v-8
				C129.5,53.7,126.8,50.4,123,49.5z M101.4,85.7l-2.8-2.4v-17h2.8V85.7z M108.8,128H99c0.3-1.5,1.7-2.6,3.3-2.6h6.5V128z
				 M122.8,125.4c1.6,0,3,1.1,3.3,2.6h-9.8v-2.6H122.8z M120.3,123.9h-4.1l-2.9-25.1c0-0.4-0.4-0.7-0.7-0.7c-0.4,0-0.7,0.3-0.7,0.7
				l-2.9,25.1h-4.1l-1.8-37h19.1L120.3,123.9z M126.4,83.4l-2.8,2.4V66.4h2.8V83.4z"/>
		</g>
		<g>
			<path fill="#231F20" d="M59.2,41.3c1.2,3.4,3.4,5.6,5.6,5.6c2.2,0,4.4-2.2,5.6-5.6c0.4-0.2,0.7-0.5,1-0.9
				c0.8-1.1,0.9-2.4,0.2-3.1c-0.1-0.1-0.2-0.2-0.4-0.3c0-0.1,0-0.2,0-0.2c0-4.1-2.3-6.5-6.4-6.5c-4.1,0-6.4,2.4-6.4,6.5
				c0,0.1,0,0.2,0,0.2c-0.1,0.1-0.3,0.2-0.4,0.3c-0.7,0.7-0.6,2,0.2,3.1C58.5,40.8,58.8,41.1,59.2,41.3z M59.7,38.3
				c0.2-0.2,0.3-0.4,0.3-0.6c0-0.3,0-0.6,0-0.8c0-4.1,2.7-5,4.9-5c2.2,0,4.9,0.9,4.9,5c0,0.3,0,0.5,0,0.8c0,0.2,0.1,0.5,0.3,0.6
				c0.2,0.1,0.4,0.2,0.6,0.2c0,0.2,0,0.6-0.4,1.1c-0.2,0.3-0.5,0.5-0.6,0.5c-0.2,0.1-0.4,0.3-0.5,0.5c-0.9,2.9-2.7,4.9-4.3,4.9
				c-1.6,0-3.3-2-4.3-4.9c-0.1-0.2-0.3-0.4-0.5-0.5c-0.1,0-0.4-0.2-0.6-0.5C59,39,59,38.5,59,38.4C59.3,38.5,59.5,38.4,59.7,38.3z"
				/>
			<rect x="63.4" y="81.9" fill="#231F20" width="1" height="1.5"/>
			<rect x="66.4" y="81.9" fill="#231F20" width="1" height="1.5"/>
			<rect x="57.4" y="81.9" fill="#231F20" width="1" height="1.5"/>
			<rect x="60.4" y="81.9" fill="#231F20" width="1" height="1.5"/>
			<rect x="69.4" y="81.9" fill="#231F20" width="1" height="1.5"/>
			<path fill="#231F20" d="M75.2,49.5L72,49l-1-2.2l-1.4,0.6l1.2,2.6c0.1,0.2,0.3,0.4,0.6,0.4l3.6,0.6c3.1,0.7,5.3,3.4,5.3,6.6v4.7
				h-3.5v1.5h3.5v1.1h-4.4v-6.4h-1.5v26.9H55.2v-2h0.3v-1.5h-0.3V58.5h-1.5v6.4h-4.4v-1.1h3.5v-1.5h-3.5v-4.7c0-3.2,2.2-5.9,5.2-6.6
				l3.8-0.6c0.2,0,0.5-0.2,0.6-0.4l1.2-2.6l-1.4-0.6l-1,2.2l-3.5,0.5c-3.8,0.8-6.5,4.2-6.5,8.1v8c0,0.4,0.3,0.8,0.8,0.8h0.9v17.3
				c0,0.2,0.1,0.4,0.3,0.6l4.1,3.5l1.7,36.1h-1c-2.7,0-4.9,2.2-4.9,4.9c0,0.4,0.3,0.8,0.8,0.8h11.4c0.4,0,0.8-0.3,0.8-0.8v-4.1
				l2.3-19.3c0,0,2.3,19.4,2.3,19.5v4c0,0.4,0.3,0.8,0.8,0.8h11.4c0.4,0,0.8-0.3,0.8-0.8c0-2.7-2.2-4.9-4.9-4.9h-1l1.7-36.1l4.1-3.5
				c0.2-0.1,0.3-0.4,0.3-0.6V66.4H81c0.4,0,0.8-0.3,0.8-0.8v-8C81.7,53.7,79.1,50.4,75.2,49.5z M53.7,85.7l-2.8-2.4v-17h2.8V85.7z
				 M61,128h-9.8c0.3-1.5,1.7-2.6,3.3-2.6H61V128z M75,125.4c1.6,0,3,1.1,3.3,2.6h-9.8v-2.6H75z M72.5,123.9h-4.1l-2.9-25.1
				c0-0.4-0.4-0.7-0.7-0.7c-0.4,0-0.7,0.3-0.7,0.7l-2.9,25.1H57l-1.8-37h19.1L72.5,123.9z M78.6,83.4l-2.8,2.4V66.4h2.8V83.4z"/>
		</g>
		<g>
			<path fill="#231F20" d="M102.4,37.1h-1v-1.5h1V37.1z M99.4,37.1h-1v-1.5h1V37.1z M96.4,37.1h-1v-1.5h1V37.1z M93.4,37.1h-1v-1.5
				h1V37.1z M90.4,37.1h-1v-1.5h1V37.1z M87.4,37.1h-1v-1.5h1V37.1z M84.4,37.1h-1v-1.5h1V37.1z M81.4,37.1h-1v-1.5h1V37.1z
				 M78.4,37.1h-1v-1.5h1V37.1z M75.4,37.1H75v-1.5h0.4V37.1z"/>
		</g>
		<g>
			<path fill="#231F20" d="M54,37.1h-1v-1.5h1V37.1z M51,37.1h-1v-1.5h1V37.1z M48,37.1h-1v-1.5h1V37.1z M45,37.1h-1v-1.5h1V37.1z
				 M42,37.1h-1v-1.5h1V37.1z M39,37.1h-1v-1.5h1V37.1z M36,37.1h-1v-1.5h1V37.1z M33,37.1h-1v-1.5h1V37.1z M30,37.1h-1v-1.5h1V37.1
				z M27,37.1h-0.5v-1.5H27V37.1z"/>
		</g>
		<g>
			<path fill="#231F20" d="M123.3,36.5h-0.4V35h0.4V36.5z M4.3,36.5c-0.4,0-0.8-0.1-1.2-0.2l0.4-1.4C3.7,35,4,35,4.3,35V36.5z
				 M125.3,36.5l0-1.5c0.3,0,0.5,0,0.8-0.1l0.4,1.4C126.1,36.5,125.7,36.5,125.3,36.5z M1,35.1c-0.3-0.3-0.5-0.6-0.7-1l1.4-0.6
				c0.1,0.2,0.3,0.5,0.4,0.7L1,35.1z M128.5,35l-1.1-1c0.2-0.2,0.3-0.4,0.4-0.7l1.4,0.6C129,34.4,128.8,34.7,128.5,35z M1.5,31.8H0
				v-1h1.5V31.8z M129.5,31.7H128v-1h1.5V31.7z M1.5,28.8H0v-1h1.5V28.8z M129.5,28.7H128v-1h1.5V28.7z M1.5,25.8H0v-1h1.5V25.8z
				 M129.5,25.7H128v-1h1.5V25.7z M1.5,22.8H0v-1h1.5V22.8z M129.5,22.7H128v-1h1.5V22.7z M1.5,19.8H0v-1h1.5V19.8z M129.5,19.7H128
				v-1h1.5V19.7z M1.5,16.8H0v-1h1.5V16.8z M129.5,16.7H128v-1h1.5V16.7z M1.5,13.8H0v-1h1.5V13.8z M129.5,13.7H128v-1h1.5V13.7z
				 M1.5,10.8H0v-1h1.5V10.8z M129.5,10.7H128v-1h1.5V10.7z M1.5,7.8H0v-1h1.5V7.8z M129.5,7.7H128v-1h1.5V7.7z M1.5,4.8H0V4.3
				c0-0.2,0-0.4,0-0.6l1.5,0.2c0,0.1,0,0.2,0,0.4V4.8z M129.5,4.7H128V4.3c0-0.1,0-0.3,0-0.4l1.5-0.2c0,0.2,0,0.4,0,0.6V4.7z
				 M2.2,2.5L1,1.5c0.3-0.3,0.6-0.6,0.9-0.8l0.8,1.3C2.5,2.1,2.3,2.3,2.2,2.5z M127.3,2.4c-0.2-0.2-0.4-0.4-0.6-0.5l0.8-1.3
				c0.3,0.2,0.7,0.5,0.9,0.8L127.3,2.4z M125.2,1.5h-1V0h1V1.5z M122.2,1.5h-1V0h1V1.5z M119.2,1.5h-1V0h1V1.5z M116.2,1.5h-1V0h1
				V1.5z M113.2,1.5h-1V0h1V1.5z M110.2,1.5h-1V0h1V1.5z M107.2,1.5h-1V0h1V1.5z M104.2,1.5h-1V0h1V1.5z M101.2,1.5h-1V0h1V1.5z
				 M98.2,1.5h-1V0h1V1.5z M95.2,1.5h-1V0h1V1.5z M92.2,1.5h-1V0h1V1.5z M89.2,1.5h-1V0h1V1.5z M86.2,1.5h-1V0h1V1.5z M83.2,1.5h-1
				V0h1V1.5z M80.2,1.5h-1V0h1V1.5z M77.2,1.5h-1V0h1V1.5z M74.2,1.5h-1V0h1V1.5z M71.2,1.5h-1V0h1V1.5z M68.2,1.5h-1V0h1V1.5z
				 M65.2,1.5h-1V0h1V1.5z M62.2,1.5h-1V0h1V1.5z M59.2,1.5h-1V0h1V1.5z M56.2,1.5h-1V0h1V1.5z M53.2,1.5h-1V0h1V1.5z M50.2,1.5h-1
				V0h1V1.5z M47.2,1.5h-1V0h1V1.5z M44.2,1.5h-1V0h1V1.5z M41.2,1.5h-1V0h1V1.5z M38.2,1.5h-1V0h1V1.5z M35.2,1.5h-1V0h1V1.5z
				 M32.2,1.5h-1V0h1V1.5z M29.2,1.5h-1V0h1V1.5z M26.2,1.5h-1V0h1V1.5z M23.2,1.5h-1V0h1V1.5z M20.2,1.5h-1V0h1V1.5z M17.2,1.5h-1
				V0h1V1.5z M14.2,1.5h-1V0h1V1.5z M11.2,1.5h-1V0h1V1.5z M8.2,1.5h-1V0h1V1.5z M5.2,1.5h-1l0-1.5h1V1.5z"/>
		</g>
		<g>
			<circle fill="#FF7058" cx="73.5" cy="9.3" r="1.7"/>
		</g>
		<g>
			<circle fill="#FFD05B" cx="119" cy="21.9" r="1.7"/>
		</g>
		<g>
			<circle fill="#84DBFF" cx="85.8" cy="95" r="2"/>
		</g>
		<g>
			<circle fill="#E6E9EE" cx="34.3" cy="88.3" r="1.9"/>
		</g>
		<g>
			<circle fill="#84DBFF" cx="8.3" cy="26.9" r="1.7"/>
		</g>
	</g>
</g>
</svg>
