<?xml version="1.0" encoding="utf-8"?>
<!-- Generator: Adobe Illustrator 18.0.0, SVG Export Plug-In . SVG Version: 6.00 Build 0)  -->
<!DOCTYPE svg PUBLIC "-//W3C//DTD SVG 1.1//EN" "http://www.w3.org/Graphics/SVG/1.1/DTD/svg11.dtd">
<svg version="1.1" id="Layer_1" xmlns="http://www.w3.org/2000/svg" xmlns:xlink="http://www.w3.org/1999/xlink" x="0px" y="0px"
	 viewBox="0 0 129.5 129.5" enable-background="new 0 0 129.5 129.5" xml:space="preserve">
<g>
	<g>
		<path fill="#231F20" d="M89.1,118.6c-0.2,0-0.4-0.1-0.5-0.2c-0.3-0.3-0.3-0.8,0-1.1l1.3-1.3c0.3-0.3,0.8-0.3,1.1,0
			c0.3,0.3,0.3,0.8,0,1.1l-1.3,1.3C89.5,118.5,89.3,118.6,89.1,118.6z"/>
		<path fill="#231F20" d="M85.1,122.6c-0.2,0-0.4-0.1-0.5-0.2c-0.3-0.3-0.3-0.8,0-1.1l1.3-1.3c0.3-0.3,0.8-0.3,1.1,0
			c0.3,0.3,0.3,0.8,0,1.1l-1.3,1.3C85.5,122.6,85.3,122.6,85.1,122.6z"/>
		<path fill="#231F20" d="M90.4,122.6c-0.2,0-0.4-0.1-0.5-0.2l-1.3-1.3c-0.3-0.3-0.3-0.8,0-1.1c0.3-0.3,0.8-0.3,1.1,0l1.3,1.3
			c0.3,0.3,0.3,0.8,0,1.1C90.8,122.6,90.6,122.6,90.4,122.6z"/>
		<path fill="#231F20" d="M86.4,118.6c-0.2,0-0.4-0.1-0.5-0.2l-1.3-1.3c-0.3-0.3-0.3-0.8,0-1.1c0.3-0.3,0.8-0.3,1.1,0l1.3,1.3
			c0.3,0.3,0.3,0.8,0,1.1C86.8,118.5,86.6,118.6,86.4,118.6z"/>
		<path fill="#231F20" d="M52.8,16.8c-0.2,0-0.4-0.1-0.5-0.2c-0.3-0.3-0.3-0.8,0-1.1l1.3-1.3c0.3-0.3,0.8-0.3,1.1,0
			c0.3,0.3,0.3,0.8,0,1.1l-1.3,1.3C53.2,16.8,53,16.8,52.8,16.8z"/>
		<path fill="#231F20" d="M48.8,20.9c-0.2,0-0.4-0.1-0.5-0.2c-0.3-0.3-0.3-0.8,0-1.1l1.3-1.3c0.3-0.3,0.8-0.3,1.1,0
			c0.3,0.3,0.3,0.8,0,1.1l-1.3,1.3C49.1,20.8,49,20.9,48.8,20.9z"/>
		<path fill="#231F20" d="M54.1,20.9c-0.2,0-0.4-0.1-0.5-0.2l-1.3-1.3c-0.3-0.3-0.3-0.8,0-1.1c0.3-0.3,0.8-0.3,1.1,0l1.3,1.3
			c0.3,0.3,0.3,0.8,0,1.1C54.5,20.8,54.3,20.9,54.1,20.9z"/>
		<path fill="#231F20" d="M50,16.8c-0.2,0-0.4-0.1-0.5-0.2l-1.3-1.3c-0.3-0.3-0.3-0.8,0-1.1c0.3-0.3,0.8-0.3,1.1,0l1.3,1.3
			c0.3,0.3,0.3,0.8,0,1.1C50.4,16.8,50.2,16.8,50,16.8z"/>
		<path fill="#FFFFFF" d="M87.2,33.5c-1.3-3.4-1.6-7.1-0.7-10.9C88.8,12.2,99,5.8,109.4,8.1c10.3,2.3,16.8,12.6,14.5,22.9
			c-2.3,10.3-12.6,16.8-22.9,14.5c-3.8-0.9-7-2.8-9.5-5.3l-9.2,1.1L87.2,33.5z"/>
		<path fill="#231F20" d="M105.2,46.7c-1.5,0-3-0.2-4.4-0.5c-3.7-0.8-7-2.7-9.6-5.3L82.3,42c-0.3,0-0.6-0.1-0.7-0.3
			c-0.2-0.2-0.2-0.6,0-0.8l4.8-7.5c-1.2-3.5-1.5-7.3-0.6-11c2.1-9.1,10-15.5,19.4-15.5c1.5,0,3,0.2,4.4,0.5
			c5.2,1.2,9.6,4.3,12.4,8.8c2.8,4.5,3.8,9.8,2.6,15C122.5,40.3,114.5,46.7,105.2,46.7z M91.4,39.4c0.2,0,0.4,0.1,0.5,0.2
			c2.5,2.6,5.7,4.3,9.2,5.1c1.3,0.3,2.7,0.5,4.1,0.5c8.5,0,16.1-6,17.9-14.4c1.1-4.8,0.2-9.7-2.4-13.9c-2.6-4.2-6.7-7-11.5-8.1
			c-1.3-0.3-2.7-0.5-4.1-0.5c-8.5,0-16.1,6-17.9,14.4c-0.8,3.5-0.5,7.1,0.7,10.5c0.1,0.2,0.1,0.5-0.1,0.7l-4.1,6.4L91.4,39.4
			C91.3,39.4,91.4,39.4,91.4,39.4z"/>
		<path fill="#FF7058" d="M105,37.6c-2.4-1.1-10.3-5.3-10.3-13.8c0-2.8,2.3-5.1,5.1-5.1c1.4,0,2.8,0.6,3.8,1.7L105,22l1.4-1.6
			c1-1.1,2.4-1.7,3.8-1.7c2.8,0,5.1,2.3,5.1,5.1C115.4,32.3,107.4,36.6,105,37.6z"/>
		<line fill="#FFFFFF" x1="63.6" y1="27.4" x2="71.7" y2="27.4"/>
		<path fill="#231F20" d="M71.7,28.2h-8.1c-0.4,0-0.8-0.3-0.8-0.8c0-0.4,0.3-0.8,0.8-0.8h8.1c0.4,0,0.8,0.3,0.8,0.8
			C72.4,27.9,72.1,28.2,71.7,28.2z"/>
		<line fill="#FFFFFF" x1="70.9" y1="30.4" x2="74.8" y2="30.4"/>
		<path fill="#231F20" d="M74.8,31.1h-4c-0.4,0-0.8-0.3-0.8-0.8c0-0.4,0.3-0.8,0.8-0.8h4c0.4,0,0.8,0.3,0.8,0.8
			C75.6,30.8,75.2,31.1,74.8,31.1z"/>
		<line fill="#FFFFFF" x1="75.3" y1="27.4" x2="79.1" y2="27.4"/>
		<path fill="#231F20" d="M79.1,28.2h-3.8c-0.4,0-0.8-0.3-0.8-0.8c0-0.4,0.3-0.8,0.8-0.8h3.8c0.4,0,0.8,0.3,0.8,0.8
			C79.8,27.9,79.5,28.2,79.1,28.2z"/>
		<line fill="#FFFFFF" x1="67.2" y1="30.4" x2="68" y2="30.4"/>
		<path fill="#231F20" d="M68,31.1h-0.8c-0.4,0-0.8-0.3-0.8-0.8c0-0.4,0.3-0.8,0.8-0.8H68c0.4,0,0.8,0.3,0.8,0.8
			C68.7,30.8,68.4,31.1,68,31.1z"/>
		<line fill="#FFFFFF" x1="28.9" y1="117.8" x2="37" y2="117.8"/>
		<path fill="#231F20" d="M37,118.5h-8.1c-0.4,0-0.8-0.3-0.8-0.8s0.3-0.8,0.8-0.8H37c0.4,0,0.8,0.3,0.8,0.8S37.4,118.5,37,118.5z"/>
		<line fill="#FFFFFF" x1="36.2" y1="120.7" x2="40.1" y2="120.7"/>
		<path fill="#231F20" d="M40.1,121.5h-4c-0.4,0-0.8-0.3-0.8-0.8c0-0.4,0.3-0.8,0.8-0.8h4c0.4,0,0.8,0.3,0.8,0.8
			C40.9,121.1,40.6,121.5,40.1,121.5z"/>
		<line fill="#FFFFFF" x1="40.6" y1="117.8" x2="44.4" y2="117.8"/>
		<path fill="#231F20" d="M44.4,118.5h-3.8c-0.4,0-0.8-0.3-0.8-0.8s0.3-0.8,0.8-0.8h3.8c0.4,0,0.8,0.3,0.8,0.8
			S44.8,118.5,44.4,118.5z"/>
		<line fill="#FFFFFF" x1="32.5" y1="120.7" x2="33.3" y2="120.7"/>
		<path fill="#231F20" d="M33.3,121.5h-0.8c-0.4,0-0.8-0.3-0.8-0.8c0-0.4,0.3-0.8,0.8-0.8h0.8c0.4,0,0.8,0.3,0.8,0.8
			C34,121.1,33.7,121.5,33.3,121.5z"/>
		<circle fill="#84DBFF" cx="104.8" cy="81.9" r="17.5"/>
		<circle fill="#84DBFF" cx="24.7" cy="81.9" r="17.5"/>
		<path fill="#FFFFFF" d="M64.7,51.1L64.7,51.1c-6.7,0-12.2,5.4-12.2,12.2c0,6.7,5.4,12.2,12.2,12.2l0,0c6.7,0,12.2-5.4,12.2-12.2
			C76.9,56.5,71.5,51.1,64.7,51.1z"/>
		<path fill="#231F20" d="M116.9,60.3c-6.4-3.6-17.4-6.1-26.8-6.1c-5.8,0-10.6,0.9-14.2,2.7c-2.2-3.9-6.4-6.5-11.2-6.5
			c-4.8,0-9,2.6-11.2,6.5c-3.6-1.7-8.4-2.6-14.2-2.6c-9.4,0-20.4,2.5-26.8,6.1C0.7,67.1-3.5,82.2,3.2,94
			c4.4,7.7,12.6,12.6,21.5,12.6h0c4.2,0,8.4-1.1,12.1-3.2c0.4-0.2,0.9-0.5,1.3-0.8c8-5.1,18.3-16.8,21.8-27.4
			c1.5,0.6,3.1,0.9,4.8,0.9c1.7,0,3.3-0.3,4.8-0.9c3.5,10.6,13.8,22.3,21.8,27.4c0.4,0.3,0.8,0.5,1.3,0.8c3.7,2.1,7.9,3.2,12.1,3.2
			c8.9,0,17.2-4.8,21.5-12.6C133,82.2,128.8,67.1,116.9,60.3z M24.8,105.1c-8.4,0-16.1-4.5-20.2-11.8C-1.8,82.2,2.2,68,13.3,61.7
			c3.5-2,7.4-3,11.4-3c8.4,0,16.1,4.5,20.2,11.8c6.1,10.7,2.6,24.3-7.6,30.9c-0.4,0.3-0.8,0.5-1.2,0.8
			C32.7,104.1,28.7,105.1,24.8,105.1z M46.5,93.5c3.8-7.2,4-16.2-0.3-23.8c-4.2-7.3-11.8-12-20.2-12.5c4.3-0.9,9-1.5,13.2-1.5
			c5.6,0,10.1,0.9,13.5,2.5c-0.7,1.6-1,3.3-1,5.1c0,4.9,2.7,9.1,6.7,11.3C56.5,81,51.7,88,46.5,93.5z M64.7,74.7
			c-6.3,0-11.4-5.1-11.4-11.4s5.1-11.4,11.4-11.4S76.2,57,76.2,63.3S71,74.7,64.7,74.7z M70.9,74.6c4-2.2,6.7-6.5,6.7-11.3
			c0-1.8-0.4-3.5-1-5c3.4-1.6,8-2.5,13.5-2.5c4.3,0,8.9,0.5,13.2,1.5c-8.4,0.5-16,5.2-20.2,12.5c-4.3,7.6-4.1,16.6-0.3,23.8
			C77.8,88,73,81,70.9,74.6z M125,93.3c-4.1,7.3-11.9,11.8-20.2,11.8c-4,0-7.9-1-11.4-3c-0.4-0.2-0.8-0.5-1.2-0.8
			c-10.2-6.6-13.6-20.2-7.6-30.9c4.1-7.3,11.9-11.8,20.2-11.8c3.3,0,6.5,0.7,9.5,2c0,0,0,0,0,0c0.7,0.3,1.3,0.6,2,1
			C127.3,68,131.3,82.2,125,93.3z"/>
		<path fill="#E6E9EE" d="M64.7,56.7L64.7,56.7c-3.6,0-6.6,2.9-6.6,6.6c0,3.6,2.9,6.6,6.6,6.6l0,0c3.6,0,6.6-2.9,6.6-6.6
			C71.3,59.6,68.4,56.7,64.7,56.7z"/>
		<g>
			<circle fill="#FFFFFF" cx="32" cy="36.1" r="12.4"/>
			<g>
				<circle fill="#FF7058" cx="32" cy="36.1" r="3.4"/>
			</g>
			<path fill="#231F20" d="M41.3,26.9c-4.9-4.9-12.9-5.1-18-0.5l-2.8-2.8l0.5-3.8c0-0.2,0-0.5-0.2-0.6l-4.8-4.8
				c-0.2-0.2-0.5-0.3-0.8-0.2c-0.3,0.1-0.5,0.3-0.5,0.6l-0.5,3.6l-3.6,0.5c-0.3,0-0.5,0.2-0.6,0.5c-0.1,0.3,0,0.6,0.2,0.8l4.8,4.8
				c0.2,0.2,0.4,0.2,0.6,0.2l3.8-0.5l2.8,2.8c-4.6,5.1-4.4,13.1,0.5,18c5.1,5.1,13.4,5.1,18.6,0C46.4,40.3,46.4,32,41.3,26.9z
				 M15.9,16.4l3.5,3.5l-0.3,2.3l-3.5-3.5L15.9,16.4z M15.7,23.6l-3.5-3.5l2.3-0.3l3.5,3.5L15.7,23.6z M40.2,44.4
				c-4.5,4.5-11.9,4.5-16.4,0C19.4,40,19.2,33,23.3,28.5l1.3,1.3c-3.3,3.9-3.2,9.7,0.5,13.4c3.8,3.8,10.1,3.8,13.9,0
				c3.8-3.8,3.8-10.1,0-13.9c-3.7-3.7-9.5-3.8-13.4-0.5l-1.3-1.3c4.6-4,11.5-3.9,15.9,0.5C44.7,32.5,44.7,39.8,40.2,44.4z M26.8,32
				c-2.1,2.6-1.9,6.4,0.5,8.8c2.6,2.6,6.8,2.6,9.4,0c2.6-2.6,2.6-6.8,0-9.4c-2.4-2.4-6.2-2.6-8.8-0.5l-1.2-1.2
				c3.3-2.7,8.2-2.6,11.2,0.5c3.3,3.3,3.3,8.5,0,11.8c-3.3,3.3-8.5,3.3-11.8,0c-3.1-3.1-3.2-8-0.5-11.2L26.8,32z M31.4,36.7
				c0.3,0.3,0.8,0.3,1.1,0c0.3-0.3,0.3-0.8,0-1.1L28.9,32c2-1.5,4.9-1.4,6.7,0.5c2,2,2,5.3,0,7.3c-2,2-5.3,2-7.3,0
				c-1.8-1.8-2-4.7-0.5-6.7L31.4,36.7z"/>
		</g>
	</g>
</g>
</svg>
