<?xml version="1.0" encoding="UTF-8" standalone="no"?>
<!-- Created with Inkscape (http://www.inkscape.org/) -->

<svg
   xmlns:dc="http://purl.org/dc/elements/1.1/"
   xmlns:cc="http://creativecommons.org/ns#"
   xmlns:rdf="http://www.w3.org/1999/02/22-rdf-syntax-ns#"
   xmlns:svg="http://www.w3.org/2000/svg"
   xmlns="http://www.w3.org/2000/svg"
   xmlns:sodipodi="http://sodipodi.sourceforge.net/DTD/sodipodi-0.dtd"
   xmlns:inkscape="http://www.inkscape.org/namespaces/inkscape"
   width="216"
   height="100"
   viewBox="0 0 57.149999 26.458334"
   version="1.1"
   id="svg1396"
   inkscape:version="0.92.3 (2405546, 2018-03-11)"
   sodipodi:docname="blog-improves-productivity.svg">
  <defs
     id="defs1390" />
  <sodipodi:namedview
     id="base"
     pagecolor="#ffffff"
     bordercolor="#666666"
     borderopacity="1.0"
     inkscape:pageopacity="0.0"
     inkscape:pageshadow="2"
     inkscape:zoom="0.98994949"
     inkscape:cx="-40.53525"
     inkscape:cy="205.54607"
     inkscape:document-units="mm"
     inkscape:current-layer="layer1"
     showgrid="false"
     units="px"
     inkscape:window-width="1366"
     inkscape:window-height="705"
     inkscape:window-x="-8"
     inkscape:window-y="-8"
     inkscape:window-maximized="1" />
  <metadata
     id="metadata1393">
    <rdf:RDF>
      <cc:Work
         rdf:about="">
        <dc:format>image/svg+xml</dc:format>
        <dc:type
           rdf:resource="http://purl.org/dc/dcmitype/StillImage" />
        <dc:title></dc:title>
      </cc:Work>
    </rdf:RDF>
  </metadata>
  <g
     inkscape:label="Layer 1"
     inkscape:groupmode="layer"
     id="layer1"
     transform="translate(0,-270.54165)">
    <g
       transform="matrix(0.26458333,0,0,0.26458333,-5.2916666,186.20571)"
       id="XMLID_339_">
      <path
         id="XMLID_137_"
         d="m 226.1,338.5 v 0 c 0,6.3 -5.1,11.5 -11.5,11.5 h -26.8 v 0 c 0,8.8 -7.1,15.9 -15.9,15.9 h -22.1 c -4.9,0 -8.9,4 -8.9,8.9 v 0 c 0,4.9 4,8.9 8.9,8.9 h 76.6 c 5.1,0 9.3,4.2 9.3,9.3 v 0 c 0,5.1 -4.2,9.3 -9.3,9.3 h -49.9 c -7.9,0 -14.4,6.4 -14.3,14.4 v 0 l -97,0.2 0.3,-17 H 31.1 C 25,399.9 20,394.9 20,388.8 v 0 c 0,-6.1 5,-11.1 11.1,-11.1 h 26.7 c 5.7,0 10.2,-4.6 10.2,-10.2 v 0 c 0,-5.7 -4.6,-10.2 -10.2,-10.2 h -2.5 c -8.3,0 -15,-6.7 -15,-15 v 0 c 0,-8.3 6.7,-15 15,-15 h 159.3 c 6.4,-0.3 11.5,4.8 11.5,11.2 z"
         inkscape:connector-curvature="0"
         style="fill:#e4e8ee" />
      <g
         id="XMLID_184_">
        <line
           id="XMLID_186_"
           stroke-miterlimit="10"
           x1="102.6"
           y1="338.10001"
           x2="106.8"
           y2="338.10001"
           style="fill:none;stroke:#414042;stroke-width:1.5;stroke-linecap:round;stroke-miterlimit:10" />
        <line
           id="XMLID_185_"
           stroke-miterlimit="10"
           x1="104.7"
           y1="340.20001"
           x2="104.7"
           y2="335.89999"
           style="fill:none;stroke:#414042;stroke-width:1.5;stroke-linecap:round;stroke-miterlimit:10" />
      </g>
      <g
         id="XMLID_286_">
        <line
           id="XMLID_303_"
           stroke-miterlimit="10"
           x1="204.7"
           y1="369.5"
           x2="209"
           y2="369.5"
           style="fill:none;stroke:#414042;stroke-width:1.5;stroke-linecap:round;stroke-miterlimit:10" />
        <line
           id="XMLID_301_"
           stroke-miterlimit="10"
           x1="206.8"
           y1="371.60001"
           x2="206.8"
           y2="367.29999"
           style="fill:none;stroke:#414042;stroke-width:1.5;stroke-linecap:round;stroke-miterlimit:10" />
      </g>
      <g
         id="XMLID_133_">
        <line
           id="XMLID_138_"
           stroke-miterlimit="10"
           x1="143.2"
           y1="323.79999"
           x2="146.2"
           y2="320.79999"
           style="fill:none;stroke:#414042;stroke-width:1.5;stroke-linecap:round;stroke-miterlimit:10" />
        <line
           id="XMLID_136_"
           stroke-miterlimit="10"
           x1="146.2"
           y1="323.79999"
           x2="143.2"
           y2="320.79999"
           style="fill:none;stroke:#414042;stroke-width:1.5;stroke-linecap:round;stroke-miterlimit:10" />
      </g>
      <g
         id="XMLID_307_">
        <line
           id="XMLID_309_"
           stroke-miterlimit="10"
           x1="71"
           y1="360.20001"
           x2="74"
           y2="357.20001"
           style="fill:none;stroke:#414042;stroke-width:1.5;stroke-linecap:round;stroke-miterlimit:10" />
        <line
           id="XMLID_308_"
           stroke-miterlimit="10"
           x1="74"
           y1="360.20001"
           x2="71"
           y2="357.20001"
           style="fill:none;stroke:#414042;stroke-width:1.5;stroke-linecap:round;stroke-miterlimit:10" />
      </g>
      <line
         id="XMLID_135_"
         stroke-miterlimit="10"
         x1="74.800003"
         y1="338.10001"
         x2="92.199997"
         y2="338.10001"
         style="fill:none;stroke:#414042;stroke-width:1.5;stroke-miterlimit:10" />
      <line
         id="XMLID_266_"
         stroke-miterlimit="10"
         x1="182.89999"
         y1="369.5"
         x2="200.3"
         y2="369.5"
         style="fill:none;stroke:#414042;stroke-width:1.5;stroke-miterlimit:10" />
      <line
         id="XMLID_335_"
         stroke-miterlimit="10"
         x1="155.89999"
         y1="335.89999"
         x2="189.10001"
         y2="335.89999"
         style="fill:none;stroke:#414042;stroke-width:1.5;stroke-miterlimit:10" />
      <line
         id="XMLID_414_"
         stroke-miterlimit="10"
         x1="94.699997"
         y1="322.29999"
         x2="139.39999"
         y2="322.29999"
         style="fill:none;stroke:#414042;stroke-width:1.5;stroke-miterlimit:10" />
      <line
         id="XMLID_306_"
         stroke-miterlimit="10"
         x1="30"
         y1="358.70001"
         x2="68.400002"
         y2="358.70001"
         style="fill:none;stroke:#414042;stroke-width:1.5;stroke-miterlimit:10" />
      <line
         id="XMLID_304_"
         stroke-miterlimit="10"
         x1="189.7"
         y1="359.89999"
         x2="224"
         y2="359.89999"
         style="fill:none;stroke:#414042;stroke-width:1.5;stroke-miterlimit:10" />
      <line
         id="XMLID_105_"
         stroke-miterlimit="10"
         x1="97.300003"
         y1="338.10001"
         x2="93.699997"
         y2="338.10001"
         style="fill:none;stroke:#414042;stroke-width:1.5;stroke-miterlimit:10" />
      <path
         id="XMLID_104_"
         d="m 48.5,388.5 c 0,0.7 -0.5,1.2 -1.2,1.2 -0.7,0 -1.2,-0.5 -1.2,-1.2 0,-0.7 0.5,-1.2 1.2,-1.2 0.6,0.1 1.2,0.6 1.2,1.2 z"
         inkscape:connector-curvature="0"
         style="fill:#414042" />
      <path
         id="XMLID_327_"
         d="m 224,368.6 c 0,0.7 -0.5,1.2 -1.2,1.2 -0.7,0 -1.2,-0.5 -1.2,-1.2 0,-0.7 0.5,-1.2 1.2,-1.2 0.6,0 1.2,0.6 1.2,1.2 z"
         inkscape:connector-curvature="0"
         style="fill:#414042" />
      <path
         id="XMLID_329_"
         d="m 179.1,344.6 c 0,0.7 -0.5,1.2 -1.2,1.2 -0.7,0 -1.2,-0.5 -1.2,-1.2 0,-0.7 0.5,-1.2 1.2,-1.2 0.6,0 1.2,0.5 1.2,1.2 z"
         inkscape:connector-curvature="0"
         style="fill:#414042" />
      <path
         id="XMLID_332_"
         d="m 77.2,324.5 c 0,1 -0.8,1.7 -1.7,1.7 -1,0 -1.7,-0.8 -1.7,-1.7 0,-1 0.8,-1.7 1.7,-1.7 1,0 1.7,0.8 1.7,1.7 z"
         inkscape:connector-curvature="0"
         style="fill:#414042" />
      <path
         id="XMLID_324_"
         d="m 121.1,331.5 c 0,0.7 -0.5,1.2 -1.2,1.2 -0.7,0 -1.2,-0.5 -1.2,-1.2 0,-0.7 0.5,-1.2 1.2,-1.2 0.6,0 1.2,0.5 1.2,1.2 z"
         inkscape:connector-curvature="0"
         style="fill:#414042" />
      <path
         id="XMLID_256_"
         d="m 61.7,367.1 c 0,0.8 -0.7,1.5 -1.5,1.5 -0.8,0 -1.5,-0.7 -1.5,-1.5 0,-0.8 0.7,-1.5 1.5,-1.5 0.9,0 1.5,0.7 1.5,1.5 z"
         inkscape:connector-curvature="0"
         style="fill:#414042" />
      <path
         id="XMLID_326_"
         d="m 203.4,389.7 c 0,0.8 -0.7,1.5 -1.5,1.5 -0.8,0 -1.5,-0.7 -1.5,-1.5 0,-0.8 0.7,-1.5 1.5,-1.5 0.8,0 1.5,0.7 1.5,1.5 z"
         inkscape:connector-curvature="0"
         style="fill:#414042" />
      <path
         id="XMLID_330_"
         d="m 193.1,320.8 c 0,0.8 -0.7,1.5 -1.5,1.5 -0.8,0 -1.5,-0.7 -1.5,-1.5 0,-0.8 0.7,-1.5 1.5,-1.5 0.9,0 1.5,0.7 1.5,1.5 z"
         inkscape:connector-curvature="0"
         style="fill:#414042" />
      <g
         id="XMLID_95_">
        <path
           id="XMLID_116_"
           d="M 174.4,396 H 93.5 v -46.1 c 0,-1.1 0.9,-2 2,-2 h 76.9 c 1.1,0 2,0.9 2,2 z"
           inkscape:connector-curvature="0"
           style="fill:#58595b" />
        <path
           id="XMLID_115_"
           stroke-miterlimit="10"
           d="m 93.5,372 v -20.2 c 0,-2.2 1.8,-3.9 3.9,-3.9 h 19.1"
           inkscape:connector-curvature="0"
           style="fill:none;stroke:#414042;stroke-width:1.5;stroke-miterlimit:10" />
        <path
           id="XMLID_112_"
           stroke-miterlimit="10"
           d="m 153.3,347.9 h 17.2 c 2.2,0 3.9,1.8 3.9,3.9 v 23.1"
           inkscape:connector-curvature="0"
           style="fill:none;stroke:#414042;stroke-width:1.5;stroke-miterlimit:10" />
        <rect
           id="XMLID_109_"
           x="97.900002"
           y="352.60001"
           width="72.199997"
           height="38"
           style="fill:#ffffff" />
        <rect
           id="XMLID_106_"
           x="121.8"
           y="403.29999"
           width="24.4"
           height="14.4"
           style="fill:#ffffff" />
        <rect
           id="XMLID_103_"
           x="121.8"
           y="403.29999"
           width="24.4"
           height="7.1999998"
           style="fill:#d1d3d4" />
        <rect
           id="XMLID_102_"
           x="121.8"
           y="403.29999"
           stroke-miterlimit="10"
           width="24.4"
           height="14.4"
           style="fill:none;stroke:#414042;stroke-width:1.5;stroke-miterlimit:10" />
        <path
           id="XMLID_101_"
           d="M 174.4,394.2 H 93.5 v 8.9 c 0,1.1 0.9,2 2,2 h 76.9 c 1.1,0 2,-0.9 2,-2 z"
           inkscape:connector-curvature="0"
           style="fill:#ffffff" />
        <line
           id="XMLID_98_"
           stroke-miterlimit="10"
           x1="115.5"
           y1="405.10001"
           x2="159.89999"
           y2="405.10001"
           style="fill:none;stroke:#414042;stroke-width:1.5;stroke-miterlimit:10" />
        <line
           id="XMLID_97_"
           stroke-miterlimit="10"
           x1="160.39999"
           y1="394.20001"
           x2="116"
           y2="394.20001"
           style="fill:none;stroke:#414042;stroke-width:1.5;stroke-miterlimit:10" />
        <line
           id="XMLID_96_"
           stroke-miterlimit="10"
           x1="117.1"
           y1="418"
           x2="151.2"
           y2="418"
           style="fill:none;stroke:#414042;stroke-width:1.5;stroke-miterlimit:10" />
      </g>
      <g
         id="XMLID_55_">
        <path
           id="XMLID_802_"
           d="M 112.9,415.7 H 56.8 c -0.5,0 -1,-0.4 -1,-1 v -39.8 c 0,-0.5 0.5,-1 1,-1 h 56.1 c 0.5,0 1,0.5 1,1 v 39.8 c 0,0.5 -0.4,1 -1,1 z"
           inkscape:connector-curvature="0"
           style="fill:#58595b" />
        <line
           id="XMLID_801_"
           stroke-miterlimit="10"
           x1="101.1"
           y1="373.89999"
           x2="105.1"
           y2="373.89999"
           style="fill:none;stroke:#414042;stroke-width:1.5;stroke-miterlimit:10" />
        <path
           id="XMLID_93_"
           stroke-miterlimit="10"
           d="m 55.8,413.2 v -37.9 c 0,-0.8 0.7,-1.4 1.4,-1.4 h 41.3"
           inkscape:connector-curvature="0"
           style="fill:none;stroke:#414042;stroke-width:1.5;stroke-miterlimit:10" />
        <path
           id="XMLID_64_"
           stroke-miterlimit="10"
           d="m 106.8,373.9 h 5.6 c 0.8,0 1.4,0.7 1.4,1.4 v 38.9 c 0,0.8 -0.7,1.4 -1.4,1.4"
           inkscape:connector-curvature="0"
           style="fill:none;stroke:#414042;stroke-width:1.5;stroke-miterlimit:10" />
        <rect
           id="XMLID_799_"
           x="58.599998"
           y="377.20001"
           width="52.200001"
           height="33.900002"
           style="fill:#ffffff" />
        <path
           id="XMLID_798_"
           d="M 112.9,418 H 56.2 c -1.4,0 -2.5,-1 -2.7,-2.3 l -0.4,-2.5 h 26.3 l 1,1.4 h 7.3 l 1.1,-1.4 h 27.7 l -0.4,2.1 c -0.3,1.6 -1.6,2.7 -3.2,2.7 z"
           inkscape:connector-curvature="0"
           style="fill:#ffffff" />
        <path
           id="XMLID_797_"
           stroke-miterlimit="10"
           d="M 112.9,418 H 56.2 c -1.4,0 -2.5,-1 -2.7,-2.3 l -0.4,-2.5 h 26.3 l 1,1.4 h 7.3 l 1.1,-1.4 h 27.7 l -0.4,2.1 c -0.3,1.6 -1.6,2.7 -3.2,2.7 z"
           inkscape:connector-curvature="0"
           style="fill:none;stroke:#414042;stroke-width:1.5;stroke-miterlimit:10" />
      </g>
      <g
         id="XMLID_139_">
        <path
           id="XMLID_284_"
           d="m 162,416.1 v -37.3 c 0,-1.1 0.9,-1.9 1.9,-1.9 h 25.8 c 1.1,0 1.9,0.9 1.9,1.9 v 37.3 c 0,1.1 -0.9,1.9 -1.9,1.9 h -25.8 c -1,0 -1.9,-0.9 -1.9,-1.9 z"
           inkscape:connector-curvature="0"
           style="fill:#ffffff" />
        <path
           id="XMLID_283_"
           stroke-miterlimit="10"
           d="m 191.6,391 v 25.1 c 0,1.1 -0.9,1.9 -1.9,1.9 h -25.8 c -1.1,0 -1.9,-0.9 -1.9,-1.9 v -37.3 c 0,-1.1 0.9,-1.9 1.9,-1.9 h 25.8 c 1.1,0 1.9,0.9 1.9,1.9 v 2.2"
           inkscape:connector-curvature="0"
           style="fill:none;stroke:#414042;stroke-width:1.5;stroke-miterlimit:10" />
        <line
           id="XMLID_281_"
           stroke-miterlimit="10"
           x1="191.60001"
           y1="385"
           x2="191.60001"
           y2="388.29999"
           style="fill:none;stroke:#414042;stroke-width:1.5;stroke-miterlimit:10" />
        <line
           id="XMLID_251_"
           stroke-miterlimit="10"
           x1="180.60001"
           y1="380"
           x2="173"
           y2="380"
           style="fill:none;stroke:#414042;stroke-width:1.5;stroke-miterlimit:10" />
        <rect
           id="XMLID_248_"
           x="161.8"
           y="384.89999"
           transform="rotate(90,176.8205,397.1969)"
           width="30.1"
           height="24.6"
           style="fill:#d1d3d4" />
        <path
           id="XMLID_143_"
           stroke-miterlimit="10"
           d="m 176.8,415.2 c -0.6,0 -1.1,-0.5 -1.1,-1.1 0,-0.6 0.5,-1.1 1.1,-1.1 0.6,0 1.1,0.5 1.1,1.1 0,0.7 -0.5,1.1 -1.1,1.1 z"
           inkscape:connector-curvature="0"
           style="fill:none;stroke:#414042;stroke-width:1.5;stroke-miterlimit:10" />
      </g>
      <g
         id="XMLID_290_">
        <path
           id="XMLID_300_"
           d="m 84.7,382 v 12.3 0 l 8.7,8.7 c 2.2,-2.2 3.6,-5.3 3.6,-8.7 0,0 0,0 0,0 C 97,387.5 91.5,382 84.7,382 Z"
           inkscape:connector-curvature="0"
           style="fill:#00d4ff" />
        <path
           id="XMLID_299_"
           d="m 75.9,385.6 c -2.3,2.3 -3.7,5.5 -3.7,9 h 12.7 v 0 -12.7 c -3.5,0 -6.7,1.4 -9,3.7 z"
           inkscape:connector-curvature="0"
           style="fill:#58595b" />
        <path
           id="XMLID_295_"
           d="m 84.6,395.2 v 0 H 72.5 c 0,0 0,0 0,0 0,6.7 5.4,12.1 12.1,12.1 3.3,0 6.4,-1.3 8.5,-3.5 z"
           inkscape:connector-curvature="0"
           style="fill:#ffb936" />
        <path
           id="XMLID_570_"
           stroke-miterlimit="10"
           d="m 97.6,394.4 c 0,7.1 -5.8,12.9 -12.9,12.9 -7.1,0 -12.9,-5.8 -12.9,-12.9 0,-7.1 5.8,-12.9 12.9,-12.9 7.1,0 12.9,5.8 12.9,12.9 z"
           inkscape:connector-curvature="0"
           style="fill:none;stroke:#414042;stroke-width:1.5;stroke-miterlimit:10" />
        <polyline
           id="XMLID_294_"
           stroke-miterlimit="10"
           points="71.8,394.8      84.7,394.8 93.1,403.2    "
           style="fill:none;stroke:#414042;stroke-width:1.5;stroke-miterlimit:10" />
        <line
           id="XMLID_291_"
           stroke-miterlimit="10"
           x1="84.199997"
           y1="381.29999"
           x2="84.199997"
           y2="394.60001"
           style="fill:none;stroke:#414042;stroke-width:1.5;stroke-miterlimit:10" />
      </g>
      <rect
         id="XMLID_323_"
         x="118.7"
         y="340.29999"
         width="9"
         height="50.400002"
         style="fill:#e6e7e8" />
      <rect
         id="XMLID_319_"
         x="118.7"
         y="340.29999"
         width="4.5"
         height="50.400002"
         style="fill:#ffffff" />
      <polyline
         id="XMLID_317_"
         stroke-miterlimit="10"
         points="127.7,390.7     127.7,340.3 118.7,340.3 118.7,390.7   "
         style="fill:none;stroke:#414042;stroke-width:1.5;stroke-miterlimit:10" />
      <rect
         id="XMLID_316_"
         x="130.3"
         y="332.60001"
         width="9"
         height="58.099998"
         style="fill:#ffb936" />
      <rect
         id="XMLID_315_"
         x="130.3"
         y="332.60001"
         width="4.5"
         height="58.099998"
         style="fill:#ffd586" />
      <polyline
         id="XMLID_313_"
         stroke-miterlimit="10"
         points="139.3,390.7     139.3,332.6 130.3,332.6 130.3,390.7   "
         style="fill:none;stroke:#414042;stroke-width:1.5;stroke-miterlimit:10" />
      <rect
         id="XMLID_312_"
         x="142.39999"
         y="326.60001"
         width="9"
         height="64.099998"
         style="fill:#00d4ff" />
      <rect
         id="XMLID_311_"
         x="142.39999"
         y="326.60001"
         width="4.5"
         height="64.099998"
         style="fill:#99eeff" />
      <polyline
         id="XMLID_310_"
         stroke-miterlimit="10"
         points="151.4,390.7     151.4,326.6 142.4,326.6 142.4,390.7   "
         style="fill:none;stroke:#414042;stroke-width:1.5;stroke-miterlimit:10" />
      <g
         id="XMLID_250_">
        <polygon
           id="XMLID_626_"
           points="169.9,396.1 164.6,400.5 164.6,412.2 169.9,412.2 "
           style="fill:#00d4ff" />
        <polygon
           id="XMLID_625_"
           points="180.5,412.1 180.5,393.6 174.5,398.1 174.5,412.2 "
           style="fill:#00d4ff" />
        <polygon
           id="XMLID_623_"
           points="174.5,398.1 169.9,396 169.9,396.1 169.9,412.2 174.5,412.2 "
           style="fill:#66e5ff" />
        <polygon
           id="XMLID_622_"
           points="189.1,412.1 189.1,391.6 184.3,395.7 184.3,412.1 "
           style="fill:#00d4ff" />
        <polygon
           id="XMLID_621_"
           points="184.3,412.1 184.3,395.7 180.5,393.6 180.5,412.1 "
           style="fill:#66e5ff" />
        <polyline
           id="XMLID_619_"
           stroke-miterlimit="10"
           points="189.1,391.9      188.8,391.9 184.3,395.7 180.5,393.6 174.5,398.1 169.9,396.1 165.1,400.1 164.6,400.1    "
           style="fill:none;stroke:#414042;stroke-width:1.5;stroke-miterlimit:10" />
      </g>
      <g
         id="XMLID_43_">
        <line
           id="XMLID_189_"
           stroke-miterlimit="10"
           x1="40.900002"
           y1="418"
           x2="204.7"
           y2="418"
           style="fill:none;stroke:#414042;stroke-width:1.5;stroke-miterlimit:10" />
        <line
           id="XMLID_188_"
           stroke-miterlimit="10"
           x1="36.299999"
           y1="418"
           x2="39"
           y2="418"
           style="fill:none;stroke:#414042;stroke-width:1.5;stroke-miterlimit:10" />
        <line
           id="XMLID_187_"
           stroke-miterlimit="10"
           x1="206.2"
           y1="418"
           x2="212.3"
           y2="418"
           style="fill:none;stroke:#414042;stroke-width:1.5;stroke-miterlimit:10" />
      </g>
    </g>
  </g>
</svg>
