<svg xmlns="http://www.w3.org/2000/svg" xmlns:xlink="http://www.w3.org/1999/xlink" viewBox="0 0 129.5 129.5"><g fill="#231F20"><path d="M46.7 5.9c-.2 0-.4-.1-.5-.2-.3-.3-.3-.8 0-1.1l1.3-1.3c.3-.3.8-.3 1.1 0s.3.8 0 1.1l-1.3 1.3c-.3.2-.5.2-.6.2zM42.6 10c-.2 0-.4-.1-.5-.2-.3-.3-.3-.8 0-1.1l1.3-1.3c.3-.3.8-.3 1.1 0s.3.8 0 1.1l-1.3 1.3c-.2.1-.4.2-.6.2z"/><use xlink:href="#B"/><path d="M43.9 5.9c-.2 0-.4-.1-.5-.2l-1.3-1.3c-.3-.3-.3-.8 0-1.1s.8-.3 1.1 0l1.3 1.3c.3.3.3.8 0 1.1-.2.2-.4.2-.6.2zm54.5-1.3c-.2 0-.4-.1-.5-.2-.3-.3-.3-.8 0-1.1L99.1 2c.3-.3.8-.3 1.1 0s.3.8 0 1.1l-1.3 1.3c-.1.1-.3.2-.5.2zm-4 4c-.2 0-.4-.1-.5-.2-.3-.3-.3-.8 0-1.1L95.1 6c.3-.3.8-.3 1.1 0s.3.8 0 1.1l-1.3 1.3c-.2.1-.4.2-.5.2z"/><use xlink:href="#B" x="51.8" y="-1.4"/><use xlink:href="#B" x="47.7" y="-5.4"/></g><circle cx="15.7" cy="25.8" r="2" fill="#FF7058"/><circle cx="53.7" cy="16" r="2" fill="#FFD05B"/><circle cx="118.1" cy="27.3" r="2" fill="#4CDBC4"/><path d="M121.7 47.4V35.5l-52-14.4h-9.9l-52 14.4v11.9z" fill="#fff"/><path d="M11.8 43.4v-4.9l48.6-13.4h8.7l48.6 13.4v4.9zm.4 4h105.1v7H12.2z" fill="#CED5E0"/><path d="M113.8 51.7h-1v-1.5h1v1.5zm-3 0h-1v-1.5h1v1.5zm-3 0h-1v-1.5h1v1.5zm-3 0h-1v-1.5h1v1.5zm-3 0h-1v-1.5h1v1.5zm-3 0h-1v-1.5h1v1.5zm-3 0h-1v-1.5h1v1.5zm-3 0h-1v-1.5h1v1.5zm-3 0h-1v-1.5h1v1.5zm-3 0h-1v-1.5h1v1.5zm-3 0h-1v-1.5h1v1.5zm-3 0h-1v-1.5h1v1.5zm-3 0h-1v-1.5h1v1.5zm-3 0h-1v-1.5h1v1.5zm-3 0h-1v-1.5h1v1.5zm-3 0h-1v-1.5h1v1.5zm-3 0h-1v-1.5h1v1.5zm-3 0h-1v-1.5h1v1.5zm-3 0h-1v-1.5h1v1.5zm-3 0h-1v-1.5h1v1.5zm-3 0h-1v-1.5h1v1.5zm-3 0h-1v-1.5h1v1.5zm-3 0h-1v-1.5h1v1.5zm-3 0h-1v-1.5h1v1.5zm-3 0h-1v-1.5h1v1.5zm-3 0h-1v-1.5h1v1.5zm-3 0h-1v-1.5h1v1.5zm-3 0h-1v-1.5h1v1.5zm-3 0h-1v-1.5h1v1.5zm-3 0h-1v-1.5h1v1.5zm-3 0h-1v-1.5h1v1.5zm-3 0h-1v-1.5h1v1.5zm-3 0h-1v-1.5h1v1.5z" fill="#231F20"/><path d="M20.4 63.9h9.5v43.4h-9.5z" fill="#fff"/><g fill="#CED5E0"><path d="M17.3 54.5h15.6v5H17.3z"/><path d="M32.9 59.5H17.3l3.1 4.4h9.5zm-15.6 52.2h15.6v5H17.3z"/><path d="M17.3 111.7h15.6l-3-4.4h-9.5z"/></g><path d="M47.4 63.9h9.5v43.4h-9.5z" fill="#fff"/><g fill="#CED5E0"><path d="M44.3 54.5h15.6v5H44.3z"/><path d="M59.9 59.5H44.3l3.1 4.4h9.4zm-15.6 52.2h15.6v5H44.3z"/><path d="M44.3 111.7h15.6l-3.1-4.4h-9.4z"/></g><path d="M74.3 63.9h9.5v43.4h-9.5z" fill="#fff"/><g fill="#CED5E0"><path d="M71.2 54.5h15.6v5H71.2z"/><path d="M86.9 59.5H71.2l3.1 4.4h9.5zm-15.7 52.2h15.6v5H71.2z"/><path d="M71.2 111.7h15.7l-3.1-4.4h-9.5z"/></g><path d="M101.3 63.9h9.5v43.4h-9.5z" fill="#fff"/><g fill="#CED5E0"><path d="M98.2 54.5h15.6v5H98.2z"/><path d="M113.8 59.5H98.2l3.1 4.4h9.4zm-15.6 52.2h15.6v5H98.2z"/><path d="M98.2 111.7h15.6l-3.1-4.4h-9.4z"/></g><path d="M91.9 128v-3.2c0-.4-.3-.8-.8-.8h-4v-3.2c0-.4-.3-.8-.8-.8H43c-.4 0-.8.3-.8.8v3.2h-4c-.4 0-.8.3-.8.8v3.2H.8v1.5h128V128H91.9zm-48.1-6.5h41.9v2.5H43.8v-2.5zm46.6 6.5H39.1v-2.5h51.4v2.5z" fill="#231F20"/><path d="M89.4 15.8H72.5v-10h16.9l-3.9 5z" fill="#fff"/><path d="M74.5 13.8v-6h10.8l-2.3 3 2.3 3z" fill="#FFD05B"/><path d="M64.8.7H81v10H64.8z" fill="#fff"/><path d="M22.8 67.1h1.5V105h-1.5zm3.2 0h1.5V105H26zm23.8 0h1.5V105h-1.5zm3.1 0h1.5V105h-1.5zm23.8 0h1.5V105h-1.5zm3.2 0h1.5V105h-1.5zm23.8 0h1.5V105h-1.5zm3.1 0h1.5V105h-1.5zm7.8-7.6v-4.3h2.7c.4 0 .8-.3.8-.8v-6.3h3.7c.4 0 .8-.3.8-.8v-12c0-.3-.2-.6-.6-.7L69.7 20.4h-4.2v-8.8h6.2v4.3c0 .4.3.8.8.8h16.9c.3 0 .5-.2.7-.4.1-.3.1-.6-.1-.8l-3.5-4.6L90 6.2c.2-.2.2-.5.1-.8-.2-.2-.4-.4-.7-.4h-7.7V.8c0-.4-.3-.8-.8-.8H64.8c-.5 0-.8.3-.8.8v19.6h-4.4l-52 14.3c-.4.1-.6.4-.6.8v12c0 .4.3.8.8.8h3.7v6.3c0 .4.3.8.8.8h4.4v4.3c0 .2 0 .3.1.4l2.3 3.3h-.6v1.5h1.2v41.9h-1.2v1.5h.5l-2.3 3.3c-.1.1-.1.3-.1.4v4.3H7.8c-.4 0-.8.3-.8.8v8.1h1.5v-7.4H121v7.4h1.5v-8.1c0-.4-.3-.8-.8-.8h-7.2V112c0-.2 0-.3-.1-.4l-2.3-3.3h.6v-1.5h-1.2V64.7h1.2v-1.5h-.6l2.3-3.3a.76.76 0 0 0 .2-.4zM81.7 10.8V6.5h6.2L85 10.3c-.2.3-.2.6 0 .9l2.9 3.8H73.2v-3.5h7.7c.4 0 .8-.3.8-.7zM65.5 1.5h14.7V10H65.5V1.5zm-57 45.2V36l51.4-14.2h9.6L121 36v10.7H8.5zm4.5 7v-5.5h103.6v5.5H13zM74.7 108h8.6l2 2.9H72.7l2-2.9zm8.3-1.5h-8V64.7h8v41.8zm.4-43.3h-8.6l-2-2.9h12.7l-2.1 2.9zM72 58.7v-3.5h14.1v3.5H72zM56.4 108l2 2.9H45.7l2-2.9h8.7zm-8.3-1.5V64.7h8v41.9h-8zm-.3-43.3l-2-2.9h12.7l-2 2.9h-8.7zM45 58.7v-3.5h14.1v3.5H45zm-26.9-3.5h14.1v3.5H18.1v-3.5zm.7 5h12.7l-2 2.9h-8.6l-2.1-2.9zm10.3 4.5v41.9h-8V64.7h8zM20.8 108h8.6l2 2.9H18.8l2-2.9zm11.4 8H18.1v-3.5h14.1v3.5zm11.3-4.3v4.3h-9.8v-4.3c0-.2 0-.3-.1-.4l-2.3-3.3h.6v-1.5h-1.2V64.7h1.2v-1.5h-.6l2.3-3.3c.1-.1.1-.3.1-.4v-4.3h9.8v4.3c0 .2 0 .3.1.4l2.3 3.3h-.6v1.5h1.2v41.9h-1.2v1.5h.6l-2.3 3.3s-.1.2-.1.3zm15.7 4.3H45v-3.5h14.1v3.5zm11.3-4.3v4.3h-9.8v-4.3c0-.2 0-.3-.1-.4l-2.3-3.3h.6v-1.5h-1.2V64.7h1.2v-1.5h-.6l2.3-3.3c.1-.1.1-.3.1-.4v-4.3h9.8v4.3c0 .2 0 .3.1.4l2.3 3.3h-.6v1.5h1.2v41.9h-1.2v1.5h.6l-2.3 3.3c-.1 0-.1.2-.1.3zm15.6 4.3H72v-3.5h14.1v3.5zm11.4-4.3v4.3h-9.8v-4.3c0-.2 0-.3-.1-.4l-2.3-3.3h.6v-1.5h-1.2V64.7h1.2v-1.5h-.6l2.3-3.3c.1-.1.1-.3.1-.4v-4.3h9.8v4.3c0 .2 0 .3.1.4l2.3 3.3h-.6v1.5h1.2v41.9h-1.2v1.5h.6l-2.3 3.3c-.1 0-.1.2-.1.3zm15.6 4.3H99v-3.5h14.1v3.5zm-.7-5H99.6l2-2.9h8.6l2.2 2.9zm-10.4-4.5V64.7h8v41.9h-8zm8.3-43.3h-8.6l-2-2.9h12.7l-2.1 2.9zm2.8-4.5H99v-3.5h14.1v3.5z" fill="#231F20"/><path d="M66.7 2.8h12.2v6H66.7z" fill="#FFD05B"/><path d="M120.8 21.2c.1-.4.2-.8.2-1.2a4.91 4.91 0 0 0-4.9-4.9h-.6v-.7c0-3.4-2.8-6.2-6.2-6.2-3.2 0-5.8 2.4-6.1 5.6h-.7c-3 0-5.5 2.5-5.5 5.5 0 .7.1 1.3.3 1.9h23.5z" fill="#84DBFF"/><path d="M121.7 20.4v-.5a5.62 5.62 0 0 0-5.4-5.6c-.1-3.8-3.1-6.8-6.9-6.8-3.3 0-6.1 2.3-6.8 5.5-3.5-.1-6.3 2.8-6.3 6.3 0 .4 0 .8.1 1.1h-2.2v1.5h30.2v-1.5h-2.7zm-1.5 0H97.9c-.1-.4-.1-.8-.1-1.1 0-2.6 2.1-4.8 4.7-4.8.1.6.2 1.2.5 1.8l1.4-.6c-.2-.6-.4-1.2-.4-1.9.3-2.8 2.6-4.8 5.4-4.8 3 0 5.4 2.4 5.4 5.4v.1c-.6.1-1.1.4-1.6.7l.8 1.3c.6-.4 1.4-.6 2.1-.6h.1c2.3 0 4.1 1.8 4.1 4.1-.1.1-.1.3-.1.4z" fill="#231F20"/><path d="M35.2 18.2c.1-.4.2-.8.2-1.2 0-2.6-2.1-4.7-4.7-4.7h-.6v-.7c0-3.3-2.6-5.9-5.9-5.9-3.1 0-5.6 2.3-5.9 5.3h-.7a5.34 5.34 0 0 0-5.3 5.3c0 .6.1 1.2.3 1.8h22.6z" fill="#84DBFF"/><path d="M36.1 17.5v-.4c0-2.9-2.3-5.3-5.2-5.4a6.66 6.66 0 0 0-6.7-6.5c-3.2 0-5.9 2.2-6.5 5.3a6.02 6.02 0 0 0-6 6c0 .4 0 .7.1 1.1h-2V19h28.9v-1.5h-2.6zm-22.8 0c-.1-.3-.1-.7-.1-1.1a4.48 4.48 0 0 1 4.5-4.5c.1.6.2 1.1.4 1.7l1.4-.6c-.2-.6-.4-1.2-.4-1.8.3-2.6 2.5-4.6 5.1-4.6 2.8 0 5.2 2.3 5.2 5.2v.1c-.5.1-1.1.3-1.6.6l.8 1.3c.6-.4 1.3-.6 2-.6h.1c2.2 0 3.9 1.8 3.9 3.9v.4H13.3z" fill="#231F20"/><circle cx="64.7" cy="34.3" r="5.5" fill="#fff"/><path d="M64.8 40.5c-3.4 0-6.2-2.8-6.2-6.2s2.8-6.2 6.2-6.2 6.2 2.8 6.2 6.2-2.8 6.2-6.2 6.2zm0-11c-2.6 0-4.7 2.1-4.7 4.7s2.1 4.7 4.7 4.7 4.7-2.1 4.7-4.7c0-2.5-2.1-4.7-4.7-4.7z" fill="#231F20"/><defs ><path id="B" d="M47.9 10c-.2 0-.4-.1-.5-.2l-1.3-1.3c-.3-.3-.3-.8 0-1.1s.8-.3 1.1 0l1.3 1.3c.3.3.3.8 0 1.1-.2.1-.4.2-.6.2z"/></defs></svg>