<svg xmlns="http://www.w3.org/2000/svg" xmlns:xlink="http://www.w3.org/1999/xlink" viewBox="0 0 129.5 129.5"><circle cx="64.8" cy="3.2" r="1.9" fill="#FF7058"/><g fill="#231F20"><path d="M91.9 11.8c-.2 0-.4-.1-.5-.2-.3-.3-.3-.8 0-1.1l1.3-1.3c.3-.3.8-.3 1.1 0s.3.8 0 1.1l-1.3 1.3c-.2.2-.4.2-.6.2z"/><use xlink:href="#B"/><use xlink:href="#C"/><use xlink:href="#D"/><path d="M41.4 45.3c-.2 0-.4-.1-.5-.2-.3-.3-.3-.8 0-1.1l1.3-1.3c.3-.3.8-.3 1.1 0s.3.8 0 1.1L42 45.1c-.2.2-.4.2-.6.2zm-4 4c-.2 0-.4-.1-.5-.2-.3-.3-.3-.8 0-1.1l1.3-1.3c.3-.3.8-.3 1.1 0s.3.8 0 1.1L38 49.1c-.2.2-.4.2-.6.2zm5.3 0c-.2 0-.4-.1-.5-.2l-1.3-1.3c-.3-.3-.3-.8 0-1.1s.8-.3 1.1 0l1.3 1.3c.3.3.3.8 0 1.1-.3.2-.4.2-.6.2z"/><use xlink:href="#D" x="-50.5" y="33.5"/><use xlink:href="#B" x="4" y="105.3"/><use xlink:href="#B" y="109.3"/><use xlink:href="#C" y="109.3"/><path d="M89.2 121.1c-.2 0-.4-.1-.5-.2l-1.3-1.3c-.3-.3-.3-.8 0-1.1s.8-.3 1.1 0l1.3 1.3c.3.3.3.8 0 1.1-.2.1-.4.2-.6.2z"/></g><path d="M16.1 60.5h8.6v8.6h-8.6z" fill="#84DBFF"/><path d="M21.9 58.6l-1.5-.2c0-.3.1-.7.2-1l1.5.3a2.39 2.39 0 0 0-.2.9zm.5-2.9l-1.5-.3c.1-.3.1-.7.2-1l1.5.3c-.1.3-.1.7-.2 1zm.7-2.9l-1.4-.4.3-1 1.4.5-.3.9zM24 50l-1.4-.5c.1-.3.2-.6.4-1l1.4.5c-.1.4-.3.7-.4 1zm1.1-2.7l-1.4-.6c.1-.3.3-.6.4-.9l1.4.6c-.1.3-.2.6-.4.9zm1.3-2.7l-1.3-.7c.2-.3.3-.6.5-.9l1.3.7c-.2.3-.3.6-.5.9zm1.5-2.6l-1.3-.8c.2-.3.4-.6.5-.9l1.3.8-.5.9zm1.6-2.4l-1.2-.9c.2-.3.4-.5.6-.8l1.2.9c-.2.3-.4.5-.6.8zm1.8-2.4l-1.2-1c.2-.3.4-.5.7-.8l1.1 1c-.2.3-.4.6-.6.8zm1.9-2.2l-1.1-1 .7-.7 1.1 1.1c-.2.1-.4.4-.7.6zm2.1-2.1l-1-1.1c.2-.2.5-.5.8-.7l1 1.1c-.3.3-.5.5-.8.7zm2.3-1.9l-.9-1.2c.3-.2.5-.4.8-.6l.9 1.2c-.3.2-.6.4-.8.6zm2.3-1.8L39 28c.3-.2.6-.4.8-.6l.8 1.2c-.2.2-.4.4-.7.6zm2.5-1.6l-.8-1.3c.3-.2.6-.4.9-.5l.8 1.3c-.4.2-.7.3-.9.5zm2.5-1.5l-.7-1.3c.3-.2.6-.3.9-.5l.7 1.3c-.3.2-.6.4-.9.5zm2.7-1.2l-.6-1.4c.3-.1.6-.3.9-.4l.6 1.4c-.3.1-.6.2-.9.4zm2.7-1.1l-.5-1.4 1-.3.5 1.4a1.69 1.69 0 0 0-1 .3zm2.8-1l-.4-1.4 1-.3.4 1.5c-.4.1-.7.2-1 .2zm2.9-.7l-.3-1.5c.3-.1.7-.1 1-.2l.3 1.5c-.4.1-.7.2-1 .2zm2.9-.5l-.2-1.5h.3l.2 1.5h-.3zm0 88.3c-.3 0-.7-.1-1-.2l.2-1.5c.3.1.6.1 1 .1l-.2 1.6zm-3-.5c-.3-.1-.7-.1-1-.2l.3-1.5c.3.1.6.1 1 .2l-.3 1.5zm-3-.7l-1-.3.4-1.4.9.3-.3 1.4zm-2.9-.9c-.3-.1-.6-.2-1-.4l.5-1.4.9.3-.4 1.5zm-2.8-1.2c-.3-.1-.6-.3-.9-.4l.6-1.4c.3.1.6.3.9.4l-.6 1.4zm-2.8-1.3c-.3-.2-.6-.3-.9-.5l.7-1.3c.3.2.6.3.9.5l-.7 1.3zm-2.6-1.5c-.3-.2-.6-.4-.9-.5l.8-1.3c.3.2.6.3.8.5l-.7 1.3zm-2.6-1.6c-.3-.2-.6-.4-.8-.6l.9-1.2c.3.2.5.4.8.6l-.9 1.2zm-2.4-1.9c-.3-.2-.5-.4-.8-.6l1-1.1c.3.2.5.4.8.6l-1 1.1zm-2.3-2l-.7-.7 1-1.1.7.7-1 1.1zm-2.2-2.1l-.7-.7 1.1-1c.2.2.4.5.7.7l-1.1 1zm-2-2.3c-.2-.3-.4-.5-.6-.8l1.2-.9c.2.3.4.5.6.8l-1.2.9zm-1.9-2.4c-.2-.3-.4-.6-.6-.8l1.2-.8c.2.3.4.5.6.8l-1.2.8zM26.7 89c-.2-.3-.4-.6-.5-.9l1.3-.8c.2.3.3.6.5.8l-1.3.9zm-1.5-2.7c-.2-.3-.3-.6-.5-.9l1.3-.7c.1.3.3.6.5.9l-1.3.7zm-1.3-2.7c-.1-.3-.3-.6-.4-.9l1.4-.6c.1.3.3.6.4.9l-1.4.6zm-1.2-2.8l-.3-1 1.4-.5.3.9-1.4.6zm-.9-2.9l-.3-1 1.4-.4.3.9-1.4.5zm-.8-3c-.1-.3-.1-.7-.2-1l1.5-.3c.1.3.1.6.2 1l-1.5.3zm-.6-3c0-.3-.1-.5-.1-.8l1.5-.2c0 .3.1.5.1.8l-1.5.2zm51.3 38l-.2-1.5c.3 0 .5-.1.8-.1l.2 1.5c-.3.1-.6.1-.8.1zm2.7-.4l-.3-1.5c.3-.1.6-.1 1-.2l.3 1.5c-.3 0-.6.1-1 .2zm3-.8l-.4-1.4.9-.3.4 1.4c-.2.2-.6.3-.9.3zm2.9-.9l-.5-1.4.9-.3.5 1.4c-.2.1-.6.2-.9.3zm2.9-1.1l-.6-1.4c.3-.1.6-.3.9-.4l.6 1.4c-.3.2-.6.3-.9.4zm2.7-1.3l-.7-1.3c.3-.1.6-.3.9-.5l.7 1.3c-.3.2-.6.4-.9.5zm2.7-1.4l-.8-1.3c.3-.2.6-.3.8-.5l.8 1.3c-.2.1-.5.3-.8.5zm2.5-1.7l-.9-1.2c.3-.2.5-.4.8-.6l.9 1.2c-.2.2-.5.4-.8.6zm2.5-1.8l-.9-1.2c.3-.2.5-.4.8-.6l1 1.2c-.4.2-.7.4-.9.6zm2.3-2l-1-1.1c.2-.2.5-.4.7-.7l1 1.1c-.2.3-.5.5-.7.7zm2.2-2.1l-1.1-1c.2-.2.4-.5.7-.7l1.1 1c-.3.2-.5.4-.7.7zm2-2.3l-1.1-1c.2-.3.4-.5.6-.8l1.2.9-.7.9zm1.9-2.4l-1.2-.9c.2-.3.4-.5.6-.8l1.2.9c-.2.3-.4.5-.6.8zm1.7-2.5l-1.3-.8c.2-.3.3-.6.5-.8l1.3.8c-.1.2-.3.5-.5.8zm1.5-2.7l-1.3-.7c.2-.3.3-.6.5-.9l1.3.7c-.1.3-.3.6-.5.9zm1.4-2.7l-1.4-.6c.1-.3.3-.6.4-.9l1.4.6c-.1.3-.3.6-.4.9zm1.2-2.8l-1.4-.5.3-.9 1.4.5c-.1.2-.2.6-.3.9zm.9-2.9l-1.4-.4.3-.9 1.4.4c-.1.2-.2.6-.3.9zm.8-3l-1.5-.3c.1-.3.1-.6.2-1l1.5.3c0 .4-.1.7-.2 1zm.6-3l-1.5-.2c.1-.3.1-.6.1-1l1.5.2c0 .4-.1.7-.1 1zm-1.4-13.5v-.2l1.5-.2v.2l-1.5.2zm-.4-2.2c-.1-.3-.1-.6-.2-1l1.5-.3c.1.3.1.7.2 1l-1.5.3zm-.6-2.9l-.3-.9 1.4-.4.3 1-1.4.3zm-.9-2.8l-.3-.9 1.4-.5.3 1-1.4.4zm-1.1-2.7c-.1-.3-.3-.6-.4-.9l1.4-.6c.1.3.3.6.4.9l-1.4.6zm-1.2-2.7c-.1-.3-.3-.6-.5-.9l1.3-.7c.2.3.3.6.5.9l-1.3.7zm-1.4-2.6c-.2-.3-.3-.6-.5-.8l1.3-.8c.2.3.4.6.5.9l-1.3.7zm-1.6-2.5c-.2-.3-.4-.5-.6-.8l1.2-.9c.2.3.4.6.6.8l-1.2.9zm-1.7-2.3c-.2-.3-.4-.5-.6-.8l1.2-1c.2.3.4.5.6.8l-1.2 1zm-2-2.3c-.2-.2-.4-.5-.7-.7l1.1-1 .7.7-1.1 1zm-2-2.1l-.7-.7 1-1.1.7.7-1 1.1zm-2.2-2c-.3-.2-.5-.4-.8-.6l.9-1.2c.3.2.5.4.8.6l-.9 1.2zm-2.3-1.8c-.3-.2-.5-.4-.8-.6l.9-1.2c.3.2.6.4.8.6l-.9 1.2zM88.9 28c-.3-.2-.6-.3-.8-.5l.8-1.3c.3.2.6.4.9.5l-.9 1.3zm-2.6-1.5c-.3-.2-.6-.3-.9-.5l.7-1.3c.3.2.6.3.9.5l-.7 1.3zm-2.6-1.3c-.3-.1-.6-.3-.9-.4l.6-1.4c.3.1.6.3.9.4l-.6 1.4zM81 24l-.9-.3.5-1.4c.3.1.6.2 1 .4L81 24zm-2.8-.9l-.9-.3.4-1.4 1 .3-.5 1.4zm-2.9-.8c-.3-.1-.6-.1-1-.2l.3-1.5c.3.1.7.1 1 .2l-.3 1.5zm-2.9-.6c-.3-.1-.6-.1-1-.1l.2-1.5c.3 0 .7.1 1 .2l-.2 1.4z" fill="#231F20"/><path d="M61 15.5h8.6v8.6H61zm0 89.9h8.6v8.6H61zm44.9-44.9h8.6v8.6h-8.6z" fill="#84DBFF"/><g fill="#E6E9EE"><path d="M124.2 22.4c-1.4 0-2.5-1.1-2.5-2.5s1.1-2.5 2.5-2.5 2.5 1.1 2.5 2.5c.1 1.3-1.1 2.5-2.5 2.5z"/><use xlink:href="#E"/><use xlink:href="#E" x="-89.8"/><use xlink:href="#E" y="117.9"/><use xlink:href="#E" x="-89.8" y="117.9"/><path d="M6.3 22.4c-1.4 0-2.5-1.1-2.5-2.5s1.1-2.5 2.5-2.5 2.5 1.1 2.5 2.5c.1 1.3-1.1 2.5-2.5 2.5zm117.9 89.3c-1.4 0-2.5-1.1-2.5-2.5s1.1-2.5 2.5-2.5 2.5 1.1 2.5 2.5c.1 1.4-1.1 2.5-2.5 2.5z"/></g><path d="M124.2 103.9c-2.6 0-4.8 2-5.2 4.5h-8.1V71.8h6.3V57.7h-6.3V20.6h8.1c.4 2.5 2.5 4.5 5.2 4.5a5.34 5.34 0 0 0 5.3-5.3 5.34 5.34 0 0 0-5.3-5.3c-2.6 0-4.8 2-5.2 4.5h-8.1v-8c2.5-.4 4.5-2.5 4.5-5.2a5.34 5.34 0 0 0-5.3-5.3 5.34 5.34 0 0 0-5.3 5.3c0 2.6 2 4.8 4.5 5.2v8.1h-37v-6.3H58.2v6.3H21.1V11c2.5-.4 4.5-2.5 4.5-5.2A5.34 5.34 0 0 0 20.3.5 5.34 5.34 0 0 0 15 5.8c0 2.6 2 4.8 4.5 5.2v8.1h-8.1c-.4-2.5-2.5-4.5-5.2-4.5a5.34 5.34 0 0 0-5.3 5.3 5.34 5.34 0 0 0 5.3 5.3c2.6 0 4.8-2 5.2-4.5h8.1v37.1h-6.3v14.1h6.3v36.7h-8.1c-.4-2.5-2.5-4.5-5.2-4.5a5.34 5.34 0 0 0-5.3 5.3 5.34 5.34 0 0 0 5.3 5.3c2.6 0 4.8-2 5.2-4.5h8.1v8.6c-2.5.4-4.5 2.5-4.5 5.2a5.34 5.34 0 0 0 5.3 5.3 5.34 5.34 0 0 0 5.3-5.3c0-2.6-2-4.8-4.5-5.2V110h37.1v6.7h14.1V110h37.1v8.6c-2.5.4-4.5 2.5-4.5 5.2a5.34 5.34 0 0 0 5.3 5.3 5.34 5.34 0 0 0 5.3-5.3c0-2.6-2-4.8-4.5-5.2V110h8.1c.4 2.5 2.5 4.5 5.2 4.5a5.34 5.34 0 0 0 5.3-5.3c-.1-2.9-2.5-5.3-5.4-5.3zm0-87.8a3.8 3.8 0 1 1 0 7.6 3.8 3.8 0 0 1-3.8-3.8c.1-2.1 1.8-3.8 3.8-3.8zM106.4 5.8a3.8 3.8 0 0 1 7.6 0 3.8 3.8 0 0 1-7.6 0zm-89.8 0a3.8 3.8 0 0 1 7.6 0 3.8 3.8 0 0 1-7.6 0zM6.3 23.6a3.8 3.8 0 1 1 0-7.6 3.8 3.8 0 1 1 0 7.6zm0 89.4a3.8 3.8 0 0 1 0-7.6 3.8 3.8 0 0 1 0 7.6zm17.8 10.7a3.8 3.8 0 1 1-7.6 0 3.8 3.8 0 0 1 3.8-3.8c2.2 0 3.8 1.7 3.8 3.8zm89.8 0a3.8 3.8 0 1 1-7.6 0 3.8 3.8 0 0 1 3.8-3.8c2.2 0 3.8 1.7 3.8 3.8zm1.8-53.4h-11V59.2h11v11.1zm-56-56h11.1v11.1H59.7V14.3zM14.8 59.2h11.1v11.1H14.8V59.2zm56 56H59.7v-11.1h11.1v11.1zm1.5-6.7v-5.8H58.2v5.8H21.1V71.8h6.3V57.7h-6.3V20.6h37.1v6.3h14.1v-6.3h37.1v37.1h-6.3v14.1h6.3v36.7H72.3zm51.9 4.5a3.8 3.8 0 0 1 0-7.6 3.8 3.8 0 0 1 0 7.6z" fill="#231F20"/><path d="M6.3 111.7c-1.4 0-2.5-1.1-2.5-2.5s1.1-2.5 2.5-2.5 2.5 1.1 2.5 2.5c.1 1.4-1.1 2.5-2.5 2.5z" fill="#E6E9EE"/><path d="M86.1 65L65.3 32 44.4 65l7.4 12.7h-4.2v10.9h1.5v-9.4h32.4v9.4H83V77.7h-4.2L86.1 65zm-20.8-5.8c2.2 0 4.1 1.8 4.1 4.1 0 2.2-1.8 4.1-4.1 4.1-2.2 0-4.1-1.8-4.1-4.1s1.8-4.1 4.1-4.1zM53.5 77.7L46.2 65l18.4-29v21.8c-2.7.4-4.8 2.7-4.8 5.5a5.59 5.59 0 1 0 11.2 0c0-2.8-2.1-5.1-4.8-5.5V36l18.4 29L77 77.7H53.5zM8.2 45.3H.8c-.5 0-.8-.3-.8-.8 0-.4.3-.8.8-.8h7.4c.4 0 .8.3.8.8-.1.5-.4.8-.8.8zm4.9 0H11c-.4 0-.8-.3-.8-.8 0-.4.3-.8.8-.8h2.1c.4 0 .8.3.8.8-.1.5-.4.8-.8.8zM10.2 48h-2c-.4 0-.8-.3-.8-.8s.3-.8.8-.8h2.1c.4 0 .8.3.8.8s-.4.8-.9.8z" fill="#231F20"/><circle cx="91.2" cy="46" r="2.6" fill="#84DBFF"/><circle cx="13.1" cy="89.5" r="2.6" fill="#FFD05B"/><defs ><path id="B" d="M87.9 15.8c-.2 0-.4-.1-.5-.2-.3-.3-.3-.8 0-1.1l1.3-1.3c.3-.3.8-.3 1.1 0s.3.8 0 1.1l-1.3 1.3c-.2.1-.4.2-.6.2z"/><path id="C" d="M93.2 15.8c-.2 0-.4-.1-.5-.2l-1.3-1.3c-.3-.3-.3-.8 0-1.1s.8-.3 1.1 0l1.3 1.3c.3.3.3.8 0 1.1-.3.1-.4.2-.6.2z"/><path id="D" d="M89.2 11.8c-.2 0-.4-.1-.5-.2l-1.3-1.3c-.3-.3-.3-.8 0-1.1s.8-.3 1.1 0l1.3 1.3c.3.3.3.8 0 1.1-.2.2-.4.2-.6.2z"/><path id="E" d="M110.2 8.3c-1.4 0-2.5-1.1-2.5-2.5s1.1-2.5 2.5-2.5 2.5 1.1 2.5 2.5-1.1 2.5-2.5 2.5z"/></defs></svg>