<svg xmlns="http://www.w3.org/2000/svg" xmlns:xlink="http://www.w3.org/1999/xlink" viewBox="0 0 129.5 129.5"><g fill="#231f20"><use xlink:href="#B"/><path d="M30.7 87.4c-.2 0-.4-.1-.5-.2-.3-.3-.3-.8 0-1.1l1.3-1.3c.3-.3.8-.3 1.1 0s.3.8 0 1.1l-1.3 1.3c-.2.2-.4.2-.6.2zm5.3 0c-.2 0-.4-.1-.5-.2l-1.3-1.3c-.3-.3-.3-.8 0-1.1s.8-.3 1.1 0l1.3 1.3c.3.3.3.8 0 1.1-.2.2-.4.2-.6.2z"/><use xlink:href="#C"/><use xlink:href="#B" x="69.6" y="-56.7"/><use xlink:href="#B" x="65.6" y="-52.7"/><use xlink:href="#C" x="73.6" y="-52.7"/><use xlink:href="#C" x="69.6" y="-56.7"/><use xlink:href="#B" x="51.5" y="28.8"/><use xlink:href="#B" x="47.4" y="32.8"/><path d="M87.5 116.2c-.2 0-.4-.1-.5-.2l-1.3-1.3c-.3-.3-.3-.8 0-1.1s.8-.3 1.1 0l1.3 1.3c.3.3.3.8 0 1.1-.3.1-.5.2-.6.2z"/><use xlink:href="#C" x="51.4" y="28.8"/><path d="M44.7 113.6h-7.2c-.4 0-.8-.3-.8-.8 0-.4.3-.8.8-.8h7.2c.4 0 .8.3.8.8-.1.4-.4.8-.8.8zm7.4 0h-2.9c-.4 0-.8-.3-.8-.8 0-.4.3-.8.8-.8h2.9c.4 0 .8.3.8.8-.1.4-.4.8-.8.8zm-1.8 2.5h-7.1c-.4 0-.8-.3-.8-.8s.3-.8.8-.8h7.1c.4 0 .8.3.8.8s-.4.8-.8.8z"/></g><g fill="#fff"><path d="M90.5 79.2l.6 4.9c2.8.8 5.6 1.9 8.5 3.4L97 82.6l3.3-3.8 5.2.6c-.3-1.5-.2-3 0-4.5l-8.8-1.1-6.2 5.4z"/><path d="M84.8 72.5v10c2 .3 4.1.8 6.3 1.5l-.6-4.9 6.3-5.3 8.8 1.1c.5-3.7 2.1-6.7 2.1-6.7l-3.8-4.3h-8.5l-10.6 8.6z"/><path d="M89.2 69.4a4.95 4.95 0 0 1-5 5c-.5 0-1-.1-1.4-.2v11.5H71a4.99 4.99 0 0 1 .5 2.1 4.95 4.95 0 0 1-5 5 4.95 4.95 0 0 1-5-5 4.65 4.65 0 0 1 .5-2.1H50.2V74.2c.4.1.9.2 1.4.2a4.95 4.95 0 0 0 5-5 4.95 4.95 0 0 0-5-5c-.5 0-1 .1-1.4.2V53.1H62a4.99 4.99 0 0 0-.5 2.1 4.95 4.95 0 0 0 5 5 4.95 4.95 0 0 0 5-5 4.65 4.65 0 0 0-.5-2.1h11.8v11.5c.4-.1.9-.2 1.4-.2a4.95 4.95 0 0 1 5 5z"/></g><path fill="#ffd05b" d="M65.9 90.7c-1.2-.3-2.2-1.3-2.3-2.5a2.22 2.22 0 0 1 .3-1.6c.6-1.3-.3-2.9-1.8-2.9h-9.8v-7.4c3.6-.3 6.4-3.3 6.4-7 0-3.6-2.8-6.6-6.4-7v-7.4h7.3c0 3 1.8 5.7 4.6 6.7 4.9 1.6 9.4-2 9.4-6.6v-.1h7.3v9.5a2.02 2.02 0 0 0 2.6 1.9c.3-.1.6-.1.8-.1a3.01 3.01 0 0 1 3 3 3.01 3.01 0 0 1-3 3c-.3 0-.6 0-.8-.1a2.02 2.02 0 0 0-2.6 1.9v9.5H71c-1.5 0-2.4 1.5-1.8 2.9.2.4.3.8.3 1.3 0 2-1.7 3.4-3.6 3z"/><path fill="#ff7058" d="M63.7 44.1a2.87 2.87 0 0 1-2.3-2.5c-.1-.6 0-1.1.3-1.7.6-1.3-.3-2.9-1.8-2.9H50v-7.4c3.6-.3 6.4-3.3 6.4-7 0-3.6-2.8-6.6-6.4-7V8.4h7.3v.1c0 3 1.8 5.7 4.6 6.7 4.9 1.6 9.4-2 9.4-6.6v-.1h7.3V18a2.02 2.02 0 0 0 2.6 1.9c.3-.1.6-.1.8-.1a3.01 3.01 0 0 1 3 3 3.01 3.01 0 0 1-3 3c-.3 0-.6 0-.8-.1a2.02 2.02 0 0 0-2.6 1.9V37h-9.8c-1.5 0-2.4 1.5-1.8 2.9.2.4.3.8.3 1.3a3 3 0 0 1-3.6 2.9z"/><g fill="#fff"><path d="M39.1 32.5l-.6 4.9c-2.8.8-5.6 1.9-8.5 3.4l2.6-4.9-3.3-3.8-5.2.6c.3-1.5.2-3 0-4.5l8.8-1.1 6.2 5.4z"/><path d="M44.8 25.9v10c-2 .3-4.1.8-6.3 1.5l.6-4.9-6.3-5.3-8.8 1.1c-.5-3.7-2.1-6.7-2.1-6.7l3.8-4.3h8.5l10.6 8.6z"/><path d="M1 82.1h5.7c7.6-5 18.6-13.5 22.7-23.8 0 0 10-10.4 24.5-13.9 2.3-.6 3.9-2.9 3.5-5.3-.4-2.3-2.4-4-4.8-4-5.9.1-17.2 1.5-27.2 8.5.4-2.8-3.3-6.6-3.3-6.6 5-5.4-.1-15.4-.1-15.4L31.4 11l10.5-2.9 1.6.8c3.8 2 8.5.8 11-2.6l-6.8-3.8C45.3 1.2 42.6.6 39.9.9l-8.8.9c-2.3.2-4.4 1-6.3 2.4L4.7 18.3c-1.5 1.1-2.8 2.4-3.7 4"/></g><path fill="#231f20" d="M82.1 17h-.7V6.4c0-.4-.3-.8-.8-.8H68.9c-.3 0-.5.1-.6.4-.1.2-.2.5 0 .7.3.6.4 1.2.4 1.8a4.23 4.23 0 0 1-4.2 4.2 4.23 4.23 0 0 1-4.2-4.2c0-.6.1-1.2.4-1.8.1-.2.1-.5 0-.7s-.4-.4-.6-.4h-4.9L48 1.8C45.5.4 42.6-.2 39.7.1L31 1c-2.4.2-4.7 1.1-6.7 2.5l-20 14.1a12.45 12.45 0 0 0-3.9 4.3l1.3.8c.9-1.5 2.1-2.8 3.5-3.8l20-14.2c1.8-1.2 3.8-2 5.9-2.2l8.8-.9c2.6-.3 5.1.3 7.4 1.5l6.1 3.4c-2.4 2.7-6.2 3.4-9.5 1.7l-1.6-.8c-.2-.1-.4-.1-.5-.1l-10.5 2.9a.76.76 0 0 0-.4.2L21.4 21c-.2.2-.3.6-.1.8 0 .1 4.8 9.6.2 14.6-.3.3-.3.7 0 1 1 1 3.4 4 3.1 6 0 .3.1.6.4.7.3.2.6.1.8 0 9.8-6.9 21-8.2 26.8-8.3 2 0 3.7 1.4 4 3.3.3 2-1 3.9-2.9 4.4C39.1 47 29.2 57.2 28.8 57.6l-.2.2c-4 9.9-14.2 18.1-22.2 23.3H1v1.5h5.7c.1 0 .3 0 .4-.1 8.2-5.3 18.8-13.8 22.9-24 1.1-1.1 10.6-10.4 24-13.6 2.4-.6 4.1-2.8 4.1-5.3h.6c-.1.4-.2.9-.2 1.4 0 3.2 2.6 5.7 5.7 5.7 3.2 0 5.7-2.6 5.7-5.7 0-.5-.1-.9-.2-1.4h10.7c.4 0 .8-.3.8-.8V28.4h.7c3.2 0 5.7-2.6 5.7-5.7.2-3.1-2.4-5.7-5.5-5.7zm-59 19.9c.8-1.1 1.3-2.3 1.6-3.5L29 33l2.7 3.1-2.3 4.2c-1.1.6-2.2 1.2-3.3 1.9-.4-2.1-2.2-4.3-3-5.3zm1.8-8l7.7-.9 5.7 4.8-.5 4c-.1 0-.1 0-.2.1l-2.6.9c-.3.1-.5.2-.8.3-.7.3-1.3.5-2 .8-.2.1-.3.1-.5.2l1.5-2.8c.1-.3.1-.6-.1-.8l-3.3-3.8c-.1-.2-.4-.3-.6-.3h-.1l-4.1.5c.1-1 0-2-.1-3zm14.4 7.4l.5-3.7c0-.3-.1-.5-.3-.7l-6.3-5.3c-.2-.1-.4-.2-.6-.2l-8 1c-.5-2.6-1.4-4.9-1.8-5.8l3.3-3.7H34l10 8.2v9l-4.7 1.2zm8.3-9.4c-.2.1-.3.4-.3.6v7.3c-.6.1-1.2.2-1.8.2v-9.1c0-.2-.1-.4-.3-.6l-10.5-8.6c-.1-.1-.3-.2-.5-.2h-6.8l4.4-4.9 10-2.7 1.3.7c1.3.7 2.7 1 4.1 1.1V18c0 .2.1.5.3.6s.4.2.7.1c.4-.1.8-.2 1.2-.2a4.23 4.23 0 0 1 4.2 4.2 4.23 4.23 0 0 1-4.2 4.2c-.4 0-.8-.1-1.2-.2-.2 0-.4.1-.6.2zm34.5.1c-.4 0-.8-.1-1.2-.2-.2-.1-.5 0-.7.1s-.3.4-.3.6v10.8h-11c-.3 0-.5.1-.6.3s-.2.5 0 .7c.3.6.4 1.2.4 1.8a4.23 4.23 0 0 1-4.2 4.2 4.23 4.23 0 0 1-4.2-4.2c0-.6.1-1.2.4-1.8.1-.2.1-.5 0-.7s-.4-.4-.6-.4H58c-.7-2.3-2.9-4-5.4-3.9-1.1 0-2.4.1-3.8.2v-6.2h.6c3.2 0 5.7-2.6 5.7-5.7 0-3.2-2.6-5.7-5.7-5.7h-.6v-6.5c2.3-.3 4.4-1.5 6-3.4h4c-.1.4-.2.9-.2 1.4 0 3.2 2.6 5.7 5.7 5.7 3.2 0 5.7-2.6 5.7-5.7 0-.5-.1-.9-.2-1.4h10v10.8c0 .2.1.5.3.6s.4.2.7.1c.4-.1.8-.2 1.2-.2a4.23 4.23 0 0 1 4.2 4.2c.1 2.6-1.8 4.5-4.1 4.5z"/><path fill="#fff" d="M128.5 68.8c-.9-1.5-2.2-2.9-3.6-3.9l-20.1-14.2a14.27 14.27 0 0 0-6.3-2.4l-8.8-.9c-2.7-.3-5.4.3-7.8 1.6l-6.8 4c2.5 3.5 7.2 4.6 11 2.6l1.6-.8 10.5 2.9 9.5 10.6s-5.1 10-.1 15.4c0 0-3.7 3.8-3.3 6.6-10-7-21.3-8.3-27.2-8.5-2.4-.1-4.4 1.6-4.8 4s1.1 4.7 3.5 5.3c14.5 3.5 24.5 13.9 24.5 13.9 4.2 10.3 15.1 18.8 22.7 23.8h5.6"/><path fill="#231f20" d="M100.9 104.7c0-.1-.1-.2-.2-.2-.4-.4-10.3-10.6-24.9-14.1-1.9-.5-3.2-2.4-2.9-4.4s2-3.4 4-3.3c5.8.1 16.9 1.4 26.8 8.3a.61.61 0 0 0 .8 0c.3-.2.4-.4.4-.7-.3-2 2.2-5 3.1-6 .3-.3.3-.7 0-1-4.6-5 .2-14.5.2-14.6.1-.3.1-.6-.1-.8l-9.5-10.6c-.1-.1-.2-.2-.4-.2L87.8 54c-.2-.1-.4 0-.5.1l-1.6.8c-3.2 1.7-7.1.9-9.5-1.7l6.1-3.4a11.98 11.98 0 0 1 7.4-1.5l8.8.9c2.1.2 4.2 1 5.9 2.2l20.1 14.2c1.4 1 2.5 2.2 3.4 3.7l1.3-.8c-1-1.7-2.3-3.1-3.9-4.2l-20.1-14.2c-2-1.4-4.3-2.3-6.7-2.5l-8.8-.9c-2.9-.3-5.7.3-8.3 1.7l-6.8 3.8H71c-.3 0-.5.1-.6.4-.1.2-.2.5 0 .7.3.6.4 1.2.4 1.8a4.23 4.23 0 0 1-4.2 4.2 4.23 4.23 0 0 1-4.2-4.2c0-.6.1-1.2.4-1.8.1-.2.1-.5 0-.7s-.4-.4-.6-.4h-12c-.4 0-.8.3-.8.8v11.5c0 .2.1.5.3.6s.4.2.7.1c.4-.1.8-.2 1.2-.2a4.23 4.23 0 0 1 4.2 4.2 4.23 4.23 0 0 1-4.2 4.2c-.4 0-.8-.1-1.2-.2-.2-.1-.5 0-.7.1s-.3.4-.3.6v11.5c0 .4.3.8.8.8h10.7c-.1.4-.2.9-.2 1.4 0 3.2 2.6 5.7 5.7 5.7 2.7 0 5-1.9 5.6-4.4.7 1.3 1.9 2.3 3.4 2.6 13.4 3.2 23 12.5 24 13.6 4.2 10.2 14.8 18.7 22.9 24 .1.1.3.1.4.1h5.6V128h-5.4c-7.8-5.2-18.1-13.5-22-23.3zM83.6 81.6v-6.5h.5v6.6c-.2 0-.4-.1-.5-.1zm13.7 4c-.6-.3-1.3-.6-1.9-.8-.3-.1-.6-.2-.8-.3l-2.6-.9c-.1 0-.1 0-.2-.1l-.5-4 5.7-4.8 7.7.9c-.1 1-.1 2 0 3l-4.3-.5a1.08 1.08 0 0 0-.7.3l-3.3 3.8c-.2.2-.2.6-.1.8l1.5 2.8c-.1-.1-.3-.2-.5-.2zm9.2-2c-.8 1-2.6 3.1-3 5.3-1.1-.7-2.2-1.4-3.3-1.9l-2.3-4.2 2.7-3.1 4.3.5c.2 1.1.7 2.3 1.6 3.4zm.2-15.3c-.4.9-1.4 3.2-1.8 5.8l-8-1c-.2 0-.4 0-.6.2L90 78.6c-.2.2-.3.4-.3.7l.5 3.7c-1.6-.4-3.2-.8-4.7-1.1v-7c2.5-.6 4.4-2.9 4.4-5.6v-.1l5.6-4.6h7.9l3.3 3.7zM86.4 56.2l1.3-.7 10 2.7 4.4 4.9h-6.8c-.2 0-.3.1-.5.2l-5.2 4.2c-.8-2.3-2.9-3.9-5.4-3.9h-.7v-6.5c1-.1 2-.4 2.9-.9zM71.6 85H71c-.3 0-.5.1-.6.4-.1.2-.2.5 0 .7.3.6.4 1.2.4 1.8a4.23 4.23 0 0 1-4.2 4.2 4.23 4.23 0 0 1-4.2-4.2c0-.6.1-1.2.4-1.8.1-.2.1-.5 0-.7-.3-.3-.6-.4-.8-.4H50.9v-9.9h.6c3.2 0 5.7-2.6 5.7-5.7 0-3.2-2.6-5.7-5.7-5.7h-.6v-9.9h10c-.1.4-.2.9-.2 1.4 0 3.2 2.6 5.7 5.7 5.7 3.2 0 5.7-2.6 5.7-5.7 0-.5-.1-.9-.2-1.4h2.8c1.8 2.2 4.5 3.4 7.2 3.4v7.3c0 .2.1.5.3.6s.4.2.7.1c.4-.1.8-.2 1.2-.2a4.23 4.23 0 0 1 4.2 4.2 4.23 4.23 0 0 1-4.2 4.2c-.4 0-.8-.1-1.2-.2-.2-.1-.5 0-.7.1s-.3.4-.3.6v7.2c-2-.2-3.7-.3-5.1-.4-2.3.3-4.5 1.9-5.2 4.3z"/><circle fill="#e6e9ee" cx="14.9" cy="114.2" r="2.6"/><g fill="#84dbff"><circle cx="115.3" cy="11" r="2.6"/><circle cx="98" cy="40.8" r="2.6"/></g><circle fill="#e6e9ee" cx="3.4" cy="3.4" r="2.6"/><circle fill="#fff" cx="10" cy="55.3" r="2.2"/><path fill="#231f20" d="M10 58.3a3.01 3.01 0 0 1-3-3 3.01 3.01 0 0 1 3-3c1.7 0 3 1.3 3 3s-1.3 3-3 3zm0-4.5a1.54 1.54 0 0 0-1.5 1.5 1.54 1.54 0 0 0 1.5 1.5 1.54 1.54 0 0 0 1.5-1.5 1.54 1.54 0 0 0-1.5-1.5z"/><circle fill="#fff" cx="90.5" cy="3.4" r="2.2"/><path fill="#231f20" d="M90.5,6.3c-1.6,0-3-1.3-3-3c0-1.6,1.3-3,3-3c1.6,0,3,1.3,3,3C93.5,5,92.1,6.3,90.5,6.3z M90.5,1.9 c-0.8,0-1.5,0.7-1.5,1.5s0.7,1.5,1.5,1.5c0.8,0,1.5-0.7,1.5-1.5S91.3,1.9,90.5,1.9z"/><defs ><path id="B" d="M34.7 83.4c-.2 0-.4-.1-.5-.2-.3-.3-.3-.8 0-1.1l1.3-1.3c.3-.3.8-.3 1.1 0s.3.8 0 1.1l-1.3 1.3c-.2.1-.4.2-.6.2z"/><path id="C" d="M32 83.4c-.2 0-.4-.1-.5-.2l-1.3-1.3c-.3-.3-.3-.8 0-1.1s.8-.3 1.1 0l1.3 1.3c.3.3.3.8 0 1.1-.2.1-.4.2-.6.2z"/></defs></svg>