<?xml version="1.0" encoding="utf-8"?>
<!-- Generator: Adobe Illustrator 18.0.0, SVG Export Plug-In . SVG Version: 6.00 Build 0)  -->
<!DOCTYPE svg PUBLIC "-//W3C//DTD SVG 1.1//EN" "http://www.w3.org/Graphics/SVG/1.1/DTD/svg11.dtd">
<svg version="1.1" id="Layer_1" xmlns="http://www.w3.org/2000/svg" xmlns:xlink="http://www.w3.org/1999/xlink" x="0px" y="0px"
	 viewBox="0 0 129.5 129.5" enable-background="new 0 0 129.5 129.5" xml:space="preserve">
<g>
	<g>
		<path fill="#FFD05B" d="M71.7,96.4l-7-5l7-4.4l6.3,2.2l16.8-9.3c1.8-1,3.9-1.5,5.9-1.5c2.8,0,5.5,1,7.6,2.7L95.4,92.3l-15.9,4.1
			H71.7z"/>
		<polygon fill="#FFFFFF" points="94.5,0.8 94.5,85.2 111.3,85.2 111.3,62.8 98,0.8 		"/>
		<rect x="89.2" y="9.7" fill="#FFFFFF" width="5.3" height="75.5"/>
		<rect x="46.1" y="20.5" fill="#FFFFFF" width="8.8" height="64.7"/>
		<g>
			<rect x="48.1" y="22.5" fill="#E6E9EE" width="4.7" height="60.7"/>
		</g>
		<rect x="54.9" y="27" fill="#FFFFFF" width="9.8" height="58.2"/>
		<g>
			<rect x="56.9" y="29" fill="#E6E9EE" width="5.8" height="54.1"/>
		</g>
		<rect x="59.8" y="51.1" fill="#FFFFFF" width="24" height="34.1"/>
		<g>
			<rect x="61.8" y="53.1" fill="#FF7058" width="20" height="30.1"/>
		</g>
		<polygon fill="#FFFFFF" points="48.8,20.5 48.8,13.6 59.8,13.6 59.8,27 54.9,27 54.9,20.5 		"/>
		<g>
			<polygon fill="#E6E9EE" points="56.9,25 56.9,18.5 50.8,18.5 50.8,15.6 57.8,15.6 57.8,25 			"/>
		</g>
		<g>
			<rect x="63.8" y="54.9" fill="#FFFFFF" width="1.8" height="1.5"/>
		</g>
		<g>
			<rect x="68.4" y="54.9" fill="#FFFFFF" width="1.8" height="1.5"/>
		</g>
		<g>
			<rect x="73" y="54.9" fill="#FFFFFF" width="1.9" height="1.5"/>
		</g>
		<g>
			<rect x="77.6" y="54.9" fill="#FFFFFF" width="1.9" height="1.5"/>
		</g>
		<g>
			<rect x="63.8" y="58.7" fill="#FFFFFF" width="1.8" height="1.5"/>
		</g>
		<g>
			<rect x="68.4" y="58.7" fill="#FFFFFF" width="1.8" height="1.5"/>
		</g>
		<g>
			<rect x="73" y="58.7" fill="#FFFFFF" width="1.9" height="1.5"/>
		</g>
		<g>
			<rect x="77.6" y="58.7" fill="#FFFFFF" width="1.9" height="1.5"/>
		</g>
		<g>
			<rect x="63.8" y="62.6" fill="#FFFFFF" width="1.8" height="1.5"/>
		</g>
		<g>
			<rect x="68.4" y="62.6" fill="#FFFFFF" width="1.8" height="1.5"/>
		</g>
		<g>
			<rect x="73" y="62.6" fill="#FFFFFF" width="1.9" height="1.5"/>
		</g>
		<g>
			<rect x="77.6" y="62.6" fill="#FFFFFF" width="1.9" height="1.5"/>
		</g>
		<g>
			<rect x="63.8" y="66.4" fill="#FFFFFF" width="1.8" height="1.5"/>
		</g>
		<g>
			<rect x="68.4" y="66.4" fill="#FFFFFF" width="1.8" height="1.5"/>
		</g>
		<g>
			<rect x="73" y="66.4" fill="#FFFFFF" width="1.9" height="1.5"/>
		</g>
		<g>
			<rect x="77.6" y="66.4" fill="#FFFFFF" width="1.9" height="1.5"/>
		</g>
		<g>
			<rect x="63.8" y="70.2" fill="#FFFFFF" width="1.8" height="1.5"/>
		</g>
		<g>
			<rect x="68.4" y="70.2" fill="#FFFFFF" width="1.8" height="1.5"/>
		</g>
		<g>
			<rect x="73" y="70.2" fill="#FFFFFF" width="1.9" height="1.5"/>
		</g>
		<g>
			<rect x="77.6" y="70.2" fill="#FFFFFF" width="1.9" height="1.5"/>
		</g>
		<g>
			<rect x="63.8" y="74.1" fill="#FFFFFF" width="1.8" height="1.5"/>
		</g>
		<g>
			<rect x="68.4" y="74.1" fill="#FFFFFF" width="1.8" height="1.5"/>
		</g>
		<g>
			<rect x="73" y="74.1" fill="#FFFFFF" width="1.9" height="1.5"/>
		</g>
		<g>
			<rect x="77.6" y="74.1" fill="#FFFFFF" width="1.9" height="1.5"/>
		</g>
		<rect x="97.6" y="12.1" fill="#231F20" width="3" height="1.5"/>
		<rect x="97.6" y="19.8" fill="#231F20" width="4.8" height="1.5"/>
		<rect x="97.6" y="27.5" fill="#231F20" width="6.3" height="1.5"/>
		<g>
			<path fill="#231F20" d="M17.2,12.2c-0.2,0-0.4-0.1-0.5-0.2c-0.3-0.3-0.3-0.8,0-1.1l1.3-1.3c0.3-0.3,0.8-0.3,1.1,0
				c0.3,0.3,0.3,0.8,0,1.1L17.7,12C17.5,12.1,17.3,12.2,17.2,12.2z"/>
		</g>
		<g>
			<path fill="#231F20" d="M13.1,16.3c-0.2,0-0.4-0.1-0.5-0.2c-0.3-0.3-0.3-0.8,0-1.1l1.3-1.3c0.3-0.3,0.8-0.3,1.1,0
				c0.3,0.3,0.3,0.8,0,1.1L13.6,16C13.5,16.2,13.3,16.3,13.1,16.3z"/>
		</g>
		<g>
			<path fill="#231F20" d="M18.4,16.3c-0.2,0-0.4-0.1-0.5-0.2l-1.3-1.3c-0.3-0.3-0.3-0.8,0-1.1c0.3-0.3,0.8-0.3,1.1,0L19,15
				c0.3,0.3,0.3,0.8,0,1.1C18.8,16.2,18.6,16.3,18.4,16.3z"/>
		</g>
		<g>
			<path fill="#231F20" d="M14.4,12.2c-0.2,0-0.4-0.1-0.5-0.2l-1.3-1.3c-0.3-0.3-0.3-0.8,0-1.1c0.3-0.3,0.8-0.3,1.1,0l1.3,1.3
				c0.3,0.3,0.3,0.8,0,1.1C14.8,12.1,14.6,12.2,14.4,12.2z"/>
		</g>
		<g>
			<path fill="#231F20" d="M118.3,13c-0.2,0-0.4-0.1-0.5-0.2c-0.3-0.3-0.3-0.8,0-1.1l1.3-1.3c0.3-0.3,0.8-0.3,1.1,0
				c0.3,0.3,0.3,0.8,0,1.1l-1.3,1.3C118.6,12.9,118.5,13,118.3,13z"/>
		</g>
		<g>
			<path fill="#231F20" d="M114.2,17c-0.2,0-0.4-0.1-0.5-0.2c-0.3-0.3-0.3-0.8,0-1.1l1.3-1.3c0.3-0.3,0.8-0.3,1.1,0
				c0.3,0.3,0.3,0.8,0,1.1l-1.3,1.3C114.6,16.9,114.4,17,114.2,17z"/>
		</g>
		<g>
			<path fill="#231F20" d="M119.6,17c-0.2,0-0.4-0.1-0.5-0.2l-1.3-1.3c-0.3-0.3-0.3-0.8,0-1.1c0.3-0.3,0.8-0.3,1.1,0l1.3,1.3
				c0.3,0.3,0.3,0.8,0,1.1C119.9,16.9,119.7,17,119.6,17z"/>
		</g>
		<g>
			<path fill="#231F20" d="M115.5,13c-0.2,0-0.4-0.1-0.5-0.2l-1.3-1.3c-0.3-0.3-0.3-0.8,0-1.1c0.3-0.3,0.8-0.3,1.1,0l1.3,1.3
				c0.3,0.3,0.3,0.8,0,1.1C115.9,12.9,115.7,13,115.5,13z"/>
		</g>
		<g>
			<path fill="#231F20" d="M24.9,56.2c-0.2,0-0.4-0.1-0.5-0.2c-0.3-0.3-0.3-0.8,0-1.1l1.3-1.3c0.3-0.3,0.8-0.3,1.1,0
				c0.3,0.3,0.3,0.8,0,1.1L25.4,56C25.3,56.1,25.1,56.2,24.9,56.2z"/>
		</g>
		<g>
			<path fill="#231F20" d="M20.9,60.2c-0.2,0-0.4-0.1-0.5-0.2c-0.3-0.3-0.3-0.8,0-1.1l1.3-1.3c0.3-0.3,0.8-0.3,1.1,0
				c0.3,0.3,0.3,0.8,0,1.1L21.4,60C21.3,60.1,21.1,60.2,20.9,60.2z"/>
		</g>
		<g>
			<path fill="#231F20" d="M26.2,60.2c-0.2,0-0.4-0.1-0.5-0.2l-1.3-1.3c-0.3-0.3-0.3-0.8,0-1.1c0.3-0.3,0.8-0.3,1.1,0l1.3,1.3
				c0.3,0.3,0.3,0.8,0,1.1C26.6,60.1,26.4,60.2,26.2,60.2z"/>
		</g>
		<g>
			<path fill="#231F20" d="M22.2,56.2c-0.2,0-0.4-0.1-0.5-0.2l-1.3-1.3c-0.3-0.3-0.3-0.8,0-1.1s0.8-0.3,1.1,0l1.3,1.3
				c0.3,0.3,0.3,0.8,0,1.1C22.5,56.1,22.3,56.2,22.2,56.2z"/>
		</g>
		<g>
			<path fill="#231F20" d="M21.2,44.6h-8.1c-0.4,0-0.8-0.3-0.8-0.8c0-0.4,0.3-0.8,0.8-0.8h8.1c0.4,0,0.8,0.3,0.8,0.8
				C21.9,44.3,21.6,44.6,21.2,44.6z"/>
		</g>
		<g>
			<path fill="#231F20" d="M24.4,47.6h-4c-0.4,0-0.8-0.3-0.8-0.8c0-0.4,0.3-0.8,0.8-0.8h4c0.4,0,0.8,0.3,0.8,0.8
				C25.1,47.2,24.8,47.6,24.4,47.6z"/>
		</g>
		<g>
			<path fill="#231F20" d="M28.7,44.6h-3.8c-0.4,0-0.8-0.3-0.8-0.8c0-0.4,0.3-0.8,0.8-0.8h3.8c0.4,0,0.8,0.3,0.8,0.8
				C29.4,44.3,29.1,44.6,28.7,44.6z"/>
		</g>
		<g>
			<path fill="#231F20" d="M17.5,47.6h-0.8c-0.4,0-0.8-0.3-0.8-0.8c0-0.4,0.3-0.8,0.8-0.8h0.8c0.4,0,0.8,0.3,0.8,0.8
				C18.3,47.2,17.9,47.6,17.5,47.6z"/>
		</g>
		<g>
			<path fill="#231F20" d="M118.6,31.1h-8.1c-0.4,0-0.8-0.3-0.8-0.8c0-0.4,0.3-0.8,0.8-0.8h8.1c0.4,0,0.8,0.3,0.8,0.8
				C119.3,30.7,119,31.1,118.6,31.1z"/>
		</g>
		<g>
			<path fill="#231F20" d="M121.8,34h-4c-0.4,0-0.8-0.3-0.8-0.8s0.3-0.8,0.8-0.8h4c0.4,0,0.8,0.3,0.8,0.8S122.2,34,121.8,34z"/>
		</g>
		<g>
			<path fill="#231F20" d="M126.1,31.1h-3.8c-0.4,0-0.8-0.3-0.8-0.8c0-0.4,0.3-0.8,0.8-0.8h3.8c0.4,0,0.8,0.3,0.8,0.8
				C126.8,30.7,126.5,31.1,126.1,31.1z"/>
		</g>
		<g>
			<path fill="#231F20" d="M114.9,34h-0.8c-0.4,0-0.8-0.3-0.8-0.8s0.3-0.8,0.8-0.8h0.8c0.4,0,0.8,0.3,0.8,0.8S115.3,34,114.9,34z"/>
		</g>
		<path fill="#FFFFFF" d="M52.8,93c-1.1,0-1.9,0.9-1.9,1.9c0,1.1,0.9,1.9,1.9,1.9h13V93H52.8z"/>
		<path fill="#231F20" d="M65.9,95.7h-13c-0.4,0-0.8-0.3-0.8-0.8c0-0.4,0.3-0.8,0.8-0.8h13c0.4,0,0.8,0.3,0.8,0.8
			C66.6,95.4,66.3,95.7,65.9,95.7z"/>
		<path fill="#FFFFFF" d="M108.8,82.2L86.1,94.9H65.9C73.1,94.9,79,89,79,81.8H34.2l-15.3,16v24.4h13.1c1.4,0,2.7-0.1,4.1-0.4
			L84.4,111c4.9-1.1,9.5-3.2,13.4-6.3l28.7-22.1C121.2,79.2,114.4,79.1,108.8,82.2z"/>
		<path fill="#FFD05B" d="M20.9,120.3V98.6l14.2-14.9h41.9C76,89,71.4,93,65.9,93v3.9h20.8l23.1-13c2.3-1.3,4.9-2,7.5-2
			c2,0,3.9,0.4,5.7,1.1l-26.3,20.2c-3.7,2.9-8.1,4.9-12.7,5.9l-48.3,10.7c-1.2,0.3-2.4,0.4-3.6,0.4H20.9z"/>
		<line fill="#FFFFFF" x1="100.7" y1="85.2" x2="81.2" y2="85.2"/>
		<path fill="#231F20" d="M127,82.1c-2.9-1.9-6.3-2.8-9.7-2.8c-1.8,0-3.5,0.3-5.2,0.8V62.7L98.7,0.6L98.6,0h-4.8v9h-5.3v71.3
			l-3.9,2.2V50.4H65.4V26.3h-4.9V12.8H55V0.8h-1.5v12.1h-5.5v6.9h-2.7V81H34.2c-0.2,0-0.4,0.1-0.5,0.2l-14,14.7V92
			c0-0.4-0.3-0.8-0.8-0.8H3c-0.4,0-0.8,0.3-0.8,0.8v36.7c0,0.4,0.3,0.8,0.8,0.8h16c0.4,0,0.8-0.3,0.8-0.8V123h12.4
			c1.4,0,2.8-0.2,4.2-0.5l48.3-10.7c5-1.1,9.7-3.3,13.7-6.4L127,83.3c0.2-0.1,0.3-0.4,0.3-0.6C127.3,82.4,127.2,82.2,127,82.1z
			 M18.2,128H3.7V92.8h14.5V128z M95.2,1.5h2.1l7.2,33.6h-7v1.5h7.4l1.3,6.2h-8.7v1.5h9l1.3,6.2H97.6V52h10.7l1.3,6.2h-12v1.5h12.3
			l0.7,3.2v3h-13v1.5h13v6.2h-13v1.5h13v5.4c-0.7,0.3-1.4,0.6-2.1,1l-5.2,2.9h-8V1.5z M100.6,85.9l-14.7,8.3H72.1
			c3.3-1.7,5.9-4.7,7-8.3H100.6z M89.9,10.5h3.8v74h-3.8V10.5z M88.4,82v2.4h-3.9v-0.2L88.4,82z M83,51.9v32.6h-3.5
			c0.2-0.9,0.3-1.8,0.3-2.7c0-0.4-0.3-0.8-0.8-0.8H60.5V51.9H83z M63.9,27.8v22.6H59V81h-3.4V27.8H63.9z M49.6,14.3H59v12h-3.4v-6.5
			h-6.1V14.3z M46.9,21.3h7.3V81h-7.3V21.3z M97.4,104.2c-3.9,3-8.4,5.1-13.1,6.1L36,121c-1.3,0.3-2.6,0.4-3.9,0.4H19.7V98.1
			l14.9-15.6h43.7c-0.4,6.5-5.8,11.7-12.4,11.7c-0.4,0-0.8,0.3-0.8,0.8c0,0.4,0.3,0.8,0.8,0.8h20.3c0.1,0,0.3,0,0.4-0.1l22.7-12.8
			c2.5-1.4,5.2-2.1,8.1-2.1c2.8,0,5.5,0.7,8,2.1L97.4,104.2z"/>
		<path fill="#231F20" d="M10.9,125.2c-2.1,0-3.7-1.7-3.7-3.7c0-2.1,1.7-3.7,3.7-3.7s3.7,1.7,3.7,3.7
			C14.7,123.5,13,125.2,10.9,125.2z M10.9,119.2c-1.2,0-2.2,1-2.2,2.2c0,1.2,1,2.2,2.2,2.2c1.2,0,2.2-1,2.2-2.2
			C13.2,120.2,12.2,119.2,10.9,119.2z"/>
		<circle fill="#54C0EB" cx="74.6" cy="16.2" r="1.8"/>
		<circle fill="#FF7058" cx="32.8" cy="17.3" r="1.6"/>
		<circle fill="#CED5E0" cx="13.3" cy="76.9" r="2.6"/>
	</g>
</g>
</svg>
