<svg xmlns="http://www.w3.org/2000/svg" xmlns:xlink="http://www.w3.org/1999/xlink" viewBox="0 0 129.5 129.5"><g fill="#231F20"><use xlink:href="#B"/><use xlink:href="#B" x="-4" y="4"/><use xlink:href="#C"/><use xlink:href="#C" x="-4" y="-4"/><path d="M76.7 119.5c-.2 0-.4-.1-.5-.2-.3-.3-.3-.8 0-1.1l1.3-1.3c.3-.3.8-.3 1.1 0s.3.8 0 1.1l-1.3 1.3c-.3.2-.4.2-.6.2z"/><use xlink:href="#B" x="-43.4" y="55.3"/><use xlink:href="#C" x="-39.4" y="51.3"/><path d="M73.9 119.5c-.2 0-.4-.1-.5-.2l-1.3-1.3c-.3-.3-.3-.8 0-1.1s.8-.3 1.1 0l1.3 1.3c.3.3.3.8 0 1.1-.2.2-.4.2-.6.2z"/><use xlink:href="#B" x="-56.8" y="-53.4"/><use xlink:href="#B" x="-60.8" y="-49.4"/><use xlink:href="#C" x="-56.8" y="-53.4"/><path d="M56.5 14.9c-.2 0-.4-.1-.5-.2l-1.3-1.3c-.3-.3-.3-.8 0-1.1s.8-.3 1.1 0l1.3 1.3c.3.3.3.8 0 1.1-.3.1-.4.2-.6.2z"/></g><path d="M67 87.9c-.7-5.2-2.8-10.1-5.8-14.1l3.5-4.5-5.2-5.2-4.5 3.5c-4-3-8.9-5.1-14.1-5.8l-.7-5.6h-7.4l-.7 5.6c-5.2.7-10.1 2.8-14.1 5.8l-4.5-3.5-5.2 5.2 3.5 4.5c-3 4-5.1 8.9-5.8 14.1l-5.6.7V96l5.6.6c.7 5.2 2.8 10.1 5.8 14.1l-3.5 4.5 5.2 5.2 4.5-3.5c4 3 8.9 5.1 14.1 5.8l.7 5.6h7.4l.7-5.6c5.2-.7 10.1-2.8 14.1-5.8l4.5 3.5 5.2-5.2-3.5-4.5c3-4 5.1-8.9 5.8-14.1l5.6-.7v-7.4l-5.6-.6zm-30.5 25.7c-11.8 0-21.3-9.6-21.3-21.3 0-11.8 9.6-21.3 21.3-21.3 11.8 0 21.3 9.6 21.3 21.3s-9.5 21.3-21.3 21.3z" fill="#fff"/><path d="M40.2 129.1h-7.4a.68.68 0 0 1-.7-.7l-.6-5.1c-4.8-.8-9.4-2.7-13.4-5.5l-4 3.1c-.3.2-.7.2-1-.1l-5.2-5.2c-.3-.3-.3-.7-.1-1l3.1-4c-2.9-4-4.8-8.6-5.5-13.4l-5.1-.6c-.4 0-.7-.4-.7-.7v-7.4a.68.68 0 0 1 .7-.7l5.1-.6c.8-4.8 2.7-9.4 5.5-13.4l-3.1-4c-.2-.3-.2-.7.1-1l5.2-5.2c.3-.3.7-.3 1-.1l4 3.1c4-2.9 8.6-4.8 13.4-5.5l.6-5.1c0-.4.4-.7.7-.7h7.4a.68.68 0 0 1 .7.7l.6 5.1c4.8.8 9.4 2.7 13.4 5.5l4-3.1c.3-.2.7-.2 1 .1l5.2 5.2c.3.3.3.7.1 1l-3.1 4c2.9 4 4.8 8.6 5.5 13.4l5.1.6c.4 0 .7.4.7.7v7.4a.68.68 0 0 1-.7.7l-5.1.6c-.8 4.8-2.7 9.4-5.5 13.4l3.1 4c.2.3.2.7-.1 1l-5.2 5.2c-.3.3-.7.3-1 .1l-4-3.1c-4 2.9-8.6 4.8-13.4 5.5l-.6 5.1a.68.68 0 0 1-.7.7zm-6.7-1.5h6.1l.6-5c0-.3.3-.6.6-.7 5-.7 9.7-2.7 13.8-5.7.3-.2.6-.2.9 0l3.9 3.1 4.3-4.3-3.1-3.9c-.2-.3-.2-.6 0-.9 3-4 5-8.8 5.7-13.8 0-.3.3-.6.7-.6l5-.6v-6.1l-5-.6c-.3 0-.6-.3-.7-.6-.7-5-2.7-9.7-5.7-13.8-.2-.3-.2-.6 0-.9l3.1-3.9-4.3-4.3-3.9 3.1c-.3.2-.6.2-.9 0-4-3-8.8-5-13.8-5.7-.3 0-.6-.3-.6-.7l-.6-5h-6.1l-.6 5c0 .3-.3.6-.6.7-5 .7-9.7 2.7-13.7 5.7-.3.2-.6.2-.9 0L13.8 65l-4.3 4.3 3.1 3.9c.2.3.2.6 0 .9-3 4-5 8.8-5.7 13.8 0 .3-.3.6-.7.6l-5 .6v6.1l5 .6c.3 0 .6.3.7.6.7 5 2.7 9.7 5.7 13.8.2.3.2.6 0 .9L9.5 115l4.3 4.3 3.9-3.1c.3-.2.6-.2.9 0 4 3 8.8 5 13.7 5.7.3 0 .6.3.6.7l.6 5zm3-13.3c-12.2 0-22.1-9.9-22.1-22.1s9.9-22.1 22.1-22.1S58.6 80 58.6 92.2s-9.9 22.1-22.1 22.1zm0-42.6c-11.3 0-20.6 9.2-20.6 20.6 0 11.3 9.2 20.6 20.6 20.6 11.3 0 20.6-9.2 20.6-20.6s-9.3-20.6-20.6-20.6z" fill="#231F20"/><path d="M34.6 126.4l-.7-5.4-1.5-.2c-4.8-.7-9.3-2.6-13.2-5.5l-1.2-.9-4.3 3.4L11 115l3.4-4.3-.9-1.2c-2.9-3.9-4.8-8.4-5.5-13.2l-.2-1.5-5.4-.7v-3.8l5.4-.7.2-1.5c.7-4.8 2.6-9.3 5.5-13.2l.9-1.2-3.4-4.2 2.7-2.7 4.3 3.4 1.2-.9c3.9-2.9 8.4-4.8 13.2-5.5l1.5-.2.7-5.4h3.8l.7 5.4 1.5.2c4.8.7 9.3 2.6 13.2 5.5l1.2.9 4.3-3.4 2.7 2.7-3.4 4.3.9 1.2c2.9 3.9 4.8 8.4 5.5 13.2l.2 1.5 5.4.7v3.8l-5.4.7-.2 1.4c-.7 4.8-2.6 9.3-5.5 13.2l-.9 1.2L62 115l-2.7 2.7-4.3-3.4-1.2.9c-3.9 2.9-8.4 4.8-13.2 5.5l-1.5.2-.7 5.4h-3.8zm1.9-57.5c-6.2 0-12.1 2.4-16.5 6.8S13.2 86 13.2 92.2c0 12.9 10.5 23.3 23.3 23.3S59.8 105 59.8 92.2 49.4 68.9 36.5 68.9z" fill="#CED5E0"/><path d="M124.9 19.5c-.5-2.2-1.3-4.2-2.5-6l2.3-3.6-4.4-4.4-3.6 2.3c-1.8-1.2-3.8-2-6-2.5l-.9-4.2h-6.2l-.9 4.2c-2.2.5-4.2 1.3-6 2.5l-3.6-2.3-4.4 4.4 2.3 3.6c-1.2 1.8-2 3.8-2.5 6l-4.2.9v6.2l4.2.9c.5 2.2 1.3 4.2 2.5 6l-2.3 3.6 4.4 4.4 3.6-2.3c1.8 1.2 3.8 2 6 2.5l.9 4.2h6.2l.9-4.2c2.2-.5 4.2-1.3 6-2.5l3.6 2.3 4.4-4.4-2.3-3.6c1.2-1.8 2-3.8 2.5-6l4.2-.9v-6.2l-4.2-.9zm-18.2 16c-6.6 0-11.9-5.3-11.9-11.9s5.3-11.9 11.9-11.9 11.9 5.3 11.9 11.9c0 6.5-5.3 11.9-11.9 11.9z" fill="#fff"/><path d="M103.6 46.7c-.4 0-.7-.2-.7-.6l-.8-3.7c-1.9-.5-3.7-1.2-5.4-2.2l-3.2 2.1c-.3.2-.7.1-.9-.1l-4.4-4.4c-.2-.2-.3-.6-.1-.9l2.1-3.2c-1-1.7-1.8-3.5-2.2-5.4l-3.7-.8c-.3-.1-.6-.4-.6-.7v-6.2c0-.4.2-.7.6-.7l3.7-.8c.5-1.9 1.2-3.7 2.2-5.4L88 10.3c-.2-.3-.1-.7.1-.9L92.5 5c.2-.2.6-.3.9-.1L96.6 7c1.7-1 3.5-1.8 5.4-2.2l.8-3.7c.1-.3.4-.6.7-.6h6.2c.4 0 .7.2.7.6l.8 3.7c1.9.5 3.7 1.2 5.4 2.2l3.2-2.1c.3-.2.7-.1.9.1l4.4 4.4c.2.2.3.6.1.9l-2.1 3.2c1 1.7 1.8 3.5 2.2 5.4l3.7.8c.3.1.6.4.6.7v6.2c0 .4-.2.7-.6.7l-3.7.8c-.5 1.9-1.2 3.7-2.2 5.4l2.1 3.2c.2.3.1.7-.1.9l-4.4 4.4c-.2.2-.6.3-.9.1l-3.2-2.1c-1.7 1-3.5 1.8-5.4 2.2l-.8 3.7c-.1.3-.4.6-.7.6l-6.1.2zm-6.9-8.2c.1 0 .3 0 .4.1 1.8 1.1 3.7 1.9 5.8 2.4a.9.9 0 0 1 .6.6l.8 3.6h5l.8-3.6a.9.9 0 0 1 .6-.6c2-.4 4-1.3 5.8-2.4a.61.61 0 0 1 .8 0l3.1 2 3.5-3.5-2-3.1a.61.61 0 0 1 0-.8c1.1-1.8 1.9-3.7 2.4-5.8a.9.9 0 0 1 .6-.6l3.6-.8v-5l-3.6-.8a.9.9 0 0 1-.6-.6c-.4-2-1.3-4-2.4-5.8a.61.61 0 0 1 0-.8l2-3.1-3.5-3.5-3.1 2a.61.61 0 0 1-.8 0c-1.8-1.1-3.7-1.9-5.8-2.4a.9.9 0 0 1-.6-.6l-.8-3.6h-5l-.8 3.6a.9.9 0 0 1-.6.6c-2 .4-4 1.3-5.8 2.4a.61.61 0 0 1-.8 0l-3.1-2-3.6 3.6 2 3.1a.61.61 0 0 1 0 .8c-1.1 1.8-1.9 3.7-2.4 5.8a.9.9 0 0 1-.6.6l-3.5.7v5l3.6.8a.9.9 0 0 1 .6.6c.4 2 1.3 4 2.4 5.8a.61.61 0 0 1 0 .8l-2 3.1 3.5 3.5 3.1-2c.1 0 .2-.1.4-.1zm10-2.3c-7 0-12.7-5.7-12.7-12.7s5.7-12.7 12.7-12.7 12.7 5.7 12.7 12.7-5.7 12.7-12.7 12.7zm0-23.8c-6.2 0-11.2 5-11.2 11.2s5 11.2 11.2 11.2 11.2-5 11.2-11.2-5-11.2-11.2-11.2z" fill="#231F20"/><path d="M105.2 44l-.8-3.9-1.2-.3c-1.9-.4-3.7-1.2-5.4-2.2l-1.1-.7-3.4 2.1-2.1-2.1 2.1-3.3-.7-1.1c-1.1-1.7-1.8-3.5-2.2-5.4l-.3-1.3-3.8-.8v-3l3.9-.8.3-1.2c.4-1.9 1.2-3.7 2.2-5.4l.7-1.1-2.1-3.3 2-2.2 3.3 2.1 1.1-.7c1.7-1.1 3.5-1.8 5.4-2.2l1.2-.3.8-3.9h3l.8 3.9 1.2.3c1.9.4 3.7 1.2 5.4 2.2l1.1.7 3.3-2.1 2.1 2.1-2.1 3.3.7 1.1c1.1 1.7 1.8 3.5 2.2 5.4l.3 1.2 3.9.8v3l-3.9.8-.3 1.3c-.4 1.9-1.2 3.7-2.2 5.4l-.7 1.1 2.1 3.3-2.1 2.1-3.3-2.1-1.1.7c-1.7 1.1-3.5 1.8-5.4 2.2l-1.2.3-.8 3.9h-2.9zm1.5-34.4c-7.7 0-13.9 6.3-13.9 13.9a13.87 13.87 0 0 0 13.9 13.9c7.7 0 13.9-6.3 13.9-13.9s-6.2-13.9-13.9-13.9z" fill="#FFD05B"/><circle cx="106.7" cy="23.5" r="5.5" fill="#fff"/><path d="M106.7 29.8c-3.5 0-6.3-2.8-6.3-6.3s2.8-6.3 6.3-6.3 6.3 2.8 6.3 6.3-2.8 6.3-6.3 6.3zm0-11c-2.6 0-4.8 2.1-4.8 4.8s2.1 4.8 4.8 4.8c2.6 0 4.8-2.1 4.8-4.8s-2.2-4.8-4.8-4.8zm-32.3 86.7l-1.2-.9.6-.8 1.2.9-.6.8zm1.8-2.5l-1.2-.9.6-.8 1.2.9-.6.8zm1.7-2.4l-1.2-.9.6-.8 1.2.9-.6.8zm1.8-2.4l-1.2-.9.6-.8 1.2.9-.6.8zm1.7-2.5l-1.2-.9.6-.8 1.2.9-.6.8zm1.7-2.4l-1.2-.9.6-.8 1.2.9-.6.8zm1.8-2.4l-1.2-.9.6-.8 1.2.9-.6.8zm1.7-2.5l-1.2-.9.6-.8 1.2.9-.6.8zm1.8-2.4l-1.2-.9.6-.8 1.2.9-.6.8zm1.7-2.5l-1.2-.9.6-.8 1.2.9-.6.8zm1.8-2.4l-1.2-.9.6-.8 1.2.9-.6.8zm1.7-2.4l-1.2-.9.6-.8 1.2.9-.6.8zm1.8-2.5l-1.2-.9.6-.8 1.2.9-.6.8zm1.7-2.4l-1.2-.9.6-.8 1.2.9-.6.8zm1.8-2.4l-1.2-.9.6-.8 1.2.9-.6.8zm1.7-2.5l-1.2-.9.6-.8 1.2.9-.6.8zm1.8-2.4l-1.2-.9.6-.8 1.2.9-.6.8zm1.7-2.5l-1.2-.9.6-.8 1.2.9-.6.8zm1.8-2.4l-1.2-.9.6-.8 1.2.9-.6.8zm1.7-2.4l-1.2-.9.6-.8 1.2.9-.6.8zm1.8-2.5l-1.2-.9.6-.8 1.2.9-.6.8zm1.7-2.4l-1.2-.9.3-.4 1.2.9-.3.4zm-85.4 2.8l-.9-1.2.4-.3.9 1.2-.4.3zm2-1.5l-.9-1.2.8-.6.9 1.2-.8.6zm2.4-1.8l-.9-1.2.8-.6.9 1.2-.8.6zm2.5-1.7l-.9-1.2.8-.6.9 1.2-.8.6zm2.4-1.7l-.9-1.2.8-.6.9 1.2-.8.6zm2.5-1.8l-.9-1.2.8-.6.9 1.2-.8.6zm2.4-1.7l-.9-1.3.8-.6.9 1.2-.8.7zm2.4-1.8l-.9-1.2.8-.6.9 1.2-.8.6zm2.5-1.7l-.9-1.2.8-.6.9 1.2-.8.6zm2.4-1.8l-.9-1.2.8-.6.9 1.2-.8.6zm2.4-1.7l-.9-1.2.8-.6.9 1.2-.8.6zm2.5-1.8l-.9-1.2.8-.6.9 1.2-.8.6zm2.4-1.7l-.9-1.2.8-.6.9 1.2-.8.6zm2.5-1.8l-.9-1.2.8-.6.9 1.2-.8.6zm2.4-1.7l-.9-1.2.8-.6.9 1.2-.8.6zm2.4-1.8l-.8-1.2.8-.6.9 1.2-.9.6zm2.5-1.7l-.9-1.2.8-.6.9 1.2-.8.6zm2.4-1.8l-.9-1.2.8-.6.9 1.2-.8.6zm2.5-1.7l-.9-1.2.8-.6.9 1.2-.8.6zm2.4-1.8l-.9-1.2.8-.6.9 1.2-.8.6zm2.4-1.7l-.9-1.2.8-.6.9 1.2-.8.6zm2.5-1.8l-.9-1.2.8-.6.9 1.2-.8.6zM36 10.2a17.99 17.99 0 0 0-12.1-4.7 17.99 17.99 0 0 0-12.1 4.7c-3.8 3.4-6 8.3-6 13.3 0 5.1 2.1 9.9 5.9 13.3a17.99 17.99 0 0 0 12.1 4.7 17.99 17.99 0 0 0 12.1-4.7c3.7-3.4 5.9-8.3 5.9-13.3s-2.1-9.9-5.8-13.3zm4.3 12.6h-6.7c-.1-6.6-2.1-12.1-5-15a17.03 17.03 0 0 1 6.4 3.6c3.2 2.9 5.1 7 5.3 11.4zM23.1 7.1v15.7h-7.5c.2-8.1 3.5-14.9 7.5-15.7zm0 17.2V40c-4-.8-7.3-7.6-7.5-15.7h7.5zM24.6 40V24.3h7.5c-.2 8.1-3.5 14.9-7.5 15.7zm0-17.2V7.1c4 .8 7.3 7.6 7.5 15.7h-7.5zM12.7 11.3c1.8-1.7 4-2.9 6.4-3.6-2.9 2.9-4.9 8.5-5 15.1H7.4c.2-4.4 2.1-8.5 5.3-11.5zm-5.3 13h6.7c.1 6.6 2.1 12.1 5.1 15.1-2.4-.7-4.5-1.9-6.4-3.6a16.65 16.65 0 0 1-5.4-11.5zM35 35.7c-1.8 1.7-4 2.9-6.4 3.6 2.9-2.9 4.9-8.5 5.1-15.1h6.7c-.3 4.4-2.2 8.6-5.4 11.5zm29.9 21.8c-5.3 0-9.6-4.3-9.6-9.6s4.3-9.6 9.6-9.6 9.6 4.3 9.6 9.6-4.3 9.6-9.6 9.6zm0-17.7c-4.5 0-8.1 3.6-8.1 8.1s3.6 8.1 8.1 8.1 8.1-3.6 8.1-8.1-3.6-8.1-8.1-8.1zm41.8 71.5c-3.5 0-6.3-2.8-6.3-6.3s2.8-6.3 6.3-6.3 6.3 2.8 6.3 6.3-2.8 6.3-6.3 6.3zm0-11c-2.6 0-4.8 2.1-4.8 4.8 0 2.6 2.1 4.8 4.8 4.8 2.6 0 4.8-2.1 4.8-4.8s-2.1-4.8-4.8-4.8zm2.5 25h-4.9c-.3 0-.7-.2-.7-.6l-1.2-5a18.77 18.77 0 0 1-3-1.2l-4.4 2.7c-.3.2-.7.1-.9-.1l-3.4-3.4c-.2-.2-.3-.6-.1-.9l2.7-4.4c-.5-.9-.9-1.9-1.2-3l-5-1.2c-.3-.1-.6-.4-.6-.7v-4.9c0-.3.2-.7.6-.7l5-1.2a18.77 18.77 0 0 1 1.2-3l-2.7-4.4c-.2-.3-.1-.7.1-.9l3.4-3.4c.2-.2.6-.3.9-.1l4.4 2.7c.9-.5 1.9-.9 3-1.2l1.2-5c.1-.3.4-.6.7-.6h4.9c.3 0 .7.2.7.6l1.2 5a18.77 18.77 0 0 1 3 1.2l4.4-2.7c.3-.2.7-.1.9.1l3.4 3.4c.2.2.3.6.1.9l-2.7 4.4c.5.9.9 1.9 1.2 3l5 1.2c.3.1.6.4.6.7v4.9c0 .3-.2.7-.6.7l-5 1.2a18.77 18.77 0 0 1-1.2 3l2.7 4.4c.2.3.1.7-.1.9l-3.4 3.4c-.2.2-.6.3-.9.1l-4.4-2.7c-.9.5-1.9.9-3 1.2l-1.2 5c-.1.3-.4.6-.7.6zm-4.3-1.5h3.7l1.1-4.8c.1-.3.3-.5.5-.6a12.81 12.81 0 0 0 3.4-1.4c.2-.1.5-.1.8 0l4.2 2.6 2.6-2.6-2.6-4.2c-.1-.2-.2-.5 0-.8.6-1.1 1.1-2.2 1.4-3.4.1-.3.3-.5.6-.5l4.8-1.1v-3.7l-4.8-1.1c-.3-.1-.5-.3-.6-.5a12.81 12.81 0 0 0-1.4-3.4c-.1-.2-.1-.5 0-.8l2.6-4.2-2.6-2.6-4.2 2.6c-.2.1-.5.2-.8 0-1.1-.6-2.2-1.1-3.4-1.4-.3-.1-.5-.3-.5-.6l-1.1-4.8h-3.7l-1.1 4.8c-.1.3-.3.5-.5.6a12.81 12.81 0 0 0-3.4 1.4c-.2.1-.5.1-.8 0l-4.2-2.6-2.6 2.6 2.6 4.2c.1.2.2.5 0 .8-.6 1.1-1.1 2.2-1.4 3.4-.1.3-.3.5-.6.5l-4.8 1.1v3.7l4.8 1.1c.3.1.5.3.6.5a12.81 12.81 0 0 0 1.4 3.4c.1.2.1.5 0 .8l-2.6 4.2 2.6 2.6L99 117c.2-.1.5-.2.8 0 1.1.6 2.2 1.1 3.4 1.4.3.1.5.3.5.6l1.2 4.8z" fill="#231F20"/><circle cx="76.6" cy="8.9" r="2.7" fill="#FF7058"/><circle cx="9.9" cy="55.3" r="2.7" fill="#FFD05B"/><circle cx="123.3" cy="60.9" r="2.7" fill="#E6E9EE"/><circle cx="87.2" cy="123" r="2.7" fill="#84DBFF"/><defs ><path id="B" d="M116 68.3c-.2 0-.4-.1-.5-.2-.3-.3-.3-.8 0-1.1l1.3-1.3c.3-.3.8-.3 1.1 0s.3.8 0 1.1l-1.3 1.3c-.2.1-.4.2-.6.2z"/><path id="C" d="M117.3 72.3c-.2 0-.4-.1-.5-.2l-1.3-1.3c-.3-.3-.3-.8 0-1.1s.8-.3 1.1 0l1.3 1.3c.3.3.3.8 0 1.1-.2.1-.4.2-.6.2z"/></defs></svg>