<svg xmlns="http://www.w3.org/2000/svg" xmlns:xlink="http://www.w3.org/1999/xlink" viewBox="0 0 129.5 129.5"><g fill="#231f20"><path d="M11.2 17.9c-.2 0-.4-.1-.5-.2-.3-.3-.3-.8 0-1.1l1.3-1.3c.3-.3.8-.3 1.1 0s.3.8 0 1.1l-1.3 1.3c-.2.2-.4.2-.6.2zm-4 4.1c-.2 0-.4-.1-.5-.2-.3-.3-.3-.8 0-1.1L8 19.4c.3-.3.8-.3 1.1 0s.3.8 0 1.1l-1.3 1.3c-.2.1-.4.2-.6.2z"/><use xlink:href="#B"/><path d="M8.5 17.9c-.2 0-.4-.1-.5-.2l-1.3-1.3c-.3-.3-.3-.8 0-1.1s.8-.3 1.1 0L9 16.6c.3.3.3.8 0 1.1-.1.2-.3.2-.5.2z"/><use xlink:href="#C"/><use xlink:href="#C" x="-4" y="4"/><use xlink:href="#B" x="102.9" y="2.6"/><use xlink:href="#B" x="98.9" y="-1.4"/><path d="M12.6 98c-.2 0-.4-.1-.5-.2-.3-.3-.3-.8 0-1.1l1.3-1.3c.3-.3.8-.3 1.1 0s.3.8 0 1.1l-1.3 1.3c-.2.2-.4.2-.6.2z"/><use xlink:href="#C" x="-105.5" y="81.5"/><use xlink:href="#B" x="1.4" y="80.1"/><path d="M9.9 98c-.2 0-.4-.1-.5-.2L8 96.5c-.3-.3-.3-.8 0-1.1s.8-.3 1.1 0l1.3 1.3c.3.3.3.8 0 1.1-.2.2-.3.2-.5.2zm43.5 13.2h-8.1c-.4 0-.8-.3-.8-.8 0-.4.3-.8.8-.8h8.1c.4 0 .8.3.8.8-.1.4-.4.8-.8.8zm3.2 2.9h-4c-.4 0-.8-.3-.8-.8 0-.4.3-.8.8-.8h4c.4 0 .8.3.8.8-.1.5-.4.8-.8.8zm4.2-2.9H57c-.4 0-.8-.3-.8-.8 0-.4.3-.8.8-.8h3.8c.4 0 .8.3.8.8 0 .4-.3.8-.8.8zm-11.1 2.9H49c-.4 0-.8-.3-.8-.8 0-.4.3-.8.8-.8h.8c.4 0 .8.3.8.8-.1.5-.4.8-.9.8zm26.1 1h-8.1c-.4 0-.8-.3-.8-.8s.3-.8.8-.8h8.1c.4 0 .8.3.8.8s-.4.8-.8.8zM79 118h-4c-.4 0-.8-.3-.8-.8s.3-.8.8-.8h4c.4 0 .8.3.8.8s-.4.8-.8.8zm4.2-2.9h-3.8c-.4 0-.8-.3-.8-.8s.3-.8.8-.8h3.8c.4 0 .8.3.8.8s-.4.8-.8.8zM72.1 118h-.8c-.4 0-.8-.3-.8-.8s.3-.8.8-.8h.8c.4 0 .8.3.8.8s-.4.8-.8.8zM61.2 49.4h-8.1c-.4 0-.8-.3-.8-.8 0-.4.3-.8.8-.8h8.1c.4 0 .8.3.8.8-.1.5-.4.8-.8.8zm3.1 3h-4c-.4 0-.8-.3-.8-.8 0-.4.3-.8.8-.8h4c.4 0 .8.3.8.8 0 .4-.3.8-.8.8zm4.3-3h-3.8c-.4 0-.8-.3-.8-.8 0-.4.3-.8.8-.8h3.8c.4 0 .8.3.8.8s-.4.8-.8.8zm-11.1 3h-.8c-.4 0-.8-.3-.8-.8 0-.4.3-.8.8-.8h.8c.4 0 .8.3.8.8 0 .4-.4.8-.8.8z"/></g><path d="M12.5.8H117v6.7H12.5zm0 121.3H117v6.7H12.5z" fill="#ffd05b"/><path fill="#e6e9ee" d="M92.9 14.2c-1.7-2.5-3.8-4.8-6.1-6.7H42.4c-2.3 2-4.4 4.2-6.1 6.7h56.6z"/><g fill="#231f20"><path d="M117.7 0h-106v8.2h28.8c-6.9 6.6-10.9 15.7-10.9 25.4 0 13.6 16.7 25.1 27.5 31.2-10.8 6-27.5 17.6-27.5 31.2 0 9.6 4 18.7 10.9 25.3H11.8v8.2h106v-8.2h-29c6.9-6.6 10.9-15.7 10.9-25.3 0-13.6-16.7-25.1-27.5-31.2C83 58.7 99.7 47.1 99.7 33.5c0-9.6-4-18.7-10.9-25.4h28.9V0zm-1.5 128h-103v-5.2h103v5.2zm-18-94.5c0 13.3-17.5 24.9-27.9 30.6-.2.1-.4.4-.4.7s.1.5.4.7C80.7 71.1 98.2 82.7 98.2 96c0 9.7-4.2 19-11.6 25.3H42.7c-7.4-6.4-11.6-15.6-11.6-25.3 0-13.3 17.5-24.9 27.9-30.6.2-.1.4-.4.4-.7s-.1-.5-.4-.7c-10.4-5.7-27.9-17.3-27.9-30.6 0-9.7 4.2-19 11.6-25.3h43.9c7.4 6.5 11.6 15.7 11.6 25.4zm18-26.8h-103V1.5h103v5.2z"/><use xlink:href="#D"/><path d="M43.1 64.8l-8.6-8.6V64c-8-.4-14.3-7-14.3-15h-1.5c0 8.9 7 16.1 15.8 16.5v7.9l8.6-8.6zm-7.1-5l5 5-5 5v-10z"/><use xlink:href="#D" x="90.8" y="74.7"/><path d="M95 64v-7.9l-8.6 8.6 8.6 8.6v-7.8c8 .4 14.3 7 14.3 15h1.5c.1-8.8-7-16.1-15.8-16.5zm-1.5 5.7l-5-5 5-5v10zm4.2 36.2l-.1-1.5h.1v1.5zm-2.1 0h-1v-1.5h1v1.5zm-3 0h-1v-1.5h1v1.5zm-3 0h-1v-1.5h1v1.5zm-3 0h-1v-1.5h1v1.5zm-3 0h-1v-1.5h1v1.5zm-3 0h-1v-1.5h1v1.5zm-3 0h-1v-1.5h1v1.5zm-3 0h-1v-1.5h1v1.5zm-3 0h-1v-1.5h1v1.5zm-3 0h-1v-1.5h1v1.5zm-3 0h-1v-1.5h1v1.5zm-3 0h-1v-1.5h1v1.5zm-3 0h-1v-1.5h1v1.5zm-3 0h-1v-1.5h1v1.5zm-3 0h-1v-1.5h1v1.5zm-3 0h-1v-1.5h1v1.5zm-3 0h-1v-1.5h1v1.5zm-3 0h-1v-1.5h1v1.5zm-3 0h-1v-1.5h1v1.5zm-3 0h-1v-1.5h1v1.5zm-3 0h-1v-1.5h1v1.5zm-3 0h-1v-1.5h1v1.5zm63.9-63.4h-1V41h1v1.5zm-3 0h-1V41h1v1.5zm-3 0h-1V41h1v1.5zm-3 0h-1V41h1v1.5zm-3 0h-1V41h1v1.5zm-3 0h-1V41h1v1.5zm-3 0h-1V41h1v1.5zm-3 0h-1V41h1v1.5zm-3 0h-1V41h1v1.5zm-3 0h-1V41h1v1.5zm-3 0h-1V41h1v1.5zm-3 0h-1V41h1v1.5zm-3 0h-1V41h1v1.5zm-3 0h-1V41h1v1.5zm-3 0h-1V41h1v1.5zm-3 0h-1V41h1v1.5zm-3 0h-1V41h1v1.5zm-3 0h-1V41h1v1.5zm-3 0h-1V41h1v1.5zm-3 0h-1V41h1v1.5zm-3 0h-1V41h1v1.5zm-3 0h-1V41h1v1.5z"/></g><circle fill="#84dbff" cx="64.7" cy="74.8" r="3.3"/><use xlink:href="#E" fill="#231f20"/><circle fill="#84dbff" cx="64.7" cy="87.2" r="3.3"/><use xlink:href="#E" y="12.4" fill="#231f20"/><circle fill="#ff7058" cx="7.8" cy="36.9" r="2"/><circle fill="#84dbff" cx="114.8" cy="39" r="2"/><g fill="#e6e9ee"><circle cx="126.7" cy="105.1" r="2"/><circle cx="2.8" cy="114.3" r="2"/></g><defs ><path id="B" d="M12.5 22c-.2 0-.4-.1-.5-.2l-1.3-1.3c-.3-.3-.3-.8 0-1.1s.8-.3 1.1 0l1.3 1.3c.3.3.3.8 0 1.1-.2.1-.4.2-.6.2z"/><path id="C" d="M114.1 20.6c-.2 0-.4-.1-.5-.2-.3-.3-.3-.8 0-1.1l1.3-1.3c.3-.3.8-.3 1.1 0s.3.8 0 1.1l-1.3 1.3c-.2.1-.4.2-.6.2z"/><path id="D" d="M20.1 47.4h-1.5v-1h1.5v1zm0-3h-1.5v-1h1.5v1zm0-3h-1.5v-1h1.5v1zm0-3h-1.5v-1h1.5v1zm0-3h-1.5v-1h1.5v1zm0-3h-1.5v-1h1.5v1zm0-3h-1.5v-1h1.5v1zm0-3h-1.5v-1h1.5v1zm0-3h-1.5v-1h1.5v1zm0-3h-1.5v-1h1.5v1zm0-3h-1.5v-1h1.5v1zm0-3h-1.5v-1h1.5v1zm0-3h-1.5v-1h1.5v1zm0-3h-1.5v-1h1.5v1z"/><path id="E" d="M64.7 78.8c-2.2 0-4-1.8-4-4s1.8-4 4-4 4 1.8 4 4-1.8 4-4 4zm0-6.5c-1.4 0-2.5 1.1-2.5 2.5s1.1 2.5 2.5 2.5 2.5-1.1 2.5-2.5-1.2-2.5-2.5-2.5z"/></defs></svg>