<svg xmlns="http://www.w3.org/2000/svg" xmlns:xlink="http://www.w3.org/1999/xlink" viewBox="0 0 129.5 129.5"><style><![CDATA[.E{fill:#231F20}.F{fill:#fff}.G{fill:#E6E9EE}.H{fill:#FF7058}.I{fill:#84DBFF}]]></style><g class="E"><use xlink:href="#B"/><use xlink:href="#B" x="-4" y="4"/><use xlink:href="#C"/><use xlink:href="#C" x="-4" y="-4"/><use xlink:href="#D"/><use xlink:href="#D" x="-4" y="4"/><use xlink:href="#E"/><use xlink:href="#E" x="-4" y="-4"/></g><path d="M88 29.9L112 54V29.9z" class="G"/><path d="M88.2 6v23.9H112z" class="F"/><path d="M90.3 27.8V11.2l16.6 16.6z" class="I"/><path d="M108.9 123.9V91.1l-8.3-8.4-17.7 17.7-5.9-5.8-14.5 14.5-7.6-7.6L37 119.3l-8.6-8.6-6.5 6.4v6.8z" fill="#FFD05B"/><circle cx="105.5" cy="3.9" r="2.5" class="H"/><circle cx="7.9" cy="82.7" r="3.7" class="I"/><circle cx="126.5" cy="66.7" r="2.6" class="G"/><path d="M81.2 30.5l-7.8 13.7L88 50.3c.8-1.9 1.2-3.9 1.2-6.1 0-5.8-3.2-11-8-13.7z" class="H"/><path d="M87.9 50.3l-14.6-6.1-4.8 15.1c1.5.5 3.1.8 4.8.8 6.6-.1 12.3-4.1 14.6-9.8z" fill="#FFD05B"/><path d="M73.4 23.4c-3.7 0-7.2 1.3-9.9 3.5l9.9 12.3 7.8-13.7c-2.3-1.3-5-2.1-7.8-2.1z" class="F"/><path d="M73.4 40c-.2 0-.4-.1-.6-.3l-9.9-12.3c-.3-.3-.2-.8.1-1.1 3-2.4 6.5-3.6 10.3-3.6 2.9 0 5.7.8 8.2 2.2.4.2.5.7.3 1L74 39.6c-.1.2-.3.4-.6.4zm-8.9-12.9L73.2 38l6.9-12.1c-2.1-1.1-4.5-1.6-6.8-1.6-3.1-.1-6.2.9-8.8 2.8z" class="E"/><path d="M57.6 44.2c0 7 4.6 13 11 15.1l4.8-15.1-15.7-1.6c-.1.6-.1 1.1-.1 1.6z" class="I"/><path d="M57.6 42.7l15.7 1.6L63.4 32c-3.1 2.5-5.3 6.3-5.8 10.7z" class="G"/><g class="F"><circle cx="77" cy="90.3" r="3.6"/><circle cx="62.5" cy="104.4" r="3.6"/><circle cx="54.8" cy="97.3" r="3.6"/><path d="M37.3 112.2v-4.4l-3.4-.3c-.4-2.3-1.3-4.3-2.5-6.1l2.2-2.6-3.1-3.1-2.6 2.2c-1.8-1.3-3.9-2.2-6.1-2.5l-.3-3.4H17l-.3 3.4c-2.3.4-4.3 1.3-6.1 2.5L8 95.7l-3.1 3.1 2.2 2.6c-1.3 1.8-2.2 3.9-2.5 6.1l-3.4.3v4.4l3.4.3c.4 2.3 1.3 4.3 2.5 6.1l-2.2 2.6 3.1 3.1 2.6-2.2c1.8 1.3 3.9 2.2 6.1 2.5l.3 3.4h4.4l.3-3.4c2.3-.4 4.3-1.3 6.1-2.5l2.6 2.2 3.1-3.1-2.2-2.6c1.3-1.8 2.2-3.9 2.5-6.1l3.5-.3z"/></g><path d="M19 122.1c-.4 0-.7 0-1.1-.1l.2-1.5c.3 0 .6.1.9.1v1.5zm2.1-.2l-.2-1.5c.3 0 .6-.1.9-.2l.4 1.5c-.4.1-.7.2-1.1.2zm-5.2-.3l-1-.3.5-1.4.9.3-.4 1.4zm8.3-.6l-.6-1.4c.3-.1.6-.3.8-.4l.7 1.3c-.3.2-.6.4-.9.5zm-11.3-.7l-.9-.6.9-1.2c.3.2.5.4.8.5l-.8 1.3zm14-1l-1-1.2c.2-.2.5-.4.7-.6l1.1 1.1c-.3.3-.5.5-.8.7zm-16.4-1c-.2-.3-.5-.5-.7-.8l1.2-.9c.2.2.4.5.6.7l-1.1 1zm18.6-1.3l-1.2-.9c.2-.3.4-.5.5-.8l1.3.8-.6.9zm-20.5-1.2c-.2-.3-.3-.6-.5-1l1.4-.6c.1.3.3.6.4.8l-1.3.8zm22-1.6l-1.4-.5.3-.9 1.4.4-.3 1zm-23.1-1.4c-.1-.3-.1-.7-.2-1l1.5-.2c0 .3.1.6.2.9l-1.5.3zm23.8-1.7l-1.5-.1v-.9h1.5v1zm-22.7-1.4H7.1c0-.4 0-.7.1-1.1l1.5.2c0 .2 0 .5-.1.9zm21.1-.8c0-.3-.1-.6-.1-.9l1.5-.3c.1.3.1.7.2 1.1l-1.6.1zm-20.6-2l-1.4-.4c.1-.3.2-.7.4-1l1.4.6c-.2.2-.3.5-.4.8zm20-.8c-.1-.3-.2-.6-.4-.9l1.3-.7c.2.3.3.6.4 1l-1.3.6zm-18.8-1.7l-1.3-.8.6-.9 1.2.9c-.2.2-.4.5-.5.8zm17.4-.7c-.2-.2-.4-.5-.6-.7l1.1-1c.2.3.5.5.7.8l-1.2.9zm-15.6-1.5l-1-1.1c.3-.2.5-.5.8-.7l.9 1.2c-.3.2-.5.4-.7.6zm13.7-.5c-.2-.2-.5-.4-.8-.5l.8-1.3.9.6-.9 1.2zm-11.5-1.1l-.7-1.3c.3-.2.6-.3 1-.4l.6 1.4c-.3 0-.6.2-.9.3zm9.1-.3l-.9-.3.5-1.4c.3.1.7.2 1 .4l-.6 1.3zm-6.4-.6l-.3-1.5c.3-.1.7-.1 1-.2l.2 1.5c-.3 0-.6.1-.9.2zm3.7-.2c-.3 0-.6-.1-.9-.1l.1-1.5c.4 0 .7.1 1.1.1l-.3 1.5z" class="E"/><circle cx="19.2" cy="110" r="9" class="H"/><circle cx="19.2" cy="110" r="4.5" class="F"/><path d="M19.2 115.3c-2.9 0-5.2-2.4-5.2-5.2 0-2.9 2.4-5.2 5.2-5.2 2.9 0 5.2 2.4 5.2 5.2.1 2.8-2.3 5.2-5.2 5.2zm0-9c-2.1 0-3.7 1.7-3.7 3.7 0 2.1 1.7 3.7 3.7 3.7a3.76 3.76 0 0 0 3.7-3.7c.1-2.1-1.6-3.7-3.7-3.7zm12-37h30.6v1.5H31.2zm0 3.4h30.6v1.5H31.2zm0 3.5h30.6v1.5H31.2zm0 3.4h19.6v1.5H31.2z" class="E"/><path d="M2.1 1.4h33.4v44.1H2.1z" class="F"/><path d="M112.6 29.4L88.7 5.5c-.1-.1-.3-.2-.5-.2h-52V.6H1.4v45.6h16.7v44.9h-1a.68.68 0 0 0-.7.7l-.4 2.9c-1.9.4-3.8 1.1-5.4 2.2l-2.2-1.8a.91.91 0 0 0-1 0l-3.1 3.1c-.3.3-.3.7 0 1l1.8 2.2c-1.1 1.6-1.8 3.5-2.2 5.4l-2.8.3c-.4 0-.7.4-.7.7v4.4a.68.68 0 0 0 .7.7l2.8.3c.4 1.9 1.1 3.7 2.2 5.4l-1.8 2.2a.91.91 0 0 0 0 1l3.1 3.1c.3.3.7.3 1 0l2.2-1.8c1.6 1.1 3.5 1.8 5.4 2.2l.3 2.8c0 .4.4.7.7.7h4.4a.68.68 0 0 0 .7-.7v-.4H112c.4 0 .8-.3.8-.8v-97c0-.2-.1-.4-.2-.5zM88.9 7.9l21.3 21.3H88.9V7.9zm-86 36.8V2.1h31.9v42.6H2.9zM21.6 124c-.3.1-.6.3-.6.7l-.2 2.7h-3l-.2-2.7c0-.3-.3-.6-.6-.7-2.1-.4-4.1-1.2-5.8-2.4-.3-.2-.7-.2-.9 0L8 123.3l-2.1-2.1 1.7-2.1c.2-.3.2-.6 0-.9-1.2-1.7-2.1-3.7-2.4-5.8-.1-.3-.3-.6-.7-.6l-2.7-.2v-3l2.7-.2c.3 0 .6-.3.7-.6.4-2.1 1.2-4.1 2.4-5.8.2-.3.2-.7 0-.9L5.9 99 8 96.7l2.1 1.7c.3.2.6.2.9 0 1.7-1.2 3.7-2.1 5.8-2.4.3-.1.6-.3.6-.7l.2-2.7h3l.2 2.7c0 .3.3.6.6.7 2.1.4 4.1 1.2 5.8 2.4.3.2.7.2.9 0l2.1-1.7 2.1 2.1-1.7 2.1c-.2.3-.2.6 0 .9 1.2 1.7 2.1 3.7 2.4 5.8.1.3.3.6.7.6l2.7.2v3l-2.7.2c-.3 0-.6.3-.7.6-.4 2.1-1.2 4.1-2.4 5.8-.2.3-.2.7 0 .9l1.7 2.1-2.1 2.1-2.1-1.7c-.3-.2-.6-.2-.9 0-1.5 1.4-3.5 2.2-5.6 2.6zm89.7 2.3h-89l.1-.9c1.9-.4 3.7-1.1 5.4-2.2L30 125a.91.91 0 0 0 1 0l3.1-3.1c.3-.3.3-.7 0-1l-1.8-2.2c1-1.5 1.7-3.2 2.1-5l2 2c.3.3.8.3 1.1 0L52.2 101c.7.5 1.6.8 2.5.8 1 0 1.9-.3 2.6-.9l1.4 1.4c-.4.7-.6 1.4-.6 2.2 0 2.4 2 4.4 4.4 4.4s4.4-2 4.4-4.4c0-.8-.2-1.5-.6-2.2l8.2-8.2c.7.5 1.6.8 2.5.8s1.8-.3 2.5-.8l2.8 2.8c.3.3.8.3 1.1 0l16.8-16.8 4 4c.1.1.3.2.5.2.1 0 .2 0 .3-.1.3-.1.5-.4.5-.7v-9.1c0-.4-.3-.8-.8-.8h-9.1c-.3 0-.6.2-.7.5s-.1.6.2.8l4 4-16.3 16.2-2.3-2.3c.5-.7.8-1.6.8-2.5 0-2.4-2-4.4-4.4-4.4s-4.4 2-4.4 4.4c0 .9.3 1.8.8 2.5l-8.2 8.2c-.8-.6-1.7-1-2.8-1s-2 .4-2.8 1l-1.3-1.3c.5-.7.7-1.5.7-2.4 0-2.4-2-4.4-4.4-4.4s-4.4 2-4.4 4.4c0 1 .3 1.8.8 2.5L37 114l-1-1 1.3-.1c.4 0 .7-.4.7-.7v-4.4a.68.68 0 0 0-.7-.7l-2.8-.3c-.4-1.9-1.1-3.7-2.2-5.4l1.8-2.2a.91.91 0 0 0 0-1L31 95.1c-.3-.3-.7-.3-1 0l-2.2 1.8c-1.6-1.1-3.5-1.8-5.4-2.2l-.3-2.8c0-.4-.4-.7-.7-.7h-1.9v-45h16.7V6.8h51.2v23.1c0 .4.3.8.8.8h23.1v95.6zm-59.4-29c0-1.6 1.3-2.9 2.9-2.9s2.9 1.3 2.9 2.9-1.3 2.9-2.9 2.9-2.9-1.3-2.9-2.9zm7.7 7.1c0-1.6 1.3-2.9 2.9-2.9s2.9 1.3 2.9 2.9-1.3 2.9-2.9 2.9c-1.6-.1-2.9-1.4-2.9-2.9zm14.5-14.1c0-1.6 1.3-2.9 2.9-2.9s2.9 1.3 2.9 2.9-1.3 2.9-2.9 2.9-2.9-1.3-2.9-2.9zm23.4-15.2h6.5v6.5l-6.5-6.5z" class="E"/><path d="M5.4 4.6h26.9v8.6H5.4z" class="H"/><path d="M33 14H4.6V3.9H33V14zM6.1 12.5h25.4V5.4H6.1v7.1z" class="E"/><path d="M26.1 16.8h6.1v6.1h-6.1z" class="F"/><path d="M33 23.6h-7.6V16H33v7.6zm-6.1-1.5h4.6v-4.6h-4.6v4.6z" class="E"/><path d="M15.9 16.8H22v6.1h-6.1z" class="F"/><path d="M22.7 23.6h-7.6V16h7.6v7.6zm-6.1-1.5h4.6v-4.6h-4.6v4.6z" class="E"/><path d="M5.6 16.8h6.1v6.1H5.6z" class="F"/><path d="M12.5 23.6H4.9V16h7.6v7.6zm-6.1-1.5H11v-4.6H6.4v4.6z" class="E"/><path d="M26.1 26.5h6.1v6.1h-6.1z" class="F"/><path d="M33 33.3h-7.6v-7.6H33v7.6zm-6.1-1.5h4.6v-4.6h-4.6v4.6z" class="E"/><path d="M15.9 26.5H22v6.1h-6.1z" class="F"/><path d="M22.7 33.3h-7.6v-7.6h7.6v7.6zm-6.1-1.5h4.6v-4.6h-4.6v4.6z" class="E"/><path d="M5.6 26.5h6.1v6.1H5.6z" class="F"/><path d="M12.5 33.3H4.9v-7.6h7.6v7.6zm-6.1-1.5H11v-4.6H6.4v4.6z" class="E"/><path d="M26.1 36.2h6.1v6.1h-6.1z" class="F"/><path d="M33 43h-7.6v-7.6H33V43zm-6.1-1.5h4.6v-4.6h-4.6v4.6z" class="E"/><path d="M15.9 36.2H22v6.1h-6.1z" class="F"/><path d="M22.7 43h-7.6v-7.6h7.6V43zm-6.1-1.5h4.6v-4.6h-4.6v4.6z" class="E"/><path d="M5.6 36.2h6.1v6.1H5.6z" class="F"/><path d="M12.5 43H4.9v-7.6h7.6V43zm-6.1-1.5H11v-4.6H6.4v4.6z" class="E"/><path d="M28.2 9.7h-1V8.2h1v1.5zm-3 0h-1V8.2h1v1.5zm-3 0h-1V8.2h1v1.5zm-3 0h-1V8.2h1v1.5zm-3 0h-1V8.2h1v1.5zm-3 0h-1V8.2h1v1.5zm-3 0h-1V8.2h1v1.5z" class="F"/><circle cx="9.3" cy="56.6" r="2.6" class="G"/><defs ><path id="B" d="M48.9 19.6c-.2 0-.4-.1-.5-.2-.3-.3-.3-.8 0-1.1l1.3-1.3c.3-.3.8-.3 1.1 0s.3.8 0 1.1l-1.3 1.3c-.2.2-.4.2-.6.2z"/><path id="C" d="M50.2 23.6c-.2 0-.4-.1-.5-.2l-1.3-1.3c-.3-.3-.3-.8 0-1.1s.8-.3 1.1 0l1.3 1.3c.3.3.3.8 0 1.1-.3.2-.4.2-.6.2z"/><path id="D" d="M119.2 13.2c-.2 0-.4-.1-.5-.2-.3-.3-.3-.8 0-1.1l1.3-1.3c.3-.3.8-.3 1.1 0s.3.8 0 1.1l-1.3 1.3c-.2.1-.4.2-.6.2z"/><path id="E" d="M120.5 17.2c-.2 0-.4-.1-.5-.2l-1.3-1.3c-.3-.3-.3-.8 0-1.1s.8-.3 1.1 0l1.3 1.3c.3.3.3.8 0 1.1-.2.1-.4.2-.6.2z"/></defs></svg>