<svg xmlns="http://www.w3.org/2000/svg" xmlns:xlink="http://www.w3.org/1999/xlink" viewBox="0 0 129.5 129.5"><circle cx="59.7" cy="70.7" r="2.6" fill="#84DBFF"/><circle cx="59.7" cy="9.2" r="2.6" fill="#E6E9EE"/><circle cx="60.3" cy="120.3" r="2.6" fill="#FFD05B"/><circle cx="59.7" cy="58" r="2.6" fill="#FF7058"/><use xlink:href="#B" fill="#FFD05B"/><g fill="#FF7058"><use xlink:href="#B" x="78"/><use xlink:href="#B" y="-78"/></g><g fill="#fff"><path d="M36.5 19.6c-.2-.1-.5-.1-.7 0l.2-2.7c0-7.6-4.6-10.4-10.3-10.4S15.4 9.3 15.4 16.9c0 .9.1 1.8.2 2.7-.3-.1-.5-.1-.7 0-.6.3-.7 1.5-.1 2.7.5 1 1.2 1.6 1.8 1.6 1.7 4.9 5.1 8.8 9 8.8s7.3-3.9 9-8.8c.6 0 1.4-.7 1.8-1.6.8-1.1.8-2.4.1-2.7z"/><circle cx="103.7" cy="25.7" r="25"/></g><use xlink:href="#B" x="78" y="-78" fill="#E6E9EE"/><g fill="#fff"><path d="M114.5 19.6c-.2-.1-.5-.1-.7 0l.2-2.7c0-7.6-4.6-10.4-10.3-10.4S93.4 9.3 93.4 16.9c0 .9.1 1.8.2 2.7-.3-.1-.5-.1-.7 0-.6.3-.7 1.5-.1 2.7.5 1 1.2 1.6 1.8 1.6 1.7 4.9 5.1 8.8 9 8.8s7.3-3.9 9-8.8c.6 0 1.4-.7 1.8-1.6.8-1.1.8-2.4.1-2.7zM30.3 109v4.2l-4.5 2.5-4.5-2.5V109c1.4 1.1 2.9 1.8 4.5 1.8s3.1-.7 4.5-1.8z"/><use xlink:href="#C"/><path d="M108.3 109v4.2l-4.5 2.5-4.5-2.5V109c1.4 1.1 2.9 1.8 4.5 1.8s3.1-.7 4.5-1.8z"/><use xlink:href="#C" x="78"/></g><g fill="#231F20"><path d="M103.8.1C89.6.1 78 11.6 78 25.8s11.6 25.8 25.8 25.8 25.8-11.6 25.8-25.8S117.9.1 103.8.1zm0 1.5c13.4 0 24.3 10.9 24.3 24.3 0 4.9-1.5 9.5-4 13.3l-11.2-3.7-3-3c-.1-.1-.3-.2-.5-.2h-.4v-.9c1.8-1.6 3.3-3.8 4.3-6.7.7-.3 1.5-1 2-1.9.8-1.6.6-3.2-.4-3.7-.1 0-.1-.1-.2-.1.1-.7.1-1.3.1-1.9 0-7.1-4-11.2-11-11.2s-11 4.1-11 11.2c0 .6 0 1.3.1 1.9-.1 0-.1.1-.2.1-.6.3-.9.9-.9 1.7 0 .6.2 1.4.5 2.1.5 1 1.2 1.7 2 1.9 1.1 2.8 2.6 5.1 4.3 6.7v.9h-.3c-.2 0-.4.1-.5.2l-3 3-11.2 3.7c-2.5-3.8-4-8.4-4-13.3-.1-13.6 10.8-24.4 24.2-24.4zm-4.9 34.3l3.8 2.1-2.4 3.2-4.1-5 2.4-2.4v1.5c-.1.2 0 .5.3.6zm-4.7-18.8c0-8 5.2-9.7 9.5-9.7s9.5 1.7 9.5 9.7c0 .8-.1 1.7-.2 2.6 0 .3.1.5.3.7s.5.2.7.1h.1c.1.1.2.8-.2 1.7-.4.8-1 1.2-1.2 1.2-.3 0-.6.2-.7.5-1.8 5-5 8.3-8.3 8.3s-6.5-3.3-8.3-8.3c-.1-.3-.4-.5-.7-.5s-.8-.4-1.2-1.2c-.5-1-.3-1.6-.2-1.7h.1c.2.1.5 0 .7-.1.2-.2.3-.4.3-.7-.1-1-.2-1.8-.2-2.6zm5.8 17.7v-2.3c1.2.7 2.5 1.1 3.8 1.1s2.6-.4 3.8-1.1v2.3l-3.8 2.1-3.8-2.1zm8.6 1.1c.2-.1.4-.4.4-.7v-1.5l2.4 2.4-4.1 5-2.4-3.2 3.7-2zm-4.8 14.2c-7.9 0-14.9-3.8-19.4-9.7L94.8 37l4.8 5.9c.1.2.4.3.6.3s.4-.1.6-.3l2.9-3.8 2.9 3.8c.1.2.4.3.6.3s.4-.1.6-.3l4.8-5.9 10.4 3.4c-4.3 5.9-11.4 9.7-19.2 9.7zm-78-50C11.6.1 0 11.6 0 25.8s11.6 25.8 25.8 25.8S51.5 40 51.5 25.8 39.9.1 25.8.1zm0 1.5C39.1 1.6 50 12.4 50 25.8c0 4.9-1.5 9.5-4 13.3l-11.2-3.7-3-3c-.1-.1-.3-.2-.5-.2H31v-.9c1.8-1.6 3.3-3.8 4.3-6.7.7-.3 1.5-1 2-1.9.8-1.6.6-3.2-.4-3.7-.1 0-.1-.1-.2-.1.1-.7.1-1.3.1-1.9 0-7.1-4-11.2-11-11.2s-11 4.1-11 11.2c0 .6 0 1.3.1 1.9-.1 0-.1.1-.2.1-.6.3-.9.9-.9 1.7 0 .6.2 1.4.5 2.1.5 1 1.2 1.7 2 1.9 1.1 2.8 2.6 5.1 4.3 6.7v.9h-.3c-.2 0-.4.1-.5.2l-3 3-11.3 3.6c-2.5-3.8-4-8.4-4-13.3 0-13.4 10.9-24.2 24.3-24.2zm-4.9 34.3l3.8 2.1-2.4 3.2-4.1-5 2.4-2.4v1.5c-.1.2 0 .5.3.6zm-4.7-18.8c0-8 5.2-9.7 9.5-9.7s9.5 1.7 9.5 9.7c0 .8-.1 1.7-.2 2.6 0 .3.1.5.3.7s.5.2.7.1h.1c.1.1.2.8-.2 1.7-.4.8-1 1.2-1.2 1.2-.3 0-.6.2-.7.5-1.8 5-5 8.3-8.3 8.3s-6.5-3.3-8.3-8.3c-.1-.3-.4-.5-.7-.5s-.8-.4-1.2-1.2c-.5-1-.3-1.6-.2-1.7h.1c.2.1.5 0 .7-.1.2-.2.3-.4.3-.7-.1-1-.2-1.8-.2-2.6zM22 34.8v-2.3c1.2.7 2.5 1.1 3.8 1.1s2.6-.4 3.8-1.1v2.3l-3.8 2.1-3.8-2.1zm8.6 1.1c.2-.1.4-.4.4-.7v-1.5l2.4 2.4-4.1 5-2.4-3.1 3.7-2.1zm-4.8 14.2c-7.9 0-14.9-3.8-19.4-9.7L16.8 37l4.8 5.9c.1.2.4.3.6.3s.4-.1.6-.3l2.9-3.8 2.9 3.8c.1.2.4.3.6.3s.4-.1.6-.3l4.8-5.9L45 40.4c-4.3 5.9-11.4 9.7-19.2 9.7zm78 27.8C89.6 77.9 78 89.5 78 103.7s11.6 25.8 25.8 25.8 25.8-11.6 25.8-25.8-11.7-25.8-25.8-25.8zm0 1.5c13.4 0 24.3 10.9 24.3 24.3 0 4.9-1.5 9.5-4 13.3l-11.2-3.7-3-3c-.1-.1-.3-.2-.5-.2h-.4v-.9c1.8-1.6 3.3-3.8 4.3-6.7.7-.3 1.5-1 2-1.9.8-1.6.6-3.2-.4-3.7-.1 0-.1-.1-.2-.1.1-.7.1-1.3.1-1.9 0-7.1-4-11.2-11-11.2s-11 4.1-11 11.2c0 .6 0 1.3.1 1.9-.1 0-.1.1-.2.1-.6.3-.9.9-.9 1.7 0 .6.2 1.4.5 2.1.5 1 1.2 1.7 2 1.9 1.1 2.8 2.6 5.1 4.3 6.7v.9h-.3c-.2 0-.4.1-.5.2l-3 3-11.3 3.6c-2.5-3.8-4-8.4-4-13.3 0-13.4 10.9-24.3 24.3-24.3zm-4.9 34.4l3.8 2.1-2.4 3.2-4.1-5 2.4-2.4v1.5c-.1.2 0 .5.3.6zm-4.7-18.9c0-8 5.2-9.7 9.5-9.7s9.5 1.7 9.5 9.7c0 .8-.1 1.7-.2 2.6 0 .3.1.5.3.7s.5.2.7.1h.1c.1.1.2.8-.2 1.7-.4.8-1 1.2-1.2 1.2-.3 0-.6.2-.7.5-1.8 5-5 8.3-8.3 8.3s-6.5-3.3-8.3-8.3c-.1-.3-.4-.5-.7-.5s-.8-.4-1.2-1.2c-.5-1-.3-1.6-.2-1.7h.1c.2.1.5 0 .7-.1.2-.2.3-.4.3-.7-.1-.9-.2-1.7-.2-2.6zm5.8 17.8v-2.3c1.2.7 2.5 1.1 3.8 1.1s2.6-.4 3.8-1.1v2.3l-3.8 2.1-3.8-2.1zm8.6 1.1c.2-.1.4-.4.4-.7v-1.5l2.4 2.4-4.1 5-2.4-3.2 3.7-2zm-4.8 14.1c-7.9 0-14.9-3.8-19.4-9.7l10.4-3.4 4.8 5.9c.1.2.4.3.6.3s.4-.1.6-.3l2.9-3.8 2.9 3.8c.1.2.4.3.6.3s.4-.1.6-.3l4.8-5.9 10.4 3.4c-4.3 6-11.4 9.7-19.2 9.7zm-78-50C11.6 77.9 0 89.5 0 103.7s11.6 25.8 25.8 25.8 25.7-11.6 25.7-25.8-11.6-25.8-25.7-25.8zm0 1.5c13.4 0 24.2 10.9 24.2 24.3 0 4.9-1.5 9.5-4 13.3l-11.2-3.7-3-3c-.1-.1-.3-.2-.5-.2H31v-.9c1.8-1.6 3.3-3.8 4.3-6.7.7-.3 1.5-1 2-1.9.8-1.6.6-3.2-.4-3.7-.1 0-.1-.1-.2-.1.1-.7.1-1.3.1-1.9 0-7.1-4-11.2-11-11.2s-11 4.1-11 11.2c0 .6 0 1.3.1 1.9-.1 0-.1.1-.2.1-.6.3-.9.9-.9 1.7 0 .6.2 1.4.5 2.1.5 1 1.2 1.7 2 1.9 1.1 2.8 2.6 5.1 4.3 6.7v.9h-.3c-.2 0-.4.1-.5.2l-3 3L5.5 117c-2.5-3.8-4-8.4-4-13.3 0-13.4 10.9-24.3 24.3-24.3zm-4.9 34.4l3.8 2.1-2.4 3.2-4.1-5 2.4-2.4v1.5c-.1.2 0 .5.3.6zm-4.7-18.9c0-8 5.2-9.7 9.5-9.7s9.5 1.7 9.5 9.7c0 .8-.1 1.7-.2 2.6 0 .3.1.5.3.7s.5.2.7.1h.1c.1.1.2.8-.2 1.7-.4.8-1 1.2-1.2 1.2-.3 0-.6.2-.7.5-1.8 5-5 8.3-8.3 8.3s-6.5-3.3-8.3-8.3c-.1-.3-.4-.5-.7-.5s-.8-.4-1.2-1.2c-.5-1-.3-1.6-.2-1.7h.1c.2.1.5 0 .7-.1.2-.2.3-.4.3-.7-.1-.9-.2-1.7-.2-2.6zm5.8 17.8v-2.3c1.2.7 2.5 1.1 3.8 1.1s2.6-.4 3.8-1.1v2.3l-3.8 2.1-3.8-2.1zm8.6 1.1c.2-.1.4-.4.4-.7v-1.5l2.4 2.4-4.1 5-2.4-3.2 3.7-2zm-4.8 14.1c-7.9 0-14.9-3.8-19.4-9.7l10.4-3.4 4.8 5.9c.1.2.4.3.6.3s.4-.1.6-.3l2.9-3.8 2.9 3.8c.1.2.4.3.6.3s.4-.1.6-.3l4.8-5.9 10.4 3.4c-4.3 6-11.4 9.7-19.2 9.7zM72.9 6.6c-.2 0-.4-.1-.5-.2-.3-.3-.3-.8 0-1.1L73.7 4c.3-.3.8-.3 1.1 0s.3.8 0 1.1l-1.3 1.3c-.2.1-.4.2-.6.2zm-4 4c-.2 0-.4-.1-.5-.2-.3-.3-.3-.8 0-1.1L69.7 8c.3-.3.8-.3 1.1 0s.3.8 0 1.1l-1.3 1.3c-.2.1-.4.2-.6.2z"/><use xlink:href="#D"/><use xlink:href="#D" x="-4" y="-4"/><use xlink:href="#E"/><use xlink:href="#E" x="-4" y="4"/><use xlink:href="#D" x="7.2" y="48.8"/><use xlink:href="#D" x="3.2" y="44.8"/><use xlink:href="#E" x="-71.3" y="17.4"/><path d="M4.8 76.8c-.2 0-.4-.1-.5-.2-.3-.3-.3-.8 0-1.1l1.3-1.3c.3-.3.8-.3 1.1 0s.3.8 0 1.1l-1.3 1.3c-.3.1-.4.2-.6.2z"/><use xlink:href="#D" x="-64.1" y="66.2"/><use xlink:href="#D" x="-68.2" y="62.2"/><path d="M66.5 20.4h1v1.5h-1zm-3 0h1v1.5h-1zm-3 0h1v1.5h-1zm-6 0h1v1.5h-1zm3 0h1v1.5h-1zm17.8.4l-3.1-3.1-.7.7 2.2 2.2h-5.6v1h5.6l-2.2 2.2.7.7 3.1-3.1c.2-.1.2-.4 0-.6zM62 29.5h1V31h-1zm3 0h1V31h-1zm6 0h1V31h-1zm3 0h1V31h-1zm-6 0h1V31h-1zm-10-2l-.7-.7-3.1 3.1c-.2.2-.2.5 0 .7l3.1 3.1.7-.7-2.2-2.2h5.6v-1h-5.6l2.2-2.3zm-.5 70.9h1v1.5h-1zm3 0h1v1.5h-1zm-6 0h1v1.5h-1zm12 0h1v1.5h-1zm-3 0h1v1.5h-1zm11.8.4l-3.1-3.1-.7.7 2.2 2.2h-5.6v1h5.6l-2.2 2.2.7.7 3.1-3.1c.2-.1.2-.4 0-.6zM65 107.5h1v1.5h-1zm3 0h1v1.5h-1zm-6 0h1v1.5h-1zm12 0h1v1.5h-1zm-3 0h1v1.5h-1zm-13-2l-.7-.7-3.1 3.1c-.2.2-.2.5 0 .7l3.1 3.1.7-.7-2.2-2.2h5.6v-1h-5.6l2.2-2.3zm49.5-45h1.5v1h-1.5zm0 6h1.5v1h-1.5zm0-9h1.5v1h-1.5zm0-3h1.5v1h-1.5zm0 9h1.5v1h-1.5z"/><use xlink:href="#F"/><path d="M98.5 70.9h1.5v1h-1.5zm0-6h1.5v1h-1.5zm0-3h1.5v1h-1.5zm0 6h1.5v1h-1.5zm0 6h1.5v1h-1.5zm.4-19.8l-3.1 3.1.7.7 2.2-2.2v5.6h1v-5.6l2.2 2.2.7-.7-3.1-3.1c-.1-.2-.5-.2-.6 0zm-69.4 6.4H31v1h-1.5zm0 3H31v1h-1.5zm0 3H31v1h-1.5zm0-12H31v1h-1.5zm0 3H31v1h-1.5z"/><use xlink:href="#F" x="-78"/><path d="M20.5 70.9H22v1h-1.5zm0 3H22v1h-1.5zm0-9H22v1h-1.5zm0-3H22v1h-1.5zm0 6H22v1h-1.5zm.4-13.8l-3.1 3.1.7.7 2.2-2.2v5.6h1v-5.6l2.2 2.2.7-.7-3.1-3.1a.38.38 0 0 0-.6 0zm36.8-2.9c-2 0-3.6-1.6-3.6-3.6s1.6-3.6 3.6-3.6 3.6 1.6 3.6 3.6-1.6 3.6-3.6 3.6zm0-6.3c-1.5 0-2.6 1.2-2.6 2.6 0 1.5 1.2 2.6 2.6 2.6 1.5 0 2.6-1.2 2.6-2.6a2.65 2.65 0 0 0-2.6-2.6z"/></g><defs ><path id="B" d="M25.7 126.7c-12.7 0-23-10.3-23-23s10.3-23 23-23 23 10.3 23 23-10.3 23-23 23z"/><path id="C" d="M36.5 97.6c-.2-.1-.5-.1-.7 0l.2-2.7c0-7.6-4.6-10.4-10.3-10.4s-10.3 2.8-10.3 10.4c0 .9.1 1.8.2 2.7-.3-.1-.5-.1-.7 0-.6.3-.7 1.5-.1 2.7.5 1 1.2 1.6 1.8 1.6 1.7 4.9 5.1 8.8 9 8.8s7.3-3.9 9-8.8c.6 0 1.4-.7 1.8-1.6.8-1.1.8-2.4.1-2.7z"/><path id="D" d="M74.2 10.6c-.2 0-.4-.1-.5-.2l-1.3-1.3c-.3-.3-.3-.8 0-1.1s.8-.3 1.1 0l1.3 1.3c.3.3.3.8 0 1.1-.2.1-.4.2-.6.2z"/><path id="E" d="M80.1 55.4c-.2 0-.4-.1-.5-.2-.3-.3-.3-.8 0-1.1l1.3-1.3c.3-.3.8-.3 1.1 0s.3.8 0 1.1l-1.3 1.3c-.2.1-.4.2-.6.2z"/><path id="F" d="M111 71.5l-2.2 2.2v-5.6h-1v5.6l-2.3-2.2-.7.7 3.1 3.1c.1.1.2.1.4.1.1 0 .3 0 .4-.1l3.1-3.1-.8-.7z"/></defs></svg>