<svg xmlns="http://www.w3.org/2000/svg" xmlns:xlink="http://www.w3.org/1999/xlink" viewBox="0 0 129.5 129.5"><path d="M18.6 76.8c-2.8 0-5.1-2.3-5.1-5.1s2.3-5.1 5.1-5.1 5.1 2.3 5.1 5.1-2.3 5.1-5.1 5.1zm0-8.6c-2 0-3.6 1.6-3.6 3.6s1.6 3.6 3.6 3.6 3.6-1.6 3.6-3.6-1.6-3.6-3.6-3.6z" fill="#231F20"/><path d="M73.2 98.2h-12c-4.3 2.8-7.2 8.5-7.2 15 0 2 .3 3.9.8 5.7 1-3.5 2.8-6.5 5.2-8.5-.4 6.9 2 13.9 7.3 19.1 5.2-5.2 7.7-12.2 7.3-19.1 2.4 2 4.2 5 5.2 8.5.5-1.8.8-3.7.8-5.7-.1-6.5-3.1-12.2-7.4-15z" fill="#FFD05B"/><path d="M70.2 98.2h-6c-2.1 1.4-3.6 4.2-3.6 7.5 0 1 .1 1.9.4 2.8.5-1.7 1.4-3.2 2.6-4.2-.2 3.4 1 6.9 3.6 9.5 2.6-2.6 3.8-6.1 3.6-9.5 1.2 1 2.1 2.5 2.6 4.2.2-.9.4-1.8.4-2.8 0-3.3-1.4-6.1-3.6-7.5z" fill="#FF7058"/><path d="M77.1 97.9H57.3L45.5 63.7C34.9 26.3 67.3.7 67.3.7s32.3 25.5 21.8 63l-12 34.2z" fill="#fff"/><path d="M87.1 63.1L75.7 95.9h-17L47.4 63.1c-4.6-16.5-.5-30.7 5.3-41.2 4.5-3.1 9.4-4.7 14.6-4.7 5.1 0 10 1.6 14.5 4.7 5.8 10.5 9.9 24.7 5.3 41.2z" fill="#E6E9EE"/><path d="M83.4 20.5c-4.8-3.4-10.4-5.4-16.2-5.4-5.9 0-11.4 1.9-16.2 5.4C58 8 67.2.7 67.2.7S76.5 8 83.4 20.5z" fill="#FF7058"/><path d="M87.4 70.6l2.3-6.7C100.3 26.4 68 .4 67.7.2s-.7-.2-.9 0c-.3.3-32.6 26.3-22 63.8l2.3 6.7c-7.9 6.8-11.2 17.6-8.5 27.6l5.6 20.9c.1.3.4.6.7.6.4 0 .6-.3.7-.6l3.6-22.5 5.6-3.4 1.7 5c.1.3.4.5.7.5H77c.3 0 .6-.2.7-.5l1.7-5 5.6 3.4 3.6 22.5c.1.4.3.6.7.6.3 0 .6-.2.7-.6l5.6-20.9c3-10.1-.4-20.9-8.2-27.7zM67.2 1.7C69 3.2 75.4 9 81 18.1c-4.3-2.5-9.1-3.7-13.8-3.7-4.8 0-9.5 1.3-13.8 3.7C59 9.1 65.5 3.2 67.2 1.7zm-19 93.8c-.2.1-.3.3-.4.5l-3.1 19.3L40 97.9c-2.5-9.3.5-19.3 7.6-25.7l6.8 19.6-6.2 3.7zm28.4 1.7H57.8L46.2 63.5c-4.8-17.1-.5-31.7 5.5-42.5 4.8-3.3 10.1-5.1 15.5-5.1 5.5 0 10.7 1.7 15.5 5.1 6 10.8 10.3 25.4 5.5 42.5L76.6 97.2zm17.8.7l-4.7 17.5L86.6 96c0-.2-.2-.4-.4-.5L80 91.7l6.8-19.6c7.1 6.5 10.1 16.5 7.6 25.8z" fill="#231F20"/><circle cx="67.2" cy="38.7" r="11.3" fill="#84DBFF"/><path d="M67.2 50.7a12.04 12.04 0 0 1-12-12 12.04 12.04 0 0 1 12-12 12.04 12.04 0 0 1 12 12c.1 6.6-5.3 12-12 12zm0-22.5a10.5 10.5 0 1 0 0 21 10.5 10.5 0 0 0 10.5-10.5c.1-5.8-4.7-10.5-10.5-10.5z" fill="#231F20"/><path d="M34.9.9v21.3" fill="#fff"/><path d="M34.4.9h1v21.3h-1z" fill="#231F20"/><path d="M29.1 13.2v16.3" fill="#fff"/><g fill="#231F20"><path d="M28.6 13.2h1v16.3h-1z"/><use xlink:href="#B"/></g><path d="M32 102.7v16.7" fill="#fff"/><path d="M31.5 102.7h1v16.7h-1z" fill="#231F20"/><path d="M26.3 112.4v12.8" fill="#fff"/><path d="M25.8 112.4h1v12.8h-1zm4.1 17.1h-1.5v-.5h1.5v.5zm0-2.5h-1.5v-1h1.5v1zm0-3h-1.5v-1h1.5v1zm0-3.1h-1.5v-1h1.5v1zm0-3h-1.5v-1h1.5v1zm0-3h-1.5v-1h1.5v1zm0-3h-1.5v-1h1.5v1zm0-3h-1.5v-1h1.5v1z" fill="#231F20"/><path d="M113.8 44.8v21.3" fill="#fff"/><path d="M113.3 44.8h1v21.3h-1z" fill="#231F20"/><path d="M108.1 57.1v16.3" fill="#fff"/><g fill="#231F20"><path d="M107.6 57.1h1v16.3h-1z"/><use xlink:href="#B" x="79" y="43.9"/><use xlink:href="#C"/><use xlink:href="#D"/><use xlink:href="#E"/><use xlink:href="#E" x="-4" y="-4.1"/><use xlink:href="#D" x="-100.7" y="35.5"/><path d="M10.3 55.4c-.2 0-.4-.1-.5-.2-.3-.3-.3-.8 0-1.1l1.3-1.3c.3-.3.8-.3 1.1 0s.3.8 0 1.1l-1.3 1.3c-.3.2-.4.2-.6.2zm5.3 0c-.2 0-.4-.1-.5-.2l-1.3-1.3c-.3-.3-.3-.8 0-1.1s.8-.3 1.1 0l1.3 1.3c.3.3.3.8 0 1.1-.2.2-.4.2-.6.2zm-4-4c-.2 0-.4-.1-.5-.2l-1.3-1.3c-.3-.3-.3-.8 0-1.1s.8-.3 1.1 0l1.3 1.3c.3.3.3.8 0 1.1-.3.1-.5.2-.6.2z"/><use xlink:href="#D" x="-1.3" y="100.4"/><use xlink:href="#C" x="-9.4" y="108.6"/><use xlink:href="#E" x="-5.3" y="104.5"/><use xlink:href="#E" x="-9.4" y="100.4"/></g><circle cx="18.6" cy="18" r="3.2" fill="#84DBFF"/><circle cx="113.7" cy="32.1" r="3.2" fill="#E6E9EE"/><circle cx="106.8" cy="95.9" r="3.2" fill="#FF7058"/><circle cx="11.6" cy="106" r="3.2" fill="#FFD05B"/><defs ><path id="B" d="M32.7 35h-1.5v-.4h1.5v.4zm0-2.3h-1.5v-1h1.5v1zm0-3.1h-1.5v-1h1.5v1zm0-3h-1.5v-1h1.5v1zm0-3h-1.5v-1h1.5v1zm0-3h-1.5v-1h1.5v1zm0-3h-1.5v-1h1.5v1zm0-3h-1.5v-1h1.5v1zm0-3.1h-1.5v-1h1.5v1zm0-3h-1.5v-1h1.5v1z"/><path id="C" d="M119.1 11.8c-.2 0-.4-.1-.5-.2-.3-.3-.3-.8 0-1.1l1.3-1.3c.3-.3.8-.3 1.1 0s.3.8 0 1.1l-1.3 1.3c-.3.1-.5.2-.6.2z"/><path id="D" d="M115 15.9c-.2 0-.4-.1-.5-.2-.3-.3-.3-.8 0-1.1l1.3-1.3c.3-.3.8-.3 1.1 0s.3.8 0 1.1l-1.3 1.3c-.2.1-.4.2-.6.2z"/><path id="E" d="M120.3 15.9c-.2 0-.4-.1-.5-.2l-1.3-1.3c-.3-.3-.3-.8 0-1.1s.8-.3 1.1 0l1.3 1.3c.3.3.3.8 0 1.1-.2.1-.4.2-.6.2z"/></defs></svg>