<svg xmlns="http://www.w3.org/2000/svg" viewBox="0 0 129.5 129.5"><style><![CDATA[.E{fill:#231F20}.F{fill:#fff}.G{fill:#E6E9EE}]]></style><g class="E"><path d="M107.2 100.1h-1v-1.5h1v1.5zm-3 0h-1v-1.5h1v1.5zm-3 0h-1v-1.5h1v1.5zm-3 0h-1v-1.5h1v1.5zm-3 0h-1v-1.5h1v1.5zm-3 0h-1v-1.5h1v1.5zm-3 0h-1v-1.5h1v1.5zm-3 0h-1v-1.5h1v1.5z"/><path d="M81.3 106.3L67.1 92.1l14.2-14.2v6.3h26.5v1.5h-28v-4.1L69.2 92.1l10.6 10.6v-4.1h5.4v1.5h-3.9zm16.3 19.2l-.1-1.5h.1v1.5zm-2.1 0h-1V124h1v1.5zm-3 0h-1V124h1v1.5zm-3 0h-1V124h1v1.5zm-3 0h-1V124h1v1.5zm-3 0h-1V124h1v1.5zm-3 0h-1V124h1v1.5z"/><path d="M77.2 130l-10.1-10 10.1-10.1v4.5h20.4v1.5H75.7v-2.3l-6.5 6.4 6.5 6.4V124h3.8v1.5h-2.3zm25.7-48.3H101c-.4 0-.8-.3-.8-.8s.3-.8.8-.8h1.8c.4 0 .8.3.8.8s-.3.8-.7.8zm-4 0h-1c-.4 0-.8-.3-.8-.8s.3-.8.8-.8h1c.4 0 .8.3.8.8s-.4.8-.8.8zm-3.1 0H83.6c-.4 0-.8-.3-.8-.8s.3-.8.8-.8h12.3c.4 0 .8.3.8.8s-.5.8-.9.8zm9.7 13.8h-1.8c-.4 0-.8-.3-.8-.8 0-.4.3-.8.8-.8h1.8c.4 0 .8.3.8.8-.1.5-.4.8-.8.8zm-4 0h-1c-.4 0-.8-.3-.8-.8 0-.4.3-.8.8-.8h1c.4 0 .8.3.8.8s-.3.8-.8.8zm-3 0H86.2c-.4 0-.8-.3-.8-.8 0-.4.3-.8.8-.8h12.3c.4 0 .8.3.8.8-.1.5-.4.8-.8.8zm-.6 25.2h-1.5c-.4 0-.8-.3-.8-.8 0-.4.3-.8.8-.8h1.5c.4 0 .8.3.8.8s-.4.8-.8.8zm-3.3 0h-.8c-.4 0-.8-.3-.8-.8 0-.4.3-.8.8-.8h.8c.4 0 .8.3.8.8-.1.5-.4.8-.8.8zm-2.6 0H81.7c-.4 0-.8-.3-.8-.8 0-.4.3-.8.8-.8H92c.4 0 .8.3.8.8s-.4.8-.8.8zm14.1-8.2h-1.5c-.4 0-.8-.3-.8-.8s.3-.8.8-.8h1.5c.4 0 .8.3.8.8s-.4.8-.8.8zm-3.3 0h-.8c-.4 0-.8-.3-.8-.8s.3-.8.8-.8h.8c.4 0 .8.3.8.8s-.4.8-.8.8zm-2.6 0H89.9c-.4 0-.8-.3-.8-.8s.3-.8.8-.8h10.3c.4 0 .8.3.8.8s-.4.8-.8.8z"/></g><circle cx="28.9" cy="90.1" r="2.3" fill="#FFD05B"/><g fill="#FF7058"><circle cx="9.4" cy="120" r="2.3"/><circle cx="120.3" cy="85.4" r="2.3"/></g><circle cx="64.1" cy="106.8" r="2.3" fill="#4CDBC4"/><path d="M9.4 69.1V5.2a4.95 4.95 0 0 1 5-5h12.4v73.9H14.4c-2.7 0-5-2.2-5-5zm101.7 5V.2h5.6a4.95 4.95 0 0 1 5 5v63.9a4.95 4.95 0 0 1-5 5h-5.6z" class="G"/><path d="M26.9.2h84.2v73.9H26.9z" class="F"/><path d="M28.9 2.2h80.2v69.9H28.9z" fill="#84DBFF"/><circle cx="17.4" cy="37.2" r="4.7" class="F"/><path d="M17.4 42.7c-3 0-5.5-2.5-5.5-5.5s2.5-5.5 5.5-5.5 5.5 2.5 5.5 5.5-2.5 5.5-5.5 5.5zm0-9.5c-2.2 0-4 1.8-4 4s1.8 4 4 4 4-1.8 4-4-1.8-4-4-4z" class="E"/><path d="M116.3 26v4.6" class="G"/><path d="M116.3 31.4c-.4 0-.8-.3-.8-.8V26c0-.4.3-.8.8-.8s.8.3.8.8v4.6c0 .4-.3.8-.8.8z" class="E"/><path d="M116.3 33.9v14.5" class="G"/><path d="M116.3 49.1c-.4 0-.8-.3-.8-.8V33.9c0-.4.3-.8.8-.8s.8.3.8.8v14.5c0 .4-.3.7-.8.7z" class="E"/><path d="M34.1 12.6h69.8v9.9H34.1zm0 43.3h9.6v9.6h-9.6z" class="F"/><path d="M43.7 66.3h-9.6c-.4 0-.8-.3-.8-.8v-9.6c0-.4.3-.8.8-.8h9.6c.4 0 .8.3.8.8v9.6c0 .4-.4.8-.8.8zm-8.9-1.5H43v-8.1h-8.1v8.1z" class="E"/><path d="M49.1 55.9h9.6v9.6h-9.6z" class="F"/><path d="M58.8 66.3h-9.6c-.4 0-.8-.3-.8-.8v-9.6c0-.4.3-.8.8-.8h9.6c.4 0 .8.3.8.8v9.6c-.1.4-.4.8-.8.8zm-8.9-1.5H58v-8.1h-8.1v8.1z" class="E"/><path d="M64.1 55.9h9.6v9.6h-9.6z" class="F"/><path d="M73.8 66.3h-9.6c-.4 0-.7-.3-.7-.8v-9.6c0-.4.3-.8.7-.8h9.6c.4 0 .8.3.8.8v9.6c-.1.4-.4.8-.8.8zm-8.9-1.5H73v-8.1h-8.1v8.1z" class="E"/><path d="M79.2 55.9h9.6v9.6h-9.6z" class="F"/><path d="M88.8 66.3h-9.6c-.4 0-.8-.3-.8-.8v-9.6c0-.4.3-.8.8-.8h9.6c.4 0 .8.3.8.8v9.6c0 .4-.4.8-.8.8zm-8.9-1.5H88v-8.1h-8.1v8.1z" class="E"/><path d="M94.2 55.9h9.6v9.6h-9.6z" class="F"/><path d="M103.9 66.3h-9.6c-.4 0-.8-.3-.8-.8v-9.6c0-.4.3-.8.8-.8h9.6c.4 0 .8.3.8.8v9.6c-.1.4-.4.8-.8.8zM95 64.8h8.1v-8.1H95v8.1zM116.6-.5H14.4c-3.2 0-5.8 2.6-5.8 5.8v63.9c0 3.2 2.6 5.8 5.8 5.8h4.3v.3h1.5V75h96.4c3.2 0 5.8-2.6 5.8-5.8v-64c0-3.2-2.6-5.7-5.8-5.7zM26.1 73.4H14.4c-2.3 0-4.3-1.9-4.3-4.3V5.2c0-2.3 1.9-4.3 4.3-4.3h11.7v72.5zm84.2 0H27.6V1h82.7v72.4zm10.6-4.3c0 2.3-1.9 4.3-4.3 4.3h-4.8V1h4.8c2.3 0 4.3 1.9 4.3 4.3v63.8zm-87.6 13h1v1.5h-1zm6 0h1v1.5h-1zm3 0h1v1.5h-1zm-1.8 14.2h1v1.5h-1zM30.3 82.1h1v1.5h-1zm-11.4-1.8c.1.4.2.8.4 1.1l1.3-.7c-.1-.2-.2-.5-.3-.7l-1.4.3zm8.4 1.8h1v1.5h-1zm16.2 14.2h1v1.5h-1zM18.8 77.1h1.5v1h-1.5zm2.2 6a4.87 4.87 0 0 0 1.1.4l.3-1.5c-.3-.1-.5-.1-.7-.3l-.7 1.4zm3.3-1h1v1.5h-1zm12 0h1v1.5h-1zm23.1 6.1l-.3-1.1-1.4.5.3.9 1.4-.3zm-4.9-5.6L54 84c.3.1.6.2.8.4l.7-1.3c-.3-.2-.6-.4-1-.5zm.4 12.8l.8 1.3.9-.6-.9-1.2c-.3.2-.5.4-.8.5zm2.4-11l-1.1 1.1c.2.2.4.4.6.7l1.2-.9c-.2-.4-.4-.7-.7-.9zm.7 6.8l1.5.3c.1-.4.1-.7.1-1.1l-1.5-.1c0 .3-.1.6-.1.9zm-12.7-9.1h1v1.5h-1zm11.6 11.5l1.2.9.6-.9-1.3-.7c-.2.2-.3.5-.5.7zm-10.4 2.7h1v1.5h-1zm1.8-14.2h1v1.5h-1zm1.2 14.2h1v1.5h-1zm2.9-.1l.1 1.5c.4 0 .7-.1 1.1-.2l-.4-1.5c-.2.1-.5.2-.8.2zm-1.1-14.1v1.5h.9l.1-1.5h-1z" class="E"/><path d="M50.2 114.1v-3l-3.1-.6c-.3-2-1.1-3.8-2.2-5.3l1.8-2.6-2.1-2.1-2.6 1.8a12.47 12.47 0 0 0-5.3-2.2l-.7-3.2h-3l-.6 3.1c-2 .3-3.8 1.1-5.3 2.2l-2.6-1.8-2.1 2.1 1.8 2.6a12.47 12.47 0 0 0-2.2 5.3l-3.1.6v3l3.1.6c.3 2 1.1 3.8 2.2 5.3l-1.8 2.6 2.1 2.1 2.6-1.8a12.47 12.47 0 0 0 5.3 2.2l.6 3.1h3l.6-3.1c2-.3 3.8-1.1 5.3-2.2l2.6 1.8 2.1-2.1-1.8-2.6a12.47 12.47 0 0 0 2.2-5.3l3.2-.5z" class="F"/><path d="M36 129h-3c-.4 0-.7-.3-.7-.6l-.5-2.6c-1.7-.3-3.2-1-4.7-1.9l-2.2 1.5c-.3.2-.7.2-1-.1l-2.1-2.1c-.3-.3-.3-.7-.1-1l1.5-2.2c-.9-1.4-1.6-3-1.9-4.7l-2.6-.5c-.4-.1-.6-.4-.6-.7v-3c0-.4.3-.7.6-.7l2.6-.5c.3-1.7 1-3.2 1.9-4.7l-1.5-2.2c-.2-.3-.2-.7.1-1l2.1-2.1c.3-.3.7-.3 1-.1l2.2 1.5c1.4-.9 3-1.6 4.7-1.9l.5-2.6c.1-.4.4-.6.7-.6h3c.4 0 .7.3.7.6l.5 2.6c1.7.3 3.2 1 4.7 1.9l2.2-1.5c.3-.2.7-.2 1 .1l2.1 2.1c.3.3.3.7.1 1l-1.5 2.2c.9 1.4 1.6 3 1.9 4.7l2.6.5c.4.1.6.4.6.7v3c0 .4-.3.7-.6.7l-2.6.5c-.3 1.7-1 3.2-1.9 4.7l1.5 2.2c.2.3.2.7-.1 1l-2.1 2.1c-.3.3-.7.3-1 .1l-2.2-1.5c-1.4.9-3 1.6-4.7 1.9l-.5 2.6c0 .3-.3.6-.7.6zm-2.4-1.5h1.8l.5-2.5c.1-.3.3-.6.6-.6 1.8-.3 3.5-1 5-2.1.3-.2.6-.2.9 0l2.1 1.4 1.3-1.3-1.4-2.1c-.2-.3-.2-.6 0-.9 1.1-1.5 1.8-3.2 2.1-5 .1-.3.3-.6.6-.6l2.5-.5v-1.8l-2.5-.5c-.3-.1-.6-.3-.6-.6-.3-1.8-1-3.5-2.1-5-.2-.3-.2-.6 0-.9l1.4-2.1-1.3-1.3-2.1 1.4c-.3.2-.6.2-.9 0-1.5-1.1-3.2-1.8-5-2.1-.3-.1-.6-.3-.6-.6l-.5-2.5h-1.8l-.5 2.5c-.1.3-.3.6-.6.6-1.8.3-3.5 1-5 2.1-.3.2-.6.2-.9 0l-2.1-1.4-1.3 1.3 1.4 2.1c.2.3.2.6 0 .9-1.1 1.5-1.8 3.2-2.1 5-.1.3-.3.6-.6.6l-2.5.5v1.8l2.5.5c.3.1.6.3.6.6.3 1.8 1 3.5 2.1 5 .2.3.2.6 0 .9l-1.4 2.1 1.3 1.3 2.1-1.4c.3-.2.6-.2.9 0 1.5 1.1 3.2 1.8 5 2.1.3.1.6.3.6.6l.5 2.5z" class="E"/><circle cx="34.5" cy="112.6" r="7.5" class="F"/><path d="M34.5 120.8a8.28 8.28 0 1 1 0-16.6 8.28 8.28 0 1 1 0 16.6zm0-15a6.81 6.81 0 0 0-6.8 6.8 6.81 6.81 0 0 0 6.8 6.8 6.81 6.81 0 0 0 6.8-6.8 6.74 6.74 0 0 0-6.8-6.8zM11.7 91.5c-.2 0-.4-.1-.5-.2-.3-.3-.3-.8 0-1.1l1.3-1.3c.3-.3.8-.3 1.1 0s.3.8 0 1.1l-1.3 1.3c-.2.1-.4.2-.6.2zm-4 4c-.2 0-.4-.1-.5-.2-.3-.3-.3-.8 0-1.1l1.3-1.3c.3-.3.8-.3 1.1 0s.3.8 0 1.1l-1.3 1.3c-.3.1-.5.2-.6.2zm5.3 0c-.2 0-.4-.1-.5-.2L11.1 94c-.3-.3-.3-.8 0-1.1s.8-.3 1.1 0l1.3 1.3c.3.3.3.8 0 1.1-.1.1-.3.2-.5.2zm-4.1-4c-.2 0-.4-.1-.5-.2L7.1 90c-.3-.3-.3-.8 0-1.1s.8-.3 1.1 0l1.3 1.3c.3.3.3.8 0 1.1-.2.1-.4.2-.6.2zm110.7 27.6c-.2 0-.4-.1-.5-.2-.3-.3-.3-.8 0-1.1l1.3-1.3c.3-.3.8-.3 1.1 0s.3.8 0 1.1l-1.3 1.3c-.2.1-.4.2-.6.2zm-4 4c-.2 0-.4-.1-.5-.2-.3-.3-.3-.8 0-1.1l1.3-1.3c.3-.3.8-.3 1.1 0s.3.8 0 1.1l-1.3 1.3c-.2.2-.4.2-.6.2zm5.3 0c-.2 0-.4-.1-.5-.2l-1.3-1.3c-.3-.3-.3-.8 0-1.1s.8-.3 1.1 0l1.3 1.3c.3.3.3.8 0 1.1-.2.2-.4.2-.6.2zm-4-4c-.2 0-.4-.1-.5-.2l-1.3-1.3c-.3-.3-.3-.8 0-1.1s.8-.3 1.1 0l1.3 1.3c.3.3.3.8 0 1.1-.2.1-.4.2-.6.2z" class="E"/><path d="M47 33.5h-8.1c-.4 0-.8-.3-.8-.8 0-.4.3-.8.8-.8H47c.4 0 .8.3.8.8-.1.4-.4.8-.8.8zm3.2 2.9h-4c-.4 0-.8-.3-.8-.8 0-.4.3-.8.8-.8h4c.4 0 .8.3.8.8-.1.5-.4.8-.8.8zm4.2-2.9h-3.8c-.4 0-.8-.3-.8-.8 0-.4.3-.8.8-.8h3.8c.4 0 .8.3.8.8 0 .4-.3.8-.8.8zm-11.1 2.9h-.8c-.4 0-.8-.3-.8-.8 0-.4.3-.8.8-.8h.8c.4 0 .8.3.8.8s-.4.8-.8.8zm44.9 3.2h-8.1c-.4 0-.8-.3-.8-.8s.3-.8.8-.8h8.1c.4 0 .8.3.8.8s-.4.8-.8.8zm3.1 3h-4c-.4 0-.8-.3-.8-.8 0-.4.3-.8.8-.8h4c.4 0 .8.3.8.8 0 .4-.3.8-.8.8zm4.3-3h-3.8c-.4 0-.8-.3-.8-.8s.3-.8.8-.8h3.8c.4 0 .8.3.8.8s-.4.8-.8.8zm-11.1 3h-.8c-.4 0-.8-.3-.8-.8 0-.4.3-.8.8-.8h.8c.4 0 .8.3.8.8-.1.4-.4.8-.8.8z" class="F"/></svg>