<?xml version="1.0" encoding="UTF-8" standalone="no"?>
<!-- Created with Inkscape (http://www.inkscape.org/) -->

<svg
   xmlns:dc="http://purl.org/dc/elements/1.1/"
   xmlns:cc="http://creativecommons.org/ns#"
   xmlns:rdf="http://www.w3.org/1999/02/22-rdf-syntax-ns#"
   xmlns:svg="http://www.w3.org/2000/svg"
   xmlns="http://www.w3.org/2000/svg"
   xmlns:sodipodi="http://sodipodi.sourceforge.net/DTD/sodipodi-0.dtd"
   xmlns:inkscape="http://www.inkscape.org/namespaces/inkscape"
   width="217"
   height="95"
   viewBox="0 0 57.414582 25.135417"
   version="1.1"
   id="svg1522"
   inkscape:version="0.92.3 (2405546, 2018-03-11)"
   sodipodi:docname="blog-customer-service.svg">
  <defs
     id="defs1516" />
  <sodipodi:namedview
     id="base"
     pagecolor="#ffffff"
     bordercolor="#666666"
     borderopacity="1.0"
     inkscape:pageopacity="0.0"
     inkscape:pageshadow="2"
     inkscape:zoom="1.4"
     inkscape:cx="117.66939"
     inkscape:cy="142.77082"
     inkscape:document-units="mm"
     inkscape:current-layer="layer1"
     showgrid="false"
     units="px"
     inkscape:window-width="1366"
     inkscape:window-height="705"
     inkscape:window-x="-8"
     inkscape:window-y="-8"
     inkscape:window-maximized="1" />
  <metadata
     id="metadata1519">
    <rdf:RDF>
      <cc:Work
         rdf:about="">
        <dc:format>image/svg+xml</dc:format>
        <dc:type
           rdf:resource="http://purl.org/dc/dcmitype/StillImage" />
        <dc:title></dc:title>
      </cc:Work>
    </rdf:RDF>
  </metadata>
  <g
     inkscape:label="Layer 1"
     inkscape:groupmode="layer"
     id="layer1"
     transform="translate(0,-271.86457)">
    <g
       transform="matrix(0.26458333,0,0,0.26458333,-5.8208332,252.00759)"
       id="XMLID_324_">
      <path
         id="XMLID_10_"
         d="m 48.3,84.3 h 137 c 4.6,0 8.3,3.7 8.3,8.3 v 0 c 0,4.6 -3.7,8.3 -8.3,8.3 h -15.6 c -4,0 -7.2,3.2 -7.2,7.2 v 0 c 0,4 3.2,7.2 7.2,7.2 h 41.9 c 4.4,0 8,3.6 8,8 v 0 c 0,4.4 -3.6,8 -8,8 h -21 v 0 c 0,8 -6.5,14.5 -14.5,14.5 v 0 c -3.5,0 -6.4,2.9 -6.4,6.4 v 17.1 h -92 v -1.4 c 0,-8.5 -6.9,-15.4 -15.4,-15.5 L 30.6,152 c -4.9,0 -8.8,-4 -8.8,-8.9 v 0 c 0,-4.9 4,-8.9 8.9,-8.9 h 31.7 v 0 c 0,-8.1 6.5,-14.6 14.6,-14.6 h 1.2 c 4.9,0 8.9,-4 8.9,-8.9 v 0 c 0,-4.9 -4,-8.9 -8.9,-8.9 H 48.3 c -4.9,0 -8.8,-3.9 -8.8,-8.8 v 0 c 0,-4.8 4,-8.7 8.8,-8.7 z"
         inkscape:connector-curvature="0"
         style="fill:#edf0f4" />
      <g
         id="XMLID_7_">
        <path
           id="XMLID_751_"
           d="m 123.9,168.8 v -57.2 c 0,-1.7 -1.4,-3.1 -3.1,-3.1 H 74.6 c -1.7,0 -3.1,1.4 -3.1,3.1 v 57.2 z"
           inkscape:connector-curvature="0"
           style="fill:#ffffff" />
        <path
           id="XMLID_739_"
           d="M 71.5,116.5 V 111 c 0,-1.5 1.2,-2.6 2.6,-2.6 h 47.2 c 1.5,0 2.6,1.2 2.6,2.6 v 5.5 z"
           inkscape:connector-curvature="0"
           style="fill:#bcbec0" />
        <path
           id="XMLID_123_"
           stroke-miterlimit="10"
           d="M 71.5,141.3 V 111 c 0,-1.5 1.2,-2.6 2.6,-2.6 h 31.2"
           inkscape:connector-curvature="0"
           style="fill:none;stroke:#414042;stroke-width:1.5;stroke-miterlimit:10" />
        <line
           id="XMLID_735_"
           stroke-miterlimit="10"
           x1="71.5"
           y1="116.6"
           x2="123.9"
           y2="116.6"
           style="fill:none;stroke:#414042;stroke-width:1.5;stroke-miterlimit:10" />
        <line
           id="XMLID_734_"
           stroke-miterlimit="10"
           x1="77.5"
           y1="112.9"
           x2="79.599998"
           y2="112.9"
           style="fill:none;stroke:#414042;stroke-width:1.5;stroke-miterlimit:10" />
        <line
           id="XMLID_727_"
           stroke-miterlimit="10"
           x1="82.300003"
           y1="112.9"
           x2="84.400002"
           y2="112.9"
           style="fill:none;stroke:#414042;stroke-width:1.5;stroke-miterlimit:10" />
        <line
           id="XMLID_726_"
           stroke-miterlimit="10"
           x1="87.199997"
           y1="112.9"
           x2="89.300003"
           y2="112.9"
           style="fill:none;stroke:#414042;stroke-width:1.5;stroke-miterlimit:10" />
        <rect
           id="XMLID_725_"
           x="78.5"
           y="122.7"
           width="38.400002"
           height="15.1"
           style="fill:#f1f2f2" />
        <rect
           id="XMLID_724_"
           x="78.5"
           y="147.39999"
           width="11.7"
           height="15.1"
           style="fill:#f1f2f2" />
        <rect
           id="XMLID_723_"
           x="94.300003"
           y="147.39999"
           width="11.7"
           height="15.1"
           style="fill:#f1f2f2" />
      </g>
      <line
         id="XMLID_9_"
         stroke-miterlimit="10"
         x1="36.799999"
         y1="169.3"
         x2="39.5"
         y2="169.3"
         style="fill:none;stroke:#414042;stroke-width:1.5;stroke-miterlimit:10" />
      <line
         id="XMLID_15_"
         stroke-miterlimit="10"
         x1="206.7"
         y1="169.3"
         x2="212.8"
         y2="169.3"
         style="fill:none;stroke:#414042;stroke-width:1.5;stroke-miterlimit:10" />
      <g
         id="XMLID_29_">
        <line
           id="XMLID_31_"
           stroke-miterlimit="10"
           x1="130"
           y1="78.400002"
           x2="134.3"
           y2="78.400002"
           style="fill:none;stroke:#414042;stroke-width:1.5;stroke-linecap:round;stroke-miterlimit:10" />
        <line
           id="XMLID_30_"
           stroke-miterlimit="10"
           x1="132.2"
           y1="80.599998"
           x2="132.2"
           y2="76.300003"
           style="fill:none;stroke:#414042;stroke-width:1.5;stroke-linecap:round;stroke-miterlimit:10" />
      </g>
      <g
         id="XMLID_21_">
        <line
           id="XMLID_23_"
           stroke-miterlimit="10"
           x1="215.60001"
           y1="108.9"
           x2="218.60001"
           y2="105.8"
           style="fill:none;stroke:#414042;stroke-width:1.5;stroke-linecap:round;stroke-miterlimit:10" />
        <line
           id="XMLID_22_"
           stroke-miterlimit="10"
           x1="218.60001"
           y1="108.9"
           x2="215.60001"
           y2="105.8"
           style="fill:none;stroke:#414042;stroke-width:1.5;stroke-linecap:round;stroke-miterlimit:10" />
      </g>
      <g
         id="XMLID_119_">
        <line
           id="XMLID_121_"
           stroke-miterlimit="10"
           x1="57.299999"
           y1="97"
           x2="60.299999"
           y2="94"
           style="fill:none;stroke:#414042;stroke-width:1.5;stroke-linecap:round;stroke-miterlimit:10" />
        <line
           id="XMLID_120_"
           stroke-miterlimit="10"
           x1="60.299999"
           y1="97"
           x2="57.299999"
           y2="94"
           style="fill:none;stroke:#414042;stroke-width:1.5;stroke-linecap:round;stroke-miterlimit:10" />
      </g>
      <line
         id="XMLID_24_"
         stroke-miterlimit="10"
         x1="35.599998"
         y1="110"
         x2="53"
         y2="110"
         style="fill:none;stroke:#414042;stroke-width:1.5;stroke-miterlimit:10" />
      <line
         id="XMLID_35_"
         stroke-miterlimit="10"
         x1="77.699997"
         y1="78.699997"
         x2="123.9"
         y2="78.699997"
         style="fill:none;stroke:#414042;stroke-width:1.5;stroke-miterlimit:10" />
      <line
         id="XMLID_25_"
         stroke-miterlimit="10"
         x1="58.099998"
         y1="110"
         x2="54.5"
         y2="110"
         style="fill:none;stroke:#414042;stroke-width:1.5;stroke-miterlimit:10" />
      <line
         id="XMLID_26_"
         stroke-miterlimit="10"
         x1="196.3"
         y1="135.3"
         x2="213.7"
         y2="135.3"
         style="fill:none;stroke:#414042;stroke-width:1.5;stroke-miterlimit:10" />
      <line
         id="XMLID_36_"
         stroke-miterlimit="10"
         x1="218.7"
         y1="135.3"
         x2="215.2"
         y2="135.3"
         style="fill:none;stroke:#414042;stroke-width:1.5;stroke-miterlimit:10" />
      <path
         id="XMLID_40_"
         d="m 90.4,92.3 c 0,0.6 -0.5,1.1 -1.1,1.1 -0.6,0 -1.1,-0.5 -1.1,-1.1 0,-0.6 0.5,-1.1 1.1,-1.1 0.6,0 1.1,0.5 1.1,1.1 z"
         inkscape:connector-curvature="0"
         style="fill:#414042" />
      <path
         id="XMLID_118_"
         d="m 194.6,121.8 c 0,0.7 -0.6,1.3 -1.3,1.3 -0.7,0 -1.3,-0.6 -1.3,-1.3 0,-0.7 0.6,-1.3 1.3,-1.3 0.8,0.1 1.3,0.6 1.3,1.3 z"
         inkscape:connector-curvature="0"
         style="fill:#414042" />
      <path
         id="XMLID_48_"
         d="m 61.3,123.6 c 0,0.6 -0.5,1.1 -1.1,1.1 -0.6,0 -1.1,-0.5 -1.1,-1.1 0,-0.6 0.5,-1.1 1.1,-1.1 0.6,0 1.1,0.5 1.1,1.1 z"
         inkscape:connector-curvature="0"
         style="fill:#414042" />
      <g
         id="XMLID_5_">
        <path
           id="XMLID_802_"
           d="m 178.2,166.7 h -62 c -0.5,0 -1,-0.4 -1,-1 v -44 c 0,-0.6 0.5,-1 1,-1 h 62 c 0.6,0 1,0.4 1,1 v 44 c 0,0.6 -0.5,1 -1,1 z"
           inkscape:connector-curvature="0"
           style="fill:#58595b" />
        <path
           id="XMLID_319_"
           stroke-miterlimit="10"
           d="m 116.7,166.7 c -0.9,0 -1.6,-0.7 -1.6,-1.6 v -42.8 c 0,-0.9 0.7,-1.6 1.6,-1.6 h 10.1"
           inkscape:connector-curvature="0"
           style="fill:none;stroke:#414042;stroke-width:1.5;stroke-miterlimit:10" />
        <path
           id="XMLID_316_"
           stroke-miterlimit="10"
           d="m 151.6,120.7 h 26 c 0.9,0 1.6,0.7 1.6,1.6 v 17.3"
           inkscape:connector-curvature="0"
           style="fill:none;stroke:#414042;stroke-width:1.5;stroke-miterlimit:10" />
        <rect
           id="XMLID_799_"
           x="118.2"
           y="124.3"
           width="57.5"
           height="37.299999"
           style="fill:#ffffff" />
        <path
           id="XMLID_798_"
           d="m 178,169.3 h -62.5 c -1.5,0 -2.8,-1.1 -3,-2.6 l -0.4,-2.7 h 29 l 1.1,1.6 h 8 l 1.2,-1.6 h 30.5 l -0.4,2.4 c -0.3,1.6 -1.7,2.9 -3.5,2.9 z"
           inkscape:connector-curvature="0"
           style="fill:#ffffff" />
        <path
           id="XMLID_122_"
           stroke-miterlimit="10"
           d="m 148.2,165.6 h 2 l 1.2,-1.6 h 30.5 l -0.4,2.4 c -0.3,1.7 -1.7,2.9 -3.4,2.9 h -62.5 c -1.5,0 -2.8,-1.1 -3,-2.6 l -0.4,-2.7"
           inkscape:connector-curvature="0"
           style="fill:none;stroke:#414042;stroke-width:1.5;stroke-miterlimit:10" />
      </g>
      <path
         id="XMLID_327_"
         d="m 107.1,168.8 h 16.8 v -52.3 -5 -0.5 c 0,-1.5 -1.2,-2.6 -2.6,-2.6 h -0.5 -11.5 c -0.1,0.6 -0.1,1.2 -0.1,1.9 v 2.9 h -2.8 v -1.6 c 0,-1.1 0.1,-2.2 0.3,-3.2 h -1.4 v -0.5 c -0.2,1.2 -0.4,2.5 -0.4,3.8 v 1.6 h -0.2 c -1.4,0 -2.6,1.2 -2.6,2.6 v 7.5 c 0,1.4 1.2,2.6 2.6,2.6 h 4.4 v 17.9 c 0,1.4 -0.4,2.8 -1.2,3.5 -0.4,0.5 -1,0.7 -1.6,0.7 v 1.5 h 3.5 c -1.7,2.9 -2.8,6.2 -2.8,9.8 v 9.4 z"
         inkscape:connector-curvature="0"
         style="opacity:0.3;fill:#414042" />
      <path
         id="XMLID_345_"
         d="m 148.3,169.3 h 0.7 v -9.9 c 0,-3.6 -1,-6.9 -2.8,-9.8 h 2.1 V 148 c -0.6,0 -1.2,-0.2 -1.6,-0.7 -0.8,-0.8 -1.2,-2.1 -1.2,-3.6 v -11 h 1.2 l 2.4,-2.5 v -4.4 h 1 c 1.4,0 2.6,-1.2 2.6,-2.6 v -3.4 h -1.2 v 0.7 h -24.8 v -0.7 h -10.1 c -1.3,0 -2.3,1.1 -2.3,2.3 V 164 h -1.5 v -0.1 l -1.5,0.2 0.4,2.7 c 0.2,1 0.7,1.9 1.5,2.4 z m -2.7,-41.8 c 0.1,-0.5 0.1,-1 0.2,-1.6 h 1.9 v 3.8 l -1.5,1.6 h -0.5 v -3.8 z"
         inkscape:connector-curvature="0"
         style="opacity:0.3;fill:#414042" />
      <g
         id="XMLID_19_">
        <g
           id="XMLID_20_">
          <path
             id="XMLID_53_"
             d="m 146.4,148.8 h -5.8 -12.2 v -38.5 c 0,-5.7 3.2,-10.3 7.2,-10.3 v 0 c 4,0 7.2,4.6 7.2,10.3 v 33.5 c 0.1,2.3 1.2,5 3.6,5 z"
             inkscape:connector-curvature="0"
             style="fill:#ffb936" />
          <path
             id="XMLID_51_"
             stroke-miterlimit="10"
             d="m 146.4,148.8 h -5.8 -12.2 v -38.5 c 0,-5.7 3.2,-10.3 7.2,-10.3 v 0 c 4,0 7.2,4.6 7.2,10.3 v 33.5 c 0.1,2.3 1.2,5 3.6,5 z"
             inkscape:connector-curvature="0"
             style="fill:none;stroke:#414042;stroke-width:1.5;stroke-miterlimit:10" />
          <path
             id="XMLID_565_"
             d="m 108.8,148.8 h 5.8 12.2 v -38.5 c 0,-5.7 -3.2,-10.3 -7.2,-10.3 v 0 c -4,0 -7.2,4.6 -7.2,10.3 v 33.5 c 0,2.3 -1.1,5 -3.6,5 z"
             inkscape:connector-curvature="0"
             style="fill:#ffb936" />
          <path
             id="XMLID_563_"
             stroke-miterlimit="10"
             d="m 108.8,148.8 h 5.8 12.2 v -38.5 c 0,-5.7 -3.2,-10.3 -7.2,-10.3 v 0 c -4,0 -7.2,4.6 -7.2,10.3 v 33.5 c 0,2.3 -1.1,5 -3.6,5 z"
             inkscape:connector-curvature="0"
             style="fill:none;stroke:#414042;stroke-width:1.5;stroke-miterlimit:10" />
          <g
             id="XMLID_77_">
            <path
               id="XMLID_300_"
               d="m 143.2,118.9 v -9.1 c 0,-7.8 -6.4,-14.1 -14.1,-14.1 h -2.5 c -7.8,0 -14.1,6.4 -14.1,14.1 v 9.1 z"
               inkscape:connector-curvature="0"
               style="fill:#ffb936" />
            <path
               id="XMLID_83_"
               d="m 143.2,118.9 v -9.1 c 0,-7.8 -6.4,-14.1 -14.1,-14.1 h -2.5 c -7.8,0 -14.1,6.4 -14.1,14.1 v 9.1 z"
               inkscape:connector-curvature="0"
               style="fill:#ffb936" />
          </g>
          <g
             id="XMLID_45_">
            <path
               id="XMLID_50_"
               stroke-miterlimit="10"
               d="m 143.2,118.9 v -9.1 c 0,-7.8 -6.4,-14.1 -14.1,-14.1 h -2.5 c -7.8,0 -14.1,6.4 -14.1,14.1 v 9.1 z"
               inkscape:connector-curvature="0"
               style="fill:none;stroke:#414042;stroke-width:1.5;stroke-miterlimit:10" />
            <path
               id="XMLID_49_"
               stroke-miterlimit="10"
               d="m 143.2,118.9 v -9.1 c 0,-7.8 -6.4,-14.1 -14.1,-14.1 h -2.5 c -7.8,0 -14.1,6.4 -14.1,14.1 v 9.1 z"
               inkscape:connector-curvature="0"
               style="fill:none;stroke:#414042;stroke-width:1.5;stroke-miterlimit:10" />
          </g>
          <path
             id="XMLID_574_"
             d="m 146.3,169.3 v -9.9 c 0,-10 -8.2,-18.3 -18.3,-18.3 v 0 c -10,0 -18.3,8.2 -18.3,18.3 v 9.9 z"
             inkscape:connector-curvature="0"
             style="fill:#00d4ff" />
          <path
             id="XMLID_573_"
             stroke-miterlimit="10"
             d="m 146.3,169.3 v -9.9 c 0,-10 -8.2,-18.3 -18.3,-18.3 v 0 c -10,0 -18.3,8.2 -18.3,18.3 v 9.9"
             inkscape:connector-curvature="0"
             style="fill:none;stroke:#414042;stroke-width:1.5;stroke-miterlimit:10" />
          <line
             id="XMLID_572_"
             stroke-miterlimit="10"
             x1="119.3"
             y1="158.10001"
             x2="119.3"
             y2="169.3"
             style="fill:none;stroke:#414042;stroke-width:1.5;stroke-miterlimit:10" />
          <line
             id="XMLID_571_"
             stroke-miterlimit="10"
             x1="137.89999"
             y1="158.10001"
             x2="137.89999"
             y2="169.3"
             style="fill:none;stroke:#414042;stroke-width:1.5;stroke-miterlimit:10" />
          <path
             id="XMLID_570_"
             d="m 127.8,148.5 v 0 c -2.2,0 -4,-1.8 -4,-4 v -8.4 c 0,-2.2 1.8,-4 4,-4 v 0 c 2.2,0 4,1.8 4,4 v 8.4 c -0.1,2.2 -1.8,4 -4,4 z"
             inkscape:connector-curvature="0"
             style="fill:#ffffff" />
          <path
             id="XMLID_569_"
             stroke-miterlimit="10"
             d="m 127.8,148.5 v 0 c -2.2,0 -4,-1.8 -4,-4 v -8.4 c 0,-2.2 1.8,-4 4,-4 v 0 c 2.2,0 4,1.8 4,4 v 8.4 c -0.1,2.2 -1.8,4 -4,4 z"
             inkscape:connector-curvature="0"
             style="fill:none;stroke:#414042;stroke-width:1.5;stroke-miterlimit:10" />
          <path
             id="XMLID_568_"
             d="m 143.1,114.7 v 10.1 c 0,8.4 -6.9,15.4 -15.4,15.4 v 0 c -8.4,0 -15.4,-6.9 -15.4,-15.4 v -10.1 c 7.6,0 13.6,-6.4 15.2,-8.4 0.2,-0.3 0.7,-0.3 0.9,0 1.8,2 7.8,8.4 14.7,8.4 z"
             inkscape:connector-curvature="0"
             style="fill:#ffffff" />
          <path
             id="XMLID_567_"
             stroke-miterlimit="10"
             d="m 143.1,114.7 v 10.1 c 0,8.4 -6.9,15.4 -15.4,15.4 v 0 c -8.4,0 -15.4,-6.9 -15.4,-15.4 v -10.1 c 7.6,0 13.6,-6.4 15.2,-8.4 0.2,-0.3 0.7,-0.3 0.9,0 1.8,2 7.8,8.4 14.7,8.4 z"
             inkscape:connector-curvature="0"
             style="fill:none;stroke:#414042;stroke-width:1.5;stroke-miterlimit:10" />
          <path
             id="XMLID_44_"
             stroke-miterlimit="10"
             d="m 135.5,93.1 c -2.4,-1 -5,-1.6 -7.8,-1.6 v 0 c -11,0 -20.1,9 -20.1,20.1 v 11.2"
             inkscape:connector-curvature="0"
             style="fill:none;stroke:#414042;stroke-width:1.5;stroke-miterlimit:10" />
          <path
             id="XMLID_33_"
             stroke-miterlimit="10"
             d="m 143.6,99.4 c -1.5,-1.9 -3.3,-3.6 -5.4,-4.9"
             inkscape:connector-curvature="0"
             style="fill:none;stroke:#414042;stroke-width:1.5;stroke-miterlimit:10" />
          <path
             id="XMLID_566_"
             stroke-miterlimit="10"
             d="m 147.8,122.8 v -11.2 c 0,-3.4 -0.8,-6.6 -2.3,-9.4"
             inkscape:connector-curvature="0"
             style="fill:none;stroke:#414042;stroke-width:1.5;stroke-miterlimit:10" />
          <path
             id="XMLID_562_"
             d="m 110.9,125.2 h -3.7 c -1,0 -1.8,-0.8 -1.8,-1.8 v -7.5 c 0,-1 0.8,-1.8 1.8,-1.8 h 3.7 z"
             inkscape:connector-curvature="0"
             style="fill:#58595b" />
          <path
             id="XMLID_564_"
             stroke-miterlimit="10"
             d="m 110.9,125.2 h -3.7 c -1,0 -1.8,-0.8 -1.8,-1.8 v -7.5 c 0,-1 0.8,-1.8 1.8,-1.8 h 3.7 z"
             inkscape:connector-curvature="0"
             style="fill:none;stroke:#414042;stroke-width:1.5;stroke-miterlimit:10" />
          <path
             id="XMLID_32_"
             d="m 144.5,125.2 h 3.7 c 1,0 1.8,-0.8 1.8,-1.8 v -7.5 c 0,-1 -0.8,-1.8 -1.8,-1.8 h -3.7 z"
             inkscape:connector-curvature="0"
             style="fill:#58595b" />
          <path
             id="XMLID_28_"
             stroke-miterlimit="10"
             d="m 144.5,125.2 h 3.7 c 1,0 1.8,-0.8 1.8,-1.8 v -7.5 c 0,-1 -0.8,-1.8 -1.8,-1.8 h -3.7 z"
             inkscape:connector-curvature="0"
             style="fill:none;stroke:#414042;stroke-width:1.5;stroke-miterlimit:10" />
          <polyline
             id="XMLID_583_"
             stroke-miterlimit="10"
             points="146.4,125.2       146.4,130 144.5,132.1 135.5,132.1     "
             style="fill:none;stroke:#414042;stroke-width:1.5;stroke-miterlimit:10" />
          <path
             id="XMLID_584_"
             d="m 134.4,134.3 h -4.5 c -1.1,0 -2,-0.9 -2,-2 v 0 c 0,-1.1 0.9,-2 2,-2 h 4.5 c 1.1,0 2,0.9 2,2 v 0 c 0,1.1 -0.9,2 -2,2 z"
             inkscape:connector-curvature="0"
             style="fill:#58595b" />
          <path
             id="XMLID_27_"
             stroke-miterlimit="10"
             d="m 134.4,134.3 h -4.5 c -1.1,0 -2,-0.9 -2,-2 v 0 c 0,-1.1 0.9,-2 2,-2 h 4.5 c 1.1,0 2,0.9 2,2 v 0 c 0,1.1 -0.9,2 -2,2 z"
             inkscape:connector-curvature="0"
             style="fill:none;stroke:#414042;stroke-width:1.5;stroke-miterlimit:10" />
        </g>
      </g>
      <g
         id="XMLID_369_">
        <path
           id="XMLID_363_"
           d="M 192.2,152.7 H 190 c -0.3,-1.2 -0.7,-2.2 -1.3,-3.2 l 1.6,-1.6 c 0.6,-0.6 0.6,-1.5 0,-2 l -1.2,-1.2 c -0.6,-0.6 -1.5,-0.6 -2,0 l -1.6,1.6 c -1,-0.6 -2.1,-1.1 -3.2,-1.3 v -2.2 c 0,-0.8 -0.6,-1.4 -1.4,-1.4 h -1.7 c -0.8,0 -1.4,0.6 -1.4,1.4 v 2.2 c -1.1,0.3 -2.2,0.7 -3.2,1.3 l -1.6,-1.6 c -0.6,-0.6 -1.5,-0.6 -2,0 l -1.2,1.2 c -0.6,0.6 -0.6,1.5 0,2 l 1.6,1.6 c -0.6,1 -1.1,2 -1.3,3.2 h -2.2 c -0.8,0 -1.4,0.6 -1.4,1.4 v 1.7 c 0,0.8 0.6,1.4 1.4,1.4 h 2.2 c 0.3,1.2 0.7,2.2 1.3,3.2 l -1.6,1.6 c -0.6,0.6 -0.6,1.5 0,2 l 1.2,1.2 c 0.6,0.6 1.5,0.6 2,0 l 1.6,-1.6 c 1,0.6 2,1.1 3.2,1.3 v 2.2 c 0,0.8 0.6,1.4 1.4,1.4 h 1.7 c 0.8,0 1.4,-0.6 1.4,-1.4 v -2.2 c 1.2,-0.3 2.2,-0.7 3.2,-1.3 l 1.6,1.6 c 0.6,0.6 1.5,0.6 2,0 l 1.2,-1.2 c 0.6,-0.6 0.6,-1.5 0,-2 l -1.6,-1.6 c 0.6,-1 1.1,-2 1.3,-3.2 h 2.2 c 0.8,0 1.4,-0.6 1.4,-1.4 v -1.7 c 0.1,-0.8 -0.6,-1.4 -1.4,-1.4 z m -12.2,6.8 c -2.5,0 -4.6,-2 -4.6,-4.6 0,-2.5 2,-4.6 4.6,-4.6 2.5,0 4.6,2 4.6,4.6 -0.1,2.6 -2.1,4.6 -4.6,4.6 z"
           inkscape:connector-curvature="0"
           style="fill:#ffffff" />
        <path
           id="XMLID_128_"
           stroke-miterlimit="10"
           d="M 192.2,152.7 H 190 c -0.3,-1.2 -0.7,-2.2 -1.3,-3.2 l 1.6,-1.6 c 0.6,-0.6 0.6,-1.5 0,-2 l -1.2,-1.2 c -0.6,-0.6 -1.5,-0.6 -2,0 l -1.6,1.6 c -1,-0.6 -2.1,-1.1 -3.2,-1.3 v -2.2 c 0,-0.8 -0.6,-1.4 -1.4,-1.4 h -1.7 c -0.8,0 -1.4,0.6 -1.4,1.4 v 2.2 c -1.1,0.3 -2.2,0.7 -3.2,1.3 l -1.6,-1.6 c -0.6,-0.6 -1.5,-0.6 -2,0 l -1.2,1.2 c -0.6,0.6 -0.6,1.5 0,2 l 1.6,1.6 c -0.6,1 -1.1,2 -1.3,3.2 h -2.2 c -0.8,0 -1.4,0.6 -1.4,1.4 v 1.7 c 0,0.8 0.6,1.4 1.4,1.4 h 2.2 c 0.3,1.2 0.7,2.2 1.3,3.2 l -1.6,1.6 c -0.6,0.6 -0.6,1.5 0,2 l 1.2,1.2 c 0.6,0.6 1.5,0.6 2,0 l 1.6,-1.6 c 1,0.6 2,1.1 3.2,1.3 v 2.2 c 0,0.8 0.6,1.4 1.4,1.4 h 1.7 c 0.8,0 1.4,-0.6 1.4,-1.4 v -2.2 c 1.2,-0.3 2.2,-0.7 3.2,-1.3 l 1.6,1.6 c 0.6,0.6 1.5,0.6 2,0 l 1.2,-1.2 c 0.6,-0.6 0.6,-1.5 0,-2 l -1.6,-1.6 c 0.6,-1 1.1,-2 1.3,-3.2 h 2.2 c 0.8,0 1.4,-0.6 1.4,-1.4 v -1.7 c 0.1,-0.8 -0.6,-1.4 -1.4,-1.4 z m -12.2,6.8 c -2.5,0 -4.6,-2 -4.6,-4.6 0,-2.5 2,-4.6 4.6,-4.6 2.5,0 4.6,2 4.6,4.6 -0.1,2.6 -2.1,4.6 -4.6,4.6 z"
           inkscape:connector-curvature="0"
           style="fill:none;stroke:#414042;stroke-width:1.5;stroke-miterlimit:10" />
      </g>
      <g
         id="XMLID_8_">
        <path
           id="XMLID_283_"
           d="m 94.7,169 h -0.8 c -0.6,0 -1,-0.4 -1,-1 v -2.3 c 0,-0.5 0.4,-1 1,-1 h 0.8 c 0.6,0 1,0.5 1,1 v 2.3 c 0,0.5 -0.5,1 -1,1 z"
           inkscape:connector-curvature="0"
           style="fill:#6d6e71" />
        <path
           id="XMLID_280_"
           stroke-miterlimit="10"
           d="m 94.7,169 h -0.8 c -0.6,0 -1,-0.4 -1,-1 v -2.3 c 0,-0.5 0.4,-1 1,-1 h 0.8 c 0.6,0 1,0.5 1,1 v 2.3 c 0,0.5 -0.5,1 -1,1 z"
           inkscape:connector-curvature="0"
           style="fill:none;stroke:#414042;stroke-width:1.5;stroke-miterlimit:10" />
        <path
           id="XMLID_228_"
           d="m 103.8,147.1 c 0,-5.2 -4.2,-9.5 -9.5,-9.5 -5.2,0 -9.5,4.2 -9.5,9.5 0,3.5 1.9,6.6 4.7,8.2 v 9.3 l 1.3,2.5 h 6.5 l 1.6,-2.5 v -9.3 c 3,-1.7 4.9,-4.7 4.9,-8.2 z"
           inkscape:connector-curvature="0"
           style="fill:#ffffff" />
        <polygon
           id="XMLID_225_"
           points="91,167.1 97.5,167.1 99,164.6 99,155.3 89.6,155.3 89.6,164.6 "
           style="fill:#bcbec0" />
        <polygon
           id="XMLID_198_"
           points="91,167.1 89.6,164.6 99,164.6 97.5,167.1 "
           style="fill:#6d6e71" />
        <path
           id="XMLID_197_"
           stroke-miterlimit="10"
           d="m 87.1,141 c -1.4,1.6 -2.2,3.8 -2.2,6.1 0,3.5 1.9,6.6 4.7,8.2 v 9.3 l 1.3,2.5 h 6.5 l 1.6,-2.5 v -9.3 c 2.8,-1.6 4.7,-4.7 4.7,-8.2 0,-5.2 -4.2,-9.5 -9.5,-9.5 -1.3,0 -2.5,0.2 -3.6,0.7"
           inkscape:connector-curvature="0"
           style="fill:none;stroke:#414042;stroke-width:1.5;stroke-miterlimit:10" />
        <path
           id="XMLID_196_"
           stroke-miterlimit="10"
           d="m 89.6,138.9 c -0.7,0.4 -1,0.5 -1.6,1.1"
           inkscape:connector-curvature="0"
           style="fill:none;stroke:#414042;stroke-width:1.5;stroke-miterlimit:10" />
        <line
           id="XMLID_195_"
           stroke-miterlimit="10"
           x1="88.199997"
           y1="158.10001"
           x2="100.5"
           y2="158.10001"
           style="fill:none;stroke:#414042;stroke-width:1.5;stroke-miterlimit:10" />
        <line
           id="XMLID_153_"
           stroke-miterlimit="10"
           x1="88.199997"
           y1="160.3"
           x2="100.5"
           y2="160.3"
           style="fill:none;stroke:#414042;stroke-width:1.5;stroke-miterlimit:10" />
        <line
           id="XMLID_152_"
           stroke-miterlimit="10"
           x1="88.199997"
           y1="162.39999"
           x2="100.5"
           y2="162.39999"
           style="fill:none;stroke:#414042;stroke-width:1.5;stroke-miterlimit:10" />
        <line
           id="XMLID_132_"
           stroke-miterlimit="10"
           x1="88.199997"
           y1="164.60001"
           x2="100.5"
           y2="164.60001"
           style="fill:none;stroke:#414042;stroke-width:1.5;stroke-miterlimit:10" />
        <circle
           id="XMLID_131_"
           cx="94.300003"
           cy="146.8"
           r="7.5999999"
           style="fill:#ffb936" />
        <path
           id="XMLID_127_"
           d="m 96.3,145.3 c 0,-1.1 -0.9,-2 -2,-2 -1.1,0 -2,0.9 -2,2 0,0.5 0.2,1 0.6,1.4 l -0.6,3.5 h 3.9 l -0.6,-3.4 c 0.5,-0.3 0.7,-0.9 0.7,-1.5 z"
           inkscape:connector-curvature="0"
           style="fill:#58595b" />
        <path
           id="XMLID_126_"
           stroke-miterlimit="10"
           d="m 96.3,145.3 c 0,-1.1 -0.9,-2 -2,-2 -1.1,0 -2,0.9 -2,2 0,0.5 0.2,1 0.6,1.4 l -0.6,3.5 h 3.9 l -0.6,-3.4 c 0.5,-0.3 0.7,-0.9 0.7,-1.5 z"
           inkscape:connector-curvature="0"
           style="fill:none;stroke:#414042;stroke-width:1.5;stroke-miterlimit:10" />
      </g>
      <g
         id="XMLID_295_">
        <path
           id="XMLID_125_"
           d="m 155.3,93.1 v 16.5 h 2.1 v 2.8 5.3 c 0,0.3 0.4,0.4 0.5,0.2 l 6.9,-8.3 h 20.8 V 93.1 Z"
           inkscape:connector-curvature="0"
           style="fill:#e6e7e8" />
        <polyline
           id="XMLID_372_"
           stroke-miterlimit="10"
           points="185.7,95.1      185.7,93.1 177.9,93.1    "
           style="fill:none;stroke:#414042;stroke-width:1.5;stroke-miterlimit:10" />
        <path
           id="XMLID_371_"
           stroke-miterlimit="10"
           d="m 155.3,104.7 v 4.9 h 2.1 v 2.8 5.3 c 0,0.3 0.4,0.4 0.5,0.2 l 6.9,-8.3 h 20.8 v -2.2"
           inkscape:connector-curvature="0"
           style="fill:none;stroke:#414042;stroke-width:1.5;stroke-miterlimit:10" />
        <line
           id="XMLID_803_"
           stroke-miterlimit="10"
           x1="176.3"
           y1="96.800003"
           x2="204"
           y2="96.800003"
           style="fill:none;stroke:#414042;stroke-width:1.5;stroke-miterlimit:10" />
        <line
           id="XMLID_124_"
           stroke-miterlimit="10"
           x1="173.8"
           y1="101.2"
           x2="204"
           y2="101.2"
           style="fill:none;stroke:#414042;stroke-width:1.5;stroke-miterlimit:10" />
        <line
           id="XMLID_801_"
           stroke-miterlimit="10"
           x1="169"
           y1="105.6"
           x2="204"
           y2="105.6"
           style="fill:none;stroke:#414042;stroke-width:1.5;stroke-miterlimit:10" />
        <path
           id="XMLID_455_"
           d="m 149.9,104 7.1,-1.3 c 1.7,0.7 3.5,1.2 5.5,1.2 7.4,0 13.4,-6 13.4,-13.4 0,-7.4 -6,-13.4 -13.4,-13.4 -7.4,0 -13.4,6 -13.4,13.4 0,2.6 0.8,5.1 2.1,7.1 z"
           inkscape:connector-curvature="0"
           style="fill:#ffffff" />
        <path
           id="XMLID_443_"
           stroke-miterlimit="10"
           d="m 149.9,104 7.1,-1.3 c 1.7,0.7 3.5,1.2 5.5,1.2 7.4,0 13.4,-6 13.4,-13.4 0,-7.4 -6,-13.4 -13.4,-13.4 -7.4,0 -13.4,6 -13.4,13.4 0,2.6 0.8,5.1 2.1,7.1 z"
           inkscape:connector-curvature="0"
           style="fill:none;stroke:#414042;stroke-width:1.5;stroke-miterlimit:10" />
        <ellipse
           id="XMLID_452_"
           cx="162.5"
           cy="90.5"
           rx="10.1"
           ry="10.4"
           style="fill:#ffb936" />
        <g
           id="XMLID_346_">
          <path
             id="XMLID_361_"
             d="m 156.7,90 c 0.1,-0.2 0.2,-0.3 0.2,-0.5 0,-0.2 -0.1,-0.3 -0.2,-0.4 -0.1,-0.1 -0.2,-0.2 -0.4,-0.2 -0.3,0 -0.6,0.2 -0.9,0.6 L 154.5,89 c 0.2,-0.3 0.5,-0.6 0.7,-0.8 0.3,-0.2 0.6,-0.3 1,-0.3 0.4,0 0.8,0.1 1.1,0.4 0.3,0.3 0.5,0.6 0.5,1.1 0,0.2 -0.1,0.5 -0.2,0.7 -0.1,0.2 -0.4,0.5 -0.7,0.9 l -0.9,0.9 h 1.9 v 1 h -3.4 v -0.8 l 1.4,-1.4 c 0.4,-0.3 0.6,-0.5 0.8,-0.7 z"
             inkscape:connector-curvature="0"
             style="fill:#414042" />
          <path
             id="XMLID_354_"
             d="M 160.6,90.9 V 90 h 1 v 0.8 h 0.5 v 0.9 h -0.5 v 1.2 h -1 v -1.2 h -1.9 V 91 l 1.7,-2.8 h 1.2 l -1.6,2.7 z"
             inkscape:connector-curvature="0"
             style="fill:#414042" />
          <path
             id="XMLID_352_"
             d="m 165.5,87.4 h 1 l -2.9,6.3 h -1 z"
             inkscape:connector-curvature="0"
             style="fill:#414042" />
          <path
             id="XMLID_347_"
             d="m 167,89.7 v -1.5 h 3.5 V 89 l -2,4 h -1.2 l 1.9,-3.9 H 168 v 0.6 z"
             inkscape:connector-curvature="0"
             style="fill:#414042" />
        </g>
      </g>
      <g
         id="XMLID_205_">
        <g
           id="XMLID_4_">
          <path
             id="XMLID_117_"
             d="m 55.9,145.5 -2.3,2.3 -0.8,-0.8 c -0.4,-0.4 -0.4,-1.1 0,-1.5 l 0.8,-0.8 c 0.4,-0.4 1.1,-0.4 1.5,0 z"
             inkscape:connector-curvature="0"
             style="fill:#00d4ff" />
          <path
             id="XMLID_110_"
             stroke-miterlimit="10"
             d="m 55.9,145.5 -2.3,2.3 -0.8,-0.8 c -0.4,-0.4 -0.4,-1.1 0,-1.5 l 0.8,-0.8 c 0.4,-0.4 1.1,-0.4 1.5,0 z"
             inkscape:connector-curvature="0"
             style="fill:none;stroke:#414042;stroke-width:1.5;stroke-miterlimit:10" />
          <path
             id="XMLID_62_"
             d="m 74.8,147.6 -2.3,-2.3 0.8,-0.8 c 0.4,-0.4 1.1,-0.4 1.5,0 l 0.8,0.8 c 0.4,0.4 0.4,1.1 0,1.5 z"
             inkscape:connector-curvature="0"
             style="fill:#00d4ff" />
          <path
             id="XMLID_61_"
             stroke-miterlimit="10"
             d="m 74.8,147.6 -2.3,-2.3 0.8,-0.8 c 0.4,-0.4 1.1,-0.4 1.5,0 l 0.8,0.8 c 0.4,0.4 0.4,1.1 0,1.5 z"
             inkscape:connector-curvature="0"
             style="fill:none;stroke:#414042;stroke-width:1.5;stroke-miterlimit:10" />
          <path
             id="XMLID_60_"
             d="m 72.7,166.5 2.3,-2.3 0.8,0.8 c 0.4,0.4 0.4,1.1 0,1.5 l -0.8,0.8 c -0.4,0.4 -1.1,0.4 -1.5,0 z"
             inkscape:connector-curvature="0"
             style="fill:#00d4ff" />
          <path
             id="XMLID_59_"
             stroke-miterlimit="10"
             d="m 72.7,166.5 2.3,-2.3 0.8,0.8 c 0.4,0.4 0.4,1.1 0,1.5 l -0.8,0.8 c -0.4,0.4 -1.1,0.4 -1.5,0 z"
             inkscape:connector-curvature="0"
             style="fill:none;stroke:#414042;stroke-width:1.5;stroke-miterlimit:10" />
          <path
             id="XMLID_57_"
             d="m 53.8,164.4 2.3,2.3 -0.8,0.8 c -0.4,0.4 -1.1,0.4 -1.5,0 L 53,166.7 c -0.4,-0.4 -0.4,-1.1 0,-1.5 z"
             inkscape:connector-curvature="0"
             style="fill:#00d4ff" />
          <path
             id="XMLID_56_"
             stroke-miterlimit="10"
             d="m 53.8,164.4 2.3,2.3 -0.8,0.8 c -0.4,0.4 -1.1,0.4 -1.5,0 L 53,166.7 c -0.4,-0.4 -0.4,-1.1 0,-1.5 z"
             inkscape:connector-curvature="0"
             style="fill:none;stroke:#414042;stroke-width:1.5;stroke-miterlimit:10" />
          <path
             id="XMLID_39_"
             d="m 64.3,142 c -7.5,0 -13.6,6.1 -13.6,13.6 0,7.5 6.1,13.6 13.6,13.6 7.5,0 13.6,-6.1 13.6,-13.6 0,-7.5 -6.1,-13.6 -13.6,-13.6 z m 0,21.6 c -4.4,0 -7.9,-3.5 -7.9,-7.9 0,-4.4 3.5,-7.9 7.9,-7.9 4.4,0 7.9,3.5 7.9,7.9 0,4.3 -3.5,7.9 -7.9,7.9 z"
             inkscape:connector-curvature="0"
             style="fill:#ffffff" />
          <path
             id="XMLID_18_"
             stroke-miterlimit="10"
             d="m 64.3,142 c -7.5,0 -13.6,6.1 -13.6,13.6 0,7.5 6.1,13.6 13.6,13.6 7.5,0 13.6,-6.1 13.6,-13.6 0,-7.5 -6.1,-13.6 -13.6,-13.6 z m 0,21.6 c -4.4,0 -7.9,-3.5 -7.9,-7.9 0,-4.4 3.5,-7.9 7.9,-7.9 4.4,0 7.9,3.5 7.9,7.9 0,4.3 -3.5,7.9 -7.9,7.9 z"
             inkscape:connector-curvature="0"
             style="fill:none;stroke:#414042;stroke-width:1.5;stroke-miterlimit:10" />
          <path
             id="XMLID_17_"
             d="m 52,149.8 5.1,2.6 c 0.7,-1.6 1.9,-2.9 3.4,-3.7 l -2.6,-5.1 c -2.5,1.4 -4.6,3.5 -5.9,6.2 z"
             inkscape:connector-curvature="0"
             style="fill:#00d4ff" />
          <path
             id="XMLID_16_"
             d="m 70.6,143.6 -2.6,5.1 c 1.5,0.8 2.7,2.1 3.4,3.7 l 5.1,-2.6 c -1.2,-2.7 -3.3,-4.9 -5.9,-6.2 z"
             inkscape:connector-curvature="0"
             style="fill:#00d4ff" />
          <path
             id="XMLID_14_"
             d="m 76.3,162.1 -5.1,-2.6 c -0.8,1.4 -2,2.5 -3.4,3.2 l 2.6,5.1 c 2.5,-1.2 4.6,-3.2 5.9,-5.7 z"
             inkscape:connector-curvature="0"
             style="fill:#00d4ff" />
          <path
             id="XMLID_13_"
             d="m 58.3,167.8 2.6,-5.1 c -1.5,-0.7 -2.7,-1.8 -3.5,-3.2 l -5.1,2.6 c 1.4,2.5 3.5,4.5 6,5.7 z"
             inkscape:connector-curvature="0"
             style="fill:#00d4ff" />
          <path
             id="XMLID_12_"
             stroke-miterlimit="10"
             d="m 52,149.8 5.1,2.6 c 0.7,-1.6 1.9,-2.9 3.4,-3.7 l -2.6,-5.1 c -2.5,1.4 -4.6,3.5 -5.9,6.2 z"
             inkscape:connector-curvature="0"
             style="fill:none;stroke:#414042;stroke-width:1.5;stroke-miterlimit:10" />
          <path
             id="XMLID_11_"
             stroke-miterlimit="10"
             d="m 70.6,143.6 -2.6,5.1 c 1.5,0.8 2.7,2.1 3.4,3.7 l 5.1,-2.6 c -1.2,-2.7 -3.3,-4.9 -5.9,-6.2 z"
             inkscape:connector-curvature="0"
             style="fill:none;stroke:#414042;stroke-width:1.5;stroke-miterlimit:10" />
          <path
             id="XMLID_168_"
             stroke-miterlimit="10"
             d="m 76.3,162.1 -5.1,-2.6 c -0.8,1.4 -2,2.5 -3.4,3.2 l 2.6,5.1 c 2.5,-1.2 4.6,-3.2 5.9,-5.7 z"
             inkscape:connector-curvature="0"
             style="fill:none;stroke:#414042;stroke-width:1.5;stroke-miterlimit:10" />
          <path
             id="XMLID_194_"
             stroke-miterlimit="10"
             d="m 58.3,167.8 2.6,-5.1 c -1.5,-0.7 -2.7,-1.8 -3.5,-3.2 l -5.1,2.6 c 1.4,2.5 3.5,4.5 6,5.7 z"
             inkscape:connector-curvature="0"
             style="fill:none;stroke:#414042;stroke-width:1.5;stroke-miterlimit:10" />
        </g>
      </g>
      <path
         id="XMLID_370_"
         d="m 229.1,157.4 h -23.9 c -4.9,0 -8.9,-4 -8.9,-8.9 v 0 c 0,-4.9 4,-8.9 8.9,-8.9 h 23.9 c 4.9,0 8.9,4 8.9,8.9 v 0 c 0,4.9 -4,8.9 -8.9,8.9 z"
         inkscape:connector-curvature="0"
         style="fill:#edf0f4" />
      <line
         id="XMLID_3_"
         stroke-miterlimit="10"
         x1="41.400002"
         y1="169.3"
         x2="205.2"
         y2="169.3"
         style="fill:none;stroke:#414042;stroke-width:1.5;stroke-miterlimit:10" />
    </g>
  </g>
</svg>
