<?xml version="1.0" encoding="UTF-8" standalone="no"?>
<!-- Generator: Adobe Illustrator 23.0.3, SVG Export Plug-In . SVG Version: 6.00 Build 0)  -->

<svg
   xmlns:dc="http://purl.org/dc/elements/1.1/"
   xmlns:cc="http://creativecommons.org/ns#"
   xmlns:rdf="http://www.w3.org/1999/02/22-rdf-syntax-ns#"
   xmlns:svg="http://www.w3.org/2000/svg"
   xmlns="http://www.w3.org/2000/svg"
   xmlns:sodipodi="http://sodipodi.sourceforge.net/DTD/sodipodi-0.dtd"
   xmlns:inkscape="http://www.inkscape.org/namespaces/inkscape"
   version="1.1"
   x="0px"
   y="0px"
   viewBox="0 0 212.90199 95.699997"
   enable-background="new 0 0 500 500"
   xml:space="preserve"
   id="svg486"
   sodipodi:docname="Flat line Designed Concepts 7 - Colored.svg"
   width="212.90199"
   height="95.699997"
   inkscape:version="0.92.3 (2405546, 2018-03-11)"><metadata
   id="metadata492"><rdf:RDF><cc:Work
       rdf:about=""><dc:format>image/svg+xml</dc:format><dc:type
         rdf:resource="http://purl.org/dc/dcmitype/StillImage" /><dc:title></dc:title></cc:Work></rdf:RDF></metadata><defs
   id="defs490">
	
	

		
		
		
		
		
			
		
		
			
		
			
		
			
		
		
		
		
		
		
		
		
		
		
		
		
		
		
		
			
		
			
		
		
		
		
		
		
		
		
		
		
	
	
	

		
		
		
		
		
		
		
		
		
		
		
			
		
			
		
		
			
		
			
		
			
		
			
		
			
		
		
		
		
		
		
		
		
		
		
		
		
		
	</defs><sodipodi:namedview
   pagecolor="#ffffff"
   bordercolor="#666666"
   borderopacity="1"
   objecttolerance="10"
   gridtolerance="10"
   guidetolerance="10"
   inkscape:pageopacity="0"
   inkscape:pageshadow="2"
   inkscape:window-width="1920"
   inkscape:window-height="1001"
   id="namedview488"
   showgrid="false"
   inkscape:zoom="2.6700352"
   inkscape:cx="172.51071"
   inkscape:cy="85.159261"
   inkscape:window-x="-9"
   inkscape:window-y="-9"
   inkscape:window-maximized="1"
   inkscape:current-layer="svg486"
   inkscape:pagecheckerboard="true" />
<g
   id="bg"
   transform="translate(0,-404.3)">
	
</g>

<g
   id="BG_3"
   transform="translate(0,-404.3)">
	
</g>
<g
   id="BG_4"
   transform="translate(0,-404.3)">
	
		
</g>



<g
   id="g5597"
   transform="translate(0,-404.3)"><g
     transform="translate(-10.99825,327.45)"
     id="Investment">
	<g
   id="XMLID_94_">
	</g>
	
		
	<g
   id="XMLID_404_">
		<path
   style="fill:#edf0f4"
   inkscape:connector-curvature="0"
   d="m 20.2,82.6 h 183.4 c 4.8,0 8.7,3.9 8.7,8.7 v 0 c 0,4.8 -3.9,8.7 -8.7,8.7 h -35.8 c -4.2,0 -7.6,3.4 -7.6,7.6 v 0 c 0,4.2 3.4,7.6 7.6,7.6 h 43.9 c 4.6,0 8.4,3.7 8.4,8.4 v 0 c 0,4.6 -3.7,8.4 -8.4,8.4 h -22 v 0 c 0,8.4 -6.8,15.2 -15.2,15.2 v 0 c -3.7,0 -6.7,3 -6.7,6.7 v 17.9 H 71.5 v -1.5 c 0,-8.9 -7.2,-16.2 -16.1,-16.3 l -27.8,-0.3 c -5.1,-0.1 -9.2,-4.2 -9.2,-9.3 v 0 c 0,-5.1 4.2,-9.3 9.3,-9.3 h 27.7 v 0 c 0,-8.5 6.9,-15.3 15.3,-15.3 H 72 c 5.1,0 9.3,-4.2 9.3,-9.3 v 0 c 0,-5.1 -4.2,-9.3 -9.3,-9.3 H 20.2 C 15.1,101.2 11,97.1 11,92 v 0 c -0.1,-5.3 4.1,-9.4 9.2,-9.4 z"
   id="XMLID_10_" />
		<g
   id="XMLID_406_">
			<g
   id="XMLID_410_">
				
				
				
				
					
				
					
				<path
   style="fill:none;stroke:#414042;stroke-width:1.5;stroke-miterlimit:10"
   inkscape:connector-curvature="0"
   d="m 166.8,168.5 c 0,0.7 -0.5,1.2 -1.2,1.2 -0.7,0 -1.2,-0.5 -1.2,-1.2 0,-0.7 0.5,-1.2 1.2,-1.2 0.7,0 1.2,0.5 1.2,1.2 z"
   stroke-miterlimit="10"
   id="XMLID_415_" />
				
			</g>
		</g>
		<g
   id="XMLID_258_">
			<g
   id="XMLID_318_">
				<path
   style="fill:#ffffff"
   inkscape:connector-curvature="0"
   d="m 185.3,171.8 h -4.1 V 89.9 c 0,-1.1 0.9,-2 2,-2 v 0 c 1.1,0 2,0.9 2,2 v 81.9 z"
   id="XMLID_381_" />
				<path
   style="fill:none;stroke:#414042;stroke-width:1.5;stroke-miterlimit:10"
   inkscape:connector-curvature="0"
   d="M 181.2,171.8 V 89.7 c 0,-1 0.8,-1.9 1.9,-1.9 h 0.3 c 1,0 1.9,0.8 1.9,1.9 v 82.1"
   stroke-miterlimit="10"
   id="XMLID_380_" />
				
					<line
   style="fill:none;stroke:#414042;stroke-width:1.5;stroke-miterlimit:10"
   y2="97"
   x2="197.60001"
   y1="97"
   x1="169"
   stroke-miterlimit="10"
   id="XMLID_379_" />
				<path
   style="fill:#58595b"
   inkscape:connector-curvature="0"
   d="m 187.6,96.7 c 0,2.4 -1.9,4.3 -4.3,4.3 -2.4,0 -4.3,-1.9 -4.3,-4.3 0,-2.4 1.9,-4.3 4.3,-4.3 2.4,0 4.3,2 4.3,4.3 z"
   id="XMLID_378_" />
				<path
   style="fill:none;stroke:#414042;stroke-width:1.5;stroke-miterlimit:10"
   inkscape:connector-curvature="0"
   d="m 187.6,96.7 c 0,2.4 -1.9,4.3 -4.3,4.3 -2.4,0 -4.3,-1.9 -4.3,-4.3 0,-2.4 1.9,-4.3 4.3,-4.3 2.4,0 4.3,2 4.3,4.3 z"
   stroke-miterlimit="10"
   id="XMLID_377_" />
				
					<line
   style="fill:none;stroke:#414042;stroke-width:1.5;stroke-miterlimit:10"
   y2="95.599998"
   x2="195.10001"
   y1="111"
   x1="200.60001"
   stroke-miterlimit="10"
   id="XMLID_376_" />
				
					<line
   style="fill:none;stroke:#414042;stroke-width:1.5;stroke-miterlimit:10"
   y2="95.599998"
   x2="196.60001"
   y1="111"
   x1="190.60001"
   stroke-miterlimit="10"
   id="XMLID_375_" />
				<path
   style="fill:#ffb936"
   inkscape:connector-curvature="0"
   d="m 202.5,110.4 c 0,3.8 -3.1,6.9 -6.9,6.9 -3.8,0 -6.9,-3.1 -6.9,-6.9 z"
   id="XMLID_373_" />
				
					<line
   style="fill:none;stroke:#414042;stroke-width:1.5;stroke-miterlimit:10"
   y2="95.599998"
   x2="171.5"
   y1="111"
   x1="166"
   stroke-miterlimit="10"
   id="XMLID_372_" />
				
					<line
   style="fill:none;stroke:#414042;stroke-width:1.5;stroke-miterlimit:10"
   y2="95.599998"
   x2="170"
   y1="111"
   x1="176"
   stroke-miterlimit="10"
   id="XMLID_370_" />
				<path
   style="fill:#ffb936"
   inkscape:connector-curvature="0"
   d="m 164.1,110.4 c 0,3.8 3.1,6.9 6.9,6.9 3.8,0 6.9,-3.1 6.9,-6.9 z"
   id="XMLID_366_" />
				<path
   style="fill:none;stroke:#414042;stroke-width:1.5;stroke-miterlimit:10"
   inkscape:connector-curvature="0"
   d="m 201.8,113.4 c -0.3,0.5 -0.6,1 -1,1.5"
   stroke-miterlimit="10"
   id="XMLID_342_" />
				<path
   style="fill:none;stroke:#414042;stroke-width:1.5;stroke-miterlimit:10"
   inkscape:connector-curvature="0"
   d="m 199.6,116.1 c -0.6,0.4 -1.4,0.8 -2.1,1 -0.6,0.2 -1.2,0.2 -1.8,0.2 -3.8,0 -6.9,-3.1 -6.9,-6.9 h 13.7 c 0,0.9 -0.2,1.7 -0.4,2.4"
   stroke-miterlimit="10"
   id="XMLID_337_" />
				<path
   style="fill:none;stroke:#414042;stroke-width:1.5;stroke-miterlimit:10"
   inkscape:connector-curvature="0"
   d="m 164.1,110.4 c 0,3.8 3.1,6.9 6.9,6.9 3.8,0 6.9,-3.1 6.9,-6.9 z"
   stroke-miterlimit="10"
   id="XMLID_336_" />
				<path
   style="fill:#58595b"
   inkscape:connector-curvature="0"
   d="m 197.5,97 c 0,1 -0.8,1.8 -1.8,1.8 -1,0 -1.8,-0.8 -1.8,-1.8 0,-1 0.8,-1.8 1.8,-1.8 1,0 1.8,0.8 1.8,1.8 z"
   id="XMLID_334_" />
				<path
   style="fill:none;stroke:#414042;stroke-width:1.5;stroke-miterlimit:10"
   inkscape:connector-curvature="0"
   d="m 197.5,97 c 0,1 -0.8,1.8 -1.8,1.8 -1,0 -1.8,-0.8 -1.8,-1.8 0,-1 0.8,-1.8 1.8,-1.8 1,0 1.8,0.8 1.8,1.8 z"
   stroke-miterlimit="10"
   id="XMLID_333_" />
				<path
   style="fill:#58595b"
   inkscape:connector-curvature="0"
   d="m 172.8,97 c 0,1 -0.8,1.8 -1.8,1.8 -1,0 -1.8,-0.8 -1.8,-1.8 0,-1 0.8,-1.8 1.8,-1.8 0.9,0 1.8,0.8 1.8,1.8 z"
   id="XMLID_325_" />
				<path
   style="fill:none;stroke:#414042;stroke-width:1.5;stroke-miterlimit:10"
   inkscape:connector-curvature="0"
   d="m 172.8,97 c 0,1 -0.8,1.8 -1.8,1.8 -1,0 -1.8,-0.8 -1.8,-1.8 0,-1 0.8,-1.8 1.8,-1.8 0.9,0 1.8,0.8 1.8,1.8 z"
   stroke-miterlimit="10"
   id="XMLID_321_" />
			</g>
		</g>
		<g
   id="XMLID_262_">
			
			
			
			
				
			
				
			
				
			
				
			
				
			
				
			
				
			
				
			
				
			
				
			
				
			
				
			
				
			
				
			
				
		</g>
		<g
   id="XMLID_292_">
			
			
				
			
			
			
				
			
				
			
				
			
			
				
			
				
		</g>
		<g
   id="XMLID_16_">
			
				<line
   style="fill:none;stroke:#414042;stroke-width:1.5;stroke-linecap:round;stroke-miterlimit:10"
   y2="110.1"
   x2="47.200001"
   y1="110.1"
   x1="43"
   stroke-miterlimit="10"
   id="XMLID_44_" />
			
				<line
   style="fill:none;stroke:#414042;stroke-width:1.5;stroke-linecap:round;stroke-miterlimit:10"
   y2="108"
   x2="45.099998"
   y1="112.3"
   x1="45.099998"
   stroke-miterlimit="10"
   id="XMLID_17_" />
		</g>
		<g
   id="XMLID_388_">
			
				<line
   style="fill:none;stroke:#414042;stroke-width:1.5;stroke-linecap:round;stroke-miterlimit:10"
   y2="131.5"
   x2="195.8"
   y1="131.5"
   x1="191.5"
   stroke-miterlimit="10"
   id="XMLID_391_" />
			
				<line
   style="fill:none;stroke:#414042;stroke-width:1.5;stroke-linecap:round;stroke-miterlimit:10"
   y2="129.39999"
   x2="193.60001"
   y1="133.7"
   x1="193.60001"
   stroke-miterlimit="10"
   id="XMLID_390_" />
		</g>
		<g
   id="XMLID_63_">
			
				<line
   style="fill:none;stroke:#414042;stroke-width:1.5;stroke-linecap:round;stroke-miterlimit:10"
   y2="103.3"
   x2="140.2"
   y1="103.3"
   x1="135.89999"
   stroke-miterlimit="10"
   id="XMLID_66_" />
			
				<line
   style="fill:none;stroke:#414042;stroke-width:1.5;stroke-linecap:round;stroke-miterlimit:10"
   y2="101.2"
   x2="138.10001"
   y1="105.5"
   x1="138.10001"
   stroke-miterlimit="10"
   id="XMLID_65_" />
		</g>
		<g
   id="XMLID_21_">
			
				<line
   style="fill:none;stroke:#414042;stroke-width:1.5;stroke-linecap:round;stroke-miterlimit:10"
   y2="89.699997"
   x2="157.7"
   y1="92.699997"
   x1="154.7"
   stroke-miterlimit="10"
   id="XMLID_23_" />
			
				<line
   style="fill:none;stroke:#414042;stroke-width:1.5;stroke-linecap:round;stroke-miterlimit:10"
   y2="89.699997"
   x2="154.7"
   y1="92.699997"
   x1="157.7"
   stroke-miterlimit="10"
   id="XMLID_22_" />
		</g>
		<g
   id="XMLID_400_">
			
				<line
   style="fill:none;stroke:#414042;stroke-width:1.5;stroke-linecap:round;stroke-miterlimit:10"
   y2="104.3"
   x2="208.3"
   y1="107.3"
   x1="205.2"
   stroke-miterlimit="10"
   id="XMLID_402_" />
			
				<line
   style="fill:none;stroke:#414042;stroke-width:1.5;stroke-linecap:round;stroke-miterlimit:10"
   y2="104.3"
   x2="205.2"
   y1="107.3"
   x1="208.3"
   stroke-miterlimit="10"
   id="XMLID_401_" />
		</g>
		<g
   id="XMLID_397_">
			
				<line
   style="fill:none;stroke:#414042;stroke-width:1.5;stroke-linecap:round;stroke-miterlimit:10"
   y2="155"
   x2="50.599998"
   y1="158"
   x1="47.599998"
   stroke-miterlimit="10"
   id="XMLID_399_" />
			
				<line
   style="fill:none;stroke:#414042;stroke-width:1.5;stroke-linecap:round;stroke-miterlimit:10"
   y2="155"
   x2="47.599998"
   y1="158"
   x1="50.599998"
   stroke-miterlimit="10"
   id="XMLID_398_" />
		</g>
		
			<line
   style="fill:none;stroke:#414042;stroke-width:1.5;stroke-miterlimit:10"
   y2="91.199997"
   x2="151.60001"
   y1="91.199997"
   x1="110.9"
   stroke-miterlimit="10"
   id="XMLID_123_" />
		
			<line
   style="fill:none;stroke:#414042;stroke-width:1.5;stroke-miterlimit:10"
   y2="77.599998"
   x2="181.60001"
   y1="77.599998"
   x1="140.8"
   stroke-miterlimit="10"
   id="XMLID_403_" />
		
			<line
   style="fill:none;stroke:#414042;stroke-width:1.5;stroke-miterlimit:10"
   y2="131.5"
   x2="223.89999"
   y1="131.5"
   x1="201.39999"
   stroke-miterlimit="10"
   id="XMLID_387_" />
		
			<line
   style="fill:none;stroke:#414042;stroke-width:1.5;stroke-miterlimit:10"
   y2="110.1"
   x2="55.299999"
   y1="110.1"
   x1="72.699997"
   stroke-miterlimit="10"
   id="XMLID_5_" />
		
			<line
   style="fill:none;stroke:#414042;stroke-width:1.5;stroke-miterlimit:10"
   y2="110.1"
   x2="53.799999"
   y1="110.1"
   x1="50.299999"
   stroke-miterlimit="10"
   id="XMLID_4_" />
		<path
   style="fill:#414042"
   inkscape:connector-curvature="0"
   d="m 39.4,122.6 c 0,0.7 -0.5,1.2 -1.2,1.2 -0.7,0 -1.2,-0.5 -1.2,-1.2 0,-0.7 0.5,-1.2 1.2,-1.2 0.6,0 1.2,0.6 1.2,1.2 z"
   id="XMLID_127_" />
		<path
   style="fill:#414042"
   inkscape:connector-curvature="0"
   d="m 127.4,104.5 c 0,0.7 -0.5,1.2 -1.2,1.2 -0.7,0 -1.2,-0.5 -1.2,-1.2 0,-0.7 0.5,-1.2 1.2,-1.2 0.7,0 1.2,0.6 1.2,1.2 z"
   id="XMLID_392_" />
		<path
   style="fill:#0686d8"
   inkscape:connector-curvature="0"
   d="m 197,153.4 c 0,0.7 -0.5,1.2 -1.2,1.2 -0.7,0 -1.2,-0.5 -1.2,-1.2 0,-0.7 0.5,-1.2 1.2,-1.2 0.6,-0.1 1.2,0.5 1.2,1.2 z"
   id="XMLID_395_" />
		<path
   style="fill:#414042"
   inkscape:connector-curvature="0"
   d="m 48,146.6 c 0,0.4 -0.3,0.7 -0.7,0.7 -0.4,0 -0.7,-0.3 -0.7,-0.7 0,-0.4 0.3,-0.7 0.7,-0.7 0.4,0 0.7,0.3 0.7,0.7 z"
   id="XMLID_110_" />
		<path
   style="fill:#414042"
   inkscape:connector-curvature="0"
   d="m 145.7,86.4 c 0,0.4 -0.3,0.7 -0.7,0.7 -0.4,0 -0.7,-0.3 -0.7,-0.7 0,-0.4 0.3,-0.7 0.7,-0.7 0.4,-0.1 0.7,0.3 0.7,0.7 z"
   id="XMLID_393_" />
		<path
   style="fill:#414042"
   inkscape:connector-curvature="0"
   d="m 216.4,107.8 c 0,0.4 -0.3,0.7 -0.7,0.7 -0.4,0 -0.7,-0.3 -0.7,-0.7 0,-0.4 0.3,-0.7 0.7,-0.7 0.4,-0.1 0.7,0.2 0.7,0.7 z"
   id="XMLID_396_" />
		<path
   style="fill:#414042"
   inkscape:connector-curvature="0"
   d="m 59.3,87.9 c 0,0.4 -0.3,0.7 -0.7,0.7 -0.4,0 -0.7,-0.3 -0.7,-0.7 0,-0.4 0.3,-0.7 0.7,-0.7 0.4,-0.1 0.7,0.2 0.7,0.7 z"
   id="XMLID_394_" />
		<path
   style="opacity:0.3;fill:#231f20"
   inkscape:connector-curvature="0"
   d="m 102,112.9 c -6.2,0 -11.2,5 -11.2,11.2 v 34.4 c 0,4.7 2.9,8.7 7,10.3 v 3 h 0.5 5.2 v -58.9 z"
   id="XMLID_385_" />
		<g
   id="XMLID_25_">
			<rect
   style="fill:#6d6e71"
   height="5.5"
   width="7.1999998"
   y="166.3"
   x="100.6"
   id="XMLID_197_" />
			
				<rect
   style="fill:none;stroke:#414042;stroke-width:1.5;stroke-miterlimit:10"
   height="5.5"
   width="7.1999998"
   stroke-miterlimit="10"
   y="166.3"
   x="100.6"
   id="XMLID_191_" />
			<path
   style="fill:#f1f2f2"
   inkscape:connector-curvature="0"
   d="M 138.4,168.9 H 104 c -5.8,0 -10.4,-4.7 -10.4,-10.4 v -34.4 c 0,-5.8 4.7,-10.4 10.4,-10.4 h 34.4 c 5.8,0 10.4,4.7 10.4,10.4 v 34.4 c 0,5.7 -4.6,10.4 -10.4,10.4 z"
   id="XMLID_152_" />
			<path
   style="fill:#58595b"
   inkscape:connector-curvature="0"
   d="M 137.4,164.2 H 105 c -3.7,0 -6.7,-3 -6.7,-6.7 v -32.3 c 0,-3.7 3,-6.7 6.7,-6.7 h 32.3 c 3.7,0 6.7,3 6.7,6.7 v 32.3 c 0.1,3.7 -2.9,6.7 -6.6,6.7 z"
   id="XMLID_129_" />
			<path
   style="fill:none;stroke:#414042;stroke-width:1.5;stroke-miterlimit:10"
   inkscape:connector-curvature="0"
   d="m 137.9,164.2 h -33.4 c -3.4,0 -6.2,-2.8 -6.2,-6.2 v -33.4 c 0,-3.4 2.8,-6.2 6.2,-6.2 h 33.4 c 3.4,0 6.2,2.8 6.2,6.2 V 158 c 0,3.4 -2.8,6.2 -6.2,6.2 z"
   stroke-miterlimit="10"
   id="XMLID_128_" />
			<path
   style="fill:none;stroke:#414042;stroke-width:1.5;stroke-miterlimit:10"
   inkscape:connector-curvature="0"
   d="M 138.4,168.9 H 104 c -5.8,0 -10.4,-4.7 -10.4,-10.4 v -34.4 c 0,-5.8 4.7,-10.4 10.4,-10.4 h 34.4 c 5.8,0 10.4,4.7 10.4,10.4 v 34.4 c 0,5.7 -4.6,10.4 -10.4,10.4 z"
   stroke-miterlimit="10"
   id="XMLID_126_" />
			<path
   style="fill:#ffb936"
   inkscape:connector-curvature="0"
   d="m 145.3,171.5 h -12.5 c -0.1,0 -0.2,-0.1 -0.2,-0.2 v -3.6 c 0,-0.1 0.1,-0.2 0.2,-0.2 h 12.5 c 0.1,0 0.2,0.1 0.2,0.2 v 3.6 c 0.1,0.1 0,0.2 -0.2,0.2 z"
   id="XMLID_14_" />
			<path
   style="fill:none;stroke:#414042;stroke-width:1.5;stroke-miterlimit:10"
   inkscape:connector-curvature="0"
   d="m 144.6,171.5 h -11 c -0.1,0 -0.2,-0.1 -0.2,-0.2 v -3.1 c 0,-0.1 0.1,-0.2 0.2,-0.2 h 11 c 0.1,0 0.2,0.1 0.2,0.2 v 3.1 c 0,0.1 -0.1,0.2 -0.2,0.2 z"
   stroke-miterlimit="10"
   id="XMLID_13_" />
			<path
   style="fill:#ffb936"
   inkscape:connector-curvature="0"
   d="m 143.6,167.9 h -11 c -0.1,0 -0.2,-0.1 -0.2,-0.2 v -3.1 c 0,-0.1 0.1,-0.2 0.2,-0.2 h 11 c 0.1,0 0.2,0.1 0.2,0.2 v 3.1 c 0,0.1 -0.1,0.2 -0.2,0.2 z"
   id="XMLID_57_" />
			<path
   style="fill:none;stroke:#414042;stroke-width:1.5;stroke-miterlimit:10"
   inkscape:connector-curvature="0"
   d="m 143.6,167.9 h -11 c -0.1,0 -0.2,-0.1 -0.2,-0.2 v -3.1 c 0,-0.1 0.1,-0.2 0.2,-0.2 h 11 c 0.1,0 0.2,0.1 0.2,0.2 v 3.1 c 0,0.1 -0.1,0.2 -0.2,0.2 z"
   stroke-miterlimit="10"
   id="XMLID_56_" />
			<path
   style="fill:#ffb936"
   inkscape:connector-curvature="0"
   d="m 144.3,164.2 h -11 c -0.1,0 -0.2,-0.1 -0.2,-0.2 v -3.1 c 0,-0.1 0.1,-0.2 0.2,-0.2 h 11 c 0.1,0 0.2,0.1 0.2,0.2 v 3.1 c 0.1,0.1 -0.1,0.2 -0.2,0.2 z"
   id="XMLID_61_" />
			<path
   style="fill:none;stroke:#414042;stroke-width:1.5;stroke-miterlimit:10"
   inkscape:connector-curvature="0"
   d="m 144.3,164.2 h -11 c -0.1,0 -0.2,-0.1 -0.2,-0.2 v -3.1 c 0,-0.1 0.1,-0.2 0.2,-0.2 h 11 c 0.1,0 0.2,0.1 0.2,0.2 v 3.1 c 0.1,0.1 -0.1,0.2 -0.2,0.2 z"
   stroke-miterlimit="10"
   id="XMLID_60_" />
			<path
   style="fill:#ffb936"
   inkscape:connector-curvature="0"
   d="m 144.6,160.6 h -11 c -0.1,0 -0.2,-0.1 -0.2,-0.2 v -3.1 c 0,-0.1 0.1,-0.2 0.2,-0.2 h 11 c 0.1,0 0.2,0.1 0.2,0.2 v 3.1 c 0.1,0.1 -0.1,0.2 -0.2,0.2 z"
   id="XMLID_78_" />
			<path
   style="fill:none;stroke:#414042;stroke-width:1.5;stroke-miterlimit:10"
   inkscape:connector-curvature="0"
   d="m 144.6,160.6 h -11 c -0.1,0 -0.2,-0.1 -0.2,-0.2 v -3.1 c 0,-0.1 0.1,-0.2 0.2,-0.2 h 11 c 0.1,0 0.2,0.1 0.2,0.2 v 3.1 c 0.1,0.1 -0.1,0.2 -0.2,0.2 z"
   stroke-miterlimit="10"
   id="XMLID_77_" />
			<path
   style="fill:#ffb936"
   inkscape:connector-curvature="0"
   d="m 142.3,157 h -11 c -0.1,0 -0.2,-0.1 -0.2,-0.2 v -3.1 c 0,-0.1 0.1,-0.2 0.2,-0.2 h 11 c 0.1,0 0.2,0.1 0.2,0.2 v 3.1 c 0,0.1 -0.1,0.2 -0.2,0.2 z"
   id="XMLID_107_" />
			<path
   style="fill:none;stroke:#414042;stroke-width:1.5;stroke-miterlimit:10"
   inkscape:connector-curvature="0"
   d="m 142.3,157 h -11 c -0.1,0 -0.2,-0.1 -0.2,-0.2 v -3.1 c 0,-0.1 0.1,-0.2 0.2,-0.2 h 11 c 0.1,0 0.2,0.1 0.2,0.2 v 3.1 c 0,0.1 -0.1,0.2 -0.2,0.2 z"
   stroke-miterlimit="10"
   id="XMLID_88_" />
			<path
   style="fill:#ffb936"
   inkscape:connector-curvature="0"
   d="m 142.6,153.3 h -11 c -0.1,0 -0.2,-0.1 -0.2,-0.2 V 150 c 0,-0.1 0.1,-0.2 0.2,-0.2 h 11 c 0.1,0 0.2,0.1 0.2,0.2 v 3.1 c 0,0.1 -0.1,0.2 -0.2,0.2 z"
   id="XMLID_114_" />
			<path
   style="fill:none;stroke:#414042;stroke-width:1.5;stroke-miterlimit:10"
   inkscape:connector-curvature="0"
   d="m 142.6,153.3 h -11 c -0.1,0 -0.2,-0.1 -0.2,-0.2 V 150 c 0,-0.1 0.1,-0.2 0.2,-0.2 h 11 c 0.1,0 0.2,0.1 0.2,0.2 v 3.1 c 0,0.1 -0.1,0.2 -0.2,0.2 z"
   stroke-miterlimit="10"
   id="XMLID_113_" />
			<path
   style="fill:#ffb936"
   inkscape:connector-curvature="0"
   d="m 139.8,149.7 h -11 c -0.1,0 -0.2,-0.1 -0.2,-0.2 v -3.1 c 0,-0.1 0.1,-0.2 0.2,-0.2 h 11 c 0.1,0 0.2,0.1 0.2,0.2 v 3.1 c 0.1,0.1 -0.1,0.2 -0.2,0.2 z"
   id="XMLID_119_" />
			<path
   style="fill:none;stroke:#414042;stroke-width:1.5;stroke-miterlimit:10"
   inkscape:connector-curvature="0"
   d="m 139.8,149.7 h -11 c -0.1,0 -0.2,-0.1 -0.2,-0.2 v -3.1 c 0,-0.1 0.1,-0.2 0.2,-0.2 h 11 c 0.1,0 0.2,0.1 0.2,0.2 v 3.1 c 0.1,0.1 -0.1,0.2 -0.2,0.2 z"
   stroke-miterlimit="10"
   id="XMLID_118_" />
			<path
   style="fill:#ffb936"
   inkscape:connector-curvature="0"
   d="m 157.1,171.5 h -11 c -0.1,0 -0.2,-0.1 -0.2,-0.2 v -3.1 c 0,-0.1 0.1,-0.2 0.2,-0.2 h 11 c 0.1,0 0.2,0.1 0.2,0.2 v 3.1 c 0.1,0.1 -0.1,0.2 -0.2,0.2 z"
   id="XMLID_24_" />
			<path
   style="fill:none;stroke:#414042;stroke-width:1.5;stroke-miterlimit:10"
   inkscape:connector-curvature="0"
   d="m 157.1,171.5 h -11 c -0.1,0 -0.2,-0.1 -0.2,-0.2 v -3.1 c 0,-0.1 0.1,-0.2 0.2,-0.2 h 11 c 0.1,0 0.2,0.1 0.2,0.2 v 3.1 c 0.1,0.1 -0.1,0.2 -0.2,0.2 z"
   stroke-miterlimit="10"
   id="XMLID_20_" />
			<path
   style="fill:#ffb936"
   inkscape:connector-curvature="0"
   d="m 157.1,167.9 h -11 c -0.1,0 -0.2,-0.1 -0.2,-0.2 v -3.1 c 0,-0.1 0.1,-0.2 0.2,-0.2 h 11 c 0.1,0 0.2,0.1 0.2,0.2 v 3.1 c 0.1,0.1 -0.1,0.2 -0.2,0.2 z"
   id="XMLID_122_" />
			<path
   style="fill:none;stroke:#414042;stroke-width:1.5;stroke-miterlimit:10"
   inkscape:connector-curvature="0"
   d="m 157.1,167.9 h -11 c -0.1,0 -0.2,-0.1 -0.2,-0.2 v -3.1 c 0,-0.1 0.1,-0.2 0.2,-0.2 h 11 c 0.1,0 0.2,0.1 0.2,0.2 v 3.1 c 0.1,0.1 -0.1,0.2 -0.2,0.2 z"
   stroke-miterlimit="10"
   id="XMLID_121_" />
			<path
   style="fill:#ffb936"
   inkscape:connector-curvature="0"
   d="m 156.2,164.2 h -11 c -0.1,0 -0.2,-0.1 -0.2,-0.2 v -3.1 c 0,-0.1 0.1,-0.2 0.2,-0.2 h 11 c 0.1,0 0.2,0.1 0.2,0.2 v 3.1 c 0.1,0.1 0,0.2 -0.2,0.2 z"
   id="XMLID_204_" />
			<path
   style="fill:none;stroke:#414042;stroke-width:1.5;stroke-miterlimit:10"
   inkscape:connector-curvature="0"
   d="m 156.2,164.2 h -11 c -0.1,0 -0.2,-0.1 -0.2,-0.2 v -3.1 c 0,-0.1 0.1,-0.2 0.2,-0.2 h 11 c 0.1,0 0.2,0.1 0.2,0.2 v 3.1 c 0.1,0.1 0,0.2 -0.2,0.2 z"
   stroke-miterlimit="10"
   id="XMLID_125_" />
			<path
   style="fill:#ffb936"
   inkscape:connector-curvature="0"
   d="m 157.1,160.6 h -11 c -0.1,0 -0.2,-0.1 -0.2,-0.2 v -3.1 c 0,-0.1 0.1,-0.2 0.2,-0.2 h 11 c 0.1,0 0.2,0.1 0.2,0.2 v 3.1 c 0.1,0.1 -0.1,0.2 -0.2,0.2 z"
   id="XMLID_245_" />
			<path
   style="fill:none;stroke:#414042;stroke-width:1.5;stroke-miterlimit:10"
   inkscape:connector-curvature="0"
   d="m 157.1,160.6 h -11 c -0.1,0 -0.2,-0.1 -0.2,-0.2 v -3.1 c 0,-0.1 0.1,-0.2 0.2,-0.2 h 11 c 0.1,0 0.2,0.1 0.2,0.2 v 3.1 c 0.1,0.1 -0.1,0.2 -0.2,0.2 z"
   stroke-miterlimit="10"
   id="XMLID_219_" />
			<path
   style="fill:#ffb936"
   inkscape:connector-curvature="0"
   d="m 155.8,157 h -11 c -0.1,0 -0.2,-0.1 -0.2,-0.2 v -3.1 c 0,-0.1 0.1,-0.2 0.2,-0.2 h 11 c 0.1,0 0.2,0.1 0.2,0.2 v 3.1 c 0,0.1 -0.1,0.2 -0.2,0.2 z"
   id="XMLID_249_" />
			<path
   style="fill:none;stroke:#414042;stroke-width:1.5;stroke-miterlimit:10"
   inkscape:connector-curvature="0"
   d="m 155.8,157 h -11 c -0.1,0 -0.2,-0.1 -0.2,-0.2 v -3.1 c 0,-0.1 0.1,-0.2 0.2,-0.2 h 11 c 0.1,0 0.2,0.1 0.2,0.2 v 3.1 c 0,0.1 -0.1,0.2 -0.2,0.2 z"
   stroke-miterlimit="10"
   id="XMLID_247_" />
			<path
   style="fill:#ffb936"
   inkscape:connector-curvature="0"
   d="m 150.5,153.3 -9.8,-5 c -0.1,-0.1 -0.2,-0.2 -0.1,-0.3 l 1.4,-2.8 c 0.1,-0.1 0.2,-0.2 0.3,-0.1 l 9.8,5 c 0.1,0.1 0.2,0.2 0.1,0.3 l -1.4,2.8 c 0,0.1 -0.1,0.2 -0.3,0.1 z"
   id="XMLID_254_" />
			<path
   style="fill:none;stroke:#414042;stroke-width:1.5;stroke-miterlimit:10"
   inkscape:connector-curvature="0"
   d="m 150.5,153.3 -9.8,-5 c -0.1,-0.1 -0.2,-0.2 -0.1,-0.3 l 1.4,-2.8 c 0.1,-0.1 0.2,-0.2 0.3,-0.1 l 9.8,5 c 0.1,0.1 0.2,0.2 0.1,0.3 l -1.4,2.8 c 0,0.1 -0.1,0.2 -0.3,0.1 z"
   stroke-miterlimit="10"
   id="XMLID_253_" />
			<g
   id="XMLID_11_">
				<path
   style="fill:#58595b"
   inkscape:connector-curvature="0"
   d="M 130.9,159.4 109,157.5 c -2,-0.2 -3.7,-1.7 -3.7,-3.3 v -27.4 c 0,-1.6 1.6,-3.1 3.7,-3.3 l 21.9,-1.9 c 2.6,-0.2 4.8,1.1 4.8,3 v 31.8 c 0,1.9 -2.2,3.2 -4.8,3 z"
   id="XMLID_54_" />
				<path
   style="fill:none;stroke:#414042;stroke-width:1.5;stroke-miterlimit:10"
   inkscape:connector-curvature="0"
   d="M 130.9,159.4 109,157.5 c -2,-0.2 -3.7,-1.7 -3.7,-3.3 v -27.4 c 0,-1.6 1.6,-3.1 3.7,-3.3 l 21.9,-1.9 c 2.6,-0.2 4.8,1.1 4.8,3 v 31.8 c 0,1.9 -2.2,3.2 -4.8,3 z"
   stroke-miterlimit="10"
   id="XMLID_53_" />
				<path
   style="fill:#6d6e71"
   inkscape:connector-curvature="0"
   d="m 126.5,167.4 -21.9,-2.7 c -2,-0.3 -3.7,-2.3 -3.7,-4.6 v -38.7 c 0,-2.3 1.6,-4.4 3.7,-4.6 l 21.9,-2.7 c 2.6,-0.3 4.8,1.6 4.8,4.3 v 44.9 c 0,2.5 -2.2,4.4 -4.8,4.1 z"
   id="XMLID_51_" />
				<path
   style="fill:none;stroke:#414042;stroke-width:1.5;stroke-miterlimit:10"
   inkscape:connector-curvature="0"
   d="m 126.5,167.4 -21.9,-2.7 c -2,-0.3 -3.7,-2.3 -3.7,-4.6 v -38.7 c 0,-2.3 1.6,-4.4 3.7,-4.6 l 21.9,-2.7 c 2.6,-0.3 4.8,1.6 4.8,4.3 v 44.9 c 0,2.5 -2.2,4.4 -4.8,4.1 z"
   stroke-miterlimit="10"
   id="XMLID_50_" />
				<path
   style="fill:#f1f2f2"
   inkscape:connector-curvature="0"
   d="M 123.9,167.4 102,164.7 c -2,-0.3 -3.7,-2.3 -3.7,-4.6 v -38.7 c 0,-2.3 1.6,-4.4 3.7,-4.6 l 21.9,-2.7 c 2.6,-0.3 4.8,1.6 4.8,4.3 v 44.9 c -0.1,2.5 -2.2,4.4 -4.8,4.1 z"
   id="XMLID_49_" />
				<path
   style="fill:#d1d3d4"
   inkscape:connector-curvature="0"
   d="m 128.6,163.1 v -38 l -30.4,30.4 v 4.5 c 0,2.3 1.6,4.4 3.7,4.6 l 21.9,2.7 c 2.7,0.4 4.8,-1.5 4.8,-4.2 z"
   id="XMLID_48_" />
				<path
   style="fill:none;stroke:#414042;stroke-width:1.5;stroke-miterlimit:10"
   inkscape:connector-curvature="0"
   d="M 123.9,167.4 102,164.7 c -2,-0.3 -3.7,-2.3 -3.7,-4.6 v -38.7 c 0,-2.3 1.6,-4.4 3.7,-4.6 l 21.9,-2.7 c 2.6,-0.3 4.8,1.6 4.8,4.3 v 44.9 c -0.1,2.5 -2.2,4.4 -4.8,4.1 z"
   stroke-miterlimit="10"
   id="XMLID_45_" />
				<path
   style="fill:#ffffff"
   inkscape:connector-curvature="0"
   d="m 99,132.4 h -1.4 c -0.5,0 -0.9,-0.4 -0.9,-0.9 v -5.8 c 0,-0.5 0.4,-0.9 0.9,-0.9 H 99 c 0.5,0 0.9,0.4 0.9,0.9 v 5.8 c 0,0.5 -0.4,0.9 -0.9,0.9 z"
   id="XMLID_40_" />
				<path
   style="fill:#bcbec0"
   inkscape:connector-curvature="0"
   d="m 99.5,124.9 h -1.2 v 7.5 h 1.2 c 0.2,0 0.4,-0.3 0.4,-0.6 v -6.3 c 0,-0.3 -0.2,-0.6 -0.4,-0.6 z"
   id="XMLID_39_" />
				<path
   style="fill:none;stroke:#414042;stroke-width:1.5;stroke-miterlimit:10"
   inkscape:connector-curvature="0"
   d="m 99,132.4 h -1.4 c -0.5,0 -0.9,-0.4 -0.9,-0.9 v -5.8 c 0,-0.5 0.4,-0.9 0.9,-0.9 H 99 c 0.5,0 0.9,0.4 0.9,0.9 v 5.8 c 0,0.5 -0.4,0.9 -0.9,0.9 z"
   stroke-miterlimit="10"
   id="XMLID_37_" />
				<path
   style="fill:#ffffff"
   inkscape:connector-curvature="0"
   d="m 99,155.2 h -1.4 c -0.5,0 -0.9,-0.4 -0.9,-0.9 v -5.8 c 0,-0.5 0.4,-0.9 0.9,-0.9 H 99 c 0.5,0 0.9,0.4 0.9,0.9 v 5.8 c 0,0.6 -0.4,0.9 -0.9,0.9 z"
   id="XMLID_35_" />
				<path
   style="fill:#bcbec0"
   inkscape:connector-curvature="0"
   d="m 99.5,147.7 h -1.2 v 7.5 h 1.2 c 0.2,0 0.4,-0.3 0.4,-0.6 v -6.3 c 0,-0.3 -0.2,-0.6 -0.4,-0.6 z"
   id="XMLID_33_" />
				<path
   style="fill:none;stroke:#414042;stroke-width:1.5;stroke-miterlimit:10"
   inkscape:connector-curvature="0"
   d="m 99,155.2 h -1.4 c -0.5,0 -0.9,-0.4 -0.9,-0.9 v -5.8 c 0,-0.5 0.4,-0.9 0.9,-0.9 H 99 c 0.5,0 0.9,0.4 0.9,0.9 v 5.8 c 0,0.6 -0.4,0.9 -0.9,0.9 z"
   stroke-miterlimit="10"
   id="XMLID_32_" />
				<path
   style="fill:#58595b"
   inkscape:connector-curvature="0"
   d="m 117.7,140.6 c 0,3.3 -2.5,5.5 -5,5 -2,-0.5 -3.4,-2.6 -3.4,-5 0,-2.3 1.4,-4.5 3.4,-5 2.6,-0.5 5,1.7 5,5 z"
   id="XMLID_30_" />
				<path
   style="fill:none;stroke:#414042;stroke-width:1.5;stroke-miterlimit:10"
   inkscape:connector-curvature="0"
   d="m 117.7,140.6 c 0,3.3 -2.5,5.5 -5,5 -2,-0.5 -3.4,-2.6 -3.4,-5 0,-2.3 1.4,-4.5 3.4,-5 2.6,-0.5 5,1.7 5,5 z"
   stroke-miterlimit="10"
   id="XMLID_29_" />
				<path
   style="fill:#6d6e71"
   inkscape:connector-curvature="0"
   d="m 116.4,140.6 c 0,-2.2 -1.2,-3.8 -2.7,-4 v 0 h -1.3 v 0.3 c -1.1,0.6 -1.8,2.1 -1.8,3.7 0,1.6 0.8,3.1 1.8,3.7 v 0.3 h 1.3 v 0 c 1.5,-0.1 2.7,-1.8 2.7,-4 z"
   id="XMLID_28_" />
				<path
   style="fill:#9c999b"
   inkscape:connector-curvature="0"
   d="m 114.6,140.6 c 0,2.2 -1.5,3.7 -3.2,3.6 -1.5,-0.2 -2.7,-1.8 -2.7,-3.6 0,-1.8 1.1,-3.4 2.7,-3.6 1.7,-0.1 3.2,1.5 3.2,3.6 z"
   id="XMLID_27_" />
				<path
   style="fill:#f1f2f2;stroke:#414042;stroke-width:1.5;stroke-miterlimit:10"
   inkscape:connector-curvature="0"
   d="m 114.6,140.6 c 0,2.2 -1.5,3.7 -3.2,3.6 -1.5,-0.2 -2.7,-1.8 -2.7,-3.6 0,-1.8 1.1,-3.4 2.7,-3.6 1.7,-0.1 3.2,1.5 3.2,3.6 z"
   stroke-miterlimit="10"
   id="XMLID_26_" />
			</g>
		</g>
		<g
   id="XMLID_3_">
			<path
   style="fill:#ffb936"
   inkscape:connector-curvature="0"
   d="m 153.7,160.2 c -2,3.9 -0.4,8.7 3.5,10.7 3.9,2 8.7,0.4 10.7,-3.5 2,-3.9 0.4,-8.7 -3.5,-10.7 -3.9,-2 -8.7,-0.4 -10.7,3.5 z"
   id="XMLID_272_" />
			<path
   style="fill:#ffd586"
   inkscape:connector-curvature="0"
   d="m 155.8,161.3 c -1.4,2.8 -0.3,6.1 2.5,7.5 2.8,1.4 6.1,0.3 7.5,-2.5 1.4,-2.8 0.3,-6.1 -2.5,-7.5 -2.7,-1.4 -6.1,-0.3 -7.5,2.5 z"
   id="XMLID_18_" />
			<path
   style="fill:none;stroke:#414042;stroke-width:1.5;stroke-miterlimit:10"
   inkscape:connector-curvature="0"
   d="m 168.8,163.4 c 0.1,1.5 -0.2,2.9 -1,4.3 -2.1,3.8 -7,5.2 -10.8,3.1 -3.8,-2.1 -5.2,-7 -3.1,-10.8 2.1,-3.8 7,-5.2 10.8,-3.1 0.7,0.4 1.4,0.9 2,1.5"
   stroke-miterlimit="10"
   id="XMLID_9_" />
			<path
   style="fill:none;stroke:#414042;stroke-width:1.5;stroke-miterlimit:10"
   inkscape:connector-curvature="0"
   d="m 167.6,159.6 c 0.3,0.5 0.6,1.1 0.8,1.7"
   stroke-miterlimit="10"
   id="XMLID_422_" />
			<g
   id="XMLID_7_">
				<path
   style="fill:none;stroke:#414042;stroke-width:1.5;stroke-miterlimit:10"
   inkscape:connector-curvature="0"
   d="m 164,160.8 h -4 c -0.8,0 -1.5,0.7 -1.5,1.5 v 0 c 0,0.8 0.7,1.5 1.5,1.5 h 1.6 c 0.8,0 1.5,0.7 1.5,1.5 v 0 c 0,0.8 -0.7,1.5 -1.5,1.5 h -4.1"
   stroke-miterlimit="10"
   id="XMLID_8_" />
				
					<line
   style="fill:none;stroke:#414042;stroke-width:1.5;stroke-miterlimit:10"
   y2="169.3"
   x2="160.8"
   y1="158.3"
   x1="160.8"
   stroke-miterlimit="10"
   id="XMLID_12_" />
			</g>
		</g>
		<g
   id="XMLID_481_">
			
				<line
   style="fill:none;stroke:#414042;stroke-width:1.5;stroke-miterlimit:10"
   y2="171.8"
   x2="39.5"
   y1="171.8"
   x1="36.799999"
   stroke-miterlimit="10"
   id="XMLID_38_" />
			
				<line
   style="fill:none;stroke:#414042;stroke-width:1.5;stroke-miterlimit:10"
   y2="171.8"
   x2="212.8"
   y1="171.8"
   x1="206.7"
   stroke-miterlimit="10"
   id="XMLID_41_" />
			
				<line
   style="fill:none;stroke:#414042;stroke-width:1.5;stroke-miterlimit:10"
   y2="171.8"
   x2="205.2"
   y1="171.8"
   x1="41.400002"
   stroke-miterlimit="10"
   id="XMLID_42_" />
		</g>
		<path
   style="fill:#edf0f4"
   inkscape:connector-curvature="0"
   d="m 207.2,160.8 h -9.3 c -4.7,0 -8.5,-3.8 -8.5,-8.5 v 0 c 0,-4.7 3.8,-8.5 8.5,-8.5 h 9.3 c 4.7,0 8.5,3.8 8.5,8.5 v 0 c 0,4.7 -3.8,8.5 -8.5,8.5 z"
   id="XMLID_384_" />
	</g>
</g><line
     style="fill:none;stroke:#414042;stroke-width:1.5;stroke-miterlimit:10"
     y2="498.54999"
     x2="188.40173"
     y1="481.64999"
     x1="188.40173"
     stroke-miterlimit="10"
     id="XMLID_206_" /><circle
     style="fill:#ffb936;stroke-width:0.99997813"
     r="9.0998011"
     cy="504.33841"
     cx="79.426643"
     transform="rotate(-12.703442)"
     id="XMLID_205_" /><path
     style="fill:#ffd586"
     inkscape:connector-curvature="0"
     d="m 194.50175,474.55 c 0,3.4 -2.8,6.1 -6.1,6.1 -3.4,0 -6.1,-2.8 -6.1,-6.1 0,-3.4 2.8,-6.1 6.1,-6.1 3.4,0 6.1,2.7 6.1,6.1 z"
     id="XMLID_19_" /><path
     style="fill:none;stroke:#414042;stroke-width:1.5;stroke-miterlimit:10"
     inkscape:connector-curvature="0"
     d="m 196.10175,469.75 c 0.9,1.4 1.4,3.1 1.4,4.8 0,5 -4.1,9.1 -9.1,9.1 -5,0 -9.1,-4.1 -9.1,-9.1 0,-5 4.1,-9.1 9.1,-9.1 1,0 1.9,0.2 2.8,0.4"
     stroke-miterlimit="10"
     id="XMLID_202_" /><g
     transform="translate(-10.99825,327.45)"
     id="XMLID_192_">
			<path
   style="fill:none;stroke:#414042;stroke-width:1.5;stroke-miterlimit:10"
   inkscape:connector-curvature="0"
   d="m 203,143.7 h -4.5 c -0.9,0 -1.7,0.8 -1.7,1.7 v 0 c 0,0.9 0.8,1.7 1.7,1.7 h 1.9 c 0.9,0 1.7,0.8 1.7,1.7 v 0 c 0,0.9 -0.8,1.7 -1.7,1.7 h -4.6"
   stroke-miterlimit="10"
   id="XMLID_194_" />
			
				<line
   style="fill:none;stroke:#414042;stroke-width:1.5;stroke-miterlimit:10"
   y2="153.36472"
   x2="199.4315"
   y1="140.86472"
   x1="199.4315"
   stroke-miterlimit="10"
   id="XMLID_193_" />
		</g><path
     style="fill:#bcbec0"
     inkscape:connector-curvature="0"
     d="m 199.10175,484.85 c 0,0 0.3,4.6 -2.3,7.2 -2.6,2.6 -7.2,2.3 -7.2,2.3 0,0 -0.3,-4.6 2.3,-7.2 2.6,-2.6 7.2,-2.3 7.2,-2.3 z"
     id="XMLID_190_" /><path
     style="fill:none;stroke:#414042;stroke-width:1.5;stroke-miterlimit:10"
     inkscape:connector-curvature="0"
     d="m 199.10175,484.85 c 0,0 0.3,4.6 -2.3,7.2 -2.6,2.6 -7.2,2.3 -7.2,2.3 0,0 -0.3,-4.6 2.3,-7.2 2.6,-2.6 7.2,-2.3 7.2,-2.3 z"
     stroke-miterlimit="10"
     id="XMLID_183_" /><path
     style="fill:#bcbec0"
     inkscape:connector-curvature="0"
     d="m 187.50175,494.35 c 0,0 0.3,-4.6 -2.3,-7.2 -2.6,-2.6 -7.2,-2.3 -7.2,-2.3 0,0 -0.3,4.6 2.3,7.2 2.6,2.7 7.2,2.3 7.2,2.3 z"
     id="XMLID_182_" /><path
     style="fill:none;stroke:#414042;stroke-width:1.5;stroke-miterlimit:10"
     inkscape:connector-curvature="0"
     d="m 187.50175,494.35 c 0,0 0.3,-4.6 -2.3,-7.2 -2.6,-2.6 -7.2,-2.3 -7.2,-2.3 0,0 -0.3,4.6 2.3,7.2 2.6,2.7 7.2,2.3 7.2,2.3 z"
     stroke-miterlimit="10"
     id="XMLID_181_" /><path
     style="opacity:0.3;fill:#414042"
     inkscape:connector-curvature="0"
     d="m 73.50175,474.95 c -1.8,-1.9 -4.1,-3.2 -6.6,-3.9 -0.5,-0.1 -1,-0.2 -1.4,-0.3 -0.9,2.3 -1.3,4.7 -1.3,7.2 0,7.1 3.6,13.4 9.2,17.1 1.8,-1.8 3.1,-4 3.7,-6.4 0.5,-1.9 0.6,-3.8 0.3,-5.7 l 3.5,-7.4 z"
     id="XMLID_462_" /><g
     transform="translate(-10.99825,327.45)"
     id="XMLID_100_">
			<path
   style="fill:#ffb936"
   inkscape:connector-curvature="0"
   d="m 88.8,148.7 -3.1,6.6 c 0.3,1.8 0.2,3.7 -0.3,5.7 -1.9,7.2 -9.4,11.5 -16.6,9.6 -7.2,-1.9 -11.5,-9.4 -9.6,-16.6 1.9,-7.2 9.4,-11.5 16.6,-9.6 2.6,0.7 4.7,2.1 6.4,3.9 z"
   id="XMLID_854_" />
			<path
   style="fill:none;stroke:#414042;stroke-width:1.5;stroke-miterlimit:10"
   inkscape:connector-curvature="0"
   d="m 88.8,148.7 -3.1,6.6 c 0.3,1.8 0.2,3.7 -0.3,5.7 -1.9,7.2 -9.4,11.5 -16.6,9.6 -7.2,-1.9 -11.5,-9.4 -9.6,-16.6 1.9,-7.2 9.4,-11.5 16.6,-9.6 2.6,0.7 4.7,2.1 6.4,3.9 z"
   stroke-miterlimit="10"
   id="XMLID_130_" />
			<path
   style="fill:#ffffff"
   inkscape:connector-curvature="0"
   d="m 81.1,159.8 c 1.3,-4.7 -1.6,-9.6 -6.5,-10.9 -4.9,-1.3 -9.8,1.5 -11.1,6.2 -1.3,4.7 1.6,9.6 6.5,10.9 4.9,1.4 9.8,-1.4 11.1,-6.2 z"
   id="XMLID_149_" />
			<polyline
   style="fill:none;stroke:#414042;stroke-width:4;stroke-miterlimit:10"
   transform="translate(-242)"
   points="308.9,157 312.1,160.2      319.1,153.3    "
   stroke-miterlimit="10"
   id="XMLID_111_" />
			
				<line
   style="fill:none;stroke:#414042;stroke-width:1.5;stroke-miterlimit:10"
   y2="142.10001"
   x2="72.600014"
   y1="138.8"
   x1="72.600014"
   stroke-miterlimit="10"
   id="XMLID_132_" />
			
				<line
   style="fill:none;stroke:#414042;stroke-width:1.5;stroke-miterlimit:10"
   y2="164.89999"
   x2="58.799988"
   y1="166.60001"
   x1="55.899986"
   stroke-miterlimit="10"
   id="XMLID_435_" />
			
				<line
   style="fill:none;stroke:#414042;stroke-width:1.5;stroke-miterlimit:10"
   y2="161.2"
   x2="57.299988"
   y1="162"
   x1="54.200012"
   stroke-miterlimit="10"
   id="XMLID_436_" />
			
				<line
   style="fill:none;stroke:#414042;stroke-width:1.5;stroke-miterlimit:10"
   y2="157.2"
   x2="56.899986"
   y1="157.2"
   x1="53.600014"
   stroke-miterlimit="10"
   id="XMLID_437_" />
			
				<line
   style="fill:none;stroke:#414042;stroke-width:1.5;stroke-miterlimit:10"
   y2="153.2"
   x2="57.5"
   y1="152.3"
   x1="54.299988"
   stroke-miterlimit="10"
   id="XMLID_438_" />
			
				<line
   style="fill:none;stroke:#414042;stroke-width:1.5;stroke-miterlimit:10"
   y2="149.5"
   x2="59.100014"
   y1="147.8"
   x1="56.299988"
   stroke-miterlimit="10"
   id="XMLID_439_" />
			
				<line
   style="fill:none;stroke:#414042;stroke-width:1.5;stroke-miterlimit:10"
   y2="146.39999"
   x2="61.600014"
   y1="144"
   x1="59.299988"
   stroke-miterlimit="10"
   id="XMLID_440_" />
			
				<line
   style="fill:none;stroke:#414042;stroke-width:1.5;stroke-miterlimit:10"
   y2="144"
   x2="64.899986"
   y1="141.10001"
   x1="63.200012"
   stroke-miterlimit="10"
   id="XMLID_442_" />
			
				<line
   style="fill:none;stroke:#414042;stroke-width:1.5;stroke-miterlimit:10"
   y2="142.5"
   x2="68.600014"
   y1="139.3"
   x1="67.799988"
   stroke-miterlimit="10"
   id="XMLID_449_" />
		</g></g>
</svg>