<svg version="1.2" xmlns="http://www.w3.org/2000/svg" viewBox="0 0 1046 374" width="1046" height="374">
	<title>finbyz-homepage (1)-svg</title>
	<style>
		.s0 { fill: #ffffff } 
		.s1 { fill: #ea572e } 
		.s2 { fill: #111111 } 
		.s3 { fill: #7c7e82 } 
		.s4 { fill: #f3a52d } 
		.s5 { fill: #ffad2f } 
		.s6 { fill: #e6e6e6 } 
		.s7 { fill: #3dc7d2 } 
	</style>
	<g id="surface1">
		<path id="Layer" class="s0" d="m85.2 195.7c3.6 0 6.9 1.1 9.7 3 1.8-2.1 4.4-3.6 7.3-4.1q-0.2-1.2-0.2-2.5c0-9.5 7.7-17.1 17.1-17.1 9.5 0 17.1 7.6 17.1 17.1q0 2.1-0.5 4c1.3-0.3 2.6-0.4 4-0.4 9.4 0 17 7.9 17 17.2h-88.6c0-9.3 7.6-17.2 17.1-17.2z"/>
		<path id="Layer" class="s1" d="m76.3 218c3.6 0 6.5 3 6.5 6.8q0 0.5 0 1c1.1-1.5 3-2.5 5-2.5 3.6 0 6.5 3.1 6.5 6.8 0 1.3-0.3 2.5-0.8 3.5 0.9-0.5 1.9-0.8 3-0.8 3.6 0 6.6 3 6.6 6.8 0 2.2-1 4.1-2.5 5.4q0.5-0.1 1-0.1c3.6 0 6.6 3 6.6 6.8 0 2.7-1.5 5-3.7 6.1 2.2 1.1 3.7 3.5 3.7 6.2 0 3.7-3 6.8-6.6 6.8q-0.3 0-0.7 0c1.3 1.2 2.2 3 2.2 5 0 3.8-3 6.8-6.6 6.8-1 0-2-0.2-2.9-0.7 0.5 1 0.7 2 0.7 3.2 0 3.7-2.9 6.8-6.5 6.8-2 0-3.8-1-5-2.4-0.1 3.6-3 6.5-6.5 6.5-3.4 0-6.2-2.6-6.5-6l-0.1-0.1v-65.1c0-3.8 3-6.8 6.6-6.8z"/>
		<path id="Layer" fill-rule="evenodd" class="s2" d="m108.3 266.8c-1 2.6-3.3 4.5-6 4.8 1.8 2.7 1.8 6.3-0.1 9-1.7 2.5-4.8 3.4-7.5 2.7 0.7 3-0.1 6.4-2.8 8.3-2.7 1.9-6.2 1.6-8.6-0.4-0.7 3.1-3.2 5.8-6.6 5.9-3.9 0.1-6.8-2.8-7.5-6.5q0-0.1 0-0.3v-4.8q-0.1-0.2 0-0.4v-60.1c0-4.1 2.9-7.6 7.1-7.8 4 0.2 6.8 3.3 7.1 7 2.5-1.9 6-2.2 8.6-0.2 2.6 2.1 3.5 5.4 2.6 8.4 2.9-0.8 6.1 0.3 7.8 3 1.8 2.8 1.6 6.4-0.3 8.9 2.8 0.3 5.3 2.1 6.2 4.9 1.1 3.2 0 6.8-2.6 8.8 2.6 2 3.8 5.6 2.6 8.8zm-7.7 4.8c-5-0.4-9.8-3.2-11.3-7.8-0.4 1.3-0.8 2.5-1.4 3.5-0.3 0.8-1.4 0.1-1.1-0.6 0.9-1.9 1.7-3.9 2-6q0-0.1 0-0.2c0.3-2.1 0.2-4.2-0.7-6.1q0 0-0.1-0.1-0.1-0.1-0.1-0.2c-0.6-1.2-1.5-2.5-2.4-3.2-0.7-0.4-0.1-1.6 0.6-1.1q1.6 1.1 2.5 2.5c1.4-2.4 3.9-3.7 6.8-3.2 0.2-0.9 0.7-1.7 1.4-2.5 0.9-1 2.1-1.8 3.4-2.2 2.2-2 2.9-5.5 1.3-8.1-1.7-2.7-4.9-3.7-7.7-2.2-3.3 1.8-4.1 5.5-2.9 8.8 0.3 0.8-0.9 1.1-1.2 0.3-0.6-1.4-0.8-2.9-0.6-4.3-2.3-0.4-4.5-1.8-5.2-4.2-0.2-0.8 1.1-1.1 1.3-0.3 0.5 1.9 2.3 3 4.2 3.2 0.5-1.8 1.7-3.5 3.6-4.5 1.3-2.8 0.7-6.5-2-8.2-2.6-1.7-5.6-1.1-7.6 1.1-0.4 4.6-4.6 7.1-8.9 7.1-0.8 0-0.8-1.3 0-1.3 2.6 0 5.3-0.8 6.6-3.2 0.5-0.8 1-2 1-2.8 0.4-3.7-1.9-7.2-5.8-7.3-0.4 0-0.8 0.1-1.2 0.2-3.4 0.8-4.6 3.9-4.6 7.1v19.8c1.8-0.8 3.8-0.9 5.7-0.4 0.1-0.1 0.4-0.4 0.5-0.7 0.5-0.8 0.4-1.8 0.1-2.7-0.2-0.8 1-1.1 1.3-0.3 0.4 1.4 0.3 3-0.6 4.2 1.3 0.5 2.6 1.2 3.6 2.1 0.7 0.5-0.2 1.5-0.9 0.9-2.6-2.1-6.6-3.5-9.7-1.6v15.1c1.5 0.8 3.3 1.2 5.1 1.2 1.2-1.4 0.9-3.6 0.2-5.2-0.3-0.8 0.8-1.4 1.1-0.7 0.8 1.8 1.2 4.1 0.3 5.9 1.5-0.2 3-0.6 4.4-1.3 0.7-0.4 1.4 0.8 0.6 1.1-3.6 1.8-8 2-11.7 0.4v20c0.9-0.8 1.9-1.5 3-1.9 0.8-2.3 2.6-4.3 5-4.9 0.8-0.3 1.1 1 0.3 1.2-1.7 0.5-3 1.8-3.7 3.4q1.4-0.2 2.8 0.2c0.8 0.2 0.5 1.5-0.3 1.2-1.9-0.5-3.7-0.1-5.3 1q-0.8 0.6-1.5 1.3c0 0-0.2 0.3-0.3 0.4v4.6q0 0.1 0 0.2c0.4 3 3 5.7 6.2 5.5 2.9-0.3 4.9-2.5 5.4-5.2-1.6-4-1-8.8 2.8-11.2 0.7-0.4 1.4 0.7 0.7 1.2-3 1.8-3.5 5.4-2.6 8.6q0.1 0 0.3 0.1c2 2.4 5.6 3.2 8.1 1 2.2-1.9 2.9-5 1.7-7.7-1.1-0.9-2-2.2-2.4-3.5-0.5-1.3-0.6-2.6-0.4-3.8-2.4-2.3-5.8-3-8.6-1-0.6 0.5-1.3-0.6-0.6-1.1 3-2.2 6.8-1.6 9.5 0.7q0.6-1.7 1.7-3.2c0.5-0.7 1.7-0.1 1.2 0.6-1.7 2.3-2.7 5.1-1.4 7.8 0.4 0.9 1 1.9 1.9 2.6 2.6 1.2 6 0.3 7.5-2.3 1.4-2.5 1.1-5.6-0.9-7.8zm3.6-13c-3.4-1-6.5 0.8-7.8 4-0.3 0.8-1.5 0.4-1.2-0.4 1.5-3.7 5.1-6 9.2-4.9 2.4-1.5 3.7-4.6 2.8-7.4-0.9-2.8-3.5-4.7-6.5-4.2-1 0.2-2 0.8-2.8 1.6-1.9 1.9-1.6 4.7-0.6 7.1 0.3 0.7-0.8 1.4-1.1 0.6-0.7-1.4-1.1-3.1-1-4.6-2.6-0.5-4.9 0.9-5.9 3.4 0.9 2 1 4.3 0.7 6.6q0.1 0.1 0.1 0.3c0 3.7 2.1 6.6 5.4 8.2 1.6 0.7 3.5 1.3 5.1 1.4q0 0 0.1 0.1 0.1-0.1 0.2-0.1c6.7 0.6 8.8-8.6 3.3-11.7z"/>
		<path id="Layer" class="s1" d="m59.7 218c-3.6 0-6.5 3-6.5 6.8q0 0.5 0.1 1c-1.2-1.5-3.1-2.5-5.1-2.5-3.6 0-6.5 3.1-6.5 6.8 0 1.3 0.3 2.5 0.8 3.5-0.9-0.5-1.9-0.8-3-0.8-3.6 0-6.6 3-6.6 6.8 0 2.2 1 4.1 2.5 5.4q-0.5-0.1-1-0.1c-3.6 0-6.6 3-6.6 6.8 0 2.7 1.5 5 3.7 6.1-2.2 1.1-3.7 3.5-3.7 6.2 0 3.7 3 6.8 6.6 6.8q0.3 0 0.7 0c-1.3 1.2-2.2 3-2.2 5 0 3.8 3 6.8 6.6 6.8 1 0 2-0.2 2.9-0.7-0.5 1-0.7 2-0.7 3.2 0 3.7 2.9 6.8 6.5 6.8 2 0 3.8-1 5-2.4 0.1 3.6 3 6.5 6.5 6.5 3.4 0 6.2-2.6 6.5-6l0.1-0.1v-65.1c0-3.8-3-6.8-6.6-6.8z"/>
		<path id="Layer" fill-rule="evenodd" class="s2" d="m67 254.7q0 15.2 0 30.4 0.1 0.2 0 0.4 0 2.4 0 4.8 0 0.2-0.1 0.3c-0.6 3.6-3.5 6.8-7.4 6.5-3.4-0.3-5.9-2.8-6.6-5.9-2.5 2-6.1 2.3-8.7 0.3-2.6-2-3.5-5.2-2.7-8.2-2.9 0.7-6-0.3-7.7-3-1.7-2.7-1.6-6.1 0.1-8.7-2.8-0.3-5.3-2.3-6.1-5.2-0.9-3.1 0.1-6.5 2.7-8.4-2.6-2-3.9-5.6-2.6-8.8 1-2.8 3.4-4.6 6.2-4.9-1.9-2.5-2.2-6.2-0.3-9 1.8-2.6 4.9-3.7 7.8-2.9-0.9-3.1 0-6.6 2.7-8.5 2.7-1.8 6-1.6 8.4 0.3 0.4-3.7 3.2-6.9 7.2-7 1.5 0.1 3 0.5 4.2 1.5 3.9 3 2.9 8.9 2.9 13.3q0 11.3 0 22.7zm-31.7 15.6q0.1 0 0.2 0.1 0.1-0.1 0.1-0.1c1.6-0.1 3.6-0.7 5.1-1.4 3.3-1.7 5.4-4.4 5.4-8.2q0-0.2 0.1-0.3c-0.3-2.3-0.2-4.6 0.7-6.6-1-2.5-3.3-3.9-5.9-3.4 0.1 1.5-0.3 3.1-1 4.6-0.3 0.8-1.4 0.1-1.1-0.6 1-2.5 1.4-5.4-0.8-7.3-0.7-0.6-1.7-1.2-2.6-1.5-2.9-0.4-5.7 1.5-6.5 4.3-0.8 2.9 0.3 5.8 2.8 7.4 4-1.1 7.7 1.2 9.2 4.9 0.3 0.8-0.9 1.2-1.2 0.4-1.3-3.2-4.5-5-7.8-4-5.6 3.1-3.4 12.3 3.3 11.7zm30.4 20q0-0.1 0-0.2 0-2.3 0-4.6c-0.1-0.1-0.3-0.4-0.3-0.4-0.5-0.5-1-0.9-1.5-1.3-1.6-1-3.4-1.5-5.3-1-0.8 0.3-1.1-1-0.3-1.2q1.4-0.4 2.8-0.2c-0.7-1.6-2.1-2.9-3.7-3.4-0.8-0.2-0.5-1.5 0.3-1.2 2.4 0.6 4.2 2.6 5 4.9 1.1 0.4 2.1 1.1 3 1.9q0-10 0-20c-3.7 1.6-8.1 1.4-11.7-0.4-0.8-0.3-0.1-1.5 0.6-1.1 1.4 0.7 2.9 1.1 4.4 1.3-0.9-1.8-0.5-4.1 0.2-5.9 0.4-0.7 1.5-0.1 1.2 0.7-0.7 1.6-1.1 3.8 0.2 5.2 1.8 0 3.6-0.4 5.1-1.2q0-4.2 0-8.3 0-3.4 0-6.8c-3.1-1.9-7.1-0.5-9.7 1.6-0.7 0.6-1.6-0.4-0.9-0.9 1-0.9 2.2-1.6 3.6-2.1-0.9-1.2-1-2.8-0.6-4.2 0.2-0.8 1.5-0.5 1.3 0.3-0.3 1-0.4 2 0.1 2.9 0.2 0.1 0.4 0.4 0.5 0.5 1.9-0.5 3.9-0.4 5.7 0.5q0-7.1 0-14.2 0-3 0-5.9 0-0.4 0-0.8c0-3.4-2.4-6.2-5.8-6.3-3.9 0.1-6.2 3.6-5.8 7.3 0 0.8 0.4 2 0.9 2.8 1.5 2.4 4 3.2 6.7 3.2 0.8 0 0.8 1.3 0 1.3-4.3 0-8.5-2.5-8.9-7.1-2-2.2-5.5-2.9-8-0.8-2.3 2-2.9 5.1-1.6 7.9 1.9 1 3.1 2.7 3.6 4.5 1.8-0.2 3.7-1.3 4.2-3.2 0.2-0.8 1.5-0.5 1.3 0.3-0.7 2.4-2.9 3.8-5.2 4.2 0.1 1.4 0 2.9-0.6 4.3-0.3 0.8-1.6 0.5-1.2-0.3 1.2-3.3 0.4-7-2.9-8.8-2.7-1.4-6.1-0.5-7.7 2.2-1.5 2.7-1 6 1.3 8.1 1.3 0.4 2.7 1.3 3.6 2.4q0.9 1.1 1.2 2.3c2.8-0.5 5.4 0.8 6.8 3.2q0.9-1.4 2.5-2.5c0.7-0.5 1.3 0.7 0.6 1.1-0.9 0.7-1.8 1.9-2.4 3.1q0 0.2-0.2 0.3 0 0.1 0 0.1c-1.7 4-0.5 8.5 1.3 12.3 0.3 0.7-0.8 1.4-1.2 0.6-0.5-1-0.9-2.2-1.3-3.5-1.5 4.6-6.3 7.4-11.3 7.8q0 0 0 0c-2 2.2-2.4 5.6-0.7 8.1 1.7 2.4 4.7 3.2 7.3 2 0.8-0.7 1.5-1.7 1.9-2.6 1.2-2.8 0.3-5.5-1.4-7.8-0.5-0.7 0.7-1.3 1.1-0.6 0.8 0.9 1.4 2 1.8 3.2 2.7-2.3 6.5-2.9 9.5-0.7 0.7 0.5 0 1.6-0.7 1.1-2.7-2-6.1-1.3-8.5 1 0.2 1.3 0.1 2.5-0.4 3.8-0.5 1.3-1.3 2.6-2.4 3.5-1.2 2.7-0.5 6.4 2.1 8 2.6 1.7 5.7 1.1 7.7-1.3q0.1-0.1 0.3-0.1c0.9-3.2 0.4-6.8-2.6-8.6-0.7-0.5 0-1.6 0.7-1.2 3.8 2.4 4.4 7.2 2.8 11.2 0.5 2.6 2.6 5.1 5.4 5.2 3.2 0 5.8-2.3 6.2-5.5z"/>
		<path id="Layer" class="s3" d="m48.7 346.9h38.3v24h-38.3z"/>
		<path id="Layer" class="s4" d="m22.2 258.9c-5 8.2-8 17.9-8 28.2 0 23.2 15 43 35.2 50.6v8.3h36.9v-8.2c20.3-7.4 35.7-27.3 35.7-50.7 0-10.3-3-20-8-28.2 0 0-91.8 0-91.8 0z"/>
		<path id="Layer" class="s2" d="m87.8 347.5h-39.9v-8.8c-3.3-1.3-6.5-3-9.5-4.9l1.6-2.5c3.1 2 6.5 3.7 9.9 5l1 0.3v7.9h33.9v-7.8l1-0.3c20.7-7.6 34.7-27.4 34.7-49.3 0-9.4-2.6-18.6-7.3-26.7h-90.1c-4.8 8.1-7.4 17.3-7.4 26.7 0 2.9 0.3 5.8 0.8 8.7l-3 0.5c-0.5-3.1-0.8-6.2-0.8-9.2 0-10.3 2.9-20.3 8.2-29l0.5-0.7h93.4l0.5 0.8c5.3 8.6 8.2 18.6 8.2 28.9 0 22.8-14.3 43.4-35.7 51.7z"/>
		<path id="Layer" class="s2" d="m29.2 326.5c-3.8-3.9-7.1-8.3-9.7-13l2.6-1.5c2.5 4.6 5.6 8.7 9.2 12.3z"/>
		<path id="Layer" class="s5" d="m96.7 288.8c0 16-12.9 28.9-28.8 28.9-16 0-28.8-12.9-28.8-28.9 0-15.9 12.8-28.8 28.8-28.8 15.9 0 28.8 12.9 28.8 28.8z"/>
		<path id="Layer" class="s2" d="m43.5 345.4h48.8v3h-48.8z"/>
		<path id="Layer" class="s2" d="m43.5 353.8h48.8v3h-48.8z"/>
		<path id="Layer" class="s2" d="m43.5 362.2h48.8v3h-48.8z"/>
		<path id="Layer" class="s6" d="m920.6 51c-7.6 0-14.8 2.3-20.7 6.4-4-4.6-9.4-7.8-15.7-8.8q0.4-2.7 0.4-5.4c0-20.2-16.3-36.5-36.5-36.5-20.1 0-36.5 16.3-36.5 36.5 0 2.9 0.4 5.8 1.1 8.6-2.7-0.6-5.5-0.8-8.4-0.8-20.2 0-36.5 16.8-36.5 36.8h189.3c0-20-16.3-36.8-36.5-36.8z"/>
		<path id="Layer" class="s2" d="m766.3 89.2h66.5v-2.9h-63.5c0.8-18.8 16.2-33.8 35-33.8v-3c-21 0-38 17.2-38 38.2z"/>
		<path id="Layer" class="s2" d="m822.3 19.5c3.2-3.4 6.9-6.2 11.1-8.1l-1.2-2.7c-4.6 2.1-8.7 5.1-12.1 8.8z"/>
		<path id="Layer" class="s2" d="m878.9 26.4l2.6-1.4c-4.6-8.4-12.1-14.8-21.2-17.9l-1 2.9c8.4 2.8 15.3 8.7 19.6 16.4z"/>
		<path id="Layer" class="s2" d="m892.8 89.2h65.8v-1.5c0-21-17-38.2-38-38.2-7.3 0-14.4 2.1-20.4 5.9q-2.9-3-6.5-5l-1.5 2.6c2.5 1.4 4.7 3.2 6.6 5.3l0.9 1.1 1.1-0.8c5.7-4 12.6-6.1 19.8-6.1 18.8 0 34.2 15 35 33.8h-62.8z"/>
		<path id="Layer" class="s2" d="m859.8 86.3h22.6v2.9h-22.6z"/>
		<path id="Layer" class="s6" d="m185.9 15.7l139.8 20.2-30.7 30.7-1.1 1 153.6 153.1 176.3-117.9 268.3 269.2-111.8 0.2-166.7-166.8-176.2 117.8-199.7-199.9-32 32z"/>
		<path id="Layer" class="s6" d="m247.6 156.3v14.9h28.7v-0.5c0-7.9 6.5-14.4 14.4-14.4h0.3c8 0 14.4 6.5 14.4 14.4v201.5h-148.2v-215.9z"/>
		<path id="Layer" fill-rule="evenodd" class="s2" d="m155.7 154.8h93.4v15h25.7c0.5-8.4 7.5-15 15.9-15h0.3c8.8 0 15.9 7.1 15.9 15.9v203h-151.2zm148.2 16c0-7.2-5.8-13-12.9-13h-0.3c-7.1 0-12.9 5.8-12.9 13v2h-31.7v-15h-87.4v213h145.2z"/>
		<path id="Layer" class="s0" d="m291.5 156.3c-6.4 0-15.3 3.7-15.3 15.9l-0.1 184.5c0 8.5-3.6 15.6-13.9 15.6-6.5 0-15.6-1.8-15.6-16.5l-110.4 5.7 0.1-189.3c0-8.8 8.7-15.9 19.4-15.9z"/>
		<path id="Layer" fill-rule="evenodd" class="s2" d="m245.1 357.4l-110.4 5.7 0.1-190.9c0-9.6 9.4-17.4 20.9-17.4h135.8v3c-2.3 0-13.8 0.7-13.8 14.4l-0.1 184.5c0 10.9-5.6 17.1-15.4 17.1-10.8 0-16.6-5.5-17.1-16.4zm-89.4-199.6c-9.8 0-17.9 6.5-17.9 14.4l-0.1 187.8 110.4-5.8v1.6c0 13.5 8 15 14.1 15 10.3 0 12.4-7.6 12.4-14.1l0.1-184.5c0-7.2 2.8-11.7 6.7-14.4z"/>
		<path id="Layer" class="s2" d="m208.7 246.5h57.1v3h-57.1z"/>
		<path id="Layer" class="s2" d="m145.1 246.5h52.9v3h-52.9z"/>
		<path id="Layer" class="s2" d="m208.7 255.2h57.1v3h-57.1z"/>
		<path id="Layer" class="s2" d="m145.1 255.2h52.9v3h-52.9z"/>
		<path id="Layer" class="s2" d="m208.7 263.8h57.1v3h-57.1z"/>
		<path id="Layer" class="s2" d="m145.1 263.8h52.9v3h-52.9z"/>
		<path id="Layer" class="s2" d="m208.7 272.4h57.1v3h-57.1z"/>
		<path id="Layer" class="s2" d="m145.1 272.4h52.9v3h-52.9z"/>
		<path id="Layer" class="s2" d="m208.7 281.1h57.1v3h-57.1z"/>
		<path id="Layer" class="s2" d="m145.1 281.1h52.9v3h-52.9z"/>
		<path id="Layer" class="s2" d="m208.7 289.7h57.1v3h-57.1z"/>
		<path id="Layer" class="s2" d="m145.1 289.7h52.9v3h-52.9z"/>
		<path id="Layer" class="s2" d="m208.7 298.3h57.1v3h-57.1z"/>
		<path id="Layer" class="s2" d="m145.1 298.3h52.9v3h-52.9z"/>
		<path id="Layer" class="s2" d="m208.7 307h57.1v3h-57.1z"/>
		<path id="Layer" class="s2" d="m145.1 307h52.9v3h-52.9z"/>
		<path id="Layer" class="s2" d="m208.7 315.6h57.1v3h-57.1z"/>
		<path id="Layer" class="s2" d="m145.1 315.6h52.9v3h-52.9z"/>
		<path id="Layer" class="s2" d="m208.7 324.2h57.1v3h-57.1z"/>
		<path id="Layer" class="s2" d="m145.1 324.2h52.9v3h-52.9z"/>
		<path id="Layer" class="s2" d="m208.7 332.9h57.1v2.9h-57.1z"/>
		<path id="Layer" class="s2" d="m145.1 332.9h52.9v2.9h-52.9z"/>
		<path id="Layer" class="s2" d="m208.7 341.5h57.1v3h-57.1z"/>
		<path id="Layer" class="s2" d="m145.1 341.5h52.9v3h-52.9z"/>
		<path id="Layer" class="s2" d="m208.7 350.1h57.1v3h-57.1z"/>
		<path id="Layer" class="s2" d="m145.1 350.1h52.9v3h-52.9z"/>
		<path id="Layer" class="s0" d="m103.4 281.7v74.1c0 0-1.6 16.6 21.7 16.6 33.2 0 135.9-0.1 135.9-0.1-2 0-14.4-1.1-14.4-16.5v-56.1c0 0 1.7-18-17-18z"/>
		<path id="Layer" fill-rule="evenodd" class="s2" d="m106 367.3c-4.7-5.2-4.1-11.4-4.1-11.5v-75.6h127.7c6.1 0 10.8 1.8 14 5.3 5.2 5.8 4.5 14 4.5 14.2v56.1c0 14 10.7 15 12.9 15v3c0 0-102.7 0.1-135.9 0.1-8.6 0-15.1-2.3-19.1-6.6zm139.1-11.5v-56.2c0-0.1 0.6-7.3-3.7-12.1-2.7-2.9-6.6-4.3-11.8-4.3h-124.7v72.7c0 0.1-0.4 5.2 3.4 9.4 3.4 3.7 9.1 5.6 16.8 5.6 27.2 0 100.9 0 126.7-0.1-3.5-2.4-6.7-6.9-6.7-15z"/>
		<path id="Layer" class="s2" d="m261.2 373.8q0.2 0 0.2 0l-0.1-3h-0.3l-0.1 3q0.2 0 0.3 0z"/>
		<path id="Layer" class="s6" d="m217.3 301.9c-5.4-17.9 12.3-20.2 12.3-20.2 0 0-109 0-126.2 0-18.3 0-19.8 11.3-18.2 20.2z"/>
		<path id="Layer" fill-rule="evenodd" class="s2" d="m83.7 302.2c-1.2-6.8-0.3-12.2 2.9-16 3.3-4 9-6 16.8-6h126.2l0.2 3c-0.1 0-7 1-10.3 6.1-2 3.1-2.2 7.2-0.7 12.1l0.6 2h-135.4zm133.2-14.6c1.3-1.9 2.9-3.3 4.6-4.4h-118.2c-6.9 0-11.7 1.7-14.5 4.9-2.4 2.9-3.2 7-2.4 12.3h128.9c-1.1-5-0.6-9.3 1.6-12.8z"/>
		<path id="Layer" class="s2" d="m177.3 315.6h57.1v3h-57.1z"/>
		<path id="Layer" class="s2" d="m113.7 315.6h52.9v3h-52.9z"/>
		<path id="Layer" class="s2" d="m177.3 324.2h57.1v3h-57.1z"/>
		<path id="Layer" class="s2" d="m113.7 324.2h52.9v3h-52.9z"/>
		<path id="Layer" class="s2" d="m177.3 332.9h57.1v2.9h-57.1z"/>
		<path id="Layer" class="s2" d="m113.7 332.9h52.9v2.9h-52.9z"/>
		<path id="Layer" class="s2" d="m177.3 341.5h57.1v3h-57.1z"/>
		<path id="Layer" class="s2" d="m113.7 341.5h52.9v3h-52.9z"/>
		<path id="Layer" class="s2" d="m177.3 350.1h57.1v3h-57.1z"/>
		<path id="Layer" class="s2" d="m113.7 350.1h52.9v3h-52.9z"/>
		<path id="Layer" class="s4" d="m239.8 182l13.6-6.6 12.4 6v53.9h-120.7v-62.1l13.4 8.7 13.9-6.7 13.4 6.8h13.4l13.5-6.6 13.8 13.2z"/>
		<path id="Layer" class="s7" d="m145.1 235.3v-46.5l13.2 6.8 14-13.7 16 15.3 25.6-8.4 12.4 14.4 13.5-14.6 13.8 6.8 12.2-6v45.9z"/>
		<path id="Layer" class="s3" d="m240 208.6l13.6 7 12.2-6.3v26h-120.7v-38.7l13.6-8 13.4 6.6 12.8 14.7 14.5-7.9 13.5-6.5 13.6 19.9z"/>
		<path id="Layer" class="s1" d="m145.1 235.3v-27.9l13.4 4.5 13.6-9.7 13.3 13.3 13.8-6.7 7.9 11.5 29 2.6 17.3-14.2 12.4 6.1v20.5z"/>
		<path id="Layer" class="s3" d="m691.2 42.3h14.3v330h-14.3z"/>
		<path id="Layer" class="s0" d="m557.1 68.3h282.5v181.5h-282.5z"/>
		<path id="Layer" fill-rule="evenodd" class="s2" d="m638.7 207.2c-26.5 0-48.1-21.6-48.1-48.2 0-25.3 19.7-46.4 44.9-48.1l1.6-0.1v49.8h49.8l-0.1 1.6c-1.7 25.2-22.8 45-48.1 45zm-4.6-93.2c-22.9 2.4-40.5 21.8-40.5 45 0 24.9 20.2 45.2 45.1 45.2 23.2 0 42.6-17.7 44.9-40.6h-49.5z"/>
		<path id="Layer" class="s7" d="m641.9 154v-38.5c14.9 1 27.7 9.7 34.7 22z"/>
		<path id="Layer" class="s4" d="m682.2 155.9h-29.7l26.8-12.8q2.4 6.1 2.9 12.8z"/>
		<path id="Layer" class="s2" d="m543.9 66.8h308.9v3h-308.9z"/>
		<path id="Layer" class="s2" d="m747.8 108.4h5.9v3h-5.9z"/>
		<path id="Layer" class="s2" d="m731.5 108.4h5.9v3h-5.9z"/>
		<path id="Layer" class="s2" d="m715.2 108.4h5.9v3h-5.9z"/>
		<path id="Layer" class="s2" d="m715.2 119.6h91.3v3h-91.3z"/>
		<path id="Layer" class="s2" d="m715.2 130.6h91.3v3h-91.3z"/>
		<path id="Layer" class="s2" d="m715.2 141.6h41.7v3h-41.7z"/>
		<path id="Layer" class="s2" d="m715.2 152.5h91.3v3h-91.3z"/>
		<path id="Layer" class="s2" d="m543.9 248.3h308.9v3h-308.9z"/>
		<path id="Layer" class="s2" d="m746.6 187.2l28.4 7.3 46.4-19.9 1.2 2.8-47.3 20.3-28.5-7.3-42.7 16.7-1.1-2.8z"/>
		<path id="Layer" class="s4" d="m779.9 196.1c0 2.6-2.1 4.7-4.7 4.7-2.7 0-4.8-2.1-4.8-4.7 0-2.6 2.1-4.7 4.8-4.7 2.6 0 4.7 2.1 4.7 4.7z"/>
		<path id="Layer" class="s4" d="m826.7 176c0 2.6-2.1 4.7-4.7 4.7-2.6 0-4.7-2.1-4.7-4.7 0-2.6 2.1-4.7 4.7-4.7 2.6 0 4.7 2.1 4.7 4.7z"/>
		<path id="Layer" class="s4" d="m751.5 188.8c0 2.6-2.2 4.7-4.8 4.7-2.6 0-4.7-2.1-4.7-4.7 0-2.6 2.1-4.7 4.7-4.7 2.6 0 4.8 2.1 4.8 4.7z"/>
		<path id="Layer" class="s4" d="m708.3 205.7c0 2.6-2.1 4.7-4.7 4.7-2.7 0-4.8-2.1-4.8-4.7 0-2.6 2.1-4.7 4.8-4.7 2.6 0 4.7 2.1 4.7 4.7z"/>
		<path id="Layer" class="s2" d="m838.1 68.3h3v181.5h-3z"/>
		<path id="Layer" class="s2" d="m555.6 68.3h3v181.5h-3z"/>
		<path id="Layer" class="s1" d="m578.5 45.6c0-0.5-54.6-43.9-54.6-43.9 0 0-54.6 43.4-54.6 43.9v-0.2h109.2z"/>
		<path id="Layer" class="s4" d="m469.3 45.4h109.2v15.9h-109.2z"/>
		<path id="Layer" class="s7" d="m578.5 93.9v80.2h28.2c12.1 0 19.2-13.7 12.2-23.5z"/>
		<path id="Layer" class="s7" d="m441.6 174.1h27.7v-80.2l-39.8 56.8c-7 9.8 0.1 23.4 12.1 23.4z"/>
		<path id="Layer" fill-rule="evenodd" class="s2" d="m606.7 175.6h-29.7v-86.4l43.1 60.5c3.6 5.1 4.1 11.5 1.2 17-2.9 5.6-8.3 8.9-14.6 8.9zm-26.7-3h26.7c5.1 0 9.6-2.7 11.9-7.2 2.4-4.6 2-9.8-1-13.9l-37.6-52.9z"/>
		<path id="Layer" fill-rule="evenodd" class="s2" d="m470.8 175.6h-29.2c-6.2 0-11.6-3.3-14.5-8.8-2.9-5.5-2.4-11.9 1.1-17l42.6-60.6zm-3-77.1l-37.1 53c-2.9 4.1-3.3 9.3-0.9 13.8 2.3 4.6 6.7 7.3 11.8 7.3h26.2z"/>
		<path id="Layer" class="s0" d="m469.3 61.3v140.9c0 16.8 12.6 29.8 29.4 29.8h-0.1v11.2h49.5v-11.2h0.8c16.8 0 29.6-13 29.6-29.8v-140.9z"/>
		<path id="Layer" class="s1" d="m469.4 202.5c0.1 16.6 12.6 29.4 29.3 29.4h-0.1v11.3h49.5v-11.3h0.8c16.7 0 29.5-12.8 29.6-29.4z"/>
		<path id="Layer" fill-rule="evenodd" class="s2" d="m578.5 47.1h-109.2c-0.6 0-1.2-0.4-1.4-1-0.2-0.6 0-1.3 0.5-1.7l54.6-43.9c0.5-0.5 1.3-0.5 1.9 0l54.6 43.9c0.5 0.4 0.6 1.1 0.4 1.7-0.2 0.6-0.7 1-1.4 1zm-104.9-3h100.7l-50.4-40.5z"/>
		<path id="Layer" fill-rule="evenodd" class="s2" d="m523.9 143.4c-17.7 0-32.1-14.4-32.1-32.1 0-17.7 14.4-32.1 32.1-32.1 17.7 0 32.1 14.4 32.1 32.1 0 17.7-14.4 32.1-32.1 32.1zm0-61.2c-16 0-29.1 13-29.1 29.1 0 16 13.1 29.1 29.1 29.1 16.1 0 29.1-13.1 29.1-29.1 0-16.1-13-29.1-29.1-29.1z"/>
		<path id="Layer" class="s6" d="m477.9 197.4c-2.8 0-5-2.2-5-5 0-2.8 2.2-5 5-5 2.8 0 5 2.2 5 5 0 2.8-2.2 5-5 5z"/>
		<path id="Layer" class="s6" d="m493.5 197.4c-2.8 0-5.1-2.2-5.1-5 0-2.8 2.3-5 5.1-5 2.7 0 5 2.2 5 5 0 2.8-2.3 5-5 5z"/>
		<path id="Layer" class="s6" d="m509 197.4c-2.7 0-5-2.2-5-5 0-2.8 2.3-5 5-5 2.8 0 5.1 2.2 5.1 5 0 2.8-2.3 5-5.1 5z"/>
		<path id="Layer" class="s6" d="m524.6 197.4c-2.8 0-5-2.2-5-5 0-2.8 2.2-5 5-5 2.8 0 5 2.2 5 5 0 2.8-2.2 5-5 5z"/>
		<path id="Layer" class="s6" d="m545.2 192.4c0 2.8-2.3 5-5 5-2.8 0-5.1-2.2-5.1-5 0-2.8 2.3-5 5.1-5 2.7 0 5 2.2 5 5z"/>
		<path id="Layer" class="s6" d="m560.7 192.4c0 2.8-2.2 5-5 5-2.8 0-5-2.2-5-5 0-2.8 2.2-5 5-5 2.8 0 5 2.2 5 5z"/>
		<path id="Layer" class="s6" d="m576.3 192.4c0 2.8-2.3 5-5 5-2.8 0-5-2.2-5-5 0-2.8 2.2-5 5-5 2.7 0 5 2.2 5 5z"/>
		<path id="Layer" class="s7" d="m545.3 111.3c0 11.8-9.6 21.3-21.4 21.3-11.8 0-21.3-9.5-21.3-21.3 0-11.8 9.5-21.4 21.3-21.4 11.8 0 21.4 9.6 21.4 21.4z"/>
		<path id="Layer" fill-rule="evenodd" class="s2" d="m549.6 244.7h-52.5v-11.3c-6.1-0.3-27.7-3.5-29.2-31.1v-142.5h112.1v142.4c0 17.3-13.3 30.9-30.4 31.2 0 0 0 11.3 0 11.3zm-49.5-3h46.5v-11.2h2.3c16 0 28.1-12.2 28.1-28.3v-139.4h-106.2v139.4c1.6 27.5 25 28.3 27.6 28.3l1.7-0.1z"/>
		<path id="Layer" class="s2" d="m579.7 116.8l22.6 32.5-2.5 1.7-22.5-32.5z"/>
		<path id="Layer" class="s2" d="m468.7 116.8l2.4 1.7-22.5 32.5-2.5-1.7z"/>
		<path id="Layer" fill-rule="evenodd" class="s2" d="m908.5 189.9h-11.8c-1.1 0-2.2-0.4-3-1.2-0.8-0.8-1.2-1.9-1.2-3v-5.6q-4.7-1.3-8.9-3.7l-3.9 4c-1.6 1.6-4.4 1.6-6 0l-8.3-8.3c-1.7-1.7-1.7-4.4 0-6l3.9-4q-2.4-4.2-3.7-8.8h-5.6c-2.3 0-4.2-1.9-4.2-4.3v-11.8c0-2.3 1.9-4.2 4.2-4.2h5.7c0.8-3.1 2-6.1 3.6-8.8l-4-4c-1.6-1.7-1.6-4.4 0-6l8.3-8.3c1.6-1.6 4.4-1.6 6 0l4 3.9q4.2-2.4 8.8-3.7v-5.6c0-2.3 1.9-4.2 4.3-4.2h11.7c2.4 0 4.3 1.9 4.3 4.2v5.7q4.6 1.2 8.8 3.6l4-4c1.6-1.6 4.4-1.6 6 0l8.3 8.3c1.7 1.7 1.7 4.4 0 6l-4 4q2.4 4.2 3.7 8.9h5.7c2.3 0 4.2 1.9 4.2 4.2v11.8c0 2.3-1.9 4.2-4.2 4.2h-5.7c-0.8 3.1-2 6.1-3.6 8.9l4 4c0.8 0.7 1.2 1.8 1.2 2.9 0 1.2-0.4 2.2-1.2 3l-8.4 8.4c-1.6 1.6-4.4 1.6-5.9 0l-4-4q-4.2 2.4-8.9 3.7v5.6c0 2.3-1.9 4.2-4.2 4.2zm-25.3-17.2l1 0.6c3.1 1.9 6.5 3.3 10.1 4.1l1.2 0.3v8q0 0.5 0.4 0.9c0.2 0.2 0.5 0.3 0.8 0.3h11.8c0.7 0 1.2-0.5 1.2-1.2v-8l1.2-0.2c3.6-0.9 7-2.3 10.1-4.3l1-0.6 5.7 5.6c0.4 0.5 1.2 0.5 1.7 0.1l8.4-8.4q0.3-0.4 0.3-0.9 0-0.5-0.3-0.8l-5.7-5.7 0.6-1c1.9-3.1 3.3-6.5 4.2-10.1l0.3-1.2h8c0.6 0 1.2-0.5 1.2-1.2v-11.8c0-0.7-0.6-1.3-1.2-1.3h-8l-0.3-1.1c-0.8-3.6-2.3-7-4.2-10.1l-0.7-1 5.7-5.7c0.5-0.5 0.5-1.3 0-1.7l-8.3-8.4c-0.5-0.4-1.3-0.4-1.8 0l-5.6 5.7-1-0.7c-3.2-1.9-6.6-3.3-10.2-4.1l-1.1-0.3v-8c0-0.7-0.6-1.2-1.3-1.2h-11.7c-0.7 0-1.3 0.5-1.3 1.2v8l-1.1 0.2c-3.6 0.9-7 2.4-10.1 4.3l-1 0.6-0.9-0.8-4.8-4.8c-0.5-0.5-1.3-0.5-1.7 0l-8.4 8.3c-0.5 0.5-0.5 1.3 0 1.8l5.7 5.6-0.7 1c-1.9 3.1-3.3 6.6-4.1 10.2l-0.3 1.1h-8c-0.7 0-1.2 0.6-1.2 1.2v11.8c0 0.7 0.5 1.3 1.2 1.3h8l0.3 1.1c0.8 3.6 2.3 7 4.2 10.1l0.6 1.1-5.6 5.6c-0.5 0.5-0.5 1.3 0 1.8l8.3 8.3c0.5 0.5 1.3 0.5 1.8 0z"/>
		<path id="Layer" fill-rule="evenodd" class="s4" d="m902.6 173.4c16.7 0 30.2-13.6 30.2-30.3 0-16.7-13.5-30.3-30.2-30.3-16.7 0-30.3 13.6-30.3 30.3 0 16.7 13.6 30.3 30.3 30.3z"/>
		<path id="Layer" class="s2" d="m902.6 167.5v-3q2.1 0 4.1-0.3l0.5 2.9q-2.3 0.4-4.6 0.4zm-6.2-0.8q-2.3-0.6-4.4-1.6l1.3-2.7q1.8 0.9 3.8 1.4zm16.8-1.5l-1.3-2.7q1.9-0.9 3.5-2.2l1.8 2.4q-1.9 1.4-4 2.5zm-26.4-3.5q-1.8-1.5-3.2-3.4l2.3-1.8q1.3 1.6 2.9 2.9zm34.9-3.3l-2.4-1.8q1.3-1.7 2.3-3.5l2.6 1.4q-1.1 2.1-2.5 3.9zm-41.4-5.4q-1-2.2-1.5-4.4l2.9-0.7q0.5 2 1.3 3.9zm46.1-4.4l-2.9-0.6q0.5-2 0.5-4.1l3 0.1q0 2.4-0.6 4.6zm-45.2-6.2l-3-0.1q0.1-2.3 0.6-4.6l3 0.6q-0.5 2.1-0.6 4.1zm42.3-4q-0.4-2-1.2-3.9l2.7-1.2q1 2.2 1.5 4.5zm-39.9-5.2l-2.7-1.4q1.1-2.1 2.6-4l2.3 1.9q-1.3 1.6-2.2 3.5zm35.8-3.4q-1.3-1.6-2.9-3l2-2.3q1.7 1.6 3.2 3.4zm-29.6-3.9l-1.8-2.4q1.9-1.4 4-2.4l1.3 2.7q-1.8 0.9-3.5 2.1zm22.2-2.1q-1.9-0.9-3.9-1.4l0.8-2.9q2.3 0.6 4.4 1.7zm-13.5-1.8l-0.5-3q2.3-0.4 4.6-0.4l0.1 3h-0.1c-1.4 0-2.7 0.1-4.1 0.4z"/>
		<path id="Layer" fill-rule="evenodd" class="s2" d="m196.6 148.6h-11.8c-1.1 0-2.2-0.5-3-1.3-0.8-0.8-1.2-1.8-1.2-3v-5.6c-3.1-0.8-6.1-2.1-8.9-3.6l-4 3.9c-1.6 1.6-4.3 1.6-5.9 0l-8.4-8.3c-1.6-1.7-1.6-4.3 0-6l4-4q-2.4-4.2-3.7-8.8h-5.6c-2.3 0-4.2-1.9-4.2-4.2v-11.8c0-2.4 1.9-4.3 4.2-4.3h5.6q1.3-4.6 3.7-8.8l-4-4c-1.7-1.7-1.7-4.3 0-6l8.3-8.3c1.6-1.6 4.4-1.6 6 0l4 4q4.2-2.5 8.8-3.7v-5.7c0-2.3 1.9-4.2 4.2-4.2h11.8c2.3 0 4.2 1.9 4.2 4.2v5.7q4.7 1.2 8.9 3.6l4-4c1.6-1.6 4.4-1.6 6 0l8.3 8.4c1.6 1.6 1.6 4.3 0 6l-4 3.9q2.4 4.2 3.7 8.9h5.6c2.4 0 4.2 1.9 4.2 4.2v11.8c0 2.3-1.8 4.2-4.2 4.2h-5.6q-1.3 4.7-3.6 8.9l3.9 4c0.8 0.8 1.3 1.8 1.3 3 0 1.1-0.5 2.2-1.3 2.9l-8.3 8.4c-1.6 1.6-4.4 1.6-6 0l-4-4q-4.1 2.4-8.8 3.7v5.6c0 2.4-1.9 4.3-4.2 4.3zm-25.4-17.3l1.1 0.6c3.1 1.9 6.5 3.3 10.1 4.2l1.2 0.2v8c0 0.4 0.1 0.7 0.3 0.9 0.3 0.2 0.6 0.4 0.9 0.4h11.8c0.7 0 1.2-0.6 1.2-1.3v-7.9l1.2-0.3c3.5-0.9 6.9-2.3 10.1-4.3l1-0.6 5.6 5.7c0.5 0.4 1.3 0.4 1.8 0l8.3-8.4q0.4-0.3 0.4-0.8 0-0.6-0.4-0.9l-5.6-5.6 0.6-1c1.9-3.2 3.3-6.6 4.2-10.2l0.2-1.2h8c0.7 0 1.3-0.5 1.3-1.2v-11.8c0-0.7-0.6-1.2-1.3-1.2h-7.9l-0.3-1.2c-0.9-3.6-2.3-7-4.3-10.1l-0.6-1 5.7-5.7c0.5-0.4 0.5-1.2 0-1.7l-8.4-8.4c-0.4-0.4-1.2-0.4-1.7 0l-5.6 5.7-1-0.6c-3.2-2-6.6-3.4-10.2-4.2l-1.1-0.3v-8c0-0.6-0.6-1.2-1.3-1.2h-11.8c-0.6 0-1.2 0.6-1.2 1.2v8l-1.1 0.3c-3.6 0.8-7 2.3-10.2 4.2l-0.9 0.6-0.9-0.8-4.8-4.8c-0.5-0.5-1.3-0.5-1.8 0l-8.3 8.3c-0.5 0.5-0.5 1.3 0 1.8l5.6 5.6-0.6 1c-1.9 3.2-3.3 6.6-4.1 10.2l-0.3 1.1h-8c-0.7 0-1.2 0.6-1.2 1.3v11.8c0 0.6 0.5 1.2 1.2 1.2h7.9l0.3 1.1c0.9 3.6 2.3 7 4.3 10.2l0.6 1-5.7 5.6c-0.4 0.5-0.4 1.3 0 1.8l8.4 8.3c0.4 0.5 1.3 0.5 1.7 0z"/>
		<path id="Layer" fill-rule="evenodd" class="s1" d="m190.7 132c16.7 0 30.2-13.5 30.2-30.3 0-16.7-13.5-30.3-30.2-30.3-16.8 0-30.3 13.6-30.3 30.3 0 16.8 13.5 30.3 30.3 30.3z"/>
		<path id="Layer" class="s2" d="m190.7 126.2l-0.1-3h0.1q2 0 4-0.4l0.6 2.9q-2.3 0.5-4.6 0.5zm-6.3-0.8q-2.2-0.6-4.4-1.7l1.3-2.7q1.9 0.9 3.9 1.5zm16.8-1.6l-1.3-2.7q1.8-0.9 3.5-2.1l1.8 2.3q-1.9 1.5-4 2.5zm-26.4-3.5q-1.8-1.5-3.3-3.4l2.4-1.8q1.3 1.6 2.8 2.9zm34.9-3.3l-2.3-1.8q1.3-1.6 2.2-3.5l2.7 1.4q-1.1 2.1-2.6 3.9zm-41.4-5.4q-0.9-2.1-1.4-4.4l2.9-0.7q0.4 2 1.3 3.9zm46.1-4.3l-2.9-0.7q0.4-2 0.5-4.1l3 0.1q-0.1 2.4-0.6 4.7zm-45.2-6.3l-3-0.1q0.1-2.3 0.6-4.6l2.9 0.7q-0.4 2-0.5 4zm42.3-4q-0.4-2-1.3-3.9l2.8-1.2q0.9 2.2 1.4 4.5zm-39.9-5.2l-2.6-1.4q1.1-2.1 2.5-4l2.4 1.9q-1.3 1.6-2.3 3.5zm35.8-3.4q-1.3-1.6-2.8-3l1.9-2.3q1.8 1.6 3.3 3.4zm-29.6-3.9l-1.8-2.4q1.9-1.4 4-2.4l1.3 2.7q-1.9 0.9-3.5 2.1zm22.1-2.1q-1.8-0.9-3.8-1.4l0.8-2.9q2.2 0.6 4.3 1.7zm-13.4-1.8l-0.6-3q2.3-0.4 4.7-0.4l0.1 3h-0.2c-1.3 0-2.7 0.1-4 0.4z"/>
		<path id="Layer" class="s3" d="m902.1 218.8h-3.2c-0.4-1.7-1.1-3.4-2-4.8l2.2-2.3c0.5-0.5 0.5-1.3 0-1.8l-3.8-3.8c-0.5-0.5-1.3-0.5-1.8 0l-2.2 2.2c-1.6-0.9-3.2-1.6-4.9-2v-3.1c0-0.7-0.6-1.3-1.3-1.3h-5.4c-0.7 0-1.3 0.6-1.3 1.3v3.1c-1.8 0.4-3.4 1.1-4.9 2l-2.2-2.2c-0.5-0.5-1.3-0.5-1.8 0l-3.8 3.9c-0.5 0.5-0.5 1.3 0 1.7l2.2 2.3c-1 1.5-1.6 3.2-2 4.9h-3.2c-0.7 0-1.2 0.5-1.2 1.2v5.5c0 0.7 0.5 1.2 1.2 1.2h3.2c0.4 1.8 1.1 3.4 2 4.9l-2.2 2.2c-0.5 0.5-0.5 1.3 0 1.8l3.8 3.9c0.5 0.5 1.3 0.5 1.8 0l2.2-2.2q2.4 1.4 4.9 2v3.1c0 0.7 0.6 1.3 1.3 1.3h5.4c0.7 0 1.3-0.6 1.3-1.3v-3.1c1.7-0.4 3.4-1.1 4.9-2.1v0.1l2.2 2.2c0.5 0.5 1.3 0.5 1.8 0l3.8-3.9c0.5-0.5 0.5-1.3 0-1.8l-2.2-2.2c1-1.5 1.6-3.2 2-4.9h3.2c0.7 0 1.2-0.6 1.2-1.2v-5.5c0-0.7-0.5-1.3-1.2-1.3z"/>
		<path id="Layer" class="s2" d="m882.4 234.9l-0.1-3h0.1q2.1 0 3.9-0.8l1.3 2.7q-2.5 1.1-5.2 1.1zm-6.9-2.1c-1.4-1-2.7-2.4-3.6-3.9l2.6-1.5c0.7 1.1 1.6 2.2 2.7 2.9zm17.3-3.8l-2.6-1.5q1.1-1.8 1.3-3.9l2.9 0.3q-0.2 2.7-1.6 5.1zm-19.5-6.8l-2.9-0.3q0.2-2.7 1.5-5.1l2.6 1.5q-1 1.8-1.2 3.9zm17-3.8c-0.6-1.2-1.6-2.2-2.7-3l1.7-2.4c1.5 1 2.7 2.4 3.6 3.9zm-11.8-3.7l-1.3-2.7q2.4-1.2 5.2-1.2l0.1 1.5-0.1 1.5q-2.1 0-3.9 0.9z"/>
		<path id="Layer" class="s3" d="m438.9 76.1h-3.1c-0.5-1.8-1.2-3.4-2.1-4.9l2.2-2.2c0.5-0.5 0.5-1.3 0-1.8l-3.8-3.9c-0.5-0.5-1.3-0.5-1.8 0l-2.2 2.3q-2.3-1.4-4.9-2v-3.2c0-0.7-0.6-1.3-1.3-1.3h-5.4c-0.7 0-1.3 0.6-1.3 1.3v3.1c-1.7 0.5-3.4 1.2-4.9 2.1l-2.2-2.2c-0.5-0.5-1.3-0.5-1.8 0l-3.8 3.8c-0.5 0.5-0.5 1.3 0 1.8l2.2 2.2c-0.9 1.6-1.6 3.2-2 4.9h-3.2c-0.7 0-1.2 0.6-1.2 1.3v5.4c0 0.7 0.5 1.3 1.2 1.3h3.2c0.4 1.7 1.1 3.4 2 4.9l-2.2 2.2c-0.5 0.5-0.5 1.3 0 1.8l3.9 3.8c0.4 0.5 1.2 0.5 1.7 0l2.2-2.2q2.4 1.4 4.9 2v3.2c0 0.7 0.6 1.2 1.3 1.2h5.4c0.7 0 1.3-0.5 1.3-1.2v-3.2c1.8-0.4 3.4-1.1 4.9-2l2.2 2.2c0.5 0.5 1.3 0.5 1.8 0l3.8-3.8c0.5-0.5 0.5-1.3 0-1.8l-2.2-2.2c1-1.6 1.6-3.2 2-4.9h3.2c0.7 0 1.2-0.6 1.2-1.3v-5.4c0-0.7-0.5-1.3-1.2-1.3z"/>
		<path id="Layer" class="s2" d="m419.2 92.2v-3q2.1 0 3.9-0.9l1.3 2.7q-2.5 1.2-5.2 1.2zm-6.8-2.1c-1.5-1.1-2.8-2.4-3.7-4l2.6-1.5c0.7 1.2 1.6 2.2 2.8 3zm17.2-3.8l-2.5-1.6q1-1.8 1.2-3.8l3 0.2q-0.3 2.8-1.7 5.2zm-19.4-6.9l-3-0.2q0.2-2.8 1.6-5.1l2.6 1.5q-1.1 1.8-1.2 3.8zm16.9-3.7c-0.6-1.2-1.6-2.3-2.7-3l1.7-2.5c1.5 1 2.8 2.4 3.6 4zm-11.8-3.8l-1.3-2.7q2.5-1.1 5.2-1.1l0.1 1.5-0.1 1.4q-2.1 0-3.9 0.9z"/>
		<path id="Layer" class="s2" d="m326.5 112.8l0.1-3.2q-1.9-0.1-3.9-0.3l-0.4 3.2q2.1 0.3 4.2 0.3z"/>
		<path id="Layer" class="s2" d="m304.9 107.2l1.5-2.9c2.3 1.2 4.7 2.2 7.2 3l-1 3.1c-2.7-0.8-5.2-1.9-7.7-3.2zm-10.2-6.8q-2.3-2-4.3-4.2l2.4-2.2q1.9 2.1 4 3.9 0.9 0.7 1.7 1.4l-2 2.5q-0.9-0.7-1.8-1.4zm-14-19.6l3-1.2c0.9 2.4 2.1 4.7 3.5 6.9l-2.8 1.7c-1.4-2.3-2.7-4.8-3.7-7.4zm-3.6-15.5q-0.1-1.2-0.1-2.4h3.2q0 1.1 0.1 2.2 0.2 2.8 0.8 5.5l-3.2 0.6q-0.6-2.9-0.8-5.9zm0.6-12.3c0.5-2.7 1.2-5.4 2.1-8.1l3 1.1c-0.8 2.4-1.5 5-1.9 7.5zm93.3-13.3l2.9-1.5c1.2 2.5 2.3 5.1 3.1 7.7l-3.1 1c-0.8-2.5-1.8-4.9-2.9-7.2zm-87.1-3.8c1.4-2.4 3-4.7 4.7-6.8l2.5 2c-1.6 2-3.1 4.2-4.4 6.4zm76.7-9.7l2.2-2.4c2 1.8 3.9 3.9 5.7 6l-2.6 2.1c-1.6-2.1-3.4-4-5.3-5.7zm-64.9-4.2c2.1-1.8 4.4-3.4 6.8-4.7l1.6 2.8c-2.2 1.3-4.4 2.8-6.4 4.4zm50.5-4.9l1.2-3c2.6 1 5.1 2.2 7.5 3.7l-1.7 2.8c-2.2-1.4-4.6-2.6-7-3.5zm-34.6-4c2.6-0.9 5.3-1.6 8.1-2l0.5 3.2c-2.6 0.4-5.1 1.1-7.5 1.9zm17.9 0.5l0.1-3.3c2.7 0.1 5.5 0.4 8.2 0.9l-0.6 3.2c-2.5-0.5-5.1-0.8-7.7-0.8z"/>
		<path id="Layer" class="s2" d="m376.2 60l3.2-0.1v-0.6q0-0.7-0.1-1.5 0-1-0.2-2.1l-3.2 0.4q0.1 1 0.2 2 0 0.6 0.1 1.3z"/>
		<path id="Layer" fill-rule="evenodd" class="s2" d="m364.5 85.6q-1.5 2.3-3.3 4.4-1.4 1.7-3.1 3.2l-0.9 0.8c-2.7 2.5-5.7 4.6-9 6.3-5.2 2.7-10.9 4.3-16.8 4.7-11.6 0.9-22.8-2.9-31.6-10.5-8.9-7.6-14.2-18.2-15-29.8-0.9-11.4 2.9-22.8 10.4-31.6 7.6-8.8 18.2-14.2 29.8-15 11.6-0.9 22.9 2.9 31.7 10.5 8.8 7.6 14.1 18.2 14.9 29.8q0.2 1.6 0.2 3.2c0 8.6-2.5 16.9-7.3 24zm-76.5-21.1c0.8 10.7 5.7 20.5 13.9 27.6 8.1 7 18.5 10.5 29.2 9.7 5.5-0.4 10.8-1.9 15.6-4.4q4.1-2.1 7.6-5.1l0.8-0.7q1.9-1.7 3.7-3.8 1.6-1.9 3-4c5-7.4 7.3-16.2 6.6-25.2-0.8-10.7-5.7-20.5-13.9-27.6-8.1-7-18.5-10.4-29.2-9.7-10.8 0.8-20.6 5.8-27.6 14-6.3 7.3-9.8 16.6-9.8 26.2q0 1.5 0.1 3z"/>
		<path id="Layer" class="s2" d="m359.6 89.7l6 6.1-2.3 2.3-6-6.1z"/>
		<path id="Layer" class="s4" d="m370.8 90.6l45.3 45.3-12.7 12.7-45.2-45.3z"/>
		<path id="Layer" class="s1" d="m327.8 61.7l-24.4-19.8c8.7-10.8 22.6-14.6 35.6-9.6z"/>
		<path id="Layer" class="s7" d="m327.8 61.7l24.4 19.7c-10.9 13.5-30.6 15.6-44.1 4.7-13.5-10.9-15.6-30.6-4.7-44.2z"/>
		<path id="Layer" class="s4" d="m327.8 61.7l26.3-17.2c7.6 11.6 6.8 26-1.9 36.9z"/>
		<path id="Layer" fill-rule="evenodd" class="s2" d="m328.3 63c-0.4 0-0.7-0.1-1-0.3-0.5-0.4-0.7-1.1-0.4-1.7l13.7-33.4c0.3-0.8 1.2-1.2 2-0.8 7.6 3.1 13.3 7.9 17.6 15 0.5 0.7 0.3 1.6-0.4 2.1l-30.7 18.9q-0.4 0.2-0.8 0.2zm14.5-32.9l-11.4 27.7 25.5-15.7c-3.6-5.4-8.2-9.3-14.1-12z"/>
		<path id="Layer" fill-rule="evenodd" class="s7" d="m876.5 279.8c0 43.5-47.1 91.1-47.1 91.1 0 0-47.2-46.8-47.2-91.1 0-29.1 24.6-46.6 47.1-46.6 21.2 0 47.2 17.5 47.2 46.6zm-22.3-0.1c0-13.7-11.4-25.2-25.2-25.2-13.7 0-25.1 11.5-25.1 25.2 0 13.7 11.4 25.2 25.1 25.2 13.8 0 25.2-11.5 25.2-25.2z"/>
		<path id="Layer" class="s2" d="m826.7 313.7q-3.1-0.3-6.1-1.1l0.8-2.9q2.7 0.8 5.6 1zm7.8-0.3l-0.5-2.9q2.9-0.5 5.6-1.4l0.9 2.8c-1.9 0.7-4 1.2-6 1.5zm-21.2-3.7c-1.9-1-3.6-2.1-5.2-3.4l1.8-2.4q2.3 1.8 4.8 3.2zm34.3-1.2l-1.6-2.5q2.4-1.5 4.5-3.5l2.1 2.2q-2.3 2.2-5 3.8zm-45-7.8q-1.9-2.5-3.4-5.3l2.7-1.4q1.3 2.6 3.1 4.8zm55-1.8l-2.5-1.7q1.6-2.4 2.8-5l2.7 1.2q-1.2 2.9-3 5.5zm-61.2-10.7q-0.8-3-1-6.2l3-0.2q0.2 2.9 0.9 5.6zm66.5-2.2l-2.9-0.6q0.5-2.8 0.5-5.6 0-1.4-0.1-2.8l3-0.3q0.1 1.5 0.1 3.1 0 3.1-0.6 6.2zm-64.2-11.2l-2.9-0.5q0.5-3.1 1.5-6.1l2.8 1q-0.9 2.7-1.4 5.6zm60.2-4.8q-0.9-2.7-2.2-5.2l2.6-1.5q1.5 2.8 2.5 5.8zm-55.7-7.2l-2.5-1.6q1.7-2.6 3.9-4.9l2.2 2c-1.3 1.4-2.5 2.9-3.6 4.5zm49.3-3.9q-1.9-2.1-4.2-3.8l1.8-2.4q2.5 1.9 4.6 4.2zm-40.3-5.2l-1.6-2.4q2.6-1.8 5.5-3l1.2 2.8q-2.7 1.1-5.1 2.6zm30-2.3q-2.6-1.2-5.4-1.9l0.8-2.9q3 0.8 5.9 2.1zm-18.2-2.4l-0.5-2.9q2.9-0.5 5.8-0.5 0 0 0 0h0.5l-0.1 3h-0.4q0 0 0 0-2.7 0-5.3 0.4z"/>
		<path id="Layer" fill-rule="evenodd" class="s4" d="m829.4 300.7c11.7 0 21.1-9.5 21.1-21.2 0-11.7-9.4-21.2-21.1-21.2-11.7 0-21.2 9.5-21.2 21.2 0 11.7 9.5 21.2 21.2 21.2z"/>
		<path id="Layer" class="s2" d="m831.1 290.5h-2.4c-2.8 0-5.1-2.3-5.1-5.1v-1.1h2.9v1.1c0 1.2 1 2.1 2.2 2.1h2.4c1.1 0 2-0.9 2-1.9v-2.3c0-1.3-1-2.3-2.3-2.3h-3.2c-2.7 0-4.9-2.2-4.9-4.9v-1.1c0-3.3 2.7-5.9 5.9-5.9h1.6c2.7 0 5 2.3 5 5v1.8h-3v-1.8c0-1.1-0.9-2-2-2h-1.6c-1.6 0-2.9 1.3-2.9 2.9v1.1c0 1.1 0.9 1.9 1.9 1.9h3.2c2.9 0 5.2 2.4 5.2 5.3v2.2c0 2.8-2.2 5-4.9 5z"/>
		<path id="Layer" class="s2" d="m827.9 289h3v4.8h-3z"/>
		<path id="Layer" class="s2" d="m827.9 265.2h3v5.4h-3z"/>
		<path id="Layer" class="s2" d="m959 159.1h28.4v2.9h-28.4z"/>
		<path id="Layer" class="s2" d="m0 347.2h28.4v3h-28.4z"/>
		<path id="Layer" class="s2" d="m24.9 195.9h28.4v3h-28.4z"/>
		<path id="Layer" class="s2" d="m65.1 71.1h28.4v3h-28.4z"/>
		<path id="Layer" class="s2" d="m98.9 71.1h12.8v3h-12.8z"/>
		<path id="Layer" fill-rule="evenodd" class="s2" d="m123.5 79c-3.5 0-6.4-2.9-6.4-6.4 0-3.5 2.9-6.3 6.4-6.3 3.5 0 6.4 2.8 6.4 6.3 0 3.5-2.9 6.4-6.4 6.4zm0-9.8c-1.9 0-3.4 1.6-3.4 3.4 0 1.9 1.5 3.4 3.4 3.4 1.9 0 3.4-1.5 3.4-3.4 0-1.8-1.5-3.4-3.4-3.4z"/>
		<path id="Layer" fill-rule="evenodd" class="s2" d="m667.4 33.7c-1.2 0-2.2-0.4-3-1.2l-3.1-3.1c-1.6-1.6-1.6-4.3 0-6l3.1-3c1.6-1.6 4.4-1.6 6 0l3 3c1.7 1.7 1.7 4.4 0 6l-3 3.1c-0.8 0.8-1.9 1.2-3 1.2zm0-11.6c-0.4 0-0.7 0.1-0.9 0.4l-3.1 3c-0.5 0.5-0.5 1.3 0 1.8l3.1 3.1c0.4 0.4 1.3 0.4 1.8 0l3-3.1c0.5-0.5 0.5-1.3 0-1.8l-3-3q-0.4-0.4-0.9-0.4z"/>
		<path id="Layer" fill-rule="evenodd" class="s2" d="m355.5 139.9c-1.2 0-2.2-0.4-3.1-1.2l-3-3.1c-1.6-1.6-1.6-4.3 0-6l3-3c1.7-1.7 4.5-1.7 6.1 0l3 3c1.7 1.7 1.7 4.4 0 6l-3 3.1c-0.8 0.8-1.9 1.2-3 1.2zm0-11.6c-0.4 0-0.7 0.1-0.9 0.4l-3.1 3c-0.5 0.5-0.5 1.3 0 1.8l3.1 3.1c0.4 0.4 1.3 0.4 1.8 0l3-3.1c0.5-0.5 0.5-1.3 0-1.8l-3-3q-0.4-0.4-0.9-0.4z"/>
		<path id="Layer" class="s2" d="m390.9 24.3l-2.1-2.1 5.3-5.3c1-1.1 2.5-1.7 4-1.7q0 0 0 0c1.6 0 3 0.6 4.1 1.7l2 2q0.8 0.9 2.1 0.9c0.7-0.1 1.4-0.4 2-1l1.8-2.1c1.1-1.2 2.7-1.9 4.3-1.9 1.6 0 3.2 0.7 4.3 1.9l2 2.1c0.5 0.6 1.3 1 2.1 0.9 0.8 0 1.5-0.3 2-1l1.6-1.8c1.1-1.3 2.6-2.1 4.3-2.1 1.6-0.1 3.2 0.6 4.3 1.8l2.1 2.3c0.6 0.5 1.4 0.9 2.1 0.8 0.8 0 1.6-0.4 2.1-1l1.5-1.8c1-1.2 2.5-2 4.1-2.1 1.7-0.1 3.2 0.5 4.4 1.7l5.6 5.6-2.1 2.1-5.6-5.6c-0.6-0.5-1.3-0.8-2.1-0.8-0.8 0-1.5 0.4-2 1l-1.5 1.8c-1.1 1.3-2.6 2.1-4.3 2.1-1.7 0-3.2-0.6-4.4-1.8l-2.1-2.2c-0.5-0.6-1.2-0.9-2-0.9-0.9 0-1.6 0.4-2.1 1l-1.6 1.9c-1 1.2-2.6 2-4.3 2-1.6 0-3.2-0.6-4.3-1.9l-2-2.1c-0.6-0.6-1.4-1-2.1-0.9-0.8 0-1.5 0.3-2 0.9l-1.9 2.1c-1.1 1.2-2.6 1.9-4.2 2-1.5 0-3.1-0.6-4.2-1.7l-2-2.1c-0.5-0.5-1.2-0.8-2-0.8-0.7 0-1.4 0.3-1.9 0.8z"/>
		<path id="Layer" class="s2" d="m411.7 116.2h28.4v3h-28.4z"/>
		<path id="Layer" class="s2" d="m632.2 15.3h3v29.7h-3z"/>
		<path id="Layer" class="s2" d="m621.5 21.9h3v23.1h-3z"/>
		<path id="Layer" class="s2" d="m610.8 28.3h3v16.7h-3z"/>
		<path id="Layer" class="s2" d="m600.1 34.6h3v10.4h-3z"/>
		<path id="Layer" class="s2" d="m233.1 36.6h28.4v3h-28.4z"/>
		<path id="Layer" class="s2" d="m214.9 36.6h12.7v3h-12.7z"/>
		<path id="Layer" fill-rule="evenodd" class="s2" d="m203.1 31.7c3.5 0 6.4 2.9 6.4 6.4 0 3.5-2.9 6.4-6.4 6.4-3.5 0-6.4-2.9-6.4-6.4 0-3.5 2.9-6.4 6.4-6.4zm0 9.8c1.8 0 3.4-1.6 3.4-3.4 0-1.9-1.6-3.4-3.4-3.4-1.9 0-3.4 1.5-3.4 3.4 0 1.8 1.5 3.4 3.4 3.4z"/>
		<path id="Layer" class="s2" d="m778.8 15.4l12.5 9.7-1.8 2.3-10.5-8.1-9.8 9.2-11.3-9.3-10 9.3-11-9.3-10.3 9.1-10.7-8.3-9.8 7.5-1.8-2.4 11.6-8.9 10.6 8.2 10.4-9.1 10.9 9.2 10-9.3 11.2 9.3z"/>
		<path id="Layer" class="s2" d="m999.2 340h28.4v3h-28.4z"/>
		<path id="Layer" class="s2" d="m732.5 51.9h28.4v3h-28.4z"/>
		<path id="Layer" class="s2" d="m270.5 125.7h28.4v3h-28.4z"/>
		<path id="Layer" fill-rule="evenodd" class="s2" d="m1008.2 307.3c-1.1 0-2.2-0.4-3-1.2l-3-3c-1.7-1.7-1.7-4.4 0-6.1l3-3c1.6-1.6 4.4-1.6 6 0l3.1 3c1.7 1.7 1.7 4.4 0 6.1l-3.1 3c-0.8 0.8-1.8 1.2-3 1.2zm0-11.6q-0.5 0-0.9 0.4l-3 3c-0.5 0.5-0.5 1.3 0 1.8l3 3.1c0.5 0.5 1.4 0.5 1.8 0l3.1-3.1c0.5-0.5 0.5-1.3 0-1.8l-3.1-3q-0.3-0.4-0.9-0.4z"/>
		<path id="Layer" fill-rule="evenodd" class="s2" d="m910.5 25.3c-1.1 0-2.2-0.5-3-1.3l-3.1-3c-1.6-1.7-1.6-4.4 0-6.1l3.1-3c1.6-1.6 4.4-1.6 6 0l3.1 3c1.6 1.7 1.6 4.4 0 6.1l-3.1 3c-0.8 0.8-1.9 1.3-3 1.3zm0-11.7c-0.3 0-0.7 0.2-0.9 0.4l-3 3.1c-0.5 0.5-0.5 1.3 0 1.8l3 3c0.5 0.5 1.3 0.5 1.8 0l3-3c0.5-0.5 0.5-1.3 0-1.8l-3-3.1q-0.4-0.4-0.9-0.4z"/>
		<path id="Layer" fill-rule="evenodd" class="s2" d="m444.3 59.1c-1.1 0-2.2-0.4-3-1.2l-3-3c-1.7-1.7-1.7-4.4 0-6.1l3-3c1.6-1.6 4.4-1.6 6 0l3.1 3c1.6 1.7 1.6 4.4 0 6.1l-3.1 3c-0.8 0.8-1.8 1.2-3 1.2zm0-11.6c-0.3 0-0.6 0.2-0.9 0.4l-3 3c-0.5 0.5-0.5 1.3 0 1.8l3 3.1c0.5 0.5 1.3 0.5 1.8 0l3.1-3.1c0.5-0.5 0.5-1.3 0-1.8l-3.1-3c-0.2-0.2-0.5-0.4-0.9-0.4z"/>
		<path id="Layer" fill-rule="evenodd" class="s2" d="m16.9 228.8c-1.2 0-2.3-0.4-3.1-1.2l-3-3.1c-1.7-1.6-1.7-4.3 0-6l3-3c1.6-1.7 4.5-1.7 6.1 0l3 3c1.7 1.7 1.7 4.4 0 6l-3 3.1c-0.8 0.8-1.9 1.2-3 1.2zm0-11.6c-0.4 0-0.7 0.1-0.9 0.4l-3.1 3c-0.5 0.5-0.5 1.3 0 1.8l3.1 3c0.4 0.5 1.3 0.5 1.7 0l3.1-3c0.5-0.5 0.5-1.3 0-1.8l-3.1-3q-0.3-0.4-0.8-0.4z"/>
		<path id="Layer" class="s2" d="m943.3 258.6h28.4v3h-28.4z"/>
		<path id="Layer" class="s2" d="m977.2 258.6h12.7v3h-12.7z"/>
		<path id="Layer" fill-rule="evenodd" class="s2" d="m1001.8 266.5c-3.5 0-6.4-2.9-6.4-6.4 0-3.5 2.9-6.4 6.4-6.4 3.5 0 6.3 2.9 6.3 6.4 0 3.5-2.8 6.4-6.3 6.4zm0-9.8c-1.9 0-3.4 1.5-3.4 3.4 0 1.9 1.5 3.4 3.4 3.4 1.8 0 3.3-1.5 3.3-3.4 0-1.9-1.5-3.4-3.3-3.4z"/>
		<path id="Layer" class="s0" d="m442.6 241.5c0 42.5-34.5 77-77 77-42.6 0-77.1-34.5-77.1-77 0-42.6 34.5-77.1 77.1-77.1 42.5 0 77 34.5 77 77.1z"/>
		<path id="Layer" fill-rule="evenodd" class="s2" d="m287 241.5c0-43.4 35.3-78.6 78.6-78.6 43.2 0 78.5 35.2 78.5 78.6 0 43.3-35.3 78.5-78.5 78.5-43.3 0-78.6-35.2-78.6-78.5zm3 0c0 41.6 33.9 75.5 75.6 75.5 41.6 0 75.5-33.9 75.5-75.5 0-41.7-33.9-75.6-75.5-75.6-41.7 0-75.6 33.9-75.6 75.6z"/>
		<path id="Layer" class="s1" d="m425.9 241.5c0 33.3-27 60.4-60.3 60.4-33.4 0-60.4-27.1-60.4-60.4 0-33.4 27-60.5 60.4-60.5 33.3 0 60.3 27.1 60.3 60.5z"/>
		<path id="Layer" class="s0" d="m406.4 241.5c0 22.5-18.3 40.8-40.8 40.8-22.6 0-40.9-18.3-40.9-40.8 0-22.6 18.3-40.9 40.9-40.9 22.5 0 40.8 18.3 40.8 40.9z"/>
		<path id="Layer" fill-rule="evenodd" class="s2" d="m323.2 241.5c0-23.4 19-42.4 42.4-42.4 23.3 0 42.3 19 42.3 42.4 0 23.3-19 42.3-42.3 42.3-23.4 0-42.4-19-42.4-42.3zm3 0c0 21.7 17.7 39.3 39.4 39.3 21.7 0 39.3-17.6 39.3-39.3 0-21.7-17.6-39.4-39.3-39.4-21.7 0-39.4 17.7-39.4 39.4z"/>
		<path id="Layer" class="s1" d="m384.6 241.5c0 10.5-8.5 19-19 19-10.6 0-19.1-8.5-19.1-19 0-10.6 8.5-19.1 19.1-19.1 10.5 0 19 8.5 19 19.1z"/>
		<path id="Layer" class="s2" d="m254.5 235.9h111.1v11.2h-111.1z"/>
		<path id="Layer" class="s2" d="m257.3 240.2l-17.9-10.8h-21.8l12 12.1-12 12h21.8l17.9-10.8z"/>
		<path id="Layer" class="s6" d="m502.2 314.4c0 32-25.9 58-57.9 58-31.9 0-57.9-26-57.9-58 0-32 26-57.9 57.9-57.9 32 0 57.9 25.9 57.9 57.9z"/>
		<path id="Layer" class="s6" d="m523.7 331.8c0 22.4-18.1 40.6-40.5 40.6-22.4 0-40.5-18.2-40.5-40.6 0-22.3 18.1-40.5 40.5-40.5 22.4 0 40.5 18.2 40.5 40.5z"/>
		<path id="Layer" class="s6" d="m406.9 327c0 22.4-18.1 40.6-40.5 40.6-22.4 0-40.5-18.2-40.5-40.6 0-22.3 18.1-40.5 40.5-40.5 22.4 0 40.5 18.2 40.5 40.5z"/>
		<path id="Layer" class="s6" d="m662.8 315.8c0 30.8-24.9 55.8-55.6 55.8-30.8 0-55.7-25-55.7-55.8 0-30.8 24.9-55.7 55.7-55.7 30.7 0 55.6 24.9 55.6 55.7z"/>
		<path id="Layer" class="s6" d="m609.1 328.2c0 24.2-19.7 43.9-43.9 43.9-24.2 0-43.9-19.7-43.9-43.9 0-24.3 19.7-44 43.9-44 24.2 0 43.9 19.7 43.9 44z"/>
		<path id="Layer" class="s6" d="m742.3 319c0 24.3-19.7 44-43.9 44-24.3 0-43.9-19.7-43.9-44 0-24.2 19.6-43.9 43.9-43.9 24.2 0 43.9 19.7 43.9 43.9z"/>
		<path id="Layer" class="s2" d="m387.9 314.4h-3c0-32.7 26.7-59.4 59.4-59.4 24.7 0 47.1 15.6 55.7 38.7l-2.8 1.1c-8.2-22-29.4-36.8-52.9-36.8-31.1 0-56.4 25.3-56.4 56.4z"/>
		<path id="Layer" class="s2" d="m444.3 373.9c-24.7 0-47.1-15.6-55.7-38.8l2.8-1.1c8.2 22.1 29.4 36.9 52.9 36.9 7.2 0 14.1-1.3 20.7-4l1.1 2.8c-6.9 2.8-14.2 4.2-21.8 4.2z"/>
		<path id="Layer" class="s2" d="m520.6 320.7c-4.9-16.4-20.3-27.9-37.4-27.9-13.6 0-26.4 7.3-33.5 19l-2.5-1.5c7.5-12.6 21.3-20.5 36-20.5 18.5 0 35 12.4 40.3 30z"/>
		<path id="Layer" class="s2" d="m483.2 373.9c-18.6 0-35.1-12.5-40.3-30.3l2.9-0.8c4.8 16.5 20.2 28.1 37.4 28.1 18.5 0 34.6-13.2 38.2-31.3l3 0.6c-4 19.5-21.3 33.7-41.2 33.7z"/>
		<path id="Layer" class="s2" d="m366.4 369.1c-23.2 0-42-18.9-42-42.1 0-23.1 18.8-42 42-42 8.4 0 16.5 2.5 23.5 7.2l-1.7 2.5c-6.4-4.4-14-6.7-21.8-6.7-21.5 0-39 17.5-39 39 0 21.6 17.5 39.1 39 39.1 12.5 0 24.3-6.1 31.6-16.2l2.5 1.7c-7.9 10.9-20.7 17.5-34.1 17.5z"/>
		<path id="Layer" class="s2" d="m607.2 373c-7.8 0-15.3-1.5-22.3-4.5l1.1-2.7c6.7 2.8 13.8 4.3 21.2 4.3 21.6 0 41.2-12.9 49.7-32.8l2.8 1.1c-9.1 21.1-29.7 34.6-52.5 34.6z"/>
		<path id="Layer" class="s2" d="m553 315.8h-3c0-31.5 25.6-57.2 57.2-57.2 29.4 0 53.9 22.1 56.8 51.4l-2.9 0.3c-2.9-27.8-26-48.7-53.9-48.7-29.9 0-54.2 24.3-54.2 54.2z"/>
		<path id="Layer" class="s2" d="m565.2 373.6c-25 0-45.4-20.4-45.4-45.4 0-23.6 17.7-43.1 41.1-45.3l0.3 3c-21.9 2.1-38.4 20.2-38.4 42.3 0 23.4 19 42.4 42.4 42.4 9.5 0 18.4-3 25.9-8.8l1.8 2.3c-8 6.2-17.6 9.5-27.7 9.5z"/>
		<path id="Layer" class="s2" d="m698.4 364.4c-21.5 0-40.2-15.2-44.5-36.2l2.9-0.6c4 19.6 21.5 33.9 41.6 33.9 23.3 0 42.4-19.1 42.4-42.5 0-23.4-19.1-42.4-42.4-42.4-15.5 0-29.7 8.4-37.2 22l-2.6-1.4c8-14.6 23.2-23.6 39.8-23.6 25 0 45.4 20.4 45.4 45.4 0 25.1-20.4 45.4-45.4 45.4z"/>
		<path id="Layer" class="s0" d="m722.1 300.8c-27.3 0-51 15.2-63.2 37.6q-4.7-1-9.6-1c-22.7 0-41.6 13.1-46 34.5-2.4-11-15.2-19.4-29.2-19.4-2.8 0-5.5 0.4-8.1 1.1v-17.3h-88.7v16.8q-3-0.6-6.1-0.6c-13.3 0-24.5 7.8-28.6 19.7-5-20.5-23.5-34.8-45.5-34.8q-4.8 0-9.4 0.9c-12.2-22.3-35.9-37.5-63.1-37.5-39.6 0-71.8 32.6-71.8 72.3h541.1c0-39.7-32.2-72.3-71.8-72.3z"/>
		<path id="Layer" class="s0" d="m507.5 326.1c0 20.6-16.8 37.4-37.4 37.4-20.7 0-37.4-16.8-37.4-37.4 0-20.7 16.7-37.4 37.4-37.4 20.6 0 37.4 16.7 37.4 37.4z"/>
		<path id="Layer" class="s0" d="m612.8 324.8c0 20.7-16.7 37.4-37.4 37.4-20.6 0-37.3-16.7-37.3-37.4 0-20.6 16.7-37.4 37.3-37.4 20.7 0 37.4 16.8 37.4 37.4z"/>
		<path id="Layer" class="s2" d="m601.8 372.9c-2.2-10.2-14.4-18.2-27.7-18.2v-3c14.9 0 28.1 8.9 30.7 20.6z"/>
		<path id="Layer" class="s2" d="m792.4 373.1c-0.4-38.6-32-70-70.3-70-25.8 0-49.5 14-61.8 36.7-0.4 0.6-1 0.9-1.7 0.8-3-0.7-6.2-1-9.3-1-10.3 0-19.8 2.7-27.6 7.9l-1.6-2.5c8.2-5.5 18.3-8.4 29.2-8.4 2.9 0 5.9 0.3 8.9 0.8 13-23 37.4-37.3 63.9-37.3 40 0 72.9 32.7 73.3 73z"/>
		<path id="Layer" class="s2" d="m254.3 373.8h-3c0-40.6 32.9-73.7 73.3-73.7 20.5 0 39.4 8.2 53.4 23.1l-2.1 2c-13.5-14.3-31.7-22.1-51.3-22.1-38.7 0-70.3 31.7-70.3 70.7z"/>
		<path id="Layer" class="s2" d="m441.2 373.3c-3.4-13.8-13.5-25.2-26.8-30.5l1.1-2.7c14.2 5.6 24.9 17.7 28.6 32.5z"/>
		<path id="Layer" class="s2" d="m444 373.4l-2.8-1c3.3-9.7 11.4-17 21.6-19.6l0.8 2.9c-9.3 2.3-16.6 8.9-19.6 17.7z"/>
		<path id="Layer" class="s0" d="m487 372h73.2l-11.8-129.5h-49.6z"/>
		<path id="Layer" class="s2" d="m495.6 295.3l-3-0.3 4.7-52c0.1-0.8 0.8-1.4 1.5-1.4h49.6c0.8 0 1.4 0.6 1.5 1.4l4.7 50.9-3 0.3-4.6-49.6h-46.8z"/>
		<path id="Layer" class="s2" d="m450.3 360.3c-11.8-7-19.1-19.8-19.1-33.5 0-21.4 17.4-38.9 38.9-38.9 13.7 0 26.5 7.4 33.5 19.2l-2.6 1.5c-6.4-10.9-18.3-17.7-30.9-17.7-19.8 0-35.9 16.1-35.9 35.9 0 12.6 6.7 24.5 17.6 30.9z"/>
		<path id="Layer" class="s2" d="m594.6 359.4l-1.5-2.6c11.3-6.4 18.2-18.4 18.2-31.2 0-19.8-16.1-36-35.9-36-10.3 0-20.1 4.5-26.9 12.3l-2.3-2c7.4-8.4 18-13.2 29.2-13.2 21.5 0 38.9 17.4 38.9 38.9 0 13.9-7.5 26.9-19.7 33.8z"/>
		<path id="Layer" class="s2" d="m511 353c-2.3-5.9-2-12.5 0.9-18.1 2.7-5.1 7.3-8.9 12.8-10.7 5.6-1.7 11.5-1.2 16.7 1.5 6.9 3.6 11.4 10.7 11.7 18.6l-3 0.1c-0.2-6.8-4.1-13-10.1-16.1-4.4-2.3-9.6-2.7-14.3-1.2-4.8 1.5-8.8 4.8-11.1 9.2-2.5 4.8-2.8 10.5-0.8 15.6z"/>
		<path id="Layer" class="s2" d="m1024.8 370.9h21.2v3h-21.2z"/>
		<path id="Layer" class="s2" d="m21.4 370.9h637.3v3h-637.3z"/>
		<path id="Layer" class="s2" d="m0.7 370.9h15.5v3h-15.5z"/>
		<path id="Layer" class="s2" d="m672.7 370.9h341.5v3h-341.5z"/>
		<path id="Layer" class="s4" d="m955.7 312.2h20v21.7h-20z"/>
		<path id="Layer" class="s4" d="m980.1 352.6h-4.4v-15.1h-20v15.1h-4.2c-3.4 0-6.2 3.3-6.3 7.3h41.2c-0.1-4-2.9-7.3-6.3-7.3z"/>
		<path id="Layer" class="s1" d="m981.9 293.8h-10.8c0.8-1.4 1.3-2.9 1.1-4.5-0.3-2.5-2.1-4.8-4.6-5.5-4.2-1.1-8 2.2-8 6.2 0 1.4 0.4 2.5 1.1 3.8h-11.2c0 7.3 4.4 13.4 10.6 15.2h11.2c6.2-1.8 10.6-7.9 10.6-15.2z"/>
		<path id="Layer" class="s2" d="m951.4 334.3h28.6v3h-28.6z"/>
		<path id="Layer" class="s2" d="m939.2 359.3h53v3h-53z"/>
		<path id="Layer" class="s1" d="m941.4 362.3h48.6v8.6h-48.6z"/>
		<path id="Layer" class="s2" d="m950.1 309h31.2v3h-31.2z"/>
		<path id="Layer" class="s4" d="m894.5 300.5h23.9v25.9h-23.9z"/>
		<path id="Layer" class="s4" d="m923.7 349.1h-5.3v-18.1h-23.9v18.1h-5c-4.1 0-7.4 3.9-7.5 8.7h49.2c-0.1-4.9-3.4-8.7-7.5-8.7z"/>
		<path id="Layer" class="s1" d="m925.9 279.3h-12.9c1-1.7 1.5-3.4 1.3-5.3-0.3-3-2.5-5.7-5.5-6.6-5-1.4-9.6 2.6-9.6 7.5 0 1.6 0.5 3 1.4 4.4h-13.5c0 8.7 5.3 16 12.7 18.2h13.5c7.4-2.2 12.6-9.5 12.6-18.2z"/>
		<path id="Layer" class="s2" d="m890.8 327.2h31.3v2.9h-31.3z"/>
		<path id="Layer" class="s2" d="m877.5 357.8h57.9v3h-57.9z"/>
		<path id="Layer" class="s1" d="m877.5 360.8h57.9v10.1h-57.9z"/>
		<path id="Layer" class="s2" d="m890.8 297.5h31.3v3h-31.3z"/>
		<path id="Layer" fill-rule="evenodd" class="s2" d="m956.7 219.6c-0.8 0-1.5-0.3-2.1-0.9l-5.6-5.6 3.5-3.4c0.6-0.7 0.9-1.5 0.8-1.7l-4.8-4.8c-0.6 0-1.3 0.3-1.7 0.8l-3.5 3.4-4.9-4.9c-1.4-1.4-1.7-4.1-0.1-5.8l3.4-3.4-1.3-1.4c-0.7-0.7-1.2-1.6-1.2-2.6-0.1-1.1 0.3-2.1 1.1-2.9l5.5-5.5c1.5-1.5 4.1-1.4 5.5 0l1.4 1.4 4-4c0.9-0.8 2.2-1.3 3.5-1.3 1.1 0 2.1 0.3 2.8 1l4.9 4.9-4.5 4.5q-0.2 0.1-0.2 0.2c0 0 0.2 0.1 0.4 0.4l4.9 4.9q0.3 0.3 0.4 0.3 0.1 0 0.2-0.1l4.5-4.5 5.5 5.5c0.8 0.8 1 2 0.6 3.3-0.4 1.1-1.2 1.9-1.6 2.3l-4 4 2 2c0.7 0.8 1.1 1.7 1.1 2.7 0.1 1-0.4 2-1.1 2.8l-5.5 5.5c-0.8 0.7-1.8 1.2-2.8 1.2-1 0-1.9-0.5-2.7-1.2l-2-2-3.4 3.4c-0.9 1-2 1.5-3 1.5zm-3.4-6.5l3.4 3.5c0.1 0 0.4-0.1 0.9-0.6l5.5-5.5 4.1 4.1c0.4 0.3 0.9 0.3 1.2 0l5.6-5.5q0.3-0.3 0.3-0.7 0-0.3-0.3-0.6l-4.1-4.1 6.1-6.1c0.7-0.7 0.9-1.3 0.9-1.5l-3.3-3.3-2.4 2.4q-1.1 1.1-2.3 1.1c-1.1 0-1.9-0.7-2.5-1.3l-4.9-4.9c-2.2-2.2-1.1-4-0.3-4.8l2.4-2.4-2.8-2.8c0-0.1-0.2-0.2-0.6-0.2-0.6 0-1.1 0.3-1.4 0.5l-6.1 6.1-3.5-3.4c-0.3-0.4-0.9-0.5-1.3-0.1l-5.5 5.5q-0.2 0.3-0.2 0.6c0 0.3 0.1 0.5 0.3 0.7l3.5 3.5-5.5 5.5c-0.5 0.4-0.3 1.3 0 1.6l2.8 2.8 1.4-1.4c1-1 2.4-1.6 3.7-1.6 0.9 0 1.7 0.3 2.2 0.9l4.9 4.8c1.5 1.6 0.7 4.3-0.9 5.9z"/>
		<path id="Layer" class="s1" d="m939 209.6l-3.1 3.1-5.1-5.2c-1.1-1.1-2.9-2.2-3.8-1.3l-4.7 4.7 3.8 3.7c1 1 0.6 1.3-0.2 2.2l-4.9 4.9c-0.9 0.9-1.6 1.6-2.6 0.6l-3.8-3.7-3.7 3.7c-0.9 0.9-0.1 3.1 0.9 4.1l5.2 5.2-2.7 2.7c-0.9 0.9-1.5 2.6-0.5 3.6l5.5 5.5c1 1.1 3 0.7 3.9-0.2l2.7-2.7 4.3 4.3c1 1.1 2.3 0.9 3.2 0l3.7-3.7-2.2-2.2c-1-1-1.7-3.3-0.9-4.2l4.9-4.8c0.9-0.9 2.7 0.3 3.7 1.3l2.2 2.2 4.8-4.7c0.8-0.9 0.6-1.8-0.5-2.8l-4.3-4.4 3.1-3.1c0.9-0.8 0.9-2.4-0.1-3.4l-5.6-5.5c-1-1.1-2.3-0.8-3.2 0.1z"/>
		<path id="Layer" class="s7" d="m110.4 141.9c0 18-14.5 32.6-32.5 32.6-18 0-32.6-14.6-32.6-32.6 0-18 14.6-32.6 32.6-32.6 18 0 32.5 14.6 32.5 32.6z"/>
		<path id="Layer" class="s2" d="m77.9 181.5q-1.7 0-3.3-0.1l0.3-3c2.3 0.2 4.6 0.2 6.9-0.1l0.3 3q-2.1 0.2-4.2 0.2zm-12.1-1.9q-3.6-1.1-6.9-2.9l1.4-2.7c2 1.1 4.2 2.1 6.4 2.8zm25.2-0.3l-1-2.9q3.3-1.1 6.3-2.9l1.5 2.6c-2.2 1.3-4.5 2.3-6.8 3.2zm-39.5-7.9c-1.9-1.7-3.6-3.5-5.1-5.5l2.4-1.9c1.4 1.9 3 3.6 4.7 5.2zm53.5-0.7l-2-2.2c1.6-1.6 3.2-3.3 4.5-5.2l2.5 1.7q-2.2 3.1-5 5.7zm-63.2-12.6c-1-2.3-1.9-4.7-2.4-7.2l2.9-0.6q0.8 3.4 2.2 6.5zm72.6-0.9l-2.7-1.1c0.9-2.2 1.6-4.4 2-6.7l3 0.6c-0.5 2.5-1.3 4.9-2.3 7.2zm-73.1-15.1h-3v-0.2c0-2.5 0.3-5 0.7-7.5l3 0.6q-0.7 3.4-0.7 6.9zm73.2-0.9q-0.1-3.5-0.8-6.9l2.9-0.7c0.5 2.5 0.8 5 0.9 7.5zm-70-14.1l-2.8-1.2c1.1-2.3 2.3-4.5 3.7-6.6l2.5 1.7c-1.3 1.9-2.5 4-3.4 6.1zm66.5-0.7q-1.5-3.2-3.5-6l2.4-1.8c1.5 2.1 2.8 4.2 3.8 6.5zm-57.6-11.6l-2-2.2c1.9-1.7 3.9-3.2 6.1-4.5l1.5 2.5c-2 1.2-3.9 2.6-5.6 4.2zm48.4-0.5q-2.6-2.3-5.6-4.1l1.5-2.5c2.1 1.2 4.2 2.7 6.1 4.3zm-35.3-7.1l-0.9-2.8c2.4-0.8 4.9-1.4 7.4-1.7l0.3 3q-3.4 0.4-6.8 1.5zm22-0.2q-3.4-1-6.8-1.4l0.3-3c2.5 0.3 4.9 0.8 7.3 1.5z"/>
		<path id="Layer" fill-rule="evenodd" class="s0" d="m77.9 109.3c12.6 0 22.8 14.6 22.8 32.6 0 18-10.2 32.6-22.8 32.6-12.6 0-22.9-14.6-22.9-32.6 0-18 10.3-32.6 22.9-32.6zm0 62.3c10.9 0 19.8-13.3 19.8-29.7 0-16.3-8.9-29.6-19.8-29.6-10.9 0-19.8 13.3-19.8 29.6 0 16.4 8.9 29.7 19.8 29.7z"/>
		<path id="Layer" fill-rule="evenodd" class="s0" d="m77.9 109.3c6.9 0 10.6 16.4 10.6 32.6 0 16.2-3.7 32.6-10.6 32.6-7 0-10.6-16.4-10.6-32.6 0-16.2 3.6-32.6 10.6-32.6zm0 62.3c3 0 7.5-11.6 7.5-29.7 0-18.1-4.5-29.6-7.5-29.6-3.1 0-7.5 11.5-7.5 29.6 0 18.1 4.4 29.7 7.5 29.7z"/>
		<path id="Layer" class="s0" d="m77.9 152.3c9.4 0 18.5 4 24.9 10.8l-2.3 2.2c-5.9-6.4-13.9-9.9-22.6-9.9-8.7 0-16.7 3.5-22.7 9.9l-2.2-2.2c6.4-6.8 15.5-10.8 24.9-10.8z"/>
		<path id="Layer" class="s0" d="m100.5 118.5l2.2 2.1c-6.4 6.8-15.4 10.7-24.8 10.7-9.4 0-18.5-3.9-24.9-10.7l2.3-2.1c5.9 6.3 13.9 9.8 22.6 9.8 8.6 0 16.7-3.5 22.6-9.8z"/>
		<path id="Layer" class="s0" d="m45.3 140.4h65.2v3h-65.2z"/>
	</g>
</svg>