<svg xmlns="http://www.w3.org/2000/svg" viewBox="0 0 129.5 129.5"><style><![CDATA[.Q{fill:#fff}.R{fill:#231F20}]]></style><path d="M19.5 4.4c-2.5 0-4.8 1-6.4 2.7-1.7 1.7-2.7 3.9-2.7 6.4 0 5 4.1 9.1 9.1 9.1h3.1V4.9c-1-.4-2-.5-3.1-.5z" fill="#E6E9EE"/><path d="M10.4 13.5v87.9c0 5 4.1 9.1 9.1 9.1h107.6V31.7c0-5-4.1-9.1-9.1-9.1H19.5c-5 0-9.1-4.1-9.1-9.1z" class="Q"/><path d="M118 128.7c-1.1 0-2.1-.2-3.1-.5V40.3c1 .3 2 .5 3.1.5 5 0 9.1-4.1 9.1-9.1v87.9c0 5.1-4.1 9.1-9.1 9.1z" fill="#FFD05B"/><g class="Q"><path d="M44.6 118.8H96v7.3H44.6z"/><path d="M44.6 126.1l-8.6-3.7 8.6-3.6zm59.6-1v-5.2a1.11 1.11 0 0 0-1.1-1.1H96v7.3h7.1c.6 0 1.1-.5 1.1-1z"/></g><path d="M103.1 118H44.6c-.1 0-.2 0-.3.1l-8.6 3.7c-.3.1-.5.4-.5.7s.2.6.5.7l8.6 3.7c.1 0 .2.1.3.1h58.5a1.79 1.79 0 0 0 1.8-1.8V120c0-1.2-.8-2-1.8-2zm-7.8 3.7H45.4v-2.2h49.9v2.2zm-51.4-1.8v5.1l-5.9-2.5 5.9-2.6zm1.5 3.3h49.9v2.2H45.4v-2.2zm58 1.9c0 .2-.1.3-.3.3h-6.4v-5.8h6.4c.2 0 .3.1.3.3v5.2z" class="R"/><g fill="#84DBFF"><circle cx="89.6" cy="96" r="5.5"/><circle cx="89.6" cy="68.4" r="5.5"/><circle cx="68.7" cy="68.4" r="5.5"/><circle cx="47.9" cy="68.4" r="5.5"/><circle cx="47.9" cy="39.8" r="5.5"/></g><g class="R"><path d="M90.4 88.8h-1.5v-1h1.5v1zm0-3h-1.5v-1h1.5v1zm0-3h-1.5v-1h1.5v1zm0-3h-1.5v-1h1.5v1zm-4 .6l-1.1-1 4.3-4.3 4.3 4.3-1.1 1-3.2-3.2zm-37.8-20h-1.5v-1h1.5v1zm0-3h-1.5v-1h1.5v1zm0-3h-1.5v-1h1.5v1zm0-3h-1.5v-1h1.5v1zm-3.9.7L43.6 51l4.3-4.3 4.2 4.3-1 1.1-3.2-3.2zm45.7 4.5h-1.5v-1h1.5v1zm-20.9-1.7H68v-1h1.5v1zm20.9-1.3h-1.5v-1h1.5v1zm-20.9-1.7H68v-1h1.5v1zm19.4-1.3v-.9l1.5-.1c0 .4.1.7.1 1.1l-1.6-.1zM69.6 49l-1.5-.2c.1-.4.1-.7.2-1l1.4.4c0 .2 0 .5-.1.8zm18.8-1.2l-.3-.9 1.4-.6c.1.3.3.7.4 1l-1.5.5zm-17.9-1.4l-1.3-.7c.2-.3.3-.6.5-.9l1.3.8a2.18 2.18 0 0 0-.5.8zm16.8-1.1c-.2-.3-.4-.5-.5-.8l1.2-.9.6.9-1.3.8zM72 44.1l-1.1-1c.2-.3.5-.5.8-.8l1 1.1c-.2.2-.5.4-.7.7zm13.4-.9c-.2-.2-.5-.4-.7-.6l.9-1.2c.3.2.6.4.8.7l-1 1.1zm-11.2-.9l-.8-1.3c.3-.2.6-.4.9-.5l.6 1.4c-.2.1-.5.3-.7.4zm8.9-.5l-.9-.3.5-1.4c.3.1.7.2 1 .4l-.6 1.3zm-6.4-.6l-.4-1.5c.3-.1.7-.2 1-.2l.2 1.5c-.2.1-.5.2-.8.2zm3.7-.2c-.3 0-.6-.1-.9-.1l.1-1.5c.4 0 .7 0 1.1.1l-.3 1.5z"/><path d="M68.7 57.6l-4.2-4.2 1-1.1 3.2 3.2 3.3-3.2 1 1.1zm-10 38.9l-.1-1.5c.3 0 .6 0 .9-.1l.2 1.5c-.3 0-.7.1-1 .1zm-2.2-.2c-.4-.1-.7-.1-1-.2l.4-1.5c.3.1.6.1.9.2l-.3 1.5zm5.3-.4l-.5-1.4.9-.3.6 1.4-1 .3zm-8.3-.5c-.3-.2-.6-.3-.9-.5l.8-1.3c.3.2.5.3.8.4l-.7 1.4zm11.2-.9l-.9-1.2c.3-.2.5-.4.7-.6l1 1.1c-.2.2-.5.5-.8.7zm-13.9-.9c-.3-.2-.5-.5-.8-.8l1.1-1 .7.7-1 1.1zM67 92.3l-1.2-.9a2.18 2.18 0 0 0 .5-.8l1.3.8c-.1.3-.3.6-.6.9zm-18.2-1.2c-.2-.3-.4-.6-.5-.9l1.3-.7c.1.3.3.5.4.8l-1.2.8zm19.9-1.6l-1.4-.6.3-.9 1.4.4-.3 1.1zm-21.2-1.3c-.1-.3-.2-.7-.2-1l1.5-.2c.1.3.1.6.2.9l-1.5.3zm21.9-1.8l-1.5-.1v-.9h1.5c.1.3.1.7 0 1zM48.6 85h-1.5v-1h1.5v1zm20.9-1.7H68v-1h1.5v1zM48.6 82h-1.5v-1h1.5v1zm20.9-1.7H68v-1h1.5v1z"/><path d="M51.1 83.6l-3.2-3.2-3.2 3.2-1.1-1.1 4.3-4.2 4.2 4.2z"/></g><path d="M2.4 39.8h34.8v46H2.4z" class="Q"/><path d="M5.8 43.2h28.1v9H5.8z" fill="#FF7058"/><path d="M34.6 52.9H5V42.5h29.6v10.4zM6.5 51.4h26.6V44H6.5v7.4z" class="R"/><path d="M27.4 55.9h6.4v6.4h-6.4z" class="Q"/><path d="M34.6 63h-7.9v-7.9h7.9V63zm-6.4-1.5h4.9v-4.9h-4.9v4.9z" class="R"/><path d="M16.7 55.9h6.4v6.4h-6.4z" class="Q"/><path d="M23.9 63H16v-7.9h7.9V63zm-6.4-1.5h4.9v-4.9h-4.9v4.9z" class="R"/><path d="M6.1 55.9h6.4v6.4H6.1z" class="Q"/><path d="M13.2 63H5.3v-7.9h7.9V63zm-6.4-1.5h4.9v-4.9H6.8v4.9z" class="R"/><path d="M27.4 66h6.4v6.4h-6.4z" class="Q"/><path d="M34.6 73.1h-7.9v-7.9h7.9v7.9zm-6.4-1.5h4.9v-4.9h-4.9v4.9z" class="R"/><path d="M16.7 66h6.4v6.4h-6.4z" class="Q"/><path d="M23.9 73.1H16v-7.9h7.9v7.9zm-6.4-1.5h4.9v-4.9h-4.9v4.9z" class="R"/><path d="M6.1 66h6.4v6.4H6.1z" class="Q"/><path d="M13.2 73.1H5.3v-7.9h7.9v7.9zm-6.4-1.5h4.9v-4.9H6.8v4.9z" class="R"/><path d="M27.4 76.1h6.4v6.4h-6.4z" class="Q"/><path d="M34.6 83.2h-7.9v-7.9h7.9v7.9zm-6.4-1.5h4.9v-4.9h-4.9v4.9z" class="R"/><path d="M16.7 76.1h6.4v6.4h-6.4z" class="Q"/><path d="M23.9 83.2H16v-7.9h7.9v7.9zm-6.4-1.5h4.9v-4.9h-4.9v4.9z" class="R"/><path d="M6.1 76.1h6.4v6.4H6.1z" class="Q"/><path d="M13.2 83.2H5.3v-7.9h7.9v7.9zm-6.4-1.5h4.9v-4.9H6.8v4.9zM42.7 10c-.2 0-.4-.1-.5-.2l-1.3-1.3c-.3-.3-.3-.8 0-1.1s.8-.3 1.1 0l1.3 1.3c.3.3.3.8 0 1.1-.2.1-.4.2-.6.2zm4.2 4.1c-.2 0-.4-.1-.5-.2L45 12.6c-.3-.3-.3-.8 0-1.1s.8-.3 1.1 0l1.3 1.3c.3.3.3.8 0 1.1-.1.2-.3.2-.5.2zm-5.5 0c-.2 0-.4-.1-.5-.2-.3-.3-.3-.8 0-1.1l1.3-1.3c.3-.3.8-.3 1.1 0s.3.8 0 1.1L42 13.9c-.2.2-.4.2-.6.2zm4.2-4.1c-.2 0-.4-.1-.5-.2-.3-.3-.3-.8 0-1.1l1.3-1.3c.3-.3.8-.3 1.1 0s.3.8 0 1.1l-1.3 1.3c-.3.1-.5.2-.6.2zM11 117.5c-.2 0-.4-.1-.5-.2L9.1 116c-.3-.3-.3-.8 0-1.1s.8-.3 1.1 0l1.3 1.3c.3.3.3.8 0 1.1-.1.1-.3.2-.5.2zm4.2 4.2c-.2 0-.4-.1-.5-.2l-1.3-1.3c-.3-.3-.3-.8 0-1.1s.8-.3 1.1 0l1.3 1.3c.3.3.3.8 0 1.1-.2.1-.4.2-.6.2zm-5.5 0c-.2 0-.4-.1-.5-.2-.3-.3-.3-.8 0-1.1l1.3-1.3c.3-.3.8-.3 1.1 0s.3.8 0 1.1l-1.3 1.3c-.2.1-.4.2-.6.2zm4.2-4.2c-.2 0-.4-.1-.5-.2-.3-.3-.3-.8 0-1.1l1.3-1.3c.3-.3.8-.3 1.1 0s.3.8 0 1.1l-1.3 1.3c-.3.1-.5.2-.6.2z" class="R"/><path d="M58.6.7l50.9 50.9V.7H58.6zm42.6 31L78.6 9h22.6v22.7z" class="Q"/><path d="M127.9 31.7c0-5.4-4.4-9.9-9.9-9.9h-7.7V.7c0-.4-.3-.8-.8-.8H58.6c-.3 0-.6.2-.7.5s-.1.6.2.8l20.6 20.6H23.4v-17c0-.3-.2-.6-.5-.7a9.6 9.6 0 0 0-3.3-.6c-2.6 0-5.1 1-7 2.9s-2.9 4.3-2.9 7V39h-8v47.5h8v14.8c0 5.4 4.4 9.9 9.9 9.9h94.7v17c0 .3.2.6.5.7a9.6 9.6 0 0 0 3.3.6c5.4 0 9.9-4.4 9.9-9.9l-.1-87.9zM60.4 1.5h7.1v2.3H69V1.5h3.6v3.6h1.5V1.5h3.6v2.3h1.5V1.5h3.6v3.6h1.5V1.5h3.6v2.3h1.5V1.5H93v3.6h1.5V1.5h3.6v2.3h1.5V1.5h3.6v2.3h1.5V1.5h4.4v6.3h-2.3v1.5h2.3v3.6h-3.6v1.5h3.6V18h-2.3v1.5h2.3v3.6h-3.6v1.5h3.6V28h-2.3v1.5h2.3V33h-3.6v1.5h3.6v3.6h-2.3v1.5h2.3v3.6h-2.3v1.5h2.3v5.2L60.4 1.5zM13.6 7.6c1.6-1.6 3.7-2.5 5.9-2.5.8 0 1.6.1 2.3.3v16.4h-2.3c-4.6 0-8.4-3.8-8.4-8.4a7.94 7.94 0 0 1 2.5-5.8zM3.1 85.1V40.6h33.3v44.5H3.1zm111.4-45.4c-.2.1-.3.4-.3.6v69.4H19.5c-4.6 0-8.4-3.8-8.4-8.4V86.6h26.8V39.1H11.1V18.7c1.7 2.7 4.7 4.6 8.2 4.6h60.9L109 52.2c.1.1.3.2.5.2.1 0 .2 0 .3-.1.3-.1.5-.4.5-.7V23.4h7.7c4.6 0 8.4 3.8 8.4 8.4v.1c0 4.6-3.8 8.3-8.4 8.3-1 0-1.9-.2-2.8-.5-.3-.2-.5-.1-.7 0zM118 128c-.8 0-1.6-.1-2.3-.3V41.3c.8.2 1.5.3 2.3.3 3.5 0 6.6-1.9 8.4-4.6v82.7c0 4.5-3.8 8.3-8.4 8.3zM101.2 8.3H78.6c-.3 0-.6.2-.7.5s-.1.6.2.8l22.6 22.6c.1.1.3.2.5.2.1 0 .2 0 .3-.1.3-.1.5-.4.5-.7V9c0-.4-.4-.7-.8-.7zm-.7 21.5L94 23.4h6.5v6.4zm0-7.9h-8L80.4 9.8h20.1v12.1zM30.7 48.4h-1v-1.5h1v1.5zm-3 0h-1v-1.5h1v1.5zm-3 0h-1v-1.5h1v1.5zm-3 0h-1v-1.5h1v1.5zm-3 0h-1v-1.5h1v1.5zm-3 0h-1v-1.5h1v1.5zm-3 0h-1v-1.5h1v1.5zm-3 0h-.8v-1.5h.7v1.5z" class="R"/></svg>