<?xml version="1.0" encoding="UTF-8" standalone="no"?>
<!-- Created with Inkscape (http://www.inkscape.org/) -->

<svg
   xmlns:dc="http://purl.org/dc/elements/1.1/"
   xmlns:cc="http://creativecommons.org/ns#"
   xmlns:rdf="http://www.w3.org/1999/02/22-rdf-syntax-ns#"
   xmlns:svg="http://www.w3.org/2000/svg"
   xmlns="http://www.w3.org/2000/svg"
   xmlns:sodipodi="http://sodipodi.sourceforge.net/DTD/sodipodi-0.dtd"
   xmlns:inkscape="http://www.inkscape.org/namespaces/inkscape"
   width="230"
   height="93"
   viewBox="0 0 60.854165 24.606251"
   version="1.1"
   id="svg1557"
   inkscape:version="0.92.3 (2405546, 2018-03-11)"
   sodipodi:docname="blog-increases-supply-chain-visibility.svg">
  <defs
     id="defs1551" />
  <sodipodi:namedview
     id="base"
     pagecolor="#ffffff"
     bordercolor="#666666"
     borderopacity="1.0"
     inkscape:pageopacity="0.0"
     inkscape:pageshadow="2"
     inkscape:zoom="0.35"
     inkscape:cx="-100"
     inkscape:cy="560"
     inkscape:document-units="mm"
     inkscape:current-layer="layer1"
     showgrid="false"
     units="px"
     inkscape:window-width="1366"
     inkscape:window-height="705"
     inkscape:window-x="-8"
     inkscape:window-y="-8"
     inkscape:window-maximized="1" />
  <metadata
     id="metadata1554">
    <rdf:RDF>
      <cc:Work
         rdf:about="">
        <dc:format>image/svg+xml</dc:format>
        <dc:type
           rdf:resource="http://purl.org/dc/dcmitype/StillImage" />
        <dc:title></dc:title>
      </cc:Work>
    </rdf:RDF>
  </metadata>
  <g
     inkscape:label="Layer 1"
     inkscape:groupmode="layer"
     id="layer1"
     transform="translate(0,-272.39373)">
    <g
       transform="matrix(0.26458333,0,0,0.26458333,-68.897499,186.39092)"
       id="XMLID_229_">
      <path
         id="XMLID_260_"
         d="m 468.8,337 v 0 c 0,6.3 -5.1,11.4 -11.4,11.4 H 434 c -5.3,0 -9.6,4.3 -9.6,9.6 v 0 c 0,5.3 4.2,9.5 9.5,9.6 l 44.6,0.3 c 6.2,0 11.1,5 11.1,11.2 v 0 c 0,6.2 -5,11.2 -11.2,11.2 H 461 c -10.6,0 -19.2,8.6 -19.2,19.2 v 7.8 l -128.2,-0.5 v 0 c 0,-10 -8.1,-18.1 -18.1,-18.1 h -22.8 c -6.8,0 -12.3,-5.5 -12.3,-12.3 v 0 c 0,-6.8 5.5,-12.3 12.3,-12.3 h 38.1 c 6.3,0 11.3,-5.1 11.3,-11.3 v 0 c 0,-6.3 -5.1,-11.3 -11.3,-11.3 h -18 c -7.1,0 -12.9,-5.8 -12.9,-12.9 v 0 c 0,-7.1 5.8,-12.9 12.9,-12.9 h 164.5 c 6.4,-0.1 11.5,5 11.5,11.3 z"
         inkscape:connector-curvature="0"
         style="fill:#edf0f4" />
      <g
         id="XMLID_484_">
        <path
           id="XMLID_478_"
           d="m 359.3,417.2 v -50.6 c 0,-1.5 -1.2,-2.8 -2.8,-2.8 h -40.8 c -1.5,0 -2.8,1.2 -2.8,2.8 v 50.6 z"
           inkscape:connector-curvature="0"
           style="fill:#ffffff" />
        <path
           id="XMLID_477_"
           d="m 313,371 v -4.8 c 0,-1.3 1,-2.3 2.3,-2.3 H 357 c 1.3,0 2.3,1 2.3,2.3 v 4.8 z"
           inkscape:connector-curvature="0"
           style="fill:#bcbec0" />
        <line
           id="XMLID_474_"
           stroke-miterlimit="10"
           x1="313"
           y1="371.20001"
           x2="358.79999"
           y2="371.20001"
           style="fill:none;stroke:#414042;stroke-width:1.5;stroke-miterlimit:10" />
        <line
           id="XMLID_473_"
           stroke-miterlimit="10"
           x1="318.29999"
           y1="367.89999"
           x2="319.5"
           y2="367.89999"
           style="fill:none;stroke:#414042;stroke-width:1.5;stroke-miterlimit:10" />
        <line
           id="XMLID_228_"
           stroke-miterlimit="10"
           x1="321.89999"
           y1="367.89999"
           x2="323.10001"
           y2="367.89999"
           style="fill:none;stroke:#414042;stroke-width:1.5;stroke-miterlimit:10" />
        <line
           id="XMLID_226_"
           stroke-miterlimit="10"
           x1="325.5"
           y1="367.89999"
           x2="326.70001"
           y2="367.89999"
           style="fill:none;stroke:#414042;stroke-width:1.5;stroke-miterlimit:10" />
        <rect
           id="XMLID_210_"
           x="319.20001"
           y="376.5"
           width="33.900002"
           height="13.4"
           style="fill:#e6e7e8" />
        <rect
           id="XMLID_209_"
           x="319.20001"
           y="398.39999"
           width="10.3"
           height="13.4"
           style="fill:#e6e7e8" />
        <rect
           id="XMLID_723_"
           x="331.10001"
           y="398.39999"
           width="10.3"
           height="13.4"
           style="fill:#f1f2f2" />
        <rect
           id="XMLID_207_"
           x="343.10001"
           y="398.39999"
           width="10.3"
           height="13.4"
           style="fill:#e6e7e8" />
        <line
           id="XMLID_206_"
           stroke-miterlimit="10"
           x1="328.89999"
           y1="394.10001"
           x2="343.29999"
           y2="394.10001"
           style="fill:none;stroke:#414042;stroke-width:1.5;stroke-miterlimit:10" />
        <path
           id="XMLID_483_"
           stroke-miterlimit="10"
           d="m 359.3,383.9 v -17.3 c 0,-1.5 -1.2,-2.8 -2.8,-2.8 h -40.8 c -1.5,0 -2.8,1.2 -2.8,2.8 v 15.8"
           inkscape:connector-curvature="0"
           style="fill:none;stroke:#414042;stroke-width:1.5;stroke-miterlimit:10" />
      </g>
      <g
         id="XMLID_263_">
        <line
           id="XMLID_265_"
           stroke-miterlimit="10"
           x1="384.10001"
           y1="329"
           x2="388.5"
           y2="329"
           style="fill:none;stroke:#414042;stroke-width:1.5;stroke-linecap:round;stroke-miterlimit:10" />
        <line
           id="XMLID_264_"
           stroke-miterlimit="10"
           x1="386.29999"
           y1="331.20001"
           x2="386.29999"
           y2="326.79999"
           style="fill:none;stroke:#414042;stroke-width:1.5;stroke-linecap:round;stroke-miterlimit:10" />
      </g>
      <g
         id="XMLID_504_">
        <line
           id="XMLID_506_"
           stroke-miterlimit="10"
           x1="275.79999"
           y1="382.20001"
           x2="280.20001"
           y2="382.20001"
           style="fill:none;stroke:#414042;stroke-width:1.5;stroke-linecap:round;stroke-miterlimit:10" />
        <line
           id="XMLID_505_"
           stroke-miterlimit="10"
           x1="278"
           y1="384.39999"
           x2="278"
           y2="380"
           style="fill:none;stroke:#414042;stroke-width:1.5;stroke-linecap:round;stroke-miterlimit:10" />
      </g>
      <g
         id="XMLID_360_">
        <line
           id="XMLID_365_"
           stroke-miterlimit="10"
           x1="295.79999"
           y1="360.29999"
           x2="298.89999"
           y2="357.20001"
           style="fill:none;stroke:#414042;stroke-width:1.5;stroke-linecap:round;stroke-miterlimit:10" />
        <line
           id="XMLID_364_"
           stroke-miterlimit="10"
           x1="298.89999"
           y1="360.29999"
           x2="295.79999"
           y2="357.20001"
           style="fill:none;stroke:#414042;stroke-width:1.5;stroke-linecap:round;stroke-miterlimit:10" />
      </g>
      <g
         id="XMLID_501_">
        <line
           id="XMLID_503_"
           stroke-miterlimit="10"
           x1="433.39999"
           y1="359.79999"
           x2="436.5"
           y2="356.70001"
           style="fill:none;stroke:#414042;stroke-width:1.5;stroke-linecap:round;stroke-miterlimit:10" />
        <line
           id="XMLID_502_"
           stroke-miterlimit="10"
           x1="436.5"
           y1="359.79999"
           x2="433.39999"
           y2="356.70001"
           style="fill:none;stroke:#414042;stroke-width:1.5;stroke-linecap:round;stroke-miterlimit:10" />
      </g>
      <line
         id="XMLID_322_"
         stroke-miterlimit="10"
         x1="307.29999"
         y1="358.79999"
         x2="337.39999"
         y2="358.79999"
         style="fill:none;stroke:#414042;stroke-width:1.5;stroke-miterlimit:10" />
      <line
         id="XMLID_499_"
         stroke-miterlimit="10"
         x1="437.10001"
         y1="381.29999"
         x2="467.20001"
         y2="381.29999"
         style="fill:none;stroke:#414042;stroke-width:1.5;stroke-miterlimit:10" />
      <line
         id="XMLID_441_"
         stroke-miterlimit="10"
         x1="305.79999"
         y1="358.79999"
         x2="302.70001"
         y2="358.79999"
         style="fill:none;stroke:#414042;stroke-width:1.5;stroke-miterlimit:10" />
      <line
         id="XMLID_320_"
         stroke-miterlimit="10"
         x1="323.39999"
         y1="329"
         x2="379"
         y2="329"
         style="fill:none;stroke:#414042;stroke-width:1.5;stroke-miterlimit:10" />
      <path
         id="XMLID_239_"
         d="m 428.4,381.7 c 0,0.7 -0.6,1.3 -1.3,1.3 -0.7,0 -1.3,-0.6 -1.3,-1.3 0,-0.7 0.6,-1.3 1.3,-1.3 0.7,0.1 1.3,0.6 1.3,1.3 z"
         inkscape:connector-curvature="0"
         style="fill:#414042" />
      <path
         id="XMLID_496_"
         d="m 347.4,355.2 c 0,0.7 -0.6,1.3 -1.3,1.3 -0.7,0 -1.3,-0.6 -1.3,-1.3 0,-0.7 0.6,-1.3 1.3,-1.3 0.7,0.1 1.3,0.6 1.3,1.3 z"
         inkscape:connector-curvature="0"
         style="fill:#414042" />
      <path
         id="XMLID_498_"
         d="m 295.5,380.9 c 0,0.7 -0.6,1.3 -1.3,1.3 -0.7,0 -1.3,-0.6 -1.3,-1.3 0,-0.7 0.6,-1.3 1.3,-1.3 0.8,0.1 1.3,0.6 1.3,1.3 z"
         inkscape:connector-curvature="0"
         style="fill:#414042" />
      <path
         id="XMLID_494_"
         d="m 449.9,359.2 c 0,0.5 -0.4,0.9 -0.9,0.9 -0.5,0 -0.9,-0.4 -0.9,-0.9 0,-0.5 0.4,-0.9 0.9,-0.9 0.5,-0.1 0.9,0.3 0.9,0.9 z"
         inkscape:connector-curvature="0"
         style="fill:#414042" />
      <path
         id="XMLID_495_"
         d="m 393.8,336.8 c 0,0.5 -0.4,0.9 -0.9,0.9 -0.5,0 -0.9,-0.4 -0.9,-0.9 0,-0.5 0.4,-0.9 0.9,-0.9 0.5,0 0.9,0.4 0.9,0.9 z"
         inkscape:connector-curvature="0"
         style="fill:#414042" />
      <path
         id="XMLID_497_"
         d="m 310.4,336.8 c 0,0.5 -0.4,0.9 -0.9,0.9 -0.5,0 -0.9,-0.4 -0.9,-0.9 0,-0.5 0.4,-0.9 0.9,-0.9 0.5,0 0.9,0.4 0.9,0.9 z"
         inkscape:connector-curvature="0"
         style="fill:#414042" />
      <g
         id="XMLID_618_">
        <path
           id="XMLID_529_"
           d="m 412.2,417.2 h -70.4 c 0,-19.5 15.8,-35.2 35.2,-35.2 19.4,0 35.2,15.8 35.2,35.2 z"
           inkscape:connector-curvature="0"
           style="fill:#ffffff" />
        <path
           id="XMLID_59_"
           d="m 377,391 c 16.3,0 30.1,11.1 34.1,26.2 h 1.2 c 0,-19.5 -15.8,-35.2 -35.2,-35.2 -19.5,0 -35.2,15.8 -35.2,35.2 h 1.2 C 346.9,402.1 360.6,391 377,391 Z"
           inkscape:connector-curvature="0"
           style="fill:#d1d3d4" />
        <path
           id="XMLID_647_"
           stroke-miterlimit="10"
           d="m 399.2,389.8 c 1.2,1 2.3,2 3.4,3.1 0.7,0.7 1.3,1.4 1.9,2.2"
           inkscape:connector-curvature="0"
           style="fill:none;stroke:#414042;stroke-width:1.5;stroke-miterlimit:10" />
        <path
           id="XMLID_626_"
           stroke-miterlimit="10"
           d="m 341.7,417.2 c 0,-19.5 15.8,-35.3 35.3,-35.3 7.3,0 14.1,2.2 19.7,6"
           inkscape:connector-curvature="0"
           style="fill:none;stroke:#414042;stroke-width:1.5;stroke-miterlimit:10" />
        <path
           id="XMLID_141_"
           stroke-miterlimit="10"
           d="m 389.4,384.2 c 4.8,7.7 7.9,17.8 8.5,28.9 v 4.2"
           inkscape:connector-curvature="0"
           style="fill:none;stroke:#414042;stroke-width:1.5;stroke-miterlimit:10" />
        <path
           id="XMLID_140_"
           stroke-miterlimit="10"
           d="m 365.5,384.2 c -4.8,7.7 -7.9,17.8 -8.5,28.9 v 4.1"
           inkscape:connector-curvature="0"
           style="fill:none;stroke:#414042;stroke-width:1.5;stroke-miterlimit:10" />
        <line
           id="XMLID_623_"
           stroke-miterlimit="10"
           x1="377"
           y1="381.89999"
           x2="377"
           y2="417.20001"
           style="fill:none;stroke:#414042;stroke-width:1.5;stroke-miterlimit:10" />
        <line
           id="XMLID_621_"
           stroke-miterlimit="10"
           x1="346.10001"
           y1="400.5"
           x2="408.10001"
           y2="400.5"
           style="fill:none;stroke:#414042;stroke-width:1.5;stroke-miterlimit:10" />
      </g>
      <g
         id="XMLID_58_">
        <path
           id="XMLID_161_"
           d="m 377,338.8 c -8.9,0 -16.1,7.2 -16.1,16.1 0,8.9 16.1,27 16.1,27 0,0 16.1,-18.1 16.1,-27 0,-8.9 -7.2,-16.1 -16.1,-16.1 z m 0,23.8 c -5.2,0 -9.3,-4.2 -9.3,-9.3 0,-5.2 4.2,-9.3 9.3,-9.3 5.2,0 9.3,4.2 9.3,9.3 0,5.2 -4.2,9.3 -9.3,9.3 z"
           inkscape:connector-curvature="0"
           style="fill:#ffb936" />
        <path
           id="XMLID_155_"
           stroke-miterlimit="10"
           d="m 363.3,346.4 c -1.5,2.5 -2.4,5.4 -2.4,8.5 0,8.9 16.1,27 16.1,27 0,0 16.1,-18.1 16.1,-27 0,-8.9 -7.2,-16.1 -16.1,-16.1 -2,0 -4,0.4 -5.8,1.1 m -2.5,1.2 c -0.5,0.4 -2.7,2 -3.1,2.4 m 11.4,19.1 c -5.2,0 -9.3,-4.2 -9.3,-9.3 0,-5.2 4.2,-9.3 9.3,-9.3 5.2,0 9.3,4.2 9.3,9.3 0,5.2 -4.2,9.3 -9.3,9.3 z"
           inkscape:connector-curvature="0"
           style="fill:none;stroke:#414042;stroke-width:1.5;stroke-miterlimit:10" />
      </g>
      <g
         id="XMLID_30_">
        <path
           id="XMLID_53_"
           d="m 413.2,357.6 h -0.1 c -0.5,-1.7 -2.1,-3 -4,-3 -0.8,0 -1.6,0.2 -2.2,0.7 -0.4,-2.7 -2.7,-4.8 -5.6,-4.8 -2.5,0 -4.7,1.7 -5.4,4 -0.3,-0.1 -0.7,-0.1 -1,-0.1 -1.9,0 -3.5,1.4 -3.8,3.3 h -0.6 c -1.6,0 -2.9,1.3 -2.9,2.9 v 0.2 c 0,1.6 1.3,2.9 2.9,2.9 h 22.7 c 1.6,0 2.9,-1.3 2.9,-2.9 v -0.2 c 0,-1.7 -1.3,-3 -2.9,-3 z"
           inkscape:connector-curvature="0"
           style="fill:#ffffff" />
        <path
           id="XMLID_51_"
           d="m 394.5,363.6 h -4.1 c -1.6,0 -2.9,-1.3 -2.9,-2.9 v -0.2 c 0,-1.6 1.3,-2.9 2.9,-2.9 h 0.6 c 0.3,-1.8 1.9,-3.3 3.8,-3.3 0.3,0 0.7,0.1 1,0.1 0.7,-2.3 2.9,-4 5.4,-4 2.8,0 5.1,2.1 5.6,4.8 0.6,-0.4 1.4,-0.7 2.2,-0.7 1.9,0 3.5,1.3 4,3 h 0.1 c 1.6,0 2.9,1.3 2.9,2.9 v 0.2 c 0,1.6 -1.3,2.9 -2.9,2.9 h -4.4 -14.2 z"
           inkscape:connector-curvature="0"
           style="fill:#ffffff" />
      </g>
      <g
         id="XMLID_142_">
        <path
           id="XMLID_198_"
           stroke-miterlimit="10"
           d="m 413.2,357.6 h -0.1 c -0.5,-1.7 -2.1,-3 -4,-3 -0.8,0 -1.6,0.2 -2.2,0.7 -0.4,-2.7 -2.7,-4.8 -5.6,-4.8 -2.5,0 -4.7,1.7 -5.4,4 -0.3,-0.1 -0.7,-0.1 -1,-0.1 -1.9,0 -3.5,1.4 -3.8,3.3 h -0.6 c -1.6,0 -2.9,1.3 -2.9,2.9 v 0.2 c 0,1.6 1.3,2.9 2.9,2.9 h 22.7 c 1.6,0 2.9,-1.3 2.9,-2.9 v -0.2 c 0,-1.7 -1.3,-3 -2.9,-3 z"
           inkscape:connector-curvature="0"
           style="fill:none;stroke:#414042;stroke-miterlimit:10" />
        <path
           id="XMLID_192_"
           stroke-miterlimit="10"
           d="m 394.5,363.6 h -4.1 c -1.6,0 -2.9,-1.3 -2.9,-2.9 v -0.2 c 0,-1.6 1.3,-2.9 2.9,-2.9 h 0.6 c 0.3,-1.8 1.9,-3.3 3.8,-3.3 0.3,0 0.7,0.1 1,0.1 0.7,-2.3 2.9,-4 5.4,-4 2.8,0 5.1,2.1 5.6,4.8 0.6,-0.4 1.4,-0.7 2.2,-0.7 1.9,0 3.5,1.3 4,3 h 0.1 c 1.6,0 2.9,1.3 2.9,2.9 v 0.2 c 0,1.6 -1.3,2.9 -2.9,2.9 h -4.4 -14.2 z"
           inkscape:connector-curvature="0"
           style="fill:none;stroke:#414042;stroke-width:1.5;stroke-miterlimit:10" />
      </g>
      <g
         id="XMLID_179_">
        <path
           id="XMLID_181_"
           d="m 359.3,342.2 v 0 c -0.4,-1.2 -1.6,-2.1 -2.9,-2.1 -0.6,0 -1.1,0.2 -1.6,0.5 -0.3,-1.9 -2,-3.4 -4,-3.4 -1.8,0 -3.3,1.2 -3.8,2.8 -0.2,-0.1 -0.5,-0.1 -0.7,-0.1 -1.4,0 -2.5,1 -2.7,2.3 h -0.5 c -1.1,0 -2.1,0.9 -2.1,2.1 v 0.2 c 0,1.1 0.9,2.1 2.1,2.1 h 16.2 c 1.1,0 2.1,-0.9 2.1,-2.1 v -0.2 c 0,-1.2 -0.9,-2.1 -2.1,-2.1 z"
           inkscape:connector-curvature="0"
           style="fill:#ffffff" />
        <path
           id="XMLID_180_"
           stroke-miterlimit="10"
           d="m 346,346.5 h -2.9 c -1.1,0 -2.1,-0.9 -2.1,-2.1 v -0.2 c 0,-1.1 0.9,-2.1 2.1,-2.1 h 0.5 c 0.2,-1.3 1.3,-2.3 2.7,-2.3 0.2,0 0.5,0 0.7,0.1 0.5,-1.6 2,-2.8 3.8,-2.8 2,0 3.7,1.5 4,3.4 0.5,-0.3 1,-0.5 1.6,-0.5 1.3,0 2.5,0.9 2.8,2.1 h 0.1 c 1.1,0 2.1,0.9 2.1,2.1 v 0.2 c 0,1.1 -0.9,2.1 -2.1,2.1 h -3.1 z"
           inkscape:connector-curvature="0"
           style="fill:none;stroke:#414042;stroke-width:1.5;stroke-miterlimit:10" />
      </g>
      <g
         id="XMLID_176_">
        <path
           id="XMLID_178_"
           d="m 443.3,370.6 v 0 c -0.3,-0.8 -1,-1.3 -1.8,-1.3 -0.4,0 -0.7,0.1 -1,0.3 -0.2,-1.2 -1.2,-2.2 -2.5,-2.2 -1.1,0 -2.1,0.8 -2.4,1.8 -0.1,0 -0.3,-0.1 -0.5,-0.1 -0.9,0 -1.6,0.6 -1.7,1.5 H 433 c -0.7,0 -1.3,0.6 -1.3,1.3 v 0.1 c 0,0.7 0.6,1.3 1.3,1.3 h 10.3 c 0.7,0 1.3,-0.6 1.3,-1.3 v 0 c 0,-0.8 -0.6,-1.4 -1.3,-1.4 z"
           inkscape:connector-curvature="0"
           style="fill:#ffffff" />
        <path
           id="XMLID_177_"
           stroke-miterlimit="10"
           d="M 434.8,373.4 H 433 c -0.7,0 -1.3,-0.6 -1.3,-1.3 V 372 c 0,-0.7 0.6,-1.3 1.3,-1.3 h 0.3 c 0.1,-0.8 0.9,-1.5 1.7,-1.5 0.2,0 0.3,0 0.5,0.1 0.3,-1 1.3,-1.8 2.4,-1.8 1.3,0 2.3,0.9 2.5,2.2 0.3,-0.2 0.6,-0.3 1,-0.3 0.9,0 1.6,0.6 1.8,1.3 h 0.1 c 0.7,0 1.3,0.6 1.3,1.3 v 0.1 c 0,0.7 -0.6,1.3 -1.3,1.3 h -2 z"
           inkscape:connector-curvature="0"
           style="fill:none;stroke:#414042;stroke-width:1.5;stroke-miterlimit:10" />
      </g>
      <g
         id="XMLID_199_">
        <path
           id="XMLID_196_"
           d="m 413,339.3 h -8.6 l -4,-7.8 c -0.3,-0.6 0.1,-1.3 0.8,-1.3 h 3 c 0.3,0 0.5,0.1 0.7,0.3 z"
           inkscape:connector-curvature="0"
           style="fill:#ffffff" />
        <path
           id="XMLID_195_"
           d="m 413,339.3 h -8.6 l -4,-7.8 c -0.3,-0.6 0.1,-1.3 0.8,-1.3 h 3 c 0.3,0 0.5,0.1 0.7,0.3 z"
           inkscape:connector-curvature="0"
           style="fill:#ffffff" />
        <path
           id="XMLID_194_"
           d="m 402.2,330.1 h -0.9 c -0.7,0 -1.1,0.7 -0.8,1.3 l 4,7.8 h 3.3 l -5.5,-8.8 c -0.1,0 -0.1,-0.2 -0.1,-0.3 z"
           inkscape:connector-curvature="0"
           style="fill:#d1d3d4" />
        <path
           id="XMLID_193_"
           stroke-miterlimit="10"
           d="m 413,339.3 h -8.6 l -4,-7.8 c -0.3,-0.6 0.1,-1.3 0.8,-1.3 h 3 c 0.3,0 0.5,0.1 0.7,0.3 z"
           inkscape:connector-curvature="0"
           style="fill:none;stroke:#414042;stroke-width:1.5;stroke-miterlimit:10" />
        <g
           id="XMLID_182_">
          <path
             id="XMLID_190_"
             d="m 443,335.2 v 0 c -0.5,-1.5 -1.9,-2.6 -3.5,-2.6 -0.7,0 -1.4,0.2 -1.9,0.6 -0.4,-2.4 -2.4,-4.2 -4.8,-4.2 -2.2,0 -4.1,1.5 -4.7,3.5 -0.3,-0.1 -0.6,-0.1 -0.9,-0.1 -1.7,0 -3.1,1.2 -3.3,2.8 h -0.5 c -1.4,0 -2.5,1.1 -2.5,2.5 v 0.2 c 0,1.4 1.1,2.5 2.5,2.5 H 443 c 1.4,0 2.5,-1.1 2.5,-2.5 v -0.2 c 0,-1.4 -1.1,-2.5 -2.5,-2.5 z"
             inkscape:connector-curvature="0"
             style="fill:#ffffff" />
          <path
             id="XMLID_183_"
             stroke-miterlimit="10"
             d="m 443,340.4 c 1.4,0 2.5,-1.1 2.5,-2.5 v -0.2 c 0,-1.4 -1.1,-2.5 -2.5,-2.5 h -0.1 c -0.4,-1.5 -1.8,-2.6 -3.4,-2.6 -0.7,0 -1.4,0.2 -1.9,0.6 -0.4,-2.4 -2.4,-4.2 -4.8,-4.2 -2.2,0 -4.1,1.5 -4.7,3.5 -0.3,-0.1 -0.6,-0.1 -0.9,-0.1 -1.7,0 -3.1,1.2 -3.3,2.8 h -0.5 c -0.9,0 -1.7,0.5 -2.2,1.2"
             inkscape:connector-curvature="0"
             style="fill:none;stroke:#414042;stroke-width:1.5;stroke-miterlimit:10" />
          <path
             id="XMLID_480_"
             stroke-miterlimit="10"
             d="m 435.8,332.8 c -0.7,-1.1 -2,-1.9 -3.4,-1.9 -0.8,0 -1.5,0.2 -2.1,0.6"
             inkscape:connector-curvature="0"
             style="fill:none;stroke:#414042;stroke-width:1.5;stroke-miterlimit:10" />
          <path
             id="XMLID_479_"
             stroke-miterlimit="10"
             d="m 427.1,332.3 c 1,0 1.7,0.8 1.7,1.7"
             inkscape:connector-curvature="0"
             style="fill:none;stroke:#414042;stroke-width:1.5;stroke-miterlimit:10" />
        </g>
        <path
           id="XMLID_175_"
           d="m 442.9,342.3 h -0.8 c -0.7,-2 -2.6,-3.4 -4.9,-3.4 h -35 c 0,4.8 3.9,8.7 8.7,8.7 h 22 9.5 0.5 c 1.3,0 2.4,-1.1 2.4,-2.4 v -0.5 c 0,-1.3 -1.1,-2.4 -2.4,-2.4 z"
           inkscape:connector-curvature="0"
           style="fill:#ffffff" />
        <path
           id="XMLID_174_"
           d="m 442.9,345.6 h -0.5 -9.5 -22 c -4.1,0 -7.6,-2.9 -8.5,-6.7 h -0.3 c 0,4.8 3.9,8.7 8.7,8.7 h 22 9.5 0.5 c 1.3,0 2.4,-1.1 2.4,-2.4 v -0.5 c 0,-0.3 -0.1,-0.5 -0.1,-0.8 -0.3,1 -1.2,1.7 -2.2,1.7 z"
           inkscape:connector-curvature="0"
           style="fill:#d1d3d4" />
        <path
           id="XMLID_173_"
           stroke-miterlimit="10"
           d="m 442.9,342.3 h -0.8 c -0.7,-2 -2.6,-3.4 -4.9,-3.4 h -35 c 0,4.8 3.9,8.7 8.7,8.7 h 22 9.5 0.5 c 1.3,0 2.4,-1.1 2.4,-2.4 v -0.5 c 0,-1.3 -1.1,-2.4 -2.4,-2.4 z"
           inkscape:connector-curvature="0"
           style="fill:none;stroke:#414042;stroke-width:1.5;stroke-miterlimit:10" />
        <path
           id="XMLID_172_"
           d="m 412.2,341.7 h -10.1 c -0.6,0 -1.2,-0.5 -1.2,-1.2 v -0.4 c 0,-0.6 0.5,-1.2 1.2,-1.2 h 10.1 c 0.6,0 1.2,0.5 1.2,1.2 v 0.4 c 0,0.6 -0.5,1.2 -1.2,1.2 z"
           inkscape:connector-curvature="0"
           style="fill:#00d4ff" />
        <path
           id="XMLID_171_"
           d="m 431.9,348.7 h -12.4 c -0.6,0 -1.2,-0.5 -1.2,-1.2 v -0.9 c 0,-0.6 0.5,-1.2 1.2,-1.2 h 12.4 c 0.6,0 1.2,0.5 1.2,1.2 v 0.9 c 0,0.6 -0.6,1.2 -1.2,1.2 z"
           inkscape:connector-curvature="0"
           style="fill:#00d4ff" />
        <path
           id="XMLID_170_"
           stroke-miterlimit="10"
           d="m 412.2,341.7 h -10.1 c -0.6,0 -1.2,-0.5 -1.2,-1.2 v -0.4 c 0,-0.6 0.5,-1.2 1.2,-1.2 h 10.1 c 0.6,0 1.2,0.5 1.2,1.2 v 0.4 c 0,0.6 -0.5,1.2 -1.2,1.2 z"
           inkscape:connector-curvature="0"
           style="fill:none;stroke:#414042;stroke-width:1.5;stroke-miterlimit:10" />
        <path
           id="XMLID_169_"
           stroke-miterlimit="10"
           d="m 431.9,348.7 h -12.4 c -0.6,0 -1.2,-0.5 -1.2,-1.2 v -0.9 c 0,-0.6 0.5,-1.2 1.2,-1.2 h 12.4 c 0.6,0 1.2,0.5 1.2,1.2 v 0.9 c 0,0.6 -0.6,1.2 -1.2,1.2 z"
           inkscape:connector-curvature="0"
           style="fill:none;stroke:#414042;stroke-width:1.5;stroke-miterlimit:10" />
        <line
           id="XMLID_167_"
           stroke-miterlimit="10"
           x1="435"
           y1="341.70001"
           x2="439.39999"
           y2="341.70001"
           style="fill:none;stroke:#414042;stroke-width:1.5;stroke-miterlimit:10" />
        <line
           id="XMLID_166_"
           stroke-miterlimit="10"
           x1="429.89999"
           y1="341.70001"
           x2="432.10001"
           y2="341.70001"
           style="fill:none;stroke:#414042;stroke-width:1.5;stroke-miterlimit:10" />
        <line
           id="XMLID_151_"
           stroke-miterlimit="10"
           x1="426.29999"
           y1="341.70001"
           x2="428.5"
           y2="341.70001"
           style="fill:none;stroke:#414042;stroke-width:1.5;stroke-miterlimit:10" />
        <line
           id="XMLID_150_"
           stroke-miterlimit="10"
           x1="422.79999"
           y1="341.70001"
           x2="425"
           y2="341.70001"
           style="fill:none;stroke:#414042;stroke-width:1.5;stroke-miterlimit:10" />
        <line
           id="XMLID_148_"
           stroke-miterlimit="10"
           x1="419.29999"
           y1="341.70001"
           x2="421.5"
           y2="341.70001"
           style="fill:none;stroke:#414042;stroke-width:1.5;stroke-miterlimit:10" />
        <line
           id="XMLID_144_"
           stroke-miterlimit="10"
           x1="415.79999"
           y1="341.70001"
           x2="418"
           y2="341.70001"
           style="fill:none;stroke:#414042;stroke-width:1.5;stroke-miterlimit:10" />
      </g>
      <g
         id="XMLID_201_">
        <g
           id="XMLID_231_">
          <path
             id="XMLID_836_"
             d="m 440,399.1 c -0.2,-0.5 -0.7,-0.8 -1.2,-0.8 h -7.4 v 11.6 c 2.2,0 3.9,1.8 3.9,3.9 h 7 V 406 Z"
             inkscape:connector-curvature="0"
             style="fill:#ffffff" />
          <path
             id="XMLID_835_"
             d="m 434.1,405.2 h 6.4 c 0.2,0 0.6,0.1 0.9,0.1 l 1,0.3 -2.4,-6.5 c 0,0 -0.3,-1.2 -2.3,-0.8 h -4.6 v 6 c 0.1,0.5 0.5,0.9 1,0.9 z"
             inkscape:connector-curvature="0"
             style="fill:#00d4ff" />
          <path
             id="XMLID_824_"
             d="m 417.7,414.5 c 0,1.5 -1.2,2.8 -2.8,2.8 -1.5,0 -2.8,-1.2 -2.8,-2.8 0,-1.5 1.2,-2.8 2.8,-2.8 1.6,0 2.8,1.2 2.8,2.8 z"
             inkscape:connector-curvature="0"
             style="fill:#ffffff" />
          <path
             id="XMLID_823_"
             stroke-miterlimit="10"
             d="m 417.7,414.5 c 0,1.5 -1.2,2.8 -2.8,2.8 -1.5,0 -2.8,-1.2 -2.8,-2.8 0,-1.5 1.2,-2.8 2.8,-2.8 1.6,0 2.8,1.2 2.8,2.8 z"
             inkscape:connector-curvature="0"
             style="fill:none;stroke:#414042;stroke-width:1.5;stroke-miterlimit:10" />
          <path
             id="XMLID_822_"
             d="m 416.1,414.5 c 0,0.6 -0.5,1.1 -1.1,1.1 -0.6,0 -1.1,-0.5 -1.1,-1.1 0,-0.6 0.5,-1.1 1.1,-1.1 0.6,0 1.1,0.5 1.1,1.1 z"
             inkscape:connector-curvature="0"
             style="fill:#414042" />
          <path
             id="XMLID_820_"
             d="m 433.6,414.5 c 0,1.5 -1.2,2.8 -2.8,2.8 -1.5,0 -2.8,-1.2 -2.8,-2.8 0,-1.5 1.2,-2.8 2.8,-2.8 1.6,0 2.8,1.2 2.8,2.8 z"
             inkscape:connector-curvature="0"
             style="fill:#ffffff" />
          <path
             id="XMLID_819_"
             stroke-miterlimit="10"
             d="m 433.6,414.5 c 0,1.5 -1.2,2.8 -2.8,2.8 -1.5,0 -2.8,-1.2 -2.8,-2.8 0,-1.5 1.2,-2.8 2.8,-2.8 1.6,0 2.8,1.2 2.8,2.8 z"
             inkscape:connector-curvature="0"
             style="fill:none;stroke:#414042;stroke-width:1.5;stroke-miterlimit:10" />
          <path
             id="XMLID_818_"
             d="m 432,414.5 c 0,0.6 -0.5,1.1 -1.1,1.1 -0.6,0 -1.1,-0.5 -1.1,-1.1 0,-0.6 0.5,-1.1 1.1,-1.1 0.6,0 1.1,0.5 1.1,1.1 z"
             inkscape:connector-curvature="0"
             style="fill:#414042" />
          <path
             id="XMLID_816_"
             d="m 410.5,414.5 c 0,1.5 -1.2,2.8 -2.8,2.8 -1.5,0 -2.8,-1.2 -2.8,-2.8 0,-1.5 1.2,-2.8 2.8,-2.8 1.5,0 2.8,1.2 2.8,2.8 z"
             inkscape:connector-curvature="0"
             style="fill:#ffffff" />
          <path
             id="XMLID_240_"
             stroke-miterlimit="10"
             d="m 410.5,414.5 c 0,1.5 -1.2,2.8 -2.8,2.8 -1.5,0 -2.8,-1.2 -2.8,-2.8 0,-1.5 1.2,-2.8 2.8,-2.8 1.5,0 2.8,1.2 2.8,2.8 z"
             inkscape:connector-curvature="0"
             style="fill:none;stroke:#414042;stroke-width:1.5;stroke-miterlimit:10" />
          <path
             id="XMLID_238_"
             d="m 408.8,414.5 c 0,0.6 -0.5,1.1 -1.1,1.1 -0.6,0 -1.1,-0.5 -1.1,-1.1 0,-0.6 0.5,-1.1 1.1,-1.1 0.6,0 1.1,0.5 1.1,1.1 z"
             inkscape:connector-curvature="0"
             style="fill:#414042" />
          <line
             id="XMLID_815_"
             stroke-miterlimit="10"
             x1="429.10001"
             y1="412.20001"
             x2="419.29999"
             y2="412.20001"
             style="fill:none;stroke:#414042;stroke-width:1.5;stroke-miterlimit:10" />
          <path
             id="XMLID_813_"
             stroke-miterlimit="10"
             d="m 403.4,413.4 v 0 c 0,-1.9 1.5,-3.4 3.4,-3.4 h 9.2 c 1.9,0 3.4,1.5 3.4,3.4 v 0.7"
             inkscape:connector-curvature="0"
             style="fill:none;stroke:#414042;stroke-width:1.5;stroke-miterlimit:10" />
          <path
             id="XMLID_237_"
             d="m 428,408.5 h -24.5 c -0.6,0 -1.1,-0.5 -1.1,-1.1 v -15.5 c 0,-0.6 0.5,-1.1 1.1,-1.1 H 428 c 0.6,0 1.1,0.5 1.1,1.1 v 15.5 c 0,0.6 -0.5,1.1 -1.1,1.1 z"
             inkscape:connector-curvature="0"
             style="fill:#ffb936" />
          <path
             id="XMLID_236_"
             stroke-miterlimit="10"
             d="m 421,390.8 h 7 c 0.6,0 1.1,0.5 1.1,1.1 v 15.5 c 0,0.6 -0.5,1.1 -1.1,1.1 h -24.5 c -0.6,0 -1.1,-0.5 -1.1,-1.1 v -8.7"
             inkscape:connector-curvature="0"
             style="fill:none;stroke:#414042;stroke-width:1.5;stroke-miterlimit:10" />
          <rect
             id="XMLID_808_"
             x="405"
             y="395.20001"
             width="21.5"
             height="8.1000004"
             style="fill:#ffffff" />
          <line
             id="XMLID_807_"
             stroke-miterlimit="10"
             x1="438.5"
             y1="398.20001"
             x2="432.29999"
             y2="392.89999"
             style="fill:none;stroke:#414042;stroke-width:1.5;stroke-miterlimit:10" />
          <line
             id="XMLID_806_"
             stroke-miterlimit="10"
             x1="434.29999"
             y1="394.79999"
             x2="434.29999"
             y2="397.60001"
             style="fill:none;stroke:#414042;stroke-width:1.5;stroke-miterlimit:10" />
          <path
             id="XMLID_235_"
             stroke-miterlimit="10"
             d="m 440,399.1 c -0.2,-0.5 -0.7,-0.8 -1.2,-0.8 h -7.4 v 11.6 c 2.2,0 3.9,1.8 3.9,3.9 h 7 V 406 Z"
             inkscape:connector-curvature="0"
             style="fill:none;stroke:#414042;stroke-width:1.5;stroke-miterlimit:10" />
          <path
             id="XMLID_832_"
             d="m 443.1,413.8 c 0,0.2 -0.1,0.3 -0.3,0.3 h -3.1 c -0.2,0 -0.3,-0.1 -0.3,-0.3 V 412 c 0,-0.2 0.1,-0.3 0.3,-0.3 h 3.1 c 0.2,0 0.3,0.1 0.3,0.3 z"
             inkscape:connector-curvature="0"
             style="fill:#9ecfef" />
          <path
             id="XMLID_234_"
             stroke-miterlimit="10"
             d="m 443.1,413.8 c 0,0.2 -0.1,0.3 -0.3,0.3 h -3.1 c -0.2,0 -0.3,-0.1 -0.3,-0.3 V 412 c 0,-0.2 0.1,-0.3 0.3,-0.3 h 3.1 c 0.2,0 0.3,0.1 0.3,0.3 z"
             inkscape:connector-curvature="0"
             style="fill:#f1f2f2;stroke:#414042;stroke-width:1.5;stroke-miterlimit:10" />
          <line
             id="XMLID_233_"
             stroke-miterlimit="10"
             x1="417.89999"
             y1="397.60001"
             x2="425"
             y2="397.60001"
             style="fill:none;stroke:#414042;stroke-width:1.5;stroke-miterlimit:10" />
          <line
             id="XMLID_232_"
             stroke-miterlimit="10"
             x1="406.60001"
             y1="400.70001"
             x2="425"
             y2="400.70001"
             style="fill:none;stroke:#414042;stroke-width:1.5;stroke-miterlimit:10" />
        </g>
        <g
           id="XMLID_202_">
          <circle
             id="XMLID_520_"
             cx="409.5"
             cy="388.5"
             r="10.2"
             style="fill:#ffffff" />
          <path
             id="XMLID_225_"
             stroke-miterlimit="10"
             d="m 416.6,381.2 c 1.9,1.9 3.1,4.4 3.1,7.3 0,5.6 -4.6,10.2 -10.2,10.2 -5.6,0 -10.2,-4.6 -10.2,-10.2 0,-5.6 4.6,-10.2 10.2,-10.2 1,0 1.9,0.1 2.8,0.4"
             inkscape:connector-curvature="0"
             style="fill:none;stroke:#414042;stroke-width:1.5;stroke-miterlimit:10" />
          <path
             id="XMLID_224_"
             stroke-miterlimit="10"
             d="m 413.3,379.1 c 0.8,0.3 1.6,0.8 2.3,1.4"
             inkscape:connector-curvature="0"
             style="fill:none;stroke:#414042;stroke-width:1.5;stroke-miterlimit:10" />
          <path
             id="XMLID_519_"
             d="m 414.8,388.5 c 0,2.9 -2.4,5.3 -5.3,5.3 -2.9,0 -5.3,-2.4 -5.3,-5.3 0,-2.9 2.4,-5.3 5.3,-5.3 2.9,0 5.3,2.4 5.3,5.3 z"
             inkscape:connector-curvature="0"
             style="fill:#00d4ff" />
          <circle
             id="XMLID_518_"
             stroke-miterlimit="10"
             cx="409.5"
             cy="388.5"
             r="0.5"
             style="fill:none;stroke:#414042;stroke-width:1.5;stroke-miterlimit:10" />
          <line
             id="XMLID_223_"
             stroke-miterlimit="10"
             x1="409.5"
             y1="379.20001"
             x2="409.5"
             y2="381"
             style="fill:none;stroke:#414042;stroke-width:1.5;stroke-miterlimit:10" />
          <line
             id="XMLID_222_"
             stroke-miterlimit="10"
             x1="414.10001"
             y1="380.5"
             x2="413.20001"
             y2="382"
             style="fill:none;stroke:#414042;stroke-width:1.5;stroke-miterlimit:10" />
          <line
             id="XMLID_221_"
             stroke-miterlimit="10"
             x1="417.5"
             y1="383.89999"
             x2="416"
             y2="384.79999"
             style="fill:none;stroke:#414042;stroke-width:1.5;stroke-miterlimit:10" />
          <line
             id="XMLID_220_"
             stroke-miterlimit="10"
             x1="418.79999"
             y1="388.60001"
             x2="417"
             y2="388.5"
             style="fill:none;stroke:#414042;stroke-width:1.5;stroke-miterlimit:10" />
          <line
             id="XMLID_218_"
             stroke-miterlimit="10"
             x1="417.5"
             y1="393.20001"
             x2="416"
             y2="392.29999"
             style="fill:none;stroke:#414042;stroke-width:1.5;stroke-miterlimit:10" />
          <line
             id="XMLID_217_"
             stroke-miterlimit="10"
             x1="414.10001"
             y1="396.60001"
             x2="413.20001"
             y2="395.10001"
             style="fill:none;stroke:#414042;stroke-width:1.5;stroke-miterlimit:10" />
          <line
             id="XMLID_216_"
             stroke-miterlimit="10"
             x1="409.39999"
             y1="397.89999"
             x2="409.39999"
             y2="396.10001"
             style="fill:none;stroke:#414042;stroke-width:1.5;stroke-miterlimit:10" />
          <line
             id="XMLID_215_"
             stroke-miterlimit="10"
             x1="404.70001"
             y1="396.60001"
             x2="405.60001"
             y2="395"
             style="fill:none;stroke:#414042;stroke-width:1.5;stroke-miterlimit:10" />
          <line
             id="XMLID_214_"
             stroke-miterlimit="10"
             x1="401.29999"
             y1="393.10001"
             x2="402.89999"
             y2="392.29999"
             style="fill:none;stroke:#414042;stroke-width:1.5;stroke-miterlimit:10" />
          <line
             id="XMLID_213_"
             stroke-miterlimit="10"
             x1="400.10001"
             y1="388.39999"
             x2="401.89999"
             y2="388.5"
             style="fill:none;stroke:#414042;stroke-width:1.5;stroke-miterlimit:10" />
          <line
             id="XMLID_212_"
             stroke-miterlimit="10"
             x1="401.39999"
             y1="383.79999"
             x2="403"
             y2="384.70001"
             style="fill:none;stroke:#414042;stroke-width:1.5;stroke-miterlimit:10" />
          <line
             id="XMLID_211_"
             stroke-miterlimit="10"
             x1="404.89999"
             y1="380.39999"
             x2="405.79999"
             y2="381.89999"
             style="fill:none;stroke:#414042;stroke-width:1.5;stroke-miterlimit:10" />
          <g
             id="XMLID_641_">
            <g
               id="XMLID_286_">
              <polygon
                 id="XMLID_509_"
                 points="409,382.3 409.9,382.3 410.2,388.6 408.7,388.6 "
                 style="fill:#414042" />
            </g>
          </g>
          <g
             id="XMLID_205_">
            <g
               id="XMLID_62_">
              <polygon
                 id="XMLID_63_"
                 points="415,388 415,388.9 409.5,389.3 409.4,387.8 "
                 style="fill:#414042" />
            </g>
          </g>
        </g>
      </g>
      <g
         id="XMLID_475_">
        <path
           id="XMLID_500_"
           d="m 320.9,416.9 h -16.7 c -1.1,0 -2,-0.9 -2,-2 V 386 c 0,-1.1 0.9,-2 2,-2 h 16.7 c 1.1,0 2,0.9 2,2 v 28.9 c 0,1.1 -0.9,2 -2,2 z"
           inkscape:connector-curvature="0"
           style="fill:#ffffff" />
        <path
           id="XMLID_493_"
           stroke-miterlimit="10"
           d="m 302.2,394.5 v -8.6 c 0,-1 0.8,-1.8 1.8,-1.8 h 1.8 4.4 10.8 c 1,0 1.8,0.8 1.8,1.8 v 10.3"
           inkscape:connector-curvature="0"
           style="fill:none;stroke:#414042;stroke-width:1.5;stroke-miterlimit:10" />
        <path
           id="XMLID_492_"
           stroke-miterlimit="10"
           d="m 322.9,406.5 v 8.6 c 0,1 -0.8,1.8 -1.8,1.8 h -17 c -1,0 -1.8,-0.8 -1.8,-1.8 v -12.7"
           inkscape:connector-curvature="0"
           style="fill:none;stroke:#414042;stroke-width:1.5;stroke-miterlimit:10" />
        <line
           id="XMLID_491_"
           stroke-miterlimit="10"
           x1="309.5"
           y1="386.5"
           x2="315.60001"
           y2="386.5"
           style="fill:none;stroke:#414042;stroke-width:1.5;stroke-miterlimit:10" />
        <path
           id="XMLID_490_"
           stroke-miterlimit="10"
           d="m 313.5,414.2 c 0,0.5 -0.4,1 -1,1 -0.5,0 -1,-0.4 -1,-1 0,-0.6 0.4,-1 1,-1 0.6,0 1,0.5 1,1 z"
           inkscape:connector-curvature="0"
           style="fill:none;stroke:#414042;stroke-width:1.5;stroke-miterlimit:10" />
        <rect
           id="XMLID_489_"
           x="304.29999"
           y="388.79999"
           width="16.5"
           height="23.299999"
           style="fill:#00d4ff" />
        <g
           id="XMLID_476_">
          <line
             id="XMLID_488_"
             stroke-miterlimit="10"
             x1="320"
             y1="409.79999"
             x2="320.89999"
             y2="409.79999"
             style="fill:none;stroke:#414042;stroke-width:1.5;stroke-miterlimit:10" />
          <line
             id="XMLID_487_"
             stroke-miterlimit="10"
             x1="311.79999"
             y1="409.79999"
             x2="315.10001"
             y2="409.79999"
             style="fill:none;stroke:#414042;stroke-width:1.5;stroke-miterlimit:10" />
          <polyline
             id="XMLID_486_"
             stroke-miterlimit="10"
             points="296.8,395.8       301.9,396.2 306.3,409.8 307,409.8     "
             style="fill:none;stroke:#414042;stroke-width:1.5;stroke-miterlimit:10" />
          <line
             id="XMLID_791_"
             stroke-miterlimit="10"
             x1="302.89999"
             y1="398.79999"
             x2="323.79999"
             y2="398.79999"
             style="fill:none;stroke:#414042;stroke-width:1.5;stroke-miterlimit:10" />
          <line
             id="XMLID_795_"
             stroke-miterlimit="10"
             x1="303.60001"
             y1="401.20001"
             x2="322.60001"
             y2="401.20001"
             style="fill:none;stroke:#414042;stroke-width:1.5;stroke-miterlimit:10" />
          <line
             id="XMLID_796_"
             stroke-miterlimit="10"
             x1="304.10001"
             y1="403.5"
             x2="322.10001"
             y2="403.5"
             style="fill:none;stroke:#414042;stroke-width:1.5;stroke-miterlimit:10" />
          <path
             id="XMLID_788_"
             stroke-miterlimit="10"
             d="m 311.1,409.8 c 0,0.9 -0.8,1.7 -1.7,1.7 -0.9,0 -1.7,-0.8 -1.7,-1.7 0,-0.9 0.8,-1.7 1.7,-1.7 1,0 1.7,0.8 1.7,1.7 z"
             inkscape:connector-curvature="0"
             style="fill:none;stroke:#414042;stroke-width:1.5;stroke-miterlimit:10" />
          <path
             id="XMLID_784_"
             stroke-miterlimit="10"
             d="m 319.2,409.8 c 0,0.9 -0.8,1.7 -1.7,1.7 -0.9,0 -1.7,-0.8 -1.7,-1.7 0,-0.9 0.8,-1.7 1.7,-1.7 0.9,0 1.7,0.8 1.7,1.7 z"
             inkscape:connector-curvature="0"
             style="fill:none;stroke:#414042;stroke-width:1.5;stroke-miterlimit:10" />
          <polyline
             id="XMLID_485_"
             stroke-miterlimit="10"
             points="323.9,397.5       321.2,406.1 305.1,406.1     "
             style="fill:none;stroke:#414042;stroke-width:1.5;stroke-miterlimit:10" />
        </g>
      </g>
      <g
         id="XMLID_145_">
        <line
           id="XMLID_154_"
           stroke-miterlimit="10"
           x1="290.29999"
           y1="417.20001"
           x2="454.20001"
           y2="417.20001"
           style="fill:none;stroke:#414042;stroke-width:1.5;stroke-miterlimit:10" />
        <line
           id="XMLID_147_"
           stroke-miterlimit="10"
           x1="285.79999"
           y1="417.20001"
           x2="288.5"
           y2="417.20001"
           style="fill:none;stroke:#414042;stroke-width:1.5;stroke-miterlimit:10" />
        <line
           id="XMLID_146_"
           stroke-miterlimit="10"
           x1="455.70001"
           y1="417.20001"
           x2="461.79999"
           y2="417.20001"
           style="fill:none;stroke:#414042;stroke-width:1.5;stroke-miterlimit:10" />
      </g>
    </g>
  </g>
</svg>
