<?xml version="1.0" encoding="utf-8"?>
<!-- Generator: Adobe Illustrator 18.0.0, SVG Export Plug-In . SVG Version: 6.00 Build 0)  -->
<!DOCTYPE svg PUBLIC "-//W3C//DTD SVG 1.1//EN" "http://www.w3.org/Graphics/SVG/1.1/DTD/svg11.dtd">
<svg version="1.1" id="Layer_1" xmlns="http://www.w3.org/2000/svg" xmlns:xlink="http://www.w3.org/1999/xlink" x="0px" y="0px"
	 viewBox="0 0 129.5 129.5" enable-background="new 0 0 129.5 129.5" xml:space="preserve">
<g>
	<g>
		<rect x="19.3" y="99.3" fill="#FFFFFF" width="32.7" height="8.3"/>
		<polyline fill="#E6E9EE" points="15.4,128.7 15.4,107.6 55.8,107.6 55.8,128.7 		"/>
		<g>
			<circle fill="#FFFFFF" cx="22.3" cy="115.3" r="2.7"/>
			<path fill="#231F20" d="M22.3,118.8c-1.9,0-3.5-1.6-3.5-3.5c0-1.9,1.6-3.5,3.5-3.5s3.5,1.6,3.5,3.5
				C25.8,117.3,24.3,118.8,22.3,118.8z M22.3,113.3c-1.1,0-2,0.9-2,2c0,1.1,0.9,2,2,2c1.1,0,2-0.9,2-2
				C24.3,114.2,23.4,113.3,22.3,113.3z"/>
		</g>
		<path fill="#231F20" d="M14.6,57.5c-0.4,0-0.8-0.3-0.8-0.8v-0.9c0-0.4,0.3-0.8,0.8-0.8c0.4,0,0.8,0.3,0.8,0.8v0.9
			C15.3,57.2,15,57.5,14.6,57.5z"/>
		<path fill="#231F20" d="M11,63.3c-0.4,0-0.8-0.3-0.8-0.8v-1.1c0-0.4,0.3-0.8,0.8-0.8c0.4,0,0.8,0.3,0.8,0.8v1.1
			C11.8,62.9,11.4,63.3,11,63.3z"/>
		<path fill="#231F20" d="M7.2,66.6c-0.4,0-0.8-0.3-0.8-0.8v-1.4c0-0.4,0.3-0.8,0.8-0.8S8,64.1,8,64.5v1.4C8,66.3,7.6,66.6,7.2,66.6
			z"/>
		<path fill="#231F20" d="M114.9,58.5c-0.4,0-0.8-0.3-0.8-0.8v-1.9c0-0.4,0.3-0.8,0.8-0.8c0.4,0,0.8,0.3,0.8,0.8v1.9
			C115.7,58.2,115.3,58.5,114.9,58.5z"/>
		<path fill="#231F20" d="M118.5,63.3c-0.4,0-0.8-0.3-0.8-0.8v-1.1c0-0.4,0.3-0.8,0.8-0.8c0.4,0,0.8,0.3,0.8,0.8v1.1
			C119.2,62.9,118.9,63.3,118.5,63.3z"/>
		<path fill="#231F20" d="M122.3,66.6c-0.4,0-0.8-0.3-0.8-0.8v-1.4c0-0.4,0.3-0.8,0.8-0.8c0.4,0,0.8,0.3,0.8,0.8v1.4
			C123,66.3,122.7,66.6,122.3,66.6z"/>
		<rect x="77.6" y="99.3" fill="#FFFFFF" width="32.7" height="8.3"/>
		<polyline fill="#E6E9EE" points="114.1,128.7 114.1,107.6 73.7,107.6 73.7,128.7 		"/>
		<g>
			<circle fill="#FFFFFF" cx="107.2" cy="115.3" r="2.7"/>
			<path fill="#231F20" d="M107.2,118.8c-1.9,0-3.5-1.6-3.5-3.5c0-1.9,1.6-3.5,3.5-3.5c1.9,0,3.5,1.6,3.5,3.5
				C110.7,117.3,109.1,118.8,107.2,118.8z M107.2,113.3c-1.1,0-2,0.9-2,2c0,1.1,0.9,2,2,2c1.1,0,2-0.9,2-2
				C109.2,114.2,108.3,113.3,107.2,113.3z"/>
		</g>
		<g>
			<g>
				<path fill="#231F20" d="M104.1,8.8c-0.2,0-0.4-0.1-0.5-0.2c-0.3-0.3-0.3-0.8,0-1.1l1.3-1.3c0.3-0.3,0.8-0.3,1.1,0
					c0.3,0.3,0.3,0.8,0,1.1l-1.3,1.3C104.5,8.7,104.3,8.8,104.1,8.8z"/>
			</g>
			<g>
				<path fill="#231F20" d="M100.1,12.8c-0.2,0-0.4-0.1-0.5-0.2c-0.3-0.3-0.3-0.8,0-1.1l1.3-1.3c0.3-0.3,0.8-0.3,1.1,0
					c0.3,0.3,0.3,0.8,0,1.1l-1.3,1.3C100.5,12.8,100.3,12.8,100.1,12.8z"/>
			</g>
			<g>
				<path fill="#231F20" d="M105.4,12.8c-0.2,0-0.4-0.1-0.5-0.2l-1.3-1.3c-0.3-0.3-0.3-0.8,0-1.1c0.3-0.3,0.8-0.3,1.1,0l1.3,1.3
					c0.3,0.3,0.3,0.8,0,1.1C105.8,12.8,105.6,12.8,105.4,12.8z"/>
			</g>
			<g>
				<path fill="#231F20" d="M101.4,8.8c-0.2,0-0.4-0.1-0.5-0.2l-1.3-1.3c-0.3-0.3-0.3-0.8,0-1.1c0.3-0.3,0.8-0.3,1.1,0l1.3,1.3
					c0.3,0.3,0.3,0.8,0,1.1C101.7,8.7,101.5,8.8,101.4,8.8z"/>
			</g>
		</g>
		<g>
			<g>
				<path fill="#231F20" d="M27.9,19.8c-0.2,0-0.4-0.1-0.5-0.2c-0.3-0.3-0.3-0.8,0-1.1l1.3-1.3c0.3-0.3,0.8-0.3,1.1,0
					c0.3,0.3,0.3,0.8,0,1.1l-1.3,1.3C28.3,19.8,28.1,19.8,27.9,19.8z"/>
			</g>
			<g>
				<path fill="#231F20" d="M23.9,23.9c-0.2,0-0.4-0.1-0.5-0.2c-0.3-0.3-0.3-0.8,0-1.1l1.3-1.3c0.3-0.3,0.8-0.3,1.1,0
					c0.3,0.3,0.3,0.8,0,1.1l-1.3,1.3C24.3,23.8,24.1,23.9,23.9,23.9z"/>
			</g>
			<g>
				<path fill="#231F20" d="M29.2,23.9c-0.2,0-0.4-0.1-0.5-0.2l-1.3-1.3c-0.3-0.3-0.3-0.8,0-1.1c0.3-0.3,0.8-0.3,1.1,0l1.3,1.3
					c0.3,0.3,0.3,0.8,0,1.1C29.6,23.8,29.4,23.9,29.2,23.9z"/>
			</g>
			<g>
				<path fill="#231F20" d="M25.2,19.8c-0.2,0-0.4-0.1-0.5-0.2l-1.3-1.3c-0.3-0.3-0.3-0.8,0-1.1c0.3-0.3,0.8-0.3,1.1,0l1.3,1.3
					c0.3,0.3,0.3,0.8,0,1.1C25.6,19.8,25.4,19.8,25.2,19.8z"/>
			</g>
		</g>
		<g>
			<circle fill="#FFD05B" cx="64.8" cy="24.1" r="23.4"/>
		</g>
		<g>
			<path fill="#231F20" d="M47.5,24.1H46c0-0.3,0-0.7,0-1l1.5,0.1C47.5,23.5,47.5,23.8,47.5,24.1z M47.7,21.2L46.3,21
				c0.1-0.3,0.1-0.7,0.2-1l1.5,0.3C47.8,20.6,47.8,20.9,47.7,21.2z M48.4,18.5L47,18c0.1-0.3,0.2-0.7,0.4-1l1.4,0.6
				C48.7,17.9,48.5,18.2,48.4,18.5z M49.6,15.8l-1.3-0.7c0.2-0.3,0.3-0.6,0.5-0.9l1.3,0.8C49.9,15.3,49.8,15.6,49.6,15.8z
				 M51.2,13.4L50,12.5c0.2-0.3,0.4-0.5,0.7-0.8l1.1,1C51.6,12.9,51.4,13.2,51.2,13.4z M53.1,11.3l-1-1.1c0.3-0.2,0.5-0.5,0.8-0.7
				l0.9,1.2C53.6,10.9,53.4,11.1,53.1,11.3z M55.4,9.6l-0.8-1.3c0.3-0.2,0.6-0.4,0.9-0.5l0.7,1.3C56,9.2,55.7,9.4,55.4,9.6z M58,8.2
				l-0.6-1.4c0.3-0.1,0.6-0.3,1-0.4l0.5,1.4C58.5,8,58.3,8.1,58,8.2z M60.7,7.3l-0.4-1.5c0.3-0.1,0.7-0.2,1-0.2l0.3,1.5
				C61.3,7.2,61,7.3,60.7,7.3z M63.5,6.9l-0.1-1.5c0.3,0,0.7,0,1,0l0,1.5C64.2,6.9,63.8,6.9,63.5,6.9z"/>
		</g>
		<g>
			<path fill="#231F20" d="M64.8,42.9c-9.8,0-18-7.7-18.7-17.5l1.5-0.1c0.6,9,8.2,16.1,17.2,16.1c9.5,0,17.3-7.7,17.3-17.3
				C82,15,74.9,7.5,65.9,6.9L66,5.4c9.8,0.6,17.5,8.9,17.5,18.7C83.5,34.4,75.1,42.9,64.8,42.9z"/>
		</g>
		<g>
			<path fill="#231F20" d="M69.1,33.4h-8.8c-1.9,0-3.5-1.6-3.5-3.5c0-0.4,0.3-0.8,0.8-0.8c0.4,0,0.8,0.3,0.8,0.8c0,1.1,0.9,2,2,2
				h8.8c1.1,0,2-0.9,2-2v-3c0-1.1-0.9-2-2-2h-8.8c-1.9,0-3.5-1.6-3.5-3.5v-3c0-1.9,1.6-3.5,3.5-3.5h8.8c1.9,0,3.5,1.6,3.5,3.5
				c0,0.4-0.3,0.8-0.8,0.8c-0.4,0-0.8-0.3-0.8-0.8c0-1.1-0.9-2-2-2h-8.8c-1.1,0-2,0.9-2,2v3c0,1.1,0.9,2,2,2h8.8
				c1.9,0,3.5,1.6,3.5,3.5v3C72.7,31.8,71.1,33.4,69.1,33.4z"/>
		</g>
		<g>
			<path fill="#231F20" d="M64.8,35.7c-0.4,0-0.8-0.3-0.8-0.8V13.3c0-0.4,0.3-0.8,0.8-0.8c0.4,0,0.8,0.3,0.8,0.8V35
				C65.5,35.4,65.2,35.7,64.8,35.7z"/>
		</g>
		<g>
			<circle fill="#84DBFF" cx="93.7" cy="42.1" r="3.6"/>
		</g>
		<g>
			<circle fill="#E6E9EE" cx="123" cy="5.5" r="2.9"/>
		</g>
		<g>
			<circle fill="#FF7058" cx="34.8" cy="37.9" r="2.6"/>
		</g>
		<rect x="33.5" y="61.4" fill="#FFFFFF" width="62.4" height="29.6"/>
		<path fill="#231F20" d="M128.8,41.6c-0.9,0-1.7,0.2-2.5,0.5v-6.4c0-0.4-0.3-0.8-0.8-0.8c-1,0-1.9,0.2-2.8,0.5v-4.1
			c0-0.4-0.3-0.8-0.8-0.8c-1,0-1.9,0.2-2.8,0.5v-2.6c0-0.4-0.3-0.8-0.8-0.8c-4.3,0-7.8,3.5-7.8,7.8v19.6c0,1.2-0.4,2.4-1,3.4
			c-0.6,1-1.6,1.8-2.6,2.3l-10.3,4.7v-4.2c0-0.4-0.3-0.8-0.8-0.8H91v-3.1c0-4.5-3.6-8.1-8.1-8.1c-0.4,0-0.8,0.3-0.8,0.8v10.4H47.3
			V50.2c0-0.4-0.3-0.8-0.8-0.8c-4.5,0-8.1,3.6-8.1,8.1v3.1h-4.9c-0.4,0-0.8,0.3-0.8,0.8v4.2l-10.3-4.7c-1.1-0.5-2-1.3-2.6-2.3
			c-0.7-1-1-2.2-1-3.4V35.5c0-4.3-3.5-7.8-7.8-7.8c-0.4,0-0.8,0.3-0.8,0.8v2.6c-0.9-0.3-1.8-0.5-2.8-0.5c-0.4,0-0.8,0.3-0.8,0.8v4.1
			C5.9,35.1,5,34.9,4,34.9c-0.4,0-0.7,0.3-0.7,0.8v6.4c-0.8-0.3-1.6-0.5-2.5-0.5c-0.4,0-0.8,0.3-0.8,0.8v26c0,4.9,2.7,9.4,7,11.8
			l11.8,6.4c3.4,1.9,5.6,5.5,5.6,9.4v2.6h-5.1c-0.4,0-0.8,0.3-0.8,0.8v7.5h-3.1c-0.4,0-0.8,0.3-0.8,0.8v21.2h1.5v-20.4H55v20.4h1.5
			v-21.2c0-0.4-0.3-0.8-0.8-0.8h-3.1v-7.5c0-0.4-0.3-0.8-0.8-0.8h-4.6v-6.8h34.8v6.8h-4.6c-0.4,0-0.8,0.3-0.8,0.8v7.5h-3.1
			c-0.4,0-0.8,0.3-0.8,0.8v21.2h1.5v-20.4h38.9v20.4h1.5v-21.2c0-0.4-0.3-0.8-0.8-0.8H111v-7.5c0-0.4-0.3-0.8-0.8-0.8h-5.1v-2.6
			c0-3.9,2.1-7.5,5.6-9.4l11.8-6.4c4.3-2.3,7-6.9,7-11.8v-26C129.5,41.9,129.2,41.6,128.8,41.6z M83.7,51c3.3,0.4,5.9,3.2,5.9,6.6
			v3.1h-5.9V51z M40,57.6c0-3.4,2.6-6.2,5.9-6.6v9.6H40V57.6z M51.2,106.8H20v-6.8h31.2V106.8z M25.8,98.6v-2.6
			c0-4.5-2.4-8.6-6.4-10.7L7.7,78.9c-3.8-2.1-6.2-6.1-6.2-10.5V43.1c2.8,0.4,5,3,5,6.2V62c0,0.4,0.3,0.8,0.8,0.8S8,62.5,8,62V49.3
			c0-2.7-1.3-5-3.2-6.4v-6.4c1.4,0.2,2.7,0.8,3.7,1.8c1.2,1.2,1.8,2.7,1.8,4.4v16c0,0.4,0.3,0.8,0.8,0.8c0.4,0,0.8-0.3,0.8-0.8v-16
			c0-2.1-0.8-4-2.3-5.5c-0.4-0.4-0.8-0.7-1.2-1v-4.1c3.1,0.4,5.5,3,5.5,6.2v15.1c0,0.4,0.3,0.8,0.8,0.8c0.4,0,0.8-0.3,0.8-0.8V38.4
			c0-2.7-1.4-5.1-3.5-6.5v-2.6c3.1,0.4,5.5,3,5.5,6.2v19.6c0,1.5,0.4,3,1.3,4.2c0.8,1.2,1.9,2.2,3.3,2.8l10.9,5V91
			c0,0.4,0.3,0.8,0.8,0.8h12.3v6.8H25.8z M34.3,90.2V62.1h60.9v28.1H34.3z M109.5,106.8H78.3v-6.8h31.2V106.8z M128,68.4
			c0,4.4-2.4,8.4-6.2,10.5L110,85.3c-3.9,2.1-6.4,6.2-6.4,10.7v2.6h-20v-6.8H96c0.4,0,0.8-0.3,0.8-0.8V67.2l10.9-5
			c1.3-0.6,2.5-1.6,3.3-2.8c0.8-1.3,1.3-2.7,1.3-4.2V35.5c0-3.2,2.4-5.8,5.5-6.2v2.6c-2.1,1.4-3.5,3.8-3.5,6.5v15.1
			c0,0.4,0.3,0.8,0.8,0.8c0.4,0,0.8-0.3,0.8-0.8V38.4c0-3.2,2.4-5.8,5.5-6.2v4.1c-0.4,0.3-0.8,0.6-1.2,1c-1.5,1.5-2.3,3.4-2.3,5.5
			v16c0,0.4,0.3,0.8,0.8,0.8c0.4,0,0.8-0.3,0.8-0.8v-16c0-1.7,0.7-3.3,1.8-4.4c1-1,2.3-1.6,3.7-1.8v6.4c-1.9,1.4-3.2,3.7-3.2,6.4V62
			c0,0.4,0.3,0.8,0.8,0.8c0.4,0,0.8-0.3,0.8-0.8V49.3c0-3.2,2.2-5.8,5-6.2V68.4z"/>
		<g>
			<path fill="#4CDBC4" d="M36.5,82V70.4c3.3,0,6-2.7,6-6H87c0,3.3,2.7,6,6,6V82c-3.3,0-6,2.7-6,6H42.5C42.5,84.7,39.9,82,36.5,82z"
				/>
		</g>
		<g>
			<circle fill="#FFFFFF" cx="64.7" cy="76.2" r="9"/>
			<path fill="#231F20" d="M64.8,86c-5.4,0-9.8-4.4-9.8-9.8c0-5.4,4.4-9.8,9.8-9.8c5.4,0,9.8,4.4,9.8,9.8C74.5,81.6,70.2,86,64.8,86
				z M64.8,67.9c-4.6,0-8.3,3.7-8.3,8.3c0,4.6,3.7,8.3,8.3,8.3c4.6,0,8.3-3.7,8.3-8.3C73,71.6,69.3,67.9,64.8,67.9z"/>
		</g>
		<g>
			<g>
				<circle fill="#FFFFFF" cx="82.2" cy="76.2" r="3.3"/>
				<path fill="#231F20" d="M82.2,80.2c-2.2,0-4-1.8-4-4c0-2.2,1.8-4,4-4s4,1.8,4,4C86.2,78.4,84.4,80.2,82.2,80.2z M82.2,73.7
					c-1.4,0-2.5,1.1-2.5,2.5c0,1.4,1.1,2.5,2.5,2.5c1.4,0,2.5-1.1,2.5-2.5C84.7,74.8,83.5,73.7,82.2,73.7z"/>
			</g>
			<g>
				<circle fill="#FFFFFF" cx="47.3" cy="76.2" r="3.3"/>
				<path fill="#231F20" d="M47.3,80.2c-2.2,0-4-1.8-4-4c0-2.2,1.8-4,4-4c2.2,0,4,1.8,4,4C51.4,78.4,49.6,80.2,47.3,80.2z
					 M47.3,73.7c-1.4,0-2.5,1.1-2.5,2.5c0,1.4,1.1,2.5,2.5,2.5c1.4,0,2.5-1.1,2.5-2.5C49.9,74.8,48.7,73.7,47.3,73.7z"/>
			</g>
		</g>
	</g>
</g>
</svg>
