<svg xmlns="http://www.w3.org/2000/svg" xmlns:xlink="http://www.w3.org/1999/xlink" viewBox="0 0 129.5 129.5"><g fill="#231F20"><path d="M8.2 6.5c-.2 0-.4 0-.6-.2-.3-.3-.3-.7 0-1L8.9 4c.3-.3.8-.3 1.1 0s.3.8 0 1.1L8.7 6.3c-.2.2-.3.2-.5.2zm-4.1 4.1c-.2 0-.4-.1-.5-.2-.3-.3-.3-.8 0-1.1L4.9 8c.3-.3.8-.3 1.1 0s.3.8 0 1.1l-1.3 1.3c-.2.1-.4.2-.6.2zm5.4 0c-.2 0-.4-.1-.5-.2L7.6 9.1c-.3-.3-.3-.8 0-1.1s.8-.3 1.1 0L10 9.3c.3.3.3.8 0 1.1-.2.1-.4.2-.5.2zM5.4 6.5c-.2 0-.4 0-.5-.2L3.6 5c-.3-.3-.3-.7 0-1s.8-.3 1.1 0L6 5.3a.91.91 0 0 1 0 1c-.2.2-.4.2-.6.2z"/><use xlink:href="#B"/><use xlink:href="#B" x="-4" y="4"/><use xlink:href="#C"/><use xlink:href="#C" x="-4" y="-4"/><path d="M55.5 85.8c-.2 0-.4-.1-.5-.2-.3-.3-.3-.8 0-1.1l1.3-1.3c.3-.3.8-.3 1.1 0s.3.8 0 1.1l-1.3 1.3c-.2.2-.4.2-.6.2zm-4 4.1c-.2 0-.4-.1-.5-.2-.3-.3-.3-.8 0-1.1l1.3-1.3c.3-.3.8-.3 1.1 0s.3.8 0 1.1L52 89.7c-.1.1-.3.2-.5.2zm5.3 0c-.2 0-.4-.1-.5-.2L55 88.4c-.3-.3-.3-.8 0-1.1s.8-.3 1.1 0l1.3 1.3c.3.3.3.8 0 1.1-.2.1-.4.2-.6.2zm-4-4.1c-.2 0-.4-.1-.5-.2L51 84.3c-.3-.3-.3-.8 0-1.1s.8-.3 1.1 0l1.3 1.3c.3.3.3.8 0 1.1-.2.2-.4.2-.6.2zm14 21.8h-8.1c-.4 0-.8-.3-.8-.8 0-.4.3-.8.8-.8h8.1c.4 0 .8.3.8.8s-.3.8-.8.8zm3.2 3h-4c-.4 0-.8-.3-.8-.8 0-.4.3-.8.8-.8h4c.4 0 .8.3.8.8s-.4.8-.8.8zm4.3-3h-3.8c-.4 0-.8-.3-.8-.8 0-.4.3-.8.8-.8h3.8c.4 0 .8.3.8.8-.1.5-.4.8-.8.8zm-11.1 3h-.8c-.4 0-.8-.3-.8-.8 0-.4.3-.8.8-.8h.8c.4 0 .8.3.8.8-.1.5-.4.8-.8.8z"/></g><path d="M128.8 128.8v-3.7c0-12.1-9.8-21.8-21.8-21.8-12.1 0-21.8 9.8-21.8 21.8v3.7h43.6z" fill="#FFD05B"/><g fill="#fff"><path d="M112.6,98h-11.5v9.6c0,2.9,2.4,5.3,5.3,5.3h0.9c2.9,0,5.3-2.4,5.3-5.3V98z"/><path d="M122 86.6c-.5-.4-1.1-.5-1.8-.4-.2-9.3-6-14.1-13.2-14.1s-13.1 4.8-13.2 14.1c-.7-.1-1.3 0-1.8.4-1.1.9-.9 3 .4 4.6.6.7 1.4 1.2 2.1 1.5 1.8 7.6 6.7 14.3 12.5 14.3s10.7-6.7 12.5-14.3c.7-.2 1.5-.8 2.1-1.5 1.3-1.7 1.5-3.7.4-4.6z"/></g><path d="M44.4 128.8v-3.7c0-12.1-9.8-21.8-21.8-21.8-12.1 0-21.8 9.8-21.8 21.8v3.7h43.6z" fill="#FF7058"/><g fill="#fff"><path d="M28.3,98H16.9v9.6c0,2.9,2.4,5.3,5.3,5.3H23c2.9,0,5.3-2.4,5.3-5.3V98z"/><path d="M37.7 86.6c-.5-.4-1.1-.5-1.8-.4-.2-9.3-6-14.1-13.2-14.1S9.6 76.9 9.5 86.2c-.7-.1-1.3 0-1.8.4-1.1.9-.9 3 .4 4.6.6.7 1.4 1.2 2.1 1.5 1.8 7.6 6.7 14.3 12.5 14.3s10.7-6.7 12.5-14.3c.7-.2 1.5-.8 2.1-1.5 1.3-1.7 1.5-3.7.4-4.6z"/></g><circle cx="34.7" cy="28.1" r="1.9" fill="#FF7058"/><circle cx="78" cy="76.9" r="1.9" fill="#E6E9EE"/><g fill="#84DBFF"><circle cx="63" cy="125.1" r="1.9"/><circle cx="119.3" cy="28.6" r="1.9"/></g><g fill="#E6E9EE"><circle cx="8.9" cy="19.4" r="1.9"/><path d="M108 62.7c-1.6-4.3-4.3-9.5-7.1-12.8l7.1 2.6 7.1-2.6c-2.8 3.3-5.5 8.6-7.1 12.8z"/></g><path d="M88.2 61.6v-3.9c0-12.9-10.5-23.4-23.4-23.4S41.4 44.8 41.4 57.7v3.9h46.8z" fill="#84DBFF"/><g fill="#fff"><path d="M70.9,28.6H58.6v10.7c0,2.9,2.4,5.3,5.3,5.3h1.7c2.9,0,5.3-2.4,5.3-5.3V28.6z"/><path d="M80.9 16.3c-.5-.4-1.2-.6-2-.4C78.7 5.9 72.4.7 64.7.7s-14 5.2-14.2 15.2c-.7-.1-1.4 0-2 .4-1.2 1-1 3.2.4 4.9.7.8 1.5 1.3 2.3 1.6 1.9 8.1 7.2 15.3 13.4 15.3S76.1 30.9 78 22.8c.8-.3 1.6-.8 2.3-1.6 1.6-1.7 1.8-3.9.6-4.9z"/></g><path d="M21.5 62.7c-1.6-4.3-4.3-9.5-7.1-12.8l7.1 2.6 7.1-2.6c-2.8 3.3-5.5 8.6-7.1 12.8z" fill="#E6E9EE"/><path d="M114.6 103.9c2.6-2.8 4.5-6.8 5.5-10.7.8-.3 1.5-.9 2.1-1.6 1.6-2 1.8-4.4.3-5.6-.4-.4-1-.6-1.6-.6-.5-8.6-5.9-14.1-14-14.1s-13.5 5.5-14 14.1c-.6 0-1.2.2-1.6.6-1.5 1.2-1.3 3.7.3 5.6.6.7 1.3 1.2 2.1 1.6 1 3.9 2.9 7.8 5.5 10.6-8.7 3.2-14.9 11.5-14.9 21.2v4.4h45.2V125c0-9.7-6.2-18-14.9-21.1zM95.1 92.5l-.1-.4-.4-.1c-.7-.2-1.3-.7-1.8-1.3-1.1-1.3-1.3-2.9-.5-3.5.2-.2.5-.3.8-.3h.4l.9.1v-.9c.2-8.1 5.1-13.4 12.5-13.4s12.3 5.3 12.5 13.4v.9l.9-.1c.5-.1.9 0 1.2.2.8.7.5 2.3-.5 3.5-.5.6-1.1 1-1.8 1.3l-.4.1-.1.4c-1.6 6.8-6.2 13.7-11.8 13.7s-10.2-6.8-11.8-13.6zm16.8 13.6v1.5a4.48 4.48 0 0 1-4.5 4.5h-.9a4.48 4.48 0 0 1-4.5-4.5v-1.5c1.5 1 3.2 1.5 5 1.5 1.7 0 3.4-.5 4.9-1.5zM128 128h-8v-6.6h-1.5v6.6H95.3v-6.6h-1.5v6.6h-8v-2.9c0-9.4 6.1-17.3 14.6-20v2.6a6.02 6.02 0 0 0 6 6h.9a6.02 6.02 0 0 0 6-6v-2.5c8.5 2.7 14.6 10.6 14.6 20v2.8zm-97.7-24.1c2.6-2.8 4.5-6.8 5.5-10.7.8-.3 1.5-.9 2.1-1.6.7-.9 1.2-1.9 1.3-3s-.3-2.1-1-2.7c-.4-.4-1-.6-1.6-.6-.5-8.6-5.9-14.1-14-14.1s-13.5 5.5-14 14.1c-.6.1-1.1.3-1.6.7-1.5 1.2-1.3 3.7.3 5.6.6.7 1.3 1.2 2.1 1.6 1 3.9 2.9 7.8 5.5 10.6C6.2 107 0 115.3 0 125.1v4.4h45.2v-4.4c0-9.8-6.2-18.1-14.9-21.2zM10.8 92.5l-.1-.4-.4-.1c-.7-.2-1.3-.7-1.8-1.3-1.1-1.3-1.3-2.9-.5-3.5.2-.2.5-.3.8-.3h.4l.9.1v-.9c.2-8.1 5.1-13.4 12.5-13.4S34.9 78 35.1 86.1v.9l.9-.1c.5-.1.9 0 1.2.2.5.4.5 1 .4 1.4-.1.7-.4 1.5-1 2.1-.5.6-1.1 1-1.8 1.3l-.4.1-.1.4c-1.6 6.8-6.2 13.7-11.8 13.7-5.5 0-10.1-6.8-11.7-13.6zm16.8 13.6v1.5a4.48 4.48 0 0 1-4.5 4.5h-.9a4.48 4.48 0 0 1-4.5-4.5v-1.5c1.5 1 3.2 1.5 5 1.5 1.7 0 3.4-.5 4.9-1.5zM43.7 128h-8v-6.6h-1.5v6.6H11v-6.6H9.5v6.6h-8v-2.9c0-9.4 6.1-17.3 14.6-20v2.6a6.02 6.02 0 0 0 6 6h.9a6.02 6.02 0 0 0 6-6V105a21.02 21.02 0 0 1 14.6 20v3z" fill="#231F20"/><path d="M78 61.6v-7.9m-26.5 7.9v-7.9" fill="#fff"/><path d="M115.8 49.5c-.2-.3-.6-.4-.9-.3l-6.1 2.2V14.1H91.2v1.5h16v35.8l-6.1-2.2c-.3-.1-.7 0-.9.3s-.2.7.1.9c3 3.4 5.6 8.9 7 12.6.1.3.4.5.7.5s.6-.2.7-.5c1.4-3.7 4-9.2 7-12.6.2-.3.3-.7.1-.9zM108 60.7c-1.2-2.9-3-6.4-4.9-9.2l4.7 1.7a.45.45 0 0 0 .5 0l4.7-1.7c-2 2.8-3.8 6.2-5 9.2zm-87.3-9.3l-6.1-2.2c-.3-.1-.7 0-.9.3s-.2.7.1.9c3 3.4 5.6 8.9 7 12.6.1.3.4.5.7.5s.6-.2.7-.5c1.4-3.7 4-9.2 7-12.6.2-.3.2-.6.1-.9-.2-.3-.6-.4-.9-.3l-6.1 2.2V15.6h16v-1.5H20.7v37.3zm.8 9.3c-1.2-2.9-3-6.4-4.9-9.2l4.7 1.7a.45.45 0 0 0 .5 0l4.7-1.7c-2.1 2.8-3.8 6.2-5 9.2zm20-46.6h1v1.5h-1zm3 0h1v1.5h-1zm-6 0h1v1.5h-1zm48.5 0h1v1.5h-1zm-3 0h1v1.5h-1zm6 0h1v1.5h-1zM72.9 34.9c2.8-3 4.9-7.3 5.9-11.5.8-.4 1.6-.9 2.2-1.7.8-.9 1.3-2.1 1.4-3.1.1-1.2-.3-2.2-1-2.8-.1-.1-.1-.1-.2-.1h.8v-1.5h-1v1.4c-.4-.2-.8-.3-1.3-.4C79.2 5.9 73.4 0 64.7 0S50.3 5.9 49.8 15.1c-.5 0-.9.1-1.3.4v-1.4h-1v1.5h.8c-.1 0-.1.1-.2.1-.8.6-1.1 1.7-1 2.8s.6 2.2 1.4 3.1c.6.7 1.4 1.3 2.2 1.7 1.1 4.2 3.1 8.5 5.9 11.5-9.3 3.4-16 12.3-16 22.7v4.7H89v-4.7c-.1-10.3-6.8-19.3-16.1-22.6zM52 22.7l-.1-.4-.4-.1c-.7-.2-1.4-.7-1.9-1.4-.6-.7-1-1.6-1-2.3 0-.4 0-1.1.5-1.5.2-.2.5-.3.9-.3h.4l.9.1v-.9c.2-8.8 5.5-14.4 13.5-14.4S78 7.2 78.2 15.9v.9l.9-.1c.5-.1 1 0 1.3.3.5.4.5 1.2.5 1.5-.1.8-.4 1.6-1 2.3-.5.7-1.2 1.1-1.9 1.4l-.4.1-.1.4c-1.7 7.3-6.7 14.7-12.7 14.7S53.8 30 52 22.7zm18.2 14.5v2.1a4.48 4.48 0 0 1-4.5 4.5H64a4.48 4.48 0 0 1-4.5-4.5v-2.1c1.6 1.1 3.4 1.7 5.4 1.7 1.8 0 3.6-.6 5.3-1.7zm17.2 23.6h-8.7v-7.2h-1.5v7.2h-25v-7.2h-1.5v7.2H42v-3.2C42 47.5 48.6 39 57.7 36v3.2a6.02 6.02 0 0 0 6 6h1.7a6.02 6.02 0 0 0 6-6V36c9.1 2.9 15.8 11.5 15.8 21.6v3.2z" fill="#231F20"/><defs ><path id="B" d="M120.6 11.9c-.2 0-.4-.1-.5-.2-.3-.3-.3-.8 0-1.1l1.3-1.3c.3-.3.8-.3 1.1 0s.3.8 0 1.1l-1.3 1.3c-.2.1-.4.2-.6.2z"/><path id="C" d="M121.9 15.9c-.2 0-.4-.1-.5-.2l-1.3-1.3c-.3-.3-.3-.8 0-1.1s.8-.3 1.1 0l1.3 1.3c.3.3.3.8 0 1.1-.2.1-.4.2-.6.2z"/></defs></svg>