<svg xmlns="http://www.w3.org/2000/svg" xmlns:xlink="http://www.w3.org/1999/xlink" viewBox="0 0 129.5 129.5"><g fill="#231f20"><use xlink:href="#B"/><path d="M116.6 10.8c-.2 0-.4-.1-.5-.2-.3-.3-.3-.8 0-1.1l1.3-1.3c.3-.3.8-.3 1.1 0s.3.8 0 1.1l-1.3 1.3c-.2.2-.4.2-.6.2zm5.4 0c-.2 0-.4-.1-.5-.2l-1.3-1.3c-.3-.3-.3-.8 0-1.1s.8-.3 1.1 0l1.3 1.3c.3.3.3.8 0 1.1-.3.2-.4.2-.6.2zm-4.1-4.1c-.2 0-.4-.1-.5-.2L116 5.2c-.3-.3-.3-.8 0-1.1s.8-.3 1.1 0l1.3 1.3c.3.3.3.8 0 1.1-.1.2-.3.2-.5.2zM9 8.1c-.2 0-.4-.1-.5-.2-.3-.3-.3-.8 0-1.1l1.3-1.3c.3-.3.8-.3 1.1 0s.3.8 0 1.1L9.5 7.9c-.2.2-.3.2-.5.2zm-4.1 4.1c-.2 0-.4-.1-.5-.2-.3-.3-.3-.8 0-1.1l1.3-1.3c.3-.3.8-.3 1.1 0s.3.8 0 1.1L5.4 12c-.1.1-.3.2-.5.2z"/><use xlink:href="#C"/><path d="M6.2 8.1c-.2 0-.4 0-.6-.2L4.3 6.6c-.3-.3-.3-.8 0-1 .3-.3.8-.3 1.1 0l1.3 1.3c.3.2.3.7 0 1-.1.2-.3.2-.5.2z"/><use xlink:href="#B" y="111.9"/><path d="M116.6 122.7c-.2 0-.4-.1-.5-.2-.3-.3-.3-.8 0-1.1l1.3-1.3c.3-.3.8-.3 1.1 0s.3.8 0 1.1l-1.3 1.3c-.2.1-.4.2-.6.2z"/><use xlink:href="#C" x="111.7" y="110.5"/><path d="M117.9 118.6c-.2 0-.4-.1-.5-.2l-1.3-1.3c-.3-.3-.3-.8 0-1.1s.8-.3 1.1 0l1.3 1.3c.3.3.3.8 0 1.1-.2.2-.4.2-.6.2z"/></g><circle fill="#ff7058" cx="9.6" cy="116.6" r="2.2"/><circle fill="#f1543f" cx="105.5" cy="4.6" r="2.2"/><path fill="#231f20" d="M64.8 125.4v-1.5h1v1.5h-1zm-2 0h-1l.1-1.5h1l-.1 1.5zm5.1-.1l-.1-1.5c.3 0 .7 0 1-.1l.1 1.5c-.3.1-.7.1-1 .1zm-8.1-.1c-.3 0-.7-.1-1-.1l.1-1.5c.3 0 .7.1 1 .1l-.1 1.5zm11.1-.1l-.1-1.5c.3 0 .7-.1 1-.1l.2 1.5c-.4 0-.8 0-1.1.1zm-14.1-.2c-.3 0-.7-.1-1-.1l.2-1.5c.3 0 .7.1 1 .1l-.2 1.5zm17.1-.2l-.2-1.5c.3 0 .7-.1 1-.2l.2 1.5c-.3.1-.6.1-1 .2zm-20.1-.3c-.3-.1-.7-.1-1-.2l.3-1.5c.3.1.6.1 1 .2l-.3 1.5zm23.1-.2l-.3-1.5c.3-.1.6-.1 1-.2l.3 1.5c-.3 0-.7.1-1 .2zm-26.1-.4c-.3-.1-.7-.2-1-.2l.4-1.5c.3.1.6.2 1 .2l-.4 1.5zm29.1-.3l-.4-1.5 1-.3.4 1.4c-.4.2-.7.3-1 .4zm-32-.5l-1-.3.4-1.4.9.3-.3 1.4zm34.9-.3l-.4-1.4.9-.3.5 1.4-1 .3zm-37.8-.6l-1-.3.5-1.4.9.3-.4 1.4zm40.7-.4l-.5-1.4.9-.3.5 1.4c-.3 0-.6.2-.9.3zm-43.6-.7c-.3-.1-.6-.3-.9-.4l.6-1.4c.3.1.6.3.9.4l-.6 1.4zm46.4-.4l-.6-1.4c.3-.1.6-.3.9-.4l.6 1.4c-.3.1-.6.2-.9.4zm-49.2-.8c-.3-.1-.6-.3-.9-.4l.6-1.4c.3.1.6.3.9.4l-.6 1.4zm51.9-.5l-.7-1.3c.3-.1.6-.3.9-.4l.7 1.3c-.3.1-.6.3-.9.4zm-54.6-.8c-.3-.2-.6-.3-.9-.5l.7-1.3c.3.2.6.3.9.5l-.7 1.3zm57.3-.6l-.7-1.3c.3-.2.6-.3.9-.5l.7 1.3c-.3.2-.6.4-.9.5zm-60-.9c-.3-.2-.6-.3-.9-.5l.8-1.3c.3.2.6.3.8.5l-.7 1.3zm62.6-.6l-.8-1.3c.3-.2.6-.3.8-.5l.8 1.3c-.2.1-.5.3-.8.5zm-65.2-1c-.3-.2-.6-.4-.8-.6l.8-1.2c.3.2.5.4.8.6l-.8 1.2zm67.8-.7l-.8-1.2c.3-.2.5-.4.8-.6l.9 1.2c-.4.3-.6.4-.9.6zm-70.2-1.1c-.3-.2-.5-.4-.8-.6l.9-1.2c.3.2.5.4.8.6l-.9 1.2zm72.6-.6l-.9-1.2c.3-.2.5-.4.8-.6l.9 1.2c-.2.1-.5.3-.8.6zm-75-1.2c-.3-.2-.5-.4-.8-.6l1-1.1c.3.2.5.4.8.6l-1 1.1zm77.4-.7l-1-1.1c.3-.2.5-.4.7-.6l1 1.1c-.2.1-.4.3-.7.6zm-79.7-1.3c-.3-.2-.5-.5-.7-.7l1-1.1c.2.2.5.4.7.7l-1 1.1zm82-.8l-1-1.1.7-.7 1 1.1c-.2.3-.5.5-.7.7zm-84.3-1.3l-.7-.7 1.1-1 .7.7-1.1 1zm86.4-.8l-1.1-1 .7-.7 1.1 1c-.2.2-.4.5-.7.7zm-88.4-1.4c-.2-.2-.5-.5-.7-.8l1.1-1c.2.2.4.5.7.7l-1.1 1.1zm90.5-.8l-1.1-1c.2-.2.4-.5.6-.8l1.1 1c-.2.3-.4.5-.6.8zm-92.5-1.5c-.2-.3-.4-.5-.6-.8l1.2-.9c.2.3.4.5.6.8l-1.2.9zm94.4-.9l-1.2-.9c.2-.3.4-.5.6-.8l1.2.9c-.1.3-.4.6-.6.8zM16 100.8c-.2-.3-.4-.5-.6-.8l1.2-.9c.2.3.4.5.6.8l-1.2.9zm98.2-.9L113 99c.2-.3.4-.5.6-.8l1.2.9c-.2.3-.4.5-.6.8zm-99.9-1.6c-.2-.3-.4-.6-.6-.8l1.3-.8c.2.3.4.5.5.8l-1.2.8zm101.6-.9l-1.3-.8.5-.8 1.3.8c-.2.2-.4.5-.5.8zM12.6 95.8c-.2-.3-.3-.6-.5-.9l1.3-.7c.2.3.3.6.5.9l-1.3.7zm104.8-1l-1.3-.7c.2-.3.3-.6.5-.9l1.3.7c-.1.3-.3.6-.5.9zM11.2 93.1c-.2-.3-.3-.6-.5-.9l1.3-.7c.1.3.3.6.5.9l-1.3.7zm107.7-1l-1.3-.7c.1-.3.3-.6.4-.9l1.3.7c-.1.3-.3.6-.4.9zM9.8 90.4c-.1-.3-.3-.6-.4-.9l1.4-.6c.1.3.3.6.4.9l-1.4.6zm110.4-1l-1.4-.6c.1-.3.3-.6.4-.9l1.4.6c-.1.2-.3.5-.4.9zM8.6 87.6c-.1-.3-.3-.6-.4-.9l1.4-.5c.1.3.2.6.4.9l-1.4.5zm112.8-1.1L120 86l.3-.9 1.4.5-.3.9zM7.5 84.8l-.3-1 1.4-.5.3.9-1.4.6zm114.9-1.1l-1.4-.5.3-.9 1.4.4-.3 1zM6.6 81.9l-.3-1 1.4-.4.3.9-1.4.5zm116.7-1.1l-1.4-.4.3-1 1.5.4c-.3.3-.4.6-.4 1zM5.8 79c-.1-.3-.2-.7-.2-1l1.4-.3c.1.3.1.6.2 1l-1.4.3zM124 77.8l-1.5-.3c.1-.3.1-.6.2-1l1.5.3c-.1.4-.2.7-.2 1zM5.2 76c-.1-.3-.2-.7-.2-1l1.5-.3c.1.3.1.6.2 1l-1.5.3zm119.4-1.2l-1.5-.2c.1-.3.1-.7.2-1l1.5.2c-.1.4-.2.7-.2 1zM4.7 73c0-.3-.1-.7-.1-1l1.4-.2c0 .3.1.7.1 1l-1.4.2zM125 71.8l-1.5-.2c0-.3.1-.7.1-1l1.5.1c0 .5-.1.8-.1 1.1zM4.3 70c0-.3-.1-.7-.1-1l1.5-.1c0 .3 0 .7.1 1l-1.5.1zm121-1.2l-1.5-.1c0-.3 0-.7.1-1l1.5.1c-.1.3-.1.7-.1 1zM4.2 67v-1h1.5v1H4.2zm121.2-1.2h-1.5v-1h1.5v1zm-1.5-1.4v-1h1.5v1h-1.5zM5.6 63.9H4.1v-1h1.5v1zm118.2-2.5c0-.3 0-.7-.1-1l1.5-.1c0 .3 0 .7.1 1l-1.5.1zM5.7 61l-1.5-.1c0-.3 0-.7.1-1l1.5.1c0 .3 0 .7-.1 1zm117.9-2.5c0-.3-.1-.7-.1-1l1.5-.2c0 .3.1.7.1 1l-1.5.2zM6 58l-1.5-.2c0-.3.1-.7.1-1l1.5.2c0 .4-.1.7-.1 1zm117.2-2.5c-.1-.3-.1-.7-.2-1l1.5-.3c.1.3.1.7.2 1l-1.5.3zM6.4 55.1l-1.5-.2c.1-.3.1-.7.2-1l1.5.3c-.1.3-.1.6-.2.9zm116.2-2.5c-.1-.3-.1-.6-.2-1l1.5-.3c.1.3.1.7.2 1l-1.5.3zM7 52.2l-1.5-.3c.1-.3.1-.7.2-1l1.5.3c-.1.4-.2.7-.2 1zm115-2.4l-.3-1 1.4-.4.3 1-1.4.4zM7.7 49.3l-1.4-.4.3-1 1.4.4c-.2.4-.3.7-.3 1zm113.4-2.4l-.3-.9 1.4-.5.3 1-1.4.4zM8.5 46.5L7.1 46l.3-1 1.4.5-.3 1zm111.7-2.4c-.1-.3-.2-.6-.4-.9l1.4-.5c.1.3.2.6.4.9l-1.4.5zM9.5 43.7l-1.4-.5c.1-.3.2-.6.4-.9l1.4.6c-.2.2-.3.5-.4.8zm109.6-2.3c-.1-.3-.3-.6-.4-.9l1.4-.6c.1.3.3.6.4.9l-1.4.6zm-108.5-.5l-1.4-.6c.1-.3.3-.6.4-.9l1.4.6c-.1.3-.2.6-.4.9zm107.2-2.2c-.1-.3-.3-.6-.4-.9l1.3-.7c.2.3.3.6.5.9l-1.4.7zm-105.9-.5l-1.3-.7c.2-.3.3-.6.5-.9l1.3.7c-.2.4-.4.6-.5.9zm104.6-2.1c-.2-.3-.3-.6-.5-.9l1.3-.8c.2.3.3.6.5.9l-1.3.8zm-103.2-.5l-1.3-.7c.2-.3.3-.6.5-.9l1.3.8c-.2.3-.4.5-.5.8zM115 33.5c-.2-.3-.3-.6-.5-.8l1.3-.8c.2.3.4.6.5.9l-1.3.7zm-100.2-.4l-1.3-.8.6-.9 1.3.8-.6.9zm98.5-2c-.2-.3-.4-.5-.6-.8l1.2-.9c.2.3.4.5.6.8l-1.2.9zm-96.8-.5l-1.2-.9c.2-.3.4-.6.6-.8l1.2.9c-.3.3-.4.6-.6.8zm95.1-1.9c-.2-.3-.4-.5-.6-.8l1.2-.9c.2.3.4.5.6.8l-1.2.9zm-93.4-.5l-1.2-.9c.2-.3.4-.5.6-.8l1.2.9c-.2.3-.4.6-.6.8zm91.5-1.8c-.2-.2-.4-.5-.6-.7l1.1-1c.2.3.4.5.7.8l-1.2.9zM20.1 26L19 25c.2-.3.4-.5.7-.8l1.1 1c-.2.3-.5.5-.7.8zm87.7-1.8l-.7-.7 1.1-1 .7.7-1.1 1zm-85.7-.4l-1.1-1 .7-.7 1.1 1.1c-.2.1-.4.3-.7.6zm83.6-1.7l-.7-.7 1-1.1.7.7-1 1.1zm-81.5-.4l-1-1.1.7-.7 1 1.1c-.2.2-.4.5-.7.7zm79.3-1.6c-.2-.2-.5-.4-.8-.6l1-1.1c.3.2.5.4.8.7l-1 1zm-77.1-.4l-1-1.1c.3-.2.5-.4.8-.6l1 1.2c-.3.1-.5.3-.8.5zm74.8-1.5c-.3-.2-.5-.4-.8-.6l.9-1.2c.3.2.5.4.8.6l-.9 1.2zm-72.5-.3l-.9-1.2c.3-.2.5-.4.8-.6l.9 1.2c-.2.2-.5.4-.8.6zm70.1-1.5c-.3-.2-.5-.4-.8-.6l.8-1.2c.3.2.6.4.8.6l-.8 1.2zm-67.7-.3l-.9-1.2c.3-.2.6-.4.8-.6l.8 1.2c-.1.2-.4.4-.7.6zm65.3-1.3l-.8-.5.8-1.3c.3.2.6.4.9.5l-.9 1.3zm-62.8-.3l-.8-1.3c.3-.2.6-.4.9-.5l.8 1.3c-.3.1-.6.3-.9.5zm60.2-1.3c-.3-.2-.6-.3-.9-.5l.7-1.3c.3.2.6.3.9.5l-.7 1.3zM36.1 13l-.7-1.3c.3-.2.6-.3.9-.5l.7 1.3c-.3.2-.6.3-.9.5zm55.1-1.2c-.3-.1-.6-.3-.9-.4l.6-1.4c.3.1.6.3.9.4l-.6 1.4zm-52.4-.2l-.7-1.3c.3-.1.6-.3.9-.4l.6 1.4c-.2 0-.5.2-.8.3zm49.7-1c-.3-.1-.6-.3-.9-.4l.6-1.4c.3.1.6.3.9.4l-.6 1.4zm-47.1-.2L40.9 9c.3-.1.6-.3.9-.4l.6 1.4c-.4.1-.7.3-1 .4zm44.4-.9l-.9-.3.5-1.4c.3.1.6.2 1 .4l-.6 1.3zm-41.6-.2l-.5-1.4 1-.3.4 1.4-.9.3zm38.7-.8l-.9-.3.4-1.4 1 .3-.5 1.4zM47 8.3l-.5-1.4 1-.3.4 1.4-.9.3zm33.1-.7c-.3-.1-.6-.2-1-.2l.4-1.5 1 .3-.4 1.4zm-30.3-.1L49.4 6c.3-.1.7-.2 1-.2l.4 1.5c-.3.1-.6.1-1 .2zm27.4-.6c-.3-.1-.6-.1-1-.2l.3-1.5c.3.1.7.1 1 .2l-.3 1.5zm-24.5-.1l-.3-1.5c.3-.1.7-.1 1-.2l.3 1.5c-.3.1-.7.2-1 .2zm21.6-.4c-.3-.1-.6-.1-1-.2l.2-1.5c.3 0 .7.1 1 .2l-.2 1.5zm-18.7-.1l-.2-1.5c.3-.1.7-.1 1-.1l.2 1.5c-.3 0-.6.1-1 .1zM71.4 6c-.3 0-.7-.1-1-.1l.1-1.5c.3 0 .7.1 1 .1L71.4 6zm-12.8-.1l-.2-1.5c.3 0 .7-.1 1-.1l.1 1.5c-.3.1-.6.1-.9.1zm9.8-.2c-.3 0-.7 0-1-.1l.1-1.5c.3 0 .7 0 1 .1l-.1 1.5zm-6.9 0l-.1-1.5h1l.1 1.5h-1zm4-.1h-1V4.1h1v1.5z"/><path fill="#ffd05b" d="M64.8 117.2c-28.9 0-52.5-23.5-52.5-52.5 0-28.9 23.5-52.5 52.5-52.5 28.9 0 52.5 23.5 52.5 52.5-.1 29-23.6 52.5-52.5 52.5z"/><path d="M64.8 9.5C34.3 9.5 9.5 34.3 9.5 64.8S34.3 120 64.8 120 120 95.2 120 64.8 95.2 9.5 64.8 9.5zm53.7 56c-.2 14.3-6 27.2-15.2 36.7l-4.4-4.4-1.1 1.1 4.4 4.4c-9.5 9.3-22.4 15-36.7 15.2v-6.3H64v6.3c-14.3-.2-27.2-6-36.7-15.2l4.4-4.4-1.1-1.1-4.4 4.4C17 92.7 11.2 79.8 11 65.5h6.3V64H11c.2-14.3 6-27.2 15.2-36.7l4.4 4.4 1.1-1.1-4.4-4.4C36.8 17 49.7 11.2 64 11v6.3h1.5V11c14.3.2 27.2 6 36.7 15.2l-4.4 4.4 1.1 1.1 4.4-4.4c9.3 9.5 15 22.4 15.2 36.7h-6.3v1.5h6.3zM1.5 54L0 53.8C4.6 26.2 26.2 4.6 53.8 0l.2 1.5C27.1 6 6 27.1 1.5 54zM128 54c-4.5-26.9-25.6-48-52.5-52.5l.2-1.5c27.5 4.6 49.1 26.2 53.8 53.8l-1.5.2zm-74.2 75.5C26.2 124.9 4.6 103.3 0 75.7l1.5-.2C6 102.4 27.1 123.5 54 128l-.2 1.5zm21.9 0l-.2-1.5c26.9-4.5 48-25.6 52.5-52.5l1.5.2c-4.6 27.6-26.2 49.2-53.8 53.8z" fill="#231f20"/><g fill="#fff"><path d="M103 67.8v18.4H73V67.8a7.85 7.85 0 0 1 7.9-7.9h.2a4.23 4.23 0 0 0 4.2-4.2c.8.6 1.7.9 2.7.9.9 0 1.8-.3 2.7-.9a4.23 4.23 0 0 0 4.2 4.2h.2c4.3 0 7.9 3.6 7.9 7.9z"/><path d="M95.2 45.9c0 4.8-3.2 10.7-7.2 10.7s-7.2-5.9-7.2-10.7 3.2-6.7 7.2-6.7c4 .1 7.2 2 7.2 6.7z"/><use xlink:href="#D"/><path d="M56.5 67.8v18.4h-30V67.8a7.85 7.85 0 0 1 7.9-7.9h.2a4.23 4.23 0 0 0 4.2-4.2c.8.6 1.7.9 2.7.9.9 0 1.8-.3 2.7-.9a4.23 4.23 0 0 0 4.2 4.2h.2a7.92 7.92 0 0 1 7.9 7.9z"/><path d="M48.7 45.9c0 4.8-3.2 10.7-7.2 10.7s-7.2-5.9-7.2-10.7 3.2-6.7 7.2-6.7c4 .1 7.2 2 7.2 6.7z"/><use xlink:href="#D" x="-46.5"/><path d="M83 71v22.4H46.5V71c0-5.3 4.3-9.6 9.6-9.6h.2c2.8 0 5.1-2.3 5.1-5.1 1 .7 2.1 1.1 3.3 1.1S67 57 68 56.3c0 2.8 2.3 5.1 5.1 5.1h.2c5.4-.1 9.7 4.2 9.7 9.6z"/><path d="M73.5 44.3c0 5.8-3.9 13-8.8 13s-8.8-7.2-8.8-13 3.9-8.1 8.8-8.1c4.9-.1 8.8 2.2 8.8 8.1z"/><path d="M64.8 69.3l8-8c-2.6-.2-4.7-2.4-4.7-5.1-1 .7-2.1 1.1-3.3 1.1s-2.3-.4-3.3-1.1c0 2.7-2.1 4.9-4.7 5.1l8 8z"/></g><path d="M87.2 80.4h1.5v1h-1.5zm0-3h1.5v1h-1.5zm0 6h1.5v1h-1.5zm0-12h1.5v1h-1.5zm0-3h1.5v1h-1.5zm0 6h1.5v1h-1.5zm-46.4 0h1.5v1h-1.5zm0 6h1.5v1h-1.5zm0 3h1.5v1h-1.5zm0-6h1.5v1h-1.5zm0-9h1.5v1h-1.5zm0 3h1.5v1h-1.5zm54.3-12.2h-.2c-1.8 0-3.3-1.4-3.4-3.1C94.2 54 96 49.7 96 46c0-4.6-3-7.4-8-7.4s-8 2.8-8 7.4c0 3.7 1.8 8 4.5 10.1-.2 1.8-1.6 3.1-3.4 3.1h-.2c-1.9 0-3.7.6-5.1 1.7-.8-.2-1.6-.3-2.4-.3h-.2c-2.3 0-4.2-1.8-4.4-4.1 3.2-2.5 5.5-7.7 5.5-12.2 0-5.6-3.6-8.9-9.5-8.9-6 0-9.5 3.3-9.5 8.9 0 4.5 2.2 9.7 5.5 12.2-.2 2.3-2 4.1-4.4 4.1h-.2c-.8 0-1.6.1-2.4.3-1.4-1.1-3.2-1.7-5.1-1.7h-.2c-1.8 0-3.3-1.4-3.4-3.1 2.7-2.1 4.5-6.4 4.5-10.1 0-4.6-3-7.4-8-7.4s-8 2.8-8 7.4c0 3.7 1.8 8 4.5 10.1-.2 1.8-1.6 3.1-3.4 3.1h-.2a8.71 8.71 0 0 0-8.7 8.7v18.4c0 .4.3.8.8.8h19.2v6.4c0 .4.3.8.8.8H83c.4 0 .8-.3.8-.8v-6.4H103c.4 0 .8-.3.8-.8V67.8c-.1-4.7-4-8.6-8.7-8.6zM81.5 46c0-5.2 4-5.9 6.5-5.9 2.4 0 6.5.8 6.5 5.9 0 4.5-3 9.9-6.5 9.9s-6.5-5.5-6.5-9.9zm1.4 14.3c1.5-.6 2.6-1.8 3-3.4.7.3 1.3.5 2.1.5.7 0 1.4-.2 2.1-.5.4 1.6 1.5 2.8 3 3.4L88 65.4l-5.1-5.1zm-26.2-16c0-6.4 5-7.4 8-7.4s8 1 8 7.4c0 5.5-3.7 12.3-8 12.3-4.3-.1-8-6.8-8-12.3zm1.6 17.4c1.9-.7 3.4-2.3 3.8-4.3.8.4 1.7.6 2.6.6s1.8-.2 2.6-.6c.4 2 1.9 3.7 3.8 4.3l-6.5 6.5-6.3-6.5zM35.1 46c0-5.2 4-5.9 6.5-5.9 2.4 0 6.5.8 6.5 5.9 0 4.5-3 9.9-6.5 9.9s-6.5-5.5-6.5-9.9zm1.4 14.3c1.4-.6 2.6-1.8 2.9-3.4.7.3 1.3.5 2.1.5.7 0 1.4-.2 2.1-.5.4 1.5 1.5 2.8 3 3.4l-5.1 5.1-5-5.1zM45.7 71v14.5H33.4V74h-1.5v11.4h-4.6V67.8c0-3.9 3.2-7.2 7.2-7.2h.3L41 67c.1.1.3.2.5.2s.4-.1.5-.2l6.3-6.3h.3c1.2 0 2.3.3 3.3.8-3.7 1.6-6.2 5.3-6.2 9.5zm36.6 21.6h-5.9V78.5h-1.5v14.1H54.7V78.5h-1.5v14.1h-5.9V71c0-4.9 4-8.9 8.9-8.9h.3l7.7 7.7c.1.1.3.2.5.2s.4-.1.5-.2l7.7-7.7h.3c4.9 0 8.9 4 8.9 8.9v21.6zm19.9-7.2h-4.6V74h-1.5v11.4H83.8V71c0-4.2-2.5-7.9-6.2-9.5 1-.5 2.1-.8 3.3-.8h.3l6.3 6.3c.1.1.3.2.5.2s.4-.1.5-.2l6.3-6.3h.3c3.9 0 7.2 3.2 7.2 7.2v17.5zM64 80.6h1.5v1H64zm0-3h1.5v1H64zm0-3h1.5v1H64zm0 15h1.5v1H64zm0-6h1.5v1H64zm0-12h1.5v1H64zm0 15h1.5v1H64z" fill="#231f20"/><defs ><path id="B" d="M120.7 6.7c-.2 0-.4-.1-.5-.2-.3-.3-.3-.8 0-1.1l1.3-1.3c.3-.3.8-.3 1.1 0s.3.8 0 1.1l-1.3 1.3c-.3.2-.5.2-.6.2z"/><path id="C" d="M10.3 12.2c-.2 0-.4-.1-.5-.2l-1.3-1.3c-.3-.3-.3-.8 0-1.1s.8-.3 1.1 0l1.3 1.3c.3.3.3.8 0 1.1-.3.1-.4.2-.6.2z"/><path id="D" d="M88 66.4l6.5-6.5c-2.2-.2-3.9-2-3.9-4.2-.8.6-1.7.9-2.7.9-.9 0-1.8-.3-2.7-.9 0 2.2-1.7 4-3.9 4.2l6.7 6.5z"/></defs></svg>