<?xml version="1.0" encoding="UTF-8" standalone="no"?>
<!-- Created with Inkscape (http://www.inkscape.org/) -->

<svg
   xmlns:dc="http://purl.org/dc/elements/1.1/"
   xmlns:cc="http://creativecommons.org/ns#"
   xmlns:rdf="http://www.w3.org/1999/02/22-rdf-syntax-ns#"
   xmlns:svg="http://www.w3.org/2000/svg"
   xmlns="http://www.w3.org/2000/svg"
   xmlns:sodipodi="http://sodipodi.sourceforge.net/DTD/sodipodi-0.dtd"
   xmlns:inkscape="http://www.inkscape.org/namespaces/inkscape"
   width="204"
   height="102"
   viewBox="0 0 53.974999 26.987501"
   version="1.1"
   id="svg2420"
   inkscape:version="0.92.3 (2405546, 2018-03-11)"
   sodipodi:docname="provides-real-time-data.svg">
  <defs
     id="defs2414" />
  <sodipodi:namedview
     id="base"
     pagecolor="#ffffff"
     bordercolor="#666666"
     borderopacity="1.0"
     inkscape:pageopacity="0.0"
     inkscape:pageshadow="2"
     inkscape:zoom="0.98994949"
     inkscape:cx="-71.516179"
     inkscape:cy="83.13621"
     inkscape:document-units="mm"
     inkscape:current-layer="XMLID_125_"
     showgrid="false"
     units="px"
     inkscape:window-width="1366"
     inkscape:window-height="705"
     inkscape:window-x="-8"
     inkscape:window-y="-8"
     inkscape:window-maximized="1" />
  <metadata
     id="metadata2417">
    <rdf:RDF>
      <cc:Work
         rdf:about="">
        <dc:format>image/svg+xml</dc:format>
        <dc:type
           rdf:resource="http://purl.org/dc/dcmitype/StillImage" />
        <dc:title></dc:title>
      </cc:Work>
    </rdf:RDF>
  </metadata>
  <g
     inkscape:label="Layer 1"
     inkscape:groupmode="layer"
     id="layer1"
     transform="translate(0,-270.01248)">
    <g
       transform="matrix(0.26458333,0,0,0.26458333,-71.516874,251.21383)"
       id="XMLID_28_">
      <path
         id="XMLID_704_"
         d="m 470.7,88.1 v 0 c 0,6 -4.9,10.9 -10.9,10.9 h -38.3 c -3.8,0 -6.8,3.1 -6.8,6.8 v 0 c 0,3.8 3.1,6.8 6.8,6.8 h 9 c 4.7,0 8.5,3.8 8.5,8.5 v 0 c 0,4.7 -3.8,8.5 -8.5,8.5 h -21.8 c -4.6,0 -8.2,3.7 -8.2,8.2 v 0 c 0,4.6 3.7,8.2 8.2,8.2 h 55.9 c 5.1,0 9.2,4.1 9.2,9.2 v 0 c 0,5.1 -4.2,9.2 -9.3,9.2 L 421.9,164 c -4.7,0 -8.4,3.9 -8,8.5 v 0 L 329.3,172 v 0 c 0,-10.8 -8.8,-19.6 -19.6,-19.6 h -29.5 c -5.4,0 -9.8,-4.4 -9.8,-9.8 v 0 c 0,-5.4 4.4,-9.8 9.8,-9.8 l 29.1,0.2 v -2.6 c 0,-6.2 5,-11.2 11.2,-11.2 v 0 c 5.6,0 10.1,-4.5 10.1,-10.1 v 0 c 0,-5.6 -4.5,-10.1 -10.1,-10.1 h -36.4 c -6,0 -10.9,-4.9 -10.9,-10.9 v 0 c 0,-6 4.9,-10.9 10.9,-10.9 h 175.7 c 6,0 10.9,4.9 10.9,10.9 z"
         inkscape:connector-curvature="0"
         style="fill:#eaeef2" />
      <g
         id="XMLID_125_">
        <rect
           id="XMLID_279_"
           x="390.70001"
           y="120.7"
           width="42.799999"
           height="51.5"
           style="fill:#ffffff" />
        <polyline
           id="XMLID_124_"
           stroke-miterlimit="10"
           points="390.7,152.4      390.7,120.7 433.5,120.7 433.5,172.3    "
           style="fill:none;stroke:#414042;stroke-width:1.5;stroke-miterlimit:10" />
        <rect
           id="XMLID_275_"
           x="407"
           y="157"
           width="10.2"
           height="15"
           style="fill:#00d4ff" />
        <rect
           id="XMLID_273_"
           x="407"
           y="157"
           stroke-miterlimit="10"
           width="10.2"
           height="15"
           style="fill:none;stroke:#414042;stroke-width:1.5;stroke-miterlimit:10" />
        <line
           id="XMLID_272_"
           stroke-miterlimit="10"
           x1="412.10001"
           y1="158"
           x2="412.10001"
           y2="170.89999"
           style="fill:none;stroke:#414042;stroke-width:1.5;stroke-miterlimit:10" />
        <rect
           id="XMLID_271_"
           x="395.20001"
           y="128"
           width="5"
           height="5"
           style="fill:#00d4ff" />
        <rect
           id="XMLID_270_"
           x="404.60001"
           y="128"
           width="5"
           height="5"
           style="fill:#00d4ff" />
        <rect
           id="XMLID_269_"
           x="414"
           y="128"
           width="5"
           height="5"
           style="fill:#00d4ff" />
        <rect
           id="XMLID_268_"
           x="423.39999"
           y="128"
           width="5"
           height="5"
           style="fill:#00d4ff" />
        <rect
           id="XMLID_257_"
           x="395.20001"
           y="136.60001"
           width="5"
           height="5"
           style="fill:#00d4ff" />
        <rect
           id="XMLID_255_"
           x="404.60001"
           y="136.60001"
           width="5"
           height="5"
           style="fill:#00d4ff" />
        <rect
           id="XMLID_254_"
           x="414"
           y="136.60001"
           width="5"
           height="5"
           style="fill:#00d4ff" />
        <rect
           id="XMLID_253_"
           x="423.39999"
           y="136.60001"
           width="5"
           height="5"
           style="fill:#00d4ff" />
        <rect
           id="XMLID_252_"
           x="395.20001"
           y="145.2"
           width="5"
           height="5"
           style="fill:#00d4ff" />
        <rect
           id="XMLID_249_"
           x="404.60001"
           y="145.2"
           width="5"
           height="5"
           style="fill:#00d4ff" />
        <rect
           id="XMLID_247_"
           x="414"
           y="145.2"
           width="5"
           height="5"
           style="fill:#00d4ff" />
        <rect
           id="XMLID_246_"
           x="423.39999"
           y="145.2"
           width="5"
           height="5"
           style="fill:#00d4ff" />
        <rect
           id="XMLID_245_"
           x="395.20001"
           y="128"
           stroke-miterlimit="10"
           width="5"
           height="5"
           style="fill:none;stroke:#414042;stroke-width:1.5;stroke-miterlimit:10" />
        <rect
           id="XMLID_243_"
           x="404.60001"
           y="128"
           stroke-miterlimit="10"
           width="5"
           height="5"
           style="fill:none;stroke:#414042;stroke-width:1.5;stroke-miterlimit:10" />
        <rect
           id="XMLID_242_"
           x="414"
           y="128"
           stroke-miterlimit="10"
           width="5"
           height="5"
           style="fill:none;stroke:#414042;stroke-width:1.5;stroke-miterlimit:10" />
        <rect
           id="XMLID_241_"
           x="423.39999"
           y="128"
           stroke-miterlimit="10"
           width="5"
           height="5"
           style="fill:none;stroke:#414042;stroke-width:1.5;stroke-miterlimit:10" />
        <rect
           id="XMLID_230_"
           x="395.20001"
           y="136.60001"
           stroke-miterlimit="10"
           width="5"
           height="5"
           style="fill:none;stroke:#414042;stroke-width:1.5;stroke-miterlimit:10" />
        <rect
           id="XMLID_227_"
           x="404.60001"
           y="136.60001"
           stroke-miterlimit="10"
           width="5"
           height="5"
           style="fill:none;stroke:#414042;stroke-width:1.5;stroke-miterlimit:10" />
        <rect
           id="XMLID_219_"
           x="414"
           y="136.60001"
           stroke-miterlimit="10"
           width="5"
           height="5"
           style="fill:none;stroke:#414042;stroke-width:1.5;stroke-miterlimit:10" />
        <rect
           id="XMLID_208_"
           x="423.39999"
           y="136.60001"
           stroke-miterlimit="10"
           width="5"
           height="5"
           style="fill:none;stroke:#414042;stroke-width:1.5;stroke-miterlimit:10" />
        <rect
           id="XMLID_204_"
           x="395.20001"
           y="145.2"
           stroke-miterlimit="10"
           width="5"
           height="5"
           style="fill:none;stroke:#414042;stroke-width:1.5;stroke-miterlimit:10" />
        <rect
           id="XMLID_203_"
           x="395.20001"
           y="156.89999"
           width="5"
           height="11.1"
           style="fill:#00d4ff" />
        <rect
           id="XMLID_200_"
           x="423.39999"
           y="156.89999"
           width="5"
           height="11.1"
           style="fill:#00d4ff" />
        <rect
           id="XMLID_197_"
           x="395.20001"
           y="156.89999"
           stroke-miterlimit="10"
           width="5"
           height="11.1"
           style="fill:none;stroke:#414042;stroke-width:1.5;stroke-miterlimit:10" />
        <rect
           id="XMLID_191_"
           x="423.39999"
           y="156.89999"
           stroke-miterlimit="10"
           width="5"
           height="11.1"
           style="fill:none;stroke:#414042;stroke-width:1.5;stroke-miterlimit:10" />
        <rect
           id="XMLID_179_"
           x="404.60001"
           y="145.2"
           stroke-miterlimit="10"
           width="5"
           height="5"
           style="fill:none;stroke:#414042;stroke-width:1.5;stroke-miterlimit:10" />
        <rect
           id="XMLID_176_"
           x="414"
           y="145.2"
           stroke-miterlimit="10"
           width="5"
           height="5"
           style="fill:none;stroke:#414042;stroke-width:1.5;stroke-miterlimit:10" />
        <rect
           id="XMLID_165_"
           x="423.39999"
           y="145.2"
           stroke-miterlimit="10"
           width="5"
           height="5"
           style="fill:none;stroke:#414042;stroke-width:1.5;stroke-miterlimit:10" />
        <rect
           id="XMLID_162_"
           x="388.89999"
           y="116.3"
           width="46.299999"
           height="6.0999999"
           style="fill:#e6e7e8" />
        <path
           id="XMLID_160_"
           stroke-miterlimit="10"
           d="m 434.7,122.4 h -45.3 c -0.3,0 -0.5,-0.2 -0.5,-0.5 v -5.1 c 0,-0.3 0.2,-0.5 0.5,-0.5 h 45.3 c 0.3,0 0.5,0.2 0.5,0.5 v 5.1 c 0,0.3 -0.2,0.5 -0.5,0.5 z"
           inkscape:connector-curvature="0"
           style="fill:none;stroke:#414042;stroke-width:1.5;stroke-miterlimit:10" />
        <g
           id="XMLID_128_">
          <path
             id="XMLID_131_"
             d="m 445.6,160.9 c 0,2.1 -1.7,3.8 -3.8,3.8 -2.1,0 -3.8,-1.7 -3.8,-3.8 0,-2.1 1.7,-3.8 3.8,-3.8 2.1,0 3.8,1.7 3.8,3.8 z"
             inkscape:connector-curvature="0"
             style="fill:#ffb936" />
          <path
             id="XMLID_130_"
             stroke-miterlimit="10"
             d="m 445.6,160.9 c 0,2.1 -1.7,3.8 -3.8,3.8 -2.1,0 -3.8,-1.7 -3.8,-3.8 0,-2.1 1.7,-3.8 3.8,-3.8 2.1,0 3.8,1.7 3.8,3.8 z"
             inkscape:connector-curvature="0"
             style="fill:none;stroke:#414042;stroke-width:1.5;stroke-miterlimit:10" />
          <line
             id="XMLID_129_"
             stroke-miterlimit="10"
             x1="441.79999"
             y1="164.89999"
             x2="441.79999"
             y2="171.8"
             style="fill:none;stroke:#414042;stroke-width:1.5;stroke-miterlimit:10" />
        </g>
      </g>
      <g
         id="XMLID_168_">
        <line
           id="XMLID_267_"
           stroke-miterlimit="10"
           x1="400"
           y1="84.199997"
           x2="404.29999"
           y2="84.199997"
           style="fill:none;stroke:#414042;stroke-width:1.5;stroke-linecap:round;stroke-miterlimit:10" />
        <line
           id="XMLID_262_"
           stroke-miterlimit="10"
           x1="402.20001"
           y1="86.400002"
           x2="402.20001"
           y2="82.099998"
           style="fill:none;stroke:#414042;stroke-width:1.5;stroke-linecap:round;stroke-miterlimit:10" />
      </g>
      <g
         id="XMLID_280_">
        <line
           id="XMLID_287_"
           stroke-miterlimit="10"
           x1="279.29999"
           y1="123.7"
           x2="283.60001"
           y2="123.7"
           style="fill:none;stroke:#414042;stroke-width:1.5;stroke-linecap:round;stroke-miterlimit:10" />
        <line
           id="XMLID_282_"
           stroke-miterlimit="10"
           x1="281.5"
           y1="125.8"
           x2="281.5"
           y2="121.5"
           style="fill:none;stroke:#414042;stroke-width:1.5;stroke-linecap:round;stroke-miterlimit:10" />
      </g>
      <g
         id="XMLID_348_">
        <line
           id="XMLID_350_"
           stroke-miterlimit="10"
           x1="441.70001"
           y1="106.2"
           x2="446"
           y2="106.2"
           style="fill:none;stroke:#414042;stroke-width:1.5;stroke-linecap:round;stroke-miterlimit:10" />
        <line
           id="XMLID_349_"
           stroke-miterlimit="10"
           x1="443.79999"
           y1="108.3"
           x2="443.79999"
           y2="104"
           style="fill:none;stroke:#414042;stroke-width:1.5;stroke-linecap:round;stroke-miterlimit:10" />
      </g>
      <g
         id="XMLID_79_">
        <line
           id="XMLID_81_"
           stroke-miterlimit="10"
           x1="314.60001"
           y1="92"
           x2="317.60001"
           y2="89"
           style="fill:none;stroke:#414042;stroke-width:1.5;stroke-linecap:round;stroke-miterlimit:10" />
        <line
           id="XMLID_80_"
           stroke-miterlimit="10"
           x1="317.60001"
           y1="92"
           x2="314.60001"
           y2="89"
           style="fill:none;stroke:#414042;stroke-width:1.5;stroke-linecap:round;stroke-miterlimit:10" />
      </g>
      <g
         id="XMLID_351_">
        <line
           id="XMLID_353_"
           stroke-miterlimit="10"
           x1="286.5"
           y1="161.3"
           x2="289.5"
           y2="158.3"
           style="fill:none;stroke:#414042;stroke-width:1.5;stroke-linecap:round;stroke-miterlimit:10" />
        <line
           id="XMLID_352_"
           stroke-miterlimit="10"
           x1="289.5"
           y1="161.3"
           x2="286.5"
           y2="158.3"
           style="fill:none;stroke:#414042;stroke-width:1.5;stroke-linecap:round;stroke-miterlimit:10" />
      </g>
      <g
         id="XMLID_274_">
        <line
           id="XMLID_278_"
           stroke-miterlimit="10"
           x1="468.70001"
           y1="134.5"
           x2="471.70001"
           y2="131.5"
           style="fill:none;stroke:#414042;stroke-width:1.5;stroke-linecap:round;stroke-miterlimit:10" />
        <line
           id="XMLID_276_"
           stroke-miterlimit="10"
           x1="471.70001"
           y1="134.5"
           x2="468.70001"
           y2="131.5"
           style="fill:none;stroke:#414042;stroke-width:1.5;stroke-linecap:round;stroke-miterlimit:10" />
      </g>
      <line
         id="XMLID_305_"
         stroke-miterlimit="10"
         x1="326"
         y1="90.699997"
         x2="347.79999"
         y2="90.699997"
         style="fill:none;stroke:#414042;stroke-width:1.5;stroke-miterlimit:10" />
      <line
         id="XMLID_132_"
         stroke-miterlimit="10"
         x1="336.5"
         y1="84.199997"
         x2="397.5"
         y2="84.199997"
         style="fill:none;stroke:#414042;stroke-width:1.5;stroke-miterlimit:10" />
      <line
         id="XMLID_302_"
         stroke-miterlimit="10"
         x1="324"
         y1="90.699997"
         x2="320"
         y2="90.699997"
         style="fill:none;stroke:#414042;stroke-width:1.5;stroke-miterlimit:10" />
      <line
         id="XMLID_136_"
         stroke-miterlimit="10"
         x1="443.79999"
         y1="133"
         x2="465.60001"
         y2="133"
         style="fill:none;stroke:#414042;stroke-width:1.5;stroke-miterlimit:10" />
      <line
         id="XMLID_143_"
         stroke-miterlimit="10"
         x1="286.79999"
         y1="123.7"
         x2="316.10001"
         y2="123.7"
         style="fill:none;stroke:#414042;stroke-width:1.5;stroke-miterlimit:10" />
      <line
         id="XMLID_134_"
         stroke-miterlimit="10"
         x1="441.79999"
         y1="133"
         x2="437.89999"
         y2="133"
         style="fill:none;stroke:#414042;stroke-width:1.5;stroke-miterlimit:10" />
      <path
         id="XMLID_285_"
         d="m 446.9,145.2 c 0,0.7 -0.6,1.3 -1.3,1.3 -0.7,0 -1.3,-0.6 -1.3,-1.3 0,-0.7 0.6,-1.3 1.3,-1.3 0.7,0 1.3,0.6 1.3,1.3 z"
         inkscape:connector-curvature="0"
         style="fill:#414042" />
      <path
         id="XMLID_345_"
         d="m 333.9,72.8 c 0,0.7 -0.6,1.3 -1.3,1.3 -0.7,0 -1.3,-0.6 -1.3,-1.3 0,-0.7 0.6,-1.3 1.3,-1.3 0.7,0 1.3,0.6 1.3,1.3 z"
         inkscape:connector-curvature="0"
         style="fill:#414042" />
      <path
         id="XMLID_342_"
         d="m 295.4,93.2 c 0,0.7 -0.6,1.3 -1.3,1.3 -0.7,0 -1.3,-0.6 -1.3,-1.3 0,-0.7 0.6,-1.3 1.3,-1.3 0.7,0 1.3,0.6 1.3,1.3 z"
         inkscape:connector-curvature="0"
         style="fill:#414042" />
      <path
         id="XMLID_337_"
         d="m 294,143.9 c 0,0.7 -0.6,1.3 -1.3,1.3 -0.7,0 -1.3,-0.6 -1.3,-1.3 0,-0.7 0.6,-1.3 1.3,-1.3 0.7,-0.1 1.3,0.5 1.3,1.3 z"
         inkscape:connector-curvature="0"
         style="fill:#414042" />
      <path
         id="XMLID_328_"
         d="m 418.5,90.5 c 0,0.7 -0.6,1.3 -1.3,1.3 -0.7,0 -1.3,-0.6 -1.3,-1.3 0,-0.7 0.6,-1.3 1.3,-1.3 0.7,0 1.3,0.6 1.3,1.3 z"
         inkscape:connector-curvature="0"
         style="fill:#414042" />
      <path
         id="XMLID_325_"
         d="m 456.7,117 c 0,0.5 -0.4,0.9 -0.9,0.9 -0.5,0 -0.9,-0.4 -0.9,-0.9 0,-0.5 0.4,-0.9 0.9,-0.9 0.5,0.1 0.9,0.4 0.9,0.9 z"
         inkscape:connector-curvature="0"
         style="fill:#414042" />
      <path
         id="XMLID_344_"
         d="m 384.8,94.5 c 0,0.5 -0.4,0.9 -0.9,0.9 -0.5,0 -0.9,-0.4 -0.9,-0.9 0,-0.5 0.4,-0.9 0.9,-0.9 0.5,0.1 0.9,0.5 0.9,0.9 z"
         inkscape:connector-curvature="0"
         style="fill:#414042" />
      <path
         id="XMLID_340_"
         d="m 307,116.2 c 0,0.5 -0.4,0.9 -0.9,0.9 -0.5,0 -0.9,-0.4 -0.9,-0.9 0,-0.5 0.4,-0.9 0.9,-0.9 0.5,0 0.9,0.4 0.9,0.9 z"
         inkscape:connector-curvature="0"
         style="fill:#414042" />
      <g
         id="XMLID_30_">
        <g
           id="XMLID_78_">
          <path
             id="XMLID_106_"
             d="m 385.8,172.3 v -68.2 c 0,-2 -1.6,-3.6 -3.6,-3.6 h -53 c -2,0 -3.6,1.6 -3.6,3.6 v 68.2 z"
             inkscape:connector-curvature="0"
             style="fill:#ffffff" />
          <path
             id="XMLID_100_"
             d="m 325.7,109.8 v -6.3 c 0,-1.7 1.3,-3 3,-3 h 54.1 c 1.7,0 3,1.4 3,3 v 6.3 z"
             inkscape:connector-curvature="0"
             style="fill:#bcbec0" />
          <path
             id="XMLID_99_"
             stroke-miterlimit="10"
             d="m 325.7,130.3 v -26.8 c 0,-1.7 1.3,-3 3,-3 h 6.3 1.7"
             inkscape:connector-curvature="0"
             style="fill:none;stroke:#414042;stroke-width:1.5;stroke-miterlimit:10" />
          <path
             id="XMLID_94_"
             stroke-miterlimit="10"
             d="m 347.1,100.5 h 35.7 c 1.7,0 3,1.4 3,3 v 49.3"
             inkscape:connector-curvature="0"
             style="fill:none;stroke:#414042;stroke-width:1.5;stroke-miterlimit:10" />
          <line
             id="XMLID_92_"
             stroke-miterlimit="10"
             x1="339.60001"
             y1="100.5"
             x2="343.70001"
             y2="100.5"
             style="fill:none;stroke:#414042;stroke-width:1.5;stroke-miterlimit:10" />
          <line
             id="XMLID_91_"
             stroke-miterlimit="10"
             x1="325.70001"
             y1="109.9"
             x2="385.79999"
             y2="109.9"
             style="fill:none;stroke:#414042;stroke-width:1.5;stroke-miterlimit:10" />
          <line
             id="XMLID_90_"
             stroke-miterlimit="10"
             x1="332.60001"
             y1="105.6"
             x2="335"
             y2="105.6"
             style="fill:none;stroke:#414042;stroke-width:1.5;stroke-miterlimit:10" />
          <line
             id="XMLID_89_"
             stroke-miterlimit="10"
             x1="338.20001"
             y1="105.6"
             x2="340.60001"
             y2="105.6"
             style="fill:none;stroke:#414042;stroke-width:1.5;stroke-miterlimit:10" />
          <line
             id="XMLID_88_"
             stroke-miterlimit="10"
             x1="343.70001"
             y1="105.6"
             x2="346.10001"
             y2="105.6"
             style="fill:none;stroke:#414042;stroke-width:1.5;stroke-miterlimit:10" />
          <rect
             id="XMLID_87_"
             x="333.20001"
             y="114.7"
             width="45.200001"
             height="14.1"
             style="fill:#f1f2f2" />
          <rect
             id="XMLID_85_"
             x="333.20001"
             y="133.7"
             width="18"
             height="14.1"
             style="fill:#00d4ff" />
          <line
             id="XMLID_84_"
             stroke-miterlimit="10"
             x1="357.79999"
             y1="135.60001"
             x2="378.60001"
             y2="135.60001"
             style="fill:none;stroke:#414042;stroke-width:1.5;stroke-miterlimit:10" />
          <line
             id="XMLID_83_"
             stroke-miterlimit="10"
             x1="357.79999"
             y1="140.8"
             x2="378.60001"
             y2="140.8"
             style="fill:none;stroke:#414042;stroke-width:1.5;stroke-miterlimit:10" />
          <line
             id="XMLID_82_"
             stroke-miterlimit="10"
             x1="357.79999"
             y1="145.89999"
             x2="368.20001"
             y2="145.89999"
             style="fill:none;stroke:#414042;stroke-width:1.5;stroke-miterlimit:10" />
        </g>
        <g
           id="XMLID_71_">
          <g
             id="XMLID_74_">
            <line
               id="XMLID_850_"
               stroke-miterlimit="10"
               x1="342.79999"
               y1="129.2"
               x2="342.79999"
               y2="134.39999"
               style="fill:none;stroke:#414042;stroke-width:1.5;stroke-miterlimit:10" />
            <line
               id="XMLID_849_"
               stroke-miterlimit="10"
               x1="347.39999"
               y1="133"
               x2="346.10001"
               y2="135.3"
               style="fill:none;stroke:#414042;stroke-width:1.5;stroke-miterlimit:10" />
            <line
               id="XMLID_848_"
               stroke-miterlimit="10"
               x1="353"
               y1="135.10001"
               x2="348.5"
               y2="137.7"
               style="fill:none;stroke:#414042;stroke-width:1.5;stroke-miterlimit:10" />
            <line
               id="XMLID_845_"
               stroke-miterlimit="10"
               x1="338.20001"
               y1="148.8"
               x2="339.5"
               y2="146.5"
               style="fill:none;stroke:#414042;stroke-width:1.5;stroke-miterlimit:10" />
            <line
               id="XMLID_844_"
               stroke-miterlimit="10"
               x1="332.60001"
               y1="146.7"
               x2="337.10001"
               y2="144.10001"
               style="fill:none;stroke:#414042;stroke-width:1.5;stroke-miterlimit:10" />
            <line
               id="XMLID_843_"
               stroke-miterlimit="10"
               x1="333.70001"
               y1="140.8"
               x2="336.29999"
               y2="140.8"
               style="fill:none;stroke:#414042;stroke-width:1.5;stroke-miterlimit:10" />
            <line
               id="XMLID_76_"
               stroke-miterlimit="10"
               x1="332.79999"
               y1="134.89999"
               x2="337.20001"
               y2="137.60001"
               style="fill:none;stroke:#414042;stroke-width:1.5;stroke-miterlimit:10" />
            <line
               id="XMLID_75_"
               stroke-miterlimit="10"
               x1="338.39999"
               y1="133"
               x2="339.70001"
               y2="135.2"
               style="fill:none;stroke:#414042;stroke-width:1.5;stroke-miterlimit:10" />
          </g>
          <polyline
             id="XMLID_73_"
             stroke-miterlimit="10"
             points="344.4,145.4       342.8,140.9 347.4,142.3     "
             style="fill:none;stroke:#414042;stroke-width:1.5;stroke-miterlimit:10" />
          <line
             id="XMLID_72_"
             stroke-miterlimit="10"
             x1="343.5"
             y1="141.60001"
             x2="349.79999"
             y2="147.89999"
             style="fill:none;stroke:#414042;stroke-width:1.5;stroke-miterlimit:10" />
        </g>
        <g
           id="XMLID_31_">
          <polygon
             id="XMLID_70_"
             points="381.8,154.8 398.4,154.8 400.6,156.7 400.6,170.9 399.1,172.3 381.8,172.3 380.3,170.9 380.3,155.9 "
             style="fill:#ffffff" />
          <polygon
             id="XMLID_69_"
             points="345.5,154.8 378.9,154.8 380.3,155.9 380.3,170.9 378.9,172.3 344.7,172.3 343.3,170.9 343.3,156.7 "
             style="fill:#ffffff" />
          <polygon
             id="XMLID_67_"
             points="399.1,172.3 400.6,170.9 400.6,168 380.3,168 380.3,170.9 381.8,172.3 "
             style="fill:#58595b" />
          <polygon
             id="XMLID_66_"
             points="343.3,168 343.3,170.9 344.7,172.3 378.9,172.3 380.3,170.9 380.3,168 "
             style="fill:#58595b" />
          <polygon
             id="XMLID_65_"
             points="400.6,159.8 400.6,156.7 398.4,154.8 381.8,154.8 380.3,155.9 380.3,159.8 "
             style="fill:#58595b" />
          <polygon
             id="XMLID_63_"
             points="380.3,159.8 380.3,155.9 378.9,154.8 345.5,154.8 343.3,156.7 343.3,159.8 "
             style="fill:#58595b" />
          <line
             id="XMLID_48_"
             stroke-miterlimit="10"
             x1="384.79999"
             y1="165.10001"
             x2="396.10001"
             y2="165.10001"
             style="fill:none;stroke:#414042;stroke-width:1.5;stroke-miterlimit:10" />
          <line
             id="XMLID_40_"
             stroke-miterlimit="10"
             x1="384.79999"
             y1="161.8"
             x2="396.10001"
             y2="161.8"
             style="fill:none;stroke:#414042;stroke-width:1.5;stroke-miterlimit:10" />
          <line
             id="XMLID_39_"
             stroke-miterlimit="10"
             x1="348.20001"
             y1="165.2"
             x2="374"
             y2="165.2"
             style="fill:none;stroke:#414042;stroke-width:1.5;stroke-miterlimit:10" />
          <line
             id="XMLID_37_"
             stroke-miterlimit="10"
             x1="348.20001"
             y1="161.89999"
             x2="374"
             y2="161.89999"
             style="fill:none;stroke:#414042;stroke-width:1.5;stroke-miterlimit:10" />
          <rect
             id="XMLID_36_"
             x="379.5"
             y="156.89999"
             transform="rotate(-180,380.32805,157.6863)"
             width="1.6"
             height="1.6"
             style="fill:#414042" />
          <rect
             id="XMLID_35_"
             x="379.5"
             y="159.8"
             transform="rotate(-180,380.32805,160.63125)"
             width="1.6"
             height="1.6"
             style="fill:#414042" />
          <rect
             id="XMLID_34_"
             x="379.5"
             y="162.8"
             transform="rotate(-180,380.32805,163.57625)"
             width="1.6"
             height="1.6"
             style="fill:#414042" />
          <rect
             id="XMLID_33_"
             x="379.5"
             y="165.7"
             transform="rotate(-180,380.32805,166.52145)"
             width="1.6"
             height="1.6"
             style="fill:#414042" />
          <rect
             id="XMLID_32_"
             x="379.5"
             y="168.7"
             transform="rotate(-180,380.32805,169.46635)"
             width="1.6"
             height="1.6"
             style="fill:#414042" />
          <polyline
             id="XMLID_122_"
             stroke-miterlimit="10"
             points="380.3,155.9       381.8,154.8 398.4,154.8 400.6,156.7 400.6,170.9 399.1,172.3 381.8,172.3 380.3,170.9     "
             style="fill:none;stroke:#414042;stroke-width:1.5;stroke-miterlimit:10" />
          <polyline
             id="XMLID_126_"
             stroke-miterlimit="10"
             points="380.3,170.9       378.9,172.3 344.7,172.3 343.3,170.9 343.3,156.7 345.5,154.8 378.9,154.8 380.3,155.9     "
             style="fill:none;stroke:#414042;stroke-width:1.5;stroke-miterlimit:10" />
        </g>
      </g>
      <path
         id="XMLID_431_"
         d="m 330.3,132 h -27.2 c -1,0 -1.8,0.8 -1.8,1.8 v 37.4 c 0,1 0.8,1.8 1.8,1.8 h 27.2 c 1,0 1.8,-0.8 1.8,-1.8 v -37.4 c 0,-1 -0.8,-1.8 -1.8,-1.8 z"
         inkscape:connector-curvature="0"
         style="opacity:0.3;fill:#414042" />
      <g
         id="XMLID_127_">
        <path
           id="XMLID_498_"
           d="m 328.8,172.3 h -27.2 c -0.6,0 -1.1,-0.5 -1.1,-1.1 v -37.4 c 0,-0.6 0.5,-1.1 1.1,-1.1 h 27.2 c 0.6,0 1.1,0.5 1.1,1.1 v 37.4 c -0.1,0.6 -0.5,1.1 -1.1,1.1 z"
           inkscape:connector-curvature="0"
           style="fill:#ffb936" />
        <path
           id="XMLID_164_"
           stroke-miterlimit="10"
           d="m 328.8,172.3 h -27.2 c -0.6,0 -1.1,-0.5 -1.1,-1.1 v -37.4 c 0,-0.6 0.5,-1.1 1.1,-1.1 h 27.2 c 0.6,0 1.1,0.5 1.1,1.1 v 37.4 c -0.1,0.6 -0.5,1.1 -1.1,1.1 z"
           inkscape:connector-curvature="0"
           style="fill:none;stroke:#414042;stroke-width:1.5;stroke-miterlimit:10" />
        <g
           id="XMLID_489_">
          <path
             id="XMLID_338_"
             stroke-miterlimit="10"
             d="m 323.4,152.5 c 0,4.5 -3.7,8.2 -8.2,8.2 -4.5,0 -8.2,-3.7 -8.2,-8.2 0,-4.5 3.7,-8.2 8.2,-8.2 4.5,0 8.2,3.7 8.2,8.2 z"
             inkscape:connector-curvature="0"
             style="fill:none;stroke:#414042;stroke-width:1.5;stroke-miterlimit:10" />
          <path
             id="XMLID_495_"
             stroke-miterlimit="10"
             d="m 318.1,144.8 c 1.2,2 2,4.7 2,7.7 0,3 -0.8,5.7 -2,7.7"
             inkscape:connector-curvature="0"
             style="fill:none;stroke:#414042;stroke-width:1.5;stroke-miterlimit:10" />
          <path
             id="XMLID_494_"
             stroke-miterlimit="10"
             d="m 312.5,144.8 c -1.2,2 -2,4.7 -2,7.7 0,3 0.8,5.7 2,7.7"
             inkscape:connector-curvature="0"
             style="fill:none;stroke:#414042;stroke-width:1.5;stroke-miterlimit:10" />
          <line
             id="XMLID_493_"
             stroke-miterlimit="10"
             x1="315.20001"
             y1="144.3"
             x2="315.20001"
             y2="160.7"
             style="fill:none;stroke:#414042;stroke-width:1.5;stroke-miterlimit:10" />
          <line
             id="XMLID_492_"
             stroke-miterlimit="10"
             x1="307"
             y1="152.5"
             x2="323.39999"
             y2="152.5"
             style="fill:none;stroke:#414042;stroke-width:1.5;stroke-miterlimit:10" />
          <line
             id="XMLID_491_"
             stroke-miterlimit="10"
             x1="308.20001"
             y1="148.60001"
             x2="322.39999"
             y2="148.60001"
             style="fill:none;stroke:#414042;stroke-width:1.5;stroke-miterlimit:10" />
          <line
             id="XMLID_490_"
             stroke-miterlimit="10"
             x1="307.89999"
             y1="156.39999"
             x2="322.29999"
             y2="156.39999"
             style="fill:none;stroke:#414042;stroke-width:1.5;stroke-miterlimit:10" />
        </g>
      </g>
      <g
         id="XMLID_293_">
        <line
           id="XMLID_341_"
           stroke-miterlimit="10"
           x1="285.29999"
           y1="172.3"
           x2="288"
           y2="172.3"
           style="fill:none;stroke:#414042;stroke-width:1.5;stroke-miterlimit:10" />
        <line
           id="XMLID_343_"
           stroke-miterlimit="10"
           x1="455.20001"
           y1="172.3"
           x2="461.29999"
           y2="172.3"
           style="fill:none;stroke:#414042;stroke-width:1.5;stroke-miterlimit:10" />
        <line
           id="XMLID_368_"
           stroke-miterlimit="10"
           x1="289.89999"
           y1="172.3"
           x2="453.70001"
           y2="172.3"
           style="fill:none;stroke:#414042;stroke-width:1.5;stroke-miterlimit:10" />
      </g>
    </g>
  </g>
</svg>
