<?xml version="1.0" encoding="utf-8"?>
<!-- Generator: Adobe Illustrator 18.0.0, SVG Export Plug-In . SVG Version: 6.00 Build 0)  -->
<!DOCTYPE svg PUBLIC "-//W3C//DTD SVG 1.1//EN" "http://www.w3.org/Graphics/SVG/1.1/DTD/svg11.dtd">
<svg version="1.1" id="Layer_1" xmlns="http://www.w3.org/2000/svg" xmlns:xlink="http://www.w3.org/1999/xlink" x="0px" y="0px"
	 viewBox="0 0 129.5 129.5" enable-background="new 0 0 129.5 129.5" xml:space="preserve">
<g>
	<g>
		<g>
			<path fill="#231F20" d="M90.4,4.5c-0.2,0-0.4-0.1-0.5-0.2c-0.3-0.3-0.3-0.8,0-1.1L91.2,2c0.3-0.3,0.8-0.3,1.1,0
				c0.3,0.3,0.3,0.8,0,1.1l-1.3,1.3C90.8,4.5,90.6,4.5,90.4,4.5z"/>
		</g>
		<g>
			<path fill="#231F20" d="M86.4,8.6c-0.2,0-0.4-0.1-0.5-0.2c-0.3-0.3-0.3-0.8,0-1.1L87.1,6c0.3-0.3,0.8-0.3,1.1,0
				c0.3,0.3,0.3,0.8,0,1.1l-1.3,1.3C86.8,8.5,86.6,8.6,86.4,8.6z"/>
		</g>
		<g>
			<path fill="#231F20" d="M91.7,8.6c-0.2,0-0.4-0.1-0.5-0.2l-1.3-1.3c-0.3-0.3-0.3-0.8,0-1.1c0.3-0.3,0.8-0.3,1.1,0l1.3,1.3
				c0.3,0.3,0.3,0.8,0,1.1C92.1,8.5,91.9,8.6,91.7,8.6z"/>
		</g>
		<g>
			<path fill="#231F20" d="M87.7,4.5c-0.2,0-0.4-0.1-0.5-0.2L85.8,3c-0.3-0.3-0.3-0.8,0-1.1c0.3-0.3,0.8-0.3,1.1,0l1.3,1.3
				c0.3,0.3,0.3,0.8,0,1.1C88,4.5,87.8,4.5,87.7,4.5z"/>
		</g>
		<g>
			<path fill="#231F20" d="M5.3,82.4c-0.2,0-0.4-0.1-0.5-0.2c-0.3-0.3-0.3-0.8,0-1.1L6,79.9c0.3-0.3,0.8-0.3,1.1,0
				c0.3,0.3,0.3,0.8,0,1.1l-1.3,1.3C5.7,82.4,5.5,82.4,5.3,82.4z"/>
		</g>
		<g>
			<path fill="#231F20" d="M1.3,86.5c-0.2,0-0.4-0.1-0.5-0.2c-0.3-0.3-0.3-0.8,0-1.1L2,83.9c0.3-0.3,0.8-0.3,1.1,0
				c0.3,0.3,0.3,0.8,0,1.1l-1.3,1.3C1.6,86.4,1.5,86.5,1.3,86.5z"/>
		</g>
		<g>
			<path fill="#231F20" d="M6.6,86.5c-0.2,0-0.4-0.1-0.5-0.2L4.8,85c-0.3-0.3-0.3-0.8,0-1.1c0.3-0.3,0.8-0.3,1.1,0l1.3,1.3
				c0.3,0.3,0.3,0.8,0,1.1C7,86.4,6.8,86.5,6.6,86.5z"/>
		</g>
		<g>
			<path fill="#231F20" d="M2.5,82.4c-0.2,0-0.4-0.1-0.5-0.2l-1.3-1.3c-0.3-0.3-0.3-0.8,0-1.1c0.3-0.3,0.8-0.3,1.1,0l1.3,1.3
				c0.3,0.3,0.3,0.8,0,1.1C2.9,82.4,2.7,82.4,2.5,82.4z"/>
		</g>
		<g>
			<path fill="#231F20" d="M108.8,123.7c-0.2,0-0.4-0.1-0.5-0.2c-0.3-0.3-0.3-0.8,0-1.1l1.3-1.3c0.3-0.3,0.8-0.3,1.1,0
				c0.3,0.3,0.3,0.8,0,1.1l-1.3,1.3C109.2,123.7,109,123.7,108.8,123.7z"/>
		</g>
		<g>
			<path fill="#231F20" d="M104.8,127.8c-0.2,0-0.4-0.1-0.5-0.2c-0.3-0.3-0.3-0.8,0-1.1l1.3-1.3c0.3-0.3,0.8-0.3,1.1,0
				c0.3,0.3,0.3,0.8,0,1.1l-1.3,1.3C105.1,127.7,105,127.8,104.8,127.8z"/>
		</g>
		<g>
			<path fill="#231F20" d="M110.1,127.8c-0.2,0-0.4-0.1-0.5-0.2l-1.3-1.3c-0.3-0.3-0.3-0.8,0-1.1c0.3-0.3,0.8-0.3,1.1,0l1.3,1.3
				c0.3,0.3,0.3,0.8,0,1.1C110.5,127.7,110.3,127.8,110.1,127.8z"/>
		</g>
		<g>
			<path fill="#231F20" d="M106,123.7c-0.2,0-0.4-0.1-0.5-0.2l-1.3-1.3c-0.3-0.3-0.3-0.8,0-1.1c0.3-0.3,0.8-0.3,1.1,0l1.3,1.3
				c0.3,0.3,0.3,0.8,0,1.1C106.4,123.7,106.2,123.7,106,123.7z"/>
		</g>
		<polygon fill="#FFFFFF" points="64.8,33.2 64.8,54.5 86.1,45 86.1,23.7 		"/>
		<polygon fill="#FFFFFF" points="64.8,33.2 64.8,54.5 43.4,45 43.4,23.7 		"/>
		<path fill="#231F20" d="M64.8,55.3c-0.1,0-0.2,0-0.3-0.1l-21.3-9.5c-0.3-0.1-0.4-0.4-0.4-0.7V23.7c0-0.3,0.1-0.5,0.3-0.6
			c0.2-0.1,0.5-0.2,0.7-0.1l21.3,9.5c0.3,0.1,0.4,0.4,0.4,0.7v21.3c0,0.3-0.1,0.5-0.3,0.6C65,55.2,64.9,55.3,64.8,55.3z M44.2,44.5
			L64,53.4V33.7l-19.8-8.9V44.5z"/>
		<polygon fill="#FFFFFF" points="86.1,23.7 64.7,33.2 43.4,23.7 64.7,14.1 		"/>
		<polygon fill="#FFFFFF" points="107.4,33.2 107.4,54.5 128.7,45 128.7,23.7 		"/>
		<polygon fill="#FFFFFF" points="107.4,33.2 107.4,54.5 86.1,45 86.1,23.7 		"/>
		<polygon fill="#E6E9EE" points="128.7,23.7 107.4,33.2 86.1,23.7 107.4,14.1 		"/>
		<polygon fill="#FFD05B" points="43.4,64.1 43.4,85.4 64.7,75.9 64.7,54.5 		"/>
		<polygon fill="#FF7058" points="43.4,64.1 43.4,85.4 22.1,75.9 22.1,54.5 		"/>
		<polygon fill="#FFFFFF" points="64.7,54.5 43.4,64.1 22.1,54.5 43.4,45 		"/>
		<polygon fill="#84DBFF" points="64.8,95.2 64.8,116.6 86.1,107 86.1,85.7 		"/>
		<polygon fill="#FFFFFF" points="64.8,95.2 64.8,116.6 43.4,107 43.4,85.7 		"/>
		<polygon fill="#FFFFFF" points="86.1,85.7 64.7,95.2 43.4,85.7 64.7,76.1 		"/>
		<g>
			<rect x="85.3" y="79.1" fill="#231F20" width="1.5" height="1"/>
			<rect x="85.3" y="82.1" fill="#231F20" width="1.5" height="1"/>
			
				<rect x="87.1" y="62.8" transform="matrix(0.4082 0.9129 -0.9129 0.4082 109.7701 -42.7039)" fill="#231F20" width="1.5" height="1"/>
			
				<rect x="100.8" y="56.7" transform="matrix(0.4082 0.9129 -0.9129 0.4082 112.277 -58.8289)" fill="#231F20" width="1.5" height="1"/>
			
				<rect x="103.5" y="55.5" transform="matrix(0.4082 0.9129 -0.9129 0.4082 112.7785 -62.0537)" fill="#231F20" width="1.5" height="1"/>
			<rect x="85.3" y="67.1" fill="#231F20" width="1.5" height="1"/>
			
				<rect x="98" y="57.9" transform="matrix(0.4088 0.9126 -0.9126 0.4088 111.7033 -55.6119)" fill="#231F20" width="1.5" height="1"/>
			
				<rect x="89.8" y="61.6" transform="matrix(0.4082 0.9129 -0.9129 0.4082 110.2717 -45.9289)" fill="#231F20" width="1.5" height="1"/>
			<rect x="85.3" y="76.1" fill="#231F20" width="1.5" height="1"/>
			<rect x="85.3" y="64.1" fill="#231F20" width="1.5" height="1"/>
			
				<rect x="95.3" y="59.1" transform="matrix(0.4088 0.9126 -0.9126 0.4088 111.203 -52.3883)" fill="#231F20" width="1.5" height="1"/>
			
				<rect x="92.5" y="60.4" transform="matrix(0.4082 0.9129 -0.9129 0.4082 110.7731 -49.1536)" fill="#231F20" width="1.5" height="1"/>
			<rect x="85.3" y="70.1" fill="#231F20" width="1.5" height="1"/>
			<rect x="85.3" y="73.1" fill="#231F20" width="1.5" height="1"/>
			
				<rect x="81.1" y="61.4" transform="matrix(-0.9126 -0.409 0.409 -0.9126 130.7304 152.1639)" fill="#231F20" width="1" height="1.5"/>
			
				<rect x="83.9" y="62.6" transform="matrix(-0.9125 -0.4091 0.4091 -0.9125 135.4469 155.638)" fill="#231F20" width="1" height="1.5"/>
			
				<rect x="75.7" y="58.9" transform="matrix(-0.9128 -0.4084 0.4084 -0.9128 121.3122 145.2075)" fill="#231F20" width="1" height="1.5"/>
			
				<rect x="78.4" y="60.1" transform="matrix(-0.9128 -0.4083 0.4083 -0.9128 126.0573 148.6658)" fill="#231F20" width="1" height="1.5"/>
			
				<rect x="67.4" y="55.2" transform="matrix(-0.9125 -0.4091 0.4091 -0.9125 107.0366 134.8512)" fill="#231F20" width="1" height="1.5"/>
			
				<rect x="72.9" y="57.7" transform="matrix(-0.9128 -0.4083 0.4083 -0.9128 116.5825 141.741)" fill="#231F20" width="1" height="1.5"/>
			
				<rect x="70.2" y="56.5" transform="matrix(-0.9126 -0.409 0.409 -0.9126 111.7882 138.3068)" fill="#231F20" width="1" height="1.5"/>
			<rect x="21.3" y="45.2" fill="#231F20" width="1.5" height="1"/>
			<rect x="21.3" y="39.2" fill="#231F20" width="1.5" height="1"/>
			<rect x="21.3" y="42.2" fill="#231F20" width="1.5" height="1"/>
			<rect x="21.3" y="48.2" fill="#231F20" width="1.5" height="1"/>
			<rect x="21.3" y="51.2" fill="#231F20" width="1.5" height="1"/>
			
				<rect x="31.3" y="28.2" transform="matrix(-0.4088 -0.9126 0.9126 -0.4088 18.9048 69.7367)" fill="#231F20" width="1.5" height="1"/>
			<rect x="34" y="27" transform="matrix(-0.4082 -0.9129 0.9129 -0.4082 23.8562 70.502)" fill="#231F20" width="1.5" height="1"/>
			
				<rect x="36.8" y="25.8" transform="matrix(-0.4083 -0.9129 0.9129 -0.4083 28.8325 71.2761)" fill="#231F20" width="1.5" height="1"/>
			
				<rect x="39.5" y="24.6" transform="matrix(-0.4083 -0.9129 0.9129 -0.4083 33.8072 72.0496)" fill="#231F20" width="1.5" height="1"/>
			
				<rect x="28.6" y="29.5" transform="matrix(-0.4088 -0.9126 0.9126 -0.4088 13.9291 68.9644)" fill="#231F20" width="1.5" height="1"/>
			<rect x="21.3" y="33.2" fill="#231F20" width="1.5" height="1"/>
			
				<rect x="23.1" y="31.9" transform="matrix(-0.4083 -0.9129 0.9129 -0.4083 3.9573 67.4092)" fill="#231F20" width="1.5" height="1"/>
			
				<rect x="25.8" y="30.7" transform="matrix(-0.4083 -0.9129 0.9129 -0.4083 8.9323 68.1829)" fill="#231F20" width="1.5" height="1"/>
			<rect x="21.3" y="36.2" fill="#231F20" width="1.5" height="1"/>
			
				<rect x="3.4" y="24.3" transform="matrix(-0.9125 -0.4091 0.4091 -0.9125 -2.7139 49.5848)" fill="#231F20" width="1" height="1.5"/>
			
				<rect x="6.2" y="25.6" transform="matrix(-0.9126 -0.409 0.409 -0.9126 2.0243 53.0493)" fill="#231F20" width="1" height="1.5"/>
			
				<rect x="17.1" y="30.5" transform="matrix(-0.9126 -0.4089 0.4089 -0.9126 20.97 66.906)" fill="#231F20" width="1" height="1.5"/>
			
				<rect x="14.4" y="29.2" transform="matrix(-0.9128 -0.4083 0.4083 -0.9128 16.2552 63.4407)" fill="#231F20" width="1" height="1.5"/>
			
				<rect x="19.9" y="31.7" transform="matrix(-0.9125 -0.4091 0.4091 -0.9125 25.6978 70.3707)" fill="#231F20" width="1" height="1.5"/>
			
				<rect x="11.7" y="28" transform="matrix(-0.9128 -0.4083 0.4083 -0.9128 11.5177 59.9783)" fill="#231F20" width="1" height="1.5"/>
			
				<rect x="8.9" y="26.8" transform="matrix(-0.9128 -0.4083 0.4083 -0.9128 6.7802 56.5159)" fill="#231F20" width="1" height="1.5"/>
			<path fill="#231F20" d="M129.5,23.6c0-0.1,0-0.2-0.1-0.3c0,0,0,0,0-0.1c-0.1-0.1-0.1-0.2-0.2-0.2c0,0,0,0,0,0c0,0,0,0,0,0
				c0,0,0,0-0.1,0l-21.3-9.6c-0.2-0.1-0.4-0.1-0.6,0l-21,9.4l-21-9.4c-0.2-0.1-0.4-0.1-0.6,0l-21,9.4l-21-9.4
				c-0.2-0.1-0.4-0.1-0.6,0L0.4,23C0.2,23.1,0,23.4,0,23.7V45c0,0.3,0.2,0.6,0.4,0.7L21.3,55v20.9c0,0.3,0.2,0.6,0.4,0.7l20.9,9.4
				V107c0,0.3,0.2,0.6,0.4,0.7l21.3,9.5c0,0,0,0,0,0c0.1,0,0.2,0.1,0.3,0.1c0.1,0,0.2,0,0.3-0.1c0,0,0,0,0,0l21.3-9.5
				c0.3-0.1,0.4-0.4,0.4-0.7V85.9l20.9-9.3c0.3-0.1,0.4-0.4,0.4-0.7V55l20.9-9.4c0.3-0.1,0.4-0.4,0.4-0.7L129.5,23.6
				C129.5,23.6,129.5,23.6,129.5,23.6z M86.8,24.8l14.9,6.7l4.9,2.2v19.7l-19.8-8.9V24.8z M65.5,53.4V33.7L78.3,28l7-3.2v19.7
				L65.5,53.4z M64.7,14.9l19.5,8.7l-8.6,3.8l-10.9,4.9l-19.5-8.7L64.7,14.9z M44.2,24.8L64,33.7v19.7l-19.8-8.9V24.8z M1.5,44.5
				V24.4l0.2-0.4l20.4-9.1l20.6,9.2v20.4l-20.6,9.2L1.5,44.5z M42.7,84.3l-19.8-8.9V55.7l13.7,6.1l6.1,2.7V84.3z M41.5,62.4
				l-17.6-7.9l19.5-8.7l19.5,8.7l-19.5,8.7L41.5,62.4z M44.2,64.6L64,55.7v19.7l-19.8,8.9V64.6z M64,115.4l-19.8-8.9V86.8l12,5.4
				l7.8,3.5V115.4z M64.7,94.4l-5.6-2.5l-13.9-6.2L64.7,77l19.5,8.7l-6.9,3.1L64.7,94.4z M85.3,106.5l-19.8,8.9V95.7l14-6.3l5.8-2.6
				V106.5z M106.7,75.4l-20.6,9.2l-20.6-9.2V55.3l0.2-0.4l20.4-9.1l20.6,9.2V75.4z M107.4,32.4l-1.5-0.7l-18-8.1l19.5-8.7l19.5,8.7
				l-8.7,3.9L107.4,32.4z M128,44.5l-19.8,8.9V33.7l12.6-5.6l7.3-3.2V44.5z"/>
		</g>
		<g>
			<path fill="#231F20" d="M42.6,9.4h-8.1c-0.4,0-0.8-0.3-0.8-0.8c0-0.4,0.3-0.7,0.8-0.7h8.1c0.4,0,0.8,0.3,0.8,0.7
				C43.4,9.1,43.1,9.4,42.6,9.4z"/>
		</g>
		<g>
			<path fill="#231F20" d="M45.8,12.3h-4c-0.4,0-0.8-0.3-0.8-0.8c0-0.4,0.3-0.8,0.8-0.8h4c0.4,0,0.8,0.3,0.8,0.8
				C46.6,12,46.2,12.3,45.8,12.3z"/>
		</g>
		<g>
			<path fill="#231F20" d="M50.1,9.4h-3.8c-0.4,0-0.8-0.3-0.8-0.8c0-0.4,0.3-0.7,0.8-0.7h3.8c0.4,0,0.8,0.3,0.8,0.7
				C50.8,9.1,50.5,9.4,50.1,9.4z"/>
		</g>
		<g>
			<path fill="#231F20" d="M39,12.3h-0.8c-0.4,0-0.8-0.3-0.8-0.8c0-0.4,0.3-0.8,0.8-0.8H39c0.4,0,0.8,0.3,0.8,0.8
				C39.7,12,39.4,12.3,39,12.3z"/>
		</g>
		<g>
			<path fill="#231F20" d="M111.1,94.5H103c-0.4,0-0.8-0.3-0.8-0.8c0-0.4,0.3-0.8,0.8-0.8h8.1c0.4,0,0.8,0.3,0.8,0.8
				C111.8,94.2,111.5,94.5,111.1,94.5z"/>
		</g>
		<g>
			<path fill="#231F20" d="M114.3,97.5h-4c-0.4,0-0.8-0.3-0.8-0.8c0-0.4,0.3-0.8,0.8-0.8h4c0.4,0,0.8,0.3,0.8,0.8
				C115,97.1,114.7,97.5,114.3,97.5z"/>
		</g>
		<g>
			<path fill="#231F20" d="M118.5,94.5h-3.8c-0.4,0-0.8-0.3-0.8-0.8c0-0.4,0.3-0.8,0.8-0.8h3.8c0.4,0,0.8,0.3,0.8,0.8
				C119.3,94.2,118.9,94.5,118.5,94.5z"/>
		</g>
		<g>
			<path fill="#231F20" d="M107.4,97.5h-0.8c-0.4,0-0.8-0.3-0.8-0.8c0-0.4,0.3-0.8,0.8-0.8h0.8c0.4,0,0.8,0.3,0.8,0.8
				C108.2,97.1,107.8,97.5,107.4,97.5z"/>
		</g>
		<g>
			<path fill="#231F20" d="M22.4,118.3h-8.1c-0.4,0-0.8-0.3-0.8-0.8c0-0.4,0.3-0.8,0.8-0.8h8.1c0.4,0,0.8,0.3,0.8,0.8
				C23.2,117.9,22.8,118.3,22.4,118.3z"/>
		</g>
		<g>
			<path fill="#231F20" d="M25.6,121.2h-4c-0.4,0-0.8-0.3-0.8-0.8c0-0.4,0.3-0.8,0.8-0.8h4c0.4,0,0.8,0.3,0.8,0.8
				C26.3,120.9,26,121.2,25.6,121.2z"/>
		</g>
		<g>
			<path fill="#231F20" d="M29.9,118.3h-3.8c-0.4,0-0.8-0.3-0.8-0.8c0-0.4,0.3-0.8,0.8-0.8h3.8c0.4,0,0.8,0.3,0.8,0.8
				C30.6,117.9,30.3,118.3,29.9,118.3z"/>
		</g>
		<g>
			<path fill="#231F20" d="M18.7,121.2H18c-0.4,0-0.8-0.3-0.8-0.8c0-0.4,0.3-0.8,0.8-0.8h0.8c0.4,0,0.8,0.3,0.8,0.8
				C19.5,120.9,19.2,121.2,18.7,121.2z"/>
		</g>
		<circle fill="#FFD05B" cx="114.7" cy="6.5" r="2.8"/>
		<circle fill="#84DBFF" cx="6.6" cy="9.3" r="2.8"/>
		<circle fill="#E6E9EE" cx="22.1" cy="95.2" r="2.8"/>
		<circle fill="#FFD05B" cx="78.1" cy="121.7" r="2.8"/>
	</g>
</g>
</svg>
