<svg xmlns="http://www.w3.org/2000/svg" xmlns:xlink="http://www.w3.org/1999/xlink" width="700" height="250"><style><![CDATA[.B{fill:#111}.C{fill-rule:evenodd}.D{fill:#e6e6e6}.E{fill:#fff}.F{fill:#f3a52d}.G{fill:#7c7e82}.H{fill:#3dc7d2}.I{fill:#ff8145}]]></style><defs><clipPath id="A"><use xlink:href="#B"/></clipPath><path id="B" d="M0 0h800v800H0z"/></defs><g clip-path="url(#A)" transform="matrix(1.001604 0 0 1.042183 -50.079552 -135.135635)"><path d="M175.26 318.146h19v2h-19zm111.976-47.848h-7.883a2.81 2.81 0 0 1-2.824-2.825v-3.773c-2.072-.554-4.058-1.364-5.92-2.42l-2.658 2.658c-1.066 1.066-2.927 1.066-3.994 0l-5.574-5.574a2.83 2.83 0 0 1 0-3.994l2.668-2.668a25.18 25.18 0 0 1-2.475-5.899h-3.76a2.83 2.83 0 0 1-2.825-2.824v-7.883a2.83 2.83 0 0 1 2.825-2.824h3.773a25.11 25.11 0 0 1 2.421-5.921l-2.658-2.658a2.83 2.83 0 0 1 0-3.994l5.575-5.574c1.066-1.066 2.928-1.067 3.994.001l2.667 2.667c1.856-1.074 3.835-1.904 5.9-2.475v-3.76a2.83 2.83 0 0 1 2.824-2.824h7.883a2.83 2.83 0 0 1 2.824 2.824v3.773c2.072.554 4.058 1.365 5.92 2.422l2.658-2.658c1.067-1.067 2.927-1.066 3.995 0l5.574 5.573a2.83 2.83 0 0 1 0 3.995l-2.668 2.668c1.074 1.855 1.904 3.834 2.476 5.898h3.758a2.83 2.83 0 0 1 2.824 2.824v7.883a2.83 2.83 0 0 1-2.824 2.824h-3.773a25.11 25.11 0 0 1-2.422 5.922l2.66 2.658a2.8 2.8 0 0 1 .827 1.996 2.81 2.81 0 0 1-.827 1.998l-5.574 5.572c-1.064 1.068-2.928 1.068-3.994 0l-2.668-2.667c-1.857 1.075-3.835 1.904-5.9 2.476v3.76a2.83 2.83 0 0 1-2.825 2.824zm-16.94-11.535l.67.4a23.22 23.22 0 0 0 6.789 2.774l.772.18v5.347a.82.82 0 0 0 .824.824h7.883c.455 0 .824-.37.824-.824v-5.32l.764-.186a23.12 23.12 0 0 0 6.763-2.838l.674-.418 3.78 3.78c.313.313.854.313 1.165.001l5.575-5.574c.156-.155.24-.362.24-.583s-.085-.427-.24-.582l-3.762-3.762.4-.67a23.2 23.2 0 0 0 2.776-6.789l.18-.772h5.347c.455 0 .824-.37.824-.824v-7.883c0-.455-.37-.824-.824-.824h-5.317l-.186-.764a23.16 23.16 0 0 0-2.839-6.763l-.418-.674 3.78-3.78a.83.83 0 0 0 0-1.167l-5.573-5.573c-.312-.312-.855-.312-1.167 0l-3.76 3.76-.67-.408c-2.104-1.28-4.388-2.214-6.8-2.775l-.772-.18v-5.348c0-.454-.37-.824-.824-.824H279.3c-.455 0-.824.37-.824.824v5.318l-.764.186a23.16 23.16 0 0 0-6.763 2.839l-.663.4-.56-.542-3.232-3.23c-.312-.312-.854-.3-1.165 0l-5.575 5.574a.83.83 0 0 0 0 1.166l3.76 3.76-.4.672c-1.28 2.102-2.213 4.387-2.775 6.8l-.18.772h-5.347c-.455 0-.825.37-.825.824v7.883c0 .454.37.824.825.824h5.318l.186.764c.582 2.392 1.537 4.668 2.838 6.764l.418.674-3.78 3.78a.83.83 0 0 0 0 1.166l5.573 5.574a.85.85 0 0 0 1.166 0z" class="B"/><path d="M283.274 259.247c11.173.001 20.23-9.06 20.23-20.232s-9.058-20.23-20.23-20.23-20.232 9.058-20.232 20.23 9.058 20.232 20.232 20.232z" class="C F"/><path d="M283.284 255.336l-.032-2h.032a14.39 14.39 0 0 0 2.708-.256l.377 1.965a16.47 16.47 0 0 1-3.085.291zm-4.17-.537c-1.01-.268-2-.633-2.938-1.088l.872-1.8c.824.4 1.69.72 2.577.955zm11.22-1.06l-.864-1.804a14.26 14.26 0 0 0 2.352-1.422l1.194 1.605a16.34 16.34 0 0 1-2.682 1.621zm-17.65-2.313c-.794-.678-1.526-1.437-2.176-2.252l1.564-1.246a14.53 14.53 0 0 0 1.911 1.979zm23.334-2.2l-1.56-1.252c.574-.716 1.082-1.49 1.507-2.3l1.77.93a16.51 16.51 0 0 1-1.718 2.62zm-27.67-3.62c-.422-.956-.753-1.957-.983-2.975l1.95-.44a14.22 14.22 0 0 0 .863 2.609zm30.842-2.913l-1.95-.447c.205-.89.325-1.81.357-2.727l2 .068c-.037 1.048-.174 2.093-.407 3.106zm-30.22-4.15l-2-.066c.035-1.048.17-2.093.4-3.105l1.95.444a14.53 14.53 0 0 0-.351 2.727zm28.3-2.67c-.2-.893-.49-1.77-.857-2.61l1.832-.804c.42.958.75 1.96.977 2.978zm-26.673-3.49l-1.77-.928c.483-.924 1.06-1.806 1.713-2.623l1.563 1.25a14.39 14.39 0 0 0-1.505 2.302zm23.927-2.257a14.48 14.48 0 0 0-1.908-1.983l1.304-1.517a16.48 16.48 0 0 1 2.17 2.257zm-19.79-2.592l-1.196-1.604c.84-.625 1.74-1.172 2.678-1.625l.868 1.802c-.822.398-1.614.876-2.35 1.427zm14.824-1.4a14.21 14.21 0 0 0-2.575-.959l.514-1.933c1 .268 1.998.637 2.937 1.094zm-9-1.177l-.38-1.965c1.02-.197 2.07-.297 3.117-.297l.063 2h-.086c-.897 0-1.818.088-2.714.262z" class="B"/><path d="M664.198 180.354v-2.922c0-1.3.313-2.593.944-3.73 2.205-3.968 6.43-3.714 6.43-3.714s4.226-.254 6.43 3.714c.632 1.136.944 2.43.944 3.73v2.922h4.098v-2.15l-.09-1.894-.242-1.395-.243-.9a12.88 12.88 0 0 0-.694-1.753c-.207-.426-.444-.84-.7-1.24-1.637-2.57-4.585-5.125-9.502-5.06-4.916-.066-7.85 2.488-9.486 5.06-.256.4-.483.815-.69 1.24-.276.567-.507 1.153-.696 1.753a12.65 12.65 0 0 0-.252.91c-.1.46-.178.925-.24 1.395-.083.625-.105 1.26-.105 1.894v2.15z" class="G"/><path d="M683.05 209.38H660.48c-3.795 0-6.883-3.088-6.883-6.883v-16.31c0-3.795 3.088-6.882 6.883-6.882h22.572c3.795 0 6.883 3.087 6.883 6.882v16.31c0 3.795-3.088 6.883-6.883 6.883zm-22.572-28.075a4.89 4.89 0 0 0-4.883 4.882v16.31a4.89 4.89 0 0 0 4.883 4.883h22.572a4.89 4.89 0 0 0 4.883-4.883v-16.31a4.89 4.89 0 0 0-4.883-4.882z" class="B"/><path d="M674.203 194.992v6.394c0 1.31-1.05 2.38-2.358 2.38s-2.36-1.07-2.36-2.38v-6.394c-1.798-.873-3.042-2.675-3.042-4.757 0-2.937 2.33-5.318 5.268-5.318s5.375 2.382 5.375 5.318c-.001 2.082-1.31 3.884-2.884 4.757z" class="G"/><path d="M119.16 281.4h33.723a7.79 7.79 0 0 1 7.765 7.764v70.448a7.79 7.79 0 0 1-7.765 7.765H119.16a7.79 7.79 0 0 1-7.766-7.765v-70.448c.001-4.27 3.495-7.764 7.766-7.764z" class="C E"/><path d="M152.883 368.377H119.16a8.78 8.78 0 0 1-8.766-8.765v-70.448c0-4.832 3.932-8.764 8.766-8.764h33.723c4.833 0 8.765 3.932 8.765 8.764v70.448c0 4.833-3.932 8.765-8.765 8.765zM119.16 282.4c-3.73 0-6.766 3.034-6.766 6.764v70.448c0 3.73 3.035 6.765 6.766 6.765h33.723c3.73 0 6.765-3.034 6.765-6.765v-70.448c0-3.73-3.035-6.764-6.765-6.764z" class="B"/><g class="C D"><path d="M114.02 291.1h44v67.306h-44z"/><path d="M150.624 307.516h-8.963c-3.078 0-5.596-2.518-5.596-5.596s2.518-5.596 5.596-5.596h8.963c3.078 0 5.596 2.518 5.596 5.596s-2.518 5.596-5.596 5.596zm-20.462 22.824H121.2c-3.078 0-5.596-2.52-5.596-5.597s2.518-5.596 5.596-5.596h8.963c3.078 0 5.596 2.52 5.596 5.596s-2.518 5.597-5.596 5.597zm20.462 21.684h-8.963c-3.078 0-5.596-2.52-5.596-5.596s2.518-5.597 5.596-5.597h8.963c3.078 0 5.596 2.52 5.596 5.597s-2.518 5.596-5.596 5.596z"/></g><path d="M134.42 283.54h3.203v2h-3.203z" class="B"/><path d="M137.623 364.938h-3.203a2.5 2.5 0 1 1 0-5h3.203a2.5 2.5 0 1 1 0 5z" class="D"/><path d="M127.875 286.857h16.292v2h-16.292z" class="B"/><g class="C G"><circle r="1.41" cy="346.715" cx="152.08"/><circle r="1.41" cy="346.715" cx="146.143"/><circle r="1.41" cy="346.715" cx="140.206"/><circle r="1.41" cy="301.92" cx="152.08"/><circle r="1.41" cy="301.92" cx="146.143"/><circle r="1.41" cy="301.92" cx="140.206"/><circle r="1.41" cy="324.742" cx="131.618"/><circle r="1.41" cy="324.742" cx="125.68"/><circle r="1.41" cy="324.742" cx="119.743"/></g><path d="M676.905 237.242c-3.565 0-6.873 1.055-9.604 2.94-1.853-2.105-4.4-3.598-7.3-4.08.12-.812.182-1.647.182-2.49 0-9.348-7.578-16.935-16.928-16.935s-16.93 7.578-16.93 16.925a16.9 16.9 0 0 0 .481 3.998c-1.252-.293-2.56-.357-3.903-.357-9.35 0-16.928 7.775-16.928 17.025h87.85c.001-9.25-7.577-17.025-16.93-17.025z" class="H"/><path d="M636.162 255.268h-31.176v-1c0-9.94 8.042-18.025 17.928-18.025v2c-8.448 0-15.382 6.653-15.897 15.025h29.146v2zm-4.648-32.416l-1.475-1.35a17.88 17.88 0 0 1 5.701-4.174l.84 1.815a16.02 16.02 0 0 0-5.066 3.71zm25.746 3.143a15.9 15.9 0 0 0-8.9-7.486l.64-1.896a17.9 17.9 0 0 1 10.018 8.425zm37.576 29.273h-30.842v-2h28.812c-.516-8.372-7.45-15.025-15.9-15.025-3.294 0-6.42.955-9.035 2.763l-.732.505-.587-.668a11.53 11.53 0 0 0-2.994-2.437l.986-1.74a13.54 13.54 0 0 1 2.914 2.221c2.796-1.73 6.044-2.644 9.448-2.644 9.887 0 17.93 8.086 17.93 18.025v1zm-46.174-2h10.5v2h-10.5z" class="B"/><path d="M147.175 255.037c3.085 0 5.947.912 8.31 2.543 1.603-1.82 3.807-3.113 6.308-3.53-.104-.702-.157-1.426-.157-2.156 0-8.087 6.557-14.652 14.647-14.652a14.65 14.65 0 0 1 14.648 14.645c0 1.194-.147 2.352-.417 3.46 1.083-.255 2.216-.3 3.377-.3 8.1 0 14.647 6.727 14.647 14.73h-76.012c.001-8.004 6.558-14.73 14.65-14.73z" class="H"/><path d="M209.538 270.768h-27.1v-2h25.074c-.5-7.105-6.42-12.73-13.6-12.73v-2c8.628 0 15.647 7.057 15.647 15.73v1zm-23.186-28.1a13.65 13.65 0 0 0-4.34-3.18l.84-1.814a15.48 15.48 0 0 1 4.976 3.643zm-22.06 2.692l-1.756-.957c1.896-3.48 5-6.1 8.743-7.352l.64 1.895a13.64 13.64 0 0 0-7.627 6.414zm-5.946 25.398h-26.82v-1c0-8.674 7.02-15.73 15.65-15.73 2.934 0 5.736.775 8.155 2.252a11.85 11.85 0 0 1 2.475-1.87l.986 1.74a9.93 9.93 0 0 0-2.556 2.08l-.587.667-.732-.505c-2.24-1.548-4.917-2.366-7.74-2.366-7.192 0-13.103 5.625-13.614 12.73h24.785zm4.182-2h9.085v2h-9.085z" class="B"/><path d="M307.8 168.503c5.14 0 9.905 1.52 13.84 4.236 2.67-3.034 6.34-5.187 10.506-5.88-.173-1.168-.262-2.374-.262-3.6 0-13.47 10.92-24.406 24.396-24.406s24.398 10.922 24.398 24.393a24.34 24.34 0 0 1-.694 5.762c1.805-.424 3.7-.515 5.625-.515 13.475 0 24.396 11.204 24.396 24.536H283.4c0-13.332 10.922-24.536 24.4-24.536z" class="D"/><path d="M411.007 194.04H366.52v-2h42.468c-.523-12.516-10.808-22.536-23.376-22.536v-2c14.004 0 25.396 11.455 25.396 25.536zm-37.464-46.574c-2.113-2.307-4.617-4.14-7.442-5.448l.84-1.814c3.068 1.42 5.785 3.4 8.077 5.912zm-37.816 4.616l-1.756-.957a25.36 25.36 0 0 1 14.19-11.934l.64 1.895a23.37 23.37 0 0 0-13.074 10.996zm-9.32 41.958H282.4v-1c0-14.08 11.395-25.536 25.4-25.536 4.945 0 9.657 1.356 13.683 3.93 1.285-1.334 2.745-2.47 4.35-3.38l.986 1.74a17.2 17.2 0 0 0-4.429 3.605l-.587.667-.73-.505c-3.845-2.655-8.434-4.06-13.272-4.06-12.57 0-22.856 10.02-23.38 22.536h41.985zm6.966-2h15.132v2h-15.132z" class="B"/><path d="M570.86 162.336c2.128 0 4.1.63 5.73 1.754 1.105-1.255 2.624-2.147 4.35-2.435-.07-.484-.108-.983-.108-1.486 0-5.578 4.522-10.105 10.1-10.105s10.103 4.52 10.103 10.1c0 .825-.102 1.622-.287 2.386.747-.176 1.526-.213 2.328-.213 5.58 0 10.1 4.638 10.1 10.157H560.76c-.001-5.52 4.52-10.158 10.1-10.158zM76.383 345.077c1.535 0 2.957.452 4.13 1.265a5.37 5.37 0 0 1 3.135-1.756 7.25 7.25 0 0 1-.08-1.07c0-4.02 3.26-7.283 7.28-7.283s7.282 3.258 7.282 7.28c0 .593-.074 1.168-.208 1.72.54-.125 1.1-.153 1.68-.153 4.02 0 7.28 3.344 7.28 7.322h-37.78c0-3.98 3.26-7.323 7.28-7.323z" class="F"/><path d="M734.687 367.547h14.2v2h-14.2zm-663.9 0h359.705v2H70.787zm-20.78-.002h10.378v2H50.008zm388.88.002h288.7v2h-288.7z" class="B"/><path d="M359.635 358.98v-101.2c0-5.63-4.458-10.193-9.958-10.193H194.65c-5.5 0-9.958 4.563-9.958 10.193v101.2z" class="D"/><path d="M239.4 246.586h68.56v2H239.4zm77.756 0h11.148v2h-11.148zm43.48 113.394H183.693v-102.2c0-6.172 4.916-11.193 10.958-11.193h28.02v2h-28.02c-4.94 0-8.958 4.124-8.958 9.193v100.2h172.94v-100.2c0-5.07-4.02-9.193-8.958-9.193H336.9v-2h12.767c6.042 0 10.958 5.02 10.958 11.193z" class="B"/><path d="M175.775 358.98v4.783c0 2.642 2.093 4.784 4.673 4.784h183.43c2.58 0 4.673-2.143 4.673-4.784v-4.783z" class="D"/><path d="M363.88 369.547H180.45c-3.128 0-5.673-2.596-5.673-5.784v-5.783h194.777v5.783c-.001 3.188-2.546 5.784-5.674 5.784zm-187.104-9.568v3.783c0 2.087 1.648 3.784 3.673 3.784h183.43c2.025 0 3.673-1.697 3.673-3.784v-3.783z" class="B"/><path d="M193.38 257.246h157.565v93.906H193.38z" class="E"/><g class="B"><path d="M211.35 341.57h2v5.493h-2z"/><path d="M202.424 343.316h139.48v2h-139.48z"/></g><path d="M286.504 328.648h-28.68c-14.878 0-27.05-12.174-27.05-27.052s12.173-27.052 27.05-27.052h28.68c14.878 0 27.05 12.174 27.05 27.052s-12.172 27.052-27.05 27.052z" fill="#ea572e"/><path d="M261.574 318.9v-33.48l28.995 16.74z" class="E"/><g class="B"><path d="M260.574 320.633v-36.945l31.995 18.473zm2-33.48v30.018l25.995-15zm61.32-77.458l4.25 4.248-1.414 1.414-4.25-4.248z"/><path d="M319.12 206.35l7.704 2.063-5.64 5.642zm331.498 65.775l-1.414-1.414 3.5-3.5c.728-.728 1.695-1.13 2.724-1.13s2.002.403 2.73 1.133l1.344 1.35a1.78 1.78 0 0 0 1.365.544c.517-.015 1-.235 1.333-.622l1.252-1.4a3.86 3.86 0 0 1 2.854-1.295 3.91 3.91 0 0 1 2.873 1.253l1.32 1.445c.365.4.887.625 1.406.604a1.83 1.83 0 0 0 1.381-.662l1.052-1.252a3.85 3.85 0 0 1 2.848-1.374c1.082-.034 2.166.415 2.918 1.222l1.388 1.484c.37.396.9.605 1.4.587.542-.017 1.03-.257 1.374-.674l.998-1.214a3.86 3.86 0 0 1 2.79-1.398 3.83 3.83 0 0 1 2.91 1.124l3.736 3.736-1.414 1.414-3.736-3.736a1.82 1.82 0 0 0-1.399-.54c-.528.025-1.005.264-1.342.672l-.998 1.213c-.706.857-1.747 1.367-2.855 1.402-1.112.017-2.178-.4-2.935-1.22l-1.388-1.484c-.367-.394-.857-.598-1.403-.588-.538.015-1.024.25-1.37.66l-1.052 1.253a3.85 3.85 0 0 1-2.87 1.374c-1.096.01-2.176-.434-2.925-1.253l-1.32-1.445c-.358-.393-.894-.63-1.382-.603-.532.004-1.02.226-1.372.622l-1.252 1.4a3.87 3.87 0 0 1-2.771 1.294 3.88 3.88 0 0 1-2.84-1.133l-1.344-1.348c-.352-.352-.808-.582-1.313-.545a1.84 1.84 0 0 0-1.31.543z"/></g><path d="M145.676 232.52h-2.094c-.284-1.17-.75-2.267-1.368-3.26l.007-.008 1.48-1.48c.33-.33.33-.863 0-1.193l-2.575-2.574c-.33-.33-.863-.33-1.193 0l-1.48 1.48c-1.027-.625-2.133-1.072-3.272-1.338v-2.105c0-.466-.377-.843-.843-.843h-3.643c-.466 0-.843.377-.843.843v2.095a11.16 11.16 0 0 0-3.26 1.368l-.007-.007-1.48-1.48a.84.84 0 0 0-1.192 0l-2.576 2.575c-.33.33-.33.863 0 1.192l1.48 1.48a11.18 11.18 0 0 0-1.337 3.273h-2.105c-.465 0-.843.377-.843.842v3.643c0 .467.377.844.843.844h2.095a11.17 11.17 0 0 0 1.368 3.26l-1.488 1.488a.84.84 0 0 0 0 1.191l2.576 2.576c.33.33.863.33 1.192 0l1.48-1.48a11.21 11.21 0 0 0 3.272 1.337v2.105c0 .465.377.843.843.843h3.643c.465 0 .843-.377.843-.843v-2.095a11.2 11.2 0 0 0 3.26-1.368l1.488 1.488c.33.33.863.33 1.192 0l2.576-2.576a.84.84 0 0 0 0-1.191l-1.48-1.48a11.2 11.2 0 0 0 1.338-3.272h2.104c.466 0 .843-.377.843-.844v-3.643c-.001-.465-.38-.842-.845-.842z" class="I"/><path d="M132.53 243.274l-.042-2h.042c.91 0 1.786-.196 2.6-.583l.857 1.807a7.99 7.99 0 0 1-3.458.776zm-4.584-1.424c-.99-.684-1.83-1.598-2.43-2.64l1.734-.995c.45.786 1.084 1.474 1.83 1.99zm11.55-2.56l-1.724-1.014c.466-.79.74-1.657.816-2.574l1.993.166a7.97 7.97 0 0 1-1.085 3.422zm-13.03-4.566l-1.994-.153a7.99 7.99 0 0 1 1.066-3.43l1.73 1.006a6 6 0 0 0-.801 2.577zm11.36-2.518a6.15 6.15 0 0 0-1.819-1.999l1.146-1.64a8.16 8.16 0 0 1 2.415 2.654zm-7.93-2.492l-.867-1.802a8.01 8.01 0 0 1 3.501-.796l.082 1-.082 1c-.922 0-1.81.2-2.634.598z" class="B"/><path d="M745.95 334.967h-2.095c-.284-1.17-.75-2.267-1.368-3.26l.007-.008 1.48-1.48c.33-.33.33-.863 0-1.193l-2.576-2.575c-.33-.33-.862-.33-1.192 0l-1.48 1.48c-1.027-.625-2.133-1.072-3.272-1.338v-2.105c0-.466-.378-.843-.843-.843h-3.644c-.465 0-.843.377-.843.843v2.095a11.16 11.16 0 0 0-3.26 1.368l-1.487-1.487a.84.84 0 0 0-1.192 0l-2.576 2.575c-.33.33-.33.862 0 1.192l1.48 1.48c-.626 1.027-1.07 2.133-1.338 3.272h-2.105c-.466 0-.843.378-.843.843v3.643c0 .467.377.844.843.844h2.095a11.2 11.2 0 0 0 1.368 3.26l-.007.006-1.48 1.482a.84.84 0 0 0 0 1.191l2.576 2.576c.33.33.862.33 1.192 0l1.48-1.48a11.21 11.21 0 0 0 3.272 1.337v2.105c0 .465.378.843.843.843h3.644c.465 0 .843-.378.843-.843v-2.095a11.2 11.2 0 0 0 3.26-1.368l1.488 1.488a.84.84 0 0 0 1.191 0l2.576-2.576a.84.84 0 0 0 0-1.191l-1.48-1.48a11.2 11.2 0 0 0 1.338-3.272h2.105c.465 0 .843-.377.843-.844v-3.643c0-.465-.378-.842-.843-.842z" class="I"/><path d="M732.805 345.72l-.04-2h.04c.91 0 1.787-.196 2.603-.583l.857 1.808c-1.086.514-2.25.775-3.46.775zm-4.582-1.425a8.16 8.16 0 0 1-2.431-2.641l1.734-.994a6.14 6.14 0 0 0 1.831 1.988zm11.548-2.56l-1.723-1.015c.465-.8.74-1.656.814-2.573l1.994.165c-.1 1.22-.464 2.37-1.085 3.423zm-13.027-4.567l-1.994-.15a7.96 7.96 0 0 1 1.065-3.431l1.73 1.006c-.462.793-.73 1.66-.8 2.575zm11.357-2.517a6.15 6.15 0 0 0-1.819-1.999l1.145-1.64a8.16 8.16 0 0 1 2.415 2.654zm-7.93-2.492l-.867-1.803a8.03 8.03 0 0 1 3.501-.795l.082 1-.082 1c-.922.001-1.81.202-2.634.598z" class="B"/><g class="D"><path d="M475.513 329.402h63.618v31.07h-63.618z" class="C"/><path d="M431.204 355.61h152.023v12H431.204z"/><path d="M391.815 180.05h231.012c6.5 0 11.82 5.32 11.82 11.82v125.713c0 6.502-5.318 11.82-11.82 11.82H391.815c-6.5 0-11.82-5.318-11.82-11.82V191.87c0-6.5 5.318-11.82 11.82-11.82z" class="C"/></g><path d="M495.457 315.508h23.73v2h-23.73zm127.37 14.894H533v-2h89.837c5.966 0 10.82-4.854 10.82-10.82V191.87c0-5.966-4.854-10.82-10.82-10.82H391.815c-5.966 0-10.82 4.854-10.82 10.82v125.713c0 5.967 4.854 10.82 10.82 10.82H493.2v2H391.815c-7.07 0-12.82-5.75-12.82-12.82V191.87c0-7.068 5.75-12.82 12.82-12.82h231.012a12.84 12.84 0 0 1 12.82 12.82v125.713c0 7.07-5.75 12.82-12.82 12.82zm-114.157-2h16.785v2H508.67z" class="B"/><path d="M389.52 190.094h235.602v115.053H389.52z" class="C G"/><g class="B"><path d="M456.368 341.63l5.395 5.395-1.414 1.414-5.395-5.395z"/><path d="M459.308 340.348l-5.64 5.64-2.063-7.705zm-28.104 13.472h78.52v2h-78.52zm101.796 0h12.067v2H533z"/></g><path d="M507.268 132.45c-10.973 0-22.914 8.492-22.914 22.657 0 21.56 22.968 44.343 22.968 44.343s22.97-23.154 22.97-44.343c-.001-14.165-12.68-22.657-23.023-22.657zm5.69 32.376c-1.53.935-3.407 1.502-5.636 1.532-3.126-.043-5.563-1.143-7.315-2.832-6.44-5.967-3.986-19.756 7.362-19.756 12.284 0 14.144 16.15 5.59 21.056z" fill="#6bc8d8" class="C"/><path d="M507.386 173.44l-.1-.004c-.946.016-1.987-.082-2.99-.25l.332-1.973a16.55 16.55 0 0 0 2.73.227zm4.093-.462l-.443-1.95a16.27 16.27 0 0 0 2.626-.838l.768 1.846a18.19 18.19 0 0 1-2.951.942zm-11.138-.927a18.43 18.43 0 0 1-2.75-1.419l1.063-1.694a16.42 16.42 0 0 0 2.451 1.265zm17.693-2.014l-1.16-1.63c.75-.533 1.457-1.133 2.106-1.782l1.414 1.414c-.727.73-1.52 1.4-2.36 1.997zm-23.67-1.974a18.54 18.54 0 0 1-2-2.358l1.63-1.16a16.59 16.59 0 0 0 1.783 2.104zm28.6-3.244l-1.693-1.066a16.42 16.42 0 0 0 1.268-2.449l1.848.766a18.64 18.64 0 0 1-1.423 2.749zm-32.603-2.716a18.35 18.35 0 0 1-.945-2.946l1.95-.45c.207.898.5 1.78.842 2.627zm35.164-3.997l-1.973-.333c.152-.9.23-1.825.23-2.75l1.526-.057.473.016c.002 1.077-.085 2.114-.255 3.123zm-36.574-3.045v-.036c0-1.02.084-2.047.25-3.045l1.973.33a16.61 16.61 0 0 0-.224 2.716zm34.41-3.755c-.21-.896-.494-1.78-.848-2.624l1.844-.772a18.37 18.37 0 0 1 .951 2.943zm-31.178-2.53l-1.85-.762a18.4 18.4 0 0 1 1.416-2.753l1.695 1.062a16.33 16.33 0 0 0-1.261 2.453zm28.54-3.3a16.75 16.75 0 0 0-1.79-2.101l1.4-1.42a18.78 18.78 0 0 1 2.005 2.355zm-24.993-2.03l-1.418-1.412a18.9 18.9 0 0 1 2.356-2.002l1.164 1.627a16.64 16.64 0 0 0-2.102 1.787zm20.324-2.353c-.783-.488-1.61-.912-2.455-1.26l.76-1.85a18.49 18.49 0 0 1 2.754 1.412zm-15.013-1.22l-.77-1.846a18.24 18.24 0 0 1 2.948-.948l.447 1.95a16.24 16.24 0 0 0-2.624.845zm9.025-1.043a16.68 16.68 0 0 0-2.7-.221l-.055-2h.055a18.65 18.65 0 0 1 3.026.247z" class="B"/><path d="M466.055 290.964l-.06-50.794 41.303-37.504 41.302 37.15.045 51.148z" class="F"/><path d="M547.932 240.56l-40.63-36.547L466.67 240.9l-1.344-1.48 41.97-38.112 41.974 37.755z" class="B"/><path d="M476.223 220.764h62.616v60.887h-62.616z" class="E"/><g class="F"><path d="M466.055 298.52l82.578-.013-29.23-27.43H495.35z"/><path d="M466.055 298.52v-56.8l29.35 29.36zm82.59 0v-56.8l-29.244 29.36z"/></g><g class="B"><path d="M466.055 299.52a1 1 0 0 1-.684-1.73l29.295-27.44a1 1 0 0 1 .684-.271h24.053c.254 0 .5.097.685.27l29.23 27.43a1 1 0 0 1-.685 1.73zm29.7-27.442l-27.16 25.44 77.52-.012-27.1-25.43h-23.26z"/><path d="M483.008 257.548l12.82 12.82-1.414 1.414-12.82-12.82zm48.505-.001l1.414 1.414-12.82 12.82-1.414-1.414zm-66.516-6.34h2v18.13h-2zM508.45 230h3.603v2h-3.603zm-10 0h3.602v2h-3.602zm-10.002 0h3.602v2h-3.602zm0 6.305h38.165v2h-38.165zm0 6.215h38.165v2h-38.165zm0 6.218h14.595v2h-14.595zM297.9 350.112l-1.828-.812 1.333-2.76 1.77.928-1.276 2.644zm3.24-6.028l-1.686-1.076 1.73-2.527 1.613 1.182-1.658 2.42zm4.106-5.475l-1.506-1.316 2.1-2.24 1.42 1.4-2.002 2.146zm4.877-4.8l-1.293-1.525 2.4-1.904 1.2 1.606-2.3 1.823zm5.538-4.016l-1.05-1.703 2.66-1.52.937 1.768-2.547 1.456zm42.25-2.73l-.5-.222-2.23-.896.696-1.875 1.83.724.498.213-.14.324.746 1.12zm-36.172-.406l-.78-1.842 2.86-1.102.657 1.9-2.737 1.055zm29.7-1.9l-2.854-.684.402-1.96 2.98.714zm-23.227-.265l-.5-1.94 2.995-.65.36 1.967-2.866.623zm33.927-.02l-.93-1.77.98-.496.062-.786 1.992.174-.095 1.32-.034.595-.54.253-1.435.712zm-17.418-1.02l-2.927-.25.1-1.998 3.052.263zm-9.77-.12l-.188-2 3.058-.2.06 2-2.93.18zm29.798-5.617l-1.97-.346.626-2.998 1.943.473-.6 2.87zm1.687-6.628l-1.895-.64 1.076-2.873 1.85.762-1.03 2.75zm85.667-.184l-1.04-2.74 1.846-.77 1.086 2.864zm-82.988-6.115l-1.776-.92 1.498-2.675 1.713 1.033-1.435 2.562zm80.3-.165l-1.444-2.555 1.7-1.04 1.507 2.666zm-76.692-5.656l-1.617-1.178 1.882-2.418 1.538 1.277-1.803 2.32zm73.07-.148l-1.8-2.3 1.533-1.285 1.9 2.4zm-68.64-5.068l-1.423-1.405 2.22-2.1 1.33 1.494-2.128 2.02zm64.2-.13l-2.138-2.013 1.324-1.5 2.23 2.1zm-59.03-4.364l-1.196-1.604 2.5-1.752 1.1 1.677-2.406 1.68zm53.852-.1l-2.414-1.67 1.084-1.68 2.52 1.742zm-48.08-3.56l-.94-1.765 2.746-1.353.825 1.822-2.63 1.296zm42.288-.087l-2.638-1.286.816-1.826 2.757 1.345zm-36.032-2.666l-.663-1.887 2.922-.922.54 1.926-2.798.883zm29.758-.062l-2.804-.87.53-1.93 2.93.9zm-23.153-1.708l-.37-1.966 3.028-.466.238 1.984-2.897.448zm16.534-.036l-2.9-.435.23-1.986 3.03.454zm-9.736-.712l-.068-2 1.633-.027 1.432.02-.06 2-1.4-.02a40.65 40.65 0 0 0-1.526.027z"/></g><path d="M339.236 333.083c7.428 0 14.316 2.194 20.004 6.123 3.858-4.386 9.164-7.497 15.185-8.498a35.53 35.53 0 0 1-.379-5.189c0-19.47 15.786-35.274 35.262-35.274s35.265 15.785 35.265 35.254a35.18 35.18 0 0 1-1.003 8.33c2.608-.613 5.334-.745 8.13-.745 19.476 0 35.262 16.194 35.262 35.464H303.97c0-19.27 15.785-35.465 35.267-35.465z" class="E"/><g class="B"><path d="M487.962 369.547h-63.856v-2h61.842c-.526-18.543-15.688-33.464-34.247-33.464v-2c19.995 0 36.262 16.357 36.262 36.464v1zm-53.375-67.17a34.19 34.19 0 0 0-10.898-7.978l.84-1.814c4.38 2.027 8.26 4.868 11.533 8.44z"/><path d="M379.208 309.136l-1.756-.957c4.396-8.062 11.6-14.114 20.26-17.04l.64 1.895a34.17 34.17 0 0 0-19.145 16.102zm50.508 60.4H302.97v-1c0-20.106 16.27-36.464 36.267-36.464 7.2 0 14.03 2.007 19.845 5.812 1.888-2.014 4.05-3.717 6.44-5.072l.986 1.74a25.33 25.33 0 0 0-6.517 5.305l-.587.667-.73-.505c-5.632-3.9-12.353-5.946-19.436-5.946-18.563 0-33.726 14.92-34.253 33.464h124.733zm-315.5-160.134h19v2h-19zm-36.757 92.87h19v2h-19zm79.996-78.525h19v2h-19zM86.96 278.28h19v2h-19zm154.18-95.907h19v2h-19zm186.386-31.77h19v2h-19zm108.92 14.757h16.15v2h-16.15zm-98.23-35.694h33.56v2h-33.56zM334.85 231.494h19v2h-19zm344.584-7.747h19v2h-19zm33.696 80.4h19v2h-19zM202.2 186.617h2v19.867h-2zm-7.167 4.413h2v15.453h-2zm-7.156 4.3h2v11.146h-2zm-7.157 4.2h2v6.955h-2zM77.46 259.086h19v2h-19zm22.665 0h8.5v2h-8.5zm16.407 5.26a4.26 4.26 0 0 1-4.26-4.26 4.26 4.26 0 1 1 4.26 4.26zm0-6.52c-1.246 0-2.26 1.014-2.26 2.26s1.014 2.26 2.26 2.26 2.26-1.014 2.26-2.26-1.014-2.26-2.26-2.26zm74.653-26.9h19v2h-19zm22.665 0h8.5v2h-8.5zm16.408 5.26c-2.35 0-4.26-1.912-4.26-4.26a4.26 4.26 0 1 1 8.52 0 4.27 4.27 0 0 1-4.26 4.26zm0-6.52c-1.246 0-2.26 1.014-2.26 2.26s1.014 2.26 2.26 2.26 2.26-1.014 2.26-2.26-1.014-2.26-2.26-2.26zM447.6 167.503h19v2h-19zm-12.166 0h8.5v2h-8.5zm-7.908 5.26a4.26 4.26 0 0 1-4.26-4.26 4.25 4.25 0 0 1 4.26-4.26 4.26 4.26 0 1 1 0 8.52zm0-6.52c-1.246 0-2.26 1.015-2.26 2.26s1.014 2.26 2.26 2.26 2.26-1.014 2.26-2.26-1.014-2.26-2.26-2.26zm201.22-20.443h19v2h-19zm22.665 0h8.5v2h-8.5zm16.407 5.25a4.26 4.26 0 0 1-4.26-4.26 4.25 4.25 0 0 1 4.26-4.26 4.26 4.26 0 1 1 0 8.52zm0-6.52c-1.246 0-2.26 1.014-2.26 2.26s1.014 2.26 2.26 2.26 2.26-1.014 2.26-2.26-1.014-2.26-2.26-2.26zm-433.688 9.822l7.07 5.492 6.96-6.073 7.285 6.172 6.73-6.205 7.494 6.207 6.52-6.13 8.37 6.483-1.225 1.58-7.02-5.436-6.563 6.168-7.506-6.218-6.746 6.22-7.32-6.204-6.907 6.025-7.145-5.55-6.517 5.046-1.224-1.58zm-63.598 30.02c-.76 0-1.477-.297-2.015-.834l-2.032-2.033a2.85 2.85 0 0 1 0-4.027l2.033-2.033c1.075-1.075 2.952-1.076 4.028 0l2.033 2.033a2.85 2.85 0 0 1 0 4.027l-2.033 2.033c-.538.537-1.253.834-2.014.834zm0-7.762a.84.84 0 0 0-.6.248l-2.033 2.033a.85.85 0 0 0 0 1.199l2.033 2.033a.87.87 0 0 0 1.199 0l2.033-2.033a.85.85 0 0 0 0-1.199l-2.033-2.033a.84.84 0 0 0-.599-.248zm2.042 115.5a2.83 2.83 0 0 1-2.014-.834l-2.033-2.033a2.85 2.85 0 0 1 0-4.027l2.033-2.033a2.92 2.92 0 0 1 4.028 0l2.033 2.033a2.85 2.85 0 0 1 0 4.027l-2.033 2.033c-.538.537-1.253.834-2.014.834zm0-7.762a.84.84 0 0 0-.6.248l-2.033 2.033a.85.85 0 0 0 0 1.199l2.033 2.033c.32.318.878.32 1.2 0l2.033-2.033a.85.85 0 0 0 0-1.199l-2.033-2.033a.84.84 0 0 0-.6-.248zm177.864-62.8c-.76 0-1.477-.296-2.014-.835l-2.033-2.032c-1.1-1.1-1.1-2.917 0-4.028l2.033-2.032a2.92 2.92 0 0 1 4.028 0l2.033 2.032a2.85 2.85 0 0 1 0 4.028l-2.033 2.032a2.82 2.82 0 0 1-2.014.835zm0-7.762a.84.84 0 0 0-.6.248l-2.033 2.032a.85.85 0 0 0 0 1.2l2.033 2.032a.87.87 0 0 0 1.2 0l2.033-2.032a.85.85 0 0 0 0-1.2l-2.033-2.032a.84.84 0 0 0-.6-.248zm358.812 53.487a2.83 2.83 0 0 1-2.015-.834l-2.032-2.033a2.85 2.85 0 0 1 0-4.027l2.032-2.033c1.076-1.074 2.95-1.076 4.028 0l2.032 2.033a2.85 2.85 0 0 1 0 4.027l-2.032 2.033c-.537.538-1.252.834-2.013.834zm0-7.762a.84.84 0 0 0-.6.248l-2.032 2.033a.85.85 0 0 0 0 1.199l2.032 2.033a.87.87 0 0 0 1.2 0l2.032-2.033a.85.85 0 0 0 0-1.199l-2.032-2.033a.84.84 0 0 0-.599-.248zm-75.782-88.7a2.83 2.83 0 0 1-2.014-.834l-2.032-2.033a2.85 2.85 0 0 1 0-4.027l2.032-2.033c1.076-1.076 2.952-1.075 4.028 0l2.032 2.033a2.85 2.85 0 0 1 0 4.027l-2.032 2.033a2.83 2.83 0 0 1-2.014.834zm0-7.762a.84.84 0 0 0-.6.248l-2.032 2.033a.85.85 0 0 0 0 1.199l2.032 2.033a.87.87 0 0 0 1.2 0l2.032-2.033a.85.85 0 0 0 0-1.199l-2.032-2.033a.84.84 0 0 0-.6-.248zm-81.86-8.94c-.76 0-1.476-.297-2.014-.834l-2.032-2.033a2.85 2.85 0 0 1 0-4.027l2.032-2.033c1.076-1.076 2.952-1.075 4.028 0l2.032 2.033a2.85 2.85 0 0 1 0 4.027l-2.032 2.033a2.83 2.83 0 0 1-2.014.834zm0-7.762a.84.84 0 0 0-.6.248l-2.032 2.033a.85.85 0 0 0 0 1.199l2.032 2.033a.87.87 0 0 0 1.2-.001l2.032-2.032a.85.85 0 0 0 0-1.199l-2.032-2.033a.84.84 0 0 0-.6-.248zM239.4 207.35a2.83 2.83 0 0 1-2.014-.835l-2.032-2.032a2.83 2.83 0 0 1 0-4.029l2.032-2.032c1.076-1.075 2.952-1.077 4.028 0l2.033 2.032a2.87 2.87 0 0 1 0 4.028l-2.033 2.032a2.82 2.82 0 0 1-2.014.836zm0-7.762a.84.84 0 0 0-.6.248l-2.032 2.032c-.16.16-.25.374-.25.6a.84.84 0 0 0 .249.599l2.032 2.033a.87.87 0 0 0 1.2 0l2.033-2.032a.85.85 0 0 0 0-1.2L240 199.836c-.16-.16-.374-.25-.6-.25zm162.047-45.458c-.76 0-1.476-.297-2.014-.834l-2.032-2.033a2.85 2.85 0 0 1 0-4.027l2.032-2.033c1.077-1.076 2.952-1.076 4.028 0l2.033 2.032c1.1 1.1 1.1 2.918 0 4.028l-2.033 2.033c-.538.537-1.253.834-2.014.834zm0-7.762a.84.84 0 0 0-.6.248l-2.033 2.033a.85.85 0 0 0 0 1.199l2.033 2.033a.87.87 0 0 0 1.199 0l2.033-2.033a.85.85 0 0 0 0-1.199l-2.033-2.032c-.16-.16-.372-.25-.6-.25zM84.113 327.663c-.76 0-1.477-.296-2.014-.835l-2.033-2.032c-1.1-1.1-1.1-2.917 0-4.028l2.033-2.032c1.075-1.075 2.952-1.077 4.028 0l2.033 2.032a2.85 2.85 0 0 1 0 4.028l-2.033 2.032a2.82 2.82 0 0 1-2.014.835zm0-7.762a.84.84 0 0 0-.6.248l-2.033 2.032a.85.85 0 0 0 0 1.2l2.033 2.032a.87.87 0 0 0 1.2 0l2.033-2.032a.85.85 0 0 0 0-1.2l-2.033-2.032a.84.84 0 0 0-.6-.248z"/></g><path d="M574.296 358.25v-67.36c0-5.585 4.57-10.155 10.153-10.155h110.767c5.584 0 10.153 4.57 10.153 10.155v67.36c0 5.585-4.57 10.155-10.153 10.155H584.45c-5.584 0-10.153-4.57-10.153-10.155z" class="C E"/><path d="M695.216 369.406H584.45a11.17 11.17 0 0 1-11.153-11.155v-67.36a11.17 11.17 0 0 1 11.153-11.155h110.767a11.17 11.17 0 0 1 11.154 11.155v67.36a11.17 11.17 0 0 1-11.154 11.155zm-110.767-87.67c-5.047 0-9.153 4.107-9.153 9.155v67.36c0 5.048 4.106 9.155 9.153 9.155h110.767c5.048 0 9.154-4.107 9.154-9.155v-67.36c0-5.048-4.106-9.155-9.154-9.155zm110.175 83.044H585.967v-80.42h108.657zm-106.657-2h104.657v-76.42H587.967z" class="B"/><path d="M605.996 326.865h10.906v30.324h-10.906z" class="H"/><path d="M625.227 315.646h10.907V357.2h-10.907z" class="D"/><path d="M644.458 303.842h10.906V357.2h-10.906z" class="F"/><path d="M663.688 291.953h10.907v65.236h-10.907z" class="I"/><path d="M699.416 332.563c1.588 0 2.875-1.287 2.875-2.875v-9c0-1.588-1.287-2.875-2.875-2.875s-2.875 1.287-2.875 2.875v9c0 1.587 1.287 2.875 2.875 2.875zM580.36 329.5c1.202 0 2.176-.975 2.176-2.176v-4.273a2.18 2.18 0 0 0-2.176-2.176 2.18 2.18 0 0 0-2.176 2.176v4.273a2.18 2.18 0 0 0 2.176 2.176z" class="C D"/></g></svg>