<?xml version="1.0" encoding="utf-8"?>
<!-- Generator: Adobe Illustrator 18.0.0, SVG Export Plug-In . SVG Version: 6.00 Build 0)  -->
<!DOCTYPE svg PUBLIC "-//W3C//DTD SVG 1.1//EN" "http://www.w3.org/Graphics/SVG/1.1/DTD/svg11.dtd">
<svg version="1.1" id="Layer_1" xmlns="http://www.w3.org/2000/svg" xmlns:xlink="http://www.w3.org/1999/xlink" x="0px" y="0px"
	 viewBox="0 0 129.5 129.5" enable-background="new 0 0 129.5 129.5" xml:space="preserve">
<g>
	<g>
		<path fill="#FFFFFF" d="M106.1,27.1c0,1.8-0.7,3.4-1.9,4.5c-1.2,1.2-2.8,1.9-4.5,1.9H75.1c-1.7,0-3.2-0.7-4.4-1.8
			c-1.1-1.1-1.8-2.7-1.8-4.4c0-3.3,2.7-6.1,6-6.1c-0.1-0.3-0.1-0.6-0.1-0.9c0-2.3,1.8-4.2,4-4.3c0.2-1.7,1.1-3.2,2.3-4.2
			c1.2-1.1,2.8-1.7,4.5-1.7c2.8,0,5.3,1.7,6.3,4.2c0.8-0.4,1.8-0.6,2.7-0.6c1.9,0,3.5,0.7,4.7,2c1.2,1.2,2,2.9,2,4.7
			c0,0.2,0,0.4,0,0.6c1.4,0.4,2.5,1.2,3.4,2.3C105.6,24.3,106.1,25.6,106.1,27.1z"/>
		<path fill="#FFFFFF" d="M115.4,19c0,1.3-0.5,2.4-1.4,3.3c-0.8,0.8-2,1.4-3.3,1.4H93.2c-1.2,0-2.3-0.5-3.1-1.3
			c-0.8-0.8-1.3-1.9-1.3-3.1c0-2.4,1.9-4.3,4.3-4.4c0-0.2-0.1-0.4-0.1-0.7c0-1.6,1.3-3,2.9-3.1c0.2-1.2,0.8-2.3,1.7-3
			c0.9-0.8,2-1.2,3.3-1.2c2,0,3.8,1.2,4.6,3c0.6-0.3,1.3-0.4,2-0.4c1.3,0,2.5,0.5,3.4,1.4c0.9,0.9,1.4,2.1,1.4,3.4
			c0,0.2,0,0.3,0,0.4c1,0.3,1.8,0.9,2.4,1.6C115.1,16.9,115.4,17.9,115.4,19z"/>
		<path fill="#231F20" d="M115.1,15.7c-0.6-0.8-1.4-1.3-2.2-1.7c0-1.5-0.6-2.8-1.6-3.9c-1.4-1.4-3.6-2-5.5-1.4
			c-1-1.7-2.9-2.8-4.9-2.8C99.4,6,98,6.5,97,7.4c-0.9,0.8-1.5,1.8-1.8,2.9c-1.4,0.3-2.5,1.5-2.9,2.9c-1.4-2.4-3.9-3.9-6.7-3.9
			c-1.9,0-3.7,0.7-5,1.9c-1.2,1.1-2.1,2.5-2.4,4.1c-2.3,0.5-4.1,2.6-4.1,5c0,0.1,0,0.2,0,0.3c-3.4,0.5-5.9,3.3-5.9,6.8
			c0,1.9,0.7,3.6,2,4.9c1.3,1.3,3,2,4.9,2h24.6c1.9,0,3.7-0.7,5.1-2.1c1.4-1.4,2.1-3.2,2.1-5.1c0-1-0.2-1.9-0.6-2.8h4.5
			c1.4,0,2.8-0.6,3.8-1.6c1-1,1.6-2.4,1.6-3.8C116.2,17.8,115.8,16.6,115.1,15.7z M105.4,27.1c0,1.5-0.6,2.9-1.7,4
			c-1.1,1.1-2.5,1.7-4,1.7H75.1c-1.4,0-2.8-0.6-3.8-1.6c-1-1-1.6-2.4-1.6-3.8c0-2.9,2.3-5.3,5.2-5.4c0.2,0,0.4-0.1,0.6-0.3
			c0.1-0.2,0.2-0.4,0.1-0.6c-0.1-0.3-0.1-0.5-0.1-0.8c0-1.9,1.5-3.4,3.3-3.6c0.4,0,0.6-0.3,0.7-0.6c0.2-1.5,0.9-2.8,2.1-3.8
			c1.1-1,2.6-1.5,4.1-1.5c2.4,0,4.6,1.4,5.6,3.6C89.3,15.1,88,17,88,19.2c0,1.4,0.5,2.7,1.5,3.7c1,1,2.3,1.5,3.7,1.5h11.4
			C105.1,25.2,105.4,26.1,105.4,27.1z M113.6,21.7c-0.7,0.7-1.7,1.1-2.7,1.1H93.2c-1,0-1.9-0.4-2.6-1.1c-0.7-0.7-1.1-1.6-1.1-2.6
			c0-2,1.6-3.6,3.6-3.7c0.2,0,0.4-0.1,0.6-0.3c0.1-0.2,0.2-0.4,0.1-0.6c0-0.2-0.1-0.3-0.1-0.5c0-1.2,1-2.3,2.2-2.4
			c0.4,0,0.6-0.3,0.7-0.6c0.1-1,0.6-1.9,1.4-2.6c0.8-0.7,1.7-1,2.8-1c1.7,0,3.2,1,3.9,2.5c0.1,0.2,0.2,0.3,0.4,0.4
			c0.2,0.1,0.4,0.1,0.6,0c1.5-0.7,3.4-0.3,4.5,0.8c0.8,0.8,1.2,1.8,1.2,2.9c0,0.1,0,0.3,0,0.4c0,0.4,0.2,0.7,0.6,0.8
			c0.8,0.2,1.5,0.7,2,1.4c0.5,0.7,0.8,1.5,0.8,2.4C114.7,20,114.3,21,113.6,21.7z"/>
		<path fill="#FFD05B" d="M124.5,121.3c1.3-1.8,2.2-3.8,2.5-5.9l2.4-0.3V112l-2.4-0.3c-0.3-2.1-1.1-4.2-2.5-5.9l1.5-1.9l-2.2-2.2
			l-1.9,1.5c-1.8-1.3-3.8-2.2-5.9-2.5l-0.3-2.4h-3.1l-0.3,2.4c-2.1,0.3-4.2,1.1-5.9,2.5l-1.9-1.5l-2.2,2.2l1.5,1.9
			c-1.3,1.8-2.2,3.8-2.5,5.9l-2.4,0.3v3.1l2.4,0.3c0.3,2.1,1.1,4.2,2.5,5.9l-1.5,1.9l2.2,2.2l1.9-1.5c1.8,1.3,3.8,2.2,5.9,2.5
			l0.3,2.4h3.1l0.3-2.4c2.1-0.3,4.2-1.1,5.9-2.5l1.9,1.5l2.2-2.2L124.5,121.3z M107.8,119.9c-3.5-3.5-3.5-9.2,0-12.7
			c3.5-3.5,9.2-3.5,12.7,0c3.5,3.5,3.5,9.2,0,12.7C117,123.4,111.3,123.4,107.8,119.9z"/>
		<path fill="#FF7058" d="M28.2,41.9c-0.3-2.1-1.1-4.2-2.5-5.9l1.5-1.9L25,31.9l-1.9,1.5c-1.8-1.3-3.8-2.2-5.9-2.5l-0.3-2.4h-3.1
			l-0.3,2.4c-2.1,0.3-4.2,1.1-5.9,2.5l-1.9-1.5l-2.2,2.2L5,35.9c-1.3,1.8-2.2,3.8-2.5,5.9l-2.4,0.3v3.1l2.4,0.3
			c0.3,2.1,1.1,4.2,2.5,5.9l-1.5,1.9l2.2,2.2l1.9-1.5c1.8,1.3,3.8,2.2,5.9,2.5l0.3,2.4h3.1l0.3-2.4c2.1-0.3,4.2-1.1,5.9-2.5l1.9,1.5
			l2.2-2.2l-1.5-1.9c1.3-1.8,2.2-3.8,2.5-5.9l2.4-0.3v-3.1L28.2,41.9z M21.7,50.1c-3.5,3.5-9.2,3.5-12.7,0c-3.5-3.5-3.5-9.2,0-12.7
			c3.5-3.5,9.2-3.5,12.7,0C25.2,40.9,25.2,46.6,21.7,50.1z"/>
		<path fill="#231F20" d="M69.2,8.2c-0.2,0-0.4-0.1-0.5-0.2c-0.3-0.3-0.3-0.8,0-1.1L70,5.6c0.3-0.3,0.8-0.3,1.1,0
			c0.3,0.3,0.3,0.8,0,1.1L69.7,8C69.6,8.1,69.4,8.2,69.2,8.2z"/>
		<path fill="#231F20" d="M65.1,12.2c-0.2,0-0.4-0.1-0.5-0.2c-0.3-0.3-0.3-0.8,0-1.1l1.3-1.3c0.3-0.3,0.8-0.3,1.1,0
			c0.3,0.3,0.3,0.8,0,1.1L65.7,12C65.5,12.2,65.3,12.2,65.1,12.2z"/>
		<path fill="#231F20" d="M70.5,12.2c-0.2,0-0.4-0.1-0.5-0.2l-1.3-1.3c-0.3-0.3-0.3-0.8,0-1.1c0.3-0.3,0.8-0.3,1.1,0l1.3,1.3
			c0.3,0.3,0.3,0.8,0,1.1C70.9,12.2,70.7,12.2,70.5,12.2z"/>
		<path fill="#231F20" d="M66.4,8.2c-0.2,0-0.4-0.1-0.5-0.2l-1.3-1.3c-0.3-0.3-0.3-0.8,0-1.1c0.3-0.3,0.8-0.3,1.1,0L67,6.9
			c0.3,0.3,0.3,0.8,0,1.1C66.8,8.1,66.6,8.2,66.4,8.2z"/>
		<path fill="#231F20" d="M122,30.3c-0.2,0-0.4-0.1-0.5-0.2c-0.3-0.3-0.3-0.8,0-1.1l1.3-1.3c0.3-0.3,0.8-0.3,1.1,0
			c0.3,0.3,0.3,0.8,0,1.1l-1.3,1.3C122.4,30.2,122.2,30.3,122,30.3z"/>
		<path fill="#231F20" d="M117.9,34.3c-0.2,0-0.4-0.1-0.5-0.2c-0.3-0.3-0.3-0.8,0-1.1l1.3-1.3c0.3-0.3,0.8-0.3,1.1,0
			c0.3,0.3,0.3,0.8,0,1.1l-1.3,1.3C118.3,34.2,118.1,34.3,117.9,34.3z"/>
		<path fill="#231F20" d="M123.3,34.3c-0.2,0-0.4-0.1-0.5-0.2l-1.3-1.3c-0.3-0.3-0.3-0.8,0-1.1c0.3-0.3,0.8-0.3,1.1,0l1.3,1.3
			c0.3,0.3,0.3,0.8,0,1.1C123.7,34.2,123.5,34.3,123.3,34.3z"/>
		<path fill="#231F20" d="M119.2,30.3c-0.2,0-0.4-0.1-0.5-0.2l-1.3-1.3c-0.3-0.3-0.3-0.8,0-1.1c0.3-0.3,0.8-0.3,1.1,0l1.3,1.3
			c0.3,0.3,0.3,0.8,0,1.1C119.6,30.2,119.4,30.3,119.2,30.3z"/>
		<path fill="#231F20" d="M6.8,107.9c-0.2,0-0.4-0.1-0.5-0.2c-0.3-0.3-0.3-0.8,0-1.1l1.3-1.3c0.3-0.3,0.8-0.3,1.1,0
			c0.3,0.3,0.3,0.8,0,1.1l-1.3,1.3C7.2,107.8,7,107.9,6.8,107.9z"/>
		<path fill="#231F20" d="M2.8,111.9c-0.2,0-0.4-0.1-0.5-0.2c-0.3-0.3-0.3-0.8,0-1.1l1.3-1.3c0.3-0.3,0.8-0.3,1.1,0
			c0.3,0.3,0.3,0.8,0,1.1l-1.3,1.3C3.2,111.9,3,111.9,2.8,111.9z"/>
		<path fill="#231F20" d="M8.1,111.9c-0.2,0-0.4-0.1-0.5-0.2l-1.3-1.3c-0.3-0.3-0.3-0.8,0-1.1c0.3-0.3,0.8-0.3,1.1,0l1.3,1.3
			c0.3,0.3,0.3,0.8,0,1.1C8.5,111.9,8.3,111.9,8.1,111.9z"/>
		<path fill="#231F20" d="M4.1,107.9c-0.2,0-0.4-0.1-0.5-0.2l-1.3-1.3c-0.3-0.3-0.3-0.8,0-1.1c0.3-0.3,0.8-0.3,1.1,0l1.3,1.3
			c0.3,0.3,0.3,0.8,0,1.1C4.5,107.8,4.3,107.9,4.1,107.9z"/>
		<path fill="#CED5E0" d="M30.5,8.5v18.6c0,0.9,0.7,1.6,1.5,1.6h16.5l8,4.8v-4.8h2.5c0.9,0,1.6-0.7,1.6-1.6V8.5
			c0-0.9-0.7-1.6-1.6-1.6H32C31.2,7,30.5,7.7,30.5,8.5z"/>
		<path fill="#FFFFFF" d="M50.9,2.3v18.6c0,0.9-0.7,1.6-1.5,1.6H32.8l-8,4.8v-4.8h-2.5c-0.9,0-1.6-0.7-1.6-1.6V2.3
			c0-0.9,0.7-1.6,1.6-1.6h27.1C50.2,0.8,50.9,1.5,50.9,2.3z"/>
		<path fill="#231F20" d="M24.8,28c-0.1,0-0.3,0-0.4-0.1c-0.2-0.1-0.4-0.4-0.4-0.7v-4.1h-1.8c-1.3,0-2.3-1-2.3-2.3V2.3
			C19.9,1,21,0,22.3,0h27.1c1.3,0,2.3,1,2.3,2.3v18.6c0,1.3-1,2.3-2.3,2.3H33l-7.9,4.7C25.1,28,24.9,28,24.8,28z M22.3,1.5
			c-0.4,0-0.8,0.4-0.8,0.8v18.6c0,0.4,0.4,0.8,0.8,0.8h2.5c0.4,0,0.8,0.3,0.8,0.8v3.5l6.9-4.1c0.1-0.1,0.3-0.1,0.4-0.1h16.5
			c0.4,0,0.8-0.4,0.8-0.8V2.3c0-0.4-0.4-0.8-0.8-0.8H22.3z"/>
		<line fill="none" x1="23.9" y1="5.7" x2="47.6" y2="5.7"/>
		<rect x="23.9" y="4.9" fill="#231F20" width="23.7" height="1.5"/>
		<line fill="none" x1="23.9" y1="9.7" x2="47.6" y2="9.7"/>
		<rect x="23.9" y="8.9" fill="#231F20" width="23.7" height="1.5"/>
		<line fill="none" x1="23.9" y1="13.7" x2="47.6" y2="13.7"/>
		<rect x="23.9" y="13" fill="#231F20" width="23.7" height="1.5"/>
		<line fill="none" x1="23.9" y1="17.8" x2="37" y2="17.8"/>
		<rect x="23.9" y="17" fill="#231F20" width="13.1" height="1.5"/>
		<path fill="#FFFFFF" d="M115.2,102.5h-101v9.1c0,1.7,1.3,3,3,3h95c1.7,0,3-1.3,3-3V102.5z"/>
		<path fill="#FFFFFF" d="M115.2,102.5h-101V46.7c0-1.7,1.3-3,3-3h95c1.7,0,3,1.3,3,3V102.5z"/>
		<g>
			<rect x="19.8" y="49.2" fill="#84DBFF" width="90" height="47.8"/>
		</g>
		<polygon fill="#FFFFFF" points="74.2,122.8 78.8,114.5 49.1,114.5 53.7,122.8 		"/>
		<path fill="#FFFFFF" d="M84.2,128.7L84.2,128.7c0-3.3-2.6-5.9-5.9-5.9H49.6c-3.3,0-5.9,2.6-5.9,5.9l0,0H84.2z"/>
		<path fill="#231F20" d="M112.2,43H17.3c-2.1,0-3.8,1.7-3.8,3.8v64.8c0,2.1,1.7,3.8,3.8,3.8h31.4l3.7,6.8h-2.8
			c-3.7,0-6.7,3-6.7,6.7c0,0.4,0.3,0.8,0.8,0.8h40.5c0.4,0,0.8-0.3,0.8-0.8c0-3.7-3-6.7-6.7-6.7h-2.8l3.7-6.8h33
			c2.1,0,3.8-1.7,3.8-3.8V46.7C116,44.7,114.3,43,112.2,43z M15,46.7c0-1.3,1-2.3,2.3-2.3h94.9c1.3,0,2.3,1,2.3,2.3v55H15V46.7z
			 M83.4,128H44.5c0.4-2.5,2.5-4.4,5.1-4.4h28.7C80.9,123.6,83,125.5,83.4,128z M73.8,122.1H54.1l-3.7-6.8h27.1L73.8,122.1z
			 M114.5,111.5c0,1.3-1,2.3-2.3,2.3H17.3c-1.3,0-2.3-1-2.3-2.3v-8.3h99.4V111.5z"/>
		<circle fill="#CED5E0" cx="64.8" cy="108.5" r="3.4"/>
		<path fill="#FFFFFF" d="M56.4,81.9c1.5-2,2.4-4.3,2.8-6.7l2.7-0.3l0-3.5L59.2,71c-0.3-2.4-1.3-4.7-2.8-6.7l1.7-2.1l-2.5-2.5
			l-2.1,1.7c-2-1.5-4.3-2.4-6.7-2.8l-0.3-2.7h-3.5l-0.3,2.7c-2.4,0.3-4.7,1.3-6.7,2.8l-2.1-1.7l-2.5,2.5l1.7,2.1
			c-1.5,2-2.4,4.3-2.8,6.7l-2.7,0.3l0,3.5l2.7,0.3c0.3,2.4,1.3,4.7,2.8,6.7L31.2,84l2.5,2.5l2.1-1.7c2,1.5,4.3,2.4,6.7,2.8l0.3,2.7
			h3.5l0.3-2.7c2.4-0.3,4.7-1.3,6.7-2.8l2.1,1.7L58,84L56.4,81.9z M37.4,80.3c-4-4-4-10.4,0-14.4c4-4,10.4-4,14.4,0
			c4,4,4,10.4,0,14.4C47.8,84.2,41.4,84.2,37.4,80.3z"/>
		<path fill="#231F20" d="M46.4,91.1h-3.5c-0.4,0-0.7-0.3-0.8-0.7l-0.3-2.1c-2.2-0.4-4.2-1.2-6-2.5l-1.7,1.3c-0.3,0.2-0.7,0.2-1-0.1
			l-2.5-2.5c-0.3-0.3-0.3-0.7-0.1-1l1.3-1.7c-1.2-1.8-2.1-3.9-2.5-6l-2.1-0.3c-0.4,0-0.7-0.4-0.7-0.8v-3.5c0-0.4,0.3-0.7,0.7-0.8
			l2.1-0.3c0.4-2.2,1.2-4.2,2.5-6l-1.3-1.7c-0.2-0.3-0.2-0.7,0.1-1l2.5-2.5c0.3-0.3,0.7-0.3,1-0.1l1.7,1.3c1.8-1.2,3.9-2.1,6-2.5
			l0.3-2.1c0-0.4,0.4-0.7,0.8-0.7h3.5c0.4,0,0.7,0.3,0.8,0.7l0.3,2.1c2.2,0.4,4.2,1.2,6,2.5l1.7-1.3c0.3-0.2,0.7-0.2,1,0.1l2.5,2.5
			c0.3,0.3,0.3,0.7,0.1,1l-1.3,1.7c1.2,1.8,2.1,3.9,2.5,6l2.1,0.3c0.4,0,0.7,0.4,0.7,0.8v3.5c0,0.4-0.3,0.7-0.7,0.8l-2.1,0.3
			c-0.4,2.2-1.2,4.2-2.5,6l1.3,1.7c0.2,0.3,0.2,0.7-0.1,1L56.1,87c-0.3,0.3-0.7,0.3-1,0.1l-1.7-1.3c-1.8,1.2-3.9,2.1-6,2.5l-0.3,2.1
			C47.1,90.8,46.8,91.1,46.4,91.1z M43.5,89.5h2.2l0.2-2c0-0.3,0.3-0.6,0.6-0.7c2.3-0.3,4.5-1.2,6.4-2.6c0.3-0.2,0.7-0.2,0.9,0
			l1.6,1.3L57,84l-1.3-1.6c-0.2-0.3-0.2-0.6,0-0.9c1.4-1.9,2.3-4.1,2.6-6.4c0-0.3,0.3-0.6,0.7-0.6l2-0.2V72l-2-0.2
			c-0.3,0-0.6-0.3-0.7-0.6c-0.3-2.3-1.2-4.5-2.6-6.4c-0.2-0.3-0.2-0.7,0-0.9l1.3-1.6l-1.5-1.5l-1.6,1.3c-0.3,0.2-0.6,0.2-0.9,0
			c-1.9-1.4-4.1-2.3-6.4-2.6c-0.3,0-0.6-0.3-0.6-0.7l-0.2-2h-2.2l-0.2,2c0,0.3-0.3,0.6-0.6,0.7c-2.3,0.3-4.5,1.2-6.4,2.6
			c-0.3,0.2-0.7,0.2-0.9,0l-1.6-1.3l-1.5,1.5l1.3,1.6c0.2,0.3,0.2,0.6,0,0.9c-1.4,1.9-2.3,4.1-2.6,6.4c0,0.3-0.3,0.6-0.7,0.6l-2,0.2
			v2.2l2,0.2c0.3,0,0.6,0.3,0.7,0.6c0.3,2.3,1.2,4.5,2.6,6.4c0.2,0.3,0.2,0.7,0,0.9L32.2,84l1.5,1.5l1.6-1.3c0.3-0.2,0.6-0.2,0.9,0
			c1.9,1.4,4.1,2.3,6.4,2.6c0.3,0,0.6,0.3,0.6,0.7L43.5,89.5z M44.6,84c-2.9,0-5.7-1.1-7.7-3.2c-4.3-4.3-4.3-11.2,0-15.4
			c2.1-2.1,4.8-3.2,7.7-3.2c2.9,0,5.7,1.1,7.7,3.2c4.3,4.3,4.3,11.2,0,15.4C50.3,82.9,47.5,84,44.6,84z M44.6,63.7
			c-2.5,0-4.9,1-6.7,2.8c-3.7,3.7-3.7,9.6,0,13.3c1.8,1.8,4.1,2.8,6.7,2.8c2.5,0,4.9-1,6.7-2.8c3.7-3.7,3.7-9.6,0-13.3
			C49.5,64.7,47.1,63.7,44.6,63.7z"/>
		<path fill="#FFFFFF" d="M98.9,78.4c0.6-0.9,1-1.9,1.2-2.9l2-0.4l0-3l-2-0.4c-0.2-1-0.6-2-1.2-2.9l1.1-1.7L97.9,65l-1.7,1.1
			c-0.9-0.6-1.9-1-2.9-1.2l-0.4-2l-3,0l-0.4,2c-1,0.2-2,0.6-2.9,1.2L84.9,65l-2.1,2.1l1.1,1.7c-0.6,0.9-1,1.9-1.2,2.9l-2,0.4l0,3
			l2,0.4c0.2,1,0.6,2,1.2,2.9l-1.1,1.7l2.1,2.1l1.7-1.1c0.9,0.6,1.9,1,2.9,1.2l0.4,2l3,0l0.4-2c1-0.2,2-0.6,2.9-1.2l1.7,1.1l2.1-2.1
			L98.9,78.4z M87.4,77.6c-2.2-2.2-2.2-5.8,0-8c2.2-2.2,5.8-2.2,8,0c2.2,2.2,2.2,5.8,0,8C93.2,79.8,89.6,79.8,87.4,77.6z"/>
		<path fill="#231F20" d="M92.9,85h-3c-0.4,0-0.7-0.2-0.7-0.6l-0.3-1.5c-0.8-0.2-1.5-0.5-2.2-0.9l-1.3,0.8C85,83,84.6,83,84.4,82.7
			l-2.1-2.1C82,80.4,82,80,82.2,79.7l0.8-1.3c-0.4-0.7-0.7-1.4-0.9-2.2l-1.5-0.3c-0.3-0.1-0.6-0.4-0.6-0.7l0-3
			c0-0.4,0.2-0.7,0.6-0.7l1.5-0.3c0.2-0.8,0.5-1.5,0.9-2.2l-0.8-1.3c-0.2-0.3-0.1-0.7,0.1-0.9l2.1-2.1c0.2-0.3,0.6-0.3,0.9-0.1
			l1.3,0.8c0.7-0.4,1.4-0.7,2.2-0.9l0.3-1.5c0.1-0.3,0.4-0.6,0.7-0.6h3c0.4,0,0.7,0.2,0.7,0.6l0.3,1.5c0.8,0.2,1.5,0.5,2.2,0.9
			l1.3-0.8c0.3-0.2,0.7-0.1,0.9,0.1l2.1,2.1c0.3,0.3,0.3,0.6,0.1,0.9l-0.8,1.3c0.4,0.7,0.7,1.4,0.9,2.2l1.5,0.3
			c0.3,0.1,0.6,0.4,0.6,0.7l0,3c0,0.4-0.2,0.7-0.6,0.7l-1.5,0.3c-0.2,0.8-0.5,1.5-0.9,2.2l0.8,1.3c0.2,0.3,0.1,0.7-0.1,0.9l-2.1,2.1
			c-0.3,0.3-0.6,0.3-0.9,0.1L96.2,82c-0.7,0.4-1.4,0.7-2.2,0.9l-0.3,1.5C93.6,84.8,93.3,85,92.9,85z M90.6,83.5h1.7l0.3-1.4
			c0.1-0.3,0.3-0.5,0.6-0.6c0.9-0.2,1.8-0.6,2.6-1.1c0.2-0.2,0.6-0.2,0.8,0l1.2,0.8l1.2-1.2l-0.8-1.2c-0.2-0.2-0.2-0.6,0-0.8
			c0.5-0.8,0.9-1.7,1.1-2.6c0.1-0.3,0.3-0.5,0.6-0.6l1.4-0.3l0-1.7l-1.4-0.3c-0.3-0.1-0.5-0.3-0.6-0.6c-0.2-0.9-0.6-1.8-1.1-2.6
			c-0.2-0.2-0.2-0.6,0-0.8l0.8-1.2L97.8,66l-1.2,0.8c-0.2,0.2-0.6,0.2-0.8,0c-0.8-0.5-1.7-0.9-2.6-1.1c-0.3-0.1-0.5-0.3-0.6-0.6
			l-0.3-1.4h-1.7l-0.3,1.4c-0.1,0.3-0.3,0.5-0.6,0.6c-0.9,0.2-1.8,0.6-2.6,1.1c-0.2,0.2-0.6,0.2-0.8,0L85,66l-1.2,1.2l0.8,1.2
			c0.2,0.2,0.2,0.6,0,0.8c-0.5,0.8-0.9,1.7-1.1,2.6c-0.1,0.3-0.3,0.5-0.6,0.6l-1.4,0.3l0,1.7l1.4,0.3c0.3,0.1,0.5,0.3,0.6,0.6
			c0.2,0.9,0.6,1.8,1.1,2.6c0.2,0.2,0.2,0.6,0,0.8L83.8,80l1.2,1.2l1.2-0.8c0.2-0.2,0.6-0.2,0.8,0c0.8,0.5,1.7,0.9,2.6,1.1
			c0.3,0.1,0.5,0.3,0.6,0.6L90.6,83.5z M91.4,80c-1.7,0-3.3-0.7-4.6-1.9c-1.2-1.2-1.9-2.8-1.9-4.6c0-1.7,0.7-3.3,1.9-4.6
			c1.2-1.2,2.8-1.9,4.6-1.9s3.3,0.7,4.6,1.9c1.2,1.2,1.9,2.8,1.9,4.6c0,1.7-0.7,3.3-1.9,4.6C94.8,79.4,93.1,80,91.4,80z M91.4,68.7
			c-1.3,0-2.6,0.5-3.5,1.4c-0.9,0.9-1.4,2.2-1.4,3.5c0,1.3,0.5,2.6,1.4,3.5c0.9,0.9,2.2,1.4,3.5,1.4s2.6-0.5,3.5-1.4
			c0.9-0.9,1.4-2.2,1.4-3.5c0-1.3-0.5-2.6-1.4-3.5C94,69.2,92.7,68.7,91.4,68.7z"/>
		<circle fill="#FFFFFF" cx="91.4" cy="73.6" r="2.6"/>
		<path fill="#231F20" d="M91.4,77c-0.9,0-1.8-0.4-2.4-1c-1.3-1.3-1.3-3.5,0-4.8c1.3-1.3,3.5-1.3,4.8,0c1.3,1.3,1.3,3.5,0,4.8
			C93.2,76.6,92.3,77,91.4,77z M91.4,71.7c-0.5,0-1,0.2-1.3,0.5c-0.7,0.7-0.7,1.9,0,2.6c0.7,0.7,1.9,0.7,2.6,0
			c0.7-0.7,0.7-1.9,0-2.6C92.4,71.9,91.9,71.7,91.4,71.7z"/>
		<path fill="#231F20" d="M54.1,90.7l-0.2-1.5l1-0.2l0.2,1.5L54.1,90.7z M57.1,90.2l-0.2-1.5l1-0.2l0.2,1.5L57.1,90.2z M60.1,89.7
			l-0.2-1.5l1-0.2l0.2,1.5L60.1,89.7z M63.1,89.2l-0.2-1.5l1-0.2l0.2,1.5L63.1,89.2z M66.1,88.7l-0.2-1.5l1-0.2l0.2,1.5L66.1,88.7z
			 M69.1,88.3l-0.2-1.5l1-0.2l0.2,1.5L69.1,88.3z M72,87.8l-0.2-1.5l1-0.2l0.2,1.5L72,87.8z M75,87.3l-0.2-1.5l1-0.2l0.2,1.5
			L75,87.3z M78,86.8l-0.2-1.5l1-0.2l0.2,1.5L78,86.8z M81,86.3l-0.2-1.5l1-0.2l0.2,1.5L81,86.3z M84,85.8l-0.3-1.5l0,0L84,85.8z"/>
		<path fill="#231F20" d="M83.8,62.9l-1-0.2l0.2-1.5l1,0.2L83.8,62.9z M80.8,62.4l-1-0.2l0.2-1.5l1,0.2L80.8,62.4z M77.8,61.9
			l-1-0.2l0.2-1.5l1,0.2L77.8,61.9z M74.8,61.4l-1-0.2l0.2-1.5l1,0.2L74.8,61.4z M71.8,60.9l-1-0.2l0.2-1.5l1,0.2L71.8,60.9z
			 M68.8,60.4l-1-0.2l0.2-1.5l1,0.2L68.8,60.4z M65.8,59.9l-1-0.2l0.2-1.5l1,0.2L65.8,59.9z M62.9,59.5l-1-0.2l0.2-1.5l1,0.2
			L62.9,59.5z M59.9,59l-1-0.2l0.2-1.5l1,0.2L59.9,59z M56.9,58.5l-1-0.2l0.2-1.5l1,0.2L56.9,58.5z M53.9,58L53.9,58l0.3-1.5
			L53.9,58z"/>
		<circle fill="#FFD05B" cx="3.7" cy="14.3" r="3.5"/>
		<circle fill="#FF7058" cx="125.5" cy="49.2" r="3.5"/>
		<circle fill="#E6E9EE" cx="17.8" cy="125.8" r="3.5"/>
	</g>
</g>
</svg>
