<svg xmlns="http://www.w3.org/2000/svg" viewBox="0 0 129.5 129.5"><style><![CDATA[.K{fill:#231F20}.L{fill:#fff}]]></style><path d="M13.5 12.4c-.2 0-.4-.1-.5-.2-.3-.3-.3-.7 0-1l1.2-1.2c.3-.3.7-.3 1 0s.3.7 0 1L14 12.2c-.1.2-.3.2-.5.2zm-3.7 3.8c-.2 0-.4-.1-.5-.2-.3-.3-.3-.7 0-1l1.2-1.2c.3-.3.7-.3 1 0s.3.7 0 1L10.3 16c-.2.1-.3.2-.5.2zm4.9 0c-.2 0-.4-.1-.5-.2L13 14.8c-.3-.3-.3-.7 0-1s.7-.3 1 0l1.2 1.2c.3.3.3.7 0 1-.1.1-.3.2-.5.2zM11 12.4c-.2 0-.4-.1-.5-.2L9.3 11c-.3-.3-.3-.7 0-1s.7-.3 1 0l1.2 1.2c.3.3.3.7 0 1-.2.2-.3.2-.5.2zm15.4 60.4c-.2 0-.4-.1-.5-.2-.3-.3-.3-.7 0-1l1.2-1.2c.3-.3.7-.3 1 0s.3.7 0 1l-1.2 1.2c-.2.1-.3.2-.5.2zm-3.8 3.7c-.2 0-.4-.1-.5-.2-.3-.3-.3-.7 0-1l1.2-1.2c.3-.3.7-.3 1 0s.3.7 0 1l-1.2 1.2c-.1.1-.3.2-.5.2zm5 0c-.2 0-.4-.1-.5-.2l-1.2-1.2c-.3-.3-.3-.7 0-1s.7-.3 1 0l1.2 1.2c.3.3.3.7 0 1-.2.1-.3.2-.5.2zm-3.8-3.7c-.2 0-.4-.1-.5-.2l-1.2-1.2c-.3-.3-.3-.7 0-1s.7-.3 1 0l1.2 1.2c.3.3.3.7 0 1-.1.1-.3.2-.5.2zM51.7 7.5c-.2 0-.4-.1-.5-.2-.3-.3-.3-.7 0-1l1.2-1.2c.3-.3.7-.3 1 0s.3.7 0 1l-1.2 1.2c-.1.1-.3.2-.5.2zM48 11.2c-.2 0-.4-.1-.5-.2-.3-.3-.3-.7 0-1l1.2-1.2c.3-.3.7-.3 1 0s.3.7 0 1L48.4 11c-.1.2-.3.2-.4.2zm4.9 0c-.2 0-.4-.1-.5-.2l-1.2-1.2c-.3-.3-.3-.7 0-1s.7-.3 1 0l1.2 1.2c.3.3.3.7 0 1-.1.2-.3.2-.5.2zm-3.7-3.7c-.2 0-.4-.1-.5-.2l-1.2-1.2c-.3-.3-.3-.7 0-1s.7-.3 1 0l1.2 1.2c.3.3.3.7 0 1-.2.1-.4.2-.5.2z" class="K"/><path d="M78 124.6H60.6L66 85.1h6.6z" fill="#84DBFF"/><path d="M77.8 76.6l-5.2 8.5H66l-5.2-8.5z" fill="#54C0EB"/><g class="L"><path d="M85.7 73.3L76 85.2l-6.7-8.6-6.7 8.6-9.7-11.9"/><path d="M77.8 63.9v7.9l-8.5 4.8-8.5-4.8v-7.9c2.6 2.1 5.5 3.4 8.5 3.4 3.1 0 5.9-1.3 8.5-3.4z"/><path d="M89.7 42.4c-.4-.2-.9-.2-1.3 0a43.21 43.21 0 0 0 .3-5c0-14.4-8.7-19.7-19.4-19.7S49.9 23 49.9 37.4c0 1.7.1 3.4.3 5-.5-.2-.9-.2-1.3 0-1.2.6-1.3 2.9-.2 5.2.9 1.8 2.3 3 3.5 3.1 3.3 9.3 9.7 16.6 17.1 16.6S83.1 60 86.4 50.7c1.2-.1 2.6-1.3 3.5-3.1 1.1-2.2 1-4.6-.2-5.2z"/></g><path d="M109.1 80.3L86 72.7 80.3 67c-.1-.1-.3-.2-.5-.2h-1.3v-2.7c3.4-2.9 6.3-7.3 8.4-12.9 1.3-.3 2.7-1.6 3.6-3.4.6-1.2.9-2.4.9-3.5 0-1.2-.5-2.2-1.4-2.6-.3-.1-.5-.2-.8-.2.2-1.4.2-2.8.2-4.2C89.4 19.6 76.8 17 69.3 17s-20.1 2.7-20.1 20.4c0 1.4.1 2.8.2 4.2-.3 0-.6.1-.8.2-1.6.8-1.8 3.5-.5 6.1.9 1.8 2.3 3.1 3.6 3.4 2 5.5 5 10 8.4 12.9v2.7h-1.3c-.2 0-.4.1-.5.2l-5.8 5.7-23.1 7.6c-4.1 1.4-6.9 5.2-6.9 9.5v34.8H24V89.8c0-3.7 2.4-7 5.9-8.2l22.8-7.5 9.4 11.5c.1.2.4.3.6.3a.55.55 0 0 0 .5-.3l6.1-8 6.1 8a.55.55 0 0 0 .5.3.55.55 0 0 0 .5-.3L86 74.2l22.8 7.5c3.5 1.2 5.9 4.4 5.9 8.2v34.8h1.4V89.8c-.1-4.3-2.8-8.1-7-9.5zM52.9 50.4c-.1-.3-.3-.4-.6-.5-.8 0-2-1-2.9-2.7-1-2-.9-3.9-.1-4.2.1 0 .2-.1.3-.1s.3 0 .5.1.5 0 .7-.1c.2-.2.3-.4.2-.6-.2-1.7-.3-3.3-.3-4.9 0-16.5 11.7-19 18.7-19S88 20.8 88 37.4c0 1.6-.1 3.2-.3 4.9 0 .2.1.5.2.6.2.2.4.2.7.1s.6-.1.8 0c.3.2.6.7.6 1.4a6.8 6.8 0 0 1-.7 2.9c-.9 1.7-2.1 2.6-2.9 2.7-.3 0-.5.2-.6.5-3.5 9.8-9.9 16.2-16.4 16.2-6.6-.1-13-6.5-16.5-16.3zm9.7 33.7l-8.8-10.7 5.3-5.2h1v3.5c0 .3.1.5.4.6l7.8 4.4-5.7 7.4zm-1.1-12.7v-6.2c2.5 1.8 5.2 2.7 7.8 2.7 2.7 0 5.4-1 7.8-2.7v6.2l-7.8 4.4-7.8-4.4zM76 84.1l-5.7-7.3 7.8-4.4c.2-.1.4-.4.4-.6v-3.5h1l5.3 5.2L76 84.1z" class="K"/><path d="M102.6 103l-6.2-6.2-6.2 6.2z" fill="#FF7058"/><path d="M85.4 105.8V103h22v2.8" class="L"/><path d="M108.1 105.8h-1.4v-2.1H86.1v2.1h-1.4v-3.5h23.4z" class="K"/><path d="M112.5 5.6c-9 0-16.3 7.3-16.3 16.3 0 3 .8 5.8 2.2 8.2l-2.2 8.1 8.1-2.2c2.4 1.4 5.2 2.2 8.2 2.2 9 0 16.3-7.3 16.3-16.3s-7.3-16.3-16.3-16.3z" class="L"/><path d="M112.5 39c-2.9 0-5.8-.8-8.3-2.2L96.4 39c-.2.1-.5 0-.7-.2s-.2-.4-.2-.7l2.2-7.8c-1.4-2.6-2.2-5.4-2.2-8.3a16.99 16.99 0 1 1 34 0c0 9.3-7.6 17-17 17zm-8.3-3.7c.1 0 .2 0 .4.1 2.4 1.4 5.1 2.2 7.9 2.2 8.6 0 15.6-7 15.6-15.6s-7-15.6-15.6-15.6-15.6 7-15.6 15.6c0 2.8.7 5.5 2.2 7.9.1.2.1.4.1.5l-1.9 6.9 6.9-1.9c-.1-.1 0-.1 0-.1z" class="K"/><circle cx="112.5" cy="21.9" r="13.7" fill="#FFD05B"/><circle cx="119.5" cy="21.9" r="2.5" class="L"/><path d="M119.5 25.1c-1.7 0-3.2-1.4-3.2-3.2s1.4-3.2 3.2-3.2 3.2 1.4 3.2 3.2-1.5 3.2-3.2 3.2zm0-5a1.79 1.79 0 1 0 0 3.6 1.79 1.79 0 1 0 0-3.6z" class="K"/><circle cx="112.5" cy="21.9" r="2.5" class="L"/><path d="M112.5 25.1c-1.7 0-3.2-1.4-3.2-3.2s1.4-3.2 3.2-3.2c1.7 0 3.2 1.4 3.2 3.2s-1.5 3.2-3.2 3.2zm0-5a1.79 1.79 0 1 0 0 3.6 1.79 1.79 0 0 0 1.8-1.8c-.1-1-.9-1.8-1.8-1.8z" class="K"/><circle cx="105.4" cy="21.9" r="2.5" class="L"/><path d="M105.4 25.1c-1.7 0-3.2-1.4-3.2-3.2s1.4-3.2 3.2-3.2 3.2 1.4 3.2 3.2-1.4 3.2-3.2 3.2zm0-5a1.79 1.79 0 1 0 0 3.6 1.79 1.79 0 1 0 0-3.6zM35.5 47.3H9.8a.68.68 0 0 0-.7.7v15.8a.68.68 0 0 0 .7.7h25.7a.68.68 0 0 0 .7-.7V48a.68.68 0 0 0-.7-.7zM22.6 57.7l-10.7-9h21.5l-10.8 9zm-12.1-8.4l8.5 7.2-8.5 6.1V49.3zm1.7 13.8l7.9-5.7 2.1 1.8a.76.76 0 0 0 .4.2c.2 0 .3-.1.4-.2l2.1-1.8 7.9 5.7H12.2zm14.1-6.6l8.5-7.2v13.3l-8.5-6.1z" class="K"/><circle cx="108.9" cy="59.3" r="12.4" fill="#54C0EB"/><ellipse cx="108.9" cy="59.3" rx="6.5" ry="12.4" class="L"/><path d="M108.9 46.1c-7.2 0-13.1 5.9-13.1 13.1s5.9 13.1 13.1 13.1S122 66.4 122 59.2s-5.9-13.1-13.1-13.1zm11.7 12.5H116c-.1-4.4-1.4-8.2-3.2-10.4 4.3 1.6 7.5 5.6 7.8 10.4zm-12.4-11v10.9h-5c.1-5.5 2.3-10.2 5-10.9zm0 12.4v10.9c-2.7-.7-4.9-5.4-5-10.9h5zm1.4 10.9V60h5c-.2 5.6-2.3 10.2-5 10.9zm0-12.3v-11c2.7.7 4.9 5.4 5 10.9h-5zM105 48.2c-1.9 2.2-3.1 6-3.2 10.4h-4.6c.2-4.8 3.4-8.8 7.8-10.4zM97.2 60h4.6c.1 4.4 1.4 8.2 3.2 10.4-4.4-1.6-7.6-5.6-7.8-10.4zm15.6 10.3c1.9-2.2 3.1-6 3.2-10.4h4.6c-.3 4.9-3.5 8.9-7.8 10.4z" class="K"/><circle cx="31.1" cy="20.4" r="1.9" fill="#FFD05B"/><circle cx="90.6" cy="23.4" r="1.1" fill="#FF7058"/><circle cx="11.6" cy="38.8" r="1.7" fill="#E6E9EE"/><path d="M9.5 32.2a.68.68 0 0 0-.7-.7H.7a.68.68 0 0 0-.7.7.68.68 0 0 0 .7.7h8.1a.68.68 0 0 0 .7-.7zm2.5 2.2H8a.68.68 0 1 0 0 1.4h4a.68.68 0 1 0 0-1.4zm4.2-2.9h-3.8a.68.68 0 0 0-.7.7.68.68 0 0 0 .7.7h3.8a.68.68 0 0 0 .7-.7.68.68 0 0 0-.7-.7zM5.1 34.4h-.7a.68.68 0 1 0 0 1.4h.8a.68.68 0 0 0 .7-.7c0-.4-.4-.7-.8-.7z" class="K"/></svg>