<?xml version="1.0" encoding="utf-8"?>
<!-- Generator: Adobe Illustrator 18.0.0, SVG Export Plug-In . SVG Version: 6.00 Build 0)  -->
<!DOCTYPE svg PUBLIC "-//W3C//DTD SVG 1.1//EN" "http://www.w3.org/Graphics/SVG/1.1/DTD/svg11.dtd">
<svg version="1.1" id="Layer_1" xmlns="http://www.w3.org/2000/svg" xmlns:xlink="http://www.w3.org/1999/xlink" x="0px" y="0px"
	 viewBox="0 0 129.5 129.5" enable-background="new 0 0 129.5 129.5" xml:space="preserve">
<g>
	<g>
		<g>
			<g>
				<path fill="#231F20" d="M118.1,7c-0.2,0-0.4-0.1-0.5-0.2c-0.3-0.3-0.3-0.8,0-1.1l1.3-1.3c0.3-0.3,0.8-0.3,1.1,0
					c0.3,0.3,0.3,0.8,0,1.1l-1.3,1.3C118.5,6.9,118.3,7,118.1,7z"/>
			</g>
			<g>
				<path fill="#231F20" d="M114.1,11c-0.2,0-0.4-0.1-0.5-0.2c-0.3-0.3-0.3-0.8,0-1.1l1.3-1.3c0.3-0.3,0.8-0.3,1.1,0
					c0.3,0.3,0.3,0.8,0,1.1l-1.3,1.3C114.5,11,114.3,11,114.1,11z"/>
			</g>
			<g>
				<path fill="#231F20" d="M119.4,11c-0.2,0-0.4-0.1-0.5-0.2l-1.3-1.3c-0.3-0.3-0.3-0.8,0-1.1c0.3-0.3,0.8-0.3,1.1,0l1.3,1.3
					c0.3,0.3,0.3,0.8,0,1.1C119.8,11,119.6,11,119.4,11z"/>
			</g>
			<g>
				<path fill="#231F20" d="M115.4,7c-0.2,0-0.4-0.1-0.5-0.2l-1.3-1.3c-0.3-0.3-0.3-0.8,0-1.1c0.3-0.3,0.8-0.3,1.1,0l1.3,1.3
					c0.3,0.3,0.3,0.8,0,1.1C115.8,6.9,115.6,7,115.4,7z"/>
			</g>
		</g>
		<g>
			<g>
				<path fill="#231F20" d="M120.1,69.1c-0.2,0-0.4-0.1-0.5-0.2c-0.3-0.3-0.3-0.8,0-1.1l1.3-1.3c0.3-0.3,0.8-0.3,1.1,0
					c0.3,0.3,0.3,0.8,0,1.1l-1.3,1.3C120.5,69,120.3,69.1,120.1,69.1z"/>
			</g>
			<g>
				<path fill="#231F20" d="M116.1,73.2c-0.2,0-0.4-0.1-0.5-0.2c-0.3-0.3-0.3-0.8,0-1.1l1.3-1.3c0.3-0.3,0.8-0.3,1.1,0
					c0.3,0.3,0.3,0.8,0,1.1l-1.3,1.3C116.5,73.1,116.3,73.2,116.1,73.2z"/>
			</g>
			<g>
				<path fill="#231F20" d="M121.4,73.2c-0.2,0-0.4-0.1-0.5-0.2l-1.3-1.3c-0.3-0.3-0.3-0.8,0-1.1c0.3-0.3,0.8-0.3,1.1,0l1.3,1.3
					c0.3,0.3,0.3,0.8,0,1.1C121.8,73.1,121.6,73.2,121.4,73.2z"/>
			</g>
			<g>
				<path fill="#231F20" d="M117.4,69.1c-0.2,0-0.4-0.1-0.5-0.2l-1.3-1.3c-0.3-0.3-0.3-0.8,0-1.1c0.3-0.3,0.8-0.3,1.1,0l1.3,1.3
					c0.3,0.3,0.3,0.8,0,1.1C117.8,69,117.6,69.1,117.4,69.1z"/>
			</g>
		</g>
		<g>
			<g>
				<path fill="#231F20" d="M14.7,67.8c-0.2,0-0.4-0.1-0.5-0.2c-0.3-0.3-0.3-0.8,0-1.1l1.3-1.3c0.3-0.3,0.8-0.3,1.1,0
					c0.3,0.3,0.3,0.8,0,1.1l-1.3,1.3C15.1,67.7,14.9,67.8,14.7,67.8z"/>
			</g>
			<g>
				<path fill="#231F20" d="M10.7,71.8c-0.2,0-0.4-0.1-0.5-0.2c-0.3-0.3-0.3-0.8,0-1.1l1.3-1.3c0.3-0.3,0.8-0.3,1.1,0
					c0.3,0.3,0.3,0.8,0,1.1l-1.3,1.3C11.1,71.7,10.9,71.8,10.7,71.8z"/>
			</g>
			<g>
				<path fill="#231F20" d="M16,71.8c-0.2,0-0.4-0.1-0.5-0.2l-1.3-1.3c-0.3-0.3-0.3-0.8,0-1.1c0.3-0.3,0.8-0.3,1.1,0l1.3,1.3
					c0.3,0.3,0.3,0.8,0,1.1C16.4,71.7,16.2,71.8,16,71.8z"/>
			</g>
			<g>
				<path fill="#231F20" d="M12,67.8c-0.2,0-0.4-0.1-0.5-0.2l-1.3-1.3c-0.3-0.3-0.3-0.8,0-1.1c0.3-0.3,0.8-0.3,1.1,0l1.3,1.3
					c0.3,0.3,0.3,0.8,0,1.1C12.3,67.7,12.1,67.8,12,67.8z"/>
			</g>
		</g>
		<g>
			<polygon fill="#E6E9EE" points="104.9,17.2 96.7,66.5 96.8,17.2 			"/>
		</g>
		<g>
			<polygon fill="#E6E9EE" points="24.3,17.2 32.4,66.5 32.4,17.2 			"/>
		</g>
		<rect x="9.1" y="46.1" fill="#FFFFFF" width="111.8" height="7.1"/>
		<polygon fill="#FFFFFF" points="9.1,46.1 0.8,49.6 9.1,53.2 		"/>
		<path fill="#FFFFFF" d="M128.8,47.2v5c0,0.6-0.5,1.1-1.1,1.1h-6.8l0-7.1h6.8C128.3,46.1,128.8,46.6,128.8,47.2z"/>
		<g>
			<rect x="25.5" y="81.9" fill="#E6E9EE" width="7.2" height="4.7"/>
		</g>
		<g>
			<rect x="34.4" y="81.9" fill="#E6E9EE" width="7.2" height="4.7"/>
		</g>
		<g>
			<rect x="43.2" y="81.9" fill="#E6E9EE" width="7.2" height="4.7"/>
		</g>
		<g>
			<rect x="52.1" y="81.9" fill="#E6E9EE" width="7.2" height="4.7"/>
		</g>
		<g>
			<rect x="69.8" y="81.9" fill="#E6E9EE" width="7.2" height="4.7"/>
		</g>
		<g>
			<rect x="78.8" y="81.9" fill="#E6E9EE" width="7.2" height="4.7"/>
		</g>
		<g>
			<rect x="87.8" y="81.9" fill="#E6E9EE" width="7.2" height="4.7"/>
		</g>
		<g>
			<rect x="96.8" y="81.9" fill="#E6E9EE" width="7.2" height="4.7"/>
		</g>
		<g>
			<rect x="61" y="81.9" fill="#E6E9EE" width="7.2" height="4.7"/>
		</g>
		<g>
			<rect x="29.9" y="75.5" fill="#E6E9EE" width="7.2" height="4.7"/>
		</g>
		<g>
			<rect x="38.8" y="75.5" fill="#E6E9EE" width="7.2" height="4.7"/>
		</g>
		<g>
			<rect x="47.7" y="75.5" fill="#E6E9EE" width="7.2" height="4.7"/>
		</g>
		<g>
			<rect x="65.4" y="75.5" fill="#E6E9EE" width="7.2" height="4.7"/>
		</g>
		<g>
			<rect x="74.4" y="75.5" fill="#E6E9EE" width="7.2" height="4.7"/>
		</g>
		<g>
			<rect x="83.4" y="75.5" fill="#E6E9EE" width="7.2" height="4.7"/>
		</g>
		<g>
			<rect x="92.3" y="75.5" fill="#E6E9EE" width="7.2" height="4.7"/>
		</g>
		<g>
			<rect x="56.5" y="75.5" fill="#E6E9EE" width="7.2" height="4.7"/>
		</g>
		<g>
			<rect x="29.9" y="88.1" fill="#E6E9EE" width="7.2" height="4.7"/>
		</g>
		<g>
			<rect x="38.8" y="88.1" fill="#E6E9EE" width="7.2" height="4.7"/>
		</g>
		<g>
			<rect x="47.7" y="88.1" fill="#E6E9EE" width="7.2" height="4.7"/>
		</g>
		<g>
			<rect x="65.4" y="88.1" fill="#E6E9EE" width="7.2" height="4.7"/>
		</g>
		<g>
			<rect x="74.4" y="88.1" fill="#E6E9EE" width="7.2" height="4.7"/>
		</g>
		<g>
			<rect x="83.4" y="88.1" fill="#E6E9EE" width="7.2" height="4.7"/>
		</g>
		<g>
			<rect x="92.3" y="88.1" fill="#E6E9EE" width="7.2" height="4.7"/>
		</g>
		<g>
			<rect x="56.5" y="88.1" fill="#E6E9EE" width="7.2" height="4.7"/>
		</g>
		<g>
			<rect x="51.3" y="94.8" fill="#E6E9EE" width="24.6" height="10.3"/>
		</g>
		<path fill="#FFFFFF" d="M102.3,88.6c-1.7-0.2-3.1,1.2-3.1,2.8V87c0-1.5-1.1-2.8-2.5-2.9c-1.7-0.2-3.1,1.2-3.1,2.8V83
			c0-1.7-1.4-3-3.1-2.8c-1.5,0.1-2.5,1.5-2.5,2.9l0,3.5c0-1.7-1.4-3-3.1-2.8c-1.5,0.1-2.5,1.5-2.5,2.9v12.1c0-1.7-1.4-3-3.1-2.8
			c-1.5,0.1-2.5,1.5-2.5,2.9v8.5c0,4,1.8,7.8,5,10.3c2.2,1.8,3.5,4.5,3.5,7.3v3.6h17.4v-4.1c0-1.4,0.1-2.8,0.4-4.1l1.7-5.7
			c0.2-1.4,0.4-2.8,0.4-4.1V91.5C104.9,90.1,103.8,88.7,102.3,88.6z"/>
		<path fill="#FFFFFF" d="M27.2,88.6c1.7-0.2,3.1,1.2,3.1,2.8V87c0-1.5,1.1-2.8,2.5-2.9c1.7-0.2,3.1,1.2,3.1,2.8V83
			c0-1.7,1.4-3,3.1-2.8c1.5,0.1,2.5,1.5,2.5,2.9l0,3.5c0-1.7,1.4-3,3.1-2.8c1.5,0.1,2.5,1.5,2.5,2.9v12.1c0-1.7,1.4-3,3.1-2.8
			c1.5,0.1,2.5,1.5,2.5,2.9v8.5c0,4-1.8,7.8-5,10.3c-2.2,1.8-3.5,4.5-3.5,7.3v3.6H27v-4.1c0-1.4-0.1-2.8-0.4-4.1l-1.7-5.7
			c-0.2-1.4-0.4-2.8-0.4-4.1V91.5C24.6,90.1,25.7,88.7,27.2,88.6z"/>
		<g>
			<path fill="#FFFFFF" d="M96.7,66.5V2.6c0-1-0.8-1.7-1.7-1.7H34.5c-1,0-1.7,0.8-1.7,1.7v63.9H96.7z"/>
		</g>
		<g>
			<path fill="#E6E9EE" d="M96.7,15.1V2.6c0-1-0.8-1.7-1.7-1.7H34.5c-1,0-1.7,0.8-1.7,1.7v12.4H96.7z"/>
		</g>
		<g>
			<path fill="#54C0EB" d="M96.7,2.6v5H50.3l-1.2-3.4H39l-1.2,3.4h-5v-5c0-1,0.8-1.7,1.7-1.7H95C95.9,0.9,96.7,1.7,96.7,2.6z"/>
		</g>
		<g>
			<circle fill="#FF7058" cx="92.1" cy="4.3" r="1.6"/>
		</g>
		<g>
			<circle fill="#FFD05B" cx="87.6" cy="4.3" r="1.6"/>
		</g>
		<g>
			<circle fill="#E6E9EE" cx="83.3" cy="4.3" r="1.6"/>
		</g>
		<g>
			<polygon fill="#CED5E0" points="62.8,7.6 50.3,7.6 51.5,4.3 61.6,4.3 			"/>
		</g>
		<g>
			<rect x="41.2" y="9.4" fill="#FFFFFF" width="45.7" height="4.1"/>
		</g>
		<g>
			<path fill="#324A5E" d="M42.5,10.5h0.2v0.8h0c0-0.1,0.1-0.1,0.2-0.2c0.1,0,0.2-0.1,0.2-0.1c0.2,0,0.5,0.1,0.5,0.6v0.8h-0.2v-0.7
				c0-0.2-0.1-0.4-0.3-0.4c-0.2,0-0.3,0.1-0.3,0.2c0,0,0,0.1,0,0.1v0.8h-0.2V10.5z"/>
			<path fill="#324A5E" d="M44.2,10.7v0.4h0.3v0.2h-0.3v0.7c0,0.2,0,0.3,0.2,0.3c0.1,0,0.1,0,0.1,0l0,0.2c0,0-0.1,0-0.2,0
				c-0.1,0-0.2,0-0.3-0.1C44,12.2,44,12.1,44,11.9v-0.7h-0.2v-0.2H44v-0.3L44.2,10.7z"/>
			<path fill="#324A5E" d="M45.1,10.7v0.4h0.3v0.2h-0.3v0.7c0,0.2,0,0.3,0.2,0.3c0.1,0,0.1,0,0.1,0l0,0.2c0,0-0.1,0-0.2,0
				c-0.1,0-0.2,0-0.3-0.1c-0.1-0.1-0.1-0.2-0.1-0.3v-0.7h-0.2v-0.2h0.2v-0.3L45.1,10.7z"/>
			<path fill="#324A5E" d="M45.7,11.5c0-0.2,0-0.3,0-0.4h0.2l0,0.2h0c0.1-0.2,0.2-0.3,0.5-0.3c0.3,0,0.5,0.3,0.5,0.7
				c0,0.5-0.3,0.7-0.6,0.7c-0.2,0-0.3-0.1-0.4-0.2h0v0.7h-0.2V11.5z M46,11.8C46,11.9,46,11.9,46,11.8c0.1,0.3,0.2,0.4,0.4,0.4
				c0.2,0,0.4-0.2,0.4-0.5c0-0.3-0.1-0.5-0.4-0.5c-0.2,0-0.3,0.1-0.4,0.3c0,0,0,0.1,0,0.1V11.8z"/>
			<path fill="#324A5E" d="M47.2,11.3c0-0.1,0.1-0.2,0.2-0.2c0.1,0,0.2,0.1,0.2,0.2c0,0.1-0.1,0.2-0.2,0.2
				C47.3,11.4,47.2,11.4,47.2,11.3z M47.2,12.2c0-0.1,0.1-0.2,0.2-0.2c0.1,0,0.2,0.1,0.2,0.2c0,0.1-0.1,0.2-0.2,0.2
				C47.3,12.4,47.2,12.3,47.2,12.2z"/>
			<path fill="#324A5E" d="M47.6,12.5l0.7-1.9h0.2l-0.7,1.9H47.6z"/>
			<path fill="#324A5E" d="M48.5,12.5l0.7-1.9h0.2l-0.7,1.9H48.5z"/>
			<path fill="#324A5E" d="M50.3,11.1l0.2,0.7c0,0.1,0.1,0.3,0.1,0.4h0c0-0.1,0.1-0.3,0.1-0.4l0.2-0.7h0.2l0.2,0.6
				c0,0.2,0.1,0.3,0.1,0.4h0c0-0.1,0.1-0.3,0.1-0.4l0.2-0.6h0.2l-0.4,1.3h-0.2l-0.2-0.6c0-0.1-0.1-0.3-0.1-0.4h0
				c0,0.2-0.1,0.3-0.1,0.4l-0.2,0.6h-0.2l-0.4-1.3H50.3z"/>
			<path fill="#324A5E" d="M52.3,11.1l0.2,0.7c0,0.1,0.1,0.3,0.1,0.4h0c0-0.1,0.1-0.3,0.1-0.4l0.2-0.7h0.2l0.2,0.6
				c0,0.2,0.1,0.3,0.1,0.4h0c0-0.1,0.1-0.3,0.1-0.4l0.2-0.6h0.2l-0.4,1.3h-0.2l-0.2-0.6c0-0.1-0.1-0.3-0.1-0.4h0
				c0,0.2-0.1,0.3-0.1,0.4l-0.2,0.6h-0.2l-0.4-1.3H52.3z"/>
			<path fill="#324A5E" d="M54.3,11.1l0.2,0.7c0,0.1,0.1,0.3,0.1,0.4h0c0-0.1,0.1-0.3,0.1-0.4l0.2-0.7h0.2l0.2,0.6
				c0,0.2,0.1,0.3,0.1,0.4h0c0-0.1,0.1-0.3,0.1-0.4l0.2-0.6h0.2l-0.4,1.3h-0.2l-0.2-0.6c0-0.1-0.1-0.3-0.1-0.4h0
				c0,0.2-0.1,0.3-0.1,0.4l-0.2,0.6h-0.2l-0.4-1.3H54.3z"/>
			<path fill="#324A5E" d="M56,12.2c0-0.1,0.1-0.2,0.2-0.2c0.1,0,0.2,0.1,0.2,0.2c0,0.1-0.1,0.2-0.2,0.2C56.1,12.4,56,12.3,56,12.2z
				"/>
		</g>
		<path fill="#FFFFFF" d="M118.8,17.9c-1.9,0-3.6,0.8-4.7,2.2c-1.1-1.3-2.8-2.2-4.7-2.2c-3.5,0-6.3,2.8-6.3,6.3
			c0,8.3,11,14.4,11,14.4s11-6,11-14.4C125.1,20.7,122.3,17.9,118.8,17.9z"/>
		<g>
			<path fill="#FF7058" d="M114.1,36.8c-2.3-1.4-8.9-6-9.4-11.8c-0.2-2.2,1-4.4,3.1-5.2c1.9-0.7,3.9-0.1,5.2,1.4l0,0
				c0.6,0.7,1.7,0.7,2.3,0l0,0c1.3-1.5,3.3-2,5.2-1.4c2.1,0.8,3.3,3,3.1,5.2C123,30.7,116.3,35.4,114.1,36.8z"/>
		</g>
		<path fill="#FFFFFF" d="M18.2,41c3.1,0,6-0.8,8.5-2.2l8.9,2.2L33.4,32c1.4-2.5,2.2-5.4,2.2-8.5c0-9.6-7.8-17.4-17.4-17.4
			c-9.6,0-17.4,7.8-17.4,17.4S8.6,41,18.2,41z"/>
		<g>
			<path fill="#231F20" d="M99.2,100.3c-0.4,0-0.8,0.3-0.8,0.8v1c0,0.4,0.3,0.8,0.8,0.8c0.4,0,0.8-0.3,0.8-0.8v-1
				C100,100.7,99.6,100.3,99.2,100.3z"/>
			<path fill="#231F20" d="M93.6,102.5c-0.4,0-0.8,0.3-0.8,0.8v1c0,0.4,0.3,0.8,0.8,0.8c0.4,0,0.8-0.3,0.8-0.8v-1
				C94.3,102.9,94,102.5,93.6,102.5z"/>
			<path fill="#231F20" d="M87.9,102.5c-0.4,0-0.8,0.3-0.8,0.8v1c0,0.4,0.3,0.8,0.8,0.8c0.4,0,0.8-0.3,0.8-0.8v-1
				C88.6,102.9,88.3,102.5,87.9,102.5z"/>
			<path fill="#231F20" d="M30.3,100.3c-0.4,0-0.8,0.3-0.8,0.8v1c0,0.4,0.3,0.8,0.8,0.8c0.4,0,0.8-0.3,0.8-0.8v-1
				C31,100.7,30.7,100.3,30.3,100.3z"/>
			<path fill="#231F20" d="M35.9,102.5c-0.4,0-0.8,0.3-0.8,0.8v1c0,0.4,0.3,0.8,0.8,0.8c0.4,0,0.8-0.3,0.8-0.8v-1
				C36.7,102.9,36.4,102.5,35.9,102.5z"/>
			<path fill="#231F20" d="M41.6,102.5c-0.4,0-0.8,0.3-0.8,0.8v1c0,0.4,0.3,0.8,0.8,0.8c0.4,0,0.8-0.3,0.8-0.8v-1
				C42.4,102.9,42,102.5,41.6,102.5z"/>
			<path fill="#231F20" d="M127.7,45.3H106V32.9c3.2,3.8,7.5,6.2,7.8,6.4c0.1,0.1,0.2,0.1,0.4,0.1c0.1,0,0.2,0,0.4-0.1
				c0.5-0.3,11.4-6.4,11.4-15c0-3.9-3.1-7-7-7c-1.8,0-3.4,0.7-4.7,1.8c-1.3-1.2-3-1.8-4.7-1.8c-1.3,0-2.5,0.4-3.6,1
				c-0.4-1-1.3-1.7-2.5-1.7h-5.9V2.6c0-1.4-1.1-2.5-2.5-2.5H34.5c-1.4,0-2.5,1.1-2.5,2.5v9.1c-3.3-3.9-8.3-6.4-13.8-6.4
				C8.2,5.3,0,13.5,0,23.5c0,10,8.2,18.2,18.2,18.2c1.8,0,3.6-0.3,5.3-0.8v4.5H9.1c-0.1,0-0.2,0-0.3,0.1l0,0l-8.3,3.5
				C0.2,49.1,0,49.3,0,49.6s0.2,0.6,0.5,0.7l8.3,3.5l0,0c0.1,0,0.2,0.1,0.3,0.1h14.5v18.9L9.4,102c-0.3,0.5-0.5,1.1-0.5,1.8v4.3
				c0,1.9,1.5,3.4,3.4,3.4h11.6c0,1.2,0.1,2.4,0.4,3.6l1.7,5.6c0.2,1.3,0.3,2.7,0.3,4v3.3H24c-0.4,0-0.8,0.3-0.8,0.8
				c0,0.4,0.3,0.8,0.8,0.8h24.1c0.4,0,0.8-0.3,0.8-0.8c0-0.4-0.3-0.8-0.8-0.8h-2.9V125c0-2.6,1.2-5.1,3.2-6.7c2.3-1.8,3.9-4.2,4.7-7
				h23.3c0.8,2.7,2.4,5.1,4.7,7c2.1,1.6,3.2,4.1,3.2,6.7v2.8h-2.9c-0.4,0-0.8,0.3-0.8,0.8c0,0.4,0.3,0.8,0.8,0.8h24.1
				c0.4,0,0.8-0.3,0.8-0.8c0-0.4-0.3-0.8-0.8-0.8h-2.3v-3.3c0-1.3,0.1-2.7,0.3-3.9l1.7-5.7c0.2-1.2,0.3-2.3,0.3-3.5h11.6
				c1.9,0,3.4-1.5,3.4-3.4v-4.3c0-0.6-0.2-1.2-0.5-1.7L106,72.8V53.9h21.7c1,0,1.8-0.8,1.8-1.8v-5C129.5,46.2,128.7,45.3,127.7,45.3
				z M8.3,52l-5.6-2.4l5.6-2.4V52z M109.3,18.7c1.6,0,3.1,0.7,4.2,1.9c0.3,0.3,0.9,0.3,1.1,0c1.1-1.2,2.6-1.9,4.2-1.9
				c3,0,5.5,2.5,5.5,5.5c0,6.9-8.4,12.4-10.2,13.5c-1.9-1.1-10.2-6.5-10.2-13.5C103.8,21.2,106.3,18.7,109.3,18.7z M97.5,18h5.9
				c0.6,0,1.1,0.5,1.1,1.1v0c-1.3,1.3-2.1,3.1-2.1,5c0,2.4,0.9,4.7,2.1,6.6v14.5h-7V18z M97.5,53.9l7,0v11.8h-7V53.9z M104.5,67.3v5
				H25v-5H104.5z M25,65.8V53.9l7,0v11.8H25z M32,45.3h-7v-5c0.6-0.2,1.2-0.5,1.8-0.8l5.2,1.3V45.3z M33.5,2.6c0-0.5,0.4-1,1-1H95
				c0.5,0,1,0.4,1,1v63.1H33.5V41.2l1.9,0.5c0.1,0,0.1,0,0.2,0c0.2,0,0.4-0.1,0.5-0.2c0.2-0.2,0.3-0.5,0.2-0.7l-2.2-8.6
				c1.4-2.6,2.2-5.6,2.2-8.6c0-3.6-1.1-6.9-2.8-9.7V2.6z M18.2,40.2C9,40.2,1.5,32.7,1.5,23.5S9,6.8,18.2,6.8
				c9.2,0,16.7,7.5,16.7,16.7c0,2.8-0.7,5.7-2.1,8.2c-0.1,0.2-0.1,0.4-0.1,0.6l1.9,7.7L26.9,38c-0.2,0-0.4,0-0.6,0.1
				C23.9,39.5,21,40.2,18.2,40.2z M9.8,46.8H32v2l-22.2,0V46.8z M9.8,52.4v-2l22.2,0v2L9.8,52.4z M52.2,107.4c0,3.8-1.7,7.3-4.7,9.7
				c-2.4,1.9-3.8,4.8-3.8,7.9v2.8H27.8v-3.3c0-1.4-0.1-2.9-0.4-4.4l-1.7-5.6c-0.2-1.3-0.3-2.7-0.3-4V91.5c0-1.1,0.8-2.1,1.9-2.2
				c1.2-0.1,2.3,0.9,2.3,2.1c0,0,0,0,0,0c0,0,0,0,0,0v7.4c0,0.4,0.3,0.8,0.8,0.8c0.4,0,0.8-0.3,0.8-0.8V87c0-1.1,0.8-2.1,1.9-2.2
				c1.2-0.1,2.3,0.9,2.3,2.1v13.7c0,0.4,0.3,0.8,0.8,0.8c0.4,0,0.8-0.3,0.8-0.8V83c0-1.2,1-2.2,2.3-2.1c1,0.1,1.9,1.1,1.9,2.2v17.5
				c0,0.4,0.3,0.8,0.8,0.8c0.4,0,0.8-0.3,0.8-0.8V86.7c0-1.2,1-2.2,2.3-2.1c1,0.1,1.9,1.1,1.9,2.2v18.8c0,0.4,0.3,0.8,0.8,0.8
				s0.8-0.3,0.8-0.8v-6.8c0-1.2,1-2.2,2.3-2.1c1,0.1,1.9,1.1,1.9,2.2V107.4z M104.1,110.6c0,1.3-0.1,2.7-0.3,3.9l-1.7,5.7
				c-0.2,1.4-0.4,2.8-0.4,4.3v3.3H85.9V125c0-3.1-1.4-6-3.8-7.9c-3-2.4-4.7-5.9-4.7-9.7V99c0-1.1,0.8-2.1,1.9-2.2
				c1.2-0.1,2.3,0.9,2.3,2.1v6.8c0,0.4,0.3,0.8,0.8,0.8c0.4,0,0.8-0.3,0.8-0.8V86.8c0-1.1,0.8-2.1,1.9-2.2c1.2-0.1,2.3,0.9,2.3,2.1
				v13.9c0,0.4,0.3,0.8,0.8,0.8c0.4,0,0.8-0.3,0.8-0.8V83.1c0-1.1,0.8-2.1,1.9-2.2c1.2-0.1,2.3,0.9,2.3,2.1v17.6
				c0,0.4,0.3,0.8,0.8,0.8c0.4,0,0.8-0.3,0.8-0.8V86.9c0-1.2,1-2.2,2.3-2.1c1,0.1,1.9,1.1,1.9,2.2v11.9c0,0.4,0.3,0.8,0.8,0.8
				c0.4,0,0.8-0.3,0.8-0.8v-7.4c0,0,0,0,0,0c0,0,0,0,0,0c0-1.2,1-2.2,2.3-2.1c1,0.1,1.9,1.1,1.9,2.2V110.6z M118.8,102.8
				c0.2,0.3,0.3,0.6,0.3,1v4.3c0,1-0.8,1.9-1.9,1.9h-11.6V91.5c0-1.9-1.4-3.5-3.2-3.7c-0.9-0.1-1.8,0.2-2.4,0.6V87
				c0-1.9-1.4-3.5-3.2-3.7c-0.9-0.1-1.8,0.2-2.4,0.6V83c0-2.1-1.8-3.8-3.9-3.6c-1.8,0.2-3.2,1.8-3.2,3.7v0.6
				c-0.7-0.5-1.5-0.7-2.4-0.6c-1.8,0.2-3.2,1.8-3.2,3.7V96c-0.7-0.5-1.5-0.7-2.4-0.6c-1.8,0.2-3.2,1.8-3.2,3.7v8.5
				c0,0.8,0.1,1.6,0.2,2.4H53.4c0.1-0.8,0.2-1.6,0.2-2.4V99c0-1.9-1.4-3.5-3.2-3.7c-0.9-0.1-1.8,0.2-2.4,0.6v-9.2
				c0-1.9-1.4-3.5-3.2-3.7c-0.9-0.1-1.8,0.2-2.4,0.6v-0.6c0-1.9-1.4-3.5-3.2-3.7c-2.1-0.2-3.9,1.5-3.9,3.6V84
				c-0.7-0.5-1.5-0.7-2.4-0.6c-1.8,0.2-3.2,1.8-3.2,3.7v1.5c-0.7-0.5-1.5-0.7-2.4-0.6c-1.8,0.2-3.2,1.8-3.2,3.7v18.3H12.3
				c-1,0-1.9-0.8-1.9-1.9v-4.3c0-0.3,0.1-0.7,0.3-1l14-29h80L118.8,102.8z M120.1,52.4l-22.7,0v-2l22.7,0V52.4z M120.1,48.9l-22.7,0
				v-2h22.7V48.9z M128,52.1c0,0.2-0.1,0.3-0.3,0.3h-6.1v-5.6h6.1c0.2,0,0.3,0.1,0.3,0.3V52.1z"/>
		</g>
		<g>
			<circle fill="#FFD05B" cx="18.2" cy="23.4" r="14.5"/>
		</g>
		<g>
			<circle fill="#FFFFFF" cx="10.7" cy="23.4" r="2.6"/>
		</g>
		<g>
			<circle fill="#FFFFFF" cx="18.2" cy="23.4" r="2.6"/>
		</g>
		<g>
			<circle fill="#FFFFFF" cx="25.7" cy="23.4" r="2.6"/>
		</g>
		<g>
			<rect x="37.7" y="17.9" fill="#E6E9EE" width="13.7" height="13.7"/>
		</g>
		<g>
			<rect x="53.8" y="17.9" fill="#84DBFF" width="38" height="40.8"/>
		</g>
		<g>
			<circle fill="#FFFFFF" cx="44.6" cy="22.1" r="3"/>
		</g>
		<g>
			<path fill="#FFFFFF" d="M50.5,31.7c-0.1-3.2-2.7-5.7-5.9-5.7c-3.2,0-5.8,2.5-5.9,5.7H50.5z"/>
		</g>
		<g>
			<g>
				<rect x="56.4" y="20.2" fill="#FFFFFF" width="33.1" height="1.5"/>
			</g>
			<g>
				<rect x="56.4" y="23.6" fill="#FFFFFF" width="33.1" height="1.5"/>
			</g>
			<g>
				<rect x="56.4" y="27.1" fill="#FFFFFF" width="22.6" height="1.5"/>
			</g>
		</g>
		<g>
			<line fill="#FFFFFF" x1="38" y1="36.8" x2="51.3" y2="36.8"/>
			<rect x="38" y="36" fill="#231F20" width="13.3" height="1.5"/>
		</g>
		<g>
			<line fill="#FFFFFF" x1="38" y1="41.9" x2="51.3" y2="41.9"/>
			<rect x="38" y="41.1" fill="#231F20" width="13.3" height="1.5"/>
		</g>
		<g>
			<line fill="#FFFFFF" x1="38" y1="47" x2="51.3" y2="47"/>
			<rect x="38" y="46.2" fill="#231F20" width="13.3" height="1.5"/>
		</g>
		<g>
			<line fill="#FFFFFF" x1="38" y1="52.1" x2="51.3" y2="52.1"/>
			<rect x="38" y="51.3" fill="#231F20" width="13.3" height="1.5"/>
		</g>
		<g>
			<line fill="#FFFFFF" x1="38" y1="57.2" x2="51.3" y2="57.2"/>
			<rect x="38" y="56.4" fill="#231F20" width="13.3" height="1.5"/>
		</g>
	</g>
</g>
</svg>
