<svg xmlns="http://www.w3.org/2000/svg" xmlns:xlink="http://www.w3.org/1999/xlink" width="630.524" height="293.589"><style><![CDATA[.B{fill:#ffd23d}.C{fill:#282d33}.D{fill:#fff}.E{fill:#84dbff}]]></style><path d="M109.81 145.093l16.552 15.22 18.667-18.667-18.3-19.71-11.085 10.763-5.832 12.395" class="B"/><g class="C"><path d="M151.698 192.313a1.34 1.34 0 0 1-.944-.39l-2.667-2.667 1.885-1.887 1.895 1.893 2.496-1.664v-1.952c0-.737.597-1.333 1.333-1.333h1.928l2.072-1.917v-2.083c0-.737.597-1.333 1.333-1.333h2.115l1.885-1.887v-2.113c0-.737.597-1.333 1.333-1.333h1.953l1.665-2.5-15.228-15.225 1.885-1.887 16 16c.45.45.52 1.155.167 1.683l-2.667 4a1.33 1.33 0 0 1-1.109.595h-1.333v1.333a1.33 1.33 0 0 1-.391.943l-2.667 2.667a1.33 1.33 0 0 1-.943.39h-1.333v1.333a1.33 1.33 0 0 1-.428.979l-2.884 2.667c-.247.228-.57.355-.905.355h-1.116v1.333a1.34 1.34 0 0 1-.593 1.11l-4 2.667a1.33 1.33 0 0 1-.74.224m-25.332-30.668a1.33 1.33 0 0 1-.901-.352l-16.552-15.22 1.804-1.964 15.612 14.355L143.18 141.6l-17.428-18.768 1.955-1.815 18.3 19.7c.488.525.473 1.344-.035 1.85l-18.667 18.667c-.26.26-.6.4-.943.4"/><path d="M121.97 157.258l-1.88-1.9 20.145-20.017 1.88 1.9-20.145 20.017m-2.826-12.165a2.67 2.67 0 0 0 0 3.77 2.67 2.67 0 0 0 3.77 0c1.04-1.04 1.043-2.73 0-3.77a2.67 2.67 0 0 0-3.77 0M172.64 170.6l-1.885-1.887 20-20c.25-.25.6-.4.943-.4h15.243v2.667h-14.7l-19.6 19.6m-16-22.668l-1.885-1.887 21.333-21.333 1.885 1.885-21.333 21.335"/><path d="M130.754 170.59l-5.333-5.333a1.34 1.34 0 0 1-.391-.943v-4a1.34 1.34 0 0 1 .391-.944l18.667-18.667c.52-.52 1.365-.52 1.885 0l2.276 2.277h4.78a1.33 1.33 0 0 1 .943.389l2.667 2.667c.25.25.392.592.39.945s-.143.695-.393.944l-9.64 9.564c1.668.83 3.753.552 5.136-.827l5.29-5.284 1.884 1.888-5.29 5.283a7.14 7.14 0 0 1-10.003.049c-.255-.25-.4-.592-.4-.95a1.33 1.33 0 0 1 .393-.949l9.8-9.724-1.33-1.33h-4.78a1.34 1.34 0 0 1-.943-.391l-1.724-1.724-17.333 17.333v2.895l4.943 4.943-1.885 1.887"/><path d="M140.396 162.98a1.33 1.33 0 0 0-.943.389l-7.54 7.543c-.252.252-.39.587-.39.943s.14.69.39.94c.504.507 1.383.507 1.885.001l7.543-7.54c.52-.52.52-1.367 0-1.887a1.33 1.33 0 0 0-.943-.389zm-7.54 12.875a3.97 3.97 0 0 1-2.828-1.171c-.756-.756-1.172-1.76-1.172-2.83s.416-2.073 1.17-2.828l7.543-7.544c1.56-1.56 4.096-1.56 5.656 0s1.56 4.1 0 5.66l-7.54 7.54a3.98 3.98 0 0 1-2.828 1.172"/><path d="M136.626 177.512a1.33 1.33 0 0 0 1.885 0l7.543-7.543c.52-.52.52-1.367 0-1.885-.504-.505-1.383-.505-1.885 0l-7.543 7.54c-.52.52-.52 1.365 0 1.887zm.943 3.055c-1.024 0-2.048-.39-2.828-1.17-1.56-1.56-1.56-4.097-.001-5.657l7.544-7.54c1.51-1.51 4.145-1.51 5.657 0 1.56 1.56 1.56 4.096-.001 5.656l-7.543 7.543c-.78.78-1.804 1.17-2.828 1.17"/><path d="M141.34 182.225c.52.523 1.367.52 1.887 0l7.543-7.543c.252-.253.39-.587.39-.943s-.14-.69-.39-.943c-.52-.52-1.368-.523-1.887 0l-7.543 7.543c-.52.52-.52 1.365 0 1.885zm.943 3.055c-1.024 0-2.048-.39-2.828-1.17-1.56-1.56-1.56-4.096 0-5.656l7.543-7.543c1.56-1.56 4.096-1.56 5.657 0a3.97 3.97 0 0 1 1.172 2.828c0 1.07-.417 2.073-1.173 2.83l-7.54 7.54c-.78.78-1.804 1.17-2.83 1.17"/><path d="M154.54 177.122a1.33 1.33 0 0 0-.943.389l-7.543 7.54a1.33 1.33 0 0 0-.391.943 1.32 1.32 0 0 0 .389.941c.52.523 1.368.523 1.888.001l7.54-7.54a1.32 1.32 0 0 0 .391-.943 1.32 1.32 0 0 0-.391-.943c-.26-.26-.6-.39-.943-.39zm-7.543 12.87c-1.024.001-2.048-.39-2.828-1.168a3.97 3.97 0 0 1-1.172-2.829 3.97 3.97 0 0 1 1.172-2.828l7.543-7.54c1.56-1.56 4.096-1.56 5.656 0a3.97 3.97 0 0 1 1.172 2.828c0 1.068-.416 2.073-1.17 2.828l-7.543 7.54c-.78.78-1.804 1.17-2.83 1.17"/></g><path d="M204.062 108.933l-21.704 25.708c-9.693-11.8-24.02-19.175-37.085-19.175-23.4 0-41.1 18.543-41.1 42.775 0 24.653 17.7 43.407 41.1 43.407 12.432 0 26.76-6.74 37.085-17.277l21.915 23.18c-15.804 16.225-39.193 26.972-60.897 26.972-44.46 0-77.543-32.66-77.543-75.857 0-42.567 33.925-74.595 78.807-74.595 21.915 0 44.672 9.693 59.423 24.864m83.23 52.89c16.225 0 25.707-8.22 25.707-23.8 0-15.383-9.48-23.18-25.707-23.18h-28.447v47zm1.053 29.5h-29.5v41.5H221.34v-147.5h65.955c38.98 0 61.32 18.543 61.32 51.415 0 22.547-9.483 38.772-26.76 47.412l30.975 48.675h-42.57l-21.913-41.5m214.51 41.508l-.2-95.876-35.4 81.127h-24.444l-35.4-81.127v95.876H373.9V85.122H415l40.036 87.87 40.035-87.87h40.88v147.712h-33.083" class="E"/><g class="C"><path d="M187.03 133.706l.017.02c-.005-.008-.012-.015-.017-.02zm-1.775 51.736zm21.697 21.257c-.008.007-.016.015-.024.024zm-13.13 14.188l-1.46-2.232.723-.473 2.015-1.395 7.42-5.9.464-.4 1.883-1.74 1.253-1.224-20.083-21.243-.1.107-2.103 1.948-2.216 1.87a63.83 63.83 0 0 1-10.071 6.649c-3.805 2.02-7.807 3.592-11.893 4.68-4.58 1.223-9.08 1.663-13.38 1.324-5.136-.355-9.565-1.363-13.524-3.08a41.48 41.48 0 0 1-11.951-7.665c-6.872-6.15-11.657-15.1-13.465-25.2-1.644-10.073-.396-20.15 3.5-28.392 2.02-4.365 4.696-8.32 7.955-11.75 3.22-3.32 7-6.073 11.217-8.195 1.813-.977 3.75-1.66 5.624-2.323l.624-.22 3.263-.844c.728-.208 1.475-.3 2.197-.408l1.065-.16 1.615-.245 1.712-.1 1.12-.056c.703-.04 1.4-.088 2.1-.075l.913.03c.765.024 1.557.048 2.36.155l1.5.153 1.592.264c7.372 1.28 14.54 4.46 21.316 9.45 2.848 2.108 5.46 4.444 7.767 6.943.357.352.72.776 1.077 1.196l.22.257 20.7-24.52 2.037 1.72-21.64 25.632c-.23.275-.567.48-.9.52-.288.04-.845.01-1.304-.573l-1.136-1.308c-.308-.363-.62-.73-.964-1.072-2.235-2.42-4.72-4.643-7.432-6.65-6.436-4.74-13.227-7.76-20.18-8.967l-1.5-.25-1.448-.147c-.707-.093-1.396-.115-2.127-.136l-.9-.032c-.652-.004-1.237.036-1.885.072l-1.147.057-1.56.085-1.45.225c-.353.064-.748.12-1.143.173-.66.1-1.28.173-1.86.34l-3.697 1.007c-1.777.628-3.616 1.276-5.28 2.175-3.993 2.004-7.523 4.58-10.525 7.676-3.047 3.205-5.56 6.92-7.46 11.032-3.683 7.77-4.852 17.287-3.3 26.8 1.7 9.485 6.185 17.897 12.627 23.664a38.92 38.92 0 0 0 11.21 7.19c3.688 1.6 7.83 2.54 12.675 2.872 4.005.32 8.207-.095 12.495-1.24a53.46 53.46 0 0 0 11.33-4.457 61.13 61.13 0 0 0 9.653-6.373c.693-.555 1.425-1.15 2.105-1.776.85-.74 1.46-1.305 2.005-1.856l1.003-.976a1.51 1.51 0 0 1 .873-.44c.333-.03.827.035 1.272.55l21.704 22.957c.216.225.368.523.4.82.047.424-.17.927-.487 1.213l-2.067 2.017c-.663.673-1.343 1.273-2 1.853l-.45.397c-3.263 2.924-6.097 4.965-7.62 6.06a36.6 36.6 0 0 1-2.135 1.477l-.72.473m-50.193 14.8l-4.275-.197c-.65-.02-1.333-.125-2.056-.235l-1.177-.167-1.827-.256c-2.004-.268-4.276-.573-6.77-1.27l-1.67-.4-3.46-.9-5.54-1.905c-6.24-2.423-15.413-6.92-23.953-14.683-7.855-7.07-14.46-16.365-18.593-26.168-4.045-9.544-6.14-20.45-6.06-31.533l.137-2.76.267-4.787 1.1-7.177c.372-1.584.75-3.03 1.12-4.445l.58-2.244c.164-.8.453-1.545.735-2.276l.328-.884 1.093-2.94c3.767-9.168 7.808-14.805 9.884-17.353l1.223-1.565c.923-1.197 1.652-2.143 2.387-2.82l1.284-1.345 1.927 1.843-1.344 1.405c-.628.583-1.33 1.492-2.14 2.545l-1.26 1.613c-2 2.443-5.856 7.84-9.476 16.65l-1.067 2.868c-.1.295-.224.616-.348.94-.255.66-.493 1.284-.627 1.92l-.6 2.317-1.083 4.28-1.057 6.967-.25 4.616-.136 2.715c-.077 10.66 1.945 21.197 5.852 30.4 3.984 9.453 10.35 18.413 17.925 25.23 8.243 7.493 17.1 11.835 23.08 14.16l5.456 1.876c1.06.332 2.16.585 3.227.832l1.763.42c2.34.653 4.515.945 6.432 1.204l1.84.257c.393.047.8.1 1.2.17.672.1 1.252.188 1.764.207l4.292.197-.124 2.664"/><path d="M206.85 109.9l-2.667-2.593-1.864-1.643-1.295-1.13-1.355-1.06-2.9-2.193c-7.23-5.312-17.045-10.03-26.305-12.65-5-1.44-10.316-2.437-15.35-2.888-2.12-.207-4.4-.305-7.187-.3l-6.48.3c-1 .013-1.907.133-2.756.263l-4.3.587c-.94.123-1.752.228-2.444.372l-3.593.832-.6-2.597 3.624-.84c.82-.17 1.72-.287 2.67-.4l4.275-.583c.925-.14 1.953-.275 3.06-.288l6.5-.3c2.935.004 5.296.107 7.492.32 5.2.464 10.668 1.495 15.833 2.98 9.544 2.703 19.68 7.576 27.108 13.035 1.103.74 2.132 1.564 3.04 2.3l1.373 1.077 1.36 1.18 1.945 1.717 2.695 2.62-1.86 1.9m84.21 53.268l-.095-2.664 1.693-.055 1.813-.1c3.22-.248 6.116-.908 8.897-2.02 3.97-1.612 7.34-4.563 9.24-8.092 1.104-2.057 1.884-4.328 2.317-6.748.42-2.773.547-5.23.38-7.48-.228-3.02-.7-5.328-1.45-7.264-.865-2.27-2.14-4.336-3.692-5.987-1.368-1.504-3.1-2.756-5.335-3.844-1.945-1-3.964-1.505-5.745-1.953-3.42-.735-6.453-.76-8.668-.777l-4.085-.004V113.5l4.107.005c2.33.017 5.52.044 9.252.845 1.87.47 4.14 1.04 6.335 2.167 2.5 1.227 4.513 2.676 6.097 4.417 1.773 1.887 3.24 4.256 4.22 6.835 1.127 2.865 1.465 5.955 1.62 8.03.18 2.45.045 5.103-.4 8.1-.488 2.735-1.36 5.272-2.6 7.576-2.185 4.068-6.047 7.46-10.6 9.305-3.04 1.216-6.193 1.936-9.644 2.2a20.58 20.58 0 0 1-2.01.11l-.668.023-.984.032"/><path d="M263.9 153.7h-2.667v-38.868c0-.736.597-1.333 1.333-1.333h9.22v2.667H263.9V153.7m27.112 9.457h-24.044V160.5h24.044v2.667"/><path d="M262.566 234.168h-37.508c-.736 0-1.333-.596-1.333-1.333v-147.5c0-.736.597-1.333 1.333-1.333h27.248v2.667H226.4V231.5h34.84v-40.177c0-.736.597-1.333 1.333-1.333h29.5v2.667H263.9v40.177c0 .737-.597 1.333-1.333 1.333m74.736-29.085l-12.84-20.176c-.357-.565-.243-1.3.272-1.74.304-.253.663-.44.98-.605l.38-.204c4.413-2.277 12.53-7.48 18.067-17.172 4.393-7.536 6.816-17.447 6.823-27.92.01-.805-.03-1.596-.07-2.385l-.06-1.365c-.025-.375-.04-.8-.052-1.22-.028-.83-.052-1.613-.2-2.36l-.523-3.8c-.052-.524-.153-1.044-.323-1.684l-.447-1.848c-.36-1.852-1.007-3.62-1.632-5.332l-.575-1.592c-.248-.62-.58-1.273-.93-1.965l-1.376-2.78a44.04 44.04 0 0 0-.532-.819l-.363-.557-.688-1.053-1.224-1.84-.02-.017-2.137-2.55c-.12-.135-.26-.307-.4-.48-.2-.233-.376-.47-.597-.67l-2.1-1.984c-.5-.475-.993-.945-1.5-1.383-3.593-2.796-6.9-4.857-10.06-6.268-5.52-2.565-11.285-4.323-17.16-5.232l-2.935-.497c-.52-.1-.985-.13-1.4-.164l-.7-.07-1.78-.17.255-2.655 1.812.173c.223.027.428.044.648.063.484.04 1.03.1 1.627.193l2.9.493c6.1.944 12.1 2.775 17.836 5.437 3.343 1.5 6.83 3.66 10.636 6.625a36.67 36.67 0 0 1 1.667 1.52l.845.795 1.24 1.164c.328.3.608.643.853.945l2.6 3.103a50.92 50.92 0 0 1 1.352 2.02l1.04 1.593.644 1 .85 1.708c.188.397.377.77.565 1.144.36.713.735 1.45 1.048 2.233l.58 1.613c.66 1.8 1.347 3.68 1.732 5.68l.427 1.76c.2.752.324 1.404.387 2.023l.507 3.692c.164.88.193 1.803.223 2.692l.1 2.54c.04.844.084 1.7.072 2.537-.007 10.917-2.557 21.305-7.18 29.232-4.336 7.6-11.087 14.03-19 18.13l12.1 19-2.25 1.433"/><path d="M348.07 234.168h-34.1c-.495 0-.948-.273-1.18-.7l-21.913-41.5 2.36-1.244 21.537 40.8h33.288v2.667m63.05-.003h-33.504c-.736 0-1.333-.596-1.333-1.333v-45.837h2.667V231.5h30.837v-94.543c0-.632.443-1.176 1.06-1.305a1.33 1.33 0 0 1 1.495.772l35.05 80.327h22.7l35.05-80.327a1.34 1.34 0 0 1 1.493-.773 1.34 1.34 0 0 1 1.063 1.304l.2 95.876-2.667.005-.196-89.52-32.86 75.303c-.212.485-.692.8-1.223.8H446.52c-.53 0-1-.315-1.223-.8l-32.844-75.27v89.487a1.33 1.33 0 0 1-1.333 1.333"/><path d="M458.744 174.325a1.33 1.33 0 0 1-1.213-.78l-39.68-87.1h-38.9v18.752h-2.667V85.122c0-.736.597-1.333 1.333-1.333h41.1c.52 0 .996.305 1.213.78l38.823 85.207 38.82-85.207c.217-.475.692-.78 1.213-.78h16.065v2.667h-15.207l-39.68 87.1a1.33 1.33 0 0 1-1.213.78m80.92 59.842h-33.084V231.5h31.75V130.737h2.667v102.097c0 .737-.597 1.333-1.333 1.333m-328.574-84.522a4.15 4.15 0 0 1-4.147 4.147c-2.29 0-4.147-1.856-4.147-4.147s1.856-4.147 4.147-4.147 4.147 1.856 4.147 4.147m-67.71 86.21H32.02v-2.667h111.356v2.667m131.308-1.686h-65V231.5h65v2.667m16.786.001h-7.7V231.5h7.7v2.667m25.874.001h-18.48V231.5h18.48v2.667m101.028.001h-47.588V231.5h47.588v2.667"/><path d="M451.583 234.168h-12.635V231.5h12.635v2.667m99.603.001h-82.633V231.5h82.633v2.667"/><path d="M434.636 234.168h-11.97V231.5h11.97v2.667m24.764.001h-4.5V231.5h4.5v2.667m86.68-97.062c-.172 0-.345-.032-.5-.1a1.33 1.33 0 0 1-.823-1.232v-104c0-15.44-12.56-28-28-28s-28 12.56-28 28v16h5.333c.737 0 1.333.597 1.333 1.333v16h20c.737 0 1.333.597 1.333 1.333v18.667c0 .736-.596 1.333-1.333 1.333h-10.667v-2.667h9.333v-16h-20c-.737 0-1.333-.597-1.333-1.333v-16h-5.333c-.737 0-1.333-.597-1.333-1.333V31.772c0-16.9 13.756-30.667 30.667-30.667s30.667 13.757 30.667 30.667v100.78l20.54-20.54a1.33 1.33 0 0 1 1.885 0l18.437 18.436 27.956-27.956 1.885 1.885-28.9 28.9c-.52.52-1.365.52-1.887 0l-18.436-18.436-21.872 21.872a1.33 1.33 0 0 1-.943.391"/><path d="M625.162 95.45l-6.657 15.855-1.928-7.27-7.27-1.928 15.856-6.657M520.746 67.772h-8v-2.667h8v2.667m-19.83-12c.592 2.297 2.684 4 5.164 4s4.572-1.703 5.164-4zm5.164 6.667a8.01 8.01 0 0 1-8-8v-1.333h16v1.333a8.01 8.01 0 0 1-8 8"/></g><path d="M540.018 29.353c0 4.937-4.003 8.94-8.94 8.94a8.94 8.94 0 0 1 0-17.88c4.94 0 8.94 4.003 8.94 8.94" class="E"/><g class="C"><path d="M531.076 21.746a7.62 7.62 0 0 0-7.607 7.607 7.62 7.62 0 0 0 7.607 7.607c4.195 0 7.607-3.412 7.607-7.607s-3.412-7.607-7.607-7.607zm0 17.88c-5.665 0-10.273-4.608-10.273-10.273s4.608-10.273 10.273-10.273 10.273 4.608 10.273 10.273-4.608 10.273-10.273 10.273"/><path d="M528.4 59.105h-5.173v-2.667h5.173c.736 0 1.333-.597 1.333-1.333V38.293h2.667v16.812c0 2.207-1.795 4-4 4"/><path d="M518.754 56.42c-.73 0-1.324.593-1.324 1.324s.593 1.325 1.324 1.325h1.825c.73 0 1.324-.595 1.324-1.325s-.593-1.324-1.324-1.324zm1.825 5.316h-1.825c-2.2 0-4-1.8-4-3.992s1.8-4 4-4h1.825c2.2 0 4 1.8 4 4a4 4 0 0 1-3.99 3.992m-14.5-29.72h-10.16V29.35h10.16v2.667"/></g><use xlink:href="#B" class="B"/><path d="M455.447 19.817h-28.273c-1.344 0-2.433 1.09-2.433 2.433v16.733l-6.492 5.06h37.2a2.43 2.43 0 0 0 2.432-2.432V22.25c0-1.344-1.09-2.433-2.432-2.433" class="C"/><path d="M474.768 48.9V30.545c0-1.472-1.193-2.667-2.667-2.667h-30.996a2.67 2.67 0 0 0-2.667 2.667v21.227c0 1.473 1.195 2.667 2.667 2.667h40.78l-7.117-5.548" class="B"/><use xlink:href="#B" x="-56.14" y="22.967" class="D"/><path d="M355.21 232.834h-8a8 8 0 0 1-8-8v-6.667h24v6.667a8 8 0 0 1-8 8" class="B"/><path d="M340.544 219.5v5.333c0 3.676 2.99 6.667 6.667 6.667h8c3.675 0 6.667-2.99 6.667-6.667V219.5zm14.667 14.667h-8c-5.147 0-9.333-4.188-9.333-9.333v-6.667a1.33 1.33 0 0 1 1.333-1.333h24c.736 0 1.333.596 1.333 1.333v6.667a9.35 9.35 0 0 1-9.333 9.333" class="C"/><path d="M367.21 218.168h-32V211.5h32v6.667" class="B"/><g class="C"><path d="M336.544 216.834h29.333v-4h-29.333zm30.667 2.667h-32a1.33 1.33 0 0 1-1.333-1.333V211.5a1.33 1.33 0 0 1 1.333-1.333h32c.736 0 1.333.596 1.333 1.333v6.667c0 .737-.597 1.333-1.333 1.333"/><path d="M352.544 211.5h-2.667v-9.333h2.667v9.333"/></g><path d="M363.37 190.86s.317 5.757-3.037 9.113S351.22 203 351.22 203s-.317-5.76 3.037-9.113 9.113-3.037 9.113-3.037m-12.16-12.562s4.296 3.847 4.296 8.592-4.296 8.592-4.296 8.592-4.296-3.847-4.296-8.592 4.296-8.592 4.296-8.592m-12.158 12.562s5.757-.32 9.113 3.037 3.037 9.113 3.037 9.113-5.757.317-9.113-3.037-3.037-9.113-3.037-9.113" fill="#009abd"/><g class="C"><path d="M198.448 253.57H104.84v-2.667h93.608v2.667"/><path d="M194.2 255.853l3.62-3.617-3.62-3.616h3.072l3.616 3.616-3.616 3.617H194.2m-135.362-2.37H56.17v-2.667h2.667zm5.333 0h-2.667v-2.667h2.667zm5.333 0h-2.667v-2.667h2.667zm5.333 0H72.17v-2.667h2.667zm5.333 0h-2.667v-2.667h2.667zm5.333 0h-2.667v-2.667h2.667zm5.333 0H88.17v-2.667h2.667zm5.333 0h-2.667v-2.667h2.667zm5.333 0h-2.667v-2.667h2.667v2.667m124.614 16.74h-93.608v-2.667h93.608v2.667"/><path d="M221.867 272.506l3.62-3.616-3.62-3.618h3.072l3.616 3.618-3.616 3.616h-3.072m-135.36-2.366H83.84v-2.667h2.667zm5.333 0h-2.667v-2.667h2.667zm5.333 0h-2.667v-2.667h2.667zm5.333 0H99.84v-2.667h2.667zm5.333 0h-2.667v-2.667h2.667zm5.333 0h-2.667v-2.667h2.667zm5.333 0h-2.667v-2.667h2.667zm5.333 0h-2.667v-2.667h2.667zm5.333 0h-2.667v-2.667h2.667v2.667"/><use xlink:href="#C"/><use xlink:href="#C" x="104.364" y="-126.13"/><path d="M132.407 65.333h-2.667v-2.667h2.667zm5.333 0h-2.667v-2.667h2.667zm5.333 0h-2.667v-2.667h2.667zm5.333 0h-2.667v-2.667h2.667zm5.333 0h-2.667v-2.667h2.667zm5.333 0h-2.667v-2.667h2.667zm5.333 0h-2.667v-2.667h2.667zm5.333 0h-2.667v-2.667h2.667zm5.333 0h-2.667v-2.667h2.667zm5.333 0h-2.667v-2.667h2.667zm5.333 0h-2.667v-2.667h2.667zm5.333 0h-2.667v-2.667h2.667zm5.333 0h-2.667v-2.667h2.667zm5.333 0h-2.667v-2.667h2.667v2.667M509.764 260.72h-2.667v-2.667h2.667zm5.333 0h-2.667v-2.667h2.667zm5.333 0h-2.667v-2.667h2.667zm5.333 0h-2.667v-2.667h2.667zm5.333 0h-2.667v-2.667h2.667zm5.333 0h-2.667v-2.667h2.667zm5.333 0h-2.667v-2.667h2.667zm5.333 0h-2.667v-2.667h2.667zm5.333 0h-2.667v-2.667h2.667v2.667m-239.686 4.613h-2.667v-2.667h2.667zm5.333 0h-2.667v-2.667h2.667zm5.333 0h-2.667v-2.667h2.667zm5.333 0h-2.667v-2.667h2.667zm5.333 0h-2.667v-2.667h2.667zm5.333 0h-2.667v-2.667h2.667zm5.333 0h-2.667v-2.667h2.667zm5.333 0h-2.667v-2.667h2.667zm5.333 0h-2.667v-2.667h2.667zm5.333 0h-2.667v-2.667h2.667zm5.333 0h-2.667v-2.667h2.667v2.667m174.922-126.955h-2.667v-7.305a1.33 1.33 0 0 1 .391-.943l15.667-15.667c.5-.5 1.385-.5 1.885 0l14.92 14.92 26.613-26.615 1.885 1.885-27.556 27.557c-.5.5-1.385.5-1.885 0l-14.92-14.92-14.333 14.333v6.753"/><path d="M606.734 95.725l-15.855 6.657 7.27 1.928 1.928 7.27 6.657-15.855"/></g><g class="B"><use xlink:href="#D"/><path d="M242.2 120.102l3.533 7.16 7.903 1.148-5.717 5.575 1.35 7.87-7.068-3.715-7.068 3.715 1.35-7.87-5.717-5.575 7.9-1.148 3.535-7.16"/><use xlink:href="#D" y="54.416"/><path d="M242.2 174.517l3.533 7.16 7.903 1.15-5.717 5.573 1.35 7.87-7.068-3.716-7.068 3.716 1.35-7.87-5.717-5.573 7.9-1.15 3.535-7.16m-.001 27.207l3.533 7.16 7.903 1.148-5.717 5.575 1.35 7.87-7.068-3.716-7.068 3.716 1.35-7.87-5.717-5.575 7.9-1.148 3.535-7.16"/></g><g class="C"><path d="M41.352 194.724v6.257c.15.844 4.71 3.08 14.08 3.08 9.36 0 13.92-2.23 14.08-3.08v-6.255c-3.19 1.66-8.767 2.44-14.08 2.44s-10.89-.78-14.08-2.44zm14.08 12.003c-8.065 0-16.745-1.8-16.745-5.745v-9.563a1.33 1.33 0 0 1 1.333-1.333c.736 0 1.333.596 1.333 1.333.15.843 4.705 3.08 14.08 3.08 9.367 0 13.923-2.232 14.08-3.083 0-.03.001-.06.004-.092a1.33 1.33 0 0 1 1.329-1.24c.736 0 1.33.597 1.333 1.332v9.567c0 3.947-8.68 5.745-16.745 5.745"/><path d="M41.352 204.402v6.256c.15.844 4.71 3.08 14.08 3.08 9.36 0 13.92-2.23 14.08-3.083v-6.252c-3.19 1.66-8.767 2.44-14.08 2.44s-10.89-.78-14.08-2.44zm14.08 12c-8.065 0-16.745-1.8-16.745-5.745v-9.563c0-.736.596-1.333 1.333-1.333s1.333.597 1.333 1.333c.15.844 4.71 3.08 14.08 3.08 9.36 0 13.92-2.23 14.08-3.083 0-.03.001-.06.004-.09a1.33 1.33 0 0 1 1.329-1.243c.736 0 1.33.6 1.333 1.332v9.567c0 3.947-8.68 5.745-16.745 5.745"/><path d="M41.352 214.08v6.256c.15.844 4.71 3.08 14.08 3.08 9.36 0 13.92-2.23 14.08-3.083v-6.252c-3.19 1.66-8.767 2.44-14.08 2.44s-10.89-.78-14.08-2.44zm14.08 12c-8.065 0-16.745-1.8-16.745-5.745v-9.563a1.33 1.33 0 0 1 1.333-1.333c.736 0 1.333.596 1.333 1.333.15.844 4.71 3.08 14.08 3.08 9.36 0 13.92-2.23 14.08-3.083a1 1 0 0 1 .004-.089 1.33 1.33 0 0 1 1.329-1.243c.736 0 1.33.6 1.333 1.332v9.567c0 3.947-8.68 5.745-16.745 5.745"/><path d="M41.352 223.757v6.256c.15.844 4.705 3.08 14.08 3.08 9.367 0 13.923-2.23 14.08-3.083v-6.252c-3.2 1.66-8.767 2.44-14.08 2.44s-10.9-.78-14.08-2.44zm14.08 12c-8.065 0-16.745-1.797-16.745-5.745v-9.563a1.33 1.33 0 0 1 1.333-1.333c.736 0 1.333.596 1.333 1.333.15.844 4.7 3.08 14.08 3.08 9.36 0 13.92-2.23 14.08-3.083a1 1 0 0 1 .004-.089 1.33 1.33 0 0 1 1.329-1.243c.736 0 1.33.597 1.333 1.332v9.567c0 3.948-8.68 5.745-16.745 5.745m-.004-47.418c-9.37 0-13.928 2.235-14.08 3.084.15.837 4.707 3.073 14.08 3.073 9.353 0 13.9-2.225 14.08-3.08-.17-.853-4.73-3.08-14.08-3.08zm0 8.824c-8.065 0-16.745-1.797-16.745-5.745s8.68-5.745 16.745-5.745 16.747 1.8 16.747 5.745-8.68 5.745-16.747 5.745m-3.907-36.384H7.303v-53.83h44.22v53.83"/></g><path d="M47.872 164.432H3.65v-53.83h44.22v53.83" class="E"/><path d="M0 114.253v53.83h44.22V124.56l-10.307-10.307H0" class="B"/><path d="M44.22 124.56H33.913v-10.307zm-27.802 6.696H5.664v-11.85h10.754v11.85" class="C"/><path d="M37.252 130.573h-16.97v-2.667h16.97v2.667m-17.8 6.127H5.665v-2.667h13.777v2.667m17.8 0H25.76v-2.667h11.5v2.667m.002 6.073H5.665v-2.667h31.588v2.667m-22.683 6.063H5.665v-2.667h8.905v2.667m22.682 0h-17.8v-2.667h17.8v2.667m-17.8 6.062H5.665v-2.667h13.777v2.667m17.8 0H25.76v-2.667h11.5v2.667" class="D"/><g class="C"><path d="M39.076 199.35l-18.584-18.584a1.33 1.33 0 0 1-.391-.943v-18.247h2.667v17.695l18.193 18.193-1.885 1.885"/><path d="M25.446 161.776a4.011 4.011 0 1 0-8.021 0 4.011 4.011 0 1 0 8.021 0m412.237 82.374c-.83-.132-1.683-.22-2.532-.264l.132-2.664a26.39 26.39 0 0 1 2.823.296zm-7.613.02l-.437-2.63a25.92 25.92 0 0 1 2.819-.311l.15 2.66a23.69 23.69 0 0 0-2.531.28zm12.52 1.32a23.68 23.68 0 0 0-2.419-.804l.704-2.573a26.51 26.51 0 0 1 2.691.896zm-17.416.052l-.995-2.473c.87-.35 1.775-.657 2.687-.913l.72 2.568a23.73 23.73 0 0 0-2.411.819zm21.913 2.32a22.76 22.76 0 0 0-2.185-1.309l1.243-2.36a26.31 26.31 0 0 1 2.435 1.456zm-26.397.08l-1.505-2.203a26.49 26.49 0 0 1 2.424-1.47l1.26 2.352a23.42 23.42 0 0 0-2.177 1.321zm30.288 3.205a23.76 23.76 0 0 0-1.857-1.748l1.72-2.036a26.73 26.73 0 0 1 2.065 1.943zm-34.155.1l-1.94-1.83a26.32 26.32 0 0 1 2.055-1.955l1.73 2.028a23.35 23.35 0 0 0-1.845 1.757zm37.25 3.936a23.81 23.81 0 0 0-1.439-2.103l2.115-1.623a25.74 25.74 0 0 1 1.603 2.34zm-40.323.117l-2.3-1.37a26.05 26.05 0 0 1 1.591-2.351l2.124 1.612a23.11 23.11 0 0 0-1.425 2.109zm42.48 4.488a23.56 23.56 0 0 0-.953-2.363l2.415-1.132a27 27 0 0 1 1.063 2.63zm-44.608.133l-2.528-.847c.295-.884.647-1.77 1.043-2.636l2.424 1.112a24.67 24.67 0 0 0-.94 2.37zm45.713 4.827a23.4 23.4 0 0 0-.417-2.511l2.6-.58c.205.92.363 1.86.468 2.797zm-46.8.143l-2.652-.28c.1-.94.25-1.88.45-2.8l2.607.564a23.85 23.85 0 0 0-.404 2.515zm49.453 5.327l-2.65-.284a23.74 23.74 0 0 0 .136-2.545l2.003-.076.663.025a26.58 26.58 0 0 1-.15 2.88zm-52.095.052c-.1-.933-.155-1.884-.157-2.827l2.667-.008a24.5 24.5 0 0 0 .141 2.545zm50.883 5.48l-2.528-.85c.27-.807.5-1.633.68-2.457l2.604.573a26.81 26.81 0 0 1-.757 2.733zm-49.66.05a26.28 26.28 0 0 1-.761-2.734l2.604-.573a23.17 23.17 0 0 0 .684 2.451zm47.28 5.1l-2.287-1.372a24.01 24.01 0 0 0 1.196-2.255l2.42 1.123a26.82 26.82 0 0 1-1.328 2.504zm-44.892.044a25.73 25.73 0 0 1-1.335-2.501l2.417-1.124a24.01 24.01 0 0 0 1.199 2.245zm41.464 4.463l-1.94-1.83a24.18 24.18 0 0 0 1.651-1.944l2.123 1.615a27.48 27.48 0 0 1-1.833 2.16zm-38.027.037a25.78 25.78 0 0 1-1.841-2.159l2.12-1.617a23.36 23.36 0 0 0 1.655 1.937zm33.713 3.633l-1.5-2.203c.705-.48 1.388-1 2.027-1.547l1.73 2.032a26.34 26.34 0 0 1-2.255 1.717zm-29.393.027a25.79 25.79 0 0 1-2.261-1.716l1.727-2.03a23.15 23.15 0 0 0 2.029 1.539zm24.393 2.635l-1-2.476c.787-.315 1.564-.676 2.3-1.073l1.255 2.355a25.83 25.83 0 0 1-2.575 1.195zm-19.388.017a26.8 26.8 0 0 1-2.575-1.19l1.247-2.356c.753.397 1.532.757 2.313 1.067zm13.935 1.5l-.436-2.63a23.6 23.6 0 0 0 2.489-.549l.713 2.57a26.74 26.74 0 0 1-2.767.609zm-8.475.006c-.94-.153-1.872-.357-2.772-.605l.713-2.57c.805.224 1.64.405 2.485.542zm4.2.337a25.85 25.85 0 0 1-1.393-.037l.144-2.663a23.78 23.78 0 0 0 2.547-.002l.145 2.66-1.443.04"/><path d="M469.196 244.15c-.83-.132-1.683-.22-2.533-.264l.133-2.664a26.33 26.33 0 0 1 2.821.296zm-7.612.02l-.437-2.63c.923-.153 1.87-.26 2.82-.31l.148 2.66c-.85.048-1.7.143-2.53.28zm12.52 1.32a23.68 23.68 0 0 0-2.419-.804l.703-2.573a26.42 26.42 0 0 1 2.692.896zm-17.416.05l-.995-2.473c.87-.35 1.775-.657 2.687-.913l.72 2.568a23.62 23.62 0 0 0-2.411.819zm21.915 2.324a22.92 22.92 0 0 0-2.185-1.309l1.243-2.36c.83.437 1.65.927 2.435 1.456zm-26.4.075l-1.505-2.203c.777-.53 1.592-1.025 2.424-1.47l1.26 2.352c-.748.4-1.48.844-2.177 1.32zm30.29 3.208a24.39 24.39 0 0 0-1.859-1.748l1.72-2.036a26.43 26.43 0 0 1 2.064 1.941zm-34.16.097l-1.94-1.83a26.8 26.8 0 0 1 2.055-1.955l1.732 2.028a23.67 23.67 0 0 0-1.847 1.757zm37.252 3.94a23.81 23.81 0 0 0-1.439-2.103l2.115-1.623c.575.748 1.115 1.536 1.603 2.34zm-40.324.116l-2.29-1.37c.484-.808 1.02-1.6 1.59-2.35l2.125 1.612a22.84 22.84 0 0 0-1.425 2.109zm42.476 4.488c-.275-.807-.595-1.6-.952-2.36l2.415-1.132c.4.85.755 1.735 1.06 2.63zm-44.604.132l-2.528-.847c.295-.884.647-1.77 1.043-2.636l2.424 1.112c-.356.78-.673 1.576-.94 2.37zm45.712 4.83c-.093-.84-.235-1.687-.417-2.51l2.6-.58a26.37 26.37 0 0 1 .467 2.797zm-46.792.14l-2.65-.28c.1-.94.25-1.88.45-2.8l2.607.564c-.18.827-.315 1.672-.405 2.515zm49.453 5.328l-2.65-.284a24.09 24.09 0 0 0 .136-2.545l2.668-.097-.003.15a26 26 0 0 1-.151 2.776zm-52.093.052c-.1-.933-.155-1.884-.157-2.827l2.667-.008a24.5 24.5 0 0 0 .141 2.545zm50.88 5.48l-2.528-.85c.27-.807.5-1.633.68-2.457l2.604.573a26.46 26.46 0 0 1-.756 2.733zm-49.66.05a25.97 25.97 0 0 1-.761-2.735l2.604-.573a22.82 22.82 0 0 0 .684 2.451zm47.28 5.09l-2.287-1.372a24.01 24.01 0 0 0 1.196-2.255l2.42 1.123a26.82 26.82 0 0 1-1.328 2.504zm-44.89.043a25.74 25.74 0 0 1-1.335-2.501l2.416-1.124c.357.764.76 1.52 1.2 2.245zm41.46 4.464l-1.94-1.83a24.18 24.18 0 0 0 1.651-1.944l2.123 1.615a27.48 27.48 0 0 1-1.833 2.16zm-38.027.035a26.19 26.19 0 0 1-1.84-2.157l2.12-1.617c.512.67 1.068 1.322 1.652 1.94zm33.713 3.636l-1.503-2.203a23.44 23.44 0 0 0 2.028-1.547l1.73 2.032a26.34 26.34 0 0 1-2.255 1.717zm-29.393.027c-.787-.532-1.55-1.1-2.26-1.717l1.73-2.03a22.95 22.95 0 0 0 2.027 1.54zm24.393 2.635l-.99-2.476c.787-.315 1.564-.676 2.31-1.073l1.255 2.355c-.83.443-1.697.844-2.575 1.195zm-19.39.017c-.87-.346-1.736-.748-2.575-1.19l1.247-2.356c.753.397 1.532.757 2.313 1.067zm13.935 1.5l-.435-2.63a23.5 23.5 0 0 0 2.488-.549l.715 2.57a26.69 26.69 0 0 1-2.768.609zm-8.473.006c-.94-.153-1.872-.357-2.772-.605l.713-2.57c.805.224 1.64.405 2.485.542zm4.21.337c-.465 0-.93-.012-1.393-.037l.144-2.663c.843.045 1.705.044 2.547-.002l.145 2.66-1.443.04"/></g><path d="M458.815 267.388c0-7.754-3.55-14.675-9.112-19.235-5.563 4.56-9.112 11.48-9.112 19.235s3.55 14.675 9.112 19.236c5.56-4.56 9.112-11.483 9.112-19.236" class="B"/><path d="M449.703 249.9c-4.957 4.467-7.78 10.776-7.78 17.478a23.45 23.45 0 0 0 7.779 17.479 23.45 23.45 0 0 0 7.779-17.479c0-6.702-2.82-13.01-7.78-17.478zm0 38.047c-.3 0-.6-.1-.845-.303a26.12 26.12 0 0 1 0-40.534 1.33 1.33 0 0 1 1.691 0 26.12 26.12 0 0 1 0 40.534c-.245.203-.547.303-.845.303" class="C"/><path d="M588.746 227.508c0 2.205 1.795 4 4 4h2.667c2.205 0 4-1.795 4-4v-5.333h-10.667v5.333" fill="#66caab"/><path d="M611.412 171.508c0-.91-.092-1.795-.227-2.667h-5.107c-3.676 0-6.667-2.99-6.667-6.667v-7.152c-1.275-.413-2.616-.675-4-.78v14.6h-2.667v-14.6c-1.384.105-2.725.367-4 .78v7.152c0 3.676-2.99 6.667-6.667 6.667h-5.107c-.135.872-.227 1.757-.227 2.667v1.333h34.667v-1.333" class="B"/><path d="M594.08 194.174c3.676 0 6.667-2.99 6.667-6.667h2.667c0 5.145-4.187 9.333-9.333 9.333zm12-6.667v-7.87c-3.54.812-7.837 1.204-12 1.204s-8.46-.392-12-1.204v7.87c0 6.617 5.384 12 12 12s12-5.383 12-12" class="D"/><path d="M550.08 186.174V179.9c-1.464 1.63-2.667 3.828-2.667 6.275 0 3.817 2.3 7.212 5.833 8.648.504.205.833.693.833 1.236v19.45h5.333v-19.45a1.33 1.33 0 0 1 .843-1.24c3.54-1.4 5.824-4.793 5.824-8.644 0-2.447-1.203-4.644-2.667-6.275v6.275c0 .737-.597 1.333-1.333 1.333h-10.667c-.736 0-1.333-.596-1.333-1.333m59.85-10.667h-31.7c2.4 1.25 7.717 2.667 15.85 2.667s13.45-1.417 15.85-2.667" class="B"/><path d="M552.746 218.174h-1.333v2.667h2.667v2.667h-2.667v2.667h2.667v2.667h-2.667v2.667h10.667v-13.333h-9.333m18.665 6.664h-6.667v6.667h6.667v-6.667" class="D"/><path d="M580.746 203.9c-3.85 1.15-6.667 4.72-6.667 8.94v15.448l6.667-6.667V203.9" class="E"/><path d="M586.08 162.174v-6.028a17.41 17.41 0 0 0-8.485 10.028h4.485c2.205 0 4-1.795 4-4" class="B"/><path d="M588.746 214.174h10.667v-10.667h-10.667v10.667m25.334-1.334c0-4.22-2.816-7.8-6.667-8.94v17.72l6.667 6.667V212.84" class="E"/><path d="M606.08 166.174h4.485a17.41 17.41 0 0 0-8.485-10.028v6.028c0 2.205 1.795 4 4 4" class="B"/><g class="D"><path d="M572.746 234.174v-2.667l9.333-9.333v-20h5.333v26.667l2.667 4h8l2.667-2.667v-28h5.333v20l9.333 9.333v2.667h-42.667"/><path d="M603.412 220.84h-18.667v-5.333h18.667v5.333"/></g><g class="C"><path d="M594.08 202.174c-8.087 0-14.667-6.58-14.667-14.667v-9.333h2.667v9.333c0 6.617 5.383 12 12 12s12-5.383 12-12v-9.333h2.667v9.333c0 8.087-6.58 14.667-14.667 14.667m-42.668 29.334h10.667v-13.333h-10.667zm12 2.667H550.08a1.33 1.33 0 0 1-1.333-1.333v-16a1.33 1.33 0 0 1 1.333-1.333h13.333a1.33 1.33 0 0 1 1.333 1.333v16a1.33 1.33 0 0 1-1.333 1.333"/><path d="M554.08 215.508h5.333v-19.45c0-.547.335-1.04.843-1.24 3.537-1.4 5.824-4.793 5.824-8.644 0-2.447-1.203-4.644-2.667-6.275v6.275a1.33 1.33 0 0 1-1.333 1.333h-10.667a1.33 1.33 0 0 1-1.333-1.333V179.9c-1.464 1.63-2.667 3.828-2.667 6.275 0 3.817 2.3 7.212 5.835 8.648.503.205.832.693.832 1.236zm6.667 2.667h-8a1.33 1.33 0 0 1-1.333-1.333v-19.92c-4.08-2.02-6.667-6.144-6.667-10.747 0-4.597 3.052-8.348 5.908-10.324.4-.284.94-.313 1.377-.085s.715.685.715 1.18v7.895h8v-7.895a1.33 1.33 0 0 1 .715-1.18c.44-.23.968-.2 1.377.085 2.856 1.976 5.908 5.727 5.908 10.324 0 4.64-2.587 8.765-6.667 10.752v19.915a1.33 1.33 0 0 1-1.333 1.333m-6.667 5.333h-4v-2.667h4v2.667"/><path d="M554.08 228.84h-4v-2.667h4v2.667m22.666-56h34.667v-1.333c0-9.557-7.776-17.333-17.333-17.333s-17.333 7.776-17.333 17.333zm36 2.667h-37.333a1.33 1.33 0 0 1-1.333-1.333v-2.667c0-11.028 8.972-20 20-20s20 8.972 20 20v2.667a1.33 1.33 0 0 1-1.333 1.333"/><path d="M595.412 168.84h-2.667v-20h2.667v20m21.334 65.334h-2.667V212.84a9.35 9.35 0 0 0-9.333-9.333h-21.333a9.35 9.35 0 0 0-9.333 9.333v21.333h-2.667V212.84c0-6.617 5.383-12 12-12h21.333c6.617 0 12 5.383 12 12v21.333"/><path d="M594.08 196.84v-2.667c3.676 0 6.667-3 6.667-6.667h2.667a9.35 9.35 0 0 1-9.333 9.333m6.665 20h-13.333a1.33 1.33 0 0 1-1.333-1.333v-13.333h2.667v12h10.667v-12h2.667v13.333a1.33 1.33 0 0 1-1.333 1.333m-27.06 15.6l-1.885-1.885 8.943-8.943v-19.448h2.667v20a1.33 1.33 0 0 1-.39.943l-9.333 9.333m40.78 0l-9.333-9.333a1.33 1.33 0 0 1-.39-.943v-20h2.667v19.448l8.943 8.943-1.885 1.885"/></g><path d="M595.412 232.84h-2.667c-2.945 0-5.333-2.388-5.333-5.333v-6.667h13.333v6.667c0 2.945-2.388 5.333-5.333 5.333" class="E"/><path d="M588.746 222.174v5.333c0 2.205 1.795 4 4 4h2.667c2.205 0 4-1.795 4-4v-5.333zm6.667 12h-2.667c-3.676 0-6.667-3-6.667-6.667v-6.667a1.33 1.33 0 0 1 1.333-1.333h13.333a1.33 1.33 0 0 1 1.333 1.333v6.667c0 3.676-3 6.667-6.667 6.667m-1.33-53.334c-9.633 0-20-2.085-20-6.667h2.667c0 1.196 5.897 4 17.333 4s17.333-2.804 17.333-4h2.667c0 4.58-10.367 6.667-20 6.667m18.666-12h-6.667c-3.676 0-6.667-3-6.667-6.667v-8h2.667v8c0 2.205 1.795 4 4 4h6.667v2.667m-30.666 0h-6.667v-2.667h6.667c2.205 0 4-1.795 4-4v-8h2.667v8c0 3.676-3 6.667-6.667 6.667m-17.334 62.668h6.667v-6.667h-6.667zm8 2.667h-9.333a1.33 1.33 0 0 1-1.333-1.333v-9.333a1.33 1.33 0 0 1 1.333-1.333h9.333a1.33 1.33 0 0 1 1.333 1.333v9.333a1.33 1.33 0 0 1-1.333 1.333" class="C"/><path d="M262.736 14.666A2.67 2.67 0 0 0 265.403 12V8h-5.333v4a2.67 2.67 0 0 0 2.667 2.667m.203 38.666l.888-5.333h-10.184l.888 5.333h8.408m-11.888-7.528a1.33 1.33 0 0 1 1.017-.472h13.333c.392 0 .764.173 1.017.472a1.33 1.33 0 0 1 .297 1.081l-1.333 8A1.33 1.33 0 0 1 264.07 56h-10.667a1.33 1.33 0 0 1-1.315-1.113l-1.333-8a1.33 1.33 0 0 1 .297-1.081zm3.293-12.08l3.057 3.057V26.666h2.667V36.78l3.057-3.057 1.885 1.885-5.333 5.333c-.26.26-.6.4-.943.4s-.683-.13-.943-.4l-5.333-5.333zm-6.276 27.6h21.333v-38.67H248.07v38.667m-1.334-46.667A2.67 2.67 0 0 0 249.403 12V8h-5.333v4a2.67 2.67 0 0 0 2.667 2.667" class="B"/><path d="M272.07 21.333v41.333c0 .737-.597 1.333-1.333 1.333h-24c-.736 0-1.333-.596-1.333-1.333V21.333c0-.736.597-1.333 1.333-1.333h24c.736 0 1.333.597 1.333 1.333zm-5.333-5.843c-.98 1.12-2.4 1.843-4 1.843s-3.02-.723-4-1.843c-.98 1.12-2.4 1.843-4 1.843s-3.02-.723-4-1.843c-.98 1.12-2.4 1.843-4 1.843s-3.02-.723-4-1.843v49.843c0 2.207 1.795 4 4 4h24c2.205 0 4-1.793 4-4V15.5c-.98 1.12-2.4 1.843-4 1.843s-3.02-.723-4-1.843" class="D"/><path d="M254.736 14.666A2.67 2.67 0 0 0 257.403 12V8h-5.333v4a2.67 2.67 0 0 0 2.667 2.667M268.07 12a2.67 2.67 0 0 0 2.667 2.667A2.67 2.67 0 0 0 273.403 12V8h-5.333v4" class="B"/><path d="M234.736 44a2.67 2.67 0 0 0-2.667 2.667 2.67 2.67 0 0 0 2.667 2.667 2.67 2.67 0 0 0 2.667-2.667A2.67 2.67 0 0 0 234.736 44m0 10.666a2.67 2.67 0 0 0-2.667 2.667A2.67 2.67 0 0 0 234.736 60a2.67 2.67 0 0 0 2.667-2.667 2.67 2.67 0 0 0-2.667-2.667" class="D"/><path d="M258.736 5.333h13.333V2.666h-26.667v2.667h13.333" class="B"/><path d="M234.736 33.333A2.67 2.67 0 0 0 232.07 36a2.67 2.67 0 0 0 2.667 2.667A2.67 2.67 0 0 0 237.403 36a2.67 2.67 0 0 0-2.667-2.667M227.68 15.6a2.44 2.44 0 0 0 0 3.448l12.4 12.4v-6.896l-8.943-8.943c-.95-.95-2.497-.95-3.448 0m27.057 69.724h30.667v-60c-5.155 0-9.333 4.18-9.333 9.333v30.667c0 2.947-2.388 5.333-5.333 5.333h-16v14.667" class="D"/><g class="C"><path d="M270.736 72h-24c-3.676 0-6.667-2.99-6.667-6.667V12c0-.736.597-1.333 1.333-1.333h1.333v54.667c0 2.205 1.795 4 4 4h24c2.205 0 4-1.795 4-4V10.666h1.333c.736 0 1.333.597 1.333 1.333v53.333c0 3.676-2.99 6.667-6.667 6.667"/><path d="M234.736 33.333A2.67 2.67 0 0 0 232.07 36a2.67 2.67 0 0 0 2.667 2.667A2.67 2.67 0 0 0 237.403 36a2.67 2.67 0 0 0-2.667-2.667zm0 8A5.34 5.34 0 0 1 229.403 36a5.34 5.34 0 0 1 5.333-5.333A5.34 5.34 0 0 1 240.07 36a5.34 5.34 0 0 1-5.333 5.333M234.736 44a2.67 2.67 0 0 0-2.667 2.667 2.67 2.67 0 0 0 2.667 2.667 2.67 2.67 0 0 0 2.667-2.667A2.67 2.67 0 0 0 234.736 44zm0 8a5.34 5.34 0 0 1-5.333-5.333 5.34 5.34 0 0 1 5.333-5.333 5.34 5.34 0 0 1 5.333 5.333A5.34 5.34 0 0 1 234.736 52"/><path d="M234.736 54.666a2.67 2.67 0 0 0-2.667 2.667A2.67 2.67 0 0 0 234.736 60a2.67 2.67 0 0 0 2.667-2.667 2.67 2.67 0 0 0-2.667-2.667zm0 8a5.34 5.34 0 0 1-5.333-5.333A5.34 5.34 0 0 1 234.736 52a5.34 5.34 0 0 1 5.333 5.333 5.34 5.34 0 0 1-5.333 5.333m52 22.667h-2.667V26.778c-3.78.636-6.667 3.93-6.667 7.888v8h-2.667v-8c0-5.88 4.785-10.667 10.667-10.667.736 0 1.333.597 1.333 1.333v60m-32 1.334h-5.333V84h4V70.666h2.667v14.667c0 .736-.597 1.333-1.333 1.333m-6.667-25.333h21.333V22.666H248.07zM270.736 64h-24c-.736 0-1.333-.597-1.333-1.333V21.333c0-.736.597-1.333 1.333-1.333h24c.736 0 1.333.597 1.333 1.333v41.333c0 .736-.597 1.333-1.333 1.333M244.07 8v4a2.67 2.67 0 0 0 2.667 2.667A2.67 2.67 0 0 0 249.403 12V8zm2.667 9.333A5.34 5.34 0 0 1 241.403 12V6.666c0-.736.597-1.333 1.333-1.333h8c.736 0 1.333.597 1.333 1.333V12a5.34 5.34 0 0 1-5.333 5.333"/><path d="M252.07 8v4a2.67 2.67 0 0 0 2.667 2.667A2.67 2.67 0 0 0 257.403 12V8zm2.667 9.333A5.34 5.34 0 0 1 249.403 12V6.666c0-.736.597-1.333 1.333-1.333h8c.736 0 1.333.597 1.333 1.333V12a5.34 5.34 0 0 1-5.333 5.333"/><path d="M260.07 8v4a2.67 2.67 0 0 0 2.667 2.667A2.67 2.67 0 0 0 265.403 12V8zm2.667 9.333A5.34 5.34 0 0 1 257.403 12V6.666c0-.736.597-1.333 1.333-1.333h8c.736 0 1.333.597 1.333 1.333V12a5.34 5.34 0 0 1-5.333 5.333"/><path d="M268.07 8v4a2.67 2.67 0 0 0 2.667 2.667A2.67 2.67 0 0 0 273.403 12V8zm2.667 9.333A5.34 5.34 0 0 1 265.403 12V6.666c0-.736.597-1.333 1.333-1.333h8c.736 0 1.333.597 1.333 1.333V12a5.34 5.34 0 0 1-5.333 5.333"/><path d="M245.403 5.333h26.667V2.666h-26.667zm28 2.667H244.07c-.736 0-1.333-.597-1.333-1.333V1.333c0-.736.597-1.333 1.333-1.333h29.333c.736 0 1.333.597 1.333 1.333v5.333c0 .736-.597 1.333-1.333 1.333M240.46 35.6l-14.667-14.667a5.11 5.11 0 0 1 0-7.219 5.11 5.11 0 0 1 7.219 0l9.333 9.333-1.885 1.885-9.333-9.333a2.44 2.44 0 0 0-3.448 0c-.95.95-.95 2.497 0 3.448l14.667 14.667-1.885 1.885m14.07 17.724h8.408l.9-5.333h-10.185zM264.07 56h-10.667a1.33 1.33 0 0 1-1.315-1.113l-1.333-8a1.33 1.33 0 0 1 1.314-1.553h13.333c.392 0 .764.173 1.017.472a1.33 1.33 0 0 1 .297 1.081l-1.333 8A1.33 1.33 0 0 1 264.07 56m-4-16h-2.667V26.666h2.667V40"/><path d="M258.736 41.333a1.33 1.33 0 0 1-.943-.391l-5.333-5.333 1.885-1.885 4.4 4.4 4.4-4.4L265 35.61l-5.333 5.333a1.33 1.33 0 0 1-.943.391M91.622 87.17a25.52 25.52 0 0 1-2.579-.132c-6.828-.696-12.935-3.63-19.637-7.104l-.52-.27c-5.764-3-11.724-6.08-18.072-7.06-9.124-1.4-18.786 1.824-25.226 8.437l-1.9-1.86c7.03-7.22 17.578-10.75 27.543-9.2 6.78 1.047 12.937 4.24 18.892 7.327l.52.27c6.457 3.347 12.32 6.17 18.68 6.82 7.057.717 13.704-1.88 16.9-6.624l2.2 1.495c-3.347 4.948-9.765 7.913-16.813 7.913"/></g><g class="B"><use xlink:href="#E"/><use xlink:href="#E" x="17.804" y="-15.107"/><path d="M601.4 63.08c0-4.232-3.76-7.993-7.993-7.993 4.232 0 7.993-3.76 7.993-7.993 0 4.232 3.763 7.993 7.993 7.993-4.23 0-7.993 3.76-7.993 7.993"/></g><path d="M320 70.438h-2.667V67.77H320zm5.333 0h-2.667V67.77h2.667zm5.333 0h-2.667V67.77h2.667zm5.333 0h-2.667V67.77h2.667zm5.333 0h-2.667V67.77h2.667v2.667m24.536-22.012h-2.667V45.76h2.667zm5.333 0h-2.667V45.76h2.667zm5.333 0h-2.667V45.76h2.667zm5.333 0H379.2V45.76h2.667v2.667M90.363 34.666h-2.667V32h2.667zm5.333 0H93.03V32h2.667zm5.333 0h-2.667V32h2.667zm5.333 0h-2.667V32h2.667zm5.333 0h-2.667V32h2.667zm5.333 0h-2.667V32h2.667v2.667" class="C"/><defs ><path id="B" d="M520.69 11.113a5.54 5.54 0 0 0-7.836 0l-.11.11-.11-.11a5.54 5.54 0 1 0-7.836 7.836l7.945 7.945 7.945-7.945a5.54 5.54 0 0 0 0-7.836"/><path id="C" d="M261.514 249.4h-2.667v-2.667h2.667zm5.333 0h-2.667v-2.667h2.667zm5.333 0h-2.667v-2.667h2.667zm5.333 0h-2.667v-2.667h2.667zm5.333 0h-2.667v-2.667h2.667zm5.333 0h-2.667v-2.667h2.667v2.667"/><path id="D" d="M242.2 92.894l3.533 7.16 7.903 1.148-5.717 5.573 1.35 7.87-7.068-3.716-7.068 3.716 1.35-7.87-5.717-5.573 7.9-1.148 3.535-7.16"/><path id="E" d="M604.726 86.18c0-4.232-3.76-7.993-7.993-7.993 4.232 0 7.993-3.76 7.993-7.993 0 4.232 3.76 7.993 7.993 7.993-4.232 0-7.993 3.76-7.993 7.993"/></defs></svg>