<?xml version="1.0" encoding="utf-8"?>
<!-- Generator: Adobe Illustrator 18.0.0, SVG Export Plug-In . SVG Version: 6.00 Build 0)  -->
<!DOCTYPE svg PUBLIC "-//W3C//DTD SVG 1.1//EN" "http://www.w3.org/Graphics/SVG/1.1/DTD/svg11.dtd">
<svg version="1.1" id="Layer_1" xmlns="http://www.w3.org/2000/svg" xmlns:xlink="http://www.w3.org/1999/xlink" x="0px" y="0px"
	 viewBox="0 0 129.5 129.5" enable-background="new 0 0 129.5 129.5" xml:space="preserve">
<g>
	<g>
		<path fill="#231F20" d="M104.5,30.5c-0.2,0-0.4-0.1-0.5-0.2c-0.3-0.3-0.3-0.8,0-1.1l1.3-1.3c0.3-0.3,0.8-0.3,1.1,0
			c0.3,0.3,0.3,0.8,0,1.1l-1.3,1.3C104.9,30.5,104.7,30.5,104.5,30.5z"/>
		<path fill="#231F20" d="M100.5,34.6c-0.2,0-0.4-0.1-0.5-0.2c-0.3-0.3-0.3-0.8,0-1.1l1.3-1.3c0.3-0.3,0.8-0.3,1.1,0
			c0.3,0.3,0.3,0.8,0,1.1l-1.3,1.3C100.9,34.5,100.7,34.6,100.5,34.6z"/>
		<path fill="#231F20" d="M105.8,34.6c-0.2,0-0.4-0.1-0.5-0.2l-1.3-1.3c-0.3-0.3-0.3-0.8,0-1.1c0.3-0.3,0.8-0.3,1.1,0l1.3,1.3
			c0.3,0.3,0.3,0.8,0,1.1C106.2,34.5,106,34.6,105.8,34.6z"/>
		<path fill="#231F20" d="M101.8,30.5c-0.2,0-0.4-0.1-0.5-0.2L99.9,29c-0.3-0.3-0.3-0.8,0-1.1c0.3-0.3,0.8-0.3,1.1,0l1.3,1.3
			c0.3,0.3,0.3,0.8,0,1.1C102.2,30.5,102,30.5,101.8,30.5z"/>
		<g>
			<path fill="#231F20" d="M77.2,119.1c-0.2,0-0.4-0.1-0.5-0.2c-0.3-0.3-0.3-0.8,0-1.1l1.3-1.3c0.3-0.3,0.8-0.3,1.1,0
				c0.3,0.3,0.3,0.8,0,1.1l-1.3,1.3C77.6,119,77.4,119.1,77.2,119.1z"/>
		</g>
		<g>
			<path fill="#231F20" d="M73.1,123.2c-0.2,0-0.4-0.1-0.5-0.2c-0.3-0.3-0.3-0.8,0-1.1l1.3-1.3c0.3-0.3,0.8-0.3,1.1,0
				c0.3,0.3,0.3,0.8,0,1.1l-1.3,1.3C73.5,123.1,73.3,123.2,73.1,123.2z"/>
		</g>
		<g>
			<path fill="#231F20" d="M78.5,123.2c-0.2,0-0.4-0.1-0.5-0.2l-1.3-1.3c-0.3-0.3-0.3-0.8,0-1.1c0.3-0.3,0.8-0.3,1.1,0l1.3,1.3
				c0.3,0.3,0.3,0.8,0,1.1C78.9,123.1,78.7,123.2,78.5,123.2z"/>
		</g>
		<g>
			<path fill="#231F20" d="M74.4,119.1c-0.2,0-0.4-0.1-0.5-0.2l-1.3-1.3c-0.3-0.3-0.3-0.8,0-1.1c0.3-0.3,0.8-0.3,1.1,0l1.3,1.3
				c0.3,0.3,0.3,0.8,0,1.1C74.8,119,74.6,119.1,74.4,119.1z"/>
		</g>
		<circle fill="#FF7058" cx="114.7" cy="32" r="2.5"/>
		<circle fill="#E6E9EE" cx="90.6" cy="9" r="2.5"/>
		<circle fill="#FFD05B" cx="117.2" cy="79.8" r="1.7"/>
		<circle fill="#84DBFF" cx="52.4" cy="118.4" r="2.5"/>
		<circle fill="#FFD05B" cx="2.7" cy="2.5" r="2.5"/>
		<path fill="#231F20" d="M33,9.8h-4.3C28.3,9.8,28,9.4,28,9c0-0.4,0.3-0.8,0.8-0.8H33c0.4,0,0.8,0.3,0.8,0.8
			C33.7,9.4,33.4,9.8,33,9.8z"/>
		<polygon fill="#84DBFF" points="72.2,26.5 72.2,15.6 83.1,26.5 		"/>
		<rect x="26.7" y="16.2" fill="#231F20" width="25.7" height="1.5"/>
		<rect x="26.7" y="20.2" fill="#231F20" width="25.7" height="1.5"/>
		<rect x="26.7" y="24.3" fill="#231F20" width="16.4" height="1.5"/>
		<path fill="#FFFFFF" d="M75.3,79.4v-5.5l-0.3,0c-2.2-0.2-4-1.7-4.8-3.8c-0.2-0.4-0.3-0.8-0.5-1.2c-0.9-2-0.7-4.4,0.7-6.1l0.2-0.3
			l-3.9-3.9l-0.3,0.2c-1.7,1.4-4.1,1.6-6.1,0.7c-0.4-0.2-0.8-0.3-1.2-0.5c-2.1-0.8-3.6-2.6-3.8-4.8l0-0.3h-5.5l0,0.3
			c-0.2,2.2-1.7,4-3.8,4.8c-0.4,0.2-0.8,0.3-1.2,0.5c-2,0.9-4.4,0.7-6.1-0.7l-0.3-0.2l-3.9,3.9l0.2,0.3c1.4,1.7,1.6,4.1,0.7,6.1
			c-0.2,0.4-0.3,0.8-0.5,1.2c-0.8,2.1-2.6,3.6-4.8,3.8l-0.3,0v5.5l0.3,0c2.2,0.2,4,1.7,4.8,3.8c0.2,0.4,0.3,0.8,0.5,1.2
			c0.9,2,0.7,4.4-0.7,6.1l-0.2,0.3l3.9,3.9l0.3-0.2c1.7-1.4,4.1-1.6,6.1-0.7c0.4,0.2,0.8,0.3,1.2,0.5c2.1,0.8,3.6,2.6,3.8,4.8l0,0.3
			h5.5l0-0.3c0.2-2.2,1.7-4,3.8-4.8c0.4-0.2,0.8-0.3,1.2-0.5c2-0.9,4.4-0.7,6.1,0.7l0.3,0.2l3.9-3.9l-0.2-0.3
			c-1.4-1.7-1.6-4.1-0.7-6.1c0.2-0.4,0.3-0.8,0.5-1.2c0.8-2.1,2.6-3.6,4.8-3.8L75.3,79.4z"/>
		<path fill="#231F20" d="M55.4,100.1h-5.5c-0.4,0-0.7-0.3-0.8-0.7l0-0.3c-0.2-1.9-1.4-3.5-3.3-4.2c-0.4-0.2-0.8-0.3-1.2-0.5
			c-1.8-0.8-3.9-0.6-5.3,0.6L39,95.2c-0.3,0.2-0.7,0.2-1,0l-3.9-3.9c-0.3-0.3-0.3-0.7,0-1l0.2-0.3c1.2-1.4,1.4-3.5,0.6-5.3
			c-0.2-0.4-0.4-0.8-0.5-1.2c-0.7-1.9-2.3-3.1-4.2-3.3l-0.3,0c-0.4,0-0.7-0.4-0.7-0.8v-5.5c0-0.4,0.3-0.7,0.7-0.8l0.3,0
			c1.9-0.2,3.5-1.4,4.2-3.3c0.2-0.4,0.3-0.8,0.5-1.2c0.8-1.8,0.6-3.8-0.6-5.3L34.1,63c-0.2-0.3-0.2-0.7,0-1l3.9-3.9
			c0.3-0.3,0.7-0.3,1,0l0.3,0.2c1.4,1.2,3.5,1.4,5.3,0.6c0.4-0.2,0.8-0.4,1.2-0.5c1.9-0.7,3.1-2.3,3.3-4.2l0-0.3
			c0-0.4,0.4-0.7,0.8-0.7h5.5c0.4,0,0.7,0.3,0.8,0.7l0,0.3c0.2,1.9,1.4,3.5,3.3,4.2c0.4,0.2,0.8,0.3,1.2,0.5
			c1.8,0.8,3.9,0.6,5.3-0.6l0.3-0.2c0.3-0.2,0.7-0.2,1,0l3.9,3.9c0.3,0.3,0.3,0.7,0,1L71,63.3c-1.2,1.4-1.4,3.5-0.6,5.3
			c0.2,0.4,0.4,0.8,0.5,1.2c0.7,1.9,2.3,3.1,4.2,3.3l0.3,0c0.4,0,0.7,0.4,0.7,0.8v5.5c0,0.4-0.3,0.7-0.7,0.8l-0.3,0
			c-1.9,0.2-3.5,1.4-4.2,3.3c-0.2,0.4-0.3,0.8-0.5,1.2c-0.8,1.8-0.6,3.8,0.6,5.3l0.2,0.3c0.2,0.3,0.2,0.7,0,1l-3.9,3.9
			c-0.3,0.3-0.7,0.3-1,0L66,95c-1.4-1.2-3.5-1.4-5.3-0.6c-0.4,0.2-0.8,0.4-1.2,0.5c-1.9,0.7-3.1,2.3-3.3,4.2l0,0.3
			C56.1,99.8,55.8,100.1,55.4,100.1z M50.6,98.5h4.1c0.3-2.3,1.9-4.2,4.2-5.1c0.4-0.1,0.8-0.3,1.1-0.5c2.2-1,4.8-0.8,6.6,0.6
			l2.9-2.9c-1.4-1.9-1.6-4.4-0.6-6.6c0.2-0.4,0.3-0.8,0.5-1.1c0.9-2.3,2.8-3.9,5.1-4.2v-4.1c-2.3-0.3-4.2-1.9-5.1-4.2
			c-0.1-0.4-0.3-0.8-0.5-1.1c-1-2.2-0.8-4.7,0.6-6.6l-2.9-2.9c-1.1,0.8-2.4,1.2-3.8,1.2c-1,0-1.9-0.2-2.8-0.6
			c-0.4-0.2-0.8-0.3-1.1-0.5c-2.3-0.9-3.9-2.8-4.2-5.1h-4.1c-0.3,2.3-1.9,4.2-4.2,5.1c-0.4,0.1-0.8,0.3-1.1,0.5
			c-2.2,1-4.8,0.8-6.6-0.6l-2.9,2.9c1.4,1.9,1.6,4.4,0.6,6.6c-0.2,0.4-0.3,0.8-0.5,1.1c-0.9,2.3-2.8,3.9-5.1,4.2v4.1
			c2.3,0.3,4.2,1.9,5.1,4.2c0.1,0.4,0.3,0.8,0.5,1.1c1,2.2,0.8,4.7-0.6,6.6l2.9,2.9c1.8-1.4,4.4-1.6,6.6-0.6
			c0.4,0.2,0.8,0.3,1.1,0.5C48.6,94.3,50.2,96.2,50.6,98.5z"/>
		<path fill="#231F20" d="M52.8,91.6l0-1.5c0.3,0,0.6,0,0.9,0l0.1,1.5C53.5,91.6,53.2,91.6,52.8,91.6z M50.7,91.5
			c-0.4,0-0.7-0.1-1-0.2l0.3-1.5c0.3,0.1,0.6,0.1,0.9,0.2L50.7,91.5z M56,91.2l-0.3-1.5c0.3-0.1,0.6-0.2,0.9-0.2l0.4,1.4
			C56.7,91,56.3,91.1,56,91.2z M47.6,90.7c-0.3-0.1-0.7-0.2-1-0.4l0.6-1.4c0.3,0.1,0.6,0.2,0.9,0.3L47.6,90.7z M59,90.2l-0.6-1.4
			c0.3-0.1,0.6-0.3,0.8-0.4l0.7,1.3C59.6,89.8,59.3,90,59,90.2z M44.8,89.4c-0.3-0.2-0.6-0.4-0.9-0.6l0.9-1.2
			c0.3,0.2,0.5,0.4,0.8,0.5L44.8,89.4z M61.7,88.5l-0.9-1.2c0.3-0.2,0.5-0.4,0.7-0.6l1,1.1C62.2,88.1,62,88.3,61.7,88.5z M42.3,87.4
			c-0.3-0.2-0.5-0.5-0.7-0.8l1.1-1c0.2,0.2,0.4,0.5,0.7,0.7L42.3,87.4z M64,86.3l-1.1-1c0.2-0.2,0.4-0.5,0.6-0.7l1.2,0.9
			C64.4,85.8,64.2,86.1,64,86.3z M40.2,85c-0.2-0.3-0.4-0.6-0.6-0.9l1.3-0.8c0.2,0.3,0.3,0.5,0.5,0.8L40.2,85z M65.8,83.7L64.5,83
			c0.2-0.3,0.3-0.6,0.4-0.9l1.4,0.6C66.1,83.1,66,83.4,65.8,83.7z M38.7,82.2c-0.1-0.3-0.3-0.7-0.4-1l1.4-0.5
			c0.1,0.3,0.2,0.6,0.3,0.9L38.7,82.2z M67,80.8l-1.4-0.4c0.1-0.3,0.2-0.6,0.2-0.9l1.5,0.3C67.2,80.1,67.1,80.5,67,80.8z M37.9,79.1
			c-0.1-0.3-0.1-0.7-0.1-1l1.5-0.1c0,0.3,0.1,0.6,0.1,0.9L37.9,79.1z M67.6,77.7L66,77.6c0-0.3,0-0.6,0-1h1.5
			C67.6,77,67.6,77.3,67.6,77.7z M39.2,76L37.7,76c0-0.4,0-0.7,0.1-1.1l1.5,0.2C39.2,75.4,39.2,75.7,39.2,76z M66.1,75.8
			c0-0.3,0-0.6-0.1-0.9l1.5-0.2c0,0.3,0.1,0.7,0.1,1.1L66.1,75.8z M39.6,73.2l-1.5-0.4c0.1-0.3,0.2-0.7,0.3-1l1.4,0.5
			C39.8,72.6,39.7,72.9,39.6,73.2z M65.6,73c-0.1-0.3-0.2-0.6-0.3-0.9l1.4-0.5c0.1,0.3,0.2,0.7,0.3,1L65.6,73z M40.6,70.6l-1.3-0.7
			c0.2-0.3,0.3-0.6,0.5-0.9l1.3,0.8C40.9,70,40.7,70.3,40.6,70.6z M64.6,70.4c-0.1-0.3-0.3-0.6-0.5-0.8l1.3-0.8
			c0.2,0.3,0.4,0.6,0.5,0.9L64.6,70.4z M42.2,68.2L41,67.2c0.2-0.3,0.5-0.5,0.7-0.8l1.1,1C42.6,67.7,42.4,67.9,42.2,68.2z M63,68
			c-0.2-0.2-0.4-0.5-0.6-0.7l1.1-1c0.2,0.3,0.5,0.5,0.7,0.8L63,68z M44.2,66.1L43.2,65c0.3-0.2,0.6-0.4,0.8-0.6l0.9,1.2
			C44.7,65.7,44.4,65.9,44.2,66.1z M60.9,66c-0.2-0.2-0.5-0.4-0.8-0.6l0.8-1.2c0.3,0.2,0.6,0.4,0.9,0.6L60.9,66z M46.6,64.6
			l-0.7-1.3c0.3-0.2,0.6-0.3,1-0.4l0.6,1.4C47.1,64.3,46.8,64.4,46.6,64.6z M58.5,64.5c-0.3-0.1-0.6-0.3-0.9-0.4l0.6-1.4
			c0.3,0.1,0.7,0.3,1,0.4L58.5,64.5z M49.2,63.6l-0.4-1.5c0.3-0.1,0.7-0.2,1-0.2l0.3,1.5C49.8,63.4,49.5,63.5,49.2,63.6z M55.8,63.5
			c-0.3-0.1-0.6-0.1-0.9-0.2l0.3-1.5c0.3,0.1,0.7,0.1,1,0.2L55.8,63.5z M52,63.2L52,61.7c0.3,0,0.7,0,1.1,0l0,1.5l-0.4,0
			C52.4,63.2,52.2,63.2,52,63.2z"/>
		<circle fill="#E6E9EE" cx="52.6" cy="76.6" r="11.3"/>
		<circle fill="#FFFFFF" cx="52.6" cy="76.6" r="5.6"/>
		<path fill="#231F20" d="M52.6,83c-3.5,0-6.4-2.9-6.4-6.4c0-3.5,2.9-6.4,6.4-6.4c3.5,0,6.4,2.9,6.4,6.4C59,80.1,56.1,83,52.6,83z
			 M52.6,71.7c-2.7,0-4.9,2.2-4.9,4.9c0,2.7,2.2,4.9,4.9,4.9c2.7,0,4.9-2.2,4.9-4.9C57.5,73.9,55.3,71.7,52.6,71.7z"/>
		<g>
			<path fill="#FFFFFF" d="M36.9,43l-2-3.5l-0.2,0.1c-1.5,0.7-3.2,0.4-4.5-0.7c-0.2-0.2-0.5-0.4-0.8-0.6c-1.3-1-2.1-2.5-1.8-4.1
				l0-0.2l-3.9-1.1l-0.1,0.2c-0.6,1.5-2,2.5-3.6,2.7c-0.3,0-0.6,0.1-0.9,0.1c-1.6,0.3-3.2-0.3-4.2-1.7l-0.1-0.2l-3.5,2l0.1,0.2
				c0.7,1.5,0.4,3.2-0.6,4.5c-0.2,0.2-0.4,0.5-0.6,0.8c-1,1.3-2.5,2.1-4.1,1.8l-0.2,0l-1.1,3.9l0.2,0.1c1.5,0.6,2.5,2,2.7,3.6
				c0,0.3,0.1,0.6,0.1,0.9C8,53.5,7.4,55.1,6,56.1l-0.2,0.1l2,3.5l0.2-0.1c1.5-0.7,3.2-0.4,4.5,0.6c0.2,0.2,0.5,0.4,0.8,0.6
				c1.3,1,2.1,2.5,1.8,4.1l0,0.2l3.9,1.1l0.1-0.2c0.6-1.5,2-2.5,3.6-2.7c0.3,0,0.6-0.1,0.9-0.1c1.6-0.3,3.2,0.3,4.2,1.7l0.1,0.2
				l3.5-2l-0.1-0.2c-0.7-1.5-0.4-3.2,0.6-4.5c0.2-0.2,0.4-0.5,0.6-0.8c1-1.3,2.5-2.1,4.1-1.8l0.2,0L38,52l-0.2-0.1
				c-1.5-0.6-2.5-2-2.7-3.6c0-0.3-0.1-0.6-0.1-0.9c-0.3-1.6,0.3-3.2,1.7-4.2L36.9,43z"/>
			<path fill="#231F20" d="M19,67.1c-0.1,0-0.1,0-0.2,0L14.8,66c-0.4-0.1-0.6-0.5-0.5-0.9l0-0.2c0.2-1.3-0.3-2.6-1.5-3.4
				c-0.3-0.2-0.5-0.4-0.8-0.6c-1-0.9-2.5-1.1-3.7-0.5l-0.2,0.1c-0.4,0.2-0.8,0-1-0.3l-2-3.5c-0.2-0.3-0.1-0.8,0.2-1l0.2-0.1
				C6.7,54.7,7.2,53.4,7,52c-0.1-0.3-0.1-0.7-0.1-1c-0.1-1.4-1-2.5-2.2-3l-0.2-0.1C4,47.8,3.8,47.4,3.9,47L5,43.1
				c0.1-0.4,0.5-0.6,0.9-0.5l0.2,0c1.3,0.2,2.6-0.4,3.4-1.5c0.2-0.3,0.4-0.5,0.6-0.8c0.9-1.1,1.1-2.5,0.5-3.7l-0.1-0.2
				c-0.2-0.4,0-0.8,0.3-1l3.5-2c0.3-0.2,0.8-0.1,1,0.2l0.1,0.2c0.8,1.1,2.1,1.6,3.4,1.4c0.3-0.1,0.7-0.1,1-0.1c1.4-0.1,2.5-1,3-2.2
				l0.1-0.2c0.1-0.4,0.5-0.6,0.9-0.5l3.9,1.1c0.4,0.1,0.6,0.5,0.5,0.9l0,0.2c-0.2,1.3,0.3,2.6,1.5,3.4c0.3,0.2,0.5,0.4,0.8,0.6
				c1,0.9,2.5,1.1,3.7,0.5l0.2-0.1c0.4-0.2,0.8,0,1,0.3l2,3.5c0.2,0.3,0.1,0.8-0.2,1l-0.2,0.1c-1.1,0.8-1.6,2.1-1.4,3.4
				c0.1,0.3,0.1,0.7,0.1,1c0.1,1.4,1,2.5,2.2,3l0.2,0.1c0.4,0.1,0.6,0.5,0.5,0.9l-1.1,3.9c-0.1,0.4-0.5,0.6-0.9,0.5l-0.2,0
				c-1.3-0.2-2.6,0.4-3.4,1.5c-0.2,0.3-0.4,0.5-0.6,0.8c-0.9,1.1-1.1,2.5-0.5,3.7l0.1,0.2c0.2,0.4,0,0.8-0.3,1l-3.5,2
				c-0.3,0.2-0.8,0.1-1-0.2l-0.1-0.2c-0.8-1.1-2.1-1.6-3.4-1.4c-0.3,0.1-0.7,0.1-1,0.1c-1.4,0.1-2.5,1-3,2.2l-0.1,0.2
				C19.6,66.9,19.3,67.1,19,67.1z M15.9,64.7l2.6,0.7c0.7-1.6,2.3-2.6,4.1-2.8c0.3,0,0.6-0.1,0.9-0.1c1.8-0.3,3.5,0.3,4.7,1.6
				l2.4-1.4c-0.6-1.6-0.2-3.5,0.9-4.9c0.2-0.2,0.4-0.5,0.6-0.7c1-1.5,2.7-2.3,4.5-2.1l0.7-2.6c-1.6-0.7-2.6-2.3-2.8-4.1
				c0-0.3-0.1-0.6-0.1-0.9c-0.3-1.8,0.3-3.5,1.6-4.7l-1.4-2.4c-1.6,0.6-3.5,0.2-4.9-0.9c-0.2-0.2-0.5-0.4-0.7-0.6
				c-1.5-1.1-2.3-2.7-2.1-4.5l-2.6-0.7c-0.7,1.6-2.3,2.6-4.1,2.8c-0.3,0-0.6,0.1-0.9,0.1c-1.7,0.3-3.5-0.3-4.7-1.6l-2.4,1.4
				c0.6,1.6,0.2,3.5-0.9,4.9c-0.2,0.2-0.4,0.5-0.6,0.7c-1,1.5-2.7,2.3-4.5,2.1l-0.7,2.6c1.6,0.7,2.6,2.3,2.8,4.1
				c0,0.3,0.1,0.6,0.1,0.9c0.3,1.8-0.3,3.5-1.6,4.7l1.4,2.4c1.6-0.6,3.5-0.2,4.9,0.9c0.2,0.2,0.5,0.4,0.7,0.6
				C15.2,61.3,16,63,15.9,64.7z"/>
		</g>
		<g>
			<path fill="#231F20" d="M21.4,60.9l-0.2,0l0-1.5l0.2,0c0.3,0,0.5,0,0.8,0l0.1,1.5C22,60.9,21.7,60.9,21.4,60.9z M19,60.6
				c-0.4-0.1-0.7-0.2-1-0.3l0.5-1.4c0.3,0.1,0.6,0.2,0.9,0.2L19,60.6z M24.4,60.5L24,59c0.3-0.1,0.6-0.2,0.9-0.3l0.5,1.4
				C25.1,60.2,24.7,60.4,24.4,60.5z M16,59.5c-0.3-0.2-0.6-0.4-0.9-0.6l0.8-1.3c0.3,0.2,0.5,0.3,0.8,0.5L16,59.5z M27.3,59.2
				l-0.8-1.3c0.3-0.2,0.5-0.3,0.8-0.5l0.9,1.2C27.9,58.8,27.6,59,27.3,59.2z M13.4,57.6c-0.3-0.3-0.5-0.5-0.7-0.8l1.2-1
				c0.2,0.2,0.4,0.5,0.6,0.7L13.4,57.6z M29.8,57.1l-1.1-1c0.2-0.2,0.4-0.5,0.6-0.7l1.2,0.9C30.2,56.5,30,56.8,29.8,57.1z M11.5,55
				c-0.2-0.3-0.3-0.6-0.5-1l1.4-0.6c0.1,0.3,0.3,0.6,0.4,0.8L11.5,55z M31.5,54.4l-1.4-0.6c0.1-0.3,0.2-0.6,0.4-0.9l1.4,0.5
				C31.8,53.7,31.7,54,31.5,54.4z M10.4,52c-0.1-0.4-0.1-0.7-0.2-1.1l1.5-0.2c0,0.3,0.1,0.6,0.2,0.9L10.4,52z M32.5,51.3L31,51.1
				c0-0.3,0.1-0.6,0.1-0.9l1.5,0.1C32.6,50.6,32.5,50.9,32.5,51.3z M11.7,48.9l-1.5-0.1c0-0.4,0.1-0.7,0.1-1.1l1.5,0.3
				C11.7,48.3,11.7,48.6,11.7,48.9z M31,48.3c0-0.3-0.1-0.6-0.2-0.9l1.5-0.4c0.1,0.4,0.2,0.7,0.2,1.1L31,48.3z M12.3,46.2l-1.4-0.5
				c0.1-0.3,0.3-0.7,0.4-1l1.4,0.7C12.5,45.6,12.4,45.9,12.3,46.2z M30.2,45.6c-0.1-0.3-0.3-0.6-0.4-0.8l1.3-0.8
				c0.2,0.3,0.3,0.6,0.5,1L30.2,45.6z M13.6,43.7l-1.2-0.9c0.2-0.3,0.4-0.6,0.7-0.8l1.1,1C14,43.2,13.8,43.5,13.6,43.7z M29,43.6
				c-0.2-0.2-0.4-0.5-0.6-0.7l1.1-1c0.2,0.3,0.5,0.5,0.7,0.8L29,43.6z M15.6,41.8l-0.9-1.2c0.3-0.2,0.6-0.4,0.9-0.6l0.8,1.3
				C16.1,41.4,15.9,41.6,15.6,41.8z M27,41.7c-0.3-0.2-0.5-0.3-0.8-0.5l0.7-1.3c0.3,0.2,0.6,0.4,0.9,0.6L27,41.7z M18.1,40.5
				L17.6,39c0.3-0.1,0.7-0.2,1-0.3l0.4,1.5C18.7,40.3,18.4,40.4,18.1,40.5z M24.5,40.4c-0.3-0.1-0.6-0.2-0.9-0.3l0.3-1.5
				c0.3,0.1,0.7,0.2,1,0.3L24.5,40.4z M20.8,39.9l-0.1-1.5c0.2,0,0.4,0,0.6,0c0.2,0,0.3,0,0.5,0l-0.1,1.5c-0.1,0-0.3,0-0.4,0
				C21.2,39.9,21,39.9,20.8,39.9z"/>
		</g>
		<g>
			<circle fill="#E6E9EE" cx="21.4" cy="49.6" r="8.3"/>
		</g>
		<g>
			<circle fill="#FFFFFF" cx="21.4" cy="49.6" r="4.2"/>
			<path fill="#231F20" d="M21.4,54.5c-1.8,0-3.4-0.9-4.3-2.5c-0.7-1.1-0.8-2.5-0.5-3.7c0.3-1.3,1.2-2.3,2.3-3
				c0.7-0.4,1.6-0.7,2.4-0.7c1.8,0,3.4,0.9,4.3,2.5c1.4,2.3,0.5,5.4-1.8,6.7C23.1,54.3,22.2,54.5,21.4,54.5z M21.4,46.2
				c-0.6,0-1.2,0.2-1.7,0.5c-0.8,0.5-1.4,1.2-1.6,2.1c-0.2,0.9-0.1,1.8,0.3,2.6c0.6,1.1,1.7,1.7,3,1.7c0.6,0,1.2-0.2,1.7-0.5
				c1.6-0.9,2.2-3,1.3-4.7C23.7,46.9,22.6,46.2,21.4,46.2z"/>
		</g>
		<g>
			<path fill="#FFFFFF" d="M99.3,46.8l-3.7-1.7l-0.1,0.2c-0.8,1.4-2.4,2.2-4,2.1c-0.3,0-0.6,0-1,0c-1.6,0-3.2-0.8-3.9-2.3l-0.1-0.2
				l-3.8,1.4l0.1,0.2c0.4,1.6-0.1,3.2-1.4,4.3c-0.2,0.2-0.5,0.4-0.7,0.7c-1.1,1.2-2.8,1.6-4.4,1.1l-0.2-0.1l-1.7,3.7l0.2,0.1
				c1.4,0.8,2.2,2.4,2.1,4c0,0.3,0,0.6,0,1c0,1.6-0.8,3.2-2.3,3.9l-0.2,0.1l1.4,3.8L76,69c1.6-0.4,3.2,0.1,4.3,1.4
				c0.2,0.2,0.4,0.5,0.7,0.7c1.2,1.1,1.6,2.8,1.1,4.4l-0.1,0.2l3.7,1.7l0.1-0.2c0.8-1.4,2.4-2.2,4-2.1c0.3,0,0.6,0,1,0
				c1.6,0,3.2,0.8,3.9,2.3l0.1,0.2l3.8-1.4l-0.1-0.2c-0.4-1.6,0.1-3.2,1.4-4.3c0.2-0.2,0.5-0.4,0.7-0.7c1.1-1.2,2.8-1.6,4.4-1.1
				l0.2,0.1l1.7-3.7l-0.2-0.1c-1.4-0.8-2.2-2.4-2.1-4c0-0.3,0-0.6,0-1c0-1.6,0.8-3.2,2.3-3.9l0.2-0.1l-1.4-3.8l-0.2,0.1
				c-1.6,0.4-3.2-0.1-4.3-1.4c-0.2-0.2-0.4-0.5-0.7-0.7c-1.2-1.1-1.6-2.8-1.1-4.4L99.3,46.8z"/>
			<path fill="#231F20" d="M94.7,78.4c-0.3,0-0.5-0.2-0.7-0.4l-0.1-0.2c-0.6-1.2-1.8-1.9-3.2-1.9c-0.4,0-0.7,0-1,0
				c-1.4-0.1-2.6,0.6-3.3,1.7l-0.1,0.2c-0.2,0.3-0.6,0.5-1,0.3l-3.7-1.7c-0.4-0.2-0.5-0.6-0.4-0.9l0.1-0.2c0.4-1.2,0.1-2.6-0.9-3.6
				c-0.2-0.2-0.5-0.5-0.7-0.7c-0.9-1-2.3-1.5-3.5-1.1l-0.2,0.1c-0.4,0.1-0.8-0.1-0.9-0.5l-1.4-3.8c-0.1-0.4,0-0.8,0.4-0.9l0.2-0.1
				c1.2-0.6,1.9-1.8,1.9-3.2c0-0.3,0-0.7,0-1c0.1-1.4-0.6-2.6-1.7-3.3l-0.2-0.1c-0.3-0.2-0.5-0.6-0.3-1l1.7-3.7
				c0.2-0.4,0.6-0.5,0.9-0.4l0.2,0.1c1.2,0.4,2.6,0.1,3.6-0.9c0.2-0.2,0.5-0.5,0.7-0.7c1-0.9,1.5-2.3,1.1-3.5l-0.1-0.2
				c-0.1-0.4,0.1-0.8,0.5-0.9l3.8-1.4c0.4-0.1,0.8,0,0.9,0.4l0.1,0.2c0.6,1.2,1.8,1.9,3.2,1.9c0.4,0,0.7,0,1,0
				c1.4,0.1,2.6-0.6,3.3-1.7l0.1-0.2c0.2-0.3,0.6-0.5,1-0.3l3.7,1.7c0.4,0.2,0.5,0.6,0.4,0.9l-0.1,0.2c-0.4,1.2-0.1,2.6,0.9,3.6
				c0.2,0.2,0.5,0.5,0.7,0.7c0.9,1,2.3,1.5,3.5,1.1l0.2-0.1c0.4-0.1,0.8,0.1,0.9,0.5l1.4,3.8c0.1,0.4,0,0.8-0.4,0.9l-0.2,0.1
				c-1.2,0.6-1.9,1.8-1.9,3.2c0,0.3,0,0.7,0,1c-0.1,1.4,0.6,2.6,1.7,3.3l0.2,0.1c0.3,0.2,0.5,0.6,0.3,1l-1.7,3.7
				c-0.2,0.4-0.6,0.5-0.9,0.4l-0.2-0.1c-1.2-0.4-2.6-0.1-3.6,0.9c-0.2,0.2-0.5,0.5-0.7,0.7c-1,0.9-1.5,2.3-1.1,3.5l0.1,0.2
				c0.1,0.4-0.1,0.8-0.5,0.9L95,78.3C94.9,78.3,94.8,78.4,94.7,78.4z M89.5,74.3c0.1,0,0.2,0,0.3,0c0.3,0,0.6,0,0.8,0
				c1.9,0,3.5,0.9,4.4,2.4l2.5-1c-0.3-1.7,0.3-3.4,1.7-4.6c0.2-0.2,0.4-0.4,0.7-0.6c1.2-1.3,3.1-1.8,4.7-1.4l1.1-2.5
				c-1.4-1-2.2-2.7-2.1-4.5c0-0.3,0-0.6,0-0.9c0-1.8,0.9-3.4,2.4-4.3l-1-2.5c-1.7,0.3-3.5-0.3-4.6-1.7c-0.2-0.2-0.4-0.4-0.6-0.7
				c-1.3-1.3-1.8-3.1-1.4-4.7l-2.5-1.1c-1,1.4-2.7,2.2-4.5,2.1c-0.3,0-0.6,0-0.8,0h0c-1.9,0-3.5-0.9-4.4-2.4l-2.5,1
				c0.3,1.7-0.3,3.4-1.7,4.6c-0.2,0.2-0.4,0.4-0.7,0.6c-1.2,1.3-3.1,1.8-4.7,1.4l-1.1,2.5c1.4,1,2.2,2.7,2.1,4.5c0,0.3,0,0.6,0,0.9
				c0,1.8-0.9,3.4-2.4,4.3l1,2.5c1.7-0.3,3.5,0.3,4.6,1.7c0.2,0.2,0.4,0.4,0.6,0.7c1.3,1.3,1.8,3.1,1.4,4.7l2.5,1.1
				C86.2,75.1,87.8,74.3,89.5,74.3z"/>
		</g>
		<g>
			<path fill="#231F20" d="M91,72.5L91,71c0.3,0,0.6,0,0.9-0.1l0.2,1.5C91.7,72.4,91.4,72.5,91,72.5z M88.9,72.3
				c-0.4-0.1-0.7-0.1-1.1-0.2l0.4-1.5c0.3,0.1,0.6,0.1,0.9,0.2L88.9,72.3z M94.2,71.9l-0.5-1.4c0.3-0.1,0.6-0.2,0.9-0.3l0.6,1.4
				C94.9,71.7,94.5,71.8,94.2,71.9z M85.8,71.4c-0.3-0.2-0.6-0.3-0.9-0.5l0.8-1.3c0.3,0.2,0.5,0.3,0.8,0.4L85.8,71.4z M97.1,70.5
				l-0.9-1.2c0.3-0.2,0.5-0.4,0.7-0.6l1,1.1C97.7,70,97.4,70.3,97.1,70.5z M83.1,69.6c-0.3-0.2-0.5-0.5-0.8-0.8l1.1-1
				c0.2,0.2,0.4,0.4,0.7,0.7L83.1,69.6z M99.4,68.3l-1.2-0.9c0.2-0.2,0.4-0.5,0.5-0.8l1.3,0.8C99.9,67.7,99.6,68,99.4,68.3z
				 M81.1,67.1c-0.2-0.3-0.4-0.6-0.5-0.9l1.4-0.7c0.1,0.3,0.3,0.6,0.4,0.8L81.1,67.1z M101.1,65.5l-1.4-0.6c0.1-0.3,0.2-0.6,0.3-0.9
				l1.4,0.4C101.3,64.8,101.2,65.1,101.1,65.5z M79.8,64.2c-0.1-0.3-0.2-0.7-0.2-1.1l1.5-0.2c0.1,0.3,0.1,0.6,0.2,0.9L79.8,64.2z
				 M101.8,62.3l-1.5-0.1c0-0.3,0-0.6,0-0.9l1.5,0C101.9,61.6,101.9,62,101.8,62.3z M80.9,61l-1.5,0c0-0.4,0-0.7,0.1-1.1l1.5,0.2
				C80.9,60.4,80.9,60.7,80.9,61z M100.2,59.4c-0.1-0.3-0.1-0.6-0.2-0.9l1.4-0.4c0.1,0.3,0.2,0.7,0.3,1L100.2,59.4z M81.4,58.3
				l-1.4-0.5c0.1-0.3,0.2-0.7,0.4-1l1.4,0.6C81.6,57.7,81.5,58,81.4,58.3z M99.3,56.8c-0.1-0.3-0.3-0.5-0.5-0.8l1.3-0.8
				c0.2,0.3,0.4,0.6,0.5,0.9L99.3,56.8z M82.6,55.7l-1.2-0.9c0.2-0.3,0.4-0.6,0.7-0.9l1.2,1C83,55.2,82.8,55.5,82.6,55.7z
				 M97.7,54.5c-0.2-0.2-0.4-0.4-0.7-0.6l1-1.1c0.3,0.2,0.5,0.5,0.8,0.7L97.7,54.5z M84.5,53.7l-0.9-1.2c0.3-0.2,0.6-0.4,0.9-0.6
				l0.8,1.3C85,53.3,84.7,53.5,84.5,53.7z M95.5,52.8c-0.3-0.2-0.5-0.3-0.8-0.4l0.6-1.4c0.3,0.1,0.7,0.3,1,0.5L95.5,52.8z
				 M86.9,52.3l-0.6-1.4c0.3-0.1,0.7-0.3,1-0.4l0.4,1.4C87.5,52,87.2,52.1,86.9,52.3z M93.3,51.9c-0.3-0.1-0.6-0.2-0.9-0.2l0.3-1.5
				c0.4,0.1,0.7,0.1,1.1,0.2L93.3,51.9z M89.6,51.6l-0.2-1.5c0.4,0,0.7-0.1,1.1-0.1l0,1.5C90.2,51.5,89.9,51.5,89.6,51.6z"/>
		</g>
		<g>
			<circle fill="#E6E9EE" cx="90.6" cy="61.2" r="8.3"/>
		</g>
		<g>
			<circle fill="#FFFFFF" cx="90.6" cy="61.2" r="4.2"/>
			<path fill="#231F20" d="M90.6,66.2c-0.7,0-1.4-0.1-2-0.4c-1.2-0.5-2.1-1.5-2.6-2.7c-0.5-1.2-0.4-2.6,0.1-3.8
				c0.8-1.8,2.6-2.9,4.5-2.9c0.7,0,1.4,0.1,2,0.4c1.2,0.5,2.1,1.5,2.6,2.7c0.5,1.2,0.4,2.6-0.1,3.8C94.3,65,92.6,66.2,90.6,66.2z
				 M90.6,57.8c-1.3,0-2.6,0.8-3.1,2c-0.8,1.7,0,3.7,1.7,4.5c0.4,0.2,0.9,0.3,1.4,0.3c1.3,0,2.6-0.8,3.1-2c0.4-0.8,0.4-1.8,0.1-2.6
				c-0.3-0.9-1-1.5-1.8-1.9C91.6,57.9,91.1,57.8,90.6,57.8z"/>
		</g>
		<path fill="#231F20" d="M90.2,28.7L70,8.5c-0.1-0.1-0.3-0.2-0.5-0.2H37.8C37.4,8.3,37,8.6,37,9c0,0.4,0.3,0.8,0.8,0.8h31v19.4
			c0,0.4,0.3,0.8,0.8,0.8h19.4v9.5c0,0.4,0.3,0.8,0.8,0.8c0.4,0,0.8-0.3,0.8-0.8V29.2C90.4,29,90.3,28.8,90.2,28.7z M70.2,28.5V10.9
			l17.6,17.6H70.2z"/>
		<path fill="#231F20" d="M24.8,8.3H14.1c-0.4,0-0.8,0.3-0.8,0.8v4.6H8.7c-0.4,0-0.8,0.3-0.8,0.8v17.1c0,0.4,0.3,0.8,0.8,0.8
			c0.4,0,0.8-0.3,0.8-0.8V15.2h3.9v13.1c0,0.4,0.3,0.8,0.8,0.8s0.8-0.3,0.8-0.8V9.8h10c0.4,0,0.8-0.3,0.8-0.8
			C25.6,8.6,25.2,8.3,24.8,8.3z"/>
		<polygon fill="#FFFFFF" points="65.8,32.8 50.7,29.2 54.4,44.3 57.4,38.4 63.3,44.3 65.8,41.7 59.9,35.9 		"/>
		<path fill="#231F20" d="M54.4,45C54.3,45,54.3,45,54.4,45c-0.4,0-0.7-0.3-0.7-0.6L50,29.4c-0.1-0.3,0-0.5,0.2-0.7
			c0.2-0.2,0.5-0.3,0.7-0.2L66,32.1c0.3,0.1,0.5,0.3,0.6,0.6c0,0.3-0.1,0.6-0.4,0.8l-5,2.6l5.1,5.1c0.3,0.3,0.3,0.8,0,1.1l-2.5,2.5
			c-0.3,0.3-0.8,0.3-1.1,0l-5.1-5.1l-2.6,5C54.9,44.9,54.6,45,54.4,45z M57.4,37.6c0.2,0,0.4,0.1,0.5,0.2l5.3,5.3l1.5-1.5l-5.3-5.3
			c-0.2-0.2-0.2-0.4-0.2-0.6c0-0.2,0.2-0.4,0.4-0.6l4.1-2.1l-11.9-2.9l2.9,11.9l2.1-4.1c0.1-0.2,0.3-0.4,0.6-0.4
			C57.3,37.6,57.4,37.6,57.4,37.6z"/>
		<rect x="19.4" y="91.6" fill="#FFFFFF" width="8.1" height="28.1"/>
		<polygon fill="#FFFFFF" points="27.5,91.6 23.5,82.1 19.4,91.6 		"/>
		<path fill="#FFFFFF" d="M23.5,128.7L23.5,128.7c-2.2,0-4-1.8-4-4v-5h8.1v5C27.5,126.9,25.7,128.7,23.5,128.7z"/>
		<path fill="#231F20" d="M89.7,99.5c-0.4,0-0.8,0.3-0.8,0.8v3.4H28.3v-12c0-0.1,0-0.2-0.1-0.3l0,0l-4-9.5c-0.2-0.6-1.2-0.6-1.4,0
			l-4,9.5v0c0,0.1-0.1,0.2-0.1,0.3v12h-3.9V70.8c0-0.4-0.3-0.8-0.8-0.8s-0.8,0.3-0.8,0.8v33.6c0,0.4,0.3,0.8,0.8,0.8h4.6v3.9H9.5
			V65.2c0-0.4-0.3-0.8-0.8-0.8c-0.4,0-0.8,0.3-0.8,0.8v44.6c0,0.4,0.3,0.8,0.8,0.8h10v14.1c0,2.6,2.2,4.8,4.8,4.8
			c2.6,0,4.8-2.2,4.8-4.8v-14.1h56c0.4,0,0.8-0.3,0.8-0.8v-4.6h4.6c0.4,0,0.8-0.3,0.8-0.8v-4.1C90.4,99.8,90.1,99.5,89.7,99.5z
			 M23.5,84l2.9,6.8h-5.8L23.5,84z M20.2,92.4h2.5V119h-2.5V92.4z M26.8,124.7c0,1.8-1.5,3.3-3.3,3.3c-1.8,0-3.3-1.5-3.3-3.3v-4.2
			h6.6V124.7z M26.8,119h-2.5V92.4h2.5V119z M83.5,109H28.3v-3.9h55.2V109z"/>
		<circle fill="#FFFFFF" cx="111.4" cy="111.6" r="17.1"/>
		<g>
			<circle fill="#FF7058" cx="111.4" cy="111.6" r="4.7"/>
		</g>
		<path fill="#231F20" d="M111.4,93.7c-4.7,0-8.9,1.8-12.1,4.7l-4.2-4.2l0.8-5.4c0-0.2,0-0.5-0.2-0.6L89,81.6
			c-0.2-0.2-0.5-0.3-0.8-0.2c-0.3,0.1-0.5,0.3-0.5,0.6L87,87.2l-5.2,0.7c-0.3,0-0.5,0.2-0.6,0.5c-0.1,0.3,0,0.6,0.2,0.8l6.7,6.7
			c0.1,0.1,0.3,0.2,0.5,0.2c0,0,0.1,0,0.1,0l5.4-0.8l4.2,4.2c-2.9,3.2-4.7,7.4-4.7,12.1c0,9.9,8,17.9,17.9,17.9
			c9.9,0,17.9-8,17.9-17.9C129.3,101.8,121.3,93.7,111.4,93.7z M88.8,94.5l-5.3-5.3l3.9-0.6l5.3,5.3L88.8,94.5z M93.8,92.9l-5.3-5.3
			l0.6-3.9l5.3,5.3L93.8,92.9z M111.4,128c-9,0-16.4-7.3-16.4-16.4c0-4.2,1.6-8.1,4.3-11l2.1,2.1c-2.1,2.4-3.4,5.5-3.4,8.9
			c0,7.4,6,13.3,13.3,13.3c7.4,0,13.3-6,13.3-13.3c0-7.4-6-13.3-13.3-13.3c-3.4,0-6.5,1.3-8.9,3.4l-2.1-2.1c2.9-2.7,6.8-4.3,11-4.3
			c9,0,16.4,7.3,16.4,16.4C127.8,120.6,120.4,128,111.4,128z M104.6,105.9c-1.3,1.6-2.1,3.6-2.1,5.7c0,4.9,4,8.9,8.9,8.9
			c4.9,0,8.9-4,8.9-8.9c0-4.9-4-8.9-8.9-8.9c-2.2,0-4.2,0.8-5.7,2.1l-2.1-2.1c2.1-1.8,4.8-3,7.8-3c6.5,0,11.8,5.3,11.8,11.8
			c0,6.5-5.3,11.8-11.8,11.8c-6.5,0-11.8-5.3-11.8-11.8c0-3,1.1-5.7,3-7.8L104.6,105.9z M110.9,112.2c0.1,0.1,0.3,0.2,0.5,0.2
			c0.2,0,0.4-0.1,0.5-0.2c0.3-0.3,0.3-0.8,0-1.1l-5.2-5.2c1.3-1,2.9-1.7,4.7-1.7c4.1,0,7.4,3.3,7.4,7.4c0,4.1-3.3,7.4-7.4,7.4
			c-4.1,0-7.4-3.3-7.4-7.4c0-1.8,0.6-3.4,1.7-4.7L110.9,112.2z"/>
	</g>
</g>
</svg>
