<?xml version="1.0" encoding="utf-8"?>
<!-- Generator: Adobe Illustrator 18.0.0, SVG Export Plug-In . SVG Version: 6.00 Build 0)  -->
<!DOCTYPE svg PUBLIC "-//W3C//DTD SVG 1.1//EN" "http://www.w3.org/Graphics/SVG/1.1/DTD/svg11.dtd">
<svg version="1.1" id="Layer_1" xmlns="http://www.w3.org/2000/svg" xmlns:xlink="http://www.w3.org/1999/xlink" x="0px" y="0px"
	 viewBox="0 0 129.5 129.5" enable-background="new 0 0 129.5 129.5" xml:space="preserve">
<g>
	<g>
		<circle fill="#84DBFF" cx="66.8" cy="65.9" r="39.7"/>
		<rect x="66.1" y="3.2" fill="#231F20" width="1.5" height="6.9"/>
		<rect x="66.1" y="121.6" fill="#231F20" width="1.5" height="6.9"/>
		<rect x="33.8" y="13.8" transform="matrix(0.5 0.866 -0.866 0.5 31.2672 -24.9508)" fill="#231F20" width="6.9" height="1.5"/>
		<rect x="93" y="116.4" transform="matrix(0.5 0.866 -0.866 0.5 149.6526 -24.9522)" fill="#231F20" width="6.9" height="1.5"/>
		<rect x="12.1" y="35.5" transform="matrix(0.866 0.5 -0.5 0.866 20.2223 -2.9279)" fill="#231F20" width="6.9" height="1.5"/>
		<rect x="114.6" y="94.7" transform="matrix(0.866 0.5 -0.5 0.866 63.5485 -46.2594)" fill="#231F20" width="6.9" height="1.5"/>
		<rect x="4.2" y="65.1" fill="#231F20" width="6.9" height="1.5"/>
		<rect x="122.6" y="65.1" fill="#231F20" width="6.9" height="1.5"/>
		<rect x="14.8" y="92" transform="matrix(0.5001 0.866 -0.866 0.5001 90.4566 34.2383)" fill="#231F20" width="1.5" height="6.9"/>
		<rect x="117.3" y="32.8" transform="matrix(0.5 0.866 -0.866 0.5 90.4559 -84.1446)" fill="#231F20" width="1.5" height="6.9"/>
		
			<rect x="36.5" y="113.7" transform="matrix(0.866 0.5001 -0.5001 0.866 63.5643 -2.9259)" fill="#231F20" width="1.5" height="6.9"/>
		
			<rect x="95.7" y="11.1" transform="matrix(0.866 0.5001 -0.5001 0.866 20.2258 -46.2678)" fill="#231F20" width="1.5" height="6.9"/>
		<g>
			
				<rect x="54.5" y="5.1" transform="matrix(0.1736 0.9848 -0.9848 0.1736 52.2462 -50.5706)" fill="#231F20" width="3.4" height="1.5"/>
		</g>
		<g>
			
				<rect x="75.7" y="125.1" transform="matrix(0.1736 0.9848 -0.9848 0.1736 187.9549 27.7839)" fill="#231F20" width="3.4" height="1.5"/>
		</g>
		<g>
			
				<rect x="44.3" y="7.8" transform="matrix(0.342 0.9397 -0.9397 0.342 38.3385 -37.5644)" fill="#231F20" width="3.4" height="1.5"/>
		</g>
		<g>
			
				<rect x="86" y="122.4" transform="matrix(0.342 0.9397 -0.9397 0.342 173.4021 -1.376)" fill="#231F20" width="3.4" height="1.5"/>
		</g>
		<g>
			
				<rect x="34.7" y="12.3" transform="matrix(0.5001 0.866 -0.866 0.5001 29.5118 -24.9505)" fill="#231F20" width="3.4" height="1.5"/>
		</g>
		<g>
			
				<rect x="25.9" y="18.4" transform="matrix(0.6428 0.766 -0.766 0.6428 24.5713 -14.34)" fill="#231F20" width="3.4" height="1.5"/>
		</g>
		<g>
			
				<rect x="104.3" y="111.8" transform="matrix(0.6428 0.766 -0.766 0.6428 124.0834 -41.0071)" fill="#231F20" width="3.4" height="1.5"/>
		</g>
		<g>
			
				<rect x="18.4" y="25.9" transform="matrix(0.766 0.6428 -0.6428 0.766 21.8724 -6.7082)" fill="#231F20" width="3.4" height="1.5"/>
		</g>
		<g>
			
				<rect x="111.8" y="104.3" transform="matrix(0.766 0.6428 -0.6428 0.766 94.088 -48.3993)" fill="#231F20" width="3.4" height="1.5"/>
		</g>
		<g>
			
				<rect x="7.9" y="44.3" transform="matrix(0.9397 0.342 -0.342 0.9397 15.9765 -0.557)" fill="#231F20" width="3.4" height="1.5"/>
		</g>
		<g>
			
				<rect x="122.4" y="86" transform="matrix(0.9397 0.342 -0.342 0.9397 37.143 -37.2197)" fill="#231F20" width="3.4" height="1.5"/>
		</g>
		<g>
			
				<rect x="5.1" y="54.5" transform="matrix(0.9848 0.1736 -0.1736 0.9848 9.7007 -0.3442)" fill="#231F20" width="3.4" height="1.5"/>
		</g>
		<g>
			
				<rect x="125.1" y="75.7" transform="matrix(0.9848 0.1736 -0.1736 0.9848 15.1985 -20.8628)" fill="#231F20" width="3.4" height="1.5"/>
		</g>
		<g>
			
				<rect x="6.1" y="74.7" transform="matrix(0.1738 0.9848 -0.9848 0.1738 80.9198 56.4514)" fill="#231F20" width="1.5" height="3.4"/>
		</g>
		<g>
			
				<rect x="126.1" y="53.6" transform="matrix(0.1738 0.9848 -0.9848 0.1738 159.2582 -79.2528)" fill="#231F20" width="1.5" height="3.4"/>
		</g>
		<g>
			
				<rect x="8.8" y="85" transform="matrix(0.3419 0.9397 -0.9397 0.3419 87.7813 48.0721)" fill="#231F20" width="1.5" height="3.4"/>
		</g>
		<g>
			
				<rect x="123.4" y="43.3" transform="matrix(0.3419 0.9397 -0.9397 0.3419 123.9853 -87.0021)" fill="#231F20" width="1.5" height="3.4"/>
		</g>
		<g>
			
				<rect x="19.4" y="103.3" transform="matrix(0.6426 0.7662 -0.7662 0.6426 87.6889 22.1054)" fill="#231F20" width="1.5" height="3.4"/>
		</g>
		<g>
			
				<rect x="112.8" y="25" transform="matrix(0.6425 0.7663 -0.7663 0.6425 61.0343 -77.4501)" fill="#231F20" width="1.5" height="3.4"/>
		</g>
		<g>
			
				<rect x="26.9" y="110.8" transform="matrix(0.7662 0.6426 -0.6426 0.7662 78.7906 8.5367)" fill="#231F20" width="1.5" height="3.4"/>
		</g>
		<g>
			
				<rect x="105.3" y="17.5" transform="matrix(0.7662 0.6426 -0.6426 0.7662 37.1066 -63.6383)" fill="#231F20" width="1.5" height="3.4"/>
		</g>
		<g>
			
				<rect x="45.2" y="121.4" transform="matrix(0.9397 0.3419 -0.3419 0.9397 44.8723 -8.3046)" fill="#231F20" width="1.5" height="3.4"/>
		</g>
		<g>
			
				<rect x="86.9" y="6.9" transform="matrix(0.9397 0.3419 -0.3419 0.9397 8.2227 -29.4609)" fill="#231F20" width="1.5" height="3.4"/>
		</g>
		<g>
			
				<rect x="55.5" y="124.2" transform="matrix(0.9848 0.1738 -0.1738 0.9848 22.7375 -7.8619)" fill="#231F20" width="1.5" height="3.4"/>
		</g>
		<g>
			
				<rect x="76.7" y="4.1" transform="matrix(0.9848 0.1738 -0.1738 0.9848 2.1946 -13.3682)" fill="#231F20" width="1.5" height="3.4"/>
		</g>
		<path fill="#FFFFFF" d="M117.8,65.9c-28.2-35.2-73.8-35.2-102,0l0,0l0,0C44,101,89.7,101,117.8,65.9L117.8,65.9L117.8,65.9z"/>
		<g>
			<path fill="#231F20" d="M41,30.2L40.1,29c-0.3,0.2-0.6,0.4-0.8,0.6l0.9,1.2C40.5,30.6,40.7,30.4,41,30.2z"/>
			<path fill="#231F20" d="M46,27l-0.7-1.3c-0.3,0.2-0.6,0.3-0.9,0.5l0.7,1.3C45.5,27.3,45.8,27.2,46,27z"/>
			<path fill="#231F20" d="M43.5,28.5l-0.8-1.3c-0.3,0.2-0.6,0.4-0.9,0.6l0.8,1.3C42.9,28.9,43.2,28.7,43.5,28.5z"/>
			<path fill="#231F20" d="M48.7,25.7l-0.6-1.4c-0.3,0.1-0.6,0.3-0.9,0.4l0.7,1.4C48.1,26,48.4,25.8,48.7,25.7z"/>
			<path fill="#231F20" d="M63.1,22l-0.1-1.5c-0.3,0-0.7,0.1-1,0.1l0.2,1.5C62.4,22,62.7,22,63.1,22z"/>
			<path fill="#231F20" d="M60.1,22.3l-0.2-1.5c-0.3,0.1-0.7,0.1-1,0.2l0.3,1.5C59.5,22.4,59.8,22.4,60.1,22.3z"/>
			<path fill="#231F20" d="M54.3,23.6l-0.4-1.5c-0.3,0.1-0.7,0.2-1,0.3l0.5,1.4C53.7,23.8,54,23.7,54.3,23.6z"/>
			<path fill="#231F20" d="M51.5,24.6l-0.5-1.4c-0.3,0.1-0.6,0.2-1,0.4l0.6,1.4C50.8,24.8,51.2,24.7,51.5,24.6z"/>
			<path fill="#231F20" d="M57.2,22.9l-0.3-1.5c-0.3,0.1-0.7,0.2-1,0.2l0.4,1.5C56.5,23,56.9,22.9,57.2,22.9z"/>
			<path fill="#231F20" d="M27.6,45.9l-1.4-0.7c-0.2,0.3-0.3,0.6-0.5,0.9l1.4,0.7C27.3,46.5,27.4,46.2,27.6,45.9z"/>
			<path fill="#231F20" d="M26.3,48.6L24.9,48c-0.1,0.3-0.3,0.6-0.4,1l1.4,0.6C26,49.2,26.2,48.9,26.3,48.6z"/>
			<path fill="#231F20" d="M25.2,51.4l-1.4-0.5c-0.1,0.3-0.2,0.7-0.3,1l1.4,0.5C25,52,25.1,51.7,25.2,51.4z"/>
			<path fill="#231F20" d="M24.3,54.3l-1.5-0.4c-0.1,0.3-0.2,0.7-0.3,1l1.5,0.4C24.2,54.9,24.2,54.6,24.3,54.3z"/>
			<path fill="#231F20" d="M32.4,38.4l-1.2-0.9c-0.2,0.3-0.4,0.5-0.6,0.8l1.2,0.9C32,38.9,32.2,38.7,32.4,38.4z"/>
			<path fill="#231F20" d="M34.3,36.1l-1.1-1c-0.2,0.3-0.5,0.5-0.7,0.8l1.1,1C33.9,36.6,34.1,36.4,34.3,36.1z"/>
			<path fill="#231F20" d="M36.4,34l-1-1.1c-0.2,0.2-0.5,0.5-0.7,0.7l1.1,1.1C35.9,34.5,36.2,34.2,36.4,34z"/>
			<path fill="#231F20" d="M30.6,40.8l-1.2-0.9c-0.2,0.3-0.4,0.6-0.6,0.9l1.3,0.8C30.2,41.3,30.4,41.1,30.6,40.8z"/>
			<path fill="#231F20" d="M29,43.3l-1.3-0.8c-0.2,0.3-0.3,0.6-0.5,0.9l1.3,0.7C28.7,43.9,28.8,43.6,29,43.3z"/>
			<path fill="#231F20" d="M38.6,32l-1-1.2c-0.3,0.2-0.5,0.4-0.8,0.7l1,1.1C38.1,32.4,38.4,32.2,38.6,32z"/>
			<path fill="#231F20" d="M103.9,42l1.3-0.8c-0.2-0.3-0.4-0.6-0.6-0.9l-1.3,0.9C103.5,41.4,103.7,41.7,103.9,42z"/>
			<path fill="#231F20" d="M103.4,38.6c-0.2-0.3-0.4-0.5-0.6-0.8l-1.2,0.9c0.2,0.3,0.4,0.5,0.6,0.8L103.4,38.6z"/>
			<path fill="#231F20" d="M97.1,31.8c-0.3-0.2-0.5-0.5-0.8-0.7l-1,1.2c0.3,0.2,0.5,0.4,0.8,0.7L97.1,31.8z"/>
			<path fill="#231F20" d="M99.4,34c-0.2-0.2-0.5-0.5-0.7-0.7l-1.1,1.1c0.2,0.2,0.5,0.5,0.7,0.7L99.4,34z"/>
			<path fill="#231F20" d="M105.4,44.6l1.3-0.7c-0.2-0.3-0.3-0.6-0.5-0.9l-1.3,0.8C105.1,44,105.2,44.3,105.4,44.6z"/>
			<path fill="#231F20" d="M101.5,36.2c-0.2-0.3-0.4-0.5-0.7-0.8l-1.1,1c0.2,0.2,0.4,0.5,0.7,0.7L101.5,36.2z"/>
			<path fill="#231F20" d="M106.8,47.2l1.4-0.6c-0.1-0.3-0.3-0.6-0.4-0.9l-1.4,0.7C106.5,46.6,106.6,46.9,106.8,47.2z"/>
			<path fill="#231F20" d="M109.7,55.6l1.5-0.3c-0.1-0.3-0.2-0.7-0.2-1l-1.5,0.4C109.5,55,109.6,55.3,109.7,55.6z"/>
			<path fill="#231F20" d="M66,21.8l0-1.5c-0.3,0-0.7,0-1,0l0.1,1.5C65.4,21.8,65.7,21.8,66,21.8z"/>
			<path fill="#231F20" d="M107.9,49.9l1.4-0.5c-0.1-0.3-0.3-0.6-0.4-1l-1.4,0.6C107.7,49.3,107.8,49.6,107.9,49.9z"/>
			<path fill="#231F20" d="M108.9,52.8l1.4-0.5c-0.1-0.3-0.2-0.7-0.3-1l-1.4,0.5C108.7,52.1,108.8,52.4,108.9,52.8z"/>
			<path fill="#231F20" d="M72.2,20.6c-0.3,0-0.7-0.1-1-0.1L71,22c0.3,0,0.7,0.1,1,0.1L72.2,20.6z"/>
			<path fill="#231F20" d="M75.2,21.1c-0.3-0.1-0.7-0.1-1-0.2L74,22.4c0.3,0.1,0.7,0.1,1,0.2L75.2,21.1z"/>
			<path fill="#231F20" d="M69.1,20.4c-0.3,0-0.7,0-1,0l0,1.5c0.3,0,0.7,0,1,0L69.1,20.4z"/>
			<path fill="#231F20" d="M78.2,21.7c-0.3-0.1-0.7-0.2-1-0.2L76.9,23c0.3,0.1,0.6,0.2,1,0.2L78.2,21.7z"/>
			<path fill="#231F20" d="M89.7,26.4c-0.3-0.2-0.6-0.3-0.9-0.5L88,27.2c0.3,0.2,0.6,0.3,0.9,0.5L89.7,26.4z"/>
			<path fill="#231F20" d="M94.8,29.9c-0.3-0.2-0.5-0.4-0.8-0.6L93,30.5c0.3,0.2,0.5,0.4,0.8,0.6L94.8,29.9z"/>
			<path fill="#231F20" d="M84.1,23.7c-0.3-0.1-0.6-0.3-1-0.4l-0.5,1.4c0.3,0.1,0.6,0.2,0.9,0.4L84.1,23.7z"/>
			<path fill="#231F20" d="M92.3,28c-0.3-0.2-0.6-0.4-0.9-0.6l-0.8,1.3c0.3,0.2,0.6,0.4,0.8,0.5L92.3,28z"/>
			<path fill="#231F20" d="M86.9,25c-0.3-0.2-0.6-0.3-0.9-0.4l-0.6,1.4c0.3,0.1,0.6,0.3,0.9,0.4L86.9,25z"/>
			<path fill="#231F20" d="M81.2,22.6c-0.3-0.1-0.7-0.2-1-0.3l-0.4,1.5c0.3,0.1,0.6,0.2,1,0.3L81.2,22.6z"/>
			<path fill="#231F20" d="M89.2,103.8l0.8,1.3c0.3-0.2,0.6-0.4,0.9-0.5l-0.8-1.3C89.8,103.5,89.5,103.7,89.2,103.8z"/>
			<path fill="#231F20" d="M86.6,105.3l0.7,1.4c0.3-0.2,0.6-0.3,0.9-0.5l-0.7-1.3C87.2,105,86.9,105.1,86.6,105.3z"/>
			<path fill="#231F20" d="M83.9,106.5l0.6,1.4c0.3-0.1,0.6-0.3,0.9-0.4l-0.6-1.4C84.5,106.2,84.2,106.4,83.9,106.5z"/>
			<path fill="#231F20" d="M91.7,102.2l0.9,1.3c0.3-0.2,0.6-0.4,0.8-0.6l-0.9-1.2C92.2,101.9,92,102,91.7,102.2z"/>
			<path fill="#231F20" d="M75.3,109.1l0.3,1.5c0.3-0.1,0.7-0.1,1-0.2l-0.3-1.5C76,109,75.7,109,75.3,109.1z"/>
			<path fill="#231F20" d="M72.4,109.6l0.2,1.5c0.3,0,0.7-0.1,1-0.1l-0.2-1.5C73,109.5,72.7,109.5,72.4,109.6z"/>
			<path fill="#231F20" d="M94.1,100.5l0.9,1.2c0.3-0.2,0.5-0.4,0.8-0.6l-1-1.2C94.6,100.1,94.4,100.3,94.1,100.5z"/>
			<path fill="#231F20" d="M69.4,109.8l0.1,1.5c0.3,0,0.7,0,1-0.1l-0.1-1.5C70.1,109.8,69.8,109.8,69.4,109.8z"/>
			<path fill="#231F20" d="M24.4,77.8L23,78.3c0.1,0.3,0.2,0.7,0.3,1l1.5-0.4C24.6,78.5,24.5,78.2,24.4,77.8z"/>
			<path fill="#231F20" d="M78.2,108.4l0.4,1.5c0.3-0.1,0.7-0.2,1-0.3l-0.4-1.5C78.9,108.3,78.6,108.3,78.2,108.4z"/>
			<path fill="#231F20" d="M108.1,81.4l1.4,0.5c0.1-0.3,0.2-0.6,0.4-1l-1.4-0.5C108.3,80.8,108.2,81.1,108.1,81.4z"/>
			<path fill="#231F20" d="M106.9,84.2l1.4,0.6c0.1-0.3,0.3-0.6,0.4-0.9l-1.4-0.6C107.2,83.6,107,83.9,106.9,84.2z"/>
			<path fill="#231F20" d="M105.6,86.9l1.3,0.7c0.2-0.3,0.3-0.6,0.5-0.9L106,86C105.9,86.3,105.7,86.6,105.6,86.9z"/>
			<path fill="#231F20" d="M109,78.6l1.5,0.4c0.1-0.3,0.2-0.7,0.3-1l-1.5-0.4C109.2,78,109.1,78.3,109,78.6z"/>
			<path fill="#231F20" d="M98.5,96.5l1.1,1.1c0.2-0.2,0.5-0.5,0.7-0.7l-1.1-1C99,96,98.8,96.2,98.5,96.5z"/>
			<path fill="#231F20" d="M100.5,94.3l1.2,1c0.2-0.3,0.4-0.5,0.7-0.8l-1.2-1C100.9,93.7,100.7,94,100.5,94.3z"/>
			<path fill="#231F20" d="M96.4,98.5l1,1.1c0.3-0.2,0.5-0.5,0.8-0.7l-1-1.1C96.9,98.1,96.6,98.3,96.4,98.5z"/>
			<path fill="#231F20" d="M102.4,91.9l1.2,0.9c0.2-0.3,0.4-0.6,0.6-0.8l-1.2-0.9C102.8,91.4,102.6,91.6,102.4,91.9z"/>
			<path fill="#231F20" d="M104.1,89.4l1.3,0.8c0.2-0.3,0.4-0.6,0.5-0.9l-1.3-0.8C104.4,88.9,104.2,89.2,104.1,89.4z"/>
			<path fill="#231F20" d="M81.1,107.6l0.5,1.4c0.3-0.1,0.6-0.2,1-0.3l-0.5-1.4C81.7,107.3,81.4,107.5,81.1,107.6z"/>
			<path fill="#231F20" d="M31.4,94.6c0.2,0.3,0.4,0.5,0.7,0.8l1.2-1c-0.2-0.3-0.4-0.5-0.6-0.8L31.4,94.6z"/>
			<path fill="#231F20" d="M33.5,96.9c0.2,0.3,0.5,0.5,0.7,0.7l1.1-1.1c-0.2-0.2-0.5-0.5-0.7-0.7L33.5,96.9z"/>
			<polygon fill="#231F20" points="66.8,109.9 66.4,109.9 66.4,111.4 66.8,111.4 67.5,111.4 67.4,109.9 			"/>
			<path fill="#231F20" d="M35.6,99.1c0.2,0.2,0.5,0.5,0.8,0.7l1-1.1c-0.2-0.2-0.5-0.4-0.7-0.7L35.6,99.1z"/>
			<path fill="#231F20" d="M29.2,88.7l-1.3,0.8c0.2,0.3,0.4,0.6,0.5,0.9l1.3-0.8C29.5,89.3,29.4,89,29.2,88.7z"/>
			<path fill="#231F20" d="M37.9,101.1c0.3,0.2,0.5,0.4,0.8,0.6l0.9-1.2c-0.3-0.2-0.5-0.4-0.8-0.6L37.9,101.1z"/>
			<path fill="#231F20" d="M26.4,83.5L25,84.1c0.1,0.3,0.3,0.6,0.4,0.9l1.4-0.6C26.7,84.1,26.6,83.8,26.4,83.5z"/>
			<path fill="#231F20" d="M25.3,80.7l-1.4,0.5c0.1,0.3,0.2,0.6,0.4,1l1.4-0.5C25.6,81.3,25.5,81,25.3,80.7z"/>
			<path fill="#231F20" d="M27.7,86.1l-1.3,0.7c0.2,0.3,0.3,0.6,0.5,0.9l1.3-0.7C28,86.7,27.9,86.4,27.7,86.1z"/>
			<path fill="#231F20" d="M29.6,92.1c0.2,0.3,0.4,0.6,0.6,0.8l1.2-0.9c-0.2-0.3-0.4-0.5-0.6-0.8L29.6,92.1z"/>
			<path fill="#231F20" d="M57.2,110.4c0.3,0.1,0.7,0.1,1,0.2l0.3-1.5c-0.3-0.1-0.7-0.1-1-0.2L57.2,110.4z"/>
			<path fill="#231F20" d="M54.2,109.7c0.3,0.1,0.7,0.2,1,0.3l0.4-1.5c-0.3-0.1-0.6-0.2-1-0.3L54.2,109.7z"/>
			<path fill="#231F20" d="M60.3,111c0.3,0,0.7,0.1,1,0.1l0.2-1.5c-0.3,0-0.7-0.1-1-0.1L60.3,111z"/>
			<path fill="#231F20" d="M63.3,111.3c0.3,0,0.7,0,1,0.1l0.1-1.5c-0.3,0-0.7,0-1-0.1L63.3,111.3z"/>
			<path fill="#231F20" d="M51.3,108.7c0.3,0.1,0.6,0.2,1,0.3l0.5-1.4c-0.3-0.1-0.6-0.2-0.9-0.3L51.3,108.7z"/>
			<path fill="#231F20" d="M45.7,106.2c0.3,0.2,0.6,0.3,0.9,0.5l0.7-1.4c-0.3-0.1-0.6-0.3-0.9-0.5L45.7,106.2z"/>
			<path fill="#231F20" d="M43,104.7c0.3,0.2,0.6,0.4,0.9,0.5l0.8-1.3c-0.3-0.2-0.6-0.3-0.9-0.5L43,104.7z"/>
			<path fill="#231F20" d="M48.4,107.6c0.3,0.1,0.6,0.3,0.9,0.4l0.6-1.4c-0.3-0.1-0.6-0.3-0.9-0.4L48.4,107.6z"/>
			<path fill="#231F20" d="M40.4,103c0.3,0.2,0.6,0.4,0.8,0.6l0.9-1.3c-0.3-0.2-0.5-0.4-0.8-0.6L40.4,103z"/>
			<path fill="#231F20" d="M118.8,65.9l-0.2-0.3c-0.1-28.4-23.3-51.5-51.7-51.5c-28.4,0-51.6,23.1-51.7,51.5l-0.2,0.3l0.2,0.3
				c0.1,28.4,23.3,51.5,51.7,51.5c28.4,0,51.6-23.1,51.7-51.5L118.8,65.9z M66.8,15.6c27,0,49,21.4,50.2,48.1
				c-13.6-16.1-31.3-25-50.2-25C50.8,38.7,35.5,45.2,23,57l-0.8-0.2c-0.1,0.3-0.1,0.7-0.2,1l0.1,0c-1.9,1.8-3.7,3.8-5.4,5.8
				C17.8,37,39.9,15.6,66.8,15.6z M66.8,40.3c18.8,0,36.6,9.1,50,25.6c-13.4,16.5-31.2,25.6-50,25.6c0,0,0,0,0,0
				c-18.8,0-36.6-9.1-50-25.6C30.3,49.3,48,40.3,66.8,40.3z M66.8,116.1c-27,0-49-21.4-50.2-48.1c2.1,2.5,4.3,4.9,6.6,7l-1.1,0.2
				c0.1,0.3,0.1,0.7,0.2,1l1.5-0.3c0-0.1-0.1-0.3-0.1-0.4C36.3,86.9,51.2,93,66.8,93c0,0,0,0,0,0c15.7,0,30.6-6.1,43-17.5
				c0,0.1,0,0.1,0,0.2l1.5,0.3c0.1-0.3,0.1-0.7,0.2-1l-0.9-0.2c2.2-2.1,4.4-4.4,6.5-6.9C115.9,94.7,93.8,116.1,66.8,116.1z"/>
		</g>
		<circle fill="#84DBFF" cx="66.8" cy="65.9" r="7.9"/>
		<circle fill="#54C0EB" cx="66.8" cy="65.9" r="5.8"/>
		<circle fill="#324A5E" cx="66.8" cy="65.9" r="5.2"/>
		<circle fill="#FFFFFF" cx="63.1" cy="62.3" r="2.8"/>
		<circle fill="#FFFFFF" cx="69.1" cy="68.3" r="0.9"/>
		<path fill="#E6E9EE" d="M83.6,68.5v-5.3l-4.2-0.7c-0.3-1.1-0.7-2.1-1.3-3.1l2.4-3.5l-3.8-3.8l-3.5,2.4c-1-0.6-2-1-3.1-1.3
			l-0.7-4.2h-5.3l-0.7,4.2c-1.1,0.3-2.2,0.7-3.1,1.3l-3.5-2.4l-3.8,3.8l2.4,3.5c-0.6,1-1,2-1.3,3.1l-4.2,0.7v5.3l4.2,0.7
			c0.3,1.1,0.7,2.1,1.3,3.1l-2.4,3.5l3.8,3.8l3.5-2.4c1,0.6,2,1,3.1,1.3l0.7,4.2h5.3l0.7-4.2c1.1-0.3,2.2-0.7,3.1-1.3l3.5,2.4
			l3.8-3.8l-2.4-3.5c0.6-1,1-2,1.3-3.1L83.6,68.5z M66.8,76.1c-2.8,0-5.4-1.1-7.2-3c-1.9-1.9-3-4.4-3-7.2c0-5.7,4.6-10.2,10.2-10.2
			c2.8,0,5.4,1.1,7.2,3c1.9,1.9,3,4.4,3,7.2C77.1,71.5,72.5,76.1,66.8,76.1z"/>
		<path fill="#231F20" d="M122.5,7.6c-0.2,0-0.4-0.1-0.5-0.2c-0.3-0.3-0.3-0.8,0-1.1l1.3-1.3c0.3-0.3,0.8-0.3,1.1,0
			c0.3,0.3,0.3,0.8,0,1.1l-1.3,1.3C122.9,7.5,122.7,7.6,122.5,7.6z"/>
		<path fill="#231F20" d="M118.3,11.8c-0.2,0-0.4-0.1-0.5-0.2c-0.3-0.3-0.3-0.8,0-1.1l1.3-1.3c0.3-0.3,0.8-0.3,1.1,0s0.3,0.8,0,1.1
			l-1.3,1.3C118.7,11.7,118.5,11.8,118.3,11.8z"/>
		<path fill="#231F20" d="M123.9,11.8c-0.2,0-0.4-0.1-0.5-0.2l-1.3-1.3c-0.3-0.3-0.3-0.8,0-1.1c0.3-0.3,0.8-0.3,1.1,0l1.3,1.3
			c0.3,0.3,0.3,0.8,0,1.1C124.3,11.7,124.1,11.8,123.9,11.8z"/>
		<path fill="#231F20" d="M119.7,7.6c-0.2,0-0.4-0.1-0.5-0.2L117.8,6c-0.3-0.3-0.3-0.8,0-1.1c0.3-0.3,0.8-0.3,1.1,0l1.3,1.3
			c0.3,0.3,0.3,0.8,0,1.1C120.1,7.5,119.9,7.6,119.7,7.6z"/>
		<path fill="#231F20" d="M12.6,11.8c-0.2,0-0.4-0.1-0.5-0.2c-0.3-0.3-0.3-0.8,0-1.1l1.3-1.3c0.3-0.3,0.8-0.3,1.1,0s0.3,0.8,0,1.1
			l-1.3,1.3C13,11.7,12.8,11.8,12.6,11.8z"/>
		<path fill="#231F20" d="M8.4,16c-0.2,0-0.4-0.1-0.5-0.2c-0.3-0.3-0.3-0.8,0-1.1l1.3-1.3c0.3-0.3,0.8-0.3,1.1,0s0.3,0.8,0,1.1
			l-1.3,1.3C8.8,15.9,8.6,16,8.4,16z"/>
		<path fill="#231F20" d="M14,16c-0.2,0-0.4-0.1-0.5-0.2l-1.3-1.3c-0.3-0.3-0.3-0.8,0-1.1c0.3-0.3,0.8-0.3,1.1,0l1.3,1.3
			c0.3,0.3,0.3,0.8,0,1.1C14.3,15.9,14.1,16,14,16z"/>
		<path fill="#231F20" d="M9.7,11.8c-0.2,0-0.4-0.1-0.5-0.2l-1.3-1.3c-0.3-0.3-0.3-0.8,0-1.1c0.3-0.3,0.8-0.3,1.1,0l1.3,1.3
			c0.3,0.3,0.3,0.8,0,1.1C10.1,11.7,9.9,11.8,9.7,11.8z"/>
		<path fill="#231F20" d="M12.6,120.5c-0.2,0-0.4-0.1-0.5-0.2c-0.3-0.3-0.3-0.8,0-1.1l1.3-1.3c0.3-0.3,0.8-0.3,1.1,0
			c0.3,0.3,0.3,0.8,0,1.1l-1.3,1.3C13,120.4,12.8,120.5,12.6,120.5z"/>
		<path fill="#231F20" d="M8.4,124.7c-0.2,0-0.4-0.1-0.5-0.2c-0.3-0.3-0.3-0.8,0-1.1l1.3-1.3c0.3-0.3,0.8-0.3,1.1,0
			c0.3,0.3,0.3,0.8,0,1.1l-1.3,1.3C8.8,124.6,8.6,124.7,8.4,124.7z"/>
		<path fill="#231F20" d="M14,124.7c-0.2,0-0.4-0.1-0.5-0.2l-1.3-1.3c-0.3-0.3-0.3-0.8,0-1.1c0.3-0.3,0.8-0.3,1.1,0l1.3,1.3
			c0.3,0.3,0.3,0.8,0,1.1C14.3,124.6,14.1,124.7,14,124.7z"/>
		<path fill="#231F20" d="M9.7,120.5c-0.2,0-0.4-0.1-0.5-0.2l-1.3-1.3c-0.3-0.3-0.3-0.8,0-1.1c0.3-0.3,0.8-0.3,1.1,0l1.3,1.3
			c0.3,0.3,0.3,0.8,0,1.1C10.1,120.4,9.9,120.5,9.7,120.5z"/>
		<circle fill="#FFD05B" cx="104.9" cy="3.2" r="2.2"/>
		<circle fill="#FFD05B" cx="2.2" cy="34.5" r="2.2"/>
		<circle fill="#FFD05B" cx="119.6" cy="123.9" r="2.2"/>
		<path fill="#231F20" d="M66.8,88.1c-12.2,0-22.2-10-22.2-22.2c0-12.2,10-22.2,22.2-22.2c12.2,0,22.2,10,22.2,22.2
			C89,78.1,79.1,88.1,66.8,88.1z M66.8,45.2c-11.4,0-20.7,9.3-20.7,20.7c0,11.4,9.3,20.7,20.7,20.7s20.7-9.3,20.7-20.7
			C87.5,54.5,78.2,45.2,66.8,45.2z"/>
	</g>
</g>
</svg>
