<?xml version="1.0" encoding="utf-8"?>
<!-- Generator: Adobe Illustrator 18.0.0, SVG Export Plug-In . SVG Version: 6.00 Build 0)  -->
<!DOCTYPE svg PUBLIC "-//W3C//DTD SVG 1.1//EN" "http://www.w3.org/Graphics/SVG/1.1/DTD/svg11.dtd">
<svg version="1.1" id="Layer_1" xmlns="http://www.w3.org/2000/svg" xmlns:xlink="http://www.w3.org/1999/xlink" x="0px" y="0px"
	 viewBox="0 0 129.5 129.5" enable-background="new 0 0 129.5 129.5" xml:space="preserve">
<g>
	<g>
		<g>
			<path fill="#231F20" d="M107.5,2.8c-0.2,0-0.4-0.1-0.5-0.2c-0.3-0.3-0.3-0.8,0-1.1l1.3-1.3c0.3-0.3,0.8-0.3,1.1,0
				c0.3,0.3,0.3,0.8,0,1.1L108,2.6C107.9,2.8,107.7,2.8,107.5,2.8z"/>
		</g>
		<g>
			<path fill="#231F20" d="M103.5,6.9c-0.2,0-0.4-0.1-0.5-0.2c-0.3-0.3-0.3-0.8,0-1.1l1.3-1.3c0.3-0.3,0.8-0.3,1.1,0
				c0.3,0.3,0.3,0.8,0,1.1L104,6.7C103.9,6.8,103.7,6.9,103.5,6.9z"/>
		</g>
		<g>
			<path fill="#231F20" d="M108.8,6.9c-0.2,0-0.4-0.1-0.5-0.2L107,5.4c-0.3-0.3-0.3-0.8,0-1.1c0.3-0.3,0.8-0.3,1.1,0l1.3,1.3
				c0.3,0.3,0.3,0.8,0,1.1C109.2,6.8,109,6.9,108.8,6.9z"/>
		</g>
		<g>
			<path fill="#231F20" d="M104.8,2.8c-0.2,0-0.4-0.1-0.5-0.2L103,1.3c-0.3-0.3-0.3-0.8,0-1.1c0.3-0.3,0.8-0.3,1.1,0l1.3,1.3
				c0.3,0.3,0.3,0.8,0,1.1C105.2,2.8,105,2.8,104.8,2.8z"/>
		</g>
		<g>
			<path fill="#231F20" d="M4.8,51.2c-0.2,0-0.4-0.1-0.5-0.2c-0.3-0.3-0.3-0.8,0-1.1l1.3-1.3c0.3-0.3,0.8-0.3,1.1,0
				c0.3,0.3,0.3,0.8,0,1.1L5.3,51C5.2,51.1,5,51.2,4.8,51.2z"/>
		</g>
		<g>
			<path fill="#231F20" d="M0.7,55.3c-0.2,0-0.4-0.1-0.5-0.2c-0.3-0.3-0.3-0.8,0-1.1l1.3-1.3c0.3-0.3,0.8-0.3,1.1,0
				c0.3,0.3,0.3,0.8,0,1.1L1.3,55C1.1,55.2,0.9,55.3,0.7,55.3z"/>
		</g>
		<g>
			<path fill="#231F20" d="M6.1,55.3c-0.2,0-0.4-0.1-0.5-0.2l-1.3-1.3C4,53.5,4,53,4.2,52.7c0.3-0.3,0.8-0.3,1.1,0L6.6,54
				c0.3,0.3,0.3,0.8,0,1.1C6.4,55.2,6.3,55.3,6.1,55.3z"/>
		</g>
		<g>
			<path fill="#231F20" d="M2,51.2c-0.2,0-0.4-0.1-0.5-0.2l-1.3-1.3c-0.3-0.3-0.3-0.8,0-1.1c0.3-0.3,0.8-0.3,1.1,0l1.3,1.3
				c0.3,0.3,0.3,0.8,0,1.1C2.4,51.1,2.2,51.2,2,51.2z"/>
		</g>
		<g>
			<path fill="#231F20" d="M127.5,88.5c-0.2,0-0.4-0.1-0.5-0.2c-0.3-0.3-0.3-0.8,0-1.1l1.3-1.3c0.3-0.3,0.8-0.3,1.1,0
				c0.3,0.3,0.3,0.8,0,1.1l-1.3,1.3C127.8,88.4,127.7,88.5,127.5,88.5z"/>
		</g>
		<g>
			<path fill="#231F20" d="M123.4,92.5c-0.2,0-0.4-0.1-0.5-0.2c-0.3-0.3-0.3-0.8,0-1.1l1.3-1.3c0.3-0.3,0.8-0.3,1.1,0
				c0.3,0.3,0.3,0.8,0,1.1l-1.3,1.3C123.8,92.4,123.6,92.5,123.4,92.5z"/>
		</g>
		<g>
			<path fill="#231F20" d="M128.7,92.5c-0.2,0-0.4-0.1-0.5-0.2l-1.3-1.3c-0.3-0.3-0.3-0.8,0-1.1c0.3-0.3,0.8-0.3,1.1,0l1.3,1.3
				c0.3,0.3,0.3,0.8,0,1.1C129.1,92.4,128.9,92.5,128.7,92.5z"/>
		</g>
		<g>
			<path fill="#231F20" d="M124.7,88.5c-0.2,0-0.4-0.1-0.5-0.2l-1.3-1.3c-0.3-0.3-0.3-0.8,0-1.1c0.3-0.3,0.8-0.3,1.1,0l1.3,1.3
				c0.3,0.3,0.3,0.8,0,1.1C125.1,88.4,124.9,88.5,124.7,88.5z"/>
		</g>
		<g>
			<rect x="16.6" y="21.6" fill="#FFD05B" width="96.2" height="8.3"/>
		</g>
		<g>
			<polygon fill="#FFD05B" points="16.6,17.6 16.6,11.8 36.7,11.8 41.3,17.6 			"/>
		</g>
		<g>
			<polygon fill="#E6E9EE" points="3.2,126.7 3.2,110.3 8.6,110.3 10.7,112.9 26.1,112.9 26.1,126.7 			"/>
		</g>
		<g>
			<polygon fill="#84DBFF" points="53.3,126.7 53.3,110.3 58.7,110.3 60.8,112.9 76.2,112.9 76.2,126.7 			"/>
		</g>
		<g>
			<polygon fill="#FF7058" points="103.4,126.7 103.4,110.3 108.9,110.3 110.9,112.9 126.3,112.9 126.3,126.7 			"/>
		</g>
		<g>
			<path fill="#231F20" d="M107.3,55.4h-8.1c-0.4,0-0.8-0.3-0.8-0.8c0-0.4,0.3-0.8,0.8-0.8h8.1c0.4,0,0.8,0.3,0.8,0.8
				C108,55.1,107.7,55.4,107.3,55.4z"/>
		</g>
		<g>
			<path fill="#231F20" d="M100,52.5h-4c-0.4,0-0.8-0.3-0.8-0.8c0-0.4,0.3-0.8,0.8-0.8h4c0.4,0,0.8,0.3,0.8,0.8
				C100.7,52.2,100.4,52.5,100,52.5z"/>
		</g>
		<g>
			<path fill="#231F20" d="M95.5,55.4h-3.8c-0.4,0-0.8-0.3-0.8-0.8c0-0.4,0.3-0.8,0.8-0.8h3.8c0.4,0,0.8,0.3,0.8,0.8
				C96.3,55.1,95.9,55.4,95.5,55.4z"/>
		</g>
		<g>
			<path fill="#231F20" d="M103.6,52.5h-0.8c-0.4,0-0.8-0.3-0.8-0.8c0-0.4,0.3-0.8,0.8-0.8h0.8c0.4,0,0.8,0.3,0.8,0.8
				C104.4,52.2,104.1,52.5,103.6,52.5z"/>
		</g>
		<g>
			<path fill="#231F20" d="M43.4,65.4h-8.1c-0.4,0-0.8-0.3-0.8-0.8c0-0.4,0.3-0.7,0.8-0.7h8.1c0.4,0,0.8,0.3,0.8,0.7
				C44.2,65.1,43.9,65.4,43.4,65.4z"/>
		</g>
		<g>
			<path fill="#231F20" d="M36.1,62.5h-4c-0.4,0-0.7-0.3-0.7-0.8c0-0.4,0.3-0.8,0.7-0.8h4c0.4,0,0.8,0.3,0.8,0.8
				C36.9,62.2,36.5,62.5,36.1,62.5z"/>
		</g>
		<g>
			<path fill="#231F20" d="M31.7,65.4h-3.8c-0.4,0-0.8-0.3-0.8-0.8c0-0.4,0.3-0.7,0.8-0.7h3.8c0.4,0,0.7,0.3,0.7,0.7
				C32.4,65.1,32.1,65.4,31.7,65.4z"/>
		</g>
		<g>
			<path fill="#231F20" d="M39.8,62.5H39c-0.4,0-0.7-0.3-0.7-0.8c0-0.4,0.3-0.8,0.7-0.8h0.8c0.4,0,0.8,0.3,0.8,0.8
				C40.5,62.2,40.2,62.5,39.8,62.5z"/>
		</g>
		<path fill="#231F20" d="M115.6,110.2V99.6H65.5V86.7h50.1V18.8H45.7L38.1,9H13.9v77.6H64v12.9H13.9v10.6H12l-2.1-2.6H0.5v21.9
			h28.3v-19.3H15.4v-9.1H64v9.1h-1.9l-2.1-2.6h-9.5v21.9h28.3v-19.3H65.5v-9.1h48.6v9.1h-1.9l-2.1-2.6h-9.5v21.9H129v-19.3H115.6z
			 M27.3,111.7v2.6H5.9v1.5h21.4v12.2H2V109h7.3l2.1,2.6H27.3z M15.4,10.5h22l6.5,8.3H15.4V10.5z M114.1,20.3v10.8H15.4V20.3H114.1z
			 M77.4,111.7v2.6H56v1.5h21.4v12.2H52.1V109h7.3l2.1,2.6H77.4z M15.4,85.2V32.6h98.7v52.5H15.4z M127.5,114.3h-21.4v1.5h21.4v12.2
			h-25.3V109h7.3l2.1,2.6h16V114.3z"/>
		<g>
			<path fill="#231F20" d="M114.9,75.7h-1v-1.5h1V75.7z M111.9,75.7h-1v-1.5h1V75.7z M108.9,75.7h-1v-1.5h1V75.7z M105.9,75.7h-1
				v-1.5h1V75.7z M102.9,75.7h-1v-1.5h1V75.7z M99.9,75.7h-1v-1.5h1V75.7z M96.9,75.7h-1v-1.5h1V75.7z M93.9,75.7h-1v-1.5h1V75.7z
				 M90.9,75.7h-1v-1.5h1V75.7z M87.9,75.7h-1v-1.5h1V75.7z M84.9,75.7h-1v-1.5h1V75.7z M81.9,75.7h-1v-1.5h1V75.7z M78.9,75.7h-1
				v-1.5h1V75.7z M75.9,75.7h-1v-1.5h1V75.7z M72.9,75.7h-1v-1.5h1V75.7z M69.9,75.7h-1v-1.5h1V75.7z M66.9,75.7h-1v-1.5h1V75.7z
				 M63.9,75.7h-1v-1.5h1V75.7z M60.9,75.7h-1v-1.5h1V75.7z M57.9,75.7h-1v-1.5h1V75.7z M54.9,75.7h-1v-1.5h1V75.7z M51.9,75.7h-1
				v-1.5h1V75.7z M48.9,75.7h-1v-1.5h1V75.7z M45.9,75.7h-1v-1.5h1V75.7z M42.9,75.7h-0.3v-1.5h0.3V75.7z"/>
		</g>
		<g>
			<path fill="#231F20" d="M61.2,8.2c-1.9,0-3.4-1.5-3.4-3.4s1.5-3.4,3.4-3.4s3.4,1.5,3.4,3.4S63.1,8.2,61.2,8.2z M61.2,2.9
				c-1.1,0-1.9,0.9-1.9,1.9c0,1.1,0.9,1.9,1.9,1.9c1.1,0,1.9-0.9,1.9-1.9C63.1,3.8,62.3,2.9,61.2,2.9z"/>
		</g>
		<g>
			<circle fill="#84DBFF" cx="114.8" cy="7.4" r="1.9"/>
		</g>
		<g>
			<circle fill="#FFD05B" cx="122.2" cy="98.6" r="1.9"/>
		</g>
		<g>
			<circle fill="#84DBFF" cx="7.3" cy="82.7" r="1.9"/>
		</g>
		<g>
			<circle fill="#FF7058" cx="7.3" cy="42.5" r="1.9"/>
		</g>
	</g>
</g>
</svg>
