<?xml version="1.0" encoding="utf-8"?>
<!-- Generator: Adobe Illustrator 18.0.0, SVG Export Plug-In . SVG Version: 6.00 Build 0)  -->
<!DOCTYPE svg PUBLIC "-//W3C//DTD SVG 1.1//EN" "http://www.w3.org/Graphics/SVG/1.1/DTD/svg11.dtd">
<svg version="1.1" id="Layer_1" xmlns="http://www.w3.org/2000/svg" xmlns:xlink="http://www.w3.org/1999/xlink" x="0px" y="0px"
	 viewBox="0 0 129.5 129.5" enable-background="new 0 0 129.5 129.5" xml:space="preserve">
<g>
	<g>
		<g>
			<path fill="#FFFFFF" d="M41.7,9.1L37,7l-0.2,0.3c-1,1.8-3,2.8-5.1,2.7c-0.4,0-0.8,0-1.2,0c-2.1,0-4-1.1-4.9-3l-0.1-0.3l-4.8,1.8
				l0.1,0.3c0.6,2-0.2,4.1-1.7,5.5c-0.3,0.3-0.6,0.5-0.9,0.8c-1.5,1.5-3.6,2.1-5.6,1.4l-0.3-0.1L10,21.2l0.3,0.2
				c1.8,1,2.8,3,2.7,5.1c0,0.4,0,0.8,0,1.2c0,2.1-1.1,4-3,4.9l-0.3,0.1l1.8,4.8l0.3-0.1c2-0.6,4.1,0.2,5.5,1.7
				c0.3,0.3,0.5,0.6,0.8,0.9c1.5,1.5,2.1,3.6,1.4,5.6L19.5,46l4.7,2.1l0.2-0.3c1-1.8,3-2.8,5.1-2.7c0.4,0,0.8,0,1.2,0
				c2.1,0,4,1.1,4.9,3l0.1,0.3l4.8-1.8l-0.1-0.3c-0.6-2,0.2-4.1,1.7-5.5c0.3-0.3,0.6-0.5,0.9-0.8c1.5-1.5,3.6-2.1,5.6-1.4l0.3,0.1
				l2.1-4.7l-0.3-0.2c-1.8-1-2.8-3-2.7-5.1c0-0.4,0-0.8,0-1.2c0-2.1,1.1-4,3-4.9l0.3-0.1l-1.8-4.8l-0.3,0.1c-2,0.6-4.1-0.2-5.5-1.7
				c-0.3-0.3-0.5-0.6-0.8-0.9c-1.5-1.5-2.1-3.6-1.4-5.6L41.7,9.1z"/>
			<path fill="#231F20" d="M35.8,49.2c-0.3,0-0.5-0.2-0.7-0.4l-0.1-0.3c-0.8-1.6-2.4-2.5-4.2-2.5c0,0,0,0,0,0c-0.5,0-0.9,0-1.3,0
				c-1.8-0.1-3.5,0.8-4.4,2.3l-0.2,0.3c-0.2,0.3-0.6,0.5-1,0.3l-4.7-2.1c-0.4-0.2-0.5-0.6-0.4-0.9l0.1-0.3c0.6-1.7,0.1-3.5-1.2-4.8
				c-0.3-0.3-0.6-0.6-0.9-0.9c-1.2-1.4-3.1-2-4.7-1.5l-0.3,0.1c-0.4,0.1-0.8-0.1-0.9-0.5L9,33c-0.1-0.4,0-0.8,0.4-0.9l0.3-0.1
				c1.6-0.8,2.5-2.4,2.5-4.3c0-0.4,0-0.8,0-1.3c0.1-1.8-0.8-3.5-2.3-4.4l-0.3-0.2c-0.3-0.2-0.5-0.6-0.3-1l2.1-4.7
				c0.2-0.4,0.6-0.5,0.9-0.4l0.3,0.1c1.6,0.6,3.5,0.1,4.8-1.2c0.3-0.3,0.6-0.6,0.9-0.9c1.4-1.2,2-3,1.5-4.7l-0.1-0.3
				c-0.1-0.4,0.1-0.8,0.5-0.9l4.8-1.8c0.4-0.1,0.8,0,0.9,0.4l0.1,0.3c0.8,1.6,2.4,2.5,4.2,2.5h0.1c0.4,0,0.8,0,1.2,0
				c1.9,0.1,3.5-0.8,4.4-2.3l0.2-0.3c0.2-0.3,0.6-0.5,1-0.3L42,8.4c0.4,0.2,0.5,0.6,0.4,0.9l-0.1,0.3c-0.6,1.7-0.1,3.5,1.2,4.8
				c0.3,0.3,0.6,0.6,0.9,0.9c1.2,1.4,3.1,2,4.7,1.5l0.3-0.1c0.4-0.1,0.8,0.1,0.9,0.5l1.8,4.8c0.1,0.4,0,0.8-0.4,0.9l-0.3,0.1
				C50,24,49,25.6,49,27.4c0,0.4,0,0.8,0,1.3c-0.1,1.8,0.8,3.5,2.3,4.4l0.3,0.2c0.3,0.2,0.5,0.6,0.3,1L49.7,39
				c-0.2,0.4-0.6,0.5-0.9,0.4l-0.3-0.1c-1.6-0.6-3.5-0.1-4.8,1.2c-0.3,0.3-0.6,0.6-0.9,0.9c-1.4,1.2-2,3-1.5,4.7l0.1,0.3
				c0.1,0.4-0.1,0.8-0.5,0.9L36,49.1C35.9,49.2,35.9,49.2,35.8,49.2z M29.1,44.4c0.1,0,0.3,0,0.4,0c0.4,0,0.7,0,1.1,0
				c2.4,0,4.4,1.2,5.5,3.1l3.6-1.4c-0.5-2.1,0.3-4.4,2-5.9c0.3-0.3,0.6-0.5,0.8-0.8c1.6-1.6,3.9-2.3,6-1.7l1.6-3.5
				c-1.8-1.2-2.9-3.3-2.7-5.6c0-0.4,0-0.8,0-1.2c0-2.3,1.2-4.4,3.1-5.5l-1.4-3.6c-2.1,0.5-4.4-0.3-5.9-2c-0.3-0.3-0.5-0.6-0.8-0.8
				c-1.6-1.6-2.3-3.9-1.7-6L37.3,8c-1.2,1.8-3.3,2.9-5.6,2.7c-0.4,0-0.7,0-1.1,0l-0.1-0.8v0.8c-2.3,0-4.3-1.2-5.4-3.1L21.5,9
				c0.5,2.1-0.3,4.4-2,5.9c-0.3,0.3-0.6,0.5-0.8,0.8c-1.6,1.6-3.9,2.3-6,1.7L11,20.9c1.8,1.2,2.9,3.3,2.7,5.6c0,0.4,0,0.8,0,1.2
				c0,2.3-1.2,4.4-3.1,5.5l1.4,3.6c2.1-0.5,4.4,0.3,5.9,2c0.3,0.3,0.5,0.6,0.8,0.8c1.6,1.6,2.3,3.9,1.7,6l3.5,1.6
				C25,45.4,27,44.4,29.1,44.4z"/>
		</g>
		<g>
			<path fill="#231F20" d="M30.6,41.7c-0.3,0-0.5,0-0.8,0l0.1-1.5c0.2,0,0.5,0,0.7,0l0.2,0l0,1.5L30.6,41.7
				C30.6,41.7,30.6,41.7,30.6,41.7z M32.9,41.5L32.7,40c0.3-0.1,0.6-0.1,0.9-0.2l0.4,1.5C33.6,41.4,33.3,41.4,32.9,41.5z M27.6,41.4
				c-0.3-0.1-0.7-0.2-1-0.3l0.4-1.4c0.3,0.1,0.6,0.2,0.9,0.2L27.6,41.4z M36,40.6l-0.6-1.4c0.3-0.1,0.6-0.3,0.9-0.4l0.7,1.3
				C36.6,40.3,36.3,40.5,36,40.6z M24.6,40.4c-0.3-0.2-0.6-0.3-0.9-0.5l0.7-1.3c0.3,0.2,0.6,0.3,0.8,0.4L24.6,40.4z M38.8,39.1
				l-0.9-1.2c0.3-0.2,0.5-0.4,0.8-0.6l1,1.2C39.3,38.7,39.1,38.9,38.8,39.1z M21.9,38.7c-0.3-0.2-0.6-0.4-0.8-0.7l1-1.1
				c0.2,0.2,0.5,0.4,0.7,0.6L21.9,38.7z M41.1,37L40,36c0.2-0.2,0.4-0.5,0.6-0.7l1.2,0.9C41.6,36.4,41.4,36.7,41.1,37z M19.6,36.5
				c-0.2-0.3-0.4-0.6-0.6-0.8l1.2-0.9c0.2,0.3,0.4,0.5,0.6,0.8L19.6,36.5z M43,34.4l-1.3-0.7c0.2-0.3,0.3-0.6,0.4-0.8l1.4,0.6
				C43.3,33.7,43.1,34.1,43,34.4z M17.9,33.8c-0.2-0.3-0.3-0.6-0.4-1l1.4-0.6c0.1,0.3,0.2,0.6,0.4,0.9L17.9,33.8z M44.2,31.4
				L42.7,31c0.1-0.3,0.2-0.6,0.2-0.9l1.5,0.3C44.4,30.7,44.3,31.1,44.2,31.4z M16.8,30.8c-0.1-0.3-0.2-0.7-0.2-1l1.5-0.2
				c0,0.3,0.1,0.6,0.2,0.9L16.8,30.8z M44.7,28.3l-1.5-0.1c0-0.2,0-0.4,0-0.7l0-0.3l1.5,0l0,0.3C44.7,27.8,44.7,28,44.7,28.3z
				 M16.4,27.7l0-0.1c0-0.3,0-0.6,0-0.9l1.5,0.1c0,0.3,0,0.6,0,0.8l0,0.1L16.4,27.7z M43,25.4c-0.1-0.3-0.1-0.6-0.2-0.9l1.5-0.4
				c0.1,0.3,0.2,0.7,0.2,1L43,25.4z M18.2,24.8l-1.5-0.3c0.1-0.3,0.2-0.7,0.3-1l1.4,0.4C18.4,24.2,18.3,24.5,18.2,24.8z M42.2,22.6
				c-0.1-0.3-0.3-0.6-0.4-0.9l1.3-0.7c0.2,0.3,0.3,0.6,0.4,1L42.2,22.6z M19.2,22.1l-1.4-0.6c0.2-0.3,0.3-0.6,0.5-0.9l1.3,0.7
				C19.4,21.6,19.3,21.9,19.2,22.1z M40.8,20.2c-0.2-0.3-0.4-0.5-0.6-0.7l1.2-1c0.2,0.3,0.4,0.6,0.7,0.8L40.8,20.2z M20.7,19.7
				l-1.2-0.9c0.2-0.3,0.4-0.6,0.7-0.8l1.1,1C21.1,19.2,20.9,19.5,20.7,19.7z M38.9,18.1c-0.2-0.2-0.5-0.4-0.7-0.6l0.9-1.2
				c0.3,0.2,0.6,0.4,0.8,0.7L38.9,18.1z M22.7,17.7l-0.9-1.2c0.3-0.2,0.6-0.4,0.9-0.6l0.9,1.2C23.2,17.3,22.9,17.5,22.7,17.7z
				 M36.6,16.4c-0.3-0.1-0.6-0.3-0.9-0.4l0.6-1.4c0.3,0.1,0.6,0.3,0.9,0.5L36.6,16.4z M25.1,16.2l-0.7-1.4c0.3-0.2,0.6-0.3,1-0.4
				l0.6,1.4C25.6,15.9,25.3,16,25.1,16.2z M34.3,15.5c-0.3-0.1-0.6-0.2-0.9-0.2l0.3-1.5c0.3,0.1,0.7,0.2,1,0.3L34.3,15.5z
				 M27.7,15.2l-0.3-1.5c0.3-0.1,0.7-0.1,1-0.2l0.2,1.5C28.4,15.1,28,15.2,27.7,15.2z M31.5,14.9c-0.3,0-0.6,0-0.9,0l0-1.5h0
				c0.3,0,0.7,0,1,0L31.5,14.9z"/>
		</g>
		<g>
			<circle fill="#FF7058" cx="30.6" cy="27.5" r="10.6"/>
		</g>
		<g>
			<circle fill="#FFFFFF" cx="30.6" cy="27.5" r="5.3"/>
			<path fill="#231F20" d="M30.6,33.6c-0.9,0-1.7-0.2-2.5-0.5c-3.1-1.4-4.4-5-3.1-8c1-2.2,3.2-3.6,5.5-3.6c0.9,0,1.7,0.2,2.5,0.5
				c3.1,1.4,4.4,5,3.1,8C35.1,32.2,33,33.6,30.6,33.6z M30.6,23c-1.8,0-3.4,1.1-4.2,2.7c-1,2.3,0,5,2.3,6c0.6,0.3,1.2,0.4,1.9,0.4
				c1.8,0,3.4-1.1,4.2-2.7c1-2.3,0-5-2.3-6C31.9,23.1,31.2,23,30.6,23z"/>
		</g>
		<g>
			<path fill="#FFFFFF" d="M116,73.4l-3.2-1.4l-0.1,0.2c-0.7,1.2-2,1.9-3.4,1.8c-0.3,0-0.6,0-0.8,0c-1.4,0-2.7-0.7-3.3-2l-0.1-0.2
				l-3.3,1.2l0.1,0.2c0.4,1.4-0.1,2.8-1.2,3.7c-0.2,0.2-0.4,0.4-0.6,0.6c-1,1-2.4,1.4-3.8,0.9L96,78.3l-1.4,3.2l0.2,0.1
				c1.2,0.7,1.9,2,1.8,3.4c0,0.3,0,0.6,0,0.8c0,1.4-0.7,2.7-2,3.3l-0.2,0.1l1.2,3.3l0.2-0.1c1.4-0.4,2.8,0.1,3.7,1.2
				c0.2,0.2,0.4,0.4,0.6,0.6c1,1,1.4,2.4,0.9,3.8l-0.1,0.2l3.2,1.4l0.1-0.2c0.7-1.2,2-1.9,3.4-1.8c0.3,0,0.6,0,0.8,0
				c1.4,0,2.7,0.7,3.3,2l0.1,0.2l3.3-1.2l-0.1-0.2c-0.4-1.4,0.1-2.8,1.2-3.7c0.2-0.2,0.4-0.4,0.6-0.6c1-1,2.4-1.4,3.8-0.9l0.2,0.1
				l1.4-3.2l-0.2-0.1c-1.2-0.7-1.9-2-1.8-3.4c0-0.3,0-0.6,0-0.8c0-1.4,0.7-2.7,2-3.3l0.2-0.1l-1.2-3.3l-0.2,0.1
				c-1.4,0.4-2.8-0.1-3.7-1.2c-0.2-0.2-0.4-0.4-0.6-0.6c-1-1-1.4-2.4-0.9-3.8L116,73.4z"/>
			<path fill="#231F20" d="M112,100.7c-0.3,0-0.5-0.2-0.7-0.4l-0.1-0.2c-0.5-1-1.5-1.6-2.7-1.6c-0.4,0-0.6,0-0.9,0
				c-1.2-0.1-2.2,0.5-2.7,1.4l-0.1,0.2c-0.2,0.3-0.6,0.5-1,0.3l-3.2-1.4c-0.4-0.2-0.5-0.6-0.4-0.9l0.1-0.2c0.4-1,0.1-2.2-0.8-3
				c-0.2-0.2-0.4-0.4-0.6-0.6c-0.8-0.9-1.9-1.2-3-0.9l-0.2,0.1c-0.4,0.1-0.8-0.1-0.9-0.5l-1.2-3.3c-0.1-0.4,0-0.8,0.4-0.9l0.2-0.1
				c1-0.5,1.6-1.5,1.6-2.7c0-0.3,0-0.6,0-0.9c0.1-1.2-0.5-2.2-1.4-2.7l-0.2-0.1c-0.3-0.2-0.5-0.6-0.3-1l1.4-3.2
				c0.2-0.4,0.6-0.5,0.9-0.4l0.2,0.1c1,0.3,2.2,0,3-0.8c0.2-0.2,0.4-0.4,0.6-0.6c0.9-0.8,1.2-1.9,0.9-3l-0.1-0.2
				c-0.1-0.4,0.1-0.8,0.5-0.9l3.3-1.2c0.4-0.1,0.8,0,0.9,0.4l0.1,0.2c0.5,1,1.5,1.6,2.7,1.6c0.4,0,0.6,0,0.9,0
				c1.2,0.1,2.2-0.5,2.7-1.4l0.1-0.2c0.2-0.3,0.6-0.5,1-0.3l3.2,1.4c0.4,0.2,0.5,0.6,0.4,0.9l-0.1,0.2c-0.4,1-0.1,2.2,0.8,3
				c0.2,0.2,0.4,0.4,0.6,0.6c0.8,0.9,1.9,1.2,3,0.9l0.2-0.1c0.4-0.1,0.8,0.1,0.9,0.5l1.2,3.3c0.1,0.4,0,0.8-0.4,0.9l-0.2,0.1
				c-1,0.5-1.6,1.5-1.6,2.7c0,0.3,0,0.6,0,0.9c-0.1,1.2,0.5,2.2,1.4,2.7l0.2,0.1c0.3,0.2,0.5,0.6,0.3,1l-1.4,3.2
				c-0.2,0.4-0.6,0.5-0.9,0.4l-0.2-0.1c-1-0.4-2.2,0-3,0.8c-0.2,0.2-0.4,0.4-0.6,0.6c-0.9,0.8-1.2,1.9-0.9,3l0.1,0.2
				c0.1,0.4-0.1,0.8-0.5,0.9l-3.3,1.2C112.2,100.7,112.1,100.7,112,100.7z M107.5,97c0.1,0,0.2,0,0.3,0c0.2,0,0.5,0,0.7,0
				c1.6,0,3,0.8,3.8,2l2-0.8c-0.2-1.5,0.3-3,1.5-4c0.2-0.2,0.4-0.3,0.6-0.5c1.1-1.1,2.7-1.6,4.1-1.3l0.9-2c-1.2-0.9-1.9-2.3-1.8-3.9
				c0-0.3,0-0.5,0-0.8c0-1.6,0.8-3,2-3.8l-0.8-2c-1.5,0.2-3-0.3-4-1.5c-0.2-0.2-0.3-0.4-0.5-0.6c-1.1-1.1-1.6-2.6-1.3-4.1l-2-0.9
				c-0.9,1.2-2.3,1.9-3.9,1.8c-0.2,0-0.5,0-0.7,0h0c-1.7,0-3.1-0.8-3.9-2l-2,0.8c0.2,1.5-0.3,3-1.5,4c-0.2,0.2-0.4,0.3-0.6,0.5
				c-1.1,1.1-2.7,1.6-4.1,1.3l-0.9,2c1.2,0.9,1.9,2.3,1.8,3.9c0,0.3,0,0.5,0,0.8c0,1.6-0.8,3-2,3.8l0.8,2c1.5-0.2,3,0.3,4,1.5
				c0.2,0.2,0.3,0.4,0.5,0.6c1.1,1.1,1.6,2.6,1.3,4.1l2,0.9C104.7,97.7,106.1,97,107.5,97z"/>
		</g>
		<g>
			<path fill="#231F20" d="M108.5,95.7c-0.2,0-0.4,0-0.5,0l0.1-1.5c0.3,0,0.6,0,0.9,0l0.1,1.5C108.9,95.7,108.7,95.7,108.5,95.7z
				 M111.2,95.3l-0.4-1.5c0.3-0.1,0.6-0.2,0.9-0.3l0.6,1.4C111.9,95.1,111.6,95.2,111.2,95.3z M105.8,95.3c-0.3-0.1-0.7-0.2-1-0.4
				l0.6-1.4c0.3,0.1,0.6,0.2,0.9,0.3L105.8,95.3z M114.1,93.9l-0.9-1.2c0.3-0.2,0.5-0.4,0.7-0.6l1,1.1
				C114.7,93.5,114.4,93.7,114.1,93.9z M102.9,93.9c-0.3-0.2-0.6-0.4-0.9-0.7l1-1.1c0.2,0.2,0.5,0.4,0.7,0.6L102.9,93.9z
				 M116.5,91.6l-1.2-0.9c0.2-0.2,0.3-0.5,0.5-0.8l1.3,0.7C116.9,91,116.7,91.3,116.5,91.6z M100.6,91.6c-0.2-0.3-0.4-0.6-0.6-0.9
				l1.3-0.7c0.2,0.3,0.3,0.5,0.5,0.8L100.6,91.6z M117.9,88.7l-1.4-0.4c0.1-0.3,0.2-0.6,0.2-0.9l1.5,0.3
				C118.1,88,118,88.4,117.9,88.7z M99.1,88.7c-0.1-0.3-0.2-0.7-0.3-1.1l1.5-0.3c0.1,0.3,0.1,0.6,0.2,0.9L99.1,88.7z M116.8,85.5
				c0-0.3,0-0.6-0.1-0.9l1.5-0.2c0.1,0.4,0.1,0.7,0.1,1.1L116.8,85.5z M100.2,85.5l-1.5-0.1c0-0.4,0-0.7,0.1-1.1l1.5,0.2
				C100.3,84.9,100.2,85.2,100.2,85.5z M116.3,82.8c-0.1-0.3-0.2-0.6-0.4-0.8l1.3-0.7c0.2,0.3,0.3,0.7,0.5,1L116.3,82.8z
				 M100.8,82.8l-1.4-0.5c0.1-0.1,0.1-0.3,0.2-0.4c0.1-0.2,0.2-0.4,0.3-0.5l1.3,0.7c-0.1,0.2-0.2,0.3-0.2,0.5
				C100.9,82.6,100.8,82.7,100.8,82.8z M114.9,80.5c-0.2-0.2-0.4-0.5-0.6-0.7l1-1.1c0.3,0.3,0.5,0.5,0.8,0.8L114.9,80.5z
				 M102.2,80.5l-1.2-1c0.2-0.3,0.5-0.5,0.8-0.8l1,1.1C102.6,80,102.4,80.2,102.2,80.5z M112.7,78.7c-0.3-0.2-0.5-0.3-0.8-0.4
				l0.6-1.4c0.3,0.2,0.7,0.3,1,0.5L112.7,78.7z M104.3,78.7l-0.8-1.3c0.3-0.2,0.6-0.4,1-0.5l0.6,1.4
				C104.9,78.4,104.6,78.5,104.3,78.7z M110.5,77.8c-0.3-0.1-0.6-0.1-0.9-0.2l0.2-1.5c0.4,0,0.7,0.1,1.1,0.2L110.5,77.8z
				 M106.9,77.7l-0.3-1.5c0.4-0.1,0.7-0.1,1.1-0.2l0.1,1.5C107.5,77.6,107.2,77.7,106.9,77.7z"/>
		</g>
		<g>
			<circle fill="#FFD05B" cx="108.5" cy="85.9" r="7.2"/>
		</g>
		<g>
			<circle fill="#FFFFFF" cx="108.5" cy="85.9" r="3.6"/>
			<path fill="#231F20" d="M108.5,90.2c-0.6,0-1.2-0.1-1.8-0.4c-1.1-0.5-1.9-1.3-2.3-2.4c-0.4-1.1-0.4-2.3,0.1-3.3
				c0.7-1.6,2.3-2.6,4-2.6c0.6,0,1.2,0.1,1.8,0.4c1.1,0.5,1.9,1.3,2.3,2.4c0.4,1.1,0.4,2.3-0.1,3.3
				C111.8,89.2,110.2,90.2,108.5,90.2z M108.5,83c-1.1,0-2.1,0.7-2.6,1.7c-0.3,0.7-0.3,1.5-0.1,2.2c0.3,0.7,0.8,1.3,1.5,1.6
				c1.4,0.6,3.1,0,3.8-1.4c0.3-0.7,0.3-1.5,0.1-2.2c-0.3-0.7-0.8-1.3-1.5-1.6C109.3,83.1,108.9,83,108.5,83z"/>
		</g>
		<path fill="#FFFFFF" d="M8.8,72.2v33l9.2,0v-33c0-2.5-2.1-4.6-4.6-4.6l0,0C10.9,67.7,8.8,69.7,8.8,72.2z"/>
		<path fill="#FFFFFF" d="M18,80.7v-8.4c0-2.5-2.1-4.6-4.6-4.6l0,0c-2.5,0-4.6,2.1-4.6,4.6v8.4L18,80.7z"/>
		<polygon fill="#FFFFFF" points="18,105.2 13.4,116.4 8.8,105.2 		"/>
		<path fill="#231F20" d="M13.4,66.9c-2.9,0-5.3,2.4-5.3,5.3v33c0,0.1,0,0.2,0.1,0.3c0,0,0,0,0,0l4.6,11.2c0.1,0.3,0.4,0.5,0.7,0.5
			c0.3,0,0.6-0.2,0.7-0.5l4.6-11.2c0,0,0,0,0,0c0-0.1,0.1-0.2,0.1-0.3v-33C18.7,69.3,16.3,66.9,13.4,66.9z M9.6,72.2
			c0-1,0.4-2,1.1-2.7c0.7-0.7,1.7-1.1,2.7-1.1c2.1,0,3.8,1.7,3.8,3.8v7.7H9.6V72.2z M12.7,81.4v23l-3.1,0v-23H12.7z M13.4,114.4
			L9.9,106l3.5,0l3.5,0L13.4,114.4z M17.2,104.5l-3.1,0v-23h3.1V104.5z"/>
		<polyline fill="#FFFFFF" points="107.5,128 100.4,110.7 79.5,104.3 76.5,99.7 65,103.9 53.5,99.7 50.4,104.3 29.6,110.7 21.2,128 
					"/>
		<g>
			<path fill="#231F20" d="M126.4,40.1H76.3V7.4h50.1V40.1z M77.8,38.6h47.1V8.9H77.8V38.6z"/>
		</g>
		<g>
			<rect x="79.1" y="10.1" fill="#E6E9EE" width="44.6" height="27.2"/>
		</g>
		<g>
			<path fill="#231F20" d="M126.4,8.9H76.3V1.1h50.1V8.9z M77.8,7.4h47.1V2.6H77.8V7.4z"/>
		</g>
		<g>
			<rect x="121.2" y="4.2" fill="#231F20" width="2" height="1.5"/>
		</g>
		<g>
			<rect x="116.9" y="4.2" fill="#231F20" width="2" height="1.5"/>
		</g>
		<g>
			<rect x="112.7" y="4.2" fill="#231F20" width="2" height="1.5"/>
		</g>
		<g>
			<circle fill="#FFD05B" cx="2.5" cy="48.4" r="2.5"/>
		</g>
		<g>
			<circle fill="#84DBFF" cx="121.2" cy="53.6" r="2.5"/>
		</g>
		<g>
			<circle fill="#FF7058" cx="32" cy="80.7" r="2.5"/>
		</g>
		<g>
			<circle fill="#84DBFF" cx="66.9" cy="27.5" r="2.5"/>
		</g>
		<g>
			<circle fill="#E6E9EE" cx="64.4" cy="113.9" r="2.5"/>
		</g>
		<g>
			<circle fill="#E6E9EE" cx="64.4" cy="122.3" r="2.5"/>
		</g>
		<g>
			<g>
				<path fill="#231F20" d="M29,60.7h-8.1c-0.4,0-0.8-0.3-0.8-0.8c0-0.4,0.3-0.8,0.8-0.8H29c0.4,0,0.8,0.3,0.8,0.8
					C29.8,60.3,29.4,60.7,29,60.7z"/>
			</g>
			<g>
				<path fill="#231F20" d="M21.7,57.7h-4c-0.4,0-0.8-0.3-0.8-0.8c0-0.4,0.3-0.8,0.8-0.8h4c0.4,0,0.8,0.3,0.8,0.8
					C22.4,57.4,22.1,57.7,21.7,57.7z"/>
			</g>
			<g>
				<path fill="#231F20" d="M17.2,60.7h-3.8c-0.4,0-0.8-0.3-0.8-0.8c0-0.4,0.3-0.8,0.8-0.8h3.8c0.4,0,0.8,0.3,0.8,0.8
					C17.9,60.3,17.6,60.7,17.2,60.7z"/>
			</g>
			<g>
				<path fill="#231F20" d="M25.3,57.7h-0.8c-0.4,0-0.8-0.3-0.8-0.8c0-0.4,0.3-0.8,0.8-0.8h0.8c0.4,0,0.8,0.3,0.8,0.8
					C26.1,57.4,25.8,57.7,25.3,57.7z"/>
			</g>
		</g>
		<g>
			<g>
				<path fill="#231F20" d="M63.8,9.5c-0.2,0-0.4-0.1-0.5-0.2C63,9,63,8.5,63.3,8.2l1.3-1.3c0.3-0.3,0.8-0.3,1.1,0
					c0.3,0.3,0.3,0.8,0,1.1l-1.3,1.3C64.2,9.4,64,9.5,63.8,9.5z"/>
			</g>
			<g>
				<path fill="#231F20" d="M59.7,13.5c-0.2,0-0.4-0.1-0.5-0.2c-0.3-0.3-0.3-0.8,0-1.1l1.3-1.3c0.3-0.3,0.8-0.3,1.1,0
					c0.3,0.3,0.3,0.8,0,1.1l-1.3,1.3C60.1,13.5,59.9,13.5,59.7,13.5z"/>
			</g>
			<g>
				<path fill="#231F20" d="M65.1,13.5c-0.2,0-0.4-0.1-0.5-0.2L63.3,12c-0.3-0.3-0.3-0.8,0-1.1c0.3-0.3,0.8-0.3,1.1,0l1.3,1.3
					c0.3,0.3,0.3,0.8,0,1.1C65.5,13.5,65.3,13.5,65.1,13.5z"/>
			</g>
			<g>
				<path fill="#231F20" d="M61,9.5c-0.2,0-0.4-0.1-0.5-0.2L59.2,8c-0.3-0.3-0.3-0.8,0-1.1c0.3-0.3,0.8-0.3,1.1,0l1.3,1.3
					c0.3,0.3,0.3,0.8,0,1.1C61.4,9.4,61.2,9.5,61,9.5z"/>
			</g>
		</g>
		<g>
			<g>
				<path fill="#231F20" d="M100.8,54.4c-0.2,0-0.4-0.1-0.5-0.2c-0.3-0.3-0.3-0.8,0-1.1l1.3-1.3c0.3-0.3,0.8-0.3,1.1,0
					c0.3,0.3,0.3,0.8,0,1.1l-1.3,1.3C101.2,54.3,101,54.4,100.8,54.4z"/>
			</g>
			<g>
				<path fill="#231F20" d="M96.8,58.4c-0.2,0-0.4-0.1-0.5-0.2c-0.3-0.3-0.3-0.8,0-1.1l1.3-1.3c0.3-0.3,0.8-0.3,1.1,0
					c0.3,0.3,0.3,0.8,0,1.1l-1.3,1.3C97.2,58.4,97,58.4,96.8,58.4z"/>
			</g>
			<g>
				<path fill="#231F20" d="M102.1,58.4c-0.2,0-0.4-0.1-0.5-0.2l-1.3-1.3c-0.3-0.3-0.3-0.8,0-1.1c0.3-0.3,0.8-0.3,1.1,0l1.3,1.3
					c0.3,0.3,0.3,0.8,0,1.1C102.5,58.4,102.3,58.4,102.1,58.4z"/>
			</g>
			<g>
				<path fill="#231F20" d="M98.1,54.4c-0.2,0-0.4-0.1-0.5-0.2l-1.3-1.3c-0.3-0.3-0.3-0.8,0-1.1c0.3-0.3,0.8-0.3,1.1,0l1.3,1.3
					c0.3,0.3,0.3,0.8,0,1.1C98.5,54.3,98.3,54.4,98.1,54.4z"/>
			</g>
		</g>
		<g>
			<g>
				<path fill="#231F20" d="M32,97.6c-0.2,0-0.4-0.1-0.5-0.2c-0.3-0.3-0.3-0.8,0-1.1l1.3-1.3c0.3-0.3,0.8-0.3,1.1,0
					c0.3,0.3,0.3,0.8,0,1.1l-1.3,1.3C32.4,97.5,32.2,97.6,32,97.6z"/>
			</g>
			<g>
				<path fill="#231F20" d="M27.9,101.7c-0.2,0-0.4-0.1-0.5-0.2c-0.3-0.3-0.3-0.8,0-1.1l1.3-1.3c0.3-0.3,0.8-0.3,1.1,0
					c0.3,0.3,0.3,0.8,0,1.1l-1.3,1.3C28.3,101.6,28.1,101.7,27.9,101.7z"/>
			</g>
			<g>
				<path fill="#231F20" d="M33.3,101.7c-0.2,0-0.4-0.1-0.5-0.2l-1.3-1.3c-0.3-0.3-0.3-0.8,0-1.1c0.3-0.3,0.8-0.3,1.1,0l1.3,1.3
					c0.3,0.3,0.3,0.8,0,1.1C33.6,101.6,33.5,101.7,33.3,101.7z"/>
			</g>
			<g>
				<path fill="#231F20" d="M29.2,97.6c-0.2,0-0.4-0.1-0.5-0.2l-1.3-1.3c-0.3-0.3-0.3-0.8,0-1.1c0.3-0.3,0.8-0.3,1.1,0l1.3,1.3
					c0.3,0.3,0.3,0.8,0,1.1C29.6,97.5,29.4,97.6,29.2,97.6z"/>
			</g>
		</g>
		<g>
			<path fill="#231F20" d="M125.4,120.5c-2.3,0-4.1-1.9-4.1-4.1c0-2.3,1.9-4.1,4.1-4.1c2.3,0,4.1,1.9,4.1,4.1
				C129.5,118.7,127.6,120.5,125.4,120.5z M125.4,113.8c-1.4,0-2.6,1.2-2.6,2.6c0,1.4,1.2,2.6,2.6,2.6c1.4,0,2.6-1.2,2.6-2.6
				C128,114.9,126.8,113.8,125.4,113.8z"/>
		</g>
		<polygon fill="#84DBFF" points="79.5,66.4 67.5,66.4 68.8,72.4 78.2,72.4 		"/>
		<polygon fill="#84DBFF" points="62.4,66.4 50.4,66.4 51.7,72.4 61.1,72.4 		"/>
		<path fill="#231F20" d="M100.9,110.1L80,103.6l-3.2-4.8L76.4,99v-8.6c2.6-2.9,4.9-6.8,6.6-11.3c1.7-0.8,3.3-2.4,4.4-4.4
			c1-1.8,1.4-3.7,1.3-5.4c-0.1-1.8-0.9-3.2-2.2-3.9c-0.2-0.1-0.5-0.2-0.8-0.3c0-0.2,0-0.3,0-0.5C85.8,48.2,75,42.4,65,42.4
			s-20.8,5.8-20.8,22.2c0,0.2,0,0.3,0,0.5c-0.3,0.1-0.5,0.2-0.8,0.3c-1.3,0.7-2.1,2.1-2.2,3.9c-0.1,1.7,0.3,3.6,1.3,5.4
			c1.1,2.1,2.7,3.7,4.4,4.4c1.9,5.1,4.6,9.3,7.6,12.3v7.9l-1.3-0.5l-3.2,4.8l-20.9,6.4l-8.5,17.7l1.4,0.7l8.3-17.1l20.7-6.4l2.9-4.3
			l11.2,4l11.2-4l2.9,4.3l20.7,6.4l7.1,17l1.4-0.6L100.9,110.1z M65,43.9c9.3,0,19.3,5.4,19.3,20.7c0,0.1,0,0.3,0,0.4l-4.8,0.6h-29
			L45.7,65c0-0.1,0-0.3,0-0.4C45.7,49.3,55.6,43.9,65,43.9z M78.6,67.1l-1,4.6h-8.2l-1-4.6H78.6z M61.5,67.1l-1,4.6h-8.2l-1-4.6
			H61.5z M74.9,92v7.5l-10,3.6l-9-3.2v-7.1l0-0.1c2.8,2.3,5.9,3.6,9,3.6C68.4,96.3,71.9,94.7,74.9,92L74.9,92z M65,94.8
			c-6.5,0-13.1-6.5-16.8-16.6l-0.1-0.3l-0.3-0.1c-1.5-0.6-3-2-3.9-3.9c-0.8-1.5-1.2-3.2-1.1-4.6c0.1-1.3,0.6-2.3,1.4-2.7
			c0.2-0.1,0.5-0.2,0.8-0.2l4.8,0.6l1.3,6.2h10.6l1.3-6.1h3.9l1.3,6.1h10.6l1.3-6.2l4.8-0.6c0.3,0,0.6,0.1,0.8,0.2
			c0.8,0.4,1.3,1.4,1.4,2.7c0.1,1.4-0.3,3.1-1.1,4.6c-1,1.8-2.5,3.3-3.9,3.9l-0.3,0.1l-0.1,0.3C78.1,88.3,71.5,94.8,65,94.8z"/>
		<g>
			<g>
				<path d="M96.8,28c0,0.2-0.1,0.3-0.2,0.4c-0.1,0.1-0.3,0.2-0.4,0.2c-0.1,0-0.3,0-0.3,0l-6.6-2.9c-0.4-0.2-0.6-0.5-0.6-0.9v-0.1
					c0-0.4,0.2-0.7,0.6-0.9l6.6-2.9c0.1,0,0.2,0,0.3,0c0.1,0,0.3,0.1,0.4,0.2c0.1,0.1,0.2,0.3,0.2,0.4c0,0.3-0.1,0.5-0.4,0.7
					l-5.9,2.6l5.9,2.6c0.1,0.1,0.2,0.1,0.3,0.3C96.8,27.7,96.8,27.8,96.8,28z"/>
			</g>
			<g>
				<path d="M102.9,17.5c0.1-0.3,0.3-0.5,0.7-0.5c0.2,0,0.3,0.1,0.5,0.2c0.1,0.1,0.2,0.3,0.2,0.4c0,0.2,0,0.3-0.1,0.4l-4.4,12.8
					c-0.1,0.3-0.3,0.5-0.6,0.5c-0.2,0-0.4-0.1-0.5-0.2c-0.1-0.1-0.2-0.3-0.2-0.4c0-0.2,0-0.3,0.1-0.3L102.9,17.5z"/>
			</g>
			<g>
				<path d="M106.8,28.6c-0.1,0-0.2,0-0.3,0c-0.1,0-0.3-0.1-0.4-0.2c-0.1-0.1-0.2-0.3-0.2-0.4c0-0.3,0.1-0.5,0.4-0.7l5.9-2.6
					l-5.9-2.6c-0.1-0.1-0.2-0.1-0.3-0.3c-0.1-0.1-0.1-0.3-0.1-0.4c0-0.2,0.1-0.3,0.2-0.4c0.1-0.1,0.3-0.2,0.4-0.2c0.1,0,0.2,0,0.3,0
					l6.6,2.9c0.4,0.2,0.6,0.5,0.6,0.9v0.1c0,0.4-0.2,0.7-0.6,0.9L106.8,28.6z"/>
			</g>
		</g>
	</g>
</g>
</svg>
