<svg xmlns="http://www.w3.org/2000/svg" xmlns:xlink="http://www.w3.org/1999/xlink" viewBox="0 0 129.5 129.5"><style><![CDATA[.N{fill:#231F20}.O{fill:#fff}]]></style><g class="N"><path d="M66 10.7c-.2 0-.4-.1-.5-.2-.3-.3-.3-.8 0-1.1l1.3-1.3c.3-.3.8-.3 1.1 0s.3.8 0 1.1l-1.3 1.3c-.3.1-.4.2-.6.2zm-4.1 4c-.2 0-.4-.1-.5-.2-.3-.3-.3-.8 0-1.1l1.3-1.3c.3-.3.8-.3 1.1 0s.3.8 0 1.1l-1.3 1.3c-.2.1-.4.2-.6.2zm5.4 0c-.2 0-.4-.1-.5-.2l-1.3-1.3c-.3-.3-.3-.8 0-1.1s.8-.3 1.1 0l1.3 1.3c.3.3.3.8 0 1.1-.3.1-.5.2-.6.2z"/><use xlink:href="#B"/><use xlink:href="#C"/><path d="M49.7 123.6c-.2 0-.4-.1-.5-.2-.3-.3-.3-.8 0-1.1l1.3-1.3c.3-.3.8-.3 1.1 0s.3.8 0 1.1l-1.3 1.3c-.3.1-.4.2-.6.2z"/><use xlink:href="#B" x="-8.2" y="112.9"/><use xlink:href="#D"/><use xlink:href="#C" x="53.5" y="-16.6"/><path d="M103.2 107c-.2 0-.4-.1-.5-.2-.3-.3-.3-.8 0-1.1l1.3-1.3c.3-.3.8-.3 1.1 0s.3.8 0 1.1l-1.3 1.3c-.2.1-.4.2-.6.2z"/><use xlink:href="#B" x="45.3" y="96.3"/><use xlink:href="#D" x="53.6" y="-16.6"/><path d="M112.4 116.2h-7.5c-.4 0-.8-.3-.8-.8s.3-.8.8-.8h7.5c.4 0 .8.3.8.8s-.3.8-.8.8zm5 0h-2.1c-.4 0-.8-.3-.8-.8s.3-.8.8-.8h2.1c.4 0 .8.3.8.8s-.4.8-.8.8zm-2.9 2.7h-2.1c-.4 0-.8-.3-.8-.8s.3-.8.8-.8h2.1c.4 0 .8.3.8.8s-.4.8-.8.8z"/></g><path d="M2.3 16h50.9v12.5H2.3z" fill="#84DBFF"/><circle cx="49" cy="22" r="2" class="O"/><path d="M49 24.8c-1.5 0-2.8-1.2-2.8-2.8 0-1.5 1.2-2.8 2.8-2.8a2.73 2.73 0 0 1 2.8 2.8 2.73 2.73 0 0 1-2.8 2.8zm0-4.1c-.7 0-1.3.6-1.3 1.3s.6 1.3 1.3 1.3 1.3-.6 1.3-1.3-.6-1.3-1.3-1.3z" class="N"/><circle cx="41.9" cy="22" r="2" class="O"/><path d="M41.9 24.8c-1.5 0-2.8-1.2-2.8-2.8 0-1.5 1.2-2.8 2.8-2.8 1.5 0 2.8 1.2 2.8 2.8s-1.3 2.8-2.8 2.8zm0-4.1c-.7 0-1.3.6-1.3 1.3s.6 1.3 1.3 1.3 1.3-.6 1.3-1.3-.6-1.3-1.3-1.3z" class="N"/><circle cx="34.7" cy="22" r="2" class="O"/><path d="M34.7 24.8c-1.5 0-2.8-1.2-2.8-2.8 0-1.5 1.2-2.8 2.8-2.8a2.73 2.73 0 0 1 2.8 2.8 2.73 2.73 0 0 1-2.8 2.8zm0-4.1c-.7 0-1.3.6-1.3 1.3s.6 1.3 1.3 1.3S36 22.7 36 22s-.6-1.3-1.3-1.3z" class="N"/><path d="M2.3 36.1h50.9v12.5H2.3z" fill="#FFD05B"/><path d="M2.3 56.1h50.9v12.5H2.3z" fill="#CED5E0"/><circle cx="49" cy="42.3" r="2" class="O"/><path d="M49 45.1c-1.5 0-2.8-1.2-2.8-2.8a2.73 2.73 0 0 1 2.8-2.8 2.73 2.73 0 0 1 2.8 2.8 2.73 2.73 0 0 1-2.8 2.8zm0-4.1c-.7 0-1.3.6-1.3 1.3s.6 1.3 1.3 1.3 1.3-.6 1.3-1.3S49.7 41 49 41z" class="N"/><circle cx="41.9" cy="42.3" r="2" class="O"/><path d="M41.9 45.1c-1.5 0-2.8-1.2-2.8-2.8a2.73 2.73 0 0 1 2.8-2.8c1.5 0 2.8 1.2 2.8 2.8s-1.3 2.8-2.8 2.8zm0-4.1c-.7 0-1.3.6-1.3 1.3s.6 1.3 1.3 1.3 1.3-.6 1.3-1.3-.6-1.3-1.3-1.3z" class="N"/><circle cx="34.7" cy="42.3" r="2" class="O"/><path d="M34.7 45.1c-1.5 0-2.8-1.2-2.8-2.8a2.73 2.73 0 0 1 2.8-2.8 2.73 2.73 0 0 1 2.8 2.8 2.73 2.73 0 0 1-2.8 2.8zm0-4.1c-.7 0-1.3.6-1.3 1.3s.6 1.3 1.3 1.3S36 43 36 42.3s-.6-1.3-1.3-1.3z" class="N"/><circle cx="49" cy="62.6" r="2" class="O"/><use xlink:href="#E" class="N"/><circle cx="41.9" cy="62.6" r="2" class="O"/><path d="M41.9 65.3c-1.5 0-2.8-1.2-2.8-2.8a2.73 2.73 0 0 1 2.8-2.8c1.5 0 2.8 1.2 2.8 2.8s-1.3 2.8-2.8 2.8zm0-4c-.7 0-1.3.6-1.3 1.3s.6 1.3 1.3 1.3 1.3-.6 1.3-1.3-.6-1.3-1.3-1.3z" class="N"/><circle cx="34.7" cy="62.6" r="2" class="O"/><use xlink:href="#E" x="-14.3" class="N"/><path d="M2.3 76.2h50.9v12.5H2.3z" fill="#FF7058"/><path d="M55.7 31V13.5H-.2V31h4.9v2.6H-.2V51h4.9v2.6H-.2v17.5h4.9v2.7H-.2v17.5h4.9v2.6H-.2v17.5h55.9V93.8h-4.9v-2.6h4.9V73.7h-4.9V71h4.9V53.6h-4.9V51h4.9V33.6h-4.9V31h4.9zm-1.5 64.3v14.5H1.3V95.3h52.9zm-4.9-1.5h-43v-2.6h43v2.6zm4.9-18.6v14.5H1.3V75.2h52.9zM6.3 73.7v-2.6h43v2.6h-43zm-5-44.2V15h52.9v14.5H1.3zm52.9 25.6v14.5H1.3V55.1h52.9zm-4.9-1.5h-43V51h43v2.6zm4.9-18.5v14.5H1.3V35.1h52.9zm-4.9-1.5h-43V31h43v2.6z" class="N"/><path d="M2.3 96.3h50.9v12.5H2.3z" fill="#CED5E0"/><circle cx="49" cy="82.5" r="2" class="O"/><use xlink:href="#F" class="N"/><circle cx="41.9" cy="82.5" r="2" class="O"/><path d="M41.9 85.2c-1.5 0-2.8-1.2-2.8-2.8 0-1.5 1.2-2.8 2.8-2.8 1.5 0 2.8 1.2 2.8 2.8s-1.3 2.8-2.8 2.8zm0-4c-.7 0-1.3.6-1.3 1.3s.6 1.3 1.3 1.3 1.3-.6 1.3-1.3-.6-1.3-1.3-1.3z" class="N"/><circle cx="34.7" cy="82.5" r="2" class="O"/><use xlink:href="#F" x="-14.3" class="N"/><circle cx="49" cy="102.7" r="2" class="O"/><use xlink:href="#G" class="N"/><circle cx="41.9" cy="102.7" r="2" class="O"/><path d="M41.9 105.5c-1.5 0-2.8-1.2-2.8-2.8 0-1.5 1.2-2.8 2.8-2.8 1.5 0 2.8 1.2 2.8 2.8s-1.3 2.8-2.8 2.8zm0-4c-.7 0-1.3.6-1.3 1.3s.6 1.3 1.3 1.3 1.3-.6 1.3-1.3c0-.8-.6-1.3-1.3-1.3z" class="N"/><circle cx="34.7" cy="102.7" r="2" class="O"/><g class="N"><use xlink:href="#G" x="-14.3"/><path d="M93 117.6l-.6-.8 1.2-.8.6.8-1.2.8zm-1.7-2.5l-.6-.8 1.2-.8.6.8-1.2.8zm-1.6-2.5l-.6-.8 1.2-.8.6.8-1.2.8zm-1.7-2.5l-.6-.8 1.2-.8.6.8-1.2.8zm-1.7-2.5l-.6-.8 1.2-.8.6.8-1.2.8zm-1.6-2.5l-.6-.8 1.2-.8.6.8-1.2.8zm-1.7-2.5l-.6-.8 1.2-.8.6.8-1.2.8zm-1.7-2.5l-.6-.8 1.2-.8.6.8-1.2.8zm-1.6-2.5l-.6-.8 1.2-.8.6.8-1.2.8zM78 95.1l-.6-.8 1.2-.8.6.8-1.2.8zm-1.7-2.5l-.6-.8L77 91l.6.8-1.3.8zm-1.6-2.4l-.6-.8 1.2-.8.6.8-1.2.8zM73 87.7l-.6-.8 1.2-.8.6.8-1.2.8zm-1.7-2.5l-.6-.8 1.2-.8.6.8-1.2.8zm-1.6-2.5l-.6-.8 1.2-.8.6.8-1.2.8zM68 80.2l-.6-.8 1.2-.8.6.8-1.2.8zm-1.7-2.5l-.6-.8L67 76l.6.8-1.3.9zm-1.6-2.5l-.6-.8 1.2-.8.6.8-1.2.8zM63 72.7l-.6-.8 1.2-.8.6.8-1.2.8zm-1.7-2.5l-.6-.8 1.2-.8.6.8-1.2.8zm-1.6-2.5l-.6-.8 1.2-.8.6.8-1.2.8zM58 65.2l-.6-.8 1.2-.8.6.8-1.2.8zm-.3-2.5l-1.2-.8.6-.8 1.2.8-.6.8zm1.6-2.5l-1.2-.8.6-.8 1.2.8-.6.8zm1.7-2.5l-1.2-.8.6-.8 1.2.8-.6.8zm1.7-2.5l-1.2-.8.6-.8 1.2.8-.6.8zm1.6-2.5l-1.2-.8.6-.8 1.2.8-.6.8zm1.7-2.4l-1.2-.8.6-.8 1.2.8-.6.8zm1.7-2.5l-1.2-.8.6-.8 1.2.8-.6.8zm1.6-2.5l-1.2-.8.6-.8 1.2.8-.6.8zm1.7-2.5l-1.2-.8.6-.8 1.2.8-.6.8zm1.7-2.5l-1.2-.8.6-.8 1.2.8-.6.8zm1.7-2.5l-1.3-.8.6-.8 1.2.8-.5.8zm1.6-2.5l-1.2-.8.6-.8 1.2.8-.6.8zm1.7-2.5l-1.3-.8.6-.8 1.2.8-.5.8zm1.7-2.5l-1.2-.8.6-.8 1.2.8-.6.8zm1.6-2.5l-1.2-.8.6-.8 1.2.8-.6.8zm1.7-2.5l-1.2-.8.6-.8 1.2.8-.6.8zm1.7-2.5l-1.3-.8.6-.8 1.2.8-.5.8zm1.6-2.5l-1.2-.8.6-.8 1.2.8-.6.8zm1.7-2.5l-1.3-.8.6-.8 1.2.8-.5.8zm1.7-2.5l-1.2-.8.6-.8 1.2.8-.6.8zm1.6-2.5l-1.2-.8.6-.8 1.2.8-.6.8zm1.7-2.4l-1.2-.8.5-.9 1.2.8-.5.9zm1.7-2.5L93.1 7l.6-.8 1.2.8-.5.9zm-8.1 84.3H84c-.4 0-.8-.3-.8-.8 0-.4.3-.8.8-.8h2.3c.4 0 .8.3.8.8s-.3.8-.8.8zm4.1 0h-1.3c-.4 0-.8-.3-.8-.8 0-.4.3-.8.8-.8h1.3c.4 0 .8.3.8.8-.1.5-.4.8-.8.8zM83 74.5h-2.3c-.4 0-.8-.3-.8-.8s.3-.8.8-.8H83c.4 0 .8.3.8.8s-.4.8-.8.8zm4 0h-1.3c-.4 0-.8-.3-.8-.8s.3-.8.8-.8H87c.4 0 .8.3.8.8s-.4.8-.8.8zm-5.2-21.9h-2c-.4 0-.8-.3-.8-.8 0-.4.3-.8.8-.8h2c.4 0 .8.3.8.8s-.4.8-.8.8zm3.4 0h-1.1c-.4 0-.8-.3-.8-.8 0-.4.3-.8.8-.8h1.1c.4 0 .8.3.8.8-.1.5-.4.8-.8.8zm21.5 16h-1v-1.5h1v1.5zm-3 0h-1v-1.5h1v1.5zm-3 0h-1v-1.5h1v1.5zm-3 0h-1v-1.5h1v1.5zm-3 0h-1v-1.5h1v1.5zm-3 0h-1v-1.5h1v1.5zm-3 0h-1v-1.5h1v1.5zm-3 0h-1v-1.5h1v1.5zm-3 0h-1v-1.5h1v1.5zm-3 0h-1v-1.5h1v1.5z"/><path d="M112 94.8v-7.7H77.6v-1.5h35.9v5.6l14-14.1-14-14.1v5.6h-6.8v-1.5h5.3v-7.7l17.7 17.7zm-3.2-2.6H93c-.4 0-.8-.3-.8-.8 0-.4.3-.8.8-.8h15.8c.4 0 .8.3.8.8s-.4.8-.8.8zm-3.3-17.7H89.7c-.4 0-.8-.3-.8-.8s.3-.8.8-.8h15.8c.4 0 .8.3.8.8s-.4.8-.8.8zm8.5-38.6h-1v-1.5h1v1.5zm-3 0h-1v-1.5h1v1.5zm-3 0h-1v-1.5h1v1.5zm-3 0h-1v-1.5h1v1.5zm-3 0h-1v-1.5h1v1.5zm-3 0h-1v-1.5h1v1.5zm-3 0h-1v-1.5h1v1.5zm-3 0h-1v-1.5h1v1.5z"/><path d="M117.3 53.7v-5.5H90.8v-1.5h28v3.4l8.7-8.8-8.7-8.8v3.4H114v-1.5h3.3v-5.5l12.4 12.4zm-25-11.6h-2c-.4 0-.8-.3-.8-.8 0-.4.3-.8.8-.8h2c.4 0 .8.3.8.8 0 .4-.3.8-.8.8zm3.4 0h-1.1c-.4 0-.8-.3-.8-.8 0-.4.3-.8.8-.8h1.1c.4 0 .8.3.8.8 0 .4-.4.8-.8.8zm15.5 0H97.9c-.4 0-.8-.3-.8-.8 0-.4.3-.8.8-.8h13.2c.4 0 .8.3.8.8 0 .4-.3.8-.7.8zm-10.6 10.5H87.4c-.4 0-.8-.3-.8-.8 0-.4.3-.8.8-.8h13.2c.4 0 .8.3.8.8s-.3.8-.8.8z"/></g><circle cx="107.2" cy="10" r="3.3" fill="#FF7058"/><circle cx="66.6" cy="104.9" r="3.3" fill="#FFD05B"/><circle cx="29.1" cy="7.6" r="1.7" fill="#84DBFF"/><defs ><path id="B" d="M63.2 10.7c-.2 0-.4-.1-.5-.2l-1.3-1.3c-.3-.3-.3-.8 0-1.1s.8-.3 1.1 0l1.3 1.3c.3.3.3.8 0 1.1-.2.1-.4.2-.6.2z"/><path id="C" d="M53.7 119.5c-.2 0-.4-.1-.5-.2-.3-.3-.3-.8 0-1.1l1.3-1.3c.3-.3.8-.3 1.1 0s.3.8 0 1.1l-1.3 1.3c-.2.2-.4.2-.6.2z"/><path id="D" d="M50.9 119.5c-.2 0-.4-.1-.5-.2l-1.3-1.3c-.3-.3-.3-.8 0-1.1s.8-.3 1.1 0l1.3 1.3c.3.3.3.8 0 1.1-.2.2-.4.2-.6.2z"/><path id="E" d="M49 65.3c-1.5 0-2.8-1.2-2.8-2.8a2.73 2.73 0 0 1 2.8-2.8 2.73 2.73 0 0 1 2.8 2.8 2.73 2.73 0 0 1-2.8 2.8zm0-4c-.7 0-1.3.6-1.3 1.3s.6 1.3 1.3 1.3 1.3-.6 1.3-1.3-.6-1.3-1.3-1.3z"/><path id="F" d="M49 85.2c-1.5 0-2.8-1.2-2.8-2.8 0-1.5 1.2-2.8 2.8-2.8a2.73 2.73 0 0 1 2.8 2.8 2.73 2.73 0 0 1-2.8 2.8zm0-4c-.7 0-1.3.6-1.3 1.3s.6 1.3 1.3 1.3 1.3-.6 1.3-1.3-.6-1.3-1.3-1.3z"/><path id="G" d="M49 105.5c-1.5 0-2.8-1.2-2.8-2.8 0-1.5 1.2-2.8 2.8-2.8a2.73 2.73 0 0 1 2.8 2.8 2.73 2.73 0 0 1-2.8 2.8zm0-4c-.7 0-1.3.6-1.3 1.3s.6 1.3 1.3 1.3 1.3-.6 1.3-1.3c0-.8-.6-1.3-1.3-1.3z"/></defs></svg>