<svg xmlns="http://www.w3.org/2000/svg" xmlns:xlink="http://www.w3.org/1999/xlink" viewBox="0 0 129.5 129.5"><style><![CDATA[.P{fill:#231F20}.Q{fill:#fff}.R{fill:#E6E9EE}.S{fill:#84DBFF}]]></style><g class="P"><path d="M59.9 72.6c-.2 0-.4-.1-.5-.2-.3-.3-.3-.8 0-1.1l.8-.8c.3-.3.8-.3 1.1 0s.3.8 0 1.1l-.8.8c-.2.1-.4.2-.6.2zm-2.6 2.6c-.2 0-.4-.1-.5-.2-.3-.3-.3-.8 0-1.1l.8-.8c.3-.3.8-.3 1.1 0s.3.8 0 1.1l-.9.8c-.1.1-.3.2-.5.2z"/><path d="M60.7 75.2c-.2 0-.4-.1-.5-.2l-.8-.8c-.3-.3-.3-.8 0-1.1s.8-.3 1.1 0l.8.8c.3.3.3.8 0 1.1-.2.1-.4.2-.6.2zm-2.6-2.6c-.2 0-.4-.1-.5-.2l-.8-.8c-.3-.3-.3-.8 0-1.1s.8-.3 1.1 0l.8.8c.3.3.3.8 0 1.1-.2.1-.4.2-.6.2z"/></g><circle cx="87.6" cy="82.5" r="1.9" fill="#CED5E0"/><circle cx="72.2" cy="74.5" r="1.4" class="R"/><g class="P"><path d="M8.8 107.7c-.2 0-.4-.1-.5-.2-.3-.3-.3-.8 0-1.1l1.3-1.3c.3-.3.8-.3 1.1 0s.3.8 0 1.1l-1.3 1.3c-.3.2-.5.2-.6.2z"/><use xlink:href="#B"/><use xlink:href="#C"/><path d="M6 107.7c-.2 0-.4-.1-.5-.2l-1.3-1.3c-.3-.3-.3-.8 0-1.1s.8-.3 1.1 0l1.3 1.3c.3.3.3.8 0 1.1-.2.2-.4.2-.6.2zM120.4 7.1c-.2 0-.4-.1-.5-.2-.3-.3-.3-.8 0-1.1l1.3-1.3c.3-.3.8-.3 1.1 0s.3.8 0 1.1L121 6.9c-.2.1-.4.2-.6.2z"/><use xlink:href="#B" x="111.6" y="-100.6"/><use xlink:href="#C" x="111.7" y="-100.6"/><use xlink:href="#C" x="107.6" y="-104.7"/><path d="M92.2 35.3c-.2 0-.4-.1-.5-.2-.3-.3-.3-.8 0-1.1l1.3-1.3c.3-.3.8-.3 1.1 0s.3.8 0 1.1l-1.3 1.3c-.2.2-.4.2-.6.2z"/><use xlink:href="#B" x="83.5" y="-72.4"/><use xlink:href="#C" x="83.5" y="-72.4"/><path d="M89.5 35.3c-.2 0-.4-.1-.5-.2l-1.3-1.3c-.3-.3-.3-.8 0-1.1s.8-.3 1.1 0L90 34c.3.3.3.8 0 1.1-.2.2-.3.2-.5.2z"/></g><path d="M3.1 3.4h68.3v16.8H3.1z" class="S"/><g class="Q"><path d="M7.4 22.5h59.7V28H7.4zm0 26.9h59.7v5.5H7.4z"/><path d="M.8 28h73v21.4H.8z"/></g><path d="M3.1 30.3h68.3v16.8H3.1z" fill="#FFD05B"/><path d="M.8 54.9h73v21.4H.8z" class="Q"/><path d="M3.1 57.2h68.3V74H3.1z" fill="#CED5E0"/><circle cx="65.8" cy="11.5" r="2.7" class="Q"/><path d="M65.8 14.9c-1.9 0-3.5-1.6-3.5-3.5S63.8 8 65.8 8c1.9 0 3.5 1.6 3.5 3.5s-1.6 3.4-3.5 3.4zm0-5.4c-1.1 0-2 .9-2 2s.9 2 2 2 2-.9 2-2c-.1-1.1-1-2-2-2z" class="P"/><circle cx="56.2" cy="11.5" r="2.7" class="Q"/><path d="M56.2 14.9c-1.9 0-3.5-1.6-3.5-3.5S54.2 8 56.2 8s3.5 1.6 3.5 3.5-1.6 3.4-3.5 3.4zm0-5.4c-1.1 0-2 .9-2 2s.9 2 2 2 2-.9 2-2c-.1-1.1-1-2-2-2z" class="P"/><circle cx="46.6" cy="11.5" r="2.7" class="Q"/><path d="M46.6 14.9c-1.9 0-3.5-1.6-3.5-3.5S44.6 8 46.6 8 50 9.6 50 11.5a3.37 3.37 0 0 1-3.4 3.4zm0-5.4c-1.1 0-2 .9-2 2s.9 2 2 2 2-.9 2-2c-.1-1.1-1-2-2-2z" class="P"/><circle cx="65.8" cy="38.7" r="2.7" class="Q"/><use xlink:href="#D" class="P"/><circle cx="56.2" cy="38.7" r="2.7" class="Q"/><use xlink:href="#D" x="-9.6" class="P"/><circle cx="46.6" cy="38.7" r="2.7" class="Q"/><use xlink:href="#D" x="-19.2" class="P"/><circle cx="65.8" cy="64.3" r="2.7" class="Q"/><use xlink:href="#E" class="P"/><circle cx="56.2" cy="64.3" r="2.7" class="Q"/><use xlink:href="#E" x="-9.6" class="P"/><circle cx="46.6" cy="64.3" r="2.7" class="Q"/><use xlink:href="#E" x="-19.2" class="P"/><circle cx="65.8" cy="91.6" r="2.7" class="Q"/><use xlink:href="#F" class="P"/><circle cx="56.2" cy="91.6" r="2.7" class="Q"/><use xlink:href="#F" x="-9.6" class="P"/><circle cx="46.6" cy="91.6" r="2.7" class="Q"/><use xlink:href="#F" x="-19.2" class="P"/><path d="M120 115.6H31.1a2.26 2.26 0 0 1-2.3-2.3V48.5a2.26 2.26 0 0 1 2.3-2.3H120a2.26 2.26 0 0 1 2.3 2.3v64.8c0 1.3-1.1 2.3-2.3 2.3z" class="R"/><g class="Q"><path d="M32.3 49.8h86.4v56.4H32.3z"/><path d="M32.3 49.8h86.4v9H32.3z"/></g><path d="M33.9 51.5H117v5.6H33.9z" class="S"/><g class="R"><path d="M128.8,120.2H22.3v4.2c0,2.3,1.9,4.2,4.2,4.2h98.1c2.3,0,4.2-1.9,4.2-4.2V120.2z"/><path d="M90.7 120.2H60.4l3.2 4.7h23.9z"/></g><path d="M28.1 113.3a3.12 3.12 0 0 0 3.1 3.1H120a3.12 3.12 0 0 0 3.1-3.1V48.5a3.12 3.12 0 0 0-3.1-3.1H74.5V27.2h-6.6v-4h6.6V.3H0v22.9h6.6v4H0v22.9h6.6v4H0V77h28.1v36.3zm0-59.1h-20v-4H28v4zm91.9 60.7H31.1a1.58 1.58 0 0 1-1.6-1.6v-6.4h92v6.4c0 .9-.7 1.6-1.5 1.6zM33 59.5h84.9v45.9H33V59.5zm84.9-1.5H33v-7.5h84.9V58zm2.1-11.1a1.58 1.58 0 0 1 1.6 1.6v57h-2.1V49.8c0-.4-.3-.8-.8-.8H32.3c-.4 0-.7.3-.7.8v55.6h-1.9v-57a1.58 1.58 0 0 1 1.6-1.6H120zM1.5 21.7V1.8H73v19.9H1.5zm64.9 1.5v4H8.1v-4h58.3zM1.5 48.6V28.7H73v16.7H31.1a3.12 3.12 0 0 0-3.1 3.1v.2H1.5zm0 27V55.7h26.6v19.9H1.5zm127.3 43.8H22.3c-.4 0-.8.3-.8.8v4.2a4.91 4.91 0 0 0 4.9 4.9h98.1a4.91 4.91 0 0 0 4.9-4.9v-4.2c.1-.5-.2-.8-.6-.8zm-39.5 1.5l-2.2 3.2H64l-2.2-3.2h27.5zm38.7 3.4a3.37 3.37 0 0 1-3.4 3.4H26.5a3.37 3.37 0 0 1-3.4-3.4v-3.4H60l3 4.4c.1.2.4.3.6.3h23.9c.2 0 .5-.1.6-.3l3-4.4H128v3.4zm-42.2-36c-.2 0-.4-.1-.5-.2-.3-.3-.3-.8 0-1.1l7.4-7.4-7.4-7.4c-.3-.3-.3-.8 0-1.1s.8-.3 1.1 0l8 8c.3.3.3.8 0 1.1l-8 8c-.2 0-.4.1-.6.1zm-20.7 0c-.2 0-.4-.1-.5-.2l-8-8c-.3-.3-.3-.8 0-1.1l8-8c.3-.3.8-.3 1.1 0s.3.8 0 1.1l-7.4 7.4 7.4 7.4c.3.3.3.8 0 1.1-.2.2-.4.3-.6.3zm5.2 4.3c-.1 0-.2 0-.3-.1-.4-.2-.6-.6-.4-1L79.9 67c.2-.4.6-.6 1-.4s.6.6.4 1L71 92.1c-.1.3-.4.5-.7.5z" class="P"/><circle cx="119.4" cy="34.6" r="2.1" fill="#FFD05B"/><circle cx="10" cy="91.6" r="2.1" class="S"/><circle cx="85.8" cy="8.7" r="2.1" fill="#FF7058"/><path d="M105.3 21.9h-7.5c-.4 0-.8-.3-.8-.8 0-.4.3-.8.8-.8h7.5c.4 0 .8.3.8.8 0 .4-.3.8-.8.8zm5 0h-2.1c-.4 0-.8-.3-.8-.8 0-.4.3-.8.8-.8h2.1c.4 0 .8.3.8.8-.1.4-.4.8-.8.8zm-2.9 2.7h-2.1c-.4 0-.8-.3-.8-.8 0-.4.3-.8.8-.8h2.1c.4 0 .8.3.8.8 0 .4-.4.8-.8.8z" class="P"/><defs ><path id="B" d="M4.7 111.8c-.2 0-.4-.1-.5-.2-.3-.3-.3-.8 0-1.1l1.3-1.3c.3-.3.8-.3 1.1 0s.3.8 0 1.1l-1.3 1.3c-.2.1-.4.2-.6.2z"/><path id="C" d="M10 111.8c-.2 0-.4-.1-.5-.2l-1.3-1.3c-.3-.3-.3-.8 0-1.1s.8-.3 1.1 0l1.3 1.3c.3.3.3.8 0 1.1-.2.1-.4.2-.6.2z"/><path id="D" d="M65.8 42.2c-1.9 0-3.5-1.6-3.5-3.5s1.6-3.5 3.5-3.5 3.5 1.6 3.5 3.5-1.6 3.5-3.5 3.5zm0-5.5c-1.1 0-2 .9-2 2s.9 2 2 2 2-.9 2-2c-.1-1.1-1-2-2-2z"/><path id="E" d="M65.8 67.8c-1.9 0-3.5-1.6-3.5-3.5s1.6-3.5 3.5-3.5 3.5 1.6 3.5 3.5c-.1 1.9-1.6 3.5-3.5 3.5zm0-5.5c-1.1 0-2 .9-2 2s.9 2 2 2 2-.9 2-2c-.1-1.1-1-2-2-2z"/><path id="F" d="M65.8 95c-1.9 0-3.5-1.6-3.5-3.5s1.6-3.5 3.5-3.5 3.5 1.6 3.5 3.5c-.1 2-1.6 3.5-3.5 3.5zm0-5.4c-1.1 0-2 .9-2 2s.9 2 2 2 2-.9 2-2c-.1-1.1-1-2-2-2z"/></defs></svg>