<?xml version="1.0" encoding="utf-8"?>
<!-- Generator: Adobe Illustrator 18.0.0, SVG Export Plug-In . SVG Version: 6.00 Build 0)  -->
<!DOCTYPE svg PUBLIC "-//W3C//DTD SVG 1.1//EN" "http://www.w3.org/Graphics/SVG/1.1/DTD/svg11.dtd">
<svg version="1.1" id="Layer_1" xmlns="http://www.w3.org/2000/svg" xmlns:xlink="http://www.w3.org/1999/xlink" x="0px" y="0px"
	 viewBox="0 0 129.5 129.5" enable-background="new 0 0 129.5 129.5" xml:space="preserve">
<g>
	<g>
		<g>
			<g>
				<path fill="#231F20" d="M123.4,6.8c-0.2,0-0.4-0.1-0.5-0.2c-0.3-0.3-0.3-0.8,0-1.1l1.4-1.4c0.3-0.3,0.8-0.3,1.1,0
					c0.3,0.3,0.3,0.8,0,1.1L124,6.6C123.8,6.8,123.6,6.8,123.4,6.8z"/>
			</g>
			<g>
				<path fill="#231F20" d="M119.1,11.2c-0.2,0-0.4-0.1-0.5-0.2c-0.3-0.3-0.3-0.8,0-1.1l1.4-1.4c0.3-0.3,0.8-0.3,1.1,0
					c0.3,0.3,0.3,0.8,0,1.1l-1.4,1.4C119.5,11.1,119.3,11.2,119.1,11.2z"/>
			</g>
			<g>
				<path fill="#231F20" d="M124.8,11.2c-0.2,0-0.4-0.1-0.5-0.2l-1.4-1.4c-0.3-0.3-0.3-0.8,0-1.1c0.3-0.3,0.8-0.3,1.1,0l1.4,1.4
					c0.3,0.3,0.3,0.8,0,1.1C125.2,11.1,125,11.2,124.8,11.2z"/>
			</g>
			<g>
				<path fill="#231F20" d="M120.5,6.8c-0.2,0-0.4-0.1-0.5-0.2l-1.4-1.4c-0.3-0.3-0.3-0.8,0-1.1c0.3-0.3,0.8-0.3,1.1,0l1.4,1.4
					c0.3,0.3,0.3,0.8,0,1.1C120.9,6.8,120.7,6.8,120.5,6.8z"/>
			</g>
		</g>
		<g>
			<g>
				<path fill="#231F20" d="M118.5,122.3c-0.2,0-0.4-0.1-0.5-0.2c-0.3-0.3-0.3-0.8,0-1.1l1.4-1.4c0.3-0.3,0.8-0.3,1.1,0
					c0.3,0.3,0.3,0.8,0,1.1l-1.4,1.4C118.9,122.2,118.7,122.3,118.5,122.3z"/>
			</g>
			<g>
				<path fill="#231F20" d="M114.2,126.6c-0.2,0-0.4-0.1-0.5-0.2c-0.3-0.3-0.3-0.8,0-1.1l1.4-1.4c0.3-0.3,0.8-0.3,1.1,0
					c0.3,0.3,0.3,0.8,0,1.1l-1.4,1.4C114.5,126.6,114.4,126.6,114.2,126.6z"/>
			</g>
			<g>
				<path fill="#231F20" d="M119.9,126.6c-0.2,0-0.4-0.1-0.5-0.2L118,125c-0.3-0.3-0.3-0.8,0-1.1c0.3-0.3,0.8-0.3,1.1,0l1.4,1.4
					c0.3,0.3,0.3,0.8,0,1.1C120.3,126.6,120.1,126.6,119.9,126.6z"/>
			</g>
			<g>
				<path fill="#231F20" d="M115.6,122.3c-0.2,0-0.4-0.1-0.5-0.2l-1.4-1.4c-0.3-0.3-0.3-0.8,0-1.1c0.3-0.3,0.8-0.3,1.1,0l1.4,1.4
					c0.3,0.3,0.3,0.8,0,1.1C115.9,122.2,115.7,122.3,115.6,122.3z"/>
			</g>
		</g>
		<g>
			<g>
				<path fill="#231F20" d="M10.5,15.8c-0.2,0-0.4-0.1-0.5-0.2c-0.3-0.3-0.3-0.8,0-1.1l1.4-1.4c0.3-0.3,0.8-0.3,1.1,0
					c0.3,0.3,0.3,0.8,0,1.1l-1.4,1.4C10.9,15.7,10.7,15.8,10.5,15.8z"/>
			</g>
			<g>
				<path fill="#231F20" d="M6.2,20.2c-0.2,0-0.4-0.1-0.5-0.2c-0.3-0.3-0.3-0.8,0-1.1l1.4-1.4c0.3-0.3,0.8-0.3,1.1,0
					c0.3,0.3,0.3,0.8,0,1.1l-1.4,1.4C6.6,20.1,6.4,20.2,6.2,20.2z"/>
			</g>
			<g>
				<path fill="#231F20" d="M11.9,20.2c-0.2,0-0.4-0.1-0.5-0.2L10,18.6c-0.3-0.3-0.3-0.8,0-1.1c0.3-0.3,0.8-0.3,1.1,0l1.4,1.4
					c0.3,0.3,0.3,0.8,0,1.1C12.3,20.1,12.1,20.2,11.9,20.2z"/>
			</g>
			<g>
				<path fill="#231F20" d="M7.6,15.8c-0.2,0-0.4-0.1-0.5-0.2l-1.4-1.4c-0.3-0.3-0.3-0.8,0-1.1c0.3-0.3,0.8-0.3,1.1,0l1.4,1.4
					c0.3,0.3,0.3,0.8,0,1.1C8,15.7,7.8,15.8,7.6,15.8z"/>
			</g>
		</g>
		<g>
			<circle fill="#84DBFF" cx="65.2" cy="64.9" r="34.9"/>
		</g>
		<g>
			<path fill="#231F20" d="M65.2,103.2C44,103.2,26.9,86,26.9,64.9c0-21.1,17.2-38.3,38.3-38.3c21.1,0,38.3,17.2,38.3,38.3
				C103.4,86,86.3,103.2,65.2,103.2z M65.2,28.2c-20.3,0-36.8,16.5-36.8,36.8c0,20.3,16.5,36.8,36.8,36.8s36.8-16.5,36.8-36.8
				C101.9,44.7,85.4,28.2,65.2,28.2z"/>
			<g>
				<rect x="64.4" y="27.4" fill="#231F20" width="1.5" height="75.1"/>
			</g>
			<g>
				<rect x="27.6" y="64.2" fill="#231F20" width="75.1" height="1.5"/>
			</g>
			<path fill="#231F20" d="M90.9,36.7c-7.1-6.4-16.2-10-25.8-10c-9.6,0-18.7,3.5-25.8,10c-7.9,7.2-12.5,17.5-12.5,28.3
				c0,10.7,4.6,21,12.5,28.3c7.1,6.4,16.2,10,25.8,10c9.6,0,18.7-3.5,25.8-10c7.9-7.2,12.5-17.5,12.5-28.3
				C103.4,54.2,98.9,43.9,90.9,36.7z M89.3,37.2c-1.2,1-2.4,1.9-3.7,2.8c-2.7-4.4-6.1-8-9.9-10.3C80.7,31.2,85.3,33.7,89.3,37.2z
				 M52,64.9c0-6.8,0.7-13.3,1.9-18.9c3.6,1.1,7.4,1.7,11.2,1.7c3.8,0,7.6-0.6,11.2-1.7c1.2,5.6,1.9,12,1.9,18.9
				c0,6.8-0.7,13.3-1.9,18.9c-3.6-1.1-7.4-1.7-11.2-1.7c-3.8,0-7.6,0.6-11.2,1.7C52.7,78.3,52,71.8,52,64.9z M52.5,84.3
				c-2.6,0.9-5,2.1-7.3,3.5c-3.5-6.3-5.6-14.2-5.6-22.9c0-8.6,2.1-16.6,5.6-22.8c2.3,1.4,4.8,2.6,7.3,3.5c-1.2,5.6-2,12.2-2,19.4
				C50.5,72.1,51.2,78.7,52.5,84.3z M79.8,64.9c0-7.1-0.7-13.7-2-19.4c2.6-0.9,5-2.1,7.3-3.5c3.5,6.3,5.6,14.2,5.6,22.8
				c0,8.6-2.1,16.6-5.6,22.8c-2.3-1.4-4.8-2.6-7.3-3.5C79.1,78.7,79.8,72.1,79.8,64.9z M84.4,40.8c-2.2,1.4-4.5,2.5-6.9,3.3
				c-1.7-7-4.3-12.4-7.4-15.3C75.8,30.5,80.8,34.8,84.4,40.8z M65.1,28.2C65.1,28.2,65.1,28.2,65.1,28.2
				C65.2,28.2,65.2,28.2,65.1,28.2c4.5,0,8.5,6.6,10.9,16.4c-3.5,1.1-7.1,1.6-10.9,1.6c-3.7,0-7.4-0.6-10.9-1.6
				C56.7,34.8,60.7,28.2,65.1,28.2z M52.8,44.1c-2.4-0.9-4.7-2-6.9-3.3c3.7-6,8.6-10.3,14.3-11.9C57.1,31.7,54.5,37.1,52.8,44.1z
				 M54.6,29.7c-3.9,2.3-7.2,5.9-9.9,10.3c-1.3-0.9-2.5-1.8-3.7-2.8C45,33.7,49.6,31.2,54.6,29.7z M28.4,64.9
				c0-10.1,4.2-19.8,11.5-26.7c1.3,1.1,2.6,2.1,4,3.1c-3.6,6.5-5.8,14.7-5.8,23.6c0,8.9,2.2,17.1,5.8,23.7c-1.4,0.9-2.7,2-4,3.1
				C32.6,84.7,28.4,75,28.4,64.9z M41,92.7c1.2-1,2.4-1.9,3.7-2.8c2.7,4.4,6.1,8,9.9,10.3C49.6,98.7,45,96.1,41,92.7z M45.9,89.1
				c2.2-1.4,4.5-2.5,6.9-3.3c1.7,7,4.3,12.4,7.4,15.3C54.5,99.4,49.5,95.1,45.9,89.1z M65.2,101.7c-4.5,0-8.5-6.6-10.9-16.4
				c3.5-1.1,7.1-1.6,10.9-1.6c3.7,0,7.4,0.6,10.9,1.6C73.6,95.1,69.6,101.7,65.2,101.7z M77.5,85.8c2.4,0.9,4.7,2,6.9,3.3
				c-3.7,6-8.6,10.3-14.3,11.9C73.2,98.2,75.8,92.8,77.5,85.8z M85.6,89.9c1.3,0.9,2.5,1.8,3.7,2.8c-4,3.5-8.6,6-13.6,7.5
				C79.6,97.9,82.9,94.3,85.6,89.9z M90.4,91.7c-1.3-1.1-2.6-2.1-4-3.1c3.6-6.5,5.8-14.7,5.8-23.7c0-8.9-2.2-17.1-5.8-23.6
				c1.4-0.9,2.7-2,4-3.1c7.3,6.9,11.5,16.6,11.5,26.7C101.9,75,97.7,84.7,90.4,91.7z"/>
		</g>
		<g>
			<path fill="#84DBFF" d="M69.5,109v19.7c14.4-1,27.4-6.7,37.6-15.6L93.2,99.2C86.6,104.6,78.5,108.2,69.5,109z"/>
		</g>
		<g>
			<path fill="#E6E9EE" d="M60.8,20.8V1.2c-14.4,1-27.4,6.7-37.6,15.6l13.9,13.9C43.6,25.3,51.8,21.7,60.8,20.8z"/>
		</g>
		<g>
			<path fill="#FF7058" d="M93.2,30.7l13.9-13.9C96.9,7.9,83.9,2.2,69.5,1.2v19.7C78.5,21.7,86.6,25.3,93.2,30.7z"/>
		</g>
		<g>
			<path fill="#FFD05B" d="M109.3,69.3c-0.9,9-4.4,17.1-9.8,23.7l13.9,13.9c8.9-10.2,14.6-23.3,15.6-37.6H109.3z"/>
		</g>
		<g>
			<path fill="#231F20" d="M61.5,129.5l-0.8-0.1c-32.1-2.2-57.9-28-60.1-60.1l-0.1-0.8h21.1l0.1,0.7c2,20.6,18.4,37,39.1,39.1
				l0.7,0.1V129.5z M2.2,70.1c2.5,30.7,27.1,55.4,57.8,57.8v-18.2c-20.8-2.4-37.3-18.9-39.7-39.7H2.2z"/>
		</g>
		<g>
			<path fill="#E6E9EE" d="M30.9,36.9L17,23C8.1,33.2,2.4,46.2,1.4,60.6H21C21.9,51.6,25.5,43.4,30.9,36.9z"/>
		</g>
		<g>
			<path fill="#FFD05B" d="M109.3,60.6h19.7c-1-14.4-6.7-27.4-15.6-37.6L99.4,36.8C104.8,43.4,108.4,51.6,109.3,60.6z"/>
		</g>
		<g>
			<circle fill="#FFD05B" cx="25.4" cy="102" r="2.2"/>
		</g>
		<g>
			<circle fill="#E6E9EE" cx="8.3" cy="120.8" r="2.9"/>
		</g>
		<g>
			<circle fill="#84DBFF" cx="124.1" cy="22.8" r="1.9"/>
		</g>
		<g>
			<circle fill="#FF7058" cx="18" cy="1.9" r="1.9"/>
		</g>
	</g>
</g>
</svg>
