<?xml version="1.0" encoding="utf-8"?>
<!-- Generator: Adobe Illustrator 18.0.0, SVG Export Plug-In . SVG Version: 6.00 Build 0)  -->
<!DOCTYPE svg PUBLIC "-//W3C//DTD SVG 1.1//EN" "http://www.w3.org/Graphics/SVG/1.1/DTD/svg11.dtd">
<svg version="1.1" id="Layer_1" xmlns="http://www.w3.org/2000/svg" xmlns:xlink="http://www.w3.org/1999/xlink" x="0px" y="0px"
	 viewBox="0 0 129.5 129.5" enable-background="new 0 0 129.5 129.5" xml:space="preserve">
<g>
	<g>
		<g>
			<path fill="#231F20" d="M122.4,12.4c-0.2,0-0.4-0.1-0.5-0.2c-0.3-0.3-0.3-0.8,0-1.1l1.3-1.3c0.3-0.3,0.8-0.3,1.1,0
				c0.3,0.3,0.3,0.8,0,1.1l-1.3,1.3C122.7,12.3,122.6,12.4,122.4,12.4z"/>
		</g>
		<g>
			<path fill="#231F20" d="M118.4,16.4c-0.2,0-0.4-0.1-0.5-0.2c-0.3-0.3-0.3-0.8,0-1.1l1.3-1.3c0.3-0.3,0.8-0.3,1.1,0
				c0.3,0.3,0.3,0.8,0,1.1l-1.3,1.3C118.8,16.3,118.6,16.4,118.4,16.4z"/>
		</g>
		<g>
			<path fill="#231F20" d="M123.6,16.4c-0.2,0-0.4-0.1-0.5-0.2l-1.3-1.3c-0.3-0.3-0.3-0.8,0-1.1c0.3-0.3,0.8-0.3,1.1,0l1.3,1.3
				c0.3,0.3,0.3,0.8,0,1.1C124,16.3,123.8,16.4,123.6,16.4z"/>
		</g>
		<g>
			<path fill="#231F20" d="M119.6,12.4c-0.2,0-0.4-0.1-0.5-0.2l-1.3-1.3c-0.3-0.3-0.3-0.8,0-1.1c0.3-0.3,0.8-0.3,1.1,0l1.3,1.3
				c0.3,0.3,0.3,0.8,0,1.1C120,12.3,119.8,12.4,119.6,12.4z"/>
		</g>
		<g>
			<path fill="#231F20" d="M123.3,122.1c-0.2,0-0.4-0.1-0.5-0.2c-0.3-0.3-0.3-0.8,0-1.1l1.3-1.3c0.3-0.3,0.8-0.3,1.1,0
				c0.3,0.3,0.3,0.8,0,1.1l-1.3,1.3C123.7,122.1,123.5,122.1,123.3,122.1z"/>
		</g>
		<g>
			<path fill="#231F20" d="M119.3,126.1c-0.2,0-0.4-0.1-0.5-0.2c-0.3-0.3-0.3-0.8,0-1.1l1.3-1.3c0.3-0.3,0.8-0.3,1.1,0
				c0.3,0.3,0.3,0.8,0,1.1l-1.3,1.3C119.7,126,119.5,126.1,119.3,126.1z"/>
		</g>
		<g>
			<path fill="#231F20" d="M124.6,126.1c-0.2,0-0.4-0.1-0.5-0.2l-1.3-1.3c-0.3-0.3-0.3-0.8,0-1.1c0.3-0.3,0.8-0.3,1.1,0l1.3,1.3
				c0.3,0.3,0.3,0.8,0,1.1C125,126,124.8,126.1,124.6,126.1z"/>
		</g>
		<g>
			<path fill="#231F20" d="M120.6,122.1c-0.2,0-0.4-0.1-0.5-0.2l-1.3-1.3c-0.3-0.3-0.3-0.8,0-1.1c0.3-0.3,0.8-0.3,1.1,0l1.3,1.3
				c0.3,0.3,0.3,0.8,0,1.1C121,122.1,120.8,122.1,120.6,122.1z"/>
		</g>
		<g>
			<path fill="#231F20" d="M6.4,107.6c-0.2,0-0.4-0.1-0.5-0.2c-0.3-0.3-0.3-0.8,0-1.1l1.3-1.3c0.3-0.3,0.8-0.3,1.1,0
				c0.3,0.3,0.3,0.8,0,1.1l-1.3,1.3C6.7,107.6,6.5,107.6,6.4,107.6z"/>
		</g>
		<g>
			<path fill="#231F20" d="M2.4,111.6c-0.2,0-0.4-0.1-0.5-0.2c-0.3-0.3-0.3-0.8,0-1.1l1.3-1.3c0.3-0.3,0.8-0.3,1.1,0
				c0.3,0.3,0.3,0.8,0,1.1l-1.3,1.3C2.7,111.6,2.6,111.6,2.4,111.6z"/>
		</g>
		<g>
			<path fill="#231F20" d="M7.6,111.6c-0.2,0-0.4-0.1-0.5-0.2l-1.3-1.3c-0.3-0.3-0.3-0.8,0-1.1c0.3-0.3,0.8-0.3,1.1,0l1.3,1.3
				c0.3,0.3,0.3,0.8,0,1.1C8,111.6,7.8,111.6,7.6,111.6z"/>
		</g>
		<g>
			<path fill="#231F20" d="M3.6,107.6c-0.2,0-0.4-0.1-0.5-0.2l-1.3-1.3c-0.3-0.3-0.3-0.8,0-1.1c0.3-0.3,0.8-0.3,1.1,0l1.3,1.3
				c0.3,0.3,0.3,0.8,0,1.1C4,107.6,3.8,107.6,3.6,107.6z"/>
		</g>
		<g>
			<path fill="#231F20" d="M5.7,28.8c-0.2,0-0.4-0.1-0.5-0.2c-0.3-0.3-0.3-0.8,0-1.1l1.3-1.3c0.3-0.3,0.8-0.3,1.1,0
				c0.3,0.3,0.3,0.8,0,1.1l-1.3,1.3C6.1,28.7,5.9,28.8,5.7,28.8z"/>
		</g>
		<g>
			<path fill="#231F20" d="M1.7,32.8c-0.2,0-0.4-0.1-0.5-0.2c-0.3-0.3-0.3-0.8,0-1.1l1.3-1.3c0.3-0.3,0.8-0.3,1.1,0
				c0.3,0.3,0.3,0.8,0,1.1l-1.3,1.3C2.1,32.7,1.9,32.8,1.7,32.8z"/>
		</g>
		<g>
			<path fill="#231F20" d="M7,32.8c-0.2,0-0.4-0.1-0.5-0.2l-1.3-1.3c-0.3-0.3-0.3-0.8,0-1.1c0.3-0.3,0.8-0.3,1.1,0l1.3,1.3
				c0.3,0.3,0.3,0.8,0,1.1C7.4,32.7,7.2,32.8,7,32.8z"/>
		</g>
		<g>
			<path fill="#231F20" d="M3,28.8c-0.2,0-0.4-0.1-0.5-0.2l-1.3-1.3c-0.3-0.3-0.3-0.8,0-1.1C1.5,26,2,26,2.2,26.3l1.3,1.3
				c0.3,0.3,0.3,0.8,0,1.1C3.4,28.7,3.2,28.8,3,28.8z"/>
		</g>
		<circle fill="#FFD05B" cx="12.2" cy="7.6" r="1.9"/>
		<circle fill="#84DBFF" cx="4.4" cy="94.2" r="2.6"/>
		<circle fill="#E6E9EE" cx="125.9" cy="95.9" r="2.6"/>
		<g>
			<path fill="#FF7058" d="M59.3,71.6L30,100.8c-7.3-8.1-11.6-18.3-12.1-29.2H59.3z"/>
		</g>
		<g>
			<path fill="#231F20" d="M110.8,67.1h-1v-0.8h-0.5c0-0.2,0-0.5,0-0.7l0.5,0v-0.1l1,0c0,0.2,0,0.5,0,0.7V67.1z M107.8,67.1h-1v-1.5
				h1V67.1z M104.8,67.1h-1v-1.5h1V67.1z M101.8,67.1h-1v-1.5h1V67.1z M98.8,67.1h-1v-1.5h1V67.1z M95.8,67.1h-1v-1.5h1V67.1z
				 M92.8,67.1h-1v-1.5h1V67.1z M89.8,67.1h-1v-1.5h1V67.1z M86.8,67.1h-1v-1.5h1V67.1z M83.8,67.1h-1v-1.5h1V67.1z M80.8,67.1h-1
				v-1.5h1V67.1z M77.8,67.1h-1v-1.5h1V67.1z M74.8,67.1h-1v-1.5h0.8L74,65l0.7-0.7l1.1,1.1l-0.7,0.7l-0.3-0.3V67.1z M77.2,64
				l-1.1-1.1l0.7-0.7l1.1,1.1L77.2,64z M109.2,63.7c0-0.3-0.1-0.7-0.1-1l1.5-0.2c0,0.3,0.1,0.7,0.1,1L109.2,63.7z M79.3,61.9
				l-1.1-1.1l0.7-0.7l1.1,1.1L79.3,61.9z M108.9,60.8c-0.1-0.3-0.1-0.6-0.2-1l1.5-0.3c0.1,0.3,0.1,0.7,0.2,1L108.9,60.8z M81.5,59.7
				l-1.1-1.1l0.7-0.7l1.1,1.1L81.5,59.7z M108.3,57.9c-0.1-0.3-0.2-0.6-0.2-0.9l1.4-0.4c0.1,0.3,0.2,0.7,0.3,1L108.3,57.9z
				 M83.6,57.6l-1.1-1.1l0.7-0.7l1.1,1.1L83.6,57.6z M85.7,55.5l-1.1-1.1l0.7-0.7l1.1,1.1L85.7,55.5z M107.5,55.1
				c-0.1-0.3-0.2-0.6-0.3-0.9l1.4-0.5c0.1,0.3,0.2,0.6,0.3,1L107.5,55.1z M87.8,53.4l-1.1-1.1l0.7-0.7l1.1,1.1L87.8,53.4z
				 M106.5,52.3c-0.1-0.3-0.3-0.6-0.4-0.9l1.4-0.6c0.1,0.3,0.3,0.6,0.4,0.9L106.5,52.3z M89.9,51.3l-1.1-1.1l0.7-0.7l1.1,1.1
				L89.9,51.3z M105.2,49.7c-0.2-0.3-0.3-0.6-0.5-0.9l1.3-0.7c0.2,0.3,0.3,0.6,0.5,0.9L105.2,49.7z M92.1,49.1L91,48.1l0.7-0.7
				l1.1,1.1L92.1,49.1z M103.7,47.2c-0.2-0.3-0.4-0.5-0.5-0.8l1.2-0.8c0.2,0.3,0.4,0.6,0.6,0.9L103.7,47.2z M94.2,47L93.1,46
				l0.7-0.7l1.1,1.1L94.2,47z M96.3,44.9l-1.1-1.1l0.7-0.7l1.1,1.1L96.3,44.9z M102,44.8c-0.2-0.3-0.4-0.5-0.6-0.8l1.2-0.9
				c0.2,0.3,0.4,0.5,0.6,0.8L102,44.8z M98.4,42.8l-1.1-1.1l0.7-0.7l1.1,1.1L98.4,42.8z M100.1,42.5c-0.2-0.2-0.4-0.5-0.7-0.7l1.1-1
				c0.2,0.2,0.5,0.5,0.7,0.7L100.1,42.5z"/>
		</g>
		<g>
			<path fill="#E6E9EE" d="M112.3,71.6c-1.3,24.9-22,44.9-47.2,44.9c-11.8,0-23-4.3-31.7-12.2l32.7-32.7H112.3z"/>
		</g>
		<g>
			<path fill="#FFD05B" d="M31.8,38.2C23.9,45,18.9,55,18.9,66.2h36.8l0,0L31.8,38.2z"/>
		</g>
		<g>
			<path fill="#84DBFF" d="M96.8,34L65.3,65.5L36.3,31.7c8.2-6.4,18.4-9.9,28.9-9.9C76.9,21.9,88.1,26.2,96.8,34z"/>
		</g>
		<path fill="#FFFFFF" d="M59.3,97.4l-9.6-0.1c-2.2-2.3-5-4-8.3-5c-9.9-2.8-20.1,3-22.9,12.8c-2.8,9.9,3,20.1,12.8,22.9
			c9.9,2.8,20.1-3,22.9-12.8c0.9-3.3,0.9-6.6,0.1-9.7L59.3,97.4z"/>
		<g>
			<g>
				<path fill="#231F20" d="M28.2,114.2c-2,0-3.6-1.6-3.6-3.6c0-2,1.6-3.6,3.6-3.6c2,0,3.6,1.6,3.6,3.6
					C31.8,112.6,30.2,114.2,28.2,114.2z M28.2,108.5c-1.2,0-2.1,0.9-2.1,2.1c0,1.2,0.9,2.1,2.1,2.1s2.1-0.9,2.1-2.1
					C30.3,109.5,29.3,108.5,28.2,108.5z"/>
			</g>
			<g>
				<path fill="#231F20" d="M36.3,114.2c-2,0-3.6-1.6-3.6-3.6c0-2,1.6-3.6,3.6-3.6c2,0,3.6,1.6,3.6,3.6
					C39.9,112.6,38.3,114.2,36.3,114.2z M36.3,108.5c-1.2,0-2.1,0.9-2.1,2.1c0,1.2,0.9,2.1,2.1,2.1c1.2,0,2.1-0.9,2.1-2.1
					C38.4,109.5,37.4,108.5,36.3,108.5z"/>
			</g>
			<g>
				<path fill="#231F20" d="M44.4,114.2c-2,0-3.6-1.6-3.6-3.6c0-2,1.6-3.6,3.6-3.6c2,0,3.6,1.6,3.6,3.6
					C48,112.6,46.4,114.2,44.4,114.2z M44.4,108.5c-1.2,0-2.1,0.9-2.1,2.1c0,1.2,0.9,2.1,2.1,2.1c1.2,0,2.1-0.9,2.1-2.1
					C46.5,109.5,45.5,108.5,44.4,108.5z"/>
			</g>
		</g>
		<g>
			<g>
				<path fill="#231F20" d="M83.9,90.7c-0.2,0-0.4-0.1-0.5-0.2c-0.3-0.3-0.3-0.8,0-1.1l1.3-1.3c0.3-0.3,0.8-0.3,1.1,0
					c0.3,0.3,0.3,0.8,0,1.1l-1.3,1.3C84.3,90.6,84.1,90.7,83.9,90.7z"/>
			</g>
			<g>
				<path fill="#231F20" d="M79.9,94.7c-0.2,0-0.4-0.1-0.5-0.2c-0.3-0.3-0.3-0.8,0-1.1l1.3-1.3c0.3-0.3,0.8-0.3,1.1,0s0.3,0.8,0,1.1
					l-1.3,1.3C80.3,94.6,80.1,94.7,79.9,94.7z"/>
			</g>
			<g>
				<path fill="#231F20" d="M85.2,94.7c-0.2,0-0.4-0.1-0.5-0.2l-1.3-1.3c-0.3-0.3-0.3-0.8,0-1.1c0.3-0.3,0.8-0.3,1.1,0l1.3,1.3
					c0.3,0.3,0.3,0.8,0,1.1C85.6,94.6,85.4,94.7,85.2,94.7z"/>
			</g>
			<g>
				<path fill="#231F20" d="M81.2,90.7c-0.2,0-0.4-0.1-0.5-0.2l-1.3-1.3c-0.3-0.3-0.3-0.8,0-1.1c0.3-0.3,0.8-0.3,1.1,0l1.3,1.3
					c0.3,0.3,0.3,0.8,0,1.1C81.5,90.6,81.4,90.7,81.2,90.7z"/>
			</g>
		</g>
		<path fill="#231F20" d="M106.9,6.7c-1.9,0-3.4-1.5-3.4-3.4c0-1.9,1.5-3.4,3.4-3.4c1.9,0,3.4,1.5,3.4,3.4
			C110.3,5.2,108.8,6.7,106.9,6.7z M106.9,1.5c-1,0-1.9,0.8-1.9,1.9s0.8,1.9,1.9,1.9c1,0,1.9-0.8,1.9-1.9S107.9,1.5,106.9,1.5z"/>
		<circle fill="#FFFFFF" cx="65.1" cy="20.1" r="18.2"/>
		<path fill="#FFFFFF" d="M65.1,6c7.8,0,14.1,6.3,14.1,14.1"/>
		<path fill="#231F20" d="M80,20.1h-1.5c0-7.4-6-13.3-13.3-13.3V5.2C73.3,5.2,80,11.9,80,20.1z"/>
		<path fill="#FFFFFF" d="M65.1,44.9L65.1,44.9c-1.8,0-3.2,1.4-3.2,3.2v15c0,1.8,1.4,3.2,3.2,3.2l0,0c1.8,0,3.2-1.4,3.2-3.2v-15
			C68.4,46.3,66.9,44.9,65.1,44.9z"/>
		<g>
			<path fill="#231F20" d="M18.4,100.2c-0.2-0.3-0.4-0.5-0.5-0.8l-1.3,0.8c0.2,0.3,0.4,0.6,0.6,0.8L18.4,100.2z"/>
			<path fill="#231F20" d="M16.4,96.9l-1.3,0.7c0.2,0.3,0.3,0.6,0.5,0.9l1.3-0.8C16.7,97.5,16.5,97.2,16.4,96.9z"/>
			<path fill="#231F20" d="M15,94.3l-1.3,0.7c0.2,0.3,0.3,0.6,0.5,0.9l1.3-0.7C15.3,94.9,15.1,94.6,15,94.3z"/>
			<path fill="#231F20" d="M13.7,91.6l-1.4,0.6c0.1,0.3,0.3,0.6,0.4,0.9l1.4-0.6C14,92.2,13.8,91.9,13.7,91.6z"/>
			<path fill="#231F20" d="M12.6,88.9l-1.4,0.5c0.1,0.3,0.2,0.6,0.4,0.9l1.4-0.6C12.8,89.5,12.7,89.2,12.6,88.9z"/>
			<path fill="#231F20" d="M11.6,86.1l-1.4,0.5c0.1,0.3,0.2,0.6,0.3,1l1.4-0.5C11.8,86.7,11.7,86.4,11.6,86.1z"/>
			<path fill="#231F20" d="M22.1,33.2l-1.1-1c-0.2,0.3-0.4,0.5-0.6,0.8l1.2,0.9C21.7,33.7,21.9,33.4,22.1,33.2z"/>
			<path fill="#231F20" d="M30.6,24.9l-0.9-1.2c-0.3,0.2-0.5,0.4-0.8,0.6l0.9,1.2C30.1,25.4,30.4,25.2,30.6,24.9z"/>
			<path fill="#231F20" d="M33,23.2L32.1,22c-0.3,0.2-0.6,0.4-0.8,0.6l0.9,1.2C32.5,23.6,32.7,23.4,33,23.2z"/>
			<path fill="#231F20" d="M28.3,26.8l-1-1.1c-0.3,0.2-0.5,0.4-0.8,0.7l1,1.1C27.8,27.3,28.1,27,28.3,26.8z"/>
			<path fill="#231F20" d="M24.1,30.9l-1.1-1c-0.2,0.2-0.5,0.5-0.7,0.7l1.1,1C23.6,31.4,23.9,31.2,24.1,30.9z"/>
			<path fill="#231F20" d="M26.1,28.8l-1-1.1c-0.2,0.2-0.5,0.5-0.7,0.7l1.1,1.1C25.7,29.3,25.9,29.1,26.1,28.8z"/>
			<path fill="#231F20" d="M18.6,37.9l-1.2-0.8c-0.2,0.3-0.4,0.6-0.6,0.8l1.3,0.8C18.2,38.4,18.4,38.2,18.6,37.9z"/>
			<path fill="#231F20" d="M13,48.4l-1.4-0.6c-0.1,0.3-0.2,0.6-0.4,0.9l1.4,0.5C12.8,49,12.9,48.7,13,48.4z"/>
			<path fill="#231F20" d="M14.2,45.6L12.8,45c-0.1,0.3-0.3,0.6-0.4,0.9l1.4,0.6C13.9,46.2,14.1,45.9,14.2,45.6z"/>
			<path fill="#231F20" d="M12,51.1l-1.4-0.5c-0.1,0.3-0.2,0.6-0.3,1l1.4,0.5C11.8,51.8,11.9,51.5,12,51.1z"/>
			<path fill="#231F20" d="M11.1,54l-1.4-0.4c-0.1,0.3-0.2,0.7-0.3,1l1.5,0.4C10.9,54.6,11,54.3,11.1,54z"/>
			<path fill="#231F20" d="M20.3,35.5l-1.2-0.9c-0.2,0.3-0.4,0.5-0.6,0.8l1.2,0.9C19.9,36,20.1,35.7,20.3,35.5z"/>
			<path fill="#231F20" d="M15.5,43l-1.3-0.7c-0.2,0.3-0.3,0.6-0.5,0.9l1.3,0.7C15.2,43.6,15.4,43.3,15.5,43z"/>
			<path fill="#231F20" d="M10.4,56.8l-1.5-0.3c-0.1,0.3-0.1,0.7-0.2,1l1.5,0.3C10.3,57.5,10.3,57.2,10.4,56.8z"/>
			<path fill="#231F20" d="M17,40.4l-1.3-0.8c-0.2,0.3-0.3,0.6-0.5,0.9l1.3,0.7C16.6,41,16.8,40.7,17,40.4z"/>
			<path fill="#231F20" d="M9.4,62.7l-1.5-0.2c0,0.3-0.1,0.7-0.1,1l1.5,0.1C9.3,63.3,9.4,63,9.4,62.7z"/>
			<path fill="#231F20" d="M9.3,74.5l-1.5,0.1c0,0.3,0.1,0.7,0.1,1l1.5-0.2C9.4,75.2,9.3,74.8,9.3,74.5z"/>
			<path fill="#231F20" d="M9.1,71.5l-1.5,0.1c0,0.3,0,0.7,0.1,1l1.5-0.1C9.1,72.2,9.1,71.9,9.1,71.5z"/>
			<path fill="#231F20" d="M9.7,77.4l-1.5,0.2c0,0.3,0.1,0.7,0.2,1l1.5-0.2C9.8,78.1,9.7,77.8,9.7,77.4z"/>
			<path fill="#231F20" d="M10.2,80.4l-1.5,0.3c0.1,0.3,0.1,0.7,0.2,1l1.5-0.3C10.3,81,10.2,80.7,10.2,80.4z"/>
			<path fill="#231F20" d="M10.8,83.2l-1.5,0.4c0.1,0.3,0.2,0.7,0.3,1l1.4-0.4C11,83.9,10.9,83.6,10.8,83.2z"/>
			<path fill="#231F20" d="M9.8,59.8l-1.5-0.2c-0.1,0.3-0.1,0.7-0.2,1l1.5,0.2C9.7,60.4,9.8,60.1,9.8,59.8z"/>
			<path fill="#231F20" d="M9.2,65.6l-1.5-0.1c0,0.3,0,0.7-0.1,1l1.5,0.1C9.1,66.3,9.1,66,9.2,65.6z"/>
			<polygon fill="#231F20" points="9,69.2 9,68.6 7.5,68.6 7.5,69.2 7.5,69.6 9,69.6 			"/>
			<path fill="#231F20" d="M95.3,20.1c-0.3-0.2-0.6-0.4-0.9-0.5l-0.8,1.3c0.3,0.2,0.6,0.3,0.8,0.5L95.3,20.1z"/>
			<path fill="#231F20" d="M97.8,21.7c-0.3-0.2-0.6-0.4-0.8-0.6l-0.8,1.2c0.3,0.2,0.5,0.4,0.8,0.6L97.8,21.7z"/>
			<path fill="#231F20" d="M102.6,25.5c-0.3-0.2-0.5-0.4-0.8-0.7l-1,1.2c0.3,0.2,0.5,0.4,0.8,0.6L102.6,25.5z"/>
			<path fill="#231F20" d="M92.6,18.6c-0.3-0.2-0.6-0.3-0.9-0.5L91,19.4c0.3,0.2,0.6,0.3,0.9,0.5L92.6,18.6z"/>
			<path fill="#231F20" d="M100.3,23.5c-0.3-0.2-0.5-0.4-0.8-0.6l-0.9,1.2c0.3,0.2,0.5,0.4,0.8,0.6L100.3,23.5z"/>
			<path fill="#231F20" d="M89.9,17.2c-0.3-0.1-0.6-0.3-0.9-0.4l-0.6,1.4c0.3,0.1,0.6,0.3,0.9,0.4L89.9,17.2z"/>
			<path fill="#231F20" d="M87.1,15.9c-0.3-0.1-0.6-0.3-0.9-0.4L85.7,17c0.3,0.1,0.6,0.2,0.9,0.4L87.1,15.9z"/>
			<path fill="#231F20" d="M107,29.7c-0.2-0.2-0.5-0.5-0.7-0.7l-1.1,1c0.2,0.2,0.5,0.5,0.7,0.7L107,29.7z"/>
			<path fill="#231F20" d="M115.9,45.3l1.4-0.6c-0.1-0.3-0.3-0.6-0.4-0.9l-1.3,0.7C115.6,44.7,115.7,45,115.9,45.3z"/>
			<path fill="#231F20" d="M114.6,42.6l1.3-0.7c-0.2-0.3-0.3-0.6-0.5-0.9l-1.3,0.7C114.2,42.1,114.4,42.4,114.6,42.6z"/>
			<path fill="#231F20" d="M117.1,48l1.4-0.6c-0.1-0.3-0.3-0.6-0.4-0.9l-1.4,0.6C116.8,47.4,117,47.7,117.1,48z"/>
			<path fill="#231F20" d="M113.1,40.1l1.3-0.8c-0.2-0.3-0.4-0.6-0.5-0.9l-1.3,0.8C112.7,39.5,112.9,39.8,113.1,40.1z"/>
			<path fill="#231F20" d="M111,34.3c-0.2-0.3-0.4-0.5-0.6-0.8l-1.2,0.9c0.2,0.3,0.4,0.5,0.6,0.8L111,34.3z"/>
			<path fill="#231F20" d="M109,31.9c-0.2-0.3-0.4-0.5-0.7-0.8l-1.1,1c0.2,0.2,0.4,0.5,0.6,0.7L109,31.9z"/>
			<path fill="#231F20" d="M111.5,37.6l1.2-0.8c-0.2-0.3-0.4-0.6-0.6-0.8l-1.2,0.9C111.1,37.1,111.3,37.3,111.5,37.6z"/>
			<path fill="#231F20" d="M104.9,27.5c-0.2-0.2-0.5-0.5-0.7-0.7l-1,1.1c0.2,0.2,0.5,0.4,0.7,0.7L104.9,27.5z"/>
			<path fill="#231F20" d="M43.3,17.5l-0.6-1.4c-0.3,0.1-0.6,0.3-0.9,0.4l0.6,1.4C42.7,17.7,43,17.6,43.3,17.5z"/>
			<path fill="#231F20" d="M46.1,16.4L45.5,15c-0.3,0.1-0.6,0.2-0.9,0.4l0.5,1.4C45.4,16.6,45.7,16.5,46.1,16.4z"/>
			<path fill="#231F20" d="M38,20.1l-0.7-1.3c-0.3,0.2-0.6,0.3-0.9,0.5l0.8,1.3C37.4,20.4,37.7,20.2,38,20.1z"/>
			<path fill="#231F20" d="M40.6,18.7L40,17.4c-0.3,0.1-0.6,0.3-0.9,0.4l0.7,1.3C40,19,40.3,18.8,40.6,18.7z"/>
			<path fill="#231F20" d="M35.5,21.6l-0.8-1.3c-0.3,0.2-0.6,0.4-0.9,0.5l0.8,1.3C34.9,21.9,35.2,21.7,35.5,21.6z"/>
			<path fill="#231F20" d="M118.6,47.8l-1.4,0.6c2.6,6.6,4,13.6,4,20.8c0,30.9-25.2,56.1-56.1,56.1c-4.9,0-9.8-0.7-14.5-1.9
				c2-2.2,3.6-4.9,4.4-7.9c0.9-3.2,1-6.5,0.2-9.7l5.5-9.1l-10.6-0.1c-2.3-2.3-5.2-4-8.4-4.9c-1.7-0.5-3.5-0.7-5.2-0.7
				c-8.6,0-16.2,5.8-18.6,14.1c-2.9,10.2,3.1,20.9,13.3,23.8c1.7,0.5,3.5,0.7,5.2,0.7c0,0,0,0,0,0c4.9,0,9.4-1.9,12.9-5
				c5.1,1.5,10.4,2.2,15.8,2.2c31.8,0,57.6-25.8,57.6-57.6C122.7,61.8,121.3,54.6,118.6,47.8z M36.5,128L36.5,128
				c-1.6,0-3.3-0.2-4.8-0.7c-9.4-2.7-15-12.5-12.3-22c2.2-7.6,9.2-13,17.1-13c1.6,0,3.3,0.2,4.8,0.7c3,0.8,5.8,2.5,7.9,4.8l0.2,0.2
				l8.6,0.1l-4.4,7.3l0.1,0.3c0.8,3.1,0.8,6.3-0.1,9.3C51.4,122.7,44.4,128,36.5,128z"/>
			<path fill="#231F20" d="M64.4,39v5.2c-1.8,0.4-3.2,2-3.2,3.9v15c0,2.2,1.8,4,4,4c2.2,0,4-1.8,4-4v-15c0-1.9-1.4-3.6-3.2-3.9V39
				C76,38.6,84,30.3,84,20.1c0-1.3-0.1-2.6-0.4-3.9c0.1,0,0.1,0,0.2,0.1l0.5-1.4c-0.3-0.1-0.6-0.2-1-0.3l-0.1,0.3
				C81,6.9,73.7,1.2,65.1,1.2c-10.4,0-18.9,8.5-18.9,18.9C46.2,30.3,54.3,38.6,64.4,39z M67.6,63.1c0,1.4-1.1,2.5-2.5,2.5
				c-1.4,0-2.5-1.1-2.5-2.5V62h5V63.1z M67.6,60.5h-5v-9.7h5V60.5z M67.6,48.1v1.2h-5v-1.2c0-1.4,1.1-2.5,2.5-2.5
				C66.5,45.6,67.6,46.7,67.6,48.1z M65.1,2.7c9.6,0,17.4,7.8,17.4,17.4s-7.8,17.4-17.4,17.4c-9.6,0-17.4-7.8-17.4-17.4
				S55.5,2.7,65.1,2.7z"/>
		</g>
	</g>
</g>
</svg>
