<?xml version="1.0" encoding="utf-8"?>
<!-- Generator: Adobe Illustrator 18.0.0, SVG Export Plug-In . SVG Version: 6.00 Build 0)  -->
<!DOCTYPE svg PUBLIC "-//W3C//DTD SVG 1.1//EN" "http://www.w3.org/Graphics/SVG/1.1/DTD/svg11.dtd">
<svg version="1.1" id="Layer_1" xmlns="http://www.w3.org/2000/svg" xmlns:xlink="http://www.w3.org/1999/xlink" x="0px" y="0px"
	 viewBox="0 0 129.5 129.5" enable-background="new 0 0 129.5 129.5" xml:space="preserve">
<g>
	<g>
		<g>
			<polygon fill="#E6E9EE" points="90.3,21.1 110.5,41.3 110.5,21.1 			"/>
		</g>
		<polygon fill="#FFFFFF" points="94.9,120.8 94.9,128.7 3.7,128.7 3.7,16.6 11.6,16.6 11.6,120.8 		"/>
		<polygon fill="#FFFFFF" points="102.8,112.9 102.8,120.8 11.6,120.8 11.6,8.7 19.5,8.7 19.5,112.9 		"/>
		<g>
			<g>
				<line fill="#FFFFFF" x1="28.4" y1="52.9" x2="57.2" y2="52.9"/>
				<rect x="28.4" y="52.1" fill="#231F20" width="28.7" height="1.5"/>
			</g>
			<g>
				<line fill="#FFFFFF" x1="60.7" y1="52.9" x2="105.2" y2="52.9"/>
				<rect x="60.7" y="52.1" fill="#231F20" width="44.6" height="1.5"/>
			</g>
		</g>
		<g>
			<g>
				<line fill="#FFFFFF" x1="28.4" y1="59.5" x2="72.2" y2="59.5"/>
				<rect x="28.4" y="58.7" fill="#231F20" width="43.8" height="1.5"/>
			</g>
			<g>
				<line fill="#FFFFFF" x1="75.7" y1="59.5" x2="105.2" y2="59.5"/>
				<rect x="75.7" y="58.7" fill="#231F20" width="29.6" height="1.5"/>
			</g>
		</g>
		<g>
			<g>
				<line fill="#FFFFFF" x1="28.4" y1="66.1" x2="48.6" y2="66.1"/>
				<rect x="28.4" y="65.4" fill="#231F20" width="20.1" height="1.5"/>
			</g>
			<g>
				<line fill="#FFFFFF" x1="52.1" y1="66.1" x2="105.2" y2="66.1"/>
				<rect x="52.1" y="65.4" fill="#231F20" width="53.2" height="1.5"/>
			</g>
		</g>
		<g>
			<g>
				<line fill="#FFFFFF" x1="28.4" y1="72.7" x2="53.7" y2="72.7"/>
				<rect x="28.4" y="72" fill="#231F20" width="25.3" height="1.5"/>
			</g>
			<g>
				<line fill="#FFFFFF" x1="57.2" y1="72.7" x2="105.2" y2="72.7"/>
				<rect x="57.2" y="72" fill="#231F20" width="48" height="1.5"/>
			</g>
		</g>
		<g>
			<g>
				<line fill="#FFFFFF" x1="28.4" y1="79.4" x2="65.1" y2="79.4"/>
				<rect x="28.4" y="78.6" fill="#231F20" width="36.7" height="1.5"/>
			</g>
			<g>
				<line fill="#FFFFFF" x1="68.6" y1="79.4" x2="105.2" y2="79.4"/>
				<rect x="68.6" y="78.6" fill="#231F20" width="36.7" height="1.5"/>
			</g>
		</g>
		<g>
			<g>
				<line fill="#FFFFFF" x1="28.4" y1="86" x2="42.4" y2="86"/>
				<rect x="28.4" y="85.2" fill="#231F20" width="14" height="1.5"/>
			</g>
			<g>
				<line fill="#FFFFFF" x1="45.9" y1="86" x2="105.2" y2="86"/>
				<rect x="45.9" y="85.2" fill="#231F20" width="59.4" height="1.5"/>
			</g>
		</g>
		<g>
			<g>
				<line fill="#FFFFFF" x1="28.4" y1="92.6" x2="57.2" y2="92.6"/>
				<rect x="28.4" y="91.8" fill="#231F20" width="28.8" height="1.5"/>
			</g>
			<g>
				<line fill="#FFFFFF" x1="60.7" y1="92.6" x2="105.2" y2="92.6"/>
				<rect x="60.7" y="91.8" fill="#231F20" width="44.6" height="1.5"/>
			</g>
		</g>
		<polygon fill="#FFFFFF" points="90.3,0.7 90.3,21.1 110.7,21.1 		"/>
		<path fill="#231F20" d="M111.2,20.6L90.9,0.2C90.7,0.1,90.5,0,90.3,0H19.5c-0.4,0-0.8,0.3-0.8,0.8v7.2h-7.2
			c-0.4,0-0.8,0.3-0.8,0.8v7.2H3.7c-0.4,0-0.8,0.3-0.8,0.8v112.2c0,0.4,0.3,0.8,0.8,0.8h91.2c0.4,0,0.8-0.3,0.8-0.8v-7.2h7.2
			c0.4,0,0.8-0.3,0.8-0.8v-7.2h7.2c0.4,0,0.8-0.3,0.8-0.8V21.1C111.5,20.9,111.4,20.7,111.2,20.6z M91.1,2.6l17.8,17.8H91.1V2.6z
			 M94.1,128H4.4V17.3h6.4v103.5c0,0.4,0.3,0.8,0.8,0.8h82.6V128z M102.1,120.1H12.3V9.4h6.4v103.5c0,0.3,0.2,0.6,0.5,0.7
			c0.1,0,0.2,0.1,0.3,0.1h82.6V120.1z M110,112.2H20.2l0-110.7h69.3v19.6c0,0.4,0.3,0.8,0.8,0.8H110V112.2z"/>
		<g>
			<polygon fill="#FF7058" points="92.3,19.1 92.3,5.6 105.9,19.1 			"/>
		</g>
		<g>
			<circle fill="#84DBFF" cx="124.1" cy="52.7" r="2.5"/>
		</g>
		<g>
			<circle fill="#FFD05B" cx="73.9" cy="24.6" r="2.7"/>
		</g>
		<g>
			<circle fill="#E6E9EE" cx="34.1" cy="102.1" r="2.7"/>
		</g>
		<g>
			<g>
				<path fill="#231F20" d="M116.3,7.8c-0.2,0-0.4-0.1-0.5-0.2c-0.3-0.3-0.3-0.8,0-1.1l1.3-1.3c0.3-0.3,0.8-0.3,1.1,0
					c0.3,0.3,0.3,0.8,0,1.1l-1.3,1.3C116.7,7.7,116.5,7.8,116.3,7.8z"/>
			</g>
			<g>
				<path fill="#231F20" d="M112.2,11.8c-0.2,0-0.4-0.1-0.5-0.2c-0.3-0.3-0.3-0.8,0-1.1l1.3-1.3c0.3-0.3,0.8-0.3,1.1,0
					c0.3,0.3,0.3,0.8,0,1.1l-1.3,1.3C112.6,11.7,112.4,11.8,112.2,11.8z"/>
			</g>
			<g>
				<path fill="#231F20" d="M117.6,11.8c-0.2,0-0.4-0.1-0.5-0.2l-1.3-1.3c-0.3-0.3-0.3-0.8,0-1.1c0.3-0.3,0.8-0.3,1.1,0l1.3,1.3
					c0.3,0.3,0.3,0.8,0,1.1C117.9,11.7,117.8,11.8,117.6,11.8z"/>
			</g>
			<g>
				<path fill="#231F20" d="M113.5,7.8c-0.2,0-0.4-0.1-0.5-0.2l-1.3-1.3c-0.3-0.3-0.3-0.8,0-1.1c0.3-0.3,0.8-0.3,1.1,0l1.3,1.3
					c0.3,0.3,0.3,0.8,0,1.1C113.9,7.7,113.7,7.8,113.5,7.8z"/>
			</g>
		</g>
		<g>
			<g>
				<path fill="#231F20" d="M120.3,119.8c-0.2,0-0.4-0.1-0.5-0.2c-0.3-0.3-0.3-0.8,0-1.1l1.3-1.3c0.3-0.3,0.8-0.3,1.1,0
					c0.3,0.3,0.3,0.8,0,1.1l-1.3,1.3C120.7,119.7,120.5,119.8,120.3,119.8z"/>
			</g>
			<g>
				<path fill="#231F20" d="M116.3,123.8c-0.2,0-0.4-0.1-0.5-0.2c-0.3-0.3-0.3-0.8,0-1.1l1.3-1.3c0.3-0.3,0.8-0.3,1.1,0
					c0.3,0.3,0.3,0.8,0,1.1l-1.3,1.3C116.7,123.7,116.5,123.8,116.3,123.8z"/>
			</g>
			<g>
				<path fill="#231F20" d="M121.6,123.8c-0.2,0-0.4-0.1-0.5-0.2l-1.3-1.3c-0.3-0.3-0.3-0.8,0-1.1c0.3-0.3,0.8-0.3,1.1,0l1.3,1.3
					c0.3,0.3,0.3,0.8,0,1.1C122,123.7,121.8,123.8,121.6,123.8z"/>
			</g>
			<g>
				<path fill="#231F20" d="M117.6,119.8c-0.2,0-0.4-0.1-0.5-0.2l-1.3-1.3c-0.3-0.3-0.3-0.8,0-1.1c0.3-0.3,0.8-0.3,1.1,0l1.3,1.3
					c0.3,0.3,0.3,0.8,0,1.1C117.9,119.7,117.8,119.8,117.6,119.8z"/>
			</g>
		</g>
		<g>
			<g>
				<path fill="#231F20" d="M80,39.9c-0.2,0-0.4-0.1-0.5-0.2c-0.3-0.3-0.3-0.8,0-1.1l1.3-1.3c0.3-0.3,0.8-0.3,1.1,0
					c0.3,0.3,0.3,0.8,0,1.1l-1.3,1.3C80.4,39.9,80.2,39.9,80,39.9z"/>
			</g>
			<g>
				<path fill="#231F20" d="M76,44c-0.2,0-0.4-0.1-0.5-0.2c-0.3-0.3-0.3-0.8,0-1.1l1.3-1.3c0.3-0.3,0.8-0.3,1.1,0
					c0.3,0.3,0.3,0.8,0,1.1l-1.3,1.3C76.4,43.9,76.2,44,76,44z"/>
			</g>
			<g>
				<path fill="#231F20" d="M81.3,44c-0.2,0-0.4-0.1-0.5-0.2l-1.3-1.3c-0.3-0.3-0.3-0.8,0-1.1c0.3-0.3,0.8-0.3,1.1,0l1.3,1.3
					c0.3,0.3,0.3,0.8,0,1.1C81.7,43.9,81.5,44,81.3,44z"/>
			</g>
			<g>
				<path fill="#231F20" d="M77.3,39.9c-0.2,0-0.4-0.1-0.5-0.2l-1.3-1.3c-0.3-0.3-0.3-0.8,0-1.1c0.3-0.3,0.8-0.3,1.1,0l1.3,1.3
					c0.3,0.3,0.3,0.8,0,1.1C77.7,39.9,77.5,39.9,77.3,39.9z"/>
			</g>
		</g>
		<g>
			<rect x="30" y="8.7" fill="#84DBFF" width="29.1" height="34.6"/>
		</g>
		<g>
			<path fill="#231F20" d="M44.6,25.3c-3.3,0-6-2.7-6-6c0-3.3,2.7-6,6-6c3.3,0,6,2.7,6,6C50.6,22.6,47.9,25.3,44.6,25.3z M44.6,14.7
				c-2.5,0-4.5,2-4.5,4.5c0,2.5,2,4.5,4.5,4.5c2.5,0,4.5-2,4.5-4.5C49.1,16.8,47.1,14.7,44.6,14.7z"/>
		</g>
		<g>
			<path fill="#231F20" d="M55.1,37.3h-1.5c0-5-4.1-9-9-9c-5,0-9,4.1-9,9H34c0-5.8,4.7-10.5,10.5-10.5S55.1,31.5,55.1,37.3z"/>
		</g>
	</g>
</g>
</svg>
