<?xml version="1.0" encoding="utf-8"?>
<!-- Generator: Adobe Illustrator 18.0.0, SVG Export Plug-In . SVG Version: 6.00 Build 0)  -->
<!DOCTYPE svg PUBLIC "-//W3C//DTD SVG 1.1//EN" "http://www.w3.org/Graphics/SVG/1.1/DTD/svg11.dtd">
<svg version="1.1" id="Layer_1" xmlns="http://www.w3.org/2000/svg" xmlns:xlink="http://www.w3.org/1999/xlink" x="0px" y="0px"
	 viewBox="0 0 129.5 129.5" enable-background="new 0 0 129.5 129.5" xml:space="preserve">
<g>
	<g>
		<polygon fill="#E6E9EE" points="82.6,126.5 82.6,91.2 91.5,91.2 91.5,82.4 126.7,82.4 126.7,126.5 		"/>
		<path fill="#231F20" d="M111,7.2c-0.2,0-0.4-0.1-0.5-0.2c-0.3-0.3-0.3-0.8,0-1.1l1.3-1.3c0.3-0.3,0.8-0.3,1.1,0
			c0.3,0.3,0.3,0.8,0,1.1L111.6,7C111.4,7.1,111.2,7.2,111,7.2z"/>
		<path fill="#231F20" d="M107,11.2c-0.2,0-0.4-0.1-0.5-0.2c-0.3-0.3-0.3-0.8,0-1.1l1.3-1.3c0.3-0.3,0.8-0.3,1.1,0
			c0.3,0.3,0.3,0.8,0,1.1l-1.3,1.3C107.4,11.2,107.2,11.2,107,11.2z"/>
		<path fill="#231F20" d="M112.3,11.2c-0.2,0-0.4-0.1-0.5-0.2l-1.3-1.3c-0.3-0.3-0.3-0.8,0-1.1c0.3-0.3,0.8-0.3,1.1,0l1.3,1.3
			c0.3,0.3,0.3,0.8,0,1.1C112.7,11.2,112.5,11.2,112.3,11.2z"/>
		<path fill="#231F20" d="M108.3,7.2c-0.2,0-0.4-0.1-0.5-0.2l-1.3-1.3c-0.3-0.3-0.3-0.8,0-1.1c0.3-0.3,0.8-0.3,1.1,0l1.3,1.3
			c0.3,0.3,0.3,0.8,0,1.1C108.7,7.1,108.5,7.2,108.3,7.2z"/>
		<path fill="#231F20" d="M14.8,99.1c-0.2,0-0.4-0.1-0.5-0.2c-0.3-0.3-0.3-0.8,0-1.1l1.3-1.3c0.3-0.3,0.8-0.3,1.1,0
			c0.3,0.3,0.3,0.8,0,1.1l-1.3,1.3C15.2,99.1,15,99.1,14.8,99.1z"/>
		<path fill="#231F20" d="M10.8,103.2c-0.2,0-0.4-0.1-0.5-0.2c-0.3-0.3-0.3-0.8,0-1.1l1.3-1.3c0.3-0.3,0.8-0.3,1.1,0
			c0.3,0.3,0.3,0.8,0,1.1l-1.3,1.3C11.2,103.1,11,103.2,10.8,103.2z"/>
		<path fill="#231F20" d="M16.1,103.2c-0.2,0-0.4-0.1-0.5-0.2l-1.3-1.3c-0.3-0.3-0.3-0.8,0-1.1c0.3-0.3,0.8-0.3,1.1,0l1.3,1.3
			c0.3,0.3,0.3,0.8,0,1.1C16.5,103.1,16.3,103.2,16.1,103.2z"/>
		<path fill="#231F20" d="M12.1,99.1c-0.2,0-0.4-0.1-0.5-0.2l-1.3-1.3c-0.3-0.3-0.3-0.8,0-1.1c0.3-0.3,0.8-0.3,1.1,0l1.3,1.3
			c0.3,0.3,0.3,0.8,0,1.1C12.5,99.1,12.3,99.1,12.1,99.1z"/>
		<path fill="#231F20" d="M109.7,51.2c-0.2,0-0.4-0.1-0.5-0.2c-0.3-0.3-0.3-0.8,0-1.1l1.3-1.3c0.3-0.3,0.8-0.3,1.1,0
			c0.3,0.3,0.3,0.8,0,1.1l-1.3,1.3C110,51.1,109.8,51.2,109.7,51.2z"/>
		<path fill="#231F20" d="M105.6,55.2c-0.2,0-0.4-0.1-0.5-0.2c-0.3-0.3-0.3-0.8,0-1.1l1.3-1.3c0.3-0.3,0.8-0.3,1.1,0
			c0.3,0.3,0.3,0.8,0,1.1l-1.3,1.3C106,55.1,105.8,55.2,105.6,55.2z"/>
		<path fill="#231F20" d="M110.9,55.2c-0.2,0-0.4-0.1-0.5-0.2l-1.3-1.3c-0.3-0.3-0.3-0.8,0-1.1c0.3-0.3,0.8-0.3,1.1,0l1.3,1.3
			c0.3,0.3,0.3,0.8,0,1.1C111.3,55.1,111.1,55.2,110.9,55.2z"/>
		<path fill="#231F20" d="M106.9,51.2c-0.2,0-0.4-0.1-0.5-0.2l-1.3-1.3c-0.3-0.3-0.3-0.8,0-1.1c0.3-0.3,0.8-0.3,1.1,0l1.3,1.3
			c0.3,0.3,0.3,0.8,0,1.1C107.3,51.1,107.1,51.2,106.9,51.2z"/>
		<path fill="#FFFFFF" d="M79.7,23.2H4c-1.8,0-3.3-1.5-3.3-3.3V3.8C0.8,2,2.2,0.5,4,0.5h75.7C81.5,0.5,83,2,83,3.8v16.1
			C83,21.7,81.5,23.2,79.7,23.2z"/>
		<path fill="#FFFFFF" d="M79.7,51.8H4c-1.8,0-3.3-1.5-3.3-3.3V32.4c0-1.8,1.5-3.3,3.3-3.3h75.7c1.8,0,3.3,1.5,3.3,3.3v16.1
			C83,50.3,81.5,51.8,79.7,51.8z"/>
		<path fill="#FFFFFF" d="M79.7,80.4H4c-1.8,0-3.3-1.5-3.3-3.3V61c0-1.8,1.5-3.3,3.3-3.3h75.7c1.8,0,3.3,1.5,3.3,3.3v16.1
			C83,78.9,81.5,80.4,79.7,80.4z"/>
		<rect x="8.7" y="23.2" fill="#FFFFFF" width="66.4" height="5.9"/>
		<rect x="8.7" y="51.8" fill="#FFFFFF" width="66.4" height="5.9"/>
		<circle fill="#FFFFFF" cx="70.8" cy="11.9" r="4.9"/>
		<path fill="#231F20" d="M70.8,17.5c-3.1,0-5.7-2.5-5.7-5.7c0-3.1,2.5-5.7,5.7-5.7c3.1,0,5.7,2.5,5.7,5.7
			C76.5,15,73.9,17.5,70.8,17.5z M70.8,7.7c-2.3,0-4.2,1.9-4.2,4.2c0,2.3,1.9,4.2,4.2,4.2c2.3,0,4.2-1.9,4.2-4.2
			C75,9.6,73.1,7.7,70.8,7.7z"/>
		<circle fill="#FFFFFF" cx="70.8" cy="40.5" r="4.9"/>
		<path fill="#231F20" d="M70.8,46.1c-3.1,0-5.7-2.5-5.7-5.7c0-3.1,2.5-5.7,5.7-5.7c3.1,0,5.7,2.5,5.7,5.7
			C76.5,43.6,73.9,46.1,70.8,46.1z M70.8,36.3c-2.3,0-4.2,1.9-4.2,4.2c0,2.3,1.9,4.2,4.2,4.2c2.3,0,4.2-1.9,4.2-4.2
			C75,38.2,73.1,36.3,70.8,36.3z"/>
		<circle fill="#FFFFFF" cx="70.8" cy="69" r="4.9"/>
		<path fill="#231F20" d="M70.8,74.7c-3.1,0-5.7-2.5-5.7-5.7s2.5-5.7,5.7-5.7c3.1,0,5.7,2.5,5.7,5.7S73.9,74.7,70.8,74.7z
			 M70.8,64.9c-2.3,0-4.2,1.9-4.2,4.2c0,2.3,1.9,4.2,4.2,4.2c2.3,0,4.2-1.9,4.2-4.2C75,66.7,73.1,64.9,70.8,64.9z"/>
		<circle fill="#FF7058" cx="10.6" cy="11.9" r="2.8"/>
		<circle fill="#FFD05B" cx="21.3" cy="11.9" r="2.8"/>
		<circle fill="#FFFFFF" cx="32.1" cy="11.9" r="2.8"/>
		<path fill="#231F20" d="M32.1,15.5c-2,0-3.6-1.6-3.6-3.6c0-2,1.6-3.6,3.6-3.6c2,0,3.6,1.6,3.6,3.6C35.6,13.9,34,15.5,32.1,15.5z
			 M32.1,9.8c-1.2,0-2.1,0.9-2.1,2.1c0,1.2,0.9,2.1,2.1,2.1c1.2,0,2.1-0.9,2.1-2.1C34.1,10.7,33.2,9.8,32.1,9.8z"/>
		<circle fill="#FFFFFF" cx="42.8" cy="11.9" r="2.8"/>
		<path fill="#231F20" d="M42.8,15.5c-2,0-3.6-1.6-3.6-3.6c0-2,1.6-3.6,3.6-3.6s3.6,1.6,3.6,3.6C46.4,13.9,44.8,15.5,42.8,15.5z
			 M42.8,9.8c-1.2,0-2.1,0.9-2.1,2.1c0,1.2,0.9,2.1,2.1,2.1c1.2,0,2.1-0.9,2.1-2.1C44.9,10.7,43.9,9.8,42.8,9.8z"/>
		<circle fill="#FF7058" cx="10.6" cy="40.5" r="2.8"/>
		<circle fill="#FFD05B" cx="21.3" cy="40.5" r="2.8"/>
		<circle fill="#FFFFFF" cx="32.1" cy="40.5" r="2.8"/>
		<circle fill="#FFFFFF" cx="42.8" cy="40.5" r="2.8"/>
		<circle fill="#FF7058" cx="10.6" cy="69" r="2.8"/>
		<circle fill="#FFFFFF" cx="21.3" cy="69" r="2.8"/>
		<path fill="#231F20" d="M21.3,72.6c-2,0-3.6-1.6-3.6-3.6c0-2,1.6-3.6,3.6-3.6s3.6,1.6,3.6,3.6C24.9,71,23.3,72.6,21.3,72.6z
			 M21.3,66.9c-1.2,0-2.1,0.9-2.1,2.1c0,1.2,0.9,2.1,2.1,2.1s2.1-0.9,2.1-2.1C23.4,67.9,22.5,66.9,21.3,66.9z"/>
		<circle fill="#FFFFFF" cx="32.1" cy="69" r="2.8"/>
		<path fill="#231F20" d="M32.1,72.6c-2,0-3.6-1.6-3.6-3.6c0-2,1.6-3.6,3.6-3.6c2,0,3.6,1.6,3.6,3.6C35.6,71,34,72.6,32.1,72.6z
			 M32.1,66.9c-1.2,0-2.1,0.9-2.1,2.1c0,1.2,0.9,2.1,2.1,2.1c1.2,0,2.1-0.9,2.1-2.1C34.1,67.9,33.2,66.9,32.1,66.9z"/>
		<circle fill="#FFFFFF" cx="42.8" cy="69" r="2.8"/>
		<path fill="#231F20" d="M42.8,72.6c-2,0-3.6-1.6-3.6-3.6c0-2,1.6-3.6,3.6-3.6s3.6,1.6,3.6,3.6C46.4,71,44.8,72.6,42.8,72.6z
			 M42.8,66.9c-1.2,0-2.1,0.9-2.1,2.1c0,1.2,0.9,2.1,2.1,2.1c1.2,0,2.1-0.9,2.1-2.1C44.9,67.9,43.9,66.9,42.8,66.9z"/>
		<circle fill="#FFFFFF" cx="41.9" cy="66.3" r="25"/>
		<circle fill="#FFFFFF" cx="41.9" cy="66.3" r="20.2"/>
		<path fill="#84DBFF" d="M41.9,83.7c-9.6,0-17.3-7.8-17.3-17.3c0-9.6,7.8-17.3,17.3-17.3c9.6,0,17.3,7.8,17.3,17.3
			C59.2,75.9,51.4,83.7,41.9,83.7z"/>
		<rect x="37.1" y="99.8" fill="#FFD05B" width="9.5" height="29.2"/>
		<line fill="#E6E9EE" x1="41.9" y1="99.8" x2="41.9" y2="91.4"/>
		<rect x="41.1" y="91.4" fill="#231F20" width="1.5" height="8.4"/>
		<line fill="#E6E9EE" x1="37.1" y1="105.2" x2="46.6" y2="105.2"/>
		<line fill="#E6E9EE" x1="37.1" y1="122.7" x2="46.6" y2="122.7"/>
		<g>
			<path fill="#231F20" d="M79.7,24c2.2,0,4-1.8,4-4V3.8c0-2.2-1.8-4-4-4H4c-2.2,0-4,1.8-4,4v16.1c0,2.2,1.8,4,4,4h3.9v4.4H4
				c-2.2,0-4,1.8-4,4v16.1c0,2.2,1.8,4,4,4h3.9v4.4H4c-2.2,0-4,1.8-4,4v16.1c0,2.2,1.8,4,4,4h16.7c4.7,6.6,12.4,11,21.1,11
				c8.7,0,16.4-4.4,21.1-11h16.7c2.2,0,4-1.8,4-4V61c0-2.2-1.8-4-4-4h-3.9v-4.4h3.9c2.2,0,4-1.8,4-4V32.4c0-2.2-1.8-4-4-4h-3.9V24
				H79.7z M4,79.6c-1.4,0-2.5-1.1-2.5-2.5V61c0-1.4,1.1-2.5,2.5-2.5h13.3c-0.8,2.5-1.2,5.2-1.2,7.9c0,4.9,1.3,9.4,3.7,13.3H4z
				 M9.4,56.9v-4.4h10.7c-0.9,1.4-1.6,2.8-2.3,4.4H9.4z M41.9,90.6c-13.4,0-24.3-10.9-24.3-24.3s10.9-24.3,24.3-24.3
				S66.2,53,66.2,66.3S55.3,90.6,41.9,90.6z M30,40.5c0-1.2,0.9-2.1,2.1-2.1c1.2,0,2.1,0.9,2.1,2.1c0,0.6-0.3,1.2-0.7,1.5
				c-0.5,0.2-1,0.4-1.5,0.6C30.9,42.5,30,41.6,30,40.5z M40.7,40.5c0-1.2,0.9-2.1,2.1-2.1c1.2,0,2.1,0.9,2.1,2.1c0,0.1,0,0.2,0,0.3
				c-1-0.1-2-0.2-2.9-0.2c-0.4,0-0.8,0-1.2,0C40.7,40.6,40.7,40.5,40.7,40.5z M63.6,52.6h10.7v4.4h-8.5
				C65.3,55.4,64.5,53.9,63.6,52.6z M79.7,58.4c1.4,0,2.5,1.1,2.5,2.5v16.1c0,1.4-1.1,2.5-2.5,2.5H64c2.3-3.9,3.7-8.4,3.7-13.3
				c0-2.8-0.4-5.4-1.2-7.9H79.7z M79.7,29.9c1.4,0,2.5,1.1,2.5,2.5v16.1c0,1.4-1.1,2.5-2.5,2.5H62.6C58.7,45.8,53,42.1,46.3,41
				c0-0.2,0-0.3,0-0.5c0-2-1.6-3.6-3.6-3.6s-3.6,1.6-3.6,3.6c0,0.1,0,0.2,0,0.3c-1.3,0.1-2.5,0.3-3.7,0.7c0.1-0.3,0.1-0.6,0.1-0.9
				c0-2-1.6-3.6-3.6-3.6c-2,0-3.6,1.6-3.6,3.6c0,1.3,0.6,2.3,1.6,3c-3.5,1.8-6.6,4.4-8.9,7.6H4c-1.4,0-2.5-1.1-2.5-2.5V32.4
				c0-1.4,1.1-2.5,2.5-2.5H79.7z M9.4,28.4V24h64.9v4.4H9.4z M4,22.5c-1.4,0-2.5-1.1-2.5-2.5V3.8c0-1.4,1.1-2.5,2.5-2.5h75.7
				c1.4,0,2.5,1.1,2.5,2.5v16.1c0,1.4-1.1,2.5-2.5,2.5H4z"/>
			<path fill="#231F20" d="M41.9,45.4c-11.6,0-21,9.4-21,21c0,11.6,9.4,21,21,21c11.6,0,21-9.4,21-21C62.9,54.8,53.4,45.4,41.9,45.4
				z M41.9,85.8c-10.7,0-19.5-8.7-19.5-19.5c0-10.7,8.7-19.5,19.5-19.5c10.7,0,19.5,8.7,19.5,19.5C61.4,77.1,52.6,85.8,41.9,85.8z"
				/>
			<path fill="#231F20" d="M46.6,99h-9.5c-0.4,0-0.8,0.3-0.8,0.8V129c0,0.4,0.3,0.8,0.8,0.8h9.5c0.4,0,0.8-0.3,0.8-0.8V99.8
				C47.4,99.3,47.1,99,46.6,99z M45.9,128.2h-8v-4.8h8V128.2z M45.9,121.9h-8v-16h8V121.9z M45.9,104.4h-8v-3.9h8V104.4z"/>
		</g>
		<rect x="87.2" y="107" fill="#FFFFFF" width="35" height="21.5"/>
		<path fill="#231F20" d="M128.8,79.6H89.5c-0.2,0-0.4,0.1-0.5,0.2l-8.9,8.9c-0.1,0.1-0.2,0.3-0.2,0.5v39.3c0,0.4,0.3,0.8,0.8,0.8
			h48.2c0.4,0,0.8-0.3,0.8-0.8V80.4C129.5,80,129.2,79.6,128.8,79.6z M88.7,82.2v6.3h-6.3L88.7,82.2z M121.4,127.8H87.9v-20h33.5
			V127.8z M128,127.8h-5.1V107c0-0.4-0.3-0.8-0.8-0.8h-35c-0.4,0-0.8,0.3-0.8,0.8v20.8h-5.1V90h8.1c0.4,0,0.8-0.3,0.8-0.8v-8.1H128
			V127.8z"/>
		<rect x="92" y="111.1" fill="#231F20" width="25.4" height="1.5"/>
		<rect x="92" y="115.4" fill="#231F20" width="25.4" height="1.5"/>
		<rect x="92" y="119.7" fill="#231F20" width="25.4" height="1.5"/>
		<path fill="#231F20" d="M72.5,97.8h-8.1c-0.4,0-0.8-0.3-0.8-0.8c0-0.4,0.3-0.8,0.8-0.8h8.1c0.4,0,0.8,0.3,0.8,0.8
			C73.2,97.5,72.9,97.8,72.5,97.8z"/>
		<path fill="#231F20" d="M65.2,94.8h-4c-0.4,0-0.8-0.3-0.8-0.8c0-0.4,0.3-0.8,0.8-0.8h4c0.4,0,0.8,0.3,0.8,0.8
			C65.9,94.5,65.6,94.8,65.2,94.8z"/>
		<path fill="#231F20" d="M60.7,97.8H57c-0.4,0-0.8-0.3-0.8-0.8c0-0.4,0.3-0.8,0.8-0.8h3.8c0.4,0,0.8,0.3,0.8,0.8
			C61.5,97.5,61.1,97.8,60.7,97.8z"/>
		<path fill="#231F20" d="M68.8,94.8h-0.8c-0.4,0-0.8-0.3-0.8-0.8c0-0.4,0.3-0.8,0.8-0.8h0.8c0.4,0,0.8,0.3,0.8,0.8
			C69.6,94.5,69.2,94.8,68.8,94.8z"/>
		<path fill="#231F20" d="M26.3,122.7h-8.1c-0.4,0-0.8-0.3-0.8-0.8c0-0.4,0.3-0.8,0.8-0.8h8.1c0.4,0,0.8,0.3,0.8,0.8
			C27,122.4,26.7,122.7,26.3,122.7z"/>
		<path fill="#231F20" d="M18.9,119.8h-4c-0.4,0-0.8-0.3-0.8-0.8s0.3-0.8,0.8-0.8h4c0.4,0,0.8,0.3,0.8,0.8S19.4,119.8,18.9,119.8z"
			/>
		<path fill="#231F20" d="M14.5,122.7h-3.8c-0.4,0-0.8-0.3-0.8-0.8c0-0.4,0.3-0.8,0.8-0.8h3.8c0.4,0,0.8,0.3,0.8,0.8
			C15.2,122.4,14.9,122.7,14.5,122.7z"/>
		<path fill="#231F20" d="M22.6,119.8h-0.8c-0.4,0-0.8-0.3-0.8-0.8s0.3-0.8,0.8-0.8h0.8c0.4,0,0.8,0.3,0.8,0.8S23,119.8,22.6,119.8z
			"/>
		<circle fill="#E6E9EE" cx="119.6" cy="26.2" r="2.2"/>
		<circle fill="#84DBFF" cx="97.8" cy="71.9" r="2.2"/>
		<circle fill="#FF7058" cx="95.6" cy="23.2" r="2.2"/>
	</g>
</g>
</svg>
