<?xml version="1.0" encoding="utf-8"?>
<!-- Generator: Adobe Illustrator 18.0.0, SVG Export Plug-In . SVG Version: 6.00 Build 0)  -->
<!DOCTYPE svg PUBLIC "-//W3C//DTD SVG 1.1//EN" "http://www.w3.org/Graphics/SVG/1.1/DTD/svg11.dtd">
<svg version="1.1" id="Layer_1" xmlns="http://www.w3.org/2000/svg" xmlns:xlink="http://www.w3.org/1999/xlink" x="0px" y="0px"
	 viewBox="0 0 129.5 129.5" enable-background="new 0 0 129.5 129.5" xml:space="preserve">
<g>
	<g>
		<g>
			<path fill="#231F20" d="M23.2,89.5c-2.3,0-4.2-1.9-4.2-4.2s1.9-4.2,4.2-4.2c2.3,0,4.2,1.9,4.2,4.2S25.5,89.5,23.2,89.5z
				 M23.2,82.7c-1.5,0-2.7,1.2-2.7,2.7c0,1.5,1.2,2.7,2.7,2.7c1.5,0,2.7-1.2,2.7-2.7C25.9,83.9,24.7,82.7,23.2,82.7z"/>
		</g>
		<g>
			<path fill="#231F20" d="M58.5,94.3c-2.3,0-4.2-1.9-4.2-4.2c0-2.3,1.9-4.2,4.2-4.2c2.3,0,4.2,1.9,4.2,4.2
				C62.6,92.5,60.8,94.3,58.5,94.3z M58.5,87.5c-1.5,0-2.7,1.2-2.7,2.7c0,1.5,1.2,2.7,2.7,2.7c1.5,0,2.7-1.2,2.7-2.7
				C61.1,88.7,59.9,87.5,58.5,87.5z"/>
		</g>
		<g>
			<g>
				<path fill="#231F20" d="M107.1,16.2c-0.2,0-0.4-0.1-0.5-0.2c-0.3-0.3-0.3-0.8,0-1.1l1.3-1.3c0.3-0.3,0.8-0.3,1.1,0
					c0.3,0.3,0.3,0.8,0,1.1l-1.3,1.3C107.5,16.2,107.3,16.2,107.1,16.2z"/>
			</g>
			<g>
				<path fill="#231F20" d="M103.1,20.3c-0.2,0-0.4-0.1-0.5-0.2c-0.3-0.3-0.3-0.8,0-1.1l1.3-1.3c0.3-0.3,0.8-0.3,1.1,0
					c0.3,0.3,0.3,0.8,0,1.1l-1.3,1.3C103.5,20.2,103.3,20.3,103.1,20.3z"/>
			</g>
			<g>
				<path fill="#231F20" d="M108.4,20.3c-0.2,0-0.4-0.1-0.5-0.2l-1.3-1.3c-0.3-0.3-0.3-0.8,0-1.1c0.3-0.3,0.8-0.3,1.1,0L109,19
					c0.3,0.3,0.3,0.8,0,1.1C108.8,20.2,108.6,20.3,108.4,20.3z"/>
			</g>
			<g>
				<path fill="#231F20" d="M104.4,16.2c-0.2,0-0.4-0.1-0.5-0.2l-1.3-1.3c-0.3-0.3-0.3-0.8,0-1.1c0.3-0.3,0.8-0.3,1.1,0l1.3,1.3
					c0.3,0.3,0.3,0.8,0,1.1C104.8,16.2,104.6,16.2,104.4,16.2z"/>
			</g>
		</g>
		<g>
			<g>
				<path fill="#231F20" d="M108.5,121.5c-0.2,0-0.4-0.1-0.5-0.2c-0.3-0.3-0.3-0.8,0-1.1l1.3-1.3c0.3-0.3,0.8-0.3,1.1,0
					c0.3,0.3,0.3,0.8,0,1.1l-1.3,1.3C108.9,121.4,108.7,121.5,108.5,121.5z"/>
			</g>
			<g>
				<path fill="#231F20" d="M104.5,125.5c-0.2,0-0.4-0.1-0.5-0.2c-0.3-0.3-0.3-0.8,0-1.1l1.3-1.3c0.3-0.3,0.8-0.3,1.1,0
					c0.3,0.3,0.3,0.8,0,1.1l-1.3,1.3C104.9,125.5,104.7,125.5,104.5,125.5z"/>
			</g>
			<g>
				<path fill="#231F20" d="M109.8,125.5c-0.2,0-0.4-0.1-0.5-0.2L108,124c-0.3-0.3-0.3-0.8,0-1.1c0.3-0.3,0.8-0.3,1.1,0l1.3,1.3
					c0.3,0.3,0.3,0.8,0,1.1C110.2,125.5,110,125.5,109.8,125.5z"/>
			</g>
			<g>
				<path fill="#231F20" d="M105.8,121.5c-0.2,0-0.4-0.1-0.5-0.2l-1.3-1.3c-0.3-0.3-0.3-0.8,0-1.1c0.3-0.3,0.8-0.3,1.1,0l1.3,1.3
					c0.3,0.3,0.3,0.8,0,1.1C106.2,121.4,106,121.5,105.8,121.5z"/>
			</g>
		</g>
		<g>
			<g>
				<path fill="#231F20" d="M24.6,104.9c-0.2,0-0.4-0.1-0.5-0.2c-0.3-0.3-0.3-0.8,0-1.1l1.3-1.3c0.3-0.3,0.8-0.3,1.1,0
					c0.3,0.3,0.3,0.8,0,1.1l-1.3,1.3C25,104.9,24.8,104.9,24.6,104.9z"/>
			</g>
			<g>
				<path fill="#231F20" d="M20.6,109c-0.2,0-0.4-0.1-0.5-0.2c-0.3-0.3-0.3-0.8,0-1.1l1.3-1.3c0.3-0.3,0.8-0.3,1.1,0
					c0.3,0.3,0.3,0.8,0,1.1l-1.3,1.3C21,108.9,20.8,109,20.6,109z"/>
			</g>
			<g>
				<path fill="#231F20" d="M25.9,109c-0.2,0-0.4-0.1-0.5-0.2l-1.3-1.3c-0.3-0.3-0.3-0.8,0-1.1c0.3-0.3,0.8-0.3,1.1,0l1.3,1.3
					c0.3,0.3,0.3,0.8,0,1.1C26.3,108.9,26.1,109,25.9,109z"/>
			</g>
			<g>
				<path fill="#231F20" d="M21.9,104.9c-0.2,0-0.4-0.1-0.5-0.2l-1.3-1.3c-0.3-0.3-0.3-0.8,0-1.1c0.3-0.3,0.8-0.3,1.1,0l1.3,1.3
					c0.3,0.3,0.3,0.8,0,1.1C22.2,104.9,22.1,104.9,21.9,104.9z"/>
			</g>
		</g>
		<g>
			<rect x="2.7" y="28.3" fill="#FFD05B" width="41" height="47.3"/>
		</g>
		<path fill="#231F20" d="M40.7,14.2h-35c-3.2,0-5.7,2.6-5.7,5.7v68.2c0,3.2,2.6,5.8,5.7,5.8h35c3.2,0,5.8-2.6,5.8-5.8V19.9
			C46.5,16.8,43.9,14.2,40.7,14.2z M1.5,19.9c0-2.3,1.9-4.2,4.2-4.2h35c2.3,0,4.3,1.9,4.3,4.2v5.6H1.5V19.9z M45,27v49.8H1.5V27H45z
			 M40.7,92.4h-35c-2.3,0-4.2-1.9-4.2-4.3v-9.9H45v9.9C45,90.5,43.1,92.4,40.7,92.4z"/>
		<g>
			<rect x="68.4" y="69.7" fill="#84DBFF" width="46.1" height="41"/>
		</g>
		<path fill="#231F20" d="M123.8,66.9H55.6c-3.2,0-5.8,2.6-5.8,5.8v35c0,3.2,2.6,5.8,5.8,5.8h68.2c3.2,0,5.8-2.6,5.8-5.8v-35
			C129.5,69.5,126.9,66.9,123.8,66.9z M65.6,111.9H55.6c-2.3,0-4.3-1.9-4.3-4.3v-35c0-2.3,1.9-4.3,4.3-4.3h10.1V111.9z M67.1,68.4
			h48.5v43.5H67.1V68.4z M128,107.7c0,2.3-1.9,4.3-4.3,4.3h-6.4V68.4h6.4c2.3,0,4.3,1.9,4.3,4.3V107.7z"/>
		<g>
			<g>
				<path fill="#231F20" d="M32.2,21.4h-12c-0.4,0-0.8-0.3-0.8-0.8c0-0.4,0.3-0.8,0.8-0.8h12c0.4,0,0.8,0.3,0.8,0.8
					C33,21,32.6,21.4,32.2,21.4z"/>
			</g>
			<g>
				<path fill="#231F20" d="M16.7,21.4h-2.5c-0.4,0-0.8-0.3-0.8-0.8c0-0.4,0.3-0.8,0.8-0.8h2.5c0.4,0,0.8,0.3,0.8,0.8
					C17.5,21,17.1,21.4,16.7,21.4z"/>
			</g>
		</g>
		<g>
			<g>
				<path fill="#231F20" d="M122.6,99.9c-0.4,0-0.8-0.3-0.8-0.8v-12c0-0.4,0.3-0.8,0.8-0.8s0.8,0.3,0.8,0.8v12
					C123.4,99.6,123,99.9,122.6,99.9z"/>
			</g>
			<g>
				<path fill="#231F20" d="M122.6,84.4c-0.4,0-0.8-0.3-0.8-0.8v-2.5c0-0.4,0.3-0.8,0.8-0.8s0.8,0.3,0.8,0.8v2.5
					C123.4,84.1,123,84.4,122.6,84.4z"/>
			</g>
		</g>
		<g>
			<path fill="#231F20" d="M60.9,21.8c0.3,0.1,0.6,0.1,1,0.2l0.3-1.5c-0.3-0.1-0.7-0.1-1-0.2L60.9,21.8z"/>
			<path fill="#231F20" d="M63.8,22.4c0.3,0.1,0.6,0.2,0.9,0.3l0.4-1.4c-0.3-0.1-0.7-0.2-1-0.3L63.8,22.4z"/>
			<path fill="#231F20" d="M66.6,23.3c0.3,0.1,0.6,0.2,0.9,0.3l0.5-1.4c-0.3-0.1-0.6-0.2-1-0.3L66.6,23.3z"/>
			<path fill="#231F20" d="M88,43.5l1.4-0.6c-0.1-0.3-0.3-0.6-0.4-0.9l-1.4,0.6C87.8,42.9,87.9,43.2,88,43.5z"/>
			<path fill="#231F20" d="M89,46.2l1.4-0.5c-0.1-0.3-0.2-0.6-0.3-1l-1.4,0.5C88.8,45.6,88.9,45.9,89,46.2z"/>
			<path fill="#231F20" d="M69.3,24.3c0.3,0.1,0.6,0.3,0.9,0.4l0.6-1.4c-0.3-0.1-0.6-0.3-0.9-0.4L69.3,24.3z"/>
			<path fill="#231F20" d="M90.6,54.9l1.5-0.1c0-0.3,0-0.7-0.1-1l-1.5,0.1C90.6,54.2,90.6,54.6,90.6,54.9z"/>
			<path fill="#231F20" d="M90.3,52l1.5-0.2c0-0.3-0.1-0.7-0.2-1L90.2,51C90.2,51.3,90.3,51.6,90.3,52z"/>
			<path fill="#231F20" d="M89.8,49.1l1.5-0.3c-0.1-0.3-0.2-0.7-0.2-1l-1.5,0.4C89.6,48.4,89.7,48.8,89.8,49.1z"/>
			<path fill="#231F20" d="M59,21.6l0.2-1.5c-0.3,0-0.7-0.1-1-0.1L58,21.5C58.3,21.5,58.7,21.5,59,21.6z"/>
			<path fill="#231F20" d="M81.2,32.8c0.2,0.2,0.4,0.5,0.7,0.7l1.1-1c-0.2-0.3-0.5-0.5-0.7-0.8L81.2,32.8z"/>
			<path fill="#231F20" d="M86.1,36.6l-1.3,0.8c0.2,0.3,0.4,0.5,0.5,0.8l1.3-0.8C86.5,37.2,86.3,36.9,86.1,36.6z"/>
			<path fill="#231F20" d="M84.3,34.1l-1.2,0.9c0.2,0.3,0.4,0.5,0.6,0.8l1.2-0.9C84.7,34.7,84.5,34.4,84.3,34.1z"/>
			<path fill="#231F20" d="M87.7,39.2L86.3,40c0.2,0.3,0.3,0.6,0.5,0.9l1.3-0.7C88,39.8,87.8,39.5,87.7,39.2z"/>
			<path fill="#231F20" d="M74.5,27.1c0.3,0.2,0.5,0.4,0.8,0.5l0.9-1.2c-0.3-0.2-0.6-0.4-0.8-0.6L74.5,27.1z"/>
			<path fill="#231F20" d="M76.9,28.8c0.3,0.2,0.5,0.4,0.8,0.6l1-1.2c-0.3-0.2-0.5-0.4-0.8-0.6L76.9,28.8z"/>
			<path fill="#231F20" d="M72,25.6c0.3,0.2,0.6,0.3,0.9,0.5l0.8-1.3c-0.3-0.2-0.6-0.3-0.9-0.5L72,25.6z"/>
			<path fill="#231F20" d="M79.1,30.7c0.2,0.2,0.5,0.4,0.7,0.7l1-1.1c-0.2-0.2-0.5-0.5-0.7-0.7L79.1,30.7z"/>
			<path fill="#231F20" d="M95.7,52.7c-0.3-0.3-0.8-0.3-1.1,0l-3.2,3.2l-3.2-3.2c-0.3-0.3-0.8-0.3-1.1,0c-0.3,0.3-0.3,0.8,0,1.1
				l3.8,3.8c0.1,0.1,0.3,0.2,0.5,0.2c0.2,0,0.4-0.1,0.5-0.2l3.8-3.8C96,53.4,96,53,95.7,52.7z"/>
			<path fill="#231F20" d="M59.3,16.3c-0.3-0.3-0.8-0.3-1.1,0l-3.8,3.8c-0.3,0.3-0.3,0.8,0,1.1l3.8,3.8c0.1,0.1,0.3,0.2,0.5,0.2
				c0.2,0,0.4-0.1,0.5-0.2c0.3-0.3,0.3-0.8,0-1.1l-3.2-3.2l3.2-3.2C59.6,17.1,59.6,16.6,59.3,16.3z"/>
		</g>
		<g>
			<path fill="#231F20" d="M61,57.8c-2.1,0-3.8-1.7-3.8-3.8s1.7-3.8,3.8-3.8c2.1,0,3.8,1.7,3.8,3.8S63.1,57.8,61,57.8z M61,51.8
				c-1.3,0-2.3,1-2.3,2.3c0,1.3,1,2.3,2.3,2.3c1.3,0,2.3-1,2.3-2.3C63.3,52.8,62.3,51.8,61,51.8z"/>
		</g>
		<g>
			<circle fill="#FF7058" cx="81.1" cy="8.6" r="2.3"/>
		</g>
		<g>
			<circle fill="#FFD05B" cx="112.1" cy="53.2" r="2.3"/>
		</g>
		<g>
			<circle fill="#84DBFF" cx="28.2" cy="6.3" r="2.3"/>
		</g>
		<g>
			<circle fill="#E6E9EE" cx="40.1" cy="100.6" r="2.3"/>
		</g>
		<g>
			<circle fill="#84DBFF" cx="79.5" cy="121.1" r="2.3"/>
		</g>
		<g>
			<g>
				<path fill="#231F20" d="M109.5,32.6h-7.2c-0.4,0-0.8-0.3-0.8-0.8s0.3-0.8,0.8-0.8h7.2c0.4,0,0.8,0.3,0.8,0.8
					S109.9,32.6,109.5,32.6z"/>
			</g>
			<g>
				<path fill="#231F20" d="M116.9,32.6H114c-0.4,0-0.8-0.3-0.8-0.8s0.3-0.8,0.8-0.8h2.9c0.4,0,0.8,0.3,0.8,0.8
					S117.3,32.6,116.9,32.6z"/>
			</g>
			<g>
				<path fill="#231F20" d="M115.1,35.2H108c-0.4,0-0.8-0.3-0.8-0.8c0-0.4,0.3-0.8,0.8-0.8h7.1c0.4,0,0.8,0.3,0.8,0.8
					C115.8,34.9,115.5,35.2,115.1,35.2z"/>
			</g>
		</g>
	</g>
</g>
</svg>
