<?xml version="1.0" encoding="UTF-8" standalone="no"?>
<svg
   xmlns:dc="http://purl.org/dc/elements/1.1/"
   xmlns:cc="http://creativecommons.org/ns#"
   xmlns:rdf="http://www.w3.org/1999/02/22-rdf-syntax-ns#"
   xmlns:svg="http://www.w3.org/2000/svg"
   xmlns="http://www.w3.org/2000/svg"
   xmlns:xlink="http://www.w3.org/1999/xlink"
   xmlns:sodipodi="http://sodipodi.sourceforge.net/DTD/sodipodi-0.dtd"
   xmlns:inkscape="http://www.inkscape.org/namespaces/inkscape"
   width="184.911mm"
   height="62.895mm"
   viewBox="0 0 184.911 62.895"
   version="1.1"
   id="svg8"
   inkscape:version="1.0.1 (3bc2e813f5, 2020-09-07)"
   sodipodi:docname="drawing-1.svg">
  <defs
     id="defs2"><polygon
   id="SVGID_1_"
   points="800,800 800,400 800,0 0,0 0,400 0,800 " />

	<defs
   id="defs843">
		<polygon
   id="polygon3138"
   points="800,0 0,0 0,400 0,800 800,800 800,400 " />

	</defs>

	<clipPath
   id="SVGID_2_">
		<use
   xlink:href="#SVGID_1_"
   overflow="visible"
   id="use845"
   x="0"
   y="0"
   width="100%"
   height="100%" />

	</clipPath>

	
	
	
	

		
		
	
		
		
	</defs>
  <sodipodi:namedview
     id="base"
     pagecolor="#ffffff"
     bordercolor="#666666"
     borderopacity="1.0"
     inkscape:pageopacity="0.0"
     inkscape:pageshadow="2"
     inkscape:zoom="0.98994949"
     inkscape:cx="291.3675"
     inkscape:cy="70.615919"
     inkscape:document-units="mm"
     inkscape:current-layer="layer1"
     inkscape:document-rotation="0"
     showgrid="false"
     inkscape:window-width="1920"
     inkscape:window-height="1001"
     inkscape:window-x="-9"
     inkscape:window-y="-9"
     inkscape:window-maximized="1" />
  <metadata
     id="metadata5">
    <rdf:RDF>
      <cc:Work
         rdf:about="">
        <dc:format>image/svg+xml</dc:format>
        <dc:type
           rdf:resource="http://purl.org/dc/dcmitype/StillImage" />
        <dc:title></dc:title>
      </cc:Work>
    </rdf:RDF>
  </metadata>
  <g
     inkscape:label="Layer 1"
     inkscape:groupmode="layer"
     id="layer1">
    <g
       clip-path="url(#SVGID_2_)"
       id="g1719"
       transform="matrix(0.26458333,0,0,0.26458333,-13.275709,-37.306991)">
		<g
   id="g854">
			<path
   fill="#3dc7d2"
   d="m 727.411,339.86 c -1.812,0 -3.491,0.535 -4.878,1.493 -0.941,-1.069 -2.235,-1.828 -3.703,-2.072 0.061,-0.412 0.092,-0.837 0.092,-1.266 0,-4.748 -3.85,-8.603 -8.599,-8.603 -4.749,0 -8.6,3.85 -8.6,8.598 0,0.701 0.086,1.381 0.245,2.031 -0.636,-0.149 -1.301,-0.182 -1.983,-0.182 -4.75,0 -8.599,3.949 -8.599,8.648 h 44.626 c -10e-4,-4.697 -3.85,-8.647 -8.601,-8.647 z"
   id="path852" />

		</g>

		<g
   id="g860">
			<g
   id="g858">
				<path
   fill="#e6e6e6"
   d="m 95.142,331.929 c -12.115,0 -21.971,9.855 -21.971,21.971 0,12.114 9.856,21.973 21.971,21.973 12.115,0 21.972,-9.858 21.972,-21.973 -0.001,-12.116 -9.857,-21.971 -21.972,-21.971 z"
   id="path856" />

			</g>

		</g>

		<g
   id="g864">
			<rect
   x="93.641998"
   y="347.41599"
   fill="#111111"
   width="3"
   height="6.4829998"
   id="rect862" />

		</g>

		<g
   id="g868">
			
				<rect
   x="91.915001"
   y="354.60901"
   transform="matrix(0.7547,0.6561,-0.6561,0.7547,257.5861,23.263)"
   fill="#111111"
   width="11.536"
   height="2.9990001"
   id="rect866" />

		</g>

		<g
   id="g914">
			<g
   id="g872">
				<rect
   x="93.779999"
   y="334.77399"
   fill="#111111"
   width="2"
   height="5.9889998"
   id="rect870" />

			</g>

			<g
   id="g878">
				<g
   id="g876">
					<rect
   x="75.417"
   y="353.233"
   fill="#111111"
   width="5.9889998"
   height="2"
   id="rect874" />

				</g>

			</g>

			<g
   id="g884">
				<g
   id="g882">
					<rect
   x="93.779999"
   y="368.258"
   fill="#111111"
   width="2"
   height="4.7670002"
   id="rect880" />

				</g>

			</g>

			<g
   id="g890">
				<g
   id="g888">
					<rect
   x="108.111"
   y="353.233"
   fill="#111111"
   width="6.7550001"
   height="2"
   id="rect886" />

				</g>

			</g>

			<g
   id="g894">
				
					<rect
   x="104.797"
   y="340.41699"
   transform="matrix(0.7071,0.7071,-0.7071,0.7071,273.3436,25.5774)"
   fill="#111111"
   width="2"
   height="4.652"
   id="rect892" />

			</g>

			<g
   id="g900">
				<g
   id="g898">
					
						<rect
   x="81.587997"
   y="341.957"
   transform="matrix(0.707,0.7072,-0.7072,0.707,267.0859,41.2559)"
   fill="#111111"
   width="4.3319998"
   height="2"
   id="rect896" />

				</g>

			</g>

			<g
   id="g906">
				<g
   id="g904">
					
						<rect
   x="82.608002"
   y="363.56601"
   transform="matrix(0.7074,0.7069,-0.7069,0.7074,282.7377,47.8274)"
   fill="#111111"
   width="2"
   height="3.618"
   id="rect902" />

				</g>

			</g>

			<g
   id="g912">
				<g
   id="g910">
					
						<rect
   x="104.488"
   y="364.24399"
   transform="matrix(0.707,0.7072,-0.7072,0.707,289.5122,31.7151)"
   fill="#111111"
   width="3.9879999"
   height="2"
   id="rect908" />

				</g>

			</g>

		</g>

		<g
   id="g1010">
			<g
   id="g920">
				<g
   id="g918">
					<path
   fill="#7c7e82"
   d="m 691.385,370.289 v -77.624 c 0,-4.318 -3.419,-7.817 -7.638,-7.817 h -118.91 c -4.219,0 -7.638,3.499 -7.638,7.817 v 77.624 z"
   id="path916" />

				</g>

			</g>

			<g
   id="g934">
				<g
   id="g924">
					<rect
   x="599.15997"
   y="283.84799"
   fill="#111111"
   width="52.588001"
   height="2"
   id="rect922" />

				</g>

				<g
   id="g928">
					<rect
   x="658.802"
   y="283.84799"
   fill="#111111"
   width="8.5509996"
   height="2"
   id="rect926" />

				</g>

				<g
   id="g932">
					<path
   fill="#111111"
   d="M 692.385,371.289 H 556.198 v -78.624 c 0,-4.862 3.875,-8.817 8.638,-8.817 h 21.492 v 2 h -21.492 c -3.66,0 -6.638,3.059 -6.638,6.817 v 76.624 h 132.187 v -76.624 c 0,-3.759 -2.978,-6.817 -6.638,-6.817 h -9.793 v -2 h 9.793 c 4.763,0 8.638,3.955 8.638,8.817 z"
   id="path930" />

				</g>

			</g>

			<g
   id="g940">
				<g
   id="g938">
					<path
   fill="#7c7e82"
   d="m 550.358,370.289 v 3.669 c 0,2.026 1.605,3.669 3.585,3.669 H 694.64 c 1.979,0 3.584,-1.643 3.584,-3.669 v -3.669 z"
   id="path936" />

				</g>

			</g>

			<g
   id="g948">
				<g
   id="g946">
					<g
   id="g944">
						<path
   fill="#111111"
   d="M 694.64,378.627 H 553.943 c -2.528,0 -4.585,-2.095 -4.585,-4.669 v -4.669 h 149.866 v 4.669 c 0,2.574 -2.056,4.669 -4.584,4.669 z m -143.282,-7.338 v 2.669 c 0,1.472 1.16,2.669 2.585,2.669 H 694.64 c 1.425,0 2.584,-1.197 2.584,-2.669 v -2.669 z"
   id="path942" />

					</g>

				</g>

			</g>

			<g
   id="g956">
				<g
   id="g954">
					<g
   id="g952">
						<rect
   x="563.86298"
   y="292.25601"
   fill="#e6e6e6"
   width="120.857"
   height="72.028999"
   id="rect950" />

					</g>

				</g>

			</g>

			<g
   id="g986">
				<g
   id="g960">
					<rect
   x="611.76898"
   y="296.854"
   fill="#111111"
   width="4.2140002"
   height="2"
   id="rect958" />

				</g>

				<g
   id="g964">
					<rect
   x="600.07001"
   y="296.854"
   fill="#111111"
   width="4.2140002"
   height="2"
   id="rect962" />

				</g>

				<g
   id="g968">
					<rect
   x="588.37299"
   y="296.854"
   fill="#111111"
   width="4.2129998"
   height="2"
   id="rect966" />

				</g>

				<g
   id="g972">
					<rect
   x="588.37299"
   y="304.85699"
   fill="#111111"
   width="65.512001"
   height="2"
   id="rect970" />

				</g>

				<g
   id="g976">
					<rect
   x="588.37299"
   y="312.763"
   fill="#111111"
   width="65.512001"
   height="2"
   id="rect974" />

				</g>

				<g
   id="g980">
					<rect
   x="588.37299"
   y="320.668"
   fill="#111111"
   width="29.910999"
   height="2"
   id="rect978" />

				</g>

				<g
   id="g984">
					<rect
   x="588.37299"
   y="328.508"
   fill="#111111"
   width="65.512001"
   height="2"
   id="rect982" />

				</g>

			</g>

			<g
   id="g1008">
				<g
   id="g990">
					<polygon
   fill="#111111"
   points="665.385,335.021 631.472,349.562 611.055,344.331 580.372,356.326 579.643,354.463 610.927,342.233 631.309,347.456 664.597,333.183 "
   id="polygon988" />

				</g>

				<g
   id="g994">
					<circle
   fill="#f7da44"
   cx="631.39099"
   cy="348.509"
   r="3.395"
   id="circle992" />

				</g>

				<g
   id="g998">
					<circle
   fill="#f7da44"
   cx="664.99103"
   cy="334.10199"
   r="3.395"
   id="circle996" />

				</g>

				<g
   id="g1002">
					<circle
   fill="#f7da44"
   cx="610.99103"
   cy="343.28201"
   r="3.395"
   id="circle1000" />

				</g>

				<g
   id="g1006">
					<circle
   fill="#f7da44"
   cx="580.008"
   cy="355.39499"
   r="3.395"
   id="circle1004" />

				</g>

			</g>

		</g>

		<g
   id="g1014">
			<rect
   x="734.85303"
   y="376.621"
   fill="#111111"
   width="14.2"
   height="2"
   id="rect1012" />

		</g>

		<g
   id="g1153">
			<g
   id="XMLID_169_">
				<g
   id="g1022">
					<g
   id="g1020">
						<g
   id="g1018">
							<path
   fill="#111111"
   d="M 537.742,378.646 H 447.686 V 258.045 c 0,-5.271 4.288,-9.558 9.558,-9.558 h 0.172 c 5.04,0 9.181,3.92 9.534,8.871 h 15.086 v -8.871 h 55.706 z m -88.056,-2 h 86.056 V 250.487 h -51.706 v 8.871 h -19.062 v -1.313 c 0,-4.167 -3.391,-7.558 -7.558,-7.558 h -0.172 c -4.167,0 -7.558,3.391 -7.558,7.558 z"
   id="path1016" />

						</g>

					</g>

				</g>

				<g
   id="g1028">
					<g
   id="g1026">
						<path
   fill="#e6e6e6"
   d="m 456.936,249.487 c 3.834,0 9.087,2.179 9.087,9.434 l 0.062,109.521 c 0,5.035 2.162,9.254 8.252,9.254 l 74.826,0.02 -0.062,-118.794 c 0,-5.215 -5.157,-9.434 -11.496,-9.434 h -80.669 z"
   id="path1024" />

					</g>

				</g>

				<g
   id="g1038">
					<g
   id="g1032">
						
							<rect
   x="544.90198"
   y="282.793"
   transform="rotate(89.946925,549.11844,283.79303)"
   fill="#111111"
   width="8.434"
   height="2"
   id="rect1030" />

					</g>

					<g
   id="g1036">
						<path
   fill="#111111"
   d="m 550.164,378.717 -75.827,-0.021 c -5.879,0 -9.252,-3.737 -9.252,-10.254 l -0.062,-109.52 c 0,-8.028 -6.736,-8.435 -8.087,-8.435 v -2 h 80.669 c 6.89,0 12.496,4.681 12.496,10.434 l 0.007,13.037 -2,0.002 -0.007,-13.038 c 0,-4.651 -4.708,-8.435 -10.496,-8.435 h -74.368 c 2.235,1.679 3.785,4.446 3.785,8.434 l 0.062,109.52 c 0,3.767 1.258,8.255 7.252,8.255 l 73.826,0.021 -0.041,-82.179 2,-0.002 z"
   id="path1034" />

					</g>

				</g>

				<g
   id="XMLID_2_">
					<g
   id="XMLID_4_">
						<g
   id="g1042">
							<path
   fill="#e6e6e6"
   d="m 568.683,323.893 v 43.978 c 0,0 0.914,9.847 -12.914,9.847 -19.731,0 -80.677,-0.014 -80.677,-0.014 1.179,-0.031 8.54,-0.666 8.54,-9.814 v -33.275 c 0,0 -1.035,-10.721 10.081,-10.721 h 74.97 z"
   id="path1040" />

						</g>

					</g>

					<g
   id="XMLID_3_">
						<g
   id="g1047">
							<path
   fill="#ffffff"
   d="m 474.873,377.703 h 0.219 c -0.138,0.004 -0.219,0 -0.219,0 z"
   id="path1045" />

						</g>

					</g>

				</g>

				<g
   id="XMLID_186_">
					<g
   id="XMLID_188_">
						<g
   id="g1053">
							<path
   fill="#111111"
   d="m 555.769,378.717 c -19.731,0 -80.677,-0.014 -80.677,-0.014 l -0.026,-2 c 1.263,-0.033 7.566,-0.615 7.566,-8.814 v -33.275 c -0.016,-0.112 -0.452,-5.049 2.693,-8.513 1.933,-2.129 4.755,-3.208 8.387,-3.208 h 75.971 v 44.978 c 0.01,0.064 0.321,3.793 -2.502,6.891 -2.393,2.624 -6.233,3.955 -11.412,3.955 z m -74.902,-2.013 c 15.669,0.004 58.877,0.013 74.901,0.013 4.594,0 7.936,-1.111 9.934,-3.303 2.235,-2.452 1.987,-5.422 1.985,-5.451 l -0.004,-43.07 h -73.971 c -3.038,0 -5.358,0.855 -6.897,2.542 -2.551,2.797 -2.192,7.042 -2.188,7.085 l 0.004,33.369 c 0,4.653 -1.755,7.304 -3.764,8.815 z"
   id="path1051" />

						</g>

					</g>

					<g
   id="XMLID_187_">
						<g
   id="g1058">
							<polygon
   fill="#111111"
   points="474.825,378.702 474.873,376.703 475.092,376.703 475.12,378.703 474.974,378.705 "
   id="polygon1056" />

						</g>

					</g>

				</g>

				<g
   id="g1066">
					<g
   id="g1064">
						<path
   fill="#e6e6e6"
   d="m 500.998,335.89 c 3.236,-10.622 -7.293,-11.99 -7.293,-11.99 0,0 64.749,0 74.971,0 10.891,0 11.774,6.731 10.805,11.99 z"
   id="path1062" />

					</g>

				</g>

				<g
   id="g1076">
					<g
   id="g1070">
						<rect
   x="537.646"
   y="334.89001"
   fill="#111111"
   width="6.3330002"
   height="2"
   id="rect1068" />

					</g>

					<g
   id="g1074">
						<path
   fill="#111111"
   d="m 580.313,336.89 h -30.529 v -2 h 28.846 c 0.427,-3.06 -0.054,-5.445 -1.432,-7.101 -1.596,-1.918 -4.463,-2.89 -8.522,-2.89 h -69.802 c 0.889,0.618 1.743,1.421 2.413,2.46 1.323,2.052 1.661,4.58 1.008,7.53 h 25.431 v 2 h -28.078 l 0.394,-1.291 c 0.89,-2.921 0.743,-5.328 -0.436,-7.154 -1.927,-2.988 -5.989,-3.548 -6.03,-3.554 l 0.129,-1.991 h 74.971 c 4.681,0 8.065,1.215 10.059,3.609 1.897,2.278 2.479,5.496 1.729,9.563 z"
   id="path1072" />

					</g>

				</g>

				<g
   id="XMLID_170_">
					<g
   id="XMLID_177_">
						<g
   id="XMLID_179_">
							<polygon
   fill="#ea572e"
   points="474.953,258.373 482.462,265.646 490.294,260.052 497.804,265.701 505.312,265.701 512.929,260.167 520.654,271.237 528.164,265.701 535.781,260.167 542.757,265.249 542.757,310.505 474.953,310.505 "
   id="polygon1078" />

						</g>

					</g>

					<g
   id="XMLID_175_">
						<g
   id="XMLID_176_">
							<polygon
   fill="#3dc7d2"
   points="474.953,271.467 482.353,277.16 490.187,265.646 499.19,278.513 513.589,271.467 520.546,283.511 528.164,271.237 535.889,276.945 542.757,271.935 542.757,310.505 474.953,310.505 "
   id="polygon1082" />

						</g>

					</g>

					<g
   id="XMLID_171_">
						<g
   id="g1088">
							<polygon
   fill="#f3a52d"
   points="474.953,287.043 482.462,290.817 490.078,282.654 497.587,293.84 505.312,288.246 509.781,297.849 526.08,300.029 535.781,288.131 542.757,293.284 542.757,310.505 474.953,310.505 "
   id="polygon1086" />

						</g>

					</g>

				</g>

			</g>

			<g
   id="g1125">
				<g
   id="g1123">
					<g
   id="g1101">
						<g
   id="g1099">
							<g
   id="g1097">
								<g
   id="g1095">
									<path
   fill="#111111"
   d="m 550.452,370.924 c -7.539,0 -13.673,-6.134 -13.673,-13.673 0,-7.169 5.606,-13.155 12.762,-13.629 l 1.066,-0.07 v 13.543 h 13.542 l -0.07,1.066 c -0.474,7.156 -6.459,12.763 -13.627,12.763 z m -1.845,-25.187 c -5.59,0.891 -9.828,5.755 -9.828,11.514 0,6.437 5.236,11.673 11.673,11.673 5.757,0 10.621,-4.238 11.512,-9.829 h -13.356 v -13.358 z"
   id="path1093" />

								</g>

							</g>

						</g>

					</g>

					<g
   id="g1111">
						<g
   id="g1109">
							<g
   id="g1107">
								<g
   id="g1105">
									<path
   fill="#ea572e"
   d="m 551.296,355.912 v -10.46 c 4.05,0.288 7.539,2.624 9.443,5.975 z"
   id="path1103" />

								</g>

							</g>

						</g>

					</g>

					<g
   id="g1121">
						<g
   id="g1119">
							<g
   id="g1117">
								<g
   id="g1115">
									<path
   fill="#2e8d9a"
   d="m 562.249,356.404 h -8.051 l 7.275,-3.454 c 0.434,1.107 0.693,2.263 0.776,3.454 z"
   id="path1113" />

								</g>

							</g>

						</g>

					</g>

				</g>

			</g>

			<g
   id="g1151">
				<g
   id="g1129">
					<rect
   x="514.46698"
   y="346.55301"
   fill="#111111"
   width="3.74"
   height="2"
   id="rect1127" />

				</g>

				<g
   id="g1133">
					<rect
   x="504.086"
   y="346.55301"
   fill="#111111"
   width="3.7379999"
   height="2"
   id="rect1131" />

				</g>

				<g
   id="g1137">
					<rect
   x="493.70499"
   y="346.55301"
   fill="#111111"
   width="3.74"
   height="2"
   id="rect1135" />

				</g>

				<g
   id="g1141">
					<rect
   x="493.70599"
   y="353.08401"
   fill="#111111"
   width="39.613998"
   height="2"
   id="rect1139" />

				</g>

				<g
   id="g1145">
					<rect
   x="493.70599"
   y="359.539"
   fill="#111111"
   width="39.613998"
   height="2"
   id="rect1143" />

				</g>

				<g
   id="g1149">
					<rect
   x="493.70599"
   y="365.991"
   fill="#111111"
   width="15.149"
   height="2"
   id="rect1147" />

				</g>

			</g>

		</g>

		<g
   id="g1251">
			<g
   id="g1157">
				<rect
   x="374.04599"
   y="141.002"
   fill="#3dc7d2"
   width="10.214"
   height="236.618"
   id="rect1155" />

			</g>

			<g
   id="g1163">
				<g
   id="g1161">
					<rect
   x="277.798"
   y="179.004"
   fill="#e6e6e6"
   width="202.709"
   height="130.127"
   id="rect1159" />

				</g>

			</g>

			<g
   id="g1189">
				<g
   id="g1187">
					<g
   id="g1173">
						<g
   id="g1171">
							<g
   id="g1169">
								<g
   id="g1167">
									<path
   fill="#111111"
   d="m 336.367,278.507 c -19.021,0 -34.496,-15.474 -34.496,-34.494 0,-18.089 14.142,-33.191 32.196,-34.383 l 1.066,-0.07 v 35.683 h 35.685 l -0.07,1.066 c -1.197,18.054 -16.298,32.198 -34.381,32.198 z m -3.234,-66.793 c -16.494,1.633 -29.262,15.617 -29.262,32.299 0,17.917 14.578,32.494 32.496,32.494 16.675,0 30.66,-12.77 32.296,-29.265 h -35.53 z"
   id="path1165" />

								</g>

							</g>

						</g>

					</g>

					<g
   id="g1179">
						<g
   id="g1177">
							<path
   fill="#ea572e"
   d="m 338.601,240.476 v -27.651 c 10.704,0.762 19.927,6.938 24.96,15.792 z"
   id="path1175" />

						</g>

					</g>

					<g
   id="g1185">
						<g
   id="g1183">
							<path
   fill="#2e8d9a"
   d="m 367.55,241.776 h -21.28 l 19.23,-9.134 c 1.146,2.926 1.831,5.985 2.05,9.134 z"
   id="path1181" />

						</g>

					</g>

				</g>

			</g>

			<g
   id="g1193">
				<rect
   x="268.34399"
   y="178.004"
   fill="#111111"
   width="221.619"
   height="2"
   id="rect1191" />

			</g>

			<g
   id="g1223">
				<g
   id="g1197">
					<rect
   x="414.634"
   y="207.82201"
   fill="#111111"
   width="4.2140002"
   height="2"
   id="rect1195" />

				</g>

				<g
   id="g1201">
					<rect
   x="402.936"
   y="207.82201"
   fill="#111111"
   width="4.2129998"
   height="2"
   id="rect1199" />

				</g>

				<g
   id="g1205">
					<rect
   x="391.237"
   y="207.82201"
   fill="#111111"
   width="4.2129998"
   height="2"
   id="rect1203" />

				</g>

				<g
   id="g1209">
					<rect
   x="391.23801"
   y="215.826"
   fill="#111111"
   width="65.512001"
   height="2"
   id="rect1207" />

				</g>

				<g
   id="g1213">
					<rect
   x="391.23801"
   y="223.73"
   fill="#111111"
   width="65.512001"
   height="2"
   id="rect1211" />

				</g>

				<g
   id="g1217">
					<rect
   x="391.23801"
   y="231.636"
   fill="#111111"
   width="29.912001"
   height="2"
   id="rect1215" />

				</g>

				<g
   id="g1221">
					<rect
   x="391.23801"
   y="239.476"
   fill="#111111"
   width="65.512001"
   height="2"
   id="rect1219" />

				</g>

			</g>

			<g
   id="g1227">
				<rect
   x="277.798"
   y="308.13"
   fill="#111111"
   width="202.709"
   height="2"
   id="rect1225" />

			</g>

			<g
   id="g1249">
				<g
   id="g1231">
					<polygon
   fill="#111111"
   points="468.25,257.133 434.337,271.674 413.919,266.443 383.237,278.438 382.508,276.575 413.792,264.346 434.174,269.568 467.461,255.295 "
   id="polygon1229" />

				</g>

				<g
   id="g1235">
					<circle
   fill="#ea572e"
   cx="434.25601"
   cy="270.621"
   r="3.395"
   id="circle1233" />

				</g>

				<g
   id="g1239">
					<circle
   fill="#ea572e"
   cx="467.85501"
   cy="256.21399"
   r="3.395"
   id="circle1237" />

				</g>

				<g
   id="g1243">
					<circle
   fill="#ea572e"
   cx="413.85501"
   cy="265.39499"
   r="3.395"
   id="circle1241" />

				</g>

				<g
   id="g1247">
					<circle
   fill="#ea572e"
   cx="382.87299"
   cy="277.50699"
   r="3.395"
   id="circle1245" />

				</g>

			</g>

		</g>

		<g
   id="g1255">
			<path
   fill="#3dc7d2"
   d="m 306.901,159.731 c 2.128,0 4.101,0.629 5.73,1.754 1.105,-1.255 2.625,-2.147 4.349,-2.435 -0.071,-0.484 -0.108,-0.983 -0.108,-1.486 0,-5.578 4.522,-10.105 10.101,-10.105 5.578,0 10.102,4.521 10.102,10.1 0,0.825 -0.102,1.622 -0.287,2.386 0.747,-0.176 1.526,-0.213 2.328,-0.213 5.579,0 10.101,4.638 10.101,10.157 h -52.418 c 0,-5.52 4.522,-10.158 10.102,-10.158 z"
   id="path1253" />

		</g>

		<g
   id="g1259">
			<path
   fill="#f3a52d"
   d="m 70.718,315.335 c 1.535,0 2.957,0.452 4.131,1.265 0.797,-0.904 1.892,-1.548 3.135,-1.756 -0.052,-0.348 -0.079,-0.707 -0.079,-1.07 0,-4.021 3.26,-7.283 7.281,-7.283 4.021,0 7.282,3.258 7.282,7.279 0,0.593 -0.074,1.168 -0.208,1.719 0.539,-0.125 1.101,-0.153 1.679,-0.153 4.021,0 7.281,3.344 7.281,7.322 H 63.437 c 0,-3.979 3.259,-7.323 7.281,-7.323 z"
   id="path1257" />

		</g>

		<g
   id="g1263">
			<path
   fill="#f3a52d"
   d="m 639.109,195.556 c 1.534,0 2.957,0.454 4.131,1.266 0.797,-0.905 1.891,-1.548 3.135,-1.756 -0.052,-0.348 -0.079,-0.708 -0.079,-1.071 0,-4.021 3.26,-7.283 7.281,-7.283 4.022,0 7.283,3.26 7.283,7.279 0,0.595 -0.074,1.169 -0.208,1.72 0.538,-0.126 1.101,-0.153 1.678,-0.153 4.022,0 7.281,3.344 7.281,7.322 h -37.785 c 10e-4,-3.98 3.261,-7.324 7.283,-7.324 z"
   id="path1261" />

		</g>

		<g
   id="g1273">
			<g
   id="g1267">
				<path
   fill-rule="evenodd"
   clip-rule="evenodd"
   fill="#f3a52d"
   d="m 624.246,244.467 c -9.184,0 -19.181,7.107 -19.181,18.966 0,18.047 19.227,37.118 19.227,37.118 0,0 19.226,-19.382 19.226,-37.118 -10e-4,-11.859 -10.612,-18.966 -19.272,-18.966 z m 4.762,27.101 c -1.28,0.782 -2.853,1.256 -4.717,1.281 -2.617,-0.035 -4.658,-0.956 -6.124,-2.369 -5.39,-4.996 -3.338,-16.539 6.163,-16.539 10.283,0 11.839,13.521 4.678,17.627 z"
   id="path1265" />

			</g>

			<g
   id="g1271">
				<path
   fill="#111111"
   d="m 624.33,278.94 c -0.446,0 -0.887,-0.019 -1.324,-0.056 l 0.166,-1.992 c 0.923,0.076 1.882,0.063 2.809,-0.052 l 0.24,1.986 c -0.622,0.076 -1.259,0.114 -1.891,0.114 z m -5.506,-1.001 c -1.002,-0.379 -1.97,-0.865 -2.878,-1.445 l 1.078,-1.686 c 0.791,0.507 1.635,0.931 2.507,1.26 z m 11.542,-0.211 -0.775,-1.844 c 0.86,-0.362 1.688,-0.816 2.459,-1.35 l 1.138,1.645 c -0.885,0.612 -1.834,1.133 -2.822,1.549 z m -17.679,-4.017 c -0.715,-0.803 -1.347,-1.682 -1.88,-2.612 l 1.735,-0.994 c 0.464,0.811 1.016,1.577 1.639,2.278 z m 23.657,-0.433 -1.542,-1.273 c 0.598,-0.724 1.121,-1.509 1.556,-2.336 l 1.771,0.93 c -0.5,0.949 -1.1,1.85 -1.785,2.679 z m -27.136,-6.159 c -0.257,-1.037 -0.407,-2.11 -0.446,-3.188 l 1.999,-0.072 c 0.034,0.939 0.165,1.875 0.389,2.779 z m 30.371,-0.556 -1.958,-0.408 c 0.19,-0.913 0.287,-1.853 0.287,-2.792 l 2,-0.061 v 0.061 c 0,1.075 -0.111,2.153 -0.329,3.2 z m -28.443,-6.421 -1.943,-0.473 c 0.254,-1.046 0.619,-2.066 1.083,-3.034 l 1.803,0.865 c -0.404,0.843 -0.721,1.731 -0.943,2.642 z m 26.246,-0.536 c -0.258,-0.899 -0.612,-1.773 -1.051,-2.601 l 1.767,-0.938 c 0.504,0.949 0.91,1.953 1.206,2.985 z m -23.238,-5.221 -1.5,-1.322 c 0.709,-0.805 1.505,-1.539 2.365,-2.183 l 1.198,1.602 c -0.75,0.561 -1.445,1.202 -2.063,1.903 z m 19.998,-0.408 c -0.647,-0.678 -1.367,-1.289 -2.138,-1.818 l 1.131,-1.648 c 0.885,0.606 1.71,1.308 2.453,2.084 z m -14.665,-3.3 -0.715,-1.867 c 1.005,-0.385 2.052,-0.665 3.112,-0.832 l 0.312,1.975 c -0.922,0.146 -1.833,0.389 -2.709,0.724 z m 9.185,-0.187 c -0.883,-0.298 -1.804,-0.504 -2.738,-0.613 l 0.233,-1.986 c 1.071,0.126 2.128,0.362 3.142,0.703 z"
   id="path1269" />

			</g>

		</g>

		<g
   id="g1347">
			<g
   id="g1277">
				<rect
   x="125.713"
   y="313.69901"
   fill="#ffffff"
   width="98.860001"
   height="62.637001"
   id="rect1275" />

			</g>

			<g
   id="g1281">
				<rect
   x="131.12399"
   y="318.67499"
   fill="#f3a52d"
   width="88.039001"
   height="52.686001"
   id="rect1279" />

			</g>

			<g
   id="g1285">
				<path
   fill="#111111"
   d="m 169.753,363.96 h -31.229 v -37.885 h 31.229 z m -29.23,-2 h 27.229 v -33.885 h -27.229 z"
   id="path1283" />

			</g>

			<g
   id="g1289">
				<path
   fill="#7c7e82"
   d="m 125.716,313.699 c 0.065,-6.715 5.527,-12.139 12.257,-12.139 h 74.344 c 6.73,0 12.191,5.424 12.256,12.139 z"
   id="path1287" />

			</g>

			<g
   id="g1293">
				<rect
   x="137.77"
   y="296.116"
   fill="#111111"
   width="2"
   height="9.8999996"
   id="rect1291" />

			</g>

			<g
   id="g1297">
				<rect
   x="149.80299"
   y="296.116"
   fill="#111111"
   width="2"
   height="9.8999996"
   id="rect1295" />

			</g>

			<g
   id="g1301">
				<rect
   x="161.836"
   y="296.116"
   fill="#111111"
   width="2"
   height="9.8999996"
   id="rect1299" />

			</g>

			<g
   id="g1305">
				<rect
   x="173.869"
   y="296.116"
   fill="#111111"
   width="2"
   height="9.8999996"
   id="rect1303" />

			</g>

			<g
   id="g1309">
				<rect
   x="185.90199"
   y="296.116"
   fill="#111111"
   width="2"
   height="9.8999996"
   id="rect1307" />

			</g>

			<g
   id="g1313">
				<rect
   x="197.936"
   y="296.116"
   fill="#111111"
   width="2"
   height="9.8999996"
   id="rect1311" />

			</g>

			<g
   id="g1317">
				<rect
   x="209.96899"
   y="296.116"
   fill="#111111"
   width="2"
   height="9.8999996"
   id="rect1315" />

			</g>

			<g
   id="g1321">
				<rect
   x="176.653"
   y="326.07501"
   fill="#111111"
   width="36.638"
   height="2"
   id="rect1319" />

			</g>

			<g
   id="g1325">
				<rect
   x="199.339"
   y="335.047"
   fill="#111111"
   width="13.952"
   height="2"
   id="rect1323" />

			</g>

			<g
   id="g1329">
				<rect
   x="176.653"
   y="335.047"
   fill="#111111"
   width="10.764"
   height="2"
   id="rect1327" />

			</g>

			<g
   id="g1333">
				<rect
   x="176.653"
   y="344.01801"
   fill="#111111"
   width="36.638"
   height="2"
   id="rect1331" />

			</g>

			<g
   id="g1337">
				<rect
   x="199.339"
   y="352.98901"
   fill="#111111"
   width="13.952"
   height="2"
   id="rect1335" />

			</g>

			<g
   id="g1341">
				<rect
   x="176.653"
   y="352.98901"
   fill="#111111"
   width="10.764"
   height="2"
   id="rect1339" />

			</g>

			<g
   id="g1345">
				<rect
   x="176.653"
   y="361.95999"
   fill="#111111"
   width="36.638"
   height="2"
   id="rect1343" />

			</g>

		</g>

		<g
   id="g1361">
			<g
   id="g1353">
				<g
   id="g1351">
					<path
   fill="#111111"
   d="m 590.542,221.896 c -0.54,0 -1.041,-0.214 -1.447,-0.619 l -3.7,-3.702 2.313,-2.316 c 0.411,-0.411 0.583,-0.967 0.537,-1.12 l -3.211,-3.198 c -0.392,0.008 -0.859,0.227 -1.138,0.505 l -2.315,2.315 -3.283,-3.282 c -0.929,-0.929 -1.182,-2.746 -0.06,-3.87 l 2.276,-2.277 -0.915,-0.914 c -0.476,-0.476 -0.757,-1.101 -0.794,-1.761 -0.041,-0.728 0.223,-1.415 0.745,-1.936 l 3.688,-3.688 c 0.987,-0.986 2.709,-0.945 3.701,0.044 l 0.915,0.916 2.682,-2.682 c 0.553,-0.554 1.453,-0.898 2.346,-0.898 0.743,0 1.389,0.237 1.817,0.667 l 3.282,3.282 -3.017,3.018 c -0.054,0.054 -0.083,0.093 -0.098,0.115 0.025,0.008 0.096,0.12 0.296,0.321 l 3.238,3.238 c 0.13,0.129 0.216,0.198 0.269,0.233 0.027,-0.021 0.063,-0.051 0.107,-0.096 l 3.018,-3.017 3.701,3.701 c 0.356,0.355 0.544,0.817 0.543,1.335 0,1.1 -0.837,2.052 -1.196,2.41 l -2.68,2.681 1.332,1.332 c 0.482,0.481 0.752,1.111 0.76,1.773 0.008,0.687 -0.27,1.347 -0.783,1.859 l -3.689,3.688 c -0.502,0.504 -1.15,0.781 -1.823,0.781 v 0 c -0.672,0 -1.313,-0.271 -1.804,-0.763 l -1.332,-1.332 -2.277,2.276 c -0.64,0.642 -1.334,0.981 -2.004,0.981 z m -2.32,-4.322 2.32,2.321 c 0.055,0 0.268,-0.07 0.591,-0.394 l 3.691,-3.69 2.746,2.746 c 0.231,0.232 0.543,0.237 0.798,-0.019 l 3.689,-3.688 c 0.131,-0.131 0.199,-0.277 0.197,-0.423 -10e-4,-0.136 -0.063,-0.271 -0.173,-0.381 l -2.747,-2.747 4.095,-4.096 c 0.448,-0.446 0.62,-0.879 0.609,-1.001 l -2.24,-2.207 -1.609,1.607 c -0.472,0.472 -0.981,0.711 -1.514,0.711 -0.744,0.001 -1.294,-0.453 -1.689,-0.848 l -3.24,-3.24 c -1.505,-1.509 -0.769,-2.692 -0.196,-3.265 l 1.602,-1.603 -1.869,-1.869 c -0.019,-0.016 -0.149,-0.08 -0.402,-0.08 -0.407,0 -0.776,0.157 -0.931,0.313 l -4.097,4.096 -2.328,-2.329 c -0.242,-0.241 -0.631,-0.287 -0.873,-0.045 l -3.689,3.689 c -0.118,0.118 -0.17,0.251 -0.162,0.408 0.009,0.164 0.088,0.335 0.212,0.459 l 2.329,2.328 -3.691,3.691 c -0.271,0.271 -0.158,0.824 0.06,1.042 l 1.869,1.868 0.901,-0.901 c 0.658,-0.657 1.631,-1.083 2.48,-1.083 0.594,0 1.108,0.2 1.486,0.578 l 3.239,3.24 c 0.53,0.529 0.695,1.329 0.452,2.193 -0.174,0.617 -0.544,1.241 -1.016,1.713 z"
   id="path1349" />

				</g>

			</g>

			<g
   id="g1359">
				<g
   id="g1357">
					<path
   fill="#3dc7d2"
   d="m 578.712,215.187 -2.07,2.072 -3.471,-3.472 c -0.68,-0.68 -1.89,-1.467 -2.487,-0.87 l -3.152,3.152 2.497,2.499 c 0.68,0.678 0.461,0.879 -0.135,1.476 l -3.239,3.239 c -0.597,0.597 -1.096,1.112 -1.774,0.434 l -2.499,-2.498 -2.496,2.494 c -0.596,0.597 -0.07,2.07 0.609,2.75 l 3.471,3.47 -1.811,1.811 c -0.596,0.595 -1,1.717 -0.32,2.396 l 3.689,3.688 c 0.679,0.679 1.976,0.451 2.572,-0.145 l 1.811,-1.811 2.885,2.885 c 0.679,0.68 1.548,0.604 2.145,0.007 l 2.496,-2.496 -1.487,-1.484 c -0.678,-0.679 -1.174,-2.19 -0.579,-2.787 l 3.24,-3.24 c 0.595,-0.595 1.809,0.199 2.488,0.877 l 1.486,1.487 3.154,-3.154 c 0.596,-0.595 0.411,-1.204 -0.269,-1.883 l -2.885,-2.885 2.072,-2.071 c 0.597,-0.598 0.563,-1.634 -0.116,-2.311 l -3.689,-3.69 c -0.679,-0.679 -1.539,-0.537 -2.136,0.06 z"
   id="path1355" />

				</g>

			</g>

		</g>

		<g
   id="g1393">
			<g
   id="g1365">
				<path
   fill="#111111"
   d="m 238.34,250.487 h -6.756 c -0.685,0 -1.329,-0.267 -1.813,-0.751 -0.484,-0.484 -0.751,-1.128 -0.75,-1.813 V 244.8 c -1.715,-0.468 -3.359,-1.14 -4.907,-2.007 l -2.201,2.201 c -0.968,0.969 -2.658,0.969 -3.626,0 l -4.777,-4.777 c -0.484,-0.484 -0.75,-1.128 -0.75,-1.813 0,-0.685 0.266,-1.328 0.75,-1.813 l 2.209,-2.209 c -0.882,-1.542 -1.57,-3.181 -2.051,-4.889 h -3.113 c -1.413,0 -2.563,-1.15 -2.563,-2.564 v -6.756 c 0,-1.413 1.15,-2.563 2.563,-2.563 h 3.125 c 0.467,-1.716 1.139,-3.36 2.006,-4.907 l -2.201,-2.201 c -0.999,-1 -0.999,-2.626 0,-3.626 l 4.777,-4.777 c 0.97,-0.969 2.657,-0.967 3.625,0 l 2.209,2.209 c 1.543,-0.882 3.182,-1.569 4.889,-2.051 v -3.111 c 0,-1.414 1.15,-2.564 2.563,-2.564 h 6.756 c 1.414,0 2.563,1.15 2.563,2.564 v 3.123 c 1.712,0.466 3.356,1.139 4.907,2.007 l 2.202,-2.202 c 0.969,-0.969 2.655,-0.969 3.625,-0.001 l 4.777,4.777 c 1,1.002 0.999,2.629 0,3.627 l -2.208,2.209 c 0.882,1.544 1.57,3.183 2.051,4.89 h 3.113 c 1.414,0 2.563,1.149 2.563,2.563 v 6.755 c 0,1.413 -1.15,2.563 -2.563,2.563 h -3.124 c -0.467,1.715 -1.14,3.36 -2.007,4.908 l 2.202,2.202 c 0.484,0.483 0.75,1.127 0.75,1.812 0,0.686 -0.267,1.329 -0.751,1.813 l -4.776,4.775 c -0.966,0.969 -2.658,0.97 -3.626,-0.001 l -2.208,-2.208 c -1.542,0.882 -3.18,1.569 -4.889,2.052 v 3.113 c -0.002,1.414 -1.152,2.564 -2.565,2.564 z m -14.541,-10.21 0.671,0.408 c 1.789,1.09 3.733,1.884 5.777,2.362 l 0.772,0.181 v 4.695 c 0,0.15 0.059,0.292 0.165,0.398 0.106,0.106 0.248,0.165 0.399,0.165 h 6.756 c 0.311,0 0.563,-0.253 0.563,-0.563 v -4.671 l 0.764,-0.186 c 2.037,-0.496 3.973,-1.309 5.754,-2.415 l 0.646,-0.401 0.56,0.516 2.789,2.787 c 0.215,0.215 0.583,0.214 0.796,0.001 l 4.778,-4.777 c 0.106,-0.106 0.165,-0.247 0.165,-0.398 0,-0.15 -0.058,-0.291 -0.164,-0.396 l -3.303,-3.304 0.409,-0.672 c 1.09,-1.789 1.884,-3.733 2.362,-5.777 l 0.18,-0.772 h 4.696 c 0.311,0 0.563,-0.253 0.563,-0.563 v -6.755 c 0,-0.311 -0.253,-0.563 -0.563,-0.563 h -4.67 l -0.186,-0.764 c -0.494,-2.034 -1.307,-3.971 -2.416,-5.756 l -0.444,-0.715 0.629,-0.56 2.717,-2.719 c 0.22,-0.22 0.22,-0.578 -0.001,-0.8 l -4.775,-4.775 c -0.212,-0.211 -0.585,-0.212 -0.799,0.001 l -3.301,3.302 -0.671,-0.408 c -1.793,-1.091 -3.736,-1.885 -5.776,-2.36 l -0.773,-0.18 v -4.696 c 0,-0.312 -0.253,-0.564 -0.563,-0.564 h -6.756 c -0.311,0 -0.563,0.253 -0.563,0.564 v 4.669 l -0.764,0.186 c -2.035,0.495 -3.971,1.308 -5.755,2.415 l -0.674,0.418 -3.32,-3.32 c -0.213,-0.212 -0.585,-0.212 -0.798,0.001 l -4.776,4.776 c -0.22,0.22 -0.22,0.578 0,0.798 l 3.302,3.303 -0.409,0.672 c -1.089,1.787 -1.883,3.729 -2.361,5.775 l -0.18,0.772 h -4.697 c -0.311,0 -0.563,0.252 -0.563,0.563 v 6.756 c 0,0.312 0.252,0.564 0.563,0.564 h 4.67 l 0.186,0.764 c 0.496,2.036 1.308,3.972 2.415,5.754 l 0.411,0.66 -0.539,0.561 -2.773,2.773 c -0.22,0.22 -0.22,0.577 0,0.797 l 4.777,4.777 c 0.214,0.213 0.584,0.213 0.797,0 z"
   id="path1363" />

			</g>

			<g
   id="g1371">
				<g
   id="g1369">
					<path
   fill-rule="evenodd"
   clip-rule="evenodd"
   fill="#ea572e"
   d="m 234.943,240.874 c 9.576,0 17.339,-7.765 17.339,-17.34 0,-9.577 -7.763,-17.339 -17.339,-17.338 -9.576,0 -17.339,7.761 -17.339,17.338 0,9.575 7.764,17.34 17.339,17.34 z"
   id="path1367" />

				</g>

			</g>

			<g
   id="g1377">
				<g
   id="g1375">
					<path
   fill="#111111"
   d="m 234.952,237.665 -0.027,-2 h 0.027 c 0.902,0 1.802,-0.1 2.675,-0.295 l 0.438,1.951 c -1.016,0.229 -2.064,0.344 -3.113,0.344 z m -4.19,-0.633 c -1.006,-0.311 -1.981,-0.738 -2.898,-1.271 l 1.005,-1.729 c 0.786,0.456 1.622,0.823 2.484,1.09 z m 11.227,-1.241 -0.997,-1.734 c 0.785,-0.451 1.521,-0.992 2.188,-1.608 l 1.357,1.469 c -0.776,0.717 -1.634,1.348 -2.548,1.873 z m -17.41,-2.661 c -0.719,-0.776 -1.35,-1.633 -1.876,-2.546 l 1.732,-0.998 c 0.452,0.783 0.994,1.519 1.611,2.187 z m 22.593,-2.495 -1.729,-1.006 c 0.456,-0.783 0.824,-1.619 1.094,-2.484 l 1.909,0.596 c -0.314,1.007 -0.743,1.982 -1.274,2.894 z m -26.004,-3.973 c -0.23,-1.019 -0.347,-2.071 -0.347,-3.127 l 2,-0.015 v 0.015 c 0,0.907 0.1,1.812 0.298,2.686 z m 25.915,-3.087 v -0.04 c 0,-0.899 -0.099,-1.795 -0.293,-2.662 l 1.952,-0.438 c 0.226,1.011 0.341,2.054 0.341,3.1 z m -23.723,-3.627 -1.911,-0.59 c 0.311,-1.008 0.738,-1.983 1.269,-2.898 l 1.73,1.002 c -0.455,0.786 -0.822,1.622 -1.088,2.486 z m 22.121,-2.442 c -0.452,-0.787 -0.992,-1.524 -1.606,-2.19 l 1.47,-1.355 c 0.716,0.775 1.346,1.634 1.871,2.55 z m -18.775,-2.868 -1.36,-1.467 c 0.775,-0.719 1.631,-1.351 2.544,-1.879 l 1.001,1.732 c -0.785,0.453 -1.52,0.996 -2.185,1.614 z m 14.351,-1.589 c -0.785,-0.458 -1.62,-0.826 -2.481,-1.095 l 0.595,-1.91 c 1.006,0.313 1.98,0.744 2.896,1.278 z m -8.804,-1.345 -0.444,-1.949 c 1.023,-0.233 2.081,-0.352 3.143,-0.352 l 0.055,2 h -0.055 c -0.913,0 -1.821,0.102 -2.699,0.301 z"
   id="path1373" />

				</g>

			</g>

			<g
   id="g1391">
				<g
   id="g1381">
					<path
   fill="#111111"
   d="m 236.073,230.889 h -1.604 c -1.892,0 -3.43,-1.538 -3.43,-3.429 v -0.748 h 2 v 0.748 c 0,0.788 0.642,1.429 1.43,1.429 h 1.604 c 0.729,0 1.321,-0.593 1.321,-1.32 v -1.532 c 0,-0.828 -0.673,-1.501 -1.5,-1.501 h -2.125 c -1.807,0 -3.277,-1.471 -3.277,-3.278 v -0.746 c 0,-2.174 1.769,-3.942 3.942,-3.942 h 1.026 c 1.859,0 3.372,1.513 3.372,3.371 v 1.212 h -2 v -1.212 c 0,-0.756 -0.615,-1.371 -1.372,-1.371 h -1.026 c -1.071,0 -1.942,0.871 -1.942,1.942 v 0.746 c 0,0.705 0.573,1.278 1.277,1.278 h 2.125 c 1.93,0 3.5,1.57 3.5,3.501 v 1.532 c 0.001,1.83 -1.489,3.32 -3.321,3.32 z"
   id="path1379" />

				</g>

				<g
   id="g1385">
					<rect
   x="233.94299"
   y="229.88901"
   fill="#111111"
   width="2"
   height="3.1789999"
   id="rect1383" />

				</g>

				<g
   id="g1389">
					<rect
   x="233.94299"
   y="214.002"
   fill="#111111"
   width="2"
   height="3.566"
   id="rect1387" />

				</g>

			</g>

		</g>

		<g
   id="g1405">
			<g
   id="g1397">
				<path
   fill="#3dc7d2"
   d="m 717.873,233.442 h -3.11 c -0.423,-1.735 -1.116,-3.366 -2.033,-4.843 l 0.01,-0.009 2.2,-2.201 c 0.49,-0.487 0.49,-1.282 0,-1.771 l -3.825,-3.826 c -0.49,-0.487 -1.282,-0.488 -1.772,0 l -2.2,2.201 c -1.526,-0.93 -3.169,-1.592 -4.861,-1.988 v -0.014 -3.111 c 0,-0.691 -0.56,-1.253 -1.251,-1.253 h -5.412 c -0.691,0 -1.251,0.562 -1.251,1.253 v 3.111 c -1.735,0.422 -3.366,1.115 -4.842,2.032 l -0.01,-0.011 -2.2,-2.199 c -0.489,-0.49 -1.282,-0.49 -1.771,0 l -3.826,3.826 c -0.489,0.488 -0.489,1.281 0,1.771 l 2.199,2.199 c -0.928,1.527 -1.591,3.169 -1.986,4.861 h -0.015 -3.111 c -0.691,0 -1.251,0.562 -1.251,1.253 v 5.409 c 0,0.692 0.56,1.254 1.251,1.254 h 3.111 c 0.422,1.734 1.116,3.365 2.032,4.842 l -0.009,0.01 -2.201,2.199 c -0.488,0.489 -0.488,1.282 0,1.771 l 3.826,3.826 c 0.49,0.489 1.282,0.489 1.771,0 l 2.201,-2.199 c 1.526,0.928 3.167,1.592 4.86,1.987 v 0.015 l 10e-4,3.109 c -10e-4,0.691 0.56,1.253 1.251,1.253 h 5.411 c 0.691,0 1.253,-0.56 1.253,-1.253 v -3.109 c 1.735,-0.422 3.366,-1.116 4.842,-2.032 l 0.009,0.009 2.201,2.201 c 0.489,0.488 1.282,0.488 1.771,0 l 3.826,-3.826 c 0.489,-0.488 0.489,-1.282 0,-1.771 l -2.201,-2.201 c 0.929,-1.525 1.591,-3.167 1.988,-4.86 h 0.014 3.111 c 0.691,0 1.253,-0.561 1.253,-1.252 v -5.41 c -0.002,-0.691 -0.563,-1.253 -1.254,-1.253 z"
   id="path1395" />

			</g>

			<g
   id="g1403">
				<g
   id="g1401">
					<path
   fill="#111111"
   d="m 697.75,248.917 c -1.154,-0.059 -2.285,-0.289 -3.363,-0.685 l 0.688,-1.877 c 0.889,0.325 1.823,0.516 2.776,0.563 z m 4.512,-0.669 -0.68,-1.881 c 0.892,-0.322 1.73,-0.777 2.491,-1.352 l 1.205,1.596 c -0.92,0.696 -1.935,1.246 -3.016,1.637 z M 690.5,245.845 c -0.843,-0.785 -1.562,-1.688 -2.136,-2.684 l 1.732,-1 c 0.475,0.823 1.07,1.57 1.767,2.221 z m 17.806,-2.645 -1.729,-1.006 c 0.479,-0.822 0.829,-1.709 1.042,-2.635 l 1.949,0.449 c -0.258,1.122 -0.683,2.196 -1.262,3.192 z m -21.39,-4.367 c -0.057,-0.467 -0.086,-0.944 -0.086,-1.418 0,-0.675 0.059,-1.352 0.175,-2.01 l 1.97,0.348 c -0.096,0.544 -0.145,1.104 -0.145,1.662 0,0.393 0.024,0.787 0.072,1.174 z m 20.809,-3.043 c -0.161,-0.937 -0.462,-1.842 -0.894,-2.689 l 1.782,-0.908 c 0.523,1.027 0.887,2.124 1.082,3.258 z m -17.371,-3.543 -1.679,-1.088 c 0.625,-0.964 1.389,-1.829 2.271,-2.569 l 1.286,1.531 c -0.73,0.613 -1.362,1.328 -1.878,2.126 z m 14.134,-2.101 c -0.729,-0.617 -1.54,-1.118 -2.412,-1.489 l 0.783,-1.84 c 1.057,0.449 2.039,1.056 2.92,1.802 z m -8.946,-1.828 -0.589,-1.912 c 1.095,-0.337 2.236,-0.508 3.393,-0.508 l 0.043,2 h -0.043 c -0.957,0 -1.9,0.142 -2.804,0.42 z"
   id="path1399" />

				</g>

			</g>

		</g>

		<g
   id="g1425">
			<g
   id="g1409">
				<path
   fill="#111111"
   d="m 371.121,362.603 -1.452,-1.375 c 0.658,-0.696 1.288,-1.438 1.871,-2.204 l 1.592,1.211 c -0.627,0.823 -1.303,1.619 -2.011,2.368 z m -42.105,-2.281 c -0.626,-0.821 -1.212,-1.689 -1.741,-2.582 l 1.72,-1.02 c 0.49,0.825 1.032,1.629 1.611,2.389 z m 46.378,-3.556 -1.75,-0.969 c 0.466,-0.842 0.89,-1.717 1.259,-2.601 l 1.846,0.771 c -0.398,0.951 -0.854,1.892 -1.355,2.799 z m -49.954,-2.747 c -0.383,-0.957 -0.717,-1.95 -0.991,-2.95 l 1.929,-0.529 c 0.254,0.929 0.563,1.849 0.919,2.735 z m 52.618,-3.984 -1.939,-0.488 c 0.234,-0.931 0.417,-1.884 0.543,-2.832 l 1.982,0.264 c -0.136,1.023 -0.333,2.051 -0.586,3.056 z m -54.407,-3.033 c -0.124,-1.017 -0.194,-2.06 -0.209,-3.099 l 2,-0.029 c 0.014,0.969 0.08,1.94 0.195,2.888 z m 53.221,-4.122 c -0.021,-0.962 -0.097,-1.93 -0.225,-2.878 l 1.982,-0.266 c 0.137,1.021 0.218,2.063 0.242,3.099 z m -51.209,-2.85 -1.983,-0.26 c 0.135,-1.026 0.328,-2.054 0.574,-3.056 l 1.942,0.479 c -0.229,0.93 -0.408,1.884 -0.533,2.837 z m 50.187,-3.789 c -0.27,-0.922 -0.594,-1.837 -0.964,-2.72 l 1.844,-0.773 c 0.4,0.952 0.75,1.938 1.04,2.933 z m -48.46,-2.706 -1.851,-0.76 c 0.391,-0.952 0.841,-1.896 1.337,-2.804 l 1.755,0.959 c -0.461,0.844 -0.879,1.72 -1.241,2.605 z m 45.747,-3.441 c -0.499,-0.82 -1.049,-1.621 -1.635,-2.378 l 1.582,-1.225 c 0.632,0.817 1.225,1.68 1.762,2.563 z m -42.416,-2.392 -1.594,-1.209 c 0.625,-0.824 1.303,-1.622 2.013,-2.369 l 1.449,1.379 c -0.658,0.693 -1.287,1.433 -1.868,2.199 z m 38.209,-2.85 c -0.691,-0.664 -1.427,-1.297 -2.189,-1.882 l 1.218,-1.586 c 0.82,0.629 1.613,1.311 2.357,2.026 z m -33.49,-1.93 -1.228,-1.58 c 0.819,-0.636 1.681,-1.23 2.561,-1.767 l 1.041,1.707 c -0.815,0.498 -1.614,1.049 -2.374,1.64 z m 28.086,-2.064 c -0.84,-0.467 -1.714,-0.89 -2.596,-1.257 l 0.769,-1.846 c 0.951,0.396 1.893,0.852 2.798,1.354 z m -22.287,-1.319 -0.768,-1.848 c 0.954,-0.396 1.943,-0.742 2.939,-1.027 l 0.551,1.922 c -0.921,0.265 -1.838,0.585 -2.722,0.953 z m 16.04,-1.148 c -0.931,-0.233 -1.884,-0.416 -2.833,-0.543 l 0.266,-1.982 c 1.023,0.137 2.051,0.334 3.054,0.586 z m -9.555,-0.575 -0.248,-1.984 c 0.512,-0.063 1.028,-0.114 1.549,-0.15 0.52,-0.035 1.037,-0.057 1.551,-0.063 l 0.027,2 c -0.478,0.007 -0.959,0.026 -1.443,0.06 -0.482,0.031 -0.961,0.078 -1.436,0.137 z"
   id="path1407" />

			</g>

			<g
   id="g1413">
				<path
   fill="#f3a52d"
   d="m 371.877,343.459 c 0,-11.998 -10.206,-21.626 -22.375,-20.794 -10.845,0.742 -19.193,10.201 -19.062,21.07 0.092,7.674 4.044,14.343 10.659,17.877 2.355,1.258 3.774,3.765 3.774,6.434 v 0.05 h 13.021 v -0.05 c 0,-2.697 1.373,-5.226 3.676,-6.628 5.943,-3.625 10.307,-10.308 10.307,-17.959 z"
   id="path1411" />

			</g>

			<g
   id="g1419">
				<g
   id="g1417">
					<path
   fill="#111111"
   d="m 358.104,378.62 h -13.439 c -1.534,0 -2.782,-1.248 -2.782,-2.781 v -5.962 c 0,-1.533 1.248,-2.781 2.782,-2.781 h 13.439 c 1.534,0 2.782,1.248 2.782,2.781 v 5.962 c -0.001,1.533 -1.249,2.781 -2.782,2.781 z m -13.44,-9.524 c -0.431,0 -0.782,0.351 -0.782,0.781 v 5.962 c 0,0.431 0.351,0.781 0.782,0.781 h 13.439 c 0.431,0 0.782,-0.351 0.782,-0.781 v -5.962 c 0,-0.431 -0.351,-0.781 -0.782,-0.781 z"
   id="path1415" />

				</g>

			</g>

			<g
   id="g1423">
				<rect
   x="350.15799"
   y="353.01599"
   fill="#111111"
   width="2"
   height="14.982"
   id="rect1421" />

			</g>

		</g>

		<g
   id="g1459">
			<g
   id="g1429">
				<rect
   x="401.823"
   y="339.061"
   fill="#3dc7d2"
   width="11.951"
   height="13.381"
   id="rect1427" />

			</g>

			<g
   id="g1433">
				<path
   fill="#3dc7d2"
   d="m 420.131,368.473 c -0.047,-2.419 -1.706,-4.354 -3.757,-4.354 h -2.601 v -9.417 h -11.951 v 9.417 h -2.466 c -2.048,0 -3.708,1.938 -3.757,4.354 z"
   id="path1431" />

			</g>

			<g
   id="g1439">
				<g
   id="g1437">
					<path
   fill="#2e8d9a"
   d="m 417.503,329.866 h -6.45 c 0.487,-0.841 0.744,-1.678 0.649,-2.632 -0.153,-1.529 -1.238,-2.873 -2.72,-3.283 -2.521,-0.697 -4.79,1.287 -4.79,3.7 0,0.795 0.249,1.491 0.669,2.215 h -6.699 c 0,4.346 2.627,7.968 6.31,9.054 h 6.721 c 3.685,-1.086 6.31,-4.708 6.31,-9.054 z"
   id="path1435" />

				</g>

			</g>

			<g
   id="g1443">
				<rect
   x="400.76401"
   y="352.504"
   fill="#111111"
   width="14.069"
   height="2"
   id="rect1441" />

			</g>

			<g
   id="g1447">
				<rect
   x="393.289"
   y="368.23199"
   fill="#111111"
   width="29.018999"
   height="2"
   id="rect1445" />

			</g>

			<g
   id="g1453">
				<g
   id="g1451">
					<rect
   x="391.13599"
   y="370.95999"
   fill="#2e8d9a"
   width="33.324001"
   height="5"
   id="rect1449" />

				</g>

			</g>

			<g
   id="g1457">
				<rect
   x="400.42401"
   y="337.92001"
   fill="#111111"
   width="14.749"
   height="2"
   id="rect1455" />

			</g>

		</g>

		<g
   id="g1485">
			<g
   id="g1465">
				<g
   id="g1463">
					<path
   fill="#111111"
   d="m 487.269,208.121 c -0.593,0 -1.189,-0.022 -1.787,-0.066 -6.39,-0.465 -12.223,-3.398 -16.424,-8.26 -4.197,-4.862 -6.253,-11.06 -5.789,-17.451 0.474,-6.406 3.419,-12.247 8.295,-16.449 4.819,-4.145 11.063,-6.222 17.417,-5.754 6.388,0.464 12.22,3.396 16.419,8.258 4.199,4.86 6.254,11.056 5.789,17.445 -0.239,3.278 -1.12,6.407 -2.619,9.3 -0.927,1.786 -2.083,3.454 -3.437,4.96 l -0.773,0.858 -0.017,-0.021 c -0.46,0.468 -0.946,0.922 -1.452,1.358 -0.769,0.661 -1.576,1.273 -2.401,1.823 -3.927,2.616 -8.498,3.999 -13.221,3.999 z m -0.079,-46.047 c -5.233,0 -10.32,1.896 -14.321,5.336 -4.47,3.853 -7.171,9.208 -7.605,15.079 -0.426,5.858 1.459,11.54 5.308,15.998 3.852,4.457 9.199,7.146 15.057,7.573 4.91,0.359 9.703,-0.904 13.753,-3.603 0.757,-0.505 1.499,-1.067 2.204,-1.674 0.738,-0.637 1.43,-1.315 2.054,-2.018 l 0.363,-0.408 c 1.087,-1.271 2.025,-2.66 2.792,-4.136 1.374,-2.649 2.181,-5.518 2.399,-8.523 0.427,-5.857 -1.458,-11.537 -5.307,-15.993 -3.85,-4.457 -9.195,-7.146 -15.051,-7.571 -0.552,-0.039 -1.1,-0.06 -1.646,-0.06 z"
   id="path1461" />

				</g>

			</g>

			<g
   id="g1475">
				<g
   id="g1469">
					<path
   fill="#111111"
   d="m 503.562,192.015 -1.775,-0.92 c 0.917,-1.77 1.456,-3.685 1.602,-5.692 l 1.995,0.145 c -0.166,2.279 -0.779,4.455 -1.822,6.467 z"
   id="path1467" />

				</g>

				<g
   id="g1473">
					<path
   fill="#111111"
   d="m 496.438,199.152 -0.933,-1.77 c 0.457,-0.24 0.905,-0.507 1.332,-0.79 0.51,-0.34 1.005,-0.716 1.47,-1.117 0.4,-0.344 1.145,-1.106 1.397,-1.371 l 1.446,1.381 c -0.04,0.042 -0.985,1.03 -1.539,1.506 -0.526,0.454 -1.088,0.881 -1.667,1.267 -0.484,0.322 -0.99,0.622 -1.506,0.894 z"
   id="path1471" />

				</g>

			</g>

			<g
   id="g1479">
				
					<rect
   x="502.617"
   y="201.343"
   transform="matrix(0.7071,0.7071,-0.7071,0.7071,290.9814,-297.8058)"
   fill="#111111"
   width="4.7150002"
   height="2"
   id="rect1477" />

			</g>

			<g
   id="g1483">
				
					<rect
   x="501.49301"
   y="211.938"
   transform="matrix(0.7071,0.7071,-0.7071,0.7071,305.0762,-303.644)"
   fill="#2e8d9a"
   width="35.151001"
   height="9"
   id="rect1481" />

			</g>

		</g>

		<g
   id="g1489">
			<rect
   x="70.953003"
   y="376.621"
   fill="#111111"
   width="359.70499"
   height="2"
   id="rect1487" />

		</g>

		<g
   id="g1493">
			<rect
   x="50.174999"
   y="376.62"
   fill="#111111"
   width="10.378"
   height="2"
   id="rect1491" />

		</g>

		<g
   id="g1497">
			<rect
   x="152.026"
   y="274.60501"
   fill="#111111"
   width="22.799999"
   height="2"
   id="rect1495" />

		</g>

		<g
   id="g1501">
			<rect
   x="707.72601"
   y="273.76501"
   fill="#111111"
   width="22.799999"
   height="2"
   id="rect1499" />

		</g>

		<g
   id="g1505">
			<rect
   x="204.576"
   y="170.31599"
   fill="#111111"
   width="22.799999"
   height="2"
   id="rect1503" />

		</g>

		<g
   id="g1509">
			<rect
   x="531.81299"
   y="193.795"
   fill="#111111"
   width="22.799999"
   height="2"
   id="rect1507" />

		</g>

		<g
   id="g1513">
			<rect
   x="663.07703"
   y="265.14499"
   fill="#111111"
   width="22.799999"
   height="2"
   id="rect1511" />

		</g>

		<g
   id="g1517">
			<rect
   x="182.644"
   y="264.39499"
   fill="#111111"
   width="22.799999"
   height="2"
   id="rect1515" />

		</g>

		<g
   id="g1521">
			<rect
   x="459.85101"
   y="146.459"
   fill="#111111"
   width="22.799999"
   height="2"
   id="rect1519" />

		</g>

		<g
   id="g1595">
			<g
   id="g1525">
				<path
   fill="#7c7e82"
   d="m 233.595,371.229 0.039,-95.276 c 0.001,-2.852 2.313,-5.161 5.164,-5.16 l 71.968,0.029 c 2.85,10e-4 5.16,2.313 5.16,5.162 v 95.276 c 0,2.852 -2.312,5.163 -5.164,5.16 l -72.007,-0.026 c -2.851,-0.001 -5.161,-2.314 -5.16,-5.165 z"
   id="path1523" />

			</g>

			<g
   id="g1529">
				<polygon
   fill="#e6e6e6"
   points="242.225,367.229 307.296,367.255 307.296,279.984 242.261,279.959 "
   id="polygon1527" />

			</g>

			<g
   id="g1555">
				<g
   id="g1553">
					<g
   id="g1539">
						<g
   id="g1537">
							<g
   id="g1535">
								<g
   id="g1533">
									<path
   fill="#111111"
   d="m 277.228,361.04 c -11.379,0 -20.636,-9.257 -20.636,-20.636 0,-10.823 8.46,-19.858 19.261,-20.571 l 1.066,-0.07 v 20.948 h 20.949 l -0.07,1.066 c -0.717,10.802 -9.753,19.263 -20.57,19.263 z m -2.31,-39.11 c -9.238,1.145 -16.327,9.061 -16.327,18.475 0,10.275 8.36,18.636 18.636,18.636 9.41,0 17.325,-7.09 18.472,-16.329 H 274.917 V 321.93 Z"
   id="path1531" />

								</g>

							</g>

						</g>

					</g>

					<g
   id="g1545">
						<g
   id="g1543">
							<path
   fill="#ea572e"
   d="m 278.538,338.33 v -16.211 c 6.274,0.446 11.682,4.067 14.632,9.258 z"
   id="path1541" />

						</g>

					</g>

					<g
   id="g1551">
						<g
   id="g1549">
							<path
   fill="#2e8d9a"
   d="m 295.51,339.092 h -12.476 l 11.274,-5.354 c 0.671,1.713 1.073,3.508 1.202,5.354 z"
   id="path1547" />

						</g>

					</g>

				</g>

			</g>

			<g
   id="g1581">
				<g
   id="g1559">
					<rect
   x="273.17099"
   y="290.573"
   fill="#111111"
   width="4.0240002"
   height="2"
   id="rect1557" />

				</g>

				<g
   id="g1563">
					<rect
   x="261.99799"
   y="290.573"
   fill="#111111"
   width="4.0250001"
   height="2"
   id="rect1561" />

				</g>

				<g
   id="g1567">
					<rect
   x="250.825"
   y="290.573"
   fill="#111111"
   width="4.0240002"
   height="2"
   id="rect1565" />

				</g>

				<g
   id="g1571">
					<rect
   x="250.825"
   y="297.60501"
   fill="#111111"
   width="47.870998"
   height="2"
   id="rect1569" />

				</g>

				<g
   id="g1575">
					<rect
   x="250.825"
   y="304.55099"
   fill="#111111"
   width="47.870998"
   height="2"
   id="rect1573" />

				</g>

				<g
   id="g1579">
					<rect
   x="250.825"
   y="311.49701"
   fill="#111111"
   width="21.857"
   height="2"
   id="rect1577" />

				</g>

			</g>

			<g
   id="g1585">
				<path
   fill="#111111"
   d="m 308.296,368.255 -67.072,-0.025 0.037,-89.271 67.035,0.025 z m -65.07,-2.026 63.071,0.025 v -85.271 l -63.036,-0.025 z"
   id="path1583" />

			</g>

			<g
   id="g1589">
				<path
   fill="#e6e6e6"
   d="m 289.579,283.364 h -29.637 c -3.987,0 -7.219,-3.232 -7.219,-7.22 v -0.146 c 0,-3.987 3.232,-7.219 7.219,-7.219 h 29.637 c 3.987,0 7.22,3.231 7.22,7.219 v 0.146 c 0,3.988 -3.233,7.22 -7.22,7.22 z"
   id="path1587" />

			</g>

			<g
   id="g1593">
				<path
   fill="#111111"
   d="m 289.579,284.364 h -29.637 c -4.532,0 -8.219,-3.688 -8.219,-8.22 v -0.146 c 0,-4.532 3.687,-8.219 8.219,-8.219 h 29.637 c 4.532,0 8.22,3.687 8.22,8.219 v 0.146 c 0,4.533 -3.688,8.22 -8.22,8.22 z m -29.637,-14.585 c -3.429,0 -6.219,2.79 -6.219,6.219 v 0.146 c 0,3.43 2.79,6.22 6.219,6.22 h 29.637 c 3.43,0 6.22,-2.79 6.22,-6.22 v -0.146 c 0,-3.429 -2.79,-6.219 -6.22,-6.219 z"
   id="path1591" />

			</g>

		</g>

		<g
   id="g1607">
			<g
   id="g1599">
				
					<rect
   x="224.181"
   y="276.63501"
   transform="matrix(0.7071,0.7071,-0.7071,0.7071,263.2025,-80.1575)"
   fill="#111111"
   width="8.3579998"
   height="2"
   id="rect1597" />

			</g>

			<g
   id="g1605">
				<g
   id="g1603">
					<polygon
   fill="#111111"
   points="229.05,272.685 223.41,278.326 221.345,270.621 "
   id="polygon1601" />

				</g>

			</g>

		</g>

		<g
   id="g1611">
			<rect
   x="439.05301"
   y="376.621"
   fill="#111111"
   width="288.70001"
   height="2"
   id="rect1609" />

		</g>

		<g
   id="g1629">
			<g
   id="g1615">
				<rect
   x="139.91499"
   y="227.39301"
   fill="#111111"
   width="2"
   height="23.841"
   id="rect1613" />

			</g>

			<g
   id="g1619">
				<rect
   x="131.327"
   y="232.69099"
   fill="#111111"
   width="2"
   height="18.542"
   id="rect1617" />

			</g>

			<g
   id="g1623">
				<rect
   x="122.74"
   y="237.86"
   fill="#111111"
   width="2"
   height="13.373"
   id="rect1621" />

			</g>

			<g
   id="g1627">
				<rect
   x="114.152"
   y="242.89"
   fill="#111111"
   width="2"
   height="8.3439999"
   id="rect1625" />

			</g>

		</g>

		<g
   id="g1647">
			<g
   id="g1633">
				<rect
   x="742.05298"
   y="290.73199"
   fill="#111111"
   width="2"
   height="23.841"
   id="rect1631" />

			</g>

			<g
   id="g1637">
				<rect
   x="733.46503"
   y="296.03101"
   fill="#111111"
   width="2"
   height="18.542"
   id="rect1635" />

			</g>

			<g
   id="g1641">
				<rect
   x="724.87799"
   y="301.20001"
   fill="#111111"
   width="2"
   height="13.373"
   id="rect1639" />

			</g>

			<g
   id="g1645">
				<rect
   x="716.29102"
   y="306.229"
   fill="#111111"
   width="2"
   height="8.3450003"
   id="rect1643" />

			</g>

		</g>

		<g
   id="g1661">
			<g
   id="g1651">
				<rect
   x="70.641998"
   y="274.60501"
   fill="#111111"
   width="22.799999"
   height="2"
   id="rect1649" />

			</g>

			<g
   id="g1655">
				<rect
   x="97.841003"
   y="274.60501"
   fill="#111111"
   width="10.2"
   height="2"
   id="rect1653" />

			</g>

			<g
   id="g1659">
				<path
   fill="#111111"
   d="m 117.529,280.518 c -2.708,0 -4.912,-2.203 -4.912,-4.912 0,-2.709 2.203,-4.912 4.912,-4.912 2.709,0 4.912,2.203 4.912,4.912 0,2.709 -2.203,4.912 -4.912,4.912 z m 0,-7.825 c -1.605,0 -2.912,1.307 -2.912,2.912 0,1.605 1.306,2.912 2.912,2.912 1.606,0 2.912,-1.307 2.912,-2.912 0,-1.605 -1.306,-2.912 -2.912,-2.912 z"
   id="path1657" />

			</g>

		</g>

		<g
   id="g1675">
			<g
   id="g1665">
				<rect
   x="399.96399"
   y="160.07401"
   fill="#111111"
   width="22.799999"
   height="2"
   id="rect1663" />

			</g>

			<g
   id="g1669">
				<rect
   x="427.16501"
   y="160.07401"
   fill="#111111"
   width="10.2"
   height="2"
   id="rect1667" />

			</g>

			<g
   id="g1673">
				<path
   fill="#111111"
   d="m 446.852,165.986 c -2.708,0 -4.912,-2.203 -4.912,-4.912 0,-2.709 2.203,-4.912 4.912,-4.912 2.709,0 4.912,2.203 4.912,4.912 0,2.709 -2.203,4.912 -4.912,4.912 z m 0,-7.824 c -1.605,0 -2.912,1.307 -2.912,2.912 0,1.605 1.306,2.912 2.912,2.912 1.606,0 2.912,-1.307 2.912,-2.912 0,-1.605 -1.306,-2.912 -2.912,-2.912 z"
   id="path1671" />

			</g>

		</g>

		<g
   id="g1689">
			<g
   id="g1679">
				<rect
   x="612.08398"
   y="229.061"
   fill="#111111"
   width="22.799999"
   height="2"
   id="rect1677" />

			</g>

			<g
   id="g1683">
				<rect
   x="639.28302"
   y="229.061"
   fill="#111111"
   width="10.2"
   height="2"
   id="rect1681" />

			</g>

			<g
   id="g1687">
				<path
   fill="#111111"
   d="m 658.972,234.972 c -2.708,0 -4.912,-2.203 -4.912,-4.911 0,-2.709 2.204,-4.912 4.912,-4.912 2.708,0 4.912,2.203 4.912,4.912 0,2.708 -2.203,4.911 -4.912,4.911 z m 0,-7.824 c -1.606,0 -2.912,1.307 -2.912,2.912 0,1.605 1.306,2.911 2.912,2.911 1.605,0 2.912,-1.306 2.912,-2.911 0,-1.605 -1.306,-2.912 -2.912,-2.912 z"
   id="path1685" />

			</g>

		</g>

		<g
   id="g1693">
			<path
   fill="#111111"
   d="m 248.262,176.229 c -2.708,0 -4.912,-2.203 -4.912,-4.912 0,-2.709 2.203,-4.912 4.912,-4.912 2.709,0 4.913,2.203 4.913,4.912 0,2.709 -2.204,4.912 -4.913,4.912 z m 0,-7.825 c -1.605,0 -2.912,1.307 -2.912,2.912 0,1.605 1.306,2.912 2.912,2.912 1.606,0 2.913,-1.307 2.913,-2.912 0,-1.605 -1.307,-2.912 -2.913,-2.912 z"
   id="path1691" />

		</g>

		<g
   id="g1697">
			<polygon
   fill="#111111"
   points="169.726,201.725 163.458,209.19 156.652,201.742 150.241,208.964 143.595,202.296 137.679,208.212 136.265,206.798 143.598,199.466 150.157,206.046 156.63,198.754 163.395,206.155 169.646,198.709 176.606,206.157 182.659,198.809 190.588,206.738 189.174,208.152 182.802,201.781 176.701,209.188 "
   id="polygon1695" />

		</g>

		<g
   id="g1701">
			<path
   fill="#111111"
   d="m 530.961,178.068 -1.414,-1.414 4.2,-4.2 c 0.834,-0.835 1.945,-1.296 3.126,-1.296 10e-4,0 10e-4,0 0.002,0 1.184,0.001 2.296,0.463 3.132,1.302 l 1.612,1.617 c 0.476,0.478 1.101,0.737 1.786,0.711 0.676,-0.02 1.295,-0.309 1.744,-0.813 l 1.501,-1.692 c 0.831,-0.936 2.025,-1.478 3.276,-1.486 1.24,0.036 2.454,0.516 3.298,1.439 l 1.584,1.733 c 0.471,0.517 1.117,0.799 1.839,0.789 0.698,-0.015 1.357,-0.33 1.807,-0.865 l 1.262,-1.503 c 0.813,-0.968 2.004,-1.543 3.268,-1.577 1.271,-0.025 2.487,0.477 3.352,1.401 l 1.666,1.782 c 0.476,0.51 1.153,0.791 1.847,0.768 0.697,-0.021 1.351,-0.343 1.793,-0.882 l 1.201,-1.456 c 0.792,-0.961 1.959,-1.546 3.203,-1.605 1.238,-0.067 2.46,0.41 3.339,1.29 l 4.484,4.483 -1.414,1.414 -4.484,-4.483 c -0.489,-0.488 -1.141,-0.741 -1.829,-0.707 -0.692,0.033 -1.315,0.346 -1.756,0.88 l -1.2,1.456 c -0.808,0.982 -2.002,1.569 -3.275,1.609 -1.266,0.054 -2.502,-0.471 -3.371,-1.401 l -1.665,-1.782 c -0.474,-0.506 -1.134,-0.767 -1.837,-0.768 -0.703,0.02 -1.338,0.326 -1.79,0.864 l -1.262,1.503 c -0.82,0.977 -2.021,1.552 -3.296,1.578 -1.276,0.03 -2.498,-0.498 -3.357,-1.439 l -1.584,-1.732 c -0.47,-0.515 -1.112,-0.777 -1.808,-0.789 -0.695,0.005 -1.333,0.294 -1.795,0.814 l -1.501,1.692 c -0.808,0.908 -1.967,1.45 -3.182,1.484 -1.208,0.065 -2.402,-0.438 -3.26,-1.298 l -1.612,-1.617 c -0.458,-0.46 -1.068,-0.713 -1.717,-0.714 0,0 -10e-4,0 -10e-4,0 -0.646,0 -1.254,0.252 -1.711,0.71 z"
   id="path1699" />

		</g>

		<g
   id="g1705">
			<path
   fill="#111111"
   d="m 179.654,244.971 c -0.86,0 -1.668,-0.335 -2.276,-0.942 l -2.439,-2.44 c -0.607,-0.606 -0.942,-1.414 -0.942,-2.274 0,-0.859 0.334,-1.667 0.942,-2.275 l 2.44,-2.439 c 1.216,-1.214 3.334,-1.215 4.55,0 l 2.439,2.439 c 0.608,0.608 0.943,1.417 0.942,2.277 0,0.859 -0.335,1.667 -0.943,2.273 l -2.439,2.439 c -0.607,0.607 -1.415,0.942 -2.274,0.942 z m 0,-9.314 c -0.326,0 -0.632,0.126 -0.861,0.355 l -2.439,2.439 c -0.229,0.229 -0.356,0.536 -0.356,0.861 0,0.325 0.126,0.631 0.356,0.859 l 2.44,2.441 c 0.459,0.461 1.262,0.461 1.722,0 l 2.44,-2.44 c 0.23,-0.229 0.356,-0.534 0.356,-0.859 0,-0.326 -0.126,-0.632 -0.356,-0.862 l -2.439,-2.439 c -0.232,-0.229 -0.538,-0.355 -0.863,-0.355 z"
   id="path1703" />

		</g>

		<g
   id="g1709">
			<path
   fill="#111111"
   d="m 586.095,265.266 c -0.86,0 -1.668,-0.335 -2.276,-0.944 l -2.438,-2.438 c -1.253,-1.254 -1.253,-3.295 0,-4.55 l 2.439,-2.439 c 1.215,-1.215 3.335,-1.215 4.551,0 l 2.438,2.438 c 1.254,1.256 1.254,3.297 0,4.551 l -2.438,2.438 c -0.608,0.609 -1.416,0.944 -2.276,0.944 z m 0,-9.314 c -0.325,0 -0.631,0.126 -0.861,0.356 l -2.439,2.438 c -0.474,0.475 -0.474,1.248 0,1.723 l 2.438,2.438 c 0.461,0.462 1.263,0.46 1.723,0 l 2.439,-2.438 c 0.475,-0.475 0.475,-1.248 0,-1.723 l -2.438,-2.438 c -0.23,-0.23 -0.537,-0.356 -0.862,-0.356 z"
   id="path1707" />

		</g>

		<g
   id="g1713">
			<path
   fill="#83b6de"
   d="m 434.256,346.093 c -0.86,0 -1.668,-0.335 -2.276,-0.943 l -2.439,-2.438 c -1.254,-1.254 -1.254,-3.296 0,-4.551 l 2.441,-2.438 c 1.214,-1.216 3.334,-1.216 4.55,0 l 2.439,2.438 c 1.254,1.256 1.254,3.298 0,4.552 l -2.439,2.438 c -0.609,0.607 -1.417,0.942 -2.276,0.942 z m 0,-9.315 c -0.325,0 -0.631,0.127 -0.861,0.357 l -2.441,2.438 c -0.474,0.476 -0.474,1.249 10e-4,1.724 l 2.439,2.438 c 0.461,0.461 1.262,0.461 1.722,0 l 2.44,-2.438 c 0.475,-0.475 0.475,-1.248 0,-1.724 l -2.439,-2.438 c -0.231,-0.23 -0.536,-0.357 -0.861,-0.357 z"
   id="path1711" />

		</g>

		<g
   id="g1717">
			<path
   fill="#111111"
   d="m 112.099,305.224 c -0.859,0 -1.668,-0.334 -2.276,-0.942 l -2.438,-2.439 c -0.608,-0.607 -0.942,-1.416 -0.942,-2.275 0,-0.859 0.334,-1.668 0.942,-2.275 l 2.438,-2.439 c 1.216,-1.216 3.335,-1.218 4.551,0 l 2.439,2.439 c 0.608,0.607 0.943,1.416 0.943,2.275 0,0.859 -0.335,1.668 -0.943,2.275 l -2.439,2.439 c -0.607,0.608 -1.416,0.942 -2.275,0.942 z m 0,-9.315 c -0.326,0 -0.632,0.127 -0.862,0.356 l -2.438,2.439 c -0.23,0.23 -0.356,0.536 -0.356,0.861 0,0.325 0.126,0.631 0.356,0.861 l 2.438,2.439 c 0.459,0.459 1.263,0.459 1.723,0 l 2.439,-2.439 c 0.23,-0.23 0.357,-0.536 0.357,-0.861 0,-0.325 -0.127,-0.631 -0.357,-0.861 l -2.439,-2.439 c -0.23,-0.229 -0.536,-0.356 -0.861,-0.356 z"
   id="path1715" />

		</g>

	</g>
  </g>
</svg>
