<?xml version="1.0" encoding="utf-8"?>
<!-- Generator: Adobe Illustrator 18.0.0, SVG Export Plug-In . SVG Version: 6.00 Build 0)  -->
<!DOCTYPE svg PUBLIC "-//W3C//DTD SVG 1.1//EN" "http://www.w3.org/Graphics/SVG/1.1/DTD/svg11.dtd">
<svg version="1.1" id="Layer_1" xmlns="http://www.w3.org/2000/svg" xmlns:xlink="http://www.w3.org/1999/xlink" x="0px" y="0px"
	 viewBox="0 0 129.5 129.5" enable-background="new 0 0 129.5 129.5" xml:space="preserve">
<g>
	<g>
		<path fill="#84DBFF" d="M94.7,65.7v46.7H34.3V65.7c2.5-0.5,4.7-1.9,6.2-3.9c1.8,2.4,4.7,4,8,4c3.3,0,6.2-1.6,8-4
			c1.8,2.4,4.7,4,8,4c3.3,0,6.2-1.6,8-4c1.8,2.4,4.7,4,8,4c3.3,0,6.2-1.6,8-4C90,63.9,92.2,65.3,94.7,65.7z"/>
		<path fill="#231F20" d="M72.1,39.2H61.8c-0.4,0-0.8-0.3-0.8-0.8c0-0.4,0.3-0.8,0.8-0.8h10.3c0.4,0,0.8,0.3,0.8,0.8
			C72.9,38.9,72.6,39.2,72.1,39.2z"/>
		<path fill="#231F20" d="M58.7,39.2h-1.8c-0.4,0-0.8-0.3-0.8-0.8c0-0.4,0.3-0.8,0.8-0.8h1.8c0.4,0,0.8,0.3,0.8,0.8
			C59.4,38.9,59.1,39.2,58.7,39.2z"/>
		<path fill="#231F20" d="M65.7,125.1c-2.2,0-3.9-1.8-3.9-3.9c0-2.2,1.8-3.9,3.9-3.9c2.2,0,3.9,1.8,3.9,3.9
			C69.7,123.3,67.9,125.1,65.7,125.1z M65.7,118.8c-1.3,0-2.4,1.1-2.4,2.4c0,1.3,1.1,2.4,2.4,2.4c1.3,0,2.4-1.1,2.4-2.4
			C68.2,119.8,67.1,118.8,65.7,118.8z"/>
		<polygon fill="#FF7058" points="40.5,54.3 24.5,54.3 32.3,43.9 45.2,43.9 		"/>
		<polygon fill="#FFFFFF" points="56.5,54.3 40.5,54.3 45.2,43.9 58.1,43.9 		"/>
		<polygon fill="#FF7058" points="72.5,54.3 56.5,54.3 58.1,43.9 70.9,43.9 		"/>
		<polygon fill="#FFFFFF" points="88.5,54.3 72.5,54.3 70.9,43.9 83.8,43.9 		"/>
		<polygon fill="#FF7058" points="104.5,54.3 88.5,54.3 83.8,43.9 96.7,43.9 		"/>
		<path fill="#FF7058" d="M24.5,54.3v1.6c0,4.4,3.6,8,8,8h0c4.4,0,8-3.6,8-8v-1.6H24.5z"/>
		<path fill="#E6E9EE" d="M40.5,54.3v1.6c0,4.4,3.6,8,8,8c4.4,0,8-3.6,8-8v-1.6H40.5z"/>
		<path fill="#FF7058" d="M56.5,54.3v1.6c0,4.4,3.6,8,8,8c4.4,0,8-3.6,8-8v-1.6H56.5z"/>
		<path fill="#E6E9EE" d="M72.5,54.3v1.6c0,4.4,3.6,8,8,8s8-3.6,8-8v-1.6H72.5z"/>
		<path fill="#FF7058" d="M88.5,54.3v1.6c0,4.4,3.6,8,8,8h0c4.4,0,8-3.6,8-8v-1.6H88.5z"/>
		<path fill="#231F20" d="M64.5,108.7c-0.3,0-0.7,0-1,0l0.1-1.5c0.3,0,0.6,0,0.9,0L64.5,108.7C64.5,108.7,64.5,108.7,64.5,108.7z
			 M66.6,108.6l-0.2-1.5c0.3,0,0.6-0.1,1-0.1l0.2,1.5C67.3,108.5,66.9,108.5,66.6,108.6z M61.4,108.4c-0.3-0.1-0.7-0.1-1-0.2
			l0.3-1.5c0.3,0.1,0.6,0.1,0.9,0.2L61.4,108.4z M69.7,108l-0.4-1.4c0.3-0.1,0.6-0.2,0.9-0.3l0.5,1.4C70.3,107.8,70,107.9,69.7,108z
			 M58.4,107.7c-0.3-0.1-0.7-0.2-1-0.3l0.5-1.4c0.3,0.1,0.6,0.2,0.9,0.3L58.4,107.7z M72.6,107l-0.6-1.4c0.3-0.1,0.6-0.3,0.9-0.4
			l0.7,1.3C73.2,106.7,72.9,106.8,72.6,107z M55.5,106.5c-0.3-0.2-0.6-0.3-0.9-0.5l0.8-1.3c0.3,0.2,0.6,0.3,0.8,0.5L55.5,106.5z
			 M75.3,105.5l-0.8-1.3c0.3-0.2,0.5-0.4,0.8-0.5l0.9,1.2C75.9,105.1,75.6,105.3,75.3,105.5z M52.8,104.9c-0.3-0.2-0.6-0.4-0.8-0.6
			l0.9-1.2c0.2,0.2,0.5,0.4,0.8,0.6L52.8,104.9z M77.8,103.6l-1-1.1c0.2-0.2,0.5-0.4,0.7-0.7l1.1,1.1
			C78.3,103.1,78,103.4,77.8,103.6z M50.5,102.9c-0.2-0.2-0.5-0.5-0.7-0.8l1.1-1c0.2,0.2,0.4,0.5,0.7,0.7L50.5,102.9z M79.9,101.3
			l-1.2-0.9c0.2-0.2,0.4-0.5,0.6-0.8l1.2,0.9C80.4,100.8,80.1,101.1,79.9,101.3z M48.5,100.5c-0.2-0.3-0.4-0.6-0.6-0.9l1.3-0.8
			c0.2,0.3,0.4,0.5,0.5,0.8L48.5,100.5z M81.7,98.8L80.4,98c0.2-0.3,0.3-0.6,0.5-0.8l1.3,0.7C82,98.2,81.9,98.5,81.7,98.8z
			 M46.8,97.9c-0.2-0.3-0.3-0.6-0.4-0.9l1.4-0.6c0.1,0.3,0.3,0.6,0.4,0.9L46.8,97.9z M83,95.9l-1.4-0.5c0.1-0.3,0.2-0.6,0.3-0.9
			l1.4,0.5C83.3,95.3,83.2,95.6,83,95.9z M45.6,95c-0.1-0.3-0.2-0.7-0.3-1l1.4-0.4c0.1,0.3,0.2,0.6,0.3,0.9L45.6,95z M83.9,93
			l-1.5-0.3c0.1-0.3,0.1-0.6,0.2-0.9l1.5,0.2C84.1,92.3,84,92.6,83.9,93z M44.9,92c-0.1-0.3-0.1-0.7-0.1-1l1.5-0.2
			c0,0.3,0.1,0.6,0.1,1L44.9,92z M84.3,89.9l-1.5-0.1c0-0.3,0-0.6,0-1l1-0.1l0.5,0C84.4,89.2,84.3,89.5,84.3,89.9z M44.6,88.9
			L44.6,88.9c0-0.4,0-0.7,0-1l1.5,0.1c0,0.3,0,0.6,0,0.9L44.6,88.9z M82.7,86.8c0-0.3-0.1-0.6-0.1-1l1.5-0.2c0.1,0.3,0.1,0.7,0.1,1
			L82.7,86.8z M46.4,86l-1.5-0.2c0.1-0.3,0.1-0.7,0.2-1l1.5,0.3C46.5,85.4,46.4,85.7,46.4,86z M82.2,84c-0.1-0.3-0.2-0.6-0.3-0.9
			l1.4-0.5c0.1,0.3,0.2,0.7,0.3,1L82.2,84z M47,83.2l-1.4-0.5c0.1-0.3,0.2-0.7,0.3-1l1.4,0.5C47.2,82.6,47.1,82.9,47,83.2z
			 M81.2,81.3c-0.1-0.3-0.3-0.6-0.4-0.9l1.3-0.7c0.2,0.3,0.3,0.6,0.4,0.9L81.2,81.3z M48.1,80.5l-1.3-0.7c0.2-0.3,0.3-0.6,0.5-0.9
			l1.3,0.8C48.4,80,48.3,80.2,48.1,80.5z M79.9,78.8c-0.2-0.3-0.4-0.5-0.5-0.8l1.2-0.9c0.2,0.3,0.4,0.6,0.6,0.9L79.9,78.8z
			 M49.6,78.1l-1.2-0.9c0.2-0.3,0.4-0.6,0.6-0.8l1.2,0.9C50,77.6,49.8,77.8,49.6,78.1z M78.1,76.5c-0.2-0.2-0.4-0.5-0.7-0.7l1.1-1.1
			c0.2,0.2,0.5,0.5,0.7,0.8L78.1,76.5z M51.5,75.9l-1.1-1.1c0.2-0.2,0.5-0.5,0.8-0.7l1,1.1C51.9,75.4,51.7,75.7,51.5,75.9z M76,74.5
			c-0.2-0.2-0.5-0.4-0.8-0.6l0.9-1.2c0.3,0.2,0.6,0.4,0.8,0.6L76,74.5z M53.7,74l-0.9-1.2c0.3-0.2,0.6-0.4,0.9-0.6l0.8,1.3
			C54.2,73.6,53.9,73.8,53.7,74z M73.6,72.9c-0.3-0.2-0.6-0.3-0.8-0.5l0.7-1.3c0.3,0.2,0.6,0.3,0.9,0.5L73.6,72.9z M56.1,72.5
			l-0.7-1.3c0.3-0.2,0.6-0.3,0.9-0.4l0.6,1.4C56.7,72.2,56.4,72.4,56.1,72.5z M71,71.7c-0.3-0.1-0.6-0.2-0.9-0.3l0.5-1.4
			c0.3,0.1,0.7,0.2,1,0.3L71,71.7z M58.8,71.4L58.3,70c0.3-0.1,0.7-0.2,1-0.3l0.4,1.4C59.4,71.2,59.1,71.3,58.8,71.4z M68.3,70.9
			c-0.3-0.1-0.6-0.1-0.9-0.2l0.2-1.5c0.3,0.1,0.7,0.1,1,0.2L68.3,70.9z M61.6,70.7l-0.2-1.5c0.3-0.1,0.7-0.1,1-0.1l0.2,1.5
			C62.2,70.6,61.9,70.7,61.6,70.7z M65.4,70.5c-0.3,0-0.6,0-0.9,0L64.4,69h0.1c0.3,0,0.7,0,1,0L65.4,70.5z"/>
		<circle fill="#FFFFFF" cx="64.5" cy="88.8" r="14.7"/>
		<path fill="#231F20" d="M64.5,104.3C56,104.3,49,97.4,49,88.8c0-8.5,6.9-15.5,15.5-15.5C73,73.3,80,80.3,80,88.8
			C80,97.4,73,104.3,64.5,104.3z M64.5,74.8c-7.7,0-14,6.3-14,14c0,7.7,6.3,14,14,14c7.7,0,14-6.3,14-14
			C78.5,81.1,72.2,74.8,64.5,74.8z"/>
		<circle fill="#FFD05B" cx="64.5" cy="88.8" r="12.2"/>
		<path fill="#FFFFFF" d="M125.1,70.9H90.6c-2,0-3.6,1.6-3.6,3.6v21.9c0,2,1.6,3.6,3.6,3.6h2v5.1l5.1-5.1h27.4c2,0,3.6-1.6,3.6-3.6
			V74.6C128.8,72.6,127.1,70.9,125.1,70.9z"/>
		<path fill="#231F20" d="M125.1,70.2H97.5v-5.6c4.4-0.5,7.8-4.2,7.8-8.7v-1.6c0,0,0,0,0,0c0-0.1,0-0.2-0.1-0.3c0,0,0,0,0,0
			c0,0,0-0.1-0.1-0.1l-7.6-10.2v-6.3c0-2.7-2.2-4.9-4.9-4.9H36.4c-2.7,0-4.9,2.2-4.9,4.9v6.3l-7.6,10.2c0,0,0,0.1-0.1,0.1
			c0,0,0,0,0,0c0,0.1,0,0.2-0.1,0.3c0,0,0,0,0,0v1.6c0,4.5,3.4,8.2,7.8,8.7v60c0,2.7,2.2,4.9,4.9,4.9h56.1c2.7,0,4.9-2.2,4.9-4.9
			v-23.2l0.5-0.5h27.1c2.4,0,4.4-2,4.4-4.4V74.6C129.5,72.2,127.5,70.2,125.1,70.2z M103.7,55.9c0,4-3.3,7.2-7.2,7.2
			c-4,0-7.2-3.3-7.2-7.2v-0.8h14.5V55.9z M96.3,44.7l6.7,8.9H89l-4-8.9H96.3z M73.2,55.1h14.5v0.8c0,4-3.3,7.2-7.2,7.2
			c-4,0-7.2-3.3-7.2-7.2V55.1z M73.1,53.6l-1.3-8.9h11.5l4,8.9H73.1z M33,37.4c0-1.9,1.5-3.4,3.4-3.4h56.1c1.9,0,3.4,1.5,3.4,3.4
			v5.8H33V37.4z M71.7,55.1v0.8c0,4-3.3,7.2-7.2,7.2c-4,0-7.2-3.3-7.2-7.2v-0.8H71.7z M57.4,53.6l1.3-8.9h11.6l1.3,8.9H57.4z
			 M41.7,53.6l4-8.9h11.5l-1.3,8.9H41.7z M55.7,55.1v0.8c0,4-3.3,7.2-7.2,7.2c-4,0-7.2-3.3-7.2-7.2v-0.8H55.7z M32.7,44.7H44l-4,8.9
			H26L32.7,44.7z M25.3,55.9v-0.8h14.5v0.8c0,4-3.3,7.2-7.2,7.2S25.3,59.9,25.3,55.9z M96,124.6c0,1.9-1.5,3.4-3.4,3.4H36.4
			c-1.9,0-3.4-1.5-3.4-3.4v-9.4H96V124.6z M96,113.7H33V64.6c3.3-0.2,6.2-2.3,7.5-5.2c1.4,3.1,4.4,5.2,8,5.2c3.6,0,6.6-2.1,8-5.2
			c1.4,3.1,4.4,5.2,8,5.2c3.6,0,6.6-2.1,8-5.2c1.4,3.1,4.4,5.2,8,5.2c3.6,0,6.6-2.1,8-5.2c1.3,2.9,4.1,5,7.5,5.2v5.6h-5.4
			c-2.4,0-4.4,2-4.4,4.4v21.9c0,2.4,2,4.4,4.4,4.4h1.3v4.3c0,0.3,0.2,0.6,0.5,0.7c0.1,0,0.2,0.1,0.3,0.1c0.2,0,0.4-0.1,0.5-0.2
			l2.8-2.8V113.7z M128,96.5c0,1.6-1.3,2.9-2.9,2.9H97.7c-0.2,0-0.4,0.1-0.5,0.2l-3.8,3.8v-3.3c0-0.4-0.3-0.8-0.8-0.8h-2
			c-1.6,0-2.9-1.3-2.9-2.9V74.6c0-1.6,1.3-2.9,2.9-2.9h34.5c1.6,0,2.9,1.3,2.9,2.9V96.5z"/>
		<line fill="#FFFFFF" x1="91.4" y1="77.5" x2="123.8" y2="77.5"/>
		<rect x="91.4" y="76.7" fill="#231F20" width="32.3" height="1.5"/>
		<line fill="#FFFFFF" x1="91.4" y1="82.8" x2="123.8" y2="82.8"/>
		<rect x="91.4" y="82.1" fill="#231F20" width="32.3" height="1.5"/>
		<line fill="#FFFFFF" x1="91.4" y1="88.2" x2="123.8" y2="88.2"/>
		<rect x="91.4" y="87.4" fill="#231F20" width="32.3" height="1.5"/>
		<line fill="#FFFFFF" x1="91.4" y1="93.5" x2="106.4" y2="93.5"/>
		<rect x="91.4" y="92.8" fill="#231F20" width="15" height="1.5"/>
		<path fill="#231F20" d="M64.5,88.1c-1.5,0-2.8-1.2-2.8-2.8c0-1.5,1.2-2.8,2.8-2.8c1.5,0,2.8,1.2,2.8,2.8h1.5
			c0-2.1-1.5-3.8-3.5-4.2V80h-1.5v1.1c-2,0.4-3.5,2.1-3.5,4.2c0,2.3,1.9,4.3,4.3,4.3c1.5,0,2.8,1.2,2.8,2.8c0,1.5-1.2,2.8-2.8,2.8
			c-1.5,0-2.8-1.2-2.8-2.8h-1.5c0,2.1,1.5,3.8,3.5,4.2v1.1h1.5v-1.1c2-0.4,3.5-2.1,3.5-4.2C68.8,90,66.8,88.1,64.5,88.1z"/>
		<path fill="#231F20" d="M32.3,27.5H8.6c-4.8,0-8.6-3.9-8.6-8.6C0,14,4,10,8.9,10.2C8.9,9.8,8.8,9.4,8.8,9c0-5,4-9,9-9
			c4.2,0,7.7,2.8,8.7,6.8c0.2,0,0.4,0,0.6,0c3.8,0,6.9,3.1,6.9,6.9c0,0.1,0,0.1,0,0.2c3,0.8,5.2,3.5,5.2,6.7
			C39.2,24.3,36.1,27.5,32.3,27.5z M8.6,11.7c-3.9,0-7.1,3.2-7.1,7.1c0,3.9,3.2,7.1,7.1,7.1h23.6c3,0,5.4-2.4,5.4-5.4
			c0-2.7-1.9-4.9-4.6-5.4c-0.4-0.1-0.7-0.4-0.6-0.8c0-0.2,0-0.4,0-0.7c0-3-2.4-5.4-5.4-5.4c-0.3,0-0.7,0-1,0.1c-0.2,0-0.4,0-0.6-0.1
			c-0.2-0.1-0.3-0.3-0.3-0.5c-0.6-3.6-3.7-6.2-7.4-6.2c-4.1,0-7.5,3.4-7.5,7.5c0,0.6,0.1,1.2,0.2,1.9c0.1,0.2,0,0.5-0.2,0.7
			c-0.2,0.2-0.4,0.3-0.7,0.2C9.3,11.7,9,11.7,8.6,11.7z"/>
		<g>
			<g>
				<rect x="101.5" y="18.3" fill="#231F20" width="2.9" height="1.5"/>
			</g>
			<g>
				<rect x="107.3" y="18.3" fill="#231F20" width="2.9" height="1.5"/>
			</g>
			<g>
				<rect x="113.1" y="18.3" fill="#231F20" width="2.9" height="1.5"/>
			</g>
			<g>
				<rect x="118.9" y="18.3" fill="#231F20" width="2.9" height="1.5"/>
			</g>
		</g>
		<g>
			<g>
				<rect x="101.5" y="22.1" fill="#231F20" width="2.9" height="1.5"/>
			</g>
			<g>
				<rect x="107.3" y="22.1" fill="#231F20" width="2.9" height="1.5"/>
			</g>
			<g>
				<rect x="113.1" y="22.1" fill="#231F20" width="2.9" height="1.5"/>
			</g>
			<g>
				<rect x="118.9" y="22.1" fill="#231F20" width="2.9" height="1.5"/>
			</g>
		</g>
		<g>
			<g>
				<rect x="101.5" y="26" fill="#231F20" width="2.9" height="1.5"/>
			</g>
			<g>
				<rect x="107.3" y="26" fill="#231F20" width="2.9" height="1.5"/>
			</g>
			<g>
				<rect x="113.1" y="26" fill="#231F20" width="2.9" height="1.5"/>
			</g>
			<g>
				<rect x="118.9" y="26" fill="#231F20" width="2.9" height="1.5"/>
			</g>
		</g>
		<path fill="#231F20" d="M126.6,9.7h-4.8l-4.1-9.2c-0.2-0.4-0.6-0.6-1-0.4c-0.4,0.2-0.5,0.6-0.4,1l3.8,8.6h-16.9l3.8-8.6
			c0.2-0.4,0-0.8-0.4-1c-0.4-0.2-0.8,0-1,0.4l-4.1,9.2h-4.8c-1.6,0-2.9,1.3-2.9,2.9v0.6c0,1.5,1.1,2.7,2.5,2.9l1,12.2
			c0.1,1.9,1.7,3.3,3.6,3.3h21.4c1.9,0,3.5-1.5,3.6-3.3l1-12.2c1.4-0.2,2.6-1.4,2.6-2.9v-0.6C129.5,11,128.2,9.7,126.6,9.7z
			 M124.5,28.2c-0.1,1.1-1,1.9-2.1,1.9H101c-1.1,0-2-0.9-2.1-1.9l-1-12.1h27.5L124.5,28.2z M128,13.2c0,0.8-0.6,1.4-1.4,1.4H96.8
			c-0.8,0-1.4-0.6-1.4-1.4v-0.6c0-0.8,0.6-1.4,1.4-1.4h29.8c0.8,0,1.4,0.6,1.4,1.4V13.2z"/>
		<rect x="1.2" y="96.1" fill="#FFFFFF" width="24.7" height="4.9"/>
		<rect x="2.7" y="101" fill="#FFFFFF" width="21.8" height="16"/>
		<rect x="11.7" y="96.1" fill="#FFFFFF" width="3.7" height="20.9"/>
		<path fill="#FFFFFF" d="M16.8,90.1c-1.7,0-3,1.3-3,3v3h3c1.7,0,3-1.3,3-3C19.8,91.5,18.4,90.1,16.8,90.1z"/>
		<path fill="#FFFFFF" d="M11.1,90.7c-1.5,0-2.7,1.2-2.7,2.7c0,1.5,1.2,2.7,2.7,2.7h2.7v-2.7C13.8,91.9,12.6,90.7,11.1,90.7z"/>
		<path fill="#231F20" d="M25.9,95.3h-6.2c0.5-0.6,0.8-1.4,0.8-2.2c0-2.1-1.7-3.7-3.7-3.7c-1.3,0-2.5,0.7-3.2,1.7
			C13,90.4,12.1,90,11.1,90c-1.9,0-3.4,1.5-3.4,3.4c0,0.7,0.2,1.4,0.6,1.9h-7c-0.4,0-0.7,0.3-0.7,0.8v4.9c0,0.4,0.3,0.8,0.7,0.8h0.7
			V117c0,0.4,0.3,0.8,0.8,0.8h21.8c0.4,0,0.8-0.3,0.8-0.8v-15.2h0.7c0.4,0,0.8-0.3,0.8-0.8v-4.9C26.7,95.7,26.3,95.3,25.9,95.3z
			 M11,116.3H3.4v-14.5H11V116.3z M11,100.3H2v-3.4h9V100.3z M11.1,95.3c-1.1,0-1.9-0.9-1.9-1.9c0-1.1,0.9-1.9,1.9-1.9
			c1.1,0,1.9,0.9,1.9,1.9v1.9H11.1z M14.7,116.3h-2.2V96.8h2.2V116.3z M14.5,95.3v-2.2c0-1.2,1-2.2,2.2-2.2s2.2,1,2.2,2.2
			s-1,2.2-2.2,2.2H14.5z M23.7,116.3h-7.6v-14.5h7.6V116.3z M25.2,100.3h-9v-3.4h9V100.3z"/>
		<circle fill="#FF7058" cx="61" cy="8" r="2.5"/>
		<circle fill="#84DBFF" cx="19.6" cy="38" r="2.5"/>
		<circle fill="#FFD05B" cx="116.6" cy="60.5" r="2.5"/>
		<circle fill="#84DBFF" cx="121.8" cy="109" r="2.5"/>
		<circle fill="#E6E9EE" cx="15.4" cy="82.8" r="2.5"/>
		<g>
			<path fill="#231F20" d="M118,119.8L118,119.8l-8.1,0c-0.4,0-0.8-0.3-0.8-0.8c0-0.4,0.3-0.8,0.8-0.8l0,0l8.1,0
				c0.4,0,0.8,0.3,0.8,0.8C118.8,119.5,118.4,119.8,118,119.8z"/>
		</g>
		<g>
			<path fill="#231F20" d="M110.7,116.9h-4c-0.4,0-0.8-0.3-0.8-0.8c0-0.4,0.3-0.8,0.8-0.8h4c0.4,0,0.8,0.3,0.8,0.8
				C111.4,116.5,111.1,116.9,110.7,116.9z"/>
		</g>
		<g>
			<path fill="#231F20" d="M106.2,119.8h-3.8c-0.4,0-0.8-0.3-0.8-0.8c0-0.4,0.3-0.8,0.8-0.8h3.8c0.4,0,0.7,0.3,0.7,0.8
				C107,119.5,106.7,119.8,106.2,119.8z"/>
		</g>
		<g>
			<path fill="#231F20" d="M114.3,116.9h-0.8c-0.4,0-0.8-0.3-0.8-0.8c0-0.4,0.3-0.8,0.8-0.8h0.8c0.4,0,0.8,0.3,0.8,0.8
				C115.1,116.5,114.8,116.9,114.3,116.9z"/>
		</g>
		<g>
			<path fill="#231F20" d="M81.9,7.4c-0.2,0-0.4-0.1-0.5-0.2c-0.3-0.3-0.3-0.8,0-1.1l1.3-1.3c0.3-0.3,0.8-0.3,1.1,0
				c0.3,0.3,0.3,0.8,0,1.1l-1.3,1.3C82.3,7.3,82.1,7.4,81.9,7.4z"/>
		</g>
		<g>
			<path fill="#231F20" d="M77.8,11.4c-0.2,0-0.4-0.1-0.5-0.2c-0.3-0.3-0.3-0.8,0-1.1l1.3-1.3c0.3-0.3,0.8-0.3,1.1,0
				c0.3,0.3,0.3,0.8,0,1.1l-1.3,1.3C78.2,11.3,78,11.4,77.8,11.4z"/>
		</g>
		<g>
			<path fill="#231F20" d="M83.2,11.4c-0.2,0-0.4-0.1-0.5-0.2l-1.3-1.3c-0.3-0.3-0.3-0.8,0-1.1c0.3-0.3,0.8-0.3,1.1,0l1.3,1.3
				c0.3,0.3,0.3,0.8,0,1.1C83.5,11.3,83.3,11.4,83.2,11.4z"/>
		</g>
		<g>
			<path fill="#231F20" d="M79.1,7.4c-0.2,0-0.4-0.1-0.5-0.2l-1.3-1.3c-0.3-0.3-0.3-0.8,0-1.1c0.3-0.3,0.8-0.3,1.1,0l1.3,1.3
				c0.3,0.3,0.3,0.8,0,1.1C79.5,7.3,79.3,7.4,79.1,7.4z"/>
		</g>
		<g>
			<path fill="#231F20" d="M12.5,40c-0.2,0-0.4-0.1-0.5-0.2c-0.3-0.3-0.3-0.8,0-1.1l1.3-1.3c0.3-0.3,0.8-0.3,1.1,0
				c0.3,0.3,0.3,0.8,0,1.1L13,39.8C12.8,39.9,12.7,40,12.5,40z"/>
		</g>
		<g>
			<path fill="#231F20" d="M8.4,44C8.2,44,8,44,7.9,43.8c-0.3-0.3-0.3-0.8,0-1.1l1.3-1.3c0.3-0.3,0.8-0.3,1.1,0
				c0.3,0.3,0.3,0.8,0,1.1L9,43.8C8.8,44,8.6,44,8.4,44z"/>
		</g>
		<g>
			<path fill="#231F20" d="M13.7,44c-0.2,0-0.4-0.1-0.5-0.2l-1.3-1.3c-0.3-0.3-0.3-0.8,0-1.1c0.3-0.3,0.8-0.3,1.1,0l1.3,1.3
				c0.3,0.3,0.3,0.8,0,1.1C14.1,44,13.9,44,13.7,44z"/>
		</g>
		<g>
			<path fill="#231F20" d="M9.7,40c-0.2,0-0.4-0.1-0.5-0.2l-1.3-1.3c-0.3-0.3-0.3-0.8,0-1.1c0.3-0.3,0.8-0.3,1.1,0l1.3,1.3
				c0.3,0.3,0.3,0.8,0,1.1C10.1,39.9,9.9,40,9.7,40z"/>
		</g>
		<g>
			<path fill="#231F20" d="M115.9,43.3c-0.2,0-0.4-0.1-0.5-0.2c-0.3-0.3-0.3-0.8,0-1.1l1.3-1.3c0.3-0.3,0.8-0.3,1.1,0
				c0.3,0.3,0.3,0.8,0,1.1l-1.3,1.3C116.3,43.2,116.1,43.3,115.9,43.3z"/>
		</g>
		<g>
			<path fill="#231F20" d="M111.9,47.3c-0.2,0-0.4-0.1-0.5-0.2c-0.3-0.3-0.3-0.8,0-1.1l1.3-1.3c0.3-0.3,0.8-0.3,1.1,0
				c0.3,0.3,0.3,0.8,0,1.1l-1.3,1.3C112.3,47.3,112.1,47.3,111.9,47.3z"/>
		</g>
		<g>
			<path fill="#231F20" d="M117.2,47.3c-0.2,0-0.4-0.1-0.5-0.2l-1.3-1.3c-0.3-0.3-0.3-0.8,0-1.1c0.3-0.3,0.8-0.3,1.1,0l1.3,1.3
				c0.3,0.3,0.3,0.8,0,1.1C117.6,47.3,117.4,47.3,117.2,47.3z"/>
		</g>
		<g>
			<path fill="#231F20" d="M113.2,43.3c-0.2,0-0.4-0.1-0.5-0.2l-1.3-1.3c-0.3-0.3-0.3-0.8,0-1.1c0.3-0.3,0.8-0.3,1.1,0l1.3,1.3
				c0.3,0.3,0.3,0.8,0,1.1C113.6,43.2,113.4,43.3,113.2,43.3z"/>
		</g>
		<path fill="#231F20" d="M11.7,68c-2.3,0-4.1-1.8-4.1-4.1c0-2.3,1.8-4.1,4.1-4.1c2.3,0,4.1,1.8,4.1,4.1C15.8,66.2,14,68,11.7,68z
			 M11.7,61.3c-1.4,0-2.6,1.2-2.6,2.6c0,1.4,1.2,2.6,2.6,2.6c1.4,0,2.6-1.2,2.6-2.6C14.3,62.4,13.2,61.3,11.7,61.3z"/>
	</g>
</g>
</svg>
