<?xml version="1.0" encoding="utf-8"?>
<!-- Generator: Adobe Illustrator 18.0.0, SVG Export Plug-In . SVG Version: 6.00 Build 0)  -->
<!DOCTYPE svg PUBLIC "-//W3C//DTD SVG 1.1//EN" "http://www.w3.org/Graphics/SVG/1.1/DTD/svg11.dtd">
<svg version="1.1" id="Layer_1" xmlns="http://www.w3.org/2000/svg" xmlns:xlink="http://www.w3.org/1999/xlink" x="0px" y="0px"
	 viewBox="0 0 129.5 129.5" enable-background="new 0 0 129.5 129.5" xml:space="preserve">
<g>
	<g>
		<g>
			<path fill="#231F20" d="M64.5,80.8c-9.6,0-18.6-3.7-25.3-10.5c-4.9-4.9-8.2-11-9.7-17.6c-0.1-0.4,0.2-0.8,0.6-0.9
				c0.4-0.1,0.8,0.2,0.9,0.6c1.4,6.4,4.6,12.2,9.2,16.9c6.5,6.5,15.1,10,24.2,10c9.2,0,17.8-3.6,24.2-10c4.7-4.7,7.9-10.5,9.2-16.9
				c0.1-0.4,0.5-0.7,0.9-0.6c0.4,0.1,0.7,0.5,0.6,0.9c-1.4,6.7-4.8,12.8-9.7,17.6C83.1,77.1,74.1,80.8,64.5,80.8z"/>
		</g>
		<g>
			<polygon fill="#FFD05B" points="84.5,28.2 84.5,11.7 72.8,0 56.3,0 44.6,11.7 44.6,28.2 56.3,39.9 72.8,39.9 			"/>
		</g>
		<g>
			<path fill="#231F20" d="M80.2,26.1h-1.5v-12l-8.3-8.3h-12V4.3h12.3c0.2,0,0.4,0.1,0.5,0.2l8.7,8.7c0.1,0.1,0.2,0.3,0.2,0.5V26.1z
				"/>
		</g>
		<g>
			<path fill="#231F20" d="M80.8,129.5h-1.5V96.9c0-9,3.8-17.5,10.5-23.4c0.6-0.5,1.2-1.1,1.7-1.6c7.2-7.2,11.1-16.7,11.1-26.9
				c0-10.2-4-19.7-11.1-26.9c-1.9-1.9-3.9-3.5-6.1-5v26.3c0,0.3-0.2,0.5-0.4,0.7l-20,10.8c-0.2,0.1-0.5,0.1-0.7,0l-20-10.8
				c-0.2-0.1-0.4-0.4-0.4-0.7V13.1C32.9,20.2,26.5,32,26.5,45c0,10.2,4,19.7,11.1,26.9c0.6,0.6,1.1,1.1,1.7,1.6
				c6.7,5.9,10.5,14.4,10.5,23.4v32.6h-1.5V96.9c0-8.6-3.6-16.7-10-22.3c-0.6-0.5-1.2-1.1-1.8-1.7C29.1,65.5,25,55.5,25,45
				c0-14,7.2-26.6,19.1-33.9c0.2-0.1,0.5-0.1,0.8,0c0.2,0.1,0.4,0.4,0.4,0.7V39l19.3,10.4L83.8,39V11.8c0-0.3,0.1-0.5,0.4-0.7
				c0.2-0.1,0.5-0.1,0.8,0c2.7,1.7,5.3,3.6,7.5,5.9c7.5,7.5,11.6,17.4,11.6,28c0,10.6-4.1,20.5-11.6,28c-0.6,0.6-1.2,1.1-1.8,1.7
				c-6.3,5.6-10,13.7-10,22.3V129.5z"/>
		</g>
		<g>
			<polyline fill="#FF7058" points="58.4,129.5 58.4,99 70.7,99 70.7,129.5 			"/>
		</g>
		<g>
			<path fill="#231F20" d="M14.2,11.9c-0.2,0-0.4-0.1-0.5-0.2c-0.3-0.3-0.3-0.8,0-1.1l1.3-1.3C15.2,9,15.7,9,16,9.3
				c0.3,0.3,0.3,0.8,0,1.1l-1.3,1.3C14.5,11.8,14.4,11.9,14.2,11.9z"/>
		</g>
		<g>
			<path fill="#231F20" d="M10.1,16c-0.2,0-0.4-0.1-0.5-0.2c-0.3-0.3-0.3-0.8,0-1.1l1.3-1.3c0.3-0.3,0.8-0.3,1.1,0
				c0.3,0.3,0.3,0.8,0,1.1l-1.3,1.3C10.5,15.9,10.3,16,10.1,16z"/>
		</g>
		<g>
			<path fill="#231F20" d="M15.5,16c-0.2,0-0.4-0.1-0.5-0.2l-1.3-1.3c-0.3-0.3-0.3-0.8,0-1.1c0.3-0.3,0.8-0.3,1.1,0l1.3,1.3
				c0.3,0.3,0.3,0.8,0,1.1C15.9,15.9,15.7,16,15.5,16z"/>
		</g>
		<g>
			<path fill="#231F20" d="M11.4,11.9c-0.2,0-0.4-0.1-0.5-0.2l-1.3-1.3c-0.3-0.3-0.3-0.8,0-1.1c0.3-0.3,0.8-0.3,1.1,0l1.3,1.3
				c0.3,0.3,0.3,0.8,0,1.1C11.8,11.8,11.6,11.9,11.4,11.9z"/>
		</g>
		<g>
			<path fill="#231F20" d="M117.2,32.6c-0.2,0-0.4-0.1-0.5-0.2c-0.3-0.3-0.3-0.8,0-1.1l1.3-1.3c0.3-0.3,0.8-0.3,1.1,0
				c0.3,0.3,0.3,0.8,0,1.1l-1.3,1.3C117.5,32.5,117.4,32.6,117.2,32.6z"/>
		</g>
		<g>
			<path fill="#231F20" d="M113.1,36.7c-0.2,0-0.4-0.1-0.5-0.2c-0.3-0.3-0.3-0.8,0-1.1l1.3-1.3c0.3-0.3,0.8-0.3,1.1,0
				c0.3,0.3,0.3,0.8,0,1.1l-1.3,1.3C113.5,36.6,113.3,36.7,113.1,36.7z"/>
		</g>
		<g>
			<path fill="#231F20" d="M118.5,36.7c-0.2,0-0.4-0.1-0.5-0.2l-1.3-1.3c-0.3-0.3-0.3-0.8,0-1.1c0.3-0.3,0.8-0.3,1.1,0l1.3,1.3
				c0.3,0.3,0.3,0.8,0,1.1C118.8,36.6,118.7,36.7,118.5,36.7z"/>
		</g>
		<g>
			<path fill="#231F20" d="M114.4,32.6c-0.2,0-0.4-0.1-0.5-0.2l-1.3-1.3c-0.3-0.3-0.3-0.8,0-1.1c0.3-0.3,0.8-0.3,1.1,0l1.3,1.3
				c0.3,0.3,0.3,0.8,0,1.1C114.8,32.5,114.6,32.6,114.4,32.6z"/>
		</g>
		<g>
			<path fill="#231F20" d="M16.9,109.8c-0.2,0-0.4-0.1-0.5-0.2c-0.3-0.3-0.3-0.8,0-1.1l1.3-1.3c0.3-0.3,0.8-0.3,1.1,0
				c0.3,0.3,0.3,0.8,0,1.1l-1.3,1.3C17.2,109.8,17,109.8,16.9,109.8z"/>
		</g>
		<g>
			<path fill="#231F20" d="M12.8,113.9c-0.2,0-0.4-0.1-0.5-0.2c-0.3-0.3-0.3-0.8,0-1.1l1.3-1.3c0.3-0.3,0.8-0.3,1.1,0
				c0.3,0.3,0.3,0.8,0,1.1l-1.3,1.3C13.2,113.8,13,113.9,12.8,113.9z"/>
		</g>
		<g>
			<path fill="#231F20" d="M18.2,113.9c-0.2,0-0.4-0.1-0.5-0.2l-1.3-1.3c-0.3-0.3-0.3-0.8,0-1.1c0.3-0.3,0.8-0.3,1.1,0l1.3,1.3
				c0.3,0.3,0.3,0.8,0,1.1C18.5,113.8,18.3,113.9,18.2,113.9z"/>
		</g>
		<g>
			<path fill="#231F20" d="M14.1,109.8c-0.2,0-0.4-0.1-0.5-0.2l-1.3-1.3c-0.3-0.3-0.3-0.8,0-1.1c0.3-0.3,0.8-0.3,1.1,0l1.3,1.3
				c0.3,0.3,0.3,0.8,0,1.1C14.5,109.8,14.3,109.8,14.1,109.8z"/>
		</g>
		<g>
			<path fill="#231F20" d="M111.2,99.3H103c-0.4,0-0.8-0.3-0.8-0.8c0-0.4,0.3-0.8,0.8-0.8h8.2c0.4,0,0.8,0.3,0.8,0.8
				C111.9,99,111.6,99.3,111.2,99.3z"/>
		</g>
		<g>
			<path fill="#231F20" d="M103.8,96.3h-4c-0.4,0-0.8-0.3-0.8-0.8c0-0.4,0.3-0.8,0.8-0.8h4c0.4,0,0.8,0.3,0.8,0.8
				C104.5,96,104.2,96.3,103.8,96.3z"/>
		</g>
		<g>
			<path fill="#231F20" d="M99.3,99.3h-3.8c-0.4,0-0.8-0.3-0.8-0.8c0-0.4,0.3-0.8,0.8-0.8h3.8c0.4,0,0.8,0.3,0.8,0.8
				C100,99,99.7,99.3,99.3,99.3z"/>
		</g>
		<g>
			<path fill="#231F20" d="M107.5,96.3h-0.8c-0.4,0-0.8-0.3-0.8-0.8c0-0.4,0.3-0.8,0.8-0.8h0.8c0.4,0,0.8,0.3,0.8,0.8
				C108.2,96,107.9,96.3,107.5,96.3z"/>
		</g>
		<g>
			<path fill="#231F20" d="M26,84.7h-8.2c-0.4,0-0.8-0.3-0.8-0.8c0-0.4,0.3-0.8,0.8-0.8H26c0.4,0,0.8,0.3,0.8,0.8
				C26.8,84.3,26.4,84.7,26,84.7z"/>
		</g>
		<g>
			<path fill="#231F20" d="M18.6,81.7h-4c-0.4,0-0.8-0.3-0.8-0.8c0-0.4,0.3-0.8,0.8-0.8h4c0.4,0,0.8,0.3,0.8,0.8
				C19.4,81.4,19,81.7,18.6,81.7z"/>
		</g>
		<g>
			<path fill="#231F20" d="M14.1,84.7h-3.8c-0.4,0-0.8-0.3-0.8-0.8c0-0.4,0.3-0.8,0.8-0.8h3.8c0.4,0,0.8,0.3,0.8,0.8
				C14.9,84.3,14.5,84.7,14.1,84.7z"/>
		</g>
		<g>
			<path fill="#231F20" d="M22.3,81.7h-0.8c-0.4,0-0.8-0.3-0.8-0.8c0-0.4,0.3-0.8,0.8-0.8h0.8c0.4,0,0.8,0.3,0.8,0.8
				C23.1,81.4,22.7,81.7,22.3,81.7z"/>
		</g>
		<g>
			<path fill="#231F20" d="M117.1,123.1c-2.7,0-4.8-2.2-4.8-4.8c0-2.7,2.2-4.8,4.8-4.8c2.7,0,4.8,2.2,4.8,4.8
				C121.9,120.9,119.8,123.1,117.1,123.1z M117.1,115c-1.8,0-3.3,1.5-3.3,3.3c0,1.8,1.5,3.3,3.3,3.3c1.8,0,3.3-1.5,3.3-3.3
				C120.4,116.5,118.9,115,117.1,115z"/>
		</g>
		<g>
			<circle fill="#E6E9EE" cx="10.6" cy="32.2" r="3.1"/>
		</g>
		<g>
			<circle fill="#84DBFF" cx="111.2" cy="9.8" r="3.1"/>
		</g>
		<g>
			<circle fill="#FF7058" cx="117.1" cy="72.6" r="3.1"/>
		</g>
		<g>
			<circle fill="#FFD05B" cx="32.6" cy="121.7" r="3.1"/>
		</g>
	</g>
</g>
</svg>
