<svg xmlns="http://www.w3.org/2000/svg" viewBox="0 0 64 64"><circle cx="32" cy="28" r="10" fill="#40c4ff"/><path d="M55 25v28.5a2.5 2.5 0 0 1-2.5 2.5h-41A2.5 2.5 0 0 1 9 53.5V25l23 21 23-21z" fill="#ffd740"/><g fill="#263238"><path d="M52.5 56.5h-41c-1.654 0-3-1.346-3-3V25a.5.5 0 0 1 .298-.458c.18-.08.393-.045.54.088L32 45.323 54.663 24.63A.5.5 0 0 1 55.5 25v28.5c0 1.655-1.346 3-3 3zm-43-30.366V53.5c0 1.103.897 2 2 2h41c1.103 0 2-.897 2-2V26.134L32.337 46.37a.5.5 0 0 1-.674 0L9.5 26.134z"/><path d="M9.654 55.676c-.1 0-.218-.035-.3-.108a.5.5 0 0 1-.081-.702l13.6-17.153a.5.5 0 0 1 .702-.081.5.5 0 0 1 .081.702l-13.6 17.152a.5.5 0 0 1-.392.19zm44.69-.001a.5.5 0 0 1-.392-.189L40.346 38.333a.5.5 0 0 1 .081-.702.5.5 0 0 1 .702.081l13.607 17.152a.5.5 0 0 1-.081.702.49.49 0 0 1-.31.109zM49 28.27a.5.5 0 0 1-.5-.5V15.5h-33v12.27a.5.5 0 1 1-1 0V15a.5.5 0 0 1 .5-.5h34a.5.5 0 0 1 .5.5v12.77a.5.5 0 0 1-.5.501zM44 60.5h-2a.5.5 0 1 1 0-1h2a.5.5 0 1 1 0 1zm-4 0H20a.5.5 0 1 1 0-1h20a.5.5 0 1 1 0 1zm15-35c-.12 0-.24-.043-.337-.13l-4-3.652a.5.5 0 0 1-.032-.706.5.5 0 0 1 .706-.032l4 3.652a.5.5 0 0 1 .032.706.49.49 0 0 1-.37.163zm-46 0a.5.5 0 0 1-.337-.869l4-3.652a.5.5 0 0 1 .706.032.5.5 0 0 1-.032.706l-4 3.652A.49.49 0 0 1 9 25.5zm13.143-12a.5.5 0 0 1-.337-.869l8.17-7.46a2.98 2.98 0 0 1 4.045 0l8.172 7.46a.5.5 0 0 1 .032.706c-.186.205-.502.22-.706.032l-8.172-7.46a1.99 1.99 0 0 0-2.697 0l-8.17 7.462c-.096.088-.216.13-.337.13zM49 6.5h-4a.5.5 0 1 1 0-1h4a.5.5 0 1 1 0 1z"/><path d="M47 8.5a.5.5 0 0 1-.5-.5V4a.5.5 0 1 1 1 0v4a.5.5 0 0 1-.5.5zm7 2.5h-4a.5.5 0 1 1 0-1h4a.5.5 0 1 1 0 1z"/><path d="M52 13a.5.5 0 0 1-.5-.5v-4a.5.5 0 1 1 1 0v4a.5.5 0 0 1-.5.5zM32 31.5c-1.93 0-3.5-1.57-3.5-3.5s1.57-3.5 3.5-3.5 3.5 1.57 3.5 3.5-1.57 3.5-3.5 3.5zm0-6c-1.378 0-2.5 1.122-2.5 2.5s1.122 2.5 2.5 2.5 2.5-1.122 2.5-2.5-1.122-2.5-2.5-2.5z"/><path d="M32 34.5c-1.965 0-3.804-.875-5.045-2.402s-1.718-3.528-1.31-5.492c.512-2.456 2.506-4.45 4.96-4.96 1.962-.4 3.964.067 5.49 1.31A6.48 6.48 0 0 1 38.5 28a6.45 6.45 0 0 1-.568 2.661c-.228.51-.757.84-1.347.84H36a1.5 1.5 0 0 1-1.5-1.5v-2a.5.5 0 1 1 1 0v2a.5.5 0 0 0 .5.5h.585c.193 0 .368-.1.435-.25A5.47 5.47 0 0 0 37.5 28c0-1.663-.74-3.22-2.033-4.27s-2.99-1.454-4.656-1.106c-2.072.432-3.755 2.115-4.187 4.187-.347 1.667.056 3.365 1.106 4.657A5.48 5.48 0 0 0 32 33.5a.5.5 0 1 1 0 1z"/></g></svg>