<?xml version="1.0" encoding="UTF-8" standalone="no"?>
<!-- Created with Inkscape (http://www.inkscape.org/) -->

<svg
   xmlns:dc="http://purl.org/dc/elements/1.1/"
   xmlns:cc="http://creativecommons.org/ns#"
   xmlns:rdf="http://www.w3.org/1999/02/22-rdf-syntax-ns#"
   xmlns:svg="http://www.w3.org/2000/svg"
   xmlns="http://www.w3.org/2000/svg"
   xmlns:sodipodi="http://sodipodi.sourceforge.net/DTD/sodipodi-0.dtd"
   xmlns:inkscape="http://www.inkscape.org/namespaces/inkscape"
   width="903.30402"
   height="235.007"
   viewBox="0 0 238.99918 62.178938"
   version="1.1"
   id="svg8"
   inkscape:version="0.92.3 (2405546, 2018-03-11)"
   sodipodi:docname="Title.svg">
  <defs
     id="defs2" />
  <sodipodi:namedview
     id="base"
     pagecolor="#ffffff"
     bordercolor="#666666"
     borderopacity="1.0"
     inkscape:pageopacity="0.0"
     inkscape:pageshadow="2"
     inkscape:zoom="0.70710678"
     inkscape:cx="56.254184"
     inkscape:cy="310.07721"
     inkscape:document-units="mm"
     inkscape:current-layer="layer1"
     showgrid="false"
     units="px"
     inkscape:window-width="1920"
     inkscape:window-height="1001"
     inkscape:window-x="-9"
     inkscape:window-y="-9"
     inkscape:window-maximized="1" />
  <metadata
     id="metadata5">
    <rdf:RDF>
      <cc:Work
         rdf:about="">
        <dc:format>image/svg+xml</dc:format>
        <dc:type
           rdf:resource="http://purl.org/dc/dcmitype/StillImage" />
        <dc:title></dc:title>
      </cc:Work>
    </rdf:RDF>
  </metadata>
  <g
     inkscape:label="Layer 1"
     inkscape:groupmode="layer"
     id="layer1"
     transform="translate(0,-234.82104)">
    <g
       transform="matrix(0.35277777,0,0,-0.35278008,-20.91256,310.22814)"
       inkscape:label="ink_ext_XXXXXX"
       id="g823">
      <g
         transform="scale(0.1)"
         id="g825">
        <path
           inkscape:connector-curvature="0"
           id="path829"
           style="fill:#484f59;fill-opacity:1;fill-rule:nonzero;stroke:none"
           d="M 1670.85,681.52 H 1217.8 v 540 h 116.95 v -30 h -86.95 v -480 h 423.05 v -30" />
        <path
           inkscape:connector-curvature="0"
           id="path831"
           style="fill:#484f59;fill-opacity:1;fill-rule:nonzero;stroke:none"
           d="m 1621.46,613.121 -21.22,21.211 63.29,63.277 -63.29,63.301 21.22,21.211 84.5,-84.512 -84.5,-84.488" />
        <path
           inkscape:connector-curvature="0"
           id="path833"
           style="fill:#484f59;fill-opacity:1;fill-rule:nonzero;stroke:none"
           d="m 5265.72,976.359 h -30 V 1777.9 h -1045 v 30 h 1075 V 976.359" />
        <path
           inkscape:connector-curvature="0"
           id="path835"
           style="fill:#484f59;fill-opacity:1;fill-rule:nonzero;stroke:none"
           d="m 5249.62,941.262 -84.5,84.488 21.21,21.22 63.29,-63.29 63.28,63.29 21.21,-21.22 -84.49,-84.488" />
        <path
           inkscape:connector-curvature="0"
           id="path837"
           style="fill:#484f59;fill-opacity:1;fill-rule:nonzero;stroke:none"
           d="m 7257.86,1853.37 h -30 v 37.15 h 30 v -37.15" />
        <path
           inkscape:connector-curvature="0"
           id="path839"
           style="fill:#484f59;fill-opacity:1;fill-rule:nonzero;stroke:none"
           d="m 7257.86,1853.37 h -30 v 37.15 h 30 v -37.15" />
        <path
           inkscape:connector-curvature="0"
           id="path841"
           style="fill:#484f59;fill-opacity:1;fill-rule:nonzero;stroke:none"
           d="m 7150.31,1791.28 -32.18,18.58 15,25.97 32.18,-18.57 -15,-25.98" />
        <path
           inkscape:connector-curvature="0"
           id="path843"
           style="fill:#484f59;fill-opacity:1;fill-rule:nonzero;stroke:none"
           d="m 7133.13,1674.5 -15,25.98 32.18,18.57 15,-25.97 -32.18,-18.58" />
        <path
           inkscape:connector-curvature="0"
           id="path845"
           style="fill:#484f59;fill-opacity:1;fill-rule:nonzero;stroke:none"
           d="m 7227.86,1619.8 -0.01,37.16 h 30 l 0.01,-37.16 h -30" />
        <path
           inkscape:connector-curvature="0"
           id="path847"
           style="fill:#484f59;fill-opacity:1;fill-rule:nonzero;stroke:none"
           d="m 7352.58,1674.5 -32.18,18.58 14.99,25.97 32.19,-18.57 -15,-25.98" />
        <path
           inkscape:connector-curvature="0"
           id="path849"
           style="fill:#484f59;fill-opacity:1;fill-rule:nonzero;stroke:none"
           d="m 7335.41,1791.26 -15.01,25.98 32.17,18.59 15.01,-25.97 -32.17,-18.6" />
        <path
           inkscape:connector-curvature="0"
           id="path851"
           style="fill:#484f59;fill-opacity:1;fill-rule:nonzero;stroke:none"
           d="m 5997.43,1348.45 h -388.06 v 30 h 388.06 v -30" />
        <path
           inkscape:connector-curvature="0"
           id="path853"
           style="fill:#484f59;fill-opacity:1;fill-rule:nonzero;stroke:none"
           d="m 5913.82,1284.45 h -304.45 v 30 h 304.45 v -30" />
        <path
           inkscape:connector-curvature="0"
           id="path855"
           style="fill:#484f59;fill-opacity:1;fill-rule:nonzero;stroke:none"
           d="m 5997.43,1185.95 h -388.06 v 30 h 388.06 v -30" />
        <path
           inkscape:connector-curvature="0"
           id="path857"
           style="fill:#484f59;fill-opacity:1;fill-rule:nonzero;stroke:none"
           d="m 5913.82,1121.95 h -304.45 v 30 h 304.45 v -30" />
        <path
           inkscape:connector-curvature="0"
           id="path859"
           style="fill:#424953;fill-opacity:1;fill-rule:nonzero;stroke:none"
           d="m 5526.89,1299.13 -34.91,32.27 20.36,22.03 11.22,-10.37 40.21,50.39 23.45,-18.71 -60.33,-75.61" />
        <path
           inkscape:connector-curvature="0"
           id="path861"
           style="fill:#424953;fill-opacity:1;fill-rule:nonzero;stroke:none"
           d="m 5526.89,1134.13 -34.91,32.27 20.36,22.03 11.22,-10.37 40.21,50.39 23.45,-18.71 -60.33,-75.61" />
        <path
           inkscape:connector-curvature="0"
           id="path863"
           style="fill:#484f59;fill-opacity:1;fill-rule:nonzero;stroke:none"
           d="m 5784.8,2025.62 c -15.43,0 -27.99,-12.56 -27.99,-28.01 0,-15.43 12.56,-27.99 27.99,-27.99 15.44,0 28,12.56 28,27.99 0,15.45 -12.56,28.01 -28,28.01 z m 0,-86 c -31.98,0 -57.99,26.02 -57.99,57.99 0,31.99 26.01,58.01 57.99,58.01 31.98,0 58,-26.02 58,-58.01 0,-31.97 -26.02,-57.99 -58,-57.99" />
        <path
           inkscape:connector-curvature="0"
           id="path865"
           style="fill:#cdd5d7;fill-opacity:1;fill-rule:nonzero;stroke:none"
           d="m 1155.77,1411.22 c -47.3,-47.28 -110.23,-73.41 -177.336,-73.49 -67.61,-0.16 -130.918,25.97 -178.496,73.55 -98.196,98.05 -98.204,257.6 -0.079,355.7 47.325,47.31 110.332,73.46 177.442,73.58 67.469,0.17 130.799,-25.94 178.319,-73.46 47.49,-47.46 73.65,-110.55 73.62,-177.93 0.04,-67.24 -26.1,-130.49 -73.47,-177.95 z m 46.45,402.5 c -60.01,60.08 -139.97,93.09 -225.048,92.89 -84.715,-0.21 -164.324,-33.24 -224.004,-92.93 -123.73,-123.82 -123.738,-325.35 0.117,-449.06 60.078,-60.08 140.117,-93.04 225.227,-92.91 84.718,0.2 164.198,33.22 223.878,92.91 59.88,59.92 92.89,139.67 92.82,224.59 -0.04,84.9 -33.05,164.67 -92.99,224.51" />
        <path
           inkscape:connector-curvature="0"
           id="path867"
           style="fill:#484f59;fill-opacity:1;fill-rule:nonzero;stroke:none"
           d="m 977.977,1840.56 -0.637,-15 c -63.098,-0.1 -122.36,-24.69 -166.875,-69.18 -44.629,-44.63 -69.199,-104.02 -69.188,-167.27 0.012,-63.24 24.61,-122.63 69.258,-167.22 44.617,-44.61 104.039,-69.16 167.332,-69.16 63.573,0.08 122.793,24.63 167.293,69.1 44.58,44.67 69.12,104.1 69.08,167.32 0.03,63.26 -24.55,122.7 -69.22,167.35 -44.54,44.53 -103.87,69.06 -167.043,69.06 z m 0.476,-517.83 c -71.89,0 -138.848,27.67 -189.121,77.95 -50.32,50.23 -78.043,117.16 -78.055,188.43 -0.011,71.25 27.68,138.21 77.977,188.48 50.168,50.16 116.941,77.85 188.019,77.97 h 0.704 c 71.193,0 138.043,-27.64 188.253,-77.85 50.34,-50.32 78.04,-117.29 78.01,-188.56 0.04,-71.21 -27.61,-138.18 -77.86,-188.51 -50.16,-50.16 -116.9,-77.81 -187.927,-77.91 z m -0.566,568.88 c -81.438,-0.21 -157.235,-31.66 -214.11,-88.53 -57.015,-57.07 -88.41,-133.05 -88.394,-213.97 0.012,-80.93 31.445,-156.89 88.504,-213.88 57.082,-57.07 133.113,-88.52 214.097,-88.52 v -15 l 0.5,15 c 80.656,0.2 156.416,31.62 213.296,88.52 57.09,57.13 88.49,133.12 88.43,213.98 -0.04,80.94 -31.5,156.9 -88.59,213.91 -57.01,57.07 -132.91,88.49 -213.733,88.49 z m 0.097,-634.9 c -89,0 -172.562,34.55 -235.304,97.31 -62.727,62.65 -97.282,146.15 -97.297,235.09 -0.016,88.93 34.496,172.44 97.176,235.18 62.523,62.52 145.832,97.09 234.574,97.32 89.597,0 173.037,-34.55 235.697,-97.28 62.75,-62.66 97.34,-146.15 97.38,-235.1 0.07,-88.87 -34.45,-172.4 -97.21,-235.21 -62.54,-62.54 -145.8,-97.09 -234.453,-97.31 h -0.563" />
        <path
           inkscape:connector-curvature="0"
           id="path869"
           style="fill:#e5e8ec;fill-opacity:1;fill-rule:nonzero;stroke:none"
           d="m 1017.95,1217.06 c 0.27,19.07 0.52,38.19 0.78,57.33 -13.25,-1.68 -26.656,-2.64 -40.218,-2.68 -13.848,-0.02 -27.52,0.92 -41.047,2.64 -0.27,-19.16 -0.516,-38.3 -0.77,-57.6 l 81.255,0.31" />
        <path
           inkscape:connector-curvature="0"
           id="path871"
           style="fill:#484f59;fill-opacity:1;fill-rule:nonzero;stroke:none"
           d="m 951.691,1216.56 -29.996,0.39 0.774,57.61 c 0.058,4.26 1.933,8.3 5.156,11.1 3.227,2.81 7.5,4.08 11.723,3.57 13.316,-1.7 26.48,-2.6 39.14,-2.52 12.348,0.04 25.262,0.9 38.352,2.56 4.3,0.49 8.64,-0.8 11.88,-3.69 3.24,-2.89 5.06,-7.05 5,-11.39 l -0.77,-57.32 -29.99,0.41 0.54,40.47 c -8.457,-0.67 -16.801,-1.02 -24.945,-1.04 -8.532,0.04 -17.41,0.35 -26.309,1.04 l -0.555,-41.19" />
        <path
           inkscape:connector-curvature="0"
           id="path873"
           style="fill:#88d8fb;fill-opacity:1;fill-rule:nonzero;stroke:none"
           d="M 1042.64,816.422 H 912.945 V 1221.16 H 1042.64 V 816.422" />
        <path
           inkscape:connector-curvature="0"
           id="path875"
           style="fill:#484f59;fill-opacity:1;fill-rule:nonzero;stroke:none"
           d="m 927.945,831.422 h 99.695 v 374.738 h -99.695 z m 114.695,-30 H 912.945 c -8.285,0 -15,6.719 -15,15 v 404.738 c 0,3.99 1.578,7.8 4.395,10.61 2.812,2.81 6.625,4.39 10.605,4.39 v 0 h 129.695 c 8.28,0 15,-6.71 15,-15 V 816.422 c 0,-8.281 -6.72,-15 -15,-15" />
        <path
           inkscape:connector-curvature="0"
           id="path877"
           style="fill:#f7f8fc;fill-opacity:1;fill-rule:nonzero;stroke:none"
           d="M 1042.65,1174.08 H 912.945 v 47.08 h 129.695 l 0.01,-47.08" />
        <path
           inkscape:connector-curvature="0"
           id="path879"
           style="fill:#484f59;fill-opacity:1;fill-rule:nonzero;stroke:none"
           d="m 927.945,1189.08 h 99.695 v 17.08 h -99.695 z m 114.705,-30 H 912.945 c -8.285,0 -15,6.71 -15,15 v 47.08 c 0,3.99 1.578,7.8 4.395,10.61 2.812,2.81 6.625,4.39 10.605,4.39 v 0 h 129.695 c 8.28,0 15,-6.71 15,-15 l 0.01,-47.08 c 0,-3.97 -1.58,-7.8 -4.4,-10.61 -2.81,-2.81 -6.63,-4.39 -10.6,-4.39" />
        <path
           inkscape:connector-curvature="0"
           id="path881"
           style="fill:#f7f8fc;fill-opacity:1;fill-rule:nonzero;stroke:none"
           d="m 1042.64,785.27 c -35.79,-35.801 -93.847,-35.801 -129.675,0 -0.02,10.39 -0.02,20.761 -0.02,31.152 43.262,0 86.473,-0.024 129.695,0 0.01,-10.371 -0.01,-20.742 0,-31.152" />
        <path
           inkscape:connector-curvature="0"
           id="path883"
           style="fill:#484f59;fill-opacity:1;fill-rule:nonzero;stroke:none"
           d="m 927.961,791.809 c 13.887,-11.899 31.375,-18.399 49.855,-18.399 18.477,0 35.954,6.5 49.824,18.399 v 9.613 h -28.222 -71.465 z m 49.855,-48.399 c -28.496,0 -55.293,11.11 -75.453,31.25 -2.808,2.809 -4.39,6.621 -4.398,10.59 l -0.02,31.172 c 0,8.277 6.715,15 15,15 h 129.685 0.01 c 8.28,0 14.99,-6.703 15,-14.981 v -31.152 c 0,-3.988 -1.58,-7.82 -4.39,-10.629 -20.15,-20.14 -46.93,-31.25 -75.434,-31.25" />
        <path
           inkscape:connector-curvature="0"
           id="path885"
           style="fill:#484f59;fill-opacity:1;fill-rule:nonzero;stroke:none"
           d="m 899.332,1528.35 -21.215,21.21 247.503,247.5 21.21,-21.21 -247.498,-247.5" />
        <path
           inkscape:connector-curvature="0"
           id="path887"
           style="fill:#484f59;fill-opacity:1;fill-rule:nonzero;stroke:none"
           d="m 911.832,1635.85 -21.215,21.21 170.003,170 21.21,-21.21 -169.998,-170" />
        <path
           inkscape:connector-curvature="0"
           id="path889"
           style="fill:#484f59;fill-opacity:1;fill-rule:nonzero;stroke:none"
           d="m 1499.88,899.84 h -30 v 121.07 h 30 V 899.84" />
        <path
           inkscape:connector-curvature="0"
           id="path891"
           style="fill:#484f59;fill-opacity:1;fill-rule:nonzero;stroke:none"
           d="m 1545.41,945.359 h -121.07 v 30 h 121.07 v -30" />
        <path
           inkscape:connector-curvature="0"
           id="path893"
           style="fill:#484f59;fill-opacity:1;fill-rule:nonzero;stroke:none"
           d="m 5549.18,1507.47 h -15 v 30 h 15 v -30" />
        <path
           inkscape:connector-curvature="0"
           id="path895"
           style="fill:#484f59;fill-opacity:1;fill-rule:nonzero;stroke:none"
           d="m 5604.38,1507.47 h -27.6 v 30 h 27.6 z m 55.21,0 h -27.61 v 30 h 27.61 z m 55.2,0 h -27.6 v 30 h 27.6 z m 55.21,0 h -27.61 v 30 H 5770 Z m 55.2,0 h -27.6 v 30 h 27.6 v -30" />
        <path
           inkscape:connector-curvature="0"
           id="path897"
           style="fill:#484f59;fill-opacity:1;fill-rule:nonzero;stroke:none"
           d="m 5867.8,1507.47 h -15 v 30 h 15 v -30" />
        <path
           inkscape:connector-curvature="0"
           id="path899"
           style="fill:#484f59;fill-opacity:1;fill-rule:nonzero;stroke:none"
           d="m 4302.51,1707.47 h -15 v 30 h 15 v -30" />
        <path
           inkscape:connector-curvature="0"
           id="path901"
           style="fill:#484f59;fill-opacity:1;fill-rule:nonzero;stroke:none"
           d="m 4357.71,1707.47 h -27.6 v 30 h 27.6 z m 55.21,0 h -27.6 v 30 h 27.6 z m 55.2,0 h -27.6 v 30 h 27.6 z m 55.2,0 h -27.6 v 30 h 27.6 z m 55.21,0 h -27.6 v 30 h 27.6 v -30" />
        <path
           inkscape:connector-curvature="0"
           id="path903"
           style="fill:#484f59;fill-opacity:1;fill-rule:nonzero;stroke:none"
           d="m 4621.13,1707.47 h -15 v 30 h 15 v -30" />
        <path
           inkscape:connector-curvature="0"
           id="path905"
           style="fill:#484f59;fill-opacity:1;fill-rule:nonzero;stroke:none"
           d="m 5549.18,967.469 h -15 v 30 h 15 v -30" />
        <path
           inkscape:connector-curvature="0"
           id="path907"
           style="fill:#484f59;fill-opacity:1;fill-rule:nonzero;stroke:none"
           d="m 5604.38,967.469 h -27.6 v 30 h 27.6 z m 55.21,0 h -27.61 v 30 h 27.61 z m 55.2,0 h -27.6 v 30 h 27.6 z m 55.21,0 h -27.61 v 30 H 5770 Z m 55.2,0 h -27.6 v 30 h 27.6 v -30" />
        <path
           inkscape:connector-curvature="0"
           id="path909"
           style="fill:#484f59;fill-opacity:1;fill-rule:nonzero;stroke:none"
           d="m 5867.8,967.469 h -15 v 30 h 15 v -30" />
        <path
           inkscape:connector-curvature="0"
           id="path911"
           style="fill:#484f59;fill-opacity:1;fill-rule:nonzero;stroke:none"
           d="m 1413.2,608.57 h -180.4 v 30 h 180.4 v -30" />
        <path
           inkscape:connector-curvature="0"
           id="path913"
           style="fill:#484f59;fill-opacity:1;fill-rule:nonzero;stroke:none"
           d="m 1507.69,608.57 h -60.14 v 30 h 60.14 v -30" />
        <path
           inkscape:connector-curvature="0"
           id="path915"
           style="fill:#484f59;fill-opacity:1;fill-rule:nonzero;stroke:none"
           d="M 867.691,1158.53 H 687.289 v 30 h 180.402 v -30" />
        <path
           inkscape:connector-curvature="0"
           id="path917"
           style="fill:#484f59;fill-opacity:1;fill-rule:nonzero;stroke:none"
           d="m 652.934,1158.53 h -60.137 v 30 h 60.137 v -30" />
        <path
           inkscape:connector-curvature="0"
           id="path919"
           style="fill:#484f59;fill-opacity:1;fill-rule:nonzero;stroke:none"
           d="m 867.691,1078.53 h -90.402 v 30 h 90.402 v -30" />
        <path
           inkscape:connector-curvature="0"
           id="path921"
           style="fill:#484f59;fill-opacity:1;fill-rule:nonzero;stroke:none"
           d="m 742.934,1078.53 h -60.137 v 30 h 60.137 v -30" />
        <path
           inkscape:connector-curvature="0"
           id="path923"
           style="fill:#484f59;fill-opacity:1;fill-rule:nonzero;stroke:none"
           d="m 6071.03,644.09 h -306.17 v 30 h 306.17 v -30" />
        <path
           inkscape:connector-curvature="0"
           id="path925"
           style="fill:#484f59;fill-opacity:1;fill-rule:nonzero;stroke:none"
           d="M 5736.56,644.09 H 5634.5 v 30 h 102.06 v -30" />
        <path
           inkscape:connector-curvature="0"
           id="path927"
           style="fill:#484f59;fill-opacity:1;fill-rule:nonzero;stroke:none"
           d="M 7316.56,644.09 H 7214.5 v 30 h 102.06 v -30" />
        <path
           inkscape:connector-curvature="0"
           id="path929"
           style="fill:#484f59;fill-opacity:1;fill-rule:nonzero;stroke:none"
           d="m 3567.25,1778.72 h -976.12 v 30 h 976.12 v -30" />
        <path
           inkscape:connector-curvature="0"
           id="path931"
           style="fill:#484f59;fill-opacity:1;fill-rule:nonzero;stroke:none"
           d="m 3517.85,1708.12 -21.21,21.21 63.28,63.28 -63.28,63.28 21.21,21.21 84.5,-84.49 -84.5,-84.49" />
        <path
           inkscape:connector-curvature="0"
           id="path933"
           style="fill:#ffc400;fill-opacity:1;fill-rule:nonzero;stroke:none"
           d="m 3733.87,1745.25 c 0,90.27 73.11,163.34 163.36,163.34 90.24,0 163.36,-73.07 163.36,-163.34 0,-5.34 -3.95,-80.84 -65.47,-160.08 -18.02,-23.91 -15.04,-71.97 -14.9,-71.97 -25.3,0 -46.09,0 -71.45,0 -7.73,0 -15.47,0 -23.17,0 -25.32,0 -46.5,0 -71.8,0 0.15,0 3.47,48.06 -14.48,71.97 -61.62,79.29 -65.45,154.74 -65.45,160.08" />
        <path
           inkscape:connector-curvature="0"
           id="path935"
           style="fill:#ffffff;fill-opacity:1;fill-rule:nonzero;stroke:none"
           d="m 3733.87,1745.25 c 0,90.27 73.11,163.34 163.36,163.34 90.24,0 163.36,-73.07 163.36,-163.34 0,-5.34 -3.95,-80.84 -65.47,-160.08 -18.02,-23.91 -15.04,-71.97 -14.9,-71.97 -25.3,0 -46.09,0 -71.45,0 -7.73,0 -15.47,0 -23.17,0 -25.32,0 -46.5,0 -71.8,0 0.15,0 3.47,48.06 -14.48,71.97 -61.62,79.29 -65.45,154.74 -65.45,160.08" />
        <path
           inkscape:connector-curvature="0"
           id="path937"
           style="fill:#484f59;fill-opacity:1;fill-rule:nonzero;stroke:none"
           d="m 3829.05,1528.2 h 136.01 c 0.5,19.84 4.77,48.34 18.08,65.99 60.24,77.6 62.44,150.37 62.45,151.08 0,81.77 -66.56,148.32 -148.36,148.32 -81.81,0 -148.36,-66.55 -148.36,-148.34 0,-0.71 2.15,-73.48 62.29,-150.88 13.31,-17.72 17.47,-46.29 17.89,-66.17 z m 151.17,-30 H 3813.8 v 15 l -14.9,1.66 c 0.72,8.14 0.94,44.62 -11.58,61.3 -66.59,85.69 -68.45,168.29 -68.45,169.09 0,98.34 80.01,178.34 178.36,178.34 98.34,0 178.36,-80 178.36,-178.34 0,-0.8 -1.87,-83.3 -68.62,-169.28 -12.48,-16.54 -12.5,-53.09 -11.83,-61.23 l -14.92,-1.54 v -15" />
        <path
           inkscape:connector-curvature="0"
           id="path939"
           style="fill:#41a9d8;fill-opacity:1;fill-rule:nonzero;stroke:none"
           d="m 3856.06,1513.88 -30.66,189.14 30.66,-189.14" />
        <path
           inkscape:connector-curvature="0"
           id="path941"
           style="fill:#484f59;fill-opacity:1;fill-rule:nonzero;stroke:none"
           d="m 3841.26,1511.48 -30.67,189.14 29.62,4.8 30.66,-189.14 -29.61,-4.8" />
        <path
           inkscape:connector-curvature="0"
           id="path943"
           style="fill:#41a9d8;fill-opacity:1;fill-rule:nonzero;stroke:none"
           d="m 3938.43,1513.88 30.63,189.14 -30.63,-189.14" />
        <path
           inkscape:connector-curvature="0"
           id="path945"
           style="fill:#484f59;fill-opacity:1;fill-rule:nonzero;stroke:none"
           d="m 3953.23,1511.48 -29.61,4.8 30.64,189.14 29.61,-4.8 -30.64,-189.14" />
        <path
           inkscape:connector-curvature="0"
           id="path947"
           style="fill:#484f59;fill-opacity:1;fill-rule:nonzero;stroke:none"
           d="m 3841.49,1652.65 -26.39,37.32 24.5,17.33 1.89,-2.66 14.11,19.98 14.17,-20.02 14.14,20 14.19,-20.02 14.2,20 14.16,-20.02 14.18,19.98 14.22,-20.02 1.99,2.82 24.45,-17.39 -26.44,-37.2 -14.2,20 -14.22,-20.04 -14.17,20 -14.19,-20 -14.14,19.96 -14.14,-20 -14.17,20 -14.14,-20.02" />
        <path
           inkscape:connector-curvature="0"
           id="path949"
           style="fill:#cdd5d7;fill-opacity:1;fill-rule:nonzero;stroke:none"
           d="m 3991.19,1477.34 c 0,6.32 -4.33,11.6 -10.15,13.26 5.82,1.62 10.15,6.87 10.15,13.22 0,7.44 -5.94,13.44 -13.31,13.75 h -27.76 -105.79 -27.75 c -7.38,-0.31 -13.29,-6.31 -13.29,-13.75 0,-6.35 4.31,-11.6 10.13,-13.22 -5.82,-1.66 -10.13,-6.94 -10.13,-13.26 0,-6.31 4.31,-11.59 10.13,-13.23 -5.82,-1.62 -10.13,-6.89 -10.13,-13.22 0,-7.44 5.91,-13.46 13.29,-13.75 v -1.21 c 0,-10.18 8.29,-18.42 18.51,-18.42 h 27.75 68.78 27.75 c 10.22,0 18.51,8.24 18.51,18.42 v 1.21 c 7.37,0.29 13.31,6.31 13.31,13.75 0,6.33 -4.33,11.6 -10.15,13.22 5.82,1.64 10.15,6.92 10.15,13.23" />
        <path
           inkscape:connector-curvature="0"
           id="path951"
           style="fill:#484f59;fill-opacity:1;fill-rule:nonzero;stroke:none"
           d="m 3818.29,1450.99 13.29,-13.85 v -1.21 c 0,-1.88 1.57,-3.42 3.51,-3.42 h 124.28 c 1.93,0 3.51,1.54 3.51,3.42 v 1.21 l 13.31,13.87 v -0.12 l 0.82,-1.23 v 2.19 l 0.26,0.27 -0.26,-0.04 -0.04,26.47 h -0.02 l 0.03,24.04 -159.51,-0.02 0.04,-24.02 h -0.02 l -0.04,-26.47 -0.26,0.04 0.26,-0.25 -0.01,-2.21 0.85,1.23 z m 141.08,-48.48 h -124.28 c -14.9,0 -27.55,9.75 -31.9,23.19 -8.92,4.88 -14.9,14.33 -14.9,25.19 0,4.73 1.17,9.24 3.27,13.24 -2.1,3.99 -3.27,8.5 -3.27,13.21 0,4.7 1.18,9.23 3.28,13.24 -2.1,4 -3.28,8.53 -3.28,13.24 0,15.47 12.15,28.09 27.65,28.75 h 161.94 c 16.15,-0.66 28.31,-13.28 28.31,-28.75 0,-4.71 -1.18,-9.24 -3.29,-13.24 2.11,-4.01 3.29,-8.54 3.29,-13.24 0,-4.71 -1.18,-9.22 -3.28,-13.21 2.1,-4 3.28,-8.51 3.28,-13.24 0,-10.86 -5.99,-20.31 -14.92,-25.21 -4.35,-13.42 -17.01,-23.17 -31.9,-23.17" />
        <path
           inkscape:connector-curvature="0"
           id="path953"
           style="fill:#484f59;fill-opacity:1;fill-rule:nonzero;stroke:none"
           d="m 3892.71,1457.61 h -81.32 v 30 h 81.32 v -30" />
        <path
           inkscape:connector-curvature="0"
           id="path955"
           style="fill:#484f59;fill-opacity:1;fill-rule:nonzero;stroke:none"
           d="m 3272.22,800.48 -24.03,17.95 81.86,109.609 54.42,-44.84 77.99,120.251 32.48,-26.579 44.17,118.939 57.94,-72.42 101.16,104.34 140.62,-100.47 57.96,21.09 73.23,173.11 71.98,-6.53 50.78,107.54 27.13,-12.81 -59.73,-126.5 -71.07,6.44 -69.78,-164.98 -85.09,-30.96 -132.46,94.65 -106.89,-110.228 -46.1,57.618 -40.36,-108.661 -39.04,31.961 -78.04,-120.34 -56.09,46.219 -63.04,-84.399" />
        <path
           inkscape:connector-curvature="0"
           id="path957"
           style="fill:#484f59;fill-opacity:1;fill-rule:nonzero;stroke:none"
           d="m 4116.1,689.898 h -990.27 v 990.272 h 30 V 719.898 h 960.27 v -30" />
        <path
           inkscape:connector-curvature="0"
           id="path959"
           style="fill:#484f59;fill-opacity:1;fill-rule:nonzero;stroke:none"
           d="m 3205.41,1598.45 -62.96,62.95 -62.95,-62.95 -21.21,21.21 84.16,84.16 84.17,-84.16 -21.21,-21.21" />
        <path
           inkscape:connector-curvature="0"
           id="path961"
           style="fill:#484f59;fill-opacity:1;fill-rule:nonzero;stroke:none"
           d="m 4057.62,619.109 -21.22,21.223 62.95,62.957 -62.94,62.949 21.21,21.211 84.16,-84.16 -84.16,-84.18" />
        <path
           inkscape:connector-curvature="0"
           id="path963"
           style="fill:#ffffff;fill-opacity:1;fill-rule:nonzero;stroke:none"
           d="m 3281.33,742.809 v 32.523 -32.523" />
        <path
           inkscape:connector-curvature="0"
           id="path965"
           style="fill:#484f59;fill-opacity:1;fill-rule:nonzero;stroke:none"
           d="m 3296.33,742.809 h -30 v 32.523 h 30 v -32.523" />
        <path
           inkscape:connector-curvature="0"
           id="path967"
           style="fill:#ffffff;fill-opacity:1;fill-rule:nonzero;stroke:none"
           d="m 3359.36,742.809 v 32.523 -32.523" />
        <path
           inkscape:connector-curvature="0"
           id="path969"
           style="fill:#484f59;fill-opacity:1;fill-rule:nonzero;stroke:none"
           d="m 3374.36,742.809 h -30 v 32.523 h 30 v -32.523" />
        <path
           inkscape:connector-curvature="0"
           id="path971"
           style="fill:#ffffff;fill-opacity:1;fill-rule:nonzero;stroke:none"
           d="m 3437.38,742.809 v 32.523 -32.523" />
        <path
           inkscape:connector-curvature="0"
           id="path973"
           style="fill:#484f59;fill-opacity:1;fill-rule:nonzero;stroke:none"
           d="m 3452.38,742.809 h -30 v 32.523 h 30 v -32.523" />
        <path
           inkscape:connector-curvature="0"
           id="path975"
           style="fill:#ffffff;fill-opacity:1;fill-rule:nonzero;stroke:none"
           d="m 3515.4,742.809 v 32.523 -32.523" />
        <path
           inkscape:connector-curvature="0"
           id="path977"
           style="fill:#484f59;fill-opacity:1;fill-rule:nonzero;stroke:none"
           d="m 3530.4,742.809 h -30 v 32.523 h 30 v -32.523" />
        <path
           inkscape:connector-curvature="0"
           id="path979"
           style="fill:#ffffff;fill-opacity:1;fill-rule:nonzero;stroke:none"
           d="m 3593.42,742.809 v 32.523 -32.523" />
        <path
           inkscape:connector-curvature="0"
           id="path981"
           style="fill:#484f59;fill-opacity:1;fill-rule:nonzero;stroke:none"
           d="m 3608.42,742.809 h -30 v 32.523 h 30 v -32.523" />
        <path
           inkscape:connector-curvature="0"
           id="path983"
           style="fill:#ffffff;fill-opacity:1;fill-rule:nonzero;stroke:none"
           d="m 3671.44,742.809 v 32.523 -32.523" />
        <path
           inkscape:connector-curvature="0"
           id="path985"
           style="fill:#484f59;fill-opacity:1;fill-rule:nonzero;stroke:none"
           d="m 3686.44,742.809 h -30 v 32.523 h 30 v -32.523" />
        <path
           inkscape:connector-curvature="0"
           id="path987"
           style="fill:#ffffff;fill-opacity:1;fill-rule:nonzero;stroke:none"
           d="m 3749.46,742.809 v 32.523 -32.523" />
        <path
           inkscape:connector-curvature="0"
           id="path989"
           style="fill:#484f59;fill-opacity:1;fill-rule:nonzero;stroke:none"
           d="m 3764.46,742.809 h -30 v 32.523 h 30 v -32.523" />
        <path
           inkscape:connector-curvature="0"
           id="path991"
           style="fill:#ffffff;fill-opacity:1;fill-rule:nonzero;stroke:none"
           d="m 3827.49,742.809 v 32.523 -32.523" />
        <path
           inkscape:connector-curvature="0"
           id="path993"
           style="fill:#484f59;fill-opacity:1;fill-rule:nonzero;stroke:none"
           d="m 3842.49,742.809 h -30 v 32.523 h 30 v -32.523" />
        <path
           inkscape:connector-curvature="0"
           id="path995"
           style="fill:#ffffff;fill-opacity:1;fill-rule:nonzero;stroke:none"
           d="m 3902.25,742.809 v 32.523 -32.523" />
        <path
           inkscape:connector-curvature="0"
           id="path997"
           style="fill:#484f59;fill-opacity:1;fill-rule:nonzero;stroke:none"
           d="m 3917.25,742.809 h -30 v 32.523 h 30 v -32.523" />
        <path
           inkscape:connector-curvature="0"
           id="path999"
           style="fill:#ffffff;fill-opacity:1;fill-rule:nonzero;stroke:none"
           d="m 3980.27,742.809 v 32.523 -32.523" />
        <path
           inkscape:connector-curvature="0"
           id="path1001"
           style="fill:#484f59;fill-opacity:1;fill-rule:nonzero;stroke:none"
           d="m 3995.27,742.809 h -30 v 32.523 h 30 v -32.523" />
        <path
           inkscape:connector-curvature="0"
           id="path1003"
           style="fill:#ffffff;fill-opacity:1;fill-rule:nonzero;stroke:none"
           d="m 3227.69,825.719 h -32.51 32.51" />
        <path
           inkscape:connector-curvature="0"
           id="path1005"
           style="fill:#484f59;fill-opacity:1;fill-rule:nonzero;stroke:none"
           d="m 3227.69,810.719 h -32.51 v 30 h 32.51 v -30" />
        <path
           inkscape:connector-curvature="0"
           id="path1007"
           style="fill:#ffffff;fill-opacity:1;fill-rule:nonzero;stroke:none"
           d="m 3227.69,903.738 h -32.51 32.51" />
        <path
           inkscape:connector-curvature="0"
           id="path1009"
           style="fill:#484f59;fill-opacity:1;fill-rule:nonzero;stroke:none"
           d="m 3227.69,888.738 h -32.51 v 30 h 32.51 v -30" />
        <path
           inkscape:connector-curvature="0"
           id="path1011"
           style="fill:#ffffff;fill-opacity:1;fill-rule:nonzero;stroke:none"
           d="m 3227.69,981.75 h -32.51 32.51" />
        <path
           inkscape:connector-curvature="0"
           id="path1013"
           style="fill:#484f59;fill-opacity:1;fill-rule:nonzero;stroke:none"
           d="m 3227.69,966.75 h -32.51 v 30 h 32.51 v -30" />
        <path
           inkscape:connector-curvature="0"
           id="path1015"
           style="fill:#ffffff;fill-opacity:1;fill-rule:nonzero;stroke:none"
           d="m 3227.69,1059.78 h -32.51 32.51" />
        <path
           inkscape:connector-curvature="0"
           id="path1017"
           style="fill:#484f59;fill-opacity:1;fill-rule:nonzero;stroke:none"
           d="m 3227.69,1044.78 h -32.51 v 30 h 32.51 v -30" />
        <path
           inkscape:connector-curvature="0"
           id="path1019"
           style="fill:#ffffff;fill-opacity:1;fill-rule:nonzero;stroke:none"
           d="m 3227.69,1137.81 h -32.51 32.51" />
        <path
           inkscape:connector-curvature="0"
           id="path1021"
           style="fill:#484f59;fill-opacity:1;fill-rule:nonzero;stroke:none"
           d="m 3227.69,1122.81 h -32.51 v 30 h 32.51 v -30" />
        <path
           inkscape:connector-curvature="0"
           id="path1023"
           style="fill:#ffffff;fill-opacity:1;fill-rule:nonzero;stroke:none"
           d="m 3227.69,1215.83 h -32.51 32.51" />
        <path
           inkscape:connector-curvature="0"
           id="path1025"
           style="fill:#484f59;fill-opacity:1;fill-rule:nonzero;stroke:none"
           d="m 3227.69,1200.83 h -32.51 v 30 h 32.51 v -30" />
        <path
           inkscape:connector-curvature="0"
           id="path1027"
           style="fill:#ffffff;fill-opacity:1;fill-rule:nonzero;stroke:none"
           d="m 3227.69,1293.86 h -32.51 32.51" />
        <path
           inkscape:connector-curvature="0"
           id="path1029"
           style="fill:#484f59;fill-opacity:1;fill-rule:nonzero;stroke:none"
           d="m 3227.69,1278.86 h -32.51 v 30 h 32.51 v -30" />
        <path
           inkscape:connector-curvature="0"
           id="path1031"
           style="fill:#ffffff;fill-opacity:1;fill-rule:nonzero;stroke:none"
           d="m 3227.69,1371.87 h -32.51 32.51" />
        <path
           inkscape:connector-curvature="0"
           id="path1033"
           style="fill:#484f59;fill-opacity:1;fill-rule:nonzero;stroke:none"
           d="m 3227.69,1356.87 h -32.51 v 30 h 32.51 v -30" />
        <path
           inkscape:connector-curvature="0"
           id="path1035"
           style="fill:#ffffff;fill-opacity:1;fill-rule:nonzero;stroke:none"
           d="m 3227.69,1446.63 h -32.51 32.51" />
        <path
           inkscape:connector-curvature="0"
           id="path1037"
           style="fill:#484f59;fill-opacity:1;fill-rule:nonzero;stroke:none"
           d="m 3227.69,1431.63 h -32.51 v 30 h 32.51 v -30" />
        <path
           inkscape:connector-curvature="0"
           id="path1039"
           style="fill:#ffffff;fill-opacity:1;fill-rule:nonzero;stroke:none"
           d="m 3227.69,1524.66 h -32.51 32.51" />
        <path
           inkscape:connector-curvature="0"
           id="path1041"
           style="fill:#484f59;fill-opacity:1;fill-rule:nonzero;stroke:none"
           d="m 3227.69,1509.66 h -32.51 v 30 h 32.51 v -30" />
        <path
           inkscape:connector-curvature="0"
           id="path1043"
           style="fill:#88d8fb;fill-opacity:1;fill-rule:nonzero;stroke:none"
           d="m 3616.86,1515.23 c 0,-52.43 -42.49,-94.92 -94.91,-94.92 -52.42,0 -94.93,42.49 -94.93,94.92 0,52.44 42.51,94.94 94.93,94.94 52.42,0 94.91,-42.5 94.91,-94.94" />
        <path
           inkscape:connector-curvature="0"
           id="path1045"
           style="fill:#484f59;fill-opacity:1;fill-rule:nonzero;stroke:none"
           d="m 3521.95,1595.17 c -44.07,0 -79.93,-35.86 -79.93,-79.94 0,-44.07 35.86,-79.93 79.93,-79.93 44.06,0 79.91,35.86 79.91,79.93 0,44.08 -35.85,79.94 -79.91,79.94 z m 0,-189.86 c -60.62,0 -109.93,49.31 -109.93,109.92 0,60.62 49.31,109.94 109.93,109.94 60.61,0 109.91,-49.32 109.91,-109.94 0,-60.61 -49.3,-109.92 -109.91,-109.92" />
        <path
           inkscape:connector-curvature="0"
           id="path1047"
           style="fill:#88d8fb;fill-opacity:1;fill-rule:nonzero;stroke:none"
           d="m 3391.92,1418.92 h 242.33 l 97.53,-146.27 h 157.92 v -78.03 h -199.67 l -79.91,119.85 V 716.711 h -175.54 v 624.179 l -70.62,-93.48 62.17,-108.12 -67.63,-38.91 -87.36,151.94 120.78,166.6" />
        <path
           inkscape:connector-curvature="0"
           id="path1049"
           style="fill:#484f59;fill-opacity:1;fill-rule:nonzero;stroke:none"
           d="m 3381.9,1246.3 37.68,-65.53 v 115.39 z m 67.68,-514.589 h 145.54 v 582.759 l 27.48,8.32 75.46,-113.17 h 176.64 v 48.03 h -142.92 l -12.48,6.68 -93.07,139.59 h -226.66 l -110.59,-152.54 75.04,-130.51 41.63,23.95 -54.7,95.11 1.04,16.53 70.62,93.47 26.97,-9.04 z m 160.54,-30 h -175.54 l -15,15 v 401.509 l -53.61,-30.84 -20.48,5.52 -87.36,151.94 0.86,16.29 120.78,166.6 12.15,6.19 h 242.33 l 12.48,-6.68 93.08,-139.59 h 149.89 l 15,-15 v -78.03 l -15,-15 h -199.67 l -12.48,6.68 -52.43,78.63 V 716.711 l -15,-15" />
        <path
           inkscape:connector-curvature="0"
           id="path1051"
           style="fill:#484f59;fill-opacity:1;fill-rule:nonzero;stroke:none"
           d="m 3540.6,716.711 h -30 v 364.119 h 30 V 716.711" />
        <path
           inkscape:connector-curvature="0"
           id="path1053"
           style="fill:#ffc400;fill-opacity:1;fill-rule:nonzero;stroke:none"
           d="m 2096.7,729.621 240.15,240.18 c 132.63,-132.641 132.7,-347.68 0.03,-480.352 -132.66,-132.64 -347.76,-132.66 -480.4,-0.019 -132.67,132.672 -132.65,347.769 0,480.41 79.57,79.57 182.14,112.93 293.35,95.31 L 2096.7,729.621" />
        <path
           inkscape:connector-curvature="0"
           id="path1055"
           style="fill:#484f59;fill-opacity:1;fill-rule:nonzero;stroke:none"
           d="m 2092.57,1054.74 c -85.03,0 -163,-33.03 -225.48,-95.51 -61.33,-61.308 -95.1,-142.851 -95.1,-229.589 -0.01,-86.719 33.77,-168.282 95.1,-229.61 61.3,-61.312 142.83,-95.062 229.54,-95.062 h 0.02 c 86.75,0 168.3,33.769 229.62,95.082 123.02,123.031 126.46,321.058 10.34,448.301 L 2107.31,719.02 c -4.6,-4.59 -11.63,-5.688 -17.42,-2.758 -5.79,2.949 -9.02,9.297 -8.01,15.707 l 50.74,320.411 c -13.48,1.58 -26.9,2.36 -40.05,2.36 z m 4.06,-679.771 c -94.73,0 -183.78,36.883 -250.76,103.851 -66.99,67.012 -103.89,156.078 -103.88,250.84 0,94.731 36.89,183.809 103.88,250.781 68.24,68.239 153.55,104.299 246.7,104.299 19.55,0 39.6,-1.6 59.61,-4.77 8.18,-1.31 13.76,-8.98 12.46,-17.16 l -45.9,-289.931 207.5,207.519 c 5.63,5.633 15.59,5.633 21.22,0 138.28,-138.277 138.29,-363.277 0.03,-501.558 -67,-66.969 -156.08,-103.871 -250.84,-103.871 h -0.02" />
        <path
           inkscape:connector-curvature="0"
           id="path1057"
           style="fill:#d5e962;fill-opacity:1;fill-rule:nonzero;stroke:none"
           d="m 2096.64,1069.29 c 187.62,0 339.7,-152.11 339.7,-339.708 0,-112.543 -48.94,-208.652 -140.03,-274.82 l -199.67,274.82 v 339.708" />
        <path
           inkscape:connector-curvature="0"
           id="path1059"
           style="fill:#484f59;fill-opacity:1;fill-rule:nonzero;stroke:none"
           d="m 2296.33,439.762 c -4.64,0 -9.22,2.148 -12.15,6.187 l -199.68,274.821 24.27,17.64 190.69,-262.461 c 79.8,63.051 121.88,150.43 121.88,253.633 0,179.047 -145.66,324.708 -324.7,324.708 v 30 c 195.58,0 354.7,-159.118 354.7,-354.708 0,-116.543 -51.92,-218.453 -146.21,-286.953 -2.66,-1.93 -5.75,-2.867 -8.8,-2.867" />
        <path
           inkscape:connector-curvature="0"
           id="path1061"
           style="fill:#88d8fb;fill-opacity:1;fill-rule:nonzero;stroke:none"
           d="m 2096.62,729.66 323.04,-105 c 57.97,178.422 -39.68,370.078 -218.09,428.03 -35.66,11.56 -67.42,16.6 -104.95,16.6 V 729.66" />
        <path
           inkscape:connector-curvature="0"
           id="path1063"
           style="fill:#484f59;fill-opacity:1;fill-rule:nonzero;stroke:none"
           d="m 2111.62,740.559 298.09,-96.899 c 21.57,78.27 13.28,160.57 -23.82,233.379 -39.38,77.293 -106.48,134.591 -188.96,161.391 -29.43,9.53 -55.69,14.4 -85.31,15.57 z M 2419.66,609.66 c -1.56,0 -3.13,0.25 -4.64,0.738 l -323.04,105 c -6.18,2.012 -10.36,7.782 -10.36,14.262 v 339.63 c 0,8.28 6.72,15 15,15 38.82,0 72.61,-5.33 109.58,-17.32 90.1,-29.28 163.41,-91.88 206.42,-176.31 43.01,-84.422 50.58,-180.531 21.3,-270.629 -1.22,-3.793 -3.91,-6.929 -7.45,-8.73 -2.13,-1.09 -4.47,-1.641 -6.81,-1.641" />
        <path
           inkscape:connector-curvature="0"
           id="path1065"
           style="fill:#ffffff;fill-opacity:1;fill-rule:nonzero;stroke:none"
           d="m 2768.7,523.332 c -156.49,0 -283.33,126.879 -283.33,283.34 0,156.488 126.84,283.338 283.33,283.338 156.49,0 283.35,-126.85 283.35,-283.338 0,-156.461 -126.86,-283.34 -283.35,-283.34" />
        <path
           inkscape:connector-curvature="0"
           id="path1067"
           style="fill:#484f59;fill-opacity:1;fill-rule:nonzero;stroke:none"
           d="m 2768.7,1075.01 c -147.96,0 -268.33,-120.369 -268.33,-268.338 0,-147.953 120.37,-268.34 268.33,-268.34 147.97,0 268.35,120.387 268.35,268.34 0,147.969 -120.38,268.338 -268.35,268.338 z m 0,-566.678 c -164.5,0 -298.33,133.848 -298.33,298.34 0,164.508 133.83,298.338 298.33,298.338 164.51,0 298.35,-133.83 298.35,-298.338 0,-164.492 -133.84,-298.34 -298.35,-298.34" />
        <path
           inkscape:connector-curvature="0"
           id="path1069"
           style="fill:#484f59;fill-opacity:1;fill-rule:nonzero;stroke:none"
           d="m 2783.7,991.379 h -30 v 48.421 h 30 v -48.421" />
        <path
           inkscape:connector-curvature="0"
           id="path1071"
           style="fill:#484f59;fill-opacity:1;fill-rule:nonzero;stroke:none"
           d="m 2874.06,959.129 -25.99,15 24.21,41.941 25.98,-15 -24.2,-41.941" />
        <path
           inkscape:connector-curvature="0"
           id="path1073"
           style="fill:#484f59;fill-opacity:1;fill-rule:nonzero;stroke:none"
           d="m 2936.16,886.031 -14.99,25.989 41.95,24.199 14.98,-25.989 -41.94,-24.199" />
        <path
           inkscape:connector-curvature="0"
           id="path1075"
           style="fill:#484f59;fill-opacity:1;fill-rule:nonzero;stroke:none"
           d="m 3001.84,791.672 h -48.43 v 30 h 48.43 v -30" />
        <path
           inkscape:connector-curvature="0"
           id="path1077"
           style="fill:#484f59;fill-opacity:1;fill-rule:nonzero;stroke:none"
           d="m 2963.11,677.121 -41.94,24.199 14.99,25.981 41.95,-24.199 -15,-25.981" />
        <path
           inkscape:connector-curvature="0"
           id="path1079"
           style="fill:#484f59;fill-opacity:1;fill-rule:nonzero;stroke:none"
           d="m 2872.28,597.281 -24.21,41.91 25.98,15 24.21,-41.91 -25.98,-15" />
        <path
           inkscape:connector-curvature="0"
           id="path1081"
           style="fill:#484f59;fill-opacity:1;fill-rule:nonzero;stroke:none"
           d="m 2783.7,573.531 -30,0.02 0.02,48.418 30,-0.02 -0.02,-48.418" />
        <path
           inkscape:connector-curvature="0"
           id="path1083"
           style="fill:#484f59;fill-opacity:1;fill-rule:nonzero;stroke:none"
           d="m 2665.1,597.281 -25.97,15.02 24.24,41.91 25.97,-15.02 -24.24,-41.91" />
        <path
           inkscape:connector-curvature="0"
           id="path1085"
           style="fill:#484f59;fill-opacity:1;fill-rule:nonzero;stroke:none"
           d="m 2574.29,677.121 -14.99,25.981 41.95,24.199 14.99,-25.981 -41.95,-24.199" />
        <path
           inkscape:connector-curvature="0"
           id="path1087"
           style="fill:#484f59;fill-opacity:1;fill-rule:nonzero;stroke:none"
           d="m 2583.99,791.648 -48.43,0.024 0.01,30 48.44,-0.024 -0.02,-30" />
        <path
           inkscape:connector-curvature="0"
           id="path1089"
           style="fill:#484f59;fill-opacity:1;fill-rule:nonzero;stroke:none"
           d="m 2601.25,886.031 -41.95,24.199 14.99,25.989 41.95,-24.199 -14.99,-25.989" />
        <path
           inkscape:connector-curvature="0"
           id="path1091"
           style="fill:#484f59;fill-opacity:1;fill-rule:nonzero;stroke:none"
           d="m 2663.34,959.148 -24.19,41.942 25.99,14.98 24.19,-41.941 -25.99,-14.981" />
        <path
           inkscape:connector-curvature="0"
           id="path1093"
           style="fill:#f7f8fc;fill-opacity:1;fill-rule:nonzero;stroke:none"
           d="m 2757.84,816.398 c -5.37,-6 -4.85,-15.238 1.15,-20.589 6.01,-5.368 15.21,-4.86 20.58,1.121 5.38,6.011 4.86,15.25 -1.15,20.601 -6,5.367 -15.22,4.848 -20.58,-1.133" />
        <path
           inkscape:connector-curvature="0"
           id="path1095"
           style="fill:#484f59;fill-opacity:1;fill-rule:nonzero;stroke:none"
           d="m 2768.72,777.102 v 0 c -7.29,0 -14.29,2.679 -19.73,7.539 -5.88,5.238 -9.37,12.48 -9.82,20.39 -0.44,7.891 2.22,15.489 7.49,21.391 10.49,11.66 30.07,12.75 41.76,2.297 5.88,-5.231 9.37,-12.481 9.82,-20.387 0.45,-7.891 -2.21,-15.5 -7.49,-21.402 -5.62,-6.25 -13.65,-9.828 -22.03,-9.828" />
        <path
           inkscape:connector-curvature="0"
           id="path1097"
           style="fill:#484f59;fill-opacity:1;fill-rule:nonzero;stroke:none"
           d="m 2789.6,807.531 -22.36,20 101.45,113.438 22.36,-20 -101.45,-113.438" />
        <path
           inkscape:connector-curvature="0"
           id="path1099"
           style="fill:#484f59;fill-opacity:1;fill-rule:nonzero;stroke:none"
           d="m 2752.39,801.219 -99.9,89.383 20.01,22.359 99.89,-89.371 -20,-22.371" />
        <path
           inkscape:connector-curvature="0"
           id="path1101"
           style="fill:#b7bec0;fill-opacity:1;fill-rule:nonzero;stroke:none"
           d="m 7119.76,1091.75 c 20.32,0.25 49.05,17.48 49.03,38.44 0,77.99 0,155.94 0,233.9 -0.04,21.04 -15.79,45.38 -35.83,51.74 -69.06,21.58 -142.65,21.58 -211.7,0 -20.04,-6.36 -35.8,-30.76 -35.81,-51.74 0,-77.96 0,-155.91 0,-233.9 -0.04,-20.86 28.69,-38.22 49,-38.44 h 185.31" />
        <path
           inkscape:connector-curvature="0"
           id="path1103"
           style="fill:#484f59;fill-opacity:1;fill-rule:nonzero;stroke:none"
           d="m 6934.29,1076.75 c -25.45,0.27 -63.9,21.74 -63.84,53.48 v 233.86 c 0.01,28.31 20.77,57.93 46.26,66.04 72.24,22.58 148.54,22.58 220.72,0.02 25.54,-8.13 46.31,-37.74 46.36,-66.04 v -233.92 c 0.04,-31.64 -38.4,-53.13 -63.84,-53.44 l -0.38,30 c 15.04,0.18 34.23,13.32 34.22,23.42 v 233.92 c -0.03,15.38 -12.12,33.23 -25.38,37.45 -66.25,20.72 -136.36,20.72 -202.68,-0.02 -12.95,-4.12 -25.27,-22.33 -25.28,-37.44 v -233.89 c -0.02,-9.94 19.46,-23.28 34.16,-23.44 l -0.32,-30" />
        <path
           inkscape:connector-curvature="0"
           id="path1105"
           style="fill:#d5e962;fill-opacity:1;fill-rule:nonzero;stroke:none"
           d="M 6947,1351.28 V 853.039 1351.28" />
        <path
           inkscape:connector-curvature="0"
           id="path1107"
           style="fill:#d5e962;fill-opacity:1;fill-rule:nonzero;stroke:none"
           d="M 7107.21,1351.28 V 853.039 1351.28" />
        <path
           inkscape:connector-curvature="0"
           id="path1109"
           style="fill:#d5e962;fill-opacity:1;fill-rule:nonzero;stroke:none"
           d="M 7027.12,1102.94 V 853.039 1102.94" />
        <path
           inkscape:connector-curvature="0"
           id="path1111"
           style="fill:#b7bec0;fill-opacity:1;fill-rule:nonzero;stroke:none"
           d="m 7102.4,1506.93 c 0,-41.59 -33.71,-75.3 -75.28,-75.3 -41.59,0 -75.31,33.71 -75.31,75.3 0,41.58 33.72,75.29 75.31,75.29 41.57,0 75.28,-33.71 75.28,-75.29" />
        <path
           inkscape:connector-curvature="0"
           id="path1113"
           style="fill:#484f59;fill-opacity:1;fill-rule:nonzero;stroke:none"
           d="m 7027.12,1567.22 c -33.26,0 -60.31,-27.05 -60.31,-60.29 0,-33.25 27.05,-60.3 60.31,-60.3 33.24,0 60.28,27.05 60.28,60.3 0,33.24 -27.04,60.29 -60.28,60.29 z m 0,-150.59 c -49.8,0 -90.31,40.51 -90.31,90.3 0,49.78 40.51,90.29 90.31,90.29 49.78,0 90.28,-40.51 90.28,-90.29 0,-49.79 -40.5,-90.3 -90.28,-90.3" />
        <path
           inkscape:connector-curvature="0"
           id="path1115"
           style="fill:#b7bec0;fill-opacity:1;fill-rule:nonzero;stroke:none"
           d="M 6947,1351.28 V 853.039 h 160.21 V 1351.28 H 6947" />
        <path
           inkscape:connector-curvature="0"
           id="path1117"
           style="fill:#484f59;fill-opacity:1;fill-rule:nonzero;stroke:none"
           d="M 7122.21,838.039 H 6932 v 513.241 h 30 V 868.039 h 130.21 v 483.241 h 30 V 838.039" />
        <path
           inkscape:connector-curvature="0"
           id="path1119"
           style="fill:#d5e962;fill-opacity:1;fill-rule:nonzero;stroke:none"
           d="M 7027.12,1102.94 V 853.039 1102.94" />
        <path
           inkscape:connector-curvature="0"
           id="path1121"
           style="fill:#484f59;fill-opacity:1;fill-rule:nonzero;stroke:none"
           d="m 7042.12,853.039 h -30 v 249.901 h 30 V 853.039" />
        <path
           inkscape:connector-curvature="0"
           id="path1123"
           style="fill:#cdd5d7;fill-opacity:1;fill-rule:nonzero;stroke:none"
           d="m 6363.54,1028.08 c 21.17,0.27 51.11,18.22 51.08,40.08 0,81.25 0,162.5 0,243.73 -0.03,21.95 -16.46,47.3 -37.34,53.94 -71.97,22.5 -148.66,22.5 -220.61,0 -20.89,-6.64 -37.31,-32.07 -37.32,-53.94 0,-81.23 0,-162.48 0,-243.73 -0.04,-21.74 29.9,-39.85 51.07,-40.08 h 193.12" />
        <path
           inkscape:connector-curvature="0"
           id="path1125"
           style="fill:#484f59;fill-opacity:1;fill-rule:nonzero;stroke:none"
           d="m 6170.25,1013.08 c -26.27,0.29 -65.96,22.42 -65.9,55.1 v 243.71 c 0.01,29.26 21.45,59.88 47.78,68.24 75.15,23.5 154.53,23.5 229.63,0.02 26.38,-8.38 47.82,-38.99 47.86,-68.24 v -243.75 c 0.04,-32.6 -39.64,-54.75 -65.9,-55.08 l -0.37,30 c 14.66,0.19 36.29,13.42 36.27,25.06 v 243.75 c -0.02,16.27 -12.84,35.19 -26.89,39.65 -69.17,21.64 -142.36,21.64 -211.58,-0.02 -13.99,-4.44 -26.8,-23.34 -26.8,-39.63 v -243.73 c -0.02,-10.84 20.3,-24.91 36.23,-25.08 l -0.33,-30" />
        <path
           inkscape:connector-curvature="0"
           id="path1127"
           style="fill:#c0d44c;fill-opacity:1;fill-rule:nonzero;stroke:none"
           d="M 6183.5,1298.55 V 779.332 1298.55" />
        <path
           inkscape:connector-curvature="0"
           id="path1129"
           style="fill:#c0d44c;fill-opacity:1;fill-rule:nonzero;stroke:none"
           d="M 6350.46,1298.55 V 779.332 1298.55" />
        <path
           inkscape:connector-curvature="0"
           id="path1131"
           style="fill:#c0d44c;fill-opacity:1;fill-rule:nonzero;stroke:none"
           d="M 6266.99,1039.78 V 779.332 1039.78" />
        <path
           inkscape:connector-curvature="0"
           id="path1133"
           style="fill:#cdd5d7;fill-opacity:1;fill-rule:nonzero;stroke:none"
           d="m 6345.43,1460.75 c 0,-43.34 -35.13,-78.43 -78.44,-78.43 -43.35,0 -78.48,35.09 -78.48,78.43 0,43.36 35.13,78.48 78.48,78.48 43.31,0 78.44,-35.12 78.44,-78.48" />
        <path
           inkscape:connector-curvature="0"
           id="path1135"
           style="fill:#484f59;fill-opacity:1;fill-rule:nonzero;stroke:none"
           d="m 6266.99,1524.23 c -35,0 -63.48,-28.48 -63.48,-63.48 0,-34.98 28.48,-63.43 63.48,-63.43 34.98,0 63.44,28.45 63.44,63.43 0,35 -28.46,63.48 -63.44,63.48 z m 0,-156.91 c -51.55,0 -93.48,41.91 -93.48,93.43 0,51.55 41.93,93.48 93.48,93.48 51.52,0 93.44,-41.93 93.44,-93.48 0,-51.52 -41.92,-93.43 -93.44,-93.43" />
        <path
           inkscape:connector-curvature="0"
           id="path1137"
           style="fill:#cdd5d7;fill-opacity:1;fill-rule:nonzero;stroke:none"
           d="M 6183.5,1298.55 V 779.332 h 166.96 V 1298.55 H 6183.5" />
        <path
           inkscape:connector-curvature="0"
           id="path1139"
           style="fill:#484f59;fill-opacity:1;fill-rule:nonzero;stroke:none"
           d="M 6365.46,764.332 H 6168.5 v 534.218 h 30 V 794.332 h 136.96 v 504.218 h 30 V 764.332" />
        <path
           inkscape:connector-curvature="0"
           id="path1141"
           style="fill:#c0d44c;fill-opacity:1;fill-rule:nonzero;stroke:none"
           d="M 6266.99,1039.78 V 779.332 1039.78" />
        <path
           inkscape:connector-curvature="0"
           id="path1143"
           style="fill:#484f59;fill-opacity:1;fill-rule:nonzero;stroke:none"
           d="m 6281.99,779.332 h -30 v 260.448 h 30 V 779.332" />
        <path
           inkscape:connector-curvature="0"
           id="path1145"
           style="fill:#88d8fb;fill-opacity:1;fill-rule:nonzero;stroke:none"
           d="m 6965.92,1625.52 -76.06,256.68 -94.23,-27.91 54.98,-185.53 -124.5,-78.94 h -159.83 l -125.6,79.64 48.34,186.45 -95.12,24.67 -66.31,-255.76 210.16,-133.27 V 937.102 h 216.89 v 554.448 l 211.28,133.97" />
        <path
           inkscape:connector-curvature="0"
           id="path1147"
           style="fill:#484f59;fill-opacity:1;fill-rule:nonzero;stroke:none"
           d="m 6552.75,952.102 h 186.89 V 1499.8 l 208.68,132.32 -68.58,231.45 -65.46,-19.4 53.93,-182.01 -137.74,-87.34 h -168.54 l -138.51,87.83 47.32,182.52 -66.09,17.13 -59.79,-230.67 207.89,-131.83 z m 216.89,-30 h -246.89 v 561.188 l -212.42,134.71 72.81,280.86 124.17,-32.19 -49.36,-190.39 112.69,-71.46 h 151.12 l 111.25,70.54 -56.02,189.05 123,36.44 83.53,-281.93 -213.88,-135.63 V 922.102" />
        <path
           inkscape:connector-curvature="0"
           id="path1149"
           style="fill:#ffdc69;fill-opacity:1;fill-rule:nonzero;stroke:none"
           d="M 6646.2,1237.53 V 937.102 1237.53" />
        <path
           inkscape:connector-curvature="0"
           id="path1151"
           style="fill:#88d8fb;fill-opacity:1;fill-rule:nonzero;stroke:none"
           d="m 6736.72,1686.34 c 0,-50 -40.54,-90.53 -90.5,-90.53 -50,0 -90.53,40.53 -90.53,90.53 0,49.98 40.53,90.51 90.53,90.51 49.96,0 90.5,-40.53 90.5,-90.51" />
        <path
           inkscape:connector-curvature="0"
           id="path1153"
           style="fill:#484f59;fill-opacity:1;fill-rule:nonzero;stroke:none"
           d="m 6646.22,1761.85 c -41.65,0 -75.53,-33.87 -75.53,-75.51 0,-41.66 33.88,-75.53 75.53,-75.53 41.63,0 75.5,33.87 75.5,75.53 0,41.64 -33.87,75.51 -75.5,75.51 z m 0,-181.04 c -58.19,0 -105.53,47.35 -105.53,105.53 0,58.18 47.34,105.51 105.53,105.51 58.17,0 105.5,-47.33 105.5,-105.51 0,-58.18 -47.33,-105.53 -105.5,-105.53" />
        <path
           inkscape:connector-curvature="0"
           id="path1155"
           style="fill:#ffdc69;fill-opacity:1;fill-rule:nonzero;stroke:none"
           d="M 6646.2,1237.53 V 937.102 1237.53" />
        <path
           inkscape:connector-curvature="0"
           id="path1157"
           style="fill:#484f59;fill-opacity:1;fill-rule:nonzero;stroke:none"
           d="m 6661.2,937.102 h -30 v 300.428 h 30 V 937.102" />
        <path
           inkscape:connector-curvature="0"
           id="path1159"
           style="fill:#d5e962;fill-opacity:1;fill-rule:nonzero;stroke:none"
           d="M 6402.11,659.109 H 6131.86 V 785.09 h 270.25 V 659.109" />
        <path
           inkscape:connector-curvature="0"
           id="path1161"
           style="fill:#484f59;fill-opacity:1;fill-rule:nonzero;stroke:none"
           d="m 6146.86,674.109 h 240.25 v 95.981 h -240.25 z m 270.25,-30 H 6116.86 V 800.09 h 300.25 V 644.109" />
        <path
           inkscape:connector-curvature="0"
           id="path1163"
           style="fill:#ffc400;fill-opacity:1;fill-rule:nonzero;stroke:none"
           d="M 6782.92,659.109 H 6512.67 V 928.68 h 270.25 V 659.109" />
        <path
           inkscape:connector-curvature="0"
           id="path1165"
           style="fill:#484f59;fill-opacity:1;fill-rule:nonzero;stroke:none"
           d="m 6527.67,674.109 h 240.25 V 913.68 h -240.25 z m 270.25,-30 H 6497.67 V 943.68 h 300.25 V 644.109" />
        <path
           inkscape:connector-curvature="0"
           id="path1167"
           style="fill:#d5e962;fill-opacity:1;fill-rule:nonzero;stroke:none"
           d="m 7163.74,659.109 h -270.25 v 195.86 h 270.25 v -195.86" />
        <path
           inkscape:connector-curvature="0"
           id="path1169"
           style="fill:#484f59;fill-opacity:1;fill-rule:nonzero;stroke:none"
           d="m 6908.49,674.109 h 240.25 v 165.86 h -240.25 z m 270.25,-30 h -300.25 v 225.86 h 300.25 v -225.86" />
        <path
           inkscape:connector-curvature="0"
           id="path1171"
           style="fill:#81cdee;fill-opacity:1;fill-rule:nonzero;stroke:none"
           d="m 2183.7,1135.38 -63.42,39.73 123.83,197.79 52.24,219.67 72.81,-17.3 -55.1,-231.64 -130.36,-208.25" />
        <path
           inkscape:connector-curvature="0"
           id="path1173"
           style="fill:#484f59;fill-opacity:1;fill-rule:nonzero;stroke:none"
           d="m 2140.95,1179.88 38,-23.81 121.09,193.42 51.05,214.66 -43.61,10.35 -49.35,-207.46 z m 47.5,-65.16 -88.84,55.64 130.47,208.42 55.15,231.86 101.99,-24.24 -59.14,-248.65 -139.63,-223.03" />
        <path
           inkscape:connector-curvature="0"
           id="path1175"
           style="fill:#81cdee;fill-opacity:1;fill-rule:nonzero;stroke:none"
           d="m 2161.77,1608.9 -67.14,33.03 87.29,177.36 218.5,48.24 16.13,-73.07 -183.37,-40.5 -71.41,-145.06" />
        <path
           inkscape:connector-curvature="0"
           id="path1177"
           style="fill:#484f59;fill-opacity:1;fill-rule:nonzero;stroke:none"
           d="m 2114.72,1648.76 40.22,-19.78 67.96,138.08 175.77,38.83 -9.67,43.77 -196.81,-43.46 z m 53.89,-59.94 -94.06,46.27 97.09,197.3 240.19,53.03 22.6,-102.36 -190.98,-42.19 -74.84,-152.05" />
        <path
           inkscape:connector-curvature="0"
           id="path1179"
           style="fill:#88d8fb;fill-opacity:1;fill-rule:nonzero;stroke:none"
           d="m 2352.11,1604.46 c -2.15,9.75 -0.38,19.75 5.14,28.4 l 64.9,103.23 30.39,-137.66 200.95,44.39 -16.14,73.07 -127.87,-28.24 -30.26,136.99 -1.29,0.16 -63.35,39.82 -120.54,-191.72 c -16.13,-25.25 -21.47,-55.31 -14.99,-84.59 6.46,-29.27 23.94,-54.27 49.23,-70.41 l 115.46,-57.26 -55.1,-148.5 70.16,-26.05 78.56,211.77 -170.26,84.09 c -7.66,5.37 -12.95,13.3 -14.99,22.51" />
        <path
           inkscape:connector-curvature="0"
           id="path1181"
           style="fill:#484f59;fill-opacity:1;fill-rule:nonzero;stroke:none"
           d="m 2407.92,1320.99 42.03,-15.61 68.64,185.02 -160.1,79.26 c -10.73,7.54 -18.19,18.73 -21.02,31.56 -3.02,13.67 -0.49,27.78 7.14,39.71 l 84.31,134.1 35.04,-158.71 171.65,37.93 -9.67,43.77 -127.87,-28.24 -31.97,144.74 -46.81,29.42 -112.55,-179.03 c -14.04,-21.97 -18.65,-48 -13.05,-73.36 5.55,-25.11 20.45,-46.6 42,-60.58 l 126.81,-62.89 z m 59.72,-54.18 -98.28,36.48 55.62,149.91 -104.77,52.07 c -28.66,18.28 -48.49,46.62 -55.81,79.82 -7.34,33.18 -1.3,67.23 17,95.9 l 128.47,204.31 73.15,-45.99 8.54,-0.98 29.33,-132.79 127.88,28.24 22.6,-102.36 -230.24,-50.86 -25.74,116.58 -45.44,-72.26 c -3.41,-5.36 -4.5,-11.25 -3.19,-17.19 1.16,-5.22 3.96,-9.65 8.14,-12.85 l 181.23,-89.52 -88.49,-238.51" />
        <path
           inkscape:connector-curvature="0"
           id="path1183"
           style="fill:#88d8fb;fill-opacity:1;fill-rule:nonzero;stroke:none"
           d="m 2568.75,1925.75 c 3.27,-44.49 -30.12,-83.14 -74.56,-86.4 -44.45,-3.26 -83.11,30.11 -86.37,74.59 -3.27,44.45 30.1,83.12 74.57,86.36 44.44,3.29 83.1,-30.11 86.36,-74.55" />
        <path
           inkscape:connector-curvature="0"
           id="path1185"
           style="fill:#484f59;fill-opacity:1;fill-rule:nonzero;stroke:none"
           d="m 2488.41,1985.54 c -1.63,0 -3.27,-0.06 -4.92,-0.2 -17.51,-1.27 -33.47,-9.27 -44.93,-22.55 -11.47,-13.29 -17.07,-30.24 -15.78,-47.74 2.62,-35.78 34.01,-63.32 70.32,-60.74 36.12,2.65 63.34,34.22 60.7,70.35 -2.51,34.14 -31.23,60.88 -65.39,60.88 z m -0.21,-161.41 c -49.81,0 -91.69,38.97 -95.34,88.71 -1.88,25.49 6.29,50.2 22.99,69.54 16.7,19.35 39.95,31.03 65.45,32.89 52.57,4 98.59,-36.33 102.41,-88.42 3.86,-52.64 -35.8,-98.6 -88.42,-102.46 -2.37,-0.18 -4.74,-0.26 -7.09,-0.26" />
        <path
           inkscape:connector-curvature="0"
           id="path1187"
           style="fill:#e5e8ec;fill-opacity:1;fill-rule:nonzero;stroke:none"
           d="m 2813.29,1327.2 c 0,-41.27 -33.45,-74.73 -74.72,-74.73 -41.25,0 -74.7,33.46 -74.7,74.73 0,41.25 33.45,74.71 74.7,74.71 41.27,0 74.72,-33.46 74.72,-74.71 z m 126.86,-19.63 0.01,54.49 -32.5,6.96 c -1.65,6.7 -3.68,13.22 -6.08,19.57 l 24.4,22.05 -27.25,47.18 -33.67,-10.87 c -4.29,4.53 -8.79,8.86 -13.54,12.91 l 10.64,32.93 -47.18,27.26 -23.99,-26.56 c -5.84,1.83 -11.81,3.36 -17.89,4.59 l -7.28,33.96 h -54.49 l -7.27,-33.96 c -6.45,-1.29 -12.76,-2.99 -18.93,-4.98 l -22.38,24.74 -47.18,-27.22 9.97,-30.84 c -5.54,-4.73 -10.69,-9.83 -15.6,-15.2 l -29.34,9.47 -27.26,-47.16 21.73,-19.65 c -2.83,-7.74 -5.28,-15.61 -7.01,-23.81 l -26.72,-5.72 v -54.49 l 25.57,-5.47 c 1.56,-9.18 3.81,-18.09 6.74,-26.72 l -18.13,-16.37 27.24,-47.19 22.66,7.31 c 6.36,-7.52 13.33,-14.49 20.85,-20.82 l -6.92,-21.47 47.17,-27.26 15.52,17.18 c 9.31,-3.2 18.97,-5.58 28.92,-7.14 l 4.71,-22.05 h 54.49 l 5.05,23.57 c 9.48,2.03 18.63,4.88 27.47,8.4 l 16.07,-17.78 47.18,27.25 -8.23,25.47 c 6.39,6.02 12.32,12.42 17.75,19.3 l 25.45,-8.23 27.26,47.19 -22.26,20.12 c 2.14,7.42 3.72,15.02 4.89,22.77 l 29.36,6.29" />
        <path
           inkscape:connector-curvature="0"
           id="path1189"
           style="fill:#484f59;fill-opacity:1;fill-rule:nonzero;stroke:none"
           d="m 2738.57,1386.91 c -32.92,0 -59.7,-26.78 -59.7,-59.71 0,-32.93 26.78,-59.73 59.7,-59.73 32.93,0 59.72,26.8 59.72,59.73 0,32.93 -26.79,59.71 -59.72,59.71 z m 0,-149.44 c -49.46,0 -89.7,40.26 -89.7,89.73 0,49.47 40.24,89.71 89.7,89.71 49.47,0 89.72,-40.24 89.72,-89.71 0,-49.47 -40.25,-89.73 -89.72,-89.73 z m -10.76,-89.25 h 30.22 l 4.54,21.21 9.49,2.03 c 8.32,1.78 16.76,4.37 25.08,7.67 l 9.68,3.85 14.93,-16.52 26.18,15.13 -7.43,22.95 6.91,6.53 c 5.99,5.62 11.46,11.56 16.26,17.65 l 6.47,8.19 23.84,-7.7 15.13,26.19 -20.22,18.26 2.59,9.01 c 1.89,6.52 3.35,13.34 4.48,20.86 l 1.54,10.25 27.65,5.92 v 30.23 l -29.82,6.39 -2.24,9.12 c -1.49,6.06 -3.36,12.07 -5.54,17.83 l -3.63,9.59 23,20.77 -15.12,26.21 -31.12,-10.06 -6.5,6.85 c -4.22,4.44 -8.27,8.3 -12.38,11.8 l -7.63,6.5 9.99,30.94 -26.18,15.12 -22.3,-24.67 -9.16,2.85 c -5.36,1.68 -10.87,3.09 -16.4,4.2 l -9.63,1.95 -6.8,31.72 h -30.23 l -6.8,-31.74 -9.66,-1.93 c -5.61,-1.11 -11.25,-2.6 -17.27,-4.55 l -9.23,-2.97 -20.75,22.95 -26.18,-15.12 9.32,-28.8 -7.61,-6.51 c -4.74,-4.04 -9.41,-8.59 -14.27,-13.92 l -6.51,-7.11 -26.98,8.71 -15.12,-26.15 20.24,-18.31 -3.48,-9.51 c -2.9,-7.91 -5,-15.04 -6.43,-21.75 l -2.02,-9.52 -24.37,-5.23 v -30.24 l 23.66,-5.05 1.7,-10.02 c 1.41,-8.34 3.48,-16.55 6.15,-24.42 l 3.17,-9.33 -16.44,-14.87 15.11,-26.17 20.69,6.66 6.5,-7.67 c 5.82,-6.9 12.23,-13.31 19.05,-19.05 l 7.72,-6.48 -6.31,-19.51 26.18,-15.14 14.03,15.55 9.37,-3.25 c 8.42,-2.89 17.29,-5.07 26.36,-6.5 l 10.19,-1.6 z m 54.48,-30 h -78.75 l -5.16,24.14 c -3.93,0.84 -7.81,1.79 -11.64,2.89 l -17.22,-19.09 -68.17,39.42 7.65,23.67 c -2.84,2.68 -5.59,5.43 -8.27,8.26 l -24.9,-8.02 -39.36,68.18 20.02,18.08 c -0.87,3.11 -1.66,6.24 -2.38,9.4 l -27.77,5.94 v 78.75 l 29.39,6.29 c 0.6,2.16 1.25,4.37 1.96,6.62 l -23.4,21.15 39.38,68.14 31.92,-10.29 2.7,2.64 -10.72,33.16 68.18,39.36 24.17,-26.74 1.47,0.39 7.82,36.48 h 78.73 l 7.82,-36.48 0.36,-0.08 25.86,28.61 68.18,-39.37 -11.38,-35.24 0.44,-0.43 36.44,11.78 39.37,-68.2 -26.03,-23.52 0.71,-2.32 35.45,-7.6 -0.02,-78.75 -31.32,-6.7 c -0.36,-1.75 -0.73,-3.47 -1.12,-5.19 l 24.52,-22.15 -39.4,-68.18 -27.37,8.82 c -1.82,-2.05 -3.7,-4.08 -5.64,-6.09 l 9.12,-28.2 -68.18,-39.4 -17.42,19.28 c -3.47,-1.17 -6.95,-2.23 -10.43,-3.18 l -5.61,-26.23" />
        <path
           inkscape:connector-curvature="0"
           id="path1191"
           style="fill:#cdd5d7;fill-opacity:1;fill-rule:nonzero;stroke:none"
           d="m 2738.51,1226.44 c -55.54,0 -100.57,45.02 -100.57,100.58 0,55.55 45.03,100.59 100.57,100.59 55.54,0 100.56,-45.04 100.56,-100.59 0,-55.56 -45.02,-100.58 -100.56,-100.58 z m 0,227.48 c -70.09,0 -126.91,-56.8 -126.91,-126.9 0,-70.07 56.82,-126.91 126.91,-126.91 70.08,0 126.91,56.84 126.91,126.91 0,70.1 -56.83,126.9 -126.91,126.9" />
        <path
           inkscape:connector-curvature="0"
           id="path1193"
           style="fill:#d5e962;fill-opacity:1;fill-rule:nonzero;stroke:none"
           d="m 2388.34,1117.32 c -18.25,0 -33.06,14.78 -33.06,33.06 0,18.27 14.81,33.09 33.06,33.09 18.26,0 33.08,-14.82 33.08,-33.09 0,-18.28 -14.82,-33.06 -33.08,-33.06 z m 111.58,10.15 -0.02,42.17 -37.82,8.93 21.36,34.51 -29.82,29.82 -33.08,-20.47 -9.29,39.52 h -42.17 l -8.9,-37.84 -34.52,21.35 -29.83,-29.8 20.46,-33.05 -39.5,-9.32 v -42.18 l 37.84,-8.89 -21.37,-34.53 29.83,-29.81 33.05,20.43 9.3,-39.49 h 42.17 l 8.92,37.85 34.51,-21.38 29.81,29.84 -20.45,33.05 39.52,9.29" />
        <path
           inkscape:connector-curvature="0"
           id="path1195"
           style="fill:#484f59;fill-opacity:1;fill-rule:nonzero;stroke:none"
           d="m 2388.34,1168.47 c -9.95,0 -18.06,-8.11 -18.06,-18.09 0,-9.96 8.11,-18.06 18.06,-18.06 9.97,0 18.08,8.1 18.08,18.06 0,9.98 -8.11,18.09 -18.08,18.09 z m 0,-66.15 c -26.5,0 -48.06,21.56 -48.06,48.06 0,26.53 21.56,48.09 48.06,48.09 26.51,0 48.08,-21.56 48.08,-48.09 0,-26.5 -21.57,-48.06 -48.08,-48.06 z m -11.02,-48.5 h 18.41 l 6.2,26.29 22.5,9.32 24.4,-15.12 13.02,13.03 -14.2,22.95 9.32,22.5 27.94,6.56 v 18.42 l -26.28,6.21 -9.31,22.5 15.11,24.39 -13.02,13.03 -22.98,-14.22 -22.49,9.34 -6.57,27.93 h -18.41 l -6.18,-26.27 -22.49,-9.32 -24.42,15.1 -13.03,-13.01 14.21,-22.95 -9.31,-22.5 -27.95,-6.58 V 1143 l 26.27,-6.17 9.33,-22.5 -15.12,-24.43 13.02,-13.01 22.97,14.2 22.48,-9.34 z m 30.29,-30 h -42.17 l -14.6,11.56 -4.53,19.22 -15.34,-9.47 -18.49,2.15 -29.82,29.8 -2.16,18.5 10.4,16.82 -17.54,4.12 -11.57,14.59 v 42.18 l 11.55,14.59 19.23,4.53 -9.49,15.36 2.15,18.51 29.83,29.81 18.49,2.13 16.8,-10.38 4.13,17.54 14.6,11.57 h 42.17 l 14.6,-11.57 4.52,-19.22 15.36,9.5 18.49,-2.15 29.83,-29.83 2.15,-18.49 -10.41,-16.8 17.56,-4.14 11.55,-14.59 0.02,-42.17 -11.57,-14.61 -19.23,-4.53 9.49,-15.33 -2.14,-18.5 -29.82,-29.84 -18.51,-2.15 -16.79,10.41 -4.14,-17.56 -14.6,-11.56" />
        <path
           inkscape:connector-curvature="0"
           id="path1197"
           style="fill:#d5e962;fill-opacity:1;fill-rule:nonzero;stroke:none"
           d="m 4828.93,517.551 c 0,-9.961 -8.07,-18.012 -18.02,-18.012 l -610.41,0.34 c -9.96,0 -18.02,8.062 -18.02,18 l 0.48,827.801 c 0.02,9.96 8.08,18.02 18.04,18 l 610.42,-0.33 c 9.95,0 18,-8.06 18,-18.01 l -0.49,-827.789" />
        <path
           inkscape:connector-curvature="0"
           id="path1199"
           style="fill:#484f59;fill-opacity:1;fill-rule:nonzero;stroke:none"
           d="m 4200.99,1348.68 c -1.68,0 -3.02,-1.34 -3.03,-3.02 l -0.48,-827.781 c 0,-1.66 1.35,-3 3.02,-3 l 610.42,-0.34 c 1.65,0 3.01,1.352 3.01,3.012 l 0.49,827.809 c 0,1.64 -1.35,2.99 -3,2.99 z m 609.92,-864.141 -610.42,0.34 c -18.2,0 -33.01,14.801 -33.01,33 l 0.48,827.821 c 0.03,18.2 14.83,32.98 33,32.98 l 610.46,-0.33 c 18.19,0 33,-14.8 33,-33.01 l -0.49,-827.789 c 0,-18.199 -14.82,-33.012 -33.02,-33.012" />
        <path
           inkscape:connector-curvature="0"
           id="path1201"
           style="fill:#f7f8fc;fill-opacity:1;fill-rule:nonzero;stroke:none"
           d="m 4771.19,564.539 -526.59,0.301 0.4,744.72 526.59,-0.27 -0.4,-744.751" />
        <path
           inkscape:connector-curvature="0"
           id="path1203"
           style="fill:#484f59;fill-opacity:1;fill-rule:nonzero;stroke:none"
           d="m 4259.61,579.84 496.59,-0.281 0.38,714.751 -496.59,0.25 z m 526.57,-30.301 -556.59,0.32 0.42,774.721 556.58,-0.29 -0.41,-774.751" />
        <path
           inkscape:connector-curvature="0"
           id="path1205"
           style="fill:#b7bec0;fill-opacity:1;fill-rule:nonzero;stroke:none"
           d="m 4492.22,1436.57 c -8.02,0 -14.5,6.51 -14.5,14.52 0,8.02 6.51,14.51 14.53,14.51 8.01,0 14.51,-6.49 14.49,-14.51 0,-8.03 -6.5,-14.52 -14.52,-14.52 z m 34.56,-33.08 -14.37,24.86 c 6.29,5.59 10.33,13.65 10.35,22.74 0.01,16.85 -13.65,30.5 -30.51,30.52 -16.86,0 -30.53,-13.63 -30.54,-30.5 0,-9.09 4.03,-17.13 10.31,-22.74 l -14.36,-24.84 -34.61,-59.85 69.13,-0.03 69.11,-0.06 -34.51,59.9" />
        <path
           inkscape:connector-curvature="0"
           id="path1207"
           style="fill:#cdd5d7;fill-opacity:1;fill-rule:nonzero;stroke:none"
           d="m 4376.07,1288.57 0.08,118.04 64.69,-0.03 11.72,20.29 c -4.59,7.2 -7.1,15.6 -7.1,24.24 0.01,25.09 20.43,45.5 45.52,45.5 12.17,-0.02 23.61,-4.74 32.2,-13.34 8.6,-8.59 13.33,-20.02 13.32,-32.18 0,-8.66 -2.52,-17.05 -7.12,-24.28 l 11.7,-20.27 71.19,-0.04 -0.04,-118.07 -236.16,0.14" />
        <path
           inkscape:connector-curvature="0"
           id="path1209"
           style="fill:#484f59;fill-opacity:1;fill-rule:nonzero;stroke:none"
           d="m 4491.02,1511.61 h -0.04 c -33.35,0 -60.5,-27.13 -60.52,-60.48 0,-8.31 1.73,-16.43 4.98,-23.91 l -3.25,-5.63 -41.04,0.02 -29.99,0.02 -0.02,-30 -0.06,-88.06 -0.02,-30 30,-0.02 206.16,-0.12 30.01,-0.02 0.01,30.02 0.03,88.07 0.01,29.98 -29.99,0.02 -47.54,0.04 -3.25,5.62 c 3.26,7.48 5,15.63 5,23.93 0.01,16.15 -6.28,31.36 -17.71,42.79 -11.42,11.42 -26.61,17.71 -42.77,17.73 z m -0.05,-75.04 c 8.01,0 14.52,6.49 14.53,14.52 0,8 -6.5,14.51 -14.51,14.51 -8.02,0 -14.52,-6.49 -14.52,-14.51 -0.01,-8.01 6.49,-14.52 14.5,-14.52 z m 0.01,45.04 h 0.02 c 16.86,-0.02 30.51,-13.67 30.5,-30.52 0,-9.09 -4.04,-17.15 -10.33,-22.74 l 14.35,-24.86 6.89,-11.95 64.86,-0.04 -0.03,-88.07 -206.16,0.12 0.06,88.06 58.36,-0.03 6.91,11.95 14.36,24.86 c -6.28,5.59 -10.31,13.63 -10.31,22.72 0.01,16.87 13.68,30.5 30.52,30.5" />
        <path
           inkscape:connector-curvature="0"
           id="path1211"
           style="fill:#cdd5d7;fill-opacity:1;fill-rule:nonzero;stroke:none"
           d="m 4698.22,744.68 c 0,-59.469 -48.21,-107.68 -107.69,-107.68 -59.47,0 -107.68,48.211 -107.68,107.68 0,59.468 48.21,107.699 107.68,107.699 59.48,0 107.69,-48.231 107.69,-107.699" />
        <path
           inkscape:connector-curvature="0"
           id="path1213"
           style="fill:#484f59;fill-opacity:1;fill-rule:nonzero;stroke:none"
           d="m 4555.44,688.391 -21.21,21.211 91.38,91.367 21.21,-21.207 -91.38,-91.371" />
        <path
           inkscape:connector-curvature="0"
           id="path1215"
           style="fill:#484f59;fill-opacity:1;fill-rule:nonzero;stroke:none"
           d="m 4625.61,688.391 -91.38,91.39 21.22,21.207 91.37,-91.386 -21.21,-21.211" />
        <path
           inkscape:connector-curvature="0"
           id="path1217"
           style="fill:#484f59;fill-opacity:1;fill-rule:nonzero;stroke:none"
           d="m 4393.69,1116.5 c -25.88,0 -46.93,-21.04 -46.93,-46.9 0,-25.88 21.05,-46.93 46.93,-46.93 25.87,0 46.92,21.05 46.92,46.93 0,25.86 -21.05,46.9 -46.92,46.9 z m 0,-123.828 c -42.42,0 -76.93,34.508 -76.93,76.928 0,42.4 34.51,76.9 76.93,76.9 42.41,0 76.92,-34.5 76.92,-76.9 0,-42.42 -34.51,-76.928 -76.92,-76.928" />
        <path
           inkscape:connector-curvature="0"
           id="path1219"
           style="fill:#484f59;fill-opacity:1;fill-rule:nonzero;stroke:none"
           d="m 4674.41,1080.23 -65.05,65.06 -65.03,-65.06 -21.22,21.21 86.24,86.27 86.28,-86.27 -21.22,-21.21" />
        <path
           inkscape:connector-curvature="0"
           id="path1221"
           style="fill:#484f59;fill-opacity:1;fill-rule:nonzero;stroke:none"
           d="m 4303.45,802.281 v 30 c 161.54,0 292.96,129.61 292.96,288.899 0,9.85 -0.51,19.81 -1.51,29.57 l 29.85,3.05 c 1.1,-10.78 1.66,-21.76 1.66,-32.62 0,-175.84 -144.88,-318.899 -322.96,-318.899" />
        <path
           inkscape:connector-curvature="0"
           id="path1223"
           style="fill:#484f59;fill-opacity:1;fill-rule:nonzero;stroke:none"
           d="m 4912.4,673.859 -26.75,13.59 c 60.89,119.75 192.72,197.11 335.86,197.11 143.15,0 274.98,-77.36 335.86,-197.11 l -26.75,-13.59 c -55.81,109.789 -177.14,180.7 -309.11,180.7 -131.96,0 -253.29,-70.911 -309.11,-180.7" />
        <path
           inkscape:connector-curvature="0"
           id="path1225"
           style="fill:#f6fafb;fill-opacity:1;fill-rule:nonzero;stroke:none"
           d="m 5221.51,811.461 c -120.1,0 -223.54,-64.422 -270.69,-157.129 47.15,-92.742 150.59,-157.152 270.69,-157.152 120.11,0 223.55,64.41 270.69,157.152 -47.14,92.707 -150.58,157.129 -270.69,157.129" />
        <path
           inkscape:connector-curvature="0"
           id="path1227"
           style="fill:#484f59;fill-opacity:1;fill-rule:nonzero;stroke:none"
           d="m 4967.79,654.332 c 47.52,-86.602 146.2,-142.152 253.72,-142.152 107.53,0 206.21,55.55 253.72,142.152 -47.51,86.598 -146.19,142.129 -253.72,142.129 -107.52,0 -206.2,-55.531 -253.72,-142.129 z M 5221.51,482.18 c -121.48,0 -232.99,64.902 -284.06,165.351 l -3.46,6.801 3.46,6.797 c 51.08,100.453 162.58,165.332 284.06,165.332 121.5,0 232.99,-64.879 284.06,-165.332 l 3.45,-6.797 -3.45,-6.801 C 5454.51,547.082 5343.01,482.18 5221.51,482.18" />
        <path
           inkscape:connector-curvature="0"
           id="path1229"
           style="fill:#ffdc69;fill-opacity:1;fill-rule:nonzero;stroke:none"
           d="m 5221.51,652.859 -91.95,126.512 c 27.96,20.309 57.4,29.879 91.95,29.879 V 652.859" />
        <path
           inkscape:connector-curvature="0"
           id="path1231"
           style="fill:#484f59;fill-opacity:1;fill-rule:nonzero;stroke:none"
           d="m 5150.92,775.5 55.59,-76.48 v 94.55 c -20.08,-1.922 -38.21,-7.82 -55.59,-18.07 z m 70.6,-137.641 c -4.71,0 -9.26,2.231 -12.14,6.18 l -91.95,126.52 c -2.34,3.222 -3.31,7.23 -2.68,11.152 0.62,3.949 2.77,7.461 5.99,9.809 30.33,22.031 63.3,32.73 100.77,32.73 8.29,0 15,-6.719 15,-15 V 652.859 c 0,-6.5 -4.18,-12.257 -10.36,-14.269 -1.53,-0.488 -3.09,-0.731 -4.63,-0.731" />
        <path
           inkscape:connector-curvature="0"
           id="path1233"
           style="fill:#88d8fb;fill-opacity:1;fill-rule:nonzero;stroke:none"
           d="M 5221.51,652.859 V 809.25 c 86.4,0 156.4,-70 156.4,-156.391 0,-86.398 -70,-156.437 -156.4,-156.437 -86.41,0 -156.43,70.039 -156.43,156.437 0,51.801 22.55,96.082 64.48,126.512 l 91.95,-126.512" />
        <path
           inkscape:connector-curvature="0"
           id="path1235"
           style="fill:#484f59;fill-opacity:1;fill-rule:nonzero;stroke:none"
           d="m 5126.65,757.859 c -30.53,-26.929 -46.57,-62.949 -46.57,-105 0,-77.98 63.45,-141.437 141.43,-141.437 77.97,0 141.4,63.457 141.4,141.437 0,72.891 -55.46,133.09 -126.4,140.61 v -140.61 c 0,-6.5 -4.18,-12.257 -10.36,-14.269 -6.18,-2.008 -12.95,0.191 -16.77,5.449 z m 94.86,-276.437 c -94.53,0 -171.43,76.91 -171.43,171.437 0,56.332 25.1,105.59 70.67,138.661 6.7,4.859 16.08,3.378 20.94,-3.321 l 64.82,-89.179 v 110.23 c 0,8.281 6.72,15 15,15 94.51,0 171.4,-76.871 171.4,-171.391 0,-94.527 -76.89,-171.437 -171.4,-171.437" />
        <path
           inkscape:connector-curvature="0"
           id="path1237"
           style="fill:#d5e962;fill-opacity:1;fill-rule:nonzero;stroke:none"
           d="M 5221.49,652.859 5370.24,604.5 c 26.7,82.148 -18.25,170.41 -100.42,197.109 -16.42,5.321 -31.06,7.641 -48.33,7.641 V 652.859" />
        <path
           inkscape:connector-curvature="0"
           id="path1239"
           style="fill:#484f59;fill-opacity:1;fill-rule:nonzero;stroke:none"
           d="m 5236.49,663.762 123.38,-40.114 c 6.73,31.582 2.48,64.231 -12.38,93.391 -17.15,33.68 -46.38,58.641 -82.3,70.32 -9.96,3.223 -19.08,5.211 -28.7,6.192 z M 5370.24,589.5 c -1.56,0 -3.12,0.262 -4.63,0.75 l -148.75,48.34 c -6.18,2.012 -10.37,7.769 -10.37,14.269 V 809.25 c 0,8.281 6.72,15 15,15 18.74,0 35.07,-2.578 52.95,-8.359 43.57,-14.161 79,-44.411 99.78,-85.231 20.79,-40.801 24.44,-87.25 10.29,-130.781 -1.23,-3.789 -3.91,-6.938 -7.46,-8.731 -2.13,-1.097 -4.46,-1.648 -6.81,-1.648" />
        <path
           inkscape:connector-curvature="0"
           id="path1241"
           style="fill:#d5e962;fill-opacity:1;fill-rule:nonzero;stroke:none"
           d="m 1958.57,1567.61 h -561.55 v 126.68 h 561.55 v -126.68" />
        <path
           inkscape:connector-curvature="0"
           id="path1243"
           style="fill:#484f59;fill-opacity:1;fill-rule:nonzero;stroke:none"
           d="m 1412.02,1582.61 h 531.55 v 96.68 h -531.55 z m 561.55,-30 h -591.55 v 156.68 h 591.55 v -156.68" />
        <path
           inkscape:connector-curvature="0"
           id="path1245"
           style="fill:#484f59;fill-opacity:1;fill-rule:nonzero;stroke:none"
           d="m 1908.82,1228.41 h -30 v 82.48 h -402.05 v -82.48 h -30 v 112.48 h 462.05 v -112.48" />
        <path
           inkscape:connector-curvature="0"
           id="path1247"
           style="fill:#88d8fb;fill-opacity:1;fill-rule:nonzero;stroke:none"
           d="m 1763.4,1381.69 h -366.38 v 126.7 h 366.38 v -126.7" />
        <path
           inkscape:connector-curvature="0"
           id="path1249"
           style="fill:#484f59;fill-opacity:1;fill-rule:nonzero;stroke:none"
           d="m 1412.02,1396.69 h 336.38 v 96.7 h -336.38 z m 366.38,-30 h -396.38 v 156.7 h 396.38 v -156.7" />
        <path
           inkscape:connector-curvature="0"
           id="path1251"
           style="fill:#cdd5d7;fill-opacity:1;fill-rule:nonzero;stroke:none"
           d="m 1958.57,1381.69 h -126.69 v 126.7 h 126.69 v -126.7" />
        <path
           inkscape:connector-curvature="0"
           id="path1253"
           style="fill:#484f59;fill-opacity:1;fill-rule:nonzero;stroke:none"
           d="m 1846.88,1396.69 h 96.69 v 96.7 h -96.69 z m 126.69,-30 h -156.69 v 156.7 h 156.69 v -156.7" />
        <path
           inkscape:connector-curvature="0"
           id="path1255"
           style="fill:#d5e962;fill-opacity:1;fill-rule:nonzero;stroke:none"
           d="m 1741.14,1138.74 h -126.7 v 126.7 h 126.7 v -126.7" />
        <path
           inkscape:connector-curvature="0"
           id="path1257"
           style="fill:#484f59;fill-opacity:1;fill-rule:nonzero;stroke:none"
           d="m 1629.44,1153.74 h 96.7 v 96.7 h -96.7 z m 126.7,-30 h -156.7 v 156.7 h 156.7 v -156.7" />
        <path
           inkscape:connector-curvature="0"
           id="path1259"
           style="fill:#88d8fb;fill-opacity:1;fill-rule:nonzero;stroke:none"
           d="m 1958.57,1138.74 h -126.69 v 126.7 h 126.69 v -126.7" />
        <path
           inkscape:connector-curvature="0"
           id="path1261"
           style="fill:#484f59;fill-opacity:1;fill-rule:nonzero;stroke:none"
           d="m 1846.88,1153.74 h 96.69 v 96.7 h -96.69 z m 126.69,-30 h -156.69 v 156.7 h 156.69 v -156.7" />
        <path
           inkscape:connector-curvature="0"
           id="path1263"
           style="fill:#ffdc69;fill-opacity:1;fill-rule:nonzero;stroke:none"
           d="m 1523.71,1138.74 h -126.69 v 126.7 h 126.69 v -126.7" />
        <path
           inkscape:connector-curvature="0"
           id="path1265"
           style="fill:#484f59;fill-opacity:1;fill-rule:nonzero;stroke:none"
           d="m 1412.02,1153.74 h 96.69 v 96.7 h -96.69 z m 126.69,-30 h -156.69 v 156.7 h 156.69 v -156.7" />
        <path
           inkscape:connector-curvature="0"
           id="path1267"
           style="fill:#484f59;fill-opacity:1;fill-rule:nonzero;stroke:none"
           d="m 1692.44,1507.16 h -30 v 61.41 h 30 v -61.41" />
        <path
           inkscape:connector-curvature="0"
           id="path1269"
           style="fill:#484f59;fill-opacity:1;fill-rule:nonzero;stroke:none"
           d="m 1908.82,1507.16 h -30 v 61.41 h 30 v -61.41" />
        <path
           inkscape:connector-curvature="0"
           id="path1271"
           style="fill:#484f59;fill-opacity:1;fill-rule:nonzero;stroke:none"
           d="m 1692.44,1267.4 h -30 v 111.11 h 30 V 1267.4" />
        <path
           inkscape:connector-curvature="0"
           id="path1273"
           style="fill:#ffc400;fill-opacity:1;fill-rule:nonzero;stroke:none"
           d="m 5119.58,1801.14 c 0,-108.24 -87.76,-196.05 -196.06,-196.05 -108.29,0 -196.03,87.81 -196.03,196.05 0,108.23 87.74,196.02 196.03,196.02 108.3,0 196.06,-87.79 196.06,-196.02" />
        <path
           inkscape:connector-curvature="0"
           id="path1275"
           style="fill:#484f59;fill-opacity:1;fill-rule:nonzero;stroke:none"
           d="m 4923.52,1982.16 c -99.82,0 -181.03,-81.21 -181.03,-181.02 0,-99.82 81.21,-181.05 181.03,-181.05 99.83,0 181.06,81.23 181.06,181.05 0,99.81 -81.23,181.02 -181.06,181.02 z m 0,-392.07 c -116.36,0 -211.03,94.69 -211.03,211.05 0,116.35 94.67,211.02 211.03,211.02 116.38,0 211.06,-94.67 211.06,-211.02 0,-116.36 -94.68,-211.05 -211.06,-211.05" />
        <path
           inkscape:connector-curvature="0"
           id="path1277"
           style="fill:#ffdc69;fill-opacity:1;fill-rule:nonzero;stroke:none"
           d="m 5056.83,1801.14 c 0,-73.65 -59.67,-133.3 -133.31,-133.3 -73.63,0 -133.32,59.65 -133.32,133.3 0,73.62 59.69,133.27 133.32,133.27 73.64,0 133.31,-59.65 133.31,-133.27" />
        <path
           inkscape:connector-curvature="0"
           id="path1279"
           style="fill:#484f59;fill-opacity:1;fill-rule:nonzero;stroke:none"
           d="m 4938.25,1736.79 h -30 v 110.51 l -24.95,-25.9 -21.6,20.82 50.74,52.67 25.81,-10.41 v -147.69" />
        <path
           inkscape:connector-curvature="0"
           id="path1281"
           style="fill:#484f59;fill-opacity:1;fill-rule:nonzero;stroke:none"
           d="m 4946.77,1722.3 h -47.82 v 30 h 47.82 v -30" />
        <path
           inkscape:connector-curvature="0"
           id="path1283"
           style="fill:#484f59;fill-opacity:1;fill-rule:nonzero;stroke:none"
           d="m 3909.57,2058.16 -29.99,0.64 1.71,78.71 30,-0.64 -1.72,-78.71" />
        <path
           inkscape:connector-curvature="0"
           id="path1285"
           style="fill:#484f59;fill-opacity:1;fill-rule:nonzero;stroke:none"
           d="m 3729.64,2011.01 -37.87,69.02 26.3,14.43 37.87,-69.02 -26.3,-14.43" />
        <path
           inkscape:connector-curvature="0"
           id="path1287"
           style="fill:#484f59;fill-opacity:1;fill-rule:nonzero;stroke:none"
           d="m 3623.68,1894.62 -67.31,40.84 15.57,25.65 67.3,-40.84 -15.56,-25.65" />
        <path
           inkscape:connector-curvature="0"
           id="path1289"
           style="fill:#484f59;fill-opacity:1;fill-rule:nonzero;stroke:none"
           d="m 4164.12,1892.98 -14.43,26.31 69.03,37.89 14.43,-26.31 -69.03,-37.89" />
        <path
           inkscape:connector-curvature="0"
           id="path1291"
           style="fill:#484f59;fill-opacity:1;fill-rule:nonzero;stroke:none"
           d="m 4058.98,2009.66 -25.65,15.57 40.83,67.32 25.65,-15.57 -40.83,-67.32" />
        <path
           inkscape:connector-curvature="0"
           id="path1293"
           style="fill:#ffc400;fill-opacity:1;fill-rule:nonzero;stroke:none"
           d="m 6027.02,1688.68 h -98.41 v 193.68 h 98.41 z m 50.79,-6.32 v 206.36 c 0,24.53 -19.89,44.46 -44.47,44.46 h -111.1 c -24.56,0 -44.44,-19.93 -44.44,-44.46 v -77.77 h -373.53 -50.79 -34.93 -50.78 -23.85 v -25.41 -25.39 h 23.85 v -57.17 -34.9 h 25.41 25.37 v 34.9 h 34.93 v -34.9 h 25.41 25.38 v 92.07 h 373.53 v -77.79 c 0,-24.56 19.88,-44.46 44.44,-44.46 h 111.1 c 24.58,0 44.47,19.9 44.47,44.46" />
        <path
           inkscape:connector-curvature="0"
           id="path1295"
           style="fill:#484f59;fill-opacity:1;fill-rule:nonzero;stroke:none"
           d="m 5943.61,1703.68 h 68.41 v 163.68 h -68.41 z m 98.41,-30 h -128.41 v 223.68 h 128.41 z m -552.75,101.47 h 403.53 v -92.79 c 0,-16.23 13.21,-29.46 29.44,-29.46 h 111.1 c 16.25,0 29.47,13.23 29.47,29.46 v 206.36 c 0,16.25 -13.22,29.46 -29.47,29.46 h -111.1 c -16.23,0 -29.44,-13.21 -29.44,-29.46 v -92.77 h -533.88 v -20.8 h 23.85 v -92.07 h 20.78 v 34.9 h 64.93 v -34.9 h 20.79 z m 544.07,-152.25 h -111.1 c -32.78,0 -59.44,26.68 -59.44,59.46 v 62.79 h -343.53 v -92.07 h -80.79 v 34.9 h -4.93 v -34.9 h -80.78 v 92.07 h -23.85 v 80.8 h 533.88 v 62.77 c 0,32.78 26.66,59.46 59.44,59.46 h 111.1 c 32.79,0 59.47,-26.68 59.47,-59.46 v -206.36 c 0,-32.78 -26.68,-59.46 -59.47,-59.46" />
        <path
           inkscape:connector-curvature="0"
           id="path1297"
           style="fill:#ffc400;fill-opacity:1;fill-rule:nonzero;stroke:none"
           d="m 5453.48,1668.08 v 102.17 -102.17" />
        <path
           inkscape:connector-curvature="0"
           id="path1299"
           style="fill:#484f59;fill-opacity:1;fill-rule:nonzero;stroke:none"
           d="m 5468.48,1668.08 h -30 v 102.17 h 30 v -102.17" />
        <path
           inkscape:connector-curvature="0"
           id="path1301"
           style="fill:#484f59;fill-opacity:1;fill-rule:nonzero;stroke:none"
           d="m 5445.93,1867.75 -27.48,12.05 58.24,132.81 h 87.69 v -30 h -68.09 l -50.36,-114.86" />
        <path
           inkscape:connector-curvature="0"
           id="path1303"
           style="fill:#484f59;fill-opacity:1;fill-rule:nonzero;stroke:none"
           d="m 5675.69,1982.61 h -77.89 v 30 h 77.89 v -30" />
      </g>
    </g>
  </g>
</svg>
