<?xml version="1.0" encoding="UTF-8" standalone="no"?>
<!-- Created with Inkscape (http://www.inkscape.org/) -->

<svg
   xmlns:dc="http://purl.org/dc/elements/1.1/"
   xmlns:cc="http://creativecommons.org/ns#"
   xmlns:rdf="http://www.w3.org/1999/02/22-rdf-syntax-ns#"
   xmlns:svg="http://www.w3.org/2000/svg"
   xmlns="http://www.w3.org/2000/svg"
   xmlns:sodipodi="http://sodipodi.sourceforge.net/DTD/sodipodi-0.dtd"
   xmlns:inkscape="http://www.inkscape.org/namespaces/inkscape"
   version="1.1"
   id="svg2"
   xml:space="preserve"
   width="1076"
   height="435"
   viewBox="0 0 1076 435"
   sodipodi:docname="explore.svg"
   inkscape:version="0.92.3 (2405546, 2018-03-11)"><metadata
     id="metadata8"><rdf:RDF><cc:Work
         rdf:about=""><dc:format>image/svg+xml</dc:format><dc:type
           rdf:resource="http://purl.org/dc/dcmitype/StillImage" /><dc:title></dc:title></cc:Work></rdf:RDF></metadata><defs
     id="defs6"><clipPath
       clipPathUnits="userSpaceOnUse"
       id="clipPath48"><path
         d="m 6049.48,6273.08 h -541.54 l -165.3,997.13 h 282.11 c 75.59,-112.03 180.12,-202.94 302.86,-261.98 l 121.87,-735.15"
         id="path46"
         inkscape:connector-curvature="0" /></clipPath><clipPath
       clipPathUnits="userSpaceOnUse"
       id="clipPath60"><path
         d="m 5927.61,7008.23 c -122.74,59.04 -227.27,149.95 -302.86,261.98 h 259.43 l 43.43,-261.98"
         id="path58"
         inkscape:connector-curvature="0" /></clipPath></defs><sodipodi:namedview
     pagecolor="#ffffff"
     bordercolor="#666666"
     borderopacity="1"
     objecttolerance="10"
     gridtolerance="10"
     guidetolerance="10"
     inkscape:pageopacity="0"
     inkscape:pageshadow="2"
     inkscape:window-width="1920"
     inkscape:window-height="1001"
     id="namedview4"
     showgrid="false"
     inkscape:pagecheckerboard="true"
     inkscape:zoom="0.834386"
     inkscape:cx="449.25625"
     inkscape:cy="172.90528"
     inkscape:window-x="-9"
     inkscape:window-y="-9"
     inkscape:window-maximized="1"
     inkscape:current-layer="g10" /><g
     id="g10"
     inkscape:groupmode="layer"
     inkscape:label="ink_ext_XXXXXX"
     transform="matrix(1.3333333,0,0,-1.3333333,0,435)"><g
       id="g42"
       transform="scale(0.1)"><g
         clip-path="url(#clipPath48)"
         id="g44"><g
           transform="matrix(721.2,0,0,1013.2,5336.9,6263.9)"
           id="g50" /></g></g><g
       id="g54"
       transform="scale(0.1)"><g
         clip-path="url(#clipPath60)"
         id="g56"><g
           transform="matrix(317.2,0,0,274.2,5615.9,7002.9)"
           id="g62" /></g></g><g
       id="g2057"
       transform="matrix(1.000093,0,0,1,-114.10461,-137.88)"><path
         d="m 840.462,326.586 c 0,-29.823 -24.176,-54 -54,-54 -29.823,0 -54,24.177 -54,54 0,29.823 24.177,54 54,54 29.824,0 54,-24.177 54,-54"
         style="fill:#ffd23d;fill-opacity:1;fill-rule:nonzero;stroke:none;stroke-width:0.1"
         id="path360"
         inkscape:connector-curvature="0" /><path
         d="m 916.463,286.586 c 0,-9.941 -8.06,-18 -18,-18 -9.942,0 -18,8.059 -18,18 0,9.941 8.058,18 18,18 9.94,0 18,-8.059 18,-18"
         style="fill:#ffd23d;fill-opacity:1;fill-rule:nonzero;stroke:none;stroke-width:0.1"
         id="path362"
         inkscape:connector-curvature="0" /><path
         d="m 747.963,220.586 c -19.023,0 -34.5,-15.477 -34.5,-34.496 0,-19.03 15.477,-34.5 34.5,-34.5 19.023,0 34.5,15.47 34.5,34.5 0,19.019 -15.477,34.496 -34.5,34.496 z m 0,-72.996 c -21.229,0 -38.5,17.27 -38.5,38.5 0,21.224 17.271,38.496 38.5,38.496 21.229,0 38.5,-17.272 38.5,-38.496 0,-21.23 -17.271,-38.5 -38.5,-38.5"
         style="fill:#282d33;fill-opacity:1;fill-rule:nonzero;stroke:none;stroke-width:0.1"
         id="path364"
         inkscape:connector-curvature="0" /><path
         d="m 553.272,236.056 h -21.805 v 15.724 h 21.805 v -15.724"
         style="fill:#ffd23d;fill-opacity:1;fill-rule:nonzero;stroke:none;stroke-width:0.1"
         id="path366"
         inkscape:connector-curvature="0" /><path
         d="m 518.955,236.056 h -21.807 v 15.724 h 21.807 v -15.724"
         style="fill:#ffd23d;fill-opacity:1;fill-rule:nonzero;stroke:none;stroke-width:0.1"
         id="path368"
         inkscape:connector-curvature="0" /><path
         d="m 587.599,236.056 h -21.817 v 63.792 h 21.817 v -63.792"
         style="fill:#ffd23d;fill-opacity:1;fill-rule:nonzero;stroke:none;stroke-width:0.1"
         id="path370"
         inkscape:connector-curvature="0" /><path
         d="m 484.641,236.056 h -21.818 v 21.966 h 21.818 v -21.966"
         style="fill:#ffd23d;fill-opacity:1;fill-rule:nonzero;stroke:none;stroke-width:0.1"
         id="path372"
         inkscape:connector-curvature="0" /><path
         d="m 450.322,236.056 h -21.816 v 33.468 h 21.816 v -33.468"
         style="fill:#ffd23d;fill-opacity:1;fill-rule:nonzero;stroke:none;stroke-width:0.1"
         id="path374"
         inkscape:connector-curvature="0" /><path
         d="m 416.003,236.056 h -21.817 v 13.602 h 21.817 v -13.602"
         style="fill:#ffd23d;fill-opacity:1;fill-rule:nonzero;stroke:none;stroke-width:0.1"
         id="path376"
         inkscape:connector-curvature="0" /><path
         d="m 621.918,236.056 h -21.816 v 46.526 h 21.816 v -46.526"
         style="fill:#ffd23d;fill-opacity:1;fill-rule:nonzero;stroke:none;stroke-width:0.1"
         id="path378"
         inkscape:connector-curvature="0" /><path
         d="m 656.232,236.056 h -21.807 v 131.915 h 21.807 V 236.056"
         style="fill:#ffd23d;fill-opacity:1;fill-rule:nonzero;stroke:none;stroke-width:0.1"
         id="path380"
         inkscape:connector-curvature="0" /><path
         d="m 664.954,405.956 h -40.152 c -1.609,0 -2.911,-1.302 -2.911,-2.91 v -16.677 c 0,-1.611 1.302,-2.908 2.911,-2.908 h 16.111 l 1.065,-1.847 2.895,-5.011 2.899,5.011 1.063,1.847 h 16.119 c 1.598,0 2.908,1.297 2.908,2.908 v 16.677 c 0,1.608 -1.31,2.91 -2.908,2.91"
         style="fill:#84dbff;fill-opacity:1;fill-rule:nonzero;stroke:none;stroke-width:0.1"
         id="path382"
         inkscape:connector-curvature="0" /><path
         d="m 655.709,392.557 h -21.66 v 4 h 21.66 v -4"
         style="fill:#282d33;fill-opacity:1;fill-rule:nonzero;stroke:none;stroke-width:0.1"
         id="path384"
         inkscape:connector-curvature="0" /><path
         d="m 680.503,234.056 h -80.401 v 4 h 80.401 v -4"
         style="fill:#282d33;fill-opacity:1;fill-rule:nonzero;stroke:none;stroke-width:0.1"
         id="path386"
         inkscape:connector-curvature="0" /><path
         d="M 484.641,234.056 H 365.956 v 4 h 118.685 v -4"
         style="fill:#282d33;fill-opacity:1;fill-rule:nonzero;stroke:none;stroke-width:0.1"
         id="path388"
         inkscape:connector-curvature="0" /><path
         d="m 733.852,322.156 c -0.972,1.389 -2.361,2.222 -2.916,2.5 -3.196,1.806 -6.806,1.945 -10.416,1.945 h -12.638 v -22.777 h 12.915 c 5.694,0 12.083,0.695 14.305,7.083 0.137,0.556 0.694,2.362 0.694,4.305 0,2.362 -0.694,5 -1.944,6.944 z m 2.083,-73.049 -19.027,34.58 h -9.026 v -34.58 h -31.109 v 98.047 h 53.051 c 2.777,0 5.695,-0.138 8.472,-0.417 4.305,-0.417 16.804,-1.527 23.887,-13.332 1.667,-2.917 4.583,-9.027 4.583,-17.636 0,-9.306 -3.612,-17.777 -11.528,-23.054 -2.083,-1.39 -3.887,-2.223 -8.61,-4.028 l 24.026,-39.58 h -34.719"
         style="fill:#84dbff;fill-opacity:1;fill-rule:nonzero;stroke:none;stroke-width:0.1"
         id="path390"
         inkscape:connector-curvature="0" /><path
         d="m 775.101,249.107 v 98.047 h 77.631 v -21.526 h -46.523 v -14.581 h 43.468 V 289.798 H 806.07 v -19.443 h 50.829 v -21.248 h -81.798"
         style="fill:#84dbff;fill-opacity:1;fill-rule:nonzero;stroke:none;stroke-width:0.1"
         id="path392"
         inkscape:connector-curvature="0" /><path
         d="m 680.206,345.656 c -1.922,0 -3.485,-1.563 -3.485,-3.486 v -45.489 c 1.041,0.55 2.227,0.862 3.485,0.862 h 26.037 v 48.113 z m -3.485,-55.597 h -4 v 52.111 c 0,4.128 3.358,7.486 7.485,7.486 h 30.037 v -56.113 h -30.037 c -1.922,0 -3.485,-1.564 -3.485,-3.484"
         style="fill:#282d33;fill-opacity:1;fill-rule:nonzero;stroke:none;stroke-width:0.1"
         id="path394"
         inkscape:connector-curvature="0" /><path
         d="m 677.025,290.059 h -4 c 0,1.92 -1.564,3.484 -3.486,3.484 h -18.014 v 4 h 18.014 c 1.258,0 2.445,-0.312 3.486,-0.862 v 45.489 c 0,1.923 -1.564,3.486 -3.486,3.486 h -26.036 v -8.933 h -4 v 12.933 h 30.036 c 4.128,0 7.486,-3.358 7.486,-7.486 v -52.111"
         style="fill:#282d33;fill-opacity:1;fill-rule:nonzero;stroke:none;stroke-width:0.1"
         id="path396"
         inkscape:connector-curvature="0" /><path
         d="m 184.995,249.107 v 98.047 h 77.632 v -21.526 h -46.523 v -14.581 h 43.468 v -21.249 h -43.608 v -19.443 h 50.83 v -21.248 h -81.799"
         style="fill:#84dbff;fill-opacity:1;fill-rule:nonzero;stroke:none;stroke-width:0.1"
         id="path398"
         inkscape:connector-curvature="0" /><path
         d="m 347.762,249.107 -21.387,35.274 -21.665,-35.274 h -36.386 l 37.913,52.634 -31.802,45.413 h 36.385 l 15.555,-26.942 15.832,26.942 h 35.413 l -30.969,-45.274 37.635,-52.773 h -36.524"
         style="fill:#84dbff;fill-opacity:1;fill-rule:nonzero;stroke:none;stroke-width:0.1"
         id="path400"
         inkscape:connector-curvature="0" /><path
         d="m 450.256,321.046 c -3.055,5.555 -9.582,5.555 -11.249,5.555 h -17.499 v -24.998 h 17.638 c 0.417,0 3.472,0.138 5.555,0.834 2.778,0.971 7.083,4.026 7.083,11.803 0,1.111 0,4.028 -1.528,6.806 z m 29.998,-19.86 c -1.25,-3.332 -6.25,-13.61 -17.083,-17.637 -5.832,-2.223 -11.665,-2.5 -17.775,-2.5 H 421.508 V 249.107 H 390.4 v 98.047 h 55.968 c 9.582,0 18.47,-0.695 26.108,-7.36 9.861,-8.472 10.138,-20.276 10.138,-24.582 0,-1.943 -0.138,-8.193 -2.36,-14.026"
         style="fill:#84dbff;fill-opacity:1;fill-rule:nonzero;stroke:none;stroke-width:0.1"
         id="path402"
         inkscape:connector-curvature="0" /><path
         d="m 737.043,310.426 -3.883,0.963 0.079,0.3 c 0.181,0.677 0.557,2.085 0.557,3.523 0,2.056 -0.623,4.302 -1.627,5.862 -0.762,1.088 -1.992,1.725 -2.129,1.794 l -0.088,0.047 c -2.755,1.557 -6.034,1.686 -9.432,1.686 v 4 c 3.781,0 7.771,-0.169 11.358,-2.18 0.582,-0.298 2.34,-1.3 3.612,-3.118 1.46,-2.269 2.306,-5.269 2.306,-8.091 0,-1.962 -0.485,-3.778 -0.692,-4.555 z m 19.305,-19.375 -2.219,3.328 c 6.859,4.573 10.637,12.169 10.637,21.39 0,7.509 -2.349,13.196 -4.32,16.644 -6.481,10.8 -17.921,11.906 -22.228,12.322 l -0.115,0.012 c -2.664,0.267 -5.524,0.407 -8.279,0.407 v 4 c 2.886,0 5.884,-0.147 8.671,-0.426 l 0.108,-0.011 c 4.391,-0.425 17.755,-1.716 25.295,-14.282 3.192,-5.585 4.868,-12.028 4.868,-18.666 0,-10.601 -4.411,-19.379 -12.418,-24.718 z m -46.466,-43.944 h -33.109 v 4 h 29.109 v 32.58 h 4 v -36.58"
         style="fill:#282d33;fill-opacity:1;fill-rule:nonzero;stroke:none;stroke-width:0.1"
         id="path404"
         inkscape:connector-curvature="0" /><path
         d="m 849.677,309.047 h -43.468 v 4 h 43.468 z m 7.222,-40.692 H 806.07 v 4 h 50.829 z m -79.798,-19.248 h -4 v 98.047 h 4 v -98.047"
         style="fill:#282d33;fill-opacity:1;fill-rule:nonzero;stroke:none;stroke-width:0.1"
         id="path406"
         inkscape:connector-curvature="0" /><path
         d="m 439.146,299.603 h -17.638 v 4 h 17.638 c 0.359,0 3.148,0.138 4.922,0.731 1.7,0.595 5.716,2.77 5.716,9.906 0,0.961 0,3.514 -1.28,5.842 -1.649,2.998 -4.845,4.519 -9.497,4.519 v 4 c 7.75,0 11.348,-3.584 13.001,-6.591 1.776,-3.229 1.776,-6.528 1.776,-7.77 0,-9.969 -6.446,-13 -8.422,-13.691 -2.625,-0.877 -6.183,-0.946 -6.216,-0.946 z m -15.638,-50.496 h -4 v 33.942 h 25.888 c 5.488,0 11.327,0.182 17.063,2.369 l 1.424,-3.738 c -6.371,-2.428 -12.626,-2.631 -18.487,-2.631 h -21.888 v -29.942"
         style="fill:#282d33;fill-opacity:1;fill-rule:nonzero;stroke:none;stroke-width:0.1"
         id="path408"
         inkscape:connector-curvature="0" /><path
         d="m 488.728,249.107 v 98.047 h 30.969 v -73.327 h 37.913 v -24.72 h -68.882"
         style="fill:#84dbff;fill-opacity:1;fill-rule:nonzero;stroke:none;stroke-width:0.1"
         id="path410"
         inkscape:connector-curvature="0" /><path
         d="m 625.106,323.128 c -4.445,2.64 -9.027,2.916 -10.832,2.916 -2.361,0 -9.443,-0.416 -14.582,-5.832 -3.473,-3.61 -7.083,-10.554 -7.083,-22.081 0,-1.806 -0.138,-13.194 5.416,-20.277 1.806,-2.221 3.889,-3.887 6.527,-5.138 1.945,-0.833 5,-1.945 9.722,-1.945 5.833,0 10.415,1.667 14.304,6.112 3.75,4.026 6.944,10.416 6.944,22.22 0,2.638 0.417,17.499 -10.416,24.025 z m 26.665,-63.05 c -13.888,-13.887 -31.803,-14.165 -38.053,-14.165 -6.249,0 -24.442,0.278 -37.913,14.026 -9.582,9.583 -14.304,23.887 -14.304,38.192 0,6.526 1.111,24.997 14.582,38.469 6.111,5.971 17.776,14.165 38.191,14.165 6.387,0 23.747,-0.139 37.358,-13.471 5.833,-5.694 15.138,-17.776 15.138,-38.33 0,-5.972 -0.973,-24.859 -14.999,-38.886"
         style="fill:#84dbff;fill-opacity:1;fill-rule:nonzero;stroke:none;stroke-width:0.1"
         id="path412"
         inkscape:connector-curvature="0" /><path
         d="m 215.23,381.382 h -13.233 v 4 h 13.233 v -4"
         style="fill:#282d33;fill-opacity:1;fill-rule:nonzero;stroke:none;stroke-width:0.1"
         id="path414"
         inkscape:connector-curvature="0" /><path
         d="m 351.181,220.599 h -4 v 5.217 h 4 v -5.217"
         style="fill:#282d33;fill-opacity:1;fill-rule:nonzero;stroke:none;stroke-width:0.1"
         id="path416"
         inkscape:connector-curvature="0" /><path
         d="m 339.963,214.388 -4.518,2.611 2.001,3.463 4.519,-2.611 -2.002,-3.463"
         style="fill:#282d33;fill-opacity:1;fill-rule:nonzero;stroke:none;stroke-width:0.1"
         id="path418"
         inkscape:connector-curvature="0" /><path
         d="m 337.217,202.426 -1.999,3.465 4.52,2.608 1.999,-3.465 -4.52,-2.608"
         style="fill:#282d33;fill-opacity:1;fill-rule:nonzero;stroke:none;stroke-width:0.1"
         id="path420"
         inkscape:connector-curvature="0" /><path
         d="m 350.724,196.67 h -4 v 5.221 h 4 v -5.221"
         style="fill:#282d33;fill-opacity:1;fill-rule:nonzero;stroke:none;stroke-width:0.1"
         id="path422"
         inkscape:connector-curvature="0" /><path
         d="m 360.457,202.028 -4.519,2.612 2.001,3.463 4.52,-2.612 -2.002,-3.463"
         style="fill:#282d33;fill-opacity:1;fill-rule:nonzero;stroke:none;stroke-width:0.1"
         id="path424"
         inkscape:connector-curvature="0" /><path
         d="m 358.167,213.993 -2,3.465 4.518,2.607 1.999,-3.464 -4.517,-2.608"
         style="fill:#282d33;fill-opacity:1;fill-rule:nonzero;stroke:none;stroke-width:0.1"
         id="path426"
         inkscape:connector-curvature="0" /><path
         d="m 302.959,230.278 c -26.352,0 -47.791,21.44 -47.791,47.793 0,21.905 14.544,40.681 35.567,46.206 v 19.873 h -2.978 v 20.12 h 30.41 v -20.12 h -2.979 v -19.874 c 12.298,-3.25 22.905,-11.374 29.275,-22.482 1.007,-1.757 1.907,-3.587 2.674,-5.441 l -3.696,-1.53 c -0.702,1.697 -1.525,3.372 -2.448,4.981 -6.083,10.608 -16.379,18.246 -28.25,20.955 l -1.555,0.355 v 27.036 h 2.979 v 12.12 h -22.41 v -12.12 h 2.978 v -27.036 l -1.554,-0.355 c -20.027,-4.572 -34.013,-22.126 -34.013,-42.688 0,-24.147 19.645,-43.793 43.791,-43.793 3.937,0 7.834,0.521 11.583,1.547 l 1.057,-3.857 c -4.093,-1.121 -8.346,-1.69 -12.64,-1.69"
         style="fill:#282d33;fill-opacity:1;fill-rule:nonzero;stroke:none;stroke-width:0.1"
         id="path428"
         inkscape:connector-curvature="0" /><path
         d="m 303.419,324.602 h -4 v 14.909 h 4 v -14.909"
         style="fill:#282d33;fill-opacity:1;fill-rule:nonzero;stroke:none;stroke-width:0.1"
         id="path430"
         inkscape:connector-curvature="0" /><path
         d="m 309.394,352.941 h -14.91 v 4 h 14.91 v -4"
         style="fill:#ffffff;fill-opacity:1;fill-rule:nonzero;stroke:none;stroke-width:0.1"
         id="path432"
         inkscape:connector-curvature="0" /><path
         d="m 268.05,278.832 h -4 c 0,15.261 9.083,28.963 23.139,34.909 l 1.558,-3.683 C 276.174,304.739 268.05,292.482 268.05,278.832"
         style="fill:#ffffff;fill-opacity:1;fill-rule:nonzero;stroke:none;stroke-width:0.1"
         id="path434"
         inkscape:connector-curvature="0" /><path
         d="m 285.189,246.995 h 75.96 v 30.419 h -75.96 z m 76.671,-4 h -77.381 c -1.814,0 -3.29,1.476 -3.29,3.29 v 31.842 c 0,1.812 1.476,3.287 3.29,3.287 h 77.381 c 1.814,0 3.289,-1.475 3.289,-3.287 v -31.842 c 0,-1.814 -1.475,-3.29 -3.289,-3.29"
         style="fill:#282d33;fill-opacity:1;fill-rule:nonzero;stroke:none;stroke-width:0.1"
         id="path436"
         inkscape:connector-curvature="0" /><path
         d="M 295.766,268.637 H 289.7 v 4 h 6.066 v -4"
         style="fill:#282d33;fill-opacity:1;fill-rule:nonzero;stroke:none;stroke-width:0.1"
         id="path438"
         inkscape:connector-curvature="0" /><path
         d="m 305.911,268.637 h -6.064 v 4 h 6.064 v -4"
         style="fill:#282d33;fill-opacity:1;fill-rule:nonzero;stroke:none;stroke-width:0.1"
         id="path440"
         inkscape:connector-curvature="0" /><path
         d="m 316.056,268.637 h -6.063 v 4 h 6.063 v -4"
         style="fill:#282d33;fill-opacity:1;fill-rule:nonzero;stroke:none;stroke-width:0.1"
         id="path442"
         inkscape:connector-curvature="0" /><path
         d="m 326.202,268.637 h -6.064 v 4 h 6.064 v -4"
         style="fill:#282d33;fill-opacity:1;fill-rule:nonzero;stroke:none;stroke-width:0.1"
         id="path444"
         inkscape:connector-curvature="0" /><path
         d="m 336.348,268.637 h -6.063 v 4 h 6.063 v -4"
         style="fill:#282d33;fill-opacity:1;fill-rule:nonzero;stroke:none;stroke-width:0.1"
         id="path446"
         inkscape:connector-curvature="0" /><path
         d="m 346.493,268.637 h -6.061 v 4 h 6.061 v -4"
         style="fill:#282d33;fill-opacity:1;fill-rule:nonzero;stroke:none;stroke-width:0.1"
         id="path448"
         inkscape:connector-curvature="0" /><path
         d="m 356.639,268.637 h -6.063 v 4 h 6.063 v -4"
         style="fill:#282d33;fill-opacity:1;fill-rule:nonzero;stroke:none;stroke-width:0.1"
         id="path450"
         inkscape:connector-curvature="0" /><path
         d="M 295.766,260.205 H 289.7 v 4 h 6.066 v -4"
         style="fill:#282d33;fill-opacity:1;fill-rule:nonzero;stroke:none;stroke-width:0.1"
         id="path452"
         inkscape:connector-curvature="0" /><path
         d="m 305.911,260.205 h -6.064 v 4 h 6.064 v -4"
         style="fill:#282d33;fill-opacity:1;fill-rule:nonzero;stroke:none;stroke-width:0.1"
         id="path454"
         inkscape:connector-curvature="0" /><path
         d="m 316.056,260.205 h -6.063 v 4 h 6.063 v -4"
         style="fill:#282d33;fill-opacity:1;fill-rule:nonzero;stroke:none;stroke-width:0.1"
         id="path456"
         inkscape:connector-curvature="0" /><path
         d="m 326.202,260.205 h -6.064 v 4 h 6.064 v -4"
         style="fill:#282d33;fill-opacity:1;fill-rule:nonzero;stroke:none;stroke-width:0.1"
         id="path458"
         inkscape:connector-curvature="0" /><path
         d="m 336.348,260.205 h -6.063 v 4 h 6.063 v -4"
         style="fill:#282d33;fill-opacity:1;fill-rule:nonzero;stroke:none;stroke-width:0.1"
         id="path460"
         inkscape:connector-curvature="0" /><path
         d="m 346.493,260.205 h -6.061 v 4 h 6.061 v -4"
         style="fill:#282d33;fill-opacity:1;fill-rule:nonzero;stroke:none;stroke-width:0.1"
         id="path462"
         inkscape:connector-curvature="0" /><path
         d="m 356.639,260.205 h -6.063 v 4 h 6.063 v -4"
         style="fill:#282d33;fill-opacity:1;fill-rule:nonzero;stroke:none;stroke-width:0.1"
         id="path464"
         inkscape:connector-curvature="0" /><path
         d="M 295.766,251.774 H 289.7 v 4 h 6.066 v -4"
         style="fill:#282d33;fill-opacity:1;fill-rule:nonzero;stroke:none;stroke-width:0.1"
         id="path466"
         inkscape:connector-curvature="0" /><path
         d="m 305.911,251.774 h -6.064 v 4 h 6.064 v -4"
         style="fill:#282d33;fill-opacity:1;fill-rule:nonzero;stroke:none;stroke-width:0.1"
         id="path468"
         inkscape:connector-curvature="0" /><path
         d="m 346.588,251.774 h -36.595 v 4 h 36.595 v -4"
         style="fill:#282d33;fill-opacity:1;fill-rule:nonzero;stroke:none;stroke-width:0.1"
         id="path470"
         inkscape:connector-curvature="0" /><path
         d="m 356.639,251.774 h -6.063 v 4 h 6.063 v -4"
         style="fill:#282d33;fill-opacity:1;fill-rule:nonzero;stroke:none;stroke-width:0.1"
         id="path472"
         inkscape:connector-curvature="0" /><path
         d="m 293.092,331.995 h -2 v 4 h 2 v -4"
         style="fill:#282d33;fill-opacity:1;fill-rule:nonzero;stroke:none;stroke-width:0.1"
         id="path474"
         inkscape:connector-curvature="0" /><path
         d="m 271.004,331.995 h -4.018 v 4 h 4.018 z m 8.036,0 h -4.018 v 4 h 4.018 z m 8.035,0 h -4.018 v 4 h 4.018 z m -27.653,-0.464 -0.865,3.905 c 1.423,0.315 2.885,0.5 4.347,0.546 l 0.129,-3.998 c -1.214,-0.039 -2.429,-0.191 -3.611,-0.453 z m -6.648,-2.866 -2.241,3.313 c 1.212,0.82 2.507,1.529 3.848,2.107 l 1.583,-3.674 c -1.111,-0.478 -2.184,-1.066 -3.19,-1.746 z m -5.152,-5.099 -3.291,2.274 c 0.83,1.2 1.777,2.33 2.815,3.358 l 2.814,-2.842 c -0.862,-0.854 -1.649,-1.793 -2.338,-2.79 z m -2.933,-6.619 -3.895,0.908 c 0.331,1.423 0.8,2.822 1.393,4.16 l 3.657,-1.621 c -0.491,-1.109 -0.88,-2.268 -1.155,-3.447 z m -4.269,-7.809 c -0.159,1.105 -0.239,2.237 -0.239,3.362 0,0.339 0.007,0.677 0.021,1.013 l 3.996,-0.17 c -0.011,-0.28 -0.017,-0.561 -0.017,-0.843 0,-0.936 0.066,-1.876 0.198,-2.794 z m 2.833,-8.261 c -0.725,1.271 -1.333,2.616 -1.807,3.998 l 3.784,1.297 c 0.393,-1.145 0.896,-2.259 1.497,-3.313 z m 5.653,-6.651 c -1.134,0.918 -2.19,1.948 -3.136,3.06 l 3.047,2.592 c 0.786,-0.925 1.663,-1.78 2.605,-2.543 z m 7.69,-4.134 c -1.393,0.439 -2.752,1.013 -4.04,1.707 l 1.896,3.521 c 1.067,-0.574 2.194,-1.049 3.348,-1.414 z m 8.534,-1.086 h -1.455 c -0.935,0 -1.874,0.056 -2.792,0.164 l 0.472,3.973 c 0.762,-0.091 1.542,-0.137 2.32,-0.137 h 1.455 z m 8.036,0 h -4.018 v 4 h 4.018 z m 8.035,0 h -4.017 v 4 h 4.017 z m 8.036,0 h -4.018 v 4 h 4.018 z m 8.036,0 h -4.018 v 4 h 4.018 z m 8.035,0 h -4.017 v 4 h 4.017 z m 8.036,0 h -4.018 v 4 h 4.018 z m 8.036,0 h -4.018 v 4 h 4.018 z m 8.036,0 h -4.018 v 4 h 4.018 z m 8.035,0 h -4.018 v 4 h 4.018 v -4"
         style="fill:#282d33;fill-opacity:1;fill-rule:nonzero;stroke:none;stroke-width:0.1"
         id="path476"
         inkscape:connector-curvature="0" /><path
         d="m 343.514,289.006 h -2 v 4 h 2 v -4"
         style="fill:#282d33;fill-opacity:1;fill-rule:nonzero;stroke:none;stroke-width:0.1"
         id="path478"
         inkscape:connector-curvature="0" /><path
         d="m 390.722,331.995 h -2 v 4 h 2 v -4"
         style="fill:#282d33;fill-opacity:1;fill-rule:nonzero;stroke:none;stroke-width:0.1"
         id="path480"
         inkscape:connector-curvature="0" /><path
         d="m 323.613,331.995 h -3.83 v 4 h 3.83 z m 7.66,0 h -3.83 v 4 h 3.83 z m 7.66,0 h -3.83 v 4 h 3.83 z m 7.66,0 h -3.83 v 4 h 3.83 z m 7.659,0 h -3.83 v 4 h 3.83 z m 7.66,0 h -3.83 v 4 h 3.83 z m 7.66,0 h -3.83 v 4 h 3.83 z m 7.66,0 h -3.83 v 4 h 3.83 z m 7.66,0 h -3.83 v 4 h 3.83 v -4"
         style="fill:#282d33;fill-opacity:1;fill-rule:nonzero;stroke:none;stroke-width:0.1"
         id="path482"
         inkscape:connector-curvature="0" /><path
         d="m 315.953,331.995 h -2 v 4 h 2 v -4"
         style="fill:#282d33;fill-opacity:1;fill-rule:nonzero;stroke:none;stroke-width:0.1"
         id="path484"
         inkscape:connector-curvature="0" /><path
         d="m 344.503,288.984 h -2 v 4 h 2 v -4"
         style="fill:#282d33;fill-opacity:1;fill-rule:nonzero;stroke:none;stroke-width:0.1"
         id="path486"
         inkscape:connector-curvature="0" /><path
         d="m 352.583,288.984 h -4.04 v 4 h 4.04 z m 8.081,0 h -4.041 v 4 h 4.041 z m 8.08,0 h -4.04 v 4 h 4.04 z m 8.08,0 h -4.04 v 4 h 4.04 z m 7.828,-0.065 c -0.347,0.043 -0.704,0.065 -1.06,0.065 h -2.727 v 4 h 2.727 c 0.522,0 1.046,-0.032 1.557,-0.096 z m 5.537,-3.133 c -0.682,0.862 -1.511,1.573 -2.464,2.113 l 1.971,3.481 c 1.405,-0.796 2.627,-1.843 3.631,-3.113 z m 5.734,-6.542 -3.977,0.428 c 0.032,0.299 0.048,0.602 0.048,0.91 0,0.791 -0.109,1.572 -0.325,2.323 l 3.845,1.104 c 0.319,-1.11 0.48,-2.263 0.48,-3.427 0,-0.446 -0.024,-0.896 -0.071,-1.338 z m -4.473,-8.26 -2.536,3.094 c 0.85,0.696 1.546,1.538 2.069,2.501 l 3.515,-1.908 c -0.771,-1.42 -1.797,-2.661 -3.048,-3.687 z m -12.839,-2.805 h -4.04 v 4 h 4.04 z m 4.991,0 h -0.951 v 4 h 0.941 c 0.859,0.035 1.672,0.122 2.467,0.366 l 1.172,-3.824 c -1.173,-0.36 -2.394,-0.542 -3.629,-0.542"
         style="fill:#282d33;fill-opacity:1;fill-rule:nonzero;stroke:none;stroke-width:0.1"
         id="path488"
         inkscape:connector-curvature="0" /><path
         d="m 370.508,268.179 h -2 v 4 h 2 v -4"
         style="fill:#282d33;fill-opacity:1;fill-rule:nonzero;stroke:none;stroke-width:0.1"
         id="path490"
         inkscape:connector-curvature="0" /><path
         d="m 274.022,394.414 h -4 v 4.904 h 4 v -4.904"
         style="fill:#282d33;fill-opacity:1;fill-rule:nonzero;stroke:none;stroke-width:0.1"
         id="path492"
         inkscape:connector-curvature="0" /><path
         d="m 274.026,378.068 h -4 v 4.903 h 4 v -4.903"
         style="fill:#282d33;fill-opacity:1;fill-rule:nonzero;stroke:none;stroke-width:0.1"
         id="path494"
         inkscape:connector-curvature="0" /><path
         d="m 266.068,389.82 -4.247,2.451 2,3.465 4.246,-2.451 -1.999,-3.465"
         style="fill:#282d33;fill-opacity:1;fill-rule:nonzero;stroke:none;stroke-width:0.1"
         id="path496"
         inkscape:connector-curvature="0" /><path
         d="m 280.226,381.649 -4.246,2.454 2.001,3.463 4.246,-2.452 -2.001,-3.465"
         style="fill:#282d33;fill-opacity:1;fill-rule:nonzero;stroke:none;stroke-width:0.1"
         id="path498"
         inkscape:connector-curvature="0" /><path
         d="m 263.822,381.649 -2.001,3.465 4.246,2.452 2.001,-3.463 -4.246,-2.454"
         style="fill:#282d33;fill-opacity:1;fill-rule:nonzero;stroke:none;stroke-width:0.1"
         id="path500"
         inkscape:connector-curvature="0" /><path
         d="m 277.98,389.82 -1.999,3.465 4.246,2.451 1.999,-3.465 -4.246,-2.451"
         style="fill:#282d33;fill-opacity:1;fill-rule:nonzero;stroke:none;stroke-width:0.1"
         id="path502"
         inkscape:connector-curvature="0" /><path
         d="m 327.036,424.189 h -4 v 14.381 h 4 v -14.381"
         style="fill:#282d33;fill-opacity:1;fill-rule:nonzero;stroke:none;stroke-width:0.1"
         id="path504"
         inkscape:connector-curvature="0" /><path
         d="m 332.225,429.379 h -14.381 v 4 h 14.381 v -4"
         style="fill:#282d33;fill-opacity:1;fill-rule:nonzero;stroke:none;stroke-width:0.1"
         id="path506"
         inkscape:connector-curvature="0" /><path
         d="m 846.365,203.88 -2.828,2.828 10.169,10.169 2.828,-2.828 -10.169,-10.169"
         style="fill:#282d33;fill-opacity:1;fill-rule:nonzero;stroke:none;stroke-width:0.1"
         id="path508"
         inkscape:connector-curvature="0" /><path
         d="m 853.704,203.881 -10.168,10.168 2.828,2.828 10.168,-10.168 -2.828,-2.828"
         style="fill:#282d33;fill-opacity:1;fill-rule:nonzero;stroke:none;stroke-width:0.1"
         id="path510"
         inkscape:connector-curvature="0" /><path
         d="m 671.365,137.88 -2.828,2.83 10.169,10.17 2.828,-2.83 -10.169,-10.17"
         style="fill:#282d33;fill-opacity:1;fill-rule:nonzero;stroke:none;stroke-width:0.1"
         id="path512"
         inkscape:connector-curvature="0" /><path
         d="m 678.704,137.88 -10.168,10.17 2.828,2.83 10.168,-10.17 -2.828,-2.83"
         style="fill:#282d33;fill-opacity:1;fill-rule:nonzero;stroke:none;stroke-width:0.1"
         id="path514"
         inkscape:connector-curvature="0" /><path
         d="m 866.365,368.88 -2.828,2.828 10.169,10.169 2.828,-2.828 -10.169,-10.169"
         style="fill:#282d33;fill-opacity:1;fill-rule:nonzero;stroke:none;stroke-width:0.1"
         id="path516"
         inkscape:connector-curvature="0" /><path
         d="m 873.704,368.881 -10.168,10.168 2.828,2.828 10.168,-10.168 -2.828,-2.828"
         style="fill:#282d33;fill-opacity:1;fill-rule:nonzero;stroke:none;stroke-width:0.1"
         id="path518"
         inkscape:connector-curvature="0" /><path
         d="m 198.719,238.687 -26.336,39.492 -26.338,-39.492 -3.328,2.218 29.666,44.483 29.664,-44.483 -3.328,-2.218"
         style="fill:#282d33;fill-opacity:1;fill-rule:nonzero;stroke:none;stroke-width:0.1"
         id="path520"
         inkscape:connector-curvature="0" /><path
         d="m 174.383,240.068 h -4 v 40.731 h 4 v -40.731"
         style="fill:#282d33;fill-opacity:1;fill-rule:nonzero;stroke:none;stroke-width:0.1"
         id="path522"
         inkscape:connector-curvature="0" /><path
         d="m 172.104,280.861 c -1.222,0 -2.432,0.295 -3.546,0.877 -1.817,0.949 -3.155,2.55 -3.767,4.506 l 3.817,1.195 c 0.293,-0.936 0.933,-1.702 1.803,-2.156 0.87,-0.454 1.865,-0.542 2.801,-0.25 1.932,0.607 3.012,2.673 2.406,4.605 l 3.817,1.197 c 1.266,-4.036 -0.989,-8.351 -5.025,-9.618 -0.758,-0.238 -1.534,-0.356 -2.306,-0.356"
         style="fill:#282d33;fill-opacity:1;fill-rule:nonzero;stroke:none;stroke-width:0.1"
         id="path524"
         inkscape:connector-curvature="0" /><path
         d="m 140.968,296.167 5.414,-14.379 65.542,24.675 -5.413,14.379 z m 3.08,-19.531 -8.233,21.865 73.03,27.493 8.231,-21.865 -73.028,-27.493"
         style="fill:#282d33;fill-opacity:1;fill-rule:nonzero;stroke:none;stroke-width:0.1"
         id="path526"
         inkscape:connector-curvature="0" /><path
         d="m 209.572,324.062 6.778,-18.002 7.382,2.779 -6.777,18.004 z m 4.444,-23.155 -9.596,25.489 14.869,5.601 9.596,-25.492 -14.869,-5.598"
         style="fill:#282d33;fill-opacity:1;fill-rule:nonzero;stroke:none;stroke-width:0.1"
         id="path528"
         inkscape:connector-curvature="0" /><path
         d="m 123.62,285.499 2.683,-7.13 14.97,5.635 -2.683,7.132 z m 0.349,-12.282 -5.501,14.616 22.456,8.455 5.502,-14.618 -22.457,-8.453"
         style="fill:#282d33;fill-opacity:1;fill-rule:nonzero;stroke:none;stroke-width:0.1"
         id="path530"
         inkscape:connector-curvature="0" /><path
         d="m 167.01,292.952 -1.409,3.744 52.09,19.611 1.409,-3.745 -52.09,-19.61"
         style="fill:#282d33;fill-opacity:1;fill-rule:nonzero;stroke:none;stroke-width:0.1"
         id="path532"
         inkscape:connector-curvature="0" /><path
         d="m 176.745,323.194 h -4.308 v 4 h 4.308 v -4"
         style="fill:#282d33;fill-opacity:1;fill-rule:nonzero;stroke:none;stroke-width:0.1"
         id="path534"
         inkscape:connector-curvature="0" /><path
         d="m 211.329,287.529 h -4.308 v 4 h 4.308 v -4"
         style="fill:#282d33;fill-opacity:1;fill-rule:nonzero;stroke:none;stroke-width:0.1"
         id="path536"
         inkscape:connector-curvature="0" /><path
         d="m 197.008,271.048 h -4.307 v 4 h 4.307 v -4"
         style="fill:#282d33;fill-opacity:1;fill-rule:nonzero;stroke:none;stroke-width:0.1"
         id="path538"
         inkscape:connector-curvature="0" /><path
         d="m 149.455,266.184 h -4.309 v 4 h 4.309 v -4"
         style="fill:#282d33;fill-opacity:1;fill-rule:nonzero;stroke:none;stroke-width:0.1"
         id="path540"
         inkscape:connector-curvature="0" /><path
         d="m 132.827,337.65 c -5.748,0 -10.407,4.661 -10.407,10.409 0,4.766 3.209,8.775 7.582,10.008 -0.494,0.05 -0.993,0.077 -1.498,0.077 -7.959,0 -14.41,-6.451 -14.41,-14.409 0,-7.959 6.451,-14.411 14.41,-14.411 7.958,0 14.41,6.452 14.41,14.411 0,0.505 -0.028,1.006 -0.078,1.497 -1.232,-4.373 -5.242,-7.582 -10.009,-7.582"
         style="fill:#ffd23d;fill-opacity:1;fill-rule:nonzero;stroke:none;stroke-width:0.1"
         id="path542"
         inkscape:connector-curvature="0" /><path
         d="m 556.256,256.273 v 4 c 18.356,0 33.289,14.934 33.289,33.289 0,18.356 -14.933,33.29 -33.289,33.29 v 4 c 20.561,0 37.289,-16.728 37.289,-37.29 0,-20.561 -16.728,-37.289 -37.289,-37.289"
         style="fill:#282d33;fill-opacity:1;fill-rule:nonzero;stroke:none;stroke-width:0.1"
         id="path544"
         inkscape:connector-curvature="0" /><path
         d="m 560.607,252 h -4 v 14.9 h 4 V 252"
         style="fill:#282d33;fill-opacity:1;fill-rule:nonzero;stroke:none;stroke-width:0.1"
         id="path546"
         inkscape:connector-curvature="0" /><path
         d="m 553.028,285.812 h -22.299 v 12.753 h 4 v -8.753 h 14.299 v 8.49 h 4 v -12.49"
         style="fill:#282d33;fill-opacity:1;fill-rule:nonzero;stroke:none;stroke-width:0.1"
         id="path548"
         inkscape:connector-curvature="0" /><path
         d="m 553.028,364.438 h -4 v 17.572 h -14.299 v -17.311 h -4 v 21.311 h 22.299 v -21.572"
         style="fill:#282d33;fill-opacity:1;fill-rule:nonzero;stroke:none;stroke-width:0.1"
         id="path550"
         inkscape:connector-curvature="0" /><path
         d="m 559.302,296.008 h -34.846 v 68.828 h 34.846 v -22.879 h -4 v 18.879 h -26.846 v -60.828 h 26.846 v 15.286 h 4 v -19.286"
         style="fill:#282d33;fill-opacity:1;fill-rule:nonzero;stroke:none;stroke-width:0.1"
         id="path552"
         inkscape:connector-curvature="0" /><path
         d="m 557.302,372.075 h -30.846 v 4 h 30.846 v -4"
         style="fill:#282d33;fill-opacity:1;fill-rule:nonzero;stroke:none;stroke-width:0.1"
         id="path554"
         inkscape:connector-curvature="0" /><path
         d="m 567.234,264.9 h -53.848 v 4 h 53.848 v -4"
         style="fill:#282d33;fill-opacity:1;fill-rule:nonzero;stroke:none;stroke-width:0.1"
         id="path556"
         inkscape:connector-curvature="0" /><path
         d="m 498.133,238.056 h 88.013 v 7.934 c 0,1.491 -1.214,2.705 -2.706,2.705 h -82.601 c -1.492,0 -2.706,-1.214 -2.706,-2.705 z m 92.013,-4 h -96.013 v 11.934 c 0,3.697 3.008,6.705 6.706,6.705 h 82.601 c 3.698,0 6.706,-3.008 6.706,-6.705 v -11.934"
         style="fill:#282d33;fill-opacity:1;fill-rule:nonzero;stroke:none;stroke-width:0.1"
         id="path558"
         inkscape:connector-curvature="0" /><path
         d="m 569.064,328.592 c 0,-7.073 -5.734,-12.808 -12.808,-12.808 -7.075,0 -12.81,5.735 -12.81,12.808 0,7.074 5.735,12.808 12.81,12.808 7.074,0 12.808,-5.734 12.808,-12.808"
         style="fill:#ffd23d;fill-opacity:1;fill-rule:nonzero;stroke:none;stroke-width:0.1"
         id="path560"
         inkscape:connector-curvature="0" /><path
         d="m 434.908,451.62 c -18.942,8.347 -41.146,-0.277 -49.488,-19.22 -8.344,-18.938 0.277,-41.138 19.216,-49.486 18.946,-8.342 41.145,0.277 49.491,19.217 8.346,18.941 -0.279,41.146 -19.219,49.489"
         style="fill:#84dbff;fill-opacity:1;fill-rule:nonzero;stroke:none;stroke-width:0.1"
         id="path562"
         inkscape:connector-curvature="0" /><path
         d="m 456.934,412.459 -5.219,-4.063 -9.415,-7.921 -0.419,7.686 -6.108,-1.102 -0.683,7.079 -4.201,-2.244 -1.214,0.939 -3.616,3.614 -1.151,-4.919 2.766,-2.791 -12.108,-11.77 -3.289,-0.518 -0.018,6.35 2.368,9.596 -4.309,2.113 -0.437,4.129 5.459,5.736 4.044,-0.753 1.622,-2.503 5.978,-1.053 -4.505,5.873 -4.588,3.031 0.398,1.606 5.998,0.666 -0.658,4.02 6.789,2.268 4.377,-4.091 9.779,-1.094 c 0,0 4.342,0.325 9.185,0.657 2.925,-6.33 4.087,-13.446 3.175,-20.541"
         style="fill:#ffd23d;fill-opacity:1;fill-rule:nonzero;stroke:none;stroke-width:0.1"
         id="path564"
         inkscape:connector-curvature="0" /><path
         d="m 409.951,453.444 -3.442,-2.512 -6.123,-4.711 c -0.163,-0.129 -0.247,-0.335 -0.218,-0.539 l 0.707,-4.858 c 0.031,-0.198 0.209,-0.392 0.346,-0.445 0.185,-0.077 0.392,-0.057 0.556,0.057 l 3.455,2.421 1.887,-6.707 -10.928,-3.562 -4.625,1.533 c -0.212,0.072 -0.447,0.01 -0.603,-0.153 l -2.147,-2.302 c -0.134,-0.145 -0.187,-0.344 -0.141,-0.535 l 1.309,-5.086 -3.82,4.309 -0.635,2.25 c 4.771,10.646 13.939,17.991 24.422,20.84"
         style="fill:#ffd23d;fill-opacity:1;fill-rule:nonzero;stroke:none;stroke-width:0.1"
         id="path566"
         inkscape:connector-curvature="0" /><path
         d="m 390.508,411.881 -0.442,7.255 6.309,5.75 5.613,-12.538 -14.953,-12.699 0.002,4.37 3.418,7.592 c 0.041,0.086 0.057,0.176 0.053,0.27"
         style="fill:#ffd23d;fill-opacity:1;fill-rule:nonzero;stroke:none;stroke-width:0.1"
         id="path568"
         inkscape:connector-curvature="0" /><path
         d="m 412.645,440.818 -0.315,9.807 c 6.854,0.387 10.897,-0.63 12.406,-1.123 l -4.943,-6.74 -7.148,-1.944"
         style="fill:#ffd23d;fill-opacity:1;fill-rule:nonzero;stroke:none;stroke-width:0.1"
         id="path570"
         inkscape:connector-curvature="0" /><path
         d="m 462.624,456.413 c -0.262,0.447 -0.572,0.858 -0.92,1.223 l 2.892,2.763 c 0.563,-0.588 1.06,-1.25 1.479,-1.964 l -3.451,-2.022"
         style="fill:#282d33;fill-opacity:1;fill-rule:nonzero;stroke:none;stroke-width:0.1"
         id="path572"
         inkscape:connector-curvature="0" /><path
         d="m 467.745,449.437 -3.987,0.323 c 0.04,0.501 0.061,0.988 0.061,1.462 0,0.74 -0.051,1.446 -0.152,2.097 l 3.953,0.612 c 0.132,-0.854 0.199,-1.765 0.199,-2.709 0,-0.576 -0.025,-1.176 -0.074,-1.785 z m -1.867,-8.346 -3.783,1.299 c 0.436,1.27 0.795,2.508 1.067,3.679 l 3.896,-0.906 c -0.303,-1.303 -0.7,-2.673 -1.18,-4.072 z m -3.27,-7.675 -3.575,1.795 c 0.604,1.203 1.162,2.398 1.657,3.552 l 3.676,-1.578 c -0.527,-1.227 -1.118,-2.495 -1.758,-3.769 z m -4.052,-7.192 -3.397,2.111 c 0.711,1.144 1.39,2.288 2.018,3.4 l 3.483,-1.966 c -0.656,-1.163 -1.364,-2.355 -2.104,-3.545 z m -4.586,-6.82 -3.241,2.344 c 0.785,1.086 1.55,2.182 2.274,3.257 l 3.318,-2.234 c -0.749,-1.112 -1.54,-2.245 -2.351,-3.367 z m -4.996,-6.495 -3.099,2.529 c 0.851,1.043 1.676,2.083 2.474,3.121 l 3.17,-2.44 c -0.821,-1.066 -1.669,-2.138 -2.545,-3.21 z m -5.333,-6.201 -2.967,2.684 c 0.903,0.997 1.783,1.995 2.641,2.991 l 3.032,-2.61 c -0.879,-1.021 -1.782,-2.043 -2.706,-3.065 z m -5.631,-5.925 -2.834,2.822 c 0.948,0.953 1.876,1.906 2.785,2.862 l 2.899,-2.756 c -0.93,-0.978 -1.88,-1.954 -2.85,-2.928 z m -62.03,-5.387 -3.592,1.757 c 0.586,1.198 1.23,2.433 1.915,3.67 l 3.5,-1.937 c -0.653,-1.179 -1.266,-2.354 -1.823,-3.49 z m 56.132,-0.265 -2.701,2.949 c 0.881,0.808 1.761,1.629 2.638,2.466 l 0.279,0.266 2.763,-2.892 -0.284,-0.271 c -0.893,-0.852 -1.793,-1.693 -2.695,-2.518 z m -6.158,-5.374 -2.557,3.076 c 1.013,0.842 2.026,1.705 3.038,2.588 l 2.63,-3.014 c -1.036,-0.904 -2.073,-1.787 -3.111,-2.65 z m -52.939,-1.564 -3.805,1.237 c 0.412,1.266 0.903,2.59 1.46,3.933 l 3.695,-1.533 c -0.517,-1.246 -0.971,-2.47 -1.35,-3.637 z m 46.518,-3.505 -2.395,3.204 c 1.051,0.786 2.105,1.596 3.16,2.429 l 2.479,-3.138 c -1.083,-0.857 -2.165,-1.689 -3.244,-2.495 z m -48.002,-3.866 -3.996,0.186 c 0.063,1.351 0.255,2.803 0.57,4.314 l 3.916,-0.818 c -0.272,-1.304 -0.437,-2.542 -0.49,-3.682 z m 41.307,-0.855 -2.207,3.336 c 1.088,0.719 2.183,1.468 3.284,2.246 l 2.307,-3.268 c -1.134,-0.801 -2.263,-1.573 -3.384,-2.314 z m -6.994,-4.305 -1.975,3.479 c 1.117,0.633 2.265,1.313 3.414,2.021 l 2.098,-3.406 c -1.19,-0.733 -2.38,-1.437 -3.537,-2.094 z m -36.101,-3.61 c -0.89,1.264 -1.523,2.755 -1.879,4.428 l 3.912,0.834 c 0.243,-1.143 0.66,-2.138 1.238,-2.96 z m 28.762,-0.159 -1.663,3.636 c 1.165,0.533 2.359,1.115 3.548,1.727 l 1.831,-3.557 c -1.244,-0.639 -2.494,-1.248 -3.716,-1.806 z m -7.773,-3.001 -1.177,3.822 c 1.177,0.363 2.414,0.795 3.675,1.286 l 1.45,-3.729 c -1.351,-0.525 -2.679,-0.989 -3.948,-1.379 z m -12.81,-1.519 c -1.671,0.245 -3.18,0.725 -4.486,1.427 l 1.892,3.523 c 0.896,-0.481 1.965,-0.815 3.175,-0.993 z m 4.453,-0.143 -0.269,3.991 c 1.162,0.079 2.415,0.256 3.725,0.526 l 0.809,-3.918 c -1.487,-0.307 -2.922,-0.509 -4.265,-0.599"
         style="fill:#282d33;fill-opacity:1;fill-rule:nonzero;stroke:none;stroke-width:0.1"
         id="path574"
         inkscape:connector-curvature="0" /><path
         d="m 379.806,402.321 -3.409,2.092 c 0.351,0.572 0.71,1.148 1.079,1.726 l 3.372,-2.153 c -0.357,-0.558 -0.703,-1.114 -1.042,-1.665"
         style="fill:#282d33;fill-opacity:1;fill-rule:nonzero;stroke:none;stroke-width:0.1"
         id="path576"
         inkscape:connector-curvature="0" /><path
         d="m 380.758,367.189 c -4.291,0 -7.697,1.218 -10.025,3.658 l 2.894,2.761 c 3.535,-3.707 11.633,-3.169 22.219,1.477 11.361,4.983 24.218,14.026 36.203,25.462 11.986,11.435 21.623,23.853 27.135,34.967 5.137,10.354 6.055,18.418 2.52,22.123 -4.194,4.395 -15.033,2.69 -28.287,-4.449 l -1.897,3.522 c 15.363,8.274 27.419,9.619 33.078,3.688 4.835,-5.067 4.185,-14.536 -1.83,-26.662 -5.715,-11.519 -15.643,-24.335 -27.958,-36.084 -12.313,-11.748 -25.581,-21.064 -37.357,-26.23 -6.427,-2.82 -12.074,-4.233 -16.695,-4.233"
         style="fill:#282d33;fill-opacity:1;fill-rule:nonzero;stroke:none;stroke-width:0.1"
         id="path578"
         inkscape:connector-curvature="0" /><path
         d="m 397.318,368.842 c 0,-4.604 -3.73,-8.334 -8.333,-8.334 -4.602,0 -8.333,3.73 -8.333,8.334 0,4.602 3.731,8.332 8.333,8.332 4.603,0 8.333,-3.73 8.333,-8.332"
         style="fill:#ffd23d;fill-opacity:1;fill-rule:nonzero;stroke:none;stroke-width:0.1"
         id="path580"
         inkscape:connector-curvature="0" /><path
         d="m 558.148,421.11 h -4 v 20.089 h 4 V 421.11"
         style="fill:#282d33;fill-opacity:1;fill-rule:nonzero;stroke:none;stroke-width:0.1"
         id="path582"
         inkscape:connector-curvature="0" /><path
         d="m 566.193,429.155 h -20.088 v 4 h 20.088 v -4"
         style="fill:#282d33;fill-opacity:1;fill-rule:nonzero;stroke:none;stroke-width:0.1"
         id="path584"
         inkscape:connector-curvature="0" /><path
         d="m 489.742,306.182 h -4 v 7.5 h 4 v -7.5"
         style="fill:#282d33;fill-opacity:1;fill-rule:nonzero;stroke:none;stroke-width:0.1"
         id="path586"
         inkscape:connector-curvature="0" /><path
         d="m 479.588,299.697 -6.497,3.752 2,3.465 6.497,-3.752 -2,-3.465"
         style="fill:#282d33;fill-opacity:1;fill-rule:nonzero;stroke:none;stroke-width:0.1"
         id="path588"
         inkscape:connector-curvature="0" /><path
         d="m 475.628,287.376 -2,3.465 6.497,3.751 2,-3.465 -6.497,-3.751"
         style="fill:#282d33;fill-opacity:1;fill-rule:nonzero;stroke:none;stroke-width:0.1"
         id="path590"
         inkscape:connector-curvature="0" /><path
         d="m 490.814,281.539 h -4 v 7.501 h 4 v -7.501"
         style="fill:#282d33;fill-opacity:1;fill-rule:nonzero;stroke:none;stroke-width:0.1"
         id="path592"
         inkscape:connector-curvature="0" /><path
         d="m 501.466,288.309 -6.497,3.749 1.999,3.464 6.497,-3.749 -1.999,-3.464"
         style="fill:#282d33;fill-opacity:1;fill-rule:nonzero;stroke:none;stroke-width:0.1"
         id="path594"
         inkscape:connector-curvature="0" /><path
         d="m 496.431,300.628 -2,3.465 6.496,3.751 2,-3.465 -6.496,-3.751"
         style="fill:#282d33;fill-opacity:1;fill-rule:nonzero;stroke:none;stroke-width:0.1"
         id="path596"
         inkscape:connector-curvature="0" /><path
         d="m 588.204,395.593 h -4 v 4 h 4 v -4"
         style="fill:#282d33;fill-opacity:1;fill-rule:nonzero;stroke:none;stroke-width:0.1"
         id="path598"
         inkscape:connector-curvature="0" /><path
         d="m 574.359,389.859 -2.828,2.828 2.828,2.829 2.829,-2.829 -2.829,-2.828"
         style="fill:#282d33;fill-opacity:1;fill-rule:nonzero;stroke:none;stroke-width:0.1"
         id="path600"
         inkscape:connector-curvature="0" /><path
         d="m 571.453,378.844 h -4 v 4 h 4 v -4"
         style="fill:#282d33;fill-opacity:1;fill-rule:nonzero;stroke:none;stroke-width:0.1"
         id="path602"
         inkscape:connector-curvature="0" /><path
         d="m 574.356,366.171 -2.827,2.83 2.829,2.827 2.828,-2.83 -2.83,-2.827"
         style="fill:#282d33;fill-opacity:1;fill-rule:nonzero;stroke:none;stroke-width:0.1"
         id="path604"
         inkscape:connector-curvature="0" /><path
         d="m 588.204,362.093 h -4 v 4 h 4 v -4"
         style="fill:#282d33;fill-opacity:1;fill-rule:nonzero;stroke:none;stroke-width:0.1"
         id="path606"
         inkscape:connector-curvature="0" /><path
         d="m 598.048,366.172 -2.829,2.828 2.829,2.828 2.828,-2.828 -2.828,-2.828"
         style="fill:#282d33;fill-opacity:1;fill-rule:nonzero;stroke:none;stroke-width:0.1"
         id="path608"
         inkscape:connector-curvature="0" /><path
         d="m 604.954,378.844 h -4 v 4 h 4 v -4"
         style="fill:#282d33;fill-opacity:1;fill-rule:nonzero;stroke:none;stroke-width:0.1"
         id="path610"
         inkscape:connector-curvature="0" /><path
         d="m 598.047,389.859 -2.828,2.828 2.829,2.829 2.828,-2.829 -2.829,-2.828"
         style="fill:#282d33;fill-opacity:1;fill-rule:nonzero;stroke:none;stroke-width:0.1"
         id="path612"
         inkscape:connector-curvature="0" /><path
         d="M 235.652,234.056 H 116.968 v 4 h 118.684 v -4"
         style="fill:#282d33;fill-opacity:1;fill-rule:nonzero;stroke:none;stroke-width:0.1"
         id="path614"
         inkscape:connector-curvature="0" /><path
         d="m 500.951,454.527 h -4.308 v 4 h 4.308 v -4"
         style="fill:#282d33;fill-opacity:1;fill-rule:nonzero;stroke:none;stroke-width:0.1"
         id="path616"
         inkscape:connector-curvature="0" /><path
         d="m 498.716,376.883 h -4.308 v 4 h 4.308 v -4"
         style="fill:#282d33;fill-opacity:1;fill-rule:nonzero;stroke:none;stroke-width:0.1"
         id="path618"
         inkscape:connector-curvature="0" /><path
         d="m 375.53,457.878 h -4.307 v 4 h 4.307 v -4"
         style="fill:#282d33;fill-opacity:1;fill-rule:nonzero;stroke:none;stroke-width:0.1"
         id="path620"
         inkscape:connector-curvature="0" /><path
         d="m 473.661,397.518 h -4.308 v 4 h 4.308 v -4"
         style="fill:#282d33;fill-opacity:1;fill-rule:nonzero;stroke:none;stroke-width:0.1"
         id="path622"
         inkscape:connector-curvature="0" /><path
         d="m 795.331,148.3 h -4.309 v 4 h 4.309 v -4"
         style="fill:#282d33;fill-opacity:1;fill-rule:nonzero;stroke:none;stroke-width:0.1"
         id="path624"
         inkscape:connector-curvature="0" /><path
         d="m 797.565,225.947 h -4.307 v 4 h 4.307 v -4"
         style="fill:#282d33;fill-opacity:1;fill-rule:nonzero;stroke:none;stroke-width:0.1"
         id="path626"
         inkscape:connector-curvature="0" /><path
         d="m 920.751,144.95 h -4.308 v 4 h 4.308 v -4"
         style="fill:#282d33;fill-opacity:1;fill-rule:nonzero;stroke:none;stroke-width:0.1"
         id="path628"
         inkscape:connector-curvature="0" /><path
         d="m 822.621,205.312 h -4.308 v 4 h 4.308 v -4"
         style="fill:#282d33;fill-opacity:1;fill-rule:nonzero;stroke:none;stroke-width:0.1"
         id="path630"
         inkscape:connector-curvature="0" /><path
         d="m 623.462,210.586 h -4.309 v 4 h 4.309 v -4"
         style="fill:#282d33;fill-opacity:1;fill-rule:nonzero;stroke:none;stroke-width:0.1"
         id="path632"
         inkscape:connector-curvature="0" /><path
         d="m 535.406,215.221 h -4.307 v 4 h 4.307 v -4"
         style="fill:#282d33;fill-opacity:1;fill-rule:nonzero;stroke:none;stroke-width:0.1"
         id="path634"
         inkscape:connector-curvature="0" /><path
         d="m 600.77,172.59 h -4.308 v 4 h 4.308 v -4"
         style="fill:#282d33;fill-opacity:1;fill-rule:nonzero;stroke:none;stroke-width:0.1"
         id="path636"
         inkscape:connector-curvature="0" /><path
         d="m 560.462,194.59 h -4.309 v 4 h 4.309 v -4"
         style="fill:#282d33;fill-opacity:1;fill-rule:nonzero;stroke:none;stroke-width:0.1"
         id="path638"
         inkscape:connector-curvature="0" /><path
         d="m 524.215,331.995 h -2 v 4 h 2 v -4"
         style="fill:#282d33;fill-opacity:1;fill-rule:nonzero;stroke:none;stroke-width:0.1"
         id="path640"
         inkscape:connector-curvature="0" /><path
         d="m 491.283,331.995 h -4.419 v 4 h 4.419 z m 8.837,0 h -4.419 v 4 h 4.419 z m 8.838,0 h -4.419 v 4 h 4.419 z m 8.838,0 h -4.419 v 4 h 4.419 v -4"
         style="fill:#282d33;fill-opacity:1;fill-rule:nonzero;stroke:none;stroke-width:0.1"
         id="path642"
         inkscape:connector-curvature="0" /><path
         d="m 482.445,331.995 h -2 v 4 h 2 v -4"
         style="fill:#282d33;fill-opacity:1;fill-rule:nonzero;stroke:none;stroke-width:0.1"
         id="path644"
         inkscape:connector-curvature="0" /><path
         d="m 615.959,325.531 h -4 v 6 h 4 v -6"
         style="fill:#282d33;fill-opacity:1;fill-rule:nonzero;stroke:none;stroke-width:0.1"
         id="path646"
         inkscape:connector-curvature="0" /><path
         d="m 615.959,266.865 h -4 v 6 h 4 v -6"
         style="fill:#282d33;fill-opacity:1;fill-rule:nonzero;stroke:none;stroke-width:0.1"
         id="path648"
         inkscape:connector-curvature="0" /><path
         d="m 646.291,297.199 h -6 v 4 h 6 v -4"
         style="fill:#282d33;fill-opacity:1;fill-rule:nonzero;stroke:none;stroke-width:0.1"
         id="path650"
         inkscape:connector-curvature="0" /><path
         d="m 587.625,297.199 h -6 v 4 h 6 v -4"
         style="fill:#282d33;fill-opacity:1;fill-rule:nonzero;stroke:none;stroke-width:0.1"
         id="path652"
         inkscape:connector-curvature="0" /><path
         d="m 633.992,316.403 -2.828,2.83 4.245,4.242 2.827,-2.83 -4.244,-4.242"
         style="fill:#282d33;fill-opacity:1;fill-rule:nonzero;stroke:none;stroke-width:0.1"
         id="path654"
         inkscape:connector-curvature="0" /><path
         d="m 592.51,274.922 -2.828,2.828 4.242,4.241 2.828,-2.828 -4.242,-4.241"
         style="fill:#282d33;fill-opacity:1;fill-rule:nonzero;stroke:none;stroke-width:0.1"
         id="path656"
         inkscape:connector-curvature="0" /><path
         d="m 635.408,274.922 -4.243,4.241 2.828,2.828 4.243,-4.241 -2.828,-2.828"
         style="fill:#282d33;fill-opacity:1;fill-rule:nonzero;stroke:none;stroke-width:0.1"
         id="path658"
         inkscape:connector-curvature="0" /><path
         d="m 593.924,316.404 -4.242,4.242 2.828,2.828 4.242,-4.242 -2.828,-2.828"
         style="fill:#282d33;fill-opacity:1;fill-rule:nonzero;stroke:none;stroke-width:0.1"
         id="path660"
         inkscape:connector-curvature="0" /><path
         d="m 612.067,303.479 6.173,-6.172 6.425,12.597 z m 5.291,-10.947 -10.066,10.065 0.506,3.195 20.541,10.478 2.691,-2.691 -10.477,-20.54 -3.195,-0.507"
         style="fill:#282d33;fill-opacity:1;fill-rule:nonzero;stroke:none;stroke-width:0.1"
         id="path662"
         inkscape:connector-curvature="0" /><path
         d="m 609.677,301.091 -6.425,-12.599 12.598,6.426 z m -10.1,-18.964 -2.691,2.69 10.478,20.542 3.196,0.506 10.064,-10.064 -0.505,-3.196 -20.542,-10.478"
         style="fill:#282d33;fill-opacity:1;fill-rule:nonzero;stroke:none;stroke-width:0.1"
         id="path664"
         inkscape:connector-curvature="0" /><path
         d="m 834.22341,347.32098 c -7.141,20.201 -26.336,33.773 -47.763,33.773 -21.427,0 -40.622,-13.572 -47.763,-33.773 l -3.771,1.334 c 7.705,21.795 28.415,36.439 51.534,36.439 23.119,0 43.829,-14.644 51.534,-36.439 l -3.771,-1.334"
         style="fill:#282d33;fill-opacity:1;fill-rule:nonzero;stroke:none;stroke-width:0.1"
         id="path666"
         inkscape:connector-curvature="0" /><path
         d="m 794.664,428.072 h 19.527 l -3.244,-12.119 7.518,-12.117 h -28.853 l 5.052,24.236"
         style="fill:#84dbff;fill-opacity:1;fill-rule:nonzero;stroke:none;stroke-width:0.1"
         id="path668"
         inkscape:connector-curvature="0" /><path
         d="m 766.462,406.586 -2.137,12.12 -2.138,12.121 h 30.781 l 2.137,-12.121 2.139,-12.12 h -30.782"
         style="fill:#84dbff;fill-opacity:1;fill-rule:nonzero;stroke:none;stroke-width:0.1"
         id="path670"
         inkscape:connector-curvature="0" /><path
         d="m 771.972,363.192 -13.08,74.182 3.939,0.695 13.08,-74.181 -3.939,-0.696"
         style="fill:#282d33;fill-opacity:1;fill-rule:nonzero;stroke:none;stroke-width:0.1"
         id="path672"
         inkscape:connector-curvature="0" /><path
         d="m 756.195,364.146 c -2.389,0 -4.333,-1.943 -4.333,-4.333 0,-2.389 1.944,-4.334 4.333,-4.334 2.39,0 4.333,1.945 4.333,4.334 0,2.39 -1.943,4.333 -4.333,4.333 z m 0,-12.667 c -4.595,0 -8.333,3.739 -8.333,8.334 0,4.595 3.738,8.333 8.333,8.333 4.595,0 8.333,-3.738 8.333,-8.333 0,-4.595 -3.738,-8.334 -8.333,-8.334"
         style="fill:#282d33;fill-opacity:1;fill-rule:nonzero;stroke:none;stroke-width:0.1"
         id="path674"
         inkscape:connector-curvature="0" /><path
         d="m 787.862,366.479 c -0.551,0 -1,-0.449 -1,-1 0,-0.551 0.449,-1 1,-1 0.552,0 1,0.449 1,1 0,0.551 -0.448,1 -1,1 z m 0,-6 c -2.757,0 -5,2.244 -5,5 0,2.757 2.243,5 5,5 2.757,0 5,-2.243 5,-5 0,-2.756 -2.243,-5 -5,-5"
         style="fill:#282d33;fill-opacity:1;fill-rule:nonzero;stroke:none;stroke-width:0.1"
         id="path676"
         inkscape:connector-curvature="0" /><path
         d="m 793.122,335.183 c -2.301,3.135 -3.243,6.98 -2.652,10.825 0.591,3.845 2.643,7.228 5.779,9.528 3.136,2.301 6.981,3.242 10.825,2.652 3.845,-0.59 7.229,-2.642 9.53,-5.778 0.547,-0.747 1.03,-1.56 1.433,-2.418 l -3.619,-1.703 c -0.294,0.625 -0.644,1.215 -1.04,1.755 -1.668,2.274 -4.123,3.763 -6.911,4.191 -2.789,0.424 -5.577,-0.255 -7.852,-1.923 -2.275,-1.669 -3.763,-4.124 -4.191,-6.912 -0.429,-2.789 0.254,-5.577 1.923,-7.85 l -3.225,-2.367"
         style="fill:#282d33;fill-opacity:1;fill-rule:nonzero;stroke:none;stroke-width:0.1"
         id="path678"
         inkscape:connector-curvature="0" /><path
         d="m 734.553,419.173 -2.829,2.828 8.575,8.573 2.828,-2.828 -8.574,-8.573"
         style="fill:#282d33;fill-opacity:1;fill-rule:nonzero;stroke:none;stroke-width:0.1"
         id="path680"
         inkscape:connector-curvature="0" /><path
         d="m 740.299,419.174 -8.574,8.572 2.829,2.828 8.573,-8.572 -2.828,-2.828"
         style="fill:#282d33;fill-opacity:1;fill-rule:nonzero;stroke:none;stroke-width:0.1"
         id="path682"
         inkscape:connector-curvature="0" /><path
         d="m 815.886,379.506 -2.829,2.828 8.575,8.574 2.828,-2.828 -8.574,-8.574"
         style="fill:#282d33;fill-opacity:1;fill-rule:nonzero;stroke:none;stroke-width:0.1"
         id="path684"
         inkscape:connector-curvature="0" /><path
         d="m 821.632,379.507 -8.574,8.573 2.829,2.828 8.573,-8.573 -2.828,-2.828"
         style="fill:#282d33;fill-opacity:1;fill-rule:nonzero;stroke:none;stroke-width:0.1"
         id="path686"
         inkscape:connector-curvature="0" /><path
         d="m 753.437,386.573 -2.829,2.828 7.622,7.622 2.829,-2.828 -7.622,-7.622"
         style="fill:#282d33;fill-opacity:1;fill-rule:nonzero;stroke:none;stroke-width:0.1"
         id="path688"
         inkscape:connector-curvature="0" /><path
         d="m 758.23,386.574 -7.622,7.621 2.829,2.828 7.622,-7.621 -2.829,-2.828"
         style="fill:#282d33;fill-opacity:1;fill-rule:nonzero;stroke:none;stroke-width:0.1"
         id="path690"
         inkscape:connector-curvature="0" /><path
         d="m 742.196,404.147 h -4.152 v 4 h 4.152 v -4"
         style="fill:#282d33;fill-opacity:1;fill-rule:nonzero;stroke:none;stroke-width:0.1"
         id="path692"
         inkscape:connector-curvature="0" /><path
         d="m 734.017,374.814 h -4.154 v 4 h 4.154 v -4"
         style="fill:#282d33;fill-opacity:1;fill-rule:nonzero;stroke:none;stroke-width:0.1"
         id="path694"
         inkscape:connector-curvature="0" /><path
         d="m 791.861,389.812 h -4.152 v 4 h 4.152 v -4"
         style="fill:#282d33;fill-opacity:1;fill-rule:nonzero;stroke:none;stroke-width:0.1"
         id="path696"
         inkscape:connector-curvature="0" /><path
         d="m 800.194,443.479 h -4.152 v 4 h 4.152 v -4"
         style="fill:#282d33;fill-opacity:1;fill-rule:nonzero;stroke:none;stroke-width:0.1"
         id="path698"
         inkscape:connector-curvature="0" /><path
         d="m 484.639,215.816 -4.857,-18.126 -4.858,-18.13 -6.765,19.78 -19.773,6.762 18.127,4.857 18.126,4.857"
         style="fill:#ffd23d;fill-opacity:1;fill-rule:nonzero;stroke:none;stroke-width:0.1"
         id="path700"
         inkscape:connector-curvature="0" /><path
         d="m 403.248,195.16 h -2 v 4 h 2 v -4"
         style="fill:#282d33;fill-opacity:1;fill-rule:nonzero;stroke:none;stroke-width:0.1"
         id="path702"
         inkscape:connector-curvature="0" /><path
         d="m 409.785,195.16 h -3.268 v 4 h 3.268 z m 6.537,0 h -3.269 v 4 h 3.269 v -4"
         style="fill:#282d33;fill-opacity:1;fill-rule:nonzero;stroke:none;stroke-width:0.1"
         id="path704"
         inkscape:connector-curvature="0" /><path
         d="m 421.591,195.16 h -2 v 4 h 2 v -4"
         style="fill:#282d33;fill-opacity:1;fill-rule:nonzero;stroke:none;stroke-width:0.1"
         id="path706"
         inkscape:connector-curvature="0" /><path
         d="m 541.462,155.16 h -2 v 4 h 2 v -4"
         style="fill:#282d33;fill-opacity:1;fill-rule:nonzero;stroke:none;stroke-width:0.1"
         id="path708"
         inkscape:connector-curvature="0" /><path
         d="m 549.386,155.16 h -3.962 v 4 h 3.962 z m 7.924,0 h -3.962 v 4 h 3.962 z m 7.924,0 h -3.962 v 4 h 3.962 z m 7.925,0 h -3.962 v 4 h 3.962 z m 7.924,0 h -3.962 v 4 h 3.962 z m 7.924,0 h -3.962 v 4 h 3.962 z m 7.925,0 h -3.963 v 4 h 3.963 z m 7.924,0 h -3.962 v 4 h 3.962 z m 7.924,0 h -3.962 v 4 h 3.962 z m 7.924,0 h -3.962 v 4 h 3.962 z m 7.925,0 h -3.963 v 4 h 3.963 v -4"
         style="fill:#282d33;fill-opacity:1;fill-rule:nonzero;stroke:none;stroke-width:0.1"
         id="path710"
         inkscape:connector-curvature="0" /><path
         d="m 634.591,155.16 h -2 v 4 h 2 v -4"
         style="fill:#282d33;fill-opacity:1;fill-rule:nonzero;stroke:none;stroke-width:0.1"
         id="path712"
         inkscape:connector-curvature="0" /><path
         d="m 639.462,422.164 h -2 v 4 h 2 v -4"
         style="fill:#282d33;fill-opacity:1;fill-rule:nonzero;stroke:none;stroke-width:0.1"
         id="path714"
         inkscape:connector-curvature="0" /><path
         d="m 647.643,422.164 h -4.091 v 4 h 4.091 z m 8.182,0 h -4.091 v 4 h 4.091 z m 8.182,0 h -4.091 v 4 h 4.091 z m 8.182,0 h -4.091 v 4 h 4.091 z m 8.181,0 h -4.09 v 4 h 4.09 v -4"
         style="fill:#282d33;fill-opacity:1;fill-rule:nonzero;stroke:none;stroke-width:0.1"
         id="path716"
         inkscape:connector-curvature="0" /><path
         d="m 686.462,422.164 h -2 v 4 h 2 v -4"
         style="fill:#282d33;fill-opacity:1;fill-rule:nonzero;stroke:none;stroke-width:0.1"
         id="path718"
         inkscape:connector-curvature="0" /><path
         d="m 655.462,189.16 h -2 v 4 h 2 v -4"
         style="fill:#282d33;fill-opacity:1;fill-rule:nonzero;stroke:none;stroke-width:0.1"
         id="path720"
         inkscape:connector-curvature="0" /><path
         d="m 663.643,189.16 h -4.091 v 4 h 4.091 z m 8.182,0 h -4.091 v 4 h 4.091 z m 8.182,0 h -4.091 v 4 h 4.091 z m 8.182,0 h -4.091 v 4 h 4.091 z m 8.181,0 h -4.09 v 4 h 4.09 v -4"
         style="fill:#282d33;fill-opacity:1;fill-rule:nonzero;stroke:none;stroke-width:0.1"
         id="path722"
         inkscape:connector-curvature="0" /><path
         d="m 702.462,189.16 h -2 v 4 h 2 v -4"
         style="fill:#282d33;fill-opacity:1;fill-rule:nonzero;stroke:none;stroke-width:0.1"
         id="path724"
         inkscape:connector-curvature="0" /><path
         d="m 731.462,176.16 h -2 v 4 h 2 v -4"
         style="fill:#282d33;fill-opacity:1;fill-rule:nonzero;stroke:none;stroke-width:0.1"
         id="path726"
         inkscape:connector-curvature="0" /><path
         d="m 740.034,176.16 h -4.286 v 4 h 4.286 z m 8.571,0 h -4.286 v 4 h 4.286 z m 8.572,0 h -4.286 v 4 h 4.286 v -4"
         style="fill:#282d33;fill-opacity:1;fill-rule:nonzero;stroke:none;stroke-width:0.1"
         id="path728"
         inkscape:connector-curvature="0" /><path
         d="m 763.462,176.16 h -2 v 4 h 2 v -4"
         style="fill:#282d33;fill-opacity:1;fill-rule:nonzero;stroke:none;stroke-width:0.1"
         id="path730"
         inkscape:connector-curvature="0" /></g></g></svg>