<?xml version="1.0" encoding="utf-8"?>
<!-- Generator: Adobe Illustrator 18.0.0, SVG Export Plug-In . SVG Version: 6.00 Build 0)  -->
<!DOCTYPE svg PUBLIC "-//W3C//DTD SVG 1.1//EN" "http://www.w3.org/Graphics/SVG/1.1/DTD/svg11.dtd">
<svg version="1.1" id="Layer_1" xmlns="http://www.w3.org/2000/svg" xmlns:xlink="http://www.w3.org/1999/xlink" x="0px" y="0px"
	 viewBox="0 0 129.5 129.5" enable-background="new 0 0 129.5 129.5" xml:space="preserve">
<g>
	<g>
		<path fill="#231F20" d="M121.7,11.8c-0.2,0-0.4-0.1-0.5-0.2c-0.3-0.3-0.3-0.8,0-1.1l1.3-1.3c0.3-0.3,0.8-0.3,1.1,0
			c0.3,0.3,0.3,0.8,0,1.1l-1.3,1.3C122.1,11.7,121.9,11.8,121.7,11.8z"/>
		<path fill="#231F20" d="M117.5,16c-0.2,0-0.4-0.1-0.5-0.2c-0.3-0.3-0.3-0.8,0-1.1l1.3-1.3c0.3-0.3,0.8-0.3,1.1,0
			c0.3,0.3,0.3,0.8,0,1.1l-1.3,1.3C117.9,15.9,117.7,16,117.5,16z"/>
		<path fill="#231F20" d="M123,16c-0.2,0-0.4-0.1-0.5-0.2l-1.3-1.3c-0.3-0.3-0.3-0.8,0-1.1c0.3-0.3,0.8-0.3,1.1,0l1.3,1.3
			c0.3,0.3,0.3,0.8,0,1.1C123.4,15.9,123.2,16,123,16z"/>
		<path fill="#231F20" d="M118.8,11.8c-0.2,0-0.4-0.1-0.5-0.2l-1.3-1.3c-0.3-0.3-0.3-0.8,0-1.1c0.3-0.3,0.8-0.3,1.1,0l1.3,1.3
			c0.3,0.3,0.3,0.8,0,1.1C119.2,11.7,119,11.8,118.8,11.8z"/>
		<path fill="#231F20" d="M121.7,119.8c-0.2,0-0.4-0.1-0.5-0.2c-0.3-0.3-0.3-0.8,0-1.1l1.3-1.3c0.3-0.3,0.8-0.3,1.1,0
			c0.3,0.3,0.3,0.8,0,1.1l-1.3,1.3C122.1,119.7,121.9,119.8,121.7,119.8z"/>
		<path fill="#231F20" d="M117.5,123.9c-0.2,0-0.4-0.1-0.5-0.2c-0.3-0.3-0.3-0.8,0-1.1l1.3-1.3c0.3-0.3,0.8-0.3,1.1,0
			c0.3,0.3,0.3,0.8,0,1.1l-1.3,1.3C117.9,123.9,117.7,123.9,117.5,123.9z"/>
		<path fill="#231F20" d="M123,123.9c-0.2,0-0.4-0.1-0.5-0.2l-1.3-1.3c-0.3-0.3-0.3-0.8,0-1.1c0.3-0.3,0.8-0.3,1.1,0l1.3,1.3
			c0.3,0.3,0.3,0.8,0,1.1C123.4,123.9,123.2,123.9,123,123.9z"/>
		<path fill="#231F20" d="M118.8,119.8c-0.2,0-0.4-0.1-0.5-0.2l-1.3-1.3c-0.3-0.3-0.3-0.8,0-1.1c0.3-0.3,0.8-0.3,1.1,0l1.3,1.3
			c0.3,0.3,0.3,0.8,0,1.1C119.2,119.7,119,119.8,118.8,119.8z"/>
		<path fill="#231F20" d="M14.6,114.3c-0.2,0-0.4-0.1-0.5-0.2c-0.3-0.3-0.3-0.8,0-1.1l1.3-1.3c0.3-0.3,0.8-0.3,1.1,0
			c0.3,0.3,0.3,0.8,0,1.1l-1.3,1.3C15,114.2,14.8,114.3,14.6,114.3z"/>
		<path fill="#231F20" d="M10.4,118.5c-0.2,0-0.4-0.1-0.5-0.2c-0.3-0.3-0.3-0.8,0-1.1l1.3-1.3c0.3-0.3,0.8-0.3,1.1,0
			c0.3,0.3,0.3,0.8,0,1.1l-1.3,1.3C10.8,118.4,10.6,118.5,10.4,118.5z"/>
		<path fill="#231F20" d="M15.9,118.5c-0.2,0-0.4-0.1-0.5-0.2l-1.3-1.3c-0.3-0.3-0.3-0.8,0-1.1c0.3-0.3,0.8-0.3,1.1,0l1.3,1.3
			c0.3,0.3,0.3,0.8,0,1.1C16.3,118.4,16.1,118.5,15.9,118.5z"/>
		<path fill="#231F20" d="M11.8,114.3c-0.2,0-0.4-0.1-0.5-0.2l-1.3-1.3c-0.3-0.3-0.3-0.8,0-1.1c0.3-0.3,0.8-0.3,1.1,0l1.3,1.3
			c0.3,0.3,0.3,0.8,0,1.1C12.1,114.2,11.9,114.3,11.8,114.3z"/>
		<path fill="#FFFFFF" d="M128.3,67.6v-8.2l-8.1-2.1c-0.3-3-0.9-5.9-1.7-8.7l6.7-5L122,36l-8.3,1.2c-1.4-2.6-3.1-5-4.9-7.3l4.2-7.2
			l-5.8-5.8l-7.2,4.2c-2.3-1.8-4.7-3.5-7.3-4.9l1.2-8.3l-7.6-3.1l-5,6.7c-2.8-0.8-5.7-1.4-8.7-1.7l-2.1-8.1h-8.2l-2.1,8.1
			c-3,0.3-5.9,0.9-8.7,1.7l-5-6.7L39,7.9l1.2,8.3c-2.6,1.4-5,3.1-7.3,4.9l-7.2-4.2l-5.8,5.8l4.2,7.2c-1.8,2.3-3.5,4.7-4.9,7.3
			L10.8,36l-3.1,7.6l6.7,5c-0.8,2.8-1.4,5.7-1.7,8.7l-8.1,2.1v8.2l8.1,2.1c0.3,3,0.9,5.9,1.7,8.7l-6.7,5l3.1,7.6l8.3-1.2
			c1.4,2.6,3.1,5,4.9,7.3l-4.2,7.2l5.8,5.8l7.2-4.2c2.3,1.8,4.7,3.5,7.3,4.9l-1.2,8.3l7.6,3.1l5-6.7c2.8,0.8,5.7,1.4,8.7,1.7
			l2.1,8.1h8.2l2.1-8.1c3-0.3,5.9-0.9,8.7-1.7l5,6.7l7.6-3.1l-1.2-8.3c2.6-1.4,5-3.1,7.3-4.9l7.2,4.2l5.8-5.8l-4.2-7.2
			c1.8-2.3,3.5-4.7,4.9-7.3L122,91l3.1-7.6l-6.7-5c0.8-2.8,1.4-5.7,1.7-8.7L128.3,67.6z"/>
		<path fill="#231F20" d="M70.5,126.1h-8.2c-0.3,0-0.6-0.2-0.7-0.6l-2-7.6c-2.6-0.3-5.2-0.8-7.8-1.5l-4.7,6.2
			c-0.2,0.3-0.6,0.4-0.9,0.2l-7.6-3.1c-0.3-0.1-0.5-0.5-0.5-0.8l1.1-7.7c-2.3-1.3-4.5-2.8-6.6-4.4l-6.7,4c-0.3,0.2-0.7,0.1-0.9-0.1
			l-5.8-5.8c-0.2-0.2-0.3-0.6-0.1-0.9l4-6.7c-1.6-2.1-3.1-4.3-4.4-6.6l-7.7,1.1c-0.3,0-0.7-0.1-0.8-0.5L7,83.7
			c-0.1-0.3,0-0.7,0.2-0.9l6.2-4.7c-0.7-2.5-1.2-5.2-1.5-7.8l-7.6-2C4,68.3,3.8,68,3.8,67.6v-8.2c0-0.3,0.2-0.6,0.6-0.7l7.6-2
			c0.3-2.6,0.8-5.2,1.5-7.8l-6.2-4.7C7,44,6.9,43.7,7,43.3l3.1-7.6c0.1-0.3,0.5-0.5,0.8-0.5l7.7,1.1c1.3-2.3,2.8-4.5,4.4-6.6l-4-6.7
			c-0.2-0.3-0.1-0.7,0.1-0.9l5.8-5.8c0.2-0.2,0.6-0.3,0.9-0.1l6.7,4c2.1-1.6,4.3-3.1,6.6-4.4L38.2,8c0-0.3,0.1-0.7,0.5-0.8l7.6-3.1
			c0.3-0.1,0.7,0,0.9,0.2l4.7,6.2C54.4,9.8,57,9.3,59.6,9l2-7.6c0.1-0.3,0.4-0.6,0.7-0.6h8.2c0.3,0,0.6,0.2,0.7,0.6l2,7.6
			c2.6,0.3,5.2,0.8,7.8,1.5l4.7-6.2c0.2-0.3,0.6-0.4,0.9-0.2l7.6,3.1c0.3,0.1,0.5,0.5,0.5,0.8l-1.1,7.7c2.3,1.3,4.5,2.8,6.6,4.4
			l6.7-4c0.3-0.2,0.7-0.1,0.9,0.1l5.8,5.8c0.2,0.2,0.3,0.6,0.1,0.9l-4,6.7c1.6,2.1,3.1,4.3,4.4,6.6l7.7-1.1c0.3,0,0.7,0.1,0.8,0.5
			l3.1,7.6c0.1,0.3,0,0.7-0.2,0.9l-6.2,4.7c0.7,2.5,1.2,5.2,1.5,7.8l7.6,2c0.3,0.1,0.6,0.4,0.6,0.7v8.2c0,0.3-0.2,0.6-0.6,0.7
			l-7.6,2c-0.3,2.6-0.8,5.2-1.5,7.8l6.2,4.7c0.3,0.2,0.4,0.6,0.2,0.9l-3.1,7.6c-0.1,0.3-0.5,0.5-0.8,0.5l-7.7-1.1
			c-1.3,2.3-2.8,4.5-4.4,6.6l4,6.7c0.2,0.3,0.1,0.7-0.1,0.9l-5.8,5.8c-0.2,0.2-0.6,0.3-0.9,0.1l-6.7-4c-2.1,1.6-4.3,3.1-6.6,4.4
			l1.1,7.7c0,0.3-0.1,0.7-0.5,0.8l-7.6,3.1c-0.3,0.1-0.7,0-0.9-0.2l-4.7-6.2c-2.5,0.7-5.2,1.2-7.8,1.5l-2,7.6
			C71.2,125.9,70.9,126.1,70.5,126.1z M62.9,124.6H70l1.9-7.5c0.1-0.3,0.3-0.5,0.6-0.6c2.9-0.3,5.7-0.9,8.5-1.7
			c0.3-0.1,0.6,0,0.8,0.3l4.7,6.2l6.5-2.7l-1.1-7.7c0-0.3,0.1-0.6,0.4-0.8c2.5-1.4,4.9-3,7.2-4.8c0.2-0.2,0.6-0.2,0.9-0.1l6.7,3.9
			l5-5l-3.9-6.7c-0.2-0.3-0.1-0.6,0.1-0.9c1.8-2.3,3.4-4.7,4.8-7.2c0.2-0.3,0.5-0.4,0.8-0.4l7.7,1.1l2.7-6.5l-6.2-4.7
			c-0.3-0.2-0.4-0.5-0.3-0.8c0.8-2.8,1.4-5.7,1.7-8.5c0-0.3,0.3-0.6,0.6-0.6l7.5-1.9V60L120,58c-0.3-0.1-0.5-0.3-0.6-0.6
			c-0.3-2.9-0.9-5.7-1.7-8.5c-0.1-0.3,0-0.6,0.3-0.8l6.2-4.7l-2.7-6.5l-7.7,1.1c-0.3,0-0.6-0.1-0.8-0.4c-1.4-2.5-3-4.9-4.8-7.2
			c-0.2-0.2-0.2-0.6-0.1-0.9l3.9-6.7l-5-5l-6.7,3.9c-0.3,0.2-0.6,0.1-0.9-0.1c-2.3-1.8-4.7-3.4-7.2-4.8c-0.3-0.2-0.4-0.5-0.4-0.8
			l1.1-7.7l-6.5-2.7l-4.7,6.2c-0.2,0.3-0.5,0.4-0.8,0.3c-2.8-0.8-5.7-1.4-8.5-1.7c-0.3,0-0.6-0.3-0.6-0.6L70,2.4h-7.1L61,9.9
			c-0.1,0.3-0.3,0.5-0.6,0.6c-2.9,0.3-5.7,0.9-8.5,1.7c-0.3,0.1-0.6,0-0.8-0.3l-4.7-6.2l-6.5,2.7l1.1,7.7c0,0.3-0.1,0.6-0.4,0.8
			c-2.5,1.4-4.9,3-7.2,4.8c-0.2,0.2-0.6,0.2-0.9,0.1l-6.7-3.9l-5,5l3.9,6.7c0.2,0.3,0.1,0.6-0.1,0.9c-1.8,2.3-3.4,4.7-4.8,7.2
			c-0.2,0.3-0.5,0.4-0.8,0.4l-7.7-1.1l-2.7,6.5l6.2,4.7c0.3,0.2,0.4,0.5,0.3,0.8c-0.8,2.8-1.4,5.7-1.7,8.5c0,0.3-0.3,0.6-0.6,0.6
			L5.3,60V67l7.5,1.9c0.3,0.1,0.5,0.3,0.6,0.6c0.3,2.9,0.9,5.7,1.7,8.5c0.1,0.3,0,0.6-0.3,0.8l-6.2,4.7l2.7,6.5l7.7-1.1
			c0.3,0,0.6,0.1,0.8,0.4c1.4,2.5,3,4.9,4.8,7.2c0.2,0.2,0.2,0.6,0.1,0.9l-3.9,6.7l5,5l6.7-3.9c0.3-0.2,0.6-0.1,0.9,0.1
			c2.3,1.8,4.7,3.4,7.2,4.8c0.3,0.2,0.4,0.5,0.4,0.8l-1.1,7.7l6.5,2.7l4.7-6.2c0.2-0.3,0.5-0.4,0.8-0.3c2.8,0.8,5.7,1.4,8.5,1.7
			c0.3,0,0.6,0.3,0.6,0.6L62.9,124.6z"/>
		<circle fill="#FFFFFF" cx="65.3" cy="63.5" r="46.4"/>
		<path fill="#231F20" d="M65.3,110.7c-26,0-47.2-21.2-47.2-47.2c0-26,21.2-47.2,47.2-47.2s47.2,21.2,47.2,47.2
			C112.5,89.5,91.3,110.7,65.3,110.7z M65.3,17.9c-25.2,0-45.6,20.5-45.6,45.6c0,25.2,20.5,45.6,45.6,45.6s45.6-20.5,45.6-45.6
			C110.9,38.3,90.5,17.9,65.3,17.9z"/>
		<path fill="#FFFFFF" d="M83.3,35.9h-36c-1.7,0-3-1.3-3-3v-3.3h42v3.3C86.3,34.5,84.9,35.9,83.3,35.9z"/>
		<path fill="#FFFFFF" d="M47.3,91.1h36c1.7,0,3,1.3,3,3v3.3h-42v-3.3C44.3,92.5,45.7,91.1,47.3,91.1z"/>
		<path fill="#FFFFFF" d="M69.8,63.5c5.3-3.1,13.4-8.9,13.4-15.5V35.9H47.4V48c0,6.6,8.1,12.4,13.4,15.5
			c-5.3,3.1-13.4,8.9-13.4,15.5v12.1h35.7V79C83.2,72.4,75.1,66.6,69.8,63.5z"/>
		<path fill="#231F20" d="M83.9,48V36.6c1.8-0.3,3.1-1.9,3.1-3.7v-3.2c0-0.4-0.3-0.8-0.8-0.8h-42c-0.4,0-0.8,0.3-0.8,0.8v3.2
			c0,1.9,1.3,3.4,3.1,3.7V48c0,6.4,6.6,11.8,12.7,15.5c-6,3.7-12.7,9.2-12.7,15.5v11.4c-1.8,0.3-3.1,1.9-3.1,3.7v3.2
			c0,0.4,0.3,0.8,0.8,0.8h42c0.4,0,0.8-0.3,0.8-0.8v-3.2c0-1.9-1.4-3.4-3.1-3.7V79c0-6.4-6.6-11.8-12.7-15.5
			C77.3,59.8,83.9,54.3,83.9,48z M45.1,32.8v-2.5h40.5v2.5c0,1.3-1,2.3-2.3,2.3H47.4C46.1,35.1,45.1,34.1,45.1,32.8z M85.5,94.2v2.5
			H45.1v-2.5c0-1.3,1-2.3,2.3-2.3h35.9C84.5,91.9,85.5,92.9,85.5,94.2z M69.4,62.8C69.2,63,69,63.2,69,63.5c0,0.3,0.1,0.5,0.4,0.7
			c4.9,2.8,13,8.5,13,14.9v11.3H48.2V79c0-6.3,8.2-12,13-14.9c0.2-0.1,0.4-0.4,0.4-0.7c0-0.3-0.1-0.5-0.4-0.7
			c-4.9-2.8-13-8.5-13-14.9V36.6h34.2V48C82.4,54.3,74.2,60,69.4,62.8z"/>
		<path fill="#84DBFF" d="M69.8,83.2l-3.7-19.9l2.6-1.5c6.1-3.6,10.2-7.4,11.7-10.9H50.1c1.5,3.5,5.6,7.3,11.7,10.9l2.6,1.5
			l-3.7,19.9H49.5v5.9h31.6v-5.9H69.8z"/>
		<line fill="#FFFFFF" x1="86.3" y1="54.9" x2="94.6" y2="54.9"/>
		<path fill="#231F20" d="M94.6,55.6h-8.3c-0.4,0-0.8-0.3-0.8-0.8c0-0.4,0.3-0.8,0.8-0.8h8.3c0.4,0,0.8,0.3,0.8,0.8
			C95.4,55.3,95.1,55.6,94.6,55.6z"/>
		<line fill="#FFFFFF" x1="93.8" y1="57.9" x2="97.9" y2="57.9"/>
		<path fill="#231F20" d="M97.9,58.7h-4.1c-0.4,0-0.8-0.3-0.8-0.8c0-0.4,0.3-0.8,0.8-0.8h4.1c0.4,0,0.8,0.3,0.8,0.8
			C98.7,58.3,98.3,58.7,97.9,58.7z"/>
		<line fill="#FFFFFF" x1="98.4" y1="54.9" x2="102.3" y2="54.9"/>
		<path fill="#231F20" d="M102.3,55.6h-3.9c-0.4,0-0.8-0.3-0.8-0.8c0-0.4,0.3-0.8,0.8-0.8h3.9c0.4,0,0.8,0.3,0.8,0.8
			C103.1,55.3,102.7,55.6,102.3,55.6z"/>
		<line fill="#FFFFFF" x1="90.1" y1="57.9" x2="90.9" y2="57.9"/>
		<path fill="#231F20" d="M90.9,58.7h-0.8c-0.4,0-0.8-0.3-0.8-0.8c0-0.4,0.3-0.8,0.8-0.8h0.8c0.4,0,0.8,0.3,0.8,0.8
			C91.6,58.3,91.3,58.7,90.9,58.7z"/>
		<line fill="#FFFFFF" x1="26.7" y1="65.8" x2="35.1" y2="65.8"/>
		<path fill="#231F20" d="M35.1,66.6h-8.3c-0.4,0-0.8-0.3-0.8-0.8s0.3-0.8,0.8-0.8h8.3c0.4,0,0.8,0.3,0.8,0.8S35.5,66.6,35.1,66.6z"
			/>
		<line fill="#FFFFFF" x1="34.3" y1="68.8" x2="38.4" y2="68.8"/>
		<path fill="#231F20" d="M38.4,69.6h-4.1c-0.4,0-0.8-0.3-0.8-0.8c0-0.4,0.3-0.8,0.8-0.8h4.1c0.4,0,0.8,0.3,0.8,0.8
			C39.1,69.3,38.8,69.6,38.4,69.6z"/>
		<line fill="#FFFFFF" x1="38.9" y1="65.8" x2="42.8" y2="65.8"/>
		<path fill="#231F20" d="M42.8,66.6h-3.9c-0.4,0-0.8-0.3-0.8-0.8s0.3-0.8,0.8-0.8h3.9c0.4,0,0.8,0.3,0.8,0.8S43.2,66.6,42.8,66.6z"
			/>
		<line fill="#FFFFFF" x1="30.5" y1="68.8" x2="31.3" y2="68.8"/>
		<path fill="#231F20" d="M31.3,69.6h-0.8c-0.4,0-0.8-0.3-0.8-0.8c0-0.4,0.3-0.8,0.8-0.8h0.8c0.4,0,0.8,0.3,0.8,0.8
			C32.1,69.3,31.7,69.6,31.3,69.6z"/>
		<circle fill="#FFD05B" cx="20.2" cy="27.3" r="19.8"/>
		<path fill="#231F20" d="M4.7,27.3H3.2c0-0.4,0-0.7,0-1.1l1.5,0.1C4.7,26.7,4.7,27,4.7,27.3z M5,24.4l-1.5-0.3
			c0.1-0.3,0.1-0.7,0.2-1l1.5,0.4C5.1,23.8,5,24.1,5,24.4z M5.7,21.7l-1.4-0.6c0.1-0.3,0.3-0.7,0.4-1l1.4,0.6
			C6,21.1,5.9,21.4,5.7,21.7z M7,19.1l-1.3-0.8c0.2-0.3,0.4-0.6,0.6-0.9l1.2,0.9C7.4,18.5,7.2,18.8,7,19.1z M8.8,16.8l-1.1-1
			c0.2-0.3,0.5-0.5,0.7-0.8l1.1,1.1C9.2,16.3,9,16.5,8.8,16.8z M10.9,14.8L10,13.6c0.3-0.2,0.6-0.4,0.9-0.6l0.8,1.3
			C11.5,14.5,11.2,14.6,10.9,14.8z M13.4,13.3L12.7,12c0.3-0.2,0.6-0.3,1-0.4l0.6,1.4C14,13.1,13.7,13.2,13.4,13.3z M16.1,12.3
			l-0.4-1.5c0.3-0.1,0.7-0.2,1-0.2l0.3,1.5C16.7,12.1,16.4,12.2,16.1,12.3z M18.9,11.8l-0.1-1.5c0.4,0,0.7,0,1.1-0.1l0,1.5
			C19.6,11.8,19.3,11.8,18.9,11.8z"/>
		<path fill="#231F20" d="M20.2,44.4c-8.9,0-16.4-7-17-15.9l1.5-0.1c0.6,8.1,7.4,14.5,15.5,14.5c8.6,0,15.6-7,15.6-15.6
			c0-8.2-6.4-15-14.5-15.5l0.1-1.5c8.9,0.6,15.9,8.1,15.9,17C37.3,36.7,29.7,44.4,20.2,44.4z"/>
		<path fill="#231F20" d="M24.2,26.5H21v-6.2h3.2c1,0,1.8,0.8,1.8,1.8c0,0.4,0.3,0.8,0.8,0.8c0.4,0,0.8-0.3,0.8-0.8
			c0-1.8-1.5-3.3-3.3-3.3H21v-2.2c0-0.4-0.3-0.8-0.8-0.8c-0.4,0-0.8,0.3-0.8,0.8v2.2h-3.2c-1.8,0-3.3,1.5-3.3,3.3v2.7
			c0,1.8,1.5,3.3,3.3,3.3h3.2v6.2h-3.2c-1,0-1.8-0.8-1.8-1.8c0-0.4-0.3-0.8-0.8-0.8c-0.4,0-0.8,0.3-0.8,0.8c0,1.8,1.5,3.3,3.3,3.3
			h3.2v2.2c0,0.4,0.3,0.8,0.8,0.8c0.4,0,0.8-0.3,0.8-0.8v-2.2h3.2c1.8,0,3.3-1.5,3.3-3.3v-2.7C27.5,28,26,26.5,24.2,26.5z
			 M16.3,26.5c-1,0-1.8-0.8-1.8-1.8v-2.7c0-1,0.8-1.8,1.8-1.8h3.2v6.2H16.3z M26,32.5c0,1-0.8,1.8-1.8,1.8H21v-6.2h3.2
			c1,0,1.8,0.8,1.8,1.8V32.5z"/>
		<circle fill="#FF7058" cx="93" cy="72.9" r="1.7"/>
		<circle fill="#E6E9EE" cx="2.2" cy="99.5" r="1.7"/>
		<circle fill="#84DBFF" cx="123" cy="109.9" r="1.7"/>
		<circle fill="#FFD05B" cx="30.9" cy="127.8" r="1.7"/>
		<circle fill="#E6E9EE" cx="65.3" cy="22.7" r="1.7"/>
		<circle fill="#FF7058" cx="28.5" cy="1.7" r="1.7"/>
	</g>
</g>
</svg>
