<svg xmlns="http://www.w3.org/2000/svg" xmlns:xlink="http://www.w3.org/1999/xlink" width="700" height="250"><style><![CDATA[.Z{fill:#111}.a{fill:#fff}.b{fill:#3dc7d2}.c{fill:#ea572e}.d{fill:#7c7e82}.e{fill:#f3a52d}.f{fill-rule:evenodd}.g{fill:#e6e6e6}]]></style><defs><clipPath id="A"><use xlink:href="#B"/></clipPath><path id="B" d="M800 400V0H0v400h.378v400H800z"/><path id="C" d="M540.8 357.535h8.222v2H540.8z"/><path id="D" d="M540.8 351.46h5.097v2H540.8z"/></defs><g clip-path="url(#A)" transform="matrix(1.001607 0 0 .992134 -50.38633 -110.715797)"><path d="M561.327 363.45V197.87H540.8V363.45z" fill="#c7c7c7"/><g class="Z"><path d="M539.8 197.87h2V363.45h-2z"/><use xlink:href="#C"/><use xlink:href="#D"/><use xlink:href="#C" y="-12.375"/><use xlink:href="#D" y="-12.376"/><use xlink:href="#C" y="-24.75"/><use xlink:href="#D" y="-24.75"/><use xlink:href="#C" y="-37.135"/><use xlink:href="#D" y="-37.126"/><use xlink:href="#C" y="-49.5"/><use xlink:href="#D" y="-49.5"/><use xlink:href="#C" y="-61.875"/><use xlink:href="#D" y="-61.876"/><use xlink:href="#C" y="-74.25"/><use xlink:href="#D" y="-74.25"/><use xlink:href="#C" y="-86.635"/><use xlink:href="#D" y="-86.626"/><use xlink:href="#C" y="-99"/><use xlink:href="#D" y="-99"/><use xlink:href="#C" y="-111.375"/><use xlink:href="#D" y="-111.376"/><use xlink:href="#C" y="-123.75"/><use xlink:href="#D" y="-123.75"/><use xlink:href="#C" y="-136.135"/><use xlink:href="#D" y="-136.126"/><use xlink:href="#C" y="-148.5"/><use xlink:href="#D" y="-148.5"/></g><path d="M614.11 347.472v6.32a8.66 8.66 0 0 1-8.66 8.66 8.66 8.66 0 0 1-8.659-8.66v-6.32z" class="b"/><path d="M595.792 353.79v-7.318h19.32v7.318c0 5.326-4.334 9.66-9.66 9.66s-9.66-4.334-9.66-9.66zm2-5.318v5.318a7.67 7.67 0 0 0 7.659 7.66 7.67 7.67 0 0 0 7.66-7.66v-5.318z" class="Z"/><path d="M599.572 257.082v-24.13h11.76v24.13a2.78 2.78 0 0 1 2.78 2.78v87.61h-17.32v-87.61a2.78 2.78 0 0 1 2.78-2.78z" class="c"/><path d="M595.792 259.863c0-1.738 1.18-3.207 2.78-3.646v-24.264h13.76v24.264c1.6.44 2.78 1.908 2.78 3.646v88.61h-19.32zm17.32 0c0-.982-.8-1.78-1.78-1.78h-1v-24.13h-9.76v24.13h-1c-.98 0-1.78.8-1.78 1.78v86.61h15.32z" class="Z"/><path d="M605.45 232.952h-5.47c0-9.916-9.93-16.68-9.93-16.68l15.4-17.943 15.4 17.977s-9.93 6.73-9.93 16.646h-5.47z" class="g"/><path d="M598.98 232.953c0-9.258-9.398-15.79-9.493-15.854l-.922-.63 16.887-19.674 16.887 19.71-.925.63c-.095.064-9.49 6.563-9.49 15.818v1H598.98zm20.415-16.8l-13.944-16.275L591.51 216.1c2.432 1.906 8.937 7.734 9.44 15.844h9.005c.504-8.106 7.006-13.91 9.44-15.81z" class="Z"/><circle r="3.48" cy="217.297" cx="605.452" class="d"/><path d="M604.45 198.33h2v18.322h-2zm-4.878 57.752h4.1v2h-4.1zm5.768 0h2.117v2h-2.117z" class="Z"/><g class="f"><path d="M584.396 234.98l-.025 127.47h-15.195V234.98z" class="e"/><path d="M569.18 235.008c0-.01-.004-.018-.004-.026.002-.368 7.712-18.286 7.712-18.286l7.46 18.313h-15.17z" class="a"/></g><g class="Z"><path d="M585.16 235.6a1 1 0 0 1-.813.418H569.18a1 1 0 0 1-.995-.902 1.09 1.09 0 0 1-.008-.125c.012-.3-.043-.473 7.792-18.68a1 1 0 0 1 1.843.012l7.484 18.374c.035.104.053.214.053.32 0 .206-.064.4-.188.582zm-14.542-1.582h12.278l-6.027-14.74-6.25 14.74z"/><path d="M585.372 362.45a1 1 0 0 1-1 1h-15.195a1 1 0 0 1-1-1V234.98a1 1 0 0 1 1-1h15.22c.266 0 .52.105.707.293s.293.442.293.707zm-15.195-1h13.195l.024-125.47h-13.22v125.47zm11.01-135.8a1 1 0 0 1-.83.442h-7.065a1 1 0 0 1-.833-.447 1.01 1.01 0 0 1-.089-.941l3.598-8.532a1 1 0 0 1 1.849.012l3.468 8.533a1 1 0 0 1 .073.376 1.03 1.03 0 0 1-.17.557zm-6.4-1.557h4.072l-1.998-4.918z"/><path d="M578.394 235.496h2v45.486h-2zm0 70.682h2v56.165h-2zm-5.7 2.496h2v53.67h-2zm0-42.374h2v38.65h-2zm-.001-30.804h2v11.096h-2zm-301.396 92.3H262.2a3.08 3.08 0 0 1-2.199-.912 3.04 3.04 0 0 1-.9-2.2v-4.493a28.49 28.49 0 0 1-7.03-2.875l-3.16 3.16c-1.174 1.174-3.222 1.172-4.397 0l-6.447-6.447a3.09 3.09 0 0 1-.911-2.199c0-.832.323-1.6.9-2.2l3.17-3.17c-1.284-2.2-2.27-4.55-2.938-7.005h-4.468c-1.715 0-3.1-1.396-3.1-3.1v-9.117a3.11 3.11 0 0 1 3.1-3.108h4.484a28.92 28.92 0 0 1 2.876-7.032l-3.16-3.158c-1.212-1.213-1.212-3.186-.001-4.398l6.448-6.447c1.176-1.176 3.223-1.176 4.398 0l3.17 3.172a28.93 28.93 0 0 1 7.005-2.939v-4.467c0-1.715 1.395-3.1 3.1-3.1h9.117c1.715 0 3.1 1.396 3.1 3.1v4.484a28.86 28.86 0 0 1 7.031 2.875l3.158-3.16a3.19 3.19 0 0 1 4.398 0l6.447 6.447a3.09 3.09 0 0 1 .001 4.399l-3.17 3.172a28.93 28.93 0 0 1 2.939 7.004h4.467c1.715 0 3.1 1.396 3.1 3.1v9.115c0 1.715-1.395 3.1-3.1 3.1h-4.484a28.93 28.93 0 0 1-2.876 7.031l3.16 3.16a3.11 3.11 0 0 1 0 4.397l-6.446 6.447c-1.176 1.176-3.223 1.176-4.398 0l-3.17-3.172a28.98 28.98 0 0 1-7.006 2.94v4.467c.001 1.713-1.394 3.1-3.1 3.1zm-19.57-13l.67.408a27 27 0 0 0 7.898 3.229l.772.182v6.06a1.1 1.1 0 0 0 1.109 1.11h9.117a1.11 1.11 0 0 0 1.109-1.11v-6.028l.764-.186a26.92 26.92 0 0 0 7.868-3.303l.654-.406.56.53 3.745 3.744a1.14 1.14 0 0 0 1.57 0l6.446-6.447a1.11 1.11 0 0 0 0-1.57l-4.263-4.262.408-.672a26.99 26.99 0 0 0 3.23-7.898l.18-.77h6.06a1.11 1.11 0 0 0 1.109-1.111V287.2a1.11 1.11 0 0 0-1.109-1.111h-6.028l-.186-.763a26.94 26.94 0 0 0-3.303-7.868l-.43-.693.594-.56 3.704-3.705a1.1 1.1 0 0 0 .325-.785c0-.296-.115-.574-.325-.785l-6.446-6.447a1.14 1.14 0 0 0-1.571.002l-4.262 4.262-.672-.408a26.7 26.7 0 0 0-7.897-3.23l-.772-.182v-6.06a1.11 1.11 0 0 0-1.11-1.111h-9.117a1.11 1.11 0 0 0-1.109 1.111v6.027l-.764.186a26.92 26.92 0 0 0-7.868 3.303l-.674.418-4.285-4.284c-.42-.42-1.15-.42-1.57 0l-6.447 6.446c-.432.432-.432 1.137.001 1.57l4.262 4.263-.408.67c-1.5 2.445-2.575 5.104-3.23 7.898l-.18.772h-6.06a1.11 1.11 0 0 0-1.109 1.108v9.117a1.11 1.11 0 0 0 1.109 1.111h6.028l.186.764a26.97 26.97 0 0 0 3.303 7.867l.43.694-.594.56-3.704 3.705a1.1 1.1 0 0 0-.325.785c0 .297.115.574.325.785l6.447 6.447c.417.416 1.15.418 1.57 0z"/></g><path d="M266.725 315.18c12.923 0 23.4-10.48 23.4-23.4s-10.477-23.4-23.4-23.4-23.4 10.477-23.4 23.4 10.477 23.4 23.4 23.4z" class="c f"/><path d="M266.736 310.5l-.037-2.002.12.006c.842-.004 1.772-.08 2.684-.232l.328 1.973a18.99 18.99 0 0 1-3.095.255zm-4.2-.475a18.4 18.4 0 0 1-2.997-.959l.77-1.846c.865.36 1.765.648 2.673.856zm11.327-.93l-.762-1.85c.864-.355 1.705-.79 2.497-1.285l1.063 1.695a18.86 18.86 0 0 1-2.798 1.44zm-17.987-2.065a18.76 18.76 0 0 1-2.397-2.033l1.416-1.412c.66.662 1.382 1.274 2.144 1.818zm24.065-1.982l-1.4-1.417a16.79 16.79 0 0 0 1.819-2.142l1.627 1.162a18.59 18.59 0 0 1-2.036 2.397zm-29.072-3.33a18.65 18.65 0 0 1-1.441-2.795l1.848-.764a16.75 16.75 0 0 0 1.289 2.496zm33.146-2.725l-1.846-.77c.36-.865.65-1.764.86-2.672l1.95.447a18.56 18.56 0 0 1-.962 2.996zm-35.742-4.1c-.17-1.023-.258-2.072-.258-3.113l2-.018v.018a16.93 16.93 0 0 0 .23 2.783zm35.183-3.06l.002-.107c-.001-.873-.076-1.797-.226-2.697l1.973-.326a18.84 18.84 0 0 1 .252 3.076zm-33.022-3.793l-1.95-.443c.23-1.02.554-2.028.956-2.998l1.848.768a16.53 16.53 0 0 0-.855 2.673zm31.775-2.61c-.354-.86-.786-1.703-1.283-2.5l1.697-1.06c.556.89 1.04 1.834 1.436 2.8zm-29.107-3.332l-1.63-1.16c.607-.854 1.3-1.66 2.03-2.4l1.414 1.414c-.66.66-1.272 1.382-1.815 2.146zm25.498-2.1a16.88 16.88 0 0 0-2.14-1.822l1.164-1.625a18.97 18.97 0 0 1 2.396 2.037zm-20.757-2.383l-1.064-1.692c.89-.56 1.83-1.046 2.795-1.445l.766 1.847c-.863.357-1.703.792-2.497 1.3zm15.352-1.263c-.863-.362-1.763-.652-2.67-.86l.45-1.95a18.41 18.41 0 0 1 2.995.967zm-9.26-1.06l-.332-1.972a18.95 18.95 0 0 1 3.132-.261l.073 2h-.073a17.12 17.12 0 0 0-2.8.233z" class="Z"/><path d="M630.288 189.336c3.085 0 5.946.912 8.3 2.543 1.603-1.82 3.807-3.113 6.308-3.53-.104-.702-.157-1.426-.157-2.156 0-8.087 6.557-14.652 14.646-14.652a14.65 14.65 0 0 1 14.648 14.645c0 1.194-.146 2.352-.416 3.46 1.083-.255 2.215-.3 3.377-.3 8.1 0 14.646 6.727 14.646 14.73h-76.012c.001-8.004 6.557-14.73 14.65-14.73z" class="g"/><path d="M692.65 205.066h-27.1v-2h25.074c-.512-7.105-6.42-12.73-13.6-12.73v-2c8.628 0 15.646 7.057 15.646 15.73zm-23.186-28.1a13.64 13.64 0 0 0-4.34-3.18l.84-1.814a15.59 15.59 0 0 1 4.976 3.643zm-22.06 2.702l-1.756-.957a15.62 15.62 0 0 1 8.742-7.352l.64 1.895c-3.262 1.1-5.97 3.38-7.626 6.414zm-5.945 25.398h-26.82v-1c0-8.674 7.02-15.73 15.65-15.73 2.934 0 5.735.775 8.155 2.252a11.84 11.84 0 0 1 2.475-1.869l.986 1.74a9.9 9.9 0 0 0-2.557 2.081l-.587.667-.73-.505c-2.24-1.548-4.918-2.366-7.74-2.366-7.192 0-13.103 5.625-13.614 12.73h24.785zm4.18-2h9.085v2h-9.085z" class="Z"/><path d="M116.268 175.994v-6.968l5.868-3.484 5.868 3.484v6.968l-5.868 3.485z" class="b"/><path d="M132.98 175.994v-6.968l6.134-3.484 6.135 3.484v6.968l-6.135 3.485z" class="e"/><g class="Z"><path d="M122.136 183.592l-9.215-5.6v-11.11l9.215-5.6 9.215 5.6v11.11zm-7.215-6.725l7.215 4.385 7.215-4.385v-8.86l-7.215-4.385-7.215 4.385z"/><path d="M139.113 183.572L129.35 178v-11.146l9.762-5.563 9.762 5.563V178zm-7.762-6.723l7.762 4.423 7.762-4.423v-8.82l-7.762-4.423-7.762 4.423zm-10.215 5.44h2v11.227h-2z"/><path d="M113.214 176.35l1.414 1.414-7.938 7.938-1.414-1.414zm41.893-17.526l1.414 1.414-7.938 7.938-1.414-1.414zm-48.422 0l7.938 7.938-1.414 1.414-7.938-7.938z"/></g><path d="M171.046 310.682h64.02v51.984h-64.02z" class="c"/><path d="M234.065 313.72h2v15.238h-2zM170.1 347.558h2v15.238h-2z" class="Z"/><path d="M235.668 314.546h-68.8v-11h68.8c13.986 0 22.72-9.054 26.23-17.525s3.735-21.05-6.154-30.938L225.55 224.9l7.778-7.777 30.193 30.193c11.48 11.48 14.75 27.927 8.54 42.926s-20.157 24.314-36.392 24.314z" class="e"/><path d="M185.052 252.72l-4.346-5.627a6.9 6.9 0 0 1 1.245-9.677l.11-.085a6.9 6.9 0 0 1 9.676 1.245l4.344 5.626a6.9 6.9 0 0 1-1.241 9.674l-.1.086a6.9 6.9 0 0 1-9.679-1.242z" class="c"/><path d="M196.103 255.896l-15.106-19.563a7.39 7.39 0 0 1 1.331-10.361l10.7-8.264 24.135 31.26-10.696 8.26a7.39 7.39 0 0 1-10.363-1.332z" class="d"/><path d="M259.148 196.2l-5.167-6.7c-2.225-2.882-1.693-7.02 1.188-9.247l.106-.08c2.88-2.227 7.022-1.695 9.248 1.188l5.166 6.69c2.225 2.882 1.693 7.02-1.19 9.247l-.105.08c-2.882 2.224-7.022 1.693-9.247-1.2z" class="b"/><path d="M213.49 251.807l-24.138-31.262 56.427-43.568c2.346-1.813 5.717-1.38 7.53.97l17.574 22.758a5.37 5.37 0 0 1-.968 7.53z" class="e"/><path d="M213.3 253.2l-25.36-32.844 57.218-44.18a6.3 6.3 0 0 1 3.888-1.328 6.31 6.31 0 0 1 5.044 2.477l17.574 22.758a6.33 6.33 0 0 1-1.148 8.934zm-22.556-32.483l22.916 29.678 55.633-42.962c.924-.713 1.514-1.742 1.663-2.9a4.34 4.34 0 0 0-.875-3.227l-17.574-22.758a4.34 4.34 0 0 0-3.461-1.699 4.38 4.38 0 0 0-2.666.9zm55.736-36.712l1.223 1.583-17.53 13.54-1.223-1.583zm-.012 6.773l1.223 1.584-11.114 8.58-1.223-1.584z" class="Z"/><path d="M254.523 238.18c-3.147 8.377-12.485 12.618-20.862 9.47a16.21 16.21 0 0 1-9.476-20.868c3.147-8.377 12.495-12.617 20.873-9.47s12.612 12.49 9.465 20.867z" class="b"/><path d="M239.355 239.13a6.61 6.61 0 0 1-2.335-.426 6.66 6.66 0 0 1-3.887-8.563c.97-2.578 3.47-4.31 6.224-4.31.798 0 1.585.143 2.34.426 1.662.625 2.98 1.86 3.715 3.476a6.61 6.61 0 0 1 .169 5.085c-.97 2.58-3.47 4.313-6.225 4.313zm.001-11.3a4.67 4.67 0 0 0-4.352 3.014 4.66 4.66 0 0 0 2.718 5.988c.527.197 1.076.297 1.632.297 1.926 0 3.675-1.21 4.353-3.016.437-1.162.395-2.425-.118-3.555s-1.436-1.994-2.598-2.43c-.527-.198-1.077-.298-1.635-.298z" class="Z"/><path d="M698.56 362.666S690.59 347 668.44 347s-30.12 15.666-30.12 15.666z" class="d"/><path d="M668.44 339.914c-24.686 0-47.41-14.456-57.892-36.828l1.81-.85c10.154 21.673 32.168 35.677 56.08 35.677 34.14 0 61.912-27.773 61.912-61.912s-27.773-61.913-61.912-61.913v-2c35.24 0 63.912 28.67 63.912 63.913s-28.67 63.912-63.912 63.912z" class="Z"/><circle r="54.913" cy="276.002" cx="668.439" class="b"/><g class="a"><path d="M659.713 330.637c-2.607 0-5.175-.38-7.632-1.133-9.767-2.984-17.132-11.47-20.74-23.893-3.5-12.047-3.05-26.453 1.266-40.564 7.737-25.31 26.478-43.68 44.56-43.68 2.607 0 5.175.38 7.632 1.13 19.758 6.04 28.494 34.957 19.475 64.46-7.74 25.3-26.48 43.68-44.56 43.68zm17.452-104.27c-15.938 0-32.666 16.88-39.777 40.14-4.033 13.193-4.476 26.586-1.245 37.71 3.12 10.748 9.302 18.03 17.4 20.506 1.983.606 4.06.914 6.17.914 15.937 0 32.666-16.883 39.777-40.143 8.213-26.865.966-52.98-16.155-58.215-1.983-.605-4.06-.912-6.17-.912z"/><path d="M654.086 329.8c-.688 0-1.362-.1-2.005-.297-10.887-3.328-8.354-31.984-.226-58.572 7.176-23.47 19.917-48.73 30.937-48.73.688 0 1.362.1 2.004.296 10.888 3.33 8.354 31.986.226 58.573-7.175 23.47-19.917 48.73-30.936 48.73zm28.706-102.6c-5.173 0-17.14 15.705-26.155 45.19-9.093 29.74-7.905 50.858-3.094 52.33a1.81 1.81 0 0 0 .543.078c5.173 0 17.14-15.705 26.154-45.19 9.093-29.74 7.906-50.857 3.094-52.33-.17-.05-.348-.077-.542-.077z"/><path d="M689.758 262.04a55.68 55.68 0 0 1-16.3-2.43c-14.734-4.504-27.078-15.02-33.865-28.85a2.5 2.5 0 1 1 4.489-2.203c6.272 12.78 17.224 22.1 30.84 26.27s27.912 2.55 40.258-4.535a2.5 2.5 0 0 1 3.412.924 2.5 2.5 0 0 1-.924 3.412c-8.536 4.9-18.196 7.4-27.9 7.4zm5.17 62.86a2.5 2.5 0 0 1-2.244-1.394C686.4 310.8 675.48 301.5 661.9 297.362s-27.828-2.56-40.14 4.473a2.5 2.5 0 1 1-2.48-4.342 56.13 56.13 0 0 1 44.082-4.912c14.688 4.5 27.007 14.96 33.8 28.723a2.5 2.5 0 0 1-2.241 3.606zm24.582-30.785a2.47 2.47 0 0 1-.73-.11l-102.184-31.24a2.5 2.5 0 0 1-1.66-3.122 2.5 2.5 0 0 1 3.121-1.659l102.184 31.24a2.5 2.5 0 0 1-.73 4.89z"/></g><g class="Z"><path d="M668.5 331.94c-5.493 0-11.016-.818-16.417-2.47-20.652-6.313-35.966-24.22-39.015-45.622l1.98-.282c2.94 20.637 17.705 37.904 37.618 43.992a53.56 53.56 0 0 0 41.073-3.955 53.55 53.55 0 0 0 26.246-31.84c8.7-28.428-7.366-58.627-35.794-67.32-9.396-2.87-19.374-3.13-28.86-.745l-.488-1.94c9.84-2.475 20.2-2.207 29.932.77 29.483 9.016 46.137 40.335 37.122 69.818-4.366 14.28-14.033 26.008-27.22 33.02-8.198 4.36-17.148 6.572-26.178 6.572zm-42.27-89.483l-1.566-1.244c3.205-4.03 6.958-7.603 11.154-10.613l1.166 1.625c-4.046 2.903-7.664 6.345-10.754 10.232z"/><path d="M612.582 277.54a55.85 55.85 0 0 1 6.199-27.498l1.777.92a53.85 53.85 0 0 0-5.979 26.511zm54.858 53.374h2v18.752h-2zm21.13-119.39l1.912.586-4.305 14.048-1.912-.586z"/></g><g class="d"><path d="M368.094 303.51h66.85v49.16h-66.85z" class="f"/><path d="M321.534 349.53H481.28v12.137H321.534z"/><path d="M280.144 148.368h242.75c6.83 0 12.42 5.59 12.42 12.42v132.1c0 6.83-5.59 12.42-12.42 12.42h-242.75c-6.83 0-12.42-5.6-12.42-12.42v-132.1a12.46 12.46 0 0 1 12.419-12.421z" class="f"/></g><path d="M389.05 290.76h24.935v2H389.05zm133.845 15.55h-94.402v-2h94.402c6.296 0 11.42-5.123 11.42-11.42V160.8c0-6.298-5.123-11.42-11.42-11.42h-242.75c-6.297 0-11.42 5.123-11.42 11.42v132.1c0 6.298 5.123 11.42 11.42 11.42h106.548v2h-106.55a13.44 13.44 0 0 1-13.419-13.421V160.8a13.44 13.44 0 0 1 13.419-13.421h242.75a13.44 13.44 0 0 1 13.419 13.421v132.1a13.44 13.44 0 0 1-13.419 13.421zm-119.96-2h17.64v2h-17.64z" class="Z"/><path d="M277.732 158.922h247.573v120.9H277.732z" class="a f"/><path d="M321.534 347.53h82.508v2h-82.508zm106.958 0h12.68v2h-12.68z" class="Z"/><path d="M492.983 170.752h19.524v31.117h-19.524zm-202.453 0H479.2v31.117H290.53zm0 40.84h52.335V242.7H290.53zm61.975 0h160.003V242.7H352.505zm-61.975 41.814H512.5v14.587H290.53z" class="g"/><g class="Z"><path d="M522.004 320.896a27.22 27.22 0 0 1-1.998-.074c-7.135-.52-13.647-3.795-18.338-9.222s-6.98-12.347-6.462-19.482a26.68 26.68 0 0 1 9.262-18.367 26.88 26.88 0 0 1 19.444-6.424c7.133.52 13.643 3.794 18.33 9.22s6.983 12.344 6.463 19.48c-.266 3.66-1.25 7.154-2.924 10.383a26.56 26.56 0 0 1-3.837 5.536l-.5.565-.01-.005c-.622.658-1.288 1.293-1.985 1.893a26.61 26.61 0 0 1-2.68 2.034c-4.382 2.92-9.485 4.464-14.755 4.464zm-.1-51.642c-5.9 0-11.632 2.135-16.14 6.013a24.7 24.7 0 0 0-8.572 16.998 24.68 24.68 0 0 0 5.981 18.028c4.34 5.023 10.368 8.054 16.97 8.535 5.5.4 10.936-1.02 15.5-4.062a24.74 24.74 0 0 0 2.482-1.884 24.66 24.66 0 0 0 2.316-2.274l.4-.46c1.227-1.433 2.283-2.997 3.146-4.66a24.65 24.65 0 0 0 2.705-9.607 24.66 24.66 0 0 0-5.981-18.025c-4.34-5.022-10.364-8.053-16.964-8.533a24.98 24.98 0 0 0-1.853-.068zm18.252 33.644l-1.775-.92c1.036-1.998 1.646-4.162 1.8-6.432l1.994.145a18.46 18.46 0 0 1-2.03 7.207z"/><path d="M532.225 310.852l-.928-1.77a16.57 16.57 0 0 0 1.502-.891 16.71 16.71 0 0 0 1.662-1.262c.544-.468 1.565-1.536 1.576-1.547l1.445 1.383-1.717 1.68a18.91 18.91 0 0 1-1.859 1.412 19.04 19.04 0 0 1-1.681.996zm8.475 1.1l3.74 3.738-1.414 1.414-3.74-3.738z"/></g><path d="M547.58 311.954l30.285 30.285-8.45 8.45-30.285-30.286z" class="e"/><path d="M584.688 185.172h-7.594a2.7 2.7 0 0 1-2.72-2.721v-3.635a24.21 24.21 0 0 1-5.704-2.332l-2.56 2.56c-1.027 1.026-2.82 1.027-3.848 0l-5.37-5.37c-1.06-1.062-1.06-2.787 0-3.848l2.57-2.57c-1.035-1.79-1.834-3.693-2.384-5.683h-3.62c-1.5 0-2.72-1.22-2.72-2.72v-7.594c0-1.5 1.22-2.72 2.72-2.72h3.635c.533-1.996 1.315-3.91 2.332-5.703l-2.56-2.56c-1.06-1.06-1.06-2.786-.001-3.848l5.37-5.37c1.027-1.027 2.82-1.027 3.848.001l2.57 2.57a24.26 24.26 0 0 1 5.683-2.385v-3.62c0-1.5 1.22-2.722 2.72-2.722h7.593c1.5 0 2.72 1.22 2.72 2.722v3.635a24.24 24.24 0 0 1 5.704 2.331l2.56-2.56a2.79 2.79 0 0 1 3.848-.001l5.37 5.368c1.06 1.062 1.06 2.787 0 3.848l-2.57 2.57c1.034 1.79 1.834 3.693 2.384 5.683h3.62c1.5 0 2.72 1.22 2.72 2.72v7.594c0 1.5-1.22 2.72-2.72 2.72h-3.634c-.533 1.996-1.315 3.908-2.333 5.703l2.56 2.56a2.7 2.7 0 0 1 .797 1.924 2.7 2.7 0 0 1-.797 1.924l-5.37 5.37c-1.025 1.027-2.82 1.028-3.847-.001l-2.57-2.57c-1.79 1.035-3.694 1.834-5.683 2.385v3.62c0 1.5-1.22 2.72-2.72 2.72zm-16.317-11.11l.646.393c2.025 1.233 4.227 2.133 6.54 2.674l.744.174V182.452c0 .212.082.41.232.56s.35.233.56.233h7.594c.438 0 .794-.356.794-.794v-5.123l.735-.18c2.303-.56 4.495-1.48 6.514-2.733l.65-.403 3.643 3.64a.81.81 0 0 0 1.121.001l5.37-5.37a.79.79 0 0 0 0-1.123l-3.624-3.623.395-.646a22.34 22.34 0 0 0 2.674-6.54l.174-.744h5.15c.438 0 .794-.356.794-.794v-7.594c0-.438-.355-.793-.794-.793h-5.12l-.18-.736c-.56-2.304-1.48-4.496-2.735-6.514l-.402-.65 3.642-3.642c.3-.3.3-.814 0-1.123l-5.368-5.37c-.3-.3-.824-.3-1.124 0l-3.622 3.622-.646-.394a22.35 22.35 0 0 0-6.54-2.673l-.744-.174v-5.15c0-.438-.355-.794-.794-.794h-7.593c-.438 0-.794.355-.794.794v5.122l-.735.18c-2.305.56-4.497 1.48-6.515 2.734l-.64.396-.54-.522-3.112-3.11a.81.81 0 0 0-1.122 0l-5.37 5.368c-.3.3-.3.813 0 1.123l3.622 3.622-.394.646c-1.232 2.025-2.132 4.226-2.673 6.54l-.174.744h-5.15c-.438 0-.794.356-.794.794v7.594c0 .438.356.793.794.793h5.122l.18.736a22.35 22.35 0 0 0 2.734 6.515l.402.65-3.642 3.64c-.3.31-.3.814.001 1.123l5.368 5.37c.3.3.823.3 1.123 0z" class="Z"/><path d="M580.87 166.67c6.425 0 11.633-5.21 11.633-11.633s-5.208-11.633-11.633-11.633-11.633 5.208-11.633 11.633 5.21 11.633 11.633 11.633z" class="e f"/><path d="M580.882 171.36l-.032-2h.032a14.37 14.37 0 0 0 2.707-.256l.377 1.964a16.37 16.37 0 0 1-3.084.292zm-4.17-.538a16.29 16.29 0 0 1-2.938-1.088l.872-1.8a14.62 14.62 0 0 0 2.577.954zm11.22-1.06l-.864-1.803a14.38 14.38 0 0 0 2.353-1.422l1.194 1.604a16.32 16.32 0 0 1-2.683 1.621zm-17.65-2.313a16.55 16.55 0 0 1-2.176-2.253l1.564-1.246a14.47 14.47 0 0 0 1.911 1.979zm23.334-2.202l-1.56-1.252a14.55 14.55 0 0 0 1.507-2.298l1.77.93a16.24 16.24 0 0 1-1.718 2.62zm-27.672-3.62c-.422-.957-.753-1.958-.982-2.976l1.95-.44a14.27 14.27 0 0 0 .862 2.609zm30.843-2.912l-1.95-.448a14.44 14.44 0 0 0 .356-2.727l2 .07a16.27 16.27 0 0 1-.406 3.106zm-30.22-4.15l-2-.066c.034-1.048.17-2.093.4-3.105l1.95.445a14.54 14.54 0 0 0-.351 2.726zm28.3-2.67a14.39 14.39 0 0 0-.857-2.61l1.832-.805a16.43 16.43 0 0 1 .977 2.979zm-26.672-3.5l-1.77-.928c.483-.924 1.06-1.806 1.713-2.623l1.563 1.25a14.26 14.26 0 0 0-1.505 2.3zm23.925-2.256c-.57-.72-1.2-1.386-1.907-1.984l1.304-1.516a16.47 16.47 0 0 1 2.17 2.256zm-19.8-2.592l-1.196-1.603a16.34 16.34 0 0 1 2.678-1.625l.868 1.8a14.44 14.44 0 0 0-2.35 1.427zm14.825-1.402a14.36 14.36 0 0 0-2.575-.959l.514-1.932a16.19 16.19 0 0 1 2.938 1.094zm-9-1.176l-.38-1.964c1.02-.197 2.07-.297 3.117-.297l.063 2-.086-.001a14.5 14.5 0 0 0-2.714.262zM440.4 116.55h19v2h-19zm-153.03 18.477l-1.414-1.414 3.5-3.5a3.83 3.83 0 0 1 5.454.005l1.344 1.35c.363.364.815.56 1.365.544.517-.015 1-.235 1.333-.622l1.252-1.4a3.86 3.86 0 0 1 2.854-1.295c1.073-.002 2.137.447 2.873 1.253l1.32 1.444c.365.4.887.626 1.406.604a1.83 1.83 0 0 0 1.381-.661l1.052-1.252a3.85 3.85 0 0 1 2.848-1.374c1.082-.035 2.166.415 2.918 1.22l1.388 1.484a1.87 1.87 0 0 0 1.411.588c.542-.018 1.03-.257 1.374-.674l.998-1.214a3.89 3.89 0 0 1 2.8-1.4 3.83 3.83 0 0 1 2.91 1.125l3.736 3.736-1.414 1.414-3.736-3.736a1.82 1.82 0 0 0-1.399-.541 1.83 1.83 0 0 0-1.342.673l-.998 1.213a3.85 3.85 0 0 1-2.855 1.4c-1.112.018-2.178-.4-2.935-1.22l-1.388-1.484c-.367-.393-.857-.598-1.403-.587a1.83 1.83 0 0 0-1.37.661l-1.052 1.252a3.85 3.85 0 0 1-2.87 1.375c-1.096.01-2.176-.434-2.925-1.254l-1.32-1.444c-.358-.394-.894-.63-1.382-.603a1.83 1.83 0 0 0-1.372.622l-1.252 1.4a3.87 3.87 0 0 1-2.771 1.293 3.88 3.88 0 0 1-2.839-1.132l-1.344-1.348c-.352-.352-.808-.583-1.313-.545a1.84 1.84 0 0 0-1.31.542z" class="Z"/><path d="M104.498 209.596h-2.094a11.17 11.17 0 0 0-1.368-3.26l1.488-1.488a.84.84 0 0 0 0-1.191l-2.575-2.576c-.33-.33-.863-.33-1.193 0l-1.48 1.48c-1.027-.625-2.133-1.07-3.272-1.338v-2.104c0-.466-.377-.844-.843-.844h-3.643c-.466 0-.843.378-.843.844v2.094c-1.17.285-2.266.752-3.26 1.37l-.007-.008-1.48-1.48c-.33-.33-.863-.33-1.192 0l-2.576 2.576a.84.84 0 0 0 0 1.191l1.48 1.48c-.625 1.027-1.07 2.133-1.337 3.272h-2.105c-.465 0-.843.377-.843.843v3.643c0 .466.377.843.843.843h2.095a11.16 11.16 0 0 0 1.368 3.26l-.006.008-1.48 1.48c-.33.33-.33.863 0 1.192l2.576 2.575a.84.84 0 0 0 1.192 0l1.48-1.48c1.027.625 2.133 1.07 3.272 1.338v2.104c0 .466.377.844.843.844h3.643c.465 0 .843-.377.843-.844v-2.094c1.17-.284 2.266-.75 3.26-1.368l1.488 1.487a.84.84 0 0 0 1.192 0l2.576-2.575c.33-.33.33-.862 0-1.192l-1.48-1.48c.625-1.027 1.072-2.134 1.338-3.273h2.104c.466 0 .843-.377.843-.843v-3.643c-.003-.466-.38-.843-.846-.843z" class="c"/><path d="M91.353 220.35l-.042-2h.042a6.03 6.03 0 0 0 2.601-.583l.857 1.807a8.02 8.02 0 0 1-3.458.776zm-4.584-1.426c-1-.684-1.83-1.597-2.43-2.64l1.734-.994a6.15 6.15 0 0 0 1.83 1.988zm11.55-2.56l-1.724-1.015a6 6 0 0 0 .816-2.573l1.993.165c-.1 1.22-.466 2.37-1.085 3.423zm-13.03-4.567l-1.994-.152a7.98 7.98 0 0 1 1.066-3.43l1.73 1.006a5.99 5.99 0 0 0-.801 2.576zm11.358-2.517a6.15 6.15 0 0 0-1.819-1.999l1.146-1.64c.987.7 1.822 1.607 2.415 2.655zm-7.93-2.493l-.867-1.8a8 8 0 0 1 3.501-.797l.082 1-.082 1a6.04 6.04 0 0 0-2.634.598zm507.367-95.103h19v2h-19zm-50.854 76.102h19v2h-19zM124.022 142.5h19v2h-19zM689.06 343.322h19v2h-19zM129.74 204.864h19v2h-19zm101.987-52.63h19v2h-19zM71.396 237.13h33.56v2h-33.56zm118.15-56.243h2v19.867h-2zM182.4 185.3h2v15.453h-2zm-7.166 4.308h2v11.146h-2zm-7.157 4.192h2v6.955h-2zm483.778-35.878h19v2h-19zm22.667 0h8.5v2h-8.5zm16.408 5.26a4.26 4.26 0 0 1 0-8.52c2.35 0 4.26 1.912 4.26 4.26a4.27 4.27 0 0 1-4.26 4.26zm0-6.52c-1.246 0-2.26 1.014-2.26 2.26s1.014 2.26 2.26 2.26 2.26-1.014 2.26-2.26-1.014-2.26-2.26-2.26zm-197.264-22.635h19v2h-19zm-12.166 0h8.5v2h-8.5zm-7.907 5.26a4.26 4.26 0 1 1 4.26-4.26 4.26 4.26 0 0 1-4.26 4.26zm0-6.52c-1.246 0-2.26 1.014-2.26 2.26s1.014 2.26 2.26 2.26 2.26-1.014 2.26-2.26-1.015-2.26-2.26-2.26zM119.24 220h19v2h-19zm22.665 0h8.5v2h-8.5zm16.407 5.26a4.26 4.26 0 0 1-4.26-4.26 4.25 4.25 0 0 1 4.26-4.26 4.26 4.26 0 1 1 0 8.52zm0-6.52c-1.246 0-2.26 1.014-2.26 2.26s1.014 2.26 2.26 2.26 2.26-1.014 2.26-2.26-1.014-2.26-2.26-2.26zm52.246-84.713h19v2h-19zm-12.158 0h8.5v2h-8.5zm-7.907-3.26a4.26 4.26 0 0 1 4.26 4.26 4.25 4.25 0 0 1-4.26 4.26 4.26 4.26 0 0 1 0-8.52zm0 6.52c1.246 0 2.26-1.014 2.26-2.26s-1.014-2.26-2.26-2.26-2.26 1.014-2.26 2.26 1.014 2.26 2.26 2.26zm487.553-1.113l-7.02-5.436-6.562 6.168-7.507-6.218-6.745 6.22-7.32-6.204-6.908 6.025-7.144-5.55-6.517 5.045-1.224-1.58 7.743-5.997 7.07 5.492 6.962-6.072 7.284 6.172 6.73-6.206 7.494 6.208 6.52-6.13 8.372 6.482zM214.8 286.723c-.76 0-1.477-.297-2.015-.834l-2.032-2.033a2.85 2.85 0 0 1 0-4.027l2.033-2.033c1.075-1.075 2.952-1.076 4.028 0l2.033 2.033a2.85 2.85 0 0 1 0 4.027l-2.033 2.033c-.538.537-1.253.834-2.014.834zm0-7.762a.84.84 0 0 0-.6.248l-2.033 2.033a.85.85 0 0 0 0 1.199l2.033 2.033a.87.87 0 0 0 1.199 0l2.033-2.033a.85.85 0 0 0 0-1.199l-2.033-2.033a.84.84 0 0 0-.599-.248zm-53.04-125.726a2.83 2.83 0 0 1-2.015-.835l-2.032-2.03a2.87 2.87 0 0 1 0-4.028l2.033-2.032a2.92 2.92 0 0 1 4.028 0l2.033 2.032a2.85 2.85 0 0 1 0 4.028l-2.033 2.03a2.82 2.82 0 0 1-2.014.835zm0-7.76c-.227 0-.44.1-.6.25l-2.033 2.032a.85.85 0 0 0 0 1.2l2.033 2.03a.87.87 0 0 0 1.2 0l2.033-2.03a.85.85 0 0 0 0-1.2l-2.033-2.032a.84.84 0 0 0-.599-.249zm428.722 57.94a2.83 2.83 0 0 1-2.014-.834l-2.033-2.033a2.85 2.85 0 0 1 0-4.027l2.033-2.033a2.92 2.92 0 0 1 4.027 0l2.033 2.033a2.85 2.85 0 0 1 0 4.027l-2.033 2.033a2.83 2.83 0 0 1-2.013.834zm0-7.762a.84.84 0 0 0-.6.248l-2.033 2.033a.85.85 0 0 0 0 1.199l2.033 2.033c.32.318.878.32 1.2 0l2.033-2.033a.85.85 0 0 0 0-1.199l-2.033-2.033a.84.84 0 0 0-.599-.248zm-52.552-68.368c-.762 0-1.477-.297-2.015-.834l-2.032-2.033a2.85 2.85 0 0 1 0-4.027l2.032-2.033a2.92 2.92 0 0 1 4.028 0l2.032 2.033a2.85 2.85 0 0 1 0 4.027l-2.032 2.033a2.83 2.83 0 0 1-2.013.834zm0-7.762a.84.84 0 0 0-.6.248l-2.032 2.033a.85.85 0 0 0 0 1.199l2.032 2.033c.32.318.88.32 1.2 0l2.032-2.033a.85.85 0 0 0 0-1.199l-2.032-2.033a.84.84 0 0 0-.599-.248zm87.517 54.295c-.762 0-1.477-.297-2.015-.834l-2.032-2.033a2.85 2.85 0 0 1 0-4.027l2.032-2.033c1.075-1.076 2.952-1.076 4.028 0l2.032 2.033a2.85 2.85 0 0 1 0 4.027l-2.032 2.033a2.83 2.83 0 0 1-2.013.834zm0-7.76a.84.84 0 0 0-.6.248l-2.032 2.033a.85.85 0 0 0 0 1.199l2.032 2.033c.32.318.88.32 1.2 0l2.032-2.033a.85.85 0 0 0 0-1.199l-2.032-2.033a.84.84 0 0 0-.599-.248z" class="Z"/><path d="M745.84 335.572h-2.094c-.284-1.168-.75-2.266-1.37-3.26l.007-.006 1.48-1.48c.33-.33.33-.863 0-1.192l-2.575-2.576c-.33-.328-.863-.33-1.192 0l-1.48 1.48c-1.027-.626-2.133-1.07-3.272-1.338v-2.105c0-.465-.377-.843-.843-.843h-3.643c-.466 0-.843.378-.843.843v2.095c-1.17.284-2.267.75-3.26 1.368l-1.488-1.488c-.33-.328-.863-.328-1.192 0l-2.575 2.576a.84.84 0 0 0 0 1.192l1.48 1.48a11.22 11.22 0 0 0-1.338 3.271h-2.104c-.466 0-.844.378-.844.844v3.643c0 .465.378.843.844.843h2.094c.284 1.17.75 2.267 1.368 3.26l-1.487 1.487c-.33.33-.33.863 0 1.193l2.575 2.575c.33.33.863.33 1.192 0l1.48-1.48c1.028.626 2.134 1.072 3.273 1.338v2.105c0 .466.377.843.843.843h3.643c.466 0 .843-.377.843-.843v-2.095c1.17-.283 2.266-.75 3.26-1.367l.007.006 1.48 1.48c.33.33.862.33 1.192 0l2.575-2.575c.33-.33.33-.863 0-1.193l-1.48-1.48a11.19 11.19 0 0 0 1.339-3.272h2.104c.466 0 .843-.378.843-.843v-3.643c0-.466-.377-.844-.843-.844z" class="c"/><path d="M732.693 346.326l-.04-2h.04c.9 0 1.786-.195 2.602-.582l.857 1.807c-1.087.515-2.25.775-3.46.775zm-4.582-1.424a8.16 8.16 0 0 1-2.43-2.643l1.734-.994a6.16 6.16 0 0 0 1.831 1.99zm11.55-2.562l-1.722-1.014c.466-.8.74-1.658.814-2.572l1.995.164a7.96 7.96 0 0 1-1.087 3.422zm-13.027-4.57l-1.994-.15a7.98 7.98 0 0 1 1.066-3.43l1.73 1.006a5.94 5.94 0 0 0-.8 2.574zM738 335.257c-.446-.8-1.075-1.48-1.82-2l1.145-1.64c.987.7 1.822 1.607 2.416 2.654zm-7.928-2.492l-.867-1.803a7.97 7.97 0 0 1 3.5-.797l.082 2h-.082a5.99 5.99 0 0 0-2.633.6zm-472.847-193.04c-2.35 0-4.26-1.912-4.26-4.262s1.912-4.26 4.26-4.26 4.26 1.9 4.26 4.26a4.27 4.27 0 0 1-4.26 4.262zm0-6.52c-1.246 0-2.26 1.013-2.26 2.26s1.014 2.262 2.26 2.262 2.26-1.016 2.26-2.262-1.014-2.26-2.26-2.26z" class="Z"/><path d="M179.783 162.578c2.768 0 5.335.818 7.455 2.28 1.438-1.632 3.415-2.793 5.658-3.167a13.27 13.27 0 0 1-.141-1.934 13.15 13.15 0 0 1 13.141-13.146c7.258 0 13.143 5.882 13.143 13.14 0 1.072-.132 2.11-.374 3.104.972-.23 1.986-.277 3.03-.277 7.258 0 13.14 6.033 13.14 13.214h-68.193c-.001-7.182 5.88-13.215 13.14-13.215z" class="b"/><g class="f"><path d="M416.117 291.524l-.047-105.204h-29.15v105.204z" class="e"/><path d="M386.928 291.5c0 .012-.007.022-.007.034.004.472 14.793 23.41 14.793 23.41l14.312-23.443z" class="a"/></g><g class="Z"><path d="M386.927 290.5h29.098c.348 0 .67.182.853.48s.196.666.038.975c-1.173 2.307-13.815 22.654-14.353 23.52-.18.29-.498.47-.84.47-.34-.023-.663-.17-.85-.457l-14.953-23.945c0-.06.006-.13.018-.193.074-.48.488-.85.99-.85zm27.38 2h-25.7c2.16 3.55 8.375 13.266 13.08 20.572l12.61-20.572z"/><path d="M386.92 185.32h29.148a1 1 0 0 1 1 1l.047 105.203a1 1 0 0 1-1 1.002H386.92a1 1 0 0 1-1-1V186.32a1 1 0 0 1 1-1zm28.15 2h-27.15v103.205h27.194zm-20.258 115.864h13.553a1 1 0 0 1 .872.51c.177.316.17.7-.018 1.012l-6.65 10.924a1 1 0 0 1-.846.479c-.375-.018-.67-.172-.854-.465l-6.903-10.924c-.194-.3-.206-.697-.03-1.018a1 1 0 0 1 .877-.518zm11.774 2h-9.96l5.072 8.027z"/><path d="M405.52 253.115h2v37.75h-2zm0-66.655h2v38.8h-2zm-10.916 0h2v11.008h-2zm0 40.38h2v45.072h-2zm0 49.82h2v14.205h-2zm340.636 85.006h14.2v2h-14.2zm-669.075 0h417.18v2H66.165zm-15.605 0h12.12v2H50.56zm448.096 0h229.482v2H498.656z"/></g><path d="M401.52 161.202l-48.372-21.825 48.372-21.826 48.37 21.826-18.286 8.252zm30.084 24.946l-30.085 12.807-28.905-12.894v-37.9l28.905 13.042 30.085-13.573z" class="a"/><g class="Z"><path d="M432.014 148.54l-.823-1.824 16.267-7.34-45.94-20.73-45.94 20.73 17.446 7.87-.822 1.823-21.487-9.694 50.803-22.924 50.802 22.924z"/><path d="M401.51 200.046l-29.895-13.337V146.61l29.905 13.494 31.084-14.025v40.73zm-27.895-14.635l27.915 12.453 29.074-12.376v-36.31l-29.084 13.12-27.905-12.59z"/><path d="M400.52 161.497h2v15.765h-2zm0 20.253h2v6.537h-2zm25.6-28.693l-25.4-12.747.897-1.788 26.5 13.302v14.27h-2z"/></g><circle r="6.553" cy="139.229" cx="401.371" class="c"/><path d="M424.208 161.088h6.165v15.727h-6.165z" class="d"/><path d="M424.208 176.35h6.165v2h-6.165zm0-11.795h3.768v2h-3.768zm0 5.72h3.768v2h-3.768z" class="Z"/><path d="M496.316 324.413c-45.32-15.255-75.514-9.698-90.363 4.4-15.867-12.13-45.318-17.7-87.404-4.4-22.924 7.255-78.542 21.348-92.038 7.852l9.96 21.48h342.523l9.36-21.48c-15.13 15.13-69.248-.18-92.036-7.852z" class="a"/><path d="M578.994 354.746H236.47a1 1 0 0 1-.907-.58l-9.96-21.48a1 1 0 0 1 1.614-1.128c3.54 3.54 10.574 5.335 20.907 5.335 20.432-.001 50.544-7.236 70.122-13.434 16.25-5.143 31.486-7.75 45.283-7.75 21.6 0 34.88 6.293 42.354 11.792 9.513-8.643 23.85-13.205 41.54-13.205 14.578 0 31.135 3.085 49.212 9.17 9.916 3.338 44.18 14.23 68.72 14.23 10.72 0 18.22-2.065 22.29-6.137a1 1 0 0 1 1.271-.119c.396.27.545.785.354 1.226l-9.36 21.48c-.16.366-.52.602-.92.602zm-341.885-2h341.23l7.543-17.313c-4.685 2.83-11.563 4.26-20.526 4.26-24.844 0-59.368-10.972-69.358-14.333-17.87-6.016-34.213-9.065-48.573-9.065-17.555 0-31.657 4.575-40.782 13.23a1 1 0 0 1-1.296.069c-7.094-5.423-20.106-11.888-41.815-11.888-13.592 0-28.625 2.576-44.68 7.658-19.713 6.238-50.065 13.524-70.725 13.525-8.402 0-14.794-1.188-19.08-3.537z" class="Z"/><path d="M590.482 353.465v.1c0 3.023-2.45 5.475-5.475 5.475H422.62c-.713 2.102-2.696 3.616-5.035 3.616H397.28c-2.34 0-4.323-1.515-5.036-3.616H229.645c-3.024 0-5.475-2.45-5.475-5.475v-.1c0-3.023 2.45-5.475 5.475-5.475h162.338a4.17 4.17 0 0 0-.022.438c0 2.934 2.384 5.318 5.318 5.318h20.306c2.934 0 5.317-2.385 5.317-5.318 0-.148-.007-.297-.022-.438h162.128c3.023 0 5.474 2.45 5.474 5.475z" class="b"/><g class="Z"><path d="M417.585 354.746H397.28a6.33 6.33 0 0 1-6.293-5.756h-45.652v-2h47.37l-.068.652c.17.182.325.436.325.785 0 2.38 1.937 4.318 4.318 4.318h20.306c2.38 0 4.317-1.938 4.317-4.318a1.33 1.33 0 0 1 .123-.548l-.093-.9h34.734v2h-32.8c-.284 3.222-2.998 5.757-6.292 5.757zM298.667 347h8v2h-8zm118.918 16.666H397.28c-2.46 0-4.672-1.426-5.708-3.616H229.645c-3.57 0-6.475-2.904-6.475-6.475v-.1c0-3.57 2.904-6.475 6.475-6.475h42.022v2h-42.022a4.48 4.48 0 0 0-4.475 4.475v.1a4.48 4.48 0 0 0 4.475 4.475H392.96l.23.68a4.32 4.32 0 0 0 4.089 2.938h20.306c1.85 0 3.492-1.18 4.088-2.938l.23-.68h163.104a4.48 4.48 0 0 0 4.475-4.475v-.1a4.48 4.48 0 0 0-4.475-4.475H528v-2h57.008c3.57 0 6.475 2.904 6.475 6.475v.1c0 3.57-2.904 6.475-6.475 6.475H423.293a6.3 6.3 0 0 1-5.708 3.616zM475.667 347H491v2h-15.333z"/><path d="M421.902 341.75h2v6.678h-2zm-30.902 0h2v6.678h-2z"/></g><path d="M121.303 234.966v30.57c-20.893 5.69-36.038 24.886-36.038 47.703 0 27.298 22.35 49.426 49.648 49.426s49.006-22.128 49.006-49.426c0-22.817-16-42.012-36.902-47.703v-30.57z" class="a"/><path d="M134.914 363.666c-24.058 0-44.944-17.044-49.662-40.527l1.96-.394c4.53 22.553 24.592 38.92 47.7 38.92 26.47 0 48.006-21.724 48.006-48.426 0-21.72-14.872-40.938-36.165-46.738l-.737-.2v-30.335h-23.714V266.3l-.737.2a47.34 47.34 0 0 0-9.687 3.837l-.936-1.768a49.45 49.45 0 0 1 9.36-3.792v-30.813h27.714v30.813c21.768 6.275 36.902 26.094 36.902 48.46 0 27.805-22.432 50.426-50.005 50.426zm31.844-77.718a43.2 43.2 0 0 0-21.58-13.657l.525-1.93c8.84 2.408 16.646 7.348 22.576 14.287zm3.904 53.172l-1.63-1.16c5.16-7.242 7.887-15.8 7.887-24.72h2a44.35 44.35 0 0 1-8.258 25.88zm-35.75 18.546a44.53 44.53 0 0 1-25.393-7.922l1.136-1.646a42.54 42.54 0 0 0 24.257 7.568 41.82 41.82 0 0 0 7.994-.77l.384 1.963a43.81 43.81 0 0 1-8.378.807zM87.78 301.102l-1.938-.492c2.086-8.223 6.237-15.832 12.003-22.006l1.462 1.365c-5.537 5.927-9.523 13.235-11.527 21.133z" class="Z"/><path d="M134.593 355.177c-23.258 0-42.18-18.92-42.18-42.18 0-5.918 1.2-11.646 3.568-17.025l.205-.465h76.81l.205.465a41.92 41.92 0 0 1 3.569 16.995c.001 23.274-18.92 42.21-42.177 42.21z" class="b"/><g class="Z"><path d="M96.22 294.508h37.484v2H96.22zm43.02 0h22.522v2H139.24zm27.5 0h6.258v2h-6.258zm-26.835-59.542h2V247h-2zm0 15.4h2v8.466h-2zm9.023 71.425l-1.03-1.715 2.12-1.292 1.053 1.7-2.143 1.307zm-19.626 10.26l-.814-1.827 4.518-2.095.867 1.802-4.57 2.12zm9.97-4.834l-.928-1.77 4.382-2.37.975 1.746-4.43 2.396zm-17.892 8.104l-.7-1.87 2.313-.9.742 1.856-2.344.915zm61.32-40.353l-1.486-1.337 1.625-1.86 1.525 1.294-1.664 1.904zm-24.6 20.94l-1.13-1.65 3.96-2.784 1.174 1.62-4.004 2.816zm8.703-6.35l-1.23-1.575 3.763-3.037 1.28 1.534-3.814 3.078zm8.25-6.943l-1.348-1.48 3.504-3.323 1.406 1.422-3.562 3.38zm-23.983 17.867l-1.05-1.7 2.106-1.322 1.074 1.687-2.13 1.335zm33.293-27.418l-1.523-1.295 1.43-1.72 1.553 1.26-1.46 1.754zm5.1-6.652l-1.67-1.102c.962-1.457 1.752-2.838 2.414-4.22l1.803.864a36.99 36.99 0 0 1-2.547 4.457zm4.594-10.33l-1.955-.418.223-1.214a15.39 15.39 0 0 0 .183-2.287l-.056-1.157 2-.197.065 1.354a17.32 17.32 0 0 1-.206 2.589l-.244 1.33zm-3.656-9.918c-.93-1.027-2.2-1.88-3.746-2.534l.775-1.844c1.828.77 3.327 1.8 4.453 3.036zm-24.934-3.253l-.328-1.973 5.02-.67.2 2-4.892.653zm15.647-.67a39.19 39.19 0 0 0-4.865-.29l.002-2c1.826.002 3.547.105 5.115.305zM84.53 310.715l-1.584-1.222 1.58-1.98 1.543 1.272-1.538 1.93zm8.9 31.055a30.23 30.23 0 0 1-3.72-.22l.244-1.985c1.58.194 3.32.246 5.05.168l.1 1.998-1.662.038zm-10.037-1.886a19.58 19.58 0 0 1-4.245-2.507l-.458-.396 1.338-1.487.376.326a17.42 17.42 0 0 0 3.782 2.227zm-8.3-8.615c-.28-1.037-.424-2.147-.424-3.3 0-.737.06-1.508.174-2.3l1.98.3a13.77 13.77 0 0 0-.152 1.998 10.72 10.72 0 0 0 .354 2.777zm3.5-11l-1.826-.817c.676-1.507 1.525-3.095 2.527-4.72l1.703 1.05c-.957 1.55-1.766 3.06-2.404 4.487zm22.887 20.708l-.357-1.968 2.415-.485.428 1.954-2.486.5zm43.9-22.123l-1.016-1.723 2.138-1.272 1.03 1.714-2.153 1.28z"/><path d="M152.742 314.352l-1.074-1.687 4.23-2.772 1.12 1.658-4.274 2.8zm9.294-6.334l-1.184-1.613 4.008-3.062 1.246 1.565-4.07 3.1zm8.784-7.063l-1.326-1.498 3.683-3.43 1.4 1.43-3.757 3.5zm8.038-7.922l-1.47-1.357 3.324-3.783 1.54 1.277-3.394 3.863zm7.144-8.802l-1.654-1.125c1.023-1.504 1.87-2.935 2.52-4.254l1.795.884c-.7 1.402-1.587 2.914-2.662 4.495zm4.513-10.684l-1.996-.1.012-.414c0-1.437-.422-2.6-1.3-3.555l1.48-1.346c1.2 1.322 1.8 2.97 1.8 4.9l-.016.526zm-8.082-6.504c-1.4-.288-3.062-.4-4.83-.355l-.055-1.998c1.944-.053 3.73.072 5.3.396zm-13.25.603l-.303-1.977 2.477-.376.3 1.98-1.805.273zm-48.72 54.154l-2.143-1.307 1.053-1.7 2.12 1.292zm19.627 10.26l-4.57-2.12.867-1.802 4.52 2.094zm-9.97-4.834l-4.43-2.396.975-1.746 4.382 2.37zM148 335.33l-2.345-.915.742-1.856 2.313.9zm-61.3-40.352l-1.664-1.904 1.525-1.294 1.625 1.86zm24.58 20.94l-4.004-2.816 1.174-1.62 3.96 2.784zm-8.7-6.35l-3.814-3.078 1.28-1.535 3.764 3.037zm-8.253-6.944l-3.562-3.38 1.406-1.422 3.503 3.324zm23.993 17.868l-2.13-1.336 1.074-1.687 2.106 1.322zm-33.293-27.417l-.33-.392 1.53-1.287.322.382zm-4.088-5.167c-1.08-1.506-1.977-2.92-2.743-4.32l1.754-.96c.73 1.33 1.584 2.677 2.614 4.115zm-5.154-10.04l-.22-.805c-.396-1.55-.607-3.02-.63-4.375l2-.035c.02 1.2.212 2.518.568 3.915l.203.743zm2.433-10.412l-1.7-1.038c.907-1.493 2.208-2.77 3.867-3.8l1.05 1.702c-1.387.855-2.466 1.907-3.207 3.127zm8.474-5.16l-.443-1.95c1.563-.355 3.282-.596 5.106-.713l.13 1.996c-1.72.1-3.332.336-4.792.668zm15.515-.04a48.32 48.32 0 0 0-4.86-.593l.143-1.995a50.31 50.31 0 0 1 5.062.618zm83.686 49.274a23.54 23.54 0 0 0-1.718-1.672l1.32-1.503a25.5 25.5 0 0 1 1.864 1.815zm-8.945 30.116a48.59 48.59 0 0 1-2.75-.081l.115-1.997c1.796.103 3.478.104 5.005.004l.13 1.996-2.5.078zm8.8-1.244l-.648-1.892c1.64-.563 3.006-1.344 4.063-2.32l1.357 1.47c-1.262 1.166-2.868 2.1-4.772 2.742zm8.02-8.544l-1.953-.43.193-1.127a17.26 17.26 0 0 0 .332-3.379l-.004-.35 2-.032.004.376a18.99 18.99 0 0 1-.359 3.706 12.82 12.82 0 0 1-.213 1.238zm-2.416-11.046a24.1 24.1 0 0 0-1.974-4.505l1.742-.982a26.13 26.13 0 0 1 2.136 4.879zm-23.396 20.083l-2.5-.4.35-1.97 2.438.4zm-43.926-22.03l-2.187-1.247 1.002-1.73L125 317.12zm-7.47-4.426l-4.3-2.798 1.115-1.66 4.258 2.762zm-9.358-6.354l-4.076-3.145 1.254-1.56 4.012 3.094zm-8.786-7.148l-3.75-3.537 1.408-1.42 3.68 3.47zm-8-8.027l-.25-.278-3.14-3.594 1.533-1.283 3.096 3.543.25.278zm-7.155-8.848c-1.073-1.613-1.938-3.164-2.57-4.6l1.832-.803c.586 1.34 1.396 2.787 2.405 4.305zm-1.96-10.898l-1.998-.093c.067-1.443.447-2.8 1.13-4.004a9.42 9.42 0 0 1 .855-1.272l1.563 1.25a7.4 7.4 0 0 0-.674 1.002c-.528.94-.822 1.988-.875 3.118zm6.17-6.826l-.453-1.948c1.556-.362 3.413-.492 5.352-.405l-.092 1.998c-1.746-.082-3.43.035-4.807.355zm13.147.955l-2.42-.52.4-1.96 2.47.53z"/></g><circle r="6.943" cy="262.869" cx="165.64" class="g"/><circle r="6.943" cy="262.869" cx="165.64" class="d"/><g class="g"><circle r="4.588" cy="313.721" cx="188.134"/><circle r="4.588" cy="313.721" cx="188.134"/></g><g class="d"><circle r="6.481" cy="317.762" cx="118.847"/><circle r="6.481" cy="317.762" cx="118.847"/></g><g fill="#50667e"><circle r="7.823" cy="288.985" cx="84.21"/><circle r="7.823" cy="288.985" cx="84.21"/></g><g class="e"><circle r="4.153" cy="331.734" cx="143.035"/><circle r="4.153" cy="331.734" cx="143.035"/></g><circle r="7.047" cy="289.902" cx="181.087" class="b"/><path d="M181.114 297.95c-1.946 0-3.8-.685-5.253-1.928l1.3-1.52c1.1.934 2.484 1.447 3.925 1.447l.033 1.635-.004.365h-.002zm6.077-2.803l-1.516-1.305a6.05 6.05 0 0 0 1.459-3.939l2-.02v.02a8.04 8.04 0 0 1-1.943 5.244zm-13.75-5.194l-.4-.01c-.001-1.948.678-3.798 1.91-5.25l1.523 1.295a6.05 6.05 0 0 0-1.436 3.913zm11.598-4.626a6.05 6.05 0 0 0-3.953-1.471l-.1-2h.1c1.933 0 3.8.695 5.262 1.958z" class="Z"/><circle r="4.523" cy="337.14" cx="112.366" class="c"/><path d="M112.92 342.636l-.197-2a3.53 3.53 0 0 0 2.702-1.756l1.734.995a5.53 5.53 0 0 1-4.239 2.751zm-5.316-2.696a5.52 5.52 0 0 1-.763-2.801c0-.78.16-1.536.476-2.247l1.828.813a3.52 3.52 0 0 0 .181 3.22zm7.628-4.848a3.53 3.53 0 0 0-2.866-1.475l-.04-1.496.014-.504c1.806 0 3.485.864 4.52 2.312z" class="Z"/><g class="d"><path d="M61.354 330.9a1 1 0 0 1-1-1l.054-1.098c.055-.55.55-.95 1.094-.896a1 1 0 0 1 .896 1.095l-.044.9a1 1 0 0 1-1 1zm19.572-2.086a1 1 0 0 1-.977-.79c-.063-.296-.14-.585-.233-.868a1 1 0 0 1 .643-1.259 1 1 0 0 1 1.259.644c.112.346.208.7.286 1.063a1 1 0 0 1-.767 1.188 1.08 1.08 0 0 1-.211.022zm-18.778-1.805c-.13 0-.265-.026-.394-.08a1 1 0 0 1-.525-1.313l.483-.987a1 1 0 1 1 1.751.966c-.145.262-.277.53-.396.81a1 1 0 0 1-.919.606zm17.18-1.83a1 1 0 0 1-.816-.42l-.557-.707a1 1 0 0 1 .095-1.41 1 1 0 0 1 1.411.096c.24.275.47.563.68.862a1 1 0 0 1-.235 1.395c-.177.124-.38.184-.58.184zm-14.916-1.433c-.264 0-.526-.104-.723-.3a1 1 0 0 1 .032-1.414l.832-.718a1 1 0 0 1 1.403.173 1 1 0 0 1-.173 1.403l-.68.59c-.194.185-.442.277-.69.277zm12.013-1.282a.99.99 0 0 1-.523-.148l-.788-.43a1 1 0 1 1 .87-1.801c.332.16.654.337.966.528a1 1 0 0 1 .327 1.377c-.188.307-.516.475-.852.475zm-8.65-.832a1 1 0 0 1-.351-1.936l1.047-.333a1 1 0 1 1 .511 1.934l-.857.272c-.115.043-.233.063-.35.063zm4.92-.524a1.02 1.02 0 0 1-.145-.01 9.09 9.09 0 0 0-.896-.085 1 1 0 0 1-.954-1.044c.024-.553.52-.973 1.044-.954l1.093.104a1 1 0 0 1-.142 1.989z"/><path d="M82.354 330.9a1 1 0 0 1-1-1l.054-1.098a1 1 0 1 1 1.99.199l-.044.9a1 1 0 0 1-1 1zm19.572-2.086a1 1 0 0 1-.977-.79c-.063-.296-.14-.585-.233-.868a1 1 0 0 1 .643-1.259 1 1 0 0 1 1.259.644c.112.346.208.7.286 1.063a1 1 0 0 1-.767 1.188 1.08 1.08 0 0 1-.211.022zm-18.778-1.805c-.13 0-.265-.026-.394-.08a1 1 0 0 1-.525-1.313l.483-.987a1 1 0 1 1 1.751.966c-.145.262-.277.53-.396.81a1 1 0 0 1-.919.606zm17.18-1.83a1 1 0 0 1-.816-.42l-.557-.707a1 1 0 0 1 .095-1.41 1 1 0 0 1 1.411.096c.24.275.47.563.68.862a1 1 0 0 1-.235 1.395c-.177.124-.38.184-.58.184zm-14.916-1.433c-.264 0-.526-.104-.723-.3a1 1 0 0 1 .032-1.414l.832-.718a1 1 0 0 1 1.403.173 1 1 0 0 1-.173 1.403l-.68.59c-.194.185-.442.277-.69.277zm12.013-1.282a.99.99 0 0 1-.523-.148l-.788-.43a1 1 0 1 1 .87-1.801c.332.16.654.337.966.528a1 1 0 0 1 .327 1.377c-.188.307-.516.475-.852.475zm-8.65-.832a1 1 0 0 1-.351-1.936l1.047-.333a1 1 0 1 1 .511 1.934l-.857.272c-.115.043-.233.063-.35.063zm4.92-.524a1.02 1.02 0 0 1-.145-.01 9.09 9.09 0 0 0-.896-.085 1 1 0 0 1-.954-1.044c.025-.553.523-.973 1.044-.954l1.093.104a1 1 0 0 1-.142 1.989z"/></g><path d="M107.923 330.054H95.58c-.803 0-1.548.55-1.677 1.343-.165 1 .61 1.883 1.59 1.883h1.105l-.04 24.207c-.003 2.86 2.314 5.18 5.175 5.18s5.182-2.324 5.174-5.188l-.09-24.2h1.02c.804 0 1.548-.55 1.677-1.342.164-1.01-.612-1.884-1.59-1.884z" class="a"/><path d="M98.977 338.688l-.027 18.714c0 .743.288 1.53.814 2.057a2.76 2.76 0 0 0 1.968.815c.745 0 1.444-.334 1.97-.86s.814-1.27.813-2.015l-.06-18.7z" class="d"/><path d="M87.673 330.054H75.33c-.803 0-1.548.55-1.677 1.343-.165 1 .61 1.883 1.59 1.883h1.105l-.04 24.207c-.003 2.86 2.314 5.18 5.175 5.18s5.182-2.324 5.175-5.188l-.1-24.2h1.02c.804 0 1.548-.55 1.677-1.342.164-1.01-.61-1.884-1.59-1.884z" class="a"/><path d="M78.727 338.688L78.7 357.4c0 .743.288 1.53.814 2.057a2.76 2.76 0 0 0 1.968.815c.745 0 1.445-.334 1.97-.86s.814-1.27.813-2.015l-.06-18.7h-5.477z" class="e"/><path d="M67.423 330.054H55.08c-.803 0-1.548.55-1.677 1.343-.165 1 .61 1.883 1.59 1.883h1.105l-.04 24.207c-.003 2.86 2.314 5.18 5.175 5.18s5.182-2.324 5.175-5.188l-.1-24.2h1.02c.804 0 1.548-.55 1.677-1.342.164-1.01-.61-1.884-1.59-1.884z" class="a"/><path d="M101.733 363.666a6.13 6.13 0 0 1-4.369-1.811c-1.166-1.168-1.808-2.72-1.806-4.37l.038-23.206h-.104a2.61 2.61 0 0 1-1.991-.921 2.62 2.62 0 0 1-.586-2.123c.202-1.243 1.347-2.182 2.664-2.182h12.344a2.64 2.64 0 0 1 2 .92 2.62 2.62 0 0 1 .586 2.123c-.202 1.244-1.347 2.182-2.664 2.182h-.015l.085 23.195c.004 1.654-.636 3.208-1.803 4.378a6.13 6.13 0 0 1-4.37 1.814zm-6.154-32.612c-.34 0-.644.22-.7.503a.62.62 0 0 0 .136.506c.117.138.288.217.468.217H97.6l-.04 25.2c-.001 1.115.432 2.164 1.22 2.953a4.15 4.15 0 0 0 5.91-.002 4.14 4.14 0 0 0 1.219-2.958l-.093-25.202h2.023c.34 0 .644-.22.7-.502a.62.62 0 0 0-.136-.508c-.117-.137-.288-.216-.468-.216zm-14.096 32.612a6.13 6.13 0 0 1-4.369-1.811c-1.166-1.168-1.808-2.72-1.806-4.37l.038-23.206h-.104a2.61 2.61 0 0 1-1.991-.921 2.62 2.62 0 0 1-.586-2.123c.202-1.243 1.347-2.182 2.664-2.182h12.345a2.64 2.64 0 0 1 2 .92 2.62 2.62 0 0 1 .588 2.123c-.203 1.244-1.348 2.182-2.665 2.182h-.015l.086 23.195a6.14 6.14 0 0 1-1.803 4.379c-1.167 1.17-2.72 1.813-4.372 1.813zm-6.154-32.612c-.34 0-.644.22-.7.503a.62.62 0 0 0 .136.506c.117.138.288.217.468.217h2.106l-.04 25.2c-.001 1.115.432 2.164 1.22 2.953a4.15 4.15 0 0 0 5.91-.001 4.12 4.12 0 0 0 1.22-2.96l-.094-25.202h2.023c.34 0 .645-.22.7-.502a.62.62 0 0 0-.137-.508c-.117-.137-.287-.216-.467-.216zm-14.096 32.612a6.13 6.13 0 0 1-4.369-1.811c-1.166-1.168-1.808-2.72-1.806-4.37l.038-23.206h-.104a2.61 2.61 0 0 1-1.991-.921 2.62 2.62 0 0 1-.586-2.123c.202-1.243 1.347-2.182 2.664-2.182h12.345a2.64 2.64 0 0 1 2 .92 2.62 2.62 0 0 1 .588 2.123c-.203 1.244-1.348 2.182-2.665 2.182h-.015l.086 23.195a6.14 6.14 0 0 1-1.803 4.379c-1.167 1.17-2.72 1.813-4.372 1.813zm-6.154-32.612c-.34 0-.644.22-.7.503a.62.62 0 0 0 .136.506c.117.138.288.217.468.217H57.1l-.04 25.2c-.001 1.115.432 2.164 1.22 2.953a4.15 4.15 0 0 0 5.91-.001c.8-.8 1.222-1.842 1.22-2.96l-.094-25.202h2.023c.34 0 .645-.22.7-.502a.62.62 0 0 0-.137-.508c-.117-.137-.287-.216-.467-.216z" class="Z"/><path d="M58.477 338.688l-.027 18.714c0 .743.288 1.53.814 2.057a2.76 2.76 0 0 0 1.968.815c.745 0 1.445-.334 1.97-.86s.814-1.27.813-2.015l-.06-18.7z" class="c"/></g></svg>