<?xml version="1.0" encoding="utf-8"?>
<!-- Generator: Adobe Illustrator 18.0.0, SVG Export Plug-In . SVG Version: 6.00 Build 0)  -->
<!DOCTYPE svg PUBLIC "-//W3C//DTD SVG 1.1//EN" "http://www.w3.org/Graphics/SVG/1.1/DTD/svg11.dtd">
<svg version="1.1" id="Layer_1" xmlns="http://www.w3.org/2000/svg" xmlns:xlink="http://www.w3.org/1999/xlink" x="0px" y="0px"
	 viewBox="0 0 129.5 129.5" enable-background="new 0 0 129.5 129.5" xml:space="preserve">
<g>
	<g>
		<g>
			<polygon fill="#E6E9EE" points="99.9,128.8 96.7,128.8 99.9,99.8 			"/>
		</g>
		<g>
			<polygon fill="#E6E9EE" points="31.4,128.8 34.6,128.8 31.4,99.8 			"/>
		</g>
		<g>
			<path fill="#231F20" d="M13.2,8.1c-0.2,0-0.4-0.1-0.5-0.2c-0.3-0.3-0.3-0.8,0-1.1L14,5.5c0.3-0.3,0.8-0.3,1.1,0
				c0.3,0.3,0.3,0.8,0,1.1l-1.3,1.3C13.6,8,13.4,8.1,13.2,8.1z"/>
		</g>
		<g>
			<path fill="#231F20" d="M9.2,12.1c-0.2,0-0.4-0.1-0.5-0.2c-0.3-0.3-0.3-0.8,0-1.1l1.3-1.3c0.3-0.3,0.8-0.3,1.1,0
				c0.3,0.3,0.3,0.8,0,1.1l-1.3,1.3C9.6,12.1,9.4,12.1,9.2,12.1z"/>
		</g>
		<g>
			<path fill="#231F20" d="M14.5,12.1c-0.2,0-0.4-0.1-0.5-0.2l-1.3-1.3c-0.3-0.3-0.3-0.8,0-1.1c0.3-0.3,0.8-0.3,1.1,0l1.3,1.3
				c0.3,0.3,0.3,0.8,0,1.1C14.9,12.1,14.7,12.1,14.5,12.1z"/>
		</g>
		<g>
			<path fill="#231F20" d="M10.5,8.1c-0.2,0-0.4-0.1-0.5-0.2L8.6,6.6c-0.3-0.3-0.3-0.8,0-1.1c0.3-0.3,0.8-0.3,1.1,0L11,6.8
				c0.3,0.3,0.3,0.8,0,1.1C10.8,8,10.6,8.1,10.5,8.1z"/>
		</g>
		<g>
			<path fill="#231F20" d="M119.1,2.8c-0.2,0-0.4-0.1-0.5-0.2c-0.3-0.3-0.3-0.8,0-1.1l1.3-1.3c0.3-0.3,0.8-0.3,1.1,0
				c0.3,0.3,0.3,0.8,0,1.1l-1.3,1.3C119.4,2.7,119.2,2.8,119.1,2.8z"/>
		</g>
		<g>
			<path fill="#231F20" d="M115,6.8c-0.2,0-0.4-0.1-0.5-0.2c-0.3-0.3-0.3-0.8,0-1.1l1.3-1.3c0.3-0.3,0.8-0.3,1.1,0
				c0.3,0.3,0.3,0.8,0,1.1l-1.3,1.3C115.4,6.7,115.2,6.8,115,6.8z"/>
		</g>
		<g>
			<path fill="#231F20" d="M120.3,6.8c-0.2,0-0.4-0.1-0.5-0.2l-1.3-1.3c-0.3-0.3-0.3-0.8,0-1.1c0.3-0.3,0.8-0.3,1.1,0l1.3,1.3
				c0.3,0.3,0.3,0.8,0,1.1C120.7,6.7,120.5,6.8,120.3,6.8z"/>
		</g>
		<g>
			<path fill="#231F20" d="M116.3,2.8c-0.2,0-0.4-0.1-0.5-0.2l-1.3-1.3c-0.3-0.3-0.3-0.8,0-1.1c0.3-0.3,0.8-0.3,1.1,0l1.3,1.3
				c0.3,0.3,0.3,0.8,0,1.1C116.7,2.7,116.5,2.8,116.3,2.8z"/>
		</g>
		<g>
			<path fill="#231F20" d="M6.8,103.6c-0.2,0-0.4-0.1-0.5-0.2c-0.3-0.3-0.3-0.8,0-1.1l1.3-1.3c0.3-0.3,0.8-0.3,1.1,0
				c0.3,0.3,0.3,0.8,0,1.1l-1.3,1.3C7.2,103.5,7,103.6,6.8,103.6z"/>
		</g>
		<g>
			<path fill="#231F20" d="M2.8,107.6c-0.2,0-0.4-0.1-0.5-0.2c-0.3-0.3-0.3-0.8,0-1.1l1.3-1.3c0.3-0.3,0.8-0.3,1.1,0
				c0.3,0.3,0.3,0.8,0,1.1l-1.3,1.3C3.1,107.5,2.9,107.6,2.8,107.6z"/>
		</g>
		<g>
			<path fill="#231F20" d="M8.1,107.6c-0.2,0-0.4-0.1-0.5-0.2l-1.3-1.3c-0.3-0.3-0.3-0.8,0-1.1s0.8-0.3,1.1,0l1.3,1.3
				c0.3,0.3,0.3,0.8,0,1.1C8.5,107.5,8.3,107.6,8.1,107.6z"/>
		</g>
		<g>
			<path fill="#231F20" d="M4,103.6c-0.2,0-0.4-0.1-0.5-0.2l-1.3-1.3c-0.3-0.3-0.3-0.8,0-1.1c0.3-0.3,0.8-0.3,1.1,0l1.3,1.3
				c0.3,0.3,0.3,0.8,0,1.1C4.4,103.5,4.2,103.6,4,103.6z"/>
		</g>
		<polyline fill="#FFFFFF" points="83.3,60.6 72.8,73.4 65.6,64.1 58.4,73.4 47.9,60.6 		"/>
		<path fill="#FFFFFF" d="M74.8,50.4v8.5l-9.2,5.2l-9.2-5.2v-8.5c2.8,2.3,5.9,3.7,9.2,3.7C68.9,54.1,72,52.7,74.8,50.4z"/>
		<path fill="#FFFFFF" d="M87.5,27.4c-0.4-0.2-0.9-0.2-1.4,0c0.2-1.8,0.4-3.6,0.4-5.4c0-15.5-9.3-21.2-20.8-21.2S44.8,6.5,44.8,22
			c0,1.8,0.1,3.6,0.4,5.4c-0.5-0.2-1-0.2-1.4,0c-1.3,0.7-1.4,3.1-0.2,5.6c1,2,2.5,3.2,3.8,3.3c3.5,10,10.4,17.9,18.3,17.9
			c7.9,0,14.8-7.9,18.3-17.9c1.2-0.1,2.8-1.3,3.8-3.3C88.9,30.5,88.8,28,87.5,27.4z"/>
		<circle fill="none" cx="24.5" cy="36.5" r="13.4"/>
		<ellipse fill="#FFFFFF" cx="24.5" cy="36.5" rx="7.5" ry="13.4"/>
		<line fill="#FFFFFF" x1="11.2" y1="36.5" x2="37.9" y2="36.5"/>
		<line fill="#FFFFFF" x1="24.5" y1="23.1" x2="24.5" y2="49.8"/>
		<path fill="#231F20" d="M24.5,22.3c-7.8,0-14.1,6.3-14.1,14.1s6.3,14.1,14.1,14.1c7.8,0,14.1-6.3,14.1-14.1S32.3,22.3,24.5,22.3z
			 M37.1,35.7h-4.4c-0.1-4.6-1.5-8.6-3.6-11C33.6,26.5,36.8,30.7,37.1,35.7z M23.8,23.9v11.8h-6C18,29.7,20.6,24.6,23.8,23.9z
			 M23.8,37.2V49c-3.2-0.7-5.8-5.7-6-11.8H23.8z M25.3,49V37.2h6C31.1,43.2,28.5,48.3,25.3,49z M25.3,35.7V23.9
			c3.2,0.7,5.8,5.7,6,11.8H25.3z M19.9,24.7c-2.1,2.4-3.4,6.4-3.6,11H12C12.2,30.7,15.4,26.5,19.9,24.7z M12,37.2h4.4
			c0.1,4.6,1.5,8.6,3.6,11C15.5,46.4,12.2,42.2,12,37.2z M29.2,48.2c2.1-2.4,3.5-6.4,3.6-11h4.4C36.8,42.2,33.6,46.4,29.2,48.2z"/>
		<g>
			<circle fill="#84DBFF" cx="30.9" cy="10.7" r="1.6"/>
		</g>
		<g>
			<circle fill="#FF7058" cx="97.4" cy="10.1" r="1.8"/>
		</g>
		<g>
			<circle fill="#FFD05B" cx="119.5" cy="64.1" r="2"/>
		</g>
		<g>
			<circle fill="#E6E9EE" cx="5.7" cy="43.4" r="2.3"/>
		</g>
		<path fill="#FFFFFF" d="M65.6,128.8c-8.8,0-16-7.1-16-16s7.1-16,16-16s16,7.1,16,16"/>
		<circle fill="#FFD05B" cx="65.6" cy="112.8" r="13.3"/>
		<polygon fill="#FFFFFF" points="65.6,104.5 68.1,109.5 73.5,110.3 69.6,114.1 70.5,119.6 65.6,117 60.7,119.6 61.6,114.1 
			57.7,110.3 63.2,109.5 		"/>
		<g>
			<path fill="#231F20" d="M108.5,68.1L83.7,60l-6.2-6.1c-0.1-0.1-0.3-0.2-0.5-0.2h-1.4v-2.9c3.7-3.1,6.8-7.9,9-13.8
				c1.4-0.3,2.9-1.7,3.9-3.6c0.6-1.3,1-2.6,0.9-3.8c0-1.3-0.6-2.3-1.5-2.8c-0.3-0.1-0.6-0.2-0.9-0.2c0.2-1.5,0.3-3.1,0.3-4.5
				c0-19.1-13.5-22-21.6-22C57.5,0,44,2.9,44,22c0,1.5,0.1,3,0.3,4.5c-0.3,0-0.6,0.1-0.9,0.2c-0.9,0.4-1.4,1.4-1.5,2.8
				c0,1.2,0.3,2.5,0.9,3.8c1,1.9,2.4,3.3,3.9,3.6c2.2,5.9,5.3,10.7,9,13.8v2.9h-1.4c-0.2,0-0.4,0.1-0.5,0.2L47.5,60l-24.8,8.2
				c-4.4,1.5-7.4,5.6-7.4,10.2v50.4h1.5V78.3c0-4,2.6-7.5,6.4-8.8l24.5-8.1l10.1,12.4c0.1,0.2,0.4,0.3,0.6,0.3h0
				c0.2,0,0.4-0.1,0.6-0.3l6.6-8.6l6.6,8.6c0.1,0.2,0.4,0.3,0.6,0.3h0c0.2,0,0.4-0.1,0.6-0.3l10.2-12.4l24.5,8.1
				c3.8,1.3,6.4,4.8,6.4,8.8v50.4h1.5V78.3C115.8,73.7,112.9,69.6,108.5,68.1z M48,36c-0.1-0.3-0.4-0.5-0.7-0.5
				c-0.9,0-2.2-1.1-3.1-2.9c-0.5-1-0.8-2.2-0.8-3.1c0-0.8,0.3-1.3,0.6-1.5c0.1,0,0.2-0.1,0.3-0.1c0.2,0,0.3,0,0.5,0.1
				c0.2,0.1,0.5,0,0.7-0.1c0.2-0.2,0.3-0.4,0.3-0.7c-0.2-1.8-0.4-3.6-0.4-5.3c0-17.8,12.6-20.5,20.1-20.5S85.7,4.2,85.7,22
				c0,1.7-0.1,3.5-0.4,5.3c0,0.3,0.1,0.5,0.3,0.7c0.2,0.2,0.5,0.2,0.7,0.1c0.4-0.1,0.6-0.1,0.9,0c0.4,0.2,0.6,0.7,0.6,1.5
				c0,0.9-0.3,2-0.8,3.1c-0.9,1.8-2.3,2.8-3.1,2.9c-0.3,0-0.6,0.2-0.7,0.5c-3.7,10.6-10.7,17.4-17.6,17.4S51.7,46.5,48,36z
				 M58.4,72.2L49,60.7l5.7-5.6h1.1v3.8c0,0.3,0.1,0.5,0.4,0.7l8.4,4.7L58.4,72.2z M57.2,58.5V52l0-0.1c2.7,1.9,5.5,2.9,8.4,2.9
				c2.9,0,5.8-1,8.4-3l0,0.1v6.5l-8.4,4.7L57.2,58.5z M72.8,72.2l-6.1-7.9l8.4-4.7c0.2-0.1,0.4-0.4,0.4-0.7v-3.8h1.1l5.7,5.6
				L72.8,72.2z"/>
			<rect x="99.2" y="99.8" fill="#231F20" width="1.5" height="28.9"/>
			<rect x="30.5" y="99.8" fill="#231F20" width="1.5" height="28.9"/>
		</g>
		<g>
			<g>
				<path fill="#FFFFFF" d="M119.8,26.7l-3.3-1.5l-0.1,0.2c-0.7,1.3-2.1,2-3.6,1.9c-0.3,0-0.6,0-0.9,0c-1.5,0-2.8-0.8-3.5-2.1
					l-0.1-0.2l-3.4,1.3l0.1,0.2c0.4,1.4-0.1,2.9-1.2,3.9c-0.2,0.2-0.4,0.4-0.6,0.6c-1,1-2.5,1.5-3.9,1l-0.2-0.1l-1.5,3.3l0.2,0.1
					c1.3,0.7,2,2.1,1.9,3.6c0,0.3,0,0.6,0,0.9c0,1.5-0.8,2.8-2.1,3.5l-0.2,0.1l1.3,3.4l0.2-0.1c1.4-0.4,2.9,0.1,3.9,1.2
					c0.2,0.2,0.4,0.4,0.6,0.6c1,1,1.5,2.5,1,3.9l-0.1,0.2l3.3,1.5l0.1-0.2c0.7-1.3,2.1-2,3.6-1.9c0.3,0,0.6,0,0.9,0
					c1.5,0,2.8,0.8,3.5,2.1l0.1,0.2l3.4-1.3l-0.1-0.2c-0.4-1.4,0.1-2.9,1.2-3.9c0.2-0.2,0.4-0.4,0.6-0.6c1-1,2.5-1.5,3.9-1l0.2,0.1
					l1.5-3.3l-0.2-0.1c-1.3-0.7-2-2.1-1.9-3.6c0-0.3,0-0.6,0-0.9c0-1.5,0.8-2.8,2.1-3.5l0.2-0.1l-1.3-3.4l-0.2,0.1
					c-1.4,0.4-2.9-0.1-3.9-1.2c-0.2-0.2-0.4-0.4-0.6-0.6c-1-1-1.5-2.5-1-3.9L119.8,26.7z"/>
				<path fill="#231F20" d="M115.6,55.2c-0.3,0-0.5-0.2-0.7-0.4l-0.1-0.2c-0.5-1-1.6-1.7-2.8-1.7c0,0,0,0,0,0c-0.3,0-0.6,0-0.9,0
					c-1.2-0.1-2.3,0.5-2.9,1.5l-0.1,0.2c-0.2,0.3-0.6,0.5-1,0.3l-3.3-1.5c-0.4-0.2-0.5-0.6-0.4-0.9l0.1-0.2c0.4-1.1,0.1-2.3-0.8-3.2
					c-0.2-0.2-0.4-0.4-0.6-0.7c-0.8-0.9-2-1.3-3.1-1l-0.2,0.1c-0.4,0.1-0.8-0.1-0.9-0.5l-1.3-3.4c-0.1-0.4,0-0.8,0.4-0.9l0.2-0.1
					c1-0.5,1.7-1.6,1.7-2.8c0-0.3,0-0.6,0-0.9c0.1-1.2-0.5-2.3-1.5-2.9l-0.2-0.1c-0.3-0.2-0.5-0.6-0.3-1l1.5-3.3
					c0.2-0.4,0.6-0.5,0.9-0.4l0.2,0.1c1.1,0.4,2.3,0,3.2-0.8c0.2-0.2,0.4-0.4,0.7-0.6c0.9-0.8,1.3-2,1-3.1l-0.1-0.2
					c-0.1-0.4,0.1-0.8,0.5-0.9l3.4-1.3c0.4-0.1,0.8,0,0.9,0.4l0.1,0.2c0.5,1,1.6,1.7,2.8,1.7c0.4,0,0.6,0,0.9,0
					c1.2,0.1,2.3-0.5,2.9-1.5l0.1-0.2c0.2-0.3,0.6-0.5,1-0.3l3.3,1.5c0.4,0.2,0.5,0.6,0.4,0.9l-0.1,0.2c-0.4,1.1-0.1,2.3,0.8,3.2
					c0.2,0.2,0.4,0.4,0.6,0.7c0.8,0.9,2,1.3,3.1,1l0.2-0.1c0.4-0.1,0.8,0.1,0.9,0.5l1.3,3.4c0.1,0.4,0,0.8-0.4,0.9l-0.2,0.1
					c-1,0.5-1.7,1.6-1.7,2.8c0,0.3,0,0.6,0,0.9c-0.1,1.2,0.5,2.3,1.5,2.9l0.2,0.1c0.3,0.2,0.5,0.6,0.3,1l-1.5,3.3
					c-0.2,0.4-0.6,0.5-0.9,0.4l-0.2-0.1c-1.1-0.4-2.3,0-3.2,0.8c-0.2,0.2-0.4,0.4-0.7,0.6c-0.9,0.8-1.3,2-1,3.1l0.1,0.2
					c0.1,0.4-0.1,0.8-0.5,0.9l-3.4,1.3C115.8,55.2,115.7,55.2,115.6,55.2z M110.9,51.4c0.1,0,0.2,0,0.3,0c0.3,0,0.5,0,0.8,0
					c1.7,0,3.2,0.8,4,2.1l2.2-0.8c-0.3-1.5,0.3-3.1,1.5-4.2c0.2-0.2,0.4-0.4,0.6-0.6c1.1-1.1,2.8-1.6,4.3-1.3l1-2.1
					c-1.3-0.9-2-2.4-1.9-4.1c0-0.3,0-0.5,0-0.8c0-1.7,0.8-3.1,2.1-4l-0.8-2.2c-1.5,0.3-3.1-0.3-4.2-1.5c-0.2-0.2-0.4-0.4-0.6-0.6
					c-1.2-1.2-1.6-2.8-1.3-4.3l-2.1-1c-0.9,1.3-2.4,2-4.1,1.9c-0.3,0-0.5,0-0.7,0c-1.7,0-3.2-0.8-4-2.1l-2.2,0.8
					c0.3,1.5-0.3,3.1-1.5,4.2c-0.2,0.2-0.4,0.4-0.6,0.6c-1.1,1.1-2.8,1.6-4.3,1.3l-1,2.1c1.3,0.9,2,2.4,1.9,4.1c0,0.3,0,0.5,0,0.8
					c0,1.7-0.8,3.1-2.1,4l0.8,2.2c1.5-0.3,3.1,0.3,4.2,1.5c0.2,0.2,0.4,0.4,0.6,0.6c1.2,1.2,1.6,2.8,1.3,4.3l2.1,1
					C108,52.1,109.4,51.4,110.9,51.4z"/>
			</g>
			<g>
				<path fill="#231F20" d="M112.8,49.9l-0.1-1.5c0.3,0,0.6-0.1,0.9-0.1l0.3,1.5C113.5,49.8,113.1,49.8,112.8,49.9z M110.6,49.8
					c-0.4,0-0.7-0.1-1.1-0.2l0.4-1.5c0.3,0.1,0.6,0.1,0.9,0.2L110.6,49.8z M115.9,49.1l-0.6-1.4c0.3-0.1,0.6-0.3,0.8-0.4l0.7,1.3
					C116.6,48.8,116.2,49,115.9,49.1z M107.5,48.9c-0.3-0.2-0.6-0.3-0.9-0.5l0.8-1.3c0.3,0.2,0.5,0.3,0.8,0.4L107.5,48.9z
					 M118.6,47.4l-1-1.1c0.2-0.2,0.5-0.4,0.7-0.6l1.1,1C119.2,46.9,118.9,47.2,118.6,47.4z M104.9,47c-0.3-0.3-0.5-0.5-0.7-0.8
					l1.2-1c0.2,0.2,0.4,0.5,0.6,0.7L104.9,47z M120.7,45l-1.3-0.8c0.2-0.3,0.3-0.5,0.4-0.8l1.4,0.6C121.1,44.3,120.9,44.7,120.7,45z
					 M102.9,44.5c-0.2-0.3-0.3-0.6-0.5-1l1.4-0.6c0.1,0.3,0.2,0.6,0.4,0.8L102.9,44.5z M121.9,42l-1.5-0.3c0.1-0.3,0.1-0.6,0.2-0.9
					l1.5,0.2C122.1,41.3,122,41.6,121.9,42z M101.9,41.4c-0.1-0.4-0.1-0.7-0.1-1.1l1.5-0.1c0,0.3,0.1,0.6,0.1,0.9L101.9,41.4z
					 M120.7,38.9c0-0.3-0.1-0.6-0.1-0.9l1.5-0.3c0.1,0.4,0.1,0.7,0.2,1.1L120.7,38.9z M103.4,38.4l-1.5-0.2c0.1-0.4,0.1-0.7,0.2-1.1
					l1.5,0.4C103.5,37.8,103.4,38.1,103.4,38.4z M120,36.2c-0.1-0.3-0.3-0.6-0.4-0.8l1.3-0.7c0.2,0.3,0.3,0.6,0.5,1L120,36.2z
					 M104.2,35.8l-1.3-0.7c0.2-0.3,0.3-0.6,0.5-0.9l1.3,0.8C104.5,35.2,104.3,35.5,104.2,35.8z M118.5,33.9
					c-0.2-0.2-0.4-0.4-0.6-0.7l1-1.1c0.3,0.2,0.5,0.5,0.8,0.8L118.5,33.9z M105.8,33.6l-1.1-1.1c0.3-0.3,0.5-0.5,0.8-0.7l0.9,1.2
					C106.2,33.1,106,33.3,105.8,33.6z M116.4,32.2c-0.3-0.2-0.5-0.3-0.8-0.4l0.6-1.4c0.3,0.1,0.7,0.3,1,0.5L116.4,32.2z M108,31.9
					l-0.7-1.3c0.3-0.2,0.6-0.3,1-0.4l0.5,1.4C108.6,31.7,108.3,31.8,108,31.9z M114.3,31.3c-0.3-0.1-0.6-0.1-0.9-0.2l0.2-1.5
					c0.4,0.1,0.7,0.1,1.1,0.2L114.3,31.3z M110.6,31.1l-0.2-1.5c0.4-0.1,0.7-0.1,1.1-0.1l0.1,1.5C111.2,31,110.9,31,110.6,31.1z"/>
			</g>
			<g>
				<circle fill="#E6E9EE" cx="112" cy="39.7" r="7.5"/>
			</g>
			<g>
				<circle fill="#FFFFFF" cx="112" cy="39.7" r="3.8"/>
				<path fill="#231F20" d="M112,44.2c-0.6,0-1.3-0.1-1.8-0.4c-1.1-0.5-1.9-1.4-2.4-2.5c-0.4-1.1-0.4-2.3,0.1-3.4
					c0.7-1.6,2.3-2.7,4.1-2.7c0.6,0,1.3,0.1,1.8,0.4c1.1,0.5,1.9,1.4,2.4,2.5c0.4,1.1,0.4,2.3-0.1,3.4
					C115.4,43.2,113.7,44.2,112,44.2z M112,36.7c-1.2,0-2.3,0.7-2.7,1.8c-0.3,0.7-0.4,1.5-0.1,2.3c0.3,0.8,0.8,1.3,1.6,1.7
					c0.4,0.2,0.8,0.3,1.2,0.3c1.2,0,2.3-0.7,2.7-1.8c0.3-0.7,0.4-1.5,0.1-2.3c-0.3-0.8-0.8-1.3-1.6-1.7
					C112.8,36.8,112.4,36.7,112,36.7z"/>
			</g>
		</g>
		<g>
			<path fill="#231F20" d="M11.2,62c-2.6,0-4.8-2.1-4.8-4.8c0-2.6,2.1-4.8,4.8-4.8c2.6,0,4.8,2.1,4.8,4.8C16,59.9,13.8,62,11.2,62z
				 M11.2,54c-1.8,0-3.3,1.5-3.3,3.3s1.5,3.3,3.3,3.3s3.3-1.5,3.3-3.3S13,54,11.2,54z"/>
		</g>
		<polygon fill="#E6E9EE" points="49,79.3 60.4,91.6 70.9,91.6 59.5,79.3 		"/>
		<polygon fill="#FF7058" points="71.8,79.3 60.4,91.6 70.8,91.6 82.3,79.3 		"/>
		<g>
			<path fill="#231F20" d="M69.4,127.5l0.4,1.5c0.3-0.1,0.7-0.2,1-0.3l-0.5-1.4C70.1,127.3,69.8,127.4,69.4,127.5z"/>
			<path fill="#231F20" d="M74.6,125.1l0.9,1.2c0.3-0.2,0.6-0.4,0.8-0.6l-1-1.2C75.1,124.7,74.8,124.9,74.6,125.1z"/>
			<path fill="#231F20" d="M73,126.1l0.7,1.3c0.3-0.2,0.6-0.3,0.9-0.5l-0.8-1.3C73.5,125.8,73.2,125.9,73,126.1z"/>
			<path fill="#231F20" d="M71.3,126.9l0.6,1.4c0.3-0.1,0.6-0.3,1-0.4l-0.6-1.4C71.8,126.7,71.5,126.8,71.3,126.9z"/>
			<path fill="#231F20" d="M67.6,127.9l0.2,1.5c0.3,0,0.7-0.1,1-0.2l-0.3-1.5C68.2,127.8,67.9,127.8,67.6,127.9z"/>
			<path fill="#231F20" d="M65.7,128l0,1.5c0.4,0,0.7,0,1,0l-0.1-1.5C66.3,128,66,128,65.7,128z"/>
			<path fill="#231F20" d="M78.5,120.9l1.3,0.8c0.2-0.3,0.4-0.6,0.5-0.9l-1.3-0.7C78.8,120.4,78.6,120.7,78.5,120.9z"/>
			<path fill="#231F20" d="M79.4,119.3l1.4,0.6c0.1-0.3,0.3-0.6,0.4-1l-1.4-0.6C79.6,118.7,79.5,119,79.4,119.3z"/>
			<path fill="#231F20" d="M80.1,117.5l1.4,0.5c0.1-0.3,0.2-0.7,0.3-1l-1.5-0.4C80.3,116.9,80.2,117.2,80.1,117.5z"/>
			<path fill="#231F20" d="M80.5,115.6l1.5,0.3c0.1-0.3,0.1-0.7,0.2-1l-1.5-0.2C80.7,115,80.6,115.3,80.5,115.6z"/>
			<path fill="#231F20" d="M77.3,122.5l1.2,1c0.2-0.3,0.4-0.5,0.6-0.8l-1.2-0.9C77.7,122,77.5,122.2,77.3,122.5z"/>
			<path fill="#231F20" d="M76,123.9l1,1.1c0.3-0.2,0.5-0.5,0.7-0.7l-1.1-1C76.5,123.4,76.3,123.6,76,123.9z"/>
			<path fill="#231F20" d="M66.4,96.1v-3.8h8.5v-1.5h-2.3L84,78.6H71.5l-5.8,6.3l-5.8-6.3H47.3l11.4,12.2h-2.4v1.5h8.5v3.8
				c-8.9,0.4-16,7.7-16,16.7c0,9.2,7.5,16.7,16.7,16.7V128c-8.4,0-15.2-6.8-15.2-15.2c0-8.4,6.8-15.2,15.2-15.2
				c8.4,0,15.2,6.8,15.2,15.2c0,0.3,0,0.6,0,1l1.5,0.1c0-0.3,0-0.7,0-1C82.3,103.8,75.2,96.5,66.4,96.1z M50.7,80.1h8.4l5.5,5.9
				l-4.2,4.5L50.7,80.1z M62.1,90.8l10-10.7h8.4l-10,10.7H62.1z"/>
		</g>
	</g>
</g>
</svg>
