<?xml version="1.0" encoding="utf-8"?>
<!-- Generator: Adobe Illustrator 18.0.0, SVG Export Plug-In . SVG Version: 6.00 Build 0)  -->
<!DOCTYPE svg PUBLIC "-//W3C//DTD SVG 1.1//EN" "http://www.w3.org/Graphics/SVG/1.1/DTD/svg11.dtd">
<svg version="1.1" id="Layer_1" xmlns="http://www.w3.org/2000/svg" xmlns:xlink="http://www.w3.org/1999/xlink" x="0px" y="0px"
	 viewBox="0 0 129.5 129.5" enable-background="new 0 0 129.5 129.5" xml:space="preserve">
<g>
	<g>
		<g>
			<g>
				<polygon fill="#E6E9EE" points="104.8,81.4 64.8,116 24.7,81.4 37.1,77.3 64.8,101.1 92.4,77.3 				"/>
			</g>
		</g>
		<g>
			<polygon fill="#84DBFF" points="69.7,96.9 64.8,101.1 59.8,96.9 61.2,86.6 68.3,86.6 			"/>
		</g>
		<g>
			<polygon fill="#54C0EB" points="73.9,77.4 68.3,86.6 61.2,86.6 55.6,77.4 			"/>
		</g>
		<polyline fill="#FFFFFF" points="82.4,74 71.9,86.8 64.7,77.4 57.6,86.8 47.1,74 		"/>
		<path fill="#FFFFFF" d="M73.9,63.8v8.5l-9.1,5.2l-9.1-5.2v-8.5c2.8,2.3,5.9,3.7,9.2,3.7C68,67.5,71.1,66.1,73.9,63.8z"/>
		<path fill="#FFFFFF" d="M86.6,40.8c-0.4-0.2-0.9-0.2-1.4,0c0.2-1.8,0.4-3.6,0.4-5.4c0-15.5-9.3-21.2-20.8-21.2
			c-11.5,0-20.8,5.7-20.8,21.2c0,1.8,0.1,3.6,0.4,5.4c-0.5-0.2-1-0.2-1.4,0c-1.3,0.7-1.4,3.1-0.2,5.5c1,2,2.5,3.2,3.7,3.3
			c3.5,10,10.4,17.9,18.3,17.9c7.9,0,14.8-7.9,18.3-17.9c1.2-0.1,2.8-1.3,3.7-3.3C88,43.9,88,41.4,86.6,40.8z"/>
		<g>
			<polygon fill="#FF7058" points="100.5,105.8 93.9,99.2 87.3,105.8 			"/>
		</g>
		<polyline fill="#FFFFFF" points="82.1,108.9 82.1,105.8 105.7,105.8 105.7,108.9 		"/>
		<polygon fill="#231F20" points="81.4,105.1 81.4,108.9 82.9,108.9 82.9,106.6 104.9,106.6 104.9,108.9 106.4,108.9 106.4,105.1 		
			"/>
		<polygon fill="#FFFFFF" points="64.7,1.2 29,10.4 64.7,19.7 100.5,10.4 		"/>
		<path fill="#FFFFFF" d="M85.3,31.3c-10.1-2.3-20.6,5.5-20.6,5.5s-10.5-7.8-20.6-5.5c0,0,0.1-11,3-16.2l17.6,4.6l17.6-4.6
			C85.2,20.3,85.3,31.3,85.3,31.3z"/>
		<path fill="#231F20" d="M107.6,81.5l-24.8-8.2l-6.2-6.1C76.4,67.1,76.2,67,76,67h-1.4v-2.9c3.6-3.1,6.8-7.9,9-13.8
			c1.4-0.3,2.9-1.7,3.9-3.6c0.6-1.3,1-2.6,0.9-3.8c0-1.3-0.6-2.3-1.5-2.8c-0.3-0.1-0.6-0.2-0.9-0.2c0.2-1.5,0.3-3.1,0.3-4.5
			c0-1.5-0.1-2.8-0.2-4.1c0,0,0,0,0,0c0,0,0-0.1,0-0.1c0-1.4-0.3-10.3-2.6-15.5l17.3-4.5c0.3-0.1,0.6-0.4,0.6-0.7
			c0-0.3-0.2-0.6-0.6-0.7L64.9,0.5c-0.1,0-0.3,0-0.4,0L28.8,9.7c-0.3,0.1-0.6,0.4-0.6,0.7c0,0.3,0.2,0.6,0.6,0.7L46,15.6
			c-2.5,5.5-2.6,15.3-2.6,15.7c0,0,0,0,0,0.1c0,0,0,0,0,0c-0.1,1.2-0.2,2.5-0.2,4c0,1.5,0.1,3,0.3,4.5c-0.3,0-0.6,0.1-0.9,0.2
			c-0.9,0.4-1.4,1.4-1.5,2.8c0,1.2,0.3,2.5,0.9,3.8c1,1.9,2.4,3.3,3.9,3.6c2.2,5.9,5.3,10.7,9,13.8V67h-1.4c-0.2,0-0.4,0.1-0.5,0.2
			l-6.2,6.1l-24.8,8.2c-4.4,1.5-7.4,5.6-7.4,10.2v37.4H16V91.7c0-4,2.6-7.5,6.3-8.8l24.5-8.1L57,87.2c0.1,0.2,0.4,0.3,0.6,0.3
			c0.2,0,0.4-0.1,0.6-0.3l6.6-8.5l6.6,8.5c0.1,0.2,0.4,0.3,0.6,0.3h0c0.2,0,0.4-0.1,0.6-0.3l10.1-12.4l24.5,8.1
			c3.8,1.3,6.3,4.8,6.3,8.8v37.4h1.5V91.7C115,87,112,82.9,107.6,81.5z M64.7,2l32.8,8.5l-32.8,8.5l-32.8-8.5L64.7,2z M47.5,16
			l17.1,4.4c0.1,0,0.1,0,0.2,0c0.1,0,0.1,0,0.2,0L82,16c2,4.2,2.5,11.8,2.6,14.4c-1-0.2-2-0.3-3.1-0.3c-7.8,0-14.9,4.5-16.8,5.8
			c-1.8-1.3-9-5.8-16.7-5.8c-1,0-2.1,0.1-3.1,0.3C45,27.8,45.5,20.2,47.5,16z M47.1,49.4c-0.1-0.3-0.4-0.5-0.7-0.5
			c-0.9,0-2.2-1.1-3.1-2.9c-0.5-1-0.8-2.2-0.8-3.1c0-0.8,0.3-1.3,0.6-1.5c0.1,0,0.2-0.1,0.3-0.1c0.2,0,0.3,0,0.5,0.1
			c0.2,0.1,0.5,0,0.7-0.1c0.2-0.2,0.3-0.4,0.3-0.7c-0.2-1.8-0.4-3.6-0.4-5.3c0-1.2,0.1-2.3,0.2-3.4c1-0.2,2-0.3,3.1-0.3
			c8.4,0,16.2,5.7,16.3,5.8c0.1,0.1,0.3,0.1,0.4,0.1c0.2,0,0.3,0,0.4-0.1c0.1-0.1,7.9-5.8,16.3-5.8c1.1,0,2.1,0.1,3.1,0.3
			c0.1,1.1,0.2,2.2,0.2,3.4c0,1.7-0.1,3.5-0.4,5.3c0,0.3,0.1,0.5,0.3,0.7c0.2,0.2,0.5,0.2,0.7,0.1c0.4-0.1,0.6-0.1,0.9,0
			c0.4,0.2,0.6,0.7,0.6,1.5c0,0.9-0.3,2-0.8,3.1c-0.9,1.8-2.3,2.8-3.1,2.9c-0.3,0-0.6,0.2-0.7,0.5c-3.7,10.5-10.6,17.4-17.6,17.4
			C57.8,66.7,50.9,59.9,47.1,49.4z M57.6,85.6L48.1,74l5.7-5.6h1.1v3.8c0,0.3,0.1,0.5,0.4,0.7l8.4,4.7L57.6,85.6z M56.3,71.8v-6.5
			l0-0.1c2.7,1.9,5.5,2.9,8.4,2.9c2.9,0,5.8-1,8.4-2.9l0,0.1v6.5l-8.4,4.7L56.3,71.8z M71.9,85.6l-6.1-7.9l8.4-4.7
			c0.2-0.1,0.4-0.4,0.4-0.7v-3.8h1.1l5.7,5.6L71.9,85.6z"/>
		<rect x="0.8" y="42" fill="#FFFFFF" width="32.7" height="17.8"/>
		<rect x="17.1" y="38.4" fill="#FFFFFF" width="12.9" height="17.7"/>
		<rect x="4.3" y="38.4" fill="#FFFFFF" width="12.9" height="17.7"/>
		<g>
			<rect x="19.7" y="41.1" fill="#231F20" width="7.7" height="1.5"/>
			<rect x="19.7" y="44.7" fill="#231F20" width="7.7" height="1.5"/>
			<rect x="19.7" y="48.4" fill="#231F20" width="7.7" height="1.5"/>
			<rect x="19.7" y="52" fill="#231F20" width="7.7" height="1.5"/>
			<path fill="#231F20" d="M30.8,41.3v-3.6H3.5v3.6H0.1v19.3h34.2V41.3H30.8z M17.9,39.2h11.4v16.2H17.9V39.2z M5,39.2h11.4v16.2H5
				V39.2z M32.7,59.1H1.6V42.8h2v14.1h27.2V42.8h2V59.1z"/>
			<rect x="6.8" y="41.1" fill="#231F20" width="7.7" height="1.5"/>
			<rect x="6.8" y="44.7" fill="#231F20" width="7.7" height="1.5"/>
			<rect x="6.8" y="48.4" fill="#231F20" width="7.7" height="1.5"/>
			<rect x="6.8" y="52" fill="#231F20" width="7.7" height="1.5"/>
		</g>
		<g>
			<g>
				<path fill="#231F20" d="M117,12.5c-0.2,0-0.4-0.1-0.5-0.2c-0.3-0.3-0.3-0.8,0-1.1l1.3-1.3c0.3-0.3,0.8-0.3,1.1,0
					c0.3,0.3,0.3,0.8,0,1.1l-1.3,1.3C117.4,12.4,117.2,12.5,117,12.5z"/>
			</g>
			<g>
				<path fill="#231F20" d="M113,16.5c-0.2,0-0.4-0.1-0.5-0.2c-0.3-0.3-0.3-0.8,0-1.1l1.3-1.3c0.3-0.3,0.8-0.3,1.1,0
					c0.3,0.3,0.3,0.8,0,1.1l-1.3,1.3C113.4,16.5,113.2,16.5,113,16.5z"/>
			</g>
			<g>
				<path fill="#231F20" d="M118.3,16.5c-0.2,0-0.4-0.1-0.5-0.2l-1.3-1.3c-0.3-0.3-0.3-0.8,0-1.1c0.3-0.3,0.8-0.3,1.1,0l1.3,1.3
					c0.3,0.3,0.3,0.8,0,1.1C118.7,16.5,118.5,16.5,118.3,16.5z"/>
			</g>
			<g>
				<path fill="#231F20" d="M114.3,12.5c-0.2,0-0.4-0.1-0.5-0.2l-1.3-1.3c-0.3-0.3-0.3-0.8,0-1.1c0.3-0.3,0.8-0.3,1.1,0l1.3,1.3
					c0.3,0.3,0.3,0.8,0,1.1C114.7,12.4,114.5,12.5,114.3,12.5z"/>
			</g>
		</g>
		<g>
			<g>
				<path fill="#231F20" d="M95.3,62.5c-0.2,0-0.4-0.1-0.5-0.2c-0.3-0.3-0.3-0.8,0-1.1l1.3-1.3c0.3-0.3,0.8-0.3,1.1,0
					c0.3,0.3,0.3,0.8,0,1.1l-1.3,1.3C95.6,62.4,95.4,62.5,95.3,62.5z"/>
			</g>
			<g>
				<path fill="#231F20" d="M91.2,66.5c-0.2,0-0.4-0.1-0.5-0.2c-0.3-0.3-0.3-0.8,0-1.1L92,64c0.3-0.3,0.8-0.3,1.1,0
					c0.3,0.3,0.3,0.8,0,1.1l-1.3,1.3C91.6,66.5,91.4,66.5,91.2,66.5z"/>
			</g>
			<g>
				<path fill="#231F20" d="M96.5,66.5c-0.2,0-0.4-0.1-0.5-0.2L94.7,65c-0.3-0.3-0.3-0.8,0-1.1c0.3-0.3,0.8-0.3,1.1,0l1.3,1.3
					c0.3,0.3,0.3,0.8,0,1.1C96.9,66.5,96.7,66.5,96.5,66.5z"/>
			</g>
			<g>
				<path fill="#231F20" d="M92.5,62.5c-0.2,0-0.4-0.1-0.5-0.2L90.7,61c-0.3-0.3-0.3-0.8,0-1.1c0.3-0.3,0.8-0.3,1.1,0l1.3,1.3
					c0.3,0.3,0.3,0.8,0,1.1C92.9,62.4,92.7,62.5,92.5,62.5z"/>
			</g>
		</g>
		<g>
			<g>
				<path fill="#231F20" d="M14.7,19.7c-0.2,0-0.4-0.1-0.5-0.2c-0.3-0.3-0.3-0.8,0-1.1l1.3-1.3c0.3-0.3,0.8-0.3,1.1,0
					c0.3,0.3,0.3,0.8,0,1.1l-1.3,1.3C15.1,19.7,14.9,19.7,14.7,19.7z"/>
			</g>
			<g>
				<path fill="#231F20" d="M10.7,23.8c-0.2,0-0.4-0.1-0.5-0.2c-0.3-0.3-0.3-0.8,0-1.1l1.3-1.3c0.3-0.3,0.8-0.3,1.1,0
					c0.3,0.3,0.3,0.8,0,1.1l-1.3,1.3C11.1,23.7,10.9,23.8,10.7,23.8z"/>
			</g>
			<g>
				<path fill="#231F20" d="M16,23.8c-0.2,0-0.4-0.1-0.5-0.2l-1.3-1.3c-0.3-0.3-0.3-0.8,0-1.1c0.3-0.3,0.8-0.3,1.1,0l1.3,1.3
					c0.3,0.3,0.3,0.8,0,1.1C16.4,23.7,16.2,23.8,16,23.8z"/>
			</g>
			<g>
				<path fill="#231F20" d="M12,19.7c-0.2,0-0.4-0.1-0.5-0.2l-1.3-1.3c-0.3-0.3-0.3-0.8,0-1.1c0.3-0.3,0.8-0.3,1.1,0l1.3,1.3
					c0.3,0.3,0.3,0.8,0,1.1C12.4,19.7,12.2,19.7,12,19.7z"/>
			</g>
		</g>
		<circle fill="#FFFFFF" cx="116.1" cy="49.3" r="12.6"/>
		<path fill="#231F20" d="M116.1,35.9c-7.4,0-13.4,6-13.4,13.4s6,13.4,13.4,13.4s13.4-6,13.4-13.4S123.4,35.9,116.1,35.9z
			 M127.9,48.5h-4.6c-0.1-4.4-1.4-8.1-3.2-10.4C124.5,39.7,127.6,43.7,127.9,48.5z M115.3,37.5v11h-5
			C110.5,42.9,112.6,38.2,115.3,37.5z M115.3,50v11c-2.7-0.7-4.9-5.4-5-11H115.3z M116.8,61V50h5C121.7,55.6,119.5,60.3,116.8,61z
			 M116.8,48.5v-11c2.7,0.7,4.9,5.4,5,11H116.8z M112,38.1c-1.8,2.2-3.1,6-3.2,10.4h-4.6C104.5,43.7,107.7,39.7,112,38.1z M104.2,50
			h4.6c0.1,4.4,1.4,8.2,3.2,10.4C107.7,58.8,104.5,54.8,104.2,50z M120.1,60.4c1.9-2.2,3.1-6,3.2-10.4h4.6
			C127.6,54.8,124.5,58.8,120.1,60.4z"/>
		<g>
			<circle fill="#84DBFF" cx="13.4" cy="3.1" r="2"/>
		</g>
		<g>
			<circle fill="#FFD05B" cx="100.5" cy="21.4" r="2.7"/>
		</g>
		<g>
			<circle fill="#FF7058" cx="21.9" cy="70.7" r="2.2"/>
		</g>
		<g>
			<line fill="#FFFFFF" x1="29" y1="115.2" x2="37.7" y2="115.2"/>
			<path fill="#231F20" d="M37.7,116H29c-0.4,0-0.8-0.3-0.8-0.8s0.3-0.8,0.8-0.8h8.7c0.4,0,0.8,0.3,0.8,0.8S38.1,116,37.7,116z"/>
		</g>
		<g>
			<line fill="#FFFFFF" x1="36.8" y1="118.4" x2="41.1" y2="118.4"/>
			<path fill="#231F20" d="M41.1,119.1h-4.3c-0.4,0-0.8-0.3-0.8-0.8c0-0.4,0.3-0.8,0.8-0.8h4.3c0.4,0,0.8,0.3,0.8,0.8
				C41.8,118.8,41.5,119.1,41.1,119.1z"/>
		</g>
		<g>
			<line fill="#FFFFFF" x1="41.6" y1="115.2" x2="45.7" y2="115.2"/>
			<path fill="#231F20" d="M45.7,116h-4.1c-0.4,0-0.8-0.3-0.8-0.8s0.3-0.8,0.8-0.8h4.1c0.4,0,0.8,0.3,0.8,0.8S46.1,116,45.7,116z"/>
		</g>
		<g>
			<line fill="#FFFFFF" x1="32.9" y1="118.4" x2="33.7" y2="118.4"/>
			<path fill="#231F20" d="M33.7,119.1h-0.8c-0.4,0-0.8-0.3-0.8-0.8c0-0.4,0.3-0.8,0.8-0.8h0.8c0.4,0,0.8,0.3,0.8,0.8
				C34.5,118.8,34.1,119.1,33.7,119.1z"/>
		</g>
	</g>
</g>
</svg>
