<?xml version="1.0" encoding="utf-8"?>
<!-- Generator: Adobe Illustrator 18.0.0, SVG Export Plug-In . SVG Version: 6.00 Build 0)  -->
<!DOCTYPE svg PUBLIC "-//W3C//DTD SVG 1.1//EN" "http://www.w3.org/Graphics/SVG/1.1/DTD/svg11.dtd">
<svg version="1.1" id="Layer_1" xmlns="http://www.w3.org/2000/svg" xmlns:xlink="http://www.w3.org/1999/xlink" x="0px" y="0px"
	 viewBox="0 0 129.5 129.5" enable-background="new 0 0 129.5 129.5" xml:space="preserve">
<g>
	<g>
		<g>
			<path fill="#231F20" d="M93.5,19.1c-1.9,0-3.4-1.5-3.4-3.4c0-1.9,1.5-3.4,3.4-3.4s3.4,1.5,3.4,3.4C96.9,17.6,95.4,19.1,93.5,19.1
				z M93.5,13.8c-1.1,0-1.9,0.9-1.9,1.9c0,1.1,0.9,1.9,1.9,1.9c1.1,0,1.9-0.9,1.9-1.9C95.4,14.6,94.6,13.8,93.5,13.8z"/>
		</g>
		<g>
			<polygon fill="#CED5E0" points="77.4,118.9 52.1,118.9 55.2,123.8 74.3,123.8 			"/>
		</g>
		<g>
			<rect x="11.5" y="57.8" fill="#84DBFF" width="106.5" height="50.2"/>
		</g>
		<g>
			<g>
				<path fill="#231F20" d="M13.8,8.5c-0.2,0-0.4-0.1-0.5-0.2c-0.3-0.3-0.3-0.8,0-1.1l1.3-1.3c0.3-0.3,0.8-0.3,1.1,0
					c0.3,0.3,0.3,0.8,0,1.1l-1.3,1.3C14.2,8.4,14,8.5,13.8,8.5z"/>
			</g>
			<g>
				<path fill="#231F20" d="M9.7,12.5c-0.2,0-0.4-0.1-0.5-0.2c-0.3-0.3-0.3-0.8,0-1.1l1.3-1.3c0.3-0.3,0.8-0.3,1.1,0
					c0.3,0.3,0.3,0.8,0,1.1l-1.3,1.3C10.1,12.4,9.9,12.5,9.7,12.5z"/>
			</g>
			<g>
				<path fill="#231F20" d="M15.1,12.5c-0.2,0-0.4-0.1-0.5-0.2L13.2,11c-0.3-0.3-0.3-0.8,0-1.1c0.3-0.3,0.8-0.3,1.1,0l1.3,1.3
					c0.3,0.3,0.3,0.8,0,1.1C15.4,12.4,15.2,12.5,15.1,12.5z"/>
			</g>
			<g>
				<path fill="#231F20" d="M11,8.5c-0.2,0-0.4-0.1-0.5-0.2L9.2,7c-0.3-0.3-0.3-0.8,0-1.1c0.3-0.3,0.8-0.3,1.1,0l1.3,1.3
					c0.3,0.3,0.3,0.8,0,1.1C11.4,8.4,11.2,8.5,11,8.5z"/>
			</g>
		</g>
		<g>
			<g>
				<path fill="#231F20" d="M116.7,10.5c-0.2,0-0.4-0.1-0.5-0.2c-0.3-0.3-0.3-0.8,0-1.1l1.3-1.3c0.3-0.3,0.8-0.3,1.1,0
					c0.3,0.3,0.3,0.8,0,1.1l-1.3,1.3C117.1,10.4,116.9,10.5,116.7,10.5z"/>
			</g>
			<g>
				<path fill="#231F20" d="M112.7,14.5c-0.2,0-0.4-0.1-0.5-0.2c-0.3-0.3-0.3-0.8,0-1.1l1.3-1.3c0.3-0.3,0.8-0.3,1.1,0
					c0.3,0.3,0.3,0.8,0,1.1l-1.3,1.3C113.1,14.4,112.9,14.5,112.7,14.5z"/>
			</g>
			<g>
				<path fill="#231F20" d="M118,14.5c-0.2,0-0.4-0.1-0.5-0.2l-1.3-1.3c-0.3-0.3-0.3-0.8,0-1.1c0.3-0.3,0.8-0.3,1.1,0l1.3,1.3
					c0.3,0.3,0.3,0.8,0,1.1C118.4,14.4,118.2,14.5,118,14.5z"/>
			</g>
			<g>
				<path fill="#231F20" d="M114,10.5c-0.2,0-0.4-0.1-0.5-0.2L112.2,9c-0.3-0.3-0.3-0.8,0-1.1c0.3-0.3,0.8-0.3,1.1,0l1.3,1.3
					c0.3,0.3,0.3,0.8,0,1.1C114.4,10.4,114.2,10.5,114,10.5z"/>
			</g>
		</g>
		<g>
			<g>
				<path fill="#231F20" d="M15.8,33.5c-0.2,0-0.4-0.1-0.5-0.2c-0.3-0.3-0.3-0.8,0-1.1l1.3-1.3c0.3-0.3,0.8-0.3,1.1,0
					c0.3,0.3,0.3,0.8,0,1.1l-1.3,1.3C16.2,33.4,16,33.5,15.8,33.5z"/>
			</g>
			<g>
				<path fill="#231F20" d="M11.8,37.5c-0.2,0-0.4-0.1-0.5-0.2c-0.3-0.3-0.3-0.8,0-1.1l1.3-1.3c0.3-0.3,0.8-0.3,1.1,0
					c0.3,0.3,0.3,0.8,0,1.1l-1.3,1.3C12.1,37.4,11.9,37.5,11.8,37.5z"/>
			</g>
			<g>
				<path fill="#231F20" d="M17.1,37.5c-0.2,0-0.4-0.1-0.5-0.2L15.3,36c-0.3-0.3-0.3-0.8,0-1.1c0.3-0.3,0.8-0.3,1.1,0l1.3,1.3
					c0.3,0.3,0.3,0.8,0,1.1C17.5,37.4,17.3,37.5,17.1,37.5z"/>
			</g>
			<g>
				<path fill="#231F20" d="M13,33.5c-0.2,0-0.4-0.1-0.5-0.2L11.2,32c-0.3-0.3-0.3-0.8,0-1.1c0.3-0.3,0.8-0.3,1.1,0l1.3,1.3
					c0.3,0.3,0.3,0.8,0,1.1C13.4,33.4,13.2,33.5,13,33.5z"/>
			</g>
		</g>
		<path fill="#231F20" d="M129.4,118.5c-0.1-0.3-0.4-0.4-0.7-0.4h-7.6V50.7c0-3.3-2.7-5.9-5.9-5.9H98.9v1.5h16.4
			c2.4,0,4.4,2,4.4,4.4v4.2H98.3v1.5h21.4v53.4H9.8V56.3h21v-1.5h-21v-4.2c0-2.4,2-4.4,4.4-4.4h16v-1.5h-16c-3.3,0-5.9,2.7-5.9,5.9
			v67.5H0.7c-0.3,0-0.5,0.2-0.7,0.4c-0.1,0.3-0.1,0.6,0.1,0.8l7.4,9.9c0.1,0.2,0.4,0.3,0.6,0.3h113.2c0.2,0,0.5-0.1,0.6-0.3l7.4-9.9
			C129.5,119.1,129.5,118.8,129.4,118.5z M9.8,111.2h109.8v6.9H9.8V111.2z M121,128H8.5l-6.3-8.4h125L121,128z"/>
		<g>
			<g>
				<path fill="#231F20" d="M93.5,64c-0.4,0-0.8-0.3-0.8-0.8v-2.4c0-0.4,0.3-0.8,0.8-0.8c0.4,0,0.8,0.3,0.8,0.8v2.4
					C94.3,63.6,93.9,64,93.5,64z"/>
			</g>
			<g>
				<path fill="#231F20" d="M93.5,58.8c-0.4,0-0.8-0.3-0.8-0.8v-1.3c0-0.4,0.3-0.8,0.8-0.8s0.8,0.3,0.8,0.8V58
					C94.3,58.4,93.9,58.8,93.5,58.8z"/>
			</g>
			<g>
				<path fill="#231F20" d="M75.4,67.4c-0.4,0-0.8-0.3-0.8-0.8v-2.4c0-0.4,0.3-0.8,0.8-0.8c0.4,0,0.8,0.3,0.8,0.8v2.4
					C76.1,67.1,75.8,67.4,75.4,67.4z"/>
			</g>
			<g>
				<path fill="#231F20" d="M75.4,62.2c-0.4,0-0.8-0.3-0.8-0.8v-1.3c0-0.4,0.3-0.8,0.8-0.8c0.4,0,0.8,0.3,0.8,0.8v1.3
					C76.1,61.9,75.8,62.2,75.4,62.2z"/>
			</g>
			<g>
				<path fill="#231F20" d="M53.1,68.2c-0.4,0-0.8-0.3-0.8-0.8v-2c0-0.4,0.3-0.8,0.8-0.8c0.4,0,0.8,0.3,0.8,0.8v2
					C53.9,67.9,53.5,68.2,53.1,68.2z"/>
			</g>
			<g>
				<path fill="#231F20" d="M53.1,63.9c-0.4,0-0.8-0.3-0.8-0.8V62c0-0.4,0.3-0.8,0.8-0.8c0.4,0,0.8,0.3,0.8,0.8v1.1
					C53.9,63.5,53.5,63.9,53.1,63.9z"/>
			</g>
			<g>
				<path fill="#231F20" d="M70.2,68.1h-1.5v-1h1.5V68.1z M70.2,65.1h-1.5v-1h1.5V65.1z M70.2,62.1h-1.5v-1h1.5V62.1z M70.2,59.1
					h-1.5v-1h1.5V59.1z M70.2,56.1h-1.5v-1h1.5V56.1z M70.2,53.1h-1.5v-1h1.5V53.1z M70.2,50.1h-1.5v-1h1.5V50.1z M70.2,47.1h-1.5
					v-1h1.5V47.1z M70.2,44.1h-1.5v-1h1.5V44.1z M70.2,41.1h-1.5v-1h1.5V41.1z"/>
			</g>
			<g>
				<path fill="#231F20" d="M89.1,69.7h-1.5l0-35.8c0-0.4,0.3-0.8,0.8-0.8h5L78.9,18.8L64.5,33.2h5c0.4,0,0.8,0.3,0.8,0.8v6.1h-1.5
					v-5.4h-6c-0.3,0-0.6-0.2-0.7-0.5c-0.1-0.3-0.1-0.6,0.2-0.8l16.2-16.2c0.3-0.3,0.8-0.3,1.1,0l16.2,16.2c0.2,0.2,0.3,0.5,0.2,0.8
					c-0.1,0.3-0.4,0.5-0.7,0.5h-6L89.1,69.7z"/>
			</g>
			<g>
				<path fill="#231F20" d="M93.5,54.7c-0.4,0-0.8-0.3-0.8-0.8V37.9c0-0.4,0.3-0.8,0.8-0.8s0.8,0.3,0.8,0.8V54
					C94.3,54.4,93.9,54.7,93.5,54.7z"/>
			</g>
			<g>
				<path fill="#231F20" d="M75.4,58.2L75.4,58.2c-0.4,0-0.8-0.3-0.8-0.8l0-16.1c0-0.4,0.3-0.8,0.8-0.8l0,0c0.4,0,0.8,0.3,0.8,0.8
					l0,16.1C76.1,57.8,75.8,58.2,75.4,58.2z"/>
			</g>
			<g>
				<path fill="#231F20" d="M59.6,37.6h-1.5v-1h1.5V37.6z M59.6,34.6h-1.5v-1h1.5V34.6z M59.6,31.6h-1.5v-1h1.5V31.6z M59.6,28.6
					h-1.5v-1h1.5V28.6z M59.6,25.6h-1.5v-1h1.5V25.6z M59.6,22.6h-1.5v-1h1.5V22.6z M59.6,19.6h-1.5v-1h1.5V19.6z M59.6,16.6h-1.5
					v-1h1.5V16.6z"/>
			</g>
			<g>
				<path fill="#231F20" d="M72.1,25.2h-1.5l0-13.7c0-0.4,0.3-0.8,0.8-0.8h2.7l-9-9l-9,9h2.7c0.4,0,0.8,0.3,0.8,0.8v4.1h-1.5v-3.3
					h-3.8c-0.3,0-0.6-0.2-0.7-0.5c-0.1-0.3-0.1-0.6,0.2-0.8L64.6,0.2c0.3-0.3,0.8-0.3,1.1,0L76.4,11c0.2,0.2,0.3,0.5,0.2,0.8
					c-0.1,0.3-0.4,0.5-0.7,0.5h-3.8L72.1,25.2z"/>
			</g>
			<g>
				<path fill="#231F20" d="M53.1,60.5L53.1,60.5c-0.4,0-0.8-0.3-0.8-0.8l0-13.5c0-0.4,0.3-0.8,0.8-0.8l0,0c0.4,0,0.8,0.3,0.8,0.8
					l0,13.5C53.9,60.1,53.5,60.5,53.1,60.5z"/>
			</g>
			<g>
				<g>
					<path fill="#231F20" d="M36.8,54.6h-1.5v-1h1.5V54.6z M36.8,51.6h-1.5v-1h1.5V51.6z M36.8,48.6h-1.5v-1h1.5V48.6z M36.8,45.6
						h-1.5v-1h1.5V45.6z M36.8,42.6h-1.5v-1h1.5V42.6z M36.8,39.6h-1.5v-1h1.5V39.6z M36.8,36.6h-1.5v-1h1.5V36.6z M36.8,33.6h-1.5
						v-1h1.5V33.6z"/>
				</g>
				<g>
					<path fill="#231F20" d="M42.3,57.5c-0.4,0-0.8-0.3-0.8-0.8v-2c0-0.4,0.3-0.8,0.8-0.8c0.4,0,0.8,0.3,0.8,0.8v2
						C43.1,57.1,42.8,57.5,42.3,57.5z"/>
				</g>
				<g>
					<path fill="#231F20" d="M42.3,53.1c-0.4,0-0.8-0.3-0.8-0.8v-1.1c0-0.4,0.3-0.8,0.8-0.8c0.4,0,0.8,0.3,0.8,0.8v1.1
						C43.1,52.8,42.8,53.1,42.3,53.1z"/>
				</g>
				<g>
					<path fill="#231F20" d="M42.3,49.7c-0.4,0-0.8-0.3-0.8-0.8V35.5c0-0.4,0.3-0.8,0.8-0.8c0.4,0,0.8,0.3,0.8,0.8V49
						C43.1,49.4,42.8,49.7,42.3,49.7z"/>
				</g>
				<g>
					<path fill="#231F20" d="M49.4,56.3h-1.5l0-27.8c0-0.4,0.3-0.8,0.8-0.8h2.7l-9-9l-9,9h2.7c0.4,0,0.8,0.3,0.8,0.8v4.1h-1.5v-3.3
						h-3.8c-0.3,0-0.6-0.2-0.7-0.5c-0.1-0.3-0.1-0.6,0.2-0.8l10.8-10.8c0.3-0.3,0.8-0.3,1.1,0L53.7,28c0.2,0.2,0.3,0.5,0.2,0.8
						c-0.1,0.3-0.4,0.5-0.7,0.5h-3.8L49.4,56.3z"/>
				</g>
			</g>
		</g>
		<g>
			<g>
				<path fill="#FFFFFF" d="M109.1,84.4H101c-0.4,0-0.8-0.3-0.8-0.8s0.3-0.8,0.8-0.8h8.1c0.4,0,0.8,0.3,0.8,0.8
					S109.5,84.4,109.1,84.4z"/>
			</g>
			<g>
				<path fill="#FFFFFF" d="M101.7,81.5h-4c-0.4,0-0.8-0.3-0.8-0.8c0-0.4,0.3-0.8,0.8-0.8h4c0.4,0,0.8,0.3,0.8,0.8
					C102.5,81.1,102.1,81.5,101.7,81.5z"/>
			</g>
			<g>
				<path fill="#FFFFFF" d="M97.3,84.4h-3.8c-0.4,0-0.8-0.3-0.8-0.8s0.3-0.8,0.8-0.8h3.8c0.4,0,0.8,0.3,0.8,0.8S97.7,84.4,97.3,84.4
					z"/>
			</g>
			<g>
				<path fill="#FFFFFF" d="M105.4,81.5h-0.8c-0.4,0-0.8-0.3-0.8-0.8c0-0.4,0.3-0.8,0.8-0.8h0.8c0.4,0,0.8,0.3,0.8,0.8
					C106.1,81.1,105.8,81.5,105.4,81.5z"/>
			</g>
		</g>
		<g>
			<g>
				<path fill="#FFFFFF" d="M42.1,96.7H34c-0.4,0-0.8-0.3-0.8-0.8s0.3-0.8,0.8-0.8h8.1c0.4,0,0.8,0.3,0.8,0.8S42.5,96.7,42.1,96.7z"
					/>
			</g>
			<g>
				<path fill="#FFFFFF" d="M34.7,93.7h-4c-0.4,0-0.8-0.3-0.8-0.8c0-0.4,0.3-0.8,0.8-0.8h4c0.4,0,0.8,0.3,0.8,0.8
					C35.5,93.4,35.2,93.7,34.7,93.7z"/>
			</g>
			<g>
				<path fill="#FFFFFF" d="M30.3,96.7h-3.8c-0.4,0-0.8-0.3-0.8-0.8s0.3-0.8,0.8-0.8h3.8c0.4,0,0.8,0.3,0.8,0.8S30.7,96.7,30.3,96.7
					z"/>
			</g>
			<g>
				<path fill="#FFFFFF" d="M38.4,93.7h-0.8c-0.4,0-0.8-0.3-0.8-0.8c0-0.4,0.3-0.8,0.8-0.8h0.8c0.4,0,0.8,0.3,0.8,0.8
					C39.2,93.4,38.8,93.7,38.4,93.7z"/>
			</g>
		</g>
		<g>
			<circle fill="#E6E9EE" cx="29" cy="7.4" r="2.5"/>
		</g>
		<g>
			<circle fill="#FF7058" cx="109.1" cy="29" r="2.5"/>
		</g>
		<g>
			<circle fill="#FFD05B" cx="126.9" cy="68.9" r="2.5"/>
		</g>
		<g>
			<circle fill="#84DBFF" cx="2.6" cy="21.7" r="1.8"/>
		</g>
		<g>
			<circle fill="#84DBFF" cx="126.9" cy="42.8" r="1.8"/>
		</g>
	</g>
</g>
</svg>
