<?xml version="1.0" encoding="utf-8"?>
<!-- Generator: Adobe Illustrator 18.0.0, SVG Export Plug-In . SVG Version: 6.00 Build 0)  -->
<!DOCTYPE svg PUBLIC "-//W3C//DTD SVG 1.1//EN" "http://www.w3.org/Graphics/SVG/1.1/DTD/svg11.dtd">
<svg version="1.1" id="Layer_1" xmlns="http://www.w3.org/2000/svg" xmlns:xlink="http://www.w3.org/1999/xlink" x="0px" y="0px"
	 viewBox="0 0 129.5 129.5" enable-background="new 0 0 129.5 129.5" xml:space="preserve">
<g>
	<g>
		<g>
			<circle fill="#FFFFFF" cx="124.4" cy="108.5" r="4.1"/>
			<path fill="#231F20" d="M124.4,113.3c-2.7,0-4.8-2.2-4.8-4.8c0-2.7,2.2-4.8,4.8-4.8c2.7,0,4.8,2.2,4.8,4.8
				C129.3,111.1,127.1,113.3,124.4,113.3z M124.4,105.1c-1.8,0-3.3,1.5-3.3,3.3c0,1.8,1.5,3.3,3.3,3.3c1.8,0,3.3-1.5,3.3-3.3
				C127.8,106.6,126.3,105.1,124.4,105.1z"/>
		</g>
		<g>
			<g>
				<path fill="#231F20" d="M54.1,107.9c-0.2,0-0.4-0.1-0.5-0.2c-0.3-0.3-0.3-0.8,0-1.1l1.2-1.2c0.3-0.3,0.8-0.3,1.1,0
					c0.3,0.3,0.3,0.8,0,1.1l-1.2,1.2C54.5,107.8,54.3,107.9,54.1,107.9z"/>
			</g>
			<g>
				<path fill="#231F20" d="M50.2,111.8c-0.2,0-0.4-0.1-0.5-0.2c-0.3-0.3-0.3-0.8,0-1.1l1.2-1.2c0.3-0.3,0.8-0.3,1.1,0
					c0.3,0.3,0.3,0.8,0,1.1l-1.2,1.2C50.6,111.7,50.4,111.8,50.2,111.8z"/>
			</g>
			<g>
				<path fill="#231F20" d="M55.3,111.8c-0.2,0-0.4-0.1-0.5-0.2l-1.2-1.2c-0.3-0.3-0.3-0.8,0-1.1c0.3-0.3,0.8-0.3,1.1,0l1.2,1.2
					c0.3,0.3,0.3,0.8,0,1.1C55.7,111.7,55.5,111.8,55.3,111.8z"/>
			</g>
			<g>
				<path fill="#231F20" d="M51.5,107.9c-0.2,0-0.4-0.1-0.5-0.2l-1.2-1.2c-0.3-0.3-0.3-0.8,0-1.1c0.3-0.3,0.8-0.3,1.1,0l1.2,1.2
					c0.3,0.3,0.3,0.8,0,1.1C51.8,107.8,51.7,107.9,51.5,107.9z"/>
			</g>
		</g>
		<g>
			<g>
				<path fill="#231F20" d="M127.1,4.2c-0.2,0-0.4-0.1-0.5-0.2c-0.3-0.3-0.3-0.8,0-1.1l1.2-1.2c0.3-0.3,0.8-0.3,1.1,0
					c0.3,0.3,0.3,0.8,0,1.1L127.6,4C127.4,4.1,127.2,4.2,127.1,4.2z"/>
			</g>
			<g>
				<path fill="#231F20" d="M123.2,8.1c-0.2,0-0.4-0.1-0.5-0.2c-0.3-0.3-0.3-0.8,0-1.1l1.2-1.2c0.3-0.3,0.8-0.3,1.1,0
					c0.3,0.3,0.3,0.8,0,1.1l-1.2,1.2C123.6,8,123.4,8.1,123.2,8.1z"/>
			</g>
			<g>
				<path fill="#231F20" d="M128.3,8.1c-0.2,0-0.4-0.1-0.5-0.2l-1.2-1.2c-0.3-0.3-0.3-0.8,0-1.1c0.3-0.3,0.8-0.3,1.1,0l1.2,1.2
					c0.3,0.3,0.3,0.8,0,1.1C128.7,8,128.5,8.1,128.3,8.1z"/>
			</g>
			<g>
				<path fill="#231F20" d="M124.4,4.2c-0.2,0-0.4-0.1-0.5-0.2l-1.2-1.2c-0.3-0.3-0.3-0.8,0-1.1c0.3-0.3,0.8-0.3,1.1,0l1.2,1.2
					c0.3,0.3,0.3,0.8,0,1.1C124.8,4.1,124.6,4.2,124.4,4.2z"/>
			</g>
		</g>
		<g>
			<path fill="#231F20" d="M4.8,15.9c-0.2,0-0.4-0.1-0.5-0.2c-0.3-0.3-0.3-0.8,0-1.1l1.2-1.2c0.3-0.3,0.8-0.3,1.1,0
				c0.3,0.3,0.3,0.8,0,1.1l-1.2,1.2C5.2,15.8,5,15.9,4.8,15.9z"/>
		</g>
		<g>
			<path fill="#231F20" d="M1,19.7c-0.2,0-0.4-0.1-0.5-0.2c-0.3-0.3-0.3-0.8,0-1.1l1.2-1.2c0.3-0.3,0.8-0.3,1.1,0
				C3,17.5,3,18,2.7,18.3l-1.2,1.2C1.4,19.7,1.2,19.7,1,19.7z"/>
		</g>
		<g>
			<path fill="#231F20" d="M6.1,19.7c-0.2,0-0.4-0.1-0.5-0.2l-1.2-1.2C4,18,4,17.5,4.3,17.2c0.3-0.3,0.8-0.3,1.1,0l1.2,1.2
				c0.3,0.3,0.3,0.8,0,1.1C6.4,19.7,6.3,19.7,6.1,19.7z"/>
		</g>
		<g>
			<path fill="#231F20" d="M2.2,15.9c-0.2,0-0.4-0.1-0.5-0.2l-1.2-1.2c-0.3-0.3-0.3-0.8,0-1.1c0.3-0.3,0.8-0.3,1.1,0l1.2,1.2
				c0.3,0.3,0.3,0.8,0,1.1C2.6,15.8,2.4,15.9,2.2,15.9z"/>
		</g>
		<g>
			<circle fill="#FFD05B" cx="53" cy="84.9" r="1.9"/>
		</g>
		<g>
			<circle fill="#FFD05B" cx="127.1" cy="23.1" r="1.9"/>
		</g>
		<g>
			<path fill="#231F20" d="M114.8,120.5H63.7c-0.4,0-0.8-0.3-0.8-0.8V36.1l-13.1-7.3c-0.2-0.1-0.4-0.4-0.4-0.7
				c0-0.3,0.1-0.5,0.4-0.7L63,20.3v-8c0-0.4,0.3-0.8,0.8-0.8h51.1c0.4,0,0.8,0.3,0.8,0.8v107.5C115.6,120.2,115.2,120.5,114.8,120.5
				z M64.5,119h49.6V13H64.5v7.7c0,0.3-0.1,0.5-0.4,0.7l-12.3,6.8L64.1,35c0.2,0.1,0.4,0.4,0.4,0.7V119z"/>
		</g>
		<g>
			<polygon fill="#E6E9EE" points="65.7,117.8 65.7,34.5 54.3,28.2 65.7,21.9 65.7,14.3 112.8,14.3 112.8,117.8 			"/>
		</g>
		<g>
			<rect x="70.2" y="21.2" fill="#FFFFFF" width="11.9" height="11.9"/>
			<path fill="#231F20" d="M82.1,33.8H70.2c-0.4,0-0.8-0.3-0.8-0.8V21.2c0-0.4,0.3-0.8,0.8-0.8h11.9c0.4,0,0.8,0.3,0.8,0.8V33
				C82.8,33.4,82.5,33.8,82.1,33.8z M71,32.3h10.4V21.9H71V32.3z"/>
		</g>
		<g>
			<g>
				<path fill="#231F20" d="M108.3,26H86.5c-0.4,0-0.8-0.3-0.8-0.8c0-0.4,0.3-0.8,0.8-0.8h21.8c0.4,0,0.8,0.3,0.8,0.8
					C109.1,25.6,108.7,26,108.3,26z"/>
			</g>
			<g>
				<path fill="#231F20" d="M108.3,29.9H86.5c-0.4,0-0.8-0.3-0.8-0.8c0-0.4,0.3-0.8,0.8-0.8h21.8c0.4,0,0.8,0.3,0.8,0.8
					C109.1,29.5,108.7,29.9,108.3,29.9z"/>
			</g>
			<g>
				<path fill="#231F20" d="M100.9,33.8H86.5c-0.4,0-0.8-0.3-0.8-0.8c0-0.4,0.3-0.8,0.8-0.8h14.4c0.4,0,0.8,0.3,0.8,0.8
					C101.6,33.4,101.3,33.8,100.9,33.8z"/>
			</g>
		</g>
		<g>
			<rect x="70.2" y="39.1" fill="#FFFFFF" width="11.9" height="11.9"/>
			<path fill="#231F20" d="M82.1,51.8H70.2c-0.4,0-0.8-0.3-0.8-0.8V39.1c0-0.4,0.3-0.8,0.8-0.8h11.9c0.4,0,0.8,0.3,0.8,0.8V51
				C82.8,51.4,82.5,51.8,82.1,51.8z M71,50.3h10.4V39.9H71V50.3z"/>
		</g>
		<g>
			<g>
				<path fill="#231F20" d="M108.3,44H86.5c-0.4,0-0.8-0.3-0.8-0.8c0-0.4,0.3-0.8,0.8-0.8h21.8c0.4,0,0.8,0.3,0.8,0.8
					C109.1,43.6,108.7,44,108.3,44z"/>
			</g>
			<g>
				<path fill="#231F20" d="M108.3,47.9H86.5c-0.4,0-0.8-0.3-0.8-0.8s0.3-0.8,0.8-0.8h21.8c0.4,0,0.8,0.3,0.8,0.8
					S108.7,47.9,108.3,47.9z"/>
			</g>
			<g>
				<path fill="#231F20" d="M100.9,51.8H86.5c-0.4,0-0.8-0.3-0.8-0.8c0-0.4,0.3-0.8,0.8-0.8h14.4c0.4,0,0.8,0.3,0.8,0.8
					C101.6,51.4,101.3,51.8,100.9,51.8z"/>
			</g>
		</g>
		<g>
			<rect x="70.2" y="57.1" fill="#FFFFFF" width="11.9" height="11.9"/>
			<path fill="#231F20" d="M82.1,69.7H70.2c-0.4,0-0.8-0.3-0.8-0.8V57.1c0-0.4,0.3-0.8,0.8-0.8h11.9c0.4,0,0.8,0.3,0.8,0.8V69
				C82.8,69.4,82.5,69.7,82.1,69.7z M71,68.2h10.4V57.9H71V68.2z"/>
		</g>
		<g>
			<g>
				<path fill="#231F20" d="M108.3,61.9H86.5c-0.4,0-0.8-0.3-0.8-0.8c0-0.4,0.3-0.8,0.8-0.8h21.8c0.4,0,0.8,0.3,0.8,0.8
					C109.1,61.6,108.7,61.9,108.3,61.9z"/>
			</g>
			<g>
				<path fill="#231F20" d="M108.3,65.8H86.5c-0.4,0-0.8-0.3-0.8-0.8c0-0.4,0.3-0.8,0.8-0.8h21.8c0.4,0,0.8,0.3,0.8,0.8
					C109.1,65.5,108.7,65.8,108.3,65.8z"/>
			</g>
			<g>
				<path fill="#231F20" d="M100.9,69.7H86.5c-0.4,0-0.8-0.3-0.8-0.8c0-0.4,0.3-0.8,0.8-0.8h14.4c0.4,0,0.8,0.3,0.8,0.8
					C101.6,69.4,101.3,69.7,100.9,69.7z"/>
			</g>
		</g>
		<g>
			<rect x="70.2" y="75.1" fill="#FFFFFF" width="11.9" height="11.9"/>
			<path fill="#231F20" d="M82.1,87.7H70.2c-0.4,0-0.8-0.3-0.8-0.8V75.1c0-0.4,0.3-0.8,0.8-0.8h11.9c0.4,0,0.8,0.3,0.8,0.8V87
				C82.8,87.4,82.5,87.7,82.1,87.7z M71,86.2h10.4V75.9H71V86.2z"/>
		</g>
		<g>
			<g>
				<path fill="#231F20" d="M108.3,79.9H86.5c-0.4,0-0.8-0.3-0.8-0.8c0-0.4,0.3-0.8,0.8-0.8h21.8c0.4,0,0.8,0.3,0.8,0.8
					C109.1,79.6,108.7,79.9,108.3,79.9z"/>
			</g>
			<g>
				<path fill="#231F20" d="M108.3,83.8H86.5c-0.4,0-0.8-0.3-0.8-0.8c0-0.4,0.3-0.8,0.8-0.8h21.8c0.4,0,0.8,0.3,0.8,0.8
					C109.1,83.5,108.7,83.8,108.3,83.8z"/>
			</g>
			<g>
				<path fill="#231F20" d="M100.9,87.7H86.5c-0.4,0-0.8-0.3-0.8-0.8s0.3-0.8,0.8-0.8h14.4c0.4,0,0.8,0.3,0.8,0.8
					S101.3,87.7,100.9,87.7z"/>
			</g>
		</g>
		<g>
			<rect x="70.2" y="93.1" fill="#FFFFFF" width="11.9" height="11.9"/>
			<path fill="#231F20" d="M82.1,105.7H70.2c-0.4,0-0.8-0.3-0.8-0.8V93.1c0-0.4,0.3-0.8,0.8-0.8h11.9c0.4,0,0.8,0.3,0.8,0.8V105
				C82.8,105.4,82.5,105.7,82.1,105.7z M71,104.2h10.4V93.9H71V104.2z"/>
		</g>
		<g>
			<g>
				<path fill="#231F20" d="M108.3,97.9H86.5c-0.4,0-0.8-0.3-0.8-0.8c0-0.4,0.3-0.8,0.8-0.8h21.8c0.4,0,0.8,0.3,0.8,0.8
					C109.1,97.6,108.7,97.9,108.3,97.9z"/>
			</g>
			<g>
				<path fill="#231F20" d="M108.3,101.8H86.5c-0.4,0-0.8-0.3-0.8-0.8c0-0.4,0.3-0.8,0.8-0.8h21.8c0.4,0,0.8,0.3,0.8,0.8
					C109.1,101.5,108.7,101.8,108.3,101.8z"/>
			</g>
			<g>
				<path fill="#231F20" d="M100.9,105.7H86.5c-0.4,0-0.8-0.3-0.8-0.8s0.3-0.8,0.8-0.8h14.4c0.4,0,0.8,0.3,0.8,0.8
					S101.3,105.7,100.9,105.7z"/>
			</g>
		</g>
		<g>
			
				<path fill="none" stroke="#231F20" stroke-width="1.5" stroke-linecap="round" stroke-linejoin="round" stroke-miterlimit="10" d="
				M44.8,60.2"/>
		</g>
		<path fill="#FFFFFF" d="M29.6,28.2v4l-4.3,2.4l-4.3-2.4v-4c1.3,1.1,2.8,1.7,4.3,1.7C26.8,29.9,28.3,29.3,29.6,28.2z"/>
		<path fill="#FFFFFF" d="M35.6,17.3c-0.2-0.1-0.4-0.1-0.7,0c0.1-0.8,0.2-1.7,0.2-2.5c0-7.3-4.4-10-9.8-10c-5.4,0-9.8,2.7-9.8,10
			c0,0.8,0.1,1.7,0.2,2.5c-0.2-0.1-0.5-0.1-0.7,0c-0.6,0.3-0.7,1.5-0.1,2.6c0.5,0.9,1.2,1.5,1.8,1.6c1.7,4.7,4.9,8.4,8.6,8.4
			c3.7,0,7-3.7,8.6-8.4c0.6,0,1.3-0.6,1.8-1.6C36.2,18.8,36.2,17.6,35.6,17.3z"/>
		<path fill="#231F20" d="M35.9,16.6c-0.1,0-0.1-0.1-0.2-0.1c0.1-0.6,0.1-1.2,0.1-1.8C35.8,7.9,32,4,25.3,4
			c-6.7,0-10.6,3.9-10.6,10.7c0,0.6,0,1.2,0.1,1.8c-0.1,0-0.1,0-0.2,0.1c-0.5,0.3-0.9,0.9-0.9,1.6c0,0.6,0.2,1.3,0.5,2
			c0.5,0.9,1.2,1.6,1.9,1.9c1,2.7,2.5,4.9,4.1,6.4v3.7c0,0.3,0.1,0.5,0.4,0.7l4.3,2.4c0.1,0.1,0.2,0.1,0.4,0.1c0.1,0,0.3,0,0.4-0.1
			l4.3-2.4c0.2-0.1,0.4-0.4,0.4-0.7v-3.7c1.7-1.5,3.1-3.7,4.1-6.4c0.7-0.3,1.4-0.9,1.9-1.9c0.3-0.7,0.5-1.4,0.5-2
			C36.8,17.5,36.5,16.9,35.9,16.6z M28.8,29.6v2.1l-3.6,2l-3.6-2v-2.1c0,0,0.1,0,0.1,0c1.1,0.7,2.3,1,3.5,1c1.1,0,2.3-0.3,3.4-0.9
			C28.7,29.7,28.7,29.7,28.8,29.6z M35,19.6c-0.4,0.8-0.9,1.1-1.1,1.1c-0.3,0-0.6,0.2-0.7,0.5c-1.7,4.8-4.8,7.9-7.9,7.9
			c-3.1,0-6.2-3.1-7.9-7.9c-0.1-0.3-0.4-0.5-0.7-0.5c-0.2,0-0.8-0.4-1.1-1.1c-0.4-0.9-0.3-1.5-0.3-1.6c0,0,0,0,0.1,0
			c0.2,0.1,0.5,0,0.7-0.1c0.2-0.2,0.3-0.4,0.3-0.7c-0.1-0.8-0.2-1.7-0.2-2.4c0-7.6,4.9-9.2,9.1-9.2c4.1,0,9.1,1.6,9.1,9.2
			c0,0.8-0.1,1.6-0.2,2.4c0,0.3,0.1,0.5,0.3,0.7c0.2,0.2,0.5,0.2,0.7,0.1c0.1,0,0.1,0,0.1,0C35.3,18.1,35.4,18.7,35,19.6z"/>
		<g>
			<path fill="#231F20" d="M43.3,30.7h-7c-0.4,0-0.8,0.3-0.8,0.8c0,0.4,0.3,0.8,0.8,0.8h7c3,0,5.5,2.5,5.5,5.5v39h-6.8V46.6
				c0-0.4-0.3-0.8-0.8-0.8c-0.4,0-0.8,0.3-0.8,0.8v32.8c0,0.4-0.3,0.8-0.8,0.8H10.8c-0.4,0-0.8-0.3-0.8-0.8V46.6
				c0-0.4-0.3-0.8-0.8-0.8c-0.4,0-0.8,0.3-0.8,0.8v30.2H1.7v-39c0-3,2.5-5.5,5.5-5.5h7c0.4,0,0.8-0.3,0.8-0.8c0-0.4-0.3-0.8-0.8-0.8
				h-7c-3.9,0-7,3.1-7,7v39.7c0,0.4,0.3,0.8,0.8,0.8h7.6v1.2c0,1.1,0.8,2,1.8,2.2v45.6c0,0.4,0.3,0.7,0.8,0.7c0.4,0,0.8-0.3,0.8-0.7
				V89.7c4.2-0.4,7.6-3.7,8-8h11.3c0.4,4.2,3.7,7.6,8,8v37.6c0,0.4,0.3,0.7,0.8,0.7c0.4,0,0.8-0.3,0.8-0.7V81.5
				c0.8-0.3,1.4-1.1,1.4-2.1v-1.2h7.6c0.4,0,0.8-0.3,0.8-0.8V37.8C50.3,33.9,47.1,30.7,43.3,30.7z M11.8,88.1v-6.5h6.5
				C18,85.1,15.3,87.8,11.8,88.1z M39.1,88.1c-3.4-0.4-6.1-3.1-6.5-6.5h6.5V88.1z"/>
			<path fill="#231F20" d="M25.5,88.9c-0.4,0-0.8,0.3-0.8,0.8v37.6c0,0.4,0.3,0.7,0.8,0.7c0.4,0,0.8-0.3,0.8-0.7V89.7
				C26.2,89.3,25.9,88.9,25.5,88.9z"/>
		</g>
		<g>
			<path fill="#231F20" d="M50.2,12.5c-2.3,0-4.3-1.9-4.3-4.3C46,5.9,47.9,4,50.2,4c2.3,0,4.3,1.9,4.3,4.3
				C54.5,10.6,52.6,12.5,50.2,12.5z M50.2,5.5c-1.5,0-2.8,1.2-2.8,2.8c0,1.5,1.2,2.8,2.8,2.8S53,9.8,53,8.3
				C53,6.8,51.8,5.5,50.2,5.5z"/>
		</g>
		<g>
			<polygon fill="#F1543F" points="26.9,40.2 23.7,40.2 23,37.2 27.6,37.2 			"/>
		</g>
		<g>
			<polygon fill="#FF7058" points="26.9,40.2 23.7,40.2 20.9,61.2 25.3,66 29.7,61.2 			"/>
		</g>
	</g>
</g>
</svg>
