<?xml version="1.0" encoding="utf-8"?>
<!-- Generator: Adobe Illustrator 21.1.0, SVG Export Plug-In . SVG Version: 6.00 Build 0)  -->
<svg version="1.1" id="Icon_Set" xmlns="http://www.w3.org/2000/svg" xmlns:xlink="http://www.w3.org/1999/xlink" x="0px" y="0px"
	 viewBox="0 0 64 64" style="enable-background:new 0 0 64 64;" xml:space="preserve">
<style type="text/css">
	.st0{fill:#263238;}
	.st1{fill:#40C4FF;}
	.st2{fill:#FFD740;}
	.st3{fill:#4FC3F7;}
	.st4{fill:#FF5252;}
	.st5{fill:#FFFFFF;}
	.st6{fill:none;stroke:#263238;stroke-linecap:round;stroke-linejoin:round;stroke-miterlimit:10;}
	.st7{fill:#4DB6AC;}
	.st8{fill:#212A41;}
	.st9{fill:#37474F;}
</style>
<g>
	<g>
		<path class="st0" d="M44,59.5H20c-3.033,0-5.5-2.468-5.5-5.5V32c0-3.032,2.467-5.5,5.5-5.5h24c3.032,0,5.5,2.468,5.5,5.5v22
			C49.5,57.032,47.032,59.5,44,59.5z M20,27.5c-2.481,0-4.5,2.019-4.5,4.5v22c0,2.481,2.019,4.5,4.5,4.5h24
			c2.481,0,4.5-2.019,4.5-4.5V32c0-2.481-2.019-4.5-4.5-4.5H20z"/>
	</g>
	<g>
		<path class="st0" d="M44,25.5c-0.276,0-0.5-0.224-0.5-0.5v-5c0-6.341-5.159-11.5-11.5-11.5c-6.341,0-11.5,5.159-11.5,11.5v5
			c0,0.276-0.224,0.5-0.5,0.5s-0.5-0.224-0.5-0.5v-5c0-6.893,5.607-12.5,12.5-12.5S44.5,13.107,44.5,20v5
			C44.5,25.276,44.276,25.5,44,25.5z"/>
	</g>
	<g>
		<path class="st0" d="M40,25.5c-0.276,0-0.5-0.224-0.5-0.5v-5c0-4.136-3.364-7.5-7.5-7.5s-7.5,3.364-7.5,7.5v5
			c0,0.276-0.224,0.5-0.5,0.5s-0.5-0.224-0.5-0.5v-5c0-4.687,3.813-8.5,8.5-8.5c4.687,0,8.5,3.813,8.5,8.5v5
			C40.5,25.276,40.276,25.5,40,25.5z"/>
	</g>
	<g>
		<path class="st2" d="M32,33.5L32,33.5c-4.418,0-8,3.582-8,8v11h16v-11C40,37.082,36.419,33.5,32,33.5z"/>
	</g>
	<g>
		<path class="st0" d="M40,53c-0.276,0-0.5-0.224-0.5-0.5v-11c0-4.136-3.364-7.5-7.5-7.5c-4.136,0-7.5,3.364-7.5,7.5v11
			c0,0.276-0.224,0.5-0.5,0.5s-0.5-0.224-0.5-0.5v-11c0-4.687,3.813-8.5,8.5-8.5c4.687,0,8.5,3.813,8.5,8.5v11
			C40.5,52.776,40.276,53,40,53z"/>
	</g>
	<g>
		<path class="st0" d="M27,53c-0.276,0-0.5-0.224-0.5-0.5V41.625c0-0.276,0.224-0.5,0.5-0.5s0.5,0.224,0.5,0.5V52.5
			C27.5,52.776,27.277,53,27,53z"/>
	</g>
	<g>
		<path class="st0" d="M33.5,53c-2.206,0-4-1.794-4-4v-5.5c0-1.379,1.122-2.5,2.5-2.5s2.5,1.121,2.5,2.5v5
			c0,0.276-0.224,0.5-0.5,0.5s-0.5-0.224-0.5-0.5v-5c0-0.827-0.673-1.5-1.5-1.5c-0.827,0-1.5,0.673-1.5,1.5V49c0,1.654,1.346,3,3,3
			c1.654,0,3-1.346,3-3v-7.5c0-2.481-2.019-4.5-4.5-4.5c-2.481,0-4.5,2.019-4.5,4.5v11c0,0.276-0.224,0.5-0.5,0.5
			s-0.5-0.224-0.5-0.5v-11c0-3.032,2.467-5.5,5.5-5.5s5.5,2.468,5.5,5.5V49C37.5,51.206,35.706,53,33.5,53z"/>
	</g>
	<g>
		<path class="st0" d="M11,55c-0.276,0-0.5-0.224-0.5-0.5v-2c0-0.276,0.224-0.5,0.5-0.5s0.5,0.224,0.5,0.5v2
			C11.5,54.776,11.276,55,11,55z"/>
	</g>
	<g>
		<path class="st0" d="M11,51c-0.276,0-0.5-0.224-0.5-0.5v-16c0-0.276,0.224-0.5,0.5-0.5s0.5,0.224,0.5,0.5v16
			C11.5,50.776,11.276,51,11,51z"/>
	</g>
	<g>
		<path class="st0" d="M53,37c-0.276,0-0.5-0.224-0.5-0.5v-2c0-0.276,0.224-0.5,0.5-0.5s0.5,0.224,0.5,0.5v2
			C53.5,36.776,53.276,37,53,37z"/>
	</g>
	<g>
		<path class="st0" d="M53,55c-0.276,0-0.5-0.224-0.5-0.5v-16c0-0.276,0.224-0.5,0.5-0.5s0.5,0.224,0.5,0.5v16
			C53.5,54.776,53.276,55,53,55z"/>
	</g>
	<g>
		<path class="st0" d="M15,14h-4c-0.276,0-0.5-0.224-0.5-0.5S10.724,13,11,13h4c0.276,0,0.5,0.224,0.5,0.5S15.276,14,15,14z"/>
	</g>
	<g>
		<path class="st0" d="M19,7.5h-4c-0.276,0-0.5-0.224-0.5-0.5s0.224-0.5,0.5-0.5h4c0.276,0,0.5,0.224,0.5,0.5S19.276,7.5,19,7.5z"/>
	</g>
	<g>
		<path class="st0" d="M17,9.5c-0.276,0-0.5-0.224-0.5-0.5V5c0-0.276,0.224-0.5,0.5-0.5s0.5,0.224,0.5,0.5v4
			C17.5,9.276,17.276,9.5,17,9.5z"/>
	</g>
	<g>
		<path class="st0" d="M13,16c-0.276,0-0.5-0.224-0.5-0.5v-4c0-0.276,0.224-0.5,0.5-0.5s0.5,0.224,0.5,0.5v4
			C13.5,15.776,13.276,16,13,16z"/>
	</g>
	<g>
		<path class="st0" d="M46,35.5c-0.276,0-0.5-0.224-0.5-0.5v-2.5c0-1.103-0.897-2-2-2H41c-0.276,0-0.5-0.224-0.5-0.5
			s0.224-0.5,0.5-0.5h2.5c1.654,0,3,1.346,3,3V35C46.5,35.276,46.276,35.5,46,35.5z"/>
	</g>
</g>
</svg>
