<?xml version="1.0" encoding="UTF-8"?>
<svg id="Layer_1" data-name="Layer 1" xmlns="http://www.w3.org/2000/svg" viewBox="0 0 665.13 246.37">
  <defs>
    <style>
      .cls-1, .cls-2 {
        fill: #fff;
      }

      .cls-2, .cls-3 {
        stroke: #468fcd;
        stroke-miterlimit: 10;
        stroke-width: 7.35px;
      }

      .cls-3 {
        fill: none;
      }

      .cls-4 {
        fill: #468fcd;
      }
    </style>
  </defs>
  <rect class="cls-2" x="3.94" y="6.34" width="657.25" height="236.35" rx="30.56" ry="30.56"/>
  <g>
    <rect class="cls-1" x="152.16" y="142.25" width="48.06" height="13.05"/>
    <rect class="cls-1" x="152.16" y="175.24" width="45.02" height="13.05"/>
    <rect class="cls-1" x="139.18" y="188.22" width="41.03" height="15.06" transform="translate(355.44 36.06) rotate(90)"/>
  </g>
  <g>
    <g>
      <path d="m266.46,123.75c.48-.04.93-.12,1.38-.11,8.66.14,17.32.22,25.98.47,2.4.07,4.83.44,7.15,1.03,6.77,1.73,11.66,5.82,14.32,12.29,2.89,7.04,2.79,14.14-.53,20.99-3.1,6.41-8.55,10-15.49,11.14-3.67.6-7.44.64-11.17.84-2.49.13-4.99.08-7.49.16-1.67.05-1.82.25-1.84,1.95-.04,6.37-.08,12.74-.12,19.11,0,.77,0,1.54,0,2.26-1.78.53-9.21.63-12.2.15v-70.27Zm12.53,35.82c.6.23.81.36,1.03.38,4.83.42,9.66.47,14.48-.11,3.07-.37,5.6-1.73,7.59-4.14,1.58-1.91,1.89-4.23,2.26-6.5,1.01-6.29-2.42-11.94-8.39-13.82-1.32-.42-2.74-.68-4.12-.71-4.26-.09-8.52-.03-12.85-.03v24.94Z"/>
      <path d="m567.89,171.33h-36.35c-.84,7.21,3.35,12.99,9.34,13.94,3.03.48,6.04.73,9.01-.33,2.2-.78,3.97-2.05,5.21-4.09,1.23-2.02,1.45-2,3.82-1.56,2.3.43,4.62.74,6.92,1.12.43.07.84.27,1.38.46-1.99,5.38-5.17,9.62-10.39,11.81-7.46,3.11-15.15,3.45-22.81.62-7.15-2.64-11.29-8.1-13.52-15.08-2.23-7.01-2.17-14.13.37-21.03,3.46-9.42,10.09-15.02,20.39-15.99,4.05-.38,7.92.13,11.71,1.5,7.25,2.61,11.64,7.83,13.7,15.07,1.07,3.75,1.28,7.64,1.41,11.52.02.53-.1,1.07-.19,2.04Zm-11.4-8.85c-.17-1.06-.24-1.99-.48-2.87-1.21-4.37-3.51-7.81-8.3-8.77-1.58-.32-3.25-.36-4.87-.25-6.85.45-11.45,6.43-11.42,11.87,1.76.51,23.06.59,25.07.03Z"/>
      <path d="m326.98,154.93c1.71-5.2,4.89-9.1,9.84-11.28,7.44-3.29,15.12-3.57,22.74-.68,7.37,2.79,10.52,8.57,10.78,16.14.08,2.48.04,4.97.04,7.45,0,8.38-.01,16.77-.02,25.15,0,.75,0,1.51,0,2.43h-11.73c-.13-2.31.45-4.68-.25-7.42-.62.71-1.06,1.08-1.33,1.55-2.1,3.63-5.47,5.49-9.38,6.37-4.58,1.03-9.13.8-13.53-1.06-4.99-2.11-7.86-5.92-8.97-11.12-.84-3.99-.06-7.68,2.15-11.09,1.78-2.75,4.45-4.28,7.42-5.4,3.45-1.3,7.03-1.97,10.69-2.32,2.56-.25,5.11-.57,7.66-.9.69-.09,1.37-.28,2.04-.49,3-.95,3.58-1.86,3.22-4.95-.38-3.25-2.04-5.61-5.25-6.41-4.16-1.03-8.33-1.23-12.06,1.57-1.16.87-2,1.92-2.56,3.24-.28.66-.65,1.23-1.56,1.08-2.92-.48-5.84-.92-8.75-1.4-.37-.06-.7-.28-1.17-.48Zm31.35,14.57c-.52.03-.83,0-1.12.06-3.97.74-7.94,1.43-11.89,2.25-1.66.34-3.34.78-4.88,1.47-2.6,1.17-3.82,3.37-3.65,6.19.17,2.93,1.43,5.17,4.46,6.13,2.03.64,4.09.96,6.2.8,4.95-.37,8.56-2.65,10.24-7.43,1.08-3.06.66-6.23.63-9.46Z"/>
      <path d="m461.57,194.19v-52.33c3.95-.62,7.78-.05,11.74-.27v9.52c1.23-.55,1.6-1.53,2.13-2.32,2.36-3.58,5.49-6.14,9.72-7.16,5.67-1.37,11-.54,15.82,2.82,4.02,2.8,5.97,6.89,6.67,11.58.34,2.29.46,4.63.47,6.95.05,9.48.02,18.95.02,28.43v2.53c-1.71.48-9.1.56-12,.13-.04-.56-.13-1.16-.13-1.75-.03-8.78-.03-17.55-.08-26.33-.01-1.78-.12-3.57-.31-5.34-.53-4.76-3.82-8.46-8.34-9.1-4.81-.68-9.17.66-11.59,5.8-.84,1.79-1.33,3.58-1.32,5.58.06,9.79.02,19.57.02,29.36,0,.6,0,1.2,0,1.92h-12.82Z"/>
      <path d="m440.78,129.21v12.23c3.37.11,6.6.22,9.96.32.41,2.82.23,5.45.14,8.07-.03,1-.88,1.14-1.73,1.13-1.95-.01-3.9,0-5.85-.01-.76,0-1.52,0-2.42,0-.08.8-.19,1.39-.19,1.99-.01,8.47,0,16.93,0,25.4,0,.08,0,.16,0,.23-.04,3.78,1.39,5.86,6.53,6.06.46.02.92-.16,1.38-.21.71-.08,1.25.21,1.4.92.54,2.5,1.05,5,1.54,7.51.07.35-.07.74-.12,1.2-4.7,1.02-9.3,1.21-13.88-.27-5.35-1.73-8.57-5.7-8.91-11.33-.29-4.8-.35-9.62-.43-14.43-.07-4.58-.02-9.17-.03-13.75,0-.92,0-1.84,0-2.84-2.48-.82-4.86-.16-7.45-.66-.01-1.4-.02-2.84-.03-4.27,0-1.46,0-2.93,0-4.45,2.49-.86,4.96.03,7.48-.58v-12.31c4.13-.34,8.2-.03,12.6.03Z"/>
      <path d="m395.68,150.02c1.36-1.82,2.58-3.77,4.12-5.42,1.61-1.71,3.69-2.83,6.06-3.31,2.3-.47,4.61-.6,7.23-.26.36,3.57.04,7.08.12,10.83-.93-.07-1.6-.08-2.25-.18-2.75-.38-5.44-.19-8.07.72-2.63.91-4.59,2.53-5.71,5.14-.89,2.09-1.52,4.2-1.51,6.51.04,9.24.02,18.48.01,27.72,0,.76,0,1.52,0,2.4h-12.03c-.49-1.71-.7-49.47-.2-52.34,3.81-.75,7.65-.22,11.79-.04v8.13c.14.03.29.06.43.08Z"/>
      <path d="m590.59,141.58v9.02c.62-.47.98-.69,1.26-.98.21-.22.31-.54.46-.81,3.67-6.5,7.92-8.56,16.21-7.82.14.01.27.14.6.31.32,3.41.16,6.93-.03,10.71-1.48-.14-2.7-.21-3.92-.38-2.54-.36-4.97.06-7.32,1.01-4.59,1.87-6.66,5.53-6.72,10.24-.12,9.55-.04,19.09-.04,28.64v2.63h-12c-.06-.76-.15-1.44-.15-2.11-.05-15.99-.09-31.98-.12-47.97,0-2.37.11-2.48,2.51-2.49,3.02-.01,6.05,0,9.26,0Z"/>
      <path d="m357.09,78.08c2.55,4.59,4.99,8.97,7.57,13.61-2,0-3.76.02-5.53,0-1.04-.01-1.4-.82-1.8-1.59-1.48-2.81-3.11-5.56-4.44-8.43-1.08-2.32-2.68-3.12-5.18-2.99-3.39.18-3.4.06-3.4,3.35,0,3.1,0,6.2,0,9.54-2.2.25-4.19.14-6.15.08-.56-2.61-.41-33.05.19-34.92.48-.04,1-.12,1.53-.11,4.13.1,8.26.18,12.38.35,1.31.05,2.64.24,3.91.57,4.16,1.08,6.86,4.39,7.24,8.7.03.31.02.62.06.93.58,4.26-1.3,7.33-4.7,9.69-.62.43-1.22.89-1.68,1.23Zm-12.56-4.16c2.92-.16,5.58-.1,8.17-.49,2.87-.43,4.71-2.67,4.61-5.31-.12-3.13-1.86-5.56-4.38-5.84-2.23-.26-4.49-.33-6.75-.37-1.63-.03-1.89.28-1.91,1.91-.03,2.64-.03,5.28,0,7.92,0,.6.13,1.2.25,2.19Z"/>
      <path d="m515.83,91.71c.03-11.79-.03-23.32.04-35.1,1.08,0,1.76-.02,2.44,0,3.27.09,6.55.14,9.82.29,1.55.07,3.09.3,4.63.52,5.6.8,11.18,6.18,11.84,13.05.28,2.93.38,5.87-.32,8.8-1.58,6.69-5.77,10.64-12.49,11.95-1.67.33-3.39.44-5.1.47-3.51.07-7.02.02-10.87.02Zm6.58-5.37c3.12-.06,6.06.34,8.98-.29,3.98-.85,6.17-2.33,7.36-7.91.54-2.54.31-5.06.07-7.63-.42-4.57-5.06-8.95-9.7-8.64-1.48.1-2.96,0-4.44,0-2.26.02-2.38.16-2.38,2.38,0,6.6-.01,13.19,0,19.79,0,.67.07,1.34.13,2.28Z"/>
      <path d="m326.31,56.94v4.93h-16.25c-.15,2.97-.33,5.66-.38,8.35-.02,1.18.46,1.58,1.8,1.62,1.95.06,3.9.01,5.85.01,2.48,0,4.97,0,7.5,0,.72,1.61.73,3.09.27,4.92h-15.02c-.14,3-.28,5.69-.39,8.38-.04,1.03.51,1.6,1.55,1.63,1.09.03,2.19.02,3.28.02,3.88,0,7.77,0,11.78,0v4.75h-22.23v-34.59c1.03-.05,2.24-.16,3.45-.16,4.14.02,8.27.1,12.41.14,2.08.02,4.17,0,6.39,0Z"/>
      <path d="m482,56.86h22.17v5.01h-16.44v9.63c1.5.76,3.23.29,4.9.36,1.64.07,3.28-.01,4.92-.02,1.7,0,3.41,0,5.32,0v4.93h-15.15v9.65c1.88.49,13.37.55,16.54.09v5.09h-22.24v-34.73Z"/>
      <path d="m292.3,80.92c-.4,3.24-1.93,5.78-4.27,7.61-6.3,4.91-15.95,4.94-21.82-1.56-2.04-2.26-3.1-4.99-3.78-7.88-.8-3.38-.73-6.79.08-10.14,2.34-9.71,11.1-14.6,20.86-11.68,4.73,1.41,7.58,4.99,8.8,9.77.07.28-.02.6-.04.96-1.48.63-2.93.38-4.37.15-.99-.15-1.36-.93-1.77-1.69-3.01-5.52-9.84-6.46-14.35-2.06-2.12,2.07-3.18,4.5-3.39,7.42-.16,2.24-.37,4.44-.02,6.71,1.21,7.88,9.92,10.47,15.61,6.48.66-.46,1.21-1.19,1.62-1.9,1.61-2.79,2.25-3.14,5.42-2.63.37.06.73.23,1.42.46Z"/>
      <path d="m430.46,56.76h21.3c.8,1.57.74,3.19.14,5.11h-15.45c-.15.83-.34,1.42-.36,2.01-.07,1.86-.09,3.72-.1,5.58-.01,2.39.02,2.41,2.52,2.41,3.43,0,6.86-.01,10.29-.02.46,0,.92,0,1.33,0,.91,1.81.95,2.21.5,4.73-2.3.43-4.7.14-7.08.2-2.32.05-4.65.01-7.18.01-.52,2.55-.29,4.95-.36,7.31-.07,2.4-.02,4.8-.02,7.26-1.96.62-3.79.29-5.59.26-.46-2.45-.41-33.17.04-34.86Z"/>
      <path d="m390.15,61.89v29.65h-5.66v-29.61h-10.95v-5.21h27.61v5.17h-11Z"/>
      <path d="m417.99,91.6h-6v-34.93h6v34.93Z"/>
      <path d="m463.46,91.71v-35.14c2,.13,3.9.26,5.99.4.08.61.23,1.2.22,1.78-.07,8.44-.17,16.89-.23,25.33-.01,1.86.14,3.71.14,5.57,0,1.86-.18,2.01-1.96,2.05-1.31.03-2.63,0-4.17,0Z"/>
    </g>
    <g>
      <path class="cls-4" d="m34.72,9.08h180.41v230.88H33.86c-15.91,0-28.83-12.92-28.83-28.83V38.76c0-16.38,13.3-29.68,29.68-29.68Z"/>
      <rect class="cls-3" x="3.94" y="6.24" width="657.25" height="236.35" rx="30.56" ry="30.56"/>
    </g>
    <g>
      <rect class="cls-1" x="62.65" y="59.95" width="90.31" height="24.53"/>
      <rect class="cls-1" x="62.65" y="121.92" width="84.58" height="24.53"/>
      <rect class="cls-1" x="38.25" y="146.32" width="77.09" height="28.29" transform="translate(237.25 83.67) rotate(90)"/>
    </g>
  </g>
</svg>