<?xml version="1.0" encoding="utf-8"?>
<!-- Generator: Adobe Illustrator 18.0.0, SVG Export Plug-In . SVG Version: 6.00 Build 0)  -->
<!DOCTYPE svg PUBLIC "-//W3C//DTD SVG 1.1//EN" "http://www.w3.org/Graphics/SVG/1.1/DTD/svg11.dtd">
<svg version="1.1" id="Layer_1" xmlns="http://www.w3.org/2000/svg" xmlns:xlink="http://www.w3.org/1999/xlink" x="0px" y="0px"
	 viewBox="0 0 129.5 129.5" enable-background="new 0 0 129.5 129.5" xml:space="preserve">
<g>
	<g>
		<g>
			<g>
				<path fill="#231F20" d="M16.9,11.3c-0.2,0-0.4-0.1-0.5-0.2c-0.3-0.3-0.3-0.8,0-1.1l1.3-1.3c0.3-0.3,0.8-0.3,1.1,0
					c0.3,0.3,0.3,0.8,0,1.1l-1.3,1.3C17.2,11.3,17.1,11.3,16.9,11.3z"/>
			</g>
			<g>
				<path fill="#231F20" d="M12.8,15.4c-0.2,0-0.4-0.1-0.5-0.2c-0.3-0.3-0.3-0.8,0-1.1l1.3-1.3c0.3-0.3,0.8-0.3,1.1,0
					c0.3,0.3,0.3,0.8,0,1.1l-1.3,1.3C13.2,15.3,13,15.4,12.8,15.4z"/>
			</g>
			<g>
				<path fill="#231F20" d="M18.1,15.4c-0.2,0-0.4-0.1-0.5-0.2l-1.3-1.3c-0.3-0.3-0.3-0.8,0-1.1c0.3-0.3,0.8-0.3,1.1,0l1.3,1.3
					c0.3,0.3,0.3,0.8,0,1.1C18.5,15.3,18.3,15.4,18.1,15.4z"/>
			</g>
			<g>
				<path fill="#231F20" d="M14.1,11.3c-0.2,0-0.4-0.1-0.5-0.2l-1.3-1.3c-0.3-0.3-0.3-0.8,0-1.1c0.3-0.3,0.8-0.3,1.1,0l1.3,1.3
					c0.3,0.3,0.3,0.8,0,1.1C14.5,11.3,14.3,11.3,14.1,11.3z"/>
			</g>
		</g>
		<g>
			<g>
				<path fill="#231F20" d="M120.2,12.3c-0.2,0-0.4-0.1-0.5-0.2c-0.3-0.3-0.3-0.8,0-1.1l1.3-1.3c0.3-0.3,0.8-0.3,1.1,0
					c0.3,0.3,0.3,0.8,0,1.1l-1.3,1.3C120.6,12.3,120.4,12.3,120.2,12.3z"/>
			</g>
			<g>
				<path fill="#231F20" d="M116.2,16.4c-0.2,0-0.4-0.1-0.5-0.2c-0.3-0.3-0.3-0.8,0-1.1l1.3-1.3c0.3-0.3,0.8-0.3,1.1,0
					c0.3,0.3,0.3,0.8,0,1.1l-1.3,1.3C116.5,16.3,116.4,16.4,116.2,16.4z"/>
			</g>
			<g>
				<path fill="#231F20" d="M121.5,16.4c-0.2,0-0.4-0.1-0.5-0.2l-1.3-1.3c-0.3-0.3-0.3-0.8,0-1.1c0.3-0.3,0.8-0.3,1.1,0l1.3,1.3
					c0.3,0.3,0.3,0.8,0,1.1C121.9,16.3,121.7,16.4,121.5,16.4z"/>
			</g>
			<g>
				<path fill="#231F20" d="M117.4,12.3c-0.2,0-0.4-0.1-0.5-0.2l-1.3-1.3c-0.3-0.3-0.3-0.8,0-1.1c0.3-0.3,0.8-0.3,1.1,0l1.3,1.3
					c0.3,0.3,0.3,0.8,0,1.1C117.8,12.3,117.6,12.3,117.4,12.3z"/>
			</g>
		</g>
		<g>
			<g>
				<path fill="#231F20" d="M56.2,20.1c-0.2,0-0.4-0.1-0.5-0.2c-0.3-0.3-0.3-0.8,0-1.1l1.3-1.3c0.3-0.3,0.8-0.3,1.1,0
					c0.3,0.3,0.3,0.8,0,1.1l-1.3,1.3C56.6,20,56.4,20.1,56.2,20.1z"/>
			</g>
			<g>
				<path fill="#231F20" d="M52.2,24.1c-0.2,0-0.4-0.1-0.5-0.2c-0.3-0.3-0.3-0.8,0-1.1l1.3-1.3c0.3-0.3,0.8-0.3,1.1,0
					c0.3,0.3,0.3,0.8,0,1.1l-1.3,1.3C52.6,24,52.4,24.1,52.2,24.1z"/>
			</g>
			<g>
				<path fill="#231F20" d="M57.5,24.1c-0.2,0-0.4-0.1-0.5-0.2l-1.3-1.3c-0.3-0.3-0.3-0.8,0-1.1c0.3-0.3,0.8-0.3,1.1,0l1.3,1.3
					c0.3,0.3,0.3,0.8,0,1.1C57.9,24,57.7,24.1,57.5,24.1z"/>
			</g>
			<g>
				<path fill="#231F20" d="M53.5,20.1c-0.2,0-0.4-0.1-0.5-0.2l-1.3-1.3c-0.3-0.3-0.3-0.8,0-1.1c0.3-0.3,0.8-0.3,1.1,0l1.3,1.3
					c0.3,0.3,0.3,0.8,0,1.1C53.9,20,53.7,20.1,53.5,20.1z"/>
			</g>
		</g>
		<g>
			<g>
				<path fill="#231F20" d="M14.4,34.9H6.4c-0.4,0-0.8-0.3-0.8-0.8c0-0.4,0.3-0.8,0.8-0.8h8.1c0.4,0,0.8,0.3,0.8,0.8
					C15.2,34.5,14.9,34.9,14.4,34.9z"/>
			</g>
			<g>
				<path fill="#231F20" d="M17.6,37.8h-4c-0.4,0-0.8-0.3-0.8-0.8c0-0.4,0.3-0.8,0.8-0.8h4c0.4,0,0.8,0.3,0.8,0.8
					C18.4,37.5,18,37.8,17.6,37.8z"/>
			</g>
			<g>
				<path fill="#231F20" d="M21.9,34.9h-3.8c-0.4,0-0.8-0.3-0.8-0.8c0-0.4,0.3-0.8,0.8-0.8h3.8c0.4,0,0.8,0.3,0.8,0.8
					C22.6,34.5,22.3,34.9,21.9,34.9z"/>
			</g>
			<g>
				<path fill="#231F20" d="M10.8,37.8H10c-0.4,0-0.8-0.3-0.8-0.8c0-0.4,0.3-0.8,0.8-0.8h0.8c0.4,0,0.8,0.3,0.8,0.8
					C11.5,37.5,11.2,37.8,10.8,37.8z"/>
			</g>
		</g>
		<g>
			<g>
				<path fill="#231F20" d="M40.7,5.2h-8.1c-0.4,0-0.8-0.3-0.8-0.8c0-0.4,0.3-0.8,0.8-0.8h8.1c0.4,0,0.8,0.3,0.8,0.8
					C41.5,4.8,41.2,5.2,40.7,5.2z"/>
			</g>
			<g>
				<path fill="#231F20" d="M43.9,8.1h-4c-0.4,0-0.8-0.3-0.8-0.7c0-0.4,0.3-0.8,0.8-0.8h4c0.4,0,0.8,0.3,0.8,0.8
					C44.7,7.8,44.3,8.1,43.9,8.1z"/>
			</g>
			<g>
				<path fill="#231F20" d="M48.2,5.2h-3.8c-0.4,0-0.8-0.3-0.8-0.8c0-0.4,0.3-0.8,0.8-0.8h3.8c0.4,0,0.8,0.3,0.8,0.8
					C48.9,4.8,48.6,5.2,48.2,5.2z"/>
			</g>
			<g>
				<path fill="#231F20" d="M37.1,8.1h-0.8c-0.4,0-0.8-0.3-0.8-0.7c0-0.4,0.3-0.8,0.8-0.8h0.8c0.4,0,0.8,0.3,0.8,0.8
					C37.8,7.8,37.5,8.1,37.1,8.1z"/>
			</g>
		</g>
		<path fill="#231F20" d="M112.2,43.6h-52c-0.4,0-0.8,0.3-0.8,0.8v46.1c0,0.4,0.3,0.8,0.8,0.8h52c0.4,0,0.8-0.3,0.8-0.8V44.3
			C112.9,43.9,112.6,43.6,112.2,43.6z M60.9,45.1h50.5v6.6H60.9V45.1z M60.9,89.7V53.2h50.5v36.5H60.9z"/>
		<g>
			<g>
				<rect x="66.7" y="58" fill="#E6E9EE" width="4.2" height="4.2"/>
			</g>
			<g>
				<rect x="75.4" y="58" fill="#E6E9EE" width="4.2" height="4.2"/>
			</g>
			<g>
				<rect x="84.1" y="58" fill="#E6E9EE" width="4.2" height="4.2"/>
			</g>
			<g>
				<rect x="92.8" y="58" fill="#E6E9EE" width="4.2" height="4.2"/>
			</g>
			<g>
				<rect x="101.4" y="58" fill="#E6E9EE" width="4.2" height="4.2"/>
			</g>
			<g>
				<rect x="66.7" y="65.6" fill="#E6E9EE" width="4.2" height="4.2"/>
			</g>
			<g>
				<rect x="75.4" y="65.6" fill="#E6E9EE" width="4.2" height="4.2"/>
			</g>
			<g>
				<rect x="84.1" y="65.6" fill="#E6E9EE" width="4.2" height="4.2"/>
			</g>
			<g>
				<rect x="92.8" y="65.6" fill="#E6E9EE" width="4.2" height="4.2"/>
			</g>
			<g>
				<rect x="101.4" y="65.6" fill="#E6E9EE" width="4.2" height="4.2"/>
			</g>
			<g>
				<rect x="66.7" y="73.2" fill="#E6E9EE" width="4.2" height="4.2"/>
			</g>
			<g>
				<rect x="75.4" y="73.2" fill="#E6E9EE" width="4.2" height="4.2"/>
			</g>
			<g>
				<rect x="84.1" y="73.2" fill="#E6E9EE" width="4.2" height="4.2"/>
			</g>
			<g>
				<rect x="92.8" y="73.2" fill="#E6E9EE" width="4.2" height="4.2"/>
			</g>
			<g>
				<rect x="101.4" y="73.2" fill="#E6E9EE" width="4.2" height="4.2"/>
			</g>
			<g>
				<rect x="66.7" y="80.9" fill="#E6E9EE" width="4.2" height="4.2"/>
			</g>
			<g>
				<rect x="75.4" y="80.9" fill="#E6E9EE" width="4.2" height="4.2"/>
			</g>
			<g>
				<rect x="84.1" y="80.9" fill="#E6E9EE" width="4.2" height="4.2"/>
			</g>
			<g>
				<rect x="92.8" y="80.9" fill="#E6E9EE" width="4.2" height="4.2"/>
			</g>
			<g>
				<rect x="101.4" y="80.9" fill="#E6E9EE" width="4.2" height="4.2"/>
			</g>
		</g>
		<path fill="#FFFFFF" d="M43.4,47.9V31.3H32.7v16.6c0,6.1-2.2,12.1-6.6,16.4c-3,3-4.9,7.2-4.9,11.9v49c0,1.9,1.6,3.5,3.5,3.5h26.7
			c1.9,0,3.5-1.6,3.5-3.5v-49c0-4.6-1.9-8.8-4.9-11.9C45.6,60.1,43.4,54.1,43.4,47.9z"/>
		<rect x="32.7" y="31.3" fill="#FFFFFF" width="10.7" height="13.1"/>
		<g>
			<rect x="34.7" y="33.3" fill="#FF7058" width="6.7" height="9.1"/>
		</g>
		<path fill="#FFFFFF" d="M91,10.1c0,5.1-4.3,15.1-9.4,15.1c-5.1,0-9.2-10.1-9.2-15.2c0-5.1,4.2-9.3,9.3-9.2C86.9,0.8,91,5,91,10.1z
			"/>
		<g>
			<path fill="#FFD05B" d="M81.6,23.2c-1.5,0-3.3-1.8-4.8-4.6c-1.4-2.7-2.4-6.3-2.4-8.6c0-4,3.3-7.2,7.3-7.2c2,0,3.8,0.8,5.2,2.2
				c1.4,1.4,2.1,3.2,2.1,5.2C88.9,14.6,85,23.2,81.6,23.2L81.6,23.2z"/>
		</g>
		<polygon fill="#FFFFFF" points="84.1,28.7 81.6,25.2 79,28.7 		"/>
		<path fill="#231F20" d="M91.7,10.1c0-2.7-1-5.2-2.9-7.1c-1.9-1.9-4.4-3-7.1-3c-5.5,0-10,4.5-10,10c0,2.7,1.1,6.7,2.8,9.9
			c1.7,3.2,3.8,5.3,5.9,5.9l-1.8,2.5c-0.2,0.2-0.2,0.5-0.1,0.8c0.1,0.3,0.4,0.4,0.7,0.4l5,0c0,0,0,0,0,0c0.3,0,0.5-0.2,0.7-0.4
			c0.1-0.2,0.1-0.6-0.1-0.8l-1.8-2.5C88,24.3,91.7,15,91.7,10.1z M80.5,27.9l1.1-1.5l1.1,1.5L80.5,27.9z M81.6,24.4L81.6,24.4
			C81.6,24.4,81.6,24.4,81.6,24.4c-2,0-4.1-1.9-5.9-5.3c-1.6-3-2.6-6.6-2.6-9.2c0-4.7,3.9-8.5,8.6-8.5c2.3,0,4.4,0.9,6,2.5
			c1.6,1.6,2.5,3.8,2.5,6.1C90.2,14.8,86.2,24.4,81.6,24.4z"/>
		<path fill="#FFFFFF" d="M112.2,20.5c0,5.1-4.3,15.1-9.4,15.1c-5.1,0-9.2-10.1-9.2-15.2c0-5.1,4.2-9.3,9.3-9.2
			C108.1,11.2,112.2,15.4,112.2,20.5z"/>
		<g>
			<path fill="#84DBFF" d="M102.8,33.6c-1.5,0-3.3-1.8-4.8-4.6c-1.4-2.7-2.4-6.3-2.4-8.6c0-4,3.3-7.2,7.3-7.2c2,0,3.8,0.8,5.2,2.2
				c1.4,1.4,2.1,3.2,2.1,5.2C110.2,25,106.3,33.6,102.8,33.6L102.8,33.6z"/>
		</g>
		<polygon fill="#FFFFFF" points="105.3,39.1 102.8,35.6 100.3,39.1 		"/>
		<path fill="#231F20" d="M112.9,20.5c0-5.5-4.4-10.1-10-10.1c-5.5,0-10,4.5-10,10c0,2.7,1.1,6.7,2.7,9.9c1.7,3.2,3.8,5.3,5.9,5.9
			l-1.8,2.5c-0.2,0.2-0.2,0.5-0.1,0.8c0.1,0.3,0.4,0.4,0.7,0.4l5,0c0,0,0,0,0,0c0.3,0,0.5-0.2,0.7-0.4c0.1-0.2,0.1-0.6-0.1-0.8
			l-1.8-2.5C109.2,34.7,112.9,25.4,112.9,20.5z M101.7,38.4l1.1-1.5l1.1,1.5L101.7,38.4z M102.8,34.8L102.8,34.8
			C102.8,34.8,102.8,34.8,102.8,34.8c-2,0-4.1-1.9-5.9-5.3c-1.6-3-2.6-6.6-2.6-9.2c0-4.7,3.9-8.5,8.6-8.5c4.7,0,8.5,3.9,8.5,8.6
			C111.4,25.2,107.4,34.8,102.8,34.8z"/>
		<polygon fill="#FFD05B" points="120.2,128.7 122.5,116.3 97.1,116.3 99.4,128.7 		"/>
		<path fill="#231F20" d="M119.9,100.6c-1.9-3.8-5.8-6.2-10.1-6.2c-4.3,0-8.2,2.4-10.1,6.2c-5.1-0.8-9.5,3.2-9.5,8.2
			c0,3.9,2.7,7.1,6.3,8l2.4,12.7h21.9l2.4-12.7c3.6-0.9,6.3-4.2,6.3-8C129.4,103.8,125,99.8,119.9,100.6z M100.1,128L98,117.1h0.4
			h5.9l0.8,10.9H100.1z M106.6,128l-0.8-10.9h7.9L113,128H106.6z M119.5,128h-5.1l0.8-10.9h5.9h0.4L119.5,128z M121.2,115.6H98.4
			c-3.7,0-6.8-3-6.8-6.8c0-3.7,3-6.8,6.8-6.8c0.5,0,0.9,0.1,1.4,0.2c1.1,0.2,2.2,0.8,3.1,1.6c0.1,0.1,0.3,0.2,0.5,0.2
			c0.2,0,0.4-0.1,0.6-0.3c0.3-0.3,0.2-0.8-0.1-1.1c-0.8-0.7-1.7-1.3-2.7-1.6c1.7-3.1,5-5.1,8.6-5.1c3.6,0,6.9,2,8.6,5.1
			c-1,0.4-1.9,0.9-2.7,1.6c-0.3,0.3-0.3,0.7-0.1,1.1c0.3,0.3,0.7,0.3,1.1,0.1c0.9-0.8,1.9-1.3,3-1.5c0,0,0,0,0,0l0,0
			c4.3-1,8.3,2.4,8.3,6.6C127.9,112.5,124.9,115.6,121.2,115.6z"/>
		<rect x="77.2" y="110.5" fill="#84DBFF" width="8.5" height="18.2"/>
		<rect x="64.6" y="110.5" fill="#FF7058" width="8.5" height="18.2"/>
		<g>
			<path fill="#231F20" d="M82.2,109.8v-1.9c1.9-0.4,3.3-2,3.3-3.9c0-1.9-2.8-6.3-3.4-7.2l-0.6-1l-0.6,1c-0.6,0.9-3.4,5.3-3.4,7.2
				c0,2,1.4,3.6,3.3,3.9v1.9h-4.2v19.7h10v-19.7H82.2z M79,103.9c0-1,1.4-3.5,2.5-5.4c1.2,1.9,2.5,4.4,2.5,5.4
				c0,1.1-0.7,2.1-1.8,2.4v-1.2c0-0.4-0.3-0.8-0.8-0.8c-0.4,0-0.8,0.3-0.8,0.8v1.2C79.7,106,79,105.1,79,103.9z M85,128h-7v-16.7h7
				V128z"/>
			<path fill="#231F20" d="M69.6,107.9c1.9-0.4,3.3-2,3.3-3.9c0-1.9-2.8-6.3-3.4-7.2l-0.6-1l-0.6,1c-0.6,0.9-3.4,5.3-3.4,7.2
				c0,2,1.4,3.6,3.3,3.9v1.9h-4.2v19.7h10v-19.7h-4.2V107.9z M66.3,103.9c0-1,1.4-3.5,2.5-5.4c1.2,1.9,2.5,4.4,2.5,5.4
				c0,1.1-0.7,2.1-1.8,2.4v-1.2c0-0.4-0.3-0.8-0.8-0.8c-0.4,0-0.8,0.3-0.8,0.8v1.2C67,106,66.3,105.1,66.3,103.9z M72.3,128h-7
				v-16.7h7V128z"/>
		</g>
		<path fill="#FFFFFF" d="M8.8,59.7c0,0-3.8,6.8-3.8,8.8s1.7,3.8,3.8,3.8c2.1,0,3.8-1.7,3.8-3.8S8.8,59.7,8.8,59.7z"/>
		<path fill="#FFFFFF" d="M16.7,75c0,0-4.8,1.3-5.7,2.3c-0.9,0.9-0.9,2.5,0,3.4c0.9,0.9,2.5,0.9,3.4,0C15.4,79.7,16.7,75,16.7,75z"
			/>
		<path fill="#FFFFFF" d="M0.8,75c0,0,4.8,1.3,5.7,2.3c0.9,0.9,0.9,2.5,0,3.4s-2.5,0.9-3.4,0S0.8,75,0.8,75z"/>
		<path fill="#FFFFFF" d="M16.7,84.7c0,0-4.8,1.3-5.7,2.3c-0.9,0.9-0.9,2.5,0,3.4c0.9,0.9,2.5,0.9,3.4,0
			C15.4,89.4,16.7,84.7,16.7,84.7z"/>
		<path fill="#FFFFFF" d="M0.8,84.7c0,0,4.8,1.3,5.7,2.3c0.9,0.9,0.9,2.5,0,3.4c-0.9,0.9-2.5,0.9-3.4,0C2.2,89.4,0.8,84.7,0.8,84.7z
			"/>
		<path fill="#FFFFFF" d="M16.7,94.4c0,0-4.8,1.3-5.7,2.3c-0.9,0.9-0.9,2.5,0,3.4c0.9,0.9,2.5,0.9,3.4,0
			C15.4,99.1,16.7,94.4,16.7,94.4z"/>
		<path fill="#FFFFFF" d="M0.8,94.4c0,0,4.8,1.3,5.7,2.3c0.9,0.9,0.9,2.5,0,3.4C5.6,101,4,101,3.1,100C2.2,99.1,0.8,94.4,0.8,94.4z"
			/>
		<path fill="#FFFFFF" d="M16.7,104c0,0-4.8,1.3-5.7,2.3c-0.9,0.9-0.9,2.5,0,3.4c0.9,0.9,2.5,0.9,3.4,0
			C15.4,108.8,16.7,104,16.7,104z"/>
		<path fill="#FFFFFF" d="M0.8,104c0,0,4.8,1.3,5.7,2.3s0.9,2.5,0,3.4c-0.9,0.9-2.5,0.9-3.4,0C2.2,108.8,0.8,104,0.8,104z"/>
		<g>
			<path fill="#231F20" d="M13.3,68.5c0-2.2-3.5-8.5-3.9-9.2C9.3,59.1,9,59,8.8,59c-0.3,0-0.5,0.1-0.7,0.4c-0.4,0.7-3.9,7-3.9,9.2
				c0,2.2,1.6,4.1,3.8,4.4v55.8h1.5V73C11.7,72.6,13.3,70.8,13.3,68.5z M5.8,68.5c0-1.2,1.7-4.7,3-7.3c1.4,2.6,3,6.1,3,7.3
				c0,1.7-1.4,3-3,3C7.1,71.6,5.8,70.2,5.8,68.5z"/>
			<path fill="#231F20" d="M9.6,79c0,0.8,0.3,1.6,0.9,2.2c0.6,0.6,1.4,0.9,2.2,0.9c0.8,0,1.6-0.3,2.2-0.9c1-1,2.2-5.2,2.5-6
				c0.1-0.3,0-0.5-0.2-0.7c-0.2-0.2-0.5-0.3-0.7-0.2c-0.8,0.2-5,1.5-6,2.5C9.9,77.3,9.6,78.1,9.6,79z M11.6,77.8
				c0.4-0.4,2.3-1.1,4-1.7c-0.5,1.7-1.3,3.6-1.7,4c-0.6,0.6-1.7,0.6-2.3,0c-0.3-0.3-0.5-0.7-0.5-1.2C11.1,78.5,11.3,78.1,11.6,77.8z
				"/>
			<path fill="#231F20" d="M1,74.3c-0.3-0.1-0.5,0-0.7,0.2c-0.2,0.2-0.3,0.5-0.2,0.7c0.2,0.8,1.5,5,2.5,6c0.6,0.6,1.4,0.9,2.2,0.9
				c0.8,0,1.6-0.3,2.2-0.9C8.3,80,8.3,78,7,76.7C6,75.7,1.8,74.5,1,74.3z M6,80.1c-0.6,0.6-1.7,0.6-2.3,0c-0.4-0.4-1.1-2.3-1.7-4
				c1.7,0.5,3.6,1.3,4,1.7C6.6,78.4,6.6,79.5,6,80.1z"/>
			<path fill="#231F20" d="M16.5,83.9c-0.8,0.2-5,1.5-6,2.5c-0.6,0.6-0.9,1.4-0.9,2.2c0,0.8,0.3,1.6,0.9,2.2
				c0.6,0.6,1.4,0.9,2.2,0.9c0.8,0,1.6-0.3,2.2-0.9c1-1,2.2-5.2,2.5-6c0.1-0.3,0-0.5-0.2-0.7C17.1,83.9,16.8,83.9,16.5,83.9z
				 M13.9,89.8c-0.6,0.6-1.7,0.6-2.3,0c-0.3-0.3-0.5-0.7-0.5-1.2c0-0.4,0.2-0.9,0.5-1.2c0.4-0.4,2.3-1.1,4-1.7
				C15.1,87.5,14.4,89.4,13.9,89.8z"/>
			<path fill="#231F20" d="M1,83.9c-0.3-0.1-0.5,0-0.7,0.2c-0.2,0.2-0.3,0.5-0.2,0.7c0.2,0.8,1.5,5,2.5,6c0.6,0.6,1.4,0.9,2.2,0.9
				c0.8,0,1.6-0.3,2.2-0.9c1.2-1.2,1.2-3.2,0-4.5C6,85.4,1.8,84.2,1,83.9z M6,89.8c-0.6,0.6-1.7,0.6-2.3,0c-0.4-0.4-1.1-2.3-1.7-4
				c1.7,0.5,3.6,1.3,4,1.7C6.6,88.1,6.6,89.2,6,89.8z"/>
			<path fill="#231F20" d="M16.5,93.6c-0.8,0.2-5,1.5-6,2.5c-0.6,0.6-0.9,1.4-0.9,2.2c0,0.8,0.3,1.6,0.9,2.2
				c0.6,0.6,1.4,0.9,2.2,0.9c0.8,0,1.6-0.3,2.2-0.9c1-1,2.2-5.2,2.5-6c0.1-0.3,0-0.5-0.2-0.7C17.1,93.6,16.8,93.6,16.5,93.6z
				 M13.9,99.5c-0.6,0.6-1.7,0.6-2.3,0c-0.3-0.3-0.5-0.7-0.5-1.2c0-0.4,0.2-0.9,0.5-1.2c0.4-0.4,2.3-1.1,4-1.7
				C15.1,97.2,14.4,99.1,13.9,99.5z"/>
			<path fill="#231F20" d="M1,93.6c-0.3-0.1-0.5,0-0.7,0.2C0.1,94,0,94.3,0.1,94.6c0.2,0.8,1.5,5,2.5,6c0.6,0.6,1.4,0.9,2.2,0.9
				c0.8,0,1.6-0.3,2.2-0.9c1.2-1.2,1.2-3.2,0-4.5C6,95.1,1.8,93.9,1,93.6z M6,99.5c-0.6,0.6-1.7,0.6-2.3,0c-0.4-0.4-1.1-2.3-1.7-4
				c1.7,0.5,3.6,1.3,4,1.7C6.6,97.8,6.6,98.9,6,99.5z"/>
			<path fill="#231F20" d="M16.5,103.3c-0.8,0.2-5,1.5-6,2.5c-0.6,0.6-0.9,1.4-0.9,2.2c0,0.8,0.3,1.6,0.9,2.2
				c0.6,0.6,1.4,0.9,2.2,0.9c0.8,0,1.6-0.3,2.2-0.9c1-1,2.2-5.2,2.5-6c0.1-0.3,0-0.5-0.2-0.7C17.1,103.3,16.8,103.2,16.5,103.3z
				 M13.9,109.2c-0.6,0.6-1.7,0.6-2.3,0c-0.3-0.3-0.5-0.7-0.5-1.2c0-0.4,0.2-0.9,0.5-1.2c0.4-0.4,2.3-1.1,4-1.7
				C15.1,106.9,14.4,108.8,13.9,109.2z"/>
			<path fill="#231F20" d="M1,103.3c-0.3-0.1-0.5,0-0.7,0.2c-0.2,0.2-0.3,0.5-0.2,0.7c0.2,0.8,1.5,5,2.5,6c0.6,0.6,1.4,0.9,2.2,0.9
				c0.8,0,1.6-0.3,2.2-0.9c1.2-1.2,1.2-3.2,0-4.5C6,104.8,1.8,103.6,1,103.3z M6,109.2c-0.6,0.6-1.7,0.6-2.3,0
				c-0.4-0.4-1.1-2.3-1.7-4c1.7,0.5,3.6,1.3,4,1.7C6.6,107.5,6.6,108.6,6,109.2z"/>
		</g>
		<rect x="21.2" y="86.7" fill="#FFFFFF" width="33.7" height="25.8"/>
		<path fill="#231F20" d="M50.5,63.9c-4-4-6.3-9.8-6.3-15.9V30.6H31.9v17.4c0,6.1-2.3,11.9-6.3,15.9c-3.3,3.3-5.1,7.7-5.1,12.4v49
			c0,2.3,1.9,4.3,4.3,4.3h26.7c2.3,0,4.3-1.9,4.3-4.3v-49C55.6,71.6,53.8,67.2,50.5,63.9z M33.4,32.1h9.2v11.6h-9.2V32.1z
			 M21.9,87.5h32.2v24.3H21.9V87.5z M54.1,125.2c0,1.5-1.2,2.8-2.8,2.8H24.7c-1.5,0-2.8-1.2-2.8-2.8v-12h32.2V125.2z M21.9,86v-9.7
			c0-4.3,1.7-8.3,4.7-11.3c4.3-4.3,6.8-10.5,6.8-17v-2.8h9.2v2.8c0,6.5,2.5,12.7,6.8,17c3,3,4.7,7.1,4.7,11.3V86H21.9z"/>
		<g>
			<rect x="23.2" y="88.7" fill="#FFD05B" width="29.7" height="21.8"/>
		</g>
		<g>
			<path fill="#231F20" d="M66.1,37.3c-2.3,0-4.1-1.9-4.1-4.1c0-2.3,1.9-4.1,4.1-4.1c2.3,0,4.1,1.9,4.1,4.1
				C70.2,35.5,68.4,37.3,66.1,37.3z M66.1,30.5c-1.5,0-2.6,1.2-2.6,2.6c0,1.5,1.2,2.6,2.6,2.6s2.6-1.2,2.6-2.6
				C68.7,31.7,67.5,30.5,66.1,30.5z"/>
		</g>
		<g>
			<circle fill="#FFD05B" cx="18.5" cy="48.4" r="3.4"/>
		</g>
		<g>
			<circle fill="#E6E9EE" cx="32.7" cy="18.7" r="2.3"/>
		</g>
		<g>
			<circle fill="#84DBFF" cx="121.5" cy="39.1" r="2.3"/>
		</g>
		<g>
			<circle fill="#E6E9EE" cx="121.5" cy="86.7" r="2.3"/>
		</g>
	</g>
</g>
</svg>
