<?xml version="1.0" encoding="utf-8"?>
<!-- Generator: Adobe Illustrator 18.0.0, SVG Export Plug-In . SVG Version: 6.00 Build 0)  -->
<!DOCTYPE svg PUBLIC "-//W3C//DTD SVG 1.1//EN" "http://www.w3.org/Graphics/SVG/1.1/DTD/svg11.dtd">
<svg version="1.1" id="Layer_1" xmlns="http://www.w3.org/2000/svg" xmlns:xlink="http://www.w3.org/1999/xlink" x="0px" y="0px"
	 viewBox="0 0 129.5 129.5" enable-background="new 0 0 129.5 129.5" xml:space="preserve">
<g>
	<g>
		<g>
			<g>
				<path fill="#231F20" d="M127.5,2.8c-0.2,0-0.4-0.1-0.5-0.2c-0.3-0.3-0.3-0.8,0-1.1l1.3-1.3c0.3-0.3,0.8-0.3,1.1,0
					c0.3,0.3,0.3,0.8,0,1.1L128,2.6C127.8,2.7,127.7,2.8,127.5,2.8z"/>
			</g>
			<g>
				<path fill="#231F20" d="M123.4,6.8c-0.2,0-0.4-0.1-0.5-0.2c-0.3-0.3-0.3-0.8,0-1.1l1.3-1.3c0.3-0.3,0.8-0.3,1.1,0
					c0.3,0.3,0.3,0.8,0,1.1L124,6.6C123.8,6.7,123.6,6.8,123.4,6.8z"/>
			</g>
			<g>
				<path fill="#231F20" d="M128.8,6.8c-0.2,0-0.4-0.1-0.5-0.2l-1.3-1.3c-0.3-0.3-0.3-0.8,0-1.1s0.8-0.3,1.1,0l1.3,1.3
					c0.3,0.3,0.3,0.8,0,1.1C129.1,6.7,128.9,6.8,128.8,6.8z"/>
			</g>
			<g>
				<path fill="#231F20" d="M124.7,2.8c-0.2,0-0.4-0.1-0.5-0.2l-1.3-1.3c-0.3-0.3-0.3-0.8,0-1.1c0.3-0.3,0.8-0.3,1.1,0l1.3,1.3
					c0.3,0.3,0.3,0.8,0,1.1C125.1,2.7,124.9,2.8,124.7,2.8z"/>
			</g>
		</g>
		<g>
			<g>
				<path fill="#231F20" d="M122.8,112.1c-0.2,0-0.4-0.1-0.5-0.2c-0.3-0.3-0.3-0.8,0-1.1l1.3-1.3c0.3-0.3,0.8-0.3,1.1,0
					c0.3,0.3,0.3,0.8,0,1.1l-1.3,1.3C123.2,112.1,123,112.1,122.8,112.1z"/>
			</g>
			<g>
				<path fill="#231F20" d="M118.8,116.2c-0.2,0-0.4-0.1-0.5-0.2c-0.3-0.3-0.3-0.8,0-1.1l1.3-1.3c0.3-0.3,0.8-0.3,1.1,0
					c0.3,0.3,0.3,0.8,0,1.1l-1.3,1.3C119.1,116.1,119,116.2,118.8,116.2z"/>
			</g>
			<g>
				<path fill="#231F20" d="M124.1,116.2c-0.2,0-0.4-0.1-0.5-0.2l-1.3-1.3c-0.3-0.3-0.3-0.8,0-1.1c0.3-0.3,0.8-0.3,1.1,0l1.3,1.3
					c0.3,0.3,0.3,0.8,0,1.1C124.5,116.1,124.3,116.2,124.1,116.2z"/>
			</g>
			<g>
				<path fill="#231F20" d="M120,112.1c-0.2,0-0.4-0.1-0.5-0.2l-1.3-1.3c-0.3-0.3-0.3-0.8,0-1.1s0.8-0.3,1.1,0l1.3,1.3
					c0.3,0.3,0.3,0.8,0,1.1C120.4,112.1,120.2,112.1,120,112.1z"/>
			</g>
		</g>
		<g>
			<g>
				<path fill="#231F20" d="M4.8,88.4c-0.2,0-0.4-0.1-0.5-0.2c-0.3-0.3-0.3-0.8,0-1.1l1.3-1.3c0.3-0.3,0.8-0.3,1.1,0
					c0.3,0.3,0.3,0.8,0,1.1l-1.3,1.3C5.2,88.4,5,88.4,4.8,88.4z"/>
			</g>
			<g>
				<path fill="#231F20" d="M0.8,92.5c-0.2,0-0.4-0.1-0.5-0.2c-0.3-0.3-0.3-0.8,0-1.1l1.3-1.3c0.3-0.3,0.8-0.3,1.1,0
					c0.3,0.3,0.3,0.8,0,1.1l-1.3,1.3C1.1,92.4,0.9,92.5,0.8,92.5z"/>
			</g>
			<g>
				<path fill="#231F20" d="M6.1,92.5c-0.2,0-0.4-0.1-0.5-0.2L4.2,91c-0.3-0.3-0.3-0.8,0-1.1c0.3-0.3,0.8-0.3,1.1,0l1.3,1.3
					c0.3,0.3,0.3,0.8,0,1.1C6.4,92.4,6.3,92.5,6.1,92.5z"/>
			</g>
			<g>
				<path fill="#231F20" d="M2,88.4c-0.2,0-0.4-0.1-0.5-0.2l-1.3-1.3c-0.3-0.3-0.3-0.8,0-1.1s0.8-0.3,1.1,0l1.3,1.3
					c0.3,0.3,0.3,0.8,0,1.1C2.4,88.4,2.2,88.4,2,88.4z"/>
			</g>
		</g>
		<g>
			<rect x="28.3" y="2.8" fill="#FFD05B" width="21.6" height="6.7"/>
		</g>
		<g>
			<rect x="54" y="2.8" fill="#FFD05B" width="21.6" height="6.7"/>
		</g>
		<g>
			<rect x="79.6" y="2.8" fill="#FFD05B" width="21.6" height="6.7"/>
		</g>
		<g>
			<rect x="15.6" y="13.4" fill="#FFD05B" width="21.6" height="6.7"/>
		</g>
		<g>
			<rect x="92.3" y="13.4" fill="#FFD05B" width="21.6" height="6.7"/>
		</g>
		<g>
			<rect x="28.3" y="24.1" fill="#FFD05B" width="21.6" height="6.7"/>
		</g>
		<g>
			<rect x="79.6" y="24.1" fill="#FFD05B" width="21.6" height="6.7"/>
		</g>
		<g>
			<rect x="15.6" y="34.8" fill="#FFD05B" width="21.6" height="6.7"/>
		</g>
		<g>
			<rect x="92.3" y="34.8" fill="#FFD05B" width="21.6" height="6.7"/>
		</g>
		<g>
			<rect x="28.3" y="45.4" fill="#FFD05B" width="21.6" height="6.7"/>
		</g>
		<g>
			<rect x="79.6" y="45.4" fill="#FFD05B" width="21.6" height="6.7"/>
		</g>
		<g>
			<rect x="105.2" y="45.4" fill="#FFD05B" width="21.6" height="6.7"/>
		</g>
		<g>
			<rect x="15.6" y="56.1" fill="#FFD05B" width="21.6" height="6.7"/>
		</g>
		<g>
			<rect x="92.3" y="56.1" fill="#FFD05B" width="21.6" height="6.7"/>
		</g>
		<g>
			<rect x="2.8" y="66.8" fill="#FFD05B" width="21.6" height="6.7"/>
		</g>
		<g>
			<rect x="28.3" y="66.8" fill="#FFD05B" width="21.6" height="6.7"/>
		</g>
		<g>
			<rect x="79.6" y="66.8" fill="#FFD05B" width="21.6" height="6.7"/>
		</g>
		<g>
			<rect x="15.6" y="77.4" fill="#FFD05B" width="21.6" height="6.7"/>
		</g>
		<g>
			<rect x="92.3" y="77.4" fill="#FFD05B" width="21.6" height="6.7"/>
		</g>
		<g>
			<rect x="28.3" y="88.1" fill="#FFD05B" width="21.6" height="6.7"/>
		</g>
		<g>
			<rect x="79.6" y="88.1" fill="#FFD05B" width="21.6" height="6.7"/>
		</g>
		<g>
			<rect x="15.6" y="98.8" fill="#FFD05B" width="21.6" height="6.7"/>
		</g>
		<g>
			<rect x="92.3" y="98.8" fill="#FFD05B" width="21.6" height="6.7"/>
		</g>
		<g>
			<rect x="2.8" y="109.4" fill="#FFD05B" width="21.6" height="6.7"/>
		</g>
		<g>
			<rect x="15.6" y="120.1" fill="#FFD05B" width="21.6" height="6.7"/>
		</g>
		<g>
			<rect x="41.2" y="120.1" fill="#FFD05B" width="21.6" height="6.7"/>
		</g>
		<g>
			<rect x="66.8" y="120.1" fill="#FFD05B" width="21.6" height="6.7"/>
		</g>
		<g>
			<rect x="92.3" y="120.1" fill="#FFD05B" width="21.6" height="6.7"/>
		</g>
		<rect x="23.2" y="107.4" fill="#FFFFFF" width="83.2" height="10.7"/>
		<rect x="29.1" y="103.1" fill="#FFFFFF" width="71.2" height="4.4"/>
		<rect x="34" y="11.4" fill="#FFFFFF" width="61.6" height="91.6"/>
		<rect x="39" y="17.2" fill="#FFFFFF" width="14.4" height="22.5"/>
		<g>
			<rect x="41" y="19.2" fill="#84DBFF" width="10.4" height="18.5"/>
		</g>
		<rect x="57.5" y="17.2" fill="#FFFFFF" width="14.4" height="22.5"/>
		<g>
			<rect x="59.5" y="19.2" fill="#84DBFF" width="10.4" height="18.5"/>
		</g>
		<rect x="76.1" y="17.2" fill="#FFFFFF" width="14.4" height="22.5"/>
		<g>
			<rect x="78.1" y="19.2" fill="#84DBFF" width="10.4" height="18.5"/>
		</g>
		<rect x="39" y="46" fill="#FFFFFF" width="14.4" height="22.5"/>
		<rect x="57.5" y="46" fill="#FFFFFF" width="14.4" height="22.5"/>
		<rect x="76.1" y="46" fill="#FFFFFF" width="14.4" height="22.5"/>
		<rect x="39" y="74.7" fill="#FFFFFF" width="14.4" height="22.5"/>
		<rect x="57.5" y="74.7" fill="#FFFFFF" width="14.4" height="22.5"/>
		<rect x="76.1" y="74.7" fill="#FFFFFF" width="14.4" height="22.5"/>
		<g>
			<path fill="#231F20" d="M116.7,42.7V32h-12.8v-9.2h12.8V10.7h-12.8V0H25.6v10.7H12.8v12.2h12.8V32H12.8v12.2h12.8v9.2H12.8V64H0
				v12.2h12.8v10.7h12.8V96H12.8v10.7H0v12.2h12.8v10.7h103.9v-12.2h-9.6v-9.2h9.6V96h-12.8v-9.2h12.8V74.7h-12.8v-9.2h12.8V54.8
				h12.8V42.7H116.7z M115.2,33.5v9.2H96.3v-9.2H115.2z M102.4,44.2v9.2h-6.1v-9.2H102.4z M96.3,32v-9.2h6.1V32H96.3z M115.2,12.2
				v9.2H96.3v-9.2H115.2z M78.3,1.5h24.1v9.2H78.3V1.5z M96.3,65.5h6.1v9.2h-6.1V65.5z M96.3,86.8h6.1V96h-6.1V86.8z M99.6,106.7
				H29.9v-2.9h69.7V106.7z M105.6,108.2v9.2H23.9v-9.2H105.6z M33.2,96h-6.1v-9.2h6.1V96z M33.2,74.7h-6.1v-9.2h6.1V74.7z
				 M33.2,53.3h-6.1v-9.2h6.1V53.3z M33.2,32h-6.1v-9.2h6.1V32z M94.8,102.3H34.7V12.2h60.1V102.3z M52.7,1.5h24.1v9.2H52.7V1.5z
				 M27.1,1.5h24.1v9.2H27.1V1.5z M14.3,21.3v-9.2h18.9v9.2H14.3z M14.3,42.7v-9.2h18.9v9.2H14.3z M14.3,54.8h18.9V64H14.3V54.8z
				 M1.5,74.7v-9.2h24.1v9.2H1.5z M14.3,85.3v-9.2h18.9v9.2H14.3z M14.3,97.5h18.9v4.8h-4.8v4.4H14.3V97.5z M1.5,117.3v-9.2h20.9
				v9.2H1.5z M38.4,128H14.3v-9.2h24.1V128z M64,128H39.9v-9.2H64V128z M89.6,128H65.5v-9.2h24.1V128z M115.2,118.8v9.2H91.1v-9.2
				H115.2z M115.2,97.5v9.2h-14.1v-4.4h-4.8v-4.8H115.2z M115.2,76.2v9.2H96.3v-9.2H115.2z M115.2,64H96.3v-9.2h18.9V64z M128,53.3
				h-24.1v-9.2H128V53.3z"/>
			<path fill="#231F20" d="M38.2,40.5h15.9v-24H38.2V40.5z M39.7,18h12.9v21H39.7V18z"/>
			<path fill="#231F20" d="M56.8,40.5h15.9v-24H56.8V40.5z M58.3,18h12.9v21H58.3V18z"/>
			<path fill="#231F20" d="M75.4,40.5h15.9v-24H75.4V40.5z M76.9,18h12.9v21H76.9V18z"/>
			<path fill="#231F20" d="M38.2,69.2h15.9v-24H38.2V69.2z M39.7,46.7h12.9v21H39.7V46.7z"/>
			<path fill="#231F20" d="M56.8,69.2h15.9v-24H56.8V69.2z M58.3,46.7h12.9v21H58.3V46.7z"/>
			<path fill="#231F20" d="M75.4,69.2h15.9v-24H75.4V69.2z M76.9,46.7h12.9v21H76.9V46.7z"/>
			<path fill="#231F20" d="M38.2,98h15.9V74H38.2V98z M39.7,75.5h12.9v21H39.7V75.5z"/>
			<path fill="#231F20" d="M56.8,98h15.9V74H56.8V98z M58.3,75.5h12.9v21H58.3V75.5z"/>
			<path fill="#231F20" d="M75.4,98h15.9V74H75.4V98z M76.9,75.5h12.9v21H76.9V75.5z"/>
		</g>
		<g>
			<rect x="41" y="48" fill="#84DBFF" width="10.4" height="18.5"/>
		</g>
		<g>
			<rect x="59.5" y="48" fill="#84DBFF" width="10.4" height="18.5"/>
		</g>
		<g>
			<rect x="78.1" y="48" fill="#84DBFF" width="10.4" height="18.5"/>
		</g>
		<g>
			<rect x="41" y="76.7" fill="#84DBFF" width="10.4" height="18.5"/>
		</g>
		<g>
			<rect x="59.5" y="76.7" fill="#84DBFF" width="10.4" height="18.5"/>
		</g>
		<g>
			<rect x="78.1" y="76.7" fill="#84DBFF" width="10.4" height="18.5"/>
		</g>
		<g>
			<circle fill="#FF7058" cx="7.4" cy="8.8" r="2.7"/>
		</g>
	</g>
</g>
</svg>
