<?xml version="1.0" encoding="utf-8"?>
<!-- Generator: Adobe Illustrator 21.1.0, SVG Export Plug-In . SVG Version: 6.00 Build 0)  -->
<svg version="1.1" id="Icon_Set" xmlns="http://www.w3.org/2000/svg" xmlns:xlink="http://www.w3.org/1999/xlink" x="0px" y="0px"
	 viewBox="0 0 64 64" style="enable-background:new 0 0 64 64;" xml:space="preserve">
<style type="text/css">
	.st0{fill:#263238;}
	.st1{fill:#40C4FF;}
	.st2{fill:#FFD740;}
	.st3{fill:#FF5252;}
	.st4{fill:#4DB6AC;}
	.st5{fill:#FFFFFF;}
	.st6{fill:#4FC3F7;}
</style>
<g id="Handshakes">
	<g>
		<path class="st1" d="M62.406,30.493l-3.889,3.889c-0.391,0.391-1.024,0.391-1.414,0L42.96,20.24c-0.391-0.391-0.391-1.024,0-1.414
			l3.889-3.889c0.391-0.391,1.024-0.391,1.414,0l14.142,14.142C62.796,29.469,62.796,30.103,62.406,30.493z"/>
		<path class="st0" d="M57.81,35.174c-0.384,0-0.769-0.146-1.061-0.438L42.606,20.594c-0.585-0.585-0.585-1.536,0-2.121l3.89-3.89
			c0.584-0.584,1.537-0.584,2.121,0l14.142,14.143c0.585,0.585,0.585,1.536,0,2.121l-3.889,3.889
			C58.578,35.027,58.193,35.174,57.81,35.174z M47.557,15.144c-0.128,0-0.256,0.049-0.354,0.146l-3.89,3.89
			c-0.195,0.195-0.195,0.512,0,0.707l14.143,14.142c0.195,0.195,0.512,0.195,0.707,0l3.889-3.889c0.195-0.195,0.195-0.512,0-0.707
			L47.91,15.29C47.812,15.192,47.685,15.144,47.557,15.144z"/>
	</g>
	<g>
		<path class="st1" d="M1.594,31.2l4.95,4.95c0.391,0.391,1.024,0.391,1.414,0l14.142-14.142c0.391-0.391,0.391-1.024,0-1.414
			l-4.95-4.95c-0.391-0.391-1.024-0.391-1.414,0L1.594,29.786C1.204,30.176,1.204,30.81,1.594,31.2z"/>
		<path class="st0" d="M7.251,36.941c-0.384,0-0.768-0.146-1.061-0.438l-4.949-4.95c-0.585-0.585-0.585-1.536,0-2.121L15.383,15.29
			c0.584-0.584,1.537-0.584,2.121,0l4.95,4.95c0.585,0.585,0.585,1.536,0,2.121L8.312,36.504
			C8.019,36.796,7.635,36.941,7.251,36.941z M16.443,15.851c-0.128,0-0.256,0.049-0.354,0.146L1.948,30.14
			c-0.195,0.195-0.195,0.512,0,0.707l0,0l4.949,4.95c0.195,0.193,0.512,0.193,0.707,0l14.143-14.143
			c0.195-0.195,0.195-0.512,0-0.707l-4.95-4.95C16.699,15.899,16.571,15.851,16.443,15.851z"/>
	</g>
	<g>
		<path class="st0" d="M42.96,50.438c-0.128,0-0.256-0.049-0.354-0.146l-9.899-9.899c-0.195-0.195-0.195-0.512,0-0.707
			s0.512-0.195,0.707,0l9.899,9.899c0.195,0.195,0.195,0.512,0,0.707C43.216,50.39,43.088,50.438,42.96,50.438z"/>
	</g>
	<g>
		<path class="st0" d="M38.718,53.267c-0.128,0-0.256-0.049-0.354-0.146l-9.192-9.192c-0.195-0.195-0.195-0.512,0-0.707
			s0.512-0.195,0.707,0l9.192,9.192c0.195,0.195,0.195,0.512,0,0.707C38.974,53.218,38.846,53.267,38.718,53.267z"/>
	</g>
	<g>
		<path class="st0" d="M19.625,50.108c-0.768,0-1.536-0.292-2.121-0.877l0,0c-1.169-1.17-1.169-3.073,0-4.243l2.652-2.651
			c1.132-1.132,3.109-1.134,4.242,0c1.17,1.17,1.17,3.073,0,4.243l-2.651,2.651C21.162,49.816,20.394,50.108,19.625,50.108z
			 M18.211,48.524c0.782,0.78,2.051,0.778,2.829,0l2.651-2.651c0.78-0.78,0.78-2.049,0-2.829c-0.756-0.756-2.072-0.756-2.828,0
			l-2.652,2.651C17.432,46.476,17.432,47.744,18.211,48.524L18.211,48.524z"/>
	</g>
	<g>
		<path class="st0" d="M22.454,54.351c-0.769,0-1.536-0.292-2.121-0.877l0,0c-0.566-0.566-0.879-1.319-0.879-2.121
			c0-0.801,0.312-1.555,0.879-2.121l3.358-3.358c1.17-1.169,3.073-1.171,4.243,0c1.169,1.169,1.169,3.072,0,4.242l-3.359,3.358
			C23.99,54.059,23.223,54.351,22.454,54.351z M25.812,45.995c-0.512,0-1.024,0.195-1.414,0.585l-3.358,3.358
			c-0.378,0.378-0.586,0.88-0.586,1.414s0.208,1.036,0.586,1.414l0,0c0.779,0.779,2.049,0.779,2.828,0l3.359-3.358
			c0.779-0.78,0.779-2.049,0-2.828C26.838,46.19,26.325,45.995,25.812,45.995z"/>
	</g>
	<g>
		<path class="st0" d="M26.696,57.18c-0.768,0-1.536-0.292-2.121-0.877l0,0c-1.17-1.17-1.17-3.073,0-4.243l2.651-2.651
			c1.169-1.17,3.072-1.17,4.243,0c0.566,0.566,0.879,1.32,0.879,2.121c0,0.802-0.312,1.555-0.879,2.121l-2.651,2.652
			C28.233,56.887,27.465,57.18,26.696,57.18z M25.282,55.596c0.78,0.78,2.051,0.778,2.829,0l2.651-2.652
			c0.378-0.378,0.586-0.88,0.586-1.414s-0.208-1.036-0.586-1.414c-0.779-0.78-2.05-0.778-2.829,0l-2.651,2.651
			C24.502,53.547,24.502,54.815,25.282,55.596L25.282,55.596z"/>
	</g>
	<g>
		<path class="st0" d="M30.93,59.999c-0.768,0-1.536-0.292-2.121-0.877l0,0c-1.169-1.17-1.169-3.073,0-4.243l1.945-1.944
			c1.132-1.132,3.108-1.134,4.242,0c0.566,0.566,0.879,1.32,0.879,2.121c0,0.802-0.312,1.555-0.879,2.121l-1.944,1.945
			C32.467,59.706,31.698,59.999,30.93,59.999z M29.516,58.415c0.782,0.779,2.051,0.779,2.829,0l1.944-1.945
			c0.378-0.378,0.586-0.88,0.586-1.414s-0.208-1.036-0.586-1.414c-0.756-0.756-2.072-0.756-2.828,0l-1.945,1.944
			C28.736,56.366,28.736,57.635,29.516,58.415L29.516,58.415z"/>
	</g>
	<g>
		<path class="st0" d="M16.126,44.817c-0.128,0-0.256-0.049-0.354-0.146L9.02,37.918c-0.195-0.195-0.195-0.512,0-0.707
			s0.512-0.195,0.707,0l6.753,6.753c0.195,0.195,0.195,0.512,0,0.707C16.382,44.769,16.254,44.817,16.126,44.817z"/>
	</g>
	<g>
		<path class="st0" d="M35.914,24.957c-0.128,0-0.256-0.049-0.354-0.146l-0.156-0.156c-0.466-0.466-1.109-0.732-1.768-0.732H23.515
			c-0.276,0-0.5-0.224-0.5-0.5s0.224-0.5,0.5-0.5h10.122c0.921,0,1.823,0.374,2.475,1.025l0.156,0.156
			c0.195,0.195,0.195,0.512,0,0.707C36.17,24.908,36.042,24.957,35.914,24.957z"/>
	</g>
	<g>
		<path class="st0" d="M37.016,57.498c-0.04,0-0.079-0.001-0.118-0.002c-0.276-0.01-0.492-0.242-0.482-0.518
			c0.01-0.276,0.253-0.467,0.518-0.482c0.336,0.016,0.838-0.048,1.277-0.407c0.447-0.366,0.709-0.882,0.737-1.453
			c0.028-0.563-0.185-1.116-0.583-1.516c-0.195-0.195-0.195-0.512,0-0.707s0.512-0.195,0.707,0l0.606,0.606
			c0.774,0.773,1.99,0.879,2.774,0.241c0.447-0.366,0.709-0.883,0.738-1.455c0.027-0.563-0.185-1.115-0.584-1.514l0,0
			c-0.195-0.195-0.195-0.512,0-0.707s0.512-0.195,0.707,0c0.002,0.002,0.004,0.003,0.005,0.005l0.702,0.702
			c0.399,0.398,0.951,0.61,1.516,0.583c0.571-0.028,1.087-0.29,1.453-0.737c0.639-0.782,0.533-2.001-0.241-2.775L32.707,33.321
			c-0.195-0.195-0.195-0.512,0-0.707s0.512-0.195,0.707,0l14.041,14.041c1.133,1.133,1.269,2.94,0.308,4.115
			c-0.538,0.659-1.332,1.061-2.176,1.104c-0.489,0.022-0.963-0.069-1.396-0.268c0.003,0.083,0.003,0.166-0.002,0.249
			c-0.042,0.846-0.444,1.64-1.104,2.179c-0.876,0.717-2.103,0.824-3.139,0.363c0.005,0.096,0.005,0.192,0,0.289
			c-0.043,0.844-0.444,1.638-1.104,2.176C38.333,57.279,37.703,57.498,37.016,57.498z"/>
	</g>
	<g>
		<path class="st0" d="M25.99,36.569c-0.833,0-1.665-0.316-2.299-0.95c-0.614-0.614-0.952-1.43-0.952-2.298s0.338-1.685,0.952-2.298
			l2.48-2.48c0.661-0.661,1.54-1.025,2.475-1.025l6.328,0.001l6.218-6.218c0.195-0.195,0.512-0.195,0.707,0s0.195,0.512,0,0.707
			l-6.364,6.364c-0.094,0.094-0.221,0.146-0.354,0.146l0,0l-6.535-0.001c-0.668,0-1.295,0.26-1.768,0.732l-2.48,2.48
			c-0.425,0.425-0.659,0.989-0.659,1.591c0,0.601,0.234,1.166,0.659,1.591c0.878,0.878,2.307,0.876,3.183,0l3.712-3.712
			c0.195-0.195,0.512-0.195,0.707,0s0.195,0.512,0,0.707l-3.712,3.712C27.654,36.253,26.822,36.569,25.99,36.569z"/>
	</g>
	<g>
		<path class="st0" d="M47.193,44.772c-0.128,0-0.256-0.049-0.354-0.146c-0.195-0.195-0.195-0.512,0-0.707l8.485-8.485
			c0.195-0.195,0.512-0.195,0.707,0s0.195,0.512,0,0.707l-8.485,8.485C47.449,44.724,47.321,44.772,47.193,44.772z"/>
	</g>
	<g>
		<path class="st0" d="M30.5,14h-4c-0.276,0-0.5-0.224-0.5-0.5s0.224-0.5,0.5-0.5h4c0.276,0,0.5,0.224,0.5,0.5S30.776,14,30.5,14z"
			/>
	</g>
	<g>
		<path class="st0" d="M28.5,16c-0.276,0-0.5-0.224-0.5-0.5v-4c0-0.276,0.224-0.5,0.5-0.5s0.5,0.224,0.5,0.5v4
			C29,15.776,28.776,16,28.5,16z"/>
	</g>
	<g>
		<path class="st0" d="M37.5,7h-4C33.224,7,33,6.776,33,6.5S33.224,6,33.5,6h4C37.776,6,38,6.224,38,6.5S37.776,7,37.5,7z"/>
	</g>
	<g>
		<path class="st0" d="M35.5,9C35.224,9,35,8.776,35,8.5v-4C35,4.224,35.224,4,35.5,4S36,4.224,36,4.5v4C36,8.776,35.776,9,35.5,9z"
			/>
	</g>
	<g>
		<path class="st0" d="M1.5,58.5h-1C0.224,58.5,0,58.276,0,58s0.224-0.5,0.5-0.5h1C1.776,57.5,2,57.724,2,58S1.776,58.5,1.5,58.5z"
			/>
	</g>
	<g>
		<path class="st0" d="M14.5,58.5h-11C3.224,58.5,3,58.276,3,58s0.224-0.5,0.5-0.5h11c0.276,0,0.5,0.224,0.5,0.5
			S14.776,58.5,14.5,58.5z"/>
	</g>
	<g>
		<path class="st0" d="M63.5,58.5h-1c-0.276,0-0.5-0.224-0.5-0.5s0.224-0.5,0.5-0.5h1c0.276,0,0.5,0.224,0.5,0.5
			S63.776,58.5,63.5,58.5z"/>
	</g>
	<g>
		<path class="st0" d="M60.5,58.5h-11c-0.276,0-0.5-0.224-0.5-0.5s0.224-0.5,0.5-0.5h11c0.276,0,0.5,0.224,0.5,0.5
			S60.776,58.5,60.5,58.5z"/>
	</g>
</g>
</svg>
