<?xml version="1.0" encoding="utf-8"?>
<!-- Generator: Adobe Illustrator 18.0.0, SVG Export Plug-In . SVG Version: 6.00 Build 0)  -->
<!DOCTYPE svg PUBLIC "-//W3C//DTD SVG 1.1//EN" "http://www.w3.org/Graphics/SVG/1.1/DTD/svg11.dtd">
<svg version="1.1" id="Layer_1" xmlns="http://www.w3.org/2000/svg" xmlns:xlink="http://www.w3.org/1999/xlink" x="0px" y="0px"
	 viewBox="0 0 129.5 129.5" enable-background="new 0 0 129.5 129.5" xml:space="preserve">
<g>
	<g>
		<g>
			<g>
				<path fill="#231F20" d="M118,17.4c-0.2,0-0.4-0.1-0.5-0.2c-0.3-0.3-0.3-0.8,0-1.1l1.3-1.3c0.3-0.3,0.8-0.3,1.1,0
					c0.3,0.3,0.3,0.8,0,1.1l-1.3,1.3C118.4,17.3,118.2,17.4,118,17.4z"/>
			</g>
			<g>
				<path fill="#231F20" d="M114,21.4c-0.2,0-0.4-0.1-0.5-0.2c-0.3-0.3-0.3-0.8,0-1.1l1.3-1.3c0.3-0.3,0.8-0.3,1.1,0
					c0.3,0.3,0.3,0.8,0,1.1l-1.3,1.3C114.4,21.3,114.2,21.4,114,21.4z"/>
			</g>
			<g>
				<path fill="#231F20" d="M119.3,21.4c-0.2,0-0.4-0.1-0.5-0.2l-1.3-1.3c-0.3-0.3-0.3-0.8,0-1.1c0.3-0.3,0.8-0.3,1.1,0l1.3,1.3
					c0.3,0.3,0.3,0.8,0,1.1C119.7,21.3,119.5,21.4,119.3,21.4z"/>
			</g>
			<g>
				<path fill="#231F20" d="M115.3,17.4c-0.2,0-0.4-0.1-0.5-0.2l-1.3-1.3c-0.3-0.3-0.3-0.8,0-1.1c0.3-0.3,0.8-0.3,1.1,0l1.3,1.3
					c0.3,0.3,0.3,0.8,0,1.1C115.6,17.3,115.4,17.4,115.3,17.4z"/>
			</g>
		</g>
		<g>
			<g>
				<path fill="#231F20" d="M14,12.3c-0.2,0-0.4-0.1-0.5-0.2c-0.3-0.3-0.3-0.8,0-1.1l1.3-1.3c0.3-0.3,0.8-0.3,1.1,0
					c0.3,0.3,0.3,0.8,0,1.1l-1.3,1.3C14.4,12.2,14.2,12.3,14,12.3z"/>
			</g>
			<g>
				<path fill="#231F20" d="M10,16.3c-0.2,0-0.4-0.1-0.5-0.2c-0.3-0.3-0.3-0.8,0-1.1l1.3-1.3c0.3-0.3,0.8-0.3,1.1,0
					c0.3,0.3,0.3,0.8,0,1.1l-1.3,1.3C10.4,16.3,10.2,16.3,10,16.3z"/>
			</g>
			<g>
				<path fill="#231F20" d="M15.3,16.3c-0.2,0-0.4-0.1-0.5-0.2l-1.3-1.3c-0.3-0.3-0.3-0.8,0-1.1c0.3-0.3,0.8-0.3,1.1,0l1.3,1.3
					c0.3,0.3,0.3,0.8,0,1.1C15.7,16.3,15.5,16.3,15.3,16.3z"/>
			</g>
			<g>
				<path fill="#231F20" d="M11.3,12.3c-0.2,0-0.4-0.1-0.5-0.2l-1.3-1.3c-0.3-0.3-0.3-0.8,0-1.1c0.3-0.3,0.8-0.3,1.1,0l1.3,1.3
					c0.3,0.3,0.3,0.8,0,1.1C11.7,12.2,11.5,12.3,11.3,12.3z"/>
			</g>
		</g>
		<g>
			<rect x="12.7" y="37.6" fill="#FF7058" width="103.9" height="58.8"/>
		</g>
		<path fill="#FFFFFF" d="M100.7,96.4V7.8c0-1.2-1-2.1-2.1-2.1H32.1c-1.2,0-2.1,1-2.1,2.1c0,3.4,0,70,0,88.7H100.7z"/>
		<path fill="#E6E9EE" d="M100.7,23V7.8c0-1.2-1-2.1-2.1-2.1H32.1c-1.2,0-2.1,1-2.1,2.1V23H100.7z"/>
		<path fill="#54C0EB" d="M100.7,7.8v6.1H51.5L50,9.8H37.6l-1.5,4.1H30V7.8c0-1.2,1-2.1,2.1-2.1h66.5C99.8,5.6,100.7,6.6,100.7,7.8z
			"/>
		<polygon fill="#CED5E0" points="66.9,13.9 51.5,13.9 53,9.8 65.4,9.8 		"/>
		<rect x="40.3" y="16.1" fill="#FFFFFF" width="48.3" height="5"/>
		<path fill="#324A5E" d="M41.9,17.4h0.3v1h0c0-0.1,0.1-0.2,0.2-0.2c0.1,0,0.2-0.1,0.3-0.1c0.2,0,0.6,0.1,0.6,0.7v0.9H43v-0.9
			c0-0.3-0.1-0.5-0.4-0.5c-0.2,0-0.3,0.1-0.4,0.3c0,0,0,0.1,0,0.1v1h-0.3V17.4z"/>
		<path fill="#324A5E" d="M44.1,17.7v0.5h0.4v0.2h-0.4v0.9c0,0.2,0.1,0.3,0.2,0.3c0.1,0,0.1,0,0.2,0l0,0.2c-0.1,0-0.1,0-0.3,0
			c-0.1,0-0.2,0-0.3-0.1c-0.1-0.1-0.1-0.2-0.1-0.4v-0.9h-0.2v-0.2h0.2v-0.4L44.1,17.7z"/>
		<path fill="#324A5E" d="M45.2,17.7v0.5h0.4v0.2h-0.4v0.9c0,0.2,0.1,0.3,0.2,0.3c0.1,0,0.1,0,0.2,0l0,0.2c-0.1,0-0.1,0-0.3,0
			c-0.1,0-0.2,0-0.3-0.1c-0.1-0.1-0.1-0.2-0.1-0.4v-0.9h-0.2v-0.2h0.2v-0.4L45.2,17.7z"/>
		<path fill="#324A5E" d="M45.9,18.6c0-0.2,0-0.4,0-0.5h0.3l0,0.3h0c0.1-0.2,0.3-0.3,0.6-0.3c0.4,0,0.7,0.3,0.7,0.8
			c0,0.6-0.3,0.9-0.7,0.9c-0.2,0-0.4-0.1-0.5-0.3h0v0.9h-0.3V18.6z M46.2,19.1c0,0,0,0.1,0,0.1c0.1,0.2,0.2,0.3,0.4,0.3
			c0.3,0,0.5-0.3,0.5-0.6c0-0.3-0.2-0.6-0.5-0.6c-0.2,0-0.4,0.1-0.4,0.4c0,0,0,0.1,0,0.1V19.1z"/>
		<path fill="#324A5E" d="M47.7,18.4c0-0.1,0.1-0.2,0.2-0.2c0.1,0,0.2,0.1,0.2,0.2c0,0.1-0.1,0.2-0.2,0.2
			C47.8,18.6,47.7,18.5,47.7,18.4z M47.7,19.5c0-0.1,0.1-0.2,0.2-0.2c0.1,0,0.2,0.1,0.2,0.2c0,0.1-0.1,0.2-0.2,0.2
			C47.8,19.7,47.7,19.7,47.7,19.5z"/>
		<path fill="#324A5E" d="M48.2,19.8l0.9-2.4h0.2l-0.9,2.4H48.2z"/>
		<path fill="#324A5E" d="M49.3,19.8l0.9-2.4h0.2l-0.9,2.4H49.3z"/>
		<path fill="#324A5E" d="M51.5,18.1l0.2,0.8c0,0.2,0.1,0.3,0.1,0.5h0c0-0.2,0.1-0.3,0.1-0.5l0.3-0.8h0.2l0.2,0.8
			c0.1,0.2,0.1,0.4,0.1,0.5h0c0-0.2,0.1-0.3,0.1-0.5l0.2-0.8h0.3L53,19.7h-0.3l-0.2-0.8c-0.1-0.2-0.1-0.3-0.1-0.5h0
			c0,0.2-0.1,0.4-0.1,0.5L52,19.7h-0.3l-0.5-1.6H51.5z"/>
		<path fill="#324A5E" d="M54,18.1l0.2,0.8c0,0.2,0.1,0.3,0.1,0.5h0c0-0.2,0.1-0.3,0.1-0.5l0.3-0.8H55l0.2,0.8
			c0.1,0.2,0.1,0.4,0.1,0.5h0c0-0.2,0.1-0.3,0.1-0.5l0.2-0.8H56l-0.5,1.6h-0.3L55,18.9c-0.1-0.2-0.1-0.3-0.1-0.5h0
			c0,0.2-0.1,0.4-0.1,0.5l-0.3,0.8h-0.3l-0.5-1.6H54z"/>
		<path fill="#324A5E" d="M56.5,18.1l0.2,0.8c0,0.2,0.1,0.3,0.1,0.5h0c0-0.2,0.1-0.3,0.1-0.5l0.3-0.8h0.2l0.2,0.8
			c0.1,0.2,0.1,0.4,0.1,0.5h0c0-0.2,0.1-0.3,0.1-0.5l0.2-0.8h0.3L58,19.7h-0.3l-0.2-0.8c-0.1-0.2-0.1-0.3-0.1-0.5h0
			c0,0.2-0.1,0.4-0.1,0.5l-0.3,0.8h-0.3l-0.5-1.6H56.5z"/>
		<path fill="#324A5E" d="M58.6,19.5c0-0.1,0.1-0.2,0.2-0.2c0.1,0,0.2,0.1,0.2,0.2c0,0.1-0.1,0.2-0.2,0.2
			C58.6,19.7,58.6,19.7,58.6,19.5z"/>
		<polyline fill="#FFFFFF" points="76.2,69.2 69.8,77.1 65.4,71.4 60.9,77.1 54.5,69.2 		"/>
		<path fill="#FFFFFF" d="M71,63v5.2l-5.6,3.2l-5.6-3.2V63c1.7,1.4,3.6,2.3,5.6,2.3C67.4,65.2,69.3,64.4,71,63z"/>
		<path fill="#FFFFFF" d="M78.1,44.2c-0.5-8.6-6-11.8-12.8-11.8c-6.8,0-12.3,3.2-12.8,11.8"/>
		<path fill="#FFFFFF" d="M54.9,56.3c2.3,5.1,6.1,8.9,10.4,8.9s8.1-3.8,10.4-8.9"/>
		<path fill="#FFFFFF" d="M77.7,55.5l-1.6-0.3l1.8-9.9l1.6,0.3c1.9,0.3,3.1,2.1,2.8,4l-0.6,3.1C81.3,54.6,79.5,55.9,77.7,55.5z"/>
		<path fill="#FFFFFF" d="M53,55.5l1.6-0.3l-1.8-9.9l-1.6,0.3c-1.9,0.3-3.1,2.1-2.8,4l0.6,3.1C49.4,54.6,51.2,55.9,53,55.5z"/>
		<g>
			<circle fill="#E6E9EE" cx="64.8" cy="102" r="2.9"/>
		</g>
		<path fill="#FFFFFF" d="M36.7,57.7c2.3-3.2,3.6-7.1,3.6-11.3c0-10.9-8.8-19.8-19.8-19.8S0.8,35.4,0.8,46.3
			c0,10.9,8.8,19.8,19.8,19.8c4.2,0,8.1-1.3,11.3-3.6l8.4,3.6L36.7,57.7z"/>
		<path fill="#231F20" d="M118.7,32.5h-17.2V7.8c0-1.6-1.3-2.9-2.9-2.9H32.1c-1.6,0-2.9,1.3-2.9,2.9v20c-2.6-1.2-5.6-2-8.7-2
			C9.2,25.8,0,35,0,46.3c0,6.5,3.1,12.3,7.8,16.1v43c0,1.7,1.4,3.1,3.1,3.1h107.8c1.7,0,3.1-1.4,3.1-3.1V35.5
			C121.7,33.8,120.3,32.5,118.7,32.5z M30.7,7.8c0-0.8,0.6-1.4,1.4-1.4h66.5c0.8,0,1.4,0.6,1.4,1.4v87.9h-3.4V80.2
			c0-3-1.9-5.6-4.7-6.6l-15.2-5l-3.8-3.7c-0.1-0.1-0.3-0.2-0.5-0.2h-0.6v-1.4c1-0.9,2-2,2.9-3.4c1.4-0.3,2.6-1.1,3.3-2.4l0.7-1.2
			c1.9-0.2,3.4-1.5,3.8-3.4l0.6-3.1c0.3-1.5-0.3-3-1.4-3.9c0-0.3,0-0.6,0-0.8c0-10.3-6.1-16.4-16.2-16.4c-10.2,0-16.2,6.1-16.2,16.4
			c0,0.3,0,0.6,0,0.8c-1.1,0.9-1.7,2.4-1.4,3.9l0.6,3.1c0.4,2,2.1,3.4,4.1,3.4c0.2,0,0.5,0,0.7-0.1l1-0.2c-0.1,0.2-0.1,0.4,0,0.6
			c1.3,2.8,2.9,5.1,4.7,6.7v1.3h-0.6c-0.2,0-0.4,0.1-0.5,0.2l-3.8,3.7l-15.2,5c-2.8,0.9-4.7,3.6-4.7,6.6v15.5h-3.4V64.1
			c0.4-0.2,0.8-0.5,1.2-0.8l8,3.4c0.1,0,0.2,0.1,0.3,0.1c0.2,0,0.4-0.1,0.5-0.2c0.2-0.2,0.3-0.5,0.2-0.8l-3.4-8
			c2.3-3.4,3.5-7.3,3.5-11.4c0-7.6-4.2-14.2-10.3-17.8V7.8z M85.7,93.4v2.3H45v-2.3h-1.5v2.3h-7.8V80.2c0-2.3,1.5-4.4,3.7-5.1
			l14.9-4.9l6.1,7.5c0.1,0.2,0.4,0.3,0.6,0.3c0.2,0,0.4-0.1,0.6-0.3l3.8-5l3.8,5c0.1,0.2,0.4,0.3,0.6,0.3h0c0.2,0,0.4-0.1,0.6-0.3
			l6.1-7.5L91.4,75c2.2,0.7,3.7,2.8,3.7,5.1v15.5h-7.8v-2.3H85.7z M59.4,68.9l4.9,2.8l-3.3,4.3l-5.4-6.6l3.2-3.2H59v2.1
			C59,68.5,59.1,68.7,59.4,68.9z M76.5,56.1l0.5,0.1l-0.4,0.7c-0.2,0.3-0.4,0.6-0.7,0.8c0.2-0.3,0.3-0.7,0.5-1
			C76.6,56.4,76.6,56.2,76.5,56.1z M77,54.6l1.5-8.4l0.8,0.1c0.7,0.1,1.3,0.5,1.7,1.1c0.4,0.6,0.6,1.3,0.4,2l-0.6,3.1
			c-0.3,1.4-1.6,2.4-3.1,2.2L77,54.6z M80.1,45c-0.2-0.1-0.3-0.1-0.5-0.1l-0.9-0.2c0.1-0.1,0.2-0.3,0.2-0.5
			c-0.4-8.1-5.3-12.5-13.5-12.5c-8.3,0-13.1,4.5-13.5,12.5c0,0.2,0.1,0.4,0.2,0.5l-0.9,0.2c-0.2,0-0.3,0.1-0.5,0.1c0,0,0,0,0,0
			c0-9.4,5.5-14.9,14.7-14.9C74.6,30.1,80.1,35.7,80.1,45C80.1,45,80.1,45,80.1,45z M51.4,46.4l0.8-0.1l1.5,8.4l-0.8,0.1
			c-1.5,0.3-2.9-0.7-3.1-2.2l-0.6-3.1c-0.1-0.7,0-1.4,0.4-2C50.1,46.9,50.7,46.5,51.4,46.4z M53.5,45.2c0-0.2-0.2-0.8-0.2-0.9
			c0.5-9.2,6.8-11.1,12-11.1c5.2,0,11.5,1.9,12,11.1c0,0.2-0.2,0.7-0.2,0.9l-1.8,9.9c0,0.2-0.2,0.7-0.3,0.9
			c-0.4,0.9-0.9,1.7-1.3,2.5l-2.9,0.1c-0.4-0.8-1.3-1.4-2.4-1.4c-1.5,0-2.6,0.9-2.6,2.1c0,1.2,1.1,2.1,2.6,2.1
			c1.1,0,2.1-0.6,2.4-1.4l1.9-0.1c-2.2,2.8-4.8,4.4-7.4,4.4c-3.7,0-7.3-3.2-9.8-8.5c-0.1-0.2-0.2-0.7-0.3-0.9L53.5,45.2z M69.5,59.4
			c0,0.3-0.5,0.6-1.1,0.6c-0.6,0-1.1-0.3-1.1-0.6c0-0.3,0.5-0.6,1.1-0.6C69.1,58.7,69.5,59.1,69.5,59.4z M60.5,64.4
			c1.6,1,3.2,1.5,4.9,1.5c1.7,0,3.3-0.5,4.9-1.5l0,0v3.3l-4.9,2.8l-4.9-2.8L60.5,64.4L60.5,64.4z M71.4,68.9
			c0.2-0.1,0.4-0.4,0.4-0.7v-2.1H72l3.2,3.2l-5.4,6.6l-3.3-4.3L71.4,68.9z M1.5,46.3c0-10.5,8.5-19,19-19c10.5,0,19,8.5,19,19
			c0,3.9-1.2,7.7-3.5,10.9c-0.1,0.2-0.2,0.5-0.1,0.7l2.9,6.7l-6.7-2.9c-0.2-0.1-0.5-0.1-0.7,0.1c-3.2,2.3-7,3.5-10.9,3.5
			C10,65.4,1.5,56.8,1.5,46.3z M29.2,64.9v30.8H9.3V63.5c3.2,2.1,7.1,3.4,11.2,3.4C23.6,66.9,26.5,66.2,29.2,64.9z M120.2,105.4
			c0,0.9-0.7,1.6-1.6,1.6H10.8c-0.9,0-1.6-0.7-1.6-1.6v-8.3h110.9V105.4z M120.2,95.7h-18.7V34h17.2c0.9,0,1.6,0.7,1.6,1.6V95.7z"/>
		<path fill="#E6E9EE" d="M0.8,112.5L0.8,112.5c0,6.3,5.1,11.4,11.4,11.4h105.3c6.3,0,11.4-5.1,11.4-11.4l0,0H0.8z"/>
		<g>
			<line fill="#FFFFFF" x1="9.8" y1="39.2" x2="31.2" y2="39.2"/>
			<rect x="9.8" y="38.5" fill="#231F20" width="21.4" height="1.5"/>
		</g>
		<g>
			<line fill="#FFFFFF" x1="9.8" y1="43.5" x2="31.2" y2="43.5"/>
			<rect x="9.8" y="42.8" fill="#231F20" width="21.4" height="1.5"/>
		</g>
		<g>
			<line fill="#FFFFFF" x1="9.8" y1="47.9" x2="31.2" y2="47.9"/>
			<rect x="9.8" y="47.1" fill="#231F20" width="21.4" height="1.5"/>
		</g>
		<g>
			<line fill="#FFFFFF" x1="9.8" y1="52.2" x2="21.7" y2="52.2"/>
			<rect x="9.8" y="51.4" fill="#231F20" width="11.9" height="1.5"/>
		</g>
		<polygon fill="#E6E9EE" points="82.9,112.5 46.6,112.5 50.4,118.2 79.1,118.2 		"/>
		<path fill="#231F20" d="M128.8,111.8H0.8c-0.4,0-0.8,0.3-0.8,0.8c0,6.7,5.4,12.1,12.1,12.1h105.3c6.7,0,12.1-5.4,12.1-12.1
			C129.5,112.1,129.2,111.8,128.8,111.8z M81.5,113.3l-2.8,4.2H50.8l-2.8-4.2H81.5z M117.4,123.1H12.1c-5.6,0-10.2-4.4-10.6-9.9
			h44.6l3.6,5.4c0.1,0.2,0.4,0.3,0.6,0.3h28.7c0.2,0,0.5-0.1,0.6-0.3l3.6-5.4H128C127.6,118.8,123,123.1,117.4,123.1z"/>
	</g>
</g>
</svg>
