<?xml version="1.0" encoding="utf-8"?>
<!-- Generator: Adobe Illustrator 18.0.0, SVG Export Plug-In . SVG Version: 6.00 Build 0)  -->
<!DOCTYPE svg PUBLIC "-//W3C//DTD SVG 1.1//EN" "http://www.w3.org/Graphics/SVG/1.1/DTD/svg11.dtd">
<svg version="1.1" id="Layer_1" xmlns="http://www.w3.org/2000/svg" xmlns:xlink="http://www.w3.org/1999/xlink" x="0px" y="0px"
	 viewBox="0 0 129.5 129.5" enable-background="new 0 0 129.5 129.5" xml:space="preserve">
<g>
	<g>
		<polygon fill="#84DBFF" points="62.2,119.2 10.3,67.3 10.3,62.2 62.2,10.3 67.3,10.3 119.2,62.2 119.2,67.3 67.3,119.2 		"/>
		<path fill="#FFFFFF" d="M70.5,91.2H59v2.7c-11.8-2.3-21.2-11.7-23.4-23.5h2.7V59h-2.7C37.9,47.2,47.3,37.9,59,35.6v2.7h11.4v-2.7
			C82.2,37.9,91.6,47.2,93.9,59h-2.7v11.4h2.7c-2.3,11.8-11.6,21.2-23.5,23.5V91.2z"/>
		<path fill="#231F20" d="M68,36.6h-6.5c-0.4,0-0.8-0.3-0.8-0.8v-6.5c0-0.4,0.3-0.8,0.8-0.8H68c0.4,0,0.8,0.3,0.8,0.8v6.5
			C68.8,36.3,68.4,36.6,68,36.6z M62.2,35.1h5v-5h-5V35.1z"/>
		<rect x="61.5" y="29.3" fill="#FFFFFF" width="6.6" height="6.5"/>
		<rect x="61.5" y="93.6" fill="#FFFFFF" width="6.6" height="6.5"/>
		<rect x="93.6" y="61.5" fill="#FFFFFF" width="6.5" height="6.6"/>
		<rect x="29.3" y="61.5" fill="#FFFFFF" width="6.5" height="6.6"/>
		<g>
			<path fill="#231F20" d="M120.9,7.9c0,0.4,0.3,0.8,0.8,0.8h7.1c0.4,0,0.8-0.3,0.8-0.8V0.8c0-0.4-0.3-0.8-0.8-0.8h-7.1
				c-0.4,0-0.8,0.3-0.8,0.8v2.8h-0.3v1.5h0.3V7.9z M122.4,1.5h5.6v5.6h-5.6V1.5z"/>
			<path fill="#231F20" d="M128.7,120.8h-2.8v-0.2h-1.5v0.2h-2.8c-0.4,0-0.8,0.3-0.8,0.8v2.8h-0.3v1.5h0.3v2.8
				c0,0.4,0.3,0.8,0.8,0.8h7.1c0.4,0,0.8-0.3,0.8-0.8v-7.1C129.5,121.2,129.2,120.8,128.7,120.8z M128,128h-5.6v-5.6h5.6V128z"/>
			<path fill="#231F20" d="M0.8,8.6h7.1c0.4,0,0.7-0.3,0.7-0.8V0.8C8.6,0.3,8.3,0,7.9,0H0.8C0.3,0,0,0.3,0,0.8v7.1
				C0,8.3,0.3,8.6,0.8,8.6z M1.5,1.5h5.6v5.6H1.5V1.5z"/>
			<path fill="#231F20" d="M128.7,60.4h-2.8v-0.2h-1.5v0.2h-2.5L95,33.5h8.6c0.4,2.4,2.5,4.3,5,4.3c2.8,0,5.1-2.3,5.1-5.1
				s-2.3-5.1-5.1-5.1c-2.5,0-4.6,1.9-5,4.3H93.5L69.1,7.6V0.8c0-0.4-0.3-0.8-0.8-0.8h-7.1c-0.4,0-0.8,0.3-0.8,0.8v2.8h-0.2v1.5h0.2
				v2.5L36,32H25.6c-0.4-2.4-2.5-4.3-5-4.3c-2.8,0-5.1,2.3-5.1,5.1s2.3,5.1,5.1,5.1c2.5,0,4.6-1.9,5-4.3h8.8L7.6,60.4H5.1v-0.2H3.6
				v0.2H0.8c-0.4,0-0.8,0.3-0.8,0.8v7.1c0,0.4,0.3,0.8,0.8,0.8h6.8l27.1,27.1h-9c-0.4-2.4-2.5-4.3-5-4.3c-2.8,0-5.1,2.3-5.1,5.1
				s2.3,5.1,5.1,5.1c2.5,0,4.6-1.9,5-4.3h10.5l24.3,24.3v2.5h-0.2v1.5h0.2v2.8c0,0.4,0.3,0.8,0.8,0.8h7.1c0.4,0,0.8-0.3,0.8-0.8
				v-6.8l24.3-24.3h10.2c0.4,2.4,2.5,4.3,5,4.3c2.8,0,5.1-2.3,5.1-5.1s-2.3-5.1-5.1-5.1c-2.5,0-4.6,1.9-5,4.3h-8.7l27.1-27.1h6.8
				c0.4,0,0.8-0.3,0.8-0.8v-7.1C129.5,60.8,129.2,60.4,128.7,60.4z M108.6,29.2c2,0,3.6,1.6,3.6,3.6c0,2-1.6,3.6-3.6,3.6
				c-2,0-3.6-1.6-3.6-3.6C105,30.8,106.6,29.2,108.6,29.2z M20.6,36.3c-2,0-3.6-1.6-3.6-3.6c0-2,1.6-3.6,3.6-3.6
				c2,0,3.6,1.6,3.6,3.6C24.2,34.8,22.6,36.3,20.6,36.3z M7.1,67.6H1.5v-5.6h5.6V67.6z M20.6,100.4c-2,0-3.6-1.6-3.6-3.6
				c0-2,1.6-3.6,3.6-3.6c2,0,3.6,1.6,3.6,3.6C24.2,98.8,22.6,100.4,20.6,100.4z M108.6,93.3c2,0,3.6,1.6,3.6,3.6
				c0,2-1.6,3.6-3.6,3.6c-2,0-3.6-1.6-3.6-3.6C105,94.9,106.6,93.3,108.6,93.3z M61.9,1.5h5.6v5.6h-5.6V1.5z M61.5,8.6H68L91.4,32
				H68.8v-2.7c0-0.4-0.3-0.8-0.8-0.8h-6.6c-0.4,0-0.8,0.3-0.8,0.8V32H38.1L61.5,8.6z M93.6,60.7c-0.4,0-0.8,0.3-0.8,0.8V68
				c0,0.4,0.3,0.8,0.8,0.8h2.3c-1.8,14.1-13,25.3-27.1,27.1v-2.3c0-0.4-0.3-0.8-0.8-0.8h-6.6c-0.4,0-0.8,0.3-0.8,0.8v2.3
				c-14.1-1.8-25.3-13-27.1-27.1h2.2c0.4,0,0.8-0.3,0.8-0.8v-6.6c0-0.4-0.3-0.8-0.8-0.8h-2.2c1.8-14.1,13-25.3,27.1-27.1v2.3
				c0,0.4,0.3,0.8,0.8,0.8H68c0.4,0,0.8-0.3,0.8-0.8v-2.3c14.1,1.8,25.3,13,27.1,27.1H93.6z M99.4,62.2v5.1h-5v-5.1H99.4z
				 M67.3,94.4v5h-5.1v-5H67.3z M30.1,67.3v-5.1h5v5.1H30.1z M62.2,35.1v-5h5.1v5H62.2z M8.6,68v-6.5l27.9-27.9h17.8
				C42.6,37.5,33.7,48,32.1,60.7h-2.8c-0.4,0-0.8,0.3-0.8,0.8V68c0,0.4,0.3,0.8,0.8,0.8h2.8C33.7,81.7,42.8,92.3,55,96.1H36.8
				L8.6,68z M67.6,128h-5.6v-5.6h5.6V128z M68,120.9h-6.5L38.3,97.6h22.5v2.5c0,0.4,0.3,0.8,0.8,0.8H68c0.4,0,0.8-0.3,0.8-0.8v-2.5
				h22.5L68,120.9z M120.9,68L92.7,96.1H74.6c12.1-3.8,21.2-14.4,22.8-27.4h2.8c0.4,0,0.8-0.3,0.8-0.8v-6.6c0-0.4-0.3-0.8-0.8-0.8
				h-2.8C95.8,48,86.9,37.5,75.1,33.5h17.8l27.9,27.9V68z M128,67.6h-5.6v-5.6h5.6V67.6z"/>
			<path fill="#231F20" d="M7.9,120.8H5.1v-0.2H3.6v0.2H0.8c-0.4,0-0.7,0.3-0.7,0.8v7.1c0,0.4,0.3,0.8,0.7,0.8h7.1
				c0.4,0,0.7-0.3,0.7-0.8v-7.1C8.6,121.2,8.3,120.8,7.9,120.8z M7.1,128H1.5v-5.6h5.6V128z"/>
			<rect x="114.6" y="3.6" fill="#231F20" width="1" height="1.5"/>
			<rect x="69.6" y="3.6" fill="#231F20" width="1" height="1.5"/>
			<rect x="78.6" y="3.6" fill="#231F20" width="1" height="1.5"/>
			<rect x="72.6" y="3.6" fill="#231F20" width="1" height="1.5"/>
			<rect x="81.6" y="3.6" fill="#231F20" width="1" height="1.5"/>
			<rect x="117.6" y="3.6" fill="#231F20" width="1" height="1.5"/>
			<rect x="75.6" y="3.6" fill="#231F20" width="1" height="1.5"/>
			<rect x="87.6" y="3.6" fill="#231F20" width="1" height="1.5"/>
			<rect x="111.6" y="3.6" fill="#231F20" width="1" height="1.5"/>
			<rect x="96.6" y="3.6" fill="#231F20" width="1" height="1.5"/>
			<rect x="93.6" y="3.6" fill="#231F20" width="1" height="1.5"/>
			<rect x="105.6" y="3.6" fill="#231F20" width="1" height="1.5"/>
			<rect x="90.6" y="3.6" fill="#231F20" width="1" height="1.5"/>
			<rect x="102.6" y="3.6" fill="#231F20" width="1" height="1.5"/>
			<rect x="99.6" y="3.6" fill="#231F20" width="1" height="1.5"/>
			<rect x="84.6" y="3.6" fill="#231F20" width="1" height="1.5"/>
			<rect x="108.6" y="3.6" fill="#231F20" width="1" height="1.5"/>
			<rect x="54.2" y="3.6" fill="#231F20" width="1" height="1.5"/>
			<rect x="18.2" y="3.6" fill="#231F20" width="1" height="1.5"/>
			<rect x="21.2" y="3.6" fill="#231F20" width="1" height="1.5"/>
			<rect x="24.2" y="3.6" fill="#231F20" width="1" height="1.5"/>
			<rect x="51.2" y="3.6" fill="#231F20" width="1" height="1.5"/>
			<rect x="45.2" y="3.6" fill="#231F20" width="1" height="1.5"/>
			<rect x="30.2" y="3.6" fill="#231F20" width="1" height="1.5"/>
			<rect x="36.2" y="3.6" fill="#231F20" width="1" height="1.5"/>
			<rect x="33.2" y="3.6" fill="#231F20" width="1" height="1.5"/>
			<rect x="27.2" y="3.6" fill="#231F20" width="1" height="1.5"/>
			<rect x="39.2" y="3.6" fill="#231F20" width="1" height="1.5"/>
			<rect x="57.2" y="3.6" fill="#231F20" width="1" height="1.5"/>
			<rect x="42.2" y="3.6" fill="#231F20" width="1" height="1.5"/>
			<rect x="15.2" y="3.6" fill="#231F20" width="1" height="1.5"/>
			<rect x="48.2" y="3.6" fill="#231F20" width="1" height="1.5"/>
			<rect x="9.2" y="3.6" fill="#231F20" width="1" height="1.5"/>
			<rect x="12.2" y="3.6" fill="#231F20" width="1" height="1.5"/>
			<rect x="69.6" y="124.4" fill="#231F20" width="1" height="1.5"/>
			<rect x="105.6" y="124.4" fill="#231F20" width="1" height="1.5"/>
			<rect x="102.6" y="124.4" fill="#231F20" width="1" height="1.5"/>
			<rect x="99.6" y="124.4" fill="#231F20" width="1" height="1.5"/>
			<rect x="111.6" y="124.4" fill="#231F20" width="1" height="1.5"/>
			<rect x="117.6" y="124.4" fill="#231F20" width="1" height="1.5"/>
			<rect x="114.6" y="124.4" fill="#231F20" width="1" height="1.5"/>
			<rect x="96.6" y="124.4" fill="#231F20" width="1" height="1.5"/>
			<rect x="108.6" y="124.4" fill="#231F20" width="1" height="1.5"/>
			<rect x="93.6" y="124.4" fill="#231F20" width="1" height="1.5"/>
			<rect x="75.6" y="124.4" fill="#231F20" width="1" height="1.5"/>
			<rect x="78.6" y="124.4" fill="#231F20" width="1" height="1.5"/>
			<rect x="72.6" y="124.4" fill="#231F20" width="1" height="1.5"/>
			<rect x="81.6" y="124.4" fill="#231F20" width="1" height="1.5"/>
			<rect x="90.6" y="124.4" fill="#231F20" width="1" height="1.5"/>
			<rect x="87.6" y="124.4" fill="#231F20" width="1" height="1.5"/>
			<rect x="84.6" y="124.4" fill="#231F20" width="1" height="1.5"/>
			<rect x="27.2" y="124.4" fill="#231F20" width="1" height="1.5"/>
			<rect x="48.2" y="124.4" fill="#231F20" width="1" height="1.5"/>
			<rect x="36.2" y="124.4" fill="#231F20" width="1" height="1.5"/>
			<rect x="45.2" y="124.4" fill="#231F20" width="1" height="1.5"/>
			<rect x="9.2" y="124.4" fill="#231F20" width="1" height="1.5"/>
			<rect x="42.2" y="124.4" fill="#231F20" width="1" height="1.5"/>
			<rect x="57.2" y="124.4" fill="#231F20" width="1" height="1.5"/>
			<rect x="54.2" y="124.4" fill="#231F20" width="1" height="1.5"/>
			<rect x="51.2" y="124.4" fill="#231F20" width="1" height="1.5"/>
			<rect x="39.2" y="124.4" fill="#231F20" width="1" height="1.5"/>
			<rect x="18.2" y="124.4" fill="#231F20" width="1" height="1.5"/>
			<rect x="33.2" y="124.4" fill="#231F20" width="1" height="1.5"/>
			<rect x="12.2" y="124.4" fill="#231F20" width="1" height="1.5"/>
			<rect x="15.2" y="124.4" fill="#231F20" width="1" height="1.5"/>
			<rect x="21.2" y="124.4" fill="#231F20" width="1" height="1.5"/>
			<rect x="30.2" y="124.4" fill="#231F20" width="1" height="1.5"/>
			<rect x="24.2" y="124.4" fill="#231F20" width="1" height="1.5"/>
			<rect x="124.4" y="75.6" fill="#231F20" width="1.5" height="1"/>
			<rect x="124.4" y="99.6" fill="#231F20" width="1.5" height="1"/>
			<rect x="124.4" y="96.6" fill="#231F20" width="1.5" height="1"/>
			<rect x="124.4" y="93.6" fill="#231F20" width="1.5" height="1"/>
			<rect x="124.4" y="87.6" fill="#231F20" width="1.5" height="1"/>
			<rect x="124.4" y="90.6" fill="#231F20" width="1.5" height="1"/>
			<rect x="124.4" y="102.6" fill="#231F20" width="1.5" height="1"/>
			<rect x="124.4" y="108.6" fill="#231F20" width="1.5" height="1"/>
			<rect x="124.4" y="105.6" fill="#231F20" width="1.5" height="1"/>
			<rect x="124.4" y="114.6" fill="#231F20" width="1.5" height="1"/>
			<rect x="124.4" y="111.6" fill="#231F20" width="1.5" height="1"/>
			<rect x="124.4" y="117.6" fill="#231F20" width="1.5" height="1"/>
			<rect x="124.4" y="72.6" fill="#231F20" width="1.5" height="1"/>
			<rect x="124.4" y="81.6" fill="#231F20" width="1.5" height="1"/>
			<rect x="124.4" y="69.6" fill="#231F20" width="1.5" height="1"/>
			<rect x="124.4" y="84.6" fill="#231F20" width="1.5" height="1"/>
			<rect x="124.4" y="78.6" fill="#231F20" width="1.5" height="1"/>
			<rect x="124.4" y="9.2" fill="#231F20" width="1.5" height="1"/>
			<rect x="124.4" y="15.2" fill="#231F20" width="1.5" height="1"/>
			<rect x="124.4" y="39.2" fill="#231F20" width="1.5" height="1"/>
			<rect x="124.4" y="48.2" fill="#231F20" width="1.5" height="1"/>
			<rect x="124.4" y="42.2" fill="#231F20" width="1.5" height="1"/>
			<rect x="124.4" y="45.2" fill="#231F20" width="1.5" height="1"/>
			<rect x="124.4" y="12.2" fill="#231F20" width="1.5" height="1"/>
			<rect x="124.4" y="54.2" fill="#231F20" width="1.5" height="1"/>
			<rect x="124.4" y="57.2" fill="#231F20" width="1.5" height="1"/>
			<rect x="124.4" y="51.2" fill="#231F20" width="1.5" height="1"/>
			<rect x="124.4" y="21.2" fill="#231F20" width="1.5" height="1"/>
			<rect x="124.4" y="18.2" fill="#231F20" width="1.5" height="1"/>
			<rect x="124.4" y="24.2" fill="#231F20" width="1.5" height="1"/>
			<rect x="124.4" y="30.2" fill="#231F20" width="1.5" height="1"/>
			<rect x="124.4" y="33.2" fill="#231F20" width="1.5" height="1"/>
			<rect x="124.4" y="36.2" fill="#231F20" width="1.5" height="1"/>
			<rect x="124.4" y="27.2" fill="#231F20" width="1.5" height="1"/>
			<rect x="3.6" y="114.6" fill="#231F20" width="1.5" height="1"/>
			<rect x="3.6" y="90.6" fill="#231F20" width="1.5" height="1"/>
			<rect x="3.6" y="78.6" fill="#231F20" width="1.5" height="1"/>
			<rect x="3.6" y="81.6" fill="#231F20" width="1.5" height="1"/>
			<rect x="3.6" y="87.6" fill="#231F20" width="1.5" height="1"/>
			<rect x="3.6" y="84.6" fill="#231F20" width="1.5" height="1"/>
			<rect x="3.6" y="72.6" fill="#231F20" width="1.5" height="1"/>
			<rect x="3.6" y="69.6" fill="#231F20" width="1.5" height="1"/>
			<rect x="3.6" y="75.6" fill="#231F20" width="1.5" height="1"/>
			<rect x="3.6" y="108.6" fill="#231F20" width="1.5" height="1"/>
			<rect x="3.6" y="117.6" fill="#231F20" width="1.5" height="1"/>
			<rect x="3.6" y="105.6" fill="#231F20" width="1.5" height="1"/>
			<rect x="3.6" y="111.6" fill="#231F20" width="1.5" height="1"/>
			<rect x="3.6" y="96.6" fill="#231F20" width="1.5" height="1"/>
			<rect x="3.6" y="93.6" fill="#231F20" width="1.5" height="1"/>
			<rect x="3.6" y="99.6" fill="#231F20" width="1.5" height="1"/>
			<rect x="3.6" y="102.6" fill="#231F20" width="1.5" height="1"/>
			<rect x="3.6" y="36.2" fill="#231F20" width="1.5" height="1"/>
			<rect x="3.6" y="39.2" fill="#231F20" width="1.5" height="1"/>
			<rect x="3.6" y="42.2" fill="#231F20" width="1.5" height="1"/>
			<rect x="3.6" y="9.2" fill="#231F20" width="1.5" height="1"/>
			<rect x="3.6" y="48.2" fill="#231F20" width="1.5" height="1"/>
			<rect x="3.6" y="24.2" fill="#231F20" width="1.5" height="1"/>
			<rect x="3.6" y="27.2" fill="#231F20" width="1.5" height="1"/>
			<rect x="3.6" y="30.2" fill="#231F20" width="1.5" height="1"/>
			<rect x="3.6" y="33.2" fill="#231F20" width="1.5" height="1"/>
			<rect x="3.6" y="45.2" fill="#231F20" width="1.5" height="1"/>
			<rect x="3.6" y="15.2" fill="#231F20" width="1.5" height="1"/>
			<rect x="3.6" y="18.2" fill="#231F20" width="1.5" height="1"/>
			<rect x="3.6" y="12.2" fill="#231F20" width="1.5" height="1"/>
			<rect x="3.6" y="21.2" fill="#231F20" width="1.5" height="1"/>
			<rect x="3.6" y="57.2" fill="#231F20" width="1.5" height="1"/>
			<rect x="3.6" y="54.2" fill="#231F20" width="1.5" height="1"/>
			<rect x="3.6" y="51.2" fill="#231F20" width="1.5" height="1"/>
		</g>
		<g>
			<path fill="#231F20" d="M64.8,70.9c-0.4,0-0.8-0.3-0.8-0.8V59.3c0-0.4,0.3-0.8,0.8-0.8s0.8,0.3,0.8,0.8v10.8
				C65.5,70.6,65.2,70.9,64.8,70.9z"/>
		</g>
		<g>
			<path fill="#231F20" d="M70.2,65.5H59.3c-0.4,0-0.8-0.3-0.8-0.8c0-0.4,0.3-0.8,0.8-0.8h10.8c0.4,0,0.8,0.3,0.8,0.8
				C70.9,65.2,70.6,65.5,70.2,65.5z"/>
		</g>
	</g>
</g>
</svg>
