<svg xmlns="http://www.w3.org/2000/svg" xmlns:xlink="http://www.w3.org/1999/xlink" width="500" height="360" viewBox="0 0 450 324"><defs><clipPath id="A"><path d="M77.007 741.465h328.8V468.97h-328.8z"/></clipPath><linearGradient x1="0" y1="0" x2="1" y2="0" gradientTransform="matrix(-324.79041,-195.78517,190.2494,-295.46463,399.17139,696.9043)" spreadMethod="pad" id="B" xlink:href="#K"><stop offset="0" stop-color="#13c095"/><stop offset=".986" stop-color="#1fb5b7"/><stop offset="1" stop-color="#1fb5b7"/></linearGradient><linearGradient x1="0" y1="0" x2="1" y2="0" gradientTransform="matrix(376.34811,109.8074,109.8074,-376.34811,60.599609,544.50098)" spreadMethod="pad" id="C" xlink:href="#K"><stop offset="0" stop-color="#13c095"/><stop offset=".986" stop-color="#1fb5b7"/><stop offset="1" stop-color="#1fb5b7"/></linearGradient><linearGradient x1="0" y1="0" x2="1" y2="0" gradientTransform="matrix(63.319534,225.55429,225.55429,-63.319534,224.26172,465.74609)" spreadMethod="pad" id="D" xlink:href="#K"><stop offset="0" stop-color="#4dffd3"/><stop offset=".408" stop-color="#4dffd3"/><stop offset="1" stop-color="#72c9cb"/></linearGradient><linearGradient x1="156.23" y1="574.638" x2="403.755" y2="574.638" spreadMethod="pad" id="E" xlink:href="#K"><stop offset="0" stop-color="#13c095"/><stop offset=".986" stop-color="#1fb5b7"/><stop offset="1" stop-color="#1fb5b7"/></linearGradient><clipPath id="F"><path d="M0 0h800v800H0z"/></clipPath><clipPath id="G"><path d="M263.3 592.38h77.165v-77.17H263.3z"/></clipPath><radialGradient fx="0" fy="0" cx="0" cy="0" r="1" gradientTransform="matrix(38.58374,0,0,-38.58374,301.88232,553.7959)" spreadMethod="pad" id="H" xlink:href="#K"><stop offset="0" stop-color="#fff"/><stop offset=".398" stop-color="#fff"/><stop offset=".875" stop-color="#fff"/><stop offset=".995" stop-color="#0c4b84"/><stop offset="1" stop-color="#0c4b84"/></radialGradient><clipPath id="I"><path d="M235.876 646.7H269.2v-33.326h-33.325z"/></clipPath><radialGradient fx="0" fy="0" cx="0" cy="0" r="1" gradientTransform="matrix(16.662598,0,0,-16.662598,252.53857,630.03711)" spreadMethod="pad" id="J" xlink:href="#K"><stop offset="0" stop-color="#fff"/><stop offset=".398" stop-color="#fff"/><stop offset=".875" stop-color="#fff"/><stop offset=".995" stop-color="#aebddc"/><stop offset="1" stop-color="#aebddc"/></radialGradient><linearGradient id="K" gradientUnits="userSpaceOnUse"/></defs><g transform="matrix(1.144054 0 0 -1.132426 -60.859554 841.460876)"><g clip-path="url(#A)" opacity=".3"><path d="M390.9 709.22c31.87-40.792 8.908-104.282-33.685-149.65-48.855-52.036-235.008-122.342-272.077-74.894-34.824 44.574 48.567 168.22 129.61 219.165 83.3 52.364 144.283 46.17 176.153 5.378" fill="url(#B)"/></g><path d="M179.197 696.705c-98.254-26.525-134.332-79.82-122.944-136.24s77.97-86.43 143.182-87.012c74.798-.666 256.756 94.147 243.512 159.775-9.294 46.047-98.516 73.117-182.912 73.118-28.6 0-56.642-3.108-80.838-9.64" fill="url(#C)"/><path d="M123.5 699.357c-29.277-21.257-28.625-83.195 4.064-159.565 41.064-95.935 211.117-102.936 269.602-41.935 36.64 38.217 54.067 129.404-40.415 166.453-15.78 6.187-111.066 48.54-180.574 48.547-20.817.001-39.3-3.796-52.677-13.5" fill="url(#D)"/><path d="M357.13 627.324l10.585-10.586-53.258-53.305-65.2 47.972-93.038-96.127 34.89-.042 63.567 64.293 62.73-45.666 66.59 66.62 13.128-12.978 6.62 46.534z" fill="url(#E)"/><g clip-path="url(#F)"><path d="M362.422 590.187l-24.243 24.645a1.68 1.68 0 0 1-1.466.507c-.547-.076-1-.422-1.25-.915l-4.076-8.354-5.782-.444 1.088-6.777 1.22.08-3.734-5.18 7.163-3.704z" fill="#ccd9e9"/><path d="M362.797 590.398c.063.14.042.313-.064.426l-25.762 27.512c-.376.398-.926.59-1.465.507-.548-.076-1-.422-1.25-.915l-10.73-22.01a1.67 1.67 0 0 1 .049-1.549 1.65 1.65 0 0 1 1.304-.841l37.544-3.34c.154-.014.303.074.375.21" fill="#fff"/><path d="M353.7 594.608l-27.004 7.824-1.1 3.194 4.574 3.947 23.704-14.62c.09-.044.12-.16.078-.25a.19.19 0 0 0-.251-.095" fill="#ccd9e9"/><g fill="#fff"><path d="M324.745 610.66c-.15.287-.248.52-.353.778l-.28.762c-.17.5-.3 1.026-.425 1.548a.99.99 0 0 0 .752 1.177.99.99 0 0 0 1.176-.748c.104-.454.23-.903.38-1.34l.243-.645.27-.586.01-.016a1 1 0 1 0-1.766-.939m-1.3 8.412a15.86 15.86 0 0 0 .284 1.561c.12.518.27 1.03.44 1.533a.95.95 0 0 0 1.212.594.96.96 0 0 0 .596-1.207 13.53 13.53 0 0 1-.377-1.351l-.24-1.392c-.064-.53-.547-.907-1.077-.842s-.907.546-.842 1.077v.006zm3.188 7.762l.96 1.22 1.05 1.158a.92.92 0 1 0 1.339-1.266l-.01-.01-.956-1.074-.885-1.145c-.303-.417-.887-.5-1.304-.208s-.5.887-.208 1.304l.001.001zm5.94 5.73l2.563 1.677a.89.89 0 0 0 1.218-.306.89.89 0 0 0-.299-1.214l-2.443-1.628a.9.9 0 1 0-1.059 1.457zm7.082 4.045l1.4.602 1.448.534c.446.153.933-.083 1.087-.53a.86.86 0 0 0-.529-1.086l-2.708-1.102c-.434-.203-.95-.015-1.152.42s-.015.95.42 1.152zm7.835 2.4l3.036.395c.452.04.85-.296.9-.75s-.293-.846-.74-.9l-2.9-.403c-.454-.083-.888.217-.97.67s.218.9.67.972h.002zm8.148.504l3.04-.26a.79.79 0 1 0-.187-1.569l-2.937.225a.8.8 0 1 0 .062 1.603zm8.055-1.2l2.928-.843a.76.76 0 0 0 .484-.956.76.76 0 0 0-.949-.486l-2.843.793a.77.77 0 1 0 .361 1.497zm7.665-2.704l2.712-1.4c.35-.195.474-.637.278-.987a.72.72 0 0 0-.98-.28l-2.64 1.324a.74.74 0 0 0-.365.977.74.74 0 0 0 .978.364zm6.992-4.155l2.374-1.913c.287-.253.316-.7.064-.98a.69.69 0 0 0-.974-.068l-2.3 1.832c-.315.23-.383.67-.154.985s.67.384.985.155zm5.965-5.545l1.88-2.403a.66.66 0 1 0-1.072-.771l-1.836 2.305c-.244.28-.215.705.065.95s.705.215.95-.065zm4.5-6.777l1.226-2.796a.63.63 0 0 0-.364-.81.63.63 0 0 0-.808.357l-1.205 2.687a.64.64 0 1 0 1.142.58zm2.663-7.683l.473-3c.036-.327-.2-.62-.528-.657s-.617.198-.656.522l-.482 2.9a.61.61 0 0 0 .467.721.61.61 0 0 0 .722-.467zm.645-8.096l-.244-3.03a.56.56 0 0 0-.627-.49c-.3.04-.526.316-.492.623l.213 2.95c.01.317.276.567.593.556s.568-.275.558-.592zm-1.168-8.014l-.83-2.915a.53.53 0 1 0-1.012.319l.8 2.863c.07.292.364.47.655.4s.47-.364.4-.655zm-2.54-7.655l-1.168-2.785a.5.5 0 1 0-.915.404l1.132 2.758a.51.51 0 0 0 .954-.368z"/><path d="M384.964 580.384a27.86 27.86 0 0 0-1.674-2.548.47.47 0 0 0-.656-.096.47.47 0 0 0-.098.654c.58.8 1.104 1.618 1.6 2.477a.48.48 0 1 0 .832-.48zm-5.414-6.114a6.52 6.52 0 0 0-1.47-.62 4.9 4.9 0 0 0-1.633-.169.44.44 0 0 0-.405.467.44.44 0 0 0 .466.405 4.04 4.04 0 0 1 1.335.15 5.52 5.52 0 0 1 1.281.557.45.45 0 0 0 .613-.165.45.45 0 0 0-.166-.613zm-7.463 2.06a12.11 12.11 0 0 0-.805 1.32 15.05 15.05 0 0 0-.647 1.4c-.085.208.016.444.224.528s.443-.016.528-.222l.622-1.317a11.2 11.2 0 0 1 .766-1.233c.135-.188.092-.45-.096-.583a.42.42 0 0 0-.583.095l-.002.002zm-2.722 7.65a24.21 24.21 0 0 0-.218 3.032c-.001.207.165.376.372.378s.375-.163.38-.368c.017-.995.092-1.948.235-2.947.03-.212-.117-.408-.33-.438s-.407.116-.437.328zm.298 8.087l.4 1.47.514 1.442c.07.176.27.262.447.2s.26-.273.2-.45a17.5 17.5 0 0 1-.85-2.82.35.35 0 0 0-.423-.272c-.193.04-.314.23-.272.422zm3.635 7.22a11.47 11.47 0 0 0 1.136 1.036 11.34 11.34 0 0 0 1.273.872.32.32 0 0 0 .428-.1.32.32 0 0 0-.1-.427 10.37 10.37 0 0 1-1.193-.832 10.52 10.52 0 0 1-1.072-.993c-.123-.13-.328-.136-.46-.013s-.136.328-.013.46zm7.334 3.313a6.76 6.76 0 0 0 .772-.1 6.45 6.45 0 0 0 .763-.205 6 6 0 0 0 1.403-.703c.13-.087.163-.262.077-.4s-.26-.163-.4-.078a5.42 5.42 0 0 1-1.276.627 5.13 5.13 0 0 1-1.402.264c-.16.01-.285.146-.277.3a.29.29 0 0 0 .31.276h.003zm6.103-4.997a18.87 18.87 0 0 0 1.04-2.85c.037-.132-.04-.27-.173-.306a.25.25 0 0 0-.306.172c-.278.96-.603 1.863-1.037 2.772a.26.26 0 0 0 .123.348c.13.062.287.007.35-.123zm1.897-7.828l.114-3.014c0-.12-.098-.215-.218-.215s-.216.097-.216.216l-.137 2.98a.23.23 0 0 0 .207.25.23.23 0 0 0 .25-.208zm-.254-8.025l-.54-2.964c-.023-.1-.122-.163-.22-.14s-.162.12-.14.22l.5 2.943c.014.107.113.183.22.17s.184-.114.17-.22m-1.973-7.784l-1.216-2.756c-.038-.076-.13-.106-.206-.068s-.106.13-.07.205a29.69 29.69 0 0 1 1.183 2.739c.032.086.127.13.213.097s.13-.127.096-.212zm-3.902-7c-.62-.78-1.305-1.536-2.037-2.222-.048-.046-.125-.043-.17.006s-.043.124.005.17a21.25 21.25 0 0 1 1.996 2.214c.045.058.13.068.187.023s.07-.128.023-.187zm-6.14-5.108a16.53 16.53 0 0 0-2.802-1.101.09.09 0 0 0-.111.061c-.013.047.014.097.06.1a16.27 16.27 0 0 1 2.766 1.113c.05.025.1.005.136-.044s.006-.112-.044-.137zm-7.762-1.797a22.06 22.06 0 0 0-3 .202c-.03.005-.053.033-.05.065s.033.053.064.05a21.8 21.8 0 0 1 2.985-.177c.04 0 .07-.03.07-.07s-.03-.07-.068-.07zm-7.868 1.343l-2.8 1.054c-.013.005-.02.02-.013.033s.02.018.032.013l2.815-1.03c.02-.007.03-.027.025-.047s-.027-.03-.047-.024zm-7.298 3.257l-1.18.677 1.185-.667"/></g><path d="M340.443 553.796c0-21.297-17.264-38.56-38.56-38.56s-38.56 17.264-38.56 38.56 17.265 38.56 38.56 38.56 38.56-17.264 38.56-38.56" fill="#0c4b84"/><path d="M332.114 553.796c0-16.697-13.535-30.232-30.23-30.232S271.65 537.1 271.65 553.796s13.535 30.23 30.232 30.23 30.23-13.535 30.23-30.23" fill="#f9c34f"/><path d="M322.333 553.796c0-11.295-9.156-20.45-20.45-20.45s-20.45 9.156-20.45 20.45 9.156 20.45 20.45 20.45 20.45-9.156 20.45-20.45" fill="#0c4b84"/><path d="M311.415 553.796c0-5.266-4.268-9.533-9.533-9.533s-9.533 4.267-9.533 9.533 4.268 9.533 9.533 9.533 9.533-4.268 9.533-9.533" fill="#f9c34f"/><g clip-path="url(#G)"><path d="M339.858 546.974c2.028 11.338-1.018 23.46-9.332 32.672-14.276 15.82-38.674 17.072-54.494 2.794-7.056-6.367-11.21-14.748-12.386-23.483-1.46-10.85 1.682-22.247 9.59-31.01 14.277-15.82 38.675-17.072 54.495-2.795 6.607 5.962 10.67 13.692 12.126 21.823" fill="url(#H)"/></g><g fill="#fff"><path d="M333.434 551.5H301.66c-1.268 0-2.296 1.027-2.296 2.297s1.028 2.296 2.296 2.296h31.775c1.268 0 2.296-1.03 2.296-2.296s-1.028-2.297-2.296-2.297"/><path d="M332.3 554.305l7.336 4.428h8.924l-4.936-4.937 4.936-4.936h-8.924l-7.336 4.426z"/></g><path d="M230.774 540.964a38.32 38.32 0 0 0-20.087-9.409c-12.38-1.823-25.407 2.418-34.373 12.44-11.11 12.42-12.703 30.04-5.27 43.923a38.37 38.37 0 0 0 4.504 6.608c1.148 1.38 2.417 2.7 3.797 3.92 15.867 14.205 40.256 12.844 54.45-3.022.262-.292.524-.595.766-.897a37.34 37.34 0 0 0 4.493-6.618c.01-.02.02-.05.04-.07 8.18-15.31 5.188-34.785-8.32-46.874" fill="#0c4b84"/><g fill="#fff"><path d="M205.056 604.788c-12.917 0-23.427-15.737-23.427-35.08s10.5-35.08 23.427-35.08 23.427 15.736 23.427 35.08-10.51 35.08-23.427 35.08m0-73.646c-14.932 0-27.08 17.3-27.08 38.566s12.148 38.564 27.08 38.564 27.08-17.3 27.08-38.564-12.148-38.566-27.08-38.566"/><path d="M205.056 604.788c-3.625 0-8.89-13.666-8.89-35.08s5.266-35.08 8.89-35.08 8.89 13.666 8.89 35.08-5.266 35.08-8.89 35.08m0-73.646c-8.235 0-12.544 19.4-12.544 38.566s4.31 38.564 12.544 38.564 12.544-19.4 12.544-38.564-4.308-38.566-12.544-38.566"/><path d="M205.056 582.063a40.57 40.57 0 0 0-29.494 12.78l2.666 2.498c7.026-7.496 16.553-11.625 26.828-11.625a36.41 36.41 0 0 1 26.828 11.625l2.667-2.498c-7.613-8.122-18.364-12.78-29.495-12.78M178.295 542l-2.662 2.503c7.602 8.075 18.326 12.707 29.422 12.707s21.822-4.632 29.42-12.707l-2.66-2.503c-7.013 7.45-16.517 11.557-26.76 11.557A36.4 36.4 0 0 1 178.295 542m65.327 25.88H166.46v3.654h77.163z"/></g><path d="M239.942 588.053L210.39 533h-7.897l2.563 5.137 30.277 56.708c1.81-2.14 3.35-4.413 4.6-6.79" fill="#af70cc"/><path d="M212.7 530.014a1.05 1.05 0 0 1 .442.857v3.847c0 .583-.472 1.056-1.055 1.056h-13.75c-.583 0-1.055-.473-1.055-1.056v-3.847c0-.353.175-.666.442-.857-5.525-2.896-9.17-8.894-8.614-15.68.647-7.913 7.148-14.274 15.07-14.766a16.16 16.16 0 0 1 17.189 16.126c0 6.22-3.516 11.62-8.67 14.32m-13.308 3.65h11.64v-3.102h-11.64z" fill="#f7c24e"/><path d="M205.212 503.93l-.76.022a11.79 11.79 0 0 0-10.963 10.738c-.387 4.743 2.075 9.228 6.274 11.43l.09.046h10.718l.09-.046a11.74 11.74 0 0 0 6.315-10.427c0-3.143-1.223-6.096-3.446-8.32s-5.174-3.443-8.316-3.443z" fill="#cfa14d"/><path d="M205.613 522.222v-.37l.656.656v.333zm2.63-14.98a.44.44 0 0 0-.439.44V522.8l-.656-.656v-14.462a.44.44 0 0 0-.44-.44.44.44 0 0 0-.439.44v13.583l-.656-.656v-12.927a.44.44 0 0 0-.439-.44.44.44 0 0 0-.44.44v12.048l-1.305-1.305a.44.44 0 0 0-.622 0 .44.44 0 0 0 0 .622l1.927 1.926v.417l-3.146-2.974a.44.44 0 1 0-.605.639l3.75 3.545v.277l-4.988-4.47a.44.44 0 0 0-.621.034.44.44 0 0 0 .034.621l5.72 5.125c.13.117.314.146.473.074a.44.44 0 0 0 .26-.4v-.43l.793.75a.44.44 0 0 0 .742-.318v-.475l.784.785c.127.125.316.162.48.095a.44.44 0 0 0 .271-.405v-16.18a.44.44 0 0 0-.44-.44" fill="#fff"/><path d="M207.62 533h-7.897l-29.563 55.064c1.28 2.377 2.82 4.827 4.62 6.946l30.297-57.007z" fill="#c78ee0"/><path d="M153.854 616.044h34.392v21.13h-34.392l9.532-10.565z" fill="#359cdb"/><path d="M190.064 593.265h.043c1.19 0 2.153.964 2.153 2.152v42.494c0 1.2-.964 2.153-2.153 2.153h-.043c-1.188 0-2.152-.963-2.152-2.153v-42.494c0-1.188.964-2.152 2.152-2.152" fill="#f1f0f6"/><path d="M297.18 614.985c-2.737-4.467-9.365-9.357-9.365-2.72 4.28 10.797 7.44 16.524 9.108 30.537h8.102c-.52-10.563-3.262-20.336-7.845-27.816m-89.285 0c-4.583 7.48-7.325 17.253-7.844 27.816h7.906c1.66-13.95 4.798-19.623 9.05-30.388 0-5.842-6.44-1.784-9.11 2.572m89.723 34.76a194.82 194.82 0 0 1 .506 8.478c-3.88.014-6.98 3.233-6.82 7.1h-77.728c.156-3.875-2.943-7.092-6.82-7.103.108-2.866.28-5.696.507-8.485H196.5c-1.922 0-3.478-1.56-3.473-3.482v-.001c.04-13.14 3.22-25.537 8.958-34.904 5.113-8.344 13.124-10.485 19.053-14.955 12.893-9.722 16.964-23.777 27.62-25.594 0-24.467-8.565-37.394-15.852-45.11h37.543c-8.28 7.845-14.62 20.976-14.62 45.023 10.85 1.596 14.98 15.845 28.114 25.64 6 4.48 14.105 6.568 19.267 14.994 5.74 9.367 8.92 21.763 8.958 34.904.006 1.922-1.55 3.483-3.472 3.483z" fill="#f7c24e"/><g fill="#cfa14d"><path d="M207.9 615c-4.6 7.474-7.33 17.252-7.845 27.806h-2.936c.527-10.554 3.266-20.332 7.845-27.806 2.1-3.432 6.554-6.688 8.342-5.055-1.902.868-4.103 2.936-5.406 5.055m88.153 43.55a6.83 6.83 0 0 0-4.748 6.783h-77.728c.128-3.16-1.9-5.88-4.77-6.783z"/><path d="M297.18 614.985c-2.737-4.467-9.365-9.357-9.365-2.72 4.28 10.797 7.44 16.524 9.108 30.537h8.102c-.52-10.563-3.262-20.336-7.845-27.816m11.406 34.76H297.62a194.82 194.82 0 0 1 .506 8.478c-3.88.014-6.98 3.233-6.82 7.1h-19.732c8.677-8.294 14.173-19.87 14.173-32.625 0-25.02-21.12-45.54-45.998-45.54-3.532 0-6.984.426-10.314 1.208 6.99-8.08 11.28-16.216 19.215-17.568 7.38-33.2-2.7-45.11-2.7-45.11h24.4c-8.28 7.845-14.62 20.976-14.62 45.023 10.85 1.596 14.98 15.845 28.114 25.64 6 4.48 14.105 6.568 19.267 14.994 5.74 9.367 8.92 21.763 8.958 34.904.006 1.922-1.55 3.483-3.472 3.483"/></g><path d="M220.075 515.235v1.53c0 5.443 4.4 9.87 9.786 9.87h44.692a9.8 9.8 0 0 0 9.786-9.785v-1.572l-1.554-.043z" fill="#0c4b84"/><path d="M273.636 628.78c.21.355.334.772.338 1.212a2.39 2.39 0 0 1-.338 1.234 2.38 2.38 0 0 1-.918.887c.654.56.984 1.44.795 2.332a2.39 2.39 0 0 1-1.669 1.818c.523.682.668 1.613.294 2.452-.37.834-1.155 1.357-2.007 1.423a2.4 2.4 0 0 1-.224 2.455 2.42 2.42 0 0 1-2.257.984c.197.825-.05 1.735-.725 2.354-.685.6-1.616.773-2.42.493.027.85-.41 1.685-1.2 2.15-.786.456-1.735.417-2.464-.023a2.39 2.39 0 0 1-1.625 1.854c-.87.3-1.783.05-2.402-.535-.33.786-1.063 1.38-1.977 1.475-.91.097-1.752-.32-2.235-1.018-.018.025-.044.053-.066.078-.488.65-1.296 1.04-2.17.958a2.44 2.44 0 0 1-1.985-1.472c-.62.598-1.524.835-2.403.554-.864-.28-1.47-1-1.63-1.85a2.42 2.42 0 0 1-3.681-2.104c-.804.28-1.74.128-2.42-.474h.01c-.685-.61-.944-1.52-.742-2.354-.852.114-1.735-.224-2.275-.966s-.593-1.678-.233-2.45c-.852-.062-1.647-.58-2.016-1.414-.377-.835-.24-1.766.272-2.45-.816-.243-1.484-.9-1.677-1.8a2.41 2.41 0 0 1 .786-2.337 2.41 2.41 0 0 1-1.269-2.107c0-.023 0-.04.01-.058 0-.004-.01-.022-.01-.03 0-.914.505-1.713 1.26-2.12-.65-.554-.988-1.437-.795-2.332s.852-1.565 1.673-1.815a2.42 2.42 0 0 1-.29-2.451 2.41 2.41 0 0 1 2.017-1.423 2.4 2.4 0 0 1 .224-2.45c.54-.742 1.418-1.086 2.27-.976-.202-.835.044-1.743.73-2.354.676-.6 1.608-.768 2.412-.483a2.38 2.38 0 0 1 .461-1.449c.193-.272.43-.523.742-.703.8-.457 1.74-.417 2.468.022.154-.834.747-1.563 1.625-1.854.866-.28 1.783-.04 2.403.545.33-.786 1.067-1.375 1.976-1.47s1.753.32 2.236 1.032c.004-.013.017-.022.022-.03.448-.624 1.172-1.023 1.963-1.023.088 0 .167.01.25.013.914.097 1.656.685 1.986 1.47.62-.584 1.532-.825 2.402-.544a2.42 2.42 0 0 1 1.629 1.849c.734-.443 1.674-.49 2.47-.035.33.193.58.462.777.76.28.414.444.9.426 1.397a2.39 2.39 0 0 1 2.42.483v-.008c.676.6.936 1.528.734 2.354a2.41 2.41 0 0 1 2.266.971 2.43 2.43 0 0 1 .233 2.455c.852.06 1.638.584 2.016 1.414.368.834.233 1.774-.3 2.45.82.24 1.49.913 1.682 1.805.193.9-.145 1.787-.79 2.34a2.43 2.43 0 0 1 .927.9" fill="#c78ee0"/><path d="M269.198 630.04c0-5.35-2.536-10.115-6.465-13.166-2.818-2.19-6.357-3.496-10.193-3.496h-.004c-3.835 0-7.375 1.307-10.192 3.496-3.93 3.05-6.465 7.816-6.465 13.166 0 9.186 7.472 16.657 16.657 16.657h.004c9.186 0 16.658-7.47 16.658-16.657" fill="#fff"/><g clip-path="url(#I)"><path d="M268.94 627.09c.876 4.896-.44 10.132-4.03 14.1-6.165 6.832-16.702 7.372-23.534 1.207a16.59 16.59 0 0 1-5.349-10.141c-.63-4.686.726-9.608 4.142-13.393 6.165-6.832 16.702-7.373 23.534-1.207 2.854 2.575 4.61 5.912 5.237 9.424" fill="url(#J)"/></g><path d="M239.478 646.5s-2.212 5.498-6.45 3.737c0 0-.085-4.215 6.45-3.737m-3.273 10.563s1.293-5.784-3.2-6.736c0 0-2.457 3.425 3.2 6.736m-.902-14.62s-3.558 4.74-7.197 1.94c0 0 1-4.092 7.197-1.94m-5.893 9.36s2.746-5.254-1.348-7.334c0 0-3.257 2.672 1.348 7.334m2.913-14.36s-4.663 3.657-7.455.013c0 0 2.034-3.693 7.455-.013m-8.117 7.514s4.012-4.363.597-7.432c0 0-3.84 1.74-.597 7.432m6.53-13.113s-5.45 2.326-7.206-1.916c0 0 2.92-3.04 7.206 1.916m-9.787 5.158s5.004-3.177 2.5-7.024c0 0-4.16.683-2.5 7.024m9.705-10.976s-5.866.836-6.463-3.717c0 0 3.6-2.18 6.463 3.717m-10.787 2.45s5.656-1.772 4.235-6.137c0 0-4.194-.417-4.235 6.137m12.213-8.1s-5.885-.714-5.282-5.264c0 0 4.05-1.173 5.282 5.264m-11.054-.428s5.922-.248 5.68-4.832c0 0-3.944-1.486-5.68 4.832m13.9-4.644s-5.5-2.2-3.74-6.45c0 0 4.216-.085 3.74 6.45m-10.565-3.272s5.784 1.293 6.736-3.197c0 0-3.423-2.46-6.736 3.197m14.622-.9s-4.74-3.56-1.943-7.2c0 0 4.1 1.008 1.943 7.2m-9.36-5.897s5.255 2.746 7.333-1.345c0 0-2.67-3.26-7.333 1.345m14.347 2.915s-3.655-4.665-.012-7.457c0 0 3.7 2.03.012 7.457m-7.512-8.117s4.36 4.012 7.43.6c0 0-1.736-3.84-7.43-.6m13.112 6.532s-2.325-5.453 1.917-7.207c0 0 3.04 2.92-1.917 7.207m-5.155-9.785s3.174 5.005 7.023 2.502c0 0-.684-4.16-7.023-2.502m.43 57.72s-5.66 1.758-6.973-2.64c0 0 3.215-2.726 6.973 2.64m22.895-8s2.2 5.498 6.45 3.737c0 0 .084-4.215-6.45-3.737m3.273 10.563s-1.293-5.784 3.197-6.736c0 0 2.46 3.425-3.197 6.736m.9-14.62s3.56 4.74 7.2 1.94c0 0-1-4.092-7.2-1.94m5.887 9.36s-2.746-5.254 1.346-7.334c0 0 3.26 2.672-1.346 7.334m-2.905-14.358s4.664 3.657 7.456.013c0 0-2.037-3.693-7.456-.013m8.117 7.514s-4.012-4.363-.597-7.432c0 0 3.84 1.74.597 7.432m-6.532-13.113s5.453 2.326 7.208-1.916c0 0-2.922-3.04-7.208 1.916m9.785 5.158s-5.004-3.177-2.5-7.024c0 0 4.16.683 2.5 7.024m-9.702-10.977s5.867.836 6.464-3.717c0 0-3.608-2.18-6.464 3.717m10.787 2.45s-5.656-1.772-4.234-6.137c0 0 4.193-.417 4.234 6.137m-12.212-8.1s5.883-.714 5.28-5.264c0 0-4.048-1.173-5.28 5.264m11.062-.42s-5.922-.248-5.68-4.832c0 0 3.947-1.486 5.68 4.832m-13.9-4.654s5.5-2.2 3.74-6.45c0 0-4.216-.085-3.74 6.45m10.567-3.272s-5.786 1.293-6.736-3.197c0 0 3.424-2.46 6.736 3.197m-14.623-.9s4.737-3.56 1.94-7.2c0 0-4.1 1.008-1.94 7.2m9.358-5.897s-5.252 2.746-7.333-1.345c0 0 2.672-3.26 7.333 1.345m-14.356 2.915s3.657-4.665.014-7.457c0 0-3.692 2.03-.014 7.457m7.514-8.117s-4.363 4.012-7.432.6c0 0 1.737-3.84 7.432-.6m-13.112 6.532s2.323-5.453-1.917-7.207c0 0-3.04 2.92 1.917 7.207m5.156-9.785s-3.176 5.005-7.023 2.502c0 0 .684-4.16 7.023-2.502m-.434 57.72s5.66 1.758 6.973-2.64c0 0-3.215-2.726-6.973 2.64" fill="#cfa14d"/><path d="M238.408 647.57s-2.212 5.498-6.45 3.737c0 0-.085-4.215 6.45-3.737m-3.274 10.564s1.293-5.784-3.2-6.736c0 0-2.457 3.425 3.2 6.736m-.9-14.62s-3.558 4.74-7.198 1.94c0 0 1-4.092 7.198-1.94m-5.895 9.36s2.746-5.254-1.348-7.334c0 0-3.257 2.672 1.348 7.334m2.913-14.36s-4.663 3.657-7.455.013c0 0 2.034-3.693 7.455-.013m-8.116 7.513s4.012-4.363.597-7.432c0 0-3.84 1.738-.597 7.432m6.53-13.113s-5.45 2.326-7.206-1.916c0 0 2.92-3.04 7.206 1.916m-9.787 5.158s5.004-3.177 2.5-7.024c0 0-4.16.683-2.5 7.024m9.704-10.975s-5.866.836-6.463-3.717c0 0 3.6-2.18 6.463 3.717m-10.787 2.45s5.656-1.772 4.235-6.137c0 0-4.194-.417-4.235 6.137m12.204-8.1s-5.885-.714-5.282-5.264c0 0 4.05-1.173 5.282 5.264m-11.054-.428s5.922-.248 5.68-4.832c0 0-3.944-1.486-5.68 4.832m13.9-4.655s-5.5-2.2-3.74-6.45c0 0 4.216-.085 3.74 6.45m-10.567-3.272s5.784 1.293 6.736-3.197c0 0-3.424-2.46-6.736 3.197m14.623-.9s-4.74-3.56-1.943-7.2c0 0 4.1 1.008 1.943 7.2m-9.36-5.896s5.255 2.746 7.333-1.345c0 0-2.67-3.26-7.333 1.345m14.358 2.926s-3.655-4.665-.012-7.457c0 0 3.7 2.03.012 7.457m-7.512-8.118s4.36 4.012 7.43.6c0 0-1.736-3.84-7.43-.6m13.112 6.532s-2.325-5.453 1.917-7.207c0 0 3.04 2.92-1.917 7.207m-5.156-9.786s3.174 5.005 7.023 2.502c0 0-.685-4.16-7.023-2.502m.43 57.72s-5.66 1.758-6.973-2.64c0 0 3.215-2.726 6.973 2.64m22.896-8s2.2 5.498 6.45 3.737c0 0 .084-4.215-6.45-3.737m3.273 10.564s-1.293-5.784 3.197-6.736c0 0 2.46 3.425-3.197 6.736m.9-14.62s3.558 4.74 7.2 1.94c0 0-1-4.092-7.2-1.94m5.897 9.358s-2.746-5.254 1.346-7.334c0 0 3.26 2.672-1.346 7.334m-2.915-14.357s4.664 3.657 7.456.013c0 0-2.037-3.693-7.456-.013m8.115 7.513s-4.012-4.363-.597-7.432c0 0 3.84 1.738.597 7.432m-6.53-13.113s5.453 2.326 7.208-1.916c0 0-2.922-3.04-7.208 1.916m9.785 5.158s-5.004-3.177-2.5-7.024c0 0 4.16.683 2.5 7.024m-9.702-10.976s5.867.836 6.464-3.717c0 0-3.608-2.18-6.464 3.717m10.787 2.45s-5.656-1.772-4.234-6.137c0 0 4.193-.417 4.234 6.137m-12.213-8.1s5.883-.714 5.28-5.264c0 0-4.048-1.173-5.28 5.264m11.053-.42s-5.92-.248-5.68-4.832c0 0 3.947-1.486 5.68 4.832m-13.892-4.654s5.5-2.2 3.74-6.45c0 0-4.216-.085-3.74 6.45m10.568-3.272s-5.786 1.293-6.736-3.197c0 0 3.424-2.46 6.736 3.197m-14.622-.9s4.737-3.56 1.94-7.2c0 0-4.092 1.008-1.94 7.2m9.356-5.896s-5.252 2.746-7.333-1.345c0 0 2.672-3.26 7.333 1.345m-14.355 2.916s3.657-4.665.014-7.457c0 0-3.692 2.03-.014 7.457m7.525-8.118s-4.363 4.012-7.432.6c0 0 1.737-3.84 7.432-.6m-13.112 6.532s2.323-5.453-1.917-7.207c0 0-3.04 2.92 1.917 7.207m5.146-9.786s-3.176 5.005-7.023 2.502c0 0 .684-4.16 7.023-2.502m-.434 57.72s5.66 1.758 6.973-2.64c0 0-3.215-2.726-6.973 2.64" fill="#0c4b84"/><path d="M252.54 643.185l3.853-7.808 8.617-1.252-6.236-6.077 1.473-8.582-7.707 4.052-7.707-4.052 1.472 8.582-6.236 6.077 8.617 1.252z" fill="#f7c24e"/><path d="M332.078 528.54h-6.093v5.54h6.093zm3.246-8.918c0 1.258-.86 2.27-1.92 2.27h-1.326v4.8h-6.092v-4.8h-1.258c-1.06 0-1.92-1.015-1.92-2.273z" fill="#f9c34f"/><g fill="#359cdb"><path d="M323.742 527.618a.93.93 0 0 1 .923-.924h8.836a.93.93 0 0 1 .923.924.92.92 0 0 1-.923.922h-8.836a.92.92 0 0 1-.923-.922m-2.297-9.232c0-.714.58-1.293 1.292-1.293h12.6c.715 0 1.293.58 1.293 1.293s-.578 1.293-1.293 1.293h-12.6c-.713 0-1.292-.58-1.292-1.293"/><path d="M318.962 516.038c0-.584.473-1.056 1.056-1.056h18.05c.583 0 1.056.472 1.056 1.056s-.473 1.055-1.056 1.055h-18.05c-.583 0-1.056-.473-1.056-1.055m15.018 24.69h-3.288c.248.428.38.854.33 1.342-.078.78-.63 1.464-1.386 1.673-1.285.356-2.442-.657-2.442-1.886 0-.405.127-.76.34-1.13h-3.415c0-2.217 1.34-4.063 3.217-4.617H326c-.562 0-1.016-.454-1.016-1.016s.454-1.014 1.016-1.014h6.105c.56 0 1.015.454 1.015 1.014s-.454 1.016-1.015 1.016h-1.34c1.878.554 3.216 2.4 3.216 4.617"/></g><path d="M353.826 535.622h-9.276v8.433h9.276zm4.94-13.576c0 1.914-1.3 3.458-2.922 3.458h-2.018v7.308h-9.276v-7.308h-1.913c-1.614 0-2.923-1.548-2.923-3.462z" fill="#f9c34f"/><g fill="#c78ee0"><path d="M341.135 534.218c0-.777.63-1.406 1.405-1.406H356c.777 0 1.406.63 1.406 1.406s-.63 1.404-1.406 1.404h-13.45c-.776 0-1.405-.63-1.405-1.404m-3.505-14.055a1.97 1.97 0 0 1 1.967-1.967h19.2a1.97 1.97 0 0 1 1.967 1.967 1.97 1.97 0 0 1-1.967 1.968h-19.2a1.97 1.97 0 0 1-1.967-1.968"/><path d="M333.86 516.6c0-.887.72-1.606 1.607-1.606h27.48a1.61 1.61 0 0 1 1.607 1.606 1.61 1.61 0 0 1-1.607 1.607h-27.48a1.61 1.61 0 0 1-1.607-1.607m22.86 37.583h-5.006c.38.653.578 1.303.504 2.043-.12 1.187-.962 2.23-2.1 2.55-1.956.54-3.717-1-3.717-2.872 0-.616.193-1.157.52-1.72h-5.2c0-3.372 2.04-6.184 4.897-7.026h-2.035c-.854 0-1.546-.693-1.546-1.546s.692-1.546 1.546-1.546h9.294c.853 0 1.545.692 1.545 1.546s-.692 1.546-1.545 1.546h-2.042c2.858.842 4.896 3.654 4.896 7.026"/></g><path d="M372.403 528.54H366.3v5.54h6.093zm3.245-8.918c0 1.258-.86 2.27-1.92 2.27h-1.326v4.8H366.3v-4.8h-1.257c-1.06 0-1.92-1.015-1.92-2.273z" fill="#f9c34f"/><g fill="#0c4b84"><path d="M364.067 527.618a.93.93 0 0 1 .923-.924h8.835a.93.93 0 0 1 .924.924c0 .5-.414.922-.924.922H365a.92.92 0 0 1-.923-.922m-2.307-9.232c0-.714.58-1.293 1.292-1.293h12.612c.714 0 1.292.58 1.292 1.293s-.578 1.293-1.292 1.293h-12.612c-.713 0-1.292-.58-1.292-1.293"/><path d="M359.287 516.038c0-.584.473-1.056 1.055-1.056h18.052c.583 0 1.055.472 1.055 1.056s-.472 1.055-1.055 1.055h-18.052c-.582 0-1.055-.473-1.055-1.055m15.018 24.69h-3.288c.248.428.38.854.33 1.342-.077.78-.63 1.464-1.386 1.673-1.285.356-2.442-.657-2.442-1.886 0-.405.127-.76.34-1.13h-3.415c0-2.217 1.34-4.063 3.217-4.617h-1.337c-.56 0-1.016-.454-1.016-1.016s.455-1.014 1.016-1.014h6.105c.56 0 1.015.454 1.015 1.014s-.454 1.016-1.015 1.016h-1.34c1.878.554 3.216 2.4 3.216 4.617"/></g></g></g></svg>