<?xml version="1.0" encoding="utf-8"?>
<!-- Generator: Adobe Illustrator 18.0.0, SVG Export Plug-In . SVG Version: 6.00 Build 0)  -->
<!DOCTYPE svg PUBLIC "-//W3C//DTD SVG 1.1//EN" "http://www.w3.org/Graphics/SVG/1.1/DTD/svg11.dtd">
<svg version="1.1" id="Layer_1" xmlns="http://www.w3.org/2000/svg" xmlns:xlink="http://www.w3.org/1999/xlink" x="0px" y="0px"
	 viewBox="0 0 129.5 129.5" enable-background="new 0 0 129.5 129.5" xml:space="preserve">
<g>
	<g>
		<g>
			<g>
				<path fill="#231F20" d="M126.9,3.7c-0.2,0-0.4-0.1-0.5-0.2c-0.3-0.3-0.3-0.8,0-1.1l1.3-1.3c0.3-0.3,0.8-0.3,1.1,0
					c0.3,0.3,0.3,0.8,0,1.1l-1.3,1.3C127.3,3.6,127.1,3.7,126.9,3.7z"/>
			</g>
			<g>
				<path fill="#231F20" d="M122.8,7.8c-0.2,0-0.4-0.1-0.5-0.2c-0.3-0.3-0.3-0.8,0-1.1l1.3-1.3c0.3-0.3,0.8-0.3,1.1,0
					c0.3,0.3,0.3,0.8,0,1.1l-1.3,1.3C123.2,7.7,123,7.8,122.8,7.8z"/>
			</g>
			<g>
				<path fill="#231F20" d="M128.2,7.8c-0.2,0-0.4-0.1-0.5-0.2l-1.3-1.3c-0.3-0.3-0.3-0.8,0-1.1c0.3-0.3,0.8-0.3,1.1,0l1.3,1.3
					c0.3,0.3,0.3,0.8,0,1.1C128.6,7.7,128.4,7.8,128.2,7.8z"/>
			</g>
			<g>
				<path fill="#231F20" d="M124.1,3.7c-0.2,0-0.4-0.1-0.5-0.2l-1.3-1.3c-0.3-0.3-0.3-0.8,0-1.1c0.3-0.3,0.8-0.3,1.1,0l1.3,1.3
					c0.3,0.3,0.3,0.8,0,1.1C124.5,3.6,124.3,3.7,124.1,3.7z"/>
			</g>
		</g>
		<g>
			<g>
				<path fill="#231F20" d="M10.7,46.4c-0.2,0-0.4-0.1-0.5-0.2c-0.3-0.3-0.3-0.8,0-1.1l1.3-1.3c0.3-0.3,0.8-0.3,1.1,0
					c0.3,0.3,0.3,0.8,0,1.1l-1.3,1.3C11.1,46.4,10.9,46.4,10.7,46.4z"/>
			</g>
			<g>
				<path fill="#231F20" d="M6.6,50.6c-0.2,0-0.4-0.1-0.5-0.2c-0.3-0.3-0.3-0.8,0-1.1L7.4,48c0.3-0.3,0.8-0.3,1.1,0
					c0.3,0.3,0.3,0.8,0,1.1l-1.3,1.3C7,50.5,6.8,50.6,6.6,50.6z"/>
			</g>
			<g>
				<path fill="#231F20" d="M12,50.6c-0.2,0-0.4-0.1-0.5-0.2L10.2,49c-0.3-0.3-0.3-0.8,0-1.1c0.3-0.3,0.8-0.3,1.1,0l1.3,1.3
					c0.3,0.3,0.3,0.8,0,1.1C12.4,50.5,12.2,50.6,12,50.6z"/>
			</g>
			<g>
				<path fill="#231F20" d="M7.9,46.4c-0.2,0-0.4-0.1-0.5-0.2L6,44.9c-0.3-0.3-0.3-0.8,0-1.1c0.3-0.3,0.8-0.3,1.1,0l1.3,1.3
					c0.3,0.3,0.3,0.8,0,1.1C8.3,46.4,8.1,46.4,7.9,46.4z"/>
			</g>
		</g>
		<g>
			<g>
				<path fill="#231F20" d="M107.6,71.7c-0.2,0-0.4-0.1-0.5-0.2c-0.3-0.3-0.3-0.8,0-1.1l1.3-1.3c0.3-0.3,0.8-0.3,1.1,0
					c0.3,0.3,0.3,0.8,0,1.1l-1.3,1.3C108,71.6,107.8,71.7,107.6,71.7z"/>
			</g>
			<g>
				<path fill="#231F20" d="M103.5,75.9c-0.2,0-0.4-0.1-0.5-0.2c-0.3-0.3-0.3-0.8,0-1.1l1.3-1.3c0.3-0.3,0.8-0.3,1.1,0
					c0.3,0.3,0.3,0.8,0,1.1l-1.3,1.3C103.9,75.8,103.7,75.9,103.5,75.9z"/>
			</g>
			<g>
				<path fill="#231F20" d="M109,75.9c-0.2,0-0.4-0.1-0.5-0.2l-1.3-1.3c-0.3-0.3-0.3-0.8,0-1.1c0.3-0.3,0.8-0.3,1.1,0l1.3,1.3
					c0.3,0.3,0.3,0.8,0,1.1C109.3,75.8,109.1,75.9,109,75.9z"/>
			</g>
			<g>
				<path fill="#231F20" d="M104.8,71.7c-0.2,0-0.4-0.1-0.5-0.2l-1.3-1.3c-0.3-0.3-0.3-0.8,0-1.1c0.3-0.3,0.8-0.3,1.1,0l1.3,1.3
					c0.3,0.3,0.3,0.8,0,1.1C105.2,71.6,105,71.7,104.8,71.7z"/>
			</g>
		</g>
		<g>
			<path fill="#84DBFF" d="M67.2,60.3c-0.1,0.1-0.2,0.2-0.3,0.3c-1.1,1.1-1.7,2.5-1.6,4c0,1.8,0.9,3.5,2.4,4.6
				c2,1.4,4.7,1.3,6.7-0.1c0.3-0.2,0.6-0.5,0.8-0.8l4.1,4.1L63.1,88.7L46.9,72.4l5.7-5.7c0.9-0.9,0.5-2.4-0.7-2.7l0,0
				c-0.7-0.2-1.3-0.6-1.6-1.3c-0.3-0.7-0.3-1.5,0.1-2.1c0.8-1.5,2.7-1.6,3.8-0.5c0.3,0.3,0.5,0.7,0.6,1.1l0,0
				c0.3,1.2,1.8,1.6,2.7,0.7l5.7-5.7L67.2,60.3z"/>
		</g>
		<g>
			<path fill="#FF7058" d="M48.8,41.8c-0.1,0.1-0.2,0.2-0.3,0.3c-1.1,1.1-1.7,2.5-1.6,4c0,1.8,0.9,3.5,2.4,4.6
				c2,1.4,4.7,1.3,6.7-0.1c0.3-0.2,0.6-0.5,0.8-0.8l4.1,4.1l-4.1,4.1c-0.1-0.1-0.2-0.2-0.3-0.3c-1.1-1.1-2.5-1.7-4-1.6
				c-1.5,0-2.9,0.6-4,1.6c-1.1,1.1-1.6,2.5-1.6,4c0,1.5,0.6,2.9,1.6,4c0.1,0.1,0.2,0.2,0.3,0.3l-4.1,4.1L28.4,53.9l5.7-5.7
				c0.9-0.9,0.5-2.4-0.7-2.7l0,0c-0.7-0.2-1.3-0.7-1.6-1.4c-0.3-0.7-0.3-1.5,0.1-2.1c0.8-1.4,2.7-1.6,3.8-0.5
				c0.3,0.3,0.5,0.7,0.6,1.1l0,0c0.3,1.2,1.8,1.6,2.7,0.7l5.7-5.7L48.8,41.8z"/>
		</g>
		<g>
			<path fill="#FFD05B" d="M85.8,41.7c-0.1,0.1-0.2,0.2-0.3,0.3c-1.1,1.1-1.7,2.5-1.6,4c0,1.5,0.6,2.8,1.6,3.9
				c0.8,0.8,1.8,1.3,2.9,1.4c2.9,0.4,4.4-0.4,5.5-1.6l4.1,4.1L81.7,70.1L76,64.4c-0.9-0.9-2.4-0.5-2.7,0.7l0,0
				c-0.2,0.8-0.7,1.3-1.4,1.6c-0.7,0.3-1.5,0.2-2.1-0.1c-1.4-0.8-1.6-2.7-0.5-3.8c0.3-0.3,0.7-0.5,1.1-0.6l0,0
				c1.2-0.3,1.6-1.8,0.7-2.7l-5.7-5.7l5.7-5.7c0.9-0.9,0.5-2.4-0.7-2.7l0,0c-0.7-0.2-1.3-0.7-1.6-1.4c-0.3-0.7-0.3-1.5,0.1-2.1
				c0.8-1.4,2.7-1.6,3.8-0.5c0.3,0.3,0.5,0.7,0.6,1.1v0c0.3,1.2,1.8,1.6,2.7,0.7l5.7-5.7L85.8,41.7z"/>
		</g>
		<g>
			<path fill="#231F20" d="M49.9,36c-0.2,0-0.4-0.1-0.5-0.2c-0.1-0.1-0.2-0.3-0.2-0.5l0-8.5c-0.4,0.1-0.8,0.2-1.3,0.2
				c-2.6,0-4.8-2.1-4.8-4.8c0-2.6,2.1-4.8,4.8-4.8c0.4,0,0.9,0.1,1.3,0.2l0-8.5c0-0.4,0.3-0.8,0.8-0.8l8.5,0
				c-0.1-0.4-0.2-0.8-0.2-1.3c0-1.3,0.5-2.5,1.4-3.4c0.9-0.9,2.1-1.4,3.4-1.4c2.6,0,4.8,2.1,4.8,4.8c0,0.4-0.1,0.9-0.2,1.3l8.5,0
				c0,0,0,0,0,0c0.4,0,0.8,0.3,0.8,0.8l0,9.4c0,0.1,0,0.1,0,0.2c0,0.4-0.3,0.8-0.8,0.8c0,0,0,0,0,0c-0.1,0-0.3,0-0.4-0.1
				c-0.5-0.3-1-0.4-1.6-0.4c-0.9,0-1.7,0.3-2.3,1c-0.6,0.6-1,1.4-1,2.3c0,1.8,1.5,3.3,3.3,3.3c0.6,0,1.2-0.2,1.6-0.4
				c0.2-0.1,0.5-0.1,0.8,0c0.2,0.1,0.4,0.4,0.4,0.7l0,9.6c0,0.2-0.1,0.4-0.2,0.5c-0.1,0.1-0.3,0.2-0.5,0.2l-9.6,0c0,0,0,0,0,0
				c-0.3,0-0.5-0.1-0.7-0.4c-0.1-0.2-0.1-0.5,0-0.8c0.3-0.5,0.4-1.1,0.4-1.6c0-0.9-0.3-1.7-1-2.3c-0.6-0.6-1.4-1-2.3-1
				c-0.9,0-1.7,0.3-2.3,1c-0.6,0.6-1,1.4-1,2.3c0,0.6,0.2,1.1,0.4,1.6c0.1,0.2,0.1,0.5,0,0.8c-0.1,0.2-0.4,0.4-0.7,0.4L49.9,36
				C49.9,36,49.9,36,49.9,36z M49.9,24.8c0.1,0,0.3,0,0.4,0.1c0.2,0.1,0.4,0.4,0.4,0.7l0,8.9l7.7,0c-0.1-0.4-0.2-0.8-0.2-1.3
				c0-1.3,0.5-2.5,1.4-3.4c0.9-0.9,2.1-1.4,3.4-1.4c1.3,0,2.5,0.5,3.4,1.4c0.9,0.9,1.4,2.1,1.4,3.4c0,0.4-0.1,0.9-0.2,1.3l7.7,0
				l0-7.7c-0.4,0.1-0.8,0.2-1.3,0.2c-2.6,0-4.8-2.1-4.8-4.8c0-1.3,0.5-2.5,1.4-3.4c0.9-0.9,2.1-1.4,3.4-1.4c0.4,0,0.9,0.1,1.3,0.2
				l0-7.7l-8.9,0c0,0,0,0,0,0c-0.3,0-0.5-0.1-0.7-0.4c-0.1-0.2-0.1-0.5,0-0.8C66,8,66.2,7.5,66.2,6.9c0-1.8-1.5-3.3-3.3-3.3
				c-0.9,0-1.7,0.3-2.3,1c-0.6,0.6-1,1.4-0.9,2.3c0,0.6,0.2,1.1,0.5,1.6c0.1,0.2,0.1,0.5,0,0.8c-0.1,0.2-0.4,0.4-0.7,0.4l-8.9,0
				l0,8.9c0,0.3-0.1,0.5-0.4,0.7c-0.2,0.1-0.5,0.1-0.8,0c-0.5-0.3-1.1-0.5-1.6-0.5c-1.8,0-3.3,1.5-3.3,3.3c0,1.8,1.5,3.3,3.3,3.3
				c0.6,0,1.1-0.2,1.6-0.5C49.6,24.8,49.8,24.8,49.9,24.8z"/>
		</g>
		<g>
			<path fill="#E6E9EE" d="M74.4,16.4c-0.1,0-0.3,0-0.4,0c-1.5,0-2.9,0.6-4,1.7c-1,1-1.6,2.4-1.6,3.8c0,1.1,0.4,2.2,1,3
				c1.8,2.4,3.5,2.8,5,2.7l0,5.8l-5.8,0c0-0.1,0-0.3,0-0.4c0-1.5-0.6-2.9-1.7-4c-1.1-1.1-2.5-1.6-4-1.6c-1.5,0-2.9,0.6-4,1.7
				c-1.1,1.1-1.6,2.5-1.6,4c0,0.1,0,0.3,0,0.4l-5.8,0l0-8c0-1.3-1.4-2-2.5-1.4l0,0c-0.7,0.4-1.4,0.5-2.1,0.2
				c-0.7-0.3-1.2-0.8-1.4-1.6c-0.4-1.6,0.8-3,2.3-3.1c0.4,0,0.8,0.1,1.2,0.3l0,0c1.1,0.6,2.4-0.2,2.4-1.4l0-8l8,0
				c1.3,0,2-1.4,1.4-2.5l0,0c-0.4-0.7-0.5-1.4-0.2-2.1c0.3-0.7,0.9-1.2,1.6-1.4c1.6-0.4,3,0.8,3,2.3c0,0.4-0.1,0.8-0.3,1.2l0,0
				c-0.6,1.1,0.2,2.4,1.4,2.4l8,0L74.4,16.4z"/>
		</g>
		<g>
			<g>
				<path fill="#FFFFFF" d="M23.9,3l-3.3-1.5l-0.1,0.2c-0.7,1.3-2.1,2-3.6,1.9c-0.3,0-0.6,0-0.9,0c-1.5,0-2.8-0.8-3.5-2.1l-0.1-0.2
					L9,2.6L9,2.8c0.4,1.4-0.1,2.9-1.2,3.9C7.6,6.9,7.4,7.1,7.2,7.3c-1,1-2.5,1.5-3.9,1L3,8.2l-1.5,3.3l0.2,0.1
					c1.3,0.7,2,2.1,1.9,3.6c0,0.3,0,0.6,0,0.9c0,1.5-0.8,2.8-2.1,3.5l-0.2,0.1l1.3,3.4l0.2-0.1c1.4-0.4,2.9,0.1,3.9,1.2
					c0.2,0.2,0.4,0.4,0.6,0.6c1,1,1.5,2.5,1,3.9l-0.1,0.2l3.3,1.5l0.1-0.2c0.7-1.3,2.1-2,3.6-1.9c0.3,0,0.6,0,0.9,0
					c1.5,0,2.8,0.8,3.5,2.1l0.1,0.2l3.4-1.3l-0.1-0.2c-0.4-1.4,0.1-2.9,1.2-3.9c0.2-0.2,0.4-0.4,0.6-0.6c1-1,2.5-1.5,3.9-1l0.2,0.1
					l1.5-3.3l-0.2-0.1c-1.3-0.7-2-2.1-1.9-3.6c0-0.3,0-0.6,0-0.9c0-1.5,0.8-2.8,2.1-3.5l0.2-0.1L29.5,9L29.3,9
					c-1.4,0.4-2.9-0.1-3.9-1.2c-0.2-0.2-0.4-0.4-0.6-0.6c-1-1-1.5-2.5-1-3.9L23.9,3z"/>
				<path fill="#231F20" d="M19.7,31.6c-0.3,0-0.5-0.2-0.7-0.4L18.9,31c-0.5-1-1.6-1.7-2.8-1.7c-0.3,0-0.6,0-0.9,0
					c-1.2-0.1-2.3,0.5-2.9,1.5L12.2,31c-0.2,0.3-0.6,0.5-1,0.3l-3.3-1.5c-0.4-0.2-0.5-0.6-0.4-0.9l0.1-0.2c0.4-1.1,0.1-2.3-0.8-3.2
					c-0.2-0.2-0.4-0.4-0.6-0.7c-0.8-0.9-2-1.3-3.1-1l-0.2,0.1C2.4,24,2,23.8,1.9,23.4L0.6,20c-0.1-0.4,0-0.8,0.4-0.9L1.1,19
					c1-0.5,1.7-1.6,1.7-2.8c0-0.3,0-0.6,0-0.9c0.1-1.2-0.5-2.3-1.5-2.9l-0.2-0.1c-0.3-0.2-0.5-0.6-0.3-1l1.5-3.3
					c0.2-0.4,0.6-0.5,0.9-0.4l0.2,0.1c1.1,0.4,2.3,0,3.2-0.8c0.2-0.2,0.4-0.4,0.7-0.6c0.9-0.8,1.3-2,1-3.1L8.2,2.8
					C8.1,2.4,8.3,2,8.7,1.9l3.4-1.3c0.4-0.1,0.8,0,0.9,0.4l0.1,0.2c0.5,1,1.6,1.7,2.8,1.7c0.4,0,0.6,0,0.9,0
					c1.2,0.1,2.3-0.5,2.9-1.5l0.1-0.2c0.2-0.3,0.6-0.5,1-0.3l3.3,1.5c0.4,0.2,0.5,0.6,0.4,0.9l-0.1,0.2c-0.4,1.1-0.1,2.3,0.8,3.2
					c0.2,0.2,0.4,0.4,0.6,0.7c0.8,0.9,2,1.3,3.1,1l0.2-0.1c0.4-0.1,0.8,0.1,0.9,0.5l1.3,3.4c0.1,0.4,0,0.8-0.4,0.9l-0.2,0.1
					c-1,0.5-1.7,1.6-1.7,2.8c0,0.3,0,0.6,0,0.9c-0.1,1.2,0.5,2.3,1.5,2.9l0.2,0.1c0.3,0.2,0.5,0.6,0.3,1l-1.5,3.3
					c-0.2,0.4-0.6,0.5-0.9,0.4l-0.2-0.1c-1.1-0.4-2.3,0-3.2,0.8c-0.2,0.2-0.4,0.4-0.7,0.6c-0.9,0.8-1.3,2-1,3.1l0.1,0.2
					c0.1,0.4-0.1,0.8-0.5,0.9L20,31.5C19.9,31.6,19.8,31.6,19.7,31.6z M15,27.8c0.1,0,0.2,0,0.3,0c0.3,0,0.5,0,0.8,0
					c1.7,0,3.2,0.8,4,2.1l2.2-0.8c-0.3-1.5,0.3-3.1,1.6-4.2c0.2-0.2,0.4-0.4,0.6-0.6c1.1-1.1,2.8-1.6,4.3-1.3l1-2.1
					c-1.3-0.9-2-2.4-1.9-4.1c0-0.3,0-0.5,0-0.8c0-1.7,0.8-3.1,2.1-4L29,9.9c-1.5,0.3-3.1-0.3-4.2-1.5c-0.2-0.2-0.4-0.4-0.6-0.6
					C23.1,6.6,22.6,5,23,3.5l-2.1-1c-0.9,1.3-2.4,2-4.1,1.9c-0.3,0-0.5,0-0.8,0c0,0,0,0,0,0c-1.7,0-3.2-0.8-4-2.1L9.8,3.1
					c0.3,1.5-0.3,3.1-1.6,4.2C8.1,7.5,7.9,7.6,7.7,7.8C6.6,9,4.9,9.5,3.4,9.1l-1,2.1c1.3,0.9,2,2.4,1.9,4.1c0,0.3,0,0.5,0,0.8
					c0,1.6-0.8,3.1-2.1,4L3,22.3c1.5-0.3,3.1,0.3,4.2,1.5c0.2,0.2,0.4,0.4,0.6,0.6c1.2,1.2,1.6,2.8,1.3,4.3l2.1,1
					C12.1,28.5,13.5,27.8,15,27.8z"/>
			</g>
			<g>
				<path fill="#231F20" d="M16.7,26.3l-0.1-1.5c0.3,0,0.6-0.1,0.9-0.1l0.3,1.5C17.4,26.2,17.1,26.2,16.7,26.3z M14.5,26.2
					c-0.4-0.1-0.7-0.1-1.1-0.2l0.4-1.5c0.3,0.1,0.6,0.1,0.9,0.2L14.5,26.2z M19.9,25.6l-0.6-1.4c0.3-0.1,0.6-0.2,0.8-0.4l0.7,1.3
					C20.5,25.3,20.2,25.4,19.9,25.6z M11.4,25.2c-0.3-0.2-0.6-0.3-0.9-0.5l0.8-1.3c0.3,0.2,0.5,0.3,0.8,0.5L11.4,25.2z M22.6,23.9
					l-1-1.2c0.2-0.2,0.5-0.4,0.7-0.6l1.1,1C23.2,23.4,22.9,23.7,22.6,23.9z M8.8,23.3c-0.3-0.3-0.5-0.5-0.7-0.8l1.2-0.9
					c0.2,0.2,0.4,0.5,0.6,0.7L8.8,23.3z M24.8,21.4l-1.3-0.8c0.2-0.3,0.3-0.5,0.4-0.8l1.4,0.6C25.1,20.8,24.9,21.1,24.8,21.4z
					 M6.9,20.7c-0.2-0.3-0.3-0.7-0.4-1l1.4-0.5C8,19.4,8.1,19.7,8.3,20L6.9,20.7z M26,18.4l-1.5-0.3c0.1-0.3,0.1-0.6,0.2-0.9
					l1.5,0.2C26.1,17.7,26.1,18.1,26,18.4z M5.9,17.6c-0.1-0.4-0.1-0.7-0.1-1.1l1.5-0.1c0,0.3,0,0.6,0.1,0.9L5.9,17.6z M24.7,15.3
					c0-0.3-0.1-0.6-0.1-0.9l1.5-0.3c0.1,0.4,0.1,0.7,0.2,1.1L24.7,15.3z M7.5,14.6L6,14.3C6,14,6.1,13.6,6.2,13.3l1.4,0.4
					C7.6,14,7.5,14.3,7.5,14.6z M24,12.6c-0.1-0.3-0.3-0.6-0.4-0.8l1.3-0.7c0.2,0.3,0.3,0.6,0.5,1L24,12.6z M8.4,12L7,11.3
					c0.2-0.3,0.4-0.6,0.6-0.9l1.2,0.8C8.7,11.4,8.5,11.7,8.4,12z M22.6,10.3c-0.2-0.2-0.4-0.5-0.6-0.7l1-1.1
					c0.3,0.2,0.5,0.5,0.8,0.8L22.6,10.3z M10,9.8L9,8.7C9.3,8.4,9.5,8.2,9.8,8l0.9,1.2C10.5,9.4,10.3,9.6,10,9.8z M20.4,8.5
					c-0.3-0.2-0.5-0.3-0.8-0.4l0.6-1.4c0.3,0.1,0.7,0.3,1,0.5L20.4,8.5z M12.3,8.2l-0.6-1.4c0.3-0.2,0.7-0.3,1-0.4l0.5,1.4
					C12.9,8,12.6,8.1,12.3,8.2z M18.6,7.8c-0.3-0.1-0.6-0.2-0.9-0.2L18,6c0.4,0.1,0.7,0.2,1.1,0.3L18.6,7.8z M15,7.4l-0.2-1.5
					c0.4,0,0.7-0.1,1.1-0.1l0,1.5C15.6,7.4,15.3,7.4,15,7.4z"/>
			</g>
			<g>
				<circle fill="#FFD05B" cx="16" cy="16.1" r="7.5"/>
			</g>
			<g>
				<circle fill="#FFFFFF" cx="16" cy="16.1" r="3.8"/>
				<path fill="#231F20" d="M16,20.6c-0.6,0-1.3-0.1-1.8-0.4c-1.1-0.5-1.9-1.4-2.4-2.5c-0.4-1.1-0.4-2.4,0.1-3.5
					c0.7-1.6,2.3-2.7,4.1-2.7c0.6,0,1.3,0.1,1.8,0.4c1.1,0.5,1.9,1.4,2.4,2.5c0.4,1.1,0.4,2.4-0.1,3.5C19.4,19.5,17.8,20.6,16,20.6z
					 M16,13.1c-1.2,0-2.3,0.7-2.7,1.8c-0.3,0.7-0.4,1.5-0.1,2.3c0.3,0.7,0.8,1.3,1.6,1.7c0.4,0.2,0.8,0.3,1.2,0.3
					c1.2,0,2.3-0.7,2.7-1.8c0.3-0.7,0.4-1.5,0.1-2.3c-0.3-0.7-0.8-1.3-1.6-1.7C16.9,13.2,16.5,13.1,16,13.1z"/>
			</g>
		</g>
		<g>
			<circle fill="#FF7058" cx="83.4" cy="2.3" r="2.3"/>
		</g>
		<rect x="35.6" y="79.7" fill="#FFFFFF" width="55.1" height="6.4"/>
		<polygon fill="#FFFFFF" points="83.3,86 43.1,86 39.1,128.7 87.2,128.7 		"/>
		<polygon fill="#E6E9EE" points="85.1,106.5 84.1,95.1 42.2,95.1 41.2,106.5 		"/>
		<g>
			<polygon fill="#4CDBC4" points="109,20.3 112.4,27.3 120,28.4 114.5,33.7 115.8,41.3 109,37.8 102.1,41.3 103.4,33.7 97.9,28.4 
				105.5,27.3 			"/>
		</g>
		<g>
			<polygon fill="#FFD05B" points="90.7,12.8 93,17.3 98,18 94.3,21.6 95.2,26.6 90.7,24.2 86.2,26.6 87.1,21.6 83.4,18 88.5,17.3 
							"/>
		</g>
		<g>
			<polygon fill="#FFD05B" points="106.3,3.9 108.1,7.7 112.3,8.3 109.3,11.3 110,15.5 106.3,13.5 102.5,15.5 103.2,11.3 100.2,8.3 
				104.4,7.7 			"/>
		</g>
		<path fill="#FFFFFF" d="M11.5,122.1h3.1v-7.3h-3.1c-2,0-3.5,1.6-3.5,3.5v0.2C8,120.5,9.6,122.1,11.5,122.1z"/>
		<rect x="14.7" y="114.8" fill="#FFFFFF" width="43.4" height="7.3"/>
		<polygon fill="#FFFFFF" points="58,114.8 66.1,118.4 58,122.1 		"/>
		<path fill="#231F20" d="M100.7,53.3l-6.8-6.8c-0.2-0.2-0.5-0.3-0.7-0.2c-0.3,0.1-0.5,0.3-0.5,0.5c-0.1,0.6-0.4,1.1-0.8,1.5
			c-1.2,1.2-3.4,1.2-4.6,0c-0.6-0.6-1-1.4-1-2.3c0-0.9,0.3-1.7,1-2.3c0.4-0.4,0.9-0.7,1.5-0.8c0.3-0.1,0.5-0.3,0.5-0.5
			c0.1-0.3,0-0.5-0.2-0.7l-6.8-6.8c-0.3-0.3-0.8-0.3-1.1,0l-6,6c-0.2-0.4-0.5-0.7-0.8-1c-0.9-0.9-2.1-1.4-3.4-1.4
			c-1.3,0-2.5,0.5-3.4,1.4c-1.9,1.9-1.9,4.9,0,6.7c0.3,0.3,0.6,0.6,1,0.8l-5.5,5.5l-6.2-6.2c-0.2-0.2-0.5-0.3-0.7-0.2
			c-0.3,0.1-0.5,0.3-0.5,0.5c-0.1,0.6-0.4,1.1-0.8,1.5c-1.2,1.2-3.4,1.2-4.6,0c-0.6-0.6-1-1.4-1-2.3c0-0.9,0.3-1.7,1-2.3
			c0.4-0.4,0.9-0.7,1.5-0.8c0.3-0.1,0.5-0.3,0.5-0.5c0.1-0.3,0-0.5-0.2-0.7l-6.8-6.8c-0.3-0.3-0.8-0.3-1.1,0l-6,6
			c-0.2-0.4-0.5-0.7-0.8-1c-0.9-0.9-2.1-1.4-3.4-1.4c-1.3,0-2.5,0.5-3.4,1.4c-1.9,1.9-1.9,4.9,0,6.7c0.3,0.3,0.6,0.6,1,0.8l-6,6
			c-0.3,0.3-0.3,0.8,0,1.1L44.1,73l0,0l5.9,5.9H35.6c-0.4,0-0.8,0.3-0.8,0.8V86c0,0.4,0.3,0.8,0.8,0.8h6.6L39.7,114H11.6
			c-2.4,0-4.3,1.9-4.3,4.3v0.1c0,2.4,1.9,4.3,4.3,4.3h27.4l-0.5,5.9c0,0.2,0.1,0.4,0.2,0.6c0.1,0.2,0.3,0.2,0.6,0.2h48
			c0.2,0,0.4-0.1,0.6-0.2c0.1-0.2,0.2-0.4,0.2-0.6l-3.8-41.9h6.6c0.4,0,0.8-0.3,0.8-0.8v-6.4c0-0.4-0.3-0.8-0.8-0.8H76.2l24.6-24.6
			C101,54.1,101,53.6,100.7,53.3z M33.4,47.6c0.2-0.2,0.3-0.5,0.2-0.7c-0.1-0.3-0.3-0.5-0.5-0.5c-0.6-0.2-1.1-0.4-1.5-0.8
			c-1.3-1.3-1.3-3.3,0-4.6c1.2-1.2,3.4-1.2,4.6,0c0.4,0.4,0.7,0.9,0.8,1.5c0.1,0.3,0.3,0.5,0.5,0.5c0.3,0.1,0.5,0,0.7-0.2l6.3-6.3
			l5.5,5.5c-0.4,0.2-0.7,0.5-1,0.8c-0.9,0.9-1.4,2.1-1.4,3.4c0,1.3,0.5,2.5,1.4,3.4c0.9,0.9,2.1,1.4,3.4,1.4c1.3,0,2.5-0.5,3.4-1.4
			c0.3-0.3,0.6-0.6,0.8-1l5.4,5.4l-5.5,5.5c-0.2-0.4-0.5-0.7-0.8-1c-0.9-0.9-2.1-1.4-3.4-1.4c-1.3,0-2.5,0.5-3.4,1.4
			c-1.9,1.9-1.9,4.9,0,6.7c0.3,0.3,0.6,0.6,1,0.8l-5.5,5.5L27.2,53.9L33.4,47.6z M15.4,115.5h41.8v2.1H15.4V115.5z M13.9,121.3h-2.4
			c-1.6,0-2.8-1.3-2.8-2.8v-0.1c0-1.6,1.3-2.8,2.8-2.8h2.4V121.3z M15.4,121.3v-2.1h41.8v2.1H15.4z M86.3,128H40l0.5-5.2H58
			c0.1,0,0.2,0,0.3-0.1c0,0,0,0,0,0l8-3.6c0.3-0.1,0.4-0.4,0.4-0.7c0-0.3-0.2-0.6-0.4-0.7l-8-3.6c0,0,0,0,0,0
			c-0.1,0-0.2-0.1-0.3-0.1H41.3l0.6-6.8h42.6L86.3,128z M58.8,120.9v-4.9l5.4,2.5L58.8,120.9z M84.3,105.8H42l0.9-9.9h40.5
			L84.3,105.8z M43,94.4l0.7-7.6h38.8l0.7,7.6H43z M90,80.4v4.8H36.4v-4.8H90z M74.1,78.9H52.2l-6.5-6.5l6.3-6.3
			c0.2-0.2,0.3-0.5,0.2-0.7c-0.1-0.3-0.3-0.5-0.5-0.5c-0.6-0.2-1.1-0.4-1.5-0.8c-1.3-1.3-1.3-3.3,0-4.6c1.2-1.2,3.4-1.2,4.6,0
			c0.4,0.4,0.7,0.9,0.8,1.5c0.1,0.3,0.3,0.5,0.5,0.5c0.3,0.1,0.5,0,0.7-0.2l6.3-6.3l5.5,5.5c-0.4,0.2-0.7,0.5-1,0.8
			c-0.9,0.9-1.4,2.1-1.4,3.4c0,1.3,0.5,2.5,1.4,3.4c0.9,0.9,2.1,1.4,3.4,1.4c1.3,0,2.5-0.5,3.4-1.4c0.3-0.3,0.6-0.6,0.8-1l5.5,5.5
			L74.1,78.9z M81.7,71.3L81.7,71.3l-6.3-6.2c-0.2-0.2-0.5-0.3-0.7-0.2c-0.3,0.1-0.5,0.3-0.5,0.5c-0.1,0.6-0.4,1.1-0.8,1.5
			c-1.2,1.2-3.4,1.2-4.6,0c-0.6-0.6-1-1.4-1-2.3c0-0.9,0.3-1.7,1-2.3c0.4-0.4,0.9-0.7,1.5-0.8c0.3-0.1,0.5-0.3,0.5-0.5
			c0.1-0.3,0-0.5-0.2-0.7l-6.3-6.3l6.4-6.3c0.2-0.2,0.3-0.5,0.2-0.7c-0.1-0.3-0.3-0.5-0.5-0.5c-0.6-0.2-1.1-0.4-1.5-0.8
			c-1.3-1.3-1.3-3.3,0-4.6c1.2-1.2,3.4-1.2,4.6,0c0.4,0.4,0.7,0.9,0.8,1.5c0.1,0.3,0.3,0.5,0.5,0.5c0.3,0.1,0.5,0,0.7-0.2l6.3-6.3
			l5.5,5.5c-0.4,0.2-0.7,0.5-1,0.8c-0.9,0.9-1.4,2.1-1.4,3.4c0,1.3,0.5,2.5,1.4,3.4c0.9,0.9,2.1,1.4,3.4,1.4c1.3,0,2.5-0.5,3.4-1.4
			c0.3-0.3,0.6-0.6,0.8-1l5.5,5.5L81.7,71.3z"/>
		<g>
			<g>
				<g>
					<line fill="#FFFFFF" x1="89.6" y1="104.1" x2="98.3" y2="104.1"/>
					<path fill="#231F20" d="M98.3,104.9h-8.7c-0.4,0-0.8-0.3-0.8-0.8c0-0.4,0.3-0.8,0.8-0.8h8.7c0.4,0,0.8,0.3,0.8,0.8
						C99.1,104.5,98.7,104.9,98.3,104.9z"/>
				</g>
				<g>
					<line fill="#FFFFFF" x1="97.5" y1="107.3" x2="101.8" y2="107.3"/>
					<path fill="#231F20" d="M101.8,108h-4.3c-0.4,0-0.8-0.3-0.8-0.8c0-0.4,0.3-0.8,0.8-0.8h4.3c0.4,0,0.8,0.3,0.8,0.8
						C102.5,107.7,102.2,108,101.8,108z"/>
				</g>
				<g>
					<line fill="#FFFFFF" x1="102.3" y1="104.1" x2="106.4" y2="104.1"/>
					<path fill="#231F20" d="M106.4,104.9h-4.1c-0.4,0-0.8-0.3-0.8-0.8c0-0.4,0.3-0.8,0.8-0.8h4.1c0.4,0,0.8,0.3,0.8,0.8
						C107.1,104.5,106.8,104.9,106.4,104.9z"/>
				</g>
				<g>
					<line fill="#FFFFFF" x1="93.5" y1="107.3" x2="94.4" y2="107.3"/>
					<path fill="#231F20" d="M94.4,108h-0.8c-0.4,0-0.8-0.3-0.8-0.8c0-0.4,0.3-0.8,0.8-0.8h0.8c0.4,0,0.8,0.3,0.8,0.8
						C95.1,107.7,94.8,108,94.4,108z"/>
				</g>
			</g>
		</g>
		<g>
			<g>
				<line fill="#FFFFFF" x1="10.7" y1="80.9" x2="19.5" y2="80.9"/>
				<path fill="#231F20" d="M19.5,81.7h-8.7c-0.4,0-0.8-0.3-0.8-0.8c0-0.4,0.3-0.8,0.8-0.8h8.7c0.4,0,0.8,0.3,0.8,0.8
					C20.2,81.3,19.9,81.7,19.5,81.7z"/>
			</g>
			<g>
				<line fill="#FFFFFF" x1="18.6" y1="84.1" x2="22.9" y2="84.1"/>
				<path fill="#231F20" d="M22.9,84.9h-4.3c-0.4,0-0.8-0.3-0.8-0.8c0-0.4,0.3-0.8,0.8-0.8h4.3c0.4,0,0.8,0.3,0.8,0.8
					C23.7,84.5,23.3,84.9,22.9,84.9z"/>
			</g>
			<g>
				<line fill="#FFFFFF" x1="23.4" y1="80.9" x2="27.5" y2="80.9"/>
				<path fill="#231F20" d="M27.5,81.7h-4.1c-0.4,0-0.8-0.3-0.8-0.8c0-0.4,0.3-0.8,0.8-0.8h4.1c0.4,0,0.8,0.3,0.8,0.8
					C28.3,81.3,27.9,81.7,27.5,81.7z"/>
			</g>
			<g>
				<line fill="#FFFFFF" x1="14.7" y1="84.1" x2="15.5" y2="84.1"/>
				<path fill="#231F20" d="M15.5,84.9h-0.8c-0.4,0-0.8-0.3-0.8-0.8c0-0.4,0.3-0.8,0.8-0.8h0.8c0.4,0,0.8,0.3,0.8,0.8
					C16.3,84.5,15.9,84.9,15.5,84.9z"/>
			</g>
		</g>
	</g>
</g>
</svg>
