<svg xmlns="http://www.w3.org/2000/svg" xmlns:xlink="http://www.w3.org/1999/xlink" viewBox="0 0 129.5 129.5"><circle fill="#fff" cx="124.4" cy="108.5" r="4.1"/><g fill="#231f20"><path d="M124.4 113.3c-2.7 0-4.8-2.2-4.8-4.8 0-2.7 2.2-4.8 4.8-4.8 2.7 0 4.8 2.2 4.8 4.8.1 2.6-2.1 4.8-4.8 4.8zm0-8.2a3.33 3.33 0 0 0-3.3 3.3 3.33 3.33 0 0 0 3.3 3.3 3.33 3.33 0 0 0 3.3-3.3c.1-1.8-1.4-3.3-3.3-3.3z"/><use xlink:href="#B"/><use xlink:href="#B" x="-3.9" y="3.9"/><use xlink:href="#C"/><path d="M51.5 107.9c-.2 0-.4-.1-.5-.2l-1.2-1.2c-.3-.3-.3-.8 0-1.1s.8-.3 1.1 0l1.2 1.2c.3.3.3.8 0 1.1-.3.1-.4.2-.6.2zM127.1 4.2c-.2 0-.4-.1-.5-.2-.3-.3-.3-.8 0-1.1l1.2-1.2c.3-.3.8-.3 1.1 0s.3.8 0 1.1L127.6 4c-.2.1-.4.2-.5.2z"/><use xlink:href="#B" x="69.1" y="-99.8"/><use xlink:href="#C" x="73" y="-103.7"/><use xlink:href="#C" x="69.1" y="-107.6"/><use xlink:href="#B" x="-49.3" y="-92"/><path d="M1 19.7c-.2 0-.4-.1-.5-.2-.3-.3-.3-.8 0-1.1l1.2-1.2c.3-.3.8-.3 1.1 0 .2.3.2.8-.1 1.1l-1.2 1.2c-.1.2-.3.2-.5.2zm5.1 0c-.2 0-.4-.1-.5-.2l-1.2-1.2c-.4-.3-.4-.8-.1-1.1s.8-.3 1.1 0l1.2 1.2c.3.3.3.8 0 1.1-.2.2-.3.2-.5.2zm-3.9-3.8c-.2 0-.4-.1-.5-.2L.5 14.5c-.3-.3-.3-.8 0-1.1s.8-.3 1.1 0l1.2 1.2c.3.3.3.8 0 1.1-.2.1-.4.2-.6.2z"/></g><g fill="#ffd05b"><circle cx="53" cy="84.9" r="1.9"/><circle cx="127.1" cy="23.1" r="1.9"/></g><path fill="#231f20" d="M114.8 120.5H63.7c-.4 0-.8-.3-.8-.8V36.1l-13.1-7.3c-.2-.1-.4-.4-.4-.7s.1-.5.4-.7L63 20.3v-8c0-.4.3-.8.8-.8h51.1c.4 0 .8.3.8.8v107.5c-.1.4-.5.7-.9.7zM64.5 119h49.6V13H64.5v7.7c0 .3-.1.5-.4.7l-12.3 6.8L64.1 35c.2.1.4.4.4.7V119z"/><path fill="#e6e9ee" d="M65.7 117.8V34.5l-11.4-6.3 11.4-6.3v-7.6h47.1v103.5z"/><path fill="#fff" d="M70.2 21.2h11.9v11.9H70.2z"/><g fill="#231f20"><path d="M82.1 33.8H70.2c-.4 0-.8-.3-.8-.8V21.2c0-.4.3-.8.8-.8h11.9c.4 0 .8.3.8.8V33c-.1.4-.4.8-.8.8zM71 32.3h10.4V21.9H71v10.4z"/><use xlink:href="#D"/><use xlink:href="#D" y="3.9"/><path d="M100.9 33.8H86.5c-.4 0-.8-.3-.8-.8 0-.4.3-.8.8-.8h14.4c.4 0 .8.3.8.8-.1.4-.4.8-.8.8z"/></g><path fill="#fff" d="M70.2 39.1h11.9V51H70.2z"/><g fill="#231f20"><path d="M82.1 51.8H70.2c-.4 0-.8-.3-.8-.8V39.1c0-.4.3-.8.8-.8h11.9c.4 0 .8.3.8.8V51c-.1.4-.4.8-.8.8zM71 50.3h10.4V39.9H71v10.4z"/><use xlink:href="#D" y="18"/><path d="M108.3 47.9H86.5c-.4 0-.8-.3-.8-.8s.3-.8.8-.8h21.8c.4 0 .8.3.8.8s-.4.8-.8.8zm-7.4 3.9H86.5c-.4 0-.8-.3-.8-.8 0-.4.3-.8.8-.8h14.4c.4 0 .8.3.8.8-.1.4-.4.8-.8.8z"/></g><path fill="#fff" d="M70.2 57.1h11.9V69H70.2z"/><g fill="#231f20"><path d="M82.1 69.7H70.2c-.4 0-.8-.3-.8-.8V57.1c0-.4.3-.8.8-.8h11.9c.4 0 .8.3.8.8V69c-.1.4-.4.7-.8.7zM71 68.2h10.4V57.9H71v10.3z"/><use xlink:href="#E"/><use xlink:href="#E" y="3.9"/><path d="M100.9 69.7H86.5c-.4 0-.8-.3-.8-.8 0-.4.3-.8.8-.8h14.4c.4 0 .8.3.8.8-.1.5-.4.8-.8.8z"/></g><path fill="#fff" d="M70.2 75.1h11.9V87H70.2z"/><g fill="#231f20"><path d="M82.1 87.7H70.2c-.4 0-.8-.3-.8-.8V75.1c0-.4.3-.8.8-.8h11.9c.4 0 .8.3.8.8V87c-.1.4-.4.7-.8.7zM71 86.2h10.4V75.9H71v10.3z"/><use xlink:href="#E" y="18"/><use xlink:href="#E" y="21.9"/><path d="M100.9 87.7H86.5c-.4 0-.8-.3-.8-.8s.3-.8.8-.8h14.4c.4 0 .8.3.8.8s-.4.8-.8.8z"/></g><path fill="#fff" d="M70.2 93.1h11.9V105H70.2z"/><g fill="#231f20"><path d="M82.1 105.7H70.2c-.4 0-.8-.3-.8-.8V93.1c0-.4.3-.8.8-.8h11.9c.4 0 .8.3.8.8V105c-.1.4-.4.7-.8.7zM71 104.2h10.4V93.9H71v10.3z"/><use xlink:href="#E" y="36"/><use xlink:href="#E" y="39.9"/><path d="M100.9 105.7H86.5c-.4 0-.8-.3-.8-.8s.3-.8.8-.8h14.4c.4 0 .8.3.8.8s-.4.8-.8.8z"/></g><g fill="#fff"><path d="M29.6 28.2v4l-4.3 2.4-4.3-2.4v-4c1.3 1.1 2.8 1.7 4.3 1.7s3-.6 4.3-1.7z"/><path d="M35.6 17.3c-.2-.1-.4-.1-.7 0l.2-2.5c0-7.3-4.4-10-9.8-10s-9.8 2.7-9.8 10c0 .8.1 1.7.2 2.5-.2-.1-.5-.1-.7 0-.6.3-.7 1.5-.1 2.6.5.9 1.2 1.5 1.8 1.6 1.7 4.7 4.9 8.4 8.6 8.4s7-3.7 8.6-8.4c.6 0 1.3-.6 1.8-1.6.5-1.1.5-2.3-.1-2.6z"/></g><path d="M35.9 16.6c-.1 0-.1-.1-.2-.1.1-.6.1-1.2.1-1.8C35.8 7.9 32 4 25.3 4S14.7 7.9 14.7 14.7c0 .6 0 1.2.1 1.8-.1 0-.1 0-.2.1-.5.3-.9.9-.9 1.6 0 .6.2 1.3.5 2 .5.9 1.2 1.6 1.9 1.9 1 2.7 2.5 4.9 4.1 6.4v3.7c0 .3.1.5.4.7l4.3 2.4c.1.1.2.1.4.1.1 0 .3 0 .4-.1l4.3-2.4c.2-.1.4-.4.4-.7v-3.7c1.7-1.5 3.1-3.7 4.1-6.4.7-.3 1.4-.9 1.9-1.9.3-.7.5-1.4.5-2-.1-.7-.4-1.3-1-1.6zm-7.1 13v2.1l-3.6 2-3.6-2v-2.1h.1c1.1.7 2.3 1 3.5 1 1.1 0 2.3-.3 3.4-.9.1 0 .1 0 .2-.1zm6.2-10c-.4.8-.9 1.1-1.1 1.1-.3 0-.6.2-.7.5-1.7 4.8-4.8 7.9-7.9 7.9s-6.2-3.1-7.9-7.9c-.1-.3-.4-.5-.7-.5-.2 0-.8-.4-1.1-1.1-.4-.9-.3-1.5-.3-1.6h.1c.2.1.5 0 .7-.1.2-.2.3-.4.3-.7-.1-.8-.2-1.7-.2-2.4 0-7.6 4.9-9.2 9.1-9.2 4.1 0 9.1 1.6 9.1 9.2 0 .8-.1 1.6-.2 2.4 0 .3.1.5.3.7s.5.2.7.1h.1c0 .1.1.7-.3 1.6zm8.3 11.1h-7c-.4 0-.8.3-.8.8 0 .4.3.8.8.8h7c3 0 5.5 2.5 5.5 5.5v39H42V46.6c0-.4-.3-.8-.8-.8-.4 0-.8.3-.8.8v32.8c0 .4-.3.8-.8.8H10.8c-.4 0-.8-.3-.8-.8V46.6c0-.4-.3-.8-.8-.8-.4 0-.8.3-.8.8v30.2H1.7v-39c0-3 2.5-5.5 5.5-5.5h7c.4 0 .8-.3.8-.8 0-.4-.3-.8-.8-.8h-7c-3.9 0-7 3.1-7 7v39.7c0 .4.3.8.8.8h7.6v1.2c0 1.1.8 2 1.8 2.2v45.6c0 .4.3.7.8.7.4 0 .8-.3.8-.7V89.7c4.2-.4 7.6-3.7 8-8h11.3c.4 4.2 3.7 7.6 8 8v37.6c0 .4.3.7.8.7.4 0 .8-.3.8-.7V81.5c.8-.3 1.4-1.1 1.4-2.1v-1.2h7.6c.4 0 .8-.3.8-.8V37.8c-.4-3.9-3.6-7.1-7.4-7.1zM11.8 88.1v-6.5h6.5a7.07 7.07 0 0 1-6.5 6.5zm27.3 0c-3.4-.4-6.1-3.1-6.5-6.5h6.5v6.5zm-13.6.8c-.4 0-.8.3-.8.8v37.6c0 .4.3.7.8.7.4 0 .8-.3.8-.7V89.7c-.1-.4-.4-.8-.8-.8zm24.7-76.4c-2.3 0-4.3-1.9-4.3-4.3.1-2.3 2-4.2 4.3-4.2s4.3 1.9 4.3 4.3c0 2.3-1.9 4.2-4.3 4.2zm0-7c-1.5 0-2.8 1.2-2.8 2.8 0 1.5 1.2 2.8 2.8 2.8S53 9.8 53 8.3s-1.2-2.8-2.8-2.8z" fill="#231f20"/><path fill="#f1543f" d="M26.9 40.2h-3.2l-.7-3h4.6z"/><path fill="#ff7058" d="M26.9 40.2h-3.2l-2.8 21 4.4 4.8 4.4-4.8z"/><defs ><path id="B" d="M54.1 107.9c-.2 0-.4-.1-.5-.2-.3-.3-.3-.8 0-1.1l1.2-1.2c.3-.3.8-.3 1.1 0s.3.8 0 1.1l-1.2 1.2c-.2.1-.4.2-.6.2z"/><path id="C" d="M55.3 111.8c-.2 0-.4-.1-.5-.2l-1.2-1.2c-.3-.3-.3-.8 0-1.1s.8-.3 1.1 0l1.2 1.2c.3.3.3.8 0 1.1-.2.1-.4.2-.6.2z"/><path id="D" d="M108.3 26H86.5c-.4 0-.8-.3-.8-.8 0-.4.3-.8.8-.8h21.8c.4 0 .8.3.8.8 0 .4-.4.8-.8.8z"/><path id="E" d="M108.3 61.9H86.5c-.4 0-.8-.3-.8-.8 0-.4.3-.8.8-.8h21.8c.4 0 .8.3.8.8s-.4.8-.8.8z"/></defs></svg>