<?xml version="1.0" encoding="utf-8"?>
<!-- Generator: Adobe Illustrator 18.0.0, SVG Export Plug-In . SVG Version: 6.00 Build 0)  -->
<!DOCTYPE svg PUBLIC "-//W3C//DTD SVG 1.1//EN" "http://www.w3.org/Graphics/SVG/1.1/DTD/svg11.dtd">
<svg   width="100px" height="100px" version="1.1" id="Layer_1" xmlns="http://www.w3.org/2000/svg" xmlns:xlink="http://www.w3.org/1999/xlink" x="0px" y="0px"
	 viewBox="0 0 129.5 129.5" enable-background="new 0 0 129.5 129.5" xml:space="preserve">
<g>
	<g>
		<rect x="11.4" y="13.7" fill="#FFFFFF" width="29.2" height="102.1"/>
		<rect x="11.4" y="13.7" fill="#FFFFFF" width="29.2" height="47.4"/>
		<rect x="14.6" y="16.9" fill="#FF7058" width="22.8" height="41"/>
		<line fill="#FFFFFF" x1="18.7" y1="25.7" x2="33.4" y2="25.7"/>
		<rect x="18.7" y="25" fill="#231F20" width="14.7" height="1.5"/>
		<line fill="#FFFFFF" x1="18.7" y1="30.4" x2="33.4" y2="30.4"/>
		<rect x="18.7" y="29.6" fill="#231F20" width="14.7" height="1.5"/>
		<line fill="#FFFFFF" x1="18.7" y1="35" x2="33.4" y2="35"/>
		<rect x="18.7" y="34.3" fill="#231F20" width="14.7" height="1.5"/>
		<line fill="#FFFFFF" x1="18.7" y1="39.7" x2="33.4" y2="39.7"/>
		<rect x="18.7" y="38.9" fill="#231F20" width="14.7" height="1.5"/>
		<line fill="#FFFFFF" x1="18.7" y1="44.3" x2="33.4" y2="44.3"/>
		<rect x="18.7" y="43.6" fill="#231F20" width="14.7" height="1.5"/>
		<line fill="#FFFFFF" x1="18.7" y1="49" x2="33.4" y2="49"/>
		<rect x="18.7" y="48.3" fill="#231F20" width="14.7" height="1.5"/>
		<circle fill="#FF7058" cx="26" cy="99.6" r="7.5"/>
		<path fill="#FFFFFF" d="M26,103.6c-2.2,0-4-1.8-4-4c0-2.2,1.8-4,4-4s4,1.8,4,4C30,101.8,28.2,103.6,26,103.6z"/>
		<path fill="#231F20" d="M26,104.3c-2.6,0-4.8-2.1-4.8-4.8c0-2.6,2.1-4.8,4.8-4.8c2.6,0,4.8,2.1,4.8,4.8
			C30.8,102.2,28.6,104.3,26,104.3z M26,96.3c-1.8,0-3.3,1.5-3.3,3.3s1.5,3.3,3.3,3.3s3.3-1.5,3.3-3.3S27.8,96.3,26,96.3z"/>
		<rect x="47.9" y="13.7" fill="#FFFFFF" width="29.2" height="102.1"/>
		<rect x="47.9" y="13.7" fill="#FFFFFF" width="29.2" height="47.4"/>
		<rect x="51.1" y="16.9" fill="#E6E9EE" width="22.8" height="41"/>
		<line fill="#FFFFFF" x1="55.1" y1="25.7" x2="69.9" y2="25.7"/>
		<rect x="55.1" y="25" fill="#231F20" width="14.7" height="1.5"/>
		<line fill="#FFFFFF" x1="55.1" y1="30.4" x2="69.9" y2="30.4"/>
		<rect x="55.1" y="29.6" fill="#231F20" width="14.7" height="1.5"/>
		<line fill="#FFFFFF" x1="55.1" y1="35" x2="69.9" y2="35"/>
		<rect x="55.1" y="34.3" fill="#231F20" width="14.7" height="1.5"/>
		<line fill="#FFFFFF" x1="55.1" y1="39.7" x2="69.9" y2="39.7"/>
		<rect x="55.1" y="38.9" fill="#231F20" width="14.7" height="1.5"/>
		<line fill="#FFFFFF" x1="55.1" y1="44.3" x2="69.9" y2="44.3"/>
		<rect x="55.1" y="43.6" fill="#231F20" width="14.7" height="1.5"/>
		<line fill="#FFFFFF" x1="55.1" y1="49" x2="69.9" y2="49"/>
		<rect x="55.1" y="48.3" fill="#231F20" width="14.7" height="1.5"/>
		<circle fill="#E6E9EE" cx="62.5" cy="99.6" r="7.5"/>
		<rect x="84.4" y="13.7" fill="#FFFFFF" width="29.2" height="102.1"/>
		<rect x="84.4" y="13.7" fill="#FFFFFF" width="29.2" height="47.4"/>
		<g>
			<path fill="#231F20" d="M10.7,116.6h30.7V12.9H10.7V116.6z M12.2,115.1V61.8h27.7v53.3H12.2z M39.9,14.4v45.9H12.2V14.4H39.9z"/>
			<path fill="#231F20" d="M47.2,116.6h30.7V12.9H47.2V116.6z M76.3,115.1H48.7V61.8h27.7V115.1z M76.3,14.4v45.9H48.7V14.4H76.3z"
				/>
			<path fill="#231F20" d="M83.6,12.9v103.6h30.7V12.9H83.6z M112.8,14.4v45.9H85.1V14.4H112.8z M85.1,115.1V61.8h27.7v53.3H85.1z"
				/>
		</g>
		<rect x="87.6" y="16.9" fill="#84DBFF" width="22.8" height="41"/>
		<line fill="#FFFFFF" x1="91.6" y1="25.7" x2="106.3" y2="25.7"/>
		<rect x="91.6" y="25" fill="#231F20" width="14.7" height="1.5"/>
		<line fill="#FFFFFF" x1="91.6" y1="30.4" x2="106.3" y2="30.4"/>
		<rect x="91.6" y="29.6" fill="#231F20" width="14.7" height="1.5"/>
		<line fill="#FFFFFF" x1="91.6" y1="35" x2="106.3" y2="35"/>
		<rect x="91.6" y="34.3" fill="#231F20" width="14.7" height="1.5"/>
		<line fill="#FFFFFF" x1="91.6" y1="39.7" x2="106.3" y2="39.7"/>
		<rect x="91.6" y="38.9" fill="#231F20" width="14.7" height="1.5"/>
		<line fill="#FFFFFF" x1="91.6" y1="44.3" x2="106.3" y2="44.3"/>
		<rect x="91.6" y="43.6" fill="#231F20" width="14.7" height="1.5"/>
		<line fill="#FFFFFF" x1="91.6" y1="49" x2="106.3" y2="49"/>
		<rect x="91.6" y="48.3" fill="#231F20" width="14.7" height="1.5"/>
		<circle fill="#84DBFF" cx="99" cy="99.6" r="7.5"/>
		<path fill="#FFFFFF" d="M62.5,103.6c-2.2,0-4-1.8-4-4c0-2.2,1.8-4,4-4c2.2,0,4,1.8,4,4C66.5,101.8,64.7,103.6,62.5,103.6z"/>
		<path fill="#231F20" d="M62.5,104.3c-2.6,0-4.8-2.1-4.8-4.8c0-2.6,2.1-4.8,4.8-4.8s4.8,2.1,4.8,4.8
			C67.3,102.2,65.1,104.3,62.5,104.3z M62.5,96.3c-1.8,0-3.3,1.5-3.3,3.3s1.5,3.3,3.3,3.3c1.8,0,3.3-1.5,3.3-3.3
			S64.3,96.3,62.5,96.3z"/>
		<path fill="#FFFFFF" d="M99,103.6c-2.2,0-4-1.8-4-4c0-2.2,1.8-4,4-4c2.2,0,4,1.8,4,4C103,101.8,101.2,103.6,99,103.6z"/>
		<path fill="#231F20" d="M99,104.3c-2.6,0-4.8-2.1-4.8-4.8c0-2.6,2.1-4.8,4.8-4.8c2.6,0,4.7,2.1,4.7,4.8
			C103.7,102.2,101.6,104.3,99,104.3z M99,96.3c-1.8,0-3.3,1.5-3.3,3.3s1.5,3.3,3.3,3.3c1.8,0,3.2-1.5,3.2-3.3S100.8,96.3,99,96.3z"
			/>
		<path fill="#231F20" d="M68,2.8c-0.2,0-0.4-0.1-0.5-0.2c-0.3-0.3-0.3-0.8,0-1.1l1.3-1.3c0.3-0.3,0.8-0.3,1.1,0
			c0.3,0.3,0.3,0.8,0,1.1l-1.3,1.3C68.4,2.7,68.2,2.8,68,2.8z"/>
		<path fill="#231F20" d="M64,6.8c-0.2,0-0.4-0.1-0.5-0.2c-0.3-0.3-0.3-0.8,0-1.1l1.3-1.3C65,4,65.5,4,65.8,4.2
			c0.3,0.3,0.3,0.8,0,1.1l-1.3,1.3C64.4,6.7,64.2,6.8,64,6.8z"/>
		<path fill="#231F20" d="M69.3,6.8c-0.2,0-0.4-0.1-0.5-0.2l-1.3-1.3c-0.3-0.3-0.3-0.8,0-1.1c0.3-0.3,0.8-0.3,1.1,0l1.3,1.3
			c0.3,0.3,0.3,0.8,0,1.1C69.7,6.7,69.5,6.8,69.3,6.8z"/>
		<path fill="#231F20" d="M65.3,2.8c-0.2,0-0.4-0.1-0.5-0.2l-1.3-1.3c-0.3-0.3-0.3-0.8,0-1.1c0.3-0.3,0.8-0.3,1.1,0l1.3,1.3
			c0.3,0.3,0.3,0.8,0,1.1C65.7,2.7,65.5,2.8,65.3,2.8z"/>
		<path fill="#231F20" d="M125.2,105.1c-0.2,0-0.4-0.1-0.5-0.2c-0.3-0.3-0.3-0.8,0-1.1l1.3-1.3c0.3-0.3,0.8-0.3,1.1,0
			c0.3,0.3,0.3,0.8,0,1.1l-1.3,1.3C125.6,105,125.4,105.1,125.2,105.1z"/>
		<path fill="#231F20" d="M121.2,109.1c-0.2,0-0.4-0.1-0.5-0.2c-0.3-0.3-0.3-0.8,0-1.1l1.3-1.3c0.3-0.3,0.8-0.3,1.1,0
			c0.3,0.3,0.3,0.8,0,1.1l-1.3,1.3C121.6,109,121.4,109.1,121.2,109.1z"/>
		<path fill="#231F20" d="M126.5,109.1c-0.2,0-0.4-0.1-0.5-0.2l-1.3-1.3c-0.3-0.3-0.3-0.8,0-1.1c0.3-0.3,0.8-0.3,1.1,0l1.3,1.3
			c0.3,0.3,0.3,0.8,0,1.1C126.9,109,126.7,109.1,126.5,109.1z"/>
		<path fill="#231F20" d="M122.5,105.1c-0.2,0-0.4-0.1-0.5-0.2l-1.3-1.3c-0.3-0.3-0.3-0.8,0-1.1c0.3-0.3,0.8-0.3,1.1,0l1.3,1.3
			c0.3,0.3,0.3,0.8,0,1.1C122.9,105,122.7,105.1,122.5,105.1z"/>
		<path fill="#231F20" d="M7,125.5c-0.2,0-0.4-0.1-0.5-0.2c-0.3-0.3-0.3-0.8,0-1.1l1.3-1.3c0.3-0.3,0.8-0.3,1.1,0
			c0.3,0.3,0.3,0.8,0,1.1l-1.3,1.3C7.4,125.4,7.2,125.5,7,125.5z"/>
		<path fill="#231F20" d="M3,129.5c-0.2,0-0.4-0.1-0.5-0.2c-0.3-0.3-0.3-0.8,0-1.1l1.3-1.3c0.3-0.3,0.8-0.3,1.1,0
			c0.3,0.3,0.3,0.8,0,1.1l-1.3,1.3C3.4,129.4,3.2,129.5,3,129.5z"/>
		<path fill="#231F20" d="M8.3,129.5c-0.2,0-0.4-0.1-0.5-0.2L6.5,128c-0.3-0.3-0.3-0.8,0-1.1c0.3-0.3,0.8-0.3,1.1,0l1.3,1.3
			c0.3,0.3,0.3,0.8,0,1.1C8.7,129.4,8.5,129.5,8.3,129.5z"/>
		<path fill="#231F20" d="M4.3,125.5c-0.2,0-0.4-0.1-0.5-0.2L2.5,124c-0.3-0.3-0.3-0.8,0-1.1c0.3-0.3,0.8-0.3,1.1,0l1.3,1.3
			c0.3,0.3,0.3,0.8,0,1.1C4.7,125.4,4.5,125.5,4.3,125.5z"/>
		<path fill="#231F20" d="M113.9,1.5h-8.1c-0.4,0-0.8-0.3-0.8-0.7c0-0.4,0.3-0.8,0.8-0.8h8.1c0.4,0,0.8,0.3,0.8,0.8
			C114.6,1.2,114.3,1.5,113.9,1.5z"/>
		<path fill="#231F20" d="M117.1,4.4h-4c-0.4,0-0.8-0.3-0.8-0.8c0-0.4,0.3-0.8,0.8-0.8h4c0.4,0,0.8,0.3,0.8,0.8
			C117.8,4.1,117.5,4.4,117.1,4.4z"/>
		<path fill="#231F20" d="M121.3,1.5h-3.8c-0.4,0-0.8-0.3-0.8-0.7c0-0.4,0.3-0.8,0.8-0.8h3.8c0.4,0,0.8,0.3,0.8,0.8
			C122.1,1.2,121.8,1.5,121.3,1.5z"/>
		<path fill="#231F20" d="M110.2,4.4h-0.8c-0.4,0-0.8-0.3-0.8-0.8c0-0.4,0.3-0.8,0.8-0.8h0.8c0.4,0,0.8,0.3,0.8,0.8
			C111,4.1,110.7,4.4,110.2,4.4z"/>
	</g>
</g>
</svg>
