<?xml version="1.0" encoding="utf-8"?>
<!-- Generator: Adobe Illustrator 18.0.0, SVG Export Plug-In . SVG Version: 6.00 Build 0)  -->
<!DOCTYPE svg PUBLIC "-//W3C//DTD SVG 1.1//EN" "http://www.w3.org/Graphics/SVG/1.1/DTD/svg11.dtd">
<svg  width="100px" height="100px"  version="1.1" id="Layer_1" xmlns="http://www.w3.org/2000/svg" xmlns:xlink="http://www.w3.org/1999/xlink" x="0px" y="0px"
	 viewBox="0 0 129.5 129.5" enable-background="new 0 0 129.5 129.5" xml:space="preserve">
<g>
	<g>
		<polygon fill="#E6E9EE" points="87.6,28.7 112.1,53.2 112.1,28.7 		"/>
		<path fill="#231F20" d="M8.6,25.9c-0.2,0-0.4-0.1-0.5-0.2c-0.3-0.3-0.3-0.8,0-1.1l1.3-1.3c0.3-0.3,0.8-0.3,1.1,0
			c0.3,0.3,0.3,0.8,0,1.1l-1.3,1.3C9,25.8,8.8,25.9,8.6,25.9z"/>
		<path fill="#231F20" d="M4.5,29.9c-0.2,0-0.4-0.1-0.5-0.2c-0.3-0.3-0.3-0.8,0-1.1l1.3-1.3c0.3-0.3,0.8-0.3,1.1,0
			c0.3,0.3,0.3,0.8,0,1.1l-1.3,1.3C4.9,29.9,4.7,29.9,4.5,29.9z"/>
		<path fill="#231F20" d="M9.9,29.9c-0.2,0-0.4-0.1-0.5-0.2l-1.3-1.3c-0.3-0.3-0.3-0.8,0-1.1c0.3-0.3,0.8-0.3,1.1,0l1.3,1.3
			c0.3,0.3,0.3,0.8,0,1.1C10.3,29.9,10.1,29.9,9.9,29.9z"/>
		<path fill="#231F20" d="M5.8,25.9c-0.2,0-0.4-0.1-0.5-0.2L4,24.3c-0.3-0.3-0.3-0.8,0-1.1c0.3-0.3,0.8-0.3,1.1,0l1.3,1.3
			c0.3,0.3,0.3,0.8,0,1.1C6.2,25.8,6,25.9,5.8,25.9z"/>
		<polygon fill="#FFFFFF" points="87.8,4.4 87.8,28.7 112.1,28.7 		"/>
		<polygon fill="#84DBFF" points="90,26.5 90,9.7 106.8,26.5 		"/>
		<circle fill="#FF7058" cx="41.7" cy="28.4" r="16.1"/>
		<path fill="#FFFFFF" d="M47.1,21.7c0,3.9-2.4,8.5-5.4,8.5c-3,0-5.4-4.6-5.4-8.5s2.4-5.5,5.4-5.5C44.7,16.1,47.1,17.8,47.1,21.7z"
			/>
		<path fill="#231F20" d="M52.4,33.5l-5.9-2.6L45.2,29c1.6-1.8,2.7-4.7,2.7-7.4c0-3.9-2.4-6.3-6.2-6.3c-3.8,0-6.2,2.4-6.2,6.3
			c0,2.6,1,5.5,2.7,7.4l-1.3,1.8l-5.8,2.6c-1.3,0.4-2.2,1.7-2.2,3v2.4h1.5v-2.4c0-0.7,0.5-1.4,1.2-1.6l6.1-2.7
			c0.1-0.1,0.2-0.1,0.3-0.3l1.3-1.8c0.7,0.5,1.6,0.8,2.4,0.8c0.9,0,1.7-0.3,2.4-0.8l1.3,1.8c0.1,0.1,0.2,0.2,0.3,0.3l6.2,2.8
			c0.7,0.2,1.2,0.9,1.2,1.6v2.4h1.5v-2.4C54.5,35.1,53.6,33.9,52.4,33.5z M37,21.7c0-4.3,3.3-4.8,4.7-4.8c1.4,0,4.7,0.5,4.7,4.8
			c0,3.5-2.2,7.7-4.7,7.7C39.2,29.3,37,25.1,37,21.7z"/>
		<circle fill="#FFFFFF" cx="106.8" cy="98.2" r="20.2"/>
		<g>
			<rect x="35.8" y="62.7" fill="#231F20" width="3.9" height="1.5"/>
			<rect x="44.3" y="62.7" fill="#231F20" width="49.2" height="1.5"/>
			<rect x="35.8" y="68.3" fill="#231F20" width="3.9" height="1.5"/>
			<rect x="44.3" y="68.3" fill="#231F20" width="49.2" height="1.5"/>
			<rect x="35.8" y="74" fill="#231F20" width="3.9" height="1.5"/>
			<rect x="44.3" y="74" fill="#231F20" width="49.2" height="1.5"/>
			<rect x="35.8" y="79.6" fill="#231F20" width="3.9" height="1.5"/>
			<rect x="44.3" y="79.6" fill="#231F20" width="49.2" height="1.5"/>
			<rect x="35.8" y="85.3" fill="#231F20" width="3.9" height="1.5"/>
			<rect x="35.8" y="90.9" fill="#231F20" width="3.9" height="1.5"/>
			<rect x="35.8" y="96.6" fill="#231F20" width="3.9" height="1.5"/>
			<rect x="35.8" y="102.2" fill="#231F20" width="3.9" height="1.5"/>
			<rect x="35.8" y="107.9" fill="#231F20" width="3.9" height="1.5"/>
			<rect x="35.8" y="113.5" fill="#231F20" width="3.9" height="1.5"/>
			<path fill="#231F20" d="M112.9,78.1V28.7c0-0.2-0.1-0.4-0.2-0.5L88.3,3.8c-0.1-0.1-0.3-0.2-0.5-0.2H17.2c-0.4,0-0.8,0.3-0.8,0.8
				v123.2c0,0.4,0.3,0.8,0.8,0.8h94.9c0.4,0,0.8-0.3,0.8-0.8v-9.3c8.6-2.6,15-10.6,15-20.1S121.5,80.7,112.9,78.1z M88.6,6.2
				l21.7,21.7H88.6V6.2z M111.3,126.8H18V5.1H87v23.6c0,0.4,0.3,0.8,0.8,0.8h23.6v48.2c-1.5-0.3-3-0.5-4.5-0.5
				c-6.7,0-12.7,3.2-16.5,8.1h-46v1.5h44.9c-0.8,1.3-1.5,2.7-2.1,4.1H44.3v1.5h42.3c-0.4,1.3-0.6,2.7-0.7,4.1H44.3v1.5h41.5
				c0,0,0,0.1,0,0.1c0,1.4,0.1,2.7,0.4,4H44.3v1.5h42.3c0.4,1.4,0.9,2.8,1.6,4.1H44.3v1.5h44.8c1,1.5,2.1,2.9,3.4,4.1H44.3v1.5h50
				c3.5,2.6,7.8,4.1,12.5,4.1c1.6,0,3.1-0.2,4.5-0.5V126.8z M106.8,117.6c-10.7,0-19.5-8.7-19.5-19.5s8.7-19.5,19.5-19.5
				c10.7,0,19.5,8.7,19.5,19.5S117.6,117.6,106.8,117.6z"/>
		</g>
		<circle fill="#E6E9EE" cx="106.8" cy="98.2" r="2"/>
		<line fill="#E6E9EE" x1="106.8" y1="80.8" x2="106.8" y2="83.3"/>
		<rect x="106.1" y="80.8" fill="#231F20" width="1.5" height="2.6"/>
		<line fill="#E6E9EE" x1="106.8" y1="113" x2="106.8" y2="115.6"/>
		<rect x="106.1" y="113" fill="#231F20" width="1.5" height="2.6"/>
		<line fill="#E6E9EE" x1="124.2" y1="98.2" x2="121.7" y2="98.2"/>
		<rect x="121.7" y="97.4" fill="#231F20" width="2.6" height="1.5"/>
		<line fill="#E6E9EE" x1="92" y1="98.2" x2="89.4" y2="98.2"/>
		<rect x="89.4" y="97.4" fill="#231F20" width="2.6" height="1.5"/>
		<line fill="#E6E9EE" x1="98.1" y1="83.1" x2="99.4" y2="85.3"/>
		<rect x="97.5" y="83.4" transform="matrix(0.5 0.866 -0.866 0.5 122.3074 -43.4338)" fill="#231F20" width="2.6" height="1.5"/>
		<line fill="#E6E9EE" x1="114.3" y1="111" x2="115.5" y2="113.3"/>
		<rect x="113.6" y="111.4" transform="matrix(0.5 0.866 -0.866 0.5 154.5632 -43.4335)" fill="#231F20" width="2.6" height="1.5"/>
		<line fill="#E6E9EE" x1="121.9" y1="89.5" x2="119.7" y2="90.8"/>
		
			<rect x="120" y="88.8" transform="matrix(0.5001 0.866 -0.866 0.5001 138.4251 -59.5625)" fill="#231F20" width="1.5" height="2.6"/>
		<line fill="#E6E9EE" x1="94" y1="105.6" x2="91.8" y2="106.9"/>
		<rect x="92.1" y="105" transform="matrix(0.5 0.866 -0.866 0.5 138.4311 -27.3071)" fill="#231F20" width="1.5" height="2.6"/>
		<line fill="#E6E9EE" x1="91.8" y1="89.5" x2="94" y2="90.8"/>
		
			<rect x="91.6" y="89.4" transform="matrix(0.8661 0.4998 -0.4998 0.8661 57.4701 -34.3529)" fill="#231F20" width="2.6" height="1.5"/>
		<line fill="#E6E9EE" x1="119.7" y1="105.6" x2="121.9" y2="106.9"/>
		
			<rect x="119.5" y="105.5" transform="matrix(0.8661 0.4999 -0.4999 0.8661 69.2791 -46.1587)" fill="#231F20" width="2.6" height="1.5"/>
		<line fill="#E6E9EE" x1="115.5" y1="83.1" x2="114.3" y2="85.3"/>
		
			<rect x="114.1" y="82.9" transform="matrix(0.866 0.5001 -0.5001 0.866 57.5066 -46.1715)" fill="#231F20" width="1.5" height="2.6"/>
		<line fill="#E6E9EE" x1="99.4" y1="111" x2="98.1" y2="113.3"/>
		
			<rect x="98" y="110.9" transform="matrix(0.866 0.5001 -0.5001 0.866 69.3146 -34.3626)" fill="#231F20" width="1.5" height="2.6"/>
		<line fill="#E6E9EE" x1="108.8" y1="98.2" x2="118.3" y2="98.2"/>
		<line fill="#E6E9EE" x1="106.8" y1="96.2" x2="106.8" y2="86.7"/>
		<path fill="#231F20" d="M118.3,97.4h-8.9c-0.3-0.9-1-1.6-1.8-1.8v-8.8h-1.5v8.8c-1.1,0.3-2,1.4-2,2.6c0,1.5,1.2,2.7,2.7,2.7
			c1.2,0,2.3-0.8,2.6-2h8.9V97.4z M106.8,99.4c-0.7,0-1.2-0.5-1.2-1.2c0-0.7,0.5-1.2,1.2-1.2c0.7,0,1.2,0.5,1.2,1.2
			C108,98.8,107.5,99.4,106.8,99.4z"/>
		<circle fill="#FF7058" cx="105.4" cy="3.8" r="2.6"/>
		<circle fill="#84DBFF" cx="3.8" cy="86.7" r="3.8"/>
		<circle fill="#FFD05B" cx="126.9" cy="66.1" r="2.6"/>
		<circle fill="#E6E9EE" cx="11.2" cy="38.9" r="2.6"/>
		<line fill="#FFFFFF" x1="67.7" y1="45.6" x2="76.5" y2="45.6"/>
		<path fill="#231F20" d="M76.5,46.3h-8.8c-0.4,0-0.8-0.3-0.8-0.8s0.3-0.8,0.8-0.8h8.8c0.4,0,0.8,0.3,0.8,0.8S76.9,46.3,76.5,46.3z"
			/>
		<line fill="#FFFFFF" x1="75.6" y1="48.8" x2="79.9" y2="48.8"/>
		<path fill="#231F20" d="M79.9,49.5h-4.3c-0.4,0-0.8-0.3-0.8-0.8c0-0.4,0.3-0.8,0.8-0.8h4.3c0.4,0,0.8,0.3,0.8,0.8
			C80.7,49.2,80.3,49.5,79.9,49.5z"/>
		<line fill="#FFFFFF" x1="80.5" y1="45.6" x2="84.6" y2="45.6"/>
		<path fill="#231F20" d="M84.6,46.3h-4.1c-0.4,0-0.8-0.3-0.8-0.8s0.3-0.8,0.8-0.8h4.1c0.4,0,0.8,0.3,0.8,0.8S85,46.3,84.6,46.3z"/>
		<line fill="#FFFFFF" x1="71.6" y1="48.8" x2="72.5" y2="48.8"/>
		<path fill="#231F20" d="M72.5,49.5h-0.8c-0.4,0-0.8-0.3-0.8-0.8c0-0.4,0.3-0.8,0.8-0.8h0.8c0.4,0,0.8,0.3,0.8,0.8
			C73.2,49.2,72.9,49.5,72.5,49.5z"/>
	</g>
</g>
</svg>
