<?xml version="1.0" encoding="utf-8"?>
<!-- Generator: Adobe Illustrator 18.0.0, SVG Export Plug-In . SVG Version: 6.00 Build 0)  -->
<!DOCTYPE svg PUBLIC "-//W3C//DTD SVG 1.1//EN" "http://www.w3.org/Graphics/SVG/1.1/DTD/svg11.dtd">
<svg  width="100px" height="100px" version="1.1" id="Layer_1" xmlns="http://www.w3.org/2000/svg" xmlns:xlink="http://www.w3.org/1999/xlink" x="0px" y="0px"
	 viewBox="0 0 129.5 129.5" enable-background="new 0 0 129.5 129.5" xml:space="preserve">
<g>
	<g>
		<polygon fill="#E6E9EE" points="119.6,82.8 68.1,85.7 68.1,97.6 119.6,100.5 128.6,91.6 		"/>
		<polygon fill="#84DBFF" points="119.6,20.7 68.1,23.6 68.1,35.5 119.6,38.4 128.6,29.5 		"/>
		<polygon fill="#FF7058" points="9.9,67.2 61.4,70.2 61.4,82 9.9,85 0.9,76.1 		"/>
		<g>
			<path fill="#231F20" d="M96.8,8.3c-0.2,0-0.4-0.1-0.5-0.2c-0.3-0.3-0.3-0.8,0-1.1l1.3-1.3c0.3-0.3,0.8-0.3,1.1,0
				c0.3,0.3,0.3,0.8,0,1.1l-1.3,1.3C97.2,8.3,97,8.3,96.8,8.3z"/>
		</g>
		<g>
			<path fill="#231F20" d="M92.8,12.4c-0.2,0-0.4-0.1-0.5-0.2c-0.3-0.3-0.3-0.8,0-1.1l1.3-1.3c0.3-0.3,0.8-0.3,1.1,0
				c0.3,0.3,0.3,0.8,0,1.1l-1.3,1.3C93.2,12.3,93,12.4,92.8,12.4z"/>
		</g>
		<g>
			<path fill="#231F20" d="M98.1,12.4c-0.2,0-0.4-0.1-0.5-0.2l-1.3-1.3c-0.3-0.3-0.3-0.8,0-1.1s0.8-0.3,1.1,0l1.3,1.3
				c0.3,0.3,0.3,0.8,0,1.1C98.5,12.3,98.3,12.4,98.1,12.4z"/>
		</g>
		<g>
			<path fill="#231F20" d="M94.1,8.3c-0.2,0-0.4-0.1-0.5-0.2l-1.3-1.3c-0.3-0.3-0.3-0.8,0-1.1c0.3-0.3,0.8-0.3,1.1,0l1.3,1.3
				c0.3,0.3,0.3,0.8,0,1.1C94.5,8.3,94.3,8.3,94.1,8.3z"/>
		</g>
		<g>
			<path fill="#231F20" d="M32.8,99.9c-0.2,0-0.4-0.1-0.5-0.2c-0.3-0.3-0.3-0.8,0-1.1l1.3-1.3c0.3-0.3,0.8-0.3,1.1,0
				c0.3,0.3,0.3,0.8,0,1.1l-1.3,1.3C33.2,99.8,33,99.9,32.8,99.9z"/>
		</g>
		<g>
			<path fill="#231F20" d="M28.8,103.9c-0.2,0-0.4-0.1-0.5-0.2c-0.3-0.3-0.3-0.8,0-1.1l1.3-1.3c0.3-0.3,0.8-0.3,1.1,0
				c0.3,0.3,0.3,0.8,0,1.1l-1.3,1.3C29.2,103.8,29,103.9,28.8,103.9z"/>
		</g>
		<g>
			<path fill="#231F20" d="M34.1,103.9c-0.2,0-0.4-0.1-0.5-0.2l-1.3-1.3c-0.3-0.3-0.3-0.8,0-1.1c0.3-0.3,0.8-0.3,1.1,0l1.3,1.3
				c0.3,0.3,0.3,0.8,0,1.1C34.5,103.8,34.3,103.9,34.1,103.9z"/>
		</g>
		<g>
			<path fill="#231F20" d="M30.1,99.9c-0.2,0-0.4-0.1-0.5-0.2l-1.3-1.3c-0.3-0.3-0.3-0.8,0-1.1c0.3-0.3,0.8-0.3,1.1,0l1.3,1.3
				c0.3,0.3,0.3,0.8,0,1.1C30.5,99.8,30.3,99.9,30.1,99.9z"/>
		</g>
		<g>
			<path fill="#231F20" d="M73,129.4H48.3c-0.4,0-0.8-0.3-0.8-0.8c0-0.4,0.3-0.8,0.8-0.8H73c0.4,0,0.8,0.3,0.8,0.8
				C73.7,129,73.4,129.4,73,129.4z"/>
		</g>
		<g>
			<path fill="#231F20" d="M81.2,129.4h-4.4c-0.4,0-0.8-0.3-0.8-0.8c0-0.4,0.3-0.8,0.8-0.8h4.4c0.4,0,0.8,0.3,0.8,0.8
				C82,129,81.6,129.4,81.2,129.4z"/>
		</g>
		<g>
			<path fill="#231F20" d="M106.2,124.4H81.5c-0.4,0-0.8-0.3-0.8-0.8s0.3-0.8,0.8-0.8h24.7c0.4,0,0.8,0.3,0.8,0.8
				S106.6,124.4,106.2,124.4z"/>
		</g>
		<g>
			<path fill="#231F20" d="M114.4,124.4H110c-0.4,0-0.8-0.3-0.8-0.8s0.3-0.8,0.8-0.8h4.4c0.4,0,0.8,0.3,0.8,0.8
				S114.8,124.4,114.4,124.4z"/>
		</g>
		<g>
			<path fill="#231F20" d="M17.9,125.9h-5.4c-0.4,0-0.8-0.3-0.8-0.8s0.3-0.8,0.8-0.8h5.4c0.4,0,0.8,0.3,0.8,0.8
				S18.3,125.9,17.9,125.9z"/>
		</g>
		<g>
			<path fill="#231F20" d="M61.3,125.9H23.4c-0.4,0-0.8-0.3-0.8-0.8s0.3-0.8,0.8-0.8h37.9c0.4,0,0.8,0.3,0.8,0.8
				S61.7,125.9,61.3,125.9z"/>
		</g>
		<g>
			<line fill="#FFFFFF" x1="12.3" y1="10.5" x2="20.4" y2="10.5"/>
			<path fill="#231F20" d="M20.4,11.3h-8.1c-0.4,0-0.8-0.3-0.8-0.8c0-0.4,0.3-0.8,0.8-0.8h8.1c0.4,0,0.8,0.3,0.8,0.8
				C21.2,10.9,20.8,11.3,20.4,11.3z"/>
		</g>
		<g>
			<line fill="#FFFFFF" x1="19.6" y1="13.5" x2="23.6" y2="13.5"/>
			<path fill="#231F20" d="M23.6,14.2h-3.9c-0.4,0-0.8-0.3-0.8-0.8s0.3-0.8,0.8-0.8h3.9c0.4,0,0.8,0.3,0.8,0.8S24,14.2,23.6,14.2z"
				/>
		</g>
		<g>
			<line fill="#FFFFFF" x1="24.1" y1="10.5" x2="27.8" y2="10.5"/>
			<path fill="#231F20" d="M27.8,11.3h-3.8c-0.4,0-0.8-0.3-0.8-0.8c0-0.4,0.3-0.8,0.8-0.8h3.8c0.4,0,0.8,0.3,0.8,0.8
				C28.6,10.9,28.2,11.3,27.8,11.3z"/>
		</g>
		<g>
			<line fill="#FFFFFF" x1="16" y1="13.5" x2="16.7" y2="13.5"/>
			<path fill="#231F20" d="M16.7,14.2H16c-0.4,0-0.8-0.3-0.8-0.8s0.3-0.8,0.8-0.8h0.8c0.4,0,0.8,0.3,0.8,0.8S17.2,14.2,16.7,14.2z"
				/>
		</g>
		<g>
			<line fill="#FFFFFF" x1="86.2" y1="109.3" x2="94.3" y2="109.3"/>
			<path fill="#231F20" d="M94.3,110.1h-8.1c-0.4,0-0.8-0.3-0.8-0.8c0-0.4,0.3-0.8,0.8-0.8h8.1c0.4,0,0.8,0.3,0.8,0.8
				C95,109.8,94.7,110.1,94.3,110.1z"/>
		</g>
		<g>
			<line fill="#FFFFFF" x1="93.5" y1="112.3" x2="97.4" y2="112.3"/>
			<path fill="#231F20" d="M97.4,113h-3.9c-0.4,0-0.8-0.3-0.8-0.8c0-0.4,0.3-0.8,0.8-0.8h3.9c0.4,0,0.8,0.3,0.8,0.8
				C98.2,112.7,97.8,113,97.4,113z"/>
		</g>
		<g>
			<line fill="#FFFFFF" x1="97.9" y1="109.3" x2="101.7" y2="109.3"/>
			<path fill="#231F20" d="M101.7,110.1h-3.8c-0.4,0-0.8-0.3-0.8-0.8c0-0.4,0.3-0.8,0.8-0.8h3.8c0.4,0,0.8,0.3,0.8,0.8
				C102.4,109.8,102.1,110.1,101.7,110.1z"/>
		</g>
		<g>
			<line fill="#FFFFFF" x1="89.8" y1="112.3" x2="90.6" y2="112.3"/>
			<path fill="#231F20" d="M90.6,113h-0.8c-0.4,0-0.8-0.3-0.8-0.8c0-0.4,0.3-0.8,0.8-0.8h0.8c0.4,0,0.8,0.3,0.8,0.8
				C91.4,112.7,91,113,90.6,113z"/>
		</g>
		<path fill="#231F20" d="M68.8,119.5V67.3l50.7,2.9c0,0,0,0,0,0c0.2,0,0.4-0.1,0.5-0.2l9-8.9c0.1-0.1,0.2-0.3,0.2-0.5
			c0-0.2-0.1-0.4-0.2-0.5l-9-8.9c-0.2-0.1-0.4-0.2-0.6-0.2l-50.7,2.9V10.9c0-0.1,0-0.2,0-0.2l-3.3-10c-0.1-0.3-0.4-0.5-0.7-0.5
			c-0.3,0-0.6,0.2-0.7,0.5l-3.3,10c0,0.1,0,0.2,0,0.2v27.4L10,35.4c-0.2,0-0.4,0.1-0.6,0.2l-9,8.9c-0.1,0.1-0.2,0.3-0.2,0.5
			c0,0.2,0.1,0.4,0.2,0.5l9,8.9c0.1,0.1,0.3,0.2,0.5,0.2c0,0,0,0,0,0l50.7-2.9v67.7H0v1.5h129.5v-1.5H68.8z M68.8,55.4l50.5-2.9
			l8.2,8.1l-8.2,8.1l-50.5-2.9V55.4z M10.2,53.2L2,45.1l8.2-8.1l50.5,2.9v10.4L10.2,53.2z M62.2,11l2.6-7.7l2.6,7.7v108.5h-5.1V11z"
			/>
		<path fill="#231F20" d="M43.6,28.7c-2.9,0-5.3-2.4-5.3-5.3s2.4-5.3,5.3-5.3c2.9,0,5.3,2.4,5.3,5.3S46.5,28.7,43.6,28.7z
			 M43.6,19.7c-2.1,0-3.7,1.7-3.7,3.7c0,2.1,1.7,3.7,3.7,3.7s3.7-1.7,3.7-3.7C47.3,21.4,45.6,19.7,43.6,19.7z"/>
	</g>
</g>
</svg>
