<?xml version="1.0" encoding="utf-8"?>
<!-- Generator: Adobe Illustrator 18.0.0, SVG Export Plug-In . SVG Version: 6.00 Build 0)  -->
<!DOCTYPE svg PUBLIC "-//W3C//DTD SVG 1.1//EN" "http://www.w3.org/Graphics/SVG/1.1/DTD/svg11.dtd">
<svg width="100px" height="100px" version="1.1" id="Layer_1" xmlns="http://www.w3.org/2000/svg" xmlns:xlink="http://www.w3.org/1999/xlink" x="0px" y="0px"
	 viewBox="0 0 129.5 129.5" enable-background="new 0 0 129.5 129.5" xml:space="preserve">
<g>
	<g>
		<polygon fill="#CED5E0" points="50.2,113.7 64,127.5 50.2,127.5 		"/>
		<polygon fill="#FFFFFF" points="50.2,127.7 36.2,113.7 50.2,113.7 		"/>
		<polygon fill="#FF7058" points="41.2,115.8 48.1,115.8 48.1,122.7 		"/>
		<polygon fill="#84DBFF" points="108.2,8.3 108.2,100 93.9,100 93.9,14.2 30.2,14.2 30.2,8.3 		"/>
		<rect x="15.9" y="14.2" fill="#FFFFFF" width="78" height="91.7"/>
		<path fill="#231F20" d="M118.1,30.4H109v-22c0-0.4-0.3-0.8-0.8-0.8h-78c-0.4,0-0.8,0.3-0.8,0.8v5.2H15.9c-0.4,0-0.8,0.3-0.8,0.8
			v91.7c0,0.4,0.3,0.8,0.8,0.8h19.6v7.1c0,0.2,0.1,0.4,0.2,0.5l0,0l14,14l0,0c0.1,0.1,0.3,0.2,0.5,0.2h67.9c0.4,0,0.8-0.3,0.8-0.8
			V31.1C118.9,30.7,118.5,30.4,118.1,30.4z M30.9,9.1h76.5v90.1H94.7v-85c0-0.4-0.3-0.8-0.8-0.8h-63V9.1z M16.6,105.1V15h76.5v90.2
			H16.6z M38,114.5L38,114.5l11.5,0v11.5l0,0L38,114.5z M117.4,127H51v-13.3c0-0.4-0.3-0.8-0.8-0.8H36.9v-6.3h57
			c0.4,0,0.8-0.3,0.8-0.8v-5.2h13.6c0.4,0,0.8-0.3,0.8-0.8V31.9h8.4V127z"/>
		<line fill="#FFFFFF" x1="26.2" y1="24.7" x2="62.4" y2="24.7"/>
		<rect x="26.2" y="24" fill="#231F20" width="36.2" height="1.5"/>
		<line fill="#FFFFFF" x1="26.2" y1="28.4" x2="62.4" y2="28.4"/>
		<rect x="26.2" y="27.6" fill="#231F20" width="36.2" height="1.5"/>
		<line fill="#FFFFFF" x1="26.2" y1="32" x2="62.4" y2="32"/>
		<rect x="26.2" y="31.2" fill="#231F20" width="36.2" height="1.5"/>
		<line fill="#FFFFFF" x1="26.2" y1="35.6" x2="62.4" y2="35.6"/>
		<rect x="26.2" y="34.9" fill="#231F20" width="36.2" height="1.5"/>
		<line fill="#FFFFFF" x1="26.2" y1="39.2" x2="46.3" y2="39.2"/>
		<rect x="26.2" y="38.5" fill="#231F20" width="20.1" height="1.5"/>
		<line fill="#FFFFFF" x1="26.2" y1="49.2" x2="83.6" y2="49.2"/>
		<rect x="26.2" y="48.4" fill="#231F20" width="57.5" height="1.5"/>
		<line fill="#FFFFFF" x1="26.2" y1="52.8" x2="83.6" y2="52.8"/>
		<rect x="26.2" y="52.1" fill="#231F20" width="57.5" height="1.5"/>
		<line fill="#FFFFFF" x1="26.2" y1="56.4" x2="83.6" y2="56.4"/>
		<rect x="26.2" y="55.7" fill="#231F20" width="57.5" height="1.5"/>
		<line fill="#FFFFFF" x1="26.2" y1="60.1" x2="83.6" y2="60.1"/>
		<rect x="26.2" y="59.3" fill="#231F20" width="57.5" height="1.5"/>
		<line fill="#FFFFFF" x1="26.2" y1="63.7" x2="58" y2="63.7"/>
		<rect x="26.2" y="62.9" fill="#231F20" width="31.9" height="1.5"/>
		<line fill="#FFFFFF" x1="26.2" y1="100" x2="26.2" y2="86.2"/>
		<rect x="25.4" y="86.2" fill="#231F20" width="1.5" height="13.8"/>
		<line fill="#FFFFFF" x1="30.6" y1="100" x2="30.6" y2="92.5"/>
		<rect x="29.8" y="92.5" fill="#231F20" width="1.5" height="7.5"/>
		<line fill="#FFFFFF" x1="35" y1="100" x2="35" y2="84.3"/>
		<rect x="34.2" y="84.3" fill="#231F20" width="1.5" height="15.7"/>
		<line fill="#FFFFFF" x1="39.4" y1="100" x2="39.4" y2="81.5"/>
		<rect x="38.7" y="81.5" fill="#231F20" width="1.5" height="18.5"/>
		<line fill="#FFFFFF" x1="43.8" y1="100" x2="43.8" y2="92.5"/>
		<rect x="43.1" y="92.5" fill="#231F20" width="1.5" height="7.5"/>
		<line fill="#FFFFFF" x1="48.2" y1="100" x2="48.2" y2="86.2"/>
		<rect x="47.5" y="86.2" fill="#231F20" width="1.5" height="13.8"/>
		<line fill="#FFFFFF" x1="52.7" y1="100" x2="52.7" y2="79.4"/>
		<rect x="51.9" y="79.4" fill="#231F20" width="1.5" height="20.5"/>
		<line fill="#FFFFFF" x1="57.1" y1="100" x2="57.1" y2="86.2"/>
		<rect x="56.3" y="86.2" fill="#231F20" width="1.5" height="13.8"/>
		<line fill="#FFFFFF" x1="61.5" y1="100" x2="61.5" y2="77.5"/>
		<rect x="60.7" y="77.5" fill="#231F20" width="1.5" height="22.5"/>
		<line fill="#FFFFFF" x1="65.9" y1="100" x2="65.9" y2="81.5"/>
		<rect x="65.2" y="81.5" fill="#231F20" width="1.5" height="18.5"/>
		<line fill="#FFFFFF" x1="70.3" y1="100" x2="70.3" y2="92.5"/>
		<rect x="69.6" y="92.5" fill="#231F20" width="1.5" height="7.5"/>
		<line fill="#FFFFFF" x1="74.7" y1="100" x2="74.7" y2="87.3"/>
		<rect x="74" y="87.3" fill="#231F20" width="1.5" height="12.7"/>
		<line fill="#FFFFFF" x1="79.2" y1="100" x2="79.2" y2="72.4"/>
		<rect x="78.4" y="72.4" fill="#231F20" width="1.5" height="27.6"/>
		<line fill="#FFFFFF" x1="83.6" y1="100" x2="83.6" y2="81.5"/>
		<rect x="82.8" y="81.5" fill="#231F20" width="1.5" height="18.5"/>
		<path fill="#231F20" d="M127.4,3.9c-0.2,0-0.4-0.1-0.5-0.2c-0.3-0.3-0.3-0.8,0-1.1l1.3-1.3c0.3-0.3,0.8-0.3,1.1,0
			c0.3,0.3,0.3,0.8,0,1.1l-1.3,1.3C127.8,3.8,127.6,3.9,127.4,3.9z"/>
		<path fill="#231F20" d="M123.2,8c-0.2,0-0.4-0.1-0.5-0.2c-0.3-0.3-0.3-0.8,0-1.1l1.3-1.3c0.3-0.3,0.8-0.3,1.1,0
			c0.3,0.3,0.3,0.8,0,1.1l-1.3,1.3C123.6,8,123.4,8,123.2,8z"/>
		<path fill="#231F20" d="M128.8,8c-0.2,0-0.4-0.1-0.5-0.2l-1.3-1.3c-0.3-0.3-0.3-0.8,0-1.1c0.3-0.3,0.8-0.3,1.1,0l1.3,1.3
			c0.3,0.3,0.3,0.8,0,1.1C129.1,8,128.9,8,128.8,8z"/>
		<path fill="#231F20" d="M124.6,3.9c-0.2,0-0.4-0.1-0.5-0.2l-1.3-1.3c-0.3-0.3-0.3-0.8,0-1.1c0.3-0.3,0.8-0.3,1.1,0l1.3,1.3
			c0.3,0.3,0.3,0.8,0,1.1C125,3.8,124.8,3.9,124.6,3.9z"/>
		<path fill="#231F20" d="M4.9,34.9c-0.2,0-0.4-0.1-0.5-0.2c-0.3-0.3-0.3-0.8,0-1.1l1.3-1.3C6,32,6.5,32,6.8,32.3
			c0.3,0.3,0.3,0.8,0,1.1l-1.3,1.3C5.3,34.9,5.1,34.9,4.9,34.9z"/>
		<path fill="#231F20" d="M0.8,39.1c-0.2,0-0.4-0.1-0.5-0.2c-0.3-0.3-0.3-0.8,0-1.1l1.3-1.3c0.3-0.3,0.8-0.3,1.1,0
			c0.3,0.3,0.3,0.8,0,1.1l-1.3,1.3C1.1,39,0.9,39.1,0.8,39.1z"/>
		<path fill="#231F20" d="M6.3,39.1c-0.2,0-0.4-0.1-0.5-0.2l-1.3-1.3c-0.3-0.3-0.3-0.8,0-1.1c0.3-0.3,0.8-0.3,1.1,0l1.3,1.3
			c0.3,0.3,0.3,0.8,0,1.1C6.6,39,6.4,39.1,6.3,39.1z"/>
		<path fill="#231F20" d="M2.1,34.9c-0.2,0-0.4-0.1-0.5-0.2l-1.3-1.3c-0.3-0.3-0.3-0.8,0-1.1C0.5,32,1,32,1.3,32.3l1.3,1.3
			c0.3,0.3,0.3,0.8,0,1.1C2.5,34.9,2.3,34.9,2.1,34.9z"/>
		<path fill="#231F20" d="M27.6,118.6c-0.2,0-0.4-0.1-0.5-0.2c-0.3-0.3-0.3-0.8,0-1.1l1.3-1.3c0.3-0.3,0.8-0.3,1.1,0
			c0.3,0.3,0.3,0.8,0,1.1l-1.3,1.3C28,118.5,27.8,118.6,27.6,118.6z"/>
		<path fill="#231F20" d="M23.4,122.8c-0.2,0-0.4-0.1-0.5-0.2c-0.3-0.3-0.3-0.8,0-1.1l1.3-1.3c0.3-0.3,0.8-0.3,1.1,0
			c0.3,0.3,0.3,0.8,0,1.1l-1.3,1.3C23.8,122.7,23.6,122.8,23.4,122.8z"/>
		<path fill="#231F20" d="M28.9,122.8c-0.2,0-0.4-0.1-0.5-0.2l-1.3-1.3c-0.3-0.3-0.3-0.8,0-1.1c0.3-0.3,0.8-0.3,1.1,0l1.3,1.3
			c0.3,0.3,0.3,0.8,0,1.1C29.3,122.7,29.1,122.8,28.9,122.8z"/>
		<path fill="#231F20" d="M24.7,118.6c-0.2,0-0.4-0.1-0.5-0.2l-1.3-1.3c-0.3-0.3-0.3-0.8,0-1.1c0.3-0.3,0.8-0.3,1.1,0l1.3,1.3
			c0.3,0.3,0.3,0.8,0,1.1C25.1,118.5,24.9,118.6,24.7,118.6z"/>
	</g>
</g>
</svg>
