<svg xmlns="http://www.w3.org/2000/svg" xmlns:xlink="http://www.w3.org/1999/xlink" viewBox="0 0 129.5 129.5"><style><![CDATA[.B{fill:#231F20}.C{fill:#fff}]]></style><path d="M120.9 2.9l-3.5-1.6-.1.2c-.8 1.3-2.2 2.1-3.7 2h-.9c-1.5 0-2.9-.8-3.6-2.2l-.1-.2-3.5 1.4.1.2c.4 1.5-.1 3-1.3 4l-.6.6c-1.1 1.1-2.6 1.5-4.1 1l-.2-.1-1.6 3.5.2.1c1.3.8 2.1 2.2 2 3.7v.9c0 1.5-.8 2.9-2.2 3.6l-.2.1 1.4 3.5.2-.1c1.5-.4 3 .1 4 1.3l.6.6c1.1 1.1 1.5 2.6 1 4.1l-.1.2 3.5 1.6.1-.2c.8-1.3 2.2-2.1 3.7-2h.9c1.5 0 2.9.8 3.6 2.2l.1.2 3.5-1.4-.1-.2c-.4-1.5.1-3 1.3-4l.6-.6c1.1-1.1 2.6-1.5 4.1-1l.2.1 1.6-3.5-.2-.1c-1.3-.8-2.1-2.2-2-3.7v-.9c0-1.5.8-2.9 2.2-3.6l.2-.1-1.4-3.5-.2.1c-1.5.4-3-.1-4-1.3l-.6-.6c-1.1-1.1-1.5-2.6-1-4.1l.1-.2z" class="C"/><path d="M116.5 32.5c-.3 0-.5-.2-.7-.4l-.1-.2c-.5-1.1-1.7-1.7-2.9-1.7h-1c-1.3-.1-2.4.5-3 1.6l-.1.2c-.2.3-.6.5-1 .3l-3.5-1.6c-.4-.2-.5-.6-.4-.9l.1-.2c.4-1.1.1-2.4-.8-3.3-.2-.2-.4-.5-.6-.7-.8-.9-2.1-1.4-3.3-1l-.2-.1c-.4.1-.8-.1-.9-.5l-1.3-3.5c-.1-.4 0-.8.4-.9l.2-.1c1.1-.5 1.8-1.7 1.7-2.9v-.9c.1-1.3-.5-2.4-1.6-3l-.2-.1c-.3-.2-.5-.6-.3-1L98.6 8c.2-.4.6-.5.9-.4l.2.1c1.1.4 2.4 0 3.3-.8.2-.2.5-.4.7-.6 1-.9 1.4-2.1 1-3.3l-.1-.2c-.1-.4.1-.8.5-.9l3.5-1.4c.4-.1.8 0 .9.4l.1.2c.5 1.1 1.7 1.7 2.9 1.7h1c1.3.1 2.4-.5 3-1.6l.1-.2c.2-.3.6-.5 1-.3l3.5 1.6c.4.2.5.6.4.9l-.1.2c-.4 1.1-.1 2.4.8 3.3.2.2.4.5.7.7.8.9 2.1 1.4 3.3 1l.2-.1c.4-.1.8.1.9.5l1.4 3.5c.1.4 0 .8-.4.9l-.2.1c-1.1.5-1.8 1.7-1.7 2.9v.9c-.1 1.3.5 2.4 1.6 3l.2.1c.3.2.5.6.3 1l-1.6 3.5c-.2.4-.6.5-.9.4l-.2-.1c-1.1-.4-2.4 0-3.3.8-.2.2-.5.4-.7.6-1 .9-1.4 2.1-1 3.3l.1.2c.1.4-.1.8-.5.9l-3.5 1.4c-.2.3-.3.3-.4.3zm-4.8-3.9h1.1c1.8 0 3.3.8 4.1 2.2l2.3-.9c-.3-1.6.3-3.2 1.6-4.4l.6-.6c1.2-1.2 2.9-1.7 4.4-1.3l1-2.3c-1.3-.9-2.1-2.5-2-4.2v-.8c0-1.7.8-3.2 2.2-4.1l-.9-2.3c-1.6.3-3.2-.3-4.4-1.6l-.6-.6c-1.2-1.2-1.7-2.9-1.3-4.4l-2.3-1c-.9 1.3-2.5 2.1-4.2 2h-.8c-1.8 0-3.3-.8-4.1-2.2l-2.3.9c.3 1.6-.3 3.2-1.6 4.4l-.6.6c-1.2 1.2-2.9 1.7-4.4 1.3l-1 2.3c1.3.9 2.1 2.5 2 4.2v.8c0 1.7-.8 3.2-2.2 4.1l.9 2.3c1.6-.3 3.2.3 4.4 1.6l.6.6c1.2 1.2 1.7 2.9 1.3 4.4l2.3 1c.8-1.3 2.3-2 3.9-2zm.7-1.6c-.4 0-.7 0-1.1-.1l.2-1.5c.3 0 .6.1.9.1V27zm2.1-.2l-.3-1.5c.3-.1.6-.1.9-.2l.4 1.4c-.2.2-.6.3-1 .3zm-5.3-.4l-.8-.3-.2-.1.6-1.4.2.1c.2.1.5.2.7.3l-.5 1.4zm8.4-.6l-.7-1.3c.3-.1.5-.3.8-.5l.8 1.3c-.3.2-.6.3-.9.5zm-11.2-.9c-.3-.2-.6-.4-.8-.7l1-1.1c.2.2.5.4.7.6l-.9 1.2zm13.8-1l-1.1-1.1c.2-.2.4-.4.6-.7l1.2 1c-.2.3-.4.6-.7.8zm-16-1.3l-.6-.9 1.3-.7.5.8-1.2.8zm17.9-1.3l-1.3-.7c.1-.2.2-.3.2-.5.1-.1.1-.2.1-.3l1.4.6c-.1.1-.1.3-.2.4 0 .1-.1.3-.2.5zm-19.4-1.6l-.3-1 1.5-.3c.1.3.1.6.2.9l-1.4.4zm20.5-1.4l-1.5-.3c.1-.3.1-.6.1-.9l1.5.1c0 .4-.1.7-.1 1.1zm-20.6-1.8h-.4v-1l1.5.1v.8l-1.1.1zm19.1-1.2c0-.3-.1-.6-.2-.9l1.5-.4c.1.3.1.7.2 1.1l-1.5.2zm-17.6-1.5l-1.4-.4c.1-.3.2-.7.4-1l1.4.6c-.2.2-.3.5-.4.8zm16.9-1.2c-.1-.3-.3-.6-.4-.8l1.3-.8c.2.3.4.6.5 1l-1.4.6zm-15.7-1.3l-1.2-.8c.2-.3.4-.6.7-.9l1.1 1c-.2.2-.4.4-.6.7zm14.1-1c-.2-.2-.4-.4-.7-.6l1-1.1c.3.2.5.5.8.8l-1.1.9zm-12.2-1l-.9-1.2.9-.6.8 1.3c-.3.1-.6.3-.8.5zm10.1-.7c-.3-.2-.5-.3-.8-.4l.6-1.4a4.67 4.67 0 0 1 1 .5l-.8 1.3zm-1.4-.7l-.9-.3.4-1.5 1 .3-.5 1.5zm-6.3 0l-.5-1.4 1-.3.4 1.5c-.3 0-.6.1-.9.2zm3.6-.5h-.9l-.1-1.5h1.1l-.1 1.5z" class="B"/><circle cx="112.8" cy="16.4" r="7.8" fill="#E6E9EE"/><circle cx="112.8" cy="16.4" r="3.9" class="C"/><path d="M112.8 21.1c-.7 0-1.3-.1-1.9-.4-1.1-.5-2-1.4-2.4-2.6s-.4-2.4.1-3.6c.7-1.7 2.4-2.7 4.2-2.7.7 0 1.3.1 1.9.4 1.1.5 2 1.4 2.4 2.6s.4 2.4-.1 3.5c-.8 1.7-2.4 2.8-4.2 2.8zm0-7.8c-1.2 0-2.4.7-2.9 1.9-.3.8-.4 1.6-.1 2.4s.9 1.4 1.6 1.7c.4.2.8.3 1.3.3 1.2 0 2.4-.7 2.9-1.9.3-.8.4-1.6.1-2.4s-.9-1.4-1.6-1.7c-.5-.2-.9-.3-1.3-.3z" class="B"/><path d="M67.9,88.1" fill="none" stroke="#231F20" stroke-width="1.5" stroke-miterlimit="10"/><circle cx="67.9" cy="58.5" r="16.1" fill="#FFD05B"/><g class="B"><path d="M67.2 31.5h1.5v4.1h-1.5zm23.7 26.3H95v1.5h-4.1zm-50 0H45v1.5h-4.1zm45.573-18.966l1.06 1.06-2.9 2.9-1.06-1.06zm-35.35 35.43l1.06 1.06-2.9 2.9-1.06-1.06zm33.62-.043l2.9 2.9-1.06 1.06-2.9-2.9zM49.32 38.877l2.9 2.9-1.06 1.06-2.9-2.9zm8.908-5.627l1.57 3.788-1.386.574-1.57-3.788zM92.633 47.5l.574 1.386-3.788 1.57-.574-1.386zM46.376 66.664l.574 1.386-3.788 1.57-.574-1.386zm31.154-33.4l1.386.574-1.57 3.788-1.386-.574zM89.455 66.6l3.788 1.57-.574 1.386-3.788-1.57zM43.24 47.488l3.788 1.57-.574 1.386-3.788-1.57zM69.3 3.1c-.2 0-.4-.1-.5-.2-.3-.3-.3-.8 0-1.1L70 .5c.3-.3.8-.3 1.1 0s.3.8 0 1.1l-1.3 1.3c-.1.1-.3.2-.5.2zm-4 4c-.2 0-.4-.1-.5-.2-.3-.3-.3-.8 0-1.1L66 4.5c.3-.3.8-.3 1.1 0s.3.8 0 1.1l-1.3 1.3c-.2.1-.4.2-.5.2z"/><use xlink:href="#B"/><use xlink:href="#B" x="-4.1" y="-4"/><path d="M127.5 60.6c-.2 0-.4-.1-.5-.2-.3-.3-.3-.8 0-1.1l1.3-1.3c.3-.3.8-.3 1.1 0s.3.8 0 1.1l-1.3 1.3c-.3.1-.4.2-.6.2z"/><use xlink:href="#C"/><path d="M128.8 64.6c-.2 0-.4-.1-.5-.2l-1.3-1.3c-.3-.3-.3-.8 0-1.1s.8-.3 1.1 0l1.3 1.3c.3.3.3.8 0 1.1-.3.1-.5.2-.6.2z"/><use xlink:href="#B" x="54.1" y="53.5"/><path d="M16.2 53.1c-.2 0-.4-.1-.5-.2-.3-.3-.3-.8 0-1.1l1.3-1.3c.3-.3.8-.3 1.1 0s.3.8 0 1.1l-1.3 1.3c-.3.1-.5.2-.6.2z"/><use xlink:href="#C" x="-111.3" y="-7.5"/><use xlink:href="#B" x="-53.2" y="50"/><use xlink:href="#B" x="-57.2" y="46"/></g><path d="M44.6 16.9c0-.4.1-.7.1-1.1 0-5.7-4.6-10.3-10.3-10.3-1.9 0-3.7.5-5.2 1.4-2-3.5-5.8-5.9-10.1-5.9C12.7 1 7.6 6.2 7.6 12.5a12.65 12.65 0 0 0 .3 2.8C3.7 16.6.7 20.5.7 25.1.7 30.8 5.3 35.4 11 35.4h32.5c5.1 0 9.3-4.1 9.3-9.3 0-4.7-3.6-8.7-8.2-9.2z" class="C"/><path d="M88.7 58.9c0-12-10.1-21.6-22.3-20.8-10.3.7-18.6 9-19.3 19.3-.4 5.9 1.6 11.4 5.6 15.7 3.6 3.8 5.9 8.8 6.6 14.1h-2.2V97h4.1c.4 2.8 2.8 5 5.7 5h1.9c2.9 0 5.4-2.2 5.7-5h4.1v-9.7h-2.2c.7-5.3 3.1-10.2 6.8-14.3 3.6-3.8 5.5-8.8 5.5-14.1zm-19.9 41.7H67c-2.1 0-3.9-1.5-4.2-3.5h10.3c-.4 2-2.1 3.5-4.3 3.5zm8.3-5.1H58.7v-6.7h18.4v6.7zm-2.2-8.2h-6.2V61.8c.8.7 1.8 1.2 3 1.2a4.48 4.48 0 1 0 0-9c-1.6 0-2.9.8-3.7 2-.8-1.2-2.2-2-3.7-2a4.48 4.48 0 1 0 0 9c1.2 0 2.2-.4 3-1.2v25.5h-6.2c-.7-5.7-3.2-11.1-7.1-15.2-3.7-4-5.6-9.1-5.2-14.6.5-9.5 8.2-17.2 17.7-17.8 11.3-.8 20.7 8.2 20.7 19.3 0 4.9-1.8 9.5-5.1 13.1-3.9 4.2-6.4 9.5-7.2 15.2zm-6.2-28.8a3.01 3.01 0 0 1 3-3 3.01 3.01 0 0 1 3 3 3.01 3.01 0 0 1-3 3c-1.7 0-3-1.3-3-3zm-1.5 0a3.01 3.01 0 0 1-3 3 3.01 3.01 0 0 1-3-3 3.01 3.01 0 0 1 3-3 3.08 3.08 0 0 1 3 3zm32.3 30c7-7.6 10.9-17.6 10.9-28 0-22.8-18.5-41.3-41.3-41.3-5.7 0-11.2 1.2-16.2 3.3-1.2-3.2-4.1-5.6-7.6-6.3v-.4c0-6.1-5-11-11-11-1.7 0-3.4.4-4.9 1.2C27.2 2.5 23.3.3 19.1.3 12.4.3 6.9 5.8 6.9 12.5c0 .7.1 1.5.2 2.3-4.2 1.6-7 5.7-7 10.3 0 6.1 5 11 11 11h24.7a41.21 41.21 0 0 0-8 24.4c0 .7 0 1.4.1 2.2L13.5 80.9l13.3 3.6 1.6 25.9 17.4.5 3.5 18.4 1.5-.3-3.8-19.7-17.3-.4-1.6-25.6-12-3.3 13.3-16.8v-.3c-.1-.9-.1-1.7-.1-2.4 0-9.2 3.1-17.6 8.4-24.4h5.9c5.5 0 10-4.5 10-10 0-.7-.1-1.5-.2-2.1 4.8-2.1 10.1-3.3 15.7-3.3 22 0 39.8 17.9 39.8 39.8 0 10-3.8 19.6-10.6 27l-.4.5-6.5 8.1 7.1 33.1 1.5-.3-7-32.4 6.5-8zM43.6 34.7H11c-5.3 0-9.5-4.3-9.5-9.5 0-4.2 2.7-7.8 6.6-9.1l.7-.2-.2-.7c-.2-.9-.3-1.7-.3-2.6C8.3 6.7 13.1 1.9 19 1.9c3.9 0 7.5 2.1 9.4 5.5l.4.6.7-.4c1.5-.9 3.1-1.3 4.8-1.3 5.3 0 9.5 4.3 9.5 9.5 0 .3 0 .7-.1 1l-.1.7.7.1c4.3.5 7.6 4.1 7.6 8.5.2 4.7-3.6 8.6-8.3 8.6z" class="B"/><circle cx="116.6" cy="98.8" r="3.5" class="C"/><path d="M116.6 103a4.23 4.23 0 0 1-4.2-4.2 4.23 4.23 0 0 1 4.2-4.2 4.23 4.23 0 0 1 4.2 4.2 4.16 4.16 0 0 1-4.2 4.2zm0-6.9a2.69 2.69 0 1 0 0 5.4 2.69 2.69 0 0 0 2.7-2.7c.1-1.5-1.1-2.7-2.7-2.7z" class="B"/><path d="M20.1 17.8a4.23 4.23 0 0 1 4.2-4.2 4.23 4.23 0 0 1 4.2 4.2 4.17 4.17 0 0 1-1.9 3.5c-1.5.9-2.2 2.6-2.2 4.3" class="C"/><path d="M24.3 26.4c-.4 0-.8-.3-.8-.8 0-2.1 1-4 2.6-5 1-.6 1.6-1.7 1.6-2.9 0-.9-.4-1.8-1-2.4-.7-.7-1.5-1-2.4-1a3.37 3.37 0 0 0-3.4 3.4c0 .4-.3.8-.8.8-.4 0-.8-.3-.8-.8a4.91 4.91 0 0 1 4.9-4.9c1.3 0 2.5.5 3.5 1.5.9.9 1.5 2.2 1.5 3.5 0 1.7-.9 3.3-2.3 4.2-1.2.7-1.9 2.2-1.9 3.7.1.4-.3.7-.7.7z" class="B"/><path d="M24.3 27.7v1" class="C"/><path d="M24.3 29.5c-.4 0-.8-.3-.8-.8v-1c0-.4.3-.8.8-.8.4 0 .8.3.8.8v1c0 .5-.4.8-.8.8z" class="B"/><circle cx="115.1" cy="42.8" r="2" fill="#FFD05B"/><circle cx="10.1" cy="92.2" r="3.2" fill="#84DBFF"/><g fill="#E6E9EE"><circle cx="108.9" cy="112.5" r="2.9"/><circle cx="115.1" cy="78.4" r="2.9"/></g><circle cx="5.7" cy="40.4" r="2" fill="#FF7058"/><path d="M8.1 116.4h8.7" class="C"/><path d="M16.8 117.2H8.1c-.4 0-.8-.3-.8-.8 0-.4.3-.8.8-.8h8.7c.4 0 .8.3.8.8-.1.4-.4.8-.8.8z" class="B"/><path d="M15.9 119.6h4.3" class="C"/><path d="M20.2 120.3h-4.3c-.4 0-.8-.3-.8-.8 0-.4.3-.8.8-.8h4.3c.4 0 .8.3.8.8-.1.5-.4.8-.8.8z" class="B"/><path d="M20.7 116.4h4.1" class="C"/><path d="M24.8 117.2h-4.1c-.4 0-.8-.3-.8-.8 0-.4.3-.8.8-.8h4.1c.4 0 .8.3.8.8-.1.4-.4.8-.8.8z" class="B"/><path d="M12 119.6h.8" class="C"/><path d="M12.8 120.3H12c-.4 0-.8-.3-.8-.8 0-.4.3-.8.8-.8h.8c.4 0 .8.3.8.8s-.3.8-.8.8z" class="B"/><defs ><path id="B" d="M70.6 7.1c-.2 0-.4-.1-.5-.2l-1.3-1.3c-.3-.3-.3-.8 0-1.1s.8-.3 1.1 0l1.3 1.3c.3.3.3.8 0 1.1-.2.1-.4.2-.6.2z"/><path id="C" d="M123.4 64.6c-.2 0-.4-.1-.5-.2-.3-.3-.3-.8 0-1.1l1.3-1.3c.3-.3.8-.3 1.1 0s.3.8 0 1.1l-1.3 1.3c-.2.1-.4.2-.6.2z"/></defs></svg>