<svg xmlns="http://www.w3.org/2000/svg" xmlns:xlink="http://www.w3.org/1999/xlink" viewBox="0 0 129.5 129.5"><g fill="#231F20"><use xlink:href="#B"/><use xlink:href="#B" x="-3.8" y="3.8"/><use xlink:href="#C"/><use xlink:href="#C" x="-3.9" y="-3.8"/><path d="M22.5 20.2c-.2 0-.4-.1-.5-.2-.3-.3-.3-.8 0-1.1l1.2-1.2c.3-.3.8-.3 1.1 0s.3.8 0 1.1L23 20c-.1.1-.3.2-.5.2z"/><use xlink:href="#B" x="-92.5" y="10"/><path d="M23.7 24.1c-.2 0-.4-.1-.5-.2L22 22.7c-.3-.3-.3-.8 0-1.1s.8-.3 1.1 0l1.2 1.2c.3.3.3.8 0 1.1-.2.1-.4.2-.6.2z"/><use xlink:href="#C" x="-92.6" y="2.3"/><path d="M121.3 91.5c-.2 0-.4-.1-.5-.2-.3-.3-.3-.8 0-1.1L122 89c.3-.3.8-.3 1.1 0s.3.8 0 1.1l-1.2 1.2c-.2.2-.4.2-.6.2zm-3.8 3.9c-.2 0-.4-.1-.5-.2-.3-.3-.3-.8 0-1.1l1.2-1.2c.3-.3.8-.3 1.1 0s.3.8 0 1.1l-1.2 1.2c-.3.1-.4.2-.6.2z"/><use xlink:href="#C" x="10.1" y="77.5"/><path d="M118.7 91.5c-.2 0-.4-.1-.5-.2l-1.2-1.2c-.3-.3-.3-.8 0-1.1s.8-.3 1.1 0l1.2 1.2c.3.3.3.8 0 1.1-.2.2-.4.2-.6.2zM63.9 124h-1l.1-1.5h1l-.1 1.5zm2 0v-1.5h1l.1 1.5h-1.1zm-5.1-.1c-.3 0-.7-.1-1-.1l.2-1.5c.3 0 .7.1 1 .1l-.2 1.5zm8.2-.1l-.1-1.5c.3 0 .7-.1 1-.1l.2 1.5c-.5.1-.8.1-1.1.1zm-11.2-.3c-.3-.1-.7-.1-1-.2l.3-1.5c.3.1.6.1 1 .2l-.3 1.5zm14.2-.1l-.2-1.5c.3-.1.6-.1 1-.2l.3 1.5c-.5.1-.8.2-1.1.2zm-17.2-.5c-.3-.1-.7-.2-1-.2l.4-1.5c.3.1.6.2 1 .2l-.4 1.5zm20.2-.1l-.3-1.5c.3-.1.6-.2 1-.2l.4 1.5c-.5.1-.8.2-1.1.2zm-23.1-.7l-1-.3.5-1.4.9.3-.4 1.4zm26-.1l-.4-1.4.9-.3.5 1.4-1 .3zm-28.9-.9c-.3-.1-.6-.2-.9-.4l.6-1.4c.3.1.6.2.9.4l-.6 1.4zm31.8-.1l-.5-1.4c.3-.1.6-.2.9-.4l.6 1.4c-.4.2-.7.3-1 .4zm-34.7-1.1c-.3-.1-.6-.3-.9-.4l.7-1.3c.3.1.6.3.9.4l-.7 1.3zm37.5-.1l-.6-1.4c.3-.1.6-.3.9-.4l.7 1.3c-.4.2-.7.4-1 .5zm-40.2-1.3c-.3-.2-.6-.3-.9-.5l.8-1.3c.3.2.6.3.9.5l-.8 1.3zm42.9-.1l-.7-1.3c.3-.2.6-.3.9-.5l.8 1.3c-.4.2-.7.4-1 .5zM40.8 117c-.3-.2-.6-.4-.8-.6l.8-1.2c.3.2.5.4.8.5l-.8 1.3zm48.1-.2l-.8-1.3c.3-.2.5-.4.8-.5l.8 1.2c-.2.3-.5.5-.8.6zm-50.6-1.6c-.3-.2-.5-.4-.8-.6l.9-1.2c.3.2.5.4.8.6l-.9 1.2zm53.1-.1l-.9-1.2c.3-.2.5-.4.8-.6l.9 1.2c-.3.2-.5.4-.8.6zm-55.5-1.8c-.3-.2-.5-.4-.8-.7l1-1.1c.2.2.5.4.7.7l-.9 1.1zm57.8-.1l-1-1.1c.2-.2.5-.4.7-.7l1 1.1c-.1.2-.4.4-.7.7zm-60-2l-.7-.7 1.1-1 .7.7-1.1 1zm62.3-.1l-1.1-1.1.7-.7 1.1 1c-.3.3-.5.5-.7.8zM31.6 109c-.2-.3-.4-.5-.7-.8l1.2-1c.2.3.4.5.6.7l-1.1 1.1zm66.5-.2l-1.1-1c.2-.2.4-.5.6-.7l1.2 1c-.3.2-.5.5-.7.7zm-68.4-2.1c-.2-.3-.4-.5-.6-.8l1.2-.9c.2.3.4.5.6.8l-1.2.9zm70.3-.2l-1.2-.9c.2-.3.4-.5.6-.8l1.2.9c-.2.2-.4.5-.6.8zm-72.1-2.3c-.2-.3-.4-.6-.5-.9l1.3-.8.5.8-1.3.9zm73.8-.2l-1.3-.8.5-.8 1.3.8c-.1.2-.3.5-.5.8zm-75.4-2.4c-.2-.3-.3-.6-.5-.9l1.3-.7c.2.3.3.6.5.9l-1.3.7zm77-.2l-1.3-.7c.2-.3.3-.6.5-.9l1.3.7c-.2.3-.3.6-.5.9zm-78.4-2.5c-.1-.3-.3-.6-.4-.9l1.4-.6c.1.3.3.6.4.9l-1.4.6zm79.8-.3l-1.4-.6c.1-.3.3-.6.4-.9l1.4.6c-.1.3-.3.6-.4.9zm-81-2.5c-.1-.3-.2-.6-.4-1l1.4-.5.3.9-1.3.6zm82.2-.3l-1.4-.5.3-.9 1.4.5-.3.9zm-83.2-2.6l-.3-1 1.4-.4.3.9-1.4.5zm84.2-.3l-1.4-.4.3-.9 1.4.4-.3.9zm-85-2.6c-.1-.3-.2-.7-.2-1l1.5-.3c.1.3.1.6.2 1l-1.5.3zm85.8-.3l-1.5-.3c.1-.3.1-.6.2-1l1.5.3c0 .3-.1.7-.2 1zm-86.5-2.7c-.1-.3-.1-.7-.2-1l1.5-.2c0 .3.1.6.2 1l-1.5.2zm87.1-.3l-1.5-.2c.1-.3.1-.6.1-1l1.5.2c0 .3-.1.7-.1 1zm-87.5-2.7c0-.3-.1-.7-.1-1l1.5-.1c0 .3.1.7.1 1l-1.5.1zm87.9-.3l-1.5-.1c0-.3.1-.7.1-1l1.5.1c-.1.3-.1.6-.1 1zm-88-2.8v-1h1.5v1h-1.5zm88.2-.3h-1.5v-1h1.5v1zm-1.6-2.5v-1l1.5-.1v1l-1.5.1zm-85.1-.2l-1.5-.1c0-.3 0-.7.1-1l1.5.1c-.1.4-.1.7-.1 1zm84.9-2.7c0-.3-.1-.7-.1-1l1.5-.2c0 .3.1.7.1 1l-1.5.2zm-84.7-.2l-1.5-.2c0-.3.1-.7.1-1l1.5.2c0 .3-.1.7-.1 1zm84.3-2.8c-.1-.3-.1-.6-.2-1l1.5-.3c.1.3.1.7.2 1l-1.5.3zm-83.9-.1l-1.5-.3c.1-.3.1-.7.2-1l1.5.3c-.1.3-.1.6-.2 1zm83.3-2.8c-.1-.3-.2-.6-.2-1l1.4-.4.3 1-1.5.4zm-82.7-.1l-1.4-.4.3-1 1.4.4-.3 1zm81.9-2.7l-.3-.9 1.4-.5.3 1-1.4.4zm-81.1-.1l-1.4-.5.3-1 1.4.5-.3 1zm80.1-2.7c-.1-.3-.2-.6-.4-.9l1.4-.6c.1.3.3.6.4.9l-1.4.6zm-79-.1l-1.4-.6c.1-.3.3-.6.4-.9l1.4.6c-.2.3-.3.6-.4.9zm77.8-2.5c-.1-.3-.3-.6-.4-.9l1.3-.7c.2.3.3.6.5.9l-1.4.7zm-76.6-.2l-1.3-.7c.1-.3.3-.6.5-.9l1.3.7c-.2.3-.4.6-.5.9zm75.2-2.4c-.2-.3-.3-.6-.5-.8l1.3-.8c.2.3.3.6.5.9l-1.3.7zm-73.8-.2l-1.3-.8c.2-.3.3-.6.5-.9l1.3.8c-.2.3-.4.6-.5.9zm72.3-2.3c-.2-.3-.4-.5-.6-.8l1.2-.9c.2.3.4.6.6.8l-1.2.9zm-70.8-.2l-1.2-.8c.2-.3.4-.6.6-.8l1.2.9c-.2.1-.4.4-.6.7zm69.1-2.2c-.2-.3-.4-.5-.6-.8l1.2-.9c.2.3.4.5.6.8l-1.2.9zm-67.3-.2l-1.2-.9c.2-.3.4-.5.6-.8l1.2 1c-.2.2-.4.4-.6.7zm65.4-2.1c-.2-.2-.4-.5-.7-.7l1.1-1c.2.2.5.5.7.8l-1.1.9zm-63.5-.2l-1.1-1c.2-.3.5-.5.7-.8l1.1 1c-.3.4-.5.6-.7.8zm61.5-1.9l-.7-.7 1-1.1.7.7-1 1.1zm-59.5-.2l-1-1.1.7-.7 1 1.1c-.2.3-.5.5-.7.7zm57.3-1.8c-.3-.2-.5-.4-.8-.6l.9-1.2c.3.2.5.4.8.7l-.9 1.1zm-55.1-.2l-1-1.1c.3-.2.5-.4.8-.6l.9 1.2a3.04 3.04 0 0 0-.7.5zm52.8-1.7c-.3-.2-.5-.4-.8-.6l.9-1.2c.3.2.6.4.8.6l-.9 1.2zm-50.5-.1l-.9-1.2c.3-.2.5-.4.8-.6l.9 1.2c-.3.2-.5.4-.8.6zm48-1.5c-.3-.2-.6-.3-.8-.5l.8-1.3c.3.2.6.4.9.5l-.9 1.3zM42 43.9l-.8-1.3c.3-.2.6-.4.9-.5l.8 1.3c-.3.1-.6.3-.9.5zm43.1-1.4c-.3-.2-.6-.3-.9-.5l.7-1.3c.3.2.6.3.9.5l-.7 1.3zm-40.5-.1l-.7-1.3c.3-.2.6-.3.9-.5l.7 1.3-.9.5zm37.9-1.3c-.3-.1-.6-.3-.9-.4l.6-1.4c.3.1.6.3.9.4l-.6 1.4zm-35.3 0l-.6-1.4c.3-.1.6-.3.9-.4l.6 1.4c-.3.1-.6.2-.9.4zM79.7 40l-.9-.3.5-1.4 1 .3-.6 1.4zm-29.8 0l-.5-1.4 1-.3.5 1.4a1.69 1.69 0 0 0-1 .3zm27-.9l-.9-.3.4-1.4 1 .3-.5 1.4zM52.7 39l-.4-1.4 1-.3.4 1.4-1 .3zm21.4-.7c-.3-.1-.6-.1-1-.2l.3-1.5c.3.1.7.1 1 .2l-.3 1.5zm-18.5 0l-.3-1.5c.3-.1.7-.1 1-.2l.3 1.5c-.4.1-.7.1-1 .2zm15.6-.5c-.3 0-.6-.1-1-.1l.2-1.5c.3 0 .7.1 1 .1l-.2 1.5zm-12.7 0l-.2-1.5c.3 0 .7-.1 1-.1l.2 1.5c-.4 0-.7 0-1 .1zm9.8-.4c-.3 0-.7 0-1-.1l.1-1.5c.3 0 .7 0 1 .1l-.1 1.5zm-6.9 0l-.1-1.5c.3 0 .7 0 1-.1l.1 1.5c-.3.1-.7.1-1 .1zm3.9-.1h-1v-1.5h1v1.5zm-1.8 92.2c-2.4-.1-4.7-.3-7.1-.7l.3-1.5c2.3.4 4.6.6 6.9.7l-.1 1.5zm6.1-.2l-.1-1.5c2.3-.2 4.6-.6 6.8-1.1l.4 1.5c-2.4.5-4.8.8-7.1 1.1zm-19.1-1.9c-2.3-.7-4.5-1.5-6.6-2.5l.6-1.4c2.1 1 4.2 1.8 6.4 2.4l-.4 1.5zm31.9-1.1l-.5-1.4c2.1-.8 4.2-1.8 6.2-2.9l.7 1.3-6.4 3zM38.5 122c-2-1.2-3.9-2.7-5.7-4.2l1-1.1c1.8 1.5 3.6 2.8 5.6 4.1l-.9 1.2zm55.4-2l-.9-1.2c1.8-1.3 3.6-2.8 5.3-4.4l1 1.1c-1.6 1.6-3.5 3.1-5.4 4.5zm-65.5-6.4c-1.6-1.7-3.1-3.6-4.4-5.5l1.2-.9c1.3 1.9 2.7 3.7 4.3 5.4l-1.1 1zm75.1-2.7l-1.2-.9c1.4-1.8 2.8-3.7 3.9-5.7l1.3.8c-1.2 2-2.6 4-4 5.8zm-82.7-8c-1.1-2.1-2-4.3-2.8-6.5l1.4-.5c.8 2.2 1.7 4.3 2.7 6.3l-1.3.7zm89.5-3.2l-1.4-.6c.9-2.1 1.7-4.3 2.3-6.5l1.4.4c-.6 2.2-1.4 4.5-2.3 6.7zm-94-9.2c-.5-2.3-.8-4.7-1-7l1.5-.1c.2 2.3.5 4.6 1 6.8l-1.5.3zm97.5-3.5l-1.5-.2c.3-2.3.5-4.6.5-6.9h1.5c0 2.4-.1 4.8-.5 7.1zm-1-8.1c0-2.3-.3-4.6-.6-6.9l1.5-.2c.4 2.3.6 4.7.6 7.1h-1.5zm-96.1-1.4l-1.5-.1a40.62 40.62 0 0 1 .9-7l1.5.3a38.36 38.36 0 0 0-.9 6.8zm94.2-11.2c-.6-2.2-1.5-4.4-2.4-6.4l1.4-.6c1 2.1 1.8 4.4 2.5 6.6l-1.5.4zM19 64.9l-1.4-.5c.7-2.2 1.6-4.5 2.7-6.6l1.3.7c-1 2.1-1.8 4.2-2.6 6.4zm86.7-10.2c-1.2-1.9-2.6-3.8-4-5.6l1.2-1c1.5 1.8 2.9 3.7 4.2 5.8l-1.4.8zm-81.1-1.3l-1.3-.8c1.3-2 2.8-3.9 4.3-5.6l1.1 1-4.1 5.4zm73-8.6c-1.7-1.6-3.5-3-5.3-4.3l.9-1.2c1.9 1.4 3.8 2.9 5.5 4.5l-1.1 1zm-64.6-1l-1-1.1c1.8-1.6 3.7-3 5.6-4.3l.8 1.3c-1.8 1.2-3.7 2.6-5.4 4.1zm54.2-6.4c-2-1.1-4.1-2-6.3-2.8l.5-1.4c2.2.8 4.4 1.8 6.5 2.9l-.7 1.3zm-43.6-.7l-.7-1.3c2.1-1 4.3-1.9 6.6-2.7l.5 1.4c-2.2.7-4.3 1.6-6.4 2.6zM75.2 33c-2.2-.5-4.5-.8-6.8-1l.1-1.5c2.4.2 4.7.5 7 1l-.3 1.5zm-19.5-.3l-.3-1.5c2.3-.4 4.7-.7 7.1-.8l.1 1.5c-2.4.1-4.7.3-6.9.8z"/></g><g fill="#fff"><path d="M112.6 81.2c0 7.4-5 16.4-11.1 16.4s-11.1-9-11.1-16.4 5-10.3 11.1-10.3 11.1 2.9 11.1 10.3z"/><path d="M124 111.4c-4.9 7.2-13.2 11.9-22.5 11.9s-17.6-4.7-22.5-11.9c1.5-5 6.1-8.7 11.7-8.7h.3a6.49 6.49 0 0 0 6.5-6.5c1.3.9 2.6 1.4 4.1 1.4s2.8-.5 4.1-1.4a6.42 6.42 0 0 0 6.5 6.5h.3c5.4 0 10.1 3.6 11.5 8.7z"/><path d="M115.2 119.6v-5m-27.4 5v-5"/></g><use xlink:href="#D" fill="#E6E9EE"/><path d="M105.3 116.3l-3.8 4-3.8-4 2.3-9.6-.7-2.3h4.4l-.7 2.3z" fill="#FF7058"/><g fill="#fff"><path d="M38.8 81.2c0 7.4-5 16.4-11.1 16.4s-11.1-9-11.1-16.4 5-10.3 11.1-10.3 11.1 2.9 11.1 10.3z"/><path d="M50.3 111.4c-4.9 7.2-13.2 11.9-22.5 11.9-9.4 0-17.6-4.7-22.5-11.9 1.5-5 6.1-8.7 11.7-8.7h.3a6.49 6.49 0 0 0 6.5-6.5c1.3.9 2.6 1.4 4.1 1.4s2.8-.5 4.1-1.4a6.42 6.42 0 0 0 1.9 4.6 6.42 6.42 0 0 0 4.6 1.9h.3c5.3 0 10 3.6 11.5 8.7z"/></g><use xlink:href="#D" x="-73.8" fill="#E6E9EE"/><path d="M31.6 116.3l-3.9 4-3.8-4 2.3-9.6-.7-2.3h4.4l-.7 2.3z" fill="#FFD05B"/><path d="M115.2 113.1v-1.5m-27.4 1.5v-1.5" fill="#fff"/><path d="M124.8 111.2c-1.6-5.4-6.7-9.3-12.4-9.3h-.3c-1.5 0-3-.6-4-1.7-1-1-1.6-2.3-1.6-3.7 4.1-3.1 6.9-9.6 6.9-15.3 0-7-4.3-11-11.8-11s-11.8 4-11.8 11c0 5.7 2.8 12.3 6.9 15.3-.2 3-2.7 5.4-5.7 5.4h-.3c-5.7 0-10.8 3.8-12.4 9.3-.1.2 0 .4.1.6 5.2 7.7 13.9 12.2 23.2 12.2s17.9-4.6 23.2-12.2v-.6zm-23.3-39.5c3.9 0 10.3 1.2 10.3 9.5 0 .8-.1 1.6-.2 2.3-10.6-3.7-12.3-9.2-12.4-9.3-.1-.3-.4-.6-.7-.6-.4 0-.6.3-.7.6 0 .3-1.1 6.4-6.6 7.5V81c0-8.1 6.4-9.3 10.3-9.3zM91.3 83.4c4.5-.8 6.6-4.5 7.4-6.9 1.4 2.2 4.8 5.8 12.6 8.5-1.3 6-5.3 11.8-9.9 11.8-4.9 0-9.2-6.9-10.1-13.4zm24.6 34.9v-3.6h-1.5v4.6a26.16 26.16 0 0 1-25.8 0v-4.6h-1.5v3.7c-2.8-1.8-5.3-4.2-7.3-7 1.5-4.6 5.9-7.8 10.8-7.8h.3c3.6 0 6.5-2.6 7.1-6 1.1.6 2.3.9 3.5.9s2.4-.3 3.5-.9c.3 1.5.9 2.8 2 3.9 1.4 1.4 3.2 2.1 5.1 2.1h.3c4.9 0 9.3 3.2 10.8 7.8-2 2.7-4.5 5-7.3 6.9zm-1.5-6.7h1.5v1.4h-1.5zm-27.3 0h1.5v1.4h-1.5zm-36.1-.4c-1.6-5.4-6.7-9.3-12.4-9.3h-.3c-1.5 0-3-.6-4-1.7-1-1-1.6-2.3-1.6-3.7 4.1-3.1 6.9-9.6 6.9-15.3 0-7-4.3-11-11.8-11s-11.8 4-11.8 11c0 5.7 2.8 12.3 6.9 15.3-.2 3-2.7 5.4-5.7 5.4h-.3c-5.7 0-10.8 3.8-12.4 9.3-.1.2 0 .4.1.6 5.2 7.7 13.9 12.2 23.2 12.2s17.9-4.6 23.2-12.2v-.6zM27.7 71.7c3.9 0 10.3 1.2 10.3 9.5 0 .8-.1 1.6-.2 2.3-10.6-3.7-12.3-9.2-12.4-9.3-.1-.3-.4-.6-.7-.6-.4 0-.6.3-.7.6 0 .3-1.1 6.4-6.6 7.5V81c0-8.1 6.5-9.3 10.3-9.3zM17.6 83.4c4.5-.8 6.6-4.5 7.4-6.9 1.4 2.2 4.8 5.8 12.6 8.5-1.3 6-5.3 11.8-9.9 11.8-5 0-9.3-6.9-10.1-13.4zm24.5 34.9v-3.6h-1.5v4.6a26.16 26.16 0 0 1-25.8 0v-4.6h-1.5v3.7c-2.8-1.8-5.3-4.2-7.3-7 1.5-4.6 5.9-7.8 10.8-7.8h.3c3.6 0 6.5-2.6 7.1-6 1.1.6 2.3.9 3.5.9s2.4-.3 3.5-.9c.3 1.5.9 2.8 2 3.9 1.4 1.4 3.2 2.1 5.1 2.1h.3c4.9 0 9.3 3.2 10.8 7.8-1.9 2.7-4.4 5-7.3 6.9zm-1.5-6.7h1.5v1.4h-1.5zm-27.3 0h1.5v1.4h-1.5z" fill="#231F20"/><g fill="#fff"><path d="M41.4 113.1v-1.5M75.8 11c0 7.4-5 16.4-11.1 16.4s-11.1-9-11.1-16.4S58.6.7 64.7.7c6.2.1 11.1 3 11.1 10.3z"/><path d="M87.3 41.2c-4.9 7.2-13.2 11.9-22.5 11.9-9.4 0-17.6-4.7-22.5-11.9 1.5-5 6.1-8.7 11.7-8.7h.3a6.49 6.49 0 0 0 6.5-6.5c1.3.9 2.6 1.4 4.1 1.4s2.8-.5 4.1-1.4a6.42 6.42 0 0 0 1.9 4.6 6.42 6.42 0 0 0 4.6 1.9h.3c5.4 0 10 3.7 11.5 8.7z"/></g><path d="M64.8.8c-6.1 0-11.1 2.9-11.1 10.3 0 .5 0 1 .1 1.6 6.8-.8 8.1-8.3 8.1-8.3s1.7 6.2 13.7 10.1c.2-1.1.3-2.3.3-3.3C75.8 3.7 70.9.8 64.8.8z" fill="#E6E9EE"/><path d="M68.6 46.1l-3.8 4-3.9-4 2.3-9.5-.6-2.3h4.3l-.6 2.3z" fill="#84DBFF"/><path d="M65.5 80.5V65.2H64v15.3L51.8 91.8l1 1.1 11.9-11 12 11 1-1.1zM18.2 45.2h-7.7c-.4 0-.8-.3-.8-.8 0-.4.3-.8.8-.8h7.7c.4 0 .8.3.8.8s-.3.8-.8.8zm3.1 2.8h-3.8c-.4 0-.8-.3-.8-.8 0-.4.3-.8.8-.8h3.8c.4 0 .8.3.8.8-.1.5-.4.8-.8.8zM88 41c-1.6-5.4-6.7-9.3-12.4-9.3h-.3c-1.5 0-3-.6-4-1.7-1-1-1.6-2.3-1.6-3.7 4.1-3.1 6.9-9.6 6.9-15.3 0-7-4.3-11-11.8-11S53 4 53 11c0 5.7 2.8 12.3 6.9 15.3-.2 3-2.7 5.4-5.7 5.4h-.3c-5.7 0-10.8 3.8-12.4 9.3-.1.2 0 .4.1.6 5.2 7.7 13.9 12.2 23.2 12.2S82.7 49.2 88 41.6c0-.1.1-.4 0-.6zM64.8 1.5c3.9 0 10.3 1.2 10.3 9.5 0 .8-.1 1.6-.2 2.3-10.6-3.6-12.4-9.2-12.4-9.2-.1-.3-.4-.6-.7-.6-.4 0-.6.3-.7.6 0 .3-1.1 6.4-6.6 7.5v-.7c-.1-8.2 6.4-9.4 10.3-9.4zM54.6 13.2c4.5-.8 6.6-4.5 7.4-6.9 1.4 2.2 4.8 5.8 12.6 8.5-1.3 6-5.3 11.8-9.9 11.8-4.9.1-9.3-6.9-10.1-13.4zm24.6 34.9v-3.6h-1.5V49a26.16 26.16 0 0 1-25.8 0v-4.6h-1.5v3.7c-2.8-1.8-5.3-4.2-7.3-7 1.5-4.6 5.9-7.8 10.8-7.8h.3c3.6 0 6.5-2.6 7.1-6 1.1.6 2.3.9 3.5.9s2.4-.3 3.5-.9c.3 1.5.9 2.8 2 3.9 1.4 1.4 3.2 2.1 5.1 2.1h.3c4.9 0 9.3 3.2 10.8 7.8-2 2.8-4.5 5.2-7.3 7zm-1.5-6.6h1.5v1.4h-1.5zm-27.4 0h1.5v1.4h-1.5zm-24.9 3.7h-3.6c-.4 0-.8-.3-.8-.8 0-.4.3-.8.8-.8h3.6c.4 0 .8.3.8.8-.1.5-.4.8-.8.8zM14.7 48H14c-.4 0-.8-.3-.8-.8 0-.4.3-.8.8-.8h.7c.4 0 .8.3.8.8s-.3.8-.8.8zm98.2-14.4h-7.7c-.4 0-.8-.3-.8-.8 0-.4.3-.8.8-.8h7.7c.4 0 .8.3.8.8-.1.5-.4.8-.8.8zm3 2.8h-3.8c-.4 0-.8-.3-.8-.8 0-.4.3-.8.8-.8h3.8c.4 0 .8.3.8.8s-.4.8-.8.8zm4.1-2.8h-3.6c-.4 0-.8-.3-.8-.8 0-.4.3-.8.8-.8h3.6c.4 0 .8.3.8.8-.1.5-.4.8-.8.8zm-10.6 2.8h-.7c-.4 0-.8-.3-.8-.8 0-.4.3-.8.8-.8h.7c.4 0 .8.3.8.8-.1.5-.4.8-.8.8z" fill="#231F20"/><circle cx="33.7" cy="5" r="4.2" fill="#84DBFF"/><circle cx="90.4" cy="22.1" r="3" fill="#FFD05B"/><circle cx="123" cy="59" r="3" fill="#84DBFF"/><circle cx="6.5" cy="92.1" r="3" fill="#FF7058"/><defs ><path id="B" d="M111.1 14.1c-.2 0-.4-.1-.5-.2-.3-.3-.3-.8 0-1.1l1.2-1.2c.3-.3.8-.3 1.1 0s.3.8 0 1.1l-1.2 1.2c-.2.1-.4.2-.6.2z"/><path id="C" d="M112.4 17.9c-.2 0-.4-.1-.5-.2l-1.2-1.2c-.3-.3-.3-.8 0-1.1s.8-.3 1.1 0l1.2 1.2c.3.3.3.8 0 1.1-.2.1-.4.2-.6.2z"/><path id="D" d="M101.5 70.9c-6.1 0-11.1 2.9-11.1 10.3 0 .5 0 1 .1 1.6 6.8-.8 8.1-8.3 8.1-8.3s1.7 6.2 13.7 10.1c.2-1.1.3-2.3.3-3.3 0-7.5-5-10.4-11.1-10.4z"/></defs></svg>