<svg xmlns="http://www.w3.org/2000/svg" xmlns:xlink="http://www.w3.org/1999/xlink" viewBox="0 0 129.5 129.5"><style><![CDATA[.L{fill:#fff}.M{fill:#ACB3BA}.N{fill:#FF7058}.O{fill:#FFD05B}.P{fill:#84DBFF}]]></style><path d="M123.6 11.1h-33c-2.8 0-5.1-2.3-5.1-5.1S87.8.9 90.6.9h33c2.8 0 5.1 2.3 5.1 5.1s-2.3 5.1-5.1 5.1zm0 13.7h-33c-2.8 0-5.1-2.3-5.1-5.1s2.3-5.1 5.1-5.1h33c2.8 0 5.1 2.3 5.1 5.1s-2.3 5.1-5.1 5.1zm0 13.7h-33c-2.8 0-5.1-2.3-5.1-5.1s2.3-5.1 5.1-5.1h33c2.8 0 5.1 2.3 5.1 5.1s-2.3 5.1-5.1 5.1z" class="L"/><circle cx="123.6" cy="5.7" r="1.9" class="N"/><circle cx="118" cy="5.7" r="1.9" class="O"/><circle cx="112.4" cy="5.7" r="1.9" class="P"/><path d="M91.1 3.6v4.7" class="L"/><use xlink:href="#B" class="M"/><path d="M93.4 3.6v4.7" class="L"/><use xlink:href="#B" x="2.3" class="M"/><path d="M95.7 3.6v4.7" class="L"/><use xlink:href="#B" x="4.6" class="M"/><path d="M98.1 3.6v4.7" class="L"/><path d="M98.1 8.8a.47.47 0 0 1-.5-.5V3.6a.47.47 0 1 1 1 0v4.7c0 .3-.3.5-.5.5z" class="M"/><path d="M100.5 3.6v4.7" class="L"/><use xlink:href="#B" x="9.4" class="M"/><path d="M103 3.6v4.7" class="L"/><path d="M103 8.8a.47.47 0 0 1-.5-.5V3.6a.47.47 0 1 1 1 0v4.7c0 .3-.3.5-.5.5z" class="M"/><path d="M105.4 3.6v4.7" class="L"/><use xlink:href="#B" x="14.3" class="M"/><circle cx="123.6" cy="19.7" r="1.9" class="N"/><circle cx="118" cy="19.7" r="1.9" class="O"/><circle cx="112.4" cy="19.7" r="1.9" class="P"/><path d="M91.1 17.3V22" class="L"/><use xlink:href="#C" class="M"/><path d="M93.4 17.3V22" class="L"/><use xlink:href="#C" x="2.3" class="M"/><path d="M95.7 17.3V22" class="L"/><use xlink:href="#C" x="4.6" class="M"/><path d="M98.1 17.3V22" class="L"/><path d="M98.1 22.5a.47.47 0 0 1-.5-.5v-4.7a.47.47 0 1 1 1 0V22c0 .3-.3.5-.5.5z" class="M"/><path d="M100.5 17.3V22" class="L"/><use xlink:href="#C" x="9.4" class="M"/><path d="M103 17.3V22" class="L"/><path d="M103 22.5a.47.47 0 0 1-.5-.5v-4.7a.47.47 0 1 1 1 0V22c0 .3-.3.5-.5.5z" class="M"/><path d="M105.4 17.3V22" class="L"/><use xlink:href="#C" x="14.3" class="M"/><circle cx="123.6" cy="33.4" r="1.9" class="N"/><circle cx="118" cy="33.4" r="1.9" class="O"/><circle cx="112.4" cy="33.4" r="1.9" class="P"/><path d="M91.1 31.1v4.7" class="L"/><use xlink:href="#D" class="M"/><path d="M93.4 31.1v4.7" class="L"/><use xlink:href="#D" x="2.3" class="M"/><path d="M95.7 31.1v4.7" class="L"/><use xlink:href="#D" x="4.6" class="M"/><path d="M98.1 31.1v4.7" class="L"/><path d="M98.1 36.3a.47.47 0 0 1-.5-.5v-4.7a.47.47 0 1 1 1 0v4.7c0 .2-.3.5-.5.5z" class="M"/><path d="M100.5 31.1v4.7" class="L"/><use xlink:href="#D" x="9.4" class="M"/><path d="M103 31.1v4.7" class="L"/><path d="M103 36.3a.47.47 0 0 1-.5-.5v-4.7a.47.47 0 1 1 1 0v4.7c0 .2-.3.5-.5.5z" class="M"/><path d="M105.4 31.1v4.7" class="L"/><use xlink:href="#D" x="14.3" class="M"/><path d="M5.8 56h83.9v41.4H5.8z" class="P"/><g fill="#E6E9EE"><path d="M61 123.3l-2.2-8.4H36.6z"/><circle cx="47.7" cy="108.7" r="3.4"/></g><path d="M90.2 11.1H124v3.5H90.2zm0 13.7H124v3.5H90.2zm13.7 51.9c-2.1 2.2-9.9 8.8-24.8 9.1 0 0 .6 37.7 24.8 42.7 24.2-5 24.8-42.7 24.8-42.7-14.9-.3-22.7-6.9-24.8-9.1z" class="L"/><path d="M103.9 123.7C89 119.8 85.2 99.5 84.2 90.3c9.5-1.1 15.9-4.5 19.7-7.3 3.9 2.8 10.3 6.2 19.7 7.3-1 9.2-4.8 29.5-19.7 33.4z" class="N"/><path d="M107.8 99.7c0-2.2-1.8-3.9-3.9-3.9s-3.9 1.8-3.9 3.9c0 1.4.8 2.7 1.9 3.3l-1.1 6h6.2l-1.1-6c1.2-.6 1.9-1.9 1.9-3.3z" class="L"/><g fill="#231F20"><path d="M107 109.8h-6.2c-.2 0-.4-.1-.6-.3-.1-.2-.2-.4-.2-.6l1-5.5c-1.1-.9-1.8-2.2-1.8-3.7 0-2.6 2.1-4.7 4.7-4.7s4.7 2.1 4.7 4.7c0 1.5-.7 2.8-1.8 3.7l1 5.5c0 .2 0 .4-.2.6s-.4.3-.6.3zm-5.3-1.5h4.4l-.9-5.1c-.1-.3.1-.6.3-.8 1-.6 1.5-1.6 1.5-2.7 0-1.7-1.4-3.2-3.2-3.2-1.7 0-3.2 1.4-3.2 3.2 0 1.1.6 2.1 1.5 2.7.3.2.4.5.3.8l-.7 5.1zm-17-74.9c0 3.2 2.6 5.9 5.9 5.9h15.8v.2h1.5v-.2h15.8c3.2 0 5.8-2.6 5.8-5.9 0-2.8-2-5.2-4.7-5.7v-2.2c2.7-.5 4.7-2.9 4.7-5.7s-2-5.2-4.7-5.7v-2.2c2.7-.5 4.7-2.9 4.7-5.7 0-3.2-2.6-5.8-5.8-5.8h-33c-3.2 0-5.9 2.6-5.9 5.8 0 2.8 2 5.2 4.7 5.7v2.2c-2.7.5-4.7 2.9-4.7 5.7s2 5.2 4.7 5.7v2.2c-2.7.5-4.8 2.9-4.8 5.7zM86.2 6c0-2.4 2-4.4 4.4-4.4h33c2.4 0 4.4 2 4.4 4.4s-2 4.4-4.4 4.4h-33c-2.4-.1-4.4-2-4.4-4.4zm37.1 5.8v2H91v-2h32.3zm-37.1 7.9c0-2.4 2-4.4 4.4-4.4h33c2.4 0 4.4 2 4.4 4.4s-2 4.4-4.4 4.4h-33c-2.4-.1-4.4-2-4.4-4.4zm37.1 5.8v2H91v-2h32.3zm-32.7 3.6h33c2.4 0 4.4 2 4.4 4.4s-2 4.4-4.4 4.4h-33c-2.4 0-4.4-2-4.4-4.4s2-4.4 4.4-4.4zM108 54.2h1v1.5h-1zm.4-9.3c-.2-.2-.3-.4-.4-.7l-1.4.5c.1.4.3.7.6 1.1l1.2-.9zM107 66.2h1v1.5h-1zm3 0h1v1.5h-1zm1-12h1v1.5h-1zm-.8 5.2h1v1.5h-1zm.2-13.3c-.3 0-.5-.1-.8-.2l-.6 1.4c.4.2.8.3 1.2.3l.2-1.5zm-4-4.6h1.5v1h-1.5zM105 54.2h1v1.5h-1zm-7 12h1v1.5h-1zm3 0h1v1.5h-1zm1.9-8.2l-1.5.3c.1.4.3.8.5 1.2l1.2-.9c-.1-.2-.2-.4-.2-.6zm-.3-3.1l-.9.9 1.3.8c.1-.2.3-.4.5-.5l-.9-1.2zm2.6 4.5h-.9l-.3 1.5c.2 0 .4.1.6.1h.5v-1.6zm-1.2 6.8h1v1.5h-1zm9 0h1v1.5h-1zm-5.8-6.8h1v1.5h-1zm11.1-13.3h1v1.5h-1zm3 0h1v1.5h-1zm-1.3 8.1h1v1.5h-1zm4.3-8.1h1v1.5h-1zm-1.3 8.1h1v1.5h-1zm5-4.6h1.5v1H128zm-15.7-3.5h1v1.5h-1zm17.2 6.6l-1.5-.1c0 .2-.1.5-.2.7l1.3.7c.2-.5.3-.9.4-1.3zm-.9-5.4c-.3-.3-.6-.6-1-.8l-.7 1.3c.2.1.4.3.6.4l1.1-.9zm-2.5 6.9h-.1v1.5h.1c.4 0 .7-.1 1.1-.2l-.5-1.4c-.2.1-.4.1-.6.1zm-10.8-8.1h1v1.5h-1zm2 21.4l-.5-1.4c-.2.1-.4.1-.6.1h-.2v1.5h.2c.4 0 .7-.1 1.1-.2zM114 54.2h1v1.5h-1zm-.8 5.2h1v1.5h-1zm3.8-5.2h1v1.5h-1zm.9 11l1.3.7c.2-.4.3-.8.4-1.2l-1.5-.2c0 .3-.1.5-.2.7zm1.4-3.9l-1.4.7c.1.2.2.4.2.7l1.5-.1c0-.5-.2-.9-.3-1.3zm-3.1-1.9v1.5c.2 0 .4 0 .6.1l.5-1.4c-.3-.1-.7-.2-1.1-.2zm12.5 25.7c-14.7-.3-22.3-6.9-24.3-8.9-.3-.3-.8-.3-1.1 0-1 1-3.6 3.3-7.9 5.3V67.7h.6v-1.5h-.6V53a2.69 2.69 0 0 0-2.7-2.7h-90C1.2 50.2 0 51.5 0 53v59.9a2.69 2.69 0 0 0 2.7 2.7h32.9l-1.7 6.9h-5.4a2.69 2.69 0 0 0-2.7 2.7v4.2h43.9v-4.2a2.69 2.69 0 0 0-2.7-2.7h-5.4l-1.7-6.9h26.3c3.8 6.5 9.4 12 17.6 13.7h.4c24.5-5.1 25.4-43.1 25.4-43.5-.1-.4-.4-.7-.9-.7zM1.5 53c0-.7.6-1.2 1.2-1.2h90c.7 0 1.2.6 1.2 1.2v29.2c-3.8 1.5-8.7 2.8-14.9 2.9-.4 0-.8.4-.8.8 0 .2.2 7.3 2.3 15.8h-79V53zM67 124.1c.7 0 1.2.6 1.2 1.2v2.7H27.3v-2.7c0-.7.6-1.2 1.2-1.2H67zm-7-1.5H35.5l1.7-6.9h21l1.8 6.9zm-57.3-8.5c-.7 0-1.2-.6-1.2-1.2v-9.7H81c1 3.6 2.4 7.4 4.2 11H2.7zm101.2 13.7c-21.3-4.5-23.8-35.9-24-41.2 13.7-.5 21.3-6.3 24-8.8 2.7 2.5 10.3 8.3 24 8.8-.2 5.3-2.7 36.6-24 41.2zM48.5 49.6l1.5.3c.1-.3.1-.6.2-.8l-1.4-.5c-.2.2-.3.6-.3 1zm29.7-10.2l1.5-.3-.3-1.1-1.4.6c.1.3.2.6.2.8zM51.7 47l-.9-1.2c-.3.2-.6.5-.9.7l1.1 1c.3-.1.5-.3.7-.5zm13.4-2.3h1v1.5h-1zm-11.8 1.7c.3-.1.6-.1.8-.1v-1.5c-.4 0-.8.1-1.1.1l.3 1.5zm8.8-1.7h1v1.5h-1zm-6 0h1v1.5h-1zm3 0h1v1.5h-1zm19-8.5c-.3-.3-.6-.5-.9-.7l-.8 1.3c.2.2.5.3.7.5l1-1.1zm-1.6 7.7l.9 1.2c.3-.2.6-.5.9-.7l-1.1-1c-.3.2-.5.4-.7.5zm3.2-2.5l-1.5-.3c-.1.3-.1.6-.2.8l1.4.5c.2-.2.3-.6.3-1zm-5.6 3.3v1.5c.4 0 .8-.1 1.1-.1l-.3-1.5c-.3.1-.6.1-.8.1zm-3 0h1v1.5h-1zm-3 0h1v1.5h-1zm2.8-10.2h1V36h-1zm3.9 1.6l.3-1.5c-.4-.1-.8-.1-1.1-.1V36c.2 0 .5 0 .8.1zm-72 4.1c1.3 0 2.3-.9 2.7-2h18.4c1.2 2.6 3.8 4.4 6.8 4.4h30.6c3.8 0 7-2.9 7.4-6.7h.3v-1.5h-.3c-.3-3.3-2.8-5.9-6-6.5 0-5.1-4.2-9.3-9.3-9.3-1.7 0-3.3.4-4.7 1.3-1.6-2.5-4.2-4.2-7.1-4.6V9.5c1.2-.3 2-1.4 2-2.7 0-1.5-1.2-2.8-2.8-2.8S38 5.3 38 6.8c0 1.3.9 2.3 2 2.7v5.7c-1 0-2 .2-3 .5V5.4c1.2-.3 2-1.4 2-2.7 0-1.5-1.2-2.8-2.8-2.8-1.5 0-2.8 1.2-2.8 2.8 0 1.3.9 2.3 2 2.7v10.9c-3.3 1.7-5.5 5.1-5.5 9 0 .9.1 1.7.3 2.5-3.1.1-5.7 2.1-6.7 4.9h-13c-.3-1.2-1.4-2-2.7-2-1.5 0-2.8 1.2-2.8 2.8 0 1.5 1.2 2.8 2.8 2.8 1.3 0 2.3-.9 2.7-2h12.7c0 .3-.1.7-.1 1.1 0 .5.1 1 .1 1.5H5.4c-.3-1.2-1.4-2-2.7-2-1.5 0-2.8 1.2-2.8 2.8.1 1.3 1.3 2.5 2.9 2.5zM39.5 6.8c0-.7.6-1.3 1.3-1.3s1.2.6 1.2 1.3-.6 1.3-1.3 1.3-1.2-.6-1.2-1.3zm-4.5-4c0-.7.6-1.3 1.3-1.3s1.3.6 1.3 1.3-.6 1.3-1.3 1.3S35 3.5 35 2.8zm-4.4 26.5h.7c.3 0 .5-.1.7-.3s.2-.5.1-.7a8.15 8.15 0 0 1-.6-3.1c0-4.7 3.9-8.6 8.6-8.6 3.2 0 6.1 1.8 7.6 4.6.1.2.3.3.5.4s.4 0 .6-.1c1.3-.9 2.9-1.4 4.5-1.4 4.3 0 7.8 3.5 7.8 7.8v.6c0 .4.3.8.7.8 3.1.3 5.4 2.8 5.4 5.9 0 3.3-2.7 5.9-5.9 5.9H30.6c-3.3 0-5.9-2.7-5.9-5.9s2.7-5.9 5.9-5.9zM7.9 34.7c-.7 0-1.3-.6-1.3-1.3s.6-1.3 1.3-1.3 1.3.6 1.3 1.3-.6 1.3-1.3 1.3zm-5.1 1.5c.7 0 1.3.6 1.3 1.3s-.6 1.3-1.3 1.3-1.3-.6-1.3-1.3.6-1.3 1.3-1.3z"/><use xlink:href="#E"/><use xlink:href="#F"/><use xlink:href="#G"/><use xlink:href="#G" x="-4" y="-4.1"/><use xlink:href="#E" x="-53.7" y="2"/><use xlink:href="#F" x="-53.7" y="2"/><use xlink:href="#G" x="-53.7" y="2"/><use xlink:href="#G" x="-57.7" y="-2.1"/></g><path d="M69.7 65.4a.68.68 0 0 0-.7-.7h-8.1a.68.68 0 1 0 0 1.4H69c.3.1.7-.2.7-.7zm2.4 2.2h-4a.68.68 0 1 0 0 1.4h4a.68.68 0 0 0 .7-.7c0-.3-.3-.7-.7-.7zm4.2-2.9h-3.8a.68.68 0 1 0 0 1.4h3.8a.68.68 0 0 0 .7-.7c.1-.4-.2-.7-.7-.7zm-11.1 2.9h-.8a.68.68 0 1 0 0 1.4h.8a.68.68 0 0 0 .7-.7c.1-.3-.2-.7-.7-.7zM27.6 84.5a.68.68 0 0 0-.7-.7h-8.1a.68.68 0 1 0 0 1.4h8.1c.3.1.7-.3.7-.7zm2.4 2.2h-4a.68.68 0 1 0 0 1.4h4a.68.68 0 1 0 0-1.4zm4.3-2.9h-3.8a.68.68 0 1 0 0 1.4h3.8a.68.68 0 1 0 0-1.4zm-11.1 2.9h-.8a.68.68 0 1 0 0 1.4h.8a.68.68 0 1 0 0-1.4z" class="L"/><circle cx="74.5" cy="22.4" r="2.1" fill="#E6E9EE"/><circle cx="4.8" cy="21.6" r="2.1" class="O"/><defs ><path id="B" d="M91.1 8.8a.47.47 0 0 1-.5-.5V3.6a.47.47 0 1 1 1 0v4.7a.47.47 0 0 1-.5.5z"/><path id="C" d="M91.1 22.5a.47.47 0 0 1-.5-.5v-4.7a.47.47 0 1 1 1 0V22a.47.47 0 0 1-.5.5z"/><path id="D" d="M91.1 36.3a.47.47 0 0 1-.5-.5v-4.7a.47.47 0 1 1 1 0v4.7c0 .2-.2.5-.5.5z"/><path id="E" d="M72 9c.2 0 .4-.1.5-.2l1.3-1.3c.3-.3.3-.8 0-1.1s-.8-.3-1.1 0l-1.3 1.3c-.3.3-.3.8 0 1.1.2.1.4.2.6.2z"/><path id="F" d="M68.7 10.5l-1.3 1.3c-.3.3-.3.8 0 1.1.1.1.3.2.5.2s.4-.1.5-.2l1.3-1.3c.3-.3.3-.8 0-1.1-.2-.3-.7-.3-1 0z"/><path id="G" d="M72.5 10.5c-.3-.3-.8-.3-1.1 0s-.3.8 0 1.1l1.3 1.3c.1.1.3.2.5.2s.4-.1.5-.2c.3-.3.3-.8 0-1.1l-1.2-1.3z"/></defs></svg>