<?xml version="1.0" encoding="utf-8"?>
<!-- Generator: Adobe Illustrator 18.0.0, SVG Export Plug-In . SVG Version: 6.00 Build 0)  -->
<!DOCTYPE svg PUBLIC "-//W3C//DTD SVG 1.1//EN" "http://www.w3.org/Graphics/SVG/1.1/DTD/svg11.dtd">
<svg version="1.1" id="Layer_1" xmlns="http://www.w3.org/2000/svg" xmlns:xlink="http://www.w3.org/1999/xlink" x="0px" y="0px"
	 viewBox="0 0 129.5 129.5" enable-background="new 0 0 129.5 129.5" xml:space="preserve">
<g>
	<g>
		<path fill="#FFD05B" d="M75.9,66.5h8.5V30.1c0-2.3-1.8-4.1-4.1-4.1H80c-2.3,0-4.1,1.8-4.1,4.1V66.5z"/>
		<path fill="#FFD05B" d="M42.1,66.5h8.5V30.1c0-2.3-1.8-4.1-4.1-4.1h-0.2c-2.3,0-4.1,1.8-4.1,4.1V66.5z"/>
		<path fill="#FFFFFF" d="M62.2,92.2c0.1-0.6,0.1-1.2,0.1-1.8c0-4.5-2.5-8.1-5.6-8.1c-3.1,0-5.6,3.6-5.6,8.1c0,0.6,0,1.2,0.1,1.8
			H62.2z"/>
		<path fill="#FFFFFF" d="M75.1,92.2c0.1-0.6,0.1-1.2,0.1-1.8c0-4.5-2.5-8.1-5.6-8.1s-5.6,3.6-5.6,8.1c0,0.6,0,1.2,0.1,1.8H75.1z"/>
		<path fill="#FFFFFF" d="M73.7,79.4h33.7c-0.2-1.4-0.4-2.8-0.7-4.1c-1.6-7-4.8-13-9.1-17L82.3,44.1c-2.6-2.4-5.6-4-8.6-4.7V79.4z"
			/>
		<path fill="#FF7058" d="M105.1,77.4H77.9V43.3c1,0.6,2.1,1.4,3,2.3l15.3,14.2c4,3.7,7,9.4,8.5,16C104.9,76.3,105,76.9,105.1,77.4z
			"/>
		<path fill="#FFFFFF" d="M52.8,79.4H19.1c1.1-8.7,4.7-16.3,9.8-21.1l15.3-14.2c2.6-2.4,5.6-4,8.6-4.7V79.4z"/>
		<path fill="#FF7058" d="M48.6,43.3v34.2H21.4c1.3-7.3,4.5-13.6,8.9-17.7l15.3-14.2C46.5,44.7,47.5,43.9,48.6,43.3z"/>
		<path fill="#FFFFFF" d="M75.9,83.7H50.6V26.8c0-6.5,5.7-25.6,12.7-25.6h0c7,0,12.7,19.1,12.7,25.6V83.7z"/>
		<path fill="#231F20" d="M107.4,75.2c-1.6-7.1-4.9-13.3-9.3-17.4l-12.9-12V30.1c0-2.7-2.2-4.9-4.9-4.9H80c-1.3,0-2.5,0.5-3.4,1.4
			C76.6,20.1,71,0.4,63.2,0.4S49.9,20.1,49.9,26.6c-0.9-0.8-2.1-1.4-3.4-1.4h-0.2c-2.7,0-4.9,2.2-4.9,4.9v15.6l-12.9,12
			c-5.3,4.9-8.9,12.8-10.1,21.6c0,0.2,0,0.4,0.2,0.6c0.1,0.2,0.3,0.3,0.6,0.3h30.8v3.5c0,0.4,0.3,0.8,0.8,0.8h1.5
			c-1,1.6-1.7,3.7-1.7,6c0,0.6,0,1.3,0.1,1.9c0.1,0.4,0.4,0.6,0.7,0.6h10.9c0.4,0,0.7-0.3,0.7-0.6c0.1-0.6,0.1-1.3,0.1-1.9
			c0-2.3-0.6-4.4-1.7-6H65c-1,1.6-1.7,3.7-1.7,6c0,0.6,0,1.3,0.1,1.9c0.1,0.4,0.4,0.6,0.7,0.6h10.9c0.4,0,0.7-0.3,0.7-0.6
			C76,91.7,76,91,76,90.4c0-2.3-0.6-4.4-1.7-6h1.5c0.4,0,0.8-0.3,0.8-0.8v-3.5h30.8c0.2,0,0.4-0.1,0.6-0.3c0.1-0.2,0.2-0.4,0.2-0.6
			C108,77.9,107.7,76.5,107.4,75.2z M49.8,78.7H19.9c1.2-8.1,4.6-15.3,9.5-19.8l15.3-14.2c1.6-1.5,3.3-2.6,5.1-3.5V78.7z M49.8,39.6
			c-2.2,0.9-4.2,2.2-6.2,4l-0.8,0.8V30.1c0-1.9,1.5-3.4,3.4-3.4h0.2c1.9,0,3.4,1.5,3.4,3.4V39.6z M61.6,90.4c0,0.3,0,0.7,0,1H52
			c0-0.3,0-0.7,0-1c0-2.4,0.8-4.6,2-6h5.7C60.8,85.8,61.6,88,61.6,90.4z M74.5,90.4c0,0.3,0,0.7,0,1h-9.5c0-0.3,0-0.7,0-1
			c0-2.4,0.8-4.6,2-6h5.7C73.7,85.8,74.5,88,74.5,90.4z M75.1,83H51.3V26.8c0-6.8,5.8-24.9,11.9-24.9S75.1,20,75.1,26.8V83z
			 M76.6,30.1c0-1.9,1.5-3.4,3.4-3.4h0.2c1.9,0,3.4,1.5,3.4,3.4v14.3l-0.8-0.8c-1.9-1.8-4-3.1-6.2-4V30.1z M76.6,78.7V41.2
			c1.8,0.8,3.5,2,5.1,3.5l15.3,14.2c4.2,3.9,7.3,9.8,8.9,16.6c0.2,1,0.4,2.1,0.6,3.2H76.6z"/>
		<path fill="#84DBFF" d="M72.8,23.9c0,0.7-0.1,1.4-0.2,2.1c-1-4.2-4.7-7.4-9.3-7.4S54.9,21.7,54,26c-0.2-0.7-0.2-1.4-0.2-2.1
			c0-5.3,4.3-9.5,9.5-9.5C68.5,14.4,72.8,18.6,72.8,23.9z"/>
		<g>
			<g>
				<line fill="#FFFFFF" x1="73.7" y1="95.2" x2="73.7" y2="116.4"/>
				<rect x="73.2" y="95.2" fill="#231F20" width="1" height="21.1"/>
			</g>
			<g>
				<line fill="#FFFFFF" x1="68" y1="107.4" x2="68" y2="123.7"/>
				<rect x="67.5" y="107.4" fill="#231F20" width="1" height="16.2"/>
			</g>
		</g>
		<g>
			<path fill="#231F20" d="M71.6,129.1h-1.5v-0.4h1.5V129.1z M71.6,126.8h-1.5v-1h1.5V126.8z M71.6,123.8h-1.5v-1h1.5V123.8z
				 M71.6,120.8h-1.5v-1h1.5V120.8z M71.6,117.8h-1.5v-1h1.5V117.8z M71.6,114.8h-1.5v-1h1.5V114.8z M71.6,111.8h-1.5v-1h1.5V111.8z
				 M71.6,108.8h-1.5v-1h1.5V108.8z M71.6,105.8h-1.5v-1h1.5V105.8z M71.6,102.8h-1.5v-1h1.5V102.8z"/>
		</g>
		<g>
			<line fill="#FFFFFF" x1="34.1" y1="84.8" x2="34.1" y2="105.9"/>
			<rect x="33.6" y="84.8" fill="#231F20" width="1" height="21.1"/>
		</g>
		<g>
			<line fill="#FFFFFF" x1="28.4" y1="97" x2="28.4" y2="113.2"/>
			<rect x="27.9" y="97" fill="#231F20" width="1" height="16.2"/>
		</g>
		<g>
			<path fill="#231F20" d="M32,118.7h-1.5v-0.4H32V118.7z M32,116.3h-1.5v-1H32V116.3z M32,113.3h-1.5v-1H32V113.3z M32,110.3h-1.5
				v-1H32V110.3z M32,107.3h-1.5v-1H32V107.3z M32,104.3h-1.5v-1H32V104.3z M32,101.3h-1.5v-1H32V101.3z M32,98.3h-1.5v-1H32V98.3z
				 M32,95.3h-1.5v-1H32V95.3z M32,92.3h-1.5v-1H32V92.3z"/>
		</g>
		<g>
			<line fill="#FFFFFF" x1="103.5" y1="12.3" x2="103.5" y2="33.5"/>
			<rect x="103" y="12.3" fill="#231F20" width="1" height="21.1"/>
		</g>
		<g>
			<line fill="#FFFFFF" x1="97.8" y1="24.6" x2="97.8" y2="40.8"/>
			<rect x="97.3" y="24.6" fill="#231F20" width="1" height="16.2"/>
		</g>
		<g>
			<path fill="#231F20" d="M101.4,46.3h-1.5v-0.4h1.5V46.3z M101.4,43.9h-1.5v-1h1.5V43.9z M101.4,40.9h-1.5v-1h1.5V40.9z
				 M101.4,37.9h-1.5v-1h1.5V37.9z M101.4,34.9h-1.5v-1h1.5V34.9z M101.4,31.9h-1.5v-1h1.5V31.9z M101.4,28.9h-1.5v-1h1.5V28.9z
				 M101.4,25.9h-1.5v-1h1.5V25.9z M101.4,22.9h-1.5v-1h1.5V22.9z M101.4,19.9h-1.5v-1h1.5V19.9z"/>
		</g>
		<g>
			<g>
				<line fill="#FFFFFF" x1="58.5" y1="95.2" x2="58.5" y2="116.4"/>
				<rect x="58" y="95.2" fill="#231F20" width="1" height="21.1"/>
			</g>
			<g>
				<line fill="#FFFFFF" x1="52.9" y1="107.4" x2="52.9" y2="123.7"/>
				<rect x="52.4" y="107.4" fill="#231F20" width="1" height="16.2"/>
			</g>
		</g>
		<g>
			<path fill="#231F20" d="M56.5,129.1H55v-0.4h1.5V129.1z M56.5,126.8H55v-1h1.5V126.8z M56.5,123.8H55v-1h1.5V123.8z M56.5,120.8
				H55v-1h1.5V120.8z M56.5,117.8H55v-1h1.5V117.8z M56.5,114.8H55v-1h1.5V114.8z M56.5,111.8H55v-1h1.5V111.8z M56.5,108.8H55v-1
				h1.5V108.8z M56.5,105.8H55v-1h1.5V105.8z M56.5,102.8H55v-1h1.5V102.8z"/>
		</g>
		<circle fill="#FFFFFF" cx="94.6" cy="97.7" r="2.5"/>
		<path fill="#231F20" d="M94.6,100.9c-1.8,0-3.2-1.5-3.2-3.2c0-1.8,1.5-3.2,3.2-3.2c1.8,0,3.2,1.5,3.2,3.2
			C97.9,99.5,96.4,100.9,94.6,100.9z M94.6,96c-1,0-1.7,0.8-1.7,1.7c0,1,0.8,1.7,1.7,1.7c1,0,1.7-0.8,1.7-1.7
			C96.4,96.7,95.6,96,94.6,96z"/>
		<circle fill="#FFFFFF" cx="21.6" cy="26" r="2.5"/>
		<path fill="#231F20" d="M21.6,29.2c-1.8,0-3.2-1.5-3.2-3.2c0-1.8,1.5-3.2,3.2-3.2s3.2,1.5,3.2,3.2C24.8,27.8,23.3,29.2,21.6,29.2z
			 M21.6,24.2c-1,0-1.7,0.8-1.7,1.7c0,1,0.8,1.7,1.7,1.7s1.7-0.8,1.7-1.7C23.3,25,22.5,24.2,21.6,24.2z"/>
		<circle fill="#84DBFF" cx="33.6" cy="12.4" r="2.3"/>
		<circle fill="#FFD05B" cx="88.2" cy="16.6" r="2.3"/>
		<circle fill="#84DBFF" cx="15.2" cy="97" r="3.9"/>
		<circle fill="#CED5E0" cx="112.1" cy="89.2" r="1.9"/>
		<g>
			<path fill="#231F20" d="M120.7,45.6c-0.2,0-0.4-0.1-0.5-0.2c-0.3-0.3-0.3-0.8,0-1.1l1.3-1.3c0.3-0.3,0.8-0.3,1.1,0
				c0.3,0.3,0.3,0.8,0,1.1l-1.3,1.3C121,45.6,120.8,45.6,120.7,45.6z"/>
		</g>
		<g>
			<path fill="#231F20" d="M116.6,49.7c-0.2,0-0.4-0.1-0.5-0.2c-0.3-0.3-0.3-0.8,0-1.1l1.3-1.3c0.3-0.3,0.8-0.3,1.1,0
				c0.3,0.3,0.3,0.8,0,1.1l-1.3,1.3C117,49.6,116.8,49.7,116.6,49.7z"/>
		</g>
		<g>
			<path fill="#231F20" d="M121.9,49.7c-0.2,0-0.4-0.1-0.5-0.2l-1.3-1.3c-0.3-0.3-0.3-0.8,0-1.1c0.3-0.3,0.8-0.3,1.1,0l1.3,1.3
				c0.3,0.3,0.3,0.8,0,1.1C122.3,49.6,122.1,49.7,121.9,49.7z"/>
		</g>
		<g>
			<path fill="#231F20" d="M117.9,45.6c-0.2,0-0.4-0.1-0.5-0.2l-1.3-1.3c-0.3-0.3-0.3-0.8,0-1.1s0.8-0.3,1.1,0l1.3,1.3
				c0.3,0.3,0.3,0.8,0,1.1C118.3,45.6,118.1,45.6,117.9,45.6z"/>
		</g>
		<g>
			<path fill="#231F20" d="M11.6,48.3c-0.2,0-0.4-0.1-0.5-0.2c-0.3-0.3-0.3-0.8,0-1.1l1.3-1.3c0.3-0.3,0.8-0.3,1.1,0
				c0.3,0.3,0.3,0.8,0,1.1l-1.3,1.3C12,48.2,11.8,48.3,11.6,48.3z"/>
		</g>
		<g>
			<path fill="#231F20" d="M7.6,52.3c-0.2,0-0.4-0.1-0.5-0.2c-0.3-0.3-0.3-0.8,0-1.1l1.3-1.3c0.3-0.3,0.8-0.3,1.1,0
				c0.3,0.3,0.3,0.8,0,1.1l-1.3,1.3C7.9,52.3,7.8,52.3,7.6,52.3z"/>
		</g>
		<g>
			<path fill="#231F20" d="M12.9,52.3c-0.2,0-0.4-0.1-0.5-0.2l-1.3-1.3c-0.3-0.3-0.3-0.8,0-1.1c0.3-0.3,0.8-0.3,1.1,0l1.3,1.3
				c0.3,0.3,0.3,0.8,0,1.1C13.3,52.3,13.1,52.3,12.9,52.3z"/>
		</g>
		<g>
			<path fill="#231F20" d="M8.8,48.3c-0.2,0-0.4-0.1-0.5-0.2L7,46.8c-0.3-0.3-0.3-0.8,0-1.1c0.3-0.3,0.8-0.3,1.1,0L9.4,47
				c0.3,0.3,0.3,0.8,0,1.1C9.2,48.2,9,48.3,8.8,48.3z"/>
		</g>
	</g>
</g>
</svg>
