<?xml version="1.0" encoding="utf-8"?>
<!-- Generator: Adobe Illustrator 18.0.0, SVG Export Plug-In . SVG Version: 6.00 Build 0)  -->
<!DOCTYPE svg PUBLIC "-//W3C//DTD SVG 1.1//EN" "http://www.w3.org/Graphics/SVG/1.1/DTD/svg11.dtd">
<svg   width="100px" height="100px" version="1.1" id="Layer_1" xmlns="http://www.w3.org/2000/svg" xmlns:xlink="http://www.w3.org/1999/xlink" x="0px" y="0px"
	 viewBox="0 0 129.5 129.5" enable-background="new 0 0 129.5 129.5" xml:space="preserve">
<g>
	<g>
		<g>
			<g>
				<path fill="#231F20" d="M127.5,6.9c-0.2,0-0.4-0.1-0.5-0.2c-0.3-0.3-0.3-0.8,0-1.1l1.3-1.3c0.3-0.3,0.8-0.3,1.1,0
					c0.3,0.3,0.3,0.8,0,1.1L128,6.7C127.8,6.8,127.7,6.9,127.5,6.9z"/>
			</g>
			<g>
				<path fill="#231F20" d="M123.4,11c-0.2,0-0.4-0.1-0.5-0.2c-0.3-0.3-0.3-0.8,0-1.1l1.3-1.3c0.3-0.3,0.8-0.3,1.1,0
					c0.3,0.3,0.3,0.8,0,1.1l-1.3,1.3C123.8,10.9,123.6,11,123.4,11z"/>
			</g>
			<g>
				<path fill="#231F20" d="M128.7,11c-0.2,0-0.4-0.1-0.5-0.2l-1.3-1.3c-0.3-0.3-0.3-0.8,0-1.1c0.3-0.3,0.8-0.3,1.1,0l1.3,1.3
					c0.3,0.3,0.3,0.8,0,1.1C129.1,10.9,128.9,11,128.7,11z"/>
			</g>
			<g>
				<path fill="#231F20" d="M124.7,6.9c-0.2,0-0.4-0.1-0.5-0.2l-1.3-1.3c-0.3-0.3-0.3-0.8,0-1.1c0.3-0.3,0.8-0.3,1.1,0l1.3,1.3
					c0.3,0.3,0.3,0.8,0,1.1C125.1,6.8,124.9,6.9,124.7,6.9z"/>
			</g>
		</g>
		<g>
			<g>
				<path fill="#231F20" d="M126.1,72.3c-0.2,0-0.4-0.1-0.5-0.2c-0.3-0.3-0.3-0.8,0-1.1l1.3-1.3c0.3-0.3,0.8-0.3,1.1,0
					c0.3,0.3,0.3,0.8,0,1.1l-1.3,1.3C126.5,72.2,126.3,72.3,126.1,72.3z"/>
			</g>
			<g>
				<path fill="#231F20" d="M122.1,76.3c-0.2,0-0.4-0.1-0.5-0.2c-0.3-0.3-0.3-0.8,0-1.1l1.3-1.3c0.3-0.3,0.8-0.3,1.1,0
					c0.3,0.3,0.3,0.8,0,1.1l-1.3,1.3C122.5,76.3,122.3,76.3,122.1,76.3z"/>
			</g>
			<g>
				<path fill="#231F20" d="M127.4,76.3c-0.2,0-0.4-0.1-0.5-0.2l-1.3-1.3c-0.3-0.3-0.3-0.8,0-1.1c0.3-0.3,0.8-0.3,1.1,0L128,75
					c0.3,0.3,0.3,0.8,0,1.1C127.8,76.3,127.6,76.3,127.4,76.3z"/>
			</g>
			<g>
				<path fill="#231F20" d="M123.4,72.3c-0.2,0-0.4-0.1-0.5-0.2l-1.3-1.3c-0.3-0.3-0.3-0.8,0-1.1c0.3-0.3,0.8-0.3,1.1,0l1.3,1.3
					c0.3,0.3,0.3,0.8,0,1.1C123.8,72.2,123.6,72.3,123.4,72.3z"/>
			</g>
		</g>
		<g>
			<g>
				<path fill="#231F20" d="M4.8,15.3c-0.2,0-0.4-0.1-0.5-0.2C4,14.8,4,14.3,4.3,14l1.3-1.3c0.3-0.3,0.8-0.3,1.1,0
					c0.3,0.3,0.3,0.8,0,1.1l-1.3,1.3C5.2,15.2,5,15.3,4.8,15.3z"/>
			</g>
			<g>
				<path fill="#231F20" d="M0.8,19.3c-0.2,0-0.4-0.1-0.5-0.2c-0.3-0.3-0.3-0.8,0-1.1l1.3-1.3c0.3-0.3,0.8-0.3,1.1,0
					c0.3,0.3,0.3,0.8,0,1.1l-1.3,1.3C1.1,19.2,0.9,19.3,0.8,19.3z"/>
			</g>
			<g>
				<path fill="#231F20" d="M6.1,19.3c-0.2,0-0.4-0.1-0.5-0.2l-1.3-1.3C4,17.5,4,17,4.3,16.7c0.3-0.3,0.8-0.3,1.1,0L6.6,18
					c0.3,0.3,0.3,0.8,0,1.1C6.5,19.2,6.3,19.3,6.1,19.3z"/>
			</g>
			<g>
				<path fill="#231F20" d="M2,15.3c-0.2,0-0.4-0.1-0.5-0.2l-1.3-1.3c-0.3-0.3-0.3-0.8,0-1.1c0.3-0.3,0.8-0.3,1.1,0L2.6,14
					c0.3,0.3,0.3,0.8,0,1.1C2.4,15.2,2.2,15.3,2,15.3z"/>
			</g>
		</g>
		<g>
			<path fill="#FFD05B" d="M108.2,23v-5.8c0-2.2-1.8-3.9-3.9-3.9H24.8c-2.2,0-3.9,1.8-3.9,3.9V23H108.2z"/>
		</g>
		<g>
			<rect x="22.3" y="28.8" fill="#84DBFF" width="84.5" height="31.7"/>
		</g>
		<g>
			<polygon fill="#FFD05B" points="33.2,74.4 27.5,71.4 101.6,71.4 95.9,74.4 			"/>
		</g>
		<g>
			<rect x="34.8" y="78.9" fill="#FFD05B" width="59.5" height="20.1"/>
		</g>
		<g>
			<path fill="#FFD05B" d="M98.8,99V83.9h6c6.8,0,12.4,5.6,12.4,12.4V99H98.8z"/>
		</g>
		<g>
			<path fill="#FFD05B" d="M12,99v-2.7c0-6.8,5.6-12.4,12.4-12.4h6V99H12z"/>
		</g>
		<path fill="#E6E9EE" d="M117.1,112.1H98.9v13.1c0,1.1,0.9,2,2,2h14.3c1.1,0,2-0.9,2-2V112.1z"/>
		<path fill="#E6E9EE" d="M30.3,112.1H12.1v13.1c0,1.1,0.9,2,2,2h14.3c1.1,0,2-0.9,2-2V112.1z"/>
		<g>
			<circle fill="#FF7058" cx="101.3" cy="18.4" r="3.6"/>
			<path fill="#231F20" d="M101.3,22.7c-2.4,0-4.3-1.9-4.3-4.3c0-2.4,1.9-4.3,4.3-4.3c2.4,0,4.3,1.9,4.3,4.3
				C105.7,20.8,103.7,22.7,101.3,22.7z M101.3,15.6c-1.6,0-2.8,1.3-2.8,2.8c0,1.6,1.3,2.8,2.8,2.8c1.6,0,2.8-1.3,2.8-2.8
				C104.2,16.8,102.9,15.6,101.3,15.6z"/>
		</g>
		<g>
			<circle fill="#FF7058" cx="90.4" cy="18.4" r="3.4"/>
			<path fill="#231F20" d="M90.4,22.6c-2.3,0-4.2-1.9-4.2-4.2c0-2.3,1.9-4.2,4.2-4.2c2.3,0,4.2,1.9,4.2,4.2
				C94.6,20.7,92.7,22.6,90.4,22.6z M90.4,15.7c-1.5,0-2.7,1.2-2.7,2.7c0,1.5,1.2,2.7,2.7,2.7c1.5,0,2.7-1.2,2.7-2.7
				C93.1,16.9,91.9,15.7,90.4,15.7z"/>
		</g>
		<g>
			<circle fill="#FF7058" cx="37.6" cy="18.4" r="3.4"/>
			<path fill="#231F20" d="M37.6,22.6c-2.3,0-4.2-1.9-4.2-4.2c0-2.3,1.9-4.2,4.2-4.2c2.3,0,4.2,1.9,4.2,4.2
				C41.8,20.7,39.9,22.6,37.6,22.6z M37.6,15.7c-1.5,0-2.7,1.2-2.7,2.7c0,1.5,1.2,2.7,2.7,2.7c1.5,0,2.7-1.2,2.7-2.7
				C40.3,16.9,39.1,15.7,37.6,15.7z"/>
		</g>
		<g>
			<circle fill="#FF7058" cx="26.7" cy="18.4" r="3.6"/>
			<path fill="#231F20" d="M26.7,22.7c-2.4,0-4.3-1.9-4.3-4.3c0-2.4,1.9-4.3,4.3-4.3s4.3,1.9,4.3,4.3C31.1,20.8,29.1,22.7,26.7,22.7
				z M26.7,15.6c-1.6,0-2.8,1.3-2.8,2.8c0,1.6,1.3,2.8,2.8,2.8c1.6,0,2.8-1.3,2.8-2.8C29.6,16.8,28.3,15.6,26.7,15.6z"/>
		</g>
		<rect x="115.1" y="37.2" fill="#E6E9EE" width="8.5" height="18.7"/>
		<rect x="5.4" y="37.2" fill="#E6E9EE" width="8.5" height="18.7"/>
		<g>
			<circle fill="#FFFFFF" cx="106.5" cy="91.4" r="4.6"/>
		</g>
		<g>
			<circle fill="#FFFFFF" cx="22.6" cy="91.4" r="4.6"/>
		</g>
		<g>
			<circle fill="#FFFFFF" cx="119.8" cy="19.6" r="2.3"/>
		</g>
		<g>
			<path fill="#231F20" d="M124.8,100.4h-4.6v-4.2c0-6.2-3.7-11.5-8.9-13.9V63h8.2c0.4,0,0.8-0.3,0.8-0.8v-5.7h3.5
				c0.4,0,0.8-0.3,0.8-0.8V37.2c0-0.4-0.3-0.8-0.8-0.8h-3.5c0,0,0,0,0,0v-3c0-0.3-0.2-0.7-0.6-0.7l-8.3-1.9V16.5
				c0-3.4-2.8-6.3-6.3-6.3H24.1c-3.4,0-6.3,2.8-6.3,6.3v14.2l-8.3,1.9C9.2,32.7,9,33,9,33.4v3H5.4c-0.4,0-0.8,0.3-0.8,0.8v18.7
				c0,0.4,0.3,0.8,0.8,0.8H9v5.7C9,62.7,9.3,63,9.7,63h8.2v19.3C12.6,84.8,9,90.1,9,96.3v4.2H4.4c-0.4,0-0.8,0.3-0.8,0.8v10.9
				c0,0.4,0.3,0.8,0.8,0.8h6.9v12.3c0,1.5,1.2,2.7,2.7,2.7h14.3c1.5,0,2.7-1.2,2.7-2.7v-12.3h67.1v12.3c0,1.5,1.2,2.7,2.7,2.7h14.3
				c1.5,0,2.7-1.2,2.7-2.7v-12.3h6.9c0.4,0,0.8-0.3,0.8-0.8v-10.9C125.5,100.8,125.2,100.4,124.8,100.4z M122.9,37.9v17.2h-7V37.9
				H122.9z M111.2,32.3l7.4,1.7v2.4c0,0,0,0,0,0h-3.5c-0.4,0-0.8,0.3-0.8,0.8v18.7c0,0.4,0.3,0.8,0.8,0.8h3.5v4.9h-7.4V32.3z
				 M118.7,96.3v4.2H97.3v-18h7.5C112.4,82.4,118.7,88.6,118.7,96.3z M32.8,75.9l-11.2-6h85.9l-11.2,6H32.8z M95.8,77.4v23H33.4v-23
				H95.8z M109.7,70.4v11.3c-1.6-0.5-3.2-0.8-4.9-0.8h-7.5v-3.8L109.7,70.4z M84.4,11.8H105c2.6,0,4.8,2.1,4.8,4.8v7.9H84.4V11.8z
				 M45.5,11.8h37.4v12.6H45.5V11.8z M19.4,16.5c0-2.6,2.1-4.8,4.8-4.8H44v12.6H19.4V16.5z M19.4,25.9h90.4v37.6H19.4V25.9z
				 M19.4,65h90.4v3.4H19.4V65z M19.4,70.4l12.5,6.7v3.8h-7.5c-1.7,0-3.4,0.3-5,0.8V70.4z M6.2,55.1V37.9h7v17.2H6.2z M10.5,61.5
				v-4.9H14c0.4,0,0.8-0.3,0.8-0.8V37.2c0-0.4-0.3-0.8-0.8-0.8h-3.5V34l7.4-1.7v29.3H10.5z M10.5,96.3c0-7.6,6.2-13.9,13.9-13.9h7.5
				v18H10.5V96.3z M29.5,125.1c0,0.7-0.5,1.2-1.2,1.2H14c-0.7,0-1.2-0.5-1.2-1.2v-12.3h16.7V125.1z M116.3,125.1
				c0,0.7-0.5,1.2-1.2,1.2h-14.3c-0.7,0-1.2-0.5-1.2-1.2v-12.3h16.7V125.1z M124,111.3H5.1v-9.4H124V111.3z"/>
			<path fill="#231F20" d="M40.6,96.2c0.4,0,0.8-0.3,0.8-0.8V82.4c0-0.4-0.3-0.8-0.8-0.8c-0.4,0-0.8,0.3-0.8,0.8v13.1
				C39.9,95.9,40.2,96.2,40.6,96.2z"/>
			<path fill="#231F20" d="M47.5,96.2c0.4,0,0.8-0.3,0.8-0.8V82.4c0-0.4-0.3-0.8-0.8-0.8c-0.4,0-0.8,0.3-0.8,0.8v13.1
				C46.7,95.9,47.1,96.2,47.5,96.2z"/>
			<path fill="#231F20" d="M54.3,96.2c0.4,0,0.8-0.3,0.8-0.8V82.4c0-0.4-0.3-0.8-0.8-0.8c-0.4,0-0.8,0.3-0.8,0.8v13.1
				C53.6,95.9,53.9,96.2,54.3,96.2z"/>
			<path fill="#231F20" d="M61.1,96.2c0.4,0,0.8-0.3,0.8-0.8V82.4c0-0.4-0.3-0.8-0.8-0.8c-0.4,0-0.8,0.3-0.8,0.8v13.1
				C60.4,95.9,60.7,96.2,61.1,96.2z"/>
			<path fill="#231F20" d="M68,96.2c0.4,0,0.8-0.3,0.8-0.8V82.4c0-0.4-0.3-0.8-0.8-0.8c-0.4,0-0.8,0.3-0.8,0.8v13.1
				C67.2,95.9,67.6,96.2,68,96.2z"/>
			<path fill="#231F20" d="M74.8,96.2c0.4,0,0.8-0.3,0.8-0.8V82.4c0-0.4-0.3-0.8-0.8-0.8c-0.4,0-0.8,0.3-0.8,0.8v13.1
				C74.1,95.9,74.4,96.2,74.8,96.2z"/>
			<path fill="#231F20" d="M81.7,96.2c0.4,0,0.8-0.3,0.8-0.8V82.4c0-0.4-0.3-0.8-0.8-0.8c-0.4,0-0.8,0.3-0.8,0.8v13.1
				C80.9,95.9,81.2,96.2,81.7,96.2z"/>
			<path fill="#231F20" d="M88.5,96.2c0.4,0,0.8-0.3,0.8-0.8V82.4c0-0.4-0.3-0.8-0.8-0.8c-0.4,0-0.8,0.3-0.8,0.8v13.1
				C87.7,95.9,88.1,96.2,88.5,96.2z"/>
			<path fill="#231F20" d="M94.3,36.7c-2.3,0-4.1,1.8-4.1,4.1S92,45,94.3,45c2.3,0,4.1-1.8,4.1-4.1S96.6,36.7,94.3,36.7z M94.3,43.5
				c-1.4,0-2.6-1.2-2.6-2.6c0-1.4,1.2-2.6,2.6-2.6c1.4,0,2.6,1.2,2.6,2.6C96.9,42.3,95.7,43.5,94.3,43.5z"/>
		</g>
		<g>
			<circle fill="#FF7058" cx="22.3" cy="4" r="2.4"/>
		</g>
		<g>
			<circle fill="#E6E9EE" cx="119.8" cy="21.9" r="3.1"/>
		</g>
		<g>
			<circle fill="#FFD05B" cx="10.6" cy="70.7" r="2.2"/>
		</g>
		<g>
			<circle fill="#FF7058" cx="89.5" cy="117.5" r="2.5"/>
		</g>
		<g>
			<line fill="#FFFFFF" x1="39.1" y1="44.5" x2="47.8" y2="44.5"/>
			<path fill="#FFFFFF" d="M47.8,45.3h-8.7c-0.4,0-0.8-0.3-0.8-0.8c0-0.4,0.3-0.8,0.8-0.8h8.7c0.4,0,0.8,0.3,0.8,0.8
				C48.6,44.9,48.2,45.3,47.8,45.3z"/>
		</g>
		<g>
			<line fill="#FFFFFF" x1="47" y1="47.7" x2="51.2" y2="47.7"/>
			<path fill="#FFFFFF" d="M51.2,48.4H47c-0.4,0-0.8-0.3-0.8-0.8c0-0.4,0.3-0.8,0.8-0.8h4.3c0.4,0,0.8,0.3,0.8,0.8
				C52,48.1,51.7,48.4,51.2,48.4z"/>
		</g>
		<g>
			<line fill="#FFFFFF" x1="51.8" y1="44.5" x2="55.8" y2="44.5"/>
			<path fill="#FFFFFF" d="M55.8,45.3h-4.1c-0.4,0-0.8-0.3-0.8-0.8c0-0.4,0.3-0.8,0.8-0.8h4.1c0.4,0,0.8,0.3,0.8,0.8
				C56.6,44.9,56.2,45.3,55.8,45.3z"/>
		</g>
		<g>
			<line fill="#FFFFFF" x1="43.1" y1="47.7" x2="43.9" y2="47.7"/>
			<path fill="#FFFFFF" d="M43.9,48.4h-0.8c-0.4,0-0.8-0.3-0.8-0.8c0-0.4,0.3-0.8,0.8-0.8h0.8c0.4,0,0.8,0.3,0.8,0.8
				C44.6,48.1,44.3,48.4,43.9,48.4z"/>
		</g>
	</g>
</g>
</svg>
