<svg xmlns="http://www.w3.org/2000/svg" xmlns:xlink="http://www.w3.org/1999/xlink" viewBox="0 0 129.5 129.5"><style><![CDATA[.B{fill:#fff}.C{fill:#231f20}.D{fill:#84dbff}]]></style><g class="C"><path d="M120.6 8.8c-.2 0-.4-.1-.5-.2-.3-.3-.3-.8 0-1.1l1.3-1.3c.3-.3.8-.3 1.1 0s.3.8 0 1.1l-1.3 1.3c-.2.2-.4.2-.6.2zm-4 4.1c-.2 0-.4-.1-.5-.2-.3-.3-.3-.8 0-1.1l1.3-1.3c.3-.3.8-.3 1.1 0s.3.8 0 1.1l-1.3 1.3c-.3.1-.5.2-.6.2z"/><use xlink:href="#B"/><path d="M117.8 8.8c-.2 0-.4-.1-.5-.2L116 7.3c-.3-.3-.3-.8 0-1.1s.8-.3 1.1 0l1.3 1.3c.3.3.3.8 0 1.1-.2.2-.4.2-.6.2z"/><use xlink:href="#C"/><use xlink:href="#C" x="-4" y="4"/><use xlink:href="#B" x="-107.7" y="2.8"/><use xlink:href="#B" x="-111.7" y="-1.2"/><use xlink:href="#C" x="97.3" y="104.6"/><path d="M106.2 120.3c-.2 0-.4-.1-.5-.2-.3-.3-.3-.8 0-1.1l1.3-1.3c.3-.3.8-.3 1.1 0s.3.8 0 1.1l-1.3 1.3c-.3.1-.5.2-.6.2zm5.3 0c-.2 0-.4-.1-.5-.2l-1.3-1.3c-.3-.3-.3-.8 0-1.1s.8-.3 1.1 0l1.3 1.3c.3.3.3.8 0 1.1-.3.1-.4.2-.6.2z"/><use xlink:href="#B" x="-14.5" y="103.4"/><path d="M58.8 59.3l-1.1-1.1.7-.7 1.1 1.1-.7.7zm1.4-1.4l-1.1-1.1.7-.7 1.1 1.1-.7.7zm1.5-1.4l-1.1-1.1.7-.7 1.1 1.1-.7.7zm1.4-1.4L62 54l.7-.7 1.1 1.1-.7.7zm1.4-1.4l-1.1-1.1.7-.7 1.1 1.1-.7.7z"/><path d="M64.7 53.2c-.2 0-.4-.1-.5-.2-.3-.3-.3-.8 0-1.1l6.5-6.5c.3-.3.8-.3 1.1 0s.3.8 0 1.1L65.3 53c-.3.1-.4.2-.6.2z"/><path d="M74.2 49.8c-.2 0-.4-.1-.5-.2l-6.1-6.1c-.2-.2-.3-.5-.2-.8s.4-.5.7-.5h6.1c.4 0 .8.3.8.8v6c0 .3-.2.6-.5.7-.1 0-.2.1-.3.1zm-4.3-6.1l3.5 3.5v-3.5h-3.5zm-1.7 18.5l-1.1-1.1.7-.7 1.1 1.1-.7.7zm1.5-1.5l-1.1-1.1.7-.7 1.1 1.1-.7.7zm1.4-1.4l-1.1-1 .7-.7 1.1 1.1-.7.6zm1.4-1.4l-1.1-1.1.7-.7 1.1 1.1-.7.7zm1.4-1.4l-1.1-1.1.7-.7 1.1 1.1-.7.7z"/><path d="M61.2 68.8c-.2 0-.4-.1-.5-.2-.3-.3-.3-.8 0-1.1l6.5-6.5c.3-.3.8-.3 1.1 0s.3.8 0 1.1l-6.5 6.5c-.2.2-.4.2-.6.2z"/><path d="M64.3 71.9h-6.1c-.4 0-.8-.3-.8-.8V65c0-.3.2-.6.5-.7s.6-.1.8.2l6.1 6.1c.2.2.3.5.2.8s-.4.5-.7.5zm-5.4-1.5h3.5l-3.5-3.5v3.5z"/></g><circle cx="25.6" cy="29.8" r="3" class="D"/><circle fill="#ff7058" cx="95.7" cy="7.4" r="3"/><circle fill="#ffd05b" cx="94.4" cy="118.3" r="2.2"/><path d="M128.8 104.7v-4.2a24.8 24.8 0 1 0-49.6 0v4.2h49.6z" class="D"/><path d="M110.4,69.7H97.4v11.7c0,2.9,2.4,5.3,5.3,5.3h2.5c2.9,0,5.3-2.4,5.3-5.3V69.7z" class="B"/><path fill="#ffd05b" d="M118.2 25.9c-.3-3.7-3.4-6.5-6.9-6.2-16.4 1.6-27.4-5.1-27.4-5.1s-.6 7.5 2.4 13.2c-2.5 2.1-4 5.2-4 8.7v16.1a4.23 4.23 0 0 0 4.2 4.2h35.1a4.23 4.23 0 0 0 4.2-4.2v-16c-.2-4.9-3.3-9.1-7.6-10.7z"/><path d="M121.6 48.2h-.2v-4.6c-7.1-.7-12.9-5.7-14.8-12.4-4.3 7-11.7 11.8-20.3 12.4v4.5h-.2c-1.4 0-2.6 1.1-2.6 2.6 0 1.4 1.1 2.6 2.6 2.6h.2v3.5c0 9.7 7.9 17.5 17.5 17.5s17.5-7.9 17.5-17.5v-3.5h.2c1.4 0 2.6-1.1 2.6-2.6.1-1.4-1.1-2.5-2.5-2.5z" class="B"/><path d="M115.3 50.6c-.4 0-.7-.3-.7-.6a2.57 2.57 0 0 0-2.5-2.1 2.57 2.57 0 0 0-2.5 2.1c-.1.4-.5.7-.9.6s-.7-.5-.6-.9c.4-1.9 2-3.3 4-3.3 1.9 0 3.6 1.4 4 3.3.1.4-.2.8-.6.9h-.2zm-16.3 0c-.4 0-.7-.3-.7-.6a2.57 2.57 0 0 0-2.5-2.1 2.57 2.57 0 0 0-2.5 2.1c-.1.4-.5.7-.9.6s-.7-.5-.6-.9c.4-1.9 2-3.3 4-3.3 1.9 0 3.6 1.4 4 3.3.1.4-.2.8-.6.9H99zm4.9 16.9c-3 0-5.8-2.1-6.6-5l-.3-1h13.7l-.3 1c-.7 3-3.5 5-6.5 5zm-4.8-4.4c.9 1.8 2.7 2.9 4.8 2.9 2 0 3.9-1.2 4.8-2.9h-9.6z" class="C"/><path d="M117.9 104.7v-8.4m-28 8.4v-8.4" class="B"/><path fill="#ff7058" d="M49.9 79.3c0 4.5-.5 8.7-1.4 12.7-5.4-2.3-13.7-3.8-22.9-3.8S8.2 89.7 2.7 92c-.9-4-1.4-8.2-1.4-12.7 0-26.8 10.9-37.8 24.3-37.8s24.3 11 24.3 37.8z"/><path d="M50.5 128.7v-4.2c0-13.7-11.1-24.8-24.9-24.8A24.8 24.8 0 0 0 .8 124.5v4.2h49.7z" class="D"/><g class="B"><path d="M32.1,93.7H19.1v11.7c0,2.9,2.4,5.3,5.3,5.3h2.5c2.9,0,5.3-2.4,5.3-5.3V93.7z"/><path d="M45.9 74.8c0 1.4-1.1 2.6-2.6 2.6h-.2v3.5c0 9.7-7.9 17.5-17.5 17.5-9.7 0-17.5-7.9-17.5-17.5v-3.5h-.2a2.65 2.65 0 0 1-2.6-2.6 2.65 2.65 0 0 1 2.6-2.6h.2v-9.1c4.1 2.1 10.4 3.4 17.5 3.4s13.4-1.3 17.5-3.4v9.1h.2c1.4.1 2.6 1.2 2.6 2.6z"/></g><path d="M37 74.6c-.4 0-.7-.3-.7-.6-.3-1.2-1.3-2-2.6-2a2.57 2.57 0 0 0-2.5 2.1c-.1.4-.5.7-.9.6s-.7-.5-.6-.9c.4-1.9 2-3.3 4-3.3 1.9 0 3.6 1.4 4 3.3.1.4-.2.8-.6.9 0-.1-.1-.1-.1-.1zm-16.3 0c-.4 0-.7-.3-.7-.6a2.57 2.57 0 0 0-2.5-2.1A2.57 2.57 0 0 0 15 74c-.1.4-.5.7-.9.6s-.7-.5-.6-.9c.4-1.9 2-3.3 4-3.3 1.9 0 3.6 1.4 4 3.3.1.4-.2.8-.6.9h-.2zm4.9 17c-3 0-5.8-2.1-6.6-5l-.3-1h13.7l-.3 1c-.7 2.9-3.5 5-6.5 5zm-4.8-4.5c.9 1.8 2.7 2.9 4.8 2.9 2 0 3.9-1.2 4.8-2.9h-9.6z" class="C"/><path d="M39.7 128.7v-8.4m-28.1 8.4v-8.4" class="B"/><path d="M32.9 100.1v-2.4c3.4-1.5 6.3-4 8.2-7.1 2.6.6 5 1.3 7.1 2.2l.8.4.2-.9a60.7 60.7 0 0 0 1.4-12.9c0-34.8-17.5-38.5-25-38.5S.6 44.7.6 79.4c0 4.4.5 8.7 1.4 12.9l.2.9.8-.5c2-.9 4.4-1.6 7.1-2.2 2 3.1 4.8 5.6 8.2 7.1v2.4C7.7 103.2 0 113 0 124.6v4.9h51.2v-4.9a25.5 25.5 0 0 0-18.3-24.5zM3.3 91c-.8-3.8-1.2-7.7-1.2-11.7 0-23.5 8.6-37 23.5-37 15 0 23.5 13.5 23.5 37 0 4-.4 7.9-1.2 11.7-1.8-.7-3.8-1.3-6.1-1.8 1.3-2.5 2-5.3 2-8.3v-2.8c1.6-.3 2.7-1.6 2.7-3.3a3.43 3.43 0 0 0-2.7-3.3v-9.6l-1.1.5c-4.2 2.1-10.5 3.3-17.2 3.3s-13-1.2-17.2-3.3l-1.1-.5v9.6c-1.6.3-2.8 1.6-2.8 3.3 0 1.6 1.2 3 2.8 3.3v2.8c0 3 .7 5.8 2 8.3-2.1.5-4.1 1.1-5.9 1.8zm5.5-10.1v-4.2h-.9a1.79 1.79 0 1 1 0-3.6h.9v-8.7c4.4 1.9 10.4 2.9 16.8 2.9s12.4-1.1 16.8-2.9V73h.9a1.79 1.79 0 1 1 0 3.6h-.9v4.2c0 9.3-7.5 16.8-16.8 16.8-9.3.1-16.8-7.5-16.8-16.7zm22.6 17.3v7.2a4.48 4.48 0 0 1-4.5 4.5h-2.5a4.48 4.48 0 0 1-4.5-4.5v-7.2c1.8.6 3.8.9 5.8.9 1.9.1 3.9-.3 5.7-.9zM49.7 128h-9.3v-7.7h-1.5v7.7H12.3v-7.7h-1.5v7.7H1.5v-3.4c0-10.7 7.1-19.9 16.8-22.9v3.8a6.02 6.02 0 0 0 6 6h2.5a6.02 6.02 0 0 0 6-6v-3.8c9.7 3.1 16.8 12.2 16.8 22.9v3.4z" class="C"/><path d="M69.1 24c1.1-3 1.4-6.4.7-9.8a17.2 17.2 0 0 0-20.6-13 17.2 17.2 0 0 0-13 20.6 17.2 17.2 0 0 0 20.6 13c3.4-.8 6.3-2.5 8.6-4.8l8.2 1-4.5-7z" class="B"/><path d="M52.9 35.9c-8.4 0-15.6-5.8-17.5-14C33.3 12.3 39.3 2.6 49 .4c1.3-.3 2.7-.4 4-.4 8.4 0 15.6 5.8 17.5 14 .7 3.3.5 6.7-.6 9.9l4.3 6.7a.61.61 0 0 1 0 .8c-.2.2-.4.4-.7.3l-7.9-1c-2.4 2.4-5.4 4-8.7 4.7-1.3.4-2.6.5-4 .5zM53 1.5c-1.2 0-2.4.1-3.6.4C40.5 3.9 35 12.7 37 21.6c1.7 7.4 8.4 12.8 16 12.8 1.2 0 2.4-.1 3.6-.4 3.1-.7 6-2.3 8.2-4.6.2-.2.4-.2.6-.2l6.7.8-3.6-5.7c-.1-.2-.2-.4-.1-.7 1.1-3 1.3-6.2.6-9.4-1.7-7.3-8.4-12.7-16-12.7z" class="C"/><path d="M44.4 12.3h17.4" class="B"/><path d="M44.4 11.5h17.5V13H44.4z" class="C"/><path d="M44.4 17.2h17.4" class="B"/><path d="M44.4 16.4h17.5v1.5H44.4z" class="C"/><path d="M44.4 22.1h11" class="B"/><path d="M44.4 21.3h11.1v1.5H44.4z" class="C"/><path d="M57.9 111.8c-1-2.7-1.3-5.8-.6-8.8 1.9-8.3 10.2-13.6 18.5-11.7s13.6 10.2 11.7 18.5-10.2 13.6-18.5 11.7c-3-.7-5.7-2.2-7.7-4.3l-7.4.9 4-6.3z" class="B"/><path d="M129.5 100.5A25.5 25.5 0 0 0 111.2 76v-2.4c6.3-2.7 10.7-8.9 11-16.1 2.4-.3 4.2-2.4 4.2-4.9v-16c0-4.9-3-9.3-7.5-11.2-.5-3.9-3.9-6.8-7.7-6.4-1.7.2-3.4.3-5.1.3-13.1 0-21.7-5.2-21.8-5.2l-1-.6-.1 1.2c0 .3-.6 7.3 2.2 13.1-2.4 2.3-3.8 5.5-3.8 8.8v16.1c0 2.5 1.8 4.5 4.2 4.8.3 7.2 4.7 13.3 11 16.1V76A25.55 25.55 0 0 0 80 92c-1.2-.6-2.5-1.1-3.8-1.4-1.2-.3-2.4-.4-3.6-.4-7.6 0-14.1 5.2-15.8 12.7-.7 3-.5 6 .5 8.9l-3.8 6a.61.61 0 0 0 0 .8c.2.2.4.4.7.3l7-.9c2.2 2.1 4.8 3.6 7.8 4.3 1.2.3 2.4.4 3.6.4 7.6 0 14.1-5.2 15.8-12.7.3-1.5.4-3.1.4-4.6h40.9v-4.9zm-4.6-47.8a3.43 3.43 0 0 1-2.7 3.3v-2c1.4-.2 2.4-1.3 2.7-2.7v1.4zm-42-16.1a10.85 10.85 0 0 1 3.7-8.1l.5-.4-.3-.5c-2.2-4.2-2.4-9.4-2.3-11.7 2.8 1.4 10.5 4.8 21.5 4.8 1.7 0 3.5-.1 5.3-.3 3.1-.3 5.9 2.2 6.1 5.5v.5l.5.2c4.2 1.5 7 5.5 7 10v13.5c-.3-1.3-1.3-2.4-2.7-2.7v-3.1h1c.4 0 .8-.3.8-.8 0-.4-.3-.8-.8-.8s-1.1 0-1.6-.1c-6.6-.7-12.3-5.4-14.1-11.8-.1-.3-.3-.5-.6-.5s-.6.1-.7.4c-4.3 6.9-11.6 11.4-19.7 12-.6 0-1.2.1-1.8.1-.4 0-.8.3-.8.8 0 .4.3.8.8.8h1.2v3.1c-1.4.2-2.4 1.3-2.7 2.6V36.6zM85.6 56a3.43 3.43 0 0 1-2.7-3.3v-1.3c.3 1.3 1.3 2.4 2.7 2.6v2zm1.5.8v-4.2h-.9a1.79 1.79 0 1 1 0-3.6h.9v-4.6c7.8-.8 14.9-4.9 19.3-11.3 2.3 6 7.8 10.4 14.2 11.3V49h.9a1.79 1.79 0 1 1 0 3.6h-.9v4.2c0 9.3-7.5 16.8-16.8 16.8-9.2 0-16.7-7.5-16.7-16.8zm22.6 17.3v7.2a4.48 4.48 0 0 1-4.5 4.5h-2.5a4.48 4.48 0 0 1-4.5-4.5v-7.2c1.8.6 3.8 1 5.8 1 1.9 0 3.9-.3 5.7-1zm-22.9 35.6c-1.5 6.7-7.5 11.5-14.4 11.5-1.1 0-2.2-.1-3.3-.4-2.8-.6-5.3-2.1-7.3-4.1-.1-.1-.3-.2-.5-.2h-.1l-5.8.7 3.2-5c.1-.2.2-.4.1-.7-1-2.7-1.2-5.6-.6-8.4 1.5-6.7 7.5-11.5 14.4-11.5 1.1 0 2.2.1 3.3.4 7.8 1.8 12.8 9.7 11 17.7zm41.2-5.8h-9.3v-7.7h-1.5v7.7H90.6v-7.7h-1.5v7.7h-.7c-.7-4.6-3.4-8.7-7.3-11.2 2.5-7.2 8.2-12.9 15.5-15.2v3.8a6.02 6.02 0 0 0 6 6h2.5a6.02 6.02 0 0 0 6-6v-3.8c9.7 3.1 16.8 12.2 16.8 22.9v3.5z" class="C"/><path d="M80.2 101.3H64.4" class="B"/><path d="M64.4 100.6h15.7v1.5H64.4z" class="C"/><path d="M80.2 105.7H64.4" class="B"/><path d="M64.4 105h15.7v1.5H64.4z" class="C"/><path d="M80.2 110.1h-10" class="B"/><path d="M70.2 109.4h9.9v1.5h-9.9z" class="C"/><defs ><path id="B" d="M121.9 12.9c-.2 0-.4-.1-.5-.2l-1.3-1.3c-.3-.3-.3-.8 0-1.1s.8-.3 1.1 0l1.3 1.3c.3.3.3.8 0 1.1-.2.1-.4.2-.6.2z"/><path id="C" d="M12.9 11.7c-.2 0-.4-.1-.5-.2-.3-.3-.3-.8 0-1.1l1.3-1.3c.3-.3.8-.3 1.1 0s.3.8 0 1.1l-1.3 1.3c-.2.1-.4.2-.6.2z"/></defs></svg>