<svg xmlns="http://www.w3.org/2000/svg" xmlns:xlink="http://www.w3.org/1999/xlink" viewBox="0 0 129.5 129.5"><path d="M15.9 28.9c-7.2 0-13-5.9-13-13s5.9-13.1 13-13.1c7.2 0 13 5.9 13 13.1s-5.8 13-13 13zm0-24.6A11.61 11.61 0 0 0 4.3 15.9c0 6.4 5.2 11.5 11.5 11.5 6.4 0 11.5-5.2 11.5-11.5.1-6.4-5-11.6-11.4-11.6z" fill="#231F20"/><path d="M15.9 26.2c-5.7 0-10.3-4.6-10.3-10.3S10.2 5.6 15.9 5.6s10.3 4.6 10.3 10.3-4.6 10.3-10.3 10.3z" fill="#84DBFF"/><path d="M15.7 31.8h-1l.1-1.5h1l-.1 1.5zm1 0l-.1-1.5c.3 0 .6 0 .9-.1l.2 1.5c-.3 0-.6 0-1 .1zm-3.1-.2c-.3-.1-.7-.1-1-.2l.3-1.5c.3.1.6.1.9.2l-.2 1.5zm5.2-.1l-.3-1.5c.3-.1.6-.1.9-.2l.4 1.5c-.3.1-.7.1-1 .2zm-7.3-.3l-1-.3.5-1.4.9.3-.4 1.4zm9.3-.2l-.5-1.4.9-.3.6 1.4-1 .3zm-11.2-.5c-.3-.1-.6-.3-1-.5l.7-1.3c.3.1.6.3.9.4l-.6 1.4zm13.2-.3l-.7-1.4c.3-.1.6-.3.8-.4l.7 1.3c-.2.2-.5.4-.8.5zm-15.1-.7l-.9-.6.9-1.2c.3.2.5.4.8.5l-.8 1.3zm16.9-.3l-.8-1.3c.3-.2.5-.4.8-.5l.9 1.2-.9.6zM6 28.3c-.3-.2-.5-.4-.8-.7l1-1.1c.2.2.5.4.7.6L6 28.3zm20.3-.4l-1-1.1c.2-.2.5-.4.7-.6l1.1 1.1c-.3.2-.6.4-.8.6zm-21.9-1c-.2-.3-.5-.5-.7-.8l1.1-1c.2.2.4.5.6.7l-1 1.1zm23.4-.5l-1.1-1c.2-.2.4-.5.6-.7l1.2.9c-.3.3-.5.6-.7.8zM3.1 25.3l-.6-.9 1.3-.8c.2.3.4.5.5.8l-1.2.9zm26-.5l-1.2-.8.5-.8 1.3.8c-.3.2-.5.5-.6.8zM1.9 23.5c-.2-.3-.3-.6-.5-.9l1.4-.6c.1.3.3.6.4.8l-1.3.7zm28.2-.5l-1.3-.7c.1-.3.3-.6.4-.9l1.4.6c-.2.3-.3.7-.5 1zm-29-1.4l-.3-1 1.4-.4.3.9-1.4.5zm29.8-.6l-1.4-.5.3-.9 1.4.4-.3 1zM.4 19.6c-.1-.3-.2-.7-.2-1l1.5-.3c.1.3.1.6.2.9l-1.5.4zm31.1-.6l-1.5-.3c.1-.3.1-.6.2-.9l1.5.2c-.1.3-.2.7-.2 1zM.1 17.5c0-.3-.1-.7-.1-1l1.5-.1c0 .3 0 .6.1.9l-1.5.2zm31.6-.6l-1.5-.1v-.9h1.5c.1.3.1.7 0 1zm-1.4-1.2v-.9l1.5-.1v1h-1.5zm-28.8-.2H0c0-.4 0-.7.1-1.1l1.5.1c-.1.4-.1.7-.1 1zm28.6-1.7c0-.3-.1-.6-.2-.9l1.5-.3c.1.3.1.7.2 1l-1.5.2zm-28.4-.2l-1.5-.2c.1-.3.1-.7.2-1l1.5.3c-.1.3-.2.6-.2.9zm28-1.6l-.3-.9 1.4-.5.3 1-1.4.4zm-27.6-.2l-1.4-.4.3-1 1.4.5c-.1.2-.2.5-.3.9zm27-1.6c-.1-.3-.3-.6-.4-.9l1.3-.7c.2.3.3.6.4.9l-1.3.7zM2.8 10l-1.4-.6c.1-.4.3-.7.5-1l1.3.7c-.2.3-.3.6-.4.9zm25.4-1.5l-.5-.8 1.3-.9.6.9-1.4.8zM3.7 8.3l-1.3-.8.6-.9 1.2.9c-.2.3-.4.5-.5.8zm23.5-1.4c-.2-.2-.4-.5-.6-.7l1.1-1c.2.3.5.5.7.8l-1.2.9zM4.8 6.8l-1.2-1c.2-.3.5-.5.7-.8l1.1 1c-.2.3-.4.5-.6.8zm21.1-1.3c-.2-.2-.5-.4-.7-.6l1-1.1c.3.2.5.5.8.7l-1.1 1zM6.1 5.4L5 4.3c.3-.3.6-.5.8-.7l.9 1.2c-.2.1-.4.4-.6.6zm18.3-1.1c-.3-.2-.5-.4-.8-.5l.8-1.3.9.6-.9 1.2zM7.5 4.2l-.8-1.3c.3-.2.5-.4.8-.5l.8 1.3c-.2.1-.5.3-.8.5zm15.3-.9c-.2-.2-.5-.3-.8-.5l.6-1.4c.3.1.6.3.9.5l-.7 1.4zM9.2 3.2l-.8-1.4c.3-.2.6-.3.9-.5l.7 1.5c-.3.1-.6.2-.8.4zm11.9-.7l-.9-.3.5-1.4 1 .3-.6 1.4zm-10.2-.1L10.4 1l1-.3.4 1.4-.9.3zm8.4-.5c-.3-.1-.6-.1-.9-.2l.3-1.5c.3.1.7.1 1 .2l-.4 1.5zm-6.6 0L12.4.4c.3-.1.7-.1 1-.2l.2 1.5c-.3 0-.6.1-.9.2zm4.7-.3c-.3 0-.6-.1-.9-.1V0c.4 0 .7 0 1 .1l-.1 1.5zm-2.8 0L14.5.1c.3 0 .7-.1 1-.1v1.5c-.3 0-.6 0-.9.1zm1.3 125.1c-7.2 0-13-5.9-13-13 0-7.2 5.9-13.1 13-13.1 7.2 0 13 5.9 13 13.1 0 7.1-5.8 13-13 13zm0-24.6c-6.4 0-11.5 5.2-11.5 11.6s5.2 11.5 11.5 11.5c6.4 0 11.5-5.2 11.5-11.5 0-6.5-5.1-11.6-11.5-11.6z" fill="#231F20"/><use xlink:href="#B" fill="#E6E9EE"/><g fill="#231F20"><path d="M15.7 129.5h-1l.1-1.5h1l-.1 1.5zm1 0l-.1-1.5c.3 0 .6 0 .9-.1l.2 1.5c-.3 0-.6.1-1 .1zm-3.1-.2c-.3-.1-.7-.1-1-.2l.3-1.5c.3.1.6.1.9.2l-.2 1.5zm5.2-.1l-.3-1.5c.3-.1.6-.1.9-.2l.4 1.5c-.3.1-.7.2-1 .2zm-7.3-.3l-1-.3.5-1.4.9.3-.4 1.4zm9.3-.2l-.5-1.4.9-.3.6 1.4-1 .3zm-11.2-.5c-.3-.1-.6-.3-1-.5l.7-1.3c.3.1.6.3.9.4l-.6 1.4zm13.2-.3l-.7-1.4c.3-.1.6-.3.8-.4l.7 1.3c-.2.2-.5.4-.8.5zm-15.1-.7l-.9-.6.9-1.2c.3.2.5.4.8.5l-.8 1.3zm16.9-.3l-.8-1.3c.3-.2.5-.4.8-.5l.9 1.2-.9.6zM6 126c-.3-.2-.5-.4-.8-.7l1-1.1c.2.2.5.4.7.6L6 126zm20.3-.4l-1-1.1c.2-.2.5-.4.7-.6l1.1 1.1c-.3.2-.6.4-.8.6zm-21.9-1c-.2-.3-.5-.5-.7-.8l1.1-1c.2.2.4.5.6.7l-1 1.1zm23.4-.4l-1.1-1c.2-.2.4-.5.6-.7l1.2.9c-.3.2-.5.5-.7.8zM3.1 123l-.6-.9 1.3-.8c.2.3.4.5.5.8l-1.2.9zm26-.5l-1.2-.8.5-.8 1.3.8c-.3.2-.5.5-.6.8zm-27.2-1.3c-.2-.3-.3-.6-.5-.9l1.4-.6c.1.3.3.6.4.8l-1.3.7zm28.2-.5l-1.3-.7c.1-.3.3-.6.4-.9l1.4.6c-.2.4-.3.7-.5 1zm-29-1.4l-.3-1 1.4-.4.3.9-1.4.5zm29.8-.5l-1.4-.5.3-.9 1.4.4-.3 1zM.4 117.3c-.1-.3-.2-.7-.2-1l1.5-.3c.1.3.1.6.2.9l-1.5.4zm31.1-.6l-1.5-.3c.1-.3.1-.6.2-.9l1.5.2c-.1.3-.2.7-.2 1zM.1 115.3c0-.3-.1-.7-.1-1l1.5-.1c0 .3 0 .6.1.9l-1.5.2zm31.6-.6l-1.5-.1v-.9h1.5c.1.3.1.6 0 1zm-1.4-1.3v-.9l1.5-.1v1h-1.5zm-28.8-.2H0c0-.4 0-.7.1-1.1l1.5.1c-.1.4-.1.7-.1 1zm28.6-1.6c0-.3-.1-.6-.2-.9l1.5-.3c.1.3.1.7.2 1l-1.5.2zm-28.4-.3l-1.5-.2c.1-.3.1-.7.2-1l1.5.3c-.1.3-.2.6-.2.9zm28-1.6l-.3-.9 1.4-.5.3 1-1.4.4zm-27.6-.2L.7 109l.3-1 1.4.5-.3 1zm27-1.6c-.1-.3-.3-.6-.4-.9l1.3-.7c.2.3.3.6.4.9l-1.3.7zm-26.3-.2l-1.4-.6c.1-.3.3-.6.5-.9l1.3.7c-.2.2-.3.5-.4.8zm25.4-1.5l-.5-.8 1.2-.9.6.9-1.3.8zM3.7 106l-1.3-.8.6-.9 1.2.9c-.2.3-.4.5-.5.8zm23.5-1.3c-.2-.2-.4-.5-.6-.7l1.1-1c.2.3.5.5.7.8l-1.2.9zm-22.4-.2l-1.2-1c.2-.3.5-.5.7-.8l1.1 1c-.2.3-.4.5-.6.8zm21.1-1.2c-.2-.2-.5-.4-.7-.6l1-1.1c.3.2.5.5.8.7l-1.1 1zm-19.8-.2L5 102c.3-.2.5-.5.8-.7l.9 1.2-.6.6zm18.3-1.1c-.3-.2-.5-.4-.8-.5l.8-1.3.9.6-.9 1.2zm-16.9-.1l-.9-1.2.9-.6.8 1.3c-.2.1-.5.3-.8.5zm15.3-.9c-.3-.2-.6-.3-.8-.4l.6-1.4c.3.1.6.3.9.5l-.7 1.3zm-13.6-.1l-.7-1.3c.3-.2.6-.3.9-.5l.6 1.4c-.3.1-.6.2-.8.4zm11.9-.7l-.9-.3.5-1.4 1 .3-.6 1.4zm-10.2-.1l-.5-1.4 1-.3.4 1.4-.9.3zm8.4-.5c-.3-.1-.6-.1-.9-.2l.3-1.5c.3.1.7.1 1 .2l-.4 1.5zm-6.6 0l-.3-1.5c.3-.1.7-.1 1-.2l.2 1.5c-.3 0-.6.1-.9.2zm4.7-.3c-.3 0-.6-.1-.9-.1l.1-1.5c.4 0 .7 0 1 .1l-.2 1.5zm-2.8 0l-.1-1.5c.3 0 .7-.1 1-.1v1.5c-.3 0-.6 0-.9.1z"/><use xlink:href="#C"/></g><path d="M64.7 26.2c-5.7 0-10.3-4.6-10.3-10.3S59 5.6 64.7 5.6 75 10.2 75 15.9s-4.6 10.3-10.3 10.3z" fill="#E6E9EE"/><g fill="#231F20"><path d="M64.5 31.8h-1l.1-1.5h1l-.1 1.5zm1.1 0l-.1-1.5c.3 0 .6 0 .9-.1l.2 1.5c-.3 0-.7 0-1 .1zm-3.2-.2c-.3-.1-.7-.1-1-.2l.3-1.5c.3.1.6.1.9.2l-.2 1.5zm5.3-.1l-.3-1.5c.3-.1.6-.1.9-.2l.4 1.5c-.4.1-.7.1-1 .2zm-7.3-.3l-1-.3.5-1.4.9.3-.4 1.4zm9.3-.2l-.5-1.4.9-.3.6 1.4-1 .3zm-11.3-.5c-.3-.1-.6-.3-1-.5l.7-1.3c.3.1.6.3.9.4l-.6 1.4zm13.2-.3l-.6-1.3c.3-.1.6-.3.8-.4l.7 1.3c-.2.1-.5.3-.9.4zm-15.1-.7l-.9-.6.9-1.2c.3.2.5.4.8.5l-.8 1.3zm17-.3l-.8-1.3c.3-.2.5-.4.8-.5l.9 1.2c-.4.2-.6.4-.9.6zm-18.7-.9c-.3-.2-.5-.4-.8-.7l1-1.1c.2.2.5.4.7.6l-.9 1.2zm20.3-.4l-1-1.1c.2-.2.5-.4.7-.6l1.1 1.1c-.2.2-.5.4-.8.6zm-21.8-1c-.2-.3-.5-.5-.7-.8l1.1-1c.2.2.4.5.6.7l-1 1.1zm23.3-.5l-1.1-1c.2-.2.4-.5.6-.7l1.2.9c-.2.3-.4.6-.7.8zm-24.7-1.1l-.6-.9 1.3-.8c.2.3.4.5.5.8l-1.2.9zm26-.5l-1.2-.8.5-.8 1.3.8c-.2.2-.4.5-.6.8zm-27.1-1.3c-.2-.3-.3-.6-.5-.9l1.4-.6c.1.3.3.6.4.8l-1.3.7zM79 23l-1.3-.7c.1-.3.3-.6.4-.9l1.4.6a4.67 4.67 0 0 0-.5 1zm-29.1-1.4l-.3-1 1.4-.4.3.9-1.4.5zm29.9-.6l-1.4-.5.3-.9 1.4.4-.3 1zm-30.5-1.4c-.1-.3-.2-.7-.2-1l1.5-.3c.1.3.1.6.2.9l-1.5.4zm31-.6l-1.5-.3c.1-.3.1-.6.2-.9l1.5.2c0 .3-.1.7-.2 1zm-31.4-1.5c0-.3-.1-.7-.1-1l1.5-.1c0 .3 0 .6.1.9l-1.5.2zm31.7-.6l-1.5-.1v-.9h1.5v1zm-1.5-1.2v-.9l1.5-.1v1h-1.5zm-28.7-.2h-1.5c0-.4 0-.7.1-1.1l1.5.1c-.1.4-.1.7-.1 1zM79 13.8c0-.3-.1-.6-.2-.9l1.5-.3c.1.3.1.7.2 1l-1.5.2zm-28.5-.2l-1.5-.2c.1-.3.1-.7.2-1l1.5.3c-.1.3-.1.6-.2.9zM78.6 12l-.3-.9 1.4-.5.3 1-1.4.4zM51 11.8l-1.4-.4.3-1 1.4.5c-.1.2-.2.5-.3.9zm27-1.6c-.1-.3-.3-.6-.4-.9l1.3-.7c.2.3.3.6.4.9l-1.3.7zM51.6 10l-1.4-.6c.1-.3.3-.6.5-.9l1.3.6c-.1.3-.2.6-.4.9zm25.5-1.5l-.5-.8 1.2-.9.6.9-1.3.8zm-24.6-.2l-1.3-.8.6-.9 1.2.9c-.1.3-.3.5-.5.8zM76 6.9c-.2-.2-.4-.5-.6-.7l1.1-1c.2.3.5.5.7.8l-1.2.9zm-22.4-.1l-1.2-1c.2-.3.5-.5.7-.8l1.1 1c-.2.3-.4.5-.6.8zm21.1-1.3c-.2-.2-.5-.4-.7-.6l1-1.1c.3.2.5.5.8.7l-1.1 1zm-19.8-.1l-1-1.1c.3-.2.5-.5.8-.7l.9 1.2c-.2.1-.4.4-.7.6zm18.4-1.1c-.3-.2-.5-.4-.8-.5l.8-1.3.9.6-.9 1.2zm-16.9-.1L55.5 3l.9-.6.8 1.3c-.3.1-.5.3-.8.5zm15.3-.9c-.3-.2-.6-.3-.8-.4l.6-1.4c.3.1.6.3.9.5l-.7 1.3zM58 3.2l-.7-1.3c.3-.2.6-.3.9-.5l.6 1.4c-.2.1-.5.2-.8.4zm12-.7l-.9-.3.5-1.4 1 .3-.6 1.4zm-10.3-.1L59.2 1l1-.3.4 1.4-.9.3zm8.5-.5c-.3-.1-.6-.1-.9-.2l.3-1.5c.3.1.7.1 1 .2l-.4 1.5zm-6.6 0L61.3.4c.3-.1.7-.1 1-.2l.2 1.5c-.3 0-.6.1-.9.2zm4.7-.3c-.3 0-.6-.1-.9-.1V0c.4 0 .7 0 1 .1l-.1 1.5zm-2.9 0L63.3.1c.4-.1.7-.1 1.1-.1v1.5c-.3 0-.6 0-1 .1z"/><use xlink:href="#D"/></g><path d="M64.7 123.9c-5.7 0-10.3-4.6-10.3-10.3s4.6-10.3 10.3-10.3S75 107.9 75 113.6s-4.6 10.3-10.3 10.3z" fill="#FFD05B"/><g fill="#231F20"><path d="M64.5 129.5h-1l.1-1.5h1l-.1 1.5zm1.1 0l-.1-1.5c.3 0 .6 0 .9-.1l.2 1.5c-.3 0-.7.1-1 .1zm-3.2-.2c-.3-.1-.7-.1-1-.2l.3-1.5c.3.1.6.1.9.2l-.2 1.5zm5.3-.1l-.3-1.5c.3-.1.6-.1.9-.2l.4 1.5c-.4.1-.7.2-1 .2zm-7.3-.3l-1-.3.5-1.4.9.3-.4 1.4zm9.3-.2l-.5-1.4.9-.3.6 1.4-1 .3zm-11.3-.5c-.3-.1-.6-.3-1-.5l.7-1.3c.3.1.6.3.9.4l-.6 1.4zm13.2-.3l-.7-1.4c.3-.1.6-.3.8-.4l.7 1.3c-.1.2-.4.4-.8.5zm-15.1-.7l-.9-.6.9-1.2c.3.2.5.4.8.5l-.8 1.3zm17-.3l-.8-1.3c.3-.2.5-.4.8-.5l.9 1.2c-.4.2-.6.4-.9.6zm-18.7-.9c-.3-.2-.5-.4-.8-.7l1-1.1c.2.2.5.4.7.6l-.9 1.2zm20.3-.4l-1-1.1c.2-.2.5-.4.7-.6l1.1 1.1c-.2.2-.5.4-.8.6zm-21.8-1c-.2-.3-.5-.5-.7-.8l1.1-1c.2.2.4.5.6.7l-1 1.1zm23.3-.4l-1.1-1c.2-.2.4-.5.6-.7l1.2.9c-.2.2-.4.5-.7.8zM51.9 123l-.6-.9 1.3-.8c.2.3.4.5.5.8l-1.2.9zm26-.5l-1.2-.8.5-.8 1.3.8c-.2.2-.4.5-.6.8zm-27.1-1.3c-.2-.3-.3-.6-.5-.9l1.4-.6c.1.3.3.6.4.8l-1.3.7zm28.2-.5l-1.3-.7c.1-.3.3-.6.4-.9l1.4.6c-.2.4-.4.7-.5 1zm-29.1-1.4l-.3-1 1.4-.4.3.9-1.4.5zm29.9-.5l-1.4-.5.3-.9 1.4.4-.3 1zm-30.5-1.5c-.1-.3-.2-.7-.2-1l1.5-.3c.1.3.1.6.2.9l-1.5.4zm31-.6l-1.5-.3c.1-.3.1-.6.2-.9l1.5.2c0 .3-.1.7-.2 1zm-31.4-1.4c0-.3-.1-.7-.1-1l1.5-.1c0 .3 0 .6.1.9l-1.5.2zm31.7-.6l-1.5-.1v-.9h1.5v1zm-1.5-1.3v-.9l1.5-.1v1h-1.5zm-28.7-.2h-1.5c0-.4 0-.7.1-1.1l1.5.1c-.1.4-.1.7-.1 1zm28.6-1.6c0-.3-.1-.6-.2-.9l1.5-.3c.1.3.1.7.2 1l-1.5.2zm-28.5-.3l-1.5-.2c.1-.3.1-.7.2-1l1.5.3c-.1.3-.1.6-.2.9zm28.1-1.6l-.3-.9 1.4-.5.3 1-1.4.4zm-27.6-.2l-1.4-.4.3-1 1.4.5c-.1.3-.3.6-.3.9zm27-1.6c-.1-.3-.3-.6-.4-.9l1.3-.7c.2.3.3.6.4.9l-1.3.7zm-26.4-.2l-1.4-.6c.1-.3.3-.6.5-.9l1.3.7c-.1.2-.2.5-.4.8zm25.5-1.5l-.5-.8 1.2-.9.6.9-1.3.8zm-24.6-.2l-1.3-.8.6-.9 1.2.9c-.1.3-.3.5-.5.8zm23.5-1.3c-.2-.2-.4-.5-.6-.7l1.1-1c.2.3.5.5.7.8l-1.2.9zm-22.4-.2l-1.2-1c.2-.3.5-.5.7-.8l1.1 1c-.2.3-.4.5-.6.8zm21.1-1.2c-.2-.2-.5-.4-.7-.6l1-1.1c.3.2.5.5.8.7l-1.1 1zm-19.8-.2l-1-1.1c.3-.2.5-.5.8-.7l.9 1.2c-.2.2-.4.4-.7.6zm18.4-1.1c-.3-.2-.5-.4-.8-.5l.8-1.3.9.6-.9 1.2zm-16.9-.1l-.9-1.2.9-.6.8 1.3c-.3.1-.5.3-.8.5zm15.3-.9c-.3-.2-.6-.3-.8-.4l.6-1.4c.3.1.6.3.9.5l-.7 1.3zm-13.7-.1l-.7-1.3c.3-.2.6-.3.9-.5l.6 1.4c-.2.1-.5.2-.8.4zm12-.7l-.9-.3.5-1.4 1 .3-.6 1.4zm-10.3-.1l-.5-1.4 1-.3.4 1.4-.9.3zm8.5-.5c-.3-.1-.6-.1-.9-.2l.3-1.5c.3.1.7.1 1 .2l-.4 1.5zm-6.6 0l-.3-1.5c.3-.1.7-.1 1-.2l.2 1.5c-.3 0-.6.1-.9.2zm4.7-.3c-.3 0-.6-.1-.9-.1l.1-1.5c.4 0 .7 0 1 .1l-.2 1.5zm-2.9 0l-.1-1.5c.3 0 .7-.1 1-.1v1.5c-.2 0-.5 0-.9.1zm40.8-82.7c-.4 0-.8-.3-.8-.8 0-5.6 4.6-10.2 10.2-10.2.4 0 .8.3.8.8 0 .4-.3.8-.8.8a8.71 8.71 0 0 0-8.7 8.7.68.68 0 0 1-.7.7z"/><use xlink:href="#C" x="48.9"/></g><use xlink:href="#B" x="97.7" y="-97.7" fill="#FF7058"/><g fill="#231F20"><path d="M113.4 31.8h-1l.1-1.5h1l-.1 1.5zm1 0l-.1-1.5c.3 0 .6 0 .9-.1l.2 1.5c-.3 0-.6 0-1 .1zm-3.1-.2c-.3-.1-.7-.1-1-.2l.3-1.5c.3.1.6.1.9.2l-.2 1.5zm5.2-.1l-.3-1.5c.3-.1.6-.1.9-.2l.4 1.5c-.3.1-.6.1-1 .2zm-7.3-.3l-1-.3.5-1.4.9.3-.4 1.4zm9.4-.2l-.5-1.4.9-.3.6 1.4-1 .3zm-11.3-.5c-.3-.1-.6-.3-1-.5l.7-1.3c.3.1.6.3.9.4l-.6 1.4zm13.2-.3l-.7-1.4c.3-.1.6-.3.8-.4l.7 1.3c-.2.2-.5.4-.8.5zm-15.1-.7l-.9-.6.9-1.2c.3.2.5.4.8.5l-.8 1.3zm16.9-.3l-.8-1.3c.3-.2.5-.4.8-.5l.9 1.2-.9.6zm-18.6-.9c-.3-.2-.5-.4-.8-.7l1-1.1c.2.2.5.4.7.6l-.9 1.2zm20.3-.4l-1-1.1c.2-.2.5-.4.7-.6l1.1 1.1c-.3.2-.5.4-.8.6zm-21.9-1c-.2-.3-.5-.5-.7-.8l1.1-1c.2.2.4.5.6.7l-1 1.1zm23.4-.5l-1.1-1c.2-.2.4-.5.6-.7l1.2.9c-.3.3-.5.6-.7.8zm-24.7-1.1l-.6-.9 1.3-.8c.2.3.4.5.5.8l-1.2.9zm26-.5l-1.2-.8.5-.8 1.3.8c-.2.2-.4.5-.6.8zm-27.1-1.3c-.2-.3-.3-.6-.5-.9l1.4-.6c.1.3.3.6.4.8l-1.3.7zm28.1-.5l-1.3-.7c.1-.3.3-.6.4-.9l1.4.6c-.2.3-.3.7-.5 1zm-29-1.4l-.3-1 1.4-.4.3.9-1.4.5zm29.8-.6l-1.4-.5.3-.9 1.5.4c-.1.4-.2.7-.4 1zm-30.4-1.4c-.1-.3-.2-.7-.2-1l1.5-.3c.1.3.1.6.2.9l-1.5.4zm31-.6l-1.5-.3c.1-.3.1-.6.2-.9l1.5.2c-.1.3-.1.7-.2 1zm-31.4-1.5c0-.3-.1-.7-.1-1l1.5-.1c0 .3 0 .6.1.9l-1.5.2zm31.7-.6l-1.5-.1v-.9h1.5v1zm-1.5-1.2v-.9l1.5-.1v1H128zm-28.8-.2h-1.5c0-.4 0-.7.1-1.1l1.5.1c-.1.4-.1.7-.1 1zm28.7-1.7c0-.3-.1-.6-.2-.9l1.5-.3c.1.3.1.7.2 1l-1.5.2zm-28.5-.2l-1.5-.2c.1-.3.1-.7.2-1l1.5.3c-.1.3-.2.6-.2.9zm28.1-1.6l-.3-.9 1.4-.5.3 1-1.4.4zm-27.7-.2l-1.4-.4.3-1 1.4.5c-.1.2-.2.5-.3.9zm27-1.6c-.1-.3-.3-.6-.4-.9l1.3-.7c.2.3.3.6.4.9l-1.3.7zm-26.3-.2l-1.4-.6c.1-.3.3-.6.5-.9l1.3.7c-.1.2-.3.5-.4.8zM126 8.5l-.5-.8 1.2-.9.6.9-1.3.8zm-24.6-.2l-1.3-.8.6-.9 1.2.9c-.2.3-.4.5-.5.8zm23.5-1.4c-.2-.2-.4-.5-.6-.7l1.1-1c.2.3.5.5.7.8l-1.2.9zm-22.4-.1l-1.2-1c.2-.3.5-.5.7-.8l1.1 1c-.2.3-.4.5-.6.8zm21.1-1.3c-.2-.2-.5-.4-.7-.6l1-1.1c.3.2.5.5.8.7l-1.1 1zm-19.8-.1l-1-1.1c.3-.2.5-.5.8-.7l.9 1.2c-.2.1-.5.4-.7.6zm18.3-1.1c-.3-.2-.5-.4-.8-.5l.8-1.3.9.6-.9 1.2zm-16.8-.1l-.9-1.2.9-.6.8 1.3c-.3.1-.6.3-.8.5zm15.2-.9c-.3-.2-.6-.3-.8-.4l.6-1.4c.3.1.6.3.9.5l-.7 1.3zm-13.6-.1l-.7-1.3c.3-.2.6-.3.9-.5l.6 1.4c-.3.1-.5.2-.8.4zm11.9-.7l-.9-.3.5-1.4 1 .3-.6 1.4zm-10.2-.1l-.5-1.4 1-.3.4 1.4-.9.3zm8.4-.5c-.3-.1-.6-.1-.9-.2l.3-1.5c.3.1.7.1 1 .2l-.4 1.5zm-6.6 0l-.3-1.5c.3-.1.7-.1 1-.2l.2 1.5c-.3 0-.6.1-.9.2zm4.7-.3c-.3 0-.6-.1-.9-.1l.1-1.5c.4 0 .7 0 1 .1l-.2 1.5zm-2.8 0l-.1-1.5c.3 0 .7-.1 1-.1v1.5c-.3 0-.6 0-.9.1zm-8.1 112.8c-.4 0-.8-.3-.8-.8 0-5.6 4.6-10.2 10.2-10.2.4 0 .8.3.8.8 0 .4-.3.8-.8.8a8.71 8.71 0 0 0-8.7 8.7c0 .3-.3.7-.7.7z"/><use xlink:href="#D" x="48.9"/></g><use xlink:href="#B" x="97.7" fill="#E6E9EE"/><path d="M113.4 129.5h-1l.1-1.5h1l-.1 1.5zm1 0l-.1-1.5c.3 0 .6 0 .9-.1l.2 1.5c-.3 0-.6.1-1 .1zm-3.1-.2c-.3-.1-.7-.1-1-.2l.3-1.5c.3.1.6.1.9.2l-.2 1.5zm5.2-.1l-.3-1.5c.3-.1.6-.1.9-.2l.4 1.5c-.3.1-.6.2-1 .2zm-7.3-.3l-1-.3.5-1.4.9.3-.4 1.4zm9.4-.2l-.5-1.4.9-.3.6 1.4-1 .3zm-11.3-.5c-.3-.1-.6-.3-1-.5l.7-1.3c.3.1.6.3.9.4l-.6 1.4zm13.2-.3l-.7-1.4c.3-.1.6-.3.8-.4l.7 1.3c-.2.2-.5.4-.8.5zm-15.1-.7l-.9-.6.9-1.2c.3.2.5.4.8.5l-.8 1.3zm16.9-.3l-.8-1.3c.3-.2.5-.4.8-.5l.9 1.2-.9.6zm-18.6-.9c-.3-.2-.5-.4-.8-.7l1-1.1c.2.2.5.4.7.6l-.9 1.2zm20.3-.4l-1-1.1c.2-.2.5-.4.7-.6l1.1 1.1c-.3.2-.5.4-.8.6zm-21.9-1c-.2-.3-.5-.5-.7-.8l1.1-1c.2.2.4.5.6.7l-1 1.1zm23.4-.4l-1.1-1c.2-.2.4-.5.6-.7l1.2.9c-.3.2-.5.5-.7.8zm-24.7-1.2l-.6-.9 1.3-.8c.2.3.4.5.5.8l-1.2.9zm26-.5l-1.2-.8.5-.8 1.3.8c-.2.2-.4.5-.6.8zm-27.1-1.3c-.2-.3-.3-.6-.5-.9l1.4-.6c.1.3.3.6.4.8l-1.3.7zm28.1-.5l-1.3-.7c.1-.3.3-.6.4-.9l1.4.6c-.2.4-.3.7-.5 1zm-29-1.4l-.3-1 1.4-.4.3.9-1.4.5zm29.8-.5l-1.4-.5.3-.9 1.4.4c0 .3-.1.6-.3 1zm-30.4-1.5c-.1-.3-.2-.7-.2-1l1.5-.3c.1.3.1.6.2.9l-1.5.4zm31-.6l-1.5-.3c.1-.3.1-.6.2-.9l1.5.2c-.1.3-.1.7-.2 1zm-31.4-1.4c0-.3-.1-.7-.1-1l1.5-.1c0 .3 0 .6.1.9l-1.5.2zm31.7-.6l-1.5-.1v-.9h1.5v1zm-1.5-1.3v-.9l1.5-.1v1H128zm-28.8-.2h-1.5c0-.4 0-.7.1-1.1l1.5.1c-.1.4-.1.7-.1 1zm28.7-1.6c0-.3-.1-.6-.2-.9l1.5-.3c.1.3.1.7.2 1l-1.5.2zm-28.5-.3l-1.5-.2c.1-.3.1-.7.2-1l1.5.3c-.1.3-.2.6-.2.9zm28.1-1.6l-.3-.9 1.4-.5.3 1-1.4.4zm-27.7-.2l-1.4-.4.3-1 1.4.5-.3.9zm27-1.6c-.1-.3-.3-.6-.4-.9l1.3-.7c.2.3.3.6.4.9l-1.3.7zm-26.3-.2l-1.4-.6c.1-.3.3-.6.5-.9l1.3.7c-.1.2-.3.5-.4.8zm25.5-1.5l-.5-.8 1.2-.9.6.9-1.3.8zm-24.6-.2l-1.3-.8.6-.9 1.2.9c-.2.3-.4.5-.5.8zm23.5-1.3c-.2-.2-.4-.5-.6-.7l1.1-1c.2.3.5.5.7.8l-1.2.9zm-22.4-.2l-1.2-1c.2-.3.5-.5.7-.8l1.1 1c-.2.3-.4.5-.6.8zm21.1-1.2c-.2-.2-.5-.4-.7-.6l1-1.1c.3.2.5.5.8.7l-1.1 1zm-19.8-.2l-1-1.1c.3-.2.5-.5.8-.7l.9 1.2c-.2.2-.5.4-.7.6zm18.3-1.1c-.3-.2-.5-.4-.8-.5l.8-1.3.9.6-.9 1.2zm-16.8-.1l-.9-1.2.9-.6.8 1.3c-.3.1-.6.3-.8.5zm15.2-.9c-.3-.2-.6-.3-.8-.4l.6-1.4c.3.1.6.3.9.5l-.7 1.3zm-13.6-.1l-.7-1.3c.3-.2.6-.3.9-.5l.6 1.4c-.3.1-.5.2-.8.4zm11.9-.7l-.9-.3.5-1.4 1 .3-.6 1.4zm-10.2-.1l-.5-1.4 1-.3.4 1.4-.9.3zm8.4-.5c-.3-.1-.6-.1-.9-.2l.3-1.5c.3.1.7.1 1 .2l-.4 1.5zm-6.6 0l-.3-1.5c.3-.1.7-.1 1-.2l.2 1.5c-.3 0-.6.1-.9.2zm4.7-.3c-.3 0-.6-.1-.9-.1l.1-1.5c.4 0 .7 0 1 .1l-.2 1.5zm-2.8 0l-.1-1.5c.3 0 .7-.1 1-.1v1.5c-.3 0-.6 0-.9.1z" fill="#231F20"/><path d="M34.4 52.5h60.7v24.4H34.4z" fill="#fff"/><g fill="#231F20"><path d="M114.4 91.6V69.3H95.9v-9.1h18.5V37.9l5.1 5.1 1.1-1.1-7-7-7 7 1.1 1.1 5.1-5.1v20.8h-17v-6.2c0-.4-.3-.8-.8-.8H65.5V37.9l5.1 5.1 1.1-1.1-7-7-7 7 1.1 1.1 5.1-5.1v13.9H34.4c-.4 0-.8.3-.8.8v6.2H16.9V37.9L22 43l1.1-1.1-7-7-7 7 1.1 1.1 5.1-5.1v22.3h18.3v9.1H15.4v22.3l-5.1-5.1-1.1 1.1 7 7 7-7-1.2-1.2-5.1 5.1V70.8h16.8V77c0 .4.3.8.8.8H64v13.9l-5.1-5.1-1.1 1.1 7 7 7-7-1.1-1.1-5.1 5.1v-14h29.6c.4 0 .8-.3.8-.8v-6.2h17v20.8l-5.1-5.1-1.1 1.1 7 7 7-7-1.1-1.1-5.3 5.2zm-20-15.4H35.1V53.3h59.2v22.9z"/><use xlink:href="#E"/><use xlink:href="#E" x="17.9"/><path d="M82.7 70.3a5.6 5.6 0 1 1 5.6-5.6c-.1 3.1-2.6 5.6-5.6 5.6zm0-9.6c-2.2 0-4.1 1.8-4.1 4.1 0 2.2 1.8 4.1 4.1 4.1 2.2 0 4.1-1.8 4.1-4.1-.1-2.3-1.9-4.1-4.1-4.1zm8.8-30.3c-.2 0-.4-.1-.5-.2-.3-.3-.3-.8 0-1.1l1.3-1.3c.3-.3.8-.3 1.1 0s.3.8 0 1.1L92 30.2c-.1.1-.3.2-.5.2zm-4 4c-.2 0-.4-.1-.5-.2-.3-.3-.3-.8 0-1.1l1.3-1.3c.3-.3.8-.3 1.1 0s.3.8 0 1.1L88 34.2c-.2.2-.3.2-.5.2zm5.3 0c-.2 0-.4-.1-.5-.2L91 32.9c-.3-.3-.3-.8 0-1.1s.8-.3 1.1 0l1.3 1.3c.3.3.3.8 0 1.1-.2.2-.4.2-.6.2z"/><use xlink:href="#F"/><path d="M35.8 86.3c-.2 0-.4-.1-.5-.2-.3-.3-.3-.8 0-1.1l1.3-1.3c.3-.3.8-.3 1.1 0s.3.8 0 1.1l-1.3 1.3c-.3.2-.4.2-.6.2z"/><use xlink:href="#G"/><use xlink:href="#F" x="-51.7" y="60"/><use xlink:href="#H"/><path d="M90.1 122.6c-.2 0-.4-.1-.5-.2-.3-.3-.3-.8 0-1.1l1.3-1.3c.3-.3.8-.3 1.1 0s.3.8 0 1.1l-1.3 1.3c-.2.2-.4.2-.6.2z"/><use xlink:href="#G" x="54.4" y="36.3"/><use xlink:href="#F" x="2.7" y="96.3"/><use xlink:href="#H" x="54.4" y="36.3"/></g><defs ><path id="B" d="M15.9 123.9c-5.7 0-10.3-4.6-10.3-10.3s4.6-10.3 10.3-10.3 10.3 4.6 10.3 10.3-4.6 10.3-10.3 10.3z"/><path id="C" d="M64.7 28.9c-7.2 0-13-5.9-13-13s5.9-13.1 13-13.1c7.2 0 13 5.9 13 13.1s-5.8 13-13 13zm0-24.6c-6.4 0-11.5 5.2-11.5 11.6s5.2 11.5 11.5 11.5c6.4 0 11.5-5.2 11.5-11.5.1-6.4-5.1-11.6-11.5-11.6z"/><path id="D" d="M64.7 126.7c-7.2 0-13-5.9-13-13 0-7.2 5.9-13.1 13-13.1 7.2 0 13 5.9 13 13.1.1 7.1-5.8 13-13 13zm0-24.6c-6.4 0-11.5 5.2-11.5 11.6s5.2 11.5 11.5 11.5c6.4 0 11.5-5.2 11.5-11.5.1-6.5-5.1-11.6-11.5-11.6z"/><path id="E" d="M46.8 70.3a5.59 5.59 0 1 1 0-11.2 5.59 5.59 0 1 1 0 11.2zm0-9.6c-2.2 0-4.1 1.8-4.1 4.1 0 2.2 1.8 4.1 4.1 4.1 2.2 0 4.1-1.8 4.1-4.1s-1.8-4.1-4.1-4.1z"/><path id="F" d="M88.7 30.4c-.2 0-.4-.1-.5-.2l-1.3-1.3c-.3-.3-.3-.8 0-1.1s.8-.3 1.1 0l1.3 1.3c.3.3.3.8 0 1.1-.2.1-.4.2-.6.2z"/><path id="G" d="M31.7 90.4c-.2 0-.4-.1-.5-.2-.3-.3-.3-.8 0-1.1l1.3-1.3c.3-.3.8-.3 1.1 0s.3.8 0 1.1l-1.3 1.3c-.2.1-.4.2-.6.2z"/><path id="H" d="M33 86.3c-.2 0-.4-.1-.5-.2l-1.3-1.3c-.3-.3-.3-.8 0-1.1s.8-.3 1.1 0l1.3 1.3c.3.3.3.8 0 1.1-.2.2-.4.2-.6.2z"/></defs></svg>