<svg xmlns="http://www.w3.org/2000/svg" xmlns:xlink="http://www.w3.org/1999/xlink" viewBox="0 0 129.5 129.5"><g fill="#231f20"><path d="M64.8 35.4c-9.7 0-17.7-7.9-17.7-17.7h1.5c0 8.9 7.3 16.2 16.2 16.2S81 26.6 81 17.7 73.7 1.5 64.8 1.5V0c9.7 0 17.7 7.9 17.7 17.7-.1 9.7-8 17.7-17.7 17.7z"/><path d="M48.6 17.7h-1.5v-1l1.5.1v.9zm.2-2.9l-1.5-.3c.1-.3.1-.7.2-1l1.5.3c-.1.4-.1.7-.2 1zm.8-2.7l-1.4-.5c.1-.3.3-.7.4-1l1.4.6c-.2.3-.3.6-.4.9zm1.2-2.6l-1.3-.8.6-.9 1.2.8c-.2.3-.3.6-.5.9zm1.7-2.4l-1.1-1c.2-.3.5-.5.7-.8l1.1 1c-.3.4-.5.6-.7.8zm2-2l-1-1.2c.3-.2.5-.4.8-.6l.9 1.2c-.2.2-.4.4-.7.6zm2.4-1.6l-.7-1.3c.3-.2.6-.3.9-.5l.7 1.3c-.4.2-.6.4-.9.5zm2.6-1.1L59 1l1-.3.4 1.4-.9.3zm2.8-.7L62.1.2c.3-.1.7-.1 1-.1l.1 1.5c-.3 0-.6 0-.9.1zm2.5 127.8c-9.7 0-17.7-7.9-17.7-17.7h1.5c0 8.9 7.3 16.2 16.2 16.2S81 120.7 81 111.8s-7.3-16.2-16.2-16.2v-1.5c9.7 0 17.7 7.9 17.7 17.7s-8 17.7-17.7 17.7z"/><path d="M48.6 111.8h-1.5v-1l1.5.1v.9zm.2-2.8l-1.5-.3c.1-.3.1-.7.2-1l1.5.3c-.1.3-.1.7-.2 1zm.8-2.8l-1.4-.5c.1-.3.3-.7.4-1l1.4.6c-.2.3-.3.6-.4.9zm1.2-2.6l-1.3-.8.6-.9 1.2.8-.5.9zm1.7-2.3l-1.1-1c.2-.3.5-.5.7-.8l1.1 1c-.3.3-.5.6-.7.8zm2-2l-1-1.2c.3-.2.5-.4.8-.6l.9 1.2c-.2.2-.4.4-.7.6zm2.4-1.6l-.7-1.3c.3-.2.6-.3.9-.5l.7 1.3-.9.5zm2.6-1.2l-.5-1.4 1-.3.4 1.4-.9.3zm2.8-.7l-.2-1.5c.3-.1.7-.1 1-.1l.1 1.5c-.3 0-.6.1-.9.1zm49.5-13.4c-9.7 0-17.7-7.9-17.7-17.7h1.5c0 8.9 7.3 16.2 16.2 16.2S128 73.6 128 64.7s-7.3-16.2-16.2-16.2V47c9.7 0 17.7 7.9 17.7 17.7a17.67 17.67 0 0 1-17.7 17.7z"/><path d="M95.6 64.8h-1.5v-1l1.5.1c.1.2 0 .5 0 .9zm.3-2.9l-1.5-.3c.1-.3.1-.7.2-1l1.5.3c-.1.4-.1.7-.2 1zm.7-2.8l-1.4-.5c.1-.3.3-.7.4-1l1.4.6c-.1.3-.2.6-.4.9zm1.3-2.6l-1.3-.8.6-.9 1.2.8-.5.9zm1.6-2.3l-1.1-1c.2-.3.5-.5.7-.8l1.1 1c-.2.3-.4.6-.7.8zm2.1-2l-1-1.2c.3-.2.5-.4.8-.6l.9 1.2c-.2.2-.5.4-.7.6zm2.4-1.6l-.7-1.3c.3-.2.6-.3.9-.5l.7 1.3-.9.5zm2.6-1.2l-.5-1.4 1-.3.4 1.4-.9.3zm2.8-.6l-.2-1.5c.3-.1.7-.1 1-.1l.1 1.5c-.3 0-.6 0-.9.1z"/></g><circle fill="#ff7058" cx="111.8" cy="64.8" r="11.4"/><circle fill="#e6e9ee" cx="17.7" cy="64.8" r="11.4"/><circle fill="#ffd05b" cx="64.7" cy="111.8" r="11.4"/><circle fill="#84dbff" cx="64.7" cy="17.7" r="11.4"/><path d="M34.6 36.3l-10.4 4.5 1.3-11.3zm58.6-1.7l-4.5-10.4 11.3 1.3zM36.3 94.9l4.5 10.4-11.3-1.3zm58.6-1.7l10.4-4.5L104 100z" fill="#fff"/><g fill="#231f20"><path d="M24.2 41.6c.1 0 .2 0 .3-.1l10.4-4.6c.2-.1.4-.3.4-.6s-.1-.5-.3-.7l-3.8-2.8c2.9-3.1 6.3-5.8 9.9-8l-.8-1.3c-3.9 2.3-7.3 5.1-10.4 8.3l-4.1-3c-.2-.2-.5-.2-.7-.1s-.4.3-.4.6l-1.3 11.3c0 .3.1.5.3.7s.4.3.5.3zm1.9-10.7l7.1 5.2-8 3.5.9-8.7zm67 4.5c.3 0 .5-.1.7-.3l2.8-3.8c3.1 2.9 5.8 6.3 8 10l1.3-.8c-2.3-3.9-5.1-7.3-8.3-10.4l3-4.1c.2-.2.2-.5.1-.7s-.3-.4-.6-.4l-11.3-1.3c-.3 0-.5.1-.7.3s-.2.5-.1.7L92.5 35c.2.2.4.3.6.4zm5.5-9.3l-5.2 7.1-3.5-8 8.7.9zM36.9 94.6c-.1-.2-.3-.4-.6-.4s-.5.1-.7.3l-2.8 3.9c-3.1-2.9-5.8-6.3-7.9-10l-1.3.8c2.3 3.9 5.1 7.3 8.3 10.4l-3 4.1c-.2.2-.2.5-.1.7s.3.4.6.4l11.3 1.3h.1c.2 0 .5-.1.6-.3.2-.2.2-.5.1-.7l-4.6-10.5zm-6 8.8l5.2-7.1 3.5 8-8.7-.9zm74.8-15.3c-.2-.2-.5-.2-.7-.1l-10.4 4.6c-.2.1-.4.3-.4.6s.1.5.3.7l3.9 2.8c-2.9 3.1-6.3 5.8-10 7.9l.8 1.3c3.9-2.3 7.3-5.1 10.4-8.3l4.1 3c.1.1.3.1.4.1s.2 0 .3-.1c.2-.1.4-.3.4-.6l1.3-11.3c0-.2-.2-.4-.4-.6zm-2.3 10.5l-7.1-5.2 8-3.5-.9 8.7zM17.7 82.4C7.9 82.4 0 74.5 0 64.8h1.5C1.5 73.7 8.8 81 17.7 81s16.2-7.3 16.2-16.2-7.3-16.2-16.2-16.2v-1.5c9.7 0 17.7 7.9 17.7 17.7s-8 17.6-17.7 17.6z"/><path d="M1.5 64.8H0v-1l1.5.1v.9zm.3-2.9l-1.5-.3c.1-.3.1-.7.2-1l1.4.4c0 .3-.1.6-.1.9zm.7-2.8l-1.4-.5c.1-.3.3-.7.4-1l1.4.6c-.2.3-.3.6-.4.9zm1.2-2.6l-1.3-.8.6-.9 1.2.8c-.1.4-.3.7-.5.9zm1.7-2.3l-1.1-1c.2-.2.4-.5.7-.7l1.1 1c-.3.2-.5.5-.7.7zm2-2l-1-1.2c.3-.2.5-.4.8-.6l.9 1.2c-.2.2-.4.4-.7.6zm2.4-1.6l-.7-1.3c.3-.2.6-.3.9-.5l.7 1.3c-.3.2-.6.4-.9.5zm2.6-1.2l-.5-1.4 1-.3.4 1.4-.9.3zm2.8-.6l-.2-1.5c.3-.1.7-.1 1-.1l.1 1.5c-.3 0-.6 0-.9.1z"/></g><circle fill="#fff" cx="54.6" cy="64.8" r="3.2"/><path fill="#231f20" d="M54.6 68.7c-2.2 0-3.9-1.8-3.9-3.9 0-2.2 1.8-3.9 3.9-3.9 2.2 0 3.9 1.8 3.9 3.9s-1.7 3.9-3.9 3.9zm0-6.4c-1.3 0-2.4 1.1-2.4 2.4s1.1 2.4 2.4 2.4S57 66 57 64.7s-1.1-2.4-2.4-2.4z"/><circle fill="#fff" cx="64.7" cy="64.8" r="3.2"/><use xlink:href="#B" fill="#231f20"/><circle fill="#fff" cx="74.9" cy="64.8" r="3.2"/><g fill="#231f20"><use xlink:href="#B" x="10.1"/><path d="M61.3 23.3c-.2 0-.4-.1-.5-.2l-3.5-3.5 1.1-1.1 3 3 9.6-9.6 1.1 1.1-10.3 10.1c-.1.1-.3.2-.5.2zm55.627 35.317l1.06 1.06-11.172 11.172-1.06-1.06z"/><path d="M106.75 58.616l11.172 11.172-1.06 1.06L105.7 59.676zM64 117c0-1.8 1-3.5 2.7-4.3 1.6-.9 2.5-2.7 2.1-4.5a4.06 4.06 0 0 0-3.2-3.2c-1.2-.2-2.5.1-3.5.9s-1.5 1.9-1.5 3.2h-1.5c0-1.7.7-3.3 2-4.3 1.3-1.1 3-1.5 4.7-1.2a5.55 5.55 0 0 1 4.4 4.4c.5 2.5-.7 4.9-2.9 6.1-1.2.6-1.9 1.7-1.9 2.9H64zm0 .9h1.5v1.6H64zM16.9 57.8h1.5v9.3h-1.5zm0 11.9h1.5v2h-1.5z"/></g><circle fill="#e6e9ee" cx="94.3" cy="11.9" r="2.1"/><circle fill="#84dbff" cx="119.5" cy="89.8" r="2.1"/><circle fill="#ff7058" cx="34.2" cy="121.3" r="2.1"/><circle fill="#ffd05b" cx="11" cy="35.2" r="2.1"/><g fill="#231f20"><path d="M19 10c-.2 0-.4-.1-.5-.2-.3-.3-.3-.8 0-1.1l1.3-1.3c.3-.3.8-.3 1.1 0s.3.8 0 1.1l-1.3 1.3c-.2.2-.4.2-.6.2z"/><use xlink:href="#C"/><use xlink:href="#D"/><path d="M16.3 10c-.2 0-.4-.1-.5-.2l-1.3-1.3c-.3-.3-.3-.8 0-1.1s.8-.3 1.1 0l1.3 1.3c.3.3.3.8 0 1.1-.2.2-.4.2-.6.2z"/><use xlink:href="#C" x="98.2"/><path d="M109.2 18.1c-.2 0-.4-.1-.5-.2-.3-.3-.3-.8 0-1.1l1.3-1.3c.3-.3.8-.3 1.1 0s.3.8 0 1.1l-1.3 1.3c-.3.1-.4.2-.6.2z"/><use xlink:href="#D" x="94.2" y="4"/><path d="M110.5 14.1c-.2 0-.4-.1-.5-.2l-1.3-1.3c-.3-.3-.3-.8 0-1.1s.8-.3 1.1 0l1.3 1.3c.3.3.3.8 0 1.1-.3.1-.5.2-.6.2z"/><use xlink:href="#C" x="4" y="105.2"/><use xlink:href="#C" y="109.2"/><use xlink:href="#D" y="109.2"/><use xlink:href="#D" x="-4" y="105.2"/><path d="M82 46.2h-8.1c-.4 0-.8-.3-.8-.8 0-.4.3-.8.8-.8H82c.4 0 .8.3.8.8 0 .4-.4.8-.8.8zm3.2 2.9h-4c-.4 0-.8-.3-.8-.8 0-.4.3-.8.8-.8h4c.4 0 .8.3.8.8-.1.5-.4.8-.8.8zm4.2-2.9h-3.8c-.4 0-.8-.3-.8-.8 0-.4.3-.8.8-.8h3.8c.4 0 .8.3.8.8 0 .4-.3.8-.8.8zm-11.1 2.9h-.8c-.4 0-.8-.3-.8-.8 0-.4.3-.8.8-.8h.8c.4 0 .8.3.8.8s-.3.8-.8.8zM16 105.6H7.9c-.4 0-.7-.3-.7-.8 0-.4.3-.8.7-.8H16c.4 0 .8.3.8.8-.1.5-.4.8-.8.8zm3.2 3h-4c-.4 0-.8-.3-.8-.8 0-.4.3-.8.8-.8h4c.4 0 .8.3.8.8-.1.4-.4.8-.8.8zm4.2-3h-3.8c-.4 0-.8-.3-.8-.8 0-.4.3-.8.8-.8h3.8c.4 0 .8.3.8.8s-.4.8-.8.8zm-11.1 3h-.8c-.4 0-.8-.3-.8-.8 0-.4.3-.8.8-.8h.8c.4 0 .8.3.8.8 0 .4-.4.8-.8.8z"/></g><defs ><path id="B" d="M64.8 68.7c-2.2 0-3.9-1.8-3.9-3.9 0-2.2 1.8-3.9 3.9-3.9 2.2 0 3.9 1.8 3.9 3.9s-1.8 3.9-3.9 3.9zm0-6.4c-1.3 0-2.4 1.1-2.4 2.4s1.1 2.4 2.4 2.4 2.4-1.1 2.4-2.4-1.1-2.4-2.4-2.4z"/><path id="C" d="M15 14.1c-.2 0-.4-.1-.5-.2-.3-.3-.3-.8 0-1.1l1.3-1.3c.3-.3.8-.3 1.1 0s.3.8 0 1.1l-1.3 1.3c-.2.1-.4.2-.6.2z"/><path id="D" d="M20.3 14.1c-.2 0-.4-.1-.5-.2l-1.3-1.3c-.3-.3-.3-.8 0-1.1s.8-.3 1.1 0l1.3 1.3c.3.3.3.8 0 1.1-.2.1-.4.2-.6.2z"/></defs></svg>