<svg xmlns="http://www.w3.org/2000/svg" xmlns:xlink="http://www.w3.org/1999/xlink" viewBox="0 0 129.5 129.5"><g fill="#231F20"><use xlink:href="#B"/><path d="M6.1 9.1c-.2 0-.4-.1-.5-.2-.3-.3-.3-.8 0-1.1l1.3-1.3c.3-.3.8-.3 1.1 0s.3.8 0 1.1L6.6 8.9c-.1.2-.3.2-.5.2zm5.3 0c-.2 0-.4-.1-.5-.2L9.6 7.6c-.3-.3-.3-.8 0-1.1s.8-.3 1.1 0L12 7.8c.3.3.3.8 0 1.1-.2.2-.4.2-.6.2zm-4-4c-.2 0-.4-.1-.6-.2L5.5 3.6c-.3-.3-.3-.8 0-1.1s.8-.3 1.1 0l1.3 1.3c.3.3.3.8 0 1.1-.2.1-.3.2-.5.2zm113.4 53.7c-.2 0-.4-.1-.5-.2-.3-.3-.3-.8 0-1.1l1.3-1.3c.3-.3.8-.3 1.1 0s.3.8 0 1.1l-1.3 1.3c-.3.1-.5.2-.6.2z"/><use xlink:href="#B" x="106.6" y="57.7"/><use xlink:href="#C"/><use xlink:href="#C" x="-4" y="-4"/><path d="M79.2 82.4c-.2 0-.4-.1-.5-.2-.3-.3-.3-.8 0-1.1l1.3-1.3c.3-.3.8-.3 1.1 0s.3.8 0 1.1l-1.3 1.3c-.2.2-.4.2-.6.2z"/><use xlink:href="#B" x="65.1" y="81.4"/><path d="M80.5 86.5c-.2 0-.4-.1-.5-.2L78.7 85c-.3-.3-.3-.8 0-1.1s.8-.3 1.1 0l1.3 1.3c.3.3.3.8 0 1.1-.2.1-.4.2-.6.2zm-4-4.1c-.2 0-.4-.1-.5-.2l-1.3-1.3c-.3-.3-.3-.8 0-1.1s.8-.3 1.1 0l1.3 1.3c.3.3.3.8 0 1.1-.2.2-.4.2-.6.2zm18.9-11.1h-8.1c-.4 0-.8-.3-.8-.8 0-.4.3-.8.8-.8h8.1c.4 0 .8.3.8.8s-.4.8-.8.8zm3.2 3h-4c-.4 0-.8-.3-.8-.8 0-.4.3-.8.8-.8h4c.4 0 .8.3.8.8s-.4.8-.8.8zm4.3-3h-3.8c-.4 0-.8-.3-.8-.8 0-.4.3-.8.8-.8h3.8c.4 0 .8.3.8.8-.1.5-.4.8-.8.8zm-11.1 3H91c-.4 0-.8-.3-.8-.8 0-.4.3-.8.8-.8h.8c.4 0 .8.3.8.8-.1.5-.4.8-.8.8z"/></g><path d="M101.4 35.8v7.7H88.9z" fill="#CED5E0"/><path d="M24.4 123.7L28.1 92l3.7 31.7h6.7l2.3-47.3H15.4l2.2 47.3z" fill="#FF7058"/><g fill="#fff"><path d="M101.4 35.8l-12.5 7.7v-7.7z"/><path d="M63.8 5.7h37.5v30.1H63.8zM.7 128.8h128"/></g><path d="M105.5 108h4.6v5.3h-4.6zm-25 0h4.6v5.3h-4.6z" fill="#FF7058"/><circle cx="82.6" cy="56.8" r="3.3" fill="#84DBFF"/><g fill="#FFD05B"><circle cx="49.3" cy="13.3" r="1.9"/><circle cx="8.1" cy="85.7" r="1.9"/><circle cx="116.7" cy="85.7" r="1.9"/></g><path d="M21.4 21.2c1.4 4.2 4.1 6.9 6.7 6.9s5.3-2.7 6.7-6.9c.4-.2.9-.6 1.2-1.1.9-1.3 1-2.8.2-3.6-.2-.1-.3-.3-.5-.3v-.4c0-5-2.8-7.8-7.7-7.8s-7.7 2.8-7.7 7.8v.4c-.2.1-.4.2-.5.3-.8.8-.7 2.3.2 3.6a6.73 6.73 0 0 0 1.4 1.1zm-.4-3.6h.1c.2 0 .5 0 .7-.2s.3-.4.3-.6v-1c0-5.2 3.4-6.3 6.2-6.3s6.2 1.1 6.2 6.3v1c0 .2.1.5.3.6.2.2.5.2.7.2.1.1.1.9-.4 1.6-.2.3-.6.6-.8.7s-.4.3-.5.5c-1 3.1-3 6.2-5.4 6.2S24 23.5 23 20.4c-.1-.2-.3-.4-.5-.5-.3-.1-.6-.3-.8-.7-.9-.7-.9-1.5-.7-1.6zM120.1 128V99.5c0-.4-.3-.8-.8-.8h-15.9v-6.3c0-.4-.3-.8-.8-.8H87.9c-.4 0-.8.3-.8.8v6.3H71.2c-.4 0-.8.3-.8.8V128h-5.9V36.6H88v6.9c0 .3.1.5.4.7.1.1.2.1.4.1h32.9c.3 0 .5-.2.7-.4.1-.3.1-.6-.1-.8l-10.9-14.7 10.9-14.7c.2-.2.2-.5.1-.8s-.4-.4-.7-.4h-19.6V5.7c0-.4-.3-.8-.8-.8H64.6V.8c0-.4-.3-.8-.8-.8h-6.4c-.4 0-.8.3-.8.8V128H46.5c0-2.8-2.3-5.1-5.1-5.1h-2.1l2.1-44.6 5.1-4.3c.2-.1.3-.4.3-.6V52H48c.4 0 .8-.3.8-.8v-9.9c0-4.7-3.2-8.7-7.8-9.7l-4.1-.6-1.3-2.8-1.4.6 1.5 3.2c.1.2.3.4.6.4l4.4.7c3.9.9 6.6 4.3 6.6 8.3v5.9h-4.5v1.5h4.5v1.7h-5.7v-8.1H40v33.3H16.1v-2.9h20.2v-1.5H16.1V42.4h-1.5v8.1H8.9v-1.7h4.5v-1.5H8.9v-5.9c0-4 2.7-7.4 6.6-8.2l4.7-.7c.2 0 .5-.2.6-.4l1.5-3.2-1.4-.6-1.4 2.7-4.3.7c-4.6 1-7.8 5-7.8 9.7v9.9c0 .4.3.8.8.8h1.2v21.5c0 .2.1.4.3.6l5.1 4.3 2.1 44.6h-2.1c-2.8 0-5.1 2.3-5.1 5.1H.8v1.5h128V128h-8.7zm-18.4-91.5c.2-.1.4-.4.4-.6V14h18.1l-10.3 14c-.2.3-.2.6 0 .9l10.4 13.9H91.5l10.2-6.3zm-12.1 5.7v-5.6h9.1l-9.1 5.6zm-25-35.7h36v28.6h-36V6.5zM41.5 52h3.7v21.1l-3.7 3.2V52zM14.6 76.3l-3.7-3.2V52h3.7v24.3zm9 51.7H11.1c0-2 1.6-3.6 3.6-3.6h8.9v3.6zm7.5 0h-5.9v-4.3l2.9-25.2 3 25.4v4.1zm-2.3-36c0-.4-.4-.7-.7-.7a.68.68 0 0 0-.7.7l-3.6 31h-5.4l-2.2-45.8H40L37.8 123h-5.4l-3.6-31zm3.8 36v-3.6h8.9c2 0 3.6 1.6 3.6 3.6H32.6zm30.5 0h-4.9V1.5h4.9V128zm25.5-34.7H102v5.5H88.6v-5.5zm30 34.7H72v-19.3h46.6V128zm0-20.8H72v-7h46.6v7z" fill="#231F20"/><defs ><path id="B" d="M10.1 5.1c-.2 0-.4-.1-.5-.2-.3-.3-.3-.8 0-1.1l1.3-1.3c.3-.3.8-.3 1.1 0s.3.8 0 1.1l-1.3 1.3c-.2.1-.4.2-.6.2z"/><path id="C" d="M122 62.8c-.2 0-.4-.1-.5-.2l-1.3-1.3c-.3-.3-.3-.8 0-1.1s.8-.3 1.1 0l1.3 1.3c.3.3.3.8 0 1.1-.2.1-.4.2-.6.2z"/></defs></svg>