<svg xmlns="http://www.w3.org/2000/svg" class="drawsvg-initialized" id="svg12" viewBox="0 0 64 64" xml:space="preserve" version="1.1">
    <path class="zGFeOxeo_0" id="path2" fill="none" stroke="#fcb03b" stroke-linecap="round" stroke-linejoin="round" stroke-miterlimit="10" stroke-width="2" d="M45.1 44.2C42.9 42 39.6 40 37 42.6c-1.8 1.8-2.6 3.9-2.6 3.9s-4.3 2.3-11.7-5.2-5.2-11.7-5.2-11.7 2.1-.8 3.9-2.6c2.6-2.6.6-5.9-1.7-8.1-2.7-2.7-6.2-4.9-8.2-2.9-3.7 3.7-4.4 8.4-4.4 8.4S9 35.5 18.7 45.3s20.9 11.6 20.9 11.6 4.7-.7 8.4-4.4c2-2.1-.2-5.6-2.9-8.3z"/>
    <path class="zGFeOxeo_1" id="path4" fill="none" stroke="#fcb03b" stroke-linecap="round" stroke-linejoin="round" stroke-miterlimit="10" stroke-width="2" d="M18.4 12.2C22.2 9.5 26.9 8 32 8c13.3 0 24 10.8 24 24 0 4-1.3 9-4.4 12.2"/>
    <path class="zGFeOxeo_2" id="path6" fill="none" stroke="#fcb03b" stroke-linecap="round" stroke-linejoin="round" stroke-miterlimit="10" stroke-width="2" d="M27.3 55.6c-9.8-1.9-17.5-9.8-19.1-19.7"/>
    <path class="zGFeOxeo_3" id="path832" d="M31.987 20.53v13.73" fill="none" stroke="#fcb03b" stroke-linecap="butt" stroke-linejoin="miter" stroke-miterlimit="4" stroke-opacity="1" stroke-width="1.566"/>
    <path class="zGFeOxeo_4" id="path832-6" d="M40.672 20.53v13.73" fill="#fcb03b" fill-opacity="1" stroke="#fcb03b" stroke-linecap="butt" stroke-linejoin="miter" stroke-miterlimit="4" stroke-opacity="1" stroke-width="1.566"/>
    <path class="zGFeOxeo_5" id="path851" d="M32.43 26.983h7.644" fill="none" stroke="#fcb03b" stroke-linecap="butt" stroke-linejoin="miter" stroke-miterlimit="4" stroke-opacity="1" stroke-width="1.566"/>
    <path class="zGFeOxeo_6" id="path832-6-5" d="M45.93 23.535V34.26" fill="none" stroke="#fcb03b" stroke-linecap="butt" stroke-linejoin="miter" stroke-miterlimit="4" stroke-opacity="1" stroke-width="1.566"/>
    <path class="zGFeOxeo_7" id="path832-6-5-1" d="M45.907 20.53v1.654" fill="none" stroke="#fcb03b" stroke-linecap="butt" stroke-linejoin="miter" stroke-miterlimit="4" stroke-opacity="1" stroke-width="1.566"/>
    <style data-made-with="vivus-instant">
        .zGFeOxeo_0{stroke-dasharray:142 144;stroke-dashoffset:143;animation:zGFeOxeo_draw 1454ms ease-in-out 0ms forwards}.zGFeOxeo_1{stroke-dasharray:66 68;stroke-dashoffset:67;animation:zGFeOxeo_draw 681ms ease-in-out 1454ms forwards}.zGFeOxeo_2{stroke-dasharray:30 32;stroke-dashoffset:31;animation:zGFeOxeo_draw 315ms ease-in-out 2135ms forwards}.zGFeOxeo_3,.zGFeOxeo_4{stroke-dasharray:14 16;stroke-dashoffset:15;animation:zGFeOxeo_draw 152ms ease-in-out 2450ms forwards}.zGFeOxeo_4{animation:zGFeOxeo_draw 152ms ease-in-out 2603ms forwards}.zGFeOxeo_5{stroke-dasharray:8 10;stroke-dashoffset:9;animation:zGFeOxeo_draw 91ms ease-in-out 2755ms forwards}.zGFeOxeo_6{stroke-dasharray:11 13;stroke-dashoffset:12;animation:zGFeOxeo_draw 122ms ease-in-out 2847ms forwards}.zGFeOxeo_7{stroke-dasharray:2 4;stroke-dashoffset:3;animation:zGFeOxeo_draw 30ms ease-in-out 2969ms forwards}@keyframes zGFeOxeo_draw{to{stroke-dashoffset:0}}@keyframes zGFeOxeo_fade{0%,94.44444444444444%{stroke-opacity:1}to{stroke-opacity:0}}
    </style>
</svg>
