<svg xmlns="http://www.w3.org/2000/svg" xmlns:xlink="http://www.w3.org/1999/xlink" viewBox="0 0 129.5 129.5"><style><![CDATA[.B{fill:#fff}.C{fill:#231f20}.D{fill:#e6e9ee}.E{fill:#ffd05b}]]></style><g class="C"><use xlink:href="#B"/><use xlink:href="#B" x="-4" y="4"/><use xlink:href="#C"/><path d="M85.4 9.4c-.2 0-.4-.1-.5-.2l-1.3-1.3c-.3-.3-.3-.8 0-1.1s.8-.3 1.1 0L86 8.1c.3.3.3.8 0 1.1-.3.1-.5.2-.6.2z"/><use xlink:href="#B" x="32.3" y="57.3"/><use xlink:href="#B" x="28.3" y="61.3"/><use xlink:href="#C" x="32.3" y="57.3"/><path d="M117.7 66.7c-.2 0-.4-.1-.5-.2l-1.3-1.3c-.3-.3-.3-.8 0-1.1s.8-.3 1.1 0l1.3 1.3c.3.3.3.8 0 1.1-.3.1-.4.2-.6.2zM4.8 57.2c-.2 0-.4-.1-.5-.2-.3-.3-.3-.8 0-1.1l1.3-1.3c.3-.3.8-.3 1.1 0s.3.8 0 1.1L5.3 57c-.1.2-.3.2-.5.2zm-4 4.1c-.2 0-.4-.1-.5-.2-.3-.3-.3-.8 0-1.1l1.3-1.3c.3-.3.8-.3 1.1 0s.3.8 0 1.1L1.3 61c-.2.2-.4.3-.5.3zm5.3 0c-.2 0-.4-.1-.5-.2l-1.3-1.3c-.3-.3-.3-.8 0-1.1s.8-.3 1.1 0L6.6 60c.3.3.3.8 0 1.1-.2.1-.4.2-.5.2zM2 57.2c-.2 0-.4-.1-.5-.2L.2 55.7c-.3-.3-.3-.8 0-1.1s.8-.3 1.1 0L2.6 56c.3.3.3.8 0 1.1-.2.1-.4.1-.6.1zm43.9-49c0-.4-.3-.8-.8-.8H37c-.4 0-.8.3-.8.8 0 .4.3.8.8.8h8.1c.5 0 .8-.3.8-.8zm2.5 2.2h-4c-.4 0-.8.3-.8.8 0 .4.3.8.8.8h4c.4 0 .8-.3.8-.8-.1-.4-.4-.8-.8-.8zm4.2-2.9h-3.8c-.4 0-.8.3-.8.8 0 .4.3.8.8.8h3.8c.4 0 .8-.3.8-.8s-.4-.8-.8-.8zm-11.1 2.9h-.8c-.4 0-.8.3-.8.8 0 .4.3.8.8.8h.8c.4 0 .8-.3.8-.8 0-.4-.3-.8-.8-.8z"/></g><circle cx="114.3" cy="15.3" r="14.4" class="E"/><g class="C"><path d="M103.3 15.3h-1.5v-1.1l1.5.1v1zm.3-2.8l-1.5-.4.3-1 1.4.5c0 .3-.1.6-.2.9zm1.1-2.6l-1.3-.7.6-.9 1.2.8c-.2.3-.4.5-.5.8zm1.6-2.2l-1.1-1c.2-.3.5-.5.8-.7l1 1.1c-.2.1-.4.3-.7.6zm2.2-1.8l-.8-1.3c.3-.2.6-.4.9-.5l.7 1.3-.8.5zm2.6-1.2l-.4-1.4 1-.3.3 1.5c-.3.1-.6.1-.9.2zm2.7-.4l-.1-1.5h.6v1.5c-.1-.1-.3-.1-.5 0zm.5 23.5c-6.6 0-12.1-5.1-12.5-11.7l1.5-.1c.4 5.8 5.2 10.3 11 10.3 6.1 0 11.1-5 11.1-11.1 0-5.8-4.5-10.6-10.3-11l.1-1.5c6.6.4 11.7 5.9 11.7 12.5 0 7-5.6 12.6-12.6 12.6zm2.9-6.2h-5.8a2.65 2.65 0 0 1-2.6-2.6c0-.4.3-.8.8-.8s.8.3.8.8a1.11 1.11 0 0 0 1.1 1.1h5.8a1.11 1.11 0 0 0 1.1-1.1v-1.9a1.11 1.11 0 0 0-1.1-1.1h-5.8a2.65 2.65 0 0 1-2.6-2.6v-1.9a2.65 2.65 0 0 1 2.6-2.6h5.8a2.65 2.65 0 0 1 2.6 2.6c0 .4-.3.8-.8.8-.4 0-.8-.3-.8-.8a1.11 1.11 0 0 0-1.1-1.1h-5.8a1.11 1.11 0 0 0-1.1 1.1v1.9a1.11 1.11 0 0 0 1.1 1.1h5.8a2.65 2.65 0 0 1 2.6 2.6V19c0 1.5-1.2 2.6-2.6 2.6z"/><path d="M114.3 23.7c-.4 0-.8-.3-.8-.8V7.6c0-.4.3-.8.8-.8.4 0 .8.3.8.8V23c0 .4-.4.7-.8.7z"/></g><path d="M40.5 25a5.52 5.52 0 0 0-3.9-1.6H90c3 0 5.5 2.4 5.5 5.5v65.4H47.7a5.59 5.59 0 0 1-5.6-5.6V29c0-1.6-.6-2.9-1.6-4z" class="B"/><path d="M31 35.1V29a5.52 5.52 0 0 1 1.6-3.9 5.52 5.52 0 0 1 7.8 0A5.52 5.52 0 0 1 42 29v6.1H31z" class="D"/><path d="M112.2 76.3c3 0 5.5 2.4 5.5 5.5v41.3a5.52 5.52 0 0 0 5.5 5.5H69.8c-3 0-5.5-2.4-5.5-5.5V81.8a5.52 5.52 0 0 0-5.5-5.5h53.4z" class="B"/><path d="M53.6 92.7c.8-1.2 1.2-2.5 1.2-3.9v-6.9c0-1.1.4-2 1.2-2.8.7-.7 1.7-1.2 2.8-1.2s2 .4 2.8 1.2c.7.7 1.2 1.7 1.2 2.8v10.8h-9.2z" class="E"/><path d="M75.4 123.1v-1.5h53.3v1.5a5.52 5.52 0 0 1-5.5 5.5H69.9a5.52 5.52 0 0 0 5.5-5.5z" class="D"/><path d="M70.9 89.9h40.2v1.5H70.9zm0 4.9h40.2v1.5H70.9zm0 4.9h40.2v1.5H70.9zm0 4.9h40.2v1.5H70.9zm0 5h20.3v1.5H70.9z" class="C"/><path d="M21.5 90.6h26.7v38H21.5z" class="B"/><path fill="#ff7058" d="M24.5 93.4h20.3v9.1H24.5z"/><path d="M25.3 105.5h4v3.8h-4z" class="B"/><path d="M28.6 106.3v2.3H26v-2.3h2.6m1.5-1.5h-5.5v5.3h5.5v-5.3z" class="C"/><path d="M32.7 105.5h4v3.8h-4z" class="B"/><path d="M36 106.3v2.3h-2.5v-2.3H36m1.5-1.5H32v5.3h5.5v-5.3z" class="C"/><path d="M40.1 105.5h4v3.8h-4z" class="B"/><path d="M43.4 106.3v2.3h-2.5v-2.3h2.5m1.5-1.5h-5.5v5.3h5.5v-5.3z" class="C"/><path d="M25.3 113.1h4v3.8h-4z" class="B"/><path d="M28.6 113.9v2.3H26v-2.3h2.6m1.5-1.5h-5.5v5.3h5.5v-5.3z" class="C"/><path d="M32.7 113.1h4v3.8h-4z" class="B"/><path d="M36 113.9v2.3h-2.5v-2.3H36m1.5-1.5H32v5.3h5.5v-5.3z" class="C"/><path d="M40.1 113.1h4v3.8h-4z" class="B"/><path d="M43.4 113.9v2.3h-2.5v-2.3h2.5m1.5-1.5h-5.5v5.3h5.5v-5.3z" class="C"/><path d="M25.3 120.8h4v3.8h-4z" class="B"/><path d="M28.6 121.5v2.3H26v-2.3h2.6m1.5-1.5h-5.5v5.3h5.5V120z" class="C"/><path d="M32.7 120.8h4v3.8h-4z" class="B"/><path d="M36 121.5v2.3h-2.5v-2.3H36m1.5-1.5H32v5.3h5.5V120z" class="C"/><path d="M40.1 120.8h4v3.8h-4z" class="B"/><path d="M43.4 121.5v2.3h-2.5v-2.3h2.5m1.5-1.5h-5.5v5.3h5.5V120z" class="C"/><g class="B"><path d="M117.3 38.3L90.5 65.1l4.5 4.5 26.8-26.8c1.2-1.2 1.2-3.3 0-4.5-1.3-1.2-3.3-1.2-4.5 0z"/><path d="M95 69.6l-7.8 3.2 3.3-7.7z"/></g><path d="M16.6 29.4h-3.3c-.4 0-.8-.3-.8-.8V27c-1.6-.3-3.2-1-4.6-1.9l-1.2 1.2c-.3.3-.8.3-1.1 0L3.4 24c-.3-.3-.3-.8 0-1.1l1.2-1.2c-.9-1.4-1.6-2.9-1.9-4.6H1c-.4 0-.8-.3-.8-.8V13c0-.4.3-.8.8-.8h1.7c.3-1.6 1-3.2 1.9-4.6l-1.2-1c-.2-.1-.2-.3-.2-.5s.1-.4.2-.5l2.3-2.3c.3-.3.8-.3 1.1 0L8 4.5c1.4-.9 2.9-1.6 4.6-1.9V.9c0-.4.3-.8.8-.8h3.3c.4 0 .8.3.8.8v1.7c1.6.3 3.2 1 4.6 1.9l.9-1.2c.2-.2.4-.3.6-.3s.4.1.5.2l2.3 2.3c.3.3.3.8 0 1.1l-1.2 1.2c.9 1.4 1.6 2.9 1.9 4.6h1.7c.4 0 .8.3.8.8v3.3c0 .4-.3.8-.8.8h-1.7c-.3 1.6-1 3.2-1.9 4.6l1.2 1.2c.3.3.3.8 0 1.1l-2.3 2.3c-.3.3-.8.3-1.1 0l-1.2-1.2c-1.4.9-2.9 1.6-4.6 1.9v1.7c.1.2-.2.5-.6.5zM14 27.9h1.8v-1.5c0-.4.3-.7.6-.7 1.8-.3 3.6-1 5-2.1.3-.2.7-.2 1 .1l1.1 1.1 1.3-1.3-1.1-1.1c-.3-.3-.3-.7-.1-1 1.1-1.5 1.8-3.2 2.1-5 .1-.4.4-.6.7-.6h1.5V14h-1.5c-.4 0-.7-.3-.7-.6-.3-1.8-1-3.6-2.1-5-.2-.3-.2-.7.1-1l1.1-1.1L23.5 5l-1.1 1.1c-.3.3-.7.3-1 .1-1.5-1.1-3.2-1.8-5-2.1-.4-.1-.6-.4-.6-.7V1.6H14v1.5c0 .4-.3.7-.6.7-1.8.3-3.6 1-5 2.1-.4.3-.8.3-1.1 0L6.2 4.8 5 6.1l1.1 1.1c.3.3.3.7.1 1-1.2 1.5-1.9 3.2-2.2 5-.1.4-.4.6-.7.6H1.8v1.8h1.5c.4.1.7.4.7.7.3 1.8 1 3.6 2.1 5 .2.3.2.7-.1 1l-1 1.1 1.3 1.3 1.1-1.1c.3-.3.7-.3 1-.1 1.5 1.1 3.2 1.8 5 2.1.4.1.6.4.6.7v1.6z" class="C"/><circle cx="14.9" cy="14.8" r="7" class="D"/><circle cx="14.9" cy="14.8" r="3.8" class="B"/><path d="M14.9 19.3a4.48 4.48 0 0 1-4.5-4.5 4.48 4.48 0 0 1 4.5-4.5 4.48 4.48 0 0 1 4.5 4.5 4.48 4.48 0 0 1-4.5 4.5zm0-7.5a3.01 3.01 0 0 0-3 3 3.01 3.01 0 0 0 3 3 3.01 3.01 0 0 0 3-3c0-1.7-1.3-3-3-3z" class="C"/><circle fill="#ff7058" cx="66" cy="7.6" r="2.5"/><circle cx="102.6" cy="37.4" r="2.5" class="D"/><circle fill="#84dbff" cx="126.1" cy="85.3" r="2.5"/><g class="E"><circle cx="11.2" cy="115" r="2.5"/><circle cx="11.1" cy="40.1" r="2.5"/></g><circle cx="38" cy="60.9" r="19.6" class="B"/><circle fill="#84dbff" cx="38" cy="60.9" r="15.5"/><path d="M19.8 78.5l.6.6c1.4 1.4 1.4 3.7 0 5.2L7.7 97c-1.4 1.4-3.7 1.4-5.2 0l-.6-.6c-1.4-1.4-1.4-3.7 0-5.2l12.7-12.7c1.5-1.5 3.8-1.5 5.2 0z" class="B"/><path d="M18.946 85.818L9.26 95.506 3.46 89.707l9.687-9.687z" class="D"/><path d="M48.7 39.6h40.2v1.5H48.7zm80.1 81.2h-10.4V81.7c0-3.4-2.8-6.2-6.2-6.2h-16v-6.1l26.1-26.1c.7-.7 1.2-1.7 1.2-2.8s-.4-2-1.2-2.8c-1.5-1.5-4.1-1.5-5.6 0L96.2 58.3V28.9c0-3.4-2.8-6.2-6.2-6.2H36.6c-1.7 0-3.3.7-4.5 1.8-1.2 1.2-1.8 2.8-1.8 4.5v6.1c0 .4.3.8.8.8h10.4v5c-6.3-1.1-13 .8-17.8 5.7-7.8 7.8-7.9 20.3-.5 28.3l-3 3c-1.7-1.5-4.4-1.5-6 .2L1.4 90.7a4.41 4.41 0 0 0 0 6.2l.6.6a4.41 4.41 0 0 0 6.2 0L21 84.8c1.6-1.6 1.7-4.3.2-6l3-3C29 80.2 35.4 82 41.4 81v7.7c0 .4 0 .8.1 1.1h-20c-.4 0-.8.3-.8.8v38c0 .4.3.8.8.8h26.7c.4 0 .8-.3.8-.8V95h14.6v28.1c0 3.4 2.8 6.2 6.2 6.2h53.4c1.7 0 3.3-.7 4.5-1.8 1.2-1.2 1.8-2.8 1.8-4.5v-1.5c0-.3-.3-.7-.7-.7zM7.2 96.5c-1.1 1.1-3 1.1-4.1 0l-.6-.6c-1.1-1.1-1.1-3 0-4.1l1-1 4.8 4.8-1.1.9zm2-2.1l-4.8-4.8L13 81l4.8 4.8-8.6 8.6zm10.7-10.6l-1 1-4.7-4.8 1-1c1.1-1.1 3-1.1 4.1 0l.6.6c1.1 1.2 1.1 3 0 4.2zm97.9-45c.9-.9 2.5-.9 3.5 0a2.34 2.34 0 0 1 .7 1.7c0 .7-.3 1.3-.7 1.7l-3.6 3.6-3.5-3.5 3.6-3.5zm-1.2 8.1L95 68.5 91.5 65l21.6-21.6 3.5 3.5zM93.7 69.3l-5 2.1 2.1-5 2.9 2.9zm-62-34.9V29a4.76 4.76 0 0 1 4.8-4.8 4.76 4.76 0 0 1 4.8 4.8v5.4h-9.6zm-7.1 39.9a18.83 18.83 0 0 1 0-26.7 18.83 18.83 0 0 1 26.7 0 18.83 18.83 0 0 1 0 26.7c-7.3 7.4-19.3 7.4-26.7 0zm22.8 53.6H22.3V91.4h25.2v36.5zm1.5-34.6v-2.7c0-.4-.3-.8-.8-.8H43c-.1-.4-.2-.7-.2-1.1v-8c3.5-.9 6.8-2.6 9.5-5.3 4-4 6-9.3 6-14.6h10.6v-1.5H58.3c-.1-1.2-.3-2.3-.6-3.4h31.2v-1.5H57.2c-.4-1.2-.9-2.3-1.5-3.4h33.2v-1.5H54.8c-.7-1-1.5-2-2.4-2.9-.2-.2-.4-.4-.6-.5h37.1v-1.5H50c-2.2-1.6-4.6-2.7-7.1-3.3V29c0-1.7-.7-3.3-1.8-4.5-.1-.1-.2-.2-.4-.3H90c2.6 0 4.7 2.1 4.7 4.7v30.9L90 64.6c-.1.1-.1.2-.2.2l-3.2 7.7c-.1.3-.1.6.2.8.1.1.3.2.5.2.1 0 .2 0 .3-.1l7.1-3v5H58.8c-1.7 0-3.3.7-4.5 1.8-1.2 1.2-1.8 2.8-1.8 4.5v6.9a4.76 4.76 0 0 1-1.4 3.4c-.6.7-1.4 1.1-2.2 1.3zm14.7.2H51.7c.1-.1.3-.2.4-.3 1.2-1.2 1.8-2.8 1.8-4.5v-6.9a4.76 4.76 0 0 1 4.8-4.8 4.76 4.76 0 0 1 4.8 4.8v11.7zm6.3 34.4c-2.7 0-4.8-2.1-4.8-4.7V81.8c0-1.7-.7-3.3-1.8-4.5-.1-.1-.2-.2-.4-.3h49.3c2.6 0 4.7 2.1 4.7 4.7v39.1H75.4c-.4 0-.8.3-.8.8v1.5a4.76 4.76 0 0 1-1.4 3.4c-.8.9-2 1.4-3.3 1.4zm58.1-4.8a4.76 4.76 0 0 1-4.8 4.8H74c.1-.1.3-.2.4-.3 1.2-1.2 1.8-2.8 1.8-4.5v-.8H128v.8z" class="C"/><defs ><path id="B" d="M88.1 9.4c-.2 0-.4-.1-.5-.2-.3-.3-.3-.8 0-1.1l1.3-1.3c.3-.3.8-.3 1.1 0s.3.8 0 1.1l-1.3 1.3c-.2.1-.4.2-.6.2z"/><path id="C" d="M89.4 13.4c-.2 0-.4-.1-.5-.2l-1.3-1.3c-.3-.3-.3-.8 0-1.1s.8-.3 1.1 0l1.3 1.3c.3.3.3.8 0 1.1-.2.1-.4.2-.6.2z"/></defs></svg>