<?xml version="1.0" encoding="utf-8"?>
<!-- Generator: Adobe Illustrator 18.0.0, SVG Export Plug-In . SVG Version: 6.00 Build 0)  -->
<!DOCTYPE svg PUBLIC "-//W3C//DTD SVG 1.1//EN" "http://www.w3.org/Graphics/SVG/1.1/DTD/svg11.dtd">
<svg  width="100px" height="100px" version="1.1" id="Layer_1" xmlns="http://www.w3.org/2000/svg" xmlns:xlink="http://www.w3.org/1999/xlink" x="0px" y="0px"
	 viewBox="0 0 129.5 129.5" enable-background="new 0 0 129.5 129.5" xml:space="preserve">
<g>
	<g>
		<circle fill="#84DBFF" cx="17.3" cy="91.2" r="15"/>
		<g>
			<path fill="#FFFFFF" d="M6.7,91.2H5.2c0-0.4,0-0.7,0-1.1l1.5,0.1C6.7,90.6,6.7,90.9,6.7,91.2z M7,88.5l-1.4-0.4
				c0.1-0.3,0.2-0.7,0.3-1l1.4,0.5C7.2,87.9,7.1,88.2,7,88.5z M8.1,85.9l-1.3-0.8c0.2-0.3,0.4-0.6,0.6-0.9l1.2,0.9
				C8.4,85.3,8.2,85.6,8.1,85.9z M9.8,83.7l-1.1-1.1c0.3-0.3,0.5-0.5,0.8-0.7l1,1.2C10.2,83.2,10,83.4,9.8,83.7z M12,82l-0.7-1.3
				c0.3-0.2,0.6-0.3,0.9-0.5l0.6,1.4C12.6,81.7,12.3,81.8,12,82z M14.6,80.9l-0.4-1.4c0.3-0.1,0.7-0.2,1-0.2l0.3,1.5
				C15.2,80.8,14.9,80.8,14.6,80.9z"/>
		</g>
		<g>
			<path fill="#FFFFFF" d="M17.3,103.4c-6.4,0-11.7-5-12.2-11.3L6.7,92c0.4,5.6,5.1,10,10.7,10c5.9,0,10.7-4.8,10.7-10.7
				c0-5.6-4.4-10.3-10-10.7l0.1-1.5c6.4,0.4,11.4,5.8,11.4,12.2C29.5,98,24.1,103.4,17.3,103.4z"/>
		</g>
		<g>
			<path fill="#FFFFFF" d="M20.1,97.4h-5.6c-1.4,0-2.5-1.1-2.5-2.5c0-0.4,0.3-0.8,0.8-0.8c0.4,0,0.8,0.3,0.8,0.8c0,0.6,0.5,1,1,1
				h5.6c0.6,0,1-0.5,1-1V93c0-0.6-0.5-1-1-1h-5.6c-1.4,0-2.5-1.1-2.5-2.5v-1.9c0-1.4,1.1-2.5,2.5-2.5h5.6c1.4,0,2.5,1.1,2.5,2.5
				c0,0.4-0.3,0.8-0.8,0.8c-0.4,0-0.8-0.3-0.8-0.8c0-0.6-0.5-1-1-1h-5.6c-0.6,0-1,0.5-1,1v1.9c0,0.6,0.5,1,1,1h5.6
				c1.4,0,2.5,1.1,2.5,2.5v1.9C22.6,96.3,21.5,97.4,20.1,97.4z"/>
		</g>
		<g>
			<path fill="#FFFFFF" d="M17.3,99.4c-0.4,0-0.8-0.3-0.8-0.8V83.8c0-0.4,0.3-0.8,0.8-0.8c0.4,0,0.8,0.3,0.8,0.8v14.9
				C18.1,99.1,17.8,99.4,17.3,99.4z"/>
		</g>
		<circle fill="#FF7058" cx="44.3" cy="107.8" r="10.8"/>
		<path fill="#FFFFFF" d="M36.8,107.8h-1.5c0-0.4,0-0.7,0.1-1.1l1.5,0.2C36.8,107.2,36.8,107.5,36.8,107.8z M37.3,105.2l-1.4-0.5
			c0.1-0.3,0.3-0.7,0.5-1l1.3,0.7C37.6,104.6,37.4,104.9,37.3,105.2z M38.7,102.9l-1.1-1c0.2-0.3,0.5-0.5,0.8-0.8l1,1.1
			C39.2,102.4,38.9,102.6,38.7,102.9z M40.9,101.2l-0.7-1.3c0.3-0.2,0.7-0.3,1-0.4l0.5,1.4C41.4,100.9,41.1,101.1,40.9,101.2z
			 M43.5,100.4l-0.2-1.5c0.3,0,0.6-0.1,1-0.1v1.5C44,100.4,43.7,100.4,43.5,100.4z"/>
		<path fill="#FFFFFF" d="M44.3,116.8c-4.7,0-8.6-3.7-8.9-8.3l1.5-0.1c0.3,3.9,3.5,6.9,7.4,6.9c4.1,0,7.5-3.3,7.5-7.5
			c0-3.9-3.1-7.2-7-7.4l0.1-1.5c4.7,0.3,8.4,4.2,8.4,8.9C53.2,112.8,49.2,116.8,44.3,116.8z"/>
		<path fill="#FFFFFF" d="M46.3,112.5h-4c-1.1,0-2-0.9-2-2c0-0.4,0.3-0.8,0.8-0.8s0.8,0.3,0.8,0.8c0,0.3,0.2,0.5,0.5,0.5h4
			c0.3,0,0.5-0.2,0.5-0.5v-1.3c0-0.3-0.2-0.5-0.5-0.5h-4c-1.1,0-2-0.9-2-2v-1.3c0-1.1,0.9-2,2-2h4c1.1,0,2,0.9,2,2
			c0,0.4-0.3,0.8-0.8,0.8c-0.4,0-0.8-0.3-0.8-0.8c0-0.3-0.2-0.5-0.5-0.5h-4c-0.3,0-0.5,0.2-0.5,0.5v1.3c0,0.3,0.2,0.5,0.5,0.5h4
			c1.1,0,2,0.9,2,2v1.3C48.3,111.6,47.4,112.5,46.3,112.5z"/>
		<path fill="#FFFFFF" d="M44.3,113.9c-0.4,0-0.8-0.3-0.8-0.8v-10.7c0-0.4,0.3-0.8,0.8-0.8s0.8,0.3,0.8,0.8v10.7
			C45,113.6,44.7,113.9,44.3,113.9z"/>
		<g>
			<path fill="#231F20" d="M126,2.8c-0.2,0-0.4-0.1-0.5-0.2c-0.3-0.3-0.3-0.8,0-1.1l1.3-1.3c0.3-0.3,0.8-0.3,1.1,0
				c0.3,0.3,0.3,0.8,0,1.1l-1.3,1.3C126.3,2.7,126.2,2.8,126,2.8z"/>
		</g>
		<g>
			<path fill="#231F20" d="M121.9,6.8c-0.2,0-0.4-0.1-0.5-0.2c-0.3-0.3-0.3-0.8,0-1.1l1.3-1.3c0.3-0.3,0.8-0.3,1.1,0
				c0.3,0.3,0.3,0.8,0,1.1l-1.3,1.3C122.3,6.7,122.1,6.8,121.9,6.8z"/>
		</g>
		<g>
			<path fill="#231F20" d="M127.2,6.8c-0.2,0-0.4-0.1-0.5-0.2l-1.3-1.3c-0.3-0.3-0.3-0.8,0-1.1c0.3-0.3,0.8-0.3,1.1,0l1.3,1.3
				c0.3,0.3,0.3,0.8,0,1.1C127.6,6.7,127.4,6.8,127.2,6.8z"/>
		</g>
		<g>
			<path fill="#231F20" d="M123.2,2.8c-0.2,0-0.4-0.1-0.5-0.2l-1.3-1.3c-0.3-0.3-0.3-0.8,0-1.1c0.3-0.3,0.8-0.3,1.1,0l1.3,1.3
				c0.3,0.3,0.3,0.8,0,1.1C123.6,2.7,123.4,2.8,123.2,2.8z"/>
		</g>
		<g>
			<path fill="#231F20" d="M6.3,20.7c-0.2,0-0.4-0.1-0.5-0.2c-0.3-0.3-0.3-0.8,0-1.1L7,18.1c0.3-0.3,0.8-0.3,1.1,0
				c0.3,0.3,0.3,0.8,0,1.1l-1.3,1.3C6.7,20.6,6.5,20.7,6.3,20.7z"/>
		</g>
		<g>
			<path fill="#231F20" d="M2.3,24.7c-0.2,0-0.4-0.1-0.5-0.2c-0.3-0.3-0.3-0.8,0-1.1L3,22.1c0.3-0.3,0.8-0.3,1.1,0
				c0.3,0.3,0.3,0.8,0,1.1l-1.3,1.3C2.6,24.6,2.4,24.7,2.3,24.7z"/>
		</g>
		<g>
			<path fill="#231F20" d="M7.6,24.7c-0.2,0-0.4-0.1-0.5-0.2l-1.3-1.3c-0.3-0.3-0.3-0.8,0-1.1c0.3-0.3,0.8-0.3,1.1,0l1.3,1.3
				c0.3,0.3,0.3,0.8,0,1.1C8,24.6,7.8,24.7,7.6,24.7z"/>
		</g>
		<g>
			<path fill="#231F20" d="M3.5,20.7c-0.2,0-0.4-0.1-0.5-0.2l-1.3-1.3c-0.3-0.3-0.3-0.8,0-1.1c0.3-0.3,0.8-0.3,1.1,0l1.3,1.3
				c0.3,0.3,0.3,0.8,0,1.1C3.9,20.6,3.7,20.7,3.5,20.7z"/>
		</g>
		<g>
			<path fill="#231F20" d="M115.5,107.5c-0.2,0-0.4-0.1-0.5-0.2c-0.3-0.3-0.3-0.8,0-1.1l1.3-1.3c0.3-0.3,0.8-0.3,1.1,0
				s0.3,0.8,0,1.1l-1.3,1.3C115.8,107.4,115.6,107.5,115.5,107.5z"/>
		</g>
		<g>
			<path fill="#231F20" d="M111.4,111.5c-0.2,0-0.4-0.1-0.5-0.2c-0.3-0.3-0.3-0.8,0-1.1l1.3-1.3c0.3-0.3,0.8-0.3,1.1,0
				s0.3,0.8,0,1.1l-1.3,1.3C111.8,111.4,111.6,111.5,111.4,111.5z"/>
		</g>
		<g>
			<path fill="#231F20" d="M116.7,111.5c-0.2,0-0.4-0.1-0.5-0.2l-1.3-1.3c-0.3-0.3-0.3-0.8,0-1.1c0.3-0.3,0.8-0.3,1.1,0l1.3,1.3
				c0.3,0.3,0.3,0.8,0,1.1C117.1,111.4,116.9,111.5,116.7,111.5z"/>
		</g>
		<g>
			<path fill="#231F20" d="M112.7,107.5c-0.2,0-0.4-0.1-0.5-0.2l-1.3-1.3c-0.3-0.3-0.3-0.8,0-1.1c0.3-0.3,0.8-0.3,1.1,0l1.3,1.3
				c0.3,0.3,0.3,0.8,0,1.1C113.1,107.4,112.9,107.5,112.7,107.5z"/>
		</g>
		<path fill="#231F20" d="M62,92c-0.3,0-0.7,0-1,0l0.1-1.5c0.3,0,0.7,0,1,0L62,92z M59,91.8c-0.3,0-0.7-0.1-1-0.1l0.2-1.5
			c0.3,0,0.6,0.1,1,0.1L59,91.8z M56,91.4c-0.3-0.1-0.7-0.1-1-0.2l0.3-1.5c0.3,0.1,0.6,0.1,1,0.2L56,91.4z M53,90.7
			c-0.3-0.1-0.7-0.2-1-0.3l0.4-1.4c0.3,0.1,0.6,0.2,0.9,0.3L53,90.7z M50.1,89.9c-0.3-0.1-0.6-0.2-1-0.3l0.5-1.4
			c0.3,0.1,0.6,0.2,0.9,0.3L50.1,89.9z M47.2,88.8c-0.3-0.1-0.6-0.3-0.9-0.4l0.6-1.4c0.3,0.1,0.6,0.3,0.9,0.4L47.2,88.8z M44.4,87.5
			c-0.3-0.2-0.6-0.3-0.9-0.5l0.7-1.3c0.3,0.2,0.6,0.3,0.9,0.5L44.4,87.5z M41.7,86c-0.3-0.2-0.6-0.4-0.9-0.5l0.8-1.3
			c0.3,0.2,0.6,0.3,0.8,0.5L41.7,86z M39.2,84.4c-0.3-0.2-0.6-0.4-0.8-0.6l0.9-1.2c0.3,0.2,0.5,0.4,0.8,0.6L39.2,84.4z M36.8,82.5
			c-0.3-0.2-0.5-0.4-0.8-0.7l1-1.1c0.2,0.2,0.5,0.4,0.8,0.6L36.8,82.5z M34.5,80.5c-0.2-0.2-0.5-0.5-0.7-0.7l1.1-1.1
			c0.2,0.2,0.5,0.5,0.7,0.7L34.5,80.5z"/>
		<path fill="#231F20" d="M33.7,79.8c-7.9-7.9-12.2-18.4-12.2-29.5H23c0,10.7,4.2,20.8,11.8,28.4L33.7,79.8z"/>
		<path fill="#231F20" d="M23,49.1l-1.5,0c0-0.3,0-0.7,0-1l1.5,0.1C23.1,48.5,23,48.8,23,49.1z M23.2,46.2L21.7,46
			c0-0.3,0.1-0.7,0.1-1l1.5,0.2C23.3,45.5,23.3,45.8,23.2,46.2z M23.6,43.3L22.2,43c0.1-0.3,0.1-0.7,0.2-1l1.5,0.3
			C23.7,42.6,23.7,42.9,23.6,43.3z M24.2,40.4L22.8,40c0.1-0.3,0.2-0.7,0.3-1l1.4,0.4C24.4,39.7,24.3,40.1,24.2,40.4z M25.1,37.5
			l-1.4-0.5c0.1-0.3,0.2-0.6,0.3-1l1.4,0.5C25.3,36.9,25.2,37.2,25.1,37.5z M26.1,34.8l-1.4-0.6c0.1-0.3,0.3-0.6,0.4-0.9l1.4,0.6
			C26.4,34.2,26.2,34.5,26.1,34.8z M27.3,32.1L26,31.4c0.2-0.3,0.3-0.6,0.5-0.9l1.3,0.7C27.6,31.5,27.5,31.8,27.3,32.1z M28.8,29.5
			l-1.3-0.8c0.2-0.3,0.4-0.6,0.5-0.9l1.3,0.8C29.1,29,28.9,29.3,28.8,29.5z M30.4,27.1l-1.2-0.9c0.2-0.3,0.4-0.6,0.6-0.8l1.2,0.9
			C30.8,26.5,30.6,26.8,30.4,27.1z M32.2,24.7l-1.2-1c0.2-0.3,0.4-0.5,0.7-0.8l1.1,1C32.6,24.2,32.4,24.5,32.2,24.7z M34.1,22.5
			l-1.1-1c0.2-0.2,0.5-0.5,0.7-0.7l1.1,1.1C34.6,22.1,34.3,22.3,34.1,22.5z"/>
		<path fill="#231F20" d="M34.8,21.8l-1.1-1.1c7.9-7.9,18.4-12.2,29.5-12.2V10C52.5,10,42.4,14.2,34.8,21.8z"/>
		<path fill="#231F20" d="M92.8,79.8l-1.1-1.1c0.2-0.2,0.5-0.5,0.7-0.7l1.1,1C93.2,79.3,93,79.5,92.8,79.8z M94.8,77.5l-1.1-1
			c0.2-0.2,0.4-0.5,0.6-0.8l1.2,1C95.3,77,95.1,77.3,94.8,77.5z M96.7,75.1l-1.2-0.9c0.2-0.3,0.4-0.5,0.6-0.8l1.2,0.9
			C97.1,74.6,96.9,74.9,96.7,75.1z M98.5,72.6l-1.3-0.8c0.2-0.3,0.3-0.6,0.5-0.8l1.3,0.8C98.8,72.1,98.7,72.3,98.5,72.6z M100,70
			l-1.3-0.7c0.2-0.3,0.3-0.6,0.5-0.9l1.3,0.7C100.3,69.4,100.2,69.7,100,70z M101.4,67.3l-1.4-0.6c0.1-0.3,0.3-0.6,0.4-0.9l1.4,0.6
			C101.6,66.6,101.5,66.9,101.4,67.3z M102.5,64.4l-1.4-0.5c0.1-0.3,0.2-0.6,0.3-0.9l1.4,0.5C102.7,63.8,102.6,64.1,102.5,64.4z
			 M103.4,61.5l-1.4-0.4c0.1-0.3,0.2-0.6,0.3-0.9l1.5,0.4C103.6,60.9,103.5,61.2,103.4,61.5z M104.1,58.5l-1.5-0.3
			c0.1-0.3,0.1-0.6,0.2-1l1.5,0.3C104.3,57.9,104.2,58.2,104.1,58.5z M104.6,55.5l-1.5-0.2c0-0.3,0.1-0.6,0.1-1l1.5,0.2
			C104.7,54.8,104.7,55.2,104.6,55.5z M104.9,52.5l-1.5-0.1c0-0.3,0-0.7,0-1l1.5,0C104.9,51.8,104.9,52.1,104.9,52.5z"/>
		<path fill="#231F20" d="M91.7,21.8c-0.2-0.2-0.5-0.5-0.7-0.7l1-1.1c0.2,0.2,0.5,0.5,0.7,0.7L91.7,21.8z M89.5,19.8
			c-0.2-0.2-0.5-0.4-0.8-0.6l1-1.2c0.3,0.2,0.5,0.4,0.8,0.7L89.5,19.8z M87.2,18c-0.3-0.2-0.5-0.4-0.8-0.6l0.9-1.2
			c0.3,0.2,0.6,0.4,0.8,0.6L87.2,18z M84.8,16.3c-0.3-0.2-0.6-0.3-0.8-0.5l0.8-1.3c0.3,0.2,0.6,0.4,0.9,0.5L84.8,16.3z M82.3,14.8
			c-0.3-0.2-0.6-0.3-0.9-0.5l0.7-1.3c0.3,0.2,0.6,0.3,0.9,0.5L82.3,14.8z M79.6,13.5c-0.3-0.1-0.6-0.3-0.9-0.4l0.6-1.4
			c0.3,0.1,0.6,0.3,0.9,0.4L79.6,13.5z M76.9,12.4c-0.3-0.1-0.6-0.2-0.9-0.3l0.5-1.4c0.3,0.1,0.6,0.2,1,0.3L76.9,12.4z M74.1,11.5
			c-0.3-0.1-0.6-0.2-0.9-0.3l0.4-1.5c0.3,0.1,0.7,0.2,1,0.3L74.1,11.5z M71.2,10.8c-0.3-0.1-0.6-0.1-1-0.2l0.3-1.5
			c0.3,0.1,0.7,0.1,1,0.2L71.2,10.8z M68.3,10.4c-0.3,0-0.6-0.1-1-0.1l0.1-1.5c0.3,0,0.7,0.1,1,0.1L68.3,10.4z M65.4,10.1
			c-0.3,0-0.7,0-1,0l0-1.5c0.3,0,0.7,0,1,0L65.4,10.1z"/>
		<path fill="#231F20" d="M105,50.3h-1.5c0-10.7-4.2-20.8-11.8-28.4l1.1-1.1C100.6,28.6,105,39.1,105,50.3z"/>
		<circle fill="#FFD05B" cx="63.2" cy="50.3" r="36.9"/>
		<circle fill="#FFFFFF" cx="63.2" cy="50.3" r="30.6"/>
		<path fill="#231F20" d="M82,52.2c-1.6,0-3-1.3-3-3c0-1.6,1.3-3,3-3s3,1.3,3,3C85,50.9,83.7,52.2,82,52.2z M82,47.8
			c-0.8,0-1.5,0.7-1.5,1.5s0.7,1.5,1.5,1.5s1.5-0.7,1.5-1.5S82.8,47.8,82,47.8z"/>
		<path fill="#231F20" d="M42.3,52.2c-1.6,0-3-1.3-3-3c0-1.6,1.3-3,3-3c1.6,0,3,1.3,3,3C45.3,50.9,44,52.2,42.3,52.2z M42.3,47.8
			c-0.8,0-1.5,0.7-1.5,1.5s0.7,1.5,1.5,1.5s1.5-0.7,1.5-1.5S43.1,47.8,42.3,47.8z"/>
		<path fill="#231F20" d="M63.2,48.1c-3,0-5.4-2.4-5.4-5.4c0-3,2.4-5.4,5.4-5.4c2.7,0,5,2,5.3,4.6h4.3c-0.3-4-3.1-7.4-6.9-8.5
			c-0.3-0.1-0.5-0.4-0.5-0.7v-2.5h-4.2v2.5c0,0.3-0.2,0.6-0.5,0.7c-4.1,1.2-7,5-7,9.2h-1.5c0-4.7,3.1-9,7.5-10.5v-2.7
			c0-0.4,0.3-0.8,0.8-0.8h5.7c0.4,0,0.8,0.3,0.8,0.8v2.7c4.5,1.5,7.5,5.8,7.5,10.5c0,0.4-0.3,0.8-0.8,0.8h-5.7
			c-0.4,0-0.8-0.3-0.8-0.8c0-2.1-1.7-3.9-3.9-3.9c-2.1,0-3.9,1.7-3.9,3.9c0,2.1,1.7,3.9,3.9,3.9V48.1z"/>
		<path fill="#231F20" d="M74.4,57.8h-1.5c0-0.3,0-0.6,0-0.9l1.5-0.1C74.4,57.1,74.4,57.4,74.4,57.8z M72.5,55
			c-0.1-0.3-0.2-0.6-0.3-0.9l1.4-0.6c0.1,0.3,0.3,0.7,0.4,1L72.5,55z M71.3,52.5c-0.2-0.3-0.4-0.5-0.5-0.7l1.2-0.9
			c0.2,0.3,0.4,0.6,0.6,0.9L71.3,52.5z M69.5,50.4c-0.2-0.2-0.5-0.4-0.7-0.6l0.9-1.2c0.3,0.2,0.6,0.4,0.8,0.7L69.5,50.4z M67.1,49
			c-0.3-0.1-0.6-0.2-0.9-0.3l0.5-1.4c0.3,0.1,0.7,0.2,1,0.4L67.1,49z M64.5,48.2c-0.3,0-0.6-0.1-0.9-0.1l0-1.5c0.4,0,0.7,0,1.1,0.1
			L64.5,48.2z"/>
		<path fill="#231F20" d="M66.1,71.8h-5.7c-0.4,0-0.8-0.3-0.8-0.8v-2.7c-4.5-1.5-7.5-5.8-7.5-10.5c0-0.4,0.3-0.8,0.8-0.8h5.7
			c0.4,0,0.8,0.3,0.8,0.8c0,2.1,1.7,3.9,3.9,3.9c2.1,0,3.9-1.7,3.9-3.9c0-2.1-1.7-3.9-3.9-3.9v-1.5c3,0,5.4,2.4,5.4,5.4
			c0,3-2.4,5.4-5.4,5.4c-2.7,0-5-2-5.3-4.6h-4.3c0.3,4,3.1,7.4,6.9,8.5c0.3,0.1,0.5,0.4,0.5,0.7v2.5h4.2v-2.5c0-0.3,0.2-0.6,0.5-0.7
			c4.1-1.2,7-5,7-9.2h1.5c0,4.7-3.1,9-7.5,10.5V71C66.9,71.4,66.5,71.8,66.1,71.8z"/>
		<path fill="#231F20" d="M62.9,53.9c-0.4,0-0.7,0-1.1-0.1l0.2-1.5c0.3,0,0.6,0.1,0.9,0.1L62.9,53.9z M59.8,53.3
			c-0.3-0.1-0.7-0.2-1-0.4l0.6-1.4c0.3,0.1,0.6,0.2,0.9,0.3L59.8,53.3z M56.9,51.9c-0.3-0.2-0.6-0.4-0.8-0.7l1-1.1
			c0.2,0.2,0.5,0.4,0.7,0.6L56.9,51.9z M54.6,49.7c-0.2-0.3-0.4-0.6-0.6-0.9l1.3-0.8c0.2,0.3,0.4,0.5,0.5,0.7L54.6,49.7z M52.9,46.9
			c-0.1-0.3-0.3-0.7-0.4-1l1.4-0.4c0.1,0.3,0.2,0.6,0.3,0.9L52.9,46.9z M52.2,43.8c0-0.4-0.1-0.7-0.1-1.1h1.5c0,0.3,0,0.6,0,0.9
			L52.2,43.8z"/>
		<rect x="80.2" y="75.1" fill="#FFFFFF" width="1.2" height="0.8"/>
		<path fill="#231F20" d="M81.4,76h-1.2c-0.1,0-0.1-0.1-0.1-0.1v-0.8c0-0.1,0.1-0.1,0.1-0.1h1.2c0.1,0,0.1,0.1,0.1,0.1v0.8
			C81.5,76,81.5,76,81.4,76z M80.3,75.8h0.9v-0.5h-0.9V75.8z"/>
		<polyline fill="#84DBFF" points="106.2,128.7 106.2,119.4 76,119.4 76,128.7 		"/>
		<path fill="#FFFFFF" d="M101.4,74.6c-2.1-0.2-3.8,1.4-3.8,3.4v-0.9c0-1.8-1.3-3.4-3.1-3.6c-2.1-0.2-3.8,1.4-3.8,3.4v-2
			c0-2-1.7-3.6-3.8-3.4c-1.8,0.2-3.1,1.8-3.1,3.6l0-12.3c0-2-1.7-3.6-3.8-3.4c-1.8,0.2-3.1,1.8-3.1,3.6v20.2c0-2-1.7-3.6-3.8-3.4
			c-1.8,0.2-3.1,1.8-3.1,3.6v10.3c0,4.9,2.2,9.5,6.1,12.6c2.7,2.2,4.3,5.4,4.3,8.9v4.3h21.2v-5c0-1.7,0.1-3.4,0.4-5.1l2.1-6.9
			c0.3-1.7,0.4-3.4,0.4-5.1V78.2C104.5,76.4,103.2,74.7,101.4,74.6z"/>
		<line fill="#E6E9EE" x1="83.8" y1="75.1" x2="83.8" y2="82.9"/>
		<line fill="#E6E9EE" x1="90.7" y1="76.8" x2="90.7" y2="83.2"/>
		<line fill="#E6E9EE" x1="97.6" y1="77.7" x2="97.6" y2="83.2"/>
		<path fill="#231F20" d="M106.2,118.6h-3.8v-4.2c0-1.6,0.1-3.3,0.4-4.8l2.1-7c0.3-1.7,0.4-3.5,0.4-5.2V78.2c0-2.2-1.7-4.1-3.8-4.3
			c-1.4-0.1-2.7,0.4-3.5,1.4c-0.6-1.3-1.9-2.3-3.4-2.4c-0.5,0-0.9,0-1.3,0.1c4.8-6.3,7.6-14.1,7.6-22.6c0-20.8-16.9-37.6-37.6-37.6
			c-20.8,0-37.6,16.9-37.6,37.6c0,20.7,16.9,37.6,37.6,37.6c2,0,4.1-0.2,6-0.5V90c-2,0.3-4,0.5-6,0.5V92c2,0,4-0.2,6-0.5v2
			c0,5.2,2.3,10,6.4,13.2c2.6,2,4,5.1,4,8.3v3.6H76c-0.4,0-0.8,0.3-0.8,0.8v9.4c0,0.4,0.3,0.8,0.8,0.8c0.4,0,0.8-0.3,0.8-0.8v-8.6
			h28.7v8.6c0,0.4,0.3,0.8,0.8,0.8c0.4,0,0.8-0.3,0.8-0.8v-9.4C106.9,119,106.6,118.6,106.2,118.6z M69.3,83.2v2.7
			c-2,0.3-4,0.5-6,0.5c-19.9,0-36.1-16.2-36.1-36.1c0-19.9,16.2-36.1,36.1-36.1c19.9,0,36.1,16.2,36.1,36.1c0,8.7-3.1,16.7-8.3,23
			c-0.7-1.5-2.3-2.6-4.2-2.4c4.8-5.5,7.7-12.7,7.7-20.5c0-17.3-14.1-31.3-31.3-31.3C46,18.9,31.9,33,31.9,50.3S46,81.6,63.2,81.6
			c2.3,0,4.5-0.3,6.7-0.7C69.5,81.6,69.3,82.4,69.3,83.2z M80,58.6c-2.1,0.2-3.8,2.1-3.8,4.3v14.2c-3.9,1.9-8.3,3-12.9,3
			c-16.5,0-29.8-13.4-29.8-29.8c0-16.5,13.4-29.8,29.8-29.8c16.5,0,29.8,13.4,29.8,29.8c0,8.1-3.3,15.5-8.5,20.8v-8.3
			C84.6,60.3,82.5,58.3,80,58.6z M76.2,78.8v1.1c-0.3-0.3-0.7-0.5-1-0.6C75.5,79.1,75.8,79,76.2,78.8z M76.6,105.5
			c-3.7-2.9-5.8-7.3-5.8-12V83.2c0-1.5,1.1-2.7,2.4-2.8c1.6-0.2,3,1.1,3,2.7c0,0.4,0.3,0.8,0.8,0.8c0.4,0,0.8-0.3,0.8-0.8V62.9
			c0-1.5,1.1-2.7,2.4-2.8c1.6-0.2,3,1.1,3,2.7v20.2c0,0.4,0.3,0.8,0.8,0.8c0.4,0,0.8-0.3,0.8-0.8v-7.8c0-1.5,1.1-2.7,2.4-2.8
			c1.6-0.2,3,1.1,3,2.7v8.3c0,0.4,0.3,0.8,0.8,0.8c0.4,0,0.8-0.3,0.8-0.8V77c0-1.6,1.4-2.8,3-2.7c1.4,0.1,2.4,1.4,2.4,2.8v6.1
			c0,0.4,0.3,0.8,0.8,0.8c0.4,0,0.8-0.3,0.8-0.8V78c0-1.6,1.4-2.8,3-2.7c1.4,0.1,2.4,1.4,2.4,2.8v19.2c0,1.6-0.1,3.3-0.4,4.8l-2.1,7
			c-0.3,1.7-0.4,3.4-0.4,5.2v4.2H81.2V115C81.2,111.3,79.5,107.8,76.6,105.5z"/>
		<circle fill="#84DBFF" cx="22.3" cy="10.2" r="2.4"/>
		<circle fill="#E6E9EE" cx="116.5" cy="40.8" r="2.4"/>
		<circle fill="#E6E9EE" cx="116.5" cy="91.2" r="2.4"/>
		<circle fill="#FF7058" cx="7.6" cy="47" r="2.4"/>
		<g>
			<line fill="#FFD05B" x1="9.6" y1="118.6" x2="17.7" y2="118.6"/>
			<path fill="#231F20" d="M17.7,119.4H9.6c-0.4,0-0.8-0.3-0.8-0.8c0-0.4,0.3-0.8,0.8-0.8h8.1c0.4,0,0.8,0.3,0.8,0.8
				C18.4,119.1,18.1,119.4,17.7,119.4z"/>
		</g>
		<g>
			<line fill="#FFD05B" x1="16.9" y1="121.6" x2="20.9" y2="121.6"/>
			<path fill="#231F20" d="M20.9,122.3h-4c-0.4,0-0.8-0.3-0.8-0.8c0-0.4,0.3-0.8,0.8-0.8h4c0.4,0,0.8,0.3,0.8,0.8
				C21.6,122,21.3,122.3,20.9,122.3z"/>
		</g>
		<g>
			<line fill="#FFD05B" x1="21.4" y1="118.6" x2="25.1" y2="118.6"/>
			<path fill="#231F20" d="M25.1,119.4h-3.8c-0.4,0-0.8-0.3-0.8-0.8c0-0.4,0.3-0.8,0.8-0.8h3.8c0.4,0,0.8,0.3,0.8,0.8
				C25.9,119.1,25.5,119.4,25.1,119.4z"/>
		</g>
		<g>
			<line fill="#FFD05B" x1="13.2" y1="121.6" x2="14" y2="121.6"/>
			<path fill="#231F20" d="M14,122.3h-0.8c-0.4,0-0.8-0.3-0.8-0.8c0-0.4,0.3-0.8,0.8-0.8H14c0.4,0,0.8,0.3,0.8,0.8
				C14.8,122,14.4,122.3,14,122.3z"/>
		</g>
		<g>
			<line fill="#FFD05B" x1="107.7" y1="68.1" x2="115.8" y2="68.1"/>
			<path fill="#231F20" d="M115.8,68.8h-8.1c-0.4,0-0.8-0.3-0.8-0.8c0-0.4,0.3-0.8,0.8-0.8h8.1c0.4,0,0.8,0.3,0.8,0.8
				C116.5,68.5,116.2,68.8,115.8,68.8z"/>
		</g>
		<g>
			<line fill="#FFD05B" x1="115" y1="71" x2="119" y2="71"/>
			<path fill="#231F20" d="M119,71.8h-4c-0.4,0-0.8-0.3-0.8-0.8s0.3-0.8,0.8-0.8h4c0.4,0,0.8,0.3,0.8,0.8S119.4,71.8,119,71.8z"/>
		</g>
		<g>
			<line fill="#FFD05B" x1="119.4" y1="68.1" x2="123.2" y2="68.1"/>
			<path fill="#231F20" d="M123.2,68.8h-3.8c-0.4,0-0.8-0.3-0.8-0.8c0-0.4,0.3-0.8,0.8-0.8h3.8c0.4,0,0.8,0.3,0.8,0.8
				C124,68.5,123.6,68.8,123.2,68.8z"/>
		</g>
		<g>
			<line fill="#FFD05B" x1="111.3" y1="71" x2="112.1" y2="71"/>
			<path fill="#231F20" d="M112.1,71.8h-0.8c-0.4,0-0.8-0.3-0.8-0.8s0.3-0.8,0.8-0.8h0.8c0.4,0,0.8,0.3,0.8,0.8
				S112.5,71.8,112.1,71.8z"/>
		</g>
		<path fill="#231F20" d="M107.5,28.9C107.5,28.9,107.5,28.9,107.5,28.9c-0.4,0-0.6-0.2-0.7-0.5l-5.3-18.7c-0.1-0.3,0-0.5,0.2-0.7
			c0.2-0.2,0.5-0.3,0.7-0.2l18.7,5.3c0.3,0.1,0.5,0.4,0.5,0.7c0,0.3-0.2,0.6-0.4,0.7l-6.1,2.7l4.6,4.6c0.1,0.1,0.2,0.3,0.2,0.5
			c0,0.2-0.1,0.4-0.2,0.5l-3.1,3.1c-0.3,0.3-0.8,0.3-1.1,0l-4.6-4.6l-2.7,6.1C108.1,28.7,107.8,28.9,107.5,28.9z M103.3,10.6
			l4.4,15.4l2.3-5.2c0.1-0.2,0.3-0.4,0.5-0.4c0.2,0,0.5,0,0.7,0.2l4.9,4.9l2-2l-4.9-4.9c-0.2-0.2-0.3-0.4-0.2-0.7
			c0-0.2,0.2-0.4,0.4-0.5l5.2-2.3L103.3,10.6z"/>
	</g>
</g>
</svg>
