<svg xmlns="http://www.w3.org/2000/svg" xmlns:xlink="http://www.w3.org/1999/xlink" viewBox="0 0 129.5 129.5"><style><![CDATA[.H{fill:#231F20}.I{fill:#fff}.J{fill:#E6E9EE}.K{fill:#FF7058}]]></style><path d="M121.5 2.6L118 1l-.1.2c-.8 1.3-2.2 2.1-3.8 2h-.9c-1.5 0-3-.8-3.7-2.2l-.1-.2-3.6 1.4.1.2c.4 1.5-.1 3-1.3 4.1-.2.2-.4.4-.7.6-1.1 1.1-2.7 1.5-4.1 1l-.1-.1-1.6 3.5.2.1c1.3.8 2.1 2.2 2 3.8v.9c0 1.5-.8 3-2.2 3.7h-.3l1.4 3.6.2-.1c1.5-.4 3 .1 4.1 1.3.2.2.4.4.6.7 1.1 1.1 1.5 2.7 1 4.1l-.1.2 3.5 1.6.1-.2c.8-1.3 2.2-2.1 3.8-2h.9c1.5 0 3 .8 3.7 2.2l.1.2 3.6-1.4-.1-.2c-.4-1.5.1-3 1.3-4.1.2-.2.4-.4.7-.6 1.1-1.1 2.7-1.5 4.1-1l.2.1 1.6-3.5-.2-.1c-1.3-.8-2.1-2.2-2-3.8v-.9c0-1.5.8-3 2.2-3.7l.2-.1-1.4-3.6-.2.1c-1.5.4-3-.1-4.1-1.3-.2-.2-.4-.4-.6-.7-1.1-1.1-1.5-2.7-1-4.1l.1-.1z" class="I"/><path d="M117.1 32.4c-.3 0-.5-.2-.7-.4l-.1-.2c-.5-1.1-1.7-1.8-3-1.8h-1c-1.3-.1-2.5.5-3.1 1.6l-.1.2c-.2.3-.6.5-1 .3l-3.5-1.6c-.4-.2-.5-.6-.4-.9l.1-.2c.4-1.2.1-2.4-.8-3.3-.2-.2-.4-.5-.7-.7-.8-1-2.1-1.4-3.3-1.1l-.2.1c-.4.1-.8-.1-.9-.5L97 20.3c-.1-.4 0-.8.4-.9l.2-.1c1.1-.5 1.8-1.7 1.8-3v-1c.1-1.3-.5-2.5-1.6-3.1l-.2-.1c-.3-.2-.5-.6-.3-1L99 7.7c.2-.4.6-.5.9-.4l.2.1c1.1.4 2.5 0 3.3-.8.2-.2.5-.4.7-.7 1-.9 1.4-2.1 1.1-3.3l-.1-.2c-.1-.4.1-.8.5-.9l3.6-1.4c.4-.1.8 0 .9.4l.1.2c.5 1.1 1.7 1.8 3 1.8h1c1.3.1 2.5-.5 3.1-1.6l.1-.2c.2-.3.6-.5 1-.3l3.5 1.6c.4.2.5.6.4.9l-.2.1c-.4 1.2-.1 2.4.8 3.3.2.2.4.5.7.7.8 1 2.1 1.4 3.3 1.1l.2-.1c.4-.1.8.1.9.5l1.4 3.6c.1.4 0 .8-.4.9l-.2.1c-1.1.5-1.8 1.7-1.8 3v1c-.1 1.3.5 2.5 1.6 3.1l.2.1c.3.2.5.6.3 1l-1.6 3.5c-.2.4-.6.5-.9.4l-.2-.1c-1.1-.4-2.5 0-3.3.8-.2.2-.5.4-.7.7-1 .9-1.4 2.1-1.1 3.3l.1.2c.1.4-.1.8-.5.9l-3.6 1.4h-.2zm-4.9-3.9h1.1c1.8 0 3.3.8 4.2 2.2l2.3-.9c-.3-1.6.3-3.3 1.6-4.4l.6-.6c1.2-1.2 2.9-1.7 4.5-1.3l1-2.3c-1.3-.9-2.1-2.5-2-4.2v-.8c0-1.7.8-3.3 2.2-4.1l-.9-2.3c-1.6.3-3.3-.3-4.4-1.6l-.6-.6c-1.2-1.2-1.7-2.9-1.3-4.5l-2.3-1c-.9 1.3-2.5 2.1-4.2 2h-.8c-1.8 0-3.3-.8-4.2-2.2l-2.3.9c.3 1.6-.3 3.3-1.6 4.4l-.6.6c-1.2 1.2-2.9 1.7-4.5 1.3l-1 2.3c1.3.9 2.1 2.5 2 4.2v.8c0 1.7-.8 3.3-2.2 4.1l.9 2.3c1.6-.3 3.3.3 4.4 1.6l.6.6c1.2 1.2 1.7 2.9 1.3 4.5l2.3 1c.8-1.3 2.3-2 3.9-2zm1-1.6c-.4 0-.7 0-1.1-.1l.2-1.5c.3 0 .6.1.9.1v1.5zm2.2-.2l-.3-1.5c.3-.1.6-.1.9-.2l.4 1.4-1 .3zm-5.4-.4c-.3-.1-.7-.2-1-.4l.6-1.4.9.3-.5 1.5zm8.4-.7l-.7-1.3c.3-.1.5-.3.8-.5l.8 1.2-.9.6zm-11.2-.7c-.3-.2-.6-.4-.9-.7l1-1.1c.2.2.5.4.7.6l-.8 1.2zm13.7-1.3l-1.1-1c.2-.2.4-.5.6-.7l1.2.9c-.2.3-.4.6-.7.8zm-16.1-.9l-.6-.9 1.3-.8.5.8-1.2.9zm18-1.7l-1.3-.7c.1-.1.1-.3.2-.4.1-.2.1-.3.2-.5l1.4.5c-.1.2-.1.4-.2.5-.2.3-.2.4-.3.6zm-19.5-1.1l-.3-1 1.5-.4.3.9-1.5.5zm20.5-2l-1.5-.2c.1-.3.1-.6.1-.9l1.5.1c0 .3 0 .7-.1 1zm-21.1-1.2v-1l1.5.1v1l-1.5-.1zm19.7-1.8c0-.3-.1-.6-.2-.9l1.5-.4c.1.3.2.7.2 1.1l-1.5.2zm-18-1l-1.5-.4.3-1 1.4.5c0 .3-.1.6-.2.9zm17.2-1.6c-.1-.3-.3-.6-.4-.8l1.3-.8c.2.3.4.6.5.9l-1.4.7zm-16.1-.9l-1.3-.8.6-.9 1.2.9c-.1.2-.3.5-.5.8zM120 10c-.2-.2-.4-.4-.7-.6l1-1.1c.3.2.5.5.8.8l-1.1.9zm-12.7-.7l-1-1.1c.3-.2.6-.5.8-.7l.9 1.2a4.35 4.35 0 0 1-.7.6zm10.6-1c-.3-.2-.5-.3-.8-.4l.6-1.4a4.67 4.67 0 0 1 1 .5l-.8 1.3zm-8.2-.5l-.6-1.4c.3-.1.7-.3 1-.4l.5 1.4-.9.4zm6.3-.3c-.3-.1-.6-.2-.9-.2l.3-1.5 1 .3-.4 1.4zm-3.7-.4l-.2-1.5c.4 0 .7-.1 1.1-.1V7c-.3.1-.6.1-.9.1z" class="H"/><circle cx="113.3" cy="16.2" r="7.9" class="K"/><circle cx="113.3" cy="16.2" r="3.9" class="I"/><path d="M113.3 20.9c-.7 0-1.3-.1-1.9-.4-1.1-.5-2-1.4-2.5-2.6-.4-1.2-.4-2.4.1-3.6.8-1.7 2.4-2.8 4.3-2.8.7 0 1.3.1 1.9.4 2.4 1.1 3.4 3.8 2.4 6.2-.8 1.7-2.5 2.8-4.3 2.8zm0-7.9c-1.3 0-2.4.7-2.9 1.9-.3.8-.4 1.6-.1 2.4s.9 1.4 1.7 1.8a3.08 3.08 0 0 0 1.3.3c1.3 0 2.4-.7 2.9-1.9.7-1.6 0-3.5-1.6-4.2a3.08 3.08 0 0 0-1.3-.3z" class="H"/><g class="I"><path d="M35 128.8V93.7h-7.1v-7.1H.8v42.2z"/><path d="M27.9 86.6v7.1H35z"/></g><path d="M35.5 93.2l-7.1-7.1c-.1-.1-.3-.2-.5-.2H.8c-.4 0-.8.3-.8.8v42.2c0 .4.3.8.8.8H35c.4 0 .8-.3.8-.8v-35c0-.4-.1-.6-.3-.7zm-6.9-4.8l4.6 4.6h-4.6v-4.6zm5.7 39.6H1.5V87.3h25.6v6.4c0 .4.3.8.8.8h6.4V128z" class="H"/><path d="M8.6 103.3h18.6" class="I"/><path d="M8.6 102.5h18.5v1.5H8.6z" class="H"/><path d="M8.6 107.7h18.6" class="I"/><path d="M8.6 106.9h18.5v1.5H8.6z" class="H"/><path d="M8.6 112.1h18.6" class="I"/><g class="H"><path d="M8.6 111.3h18.5v1.5H8.6z"/><use xlink:href="#B"/><path d="M82.5 14.4c-.2 0-.4-.1-.5-.2-.3-.3-.3-.8 0-1.1l1.3-1.3c.3-.3.8-.3 1.1 0s.3.8 0 1.1L83 14.2c-.1.2-.3.2-.5.2zm5.3 0c-.2 0-.4-.1-.5-.2L86 12.9c-.3-.3-.3-.8 0-1.1s.8-.3 1.1 0l1.3 1.3c.3.3.3.8 0 1.1-.2.2-.4.2-.6.2zm-4-4c-.2 0-.4-.1-.5-.2L82 8.9c-.3-.3-.3-.8 0-1.1s.8-.3 1.1 0l1.3 1.3c.3.3.3.8 0 1.1-.2.1-.4.2-.6.2z"/><use xlink:href="#B" x="-71.5" y="59"/><use xlink:href="#C"/><path d="M16.3 73.4c-.2 0-.4-.1-.5-.2l-1.3-1.3c-.3-.3-.3-.8 0-1.1s.8-.3 1.1 0l1.3 1.3c.3.3.3.8 0 1.1-.2.2-.4.2-.6.2z"/><use xlink:href="#D"/><use xlink:href="#C" x="110.3" y="-6"/><use xlink:href="#B" x="30.7" y="61"/><use xlink:href="#D" x="110.3" y="2"/><use xlink:href="#D" x="106.3" y="-2"/><path d="M51.7 8.9h-8.1c-.4 0-.8-.3-.8-.8 0-.4.3-.8.8-.8h8.1c.4 0 .8.3.8.8s-.4.8-.8.8zm3.2 3h-4c-.4 0-.8-.3-.8-.8 0-.4.3-.8.8-.8h4c.4 0 .8.3.8.8-.1.4-.4.8-.8.8zm4.3-3h-3.8c-.4 0-.8-.3-.8-.8 0-.4.3-.8.8-.8h3.8c.4 0 .8.3.8.8-.1.5-.4.8-.8.8zm-11.1 3h-.8c-.4 0-.8-.3-.8-.8 0-.4.3-.8.8-.8h.8c.4 0 .8.3.8.8-.1.4-.4.8-.8.8zM72 117.5c-2.2 0-4-1.8-4-4s1.8-4 4-4 4 1.8 4 4c.1 2.2-1.8 4-4 4zm0-6.6c-1.4 0-2.5 1.1-2.5 2.5s1.1 2.5 2.5 2.5 2.5-1.1 2.5-2.5c.1-1.3-1.1-2.5-2.5-2.5z"/></g><g class="I"><path d="M107.2 65v-5.2l-5.1-1.3c-.2-1.9-.6-3.7-1.1-5.5l4.2-3.2-2-4.8-5.2.8c-.9-1.6-2-3.2-3.1-4.6l2.7-4.6-3.7-3.7-4.6 2.7c-1.5-1.2-3-2.2-4.6-3.1l.7-5.2-4.8-2-3.2 4.2c-1.8-.5-3.6-.9-5.5-1.1l-1.3-5.1h-5.2l-1.4 5c-1.9.2-3.7.6-5.5 1.1l-3.2-4.2-4.8 2 .7 5.2c-1.6.9-3.2 2-4.6 3.1L42 32.8l-3.7 3.7 2.7 4.6c-1.2 1.5-2.2 3-3.1 4.6l-5.2-.7-2 4.8L35 53c-.5 1.8-.9 3.6-1.1 5.5l-5.1 1.3V65l5.1 1.3c.2 1.9.6 3.7 1.1 5.5L30.7 75l2 4.8 5.2-.7c.9 1.6 2 3.2 3.1 4.6l-2.7 4.6L42 92l4.6-2.7c1.5 1.2 3 2.2 4.6 3.1l-.7 5.2 4.8 2 3.2-4.2c1.8.5 3.6.9 5.5 1.1l1.3 5.1h5.2l1.3-5.1c1.9-.2 3.7-.6 5.5-1.1l3.2 4.2 4.8-2-.7-5.2c1.6-.9 3.2-2 4.6-3.1l4.6 2.7 3.7-3.7-2.7-4.6c1.2-1.5 2.2-3 3.1-4.6l5.2.7 2-4.8-4.2-3.2c.5-1.8.9-3.6 1.1-5.5l5.2-1.3z"/><circle cx="68" cy="62.4" r="27.6"/></g><path d="M68.7 85.6v-1.5c.3 0 .6 0 1-.1l.1 1.5c-.4.1-.7.1-1.1.1zm-2 0c-.3 0-.7 0-1-.1l.2-1.5c.3 0 .6.1 1 .1l-.2 1.5zm5.1-.3l-.2-1.5c.3-.1.6-.1.9-.2l.3 1.5c-.3.1-.7.2-1 .2zm-8.2-.1c-.3-.1-.7-.1-1-.2l.3-1.5c.3.1.6.1.9.2l-.2 1.5zm11.2-.6l-.4-1.4.9-.3.5 1.4-1 .3zm-14.2-.2c-.3-.1-.7-.2-1-.4l.5-1.4.9.3-.4 1.5zm17.1-.9l-.6-1.4c.3-.1.6-.3.9-.4l.7 1.3c-.4.2-.7.4-1 .5zm-20-.2c-.3-.2-.6-.3-.9-.5l.7-1.3c.3.2.6.3.9.4l-.7 1.4zM80.4 82l-.8-1.3c.3-.2.5-.4.8-.5l.9 1.2-.9.6zM55 81.7c-.3-.2-.6-.4-.8-.6l.9-1.2c.3.2.5.4.8.6l-.9 1.2zm27.9-1.5L82 79c.2-.2.5-.4.7-.6l1 1.1c-.3.2-.5.4-.8.7zm-30.3-.4c-.3-.2-.5-.5-.8-.7l1-1.1c.2.2.5.4.7.7l-.9 1.1zM85.2 78L84 77c.2-.2.4-.5.6-.7l1.2 1c-.2.2-.4.5-.6.7zm-34.8-.4c-.2-.3-.4-.5-.7-.8l1.2-.9c.2.3.4.5.6.7l-1.1 1zm36.7-2l-1.2-.9c.2-.3.4-.5.5-.8l1.3.8-.6.9zm-38.5-.5c-.2-.3-.4-.6-.5-.9l1.3-.8c.2.3.3.6.5.8l-1.3.9zm40.1-2.2l-1.3-.7c.1-.3.3-.6.4-.9l1.4.6c-.2.4-.4.7-.5 1zM47 72.4c-.1-.3-.3-.6-.4-.9l1.4-.6c.1.3.3.6.4.9l-1.4.6zm42.9-2.3l-1.4-.5.3-.9 1.4.4-.3 1zm-44-.5l-.3-1 1.4-.4.3.9-1.4.5zm44.8-2.5l-1.5-.3c.1-.3.1-.6.2-1l1.5.2c-.1.4-.1.8-.2 1.1zm-45.6-.5c-.1-.3-.1-.7-.2-1l1.5-.2c0 .3.1.6.1 1l-1.4.2zm46-2.6l-1.5-.1v-1h1.5V64zm-46.3-.5v-1l1.5-.1v1l-1.5.1zM89.6 61c0-.3 0-.6-.1-1l1.5-.2c0 .3.1.7.1 1l-1.5.2zm-43.2-.6l-1.5-.1c0-.3.1-.7.1-1l1.5.2c-.1.3-.1.6-.1.9zm42.8-2.2c-.1-.3-.1-.6-.2-.9l1.5-.4c.1.3.2.7.2 1l-1.5.3zm-42.4-.6l-1.5-.3.3-1 1.4.4c0 .2-.1.6-.2.9zm41.7-2.2l-.3-.9 1.4-.6c.1.3.2.6.4 1l-1.5.5zm-40.8-.6l-1.4-.5c.1-.3.3-.6.4-1l1.4.6c-.2.3-.3.6-.4.9zm39.7-2.1c-.1-.3-.3-.6-.5-.9l1.3-.7c.2.3.3.6.5.9l-1.3.7zm-38.5-.5l-1.3-.7c.2-.3.3-.6.5-.9l1.3.8c-.2.2-.4.5-.5.8zm37-2c-.2-.3-.4-.5-.6-.8l1.2-.9c.2.3.4.6.6.8l-1.2.9zm-35.5-.5l-1.2-.9c.2-.3.4-.5.6-.8l1.2.9c-.2.3-.4.6-.6.8zm33.7-1.8c-.2-.2-.4-.5-.7-.7l1.1-1.1c.2.2.5.5.7.8l-1.1 1zm-31.8-.4l-1.1-1 .7-.7 1 1.1c-.2.1-.4.4-.6.6zM82 45.9c-.2-.2-.5-.4-.8-.6l.9-1.2c.3.2.5.4.8.7l-.9 1.1zm-27.6-.4l-.9-1.2c.3-.2.5-.4.8-.6l.9 1.2c-.3.2-.6.4-.8.6zm25.3-1.3l-.8-.5.8-1.3c.3.2.6.4.9.5l-.9 1.3zm-22.9-.3l-.8-1.3c.3-.2.6-.4.9-.5l.7 1.3c-.3.1-.6.3-.8.5zm20.3-1.1c-.3-.1-.6-.3-.9-.4l.6-1.4c.3.1.6.3.9.4l-.6 1.4zm-17.8-.3l-.6-1.4c.3-.1.6-.3 1-.4l.5 1.4c-.3.2-.6.3-.9.4zm15.1-.8l-.9-.3.4-1.5 1 .3-.5 1.5zm-12.3-.1l-.4-1.4 1-.3.3 1.5c-.3 0-.6.1-.9.2zm9.5-.5c-.3-.1-.6-.1-1-.1l.2-1.5c.3 0 .7.1 1 .2l-.2 1.4zm-6.7-.1l-.2-1.5c.3 0 .7-.1 1-.1l.1 1.5c-.3 0-.6 0-.9.1zm3.9-.2h-1v-1.5h1v1.5z" class="H"/><circle cx="68" cy="62.4" r="19.4" class="J"/><path d="M60.032 47.216l1 1.732-1.3.75-1-1.732zM76.175 75.16l1 1.732-1.3.75-1-1.732zm-22.76-22l1.732 1-.75 1.3-1.732-1zM81.493 69.4l1.732 1-.75 1.3-1.732-1zM50.8 61.7h2v1.5h-2zm32.3 0h2v1.5h-2zm-28.628 7.656l.75 1.3-1.732 1-.75-1.3zm28.03-16.196l.75 1.3-1.732 1-.75-1.3zM59.727 75.152l1.3.75-1 1.732-1.3-.75zM75.92 47.158l1.3.75-1 1.732-1.3-.75zM76.1 63.2h-8.9V51.7h1.5v10h7.4zm-8.9-18h1.5v2h-1.5zm0 32.4h1.5v2h-1.5z" class="H"/><path d="M91 79.6h1.1v.7H91z" class="I"/><path d="M92.1 80.4H91c-.1 0-.1-.1-.1-.1v-.7c0-.1.1-.1.1-.1h1.1c.1 0 .1.1.1.1v.7c.1.1 0 .1-.1.1zm-.9-.2h.8v-.5h-.8v.5z" class="H"/><path d="M114.8 128.8v-8.7H87.2v8.7" fill="#84DBFF"/><path d="M110.5 79.1c-1.9-.2-3.5 1.3-3.5 3.1v-.8c0-1.7-1.2-3.1-2.9-3.3-1.9-.2-3.5 1.3-3.5 3.1v-1.8c0-1.9-1.6-3.3-3.5-3.1a3.35 3.35 0 0 0-2.9 3.3V68.3c0-1.8-1.6-3.3-3.5-3.1a3.35 3.35 0 0 0-2.9 3.3V87c0-1.8-1.6-3.3-3.5-3.1a3.35 3.35 0 0 0-2.9 3.3v9.5c0 4.5 2.1 8.7 5.6 11.5 2.5 2 4 5 4 8.2v4h19.4v-4.5c0-1.6.1-3.1.4-4.6l1.9-6.3c.3-1.5.4-3.1.4-4.6v-18c.2-1.7-1-3.2-2.6-3.3z" class="I"/><path d="M94.3 79.6v7.1m6.4-5.6V87m6.3-5v5" class="J"/><path d="M114.8 119.4h-3.5v-3.8c0-1.5.1-3 .4-4.4l1.9-6.4c.3-1.6.4-3.2.4-4.8V82.4c0-2.1-1.6-3.8-3.5-4-1.3-.1-2.4.4-3.2 1.2-.5-1-1.3-1.7-2.3-2l.9-2.2a.96.96 0 0 0-.2-.9l-3.8-2.9c.4-1.5.7-3.1.9-4.6l4.6-1.2c.3-.1.6-.4.6-.7v-5.2c0-.3-.2-.6-.6-.7l-4.6-1.2c-.2-1.5-.5-3.1-.9-4.6l3.8-2.9c.3-.2.4-.6.2-.9l-2-4.8c-.1-.3-.5-.5-.8-.5l-4.7.7-2.6-3.9 2.4-4.1c.2-.3.1-.7-.1-.9l-3.7-3.7c-.2-.2-.6-.3-.9-.1l-4.1 2.4c-1.2-1-2.5-1.8-3.9-2.6l.7-4.7c0-.3-.1-.7-.5-.8l-4.8-2a.96.96 0 0 0-.9.2l-2.9 3.8c-1.5-.4-3.1-.7-4.6-.9L71.3 23c-.1-.3-.4-.6-.7-.6h-5.2c-.3 0-.6.2-.7.6l-1.2 4.6c-1.5.2-3.1.5-4.6.9L56 24.8c-.2-.3-.6-.4-.9-.2l-4.8 2c-.3.1-.5.5-.5.8l.7 4.7-3.9 2.6-4.1-2.4c-.3-.2-.7-.1-.9.1L37.9 36c-.2.2-.3.6-.1.9l2.4 4.1c-1 1.2-1.8 2.6-2.6 3.9l-4.7-.7c-.3 0-.7.1-.8.5l-2 4.8a.96.96 0 0 0 .2.9l3.8 2.9c-.4 1.5-.7 3.1-.9 4.6l-4.6 1.2c-.3.1-.6.4-.6.7V65c0 .3.2.6.6.7l4.6 1.2c.2 1.5.5 3.1.9 4.6l-3.8 2.9c-.3.2-.4.6-.3.9l2 4.8c.1.3.5.5.8.5l4.7-.7 2.6 3.9-2.4 4.2c-.2.3-.1.7.1.9l3.7 3.7c.2.2.6.3.9.1l4.1-2.4c1.2 1 2.5 1.8 3.9 2.6l-.7 4.7c0 .3.1.7.5.8l4.8 2a.96.96 0 0 0 .9-.2l2.9-3.8c1.5.4 3.1.7 4.6.9l1.2 4.6c.1.3.4.6.7.6h5.2c.3 0 .6-.2.7-.6l1.2-4.6c1.5-.2 3.1-.5 4.6-.9l2.9 3.8c.2.3.6.4.9.2l.5-.2c.8 3.3 2.7 6.3 5.4 8.4a9.67 9.67 0 0 1 3.7 7.6v3.2h-3.3c-.4 0-.8.3-.8.8v8.6h1.5v-7.9H114v7.9h1.5v-8.6c.1-.5-.2-.8-.7-.8zm-34-20.6L78 95c-.2-.2-.5-.4-.8-.3-1.8.5-3.6.9-5.4 1.1a.65.65 0 0 0-.6.6L70 101h-4.1l-1.2-4.6a.9.9 0 0 0-.6-.6c-1.8-.2-3.6-.6-5.4-1.1-.3-.1-.6 0-.8.3l-2.8 3.8-3.7-1.6.7-4.7c0-.3-.1-.6-.4-.8-1.6-.9-3.1-1.9-4.5-3-.2-.2-.6-.2-.8-.1L42.3 91l-2.9-2.9 2.4-4.1c.2-.3.1-.6-.1-.8-1.1-1.4-2.2-3-3-4.5-.2-.3-.4-.4-.8-.4l-4.7.7-1.6-3.7 3.8-2.8c.2-.2.4-.5.3-.8-.5-1.8-.9-3.6-1.1-5.4a.65.65 0 0 0-.6-.6l-4.6-1.2v-4.1l4.6-1.2a.9.9 0 0 0 .6-.6c.2-1.8.6-3.6 1.1-5.4.1-.3 0-.6-.3-.8l-3.8-2.8 1.6-3.7 4.7.7c.3 0 .6-.1.8-.4.9-1.6 1.9-3.1 3-4.5.2-.2.2-.6.1-.8l-2.4-4.1 2.9-2.9 4.1 2.4c.3.2.6.1.8-.1 1.4-1.1 3-2.2 4.5-3 .3-.2.4-.5.4-.8l-.7-4.7 3.7-1.6 2.8 3.8c.2.2.5.4.8.3 1.8-.5 3.6-.9 5.4-1.1a.65.65 0 0 0 .6-.6l1.2-4.6H70l1.2 4.6a.9.9 0 0 0 .6.6c1.8.2 3.6.6 5.4 1.1.3.1.6 0 .8-.3l2.8-3.8 3.7 1.6-.7 4.7c0 .3.1.6.4.8 1.6.9 3.1 1.9 4.5 3 .2.2.6.2.8.1l4.1-2.4 2.9 2.9-2.4 4.1c-.2.3-.1.6.1.8 1.1 1.4 2.2 3 3 4.5.2.3.4.4.8.4l4.7-.7 1.6 3.7-3.8 2.8c-.2.2-.4.5-.3.8.5 1.8.9 3.6 1.1 5.4a.65.65 0 0 0 .6.6l4.6 1.2v4.1l-4.6 1.2a.9.9 0 0 0-.6.6c-.2 1.8-.6 3.6-1.1 5.4-.1.3 0 .6.3.8l3.8 2.8-.9 2.1c-.8.1-1.6.4-2.2.9-.5-1.7-2.2-3-4.1-2.8-.8.1-1.5.4-2 .8v-5.8c.8-2.6 1.2-5.3 1.2-8.1 0-15.6-12.7-28.3-28.3-28.3S39.7 46.8 39.7 62.4 52.4 90.7 68 90.7c4.7 0 9.1-1.2 13-3.2v8.9c0 .7.1 1.5.2 2.2l-.4.2zm6.4-30.4V81c-.7.7-1.4 1.3-2.1 1.9h-.7c-1.6.1-2.9 1.3-3.3 2.8-3.9 2.2-8.4 3.5-13.2 3.5-14.8 0-26.8-12-26.8-26.8s12-26.8 26.8-26.8 26.8 12 26.8 26.8c0 1.3-.1 2.6-.3 3.8-.7-1.2-2.1-2.1-3.7-1.9-1.9.2-3.5 2-3.5 4.1zm0 14.7v.7c-.1-.1-.3-.2-.4-.3.2-.1.3-.3.4-.4zm22.7 32.5v3.8H92v-3.2c0-3.4-1.5-6.6-4.2-8.8-3.4-2.7-5.3-6.6-5.3-10.9V87c0-1.3 1-2.4 2.2-2.5 1.4-.1 2.7 1 2.7 2.4 0 .4.3.8.8.8.4 0 .8-.3.8-.8V68.4c0-1.3 1-2.4 2.2-2.5 1.4-.1 2.7 1 2.7 2.4v18.5c0 .4.3.8.8.8s.8-.3.8-.8v-7.2c0-1.3 1-2.4 2.2-2.5 1.4-.1 2.7 1 2.7 2.4V87c0 .4.3.8.8.8.4 0 .8-.3.8-.8v-5.7c0-1.4 1.2-2.5 2.7-2.4 1.2.1 2.2 1.2 2.2 2.5V87c0 .4.3.8.8.8.4 0 .8-.3.8-.8v-4.8c0-1.4 1.2-2.5 2.7-2.4 1.2.1 2.2 1.2 2.2 2.5V100c0 1.5-.1 3-.4 4.4l-1.9 6.4c-1.1 1.6-1.2 3.2-1.2 4.8z" class="H"/><path d="M9.7 38.2h12.6c.5-4.5 2.2-8.7 5.2-12.1a14.97 14.97 0 0 0 3.8-10A15.31 15.31 0 0 0 14.3.9C7.3 1.6 1.7 7.2.9 14.2c-.5 4.6 1 8.8 3.7 11.9 2.9 3.3 4.6 7.6 5.1 12.1z" fill="#FFD05B"/><g class="I"><path d="M8.4 38.2h15.3v8.2H8.4z"/><path d="M6.1 40.9h19.8M6.1 43.6h19.8m-13.3 2.8h6.9v2.8h-6.9zm1.9-19.7l-.9 11.5h4.8l-.9-11.5zM23 11.9l-5.6 14.8m-2.7 0L9.1 11.9"/></g><path d="M25.9 41.6v-1.5h-1.5v-2c0-.4-.3-.8-.8-.8H19l-.9-10.8v-.1l5.4-14.3-1.4-.5-.5 1.4h-3.3c-.2 0-.4.1-.5.2l-1.4 1.4V11c0-.3-.2-.6-.5-.7s-.6-.1-.8.2L12.6 13h-2.4l-.5-1.3-1.4.5 5.4 14.3v.1l-.9 10.8H8.4c-.4 0-.8.3-.8.8v2H6.1v1.5h1.5v1.2H6.1v1.5h1.5v2c0 .4.3.8.8.8h3.5v2.1c0 .4.3.8.8.8h6.9c.4 0 .8-.3.8-.8v-2.1h3.5c.4 0 .8-.3.8-.8v-2h1.5v-1.5h-1.5v-1.2h1.2zM10.8 14.5H13c.2 0 .4-.1.5-.2l1.5-1.5v3.7c0 .3.2.6.5.7.1 0 .2.1.3.1.2 0 .4-.1.5-.2l2.5-2.5h2.5L17 25.9h-1.7l-4.5-11.4zm6.8 22.9h-3.2l.8-10h1.6l.8 10zm1.1 11h-5.4v-1.3h5.4v1.3zm4.2-2.8H9.1v-1.2h13.8v1.2zm0-2.7H9.1v-1.2h13.8v1.2zm0-2.8H9.1v-1.2h13.8v1.2z" class="H"/><g class="I"><path d="M56.6 116.9H25.3v6.6h31.3a3.33 3.33 0 0 0 3.3-3.3c0-1.9-1.5-3.3-3.3-3.3z"/><path d="M49.8 123.4h6.8a3.33 3.33 0 0 0 3.3-3.3 3.33 3.33 0 0 0-3.3-3.3h-6.8v6.6zm-24.5 0l-8-3.3 8-3.2z"/></g><path d="M56.6 116.1H25.3c-.1 0-.2 0-.3.1l-8 3.3c-.3.1-.5.4-.5.7s.2.6.5.7l8 3.3c.1 0 .2.1.3.1h31.3c2.2 0 4-1.8 4-4s-1.7-4.2-4-4.2zM24.5 118v4.4l-5.3-2.2 5.3-2.2zm1.5-.4h23v5.1H26v-5.1zm30.6 5.1h-6v-5.1h6c1.4 0 2.5 1.1 2.5 2.5.1 1.4-1.1 2.6-2.5 2.6z" class="H"/><circle cx="70.5" cy="9.6" r="2.5" class="K"/><circle cx="19.4" cy="59.6" r="2.5" class="J"/><circle cx="58.2" cy="110.2" r="2.5" class="K"/><circle cx="121.3" cy="81.8" r="2.5" class="J"/><circle cx="117.9" cy="41" r="2.5" fill="#FFD05B"/><defs ><path id="B" d="M86.5 10.4c-.2 0-.4-.1-.5-.2-.3-.3-.3-.8 0-1.1l1.3-1.3c.3-.3.8-.3 1.1 0s.3.8 0 1.1l-1.3 1.3c-.2.1-.4.2-.6.2z"/><path id="C" d="M11 73.4c-.2 0-.4-.1-.5-.2-.3-.3-.3-.8 0-1.1l1.3-1.3c.3-.3.8-.3 1.1 0s.3.8 0 1.1l-1.3 1.3c-.3.1-.5.2-.6.2z"/><path id="D" d="M12.2 69.4c-.2 0-.4-.1-.5-.2l-1.3-1.3c-.3-.3-.3-.8 0-1.1s.8-.3 1.1 0l1.3 1.3c.3.3.3.8 0 1.1-.2.1-.4.2-.6.2z"/></defs></svg>