<svg xmlns="http://www.w3.org/2000/svg" xmlns:xlink="http://www.w3.org/1999/xlink" viewBox="0 0 129.5 129.5"><path d="M111.1 85.3H18a1.79 1.79 0 0 1-1.8-1.8V22.2a1.79 1.79 0 0 1 1.8-1.8h93.2a1.79 1.79 0 0 1 1.8 1.8v61.3c0 .9-.8 1.8-1.9 1.8z" fill="#fff"/><path d="M97.3 20.3h12.1L97.3 68.7zm-65.5 0H19.7l12.1 48.4z" fill="#E6E9EE"/><path d="M10.2 115.2h-4c-.4 0-.8-.3-.8-.8 0-.4.3-.8.8-.8h4c.4 0 .8.3.8.8-.1.4-.4.8-.8.8zm4.2 0h-1.3c-.4 0-.8-.3-.8-.8 0-.4.3-.8.8-.8h1.3c.4 0 .8.3.8.8-.1.4-.4.8-.8.8zm-1.2 2.9h-1.6c-.4 0-.8-.3-.8-.8s.3-.8.8-.8h1.6c.4 0 .8.3.8.8s-.3.8-.8.8zm-4.4 0h-.5c-.4 0-.8-.3-.8-.8s.3-.8.8-.8h.5c.4 0 .8.3.8.8s-.4.8-.8.8zm5.6-104.2c-2.6 0-4.8-2.1-4.8-4.8s2.1-4.8 4.8-4.8 4.8 2.1 4.8 4.8-2.2 4.8-4.8 4.8zm0-8a3.33 3.33 0 0 0-3.3 3.3 3.33 3.33 0 0 0 3.3 3.3 3.33 3.33 0 0 0 3.3-3.3c-.1-1.9-1.5-3.3-3.3-3.3zm108.8 77.3a3.8 3.8 0 1 1 0-7.6 3.8 3.8 0 1 1 0 7.6zm0-6.1a2.3 2.3 0 1 0 2.3 2.3c0-1.3-1.1-2.3-2.3-2.3zM6.5 37.8c-.2 0-.4-.1-.5-.2-.3-.3-.3-.8 0-1.1l1-1c.3-.3.8-.3 1.1 0s.3.8 0 1.1l-1 1c-.2.2-.4.2-.6.2zm-3.2 3.3c-.2 0-.4-.1-.5-.2-.3-.3-.3-.8 0-1.1l1-1c.3-.3.8-.3 1.1 0s.3.8 0 1.1l-1 1c-.2.1-.4.2-.6.2zm4.2 0c-.2 0-.4-.1-.5-.2l-1-1c-.3-.3-.3-.8 0-1.1s.8-.3 1.1 0l1 1c.3.3.3.8 0 1.1-.2.1-.4.2-.6.2zm-3.2-3.3c-.2 0-.4-.1-.5-.2l-1-1c-.3-.3-.3-.8 0-1.1s.8-.3 1.1 0l1 1c.3.3.3.8 0 1.1-.2.2-.4.2-.6.2zm117.6 5.3c-.2 0-.4-.1-.5-.2-.3-.3-.3-.8 0-1.1l1-1c.3-.3.8-.3 1.1 0s.3.8 0 1.1l-1 1c-.2.1-.4.2-.6.2zm-3.2 3.2c-.2 0-.4-.1-.5-.2-.3-.3-.3-.8 0-1.1l1-1c.3-.3.8-.3 1.1 0s.3.8 0 1.1l-1 1c-.3.2-.4.2-.6.2zm4.2 0c-.2 0-.4-.1-.5-.2l-1-1c-.3-.3-.3-.8 0-1.1s.8-.3 1.1 0l1 1c.3.3.3.8 0 1.1-.2.2-.4.2-.6.2zm-3.2-3.2c-.2 0-.4-.1-.5-.2l-1-1c-.3-.3-.3-.8 0-1.1s.8-.3 1.1 0l1 1c.3.3.3.8 0 1.1-.2.1-.4.2-.6.2z" fill="#231F20"/><path d="M97.3 73.5V2c0-.7-.6-1.3-1.3-1.3H33.1c-.7 0-1.3.6-1.3 1.3v71.5h65.5z" fill="#fff"/><path d="M97.3 2v6.4H49.7l-1.3-3.8H38.1l-1.3 3.8h-5.1V2c0-.7.6-1.3 1.3-1.3h63c.7 0 1.3.6 1.3 1.3z" fill="#54C0EB"/><path d="M62.4 8.4H48.2l1.4-3.8H61z" fill="#CED5E0"/><circle cx="93.8" cy="4.8" r="1.9" fill="#FF7058"/><circle cx="88.5" cy="4.8" r="1.9" fill="#FFD05B"/><g fill="#E6E9EE"><circle cx="83.3" cy="4.8" r="1.9"/><path d="M74.2 91.3l-2.1-6H57l-2.1 6z"/></g><g fill="#231F20"><path d="M91.8 50h-5.3v-5.3h5.3V50zM88 48.5h2.3v-2.3H88v2.3z"/><path d="M88.3 33.7h1.5v11.8h-1.5z"/><path d="M89.1 34.4c-1.2 0-2.3-1-2.3-2.3 0-1.2 1-2.3 2.3-2.3 1.2 0 2.3 1 2.3 2.3-.1 1.3-1.1 2.3-2.3 2.3zm0-3c-.4 0-.8.3-.8.8 0 .4.3.8.8.8.4 0 .8-.3.8-.8-.1-.5-.4-.8-.8-.8zm-.8 17.8h1.5V61h-1.5z"/><path d="M89.1 64.8c-1.2 0-2.3-1-2.3-2.3 0-1.2 1-2.3 2.3-2.3 1.2 0 2.3 1 2.3 2.3-.1 1.3-1.1 2.3-2.3 2.3zm0-3c-.4 0-.8.3-.8.8s.3.8.8.8c.4 0 .8-.3.8-.8s-.4-.8-.8-.8z"/></g><path d="M72.5 61.5a13.61 13.61 0 0 1-3.6-.5c3.4-3.5 5.5-8.3 5.5-13.6s-2.1-10.1-5.5-13.6c1.2-.3 2.4-.5 3.6-.5 7.8 0 14.1 6.3 14.1 14.1 0 7.7-6.3 14.1-14.1 14.1z" fill="#FFD05B"/><path d="M54.8 61.5c-7.8 0-14.1-6.3-14.1-14.1S47 33.3 54.8 33.3a13.61 13.61 0 0 1 3.6.5c-3.4 3.5-5.5 8.3-5.5 13.6S55 57.5 58.4 61c-1.2.3-2.4.5-3.6.5z" fill="#84DBFF"/><path d="M58.4 47.4c0 4.4 2 8.4 5.2 10.9 3.2-2.6 5.2-6.5 5.2-10.9s-2-8.4-5.2-10.9a13.96 13.96 0 0 0-5.2 10.9z" fill="#FF7058"/><g fill="#231F20"><path d="M72.5 64.8c-.7 0-1.3 0-2-.1l.2-1.5c.6.1 1.2.1 1.8.1v1.5zm1.7-.1l-.1-1.5 1.8-.3.3 1.5c-.7.2-1.3.3-2 .3zm-5.6-.3c-.6-.1-1.3-.3-1.9-.5l.5-1.4c.6.2 1.1.4 1.7.5l-.3 1.4zm9.5-.5l-.5-1.4a12.2 12.2 0 0 0 1.7-.7l.6 1.4c-.6.3-1.2.5-1.8.7zm-13.2-.8c-.6-.3-1.2-.6-1.7-1l.8-1.3 1.6.9-.7 1.4zm16.7-.8l-.8-1.3 1.5-1 .9 1.2c-.5.3-1 .7-1.6 1.1zm-20-1.3l-1.5-1.3 1.1-1.1 1.3 1.2-.9 1.2zm23.1-1.1l-1-1.1 1.2-1.3 1.2 1c-.5.4-.9.9-1.4 1.4zm-25.8-1.7c-.4-.5-.8-1-1.1-1.6l1.3-.8 1 1.5-1.2.9zm28.3-1.4l-1.3-.8.9-1.6 1.3.7c-.2.6-.6 1.2-.9 1.7zm-30.4-1.9c-.3-.6-.5-1.2-.7-1.8l1.4-.5a12.2 12.2 0 0 0 .7 1.7l-1.4.6zm32.1-1.6l-1.4-.5c.2-.6.4-1.1.5-1.7l1.5.3c-.2.7-.3 1.3-.6 1.9zm-33.4-2.1c-.1-.6-.3-1.3-.3-1.9l1.5-.2.3 1.8-1.5.3zM89.1 50h-1.7v-1.5h1.7c.2 0 .4.1.6.3.1.2.2.4.2.6v.2l-.7-.1v.5zM88 47.5h-1.5v-1.9H88v1.9zm-31.4-.2h-1.5c0-.7 0-1.3.1-2l1.5.2c-.1.6-.1 1.2-.1 1.8zm32.5-1.1H89v-.7l-.6.1c-.1-.5-.1-1.1-.3-1.6l1.5-.3.3 1.8c0 .2 0 .4-.2.6-.2 0-.4.1-.6.1zM57 43.8l-1.5-.3c.1-.6.3-1.3.5-1.9l1.4.5-.4 1.7zm30.6-1.6a12.2 12.2 0 0 0-.7-1.7l1.4-.6c.3.6.5 1.2.7 1.8l-1.4.5zm-29.4-1.8l-1.3-.7c.3-.6.6-1.2 1-1.7l1.3.8c-.5.5-.8 1-1 1.6zM86.1 39l-1-1.5 1.2-.9a15.26 15.26 0 0 1 1.1 1.6l-1.3.8zm-26-1.6l-1.2-.9 1.3-1.5 1.1 1.1c-.4.3-.8.8-1.2 1.3zm23.8-1.2L82.6 35l.9-1.2 1.5 1.3-1.1 1.1zm-21.3-1.4l-.9-1.2a15.26 15.26 0 0 1 1.6-1.1l.8 1.3-1.5 1zm18.5-.9l-1.6-.9.7-1.3c.6.3 1.2.6 1.7 1l-.8 1.2zm-15.4-1l-.7-1.3c.6-.3 1.2-.5 1.8-.7l.5 1.4-1.6.6zm12.2-.6c-.6-.2-1.1-.4-1.7-.5l.3-1.5c.6.1 1.3.3 1.9.6l-.5 1.4zm-8.8-.5l-.3-1.5 1.9-.3.2 1.5c-.7.1-1.3.1-1.8.3zm5.3-.3c-.6-.1-1.2-.1-1.8-.1v-1.5c.7 0 1.3 0 2 .1l-.2 1.5z"/><path d="M54.8 64.8c-9.6 0-17.5-7.8-17.5-17.5 0-9.6 7.8-17.5 17.5-17.5 9.6 0 17.5 7.8 17.5 17.5-.1 9.7-7.9 17.5-17.5 17.5zm0-33.4c-8.8 0-16 7.2-16 16s7.2 16 16 16 16-7.2 16-16-7.2-16-16-16z"/></g><path d="M111.2 128.7c-4.9 0-8.9-4-8.9-8.9v-10.5c0-4.9 4-8.9 8.9-8.9s8.9 4 8.9 8.9v10.5c0 5-4 8.9-8.9 8.9z" fill="#E6E9EE"/><path d="M111.2 129.5c-5.3 0-9.6-4.3-9.6-9.6v-10.5c0-5.3 4.3-9.6 9.6-9.6s9.6 4.3 9.6 9.6v10.5c0 5.3-4.3 9.6-9.6 9.6zm0-28.2c-4.5 0-8.1 3.6-8.1 8.1v10.5c0 4.5 3.6 8.1 8.1 8.1s8.1-3.6 8.1-8.1v-10.5c0-4.5-3.6-8.1-8.1-8.1z" fill="#231F20"/><path d="M86.2 128.7h-63c-.9 0-1.7-.8-1.7-1.7v-21.5c0-.9.8-1.7 1.7-1.7h63c.9 0 1.7.8 1.7 1.7V127c0 1-.8 1.7-1.7 1.7z" fill="#E6E9EE"/><g fill="#CED5E0"><path d="M24.9 106.4h5v3.6h-5zm7.8 0h5v3.6h-5zm7.8 0h5v3.6h-5zm7.8 0h5v3.6h-5zm7.8 0h5v3.6h-5zm7.8 0h5v3.6h-5zm7.8 0h5v3.6h-5zm7.8 0h5v3.6h-5zm-54.6 5.4h5v3.6h-5zm7.8 0h5v3.6h-5zm7.8 0h5v3.6h-5zm7.8 0h5v3.6h-5zm7.8 0h5v3.6h-5zm7.8 0h5v3.6h-5zm7.8 0h5v3.6h-5zm7.8 0h5v3.6h-5zm-54.6 5.4h5v3.6h-5zm7.8 0h5v3.6h-5zm7.8 0h5v3.6h-5zm7.8 0h5v3.6h-5zm7.8 0h5v3.6h-5zm7.8 0h5v3.6h-5zm7.8 0h5v3.6h-5zm7.8 0h5v3.6h-5zm-54.6 5.4h5v3.6h-5zm7.8 0h28.4v3.6H32.7zm31.2 0h5v3.6h-5zm7.8 0h5v3.6h-5zm7.8 0h5v3.6h-5z"/><circle cx="111.2" cy="107.4" r="2.6"/></g><path d="M113 73.5v9.9a1.79 1.79 0 0 1-1.8 1.8H18a1.79 1.79 0 0 1-1.8-1.8v-9.9H113zM97.3 8.4v8.4H31.8V8.4h5.1l1.2-3.8h10.4l1.2 3.8z" fill="#E6E9EE"/><path d="M37.8 10.4h51.7V15H37.8z" fill="#fff"/><g fill="#324A5E"><path d="M39.3 11.6h.3v.9c0-.1.1-.1.2-.2.1 0 .2-.1.3-.1.2 0 .5.1.5.6v.9h-.3v-.8c0-.2-.1-.4-.3-.4s-.3.1-.4.3v1h-.3v-2.2z"/><use xlink:href="#B"/><use xlink:href="#B" x="1"/><path d="M43 12.7v-.5h.2v.3a.55.55 0 0 1 .5-.3c.4 0 .6.3.6.7 0 .5-.3.8-.7.8-.2 0-.4-.1-.5-.2v.8H43v-1.6zm.3.4v.1c0 .2.2.3.4.3.3 0 .4-.2.4-.6 0-.3-.2-.5-.4-.5s-.4.1-.4.3v.4zm1.4-.6c0-.1.1-.2.2-.2s.2.1.2.2-.1.2-.2.2c-.2 0-.2-.1-.2-.2zm0 1.1c0-.1.1-.2.2-.2s.2.1.2.2-.1.2-.2.2c-.2 0-.2-.1-.2-.2zm.4.3l.8-2.2h.2l-.9 2.2h-.1zm1.1 0l.8-2.2h.2l-.9 2.2h-.1zm2-1.6l.2.7c0 .2.1.3.1.5 0-.1.1-.3.1-.5l.2-.8h.2l.2.7a.9.9 0 0 1 .1.5c0-.1.1-.3.1-.5l.2-.7h.4l-.5 1.5h-.2l-.2-.7c-.1-.2-.1-.3-.1-.5 0 .2-.1.3-.1.5l-.2.7h-.2l-.4-1.5h.1zm2.3 0l.2.7c0 .2.1.3.1.5 0-.1.1-.3.1-.5l.2-.8h.2l.2.7a.9.9 0 0 1 .1.5c0-.1.1-.3.1-.5l.2-.7h.3l-.5 1.5h-.2l-.1-.7c-.1-.2-.1-.3-.1-.5 0 .2-.1.3-.1.5l-.2.7h-.2l-.4-1.5h.1zm2.2 0l.2.7c0 .2.1.3.1.5 0-.1.1-.3.1-.5l.2-.8h.2l.2.7a.9.9 0 0 1 .1.5c0-.1.1-.3.1-.5l.2-.7h.3l-.5 1.5h-.2l-.1-.7c-.1-.2-.1-.3-.1-.5 0 .2-.1.3-.1.5l-.2.7H53l-.4-1.5h.1zm2 1.3c0-.1.1-.2.2-.2s.2.1.2.2-.1.2-.2.2c-.2 0-.2-.1-.2-.2z"/></g><path d="M86.2 103.1H73.6v-1.2l-1.5.2v.9h-49c-1.4 0-2.5 1.1-2.5 2.5V127c0 1.4 1.1 2.5 2.5 2.5h63c1.4 0 2.5-1.1 2.5-2.5v-21.5c0-1.3-1.1-2.4-2.4-2.4zm.9 23.9c0 .5-.4 1-1 1h-63c-.5 0-1-.4-1-1v-21.5c0-.5.4-1 1-1h63c.5 0 1 .4 1 1V127zM40.4 98.6h1.9v1.5h-1.9zm-3.7 0h1.9v1.5h-1.9zm-1.2-6.5h1.9v1.5h-1.9zm3.7 0h1.9v1.5h-1.9zm3.6-.1l.4 1.5c.8-.2 1.4-.6 2-1.2l-1.1-1c-.4.4-.8.6-1.3.7zm-9.9 6.6h1.9v1.5h-1.9zm-5.9 1l.7-1.3a2.41 2.41 0 0 1-1-1l-1.3.7c.4.6.9 1.2 1.6 1.6zm-2-3.9l1.5.2c0-.5.2-.9.5-1.3l-1.2-1c-.4.6-.7 1.3-.8 2.1zm6.7-3.6h1.9v1.5h-1.9zm12.5 6.5h1.9v1.5h-1.9zm-15 0h1.9v1.5h-1.9zm-1.4-6.3l.4 1.4c.2-.1.5-.1.7-.1h.9v-1.5h-.9c-.4 0-.8.1-1.1.2zm38.9 6.3h1.9v1.5h-1.9zm-3.7 0h1.9v1.5H63zm-16.8-9v-1.3h-1.5V90l1.5.3v-.7zm24.5 9.1l-.4 1.4c.5.1.9.4 1.2.8l1.1-1c-.5-.6-1.2-1-1.9-1.2zM48 98.6h1.9v1.5H48zm11.2 0h1.9v1.5h-1.9zm-7.5 0h1.9v1.5h-1.9zm3.8 0h1.9v1.5h-1.9zm56.7-45.3h1.5v5.5h-1.5zm-.5-33.7H98V2c0-1.1-.9-2-2-2H33.1c-1.1 0-2 .9-2 2v17.5H17.4c-1.1 0-2 .9-2 2v61.8a2.65 2.65 0 0 0 2.6 2.6h26.7v.4h1.5V86H56l-1.6 4.6h-3.7v1.5h27.8v-1.5h-3.7L73.1 86h38a2.65 2.65 0 0 0 2.6-2.6v-20h-1.5v9.4H98V21.1h13.7a.47.47 0 0 1 .5.5v26.5h1.5V21.6c0-1.1-.9-2-2-2zm-94.8 2a.47.47 0 0 1 .5-.5h13.7v51.7H16.9V21.6zm39.1 69l1.6-4.6h14l1.6 4.6H56zm56.2-7.2a1.11 1.11 0 0 1-1.1 1.1H18a1.11 1.11 0 0 1-1.1-1.1v-9.1h95.4v9.1zM32.6 72.8V2a.47.47 0 0 1 .5-.5H96a.47.47 0 0 1 .5.5v70.8H32.6z" fill="#231F20"/><circle cx="64.5" cy="79.4" r="2.5" fill="#CED5E0"/><circle cx="119.8" cy="6.7" r="2.4" fill="#84DBFF"/><circle cx="16.9" cy="94.4" r="3.1" fill="#FFD05B"/><path d="M43.1 23.5l-3 6.4 6.7 11.8 6.8-11.8-3-6.4z" fill="#fff"/><path d="M46.8 42.5c-.3 0-.5-.1-.7-.4l-6.7-11.8c-.1-.2-.1-.5 0-.7l3-6.4c.1-.3.4-.4.7-.4h7.4c.3 0 .6.2.7.4l3 6.4c.1.2.1.5 0 .7l-6.7 11.8c-.1.2-.4.4-.7.4zM41 29.9l5.9 10.3 5.9-10.3-2.6-5.6h-6.5L41 29.9z" fill="#231F20"/><circle cx="46.9" cy="30.6" r="1.6" fill="#fff"/><g fill="#231F20"><path d="M46.9 33a2.26 2.26 0 0 1-2.3-2.3 2.26 2.26 0 0 1 2.3-2.3 2.26 2.26 0 0 1 2.3 2.3c0 1.2-1.1 2.3-2.3 2.3zm0-3.2c-.5 0-.8.4-.8.8 0 .5.4.8.8.8.5 0 .8-.4.8-.8s-.4-.8-.8-.8z"/><path d="M46.1 32.2h1.5v9.5h-1.5zm6-7.9H41.6c-.4 0-.8-.3-.8-.8v-2.8h1.5v2.1h9v-2.1h1.5v2.8c.1.5-.2.8-.7.8z"/></g><defs ><path id="B" d="M41.3 11.8v.4h.4v.2h-.4v.8c0 .2.1.3.2.3h.2v.2h-.2c-.1 0-.2 0-.3-.1s-.1-.2-.1-.4v-.8h-.2v-.2h.2v-.4h.2z"/></defs></svg>