<svg xmlns="http://www.w3.org/2000/svg" xmlns:xlink="http://www.w3.org/1999/xlink" viewBox="0 0 129.5 129.5"><style><![CDATA[.M{fill:#231F20}.N{fill:#fff}]]></style><circle cx="72.6" cy="114.7" r="2.1" fill="#84DBFF"/><circle cx="117.1" cy="65" r="2.1" fill="#FFD05B"/><circle cx="28.3" cy="14.7" r="2.1" fill="#E6E9EE"/><g class="M"><path d="M18.1 8.7c-.2 0-.4-.1-.5-.2-.3-.3-.3-.8 0-1.1l1.3-1.3c.3-.3.8-.3 1.1 0s.3.8 0 1.1l-1.3 1.3c-.2.2-.4.2-.6.2z"/><use xlink:href="#B"/><path d="M19.4 12.8c-.2 0-.4-.1-.5-.2l-1.3-1.3c-.3-.3-.3-.8 0-1.1s.8-.3 1.1 0l1.3 1.3c.3.3.3.8 0 1.1-.3.1-.5.2-.6.2zm-4.1-4.1c-.2 0-.4-.1-.5-.2l-1.3-1.3c-.3-.3-.3-.8 0-1.1s.8-.3 1.1 0l1.3 1.3c.3.3.3.8 0 1.1-.2.2-.4.2-.6.2z"/><use xlink:href="#B" x="90.1" y="40"/><use xlink:href="#B" x="86" y="44"/><path d="M105.4 56.8c-.2 0-.4-.1-.5-.2l-1.3-1.3c-.3-.3-.3-.8 0-1.1s.8-.3 1.1 0l1.3 1.3c.3.3.3.8 0 1.1-.3.1-.4.2-.6.2z"/><use xlink:href="#C"/><use xlink:href="#B" x="40.4" y="103.9"/><use xlink:href="#B" x="36.4" y="107.9"/><use xlink:href="#C" x="-45.6" y="67.9"/><use xlink:href="#C" x="-49.6" y="63.9"/></g><path d="M128.9 21.3v-4.4l-3.3-.3c-.4-2.2-1.3-4.3-2.5-6.1l2.1-2.6-3.1-3.1-2.6 2.2c-1.8-1.3-3.9-2.1-6.1-2.5l-.3-3.3h-4.4l-.3 3.3c-2.2.4-4.3 1.3-6.1 2.5l-2.6-2.1L96.6 8l2.1 2.6c-1.3 1.8-2.1 3.9-2.5 6.1l-3.2.2v4.4l3.3.3c.4 2.2 1.3 4.3 2.5 6.1l-2.1 2.6 3.1 3.1 2.6-2.1c1.8 1.3 3.9 2.1 6.1 2.5l.3 3.3h4.4l.3-3.3c2.2-.4 4.3-1.3 6.1-2.5l2.6 2.1 3.1-3.1-2.1-2.6c1.3-1.8 2.1-3.9 2.5-6.1l3.2-.3z" class="N"/><path d="M113.1 37.8h-4.4a.68.68 0 0 1-.7-.7l-.3-2.8c-1.9-.4-3.7-1.1-5.4-2.2l-2.1 1.8a.91.91 0 0 1-1 0l-3.1-3.1c-.3-.3-.3-.7 0-1l1.8-2.1c-1.1-1.6-1.8-3.4-2.2-5.4l-2.8-.3c-.4 0-.7-.4-.7-.7v-4.4a.68.68 0 0 1 .7-.7l2.8-.3c.4-1.9 1.1-3.7 2.2-5.4l-1.8-2.1a.91.91 0 0 1 0-1l3.1-3.1c.3-.3.7-.3 1 0l2.1 1.8c1.6-1.1 3.4-1.8 5.4-2.2l.3-2.8c0-.4.4-.7.7-.7h4.4a.68.68 0 0 1 .7.7l.3 2.8c1.9.4 3.7 1.1 5.4 2.2l2.1-1.8a.91.91 0 0 1 1 0l3.1 3.1c.3.3.3.7 0 1l-1.8 2.1c1.1 1.6 1.8 3.4 2.2 5.4l2.8.3c.4 0 .7.4.7.7v4.4a.68.68 0 0 1-.7.7l-2.8.3c-.4 1.9-1.1 3.7-2.2 5.4l1.8 2.1a.91.91 0 0 1 0 1l-3.1 3.1c-.3.3-.7.3-1 0l-2.1-1.8c-1.6 1.1-3.4 1.8-5.4 2.2l-.3 2.8a.68.68 0 0 1-.7.7zm-3.7-1.5h3l.2-2.7c0-.3.3-.6.6-.7 2.1-.4 4.1-1.2 5.8-2.4.3-.2.7-.2.9 0l2.1 1.7 2.1-2.1-1.7-2.1c-.2-.3-.2-.6 0-.9 1.2-1.7 2-3.7 2.4-5.8.1-.3.3-.6.7-.6l2.7-.2v-3l-2.7-.2c-.3 0-.6-.3-.7-.6-.4-2.1-1.2-4-2.4-5.8-.2-.3-.2-.7 0-.9l1.7-2.1-2.1-2-2 1.7c-.3.2-.6.2-.9 0-1.7-1.2-3.7-2-5.8-2.4-.3-.1-.6-.3-.6-.7l-.2-2.7h-3l-.2 2.7c0 .3-.3.6-.6.7-2.1.4-4.1 1.2-5.8 2.4-.3.2-.7.2-.9 0l-2.1-1.7L97.7 8l1.7 2.1c.2.3.2.6 0 .9-1.2 1.7-2 3.7-2.4 5.8-.1.3-.3.6-.7.6l-2.7.2v3l2.7.2c.3 0 .6.3.7.6.4 2.1 1.2 4.1 2.4 5.8.2.3.2.7 0 .9l-1.7 2.1 2.1 2.1 2.1-1.7c.3-.2.6-.2.9 0 1.7 1.2 3.7 2 5.8 2.4.3.1.6.3.6.7l.2 2.6zm1.2-5.2c-.4 0-.7 0-1.1-.1l.2-1.5c.3 0 .6.1.9.1v1.5zm2.1-.1l-.2-1.5c.3 0 .6-.1.9-.2l.4 1.5c-.4.1-.7.1-1.1.2zm-5.3-.4c-.3-.1-.7-.2-1-.4l.6-1.4.9.3-.5 1.5zm8.4-.5l-.6-1.4c.3-.1.6-.3.8-.4l.7 1.3c-.3.2-.6.3-.9.5zm-11.3-.8l-.9-.6.9-1.2a2.18 2.18 0 0 0 .8.5l-.8 1.3zm14-.9l-.9-1.2c.2-.2.5-.4.7-.6l1 1.1c-.3.3-.5.5-.8.7zm-16.4-1.2c-.2-.3-.5-.5-.7-.8l1.2-.9c.2.2.4.5.6.7l-1.1 1zm18.6-1.1l-1.2-.9c.2-.3.4-.5.5-.8l1.3.8-.6.9zm-20.4-1.5c-.2-.3-.3-.6-.4-1l1.4-.6c.1.3.2.6.4.8l-1.4.8zm21.9-1.3l-1.4-.5.3-.9 1.4.4-.3 1zm-23-1.7c-.1-.3-.1-.7-.2-1.1l1.5-.2c0 .3.1.6.2.9l-1.5.4zm23.7-1.4l-1.5-.1v-.9h1.5v1zm-22.5-1.7l-1.5-.1c0-.4.1-.7.1-1.1l1.5.2c0 .4 0 .7-.1 1zm21-.1c0-.3-.1-.6-.1-.9l1.5-.2c.1.3.1.7.1 1.1h-1.5zM101 15.8l-1.4-.5c.1-.3.2-.7.4-1l1.4.6c-.2.3-.3.6-.4.9zm19.9-.1l-.3-.9 1.4-.6c.1.3.3.7.4 1l-1.5.5zm-18.7-2.4l-1.2-.8.6-.9 1.2.9c-.3.3-.4.5-.6.8zm17.4-.1c-.2-.3-.4-.5-.6-.7l1.2-1 .6.9-1.2.8zm-15.6-2l-1-1.1c.3-.2.5-.5.8-.7l.9 1.2c-.2.2-.4.4-.7.6zm13.7-.1c-.2-.2-.5-.4-.7-.6l.9-1.2c.3.2.6.4.8.7l-1 1.1zm-11.3-1.5l-.7-1.4c.3-.2.6-.3 1-.4l.5 1.4c-.3.2-.6.3-.8.4zm9 0c-.3-.1-.6-.3-.9-.4l.5-1.4c.3.1.7.3 1 .4l-.6 1.4zm-6.4-.8l-.3-1.5c.3-.1.7-.1 1.1-.1l.1 1.5c-.3 0-.6 0-.9.1zm3.7 0c-.3-.1-.6-.1-.9-.1l.1-1.5c.4 0 .7.1 1.1.1l-.3 1.5z" class="M"/><circle cx="110.9" cy="19.1" r="8.9" fill="#FF7058"/><circle cx="110.9" cy="19.1" r="4.5" class="N"/><path d="M110.9 24.3c-2.9 0-5.2-2.3-5.2-5.2s2.3-5.2 5.2-5.2 5.2 2.3 5.2 5.2-2.3 5.2-5.2 5.2zm0-8.9a3.76 3.76 0 0 0-3.7 3.7 3.76 3.76 0 0 0 3.7 3.7 3.76 3.76 0 0 0 3.7-3.7c0-2-1.6-3.7-3.7-3.7z" class="M"/><g class="N"><path d="M27.1 59.7L21 67.8.9 52.7 7 44.6l.3 1.8 18 13.5z"/><path d="M11 37.2l-4.2 5.7.5 3.5 18 13.5 3.5-.5 4.3-5.6z"/><path d="M20.1 60.2l-2.7-2 2.8-4.8 3.7 2.7zm-8.9-6.7l-2.7-2 2.8-4.8 3.7 2.7z"/></g><path d="M96.1 76.8v12.7H73l.4-.2V86l-.8.1s-.5.1-1.4.1c-1.9 0-6.6-.3-8.1-3.2 0-.1-.2-.6-.3-1.2l3.2.7L77.6 65c.9-1.4 1.2-3.1.8-4.7s-1.5-2.9-3-3.7L58.3 48l2.4-7.1 5 5.3 16-11.4-.2-.4 3-.9c1.1-.3 1.9-1.1 2.4-2.2.4-1 .4-2.2-.2-3.2-.7-1.2-1.9-2-3.4-2-.9 0-1.8.3-2.4.9l-2.3 2-.3-.6-11.6 6.4-2.9-5.6.2-1.1v-.3c-.7-3.2-2.2-5.7-3.8-7.5l1.6-2.4c.3.1.7.1 1.2.1 2.4 0 3.8-1.4 3.8-3.7.1-2-.3-4.6-1-6.9-.9-3-3.3-5.2-6.3-5.8-3.9-.8-7 .8-8.5 4.3 0 0-2.4 4.1 1 8.1 0 .3.1.8 0 1.4-.1 0-.3.1-.4.1-.7.5-2 .6-3.5.2-.4-.2-.8-.3-1.3-.3-.7 0-1.4.3-1.9.8L34 26.2 22.2 39.5l-1.7-1.3-2.5 3.3-7.2-5.4L6 42.7l.2 1.7-6.4 8.5 21.3 16 6.4-8.5 1.7-.2 4.9-6.5-7.2-5.4 2.5-3.3-1.2-1 12.2-10.4c-.1 7.4-5.4 25.3-5.5 25.5s0 .4.1.6l-2.5 13.7-16.3 25.7c-3.3.3-6.7 2.8-6.8 3l-.4.3 1.2 5.2 1.6.5c-.5 3.2.5 5.6 1.3 6.9H.1v13.5h1.5v-12h12.8l8.1.4v-.4h11v-12.7h32V91h32V78.3h31.3v-1.5H96.1zM71.2 87.6h.7v.8c-1.2.5-2.7.8-4.4.8-4 0-7.8-1.5-7.8-1.5l-.7-.3-.3.7c-.1.3-.2.6-.4.8-.9-.1-2.9-.5-4.4-.7-.2-3.6 2.3-6.4 3.7-7.6l3.7.9a21.93 21.93 0 0 0 .5 2.1v.1c1.7 3.4 6.6 3.9 9.4 3.9zM74.8 58c1.1.5 1.9 1.5 2.2 2.7s.1 2.4-.6 3.4L65.2 80.8 57.9 79l9.7-15.8-15-3.1c2-3.5 3.7-7.2 5.2-10.7l17 8.6zm7-29.9c.4-.4.9-.5 1.5-.5.9 0 1.6.5 2 1.2.3.6.4 1.3.1 1.9s-.8 1.1-1.4 1.3l-3.2 1-1.5-2.8 2.5-2.1zM66 36.8l11.6-6.4v.1l2.1 3.9-13.8 9.9-4.7-5c.9-3.2 1.5-5.9 2-7.8l2.8 5.3zM52.1 6.3c1.3-3 3.7-4.1 6.9-3.5 2.5.5 4.5 2.3 5.2 4.8.6 2.2 1 4.6.9 6.5 0 1-.3 2.3-2.3 2.3-.7 0-1.3-.2-1.3-.2L61 16l-2 3c-2.1-2-4.4-3.1-5.7-3.6.2-1.1 0-2.1 0-2.3v-.2l-.3-.1c-2.8-3.1-1-6.3-.9-6.5zM20.9 66.8l-19-14.2 4.6-6.1v.3l2.7 2-1.7 2.9 3.7 2.8 2.3-2.5 4.6 3.4-1.7 2.9 3.7 2.8 2.3-2.5 2.7 2h.3l-4.5 6.2zM9.5 51.3l2.1-3.5 2.3 1.7-2.8 3-1.6-1.2zm8.9 6.7l2.1-3.5 2.3 1.7-2.8 3-1.6-1.2zM32 53.9l-3.6 4.8-2.9.4-2-1.5L25 56l-5-3.7-1.1 1.9-4.3-3.2 1.5-1.6-5-3.7-1.1 1.8L8 46l-.4-2.9 3.6-4.8L32 53.9zm-6.3-6.6l-6.4-4.8 1.6-2.1 6.4 4.8-1.6 2.1zm1.2-4.3l-2.1-1.6-1.4-1.1L35 27.1 45.7 17c.5-.5 1.4-.4 1.9.1 1.3 1.7 2.4 4.4.3 8L26.9 43zm14.9-10.7c.2-.2 7.1-6.1 7.1-6.1l.2-.2c2.2-3.8 1.4-6.9.3-8.8 1 0 1.9-.1 2.6-.6 1.6.6 8.6 3.5 10.4 11.2-.4 1.8-3.5 19.8-12.4 33.7l-13.4-2.8c1.1-3.8 5.7-20.2 5.2-26.4zM34 74l2.5-13.7 10.7 2.2-10.5 19.8-13.5 20.3-5.4-3.2L34 74zm-20.7 33.7l.1-.6-2-.7-.8-3.4c1-.7 3.8-2.4 6.1-2.4l3.5 2.1c-.2.7-.2 1.5.2 2-.9 1.9-3.6 7.7-2 10.2h-3.6c-.5-.7-2.3-3.2-1.5-7.2zm18.8-5.5v12.7h-9.5v-.8l-3-.3c-.7-1.8 1.1-6.3 2.4-8.9l.4-.7-.7-.3c-.1 0-.1-.2-.1-.4l2 1.2L38 83.1l10.7-20.3 1.5.3h.2c.3 0 .5-.1.6-.3.3-.4.5-.8.8-1.3l13.5 2.8L55.5 80h.2c-1.7 1.7-3.9 4.9-3.3 8.8l.1.5.5.1 5.6.9c.4 0 .7-.2 1.1-1.1.9.3 2.5.8 4.4 1.1v11.8h-32z" class="M"/><path d="M84.1 65.5h8.7" class="N"/><path d="M92.8 66.3h-8.7c-.4 0-.8-.3-.8-.8s.3-.8.8-.8h8.7c.4 0 .8.3.8.8s-.3.8-.8.8z" class="M"/><path d="M92 68.7h4.3" class="N"/><path d="M96.3 69.5H92c-.4 0-.8-.3-.8-.8s.4-.7.8-.7h4.3c.4 0 .8.3.8.8s-.4.7-.8.7z" class="M"/><path d="M96.8 65.5h4" class="N"/><path d="M100.8 66.3h-4.1c-.4 0-.8-.3-.8-.8s.3-.8.8-.8h4.1c.4 0 .8.3.8.8s-.3.8-.8.8z" class="M"/><path d="M88.1 68.7h.8" class="N"/><path d="M88.9 69.5h-.8c-.4 0-.8-.3-.8-.8s.3-.8.8-.8h.8c.4 0 .8.3.8.8s-.4.8-.8.8z" class="M"/><circle cx="102.7" cy="113.2" r="15.2" class="N"/><circle cx="102.7" cy="113.2" r="4.1" fill="#FF7058"/><path d="M129.6 92.6c-.1-.3-.3-.5-.6-.5l-4.6-.6-.6-4.6c0-.3-.2-.5-.5-.6s-.6 0-.8.2l-5.9 5.9c-.2.2-.2.4-.2.6l.7 4.8-3.7 3.7a15.75 15.75 0 0 0-10.7-4.2c-8.8 0-15.9 7.2-15.9 15.9 0 8.8 7.2 15.9 15.9 15.9 8.8 0 15.9-7.2 15.9-15.9a15.75 15.75 0 0 0-4.2-10.7l3.7-3.7 4.8.7h.1c.2 0 .4-.1.5-.2l5.9-5.9c.2-.2.3-.5.2-.8zm-7.1-4l.5 3.3-4.6 4.6-.5-3.3 4.6-4.6zm-5.4 24.6c0 8-6.5 14.4-14.4 14.4-8 0-14.4-6.5-14.4-14.4 0-8 6.5-14.4 14.4-14.4 3.7 0 7.1 1.4 9.7 3.7l-1.8 1.8c-2.1-1.9-4.9-3-7.9-3-6.6 0-11.9 5.3-11.9 11.9s5.3 11.9 11.9 11.9 11.9-5.3 11.9-11.9c0-3-1.1-5.8-3-7.9l1.8-1.8c2.3 2.6 3.7 6 3.7 9.7zm-14.9.5c.1.1.3.2.5.2s.4-.1.5-.2l4.6-4.6c.9 1.1 1.4 2.5 1.4 4a6.49 6.49 0 1 1-13 0 6.49 6.49 0 0 1 6.5-6.5c1.5 0 2.9.5 4 1.4l-4.6 4.6c-.2.3-.2.8.1 1.1zm5.6-6.7c-1.4-1.2-3.2-1.8-5.1-1.8-4.4 0-8 3.6-8 8s3.6 8 8 8 8-3.6 8-8c0-1.9-.6-3.7-1.8-5.1l1.7-1.7c1.6 1.8 2.5 4.2 2.5 6.8 0 5.7-4.7 10.4-10.4 10.4s-10.4-4.7-10.4-10.4 4.7-10.4 10.4-10.4c2.6 0 5 1 6.8 2.5l-1.7 1.7zm14.9-9.1l-3.3-.5 4.6-4.6 3.3.5-4.6 4.6z" class="M"/><defs ><path id="B" d="M14 12.8c-.2 0-.4-.1-.5-.2-.3-.3-.3-.8 0-1.1l1.3-1.3c.3-.3.8-.3 1.1 0s.3.8 0 1.1l-1.3 1.3c-.2.1-.4.2-.6.2z"/><path id="C" d="M101.3 52.8c-.2 0-.4-.1-.5-.2l-1.3-1.3c-.3-.3-.3-.8 0-1.1s.8-.3 1.1 0l1.3 1.3c.3.3.3.8 0 1.1-.2.1-.4.2-.6.2z"/></defs></svg>