<?xml version="1.0" encoding="utf-8"?>
<!-- Generator: Adobe Illustrator 18.0.0, SVG Export Plug-In . SVG Version: 6.00 Build 0)  -->
<!DOCTYPE svg PUBLIC "-//W3C//DTD SVG 1.1//EN" "http://www.w3.org/Graphics/SVG/1.1/DTD/svg11.dtd">
<svg version="1.1" id="Layer_1" xmlns="http://www.w3.org/2000/svg" xmlns:xlink="http://www.w3.org/1999/xlink" x="0px" y="0px"
	 viewBox="0 0 129.5 129.5" enable-background="new 0 0 129.5 129.5" xml:space="preserve">
<g>
	<g>
		<path fill="#E6E9EE" d="M57.5,50.4l-22.3,0c-1.7,0-3.1,1.4-3.1,3.1s1.4,3.1,3.1,3.1l19.4,0v0c1.7,0.1,3,1.4,3,3.1V50.4z"/>
		<g>
			<g>
				<path fill="#231F20" d="M122.3,18.5c-0.2,0-0.4-0.1-0.5-0.2c-0.3-0.3-0.3-0.8,0-1.1L123,16c0.3-0.3,0.8-0.3,1.1,0
					c0.3,0.3,0.3,0.8,0,1.1l-1.3,1.3C122.7,18.5,122.5,18.5,122.3,18.5z"/>
			</g>
			<g>
				<path fill="#231F20" d="M118.3,22.6c-0.2,0-0.4-0.1-0.5-0.2c-0.3-0.3-0.3-0.8,0-1.1L119,20c0.3-0.3,0.8-0.3,1.1,0
					c0.3,0.3,0.3,0.8,0,1.1l-1.3,1.3C118.6,22.5,118.4,22.6,118.3,22.6z"/>
			</g>
			<g>
				<path fill="#231F20" d="M123.6,22.6c-0.2,0-0.4-0.1-0.5-0.2l-1.3-1.3c-0.3-0.3-0.3-0.8,0-1.1c0.3-0.3,0.8-0.3,1.1,0l1.3,1.3
					c0.3,0.3,0.3,0.8,0,1.1C123.9,22.5,123.8,22.6,123.6,22.6z"/>
			</g>
			<g>
				<path fill="#231F20" d="M119.5,18.5c-0.2,0-0.4-0.1-0.5-0.2l-1.3-1.3c-0.3-0.3-0.3-0.8,0-1.1c0.3-0.3,0.8-0.3,1.1,0l1.3,1.3
					c0.3,0.3,0.3,0.8,0,1.1C119.9,18.5,119.7,18.5,119.5,18.5z"/>
			</g>
		</g>
		<g>
			<g>
				<path fill="#231F20" d="M8.5,6.1C8.3,6.1,8.1,6,7.9,5.9c-0.3-0.3-0.3-0.8,0-1.1l1.3-1.3c0.3-0.3,0.8-0.3,1.1,0
					c0.3,0.3,0.3,0.8,0,1.1L9,5.9C8.8,6,8.7,6.1,8.5,6.1z"/>
			</g>
			<g>
				<path fill="#231F20" d="M4.4,10.1c-0.2,0-0.4-0.1-0.5-0.2c-0.3-0.3-0.3-0.8,0-1.1l1.3-1.3c0.3-0.3,0.8-0.3,1.1,0
					c0.3,0.3,0.3,0.8,0,1.1L5,9.9C4.8,10.1,4.6,10.1,4.4,10.1z"/>
			</g>
			<g>
				<path fill="#231F20" d="M9.7,10.1c-0.2,0-0.4-0.1-0.5-0.2L7.9,8.6c-0.3-0.3-0.3-0.8,0-1.1c0.3-0.3,0.8-0.3,1.1,0l1.3,1.3
					c0.3,0.3,0.3,0.8,0,1.1C10.1,10.1,9.9,10.1,9.7,10.1z"/>
			</g>
			<g>
				<path fill="#231F20" d="M5.7,6.1C5.5,6.1,5.3,6,5.2,5.9L3.9,4.6c-0.3-0.3-0.3-0.8,0-1.1c0.3-0.3,0.8-0.3,1.1,0l1.3,1.3
					c0.3,0.3,0.3,0.8,0,1.1C6.1,6,5.9,6.1,5.7,6.1z"/>
			</g>
		</g>
		<g>
			<g>
				<path fill="#231F20" d="M19.4,118.1c-0.2,0-0.4-0.1-0.5-0.2c-0.3-0.3-0.3-0.8,0-1.1l1.3-1.3c0.3-0.3,0.8-0.3,1.1,0
					c0.3,0.3,0.3,0.8,0,1.1l-1.3,1.3C19.7,118,19.5,118.1,19.4,118.1z"/>
			</g>
			<g>
				<path fill="#231F20" d="M15.3,122.1c-0.2,0-0.4-0.1-0.5-0.2c-0.3-0.3-0.3-0.8,0-1.1l1.3-1.3c0.3-0.3,0.8-0.3,1.1,0
					c0.3,0.3,0.3,0.8,0,1.1l-1.3,1.3C15.7,122.1,15.5,122.1,15.3,122.1z"/>
			</g>
			<g>
				<path fill="#231F20" d="M20.6,122.1c-0.2,0-0.4-0.1-0.5-0.2l-1.3-1.3c-0.3-0.3-0.3-0.8,0-1.1c0.3-0.3,0.8-0.3,1.1,0l1.3,1.3
					c0.3,0.3,0.3,0.8,0,1.1C21,122.1,20.8,122.1,20.6,122.1z"/>
			</g>
			<g>
				<path fill="#231F20" d="M16.6,118.1c-0.2,0-0.4-0.1-0.5-0.2l-1.3-1.3c-0.3-0.3-0.3-0.8,0-1.1c0.3-0.3,0.8-0.3,1.1,0l1.3,1.3
					c0.3,0.3,0.3,0.8,0,1.1C17,118,16.8,118.1,16.6,118.1z"/>
			</g>
		</g>
		<rect x="57.2" y="85.4" fill="#FFFFFF" width="9.8" height="37"/>
		<g>
			<rect x="40.1" y="80.9" fill="#84DBFF" width="19.7" height="46.1"/>
		</g>
		<rect x="100.5" y="0.7" fill="#FFD05B" width="7.6" height="128"/>
		<path fill="#FFFFFF" d="M115.5,120.8h-6.4c-2.2,0-3.9-1.7-3.9-3.9l0,0c0-2.2,1.7-3.9,3.9-3.9h6.4c2.2,0,3.9,1.7,3.9,3.9l0,0
			C119.4,119.1,117.7,120.8,115.5,120.8z"/>
		<path fill="#FFFFFF" d="M119.2,113h-11.5c-2.2,0-3.9-1.7-3.9-3.9l0,0c0-2.2,1.7-3.9,3.9-3.9h11.5c2.2,0,3.9,1.7,3.9,3.9l0,0
			C123.1,111.3,121.3,113,119.2,113z"/>
		<path fill="#FFFFFF" d="M122.7,105.4h-15c-2.2,0-3.9-1.7-3.9-3.9l0,0c0-2.2,1.7-3.9,3.9-3.9h15c2.2,0,3.9,1.7,3.9,3.9l0,0
			C126.6,103.6,124.8,105.4,122.7,105.4z"/>
		<path fill="#FFFFFF" d="M120.7,97.6h-13.2c-2.1,0-3.8-1.7-3.8-3.8v-0.3c0-2.1,1.7-3.8,3.8-3.8h13.2c2.1,0,3.8,1.7,3.8,3.8v0.3
			C124.5,95.9,122.8,97.6,120.7,97.6z"/>
		<path fill="#FFFFFF" d="M87.1,101.5L87.1,101.5c5.4,0,9.8-4.4,9.8-9.8l0,0h11.7c5.2,0,9.4-4.2,9.4-9.4l0,0H83.2l-9.4,8.2H67"/>
		<path fill="#FFFFFF" d="M91.1,47.5c0-6.6-5.5-12-12.2-11.7C73,36.1,68.1,41,67.8,47c-0.1,3.4,1.1,6.4,3.3,8.7
			c1.8,1.8,2.8,4.2,2.8,6.7v3.9H85v-3.6c0-2.6,1.1-5.1,2.9-7.1C89.9,53.5,91.1,50.7,91.1,47.5z"/>
		<path fill="#E6E9EE" d="M86.7,66.2H72.3V72c0,1.3,1.1,2.4,2.4,2.4h9.5c1.3,0,2.4-1.1,2.4-2.4V66.2z"/>
		<circle fill="#FFFFFF" cx="77" cy="47.9" r="2.4"/>
		<circle fill="#FFFFFF" cx="81.9" cy="47.9" r="2.4"/>
		<path fill="#231F20" d="M127.3,101.5c0-2.1-1.5-3.9-3.4-4.5c0.8-0.8,1.3-2,1.3-3.2v-0.3c0-2.5-2-4.5-4.5-4.5h-4.6
			c1.6-1.8,2.6-4.1,2.6-6.7c0-0.4-0.3-0.8-0.8-0.8h-9V0.8c0-0.4-0.3-0.8-0.8-0.8h-7.6c-0.4,0-0.8,0.3-0.8,0.8V6H35.2
			c-2.1,0-3.9,1.7-3.9,3.9v8.6H1.7c-0.3,0-0.5,0.2-0.7,0.4S1,19.5,1.1,19.7l15.2,21.4L1.1,62.5C1,62.7,0.9,63,1.1,63.3
			s0.4,0.4,0.7,0.4h52.6c2.1,0,3.9-1.7,3.9-3.9v-8.6h9.3c0.6,1.9,1.6,3.6,3,5c1.7,1.8,2.6,3.9,2.6,6.2v3.1h-0.9
			c-0.4,0-0.8,0.3-0.8,0.8V72c0,1.8,1.4,3.2,3.2,3.2h9.5c1.8,0,3.2-1.4,3.2-3.2v-5.7c0-0.4-0.3-0.8-0.8-0.8h-0.9v-2.8
			c0-2.4,1-4.7,2.7-6.5c1.4-1.4,2.3-3.1,2.9-5h8.4v30.4H83.2c-0.2,0-0.4,0.1-0.5,0.2l-9.2,8h-5.8v-4.4c0-0.4-0.3-0.8-0.8-0.8h-7.2
			v1.5h6.4v35.5h-6.4v1.5H67c0.4,0,0.8-0.3,0.8-0.8v-5h8.6l3.9,3.9c0.1,0.1,0.3,0.2,0.5,0.2h19v7.2c0,0.4,0.3,0.8,0.8,0.8h7.6
			c0.4,0,0.8-0.3,0.8-0.8v-7.2c0.1,0,0.1,0,0.2,0h6.4c2.6,0,4.6-2.1,4.6-4.7c0-1.2-0.5-2.3-1.3-3.1h0.3c2.6,0,4.7-2.1,4.7-4.7
			c0-1.1-0.4-2.2-1.1-3C125.3,106.1,127.3,104,127.3,101.5z M120.7,90.6c1.7,0,3,1.4,3,3v0.3c0,1.7-1.4,3-3,3h-13.2
			c-1.7,0-3-1.4-3-3v-0.3c0-0.4,0.1-0.8,0.2-1.1h3.8c2.2,0,4.2-0.7,5.9-1.9H120.7z M101.3,1.5h6.1v80.1h-6.1V1.5z M56.7,59.8
			c0,1.3-1.1,2.4-2.4,2.4H3.2l14.7-20.7c0.2-0.3,0.2-0.6,0-0.9L3.2,20h28.1l0,33.5c0,1.1,0.4,2,1.1,2.7c0.7,0.7,1.7,1.1,2.7,1.1
			h19.2c0,0,0.1,0,0.1,0C55.7,57.5,56.7,58.5,56.7,59.8L56.7,59.8z M56.7,56.7c-0.6-0.4-1.3-0.7-2-0.8c-0.1,0-0.2,0-0.2,0H35.2
			c-1.3,0-2.4-1.1-2.4-2.4c0,0,0,0,0,0c0-1.3,1.1-2.4,2.4-2.4l21.6,0V56.7z M85.9,67v5c0,0.9-0.8,1.7-1.7,1.7h-9.5
			c-0.9,0-1.7-0.8-1.7-1.7v-5H85.9z M81.9,46.2c0.9,0,1.7,0.8,1.7,1.7c0,0.9-0.8,1.7-1.7,1.7s-1.7-0.8-1.7-1.7
			C80.2,47,81,46.2,81.9,46.2z M87.4,55.1c-2,2.1-3.1,4.8-3.1,7.6v2.8h-4V50.6c0.5,0.3,1.1,0.5,1.7,0.5c1.8,0,3.2-1.4,3.2-3.2
			c0-1.8-1.4-3.2-3.2-3.2c-1,0-1.8,0.5-2.4,1.2c-0.6-0.7-1.5-1.2-2.4-1.2c-1.8,0-3.2,1.4-3.2,3.2c0,1.8,1.4,3.2,3.2,3.2
			c0.6,0,1.2-0.2,1.7-0.5v14.9h-4v-3.1c0-2.6-1.1-5.2-3-7.2c-2.1-2.2-3.2-5.1-3.1-8.1c0.2-5.6,4.8-10.2,10.4-10.4
			c6.3-0.3,11.4,4.7,11.4,10.9C90.4,50.4,89.3,53,87.4,55.1z M78.7,47.9c0,0.9-0.8,1.7-1.7,1.7c-0.9,0-1.7-0.8-1.7-1.7
			c0-0.9,0.8-1.7,1.7-1.7C78,46.2,78.7,47,78.7,47.9z M91.7,49.7c0.1-0.7,0.2-1.4,0.2-2.1c0-7-5.9-12.8-13-12.4
			C72.5,35.4,67.3,40.6,67,47c0,0.9,0,1.8,0.2,2.7l-32.1,0c-0.9,0-1.7,0.3-2.4,0.8V19.2h0V9.9c0-1.3,1.1-2.4,2.4-2.4h64.6v42.2H91.7
			z M96.9,91c-0.4,0-0.8,0.3-0.8,0.8c0,5-4.1,9-9,9c-0.4,0-0.8,0.3-0.8,0.8c0,0.4,0.3,0.8,0.8,0.8c5.6,0,10.1-4.3,10.5-9.8h2.2v27.6
			H81.1l-3.9-3.9c-0.1-0.1-0.3-0.2-0.5-0.2h-8.9V91.3h6.1c0.2,0,0.4-0.1,0.5-0.2l9.2-8h33.7c-0.4,4.4-4.1,7.9-8.6,7.9H96.9z
			 M107.4,128h-6.1V92.5h1.9c-0.1,0.3-0.1,0.7-0.1,1.1v0.3c0,1.6,0.8,3,2.1,3.8c-1.3,0.8-2.1,2.3-2.1,3.9c0,1.6,0.8,3,2,3.8
			c-1.2,0.8-2,2.2-2,3.8c0,2,1.3,3.7,3,4.3c-1,0.8-1.6,2.1-1.6,3.4c0,2,1.2,3.6,2.9,4.3V128z M115.5,120.1h-6.4
			c-1.7,0-3.1-1.4-3.1-3.2c0-1.7,1.4-3.1,3.1-3.1h6.4c1.7,0,3.1,1.4,3.1,3.1C118.7,118.6,117.3,120.1,115.5,120.1z M119.2,112.3
			h-11.5c-1.7,0-3.1-1.4-3.1-3.2c0-1.5,1-2.7,2.4-3c0.3,0,0.5,0.1,0.8,0.1h12.6c1.2,0.4,2.1,1.6,2.1,3
			C122.3,110.8,120.9,112.3,119.2,112.3z M122.7,104.6h-2.3c-0.4-0.1-13.3-0.1-13.5-0.1c-1.4-0.3-2.4-1.6-2.4-3
			c0-1.7,1.4-3.1,3.1-3.1h15c1.7,0,3.1,1.4,3.1,3.1C125.8,103.2,124.4,104.6,122.7,104.6z"/>
		<g>
			<line fill="#FFFFFF" x1="76.7" y1="76.8" x2="82.2" y2="76.8"/>
			<rect x="76.7" y="76.1" fill="#231F20" width="5.5" height="1.5"/>
		</g>
		<g>
			<g>
				<path fill="#FFFFFF" d="M35.2,70.2l-4.3-1.9l-0.1,0.3c-0.9,1.7-2.8,2.6-4.7,2.4c-0.4,0-0.7,0-1.1,0c-1.9,0-3.7-1-4.5-2.7
					L20.3,68l-4.4,1.7L16,70c0.5,1.8-0.1,3.8-1.6,5c-0.3,0.2-0.5,0.5-0.8,0.8c-1.3,1.4-3.3,1.9-5.1,1.3l-0.3-0.1l-1.9,4.3l0.3,0.1
					c1.7,0.9,2.6,2.8,2.4,4.7c0,0.4,0,0.7,0,1.1c0,1.9-1,3.7-2.7,4.5l-0.3,0.1l1.7,4.4l0.3-0.1c1.8-0.5,3.8,0.1,5,1.6
					c0.2,0.3,0.5,0.5,0.8,0.8c1.4,1.3,1.9,3.3,1.3,5.1l-0.1,0.3l4.3,1.9l0.1-0.3c0.9-1.7,2.8-2.6,4.7-2.4c0.4,0,0.7,0,1.1,0
					c1.9,0,3.7,1,4.5,2.7l0.1,0.3l4.4-1.7l-0.1-0.3c-0.5-1.8,0.1-3.8,1.6-5c0.3-0.2,0.5-0.5,0.8-0.8c1.3-1.4,3.3-1.9,5.1-1.3
					l0.3,0.1l1.9-4.3l-0.3-0.1c-1.7-0.9-2.6-2.8-2.4-4.7c0-0.4,0-0.7,0-1.1c0-1.9,1-3.7,2.7-4.5l0.3-0.1l-1.7-4.4L42.2,78
					c-1.8,0.5-3.8-0.1-5-1.6c-0.2-0.3-0.5-0.5-0.8-0.8c-1.4-1.3-1.9-3.3-1.3-5.1L35.2,70.2z"/>
				<path fill="#231F20" d="M29.8,106.9c-0.3,0-0.5-0.2-0.7-0.4l-0.1-0.3c-0.7-1.4-2.2-2.3-3.8-2.3H25c-0.4,0-0.7,0-1.1,0
					c-1.7-0.1-3.2,0.7-4,2.1l-0.1,0.3c-0.2,0.3-0.6,0.5-1,0.3l-4.3-1.9c-0.4-0.2-0.5-0.6-0.4-0.9l0.1-0.3c0.5-1.5,0.1-3.1-1.1-4.3
					c-0.3-0.3-0.5-0.6-0.8-0.8c-1.1-1.2-2.8-1.8-4.3-1.4L7.8,97c-0.4,0.1-0.8-0.1-0.9-0.5l-1.7-4.4c-0.1-0.4,0-0.8,0.4-0.9L5.9,91
					c1.4-0.7,2.3-2.2,2.3-3.8c0-0.4,0-0.8,0-1.2c0.1-1.7-0.7-3.2-2.1-4l-0.3-0.1c-0.3-0.2-0.5-0.6-0.3-1l1.9-4.3
					c0.2-0.4,0.6-0.5,0.9-0.4l0.3,0.1c1.5,0.5,3.2,0.1,4.3-1.1c0.3-0.3,0.6-0.5,0.8-0.8c1.3-1.1,1.8-2.7,1.4-4.3l-0.1-0.3
					c-0.1-0.4,0.1-0.8,0.5-0.9l4.4-1.7c0.4-0.1,0.8,0,0.9,0.4l0.1,0.3c0.7,1.4,2.2,2.3,3.8,2.3H25c0.4,0,0.7,0,1.1,0
					c1.7,0.1,3.2-0.7,4-2.1l0.1-0.3c0.2-0.3,0.6-0.5,1-0.3l4.3,1.9c0.4,0.2,0.5,0.6,0.4,0.9l-0.1,0.3c-0.5,1.5-0.1,3.1,1.1,4.3
					c0.3,0.3,0.5,0.6,0.8,0.8c1.1,1.2,2.8,1.8,4.3,1.4l0.3-0.1c0.4-0.1,0.8,0.1,0.9,0.5l1.7,4.4c0.1,0.4,0,0.8-0.4,0.9l-0.3,0.1
					c-1.4,0.7-2.3,2.2-2.3,3.8c0,0.4,0,0.8,0,1.2c-0.1,1.7,0.7,3.2,2.1,4l0.3,0.1c0.3,0.2,0.5,0.6,0.3,1l-1.9,4.3
					c-0.2,0.4-0.6,0.5-0.9,0.4l-0.3-0.1c-1.5-0.5-3.2-0.1-4.3,1.1c-0.3,0.3-0.6,0.5-0.8,0.8c-1.3,1.1-1.8,2.7-1.4,4.3l0.1,0.3
					c0.1,0.4-0.1,0.8-0.5,0.9l-4.4,1.7C29.9,106.9,29.9,106.9,29.8,106.9z M25.1,102.4c2.1,0,4,1.1,5,2.8l3.2-1.2
					c-0.4-2,0.3-4,1.9-5.4c0.3-0.2,0.5-0.5,0.8-0.7c1.4-1.5,3.6-2.1,5.5-1.6l1.4-3.1c-1.7-1.1-2.6-3-2.5-5.2c0-0.4,0-0.7,0-1.1
					c0-2.1,1-4,2.8-5L42,78.8c-2,0.4-4-0.3-5.4-1.9c-0.2-0.3-0.5-0.5-0.7-0.8c-1.5-1.5-2.1-3.6-1.6-5.5l-3.1-1.4
					c-1.1,1.7-3.1,2.6-5.2,2.5c-0.3,0-0.7,0-1,0L24.9,71v0.8c-2.1,0-4-1.1-5-2.8l-3.2,1.2c0.4,2-0.3,4-1.9,5.4
					c-0.3,0.2-0.5,0.5-0.8,0.7c-1.4,1.5-3.6,2.1-5.5,1.6l-1.4,3.1c1.7,1.1,2.6,3,2.5,5.2c0,0.4,0,0.7,0,1.1c0,2.1-1,4-2.8,5l1.2,3.2
					c1.9-0.4,4,0.3,5.4,1.9c0.2,0.3,0.5,0.5,0.7,0.8c1.5,1.5,2.1,3.6,1.6,5.5l3.1,1.4c1.1-1.7,3.1-2.6,5.2-2.5c0.3,0,0.7,0,1,0H25.1
					z"/>
			</g>
			<g>
				<path fill="#231F20" d="M25,100.1c-0.3,0-0.5,0-0.8,0l0.1-1.5c0.2,0,0.5,0,0.7,0l0.3,0l0,1.5L25,100.1z M27.4,99.8l-0.3-1.5
					c0.3-0.1,0.6-0.1,0.9-0.2l0.4,1.4C28.1,99.7,27.8,99.8,27.4,99.8z M22.2,99.7c-0.3-0.1-0.7-0.2-1-0.3l0.5-1.4
					c0.3,0.1,0.6,0.2,0.9,0.2L22.2,99.7z M30.5,98.9l-0.6-1.4c0.3-0.1,0.6-0.3,0.8-0.4l0.7,1.3C31.1,98.6,30.8,98.7,30.5,98.9z
					 M19.2,98.7c-0.3-0.2-0.6-0.3-0.9-0.5l0.8-1.3c0.3,0.2,0.5,0.3,0.8,0.5L19.2,98.7z M33.2,97.2L32.2,96c0.2-0.2,0.5-0.4,0.7-0.6
					l1,1.1C33.7,96.8,33.4,97,33.2,97.2z M16.5,96.9c-0.3-0.2-0.5-0.5-0.8-0.7l1.1-1c0.2,0.2,0.4,0.4,0.7,0.6L16.5,96.9z M35.4,94.9
					L34.2,94c0.2-0.2,0.4-0.5,0.5-0.8l1.3,0.8C35.8,94.4,35.6,94.7,35.4,94.9z M14.4,94.5c-0.2-0.3-0.4-0.6-0.6-0.9l1.3-0.8
					c0.2,0.3,0.3,0.5,0.5,0.8L14.4,94.5z M37,92.2l-1.4-0.6c0.1-0.3,0.2-0.6,0.3-0.9l1.4,0.5C37.2,91.5,37.1,91.9,37,92.2z
					 M12.9,91.7c-0.1-0.3-0.2-0.7-0.3-1l1.4-0.4c0.1,0.3,0.2,0.6,0.3,0.9L12.9,91.7z M37.9,89.1l-1.5-0.2c0-0.3,0.1-0.6,0.1-0.9
					l1.5,0.1C38,88.4,37.9,88.8,37.9,89.1z M12.1,88.6c0-0.3-0.1-0.7-0.1-1.1l1.5-0.1c0,0.3,0,0.6,0.1,0.9L12.1,88.6z M36.5,86.1
					c0-0.3-0.1-0.6-0.1-0.9l1.5-0.3c0.1,0.3,0.1,0.7,0.1,1.1L36.5,86.1z M13.6,85.7l-1.5-0.2c0-0.4,0.1-0.7,0.2-1l1.5,0.3
					C13.7,85,13.7,85.3,13.6,85.7z M35.9,83.3c-0.1-0.3-0.2-0.6-0.3-0.9l1.4-0.6c0.1,0.3,0.3,0.7,0.4,1L35.9,83.3z M14.3,82.9
					l-1.4-0.5c0.1-0.2,0.2-0.4,0.3-0.6l0.2-0.3l1.4,0.6l-0.1,0.3C14.5,82.6,14.4,82.7,14.3,82.9z M34.7,80.8
					c-0.2-0.3-0.4-0.5-0.5-0.8l1.2-0.9c0.2,0.3,0.4,0.6,0.6,0.9L34.7,80.8z M15.7,80.5l-1.2-0.9c0.2-0.3,0.4-0.6,0.6-0.8l1.2,1
					C16,80,15.8,80.2,15.7,80.5z M32.9,78.7c-0.2-0.2-0.5-0.4-0.7-0.6l0.9-1.2c0.3,0.2,0.5,0.5,0.8,0.7L32.9,78.7z M17.5,78.4
					l-1-1.1c0.3-0.2,0.5-0.4,0.8-0.7l0.9,1.2C18,78,17.8,78.2,17.5,78.4z M30.6,77c-0.3-0.1-0.6-0.3-0.8-0.4l0.6-1.4
					c0.3,0.1,0.6,0.3,0.9,0.5L30.6,77z M19.9,76.8l-0.7-1.3c0.3-0.2,0.6-0.3,1-0.4l0.6,1.4C20.5,76.6,20.2,76.7,19.9,76.8z M29,76.3
					c-0.3-0.1-0.6-0.2-0.9-0.3l0.4-1.4c0.3,0.1,0.7,0.2,1,0.3L29,76.3z M22.5,75.9l-0.3-1.5c0.3-0.1,0.7-0.1,1-0.2l0.2,1.5
					C23.1,75.8,22.8,75.8,22.5,75.9z M26.3,75.7c-0.3,0-0.6-0.1-0.9-0.1l0-1.5c0.4,0,0.7,0,1.1,0.1L26.3,75.7z"/>
			</g>
			<g>
				<circle fill="#E6E9EE" cx="25" cy="87.1" r="9.7"/>
			</g>
			<g>
				<circle fill="#FFFFFF" cx="25" cy="87.1" r="4.9"/>
				<path fill="#231F20" d="M25,92.7c-0.8,0-1.6-0.2-2.3-0.5c-1.4-0.6-2.4-1.7-2.9-3.1c-0.5-1.4-0.5-2.9,0.1-4.3
					c0.9-2,2.9-3.3,5.1-3.3c0.8,0,1.6,0.2,2.3,0.5c1.4,0.6,2.4,1.7,2.9,3.1c0.5,1.4,0.5,2.9-0.1,4.3C29.2,91.4,27.2,92.7,25,92.7z
					 M25,83c-1.6,0-3.1,1-3.7,2.4c-0.4,1-0.5,2.1-0.1,3.1c0.4,1,1.2,1.8,2.2,2.3c0.5,0.2,1.1,0.4,1.7,0.4c1.6,0,3.1-1,3.7-2.4
					c0.4-1,0.5-2.1,0.1-3.1c-0.4-1-1.2-1.8-2.2-2.3C26.2,83.1,25.6,83,25,83z"/>
			</g>
		</g>
		<g>
			<polygon fill="#FF7058" points="57.2,14.6 61.2,22.6 70,23.9 63.6,30.1 65.1,38.9 57.2,34.7 49.4,38.9 50.9,30.1 44.5,23.9 
				53.3,22.6 			"/>
		</g>
		<g>
			<circle fill="#84DBFF" cx="125.4" cy="6.7" r="3.1"/>
		</g>
		<g>
			<circle fill="#FFD05B" cx="20" cy="8.1" r="2.8"/>
		</g>
		<g>
			<circle fill="#E6E9EE" cx="119.5" cy="66" r="2.1"/>
		</g>
		<g>
			<circle fill="#FF7058" cx="29.6" cy="117.4" r="2.2"/>
		</g>
	</g>
</g>
</svg>
