<?xml version="1.0" encoding="utf-8"?>
<!-- Generator: Adobe Illustrator 18.0.0, SVG Export Plug-In . SVG Version: 6.00 Build 0)  -->
<!DOCTYPE svg PUBLIC "-//W3C//DTD SVG 1.1//EN" "http://www.w3.org/Graphics/SVG/1.1/DTD/svg11.dtd">
<svg  width="100px" height="100px" version="1.1" id="Layer_1" xmlns="http://www.w3.org/2000/svg" xmlns:xlink="http://www.w3.org/1999/xlink" x="0px" y="0px"
	 viewBox="0 0 129.5 129.5" enable-background="new 0 0 129.5 129.5" xml:space="preserve">
<g>
	<g>
		<g>
			<polygon fill="#E6E9EE" points="49.4,125.7 27.3,125.7 27.3,103.6 			"/>
		</g>
		<g>
			<polygon fill="#FF7058" points="9.9,105.5 25.4,105.5 25.4,121 			"/>
		</g>
		<path fill="#FFFFFF" d="M112.5,68.6l-4.4-2l-0.2,0.3c-1,1.7-2.8,2.6-4.8,2.5c-0.4,0-0.8,0-1.1,0c-2,0-3.8-1-4.6-2.8l-0.1-0.3
			L92.8,68l0.1,0.3c0.5,1.9-0.2,3.8-1.6,5.1c-0.3,0.3-0.6,0.5-0.8,0.8c-1.4,1.4-3.4,1.9-5.2,1.3l-0.3-0.1l-2,4.4l0.3,0.2
			c1.7,1,2.6,2.8,2.5,4.8c0,0.4,0,0.8,0,1.1c0,2-1,3.8-2.8,4.6l-0.3,0.1l1.7,4.5l0.3-0.1c1.9-0.5,3.8,0.1,5.1,1.6
			c0.3,0.3,0.5,0.6,0.8,0.8c1.4,1.4,1.9,3.4,1.3,5.2l-0.1,0.3l4.4,2l0.2-0.3c1-1.7,2.8-2.6,4.8-2.5c0.4,0,0.8,0,1.1,0
			c2,0,3.8,1,4.6,2.8l0.1,0.3l4.5-1.7l-0.1-0.3c-0.5-1.9,0.2-3.8,1.6-5.1c0.3-0.3,0.6-0.5,0.8-0.8c1.4-1.4,3.4-1.9,5.2-1.3l0.3,0.1
			l2-4.4l-0.3-0.2c-1.7-1-2.6-2.8-2.5-4.8c0-0.4,0-0.8,0-1.1c0-2,1-3.8,2.8-4.6l0.3-0.1l-1.7-4.5l-0.3,0.1c-1.9,0.5-3.8-0.2-5.1-1.6
			c-0.3-0.3-0.5-0.6-0.8-0.8c-1.4-1.4-1.9-3.4-1.3-5.2L112.5,68.6z"/>
		<path fill="#231F20" d="M102.1,99l0-1.5c0.3,0,0.6,0,0.9,0l0.1,1.5C102.9,99,102.5,99,102.1,99z M100,98.9c-0.3-0.1-0.7-0.1-1-0.2
			l0.4-1.5c0.3,0.1,0.6,0.1,0.9,0.2L100,98.9z M105.3,98.7l-0.4-1.5c0.3-0.1,0.6-0.2,0.9-0.3l0.5,1.4
			C106,98.5,105.6,98.6,105.3,98.7z M97,98l-0.3-0.1c-0.2-0.1-0.4-0.2-0.7-0.3l0.7-1.3c0.2,0.1,0.4,0.2,0.6,0.3l0.3,0.1L97,98z
			 M108.3,97.5l-0.7-1.3c0.3-0.1,0.5-0.3,0.8-0.5l0.8,1.3C108.9,97.2,108.6,97.4,108.3,97.5z M94.2,96.4c-0.3-0.2-0.6-0.4-0.8-0.7
			l1-1.1c0.2,0.2,0.5,0.4,0.7,0.6L94.2,96.4z M110.9,95.7l-1-1.1c0.2-0.2,0.5-0.4,0.7-0.6l1.1,1C111.4,95.3,111.1,95.5,110.9,95.7z
			 M91.9,94.3c-0.2-0.3-0.4-0.6-0.6-0.8l1.2-0.9c0.2,0.3,0.4,0.5,0.6,0.7L91.9,94.3z M113,93.4l-1.2-0.9c0.2-0.3,0.3-0.5,0.5-0.8
			l1.3,0.8C113.4,92.8,113.2,93.1,113,93.4z M90.2,91.6c-0.2-0.3-0.3-0.6-0.4-1l1.4-0.5c0.1,0.3,0.2,0.6,0.4,0.9L90.2,91.6z
			 M114.5,90.6l-1.4-0.5c0.1-0.3,0.2-0.6,0.3-0.9l1.4,0.4C114.7,89.9,114.6,90.2,114.5,90.6z M89.2,88.6c-0.1-0.3-0.1-0.7-0.2-1
			l1.5-0.2c0,0.3,0.1,0.6,0.2,0.9L89.2,88.6z M115.3,87.5l-1.5-0.2c0-0.3,0.1-0.6,0.1-0.9l1.5,0.1C115.3,86.8,115.3,87.1,115.3,87.5
			z M90.4,85.5l-1.5,0c0-0.4,0-0.7,0.1-1.1l1.5,0.2C90.4,84.9,90.4,85.2,90.4,85.5z M113.8,84.5c0-0.3-0.1-0.6-0.1-0.9l1.5-0.3
			c0.1,0.3,0.1,0.7,0.2,1L113.8,84.5z M90.8,82.7l-1.4-0.4c0.1-0.3,0.2-0.7,0.3-1l1.4,0.5C90.9,82.1,90.8,82.4,90.8,82.7z
			 M113.2,81.8c-0.1-0.3-0.2-0.6-0.4-0.9l1.4-0.6c0.1,0.3,0.3,0.6,0.4,1L113.2,81.8z M91.8,80.1l-1.3-0.7c0.2-0.3,0.4-0.6,0.5-0.9
			l1.3,0.8C92.1,79.5,92,79.8,91.8,80.1z M111.9,79.2c-0.2-0.3-0.4-0.5-0.6-0.8l1.2-0.9c0.2,0.3,0.4,0.6,0.6,0.9L111.9,79.2z
			 M93.5,77.8l-1.1-1c0.2-0.3,0.5-0.5,0.7-0.7l1,1.1C93.9,77.4,93.7,77.6,93.5,77.8z M110.1,77.1c-0.2-0.2-0.5-0.4-0.7-0.6l0.9-1.2
			c0.3,0.2,0.6,0.4,0.8,0.7L110.1,77.1z M95.6,76l-0.8-1.3c0.3-0.2,0.6-0.4,0.9-0.5l0.7,1.3C96.1,75.6,95.9,75.8,95.6,76z
			 M107.8,75.5c-0.3-0.1-0.6-0.3-0.8-0.4c-0.2-0.1-0.4-0.2-0.5-0.2l0.5-1.4c0.2,0.1,0.4,0.2,0.6,0.3c0.3,0.1,0.6,0.3,0.9,0.5
			L107.8,75.5z M98.1,74.7l-0.5-1.4c0.3-0.1,0.7-0.2,1-0.3l0.4,1.4C98.7,74.5,98.4,74.6,98.1,74.7z M104.6,74.3
			c-0.3-0.1-0.6-0.1-0.9-0.2l0.2-1.5c0.3,0,0.7,0.1,1,0.2L104.6,74.3z M100.9,74.1l-0.2-1.5c0.4,0,0.7-0.1,1.1-0.1l0,1.5
			C101.5,74,101.2,74.1,100.9,74.1z"/>
		<circle fill="#84DBFF" cx="102.1" cy="85.8" r="9.9"/>
		<circle fill="#FFFFFF" cx="102.1" cy="85.8" r="5"/>
		<path fill="#231F20" d="M102.1,91.5c-0.8,0-1.6-0.2-2.3-0.5c-1.4-0.6-2.5-1.8-3-3.2c-0.5-1.4-0.5-3,0.1-4.4c0.9-2.1,3-3.4,5.2-3.4
			c0.8,0,1.6,0.2,2.3,0.5c1.4,0.6,2.5,1.8,3,3.2c0.5,1.4,0.5,3-0.1,4.4C106.4,90.2,104.4,91.5,102.1,91.5z M102.1,81.6
			c-1.7,0-3.2,1-3.8,2.5c-0.5,1-0.5,2.2-0.1,3.2c0.4,1.1,1.2,1.9,2.2,2.3c0.5,0.2,1.1,0.4,1.7,0.4c1.7,0,3.2-1,3.8-2.5
			c0.5-1,0.5-2.2,0.1-3.2c-0.4-1.1-1.2-1.9-2.2-2.3C103.3,81.7,102.7,81.6,102.1,81.6z"/>
		<rect x="66.8" y="24.9" fill="#FFFFFF" width="62.1" height="36"/>
		<polygon fill="#FFD05B" points="127.2,29.5 127.2,59.2 68.6,59.2 68.6,29.5 71.8,33.1 124,33.1 		"/>
		<polygon fill="#FFFFFF" points="123.2,31.4 128.9,24.9 66.8,24.9 72.6,31.4 		"/>
		<polygon fill="#E6E9EE" points="73.4,29.6 70.7,26.7 125,26.7 122.4,29.6 		"/>
		<g>
			<line fill="#FFFFFF" x1="80.2" y1="46.4" x2="115.5" y2="46.4"/>
			<rect x="80.2" y="45.6" fill="#231F20" width="35.3" height="1.5"/>
		</g>
		<g>
			<line fill="#FFFFFF" x1="80.2" y1="49.7" x2="115.5" y2="49.7"/>
			<rect x="80.2" y="49" fill="#231F20" width="35.3" height="1.5"/>
		</g>
		<g>
			<line fill="#FFFFFF" x1="80.2" y1="53.1" x2="96.7" y2="53.1"/>
			<rect x="80.2" y="52.3" fill="#231F20" width="16.5" height="1.5"/>
		</g>
		<g>
			<line fill="#FFFFFF" x1="16.8" y1="17.7" x2="59.2" y2="17.7"/>
			<rect x="16.8" y="16.9" fill="#231F20" width="42.5" height="1.5"/>
		</g>
		<g>
			<line fill="#FFFFFF" x1="16.8" y1="22.6" x2="59.2" y2="22.6"/>
			<rect x="16.8" y="21.9" fill="#231F20" width="42.5" height="1.5"/>
		</g>
		<g>
			<path fill="#231F20" d="M126.1,3.1c-0.2,0-0.4-0.1-0.5-0.2c-0.3-0.3-0.3-0.8,0-1.1l1.3-1.3c0.3-0.3,0.8-0.3,1.1,0
				c0.3,0.3,0.3,0.8,0,1.1l-1.3,1.3C126.4,3.1,126.3,3.1,126.1,3.1z"/>
		</g>
		<g>
			<path fill="#231F20" d="M122,7.2c-0.2,0-0.4-0.1-0.5-0.2c-0.3-0.3-0.3-0.8,0-1.1l1.3-1.3c0.3-0.3,0.8-0.3,1.1,0
				c0.3,0.3,0.3,0.8,0,1.1L122.5,7C122.4,7.1,122.2,7.2,122,7.2z"/>
		</g>
		<g>
			<path fill="#231F20" d="M127.4,7.2c-0.2,0-0.4-0.1-0.5-0.2l-1.3-1.3c-0.3-0.3-0.3-0.8,0-1.1c0.3-0.3,0.8-0.3,1.1,0l1.3,1.3
				c0.3,0.3,0.3,0.8,0,1.1C127.7,7.1,127.5,7.2,127.4,7.2z"/>
		</g>
		<g>
			<path fill="#231F20" d="M123.3,3.1c-0.2,0-0.4-0.1-0.5-0.2l-1.3-1.3c-0.3-0.3-0.3-0.8,0-1.1s0.8-0.3,1.1,0l1.3,1.3
				c0.3,0.3,0.3,0.8,0,1.1C123.7,3.1,123.5,3.1,123.3,3.1z"/>
		</g>
		<g>
			<g>
				<path fill="#231F20" d="M85.2,15.9c-0.2,0-0.4-0.1-0.5-0.2c-0.3-0.3-0.3-0.8,0-1.1l1.3-1.3c0.3-0.3,0.8-0.3,1.1,0
					c0.3,0.3,0.3,0.8,0,1.1l-1.3,1.3C85.6,15.8,85.4,15.9,85.2,15.9z"/>
			</g>
			<g>
				<path fill="#231F20" d="M81.1,19.9c-0.2,0-0.4-0.1-0.5-0.2c-0.3-0.3-0.3-0.8,0-1.1l1.3-1.3c0.3-0.3,0.8-0.3,1.1,0
					c0.3,0.3,0.3,0.8,0,1.1l-1.3,1.3C81.5,19.9,81.3,19.9,81.1,19.9z"/>
			</g>
			<g>
				<path fill="#231F20" d="M86.5,19.9c-0.2,0-0.4-0.1-0.5-0.2l-1.3-1.3c-0.3-0.3-0.3-0.8,0-1.1c0.3-0.3,0.8-0.3,1.1,0l1.3,1.3
					c0.3,0.3,0.3,0.8,0,1.1C86.9,19.9,86.7,19.9,86.5,19.9z"/>
			</g>
			<g>
				<path fill="#231F20" d="M82.4,15.9c-0.2,0-0.4-0.1-0.5-0.2l-1.3-1.3c-0.3-0.3-0.3-0.8,0-1.1c0.3-0.3,0.8-0.3,1.1,0l1.3,1.3
					c0.3,0.3,0.3,0.8,0,1.1C82.8,15.8,82.6,15.9,82.4,15.9z"/>
			</g>
		</g>
		<g>
			<path fill="#231F20" d="M6.5,125.1c-0.2,0-0.4-0.1-0.5-0.2c-0.3-0.3-0.3-0.8,0-1.1l1.3-1.3c0.3-0.3,0.8-0.3,1.1,0
				c0.3,0.3,0.3,0.8,0,1.1l-1.3,1.3C6.9,125,6.7,125.1,6.5,125.1z"/>
		</g>
		<g>
			<path fill="#231F20" d="M2.5,129.2c-0.2,0-0.4-0.1-0.5-0.2c-0.3-0.3-0.3-0.8,0-1.1l1.3-1.3c0.3-0.3,0.8-0.3,1.1,0
				c0.3,0.3,0.3,0.8,0,1.1L3,128.9C2.9,129.1,2.7,129.2,2.5,129.2z"/>
		</g>
		<g>
			<path fill="#231F20" d="M7.8,129.2c-0.2,0-0.4-0.1-0.5-0.2L6,127.6c-0.3-0.3-0.3-0.8,0-1.1c0.3-0.3,0.8-0.3,1.1,0l1.3,1.3
				c0.3,0.3,0.3,0.8,0,1.1C8.2,129.1,8,129.2,7.8,129.2z"/>
		</g>
		<g>
			<path fill="#231F20" d="M3.8,125.1c-0.2,0-0.4-0.1-0.5-0.2L2,123.6c-0.3-0.3-0.3-0.8,0-1.1c0.3-0.3,0.8-0.3,1.1,0l1.3,1.3
				c0.3,0.3,0.3,0.8,0,1.1C4.2,125,4,125.1,3.8,125.1z"/>
		</g>
		<g>
			<circle fill="#E6E9EE" cx="36.4" cy="33.3" r="1.7"/>
		</g>
		<g>
			<path fill="#231F20" d="M120.9,20.1c-1.4,0-2.5-1.1-2.5-2.5c0-1.4,1.1-2.5,2.5-2.5c1.4,0,2.5,1.1,2.5,2.5
				C123.3,19,122.2,20.1,120.9,20.1z M120.9,16.7c-0.5,0-1,0.4-1,1c0,0.5,0.4,1,1,1c0.5,0,1-0.4,1-1
				C121.8,17.2,121.4,16.7,120.9,16.7z"/>
		</g>
		<g>
			<circle fill="#FFD05B" cx="120.9" cy="123.7" r="1.7"/>
		</g>
		<g>
			<circle fill="#84DBFF" cx="20.3" cy="76" r="2.4"/>
		</g>
		<path fill="#FFFFFF" d="M1.6,42.9l3.9,3.9l6.9-6.9L8.6,36c-1.4-1.4-3.6-1.4-5,0l-1.9,1.9C0.2,39.3,0.2,41.5,1.6,42.9z"/>
		
			<rect x="0.4" y="59.1" transform="matrix(0.7071 0.7071 -0.7071 0.7071 53.9398 -2.2231)" fill="#FFFFFF" width="58.5" height="9.8"/>
		<polygon fill="#FFFFFF" points="53.8,81.2 58,92.3 46.9,88.2 		"/>
		<path fill="#231F20" d="M128.9,24.2h-26.1V5.1c0-0.4-0.3-0.8-0.8-0.8h-97c-0.4,0-0.8,0.3-0.8,0.8v29.4c-0.5,0.2-1,0.5-1.4,0.9
			l-1.9,1.9c-0.8,0.8-1.3,1.9-1.3,3c0,1.1,0.4,2.2,1.3,3l3.3,3.3v56.8c0,0.2,0.1,0.4,0.2,0.5l22.1,22.1c0.1,0.1,0.3,0.2,0.5,0.2
			h74.8c0.4,0,0.8-0.3,0.8-0.8v-22.7c1.4,0.2,2.7,1,3.3,2.3l0.1,0.3c0.1,0.3,0.4,0.4,0.7,0.4c0.1,0,0.2,0,0.3,0l4.5-1.7
			c0.4-0.1,0.6-0.5,0.5-0.9l-0.1-0.3c-0.4-1.6,0.1-3.2,1.4-4.4c0.3-0.3,0.6-0.5,0.9-0.8c1.2-1.2,2.9-1.6,4.4-1.1l0.3,0.1
			c0.4,0.1,0.8,0,0.9-0.4l2-4.4c0.2-0.4,0-0.8-0.3-1l-0.3-0.1c-1.4-0.8-2.2-2.4-2.1-4.1c0-0.4,0-0.8,0-1.2c0-1.7,0.9-3.2,2.3-3.9
			l0.3-0.1c0.3-0.2,0.5-0.6,0.4-0.9l-1.7-4.5c-0.1-0.4-0.5-0.6-0.9-0.5l-0.3,0.1c-1.5,0.4-3.3-0.1-4.4-1.4c-0.3-0.3-0.5-0.6-0.8-0.9
			c-1.2-1.2-1.6-2.9-1.1-4.4l0.1-0.3c0.1-0.4,0-0.8-0.4-0.9l-4.4-2c-0.4-0.2-0.8,0-1,0.3l-0.2,0.3c-0.8,1.4-2.3,2.2-4.1,2.1
			c-0.1,0-0.2,0-0.4,0v-6.9h26.1c0.4,0,0.8-0.3,0.8-0.8v-36C129.7,24.5,129.3,24.2,128.9,24.2z M127.3,25.7l-4.4,5H72.9l-4.4-5
			H127.3z M2.1,42.4c-0.5-0.5-0.8-1.2-0.8-2c0-0.7,0.3-1.5,0.8-2l1.9-1.9c0.5-0.5,1.2-0.8,2-0.8c0.7,0,1.5,0.3,2,0.8l3.3,3.3
			l-5.9,5.9L2.1,42.4z M50.9,85.2l2.7-2.7l3.2,8.5l-8.5-3.2L50.9,85.2z M46.9,87.1L6.5,46.8L9,44.4l40.3,40.3L46.9,87.1z M50.3,83.6
			L10,43.3l2.4-2.4l40.3,40.3L50.3,83.6z M26.5,123.9L7,104.4h19.6V123.9z M101.4,125H28v-21.4c0-0.4-0.3-0.8-0.8-0.8H5.9V48.3
			l40.4,40.4c0.1,0.1,0.2,0.1,0.3,0.2c0,0,0,0,0,0l11.1,4.2c0.1,0,0.2,0,0.3,0c0.2,0,0.4-0.1,0.5-0.2c0.2-0.2,0.3-0.5,0.2-0.8
			L54.5,81c0,0,0,0,0,0c0-0.1-0.1-0.2-0.2-0.3L9.1,35.4c-0.8-0.8-1.9-1.3-3-1.3c0,0-0.1,0-0.1,0V5.9h95.5v18.3H66.8
			c-0.4,0-0.8,0.3-0.8,0.8v36c0,0.4,0.3,0.8,0.8,0.8h34.5v6.8c-1.4-0.2-2.7-1-3.3-2.3l-0.1-0.3c-0.2-0.3-0.6-0.5-0.9-0.4l-4.5,1.7
			c-0.4,0.1-0.6,0.5-0.5,0.9l0.1,0.3c0.4,1.6-0.1,3.2-1.4,4.4c-0.3,0.3-0.6,0.5-0.9,0.8c-1.2,1.2-2.9,1.6-4.4,1.1l-0.3-0.1
			c-0.4-0.1-0.8,0.1-0.9,0.4l-2,4.4c-0.2,0.4,0,0.8,0.3,1l0.3,0.1c1.4,0.8,2.2,2.4,2.1,4.1c0,0.4,0,0.8,0,1.2c0,1.7-0.9,3.2-2.3,3.9
			l-0.3,0.1c-0.3,0.2-0.5,0.6-0.4,0.9l1.7,4.5c0.1,0.4,0.5,0.6,0.9,0.5l0.3-0.1c1.5-0.4,3.3,0.1,4.4,1.4c0.3,0.3,0.5,0.6,0.8,0.9
			c1.2,1.2,1.6,2.9,1.1,4.4l-0.1,0.3c-0.1,0.4,0,0.8,0.4,0.9l4.4,2c0.4,0.2,0.8,0,1-0.3l0.1-0.3c0.8-1.4,2.4-2.2,4.1-2.1
			c0.1,0,0.2,0,0.4,0V125z M103.1,70.1c2.1,0.1,4.1-0.9,5.3-2.5l3.2,1.4c-0.5,2,0.1,4.1,1.6,5.6c0.3,0.3,0.5,0.5,0.7,0.8
			c1.4,1.6,3.5,2.3,5.5,1.9l1.2,3.3c-1.8,1-2.9,3-2.8,5.1c0,0.4,0,0.7,0,1.1c-0.1,2.2,0.8,4.1,2.5,5.3l-1.4,3.2
			c-2-0.5-4.1,0.1-5.6,1.6c-0.3,0.3-0.5,0.5-0.8,0.7c-1.6,1.4-2.3,3.5-1.9,5.5l-3.3,1.2c-1-1.8-2.9-2.8-5.1-2.8h-0.1
			c-0.3,0-0.7,0-1,0c-2.1-0.1-4.1,0.9-5.3,2.5l-3.2-1.4c0.5-2-0.1-4.1-1.6-5.6c-0.3-0.3-0.5-0.5-0.7-0.8c-1.4-1.6-3.5-2.3-5.5-1.9
			L83.5,91c1.8-1,2.9-3,2.8-5.1c0-0.4,0-0.7,0-1.1c0.1-2.2-0.8-4.1-2.5-5.3l1.4-3.2c2,0.5,4.2-0.1,5.6-1.6c0.3-0.3,0.5-0.5,0.8-0.7
			c1.6-1.4,2.3-3.5,1.9-5.5l3.3-1.2c1,1.8,2.9,2.8,5.1,2.8h0.1C102.5,70,102.8,70.1,103.1,70.1z M67.6,60.2V26.9l4.4,5
			c0.1,0.2,0.3,0.3,0.6,0.3h50.6c0.2,0,0.4-0.1,0.6-0.3l4.4-5v33.3H67.6z"/>
		<g>
			<rect x="52.4" y="108.2" fill="#FFD05B" width="39.7" height="20.9"/>
		</g>
		<g>
			<g>
				<rect x="61.1" y="114" fill="#231F20" width="22.5" height="1.5"/>
			</g>
			<g>
				<rect x="61.1" y="117.9" fill="#231F20" width="22.5" height="1.5"/>
			</g>
			<g>
				<rect x="61.1" y="121.8" fill="#231F20" width="16.8" height="1.5"/>
			</g>
		</g>
	</g>
</g>
</svg>
