<svg xmlns="http://www.w3.org/2000/svg" xmlns:xlink="http://www.w3.org/1999/xlink" viewBox="0 0 129.5 129.5"><path fill="#84dbff" d="M39.7 119.1a9.82 9.82 0 0 0 9.8 9.8h3.6a9.82 9.82 0 0 0 9.8-9.8H39.7z"/><path fill="#e6e9ee" d="M33.8 105h35v12.2h-35z"/><g fill="#231f20"><path d="M51.3 79.7h-.4v-1.5h1v1.5h-.6zm-2.5-.1c-.3 0-.7-.1-1-.1L48 78c.3 0 .7.1 1 .1l-.2 1.5zm5.2 0l-.2-1.6c.3 0 .7-.1 1-.1l.2 1.5c-.3.1-.7.1-1 .2zm-8.3-.4c-.3-.1-.7-.1-1-.2l.3-1.5c.3.1.6.1 1 .2l-.3 1.5zm11.3 0l-.3-1.5c.3-.1.6-.1 1-.2L58 79c-.3.1-.6.1-1 .2zm-14.3-.6l-1-.3.4-1.5 1 .3-.4 1.5zm17.4-.1l-.4-1.5.9-.3.4 1.5-.9.3zm-20.4-.9c-.3-.1-.6-.2-1-.4l.6-1.4c.3.1.6.2.9.4l-.5 1.4zm23.3 0l-.5-1.4c.3-.1.6-.2.9-.4l.6 1.4c-.3.1-.6.3-1 .4zm-26.1-1.2c-.3-.1-.6-.3-.9-.5l.7-1.4c.3.1.6.3.9.4l-.7 1.5zm29 0l-.7-1.4c.3-.1.6-.3.9-.4l.7 1.3c-.3.2-.6.3-.9.5zM34.1 75c-.3-.2-.6-.4-.9-.5l.8-1.3c.3.2.6.3.8.5l-.7 1.3zm34.5-.1l-.8-1.3c.3-.2.6-.3.8-.5l.8 1.3c-.2.2-.5.3-.8.5zm-37.1-1.6c-.3-.2-.6-.4-.8-.6l.9-1.2c.3.2.5.4.8.6l-.9 1.2zm39.7-.1l-.9-1.2c.3-.2.5-.4.8-.6l.9 1.2c-.2.2-.5.4-.8.6zm-42.1-1.8c-.3-.2-.5-.5-.8-.7l1-1.1c.2.2.5.4.7.7l-.9 1.1zm44.5-.1l-1-1.1c.2-.2.5-.4.7-.7l1 1.1c-.1.2-.4.5-.7.7zm-46.8-2.1c-.2-.2-.5-.5-.7-.8l1.1-1c.2.2.4.5.7.7l-1.1 1.1zm49.1-.1l-1.1-1 .7-.7 1.1 1-.7.7zm-51.1-2.2c-.2-.3-.4-.5-.6-.8l1.2-.9c.2.3.4.5.6.8l-1.2.9zm53.1-.1l-1.2-.9c.2-.3.4-.5.6-.8l1.2.9c-.2.3-.4.5-.6.8zm-55-2.4l-.6-.9 1.3-.8c.2.3.3.6.5.8l-1.2.9zm56.8-.1l-1.3-.8.5-.8 1.3.8c-.1.2-.3.5-.5.8zm-58.3-2.6c-.2-.3-.3-.6-.5-.9l1.4-.7c.1.3.3.6.5.9l-1.4.7zm59.9-.1l-1.3-.7c.2-.3.3-.6.5-.9l1.4.7c-.3.3-.4.6-.6.9zM20 58.9c-.1-.3-.3-.6-.4-1l1.4-.5c.1.3.2.6.4.9l-1.4.6zm62.6-.1l-1.4-.6c.1-.3.2-.6.4-.9l1.4.5c-.1.4-.2.7-.4 1zM18.9 56l-.3-1 1.5-.4.3.9-1.5.5zm64.8-.1l-1.4-.5.3-.9 1.5.4c-.2.3-.3.7-.4 1zM18.1 53c-.1-.3-.1-.7-.2-1l1.5-.3c.1.3.1.6.2 1l-1.5.3zm66.4-.1l-1.5-.3c.1-.3.1-.6.2-1l1.5.3c-.1.3-.1.6-.2 1zM17.6 50c0-.3-.1-.7-.1-1l1.5-.1c0 .3.1.7.1 1l-1.5.1zm67.4-.2l-1.5-.2c0-.3.1-.7.1-1l1.5.1c0 .4 0 .8-.1 1.1zm-67.6-2.9v-1h1.5v1h-1.5zm67.9-.2h-1.5v-1h1.5v1zm-1.6-2.3c0-.3 0-.7-.1-1l1.5-.1c0 .3 0 .7.1 1l-1.5.1zm-64.8-.5l-1.5-.1c0-.3 0-.7.1-1l1.5.1c-.1.3-.1.6-.1 1zm64.6-2.5c0-.3-.1-.7-.1-1l1.5-.2c.1.3.1.7.1 1l-1.5.2zm-64.3-.5l-1.5-.2c.1-.3.1-.7.2-1l1.5.3c-.1.3-.1.6-.2.9zM83 38.5c-.1-.3-.2-.6-.2-1l1.5-.4c.1.3.2.7.2 1l-1.5.4zM19.8 38l-1.5-.4.3-1 1.5.4c-.2.4-.3.7-.3 1zm62.4-2.3l-.3-.9 1.4-.5.3 1-1.4.4zm-61.6-.5l-1.4-.5c.1-.3.2-.7.4-1l1.4.5c-.2.3-.3.7-.4 1zm60.5-2.3c-.1-.3-.3-.6-.4-.9l1.4-.6c.1.3.3.6.4.9l-1.4.6zm-59.4-.5l-1.4-.6c.1-.3.3-.6.4-.9l1.4.7c-.1.2-.3.5-.4.8zm58.1-2.2c-.2-.3-.3-.6-.5-.9l1.3-.8c.2.3.3.6.5.9l-1.3.8zM23 29.8l-1.3-.8c.2-.3.3-.6.5-.9l1.3.8c-.1.3-.3.6-.5.9zm55.3-2.1c-.2-.3-.4-.5-.6-.8L79 26l.6.9-1.3.8zm-53.7-.5l-1.2-.9c.2-.3.4-.6.6-.8l1.2.9c-.2.3-.4.6-.6.8zm52-1.9c-.2-.3-.4-.5-.6-.8l1.2-1c.2.3.4.5.7.8l-1.3 1zm-50.2-.4l-1.2-1c.2-.3.4-.5.7-.8l1.1 1c-.2.3-.4.5-.6.8zm48.2-1.8l-.7-.7 1.1-1.1.7.7-1.1 1.1zm-46.2-.4l-1.1-1.1.7-.7 1 1.1c-.1.2-.4.5-.6.7zm44-1.6c-.2-.2-.5-.4-.8-.6l1-1.2c.3.2.5.4.8.7l-1 1.1zm-41.8-.4l-1-1.2c.3-.2.5-.4.8-.6l.9 1.2c-.2.2-.4.4-.7.6zm39.5-1.5c-.3-.2-.5-.4-.8-.6l.8-1.3.9.6-.9 1.3zM33 18.9l-.9-1.3.9-.6.8 1.3c-.3.3-.6.4-.8.6zm34.6-1.3c-.3-.2-.6-.3-.9-.5l.7-1.3c.3.2.6.3.9.5l-.7 1.3zm-32.1-.2l-.8-1.4c.3-.2.6-.3.9-.5l.7 1.3c-.2.2-.5.4-.8.6zM65 16.3c-.3-.1-.6-.3-.9-.4l.6-1.4c.3.1.6.3.9.4l-.6 1.4zM38.1 16l-.6-1.4c.3-.1.6-.3.9-.4l.6 1.4c-.3.2-.6.3-.9.4zm24.1-.9l-.9-.3.5-1.4 1 .3-.6 1.4zM40.9 15l-.5-1.4 1-.3.4 1.5c-.3-.1-.6 0-.9.2zm18.5-.7c-.3-.1-.6-.2-1-.2l.3-1.5c.3.1.7.2 1 .2l-.3 1.5zm-15.7-.2l-.4-1.5c.3-.1.7-.2 1-.2l.3 1.5c-.2.1-.5.2-.9.2zm12.8-.4c-.3-.1-.7-.1-1-.1l.2-1.5c.3 0 .7.1 1 .1l-.2 1.5zm-9.9-.1l-.2-1.5c.3 0 .7-.1 1-.1l.2 1.5c-.3 0-.6 0-1 .1zm6.9-.3c-.3 0-.7 0-1-.1l.1-1.5c.3 0 .7 0 1 .1l-.1 1.5zm-3.9 0l-.1-1.5h1v1.5h-.9z"/><path d="M50.4 90.3h-1l.1-1.5h1l-.1 1.5zm2.1 0v-1.5h1l.1 1.5h-1.1zm-5.2-.2c-.3 0-.7-.1-1-.1l.2-1.5c.3 0 .7.1 1 .1l-.2 1.5zm8.2 0l-.1-1.5c.3 0 .7-.1 1-.1l.2 1.5c-.4 0-.7.1-1.1.1zm-11.2-.3c-.3-.1-.7-.1-1-.2l.3-1.5c.3.1.7.1 1 .2l-.3 1.5zm14.3-.1l-.2-1.5c.3-.1.7-.1 1-.2l.3 1.5c-.4.1-.8.2-1.1.2zm-17.4-.5c-.3-.1-.7-.2-1-.2l.4-1.5c.3.1.6.2 1 .2l-.4 1.5zm20.4-.1l-.4-1.5c.3-.1.6-.2 1-.2l.4 1.5c-.3 0-.6.1-1 .2zm-23.4-.7l-1-.3.5-1.4 1 .3-.5 1.4zm26.4-.1l-.5-1.4.9-.3.5 1.4c-.2.1-.6.2-.9.3zm-29.3-.9c-.3-.1-.6-.3-1-.4l.6-1.4c.3.1.6.2.9.4l-.5 1.4zm32.2-.1l-.5-1.4c.3-.1.6-.2.9-.4l.6 1.4c-.4.1-.7.2-1 .4zm-35-1.2c-.3-.1-.6-.3-.9-.4l.7-1.4c.3.1.6.3.9.4l-.7 1.4zm37.8 0l-.6-1.4c.3-.1.6-.3.9-.4l.7 1.4c-.3.1-.7.2-1 .4zm-40.6-1.4c-.3-.2-.6-.3-.9-.5l.8-1.3c.3.2.6.3.9.5l-.8 1.3zm43.4-.1l-.7-1.3c.3-.2.6-.3.9-.5l.8 1.3c-.4.2-.7.4-1 .5zm-46-1.4l-.9-.6.9-1.3c.3.2.5.4.8.5l-.8 1.4zm48.6-.2l-.8-1.3c.3-.2.6-.4.8-.6l.9 1.3c-.3.3-.6.5-.9.6zm-51.2-1.6c-.3-.2-.5-.4-.8-.6l.9-1.2c.3.2.5.4.8.6l-.9 1.2zm53.7-.1l-.9-1.2c.3-.2.5-.4.8-.6l.9 1.2c-.2.2-.5.4-.8.6zm-56.1-1.9c-.3-.2-.5-.5-.8-.7l1-1.1c.2.2.5.4.7.7l-.9 1.1zm58.5-.1l-1-1.1c.2-.2.5-.4.7-.7l1 1.1c-.2.3-.4.5-.7.7zm-60.7-2l-.7-.7 1.1-1.1.7.7-1.1 1.1zm63-.1l-1.1-1.1.7-.7 1.1 1c-.2.3-.5.6-.7.8zm-65.1-2.1c-.2-.3-.4-.5-.7-.8l1.2-1c.2.3.4.5.6.8l-1.1 1zM85 75l-1.1-1c.2-.3.4-.5.6-.8l1.2 1c-.3.2-.5.5-.7.8zm-69.2-2.3c-.2-.3-.4-.5-.6-.8l1.2-.9c.2.3.4.5.6.8l-1.2.9zm71.1-.1l-1.2-.9c.2-.3.4-.5.6-.8l1.2.9c-.2.2-.4.5-.6.8zM14 70.2l-.6-.9 1.3-.8.5.8-1.2.9zm74.7-.2l-1.3-.8.5-.8 1.3.8c-.1.3-.3.5-.5.8zm-76.3-2.4c-.2-.3-.3-.6-.5-.9l1.3-.7c.2.3.3.6.5.9l-1.3.7zm77.9-.2l-1.3-.7c.2-.3.3-.6.5-.9l1.3.7c-.2.3-.3.6-.5.9zM11 64.8c-.1-.3-.3-.6-.4-.9l1.4-.6c.1.3.3.6.4.9l-1.4.6zm80.7-.2l-1.4-.6c.1-.3.3-.6.4-.9l1.4.6c-.1.3-.2.6-.4.9zM9.8 62c-.1-.3-.2-.6-.4-1l1.4-.5c.1.3.2.6.4.9l-1.4.6zm83.1-.2l-1.4-.5.3-.9 1.4.5c0 .3-.1.6-.3.9zM8.7 59.1l-.3-1 1.5-.4.3 1-1.5.4zm85.2-.2l-1.5-.4.3-1 1.5.4-.3 1zm-86-2.8c-.1-.3-.2-.7-.2-1l1.5-.3c.1.3.1.6.2 1l-1.5.3zm86.8-.2l-1.5-.3c.1-.3.1-.6.2-1l1.5.3c0 .3-.1.7-.2 1zM7.3 53.1c-.1-.3-.1-.7-.2-1l1.5-.2c0 .3.1.7.2 1l-1.5.2zm88-.2l-1.5-.2c.1-.3.1-.7.1-1l1.5.2c.1.3 0 .6-.1 1zM6.9 50c0-.3-.1-.7-.1-1l1.5-.1c0 .3.1.7.1 1l-1.5.1zm88.8-.2l-1.5-.1c0-.3.1-.7.1-1l1.5.1c0 .3 0 .7-.1 1zM6.7 47v-1h1.5v1H6.7zm89.2-.3h-1.5v-1h1.5v1zm-1.5-2.5v-1l1.5-.1v1l-1.5.1zm-86.2-.3l-1.5-.1c0-.3 0-.7.1-1l1.5.1c0 .4 0 .7-.1 1zm86-2.6c0-.3-.1-.7-.1-1l1.5-.2c0 .3.1.7.1 1l-1.5.2zM8.5 41L7 40.8c0-.3.1-.7.1-1l1.5.2c-.1.3-.1.6-.1 1zm85.3-2.7c-.1-.3-.1-.7-.2-1l1.5-.3c.1.3.1.7.2 1l-1.5.3zM8.9 38l-1.5-.3c.1-.3.1-.7.2-1l1.5.3c-.1.4-.2.7-.2 1zm84.3-2.6c-.1-.3-.2-.6-.2-1l1.5-.4.3 1-1.6.4zm-83.7-.3L8 34.7l.3-1 1.5.4-.3 1zm82.9-2.6l-.3-.9 1.4-.5.3 1-1.4.4zm-82.1-.3l-1.4-.5.3-1 1.4.5a1.69 1.69 0 0 1-.3 1zm81-2.5c-.1-.3-.3-.6-.4-.9l1.4-.6c.1.3.3.6.4.9l-1.4.6zm-79.9-.3l-1.4-.5c.1-.3.3-.6.4-1l1.4.6c-.2.3-.3.6-.4.9zM90.1 27c-.1-.3-.3-.6-.4-.9l1.4-.7c.2.3.3.6.5.9l-1.5.7zm-77.5-.3l-1.4-.7c.2-.3.3-.6.5-.9l1.3.7c-.1.3-.3.6-.4.9zm76.2-2.3c-.2-.3-.3-.6-.5-.9l1.3-.8c.2.3.3.6.5.9l-1.3.8zM14 24.1l-1.3-.8c.2-.3.3-.6.5-.9l1.3.8c-.2.3-.3.6-.5.9zm73.2-2.3c-.2-.3-.4-.5-.6-.8l1.2-.9c.2.3.4.6.6.8l-1.2.9zm-71.6-.3l-1.3-.9c.2-.3.4-.6.6-.8l1.2.9c-.1.3-.3.6-.5.8zm69.9-2.1c-.2-.3-.4-.5-.6-.8l1.2-1c.2.3.4.5.6.8l-1.2 1zm-68.1-.3l-1.2-.9c.2-.3.4-.5.6-.8l1.2 1c-.2.2-.4.5-.6.7zm66.2-2c-.2-.2-.4-.5-.7-.7l1.1-1c.2.3.5.5.7.8l-1.1.9zm-64.3-.2l-1.1-1c.2-.3.5-.5.7-.8l1.1 1c-.3.3-.5.5-.7.8zm62.2-2l-.7-.7 1-1.1.7.7-1 1.1zm-60.1-.2l-1.1-1.1.7-.7 1 1.1c-.2.2-.4.5-.6.7zm57.9-1.8c-.3-.2-.5-.4-.8-.6l1-1.2c.3.2.5.4.8.7l-1 1.1zm-55.7-.2l-1-1.2c.3-.2.5-.4.8-.7l1 1.2c-.3.3-.6.5-.8.7zM77 11.1c-.3-.2-.5-.4-.8-.6l.8-1.3c.3.2.6.4.8.6l-.8 1.3zm-51.1-.2L25 9.6c.3-.2.6-.4.8-.6l.9 1.2c-.3.3-.5.5-.8.7zm48.6-1.5c-.3-.2-.5-.4-.8-.6l.8-1.3c.3.2.6.4.9.5l-.9 1.4zm-46.1-.2l-.8-1.3c.3-.2.6-.4.9-.5l.8 1.3c-.4.1-.6.3-.9.5zM72 7.9c-.3-.2-.6-.3-.9-.5l.7-1.4c.3.2.6.3.9.5L72 7.9zm-41.1-.2l-.7-1.3c.3-.2.6-.3.9-.5l.7 1.4c-.3.1-.6.2-.9.4zm38.4-1.2c-.3-.1-.6-.3-.9-.4l.6-1.4c.3.1.6.3.9.4l-.6 1.4zm-35.7-.1L33 5c.3-.1.6-.3.9-.4l.6 1.4c-.3.1-.6.2-.9.4zm32.9-1l-.9-.3.5-1.4c.3.1.6.2 1 .4l-.6 1.3zm-30.1-.1l-.5-1.4 1-.3.5 1.4a1.69 1.69 0 0 0-1 .3zm27.3-.9l-1-.3.4-1.5 1 .3-.4 1.5zm-24.5-.1l-.4-1.5 1-.3.4 1.5-1 .3zm21.6-.7c-.3-.1-.6-.1-1-.2l.3-1.4c.3.1.7.1 1 .2l-.3 1.4zm-18.7 0l-.3-1.5c.3-.1.7-.1 1-.2l.3 1.5c-.4 0-.7.1-1 .2zm15.8-.5c-.3 0-.7-.1-1-.1l.2-1.5c.3 0 .7.1 1 .1l-.2 1.5zM45 3.1l-.2-1.5c.3 0 .7-.1 1-.1l.2 1.4c-.3.1-.7.1-1 .2zm9.9-.4c-.3 0-.7-.1-1-.1l.1-1.4c.3 0 .7 0 1 .1l-.1 1.4zm-6.9 0l-.1-1.5c.3 0 .7 0 1-.1l.1 1.6h-1zm4-.1h-.9V1.1h1.1L52 2.6z"/><path d="M91.1 46.5c0-21.9-17.8-39.8-39.8-39.8-.9 0-1.9 0-2.9.1C28.8 8.2 13 24.1 11.6 43.7c-.8 11.2 3 21.8 10.7 30 7.2 7.7 11.9 17.8 13.2 28.6h-4.4v4h-2.2v1.5h2.2v2.5h-2.2v1.5h2.2v2.5h-2.2v1.5h2.2v4h40.3v-4h2.2v-1.5h-2.2v-2.5h2.2v-1.5h-2.2v-2.5h2.2v-1.5h-2.2v-4H67c1.3-10.8 6-20.8 13.5-29 6.8-7.3 10.6-16.8 10.6-26.8zm-21.2 71.8H32.7v-2.5h37.2v2.5zm0-4H32.7v-2.5h37.2v2.5zm0-4H32.7v-2.5h37.2v2.5zm0-6.4v2.5H32.7v-2.5h37.2zm-4.4-1.5H37.1c-1.3-11.2-6.2-21.7-13.7-29.7-7.4-7.8-11-18.1-10.3-28.8 1.3-19 16.5-34.2 35.4-35.6.9-.1 1.8-.1 2.8-.1 21.1 0 38.2 17.2 38.2 38.3 0 9.6-3.6 18.8-10.1 25.9-7.7 8.4-12.5 18.8-13.9 30z"/></g><path fill="#ffd05b" d="M77.2,45.4C77,31.2,65.5,19.8,51.3,19.8v25.6H77.2z"/><path fill="#fff" d="M51.3 45.4v26.2c7.2 0 13.8-3 18.5-7.8L51.3 45.4z"/><path fill="#84dbff" d="M77.2 45.4H51.3l18.5 18.5c4.6-4.7 7.4-11.1 7.4-18.1v-.4z"/><path fill="#ff7058" d="M51.1 45.4l-18-18.1c-4.7 4.6-7.6 11-7.7 18.1v.3a25.91 25.91 0 0 0 25.9 25.9V45.4h-.2z"/><path fill="#fff" d="M51.3 45.4V19.8c-7.1 0-13.5 2.9-18.2 7.5l18.1 18.1h.1z"/><g fill="#231f20"><path d="M121.3 82.1h1.5v35.1h-1.5zm-5 6.1h1.5v29h-1.5zm-4.9 5.3h1.5v23.7h-1.5zm-4.9-3.9h1.5v27.6h-1.5zm-5 1.2h1.5v26.4h-1.5zM96.6 102h1.5v15.2h-1.5zm-5-8.5h1.5v23.7h-1.5zm-4.9 12.9h1.5v10.8h-1.5zm17-94.5c-.2 0-.4-.1-.5-.2-.3-.3-.3-.8 0-1.1l1.3-1.3c.3-.3.8-.3 1.1 0s.3.8 0 1.1l-1.3 1.3c-.3.1-.4.2-.6.2zm-4.1 4c-.2 0-.4-.1-.5-.2-.3-.3-.3-.8 0-1.1l1.3-1.3c.3-.3.8-.3 1.1 0s.3.8 0 1.1l-1.3 1.3c-.2.2-.4.2-.6.2zm5.4 0c-.2 0-.4-.1-.5-.2l-1.3-1.3c-.3-.3-.3-.8 0-1.1s.8-.3 1.1 0l1.3 1.3c.3.3.3.8 0 1.1-.3.2-.4.2-.6.2zm-4.1-4c-.2 0-.4-.1-.5-.2L99 10.3c-.3-.3-.3-.8 0-1.1s.8-.3 1.1 0l1.3 1.3c.3.3.3.8 0 1.1a.55.55 0 0 1-.5.3z"/><use xlink:href="#B"/><path d="M9.6 98c-.2 0-.4-.1-.5-.2-.3-.3-.3-.8 0-1.1l1.3-1.3c.3-.3.8-.3 1.1 0s.3.8 0 1.1l-1.3 1.3c-.2.2-.4.2-.6.2zm5.4 0c-.2 0-.4-.1-.5-.2l-1.3-1.3c-.3-.3-.3-.8 0-1.1s.8-.3 1.1 0l1.3 1.3c.3.3.3.8 0 1.1-.2.2-.4.2-.6.2z"/><use xlink:href="#C"/><use xlink:href="#B" x="94.9" y="-29.9"/><use xlink:href="#B" x="90.8" y="-25.8"/><use xlink:href="#C" x="99" y="-25.8"/><use xlink:href="#C" x="94.9" y="-29.9"/><path d="M15 123.4H7.4c-.4 0-.8-.3-.8-.8s.3-.8.8-.8H15c.4 0 .8.3.8.8s-.4.8-.8.8zm5 0h-2.1c-.4 0-.8-.3-.8-.8s.3-.8.8-.8H20c.4 0 .8.3.8.8s-.4.8-.8.8zm-2.9 2.7H15c-.4 0-.8-.3-.8-.8s.3-.8.8-.8h2.1c.4 0 .8.3.8.8s-.4.8-.8.8z"/></g><circle fill="#ff7058" cx="126.3" cy="30.5" r="3.2"/><circle fill="#e6e9ee" cx="3.2" cy="73.8" r="3.2"/><circle fill="#84dbff" cx="3.2" cy="3.8" r="3.2"/><path fill="#231f20" d="M51.3 19c-14.7 0-26.7 12-26.7 26.7s12 26.7 26.7 26.7S78 60.4 78 45.7 66 19 51.3 19zm25.1 25.6H52.1v-24c13.1.4 23.7 10.9 24.3 24zm-25.9-1L34.2 27.3c4.3-4 10.1-6.6 16.4-6.7v23zm1.6 3.7l16.6 16.6c-4.3 4.2-10.2 6.8-16.6 7V47.3zm-25.9-1.6c0-6.7 2.6-12.8 6.9-17.3l17.4 17.4v25.1C37 70.4 26.2 59.3 26.2 45.7zm43.6 17L53.1 46.1h23.4c-.2 6.4-2.7 12.2-6.7 16.6z"/><defs ><path id="B" d="M13.7 94c-.2 0-.4-.1-.5-.2-.3-.3-.3-.8 0-1.1l1.3-1.3c.3-.3.8-.3 1.1 0s.3.8 0 1.1l-1.3 1.3c-.2.1-.4.2-.6.2z"/><path id="C" d="M10.9 94c-.2 0-.4-.1-.5-.2l-1.3-1.3c-.3-.3-.3-.8 0-1.1s.8-.3 1.1 0l1.3 1.3c.3.3.3.8 0 1.1-.2.1-.4.2-.6.2z"/></defs></svg>