<?xml version="1.0" encoding="utf-8"?>
<!-- Generator: Adobe Illustrator 18.0.0, SVG Export Plug-In . SVG Version: 6.00 Build 0)  -->
<!DOCTYPE  svg PUBLIC "-//W3C//DTD SVG 1.1//EN" "http://www.w3.org/Graphics/SVG/1.1/DTD/svg11.dtd">
<svg  width="100px" height="100px" version="1.1" id="Layer_1" xmlns="http://www.w3.org/2000/svg" xmlns:xlink="http://www.w3.org/1999/xlink" x="0px" y="0px"
	 viewBox="0 0 129.5 129.5" enable-background="new 0 0 129.5 129.5" xml:space="preserve">
<g>
	<g>
		<polygon fill="#FFFFFF" points="66.9,79.7 73.2,20.8 49.5,20.8 55.8,79.7 		"/>
		<circle fill="#FFFFFF" cx="61.4" cy="17.4" r="16.6"/>
		<rect x="13.7" y="30.9" fill="#FFFFFF" width="9.8" height="37.1"/>
		<g>
			<rect x="1.4" y="26.4" fill="#84DBFF" width="15" height="46.1"/>
		</g>
		<path fill="#FFFFFF" d="M75.1,66.3h-9.4c-2.2,0-3.9-1.7-3.9-3.9l0,0c0-2.2,1.7-3.9,3.9-3.9h9.4c2.2,0,3.9,1.7,3.9,3.9l0,0
			C79,64.6,77.2,66.3,75.1,66.3z"/>
		<path fill="#FFFFFF" d="M78.8,58.5H64.2c-2.2,0-3.9-1.7-3.9-3.9l0,0c0-2.2,1.7-3.9,3.9-3.9h14.5c2.2,0,3.9,1.7,3.9,3.9l0,0
			C82.7,56.8,80.9,58.5,78.8,58.5z"/>
		<path fill="#FFFFFF" d="M82.3,50.9h-18c-2.2,0-3.9-1.7-3.9-3.9l0,0c0-2.2,1.7-3.9,3.9-3.9h18c2.2,0,3.9,1.7,3.9,3.9l0,0
			C86.2,49.2,84.4,50.9,82.3,50.9z"/>
		<path fill="#FFFFFF" d="M80.3,43.1H64.1c-2.1,0-3.8-1.7-3.8-3.8v-0.3c0-2.1,1.7-3.8,3.8-3.8h16.2c2.1,0,3.8,1.7,3.8,3.8v0.3
			C84.1,41.4,82.4,43.1,80.3,43.1z"/>
		<path fill="#FFFFFF" d="M43.6,47L43.6,47c5.4,0,9.8-4.4,9.8-9.8l0,0h14.7c5.2,0,9.4-4.2,9.4-9.4l0,0H39.7L30.3,36h-6.8"/>
		<rect x="25.1" y="79.7" fill="#FFFFFF" width="72.5" height="10.1"/>
		<rect x="30" y="89.9" fill="#E6E9EE" width="62.8" height="6"/>
		<path fill="#231F20" d="M97.6,79H67.8L69,67.1h6.1c2.6,0,4.7-2.1,4.7-4.7c0-1.2-0.5-2.3-1.3-3.1h0.3c2.6,0,4.7-2.1,4.7-4.7
			c0-1.1-0.4-2.2-1.1-3c2.5,0,4.6-2.1,4.6-4.6c0-2.1-1.5-3.9-3.4-4.5c0.8-0.8,1.3-2,1.3-3.2v-0.3c0-2.5-2-4.5-4.5-4.5h-4.6
			c1.6-1.8,2.6-4.1,2.6-6.7c0-0.4-0.3-0.8-0.8-0.8h-1.7c1.9-2.8,3-6.1,3-9.7C78.7,7.8,70.9,0,61.4,0C51.8,0,44,7.8,44,17.4
			c0,3.6,1.1,6.9,3,9.7h-7.2c-0.2,0-0.3,0.1-0.5,0.2l-9.2,8h-5.8v-4.4c0-0.4-0.3-0.8-0.8-0.8h-7.2v1.5h6.4v35.6h-6.4v1.5h7.2
			c0.4,0,0.8-0.3,0.8-0.8v-5h8.6l3.9,3.9c0.1,0.1,0.3,0.2,0.5,0.2h16.3L54.9,79H25.1c-0.4,0-0.8,0.3-0.8,0.8v10.1
			c0,0.4,0.3,0.8,0.8,0.8h4.1v5.3c0,0.4,0.3,0.8,0.8,0.8h62.8c0.4,0,0.8-0.3,0.8-0.8v-5.3h4.1c0.4,0,0.8-0.3,0.8-0.8V79.7
			C98.3,79.3,98,79,97.6,79z M75.1,65.6h-9.4c-1.7,0-3.2-1.4-3.2-3.2c0-1.7,1.4-3.1,3.2-3.1h9.4c1.7,0,3.2,1.4,3.2,3.1
			C78.2,64.2,76.8,65.6,75.1,65.6z M78.8,57.8H64.2c-1.7,0-3.2-1.4-3.2-3.2c0-1.5,1-2.7,2.4-3c0.3,0,16.3,0.1,16.3,0.1
			c1.2,0.4,2.1,1.6,2.1,3C81.9,56.4,80.5,57.8,78.8,57.8z M85.4,47c0,1.7-1.4,3.2-3.2,3.2H80C79.6,50,63.7,50,63.4,50
			c-1.4-0.3-2.4-1.6-2.4-3c0-1.7,1.4-3.2,3.2-3.2h18C84,43.8,85.4,45.3,85.4,47z M80.3,36c1.7,0,3,1.4,3,3v0.3c0,1.7-1.4,3-3,3H64.1
			c-1.7,0-3-1.4-3-3v-0.3c0-0.4,0.1-0.8,0.2-1.1h6.8c2.2,0,4.3-0.7,5.9-1.9H80.3z M45.5,17.4c0-8.8,7.1-15.9,15.9-15.9
			c8.8,0,15.9,7.1,15.9,15.9c0,3.7-1.3,7-3.3,9.7H48.8C46.7,24.4,45.5,21,45.5,17.4z M37.6,65.6l-3.9-3.9c-0.1-0.1-0.3-0.2-0.5-0.2
			h-8.9V36.8h6.1c0.2,0,0.3-0.1,0.5-0.2l9.2-8h36.7c-0.4,4.4-4.1,7.9-8.6,7.9H53.4c-0.4,0-0.8,0.3-0.8,0.8c0,5-4.1,9-9,9
			c-0.4,0-0.8,0.3-0.8,0.8c0,0.4,0.3,0.8,0.8,0.8c3,0,5.7-1.3,7.6-3.3l2.3,21.1H37.6z M52.6,42.8c0.9-1.4,1.4-3,1.6-4.8h5.6
			c-0.1,0.3-0.1,0.7-0.1,1.1v0.3c0,1.6,0.8,3,2.1,3.8c-1.3,0.8-2.1,2.3-2.1,3.9c0,1.6,0.8,3,2,3.8c-1.2,0.8-2,2.2-2,3.8
			c0,2,1.3,3.7,3,4.3c-1,0.8-1.6,2.1-1.6,3.5c0,2.6,2.1,4.7,4.7,4.7h1.8L66.2,79h-9.8L52.6,42.8z M92,95.1H30.7v-4.5H92V95.1z
			 M96.8,89.1h-71v-8.6h71V89.1z"/>
		<g>
			<polygon fill="#FF7058" points="73.6,108.8 69.1,104.3 61.4,112 53.6,104.3 49.1,108.8 56.9,116.5 49.1,124.2 53.6,128.7 
				61.4,121 69.1,128.7 73.6,124.2 65.9,116.5 			"/>
			<path fill="#231F20" d="M69.1,129.5c-0.2,0-0.4-0.1-0.5-0.2l-7.2-7.2l-7.2,7.2c-0.1,0.1-0.3,0.2-0.5,0.2l0,0
				c-0.2,0-0.4-0.1-0.5-0.2l-4.5-4.5c-0.3-0.3-0.3-0.8,0-1.1l7.2-7.2l-7.2-7.2c-0.3-0.3-0.3-0.8,0-1.1l4.5-4.5
				c0.3-0.3,0.8-0.3,1.1,0l7.2,7.2l7.2-7.2c0.1-0.1,0.3-0.2,0.5-0.2l0,0c0.2,0,0.4,0.1,0.5,0.2l4.5,4.5c0.3,0.3,0.3,0.8,0,1.1
				l-7.2,7.2l7.2,7.2c0.3,0.3,0.3,0.8,0,1.1l-4.5,4.5C69.5,129.4,69.3,129.5,69.1,129.5z M61.4,120.3L61.4,120.3
				c0.2,0,0.4,0.1,0.5,0.2l7.2,7.2l3.4-3.4l-7.2-7.2c-0.3-0.3-0.3-0.8,0-1.1l7.2-7.2l-3.4-3.4l-7.2,7.2c-0.3,0.3-0.8,0.3-1.1,0
				l-7.2-7.2l-3.4,3.4l7.2,7.2c0.3,0.3,0.3,0.8,0,1.1l-7.2,7.2l3.4,3.4l7.2-7.2C61,120.3,61.2,120.3,61.4,120.3z"/>
		</g>
		<g>
			<g>
				<path fill="#FFFFFF" d="M118.4,7.4l-4.4-2l-0.1,0.3c-0.9,1.7-2.8,2.6-4.7,2.5c-0.4,0-0.7,0-1.1,0c-1.9,0-3.7-1-4.6-2.7l-0.1-0.3
					l-4.5,1.7L99,7.1c0.5,1.9-0.1,3.8-1.6,5.1c-0.3,0.2-0.6,0.5-0.8,0.8c-1.3,1.4-3.3,1.9-5.1,1.3l-0.3-0.1l-2,4.4l0.3,0.1
					c1.7,0.9,2.6,2.8,2.5,4.7c0,0.4,0,0.7,0,1.1c0,1.9-1,3.7-2.7,4.6l-0.3,0.1l1.7,4.5l0.3-0.1c1.9-0.5,3.8,0.1,5.1,1.6
					c0.2,0.3,0.5,0.6,0.8,0.8c1.4,1.3,1.9,3.3,1.3,5.1l-0.1,0.3l4.4,2l0.1-0.3c0.9-1.7,2.8-2.6,4.7-2.5c0.4,0,0.7,0,1.1,0
					c1.9,0,3.7,1,4.6,2.7l0.1,0.3l4.5-1.7l-0.1-0.3c-0.5-1.9,0.1-3.8,1.6-5.1c0.3-0.2,0.6-0.5,0.8-0.8c1.3-1.4,3.3-1.9,5.1-1.3
					l0.3,0.1l2-4.4l-0.3-0.1c-1.7-0.9-2.6-2.8-2.5-4.7c0-0.4,0-0.7,0-1.1c0-1.9,1-3.7,2.7-4.6l0.3-0.1l-1.7-4.5l-0.3,0.1
					c-1.9,0.5-3.8-0.1-5.1-1.6c-0.2-0.3-0.5-0.6-0.8-0.8c-1.4-1.3-1.9-3.3-1.3-5.1L118.4,7.4z"/>
				<path fill="#231F20" d="M112.9,44.4c-0.3,0-0.5-0.2-0.7-0.4l-0.1-0.3c-0.7-1.4-2.2-2.3-3.9-2.3c-0.4,0-0.8,0-1.2,0
					c-1.7-0.1-3.2,0.7-4,2.1l-0.1,0.3c-0.2,0.3-0.6,0.5-1,0.3l-4.4-2c-0.4-0.2-0.5-0.6-0.4-0.9l0.1-0.3c0.5-1.5,0.1-3.2-1.1-4.4
					c-0.3-0.3-0.5-0.6-0.8-0.9c-1.1-1.2-2.8-1.8-4.3-1.4l-0.3,0.1c-0.4,0.1-0.8-0.1-0.9-0.5l-1.7-4.5c-0.1-0.4,0-0.8,0.4-0.9
					l0.3-0.1c1.4-0.7,2.3-2.2,2.3-3.9c0-0.4,0-0.8,0-1.2c0.1-1.7-0.7-3.2-2.1-4l-0.3-0.1c-0.3-0.2-0.5-0.6-0.3-1l2-4.4
					c0.2-0.4,0.6-0.5,0.9-0.4l0.3,0.1c1.5,0.5,3.2,0.1,4.4-1.1c0.3-0.3,0.6-0.5,0.9-0.8c1.3-1.1,1.8-2.8,1.4-4.3L98.2,7
					c-0.1-0.4,0.1-0.8,0.5-0.9l4.5-1.7c0.4-0.1,0.8,0,0.9,0.4l0.1,0.3c0.7,1.4,2.2,2.3,3.9,2.3c0.4,0,0.8,0,1.2,0
					c1.7,0.1,3.2-0.7,4-2.1l0.1-0.3c0.2-0.3,0.6-0.5,1-0.3l4.4,2c0.4,0.2,0.5,0.6,0.4,0.9L119,7.9c-0.5,1.5-0.1,3.2,1.1,4.4
					c0.3,0.3,0.5,0.6,0.8,0.9c1.1,1.2,2.8,1.8,4.3,1.4l0.3-0.1c0.4-0.1,0.8,0.1,0.9,0.5l1.7,4.5c0.1,0.4,0,0.8-0.4,0.9l-0.3,0.1
					c-1.4,0.7-2.3,2.2-2.3,3.9c0,0.4,0,0.8,0,1.2c-0.1,1.7,0.7,3.2,2.1,4l0.3,0.1c0.3,0.2,0.5,0.6,0.3,1l-2,4.4
					c-0.2,0.4-0.6,0.5-0.9,0.4l-0.3-0.1c-1.5-0.5-3.2-0.1-4.4,1.1c-0.3,0.3-0.6,0.5-0.9,0.8c-1.3,1.1-1.8,2.8-1.4,4.3l0.1,0.3
					c0.1,0.4-0.1,0.8-0.5,0.9l-4.5,1.7C113.1,44.4,113,44.4,112.9,44.4z M106.7,39.8c0.1,0,0.3,0,0.4,0c0.3,0,0.7,0,1,0
					c2.2,0,4.1,1.1,5.1,2.8l3.2-1.2c-0.4-2,0.3-4,1.9-5.5c0.3-0.2,0.5-0.5,0.8-0.7c1.5-1.5,3.6-2.1,5.5-1.6l1.4-3.1
					c-1.7-1.1-2.6-3.1-2.5-5.2c0-0.4,0-0.7,0-1.1c0-2.1,1.1-4,2.8-5.1l-1.2-3.2c-2,0.4-4.1-0.3-5.5-1.9c-0.2-0.3-0.5-0.5-0.7-0.8
					c-1.5-1.5-2.1-3.6-1.6-5.5l-3.1-1.4c-1.1,1.7-3.1,2.6-5.2,2.5c-0.3,0-0.7,0-1,0c0,0,0,0,0,0c-2.2,0-4.1-1.1-5.1-2.8l-3.2,1.2
					c0.4,2-0.3,4-1.9,5.5c-0.3,0.2-0.5,0.5-0.8,0.7c-1.5,1.5-3.6,2.1-5.5,1.6l-1.4,3.1c1.7,1.1,2.6,3.1,2.5,5.2c0,0.4,0,0.7,0,1.1
					c0,2.1-1.1,4-2.8,5.1l1.2,3.2c2-0.4,4.1,0.3,5.5,1.9c0.2,0.3,0.5,0.5,0.7,0.8c1.5,1.5,2.1,3.6,1.6,5.5l3.1,1.4
					C103,40.8,104.8,39.8,106.7,39.8z"/>
			</g>
			<g>
				<path fill="#231F20" d="M108.1,37.5c-0.2,0-0.3,0-0.5,0l0.1-1.5c0.3,0,0.6,0,0.9,0l0.1,1.5C108.5,37.5,108.3,37.5,108.1,37.5z
					 M105.5,37.2c-0.3-0.1-0.7-0.2-1-0.3l0.4-1.4c0.3,0.1,0.6,0.2,0.9,0.2L105.5,37.2z M110.8,37.2l-0.3-1.5
					c0.3-0.1,0.6-0.1,0.9-0.2l0.4,1.4C111.5,37,111.1,37.1,110.8,37.2z M102.5,36.2c-0.3-0.2-0.6-0.3-0.9-0.5l0.7-1.3
					c0.3,0.2,0.5,0.3,0.8,0.4L102.5,36.2z M113.8,36.2l-0.7-1.4c0.3-0.1,0.6-0.3,0.8-0.4l0.8,1.3C114.4,35.8,114.1,36,113.8,36.2z
					 M99.8,34.5c-0.3-0.2-0.5-0.5-0.8-0.7l1-1.1c0.2,0.2,0.5,0.4,0.7,0.6L99.8,34.5z M116.5,34.4l-1-1.2c0.2-0.2,0.5-0.4,0.7-0.6
					l1,1.1C117,34,116.7,34.2,116.5,34.4z M97.6,32.2c-0.2-0.3-0.4-0.6-0.6-0.9l1.3-0.8c0.2,0.3,0.3,0.5,0.5,0.8L97.6,32.2z
					 M118.7,32.1l-1.2-0.9c0.2-0.3,0.4-0.5,0.5-0.8l1.3,0.8C119.1,31.6,118.9,31.8,118.7,32.1z M96.1,29.5c-0.1-0.3-0.3-0.7-0.4-1
					l1.4-0.5c0.1,0.3,0.2,0.6,0.3,0.9L96.1,29.5z M120.2,29.4l-1.4-0.6c0.1-0.3,0.2-0.6,0.3-0.9l1.4,0.5
					C120.5,28.7,120.3,29,120.2,29.4z M95.2,26.4c-0.1-0.3-0.1-0.7-0.1-1.1l1.5-0.1c0,0.3,0.1,0.6,0.1,0.9L95.2,26.4z M121.1,26.3
					l-1.5-0.2c0-0.3,0.1-0.6,0.1-0.9l1.5,0.1C121.2,25.6,121.1,26,121.1,26.3z M96.6,23.4l-1.5-0.1c0-0.4,0.1-0.7,0.1-1l1.5,0.2
					C96.6,22.7,96.6,23,96.6,23.4z M119.7,23.3c0-0.3-0.1-0.6-0.1-0.9l1.5-0.3c0.1,0.3,0.1,0.7,0.1,1L119.7,23.3z M97.2,20.6
					l-1.4-0.5c0.1-0.3,0.2-0.7,0.4-1l1.4,0.6C97.4,20,97.3,20.3,97.2,20.6z M119,20.5c-0.1-0.3-0.2-0.6-0.3-0.9l1.4-0.6
					c0.1,0.3,0.3,0.7,0.4,1L119,20.5z M98.4,18.1l-1.3-0.8c0.2-0.3,0.4-0.6,0.6-0.9l1.2,0.9C98.7,17.6,98.6,17.8,98.4,18.1z
					 M117.8,18c-0.2-0.3-0.4-0.5-0.5-0.8l1.2-0.9c0.2,0.3,0.4,0.6,0.6,0.9L117.8,18z M100.2,15.9l-1-1.1c0.3-0.2,0.5-0.5,0.8-0.7
					l0.9,1.2C100.7,15.5,100.4,15.7,100.2,15.9z M116,15.9c-0.2-0.2-0.5-0.4-0.7-0.6l0.9-1.2c0.3,0.2,0.5,0.4,0.8,0.7L116,15.9z
					 M102.5,14.3l-0.7-1.3c0.3-0.2,0.6-0.3,0.9-0.5l0.6,1.4C103,14,102.7,14.1,102.5,14.3z M113.7,14.2c-0.3-0.1-0.6-0.3-0.8-0.4
					l0.6-1.4c0.3,0.1,0.6,0.3,0.9,0.5L113.7,14.2z M111.5,13.3c-0.3-0.1-0.6-0.2-0.9-0.2l0.3-1.5c0.3,0.1,0.7,0.2,1,0.3L111.5,13.3z
					 M105.1,13.2l-0.4-1.4c0.3-0.1,0.7-0.2,1-0.2L106,13C105.7,13,105.4,13.1,105.1,13.2z M108.8,12.8c-0.2,0-0.4,0-0.7,0l-0.3,0
					l0-1.5l0.3,0c0.2,0,0.5,0,0.7,0L108.8,12.8z"/>
			</g>
			<g>
				<circle fill="#FFD05B" cx="108.1" cy="24.4" r="9.8"/>
			</g>
			<g>
				<circle fill="#FFFFFF" cx="108.1" cy="24.4" r="4.9"/>
				<path fill="#231F20" d="M108.1,30c-0.8,0-1.6-0.2-2.3-0.5c-1.4-0.6-2.4-1.7-3-3.1c-0.5-1.4-0.5-2.9,0.1-4.3
					c0.9-2,2.9-3.3,5.2-3.3c0.8,0,1.6,0.2,2.3,0.5c1.4,0.6,2.4,1.7,3,3.1c0.5,1.4,0.5,2.9-0.1,4.3C112.4,28.7,110.3,30,108.1,30z
					 M108.1,20.2c-1.6,0-3.1,1-3.8,2.4c-0.5,1-0.5,2.1-0.1,3.2c0.4,1,1.2,1.9,2.2,2.3c0.5,0.2,1.1,0.4,1.7,0.4c1.6,0,3.1-1,3.8-2.4
					c0.5-1,0.5-2.1,0.1-3.2c-0.4-1-1.2-1.9-2.2-2.3C109.3,20.4,108.7,20.2,108.1,20.2z"/>
			</g>
		</g>
		<g>
			<g>
				<g>
					<path fill="#231F20" d="M34,111.4c-0.2,0-0.4-0.1-0.5-0.2c-0.3-0.3-0.3-0.8,0-1.1l1.3-1.3c0.3-0.3,0.8-0.3,1.1,0
						c0.3,0.3,0.3,0.8,0,1.1l-1.3,1.3C34.4,111.3,34.2,111.4,34,111.4z"/>
				</g>
				<g>
					<path fill="#231F20" d="M29.9,115.4c-0.2,0-0.4-0.1-0.5-0.2c-0.3-0.3-0.3-0.8,0-1.1l1.3-1.3c0.3-0.3,0.8-0.3,1.1,0
						c0.3,0.3,0.3,0.8,0,1.1l-1.3,1.3C30.3,115.4,30.1,115.4,29.9,115.4z"/>
				</g>
				<g>
					<path fill="#231F20" d="M35.3,115.4c-0.2,0-0.4-0.1-0.5-0.2l-1.3-1.3c-0.3-0.3-0.3-0.8,0-1.1c0.3-0.3,0.8-0.3,1.1,0l1.3,1.3
						c0.3,0.3,0.3,0.8,0,1.1C35.6,115.4,35.4,115.4,35.3,115.4z"/>
				</g>
				<g>
					<path fill="#231F20" d="M31.2,111.4c-0.2,0-0.4-0.1-0.5-0.2l-1.3-1.3c-0.3-0.3-0.3-0.8,0-1.1c0.3-0.3,0.8-0.3,1.1,0l1.3,1.3
						c0.3,0.3,0.3,0.8,0,1.1C31.6,111.3,31.4,111.4,31.2,111.4z"/>
				</g>
			</g>
			<g>
				<g>
					<path fill="#231F20" d="M96.3,69.2c-0.2,0-0.4-0.1-0.5-0.2c-0.3-0.3-0.3-0.8,0-1.1l1.3-1.3c0.3-0.3,0.8-0.3,1.1,0
						c0.3,0.3,0.3,0.8,0,1.1L96.8,69C96.6,69.1,96.5,69.2,96.3,69.2z"/>
				</g>
				<g>
					<path fill="#231F20" d="M92.2,73.2c-0.2,0-0.4-0.1-0.5-0.2c-0.3-0.3-0.3-0.8,0-1.1l1.3-1.3c0.3-0.3,0.8-0.3,1.1,0
						c0.3,0.3,0.3,0.8,0,1.1L92.8,73C92.6,73.2,92.4,73.2,92.2,73.2z"/>
				</g>
				<g>
					<path fill="#231F20" d="M97.6,73.2c-0.2,0-0.4-0.1-0.5-0.2l-1.3-1.3c-0.3-0.3-0.3-0.8,0-1.1c0.3-0.3,0.8-0.3,1.1,0l1.3,1.3
						c0.3,0.3,0.3,0.8,0,1.1C97.9,73.2,97.7,73.2,97.6,73.2z"/>
				</g>
				<g>
					<path fill="#231F20" d="M93.5,69.2c-0.2,0-0.4-0.1-0.5-0.2l-1.3-1.3c-0.3-0.3-0.3-0.8,0-1.1c0.3-0.3,0.8-0.3,1.1,0l1.3,1.3
						c0.3,0.3,0.3,0.8,0,1.1C93.9,69.1,93.7,69.2,93.5,69.2z"/>
				</g>
			</g>
			<g>
				<g>
					<path fill="#231F20" d="M31.3,16.8c-0.2,0-0.4-0.1-0.5-0.2c-0.3-0.3-0.3-0.8,0-1.1l1.3-1.3c0.3-0.3,0.8-0.3,1.1,0
						c0.3,0.3,0.3,0.8,0,1.1l-1.3,1.3C31.7,16.7,31.5,16.8,31.3,16.8z"/>
				</g>
				<g>
					<path fill="#231F20" d="M27.3,20.8c-0.2,0-0.4-0.1-0.5-0.2c-0.3-0.3-0.3-0.8,0-1.1l1.3-1.3c0.3-0.3,0.8-0.3,1.1,0
						c0.3,0.3,0.3,0.8,0,1.1l-1.3,1.3C27.7,20.7,27.5,20.8,27.3,20.8z"/>
				</g>
				<g>
					<path fill="#231F20" d="M32.6,20.8c-0.2,0-0.4-0.1-0.5-0.2l-1.3-1.3c-0.3-0.3-0.3-0.8,0-1.1c0.3-0.3,0.8-0.3,1.1,0l1.3,1.3
						c0.3,0.3,0.3,0.8,0,1.1C33,20.7,32.8,20.8,32.6,20.8z"/>
				</g>
				<g>
					<path fill="#231F20" d="M28.6,16.8c-0.2,0-0.4-0.1-0.5-0.2l-1.3-1.3c-0.3-0.3-0.3-0.8,0-1.1c0.3-0.3,0.8-0.3,1.1,0l1.3,1.3
						c0.3,0.3,0.3,0.8,0,1.1C29,16.7,28.8,16.8,28.6,16.8z"/>
				</g>
			</g>
			<g>
				<circle fill="#FF7058" cx="98.3" cy="123.2" r="2.3"/>
			</g>
			<g>
				<circle fill="#84DBFF" cx="86.2" cy="3" r="2.3"/>
			</g>
			<g>
				<circle fill="#FFD05B" cx="120.5" cy="87.6" r="1.5"/>
			</g>
			<g>
				<circle fill="#4CDBC4" cx="8.9" cy="93.6" r="2.3"/>
			</g>
			<g>
				<circle fill="#FFD05B" cx="13.7" cy="12" r="2.3"/>
			</g>
			<g>
				<path fill="#231F20" d="M116.7,74.5c-2.5,0-4.5-2-4.5-4.5c0-2.5,2-4.5,4.5-4.5c2.5,0,4.5,2,4.5,4.5
					C121.2,72.5,119.2,74.5,116.7,74.5z M116.7,67.1c-1.6,0-3,1.3-3,3c0,1.6,1.3,3,3,3c1.6,0,3-1.3,3-3
					C119.7,68.4,118.4,67.1,116.7,67.1z"/>
			</g>
		</g>
	</g>
</g>
</svg>
