<svg xmlns="http://www.w3.org/2000/svg" xmlns:xlink="http://www.w3.org/1999/xlink" viewBox="0 0 129.5 129.5"><path fill="#fff" d="M86.4 105.8L60.2 79.6l2.9-4.3-2.1-1.2c-2-1.1-4.3-1.1-6.4-.1h-.1c-2.7 1.4-6.9 3-11.4 3.1L32 95.2l30.3 30.1a3.8 3.8 0 1 0 5.4-5.4l.8.8a3.9 3.9 0 0 0 5.4-.1 3.8 3.8 0 0 0 0-5.4l.7.7a3.8 3.8 0 1 0 5.4-5.4l.8.8a3.8 3.8 0 0 0 5.4 0c1.7-1.5 1.7-4 .2-5.5z"/><path fill="#231f20" d="M63.2 76.3c-.2 0-.3 0-.5-.1L60.5 75c-1.7-.9-3.7-1-5.4-.1-.5.2-1.1.1-1.3-.4-.3-.5-.1-1.1.4-1.3 2.3-1.2 5-1.1 7.3.1l2.2 1.2c.5.3.6.9.4 1.4-.2.2-.6.4-.9.4z"/><path fill="#324a5e" d="M128.5 38.6v53.6L111 103 87.1 63.9z"/><path fill="#fff" d="M29.173 102.63l-7.68-4.693 17.992-29.44 7.68 4.694z"/><path fill="#324a5e" d="M42.4 63.9L18.6 103 1 92.2V38.6z"/><g fill="#fff"><path d="M70.9 82.5l-1.8 1.6c-.8.8-1.8 1.3-2.9 1.5-1.3.3-2.7.2-4-.3-.9-.3-1.9-.1-2.4.7l-4.9 6.3c-.8 1-2.2 1.3-3.3.7-1.4-.8-1.9-2.5-1-3.9 1.1-1.8 2.3-4.2 3.3-6.1 1-2 2.4-3.8 4.1-5.1 4.5-3.5 10.5-4.1 15.6-1.5l.5.3c4.2 2.1 9.2 2.1 13.4-.1l.2-.1L100 96.2l-11.6 7.4c-1.5.9-3.4.7-4.7-.5L66.9 86.4"/><use xlink:href="#B"/><use xlink:href="#B" x="-4.8" y="-4.8"/><use xlink:href="#B" x="4.8" y="4.8"/><use xlink:href="#B" x="9.6" y="9.6"/><path d="M82.364 73.17l7.68-4.693 17.992 29.44-7.68 4.694z"/></g><path fill="#231f20" d="M85.7 63.6l2.8 4.6-7.5 4.6 2.5 4.1c-3 .7-6.2.3-9-1.1l-.5-.3c-3.3-1.7-7.1-2.1-10.6-1.3l-1.9-1.1c-2.2-1.2-5-1.3-7.4-.1-1.8.9-4.4 2-7.3 2.6l1.7-2.8-7.5-4.6 2.8-4.6L0 36.9v55.9l18.9 11.5 3-4.9 7.6 4.6 3.8-6.2 2 2c-.7 1.6-.3 3.5 1 4.8.8.8 1.9 1.3 3.1 1.3h.4v.4c0 1.2.5 2.3 1.3 3.1s1.9 1.3 3.1 1.3h.4v.4c0 1.2.5 2.3 1.3 3.1s1.9 1.3 3.1 1.3h.4c-.1 1.3.3 2.6 1.2 3.5.8.8 1.9 1.3 3.1 1.3.6 0 1.2-.1 1.8-.4l6.1 6.1a4.76 4.76 0 0 0 3.4 1.4 4.76 4.76 0 0 0 3.4-1.4c.9-1 1.4-2.2 1.4-3.5 1.7.5 3.5 0 4.8-1.2.9-.9 1.4-2.2 1.4-3.5.4.1.9.2 1.4.2a4.76 4.76 0 0 0 3.4-1.4c.9-1 1.4-2.2 1.4-3.5.4.1.9.2 1.4.2a4.76 4.76 0 0 0 4.8-4.8 4.76 4.76 0 0 0-1.4-3.4v-.1a4.49 4.49 0 0 0 1.8-.7l8.3-5.2 3 4.9 7.6-4.6 3 5 18.9-11.5v-56L85.7 63.6zm-67.5 38L2 91.7V40.4l39 23.9-22.8 37.3zm10.6-.3l-5.9-3.6 17-27.8 5.9 3.6-17 27.8zm12.2 2a2.46 2.46 0 0 1-3.3-.1 2.34 2.34 0 0 1-.7-1.7c0-.6.3-1.2.7-1.7l3.3-3.3a2.34 2.34 0 0 1 1.7-.7 2.34 2.34 0 0 1 2.4 2.4c0 .6-.2 1.2-.6 1.6l-3.5 3.5c0-.1 0-.1 0 0zm4.7 4.8a2.46 2.46 0 0 1-3.3-.1 2.34 2.34 0 0 1-.7-1.7c0-.6.2-1.2.6-1.6l3.5-3.5c.4-.4 1-.6 1.6-.6s1.2.3 1.7.7a2.34 2.34 0 0 1 .7 1.7c0 .6-.2 1.2-.6 1.6l-3.4 3.4s-.1 0-.1.1zm4.8 4.8a2.46 2.46 0 0 1-3.3-.1 2.34 2.34 0 0 1-.7-1.7c0-.6.2-1.2.6-1.6l3.5-3.5c.4-.4 1-.6 1.6-.6a2.34 2.34 0 0 1 2.4 2.4c0 .6-.2 1.2-.6 1.6l-3.5 3.5c.1-.1 0-.1 0 0zm4.9 4.7c-.9.9-2.5.9-3.4 0a2.46 2.46 0 0 1-.1-3.3l3.5-3.5c.4-.4 1-.6 1.6-.6s1.2.3 1.7.7a2.34 2.34 0 0 1 .7 1.7 2.34 2.34 0 0 1-.7 1.7l-3.3 3.3zm11.6 7c-1.1 1.1-3 1.1-4 0l-5.9-5.9 3-3c.4-.4.7-.8.9-1.3l6.1 6.1c1.1 1.2 1.1 3-.1 4.1zm18.7-14c-1.1 1.1-3 1.1-4 0l-10.4-10.5c-.4-.4-1-.4-1.4 0s-.4 1 0 1.4l9.7 9.7a2.84 2.84 0 0 1 0 4c-1.1 1.1-3 1.1-4 0l-9.9-9.9c-.4-.4-1-.4-1.4 0s-.4 1 0 1.4l9.1 9.1a2.84 2.84 0 0 1 0 4 2.94 2.94 0 0 1-4 .1l-8-8a4.2 4.2 0 0 0-1.2-2.5c-.8-.8-1.9-1.3-3.1-1.3h-.4c.1-1.3-.3-2.6-1.2-3.5-.8-.8-1.9-1.3-3.1-1.3H52v-.4c0-1.2-.5-2.3-1.3-3.1s-1.9-1.3-3.1-1.3h-.4v-.4c0-1.2-.5-2.3-1.3-3.1s-1.9-1.3-3.1-1.3-2.3.5-3.1 1.3l-3 3-2.1-2.1 11.1-18.2c3.8-.5 7.3-1.9 9.7-3.1 1.7-.9 3.8-.8 5.4.1l.3.2c-1.2.5-2.4 1.2-3.5 2-1.9 1.5-3.4 3.4-4.4 5.5-.8 1.8-2.1 4.2-3.2 6-.5.9-.7 1.9-.4 2.9s.9 1.9 1.9 2.4c1.5.8 3.5.4 4.5-1l4.9-6.3c.3-.4.8-.5 1.3-.3 1.3.5 2.8.7 4.2.4 0 .1 19.7 19.8 19.7 19.8.5.5.8 1.3.8 2-.4 1-.7 1.7-1.2 2.3zm2-7.9c-1.1.7-2.5.5-3.5-.4L68 86.1a6.57 6.57 0 0 0 1.7-1.2l1.8-1.6a1.07 1.07 0 0 0 .1-1.4 1.07 1.07 0 0 0-1.4-.1l-1.8 1.6c-.7.6-1.5 1.1-2.4 1.3-1.1.3-2.3.2-3.4-.2-1.3-.5-2.7-.1-3.6 1l-4.9 6.3c-.5.6-1.3.8-2 .4-.4-.2-.7-.6-.9-1.1a2.2 2.2 0 0 1 .2-1.4c1.2-1.9 2.4-4.4 3.3-6.2.9-1.9 2.2-3.5 3.9-4.8 4.1-3.2 9.8-3.8 14.5-1.4l.5.3c3.4 1.8 7.4 2.1 11 1.1L96 97.5l-8.3 5.2zm13-1.4l-17-27.8 5.9-3.6 17 27.8-5.9 3.6zm26.8-9.6l-16.2 9.9-22.8-37.3 39-23.9v51.3z"/><path fill="#fff" d="M103.1 29.6l-2.1-4.2-.3.1c-1.8.7-3.7.3-5.1-1-.3-.3-.6-.5-.8-.7-1.5-1.2-2.2-3.1-1.8-4.9l.1-.3-4.5-1.5-.1.3c-.8 1.7-2.5 2.8-4.4 2.9-.4 0-.7 0-1.1.1-1.9.2-3.7-.6-4.7-2.2l-.3-.3-4.2 2.1.1.3c.7 1.8.3 3.7-1 5.1-.3.3-.5.6-.7.8-1.2 1.5-3.1 2.2-4.9 1.8h-.4l-1.5 4.5.3.1c1.7.8 2.8 2.5 2.9 4.4 0 .4 0 .7.1 1.1.2 1.9-.6 3.7-2.2 4.7l-.2.2 2.1 4.2.3-.1c1.8-.7 3.7-.3 5.1 1 .3.3.6.5.8.7 1.5 1.2 2.2 3.1 1.8 4.9l-.1.3 4.5 1.5.1-.3c.8-1.7 2.5-2.8 4.4-2.9.4 0 .7 0 1.1-.1 1.9-.2 3.7.6 4.7 2.2l.2.3 4.2-2.1-.1-.3c-.7-1.8-.3-3.7 1-5.1.3-.3.5-.6.7-.8 1.2-1.5 3.1-2.2 4.9-1.8l.3.1 1.5-4.5-.3-.1c-1.7-.8-2.8-2.5-2.9-4.4 0-.4 0-.7-.1-1.1-.2-1.9.6-3.7 2.2-4.7l.4-.3z"/><g fill="#231f20"><path d="M80.9 56.3h-.2l-4.5-1.5c-.4-.1-.6-.5-.5-.9l.1-.3c.4-1.5-.2-3.1-1.5-4.2-.3-.2-.6-.5-.9-.8-1.2-1.1-2.9-1.5-4.4-.9l-.3.1c-.4.1-.8 0-.9-.4l-2.1-4.2c-.2-.3-.1-.8.3-1l.3-.2c1.3-.8 2-2.4 1.9-4 0-.4-.1-.8-.1-1.2-.1-1.7-1-3.1-2.5-3.7l-.3-.1c-.4-.2-.5-.6-.4-.9l1.5-4.5c.1-.4.5-.6.9-.5l.3.1c1.5.3 3.1-.3 4.2-1.5.2-.3.5-.6.8-.9 1.1-1.2 1.5-2.9.9-4.4l-.1-.3c-.1-.4 0-.8.4-.9l4.2-2.1c.3-.2.8-.1 1 .3l.2.3c.8 1.3 2.4 2 4 1.9.4 0 .8-.1 1.2-.1 1.7-.1 3.1-1 3.7-2.5l.1-.3c.2-.4.6-.5.9-.4l4.5 1.5c.4.1.6.5.5.9l-.4.3c-.4 1.5.2 3.1 1.5 4.2.3.2.6.5.9.8 1.2 1.1 2.9 1.5 4.4.9l.3-.1c.4-.1.8 0 .9.4l2.1 4.2c.2.3.1.8-.3 1l-.3.2c-1.3.8-2 2.4-1.9 4 0 .4.1.8.1 1.2.1 1.7 1 3.1 2.5 3.7l.3.1c.4.2.5.6.4.9l-1.5 4.5c-.1.4-.5.6-.9.5l-.3-.1c-1.5-.3-3.1.3-4.2 1.5-.2.3-.5.6-.8.9-1.1 1.2-1.5 2.9-.9 4.4l.1.3c.1.4 0 .8-.4.9l-4.2 2.1c-.3.2-.8.1-1-.3l-.2-.3c-.8-1.3-2.4-2-4-1.9-.4 0-.8.1-1.2.1-1.7.1-3.1 1-3.7 2.5l-.1.3c.1.2-.1.4-.4.4zm-3.6-2.7l3.2 1.1c.9-1.8 2.8-2.9 4.9-3 .4 0 .7 0 1.1-.1 2.1-.2 4.1.6 5.2 2.2l3-1.5c-.6-1.9-.1-4 1.3-5.6.2-.3.5-.5.7-.8 1.3-1.6 3.3-2.4 5.3-2.1l1.1-3.2c-1.8-.9-2.9-2.8-3-4.9 0-.4 0-.7-.1-1.1-.2-2.1.6-4.1 2.2-5.3l-1.5-3c-1.9.6-4 .1-5.6-1.3-.3-.2-.5-.5-.8-.7-1.6-1.3-2.4-3.3-2.1-5.3l-3.3-1c-.9 1.8-2.8 2.9-4.9 3-.4 0-.7 0-1.1.1-2.1.2-4.1-.6-5.3-2.2l-3 1.5c.6 1.9.1 4-1.3 5.6-.2.3-.5.5-.7.8-1.3 1.6-3.3 2.4-5.3 2.1l-1.1 3.2c1.8.9 2.9 2.8 3 4.9 0 .4 0 .7.1 1.1.2 2.1-.6 4.1-2.2 5.2l1.5 3c1.9-.6 4-.1 5.6 1.3.3.2.5.5.8.7 1.8 1.3 2.6 3.3 2.3 5.3z"/><path d="M84.7 49.3l-.1-1.5h.9l.1 1.5h-.9zm-2.1-.2c-.3-.1-.7-.1-1-.2l.4-1.4c.3.1.6.1.9.2l-.3 1.4zm5.2-.2l-.4-1.5.9-.3.5 1.4c-.3.2-.7.3-1 .4zm-8.3-.7c-.3-.1-.6-.3-1-.5l.7-1.3c.3.1.6.3.8.4l-.5 1.4zm11.3-.4l-.7-1.3c.3-.1.5-.3.8-.5l.8 1.3c-.3.1-.6.3-.9.5zm-14-1.2c-.3-.2-.6-.4-.8-.7l1-1.1c.2.2.5.4.7.6l-.9 1.2zm16.6-.6l-1-1.1c.2-.2.5-.4.7-.7l1.1 1c-.3.3-.6.5-.8.8zm-18.9-1.6l-.6-.9 1.2-.8c.2.3.4.5.5.8l-1.1.9zm20.9-.8l-1.2-.8.5-.8 1.3.7-.6.9zm-22.5-1.9c-.1-.3-.3-.6-.4-1l1.4-.5c.1.3.2.6.4.9l-1.4.6zm24-1l-1.4-.5.3-.9 1.4.4-.3 1zM72 38.6c-.1-.3-.1-.7-.1-1l1.5-.1c0 .3.1.6.1.9l-1.5.2zm25.6-.9l-1.5-.2c0-.3.1-.6.1-.9h1.5c-.1.4-.1.7-.1 1.1zm-24.3-2.1l-1.5-.1c0-.4.1-.7.1-1.1l1.5.2c-.1.4-.1.7-.1 1zm22.7-.9c0-.3-.1-.6-.2-.9l1.5-.3c.1.3.1.7.2 1l-1.5.2zm-22.2-1.9l-1.4-.5c.1-.3.2-.7.4-1l1.4.6c-.2.3-.3.6-.4.9zm21.5-.8c-.1-.3-.2-.6-.4-.9l1.3-.7c.2.3.3.6.4 1l-1.3.6zm-.8-1.6l-.5-.8 1.2-.9.6.9-1.3.8zM75 30.3l-1.3-.8.6-.9 1.2.9c-.2.3-.4.5-.5.8zm17.8-2.1c-.2-.2-.5-.4-.7-.6l1-1.1c.3.2.5.5.8.7l-1.1 1zm-16.1-.1l-1-1.1c.3-.2.5-.5.8-.7l.9 1.2c-.2.2-.5.4-.7.6zm13.8-1.6c-.3-.2-.5-.3-.8-.4l.7-1.3c.3.2.6.3.9.5l-.8 1.2zm-11.6-.1l-.7-1.3c.2-.1.4-.2.7-.4l.3-.1.6 1.3-.3.1c-.2.2-.4.3-.6.4zm9.1-1c-.3-.1-.6-.2-.9-.2l.3-1.5 1 .3-.4 1.4zm-6.5-.1l-.4-1.4 1-.3.3 1.5c-.3.1-.6.1-.9.2zm3.7-.4h-.9l-.1-1.5h1.1l-.1 1.5z"/></g><circle fill="#e6e9ee" cx="84.7" cy="36.3" r="9.7"/><circle fill="#fff" cx="84.7" cy="36.3" r="4.8"/><g fill="#231f20"><path d="M84.7 41.9c-2.1 0-4-1.2-5-3.1-.7-1.3-.8-2.8-.3-4.3.5-1.4 1.5-2.6 2.8-3.2a5.42 5.42 0 0 1 2.5-.6c2.1 0 4 1.2 5 3.1.7 1.3.8 2.8.3 4.3-.5 1.4-1.5 2.6-2.8 3.2a5.42 5.42 0 0 1-2.5.6zm0-9.7c-.6 0-1.3.1-1.8.4-1 .5-1.7 1.3-2 2.4s-.3 2.1.2 3.1c.7 1.4 2.1 2.2 3.7 2.2.6 0 1.3-.1 1.8-.4 1-.5 1.7-1.3 2-2.4.3-1 .3-2.1-.2-3.1-.8-1.3-2.2-2.2-3.7-2.2z"/><use xlink:href="#C"/><path d="M95.2 119.6c-.2 0-.4-.1-.5-.2-.3-.3-.3-.8 0-1.1L96 117c.3-.3.8-.3 1.1 0s.3.8 0 1.1l-1.3 1.3c-.2.1-.4.2-.6.2z"/><use xlink:href="#D"/><path d="M96.5 115.6c-.2 0-.4-.1-.5-.2l-1.3-1.3c-.3-.3-.3-.8 0-1.1s.8-.3 1.1 0l1.3 1.3c.3.3.3.8 0 1.1-.3.1-.4.2-.6.2z"/><use xlink:href="#C" x="28" y="-96.9"/><use xlink:href="#C" x="24" y="-92.9"/><use xlink:href="#D" x="28" y="-96.9"/><use xlink:href="#D" x="24" y="-100.9"/><path d="M61.8 55.8c-.2 0-.4-.1-.5-.2-.3-.3-.3-.8 0-1.1l1.3-1.3c.3-.3.8-.3 1.1 0s.3.8 0 1.1l-1.3 1.3c-.3.1-.4.2-.6.2z"/><use xlink:href="#E"/><use xlink:href="#D" x="-37.5" y="-59.8"/><use xlink:href="#D" x="-41.5" y="-63.8"/><use xlink:href="#E" x="12.8" y="-47.7"/><use xlink:href="#C" x="-32.7" y="-99.5"/><path d="M71.8 16.1c-.2 0-.4-.1-.5-.2L70 14.6c-.3-.3-.3-.8 0-1.1s.8-.3 1.1 0l1.3 1.3c.3.3.3.8 0 1.1-.2.1-.4.2-.6.2zm-4-4c-.2 0-.4-.1-.5-.2L66 10.6c-.3-.3-.3-.8 0-1.1s.8-.3 1.1 0l1.3 1.3c.3.3.3.8 0 1.1-.2.1-.4.2-.6.2zM41.2 9.7a3.8 3.8 0 1 1 0-7.6 3.8 3.8 0 1 1 0 7.6zm0-6.1a2.26 2.26 0 0 0-2.3 2.3 2.26 2.26 0 0 0 2.3 2.3 2.26 2.26 0 0 0 2.3-2.3 2.26 2.26 0 0 0-2.3-2.3z"/></g><circle fill="#ffd05b" cx="60.3" cy="23.4" r="2.1"/><circle fill="#84dbff" cx="99.9" cy="16" r="3.2"/><circle fill="#fff" cx="33.5" cy="31.3" r="16.5"/><circle fill="#ff7058" cx="33.5" cy="31.3" r="4.5"/><path fill="#231f20" d="M33.5 14.1c-4.5 0-8.5 1.7-11.6 4.5l-4-4 .7-5.2c0-.2 0-.5-.2-.6L12 2.4c-.2-.2-.5-.3-.8-.2s-.5.3-.5.6l-.7 5-5 .7c-.3 0-.5.2-.6.5s0 .6.2.8l6.4 6.4c.1.1.3.2.5.2h.1l5.2-.7 4 4c-2.8 3.1-4.5 7.1-4.5 11.6 0 9.5 7.7 17.2 17.2 17.2s17.2-7.7 17.2-17.2S43 14.1 33.5 14.1zm-21.7.7l-5.1-5 3.7-.5 5.1 5.1-3.7.4zm4.7-1.5l-5.1-5.1.6-3.7 5.1 5.1-.6 3.7zm17 33.7c-8.7 0-15.7-7-15.7-15.7 0-4.1 1.6-7.8 4.1-10.6l2 2c-2 2.3-3.3 5.3-3.3 8.5 0 7.1 5.8 12.8 12.8 12.8 7.1 0 12.8-5.8 12.8-12.8s-5.8-12.8-12.8-12.8c-3.3 0-6.3 1.2-8.5 3.3l-2-2c2.8-2.5 6.5-4.1 10.6-4.1 8.7 0 15.7 7 15.7 15.7S42.1 47 33.5 47zm-6.6-21.2c-1.3 1.5-2 3.4-2 5.5 0 4.7 3.9 8.6 8.6 8.6s8.6-3.9 8.6-8.6-3.9-8.6-8.6-8.6c-2.1 0-4 .8-5.5 2l-2-1.9c2-1.8 4.6-2.8 7.5-2.8 6.3 0 11.4 5.1 11.4 11.4s-5.1 11.4-11.4 11.4-11.3-5.1-11.3-11.4c0-2.9 1.1-5.5 2.8-7.5l1.9 1.9zm6.1 6c.1.1.3.2.5.2s.4-.1.5-.2c.3-.3.3-.8 0-1.1l-5-5c1.2-1 2.8-1.6 4.5-1.6a7.13 7.13 0 0 1 7.1 7.1 7.13 7.13 0 0 1-7.1 7.1 7.13 7.13 0 0 1-7.1-7.1c0-1.7.6-3.2 1.6-4.5l5 5.1z"/><defs ><path id="B" d="M41.7 108.7c-1.3-1.3-1.3-3.5 0-4.8l3.3-3.3c1.3-1.3 3.5-1.3 4.8 0s1.3 3.5 0 4.8l-3.3 3.3c-1.3 1.3-3.5 1.3-4.8 0z"/><path id="C" d="M99.2 115.6c-.2 0-.4-.1-.5-.2-.3-.3-.3-.8 0-1.1l1.3-1.3c.3-.3.8-.3 1.1 0s.3.8 0 1.1l-1.3 1.3c-.2.1-.4.2-.6.2z"/><path id="D" d="M100.5 119.6c-.2 0-.4-.1-.5-.2l-1.3-1.3c-.3-.3-.3-.8 0-1.1s.8-.3 1.1 0l1.3 1.3c.3.3.3.8 0 1.1-.2.1-.4.2-.6.2z"/><path id="E" d="M57.8 59.8c-.2 0-.4-.1-.5-.2-.3-.3-.3-.8 0-1.1l1.3-1.3c.3-.3.8-.3 1.1 0s.3.8 0 1.1l-1.3 1.3c-.3.1-.5.2-.6.2z"/></defs></svg>