<svg xmlns="http://www.w3.org/2000/svg" xmlns:xlink="http://www.w3.org/1999/xlink" viewBox="0 0 129.5 129.5"><style><![CDATA[.F{fill:#231F20}.G{fill:#fff}.H{fill:#FFD05B}.I{fill:#ACB3BA}.J{fill:#84DBFF}]]></style><g class="F"><use xlink:href="#B"/><path d="M77.1 10c-.2 0-.4-.1-.5-.2-.3-.3-.3-.8 0-1.1l1.3-1.3c.3-.3.8-.3 1.1 0s.3.8 0 1.1l-1.3 1.3c-.3.1-.5.2-.6.2zm5.3 0c-.2 0-.4-.1-.5-.2l-1.3-1.3c-.3-.3-.3-.8 0-1.1s.8-.3 1.1 0L83 8.7c.3.3.3.8 0 1.1-.2.1-.4.2-.6.2z"/><use xlink:href="#C"/><use xlink:href="#B" x="-55.1" y="47.9"/><use xlink:href="#B" x="-59.2" y="52"/><use xlink:href="#C" x="-51" y="52"/><use xlink:href="#C" x="-55.1" y="47.9"/><use xlink:href="#B" x="40.9" y="33.3"/><path d="M118 43.2c-.2 0-.4-.1-.5-.2-.3-.3-.3-.8 0-1.1l1.3-1.3c.3-.3.8-.3 1.1 0s.3.8 0 1.1l-1.3 1.3c-.2.2-.4.2-.6.2zm5.3 0c-.2 0-.4-.1-.5-.2l-1.3-1.3c-.3-.3-.3-.8 0-1.1s.8-.3 1.1 0l1.3 1.3c.3.3.3.8 0 1.1-.2.2-.4.2-.6.2z"/><use xlink:href="#C" x="41" y="33.3"/><path d="M48.7 101h-8.2c-.4 0-.8-.3-.8-.8 0-.4.3-.8.8-.8h8.2c.4 0 .8.3.8.8 0 .4-.4.8-.8.8zm3.2 2.9h-4c-.4 0-.8-.3-.8-.8 0-.4.3-.8.8-.8h4c.4 0 .8.3.8.8s-.4.8-.8.8zm4.3-2.9h-3.8c-.4 0-.8-.3-.8-.8 0-.4.3-.8.8-.8h3.8c.4 0 .8.3.8.8 0 .4-.4.8-.8.8zM45 103.9h-.8c-.4 0-.8-.3-.8-.8 0-.4.3-.8.8-.8h.8c.4 0 .8.3.8.8s-.4.8-.8.8zm6.9 22.2c-2.2 0-4.1-1.8-4.1-4.1s1.8-4.1 4.1-4.1c2.2 0 4.1 1.8 4.1 4.1s-1.8 4.1-4.1 4.1zm0-6.6a2.65 2.65 0 0 0-2.6 2.6 2.65 2.65 0 0 0 2.6 2.6 2.65 2.65 0 0 0 2.6-2.6 2.65 2.65 0 0 0-2.6-2.6z"/></g><path d="M.8 73.4h32.9V118H.8z" class="G"/><path d="M33.6 118.7H.8c-.4 0-.8-.3-.8-.8V73.4c0-.4.3-.8.8-.8h32.9c.4 0 .8.3.8.8V118c-.1.4-.4.7-.9.7zm-32.1-1.5h31.4V74.1H1.5v43.1z" class="F"/><path d="M5 77.8h24.4V91H5z" class="H"/><path d="M5.3 95.7h3.6" class="G"/><path d="M5.3 94.9h3.6v1.5H5.3z" class="F"/><path d="M12.1 95.7h3.5" class="G"/><path d="M12.1 94.9h3.6v1.5h-3.6z" class="F"/><path d="M18.8 95.7h3.5" class="G"/><path d="M18.8 94.9h3.6v1.5h-3.6z" class="F"/><path d="M25.5 95.7h3.6" class="G"/><path d="M25.5 94.9h3.6v1.5h-3.6z" class="F"/><path d="M5.3 101.1h3.6" class="G"/><path d="M5.3 100.4h3.6v1.5H5.3z" class="F"/><path d="M12.1 101.1h3.5" class="G"/><path d="M12.1 100.4h3.6v1.5h-3.6z" class="F"/><path d="M18.8 101.1h3.5" class="G"/><path d="M18.8 100.4h3.6v1.5h-3.6z" class="F"/><path d="M25.5 101.1h3.6" class="G"/><path d="M25.5 100.4h3.6v1.5h-3.6z" class="F"/><path d="M5.3 106.5h3.6" class="G"/><path d="M5.3 105.8h3.6v1.5H5.3z" class="F"/><path d="M12.1 106.5h3.5" class="G"/><path d="M12.1 105.8h3.6v1.5h-3.6z" class="F"/><path d="M18.8 106.5h3.5" class="G"/><path d="M18.8 105.8h3.6v1.5h-3.6z" class="F"/><path d="M25.5 106.5h3.6" class="G"/><path d="M25.5 105.8h3.6v1.5h-3.6z" class="F"/><path d="M5.3 112h3.6" class="G"/><path d="M5.3 111.2h3.6v1.5H5.3z" class="F"/><path d="M12.1 112h3.5" class="G"/><path d="M12.1 111.2h3.6v1.5h-3.6z" class="F"/><path d="M18.8 112h3.5" class="G"/><path d="M18.8 111.2h3.6v1.5h-3.6z" class="F"/><path d="M25.5 112h3.6" class="G"/><path d="M25.5 111.2h3.6v1.5h-3.6z" class="F"/><path d="M83.5 20.4v15.8h15.8z" class="G"/><path d="M99.3 37H83.5c-.4 0-.8-.3-.8-.8V20.4c0-.3.2-.6.5-.7s.6-.1.8.2l15.8 15.8c.2.2.3.5.2.8s-.4.5-.7.5zm-15-1.5h13.3L84.3 22.2v13.3z" class="F"/><path d="M85.3 34.4v-9.6l9.6 9.6z" class="I"/><path d="M124.5 74.2v53.1H64.1v-53c0-1.7-.7-3.3-1.8-4.4s-2.7-1.8-4.4-1.8h60.6c3.2 0 6 2.7 6 6.1z" class="G"/><path d="M52 86.6c.9-1.3 1.3-2.9 1.3-4.5v-7.8c0-1.2.5-2.3 1.3-3.2.8-.8 2-1.3 3.2-1.3s2.3.5 3.2 1.3c.8.8 1.3 2 1.3 3.2v12.3H52z" class="I"/><path d="M109.9 91.7h7.1V119h-7.1z" class="G"/><path d="M117 119.8h-7.1c-.4 0-.8-.3-.8-.8V91.7c0-.4.3-.8.8-.8h7.1c.4 0 .8.3.8.8V119c-.1.4-.4.8-.8.8zm-6.4-1.5h5.6V92.4h-5.6v25.9z" class="F"/><path d="M97.5 99.4h7.1V119h-7.1z" class="G"/><path d="M104.5 119.8h-7.1c-.4 0-.8-.3-.8-.8V99.4c0-.4.3-.8.8-.8h7.1c.4 0 .8.3.8.8V119c0 .4-.4.8-.8.8zm-6.3-1.5h5.6v-18.1h-5.6v18.1z" class="F"/><path d="M85 104.9h7.1V119H85z" class="G"/><path d="M92.1 119.8H85c-.4 0-.8-.3-.8-.8v-14.1c0-.4.3-.8.8-.8h7.1c.4 0 .8.3.8.8V119c-.1.4-.4.8-.8.8zm-6.3-1.5h5.6v-12.6h-5.6v12.6z" class="F"/><path d="M72.6 108.9h7.1V119h-7.1z" class="G"/><path d="M79.6 119.8h-7.1c-.4 0-.8-.3-.8-.8v-10.1c0-.4.3-.7.8-.7h7.1c.4 0 .8.3.8.7V119c0 .4-.3.8-.8.8zm-6.3-1.5h5.6v-8.6h-5.6v8.6z" class="F"/><circle cx="109.3" cy="16.7" r="15.2" class="H"/><g class="F"><path d="M97 16.7h-1.5v-1.1l1.5.1c.1.3 0 .7 0 1zm.4-2.8l-1.5-.3.3-1 1.4.5c-.1.2-.2.5-.2.8zm.9-2.7l-1.3-.7c.2-.3.3-.6.5-.9l1.3.8-.5.8zm1.6-2.4l-1.2-1c.2-.3.5-.5.7-.8l1.1 1c-.2.4-.4.6-.6.8zm2-1.9l-.9-1.2.9-.6.8 1.3c-.3.1-.6.3-.8.5zm2.4-1.5l-.6-1.4c.3-.1.6-.3 1-.4l.5 1.4c-.3.2-.6.3-.9.4zm2.7-.8l-.3-1.5c.3-.1.7-.1 1-.2l.2 1.5c-.3.1-.6.1-.9.2zm2.3 25.9c-7.2 0-13.3-5.6-13.8-12.8l1.5-.1c.4 6.4 5.8 11.4 12.3 11.4 6.8 0 12.3-5.5 12.3-12.3 0-6.5-5-11.8-11.5-12.3l.1-1.5c7.2.5 12.9 6.5 12.9 13.8 0 7.6-6.2 13.8-13.8 13.8zm3.2-6.9h-6.4c-1.5 0-2.8-1.2-2.8-2.8 0-.4.3-.8.8-.8.4 0 .8.3.8.8 0 .7.6 1.3 1.3 1.3h6.4c.7 0 1.3-.6 1.3-1.3v-2.1c0-.7-.6-1.3-1.3-1.3h-6.4c-1.5 0-2.8-1.2-2.8-2.8v-2.1c0-1.5 1.2-2.8 2.8-2.8h6.4c1.5 0 2.8 1.2 2.8 2.8 0 .4-.3.8-.8.8-.4 0-.8-.3-.8-.8 0-.7-.6-1.3-1.3-1.3h-6.4c-.7 0-1.3.6-1.3 1.3v2.1c0 .7.6 1.3 1.3 1.3h6.4c1.5 0 2.8 1.2 2.8 2.8v2.1c0 1.5-1.3 2.8-2.8 2.8z"/><path d="M109.3 25.9c-.4 0-.8-.3-.8-.8v-17c0-.4.3-.8.8-.8.4 0 .8.3.8.8v17c0 .5-.4.8-.8.8z"/></g><g class="G"><path d="M125.5 53H92.8v6.5h32.7c1.8 0 3.2-1.4 3.2-3.2.1-1.8-1.4-3.3-3.2-3.3z"/><path d="M92.9 59.5L85 56.3l7.9-3.3zM4.9 11h46.8v33H4.9z"/><path d="M4.9 2.1h46.8V11H4.9z"/></g><path d="M125.5 52.3H100v-16c0-.2-.1-.4-.2-.5L84 19.9c-.1-.1-.3-.2-.5-.2H52.4V2.1c0-.4-.3-.8-.8-.8H4.9c-.4 0-.8.3-.8.8V44c0 .4.3.8.8.8h33.2v37.4a7.13 7.13 0 0 0 7.1 7.1h18.1v38.2c0 .4.3.8.8.8h60.5c.4 0 .8-.3.8-.8V74.2c0-3.8-3.1-6.9-6.9-6.9h-18.2v-7.1h19.8v.8h-10.5c-.4 0-.8.3-.8.8 0 .4.3.8.8.8h11.3c.4 0 .8-.3.8-.8v-1.5h4.1c2.2 0 4-1.8 4-4-.3-2.2-2.1-4-4.3-4zM84.3 22.2l13.3 13.3H84.3V22.2zM5.7 2.9H51v7.4H5.7V2.9zm0 40.4V11.7H51v31.5H5.7zm39.5 44.4a5.59 5.59 0 0 1-5.6-5.6V44.8h12c.4 0 .8-.3.8-.8V21.2h30.3v15.1c0 .4.3.8.8.8h15.1v15.3h-5.7c-.1 0-.2 0-.3.1l-7.8 3.2c-.3.1-.5.4-.5.7s.2.6.5.7l7.8 3.2h6v7.1H57.8c-1.9 0-3.7.7-5 2.1-1.3 1.3-2.1 3.1-2.1 5v7.8a5.52 5.52 0 0 1-1.6 3.9c-1.1.9-2.4 1.5-3.9 1.5zm46.9-33.5v4.2L87 56.3l5.1-2.1zM63.3 87.7H49.5l.6-.6c1.3-1.3 2.1-3.1 2.1-5v-7.8a5.52 5.52 0 0 1 5.5-5.5 5.52 5.52 0 0 1 5.5 5.5v13.4zm55-18.9c3 0 5.4 2.4 5.4 5.4v52.4h-59V74.4c0-1.9-.7-3.6-2.1-5l-.6-.6h56.3zm1.6-10.1H93.6v-5h26.3v5zm5.6 0h-4.1v-5h4.1c1.4 0 2.5 1.1 2.5 2.5s-1.1 2.5-2.5 2.5z" class="F"/><path d="M22.4 17.9h4.4v4.4h-4.4zm7.4 0h4.4v4.4h-4.4zm7.3 0h4.4v4.4h-4.4zm-22 7.4h4.4v4.4h-4.4zm7.3 0h4.4v4.4h-4.4zm7.4 0h4.4v4.4h-4.4zm7.3 0h4.4v4.4h-4.4zm-22 7.4h4.4v4.4h-4.4zm7.3 0h4.4v4.4h-4.4zm7.4 0h4.4v4.4h-4.4z" class="J"/><g class="I"><circle cx="41.6" cy="6.6" r="1.9"/><circle cx="15" cy="6.6" r="1.9"/></g><path d="M64.3 46.3L61 43c-1.4 1.7-2.4 3.8-2.5 6.1h4.7c.1-1 .5-2 1.1-2.8z" class="J"/><path d="M75 50.7c-.1 1-.6 2-1.2 2.8l3.3 3.3c1.4-1.7 2.4-3.8 2.5-6.1H75z" class="H"/><path d="M63.2 50.7h-4.7c.4 5.2 4.6 9.4 9.8 9.8v-4.7c-2.7-.3-4.8-2.4-5.1-5.1z" fill="#E6E9EE"/><path d="M69.1 44c3 0 5.5 2.3 5.9 5.2h4.7c-.4-5.5-5-9.9-10.6-9.9a10.32 10.32 0 0 0-6.9 2.6l3.3 3.3c1-.8 2.2-1.2 3.6-1.2z" fill="#FF7058"/><path d="M69.9 55.9v4.7c2.3-.2 4.5-1.1 6.1-2.5l-3.3-3.3c-.8.5-1.7.9-2.8 1.1z" class="H"/><circle cx="63.4" cy="8.9" r="2.5" class="J"/><circle cx="8.9" cy="61.7" r="2.5" fill="#FF7058"/><circle cx="88.5" cy="80.8" r="2.5" fill="#E6E9EE"/><circle cx="38.9" cy="113.9" r="2.5" class="H"/><defs ><path id="B" d="M81.1 5.9c-.2 0-.4-.1-.5-.2-.3-.3-.3-.8 0-1.1l1.3-1.3c.3-.3.8-.3 1.1 0s.3.8 0 1.1l-1.3 1.3c-.2.1-.4.2-.6.2z"/><path id="C" d="M78.3 5.9c-.2 0-.4-.1-.5-.2l-1.3-1.3c-.3-.3-.3-.8 0-1.1s.8-.3 1.1 0l1.3 1.3c.3.3.3.8 0 1.1-.2.1-.4.2-.6.2z"/></defs></svg>