<?xml version="1.0" encoding="UTF-8" standalone="no"?>
<!-- Created with Inkscape (http://www.inkscape.org/) -->

<svg
   xmlns:dc="http://purl.org/dc/elements/1.1/"
   xmlns:cc="http://creativecommons.org/ns#"
   xmlns:rdf="http://www.w3.org/1999/02/22-rdf-syntax-ns#"
   xmlns:svg="http://www.w3.org/2000/svg"
   xmlns="http://www.w3.org/2000/svg"
   xmlns:sodipodi="http://sodipodi.sourceforge.net/DTD/sodipodi-0.dtd"
   xmlns:inkscape="http://www.inkscape.org/namespaces/inkscape"
   width="28mm"
   height="25mm"
   viewBox="0 0 28 25"
   version="1.1"
   id="svg2695"
   inkscape:version="0.92.3 (2405546, 2018-03-11)"
   sodipodi:docname="idea.svg">
  <defs
     id="defs2689" />
  <sodipodi:namedview
     id="base"
     pagecolor="#ffffff"
     bordercolor="#666666"
     borderopacity="1.0"
     inkscape:pageopacity="0.0"
     inkscape:pageshadow="2"
     inkscape:zoom="2"
     inkscape:cx="-29.48495"
     inkscape:cy="103.31284"
     inkscape:document-units="mm"
     inkscape:current-layer="layer1"
     showgrid="false"
     inkscape:pagecheckerboard="true"
     inkscape:window-width="1920"
     inkscape:window-height="1001"
     inkscape:window-x="-9"
     inkscape:window-y="-9"
     inkscape:window-maximized="1" />
  <metadata
     id="metadata2692">
    <rdf:RDF>
      <cc:Work
         rdf:about="">
        <dc:format>image/svg+xml</dc:format>
        <dc:type
           rdf:resource="http://purl.org/dc/dcmitype/StillImage" />
        <dc:title></dc:title>
      </cc:Work>
    </rdf:RDF>
  </metadata>
  <g
     inkscape:label="Layer 1"
     inkscape:groupmode="layer"
     id="layer1"
     transform="translate(0,-272)">
    <g
       id="g2625"
       transform="matrix(0.35277777,0,0,-0.35277777,-4.9053616,336.8525)">
      <path
         d="m 44.4027,140.072 c 0,-0.422 -0.8679,-0.764 -1.9386,-0.764 -1.0707,0 -1.9387,0.342 -1.9387,0.764 0,0.422 0.868,0.764 1.9387,0.764 1.0707,0 1.9386,-0.342 1.9386,-0.764"
         style="fill:#3c3c3b;fill-opacity:1;fill-rule:nonzero;stroke:none;stroke-width:0.1"
         id="path518"
         inkscape:connector-curvature="0" />
      <path
         d="m 47.1434,141.2 h -9.3586 v 7.215 h 9.3586 V 141.2"
         style="fill:#c6c6c6;fill-opacity:1;fill-rule:nonzero;stroke:none;stroke-width:0.1"
         id="path520"
         inkscape:connector-curvature="0" />
      <path
         d="m 52.3059,161.203 c 0,6.064 -5.0387,10.9 -10.9864,10.2 -4.3023,-0.506 -7.8695,-4.021 -8.5629,-8.48 -0.5484,-3.524 0.625,-6.785 2.7805,-9.014 1.3852,-1.431 2.2477,-3.321 2.2477,-5.355 v -0.139 h 9.3586 v 0.091 c 0,2.03 0.8226,3.945 2.2121,5.367 1.8207,1.863 2.9504,4.459 2.9504,7.33"
         style="fill:#ffbb00;fill-opacity:1;fill-rule:nonzero;stroke:none;stroke-width:0.1"
         id="path522"
         inkscape:connector-curvature="0" />
      <path
         d="m 44.4027,140.043 h -3.8773 l -2.7406,1.157 h 9.3586 l -2.7407,-1.157"
         style="fill:#9d9d9c;fill-opacity:1;fill-rule:nonzero;stroke:none;stroke-width:0.1"
         id="path524"
         inkscape:connector-curvature="0" />
      <path
         d="m 39.1629,162.163 c 0.5211,0 0.7684,-0.44 0.9871,-0.828 0.2242,-0.398 0.3813,-0.64 0.6676,-0.64 0.2844,0 0.4406,0.242 0.6652,0.64 0.218,0.388 0.4652,0.828 0.9856,0.828 0.5203,0 0.7675,-0.44 0.9855,-0.828 0.2246,-0.398 0.3809,-0.64 0.6652,-0.64 0.2848,0 0.4411,0.242 0.6653,0.64 0.2179,0.388 0.4652,0.828 0.9855,0.828 0.5199,0 0.7664,-0.44 0.9844,-0.828 0.2238,-0.398 0.3801,-0.64 0.6645,-0.64 0.1011,0 0.1835,-0.082 0.1835,-0.184 0,-0.101 -0.0824,-0.183 -0.1835,-0.183 -0.5196,0 -0.7661,0.439 -0.984,0.827 -0.2239,0.399 -0.3801,0.641 -0.6649,0.641 -0.2851,0 -0.4414,-0.242 -0.6656,-0.641 -0.218,-0.388 -0.4652,-0.827 -0.9852,-0.827 -0.5195,0 -0.7668,0.439 -0.9847,0.827 -0.2246,0.399 -0.3809,0.641 -0.666,0.641 -0.2852,0 -0.4414,-0.242 -0.6661,-0.641 -0.2179,-0.388 -0.4652,-0.827 -0.9847,-0.827 -0.5211,0 -0.7688,0.439 -0.9871,0.827 -0.2246,0.399 -0.3817,0.641 -0.6676,0.641 -0.2852,0 -0.4422,-0.242 -0.6664,-0.641 -0.2188,-0.388 -0.466,-0.827 -0.9871,-0.827 -0.1012,0 -0.1836,0.082 -0.1836,0.183 0,0.102 0.0824,0.184 0.1836,0.184 0.2859,0 0.4429,0.242 0.6672,0.641 0.2187,0.387 0.466,0.827 0.9863,0.827"
         style="fill:#ffffff;fill-opacity:1;fill-rule:nonzero;stroke:none;stroke-width:0.1"
         id="path526"
         inkscape:connector-curvature="0" />
      <path
         d="m 42.8082,154.688 h -0.6883 c -0.623,0 -1.1281,-0.406 -1.1281,-0.908 v -5.365 h 2.9445 v 5.365 c 0,0.502 -0.505,0.908 -1.1281,0.908"
         style="fill:#ffffff;fill-opacity:1;fill-rule:nonzero;stroke:none;stroke-width:0.1"
         id="path528"
         inkscape:connector-curvature="0" />
      <path
         d="m 41.5508,153.784 -0.2028,0.11 -4.2253,6.484 c -0.0739,0.113 -0.0414,0.263 0.0703,0.336 0.1105,0.073 0.2613,0.041 0.3351,-0.07 l 4.225,-6.485 c 0.0742,-0.112 0.0418,-0.262 -0.0699,-0.335 l -0.1324,-0.04"
         style="fill:#ffffff;fill-opacity:1;fill-rule:nonzero;stroke:none;stroke-width:0.1"
         id="path530"
         inkscape:connector-curvature="0" />
      <path
         d="m 43.3773,153.784 -0.1324,0.04 c -0.1121,0.073 -0.1441,0.223 -0.0703,0.335 l 4.225,6.485 c 0.0742,0.111 0.2246,0.142 0.3356,0.07 0.1117,-0.073 0.1437,-0.223 0.0699,-0.336 l -4.225,-6.484 -0.2028,-0.11"
         style="fill:#ffffff;fill-opacity:1;fill-rule:nonzero;stroke:none;stroke-width:0.1"
         id="path532"
         inkscape:connector-curvature="0" />
      <path
         d="m 43.202,126.199 -2.6118,0.328 -3.7922,1.054 -6.0593,5.66 c -0.8492,0.793 -2.0598,0.956 -3.0571,0.509 l -1.9671,1.838 c -1.1301,1.055 -2.9016,0.995 -3.9575,-0.135 l -0.0382,-0.041 c -0.2575,-0.276 -0.4458,-0.59 -0.5711,-0.921 -0.9747,0.009 -1.9368,-0.448 -2.5329,-1.31 l -0.0351,-0.051 c -0.9551,-1.38 -0.6102,-3.274 0.7703,-4.229 l 9.798,-6.779 0.093,-0.052 c 0.0918,-0.059 0.1879,-0.109 0.286,-0.158 l 0.2628,-0.12 c 0.0868,-0.034 0.1766,-0.059 0.2672,-0.085 0.109,-0.03 0.2168,-0.058 0.3274,-0.076 l 0.1,-0.023 11.8148,-1.539 c 1.6649,-0.216 3.1903,0.957 3.4071,2.622 l 0.0078,0.061 c 0.2168,1.665 -0.8473,3.23 -2.5121,3.447"
         style="fill:#f2c799;fill-opacity:1;fill-rule:nonzero;stroke:none;stroke-width:0.1"
         id="path534"
         inkscape:connector-curvature="0" />
      <path
         d="m 68.1344,135.024 -5.2352,1.15 c -1.8867,0.277 -3.8082,0.21 -5.6711,-0.199 l -4.8843,-1.071 c -0.6028,-0.132 -1.2235,-0.164 -1.8368,-0.095 l -11.2652,1.275 c -1.7422,0.205 -3.3207,-1.041 -3.5258,-2.783 l -0.0074,-0.064 c -0.2051,-1.742 1.041,-3.32 2.7832,-3.525 l 7.5695,-0.891 -7.3527,-2.621 -8.4078,-0.478 -10.4371,5.186 c -1.5711,0.78 -3.477,0.14 -4.2578,-1.431 l -0.0286,-0.058 c -0.7804,-1.571 -0.1398,-3.477 1.4313,-4.257 l 12.6074,-5.871 c 0,0 6.1133,-1.221 9.059,-1.462 0.5543,-0.045 1.327,0.022 2.118,0.039 3.2687,0.072 12.4004,0.514 19.723,3.05 l 7.9297,1.739 -0.3113,12.367"
         style="fill:#ffd2a1;fill-opacity:1;fill-rule:nonzero;stroke:none;stroke-width:0.1"
         id="path536"
         inkscape:connector-curvature="0" />
      <path
         d="m 76.873,136.202 0.0969,-20.43 h -8.909 l 0.0547,20.43 h 8.7574"
         style="fill:#ededed;fill-opacity:1;fill-rule:nonzero;stroke:none;stroke-width:0.1"
         id="path538"
         inkscape:connector-curvature="0" />
      <path
         d="M 92.3797,137 V 114.109 H 73.2867 V 137 h 19.093"
         style="fill:#575756;fill-opacity:1;fill-rule:nonzero;stroke:none;stroke-width:0.1"
         id="path540"
         inkscape:connector-curvature="0" />
      <path
         d="m 82.1914,131.834 c -0.3125,0.935 0.1922,1.947 1.1281,2.26 0.9356,0.313 1.9477,-0.192 2.2602,-1.127 0.3129,-0.936 -0.1918,-1.948 -1.1274,-2.261 -0.9359,-0.313 -1.948,0.192 -2.2609,1.128"
         style="fill:#ededed;fill-opacity:1;fill-rule:nonzero;stroke:none;stroke-width:0.1"
         id="path542"
         inkscape:connector-curvature="0" />
      <path
         d="m 76.4488,131.834 c -0.3129,0.935 0.1922,1.948 1.1278,2.26 0.9355,0.313 1.9476,-0.192 2.2605,-1.128 0.3129,-0.935 -0.1922,-1.947 -1.1277,-2.26 -0.936,-0.313 -1.9477,0.192 -2.2606,1.128"
         style="fill:#ededed;fill-opacity:1;fill-rule:nonzero;stroke:none;stroke-width:0.1"
         id="path544"
         inkscape:connector-curvature="0" />
      <path
         d="m 52.8637,177.967 c 0.2343,0.406 0.0957,0.925 -0.3106,1.16 -0.4062,0.234 -0.9254,0.095 -1.1597,-0.311 l -2.3063,-3.995 c -0.2332,-0.404 -0.091,-0.918 0.3149,-1.148 l 0.0148,-0.009 c 0.4012,-0.228 0.9102,-0.091 1.1406,0.309 l 2.3063,3.994"
         style="fill:#ffbb00;fill-opacity:1;fill-rule:nonzero;stroke:none;stroke-width:0.1"
         id="path546"
         inkscape:connector-curvature="0" />
      <path
         d="m 59.6281,170.581 c 0.4059,0.235 0.5453,0.754 0.3106,1.16 -0.2344,0.406 -0.7535,0.545 -1.1594,0.311 l -3.9945,-2.307 c -0.4,-0.23 -0.5364,-0.739 -0.3082,-1.141 l 0.0082,-0.014 c 0.23,-0.406 0.7449,-0.548 1.1488,-0.315 l 3.9945,2.306"
         style="fill:#ffbb00;fill-opacity:1;fill-rule:nonzero;stroke:none;stroke-width:0.1"
         id="path548"
         inkscape:connector-curvature="0" />
      <path
         d="m 61.7934,162.501 h -4.636 c -0.4629,0 -0.8363,-0.376 -0.8363,-0.838 v -0.022 c 0,-0.462 0.3734,-0.838 0.8363,-0.838 h 4.636 c 0.4683,0 0.8488,0.38 0.8488,0.849 0,0.469 -0.3805,0.849 -0.8488,0.849"
         style="fill:#ffbb00;fill-opacity:1;fill-rule:nonzero;stroke:none;stroke-width:0.1"
         id="path550"
         inkscape:connector-curvature="0" />
      <path
         d="m 58.7793,151.252 c 0.4059,-0.234 0.925,-0.095 1.1594,0.311 0.2347,0.406 0.0953,0.925 -0.3106,1.16 l -3.9945,2.306 c -0.4039,0.233 -0.9188,0.091 -1.1488,-0.315 L 54.4766,154.7 c -0.2282,-0.402 -0.0918,-0.911 0.3082,-1.141 l 3.9945,-2.307"
         style="fill:#ffbb00;fill-opacity:1;fill-rule:nonzero;stroke:none;stroke-width:0.1"
         id="path552"
         inkscape:connector-curvature="0" />
      <path
         d="m 25.3004,152.723 c -0.4063,-0.235 -0.5453,-0.754 -0.3109,-1.16 0.2347,-0.406 0.7535,-0.545 1.1597,-0.311 l 3.9942,2.307 c 0.4,0.23 0.5367,0.739 0.3086,1.141 l -0.0086,0.014 c -0.2301,0.406 -0.7446,0.548 -1.1485,0.315 l -3.9945,-2.306"
         style="fill:#ffbb00;fill-opacity:1;fill-rule:nonzero;stroke:none;stroke-width:0.1"
         id="path554"
         inkscape:connector-curvature="0" />
      <path
         d="m 28.607,161.663 c 4e-4,0.462 -0.3734,0.838 -0.8359,0.838 h -4.6359 c -0.4688,0 -0.8489,-0.38 -0.8489,-0.849 0,-0.469 0.3801,-0.849 0.8489,-0.849 h 4.6359 c 0.4625,0 0.8363,0.376 0.8359,0.838 v 0.022"
         style="fill:#ffbb00;fill-opacity:1;fill-rule:nonzero;stroke:none;stroke-width:0.1"
         id="path556"
         inkscape:connector-curvature="0" />
      <path
         d="m 26.1492,172.052 c -0.4062,0.234 -0.925,0.095 -1.1597,-0.311 -0.2344,-0.406 -0.0954,-0.925 0.3109,-1.16 l 3.9945,-2.306 c 0.4039,-0.233 0.9184,-0.091 1.1485,0.315 l 0.0086,0.014 c 0.2281,0.402 0.0914,0.911 -0.3086,1.141 l -3.9942,2.307"
         style="fill:#ffbb00;fill-opacity:1;fill-rule:nonzero;stroke:none;stroke-width:0.1"
         id="path558"
         inkscape:connector-curvature="0" />
      <path
         d="m 33.5348,178.816 c -0.2344,0.406 -0.7532,0.545 -1.1594,0.311 -0.4066,-0.235 -0.5453,-0.754 -0.3109,-1.16 l 2.3062,-3.994 c 0.2309,-0.4 0.7395,-0.537 1.141,-0.309 l 0.0149,0.009 c 0.4058,0.23 0.5476,0.744 0.3144,1.148 l -2.3062,3.995"
         style="fill:#ffbb00;fill-opacity:1;fill-rule:nonzero;stroke:none;stroke-width:0.1"
         id="path560"
         inkscape:connector-curvature="0" />
      <path
         d="m 42.4746,175.509 c 0.4629,0 0.8383,0.374 0.8383,0.836 v 4.636 c 0,0.469 -0.3797,0.849 -0.8488,0.849 -0.4692,0 -0.8489,-0.38 -0.8489,-0.849 v -4.636 c 0,-0.462 0.3754,-0.836 0.8383,-0.836 h 0.0211"
         style="fill:#ffbb00;fill-opacity:1;fill-rule:nonzero;stroke:none;stroke-width:0.1"
         id="path562"
         inkscape:connector-curvature="0" />
    </g>
  </g>
</svg>
