<?xml version="1.0" encoding="utf-8"?>
<!-- Generator: Adobe Illustrator 18.0.0, SVG Export Plug-In . SVG Version: 6.00 Build 0)  -->
<!DOCTYPE svg PUBLIC "-//W3C//DTD SVG 1.1//EN" "http://www.w3.org/Graphics/SVG/1.1/DTD/svg11.dtd">
<svg version="1.1" id="Layer_1" xmlns="http://www.w3.org/2000/svg" xmlns:xlink="http://www.w3.org/1999/xlink" x="0px" y="0px"
	 viewBox="0 0 129.5 129.5" enable-background="new 0 0 129.5 129.5" xml:space="preserve">
<g>
	<g>
		<polyline fill="#FF7058" points="96.7,27.4 96.7,55.2 92.2,55.2 103,66 113.8,55.2 109.2,55.2 109.2,51.1 		"/>
		<polygon fill="#231F20" points="103,67.1 90.3,54.5 95.9,54.5 95.9,27.4 97.4,27.4 97.4,56 94,56 103,65 111.9,56 108.5,56 
			108.5,51.1 110,51.1 110,54.5 115.6,54.5 		"/>
		<path fill="#231F20" d="M110,51.1h-1.5v-1h1.5V51.1z M110,48.1h-1.5v-1h1.5V48.1z M110,45.1h-1.5v-1h1.5V45.1z M110,42.1h-1.5v-1
			h1.5V42.1z M110,39.1h-1.5v-1h1.5V39.1z M110,36.1h-1.5v-1h1.5V36.1z M110,33.1h-1.5v-1h1.5V33.1z M110,30.1h-1.5v-1h1.5V30.1z"/>
		<line fill="#FF7058" x1="103" y1="27" x2="103" y2="29"/>
		<path fill="#231F20" d="M103,29.8c-0.4,0-0.8-0.3-0.8-0.8v-2c0-0.4,0.3-0.8,0.8-0.8c0.4,0,0.8,0.3,0.8,0.8v2
			C103.7,29.4,103.4,29.8,103,29.8z"/>
		<line fill="#FF7058" x1="103" y1="31.4" x2="103" y2="32.5"/>
		<path fill="#231F20" d="M103,33.2c-0.4,0-0.8-0.3-0.8-0.8v-1.1c0-0.4,0.3-0.8,0.8-0.8c0.4,0,0.8,0.3,0.8,0.8v1.1
			C103.7,32.9,103.4,33.2,103,33.2z"/>
		<line fill="#FF7058" x1="103" y1="34.7" x2="103" y2="48.2"/>
		<path fill="#231F20" d="M103,49L103,49c-0.4,0-0.8-0.3-0.8-0.8l0-13.5c0-0.4,0.3-0.8,0.8-0.8l0,0c0.4,0,0.8,0.3,0.8,0.8l0,13.5
			C103.7,48.6,103.4,49,103,49z"/>
		<path fill="#231F20" d="M121.6,8.3c-0.2,0-0.4-0.1-0.5-0.2c-0.3-0.3-0.3-0.8,0-1.1l1.3-1.3c0.3-0.3,0.8-0.3,1.1,0
			c0.3,0.3,0.3,0.8,0,1.1l-1.3,1.3C122,8.3,121.8,8.3,121.6,8.3z"/>
		<path fill="#231F20" d="M117.6,12.4c-0.2,0-0.4-0.1-0.5-0.2c-0.3-0.3-0.3-0.8,0-1.1l1.3-1.3c0.3-0.3,0.8-0.3,1.1,0
			c0.3,0.3,0.3,0.8,0,1.1l-1.3,1.3C118,12.3,117.8,12.4,117.6,12.4z"/>
		<path fill="#231F20" d="M122.9,12.4c-0.2,0-0.4-0.1-0.5-0.2l-1.3-1.3c-0.3-0.3-0.3-0.8,0-1.1c0.3-0.3,0.8-0.3,1.1,0l1.3,1.3
			c0.3,0.3,0.3,0.8,0,1.1C123.3,12.3,123.1,12.4,122.9,12.4z"/>
		<path fill="#231F20" d="M118.9,8.3c-0.2,0-0.4-0.1-0.5-0.2l-1.3-1.3c-0.3-0.3-0.3-0.8,0-1.1c0.3-0.3,0.8-0.3,1.1,0l1.3,1.3
			c0.3,0.3,0.3,0.8,0,1.1C119.3,8.3,119.1,8.3,118.9,8.3z"/>
		<path fill="#231F20" d="M23.4,97.6c-0.2,0-0.4-0.1-0.5-0.2c-0.3-0.3-0.3-0.8,0-1.1l1.3-1.3c0.3-0.3,0.8-0.3,1.1,0
			c0.3,0.3,0.3,0.8,0,1.1l-1.3,1.3C23.8,97.5,23.6,97.6,23.4,97.6z"/>
		<path fill="#231F20" d="M19.3,101.6c-0.2,0-0.4-0.1-0.5-0.2c-0.3-0.3-0.3-0.8,0-1.1l1.3-1.3c0.3-0.3,0.8-0.3,1.1,0
			c0.3,0.3,0.3,0.8,0,1.1l-1.3,1.3C19.7,101.6,19.5,101.6,19.3,101.6z"/>
		<path fill="#231F20" d="M24.7,101.6c-0.2,0-0.4-0.1-0.5-0.2l-1.3-1.3c-0.3-0.3-0.3-0.8,0-1.1c0.3-0.3,0.8-0.3,1.1,0l1.3,1.3
			c0.3,0.3,0.3,0.8,0,1.1C25,101.6,24.9,101.6,24.7,101.6z"/>
		<path fill="#231F20" d="M20.6,97.6c-0.2,0-0.4-0.1-0.5-0.2l-1.3-1.3c-0.3-0.3-0.3-0.8,0-1.1c0.3-0.3,0.8-0.3,1.1,0l1.3,1.3
			c0.3,0.3,0.3,0.8,0,1.1C21,97.5,20.8,97.6,20.6,97.6z"/>
		<path fill="#231F20" d="M35.6,7.7c-0.2,0-0.4-0.1-0.5-0.2c-0.3-0.3-0.3-0.8,0-1.1l1.3-1.3c0.3-0.3,0.8-0.3,1.1,0
			c0.3,0.3,0.3,0.8,0,1.1l-1.3,1.3C36,7.6,35.8,7.7,35.6,7.7z"/>
		<path fill="#231F20" d="M31.6,11.7c-0.2,0-0.4-0.1-0.5-0.2c-0.3-0.3-0.3-0.8,0-1.1l1.3-1.3c0.3-0.3,0.8-0.3,1.1,0
			c0.3,0.3,0.3,0.8,0,1.1l-1.3,1.3C31.9,11.6,31.8,11.7,31.6,11.7z"/>
		<path fill="#231F20" d="M36.9,11.7c-0.2,0-0.4-0.1-0.5-0.2l-1.3-1.3c-0.3-0.3-0.3-0.8,0-1.1c0.3-0.3,0.8-0.3,1.1,0l1.3,1.3
			c0.3,0.3,0.3,0.8,0,1.1C37.3,11.6,37.1,11.7,36.9,11.7z"/>
		<path fill="#231F20" d="M32.8,7.7c-0.2,0-0.4-0.1-0.5-0.2L31,6.2c-0.3-0.3-0.3-0.8,0-1.1c0.3-0.3,0.8-0.3,1.1,0l1.3,1.3
			c0.3,0.3,0.3,0.8,0,1.1C33.2,7.6,33,7.7,32.8,7.7z"/>
		<path fill="#231F20" d="M119.2,37.8v1.5h6.5v13.4h-6.3v1.5h6.3v65.2H3.9V54.2h41.3v-1.5H3.9V39.3h38.6h2v-1.5h-3.2l-9.4-12H2.4v12
			v1.5v81.6h124.8V37.8H119.2z M3.9,27.2h27.3l8.3,10.5H3.9V27.2z"/>
		<path fill="#231F20" d="M51.7,23.6c-0.4,0-0.8-0.3-0.8-0.8v-2.4c0-0.4,0.3-0.8,0.8-0.8c0.4,0,0.8,0.3,0.8,0.8v2.4
			C52.5,23.3,52.2,23.6,51.7,23.6z"/>
		<path fill="#231F20" d="M51.7,27.8c-0.4,0-0.8-0.3-0.8-0.8v-1.3c0-0.4,0.3-0.8,0.8-0.8c0.4,0,0.8,0.3,0.8,0.8V27
			C52.5,27.4,52.2,27.8,51.7,27.8z"/>
		<path fill="#231F20" d="M69.9,20.2c-0.4,0-0.8-0.3-0.8-0.8v-2.4c0-0.4,0.3-0.8,0.8-0.8c0.4,0,0.8,0.3,0.8,0.8v2.4
			C70.6,19.9,70.3,20.2,69.9,20.2z"/>
		<path fill="#231F20" d="M69.9,24.3c-0.4,0-0.8-0.3-0.8-0.8v-1.3c0-0.4,0.3-0.8,0.8-0.8c0.4,0,0.8,0.3,0.8,0.8v1.3
			C70.6,24,70.3,24.3,69.9,24.3z"/>
		<path fill="#231F20" d="M92.2,19c-0.4,0-0.8-0.3-0.8-0.8v-2c0-0.4,0.3-0.8,0.8-0.8c0.4,0,0.8,0.3,0.8,0.8v2
			C92.9,18.7,92.6,19,92.2,19z"/>
		<path fill="#231F20" d="M92.2,22.5c-0.4,0-0.8-0.3-0.8-0.8v-1.1c0-0.4,0.3-0.8,0.8-0.8c0.4,0,0.8,0.3,0.8,0.8v1.1
			C92.9,22.1,92.6,22.5,92.2,22.5z"/>
		<path fill="#231F20" d="M76.6,43.7h-1.5v-1h1.5V43.7z M76.6,40.7h-1.5v-1h1.5V40.7z M76.6,37.7h-1.5v-1h1.5V37.7z M76.6,34.7h-1.5
			v-1h1.5V34.7z M76.6,31.7h-1.5v-1h1.5V31.7z M76.6,28.7h-1.5v-1h1.5V28.7z M76.6,25.7h-1.5v-1h1.5V25.7z M76.6,22.7h-1.5v-1h1.5
			V22.7z M76.6,19.7h-1.5v-1h1.5V19.7z M76.6,16.7h-1.5v-1h1.5V16.7z"/>
		<polyline fill="#84DBFF" points="57,14 57,49.8 50.2,49.8 66.4,66 82.6,49.8 75.8,49.8 75.8,43.7 		"/>
		<path fill="#231F20" d="M51.7,46.6c-0.4,0-0.8-0.3-0.8-0.8V29.7c0-0.4,0.3-0.8,0.8-0.8c0.4,0,0.8,0.3,0.8,0.8v16.1
			C52.5,46.3,52.2,46.6,51.7,46.6z"/>
		<path fill="#231F20" d="M69.9,43.1c-0.4,0-0.8-0.3-0.8-0.8V26.3c0-0.4,0.3-0.8,0.8-0.8c0.4,0,0.8,0.3,0.8,0.8v16.1
			C70.6,42.8,70.3,43.1,69.9,43.1z"/>
		<path fill="#231F20" d="M87.2,68.1h-1.5v-1h1.5V68.1z M87.2,65.1h-1.5v-1h1.5V65.1z M87.2,62.1h-1.5v-1h1.5V62.1z M87.2,59.1h-1.5
			v-1h1.5V59.1z M87.2,56.1h-1.5v-1h1.5V56.1z M87.2,53.1h-1.5v-1h1.5V53.1z M87.2,50.1h-1.5v-1h1.5V50.1z M87.2,47.1h-1.5v-1h1.5
			V47.1z"/>
		<polygon fill="#231F20" points="87.2,71.5 87.2,68.1 85.7,68.1 85.7,73 89.2,73 80.2,82 71.2,73 74.6,73 74.6,58.8 84.4,49.1 
			76.6,49.1 76.6,43.7 75.1,43.7 75.1,50.6 80.8,50.6 66.4,65 52,50.6 57.7,50.6 57.7,14 56.2,14 56.2,49.1 48.4,49.1 66.4,67.1 
			73.1,60.3 73.1,71.5 67.6,71.5 80.2,84.1 92.8,71.5 		"/>
		<path fill="#231F20" d="M92.2,38.2c-0.4,0-0.8-0.3-0.8-0.8V24c0-0.4,0.3-0.8,0.8-0.8c0.4,0,0.8,0.3,0.8,0.8v13.5
			C92.9,37.9,92.6,38.2,92.2,38.2z"/>
		<path fill="#231F20" d="M35.5,73h-8.1c-0.4,0-0.8-0.3-0.8-0.8c0-0.4,0.3-0.8,0.8-0.8h8.1c0.4,0,0.8,0.3,0.8,0.8
			C36.3,72.7,36,73,35.5,73z"/>
		<path fill="#231F20" d="M28.2,70h-4c-0.4,0-0.8-0.3-0.8-0.8c0-0.4,0.3-0.8,0.8-0.8h4c0.4,0,0.8,0.3,0.8,0.8
			C29,69.7,28.6,70,28.2,70z"/>
		<path fill="#231F20" d="M23.8,73H20c-0.4,0-0.8-0.3-0.8-0.8c0-0.4,0.3-0.8,0.8-0.8h3.8c0.4,0,0.8,0.3,0.8,0.8
			C24.5,72.7,24.2,73,23.8,73z"/>
		<path fill="#231F20" d="M31.9,70h-0.8c-0.4,0-0.8-0.3-0.8-0.8c0-0.4,0.3-0.8,0.8-0.8h0.8c0.4,0,0.7,0.3,0.7,0.8
			C32.6,69.7,32.3,70,31.9,70z"/>
		<path fill="#231F20" d="M100.3,82.7c-1.9,0-3.4-1.5-3.4-3.4s1.5-3.4,3.4-3.4c1.9,0,3.4,1.5,3.4,3.4S102.2,82.7,100.3,82.7z
			 M100.3,77.4c-1.1,0-1.9,0.9-1.9,1.9c0,1.1,0.9,1.9,1.9,1.9c1.1,0,1.9-0.9,1.9-1.9C102.2,78.3,101.3,77.4,100.3,77.4z"/>
		<path fill="#231F20" d="M126.4,106.9h-1v-1.5h1V106.9z M123.4,106.9h-1v-1.5h1V106.9z M120.4,106.9h-1v-1.5h1V106.9z M117.4,106.9
			h-1v-1.5h1V106.9z M114.4,106.9h-1v-1.5h1V106.9z M111.4,106.9h-1v-1.5h1V106.9z M108.4,106.9h-1v-1.5h1V106.9z M105.4,106.9h-1
			v-1.5h1V106.9z M102.4,106.9h-1v-1.5h1V106.9z M99.4,106.9h-1v-1.5h1V106.9z M96.4,106.9h-1v-1.5h1V106.9z M93.4,106.9h-1v-1.5h1
			V106.9z M90.4,106.9h-1v-1.5h1V106.9z M87.4,106.9h-1v-1.5h1V106.9z M84.4,106.9h-1v-1.5h1V106.9z M81.4,106.9h-1v-1.5h1V106.9z
			 M78.4,106.9h-1v-1.5h1V106.9z M75.4,106.9h-1v-1.5h1V106.9z M72.4,106.9h-1v-1.5h1V106.9z M69.4,106.9h-1v-1.5h1V106.9z
			 M66.4,106.9h-1v-1.5h1V106.9z M63.4,106.9h-1v-1.5h1V106.9z M60.4,106.9h-1v-1.5h1V106.9z M57.4,106.9h-1v-1.5h1V106.9z"/>
		<circle fill="#FFD05B" cx="100.5" cy="3.2" r="2.4"/>
		<circle fill="#4CDBC4" cx="111.7" cy="95.6" r="2.4"/>
		<circle fill="#E6E9EE" cx="35.6" cy="110.8" r="2.4"/>
		<circle fill="#84DBFF" cx="35.6" cy="126.9" r="1.9"/>
		<circle fill="#84DBFF" cx="10.3" cy="14" r="2.4"/>
	</g>
</g>
</svg>
