<?xml version="1.0" encoding="utf-8"?>
<!-- Generator: Adobe Illustrator 18.0.0, SVG Export Plug-In . SVG Version: 6.00 Build 0)  -->
<!DOCTYPE svg PUBLIC "-//W3C//DTD SVG 1.1//EN" "http://www.w3.org/Graphics/SVG/1.1/DTD/svg11.dtd">
<svg version="1.1" id="Layer_1" xmlns="http://www.w3.org/2000/svg" xmlns:xlink="http://www.w3.org/1999/xlink" x="0px" y="0px"
	 viewBox="0 0 129.5 129.5" enable-background="new 0 0 129.5 129.5" xml:space="preserve">
<g>
	<g>
		<path fill="#E6E9EE" d="M113.3,65.7c1.9,0,3.6-1.4,3.9-3.3c1.5-9.6,2.3-19.3,2.3-29V17.7c0-2.2-1.5-4.2-3.7-4.6
			c-2.8-0.4-5.1,1.7-5.1,4.3v-4.7c0-2.2-1.5-4.2-3.7-4.6c-2.8-0.4-5.1,1.7-5.1,4.3V5.4c0-2.2-1.5-4.2-3.7-4.6
			c-2.8-0.4-5.1,1.7-5.1,4.3v2.5c0-2.7-2.4-4.8-5.1-4.3c-2.2,0.4-3.7,2.4-3.7,4.6l0,21.5c0-2.7-2.4-4.8-5.1-4.3
			c-2.2,0.4-3.7,2.4-3.7,4.6v3.8c0,9.7,0.8,19.4,2.3,29c0.3,1.9,2,3.3,3.9,3.3L113.3,65.7z"/>
		<path fill="#FFD05B" d="M62.9,110.9c0,1.9,1.4,3.6,3.3,3.9c9.6,1.5,19.3,2.3,29,2.3l15.7,0c2.2,0,4.2-1.5,4.6-3.7
			c0.4-2.8-1.7-5.1-4.3-5.1l4.7,0c2.2,0,4.2-1.5,4.6-3.7c0.4-2.8-1.7-5.1-4.3-5.1l7.1,0c2.2,0,4.2-1.5,4.6-3.7
			c0.4-2.8-1.7-5.1-4.3-5.1h-2.5c2.7,0,4.8-2.4,4.3-5.1c-0.4-2.2-2.4-3.7-4.6-3.7l-21.5,0c2.7,0,4.8-2.4,4.3-5.1
			c-0.4-2.2-2.4-3.7-4.6-3.7h-3.8c-9.7,0-19.4,0.8-29,2.3c-1.9,0.3-3.3,2-3.3,3.9L62.9,110.9z"/>
		<path fill="#FF7058" d="M17.3,63.8c-1.9,0-3.6,1.4-3.9,3.3c-1.5,9.6-2.3,19.3-2.3,29l0,15.7c0,2.2,1.5,4.2,3.7,4.6
			c2.8,0.4,5.1-1.7,5.1-4.3v4.7c0,2.2,1.5,4.2,3.7,4.6c2.8,0.4,5.1-1.7,5.1-4.3v7.1c0,2.2,1.5,4.2,3.7,4.6c2.8,0.4,5.1-1.7,5.1-4.3
			v-2.5c0,2.7,2.4,4.8,5.1,4.3c2.2-0.4,3.7-2.4,3.7-4.6l0-21.5c0,2.7,2.4,4.8,5.1,4.3c2.2-0.4,3.7-2.4,3.7-4.6v-3.8
			c0-9.7-0.8-19.4-2.3-29c-0.3-1.9-2-3.3-3.9-3.3L17.3,63.8z"/>
		<path fill="#84DBFF" d="M66.6,17.5c0-1.9-1.4-3.6-3.3-3.9c-9.6-1.5-19.3-2.3-29-2.3l-15.7,0c-2.2,0-4.2,1.5-4.6,3.7
			c-0.4,2.8,1.7,5.1,4.3,5.1h-4.7c-2.2,0-4.2,1.5-4.6,3.7c-0.4,2.8,1.7,5.1,4.3,5.1l-7.1,0c-2.2,0-4.2,1.5-4.6,3.7
			c-0.4,2.8,1.7,5.1,4.3,5.1h2.5c-2.7,0-4.8,2.4-4.3,5.1c0.4,2.2,2.4,3.7,4.6,3.7h21.5c-2.7,0-4.8,2.4-4.3,5.1
			c0.4,2.2,2.4,3.7,4.6,3.7h3.8c9.7,0,19.4-0.8,29-2.3c1.9-0.3,3.3-2,3.3-3.9L66.6,17.5z"/>
		<path fill="#231F20" d="M127.5,91.8c-0.7-0.9-1.8-1.5-2.9-1.7c0.1-0.1,0.3-0.3,0.4-0.4c1-1.2,1.4-2.7,1.2-4.2
			c-0.4-2.4-2.7-4.3-5.3-4.3l-7.7,0V66.5h0.2c2.3,0,4.3-1.7,4.6-3.9c0.7-4.5,1.3-9.1,1.7-13.7h6.7c0.2,0,0.4-0.1,0.5-0.2
			c0.1-0.1,0.2-0.3,0.2-0.5V18.4c0-0.4-0.3-0.8-0.8-0.8h-6c0-2.6-1.9-4.9-4.3-5.3c-1.7-0.3-3.4,0.3-4.5,1.4v-1.1
			c0-2.6-1.8-4.9-4.3-5.3c-1.7-0.3-3.4,0.3-4.5,1.4V5.4c0-2.6-1.8-4.9-4.3-5.3C98.1,0,97.9,0,97.6,0c-2.5,0-4.5,1.8-5,4.1
			c-1.1-1.2-2.8-1.8-4.6-1.6c-2.4,0.4-4.3,2.7-4.3,5.3v9.8H67.3v-0.2c0-2.3-1.7-4.3-3.9-4.6c-4.9-0.8-9.8-1.4-14.7-1.7V4
			c0-0.4-0.3-0.8-0.8-0.8l-29.7,0c-0.2,0-0.4,0.1-0.5,0.2S17.5,3.8,17.5,4l0,6.6c-2.2,0.4-3.9,2.1-4.3,4.2c-0.2,1.5,0.2,3,1.2,4.2
			c0.1,0.1,0.2,0.2,0.3,0.3h-1.1c-2.6,0-4.9,1.8-5.3,4.3c-0.2,1.5,0.2,3,1.2,4.2c0.1,0.1,0.2,0.2,0.3,0.3H6.2
			c-2.6,0-4.9,1.8-5.3,4.3c-0.2,1.5,0.2,3,1.2,4.2c0.7,0.9,1.8,1.5,2.9,1.7c-0.1,0.1-0.3,0.3-0.4,0.4c-1,1.2-1.4,2.7-1.2,4.2
			c0.4,2.4,2.7,4.3,5.3,4.3h8.8V63h-0.2c-2.3,0-4.3,1.7-4.6,3.9c-0.7,4.2-1.2,8.4-1.6,12.6l-7.9,0c-0.2,0-0.4,0.1-0.5,0.2
			c-0.1,0.1-0.2,0.3-0.2,0.5V110c0,0.4,0.3,0.8,0.8,0.8l7.1,0v1.1c0,2.6,1.8,4.9,4.3,5.3c1.7,0.3,3.4-0.3,4.5-1.4v1.1
			c0,2.6,1.8,4.9,4.3,5.3c1.7,0.3,3.4-0.3,4.5-1.4v3.5c0,2.6,1.8,4.9,4.3,5.3c0.3,0,0.6,0.1,0.9,0.1c2.5,0,4.5-1.8,5-4.1
			c1.1,1.2,2.8,1.8,4.6,1.6c2.4-0.4,4.3-2.7,4.3-5.3v-10.9h15.2v0.2c0,2.3,1.7,4.3,3.9,4.6c5.3,0.8,10.5,1.4,15.9,1.8v8.1
			c0,0.4,0.3,0.8,0.8,0.8l29.7,0c0.2,0,0.4-0.1,0.5-0.2c0.1-0.1,0.2-0.3,0.2-0.5v-8.1c1.6-0.7,2.9-2.1,3.1-3.8
			c0.2-1.5-0.2-3-1.2-4.2c-0.1-0.1-0.2-0.2-0.3-0.3h1.1c2.6,0,4.9-1.8,5.3-4.3c0.2-1.5-0.2-3-1.2-4.2c-0.1-0.1-0.2-0.2-0.3-0.3h3.5
			c2.6,0,4.9-1.8,5.3-4.3C128.9,94.5,128.4,92.9,127.5,91.8z M120.3,33.4V19.2h5.3v28.2h-5.8C120.1,42.7,120.3,38,120.3,33.4z
			 M10.4,96.1v13.1l-6.4,0V81l7,0C10.6,86,10.4,91.1,10.4,96.1z M84.4,36c0.4,0,0.8-0.3,0.8-0.8V7.8c0-1.9,1.3-3.5,3-3.8
			c2.3-0.4,4.3,1.4,4.3,3.6c0,0.2,0.1,20.9,0.1,20.9c0,0.4,0.3,0.8,0.8,0.8c0.4,0,0.8-0.3,0.8-0.8c0,0-0.1-21.5-0.1-21.6V5.1
			c0-2.2,2-4,4.3-3.6c1.7,0.3,3,1.9,3,3.8v23.1c0,0.4,0.3,0.8,0.8,0.8c0.4,0,0.8-0.3,0.8-0.8v-16c0-2.2,2-4,4.3-3.6
			c1.7,0.3,3,1.9,3,3.8l0,20.2c0,0.4,0.3,0.8,0.8,0.8s0.8-0.3,0.8-0.8V17.5c0,0,0,0,0,0c0-2.2,2-4,4.3-3.6c1.7,0.3,3,1.9,3,3.8v15.7
			c0,9.6-0.8,19.3-2.3,28.9c-0.2,1.5-1.6,2.7-3.2,2.7l-31.5,0c-1.6,0-2.9-1.1-3.2-2.7c-1.5-9.6-2.3-19.3-2.3-28.9v-3.8
			c0-1.9,1.3-3.5,3-3.8c0.2,0,0.4-0.1,0.6-0.1c2,0,3.6,1.6,3.6,3.6v5.9C83.6,35.7,84,36,84.4,36z M104.4,76.7
			c-0.4-2.4-2.7-4.3-5.3-4.3h-3.8c-3.9,0-7.9,0.1-11.8,0.4v-6.3l28.2,0v14.7l-8.7,0c0.1-0.1,0.2-0.2,0.3-0.3
			C104.2,79.7,104.6,78.2,104.4,76.7z M67.3,19.2h16.3v6.6c-1.1-1.1-2.8-1.7-4.5-1.4c-2.4,0.4-4.3,2.7-4.3,5.3v3.8
			c0,4.6,0.2,9.3,0.5,13.9l-8.1,0V19.2z M19,4.8l28.2,0V11c-4.3-0.3-8.6-0.5-12.9-0.5H19L19,4.8z M8.7,45.7c-1.9,0-3.5-1.3-3.8-3
			c-0.2-1.1,0.1-2.1,0.8-3c0.7-0.8,1.7-1.3,2.8-1.3c0.2,0,20.9-0.1,20.9-0.1c0.4,0,0.8-0.3,0.8-0.8c0-0.4-0.3-0.8-0.8-0.8
			c0,0-21.5,0.1-21.6,0.1H6c-1.1,0-2.1-0.5-2.8-1.3c-0.7-0.8-1-1.9-0.8-3c0.3-1.7,1.9-3,3.8-3h23.1c0.4,0,0.8-0.3,0.8-0.8
			c0-0.4-0.3-0.8-0.8-0.8h-16c-1.1,0-2.1-0.5-2.8-1.3c-0.7-0.8-1-1.9-0.8-3c0.3-1.7,1.9-3,3.8-3h20.2c0.4,0,0.8-0.3,0.8-0.8
			c0-0.4-0.3-0.8-0.8-0.8H18.3c-1.1,0-2.1-0.5-2.8-1.3c-0.7-0.8-1-1.9-0.8-3c0.3-1.7,1.9-3,3.8-3h15.7c9.6,0,19.3,0.8,28.9,2.3
			c1.5,0.2,2.7,1.6,2.7,3.2V49c0,1.6-1.1,2.9-2.7,3.2c-9.6,1.5-19.3,2.3-28.9,2.3h-3.8c-1.9,0-3.5-1.3-3.8-3c-0.2-1.1,0.1-2.1,0.8-3
			c0.7-0.8,1.7-1.3,2.8-1.3l0,0h5.9c0.4,0,0.8-0.3,0.8-0.8c0-0.4-0.3-0.8-0.8-0.8L8.7,45.7z M25.1,51.7c0.4,2.4,2.7,4.3,5.3,4.3h3.8
			c4.3,0,8.6-0.2,12.9-0.5V63H19l0-15.8h7.6c-0.1,0.1-0.2,0.2-0.3,0.3C25.3,48.6,24.9,50.2,25.1,51.7z M46.3,93.5
			c-0.4,0-0.8,0.3-0.8,0.8v27.4c0,1.9-1.3,3.5-3,3.8c-2.3,0.4-4.3-1.4-4.3-3.6c0-0.2-0.1-20.9-0.1-20.9c0-0.4-0.3-0.8-0.8-0.8
			c-0.4,0-0.8,0.3-0.8,0.8c0,0,0.1,21.5,0.1,21.6v1.8c0,2.2-2,4-4.3,3.6c-1.7-0.3-3-1.9-3-3.8V101c0-0.4-0.3-0.8-0.8-0.8
			c-0.4,0-0.8,0.3-0.8,0.8v16c0,2.2-2,4-4.3,3.6c-1.7-0.3-3-1.9-3-3.8l0-20.2c0-0.4-0.3-0.8-0.8-0.8c-0.4,0-0.8,0.3-0.8,0.8V112
			c0,0,0,0,0,0c0,2.2-2,4-4.3,3.6c-1.7-0.3-3-1.9-3-3.8V96.1c0-9.6,0.8-19.3,2.3-28.9c0.2-1.5,1.6-2.7,3.2-2.7h31.5
			c1.6,0,2.9,1.1,3.2,2.7c1.5,9.6,2.3,19.3,2.3,28.9v3.8c0,1.9-1.3,3.5-3,3.8c-2.3,0.4-4.3-1.4-4.3-3.6v-5.9
			C47,93.8,46.7,93.5,46.3,93.5z M62.2,109.2H47v-5.5c1.1,1.1,2.8,1.7,4.5,1.4c2.4-0.4,4.3-2.7,4.3-5.3v-3.8c0-5-0.2-10-0.6-15.1h7
			V109.2z M62.2,79.4v0.2H55c-0.4-4.2-0.9-8.4-1.6-12.6c-0.4-2.2-2.4-3.9-4.6-3.9h-0.2v-7.6c4.9-0.4,9.8-1,14.7-1.7
			c2.2-0.4,3.9-2.4,3.9-4.6v-0.2l8.2,0c0.4,4.6,0.9,9.2,1.7,13.7c0.4,2.2,2.4,3.9,4.6,3.9H82v6.4c-5.3,0.4-10.6,1-15.9,1.8
			C63.9,75.1,62.2,77.1,62.2,79.4z M111.7,124.7l-28.2,0v-7.3c3.9,0.3,7.9,0.4,11.8,0.4H111c0.2,0,0.4,0,0.7-0.1V124.7z M127.1,95.7
			c-0.3,1.7-1.9,3-3.8,3l-23.1,0c-0.4,0-0.8,0.3-0.8,0.8c0,0.4,0.3,0.8,0.8,0.8h16c0,0,0,0,0,0c1.1,0,2.1,0.5,2.8,1.3
			c0.7,0.8,1,1.9,0.8,3c-0.3,1.7-1.9,3-3.8,3l-20.2,0c-0.4,0-0.8,0.3-0.8,0.8c0,0.4,0.3,0.8,0.8,0.8l15.5,0c1.1,0,2.1,0.5,2.8,1.3
			c0.7,0.8,1,1.9,0.8,3c-0.3,1.7-1.9,3-3.8,3h0H95.3c-9.6,0-19.3-0.8-28.9-2.3c-1.5-0.2-2.7-1.6-2.7-3.2V79.4c0-1.6,1.1-2.9,2.7-3.2
			c9.6-1.5,19.3-2.3,28.9-2.3h3.8c1.9,0,3.5,1.3,3.8,3c0.2,1.1-0.1,2.1-0.8,3c-0.7,0.8-1.7,1.3-2.8,1.3l0,0l0,0h-5.9
			c-0.4,0-0.8,0.3-0.8,0.8c0,0.4,0.3,0.8,0.8,0.8l27.4,0c1.9,0,3.5,1.3,3.8,3c0.2,1.1-0.1,2.1-0.8,3c-0.7,0.8-1.7,1.3-2.8,1.3
			c-0.2,0-20.9,0.1-20.9,0.1c-0.4,0-0.8,0.3-0.8,0.8s0.3,0.8,0.8,0.8c0,0,21.5-0.1,21.6-0.1h1.8c1.1,0,2.1,0.5,2.8,1.3
			C127,93.6,127.3,94.6,127.1,95.7z"/>
		<circle fill="#FF7058" cx="72" cy="7" r="1.8"/>
		<circle fill="#FFD05B" cx="8.1" cy="55.2" r="1.8"/>
		<circle fill="#54C0EB" cx="119.5" cy="71.3" r="1.8"/>
		<circle fill="#FF7058" cx="123.2" cy="119.5" r="1.8"/>
		<path fill="#231F20" d="M9.5,7.1C9.3,7.1,9.1,7,9,6.9C8.7,6.6,8.7,6.1,9,5.8l1.3-1.3c0.3-0.3,0.8-0.3,1.1,0c0.3,0.3,0.3,0.8,0,1.1
			L10,6.9C9.9,7,9.7,7.1,9.5,7.1z"/>
		<path fill="#231F20" d="M5.5,11.1c-0.2,0-0.4-0.1-0.5-0.2c-0.3-0.3-0.3-0.8,0-1.1l1.3-1.3c0.3-0.3,0.8-0.3,1.1,0
			c0.3,0.3,0.3,0.8,0,1.1L6,10.9C5.9,11,5.7,11.1,5.5,11.1z"/>
		<path fill="#231F20" d="M10.8,11.1c-0.2,0-0.4-0.1-0.5-0.2L9,9.6C8.7,9.3,8.7,8.8,9,8.5c0.3-0.3,0.8-0.3,1.1,0l1.3,1.3
			c0.3,0.3,0.3,0.8,0,1.1C11.2,11,11,11.1,10.8,11.1z"/>
		<path fill="#231F20" d="M6.8,7.1C6.6,7.1,6.4,7,6.2,6.9L4.9,5.6c-0.3-0.3-0.3-0.8,0-1.1c0.3-0.3,0.8-0.3,1.1,0l1.3,1.3
			c0.3,0.3,0.3,0.8,0,1.1C7.1,7,7,7.1,6.8,7.1z"/>
		<path fill="#231F20" d="M122.7,4.4c-0.2,0-0.4-0.1-0.5-0.2c-0.3-0.3-0.3-0.8,0-1.1l1.3-1.3c0.3-0.3,0.8-0.3,1.1,0
			c0.3,0.3,0.3,0.8,0,1.1l-1.3,1.3C123.1,4.3,122.9,4.4,122.7,4.4z"/>
		<path fill="#231F20" d="M118.7,8.4c-0.2,0-0.4-0.1-0.5-0.2c-0.3-0.3-0.3-0.8,0-1.1l1.3-1.3c0.3-0.3,0.8-0.3,1.1,0
			c0.3,0.3,0.3,0.8,0,1.1l-1.3,1.3C119.1,8.4,118.9,8.4,118.7,8.4z"/>
		<path fill="#231F20" d="M124,8.4c-0.2,0-0.4-0.1-0.5-0.2l-1.3-1.3c-0.3-0.3-0.3-0.8,0-1.1c0.3-0.3,0.8-0.3,1.1,0l1.3,1.3
			c0.3,0.3,0.3,0.8,0,1.1C124.4,8.4,124.2,8.4,124,8.4z"/>
		<path fill="#231F20" d="M120,4.4c-0.2,0-0.4-0.1-0.5-0.2l-1.3-1.3c-0.3-0.3-0.3-0.8,0-1.1s0.8-0.3,1.1,0l1.3,1.3
			c0.3,0.3,0.3,0.8,0,1.1C120.4,4.3,120.2,4.4,120,4.4z"/>
		<path fill="#231F20" d="M64.3,121.6c-0.2,0-0.4-0.1-0.5-0.2c-0.3-0.3-0.3-0.8,0-1.1l1.3-1.3c0.3-0.3,0.8-0.3,1.1,0
			c0.3,0.3,0.3,0.8,0,1.1l-1.3,1.3C64.7,121.5,64.5,121.6,64.3,121.6z"/>
		<path fill="#231F20" d="M60.3,125.6c-0.2,0-0.4-0.1-0.5-0.2c-0.3-0.3-0.3-0.8,0-1.1L61,123c0.3-0.3,0.8-0.3,1.1,0s0.3,0.8,0,1.1
			l-1.3,1.3C60.7,125.5,60.5,125.6,60.3,125.6z"/>
		<path fill="#231F20" d="M65.6,125.6c-0.2,0-0.4-0.1-0.5-0.2l-1.3-1.3c-0.3-0.3-0.3-0.8,0-1.1c0.3-0.3,0.8-0.3,1.1,0l1.3,1.3
			c0.3,0.3,0.3,0.8,0,1.1C66,125.5,65.8,125.6,65.6,125.6z"/>
		<path fill="#231F20" d="M61.6,121.6c-0.2,0-0.4-0.1-0.5-0.2l-1.3-1.3c-0.3-0.3-0.3-0.8,0-1.1c0.3-0.3,0.8-0.3,1.1,0l1.3,1.3
			c0.3,0.3,0.3,0.8,0,1.1C62,121.5,61.8,121.6,61.6,121.6z"/>
	</g>
</g>
</svg>
