<?xml version="1.0" encoding="utf-8"?>
<!-- Generator: Adobe Illustrator 18.0.0, SVG Export Plug-In . SVG Version: 6.00 Build 0)  -->
<!DOCTYPE svg PUBLIC "-//W3C//DTD SVG 1.1//EN" "http://www.w3.org/Graphics/SVG/1.1/DTD/svg11.dtd">
<svg version="1.1" id="Layer_1" xmlns="http://www.w3.org/2000/svg" xmlns:xlink="http://www.w3.org/1999/xlink" x="0px" y="0px"
	 viewBox="0 0 129.5 129.5" enable-background="new 0 0 129.5 129.5" xml:space="preserve">
<g>
	<g>
		<g>
			<path fill="#231F20" d="M8.2,6.5C8,6.5,7.8,6.5,7.6,6.3C7.3,6,7.3,5.6,7.6,5.3L8.9,4C9.2,3.7,9.7,3.7,10,4c0.3,0.3,0.3,0.8,0,1.1
				L8.7,6.3C8.5,6.5,8.4,6.5,8.2,6.5z"/>
		</g>
		<g>
			<path fill="#231F20" d="M4.1,10.6c-0.2,0-0.4-0.1-0.5-0.2c-0.3-0.3-0.3-0.8,0-1.1L4.9,8C5.2,7.7,5.7,7.7,6,8
				c0.3,0.3,0.3,0.8,0,1.1l-1.3,1.3C4.5,10.5,4.3,10.6,4.1,10.6z"/>
		</g>
		<g>
			<path fill="#231F20" d="M9.5,10.6c-0.2,0-0.4-0.1-0.5-0.2L7.6,9.1C7.3,8.8,7.3,8.3,7.6,8c0.3-0.3,0.8-0.3,1.1,0L10,9.3
				c0.3,0.3,0.3,0.8,0,1.1C9.8,10.5,9.6,10.6,9.5,10.6z"/>
		</g>
		<g>
			<path fill="#231F20" d="M5.4,6.5C5.2,6.5,5,6.5,4.9,6.3L3.6,5C3.3,4.7,3.3,4.3,3.6,4c0.3-0.3,0.8-0.3,1.1,0L6,5.3
				C6.2,5.6,6.2,6,6,6.3C5.8,6.5,5.6,6.5,5.4,6.5z"/>
		</g>
		<g>
			<path fill="#231F20" d="M120.6,11.9c-0.2,0-0.4-0.1-0.5-0.2c-0.3-0.3-0.3-0.8,0-1.1l1.3-1.3c0.3-0.3,0.8-0.3,1.1,0
				c0.3,0.3,0.3,0.8,0,1.1l-1.3,1.3C121,11.8,120.8,11.9,120.6,11.9z"/>
		</g>
		<g>
			<path fill="#231F20" d="M116.6,15.9c-0.2,0-0.4-0.1-0.5-0.2c-0.3-0.3-0.3-0.8,0-1.1l1.3-1.3c0.3-0.3,0.8-0.3,1.1,0
				c0.3,0.3,0.3,0.8,0,1.1l-1.3,1.3C117,15.8,116.8,15.9,116.6,15.9z"/>
		</g>
		<g>
			<path fill="#231F20" d="M121.9,15.9c-0.2,0-0.4-0.1-0.5-0.2l-1.3-1.3c-0.3-0.3-0.3-0.8,0-1.1c0.3-0.3,0.8-0.3,1.1,0l1.3,1.3
				c0.3,0.3,0.3,0.8,0,1.1C122.3,15.8,122.1,15.9,121.9,15.9z"/>
		</g>
		<g>
			<path fill="#231F20" d="M117.9,11.9c-0.2,0-0.4-0.1-0.5-0.2l-1.3-1.3c-0.3-0.3-0.3-0.8,0-1.1c0.3-0.3,0.8-0.3,1.1,0l1.3,1.3
				c0.3,0.3,0.3,0.8,0,1.1C118.3,11.8,118.1,11.9,117.9,11.9z"/>
		</g>
		<g>
			<path fill="#231F20" d="M55.5,85.8c-0.2,0-0.4-0.1-0.5-0.2c-0.3-0.3-0.3-0.8,0-1.1l1.3-1.3c0.3-0.3,0.8-0.3,1.1,0
				c0.3,0.3,0.3,0.8,0,1.1l-1.3,1.3C55.9,85.8,55.7,85.8,55.5,85.8z"/>
		</g>
		<g>
			<path fill="#231F20" d="M51.5,89.9c-0.2,0-0.4-0.1-0.5-0.2c-0.3-0.3-0.3-0.8,0-1.1l1.3-1.3c0.3-0.3,0.8-0.3,1.1,0
				c0.3,0.3,0.3,0.8,0,1.1L52,89.7C51.9,89.8,51.7,89.9,51.5,89.9z"/>
		</g>
		<g>
			<path fill="#231F20" d="M56.8,89.9c-0.2,0-0.4-0.1-0.5-0.2L55,88.4c-0.3-0.3-0.3-0.8,0-1.1c0.3-0.3,0.8-0.3,1.1,0l1.3,1.3
				c0.3,0.3,0.3,0.8,0,1.1C57.2,89.8,57,89.9,56.8,89.9z"/>
		</g>
		<g>
			<path fill="#231F20" d="M52.8,85.8c-0.2,0-0.4-0.1-0.5-0.2L51,84.3c-0.3-0.3-0.3-0.8,0-1.1c0.3-0.3,0.8-0.3,1.1,0l1.3,1.3
				c0.3,0.3,0.3,0.8,0,1.1C53.2,85.8,53,85.8,52.8,85.8z"/>
		</g>
		<g>
			<path fill="#231F20" d="M66.8,107.6h-8.1c-0.4,0-0.8-0.3-0.8-0.8c0-0.4,0.3-0.8,0.8-0.8h8.1c0.4,0,0.8,0.3,0.8,0.8
				C67.6,107.3,67.3,107.6,66.8,107.6z"/>
		</g>
		<g>
			<path fill="#231F20" d="M70,110.6h-4c-0.4,0-0.8-0.3-0.8-0.8c0-0.4,0.3-0.8,0.8-0.8h4c0.4,0,0.8,0.3,0.8,0.8
				C70.8,110.3,70.4,110.6,70,110.6z"/>
		</g>
		<g>
			<path fill="#231F20" d="M74.3,107.6h-3.8c-0.4,0-0.8-0.3-0.8-0.8c0-0.4,0.3-0.8,0.8-0.8h3.8c0.4,0,0.8,0.3,0.8,0.8
				C75,107.3,74.7,107.6,74.3,107.6z"/>
		</g>
		<g>
			<path fill="#231F20" d="M63.2,110.6h-0.8c-0.4,0-0.8-0.3-0.8-0.8c0-0.4,0.3-0.8,0.8-0.8h0.8c0.4,0,0.8,0.3,0.8,0.8
				C63.9,110.3,63.6,110.6,63.2,110.6z"/>
		</g>
		<path fill="#FFD05B" d="M128.8,128.8v-3.7c0-12.1-9.8-21.8-21.8-21.8l0,0c-12.1,0-21.8,9.8-21.8,21.8v3.7H128.8z"/>
		<path fill="#FFFFFF" d="M112.6,98h-11.5v9.6c0,2.9,2.4,5.3,5.3,5.3h0.9c2.9,0,5.3-2.4,5.3-5.3V98z"/>
		<path fill="#FFFFFF" d="M122,86.6c-0.5-0.4-1.1-0.5-1.8-0.4c-0.2-9.3-6-14.1-13.2-14.1c-7.2,0-13.1,4.8-13.2,14.1
			c-0.7-0.1-1.3,0-1.8,0.4c-1.1,0.9-0.9,3,0.4,4.6c0.6,0.7,1.4,1.2,2.1,1.5c1.8,7.6,6.7,14.3,12.5,14.3c5.8,0,10.7-6.7,12.5-14.3
			c0.7-0.2,1.5-0.8,2.1-1.5C122.9,89.5,123.1,87.5,122,86.6z"/>
		<path fill="#FF7058" d="M44.4,128.8v-3.7c0-12.1-9.8-21.8-21.8-21.8h0c-12.1,0-21.8,9.8-21.8,21.8v3.7H44.4z"/>
		<path fill="#FFFFFF" d="M28.3,98H16.9v9.6c0,2.9,2.4,5.3,5.3,5.3H23c2.9,0,5.3-2.4,5.3-5.3V98z"/>
		<path fill="#FFFFFF" d="M37.7,86.6c-0.5-0.4-1.1-0.5-1.8-0.4c-0.2-9.3-6-14.1-13.2-14.1c-7.2,0-13.1,4.8-13.2,14.1
			c-0.7-0.1-1.3,0-1.8,0.4c-1.1,0.9-0.9,3,0.4,4.6c0.6,0.7,1.4,1.2,2.1,1.5c1.8,7.6,6.7,14.3,12.5,14.3c5.8,0,10.7-6.7,12.5-14.3
			c0.7-0.2,1.5-0.8,2.1-1.5C38.6,89.5,38.8,87.5,37.7,86.6z"/>
		<circle fill="#FF7058" cx="34.7" cy="28.1" r="1.9"/>
		<circle fill="#E6E9EE" cx="78" cy="76.9" r="1.9"/>
		<circle fill="#84DBFF" cx="63" cy="125.1" r="1.9"/>
		<circle fill="#84DBFF" cx="119.3" cy="28.6" r="1.9"/>
		<circle fill="#E6E9EE" cx="8.9" cy="19.4" r="1.9"/>
		<path fill="#E6E9EE" d="M108,62.7c-1.6-4.3-4.3-9.5-7.1-12.8l7.1,2.6l7.1-2.6C112.3,53.2,109.6,58.5,108,62.7z"/>
		<path fill="#84DBFF" d="M88.2,61.6v-3.9c0-12.9-10.5-23.4-23.4-23.4h0c-12.9,0-23.4,10.5-23.4,23.4v3.9H88.2z"/>
		<path fill="#FFFFFF" d="M70.9,28.6H58.6v10.7c0,2.9,2.4,5.3,5.3,5.3h1.7c2.9,0,5.3-2.4,5.3-5.3V28.6z"/>
		<path fill="#FFFFFF" d="M80.9,16.3c-0.5-0.4-1.2-0.6-2-0.4c-0.2-10-6.5-15.2-14.2-15.2s-14,5.2-14.2,15.2c-0.7-0.1-1.4,0-2,0.4
			c-1.2,1-1,3.2,0.4,4.9c0.7,0.8,1.5,1.3,2.3,1.6c1.9,8.1,7.2,15.3,13.4,15.3c6.2,0,11.5-7.2,13.4-15.3c0.8-0.3,1.6-0.8,2.3-1.6
			C81.9,19.5,82.1,17.3,80.9,16.3z"/>
		<path fill="#E6E9EE" d="M21.5,62.7c-1.6-4.3-4.3-9.5-7.1-12.8l7.1,2.6l7.1-2.6C25.8,53.2,23.1,58.5,21.5,62.7z"/>
		<g>
			<path fill="#231F20" d="M114.6,103.9c2.6-2.8,4.5-6.8,5.5-10.7c0.8-0.3,1.5-0.9,2.1-1.6c1.6-2,1.8-4.4,0.3-5.6
				c-0.4-0.4-1-0.6-1.6-0.6c-0.5-8.6-5.9-14.1-14-14.1c-8.1,0-13.5,5.5-14,14.1c-0.6,0-1.2,0.2-1.6,0.6c-1.5,1.2-1.3,3.7,0.3,5.6
				c0.6,0.7,1.3,1.2,2.1,1.6c1,3.9,2.9,7.8,5.5,10.6c-8.7,3.2-14.9,11.5-14.9,21.2v4.4h45.2v-4.4C129.5,115.3,123.3,107,114.6,103.9
				z M95.1,92.5L95,92.1l-0.4-0.1c-0.7-0.2-1.3-0.7-1.8-1.3c-1.1-1.3-1.3-2.9-0.5-3.5c0.2-0.2,0.5-0.3,0.8-0.3c0.1,0,0.3,0,0.4,0
				l0.9,0.1l0-0.9c0.2-8.1,5.1-13.4,12.5-13.4c7.4,0,12.3,5.3,12.5,13.4l0,0.9l0.9-0.1c0.5-0.1,0.9,0,1.2,0.2
				c0.8,0.7,0.5,2.3-0.5,3.5c-0.5,0.6-1.1,1-1.8,1.3l-0.4,0.1l-0.1,0.4c-1.6,6.8-6.2,13.7-11.8,13.7
				C101.3,106.1,96.7,99.3,95.1,92.5z M111.9,106.1v1.5c0,2.5-2,4.5-4.5,4.5h-0.9c-2.5,0-4.5-2-4.5-4.5v-1.5c1.5,1,3.2,1.5,5,1.5
				C108.7,107.6,110.4,107.1,111.9,106.1z M128,128h-8v-6.6h-1.5v6.6H95.3v-6.6h-1.5v6.6h-8v-2.9c0-9.4,6.1-17.3,14.6-20v2.6
				c0,3.3,2.7,6,6,6h0.9c3.3,0,6-2.7,6-6v-2.5c8.5,2.7,14.6,10.6,14.6,20V128z"/>
			<path fill="#231F20" d="M30.3,103.9c2.6-2.8,4.5-6.8,5.5-10.7c0.8-0.3,1.5-0.9,2.1-1.6c0.7-0.9,1.2-1.9,1.3-3
				c0.1-1.1-0.3-2.1-1-2.7c-0.4-0.4-1-0.6-1.6-0.6c-0.5-8.6-5.9-14.1-14-14.1s-13.5,5.5-14,14.1C8,85.4,7.5,85.6,7,86
				c-1.5,1.2-1.3,3.7,0.3,5.6c0.6,0.7,1.3,1.2,2.1,1.6c1,3.9,2.9,7.8,5.5,10.6C6.2,107,0,115.3,0,125.1v4.4h45.2v-4.4
				C45.2,115.3,39,107,30.3,103.9z M10.8,92.5l-0.1-0.4l-0.4-0.1c-0.7-0.2-1.3-0.7-1.8-1.3c-1.1-1.3-1.3-2.9-0.5-3.5
				c0.2-0.2,0.5-0.3,0.8-0.3c0.1,0,0.3,0,0.4,0l0.9,0.1l0-0.9c0.2-8.1,5.1-13.4,12.5-13.4c7.4,0,12.3,5.3,12.5,13.4l0,0.9l0.9-0.1
				c0.5-0.1,0.9,0,1.2,0.2c0.5,0.4,0.5,1,0.4,1.4c-0.1,0.7-0.4,1.5-1,2.1c-0.5,0.6-1.1,1-1.8,1.3l-0.4,0.1l-0.1,0.4
				c-1.6,6.8-6.2,13.7-11.8,13.7C17,106.1,12.4,99.3,10.8,92.5z M27.6,106.1v1.5c0,2.5-2,4.5-4.5,4.5h-0.9c-2.5,0-4.5-2-4.5-4.5
				v-1.5c1.5,1,3.2,1.5,5,1.5C24.4,107.6,26.1,107.1,27.6,106.1z M43.7,128h-8v-6.6h-1.5v6.6H11v-6.6H9.5v6.6h-8v-2.9
				c0-9.4,6.1-17.3,14.6-20v2.6c0,3.3,2.7,6,6,6H23c3.3,0,6-2.7,6-6V105c8.5,2.7,14.6,10.7,14.6,20V128z"/>
			<line fill="#FFFFFF" x1="78" y1="61.6" x2="78" y2="53.7"/>
			<line fill="#FFFFFF" x1="51.5" y1="61.6" x2="51.5" y2="53.7"/>
			<g>
				<path fill="#231F20" d="M115.8,49.5c-0.2-0.3-0.6-0.4-0.9-0.3l-6.1,2.2V14.1H91.2v1.5h16v35.8l-6.1-2.2c-0.3-0.1-0.7,0-0.9,0.3
					c-0.2,0.3-0.2,0.7,0.1,0.9c3,3.4,5.6,8.9,7,12.6c0.1,0.3,0.4,0.5,0.7,0.5s0.6-0.2,0.7-0.5c1.4-3.7,4-9.2,7-12.6
					C115.9,50.1,116,49.7,115.8,49.5z M108,60.7c-1.2-2.9-3-6.4-4.9-9.2l4.7,1.7c0.2,0.1,0.3,0.1,0.5,0l4.7-1.7
					C111,54.3,109.2,57.7,108,60.7z"/>
				<path fill="#231F20" d="M20.7,51.4l-6.1-2.2c-0.3-0.1-0.7,0-0.9,0.3c-0.2,0.3-0.2,0.7,0.1,0.9c3,3.4,5.6,8.9,7,12.6
					c0.1,0.3,0.4,0.5,0.7,0.5c0.3,0,0.6-0.2,0.7-0.5c1.4-3.7,4-9.2,7-12.6c0.2-0.3,0.2-0.6,0.1-0.9c-0.2-0.3-0.6-0.4-0.9-0.3
					l-6.1,2.2V15.6h16v-1.5H20.7V51.4z M21.5,60.7c-1.2-2.9-3-6.4-4.9-9.2l4.7,1.7c0.2,0.1,0.3,0.1,0.5,0l4.7-1.7
					C24.4,54.3,22.7,57.7,21.5,60.7z"/>
				<rect x="41.5" y="14.1" fill="#231F20" width="1" height="1.5"/>
				<rect x="44.5" y="14.1" fill="#231F20" width="1" height="1.5"/>
				<rect x="38.5" y="14.1" fill="#231F20" width="1" height="1.5"/>
				<rect x="87" y="14.1" fill="#231F20" width="1" height="1.5"/>
				<rect x="84" y="14.1" fill="#231F20" width="1" height="1.5"/>
				<rect x="90" y="14.1" fill="#231F20" width="1" height="1.5"/>
				<path fill="#231F20" d="M72.9,34.9c2.8-3,4.9-7.3,5.9-11.5c0.8-0.4,1.6-0.9,2.2-1.7c0.8-0.9,1.3-2.1,1.4-3.1
					c0.1-1.2-0.3-2.2-1-2.8c-0.1-0.1-0.1-0.1-0.2-0.1H82v-1.5h-1v1.4c-0.4-0.2-0.8-0.3-1.3-0.4C79.2,5.9,73.4,0,64.7,0
					S50.3,5.9,49.8,15.1c-0.5,0-0.9,0.1-1.3,0.4v-1.4h-1v1.5h0.8c-0.1,0-0.1,0.1-0.2,0.1c-0.8,0.6-1.1,1.7-1,2.8
					c0.1,1.1,0.6,2.2,1.4,3.1c0.6,0.7,1.4,1.3,2.2,1.7c1.1,4.2,3.1,8.5,5.9,11.5c-9.3,3.4-16,12.3-16,22.7v4.7h48.4v-4.7
					C88.9,47.2,82.2,38.2,72.9,34.9z M52,22.7l-0.1-0.4l-0.4-0.1c-0.7-0.2-1.4-0.7-1.9-1.4c-0.6-0.7-1-1.6-1-2.3
					c0-0.4,0-1.1,0.5-1.5c0.2-0.2,0.5-0.3,0.9-0.3c0.1,0,0.3,0,0.4,0l0.9,0.1l0-0.9c0.2-8.8,5.5-14.4,13.5-14.4S78,7.2,78.2,15.9
					l0,0.9l0.9-0.1c0.5-0.1,1,0,1.3,0.3c0.5,0.4,0.5,1.2,0.5,1.5c-0.1,0.8-0.4,1.6-1,2.3c-0.5,0.7-1.2,1.1-1.9,1.4l-0.4,0.1
					l-0.1,0.4c-1.7,7.3-6.7,14.7-12.7,14.7S53.8,30,52,22.7z M70.2,37.2v2.1c0,2.5-2,4.5-4.5,4.5h-1.7c-2.5,0-4.5-2-4.5-4.5v-2.1
					c1.6,1.1,3.4,1.7,5.4,1.7C66.7,38.9,68.5,38.3,70.2,37.2z M87.4,60.8h-8.7v-7.2h-1.5v7.2h-25v-7.2h-1.5v7.2h-8.7v-3.2
					c0-10.1,6.6-18.6,15.7-21.6c0,0,0,0,0,0v3.2c0,3.3,2.7,6,6,6h1.7c3.3,0,6-2.7,6-6v-3.2c0,0,0,0,0,0c9.1,2.9,15.8,11.5,15.8,21.6
					V60.8z"/>
			</g>
		</g>
	</g>
</g>
</svg>
