<?xml version="1.0" encoding="utf-8"?>
<!-- Generator: Adobe Illustrator 18.0.0, SVG Export Plug-In . SVG Version: 6.00 Build 0)  -->
<!DOCTYPE svg PUBLIC "-//W3C//DTD SVG 1.1//EN" "http://www.w3.org/Graphics/SVG/1.1/DTD/svg11.dtd">
<svg version="1.1" id="Layer_1" xmlns="http://www.w3.org/2000/svg" xmlns:xlink="http://www.w3.org/1999/xlink" x="0px" y="0px"
	 viewBox="0 0 129.5 129.5" enable-background="new 0 0 129.5 129.5" xml:space="preserve">
<g>
	<g>
		<g>
			<polygon fill="#CED5E0" points="74.9,111.6 53.9,111.6 55.2,115.9 73.6,115.9 			"/>
		</g>
		<g>
			<polygon fill="#CED5E0" points="62,12.8 62,15.8 76,15.8 79,17.4 84,15.8 84,12.9 79,11.3 76,12.8 			"/>
		</g>
		<g>
			<path fill="#CED5E0" d="M25.4,53.2c1.1,1,2.5,1.6,3.9,2l0.1,2l2.2,0.2l0.4-2c1.5-0.1,2.9-0.6,4.1-1.4l1.6,1.4l1.7-1.4l-1.2-1.8
				c0.9-1.1,1.6-2.4,1.9-3.8l2.2-0.1l0.2-2.2l-2.1-0.5c-0.1-1.5-0.6-2.9-1.3-4.1l1.4-1.6l-1.4-1.7l-1.8,1.1c-1.1-1-2.4-1.7-3.8-2
				l-0.1-2.1l-2.2-0.2l-0.4,2c-1.5,0.1-3,0.6-4.2,1.3l-1.5-1.3l-1.7,1.4l1.1,1.7c-1,1.1-1.7,2.5-2.1,4l-2,0.1l-0.2,2.2l1.9,0.4
				c0.1,1.5,0.6,3,1.4,4.3l-1.3,1.5l1.4,1.7L25.4,53.2z M26.1,45.8c0.2-2.9,2.8-5.1,5.8-4.9c2.9,0.2,5.1,2.8,4.9,5.8
				c-0.2,2.9-2.8,5.1-5.8,4.9C28,51.3,25.9,48.8,26.1,45.8z"/>
		</g>
		<g>
			<path fill="#CED5E0" d="M11.5,61.5l-0.7,1.2l1.1,0.9l1-1c0.8,0.4,1.7,0.7,2.7,0.7l0.4,1.4l1.4-0.2l0-1.4c0.9-0.3,1.8-0.8,2.4-1.4
				l1.2,0.7l0.9-1.1l-1-1c0.5-0.8,0.7-1.8,0.8-2.7l1.3-0.4l-0.2-1.4l-1.3,0c-0.3-1-0.8-1.8-1.4-2.5l0.6-1.1l-1.1-0.9l-0.9,0.9
				c-0.8-0.5-1.8-0.7-2.8-0.8l-0.3-1.2l-1.4,0.2l0,1.3c-1,0.3-1.8,0.8-2.5,1.5l-1.1-0.6l-0.9,1.1l0.9,0.9c-0.5,0.8-0.7,1.8-0.7,2.8
				l-1.3,0.4l0.2,1.4l1.4,0C10.4,60,10.9,60.8,11.5,61.5z M12.4,57.9c-0.3-1.9,1.1-3.7,3-3.9c1.9-0.3,3.7,1.1,3.9,3
				c0.3,1.9-1.1,3.7-3,3.9C14.4,61.1,12.6,59.8,12.4,57.9z"/>
		</g>
		<g>
			<path fill="#CED5E0" d="M5.7,47.3c1.1,0.8,2.4,1.3,3.7,1.5l0.3,1.9l2,0l0.2-1.9c1.3-0.2,2.5-0.7,3.6-1.5l1.6,1.2l1.4-1.4
				l-1.2-1.6c0.8-1.1,1.3-2.3,1.5-3.6l1.9-0.3l0-2l-1.9-0.2c-0.2-1.3-0.7-2.6-1.5-3.7l1.1-1.5L17,32.7l-1.5,1.1
				c-1.1-0.8-2.4-1.3-3.7-1.5l-0.3-1.8l-2,0l-0.2,1.8C8,32.5,6.7,33,5.5,33.8l-1.4-1.1l-1.4,1.4l1.1,1.4c-0.8,1.1-1.3,2.4-1.5,3.8
				l-1.8,0.3l0,2l1.8,0.2c0.2,1.3,0.7,2.6,1.6,3.7l-1.1,1.5l1.4,1.4L5.7,47.3z M7.1,37.2c1.9-1.9,5-1.9,6.9,0c1.9,1.9,1.9,5,0,6.9
				c-1.9,1.9-5,1.9-6.9,0C5.3,42.2,5.2,39.1,7.1,37.2z"/>
		</g>
		<path fill="#FFFFFF" d="M109.7,111.6H19.1v-60c0-1.8,1.5-3.3,3.3-3.3h84c1.8,0,3.3,1.5,3.3,3.3V111.6z"/>
		<g>
			<rect x="23.9" y="55.1" fill="#84DBFF" width="80.9" height="49.8"/>
		</g>
		<g>
			<g>
				<path fill="#231F20" d="M77.5,24.7c-0.2,0-0.4-0.1-0.5-0.2c-0.3-0.3-0.3-0.8,0-1.1l1.3-1.3c0.3-0.3,0.8-0.3,1.1,0
					c0.3,0.3,0.3,0.8,0,1.1L78,24.5C77.9,24.6,77.7,24.7,77.5,24.7z"/>
			</g>
			<g>
				<path fill="#231F20" d="M73.5,28.7c-0.2,0-0.4-0.1-0.5-0.2c-0.3-0.3-0.3-0.8,0-1.1l1.3-1.3c0.3-0.3,0.8-0.3,1.1,0
					c0.3,0.3,0.3,0.8,0,1.1L74,28.5C73.9,28.6,73.7,28.7,73.5,28.7z"/>
			</g>
			<g>
				<path fill="#231F20" d="M78.8,28.7c-0.2,0-0.4-0.1-0.5-0.2L77,27.2c-0.3-0.3-0.3-0.8,0-1.1c0.3-0.3,0.8-0.3,1.1,0l1.3,1.3
					c0.3,0.3,0.3,0.8,0,1.1C79.2,28.6,79,28.7,78.8,28.7z"/>
			</g>
			<g>
				<path fill="#231F20" d="M74.8,24.7c-0.2,0-0.4-0.1-0.5-0.2L73,23.2c-0.3-0.3-0.3-0.8,0-1.1c0.3-0.3,0.8-0.3,1.1,0l1.3,1.3
					c0.3,0.3,0.3,0.8,0,1.1C75.2,24.6,75,24.7,74.8,24.7z"/>
			</g>
		</g>
		<g>
			<g>
				<path fill="#231F20" d="M121.9,53.2c-0.2,0-0.4-0.1-0.5-0.2c-0.3-0.3-0.3-0.8,0-1.1l1.3-1.3c0.3-0.3,0.8-0.3,1.1,0
					c0.3,0.3,0.3,0.8,0,1.1l-1.3,1.3C122.3,53.1,122.1,53.2,121.9,53.2z"/>
			</g>
			<g>
				<path fill="#231F20" d="M117.8,57.2c-0.2,0-0.4-0.1-0.5-0.2c-0.3-0.3-0.3-0.8,0-1.1l1.3-1.3c0.3-0.3,0.8-0.3,1.1,0
					c0.3,0.3,0.3,0.8,0,1.1l-1.3,1.3C118.2,57.1,118,57.2,117.8,57.2z"/>
			</g>
			<g>
				<path fill="#231F20" d="M123.2,57.2c-0.2,0-0.4-0.1-0.5-0.2l-1.3-1.3c-0.3-0.3-0.3-0.8,0-1.1c0.3-0.3,0.8-0.3,1.1,0l1.3,1.3
					c0.3,0.3,0.3,0.8,0,1.1C123.5,57.1,123.3,57.2,123.2,57.2z"/>
			</g>
			<g>
				<path fill="#231F20" d="M119.1,53.2c-0.2,0-0.4-0.1-0.5-0.2l-1.3-1.3c-0.3-0.3-0.3-0.8,0-1.1c0.3-0.3,0.8-0.3,1.1,0l1.3,1.3
					c0.3,0.3,0.3,0.8,0,1.1C119.5,53.1,119.3,53.2,119.1,53.2z"/>
			</g>
		</g>
		<g>
			<g>
				<path fill="#231F20" d="M9.9,86c-0.2,0-0.4-0.1-0.5-0.2c-0.3-0.3-0.3-0.8,0-1.1l1.3-1.3c0.3-0.3,0.8-0.3,1.1,0
					c0.3,0.3,0.3,0.8,0,1.1l-1.3,1.3C10.3,85.9,10.1,86,9.9,86z"/>
			</g>
			<g>
				<path fill="#231F20" d="M5.9,90c-0.2,0-0.4-0.1-0.5-0.2c-0.3-0.3-0.3-0.8,0-1.1l1.3-1.3c0.3-0.3,0.8-0.3,1.1,0
					c0.3,0.3,0.3,0.8,0,1.1l-1.3,1.3C6.3,90,6.1,90,5.9,90z"/>
			</g>
			<g>
				<path fill="#231F20" d="M11.2,90c-0.2,0-0.4-0.1-0.5-0.2l-1.3-1.3c-0.3-0.3-0.3-0.8,0-1.1c0.3-0.3,0.8-0.3,1.1,0l1.3,1.3
					c0.3,0.3,0.3,0.8,0,1.1C11.6,90,11.4,90,11.2,90z"/>
			</g>
			<g>
				<path fill="#231F20" d="M7.2,86c-0.2,0-0.4-0.1-0.5-0.2l-1.3-1.3c-0.3-0.3-0.3-0.8,0-1.1c0.3-0.3,0.8-0.3,1.1,0l1.3,1.3
					C8,85,8,85.5,7.7,85.8C7.6,85.9,7.4,86,7.2,86z"/>
			</g>
		</g>
		<path fill="#FFFFFF" d="M85.2,104.8v-3.5c0-11.5-9.3-20.8-20.8-20.8h0c-11.5,0-20.8,9.3-20.8,20.8v3.5H85.2z"/>
		<path fill="#FFFFFF" d="M69.8,75.5H58.9v8.9c0,2.9,2.4,5.3,5.3,5.3h0.4c2.9,0,5.3-2.4,5.3-5.3V75.5z"/>
		<path fill="#FFD05B" d="M76.3,38.9c-0.2-3.1-2.8-5.5-5.8-5.2c-13.8,1.4-23-4.2-23-4.2s-0.5,6.2,2,11.1c-2.1,1.7-3.4,4.3-3.4,7.2
			v13.4c0,1.9,1.6,3.5,3.5,3.5h29.4c1.9,0,3.5-1.6,3.5-3.5V47.8C82.6,43.7,80,40.2,76.3,38.9z"/>
		<path fill="#FFFFFF" d="M79.2,57.5h-0.1v-3.8c-5.9-0.6-10.8-4.8-12.4-10.3c-3.6,5.8-9.8,9.8-17,10.4v3.8h-0.1
			c-1.2,0-2.1,1-2.1,2.1c0,1.2,1,2.1,2.1,2.1h0.1v2.9c0,8.1,6.6,14.7,14.7,14.7c8.1,0,14.7-6.6,14.7-14.7v-2.9h0.1
			c1.2,0,2.1-1,2.1-2.1C81.4,58.5,80.4,57.5,79.2,57.5z"/>
		<path fill="#231F20" d="M73.9,59.6c-0.4,0-0.7-0.3-0.7-0.6c-0.2-1-1-1.6-2-1.6c-1,0-1.8,0.7-2,1.6c-0.1,0.4-0.5,0.7-0.9,0.6
			c-0.4-0.1-0.7-0.5-0.6-0.9c0.3-1.7,1.8-2.9,3.4-2.9c1.7,0,3.1,1.2,3.4,2.9c0.1,0.4-0.2,0.8-0.6,0.9C74,59.6,74,59.6,73.9,59.6z"/>
		<path fill="#231F20" d="M60.3,59.6c-0.4,0-0.7-0.3-0.7-0.6c-0.2-1-1-1.6-2-1.6s-1.8,0.7-2,1.6c-0.1,0.4-0.5,0.7-0.9,0.6
			c-0.4-0.1-0.7-0.5-0.6-0.9c0.3-1.7,1.8-2.9,3.4-2.9s3.1,1.2,3.4,2.9c0.1,0.4-0.2,0.8-0.6,0.9C60.4,59.6,60.3,59.6,60.3,59.6z"/>
		<path fill="#231F20" d="M64.4,73.8c-2.6,0-4.9-1.8-5.6-4.3l-0.3-1h11.8l-0.3,1C69.3,72.1,67,73.8,64.4,73.8z M60.6,70.1
			c0.8,1.3,2.2,2.2,3.8,2.2c1.6,0,3-0.9,3.8-2.2H60.6z"/>
		<line fill="#FFFFFF" x1="76.1" y1="104.8" x2="76.1" y2="97.8"/>
		<line fill="#FFFFFF" x1="52.6" y1="104.8" x2="52.6" y2="97.8"/>
		<g>
			<path fill="#231F20" d="M72.5,128H48.1c-0.4,0-0.8,0.3-0.8,0.8c0,0.4,0.3,0.8,0.8,0.8h24.4c0.4,0,0.8-0.3,0.8-0.8
				C73.3,128.3,72.9,128,72.5,128z"/>
			<path fill="#231F20" d="M80.6,128h-4.3c-0.4,0-0.8,0.3-0.8,0.8c0,0.4,0.3,0.8,0.8,0.8h4.3c0.4,0,0.8-0.3,0.8-0.8
				C81.4,128.3,81,128,80.6,128z"/>
			<path fill="#231F20" d="M105.3,123H80.9c-0.4,0-0.8,0.3-0.8,0.8c0,0.4,0.3,0.8,0.8,0.8h24.4c0.4,0,0.8-0.3,0.8-0.8
				C106,123.4,105.7,123,105.3,123z"/>
			<path fill="#231F20" d="M113.4,123H109c-0.4,0-0.8,0.3-0.8,0.8c0,0.4,0.3,0.8,0.8,0.8h4.3c0.4,0,0.8-0.3,0.8-0.8
				C114.1,123.4,113.8,123,113.4,123z"/>
			<path fill="#231F20" d="M18.1,124.5h-5.3c-0.4,0-0.8,0.3-0.8,0.8c0,0.4,0.3,0.8,0.8,0.8h5.3c0.4,0,0.8-0.3,0.8-0.8
				C18.9,124.9,18.5,124.5,18.1,124.5z"/>
			<path fill="#231F20" d="M61.7,125.3c0-0.4-0.3-0.8-0.8-0.8H23.6c-0.4,0-0.8,0.3-0.8,0.8c0,0.4,0.3,0.8,0.8,0.8H61
				C61.4,126,61.7,125.7,61.7,125.3z"/>
			<path fill="#231F20" d="M113,119.7c3.5-1.5,6.4-4.2,8.2-7.8c0.1-0.2,0.1-0.5,0-0.7c-0.1-0.2-0.4-0.4-0.6-0.4h-10.1V51.6
				c0-2.2-1.8-4-4-4H83.3c-0.1-4-2.6-7.6-6.3-9.2c-0.5-3.3-3.3-5.7-6.6-5.4c-1.4,0.1-2.9,0.2-4.3,0.2c-10.9,0-18.1-4.3-18.2-4.3
				l-1-0.6l-0.1,1.2c0,0.3-0.5,6.1,1.8,11c-2,1.9-3.1,4.4-3.2,7.2H22.4c-2.2,0-4,1.8-4,4v59.3H8.3c-0.3,0-0.5,0.1-0.6,0.4
				c-0.1,0.2-0.2,0.5,0,0.7c1.7,3.5,4.7,6.2,8.2,7.8H0.5v1.5h127.8v-1.5H113z M83.3,61.3V49h23.1c1.4,0,2.5,1.1,2.5,2.5v52.5h-23
				v-2.8c0-9.7-6.5-17.9-15.3-20.6v-1.9c5.2-2.3,8.9-7.4,9.2-13.4C81.8,65.1,83.3,63.4,83.3,61.3z M75.4,97.8v6.3h-22v-6.3h-1.5v6.3
				h-7.5v-2.8c0-8.9,5.8-16.4,13.8-19v2.1c0,3.3,2.7,6,6,6h0.4c3.3,0,6-2.7,6-6v-2.1c8,2.6,13.8,10.2,13.8,19v2.8h-7.5v-6.3H75.4z
				 M49.5,61.1c-0.8,0-1.4-0.6-1.4-1.4s0.6-1.4,1.4-1.4h0.9v-3.9c6.4-0.7,12.3-4.1,16-9.4c2,4.9,6.5,8.5,11.8,9.3v3.9h0.9
				c0.8,0,1.4,0.6,1.4,1.4s-0.6,1.4-1.4,1.4h-0.9v3.7c0,7.7-6.3,13.9-13.9,13.9c-7.7,0-13.9-6.3-13.9-13.9v-3.7H49.5z M81.8,60.9
				v0.3c0,1.3-0.9,2.3-2,2.6v-1.4C80.7,62.3,81.4,61.7,81.8,60.9z M59.7,79.4c1.5,0.5,3.1,0.7,4.7,0.7c1.6,0,3.2-0.3,4.7-0.7v5
				c0,2.5-2,4.5-4.5,4.5h-0.4c-2.5,0-4.5-2-4.5-4.5V79.4z M46.9,47.8c0-2.6,1.1-5,3.1-6.7l0.5-0.4l-0.3-0.5c-1.7-3.4-2-7.5-1.9-9.5
				c2.5,1.2,8.9,4,17.9,4c1.5,0,3-0.1,4.4-0.2c2.5-0.3,4.8,1.8,5,4.5l0,0.5l0.5,0.2c3.4,1.3,5.8,4.6,5.8,8.2v10.6
				c-0.4-0.8-1.1-1.4-2-1.6v-2.3c0.2,0,0.5,0,0.7,0c0.4,0,0.8-0.3,0.8-0.8S80.9,53,80.5,53c-0.4,0-0.9,0-1.4-0.1
				c-5.5-0.5-10.2-4.5-11.7-9.8c-0.1-0.3-0.3-0.5-0.6-0.5c-0.3,0-0.6,0.1-0.7,0.4c-3.5,5.8-9.7,9.5-16.4,10c-0.5,0-1,0.1-1.5,0.1
				c-0.4,0-0.8,0.3-0.8,0.8s0.3,0.8,0.8,0.8c0.3,0,0.6,0,0.8,0v2.3c-0.9,0.2-1.6,0.8-2,1.6V47.8z M46.9,60.9c0.4,0.8,1.1,1.4,2,1.6
				v1.4c-1.2-0.3-2-1.4-2-2.6V60.9z M19.8,51.6c0-1.4,1.1-2.5,2.5-2.5h23.1v12.2c0,2.1,1.5,3.8,3.5,4.2c0.3,6,4,11.1,9.2,13.4v1.9
				c-8.9,2.7-15.3,10.9-15.3,20.6v2.8h-23V51.6z M19.8,105.6h89.1v5.3H19.8V105.6z M9.5,112.3h109.7c-2.6,4.4-7.4,7.2-12.6,7.2H22.1
				C16.9,119.5,12.1,116.7,9.5,112.3z"/>
		</g>
		<g>
			<circle fill="#FFFFFF" cx="109" cy="20" r="19.3"/>
			<path fill="#231F20" d="M109,40.1c-11,0-20-9-20-20s9-20,20-20s20,9,20,20S120.1,40.1,109,40.1z M109,1.5
				C98.8,1.5,90.5,9.8,90.5,20c0,10.2,8.3,18.5,18.5,18.5c10.2,0,18.5-8.3,18.5-18.5C127.5,9.8,119.2,1.5,109,1.5z"/>
		</g>
		<g>
			<circle fill="#FF7058" cx="109" cy="20" r="15.3"/>
		</g>
		<g>
			<path fill="#FFFFFF" d="M107,24.1l5.9-5.9c0.8-0.8,1.9-1.2,3-1.1c0.1,0,0.1,0,0.2,0c1.3,0,2.5-0.7,3.2-1.7h-3.8l-0.7-2.3l0.7-2.3
				h3.8c-0.8-1.1-2.1-1.8-3.6-1.7c-1.9,0.1-3.4,1.7-3.6,3.6c0,0.1,0,0.1,0,0.2c0,1-0.4,2-1.1,2.7l-6.2,6.2c-0.8,0.8-1.8,1.1-2.9,1.1
				c0,0,0,0,0,0c-1.3,0-2.5,0.7-3.2,1.7h3.8l0.7,2.3l-0.7,2.3h-3.8c0.8,1.1,2,1.8,3.5,1.7c1.9-0.1,3.5-1.6,3.7-3.5
				c0-0.2,0-0.4,0-0.5C105.8,25.8,106.3,24.8,107,24.1z"/>
		</g>
		<g>
			<path fill="#FFFFFF" d="M105,18l5.9,5.9c0.8,0.8,1.2,1.9,1.1,3c0,0.1,0,0.1,0,0.2c0,1.3,0.7,2.5,1.7,3.2v-3.8l2.3-0.7l2.3,0.7
				v3.8c1.1-0.8,1.8-2.1,1.7-3.6c-0.1-1.9-1.7-3.4-3.6-3.6c-0.1,0-0.1,0-0.2,0c-1,0-2-0.4-2.7-1.1l-6.2-6.2
				c-0.8-0.8-1.1-1.8-1.1-2.9c0,0,0,0,0,0c0-1.3-0.7-2.5-1.7-3.2v3.8l-2.3,0.7l-2.3-0.7V9.7c-1.1,0.8-1.8,2-1.7,3.5
				c0.1,1.9,1.6,3.5,3.5,3.7c0.2,0,0.4,0,0.5,0C103.2,16.9,104.2,17.3,105,18z"/>
		</g>
		<g>
			<path fill="#84DBFF" d="M59.8,9.7h-20l0,0c0,1.2,0.9,2.1,2.1,2.1h15.8C58.8,11.8,59.8,10.8,59.8,9.7L59.8,9.7z"/>
		</g>
		<g>
			<path fill="#84DBFF" d="M39.8,19h20l0,0c0-1.2-0.9-2.1-2.1-2.1H41.9C40.7,16.9,39.8,17.8,39.8,19L39.8,19z"/>
		</g>
		<g>
			<path fill="#231F20" d="M62,19.7H38.2c-1.5,0-2.8-1.3-2.8-2.8v-5.2c0-1.5,1.3-2.8,2.8-2.8H62c0.4,0,0.8,0.3,0.8,0.8V19
				C62.8,19.4,62.4,19.7,62,19.7z M38.2,10.4c-0.7,0-1.3,0.6-1.3,1.3v5.2c0,0.7,0.6,1.3,1.3,1.3h23v-7.8H38.2z"/>
		</g>
		<g>
			<path fill="#84DBFF" d="M58.1,15.6H41c-0.7,0-1.2-0.6-1.2-1.2v0c0-0.7,0.6-1.2,1.2-1.2h17.1c0.7,0,1.2,0.6,1.2,1.2v0
				C59.4,15,58.8,15.6,58.1,15.6z"/>
		</g>
		<g>
			<g>
				<g>
					<path fill="#FFFFFF" d="M90.7,78.7h-8.1c-0.4,0-0.8-0.3-0.8-0.8c0-0.4,0.3-0.8,0.8-0.8h8.1c0.4,0,0.8,0.3,0.8,0.8
						C91.5,78.4,91.1,78.7,90.7,78.7z"/>
				</g>
				<g>
					<path fill="#FFFFFF" d="M93.9,81.6h-4c-0.4,0-0.8-0.3-0.8-0.8c0-0.4,0.3-0.8,0.8-0.8h4c0.4,0,0.8,0.3,0.8,0.8
						C94.7,81.3,94.3,81.6,93.9,81.6z"/>
				</g>
				<g>
					<path fill="#FFFFFF" d="M98.2,78.7h-3.8c-0.4,0-0.8-0.3-0.8-0.8c0-0.4,0.3-0.8,0.8-0.8h3.8c0.4,0,0.8,0.3,0.8,0.8
						C98.9,78.4,98.6,78.7,98.2,78.7z"/>
				</g>
				<g>
					<path fill="#FFFFFF" d="M87.1,81.6h-0.8c-0.4,0-0.8-0.3-0.8-0.8c0-0.4,0.3-0.8,0.8-0.8h0.8c0.4,0,0.8,0.3,0.8,0.8
						C87.8,81.3,87.5,81.6,87.1,81.6z"/>
				</g>
			</g>
			<g>
				<g>
					<path fill="#FFFFFF" d="M38.7,74.8h-8.1c-0.4,0-0.8-0.3-0.8-0.8c0-0.4,0.3-0.8,0.8-0.8h8.1c0.4,0,0.8,0.3,0.8,0.8
						C39.4,74.4,39.1,74.8,38.7,74.8z"/>
				</g>
				<g>
					<path fill="#FFFFFF" d="M41.9,77.7h-4c-0.4,0-0.8-0.3-0.8-0.8c0-0.4,0.3-0.8,0.8-0.8h4c0.4,0,0.8,0.3,0.8,0.8
						C42.6,77.4,42.3,77.7,41.9,77.7z"/>
				</g>
				<g>
					<path fill="#FFFFFF" d="M46.1,74.8h-3.8c-0.4,0-0.8-0.3-0.8-0.8c0-0.4,0.3-0.8,0.8-0.8h3.8c0.4,0,0.8,0.3,0.8,0.8
						C46.9,74.4,46.5,74.8,46.1,74.8z"/>
				</g>
				<g>
					<path fill="#FFFFFF" d="M35,77.7h-0.8c-0.4,0-0.8-0.3-0.8-0.8c0-0.4,0.3-0.8,0.8-0.8H35c0.4,0,0.8,0.3,0.8,0.8
						C35.8,77.4,35.4,77.7,35,77.7z"/>
				</g>
			</g>
		</g>
		<g>
			<circle fill="#FFD05B" cx="32.9" cy="25.6" r="2.5"/>
		</g>
		<g>
			<circle fill="#84DBFF" cx="119.1" cy="69.3" r="2.5"/>
		</g>
		<g>
			<path fill="#231F20" d="M120.5,101c-1.8,0-3.2-1.5-3.2-3.2c0-1.8,1.5-3.2,3.2-3.2c1.8,0,3.2,1.5,3.2,3.2
				C123.7,99.6,122.3,101,120.5,101z M120.5,96c-1,0-1.7,0.8-1.7,1.7c0,1,0.8,1.7,1.7,1.7s1.7-0.8,1.7-1.7
				C122.2,96.8,121.5,96,120.5,96z"/>
		</g>
		<g>
			<circle fill="#FF7058" cx="8.5" cy="100.3" r="2.5"/>
		</g>
		<path fill="#231F20" d="M15.8,0c-6.6,0-12,5.4-12,12s5.4,12,12,12s12-5.4,12-12S22.4,0,15.8,0z M26.3,11.2h-3.8
			c-0.1-3.7-1.2-7-2.7-9C23.4,3.7,26,7.2,26.3,11.2z M15.1,1.6v9.6h-4.4C10.9,6.4,12.7,2.4,15.1,1.6z M15.1,12.7v9.6
			c-2.3-0.7-4.2-4.8-4.4-9.6H15.1z M16.6,22.4v-9.6h4.4C20.8,17.6,18.9,21.6,16.6,22.4z M16.6,11.2V1.6c2.3,0.7,4.2,4.8,4.4,9.6
			H16.6z M11.9,2.3c-1.6,2-2.6,5.2-2.7,9H5.4C5.6,7.2,8.3,3.7,11.9,2.3z M5.4,12.7h3.8c0.1,3.7,1.2,7,2.7,9
			C8.3,20.3,5.6,16.8,5.4,12.7z M19.7,21.7c1.6-2,2.6-5.2,2.7-9h3.8C26,16.8,23.4,20.3,19.7,21.7z"/>
	</g>
</g>
</svg>
