<svg xmlns="http://www.w3.org/2000/svg" xmlns:xlink="http://www.w3.org/1999/xlink" width="265" height="163" viewBox="0 0 70 43"><style><![CDATA[.k{fill:#3b393d}.l{fill:#65cdf2}.m{fill:#fff}.n{fill:#bbbcbd}.o{fill:#f9b121}.p{fill:#7a7e82}.q{fill:#8ad9f0}]]></style><defs><clipPath id="A"><path d="M1274.96 1587.92h62.188v25.258h-62.187z"/></clipPath><path id="B" d="M51.653 37.262a2.06 2.06 0 0 0-2.056 2.056 2.06 2.06 0 0 0 2.056 2.056 2.06 2.06 0 0 0 2.056-2.056 2.06 2.06 0 0 0-2.056-2.056zm0 4.64a2.59 2.59 0 0 1-2.585-2.585 2.59 2.59 0 0 1 2.585-2.585 2.59 2.59 0 0 1 2.585 2.585 2.59 2.59 0 0 1-2.585 2.585"/></defs><path d="M26.686 41.63v-19.7a.97.97 0 0 0-.969-.969h-14.32a.97.97 0 0 0-.969.969v19.7h16.257" class="n"/><path d="M25.36 41.63v-19.7c0-.535-.368-.97-.822-.97h-12.14c-.454 0-.82.434-.82.97v19.7H25.36" class="m"/><path d="M10.43 23.472v-1.697c0-.45.365-.815.815-.815h14.628c.45 0 .815.365.815.815v1.697H10.43" class="n"/><g class="k"><path d="M10.694 41.55h-.53V21.775a1.08 1.08 0 0 1 1.079-1.079h2.16v.53h-2.16a.55.55 0 0 0-.55.55V41.55M26.95 27.703h-.53v-5.928a.55.55 0 0 0-.55-.55h-9.645v-.53h9.645a1.08 1.08 0 0 1 1.079 1.079v5.928"/><path d="M15.308 21.225H14.2v-.53h1.117v.53m11.38 2.555H10.43v-.53h16.257v.53m-14.013-1.16h-.378v-.53h.378v.53m1.098 0h-.38v-.53h.38v.53m1.098 0h-.378v-.53h.378v.53"/></g><path d="M24.508 30.086H12.607v-4.694h11.902v4.694" class="o"/><path d="M16.227 37.76h-3.62v-4.695h3.62v4.695" class="l"/><path d="M20.368 37.76h-3.62v-4.695h3.62v4.695" fill="#f4f5f5"/><path d="M24.5 37.76h-3.62v-4.695h3.62v4.695" class="l"/><g class="k"><path d="M8.652 17.08H7.144c-.146 0-.265-.12-.265-.265s.12-.265.265-.265h1.508c.146 0 .265.12.265.265s-.12.265-.265.265"/><path d="M7.898 17.835c-.146 0-.265-.118-.265-.265v-1.508c0-.146.12-.265.265-.265s.265.118.265.265v1.508c0 .146-.118.265-.265.265M69.37 13.22h-1.508c-.146 0-.265-.12-.265-.265s.12-.265.265-.265h1.508c.146 0 .265.118.265.265s-.12.265-.265.265"/><path d="M68.616 13.973c-.146 0-.265-.12-.265-.265V12.2c0-.146.12-.265.265-.265s.265.12.265.265v1.508c0 .146-.12.265-.265.265m-44.28-9.875c-.068 0-.135-.026-.187-.078-.103-.103-.103-.27 0-.374l1.066-1.066c.103-.103.27-.103.374 0s.103.27 0 .374L24.522 4.02c-.052.052-.12.078-.187.078"/><path d="M25.4 4.098c-.068 0-.135-.026-.187-.078l-1.066-1.066c-.103-.103-.103-.27 0-.374s.27-.103.374 0l1.066 1.066c.103.103.103.27 0 .374-.052.052-.12.078-.187.078m31.687 23.227c-.068 0-.135-.026-.187-.078-.103-.103-.103-.27 0-.374l1.066-1.066c.103-.103.27-.103.374 0s.103.27 0 .374l-1.066 1.066c-.052.052-.12.078-.187.078"/><path d="M58.153 27.325c-.068 0-.135-.026-.187-.078L56.9 26.18c-.103-.103-.103-.27 0-.374s.27-.103.374 0l1.066 1.066c.103.103.103.27 0 .374-.052.052-.12.078-.187.078M63.57 15.82H52.283v-.53H63.57v.53M23.107 3.568H5.214v-.53h17.893v.53M66.403 15.82H64.45v-.53h1.952v.53m-58.504 6.8H1.76v-.53h6.137v.53m1.8 0h-1.26v-.53h1.26v.53M49.062 2.153h-6.137v-.53h6.137v.53m1.788 0H49.6v-.53h1.26v.53m2.18 8.02a.38.38 0 0 1-.379.379.38.38 0 0 1-.379-.379.38.38 0 0 1 .379-.379.38.38 0 0 1 .379.379m-6.022 9.432a.44.44 0 0 1-.88 0 .44.44 0 0 1 .88 0M18.526 15.96c0 .263-.213.475-.475.475s-.475-.213-.475-.475.213-.475.475-.475.475.213.475.475M34.072 5.705h-.53V1.9h.53v3.816"/></g><path d="M37.44 8.014c0-2.034-1.65-3.682-3.683-3.682s-3.682 1.65-3.682 3.682h7.365" fill="#8ac4ec"/><path d="M33.756 4.332c-.187 0-.37.014-.552.04 1.772.266 3.13 1.795 3.13 3.64h1.103c0-2.034-1.65-3.682-3.683-3.682" fill="#a6d4f2"/><path d="M37.44 8.014c0-2.034-1.65-3.682-3.683-3.682s-3.682 1.65-3.682 3.682h7.365" class="l"/><path d="M30.35 7.75h6.815c-.135-1.76-1.612-3.153-3.408-3.153S30.484 5.988 30.35 7.75zm7.355.53H29.81v-.265c0-2.176 1.77-3.947 3.947-3.947s3.947 1.77 3.947 3.947v.265" class="k"/><path d="M30.12 15.24h7.174V8.83H30.12z" class="m"/><path d="M35.014 15.24h2.282V8.83h-2.282z" fill="#d3d4d3"/><path d="M30.386 14.976h6.645V9.094h-6.645v5.882m7.174.53h-7.704v-6.94h7.704v6.94" class="k"/><path d="M29.124 15.767h9.447v-2.26h-9.447z" class="p"/><g clip-path="url(#A)" transform="matrix(.035278 0 0 -.035278 -8.86554 70.680115)"><path d="M1274.96 1587.92h62.188v25.258h-62.187z" fill="#707378"/></g><path d="M29.39 15.503h8.918V13.77H29.39v1.732m9.447.53H28.86v-2.8h9.976v2.8" class="k"/><path d="M39.344 41.32H28.36l.788-26.393h9.406l.788 26.393" class="m"/><path d="M38.556 14.926H29.15l-.18 6.05 9.602-5.544-.015-.505m.46 15.445l-.22-7.402-10.06 5.808-.23 7.662 10.5-6.07m.337 10.95l-.102-3.4-5.904 3.4h6.006" class="l"/><path d="M39.344 41.32l-.102-3.41-2.402 1.387-.225-7.538 2.402-1.387-.134-4.498.46 15.446m-2.95-16.963l-.225-7.538.003-.002h2.174l.183 6.308-2.135 1.233" fill="#f9f9f9"/><path d="M36.17 16.818v-.002h.003l-.003.002m.445 14.942l-.22-7.402 2.135-1.233.08 2.758.273-.008.134 4.498-2.402 1.387m2.73 9.56H36.9l-.06-2.022 2.402-1.387.102 3.4" fill="#67ceec"/><path d="M28.958 30.094l-.53-.016.463-15.416h9.92l.325 11.205-.53.015-.3-10.69h-8.893l-.448 14.903" class="k"/><path d="M35.183 27.73a1.46 1.46 0 0 1-1.46 1.459 1.46 1.46 0 0 1-1.459-1.459 1.46 1.46 0 0 1 1.459-1.46 1.46 1.46 0 0 1 1.46 1.46" class="o"/><path d="M33.723 26.534c-.66 0-1.195.536-1.195 1.195s.536 1.195 1.195 1.195 1.195-.536 1.195-1.195-.536-1.195-1.195-1.195zm0 2.92c-.95 0-1.724-.774-1.724-1.724s.773-1.724 1.724-1.724 1.724.774 1.724 1.724-.774 1.724-1.724 1.724" class="k"/><path d="M35.183 21.516a1.46 1.46 0 0 1-1.46 1.46 1.46 1.46 0 0 1-1.459-1.46 1.46 1.46 0 0 1 1.459-1.459 1.46 1.46 0 0 1 1.46 1.459" class="o"/><path d="M33.723 20.32c-.66 0-1.195.536-1.195 1.195s.536 1.195 1.195 1.195 1.195-.536 1.195-1.195-.536-1.195-1.195-1.195zm0 2.92c-.95 0-1.724-.773-1.724-1.724s.773-1.724 1.724-1.724 1.724.773 1.724 1.724-.774 1.724-1.724 1.724m.103 13.2c-1.002 0-1.813.812-1.813 1.813v3.066h3.626v-3.066c0-1-.812-1.813-1.813-1.813" class="k"/><path d="M38.373 16.817H29.12a1.05 1.05 0 0 1-1.05-1.05 1.05 1.05 0 0 1 1.05-1.049h9.252a1.05 1.05 0 0 1 1.049 1.049 1.05 1.05 0 0 1-1.049 1.05" class="n"/><path d="M38.373 16.817H36.56v-2.1h1.814a1.05 1.05 0 0 1 1.049 1.049 1.05 1.05 0 0 1-1.049 1.05" fill="#a8b7c1"/><path d="M29.12 14.982c-.433 0-.785.352-.785.785s.352.785.785.785h9.252c.433 0 .785-.352.785-.785s-.352-.785-.785-.785zm9.252 2.1H29.12c-.725 0-1.314-.59-1.314-1.314s.6-1.314 1.314-1.314h9.252c.725 0 1.314.6 1.314 1.314s-.59 1.314-1.314 1.314" class="k"/><path d="M37.574 9.302H29.94c-.406 0-.736-.33-.736-.736s.33-.736.736-.736h7.636c.406 0 .736.33.736.736s-.33.736-.736.736" class="n"/><path d="M29.94 8.095a.47.47 0 1 0 0 .942h7.636a.47.47 0 1 0 0-.942zm7.636 1.472H29.94a1 1 0 1 1 0-2.001h7.636a1 1 0 0 1 0 2.001M25.9 12.893h-1.024v-.53H25.9v.53m.084-1.37l-2.3-.4.093-.52 2.3.408-.093.52m.314-1.336l-1.092-.402.183-.497 1.092.402-.183.497m.544-1.273l-2-1.174.267-.457 2 1.175-.267.457m.76-1.145l-.922-.754.335-.4.922.754-.335.4m12.368.195l-.33-.413.9-.725.33.413-.9.725m.73 1.17l-.252-.465 2.046-1.1.252.465-2.045 1.1m.476 1.285l-.133-.512 1.104-.288.133.512-1.104.288m.287 1.342l-.076-.524 2.303-.334.076.523-2.303.334m1.128 1.45l-1.107-.075.036-.528 1.107.075-.036.528m.968 1.765l-2.276-.48.1-.518 2.276.48-.1.517m-1.86 1.17l-.872-.353.2-.5.87.353-.198.5m-16.523-.574l-.14-.5 1.115-.308.14.5-1.115.308m-1.417-1.302l-.06-.526 2.312-.26.06.526-2.312.26" class="k"/><path d="M37.84 41.638h12.118V27.61c0-.433-.35-.785-.785-.785h-10.55c-.433 0-.785.35-.785.785v14.027" class="m"/><path d="M38.105 37.766h-.53V27.88a1.32 1.32 0 0 1 1.319-1.32h4.263v.53h-4.263a.79.79 0 0 0-.79.791v9.884m12.12-.89h-.53v-2.9h.53v2.9" class="k"/><path d="M48.958 29.05H38.84v12.588h10.116V29.05" fill="#d3d4d3"/><path d="M43.214 28.417h-.6v-.53h.6v.53m-5.1 10.916h-.53v-1.13h.53v1.13m.001 2.305h-.53v-1.56h.53v1.56" class="k"/><path d="M48.874 34.15l1.402-2.037c.588-.224 1.14-.57 1.614-1.044 1.8-1.8 1.8-4.72 0-6.52s-4.72-1.8-6.52 0-1.8 4.72 0 6.52c.636.636 1.412 1.042 2.23 1.23l1.277 1.852" class="o"/><path d="M48.63 23.463c-1.16 0-2.253.452-3.074 1.273a4.32 4.32 0 0 0 0 6.146 4.33 4.33 0 0 0 2.1 1.159l.1.023 1.118 1.62 1.23-1.788.077-.03c.577-.22 1.09-.552 1.52-.984.82-.82 1.273-1.912 1.273-3.073s-.452-2.253-1.273-3.073-1.913-1.273-3.073-1.273zm.246 11.154l-1.438-2.084a4.85 4.85 0 0 1-2.255-1.276 4.84 4.84 0 0 1-1.428-3.447 4.84 4.84 0 0 1 1.428-3.448c.92-.92 2.145-1.428 3.448-1.428s2.527.507 3.447 1.428a4.84 4.84 0 0 1 1.428 3.448c0 1.302-.507 2.527-1.428 3.447-.466.466-1.014.827-1.628 1.074l-1.573 2.286" class="k"/><path d="M38.826 38.085v3.385l2.188-.005v-5.212l-2.188 1.832m4.098-.99l-.006-.003v4.37l2.5-.006v-6.228l-2.505 1.87" class="l"/><path d="M41.03 36.24l-.017.014v5.212l1.904-.005v-4.37l-1.888-.852" class="q"/><path d="M48.957 34.406l-1.97 1.697v5.347l1.97-.005v-7.04" class="l"/><path d="M46.987 36.103l-1.558-.878v6.228l1.558-.004v-5.347" class="q"/><g class="k"><path d="M39.137 38.196h-.3v-.53h.117l2.026-1.723 1.915.844L45.4 34.9l1.546.87 1.77-1.523.23-.002.004.423.038.043-.037.032v.03h-.037l-1.904 1.64-1.57-.884-2.496 1.855-1.893-.834-1.922 1.635m9.814-8.673H46.82v-.53h2.134a.53.53 0 0 0 .528-.528.53.53 0 0 0-.528-.528H48.1a1.06 1.06 0 0 1-1.057-1.057 1.06 1.06 0 0 1 1.057-1.058h2.073v.53H48.1a.53.53 0 0 0-.528.528.53.53 0 0 0 .528.528h.854a1.06 1.06 0 0 1 1.057 1.058 1.06 1.06 0 0 1-1.057 1.057"/><path d="M48.76 30.558h-.53v-5.792h.53v5.792"/></g><g fill="#505256"><path d="M24.544 41.638h-7.5V39.93h7.5v1.707"/><path d="M24.544 39.93h-7.5c.942-1.248 1.45-2.77 1.45-4.332v-2.64h4.608v2.64c0 1.563.51 3.084 1.45 4.332"/></g><g class="n"><path d="M17.76 39.93v1.707h.97V39.93h-.97"/><path d="M19.697 32.96h-.485v2.64c0 1.563-.51 3.084-1.45 4.332h.97c.942-1.248.966-2.77.966-4.332v-2.64"/></g><g class="k"><path d="M19.388 41.902H16.77v-2.236h5.843v.53H17.3v1.178h2.1v.53m2.22-.002h-1.45v-.53h1.45v.53"/><path d="M24.35 40.055a7.5 7.5 0 0 1-1.504-4.491V33.2h-4.08v2.374a7.5 7.5 0 0 1-1.504 4.491l-.422-.32a6.97 6.97 0 0 0 1.397-4.172V32.66h5.137v2.904a6.97 6.97 0 0 0 1.397 4.172l-.422.32"/></g><path d="M23.14 29.597v.89h-1.648v-.89c0-.085-.07-.154-.154-.154h-.986c-.085 0-.154.07-.154.154v.89H18.55v-.89c0-.085-.07-.154-.154-.154h-.65c-.085 0-.154.07-.154.154v3.73H24.1v-3.73c0-.085-.07-.154-.154-.154h-.65c-.085 0-.154.07-.154.154" fill="#505256"/><path d="M22.633 33.592h-5.305v-3.994a.42.42 0 0 1 .419-.418h.65a.42.42 0 0 1 .418.418v.624h1.12v-.624a.42.42 0 0 1 .418-.418h.986a.42.42 0 0 1 .419.418v.624h1.12v-.624a.42.42 0 0 1 .418-.418h.65v.53h-.54v1.042H21.23v-1.042h-.765v1.042h-2.178v-1.042h-.43v3.355h4.776v.53" class="k"/><path d="M28.75 38.86l.657-.756-2.63-4.766c1.62-.31 2.207.616 2.263.713l.012.001.847-.747v-.7l-2.432-2.99h-.95l.29-1.165-.013-.01-2.122 1.373c-1.154 1.586-1.776 3.496-1.776 5.458v2.757l.854 1.02h4.806l.19-.197" class="m"/><path d="M24.068 35.28c0-1.96.622-3.872 1.776-5.458l.748-.484.22-.88-.013-.01-2.122 1.373C23.523 31.408 22.9 33.32 22.9 35.28v2.757l.855 1.02h1.167l-.854-1.02V35.28" fill="#e9eae9"/><path d="M29.565 41.638h-6.83l1.02-2.48h4.79l1.02 2.48" class="m"/><path d="M23.755 39.16l-1.02 2.48h1.312l1.02-2.48h-1.313" fill="#e9eae9"/><g class="k"><path d="M28.675 39.32h-5.042l-.996-1.187V35.28a9.48 9.48 0 0 1 1.826-5.614l.07-.066 2.27-1.47.295.207-.03.185-.2.836h.736l.8.97-.4.334-.63-.776h-1.162l.216-.865-1.536.993a9.02 9.02 0 0 0-1.697 5.263v2.66l.713.85h4.57l.1-.116.527-.607-2.716-4.923.357-.068c1.33-.255 2.045.26 2.355.595l.552-.488v-.477l-.48-.6.4-.334.598.735v.904l-1.03.907-.25-.035-.07-.108c-.05-.087-.462-.732-1.62-.642l2.533 4.6-1.055 1.184m.015-7.774l-.412-.507.4-.334.412.507-.4.334"/><path d="M23.13 41.373h6.04l-.803-1.95h-4.434zm6.324.53h-6.608c-.113 0-.22-.056-.282-.15a.34.34 0 0 1-.032-.318l1.046-2.54h5.143l1.046 2.54a.34.34 0 0 1-.313.468m-5.486-4.795h-1.044v-.53h1.044v.53m0-.908h-1.044v-.53h1.044v.53m0-.906h-1.044v-.53h1.044v.53m0-.907h-1v-.53h1v.53m.067-.767l-.94-.075.042-.528.94.075-.042.528m.07-.74l-.807-.18.115-.517.807.18-.115.517m.197-.672l-.795-.243.155-.506.795.243-.155.506"/><path d="M24.595 31.42l-.652-.303.223-.48.652.303-.223.48m4.882 7.9H22.88v-.53h6.598v.53m.968 2.582H21.94v-.53h8.505v.53m22.017-5.176a.4.4 0 0 0-.399.399.4.4 0 0 0 .399.4.4.4 0 0 0 .4-.4.4.4 0 0 0-.4-.399zm0 1.328a.93.93 0 0 1-.929-.929.93.93 0 0 1 .929-.929.93.93 0 0 1 .929.929.93.93 0 0 1-.929.929m5.108-1.328a.4.4 0 0 0-.399.399.4.4 0 0 0 .399.4.4.4 0 0 0 .4-.4.4.4 0 0 0-.4-.399zm0 1.328a.93.93 0 0 1-.928-.929.93.93 0 0 1 .928-.929.93.93 0 0 1 .929.929.93.93 0 0 1-.929.929"/></g><g class="p"><path d="M55.05 38.312c-.683 2.573-3.72 2.776-3.72 2.776l.062-4.077h3.657s.084.984 0 1.3"/><path d="M55.053 38.312c.683 2.573 3.657 2.84 3.657 2.84v-4.14h-3.657s-.084.984 0 1.3"/></g><g class="k"><path d="M51.655 37.276L51.6 40.79c.742-.12 2.68-.61 3.194-2.545.04-.153.032-.598.01-.968zm-.592 4.095l.07-4.624h4.16l.02.242c.015.17.083 1.046-.008 1.39-.724 2.725-3.925 2.97-3.957 2.972l-.286.02"/><path d="M55.3 37.276c-.022.37-.03.815.01.968.512 1.93 2.403 2.464 3.136 2.6v-3.568zm3.675 4.164l-.288-.026c-.03-.003-3.166-.313-3.89-3.034-.09-.344-.023-1.22-.008-1.39l.02-.242h4.164v4.693"/></g><path d="M53.973 39.317a2.32 2.32 0 1 1-4.641 0 2.32 2.32 0 1 1 4.641 0" class="p"/><path d="M53.45 39.317a1.8 1.8 0 0 1-1.797 1.797 1.8 1.8 0 0 1-1.797-1.797 1.8 1.8 0 0 1 1.797-1.797 1.8 1.8 0 0 1 1.797 1.797" class="q"/><path d="M51.653 37.52a1.79 1.79 0 0 0-1.198.46L53 40.515a1.79 1.79 0 0 0 .46-1.198l-.003-.062-1.732-1.732-.062-.003m-1.667 1.127l2.337 2.337a1.81 1.81 0 0 0 .48-.286l-2.53-2.53a1.8 1.8 0 0 0-.286.48" class="l"/><path d="M60.842 39.317a2.32 2.32 0 1 1-4.641 0 2.32 2.32 0 1 1 4.641 0" class="p"/><g class="k"><use xlink:href="#B"/><use xlink:href="#B" x="6.867"/></g><path d="M60.318 39.317c0 .993-.804 1.797-1.797 1.797a1.8 1.8 0 0 1-1.797-1.797 1.8 1.8 0 0 1 1.797-1.797c.993 0 1.797.805 1.797 1.797" class="q"/><path d="M58.52 37.52a1.79 1.79 0 0 0-1.198.46l2.535 2.535a1.79 1.79 0 0 0 .46-1.198l-.003-.062-1.732-1.732-.062-.003m-1.665 1.127l2.336 2.337a1.8 1.8 0 0 0 .48-.286l-2.53-2.53a1.8 1.8 0 0 0-.286.48" class="l"/><path d="M55.87 37.793a.78.78 0 1 1-1.564 0 .78.78 0 1 1 1.564 0" class="o"/><g class="k"><path d="M55.088 37.276a.52.52 0 0 0-.518.517.52.52 0 0 0 .518.518.52.52 0 0 0 .517-.518.52.52 0 0 0-.517-.517zm0 1.564a1.05 1.05 0 0 1-1.047-1.047 1.05 1.05 0 0 1 1.047-1.046 1.05 1.05 0 0 1 1.046 1.046 1.05 1.05 0 0 1-1.046 1.047"/><path d="M55.274 38.058h-.403v-.53h.403v.53m4.356-1.503h-.53a3.98 3.98 0 0 0-.724-2.3l.434-.304a4.51 4.51 0 0 1 .82 2.603m-1.418-2.52l-.22-.25a4.1 4.1 0 0 0-.383-.352l.332-.412a4.52 4.52 0 0 1 .433.4l.25.283-.4.333m-7.14 2.518h-.53a4.55 4.55 0 0 1 4.543-4.543 4.52 4.52 0 0 1 2.541.776l-.296.438c-.664-.448-1.44-.685-2.244-.685a4.02 4.02 0 0 0-4.014 4.014"/><path d="M57.356 36.066c-.07-1.256-.42-2.456-1-3.377l.45-.278c.624 1 .993 2.264 1.07 3.627l-.528.03m-4.43 0l-.528-.03c.075-1.363.445-2.617 1.07-3.63l.45.278c-.57.924-.922 2.124-1 3.38m2.442.49h-.53v-4.278h.53v4.278"/><path d="M58.856 34.787h-7.4v-.53h7.4v.53m4.484 7.115H5.548v-.53H63.34v.53m-58.435 0H3.94v-.53h.966v.53m61.12 0h-2.134v-.53h2.134v.53"/></g></svg>