<svg xmlns="http://www.w3.org/2000/svg" xmlns:xlink="http://www.w3.org/1999/xlink" width="265" height="152" viewBox="0 0 70 40"><style><![CDATA[.s{fill:#3b393d}.t{fill:#fff}.u{fill:#f9b121}.v{fill:#65cdf2}.w{fill:#fcd16f}.x{fill:#8ad9f0}]]></style><g class="t"><path d="M23.913 32.698a2.7 2.7 0 0 1-5.401 0 2.7 2.7 0 0 1 5.401 0m20.48 1.407c0 1.648-1.336 2.983-2.983 2.983s-2.983-1.335-2.983-2.983 1.335-2.983 2.983-2.983 2.983 1.336 2.983 2.983"/><path d="M51.235 34.077a4.42 4.42 0 1 1-8.842 0 4.42 4.42 0 1 1 8.842 0"/><path d="M55.536 35.83a2.77 2.77 0 0 1-2.767 2.767 2.77 2.77 0 0 1-2.767-2.767 2.77 2.77 0 0 1 2.767-2.767 2.77 2.77 0 0 1 2.767 2.767"/><path d="M61.708 34.126a4.47 4.47 0 0 1-8.94 0 4.47 4.47 0 0 1 8.94 0M19.54 32.708a3.53 3.53 0 0 1-3.527 3.527 3.53 3.53 0 0 1-3.528-3.527 3.53 3.53 0 0 1 3.528-3.528 3.53 3.53 0 0 1 3.527 3.528"/><path d="M25.038 35.166a3.53 3.53 0 0 1-3.527 3.528 3.53 3.53 0 0 1-3.528-3.528 3.53 3.53 0 0 1 3.528-3.528 3.53 3.53 0 0 1 3.527 3.528m-13.318.57c0 1.73-1.403 3.133-3.133 3.133s-3.133-1.402-3.133-3.133 1.403-3.133 3.133-3.133 3.133 1.403 3.133 3.133"/><path d="M58.234 38.767H9.24v-3.424h48.993v3.424"/><path d="M15.6 35.515c0 1.366-1.107 2.473-2.473 2.473s-2.473-1.107-2.473-2.473 1.107-2.473 2.473-2.473S15.6 34.15 15.6 35.515"/></g><g class="s"><path d="M24.177 32.698h-.53a2.44 2.44 0 0 0-2.435-2.436 2.44 2.44 0 0 0-2.436 2.436h-.53a2.97 2.97 0 0 1 2.965-2.965 2.97 2.97 0 0 1 2.964 2.965m20.483 1.407h-.53a2.72 2.72 0 0 0-2.718-2.718 2.72 2.72 0 0 0-2.718 2.718h-.53a3.25 3.25 0 0 1 3.247-3.247 3.25 3.25 0 0 1 3.247 3.247m24.284-19.3h-1.508c-.146 0-.265-.12-.265-.265s.12-.265.265-.265h1.508c.146 0 .265.118.265.265s-.12.265-.265.265"/><path d="M68.187 15.57c-.146 0-.265-.12-.265-.265v-1.508c0-.146.12-.265.265-.265s.265.118.265.265v1.508c0 .146-.12.265-.265.265M11.25 3.015H9.743c-.146 0-.265-.12-.265-.265s.12-.265.265-.265h1.508c.146 0 .265.12.265.265s-.12.265-.265.265"/><path d="M10.498 3.77c-.146 0-.265-.12-.265-.265V1.997c0-.146.12-.265.265-.265s.265.118.265.265v1.508c0 .146-.12.265-.265.265M4.4 18.178c-.068 0-.135-.026-.187-.078-.103-.103-.103-.27 0-.374L5.27 16.66c.103-.103.27-.103.374 0s.103.27 0 .374L4.576 18.1c-.052.052-.12.078-.187.078"/><path d="M5.455 18.178c-.068 0-.135-.026-.187-.078l-1.066-1.066c-.103-.103-.103-.27 0-.374s.27-.103.374 0l1.066 1.066c.103.103.103.27 0 .374-.052.052-.12.078-.187.078m32.44-16.213c-.068 0-.135-.026-.187-.078-.103-.103-.103-.27 0-.374L38.774.447c.103-.103.27-.103.374 0s.103.27 0 .374l-1.066 1.066c-.052.05-.12.078-.187.078"/><path d="M38.96 1.965c-.068 0-.135-.026-.187-.078L37.708.82c-.103-.104-.103-.27 0-.374s.27-.103.374 0l1.066 1.066c.103.103.103.27 0 .374-.052.05-.12.078-.187.078m21.077 22.764H52.34v-.53h7.697v.53m5.393-9.904H51.038v-.53H65.43v.53M28.037 3.015H13.645v-.53h14.392v.53m25.898 1.657H46.24v-.53h7.697v.53m-8.404 0h-1.38v-.53h1.38v.53m-29.435 13.04H8.4v-.53h7.696v.53m-8.4 0h-1.38v-.53h1.38v.53M51.5 26.648a.47.47 0 0 1-.944 0 .47.47 0 0 1 .944 0M7.478 6.643a.47.47 0 1 1-.944 0 .47.47 0 1 1 .944 0M60.5 9.474a.472.472 0 1 1-.472-.472c.26 0 .472.212.472.472"/><use xlink:href="#B"/><use xlink:href="#B" x="23.711" y="-19.712"/><use xlink:href="#B" x="8.628" y="-16.01"/></g><path d="M45.256 24.438l-1.896-1.962.01-.023 2.214.155-.306 1.824-.023.007" class="w"/><path d="M44.004 22.762l1.096 1.134.175-1.045zm1.185 1.98l-.124-.12-2.022-2.093.15-.344.194.004 2.505.175-.38 2.272-.323.107" class="s"/><path d="M45.584 17.524L43.4 20.046c-.022.025 0 .064.032.06l2.648-.43-.495-2.152" class="u"/><path d="M45.444 18.09l-1.43 1.652 1.746-.283zm-2.018 2.28a.3.3 0 0 1-.227-.496l2.28-2.63.326.076.044.167.552 2.405-2.926.474-.048.004" class="s"/><path d="M48.287 17.743l1.566 1.633-.024.06-1.566.088-.037-.035v-1.72c0-.032.04-.047.06-.024" class="w"/><path d="M48.5 18.338v.908l.826-.046zm-.326 1.457l-.11-.087c-.06-.057-.094-.136-.094-.218v-1.72a.3.3 0 0 1 .517-.207l1.566 1.633a.3.3 0 0 1-.201.507l-1.68.095" class="s"/><path d="M48.285 17.818l-.06 3.778-.015.027-2.937 2.835-.052-.028-.296-2.21.012-.025 3.292-4.4.055.026" class="u"/><path d="M45.2 22.285l.224 1.66 2.54-2.45L48 18.53zm.09 2.48l-.173-.073c-.097-.052-.157-.152-.157-.262l-.313-2.316.09-.1 3.32-4.43a.3.3 0 0 1 .494.228v.001l-.06 3.916-.094.076-2.974 2.864-.132.087" class="s"/><path d="M47.924 21.832l-2.204-4.346c-.035-.07-.14-.04-.135.037l.424 6.158 1.916-1.85" class="w"/><path d="M45.914 18.454l.32 4.643 1.366-1.32zm-.13 5.812l-.462-6.724c-.01-.16.1-.304.246-.347s.316.028.39.17l2.293 4.52-2.466 2.38" class="s"/><path d="M19.3 15.256l2.034-2.106-.012-.025-2.376.166.328 1.957.025.008" class="v"/><path d="M19.266 13.535l.198 1.18 1.238-1.28zm.117 2.02l-.32-.093-.038-.17-.376-2.246 2.847-.2.17.337-.13.148-2.15 2.223" class="s"/><path d="M18.957 7.837l2.345 2.707c.024.027 0 .068-.035.063l-2.84-.46.53-2.31" class="x"/><path d="M18.747 9.93l1.946.315-1.595-1.842zm2.526.94l-.048-.004-3.12-.505.625-2.72.325-.085.117.126L21.5 10.37c.084.096.098.235.036.346-.054.097-.156.156-.265.156" class="s"/><path d="M16.058 8.072l-1.68 1.753c-.022.023-.007.062.025.064l1.68.094.04-.038V8.098c0-.034-.042-.05-.065-.026" class="v"/><path d="M14.91 9.652l.95.053V8.663zm1.175.596l-.017-.001-1.68-.094c-.117-.006-.22-.08-.264-.19s-.018-.235.063-.32l1.68-1.754a.3.3 0 0 1 .331-.07.3.3 0 0 1 .189.28v1.96l-.095.106c-.056.053-.13.083-.208.083" class="s"/><path d="M16.06 8.152l.063 4.053.016.03 3.15 3.042.055-.03.318-2.373-.012-.026-3.533-4.723-.06.028" class="x"/><path d="M16.385 12.106l2.76 2.663.243-1.83-3.053-4.08zm2.924 3.442c-.058 0-.115-.017-.165-.05l-.038-.03-3.133-3.024-.095-.062-.02-.167-.063-4.058a.3.3 0 0 1 .175-.276c.108-.05.235-.03.323.048l.037.04 3.586 4.764.012.144-.32 2.408c.003.075-.058.177-.155.23-.045.024-.093.036-.143.036" class="s"/><path d="M16.447 12.46l2.365-4.663c.038-.074.15-.043.145.04l-.454 6.607-2.056-1.984" class="v"/><path d="M16.77 12.405l1.506 1.454.352-5.118zm1.956 2.624l-2.605-2.515 2.454-4.837a.34.34 0 0 1 .395-.175c.16.044.26.19.25.353l-.494 7.174" class="s"/><path d="M39.163 17.203a6.1 6.1 0 0 0-6.098-6.098 6.1 6.1 0 0 0-6.098 6.098 6.09 6.09 0 0 0 3.059 5.281v3.807h6.08v-3.807c1.826-1.054 3.058-3.02 3.058-5.28" class="u"/><path d="M30.026 22.485v3.986h6.08v-3.986h-6.08" fill="#a4a6a9"/><g class="s"><path d="M37.022 24.614H29.1v-.53h7.913v.53M33.286 10.33h-.53V8.618h.53v1.712m2.354.493l-.497-.18.292-.805.498.18-.293.805m2.045 1.267l-.406-.34 1.1-1.313.406.34-1.1 1.313m1.5 1.888l-.265-.458.84-.488.265.458-.84.487m.756 2.285l-.093-.52 1.686-.3.093.52-1.686.3m.747 2.558l-.822-.153.097-.52.822.153-.097.52m-.22 2.933l-1.486-.85.263-.46 1.486.85-.263.46m-2.53 1.6l-.553-.654.404-.342.553.654-.404.342m-9.6.014l-.377-.37.546-.554.377.372-.546.553m-2.565-1.47l-.267-.456 1.477-.866.267.456-1.477.866m-.342-2.94l-.083-.523.877-.14.083.523-.877.14m.757-2.543l-1.688-.284.088-.522 1.688.285-.088.522m.703-2.303l-.8-.448.26-.46.8.448-.26.46m1.448-1.914l-1.112-1.302.402-.344 1.112 1.302-.403.343m2.02-1.3l-.3-.802.495-.186.3.802-.495.186"/><path d="M36.37 25.856h-.53v-3.525l.132-.076c1.805-1.04 2.926-2.977 2.926-5.052a5.84 5.84 0 0 0-5.833-5.833 5.84 5.84 0 0 0-5.833 5.833c0 2.075 1.12 4.01 2.926 5.052l.132.076v3.525h-.53v-3.22c-1.9-1.152-3.058-3.22-3.058-5.432a6.37 6.37 0 0 1 6.362-6.362 6.37 6.37 0 0 1 6.362 6.362c0 2.212-1.168 4.28-3.058 5.432v3.22"/></g><path d="M23.518 38.767h2.605v-12.12h-2.605v12.12" fill="#505256"/><path d="M23.783 26.913v11.203c0 .213.173.386.386.386h1.69v-11.6zm2.605 12.12h-2.22c-.505 0-.915-.41-.915-.916V26.384h3.134v12.648" class="s"/><path d="M22.188 28.4h2.605l.845-1.76h-2.605l-.845 1.76" fill="#d6edf9"/><path d="M22.188 28.4h2.605l.845-1.76h-2.605l-.845 1.76" class="t"/><path d="M22.608 28.145h2.018l.59-1.232H23.2zm2.35.53h-3.192l1.1-2.3h3.192l-1.1 2.3" class="s"/><path d="M40.93 38.767H26.123v-12.12H41.85v11.198a.92.92 0 0 1-.92.921" fill="#65686d"/><path d="M42.115 35.343h-.53V33.38h.53v1.963m-1.3 3.69H25.86V26.384h16.256v5.85h-.53v-5.32H26.388v11.6h14.428a.77.77 0 0 0 .77-.77V36.66h.53v1.073a1.3 1.3 0 0 1-1.299 1.299" class="s"/><path d="M43.18 28.4H27.454l-.845-1.76h15.727l.845 1.76" class="t"/><path d="M27.62 28.145h15.14l-.59-1.232H27.03zm15.982.53H27.288l-1.1-2.3h16.314l1.1 2.3" class="s"/><path d="M34.767 13.58s.914.18.946.915l.001.001s.83.15.582 1.153c.004.002.628.477.427 1.555l.001-.004s.86.584-.095 1.45l-.002.1s.12.712-.693 1.3c0 0-.338.284-.896.96-.27.325-1.145.703-1.58-.6v-6.622s.563-1.057 1.3-.225m-3.362-.003s-.914.18-.947.915v.001s-.83.15-.58 1.153c-.003.002-.628.477-.427 1.555V17.2s-.86.584.095 1.45l.003.1s-.12.712.693 1.3c0 0 .337.284.896.96.27.325 1.145.703 1.58-.6v-6.622s-.563-1.057-1.3-.225" class="t"/><g class="s"><path d="M33.722 20.384c.102.288.28.624.567.677.22.04.45-.1.544-.2.568-.685.915-.98.93-.993.674-.495.605-1.043.602-1.066l-.003-.047.005-.214.084-.076c.174-.157.38-.396.364-.636s-.24-.4-.24-.4l.138-.2-.25-.062c.167-.892-.308-1.28-.328-1.297L36 15.752l.038-.167c.063-.255.05-.457-.042-.6a.57.57 0 0 0-.333-.229l-.058-.012-.15-.1-.007-.126c-.023-.516-.726-.665-.734-.667l-.085-.018-.06-.065c-.15-.168-.293-.245-.416-.23-.187.023-.358.237-.433.35zm.648 1.213a.98.98 0 0 1-.177-.016c-.305-.057-.724-.288-.986-1.07l-.014-.084V13.74l.03-.058c.034-.063.342-.615.867-.68.286-.036.56.08.816.34.244.067.9.308 1.048.953a1.06 1.06 0 0 1 .484.397c.154.237.202.528.146.868.193.214.526.714.423 1.533.13.13.312.362.335.682.024.335-.127.666-.448.986.015.204.004.917-.804 1.5.001 0-.325.28-.85.914-.175.212-.507.4-.87.4M29.447 17.2l.14.208s-.224.16-.24.4.2.478.364.636l.084.076.005.24-.004.025c-.003.02-.07.567.6 1.052.03.023.376.318.944 1.003a.63.63 0 0 0 .544.21c.286-.053.465-.4.567-.677V13.88c-.078-.12-.25-.33-.434-.35-.127-.016-.265.063-.415.23l-.06.066-.086.017c-.02.004-.7.155-.733.666l-.006.125-.15.113-.063.012s-.214.046-.33.23c-.1.144-.105.346-.042.6l.046.184-.16.102c-.001.003-.476.4-.3 1.283zm2.347 4.387a1.21 1.21 0 0 1-.87-.4c-.533-.643-.86-.923-.864-.926-.796-.583-.805-1.295-.8-1.5-.32-.32-.472-.65-.45-.986.023-.32.204-.553.335-.682-.105-.82.222-1.314.423-1.534-.056-.34-.008-.63.146-.868a1.06 1.06 0 0 1 .484-.397c.137-.645.803-.886 1.048-.953.256-.26.53-.376.816-.34.525.064.833.616.867.68l.03.058-.014 6.773c-.262.78-.68 1.012-.986 1.07a.99.99 0 0 1-.177.016"/><path d="M35.318 16.584a1.16 1.16 0 0 1-.222-.022 1.15 1.15 0 0 1-.733-.486c-.173-.256-.233-.56-.174-.862l.52.102c-.032.163.002.328.094.465s.232.23.395.262.328-.002.465-.094l.296.44a1.14 1.14 0 0 1-.64.196m-.69 2.267a1.12 1.12 0 0 1-.223-.022 1.14 1.14 0 0 1-.907-1.348l.52.1c-.032.163.001.328.093.465a.62.62 0 0 0 .395.263.61.61 0 0 0 .465-.094l.296.44a1.14 1.14 0 0 1-.639.196"/><path d="M36.615 18.887c-.262-.014-.503-.13-.68-.324s-.265-.447-.25-.7a.98.98 0 0 1 .325-.679l.353.394a.45.45 0 0 0 .279.79l-.028.528m-2.336-1.508a1.14 1.14 0 0 1 .142-1.619l.34.406c-.127.106-.205.255-.22.42s.036.326.143.453l-.405.34"/><path d="M35.808 18.386c-.055-.156-.168-.28-.318-.352a.61.61 0 0 0-.474-.024l-.177-.5a1.14 1.14 0 0 1 1.467.698l-.5.177m-.91-3.237a1.14 1.14 0 0 1-.086-1.623l.393.354c-.1.123-.167.282-.158.447s.08.317.204.428l-.353.394"/><path d="M33.916 15.256h-.002l.001-.53c.166 0 .32-.064.438-.18a.62.62 0 0 0 .183-.44l.53.002c-.001.307-.12.595-.34.812a1.14 1.14 0 0 1-.811.335m.315 5.6l-.38-.37a1.14 1.14 0 0 1 .809-.346h.015a1.14 1.14 0 0 1 .802.327l-.37.38c-.118-.116-.274-.17-.44-.176-.166.002-.32.068-.436.187"/><path d="M34.85 20.682a1.14 1.14 0 0 1-.65-1.489l.493.193a.61.61 0 0 0 .01.474.62.62 0 0 0 .342.33l-.194.493m-4.006-4.1a1.15 1.15 0 0 1-.64-.196l.295-.44a.62.62 0 0 0 .861-.168.61.61 0 0 0 .093-.465l.52-.1c.06.3-.003.607-.174.86a1.15 1.15 0 0 1-.733.487c-.074.014-.15.022-.223.022m.7 2.267c-.226 0-.447-.067-.64-.196l.296-.44c.137.092.3.126.465.094a.61.61 0 0 0 .488-.727l.52-.1a1.14 1.14 0 0 1-.174.862c-.17.255-.43.427-.732.486a1.21 1.21 0 0 1-.223.02m-1.986.036l-.028-.528a.45.45 0 0 0 .314-.15c.08-.1.122-.206.116-.328a.45.45 0 0 0-.15-.313l.354-.393c.195.175.3.416.324.68a.9.9 0 0 1-.25.7 1.02 1.02 0 0 1-.68.324"/><path d="M32.078 17.386l-.406-.34a.62.62 0 0 0-.076-.874l.34-.405a1.14 1.14 0 0 1 .406.78c.026.306-.068.604-.264.84m-1.722 1.008l-.5-.177c.103-.3.312-.52.6-.653a1.14 1.14 0 0 1 .878-.045l-.177.5a.62.62 0 0 0-.474.025c-.15.07-.262.196-.317.352m.9-3.24l-.354-.393c.123-.1.196-.263.205-.428s-.047-.324-.158-.447l.393-.354a1.14 1.14 0 0 1 .293.829c-.017.306-.15.588-.38.793"/><path d="M32.247 15.265a1.14 1.14 0 0 1-.81-.335c-.217-.216-.337-.505-.338-.812l.53-.002a.62.62 0 0 0 .183.44.61.61 0 0 0 .437.18l.002.53h-.003m-.315 5.6c-.115-.12-.27-.185-.436-.187a.61.61 0 0 0-.44.176l-.37-.38c.22-.214.5-.332.817-.327a1.14 1.14 0 0 1 .809.347l-.38.37"/><path d="M31.313 20.69l-.194-.493c.154-.06.276-.178.342-.33s.07-.32.01-.474l.493-.193c.112.286.106.598-.017.88s-.348.498-.633.6"/></g><path d="M22.768 21.69c0-1.01-.817-1.825-1.825-1.825-.5 0-.97.2-1.302.55-.33-.34-.792-.55-1.302-.55-1.008 0-1.825.816-1.825 1.825 0 .49.195.936.51 1.264l2.61 2.595L22.31 22.9l.104-.13c.223-.303.355-.675.355-1.078" class="u"/><path d="M18.87 20.115c-.095-.028-.194-.048-.295-.06-.885.097-1.573.846-1.573 1.756a1.76 1.76 0 0 0 .495 1.225l2.233 2.42.294-.29-1.943-2.127a1.76 1.76 0 0 1-.495-1.225c0-.808.543-1.487 1.283-1.697" fill="#fde19f"/><path d="M22.172 20.728a1.58 1.58 0 0 0-.538-.437l.234-.474a2.11 2.11 0 0 1 .72.584l-.416.327m-2.54 5.195l-2.795-2.78a2.07 2.07 0 0 1-.59-1.452 2.09 2.09 0 0 1 2.09-2.09c.48 0 .934.16 1.302.456a2.07 2.07 0 0 1 1.302-.456v.53c-.422 0-.817.167-1.113.47l-.2.194-.2-.194c-.296-.302-.7-.47-1.113-.47-.86 0-1.56.7-1.56 1.56a1.55 1.55 0 0 0 .437 1.08l2.418 2.406L22.12 22.7l.083-.105c.193-.264.298-.582.298-.915 0-.173-.028-.343-.083-.504l.5-.17a2.09 2.09 0 0 1 .111.675 2.07 2.07 0 0 1-.406 1.235l-.118.146-2.875 2.85" class="s"/><g class="x"><path d="M48.88 7.908h-5.326l-.887 1.537 3.55 4.038 3.55-4.038-.888-1.537"/><path d="M44.44 9.446l-.888-1.537-.8 1.548zm1.75-.048l-.86-1.5-.86 1.487zm1.815.048l-.922-1.485-.784 1.496z"/><path d="M46.216 9.446v3.77l1.735-3.77z"/></g><path d="M42.74 9.446v.037l3.394 3.817-1.773-3.855h-1.62m6.885.001v.037L46.232 13.3l1.773-3.855h1.62" class="v"/><g class="s"><path d="M46.216 13.885L42.34 9.478l1.06-1.834h4.07v.53h-3.766l-.716 1.24 3.227 3.67 3.227-3.67-.716-1.24h-.36v-.53h.666l1.06 1.834-3.875 4.407M48.2 8.173h-.58v-.53h.58v.53"/><path d="M49.767 9.7h-7.1v-.53h7.1v.53"/><path d="M45.974 13.6L44.2 9.552l.484-.213 1.775 4.04-.485.213"/><path d="M46.458 13.498l-.485-.213 1.776-4.038.484.213-1.775 4.04"/><path d="M46.48 13.392h-.53V9.446h.53v3.946m-2.268-3.814l-.888-1.537.458-.265.888 1.537-.458.265"/><path d="M45.987 9.578L45.1 8.04l.458-.265.888 1.537-.458.265m1.775.001l-.888-1.537.458-.265.888 1.537-.458.265"/><path d="M48.22 9.578l-.458-.265.888-1.537.458.265-.888 1.537m-1.775 0l-.458-.265.888-1.537.458.265-.888 1.537m-1.775 0l-.458-.265.888-1.537.458.265-.888 1.537"/></g><path d="M33.458 5.31c-.5 0-.904-.404-.904-.905s.405-.902.904-.902.903.404.903.902-.404.905-.903.905zm2.423-1.35l-.44-.002c-.052-.23-.142-.443-.264-.635l.312-.312c.112-.11.113-.29.001-.403l-.233-.233c-.11-.11-.29-.112-.403-.001l-.312.312c-.192-.12-.406-.21-.634-.263v-.44c0-.157-.128-.285-.286-.285h-.33c-.158 0-.285.127-.285.285v.44c-.225.05-.435.14-.625.257l-.3-.313c-.11-.11-.29-.114-.403-.002l-.235.232c-.11.1-.112.29-.002.403l.31.314c-.122.19-.213.405-.266.633l-.44-.002c-.158-.001-.285.126-.285.284l-.002.33c-.001.157.126.285.284.286l.44.001a2.01 2.01 0 0 0 .262.635l-.314.312c-.11.1-.11.3 0 .402l.23.233c.11.113.292.113.403.001l.313-.3a2.03 2.03 0 0 0 .635.266l-.002.44c-.001.157.127.286.284.286l.33.001c.157 0 .285-.126.285-.283V6.39a2.04 2.04 0 0 0 .636-.263l.31.313c.11.11.292.11.404 0l.232-.232c.11-.1.112-.29 0-.402l-.31-.313c.12-.192.212-.405.264-.635H35.88c.158 0 .285-.127.285-.285v-.33c0-.156-.127-.284-.283-.284" class="t"/><g class="s"><path d="M33.458 3.77a.64.64 0 0 0-.64.638.64.64 0 0 0 .64.64.64.64 0 0 0 .639-.64.64.64 0 0 0-.639-.638zm0 1.807a1.17 1.17 0 0 1-1.169-1.169 1.17 1.17 0 0 1 1.169-1.167 1.17 1.17 0 0 1 1.168 1.167 1.17 1.17 0 0 1-1.168 1.169zm-1.126.2l.178.113a1.77 1.77 0 0 0 .552.232l.206.047-.002.65.35.022.022-.67.206-.046a1.77 1.77 0 0 0 .553-.228l.18-.113.46.463.26-.233-.458-.5.112-.178a1.76 1.76 0 0 0 .23-.553l.047-.207.652.002.02-.35-.02-.02-.65-.002-.046-.205a1.74 1.74 0 0 0-.23-.552l-.113-.18.46-.46-.232-.262-.5.46-.18-.114a1.8 1.8 0 0 0-.55-.23l-.206-.047v-.652l-.35-.02-.02.672-.206.047c-.2.043-.373.118-.544.224l-.18.1-.458-.462-.263.232.458.493-.114.178c-.108.17-.186.355-.23.55l-.048.206-.65-.002-.022.35.67.022.046.206a1.74 1.74 0 0 0 .228.551l.114.18-.464.462.232.262zm1.283 1.593H33.285a.54.54 0 0 1-.387-.162.56.56 0 0 1-.16-.4l.001-.238a2.33 2.33 0 0 1-.326-.137l-.17.17c-.103.103-.24.16-.387.16h-.001a.55.55 0 0 1-.39-.163l-.23-.233a.55.55 0 0 1 .002-.776l.17-.17a2.21 2.21 0 0 1-.134-.326l-.238-.001a.55.55 0 0 1-.548-.552l.002-.33a.55.55 0 0 1 .163-.39c.105-.105.236-.146.4-.158l.237.001a2.32 2.32 0 0 1 .137-.325l-.17-.17a.54.54 0 0 1-.158-.39c.002-.148.058-.285.163-.388l.235-.232c.204-.205.568-.205.776.003l.17.17a2.38 2.38 0 0 1 .314-.129v-.24a.55.55 0 0 1 .55-.549h.33a.55.55 0 0 1 .55.549v.24a2.22 2.22 0 0 1 .325.135l.17-.17c.206-.207.57-.207.776.001l.233.233c.104.104.16.242.16.4a.55.55 0 0 1-.162.39l-.168.17c.054.105.1.214.135.327l.24.001a.55.55 0 0 1 .548.549v.33a.55.55 0 0 1-.55.549l-.24-.001c-.037.112-.082.22-.136.326l.168.17a.54.54 0 0 1 .161.386c0 .148-.058.286-.163.4l-.23.23c-.217.214-.565.213-.778 0l-.17-.17c-.105.053-.214.098-.326.134l-.001.24a.55.55 0 0 1-.55.547M16.014 36.5a3.8 3.8 0 0 1-3.792-3.792 3.8 3.8 0 0 1 3.792-3.792c1.4 0 2.697.776 3.356 2.025l-.468.247a3.26 3.26 0 0 0-2.888-1.743 3.27 3.27 0 0 0-3.263 3.263 3.27 3.27 0 0 0 3.263 3.263v.53"/><path d="M10.92 35.515h-.53a2.72 2.72 0 0 1 .512-1.594 2.74 2.74 0 0 1 1.552-1.06l.13.513c-.503.127-.947.43-1.252.856a2.19 2.19 0 0 0-.412 1.285m8.323 1.082h-.53a2.72 2.72 0 0 1 .512-1.594 2.74 2.74 0 0 1 1.552-1.06l.13.513a2.21 2.21 0 0 0-1.252.855 2.19 2.19 0 0 0-.412 1.286"/><path d="M8.588 38.958c-1.937 0-3.397-1.384-3.397-3.22a3.4 3.4 0 0 1 3.397-3.397 3.39 3.39 0 0 1 2.84 1.532l-.442.3a2.89 2.89 0 0 0-2.398-1.294 2.87 2.87 0 0 0-2.868 2.868c0 1.535 1.233 2.692 2.868 2.692v.53m42.352-5.38a4.16 4.16 0 0 0-7.609-1.774l-.443-.3c.87-1.33 2.337-2.126 3.925-2.126 2.372 0 4.372 1.773 4.653 4.125l-.526.063"/><path d="M50.266 35.83h-.53c0-1.672 1.36-3.032 3.03-3.032v.53c-1.38 0-2.502 1.123-2.502 2.503"/><path d="M57.238 38.86v-.53a4.21 4.21 0 0 0 4.205-4.205 4.21 4.21 0 0 0-4.205-4.205 4.19 4.19 0 0 0-4.092 3.231c-.075.317-.114.645-.114.974h-.53a4.74 4.74 0 0 1 .128-1.097c.508-2.142 2.402-3.637 4.606-3.637a4.74 4.74 0 0 1 4.734 4.734 4.74 4.74 0 0 1-4.734 4.734"/></g><g class="t"><path d="M44.402 36.235c0 1.41-1.816 2.552-4.056 2.552s-4.056-1.143-4.056-2.552 1.816-2.552 4.056-2.552 4.056 1.143 4.056 2.552"/><path d="M44.255 35.375a2.55 2.55 0 0 1-2.552 2.552c-1.41 0-2.552-1.142-2.552-2.552s1.143-2.552 2.552-2.552a2.55 2.55 0 0 1 2.552 2.552"/><path d="M40.404 35.44c0 1.808-1.466 3.275-3.274 3.275s-3.275-1.466-3.275-3.275 1.466-3.275 3.275-3.275 3.274 1.466 3.274 3.275"/></g><g class="s"><path d="M39.416 35.375h-.53a2.82 2.82 0 0 1 2.816-2.817 2.8 2.8 0 0 1 1.596.495l-.3.436c-.382-.263-.83-.402-1.296-.402a2.29 2.29 0 0 0-2.287 2.287m17.418 1.532l-.417-.326a1.41 1.41 0 0 0 .297-.787 1.42 1.42 0 0 0-1.33-1.501l.032-.528a1.95 1.95 0 0 1 1.826 2.061 1.94 1.94 0 0 1-.409 1.081"/><path d="M37.13 38.98c-1.952 0-3.54-1.587-3.54-3.54s1.588-3.54 3.54-3.54a3.53 3.53 0 0 1 2.955 1.592l-.442.3c-.56-.848-1.5-1.354-2.514-1.354-1.66 0-3 1.35-3 3s1.35 3 3 3v.53m-33.984.064H2.18v-.53h.966v.53"/><path d="M64.266 39.032h-2.134v-.53h2.134v.53m-2.686 0H3.788v-.53H61.58v.53"/></g><defs ><path id="B" d="M16.492 26.355a.3.3 0 0 1-.299.299.3.3 0 0 1-.299-.299.3.3 0 0 1 .299-.299.3.3 0 0 1 .299.299"/></defs></svg>