<svg xmlns="http://www.w3.org/2000/svg" xmlns:xlink="http://www.w3.org/1999/xlink" width="265" height="163" viewBox="0 0 264.567 162.52"><style><![CDATA[.g{fill:#3b393d}.h{fill:#f9b121}.i{fill:#c6c3c3}]]></style><defs><clipPath id="A"><path d="M4220.68 3612.28l-12 18.04 12-18.04 6.24 4.16-6.24-4.16"/></clipPath><path id="B" d="M436.287 390.84a.75.75 0 0 0-.75.75v4.274a.75.75 0 1 0 1.5 0v-4.274a.75.75 0 0 0-.75-.75"/><path id="C" d="M293.022 400.15a1.34 1.34 0 0 0-1.338-1.338 1.34 1.34 0 0 0-1.338 1.338 1.34 1.34 0 0 0 1.338 1.338 1.34 1.34 0 0 0 1.338-1.338"/><path id="D" d="M324.25 429.177c0-.477-.387-.864-.865-.864s-.864.387-.864.864.387.865.864.865.865-.387.865-.865"/></defs><g transform="matrix(1.333333 0 0 -1.333333 -356.582611 587.071533)"><path d="M403.35 386.642l-1.5.001.01 19.13h1.5l-.01-19.13" class="g"/><path d="M418.963 392.857h-9.72v9.09h9.72l-1.833-4.545 1.833-4.544" class="h"/><path d="M420.074 392.107h-11.58v2.15h1.5v-.65h7.86l-1.53 3.794 1.53 3.795h-3.748v1.5h5.97l-2.136-5.295 2.136-5.294" class="g"/><path d="M412.548 395.606h-9.72v9.09h9.72v-9.09" class="h"/><path d="M403.578 396.356h8.22v7.59h-8.22zm9.72-1.5h-11.22v10.59h11.22v-10.59" class="g"/><path d="M443.56 328.948l-41.064 61.68-40.304-61.18 81.368-.5" fill="#65686d"/><path d="M442.935 328.532l-21.5 32.28 1.248.832 21.492-32.28-1.25-.83m-32.308 48.526l-8.143 12.23-7.974-11.605-1.237.85 9.23 13.434 9.37-14.076-1.248-.83" class="g"/><g clip-path="url(#A)" transform="scale(.10000000149011612)"><path d="M4208.68 3612.28h18.242v18.04h-18.242z" fill="#c2c0be"/></g><path d="M421.09 329.086l-1.965.012c.198.144.386.304.56.48.86.865 1.33 2.014 1.324 3.233l-.143 30.22 1.2-1.803-.624-.416 1.57-2.355-.002-25.645c.007-1.22-.463-2.368-1.324-3.233-.184-.186-.387-.344-.596-.493" fill="#58595e"/><path d="M423.013 358.457l-1.57 2.355 1.248.832.32-.482v-2.705" class="g"/><path d="M416.462 328.986a3.8 3.8 0 0 1 3.798 3.822l-.18 38.22c0 2.7-2.47 4.907-5.516 4.907h-59.1l.202-46.986 60.797.038" fill="#fff"/><path d="M355.665 328.198v1.5l60.797.038a3.03 3.03 0 0 1 3.049 3.067l-.18 38.22 1.5.007.18-38.22c.007-1.22-.463-2.368-1.324-3.233a4.52 4.52 0 0 0-3.224-1.343l-60.798-.038m31.81 46.988h24.827v1.5h-24.827z" class="g"/><path d="M420.263 377.52v-44.533s-.23 4.04-4.02 4.04h-2.367v44.547h2.333c2.24 0 4.055-1.816 4.055-4.055" fill="#65cdf2"/><path d="M414.625 337.78h1.616c1.478 0 2.534-.535 3.272-1.28v41.02a3.31 3.31 0 0 1-3.305 3.305h-1.583zm4.89-4.833c-.022.34-.3 3.333-3.273 3.333h-3.116v46.047h3.083c2.65 0 4.805-2.156 4.805-4.805v-44.533l-1.5-.042" class="g"/><path d="M382.425 339.95h6.435v10.284h-6.435zm14.833.117h-6.435v14.815h6.435v-14.815" fill="#e9eae9"/><path d="M405.656 340.185h-6.435v28.78h6.435v-28.78" class="h"/><path d="M353.632 359.886h-5.603v11.3c0 5.665-4.608 10.274-10.272 10.274a10.29 10.29 0 0 1-10.274-10.274v-11.3h-5.603v11.3a15.9 15.9 0 0 0 15.877 15.877c8.754 0 15.875-7.123 15.875-15.877v-11.3" fill="#f4f5f5"/><path d="M353.632 359.136h-6.353v12.05c0 5.25-4.27 9.524-9.522 9.524a9.54 9.54 0 0 1-9.525-9.524v-12.05h-7.102v12.05a16.65 16.65 0 0 0 16.627 16.626c5.524 0 10.676-2.742 13.78-7.335l-1.242-.84c-2.826 4.18-7.514 6.675-12.54 6.675-8.34 0-15.127-6.785-15.127-15.126v-10.55h4.102v10.55a11.04 11.04 0 0 0 11.025 11.024c6.078 0 11.022-4.945 11.022-11.024v-10.55h4.853v-1.5" class="g"/><path d="M358.202 349.46c0-11.33-9.183-20.512-20.512-20.512s-20.512 9.183-20.512 20.512 9.184 20.51 20.512 20.51 20.512-9.183 20.512-20.51" fill="#fff"/><path d="M351.64 349.46c0-7.705-6.245-13.95-13.95-13.95s-13.95 6.246-13.95 13.95 6.246 13.95 13.95 13.95 13.95-6.246 13.95-13.95" fill="#65cdf2"/><g class="g"><path d="M342.5 352.076c0-2.7-2.196-4.905-4.906-4.905s-4.905 2.196-4.905 4.905 2.196 4.905 4.905 4.905 4.906-2.196 4.906-4.905m15.423-9.2l-1.426.464c.64 1.97.965 4.028.965 6.118 0 10.897-8.865 19.762-19.762 19.762-8.034 0-15.207-4.798-18.273-12.223l-1.387.572a21.2 21.2 0 0 0 19.66 13.15c11.724 0 21.262-9.538 21.262-21.262a21.26 21.26 0 0 0-1.039-6.582M337.7 328.198a21.18 21.18 0 0 0-11.67 3.485l.825 1.253a19.66 19.66 0 0 1 10.844-3.238 19.69 19.69 0 0 1 15.332 7.293l1.164-.947a21.19 21.19 0 0 0-16.496-7.846m17.85 9.717l-1.26.815c.2.308.73 1.315 1.047 1.918l.3.548 1.32-.712-.283-.535-1.114-2.034"/><path d="M340.515 341.604h-5.86v11.15h5.86v-11.15m97.91 51.373h-4.274a.75.75 0 1 0 0 1.5h4.274a.75.75 0 1 0 0-1.5"/><use xlink:href="#B"/><path d="M387.893 392.977h-4.275a.75.75 0 1 0 0 1.5h4.275a.75.75 0 1 0 0-1.5"/><use xlink:href="#B" x="-50.532"/><path d="M347.095 407.298c-.193 0-.384.073-.53.22a.75.75 0 0 0 0 1.061l3.022 3.022a.75.75 0 0 0 1.06 0 .75.75 0 0 0 0-1.06l-3.02-3.023c-.146-.147-.338-.22-.53-.22"/><path d="M350.116 407.298c-.192 0-.384.073-.53.22l-3.022 3.023a.75.75 0 0 0 1.061 1.06l3.02-3.022a.75.75 0 0 0 0-1.061.74.74 0 0 0-.53-.22m104.1-37.788a.75.75 0 0 0-.53 1.281l3.022 3.022a.75.75 0 1 0 1.061-1.061l-3.023-3.022a.75.75 0 0 0-.53-.22"/><path d="M457.228 369.5a.75.75 0 0 0-.531.22l-3.022 3.022a.75.75 0 0 0 1.06 1.061l3.023-3.022a.75.75 0 0 0-.53-1.281m-143.025 17.958c-.192 0-.384.073-.53.22a.75.75 0 0 0 0 1.061l3.022 3.023a.75.75 0 1 0 1.061-1.061l-3.023-3.023c-.146-.146-.337-.22-.53-.22"/><path d="M317.226 387.468a.75.75 0 0 0-.531.219l-3.022 3.023a.75.75 0 0 0 1.06 1.061l3.023-3.023a.75.75 0 0 0-.53-1.28m29.606 29.954h-40.796v1.5h40.796v-1.5m109.785-24.445h-16.054v1.5h16.054v-1.5M280.18 372.92h-4.275a.75.75 0 1 0 0 1.5h4.275a.75.75 0 1 0 0-1.5"/><use xlink:href="#B" x="-158.244" y="-20.056"/><path d="M298.372 372.92H282.32v1.5h16.053v-1.5m81.9 35.7h-21.816v1.5h21.816v-1.5m-23.815 0h-3.912v1.5h3.912v-1.5m40.575 18.943h-21.816v1.5h21.816v-1.5m-23.806 0h-3.913v1.5h3.913v-1.5m72.303-73.927a1.34 1.34 0 0 0-1.338-1.338 1.34 1.34 0 0 0-1.339 1.338 1.34 1.34 0 0 0 1.339 1.338 1.34 1.34 0 0 0 1.338-1.338"/><use xlink:href="#C"/><use xlink:href="#C" x="103.695" y="12.26"/><path d="M438.534 371.2c0-.478-.387-.865-.865-.865s-.864.387-.864.865.387.864.864.864.865-.387.865-.864"/><use xlink:href="#D"/><use xlink:href="#D" x="112.902" y="-11.005"/><use xlink:href="#D" x="-7.67" y="-58.832"/><path d="M352.088 393.726c0-.477-.387-.864-.864-.864s-.865.387-.865.864.387.865.865.865.864-.387.864-.865"/></g><path d="M387.434 375.934h-31.97 31.97" fill="#b6b7bb"/><path d="M355.665 328.948l-.04 9.092 1.036 1.91.283.535-.64.346c.342.737.642 1.498.896 2.28l.713-.232a21.26 21.26 0 0 1 1.039 6.582c0 4.26-1.26 8.23-3.425 11.56l-.064 14.914h31.97l.042-.052v-.698h.185v-3.687l-4.88-4.305-.736.106-.202.322c-.247.424-2.294 3.626-7.735 3.626a15.68 15.68 0 0 1-2.096-.147l11.512-20.866h-1.1v-6.48l-.67-.77h.67v-1.5h-1.596l4.826-11.72.013-.045-30.003-.02v-.75" class="i"/><path d="M355.665 328.198v1.5l30.003.02.005-.02h4.04v-1.48l-34.048-.02m31.995 46.986h-.185v.698l.185-.228v-.47" class="g"/><path d="M384.728 341.483h-2.303v1.5h2.303v-1.5m-2.303 2.27v6.48h1.1l1.76-3.19-2.86-3.288" fill="#b2b3b3"/><path d="M356.304 340.83l-.68.366-.012-.024-.072 16.764a19.65 19.65 0 0 0 1.911-8.477c0-2.1-.325-4.15-.965-6.118l.713-.232c-.254-.78-.554-1.542-.896-2.28" class="i"/><path d="M357.913 342.877l-1.426.464c.64 1.97.965 4.028.965 6.118a19.65 19.65 0 0 1-1.911 8.477l-.014 3.084a21.13 21.13 0 0 0 3.425-11.56 21.26 21.26 0 0 0-1.039-6.582m-2.287-4.838l-.013 3.132.012.024.68-.366.64-.346-.283-.535-1.036-1.9" class="g"/><path d="M378.99 343.248l3.383 3.9-13.532 24.528c8.342 1.604 11.36-3.172 11.648-3.668l.063-.007 4.36 3.844v3.552l-12.518 15.394H367.5l1.498 5.996-.067.048-10.92-7.064a47.74 47.74 0 0 1-9.14-28.092v-14.192l4.398-5.244h24.738l.974 1.015" fill="#fff"/><path d="M354.886 361.67a47.74 47.74 0 0 0 9.14 28.092l3.852 2.492 1.13 4.524-.067.048-10.92-7.064a47.74 47.74 0 0 1-9.14-28.092v-14.192l4.398-5.244h6.005l-4.398 5.244v14.192" fill="#d3d4d3"/><path d="M383.18 328.948h-35.154l5.254 12.76h24.646l5.254-12.76" fill="#fff"/><path d="M353.28 341.708l-5.254-12.76h6.756l5.254 12.76h-6.756" fill="#d3d4d3"/><g class="g"><path d="M378.337 341.483H352.93l-4.8 5.72v14.465a48.19 48.19 0 0 0 9.283 28.533l.082.113 11.463 7.415.834-.6-.058-.546-1.265-5.065h4.28l3.882-4.772-1.164-.946-3.43 4.218h-5.487l1.297 5.194-9.302-6.017c-5.832-8.064-8.914-17.583-8.914-27.538v-13.92l3.998-4.767h24.07l.752.784 3.014 3.468-13.777 24.973 1.013.194c7.223 1.4 10.73-1.8 11.948-3.327l3.513 3.098v2.948l-2.602 3.2 1.164.946 2.938-3.613v-4.157l-4.88-4.305-.736.106-.202.322c-.277.475-2.817 4.425-9.83 3.48l13.272-24.057-3.726-4.287-1.22-1.272m.835 39.772l-2.12 2.607 1.164.946 2.12-2.607-1.164-.946"/><path d="M349.146 329.698h32.914l-4.637 11.26H353.78zm33.462-1.5h-34a1.13 1.13 0 0 0-1.046 1.565l5.226 12.695h25.65l5.228-12.696a1.13 1.13 0 0 0-1.047-1.564m-28.236 24.68H349v1.5h5.373v-1.5m0 4.667H349v1.5h5.373v-1.5m0 4.668H349v1.5h5.373v-1.5m0 4.667h-5.1v1.5h5.1v-1.5m.394 3.95l-4.84.388.12 1.495 4.84-.388-.12-1.495m.448 3.797l-4.154.925.326 1.464 4.154-.925-.326-1.464m1.06 3.443l-4.1 1.252.44 1.434 4.1-1.252-.44-1.434"/><path d="M357.86 382.098l-3.356 1.558.63 1.36 3.356-1.56-.63-1.36m24.868-40.613h-33.96v1.5h33.96v-1.5m4.985-13.285h-43.775v1.5h43.775v-1.5"/></g><path d="M317.178 349.46v.03-.03" fill="#b6b7bb"/><path d="M326.345 332.385c-5.455 3.632-9.08 9.796-9.165 16.822v.04c-.001.033-.001.06-.001.085v.04c0 .02 0 .03-.001.04v.08c.004 2.54.494 4.96 1.342 7.204a14.57 14.57 0 0 0 1.43-.306 14.24 14.24 0 0 0 4.616-2.188c-.534-1.48-.826-3.076-.826-4.74 0-4.784 2.408-9.006 6.078-11.52-.636-1.88-1.646-3.575-2.955-5.016-.006.004-.012.007-.017.01l-.07-.105c-.14-.152-.284-.3-.432-.446" class="i"/><path d="M329.818 337.94c-3.67 2.513-6.078 6.735-6.078 11.52 0 1.664.292 3.26.826 4.74.698-.5 1.353-1.065 1.956-1.69l6.16-.496a4.87 4.87 0 0 1 .399-1.881l-2.655-5.572c.277-1.934.164-3.862-.34-5.736-.08-.3-.17-.594-.268-.885" fill="#43aac9"/><path d="M333.08 350.134a4.87 4.87 0 0 0-.399 1.881l1.247-.1-.848-1.78m-6.303-17.305l.07.105-.07-.104" class="g"/><path d="M330.782 351.254l-3.134-6.578a13.52 13.52 0 0 0-.286-5.655 13.59 13.59 0 0 0-16.642-9.607 13.59 13.59 0 0 0-9.607 16.643 13.59 13.59 0 0 0 16.642 9.606c2.56-.686 4.74-2.068 6.42-3.877l6.607-.532" class="h"/><path d="M314.217 355.382c-2.225 0-4.42-.583-6.398-1.725-2.97-1.715-5.093-4.483-5.98-7.795a12.75 12.75 0 0 1 1.281-9.741c1.715-2.97 4.483-5.094 7.795-5.982s6.772-.433 9.74 1.28 5.094 4.483 5.982 7.795c.467 1.744.56 3.542.27 5.343l-.037.23 2.766 5.806-5.812.468-.2.214c-1.647 1.774-3.745 3.04-6.064 3.662a12.9 12.9 0 0 1-3.345.444zm.044-27.187a14.43 14.43 0 0 0-3.736.495 14.24 14.24 0 0 0-10.136 17.561 14.24 14.24 0 0 0 6.68 8.705c3.317 1.915 7.18 2.423 10.88 1.432a14.29 14.29 0 0 0 6.572-3.877l7.406-.597-3.503-7.352c.277-1.934.164-3.862-.34-5.736-.99-3.7-3.364-6.8-6.68-8.704-2.21-1.276-4.66-1.927-7.144-1.927" class="g"/><path d="M323.088 340.166c1.27 4.74-1.633 9.635-6.484 10.936s-9.815-1.487-11.085-6.226 1.633-9.635 6.484-10.936 9.815 1.487 11.085 6.226" fill="#fff"/><path d="M312.133 336.95l-4.677 4.676 2.828 2.83 1.85-1.85 5.5 5.5 2.828-2.828-8.34-8.34m3.208 20.972h-1.5v3.306h1.5V357.9m-17-25.117l-.748 1.3 2.867 1.648.748-1.3-2.867-1.648m-1.973 4.47l-.387 1.45 3.194.85.387-1.45-3.194-.85m2.546 4.833l-3.305.006.002 1.5 3.305-.006-.002-1.5m.412 4.002l-3.2.862.4 1.448 3.2-.86-.4-1.45m1.435 3.76l-2.86 1.66.752 1.298 2.86-1.66-.752-1.298m2.36 3.26l-2.333 2.343 1.063 1.06 2.333-2.343-1.063-1.06m3.12 2.536l-1.646 2.867 1.3.747 1.646-2.867-1.3-.747m3.675 1.643l-.848 3.195 1.45.385.848-3.196-1.45-.384m-21.872-29.1h-2.74v1.5h2.74v-1.5m173.267 0h-6.05v1.5h6.05v-1.5m-7.62.001H289.856v1.5H453.68v-1.5" class="g"/></g></svg>