<?xml version="1.0" encoding="utf-8"?>
<!-- Generator: Adobe Illustrator 18.0.0, SVG Export Plug-In . SVG Version: 6.00 Build 0)  -->
<!DOCTYPE svg PUBLIC "-//W3C//DTD SVG 1.1//EN" "http://www.w3.org/Graphics/SVG/1.1/DTD/svg11.dtd">
<svg version="1.1" id="Layer_1" xmlns="http://www.w3.org/2000/svg" xmlns:xlink="http://www.w3.org/1999/xlink" x="0px" y="0px"
	 viewBox="0 0 129.5 129.5" enable-background="new 0 0 129.5 129.5" xml:space="preserve">
<g>
	<g>
		<g>
			<g>
				<path fill="#231F20" d="M16.4,8.8c-0.2,0-0.4-0.1-0.5-0.2c-0.3-0.3-0.3-0.8,0-1.1l1.3-1.3c0.3-0.3,0.8-0.3,1.1,0
					c0.3,0.3,0.3,0.8,0,1.1l-1.3,1.3C16.8,8.8,16.6,8.8,16.4,8.8z"/>
			</g>
			<g>
				<path fill="#231F20" d="M12.4,12.9c-0.2,0-0.4-0.1-0.5-0.2c-0.3-0.3-0.3-0.8,0-1.1l1.3-1.3c0.3-0.3,0.8-0.3,1.1,0
					c0.3,0.3,0.3,0.8,0,1.1l-1.3,1.3C12.7,12.8,12.5,12.9,12.4,12.9z"/>
			</g>
			<g>
				<path fill="#231F20" d="M17.7,12.9c-0.2,0-0.4-0.1-0.5-0.2l-1.3-1.3c-0.3-0.3-0.3-0.8,0-1.1c0.3-0.3,0.8-0.3,1.1,0l1.3,1.3
					c0.3,0.3,0.3,0.8,0,1.1C18.1,12.8,17.9,12.9,17.7,12.9z"/>
			</g>
			<g>
				<path fill="#231F20" d="M13.6,8.8c-0.2,0-0.4-0.1-0.5-0.2l-1.3-1.3c-0.3-0.3-0.3-0.8,0-1.1c0.3-0.3,0.8-0.3,1.1,0l1.3,1.3
					c0.3,0.3,0.3,0.8,0,1.1C14,8.8,13.8,8.8,13.6,8.8z"/>
			</g>
		</g>
		<g>
			<g>
				<path fill="#231F20" d="M101.9,35.9c-0.2,0-0.4-0.1-0.5-0.2c-0.3-0.3-0.3-0.8,0-1.1l1.3-1.3c0.3-0.3,0.8-0.3,1.1,0
					c0.3,0.3,0.3,0.8,0,1.1l-1.3,1.3C102.2,35.9,102,35.9,101.9,35.9z"/>
			</g>
			<g>
				<path fill="#231F20" d="M97.8,40c-0.2,0-0.4-0.1-0.5-0.2c-0.3-0.3-0.3-0.8,0-1.1l1.3-1.3c0.3-0.3,0.8-0.3,1.1,0
					c0.3,0.3,0.3,0.8,0,1.1l-1.3,1.3C98.2,39.9,98,40,97.8,40z"/>
			</g>
			<g>
				<path fill="#231F20" d="M103.1,40c-0.2,0-0.4-0.1-0.5-0.2l-1.3-1.3c-0.3-0.3-0.3-0.8,0-1.1c0.3-0.3,0.8-0.3,1.1,0l1.3,1.3
					c0.3,0.3,0.3,0.8,0,1.1C103.5,39.9,103.3,40,103.1,40z"/>
			</g>
			<g>
				<path fill="#231F20" d="M99.1,35.9c-0.2,0-0.4-0.1-0.5-0.2l-1.3-1.3c-0.3-0.3-0.3-0.8,0-1.1c0.3-0.3,0.8-0.3,1.1,0l1.3,1.3
					c0.3,0.3,0.3,0.8,0,1.1C99.5,35.9,99.3,35.9,99.1,35.9z"/>
			</g>
		</g>
		<g>
			<g>
				<path fill="#231F20" d="M110.4,115.4c-0.2,0-0.4-0.1-0.5-0.2c-0.3-0.3-0.3-0.8,0-1.1l1.3-1.3c0.3-0.3,0.8-0.3,1.1,0
					c0.3,0.3,0.3,0.8,0,1.1l-1.3,1.3C110.8,115.3,110.6,115.4,110.4,115.4z"/>
			</g>
			<g>
				<path fill="#231F20" d="M106.4,119.4c-0.2,0-0.4-0.1-0.5-0.2c-0.3-0.3-0.3-0.8,0-1.1l1.3-1.3c0.3-0.3,0.8-0.3,1.1,0
					c0.3,0.3,0.3,0.8,0,1.1l-1.3,1.3C106.8,119.3,106.6,119.4,106.4,119.4z"/>
			</g>
			<g>
				<path fill="#231F20" d="M111.7,119.4c-0.2,0-0.4-0.1-0.5-0.2l-1.3-1.3c-0.3-0.3-0.3-0.8,0-1.1c0.3-0.3,0.8-0.3,1.1,0l1.3,1.3
					c0.3,0.3,0.3,0.8,0,1.1C112.1,119.3,111.9,119.4,111.7,119.4z"/>
			</g>
			<g>
				<path fill="#231F20" d="M107.7,115.4c-0.2,0-0.4-0.1-0.5-0.2l-1.3-1.3c-0.3-0.3-0.3-0.8,0-1.1c0.3-0.3,0.8-0.3,1.1,0l1.3,1.3
					c0.3,0.3,0.3,0.8,0,1.1C108.1,115.3,107.9,115.4,107.7,115.4z"/>
			</g>
		</g>
		<g>
			<circle fill="#FF7058" cx="33.9" cy="14.7" r="2"/>
		</g>
		<g>
			<circle fill="#E6E9EE" cx="9.8" cy="39.8" r="2"/>
		</g>
		<g>
			<circle fill="#84DBFF" cx="79.7" cy="40.8" r="2"/>
		</g>
		<g>
			<circle fill="#FF7058" cx="94.3" cy="121.5" r="2"/>
		</g>
		<g>
			<path fill="#84DBFF" d="M82.4,79.9c0-4.4-2.5-8.2-6.1-10.1c0.7-1.5,1-3,1-4.7c0-6-4.5-10.8-10.3-11.5c0.1-0.6,0.2-1.2,0.2-1.9
				c0-5.2-4.2-9.3-9.3-9.3c-0.3,0-0.6,0.1-1,0.1c-0.6-3.3-3.5-5.7-6.9-5.7c0,0,0,0-0.1,0c-3,0-5.3,2.5-5.3,5.5v79.4
				c0,2.6,1.8,4.9,4.3,5.4c0.9,0.2,1.9,0.1,2.9-0.2c2.5-0.8,4.2-3.2,4.2-5.8v-0.1c1,0.3,2.1,0.5,3.2,0.5c5.8,0,10.6-4.7,10.6-10.6
				c0-0.7-0.1-1.3-0.2-1.9c4.6-2.7,7.7-7.7,7.7-13.5c0-2-0.4-3.8-1-5.5C79.9,88.1,82.4,84.3,82.4,79.9z"/>
			<g>
				<path fill="#231F20" d="M83.1,79.9c0-4.3-2.2-8.2-5.9-10.5C77.7,68,78,66.5,78,65c0-6-4.3-11.1-10.2-12.1
					c0.1-0.4,0.1-0.9,0.1-1.3c0-5.5-4.5-10.1-10.1-10.1c-0.1,0-0.3,0-0.4,0c-0.9-3.3-4-5.7-7.6-5.7h0c-3.3,0-6.1,2.8-6.1,6.3v79.4
					c0,3,2.1,5.6,4.9,6.1c0.4,0.1,0.8,0.1,1.2,0.1c0.7,0,1.4-0.1,2.1-0.3c2.5-0.8,4.3-3,4.6-5.6c0.9,0.2,1.7,0.3,2.6,0.3
					c6.2,0,11.3-5.1,11.3-11.3c0-0.5,0-1-0.1-1.5c4.7-3,7.6-8.3,7.6-13.8c0-1.8-0.3-3.5-0.9-5.2C80.8,88.1,83.1,84.2,83.1,79.9z
					 M75.9,89.4c-0.1,0-0.1,0.1-0.2,0.1c-0.7,0.4-1.4,0.7-2.2,0.9l0.4,1.5c0.7-0.2,1.3-0.4,2-0.7c0.5,1.5,0.7,2.9,0.7,4.4
					c0,5.3-2.7,10.1-7.3,12.8c0,0,0,0,0,0c0,0,0,0,0,0c-0.9,0.5-1.8,1-2.7,1.3l0.5,1.4c0.7-0.2,1.4-0.6,2.1-0.9c0,0.2,0,0.5,0,0.7
					c0,5.4-4.4,9.8-9.8,9.8c-1,0-1.9-0.2-3-0.5c-0.7-0.2-1.5-0.5-2.1-0.9l-0.8,1.3c0.6,0.4,1.2,0.7,1.9,0.9c-0.2,2.1-1.6,4-3.6,4.6
					c-0.9,0.3-1.7,0.3-2.6,0.2c-2.1-0.4-3.7-2.3-3.7-4.6v-12c1.6,1.9,3.9,3,6.5,3c0.7,0,1.4-0.1,2.1-0.3l-0.4-1.5
					c-0.6,0.1-1.1,0.2-1.7,0.2c-2.9,0-5.4-1.7-6.5-4.3V85c0.4,0.1,0.8,0.1,1.1,0.1c3.5,0,6.6-2.1,7.9-5.4L53,79.1
					c-1.1,2.7-3.7,4.4-6.6,4.4c-0.4,0-0.8,0-1.1-0.1v-25c0.4-0.1,0.8-0.1,1.1-0.1c2.6,0,4.9,1.4,6.1,3.6c-1.8,1-3.1,2.6-3.7,4.6
					l1.4,0.4c0.8-2.7,3.3-4.5,6-4.5c2.8,0,5.3,1.9,6,4.5l1.4-0.4c-1-3.3-4-5.6-7.5-5.6c-0.8,0-1.6,0.1-2.4,0.4
					c-1.5-2.8-4.3-4.5-7.5-4.5c-0.4,0-0.8,0-1.1,0.1V42.2c0-2.6,2-4.7,4.6-4.8c2.8,0,5.2,1.8,6,4.4c-1,0.2-1.9,0.5-2.8,0.9l0.7,1.3
					c1-0.5,2-0.8,3.1-0.9c0.2,0,0.3,0,0.5,0c0.1,0,0.2,0,0.4,0c4.7,0,8.6,3.8,8.6,8.6c0,0.3,0,0.7-0.1,1.1c-0.2,0-0.4,0-0.6,0
					c-1.3,0-2.6,0.2-3.9,0.6l0.5,1.4c1.1-0.4,2.2-0.5,3.4-0.5c0.3,0,0.6,0,0.9,0.1c0.1,0,0.1,0.1,0.2,0.1c5.5,0.6,9.7,5.2,9.7,10.7
					c0,1.3-0.2,2.5-0.7,3.7c-0.6-0.3-1.3-0.6-2-0.7l-0.4,1.5c0.8,0.2,1.6,0.5,2.3,0.9c0,0,0,0,0.1,0c3.5,1.9,5.7,5.5,5.7,9.5
					C81.6,83.8,79.4,87.5,75.9,89.4z"/>
				<path fill="#231F20" d="M63,87.2c-0.6-0.2-1.3-0.3-1.9-0.3c-3.4,0-6.5,2.3-7.5,5.6L55,93c0.8-2.7,3.3-4.5,6-4.5s5.3,1.9,6,4.5
					l1.4-0.4c-0.6-2.2-2.2-3.9-4.1-4.8c1.3-2.2,3.5-3.5,6.1-3.5c0.6,0,1.1,0.1,1.7,0.2l0.4-1.5c-0.7-0.2-1.4-0.3-2.1-0.3
					C67.3,82.7,64.5,84.5,63,87.2z"/>
			</g>
		</g>
		<g>
			<path fill="#84DBFF" d="M1.1,79.9c0-4.4,2.5-8.2,6.1-10.1c-0.7-1.5-1-3-1-4.7c0-6,4.5-10.8,10.3-11.5c-0.1-0.6-0.2-1.2-0.2-1.9
				c0-5.2,4.2-9.3,9.3-9.3c0.3,0,0.6,0.1,1,0.1c0.6-3.3,3.5-5.7,6.9-5.7c0,0,0,0,0.1,0c3,0,5.3,2.5,5.3,5.5v79.4
				c0,2.6-1.8,4.9-4.3,5.4c-0.9,0.2-1.9,0.1-2.9-0.2c-2.5-0.8-4.2-3.2-4.2-5.8v-0.1c-1,0.3-2.1,0.5-3.2,0.5
				c-5.8,0-10.6-4.7-10.6-10.6c0-0.7,0.1-1.3,0.2-1.9c-4.6-2.7-7.7-7.7-7.7-13.5c0-2,0.4-3.8,1-5.5C3.6,88.1,1.1,84.3,1.1,79.9z"/>
			<g>
				<path fill="#231F20" d="M6.3,90.4c-0.6,1.7-0.9,3.4-0.9,5.2c0,5.6,2.9,10.8,7.6,13.8c-0.1,0.5-0.1,1-0.1,1.5
					c0,6.2,5.1,11.3,11.3,11.3c0.8,0,1.7-0.1,2.6-0.3c0.4,2.6,2.2,4.9,4.6,5.6c0.7,0.2,1.4,0.3,2.1,0.3c0.4,0,0.8,0,1.2-0.1
					c2.8-0.5,4.9-3.1,4.9-6.1V42.2c0-3.4-2.7-6.2-6.1-6.3h0c-3.6,0-6.6,2.3-7.6,5.7c-0.1,0-0.2,0-0.4,0c-5.5,0-10.1,4.5-10.1,10.1
					c0,0.4,0,0.8,0.1,1.3C9.8,53.9,5.4,59,5.4,65c0,1.5,0.3,3,0.8,4.4c-3.7,2.2-5.9,6.2-5.9,10.5C0.4,84.2,2.6,88.1,6.3,90.4z
					 M1.9,79.9c0-3.9,2.2-7.6,5.7-9.5c0,0,0,0,0.1,0c0.7-0.4,1.5-0.7,2.3-0.9L9.6,68c-0.7,0.2-1.4,0.4-2,0.7
					c-0.4-1.2-0.7-2.4-0.7-3.7c0-5.5,4.2-10.1,9.7-10.7c0.1,0,0.1,0,0.2-0.1c0.3,0,0.6-0.1,0.9-0.1c1.1,0,2.3,0.2,3.4,0.5l0.5-1.4
					c-1.3-0.4-2.5-0.6-3.9-0.6c-0.2,0-0.4,0-0.6,0c-0.1-0.4-0.1-0.7-0.1-1.1c0-4.7,3.8-8.6,8.6-8.6c0.1,0,0.3,0,0.4,0
					c0.2,0,0.3,0,0.5,0c1.1,0.1,2.1,0.4,3.1,0.9l0.7-1.3c-0.9-0.5-1.8-0.8-2.8-0.9c0.8-2.6,3.2-4.4,6-4.4c2.6,0,4.6,2.2,4.6,4.8
					v14.7c-0.4-0.1-0.8-0.1-1.1-0.1c-3.2,0-6,1.7-7.5,4.5c-0.8-0.3-1.6-0.4-2.4-0.4c-3.4,0-6.5,2.3-7.5,5.6l1.4,0.4
					c0.8-2.7,3.3-4.5,6-4.5c2.8,0,5.3,1.9,6,4.5l1.4-0.4c-0.6-2-2-3.7-3.7-4.6c1.2-2.2,3.6-3.6,6.1-3.6c0.4,0,0.8,0,1.1,0.1v25
					c-0.4,0.1-0.8,0.1-1.1,0.1c-2.9,0-5.5-1.7-6.6-4.4l-1.4,0.6c1.3,3.3,4.4,5.4,7.9,5.4c0.4,0,0.8,0,1.1-0.1v21.8
					c-1.1,2.6-3.6,4.3-6.5,4.3c-0.6,0-1.1-0.1-1.7-0.2l-0.4,1.5c0.7,0.2,1.4,0.3,2.1,0.3c2.6,0,4.9-1.1,6.5-3v12
					c0,2.3-1.5,4.3-3.7,4.6c-0.8,0.2-1.7,0.1-2.6-0.2c-2-0.6-3.4-2.5-3.6-4.6c0.7-0.2,1.3-0.5,1.9-0.9l-0.8-1.3
					c-0.7,0.4-1.4,0.7-2.1,0.9c-1.1,0.3-2,0.5-3,0.5c-5.4,0-9.8-4.4-9.8-9.8c0-0.2,0-0.5,0-0.7c0.7,0.4,1.4,0.7,2.1,0.9l0.5-1.4
					c-1-0.3-1.9-0.8-2.7-1.3c0,0,0,0,0,0c0,0,0,0,0,0c-4.6-2.8-7.3-7.5-7.3-12.8c0-1.5,0.2-3,0.7-4.4c0.6,0.3,1.3,0.5,2,0.7l0.4-1.5
					c-0.8-0.2-1.5-0.5-2.2-0.9c0,0-0.1-0.1-0.2-0.1C4.1,87.5,1.9,83.8,1.9,79.9z"/>
				<path fill="#231F20" d="M20.5,87.2c0.6-0.2,1.3-0.3,1.9-0.3c3.4,0,6.5,2.3,7.5,5.6L28.4,93c-0.8-2.7-3.3-4.5-6-4.5
					s-5.3,1.9-6,4.5l-1.4-0.4c0.6-2.2,2.2-3.9,4.1-4.8c-1.3-2.2-3.5-3.5-6.1-3.5c-0.6,0-1.1,0.1-1.7,0.2L10.9,83
					c0.7-0.2,1.4-0.3,2.1-0.3C16.2,82.7,19,84.5,20.5,87.2z"/>
			</g>
		</g>
		<g>
			<g>
				<path fill="#231F20" d="M127.4,75.2h-1v-1.5h1V75.2z M124.4,75.2h-1v-1.5h1V75.2z M121.4,75.2h-1v-1.5h1V75.2z M118.4,75.2h-1
					v-1.5h1V75.2z M115.4,75.2h-1v-1.5h1V75.2z M112.4,75.2h-1v-1.5h1V75.2z M109.4,75.2h-1v-1.5h1V75.2z M106.4,75.2h-1v-1.5h1
					V75.2z M103.4,75.2h-1v-1.5h1V75.2z"/>
			</g>
			<g>
				<polygon fill="#231F20" points="97.7,82.3 81.3,65.9 97.7,49.5 97.7,56.7 129.1,56.7 129.1,58.2 96.2,58.2 96.2,53.2 83.4,65.9 
					96.2,78.7 96.2,73.7 102.4,73.7 102.4,75.2 97.7,75.2 				"/>
			</g>
			<g>
				<path fill="#231F20" d="M105.7,105.2h-1v-1.5h1V105.2z M102.7,105.2h-1v-1.5h1V105.2z M99.7,105.2h-1v-1.5h1V105.2z M96.7,105.2
					h-1v-1.5h1V105.2z M117,105.2h-0.3v-1.5h0.3V105.2z M114.7,105.2h-1v-1.5h1V105.2z M111.7,105.2h-1v-1.5h1V105.2z M108.7,105.2
					h-1v-1.5h1V105.2z"/>
			</g>
			<g>
				<polygon fill="#231F20" points="92.8,110.3 81.3,98.8 92.8,87.3 92.8,92.4 117,92.4 117,93.9 91.3,93.9 91.3,90.9 83.4,98.8 
					91.3,106.7 91.3,103.7 95.7,103.7 95.7,105.2 92.8,105.2 				"/>
			</g>
			<g>
				<path fill="#231F20" d="M123.3,53.5h-2.1c-0.4,0-0.8-0.3-0.8-0.8c0-0.4,0.3-0.8,0.8-0.8h2.1c0.4,0,0.8,0.3,0.8,0.8
					C124,53.2,123.7,53.5,123.3,53.5z"/>
			</g>
			<g>
				<path fill="#231F20" d="M118.6,53.5h-1.2c-0.4,0-0.8-0.3-0.8-0.8c0-0.4,0.3-0.8,0.8-0.8h1.2c0.4,0,0.8,0.3,0.8,0.8
					C119.3,53.2,119,53.5,118.6,53.5z"/>
			</g>
			<g>
				<path fill="#231F20" d="M115,53.5h-14.5c-0.4,0-0.8-0.3-0.8-0.8c0-0.4,0.3-0.8,0.8-0.8H115c0.4,0,0.8,0.3,0.8,0.8
					C115.7,53.2,115.4,53.5,115,53.5z"/>
			</g>
			<g>
				<path fill="#231F20" d="M126.3,69.8h-2.1c-0.4,0-0.8-0.3-0.8-0.8c0-0.4,0.3-0.8,0.8-0.8h2.1c0.4,0,0.8,0.3,0.8,0.8
					C127.1,69.5,126.8,69.8,126.3,69.8z"/>
			</g>
			<g>
				<path fill="#231F20" d="M121.7,69.8h-1.2c-0.4,0-0.8-0.3-0.8-0.8c0-0.4,0.3-0.8,0.8-0.8h1.2c0.4,0,0.8,0.3,0.8,0.8
					C122.4,69.5,122.1,69.8,121.7,69.8z"/>
			</g>
			<g>
				<path fill="#231F20" d="M118.1,69.8h-14.5c-0.4,0-0.8-0.3-0.8-0.8c0-0.4,0.3-0.8,0.8-0.8h14.5c0.4,0,0.8,0.3,0.8,0.8
					C118.8,69.5,118.5,69.8,118.1,69.8z"/>
			</g>
			<g>
				<path fill="#231F20" d="M117.4,99.5h-1.8c-0.4,0-0.8-0.3-0.8-0.8c0-0.4,0.3-0.8,0.8-0.8h1.8c0.4,0,0.8,0.3,0.8,0.8
					C118.2,99.2,117.8,99.5,117.4,99.5z"/>
			</g>
			<g>
				<path fill="#231F20" d="M113.5,99.5h-1c-0.4,0-0.8-0.3-0.8-0.8c0-0.4,0.3-0.8,0.8-0.8h1c0.4,0,0.8,0.3,0.8,0.8
					C114.3,99.2,113.9,99.5,113.5,99.5z"/>
			</g>
			<g>
				<path fill="#231F20" d="M110.5,99.5H98.3c-0.4,0-0.8-0.3-0.8-0.8c0-0.4,0.3-0.8,0.8-0.8h12.1c0.4,0,0.8,0.3,0.8,0.8
					C111.2,99.2,110.9,99.5,110.5,99.5z"/>
			</g>
			<g>
				<path fill="#231F20" d="M127.1,89.8h-1.8c-0.4,0-0.8-0.3-0.8-0.8c0-0.4,0.3-0.8,0.8-0.8h1.8c0.4,0,0.8,0.3,0.8,0.8
					C127.8,89.5,127.5,89.8,127.1,89.8z"/>
			</g>
			<g>
				<path fill="#231F20" d="M123.2,89.8h-1c-0.4,0-0.8-0.3-0.8-0.8c0-0.4,0.3-0.8,0.8-0.8h1c0.4,0,0.8,0.3,0.8,0.8
					C123.9,89.5,123.6,89.8,123.2,89.8z"/>
			</g>
			<g>
				<path fill="#231F20" d="M120.1,89.8H108c-0.4,0-0.8-0.3-0.8-0.8c0-0.4,0.3-0.8,0.8-0.8h12.1c0.4,0,0.8,0.3,0.8,0.8
					C120.9,89.5,120.5,89.8,120.1,89.8z"/>
			</g>
		</g>
		<g>
			<path fill="#231F20" d="M61.4,14h-1.5v-1h1.5V14z M61.4,12.1h-1.5v-1h1.5V12.1z M61.4,10.1h-1.5v-1h1.5V10.1z M61.4,8.1h-1.5v-1
				h1.5V8.1z M61.4,6.1h-1.5v-1h1.5V6.1z M61.4,4.1h-1.5v-1H61V1.7h1v1.5h-0.6V4.1z M114,3.2h-1V1.7h1V3.2z M112,3.2h-1V1.7h1V3.2z
				 M110,3.2h-1V1.7h1V3.2z M108,3.2h-1V1.7h1V3.2z M106,3.2h-1V1.7h1V3.2z M104,3.2h-1V1.7h1V3.2z M102,3.2h-1V1.7h1V3.2z M100,3.2
				h-1V1.7h1V3.2z M98,3.2h-1V1.7h1V3.2z M96,3.2h-1V1.7h1V3.2z M94,3.2h-1V1.7h1V3.2z M92,3.2h-1V1.7h1V3.2z M90,3.2h-1V1.7h1V3.2z
				 M88,3.2h-1V1.7h1V3.2z M86,3.2h-1V1.7h1V3.2z M84,3.2h-1V1.7h1V3.2z M82,3.2h-1V1.7h1V3.2z M80,3.2h-1V1.7h1V3.2z M78,3.2h-1
				V1.7h1V3.2z M76,3.2h-1V1.7h1V3.2z M74,3.2h-1V1.7h1V3.2z M72,3.2h-1V1.7h1V3.2z M70,3.2h-1V1.7h1V3.2z M68,3.2h-1V1.7h1V3.2z
				 M66,3.2h-1V1.7h1V3.2z M64,3.2h-1V1.7h1V3.2z"/>
		</g>
		<g>
			<polygon fill="#231F20" points="64.4,35.3 64.3,27.2 59.9,27.2 59.9,14 61.4,14 61.4,25.7 65.8,25.7 65.9,32.5 75.5,25.7 
				127.1,25.7 127.1,3.2 115,3.2 115,1.7 128.6,1.7 128.6,27.2 76,27.2 			"/>
		</g>
		<g>
			<polygon fill="#FFD05B" points="67,24.4 62.6,24.4 62.6,4.4 125.9,4.4 125.9,24.4 75.1,24.4 67.1,30.1 			"/>
		</g>
		<g>
			<g>
				<g>
					<polygon fill="#231F20" points="100.8,18.9 99.7,17.8 103.5,14 99.7,10.3 100.8,9.2 105.6,14 					"/>
				</g>
				<g>
					<polygon fill="#231F20" points="87.7,18.9 82.9,14 87.7,9.2 88.8,10.3 85,14 88.8,17.8 					"/>
				</g>
			</g>
			<g>
				
					<rect x="93.5" y="6.7" transform="matrix(0.9555 0.2949 -0.2949 0.9555 8.3327 -27.17)" fill="#231F20" width="1.5" height="14.7"/>
			</g>
		</g>
	</g>
</g>
</svg>
