<?xml version="1.0" encoding="utf-8"?>
<!-- Generator: Adobe Illustrator 18.0.0, SVG Export Plug-In . SVG Version: 6.00 Build 0)  -->
<!DOCTYPE svg PUBLIC "-//W3C//DTD SVG 1.1//EN" "http://www.w3.org/Graphics/SVG/1.1/DTD/svg11.dtd">
<svg version="1.1" id="Layer_1" xmlns="http://www.w3.org/2000/svg" xmlns:xlink="http://www.w3.org/1999/xlink" x="0px" y="0px"
	 viewBox="0 0 129.5 129.5" enable-background="new 0 0 129.5 129.5" xml:space="preserve">
<g>
	<g>
		<path fill="#231F20" d="M111.1,14.1c-0.2,0-0.4-0.1-0.5-0.2c-0.3-0.3-0.3-0.8,0-1.1l1.2-1.2c0.3-0.3,0.8-0.3,1.1,0
			c0.3,0.3,0.3,0.8,0,1.1l-1.2,1.2C111.5,14,111.3,14.1,111.1,14.1z"/>
		<path fill="#231F20" d="M107.3,17.9c-0.2,0-0.4-0.1-0.5-0.2c-0.3-0.3-0.3-0.8,0-1.1l1.2-1.2c0.3-0.3,0.8-0.3,1.1,0
			c0.3,0.3,0.3,0.8,0,1.1l-1.2,1.2C107.7,17.8,107.5,17.9,107.3,17.9z"/>
		<path fill="#231F20" d="M112.4,17.9c-0.2,0-0.4-0.1-0.5-0.2l-1.2-1.2c-0.3-0.3-0.3-0.8,0-1.1c0.3-0.3,0.8-0.3,1.1,0l1.2,1.2
			c0.3,0.3,0.3,0.8,0,1.1C112.8,17.8,112.6,17.9,112.4,17.9z"/>
		<path fill="#231F20" d="M108.5,14.1c-0.2,0-0.4-0.1-0.5-0.2l-1.2-1.2c-0.3-0.3-0.3-0.8,0-1.1c0.3-0.3,0.8-0.3,1.1,0l1.2,1.2
			c0.3,0.3,0.3,0.8,0,1.1C108.9,14,108.7,14.1,108.5,14.1z"/>
		<path fill="#231F20" d="M22.5,20.2c-0.2,0-0.4-0.1-0.5-0.2c-0.3-0.3-0.3-0.8,0-1.1l1.2-1.2c0.3-0.3,0.8-0.3,1.1,0
			c0.3,0.3,0.3,0.8,0,1.1L23,20C22.9,20.1,22.7,20.2,22.5,20.2z"/>
		<path fill="#231F20" d="M18.6,24.1c-0.2,0-0.4-0.1-0.5-0.2c-0.3-0.3-0.3-0.8,0-1.1l1.2-1.2c0.3-0.3,0.8-0.3,1.1,0
			c0.3,0.3,0.3,0.8,0,1.1l-1.2,1.2C19,24,18.8,24.1,18.6,24.1z"/>
		<path fill="#231F20" d="M23.7,24.1c-0.2,0-0.4-0.1-0.5-0.2l-1.2-1.2c-0.3-0.3-0.3-0.8,0-1.1c0.3-0.3,0.8-0.3,1.1,0l1.2,1.2
			c0.3,0.3,0.3,0.8,0,1.1C24.1,24,23.9,24.1,23.7,24.1z"/>
		<path fill="#231F20" d="M19.8,20.2c-0.2,0-0.4-0.1-0.5-0.2l-1.2-1.2c-0.3-0.3-0.3-0.8,0-1.1c0.3-0.3,0.8-0.3,1.1,0l1.2,1.2
			c0.3,0.3,0.3,0.8,0,1.1C20.2,20.1,20,20.2,19.8,20.2z"/>
		<path fill="#231F20" d="M121.3,91.5c-0.2,0-0.4-0.1-0.5-0.2c-0.3-0.3-0.3-0.8,0-1.1L122,89c0.3-0.3,0.8-0.3,1.1,0
			c0.3,0.3,0.3,0.8,0,1.1l-1.2,1.2C121.7,91.5,121.5,91.5,121.3,91.5z"/>
		<path fill="#231F20" d="M117.5,95.4c-0.2,0-0.4-0.1-0.5-0.2c-0.3-0.3-0.3-0.8,0-1.1l1.2-1.2c0.3-0.3,0.8-0.3,1.1,0
			c0.3,0.3,0.3,0.8,0,1.1l-1.2,1.2C117.8,95.3,117.7,95.4,117.5,95.4z"/>
		<path fill="#231F20" d="M122.5,95.4c-0.2,0-0.4-0.1-0.5-0.2l-1.2-1.2c-0.3-0.3-0.3-0.8,0-1.1c0.3-0.3,0.8-0.3,1.1,0l1.2,1.2
			c0.3,0.3,0.3,0.8,0,1.1C122.9,95.3,122.7,95.4,122.5,95.4z"/>
		<path fill="#231F20" d="M118.7,91.5c-0.2,0-0.4-0.1-0.5-0.2l-1.2-1.2c-0.3-0.3-0.3-0.8,0-1.1c0.3-0.3,0.8-0.3,1.1,0l1.2,1.2
			c0.3,0.3,0.3,0.8,0,1.1C119.1,91.5,118.9,91.5,118.7,91.5z"/>
		<path fill="#231F20" d="M63.9,124c-0.3,0-0.7,0-1,0l0.1-1.5c0.3,0,0.7,0,1,0L63.9,124z M65.9,124l0-1.5c0.3,0,0.7,0,1,0l0.1,1.5
			C66.6,124,66.2,124,65.9,124z M60.8,123.9c-0.3,0-0.7-0.1-1-0.1l0.2-1.5c0.3,0,0.7,0.1,1,0.1L60.8,123.9z M69,123.8l-0.1-1.5
			c0.3,0,0.7-0.1,1-0.1l0.2,1.5C69.6,123.8,69.3,123.8,69,123.8z M57.8,123.5c-0.3-0.1-0.7-0.1-1-0.2l0.3-1.5c0.3,0.1,0.6,0.1,1,0.2
			L57.8,123.5z M72,123.4l-0.2-1.5c0.3-0.1,0.6-0.1,1-0.2l0.3,1.5C72.6,123.3,72.3,123.4,72,123.4z M54.8,122.9
			c-0.3-0.1-0.7-0.2-1-0.2l0.4-1.5c0.3,0.1,0.6,0.2,1,0.2L54.8,122.9z M75,122.8l-0.3-1.5c0.3-0.1,0.6-0.2,1-0.2l0.4,1.5
			C75.6,122.7,75.3,122.8,75,122.8z M51.9,122.1c-0.3-0.1-0.6-0.2-1-0.3l0.5-1.4c0.3,0.1,0.6,0.2,0.9,0.3L51.9,122.1z M77.9,122
			l-0.4-1.4c0.3-0.1,0.6-0.2,0.9-0.3l0.5,1.4C78.6,121.8,78.2,121.9,77.9,122z M49,121.1c-0.3-0.1-0.6-0.2-0.9-0.4l0.6-1.4
			c0.3,0.1,0.6,0.2,0.9,0.4L49,121.1z M80.8,121l-0.5-1.4c0.3-0.1,0.6-0.2,0.9-0.4l0.6,1.4C81.4,120.8,81.1,120.9,80.8,121z
			 M46.1,119.9c-0.3-0.1-0.6-0.3-0.9-0.4l0.7-1.3c0.3,0.1,0.6,0.3,0.9,0.4L46.1,119.9z M83.6,119.8l-0.6-1.4
			c0.3-0.1,0.6-0.3,0.9-0.4l0.7,1.3C84.2,119.5,83.9,119.7,83.6,119.8z M43.4,118.5c-0.3-0.2-0.6-0.3-0.9-0.5l0.8-1.3
			c0.3,0.2,0.6,0.3,0.9,0.5L43.4,118.5z M86.3,118.4l-0.7-1.3c0.3-0.2,0.6-0.3,0.9-0.5l0.8,1.3C86.9,118.1,86.6,118.3,86.3,118.4z
			 M40.8,117c-0.3-0.2-0.6-0.4-0.8-0.6l0.8-1.2c0.3,0.2,0.5,0.4,0.8,0.5L40.8,117z M88.9,116.8l-0.8-1.3c0.3-0.2,0.5-0.4,0.8-0.5
			l0.8,1.2C89.5,116.5,89.2,116.7,88.9,116.8z M38.3,115.2c-0.3-0.2-0.5-0.4-0.8-0.6l0.9-1.2c0.3,0.2,0.5,0.4,0.8,0.6L38.3,115.2z
			 M91.4,115.1l-0.9-1.2c0.3-0.2,0.5-0.4,0.8-0.6l0.9,1.2C91.9,114.7,91.7,114.9,91.4,115.1z M35.9,113.3c-0.3-0.2-0.5-0.4-0.8-0.7
			l1-1.1c0.2,0.2,0.5,0.4,0.7,0.7L35.9,113.3z M93.7,113.2l-1-1.1c0.2-0.2,0.5-0.4,0.7-0.7l1,1.1C94.3,112.7,94,112.9,93.7,113.2z
			 M33.7,111.2c-0.2-0.2-0.5-0.5-0.7-0.7l1.1-1c0.2,0.2,0.5,0.5,0.7,0.7L33.7,111.2z M96,111.1l-1.1-1.1c0.2-0.2,0.5-0.5,0.7-0.7
			l1.1,1C96.4,110.6,96.2,110.8,96,111.1z M31.6,109c-0.2-0.3-0.4-0.5-0.7-0.8l1.2-1c0.2,0.3,0.4,0.5,0.6,0.7L31.6,109z M98.1,108.8
			l-1.1-1c0.2-0.2,0.4-0.5,0.6-0.7l1.2,1C98.5,108.3,98.3,108.6,98.1,108.8z M29.7,106.7c-0.2-0.3-0.4-0.5-0.6-0.8l1.2-0.9
			c0.2,0.3,0.4,0.5,0.6,0.8L29.7,106.7z M100,106.5l-1.2-0.9c0.2-0.3,0.4-0.5,0.6-0.8l1.2,0.9C100.4,105.9,100.2,106.2,100,106.5z
			 M27.9,104.2c-0.2-0.3-0.4-0.6-0.5-0.9l1.3-0.8c0.2,0.3,0.4,0.6,0.5,0.8L27.9,104.2z M101.7,104l-1.3-0.8c0.2-0.3,0.4-0.6,0.5-0.8
			l1.3,0.8C102.1,103.4,101.9,103.7,101.7,104z M26.3,101.6c-0.2-0.3-0.3-0.6-0.5-0.9l1.3-0.7c0.2,0.3,0.3,0.6,0.5,0.9L26.3,101.6z
			 M103.3,101.4l-1.3-0.7c0.2-0.3,0.3-0.6,0.5-0.9l1.3,0.7C103.6,100.8,103.5,101.1,103.3,101.4z M24.9,98.9
			c-0.1-0.3-0.3-0.6-0.4-0.9l1.4-0.6c0.1,0.3,0.3,0.6,0.4,0.9L24.9,98.9z M104.7,98.6l-1.4-0.6c0.1-0.3,0.3-0.6,0.4-0.9l1.4,0.6
			C105,98,104.8,98.3,104.7,98.6z M23.7,96.1c-0.1-0.3-0.2-0.6-0.4-1l1.4-0.5c0.1,0.3,0.2,0.6,0.3,0.9L23.7,96.1z M105.9,95.8
			l-1.4-0.5c0.1-0.3,0.2-0.6,0.3-0.9l1.4,0.5C106.1,95.2,106,95.5,105.9,95.8z M22.7,93.2c-0.1-0.3-0.2-0.6-0.3-1l1.4-0.4
			c0.1,0.3,0.2,0.6,0.3,0.9L22.7,93.2z M106.9,92.9l-1.4-0.4c0.1-0.3,0.2-0.6,0.3-0.9l1.4,0.4C107.1,92.3,107,92.6,106.9,92.9z
			 M21.9,90.3c-0.1-0.3-0.2-0.7-0.2-1l1.5-0.3c0.1,0.3,0.1,0.6,0.2,1L21.9,90.3z M107.7,90l-1.5-0.3c0.1-0.3,0.1-0.6,0.2-1l1.5,0.3
			C107.9,89.3,107.8,89.7,107.7,90z M21.2,87.3c-0.1-0.3-0.1-0.7-0.2-1l1.5-0.2c0,0.3,0.1,0.6,0.2,1L21.2,87.3z M108.3,87l-1.5-0.2
			c0.1-0.3,0.1-0.6,0.1-1l1.5,0.2C108.4,86.3,108.3,86.7,108.3,87z M20.8,84.3c0-0.3-0.1-0.7-0.1-1l1.5-0.1c0,0.3,0.1,0.7,0.1,1
			L20.8,84.3z M108.7,84l-1.5-0.1c0-0.3,0.1-0.7,0.1-1l1.5,0.1C108.7,83.3,108.7,83.6,108.7,84z M20.7,81.2c0-0.3,0-0.7,0-1l1.5,0
			c0,0.3,0,0.7,0,1L20.7,81.2z M108.9,80.9l-1.5,0c0-0.3,0-0.7,0-1h1.5C108.9,80.3,108.9,80.6,108.9,80.9z M107.3,78.4
			c0-0.3,0-0.7,0-1l1.5-0.1c0,0.3,0,0.7,0,1L107.3,78.4z M22.2,78.2l-1.5-0.1c0-0.3,0-0.7,0.1-1l1.5,0.1
			C22.2,77.6,22.2,77.9,22.2,78.2z M107.1,75.5c0-0.3-0.1-0.7-0.1-1l1.5-0.2c0,0.3,0.1,0.7,0.1,1L107.1,75.5z M22.4,75.3l-1.5-0.2
			c0-0.3,0.1-0.7,0.1-1l1.5,0.2C22.5,74.6,22.4,75,22.4,75.3z M106.7,72.5c-0.1-0.3-0.1-0.6-0.2-1l1.5-0.3c0.1,0.3,0.1,0.7,0.2,1
			L106.7,72.5z M22.8,72.4l-1.5-0.3c0.1-0.3,0.1-0.7,0.2-1l1.5,0.3C22.9,71.7,22.9,72,22.8,72.4z M106.1,69.6
			c-0.1-0.3-0.2-0.6-0.2-1l1.4-0.4c0.1,0.3,0.2,0.7,0.3,1L106.1,69.6z M23.4,69.5L22,69.1c0.1-0.3,0.2-0.7,0.3-1l1.4,0.4
			C23.6,68.8,23.5,69.2,23.4,69.5z M105.3,66.8c-0.1-0.3-0.2-0.6-0.3-0.9l1.4-0.5c0.1,0.3,0.2,0.6,0.3,1L105.3,66.8z M24.2,66.7
			l-1.4-0.5c0.1-0.3,0.2-0.6,0.3-1l1.4,0.5C24.4,66,24.3,66.3,24.2,66.7z M104.3,64c-0.1-0.3-0.2-0.6-0.4-0.9l1.4-0.6
			c0.1,0.3,0.3,0.6,0.4,0.9L104.3,64z M25.3,63.9l-1.4-0.6c0.1-0.3,0.3-0.6,0.4-0.9l1.4,0.6C25.5,63.3,25.4,63.6,25.3,63.9z
			 M103.1,61.4c-0.1-0.3-0.3-0.6-0.4-0.9l1.3-0.7c0.2,0.3,0.3,0.6,0.5,0.9L103.1,61.4z M26.5,61.2l-1.3-0.7c0.1-0.3,0.3-0.6,0.5-0.9
			l1.3,0.7C26.8,60.6,26.6,60.9,26.5,61.2z M101.7,58.8c-0.2-0.3-0.3-0.6-0.5-0.8l1.3-0.8c0.2,0.3,0.3,0.6,0.5,0.9L101.7,58.8z
			 M27.9,58.6l-1.3-0.8c0.2-0.3,0.3-0.6,0.5-0.9l1.3,0.8C28.2,58,28,58.3,27.9,58.6z M100.2,56.3c-0.2-0.3-0.4-0.5-0.6-0.8l1.2-0.9
			c0.2,0.3,0.4,0.6,0.6,0.8L100.2,56.3z M29.4,56.1l-1.2-0.8c0.2-0.3,0.4-0.6,0.6-0.8l1.2,0.9C29.8,55.5,29.6,55.8,29.4,56.1z
			 M98.5,53.9c-0.2-0.3-0.4-0.5-0.6-0.8l1.2-0.9c0.2,0.3,0.4,0.5,0.6,0.8L98.5,53.9z M31.2,53.7L30,52.8c0.2-0.3,0.4-0.5,0.6-0.8
			l1.2,1C31.6,53.2,31.4,53.4,31.2,53.7z M96.6,51.6c-0.2-0.2-0.4-0.5-0.7-0.7l1.1-1c0.2,0.2,0.5,0.5,0.7,0.8L96.6,51.6z M33.1,51.4
			l-1.1-1c0.2-0.3,0.5-0.5,0.7-0.8l1.1,1C33.5,51,33.3,51.2,33.1,51.4z M94.6,49.5c-0.2-0.2-0.5-0.5-0.7-0.7l1-1.1
			c0.2,0.2,0.5,0.5,0.7,0.7L94.6,49.5z M35.1,49.3l-1-1.1c0.2-0.2,0.5-0.5,0.7-0.7l1,1.1C35.6,48.9,35.3,49.1,35.1,49.3z M92.4,47.5
			c-0.3-0.2-0.5-0.4-0.8-0.6l0.9-1.2c0.3,0.2,0.5,0.4,0.8,0.7L92.4,47.5z M37.3,47.3l-1-1.1c0.3-0.2,0.5-0.4,0.8-0.6l0.9,1.2
			C37.8,46.9,37.5,47.1,37.3,47.3z M90.1,45.6c-0.3-0.2-0.5-0.4-0.8-0.6l0.9-1.2c0.3,0.2,0.6,0.4,0.8,0.6L90.1,45.6z M39.6,45.5
			l-0.9-1.2c0.3-0.2,0.5-0.4,0.8-0.6l0.9,1.2C40.1,45.1,39.9,45.3,39.6,45.5z M87.6,44c-0.3-0.2-0.6-0.3-0.8-0.5l0.8-1.3
			c0.3,0.2,0.6,0.4,0.9,0.5L87.6,44z M42,43.9l-0.8-1.3c0.3-0.2,0.6-0.4,0.9-0.5l0.8,1.3C42.6,43.5,42.3,43.7,42,43.9z M85.1,42.5
			c-0.3-0.2-0.6-0.3-0.9-0.5l0.7-1.3c0.3,0.2,0.6,0.3,0.9,0.5L85.1,42.5z M44.6,42.4l-0.7-1.3c0.3-0.2,0.6-0.3,0.9-0.5l0.7,1.3
			C45.1,42.1,44.9,42.2,44.6,42.4z M82.5,41.1c-0.3-0.1-0.6-0.3-0.9-0.4l0.6-1.4c0.3,0.1,0.6,0.3,0.9,0.4L82.5,41.1z M47.2,41.1
			l-0.6-1.4c0.3-0.1,0.6-0.3,0.9-0.4l0.6,1.4C47.8,40.8,47.5,40.9,47.2,41.1z M79.7,40c-0.3-0.1-0.6-0.2-0.9-0.3l0.5-1.4
			c0.3,0.1,0.6,0.2,1,0.3L79.7,40z M49.9,40l-0.5-1.4c0.3-0.1,0.6-0.2,1-0.3l0.5,1.4C50.5,39.7,50.2,39.8,49.9,40z M76.9,39.1
			c-0.3-0.1-0.6-0.2-0.9-0.3l0.4-1.4c0.3,0.1,0.7,0.2,1,0.3L76.9,39.1z M52.7,39l-0.4-1.4c0.3-0.1,0.7-0.2,1-0.3l0.4,1.4
			C53.3,38.8,53,38.9,52.7,39z M74.1,38.3c-0.3-0.1-0.6-0.1-1-0.2l0.3-1.5c0.3,0.1,0.7,0.1,1,0.2L74.1,38.3z M55.6,38.3l-0.3-1.5
			c0.3-0.1,0.7-0.1,1-0.2l0.3,1.5C56.2,38.2,55.9,38.2,55.6,38.3z M71.2,37.8c-0.3,0-0.6-0.1-1-0.1l0.2-1.5c0.3,0,0.7,0.1,1,0.1
			L71.2,37.8z M58.5,37.8l-0.2-1.5c0.3,0,0.7-0.1,1-0.1l0.2,1.5C59.1,37.7,58.8,37.7,58.5,37.8z M68.3,37.4c-0.3,0-0.7,0-1-0.1
			l0.1-1.5c0.3,0,0.7,0,1,0.1L68.3,37.4z M61.4,37.4l-0.1-1.5c0.3,0,0.7,0,1-0.1l0.1,1.5C62.1,37.4,61.7,37.4,61.4,37.4z M65.3,37.3
			l-0.6,0l-0.4,0l0-1.5l0.4,0l0.6,0L65.3,37.3z"/>
		<path fill="#231F20" d="M63.5,129.5c-2.4-0.1-4.7-0.3-7.1-0.7l0.3-1.5c2.3,0.4,4.6,0.6,6.9,0.7L63.5,129.5z M69.6,129.3l-0.1-1.5
			c2.3-0.2,4.6-0.6,6.8-1.1l0.4,1.5C74.3,128.7,71.9,129,69.6,129.3z M50.5,127.4c-2.3-0.7-4.5-1.5-6.6-2.5l0.6-1.4
			c2.1,1,4.2,1.8,6.4,2.4L50.5,127.4z M82.4,126.3l-0.5-1.4c2.1-0.8,4.2-1.8,6.2-2.9l0.7,1.3C86.7,124.4,84.6,125.4,82.4,126.3z
			 M38.5,122c-2-1.2-3.9-2.7-5.7-4.2l1-1.1c1.8,1.5,3.6,2.8,5.6,4.1L38.5,122z M93.9,120l-0.9-1.2c1.8-1.3,3.6-2.8,5.3-4.4l1,1.1
			C97.7,117.1,95.8,118.6,93.9,120z M28.4,113.6c-1.6-1.7-3.1-3.6-4.4-5.5l1.2-0.9c1.3,1.9,2.7,3.7,4.3,5.4L28.4,113.6z
			 M103.5,110.9l-1.2-0.9c1.4-1.8,2.8-3.7,3.9-5.7l1.3,0.8C106.3,107.1,104.9,109.1,103.5,110.9z M20.8,102.9
			c-1.1-2.1-2-4.3-2.8-6.5l1.4-0.5c0.8,2.2,1.7,4.3,2.7,6.3L20.8,102.9z M110.3,99.7l-1.4-0.6c0.9-2.1,1.7-4.3,2.3-6.5l1.4,0.4
			C112,95.2,111.2,97.5,110.3,99.7z M16.3,90.5c-0.5-2.3-0.8-4.7-1-7l1.5-0.1c0.2,2.3,0.5,4.6,1,6.8L16.3,90.5z M113.8,87l-1.5-0.2
			c0.3-2.3,0.5-4.6,0.5-6.9h1.5C114.3,82.3,114.2,84.7,113.8,87z M112.8,78.9c0-2.3-0.3-4.6-0.6-6.9l1.5-0.2
			c0.4,2.3,0.6,4.7,0.6,7.1L112.8,78.9z M16.7,77.5l-1.5-0.1c0.1-2.4,0.4-4.7,0.9-7l1.5,0.3C17.1,72.9,16.8,75.2,16.7,77.5z
			 M110.9,66.3c-0.6-2.2-1.5-4.4-2.4-6.4l1.4-0.6c1,2.1,1.8,4.4,2.5,6.6L110.9,66.3z M19,64.9l-1.4-0.5c0.7-2.2,1.6-4.5,2.7-6.6
			l1.3,0.7C20.6,60.6,19.8,62.7,19,64.9z M105.7,54.7c-1.2-1.9-2.6-3.8-4-5.6l1.2-1c1.5,1.8,2.9,3.7,4.2,5.8L105.7,54.7z M24.6,53.4
			l-1.3-0.8c1.3-2,2.8-3.9,4.3-5.6l1.1,1C27.3,49.7,25.9,51.5,24.6,53.4z M97.6,44.8c-1.7-1.6-3.5-3-5.3-4.3l0.9-1.2
			c1.9,1.4,3.8,2.9,5.5,4.5L97.6,44.8z M33,43.8l-1-1.1c1.8-1.6,3.7-3,5.6-4.3l0.8,1.3C36.6,40.9,34.7,42.3,33,43.8z M87.2,37.4
			c-2-1.1-4.1-2-6.3-2.8l0.5-1.4c2.2,0.8,4.4,1.8,6.5,2.9L87.2,37.4z M43.6,36.7l-0.7-1.3c2.1-1,4.3-1.9,6.6-2.7l0.5,1.4
			C47.8,34.8,45.7,35.7,43.6,36.7z M75.2,33c-2.2-0.5-4.5-0.8-6.8-1l0.1-1.5c2.4,0.2,4.7,0.5,7,1L75.2,33z M55.7,32.7l-0.3-1.5
			c2.3-0.4,4.7-0.7,7.1-0.8l0.1,1.5C60.2,32,57.9,32.2,55.7,32.7z"/>
		<path fill="#FFFFFF" d="M112.6,81.2c0,7.4-5,16.4-11.1,16.4c-6.1,0-11.1-9-11.1-16.4c0-7.4,5-10.3,11.1-10.3
			C107.6,70.9,112.6,73.8,112.6,81.2z"/>
		<path fill="#FFFFFF" d="M124,111.4c-4.9,7.2-13.2,11.9-22.5,11.9s-17.6-4.7-22.5-11.9c1.5-5,6.1-8.7,11.7-8.7h0.3
			c3.6,0,6.5-2.9,6.5-6.5c1.3,0.9,2.6,1.4,4.1,1.4c1.5,0,2.8-0.5,4.1-1.4c0,1.8,0.7,3.4,1.9,4.6c1.2,1.2,2.8,1.9,4.6,1.9h0.3
			C117.9,102.7,122.6,106.3,124,111.4z"/>
		<line fill="#FFFFFF" x1="115.2" y1="119.6" x2="115.2" y2="114.6"/>
		<line fill="#FFFFFF" x1="87.8" y1="119.6" x2="87.8" y2="114.6"/>
		<path fill="#E6E9EE" d="M101.5,70.9c-6.1,0-11.1,2.9-11.1,10.3c0,0.5,0,1,0.1,1.6c6.8-0.8,8.1-8.3,8.1-8.3s1.7,6.2,13.7,10.1
			c0.2-1.1,0.3-2.3,0.3-3.3C112.6,73.8,107.6,70.9,101.5,70.9z"/>
		<polygon fill="#FF7058" points="105.3,116.3 101.5,120.3 97.7,116.3 97.7,116.3 100,106.7 99.3,104.4 103.7,104.4 103,106.7 		"/>
		<path fill="#FFFFFF" d="M38.8,81.2c0,7.4-5,16.4-11.1,16.4c-6.1,0-11.1-9-11.1-16.4c0-7.4,5-10.3,11.1-10.3
			C33.8,70.9,38.8,73.8,38.8,81.2z"/>
		<path fill="#FFFFFF" d="M50.3,111.4c-4.9,7.2-13.2,11.9-22.5,11.9c-9.4,0-17.6-4.7-22.5-11.9c1.5-5,6.1-8.7,11.7-8.7h0.3
			c3.6,0,6.5-2.9,6.5-6.5c1.3,0.9,2.6,1.4,4.1,1.4c1.5,0,2.8-0.5,4.1-1.4c0,1.8,0.7,3.4,1.9,4.6c1.2,1.2,2.8,1.9,4.6,1.9h0.3
			C44.1,102.7,48.8,106.3,50.3,111.4z"/>
		<path fill="#E6E9EE" d="M27.7,70.9c-6.1,0-11.1,2.9-11.1,10.3c0,0.5,0,1,0.1,1.6c6.8-0.8,8.1-8.3,8.1-8.3s1.7,6.2,13.7,10.1
			c0.2-1.1,0.3-2.3,0.3-3.3C38.8,73.8,33.8,70.9,27.7,70.9z"/>
		<polygon fill="#FFD05B" points="31.6,116.3 27.7,120.3 23.9,116.3 23.9,116.3 26.2,106.7 25.5,104.4 29.9,104.4 29.2,106.7 		"/>
		<line fill="#FFFFFF" x1="115.2" y1="113.1" x2="115.2" y2="111.6"/>
		<line fill="#FFFFFF" x1="87.8" y1="113.1" x2="87.8" y2="111.6"/>
		<g>
			<path fill="#231F20" d="M124.8,111.2c-1.6-5.4-6.7-9.3-12.4-9.3h-0.3c-1.5,0-3-0.6-4-1.7c-1-1-1.6-2.3-1.6-3.7
				c4.1-3.1,6.9-9.6,6.9-15.3c0-7-4.3-11-11.8-11c-7.5,0-11.8,4-11.8,11c0,5.7,2.8,12.3,6.9,15.3c-0.2,3-2.7,5.4-5.7,5.4h-0.3
				c-5.7,0-10.8,3.8-12.4,9.3c-0.1,0.2,0,0.4,0.1,0.6c5.2,7.7,13.9,12.2,23.2,12.2c9.3,0,17.9-4.6,23.2-12.2
				C124.8,111.6,124.8,111.4,124.8,111.2z M101.5,71.7c3.9,0,10.3,1.2,10.3,9.5c0,0.8-0.1,1.6-0.2,2.3c-10.6-3.7-12.3-9.2-12.4-9.3
				c-0.1-0.3-0.4-0.6-0.7-0.6c0,0,0,0,0,0c-0.4,0-0.6,0.3-0.7,0.6c0,0.3-1.1,6.4-6.6,7.5c0-0.2,0-0.5,0-0.7
				C91.2,72.9,97.6,71.7,101.5,71.7z M91.3,83.4c4.5-0.8,6.6-4.5,7.4-6.9c1.4,2.2,4.8,5.8,12.6,8.5c-1.3,6-5.3,11.8-9.9,11.8
				C96.5,96.8,92.2,89.9,91.3,83.4z M115.9,118.3v-3.6h-1.5v4.6c-3.9,2.2-8.3,3.4-12.9,3.4c-4.6,0-9-1.2-12.9-3.4v-4.6h-1.5v3.7
				c-2.8-1.8-5.3-4.2-7.3-7c1.5-4.6,5.9-7.8,10.8-7.8h0.3c3.6,0,6.5-2.6,7.1-6l0,0c1.1,0.6,2.3,0.9,3.5,0.9c1.2,0,2.4-0.3,3.5-0.9
				l0,0c0.3,1.5,0.9,2.8,2,3.9c1.4,1.4,3.2,2.1,5.1,2.1h0.3c4.9,0,9.3,3.2,10.8,7.8C121.2,114.1,118.7,116.4,115.9,118.3z"/>
			<rect x="114.4" y="111.6" fill="#231F20" width="1.5" height="1.4"/>
			<rect x="87.1" y="111.6" fill="#231F20" width="1.5" height="1.4"/>
		</g>
		<g>
			<path fill="#231F20" d="M51,111.2c-1.6-5.4-6.7-9.3-12.4-9.3h-0.3c-1.5,0-3-0.6-4-1.7c-1-1-1.6-2.3-1.6-3.7
				c4.1-3.1,6.9-9.6,6.9-15.3c0-7-4.3-11-11.8-11c-7.5,0-11.8,4-11.8,11c0,5.7,2.8,12.3,6.9,15.3c-0.2,3-2.7,5.4-5.7,5.4h-0.3
				c-5.7,0-10.8,3.8-12.4,9.3c-0.1,0.2,0,0.4,0.1,0.6c5.2,7.7,13.9,12.2,23.2,12.2c9.3,0,17.9-4.6,23.2-12.2
				C51,111.6,51,111.4,51,111.2z M27.7,71.7c3.9,0,10.3,1.2,10.3,9.5c0,0.8-0.1,1.6-0.2,2.3c-10.6-3.7-12.3-9.2-12.4-9.3
				c-0.1-0.3-0.4-0.6-0.7-0.6c0,0,0,0,0,0c-0.4,0-0.6,0.3-0.7,0.6c0,0.3-1.1,6.4-6.6,7.5c0-0.2,0-0.5,0-0.7
				C17.4,72.9,23.9,71.7,27.7,71.7z M17.6,83.4c4.5-0.8,6.6-4.5,7.4-6.9c1.4,2.2,4.8,5.8,12.6,8.5c-1.3,6-5.3,11.8-9.9,11.8
				C22.7,96.8,18.4,89.9,17.6,83.4z M42.1,118.3v-3.6h-1.5v4.6c-3.9,2.2-8.3,3.4-12.9,3.4c-4.6,0-9-1.2-12.9-3.4v-4.6h-1.5v3.7
				c-2.8-1.8-5.3-4.2-7.3-7c1.5-4.6,5.9-7.8,10.8-7.8h0.3c3.6,0,6.5-2.6,7.1-6l0,0c1.1,0.6,2.3,0.9,3.5,0.9c1.2,0,2.4-0.3,3.5-0.9
				l0,0c0.3,1.5,0.9,2.8,2,3.9c1.4,1.4,3.2,2.1,5.1,2.1h0.3c4.9,0,9.3,3.2,10.8,7.8C47.5,114.1,45,116.4,42.1,118.3z"/>
			<rect x="40.6" y="111.6" fill="#231F20" width="1.5" height="1.4"/>
			<rect x="13.3" y="111.6" fill="#231F20" width="1.5" height="1.4"/>
		</g>
		<line fill="#FFFFFF" x1="41.4" y1="113.1" x2="41.4" y2="111.6"/>
		<path fill="#FFFFFF" d="M75.8,11c0,7.4-5,16.4-11.1,16.4c-6.1,0-11.1-9-11.1-16.4s5-10.3,11.1-10.3C70.9,0.8,75.8,3.7,75.8,11z"/>
		<path fill="#FFFFFF" d="M87.3,41.2c-4.9,7.2-13.2,11.9-22.5,11.9c-9.4,0-17.6-4.7-22.5-11.9c1.5-5,6.1-8.7,11.7-8.7h0.3
			c3.6,0,6.5-2.9,6.5-6.5c1.3,0.9,2.6,1.4,4.1,1.4c1.5,0,2.8-0.5,4.1-1.4c0,1.8,0.7,3.4,1.9,4.6c1.2,1.2,2.8,1.9,4.6,1.9h0.3
			C81.2,32.5,85.8,36.2,87.3,41.2z"/>
		<path fill="#E6E9EE" d="M64.8,0.8c-6.1,0-11.1,2.9-11.1,10.3c0,0.5,0,1,0.1,1.6c6.8-0.8,8.1-8.3,8.1-8.3s1.7,6.2,13.7,10.1
			c0.2-1.1,0.3-2.3,0.3-3.3C75.8,3.7,70.9,0.8,64.8,0.8z"/>
		<g>
			<polygon fill="#84DBFF" points="68.6,46.1 64.8,50.1 60.9,46.1 60.9,46.1 63.2,36.6 62.6,34.3 66.9,34.3 66.3,36.6 			"/>
		</g>
		<polygon fill="#231F20" points="65.5,80.5 65.5,65.2 64,65.2 64,80.5 51.8,91.8 52.8,92.9 64.7,81.9 76.7,92.9 77.7,91.8 		"/>
		<g>
			<path fill="#231F20" d="M18.2,45.2h-7.7c-0.4,0-0.8-0.3-0.8-0.8c0-0.4,0.3-0.8,0.8-0.8h7.7c0.4,0,0.8,0.3,0.8,0.8
				C19,44.9,18.7,45.2,18.2,45.2z"/>
		</g>
		<g>
			<path fill="#231F20" d="M21.3,48h-3.8c-0.4,0-0.8-0.3-0.8-0.8c0-0.4,0.3-0.8,0.8-0.8h3.8c0.4,0,0.8,0.3,0.8,0.8
				C22,47.7,21.7,48,21.3,48z"/>
		</g>
		<g>
			<path fill="#231F20" d="M88,41c-1.6-5.4-6.7-9.3-12.4-9.3h-0.3c-1.5,0-3-0.6-4-1.7c-1-1-1.6-2.3-1.6-3.7
				c4.1-3.1,6.9-9.6,6.9-15.3c0-7-4.3-11-11.8-11c-7.5,0-11.8,4-11.8,11c0,5.7,2.8,12.3,6.9,15.3c-0.2,3-2.7,5.4-5.7,5.4h-0.3
				c-5.7,0-10.8,3.8-12.4,9.3c-0.1,0.2,0,0.4,0.1,0.6c5.2,7.7,13.9,12.2,23.2,12.2c9.3,0,17.9-4.6,23.2-12.2
				C88,41.5,88.1,41.2,88,41z M64.8,1.5c3.9,0,10.3,1.2,10.3,9.5c0,0.8-0.1,1.6-0.2,2.3C64.3,9.7,62.5,4.1,62.5,4.1
				c-0.1-0.3-0.4-0.6-0.7-0.6c0,0,0,0,0,0c-0.4,0-0.6,0.3-0.7,0.6c0,0.3-1.1,6.4-6.6,7.5c0-0.2,0-0.5,0-0.7
				C54.4,2.7,60.9,1.5,64.8,1.5z M54.6,13.2c4.5-0.8,6.6-4.5,7.4-6.9c1.4,2.2,4.8,5.8,12.6,8.5c-1.3,6-5.3,11.8-9.9,11.8
				C59.8,26.7,55.4,19.7,54.6,13.2z M79.2,48.1v-3.6h-1.5V49c-3.9,2.2-8.3,3.4-12.9,3.4c-4.6,0-9-1.2-12.9-3.4v-4.6h-1.5v3.7
				c-2.8-1.8-5.3-4.2-7.3-7c1.5-4.6,5.9-7.8,10.8-7.8h0.3c3.6,0,6.5-2.6,7.1-6l0,0c1.1,0.6,2.3,0.9,3.5,0.9c1.2,0,2.4-0.3,3.5-0.9
				l0,0c0.3,1.5,0.9,2.8,2,3.9c1.4,1.4,3.2,2.1,5.1,2.1h0.3c4.9,0,9.3,3.2,10.8,7.8C84.5,43.9,82,46.3,79.2,48.1z"/>
			<rect x="77.7" y="41.5" fill="#231F20" width="1.5" height="1.4"/>
			<rect x="50.3" y="41.5" fill="#231F20" width="1.5" height="1.4"/>
		</g>
		<g>
			<path fill="#231F20" d="M25.4,45.2h-3.6c-0.4,0-0.8-0.3-0.8-0.8c0-0.4,0.3-0.8,0.8-0.8h3.6c0.4,0,0.8,0.3,0.8,0.8
				C26.1,44.9,25.8,45.2,25.4,45.2z"/>
		</g>
		<g>
			<path fill="#231F20" d="M14.7,48H14c-0.4,0-0.8-0.3-0.8-0.8c0-0.4,0.3-0.8,0.8-0.8h0.7c0.4,0,0.8,0.3,0.8,0.8
				C15.5,47.7,15.2,48,14.7,48z"/>
		</g>
		<g>
			<path fill="#231F20" d="M112.9,33.6h-7.7c-0.4,0-0.8-0.3-0.8-0.8c0-0.4,0.3-0.8,0.8-0.8h7.7c0.4,0,0.8,0.3,0.8,0.8
				C113.6,33.3,113.3,33.6,112.9,33.6z"/>
		</g>
		<g>
			<path fill="#231F20" d="M115.9,36.4h-3.8c-0.4,0-0.8-0.3-0.8-0.8c0-0.4,0.3-0.8,0.8-0.8h3.8c0.4,0,0.8,0.3,0.8,0.8
				C116.7,36.1,116.3,36.4,115.9,36.4z"/>
		</g>
		<g>
			<path fill="#231F20" d="M120,33.6h-3.6c-0.4,0-0.8-0.3-0.8-0.8c0-0.4,0.3-0.8,0.8-0.8h3.6c0.4,0,0.8,0.3,0.8,0.8
				C120.7,33.3,120.4,33.6,120,33.6z"/>
		</g>
		<g>
			<path fill="#231F20" d="M109.4,36.4h-0.7c-0.4,0-0.8-0.3-0.8-0.8c0-0.4,0.3-0.8,0.8-0.8h0.7c0.4,0,0.8,0.3,0.8,0.8
				C110.1,36.1,109.8,36.4,109.4,36.4z"/>
		</g>
		<circle fill="#84DBFF" cx="33.7" cy="5" r="4.2"/>
		<circle fill="#FFD05B" cx="90.4" cy="22.1" r="3"/>
		<circle fill="#84DBFF" cx="123" cy="59" r="3"/>
		<circle fill="#FF7058" cx="6.5" cy="92.1" r="3"/>
	</g>
</g>
</svg>
