<?xml version="1.0" encoding="utf-8"?>
<!-- Generator: Adobe Illustrator 18.0.0, SVG Export Plug-In . SVG Version: 6.00 Build 0)  -->
<!DOCTYPE svg PUBLIC "-//W3C//DTD SVG 1.1//EN" "http://www.w3.org/Graphics/SVG/1.1/DTD/svg11.dtd">
<svg version="1.1" id="Layer_1" xmlns="http://www.w3.org/2000/svg" xmlns:xlink="http://www.w3.org/1999/xlink" x="0px" y="0px"
	 viewBox="0 0 129.5 129.5" enable-background="new 0 0 129.5 129.5" xml:space="preserve">
<g>
	<g>
		<path fill="#E6E9EE" d="M97.8,128.8h-66c-3.7,0-6.6-3-6.6-6.6V7.4c0-3.7,3-6.6,6.6-6.6h66c3.7,0,6.6,3,6.6,6.6v114.7
			C104.4,125.8,101.4,128.8,97.8,128.8z"/>
		<rect x="25.1" y="16.7" fill="#FFFFFF" width="79.3" height="96.2"/>
		<g>
			<circle fill="#FFFFFF" cx="35.9" cy="8.6" r="3.1"/>
			<path fill="#231F20" d="M35.9,12.5c-2.1,0-3.9-1.7-3.9-3.9c0-2.1,1.7-3.9,3.9-3.9c2.1,0,3.9,1.7,3.9,3.9
				C39.7,10.8,38,12.5,35.9,12.5z M35.9,6.3c-1.3,0-2.4,1.1-2.4,2.4c0,1.3,1.1,2.4,2.4,2.4c1.3,0,2.4-1.1,2.4-2.4
				C38.2,7.3,37.2,6.3,35.9,6.3z"/>
		</g>
		<g>
			<path fill="#231F20" d="M60.5,9.8H59c-0.4,0-0.8-0.3-0.8-0.8c0-0.4,0.3-0.8,0.8-0.8h1.5c0.4,0,0.8,0.3,0.8,0.8
				C61.3,9.5,60.9,9.8,60.5,9.8z"/>
		</g>
		<g>
			<path fill="#231F20" d="M75.1,9.8H64c-0.4,0-0.8-0.3-0.8-0.8c0-0.4,0.3-0.8,0.8-0.8h11.1c0.4,0,0.8,0.3,0.8,0.8
				C75.9,9.5,75.6,9.8,75.1,9.8z"/>
		</g>
		<g>
			<path fill="#231F20" d="M55.8,9.8h-1.5c-0.4,0-0.8-0.3-0.8-0.8c0-0.4,0.3-0.8,0.8-0.8h1.5c0.4,0,0.8,0.3,0.8,0.8
				C56.6,9.5,56.2,9.8,55.8,9.8z"/>
		</g>
		<g>
			<path fill="#FFFFFF" d="M71.4,124H58.1c-2.5,0-4.5-2-4.5-4.5l0,0c0-1.1,0.9-2,2-2h18.1c1.1,0,2,0.9,2,2l0,0
				C75.8,122,73.8,124,71.4,124z"/>
			<path fill="#231F20" d="M71.4,124.8H58.1c-2.9,0-5.2-2.3-5.2-5.2c0-1.5,1.2-2.8,2.8-2.8h18.1c1.5,0,2.8,1.2,2.8,2.8
				C76.6,122.5,74.3,124.8,71.4,124.8z M55.7,118.3c-0.7,0-1.3,0.6-1.3,1.3c0,2,1.7,3.7,3.7,3.7h13.3c2,0,3.7-1.7,3.7-3.7
				c0-0.7-0.6-1.3-1.3-1.3H55.7z"/>
		</g>
		<g>
			<g>
				<circle fill="#84DBFF" cx="64.8" cy="64.8" r="23.1"/>
			</g>
			<g>
				<path fill="#54C0EB" d="M87.8,64.8c0-12.7-10.3-23.1-23.1-23.1c-0.9,0-1.9,0.1-2.8,0.2c3.8,0.3,7.6,0.9,10.8,2.8
					c1.7,1,3.3,2.6,3.4,4.6c-0.6-0.3-1.2-0.7-1.7-1.2c-1.1,0.8-1.4,2.3-1.3,3.7c0.1,0.6,0.2,1.1,0.6,1.5c0.4,0.4,1.1,0.5,1.5,0.2
					c-0.1-1.1-0.1-2.2-0.2-3.3c0.2,0.7,0.8,1.3,1.5,1.6c0-0.3,0-0.6-0.1-0.9c0.2,1.1,0,2.3-0.6,3.3c-0.5,0.8-1.2,1.4-1.6,2.1
					c-0.5,0.8-0.7,1.8-0.2,2.5c-2.4,0-2.6,0.8-2.4,1.7c0.3,1.2,1.9,1.5,2.7,0.5c0.1-0.1,0.2-0.3,0.3-0.4c0.5-0.8,1-1.8,1.9-2.1
					c1-0.4,2.1,0.2,3.1,0.6c1,0.4,2.3,0.6,3-0.2c0.4,0.7,0.6,1.5,0.4,2.2c-1.4,0.6-3,0.8-4.5,0.5c-0.6-0.1-1.2-0.3-1.8-0.2
					c-1,0.2-1.6,1.4-2.6,1.7c-0.7,0.3-1.5,0.1-2.1,0.6c-0.3,0.3-0.5,0.6-0.6,1c-0.7,1.8-1.5,3.6-2.2,5.3c-0.1,0.2-0.1,0.3-0.1,0.5
					c0.1,0.7,0.9,0.5,1.4,0.8c0.5,0.3,0.6,0.8,1,1.2c0.5,0.5,1.4,0.5,2.1,0.5c1.1,0,2.2,0,3.3-0.1c0.4,0,0.9,0,1.2,0.2
					c0.4,0.3,0.6,0.8,0.6,1.2c0.2,2.3-1.9,4.3-2.2,6.6c-0.2,1.1,0.1,2.2,0.7,3.1C83.5,80.2,87.8,73,87.8,64.8z"/>
			</g>
			<g>
				<path fill="#54C0EB" d="M68.3,46.3c-0.1-0.2-0.3-0.3-0.5-0.5c-0.8-0.5-1.8-0.8-2.7-0.7c-0.4,0-0.7,0.1-1.1,0.2
					c-0.6,0-1.1-0.1-1.7-0.1c-0.3,0-0.6,0-0.9,0.1c-0.3,0.1-0.5,0.4-0.6,0.7c0,0.2-0.1,0.4-0.2,0.5c-0.5,0-1,0-1.5,0
					c0-0.4,0.1-0.7,0.1-1.1c0.7,0.1,1.4-0.3,1.8-0.8c-0.9-0.6-1.5-1.6-2.3-2.2c-6.5,1.7-11.8,6.2-14.7,12.1
					c-0.1,1.6-0.1,3.3-0.2,4.9c0,0.6,0,1.3,0.2,1.9c0.2,0.4,0.5,0.8,0.7,1.1c1,1.3,1.6,2.9,1.8,4.5c0.6,0.1,0.9-0.6,0.8-1.2
					c-0.1-0.6-0.5-1-0.6-1.6c-0.1-0.5,0-1-0.1-1.4c-0.1-0.9-0.9-1.7-1.8-1.8c1.1-0.2,1.5-1.6,1.5-2.8c0-0.2,0-0.4,0.1-0.6
					c0.2-0.3,0.8-0.3,1.1,0c1,0.7,0.7,2.1,0.8,3.3c0.1,1.9,1.3,3.6,3,4.5c0.1-1.4-1.5-2.3-1.8-3.7c-0.2-1,0.4-2,0.9-2.9
					c0.2-0.3,0.4-0.5,0.6-0.7c0.8-0.5,1.8,0.2,2.7,0c1-0.2,1.4-1.5,2.4-1.9c0.7-0.4,1.6-0.2,2.4-0.3c0.8-0.1,1.8-0.5,1.8-1.3
					c0-1.1-1.7-2-1.2-3c0.8,0.1,1.6-0.3,2-1c0.1-0.3,0.3-0.6,0.5-0.7c0.4-0.3,1,0.1,1.2,0.5c0.2,0.4,0.1,0.9,0,1.4
					c0.5,0.4,1.3,0.4,1.9,0.1c0.6-0.3,1.1-0.8,1.4-1.4c0.2-0.4,0.4-0.8,0.7-0.9c0.2-0.1,0.5-0.1,0.7-0.3c0.7-0.4,0.1-1.5,0.3-2.2
					C68.3,46.8,68.4,46.5,68.3,46.3z"/>
			</g>
			<g>
				<path fill="#54C0EB" d="M61.4,78.8c0,0.2-0.1,0.4-0.2,0.5c-0.1,0.1-0.3,0.2-0.5,0.3c-0.5,0.2-1,0.7-1.2,1.2
					c-0.2,0.4-0.3,0.9-0.5,1.2c-0.7,0.8-2.1,0.3-3.1,0.8c-0.8,0.4-1.1,1.5-1.9,1.8c-0.6,0.2-1.3-0.1-1.7-0.5c-0.4-0.4-0.7-1-1-1.6
					c-0.5-1.2-1-2.4-1.2-3.6c-0.1-1-0.2-2.2-1.1-2.5c-0.5-0.2-1.1,0-1.5-0.3c-0.2-0.2-0.3-0.5-0.4-0.8c-0.5-2.3-0.2-4.8,0.9-6.9
					c0.4-0.9,1.2-1.8,2.1-1.7c1,0.1,1.6,1.2,2.1,2.1c0.5,0.9,1.4,1.9,2.4,1.5c-0.1,1.5,0.8,3,2.2,3.6c0.8,0.3,1.7,0.5,2,1.2
					c0,0.1,0,0.3,0.1,0.4c0.1,0.2,0.3,0.2,0.5,0.3C60.6,76,61.6,77.4,61.4,78.8z"/>
			</g>
		</g>
		<path fill="#FFFFFF" d="M0.8,107.1c0-12,9.7-21.7,21.7-21.7c3.2,0,6.2,0.7,9,1.9L42.8,81l-3.7,12.1c3.2,3.8,5.1,8.6,5.1,13.9
			c0,12-9.7,21.7-21.7,21.7"/>
		<g>
			<circle fill="#4CDBC4" cx="22.4" cy="107" r="15.6"/>
		</g>
		<g>
			<circle fill="#FFFFFF" cx="16.1" cy="107" r="2.6"/>
		</g>
		<g>
			<circle fill="#FFFFFF" cx="22.4" cy="107" r="2.6"/>
		</g>
		<g>
			<circle fill="#FFFFFF" cx="28.8" cy="107" r="2.6"/>
		</g>
		<path fill="#FFFFFF" d="M107.5,0.8c-11.7,0-21.2,9.5-21.2,21.2c0,3.1,0.7,6.1,1.9,8.8l-6.1,11.1l11.8-3.6
			c3.7,3.1,8.4,4.9,13.6,4.9c11.7,0,21.2-9.5,21.2-21.2"/>
		<g>
			<path fill="#231F20" d="M3.3,115.6l-1.4,0.6c0.1,0.3,0.3,0.6,0.4,0.9l1.3-0.7C3.6,116.2,3.4,115.9,3.3,115.6z"/>
			<path fill="#231F20" d="M3.4,118.9c0.2,0.3,0.4,0.6,0.6,0.9l1.2-0.9c-0.2-0.3-0.4-0.5-0.5-0.8L3.4,118.9z"/>
			<path fill="#231F20" d="M5.2,121.4c0.2,0.3,0.4,0.5,0.7,0.8l1.1-1c-0.2-0.2-0.4-0.5-0.6-0.7L5.2,121.4z"/>
			<path fill="#231F20" d="M1.5,107.1l-1.5,0c0,0.3,0,0.7,0,1l1.5-0.1C1.5,107.8,1.5,107.5,1.5,107.1z"/>
			<path fill="#231F20" d="M1.7,110l-1.5,0.2c0,0.3,0.1,0.7,0.2,1l1.5-0.3C1.8,110.7,1.8,110.4,1.7,110z"/>
			<path fill="#231F20" d="M2.3,112.9l-1.4,0.4c0.1,0.3,0.2,0.7,0.3,1l1.4-0.5C2.5,113.5,2.4,113.2,2.3,112.9z"/>
			<path fill="#231F20" d="M18.3,129.1c0.3,0.1,0.7,0.1,1,0.2l0.2-1.5c-0.3,0-0.6-0.1-1-0.2L18.3,129.1z"/>
			<path fill="#231F20" d="M7.4,123.7c0.3,0.2,0.5,0.5,0.8,0.7l1-1.2c-0.2-0.2-0.5-0.4-0.7-0.6L7.4,123.7z"/>
			<path fill="#231F20" d="M15.3,128.3c0.3,0.1,0.7,0.2,1,0.3l0.4-1.4c-0.3-0.1-0.6-0.2-0.9-0.3L15.3,128.3z"/>
			<path fill="#231F20" d="M12.5,127.2c0.3,0.2,0.6,0.3,0.9,0.4l0.6-1.4c-0.3-0.1-0.6-0.3-0.9-0.4L12.5,127.2z"/>
			<path fill="#231F20" d="M9.8,125.6c0.3,0.2,0.6,0.4,0.9,0.6l0.8-1.3c-0.3-0.2-0.5-0.3-0.8-0.5L9.8,125.6z"/>
			<path fill="#231F20" d="M127.8,19.1l1.5-0.2c0-0.3-0.1-0.7-0.2-1l-1.5,0.3C127.7,18.4,127.8,18.8,127.8,19.1z"/>
			<path fill="#231F20" d="M126.1,10.2c-0.2-0.3-0.4-0.6-0.6-0.9l-1.2,0.9c0.2,0.3,0.4,0.5,0.5,0.8L126.1,10.2z"/>
			<path fill="#231F20" d="M124.2,7.7c-0.2-0.3-0.5-0.5-0.7-0.8l-1.1,1c0.2,0.2,0.4,0.5,0.6,0.7L124.2,7.7z"/>
			<path fill="#231F20" d="M122.1,5.5c-0.3-0.2-0.5-0.4-0.8-0.7L120.3,6c0.3,0.2,0.5,0.4,0.7,0.6L122.1,5.5z"/>
			<path fill="#231F20" d="M126.2,13.5l1.4-0.6c-0.1-0.3-0.3-0.6-0.5-0.9l-1.3,0.7C125.9,12.9,126.1,13.2,126.2,13.5z"/>
			<path fill="#231F20" d="M127.2,16.2l1.4-0.4c-0.1-0.3-0.2-0.7-0.3-1l-1.4,0.5C127,15.6,127.1,15.9,127.2,16.2z"/>
			<path fill="#231F20" d="M129.5,20.9L128,21c0,0.3,0,0.6,0,1c0,11.3-9.2,20.5-20.5,20.5c-4.8,0-9.4-1.7-13.1-4.8
				c-0.2-0.2-0.5-0.2-0.7-0.1l-10.1,3.1l5.2-9.5c0.1-0.2,0.1-0.5,0-0.7c-1.2-2.7-1.8-5.5-1.8-8.4c0-11.3,9.2-20.5,20.5-20.5V0.8
				l0,0.8l0.3,0l0-1.5l-0.3,0h0h0v0c-2.2,0-4.3,0.3-6.3,0.9C100.2,0.3,99,0,97.8,0h-66c-4.1,0-7.4,3.3-7.4,7.4v77.3
				c-0.6-0.1-1.3-0.1-1.9-0.1C10.1,84.6,0,94.7,0,107.1h1.5c0-11.6,9.4-20.9,20.9-20.9c3,0,5.9,0.6,8.7,1.9c0.2,0.1,0.5,0.1,0.7,0
				l9.8-5.4l-3.2,10.3c-0.1,0.2,0,0.5,0.1,0.7c3.1,3.8,4.9,8.5,4.9,13.4c0,11.6-9.4,20.9-20.9,20.9c-0.3,0-0.6,0-1,0l-0.1,1.5
				c0.3,0,0.7,0,1,0c2.1,0,4.1-0.3,6-0.8c1,0.5,2.1,0.8,3.3,0.8h66c4.1,0,7.4-3.3,7.4-7.4V43.8c0.8,0.1,1.6,0.1,2.4,0.1
				c12.1,0,22-9.8,22-22C129.5,21.6,129.5,21.3,129.5,20.9z M25.9,7.4c0-3.2,2.6-5.9,5.9-5.9h66c0.5,0,0.9,0.1,1.4,0.2
				C93,4.2,88.3,9.5,86.4,15.9H25.9V7.4z M103.6,122.1c0,3.2-2.6,5.9-5.9,5.9h-66c-0.3,0-0.7,0-1-0.1c6.3-2.5,11.2-7.8,13.2-14.3
				h59.7V122.1z M103.6,112.1H44.3c0.4-1.6,0.6-3.3,0.6-5c0-5.1-1.8-10.1-5-14.1l3.6-11.7c0.1-0.3,0-0.6-0.2-0.8
				c-0.2-0.2-0.6-0.2-0.8-0.1l-11.1,6.1c-1.8-0.8-3.6-1.3-5.5-1.6V17.4h60.2c-0.3,1.5-0.5,3-0.5,4.5c0,3,0.6,6,1.8,8.7l-5.9,10.8
				c-0.1,0.3-0.1,0.6,0.1,0.8c0.2,0.2,0.5,0.3,0.8,0.2l11.4-3.5c2.9,2.3,6.3,3.8,9.9,4.5V112.1z"/>
			<path fill="#231F20" d="M111,0.3c-0.3-0.1-0.7-0.1-1-0.1l-0.2,1.5c0.3,0,0.6,0.1,1,0.1L111,0.3z"/>
			<path fill="#231F20" d="M119.6,3.6c-0.3-0.2-0.6-0.4-0.9-0.5l-0.8,1.3c0.3,0.2,0.5,0.3,0.8,0.5L119.6,3.6z"/>
			<path fill="#231F20" d="M114,1c-0.3-0.1-0.7-0.2-1-0.3l-0.4,1.5c0.3,0.1,0.6,0.2,0.9,0.3L114,1z"/>
			<path fill="#231F20" d="M116.9,2.1c-0.3-0.1-0.6-0.3-0.9-0.4L115.4,3c0.3,0.1,0.6,0.3,0.9,0.4L116.9,2.1z"/>
		</g>
		<g>
			<circle fill="#FF7058" cx="107.6" cy="22" r="15.6"/>
		</g>
		<g>
			<g>
				<circle fill="#FFFFFF" cx="101.2" cy="22" r="2.6"/>
			</g>
			<g>
				<circle fill="#FFFFFF" cx="107.6" cy="22" r="2.6"/>
			</g>
			<g>
				<circle fill="#FFFFFF" cx="114" cy="22" r="2.6"/>
			</g>
		</g>
		<g>
			<g>
				<path fill="#231F20" d="M123.8,64.1c-0.2,0-0.4-0.1-0.5-0.2c-0.3-0.3-0.3-0.8,0-1.1l1.3-1.3c0.3-0.3,0.8-0.3,1.1,0
					c0.3,0.3,0.3,0.8,0,1.1l-1.3,1.3C124.2,64.1,124,64.1,123.8,64.1z"/>
			</g>
			<g>
				<path fill="#231F20" d="M119.8,68.2c-0.2,0-0.4-0.1-0.5-0.2c-0.3-0.3-0.3-0.8,0-1.1l1.3-1.3c0.3-0.3,0.8-0.3,1.1,0
					c0.3,0.3,0.3,0.8,0,1.1l-1.3,1.3C120.1,68.1,119.9,68.2,119.8,68.2z"/>
			</g>
			<g>
				<path fill="#231F20" d="M125.1,68.2c-0.2,0-0.4-0.1-0.5-0.2l-1.3-1.3c-0.3-0.3-0.3-0.8,0-1.1c0.3-0.3,0.8-0.3,1.1,0l1.3,1.3
					c0.3,0.3,0.3,0.8,0,1.1C125.4,68.1,125.3,68.2,125.1,68.2z"/>
			</g>
			<g>
				<path fill="#231F20" d="M121,64.1c-0.2,0-0.4-0.1-0.5-0.2l-1.3-1.3c-0.3-0.3-0.3-0.8,0-1.1c0.3-0.3,0.8-0.3,1.1,0l1.3,1.3
					c0.3,0.3,0.3,0.8,0,1.1C121.4,64.1,121.2,64.1,121,64.1z"/>
			</g>
		</g>
		<g>
			<g>
				<path fill="#231F20" d="M13.6,73c-0.2,0-0.4-0.1-0.5-0.2c-0.3-0.3-0.3-0.8,0-1.1l1.3-1.3c0.3-0.3,0.8-0.3,1.1,0
					c0.3,0.3,0.3,0.8,0,1.1l-1.3,1.3C14,73,13.8,73,13.6,73z"/>
			</g>
			<g>
				<path fill="#231F20" d="M9.6,77.1c-0.2,0-0.4-0.1-0.5-0.2c-0.3-0.3-0.3-0.8,0-1.1l1.3-1.3c0.3-0.3,0.8-0.3,1.1,0
					c0.3,0.3,0.3,0.8,0,1.1l-1.3,1.3C9.9,77,9.7,77.1,9.6,77.1z"/>
			</g>
			<g>
				<path fill="#231F20" d="M14.9,77.1c-0.2,0-0.4-0.1-0.5-0.2l-1.3-1.3c-0.3-0.3-0.3-0.8,0-1.1c0.3-0.3,0.8-0.3,1.1,0l1.3,1.3
					c0.3,0.3,0.3,0.8,0,1.1C15.3,77,15.1,77.1,14.9,77.1z"/>
			</g>
			<g>
				<path fill="#231F20" d="M10.8,73c-0.2,0-0.4-0.1-0.5-0.2L9,71.5c-0.3-0.3-0.3-0.8,0-1.1c0.3-0.3,0.8-0.3,1.1,0l1.3,1.3
					c0.3,0.3,0.3,0.8,0,1.1C11.2,73,11,73,10.8,73z"/>
			</g>
		</g>
		<g>
			<g>
				<path fill="#231F20" d="M10.9,13.8c-0.2,0-0.4-0.1-0.5-0.2c-0.3-0.3-0.3-0.8,0-1.1l1.3-1.3c0.3-0.3,0.8-0.3,1.1,0
					c0.3,0.3,0.3,0.8,0,1.1l-1.3,1.3C11.3,13.7,11.1,13.8,10.9,13.8z"/>
			</g>
			<g>
				<path fill="#231F20" d="M6.9,17.8c-0.2,0-0.4-0.1-0.5-0.2c-0.3-0.3-0.3-0.8,0-1.1l1.3-1.3c0.3-0.3,0.8-0.3,1.1,0
					C9,15.5,9,16,8.7,16.3l-1.3,1.3C7.3,17.7,7.1,17.8,6.9,17.8z"/>
			</g>
			<g>
				<path fill="#231F20" d="M12.2,17.8c-0.2,0-0.4-0.1-0.5-0.2l-1.3-1.3c-0.3-0.3-0.3-0.8,0-1.1c0.3-0.3,0.8-0.3,1.1,0l1.3,1.3
					c0.3,0.3,0.3,0.8,0,1.1C12.6,17.7,12.4,17.8,12.2,17.8z"/>
			</g>
			<g>
				<path fill="#231F20" d="M8.2,13.8c-0.2,0-0.4-0.1-0.5-0.2l-1.3-1.3c-0.3-0.3-0.3-0.8,0-1.1c0.3-0.3,0.8-0.3,1.1,0l1.3,1.3
					c0.3,0.3,0.3,0.8,0,1.1C8.6,13.7,8.4,13.8,8.2,13.8z"/>
			</g>
		</g>
		<g>
			<g>
				<g>
					<path fill="#231F20" d="M44.7,30.6h-7.6c-0.4,0-0.8-0.3-0.8-0.8c0-0.4,0.3-0.8,0.8-0.8h7.6c0.4,0,0.8,0.3,0.8,0.8
						C45.4,30.3,45.1,30.6,44.7,30.6z"/>
				</g>
				<g>
					<path fill="#231F20" d="M47.6,33.4h-3.7c-0.4,0-0.8-0.3-0.8-0.8s0.3-0.8,0.8-0.8h3.7c0.4,0,0.8,0.3,0.8,0.8S48,33.4,47.6,33.4z
						"/>
				</g>
				<g>
					<path fill="#231F20" d="M51.6,30.6h-3.5c-0.4,0-0.8-0.3-0.8-0.8c0-0.4,0.3-0.8,0.8-0.8h3.5c0.4,0,0.8,0.3,0.8,0.8
						C52.4,30.3,52,30.6,51.6,30.6z"/>
				</g>
				<g>
					<path fill="#231F20" d="M41.2,33.4h-0.7c-0.4,0-0.8-0.3-0.8-0.8s0.3-0.8,0.8-0.8h0.7c0.4,0,0.8,0.3,0.8,0.8
						S41.6,33.4,41.2,33.4z"/>
				</g>
			</g>
			<g>
				<g>
					<path fill="#231F20" d="M85.5,97.6h-7.6c-0.4,0-0.8-0.3-0.8-0.8c0-0.4,0.3-0.8,0.8-0.8h7.6c0.4,0,0.8,0.3,0.8,0.8
						C86.2,97.3,85.9,97.6,85.5,97.6z"/>
				</g>
				<g>
					<path fill="#231F20" d="M88.4,100.4h-3.7c-0.4,0-0.8-0.3-0.8-0.8c0-0.4,0.3-0.8,0.8-0.8h3.7c0.4,0,0.8,0.3,0.8,0.8
						C89.2,100.1,88.8,100.4,88.4,100.4z"/>
				</g>
				<g>
					<path fill="#231F20" d="M92.4,97.6h-3.5c-0.4,0-0.8-0.3-0.8-0.8c0-0.4,0.3-0.8,0.8-0.8h3.5c0.4,0,0.8,0.3,0.8,0.8
						C93.2,97.3,92.8,97.6,92.4,97.6z"/>
				</g>
				<g>
					<path fill="#231F20" d="M82,100.4h-0.7c-0.4,0-0.8-0.3-0.8-0.8c0-0.4,0.3-0.8,0.8-0.8H82c0.4,0,0.8,0.3,0.8,0.8
						C82.8,100.1,82.4,100.4,82,100.4z"/>
				</g>
			</g>
		</g>
		<g>
			<circle fill="#FF7058" cx="111.4" cy="102" r="2.1"/>
		</g>
	</g>
</g>
</svg>
