<?xml version="1.0" encoding="utf-8"?>
<!-- Generator: Adobe Illustrator 18.0.0, SVG Export Plug-In . SVG Version: 6.00 Build 0)  -->
<!DOCTYPE svg PUBLIC "-//W3C//DTD SVG 1.1//EN" "http://www.w3.org/Graphics/SVG/1.1/DTD/svg11.dtd">
<svg version="1.1" id="Layer_1" xmlns="http://www.w3.org/2000/svg" xmlns:xlink="http://www.w3.org/1999/xlink" x="0px" y="0px"
	 viewBox="0 0 129.5 129.5" enable-background="new 0 0 129.5 129.5" xml:space="preserve">
<g>
	<g>
		<g>
			<polygon fill="#E6E9EE" points="84.8,23.6 107.8,46.6 107.8,23.6 			"/>
		</g>
		<g>
			<g>
				<path fill="#231F20" d="M109.1,4.8c-0.2,0-0.4-0.1-0.5-0.2c-0.3-0.3-0.3-0.8,0-1.1l1.3-1.3c0.3-0.3,0.8-0.3,1.1,0s0.3,0.8,0,1.1
					l-1.3,1.3C109.5,4.8,109.3,4.8,109.1,4.8z"/>
			</g>
			<g>
				<path fill="#231F20" d="M104.9,9c-0.2,0-0.4-0.1-0.5-0.2c-0.3-0.3-0.3-0.8,0-1.1l1.3-1.3c0.3-0.3,0.8-0.3,1.1,0
					c0.3,0.3,0.3,0.8,0,1.1l-1.3,1.3C105.3,8.9,105.1,9,104.9,9z"/>
			</g>
			<g>
				<path fill="#231F20" d="M110.4,9c-0.2,0-0.4-0.1-0.5-0.2l-1.3-1.3c-0.3-0.3-0.3-0.8,0-1.1c0.3-0.3,0.8-0.3,1.1,0l1.3,1.3
					c0.3,0.3,0.3,0.8,0,1.1C110.8,8.9,110.6,9,110.4,9z"/>
			</g>
			<g>
				<path fill="#231F20" d="M106.3,4.8c-0.2,0-0.4-0.1-0.5-0.2l-1.3-1.3c-0.3-0.3-0.3-0.8,0-1.1c0.3-0.3,0.8-0.3,1.1,0l1.3,1.3
					c0.3,0.3,0.3,0.8,0,1.1C106.6,4.8,106.5,4.8,106.3,4.8z"/>
			</g>
		</g>
		<g>
			<g>
				<path fill="#231F20" d="M123.5,44.7c-0.2,0-0.4-0.1-0.5-0.2c-0.3-0.3-0.3-0.8,0-1.1l1.3-1.3c0.3-0.3,0.8-0.3,1.1,0
					c0.3,0.3,0.3,0.8,0,1.1l-1.3,1.3C123.8,44.6,123.7,44.7,123.5,44.7z"/>
			</g>
			<g>
				<path fill="#231F20" d="M119.3,48.8c-0.2,0-0.4-0.1-0.5-0.2c-0.3-0.3-0.3-0.8,0-1.1l1.3-1.3c0.3-0.3,0.8-0.3,1.1,0
					c0.3,0.3,0.3,0.8,0,1.1l-1.3,1.3C119.7,48.8,119.5,48.8,119.3,48.8z"/>
			</g>
			<g>
				<path fill="#231F20" d="M124.8,48.8c-0.2,0-0.4-0.1-0.5-0.2l-1.3-1.3c-0.3-0.3-0.3-0.8,0-1.1c0.3-0.3,0.8-0.3,1.1,0l1.3,1.3
					c0.3,0.3,0.3,0.8,0,1.1C125.2,48.8,125,48.8,124.8,48.8z"/>
			</g>
			<g>
				<path fill="#231F20" d="M120.7,44.7c-0.2,0-0.4-0.1-0.5-0.2l-1.3-1.3c-0.3-0.3-0.3-0.8,0-1.1c0.3-0.3,0.8-0.3,1.1,0l1.3,1.3
					c0.3,0.3,0.3,0.8,0,1.1C121,44.6,120.8,44.7,120.7,44.7z"/>
			</g>
		</g>
		<g>
			<g>
				<path fill="#231F20" d="M52,102.5c-0.2,0-0.4-0.1-0.5-0.2c-0.3-0.3-0.3-0.8,0-1.1l1.3-1.3c0.3-0.3,0.8-0.3,1.1,0
					c0.3,0.3,0.3,0.8,0,1.1l-1.3,1.3C52.3,102.4,52.2,102.5,52,102.5z"/>
			</g>
			<g>
				<path fill="#231F20" d="M47.8,106.6c-0.2,0-0.4-0.1-0.5-0.2c-0.3-0.3-0.3-0.8,0-1.1l1.3-1.3c0.3-0.3,0.8-0.3,1.1,0
					c0.3,0.3,0.3,0.8,0,1.1l-1.3,1.3C48.2,106.5,48,106.6,47.8,106.6z"/>
			</g>
			<g>
				<path fill="#231F20" d="M53.3,106.6c-0.2,0-0.4-0.1-0.5-0.2l-1.3-1.3c-0.3-0.3-0.3-0.8,0-1.1c0.3-0.3,0.8-0.3,1.1,0l1.3,1.3
					c0.3,0.3,0.3,0.8,0,1.1C53.7,106.5,53.5,106.6,53.3,106.6z"/>
			</g>
			<g>
				<path fill="#231F20" d="M49.2,102.5c-0.2,0-0.4-0.1-0.5-0.2l-1.3-1.3c-0.3-0.3-0.3-0.8,0-1.1c0.3-0.3,0.8-0.3,1.1,0l1.3,1.3
					c0.3,0.3,0.3,0.8,0,1.1C49.5,102.4,49.3,102.5,49.2,102.5z"/>
			</g>
		</g>
		<g>
			<g>
				<path fill="#231F20" d="M7.9,5.8c-0.2,0-0.4-0.1-0.5-0.2c-0.3-0.3-0.3-0.8,0-1.1l1.3-1.3c0.3-0.3,0.8-0.3,1.1,0
					C10,3.5,10,4,9.7,4.3L8.4,5.6C8.3,5.7,8.1,5.8,7.9,5.8z"/>
			</g>
			<g>
				<path fill="#231F20" d="M3.8,10c-0.2,0-0.4-0.1-0.5-0.2C2.9,9.4,2.9,9,3.2,8.7l1.3-1.3c0.3-0.3,0.8-0.3,1.1,0
					c0.3,0.3,0.3,0.8,0,1.1L4.3,9.7C4.1,9.9,4,10,3.8,10z"/>
			</g>
			<g>
				<path fill="#231F20" d="M9.2,10C9,10,8.8,9.9,8.7,9.7L7.4,8.4c-0.3-0.3-0.3-0.8,0-1.1c0.3-0.3,0.8-0.3,1.1,0l1.3,1.3
					C10,9,10,9.4,9.7,9.7C9.6,9.9,9.4,10,9.2,10z"/>
			</g>
			<g>
				<path fill="#231F20" d="M5.1,5.8c-0.2,0-0.4-0.1-0.5-0.2L3.2,4.3C2.9,4,2.9,3.5,3.2,3.2c0.3-0.3,0.8-0.3,1.1,0l1.3,1.3
					c0.3,0.3,0.3,0.8,0,1.1C5.5,5.7,5.3,5.8,5.1,5.8z"/>
			</g>
		</g>
		<rect x="2.9" y="25.7" fill="#FFFFFF" width="7.3" height="84"/>
		<polygon fill="#FFFFFF" points="10.1,25.7 6.5,17.2 2.9,25.7 		"/>
		<path fill="#FFFFFF" d="M9.1,117.7H3.9c-0.6,0-1.1-0.5-1.1-1.1l0-7h7.3v7C10.1,117.3,9.6,117.7,9.1,117.7z"/>
		<path fill="#231F20" d="M10.8,25.4L10.8,25.4l-3.6-8.5c-0.1-0.3-0.4-0.5-0.7-0.5c-0.3,0-0.6,0.2-0.7,0.5l-3.6,8.5
			c0,0.1-0.1,0.2-0.1,0.3v91c0,1,0.8,1.8,1.8,1.8h5.1c1,0,1.8-0.8,1.8-1.8v-91C10.9,25.6,10.9,25.5,10.8,25.4z M3.6,108.9V26.5h2.1
			v82.5H3.6z M7.2,26.5h2.1v82.5H7.2V26.5z M6.5,19.1L9,25H4L6.5,19.1z M9.4,116.7c0,0.2-0.1,0.3-0.3,0.3H3.9
			c-0.2,0-0.3-0.1-0.3-0.3v-6.3h5.8V116.7z"/>
		<polygon fill="#FFFFFF" points="84.8,0.7 84.8,23.6 107.7,23.6 		"/>
		<g>
			<polygon fill="#84DBFF" points="86.9,21.5 86.9,5.7 102.7,21.5 			"/>
		</g>
		<g>
			<g>
				<rect x="26.9" y="32.7" fill="#FFFFFF" width="9.9" height="9.9"/>
				<path fill="#231F20" d="M37.5,43.4H26.1V31.9h11.4V43.4z M27.6,41.9H36v-8.4h-8.4V41.9z"/>
			</g>
			<g>
				<g>
					<line fill="#FFFFFF" x1="40.5" y1="36.8" x2="55.9" y2="36.8"/>
					<rect x="40.5" y="36" fill="#231F20" width="15.4" height="1.5"/>
				</g>
				<g>
					<line fill="#FFFFFF" x1="40.5" y1="39.7" x2="60.6" y2="39.7"/>
					<rect x="40.5" y="39" fill="#231F20" width="20.1" height="1.5"/>
				</g>
				<g>
					<line fill="#FFFFFF" x1="40.5" y1="42.6" x2="60.6" y2="42.6"/>
					<rect x="40.5" y="41.9" fill="#231F20" width="20.1" height="1.5"/>
				</g>
			</g>
		</g>
		<g>
			<g>
				<rect x="65.6" y="32.7" fill="#FFFFFF" width="9.9" height="9.9"/>
				<path fill="#231F20" d="M76.3,43.4H64.9V31.9h11.4V43.4z M66.4,41.9h8.4v-8.4h-8.4V41.9z"/>
			</g>
			<g>
				<g>
					<line fill="#FFFFFF" x1="79.3" y1="36.8" x2="94.7" y2="36.8"/>
					<rect x="79.3" y="36" fill="#231F20" width="15.4" height="1.5"/>
				</g>
				<g>
					<line fill="#FFFFFF" x1="79.3" y1="39.7" x2="99.4" y2="39.7"/>
					<rect x="79.3" y="39" fill="#231F20" width="20.1" height="1.5"/>
				</g>
				<g>
					<line fill="#FFFFFF" x1="79.3" y1="42.6" x2="99.4" y2="42.6"/>
					<rect x="79.3" y="41.9" fill="#231F20" width="20.1" height="1.5"/>
				</g>
			</g>
		</g>
		<g>
			<g>
				<rect x="26.9" y="52.1" fill="#FFFFFF" width="9.9" height="9.9"/>
				<path fill="#231F20" d="M37.5,62.8H26.1V51.3h11.4V62.8z M27.6,61.3H36v-8.4h-8.4V61.3z"/>
			</g>
			<g>
				<g>
					<line fill="#FFFFFF" x1="40.5" y1="56.2" x2="55.9" y2="56.2"/>
					<rect x="40.5" y="55.4" fill="#231F20" width="15.4" height="1.5"/>
				</g>
				<g>
					<line fill="#FFFFFF" x1="40.5" y1="59.1" x2="60.6" y2="59.1"/>
					<rect x="40.5" y="58.3" fill="#231F20" width="20.1" height="1.5"/>
				</g>
				<g>
					<line fill="#FFFFFF" x1="40.5" y1="62" x2="60.6" y2="62"/>
					<rect x="40.5" y="61.3" fill="#231F20" width="20.1" height="1.5"/>
				</g>
			</g>
		</g>
		<g>
			<g>
				<rect x="65.6" y="52.1" fill="#FFFFFF" width="9.9" height="9.9"/>
				<path fill="#231F20" d="M76.3,62.8H64.9V51.3h11.4V62.8z M66.4,61.3h8.4v-8.4h-8.4V61.3z"/>
			</g>
			<g>
				<g>
					<line fill="#FFFFFF" x1="79.3" y1="56.2" x2="94.7" y2="56.2"/>
					<rect x="79.3" y="55.4" fill="#231F20" width="15.4" height="1.5"/>
				</g>
				<g>
					<line fill="#FFFFFF" x1="79.3" y1="59.1" x2="99.4" y2="59.1"/>
					<rect x="79.3" y="58.3" fill="#231F20" width="20.1" height="1.5"/>
				</g>
				<g>
					<line fill="#FFFFFF" x1="79.3" y1="62" x2="99.4" y2="62"/>
					<rect x="79.3" y="61.3" fill="#231F20" width="20.1" height="1.5"/>
				</g>
			</g>
		</g>
		<g>
			<g>
				<rect x="26.9" y="71.5" fill="#FFFFFF" width="9.9" height="9.9"/>
				<path fill="#231F20" d="M37.5,82.1H26.1V70.7h11.4V82.1z M27.6,80.6H36v-8.4h-8.4V80.6z"/>
			</g>
			<g>
				<g>
					<line fill="#FFFFFF" x1="40.5" y1="75.6" x2="55.9" y2="75.6"/>
					<rect x="40.5" y="74.8" fill="#231F20" width="15.4" height="1.5"/>
				</g>
				<g>
					<line fill="#FFFFFF" x1="40.5" y1="78.5" x2="60.6" y2="78.5"/>
					<rect x="40.5" y="77.7" fill="#231F20" width="20.1" height="1.5"/>
				</g>
				<g>
					<line fill="#FFFFFF" x1="40.5" y1="81.4" x2="60.6" y2="81.4"/>
					<rect x="40.5" y="80.6" fill="#231F20" width="20.1" height="1.5"/>
				</g>
			</g>
		</g>
		<g>
			<g>
				<rect x="65.6" y="71.5" fill="#FFFFFF" width="9.9" height="9.9"/>
				<path fill="#231F20" d="M76.3,82.1H64.9V70.7h11.4V82.1z M66.4,80.6h8.4v-8.4h-8.4V80.6z"/>
			</g>
			<g>
				<g>
					<line fill="#FFFFFF" x1="79.3" y1="75.6" x2="94.7" y2="75.6"/>
					<rect x="79.3" y="74.8" fill="#231F20" width="15.4" height="1.5"/>
				</g>
				<g>
					<line fill="#FFFFFF" x1="79.3" y1="78.5" x2="99.4" y2="78.5"/>
					<rect x="79.3" y="77.7" fill="#231F20" width="20.1" height="1.5"/>
				</g>
				<g>
					<line fill="#FFFFFF" x1="79.3" y1="81.4" x2="99.4" y2="81.4"/>
					<rect x="79.3" y="80.6" fill="#231F20" width="20.1" height="1.5"/>
				</g>
			</g>
		</g>
		<path fill="#FFFFFF" d="M117.1,90.3l-4.6-2.1l-0.2,0.3c-1,1.8-2.9,2.7-5,2.6c-0.4,0-0.8,0-1.2,0c-2,0-3.9-1.1-4.8-2.9l-0.1-0.3
			l-4.7,1.8l0.1,0.3c0.5,2-0.2,4-1.7,5.4c-0.3,0.3-0.6,0.5-0.9,0.8c-1.4,1.5-3.5,2-5.5,1.4l-0.3-0.1l-2.1,4.6l0.3,0.2
			c1.8,1,2.7,2.9,2.6,5c0,0.4,0,0.8,0,1.2c0,2-1.1,3.9-2.9,4.8l-0.3,0.1l1.8,4.7l0.3-0.1c2-0.5,4,0.2,5.4,1.7
			c0.3,0.3,0.5,0.6,0.8,0.9c1.5,1.4,2,3.5,1.4,5.5l-0.1,0.3l4.6,2.1l0.2-0.3c1-1.8,2.9-2.7,5-2.6c0.4,0,0.8,0,1.2,0
			c2,0,3.9,1.1,4.8,2.9l0.1,0.3l4.7-1.8l-0.1-0.3c-0.5-2,0.2-4,1.7-5.4c0.3-0.3,0.6-0.5,0.9-0.8c1.4-1.5,3.5-2,5.5-1.4l0.3,0.1
			l2.1-4.6l-0.3-0.2c-1.8-1-2.7-2.9-2.6-5c0-0.4,0-0.8,0-1.2c0-2,1.1-3.9,2.9-4.8l0.3-0.1l-1.8-4.7l-0.3,0.1c-2,0.5-4-0.2-5.4-1.7
			c-0.3-0.3-0.5-0.6-0.8-0.9c-1.5-1.4-2-3.5-1.4-5.5L117.1,90.3z"/>
		<path fill="#231F20" d="M126.7,104.1l0.3-0.1c0.3-0.2,0.5-0.6,0.4-0.9l-1.8-4.7c-0.1-0.4-0.5-0.6-0.9-0.5l-0.3,0.1
			c-1.6,0.5-3.4-0.1-4.6-1.5c-0.3-0.3-0.6-0.6-0.9-0.9c-1.3-1.3-1.7-3.1-1.2-4.7l0.1-0.3c0.1-0.4,0-0.8-0.4-0.9l-4.6-2.1
			c-0.3-0.2-0.8,0-1,0.3l-0.2,0.3c-0.7,1.2-1.9,2-3.2,2.2V23.6c0-0.2-0.1-0.4-0.2-0.5L85.4,0.2C85.2,0.1,85,0,84.8,0H18.5
			c-0.4,0-0.8,0.3-0.8,0.8v115.7c0,0.4,0.3,0.8,0.8,0.8h67.9l0.5,1.2c0.1,0.4,0.5,0.6,0.9,0.5l0.3-0.1c1.6-0.5,3.4,0.1,4.6,1.5
			c0.3,0.3,0.6,0.6,0.9,0.9c1.3,1.3,1.7,3.1,1.2,4.7l-0.1,0.3c-0.1,0.4,0,0.8,0.4,0.9l4.6,2.1c0.3,0.2,0.8,0,1-0.3l0.2-0.3
			c0.8-1.5,2.5-2.3,4.3-2.2c0.4,0,0.8,0,1.3,0c0,0,0,0,0,0c1.8,0,3.4,0.9,4.1,2.5l0.1,0.3c0.1,0.3,0.4,0.4,0.7,0.4
			c0.1,0,0.2,0,0.3,0l4.7-1.8c0.4-0.1,0.6-0.5,0.5-0.9l-0.1-0.3c-0.5-1.6,0.1-3.4,1.5-4.6c0.3-0.3,0.6-0.6,0.9-0.9
			c1.2-1.3,3.1-1.7,4.7-1.2l0.3,0.1c0.4,0.1,0.8,0,0.9-0.4l2.1-4.6c0.2-0.4,0-0.8-0.3-1l-0.3-0.2c-1.5-0.8-2.3-2.5-2.2-4.3
			c0-0.4,0-0.8,0-1.2C124.2,106.4,125.2,104.8,126.7,104.1z M85.6,2.6l20.3,20.3H85.6V2.6z M19.3,115.7V1.5h64.8v22.1
			c0,0.4,0.3,0.8,0.8,0.8h22.1v66c-0.2,0-0.5,0-0.7,0h-0.1c-1.8,0-3.4-0.9-4.1-2.5l-0.1-0.3c-0.2-0.3-0.6-0.5-0.9-0.4L96.2,89
			c-0.4,0.1-0.6,0.5-0.5,0.9l0.1,0.3c0.5,1.6-0.1,3.4-1.5,4.6c-0.3,0.3-0.6,0.6-0.9,0.9c-1.2,1.3-3.1,1.7-4.7,1.2l-0.3-0.1
			c-0.4-0.1-0.8,0-0.9,0.4l-2.1,4.6c-0.2,0.4,0,0.8,0.3,1l0.3,0.2c1.5,0.8,2.3,2.5,2.2,4.3c0,0.4,0,0.8,0,1.2c0,1.8-0.9,3.4-2.5,4.2
			l-0.3,0.1c-0.3,0.2-0.5,0.6-0.4,0.9l0.8,2H19.3z M125.4,114.9l-1.5,3.4c-2-0.6-4.3,0.1-5.9,1.7c-0.3,0.3-0.5,0.5-0.8,0.8
			c-1.7,1.5-2.4,3.7-2,5.8l-3.5,1.3c-1.1-1.9-3.1-3-5.4-3c-0.4,0-0.7,0-1.1,0c-0.1,0-0.3,0-0.4,0c-2.1,0-4,1-5.1,2.7l-3.4-1.5
			c0.6-2.1,0-4.3-1.7-5.9c-0.3-0.3-0.5-0.5-0.8-0.8c-1.5-1.7-3.7-2.4-5.8-2l-1.3-3.5c1.9-1.1,3-3.1,3-5.3c0-0.4,0-0.8,0-1.1
			c0.1-2.3-0.9-4.3-2.7-5.5l1.5-3.4c2,0.6,4.3-0.1,5.9-1.7c0.3-0.3,0.5-0.5,0.8-0.8c1.7-1.5,2.4-3.7,2-5.8l3.5-1.3
			c1.1,1.9,3.1,3,5.3,3h0.1c0.4,0,0.7,0,1.1,0c2.2,0.1,4.3-0.9,5.5-2.7l3.4,1.5c-0.6,2.1,0,4.3,1.7,5.9c0.3,0.3,0.5,0.5,0.8,0.8
			c1.5,1.7,3.7,2.4,5.8,2l1.3,3.5c-1.9,1.1-3,3.1-3,5.3c0,0.4,0,0.8,0,1.1C122.5,111.6,123.6,113.7,125.4,114.9z"/>
		<g>
			<path fill="#231F20" d="M105.8,122.2c-0.4,0-0.7,0-1.1-0.1l0.2-1.5c0.3,0,0.6,0.1,0.9,0.1L105.8,122.2z M107.9,122.1l-0.2-1.5
				c0.3,0,0.6-0.1,0.9-0.2l0.3,1.5C108.6,122,108.2,122,107.9,122.1z M102.7,121.7c-0.3-0.1-0.7-0.2-1-0.3l0.5-1.4
				c0.3,0.1,0.6,0.2,0.9,0.3L102.7,121.7z M111,121.3l-0.5-1.4c0.3-0.1,0.6-0.2,0.9-0.4l0.6,1.4C111.6,121.1,111.3,121.2,111,121.3z
				 M99.7,120.5c-0.3-0.2-0.6-0.3-0.9-0.5l0.8-1.3c0.3,0.2,0.5,0.3,0.8,0.5L99.7,120.5z M113.8,119.9l-0.8-1.3
				c0.3-0.2,0.5-0.4,0.8-0.5l0.9,1.2C114.4,119.5,114.1,119.7,113.8,119.9z M97.1,118.7c-0.3-0.2-0.5-0.5-0.8-0.7l1.1-1
				c0.2,0.2,0.4,0.4,0.7,0.6L97.1,118.7z M116.2,117.9l-1.1-1c0.2-0.2,0.4-0.5,0.6-0.7l1.2,0.9C116.7,117.4,116.5,117.6,116.2,117.9
				z M95,116.4c-0.2-0.3-0.4-0.6-0.6-0.9l1.3-0.8c0.2,0.3,0.3,0.5,0.5,0.8L95,116.4z M118.1,115.3l-1.3-0.8c0.2-0.3,0.3-0.5,0.4-0.8
				l1.3,0.7C118.5,114.7,118.3,115,118.1,115.3z M93.4,113.6c-0.1-0.3-0.3-0.7-0.4-1l1.4-0.5c0.1,0.3,0.2,0.6,0.3,0.9L93.4,113.6z
				 M119.4,112.5L118,112c0.1-0.3,0.2-0.6,0.2-0.9l1.5,0.3C119.6,111.8,119.5,112.1,119.4,112.5z M92.6,110.6
				c-0.1-0.3-0.1-0.7-0.1-1l1.5-0.1c0,0.3,0.1,0.6,0.1,0.9L92.6,110.6z M120,109.3l-1.5-0.1c0-0.3,0-0.6,0-0.9l1.5,0v0
				C120.1,108.7,120,109,120,109.3z M93.9,107.5l-1.5-0.1c0-0.4,0.1-0.7,0.1-1.1l1.5,0.2C94,106.9,93.9,107.2,93.9,107.5z
				 M118.4,106.4c0-0.3-0.1-0.6-0.2-0.9l1.5-0.3c0.1,0.3,0.2,0.7,0.2,1L118.4,106.4z M94.4,104.8l-1.4-0.4c0.1-0.3,0.2-0.7,0.3-1
				l1.4,0.5C94.6,104.2,94.5,104.5,94.4,104.8z M117.6,103.7c-0.1-0.3-0.2-0.6-0.4-0.9l1.3-0.7c0.2,0.3,0.3,0.6,0.4,1L117.6,103.7z
				 M95.5,102.2l-1.3-0.7c0.2-0.3,0.4-0.6,0.6-0.9l1.2,0.8C95.9,101.6,95.7,101.9,95.5,102.2z M116.3,101.2
				c-0.2-0.3-0.4-0.5-0.6-0.7l1.2-1c0.2,0.3,0.4,0.6,0.6,0.8L116.3,101.2z M97.2,99.9l-1.1-1c0.2-0.3,0.5-0.5,0.8-0.7l1,1.1
				C97.6,99.4,97.4,99.7,97.2,99.9z M114.4,99.1c-0.2-0.2-0.5-0.4-0.7-0.6l0.9-1.2c0.3,0.2,0.6,0.4,0.8,0.7L114.4,99.1z M99.4,98.1
				l-0.8-1.2c0.3-0.2,0.6-0.4,0.9-0.6l0.7,1.3C99.9,97.7,99.6,97.9,99.4,98.1z M112.1,97.5c-0.3-0.1-0.6-0.3-0.8-0.4l0.6-1.4
				c0.3,0.1,0.6,0.3,0.9,0.5L112.1,97.5z M111.1,97c-0.3-0.1-0.6-0.2-0.9-0.3l0.5-1.4c0.3,0.1,0.7,0.2,1,0.4L111.1,97z M101.9,96.8
				l-0.5-1.4c0.3-0.1,0.7-0.2,1-0.3l0.4,1.4C102.5,96.6,102.2,96.7,101.9,96.8z M108.4,96.2c-0.3-0.1-0.6-0.1-0.9-0.1l0.1-1.5
				c0.3,0,0.7,0.1,1,0.1L108.4,96.2z M104.6,96.1l-0.2-1.5c0.3,0,0.7-0.1,1.1-0.1l0.1,1.5C105.2,96,104.9,96.1,104.6,96.1z"/>
		</g>
		<g>
			<circle fill="#FF7058" cx="106.2" cy="108.3" r="10.4"/>
		</g>
		<g>
			<circle fill="#FFFFFF" cx="106.2" cy="108.3" r="5.2"/>
			<path fill="#231F20" d="M106.2,114.3c-0.8,0-1.7-0.2-2.4-0.5c-1.4-0.6-2.6-1.8-3.1-3.3c-0.6-1.5-0.5-3.1,0.1-4.5
				c1-2.1,3.1-3.5,5.4-3.5c0.8,0,1.7,0.2,2.4,0.5c1.4,0.6,2.6,1.8,3.1,3.3c0.6,1.5,0.5,3.1-0.1,4.5
				C110.7,112.9,108.5,114.3,106.2,114.3z M106.2,103.9c-1.7,0-3.3,1-4.1,2.6c-0.5,1.1-0.5,2.3-0.1,3.4c0.4,1.1,1.3,2,2.3,2.5
				c0.6,0.3,1.2,0.4,1.8,0.4c1.7,0,3.3-1,4.1-2.6c0.5-1.1,0.5-2.3,0.1-3.4c-0.4-1.1-1.3-2-2.3-2.5
				C107.5,104,106.8,103.9,106.2,103.9z"/>
		</g>
		<g>
			<line fill="#FFFFFF" x1="28" y1="12.2" x2="62.2" y2="12.2"/>
			<rect x="28" y="11.4" fill="#231F20" width="34.3" height="1.5"/>
		</g>
		<g>
			<line fill="#FFFFFF" x1="28" y1="17.2" x2="51.9" y2="17.2"/>
			<rect x="28" y="16.4" fill="#231F20" width="24" height="1.5"/>
		</g>
		<g>
			<circle fill="#FF7058" cx="123.8" cy="18.4" r="3.1"/>
		</g>
		<g>
			<circle fill="#FF7058" cx="36.4" cy="93.8" r="1.7"/>
		</g>
		<g>
			<circle fill="#FFD05B" cx="117.2" cy="70.4" r="2.2"/>
		</g>
	</g>
</g>
</svg>
