<?xml version="1.0" encoding="utf-8"?>
<!-- Generator: Adobe Illustrator 18.0.0, SVG Export Plug-In . SVG Version: 6.00 Build 0)  -->
<!DOCTYPE svg PUBLIC "-//W3C//DTD SVG 1.1//EN" "http://www.w3.org/Graphics/SVG/1.1/DTD/svg11.dtd">
<svg version="1.1" id="Layer_1" xmlns="http://www.w3.org/2000/svg" xmlns:xlink="http://www.w3.org/1999/xlink" x="0px" y="0px"
	 viewBox="0 0 129.5 129.5" enable-background="new 0 0 129.5 129.5" xml:space="preserve">
<g>
	<g>
		<g>
			<rect x="72.6" y="43.7" fill="#231F20" width="42.5" height="1.5"/>
		</g>
		<g>
			<rect x="72.6" y="51.6" fill="#231F20" width="42.5" height="1.5"/>
		</g>
		<g>
			<rect x="15" y="75.4" fill="#231F20" width="42.5" height="1.5"/>
		</g>
		<g>
			<rect x="15" y="83.3" fill="#231F20" width="42.5" height="1.5"/>
		</g>
		<g>
			<rect x="15" y="91.2" fill="#231F20" width="42.5" height="1.5"/>
		</g>
		<g>
			<rect x="15" y="99.1" fill="#231F20" width="42.5" height="1.5"/>
		</g>
		<g>
			<g>
				<path fill="#231F20" d="M101.9,14.8c-0.2,0-0.4-0.1-0.5-0.2c-0.3-0.3-0.3-0.8,0-1.1l1.3-1.3c0.3-0.3,0.8-0.3,1.1,0
					c0.3,0.3,0.3,0.8,0,1.1l-1.3,1.3C102.3,14.7,102.1,14.8,101.9,14.8z"/>
			</g>
			<g>
				<path fill="#231F20" d="M97.9,18.8c-0.2,0-0.4-0.1-0.5-0.2c-0.3-0.3-0.3-0.8,0-1.1l1.3-1.3c0.3-0.3,0.8-0.3,1.1,0
					c0.3,0.3,0.3,0.8,0,1.1l-1.3,1.3C98.3,18.7,98.1,18.8,97.9,18.8z"/>
			</g>
			<g>
				<path fill="#231F20" d="M103.2,18.8c-0.2,0-0.4-0.1-0.5-0.2l-1.3-1.3c-0.3-0.3-0.3-0.8,0-1.1c0.3-0.3,0.8-0.3,1.1,0l1.3,1.3
					c0.3,0.3,0.3,0.8,0,1.1C103.6,18.7,103.4,18.8,103.2,18.8z"/>
			</g>
			<g>
				<path fill="#231F20" d="M99.2,14.8c-0.2,0-0.4-0.1-0.5-0.2l-1.3-1.3c-0.3-0.3-0.3-0.8,0-1.1c0.3-0.3,0.8-0.3,1.1,0l1.3,1.3
					c0.3,0.3,0.3,0.8,0,1.1C99.6,14.7,99.4,14.8,99.2,14.8z"/>
			</g>
		</g>
		<g>
			<g>
				<path fill="#231F20" d="M123,124c-0.2,0-0.4-0.1-0.5-0.2c-0.3-0.3-0.3-0.8,0-1.1l1.3-1.3c0.3-0.3,0.8-0.3,1.1,0
					c0.3,0.3,0.3,0.8,0,1.1l-1.3,1.3C123.4,123.9,123.2,124,123,124z"/>
			</g>
			<g>
				<path fill="#231F20" d="M119,128c-0.2,0-0.4-0.1-0.5-0.2c-0.3-0.3-0.3-0.8,0-1.1l1.3-1.3c0.3-0.3,0.8-0.3,1.1,0
					c0.3,0.3,0.3,0.8,0,1.1l-1.3,1.3C119.4,127.9,119.2,128,119,128z"/>
			</g>
			<g>
				<path fill="#231F20" d="M124.3,128c-0.2,0-0.4-0.1-0.5-0.2l-1.3-1.3c-0.3-0.3-0.3-0.8,0-1.1c0.3-0.3,0.8-0.3,1.1,0l1.3,1.3
					c0.3,0.3,0.3,0.8,0,1.1C124.7,127.9,124.5,128,124.3,128z"/>
			</g>
			<g>
				<path fill="#231F20" d="M120.3,124c-0.2,0-0.4-0.1-0.5-0.2l-1.3-1.3c-0.3-0.3-0.3-0.8,0-1.1c0.3-0.3,0.8-0.3,1.1,0l1.3,1.3
					c0.3,0.3,0.3,0.8,0,1.1C120.7,123.9,120.5,124,120.3,124z"/>
			</g>
		</g>
		<g>
			<g>
				<path fill="#231F20" d="M4.8,26c-0.2,0-0.4-0.1-0.5-0.2C4,25.5,4,25,4.2,24.7l1.3-1.3c0.3-0.3,0.8-0.3,1.1,0
					c0.3,0.3,0.3,0.8,0,1.1l-1.3,1.3C5.2,25.9,5,26,4.8,26z"/>
			</g>
			<g>
				<path fill="#231F20" d="M0.7,30c-0.2,0-0.4-0.1-0.5-0.2c-0.3-0.3-0.3-0.8,0-1.1l1.3-1.3c0.3-0.3,0.8-0.3,1.1,0
					c0.3,0.3,0.3,0.8,0,1.1l-1.3,1.3C1.1,29.9,0.9,30,0.7,30z"/>
			</g>
			<g>
				<path fill="#231F20" d="M6.1,30c-0.2,0-0.4-0.1-0.5-0.2l-1.3-1.3c-0.3-0.3-0.3-0.8,0-1.1c0.3-0.3,0.8-0.3,1.1,0l1.3,1.3
					c0.3,0.3,0.3,0.8,0,1.1C6.4,29.9,6.3,30,6.1,30z"/>
			</g>
			<g>
				<path fill="#231F20" d="M2,26c-0.2,0-0.4-0.1-0.5-0.2l-1.3-1.3c-0.3-0.3-0.3-0.8,0-1.1c0.3-0.3,0.8-0.3,1.1,0l1.3,1.3
					c0.3,0.3,0.3,0.8,0,1.1C2.4,25.9,2.2,26,2,26z"/>
			</g>
		</g>
		<g>
			<line fill="#FFFFFF" x1="103" y1="75.8" x2="103" y2="77.9"/>
			<path fill="#231F20" d="M103,78.7c-0.4,0-0.8-0.3-0.8-0.8v-2.1c0-0.4,0.3-0.8,0.8-0.8c0.4,0,0.8,0.3,0.8,0.8v2.1
				C103.7,78.3,103.4,78.7,103,78.7z"/>
		</g>
		<g>
			<line fill="#FFFFFF" x1="96.3" y1="74.4" x2="96.3" y2="77.9"/>
			<path fill="#231F20" d="M96.3,78.7c-0.4,0-0.8-0.3-0.8-0.8v-3.6c0-0.4,0.3-0.8,0.8-0.8c0.4,0,0.8,0.3,0.8,0.8v3.6
				C97.1,78.3,96.7,78.7,96.3,78.7z"/>
		</g>
		<g>
			<line fill="#FFFFFF" x1="89.7" y1="72.5" x2="89.7" y2="77.9"/>
			<path fill="#231F20" d="M89.7,78.7c-0.4,0-0.8-0.3-0.8-0.8v-5.4c0-0.4,0.3-0.8,0.8-0.8c0.4,0,0.8,0.3,0.8,0.8v5.4
				C90.5,78.3,90.2,78.7,89.7,78.7z"/>
		</g>
		<g>
			<line fill="#FFFFFF" x1="83.1" y1="80.2" x2="83.1" y2="88.1"/>
			<path fill="#231F20" d="M83.1,88.9c-0.4,0-0.8-0.3-0.8-0.8v-7.9c0-0.4,0.3-0.8,0.8-0.8s0.8,0.3,0.8,0.8v7.9
				C83.9,88.5,83.5,88.9,83.1,88.9z"/>
		</g>
		<path fill="#E6E9EE" d="M106.6,72.1c-2-0.2-3.6,1.4-3.6,3.3v-0.9c0-1.7-1.3-3.3-3-3.4c-2-0.2-3.6,1.4-3.6,3.3v-1.9
			c0-1.9-1.7-3.5-3.6-3.3c-1.7,0.2-3,1.7-3,3.4l0-11.8c0-1.9-1.7-3.5-3.6-3.3c-1.7,0.2-3,1.7-3,3.4v19.3c0-1.9-1.7-3.5-3.6-3.3
			c-1.7,0.2-3,1.7-3,3.4v9.9c0,4.7,2.1,9.1,5.8,12c2.6,2.1,4.1,5.2,4.1,8.5v4.2h20.3v-4.7c0-1.6,0.1-3.2,0.4-4.8l2-6.6
			c0.3-1.6,0.4-3.2,0.4-4.8V75.5C109.6,73.8,108.3,72.2,106.6,72.1z"/>
		<rect x="82.3" y="115" fill="#FFFFFF" width="28.9" height="9"/>
		<path fill="#FFD05B" d="M49.9,20.4c0-8.4-7-15.2-15.5-14.8c-7.5,0.3-13.8,6.6-14.1,14.1c-0.2,4.3,1.4,8.1,4.2,11
			c2.2,2.3,3.6,5.3,3.6,8.5V44h14v-4.5c0-3.3,1.4-6.5,3.7-8.9C48.3,27.9,49.9,24.3,49.9,20.4z"/>
		<path fill="#FFFFFF" d="M44.2,44H26v7.3c0,1.7,1.4,3.1,3.1,3.1h12c1.7,0,3.1-1.4,3.1-3.1V44z"/>
		<circle fill="#FFFFFF" cx="32" cy="20.8" r="3.1"/>
		<circle fill="#FFFFFF" cx="38.1" cy="20.8" r="3.1"/>
		<g>
			<line fill="#FFFFFF" x1="35.1" y1="44" x2="35.1" y2="19.9"/>
			<path fill="#231F20" d="M128.8,41.5h-6.3v-7.1c0-0.4-0.3-0.8-0.8-0.8H75.2c-4.8,0-8.8,3-10.4,7.2c-1.6-4.2-5.7-7.2-10.4-7.2h-9.9
				c0.5-0.9,1.1-1.8,1.9-2.5c2.8-2.9,4.3-6.7,4.3-10.7c0-8.8-7.4-15.9-16.3-15.5c-8,0.4-14.5,6.9-14.8,14.8
				c-0.2,4.3,1.4,8.4,4.4,11.5c0.7,0.8,1.4,1.6,1.9,2.5H7.8c-0.4,0-0.8,0.3-0.8,0.8v7.1H0.7c-0.4,0-0.7,0.3-0.7,0.8v73.9
				c0,0.4,0.3,0.8,0.7,0.8h54.4c0.4,3.2,3.1,5.7,6.4,5.7h6.4c3.3,0,6.1-2.5,6.4-5.7h7.1v7c0,0.4,0.3,0.8,0.8,0.8h28.9
				c0.4,0,0.8-0.3,0.8-0.8v-7h16.8c0.4,0,0.8-0.3,0.8-0.8V42.3C129.5,41.9,129.2,41.5,128.8,41.5z M65.5,44.8c0-5.3,4.3-9.7,9.7-9.7
				h45.7l0,72.1h-13.2c0.1-0.6,0.1-1.1,0.2-1.7l2-6.7c0.3-1.6,0.4-3.3,0.4-5V75.5c0-2.1-1.6-4-3.7-4.2c-1.3-0.1-2.6,0.4-3.4,1.3
				c-0.6-1.3-1.8-2.2-3.2-2.3c-1.2-0.1-2.3,0.3-3.1,1c-0.5-1.8-2.3-3.1-4.3-2.9c-0.8,0.1-1.6,0.4-2.2,0.9v-8.6c0-2.4-2-4.3-4.4-4
				c-2.1,0.2-3.7,2-3.7,4.2v16.2c-0.8-0.6-1.8-1-3-0.9c-2.1,0.2-3.7,2-3.7,4.2v9.9c0,5,2.2,9.6,6.1,12.6c1.5,1.2,2.6,2.7,3.2,4.4
				h-9.9c-4.1,0-7.7,2.2-9.7,5.6V44.8z M87.2,114.2v-3.4c0-3.6-1.6-6.9-4.4-9.1c-3.5-2.8-5.5-7-5.5-11.4v-9.9c0-1.4,1-2.6,2.3-2.7
				c1.5-0.2,2.8,1,2.8,2.5c0,0.4,0.3,0.8,0.8,0.8s0.8-0.3,0.8-0.8V60.9c0-1.4,1-2.6,2.3-2.7c1.5-0.2,2.8,1,2.8,2.5v11.8
				c0,0.4,0.3,0.8,0.8,0.8c0.4,0,0.8-0.3,0.8-0.8c0-1.4,1-2.6,2.3-2.7c1.5-0.1,2.8,1.1,2.8,2.5v1.9c0,0.4,0.3,0.8,0.8,0.8
				c0.4,0,0.8-0.3,0.8-0.8c0-1.5,1.3-2.7,2.8-2.5c1.3,0.1,2.3,1.3,2.3,2.7v0.9c0,0.4,0.3,0.8,0.8,0.8c0.4,0,0.8-0.3,0.8-0.8
				c0-1.5,1.3-2.7,2.8-2.5c1.3,0.1,2.3,1.3,2.3,2.7v18.4c0,1.6-0.1,3.2-0.4,4.6l-2,6.7c-0.3,1.6-0.4,3.3-0.4,5v4H87.2z M25,30.1
				c-2.7-2.8-4.1-6.5-4-10.4c0.3-7.2,6.2-13.1,13.4-13.4c8.1-0.4,14.7,6.1,14.7,14c0,3.6-1.4,7.1-3.9,9.7c-2.5,2.6-3.9,6-3.9,9.5
				v3.8h-5.5V23.9c0.6,0.5,1.5,0.8,2.3,0.8c2.1,0,3.8-1.7,3.8-3.8S40.3,17,38.1,17c-1.3,0-2.4,0.6-3.1,1.6c-0.7-1-1.8-1.6-3.1-1.6
				c-2.1,0-3.8,1.7-3.8,3.8s1.7,3.8,3.8,3.8c0.9,0,1.7-0.3,2.3-0.8v19.4h-5.5v-4.1C28.8,35.9,27.5,32.7,25,30.1z M43.4,44.8v6.5
				c0,1.3-1,2.3-2.3,2.3H29c-1.3,0-2.3-1.1-2.3-2.3v-6.5H43.4z M35.8,20.8c0-1.3,1-2.3,2.3-2.3c1.3,0,2.3,1,2.3,2.3s-1,2.3-2.3,2.3
				C36.9,23.2,35.8,22.1,35.8,20.8z M34.3,20.8c0,1.3-1,2.3-2.3,2.3c-1.3,0-2.3-1-2.3-2.3s1-2.3,2.3-2.3
				C33.3,18.5,34.3,19.6,34.3,20.8z M8.6,35.1h17.9c0.5,1.3,0.8,2.6,0.8,4v4.1H26c-0.4,0-0.8,0.3-0.8,0.8v7.3c0,2.1,1.7,3.8,3.8,3.8
				h12c2.1,0,3.8-1.7,3.8-3.8V44c0-0.4-0.3-0.8-0.8-0.8h-1.4v-3.8c0-1.5,0.3-3,0.9-4.4h10.6c5.3,0,9.7,4.3,9.7,9.7v68
				c-2-3.4-5.6-5.6-9.7-5.6H8.6v-65c0,0,0,0,0,0V35.1z M81.5,115v0.5h-7.9c-0.4,0-0.8,0.3-0.8,0.8c0,2.8-2.2,5-5,5h-6.4
				c-2.8,0-5-2.2-5-5c0-0.4-0.3-0.8-0.8-0.8H1.5V43h5.6l0,65c0,0.4,0.3,0.8,0.8,0.8h46.5c4.5,0,8.5,3.2,9.5,7.6
				c0.1,0.3,0.4,0.6,0.7,0.6H65c0.4,0,0.7-0.2,0.7-0.6c1-4.4,4.9-7.6,9.5-7.6h10.3c0.1,0.7,0.2,1.3,0.2,2v3.4h-3.5
				C81.9,114.2,81.5,114.5,81.5,115z M110.4,123.2H83v-7.5h3.4c0,0,0,0,0,0h20.3c0,0,0,0,0,0h3.6V123.2z M128,115.4h-16.1V115
				c0-0.4-0.3-0.8-0.8-0.8h-3.7v-4c0-0.5,0-1,0.1-1.5h14.1c0.4,0,0.8-0.3,0.8-0.8V43h5.6V115.4z"/>
			<line fill="#FFFFFF" x1="31.6" y1="57.4" x2="38.6" y2="57.4"/>
			<rect x="31.6" y="56.7" fill="#231F20" width="7" height="1.5"/>
		</g>
		<g>
			<path fill="#231F20" d="M79.4,8.7c-2,0-3.6-1.6-3.6-3.6c0-2,1.6-3.6,3.6-3.6S83,3.1,83,5.1C83,7.1,81.4,8.7,79.4,8.7z M79.4,3
				c-1.2,0-2.1,1-2.1,2.1c0,1.2,1,2.1,2.1,2.1s2.1-1,2.1-2.1C81.5,3.9,80.6,3,79.4,3z"/>
		</g>
		<g>
			<circle fill="#84DBFF" cx="7.8" cy="12.7" r="2.9"/>
		</g>
		<g>
			<circle fill="#FF7058" cx="64.7" cy="20.8" r="2.9"/>
		</g>
		<g>
			<circle fill="#84DBFF" cx="124.3" cy="9.9" r="2.9"/>
		</g>
		<g>
			<path fill="#231F20" d="M124.4,23.6c0-0.4-0.3-0.8-0.8-0.8h-7.4c-0.4,0-0.8,0.3-0.8,0.8c0,0.4,0.3,0.8,0.8,0.8h7.4
				C124.1,24.4,124.4,24,124.4,23.6z"/>
			<path fill="#231F20" d="M128.8,22.9h-2.4c-0.4,0-0.8,0.3-0.8,0.8c0,0.4,0.3,0.8,0.8,0.8h2.4c0.4,0,0.8-0.3,0.8-0.8
				C129.5,23.2,129.2,22.9,128.8,22.9z"/>
			<path fill="#231F20" d="M121.2,26h-2.8c-0.4,0-0.8,0.3-0.8,0.8c0,0.4,0.3,0.8,0.8,0.8h2.8c0.4,0,0.8-0.3,0.8-0.8
				C121.9,26.4,121.6,26,121.2,26z"/>
			<path fill="#231F20" d="M126.2,26h-2.4c-0.4,0-0.8,0.3-0.8,0.8c0,0.4,0.3,0.8,0.8,0.8h2.4c0.4,0,0.8-0.3,0.8-0.8
				C127,26.4,126.6,26,126.2,26z"/>
		</g>
		<g>
			<path fill="#231F20" d="M63.8,5.6c0-0.4-0.3-0.8-0.8-0.8h-7.2c-0.4,0-0.8,0.3-0.8,0.8c0,0.4,0.3,0.8,0.8,0.8H63
				C63.4,6.3,63.8,6,63.8,5.6z"/>
			<path fill="#231F20" d="M67.9,4.8h-2.3c-0.4,0-0.8,0.3-0.8,0.8c0,0.4,0.3,0.8,0.8,0.8h2.3c0.4,0,0.8-0.3,0.8-0.8
				C68.7,5.2,68.3,4.8,67.9,4.8z"/>
			<path fill="#231F20" d="M60.5,8h-2.7c-0.4,0-0.8,0.3-0.8,0.8c0,0.4,0.3,0.8,0.8,0.8h2.7c0.4,0,0.8-0.3,0.8-0.8
				C61.3,8.3,61,8,60.5,8z"/>
			<path fill="#231F20" d="M65.5,8h-2.3c-0.4,0-0.8,0.3-0.8,0.8c0,0.4,0.3,0.8,0.8,0.8h2.3c0.4,0,0.8-0.3,0.8-0.8
				C66.2,8.3,65.9,8,65.5,8z"/>
		</g>
	</g>
</g>
</svg>
