<?xml version="1.0" encoding="utf-8"?>
<!-- Generator: Adobe Illustrator 18.0.0, SVG Export Plug-In . SVG Version: 6.00 Build 0)  -->
<!DOCTYPE svg PUBLIC "-//W3C//DTD SVG 1.1//EN" "http://www.w3.org/Graphics/SVG/1.1/DTD/svg11.dtd">
<svg version="1.1" id="Layer_1" xmlns="http://www.w3.org/2000/svg" xmlns:xlink="http://www.w3.org/1999/xlink" x="0px" y="0px"
	 viewBox="0 0 129.5 129.5" enable-background="new 0 0 129.5 129.5" xml:space="preserve">
<g>
	<g>
		
			<path fill="#FFFFFF" stroke="#231F20" stroke-width="1.5" stroke-linecap="round" stroke-linejoin="round" stroke-miterlimit="10" d="
			M1.1,71.9"/>
		<g>
			<path fill="#231F20" d="M73.3,129.5H48.9c-0.4,0-0.8-0.3-0.8-0.8c0-0.4,0.3-0.8,0.8-0.8h24.4c0.4,0,0.8,0.3,0.8,0.8
				C74,129.2,73.7,129.5,73.3,129.5z"/>
		</g>
		<g>
			<path fill="#231F20" d="M81.4,129.5H77c-0.4,0-0.8-0.3-0.8-0.8c0-0.4,0.3-0.8,0.8-0.8h4.3c0.4,0,0.8,0.3,0.8,0.8
				C82.1,129.2,81.8,129.5,81.4,129.5z"/>
		</g>
		<g>
			<path fill="#231F20" d="M106.1,124.5H81.7c-0.4,0-0.8-0.3-0.8-0.8s0.3-0.8,0.8-0.8h24.4c0.4,0,0.8,0.3,0.8,0.8
				S106.5,124.5,106.1,124.5z"/>
		</g>
		<g>
			<path fill="#231F20" d="M114.2,124.5h-4.3c-0.4,0-0.8-0.3-0.8-0.8s0.3-0.8,0.8-0.8h4.3c0.4,0,0.8,0.3,0.8,0.8
				S114.6,124.5,114.2,124.5z"/>
		</g>
		<g>
			<path fill="#231F20" d="M18.8,126h-5.3c-0.4,0-0.8-0.3-0.8-0.8c0-0.4,0.3-0.8,0.8-0.8h5.3c0.4,0,0.8,0.3,0.8,0.8
				C19.6,125.7,19.2,126,18.8,126z"/>
		</g>
		<g>
			<path fill="#231F20" d="M61.7,126H24.3c-0.4,0-0.8-0.3-0.8-0.8c0-0.4,0.3-0.8,0.8-0.8h37.5c0.4,0,0.8,0.3,0.8,0.8
				C62.5,125.7,62.2,126,61.7,126z"/>
		</g>
		<polygon fill="#FFFFFF" points="29.6,65 1.1,54.4 1.1,0.7 29.6,11.3 		"/>
		<polygon fill="#FFFFFF" points="29.6,65 58,54.4 58,0.7 29.6,11.3 		"/>
		<polygon fill="#FFFFFF" points="86.5,65 58,54.4 58,0.7 86.5,11.3 		"/>
		<rect x="28.8" y="85.7" fill="#FFFFFF" width="52.5" height="30.1"/>
		<polygon fill="#FFFFFF" points="101.4,115.9 81.4,115.9 81.4,93 91.5,93 101.4,104.4 		"/>
		<g>
			<polygon fill="#84DBFF" points="98.5,105 90.3,95.5 84,95.5 84,105 			"/>
		</g>
		<circle fill="#FFFFFF" cx="36.2" cy="115.9" r="4.5"/>
		<circle fill="#FFFFFF" cx="45.3" cy="115.9" r="4.5"/>
		<circle fill="#FFFFFF" cx="92.7" cy="115.9" r="4.5"/>
		<path fill="#231F20" d="M129.1,119.6H96.3c0.8-0.8,1.4-1.8,1.6-3h4.3v-12.5L91.8,92.2h-9.7V85h-54v31.6H31c0.2,1.2,0.7,2.2,1.6,3
			H1.1v1.5h128V119.6z M45.3,119.6c-2.1,0-3.8-1.7-3.8-3.8c0-2.1,1.7-3.8,3.8-3.8c2.1,0,3.8,1.7,3.8,3.8
			C49.1,118,47.4,119.6,45.3,119.6z M50.5,116.6h37c0.2,1.2,0.7,2.2,1.6,3H48.9C49.7,118.9,50.3,117.8,50.5,116.6z M41.6,119.6h-1.8
			c0.3-0.3,0.6-0.7,0.9-1.1C41,118.9,41.3,119.3,41.6,119.6z M92.7,119.6c-2.1,0-3.8-1.7-3.8-3.8c0-2.1,1.7-3.8,3.8-3.8
			c2.1,0,3.8,1.7,3.8,3.8C96.5,118,94.8,119.6,92.7,119.6z M82.1,93.7h9l9.5,11v10.4h-2.8c-0.4-2.6-2.5-4.5-5.2-4.5
			c-2.7,0-4.8,2-5.2,4.5h-5.4V93.7z M29.6,115.1V86.5h51v28.6H50.5c-0.4-2.6-2.5-4.5-5.2-4.5c-1.9,0-3.6,1.1-4.5,2.6
			c-0.9-1.6-2.6-2.6-4.5-2.6c-2.7,0-4.8,2-5.2,4.5H29.6z M32.4,115.9c0-2.1,1.7-3.8,3.8-3.8s3.8,1.7,3.8,3.8c0,2.1-1.7,3.8-3.8,3.8
			S32.4,118,32.4,115.9z"/>
		<path fill="#FFFFFF" d="M126.5,54.2c0,14.6-16,29.7-16,29.7s-16-15-16-29.7c0-8.8,7.2-16,16-16C119.3,38.2,126.5,45.3,126.5,54.2z
			"/>
		<path fill="#231F20" d="M110.5,84.8l-0.5-0.5c-0.7-0.6-16.2-15.4-16.2-30.2c0-9.2,7.5-16.7,16.7-16.7s16.7,7.5,16.7,16.7
			c0,14.8-15.6,29.6-16.2,30.2L110.5,84.8z M110.5,38.9c-8.4,0-15.2,6.8-15.2,15.2c0,12.7,12.5,25.9,15.2,28.6
			c2.7-2.7,15.2-15.9,15.2-28.6C125.7,45.8,118.9,38.9,110.5,38.9z"/>
		<g>
			<path fill="#84DBFF" d="M120.2,54.4c0,2.8-1.2,5.4-3.2,7.2c-1.7,1.6-4,2.5-6.5,2.5c-2.5,0-4.8-1-6.5-2.5
				c-1.9-1.8-3.2-4.3-3.2-7.2c0-2.8,1.2-5.4,3.2-7.2c1.7-1.6,4-2.5,6.5-2.5c2.5,0,4.8,1,6.5,2.5C119,49,120.2,51.5,120.2,54.4z"/>
		</g>
		<path fill="#FFFFFF" d="M77.3,72.2c0.9-2.5,1.2-5.2,0.5-7.9c-1.7-7.5-9.2-12.2-16.7-10.5c-7.5,1.7-12.2,9.2-10.5,16.7
			c1.7,7.5,9.2,12.2,16.7,10.5c2.7-0.6,5.1-2,6.9-3.9l6.7,0.8L77.3,72.2z"/>
		<path fill="#FFFFFF" d="M39.9,62.8c-0.9-2.5-1.2-5.2-0.5-7.9C41,47.4,48.5,42.7,56,44.4c7.5,1.7,12.2,9.2,10.5,16.7
			c-1.7,7.5-9.2,12.2-16.7,10.5c-2.7-0.6-5.1-2-6.9-3.9l-6.7,0.8L39.9,62.8z"/>
		<g>
			<path fill="#231F20" d="M17.5,80.6c-0.2,0-0.4-0.1-0.5-0.2c-0.3-0.3-0.3-0.8,0-1.1l1.3-1.3c0.3-0.3,0.8-0.3,1.1,0
				c0.3,0.3,0.3,0.8,0,1.1L18,80.4C17.9,80.6,17.7,80.6,17.5,80.6z"/>
		</g>
		<g>
			<path fill="#231F20" d="M13.5,84.7c-0.2,0-0.4-0.1-0.5-0.2c-0.3-0.3-0.3-0.8,0-1.1l1.3-1.3c0.3-0.3,0.8-0.3,1.1,0
				c0.3,0.3,0.3,0.8,0,1.1L14,84.5C13.9,84.6,13.7,84.7,13.5,84.7z"/>
		</g>
		<g>
			<path fill="#231F20" d="M18.8,84.7c-0.2,0-0.4-0.1-0.5-0.2L17,83.2c-0.3-0.3-0.3-0.8,0-1.1c0.3-0.3,0.8-0.3,1.1,0l1.3,1.3
				c0.3,0.3,0.3,0.8,0,1.1C19.2,84.6,19,84.7,18.8,84.7z"/>
		</g>
		<g>
			<path fill="#231F20" d="M14.8,80.6c-0.2,0-0.4-0.1-0.5-0.2L13,79.1c-0.3-0.3-0.3-0.8,0-1.1c0.3-0.3,0.8-0.3,1.1,0l1.3,1.3
				c0.3,0.3,0.3,0.8,0,1.1C15.2,80.6,15,80.6,14.8,80.6z"/>
		</g>
		<g>
			<path fill="#231F20" d="M120.2,27.8c-0.2,0-0.4-0.1-0.5-0.2c-0.3-0.3-0.3-0.8,0-1.1l1.3-1.3c0.3-0.3,0.8-0.3,1.1,0
				c0.3,0.3,0.3,0.8,0,1.1l-1.3,1.3C120.6,27.7,120.4,27.8,120.2,27.8z"/>
		</g>
		<g>
			<path fill="#231F20" d="M116.2,31.8c-0.2,0-0.4-0.1-0.5-0.2c-0.3-0.3-0.3-0.8,0-1.1l1.3-1.3c0.3-0.3,0.8-0.3,1.1,0
				c0.3,0.3,0.3,0.8,0,1.1l-1.3,1.3C116.6,31.7,116.4,31.8,116.2,31.8z"/>
		</g>
		<g>
			<path fill="#231F20" d="M121.5,31.8c-0.2,0-0.4-0.1-0.5-0.2l-1.3-1.3c-0.3-0.3-0.3-0.8,0-1.1c0.3-0.3,0.8-0.3,1.1,0l1.3,1.3
				c0.3,0.3,0.3,0.8,0,1.1C121.9,31.7,121.7,31.8,121.5,31.8z"/>
		</g>
		<g>
			<path fill="#231F20" d="M117.5,27.8c-0.2,0-0.4-0.1-0.5-0.2l-1.3-1.3c-0.3-0.3-0.3-0.8,0-1.1c0.3-0.3,0.8-0.3,1.1,0l1.3,1.3
				c0.3,0.3,0.3,0.8,0,1.1C117.9,27.7,117.7,27.8,117.5,27.8z"/>
		</g>
		<g>
			<path fill="#231F20" d="M30.9,2.8c-0.2,0-0.4-0.1-0.5-0.2c-0.3-0.3-0.3-0.8,0-1.1l1.3-1.3c0.3-0.3,0.8-0.3,1.1,0
				c0.3,0.3,0.3,0.8,0,1.1l-1.3,1.3C31.3,2.7,31.1,2.8,30.9,2.8z"/>
		</g>
		<g>
			<path fill="#231F20" d="M26.9,6.8c-0.2,0-0.4-0.1-0.5-0.2c-0.3-0.3-0.3-0.8,0-1.1l1.3-1.3C28,4,28.4,4,28.7,4.2
				C29,4.5,29,5,28.7,5.3l-1.3,1.3C27.3,6.7,27.1,6.8,26.9,6.8z"/>
		</g>
		<g>
			<path fill="#231F20" d="M32.2,6.8c-0.2,0-0.4-0.1-0.5-0.2l-1.3-1.3c-0.3-0.3-0.3-0.8,0-1.1c0.3-0.3,0.8-0.3,1.1,0l1.3,1.3
				c0.3,0.3,0.3,0.8,0,1.1C32.6,6.7,32.4,6.8,32.2,6.8z"/>
		</g>
		<g>
			<path fill="#231F20" d="M28.2,2.8c-0.2,0-0.4-0.1-0.5-0.2l-1.3-1.3c-0.3-0.3-0.3-0.8,0-1.1c0.3-0.3,0.8-0.3,1.1,0l1.3,1.3
				c0.3,0.3,0.3,0.8,0,1.1C28.6,2.7,28.4,2.8,28.2,2.8z"/>
		</g>
		<g>
			<path fill="#231F20" d="M94.1,80.6c-0.2,0-0.4-0.1-0.5-0.2c-0.3-0.3-0.3-0.8,0-1.1l1.3-1.3c0.3-0.3,0.8-0.3,1.1,0
				c0.3,0.3,0.3,0.8,0,1.1l-1.3,1.3C94.5,80.6,94.3,80.6,94.1,80.6z"/>
		</g>
		<g>
			<path fill="#231F20" d="M90,84.7c-0.2,0-0.4-0.1-0.5-0.2c-0.3-0.3-0.3-0.8,0-1.1l1.3-1.3c0.3-0.3,0.8-0.3,1.1,0
				c0.3,0.3,0.3,0.8,0,1.1l-1.3,1.3C90.4,84.6,90.2,84.7,90,84.7z"/>
		</g>
		<g>
			<path fill="#231F20" d="M95.4,84.7c-0.2,0-0.4-0.1-0.5-0.2l-1.3-1.3c-0.3-0.3-0.3-0.8,0-1.1c0.3-0.3,0.8-0.3,1.1,0l1.3,1.3
				c0.3,0.3,0.3,0.8,0,1.1C95.7,84.6,95.5,84.7,95.4,84.7z"/>
		</g>
		<g>
			<path fill="#231F20" d="M91.3,80.6c-0.2,0-0.4-0.1-0.5-0.2l-1.3-1.3c-0.3-0.3-0.3-0.8,0-1.1c0.3-0.3,0.8-0.3,1.1,0l1.3,1.3
				c0.3,0.3,0.3,0.8,0,1.1C91.7,80.6,91.5,80.6,91.3,80.6z"/>
		</g>
		<g>
			<path fill="#231F20" d="M115.2,94.8h-8.1c-0.4,0-0.8-0.3-0.8-0.8c0-0.4,0.3-0.8,0.8-0.8h8.1c0.4,0,0.8,0.3,0.8,0.8
				C115.9,94.5,115.6,94.8,115.2,94.8z"/>
		</g>
		<g>
			<path fill="#231F20" d="M118.4,97.8h-4c-0.4,0-0.8-0.3-0.8-0.8c0-0.4,0.3-0.8,0.8-0.8h4c0.4,0,0.8,0.3,0.8,0.8
				C119.1,97.4,118.8,97.8,118.4,97.8z"/>
		</g>
		<g>
			<path fill="#231F20" d="M122.6,94.8h-3.8c-0.4,0-0.8-0.3-0.8-0.8c0-0.4,0.3-0.8,0.8-0.8h3.8c0.4,0,0.8,0.3,0.8,0.8
				C123.4,94.5,123,94.8,122.6,94.8z"/>
		</g>
		<g>
			<path fill="#231F20" d="M111.5,97.8h-0.8c-0.4,0-0.8-0.3-0.8-0.8c0-0.4,0.3-0.8,0.8-0.8h0.8c0.4,0,0.8,0.3,0.8,0.8
				C112.3,97.4,111.9,97.8,111.5,97.8z"/>
		</g>
		<g>
			<path fill="#231F20" d="M14.7,108.8H6.6c-0.4,0-0.8-0.3-0.8-0.8c0-0.4,0.3-0.8,0.8-0.8h8.1c0.4,0,0.8,0.3,0.8,0.8
				C15.4,108.5,15.1,108.8,14.7,108.8z"/>
		</g>
		<g>
			<path fill="#231F20" d="M17.9,111.8h-4c-0.4,0-0.8-0.3-0.8-0.8c0-0.4,0.3-0.8,0.8-0.8h4c0.4,0,0.8,0.3,0.8,0.8
				C18.6,111.4,18.3,111.8,17.9,111.8z"/>
		</g>
		<g>
			<path fill="#231F20" d="M22.1,108.8h-3.8c-0.4,0-0.8-0.3-0.8-0.8c0-0.4,0.3-0.8,0.8-0.8h3.8c0.4,0,0.8,0.3,0.8,0.8
				C22.9,108.5,22.5,108.8,22.1,108.8z"/>
		</g>
		<g>
			<path fill="#231F20" d="M11,111.8h-0.8c-0.4,0-0.8-0.3-0.8-0.8c0-0.4,0.3-0.8,0.8-0.8H11c0.4,0,0.8,0.3,0.8,0.8
				C11.8,111.4,11.4,111.8,11,111.8z"/>
		</g>
		<path fill="#231F20" d="M86.7,10.6L58.3,0c0,0-0.1,0-0.1,0c-0.1,0-0.1,0-0.2,0c-0.1,0-0.1,0-0.2,0c0,0-0.1,0-0.1,0L29.6,10.5
			L1.4,0C1.2,0,0.9,0,0.7,0.1C0.5,0.3,0.4,0.5,0.4,0.8v53.6c0,0.3,0.2,0.6,0.5,0.7l6.5,2.4L0.5,71.6c-0.2,0.4,0,0.8,0.3,1
			c0.1,0.1,0.2,0.1,0.3,0.1c0.3,0,0.5-0.2,0.7-0.4l7-14.2l20.6,7.7c0,0,0,0,0,0c0.1,0,0.2,0,0.2,0c0.1,0,0.2,0,0.2,0c0,0,0,0,0,0
			l9.1-3.4c0,0.1,0.1,0.3,0.1,0.4l-3.4,5.4c-0.2,0.2-0.2,0.6,0,0.8c0.2,0.2,0.4,0.4,0.7,0.3l6.3-0.8c1.9,1.9,4.4,3.2,7,3.8
			c0.3,0.1,0.5,0.1,0.8,0.1C52.6,78.2,58,82,64.2,82c1.1,0,2.2-0.1,3.2-0.4c2.7-0.6,5.1-1.9,7-3.8l6.3,0.8c0.3,0,0.6-0.1,0.7-0.3
			c0.2-0.2,0.2-0.6,0-0.8l-3.4-5.4c0.9-2.6,1-5.3,0.4-8c-0.1-0.5-0.2-0.9-0.4-1.4l8.1,3c0.1,0,0.2,0,0.3,0c0.2,0,0.3,0,0.4-0.1
			c0.2-0.1,0.3-0.4,0.3-0.6V11.3C87.2,11,87,10.7,86.7,10.6z M57.3,1.8v29l-8.3-8.3c-0.2-0.2-0.4-0.2-0.6-0.2
			c-0.2,0-0.4,0.2-0.6,0.4L35.4,44.5l-5.1-5.1V11.9L57.3,1.8z M1.9,53.9v-52l27,10v26l-7.2-7.2c-0.2-0.2-0.4-0.3-0.7-0.2
			c-0.2,0-0.4,0.2-0.6,0.4L8,56.2L1.9,53.9z M9.4,56.7l11.9-24.3l7.5,7.5v23.9L9.4,56.7z M38.6,54.8c-0.5,2-0.5,4.1-0.1,6.1
			l-8.2,3.1V41.5l4.7,4.7c0.2,0.2,0.4,0.2,0.6,0.2c0.2,0,0.4-0.2,0.6-0.4l12.3-21.8l8.7,8.7v11c-0.4-0.1-0.7-0.2-1.1-0.3
			c-1.1-0.2-2.2-0.4-3.2-0.4C46,43.3,40.1,48,38.6,54.8z M50,70.8c-2.5-0.6-4.8-1.8-6.6-3.7c-0.1-0.1-0.3-0.2-0.5-0.2
			c0,0-0.1,0-0.1,0l-5.1,0.6l2.7-4.3c0.1-0.2,0.2-0.4,0.1-0.7c-0.9-2.4-1.1-5-0.5-7.5c1.3-6,6.7-10.3,12.8-10.3c1,0,2,0.1,2.9,0.3
			c3.4,0.8,6.4,2.8,8.2,5.8c1.9,3,2.5,6.5,1.7,9.9c-1.4,6.1-6.6,10.3-12.8,10.3C52,71.2,51,71.1,50,70.8z M79.4,76.9l-5.1-0.6
			c-0.2,0-0.5,0.1-0.6,0.2c-1.8,1.8-4,3.1-6.6,3.7c-1,0.2-1.9,0.3-2.9,0.3c-5.2,0-10-3.2-12-7.9c0.2,0,0.5,0,0.7,0
			c6.9,0,12.8-4.7,14.3-11.4c0.5-2.3,0.5-4.5-0.1-6.7c4.8,1.1,8.8,4.9,9.9,9.9c0.6,2.5,0.4,5.1-0.5,7.5c-0.1,0.2-0.1,0.5,0.1,0.7
			L79.4,76.9z M85.7,63.9l-8.3-3.1c-2.1-4.2-6.1-7.1-10.7-7.9c-0.4-0.9-0.8-1.8-1.3-2.7c-1.6-2.5-3.9-4.5-6.6-5.6v-10l3.9,3.9
			c0.2,0.2,0.4,0.2,0.6,0.2c0.2,0,0.4-0.1,0.5-0.3l5.2-7l0,1.9c0,0.4,0.3,0.7,0.8,0.7c0,0,0,0,0,0c0.4,0,0.7-0.3,0.7-0.8l0-4
			c0-0.2-0.1-0.4-0.3-0.6c-0.2-0.1-0.4-0.2-0.6-0.2l-0.1,0c0,0,0,0,0,0L65.7,29c-0.4,0.1-0.7,0.4-0.6,0.9c0.1,0.4,0.4,0.7,0.9,0.6
			l2-0.3l-4.8,6.5l-4.3-4.3V1.8l26.9,10V63.9z"/>
		<circle fill="#FF7058" cx="97.2" cy="34.5" r="2.5"/>
		<circle fill="#FFD05B" cx="29.6" cy="75.2" r="2.5"/>
		<path fill="#CED5E0" d="M103.7,16c0,0-0.1,0-0.1,0c0-0.3,0.1-0.6,0.1-0.8c0-3.1-2.5-5.7-5.7-5.7c-0.8,0-1.6,0.2-2.3,0.5
			c-1-2.4-3.4-4.1-6.2-4.1c-2.6,0-4.9,1.5-6,3.6c0,0-0.1,0-0.1,0c-3,0-5.5,2.5-5.5,5.5c0,0,0,0,0,0.1c-2.2,1-3.8,3.3-3.8,5.9
			c0,3.6,2.9,6.5,6.5,6.5h23.2c3.2,0,5.7-2.6,5.7-5.7C109.4,18.6,106.9,16,103.7,16z"/>
		<path fill="#E6E9EE" d="M123.4,10.9c0,0-0.1,0-0.1,0c0-0.3,0.1-0.6,0.1-0.8c0-3.1-2.5-5.7-5.7-5.7c-0.8,0-1.6,0.2-2.3,0.5
			c-1-2.4-3.4-4.1-6.2-4.1c-2.6,0-4.9,1.5-6,3.6c0,0-0.1,0-0.1,0c-3,0-5.5,2.5-5.5,5.5c0,0,0,0,0,0.1c-2.2,1-3.8,3.3-3.8,5.9
			c0,3.6,2.9,6.5,6.5,6.5h23.2c3.2,0,5.7-2.6,5.7-5.7C129.1,13.5,126.6,10.9,123.4,10.9z"/>
		<circle fill="#E6E9EE" cx="6.6" cy="97" r="2.5"/>
		<circle fill="#84DBFF" cx="116.2" cy="111" r="2.5"/>
		<circle fill="#FF7058" cx="21.1" cy="31.4" r="3"/>
		<circle fill="#84DBFF" cx="35.4" cy="45.4" r="3"/>
		<circle fill="#FFD05B" cx="48.4" cy="23.1" r="3"/>
		<circle fill="#E6E9EE" cx="63.5" cy="37.5" r="3"/>
		<path fill="#231F20" d="M122.5,54.4c0-6.6-5.3-11.9-11.9-12c0,0-0.1,0-0.1,0c0,0-0.1,0-0.1,0c-6.6,0.1-11.9,5.4-11.9,12
			c0,6.6,5.3,12,11.9,12c0,0,0.1,0,0.1,0c0,0,0.1,0,0.1,0C117.1,66.3,122.5,61,122.5,54.4z M120.9,53.6h-3.8c-0.1-3.7-1.1-7-2.7-9
			C118,46.1,120.6,49.6,120.9,53.6z M109.7,44v9.6h-4.4C105.5,48.8,107.4,44.7,109.7,44z M109.7,55.1v9.6c-2.3-0.7-4.2-4.8-4.4-9.6
			H109.7z M111.2,64.8v-9.6h4.4C115.4,60,113.5,64,111.2,64.8z M111.2,53.6V44c2.3,0.7,4.2,4.8,4.4,9.6H111.2z M106.5,44.7
			c-1.6,2-2.6,5.2-2.7,9H100C100.3,49.6,102.9,46.1,106.5,44.7z M100,55.1h3.8c0.1,3.7,1.1,7,2.7,9C102.9,62.6,100.3,59.2,100,55.1z
			 M114.4,64.1c1.6-2,2.6-5.2,2.7-9h3.8C120.6,59.2,118,62.6,114.4,64.1z"/>
	</g>
</g>
</svg>
