<?xml version="1.0" encoding="utf-8"?>
<!-- Generator: Adobe Illustrator 18.0.0, SVG Export Plug-In . SVG Version: 6.00 Build 0)  -->
<!DOCTYPE svg PUBLIC "-//W3C//DTD SVG 1.1//EN" "http://www.w3.org/Graphics/SVG/1.1/DTD/svg11.dtd">
<svg version="1.1" id="Layer_1" xmlns="http://www.w3.org/2000/svg" xmlns:xlink="http://www.w3.org/1999/xlink" x="0px" y="0px"
	 viewBox="0 0 129.5 129.5" enable-background="new 0 0 129.5 129.5" xml:space="preserve">
<g>
	<g>
		<path fill="#FFFFFF" d="M124,10.6H14.1v9.2l109.9,0c2.5,0,4.6-2.1,4.6-4.6l0,0C128.6,12.7,126.5,10.6,124,10.6z"/>
		<path fill="#FFFFFF" d="M119.2,19.8h4.8c2.5,0,4.6-2.1,4.6-4.6l0,0c0-2.5-2.1-4.6-4.6-4.6h-4.8V19.8z"/>
		<polygon fill="#FFFFFF" points="14.1,19.8 6.3,15.2 14.1,10.6 		"/>
		<g>
			<g>
				<path fill="#231F20" d="M14.1,27.5c-0.2,0-0.4-0.1-0.5-0.2c-0.3-0.3-0.3-0.8,0-1.1l1.3-1.3c0.3-0.3,0.8-0.3,1.1,0
					c0.3,0.3,0.3,0.8,0,1.1l-1.3,1.3C14.5,27.4,14.3,27.5,14.1,27.5z"/>
			</g>
			<g>
				<path fill="#231F20" d="M10.1,31.5c-0.2,0-0.4-0.1-0.5-0.2c-0.3-0.3-0.3-0.8,0-1.1l1.3-1.3c0.3-0.3,0.8-0.3,1.1,0
					c0.3,0.3,0.3,0.8,0,1.1l-1.3,1.3C10.5,31.4,10.3,31.5,10.1,31.5z"/>
			</g>
			<g>
				<path fill="#231F20" d="M15.4,31.5c-0.2,0-0.4-0.1-0.5-0.2L13.5,30c-0.3-0.3-0.3-0.8,0-1.1c0.3-0.3,0.8-0.3,1.1,0l1.3,1.3
					c0.3,0.3,0.3,0.8,0,1.1C15.8,31.4,15.6,31.5,15.4,31.5z"/>
			</g>
			<g>
				<path fill="#231F20" d="M11.3,27.5c-0.2,0-0.4-0.1-0.5-0.2L9.5,26c-0.3-0.3-0.3-0.8,0-1.1c0.3-0.3,0.8-0.3,1.1,0l1.3,1.3
					c0.3,0.3,0.3,0.8,0,1.1C11.7,27.4,11.5,27.5,11.3,27.5z"/>
			</g>
		</g>
		<g>
			<g>
				<path fill="#231F20" d="M125.3,75.6c-0.2,0-0.4-0.1-0.5-0.2c-0.3-0.3-0.3-0.8,0-1.1l1.3-1.3c0.3-0.3,0.8-0.3,1.1,0
					c0.3,0.3,0.3,0.8,0,1.1l-1.3,1.3C125.7,75.6,125.5,75.6,125.3,75.6z"/>
			</g>
			<g>
				<path fill="#231F20" d="M121.3,79.7c-0.2,0-0.4-0.1-0.5-0.2c-0.3-0.3-0.3-0.8,0-1.1l1.3-1.3c0.3-0.3,0.8-0.3,1.1,0
					c0.3,0.3,0.3,0.8,0,1.1l-1.3,1.3C121.7,79.6,121.5,79.7,121.3,79.7z"/>
			</g>
			<g>
				<path fill="#231F20" d="M126.6,79.7c-0.2,0-0.4-0.1-0.5-0.2l-1.3-1.3c-0.3-0.3-0.3-0.8,0-1.1c0.3-0.3,0.8-0.3,1.1,0l1.3,1.3
					c0.3,0.3,0.3,0.8,0,1.1C127,79.6,126.8,79.7,126.6,79.7z"/>
			</g>
			<g>
				<path fill="#231F20" d="M122.6,75.6c-0.2,0-0.4-0.1-0.5-0.2l-1.3-1.3c-0.3-0.3-0.3-0.8,0-1.1c0.3-0.3,0.8-0.3,1.1,0l1.3,1.3
					c0.3,0.3,0.3,0.8,0,1.1C122.9,75.6,122.7,75.6,122.6,75.6z"/>
			</g>
		</g>
		<g>
			<g>
				<path fill="#231F20" d="M82.9,103.6c-0.2,0-0.4-0.1-0.5-0.2c-0.3-0.3-0.3-0.8,0-1.1l1.3-1.3c0.3-0.3,0.8-0.3,1.1,0
					c0.3,0.3,0.3,0.8,0,1.1l-1.3,1.3C83.2,103.6,83.1,103.6,82.9,103.6z"/>
			</g>
			<g>
				<path fill="#231F20" d="M78.8,107.6c-0.2,0-0.4-0.1-0.5-0.2c-0.3-0.3-0.3-0.8,0-1.1l1.3-1.3c0.3-0.3,0.8-0.3,1.1,0
					c0.3,0.3,0.3,0.8,0,1.1l-1.3,1.3C79.2,107.6,79,107.6,78.8,107.6z"/>
			</g>
			<g>
				<path fill="#231F20" d="M84.1,107.6c-0.2,0-0.4-0.1-0.5-0.2l-1.3-1.3c-0.3-0.3-0.3-0.8,0-1.1c0.3-0.3,0.8-0.3,1.1,0l1.3,1.3
					c0.3,0.3,0.3,0.8,0,1.1C84.5,107.6,84.3,107.6,84.1,107.6z"/>
			</g>
			<g>
				<path fill="#231F20" d="M80.1,103.6c-0.2,0-0.4-0.1-0.5-0.2l-1.3-1.3c-0.3-0.3-0.3-0.8,0-1.1c0.3-0.3,0.8-0.3,1.1,0l1.3,1.3
					c0.3,0.3,0.3,0.8,0,1.1C80.5,103.6,80.3,103.6,80.1,103.6z"/>
			</g>
		</g>
		<path fill="#FFFFFF" d="M60.8,113.9H14.8c-2.3,0-4.1-1.8-4.1-4.1V42.6c0-2.3,1.8-4.1,4.1-4.1h45.9c2.3,0,4.1,1.8,4.1,4.1v67.2
			C64.8,112.1,63,113.9,60.8,113.9z"/>
		<g>
			<rect x="12.7" y="49.8" fill="#84DBFF" width="50.1" height="49.2"/>
		</g>
		<g>
			<path fill="#FFFFFF" d="M10.7,101v8.5c0,2.4,2,4.4,4.4,4.4h45.4c2.4,0,4.4-2,4.4-4.4V101H10.7z"/>
			<path fill="#231F20" d="M60.5,114.7H15.1c-2.8,0-5.1-2.3-5.1-5.1V101c0-0.4,0.3-0.8,0.8-0.8h54.1c0.4,0,0.8,0.3,0.8,0.8v8.5
				C65.6,112.4,63.3,114.7,60.5,114.7z M11.5,101.8v7.8c0,2,1.6,3.6,3.6,3.6h45.4c2,0,3.6-1.6,3.6-3.6v-7.8H11.5z"/>
		</g>
		<path fill="#FFFFFF" d="M64.8,47.8v-4.9c0-2.4-2-4.4-4.4-4.4H15.1c-2.4,0-4.4,2-4.4,4.4v4.9H64.8z"/>
		<g>
			<circle fill="#FFFFFF" cx="37.8" cy="107.5" r="3.2"/>
			<path fill="#231F20" d="M37.8,111.5c-2.2,0-4-1.8-4-4s1.8-4,4-4c2.2,0,4,1.8,4,4S40,111.5,37.8,111.5z M37.8,105
				c-1.4,0-2.5,1.1-2.5,2.5c0,1.4,1.1,2.5,2.5,2.5c1.4,0,2.5-1.1,2.5-2.5C40.3,106.1,39.2,105,37.8,105z"/>
		</g>
		<g>
			<path fill="#231F20" d="M31,43.9h-3.6c-0.4,0-0.8-0.3-0.8-0.8c0-0.4,0.3-0.8,0.8-0.8H31c0.4,0,0.8,0.3,0.8,0.8
				C31.7,43.6,31.4,43.9,31,43.9z"/>
		</g>
		<g>
			<path fill="#231F20" d="M48.2,43.9H33.6c-0.4,0-0.8-0.3-0.8-0.8c0-0.4,0.3-0.8,0.8-0.8h14.6c0.4,0,0.8,0.3,0.8,0.8
				C49,43.6,48.6,43.9,48.2,43.9z"/>
		</g>
		<rect x="97.2" y="0.9" fill="#FFFFFF" width="17.2" height="119.4"/>
		<g>
			<rect x="99.2" y="2.9" fill="#E6E9EE" width="13.2" height="115.4"/>
		</g>
		<polygon fill="#FFFFFF" points="54.8,38.6 37.8,27.4 20.7,38.6 		"/>
		<g>
			<path fill="#231F20" d="M73,127.8H48.3c-0.4,0-0.8,0.3-0.8,0.8c0,0.4,0.3,0.8,0.8,0.8H73c0.4,0,0.8-0.3,0.8-0.8
				C73.7,128.2,73.4,127.8,73,127.8z"/>
			<path fill="#231F20" d="M81.2,127.8h-4.4c-0.4,0-0.8,0.3-0.8,0.8c0,0.4,0.3,0.8,0.8,0.8h4.4c0.4,0,0.8-0.3,0.8-0.8
				C82,128.2,81.6,127.8,81.2,127.8z"/>
			<path fill="#231F20" d="M106.2,122.9H81.5c-0.4,0-0.8,0.3-0.8,0.8c0,0.4,0.3,0.8,0.8,0.8h24.7c0.4,0,0.8-0.3,0.8-0.8
				C106.9,123.2,106.6,122.9,106.2,122.9z"/>
			<path fill="#231F20" d="M114.4,122.9H110c-0.4,0-0.8,0.3-0.8,0.8c0,0.4,0.3,0.8,0.8,0.8h4.4c0.4,0,0.8-0.3,0.8-0.8
				C115.1,123.2,114.8,122.9,114.4,122.9z"/>
			<path fill="#231F20" d="M17.9,124.4h-5.4c-0.4,0-0.8,0.3-0.8,0.8c0,0.4,0.3,0.8,0.8,0.8h5.4c0.4,0,0.8-0.3,0.8-0.8
				C18.6,124.7,18.3,124.4,17.9,124.4z"/>
			<path fill="#231F20" d="M62.1,125.1c0-0.4-0.3-0.8-0.8-0.8H23.4c-0.4,0-0.8,0.3-0.8,0.8c0,0.4,0.3,0.8,0.8,0.8h37.9
				C61.7,125.9,62.1,125.5,62.1,125.1z"/>
			<path fill="#231F20" d="M115.1,119.5l0-98.9h8.9c3,0,5.4-2.4,5.4-5.4c0-3-2.4-5.4-5.4-5.4h-8.9l0-9c0-0.4-0.3-0.8-0.8-0.8H97.2
				c-0.2,0-0.4,0.1-0.5,0.2c-0.1,0.1-0.2,0.3-0.2,0.5v9H14.1c0,0,0,0,0,0c0,0,0,0,0,0c-0.1,0-0.2,0-0.3,0.1c0,0,0,0,0,0l-7.8,4.6
				c-0.2,0.1-0.4,0.4-0.4,0.7c0,0.3,0.1,0.5,0.4,0.7l7.8,4.6c0,0,0,0,0,0c0.1,0.1,0.2,0.1,0.3,0.1H37V27L20.5,37.8h-5.4
				c-2.8,0-5.1,2.3-5.1,5.1v66.9c0,2.7,2.2,4.9,4.9,4.9h45.8c2.7,0,4.9-2.2,4.9-4.9V42.9c0-2.8-2.3-5.1-5.1-5.1H55L38.5,27v-6.4
				h57.9l0,98.9H0v1.5h129.5v-1.5H115.1z M120,11.4h4c2.1,0,3.9,1.7,3.9,3.9c0,2.1-1.7,3.9-3.9,3.9h-4V11.4z M115.1,11.4h3.4v3.1
				h-3.4V11.4z M115.1,16h3.4v3.1h-3.4V16z M13.3,18.5l-5.6-3.3l5.6-3.3V18.5z M64.1,109.8c0,1.9-1.5,3.4-3.4,3.4H14.9
				c-1.9,0-3.4-1.5-3.4-3.4V48.6h52.6V109.8z M60.5,39.3c2,0,3.6,1.6,3.6,3.6V47H11.5v-4.1c0-2,1.6-3.6,3.6-3.6H60.5z M52.3,37.8
				h-29l14.5-9.5L52.3,37.8z M96.4,19.1H14.8V16h81.6V19.1z M14.8,14.5v-3.1h81.6l0,3.1H14.8z M98,115.8h4v-1.5h-4l0-7.6h4v-1.5h-4
				v-7.6h4v-1.5h-4l0-7.6h4V87h-4l0-7.6h4V78h-4l0-7.6h4v-1.5h-4v-7.6h4v-1.5h-4l0-7.6h4v-1.5h-4l0-7.6h4v-1.5h-4l0-7.6h4v-1.5h-4
				v-7.6h4v-1.5h-4l0-7.6h4v-1.5h-4l0-7.6h4V5.4h-4V1.7h15.6l0,117.9H98V115.8z"/>
		</g>
		<g>
			<g>
				<rect x="15.1" y="86.1" fill="#FFFFFF" width="8.1" height="8.1"/>
				<path fill="#231F20" d="M23.1,95h-8.1c-0.4,0-0.8-0.3-0.8-0.8v-8.1c0-0.4,0.3-0.8,0.8-0.8h8.1c0.4,0,0.8,0.3,0.8,0.8v8.1
					C23.9,94.6,23.6,95,23.1,95z M15.8,93.5h6.6v-6.6h-6.6V93.5z"/>
			</g>
			<g>
				<rect x="27.5" y="86.1" fill="#FFFFFF" width="8.1" height="8.1"/>
				<path fill="#231F20" d="M35.6,95h-8.1c-0.4,0-0.8-0.3-0.8-0.8v-8.1c0-0.4,0.3-0.8,0.8-0.8h8.1c0.4,0,0.8,0.3,0.8,0.8v8.1
					C36.4,94.6,36,95,35.6,95z M28.3,93.5h6.6v-6.6h-6.6V93.5z"/>
			</g>
			<g>
				<rect x="40" y="86.1" fill="#FFFFFF" width="8.1" height="8.1"/>
				<path fill="#231F20" d="M48.1,95H40c-0.4,0-0.8-0.3-0.8-0.8v-8.1c0-0.4,0.3-0.8,0.8-0.8h8.1c0.4,0,0.8,0.3,0.8,0.8v8.1
					C48.8,94.6,48.5,95,48.1,95z M40.7,93.5h6.6v-6.6h-6.6V93.5z"/>
			</g>
			<g>
				<rect x="52.4" y="86.1" fill="#FFFFFF" width="8.1" height="8.1"/>
				<path fill="#231F20" d="M60.5,95h-8.1c-0.4,0-0.8-0.3-0.8-0.8v-8.1c0-0.4,0.3-0.8,0.8-0.8h8.1c0.4,0,0.8,0.3,0.8,0.8v8.1
					C61.3,94.6,60.9,95,60.5,95z M53.2,93.5h6.6v-6.6h-6.6V93.5z"/>
			</g>
		</g>
		<g>
			<g>
				<g>
					<rect x="19.4" y="55.9" fill="#FFFFFF" width="5.9" height="1.5"/>
				</g>
				<g>
					<rect x="27" y="55.9" fill="#FFFFFF" width="24.3" height="1.5"/>
				</g>
			</g>
			<g>
				<g>
					<rect x="21.7" y="60.2" fill="#FFFFFF" width="5.9" height="1.5"/>
				</g>
				<g>
					<rect x="29.4" y="60.2" fill="#FFFFFF" width="19.6" height="1.5"/>
				</g>
			</g>
			<g>
				<g>
					<rect x="25.2" y="64.5" fill="#FFFFFF" width="5.9" height="1.5"/>
				</g>
				<g>
					<rect x="32.9" y="64.5" fill="#FFFFFF" width="12.6" height="1.5"/>
				</g>
			</g>
			<g>
				<g>
					<rect x="22.4" y="68.9" fill="#FFFFFF" width="5.9" height="1.5"/>
				</g>
				<g>
					<rect x="30.1" y="68.9" fill="#FFFFFF" width="26.1" height="1.5"/>
				</g>
			</g>
			<g>
				<g>
					<rect x="23.3" y="73.2" fill="#FFFFFF" width="5.9" height="1.5"/>
				</g>
				<g>
					<rect x="30.9" y="73.2" fill="#FFFFFF" width="16.5" height="1.5"/>
				</g>
			</g>
		</g>
		<g>
			<path fill="#231F20" d="M72.4,32.8c-2.2,0-4.1-1.8-4.1-4.1c0-2.2,1.8-4.1,4.1-4.1c2.2,0,4.1,1.8,4.1,4.1
				C76.5,31,74.6,32.8,72.4,32.8z M72.4,26.2c-1.4,0-2.5,1.1-2.5,2.5c0,1.4,1.1,2.5,2.5,2.5c1.4,0,2.5-1.1,2.5-2.5
				C74.9,27.3,73.8,26.2,72.4,26.2z"/>
		</g>
	</g>
</g>
</svg>
