<?xml version="1.0" encoding="utf-8"?>
<!-- Generator: Adobe Illustrator 18.0.0, SVG Export Plug-In . SVG Version: 6.00 Build 0)  -->
<!DOCTYPE svg PUBLIC "-//W3C//DTD SVG 1.1//EN" "http://www.w3.org/Graphics/SVG/1.1/DTD/svg11.dtd">
<svg version="1.1" id="Layer_1" xmlns="http://www.w3.org/2000/svg" xmlns:xlink="http://www.w3.org/1999/xlink" x="0px" y="0px"
	 viewBox="0 0 129.5 129.5" enable-background="new 0 0 129.5 129.5" xml:space="preserve">
<g>
	<g>
		
			<path fill="#FFFFFF" stroke="#231F20" stroke-width="0.25" stroke-linecap="round" stroke-linejoin="round" stroke-miterlimit="10" d="
			M53.7,43.4"/>
		
			<path fill="#FFFFFF" stroke="#231F20" stroke-width="0.25" stroke-linecap="round" stroke-linejoin="round" stroke-miterlimit="10" d="
			M64.9,51.5"/>
		<g>
			<path fill="#231F20" d="M80.4,3.9c-0.2,0-0.4-0.1-0.5-0.2c-0.3-0.3-0.3-0.8,0-1.1l1.3-1.3c0.3-0.3,0.8-0.3,1.1,0
				c0.3,0.3,0.3,0.8,0,1.1l-1.3,1.3C80.7,3.8,80.6,3.9,80.4,3.9z"/>
		</g>
		<g>
			<path fill="#231F20" d="M76.3,7.9c-0.2,0-0.4-0.1-0.5-0.2c-0.3-0.3-0.3-0.8,0-1.1l1.3-1.3c0.3-0.3,0.8-0.3,1.1,0
				c0.3,0.3,0.3,0.8,0,1.1l-1.3,1.3C76.7,7.8,76.5,7.9,76.3,7.9z"/>
		</g>
		<g>
			<path fill="#231F20" d="M81.6,7.9c-0.2,0-0.4-0.1-0.5-0.2l-1.3-1.3c-0.3-0.3-0.3-0.8,0-1.1c0.3-0.3,0.8-0.3,1.1,0l1.3,1.3
				c0.3,0.3,0.3,0.8,0,1.1C82,7.8,81.8,7.9,81.6,7.9z"/>
		</g>
		<g>
			<path fill="#231F20" d="M77.6,3.9c-0.2,0-0.4-0.1-0.5-0.2l-1.3-1.3c-0.3-0.3-0.3-0.8,0-1.1c0.3-0.3,0.8-0.3,1.1,0l1.3,1.3
				c0.3,0.3,0.3,0.8,0,1.1C78,3.8,77.8,3.9,77.6,3.9z"/>
		</g>
		<g>
			<path fill="#231F20" d="M106.4,66.8c-0.2,0-0.4-0.1-0.5-0.2c-0.3-0.3-0.3-0.8,0-1.1l1.3-1.3c0.3-0.3,0.8-0.3,1.1,0
				c0.3,0.3,0.3,0.8,0,1.1l-1.3,1.3C106.8,66.7,106.6,66.8,106.4,66.8z"/>
		</g>
		<g>
			<path fill="#231F20" d="M102.4,70.8c-0.2,0-0.4-0.1-0.5-0.2c-0.3-0.3-0.3-0.8,0-1.1l1.3-1.3c0.3-0.3,0.8-0.3,1.1,0
				c0.3,0.3,0.3,0.8,0,1.1l-1.3,1.3C102.8,70.7,102.6,70.8,102.4,70.8z"/>
		</g>
		<g>
			<path fill="#231F20" d="M107.7,70.8c-0.2,0-0.4-0.1-0.5-0.2l-1.3-1.3c-0.3-0.3-0.3-0.8,0-1.1c0.3-0.3,0.8-0.3,1.1,0l1.3,1.3
				c0.3,0.3,0.3,0.8,0,1.1C108.1,70.7,107.9,70.8,107.7,70.8z"/>
		</g>
		<g>
			<path fill="#231F20" d="M103.7,66.8c-0.2,0-0.4-0.1-0.5-0.2l-1.3-1.3c-0.3-0.3-0.3-0.8,0-1.1s0.8-0.3,1.1,0l1.3,1.3
				c0.3,0.3,0.3,0.8,0,1.1C104.1,66.7,103.9,66.8,103.7,66.8z"/>
		</g>
		<g>
			<path fill="#231F20" d="M13.5,92.4c-0.2,0-0.4-0.1-0.5-0.2c-0.3-0.3-0.3-0.8,0-1.1l1.3-1.3c0.3-0.3,0.8-0.3,1.1,0
				c0.3,0.3,0.3,0.8,0,1.1l-1.3,1.3C13.9,92.3,13.7,92.4,13.5,92.4z"/>
		</g>
		<g>
			<path fill="#231F20" d="M9.5,96.4c-0.2,0-0.4-0.1-0.5-0.2c-0.3-0.3-0.3-0.8,0-1.1l1.3-1.3c0.3-0.3,0.8-0.3,1.1,0
				c0.3,0.3,0.3,0.8,0,1.1L10,96.2C9.9,96.3,9.7,96.4,9.5,96.4z"/>
		</g>
		<g>
			<path fill="#231F20" d="M14.8,96.4c-0.2,0-0.4-0.1-0.5-0.2L13,94.9c-0.3-0.3-0.3-0.8,0-1.1c0.3-0.3,0.8-0.3,1.1,0l1.3,1.3
				c0.3,0.3,0.3,0.8,0,1.1C15.2,96.3,15,96.4,14.8,96.4z"/>
		</g>
		<g>
			<path fill="#231F20" d="M10.8,92.4c-0.2,0-0.4-0.1-0.5-0.2L9,90.8c-0.3-0.3-0.3-0.8,0-1.1c0.3-0.3,0.8-0.3,1.1,0l1.3,1.3
				c0.3,0.3,0.3,0.8,0,1.1C11.2,92.3,11,92.4,10.8,92.4z"/>
		</g>
		<path fill="#FFD05B" d="M124.5,19.3c0-8.4-7-15.2-15.5-14.8c-7.5,0.3-13.8,6.6-14.1,14.1c-0.2,4.3,1.4,8.1,4.2,11
			c2.2,2.3,3.6,5.3,3.6,8.5V43h14v-4.5c0-3.3,1.4-6.5,3.7-8.9C123,26.9,124.5,23.2,124.5,19.3z"/>
		<path fill="#FFFFFF" d="M118.9,43h-18.2v7.3c0,1.7,1.4,3.1,3.1,3.1h12c1.7,0,3.1-1.4,3.1-3.1V43z"/>
		<circle fill="#FFFFFF" cx="106.7" cy="19.8" r="3.1"/>
		<circle fill="#FFFFFF" cx="112.8" cy="19.8" r="3.1"/>
		<path fill="#231F20" d="M121,30c2.8-2.9,4.3-6.7,4.3-10.7c0-8.8-7.4-16-16.3-15.5c-8,0.4-14.5,6.9-14.8,14.8
			c-0.2,4.3,1.4,8.4,4.4,11.5c2.2,2.2,3.4,5.1,3.4,8v4.1h-1.4c-0.4,0-0.8,0.3-0.8,0.8v7.3c0,2.1,1.7,3.8,3.8,3.8h12
			c2.1,0,3.8-1.7,3.8-3.8V43c0-0.4-0.3-0.8-0.8-0.8h-1.4v-3.8C117.5,35.3,118.7,32.4,121,30z M118.1,50.2c0,1.3-1,2.3-2.3,2.3h-12
			c-1.3,0-2.3-1.1-2.3-2.3v-6.5h1.4h14h1.4V50.2z M112.8,17.4c1.3,0,2.3,1,2.3,2.3c0,1.3-1,2.3-2.3,2.3c-1.3,0-2.3-1-2.3-2.3
			C110.5,18.5,111.5,17.4,112.8,17.4z M110.5,42.2V22.8c0.6,0.5,1.5,0.8,2.3,0.8c2.1,0,3.8-1.7,3.8-3.8c0-2.1-1.7-3.8-3.8-3.8
			c-1.3,0-2.4,0.6-3.1,1.6c-0.7-1-1.8-1.6-3.1-1.6c-2.1,0-3.8,1.7-3.8,3.8c0,2.1,1.7,3.8,3.8,3.8c0.9,0,1.7-0.3,2.3-0.8v19.4h-5.5
			v-4.1c0-3.3-1.4-6.5-3.8-9c-2.7-2.8-4.1-6.5-4-10.4c0.3-7.2,6.2-13.1,13.4-13.4c8-0.4,14.7,6.1,14.7,14c0,3.6-1.4,7.1-3.9,9.7
			c-2.5,2.6-3.9,6-3.9,9.5v3.8H110.5z M109,19.8c0,1.3-1,2.3-2.3,2.3c-1.3,0-2.3-1-2.3-2.3c0-1.3,1-2.3,2.3-2.3
			C107.9,17.4,109,18.5,109,19.8z"/>
		<g>
			<path fill="#231F20" d="M95.8,33.7c-0.2-0.2-0.5-0.5-0.7-0.8l1.1-1c0.2,0.2,0.4,0.5,0.7,0.7L95.8,33.7z M124.9,32.5l-1.1-1
				c0.2-0.2,0.4-0.5,0.6-0.8l1.2,0.9C125.3,32,125.1,32.2,124.9,32.5z M93.7,31.4c-0.2-0.3-0.4-0.6-0.6-0.9l1.3-0.8
				c0.2,0.3,0.4,0.5,0.5,0.8L93.7,31.4z M126.7,30l-1.3-0.8c0.2-0.3,0.3-0.6,0.5-0.8l1.3,0.7C127,29.4,126.9,29.7,126.7,30z
				 M92.1,28.7c-0.2-0.3-0.3-0.6-0.4-0.9l1.4-0.6c0.1,0.3,0.3,0.6,0.4,0.9L92.1,28.7z M128.1,27.2l-1.4-0.6c0.1-0.3,0.2-0.6,0.3-0.9
				l1.4,0.5C128.3,26.5,128.2,26.9,128.1,27.2z M90.9,25.8c-0.1-0.3-0.2-0.7-0.3-1l1.5-0.4c0.1,0.3,0.2,0.6,0.3,0.9L90.9,25.8z
				 M129,24.2l-1.5-0.3c0.1-0.3,0.1-0.6,0.2-0.9l1.5,0.3C129.1,23.5,129.1,23.9,129,24.2z M90.2,22.8c-0.1-0.3-0.1-0.7-0.1-1
				l1.5-0.2c0,0.3,0.1,0.6,0.1,1L90.2,22.8z M129.5,21.1L128,21c0-0.3,0-0.6,0-1l1.5,0C129.5,20.4,129.5,20.8,129.5,21.1z
				 M91.5,19.7l-1.5,0c0-0.3,0-0.7,0-1l1.5,0.1C91.5,19.1,91.5,19.4,91.5,19.7z M127.9,18.1c0-0.3-0.1-0.6-0.1-1l1.5-0.2
				c0,0.3,0.1,0.7,0.1,1L127.9,18.1z M91.7,16.8l-1.5-0.2c0.1-0.3,0.1-0.7,0.2-1l1.5,0.3C91.8,16.2,91.8,16.5,91.7,16.8z
				 M127.5,15.3c-0.1-0.3-0.2-0.6-0.3-0.9l1.4-0.4c0.1,0.3,0.2,0.7,0.3,1L127.5,15.3z M92.4,14L91,13.6c0.1-0.3,0.2-0.7,0.4-1
				l1.4,0.5C92.6,13.4,92.5,13.7,92.4,14z M126.5,12.6c-0.1-0.3-0.3-0.6-0.4-0.9l1.3-0.7c0.2,0.3,0.3,0.6,0.4,0.9L126.5,12.6z
				 M93.5,11.4l-1.3-0.7c0.2-0.3,0.3-0.6,0.5-0.9l1.3,0.8C93.8,10.8,93.6,11.1,93.5,11.4z M125.2,10c-0.2-0.3-0.3-0.5-0.5-0.8
				l1.2-0.9c0.2,0.3,0.4,0.6,0.6,0.9L125.2,10z M95,8.9l-1.2-0.9c0.2-0.3,0.4-0.5,0.6-0.8l1.2,1C95.4,8.4,95.2,8.7,95,8.9z
				 M123.5,7.7c-0.2-0.2-0.4-0.5-0.7-0.7l1.1-1c0.2,0.3,0.5,0.5,0.7,0.8L123.5,7.7z M96.9,6.8l-1.1-1.1c0.2-0.2,0.5-0.5,0.8-0.7
				l1,1.1C97.4,6.3,97.1,6.5,96.9,6.8z M121.4,5.7c-0.2-0.2-0.5-0.4-0.8-0.6l0.9-1.2c0.3,0.2,0.5,0.4,0.8,0.6L121.4,5.7z M99.1,4.9
				l-0.9-1.2c0.3-0.2,0.6-0.4,0.9-0.6l0.8,1.3C99.6,4.5,99.4,4.7,99.1,4.9z M119.1,4.1c-0.3-0.2-0.6-0.3-0.8-0.5l0.7-1.3
				c0.3,0.2,0.6,0.3,0.9,0.5L119.1,4.1z M101.6,3.4l-0.7-1.3c0.3-0.2,0.6-0.3,0.9-0.4l0.6,1.4C102.1,3.1,101.9,3.3,101.6,3.4z
				 M116.5,2.8c-0.3-0.1-0.6-0.2-0.9-0.3L116,1c0.3,0.1,0.7,0.2,1,0.4L116.5,2.8z M104.2,2.3l-0.4-1.4c0.3-0.1,0.7-0.2,1-0.3
				l0.4,1.5C104.8,2.2,104.5,2.2,104.2,2.3z M113.7,1.9c-0.3-0.1-0.6-0.1-0.9-0.2l0.2-1.5c0.3,0.1,0.7,0.1,1,0.2L113.7,1.9z
				 M107,1.7l-0.2-1.5c0.3-0.1,0.7-0.1,1-0.1l0.1,1.5C107.7,1.6,107.4,1.7,107,1.7z M110.9,1.5c-0.3,0-0.6,0-1,0l0-1.5
				c0.3,0,0.7,0,1,0L110.9,1.5z"/>
		</g>
		<g>
			<line fill="#FFFFFF" x1="106.2" y1="56.4" x2="113.2" y2="56.4"/>
			<rect x="106.2" y="55.6" fill="#231F20" width="7" height="1.5"/>
		</g>
		<path fill="#FFFFFF" d="M0.8,64.4h82.7V19.3c0-1.7-1.3-3-3-3H3.8c-1.7,0-3,1.3-3,3V64.4z"/>
		<rect x="5.3" y="20.8" fill="#84DBFF" width="73.7" height="39.1"/>
		<polygon fill="#54C0EB" points="79,59.9 79,20.8 5.3,59.9 		"/>
		<path fill="#FFFFFF" d="M0.8,64.4h82.7v6.9c0,1.7-1.3,3-3,3H3.8c-1.7,0-3-1.3-3-3V64.4z"/>
		<polygon fill="#FFFFFF" points="34.3,81.1 30.6,74.3 54.9,74.3 51.2,81.1 		"/>
		<path fill="#FFFFFF" d="M26.2,86L26.2,86c0-2.7,2.2-4.8,4.8-4.8h23.5c2.7,0,4.8,2.2,4.8,4.8l0,0H26.2z"/>
		<circle fill="#CED5E0" cx="42.1" cy="69.4" r="2.8"/>
		<rect x="31.5" y="93" fill="#FFFFFF" width="83.4" height="35.8"/>
		<g>
			<rect x="36.1" y="99.3" fill="#FFFFFF" width="4" height="4"/>
			<path fill="#CED5E0" d="M40.8,104h-5.5v-5.5h5.5V104z M36.9,102.5h2.5V100h-2.5V102.5z"/>
		</g>
		<g>
			<rect x="43.9" y="99.3" fill="#FFFFFF" width="4" height="4"/>
			<path fill="#CED5E0" d="M48.6,104h-5.5v-5.5h5.5V104z M44.7,102.5h2.5V100h-2.5V102.5z"/>
		</g>
		<g>
			<rect x="51.7" y="99.3" fill="#FFFFFF" width="4" height="4"/>
			<path fill="#CED5E0" d="M56.4,104H51v-5.5h5.5V104z M52.5,102.5h2.5V100h-2.5V102.5z"/>
		</g>
		<g>
			<rect x="59.5" y="99.3" fill="#FFFFFF" width="4" height="4"/>
			<path fill="#CED5E0" d="M64.2,104h-5.5v-5.5h5.5V104z M60.2,102.5h2.5V100h-2.5V102.5z"/>
		</g>
		<g>
			<rect x="67.3" y="99.3" fill="#FFFFFF" width="4" height="4"/>
			<path fill="#CED5E0" d="M72,104h-5.5v-5.5H72V104z M68,102.5h2.5V100H68V102.5z"/>
		</g>
		<g>
			<rect x="75.1" y="99.3" fill="#FFFFFF" width="4" height="4"/>
			<path fill="#CED5E0" d="M79.8,104h-5.5v-5.5h5.5V104z M75.8,102.5h2.5V100h-2.5V102.5z"/>
		</g>
		<g>
			<rect x="82.9" y="99.3" fill="#FFFFFF" width="4" height="4"/>
			<path fill="#CED5E0" d="M87.6,104h-5.5v-5.5h5.5V104z M83.6,102.5h2.5V100h-2.5V102.5z"/>
		</g>
		<g>
			<rect x="90.7" y="99.3" fill="#FFFFFF" width="4" height="4"/>
			<path fill="#CED5E0" d="M95.4,104h-5.5v-5.5h5.5V104z M91.4,102.5h2.5V100h-2.5V102.5z"/>
		</g>
		<g>
			<rect x="98.4" y="99.3" fill="#FFFFFF" width="4" height="4"/>
			<path fill="#CED5E0" d="M103.2,104h-5.5v-5.5h5.5V104z M99.2,102.5h2.5V100h-2.5V102.5z"/>
		</g>
		<g>
			<rect x="106.2" y="99.3" fill="#FFFFFF" width="4" height="4"/>
			<path fill="#CED5E0" d="M111,104h-5.5v-5.5h5.5V104z M107,102.5h2.5V100H107V102.5z"/>
		</g>
		<g>
			<rect x="36.1" y="106.3" fill="#FFFFFF" width="4" height="4"/>
			<path fill="#CED5E0" d="M40.8,111.1h-5.5v-5.5h5.5V111.1z M36.9,109.6h2.5v-2.5h-2.5V109.6z"/>
		</g>
		<g>
			<rect x="43.9" y="106.3" fill="#FFFFFF" width="4" height="4"/>
			<path fill="#CED5E0" d="M48.6,111.1h-5.5v-5.5h5.5V111.1z M44.7,109.6h2.5v-2.5h-2.5V109.6z"/>
		</g>
		<g>
			<rect x="51.7" y="106.3" fill="#FFFFFF" width="4" height="4"/>
			<path fill="#CED5E0" d="M56.4,111.1H51v-5.5h5.5V111.1z M52.5,109.6h2.5v-2.5h-2.5V109.6z"/>
		</g>
		<g>
			<rect x="59.5" y="106.3" fill="#FFFFFF" width="4" height="4"/>
			<path fill="#CED5E0" d="M64.2,111.1h-5.5v-5.5h5.5V111.1z M60.2,109.6h2.5v-2.5h-2.5V109.6z"/>
		</g>
		<g>
			<rect x="67.3" y="106.3" fill="#FFFFFF" width="4" height="4"/>
			<path fill="#CED5E0" d="M72,111.1h-5.5v-5.5H72V111.1z M68,109.6h2.5v-2.5H68V109.6z"/>
		</g>
		<g>
			<rect x="75.1" y="106.3" fill="#FFFFFF" width="4" height="4"/>
			<path fill="#CED5E0" d="M79.8,111.1h-5.5v-5.5h5.5V111.1z M75.8,109.6h2.5v-2.5h-2.5V109.6z"/>
		</g>
		<g>
			<rect x="82.9" y="106.3" fill="#FFFFFF" width="4" height="4"/>
			<path fill="#CED5E0" d="M87.6,111.1h-5.5v-5.5h5.5V111.1z M83.6,109.6h2.5v-2.5h-2.5V109.6z"/>
		</g>
		<g>
			<rect x="90.7" y="106.3" fill="#FFFFFF" width="4" height="4"/>
			<path fill="#CED5E0" d="M95.4,111.1h-5.5v-5.5h5.5V111.1z M91.4,109.6h2.5v-2.5h-2.5V109.6z"/>
		</g>
		<g>
			<rect x="98.4" y="106.3" fill="#FFFFFF" width="4" height="4"/>
			<path fill="#CED5E0" d="M103.2,111.1h-5.5v-5.5h5.5V111.1z M99.2,109.6h2.5v-2.5h-2.5V109.6z"/>
		</g>
		<g>
			<rect x="106.2" y="106.3" fill="#FFFFFF" width="4" height="4"/>
			<path fill="#CED5E0" d="M111,111.1h-5.5v-5.5h5.5V111.1z M107,109.6h2.5v-2.5H107V109.6z"/>
		</g>
		<g>
			<rect x="36.1" y="113.4" fill="#FFFFFF" width="4" height="4"/>
			<path fill="#CED5E0" d="M40.8,118.2h-5.5v-5.5h5.5V118.2z M36.9,116.7h2.5v-2.5h-2.5V116.7z"/>
		</g>
		<g>
			<rect x="43.9" y="113.4" fill="#FFFFFF" width="4" height="4"/>
			<path fill="#CED5E0" d="M48.6,118.2h-5.5v-5.5h5.5V118.2z M44.7,116.7h2.5v-2.5h-2.5V116.7z"/>
		</g>
		<g>
			<rect x="51.7" y="113.4" fill="#FFFFFF" width="4" height="4"/>
			<path fill="#CED5E0" d="M56.4,118.2H51v-5.5h5.5V118.2z M52.5,116.7h2.5v-2.5h-2.5V116.7z"/>
		</g>
		<g>
			<rect x="59.5" y="113.4" fill="#FFFFFF" width="4" height="4"/>
			<path fill="#CED5E0" d="M64.2,118.2h-5.5v-5.5h5.5V118.2z M60.2,116.7h2.5v-2.5h-2.5V116.7z"/>
		</g>
		<g>
			<rect x="67.3" y="113.4" fill="#FFFFFF" width="4" height="4"/>
			<path fill="#CED5E0" d="M72,118.2h-5.5v-5.5H72V118.2z M68,116.7h2.5v-2.5H68V116.7z"/>
		</g>
		<g>
			<rect x="75.1" y="113.4" fill="#FFFFFF" width="4" height="4"/>
			<path fill="#CED5E0" d="M79.8,118.2h-5.5v-5.5h5.5V118.2z M75.8,116.7h2.5v-2.5h-2.5V116.7z"/>
		</g>
		<g>
			<rect x="82.9" y="113.4" fill="#FFFFFF" width="4" height="4"/>
			<path fill="#CED5E0" d="M87.6,118.2h-5.5v-5.5h5.5V118.2z M83.6,116.7h2.5v-2.5h-2.5V116.7z"/>
		</g>
		<g>
			<rect x="90.7" y="113.4" fill="#FFFFFF" width="4" height="4"/>
			<path fill="#CED5E0" d="M95.4,118.2h-5.5v-5.5h5.5V118.2z M91.4,116.7h2.5v-2.5h-2.5V116.7z"/>
		</g>
		<g>
			<rect x="98.4" y="113.4" fill="#FFFFFF" width="4" height="4"/>
			<path fill="#CED5E0" d="M103.2,118.2h-5.5v-5.5h5.5V118.2z M99.2,116.7h2.5v-2.5h-2.5V116.7z"/>
		</g>
		<g>
			<rect x="106.2" y="113.4" fill="#FFFFFF" width="4" height="4"/>
			<path fill="#CED5E0" d="M111,118.2h-5.5v-5.5h5.5V118.2z M107,116.7h2.5v-2.5H107V116.7z"/>
		</g>
		<g>
			<rect x="36.1" y="120.5" fill="#FFFFFF" width="4" height="4"/>
			<path fill="#CED5E0" d="M40.8,125.2h-5.5v-5.5h5.5V125.2z M36.9,123.7h2.5v-2.5h-2.5V123.7z"/>
		</g>
		<g>
			<rect x="43.9" y="120.5" fill="#FFFFFF" width="35.1" height="4"/>
			<path fill="#CED5E0" d="M79.8,125.2H43.2v-5.5h36.6V125.2z M44.7,123.7h33.6v-2.5H44.7V123.7z"/>
		</g>
		<g>
			<rect x="82.9" y="120.5" fill="#FFFFFF" width="4" height="4"/>
			<path fill="#CED5E0" d="M87.6,125.2h-5.5v-5.5h5.5V125.2z M83.6,123.7h2.5v-2.5h-2.5V123.7z"/>
		</g>
		<g>
			<rect x="90.7" y="120.5" fill="#FFFFFF" width="4" height="4"/>
			<path fill="#CED5E0" d="M95.4,125.2h-5.5v-5.5h5.5V125.2z M91.4,123.7h2.5v-2.5h-2.5V123.7z"/>
		</g>
		<g>
			<rect x="98.4" y="120.5" fill="#FFFFFF" width="4" height="4"/>
			<path fill="#CED5E0" d="M103.2,125.2h-5.5v-5.5h5.5V125.2z M99.2,123.7h2.5v-2.5h-2.5V123.7z"/>
		</g>
		<g>
			<rect x="106.2" y="120.5" fill="#FFFFFF" width="4" height="4"/>
			<path fill="#CED5E0" d="M111,125.2h-5.5v-5.5h5.5V125.2z M107,123.7h2.5v-2.5H107V123.7z"/>
		</g>
		<path fill="#231F20" d="M65.8,83.1h49.6c1.6,0,2.9-1.3,2.9-2.9c0-1.6-1.3-2.9-2.9-2.9H76.1c-0.8,0-1.4-0.6-1.4-1.4v-0.9h5.7
			c2.1,0,3.8-1.7,3.8-3.8v-52c0-2.1-1.7-3.8-3.8-3.8H3.8c-2.1,0-3.7,1.7-3.7,3.8v52c0,2.1,1.7,3.8,3.7,3.8h26.4l2.9,5.3H31
			c-3.1,0-5.6,2.5-5.6,5.6c0,0.4,0.3,0.8,0.8,0.8h33.2c0,0,0,0,0,0c0.4,0,0.8-0.3,0.8-0.8c0-0.1,0-0.1,0-0.2c-0.1-3-2.6-5.4-5.6-5.4
			h-2.1l2.9-5.3h17.9V76c0,1.6,1.3,2.9,2.9,2.9h39.2c0.8,0,1.4,0.6,1.4,1.4c0,0.8-0.6,1.4-1.4,1.4H65.8c-1.6,0-2.9,1.3-2.9,2.9
			c0,1.6,1.3,2.9,2.9,2.9h37c2.1,0,3.8,1.7,3.8,3.8v1.1H31.5c-0.4,0-0.8,0.3-0.8,0.8v35.8c0,0.4,0.3,0.8,0.8,0.8h83.4
			c0.4,0,0.8-0.3,0.8-0.8V93c0-0.4-0.3-0.8-0.8-0.8h-6.8v-1.1c0-2.9-2.4-5.3-5.3-5.3h-37c-0.8,0-1.4-0.6-1.4-1.4
			C64.4,83.7,65,83.1,65.8,83.1z M1.5,19.3c0-1.2,1-2.3,2.3-2.3h76.7c1.2,0,2.3,1,2.3,2.3v44.4H1.5V19.3z M54.5,81.9
			c2,0,3.7,1.4,4,3.3H27c0.4-1.9,2-3.3,4-3.3H54.5z M50.8,80.4h-16l-2.9-5.3h21.8L50.8,80.4z M3.8,73.6c-1.2,0-2.3-1-2.3-2.3v-6.1
			h81.2v6.1c0,1.2-1,2.3-2.3,2.3H3.8z M114.1,93.7V128H32.2V93.7H114.1z"/>
		<g>
			<path fill="#FFFFFF" d="M22.7,32.3h-8.1c-0.4,0-0.8-0.3-0.8-0.8c0-0.4,0.3-0.8,0.8-0.8h8.1c0.4,0,0.8,0.3,0.8,0.8
				C23.4,32,23.1,32.3,22.7,32.3z"/>
		</g>
		<g>
			<path fill="#FFFFFF" d="M25.8,35.3h-4c-0.4,0-0.8-0.3-0.8-0.8c0-0.4,0.3-0.8,0.8-0.8h4c0.4,0,0.8,0.3,0.8,0.8
				C26.6,35,26.3,35.3,25.8,35.3z"/>
		</g>
		<g>
			<path fill="#FFFFFF" d="M30.1,32.3h-3.8c-0.4,0-0.8-0.3-0.8-0.8c0-0.4,0.3-0.8,0.8-0.8h3.8c0.4,0,0.8,0.3,0.8,0.8
				C30.9,32,30.5,32.3,30.1,32.3z"/>
		</g>
		<g>
			<path fill="#FFFFFF" d="M19,35.3h-0.8c-0.4,0-0.8-0.3-0.8-0.8c0-0.4,0.3-0.8,0.8-0.8H19c0.4,0,0.8,0.3,0.8,0.8
				C19.7,35,19.4,35.3,19,35.3z"/>
		</g>
		<g>
			<path fill="#FFFFFF" d="M61.8,49.8h-8.1c-0.4,0-0.8-0.3-0.8-0.8c0-0.4,0.3-0.8,0.8-0.8h8.1c0.4,0,0.8,0.3,0.8,0.8
				C62.6,49.5,62.2,49.8,61.8,49.8z"/>
		</g>
		<g>
			<path fill="#FFFFFF" d="M65,52.7h-4c-0.4,0-0.8-0.3-0.8-0.8c0-0.4,0.3-0.8,0.8-0.8h4c0.4,0,0.8,0.3,0.8,0.8
				C65.7,52.4,65.4,52.7,65,52.7z"/>
		</g>
		<g>
			<path fill="#FFFFFF" d="M69.2,49.8h-3.8c-0.4,0-0.8-0.3-0.8-0.8c0-0.4,0.3-0.8,0.8-0.8h3.8c0.4,0,0.8,0.3,0.8,0.8
				C70,49.5,69.7,49.8,69.2,49.8z"/>
		</g>
		<g>
			<path fill="#FFFFFF" d="M58.1,52.7h-0.8c-0.4,0-0.8-0.3-0.8-0.8c0-0.4,0.3-0.8,0.8-0.8h0.8c0.4,0,0.8,0.3,0.8,0.8
				C58.9,52.4,58.6,52.7,58.1,52.7z"/>
		</g>
		<circle fill="#FFFFFF" cx="16.1" cy="116" r="2.5"/>
		<path fill="#231F20" d="M16.1,119.3c-1.8,0-3.3-1.5-3.3-3.3c0-1.8,1.5-3.3,3.3-3.3c1.8,0,3.3,1.5,3.3,3.3
			C19.4,117.8,17.9,119.3,16.1,119.3z M16.1,114.2c-1,0-1.8,0.8-1.8,1.8c0,1,0.8,1.8,1.8,1.8c1,0,1.8-0.8,1.8-1.8
			C17.9,115,17.1,114.2,16.1,114.2z"/>
		<polygon fill="#FFFFFF" points="61.1,25.3 65.8,39 68.8,33 74.8,30.1 		"/>
		<path fill="#231F20" d="M75,29.4l-13.7-4.8c-0.3-0.1-0.6,0-0.8,0.2c-0.2,0.2-0.3,0.5-0.2,0.8l4.8,13.7c0.1,0.3,0.4,0.5,0.7,0.5
			c0,0,0,0,0,0c0.3,0,0.5-0.2,0.7-0.4l2.5-5.1l3.2,3.2c0.1,0.1,0.3,0.2,0.5,0.2c0.2,0,0.4-0.1,0.5-0.2c0.3-0.3,0.3-0.8,0-1.1
			l-3.2-3.2l5.1-2.5c0.3-0.1,0.4-0.4,0.4-0.7C75.5,29.7,75.3,29.5,75,29.4z M68.5,32.4c-0.1,0.1-0.3,0.2-0.3,0.3L66,37.1l-3.7-10.6
			l10.6,3.7L68.5,32.4z"/>
		<circle fill="#E6E9EE" cx="11.5" cy="2.8" r="2"/>
		<circle fill="#FF7058" cx="49.9" cy="9.2" r="2"/>
		<circle fill="#84DBFF" cx="122.5" cy="59.9" r="2"/>
		<circle fill="#E6E9EE" cx="92.6" cy="68.8" r="2"/>
		<circle fill="#FFD05B" cx="126.5" cy="113.4" r="2"/>
		<circle fill="#E6E9EE" cx="20.6" cy="126.7" r="2"/>
	</g>
</g>
</svg>
