<svg xmlns="http://www.w3.org/2000/svg" viewBox="0 0 64 64"><path d="M44.25 46.002v-3.75a5 5 0 0 0-2.97-4.569l-6.03-2.68c-1.433 2.13-4.57 2.126-5.998-.007l-.002-.003v-.001l-6.034 2.688a5 5 0 0 0-2.965 4.567V46" fill="#40c4ff"/><path d="M44.25 46.502a.5.5 0 0 1-.5-.5v-3.75c0-1.776-1.05-3.4-2.673-4.112L35.4 35.622c-.777.932-1.928 1.477-3.157 1.477-1.236-.001-2.4-.55-3.164-1.485l-5.67 2.525c-1.622.723-2.67 2.336-2.67 4.1v3.754a.5.5 0 1 1-1 0V42.25c0-2.17 1.28-4.14 3.262-5.024l6.034-2.688a.5.5 0 0 1 .583.131c.625.926 1.567 1.43 2.62 1.43a3.07 3.07 0 0 0 2.586-1.374c.135-.2.396-.275.618-.178l6.03 2.68c1.984.882 3.267 2.855 3.267 5.026v3.75a.5.5 0 0 1-.501.5zm-12-12.004a8.51 8.51 0 0 1-8.5-8.5 8.51 8.51 0 0 1 8.5-8.5 8.51 8.51 0 0 1 8.5 8.5 8.51 8.51 0 0 1-8.5 8.5zm0-16a7.51 7.51 0 0 0-7.5 7.5 7.51 7.51 0 0 0 7.5 7.5 7.51 7.51 0 0 0 7.5-7.5 7.51 7.51 0 0 0-7.5-7.5z" fill="#263238"/><path d="M37.797 21.372l.596-.496c-1.468-1.758-3.674-2.878-6.143-2.878a8 8 0 0 0-8 8h.755a20 20 0 0 0 12.792-4.626z" fill="#ffd740"/><g fill="#263238"><path d="M25.005 26.498h-.755a.5.5 0 0 1-.5-.5 8.51 8.51 0 0 1 8.5-8.5c2.526 0 4.905 1.115 6.527 3.058a.5.5 0 0 1-.064.705l-.596.496a20.54 20.54 0 0 1-13.112 4.74zm-.238-1h.24a19.54 19.54 0 0 0 12.472-4.51l.2-.166a7.48 7.48 0 0 0-5.426-2.325c-3.968.001-7.226 3.097-7.484 7zm13.03-4.126zm-5.544 15.726a4.11 4.11 0 0 1-3.417-1.823c-.055-.083-.086-.182-.086-.28v-1.58c0-.34.38-.6.696-.464a7.49 7.49 0 0 0 5.617-.003.5.5 0 0 1 .688.464v1.592a.5.5 0 0 1-.085.279 4.11 4.11 0 0 1-3.413 1.816zm-2.503-2.262a3.06 3.06 0 0 0 2.5 1.262c1.006 0 1.908-.455 2.5-1.254v-.725c-1.623.5-3.377.502-5 0v.717zm2.5-23.336c-1.93 0-3.5-1.57-3.5-3.5s1.57-3.5 3.5-3.5 3.5 1.57 3.5 3.5-1.57 3.5-3.5 3.5zm0-6c-1.378 0-2.5 1.122-2.5 2.5s1.122 2.5 2.5 2.5 2.5-1.122 2.5-2.5-1.122-2.5-2.5-2.5zm3 54h-6a.5.5 0 0 1-.5-.5v-6a.5.5 0 0 1 .5-.5h6a.5.5 0 0 1 .5.5v6a.5.5 0 0 1-.5.5zm-5.5-1h5v-5h-5v5zm7.5-2.525a.5.5 0 0 1-.103-.989 23.49 23.49 0 0 0 18.09-18.09c.057-.27.327-.44.593-.386a.5.5 0 0 1 .386.593c-2.004 9.453-9.407 16.856-18.86 18.86a.55.55 0 0 1-.105.011zm-10 0c-.034 0-.07-.003-.104-.01-9.453-2.004-16.856-9.407-18.86-18.86a.5.5 0 0 1 .979-.207 23.49 23.49 0 0 0 18.09 18.09.5.5 0 0 1 .386.593c-.05.234-.26.396-.5.396zM8.776 27.5c-.034 0-.07-.003-.104-.01a.5.5 0 0 1-.386-.593c2.004-9.453 9.407-16.856 18.86-18.86a.5.5 0 0 1 .207.979 23.49 23.49 0 0 0-18.09 18.09.5.5 0 0 1-.488.396zm46.948 0a.5.5 0 0 1-.489-.396 23.49 23.49 0 0 0-18.09-18.09.5.5 0 0 1-.386-.593c.058-.27.325-.443.593-.386 9.453 2.004 16.856 9.407 18.86 18.86a.5.5 0 0 1-.386.593.45.45 0 0 1-.103.011zm-44.474 8h-6a.5.5 0 0 1-.447-.723l3-6c.17-.34.725-.34.895 0l3 6a.5.5 0 0 1-.448.723zm-5.2-1h4.382l-2.2-4.382L6.06 34.5zm52.7.5a.5.5 0 0 1-.354-.146l-5-5a.5.5 0 0 1 .707-.707l5 5a.5.5 0 0 1-.353.853z"/><path d="M53.75 35a.5.5 0 0 1-.354-.853l5-5a.5.5 0 0 1 .707.707l-5 5a.5.5 0 0 1-.353.146zM6.25 54.5h-1a.5.5 0 1 1 0-1h1a.5.5 0 1 1 0 1zm8 0h-6a.5.5 0 1 1 0-1h6a.5.5 0 1 1 0 1zm44.5-44h-1a.5.5 0 1 1 0-1h1a.5.5 0 1 1 0 1zm-3 0h-6a.5.5 0 1 1 0-1h6a.5.5 0 1 1 0 1z"/></g></svg>