<?xml version="1.0" encoding="utf-8"?>
<!-- Generator: Adobe Illustrator 18.0.0, SVG Export Plug-In . SVG Version: 6.00 Build 0)  -->
<!DOCTYPE svg PUBLIC "-//W3C//DTD SVG 1.1//EN" "http://www.w3.org/Graphics/SVG/1.1/DTD/svg11.dtd">
<svg version="1.1" id="Layer_1" xmlns="http://www.w3.org/2000/svg" xmlns:xlink="http://www.w3.org/1999/xlink" x="0px" y="0px"
	 viewBox="0 0 129.5 129.5" enable-background="new 0 0 129.5 129.5" xml:space="preserve">
<g>
	<g>
		<polygon fill="#E6E9EE" points="109.2,63 109.2,46.4 69.9,46.4 69.9,98.7 69.9,118.5 125.7,118.5 125.7,63 		"/>
		<polygon fill="#E6E9EE" points="43.1,26.2 43.1,9.7 3.7,9.7 3.7,62 3.7,81.7 59.6,81.7 59.6,26.2 		"/>
		<g>
			<circle fill="#FF7058" cx="79.3" cy="9.7" r="2.7"/>
		</g>
		<g>
			<circle fill="#FFD05B" cx="49.2" cy="121.2" r="2.4"/>
		</g>
		<g>
			<circle fill="#84DBFF" cx="9.1" cy="113.8" r="2.4"/>
		</g>
		<g>
			<circle fill="#84DBFF" cx="117.8" cy="20.5" r="2.7"/>
		</g>
		<g>
			<g>
				<path fill="#231F20" d="M91.6,29c-0.2,0-0.4-0.1-0.5-0.2c-0.3-0.3-0.3-0.8,0-1.1l1.3-1.3c0.3-0.3,0.8-0.3,1.1,0
					c0.3,0.3,0.3,0.8,0,1.1l-1.3,1.3C92,28.9,91.8,29,91.6,29z"/>
			</g>
			<g>
				<path fill="#231F20" d="M87.6,33c-0.2,0-0.4-0.1-0.5-0.2c-0.3-0.3-0.3-0.8,0-1.1l1.3-1.3c0.3-0.3,0.8-0.3,1.1,0
					c0.3,0.3,0.3,0.8,0,1.1l-1.3,1.3C88,32.9,87.8,33,87.6,33z"/>
			</g>
			<g>
				<path fill="#231F20" d="M92.9,33c-0.2,0-0.4-0.1-0.5-0.2l-1.3-1.3c-0.3-0.3-0.3-0.8,0-1.1c0.3-0.3,0.8-0.3,1.1,0l1.3,1.3
					c0.3,0.3,0.3,0.8,0,1.1C93.3,32.9,93.1,33,92.9,33z"/>
			</g>
			<g>
				<path fill="#231F20" d="M88.9,29c-0.2,0-0.4-0.1-0.5-0.2l-1.3-1.3c-0.3-0.3-0.3-0.8,0-1.1c0.3-0.3,0.8-0.3,1.1,0l1.3,1.3
					c0.3,0.3,0.3,0.8,0,1.1C89.3,28.9,89.1,29,88.9,29z"/>
			</g>
		</g>
		<path fill="#231F20" d="M53.8,75.1c-0.3-0.3-0.3-0.8,0-1.1l1.7-1.7h-2c-4.5,0-8.2-3.7-8.2-8.2c0-4.5,3.7-8.2,8.2-8.2h15.3
			c0.4,0,0.8,0.3,0.8,0.8c0,0.4-0.3,0.8-0.8,0.8H53.5c-3.7,0-6.7,3-6.7,6.7c0,3.7,3,6.7,6.7,6.7h3.8c0.3,0,0.6,0.2,0.7,0.5
			c0.1,0.3,0.1,0.6-0.2,0.8l-3,3C54.6,75.3,54,75.3,53.8,75.1z"/>
		<path fill="#231F20" d="M76,72.3H61.5c-0.4,0-0.8-0.3-0.8-0.8s0.3-0.8,0.8-0.8H76c3.7,0,6.7-3,6.7-6.7c0-3.7-3-6.7-6.7-6.7h-3.8
			c-0.3,0-0.6-0.2-0.7-0.5c-0.1-0.3-0.1-0.6,0.2-0.8l3-3c0.3-0.3,0.8-0.3,1.1,0c0.3,0.3,0.3,0.8,0,1.1L74,55.9h2
			c4.5,0,8.2,3.7,8.2,8.2C84.3,68.6,80.6,72.3,76,72.3z"/>
		<g>
			<path fill="#231F20" d="M15.6,43.7c-1.6,0-2.9-1.3-2.9-2.9v-2.7c0-1.6,1.3-2.9,2.9-2.9c1.6,0,2.9,1.3,2.9,2.9v2.7
				C18.5,42.4,17.2,43.7,15.6,43.7z M15.6,36.7c-0.8,0-1.4,0.6-1.4,1.4v2.7c0,0.8,0.6,1.4,1.4,1.4c0.8,0,1.4-0.6,1.4-1.4v-2.7
				C17,37.3,16.4,36.7,15.6,36.7z"/>
		</g>
		<g>
			<path fill="#231F20" d="M21.5,43.7c-0.4,0-0.8-0.3-0.8-0.8v-5.2l0,0c-0.3,0.3-0.8,0.3-1.1,0c-0.3-0.3-0.3-0.8,0-1.1l1.3-1.3
				c0.2-0.2,0.5-0.3,0.8-0.2c0.3,0.1,0.5,0.4,0.5,0.7v7C22.2,43.4,21.9,43.7,21.5,43.7z"/>
		</g>
		<g>
			<path fill="#231F20" d="M26.3,43.7c-1.6,0-2.9-1.3-2.9-2.9v-2.7c0-1.6,1.3-2.9,2.9-2.9c1.6,0,2.9,1.3,2.9,2.9v2.7
				C29.2,42.4,27.9,43.7,26.3,43.7z M26.3,36.7c-0.8,0-1.4,0.6-1.4,1.4v2.7c0,0.8,0.6,1.4,1.4,1.4s1.4-0.6,1.4-1.4v-2.7
				C27.7,37.3,27,36.7,26.3,36.7z"/>
		</g>
		<g>
			<path fill="#231F20" d="M32.2,43.7c-0.4,0-0.8-0.3-0.8-0.8v-5.2l0,0c-0.3,0.3-0.8,0.3-1.1,0c-0.3-0.3-0.3-0.8,0-1.1l1.3-1.3
				c0.2-0.2,0.5-0.3,0.8-0.2c0.3,0.1,0.5,0.4,0.5,0.7v7C32.9,43.4,32.6,43.7,32.2,43.7z"/>
		</g>
		<g>
			<path fill="#231F20" d="M37,43.7c-1.6,0-2.9-1.3-2.9-2.9v-2.7c0-1.6,1.3-2.9,2.9-2.9s2.9,1.3,2.9,2.9v2.7
				C39.9,42.4,38.6,43.7,37,43.7z M37,36.7c-0.8,0-1.4,0.6-1.4,1.4v2.7c0,0.8,0.6,1.4,1.4,1.4s1.4-0.6,1.4-1.4v-2.7
				C38.4,37.3,37.7,36.7,37,36.7z"/>
		</g>
		<g>
			<path fill="#231F20" d="M42.9,43.7c-0.4,0-0.8-0.3-0.8-0.8v-5.2l0,0c-0.3,0.3-0.8,0.3-1.1,0c-0.3-0.3-0.3-0.8,0-1.1l1.3-1.3
				c0.2-0.2,0.5-0.3,0.8-0.2c0.3,0.1,0.5,0.4,0.5,0.7v7C43.6,43.4,43.3,43.7,42.9,43.7z"/>
		</g>
		<g>
			<path fill="#231F20" d="M30.1,55.3c-1.6,0-2.9-1.3-2.9-2.9v-2.7c0-1.6,1.3-2.9,2.9-2.9c1.6,0,2.9,1.3,2.9,2.9v2.7
				C33,54,31.7,55.3,30.1,55.3z M30.1,48.3c-0.8,0-1.4,0.6-1.4,1.4v2.7c0,0.8,0.6,1.4,1.4,1.4s1.4-0.6,1.4-1.4v-2.7
				C31.5,48.9,30.8,48.3,30.1,48.3z"/>
		</g>
		<g>
			<path fill="#231F20" d="M14.7,55.3c-0.4,0-0.8-0.3-0.8-0.8v-5.2l0,0c-0.3,0.3-0.8,0.3-1.1,0c-0.3-0.3-0.3-0.8,0-1.1l1.3-1.3
				c0.2-0.2,0.5-0.3,0.8-0.2c0.3,0.1,0.5,0.4,0.5,0.7v7C15.5,55,15.2,55.3,14.7,55.3z"/>
		</g>
		<g>
			<path fill="#231F20" d="M19.4,55.3c-1.6,0-2.9-1.3-2.9-2.9v-2.7c0-1.6,1.3-2.9,2.9-2.9c1.6,0,2.9,1.3,2.9,2.9v2.7
				C22.3,54,21,55.3,19.4,55.3z M19.4,48.3c-0.8,0-1.4,0.6-1.4,1.4v2.7c0,0.8,0.6,1.4,1.4,1.4s1.4-0.6,1.4-1.4v-2.7
				C20.8,48.9,20.2,48.3,19.4,48.3z"/>
		</g>
		<g>
			<path fill="#231F20" d="M25.4,55.3c-0.4,0-0.8-0.3-0.8-0.8v-5.2l0,0c-0.3,0.3-0.8,0.3-1.1,0c-0.3-0.3-0.3-0.8,0-1.1l1.3-1.3
				c0.2-0.2,0.5-0.3,0.8-0.2c0.3,0.1,0.5,0.4,0.5,0.7v7C26.1,55,25.8,55.3,25.4,55.3z"/>
		</g>
		<g>
			<path fill="#231F20" d="M40.7,55.3c-1.6,0-2.9-1.3-2.9-2.9v-2.7c0-1.6,1.3-2.9,2.9-2.9c1.6,0,2.9,1.3,2.9,2.9v2.7
				C43.6,54,42.3,55.3,40.7,55.3z M40.7,48.3c-0.8,0-1.4,0.6-1.4,1.4v2.7c0,0.8,0.6,1.4,1.4,1.4c0.8,0,1.4-0.6,1.4-1.4v-2.7
				C42.1,48.9,41.5,48.3,40.7,48.3z"/>
		</g>
		<g>
			<path fill="#231F20" d="M36,55.3c-0.4,0-0.8-0.3-0.8-0.8v-5.2l0,0c-0.3,0.3-0.8,0.3-1.1,0c-0.3-0.3-0.3-0.8,0-1.1l1.3-1.3
				c0.2-0.2,0.5-0.3,0.8-0.2c0.3,0.1,0.5,0.4,0.5,0.7v7C36.8,55,36.5,55.3,36,55.3z"/>
		</g>
		<g>
			<path fill="#231F20" d="M85.3,100.2c-1.6,0-2.9-1.3-2.9-2.9v-2.7c0-1.6,1.3-2.9,2.9-2.9c1.6,0,2.9,1.3,2.9,2.9v2.7
				C88.2,98.9,86.9,100.2,85.3,100.2z M85.3,93.2c-0.8,0-1.4,0.6-1.4,1.4v2.7c0,0.8,0.6,1.4,1.4,1.4s1.4-0.6,1.4-1.4v-2.7
				C86.7,93.8,86,93.2,85.3,93.2z"/>
		</g>
		<g>
			<path fill="#231F20" d="M91.2,100.2c-0.4,0-0.8-0.3-0.8-0.8v-5.2l0,0c-0.3,0.3-0.8,0.3-1.1,0c-0.3-0.3-0.3-0.8,0-1.1l1.3-1.3
				c0.2-0.2,0.5-0.3,0.8-0.2c0.3,0.1,0.5,0.4,0.5,0.7v7C91.9,99.9,91.6,100.2,91.2,100.2z"/>
		</g>
		<g>
			<path fill="#231F20" d="M96,100.2c-1.6,0-2.9-1.3-2.9-2.9v-2.7c0-1.6,1.3-2.9,2.9-2.9c1.6,0,2.9,1.3,2.9,2.9v2.7
				C98.9,98.9,97.6,100.2,96,100.2z M96,93.2c-0.8,0-1.4,0.6-1.4,1.4v2.7c0,0.8,0.6,1.4,1.4,1.4s1.4-0.6,1.4-1.4v-2.7
				C97.4,93.8,96.7,93.2,96,93.2z"/>
		</g>
		<g>
			<path fill="#231F20" d="M101.9,100.2c-0.4,0-0.8-0.3-0.8-0.8v-5.2l0,0c-0.3,0.3-0.8,0.3-1.1,0c-0.3-0.3-0.3-0.8,0-1.1l1.3-1.3
				c0.2-0.2,0.5-0.3,0.8-0.2c0.3,0.1,0.5,0.4,0.5,0.7v7C102.6,99.9,102.3,100.2,101.9,100.2z"/>
		</g>
		<g>
			<path fill="#231F20" d="M106.6,100.2c-1.6,0-2.9-1.3-2.9-2.9v-2.7c0-1.6,1.3-2.9,2.9-2.9c1.6,0,2.9,1.3,2.9,2.9v2.7
				C109.5,98.9,108.2,100.2,106.6,100.2z M106.6,93.2c-0.8,0-1.4,0.6-1.4,1.4v2.7c0,0.8,0.6,1.4,1.4,1.4s1.4-0.6,1.4-1.4v-2.7
				C108,93.8,107.4,93.2,106.6,93.2z"/>
		</g>
		<g>
			<path fill="#231F20" d="M112.5,100.2c-0.4,0-0.8-0.3-0.8-0.8v-5.2l0,0c-0.3,0.3-0.8,0.3-1.1,0c-0.3-0.3-0.3-0.8,0-1.1l1.3-1.3
				c0.2-0.2,0.5-0.3,0.8-0.2c0.3,0.1,0.5,0.4,0.5,0.7v7C113.3,99.9,113,100.2,112.5,100.2z"/>
		</g>
		<g>
			<path fill="#231F20" d="M99.8,111.9c-1.6,0-2.9-1.3-2.9-2.9v-2.7c0-1.6,1.3-2.9,2.9-2.9c1.6,0,2.9,1.3,2.9,2.9v2.7
				C102.7,110.6,101.4,111.9,99.8,111.9z M99.8,104.8c-0.8,0-1.4,0.6-1.4,1.4v2.7c0,0.8,0.6,1.4,1.4,1.4c0.8,0,1.4-0.6,1.4-1.4v-2.7
				C101.2,105.5,100.5,104.8,99.8,104.8z"/>
		</g>
		<g>
			<path fill="#231F20" d="M84.4,111.9c-0.4,0-0.8-0.3-0.8-0.8v-5.2l0,0c-0.3,0.3-0.8,0.3-1.1,0c-0.3-0.3-0.3-0.8,0-1.1l1.3-1.3
				c0.2-0.2,0.5-0.3,0.8-0.2c0.3,0.1,0.5,0.4,0.5,0.7v7C85.2,111.5,84.9,111.9,84.4,111.9z"/>
		</g>
		<g>
			<path fill="#231F20" d="M89.1,111.9c-1.6,0-2.9-1.3-2.9-2.9v-2.7c0-1.6,1.3-2.9,2.9-2.9c1.6,0,2.9,1.3,2.9,2.9v2.7
				C92,110.6,90.7,111.9,89.1,111.9z M89.1,104.8c-0.8,0-1.4,0.6-1.4,1.4v2.7c0,0.8,0.6,1.4,1.4,1.4s1.4-0.6,1.4-1.4v-2.7
				C90.5,105.5,89.9,104.8,89.1,104.8z"/>
		</g>
		<g>
			<path fill="#231F20" d="M95.1,111.9c-0.4,0-0.8-0.3-0.8-0.8v-5.2l0,0c-0.3,0.3-0.8,0.3-1.1,0c-0.3-0.3-0.3-0.8,0-1.1l1.3-1.3
				c0.2-0.2,0.5-0.3,0.8-0.2c0.3,0.1,0.5,0.4,0.5,0.7v7C95.8,111.5,95.5,111.9,95.1,111.9z"/>
		</g>
		<g>
			<path fill="#231F20" d="M110.4,111.9c-1.6,0-2.9-1.3-2.9-2.9v-2.7c0-1.6,1.3-2.9,2.9-2.9c1.6,0,2.9,1.3,2.9,2.9v2.7
				C113.3,110.6,112,111.9,110.4,111.9z M110.4,104.8c-0.8,0-1.4,0.6-1.4,1.4v2.7c0,0.8,0.6,1.4,1.4,1.4s1.4-0.6,1.4-1.4v-2.7
				C111.8,105.5,111.2,104.8,110.4,104.8z"/>
		</g>
		<g>
			<path fill="#231F20" d="M105.7,111.9c-0.4,0-0.8-0.3-0.8-0.8v-5.2l0,0c-0.3,0.3-0.8,0.3-1.1,0c-0.3-0.3-0.3-0.8,0-1.1l1.3-1.3
				c0.2-0.2,0.5-0.3,0.8-0.2c0.3,0.1,0.5,0.4,0.5,0.7v7C106.5,111.5,106.1,111.9,105.7,111.9z"/>
		</g>
		<path fill="#231F20" d="M129.3,59.4l-16.5-16.5l0,0c-0.1-0.1-0.3-0.2-0.5-0.2H66.9c-0.4,0-0.8,0.3-0.8,0.8v7.1
			c0,0.4,0.3,0.8,0.8,0.8s0.8-0.3,0.8-0.8v-6.3h43.8V60c0,0.4,0.3,0.8,0.8,0.8H128v60H67.7V99.4h3.2c0.3,0,0.5-0.1,0.6-0.4
			c0.1-0.2,0.1-0.5,0-0.7l-3.9-7.3c-0.3-0.5-1.1-0.5-1.3,0l-3.9,7.3c-0.1,0.2-0.1,0.5,0,0.7c0.1,0.2,0.4,0.4,0.6,0.4h3.2v22.1
			c0,0.4,0.3,0.8,0.8,0.8h61.8c0.4,0,0.8-0.3,0.8-0.8V60C129.5,59.7,129.4,59.6,129.3,59.4z M64.3,97.9l2.7-4.9l2.7,4.9H64.3z
			 M113,59.2V45.3l13.9,13.9H113z"/>
		<path fill="#FFFFFF" d="M38,78.1l-4.1-1.8l-0.1,0.2c-0.9,1.6-2.6,2.4-4.4,2.3c-0.4,0-0.7,0-1.1,0c-1.8,0-3.5-0.9-4.3-2.6L23.9,76
			l-4.2,1.6l0.1,0.3c0.5,1.7-0.1,3.6-1.5,4.8c-0.3,0.2-0.5,0.5-0.8,0.7c-1.3,1.3-3.1,1.8-4.8,1.2l-0.3-0.1l-1.8,4.1l0.2,0.1
			c1.6,0.9,2.4,2.6,2.3,4.4c0,0.4,0,0.7,0,1.1c0,1.8-0.9,3.5-2.6,4.3l-0.3,0.1l1.6,4.2l0.3-0.1c1.7-0.5,3.6,0.1,4.8,1.5
			c0.2,0.3,0.5,0.5,0.7,0.8c1.3,1.3,1.8,3.1,1.2,4.8l-0.1,0.3l4.1,1.8l0.1-0.2c0.9-1.6,2.6-2.4,4.4-2.3c0.4,0,0.7,0,1.1,0
			c1.8,0,3.5,0.9,4.3,2.6l0.1,0.3l4.2-1.6l-0.1-0.3c-0.5-1.7,0.1-3.6,1.5-4.8c0.3-0.2,0.5-0.5,0.8-0.7c1.3-1.3,3.1-1.8,4.8-1.2
			l0.3,0.1l1.8-4.1l-0.2-0.1c-1.6-0.9-2.4-2.6-2.3-4.4c0-0.4,0-0.7,0-1.1c0-1.8,0.9-3.5,2.6-4.3l0.3-0.1l-1.6-4.2l-0.3,0.1
			c-1.7,0.5-3.6-0.1-4.8-1.5c-0.2-0.3-0.5-0.5-0.7-0.8c-1.3-1.3-1.8-3.1-1.2-4.8L38,78.1z"/>
		<path fill="#231F20" d="M58.6,30.2c-0.3,0-0.5,0.1-0.6,0.4c-0.1,0.2-0.1,0.5,0,0.7l3.9,7.3c0.1,0.2,0.4,0.4,0.7,0.4
			c0.3,0,0.5-0.2,0.7-0.4l3.9-7.3c0.1-0.2,0.1-0.5,0-0.7c-0.1-0.2-0.4-0.4-0.6-0.4h-3.1v-6.9c0-0.2-0.1-0.4-0.2-0.5L46.6,6.2
			C46.5,6,46.3,6,46.1,6H0.7C0.3,6,0,6.3,0,6.7v78c0,0.4,0.3,0.8,0.7,0.8h10.4l-1.2,2.7c-0.2,0.4,0,0.8,0.3,1l0.2,0.1
			c1.3,0.7,2,2.2,1.9,3.7c0,0.4,0,0.7,0,1.1c0,1.6-0.8,3-2.1,3.6l-0.3,0.1c-0.3,0.2-0.5,0.6-0.4,0.9l1.6,4.2
			c0.1,0.4,0.5,0.6,0.9,0.5l0.3-0.1c1.4-0.4,3,0.1,4,1.3c0.2,0.3,0.5,0.5,0.8,0.8c1.1,1.1,1.5,2.7,1,4.1l-0.1,0.3
			c-0.1,0.4,0,0.8,0.4,0.9l4.1,1.8c0.4,0.2,0.8,0,1-0.3l0.1-0.2c0.7-1.3,2.1-2,3.7-1.9c0.3,0,0.7,0,1,0h0.1c1.6,0,2.9,0.8,3.6,2.1
			l0.1,0.3c0.1,0.3,0.4,0.4,0.7,0.4c0.1,0,0.2,0,0.3,0l4.2-1.6c0.4-0.1,0.6-0.5,0.5-0.9l-0.1-0.3c-0.4-1.4,0.1-3,1.3-4
			c0.3-0.2,0.5-0.5,0.8-0.8c1.1-1.1,2.7-1.5,4.1-1l0.3,0.1c0.4,0.1,0.8,0,0.9-0.4l1.8-4.1c0.2-0.4,0-0.8-0.3-1l-0.2-0.1
			c-1.3-0.7-2-2.2-1.9-3.7c0-0.4,0-0.7,0-1.1c0-1.6,0.8-3,2.1-3.6l0.3-0.1c0.3-0.2,0.5-0.6,0.4-0.9l-1.5-3.8h16.8
			c0.4,0,0.8-0.3,0.8-0.8v-6c0-0.4-0.3-0.8-0.8-0.8s-0.8,0.3-0.8,0.8V84H41c-0.2-0.2-0.4-0.3-0.6-0.5c-0.2-0.3-0.5-0.5-0.8-0.8
			c-1.1-1.1-1.5-2.7-1-4.1l0.1-0.3c0.1-0.4,0-0.8-0.4-0.9l-4.1-1.8c-0.4-0.2-0.8,0-1,0.3l-0.1,0.2c-0.7,1.3-2.1,2-3.7,1.9
			c-0.3,0-0.7,0-1,0h-0.1c-1.6,0-2.9-0.8-3.6-2.1l-0.1-0.3c-0.2-0.3-0.6-0.5-0.9-0.4l-4.2,1.6c-0.4,0.1-0.6,0.5-0.5,0.9l0.1,0.3
			c0.4,1.4-0.1,3-1.3,4c-0.3,0.2-0.5,0.5-0.8,0.8c-1.1,1.1-2.7,1.5-4.1,1l-0.3-0.1c-0.3-0.1-0.6,0-0.8,0.3H1.5V7.5h43.8v15.8
			c0,0.4,0.3,0.8,0.8,0.8h15.8v6.2H58.6z M12.8,85.3c1.8,0.5,3.9-0.1,5.2-1.5c0.2-0.2,0.5-0.5,0.7-0.7c1.5-1.3,2.2-3.3,1.8-5.1
			l2.9-1.1c1,1.6,2.7,2.6,4.7,2.6v-0.8l0.1,0.8c0.3,0,0.6,0,0.9,0c2,0.1,3.9-0.8,4.9-2.3l2.9,1.3c-0.5,1.8,0.1,3.8,1.5,5.2
			c0.2,0.2,0.5,0.5,0.7,0.7c1.3,1.5,3.3,2.2,5.1,1.8l1.1,2.9c-1.6,1-2.6,2.8-2.6,4.8c0,0.3,0,0.7,0,1c-0.1,2,0.8,3.8,2.3,4.9
			l-1.3,2.9c-1.8-0.5-3.9,0.1-5.2,1.5c-0.2,0.2-0.5,0.5-0.7,0.7c-1.5,1.3-2.2,3.3-1.8,5.1l-2.9,1.1c-1-1.6-2.7-2.6-4.7-2.6h-0.1
			c-0.3,0-0.6,0-0.9,0c-2-0.1-3.9,0.8-4.9,2.3l-2.9-1.3c0.5-1.8-0.1-3.8-1.5-5.2c-0.2-0.2-0.5-0.5-0.7-0.7c-1.3-1.5-3.3-2.2-5.1-1.8
			l-1.1-2.9c1.6-1,2.6-2.8,2.6-4.8c0-0.3,0-0.7,0-1c0.1-2-0.8-3.8-2.3-4.9L12.8,85.3z M46.8,22.5V8.5l13.9,13.9H46.8z M65.1,31.7
			l-2.7,4.9l-2.7-4.9H65.1z"/>
		<g>
			<path fill="#231F20" d="M29,106.4l-0.1-1.5c0.3,0,0.6,0,0.9-0.1l0.2,1.5C29.7,106.3,29.3,106.4,29,106.4z M26.8,106.3
				c-0.4,0-0.7-0.1-1-0.2l0.3-1.5c0.3,0.1,0.6,0.1,0.9,0.2L26.8,106.3z M32.1,105.8l-0.5-1.4c0.3-0.1,0.6-0.2,0.9-0.3l0.6,1.4
				C32.8,105.6,32.4,105.7,32.1,105.8z M23.8,105.5c-0.1-0.1-0.3-0.1-0.4-0.2c-0.2-0.1-0.4-0.2-0.5-0.3l0.7-1.3
				c0.2,0.1,0.3,0.2,0.5,0.2c0.1,0.1,0.3,0.1,0.4,0.2L23.8,105.5z M35,104.5l-0.8-1.3c0.3-0.2,0.5-0.3,0.8-0.5l0.9,1.2
				C35.6,104.1,35.3,104.3,35,104.5z M21,103.9c-0.3-0.2-0.6-0.4-0.8-0.7l1-1.1c0.2,0.2,0.5,0.4,0.7,0.6L21,103.9z M37.4,102.5
				l-1.1-1c0.2-0.2,0.4-0.5,0.6-0.7l1.2,0.9C37.9,101.9,37.7,102.2,37.4,102.5z M18.7,101.7c-0.2-0.3-0.4-0.6-0.6-0.9l1.3-0.8
				c0.2,0.3,0.4,0.5,0.5,0.8L18.7,101.7z M39.3,99.9L38,99.2c0.1-0.2,0.2-0.4,0.3-0.7l0.1-0.2l1.4,0.6l-0.1,0.2
				C39.5,99.4,39.4,99.6,39.3,99.9z M17.1,99c-0.1-0.3-0.3-0.7-0.4-1l1.4-0.5c0.1,0.3,0.2,0.6,0.3,0.9L17.1,99z M40.4,96.9l-1.5-0.3
				c0.1-0.3,0.1-0.6,0.2-0.9l1.5,0.2C40.6,96.2,40.5,96.5,40.4,96.9z M16.2,95.9c-0.1-0.4-0.1-0.7-0.1-1.1l1.5-0.1
				c0,0.3,0.1,0.6,0.1,0.9L16.2,95.9z M39.2,93.7c0-0.3,0-0.6-0.1-0.9l1.5-0.2c0,0.4,0.1,0.7,0.1,1.1L39.2,93.7z M17.6,92.9
				l-1.5-0.2c0-0.4,0.1-0.7,0.2-1.1l1.5,0.3C17.7,92.3,17.6,92.6,17.6,92.9z M38.8,91c-0.1-0.3-0.2-0.6-0.3-0.9l1.4-0.5
				c0.1,0.3,0.2,0.7,0.3,1L38.8,91z M18.2,90.2l-1.4-0.5c0.1-0.2,0.2-0.4,0.3-0.7c0-0.1,0.1-0.2,0.2-0.3l1.3,0.7l-0.1,0.3
				C18.4,89.8,18.3,90,18.2,90.2z M37.7,88.4c-0.2-0.3-0.3-0.5-0.5-0.8l1.2-0.9c0.2,0.3,0.4,0.6,0.6,0.9L37.7,88.4z M19.6,87.7
				l-1.2-0.9c0.2-0.3,0.4-0.6,0.7-0.8l1.1,1C19.9,87.2,19.8,87.5,19.6,87.7z M35.9,86.2c-0.2-0.2-0.5-0.4-0.7-0.6l0.9-1.2
				c0.3,0.2,0.5,0.5,0.8,0.7L35.9,86.2z M21.5,85.7l-1-1.2c0.3-0.2,0.6-0.4,0.9-0.6l0.8,1.2C22,85.3,21.7,85.5,21.5,85.7z
				 M33.7,84.6c-0.3-0.1-0.5-0.3-0.8-0.4c-0.3-0.1-0.5-0.2-0.8-0.3l0.5-1.4c0.3,0.1,0.6,0.2,0.9,0.4c0.3,0.1,0.6,0.3,0.9,0.5
				L33.7,84.6z M23.9,84.2l-0.6-1.4c0.3-0.1,0.7-0.3,1-0.4l0.5,1.4C24.4,84,24.1,84.1,23.9,84.2z M30.2,83.4
				c-0.3-0.1-0.6-0.1-0.9-0.1l0.1-1.5c0.4,0,0.7,0.1,1.1,0.1L30.2,83.4z M26.5,83.4l-0.3-1.5c0.3-0.1,0.7-0.1,1.1-0.1l0.1,1.5
				C27.1,83.3,26.8,83.3,26.5,83.4z"/>
		</g>
		<g>
			<circle fill="#FFD05B" cx="28.4" cy="94.1" r="9.2"/>
		</g>
		<g>
			<circle fill="#FFFFFF" cx="28.4" cy="94.1" r="4.6"/>
			<path fill="#231F20" d="M28.4,99.4c-0.8,0-1.5-0.2-2.2-0.5c-1.3-0.6-2.3-1.6-2.8-3c-0.5-1.3-0.5-2.8,0.1-4.1
				c0.9-1.9,2.8-3.2,4.9-3.2c0.8,0,1.5,0.2,2.2,0.5c1.3,0.6,2.3,1.6,2.8,3c0.5,1.3,0.5,2.8-0.1,4.1C32.4,98.2,30.5,99.4,28.4,99.4z
				 M28.4,90.2c-1.5,0-2.9,0.9-3.5,2.3c-0.4,0.9-0.5,2-0.1,2.9c0.4,1,1.1,1.7,2,2.1c0.5,0.2,1,0.3,1.6,0.3c1.5,0,2.9-0.9,3.5-2.3
				c0.4-0.9,0.5-2,0.1-2.9c-0.4-1-1.1-1.7-2-2.1C29.5,90.3,28.9,90.2,28.4,90.2z"/>
		</g>
		<g>
			<rect x="83.5" y="72.8" fill="#231F20" width="29" height="1.5"/>
		</g>
		<g>
			<rect x="83.5" y="76.3" fill="#231F20" width="29" height="1.5"/>
		</g>
		<g>
			<rect x="83.5" y="79.8" fill="#231F20" width="29" height="1.5"/>
		</g>
		<g>
			<rect x="83.5" y="83.3" fill="#231F20" width="20.6" height="1.5"/>
		</g>
		<g>
			<rect x="9.4" y="27.5" fill="#231F20" width="26.8" height="1.5"/>
		</g>
		<g>
			<rect x="9.4" y="24" fill="#231F20" width="26.8" height="1.5"/>
		</g>
		<g>
			<rect x="9.4" y="20.4" fill="#231F20" width="26.8" height="1.5"/>
		</g>
		<g>
			<rect x="9.4" y="16.9" fill="#231F20" width="19" height="1.5"/>
		</g>
	</g>
</g>
</svg>
