<?xml version="1.0" encoding="utf-8"?>
<!-- Generator: Adobe Illustrator 18.0.0, SVG Export Plug-In . SVG Version: 6.00 Build 0)  -->
<!DOCTYPE svg PUBLIC "-//W3C//DTD SVG 1.1//EN" "http://www.w3.org/Graphics/SVG/1.1/DTD/svg11.dtd">
<svg version="1.1" id="Layer_1" xmlns="http://www.w3.org/2000/svg" xmlns:xlink="http://www.w3.org/1999/xlink" x="0px" y="0px"
	 viewBox="0 0 129.5 129.5" enable-background="new 0 0 129.5 129.5" xml:space="preserve">
<g>
	<g>
		<circle fill="#84DBFF" cx="98.2" cy="43.1" r="3.3"/>
		<circle fill="#84DBFF" cx="15.5" cy="118.5" r="2.5"/>
		<circle fill="#FF7058" cx="28" cy="12.6" r="2.5"/>
		<g>
			<path fill="#231F20" d="M108.1,16.7c-0.2,0-0.4-0.1-0.5-0.2c-0.3-0.3-0.3-0.8,0-1.1l1.3-1.3c0.3-0.3,0.8-0.3,1.1,0
				c0.3,0.3,0.3,0.8,0,1.1l-1.3,1.3C108.5,16.6,108.3,16.7,108.1,16.7z"/>
		</g>
		<g>
			<path fill="#231F20" d="M104.1,20.7c-0.2,0-0.4-0.1-0.5-0.2c-0.3-0.3-0.3-0.8,0-1.1l1.3-1.3c0.3-0.3,0.8-0.3,1.1,0
				c0.3,0.3,0.3,0.8,0,1.1l-1.3,1.3C104.5,20.7,104.3,20.7,104.1,20.7z"/>
		</g>
		<g>
			<path fill="#231F20" d="M109.4,20.7c-0.2,0-0.4-0.1-0.5-0.2l-1.3-1.3c-0.3-0.3-0.3-0.8,0-1.1c0.3-0.3,0.8-0.3,1.1,0l1.3,1.3
				c0.3,0.3,0.3,0.8,0,1.1C109.8,20.7,109.6,20.7,109.4,20.7z"/>
		</g>
		<g>
			<path fill="#231F20" d="M105.4,16.7c-0.2,0-0.4-0.1-0.5-0.2l-1.3-1.3c-0.3-0.3-0.3-0.8,0-1.1c0.3-0.3,0.8-0.3,1.1,0l1.3,1.3
				c0.3,0.3,0.3,0.8,0,1.1C105.8,16.6,105.6,16.7,105.4,16.7z"/>
		</g>
		<g>
			<path fill="#231F20" d="M25.3,31.3c-0.2,0-0.4-0.1-0.5-0.2c-0.3-0.3-0.3-0.8,0-1.1l1.3-1.3c0.3-0.3,0.8-0.3,1.1,0
				c0.3,0.3,0.3,0.8,0,1.1l-1.3,1.3C25.7,31.2,25.5,31.3,25.3,31.3z"/>
		</g>
		<g>
			<path fill="#231F20" d="M21.3,35.3c-0.2,0-0.4-0.1-0.5-0.2c-0.3-0.3-0.3-0.8,0-1.1l1.3-1.3c0.3-0.3,0.8-0.3,1.1,0
				c0.3,0.3,0.3,0.8,0,1.1l-1.3,1.3C21.7,35.3,21.5,35.3,21.3,35.3z"/>
		</g>
		<g>
			<path fill="#231F20" d="M26.6,35.3c-0.2,0-0.4-0.1-0.5-0.2l-1.3-1.3c-0.3-0.3-0.3-0.8,0-1.1c0.3-0.3,0.8-0.3,1.1,0l1.3,1.3
				c0.3,0.3,0.3,0.8,0,1.1C27,35.3,26.8,35.3,26.6,35.3z"/>
		</g>
		<g>
			<path fill="#231F20" d="M22.6,31.3c-0.2,0-0.4-0.1-0.5-0.2l-1.3-1.3c-0.3-0.3-0.3-0.8,0-1.1c0.3-0.3,0.8-0.3,1.1,0l1.3,1.3
				c0.3,0.3,0.3,0.8,0,1.1C23,31.2,22.8,31.3,22.6,31.3z"/>
		</g>
		<g>
			<path fill="#231F20" d="M114.2,118.4c-0.2,0-0.4-0.1-0.5-0.2c-0.3-0.3-0.3-0.8,0-1.1l1.3-1.3c0.3-0.3,0.8-0.3,1.1,0
				c0.3,0.3,0.3,0.8,0,1.1l-1.3,1.3C114.6,118.3,114.4,118.4,114.2,118.4z"/>
		</g>
		<g>
			<path fill="#231F20" d="M110.2,122.4c-0.2,0-0.4-0.1-0.5-0.2c-0.3-0.3-0.3-0.8,0-1.1l1.3-1.3c0.3-0.3,0.8-0.3,1.1,0
				c0.3,0.3,0.3,0.8,0,1.1l-1.3,1.3C110.6,122.3,110.4,122.4,110.2,122.4z"/>
		</g>
		<g>
			<path fill="#231F20" d="M115.5,122.4c-0.2,0-0.4-0.1-0.5-0.2l-1.3-1.3c-0.3-0.3-0.3-0.8,0-1.1c0.3-0.3,0.8-0.3,1.1,0l1.3,1.3
				c0.3,0.3,0.3,0.8,0,1.1C115.9,122.3,115.7,122.4,115.5,122.4z"/>
		</g>
		<g>
			<path fill="#231F20" d="M111.5,118.4c-0.2,0-0.4-0.1-0.5-0.2l-1.3-1.3c-0.3-0.3-0.3-0.8,0-1.1c0.3-0.3,0.8-0.3,1.1,0l1.3,1.3
				c0.3,0.3,0.3,0.8,0,1.1C111.9,118.3,111.7,118.4,111.5,118.4z"/>
		</g>
		<rect x="45.8" y="62.2" fill="#FF7058" width="38" height="54"/>
		<path fill="#231F20" d="M79.6,48.4h-2.7L65.7,12.2c2.9-0.5,5.2-3,5.2-6.1c0-3.4-2.8-6.2-6.2-6.2c-3.4,0-6.2,2.8-6.2,6.2
			c0,3.1,2.2,5.6,5.2,6.1L52.6,48.4h-2.7c-3.8,0-6.9,3.1-6.9,6.9v67.3c0,3.8,3.1,6.9,6.9,6.9h29.7c3.8,0,6.9-3.1,6.9-6.9V55.3
			C86.5,51.5,83.4,48.4,79.6,48.4z M65.5,16.5l9.8,31.8h-9.8V16.5z M60.1,6.2c0-2.6,2.1-4.7,4.7-4.7c2.6,0,4.7,2.1,4.7,4.7
			c0,2.6-2.1,4.7-4.7,4.7C62.2,10.8,60.1,8.7,60.1,6.2z M64,16.5v31.8h-9.8L64,16.5z M85,122.6c0,3-2.4,5.4-5.4,5.4H49.9
			c-3,0-5.4-2.4-5.4-5.4v-2.9H85V122.6z M85,118.2H44.5V60.7H85V118.2z M85,59.2H44.5v-3.9c0-3,2.4-5.4,5.4-5.4h29.7
			c3,0,5.4,2.4,5.4,5.4V59.2z"/>
		<path fill="#231F20" d="M81.3,107.7h-1.5v-0.4h1.5V107.7z M81.3,105.2h-1.5v-1h1.5V105.2z M81.3,102.2h-1.5v-1h1.5V102.2z
			 M81.3,99.2h-1.5v-1h1.5V99.2z M81.3,96.2h-1.5v-1h1.5V96.2z M81.3,93.2h-1.5v-1h1.5V93.2z M81.3,90.2h-1.5v-1h1.5V90.2z
			 M81.3,87.2h-1.5v-1h1.5V87.2z M81.3,84.2h-1.5v-1h1.5V84.2z M81.3,81.2h-1.5v-1h1.5V81.2z M81.3,78.2h-1.5v-1h1.5V78.2z
			 M81.3,75.2h-1.5v-1h1.5V75.2z M81.3,72.2h-1.5v-1h1.5V72.2z"/>
		<g>
			<path fill="#231F20" d="M97.5,88.2h-3c-2.1,0-3.9-1.7-3.9-3.9c0-1,0.4-2,1.1-2.7c0.7-0.7,1.7-1.1,2.7-1.1h3.9
				c0.3,0,0.5,0.1,0.7,0.4c0.1,0.2,0.1,0.5,0,0.8c-0.5,0.7-0.7,1.5-0.7,2.4v3.4C98.3,87.9,97.9,88.2,97.5,88.2z M94.5,82
				c-0.6,0-1.2,0.2-1.7,0.7c-0.4,0.4-0.7,1-0.7,1.7c0,1.3,1.1,2.4,2.4,2.4h2.3v-2.6c0-0.7,0.1-1.4,0.4-2.1H94.5z"/>
		</g>
		<g>
			<path fill="#231F20" d="M38.9,90.4c0-1-0.4-1.9-1.1-2.6c-0.1-0.1-0.3-0.3-0.5-0.4c1-0.7,1.6-1.8,1.6-3.1c0-1-0.4-2-1.1-2.7
				c-0.7-0.7-1.7-1.1-2.7-1.1h-3.5c-1.1-1.5-2.8-2.4-4.8-2.4h-6.9c-1.2,0-2.4,0.5-3.3,1.4l-7.3,7.3h-8c-0.4,0-0.8,0.3-0.8,0.8
				c0,0.4,0.3,0.8,0.8,0.8h7.6v1.5c0,0.4,0.3,0.8,0.8,0.8c0.4,0,0.8-0.3,0.8-0.8v-1.9l7.3-7.3c0.6-0.6,1.4-0.9,2.2-0.9h6.9
				c2.5,0,4.5,2,4.5,4.5v6.6c-2.5-0.4-4.5-2.6-4.5-5.2v-1.1c0-0.4-0.3-0.8-0.8-0.8c-0.4,0-0.8,0.3-0.8,0.8v0.3H24
				c-0.4,0-0.8,0.3-0.8,0.8c0,0.4,0.3,0.8,0.8,0.8h1.2c0,0.3,0.1,0.6,0.2,0.8c-1.3,0.6-2.2,2-2.2,3.5c0,1,0.4,2,1.1,2.7
				c0.1,0.1,0.3,0.3,0.5,0.4c-1,0.7-1.6,1.8-1.6,3.1c0,1.3,0.6,2.4,1.6,3.1c-1,0.7-1.6,1.8-1.6,3.1c0,0.9,0.3,1.7,0.8,2.3H11.4
				l-1.8-1.8c-0.1-0.1-0.3-0.2-0.5-0.2H0.7c-0.4,0-0.7,0.3-0.7,0.8s0.3,0.8,0.7,0.8h8l1.8,1.8c0.1,0.1,0.3,0.2,0.5,0.2H35
				c2.1,0,3.8-1.7,3.8-3.8c0-1.3-0.6-2.4-1.6-3.1c1-0.7,1.6-1.8,1.6-3.1c0-1.3-0.6-2.4-1.6-3.1c0.2-0.1,0.4-0.3,0.6-0.5
				C38.5,92.4,38.9,91.5,38.9,90.4z M32.4,82H35c0.6,0,1.2,0.2,1.7,0.7c0.4,0.4,0.7,1,0.7,1.7c0,1.3-1.1,2.4-2.4,2.4h-2.3l0,0v-2.6
				C32.7,83.4,32.6,82.7,32.4,82L32.4,82z M37.4,103c0,1.3-1.1,2.3-2.3,2.3h-8c-1.3,0-2.3-1-2.3-2.4c0-1.3,1-2.3,2.3-2.3h8
				C36.3,100.6,37.4,101.7,37.4,103z M37.4,96.8c0,1.3-1.1,2.3-2.3,2.3h-8c-1.3,0-2.3-1-2.3-2.4c0-1.3,1-2.3,2.3-2.3h8
				C36.3,94.4,37.4,95.5,37.4,96.8z M36.7,92.1c-0.5,0.5-1.2,0.8-1.8,0.8h-7.8c-0.6,0-1.2-0.2-1.7-0.7c-0.4-0.4-0.7-1-0.7-1.7
				c0-0.9,0.5-1.7,1.2-2.1l0,0c1.1,2.2,3.4,3.8,6,3.8c0.4,0,0.8-0.3,0.8-0.8v-3.3l0,0H35c0.6,0,1.2,0.2,1.7,0.7
				c0.4,0.4,0.7,1,0.7,1.6C37.4,91.1,37.2,91.7,36.7,92.1z"/>
			<path fill="#231F20" d="M19.6,88c0-0.4-0.3-0.8-0.8-0.8c-0.4,0-0.8,0.3-0.8,0.8c0,3.1-2.5,5.7-5.7,5.7c-0.4,0-0.8,0.3-0.8,0.8
				c0,0.4,0.3,0.8,0.8,0.8C16.3,95.2,19.6,92,19.6,88z"/>
			<rect x="8.8" y="94.5" fill="#231F20" width="1.5" height="1"/>
			<rect x="8.8" y="91.5" fill="#231F20" width="1.5" height="1"/>
		</g>
		<g>
			<path fill="#231F20" d="M91.7,93.2c0.2,0.2,0.4,0.3,0.6,0.5c-1,0.7-1.6,1.8-1.6,3.1c0,1.3,0.6,2.4,1.6,3.1
				c-1,0.7-1.6,1.8-1.6,3.1c0,2.1,1.7,3.8,3.8,3.8h23.9c0.2,0,0.4-0.1,0.5-0.2l1.8-1.8h8c0.4,0,0.8-0.3,0.8-0.8s-0.3-0.8-0.8-0.8
				h-8.3c-0.2,0-0.4,0.1-0.5,0.2l-1.8,1.8h-12.6c0.5-0.6,0.8-1.4,0.8-2.3c0-1.3-0.6-2.4-1.6-3.1c1-0.7,1.6-1.8,1.6-3.1
				c0-1.3-0.6-2.4-1.6-3.1c0.2-0.1,0.3-0.2,0.5-0.4c0.7-0.7,1.1-1.7,1.1-2.7c0-1.5-0.9-2.9-2.2-3.5c0.1-0.3,0.1-0.5,0.2-0.8h1.2
				c0.4,0,0.8-0.3,0.8-0.8c0-0.4-0.3-0.8-0.8-0.8h-1.2v-0.3c0-0.4-0.3-0.8-0.8-0.8c-0.4,0-0.8,0.3-0.8,0.8v1.1c0,2.6-2,4.8-4.5,5.2
				v-6.6c0-2.5,2-4.5,4.5-4.5h6.9c0.8,0,1.6,0.3,2.2,0.9l7.3,7.3v1.9c0,0.4,0.3,0.8,0.8,0.8s0.8-0.3,0.8-0.8v-1.5h7.6
				c0.4,0,0.8-0.3,0.8-0.8c0-0.4-0.3-0.8-0.8-0.8h-8l-7.3-7.3c-0.9-0.9-2-1.4-3.3-1.4h-6.9c-2,0-3.7,1-4.8,2.4h-3.5
				c-1,0-2,0.4-2.7,1.1c-0.7,0.7-1.1,1.7-1.1,2.7c0,1.3,0.6,2.4,1.6,3.1c-0.2,0.1-0.3,0.2-0.5,0.4c-0.7,0.7-1.1,1.6-1.1,2.6
				C90.6,91.5,91,92.4,91.7,93.2z M97.1,82c-0.2,0.6-0.4,1.3-0.4,2.1v2.6l0,0h-2.3c-1.3,0-2.4-1.1-2.4-2.4c0-0.6,0.3-1.2,0.7-1.7
				c0.4-0.4,1-0.7,1.7-0.7L97.1,82L97.1,82z M94.5,100.6h8c1.3,0,2.3,1,2.3,2.3c0,1.3-1,2.4-2.3,2.4h-8c-1.3,0-2.3-1.1-2.3-2.3
				C92.1,101.7,93.2,100.6,94.5,100.6z M94.5,94.4h8c1.3,0,2.3,1,2.3,2.3c0,1.3-1,2.4-2.3,2.4h-8c-1.3,0-2.3-1.1-2.3-2.3
				C92.1,95.5,93.2,94.4,94.5,94.4z M92.1,90.5c0-0.6,0.3-1.2,0.7-1.6c0.4-0.4,1-0.7,1.7-0.7h2.3l0,0v3.3c0,0.4,0.3,0.8,0.8,0.8
				c2.6,0,4.9-1.5,6-3.8l0,0c0.7,0.4,1.2,1.2,1.2,2.1c0,0.6-0.2,1.2-0.7,1.7c-0.4,0.4-1,0.7-1.7,0.7h-7.8c-0.7,0-1.4-0.3-1.8-0.8
				C92.3,91.7,92.1,91.1,92.1,90.5z"/>
			<path fill="#231F20" d="M109.9,88c0-0.4,0.3-0.8,0.8-0.8s0.8,0.3,0.8,0.8c0,3.1,2.5,5.7,5.7,5.7c0.4,0,0.8,0.3,0.8,0.8
				c0,0.4-0.3,0.8-0.8,0.8C113.2,95.2,109.9,92,109.9,88z"/>
			<rect x="119.2" y="94.5" fill="#231F20" width="1.5" height="1"/>
			<rect x="119.2" y="91.5" fill="#231F20" width="1.5" height="1"/>
		</g>
		<g>
			<g>
				<path fill="#231F20" d="M96,73l-0.8-1.3l0.8-0.5l0.8,1.3L96,73z M98.5,71.4l-0.8-1.3l0.8-0.5l0.8,1.3L98.5,71.4z M101.1,69.8
					l-0.8-1.3l0.8-0.5l0.8,1.3L101.1,69.8z"/>
			</g>
			<g>
				<path fill="#231F20" d="M92.5,68.9l-1.2-0.9l0.6-0.8l1.2,0.9L92.5,68.9z M94.2,66.5L93,65.6l0.6-0.8l1.2,0.9L94.2,66.5z M96,64
					l-1.2-0.9l0.6-0.8l1.2,0.9L96,64z"/>
			</g>
		</g>
		<g>
			<g>
				<path fill="#231F20" d="M101.1,115.8l-0.8-0.5l0.8-1.3l0.8,0.5L101.1,115.8z M98.6,114.2l-0.8-0.5l0.8-1.3l0.8,0.5L98.6,114.2z
					 M96,112.6l-0.8-0.5l0.8-1.3l0.8,0.5L96,112.6z"/>
			</g>
			<g>
				<path fill="#231F20" d="M95.3,121.5l-0.6-0.8l1.2-0.9l0.6,0.8L95.3,121.5z M93.6,119l-0.6-0.8l1.2-0.9l0.6,0.8L93.6,119z
					 M91.8,116.6l-0.6-0.8l1.2-0.9l0.6,0.8L91.8,116.6z"/>
			</g>
		</g>
		<g>
			<g>
				<path fill="#231F20" d="M28.4,115.8l-0.8-1.3l0.8-0.5l0.8,1.3L28.4,115.8z M30.9,114.2l-0.8-1.3l0.8-0.5l0.8,1.3L30.9,114.2z
					 M33.5,112.6l-0.8-1.3l0.8-0.5l0.8,1.3L33.5,112.6z"/>
			</g>
			<g>
				<path fill="#231F20" d="M34.2,121.5l-1.2-0.9l0.6-0.8l1.2,0.9L34.2,121.5z M35.9,119l-1.2-0.9l0.6-0.8l1.2,0.9L35.9,119z
					 M37.7,116.6l-1.2-0.9l0.6-0.8l1.2,0.9L37.7,116.6z"/>
			</g>
		</g>
		<g>
			<g>
				<path fill="#231F20" d="M33.5,73l-0.8-0.5l0.8-1.3l0.8,0.5L33.5,73z M31,71.4l-0.8-0.5l0.8-1.3l0.8,0.5L31,71.4z M28.4,69.8
					l-0.8-0.5l0.8-1.3l0.8,0.5L28.4,69.8z"/>
			</g>
			<g>
				<path fill="#231F20" d="M37,68.9l-0.6-0.8l1.2-0.9l0.6,0.8L37,68.9z M35.3,66.5l-0.6-0.8l1.2-0.9l0.6,0.8L35.3,66.5z M33.5,64
					L33,63.2l1.2-0.9l0.6,0.8L33.5,64z"/>
			</g>
		</g>
	</g>
</g>
</svg>
