<svg xmlns="http://www.w3.org/2000/svg" xmlns:xlink="http://www.w3.org/1999/xlink" width="500" height="280"><style><![CDATA[.r{stroke-miterlimit:10}.s{stroke-width:1.5}.t{stroke:#414042}.u{fill:none}.v{fill:#ffb936}.w{fill:#58595b}.x{fill:#6d6e71}.y{fill:#00d4ff}.z{fill:#f1f2f2}]]></style><defs><clipPath id="A"><path d="M90.823 387.107h12.685v-58.91H90.823z"/></clipPath><path id="B" d="M39.13-318.858l-21.93 2.74c-2.047.256-3.675 2.333-3.675 4.644v38.69c0 2.312 1.628 4.39 3.675 4.645l21.93 2.74c2.6.325 4.754-1.582 4.754-4.266v-44.924c0-2.684-2.154-4.59-4.754-4.266"/><path id="C" d="M39.13-318.858l-21.93 2.74c-2.047.256-3.675 2.333-3.675 4.644v38.69c0 2.312 1.628 4.39 3.675 4.645l21.93 2.74c2.6.325 4.754-1.582 4.754-4.266v-44.924c0-2.684-2.154-4.59-4.754-4.266z"/><path id="D" d="M11.655-283.915h-1.427a.86.86 0 0 0-.86.859v5.795a.86.86 0 0 0 .86.859h1.427a.86.86 0 0 0 .859-.859v-5.795a.86.86 0 0 0-.859-.859"/><path id="E" d="M11.655-283.915h-1.427a.86.86 0 0 0-.86.859v5.795a.86.86 0 0 0 .86.859h1.427a.86.86 0 0 0 .859-.859v-5.795a.86.86 0 0 0-.859-.859z"/><path id="F" d="M27.247-292.125c0-2.152-1.503-3.736-3.193-3.554-1.534.165-2.677 1.75-2.677 3.554s1.143 3.39 2.677 3.554c1.7.182 3.193-1.4 3.193-3.554"/></defs><g transform="matrix(2.671895 0 0 -2.836735 135.270874 -639.291992)"><path d="M88.988-323.285H67.412c-1.098 0-1.987.9-1.987 1.987v36.688c0 1.097.89 1.987 1.987 1.987h21.576a1.99 1.99 0 0 0 1.987-1.987v-36.688a1.99 1.99 0 0 0-1.987-1.987" fill="#fff"/><path d="M65.425-299.5v14.6c0 1.262 1.023 2.285 2.286 2.285h2.177m8.235.002H88.7c1.263 0 2.286-1.023 2.286-2.285V-321c0-1.263-1.023-2.286-2.286-2.286m-16.705 40.663h3.613m-1.188-3.064h7.563m-2.557-34.273a1.23 1.23 0 0 0-1.226-1.227 1.23 1.23 0 0 0-1.227 1.227c0 .677.55 1.226 1.227 1.226s1.226-.55 1.226-1.226z" class="r s t u"/><path d="M88.42-317.295H67.98v28.803h20.44z" class="y"/><path d="M97.938-323.285h-4.086v81.908c0 1.128.915 2.043 2.043 2.043s2.043-.915 2.043-2.043z" fill="#fff"/><g class="r s t u"><path d="M93.852-323.285v82.08a1.87 1.87 0 0 0 1.87 1.871h.345a1.87 1.87 0 0 0 1.871-1.871v-82.08"/><path d="M81.582-248.458h28.626"/></g><path d="M100.2-248.204a4.29 4.29 0 1 0-8.582 0 4.29 4.29 0 1 0 8.582 0" class="w"/><g class="r s t u"><path d="M100.2-248.204a4.29 4.29 0 1 0-8.582 0 4.29 4.29 0 1 0 8.582 0zm13.035-14.3l-5.518 15.4"/><path d="M103.232-262.504l5.985 15.4"/></g><path d="M115.134-261.895a6.86 6.86 0 0 0-6.857-6.858 6.86 6.86 0 0 0-6.858 6.858z" class="v"/><g class="r s t u"><path d="M78.598-262.504l5.518 15.4"/><path d="M88.602-262.504l-5.985 15.4"/></g><path d="M76.7-261.895a6.86 6.86 0 0 1 6.858-6.858 6.86 6.86 0 0 1 6.857 6.858z" class="v"/><g class="r s t u"><path d="M114.454-264.876a6.87 6.87 0 0 0-.988-1.502"/><path d="M112.175-267.537a6.82 6.82 0 0 0-2.126-.984 6.85 6.85 0 0 0-1.772-.231 6.86 6.86 0 0 0-6.858 6.857h13.715c0-.856-.157-1.677-.444-2.433m-38 2.433a6.86 6.86 0 0 1 6.858-6.858 6.86 6.86 0 0 1 6.857 6.858z"/></g><path d="M110.096-248.458c0-.995-.807-1.802-1.803-1.802s-1.802.807-1.802 1.802.807 1.803 1.802 1.803 1.803-.807 1.803-1.803" class="w"/><path d="M110.096-248.458c0-.995-.807-1.802-1.803-1.802s-1.802.807-1.802 1.802.807 1.803 1.802 1.803 1.803-.807 1.803-1.803z" class="r s t u"/><path d="M85.36-248.458c0-.995-.807-1.802-1.802-1.802s-1.803.807-1.803 1.802.807 1.803 1.803 1.803 1.802-.807 1.802-1.803" class="w"/><path d="M85.36-248.458c0-.995-.807-1.802-1.802-1.802s-1.803.807-1.803 1.802.807 1.803 1.803 1.803 1.802-.807 1.802-1.803z" class="r s t u"/><path d="M-1.91-323.285h-29.66v47.973h29.66z" class="x"/><g class="r s t"><path d="M-31.57-323.285v47.973h23.646" class="u"/><path d="M-3.938-323.285H-29.54v40.957h25.602z" class="v"/><g class="u"><path d="M-25.268-282.33v-40.957m4.2 40.957v-40.957m4.212 40.957v-40.957m4.2 40.957v-40.957m4.232 40.957v-40.957"/><path d="M-29.54-303.747h25.6m-25.6 4.2h25.6m-25.6-8.42h25.6m-25.6-4.212h25.6m-25.6-4.2h25.6m-25.6-4.22h25.6m-25.6 25.274h25.6m-25.6 4.2h25.6m-25.6 4.22h25.6"/></g><path d="M12.986-244.844H-2.232v6.974h15.218z" class="y"/></g><path d="M16.114-323.285H-5.36v80.612h21.475z" class="y"/><path d="M10.886-323.285H-.918v80.612h11.804z" fill="#9ef"/><g class="r s t u"><path d="M-2.232-225.094v-13.36m15.218 13.36v-13.36m-7.67 9.334v-8.72M-5.36-323.285v80.612h21.475v-20.704"/><path d="M-.918-242.673v-80.32m12.1 80.32v-21.873"/><g stroke-linecap="round"><path d="M-44.42-261.604h4.274"/><path d="M-42.283-263.74v4.274M104.087-289h4.274"/><path d="M106.224-291.148v4.274m-57.704 32.07h4.274"/><path d="M50.657-256.94v4.274m16.643 8.482l3.022 3.022"/><path d="M70.323-244.184l-3.022 3.022m50.535-17.596l3.022 3.022"/><path d="M120.858-258.758l-3.022 3.022m-157.63-53.734l3.022 3.022"/><path d="M-36.77-309.47l-3.022 3.022"/></g><path d="M23.486-242.673h40.717m-10.76 13.553H94.16m19.8-59.88h22.573m-151.195 27.406h-17.396m-5.07-.01h3.57"/></g><path d="M-48.008-274.124a1.22 1.22 0 1 0-2.444 0 1.22 1.22 0 1 0 2.444 0m88.058 18.1a1.22 1.22 0 1 0-2.444 0 1.22 1.22 0 1 0 2.444 0" fill="#414042"/><path d="M109.583-304.838a1.22 1.22 0 1 0-2.444 0 1.22 1.22 0 1 0 2.444 0" fill="#0686d8"/><path d="M-39.417-298.08a.73.73 0 0 0-.728-.728.73.73 0 0 0-.729.728.73.73 0 0 0 .729.729.73.73 0 0 0 .728-.729m97.7 60.24a.73.73 0 0 0-.728-.728.73.73 0 0 0-.729.728.73.73 0 0 0 .729.728.73.73 0 0 0 .728-.728m70.714-21.395a.73.73 0 0 0-.728-.728.73.73 0 0 0-.729.728.73.73 0 0 0 .729.729.73.73 0 0 0 .728-.729m-157.1 19.9a.73.73 0 0 0-.728-.728.73.73 0 0 0-.729.728.73.73 0 0 0 .729.728.73.73 0 0 0 .728-.728" fill="#414042"/><g clip-path="url(#A)" opacity=".3" transform="translate(-87.394 -651.483)"><path d="M101.994 387.107c-6.16 0-11.17-5.01-11.17-11.17V341.53c0-4.676 2.89-8.685 6.977-10.347v-2.986h5.708v58.91z" fill="#231f20"/></g><path d="M20.32-323.285h-7.165v5.504h7.165z" class="r s t x"/><path d="M51.004-320.374H16.6c-5.756 0-10.422 4.666-10.422 10.422v34.404c0 5.755 4.666 10.42 10.422 10.42h34.404c5.756 0 10.422-4.666 10.422-10.42v-34.404c0-5.756-4.666-10.422-10.422-10.422" class="z"/><path d="M49.963-315.66H17.64a6.75 6.75 0 0 0-6.749 6.749v32.322a6.75 6.75 0 0 0 6.749 6.749h32.322a6.75 6.75 0 0 0 6.749-6.749v-32.322a6.75 6.75 0 0 0-6.749-6.749" class="w"/><g class="r s t u"><path d="M50.5-315.66H17.104c-3.43 0-6.212 2.78-6.212 6.212v33.396c0 3.43 2.78 6.212 6.212 6.212H50.5c3.43 0 6.212-2.78 6.212-6.212v-33.396c0-3.43-2.78-6.212-6.212-6.212z"/><path d="M51.004-320.374H16.6c-5.756 0-10.422 4.666-10.422 10.422v34.404c0 5.755 4.666 10.42 10.422 10.42h34.404c5.756 0 10.422-4.666 10.422-10.42v-34.404c0-5.756-4.666-10.422-10.422-10.422z"/></g><path d="M57.94-323.018H45.404c-.137 0-.248.11-.248.248v3.628c0 .137.11.248.248.248H57.94c.137 0 .248-.11.248-.248v-3.628c0-.137-.11-.248-.248-.248" class="v"/><path d="M57.18-323.018H46.165c-.137 0-.248.11-.248.248v3.146c0 .137.11.248.248.248H57.18c.137 0 .248-.11.248-.248v-3.146c0-.137-.11-.248-.248-.248z" class="r s t u"/><path d="M56.164-319.375H45.15c-.137 0-.248.11-.248.248v3.147c0 .137.11.248.248.248h11.014c.137 0 .248-.11.248-.248v-3.147c0-.137-.11-.248-.248-.248" class="v"/><path d="M56.164-319.375H45.15c-.137 0-.248.11-.248.248v3.147c0 .137.11.248.248.248h11.014c.137 0 .248-.11.248-.248v-3.147c0-.137-.11-.248-.248-.248z" class="r s t u"/><path d="M56.91-315.732H45.897c-.137 0-.248.11-.248.248v3.147c0 .136.11.248.248.248H56.91c.137 0 .248-.112.248-.248v-3.147c0-.137-.11-.248-.248-.248" class="v"/><path d="M56.91-315.732H45.897c-.137 0-.248.11-.248.248v3.147c0 .136.11.248.248.248H56.91c.137 0 .248-.112.248-.248v-3.147c0-.137-.11-.248-.248-.248z" class="r s t u"/><path d="M57.218-312.1H46.204c-.137 0-.248.11-.248.248v3.147c0 .137.11.248.248.248h11.014c.137 0 .248-.11.248-.248v-3.147c0-.137-.11-.248-.248-.248" class="v"/><path d="M57.218-312.1H46.204c-.137 0-.248.11-.248.248v3.147c0 .137.11.248.248.248h11.014c.137 0 .248-.11.248-.248v-3.147c0-.137-.11-.248-.248-.248z" class="r s t u"/><path d="M54.882-308.447H43.868c-.137 0-.248.11-.248.248v3.147c0 .136.11.248.248.248h11.014c.137 0 .248-.112.248-.248v-3.147c0-.137-.11-.248-.248-.248" class="v"/><path d="M54.882-308.447H43.868c-.137 0-.248.11-.248.248v3.147c0 .136.11.248.248.248h11.014c.137 0 .248-.112.248-.248v-3.147c0-.137-.11-.248-.248-.248z" class="r s t u"/><path d="M55.19-304.805H44.175c-.137 0-.248.11-.248.248v3.147c0 .136.11.247.248.247H55.19c.137 0 .248-.11.248-.247v-3.147c0-.137-.11-.248-.248-.248" class="v"/><path d="M55.19-304.805H44.175c-.137 0-.248.11-.248.248v3.147c0 .136.11.247.248.247H55.19c.137 0 .248-.11.248-.247v-3.147c0-.137-.11-.248-.248-.248z" class="r s t u"/><path d="M52.412-301.162H41.398c-.137 0-.248.11-.248.248v3.147c0 .136.11.248.248.248h11.014c.137 0 .248-.112.248-.248v-3.147c0-.137-.11-.248-.248-.248" class="v"/><path d="M52.412-301.162H41.398c-.137 0-.248.11-.248.248v3.147c0 .136.11.248.248.248h11.014c.137 0 .248-.112.248-.248v-3.147c0-.137-.11-.248-.248-.248z" class="r s t u"/><path d="M69.71-323.018H58.695c-.137 0-.248.11-.248.248v3.146c0 .137.11.248.248.248H69.71c.137 0 .248-.11.248-.248v-3.146c0-.137-.11-.248-.248-.248" class="v"/><path d="M69.71-323.018H58.695c-.137 0-.248.11-.248.248v3.146c0 .137.11.248.248.248H69.71c.137 0 .248-.11.248-.248v-3.146c0-.137-.11-.248-.248-.248z" class="r s t u"/><path d="M69.71-319.375H58.695c-.137 0-.248.11-.248.248v3.147c0 .137.11.248.248.248H69.71c.137 0 .248-.11.248-.248v-3.147c0-.137-.11-.248-.248-.248" class="v"/><path d="M69.71-319.375H58.695c-.137 0-.248.11-.248.248v3.147c0 .137.11.248.248.248H69.71c.137 0 .248-.11.248-.248v-3.147c0-.137-.11-.248-.248-.248z" class="r s t u"/><path d="M68.828-315.732H57.814c-.137 0-.248.11-.248.248v3.147c0 .136.11.248.248.248h11.014c.137 0 .248-.112.248-.248v-3.147c0-.137-.11-.248-.248-.248" class="v"/><path d="M68.828-315.732H57.814c-.137 0-.248.11-.248.248v3.147c0 .136.11.248.248.248h11.014c.137 0 .248-.112.248-.248v-3.147c0-.137-.11-.248-.248-.248z" class="r s t u"/><path d="M69.71-312.1H58.695c-.137 0-.25.11-.25.248v3.147a.25.25 0 0 0 .249.248H69.71c.137 0 .248-.11.248-.248v-3.147c0-.137-.11-.248-.248-.248" class="v"/><path d="M69.71-312.1H58.695c-.137 0-.25.11-.25.248v3.147a.25.25 0 0 0 .249.248H69.71c.137 0 .248-.11.248-.248v-3.147c0-.137-.11-.248-.248-.248z" class="r s t u"/><path d="M68.387-308.447H57.372c-.137 0-.248.11-.248.248v3.147c0 .136.11.248.248.248h11.015c.137 0 .248-.112.248-.248v-3.147c0-.137-.11-.248-.248-.248" class="v"/><path d="M68.387-308.447H57.372c-.137 0-.248.11-.248.248v3.147c0 .136.11.248.248.248h11.015c.137 0 .248-.112.248-.248v-3.147c0-.137-.11-.248-.248-.248z" class="r s t u"/><path d="M63.136-304.81l-9.81 5.01a.25.25 0 0 0-.108.334l1.432 2.802c.062.122.212.17.334.108l9.808-5.01c.122-.062.17-.212.108-.334l-1.43-2.802a.25.25 0 0 0-.334-.108" class="v"/><path d="M63.136-304.81l-9.81 5.01a.25.25 0 0 0-.108.334l1.432 2.802c.062.122.212.17.334.108l9.808-5.01c.122-.062.17-.212.108-.334l-1.43-2.802a.25.25 0 0 0-.334-.108z" class="r s t u"/><path d="M43.517-310.856l-21.93 1.938c-2.047.18-3.675 1.65-3.675 3.286v27.375c0 1.636 1.628 3.105 3.675 3.286l21.93 1.938c2.6.23 4.754-1.12 4.754-3.018v-31.786c0-1.9-2.154-3.25-4.754-3.02" class="w"/><path d="M43.517-310.856l-21.93 1.938c-2.047.18-3.675 1.65-3.675 3.286v27.375c0 1.636 1.628 3.105 3.675 3.286l21.93 1.938c2.6.23 4.754-1.12 4.754-3.018v-31.786c0-1.9-2.154-3.25-4.754-3.02z" class="r s t u"/><use xlink:href="#B" class="x"/><use xlink:href="#C" class="r s t u"/><use xlink:href="#B" x="-2.634" class="z"/><path d="M41.25-314.592v38.018l-30.358-30.36v-4.542c0-2.31 1.627-4.388 3.675-4.644l21.93-2.74c2.6-.325 4.754 1.582 4.754 4.266" fill="#d1d3d4"/><use xlink:href="#C" x="-2.634" class="r s t u"/><use xlink:href="#D" fill="#fff"/><path d="M12.08-276.4h-1.198v-7.513h1.198c.24 0 .434.262.434.585v6.342c0 .324-.194.586-.434.586" fill="#bcbec0"/><use xlink:href="#E" class="r s t u"/><use xlink:href="#D" y="-22.815" fill="#fff"/><path d="M12.08-299.217h-1.198v-7.513h1.198c.24 0 .434.262.434.586v6.34c0 .324-.194.586-.434.586" fill="#bcbec0"/><use xlink:href="#E" y="-22.815" class="r s t u"/><path d="M30.345-292.125c0-3.347-2.47-5.516-4.966-4.966-2.044.45-3.447 2.643-3.447 4.966s1.403 4.516 3.447 4.966c2.496.55 4.966-1.62 4.966-4.966" class="w"/><path d="M30.345-292.125c0-3.347-2.47-5.516-4.966-4.966-2.044.45-3.447 2.643-3.447 4.966s1.403 4.516 3.447 4.966c2.496.55 4.966-1.62 4.966-4.966z" class="r s t u"/><path d="M29.006-292.106c0 2.186-1.228 3.835-2.71 3.986v.01h-1.312v-.3c-1.095-.605-1.847-2.068-1.847-3.706s.752-3.1 1.847-3.706v-.306h1.312v.026c1.483.15 2.71 1.8 2.71 3.986" class="x"/><use xlink:href="#F" fill="#9c999b"/><use xlink:href="#F" class="z"/><path d="M27.247-292.125c0-2.152-1.503-3.736-3.193-3.554-1.534.165-2.677 1.75-2.677 3.554s1.143 3.4 2.677 3.554c1.7.182 3.193-1.4 3.193-3.554zm-77.847-31.16h2.74m167.207 0h6.05m-171.435 0h163.822" class="r s t u"/></g></svg>