<svg xmlns="http://www.w3.org/2000/svg" width="105.827" height="105.827" viewBox="0 0 28 28"><g transform="matrix(.264583 0 0 .264583 -91.878413 -98.88228)"><path d="M411.185 402.04l.587 5.787-2 .203-.8-7.777 7.46-.76.203 1.988zm3.885 1.615l9.164 7.473-1.263 1.55-9.164-7.473zm-14.584 45.472l.75 7.78-7.464.723-.192-2 5.474-.532-.558-5.8zm-13.206-4.712l9.128 7.518-1.272 1.545-9.128-7.518z"/><path d="M396 408.438l-.454-1.105 4.693-7.215-6.4-6.836-7.77 4.35-1.183-.53-2.254-9.14h-9.366l-2.174 8.79-1.472.563-8.217-4.607-2.734 2.9-.94 1.008-2.73 2.912 4.727 7.29-.67 1.53-8.798 2.174v9.365l8.605 2.125.627 1.58-4.888 7.516 2.73 2.916.94 1.006 2.73 2.912 8.167-4.566 1.325.648 2.34 9.486h9.367l2.342-9.486 1.332-.656 8.227 4.984 2.826-2.824.977-.97 2.828-2.82-5.045-8.373.32-.898 9.447-2.334v-9.365z" fill="#57dcf1"/><path d="M382.98 444.518h-10.933l-2.417-9.8-.428-.21-8.397 4.697-7.47-7.98 5.022-7.72-.254-.643-8.847-2.186v-10.932l9.062-2.238.265-.605-4.85-7.48 7.478-7.973 8.476 4.752.564-.213 2.232-9.027h10.933l2.32 9.412.295.133 8.004-4.48 7.468 7.98-4.827 7.422.067.164 9.708 2.4v10.93l-9.64 2.38 5.18 8.596-7.74 7.723-8.434-5.11-.417.205zm-9.367-2h7.8l2.264-9.172.41-.207 1.36-.668.485-.23 8.014 4.855 5.522-5.5-4.88-8.098.15-.44.333-.934.187-.488 9.195-2.27v-7.8l-9.205-2.275-.184-.494-.43-1.04-.227-.498 4.565-7.02-5.327-5.69-7.544 4.22-.47-.227-1.12-.506-.475-.19-2.188-8.873h-7.8l-2.115 8.553-.5.18-1.403.535-.455.2-7.968-4.47-5.334 5.69 4.61 7.107-.25.508-.636 1.453-.188.486-8.543 2.11v7.8l8.37 2.068.18.5.594 1.496.228.498-4.76 7.32 5.33 5.69 7.93-4.434.464.215 1.353.66.41.207z"/><circle cx="377.855" cy="415.738" r="15.914" fill="#fff"/><path d="M377.854 432.65c-9.326 0-16.913-7.588-16.913-16.912s7.587-16.9 16.913-16.9 16.914 7.586 16.914 16.9-7.587 16.912-16.914 16.912zm0-31.822c-8.223 0-14.913 6.688-14.913 14.9s6.7 14.912 14.913 14.912 14.914-6.69 14.914-14.912-6.69-14.9-14.914-14.9z"/><path d="M379.714 421.28l7.37 7.37 3.68-3.68-7.43-7.432a6.08 6.08 0 0 0-.027-3.936l7.322-7.324c-1.075-1.375-2.366-2.57-3.83-3.53l-7.172 7.172c-1.27-.45-2.66-.45-3.938-.027l-6.796-6.797a15.96 15.96 0 0 0-3.693 3.67l6.748 6.748c-.46 1.24-.502 2.6-.118 3.86l-7.175 7.174a16.03 16.03 0 0 0 3.464 3.898l7.226-7.227c1.398.564 2.96.58 4.37.06z" fill="#ffc252"/><path d="M387.083 430.064l-7.647-7.646c-.597.16-1.212.24-1.835.24a7.06 7.06 0 0 1-1.992-.285l-7.418 7.418-.7-.564a16.98 16.98 0 0 1-3.68-4.14l-.428-.678 7.34-7.336c-.227-1.078-.195-2.2.1-3.28l-6.92-6.92.498-.7c1.092-1.512 2.412-2.824 3.925-3.898l.688-.5 6.98 6.98c1.104-.262 2.27-.256 3.36.02l7.324-7.326.68.445c1.55 1.016 2.92 2.277 4.072 3.752l.545.697-7.526 7.527a7.13 7.13 0 0 1 .021 3.359l7.72 7.723zm-7.115-9.943l7.115 7.115 2.266-2.266-7.158-7.16.195-.586c.356-1.072.35-2.24-.02-3.287l-.2-.596 7.125-7.125a14.95 14.95 0 0 0-2.364-2.17l-7.026 7.03-.595-.2c-1.048-.37-2.22-.377-3.3-.02l-.586.195-6.617-6.62a14.86 14.86 0 0 0-2.274 2.26l6.582 6.582-.222.602a5.07 5.07 0 0 0-.1 3.221l.176.576-7.02 7.018c.625.88 1.336 1.688 2.125 2.408l7.038-7.04.613.248c1.156.467 2.472.482 3.648.05zm-2.383-1.998c-1.35 0-2.447-1.092-2.447-2.447a2.45 2.45 0 0 1 2.447-2.441 2.45 2.45 0 0 1 2.445 2.441c0 1.355-1.097 2.447-2.445 2.447z"/><path d="M442.378 436.94l-.283-.938 4.406-5.52-4.68-6.093-6.693 2.936-.922-.53-1.115-7.64-3.262-.318-4.385-.425-2.475 7.004-1.246.34-6.342-4.414-3.315 2.906-2.46 2.162 3.28 6.326-.668 1.197-7.36 1.076-.425 4.387-.318 3.258 6.855 2.422.39 1.338-4.6 5.748 4.684 6.1 7.03-3.08 1.03.635 1.156 7.932 7.65.743 2.666-7.56 1.14-.428 6.318 4.723 3.406-2.797 2.535-2.078-3.453-7.236.332-.71 7.898-1.154.745-7.647z" fill="#ea3c3b"/><path d="M429 465.555l-9.207-.896-1.203-8.248-.18-.113-7.273 3.188-5.637-7.33 4.742-5.943-.104-.367-7.094-2.504.896-9.203 7.628-1.117.176-.314-3.385-6.527 6.95-6.102 6.6 4.586.305-.084 2.557-7.236 9.207.898 1.156 7.922.074.043 6.94-3.043 5.635 7.334-4.54 5.686 7.748 2.734-.896 9.205-7.96 1.164 3.502 7.338-7.152 5.87-6.514-4.87-.186.07zm-7.453-2.735l6.088.592 2.56-7.25.424-.166 1.178-.443.502-.174 6.117 4.572 4.73-3.88-3.316-6.95.19-.424.348-.742.232-.47 7.643-1.117.594-6.088-7.293-2.574-.133-.512-.264-.873-.174-.518 4.258-5.332-3.727-4.85-6.453 2.83-.443-.27-.867-.498-.45-.236-1.076-7.37-6.088-.594-2.395 6.777-.525.127-1.174.32-.473.152-6.107-4.25-4.596 4.035 3.182 6.137-.3.482-.627 1.12-.232.465-7.1 1.04-.592 6.086 6.623 2.34.13.52.363 1.254.178.52-4.44 5.566 3.727 4.848 6.783-2.97.44.26 1.057.65.39.246z"/><path d="M440.73 442.637c-.725 7.455-7.357 12.912-14.816 12.186a13.57 13.57 0 0 1-12.184-14.814c.726-7.453 7.36-12.9 14.813-12.184s12.914 7.36 12.187 14.812z" fill="#fff"/><path d="M427.247 455.887c-.475 0-.955-.023-1.43-.07-3.87-.377-7.36-2.238-9.834-5.244s-3.625-6.79-3.246-10.662a14.5 14.5 0 0 1 14.477-13.15c.473 0 .953.023 1.428.07 3.873.377 7.367 2.238 9.838 5.242s3.625 6.79 3.248 10.66c-.73 7.5-6.956 13.154-14.48 13.154zm-.033-27.127c-6.488 0-11.855 4.877-12.486 11.344-.326 3.34.67 6.605 2.8 9.2s5.145 4.2 8.482 4.523c7.012.68 13.057-4.412 13.727-11.287.324-3.338-.67-6.604-2.803-9.195s-5.146-4.2-8.486-4.523c-.417-.042-.827-.06-1.235-.06z"/><path d="M428.142 432.79a8.86 8.86 0 0 0-9.674 7.957c-.475 4.87 3.1 9.2 7.957 9.676s9.203-3.1 9.678-7.957a8.86 8.86 0 0 0-7.961-9.676zm-1.32 13.574a4.78 4.78 0 0 1-4.295-5.223c.256-2.625 2.596-4.55 5.22-4.295s4.553 2.596 4.297 5.223a4.78 4.78 0 0 1-5.223 4.295z" fill="#57dcf1"/><path d="M427.294 451.467a10.12 10.12 0 0 1-.965-.047 9.87 9.87 0 0 1-8.857-10.768c.525-5.395 5.295-9.398 10.768-8.855a9.79 9.79 0 0 1 6.66 3.549 9.8 9.8 0 0 1 2.199 7.217 9.82 9.82 0 0 1-9.805 8.904zm-.022-17.717c-4.06 0-7.416 3.05-7.81 7.096-.42 4.313 2.748 8.162 7.06 8.584.258.025.516.037.77.037 4.06 0 7.42-3.05 7.814-7.098a7.81 7.81 0 0 0-1.754-5.754c-1.334-1.62-3.22-2.625-5.31-2.828a8.01 8.01 0 0 0-.772-.037zm.022 13.64c-.19 0-.38-.01-.57-.03a5.74 5.74 0 0 1-3.904-2.08c-.98-1.19-1.438-2.695-1.29-4.232.31-3.162 3.1-5.506 6.314-5.193a5.74 5.74 0 0 1 3.904 2.082c.982 1.193 1.44 2.695 1.29 4.232-.287 2.974-2.758 5.22-5.744 5.22zm-.012-9.563c-1.955 0-3.572 1.467-3.762 3.414-.098 1.006.203 1.988.844 2.77s1.55 1.262 2.553 1.36c2.123.205 3.93-1.324 4.13-3.395.098-1.006-.2-1.988-.842-2.77s-1.55-1.264-2.557-1.36a4.13 4.13 0 0 0-.367-.017z"/></g></svg>