<?xml version="1.0" encoding="UTF-8" standalone="no"?>
<!-- Created with Inkscape (http://www.inkscape.org/) -->

<svg
   xmlns:dc="http://purl.org/dc/elements/1.1/"
   xmlns:cc="http://creativecommons.org/ns#"
   xmlns:rdf="http://www.w3.org/1999/02/22-rdf-syntax-ns#"
   xmlns:svg="http://www.w3.org/2000/svg"
   xmlns="http://www.w3.org/2000/svg"
   xmlns:sodipodi="http://sodipodi.sourceforge.net/DTD/sodipodi-0.dtd"
   xmlns:inkscape="http://www.inkscape.org/namespaces/inkscape"
   width="28mm"
   height="28mm"
   viewBox="0 0 28 28"
   version="1.1"
   id="svg3944"
   inkscape:version="0.92.3 (2405546, 2018-03-11)"
   sodipodi:docname="services.svg">
  <defs
     id="defs3938" />
  <sodipodi:namedview
     id="base"
     pagecolor="#ffffff"
     bordercolor="#666666"
     borderopacity="1.0"
     inkscape:pageopacity="0.0"
     inkscape:pageshadow="2"
     inkscape:zoom="5.6"
     inkscape:cx="82.635497"
     inkscape:cy="42.796161"
     inkscape:document-units="mm"
     inkscape:current-layer="layer1"
     showgrid="false"
     inkscape:window-width="1920"
     inkscape:window-height="1001"
     inkscape:window-x="-9"
     inkscape:window-y="-9"
     inkscape:window-maximized="1" />
  <metadata
     id="metadata3941">
    <rdf:RDF>
      <cc:Work
         rdf:about="">
        <dc:format>image/svg+xml</dc:format>
        <dc:type
           rdf:resource="http://purl.org/dc/dcmitype/StillImage" />
        <dc:title></dc:title>
      </cc:Work>
    </rdf:RDF>
  </metadata>
  <g
     inkscape:label="Layer 1"
     inkscape:groupmode="layer"
     id="layer1"
     transform="translate(0,-269)">
    <g
       transform="matrix(0.3261378,0,0,0.3261378,-11.249263,186.96905)"
       id="g1303">
      <g
         id="g1247">
        <g
           id="g1245">
          <path
             inkscape:connector-curvature="0"
             d="m 112.155,292.94 h -2 c 0,-17.516 -14.249,-31.765 -31.764,-31.765 v -2 c 18.618,10e-4 33.764,15.147 33.764,33.765 z"
             id="path1243" />
        </g>
      </g>
      <g
         id="g1253">
        <g
           id="g1251">
          <path
             inkscape:connector-curvature="0"
             d="m 77.059,328.036 c -18.618,0 -33.765,-15.146 -33.765,-33.764 h 2 c 0,17.514 14.25,31.764 31.765,31.764 z"
             id="path1249" />
        </g>
      </g>
      <g
         id="g1265">
        <g
           id="g1259">
          <circle
             style="fill:#ffffff"
             cx="77.685997"
             cy="293.332"
             r="27.747999"
             id="circle1255" />
          <path
             inkscape:connector-curvature="0"
             d="m 77.686,322.08 c -15.851,0 -28.747,-12.896 -28.747,-28.748 0,-15.851 12.896,-28.747 28.747,-28.747 15.852,0 28.748,12.896 28.748,28.747 0,15.852 -12.897,28.748 -28.748,28.748 z m 0,-55.495 c -14.749,0 -26.747,11.998 -26.747,26.747 0,14.749 11.999,26.748 26.747,26.748 14.749,0 26.748,-11.999 26.748,-26.748 0,-14.749 -11.999,-26.747 -26.748,-26.747 z"
             id="path1257" />
        </g>
        <g
           id="g1263">
          <circle
             style="fill:#57dcf1"
             cx="77.685997"
             cy="293.229"
             r="23.523001"
             id="circle1261" />
        </g>
      </g>
      <g
         id="g1283">
        <g
           id="g1271">
          <path
             style="fill:#ffffff"
             inkscape:connector-curvature="0"
             d="m 72.348,273.661 c -0.087,-0.232 -0.182,-0.464 -0.285,-0.691 l 2.94,-4.521 -1.708,-1.827 -0.591,-0.63 -1.709,-1.826 -4.87,2.726 c -0.245,-0.118 -0.488,-0.231 -0.741,-0.333 l -1.413,-5.727 h -2.503 -0.863 -2.503 l -1.361,5.508 c -0.311,0.109 -0.621,0.221 -0.922,0.352 l -5.148,-2.887 -1.714,1.823 -0.59,0.632 -1.71,1.825 2.961,4.567 c -0.153,0.312 -0.292,0.633 -0.419,0.96 l -5.514,1.362 v 2.502 0.863 2.502 l 5.392,1.332 c 0.119,0.336 0.246,0.666 0.394,0.989 l -3.063,4.71 1.711,1.826 0.589,0.631 1.71,1.826 5.117,-2.863 c 0.321,0.149 0.83,0.406 0.83,0.406 l 1.466,5.943 h 2.502 0.862 2.504 l 1.467,-5.943 c 0,0 0.512,-0.259 0.835,-0.409 l 5.155,3.122 1.771,-1.769 0.611,-0.609 1.771,-1.767 -3.161,-5.246 c 0,0 0.123,-0.361 0.2,-0.564 l 5.921,-1.463 v -2.502 -0.864 -2.501 z"
             id="path1267" />
          <path
             inkscape:connector-curvature="0"
             d="m 64.482,296.642 h -7.436 l -1.528,-6.195 -5.297,2.964 -5.081,-5.426 3.2,-4.921 c -0.006,-0.016 -0.012,-0.031 -0.018,-0.046 l -5.639,-1.394 v -7.434 l 5.781,-1.428 c 0.004,-0.01 0.009,-0.02 0.013,-0.029 l -3.087,-4.762 5.086,-5.424 5.413,3.035 c 0.003,0 0.006,-0.002 0.008,-0.003 l 1.421,-5.749 h 7.435 l 1.448,5.87 4.987,-2.791 5.08,5.427 -2.949,4.535 5.95,1.471 v 7.434 l -5.834,1.441 3.135,5.203 -5.262,5.252 -5.3,-3.211 z m -5.869,-2 h 4.303 l 1.389,-5.628 0.409,-0.207 c 0,0 0.53,-0.269 0.864,-0.424 l 0.484,-0.226 4.941,2.993 3.045,-3.039 -2.997,-4.974 0.15,-0.439 c 0,0 0.13,-0.381 0.211,-0.596 l 0.186,-0.491 5.671,-1.401 v -4.302 l -5.673,-1.402 -0.185,-0.493 c -0.08,-0.212 -0.166,-0.422 -0.259,-0.629 l -0.227,-0.5 2.813,-4.324 -2.939,-3.14 -4.642,2.599 -0.47,-0.229 c -0.224,-0.107 -0.446,-0.212 -0.677,-0.305 l -0.476,-0.191 -1.348,-5.463 h -4.303 l -1.303,5.272 -0.51,0.179 c -0.288,0.102 -0.577,0.205 -0.856,0.326 l -0.454,0.195 -4.898,-2.746 -2.942,3.139 2.844,4.387 -0.25,0.509 c -0.141,0.286 -0.268,0.581 -0.385,0.882 l -0.188,0.484 -5.258,1.299 v 4.301 l 5.155,1.274 0.18,0.509 c 0.109,0.308 0.225,0.609 0.36,0.906 l 0.228,0.5 -2.935,4.514 2.939,3.14 4.88,-2.729 0.463,0.215 c 0.333,0.154 0.86,0.42 0.86,0.42 l 0.41,0.207 z"
             id="path1269" />
        </g>
        <g
           id="g1277">
          <circle
             style="fill:#ea3c3b"
             cx="61.014999"
             cy="278.20401"
             r="6.994"
             id="circle1273" />
          <path
             inkscape:connector-curvature="0"
             d="m 61.016,286.198 c -4.409,0 -7.995,-3.586 -7.995,-7.994 0,-4.408 3.586,-7.994 7.995,-7.994 4.408,0 7.994,3.586 7.994,7.994 0,4.408 -3.587,7.994 -7.994,7.994 z m 0,-13.988 c -3.306,0 -5.995,2.689 -5.995,5.994 0,3.305 2.689,5.994 5.995,5.994 3.305,0 5.994,-2.689 5.994,-5.994 0,-3.305 -2.69,-5.994 -5.994,-5.994 z"
             id="path1275" />
        </g>
        <g
           id="g1281">
          <path
             style="fill:#ffffff"
             inkscape:connector-curvature="0"
             d="m 58.02,278.142 c 0,-1.652 1.339,-2.996 2.998,-2.996 1.651,0 2.993,1.344 2.993,2.996 0,1.654 -1.342,3 -2.993,3 -1.66,0 -2.998,-1.346 -2.998,-3 z"
             id="path1279" />
        </g>
      </g>
      <g
         id="g1301">
        <g
           id="g1289">
          <path
             style="fill:#ffffff"
             inkscape:connector-curvature="0"
             d="m 104.144,306.742 c -0.087,-0.233 -0.181,-0.464 -0.284,-0.691 l 2.94,-4.522 -1.708,-1.827 -0.591,-0.63 -1.709,-1.826 -4.87,2.727 c -0.245,-0.119 -0.488,-0.232 -0.741,-0.334 l -1.412,-5.726 H 93.266 92.403 89.9 l -1.362,5.507 c -0.31,0.108 -0.622,0.221 -0.922,0.352 l -5.148,-2.887 -1.714,1.824 -0.59,0.631 -1.71,1.826 2.961,4.566 c -0.153,0.313 -0.292,0.633 -0.42,0.961 l -5.513,1.361 v 2.502 0.863 2.502 l 5.392,1.332 c 0.119,0.337 0.246,0.666 0.394,0.99 l -3.063,4.709 1.711,1.827 0.589,0.63 1.71,1.826 5.117,-2.862 c 0.321,0.149 0.83,0.406 0.83,0.406 l 1.467,5.943 h 2.502 0.862 2.505 l 1.467,-5.943 c 0,0 0.512,-0.259 0.835,-0.409 l 5.154,3.121 1.771,-1.768 0.611,-0.609 1.771,-1.768 -3.161,-5.246 c 0,0 0.123,-0.361 0.199,-0.564 l 5.921,-1.462 v -2.503 -0.864 -2.501 z"
             id="path1285" />
          <path
             inkscape:connector-curvature="0"
             d="m 96.279,329.723 h -7.436 l -1.529,-6.195 -5.296,2.963 -5.081,-5.426 3.2,-4.921 c -0.006,-0.016 -0.012,-0.031 -0.018,-0.046 l -5.639,-1.394 v -7.433 l 5.78,-1.429 c 0.004,-0.01 0.009,-0.02 0.013,-0.03 l -3.087,-4.761 5.086,-5.423 5.412,3.034 c 0.003,0 0.006,-0.002 0.009,-0.003 l 1.421,-5.748 h 7.435 l 1.448,5.87 4.987,-2.793 5.079,5.428 -2.948,4.535 5.949,1.471 v 7.435 l -5.833,1.44 3.135,5.203 -5.263,5.252 -5.299,-3.21 z m -5.869,-2 h 4.303 l 1.389,-5.628 0.409,-0.207 c 0,0 0.53,-0.27 0.865,-0.425 l 0.484,-0.226 4.94,2.993 3.045,-3.039 -2.997,-4.974 0.15,-0.439 c 0,0 0.129,-0.38 0.21,-0.595 l 0.186,-0.492 5.671,-1.4 v -4.302 l -5.673,-1.402 -0.185,-0.494 c -0.08,-0.212 -0.165,-0.422 -0.258,-0.629 l -0.227,-0.499 2.812,-4.325 -2.938,-3.139 -4.642,2.598 -0.47,-0.228 c -0.223,-0.108 -0.445,-0.212 -0.677,-0.306 l -0.476,-0.19 -1.347,-5.463 h -4.303 l -1.304,5.272 -0.511,0.178 c -0.287,0.102 -0.575,0.204 -0.854,0.325 l -0.455,0.198 -4.899,-2.747 -2.942,3.139 2.844,4.386 -0.25,0.51 c -0.141,0.286 -0.269,0.58 -0.385,0.881 l -0.188,0.484 -5.256,1.299 v 4.301 l 5.155,1.274 0.179,0.509 c 0.109,0.309 0.225,0.61 0.36,0.906 l 0.228,0.5 -2.935,4.514 2.939,3.14 4.879,-2.729 0.463,0.215 c 0.333,0.154 0.861,0.421 0.861,0.421 l 0.41,0.208 z"
             id="path1287" />
        </g>
        <g
           id="g1295">
          <circle
             style="fill:#ffc252"
             cx="92.810997"
             cy="311.284"
             r="6.994"
             id="circle1291" />
          <path
             inkscape:connector-curvature="0"
             d="m 92.812,319.278 c -4.409,0 -7.995,-3.586 -7.995,-7.994 0,-4.408 3.586,-7.994 7.995,-7.994 4.407,0 7.993,3.586 7.993,7.994 0,4.408 -3.586,7.994 -7.993,7.994 z m 0,-13.988 c -3.306,0 -5.995,2.689 -5.995,5.994 0,3.306 2.689,5.994 5.995,5.994 3.305,0 5.993,-2.688 5.993,-5.994 0,-3.305 -2.688,-5.994 -5.993,-5.994 z"
             id="path1293" />
        </g>
        <g
           id="g1299">
          <path
             style="fill:#ffffff"
             inkscape:connector-curvature="0"
             d="m 89.816,311.222 c 0,-1.652 1.339,-2.996 2.998,-2.996 1.651,0 2.993,1.344 2.993,2.996 0,1.654 -1.341,3 -2.993,3 -1.659,0 -2.998,-1.346 -2.998,-3 z"
             id="path1297" />
        </g>
      </g>
    </g>
  </g>
</svg>
