<svg xmlns="http://www.w3.org/2000/svg" width="105.827" height="105.827" viewBox="0 0 28 28"><g transform="matrix(.31126 0 0 .31126 -110.4189 -41.95016)"><path d="M395.803 179.462c0-2.48-2.48-5.2-5.536-5.2h-9.922c-3.06 0-5.537 2.72-5.537 6.074v14.26h4.742v20.465h11.727v-20.465h4.526z" fill="#57dcf1"/><path d="M392.276 216.06H378.55v-20.465h-4.742v-15.26c0-3.9 2.932-7.074 6.537-7.074h9.922c3.74 0 6.536 3.272 6.536 6.2v16.134h-4.526v20.465zm-11.726-2h9.727v-20.465h4.526v-14.134c0-1.902-2.023-4.2-4.536-4.2h-9.922c-2.502 0-4.537 2.276-4.537 5.074v13.26h4.742z"/><path d="M391.923 215.706h-13.017V195.24h-4.742v-14.903c0-3.705 2.772-6.72 6.18-6.72h9.922c3.536 0 6.18 3.086 6.18 5.846v15.777h-4.524v20.467zm-11.73-1.29h10.438V193.95h4.524v-14.49c0-2.107-2.135-4.557-4.89-4.557h-9.922c-2.697 0-4.89 2.436-4.89 5.43v13.615h4.74v20.466z"/><path d="M384.827 194.027h1.3v20.917h-1.3zm-5.62-13.777h1.3v20.918h-1.3zm11.084 0h1.3v20.918h-1.3z"/><circle cx="385.567" cy="167.431" r="4.327" fill="#57dcf1"/><path d="M385.567 172.757c-2.938 0-5.327-2.39-5.327-5.326s2.4-5.326 5.327-5.326 5.326 2.39 5.326 5.326-2.39 5.326-5.326 5.326zm0-8.653a3.33 3.33 0 0 0-3.327 3.326 3.33 3.33 0 0 0 3.327 3.326 3.33 3.33 0 0 0 3.326-3.326 3.33 3.33 0 0 0-3.326-3.326z"/><path d="M385.567 172.4c-2.742 0-4.97-2.23-4.97-4.97s2.228-4.97 4.97-4.97a4.98 4.98 0 0 1 4.971 4.97 4.98 4.98 0 0 1-4.971 4.971zm0-8.652c-2.03 0-3.683 1.65-3.683 3.682a3.69 3.69 0 0 0 3.683 3.682 3.69 3.69 0 0 0 3.682-3.682c0-2.03-1.652-3.682-3.682-3.682z"/><path d="M424.215 179.57c0-2.48-2.48-5.2-5.537-5.2h-9.92c-3.06 0-5.537 2.72-5.537 6.075v14.26h4.74v20.466h11.728v-20.466h4.526z" fill="#fbd260"/><path d="M420.688 216.17H406.96v-20.466h-4.74v-15.26c0-3.9 2.933-7.075 6.537-7.075h9.92c3.74 0 6.537 3.274 6.537 6.2v16.133h-4.526zm-11.727-2h9.728v-20.466h4.526V179.57c0-1.902-2.023-4.2-4.537-4.2h-9.92c-2.502 0-4.537 2.277-4.537 5.075v13.26h4.74z"/><path d="M420.33 215.815h-13.014v-20.467h-4.74v-14.903c0-3.704 2.772-6.72 6.18-6.72h9.92c3.536 0 6.18 3.086 6.18 5.846v15.777h-4.526v20.467zm-11.727-1.29h10.44V194.06h4.523v-14.488c0-2.107-2.137-4.557-4.89-4.557h-9.92c-2.698 0-4.893 2.436-4.893 5.43v13.614h4.74v20.466z"/><path d="M413.237 194.137h1.3v20.917h-1.3zm-5.607-13.887h1.3v20.918h-1.3zm11.046.1h1.285v20.92h-1.285z"/><circle cx="413.978" cy="167.54" r="4.326" fill="#fbd260"/><path d="M413.98 172.866c-2.938 0-5.327-2.39-5.327-5.326s2.4-5.325 5.327-5.325 5.325 2.39 5.325 5.325-2.39 5.326-5.325 5.326zm0-8.65a3.33 3.33 0 0 0-3.327 3.325 3.33 3.33 0 0 0 3.327 3.326 3.33 3.33 0 0 0 3.325-3.326 3.33 3.33 0 0 0-3.325-3.325z"/><path d="M413.98 172.51c-2.74 0-4.97-2.23-4.97-4.97s2.23-4.97 4.97-4.97 4.97 2.23 4.97 4.97-2.23 4.97-4.97 4.97zm0-8.653c-2.03 0-3.682 1.65-3.682 3.682s1.65 3.683 3.682 3.683a3.69 3.69 0 0 0 3.682-3.683 3.69 3.69 0 0 0-3.682-3.682z"/><path d="M412.59 156.16l-10.605-11.206a2.09 2.09 0 0 0-1.344-.64c-1.616-1.4-4.785-3.283-9.89-2.832l-9.102.31v10.814c.316-.105 3.59-.974 6.37 1.448l9.97 10.534a2.1 2.1 0 0 0 2.967.08c.84-.796.878-2.123.078-2.965l1.4 1.426a2.1 2.1 0 0 0 2.966.08c.614-.58.793-1.444.54-2.196l.346.364a2.1 2.1 0 0 0 2.967.082c.618-.586.798-1.46.534-2.214.805.633 1.967.604 2.733-.12a2.1 2.1 0 0 0 .08-2.966z" fill="#fff"/><path d="M399.516 166.243a3.11 3.11 0 0 1-2.25-.967l-9.972-10.534c-1.297-1.123-2.805-1.372-3.83-1.372-.9 0-1.492.184-1.498.186l-1.3.426-.007-13.156 10.067-.344 1.55-.068c4.268 0 7.114 1.563 8.802 2.953.63.125 1.203.437 1.642.898l10.606 11.207c1.173 1.242 1.12 3.207-.12 4.38a3.07 3.07 0 0 1-2.12.844c-.092 0-.184-.004-.274-.012a3.1 3.1 0 0 1-.872 1.502 3.15 3.15 0 0 1-3.123.684 3.07 3.07 0 0 1-.729 1.066 3.17 3.17 0 0 1-3.708.415 3.08 3.08 0 0 1-.726 1.044 3.09 3.09 0 0 1-2.13.847zm-16.052-14.873c1.366 0 3.38.334 5.213 1.93l10.04 10.602a1.13 1.13 0 0 0 1.553.041c.213-.2.334-.473.342-.766s-.1-.572-.3-.784l1.44-1.387 1.4 1.426c.424.446 1.136.456 1.563.054.308-.292.417-.744.28-1.152l-1.45-4.293 3.468 3.648c.407.43 1.13.45 1.555.045.31-.294.42-.75.277-1.158l-1.128-3.23 2.7 2.115c.412.324 1.046.3 1.43-.06a1.1 1.1 0 0 0 .04-1.553L401.26 145.64c-.23-.242-.51-.313-.705-.33l-.322-.028-.245-.212c-1.397-1.212-3.87-2.656-7.72-2.656l-1.43.064-8.19.28v8.65l.813-.04z"/><path d="M417.865 157.394v-13.45s-6.517-1.17-11.55-4.162c0 0-4.42-2.72-9.044.34 0 0-7.75 4.896-6.05 6.73 0 0 3 3.127 9.382-2.72l12.783 13.233z" fill="#fff"/><path d="M418.865 158.4l-5.905-.033-12.412-12.85c-2.488 2.105-4.798 3.173-6.872 3.173-2.023 0-3.064-1.027-3.177-1.145-.412-.444-.582-.993-.502-1.6.318-2.438 5.24-5.72 6.74-6.667 1.607-1.063 3.38-1.608 5.253-1.608 2.766 0 4.766 1.2 4.85 1.262 4.8 2.854 11.14 4.018 11.202 4.03l.823.148zm-5.052-2.028l3.052.017v-11.625c-1.945-.422-6.94-1.67-11.06-4.12-.026-.016-1.636-.973-3.814-.973-1.474 0-2.875.434-4.167 1.288-3.117 1.97-5.89 4.473-5.846 5.27 0-.023.568.464 1.698.464 1.2 0 3.278-.57 6.253-3.292l.718-.657z"/><path d="M406.393 148.72c-1.74.001-3.027-.884-3.728-1.364l-.354-.23c.004.003.104.05.265.05v-2c.444 0 .787.234 1.22.533 1.046.717 2.626 1.798 5.08.116l1.13 1.65c-1.352.924-2.567 1.246-3.616 1.246zm-5.12.065l9.246 9.8-1.453 1.373-9.246-9.8zm-2.328 3.157l8.154 8.844-1.47 1.356-8.154-8.844zm-3.03 2.738l6.577 7.08-1.465 1.36-6.577-7.08z"/><path d="M377.304 139.454h5.876v14.896h-5.876z" fill="#57dcf1"/><path d="M384.18 155.35h-7.875v-16.896h7.875zm-5.876-2h3.876v-12.896h-3.876z"/><path d="M416.877 141.413h5.874v17.833h-5.874z" fill="#fbd260"/><path d="M423.75 160.246h-7.874v-19.833h7.874zm-5.874-2h3.874v-15.833h-3.874zm-41.7 61.594h47.702v2h-47.702z"/><g fill="#ea3c3b"><circle cx="367.024" cy="184.225" r="1.589"/><circle cx="361.859" cy="177.738" r="1.589"/><circle cx="359.28" cy="169.271" r="1.589"/><circle cx="360.27" cy="160.188" r="1.588"/><circle cx="363.448" cy="152.607" r="1.588"/><path d="M371.128 148.968l-4.085-2.46 1.03-1.713 5.82 3.504-3.394 5.488-1.7-1.05z"/><circle cx="432.429" cy="185.922" r="1.588"/><circle cx="437.594" cy="179.437" r="1.59"/><circle cx="440.173" cy="170.969" r="1.588"/><circle cx="439.182" cy="161.886" r="1.588"/><circle cx="436.005" cy="154.306" r="1.588"/><path d="M431.38 146.493l1.03 1.713-4.085 2.46 2.327 3.77-1.7 1.05-3.39-5.49z"/></g></g></svg>