<svg xmlns="http://www.w3.org/2000/svg" xmlns:xlink="http://www.w3.org/1999/xlink" width="105.827" height="105.827" viewBox="0 0 28 28"><g transform="matrix(-1 0 0 1 72.676786 -2.37035)"><path d="M63.62 19.147H52.93V8.458h10.69zm-10.16-.53h9.63v-9.63h-9.63z"/><path d="M54.53 10.058h7.5v7.49h-7.5z" fill="#57dcf1"/><path d="M52.258 19.16H44.89v-4.416a3.2 3.2 0 0 1 3.195-3.195h4.172zm-6.838-.53h6.31V12.08h-3.643a2.67 2.67 0 0 0-2.665 2.666z"/><path d="M46.338 17.75v-2.76a1.95 1.95 0 0 1 1.949-1.949h2.6v4.7z" fill="#ffc252"/><path d="M45.15 18.923h18.218v2.4H45.15z" fill="#ea3c3b"/><path d="M63.63 21.598H44.885v-2.94H63.63zm-18.218-.53H63.1v-1.88H45.414zm19.308-2.28h5.74v.53h-5.74zm1.988-1.684h5.738v.53h-5.738zm-1.913-1.683h5.74v.53h-5.74z"/><circle r="1.659" cy="21.55" cx="59.807" fill="#ffc252"/><use xlink:href="#B"/><circle r=".554" cy="21.616" cx="59.806"/><path d="M46.755 21.55a1.66 1.66 0 0 0 1.659 1.659 1.66 1.66 0 0 0 1.659-1.659 1.66 1.66 0 0 0-1.659-1.66 1.66 1.66 0 0 0-1.659 1.66z" fill="#ffc252"/><use xlink:href="#B" x="-11.392"/><circle r=".554" cy="21.583" cx="48.408"/><path d="M55.802 11.445h5.02v2.493h-5.02z" fill="#fff"/><path d="M61.088 14.202h-5.55V11.18h5.55zm-5.02-.53h4.49V11.7h-4.49z"/></g><defs ><path id="B" d="M59.806 23.474c-1.06 0-1.924-.863-1.924-1.924s.863-1.924 1.924-1.924 1.924.863 1.924 1.924-.863 1.924-1.924 1.924zm0-3.32c-.77 0-1.395.626-1.395 1.395s.626 1.395 1.395 1.395 1.395-.626 1.395-1.395-.626-1.395-1.395-1.395z"/></defs></svg>