<svg xmlns="http://www.w3.org/2000/svg" width="105.827" height="105.827" viewBox="0 0 28 28"><defs><clipPath id="A"/></defs><path transform="matrix(.264583 0 0 .264583 -42.019178 45.57432)" clip-path="url(#A)" d="M0 0h800v800H0z" fill="#fff"/><path d="M8.732 10.97s-4.07 3.19-5.3-5.218c0 0 8.123.836 5.3 5.218z" fill="#57dcf1"/><path d="M7.015 11.9c-1.38 0-3.175-1.06-3.906-6.1l-.062-.427.43.044c.198.02 4.866.525 5.96 2.81.415.866.273 1.85-.422 2.927l-.03.047-.044.035c-.035.027-.862.666-1.925.666zM3.843 6.144c.55 3.328 1.642 5.083 3.172 5.083.715 0 1.31-.38 1.468-.492.54-.856.653-1.582.348-2.22-.76-1.583-3.838-2.196-4.987-2.372z"/><path d="M20.068 5.888S18.654.912 26.9 2.965c0 0-3.847 7.204-6.832 2.923z" fill="#57dcf1"/><path d="M22.198 7.583c-.9 0-1.71-.505-2.406-1.503l-.032-.046-.016-.054c-.017-.06-.41-1.487.437-2.606 1.017-1.346 3.32-1.6 6.8-.735l.42.104-.203.38c-.097.182-2.41 4.46-5 4.46zm-1.82-1.838c.553.773 1.165 1.165 1.82 1.165 1.64 0 3.41-2.412 4.19-3.722-2.92-.666-4.878-.457-5.67.59-.57.753-.392 1.734-.34 1.966z"/><path d="M17.613 13.2s1.822-4.842 7.23 1.712c0 0-7.376 3.505-7.23-1.712z" fill="#57dcf1"/><path d="M20.378 16.4c-1.027 0-1.815-.276-2.344-.82s-.786-1.35-.757-2.4l.001-.056.02-.053c.03-.08.75-1.94 2.633-1.94 1.484 0 3.224 1.197 5.172 3.556l.274.333-.39.185c-.102.048-2.517 1.185-4.61 1.185zm-2.43-3.13c-.013.822.177 1.44.568 1.842.398.408 1.024.616 1.862.616 1.463 0 3.16-.63 3.92-.944-1.673-1.945-3.176-2.97-4.365-2.97-1.282 0-1.87 1.19-1.983 1.456z"/><path d="M16.043 8.08s-4.784 1.97-3.68-6.456c0 0 7.594 3.004 3.68 6.456z" fill="#57dcf1"/><path d="M14.93 8.618c-.818 0-1.52-.308-2.032-.89-.967-1.102-1.26-3.17-.87-6.145l.056-.428.4.16c.185.073 4.54 1.823 4.977 4.318.165.946-.238 1.855-1.2 2.703l-.042.037-.052.02c-.022.01-.555.225-1.24.225zm-2.288-6.504c-.276 2.503-.015 4.285.762 5.17.385.44.9.662 1.526.662a2.99 2.99 0 0 0 .935-.157c.75-.678 1.057-1.346.935-2.04-.302-1.73-3.1-3.153-4.16-3.634z"/><path d="M16.284 10.298c-.196-2.642-2.678-5.55-2.703-5.58l.5-.44c.108.125 2.652 3.107 2.864 5.968z"/><path d="M8.202 14.717s.927 5.09-7.082 2.25c0 0 4.524-6.8 7.082-2.25z" fill="#57dcf1"/><path d="M5.187 18.165c-1.125 0-2.53-.296-4.18-.88L.6 17.14l.24-.36c.108-.16 2.67-3.968 5.17-3.968 1 0 1.837.585 2.486 1.74l.028.05.01.056c.01.058.25 1.435-.607 2.46-.58.694-1.5 1.047-2.738 1.047zm-3.532-1.37c2.894.96 4.896.92 5.754-.108.576-.7.498-1.63.47-1.858-.522-.904-1.133-1.343-1.87-1.343-1.736 0-3.67 2.386-4.354 3.3z"/><path d="M4.864 16.743l-.323-.6c.14-.076 3.427-1.854 6.14-1.483l-.1.667c-2.494-.34-5.693 1.4-5.725 1.406zm16.476-2.59c-3.424-1.042-6.247-.462-6.275-.456l-.14-.658c.12-.026 3.013-.625 6.612.47zm.777 12.694h-.673V24.9H19.72l-.055-.27c-.494-2.443-3.54-4.285-7.1-4.285s-6.596 1.842-7.1 4.285l-.055.27H3.7v1.956h-.673v-2.628h1.856c.7-2.615 3.95-4.554 7.685-4.554s6.972 1.94 7.685 4.554h1.856v2.628z"/><path d="M18.7 26.78c-.066-2.845-2.784-5.135-6.133-5.135s-6.067 2.3-6.133 5.135z" fill="#ffc252"/><path d="M12.046 20.134C11.146 12.93 7.583 9.28 6.33 7.997c-.17-.174-.316-.324-.366-.393l-.547.4c.08.1.22.255.43.472 1.207 1.236 4.628 4.742 5.518 11.668zM22.787 4.16c-8.622 5.2-9.272 11.945-9.394 15.974h.673c.12-3.9.772-10.396 9.068-15.398z"/></svg>