<svg xmlns="http://www.w3.org/2000/svg" width="105.827" height="105.827" viewBox="0 0 28 28"><path d="M20.238 16.575l-6.73-8.36c.53-1.084.446-2.387-.33-3.35-.767-.953-2.003-1.314-3.164-1.046l1.414 1.756-.447 1.853-1.9-.007-1.392-1.73c-.5 1.076-.42 2.36.347 3.314.774.96 2.026 1.32 3.196 1.037l6.706 8.33c-.59 1.167-.485 2.62.388 3.704 1.2 1.478 3.353 1.712 4.83.52s1.712-3.353.52-4.83c-.852-1.058-2.2-1.474-3.44-1.192z" fill="#ffc252"/><path d="M21.004 23.622c-1.127 0-2.18-.503-2.884-1.38a3.71 3.71 0 0 1-.492-3.833l-6.5-8.072a3.6 3.6 0 0 1-.681.065c-1.034 0-1.988-.448-2.617-1.23-.81-1.004-.954-2.38-.38-3.593l.18-.38 1.578 1.96 1.566.006.367-1.523-1.597-1.984.41-.095a3.6 3.6 0 0 1 .811-.093c1.035 0 1.99.45 2.62 1.23.785.975.945 2.293.432 3.477l6.527 8.107a3.73 3.73 0 0 1 .66-.059 3.68 3.68 0 0 1 2.881 1.376c1.28 1.59 1.028 3.923-.562 5.203a3.71 3.71 0 0 1-2.319.818zM11.332 9.747l6.918 8.592-.077.152a3.18 3.18 0 0 0 .358 3.419 3.16 3.16 0 0 0 2.473 1.182c.73 0 1.417-.243 1.987-.7 1.362-1.097 1.578-3.097.482-4.46-.604-.75-1.503-1.18-2.468-1.18-.238 0-.476.027-.707.08l-.16.037-6.94-8.62.074-.15c.506-1.036.392-2.21-.298-3.067-.58-.722-1.506-1.105-2.465-1.023l1.21 1.502-.527 2.183-2.236-.01-1.185-1.473c-.287.918-.12 1.893.473 2.627.528.656 1.332 1.033 2.205 1.033a3.08 3.08 0 0 0 .723-.087z"/><circle r="1.936" cy="19.889" cx="21.041" fill="#fff"/><path d="M21.043 22.1a2.19 2.19 0 0 1-1.715-.82c-.76-.945-.6-2.333.334-3.094a2.23 2.23 0 0 1 1.38-.487 2.19 2.19 0 0 1 1.715.82c.76.945.6 2.333-.334 3.094-.4.314-.88.487-1.378.487zm-.003-3.872a1.65 1.65 0 0 0-1.047.37c-.718.578-.832 1.632-.254 2.35.32.396.794.623 1.303.623a1.65 1.65 0 0 0 1.047-.37c.718-.578.83-1.632.253-2.35-.32-.396-.794-.623-1.303-.623zm-7.415-7.868l3.995 4.962-.392.316-3.995-4.962z"/><path d="M22.248 7.67l.707.86-9.01 7.415-.707-.86z" fill="#57dcf1"/><path d="M13.9 16.315l-1.043-1.268 9.42-7.752 1.043 1.268zm-.298-1.195l.37.45 8.602-7.08-.37-.45zM6.1 24.53l-2.8-3.4 4.704-3.87.17.152a1.06 1.06 0 0 0 1.348.03 1.04 1.04 0 0 0 .231-1.329l-.116-.195 1.498-1.233 2.8 3.4-1.498 1.232-.168-.14c-.367-.303-.945-.306-1.317 0-.382.314-.488.858-.253 1.292l.104.192zM4.044 21.2l2.12 2.574 3.97-3.267c-.228-.616-.046-1.323.473-1.75.503-.414 1.26-.462 1.8-.128l.765-.63-2.118-2.574-.75.618c.26.63.088 1.357-.453 1.802-.518.427-1.304.46-1.855.097z"/><path d="M8.05 18.5l1.548 1.88-3.4 2.8-1.548-1.88z" fill="#57dcf1"/><path d="M8.3 18.856l.32.4-3.36 2.765-.32-.4zm.654.786l.32.4-3.36 2.766-.32-.4z"/><path d="M12.38 14.002l2.46 3-1.28 1.053-2.46-3z" fill="#ea3c3b"/><path d="M13.527 18.417l-2.797-3.4 1.688-1.39 2.797 3.4zm-2.053-3.326l2.125 2.582.87-.716-2.125-2.582z"/><path d="M21.242 8.438l1.746-1.963 1.27 1.543-2.262 1.336z" fill="#57dcf1"/><path d="M21.935 9.696l-1.04-1.265 2.102-2.364 1.663 2.02zM21.6 8.444l.466.566 1.8-1.063-.877-1.065z"/></svg>