<?xml version="1.0" encoding="utf-8"?>
<!-- Generator: Adobe Illustrator 18.0.0, SVG Export Plug-In . SVG Version: 6.00 Build 0)  -->
<!DOCTYPE svg PUBLIC "-//W3C//DTD SVG 1.1//EN" "http://www.w3.org/Graphics/SVG/1.1/DTD/svg11.dtd">
<svg version="1.1" id="Layer_1" xmlns="http://www.w3.org/2000/svg" xmlns:xlink="http://www.w3.org/1999/xlink" x="0px" y="0px"
	 viewBox="0 0 129.5 129.5" enable-background="new 0 0 129.5 129.5" xml:space="preserve">
<g>
	<g>
		<path fill="#E6E9EE" d="M118.7,76.3H10.8c-1.3,0-2.3-1-2.3-2.3V3.1c0-1.3,1-2.3,2.3-2.3h107.8c1.3,0,2.3,1,2.3,2.3V74
			C121,75.3,119.9,76.3,118.7,76.3z"/>
		<rect x="12.7" y="5.1" fill="#FFFFFF" width="103.9" height="59.8"/>
		<rect x="12.7" y="5.1" fill="#FFFFFF" width="103.9" height="10.8"/>
		<g>
			<rect x="14.7" y="7.1" fill="#84DBFF" width="100" height="6.8"/>
		</g>
		<path fill="#E6E9EE" d="M128.7,81.8H0.7v5c0,2.8,2.2,5,5,5h118c2.8,0,5-2.2,5-5V81.8z"/>
		<g>
			<circle fill="#FFFFFF" cx="110.6" cy="10.5" r="1.7"/>
			<path fill="#231F20" d="M110.6,13c-1.3,0-2.4-1.1-2.4-2.4c0-1.3,1.1-2.4,2.4-2.4c1.3,0,2.4,1.1,2.4,2.4
				C113,11.9,111.9,13,110.6,13z M110.6,9.6c-0.5,0-0.9,0.4-0.9,0.9c0,0.5,0.4,0.9,0.9,0.9c0.5,0,0.9-0.4,0.9-0.9
				C111.5,10,111.1,9.6,110.6,9.6z"/>
		</g>
		<g>
			<circle fill="#FFFFFF" cx="102.5" cy="10.5" r="1.7"/>
			<path fill="#231F20" d="M102.5,13c-1.3,0-2.4-1.1-2.4-2.4c0-1.3,1.1-2.4,2.4-2.4c1.3,0,2.4,1.1,2.4,2.4
				C104.9,11.9,103.8,13,102.5,13z M102.5,9.6c-0.5,0-0.9,0.4-0.9,0.9c0,0.5,0.4,0.9,0.9,0.9c0.5,0,0.9-0.4,0.9-0.9
				C103.4,10,103,9.6,102.5,9.6z"/>
		</g>
		<g>
			<circle fill="#FFFFFF" cx="94.4" cy="10.5" r="1.7"/>
			<path fill="#231F20" d="M94.4,13c-1.3,0-2.4-1.1-2.4-2.4c0-1.3,1.1-2.4,2.4-2.4c1.3,0,2.4,1.1,2.4,2.4C96.9,11.9,95.8,13,94.4,13
				z M94.4,9.6c-0.5,0-0.9,0.4-0.9,0.9c0,0.5,0.4,0.9,0.9,0.9c0.5,0,0.9-0.4,0.9-0.9C95.4,10,94.9,9.6,94.4,9.6z"/>
		</g>
		<g>
			<circle fill="#CED5E0" cx="64.7" cy="70.6" r="2.9"/>
		</g>
		<path fill="#FFFFFF" d="M104.6,68.4v-6.9l-6.3-1.3c-0.8-5.9-3.1-11.2-6.5-15.7l3.6-5.4l-4.9-4.9l-5.4,3.6
			c-4.5-3.4-9.9-5.7-15.7-6.5L68.1,25h-6.9l-1.3,6.3c-5.9,0.8-11.2,3.1-15.7,6.5l-5.4-3.6L34,39.2l3.6,5.4
			c-3.4,4.5-5.7,9.9-6.5,15.7l-6.3,1.3v6.9l6.3,1.3c0.8,5.9,3.1,11.2,6.5,15.7L34,90.8l4.9,4.9l5.4-3.6c4.5,3.4,9.9,5.7,15.7,6.5
			l1.3,6.3h6.9l1.3-6.3c5.9-0.8,11.2-3.1,15.7-6.5l5.4,3.6l4.9-4.9l-3.6-5.4c3.4-4.5,5.7-9.9,6.5-15.7L104.6,68.4z"/>
		<g>
			<path fill="#231F20" d="M65.4,93.5l0-1.5c0.3,0,0.7,0,1,0l0.1,1.5C66.1,93.5,65.7,93.5,65.4,93.5z M63.3,93.5c-0.3,0-0.7,0-1-0.1
				l0.1-1.5c0.3,0,0.6,0,1,0.1L63.3,93.5z M68.4,93.3l-0.2-1.5c0.3,0,0.6-0.1,1-0.1l0.3,1.5C69.1,93.2,68.8,93.3,68.4,93.3z
				 M60.3,93.2c-0.3-0.1-0.7-0.1-1-0.2l0.3-1.5c0.3,0.1,0.6,0.1,1,0.2L60.3,93.2z M71.5,92.7l-0.4-1.5c0.3-0.1,0.6-0.2,0.9-0.2
				l0.4,1.4C72.1,92.6,71.8,92.7,71.5,92.7z M57.2,92.6c-0.3-0.1-0.7-0.2-1-0.3l0.4-1.4c0.3,0.1,0.6,0.2,0.9,0.3L57.2,92.6z
				 M74.4,91.8l-0.5-1.4c0.3-0.1,0.6-0.2,0.9-0.3l0.6,1.4C75.1,91.6,74.7,91.7,74.4,91.8z M54.3,91.6c-0.3-0.1-0.6-0.3-1-0.4
				l0.6-1.4c0.3,0.1,0.6,0.3,0.9,0.4L54.3,91.6z M77.2,90.6l-0.7-1.3c0.3-0.1,0.6-0.3,0.9-0.4l0.7,1.3
				C77.9,90.3,77.6,90.5,77.2,90.6z M51.5,90.4c-0.3-0.2-0.6-0.3-0.9-0.5l0.7-1.3c0.3,0.2,0.6,0.3,0.9,0.5L51.5,90.4z M79.9,89.1
				l-0.8-1.3c0.3-0.2,0.5-0.4,0.8-0.5l0.8,1.2C80.5,88.8,80.2,88.9,79.9,89.1z M48.9,88.8c-0.3-0.2-0.6-0.4-0.8-0.6l0.9-1.2
				c0.3,0.2,0.5,0.4,0.8,0.6L48.9,88.8z M82.4,87.3l-0.9-1.2c0.3-0.2,0.5-0.4,0.8-0.6l1,1.1C83,86.9,82.7,87.1,82.4,87.3z
				 M46.4,86.9c-0.3-0.2-0.5-0.4-0.8-0.7l1-1.1c0.2,0.2,0.5,0.4,0.7,0.6L46.4,86.9z M84.7,85.3l-1.1-1.1c0.2-0.2,0.5-0.5,0.7-0.7
				l1.1,1C85.2,84.8,85,85.1,84.7,85.3z M44.1,84.9c-0.2-0.2-0.5-0.5-0.7-0.7l1.1-1c0.2,0.2,0.4,0.5,0.7,0.7L44.1,84.9z M86.8,83
				l-1.2-0.9c0.2-0.3,0.4-0.5,0.6-0.8l1.2,0.9C87.2,82.5,87,82.8,86.8,83z M42.1,82.5c-0.2-0.3-0.4-0.5-0.6-0.8l1.2-0.9
				c0.2,0.3,0.4,0.5,0.6,0.8L42.1,82.5z M88.6,80.5l-1.3-0.8c0.2-0.3,0.3-0.5,0.5-0.8l1.3,0.8C89,80,88.8,80.2,88.6,80.5z M40.3,80
				c-0.2-0.3-0.4-0.6-0.5-0.9l1.3-0.7c0.2,0.3,0.3,0.6,0.5,0.8L40.3,80z M90.2,77.9l-1.3-0.7c0.1-0.3,0.3-0.6,0.4-0.9l1.4,0.6
				C90.5,77.2,90.3,77.6,90.2,77.9z M38.9,77.3c-0.1-0.3-0.3-0.6-0.4-0.9l1.4-0.6c0.1,0.3,0.3,0.6,0.4,0.9L38.9,77.3z M91.4,75
				L90,74.5c0.1-0.3,0.2-0.6,0.3-0.9l1.4,0.5C91.6,74.4,91.5,74.7,91.4,75z M37.7,74.5c-0.1-0.3-0.2-0.6-0.3-1l1.4-0.4
				c0.1,0.3,0.2,0.6,0.3,0.9L37.7,74.5z M92.3,72.1l-1.5-0.4c0.1-0.3,0.2-0.6,0.2-0.9l1.5,0.3C92.5,71.4,92.4,71.8,92.3,72.1z
				 M36.8,71.5c-0.1-0.3-0.1-0.7-0.2-1l1.5-0.3c0.1,0.3,0.1,0.6,0.2,1L36.8,71.5z M92.9,69.1l-1.5-0.2c0-0.3,0.1-0.6,0.1-1l1.5,0.2
				C93,68.4,93,68.7,92.9,69.1z M36.3,68.5c0-0.3-0.1-0.7-0.1-1l1.5-0.1c0,0.3,0.1,0.6,0.1,1L36.3,68.5z M93.2,66L91.7,66
				c0-0.3,0-0.6,0-1c0-0.3,0-0.5,0-0.8l1.5,0c0,0.3,0,0.6,0,0.8C93.2,65.3,93.2,65.7,93.2,66z M36.1,65.4l0-0.4c0-0.2,0-0.4,0-0.6
				l1.5,0c0,0.2,0,0.4,0,0.6l0,0.4L36.1,65.4z M37.7,62.5l-1.5-0.1c0-0.3,0.1-0.7,0.1-1l1.5,0.2C37.8,61.8,37.7,62.1,37.7,62.5z
				 M91.6,62.2c0-0.3-0.1-0.6-0.1-1l1.5-0.2c0,0.3,0.1,0.7,0.1,1L91.6,62.2z M38.1,59.6l-1.5-0.3c0.1-0.3,0.1-0.7,0.2-1l1.5,0.4
				C38.3,59,38.2,59.3,38.1,59.6z M91.1,59.4c-0.1-0.3-0.1-0.6-0.2-0.9l1.5-0.4c0.1,0.3,0.2,0.7,0.2,1L91.1,59.4z M38.9,56.8
				l-1.4-0.5c0.1-0.3,0.2-0.7,0.3-1l1.4,0.5C39.1,56.1,39,56.5,38.9,56.8z M90.4,56.5c-0.1-0.3-0.2-0.6-0.3-0.9l1.4-0.5
				c0.1,0.3,0.2,0.6,0.3,1L90.4,56.5z M39.9,54l-1.4-0.6c0.1-0.3,0.3-0.6,0.4-0.9l1.3,0.7C40.2,53.4,40,53.7,39.9,54z M89.3,53.8
				c-0.1-0.3-0.3-0.6-0.4-0.9l1.3-0.7c0.2,0.3,0.3,0.6,0.4,0.9L89.3,53.8z M41.2,51.4l-1.3-0.8c0.2-0.3,0.3-0.6,0.5-0.9l1.3,0.8
				C41.6,50.9,41.4,51.2,41.2,51.4z M88,51.2c-0.2-0.3-0.3-0.6-0.5-0.8l1.3-0.8c0.2,0.3,0.4,0.6,0.5,0.9L88,51.2z M42.8,49l-1.2-0.9
				c0.2-0.3,0.4-0.5,0.6-0.8l1.2,0.9C43.2,48.5,43,48.7,42.8,49z M86.4,48.8c-0.2-0.3-0.4-0.5-0.6-0.8l1.2-0.9
				c0.2,0.3,0.4,0.5,0.6,0.8L86.4,48.8z M44.7,46.7l-1.1-1c0.2-0.3,0.5-0.5,0.7-0.7l1.1,1.1C45.1,46.3,44.9,46.5,44.7,46.7z
				 M84.5,46.6c-0.2-0.2-0.4-0.5-0.7-0.7l1.1-1.1c0.2,0.2,0.5,0.5,0.7,0.7L84.5,46.6z M46.8,44.7l-1-1.1c0.3-0.2,0.5-0.4,0.8-0.7
				l1,1.2C47.2,44.3,47,44.5,46.8,44.7z M82.4,44.5c-0.2-0.2-0.5-0.4-0.7-0.6l0.9-1.2c0.3,0.2,0.5,0.4,0.8,0.7L82.4,44.5z M49,42.9
				l-0.9-1.2c0.3-0.2,0.6-0.4,0.8-0.6l0.8,1.3C49.6,42.5,49.3,42.7,49,42.9z M80.1,42.8c-0.3-0.2-0.5-0.4-0.8-0.5l0.8-1.3
				c0.3,0.2,0.6,0.4,0.9,0.6L80.1,42.8z M51.5,41.3L50.8,40c0.3-0.2,0.6-0.3,0.9-0.5l0.7,1.3C52.1,41,51.8,41.2,51.5,41.3z
				 M77.6,41.2c-0.3-0.2-0.6-0.3-0.9-0.5l0.7-1.3c0.3,0.2,0.6,0.3,0.9,0.5L77.6,41.2z M54.1,40l-0.6-1.4c0.3-0.1,0.6-0.3,1-0.4
				l0.5,1.4C54.7,39.8,54.4,39.9,54.1,40z M75,40c-0.3-0.1-0.6-0.2-0.9-0.4l0.5-1.4c0.3,0.1,0.6,0.2,1,0.4L75,40z M56.9,39.1
				l-0.4-1.4c0.3-0.1,0.7-0.2,1-0.3l0.4,1.5C57.5,38.9,57.2,39,56.9,39.1z M72.2,39c-0.3-0.1-0.6-0.2-0.9-0.3l0.4-1.5
				c0.3,0.1,0.7,0.2,1,0.3L72.2,39z M59.7,38.4l-0.3-1.5c0.3-0.1,0.7-0.1,1-0.2l0.2,1.5C60.3,38.3,60,38.3,59.7,38.4z M69.4,38.3
				c-0.3-0.1-0.6-0.1-1-0.2l0.2-1.5c0.3,0,0.7,0.1,1,0.2L69.4,38.3z M62.6,38l-0.1-1.5c0.3,0,0.7,0,1-0.1l0.1,1.5
				C63.2,38,62.9,38,62.6,38z M66.5,38c-0.3,0-0.6,0-1,0l0-1.5c0.3,0,0.7,0,1,0.1L66.5,38z"/>
		</g>
		<circle fill="#324A5E" cx="64.7" cy="65" r="24.3"/>
		<circle fill="#FFFFFF" cx="64.7" cy="65" r="19.3"/>
		<path fill="#FFFFFF" d="M67.5,89.1V97l-5.7,0v-7.8c0.9,0.1,1.9,0.2,2.8,0.2C65.6,89.3,66.6,89.2,67.5,89.1z"/>
		<path fill="#FFFFFF" d="M67.6,97h-5.8c-1.9,0-3.4,1.5-3.4,3.4v25c0,1.9,1.5,3.4,3.4,3.4h5.8c1.9,0,3.4-1.5,3.4-3.4l0-25
			C70.9,98.5,69.4,97,67.6,97z"/>
		<g>
			<path fill="#231F20" d="M128.8,81H95.4c0.7-1.3,1.3-2.6,1.8-4h21.5c1.7,0,3.1-1.4,3.1-3.1V3.1c0-1.7-1.4-3.1-3.1-3.1H10.8
				C9.2,0,7.8,1.4,7.8,3.1V74c0,1.7,1.4,3.1,3.1,3.1h21.3c0.5,1.4,1.1,2.7,1.8,4H0.7C0.3,81,0,81.3,0,81.8v5c0,3.2,2.6,5.8,5.7,5.8
				h28.9l3.7,3.7c0.3,0.3,0.6,0.3,0.9,0.1l4.9-3.3c4.1,3,8.7,5,13.7,6c-0.1,0.4-0.2,0.9-0.2,1.3v25c0,2.3,1.9,4.1,4.1,4.1h5.8
				c2.3,0,4.1-1.9,4.1-4.1l0-25c0-0.5-0.1-0.9-0.2-1.3c4.9-1,9.6-3,13.7-6l4.9,3.3c0.3,0.2,0.7,0.2,0.9-0.1l3.7-3.7h29.1
				c3.2,0,5.8-2.6,5.8-5.8v-5C129.5,81.3,129.2,81,128.8,81z M120.2,74c0,0.9-0.7,1.6-1.6,1.6H97.7c0.5-1.7,1-3.4,1.2-5.2l5.8-1.2
				c0.3-0.1,0.6-0.4,0.6-0.7v-2.7h14.9V74z M95.9,38.6L91,33.8c-0.3-0.3-0.6-0.3-0.9-0.1L85.1,37c-4.5-3.3-9.7-5.4-15.1-6.3
				l-1.2-5.8c-0.1-0.3-0.4-0.6-0.7-0.6h-6.9c-0.4,0-0.7,0.3-0.7,0.6l-1.2,5.8c-5.5,0.8-10.7,3-15.1,6.3l-4.9-3.3
				c-0.3-0.2-0.7-0.2-0.9,0.1l-4.9,4.9c-0.3,0.3-0.3,0.6-0.1,0.9l3.3,4.9c-3.3,4.5-5.4,9.7-6.3,15.1l-5.8,1.2
				c-0.3,0.1-0.6,0.4-0.6,0.7v2.7H13.4V16.7h102.5v47.6h-10.5v-2.7c0-0.4-0.3-0.7-0.6-0.7L99,59.6c-0.8-5.5-3-10.7-6.3-15.1l3.3-4.9
				C96.1,39.3,96.1,38.9,95.9,38.6z M13.4,15.2V5.9h102.5v9.3H13.4z M9.3,3.1c0-0.9,0.7-1.6,1.6-1.6h107.8c0.9,0,1.6,0.7,1.6,1.6
				v61.1h-2.8V5.1c0-0.4-0.3-0.8-0.8-0.8h-104c-0.4,0-0.8,0.3-0.8,0.8v59.1H9.3V3.1z M10.8,75.6c-0.9,0-1.6-0.7-1.6-1.6v-8.3H24v2.7
				c0,0.4,0.3,0.7,0.6,0.7l5.8,1.2c0.3,1.8,0.7,3.5,1.2,5.2H10.8z M1.5,86.8v-4.3h33.2c0.6,1,1.2,2,1.9,3l-3.3,4.9
				c-0.1,0.2-0.1,0.4-0.1,0.6H5.7C3.4,91,1.5,89.1,1.5,86.8z M67.6,128h-5.8c-1.5,0-2.6-1.2-2.6-2.6v-25c0-1.5,1.2-2.6,2.6-2.6h5.8
				c1.5,0,2.6,1.2,2.6,2.6l0,25C70.2,126.8,69,128,67.6,128z M64.7,88.5c-13,0-23.5-10.6-23.5-23.6c0-13,10.6-23.5,23.5-23.5
				c13,0,23.5,10.6,23.5,23.5C88.2,78,77.6,88.5,64.7,88.5z M66.7,89.9v6.3h-4.2v-6.3c0.7,0.1,1.4,0.1,2.1,0.1
				C65.4,90,66.1,90,66.7,89.9z M90.4,94.7l-4.9-3.2c-0.3-0.2-0.6-0.2-0.9,0c-4.1,3.1-8.9,5.2-14,6.1c-0.6-0.7-1.5-1.2-2.4-1.3v-6.5
				C80.4,88,89.7,77.6,89.7,65c0-13.8-11.2-25-25-25s-25,11.2-25,25c0,12.6,9.3,23,21.5,24.8v6.5c-1,0.2-1.8,0.6-2.4,1.3
				c-5.1-0.9-9.9-3-14-6.1c-0.3-0.2-0.6-0.2-0.9,0l-4.9,3.2l-4-4l3.2-4.9c0.2-0.3,0.2-0.6,0-0.9c-3.4-4.5-5.6-9.8-6.4-15.4
				c0-0.3-0.3-0.6-0.6-0.6l-5.7-1.2v-5.6l5.7-1.2c0.3-0.1,0.5-0.3,0.6-0.6c0.8-5.6,3-10.9,6.4-15.4c0.2-0.3,0.2-0.6,0-0.9l-3.2-4.9
				l4-4l4.9,3.2c0.3,0.2,0.6,0.2,0.9,0c4.5-3.4,9.8-5.6,15.4-6.4c0.3,0,0.6-0.3,0.6-0.6l1.2-5.7h5.6l1.2,5.7
				c0.1,0.3,0.3,0.5,0.6,0.6c5.6,0.8,10.9,3,15.4,6.4c0.3,0.2,0.6,0.2,0.9,0l4.9-3.2l4,4l-3.2,4.9c-0.2,0.3-0.2,0.6,0,0.9
				c3.4,4.5,5.6,9.8,6.4,15.4c0,0.3,0.3,0.6,0.6,0.6l5.7,1.2v5.6L98.1,69c-0.3,0.1-0.5,0.3-0.6,0.6c-0.8,5.6-3,10.9-6.4,15.4
				c-0.2,0.3-0.2,0.6,0,0.9l3.2,4.9L90.4,94.7z M128,86.8c0,2.3-1.9,4.3-4.3,4.3H96c0.1-0.2,0-0.4-0.1-0.6l-3.3-4.9
				c0.7-0.9,1.3-1.9,1.9-3H128V86.8z"/>
			<path fill="#231F20" d="M64.7,44.9c-11.1,0-20.1,9-20.1,20.1c0,11.1,9,20.1,20.1,20.1c11.1,0,20.1-9,20.1-20.1
				C84.7,53.9,75.7,44.9,64.7,44.9z M64.7,83.6c-10.2,0-18.6-8.3-18.6-18.6s8.3-18.6,18.6-18.6S83.2,54.7,83.2,65
				S74.9,83.6,64.7,83.6z"/>
		</g>
		<g>
			<circle fill="#84DBFF" cx="64.7" cy="65" r="15.1"/>
		</g>
		<g>
			<circle fill="#FFFFFF" cx="64.7" cy="65" r="13.3"/>
		</g>
		<g>
			<circle fill="#84DBFF" cx="64.7" cy="65" r="10.2"/>
		</g>
		<g>
			<circle fill="#54C0EB" cx="64.7" cy="65" r="6.8"/>
		</g>
		<g>
			<circle fill="#324A5E" cx="64.7" cy="65" r="3.5"/>
		</g>
		<g>
			<circle fill="#FFFFFF" cx="60.4" cy="61.5" r="2.6"/>
		</g>
		<g>
			<g>
				<path fill="#231F20" d="M28.6,109.1h-7.5c-0.4,0-0.8-0.3-0.8-0.8c0-0.4,0.3-0.8,0.8-0.8h7.5c0.4,0,0.8,0.3,0.8,0.8
					C29.3,108.7,29,109.1,28.6,109.1z"/>
			</g>
			<g>
				<path fill="#231F20" d="M33.5,109.1h-2.1c-0.4,0-0.8-0.3-0.8-0.8c0-0.4,0.3-0.8,0.8-0.8h2.1c0.4,0,0.8,0.3,0.8,0.8
					C34.3,108.7,33.9,109.1,33.5,109.1z"/>
			</g>
			<g>
				<path fill="#231F20" d="M30.6,111.8h-2.1c-0.4,0-0.8-0.3-0.8-0.8c0-0.4,0.3-0.8,0.8-0.8h2.1c0.4,0,0.8,0.3,0.8,0.8
					C31.4,111.4,31.1,111.8,30.6,111.8z"/>
			</g>
		</g>
		<g>
			<g>
				<path fill="#231F20" d="M110.2,112.3h-7.5c-0.4,0-0.8-0.3-0.8-0.8c0-0.4,0.3-0.8,0.8-0.8h7.5c0.4,0,0.8,0.3,0.8,0.8
					C110.9,111.9,110.6,112.3,110.2,112.3z"/>
			</g>
			<g>
				<path fill="#231F20" d="M115.1,112.3H113c-0.4,0-0.8-0.3-0.8-0.8c0-0.4,0.3-0.8,0.8-0.8h2.1c0.4,0,0.8,0.3,0.8,0.8
					C115.9,111.9,115.5,112.3,115.1,112.3z"/>
			</g>
			<g>
				<path fill="#231F20" d="M112.2,114.9h-2.1c-0.4,0-0.8-0.3-0.8-0.8c0-0.4,0.3-0.8,0.8-0.8h2.1c0.4,0,0.8,0.3,0.8,0.8
					C113,114.6,112.7,114.9,112.2,114.9z"/>
			</g>
		</g>
		<g>
			<circle fill="#FFD05B" cx="24.8" cy="27.5" r="2.5"/>
		</g>
		<g>
			<circle fill="#FF7058" cx="98.6" cy="120.7" r="2.5"/>
		</g>
		<g>
			<circle fill="#E6E9EE" cx="106.4" cy="38.5" r="2.5"/>
		</g>
		<g>
			<circle fill="#84DBFF" cx="11" cy="118.2" r="2.5"/>
		</g>
		<g>
			<g>
				<path fill="#231F20" d="M100,24.4c-0.2,0-0.4-0.1-0.5-0.2c-0.3-0.3-0.3-0.8,0-1.1l1.3-1.3c0.3-0.3,0.8-0.3,1.1,0
					c0.3,0.3,0.3,0.8,0,1.1l-1.3,1.3C100.4,24.3,100.2,24.4,100,24.4z"/>
			</g>
			<g>
				<path fill="#231F20" d="M95.9,28.5c-0.2,0-0.4-0.1-0.5-0.2c-0.3-0.3-0.3-0.8,0-1.1l1.3-1.3c0.3-0.3,0.8-0.3,1.1,0
					c0.3,0.3,0.3,0.8,0,1.1l-1.3,1.3C96.3,28.4,96.1,28.5,95.9,28.5z"/>
			</g>
			<g>
				<path fill="#231F20" d="M101.3,28.5c-0.2,0-0.4-0.1-0.5-0.2l-1.3-1.3c-0.3-0.3-0.3-0.8,0-1.1c0.3-0.3,0.8-0.3,1.1,0l1.3,1.3
					c0.3,0.3,0.3,0.8,0,1.1C101.6,28.4,101.5,28.5,101.3,28.5z"/>
			</g>
			<g>
				<path fill="#231F20" d="M97.2,24.4c-0.2,0-0.4-0.1-0.5-0.2l-1.3-1.3c-0.3-0.3-0.3-0.8,0-1.1c0.3-0.3,0.8-0.3,1.1,0l1.3,1.3
					c0.3,0.3,0.3,0.8,0,1.1C97.6,24.3,97.4,24.4,97.2,24.4z"/>
			</g>
		</g>
		<g>
			<g>
				<path fill="#231F20" d="M84.3,110.4c-0.2,0-0.4-0.1-0.5-0.2c-0.3-0.3-0.3-0.8,0-1.1l1.3-1.3c0.3-0.3,0.8-0.3,1.1,0
					c0.3,0.3,0.3,0.8,0,1.1l-1.3,1.3C84.7,110.3,84.5,110.4,84.3,110.4z"/>
			</g>
			<g>
				<path fill="#231F20" d="M80.3,114.4c-0.2,0-0.4-0.1-0.5-0.2c-0.3-0.3-0.3-0.8,0-1.1l1.3-1.3c0.3-0.3,0.8-0.3,1.1,0
					c0.3,0.3,0.3,0.8,0,1.1l-1.3,1.3C80.7,114.4,80.5,114.4,80.3,114.4z"/>
			</g>
			<g>
				<path fill="#231F20" d="M85.6,114.4c-0.2,0-0.4-0.1-0.5-0.2l-1.3-1.3c-0.3-0.3-0.3-0.8,0-1.1c0.3-0.3,0.8-0.3,1.1,0l1.3,1.3
					c0.3,0.3,0.3,0.8,0,1.1C86,114.4,85.8,114.4,85.6,114.4z"/>
			</g>
			<g>
				<path fill="#231F20" d="M81.6,110.4c-0.2,0-0.4-0.1-0.5-0.2l-1.3-1.3c-0.3-0.3-0.3-0.8,0-1.1c0.3-0.3,0.8-0.3,1.1,0l1.3,1.3
					c0.3,0.3,0.3,0.8,0,1.1C82,110.3,81.8,110.4,81.6,110.4z"/>
			</g>
		</g>
		<g>
			<g>
				<path fill="#231F20" d="M21,37.9c-0.2,0-0.4-0.1-0.5-0.2c-0.3-0.3-0.3-0.8,0-1.1l1.3-1.3c0.3-0.3,0.8-0.3,1.1,0
					c0.3,0.3,0.3,0.8,0,1.1l-1.3,1.3C21.4,37.8,21.2,37.9,21,37.9z"/>
			</g>
			<g>
				<path fill="#231F20" d="M17,41.9c-0.2,0-0.4-0.1-0.5-0.2c-0.3-0.3-0.3-0.8,0-1.1l1.3-1.3c0.3-0.3,0.8-0.3,1.1,0
					c0.3,0.3,0.3,0.8,0,1.1l-1.3,1.3C17.4,41.9,17.2,41.9,17,41.9z"/>
			</g>
			<g>
				<path fill="#231F20" d="M22.3,41.9c-0.2,0-0.4-0.1-0.5-0.2l-1.3-1.3c-0.3-0.3-0.3-0.8,0-1.1c0.3-0.3,0.8-0.3,1.1,0l1.3,1.3
					c0.3,0.3,0.3,0.8,0,1.1C22.7,41.9,22.5,41.9,22.3,41.9z"/>
			</g>
			<g>
				<path fill="#231F20" d="M18.3,37.9c-0.2,0-0.4-0.1-0.5-0.2l-1.3-1.3c-0.3-0.3-0.3-0.8,0-1.1c0.3-0.3,0.8-0.3,1.1,0l1.3,1.3
					c0.3,0.3,0.3,0.8,0,1.1C18.7,37.8,18.5,37.9,18.3,37.9z"/>
			</g>
		</g>
	</g>
</g>
</svg>
