<?xml version="1.0" encoding="utf-8"?>
<!-- Generator: Adobe Illustrator 18.0.0, SVG Export Plug-In . SVG Version: 6.00 Build 0)  -->
<!DOCTYPE svg PUBLIC "-//W3C//DTD SVG 1.1//EN" "http://www.w3.org/Graphics/SVG/1.1/DTD/svg11.dtd">
<svg version="1.1" id="Layer_1" xmlns="http://www.w3.org/2000/svg" xmlns:xlink="http://www.w3.org/1999/xlink" x="0px" y="0px"
	 viewBox="0 0 129.5 129.5" enable-background="new 0 0 129.5 129.5" xml:space="preserve">
<g>
	<g>
		<g>
			<polygon fill="#CED5E0" points="79.8,118.1 46.6,118.1 49.6,123.2 76.8,123.2 			"/>
		</g>
		<g>
			<rect x="16.2" y="58.2" fill="#84DBFF" width="94.1" height="51.4"/>
		</g>
		<g>
			<g>
				<path fill="#231F20" d="M117.7,33.8c-0.2,0-0.4-0.1-0.5-0.2c-0.3-0.3-0.3-0.8,0-1.1l1.3-1.3c0.3-0.3,0.8-0.3,1.1,0
					c0.3,0.3,0.3,0.8,0,1.1l-1.3,1.3C118.1,33.8,117.9,33.8,117.7,33.8z"/>
			</g>
			<g>
				<path fill="#231F20" d="M113.6,38c-0.2,0-0.4-0.1-0.5-0.2c-0.3-0.3-0.3-0.8,0-1.1l1.3-1.3c0.3-0.3,0.8-0.3,1.1,0
					c0.3,0.3,0.3,0.8,0,1.1l-1.3,1.3C114,37.9,113.8,38,113.6,38z"/>
			</g>
			<g>
				<path fill="#231F20" d="M119,38c-0.2,0-0.4-0.1-0.5-0.2l-1.3-1.3c-0.3-0.3-0.3-0.8,0-1.1c0.3-0.3,0.8-0.3,1.1,0l1.3,1.3
					c0.3,0.3,0.3,0.8,0,1.1C119.4,37.9,119.2,38,119,38z"/>
			</g>
			<g>
				<path fill="#231F20" d="M114.9,33.8c-0.2,0-0.4-0.1-0.5-0.2l-1.3-1.3c-0.3-0.3-0.3-0.8,0-1.1c0.3-0.3,0.8-0.3,1.1,0l1.3,1.3
					c0.3,0.3,0.3,0.8,0,1.1C115.3,33.8,115.1,33.8,114.9,33.8z"/>
			</g>
		</g>
		<g>
			<g>
				<path fill="#231F20" d="M56.6,29.4c-0.2,0-0.4-0.1-0.5-0.2c-0.3-0.3-0.3-0.8,0-1.1l1.3-1.3c0.3-0.3,0.8-0.3,1.1,0
					c0.3,0.3,0.3,0.8,0,1.1l-1.3,1.3C57,29.3,56.8,29.4,56.6,29.4z"/>
			</g>
			<g>
				<path fill="#231F20" d="M52.5,33.5c-0.2,0-0.4-0.1-0.5-0.2c-0.3-0.3-0.3-0.8,0-1.1l1.3-1.3c0.3-0.3,0.8-0.3,1.1,0
					c0.3,0.3,0.3,0.8,0,1.1L53,33.3C52.9,33.4,52.7,33.5,52.5,33.5z"/>
			</g>
			<g>
				<path fill="#231F20" d="M57.9,33.5c-0.2,0-0.4-0.1-0.5-0.2L56.1,32c-0.3-0.3-0.3-0.8,0-1.1c0.3-0.3,0.8-0.3,1.1,0l1.3,1.3
					c0.3,0.3,0.3,0.8,0,1.1C58.3,33.4,58.1,33.5,57.9,33.5z"/>
			</g>
			<g>
				<path fill="#231F20" d="M53.8,29.4c-0.2,0-0.4-0.1-0.5-0.2L52,27.8c-0.3-0.3-0.3-0.8,0-1.1c0.3-0.3,0.8-0.3,1.1,0l1.3,1.3
					c0.3,0.3,0.3,0.8,0,1.1C54.2,29.3,54,29.4,53.8,29.4z"/>
			</g>
		</g>
		<g>
			<g>
				<path fill="#231F20" d="M127.4,98.9c-0.2,0-0.4-0.1-0.5-0.2c-0.3-0.3-0.3-0.8,0-1.1l1.3-1.3c0.3-0.3,0.8-0.3,1.1,0
					c0.3,0.3,0.3,0.8,0,1.1l-1.3,1.3C127.8,98.9,127.6,98.9,127.4,98.9z"/>
			</g>
			<g>
				<path fill="#231F20" d="M123.3,103.1c-0.2,0-0.4-0.1-0.5-0.2c-0.3-0.3-0.3-0.8,0-1.1l1.3-1.3c0.3-0.3,0.8-0.3,1.1,0
					c0.3,0.3,0.3,0.8,0,1.1l-1.3,1.3C123.7,103,123.5,103.1,123.3,103.1z"/>
			</g>
			<g>
				<path fill="#231F20" d="M128.7,103.1c-0.2,0-0.4-0.1-0.5-0.2l-1.3-1.3c-0.3-0.3-0.3-0.8,0-1.1c0.3-0.3,0.8-0.3,1.1,0l1.3,1.3
					c0.3,0.3,0.3,0.8,0,1.1C129.1,103,128.9,103.1,128.7,103.1z"/>
			</g>
			<g>
				<path fill="#231F20" d="M124.6,98.9c-0.2,0-0.4-0.1-0.5-0.2l-1.3-1.3c-0.3-0.3-0.3-0.8,0-1.1c0.3-0.3,0.8-0.3,1.1,0l1.3,1.3
					c0.3,0.3,0.3,0.8,0,1.1C125,98.9,124.8,98.9,124.6,98.9z"/>
			</g>
		</g>
		<g>
			<g>
				<path fill="#FFFFFF" d="M30.3,3.3l-4-1.8l-0.1,0.2C25.4,3.3,23.7,4.1,22,4c-0.3,0-0.7,0-1,0c-1.8,0-3.4-0.9-4.2-2.5l-0.1-0.2
					l-4.1,1.5l0.1,0.3c0.5,1.7-0.1,3.5-1.5,4.6c-0.3,0.2-0.5,0.5-0.7,0.7c-1.2,1.2-3,1.7-4.7,1.2L5.5,9.5l-1.8,4L4,13.6
					c1.5,0.9,2.4,2.5,2.2,4.3c0,0.3,0,0.7,0,1c0,1.8-0.9,3.4-2.5,4.2l-0.2,0.1L5,27.2l0.3-0.1c1.7-0.5,3.5,0.1,4.6,1.5
					c0.2,0.3,0.5,0.5,0.7,0.7c1.2,1.2,1.7,3,1.2,4.7l-0.1,0.3l4,1.8l0.1-0.2c0.9-1.5,2.5-2.4,4.3-2.2c0.3,0,0.7,0,1,0
					c1.8,0,3.4,0.9,4.2,2.5l0.1,0.2l4.1-1.5l-0.1-0.3c-0.5-1.7,0.1-3.5,1.5-4.6c0.3-0.2,0.5-0.5,0.7-0.7c1.2-1.2,3-1.7,4.7-1.2
					l0.3,0.1l1.8-4L38,24c-1.5-0.9-2.4-2.5-2.2-4.3c0-0.3,0-0.7,0-1c0-1.8,0.9-3.4,2.5-4.2l0.2-0.1L37,10.4l-0.3,0.1
					c-1.7,0.5-3.5-0.1-4.6-1.5c-0.2-0.3-0.5-0.5-0.7-0.7c-1.2-1.2-1.7-3-1.2-4.7L30.3,3.3z"/>
				<path fill="#231F20" d="M25.4,37.1c-0.3,0-0.5-0.2-0.7-0.4l-0.1-0.2c-0.6-1.3-2-2.1-3.5-2.1H21c-0.3,0-0.7,0-1,0
					c-1.5-0.1-2.9,0.6-3.6,1.9l-0.1,0.2c-0.2,0.3-0.6,0.5-1,0.3l-4-1.8c-0.4-0.2-0.5-0.6-0.4-0.9l0.1-0.3c0.5-1.4,0.1-2.9-1-3.9
					c-0.3-0.3-0.5-0.5-0.7-0.8c-1-1.1-2.5-1.6-3.9-1.2L5.2,28c-0.4,0.1-0.8-0.1-0.9-0.5l-1.6-4.1c-0.1-0.4,0-0.8,0.4-0.9l0.2-0.1
					c1.3-0.6,2.1-2,2.1-3.5c0-0.4,0-0.7,0-1.1c0.1-1.5-0.6-2.9-1.9-3.6l-0.2-0.1c-0.3-0.2-0.5-0.6-0.3-1l1.8-4
					C5,8.8,5.4,8.6,5.7,8.8L6,8.9c1.3,0.5,2.9,0.1,3.9-1c0.3-0.3,0.5-0.5,0.8-0.7c1.1-1,1.6-2.5,1.2-3.9L11.9,3
					c-0.1-0.4,0.1-0.8,0.5-0.9l4.1-1.5c0.4-0.1,0.8,0,0.9,0.4l0.1,0.2c0.6,1.3,2,2.1,3.5,2.1H21c0.3,0,0.7,0,1,0
					c1.5,0.1,2.9-0.6,3.6-1.9l0.1-0.2c0.2-0.3,0.6-0.5,1-0.3l4,1.8c0.4,0.2,0.5,0.6,0.4,0.9L31,3.8c-0.5,1.4-0.1,2.9,1,3.9
					c0.3,0.3,0.5,0.5,0.7,0.8c1,1.1,2.5,1.6,3.9,1.2l0.3-0.1c0.4-0.1,0.8,0.1,0.9,0.5l1.5,4.1c0.1,0.4,0,0.8-0.4,0.9l-0.2,0.1
					c-1.3,0.6-2.1,2-2.1,3.5c0,0.4,0,0.7,0,1.1c-0.1,1.5,0.6,2.9,1.9,3.6l0.2,0.1c0.3,0.2,0.5,0.6,0.3,1l-1.8,4
					c-0.2,0.4-0.6,0.5-0.9,0.4L36,28.8c-1.3-0.5-2.9-0.1-3.9,1c-0.3,0.3-0.5,0.5-0.8,0.7c-1.1,1-1.6,2.5-1.2,3.9l0.1,0.3
					c0.1,0.4-0.1,0.8-0.5,0.9l-4.1,1.5C25.5,37.1,25.4,37.1,25.4,37.1z M21.1,32.9c1.9,0,3.7,1,4.6,2.5l2.8-1.1
					c-0.3-1.8,0.3-3.7,1.8-5c0.2-0.2,0.5-0.4,0.7-0.7c1.3-1.3,3.3-1.9,5.1-1.5l1.2-2.8c-1.5-1-2.4-2.8-2.3-4.8c0-0.3,0-0.6,0-1
					c0-2,1-3.7,2.5-4.6l-1.1-2.8c-1.8,0.3-3.7-0.3-5-1.8c-0.2-0.2-0.4-0.5-0.7-0.7c-1.4-1.4-1.9-3.3-1.5-5.1l-2.8-1.2
					c-1,1.5-2.8,2.4-4.8,2.3c-0.3,0-0.6,0-0.9,0L20.9,4v0.8c-1.9,0-3.7-1-4.6-2.5l-2.8,1.1c0.4,1.8-0.3,3.7-1.8,5
					c-0.2,0.2-0.5,0.4-0.7,0.7c-1.3,1.3-3.3,1.9-5.1,1.5l-1.2,2.8c1.5,1,2.4,2.8,2.3,4.8c0,0.3,0,0.6,0,1c0,2-1,3.7-2.5,4.6l1.1,2.8
					c1.8-0.3,3.7,0.3,5,1.8c0.2,0.2,0.4,0.5,0.7,0.7c1.4,1.4,1.9,3.3,1.5,5.1l2.8,1.2c1-1.5,2.8-2.4,4.8-2.3c0.3,0,0.6,0,0.9,0H21.1
					z"/>
			</g>
			<g>
				<path fill="#231F20" d="M21,30.8c-0.1,0-0.3,0-0.4,0l0-1.5c0.1,0,0.3,0,0.4,0c0.2,0,0.4,0,0.5,0l0.1,1.5
					C21.5,30.8,21.2,30.8,21,30.8z M18.5,30.6c-0.3-0.1-0.7-0.2-1-0.3l0.4-1.4c0.3,0.1,0.6,0.2,0.9,0.2L18.5,30.6z M23.8,30.5
					L23.4,29c0.3-0.1,0.6-0.2,0.9-0.3l0.5,1.4C24.5,30.3,24.1,30.4,23.8,30.5z M15.5,29.5c-0.3-0.2-0.6-0.3-0.9-0.5l0.8-1.3
					c0.3,0.2,0.5,0.3,0.8,0.5L15.5,29.5z M26.7,29.4L26,28c0.3-0.1,0.5-0.3,0.8-0.5l0.8,1.3C27.4,29,27.1,29.2,26.7,29.4z
					 M12.9,27.6c-0.3-0.2-0.5-0.5-0.8-0.8l1.1-1c0.2,0.2,0.4,0.5,0.7,0.7L12.9,27.6z M29.3,27.5l-1-1.1c0.2-0.2,0.4-0.4,0.6-0.7
					l1.1,1C29.8,27,29.6,27.2,29.3,27.5z M10.8,25.2c-0.2-0.3-0.4-0.6-0.5-0.9l1.3-0.7c0.1,0.3,0.3,0.5,0.5,0.8L10.8,25.2z M31.3,25
					L30,24.2c0.2-0.3,0.3-0.5,0.4-0.8l1.4,0.7C31.7,24.4,31.5,24.7,31.3,25z M9.5,22.3c-0.1-0.3-0.2-0.7-0.3-1l1.5-0.3
					c0.1,0.3,0.1,0.6,0.2,0.9L9.5,22.3z M32.6,22l-1.4-0.4c0.1-0.3,0.2-0.6,0.2-0.9l1.5,0.3C32.7,21.4,32.7,21.7,32.6,22z M9,19.1
					c0-0.1,0-0.2,0-0.3c0-0.2,0-0.5,0-0.7l1.5,0.1c0,0.2,0,0.4,0,0.7l0,0.3L9,19.1z M31.5,18.9c0-0.4,0-0.6,0-0.9l1.5-0.1
					c0,0.3,0,0.7,0,1L31.5,18.9z M10.8,16.3L9.3,16c0.1-0.3,0.2-0.7,0.3-1l1.4,0.5C11,15.7,10.9,16,10.8,16.3z M31.2,16.1
					c-0.1-0.3-0.2-0.6-0.3-0.9l1.4-0.5c0.1,0.3,0.2,0.7,0.3,1L31.2,16.1z M11.8,13.7L10.5,13c0.2-0.3,0.4-0.6,0.6-0.9l1.2,0.8
					C12.1,13.2,12,13.4,11.8,13.7z M30.1,13.5c-0.2-0.3-0.3-0.5-0.5-0.8l1.2-0.9c0.2,0.3,0.4,0.6,0.6,0.9L30.1,13.5z M13.5,11.5
					l-1.1-1c0.2-0.3,0.5-0.5,0.8-0.7l1,1.1C13.9,11,13.7,11.3,13.5,11.5z M28.4,11.3c-0.2-0.2-0.5-0.4-0.7-0.6l1-1.2
					c0.3,0.2,0.5,0.5,0.8,0.7L28.4,11.3z M15.7,9.8l-0.8-1.3c0.3-0.2,0.6-0.3,0.9-0.5l0.6,1.4C16.2,9.5,15.9,9.6,15.7,9.8z
					 M26.1,9.6c-0.3-0.2-0.5-0.3-0.8-0.4l0.6-1.4c0.3,0.1,0.6,0.3,1,0.5L26.1,9.6z M24.7,9c-0.3-0.1-0.6-0.2-0.9-0.3l0.4-1.4
					c0.3,0.1,0.7,0.2,1,0.3L24.7,9z M18.3,8.7l-0.4-1.4c0.3-0.1,0.7-0.2,1-0.2l0.3,1.5C18.9,8.5,18.6,8.6,18.3,8.7z M22,8.3
					c-0.3,0-0.6,0-0.9,0V6.8c0.4,0,0.7,0,1.1,0L22,8.3z"/>
			</g>
			<g>
				<circle fill="#E6E9EE" cx="21" cy="18.8" r="8.9"/>
			</g>
			<g>
				<circle fill="#FFFFFF" cx="21" cy="18.8" r="4.5"/>
				<path fill="#231F20" d="M21,24c-0.7,0-1.5-0.2-2.1-0.5c-1.3-0.6-2.2-1.6-2.7-2.9c-0.5-1.3-0.5-2.7,0.1-4
					c0.8-1.9,2.7-3.1,4.8-3.1c0.7,0,1.5,0.2,2.1,0.5c2.6,1.2,3.8,4.3,2.6,6.9C24.9,22.8,23.1,24,21,24z M21,15.1
					c-1.5,0-2.8,0.9-3.4,2.2c-0.4,0.9-0.4,1.9-0.1,2.8c0.4,0.9,1,1.7,2,2.1c0.5,0.2,1,0.3,1.5,0.3c1.5,0,2.8-0.9,3.4-2.2
					c0.8-1.9,0-4.1-1.9-4.9C22,15.2,21.5,15.1,21,15.1z"/>
			</g>
		</g>
		<circle fill="#FFFFFF" cx="86.4" cy="49.9" r="17.2"/>
		<path fill="#231F20" d="M125.6,117.2H117V54.3c0-2.8-2.3-5.2-5.2-5.2h-7.5c-0.4-9.6-8.3-17.2-18-17.2c-9.7,0-17.6,7.7-18,17.2
			H14.5c-2.8,0-5.2,2.3-5.2,5.2v62.9H0.7c-0.4,0-0.8,0.3-0.8,0.8v4.4c0,3.7,3,6.7,6.7,6.7h113.1c3.7,0,6.7-3,6.7-6.7V118
			C126.4,117.5,126.1,117.2,125.6,117.2z M86.4,33.4c9.1,0,16.5,7.4,16.5,16.5c0,9.1-7.4,16.5-16.5,16.5c-9.1,0-16.5-7.4-16.5-16.5
			C69.9,40.8,77.3,33.4,86.4,33.4z M10.9,54.3c0-2,1.6-3.7,3.7-3.7h53.9c0.4,9.6,8.3,17.2,18,17.2c9.7,0,17.6-7.7,18-17.2h7.5
			c2,0,3.7,1.6,3.7,3.7v62.9H10.9V54.3z M124.9,122.3c0,2.9-2.3,5.2-5.2,5.2H6.7c-2.9,0-5.2-2.3-5.2-5.2v-3.6h123.4V122.3z"/>
		<g>
			<circle fill="#FF7058" cx="86.4" cy="49.9" r="14.9"/>
		</g>
		<g>
			<rect x="79.4" y="38.4" transform="matrix(0.5 0.866 -0.866 0.5 73.9795 -49.8731)" fill="#231F20" width="1.6" height="1.5"/>
		</g>
		<g>
			<rect x="91.8" y="59.9" transform="matrix(0.5 0.866 -0.866 0.5 98.8316 -49.8734)" fill="#231F20" width="1.6" height="1.5"/>
		</g>
		<g>
			<rect x="74.8" y="42.9" transform="matrix(0.866 0.5 -0.5 0.866 31.9725 -31.9644)" fill="#231F20" width="1.6" height="1.5"/>
		</g>
		<g>
			<rect x="96.4" y="55.4" transform="matrix(0.866 0.5 -0.5 0.866 41.0694 -41.061)" fill="#231F20" width="1.6" height="1.5"/>
		</g>
		<g>
			<rect x="73.2" y="49.1" fill="#231F20" width="1.6" height="1.5"/>
		</g>
		<g>
			<rect x="98" y="49.1" fill="#231F20" width="1.6" height="1.5"/>
		</g>
		<g>
			
				<rect x="74.9" y="55.3" transform="matrix(0.5001 0.866 -0.866 0.5001 86.3983 -37.4477)" fill="#231F20" width="1.5" height="1.6"/>
		</g>
		<g>
			
				<rect x="96.4" y="42.9" transform="matrix(0.5001 0.866 -0.866 0.5001 86.3968 -62.2987)" fill="#231F20" width="1.5" height="1.6"/>
		</g>
		<g>
			
				<rect x="79.4" y="59.9" transform="matrix(0.866 0.5001 -0.5001 0.866 41.0765 -31.9675)" fill="#231F20" width="1.5" height="1.6"/>
		</g>
		<g>
			
				<rect x="91.9" y="38.3" transform="matrix(0.866 0.5001 -0.5001 0.866 31.9792 -41.0659)" fill="#231F20" width="1.5" height="1.6"/>
		</g>
		<g>
			<polygon fill="#231F20" points="92.6,50.6 85.6,50.6 85.6,41.6 87.1,41.6 87.1,49.1 92.6,49.1 			"/>
		</g>
		<g>
			<rect x="85.6" y="36.7" fill="#231F20" width="1.5" height="1.6"/>
		</g>
		<g>
			<rect x="85.6" y="61.5" fill="#231F20" width="1.5" height="1.6"/>
		</g>
		<path fill="#FFFFFF" d="M56,73.8v-8.2H33.6v8.2c0,4.5,6,8.4,9.2,10.2c-3.2,1.8-9.2,5.7-9.2,10.2v8.2H56v-8.2c0-4.5-6-8.4-9.2-10.2
			C50,82.2,56,78.3,56,73.8z"/>
		<g>
			<path fill="#231F20" d="M56.7,73.8v-7.4h2.1v-1.5H30.7v1.5h2.1v7.4c0,4.4,4.9,8,8.4,10.2c-3.6,2.1-8.4,5.8-8.4,10.2v7.4h-2.1v1.5
				h28.1v-1.5h-2.1v-7.4c0-4.4-4.9-8-8.4-10.2C51.9,81.8,56.7,78.1,56.7,73.8z M46.4,83.3c-0.2,0.1-0.4,0.4-0.4,0.7
				c0,0.3,0.1,0.5,0.4,0.7c2.6,1.5,8.8,5.3,8.8,9.5v2h-0.6v1.5h0.6v3.9H34.4v-3.9h0.3v-1.5h-0.3v-2c0-4.2,6.2-8.1,8.8-9.5
				c0.2-0.1,0.4-0.4,0.4-0.7c0-0.3-0.1-0.5-0.4-0.7c-1.9-1-5.5-3.2-7.4-5.9V76h-0.8c-0.3-0.7-0.5-1.5-0.5-2.2v-7.4h20.9v7.4
				C55.2,78,49.1,81.8,46.4,83.3z"/>
			<rect x="45.6" y="96.1" fill="#231F20" width="1" height="1.5"/>
			<rect x="51.6" y="96.1" fill="#231F20" width="1" height="1.5"/>
			<rect x="48.6" y="96.1" fill="#231F20" width="1" height="1.5"/>
			<rect x="39.6" y="96.1" fill="#231F20" width="1" height="1.5"/>
			<rect x="42.6" y="96.1" fill="#231F20" width="1" height="1.5"/>
			<rect x="36.6" y="96.1" fill="#231F20" width="1" height="1.5"/>
			<rect x="37.7" y="76" fill="#231F20" width="1" height="1.5"/>
			<rect x="43.7" y="76" fill="#231F20" width="1" height="1.5"/>
			<rect x="40.7" y="76" fill="#231F20" width="1" height="1.5"/>
			<rect x="46.7" y="76" fill="#231F20" width="1" height="1.5"/>
			<rect x="52.7" y="76" fill="#231F20" width="1" height="1.5"/>
			<rect x="49.7" y="76" fill="#231F20" width="1" height="1.5"/>
			<path fill="#231F20" d="M44.3,86.4c-0.1,0.1-0.2,0.3-0.2,0.5c0,0.2,0.1,0.4,0.2,0.5c0.1,0.1,0.3,0.2,0.5,0.2
				c0.2,0,0.4-0.1,0.5-0.2c0.1-0.2,0.2-0.3,0.2-0.5c0-0.2-0.1-0.4-0.2-0.5C45,86.1,44.6,86.1,44.3,86.4z"/>
			<path fill="#231F20" d="M44.3,88.9c-0.1,0.1-0.2,0.3-0.2,0.5c0,0.2,0.1,0.4,0.2,0.5c0.1,0.1,0.3,0.2,0.5,0.2
				c0.2,0,0.4-0.1,0.5-0.2c0.1-0.1,0.2-0.3,0.2-0.5c0-0.2-0.1-0.4-0.2-0.5C45,88.6,44.5,88.6,44.3,88.9z"/>
			<path fill="#231F20" d="M44.3,91.5C44.1,91.6,44,91.8,44,92c0,0.2,0.1,0.4,0.2,0.5c0.1,0.1,0.3,0.2,0.5,0.2
				c0.2,0,0.4-0.1,0.5-0.2c0.1-0.1,0.2-0.3,0.2-0.5c0-0.2-0.1-0.4-0.2-0.5C45,91.2,44.5,91.2,44.3,91.5z"/>
		</g>
		<g>
			<path fill="#231F20" d="M70.2,25.7c-1.2,0-2.4-0.2-3.6-0.5c-0.3-0.1-0.4-0.3-0.5-0.5c-0.1-0.3,0-0.5,0.2-0.7l5.5-5.5l-1.6-4.9
				l-4.9-1.6l-5.5,5.5c-0.2,0.2-0.5,0.3-0.7,0.2c-0.3-0.1-0.5-0.3-0.5-0.5c-1.3-4.3-0.2-9,3-12.1c2.3-2.3,5.3-3.6,8.6-3.6
				c3.3,0,6.3,1.3,8.6,3.6c0.6,0.6,1.2,1.3,1.6,2.1h26.1c0.6-1.1,1.3-2.1,2.2-3c2.3-2.3,5.3-3.6,8.6-3.6c1.2,0,2.4,0.2,3.6,0.5
				c0.3,0.1,0.4,0.3,0.5,0.5c0.1,0.3,0,0.5-0.2,0.7l-5.5,5.5l1.6,4.9l4.9,1.6l5.5-5.5c0.2-0.2,0.5-0.3,0.7-0.2
				c0.3,0.1,0.5,0.3,0.5,0.5c1.3,4.3,0.2,9-3,12.1c-2.3,2.3-5.3,3.6-8.6,3.6c-3.3,0-6.3-1.3-8.6-3.6c-0.9-0.9-1.6-1.9-2.2-3H81.5
				c-0.6,1.5-1.5,2.8-2.6,3.9C76.5,24.5,73.5,25.7,70.2,25.7z M68.4,24.1c0.6,0.1,1.2,0.2,1.9,0.2c2.8,0,5.5-1.1,7.5-3.1
				c1.1-1.1,1.9-2.4,2.5-3.9c0.1-0.3,0.4-0.5,0.7-0.5H107c0.3,0,0.6,0.2,0.7,0.4c0.5,1.1,1.2,2.2,2.1,3c2,2,4.7,3.1,7.5,3.1
				c2.9,0,5.5-1.1,7.5-3.1c2.5-2.5,3.6-6,3-9.4l-4.9,4.9c-0.2,0.2-0.5,0.3-0.8,0.2l-5.7-1.8c-0.2-0.1-0.4-0.3-0.5-0.5l-1.8-5.7
				c-0.1-0.3,0-0.6,0.2-0.8l4.9-4.9C118.6,2.1,118,2,117.4,2c-2.8,0-5.5,1.1-7.5,3.1c-0.9,0.9-1.6,1.9-2.1,3
				c-0.1,0.3-0.4,0.4-0.7,0.4h-27c-0.3,0-0.5-0.1-0.6-0.4c-0.5-0.8-1-1.5-1.6-2.1c-2-2-4.7-3.1-7.5-3.1c-2.9,0-5.5,1.1-7.5,3.1
				c-2.5,2.5-3.6,6-3,9.4l4.9-4.9c0.2-0.2,0.5-0.3,0.8-0.2l5.7,1.8c0.2,0.1,0.4,0.3,0.5,0.5l1.8,5.7c0.1,0.3,0,0.6-0.2,0.8
				L68.4,24.1z"/>
		</g>
		<g>
			<g>
				<path fill="#FFFFFF" d="M92.5,78.3h-8.3c-0.4,0-0.8-0.3-0.8-0.8s0.3-0.8,0.8-0.8h8.3c0.4,0,0.8,0.3,0.8,0.8S93,78.3,92.5,78.3z"
					/>
			</g>
			<g>
				<path fill="#FFFFFF" d="M95.8,81.3h-4.1c-0.4,0-0.8-0.3-0.8-0.8s0.3-0.8,0.8-0.8h4.1c0.4,0,0.8,0.3,0.8,0.8S96.2,81.3,95.8,81.3
					z"/>
			</g>
			<g>
				<path fill="#FFFFFF" d="M100.2,78.3h-3.9c-0.4,0-0.8-0.3-0.8-0.8s0.3-0.8,0.8-0.8h3.9c0.4,0,0.8,0.3,0.8,0.8
					S100.6,78.3,100.2,78.3z"/>
			</g>
			<g>
				<path fill="#FFFFFF" d="M88.8,81.3H88c-0.4,0-0.8-0.3-0.8-0.8s0.3-0.8,0.8-0.8h0.8c0.4,0,0.8,0.3,0.8,0.8S89.2,81.3,88.8,81.3z"
					/>
			</g>
		</g>
		<g>
			<g>
				<path fill="#231F20" d="M38.9,41.3h-8.3c-0.4,0-0.8-0.3-0.8-0.8s0.3-0.8,0.8-0.8h8.3c0.4,0,0.8,0.3,0.8,0.8S39.3,41.3,38.9,41.3
					z"/>
			</g>
			<g>
				<path fill="#231F20" d="M42.2,44.3h-4.1c-0.4,0-0.8-0.3-0.8-0.8c0-0.4,0.3-0.8,0.8-0.8h4.1c0.4,0,0.8,0.3,0.8,0.8
					C42.9,44,42.6,44.3,42.2,44.3z"/>
			</g>
			<g>
				<path fill="#231F20" d="M46.5,41.3h-3.9c-0.4,0-0.8-0.3-0.8-0.8s0.3-0.8,0.8-0.8h3.9c0.4,0,0.8,0.3,0.8,0.8S46.9,41.3,46.5,41.3
					z"/>
			</g>
			<g>
				<path fill="#231F20" d="M35.2,44.3h-0.8c-0.4,0-0.8-0.3-0.8-0.8c0-0.4,0.3-0.8,0.8-0.8h0.8c0.4,0,0.8,0.3,0.8,0.8
					C35.9,44,35.6,44.3,35.2,44.3z"/>
			</g>
		</g>
		<g>
			<g>
				<path fill="#FFFFFF" d="M74.3,100.2H66c-0.4,0-0.8-0.3-0.8-0.8s0.3-0.8,0.8-0.8h8.3c0.4,0,0.8,0.3,0.8,0.8
					S74.7,100.2,74.3,100.2z"/>
			</g>
			<g>
				<path fill="#FFFFFF" d="M77.6,103.2h-4.1c-0.4,0-0.8-0.3-0.8-0.8c0-0.4,0.3-0.8,0.8-0.8h4.1c0.4,0,0.8,0.3,0.8,0.8
					C78.3,102.9,78,103.2,77.6,103.2z"/>
			</g>
			<g>
				<path fill="#FFFFFF" d="M81.9,100.2h-3.9c-0.4,0-0.8-0.3-0.8-0.8s0.3-0.8,0.8-0.8h3.9c0.4,0,0.8,0.3,0.8,0.8
					S82.3,100.2,81.9,100.2z"/>
			</g>
			<g>
				<path fill="#FFFFFF" d="M70.5,103.2h-0.8c-0.4,0-0.8-0.3-0.8-0.8c0-0.4,0.3-0.8,0.8-0.8h0.8c0.4,0,0.8,0.3,0.8,0.8
					C71.3,102.9,71,103.2,70.5,103.2z"/>
			</g>
		</g>
		<g>
			<circle fill="#84DBFF" cx="46.6" cy="10.2" r="2.2"/>
		</g>
		<g>
			<circle fill="#FFD05B" cx="3.4" cy="44.1" r="2.2"/>
		</g>
		<g>
			<circle fill="#CED5E0" cx="126.5" cy="64.8" r="2.2"/>
		</g>
	</g>
</g>
</svg>
