<?xml version="1.0" encoding="utf-8"?>
<!-- Generator: Adobe Illustrator 18.0.0, SVG Export Plug-In . SVG Version: 6.00 Build 0)  -->
<!DOCTYPE svg PUBLIC "-//W3C//DTD SVG 1.1//EN" "http://www.w3.org/Graphics/SVG/1.1/DTD/svg11.dtd">
<svg version="1.1" id="Layer_1" xmlns="http://www.w3.org/2000/svg" xmlns:xlink="http://www.w3.org/1999/xlink" x="0px" y="0px"
	 viewBox="0 0 129.5 129.5" enable-background="new 0 0 129.5 129.5" xml:space="preserve">
<g>
	<g>
		<circle fill="#84DBFF" cx="65" cy="64.8" r="42.3"/>
		<g>
			<path fill="#231F20" d="M29.9,13.7c-0.2,0-0.4-0.1-0.5-0.2c-0.3-0.3-0.3-0.8,0-1.1l1.3-1.3c0.3-0.3,0.8-0.3,1.1,0
				c0.3,0.3,0.3,0.8,0,1.1l-1.3,1.3C30.3,13.7,30.1,13.7,29.9,13.7z"/>
		</g>
		<g>
			<path fill="#231F20" d="M25.9,17.8c-0.2,0-0.4-0.1-0.5-0.2c-0.3-0.3-0.3-0.8,0-1.1l1.3-1.3c0.3-0.3,0.8-0.3,1.1,0
				c0.3,0.3,0.3,0.8,0,1.1l-1.3,1.3C26.3,17.7,26.1,17.8,25.9,17.8z"/>
		</g>
		<g>
			<path fill="#231F20" d="M31.2,17.8c-0.2,0-0.4-0.1-0.5-0.2l-1.3-1.3c-0.3-0.3-0.3-0.8,0-1.1c0.3-0.3,0.8-0.3,1.1,0l1.3,1.3
				c0.3,0.3,0.3,0.8,0,1.1C31.6,17.7,31.4,17.8,31.2,17.8z"/>
		</g>
		<g>
			<path fill="#231F20" d="M27.2,13.7c-0.2,0-0.4-0.1-0.5-0.2l-1.3-1.3c-0.3-0.3-0.3-0.8,0-1.1c0.3-0.3,0.8-0.3,1.1,0l1.3,1.3
				c0.3,0.3,0.3,0.8,0,1.1C27.6,13.7,27.4,13.7,27.2,13.7z"/>
		</g>
		<g>
			<path fill="#231F20" d="M115,25.6c-0.2,0-0.4-0.1-0.5-0.2c-0.3-0.3-0.3-0.8,0-1.1l1.3-1.3c0.3-0.3,0.8-0.3,1.1,0
				c0.3,0.3,0.3,0.8,0,1.1l-1.3,1.3C115.4,25.5,115.2,25.6,115,25.6z"/>
		</g>
		<g>
			<path fill="#231F20" d="M111,29.6c-0.2,0-0.4-0.1-0.5-0.2c-0.3-0.3-0.3-0.8,0-1.1l1.3-1.3c0.3-0.3,0.8-0.3,1.1,0
				c0.3,0.3,0.3,0.8,0,1.1l-1.3,1.3C111.4,29.5,111.2,29.6,111,29.6z"/>
		</g>
		<g>
			<path fill="#231F20" d="M116.3,29.6c-0.2,0-0.4-0.1-0.5-0.2l-1.3-1.3c-0.3-0.3-0.3-0.8,0-1.1c0.3-0.3,0.8-0.3,1.1,0l1.3,1.3
				c0.3,0.3,0.3,0.8,0,1.1C116.7,29.5,116.5,29.6,116.3,29.6z"/>
		</g>
		<g>
			<path fill="#231F20" d="M112.3,25.6c-0.2,0-0.4-0.1-0.5-0.2l-1.3-1.3c-0.3-0.3-0.3-0.8,0-1.1c0.3-0.3,0.8-0.3,1.1,0l1.3,1.3
				c0.3,0.3,0.3,0.8,0,1.1C112.7,25.5,112.5,25.6,112.3,25.6z"/>
		</g>
		<g>
			<path fill="#231F20" d="M16.9,103.4c-0.2,0-0.4-0.1-0.5-0.2c-0.3-0.3-0.3-0.8,0-1.1l1.3-1.3c0.3-0.3,0.8-0.3,1.1,0
				c0.3,0.3,0.3,0.8,0,1.1l-1.3,1.3C17.2,103.3,17.1,103.4,16.9,103.4z"/>
		</g>
		<g>
			<path fill="#231F20" d="M12.8,107.4c-0.2,0-0.4-0.1-0.5-0.2c-0.3-0.3-0.3-0.8,0-1.1l1.3-1.3c0.3-0.3,0.8-0.3,1.1,0
				c0.3,0.3,0.3,0.8,0,1.1l-1.3,1.3C13.2,107.4,13,107.4,12.8,107.4z"/>
		</g>
		<g>
			<path fill="#231F20" d="M18.1,107.4c-0.2,0-0.4-0.1-0.5-0.2l-1.3-1.3c-0.3-0.3-0.3-0.8,0-1.1c0.3-0.3,0.8-0.3,1.1,0l1.3,1.3
				c0.3,0.3,0.3,0.8,0,1.1C18.5,107.4,18.3,107.4,18.1,107.4z"/>
		</g>
		<g>
			<path fill="#231F20" d="M14.1,103.4c-0.2,0-0.4-0.1-0.5-0.2l-1.3-1.3c-0.3-0.3-0.3-0.8,0-1.1c0.3-0.3,0.8-0.3,1.1,0l1.3,1.3
				c0.3,0.3,0.3,0.8,0,1.1C14.5,103.3,14.3,103.4,14.1,103.4z"/>
		</g>
		<circle fill="#FFFFFF" cx="65" cy="64.8" r="30.2"/>
		<line fill="#FFFFFF" x1="34.8" y1="64.8" x2="95.2" y2="64.8"/>
		<line fill="#FFFFFF" x1="65" y1="34.6" x2="65" y2="95"/>
		<path fill="#231F20" d="M117.5,57.1l-1.3-0.8l0.5-0.9l1.3,0.7L117.5,57.1z M119,54.5l-1.3-0.7l0.5-0.9l1.3,0.7L119,54.5z
			 M120.4,51.9l-1.3-0.7l0.5-0.9l1.3,0.7L120.4,51.9z M121.8,49.2l-1.3-0.7l0.4-0.9l1.4,0.6L121.8,49.2z M31.8,48.6l-1.1-1l0.7-0.8
			l1.1,1L31.8,48.6z M123.1,46.4l-1.4-0.6c0.1-0.3,0.3-0.6,0.4-0.9l1.4,0.6C123.4,45.8,123.2,46.1,123.1,46.4z M33.8,46.4l-1.1-1
			l0.7-0.7l1.1,1L33.8,46.4z M35.8,44.2l-1.1-1l0.7-0.7l1.1,1L35.8,44.2z M124.3,43.7l-1.4-0.6c0.1-0.3,0.3-0.6,0.4-0.9l1.4,0.6
			C124.5,43,124.4,43.4,124.3,43.7z M37.9,42l-1.1-1l0.7-0.7l1.1,1L37.9,42z M125.4,40.9l-1.4-0.5c0.1-0.3,0.2-0.6,0.3-0.9l1.4,0.5
			C125.6,40.2,125.5,40.5,125.4,40.9z M40,39.8l-0.6-0.5l-0.5-0.5l0.7-0.7l1.1,1.1L40,39.8z M126.4,38l-1.4-0.5l0.3-0.9l1.4,0.5
			L126.4,38z M42.1,37.8l-1-1.1l0.7-0.7l1,1.1L42.1,37.8z M44.2,35.7l-1-1.1l0.7-0.7l1,1.1L44.2,35.7z M127.3,35.1l-1.4-0.4
			c0.1-0.3,0.2-0.6,0.3-1l1.4,0.4C127.5,34.5,127.4,34.8,127.3,35.1z M46.4,33.7l-1-1.1l0.7-0.7l1,1.1L46.4,33.7z M128.1,32.2
			l-1.5-0.3c0.1-0.3,0.2-0.6,0.2-1l1.5,0.3C128.3,31.5,128.2,31.8,128.1,32.2z M48.7,31.7l-1-1.1l0.8-0.7l1,1.1L48.7,31.7z
			 M50.9,29.7l-1-1.1l0.8-0.7l1,1.1L50.9,29.7z M128.7,29.2l-1.5-0.3c0.1-0.3,0.1-0.6,0.2-1l1.5,0.2
			C128.9,28.5,128.8,28.9,128.7,29.2z M53.2,27.8l-1-1.2L53,26l0.9,1.2L53.2,27.8z M129.2,26.2l-1.5-0.2c0-0.3,0.1-0.7,0.1-1
			l1.5,0.1C129.3,25.5,129.2,25.9,129.2,26.2z M55.5,25.9l-0.9-1.2l0.8-0.6l0.9,1.2L55.5,25.9z M57.9,24.1L57,22.9l0.8-0.6l0.9,1.2
			L57.9,24.1z M129.5,23.2l-1.5-0.1c0-0.3,0-0.7,0-1l1.5,0C129.5,22.5,129.5,22.8,129.5,23.2z M60.3,22.3l-0.9-1.2l0.8-0.6l0.9,1.2
			L60.3,22.3z M62.7,20.5l-0.9-1.2l0.8-0.6l0.9,1.2L62.7,20.5z M128,20.1c0-0.3,0-0.7-0.1-1l1.5-0.1c0,0.3,0,0.7,0.1,1L128,20.1z
			 M65.1,18.8l-0.8-1.2l0.8-0.6l0.8,1.2L65.1,18.8z M127.7,17.2c0-0.3-0.1-0.6-0.2-1L129,16c0.1,0.3,0.1,0.7,0.2,1L127.7,17.2z
			 M67.6,17.2l-0.8-1.3l0.8-0.5l0.8,1.3L67.6,17.2z M70.1,15.6l-0.8-1.3l0.9-0.5L71,15L70.1,15.6z M127.1,14.4
			c-0.1-0.3-0.2-0.6-0.3-0.9l1.4-0.5c0.1,0.3,0.2,0.7,0.3,1L127.1,14.4z M72.7,14l-0.8-1.3l0.9-0.5l0.8,1.3L72.7,14z M75.3,12.5
			l-0.7-1.3l0.9-0.5l0.7,1.3L75.3,12.5z M126.1,11.7c-0.1-0.3-0.3-0.6-0.4-0.9l1.3-0.7c0.2,0.3,0.3,0.6,0.5,0.9L126.1,11.7z
			 M77.9,11.1l-0.7-1.3l0.9-0.5l0.7,1.3L77.9,11.1z M80.5,9.7l-0.7-1.3l0.9-0.4l0.7,1.3L80.5,9.7z M124.7,9.2
			c-0.2-0.3-0.4-0.5-0.6-0.8l1.2-0.9c0.2,0.3,0.4,0.6,0.6,0.8L124.7,9.2z M83.2,8.4l-0.6-1.4c0.3-0.1,0.6-0.3,0.9-0.4L84.1,8
			C83.8,8.2,83.5,8.3,83.2,8.4z M85.9,7.2l-0.6-1.4l0.9-0.4l0.6,1.4L85.9,7.2z M122.9,7c-0.3-0.3-0.5-0.5-0.7-0.7l1-1.1
			c0.2,0.2,0.5,0.4,0.7,0.7L122.9,7z M88.7,6.1l-0.5-1.4l0.9-0.4l0.5,1.4L88.7,6.1z M120.7,5.1c-0.3-0.2-0.5-0.4-0.8-0.5l0.8-1.3
			c0.3,0.2,0.6,0.4,0.9,0.6L120.7,5.1z M91.5,5.1L91,3.6c0.3-0.1,0.6-0.2,1-0.3l0.5,1.4C92.1,4.8,91.8,5,91.5,5.1z M94.3,4.1
			l-0.4-1.4c0.3-0.1,0.6-0.2,1-0.3l0.4,1.4C94.9,4,94.6,4,94.3,4.1z M118.2,3.7c-0.3-0.1-0.6-0.3-0.9-0.4l0.6-1.4
			c0.3,0.1,0.6,0.3,1,0.4L118.2,3.7z M97.2,3.3l-0.4-1.5c0.3-0.1,0.7-0.2,1-0.2l0.3,1.5C97.8,3.2,97.5,3.3,97.2,3.3z M115.5,2.7
			c-0.3-0.1-0.6-0.2-0.9-0.2L115,1c0.3,0.1,0.7,0.2,1,0.3L115.5,2.7z M100,2.7l-0.3-1.5c0.3-0.1,0.7-0.1,1-0.2l0.3,1.5
			C100.7,2.6,100.4,2.6,100,2.7z M103,2.2l-0.2-1.5c0.3,0,0.7-0.1,1-0.1l0.2,1.5C103.6,2.1,103.3,2.1,103,2.2z M112.7,2.1
			c-0.3,0-0.6-0.1-1-0.1l0.2-1.5c0.3,0,0.7,0.1,1,0.1L112.7,2.1z M105.9,1.9l-0.1-1.5c0.3,0,0.7,0,1-0.1l0.1,1.5
			C106.5,1.8,106.2,1.9,105.9,1.9z M109.8,1.8c-0.3,0-0.6,0-1,0l0-1.5c0.3,0,0.7,0,1,0L109.8,1.8z"/>
		<path fill="#231F20" d="M81.1,121.8l-0.9-0.4l0.7-1.3l0.9,0.4L81.1,121.8z M78.4,120.5c-0.3-0.2-0.6-0.3-0.9-0.5l0.7-1.3
			c0.3,0.2,0.6,0.3,0.9,0.5L78.4,120.5z M75.7,119.1c-0.3-0.2-0.6-0.3-0.9-0.5l0.7-1.3c0.3,0.2,0.6,0.3,0.9,0.5L75.7,119.1z
			 M73.1,117.6l-0.9-0.5l0.8-1.3l0.9,0.5L73.1,117.6z M70.5,116l-0.9-0.5l0.8-1.3l0.8,0.5L70.5,116z M68,114.4l-0.8-0.5l0.8-1.3
			l0.8,0.5L68,114.4z M65.4,112.8l-0.8-0.6l0.8-1.2l0.8,0.6L65.4,112.8z M62.9,111.1l-0.8-0.6l0.9-1.2l0.8,0.6L62.9,111.1z
			 M60.5,109.3l-0.8-0.6l0.9-1.2l0.8,0.6L60.5,109.3z M58.1,107.5l-0.8-0.6l0.9-1.2l0.8,0.6L58.1,107.5z M55.7,105.7l-0.8-0.6
			l0.9-1.2l0.8,0.6L55.7,105.7z M53.3,103.8l-0.8-0.6l1-1.2l0.8,0.6L53.3,103.8z M51,101.9l-0.8-0.6l1-1.1l0.8,0.6L51,101.9z
			 M48.7,99.9l-0.8-0.7l1-1.1l0.8,0.7L48.7,99.9z M46.4,98l-0.7-0.7l1-1.1l0.7,0.7L46.4,98z M44.2,95.9l-0.7-0.7l1-1.1l0.7,0.7
			L44.2,95.9z M42,93.9l-0.7-0.7l1-1.1l0.7,0.7L42,93.9z M39.9,91.8l-0.7-0.7l1.1-1.1l0.7,0.7L39.9,91.8z M37.7,89.6L37,88.9l1.1-1
			l0.7,0.7L37.7,89.6z M35.6,87.5L35,86.7l1.1-1l0.7,0.7L35.6,87.5z M33.6,85.3l-0.7-0.7l1.1-1l0.7,0.7L33.6,85.3z M31.6,83
			l-0.7-0.8l1.1-1l0.7,0.7L31.6,83z M29.6,80.8L28.9,80l1.1-1l0.7,0.8L29.6,80.8z M27.6,78.5L27,77.7l1.2-1l0.6,0.8L27.6,78.5z
			 M25.7,76.2l-0.6-0.8l1.2-0.9l0.6,0.8L25.7,76.2z M23.8,73.8L23.2,73l1.2-0.9l0.6,0.8L23.8,73.8z M22,71.4l-0.6-0.8l1.2-0.9
			l0.6,0.8L22,71.4z M20.2,69l-0.6-0.8l1.2-0.9l0.6,0.8L20.2,69z M18.5,66.5l-0.6-0.8l1.2-0.8l0.6,0.8L18.5,66.5z M16.8,64l-0.6-0.8
			l1.3-0.8l0.5,0.8L16.8,64z M15.1,61.5l-0.5-0.9l1.3-0.8l0.5,0.8L15.1,61.5z M13.6,58.9L13,58.1l1.3-0.8l0.5,0.9L13.6,58.9z
			 M12,56.3l-0.5-0.9l1.3-0.7l0.5,0.9L12,56.3z M10.5,53.7l-0.5-0.9l1.3-0.7l0.5,0.9L10.5,53.7z M9.1,51l-0.5-0.9l1.3-0.7l0.5,0.9
			L9.1,51z M7.8,48.3l-0.4-0.9l1.4-0.6l0.4,0.9L7.8,48.3z M6.5,45.6c-0.1-0.3-0.3-0.6-0.4-0.9l1.4-0.6c0.1,0.3,0.3,0.6,0.4,0.9
			L6.5,45.6z M5.3,42.8c-0.1-0.3-0.3-0.6-0.4-0.9l1.4-0.5c0.1,0.3,0.2,0.6,0.4,0.9L5.3,42.8z M4.3,40C4.1,39.7,4,39.3,3.9,39
			l1.4-0.5c0.1,0.3,0.2,0.6,0.3,0.9L4.3,40z M3.3,37.1c-0.1-0.3-0.2-0.6-0.3-1l1.4-0.4c0.1,0.3,0.2,0.6,0.3,0.9L3.3,37.1z M2.4,34.2
			c-0.1-0.3-0.2-0.7-0.3-1l1.5-0.4c0.1,0.3,0.2,0.6,0.3,1L2.4,34.2z M1.7,31.3c-0.1-0.3-0.1-0.7-0.2-1L2.9,30c0.1,0.3,0.1,0.6,0.2,1
			L1.7,31.3z M1.1,28.3c-0.1-0.3-0.1-0.7-0.2-1l1.5-0.2c0,0.3,0.1,0.6,0.2,1L1.1,28.3z M0.7,25.2c0-0.3-0.1-0.7-0.1-1l1.5-0.1
			c0,0.3,0.1,0.6,0.1,1L0.7,25.2z M0.5,22.2c0-0.3,0-0.5,0-0.7l0-0.3l1.5,0l0,0.3c0,0.2,0,0.5,0,0.7L0.5,22.2z M2.1,19.2l-1.5-0.1
			c0-0.3,0.1-0.7,0.1-1l1.5,0.2C2.1,18.6,2.1,18.9,2.1,19.2z M2.4,16.3L1,16.1c0.1-0.3,0.1-0.7,0.2-1l1.5,0.3
			C2.6,15.7,2.5,16,2.4,16.3z M3.1,13.5l-1.4-0.5c0.1-0.3,0.2-0.7,0.3-1l1.4,0.5C3.3,12.9,3.2,13.2,3.1,13.5z M4.2,10.9l-1.3-0.7
			c0.2-0.3,0.3-0.6,0.5-0.9L4.7,10C4.5,10.3,4.4,10.6,4.2,10.9z M5.8,8.5L4.6,7.5C4.8,7.3,5,7,5.2,6.7l1.1,1C6.2,8,6,8.2,5.8,8.5z"
			/>
		<path fill="#FFFFFF" d="M21.2,45.9l-3-1.4l-0.1,0.2c-0.7,1.2-1.9,1.8-3.3,1.7c-0.3,0-0.5,0-0.8,0c-1.3,0-2.6-0.7-3.2-1.9l-0.1-0.2
			l-3.1,1.2l0.1,0.2c0.4,1.3-0.1,2.6-1.1,3.5c-0.2,0.2-0.4,0.4-0.6,0.5c-0.9,0.9-2.3,1.3-3.6,0.9l-0.2-0.1l-1.4,3l0.2,0.1
			c1.2,0.7,1.8,1.9,1.7,3.3c0,0.3,0,0.5,0,0.8c0,1.3-0.7,2.6-1.9,3.2L0.8,61l1.2,3.1l0.2-0.1c1.3-0.4,2.6,0.1,3.5,1.1
			c0.2,0.2,0.4,0.4,0.5,0.6c0.9,0.9,1.3,2.3,0.9,3.6L7,69.5l3,1.4l0.1-0.2c0.7-1.2,1.9-1.8,3.3-1.7c0.3,0,0.5,0,0.8,0
			c1.3,0,2.6,0.7,3.2,1.9l0.1,0.2l3.1-1.2l-0.1-0.2c-0.4-1.3,0.1-2.6,1.1-3.5c0.2-0.2,0.4-0.4,0.6-0.5c0.9-0.9,2.3-1.3,3.6-0.9
			l0.2,0.1l1.4-3l-0.2-0.1c-1.2-0.7-1.8-1.9-1.7-3.3c0-0.3,0-0.5,0-0.8c0-1.3,0.7-2.6,1.9-3.2l0.2-0.1l-1.2-3.1l-0.2,0.1
			c-1.3,0.4-2.6-0.1-3.5-1.1c-0.2-0.2-0.4-0.4-0.5-0.6c-0.9-0.9-1.3-2.3-0.9-3.6L21.2,45.9z"/>
		<g>
			<circle fill="#FFD05B" cx="14.1" cy="57.7" r="6.8"/>
		</g>
		<g>
			<circle fill="#FFFFFF" cx="14.1" cy="57.7" r="3.4"/>
			<path fill="#231F20" d="M14.1,61.9c-0.6,0-1.2-0.1-1.7-0.4c-2.1-0.9-3-3.4-2.1-5.5c0.7-1.5,2.2-2.5,3.8-2.5
				c0.6,0,1.2,0.1,1.7,0.4c1,0.5,1.8,1.3,2.2,2.3c0.4,1,0.4,2.2-0.1,3.2C17.2,60.9,15.8,61.9,14.1,61.9z M14.1,55.1
				c-1,0-2,0.6-2.4,1.6c-0.6,1.3,0,2.9,1.3,3.5c1.3,0.6,2.9,0,3.5-1.3c0.3-0.6,0.3-1.4,0.1-2c-0.3-0.7-0.7-1.2-1.4-1.5
				C14.9,55.2,14.5,55.1,14.1,55.1z"/>
		</g>
		<polygon fill="#FFFFFF" points="109,105.1 111.4,102.8 106.6,98 114.5,94.2 91.4,85.1 100.4,108.2 104.3,100.3 		"/>
		<circle fill="#FFFFFF" cx="48.8" cy="9.8" r="5"/>
		<circle fill="#FFFFFF" cx="6.6" cy="122.5" r="5"/>
		<g>
			<path fill="#231F20" d="M65,33.8c-17.1,0-31,13.9-31,31c0,17.1,13.9,31,31,31s31-13.9,31-31C96,47.7,82.1,33.8,65,33.8z
				 M94.4,64.1H83.3c-0.1-5.7-1.1-11-2.7-15.5c2-1.2,3.9-2.6,5.6-4.2C91.1,49.5,94.3,56.4,94.4,64.1z M65.7,65.6h16.1
				c-0.1,5.4-1,10.5-2.5,14.8c-4.2-2.2-8.8-3.4-13.6-3.5V65.6z M85.1,43.3c-1.6,1.5-3.3,2.7-5.1,3.8c-2-4.8-4.8-8.7-8.1-11
				C77,37.4,81.5,39.9,85.1,43.3z M65.7,35.4c5.4,0.4,10.1,5.3,13,12.5c-4,2.1-8.4,3.3-13,3.4V35.4z M79.3,49.3
				c1.5,4.3,2.4,9.4,2.5,14.8H65.7V52.8C70.5,52.6,75.1,51.4,79.3,49.3z M64.2,64.1H48.2c0.1-5.4,1-10.5,2.5-14.8
				c4.1,2.2,8.8,3.4,13.6,3.5V64.1z M64.2,51.3c-4.6-0.1-9-1.3-13-3.4c2.9-7.2,7.6-12.1,13-12.5V51.3z M58,36.2
				c-3.3,2.3-6.1,6.1-8.1,11c-1.8-1.1-3.5-2.3-5.1-3.8C48.5,39.9,53,37.4,58,36.2z M43.8,44.4c1.7,1.6,3.6,3,5.6,4.2
				c-1.7,4.5-2.7,9.8-2.7,15.5H35.5C35.7,56.4,38.9,49.5,43.8,44.4z M35.5,65.6h11.1c0.1,5.7,1.1,11,2.7,15.5
				c-2,1.2-3.9,2.6-5.6,4.2C38.9,80.1,35.7,73.2,35.5,65.6z M44.9,86.3c1.6-1.5,3.3-2.7,5.1-3.8c2,4.8,4.8,8.7,8.1,11
				C53,92.2,48.5,89.7,44.9,86.3z M64.2,94.2c-5.4-0.4-10.1-5.3-13-12.5c4-2.1,8.4-3.3,13-3.4V94.2z M50.7,80.3
				c-1.5-4.3-2.4-9.4-2.5-14.8h16.1v11.3C59.5,77,54.8,78.2,50.7,80.3z M65.7,78.4c4.6,0.1,9,1.3,13,3.4c-2.9,7.2-7.6,12.1-13,12.5
				V78.4z M71.9,93.4c3.3-2.3,6.1-6.1,8.1-11c1.8,1.1,3.5,2.3,5.1,3.8C81.5,89.7,77,92.2,71.9,93.4z M86.2,85.2
				c-1.7-1.6-3.6-3-5.6-4.2c1.7-4.5,2.7-9.8,2.7-15.5h11.1C94.3,73.2,91.1,80.1,86.2,85.2z"/>
			<path fill="#231F20" d="M112.5,64.8c1.5-2.3,3-4.5,4.3-6.8l-1.1-0.6c-1.2,2.1-2.6,4.2-4,6.3C106,55.4,99,46.9,91,38.8
				c-11.6-11.6-24.2-21.3-36.4-28c0.1-0.3,0.1-0.7,0.1-1C54.6,6.6,52,4,48.8,4c-1.7,0-3.2,0.7-4.3,1.9c-0.9-0.4-1.7-0.7-2.6-1.1
				C25.9-1.4,13.1-1.1,6.1,5.9L7,6.8C13.7,0.2,25.9-0.1,41.5,6C42.3,6.3,43,6.6,43.8,7C43.3,7.8,43,8.8,43,9.8
				c0,3.2,2.6,5.8,5.8,5.8c2.4,0,4.5-1.5,5.3-3.5c12,6.7,24.4,16.2,35.9,27.7c8.2,8.2,15.2,16.7,20.9,25.1c-4.8,7-10.4,14-16.7,20.7
				l-2.6-1c-0.3-0.1-0.6,0-0.8,0.2c-0.2,0.2-0.3,0.5-0.2,0.8l1.1,2.7c-0.6,0.6-1.1,1.2-1.7,1.8c-15.5,15.5-32.8,27.5-48.6,33.7
				c-12.7,5-23.1,5.7-30.2,2.2c0.7-0.9,1-2.1,1-3.3c0-3.2-2.6-5.8-5.8-5.8c-1.1,0-2.1,0.3-3,0.8c-4.4-10.7,0.1-28.4,11.9-47.4
				c0.5,0.3,0.9,0.6,1.1,1.1l0.1,0.2c0.1,0.3,0.4,0.4,0.7,0.4c0.1,0,0.2,0,0.3,0l3.1-1.2c0.4-0.1,0.6-0.5,0.5-0.9l-0.1-0.2
				c-0.3-1,0.1-2,0.9-2.8c0.2-0.2,0.4-0.4,0.6-0.6c0.7-0.7,1.8-1,2.8-0.7l0.2,0.1c0.4,0.1,0.8-0.1,0.9-0.4l1.4-3
				c0.2-0.4,0-0.8-0.3-1l-0.2-0.1c-0.9-0.5-1.4-1.5-1.3-2.6c0-0.3,0-0.6,0-0.8c0-1.1,0.6-2,1.5-2.5l0.2-0.1c0.3-0.2,0.5-0.6,0.4-0.9
				l-0.4-1c1.3-1.5,2.5-3.1,3.9-4.6l-0.9-0.8c-1.2,1.4-2.3,2.7-3.4,4.1L27,51c-0.1-0.4-0.5-0.6-0.9-0.5l-0.2,0.1
				c-1,0.3-2-0.1-2.8-0.9c-0.2-0.2-0.4-0.4-0.6-0.6c-0.8-0.8-1-1.8-0.7-2.8l0.1-0.2c0.1-0.4,0-0.8-0.4-0.9l-3-1.4
				c-0.3-0.2-0.8,0-1,0.3l-0.1,0.2c-0.5,0.9-1.5,1.4-2.6,1.3c-0.3,0-0.5,0-0.8,0h0c-1.1,0-2-0.6-2.5-1.5L11.5,44
				c-0.2-0.3-0.6-0.5-0.9-0.4l-3.1,1.2C7.1,45,6.9,45.4,7,45.7L7,45.9c0.3,1-0.1,2-0.9,2.8c-0.2,0.2-0.4,0.4-0.6,0.6
				c-0.7,0.8-1.8,1-2.8,0.7l-0.2-0.1c-0.4-0.1-0.8,0-0.9,0.4l-1.4,3c-0.2,0.4,0,0.8,0.3,1l0.2,0.1c0.9,0.5,1.4,1.5,1.3,2.6
				c0,0.3,0,0.6,0,0.8c0,1.1-0.6,2-1.5,2.5l-0.2,0.1c-0.3,0.2-0.5,0.6-0.4,0.9l1.2,3.1c0.1,0.4,0.5,0.6,0.9,0.5l0.2-0.1
				c1-0.3,2,0.1,2.8,0.9c0.2,0.2,0.4,0.4,0.6,0.6c0.8,0.8,1,1.8,0.7,2.8l-0.1,0.2c-0.1,0.4,0,0.8,0.4,0.9l3,1.4c0.3,0.2,0.8,0,1-0.3
				l0.1-0.2c0.5-0.9,1.5-1.4,2.6-1.3c0.3,0,0.6,0,0.8,0c0,0,0,0,0,0C2.1,89.3-2.4,107.3,2.5,118.3c-1.1,1.1-1.7,2.5-1.7,4.1
				c0,3.2,2.6,5.8,5.8,5.8c1.5,0,2.9-0.6,3.9-1.5c3.1,1.6,6.9,2.4,11.2,2.4c5.9,0,12.7-1.5,20.3-4.5c15.9-6.2,33.3-18.3,49-34
				c0.4-0.4,0.9-0.9,1.3-1.4l7.5,19.1c0.1,0.3,0.4,0.5,0.7,0.5c0,0,0,0,0,0c0.3,0,0.5-0.2,0.7-0.4l3.4-6.9l4,4
				c0.3,0.3,0.8,0.3,1.1,0l2.3-2.3c0.1-0.1,0.2-0.3,0.2-0.5c0-0.2-0.1-0.4-0.2-0.5l-4-4l6.9-3.4c0.3-0.1,0.4-0.4,0.4-0.7
				c0-0.3-0.2-0.6-0.5-0.7L95.6,86c6-6.5,11.5-13.2,16.2-20.1c16.1,24,21.3,46.7,11.2,56.9c-7.6,7.6-22.7,6.8-41.3-2.2l-0.5,1.1
				c10.3,5,19.6,7.5,27.2,7.5c6.5,0,11.8-1.8,15.5-5.5C134.4,113.1,129.1,89.5,112.5,64.8z M48.8,14.1c-2.4,0-4.3-1.9-4.3-4.3
				c0-2.4,1.9-4.3,4.3-4.3c2.4,0,4.3,1.9,4.3,4.3C53.1,12.2,51.2,14.1,48.8,14.1z M14.1,68.3c-0.2,0-0.5,0-0.7,0c-0.1,0-0.2,0-0.3,0
				c-1.4,0-2.6,0.6-3.4,1.7l-1.8-0.8c0.3-1.4-0.1-2.8-1.2-3.9c-0.2-0.2-0.3-0.3-0.5-0.5c-1-1.1-2.4-1.6-3.8-1.4l-0.7-1.9
				c1.2-0.8,1.9-2.1,1.9-3.6c0-0.2,0-0.5,0-0.7c0.1-1.5-0.5-2.9-1.7-3.7l0.8-1.8c1.4,0.3,2.9-0.2,3.9-1.2C6.8,50.1,7,50,7.2,49.8
				c1.1-1,1.7-2.4,1.4-3.8l1.9-0.7c0.8,1.2,2.1,1.9,3.7,1.9h0c0.2,0,0.4,0,0.7,0c1.5,0.1,2.9-0.6,3.7-1.7l1.8,0.8
				c-0.3,1.4,0.1,2.8,1.2,3.9c0.2,0.2,0.3,0.3,0.5,0.5c1,1.1,2.4,1.6,3.8,1.4l0.7,1.9c-1.2,0.8-1.9,2.1-1.9,3.6c0,0.2,0,0.5,0,0.7
				c-0.1,1.5,0.5,2.9,1.7,3.7l-0.8,1.8c-1.4-0.3-2.9,0.2-3.9,1.2c-0.2,0.2-0.3,0.3-0.5,0.5c-1.1,1-1.7,2.4-1.4,3.8l-1.9,0.7
				C17,69,15.7,68.3,14.1,68.3z M6.6,126.8c-2.4,0-4.3-1.9-4.3-4.3c0-2.4,1.9-4.3,4.3-4.3c2.4,0,4.3,1.9,4.3,4.3
				C10.9,124.8,9,126.8,6.6,126.8z M112.6,94.2l-6.3,3.1c-0.2,0.1-0.4,0.3-0.4,0.6c0,0.2,0,0.5,0.2,0.7l4.2,4.2L109,104l-4.2-4.2
				c-0.2-0.2-0.4-0.3-0.7-0.2c-0.2,0-0.4,0.2-0.6,0.4l-3.1,6.3l-7.8-19.9L112.6,94.2z"/>
		</g>
		<circle fill="#FF7058" cx="101.2" cy="15.8" r="3.5"/>
		<circle fill="#E6E9EE" cx="18.1" cy="28.9" r="2.4"/>
		<circle fill="#FFD05B" cx="62.6" cy="123" r="1.9"/>
		<circle fill="#E6E9EE" cx="117.7" cy="88.1" r="1.3"/>
		<circle fill="#FF7058" cx="31.2" cy="101.4" r="1.3"/>
	</g>
</g>
</svg>
