<?xml version="1.0" encoding="utf-8"?>
<!-- Generator: Adobe Illustrator 18.0.0, SVG Export Plug-In . SVG Version: 6.00 Build 0)  -->
<!DOCTYPE svg PUBLIC "-//W3C//DTD SVG 1.1//EN" "http://www.w3.org/Graphics/SVG/1.1/DTD/svg11.dtd">
<svg version="1.1" id="Layer_1" xmlns="http://www.w3.org/2000/svg" xmlns:xlink="http://www.w3.org/1999/xlink" x="0px" y="0px"
	 viewBox="0 0 129.5 129.5" enable-background="new 0 0 129.5 129.5" xml:space="preserve">
<g>
	<g>
		<circle fill="#84DBFF" cx="104.7" cy="8.5" r="2.7"/>
		<path fill="#231F20" d="M118.8,7.9c-0.2,0-0.4-0.1-0.5-0.2c-0.3-0.3-0.3-0.8,0-1.1l1.3-1.3c0.3-0.3,0.8-0.3,1.1,0
			c0.3,0.3,0.3,0.8,0,1.1l-1.3,1.3C119.2,7.9,119,7.9,118.8,7.9z"/>
		<path fill="#231F20" d="M114.8,12c-0.2,0-0.4-0.1-0.5-0.2c-0.3-0.3-0.3-0.8,0-1.1l1.3-1.3c0.3-0.3,0.8-0.3,1.1,0
			c0.3,0.3,0.3,0.8,0,1.1l-1.3,1.3C115.2,11.9,115,12,114.8,12z"/>
		<path fill="#231F20" d="M120.1,12c-0.2,0-0.4-0.1-0.5-0.2l-1.3-1.3c-0.3-0.3-0.3-0.8,0-1.1c0.3-0.3,0.8-0.3,1.1,0l1.3,1.3
			c0.3,0.3,0.3,0.8,0,1.1C120.5,11.9,120.3,12,120.1,12z"/>
		<path fill="#231F20" d="M116.1,7.9c-0.2,0-0.4-0.1-0.5-0.2l-1.3-1.3c-0.3-0.3-0.3-0.8,0-1.1c0.3-0.3,0.8-0.3,1.1,0l1.3,1.3
			c0.3,0.3,0.3,0.8,0,1.1C116.5,7.9,116.3,7.9,116.1,7.9z"/>
		<path fill="#231F20" d="M109.7,101.2c-0.2,0-0.4-0.1-0.5-0.2c-0.3-0.3-0.3-0.8,0-1.1l1.3-1.3c0.3-0.3,0.8-0.3,1.1,0
			c0.3,0.3,0.3,0.8,0,1.1l-1.3,1.3C110.1,101.2,109.9,101.2,109.7,101.2z"/>
		<path fill="#231F20" d="M105.7,105.3c-0.2,0-0.4-0.1-0.5-0.2c-0.3-0.3-0.3-0.8,0-1.1l1.3-1.3c0.3-0.3,0.8-0.3,1.1,0
			c0.3,0.3,0.3,0.8,0,1.1l-1.3,1.3C106.1,105.2,105.9,105.3,105.7,105.3z"/>
		<path fill="#231F20" d="M111,105.3c-0.2,0-0.4-0.1-0.5-0.2l-1.3-1.3c-0.3-0.3-0.3-0.8,0-1.1c0.3-0.3,0.8-0.3,1.1,0l1.3,1.3
			c0.3,0.3,0.3,0.8,0,1.1C111.4,105.2,111.2,105.3,111,105.3z"/>
		<path fill="#231F20" d="M107,101.2c-0.2,0-0.4-0.1-0.5-0.2l-1.3-1.3c-0.3-0.3-0.3-0.8,0-1.1c0.3-0.3,0.8-0.3,1.1,0l1.3,1.3
			c0.3,0.3,0.3,0.8,0,1.1C107.4,101.2,107.2,101.2,107,101.2z"/>
		<path fill="#231F20" d="M4.8,19c-0.2,0-0.4-0.1-0.5-0.2c-0.3-0.3-0.3-0.8,0-1.1l1.3-1.3c0.3-0.3,0.8-0.3,1.1,0
			c0.3,0.3,0.3,0.8,0,1.1l-1.3,1.3C5.2,19,5,19,4.8,19z"/>
		<path fill="#231F20" d="M0.8,23.1c-0.2,0-0.4-0.1-0.5-0.2c-0.3-0.3-0.3-0.8,0-1.1l1.3-1.3c0.3-0.3,0.8-0.3,1.1,0
			c0.3,0.3,0.3,0.8,0,1.1l-1.3,1.3C1.2,23,1,23.1,0.8,23.1z"/>
		<path fill="#231F20" d="M6.1,23.1c-0.2,0-0.4-0.1-0.5-0.2l-1.3-1.3c-0.3-0.3-0.3-0.8,0-1.1c0.3-0.3,0.8-0.3,1.1,0l1.3,1.3
			c0.3,0.3,0.3,0.8,0,1.1C6.5,23,6.3,23.1,6.1,23.1z"/>
		<path fill="#231F20" d="M2.1,19c-0.2,0-0.4-0.1-0.5-0.2l-1.3-1.3c-0.3-0.3-0.3-0.8,0-1.1c0.3-0.3,0.8-0.3,1.1,0l1.3,1.3
			c0.3,0.3,0.3,0.8,0,1.1C2.5,19,2.3,19,2.1,19z"/>
		<path fill="#FFFFFF" d="M128.8,55.9c0-8.8-6.9-15.9-15.6-16.3c0,0,0,0,0,0c0-9.5-7.7-17.2-17.2-17.2c-2.1,0-4.2,0.4-6.1,1.1
			c-1.4-8-8.4-14.2-16.9-14.2c-3.2,0-6.2,0.9-8.8,2.5c-3.9-6.6-11.1-11-19.3-11c-12.4,0-22.4,10-22.4,22.4c0,1.8,0.2,3.6,0.7,5.3
			c-0.2,0-0.4,0-0.7,0c-12.1,0-21.9,9.8-21.9,21.9c0,12.1,9.8,21.9,21.9,21.9l92-0.2C122.6,71,128.8,64.2,128.8,55.9z"/>
		<path fill="#FFFFFF" d="M56.7,10.3C53.6,7.4,49.5,5.8,45,5.8c-9.6,0-17.4,7.8-17.4,17.4c0,0,0,0,0,0"/>
		<path fill="#231F20" d="M27.6,24c-0.4,0-0.8-0.3-0.8-0.7C26.9,13.2,35,5.1,45,5.1c4.5,0,8.9,1.7,12.2,4.7c0.3,0.3,0.3,0.8,0,1.1
			c-0.3,0.3-0.8,0.3-1.1,0c-3-2.8-7-4.3-11.2-4.3c-9.2,0-16.7,7.5-16.7,16.7C28.4,23.7,28,24,27.6,24z"/>
		<path fill="#FFFFFF" d="M90.9,40.1H39.4c-3,0-5.5,2.5-5.5,5.5v77.6c0,3,2.5,5.5,5.5,5.5h51.5c3,0,5.5-2.5,5.5-5.5V45.6
			C96.4,42.5,94,40.1,90.9,40.1z"/>
		<path fill="#E6E9EE" d="M96.4,52v-6.5c0-3-2.5-5.5-5.5-5.5H39.4c-3,0-5.5,2.5-5.5,5.5V52H96.4z"/>
		<path fill="#E6E9EE" d="M33.9,112.7v10.5c0,3,2.5,5.5,5.5,5.5h51.5c3,0,5.5-2.5,5.5-5.5v-10.5H33.9z"/>
		<path fill="#231F20" d="M113.9,38.9c-0.3-9.6-8.2-17.2-17.9-17.2c-1.9,0-3.7,0.3-5.5,0.9c-1.8-8.1-9-13.9-17.4-13.9
			c-3,0-5.9,0.8-8.5,2.2C60.3,4.1,53,0.1,45,0.1c-12.8,0-23.2,10.4-23.2,23.2c0,1.5,0.2,3,0.5,4.5C10,27.9,0,38,0,50.4
			C0,62.9,10.1,73,22.6,73c0,0,4.1,0,10.5,0v50.2c0,3.4,2.8,6.2,6.2,6.2h51.5c3.4,0,6.2-2.8,6.2-6.2V72.9c10.7,0,18.1-0.1,18.2-0.1
			c8.1-1.4,14.2-8.5,14.2-16.8C129.5,47,122.7,39.7,113.9,38.9z M95.7,51.3h-61v-5.7c0-2.6,2.1-4.7,4.7-4.7h51.5
			c2.6,0,4.7,2.1,4.7,4.7V51.3z M95.7,52.8V112h-61V52.8H95.7z M90.9,127.9H39.4c-2.6,0-4.7-2.1-4.7-4.7v-9.7h61v9.7
			C95.7,125.8,93.5,127.9,90.9,127.9z M114.5,71.3c0,0-7.1,0-17.4,0V45.6c0-3.4-2.8-6.2-6.2-6.2H39.4c-3.4,0-6.2,2.8-6.2,6.2v25.9
			c-6.5,0-10.5,0-10.5,0C11,71.5,1.5,62,1.5,50.4c0-11.6,9.5-21.1,21.1-21.1c0.1,0,0.2,0,0.3,0c0.1,0,0.2,0,0.3,0
			c0.2,0,0.5-0.1,0.6-0.3c0.1-0.2,0.2-0.4,0.1-0.6c-0.4-1.7-0.6-3.5-0.6-5.1c0-11.9,9.7-21.7,21.7-21.7c7.7,0,14.6,4,18.6,10.6
			c0.1,0.2,0.3,0.3,0.5,0.3c0.2,0,0.4,0,0.6-0.1c2.6-1.5,5.5-2.3,8.4-2.3c8,0,14.8,5.7,16.1,13.5c0,0.2,0.2,0.4,0.4,0.5
			c0.2,0.1,0.4,0.1,0.6,0c1.9-0.7,3.8-1.1,5.8-1.1c9,0,16.4,7.4,16.4,16.4c0,0.4,0.3,0.7,0.7,0.7c8.3,0.4,14.9,7.2,14.9,15.6
			C128,63.7,122.2,70.3,114.5,71.3z"/>
		<circle fill="#FFFFFF" cx="65.2" cy="120.7" r="4.1"/>
		<path fill="#231F20" d="M65.2,125.6c-2.7,0-4.9-2.2-4.9-4.9c0-2.7,2.2-4.9,4.9-4.9c2.7,0,4.9,2.2,4.9,4.9
			C70,123.4,67.9,125.6,65.2,125.6z M65.2,117.3c-1.9,0-3.4,1.5-3.4,3.4c0,1.9,1.5,3.4,3.4,3.4c1.9,0,3.4-1.5,3.4-3.4
			C68.5,118.8,67,117.3,65.2,117.3z"/>
		<path fill="#231F20" d="M58,27.3h-8.1c-0.4,0-0.8-0.3-0.8-0.8c0-0.4,0.3-0.8,0.8-0.8H58c0.4,0,0.8,0.3,0.8,0.8
			C58.8,27,58.4,27.3,58,27.3z"/>
		<path fill="#231F20" d="M50.7,24.4h-4c-0.4,0-0.8-0.3-0.8-0.8c0-0.4,0.3-0.8,0.8-0.8h4c0.4,0,0.8,0.3,0.8,0.8
			C51.5,24.1,51.1,24.4,50.7,24.4z"/>
		<path fill="#231F20" d="M46.3,27.3h-3.8c-0.4,0-0.8-0.3-0.8-0.8c0-0.4,0.3-0.8,0.8-0.8h3.8c0.4,0,0.8,0.3,0.8,0.8
			C47,27,46.7,27.3,46.3,27.3z"/>
		<path fill="#231F20" d="M54.4,24.4h-0.8c-0.4,0-0.8-0.3-0.8-0.8c0-0.4,0.3-0.8,0.8-0.8h0.8c0.4,0,0.8,0.3,0.8,0.8
			C55.1,24.1,54.8,24.4,54.4,24.4z"/>
		<line fill="#FFFFFF" x1="51.9" y1="46" x2="55.8" y2="46"/>
		<path fill="#231F20" d="M55.8,46.8h-3.8c-0.4,0-0.8-0.3-0.8-0.8s0.3-0.8,0.8-0.8h3.8c0.4,0,0.8,0.3,0.8,0.8S56.2,46.8,55.8,46.8z"
			/>
		<line fill="#FFFFFF" x1="58.8" y1="46" x2="78.4" y2="46"/>
		<path fill="#231F20" d="M78.4,46.8H58.8c-0.4,0-0.8-0.3-0.8-0.8s0.3-0.8,0.8-0.8h19.6c0.4,0,0.8,0.3,0.8,0.8S78.8,46.8,78.4,46.8z
			"/>
		<rect x="39.9" y="57.3" fill="#E6E9EE" width="8.3" height="8.3"/>
		<rect x="54" y="57.3" fill="#FF7058" width="8.3" height="8.3"/>
		<rect x="68" y="57.3" fill="#E6E9EE" width="8.3" height="8.3"/>
		<rect x="82.1" y="57.3" fill="#E6E9EE" width="8.3" height="8.3"/>
		<rect x="39.9" y="70.1" fill="#E6E9EE" width="8.3" height="8.3"/>
		<rect x="54" y="70.1" fill="#E6E9EE" width="8.3" height="8.3"/>
		<rect x="68" y="70.1" fill="#E6E9EE" width="8.3" height="8.3"/>
		<rect x="82.1" y="70.1" fill="#84DBFF" width="8.3" height="8.3"/>
		<rect x="39.9" y="82.8" fill="#E6E9EE" width="8.3" height="8.3"/>
		<rect x="54" y="82.8" fill="#FFD05B" width="8.3" height="8.3"/>
		<rect x="68" y="82.8" fill="#E6E9EE" width="8.3" height="8.3"/>
		<rect x="82.1" y="82.8" fill="#E6E9EE" width="8.3" height="8.3"/>
		<g>
			<path fill="#231F20" d="M124.6,108.5h-1.5v-16c0-4-3.3-7.3-7.3-7.3H111v-1.5h4.8c4.9,0,8.8,4,8.8,8.8V108.5z"/>
		</g>
		<g>
			<path fill="#231F20" d="M115.4,117.3h-1v-1.5h1V117.3z M112.4,117.3h-1v-1.5h1V117.3z M109.4,117.3h-1v-1.5h1V117.3z
				 M106.4,117.3h-1v-1.5h1V117.3z M103.4,117.3h-1v-1.5h1V117.3z M100.4,117.3h-1v-1.5h1V117.3z M97.4,117.3h-1v-1.5h1V117.3z
				 M117.5,117.2l-0.3-1.5c0.3-0.1,0.6-0.1,0.9-0.2l0.5,1.4C118.3,117,117.9,117.1,117.5,117.2z M120.6,115.9l-0.8-1.3
				c0.3-0.2,0.5-0.3,0.7-0.5l1,1.2C121.2,115.5,120.9,115.7,120.6,115.9z M122.9,113.7l-1.2-0.9c0.2-0.2,0.3-0.5,0.5-0.8l1.3,0.7
				C123.3,113.1,123.2,113.4,122.9,113.7z M124.3,110.7l-1.5-0.4c0.1-0.3,0.1-0.6,0.2-0.9l1.5,0.2
				C124.5,110,124.4,110.4,124.3,110.7z"/>
		</g>
		<g>
			<path fill="#FFFFFF" d="M102,84.4c4.3-1.6,9.5-4.3,12.8-7.1l-2.6,7.1l2.6,7.1C111.5,88.6,106.2,86,102,84.4z"/>
			<path fill="#231F20" d="M114.8,92.2c-0.2,0-0.4-0.1-0.5-0.2c-3.4-3-8.9-5.6-12.6-7c-0.3-0.1-0.5-0.4-0.5-0.7
				c0-0.3,0.2-0.6,0.5-0.7c3.7-1.4,9.2-4,12.6-7c0.3-0.2,0.6-0.2,0.9-0.1c0.3,0.2,0.4,0.6,0.3,0.9l-2.5,6.9l2.5,6.9
				c0.1,0.3,0,0.7-0.3,0.9C115.1,92.2,114.9,92.2,114.8,92.2z M104,84.4c2.9,1.2,6.4,2.9,9.2,4.9l-1.7-4.7c-0.1-0.2-0.1-0.3,0-0.5
				l1.7-4.7C110.4,81.4,107,83.2,104,84.4z"/>
		</g>
		<g>
			<path fill="#231F20" d="M19.3,117.3h-4.8c-4.9,0-8.8-4-8.8-8.8v-16h1.5v16c0,4,3.3,7.3,7.3,7.3h4.8V117.3z"/>
		</g>
		<g>
			<path fill="#231F20" d="M7.3,91.5l-1.5-0.2c0-0.4,0.1-0.7,0.2-1.1l1.5,0.4C7.4,90.9,7.3,91.2,7.3,91.5z M8.1,88.9l-1.3-0.7
				c0.2-0.3,0.4-0.6,0.6-0.9l1.2,0.9C8.4,88.4,8.3,88.6,8.1,88.9z M9.8,86.8l-1-1.2c0.3-0.2,0.6-0.5,0.9-0.6l0.8,1.3
				C10.3,86.5,10.1,86.6,9.8,86.8z M12.2,85.5l-0.5-1.4c0.3-0.1,0.7-0.2,1.1-0.3l0.3,1.5C12.8,85.3,12.5,85.4,12.2,85.5z M33.9,85.1
				h-1v-1.5h1V85.1z M30.9,85.1h-1v-1.5h1V85.1z M27.9,85.1h-1v-1.5h1V85.1z M24.9,85.1h-1v-1.5h1V85.1z M21.9,85.1h-1v-1.5h1V85.1z
				 M18.9,85.1h-1v-1.5h1V85.1z M15.9,85.1h-1v-1.5h1V85.1z"/>
		</g>
		<g>
			<path fill="#FFFFFF" d="M28.4,116.6c-4.3,1.6-9.5,4.3-12.8,7.1l2.6-7.1l-2.6-7.1C18.8,112.3,24.1,115,28.4,116.6z"/>
			<path fill="#231F20" d="M15.6,124.5c-0.1,0-0.3,0-0.4-0.1c-0.3-0.2-0.4-0.6-0.3-0.9l2.5-6.9l-2.5-6.9c-0.1-0.3,0-0.7,0.3-0.9
				c0.3-0.2,0.7-0.2,0.9,0.1c3.4,3,8.9,5.6,12.6,7c0.3,0.1,0.5,0.4,0.5,0.7c0,0.3-0.2,0.6-0.5,0.7c-3.7,1.4-9.2,4-12.6,7
				C15.9,124.4,15.7,124.5,15.6,124.5z M17.2,111.6l1.7,4.7c0.1,0.2,0.1,0.3,0,0.5l-1.7,4.7c2.8-2,6.2-3.7,9.2-4.9
				C23.4,115.4,20,113.6,17.2,111.6z"/>
		</g>
		<circle fill="#FFD05B" cx="12.9" cy="46" r="2.7"/>
		<circle fill="#E6E9EE" cx="122.2" cy="123.4" r="2.7"/>
		<circle fill="#E6E9EE" cx="76.4" cy="20.7" r="2.7"/>
	</g>
</g>
</svg>
