<?xml version="1.0" encoding="utf-8"?>
<!-- Generator: Adobe Illustrator 18.0.0, SVG Export Plug-In . SVG Version: 6.00 Build 0)  -->
<!DOCTYPE svg PUBLIC "-//W3C//DTD SVG 1.1//EN" "http://www.w3.org/Graphics/SVG/1.1/DTD/svg11.dtd">
<svg version="1.1" id="Layer_1" xmlns="http://www.w3.org/2000/svg" xmlns:xlink="http://www.w3.org/1999/xlink" x="0px" y="0px"
	 viewBox="0 0 129.5 129.5" enable-background="new 0 0 129.5 129.5" xml:space="preserve">
<g>
	<g>
		<g>
			<g>
				<path fill="#231F20" d="M125,6.1c-0.2,0-0.4-0.1-0.5-0.2c-0.3-0.3-0.3-0.8,0-1.1l1.3-1.3c0.3-0.3,0.8-0.3,1.1,0
					c0.3,0.3,0.3,0.8,0,1.1l-1.3,1.3C125.4,6,125.2,6.1,125,6.1z"/>
			</g>
			<g>
				<path fill="#231F20" d="M120.9,10.1c-0.2,0-0.4-0.1-0.5-0.2c-0.3-0.3-0.3-0.8,0-1.1l1.3-1.3c0.3-0.3,0.8-0.3,1.1,0
					c0.3,0.3,0.3,0.8,0,1.1l-1.3,1.3C121.3,10.1,121.1,10.1,120.9,10.1z"/>
			</g>
			<g>
				<path fill="#231F20" d="M126.3,10.1c-0.2,0-0.4-0.1-0.5-0.2l-1.3-1.3c-0.3-0.3-0.3-0.8,0-1.1c0.3-0.3,0.8-0.3,1.1,0l1.3,1.3
					c0.3,0.3,0.3,0.8,0,1.1C126.7,10.1,126.5,10.1,126.3,10.1z"/>
			</g>
			<g>
				<path fill="#231F20" d="M122.2,6.1c-0.2,0-0.4-0.1-0.5-0.2l-1.3-1.3c-0.3-0.3-0.3-0.8,0-1.1c0.3-0.3,0.8-0.3,1.1,0l1.3,1.3
					c0.3,0.3,0.3,0.8,0,1.1C122.6,6,122.4,6.1,122.2,6.1z"/>
			</g>
		</g>
		<polygon fill="#FFFFFF" points="96.1,118.8 96.1,125.5 8.2,125.5 8.2,19.4 14.9,19.4 14.9,118.8 		"/>
		<polygon fill="#FFFFFF" points="102.8,112.1 102.8,118.8 14.9,118.8 14.9,12.7 21.6,12.7 21.6,112.1 		"/>
		<rect x="21.6" y="6" fill="#FFFFFF" width="87.8" height="106.1"/>
		<path fill="#FFFFFF" d="M96.1,97.3l32.2-50.6c0.7-1,0.4-2.4-0.7-3.1l-13.1-8.4c-1-0.7-2.4-0.4-3.1,0.7L79.3,86.6L96.1,97.3z"/>
		<g>
			<path fill="#FFD05B" d="M108.8,43.3l4.3-6.7c0.1-0.1,0.2-0.1,0.3-0.1l13.6,8.7c0.1,0.1,0.1,0.2,0.1,0.3l-4.3,6.7L108.8,43.3z"/>
		</g>
		<polygon fill="#FFFFFF" points="79.3,86.6 78.7,106 96.1,97.3 		"/>
		<polygon fill="#FFFFFF" points="79,97.6 86.2,102.2 78.7,106 		"/>
		<g>
			<g>
				<path fill="#231F20" d="M119.4,118.2c-0.2,0-0.4-0.1-0.5-0.2c-0.3-0.3-0.3-0.8,0-1.1l1.3-1.3c0.3-0.3,0.8-0.3,1.1,0
					c0.3,0.3,0.3,0.8,0,1.1l-1.3,1.3C119.7,118.1,119.5,118.2,119.4,118.2z"/>
			</g>
			<g>
				<path fill="#231F20" d="M115.3,122.2c-0.2,0-0.4-0.1-0.5-0.2c-0.3-0.3-0.3-0.8,0-1.1l1.3-1.3c0.3-0.3,0.8-0.3,1.1,0
					c0.3,0.3,0.3,0.8,0,1.1l-1.3,1.3C115.7,122.1,115.5,122.2,115.3,122.2z"/>
			</g>
			<g>
				<path fill="#231F20" d="M120.7,122.2c-0.2,0-0.4-0.1-0.5-0.2l-1.3-1.3c-0.3-0.3-0.3-0.8,0-1.1c0.3-0.3,0.8-0.3,1.1,0l1.3,1.3
					c0.3,0.3,0.3,0.8,0,1.1C121,122.1,120.8,122.2,120.7,122.2z"/>
			</g>
			<g>
				<path fill="#231F20" d="M116.6,118.2c-0.2,0-0.4-0.1-0.5-0.2l-1.3-1.3c-0.3-0.3-0.3-0.8,0-1.1c0.3-0.3,0.8-0.3,1.1,0l1.3,1.3
					c0.3,0.3,0.3,0.8,0,1.1C117,118.1,116.8,118.2,116.6,118.2z"/>
			</g>
		</g>
		<g>
			<circle fill="#84DBFF" cx="118.9" cy="21.7" r="2.3"/>
		</g>
		<g>
			<circle fill="#FF7058" cx="85.6" cy="44.4" r="1.8"/>
		</g>
		<g>
			<circle fill="#E6E9EE" cx="38" cy="101" r="2.3"/>
		</g>
		<g>
			<g>
				<path fill="#231F20" d="M82.8,57.3h-8.2c-0.4,0-0.8-0.3-0.8-0.8c0-0.4,0.3-0.8,0.8-0.8h8.2c0.4,0,0.8,0.3,0.8,0.8
					C83.6,57,83.2,57.3,82.8,57.3z"/>
			</g>
			<g>
				<path fill="#231F20" d="M86,60.3h-4c-0.4,0-0.8-0.3-0.8-0.8c0-0.4,0.3-0.8,0.8-0.8h4c0.4,0,0.8,0.3,0.8,0.8
					C86.8,59.9,86.5,60.3,86,60.3z"/>
			</g>
			<g>
				<path fill="#231F20" d="M90.3,57.3h-3.8c-0.4,0-0.8-0.3-0.8-0.8c0-0.4,0.3-0.8,0.8-0.8h3.8c0.4,0,0.8,0.3,0.8,0.8
					C91.1,57,90.8,57.3,90.3,57.3z"/>
			</g>
			<g>
				<path fill="#231F20" d="M79.1,60.3h-0.8c-0.4,0-0.8-0.3-0.8-0.8c0-0.4,0.3-0.8,0.8-0.8h0.8c0.4,0,0.8,0.3,0.8,0.8
					C79.9,59.9,79.5,60.3,79.1,60.3z"/>
			</g>
		</g>
		<g>
			<g>
				<path fill="#231F20" d="M57.2,100.6H49c-0.4,0-0.8-0.3-0.8-0.8s0.3-0.8,0.8-0.8h8.2c0.4,0,0.8,0.3,0.8,0.8
					S57.6,100.6,57.2,100.6z"/>
			</g>
			<g>
				<path fill="#231F20" d="M60.4,103.6h-4c-0.4,0-0.8-0.3-0.8-0.8c0-0.4,0.3-0.8,0.8-0.8h4c0.4,0,0.8,0.3,0.8,0.8
					C61.1,103.2,60.8,103.6,60.4,103.6z"/>
			</g>
			<g>
				<path fill="#231F20" d="M64.7,100.6h-3.8c-0.4,0-0.8-0.3-0.8-0.8s0.3-0.8,0.8-0.8h3.8c0.4,0,0.8,0.3,0.8,0.8
					S65.1,100.6,64.7,100.6z"/>
			</g>
			<g>
				<path fill="#231F20" d="M53.5,103.6h-0.8c-0.4,0-0.8-0.3-0.8-0.8c0-0.4,0.3-0.8,0.8-0.8h0.8c0.4,0,0.8,0.3,0.8,0.8
					C54.2,103.2,53.9,103.6,53.5,103.6z"/>
			</g>
		</g>
		<circle fill="#FFFFFF" cx="43.7" cy="47.9" r="23.9"/>
		<g>
			<path fill="#84DBFF" d="M55.4,32c-8.8-6.4-21.1-4.5-27.5,4.2h0c-6.4,8.8-4.5,21.1,4.2,27.5l0,0c8.8,6.4,21.1,4.5,27.5-4.2h0
				C66,50.8,64.1,38.4,55.4,32z"/>
		</g>
		<path fill="#FFFFFF" d="M3.1,99.9L3.1,99.9c-2.6-2-3.1-5.8-1-8.5l13.8-17.7c2-2.6,5.8-3.1,8.5-1l0,0c2.6,2,3.1,5.8,1,8.5
			L11.6,98.9C9.5,101.5,5.7,101.9,3.1,99.9z"/>
		<g>
			<path fill="#231F20" d="M35.7,13.4h61.6c0.4,0,0.8-0.3,0.8-0.8c0-0.4-0.3-0.8-0.8-0.8H35.7c-0.4,0-0.8,0.3-0.8,0.8
				C35,13.1,35.3,13.4,35.7,13.4z"/>
			<path fill="#231F20" d="M35.7,17.6h61.6c0.4,0,0.8-0.3,0.8-0.8c0-0.4-0.3-0.8-0.8-0.8H35.7c-0.4,0-0.8,0.3-0.8,0.8
				C35,17.2,35.3,17.6,35.7,17.6z"/>
			<path fill="#231F20" d="M35.7,21.7h61.6c0.4,0,0.8-0.3,0.8-0.8c0-0.4-0.3-0.8-0.8-0.8H35.7c-0.4,0-0.8,0.3-0.8,0.8
				C35,21.4,35.3,21.7,35.7,21.7z"/>
			<path fill="#231F20" d="M68.8,87.6h-33c-0.4,0-0.8,0.3-0.8,0.8c0,0.4,0.3,0.8,0.8,0.8h33c0.4,0,0.8-0.3,0.8-0.8
				C69.5,88,69.2,87.6,68.8,87.6z"/>
			<path fill="#231F20" d="M129.4,44.8c-0.2-0.8-0.6-1.4-1.3-1.9L115,34.6c-0.5-0.3-1-0.5-1.6-0.5c-1,0-2,0.5-2.5,1.4l-0.6,1V6
				c0-0.4-0.3-0.8-0.8-0.8H21.6c-0.4,0-0.8,0.3-0.8,0.8v6h-5.9c-0.4,0-0.8,0.3-0.8,0.8v6h-6c-0.4,0-0.8,0.3-0.8,0.8V83
				c0.2-0.2,0.4-0.4,0.7-0.5L1.5,91c-2.3,2.9-1.8,7.2,1.2,9.5c1.4,1.1,3.2,1.6,4.8,1.4v23.6c0,0.4,0.3,0.8,0.8,0.8h87.8
				c0.4,0,0.8-0.3,0.8-0.8v-5.9h6c0.4,0,0.8-0.3,0.8-0.8v-6h6c0.4,0,0.8-0.3,0.8-0.8V76.6L129,47.1
				C129.4,46.4,129.6,45.6,129.4,44.8z M22.4,6.7h86.3v32.2L88.3,71H52.2c4.2-1.5,8-4.2,11-8c7.9-10.1,6.7-24.4-2.4-33h8
				c0.4,0,0.8-0.3,0.8-0.8c0-0.4-0.3-0.8-0.8-0.8h-9.7c0,0-0.1-0.1-0.1-0.1c-1.3-1-2.6-1.8-4-2.6h42.5c0.4,0,0.8-0.3,0.8-0.8
				c0-0.4-0.3-0.8-0.8-0.8H51.3c-9.5-3-20.4,0-26.9,8.3c-0.7,0.9-1.4,1.9-1.9,2.9V6.7z M79.7,98.9l5,3.2l-5.2,2.6L79.7,98.9z
				 M79.7,97.2l0.2-9.3l7.3,4.7l7.3,4.7l-8.3,4.1L79.7,97.2z M86,90l24-37.7l4.2,2.7l-24,37.7L86,90z M84.7,89.2l-4.4-2.8l24-37.7
				l4.4,2.8L84.7,89.2z M25.5,33.6c7.9-10.1,22.4-11.8,32.5-4c10.1,7.9,11.8,22.4,4,32.5c-7.9,10.1-22.4,11.8-32.5,4
				C19.4,58.3,17.6,43.7,25.5,33.6z M27.9,66.8l-3.6,5c-0.6-0.4-1.2-0.6-1.9-0.8V60.1C23.8,62.6,25.6,64.9,27.9,66.8z M15.7,13.4
				h5.2v25.3c-2.4,5.9-2.3,12.5,0,18.3v13.7c-1.9-0.1-3.8,0.7-5.2,2.2V13.4z M9,20.1h5.2v54.6L9,81.4V20.1z M3.6,99.3
				c-2.3-1.8-2.7-5.1-0.9-7.4l13.8-17.7c1.8-2.3,5.1-2.7,7.4-0.9c2.3,1.8,2.7,5.1,0.9,7.4L11,98.4C9.2,100.7,5.9,101.1,3.6,99.3z
				 M95.3,124.7H9v-23.2c1.2-0.4,2.3-1.2,3.2-2.2l2-2.6v22.1c0,0.4,0.3,0.8,0.8,0.8h80.4V124.7z M102,118H15.7V94.8l5.2-6.6v23.9
				c0,0.4,0.3,0.8,0.8,0.8H102V118z M108.7,111.3H22.4V86.2l3.6-4.6c2.1-2.7,1.8-6.6-0.5-8.9l3.7-5c2,1.5,4.1,2.6,6.4,3.4
				c-0.3,0.1-0.5,0.4-0.5,0.7c0,0.4,0.3,0.8,0.8,0.8h51.6l-1.7,2.7H35.7c-0.4,0-0.8,0.3-0.8,0.8c0,0.4,0.3,0.8,0.8,0.8h48.9L83,79.3
				H35.7c-0.4,0-0.8,0.3-0.8,0.8c0,0.4,0.3,0.8,0.8,0.8H82l-1.7,2.7H35.7c-0.4,0-0.8,0.3-0.8,0.8c0,0.4,0.3,0.8,0.8,0.8h43.6
				l-0.7,1.2c0,0,0,0,0,0c0,0,0,0,0,0c-0.1,0.1-0.1,0.2-0.1,0.3c0,0,0,0,0,0L78,106c0,0.3,0.1,0.5,0.3,0.7c0.1,0.1,0.3,0.1,0.4,0.1
				c0.1,0,0.2,0,0.3-0.1L96.5,98c0,0,0,0,0,0c0.1-0.1,0.2-0.1,0.2-0.2c0,0,0,0,0,0c0,0,0,0,0,0l12-18.8V111.3z M95.9,96.3l-4.4-2.8
				l24-37.7l4.4,2.8L95.9,96.3z M120.7,57.3l-15.6-9.9l1.6-2.5l15.6,9.9L120.7,57.3z M127.7,46.3l-4.6,7.3l-15.6-9.9l4.6-7.3
				c0.4-0.7,1.4-0.9,2-0.5l13.1,8.4c0.3,0.2,0.6,0.5,0.6,0.9C128,45.5,127.9,45.9,127.7,46.3z"/>
		</g>
	</g>
</g>
</svg>
