<svg xmlns="http://www.w3.org/2000/svg" xmlns:xlink="http://www.w3.org/1999/xlink" viewBox="0 0 129.5 129.5"><g fill="#231f20"><path d="M70.1 7.6c-.2 0-.4-.1-.5-.2-.3-.3-.3-.8 0-1.1L70.9 5c.3-.3.8-.3 1.1 0s.3.8 0 1.1l-1.3 1.3c-.2.2-.4.2-.6.2zm-4 4c-.2 0-.4-.1-.5-.2-.3-.3-.3-.8 0-1.1L66.9 9c.3-.3.8-.3 1.1 0s.3.8 0 1.1l-1.3 1.3c-.2.2-.4.2-.6.2zm5.3 0c-.2 0-.4-.1-.5-.2l-1.3-1.3c-.3-.3-.3-.8 0-1.1s.8-.3 1.1 0l1.3 1.3c.3.3.3.8 0 1.1-.2.2-.4.2-.6.2zm-4-4c-.2 0-.4-.1-.5-.2l-1.3-1.3c-.3-.3-.3-.8 0-1.1s.8-.3 1.1 0L68 6.3c.3.3.3.8 0 1.1-.2.2-.4.2-.6.2z"/><use xlink:href="#B"/><use xlink:href="#B" x="-4" y="4"/><use xlink:href="#C"/><use xlink:href="#C" x="-4" y="-4"/><use xlink:href="#D"/><use xlink:href="#D" x="-4" y="4"/><path d="M52.2 119.7c-.2 0-.4-.1-.5-.2l-1.3-1.3c-.3-.3-.3-.8 0-1.1s.8-.3 1.1 0l1.3 1.3c.3.3.3.8 0 1.1-.3.2-.4.2-.6.2zm-4-4c-.2 0-.4-.1-.5-.2l-1.3-1.3c-.3-.3-.3-.8 0-1.1s.8-.3 1.1 0l1.3 1.3c.3.3.3.8 0 1.1-.2.2-.4.2-.6.2z"/></g><path fill="#84dbff" d="M4.5 38.2h9.2l9.2-9.2 18.4 18.4 9.2-9.2 9.2 9.2v18.4H4.5z"/><path fill="#e6e9ee" d="M59.7 65.8V47.4l-9.2 9.2-18.4-9.2-9.2 9.2-9.2-9.2-9.2 9.2v9.2z"/><path fill="#231f20" d="M69.8 65.6c0-.1-.1-.2-.2-.2l-3.7-3.7c-.3-.3-.8-.3-1.1 0s-.3.8 0 1.1l2.5 2.5h-6.8V10.6c0-.4-.3-.8-.8-.8H5.2V3.1l2.5 2.5c.1.1.3.1.5.1s.4-.1.5-.2c.3-.3.3-.7 0-1L5 .7C4.9.6 4.7.5 4.5.5s-.4.1-.5.2L.2 4.5c-.3.3-.3.8 0 1.1s.8.3 1.1 0l2.5-2.5v62.8c0 .4.3.8.8.8h62.8l-2.5 2.5c-.3.3-.3.8 0 1.1.1.1.3.2.5.2s.4-.1.5-.2l3.7-3.7c.1-.1.1-.2.2-.2v-.8zm-20-28.1h-7.7v-7.7h7.7v7.7zm1.5-7.7H59v7.7h-7.7v-7.7zm-10.7 7.7h-7.7v-7.7h7.7v7.7zm-7.7-9.2v-7.7h7.7v7.7h-7.7zm-1.5 0h-7.7v-7.7h7.7v7.7zm0 1.5v7.7h-7.7v-7.7h7.7zm-9.3 7.7h-7.7v-7.7h7.7v7.7zm-9.2 0H5.2v-7.7h7.7v7.7zm0 1.5v7.7H5.2V39h7.7zm1.5 0h7.7v7.7h-7.7V39zm9.2 0h7.7v7.7h-7.7V39zm7.8 9.2v7.7h-7.7v-7.7h7.7zm1.5 0h7.7v7.7h-7.7v-7.7zm0-1.5V39h7.7v7.7h-7.7zm9.2-7.7h7.7v7.7h-7.7V39zm9.2 0H59v7.7h-7.7V39zM59 28.3h-7.7v-7.7H59v7.7zm-9.2 0h-7.7v-7.7h7.7v7.7zm-7.7-9.2v-7.7h7.7v7.7h-7.7zm-1.5 0h-7.7v-7.7h7.7v7.7zm-9.2 0h-7.7v-7.7h7.7v7.7zm-9.3 0h-7.7v-7.7h7.7v7.7zm0 1.5v7.7h-7.7v-7.7h7.7zm-9.2 7.7H5.2v-7.7h7.7v7.7zM5.2 48.2h7.7v7.7H5.2v-7.7zm9.2 0h7.7v7.7h-7.7v-7.7zm7.7 9.2v7.7h-7.7v-7.7h7.7zm1.5 0h7.7v7.7h-7.7v-7.7zm9.3 0h7.7v7.7h-7.7v-7.7zm9.2 0h7.7v7.7h-7.7v-7.7zm0-1.5v-7.7h7.7v7.7h-7.7zm9.2-7.7H59v7.7h-7.7v-7.7zM59 19.1h-7.7v-7.7H59v7.7zm-46.1-7.7v7.7H5.2v-7.7h7.7zm-7.7 46h7.7v7.7H5.2v-7.7zm46.1 7.7v-7.7H59v7.7h-7.7z"/><path fill="#ff7058" d="M96 126.3c-16.4 0-29.8-13.4-29.8-29.8 0-10 5.1-19.3 13.3-24.8L94 97.1l3 29.1c-.3 0-.7.1-1 .1z"/><path d="M129.5 83.6C125.8 69.1 112.9 59 98 59c-5.6 0-11.2 1.5-16.1 4.3-.4.2-.5.7-.3 1l15.7 27.6c.1.2.4.4.7.4h.2l30.8-7.8c.3-.1.6-.5.5-.9zm-31.2 7.1l-15-26.5c4.5-2.4 9.6-3.7 14.7-3.7 14 0 26.1 9.3 29.9 22.7l-29.6 7.5zm28.8-2.6c-.2-.1-.4-.1-.6-.1l-30.2 7.6-15.4-27.1c-.1-.2-.3-.3-.5-.4s-.4 0-.6.1c-10 5.8-16.3 16.7-16.3 28.3 0 17.9 14.6 32.5 32.5 32.5 1.1 0 2.2-.1 3.4-.2 16.6-1.7 29.1-15.6 29.1-32.3 0-2.7-.3-5.4-1-8a.78.78 0 0 0-.4-.4zM96 127.5c-17.1 0-31-13.9-31-31 0-10.8 5.7-20.9 15-26.5l15.3 26.8 3.2 30.7H96zm3.9-.3L96.8 97l29.4-7.4c.5 2.3.8 4.6.8 6.9 0 15.7-11.6 28.8-27.1 30.7z" fill="#231f20"/><path fill="#e6e9ee" d="M98.1 98l27.1-6.9c.3 1.8.5 3.6.5 5.4 0 14.7-10.5 26.9-24.7 29.3L98.1 98z"/><circle fill="#ffd05b" cx="26.3" cy="92.7" r="18.6"/><g fill="#231f20"><path d="M12.7 92.7h-1.5v-1l1.5.1v.9zm.3-2.9l-1.5-.3.3-1 1.4.4c0 .3-.1.6-.2.9zm.9-2.7l-1.4-.6c.1-.3.3-.6.5-.9l1.3.7c-.1.3-.3.6-.4.8zm1.4-2.4l-1.2-.9c.2-.3.4-.6.6-.8l1.1 1c-.1.2-.3.4-.5.7zm1.9-2.1l-1-1.1c.3-.2.5-.5.8-.7l.9 1.2c-.2.2-.4.4-.7.6zm2.3-1.7l-.8-1.3c.3-.2.6-.3.9-.5l.7 1.3c-.2.2-.5.4-.8.5zm2.6-1.1l-.5-1.4 1-.3.4 1.5c-.3 0-.6.1-.9.2zm2.8-.6l-.2-1.5c.3 0 .7-.1 1.1-.1v1.5c-.3 0-.6 0-.9.1zm1.4 28.5c-7.9 0-14.5-6.2-15-14l1.5-.1c.5 7.1 6.4 12.6 13.5 12.6 7.5 0 13.6-6.1 13.6-13.6 0-7.1-5.6-13.1-12.7-13.5l.1-1.5c7.9.5 14.1 7.1 14.1 15a15.09 15.09 0 0 1-15.1 15.1zm3.5-7.5h-7a3.01 3.01 0 0 1-3-3c0-.4.3-.8.8-.8s.8.3.8.8a1.54 1.54 0 0 0 1.5 1.5h7a1.54 1.54 0 0 0 1.5-1.5v-2.3a1.54 1.54 0 0 0-1.5-1.5h-7a3.01 3.01 0 0 1-3-3v-2.3a3.01 3.01 0 0 1 3-3h7a3.01 3.01 0 0 1 3 3c0 .4-.3.7-.8.7-.4 0-.8-.3-.8-.7a1.54 1.54 0 0 0-1.5-1.5h-7a1.54 1.54 0 0 0-1.5 1.5v2.3a1.54 1.54 0 0 0 1.5 1.5h7a3.01 3.01 0 0 1 3 3v2.3c-.1 1.6-1.4 3-3 3z"/><path d="M26.3 102.7c-.4 0-.8-.3-.8-.8V83.3c0-.4.3-.8.8-.8.4 0 .8.3.8.8V102c-.1.4-.4.7-.8.7zm92.6-54.5h-7c-.4 0-.8-.3-.8-.8V12.1c0-.4.3-.8.8-.8h7c.4 0 .8.3.8.8v35.4c-.1.3-.4.7-.8.7zm-6.2-1.5h5.5V12.8h-5.5v33.9zm-5.4 1.5h-7c-.4 0-.8-.3-.8-.8V23.6c0-.4.3-.8.8-.8h7c.4 0 .8.3.8.8v23.9c-.1.3-.4.7-.8.7zm-6.3-1.5h5.5V24.3H101v22.4zm-5.4 1.5h-7c-.4 0-.8-.3-.8-.8V30.7c0-.4.3-.8.8-.8h7c.4 0 .8.3.8.8v16.8c0 .3-.4.7-.8.7zm-6.2-1.5h5.5V31.4h-5.5v15.3zM84 48.2h-7c-.4 0-.8-.3-.8-.8V18.2c0-.4.3-.8.8-.8h7c.4 0 .8.3.8.8v29.2c-.1.4-.4.8-.8.8zm-6.3-1.5h5.5V19h-5.5v27.7zM54.2 82.1c-2.4 0-4.4-2-4.4-4.4s2-4.4 4.4-4.4 4.4 2 4.4 4.4c0 2.5-2 4.4-4.4 4.4zm0-7.3c-1.6 0-2.9 1.3-2.9 2.9s1.3 2.9 2.9 2.9 2.9-1.3 2.9-2.9-1.3-2.9-2.9-2.9z"/></g><circle fill="#ff7058" cx="94.7" cy="9.5" r="2.6"/><circle fill="#ffd05b" cx="69.1" cy="53" r="1.9"/><circle fill="#e6e9ee" cx="36.8" cy="3.1" r="1.9"/><g fill="#84dbff"><circle cx="26.3" cy="120.9" r="2.9"/><circle cx="125.6" cy="126.1" r="2.1"/></g><defs ><path id="B" d="M120.3 58.3c-.2 0-.4-.1-.5-.2-.3-.3-.3-.8 0-1.1l1.3-1.3c.3-.3.8-.3 1.1 0s.3.8 0 1.1l-1.3 1.3c-.3.1-.4.2-.6.2z"/><path id="C" d="M121.5 62.3c-.2 0-.4-.1-.5-.2l-1.3-1.3c-.3-.3-.3-.8 0-1.1s.8-.3 1.1 0l1.3 1.3c.3.3.3.8 0 1.1-.2.1-.4.2-.6.2z"/><path id="D" d="M50.9 115.7c-.2 0-.4-.1-.5-.2-.3-.3-.3-.8 0-1.1l1.3-1.3c.3-.3.8-.3 1.1 0s.3.8 0 1.1l-1.3 1.3c-.2.2-.4.2-.6.2z"/></defs></svg>