<?xml version="1.0" encoding="UTF-8" standalone="no"?>
<!-- Created with Inkscape (http://www.inkscape.org/) -->

<svg
   xmlns:dc="http://purl.org/dc/elements/1.1/"
   xmlns:cc="http://creativecommons.org/ns#"
   xmlns:rdf="http://www.w3.org/1999/02/22-rdf-syntax-ns#"
   xmlns:svg="http://www.w3.org/2000/svg"
   xmlns="http://www.w3.org/2000/svg"
   xmlns:sodipodi="http://sodipodi.sourceforge.net/DTD/sodipodi-0.dtd"
   xmlns:inkscape="http://www.inkscape.org/namespaces/inkscape"
   width="46mm"
   height="46mm"
   viewBox="0 0 46 46"
   version="1.1"
   id="svg69052"
   inkscape:version="0.92.3 (2405546, 2018-03-11)"
   sodipodi:docname="Precision.svg">
  <defs
     id="defs69046">
    <clipPath
       clipPathUnits="userSpaceOnUse"
       id="clipPath23530">
      <path
         d="M 0,13509.354 H 1152.441 V 0 H 0 Z"
         id="path23528"
         inkscape:connector-curvature="0" />
    </clipPath>
    <clipPath
       clipPathUnits="userSpaceOnUse"
       id="clipPath6928">
      <path
         d="M 0,13509.354 H 1152.441 V 0 H 0 Z"
         id="path6926"
         inkscape:connector-curvature="0" />
    </clipPath>
    <clipPath
       clipPathUnits="userSpaceOnUse"
       id="clipPath57588">
      <path
         d="M 0,13509.354 H 1152.441 V 0 H 0 Z"
         id="path57586"
         inkscape:connector-curvature="0" />
    </clipPath>
  </defs>
  <sodipodi:namedview
     id="base"
     pagecolor="#ffffff"
     bordercolor="#666666"
     borderopacity="1.0"
     inkscape:pageopacity="0.0"
     inkscape:pageshadow="2"
     inkscape:zoom="1.979899"
     inkscape:cx="111.36611"
     inkscape:cy="157.0764"
     inkscape:document-units="mm"
     inkscape:current-layer="layer1"
     showgrid="false"
     inkscape:window-width="1920"
     inkscape:window-height="1001"
     inkscape:window-x="-9"
     inkscape:window-y="-9"
     inkscape:window-maximized="1" />
  <metadata
     id="metadata69049">
    <rdf:RDF>
      <cc:Work
         rdf:about="">
        <dc:format>image/svg+xml</dc:format>
        <dc:type
           rdf:resource="http://purl.org/dc/dcmitype/StillImage" />
        <dc:title></dc:title>
      </cc:Work>
    </rdf:RDF>
  </metadata>
  <g
     inkscape:label="Layer 1"
     inkscape:groupmode="layer"
     id="layer1"
     transform="translate(0,-251)">
    <g
       transform="matrix(0.35277777,0,0,-0.35277777,-104.13823,1889.6133)"
       id="g57582">
      <g
         id="g57584"
         clip-path="url(#clipPath57588)">
        <g
           id="g57590"
           transform="translate(425.6066,4578.1343)">
          <path
             d="M 0,0 C 0,-23.74 -12.93,-44.47 -32.14,-55.52 -41.52,-60.91 -52.4,-64 -64,-64 c -3.54,0 -7.01,0.29 -10.4,0.85 -30.4,4.96 -53.6,31.35 -53.6,63.15 0,35.35 28.65,64 64,64 C -28.66,64 0,35.35 0,0"
             style="fill:#f37c5a;fill-opacity:1;fill-rule:nonzero;stroke:none"
             id="path57592"
             inkscape:connector-curvature="0" />
        </g>
        <g
           id="g57594"
           transform="translate(307.1042,4597.498)" />
        <g
           id="g57598"
           transform="translate(303.8383,4545.4165)" />
        <g
           id="g57602"
           transform="translate(320.7885,4555.748)" />
        <g
           id="g57606"
           transform="translate(299.8043,4593.8237)" />
        <g
           id="g57610"
           transform="translate(296.5846,4591.3149)" />
        <g
           id="g57614"
           transform="translate(301.7312,4592.8843)" />
        <g
           id="g57618"
           transform="translate(311.5366,4548.7344)">
          <path
             d="m 0,0 c -0.899,-0.24 -1.822,0.294 -2.062,1.193 -0.24,0.899 0.294,1.822 1.193,2.062 C 0.03,3.495 0.953,2.96 1.193,2.062 1.433,1.163 0.899,0.24 0,0 M -0.926,3.467 C -1.94,3.197 -2.545,2.151 -2.275,1.136 -2.004,0.122 -0.958,-0.484 0.057,-0.213 1.072,0.058 1.677,1.104 1.406,2.119 1.135,3.133 0.089,3.738 -0.926,3.467"
             style="fill:#ffffff;fill-opacity:1;fill-rule:nonzero;stroke:none"
             id="path57620"
             inkscape:connector-curvature="0" />
        </g>
        <g
           id="g57622"
           transform="translate(304.3187,4588.7031)" />
        <g
           id="g57626"
           transform="translate(296.129,4581.4238)" />
        <g
           id="g57630"
           transform="translate(302.1275,4577.9316)" />
        <g
           id="g57634"
           transform="translate(306.8569,4579.1938)" />
        <g
           id="g57638"
           transform="translate(311.5863,4580.4565)">
          <path
             d="M 0,0 -1.677,-0.448 C -2.104,-0.562 -2.358,-1 -2.244,-1.428 l 0.448,-1.676 c 0.114,-0.428 0.553,-0.682 0.98,-0.568 l 1.677,0.448 c 0.427,0.114 0.681,0.553 0.567,0.98 L 0.98,-0.567 C 0.866,-0.14 0.427,0.114 0,0"
             style="fill:#da664b;fill-opacity:1;fill-rule:nonzero;stroke:none"
             id="path57640"
             inkscape:connector-curvature="0" />
        </g>
        <g
           id="g57642"
           transform="translate(298.6672,4571.9146)" />
        <g
           id="g57646"
           transform="translate(303.3966,4573.1772)" />
        <g
           id="g57650"
           transform="translate(312.8554,4575.7021)">
          <path
             d="M 0,0 -1.677,-0.448 C -2.104,-0.562 -2.358,-1 -2.244,-1.428 l 0.448,-1.676 c 0.114,-0.428 0.553,-0.682 0.98,-0.568 l 1.677,0.448 c 0.427,0.114 0.681,0.553 0.567,0.98 L 0.98,-0.567 C 0.866,-0.14 0.427,0.114 0,0"
             style="fill:#fdda7f;fill-opacity:1;fill-rule:nonzero;stroke:none"
             id="path57652"
             inkscape:connector-curvature="0" />
        </g>
        <g
           id="g57654"
           transform="translate(304.6657,4568.4229)" />
        <g
           id="g57658"
           transform="translate(309.3951,4569.6851)">
          <path
             d="M 0,0 -1.677,-0.448 C -2.104,-0.562 -2.358,-1 -2.244,-1.428 l 0.448,-1.676 c 0.114,-0.428 0.553,-0.682 0.98,-0.567 l 1.677,0.447 c 0.427,0.114 0.681,0.553 0.567,0.98 L 0.98,-0.567 C 0.866,-0.14 0.427,0.114 0,0"
             style="fill:#dad9d8;fill-opacity:1;fill-rule:nonzero;stroke:none"
             id="path57660"
             inkscape:connector-curvature="0" />
        </g>
        <g
           id="g57662"
           transform="translate(314.1245,4570.9478)">
          <path
             d="M 0,0 -1.677,-0.448 C -2.104,-0.562 -2.358,-1 -2.244,-1.428 l 0.448,-1.677 c 0.114,-0.427 0.553,-0.681 0.98,-0.567 l 1.677,0.448 c 0.427,0.114 0.681,0.553 0.567,0.98 L 0.98,-0.567 C 0.866,-0.14 0.427,0.114 0,0"
             style="fill:#f2f2f2;fill-opacity:1;fill-rule:nonzero;stroke:none"
             id="path57664"
             inkscape:connector-curvature="0" />
        </g>
        <g
           id="g57666"
           transform="translate(313.5054,4588.1597)">
          <path
             d="m 0,0 0.927,-3.474 0.252,0.377 -0.773,2.895 z"
             style="fill:#7ccedc;fill-opacity:1;fill-rule:nonzero;stroke:none"
             id="path57668"
             inkscape:connector-curvature="0" />
        </g>
        <g
           id="g57670"
           transform="translate(291.1096,4578.46)" />
        <g
           id="g57674"
           transform="translate(289.5868,4584.1646)" />
        <g
           id="g57678"
           transform="translate(292.2913,4574.0327)" />
        <g
           id="g57682"
           transform="translate(417.7409,4613.1167)">
          <path
             d="m 0,0 c 0,2.175 -1.763,3.938 -3.938,3.938 h -102.908 c -2.175,0 -3.938,-1.763 -3.938,-3.938 V -66.808 H 0 Z"
             style="fill:#25313b;fill-opacity:1;fill-rule:nonzero;stroke:none"
             id="path57684"
             inkscape:connector-curvature="0" />
        </g>
        <path
           d="m 311.426,4612.585 h 101.846 v -61.808 H 311.426 Z"
           style="fill:#464e58;fill-opacity:1;fill-rule:nonzero;stroke:none"
           id="path57686"
           inkscape:connector-curvature="0" />
        <g
           id="g57688"
           transform="translate(306.9568,4546.3086)">
          <path
             d="m 0,0 v -8.937 c 0,-2.174 1.763,-3.938 3.939,-3.938 h 102.907 c 2.175,0 3.938,1.764 3.938,3.938 V 0 Z"
             style="fill:#f2f2f2;fill-opacity:1;fill-rule:nonzero;stroke:none"
             id="path57690"
             inkscape:connector-curvature="0" />
        </g>
        <g
           id="g57692"
           transform="translate(365.1413,4539.8711)">
          <path
             d="m 0,0 c 0,-1.542 -1.25,-2.792 -2.792,-2.792 -1.543,0 -2.793,1.25 -2.793,2.792 0,1.542 1.25,2.792 2.793,2.792 C -1.25,2.792 0,1.542 0,0"
             style="fill:#464e58;fill-opacity:1;fill-rule:nonzero;stroke:none"
             id="path57694"
             inkscape:connector-curvature="0" />
        </g>
        <g
           id="g57696"
           transform="translate(377.5731,4520.0669)">
          <path
             d="m 0,0 h -30.448 l 3.155,13.367 h 24.138 z"
             style="fill:#dad9d8;fill-opacity:1;fill-rule:nonzero;stroke:none"
             id="path57698"
             inkscape:connector-curvature="0" />
        </g>
        <path
           d="m 382.446,4515.562 h -40.195 v 4.505 h 40.195 z"
           style="fill:#ffffff;fill-opacity:1;fill-rule:nonzero;stroke:none"
           id="path57700"
           inkscape:connector-curvature="0" />
        <g
           id="g57702"
           transform="translate(394.2653,4612.5854)">
          <path
             d="M 0,0 H -3.574 L 0,-61.808 Z"
             style="fill:#3d444c;fill-opacity:1;fill-rule:nonzero;stroke:none"
             id="path57704"
             inkscape:connector-curvature="0" />
        </g>
        <g
           id="g57706"
           transform="translate(378.6502,4612.5854)">
          <path
             d="M 0,0 H -3.574 L 0,-61.808 Z"
             style="fill:#3d444c;fill-opacity:1;fill-rule:nonzero;stroke:none"
             id="path57708"
             inkscape:connector-curvature="0" />
        </g>
        <path
           d="m 408.586,4550.777 h -14.321 v 90.848 h 14.321 z"
           style="fill:#f7bb52;fill-opacity:1;fill-rule:nonzero;stroke:none"
           id="path57710"
           inkscape:connector-curvature="0" />
        <g
           id="g57712"
           transform="translate(403.1266,4633.7568)">
          <path
             d="m 0,0 c 0,-0.939 -0.762,-1.701 -1.701,-1.701 -0.939,0 -1.701,0.762 -1.701,1.701 0,0.939 0.762,1.701 1.701,1.701 C -0.762,1.701 0,0.939 0,0"
             style="fill:#ffffff;fill-opacity:1;fill-rule:nonzero;stroke:none"
             id="path57714"
             inkscape:connector-curvature="0" />
        </g>
        <path
           d="m 399.284,4626.421 h -5.019 v 0.87 h 5.019 z"
           style="fill:#ffffff;fill-opacity:1;fill-rule:nonzero;stroke:none"
           id="path57716"
           inkscape:connector-curvature="0" />
        <path
           d="m 397.684,4622.177 h -3.419 v 0.87 h 3.419 z"
           style="fill:#ffffff;fill-opacity:1;fill-rule:nonzero;stroke:none"
           id="path57718"
           inkscape:connector-curvature="0" />
        <path
           d="m 399.284,4617.933 h -5.019 v 0.87 h 5.019 z"
           style="fill:#ffffff;fill-opacity:1;fill-rule:nonzero;stroke:none"
           id="path57720"
           inkscape:connector-curvature="0" />
        <path
           d="m 397.684,4613.688 h -3.419 v 0.87 h 3.419 z"
           style="fill:#ffffff;fill-opacity:1;fill-rule:nonzero;stroke:none"
           id="path57722"
           inkscape:connector-curvature="0" />
        <path
           d="m 399.284,4609.444 h -5.019 v 0.87 h 5.019 z"
           style="fill:#ffffff;fill-opacity:1;fill-rule:nonzero;stroke:none"
           id="path57724"
           inkscape:connector-curvature="0" />
        <path
           d="m 397.684,4605.199 h -3.419 v 0.87 h 3.419 z"
           style="fill:#ffffff;fill-opacity:1;fill-rule:nonzero;stroke:none"
           id="path57726"
           inkscape:connector-curvature="0" />
        <path
           d="m 399.284,4600.955 h -5.019 v 0.87 h 5.019 z"
           style="fill:#ffffff;fill-opacity:1;fill-rule:nonzero;stroke:none"
           id="path57728"
           inkscape:connector-curvature="0" />
        <path
           d="m 397.684,4596.71 h -3.419 v 0.87 h 3.419 z"
           style="fill:#ffffff;fill-opacity:1;fill-rule:nonzero;stroke:none"
           id="path57730"
           inkscape:connector-curvature="0" />
        <path
           d="m 399.284,4592.466 h -5.019 v 0.87 h 5.019 z"
           style="fill:#ffffff;fill-opacity:1;fill-rule:nonzero;stroke:none"
           id="path57732"
           inkscape:connector-curvature="0" />
        <path
           d="m 397.684,4588.222 h -3.419 v 0.87 h 3.419 z"
           style="fill:#ffffff;fill-opacity:1;fill-rule:nonzero;stroke:none"
           id="path57734"
           inkscape:connector-curvature="0" />
        <path
           d="m 399.284,4583.978 h -5.019 v 0.87 h 5.019 z"
           style="fill:#ffffff;fill-opacity:1;fill-rule:nonzero;stroke:none"
           id="path57736"
           inkscape:connector-curvature="0" />
        <path
           d="m 397.684,4579.733 h -3.419 v 0.87 h 3.419 z"
           style="fill:#ffffff;fill-opacity:1;fill-rule:nonzero;stroke:none"
           id="path57738"
           inkscape:connector-curvature="0" />
        <path
           d="m 399.284,4575.489 h -5.019 v 0.87 h 5.019 z"
           style="fill:#ffffff;fill-opacity:1;fill-rule:nonzero;stroke:none"
           id="path57740"
           inkscape:connector-curvature="0" />
        <path
           d="m 397.684,4571.244 h -3.419 v 0.87 h 3.419 z"
           style="fill:#ffffff;fill-opacity:1;fill-rule:nonzero;stroke:none"
           id="path57742"
           inkscape:connector-curvature="0" />
        <path
           d="m 399.284,4567 h -5.019 v 0.87 h 5.019 z"
           style="fill:#ffffff;fill-opacity:1;fill-rule:nonzero;stroke:none"
           id="path57744"
           inkscape:connector-curvature="0" />
        <path
           d="m 397.684,4562.755 h -3.419 v 0.87 h 3.419 z"
           style="fill:#ffffff;fill-opacity:1;fill-rule:nonzero;stroke:none"
           id="path57746"
           inkscape:connector-curvature="0" />
        <path
           d="m 399.284,4558.511 h -5.019 v 0.87 h 5.019 z"
           style="fill:#ffffff;fill-opacity:1;fill-rule:nonzero;stroke:none"
           id="path57748"
           inkscape:connector-curvature="0" />
        <path
           d="m 397.684,4554.267 h -3.419 v 0.87 h 3.419 z"
           style="fill:#ffffff;fill-opacity:1;fill-rule:nonzero;stroke:none"
           id="path57750"
           inkscape:connector-curvature="0" />
        <path
           d="m 382.446,4550.777 h -3.796 v 68.512 h 3.796 z"
           style="fill:#f7bb52;fill-opacity:1;fill-rule:nonzero;stroke:none"
           id="path57752"
           inkscape:connector-curvature="0" />
        <path
           d="m 386.243,4550.777 h -3.796 v 68.512 h 3.796 z"
           style="fill:#fdda7f;fill-opacity:1;fill-rule:nonzero;stroke:none"
           id="path57754"
           inkscape:connector-curvature="0" />
        <g
           id="g57756"
           transform="translate(382.4464,4627.9927)">
          <path
             d="M 0,0 -1.16,-2.659 H 1.16 Z"
             style="fill:#464e58;fill-opacity:1;fill-rule:nonzero;stroke:none"
             id="path57758"
             inkscape:connector-curvature="0" />
        </g>
        <g
           id="g57760"
           transform="translate(386.2425,4619.2896)">
          <path
             d="m 0,0 -2.636,6.044 h -2.32 L -7.592,0 Z"
             style="fill:#f2f2f2;fill-opacity:1;fill-rule:nonzero;stroke:none"
             id="path57762"
             inkscape:connector-curvature="0" />
        </g>
        <g
           id="g57764"
           transform="translate(362.8927,4606.2725)">
          <path
             d="m 0,0 c 0,-2.747 -2.231,-4.965 -4.965,-4.965 h -37.036 c -2.747,0 -4.966,2.218 -4.966,4.965 0,2.65 2.087,4.821 4.714,4.941 -0.744,1.643 -1.164,3.466 -1.164,5.397 0,7.221 5.853,13.073 13.085,13.073 5.745,0 10.627,-3.706 12.378,-8.863 1.379,0.816 2.998,1.284 4.725,1.284 5.121,0 9.283,-4.163 9.283,-9.284 0,-0.575 -0.048,-1.127 -0.156,-1.667 C -1.775,4.461 0,2.435 0,0"
             style="fill:#f2f2f2;fill-opacity:1;fill-rule:nonzero;stroke:none"
             id="path57766"
             inkscape:connector-curvature="0" />
        </g>
        <g
           id="g57768"
           transform="translate(332.3321,4589.603)">
          <path
             d="m 0,0 c -3.035,0 -5.489,2.454 -5.489,5.489 0,3.018 2.454,5.472 5.489,5.472 3.035,0 5.489,-2.454 5.489,-5.472 C 5.489,2.454 3.035,0 0,0 M 10.663,4.112 V 6.749 L 8.358,7.23 C 8.291,7.495 8.225,7.777 8.142,8.042 L 9.9,9.618 8.59,11.89 6.368,11.16 C 6.169,11.375 5.97,11.575 5.754,11.757 l 0.747,2.239 -2.289,1.31 -1.542,-1.742 c -0.282,0.1 -0.564,0.183 -0.846,0.233 l -0.481,2.354 h -2.636 l -0.481,-2.338 c -0.282,-0.066 -0.548,-0.132 -0.83,-0.215 l -1.575,1.774 -2.288,-1.327 0.746,-2.255 C -5.937,11.591 -6.152,11.392 -6.335,11.177 L -8.573,11.923 -9.9,9.651 -8.126,8.059 C -8.209,7.777 -8.291,7.512 -8.358,7.23 L -10.663,6.749 V 4.112 l 2.339,-0.481 c 0.066,-0.265 0.149,-0.547 0.232,-0.812 l -1.791,-1.592 1.31,-2.272 2.305,0.763 c 0.182,-0.199 0.381,-0.398 0.58,-0.58 l -0.763,-2.305 2.289,-1.311 1.625,1.825 c 0.249,-0.083 0.514,-0.15 0.763,-0.2 l 0.481,-2.337 h 2.636 l 0.481,2.354 c 0.265,0.05 0.514,0.133 0.779,0.199 l 1.592,-1.791 2.289,1.327 -0.746,2.289 c 0.199,0.165 0.381,0.348 0.563,0.546 L 8.573,-1.012 9.9,1.26 8.109,2.869 c 0.083,0.248 0.149,0.514 0.216,0.762 z"
             style="fill:#f7bb52;fill-opacity:1;fill-rule:nonzero;stroke:none"
             id="path57770"
             inkscape:connector-curvature="0" />
        </g>
        <g
           id="g57772"
           transform="translate(338.5069,4564.7383)">
          <path
             d="m 0,0 c -0.848,0 -1.536,0.687 -1.536,1.536 0,0.848 0.688,1.536 1.536,1.536 0.848,0 1.536,-0.688 1.536,-1.536 C 1.536,0.687 0.848,0 0,0"
             style="fill:#ffffff;fill-opacity:1;fill-rule:nonzero;stroke:none"
             id="path57774"
             inkscape:connector-curvature="0" />
        </g>
        <g
           id="g57776"
           transform="translate(333.8279,4557.9634)">
          <path
             d="m 0,0 h -1.375 c -0.114,0 -0.207,0.092 -0.207,0.207 v 0.902 c 0,0.115 0.093,0.207 0.207,0.207 H 0 c 0.114,0 0.207,-0.092 0.207,-0.207 V 0.207 C 0.207,0.092 0.114,0 0,0"
             style="fill:#ffffff;fill-opacity:1;fill-rule:nonzero;stroke:none"
             id="path57778"
             inkscape:connector-curvature="0" />
        </g>
        <path
           d="m 333.405,4559.877 h -0.529 v -0.598 h 0.529 z"
           style="fill:#ffffff;fill-opacity:1;fill-rule:nonzero;stroke:none"
           id="path57780"
           inkscape:connector-curvature="0" />
        <g
           id="g57782"
           transform="translate(317.7155,4555.4263)">
          <path
             d="M 0,0 V 2.695 L 0.206,2.867 V 4.24 h -1.995 v 6.472 l 3.815,9.562 V 12.463 L 1.906,12.188 V 6.695 L 1.648,5.901 V 4.333 C 1.648,4.333 1.739,1.423 0,0"
             style="fill:#dad9d8;fill-opacity:1;fill-rule:nonzero;stroke:none"
             id="path57784"
             inkscape:connector-curvature="0" />
        </g>
        <g
           id="g57786"
           transform="translate(325.7523,4564.3472)">
          <path
             d="M 0,0 H 14.291 V 2.025 H 3.729 L 0,11.353 Z"
             style="fill:#dad9d8;fill-opacity:1;fill-rule:nonzero;stroke:none"
             id="path57788"
             inkscape:connector-curvature="0" />
        </g>
        <g
           id="g57790"
           transform="translate(323.5742,4555.4263)">
          <path
             d="m 0,0 v 2.777 l -0.136,0.3 V 4.451 H 16.469 V 6.343 H 2.014 V 5.901 H -1.62 V 4.125 c 0,0 0.055,-2.424 1.62,-4.125"
             style="fill:#dad9d8;fill-opacity:1;fill-rule:nonzero;stroke:none"
             id="path57792"
             inkscape:connector-curvature="0" />
        </g>
        <path
           d="m 374.744,4564.791 h -58.818 v -3.463 h 58.818 z"
           style="fill:#f2f2f2;fill-opacity:1;fill-rule:nonzero;stroke:none"
           id="path57794"
           inkscape:connector-curvature="0" />
        <path
           d="m 320.587,4563.418 h -0.217 v 1.372 h 0.217 z"
           style="fill:#7ccedc;fill-opacity:1;fill-rule:nonzero;stroke:none"
           id="path57796"
           inkscape:connector-curvature="0" />
        <path
           d="m 323.558,4563.418 h -0.217 v 1.372 h 0.217 z"
           style="fill:#7ccedc;fill-opacity:1;fill-rule:nonzero;stroke:none"
           id="path57798"
           inkscape:connector-curvature="0" />
        <path
           d="m 326.528,4563.418 h -0.217 v 1.372 h 0.217 z"
           style="fill:#7ccedc;fill-opacity:1;fill-rule:nonzero;stroke:none"
           id="path57800"
           inkscape:connector-curvature="0" />
        <path
           d="m 329.499,4563.418 h -0.217 v 1.372 h 0.217 z"
           style="fill:#7ccedc;fill-opacity:1;fill-rule:nonzero;stroke:none"
           id="path57802"
           inkscape:connector-curvature="0" />
        <path
           d="m 332.469,4563.418 h -0.217 v 1.372 h 0.217 z"
           style="fill:#7ccedc;fill-opacity:1;fill-rule:nonzero;stroke:none"
           id="path57804"
           inkscape:connector-curvature="0" />
        <path
           d="m 335.44,4563.418 h -0.217 v 1.372 h 0.217 z"
           style="fill:#7ccedc;fill-opacity:1;fill-rule:nonzero;stroke:none"
           id="path57806"
           inkscape:connector-curvature="0" />
        <path
           d="m 338.41,4563.418 h -0.217 v 1.372 h 0.217 z"
           style="fill:#7ccedc;fill-opacity:1;fill-rule:nonzero;stroke:none"
           id="path57808"
           inkscape:connector-curvature="0" />
        <path
           d="m 341.381,4563.418 h -0.217 v 1.372 h 0.217 z"
           style="fill:#7ccedc;fill-opacity:1;fill-rule:nonzero;stroke:none"
           id="path57810"
           inkscape:connector-curvature="0" />
        <path
           d="m 344.351,4563.418 h -0.217 v 1.372 h 0.217 z"
           style="fill:#7ccedc;fill-opacity:1;fill-rule:nonzero;stroke:none"
           id="path57812"
           inkscape:connector-curvature="0" />
        <path
           d="m 347.322,4563.418 h -0.217 v 1.372 h 0.217 z"
           style="fill:#7ccedc;fill-opacity:1;fill-rule:nonzero;stroke:none"
           id="path57814"
           inkscape:connector-curvature="0" />
        <path
           d="m 350.292,4563.418 h -0.217 v 1.372 h 0.217 z"
           style="fill:#7ccedc;fill-opacity:1;fill-rule:nonzero;stroke:none"
           id="path57816"
           inkscape:connector-curvature="0" />
        <path
           d="m 353.263,4563.418 h -0.217 v 1.372 h 0.217 z"
           style="fill:#7ccedc;fill-opacity:1;fill-rule:nonzero;stroke:none"
           id="path57818"
           inkscape:connector-curvature="0" />
        <path
           d="m 356.233,4563.418 h -0.217 v 1.372 h 0.217 z"
           style="fill:#7ccedc;fill-opacity:1;fill-rule:nonzero;stroke:none"
           id="path57820"
           inkscape:connector-curvature="0" />
        <path
           d="m 359.203,4563.418 h -0.217 v 1.372 h 0.217 z"
           style="fill:#7ccedc;fill-opacity:1;fill-rule:nonzero;stroke:none"
           id="path57822"
           inkscape:connector-curvature="0" />
        <path
           d="m 362.174,4563.418 h -0.217 v 1.372 h 0.217 z"
           style="fill:#7ccedc;fill-opacity:1;fill-rule:nonzero;stroke:none"
           id="path57824"
           inkscape:connector-curvature="0" />
        <path
           d="m 365.144,4563.418 h -0.217 v 1.372 h 0.217 z"
           style="fill:#7ccedc;fill-opacity:1;fill-rule:nonzero;stroke:none"
           id="path57826"
           inkscape:connector-curvature="0" />
        <path
           d="m 368.115,4563.418 h -0.217 v 1.372 h 0.217 z"
           style="fill:#7ccedc;fill-opacity:1;fill-rule:nonzero;stroke:none"
           id="path57828"
           inkscape:connector-curvature="0" />
        <path
           d="m 371.085,4563.418 h -0.217 v 1.372 h 0.217 z"
           style="fill:#7ccedc;fill-opacity:1;fill-rule:nonzero;stroke:none"
           id="path57830"
           inkscape:connector-curvature="0" />
      </g>
    </g>
  </g>
</svg>
