<?xml version="1.0" encoding="UTF-8" standalone="no"?>
<!-- Created with Inkscape (http://www.inkscape.org/) -->

<svg
   xmlns:dc="http://purl.org/dc/elements/1.1/"
   xmlns:cc="http://creativecommons.org/ns#"
   xmlns:rdf="http://www.w3.org/1999/02/22-rdf-syntax-ns#"
   xmlns:svg="http://www.w3.org/2000/svg"
   xmlns="http://www.w3.org/2000/svg"
   xmlns:sodipodi="http://sodipodi.sourceforge.net/DTD/sodipodi-0.dtd"
   xmlns:inkscape="http://www.inkscape.org/namespaces/inkscape"
   width="32mm"
   height="26mm"
   viewBox="0 0 32 26"
   version="1.1"
   id="svg2695"
   inkscape:version="0.92.3 (2405546, 2018-03-11)"
   sodipodi:docname="problem.svg">
  <defs
     id="defs2689" />
  <sodipodi:namedview
     id="base"
     pagecolor="#ffffff"
     bordercolor="#666666"
     borderopacity="1.0"
     inkscape:pageopacity="0.0"
     inkscape:pageshadow="2"
     inkscape:zoom="4"
     inkscape:cx="68.173487"
     inkscape:cy="29.28867"
     inkscape:document-units="mm"
     inkscape:current-layer="layer1"
     showgrid="false"
     inkscape:pagecheckerboard="true"
     inkscape:window-width="1920"
     inkscape:window-height="1001"
     inkscape:window-x="-9"
     inkscape:window-y="-9"
     inkscape:window-maximized="1" />
  <metadata
     id="metadata2692">
    <rdf:RDF>
      <cc:Work
         rdf:about="">
        <dc:format>image/svg+xml</dc:format>
        <dc:type
           rdf:resource="http://purl.org/dc/dcmitype/StillImage" />
        <dc:title></dc:title>
      </cc:Work>
    </rdf:RDF>
  </metadata>
  <g
     inkscape:label="Layer 1"
     inkscape:groupmode="layer"
     id="layer1"
     transform="translate(0,-271)">
    <g
       id="g2660"
       transform="matrix(0.35277777,0,0,-0.35277777,-42.09691,296.78482)">
      <path
         d="M 141.618,56.8891 C 139.486,54.332 129.454,44.357 123.979,45.332 l -2.306,1.343 c -3.806,4.1648 -0.918,7.4559 3.695,9.6109 1.624,0.7582 11.139,4.32 13.335,5.261 0.254,0.109 0.512,0.2191 0.766,0.3293 0.563,-1.0782 1.586,-3.9063 2.149,-4.9871"
         style="fill:#ededed;fill-opacity:1;fill-rule:nonzero;stroke:none;stroke-width:0.1"
         id="path700"
         inkscape:connector-curvature="0" />
      <path
         d="m 145.43,43.727 -8.017,-15.3891 c -9.7,7.5152 -17.516,14.9141 -17.5,21.8301 h 10.852 c 3.888,-4.2641 8.873,-6.2059 14.665,-6.441"
         style="fill:#ededed;fill-opacity:1;fill-rule:nonzero;stroke:none;stroke-width:0.1"
         id="path702"
         inkscape:connector-curvature="0" />
      <path
         d="m 171.603,12.2309 9.111,2.3941 c -1.157,7.557 -3.497,15.9309 -6.51,24.7691 l -9.111,-2.3953 6.51,-24.7679"
         style="fill:#ededed;fill-opacity:1;fill-rule:nonzero;stroke:none;stroke-width:0.1"
         id="path704"
         inkscape:connector-curvature="0" />
      <path
         d="m 191.673,21.9441 c -1.254,-1.65 -2.548,-3.175 -3.875,-4.575 l -0.013,-0.0062 C 182.927,12.2602 177.553,8.80117 171.876,6.93281 l -2.851,4.79919 -1.572,2.6539 c 0.826,0.693 1.664,1.3661 2.522,2.0262 0.68,0.5149 1.367,1.0168 2.066,1.5051 5.268,3.743 11.149,6.8457 17.44,9.5316 l 2.192,-5.5047"
         style="fill:#ededed;fill-opacity:1;fill-rule:nonzero;stroke:none;stroke-width:0.1"
         id="path706"
         inkscape:connector-curvature="0" />
      <path
         d="m 171.745,21.15 c -0.419,-4.3852 0,-10.0379 0.108,-14.98086 0.054,-2.26797 0.032,-4.38516 -0.161,-6.1582025 h -33.381 c -0.205,1.9128925 -0.215,4.2019525 -0.14,6.6628925 0.107,4.64297 0.462,9.84417 0.118,14.00317 -0.086,1.1398 -0.226,2.2039 -0.44,3.1492 -0.57,2.5258 -0.882,5.6 -1.408,10.2418 l -0.011,0.0539 c -0.183,1.548 -0.387,3.289 -0.634,5.2453 4.213,1.7519 9.748,4.159 10.65,5.0297 1.784,-0.6989 6.717,-0.8821 8.555,-1.086 0.914,0.0969 2.612,0.2039 4.299,0.3551 1.687,0.161 3.364,0.3871 4.256,0.7309 0.903,-0.8707 6.438,-3.2778 10.65,-5.0297 -0.988,-7.8133 -1.289,-12.1551 -2.052,-15.541 -0.183,-0.816 -0.312,-1.7192 -0.409,-2.6762"
         style="fill:#ededed;fill-opacity:1;fill-rule:nonzero;stroke:none;stroke-width:0.1"
         id="path708"
         inkscape:connector-curvature="0" />
      <path
         d="m 153.799,34.5172 -0.847,4.0238 2.05,0.0559 2.05,-0.0559 -0.847,-4.0238 h -2.406"
         style="fill:#3c3c3b;fill-opacity:1;fill-rule:nonzero;stroke:none;stroke-width:0.1"
         id="path710"
         inkscape:connector-curvature="0" />
      <path
         d="m 201.771,29.0969 0.732,0.5 0.975,0.9 0.944,2.6312 c 0.132,0.368 0.47,0.6039 0.838,0.6239 l 0.306,0.8531 c 0.176,0.491 0.716,0.7461 1.207,0.5699 l 0.018,-0.007 c 0.119,-0.0418 0.224,-0.1078 0.313,-0.1879 0.291,0.1527 0.649,0.164 0.961,-0.002 l 0.018,-0.0101 c 0.499,-0.266 0.688,-0.8871 0.421,-1.386 l -1.892,-3.5422 -0.02,-0.0296 -0.061,-0.0911 -0.06,-0.0773 -0.068,-0.0656 -0.086,-0.0742 -0.026,-0.0219 -3.305,-2.2821 c -0.465,-0.321 -1.103,-0.2039 -1.425,0.261 l -0.012,0.0172 c -0.321,0.466 -0.243,1.0988 0.222,1.4207"
         style="fill:#f5c08c;fill-opacity:1;fill-rule:nonzero;stroke:none;stroke-width:0.1"
         id="path712"
         inkscape:connector-curvature="0" />
      <path
         d="m 193.656,28.918 3.051,0.9648 c 0.195,0.0422 0.381,0.1152 0.552,0.2184 l 3.136,1.8808 c 0.484,0.293 1.114,0.1379 1.407,-0.3461 l 0.011,-0.0168 c 0.293,-0.4839 0.139,-1.114 -0.345,-1.407 l -2.016,-1.2223 c 0,0 -6.08,-0.1328 -5.796,-0.0718"
         style="fill:#f5c08c;fill-opacity:1;fill-rule:nonzero;stroke:none;stroke-width:0.1"
         id="path714"
         inkscape:connector-curvature="0" />
      <path
         d="m 193.439,28.843 c 2.519,0.9468 8.435,0.309 8.435,0.309 l 3.418,1.521 2.369,2.9188 c 0.357,0.4391 1.002,0.5062 1.441,0.1492 l 0.016,-0.0129 c 0.44,-0.3562 0.506,-1.0011 0.15,-1.441 l -2.915,-3.409 c 0,0 -2.517,-1.714 -3.35,-2.1781 -0.156,-0.0879 -0.392,-0.1719 -0.626,-0.2719 -0.969,-0.4172 -3.709,-1.5082 -6.197,-1.7441 l -3.235,-0.8578 -1.655,3.6297 2.149,1.3871"
         style="fill:#ffcf9f;fill-opacity:1;fill-rule:nonzero;stroke:none;stroke-width:0.1"
         id="path716"
         inkscape:connector-curvature="0" />
      <path
         d="m 194.564,23.077 -2.134,5.4421 -2.889,-1.1339 2.135,-5.4411 2.888,1.1329"
         style="fill:#dadada;fill-opacity:1;fill-rule:nonzero;stroke:none;stroke-width:0.1"
         id="path718"
         inkscape:connector-curvature="0" />
      <path
         d="m 193.053,23.0559 c -0.266,-0.1039 -0.566,0.0269 -0.67,0.2921 -0.104,0.2661 0.027,0.5661 0.293,0.6711 0.265,0.1039 0.565,-0.0269 0.67,-0.2929 0.104,-0.266 -0.027,-0.566 -0.293,-0.6703"
         style="fill:#ffffff;fill-opacity:1;fill-rule:nonzero;stroke:none;stroke-width:0.1"
         id="path720"
         inkscape:connector-curvature="0" />
      <path
         d="m 153.799,34.5172 -1.993,-20.9371 3.196,-2.827 3.195,2.827 -1.992,20.9371 h -2.406"
         style="fill:#575756;fill-opacity:1;fill-rule:nonzero;stroke:none;stroke-width:0.1"
         id="path722"
         inkscape:connector-curvature="0" />
      <path
         d="m 149.162,49.0352 0.037,-1.7762 V 47.25 l 0.027,-1.8941 v -0.009 l 0.018,-0.8469 0.11,-6.082 3.605,0.073 1.949,0.0371 h 0.009 l 0.154,0.009 1.785,0.0359 3.706,0.0731 0.164,5.8641 0.018,0.7457 0.054,1.8851 v 0.009 l 0.046,1.557 -11.682,0.3282"
         style="fill:#f2c799;fill-opacity:1;fill-rule:nonzero;stroke:none;stroke-width:0.1"
         id="path724"
         inkscape:connector-curvature="0" />
      <path
         d="m 149.373,35.0691 c -2.032,2.8668 -3.253,5.8649 -3.51,9.018 l 3.354,1.8668 c 0.617,-2.9027 2.695,-5.6859 5.785,-7.3711 l -5.629,-3.5137"
         style="fill:#dadada;fill-opacity:1;fill-rule:nonzero;stroke:none;stroke-width:0.1"
         id="path726"
         inkscape:connector-curvature="0" />
      <path
         d="m 160.631,35.0691 c 2.032,2.8668 3.252,5.8649 3.51,9.018 l -3.355,1.8668 c -0.617,-2.9027 -2.694,-5.6859 -5.784,-7.3711 l 5.629,-3.5137"
         style="fill:#dadada;fill-opacity:1;fill-rule:nonzero;stroke:none;stroke-width:0.1"
         id="path728"
         inkscape:connector-curvature="0" />
      <path
         d="m 157.408,0 h -19.033 v 0.0109375 h 19.001 v 0 L 157.408,0"
         style="fill:#f4f4f4;fill-opacity:1;fill-rule:nonzero;stroke:none;stroke-width:0.1"
         id="path730"
         inkscape:connector-curvature="0" />
      <path
         d="M 157.376,0.0109375 H 138.375 C 138.3,0.751953 138.235,5.40586 138.192,6.46992 v 0.04297 l -0.021,0.16094 c 0.074,3.19219 0.265,6.64807 0.265,9.84807 0,1.4543 -0.039,2.8562 -0.147,4.1551 -0.086,1.1398 -0.226,2.2039 -0.44,3.1492 -0.57,2.5258 -0.882,5.6 -1.408,10.2418 0.44,-2.7192 3.396,-13.595 5.029,-17.4532 0.323,-0.7519 0.699,-1.4828 1.14,-2.1929 1.859,-3.009 4.739,-5.43792 8.157,-6.01799 -3.117,0.44101 -6.223,0.87109 -9.34,1.30117 4.203,-3.85899 10.522,-7.8461 15.949,-9.6941425"
         style="fill:#e2e2e2;fill-opacity:1;fill-rule:nonzero;stroke:none;stroke-width:0.1"
         id="path732"
         inkscape:connector-curvature="0" />
      <path
         d="m 171.853,6.175 c -0.006,0.275 -0.013,0.55313 -0.021,0.83281 l 0.044,-0.075 c 5.677,1.86836 11.051,5.32739 15.909,10.43009 v 0 C 182.927,12.2602 177.553,8.80117 171.876,6.93281 V 6.47109 C 171.868,6.39688 171.861,6.29688 171.853,6.175"
         style="fill:#f4f4f4;fill-opacity:1;fill-rule:nonzero;stroke:none;stroke-width:0.1"
         id="path734"
         inkscape:connector-curvature="0" />
      <path
         d="m 171.569,17.584 c 0.017,1.25 0.069,2.4488 0.176,3.566 0.001,0.0078 0.002,0.016 0.003,0.0238 0.115,-1.0359 0.216,-2.1238 0.293,-3.2566 -0.158,-0.1102 -0.315,-0.2211 -0.472,-0.3332"
         style="fill:#e2e2e2;fill-opacity:1;fill-rule:nonzero;stroke:none;stroke-width:0.1"
         id="path736"
         inkscape:connector-curvature="0" />
      <path
         d="m 171.876,6.93281 -0.044,0.075 c -0.096,3.45629 -0.309,7.19809 -0.263,10.57619 0.157,0.1121 0.314,0.223 0.472,0.3332 v 0 c 0.073,-1.0434 0.126,-2.132 0.152,-3.2473 0.735,-1.6609 2.054,-2.3289 3.729,-2.3289 3.186,-0.0012 7.662,2.4168 11.863,5.0219 -4.858,-5.1027 -10.232,-8.56173 -15.909,-10.43009"
         style="fill:#e2e2e2;fill-opacity:1;fill-rule:nonzero;stroke:none;stroke-width:0.1"
         id="path738"
         inkscape:connector-curvature="0" />
      <path
         d="m 171.533,0.0308594 h -8.958 c 3.373,1.1421906 5.341,7.9710906 6.45,11.7011406 0.442,1.4789 0.746,3.0629 0.95,4.6801 0.858,6.7789 -0.059,14.0609 -0.218,16.1328 0.119,-1.048 1.315,-5.3238 1.991,-11.3711 -10e-4,-0.0078 -0.002,-0.016 -0.003,-0.0238 -0.107,-1.1172 -0.159,-2.316 -0.176,-3.566 -0.046,-3.3781 0.167,-7.1199 0.263,-10.57619 C 171.84,6.72813 171.847,6.45 171.853,6.175 171.765,4.83398 171.66,0.848047 171.533,0.0308594"
         style="fill:#e2e2e2;fill-opacity:1;fill-rule:nonzero;stroke:none;stroke-width:0.1"
         id="path740"
         inkscape:connector-curvature="0" />
      <path
         d="m 149.738,70.6301 -0.021,-0.0653 c -0.157,-0.5457 -0.514,-1.0226 -0.943,-1.3968 -0.45,-0.391 -0.975,-0.6789 -1.507,-0.9442 -0.776,-0.3879 -1.596,-0.7269 -2.465,-0.7859 -0.322,-0.0199 -0.652,0 -0.971,0.0762 0.069,0.1129 0.134,0.2257 0.202,0.3398 0.399,0.659 0.81,1.3449 1.397,1.8262 0.289,0.1578 0.577,0.3258 0.858,0.5008 0.625,0.3742 1.229,0.7793 1.813,1.2152 0.195,0.1437 0.395,0.2949 0.621,0.384 0.23,0.0859 0.501,0.1 0.711,-0.0242 0.36,-0.209 0.411,-0.7207 0.305,-1.1258"
         style="fill:#f2c799;fill-opacity:1;fill-rule:nonzero;stroke:none;stroke-width:0.1"
         id="path742"
         inkscape:connector-curvature="0" />
      <path
         d="m 149.079,72.6551 c 0.046,-0.5973 0.093,-1.202 0.299,-1.7653 0.206,-0.5617 0.595,-1.0847 1.147,-1.316 0.553,-0.2308 3.238,0.2321 3.573,0.7282 -1.524,0.1191 -3.956,0.5468 -5.019,2.3531"
         style="fill:#3c3c3b;fill-opacity:1;fill-rule:nonzero;stroke:none;stroke-width:0.1"
         id="path744"
         inkscape:connector-curvature="0" />
      <path
         d="m 155.302,68.898 c -5.132,-0.0121 -9.204,-3.414 -8.784,-9.496 0.048,-0.704 0.132,-1.3801 0.275,-2.0879 -1.146,0.6398 -2.14,-0.4961 -1.727,-2.2243 0.291,-1.2179 0.895,-2.8519 1.573,-3.0937 0.812,-0.2902 1.055,0.216 1.102,0.232 0.373,-1.7562 0.529,-3.325 1.162,-4.2531 0.748,-1.0988 1.325,-1.9262 1.862,-2.548 1.216,-1.409 2.22,-1.754 4.524,-1.754 h 0.013 0.014 c 2.304,0 3.308,0.345 4.524,1.754 0.536,0.6218 1.113,1.4492 1.862,2.548 0.632,0.9281 0.789,2.4969 1.162,4.2531 0.046,-0.016 0.29,-0.5222 1.102,-0.232 0.677,0.2418 1.282,1.8758 1.573,3.0937 0.412,1.7282 -0.581,2.8641 -1.728,2.2243 0.143,0.7078 0.227,1.3839 0.276,2.0879 0.42,6.082 -3.652,9.4839 -8.785,9.496"
         style="fill:#ffd2a1;fill-opacity:1;fill-rule:nonzero;stroke:none;stroke-width:0.1"
         id="path746"
         inkscape:connector-curvature="0" />
      <path
         d="m 147.92,67.0871 c -1.957,-2.3101 -2.561,-4.8711 -1.761,-9.593 0.774,-0.4293 1.186,-1.0019 1.495,-3.348 0.561,-0.1551 0.804,-0.1902 1.315,-0.3609 -3.146,12.5046 1.704,12.7558 3.035,13.0226 1.083,0.2184 5.514,0.2184 6.597,0 1.331,-0.2668 6.18,-0.518 3.035,-13.0226 0.511,0.1707 0.754,0.2058 1.315,0.3609 0.309,2.3461 0.72,2.9187 1.495,3.348 0.799,4.7219 -0.054,7.093 -1.762,9.593 -2.37,3.4699 -11.265,4.1277 -14.764,0"
         style="fill:#3c3c3b;fill-opacity:1;fill-rule:nonzero;stroke:none;stroke-width:0.1"
         id="path748"
         inkscape:connector-curvature="0" />
      <path
         d="m 157,71.3211 c -0.148,-0.575 -0.358,-0.8422 -0.462,-0.9813 0.849,0.2153 2.557,1.4704 3.201,1.5071 -1.591,-4.3969 -5.895,-9.0949 -9.863,-9.8828 0.419,0.4988 0.837,0.9988 1.256,1.4988 -2.078,-0.6141 -4.157,-1.2277 -6.235,-1.8418 0.706,1.4277 1.412,2.8559 2.119,4.284 -0.748,-0.2711 -1.496,-0.5422 -2.245,-0.8133 1.986,3.548 5.724,5.6371 9.327,5.2102 -0.192,0.1769 -0.543,0.6101 -0.799,0.8449 0.877,-0.0867 1.159,-0.018 2.081,-0.6098 0.466,0.4129 1.072,0.575 1.62,0.784"
         style="fill:#3c3c3b;fill-opacity:1;fill-rule:nonzero;stroke:none;stroke-width:0.1"
         id="path750"
         inkscape:connector-curvature="0" />
      <path
         d="m 156.212,65.116 c 1.212,-0.9672 2.615,-1.6012 4.067,-1.839 -0.289,0.3949 -0.577,0.791 -0.865,1.1871 1.804,-0.3 3.608,-0.6012 5.412,-0.9012 -0.307,1.5582 -0.99,3.0121 -1.95,4.148 0.407,-0.014 0.815,-0.0281 1.223,-0.0418 -2.059,2.2418 -5.566,2.8649 -8.006,1.2309 -0.573,-0.384 -0.966,-1.148 -0.984,-1.9219 -0.018,-0.789 0.546,-1.4179 1.103,-1.8621"
         style="fill:#3c3c3b;fill-opacity:1;fill-rule:nonzero;stroke:none;stroke-width:0.1"
         id="path752"
         inkscape:connector-curvature="0" />
      <path
         d="m 154.753,68.7359 c -0.131,-0.4089 -0.659,-0.491 -1.088,-0.5218 -1.263,-0.086 -2.52,-0.3192 -3.728,-0.7 -0.724,-0.227 -1.476,-0.5391 -1.895,-1.1711 -0.195,-0.291 -0.305,-0.6352 -0.401,-0.9739 -0.282,-1.0031 -0.481,-2.0363 -0.882,-2.9972 -0.398,-0.9649 -1.033,-1.8739 -1.96,-2.3547 -0.924,-0.4801 -2.173,-0.4223 -2.897,0.3226 -0.608,0.625 -0.742,1.593 -0.56,2.4403 0.182,0.8519 0.635,1.6168 1.078,2.3621 0.47,0.7887 0.944,1.5816 1.411,2.3719 0.069,0.1129 0.134,0.2257 0.202,0.3398 0.399,0.659 0.81,1.3449 1.397,1.8262 0.093,0.0789 0.193,0.1508 0.296,0.216 0.178,0.1129 0.367,0.209 0.562,0.2848 0.684,0.264 1.456,0.316 2.197,0.316 0.412,0 0.821,0.034 1.232,0.0679 1.37,0.1133 2.733,0.2372 4.027,-0.7757 0.216,-0.168 0.535,-0.1539 0.745,-0.3289 0.209,-0.175 0.346,-0.4633 0.264,-0.7243"
         style="fill:#ffd2a1;fill-opacity:1;fill-rule:nonzero;stroke:none;stroke-width:0.1"
         id="path754"
         inkscape:connector-curvature="0" />
      <path
         d="m 144.192,59.1211 -2.574,-2.2313 -3.002,4.5973 2.544,1.7899 3.032,-4.1559"
         style="fill:#dadada;fill-opacity:1;fill-rule:nonzero;stroke:none;stroke-width:0.1"
         id="path756"
         inkscape:connector-curvature="0" />
      <path
         d="m 150.562,67.0398 c 1.256,-0.7097 2.969,-0.4867 4.001,0.5223 -1.982,0.482 -3.965,0.9641 -5.947,1.4457 0.556,-0.7449 1.136,-1.5109 1.946,-1.968"
         style="fill:#3c3c3b;fill-opacity:1;fill-rule:nonzero;stroke:none;stroke-width:0.1"
         id="path758"
         inkscape:connector-curvature="0" />
      <path
         d="m 157.064,67.825 c 1.09,0.4148 2.242,0.6641 3.405,0.7359 -0.564,-0.2019 -0.816,-0.8847 -1.344,-1.1687 -0.325,-0.1754 -0.724,-0.1754 -1.079,-0.0731 -0.355,0.1028 -0.675,0.2989 -0.982,0.5059"
         style="fill:#3c3c3b;fill-opacity:1;fill-rule:nonzero;stroke:none;stroke-width:0.1"
         id="path760"
         inkscape:connector-curvature="0" />
      <path
         d="m 199.615,38.65 v -4.923 h -4.922 v 4.923 z m -4.69,2.2762 c -0.186,0.5566 -0.28,1.1609 -0.28,1.9968 0,7.1059 5.573,7.7551 5.573,15.8372 0,2.3207 -0.927,3.2039 -2.553,3.2039 -1.626,0 -2.555,-0.8832 -2.555,-3.2039 v -3.5301 h -4.83 v 3.2039 c 0,5.2019 2.555,8.1738 7.525,8.1738 4.968,0 7.523,-2.9719 7.523,-8.1738 0,-8.4512 -6.037,-9.7531 -6.037,-15.6969 0,-0.6043 0.046,-1.207 0.184,-1.8109 h -4.55"
         style="fill:#cf4518;fill-opacity:1;fill-rule:nonzero;stroke:none;stroke-width:0.1"
         id="path762"
         inkscape:connector-curvature="0" />
      <path
         d="m 199.615,38.65 v -4.923 h -4.922 v 4.923 z m -4.69,2.2762 c -0.186,0.5566 -0.28,1.1609 -0.28,1.9968 0,7.1059 5.573,7.7551 5.573,15.8372 0,2.3207 -0.927,3.2039 -2.553,3.2039 -1.626,0 -2.555,-0.8832 -2.555,-3.2039 v -3.5301 h -4.83 v 3.2039 c 0,5.2019 2.555,8.1738 7.525,8.1738 4.968,0 7.523,-2.9719 7.523,-8.1738 0,-8.4512 -6.037,-9.7531 -6.037,-15.6969 0,-0.6043 0.046,-1.207 0.184,-1.8109 h -4.55"
         style="fill:#cf4518;fill-opacity:1;fill-rule:nonzero;stroke:none;stroke-width:0.1"
         id="path764"
         inkscape:connector-curvature="0" />
    </g>
  </g>
</svg>
