<?xml version="1.0" encoding="UTF-8" standalone="no"?>
<!-- Created with Inkscape (http://www.inkscape.org/) -->

<svg
   xmlns:dc="http://purl.org/dc/elements/1.1/"
   xmlns:cc="http://creativecommons.org/ns#"
   xmlns:rdf="http://www.w3.org/1999/02/22-rdf-syntax-ns#"
   xmlns:svg="http://www.w3.org/2000/svg"
   xmlns="http://www.w3.org/2000/svg"
   xmlns:sodipodi="http://sodipodi.sourceforge.net/DTD/sodipodi-0.dtd"
   xmlns:inkscape="http://www.inkscape.org/namespaces/inkscape"
   width="46mm"
   height="46mm"
   viewBox="0 0 46 46"
   version="1.1"
   id="svg69052"
   inkscape:version="0.92.3 (2405546, 2018-03-11)"
   sodipodi:docname="Productivity.svg">
  <defs
     id="defs69046">
    <clipPath
       clipPathUnits="userSpaceOnUse"
       id="clipPath23530">
      <path
         d="M 0,13509.354 H 1152.441 V 0 H 0 Z"
         id="path23528"
         inkscape:connector-curvature="0" />
    </clipPath>
  </defs>
  <sodipodi:namedview
     id="base"
     pagecolor="#ffffff"
     bordercolor="#666666"
     borderopacity="1.0"
     inkscape:pageopacity="0.0"
     inkscape:pageshadow="2"
     inkscape:zoom="0.98994949"
     inkscape:cx="-229.14272"
     inkscape:cy="164.71109"
     inkscape:document-units="mm"
     inkscape:current-layer="layer1"
     showgrid="false"
     inkscape:window-width="1920"
     inkscape:window-height="1001"
     inkscape:window-x="-9"
     inkscape:window-y="-9"
     inkscape:window-maximized="1" />
  <metadata
     id="metadata69049">
    <rdf:RDF>
      <cc:Work
         rdf:about="">
        <dc:format>image/svg+xml</dc:format>
        <dc:type
           rdf:resource="http://purl.org/dc/dcmitype/StillImage" />
        <dc:title></dc:title>
      </cc:Work>
    </rdf:RDF>
  </metadata>
  <g
     inkscape:label="Layer 1"
     inkscape:groupmode="layer"
     id="layer1"
     transform="translate(0,-251)">
    <g
       transform="matrix(0.35277777,0,0,-0.35277777,-335.73403,4137.4262)"
       id="g23524">
      <g
         id="g23526"
         clip-path="url(#clipPath23530)">
        <g
           id="g23532"
           transform="translate(1081.1781,10951.337)">
          <path
             d="m 0,0 c 0,-35.347 -28.654,-64 -64,-64 -35.346,0 -64,28.653 -64,64 0,35.347 28.654,64 64,64 C -28.654,64 0,35.347 0,0"
             style="fill:#25313b;fill-opacity:1;fill-rule:nonzero;stroke:none"
             id="path23534"
             inkscape:connector-curvature="0" />
        </g>
        <g
           id="g23536"
           transform="translate(1033.981,10967.948)">
          <path
             d="m 0,0 v -71.912 h -71.437 v 93.448 h 49.9 z"
             style="fill:#fdda7f;fill-opacity:1;fill-rule:nonzero;stroke:none"
             id="path23538"
             inkscape:connector-curvature="0" />
        </g>
        <g
           id="g23540"
           transform="translate(1033.981,10967.948)">
          <path
             d="M 0,0 H -21.537 V 21.536 Z"
             style="fill:#f37c5a;fill-opacity:1;fill-rule:nonzero;stroke:none"
             id="path23542"
             inkscape:connector-curvature="0" />
        </g>
        <g
           id="g23544"
           transform="translate(1011.934,10917.644)">
          <path
             d="m 0,0 c -4.225,-4.226 -10.062,-6.839 -16.509,-6.839 v -5.677 c 8.002,0 15.258,3.255 20.514,8.511 z"
             style="fill:#ffffff;fill-opacity:1;fill-rule:nonzero;stroke:none"
             id="path23546"
             inkscape:connector-curvature="0" />
        </g>
        <g
           id="g23548"
           transform="translate(1018.7722,10934.152)">
          <path
             d="m 0,0 h 5.677 c 0,8.002 -3.255,15.258 -8.51,20.514 L -6.838,16.509 C -2.613,12.283 0,6.446 0,0"
             style="fill:#f2f2f2;fill-opacity:1;fill-rule:nonzero;stroke:none"
             id="path23550"
             inkscape:connector-curvature="0" />
        </g>
        <g
           id="g23552"
           transform="translate(1015.3654,10934.152)">
          <path
             d="m 0,0 c 0,-5.497 -2.237,-10.482 -5.847,-14.093 l 2.416,-2.416 C 0.794,-12.284 3.407,-6.447 3.407,0 Z"
             style="fill:#f2f2f2;fill-opacity:1;fill-rule:nonzero;stroke:none"
             id="path23554"
             inkscape:connector-curvature="0" />
        </g>
        <g
           id="g23556"
           transform="translate(995.4253,10914.212)">
          <path
             d="m 0,0 v -3.407 c 6.447,0 12.284,2.613 16.509,6.839 L 14.093,5.848 C 10.482,2.236 5.497,0 0,0"
             style="fill:#dad9d8;fill-opacity:1;fill-rule:nonzero;stroke:none"
             id="path23558"
             inkscape:connector-curvature="0" />
        </g>
        <g
           id="g23560"
           transform="translate(995.4214,10923.294)">
          <path
             d="m 0,0 v -12.491 c -12.888,0 -23.346,10.458 -23.346,23.346 h 12.49 C -10.856,4.871 -5.984,0 0,0"
             style="fill:#da664b;fill-opacity:1;fill-rule:nonzero;stroke:none"
             id="path23562"
             inkscape:connector-curvature="0" />
        </g>
        <g
           id="g23564"
           transform="translate(987.7566,10941.825)">
          <path
             d="m 0,0 c -1.964,-1.964 -3.191,-4.678 -3.191,-7.676 h -12.491 c 0,6.45 2.612,12.286 6.848,16.511 l 2.407,-2.419 z"
             style="fill:#f37c5a;fill-opacity:1;fill-rule:nonzero;stroke:none"
             id="path23566"
             inkscape:connector-curvature="0" />
        </g>
        <g
           id="g23568"
           transform="translate(984.5698,10934.152)">
          <path
             d="m 0,0 c 0,-5.986 4.87,-10.856 10.855,-10.856 h 10e-4 V 0 Z"
             style="fill:#f2f2f2;fill-opacity:1;fill-rule:nonzero;stroke:none"
             id="path23570"
             inkscape:connector-curvature="0" />
        </g>
        <g
           id="g23572"
           transform="translate(987.7526,10941.825)">
          <path
             d="M 0,0 C -1.966,-1.966 -3.183,-4.68 -3.183,-7.673 H 7.673 Z"
             style="fill:#ffffff;fill-opacity:1;fill-rule:nonzero;stroke:none"
             id="path23574"
             inkscape:connector-curvature="0" />
        </g>
        <g
           id="g23576"
           transform="translate(1009.5134,10920.058)">
          <path
             d="M 0,0 C -3.611,-3.611 -8.596,-5.849 -14.092,-5.849 V 14.092 L -6.416,6.427 Z"
             style="fill:#f2f2f2;fill-opacity:1;fill-rule:nonzero;stroke:none"
             id="path23578"
             inkscape:connector-curvature="0" />
        </g>
        <g
           id="g23580"
           transform="translate(1018.7678,10934.149)">
          <path
             d="m 0,0 h -23.346 l 7.676,7.676 6.416,6.416 2.418,2.419 C -2.612,12.286 0,6.45 0,0"
             style="fill:#dad9d8;fill-opacity:1;fill-rule:nonzero;stroke:none"
             id="path23582"
             inkscape:connector-curvature="0" />
        </g>
        <g
           id="g23584"
           transform="translate(1011.9319,10950.66)">
          <path
             d="m 0,0 -2.419,-2.419 -6.415,-6.416 -7.676,-7.676 -7.665,7.676 -6.427,6.416 L -33.01,0 c 4.224,4.224 10.061,6.836 16.5,6.836 C -10.061,6.836 -4.224,4.224 0,0"
             style="fill:#f2f2f2;fill-opacity:1;fill-rule:nonzero;stroke:none"
             id="path23586"
             inkscape:connector-curvature="0" />
        </g>
        <g
           id="g23588"
           transform="translate(1015.3613,10934.149)">
          <path
             d="M 0,0 C 0,-5.496 -2.237,-10.481 -5.848,-14.092 L -12.264,-7.665 -19.94,0 Z"
             style="fill:#ffffff;fill-opacity:1;fill-rule:nonzero;stroke:none"
             id="path23590"
             inkscape:connector-curvature="0" />
        </g>
        <g
           id="g23592"
           transform="translate(996.3069,10940.489)">
          <path
             d="m 0,0 c 0,-0.489 -0.396,-0.886 -0.885,-0.886 -0.489,0 -0.886,0.397 -0.886,0.886 0,0.488 0.397,0.885 0.886,0.885 C -0.396,0.885 0,0.488 0,0"
             style="fill:#dad9d8;fill-opacity:1;fill-rule:nonzero;stroke:none"
             id="path23594"
             inkscape:connector-curvature="0" />
        </g>
        <g
           id="g23596"
           transform="translate(996.3069,10944.787)">
          <path
             d="m 0,0 c 0,-0.489 -0.396,-0.886 -0.885,-0.886 -0.489,0 -0.886,0.397 -0.886,0.886 0,0.489 0.397,0.886 0.886,0.886 C -0.396,0.886 0,0.489 0,0"
             style="fill:#dad9d8;fill-opacity:1;fill-rule:nonzero;stroke:none"
             id="path23598"
             inkscape:connector-curvature="0" />
        </g>
        <g
           id="g23600"
           transform="translate(996.3069,10949.085)">
          <path
             d="m 0,0 c 0,-0.488 -0.396,-0.885 -0.885,-0.885 -0.489,0 -0.886,0.397 -0.886,0.885 0,0.489 0.397,0.886 0.886,0.886 C -0.396,0.886 0,0.489 0,0"
             style="fill:#dad9d8;fill-opacity:1;fill-rule:nonzero;stroke:none"
             id="path23602"
             inkscape:connector-curvature="0" />
        </g>
        <g
           id="g23604"
           transform="translate(996.3069,10953.384)">
          <path
             d="m 0,0 c 0,-0.489 -0.396,-0.886 -0.885,-0.886 -0.489,0 -0.886,0.397 -0.886,0.886 0,0.489 0.397,0.885 0.886,0.885 C -0.396,0.885 0,0.489 0,0"
             style="fill:#dad9d8;fill-opacity:1;fill-rule:nonzero;stroke:none"
             id="path23606"
             inkscape:connector-curvature="0" />
        </g>
        <path
           d="m 998.26,10980.084 h -26.185 v 2.861 h 26.185 z"
           style="fill:#ffffff;fill-opacity:1;fill-rule:nonzero;stroke:none"
           id="path23608"
           inkscape:connector-curvature="0" />
        <path
           d="m 1002.467,10972.402 h -30.392 v 2.862 h 30.392 z"
           style="fill:#ffffff;fill-opacity:1;fill-rule:nonzero;stroke:none"
           id="path23610"
           inkscape:connector-curvature="0" />
        <path
           d="m 1007.35,10964.721 h -35.275 v 2.862 h 35.275 z"
           style="fill:#ffffff;fill-opacity:1;fill-rule:nonzero;stroke:none"
           id="path23612"
           inkscape:connector-curvature="0" />
        <g
           id="g23614"
           transform="translate(1034.4838,11002.657)">
          <path
             d="m 0,0 v -5.588 h 1.144 l 3.439,1.828 c -0.155,0.289 -0.251,0.614 -0.251,0.966 0,0.352 0.096,0.677 0.251,0.966 L 1.144,0 Z"
             style="fill:#f37c5a;fill-opacity:1;fill-rule:nonzero;stroke:none"
             id="path23616"
             inkscape:connector-curvature="0" />
        </g>
        <g
           id="g23618"
           transform="translate(1039.0663,10998.897)">
          <path
             d="M 0,0 1.818,0.966 0,1.932 C -0.154,1.643 -0.25,1.317 -0.25,0.966 -0.25,0.614 -0.154,0.289 0,0"
             style="fill:#464e58;fill-opacity:1;fill-rule:nonzero;stroke:none"
             id="path23620"
             inkscape:connector-curvature="0" />
        </g>
        <g
           id="g23622"
           transform="translate(980.4355,10999.862)">
          <path
             d="M 0,0 C 0,-1.543 1.251,-2.794 2.794,-2.794 H 3.833 V 2.794 H 2.794 C 1.251,2.794 0,1.543 0,0"
             style="fill:#dad9d8;fill-opacity:1;fill-rule:nonzero;stroke:none"
             id="path23624"
             inkscape:connector-curvature="0" />
        </g>
        <path
           d="m 985.915,11002.656 h -1.647 v -5.588 h 1.647 z"
           style="fill:#ffffff;fill-opacity:1;fill-rule:nonzero;stroke:none"
           id="path23626"
           inkscape:connector-curvature="0" />
        <g
           id="g23628"
           transform="translate(985.9147,10997.068)">
          <path
             d="m 0,0 h 49.712 c -0.806,0.601 -0.806,1.201 0,1.802 H 0 Z"
             style="fill:#f7bb52;fill-opacity:1;fill-rule:nonzero;stroke:none"
             id="path23630"
             inkscape:connector-curvature="0" />
        </g>
        <g
           id="g23632"
           transform="translate(985.9147,11000.854)">
          <path
             d="m 0,0 h 49.712 c -0.806,0.601 -0.806,1.201 0,1.802 H 0 Z"
             style="fill:#f7bb52;fill-opacity:1;fill-rule:nonzero;stroke:none"
             id="path23634"
             inkscape:connector-curvature="0" />
        </g>
        <g
           id="g23636"
           transform="translate(985.9147,10998.87)">
          <path
             d="m 0,0 h 49.712 c -0.806,0.661 -0.806,1.322 0,1.984 H 0 Z"
             style="fill:#fdda7f;fill-opacity:1;fill-rule:nonzero;stroke:none"
             id="path23638"
             inkscape:connector-curvature="0" />
        </g>
        <g
           id="g23640"
           transform="translate(1072.2008,10965.076)">
          <path
             d="m 0,0 c 3.841,3.841 6.216,9.147 6.216,15.008 0,11.721 -9.502,21.223 -21.224,21.223 V 15.008 Z"
             style="fill:#f37c5a;fill-opacity:1;fill-rule:nonzero;stroke:none"
             id="path23642"
             inkscape:connector-curvature="0" />
        </g>
        <g
           id="g23644"
           transform="translate(1057.1931,10980.084)">
          <path
             d="m 0,0 v 21.224 c -11.722,0 -21.224,-9.502 -21.224,-21.224 0,-11.722 9.502,-21.224 21.224,-21.224 5.861,0 11.167,2.375 15.008,6.216 z"
             style="fill:#7ccedc;fill-opacity:1;fill-rule:nonzero;stroke:none"
             id="path23646"
             inkscape:connector-curvature="0" />
        </g>
        <path
           d="m 1044.742,10910.726 h -4.92 v 34.062 h 4.92 z"
           style="fill:#7ccedc;fill-opacity:1;fill-rule:nonzero;stroke:none"
           id="path23648"
           inkscape:connector-curvature="0" />
        <path
           d="m 1055.33,10910.726 h -4.92 v 25.611 h 4.92 z"
           style="fill:#7ccedc;fill-opacity:1;fill-rule:nonzero;stroke:none"
           id="path23650"
           inkscape:connector-curvature="0" />
        <path
           d="m 1065.918,10910.726 h -4.92 v 19.258 h 4.92 z"
           style="fill:#7ccedc;fill-opacity:1;fill-rule:nonzero;stroke:none"
           id="path23652"
           inkscape:connector-curvature="0" />
        <path
           d="m 1076.506,10910.726 h -4.92 v 14.48 h 4.92 z"
           style="fill:#7ccedc;fill-opacity:1;fill-rule:nonzero;stroke:none"
           id="path23654"
           inkscape:connector-curvature="0" />
      </g>
    </g>
  </g>
</svg>
