<?xml version="1.0" encoding="utf-8"?>
<!-- Generator: Adobe Illustrator 18.0.0, SVG Export Plug-In . SVG Version: 6.00 Build 0)  -->
<!DOCTYPE svg PUBLIC "-//W3C//DTD SVG 1.1//EN" "http://www.w3.org/Graphics/SVG/1.1/DTD/svg11.dtd">
<svg version="1.1" id="Layer_1" xmlns="http://www.w3.org/2000/svg" xmlns:xlink="http://www.w3.org/1999/xlink" x="0px" y="0px"
	 viewBox="0 0 129.5 129.5" enable-background="new 0 0 129.5 129.5" xml:space="preserve">
<g>
	<g>
		<g>
			<g>
				<path fill="#231F20" d="M120.7,6.4c-0.2,0-0.4-0.1-0.5-0.2c-0.3-0.3-0.3-0.8,0-1.1l1.4-1.4c0.3-0.3,0.8-0.3,1.1,0
					c0.3,0.3,0.3,0.8,0,1.1l-1.4,1.4C121.1,6.4,120.9,6.4,120.7,6.4z"/>
			</g>
			<g>
				<path fill="#231F20" d="M116.3,10.8c-0.2,0-0.4-0.1-0.5-0.2c-0.3-0.3-0.3-0.8,0-1.1l1.4-1.4c0.3-0.3,0.8-0.3,1.1,0
					c0.3,0.3,0.3,0.8,0,1.1l-1.4,1.4C116.7,10.8,116.5,10.8,116.3,10.8z"/>
			</g>
			<g>
				<path fill="#231F20" d="M122.1,10.8c-0.2,0-0.4-0.1-0.5-0.2l-1.4-1.4c-0.3-0.3-0.3-0.8,0-1.1c0.3-0.3,0.8-0.3,1.1,0l1.4,1.4
					c0.3,0.3,0.3,0.8,0,1.1C122.5,10.8,122.3,10.8,122.1,10.8z"/>
			</g>
			<g>
				<path fill="#231F20" d="M117.7,6.4c-0.2,0-0.4-0.1-0.5-0.2l-1.4-1.4c-0.3-0.3-0.3-0.8,0-1.1c0.3-0.3,0.8-0.3,1.1,0l1.4,1.4
					c0.3,0.3,0.3,0.8,0,1.1C118.1,6.4,117.9,6.4,117.7,6.4z"/>
			</g>
		</g>
		<g>
			<g>
				<path fill="#231F20" d="M9.4,122c-0.2,0-0.4-0.1-0.5-0.2c-0.3-0.3-0.3-0.8,0-1.1l1.4-1.4c0.3-0.3,0.8-0.3,1.1,0
					c0.3,0.3,0.3,0.8,0,1.1l-1.4,1.4C9.8,121.9,9.6,122,9.4,122z"/>
			</g>
			<g>
				<path fill="#231F20" d="M5,126.4c-0.2,0-0.4-0.1-0.5-0.2c-0.3-0.3-0.3-0.8,0-1.1l1.4-1.4c0.3-0.3,0.8-0.3,1.1,0
					c0.3,0.3,0.3,0.8,0,1.1l-1.4,1.4C5.4,126.3,5.2,126.4,5,126.4z"/>
			</g>
			<g>
				<path fill="#231F20" d="M10.8,126.4c-0.2,0-0.4-0.1-0.5-0.2l-1.4-1.4c-0.3-0.3-0.3-0.8,0-1.1c0.3-0.3,0.8-0.3,1.1,0l1.4,1.4
					c0.3,0.3,0.3,0.8,0,1.1C11.2,126.3,11,126.4,10.8,126.4z"/>
			</g>
			<g>
				<path fill="#231F20" d="M6.4,122c-0.2,0-0.4-0.1-0.5-0.2l-1.4-1.4c-0.3-0.3-0.3-0.8,0-1.1c0.3-0.3,0.8-0.3,1.1,0l1.4,1.4
					c0.3,0.3,0.3,0.8,0,1.1C6.8,121.9,6.6,122,6.4,122z"/>
			</g>
		</g>
		<g>
			<g>
				<path fill="#231F20" d="M7.2,7.8C7,7.8,6.8,7.7,6.7,7.6c-0.3-0.3-0.3-0.8,0-1.1l1.4-1.4c0.3-0.3,0.8-0.3,1.1,0
					c0.3,0.3,0.3,0.8,0,1.1L7.8,7.6C7.6,7.7,7.4,7.8,7.2,7.8z"/>
			</g>
			<g>
				<path fill="#231F20" d="M2.8,12.2c-0.2,0-0.4-0.1-0.5-0.2c-0.3-0.3-0.3-0.8,0-1.1l1.4-1.4c0.3-0.3,0.8-0.3,1.1,0
					c0.3,0.3,0.3,0.8,0,1.1L3.4,12C3.2,12.1,3,12.2,2.8,12.2z"/>
			</g>
			<g>
				<path fill="#231F20" d="M8.6,12.2c-0.2,0-0.4-0.1-0.5-0.2l-1.4-1.4c-0.3-0.3-0.3-0.8,0-1.1c0.3-0.3,0.8-0.3,1.1,0l1.4,1.4
					c0.3,0.3,0.3,0.8,0,1.1C9,12.1,8.8,12.2,8.6,12.2z"/>
			</g>
			<g>
				<path fill="#231F20" d="M4.2,7.8C4,7.8,3.9,7.7,3.7,7.6L2.3,6.2C2,5.9,2,5.4,2.3,5.1c0.3-0.3,0.8-0.3,1.1,0l1.4,1.4
					c0.3,0.3,0.3,0.8,0,1.1C4.6,7.7,4.4,7.8,4.2,7.8z"/>
			</g>
		</g>
		<g>
			<circle fill="#84DBFF" cx="106.2" cy="6.4" r="2.4"/>
		</g>
		<g>
			<circle fill="#FF7058" cx="3.5" cy="21.4" r="2.4"/>
		</g>
		<g>
			<circle fill="#FFD05B" cx="77.5" cy="56.6" r="2.4"/>
		</g>
		<g>
			<g>
				<g>
					<path fill="#231F20" d="M123.4,122.1h-8.2c-0.4,0-0.8-0.3-0.8-0.8c0-0.4,0.3-0.8,0.8-0.8h8.2c0.4,0,0.8,0.3,0.8,0.8
						C124.1,121.7,123.8,122.1,123.4,122.1z"/>
				</g>
				<g>
					<path fill="#231F20" d="M128.7,122.1h-2.3c-0.4,0-0.8-0.3-0.8-0.8c0-0.4,0.3-0.8,0.8-0.8h2.3c0.4,0,0.8,0.3,0.8,0.8
						C129.5,121.7,129.2,122.1,128.7,122.1z"/>
				</g>
				<g>
					<path fill="#231F20" d="M125.6,125h-2.3c-0.4,0-0.8-0.3-0.8-0.8s0.3-0.8,0.8-0.8h2.3c0.4,0,0.8,0.3,0.8,0.8S126,125,125.6,125z
						"/>
				</g>
			</g>
		</g>
		<g>
			<path fill="#231F20" d="M63.7,102l0-1.5c0.3,0,0.7,0,1,0l0,1.5C64.4,101.9,64.1,102,63.7,102z M62.7,101.9c-0.3,0-0.7,0-1,0
				l0.1-1.5c0.3,0,0.7,0,1,0L62.7,101.9z M65.8,101.9l-0.1-1.5c0.3,0,0.7,0,1-0.1l0.1,1.5C66.4,101.8,66.1,101.9,65.8,101.9z
				 M60.7,101.8c-0.3,0-0.7-0.1-1-0.1l0.2-1.5c0.3,0,0.6,0.1,1,0.1L60.7,101.8z M67.8,101.7l-0.2-1.5c0.3,0,0.7-0.1,1-0.1l0.2,1.5
				C68.5,101.6,68.1,101.7,67.8,101.7z M58.6,101.6c-0.3,0-0.7-0.1-1-0.1l0.2-1.5c0.3,0.1,0.6,0.1,1,0.1L58.6,101.6z M69.8,101.4
				l-0.3-1.5c0.3-0.1,0.6-0.1,1-0.2l0.3,1.5C70.5,101.3,70.2,101.4,69.8,101.4z M56.6,101.3c-0.3-0.1-0.7-0.1-1-0.2l0.3-1.5
				c0.3,0.1,0.6,0.1,1,0.2L56.6,101.3z M71.8,101l-0.3-1.5c0.3-0.1,0.6-0.1,1-0.2l0.4,1.5C72.5,100.9,72.2,101,71.8,101z
				 M54.6,100.9c-0.3-0.1-0.7-0.2-1-0.3l0.4-1.4c0.3,0.1,0.6,0.2,0.9,0.2L54.6,100.9z M73.8,100.5l-0.4-1.4c0.3-0.1,0.6-0.2,0.9-0.3
				l0.5,1.4C74.5,100.3,74.1,100.4,73.8,100.5z M52.7,100.3c-0.3-0.1-0.7-0.2-1-0.3l0.5-1.4c0.3,0.1,0.6,0.2,0.9,0.3L52.7,100.3z
				 M75.7,99.9l-0.5-1.4c0.3-0.1,0.6-0.2,0.9-0.3l0.5,1.4C76.4,99.7,76.1,99.8,75.7,99.9z M50.7,99.7c-0.3-0.1-0.6-0.2-1-0.4
				l0.6-1.4c0.3,0.1,0.6,0.2,0.9,0.4L50.7,99.7z M77.7,99.2l-0.6-1.4c0.3-0.1,0.6-0.3,0.9-0.4l0.6,1.4C78.3,98.9,78,99.1,77.7,99.2z
				 M48.8,98.9c-0.3-0.1-0.6-0.3-0.9-0.4l0.6-1.4c0.3,0.1,0.6,0.3,0.9,0.4L48.8,98.9z M79.5,98.4L78.9,97c0.3-0.1,0.6-0.3,0.9-0.4
				l0.7,1.3C80.1,98.1,79.8,98.2,79.5,98.4z M47,98.1c-0.3-0.2-0.6-0.3-0.9-0.5l0.7-1.3c0.3,0.2,0.6,0.3,0.9,0.4L47,98.1z
				 M81.4,97.4l-0.7-1.3c0.3-0.2,0.6-0.3,0.9-0.5l0.8,1.3C82,97.1,81.7,97.3,81.4,97.4z M45.2,97.1c-0.3-0.2-0.6-0.3-0.9-0.5
				l0.8-1.3c0.3,0.2,0.6,0.3,0.8,0.5L45.2,97.1z M83.1,96.4l-0.8-1.3c0.3-0.2,0.6-0.3,0.8-0.5l0.8,1.3C83.7,96,83.4,96.2,83.1,96.4z
				 M43.5,96.1c-0.3-0.2-0.6-0.4-0.8-0.6l0.8-1.2c0.3,0.2,0.5,0.4,0.8,0.5L43.5,96.1z M84.8,95.3L84,94c0.3-0.2,0.5-0.4,0.8-0.6
				l0.9,1.2C85.4,94.9,85.1,95.1,84.8,95.3z M41.8,94.9c-0.3-0.2-0.5-0.4-0.8-0.6l0.9-1.2c0.3,0.2,0.5,0.4,0.8,0.6L41.8,94.9z
				 M86.5,94.1l-0.9-1.2c0.3-0.2,0.5-0.4,0.8-0.6l1,1.2C87,93.6,86.7,93.9,86.5,94.1z M40.2,93.7c-0.3-0.2-0.5-0.4-0.8-0.7l1-1.1
				c0.2,0.2,0.5,0.4,0.8,0.6L40.2,93.7z M88,92.8l-1-1.1c0.2-0.2,0.5-0.4,0.7-0.7l1,1.1C88.6,92.3,88.3,92.5,88,92.8z M38.6,92.3
				c-0.3-0.2-0.5-0.5-0.7-0.7l1-1.1c0.2,0.2,0.5,0.4,0.7,0.7L38.6,92.3z M89.5,91.4l-1-1.1c0.2-0.2,0.5-0.5,0.7-0.7l1.1,1
				C90,90.9,89.8,91.1,89.5,91.4z M37.1,90.9c-0.2-0.2-0.5-0.5-0.7-0.7l1.1-1c0.2,0.2,0.5,0.5,0.7,0.7L37.1,90.9z M91,89.9l-1.1-1
				c0.2-0.2,0.4-0.5,0.7-0.7l1.1,1C91.4,89.4,91.2,89.7,91,89.9z M35.7,89.4c-0.2-0.3-0.4-0.5-0.7-0.8l1.1-1
				c0.2,0.3,0.4,0.5,0.6,0.7L35.7,89.4z M92.3,88.4l-1.2-1c0.2-0.3,0.4-0.5,0.6-0.8l1.2,0.9C92.7,87.8,92.5,88.1,92.3,88.4z
				 M34.4,87.9c-0.2-0.3-0.4-0.5-0.6-0.8l1.2-0.9c0.2,0.3,0.4,0.5,0.6,0.8L34.4,87.9z M93.6,86.8l-1.2-0.9c0.2-0.3,0.4-0.5,0.6-0.8
				l1.2,0.9C94,86.2,93.8,86.5,93.6,86.8z M33.2,86.3c-0.2-0.3-0.4-0.6-0.6-0.8l1.2-0.8c0.2,0.3,0.4,0.5,0.6,0.8L33.2,86.3z
				 M94.7,85.1l-1.3-0.8c0.2-0.3,0.4-0.5,0.5-0.8l1.3,0.8C95.1,84.5,94.9,84.8,94.7,85.1z M32.1,84.6c-0.2-0.3-0.4-0.6-0.5-0.9
				l1.3-0.8c0.2,0.3,0.3,0.6,0.5,0.8L32.1,84.6z M95.8,83.4l-1.3-0.7c0.2-0.3,0.3-0.6,0.5-0.9l1.3,0.7C96.1,82.8,96,83.1,95.8,83.4z
				 M31,82.8c-0.2-0.3-0.3-0.6-0.5-0.9l1.3-0.7c0.2,0.3,0.3,0.6,0.5,0.9L31,82.8z M96.8,81.6l-1.3-0.7c0.1-0.3,0.3-0.6,0.4-0.9
				l1.4,0.6C97.1,81,96.9,81.3,96.8,81.6z M30.1,81c-0.1-0.3-0.3-0.6-0.4-0.9l1.4-0.6c0.1,0.3,0.3,0.6,0.4,0.9L30.1,81z M97.6,79.7
				l-1.4-0.6c0.1-0.3,0.3-0.6,0.4-0.9l1.4,0.6C97.9,79.1,97.8,79.4,97.6,79.7z M29.2,79.1c-0.1-0.3-0.3-0.6-0.4-0.9l1.4-0.5
				c0.1,0.3,0.2,0.6,0.4,0.9L29.2,79.1z M98.4,77.8L97,77.3c0.1-0.3,0.2-0.6,0.3-0.9l1.4,0.5C98.6,77.2,98.5,77.5,98.4,77.8z
				 M28.5,77.2c-0.1-0.3-0.2-0.6-0.3-1l1.4-0.5c0.1,0.3,0.2,0.6,0.3,0.9L28.5,77.2z M99.1,75.9l-1.4-0.4c0.1-0.3,0.2-0.6,0.3-0.9
				l1.4,0.4C99.3,75.3,99.2,75.6,99.1,75.9z M27.9,75.3c-0.1-0.3-0.2-0.7-0.3-1l1.5-0.4c0.1,0.3,0.2,0.6,0.3,0.9L27.9,75.3z
				 M99.6,73.9l-1.5-0.4c0.1-0.3,0.2-0.6,0.2-1l1.5,0.3C99.8,73.3,99.7,73.6,99.6,73.9z M27.3,73.3c-0.1-0.3-0.2-0.7-0.2-1l1.5-0.3
				c0.1,0.3,0.1,0.6,0.2,1L27.3,73.3z M100.1,72l-1.5-0.3c0.1-0.3,0.1-0.6,0.2-1l1.5,0.3C100.2,71.3,100.1,71.6,100.1,72z
				 M26.9,71.3c-0.1-0.3-0.1-0.7-0.2-1l1.5-0.2c0,0.3,0.1,0.6,0.2,1L26.9,71.3z M100.4,69.9l-1.5-0.2c0-0.3,0.1-0.6,0.1-1l1.5,0.2
				C100.5,69.3,100.4,69.6,100.4,69.9z M26.6,69.3c0-0.3-0.1-0.7-0.1-1l1.5-0.1c0,0.3,0.1,0.6,0.1,1L26.6,69.3z M100.6,67.9
				l-1.5-0.1c0-0.3,0.1-0.6,0.1-1l1.5,0.1C100.7,67.2,100.7,67.6,100.6,67.9z M26.4,67.2c0-0.3,0-0.7-0.1-1l1.5-0.1
				c0,0.3,0,0.7,0.1,1L26.4,67.2z M100.7,65.9l-1.5,0c0-0.3,0-0.7,0-1h1.5C100.8,65.2,100.8,65.5,100.7,65.9z M26.4,65.2l0-0.5
				l0-0.6l1.5,0l0,0.5l0,0.4L26.4,65.2z M100.8,64.8h-1.5c0-0.3,0-0.7,0-1l1.5,0C100.8,64.1,100.8,64.4,100.8,64.8z M27.9,63.2
				l-1.5-0.1c0-0.3,0-0.7,0.1-1l1.5,0.1C27.9,62.6,27.9,62.9,27.9,63.2z M99.2,62.8c0-0.3,0-0.7-0.1-1l1.5-0.1c0,0.3,0.1,0.7,0.1,1
				L99.2,62.8z M28,61.3l-1.5-0.1c0-0.3,0.1-0.7,0.1-1l1.5,0.2C28.1,60.6,28.1,60.9,28,61.3z M99,60.8c0-0.3-0.1-0.6-0.1-1l1.5-0.2
				c0,0.3,0.1,0.7,0.1,1L99,60.8z M28.3,59.3l-1.5-0.2c0.1-0.3,0.1-0.7,0.2-1l1.5,0.3C28.4,58.7,28.3,59,28.3,59.3z M98.8,58.9
				c-0.1-0.3-0.1-0.6-0.2-1l1.5-0.3c0.1,0.3,0.1,0.7,0.2,1L98.8,58.9z M28.6,57.4l-1.5-0.3c0.1-0.3,0.1-0.7,0.2-1l1.5,0.3
				C28.8,56.8,28.7,57.1,28.6,57.4z M98.4,57c-0.1-0.3-0.1-0.6-0.2-1l1.5-0.4c0.1,0.3,0.2,0.7,0.2,1L98.4,57z M29.1,55.5l-1.4-0.4
				c0.1-0.3,0.2-0.7,0.3-1l1.4,0.4C29.2,54.9,29.1,55.2,29.1,55.5z M97.9,55.1c-0.1-0.3-0.2-0.6-0.3-0.9l1.4-0.4
				c0.1,0.3,0.2,0.7,0.3,1L97.9,55.1z M29.6,53.6l-1.4-0.5c0.1-0.3,0.2-0.6,0.3-1l1.4,0.5C29.8,53,29.7,53.3,29.6,53.6z M97.4,53.2
				c-0.1-0.3-0.2-0.6-0.3-0.9l1.4-0.5c0.1,0.3,0.2,0.6,0.3,1L97.4,53.2z M30.3,51.8l-1.4-0.5c0.1-0.3,0.3-0.6,0.4-0.9l1.4,0.6
				C30.5,51.2,30.4,51.5,30.3,51.8z M96.7,51.4c-0.1-0.3-0.3-0.6-0.4-0.9l1.4-0.6c0.1,0.3,0.3,0.6,0.4,0.9L96.7,51.4z M31,50
				l-1.4-0.6c0.1-0.3,0.3-0.6,0.4-0.9l1.3,0.7C31.3,49.4,31.2,49.7,31,50z M95.9,49.6c-0.1-0.3-0.3-0.6-0.4-0.9l1.3-0.7
				c0.2,0.3,0.3,0.6,0.4,0.9L95.9,49.6z M31.9,48.2l-1.3-0.7c0.2-0.3,0.3-0.6,0.5-0.9l1.3,0.7C32.2,47.7,32.1,47.9,31.9,48.2z
				 M95,47.8c-0.2-0.3-0.3-0.6-0.5-0.9l1.3-0.7c0.2,0.3,0.3,0.6,0.5,0.9L95,47.8z M32.9,46.5l-1.3-0.8c0.2-0.3,0.4-0.6,0.5-0.9
				l1.3,0.8C33.2,46,33,46.2,32.9,46.5z M94,46.1c-0.2-0.3-0.3-0.6-0.5-0.8l1.3-0.8c0.2,0.3,0.4,0.6,0.5,0.9L94,46.1z M33.9,44.9
				L32.7,44c0.2-0.3,0.4-0.6,0.6-0.8l1.2,0.9C34.3,44.3,34.1,44.6,33.9,44.9z M92.9,44.5c-0.2-0.3-0.4-0.5-0.6-0.8l1.2-0.9
				c0.2,0.3,0.4,0.6,0.6,0.8L92.9,44.5z M35,43.3l-1.2-0.9c0.2-0.3,0.4-0.5,0.6-0.8l1.2,0.9C35.4,42.8,35.2,43,35,43.3z M91.8,42.9
				c-0.2-0.3-0.4-0.5-0.6-0.8l1.2-1c0.2,0.3,0.4,0.5,0.6,0.8L91.8,42.9z M36.3,41.8l-1.1-1c0.2-0.3,0.4-0.5,0.7-0.8l1.1,1
				C36.7,41.3,36.5,41.5,36.3,41.8z M90.5,41.4c-0.2-0.2-0.4-0.5-0.7-0.7l1.1-1c0.2,0.3,0.5,0.5,0.7,0.8L90.5,41.4z M37.6,40.3
				l-1.1-1c0.2-0.2,0.5-0.5,0.7-0.7l1.1,1.1C38,39.8,37.8,40,37.6,40.3z M89.2,39.9c-0.2-0.2-0.5-0.5-0.7-0.7l1-1.1
				c0.2,0.2,0.5,0.5,0.7,0.7L89.2,39.9z M38.9,38.9l-1-1.1c0.2-0.2,0.5-0.5,0.7-0.7l1,1.1C39.4,38.4,39.2,38.7,38.9,38.9z
				 M87.8,38.6c-0.2-0.2-0.5-0.4-0.7-0.7l1-1.1c0.3,0.2,0.5,0.5,0.8,0.7L87.8,38.6z M40.4,37.6l-1-1.1c0.3-0.2,0.5-0.4,0.8-0.7
				l0.9,1.2C40.9,37.2,40.6,37.4,40.4,37.6z M86.4,37.3c-0.3-0.2-0.5-0.4-0.8-0.6l0.9-1.2c0.3,0.2,0.5,0.4,0.8,0.6L86.4,37.3z
				 M41.9,36.4L41,35.2c0.3-0.2,0.5-0.4,0.8-0.6l0.9,1.2C42.4,36,42.2,36.2,41.9,36.4z M84.8,36.1c-0.3-0.2-0.5-0.4-0.8-0.6l0.9-1.2
				c0.3,0.2,0.6,0.4,0.8,0.6L84.8,36.1z M43.5,35.2L42.7,34c0.3-0.2,0.6-0.4,0.9-0.6l0.8,1.3C44,34.8,43.8,35,43.5,35.2z M83.2,34.9
				c-0.3-0.2-0.5-0.4-0.8-0.5l0.8-1.3c0.3,0.2,0.6,0.4,0.9,0.6L83.2,34.9z M45.2,34.1l-0.8-1.3c0.3-0.2,0.6-0.3,0.9-0.5l0.7,1.3
				C45.7,33.8,45.4,34,45.2,34.1z M81.6,33.9c-0.3-0.2-0.6-0.3-0.8-0.5l0.7-1.3c0.3,0.2,0.6,0.3,0.9,0.5L81.6,33.9z M46.9,33.2
				l-0.7-1.3c0.3-0.2,0.6-0.3,0.9-0.5l0.7,1.3C47.4,32.9,47.1,33,46.9,33.2z M79.8,33c-0.3-0.1-0.6-0.3-0.9-0.4l0.7-1.4
				c0.3,0.1,0.6,0.3,0.9,0.5L79.8,33z M48.6,32.3L48,31c0.3-0.1,0.6-0.3,0.9-0.4l0.6,1.4C49.2,32,48.9,32.2,48.6,32.3z M78.1,32.1
				c-0.3-0.1-0.6-0.3-0.9-0.4l0.6-1.4c0.3,0.1,0.6,0.3,0.9,0.4L78.1,32.1z M50.4,31.5l-0.6-1.4c0.3-0.1,0.6-0.2,1-0.4l0.5,1.4
				C51,31.3,50.7,31.4,50.4,31.5z M76.3,31.4c-0.3-0.1-0.6-0.2-0.9-0.3l0.5-1.4c0.3,0.1,0.6,0.2,1,0.3L76.3,31.4z M52.3,30.9
				l-0.5-1.4c0.3-0.1,0.6-0.2,1-0.3l0.4,1.4C52.9,30.7,52.6,30.8,52.3,30.9z M74.4,30.7c-0.3-0.1-0.6-0.2-0.9-0.3l0.4-1.4
				c0.3,0.1,0.7,0.2,1,0.3L74.4,30.7z M54.1,30.3l-0.4-1.4c0.3-0.1,0.7-0.2,1-0.3l0.4,1.5C54.8,30.1,54.5,30.2,54.1,30.3z
				 M72.5,30.2c-0.3-0.1-0.6-0.2-1-0.2l0.3-1.5c0.3,0.1,0.7,0.2,1,0.2L72.5,30.2z M56.1,29.8l-0.3-1.5c0.3-0.1,0.7-0.1,1-0.2
				l0.3,1.5C56.7,29.7,56.4,29.8,56.1,29.8z M70.6,29.7c-0.3-0.1-0.6-0.1-1-0.2l0.3-1.5c0.3,0.1,0.7,0.1,1,0.2L70.6,29.7z M58,29.5
				L57.7,28c0.3-0.1,0.7-0.1,1-0.1l0.2,1.5C58.6,29.4,58.3,29.4,58,29.5z M68.7,29.4c-0.3,0-0.6-0.1-1-0.1l0.2-1.5
				c0.3,0,0.7,0.1,1,0.1L68.7,29.4z M59.9,29.2l-0.2-1.5c0.3,0,0.7-0.1,1-0.1l0.1,1.5C60.6,29.2,60.2,29.2,59.9,29.2z M66.8,29.2
				c-0.3,0-0.6-0.1-1-0.1l0.1-1.5c0.3,0,0.7,0,1,0.1L66.8,29.2z M61.9,29.1l-0.1-1.5c0.3,0,0.7,0,1,0l0,1.5
				C62.5,29.1,62.2,29.1,61.9,29.1z M64.8,29.1c-0.3,0-0.7,0-1,0l0-1.5c0.3,0,0.7,0,1,0L64.8,29.1z"/>
		</g>
		<g>
			<path fill="#231F20" d="M63.6,128.3l-0.1-1.5h0.1c0.3,0,0.6,0,0.9,0l0,1.5C64.2,128.3,63.9,128.3,63.6,128.3z M62.5,128.3
				c-0.3,0-0.7,0-1,0l0-1.5c0.3,0,0.7,0,1,0L62.5,128.3z M65.5,128.3l0-1.5c0.3,0,0.7,0,1,0l0.1,1.5
				C66.2,128.3,65.9,128.3,65.5,128.3z M60.5,128.2c-0.3,0-0.7,0-1-0.1l0.1-1.5c0.3,0,0.7,0,1,0.1L60.5,128.2z M67.5,128.2l-0.1-1.5
				c0.3,0,0.7,0,1-0.1l0.1,1.5C68.2,128.1,67.9,128.2,67.5,128.2z M58.4,128.1c-0.3,0-0.7-0.1-1-0.1l0.1-1.5c0.3,0,0.7,0.1,1,0.1
				L58.4,128.1z M69.6,128l-0.1-1.5c0.3,0,0.7-0.1,1-0.1l0.2,1.5C70.2,128,69.9,128,69.6,128z M56.4,127.9c-0.3,0-0.7-0.1-1-0.1
				l0.2-1.5c0.3,0,0.7,0.1,1,0.1L56.4,127.9z M71.6,127.8l-0.2-1.5c0.3,0,0.7-0.1,1-0.1l0.2,1.5C72.2,127.7,71.9,127.8,71.6,127.8z
				 M54.4,127.7c-0.3,0-0.7-0.1-1-0.2l0.2-1.5c0.3,0.1,0.7,0.1,1,0.1L54.4,127.7z M73.6,127.5l-0.2-1.5c0.3-0.1,0.7-0.1,1-0.2
				l0.3,1.5C74.2,127.4,73.9,127.5,73.6,127.5z M52.4,127.3c-0.3-0.1-0.7-0.1-1-0.2l0.3-1.5c0.3,0.1,0.6,0.1,1,0.2L52.4,127.3z
				 M75.6,127.2l-0.3-1.5c0.3-0.1,0.6-0.1,1-0.2l0.3,1.5C76.2,127,75.9,127.1,75.6,127.2z M50.4,127c-0.3-0.1-0.7-0.1-1-0.2l0.3-1.5
				c0.3,0.1,0.6,0.1,1,0.2L50.4,127z M77.5,126.8l-0.3-1.5c0.3-0.1,0.6-0.1,1-0.2l0.4,1.5C78.2,126.6,77.9,126.7,77.5,126.8z
				 M48.5,126.5c-0.3-0.1-0.7-0.2-1-0.2l0.4-1.5c0.3,0.1,0.6,0.2,1,0.2L48.5,126.5z M79.5,126.3l-0.4-1.5c0.3-0.1,0.6-0.2,1-0.3
				l0.4,1.4C80.2,126.1,79.8,126.2,79.5,126.3z M46.5,126c-0.3-0.1-0.7-0.2-1-0.3l0.4-1.4c0.3,0.1,0.6,0.2,0.9,0.3L46.5,126z
				 M81.5,125.8l-0.4-1.4c0.3-0.1,0.6-0.2,0.9-0.3l0.4,1.4C82.1,125.6,81.8,125.7,81.5,125.8z M44.6,125.4c-0.3-0.1-0.6-0.2-1-0.3
				l0.5-1.4c0.3,0.1,0.6,0.2,0.9,0.3L44.6,125.4z M83.4,125.2l-0.5-1.4c0.3-0.1,0.6-0.2,0.9-0.3l0.5,1.4
				C84,124.9,83.7,125,83.4,125.2z M42.6,124.8c-0.3-0.1-0.6-0.2-1-0.3l0.5-1.4c0.3,0.1,0.6,0.2,0.9,0.3L42.6,124.8z M85.3,124.5
				l-0.5-1.4c0.3-0.1,0.6-0.2,0.9-0.3l0.5,1.4C86,124.3,85.6,124.4,85.3,124.5z M40.7,124.1c-0.3-0.1-0.6-0.2-0.9-0.4l0.6-1.4
				c0.3,0.1,0.6,0.2,0.9,0.4L40.7,124.1z M87.2,123.8l-0.6-1.4c0.3-0.1,0.6-0.3,0.9-0.4l0.6,1.4C87.8,123.5,87.5,123.6,87.2,123.8z
				 M38.9,123.3c-0.3-0.1-0.6-0.3-0.9-0.4l0.6-1.4c0.3,0.1,0.6,0.3,0.9,0.4L38.9,123.3z M89.1,123l-0.6-1.4c0.3-0.1,0.6-0.3,0.9-0.4
				l0.6,1.4C89.7,122.7,89.4,122.8,89.1,123z M37,122.5c-0.3-0.1-0.6-0.3-0.9-0.4l0.7-1.4c0.3,0.1,0.6,0.3,0.9,0.4L37,122.5z
				 M90.9,122.1l-0.6-1.4c0.3-0.1,0.6-0.3,0.9-0.4l0.7,1.3C91.5,121.8,91.2,122,90.9,122.1z M35.2,121.7c-0.3-0.2-0.6-0.3-0.9-0.5
				l0.7-1.3c0.3,0.2,0.6,0.3,0.9,0.4L35.2,121.7z M92.7,121.2l-0.7-1.3c0.3-0.2,0.6-0.3,0.9-0.5l0.7,1.3
				C93.3,120.9,93,121.1,92.7,121.2z M33.4,120.7c-0.3-0.2-0.6-0.3-0.9-0.5l0.7-1.3c0.3,0.2,0.6,0.3,0.9,0.5L33.4,120.7z
				 M94.5,120.3l-0.7-1.3c0.3-0.2,0.6-0.3,0.9-0.5l0.8,1.3C95.1,119.9,94.8,120.1,94.5,120.3z M31.7,119.7c-0.3-0.2-0.6-0.3-0.9-0.5
				l0.8-1.3c0.3,0.2,0.6,0.3,0.8,0.5L31.7,119.7z M96.3,119.2l-0.8-1.3c0.3-0.2,0.6-0.3,0.8-0.5l0.8,1.3
				C96.9,118.9,96.6,119.1,96.3,119.2z M29.9,118.7c-0.3-0.2-0.6-0.4-0.9-0.5l0.8-1.3c0.3,0.2,0.6,0.4,0.8,0.5L29.9,118.7z
				 M98,118.2l-0.8-1.3c0.3-0.2,0.6-0.4,0.8-0.5l0.8,1.2C98.6,117.8,98.3,118,98,118.2z M28.2,117.6c-0.3-0.2-0.6-0.4-0.8-0.6
				l0.9-1.2c0.3,0.2,0.5,0.4,0.8,0.6L28.2,117.6z M99.7,117l-0.9-1.2c0.3-0.2,0.5-0.4,0.8-0.6l0.9,1.2
				C100.2,116.7,100,116.9,99.7,117z M26.6,116.4c-0.3-0.2-0.5-0.4-0.8-0.6l0.9-1.2c0.3,0.2,0.5,0.4,0.8,0.6L26.6,116.4z
				 M101.3,115.9l-0.9-1.2c0.3-0.2,0.5-0.4,0.8-0.6l0.9,1.2C101.9,115.5,101.6,115.7,101.3,115.9z M24.9,115.2
				c-0.3-0.2-0.5-0.4-0.8-0.6l0.9-1.2c0.3,0.2,0.5,0.4,0.8,0.6L24.9,115.2z M102.9,114.6l-0.9-1.2c0.3-0.2,0.5-0.4,0.8-0.6l0.9,1.2
				C103.5,114.2,103.2,114.4,102.9,114.6z M23.4,114c-0.3-0.2-0.5-0.4-0.8-0.6l1-1.1c0.3,0.2,0.5,0.4,0.8,0.6L23.4,114z
				 M104.5,113.4l-1-1.1c0.3-0.2,0.5-0.4,0.8-0.6l1,1.1C105,112.9,104.8,113.1,104.5,113.4z M21.8,112.7c-0.3-0.2-0.5-0.4-0.8-0.7
				l1-1.1c0.2,0.2,0.5,0.4,0.7,0.7L21.8,112.7z M106,112l-1-1.1c0.2-0.2,0.5-0.4,0.7-0.7l1,1.1C106.5,111.6,106.3,111.8,106,112z
				 M20.3,111.3c-0.2-0.2-0.5-0.5-0.7-0.7l1-1.1c0.2,0.2,0.5,0.5,0.7,0.7L20.3,111.3z M107.5,110.7l-1-1.1c0.2-0.2,0.5-0.5,0.7-0.7
				l1.1,1.1C108,110.2,107.8,110.4,107.5,110.7z M18.9,109.9c-0.2-0.2-0.5-0.5-0.7-0.7l1.1-1c0.2,0.2,0.5,0.5,0.7,0.7L18.9,109.9z
				 M109,109.2l-1.1-1c0.2-0.2,0.5-0.5,0.7-0.7l1.1,1C109.4,108.7,109.2,109,109,109.2z M17.4,108.5c-0.2-0.2-0.5-0.5-0.7-0.7l1.1-1
				c0.2,0.2,0.4,0.5,0.7,0.7L17.4,108.5z M110.4,107.8l-1.1-1c0.2-0.2,0.4-0.5,0.7-0.7l1.1,1C110.8,107.3,110.6,107.5,110.4,107.8z
				 M16.1,107c-0.2-0.3-0.4-0.5-0.7-0.8l1.1-1c0.2,0.3,0.4,0.5,0.7,0.7L16.1,107z M111.7,106.3l-1.1-1c0.2-0.2,0.4-0.5,0.6-0.8
				l1.2,1C112.1,105.7,111.9,106,111.7,106.3z M14.7,105.5c-0.2-0.3-0.4-0.5-0.6-0.8l1.2-0.9c0.2,0.3,0.4,0.5,0.6,0.8L14.7,105.5z
				 M113,104.7l-1.2-0.9c0.2-0.3,0.4-0.5,0.6-0.8l1.2,0.9C113.4,104.2,113.2,104.4,113,104.7z M13.5,103.9c-0.2-0.3-0.4-0.5-0.6-0.8
				l1.2-0.9c0.2,0.3,0.4,0.5,0.6,0.8L13.5,103.9z M114.2,103.1l-1.2-0.9c0.2-0.3,0.4-0.5,0.6-0.8l1.2,0.9
				C114.6,102.6,114.4,102.8,114.2,103.1z M12.3,102.3c-0.2-0.3-0.4-0.5-0.6-0.8l1.2-0.9c0.2,0.3,0.4,0.5,0.6,0.8L12.3,102.3z
				 M115.4,101.5l-1.2-0.9c0.2-0.3,0.4-0.5,0.6-0.8l1.2,0.8C115.8,100.9,115.6,101.2,115.4,101.5z M11.1,100.6
				c-0.2-0.3-0.4-0.6-0.6-0.8l1.3-0.8c0.2,0.3,0.4,0.5,0.6,0.8L11.1,100.6z M116.6,99.8l-1.3-0.8c0.2-0.3,0.4-0.5,0.5-0.8l1.3,0.8
				C116.9,99.3,116.8,99.5,116.6,99.8z M10,98.9c-0.2-0.3-0.4-0.6-0.5-0.9l1.3-0.8c0.2,0.3,0.3,0.6,0.5,0.8L10,98.9z M117.7,98.1
				l-1.3-0.8c0.2-0.3,0.3-0.6,0.5-0.8l1.3,0.8C118,97.5,117.8,97.8,117.7,98.1z M8.9,97.2c-0.2-0.3-0.3-0.6-0.5-0.9l1.3-0.7
				c0.2,0.3,0.3,0.6,0.5,0.9L8.9,97.2z M118.7,96.4l-1.3-0.7c0.2-0.3,0.3-0.6,0.5-0.9l1.3,0.7C119,95.8,118.9,96.1,118.7,96.4z
				 M7.9,95.4c-0.2-0.3-0.3-0.6-0.5-0.9l1.3-0.7c0.2,0.3,0.3,0.6,0.5,0.9L7.9,95.4z M119.7,94.6l-1.3-0.7c0.2-0.3,0.3-0.6,0.5-0.9
				l1.3,0.7C120,94,119.8,94.3,119.7,94.6z M6.9,93.7c-0.2-0.3-0.3-0.6-0.5-0.9l1.3-0.7C8,92.4,8.1,92.7,8.3,93L6.9,93.7z
				 M120.6,92.8l-1.3-0.7c0.1-0.3,0.3-0.6,0.4-0.9l1.4,0.6C120.9,92.2,120.7,92.5,120.6,92.8z M6,91.8c-0.1-0.3-0.3-0.6-0.4-0.9
				L7,90.3c0.1,0.3,0.3,0.6,0.4,0.9L6,91.8z M121.5,91l-1.4-0.6c0.1-0.3,0.3-0.6,0.4-0.9l1.4,0.6C121.7,90.4,121.6,90.7,121.5,91z
				 M5.2,90c-0.1-0.3-0.3-0.6-0.4-0.9l1.4-0.6c0.1,0.3,0.3,0.6,0.4,0.9L5.2,90z M122.3,89.1l-1.4-0.6c0.1-0.3,0.3-0.6,0.4-0.9
				l1.4,0.6C122.5,88.5,122.4,88.8,122.3,89.1z M4.4,88.1c-0.1-0.3-0.2-0.6-0.4-0.9l1.4-0.5c0.1,0.3,0.2,0.6,0.4,0.9L4.4,88.1z
				 M123,87.3l-1.4-0.5c0.1-0.3,0.2-0.6,0.3-0.9l1.4,0.5C123.2,86.6,123.1,87,123,87.3z M3.7,86.2c-0.1-0.3-0.2-0.6-0.3-1l1.4-0.5
				c0.1,0.3,0.2,0.6,0.3,0.9L3.7,86.2z M123.7,85.4l-1.4-0.5c0.1-0.3,0.2-0.6,0.3-0.9l1.4,0.5C123.9,84.7,123.8,85.1,123.7,85.4z
				 M3.1,84.3c-0.1-0.3-0.2-0.6-0.3-1l1.4-0.4c0.1,0.3,0.2,0.6,0.3,0.9L3.1,84.3z M124.3,83.4l-1.4-0.4c0.1-0.3,0.2-0.6,0.3-0.9
				l1.4,0.4C124.5,82.8,124.4,83.1,124.3,83.4z M2.5,82.3c-0.1-0.3-0.2-0.6-0.3-1L3.6,81c0.1,0.3,0.2,0.6,0.3,1L2.5,82.3z
				 M124.9,81.5l-1.4-0.4c0.1-0.3,0.2-0.6,0.3-1l1.5,0.4C125.1,80.8,125,81.2,124.9,81.5z M1.9,80.4c-0.1-0.3-0.2-0.7-0.2-1l1.5-0.3
				c0.1,0.3,0.2,0.6,0.2,1L1.9,80.4z M125.4,79.5l-1.5-0.3c0.1-0.3,0.1-0.6,0.2-1l1.5,0.3C125.5,78.9,125.5,79.2,125.4,79.5z
				 M1.5,78.4c-0.1-0.3-0.1-0.7-0.2-1l1.5-0.3c0.1,0.3,0.1,0.6,0.2,1L1.5,78.4z M125.8,77.6l-1.5-0.3c0.1-0.3,0.1-0.6,0.2-1l1.5,0.3
				C126,76.9,125.9,77.2,125.8,77.6z M1.1,76.4c-0.1-0.3-0.1-0.7-0.2-1l1.5-0.3c0.1,0.3,0.1,0.6,0.2,1L1.1,76.4z M126.2,75.6
				l-1.5-0.3c0.1-0.3,0.1-0.6,0.2-1l1.5,0.2C126.3,74.9,126.3,75.2,126.2,75.6z M0.7,74.4c-0.1-0.3-0.1-0.7-0.1-1l1.5-0.2
				c0,0.3,0.1,0.7,0.1,1L0.7,74.4z M126.5,73.6l-1.5-0.2c0-0.3,0.1-0.7,0.1-1l1.5,0.2C126.6,72.9,126.6,73.2,126.5,73.6z M0.5,72.4
				c0-0.3-0.1-0.7-0.1-1l1.5-0.2c0,0.3,0.1,0.7,0.1,1L0.5,72.4z M126.8,71.6l-1.5-0.2c0-0.3,0.1-0.7,0.1-1l1.5,0.1
				C126.8,70.9,126.8,71.2,126.8,71.6z M0.2,70.4c0-0.3-0.1-0.7-0.1-1l1.5-0.1c0,0.3,0,0.7,0.1,1L0.2,70.4z M126.9,69.6l-1.5-0.1
				c0-0.3,0-0.7,0.1-1l1.5,0.1C127,68.9,127,69.2,126.9,69.6z M0.1,68.4c0-0.3,0-0.7,0-1l1.5-0.1c0,0.3,0,0.7,0,1L0.1,68.4z
				 M127.1,67.5l-1.5-0.1c0-0.3,0-0.7,0-1l1.5,0C127.1,66.9,127.1,67.2,127.1,67.5z M0,66.4c0-0.3,0-0.7,0-1l1.5,0c0,0.3,0,0.7,0,1
				L0,66.4z M127.1,65.5l-1.5,0l0-0.7c0-0.3,0-0.7,0-1l1.5,0c0,0.3,0,0.7,0,1L127.1,65.5z M1.5,64.4l-1.5,0c0-0.3,0-0.7,0-1l1.5,0
				C1.5,63.7,1.5,64,1.5,64.4z M125.6,62.8c0-0.3,0-0.7,0-1l1.5-0.1c0,0.3,0,0.7,0,1L125.6,62.8z M1.5,62.4L0,62.3c0-0.3,0-0.7,0-1
				l1.5,0.1C1.6,61.7,1.6,62.1,1.5,62.4z M125.5,60.8c0-0.3,0-0.7-0.1-1l1.5-0.1c0,0.3,0,0.7,0.1,1L125.5,60.8z M1.6,60.4l-1.5-0.1
				c0-0.3,0-0.7,0.1-1l1.5,0.1C1.7,59.8,1.7,60.1,1.6,60.4z M125.3,58.8c0-0.3-0.1-0.7-0.1-1l1.5-0.2c0,0.3,0.1,0.7,0.1,1
				L125.3,58.8z M1.8,58.5l-1.5-0.1c0-0.3,0.1-0.7,0.1-1l1.5,0.2C1.9,57.8,1.8,58.1,1.8,58.5z M125.1,56.9c0-0.3-0.1-0.7-0.1-1
				l1.5-0.2c0,0.3,0.1,0.7,0.1,1L125.1,56.9z M2,56.5l-1.5-0.2c0-0.3,0.1-0.7,0.1-1l1.5,0.2C2.1,55.8,2.1,56.2,2,56.5z M124.8,54.9
				c-0.1-0.3-0.1-0.7-0.2-1l1.5-0.3c0.1,0.3,0.1,0.7,0.2,1L124.8,54.9z M2.3,54.5l-1.5-0.2C0.9,54,1,53.6,1,53.3l1.5,0.3
				C2.4,53.9,2.4,54.2,2.3,54.5z M124.5,53c-0.1-0.3-0.1-0.6-0.2-1l1.5-0.3c0.1,0.3,0.1,0.7,0.2,1L124.5,53z M2.7,52.6l-1.5-0.3
				c0.1-0.3,0.1-0.7,0.2-1l1.5,0.3C2.8,52,2.8,52.3,2.7,52.6z M124.1,51c-0.1-0.3-0.1-0.6-0.2-1l1.5-0.4c0.1,0.3,0.2,0.7,0.2,1
				L124.1,51z M3.1,50.7l-1.5-0.3c0.1-0.3,0.2-0.7,0.2-1l1.5,0.4C3.3,50,3.2,50.3,3.1,50.7z M123.6,49.1c-0.1-0.3-0.2-0.6-0.3-1
				l1.4-0.4c0.1,0.3,0.2,0.7,0.3,1L123.6,49.1z M3.6,48.8l-1.4-0.4c0.1-0.3,0.2-0.7,0.3-1l1.4,0.4C3.8,48.1,3.7,48.4,3.6,48.8z
				 M123.1,47.2c-0.1-0.3-0.2-0.6-0.3-0.9l1.4-0.4c0.1,0.3,0.2,0.6,0.3,1L123.1,47.2z M4.1,46.8l-1.4-0.4c0.1-0.3,0.2-0.6,0.3-1
				l1.4,0.5C4.3,46.2,4.2,46.5,4.1,46.8z M122.5,45.3c-0.1-0.3-0.2-0.6-0.3-0.9l1.4-0.5c0.1,0.3,0.2,0.6,0.3,1L122.5,45.3z M4.7,45
				l-1.4-0.5c0.1-0.3,0.2-0.6,0.3-1L5,44C4.9,44.3,4.8,44.7,4.7,45z M121.9,43.4c-0.1-0.3-0.2-0.6-0.3-0.9l1.4-0.5
				c0.1,0.3,0.2,0.6,0.4,0.9L121.9,43.4z M5.4,43.1L4,42.6c0.1-0.3,0.2-0.6,0.4-0.9l1.4,0.5C5.6,42.5,5.5,42.8,5.4,43.1z
				 M121.2,41.6c-0.1-0.3-0.2-0.6-0.4-0.9l1.4-0.6c0.1,0.3,0.3,0.6,0.4,0.9L121.2,41.6z M6.1,41.3l-1.4-0.6c0.1-0.3,0.3-0.6,0.4-0.9
				l1.4,0.6C6.3,40.7,6.2,41,6.1,41.3z M120.4,39.8c-0.1-0.3-0.3-0.6-0.4-0.9l1.4-0.6c0.1,0.3,0.3,0.6,0.4,0.9L120.4,39.8z
				 M6.9,39.5l-1.4-0.6c0.1-0.3,0.3-0.6,0.4-0.9l1.4,0.6C7.1,38.9,7,39.2,6.9,39.5z M119.6,38c-0.1-0.3-0.3-0.6-0.4-0.9l1.3-0.7
				c0.2,0.3,0.3,0.6,0.4,0.9L119.6,38z M7.7,37.7L6.4,37c0.1-0.3,0.3-0.6,0.4-0.9l1.3,0.7C8,37.1,7.8,37.4,7.7,37.7z M118.7,36.2
				c-0.2-0.3-0.3-0.6-0.5-0.9l1.3-0.7c0.2,0.3,0.3,0.6,0.5,0.9L118.7,36.2z M8.6,35.9l-1.3-0.7c0.2-0.3,0.3-0.6,0.5-0.9L9.1,35
				C8.9,35.3,8.7,35.6,8.6,35.9z M117.7,34.5c-0.2-0.3-0.3-0.6-0.5-0.9l1.3-0.8c0.2,0.3,0.3,0.6,0.5,0.9L117.7,34.5z M9.5,34.2
				l-1.3-0.7c0.2-0.3,0.3-0.6,0.5-0.9l1.3,0.8C9.9,33.6,9.7,33.9,9.5,34.2z M116.7,32.7c-0.2-0.3-0.3-0.6-0.5-0.8l1.3-0.8
				c0.2,0.3,0.4,0.6,0.5,0.9L116.7,32.7z M10.5,32.5l-1.3-0.8c0.2-0.3,0.4-0.6,0.5-0.9l1.3,0.8C10.9,31.9,10.7,32.2,10.5,32.5z
				 M115.7,31.1c-0.2-0.3-0.4-0.6-0.5-0.8l1.2-0.8c0.2,0.3,0.4,0.6,0.6,0.8L115.7,31.1z M11.6,30.8L10.3,30c0.2-0.3,0.4-0.6,0.6-0.8
				l1.2,0.8C12,30.3,11.8,30.5,11.6,30.8z M114.6,29.4c-0.2-0.3-0.4-0.5-0.6-0.8l1.2-0.9c0.2,0.3,0.4,0.5,0.6,0.8L114.6,29.4z
				 M12.7,29.2l-1.2-0.9c0.2-0.3,0.4-0.6,0.6-0.8l1.2,0.9C13.1,28.7,12.9,28.9,12.7,29.2z M113.4,27.8c-0.2-0.3-0.4-0.5-0.6-0.8
				l1.2-0.9c0.2,0.3,0.4,0.5,0.6,0.8L113.4,27.8z M13.8,27.6l-1.2-0.9c0.2-0.3,0.4-0.5,0.6-0.8l1.2,0.9C14.2,27.1,14,27.3,13.8,27.6
				z M112.2,26.2c-0.2-0.3-0.4-0.5-0.6-0.8l1.2-0.9c0.2,0.3,0.4,0.5,0.6,0.8L112.2,26.2z M15.1,26l-1.2-0.9c0.2-0.3,0.4-0.5,0.6-0.8
				l1.2,1C15.5,25.5,15.3,25.8,15.1,26z M111,24.7c-0.2-0.3-0.4-0.5-0.6-0.7l1.1-1c0.2,0.3,0.4,0.5,0.7,0.8L111,24.7z M16.3,24.5
				l-1.1-1c0.2-0.3,0.4-0.5,0.7-0.8l1.1,1C16.7,24,16.5,24.3,16.3,24.5z M109.7,23.2c-0.2-0.2-0.4-0.5-0.7-0.7l1.1-1
				c0.2,0.2,0.5,0.5,0.7,0.7L109.7,23.2z M17.6,23l-1.1-1c0.2-0.2,0.5-0.5,0.7-0.7l1.1,1C18.1,22.5,17.8,22.8,17.6,23z M108.3,21.8
				c-0.2-0.2-0.5-0.5-0.7-0.7l1.1-1.1c0.2,0.2,0.5,0.5,0.7,0.7L108.3,21.8z M19,21.6l-1.1-1c0.2-0.2,0.5-0.5,0.7-0.7l1.1,1.1
				C19.4,21.1,19.2,21.3,19,21.6z M106.9,20.4c-0.2-0.2-0.5-0.5-0.7-0.7l1-1.1c0.2,0.2,0.5,0.5,0.7,0.7L106.9,20.4z M20.4,20.2
				l-1-1.1c0.2-0.2,0.5-0.5,0.7-0.7l1,1.1C20.8,19.7,20.6,20,20.4,20.2z M105.5,19c-0.2-0.2-0.5-0.4-0.7-0.7l1-1.1
				c0.3,0.2,0.5,0.5,0.8,0.7L105.5,19z M21.8,18.8l-1-1.1c0.2-0.2,0.5-0.5,0.8-0.7l1,1.1C22.3,18.4,22.1,18.6,21.8,18.8z M104,17.7
				c-0.2-0.2-0.5-0.4-0.8-0.6l1-1.2c0.3,0.2,0.5,0.4,0.8,0.7L104,17.7z M23.3,17.5l-1-1.1c0.3-0.2,0.5-0.4,0.8-0.6l1,1.2
				C23.8,17.1,23.5,17.3,23.3,17.5z M102.5,16.4c-0.3-0.2-0.5-0.4-0.8-0.6l0.9-1.2c0.3,0.2,0.5,0.4,0.8,0.6L102.5,16.4z M24.8,16.3
				l-0.9-1.2c0.3-0.2,0.5-0.4,0.8-0.6l0.9,1.2C25.3,15.9,25.1,16.1,24.8,16.3z M101,15.2c-0.3-0.2-0.5-0.4-0.8-0.6l0.9-1.2
				c0.3,0.2,0.5,0.4,0.8,0.6L101,15.2z M26.4,15.1l-0.9-1.2c0.3-0.2,0.5-0.4,0.8-0.6l0.9,1.2C26.9,14.7,26.6,14.9,26.4,15.1z
				 M99.4,14.1c-0.3-0.2-0.5-0.4-0.8-0.6l0.8-1.2c0.3,0.2,0.6,0.4,0.8,0.6L99.4,14.1z M28,13.9l-0.9-1.2c0.3-0.2,0.6-0.4,0.8-0.6
				l0.8,1.2C28.5,13.5,28.3,13.7,28,13.9z M97.7,12.9c-0.3-0.2-0.5-0.4-0.8-0.5l0.8-1.3c0.3,0.2,0.6,0.4,0.8,0.6L97.7,12.9z
				 M29.6,12.8l-0.8-1.3c0.3-0.2,0.6-0.4,0.9-0.5l0.8,1.3C30.2,12.4,29.9,12.6,29.6,12.8z M96.1,11.9c-0.3-0.2-0.6-0.3-0.8-0.5
				l0.8-1.3c0.3,0.2,0.6,0.3,0.9,0.5L96.1,11.9z M31.3,11.7l-0.8-1.3c0.3-0.2,0.6-0.4,0.9-0.5l0.8,1.3
				C31.9,11.4,31.6,11.6,31.3,11.7z M94.4,10.9c-0.3-0.2-0.6-0.3-0.9-0.5l0.7-1.3c0.3,0.2,0.6,0.3,0.9,0.5L94.4,10.9z M33,10.7
				l-0.7-1.3c0.3-0.2,0.6-0.3,0.9-0.5l0.7,1.3C33.6,10.4,33.3,10.6,33,10.7z M92.7,9.9c-0.3-0.2-0.6-0.3-0.9-0.5l0.7-1.3
				c0.3,0.2,0.6,0.3,0.9,0.5L92.7,9.9z M34.7,9.8L34,8.4c0.3-0.2,0.6-0.3,0.9-0.5l0.7,1.3C35.3,9.5,35,9.6,34.7,9.8z M90.9,9
				c-0.3-0.1-0.6-0.3-0.9-0.4l0.6-1.4c0.3,0.1,0.6,0.3,0.9,0.4L90.9,9z M36.5,8.9l-0.7-1.3c0.3-0.1,0.6-0.3,0.9-0.4l0.6,1.4
				C37.1,8.6,36.8,8.7,36.5,8.9z M89.1,8.2c-0.3-0.1-0.6-0.3-0.9-0.4l0.6-1.4c0.3,0.1,0.6,0.3,0.9,0.4L89.1,8.2z M38.3,8l-0.6-1.4
				c0.3-0.1,0.6-0.3,0.9-0.4l0.6,1.4C38.9,7.8,38.6,7.9,38.3,8z M87.3,7.4C87,7.3,86.7,7.2,86.4,7L87,5.6c0.3,0.1,0.6,0.3,0.9,0.4
				L87.3,7.4z M40.1,7.3l-0.6-1.4c0.3-0.1,0.6-0.3,0.9-0.4L41,6.9C40.7,7,40.4,7.1,40.1,7.3z M85.5,6.7c-0.3-0.1-0.6-0.2-0.9-0.3
				l0.5-1.4c0.3,0.1,0.6,0.2,1,0.4L85.5,6.7z M42,6.6l-0.5-1.4c0.3-0.1,0.6-0.2,1-0.3l0.5,1.4C42.6,6.3,42.3,6.4,42,6.6z M83.6,6
				c-0.3-0.1-0.6-0.2-0.9-0.3l0.5-1.4c0.3,0.1,0.6,0.2,1,0.3L83.6,6z M43.8,5.9l-0.5-1.4c0.3-0.1,0.6-0.2,1-0.3l0.5,1.4
				C44.5,5.7,44.1,5.8,43.8,5.9z M81.8,5.4c-0.3-0.1-0.6-0.2-0.9-0.3l0.4-1.4c0.3,0.1,0.6,0.2,1,0.3L81.8,5.4z M45.7,5.3l-0.4-1.4
				c0.3-0.1,0.6-0.2,1-0.3L46.7,5C46.4,5.1,46,5.2,45.7,5.3z M79.9,4.9c-0.3-0.1-0.6-0.2-1-0.3l0.4-1.5c0.3,0.1,0.7,0.2,1,0.3
				L79.9,4.9z M47.6,4.8l-0.4-1.4c0.3-0.1,0.7-0.2,1-0.3l0.4,1.5C48.3,4.6,47.9,4.7,47.6,4.8z M77.9,4.4c-0.3-0.1-0.6-0.1-1-0.2
				l0.3-1.5c0.3,0.1,0.7,0.1,1,0.2L77.9,4.4z M49.5,4.3l-0.3-1.5c0.3-0.1,0.7-0.1,1-0.2l0.3,1.5C50.2,4.1,49.9,4.2,49.5,4.3z
				 M76,3.9c-0.3-0.1-0.6-0.1-1-0.2l0.3-1.5c0.3,0.1,0.7,0.1,1,0.2L76,3.9z M51.5,3.9l-0.3-1.5c0.3-0.1,0.7-0.1,1-0.2l0.3,1.5
				C52.1,3.7,51.8,3.8,51.5,3.9z M74.1,3.6c-0.3-0.1-0.7-0.1-1-0.2l0.2-1.5C73.7,2,74,2,74.3,2.1L74.1,3.6z M53.4,3.5L53.2,2
				c0.3-0.1,0.7-0.1,1-0.2l0.2,1.5C54.1,3.4,53.7,3.5,53.4,3.5z M72.1,3.3c-0.3,0-0.7-0.1-1-0.1l0.2-1.5c0.3,0,0.7,0.1,1,0.1
				L72.1,3.3z M55.4,3.2l-0.2-1.5c0.3,0,0.7-0.1,1-0.1l0.2,1.5C56,3.1,55.7,3.2,55.4,3.2z M70.2,3c-0.3,0-0.7-0.1-1-0.1l0.1-1.5
				c0.3,0,0.7,0.1,1,0.1L70.2,3z M57.3,3l-0.2-1.5c0.3,0,0.7-0.1,1-0.1l0.1,1.5C58,2.9,57.7,3,57.3,3z M68.2,2.9c-0.3,0-0.7,0-1-0.1
				l0.1-1.5c0.3,0,0.7,0,1,0.1L68.2,2.9z M59.3,2.8l-0.1-1.5c0.3,0,0.7,0,1-0.1l0.1,1.5C60,2.8,59.6,2.8,59.3,2.8z M66.2,2.7
				c-0.3,0-0.7,0-1,0l0-1.5c0.3,0,0.7,0,1,0L66.2,2.7z M61.3,2.7l-0.1-1.5c0.3,0,0.7,0,1,0l0,1.5C61.9,2.7,61.6,2.7,61.3,2.7z
				 M64.2,2.7c-0.2,0-0.5,0-0.7,0l-0.3,0l0-1.5l0.3,0c0.2,0,0.5,0,0.7,0L64.2,2.7z"/>
		</g>
		<g>
			<rect x="62.8" y="31.7" fill="#231F20" width="1.5" height="5.5"/>
		</g>
		<g>
			<rect x="62.8" y="92.3" fill="#231F20" width="1.5" height="5.5"/>
		</g>
		<g>
			<rect x="91.1" y="64" fill="#231F20" width="5.5" height="1.5"/>
		</g>
		<g>
			<rect x="30.5" y="64" fill="#231F20" width="5.5" height="1.5"/>
		</g>
		<g>
			
				<rect x="54.4" y="32.9" transform="matrix(0.2584 0.966 -0.966 0.2584 73.4443 -28.401)" fill="#231F20" width="1.7" height="1.5"/>
		</g>
		<g>
			
				<rect x="71.1" y="95.1" transform="matrix(0.259 0.9659 -0.9659 0.259 145.8734 1.5976)" fill="#231F20" width="1.7" height="1.5"/>
		</g>
		<g>
			<rect x="46.6" y="36.1" transform="matrix(0.5 0.866 -0.866 0.5 55.6383 -22.6673)" fill="#231F20" width="1.7" height="1.5"/>
		</g>
		<g>
			
				<rect x="78.8" y="91.9" transform="matrix(0.5001 0.866 -0.866 0.5001 120.0564 -22.6715)" fill="#231F20" width="1.7" height="1.5"/>
		</g>
		<g>
			
				<rect x="34.8" y="47.9" transform="matrix(0.866 0.5001 -0.5001 0.866 29.1054 -11.3137)" fill="#231F20" width="1.7" height="1.5"/>
		</g>
		<g>
			<rect x="90.6" y="80.1" transform="matrix(0.866 0.5 -0.5 0.866 52.6871 -34.8965)" fill="#231F20" width="1.7" height="1.5"/>
		</g>
		<g>
			
				<rect x="31.6" y="55.7" transform="matrix(0.966 0.2584 -0.2584 0.966 15.6797 -6.4673)" fill="#231F20" width="1.7" height="1.5"/>
		</g>
		<g>
			
				<rect x="93.8" y="72.3" transform="matrix(0.966 0.2584 -0.2584 0.966 22.1009 -21.9811)" fill="#231F20" width="1.7" height="1.5"/>
		</g>
		<g>
			
				<rect x="31.7" y="72.2" transform="matrix(0.2578 0.9662 -0.9662 0.2578 94.6952 22.8997)" fill="#231F20" width="1.5" height="1.7"/>
		</g>
		<g>
			
				<rect x="93.9" y="55.6" transform="matrix(0.2579 0.9662 -0.9662 0.2579 124.7644 -49.6057)" fill="#231F20" width="1.5" height="1.7"/>
		</g>
		<g>
			<rect x="34.9" y="80" transform="matrix(0.5001 0.866 -0.866 0.5001 87.8492 9.5421)" fill="#231F20" width="1.5" height="1.7"/>
		</g>
		<g>
			<rect x="90.7" y="47.8" transform="matrix(0.5 0.866 -0.866 0.5 87.8495 -54.8804)" fill="#231F20" width="1.5" height="1.7"/>
		</g>
		<g>
			
				<rect x="46.7" y="91.8" transform="matrix(0.866 0.5001 -0.5001 0.866 52.6895 -11.3124)" fill="#231F20" width="1.5" height="1.7"/>
		</g>
		<g>
			<rect x="78.9" y="36" transform="matrix(0.866 0.5 -0.5 0.866 29.1029 -34.8972)" fill="#231F20" width="1.5" height="1.7"/>
		</g>
		<g>
			
				<rect x="54.5" y="95" transform="matrix(0.9662 0.2578 -0.2578 0.9662 26.5827 -10.9958)" fill="#231F20" width="1.5" height="1.7"/>
		</g>
		<g>
			
				<rect x="71.1" y="32.8" transform="matrix(0.9659 0.2591 -0.2591 0.9659 11.1679 -17.477)" fill="#231F20" width="1.5" height="1.7"/>
		</g>
		<g>
			
				<rect x="85" y="40.9" transform="matrix(0.7071 0.7071 -0.7071 0.7071 55.1901 -48.2148)" fill="#231F20" width="1.5" height="3.2"/>
		</g>
		<g>
			
				<rect x="40.6" y="85.4" transform="matrix(0.7071 0.7071 -0.7071 0.7071 73.6061 -3.7416)" fill="#231F20" width="1.5" height="3.2"/>
		</g>
		<g>
			
				<rect x="84.2" y="86.2" transform="matrix(0.7103 0.7039 -0.7039 0.7103 86.0596 -35.1956)" fill="#231F20" width="3.2" height="1.5"/>
		</g>
		<g>
			
				<rect x="39.7" y="42.1" transform="matrix(0.7103 0.7039 -0.7039 0.7103 42.1068 -16.6398)" fill="#231F20" width="3.2" height="1.5"/>
		</g>
		<path fill="#231F20" d="M80.3,75.2c-0.1-0.3-0.3-0.5-0.5-0.5c-0.3-0.1-0.5,0-0.7,0.2l-1.5,1.5L67.1,65.9c0.2-0.5,0.4-1.1,0.4-1.7
			c0-1.9-1.4-3.5-3.2-3.8V45.8h2.1c0.3,0,0.5-0.1,0.6-0.4c0.1-0.2,0.1-0.5,0-0.8l-2.9-4.9c-0.3-0.5-1-0.5-1.3,0l-2.9,4.9
			c-0.1,0.2-0.1,0.5,0,0.8s0.4,0.4,0.6,0.4h2.1v14.6c-1.8,0.4-3.2,1.9-3.2,3.8c0,2.2,1.8,3.9,3.9,3.9c1,0,1.9-0.4,2.6-1l10.3,10.3
			L75,78.9c-0.2,0.2-0.3,0.5-0.2,0.7c0.1,0.3,0.3,0.5,0.5,0.5l5.5,1.5c0.1,0,0.1,0,0.2,0c0.2,0,0.4-0.1,0.5-0.2
			c0.2-0.2,0.3-0.5,0.2-0.7L80.3,75.2z M63.6,41.6l1.6,2.7H62L63.6,41.6z M63.6,66.6c-1.3,0-2.4-1.1-2.4-2.4s1.1-2.4,2.4-2.4
			c1.3,0,2.4,1.1,2.4,2.4S64.9,66.6,63.6,66.6z M76.9,79l2.2-2.2l0.8,3L76.9,79z"/>
		<g>
			<path fill="#231F20" d="M67.8,120.6h-8.4c-0.3,0-0.6-0.2-0.7-0.5l-1.9-6.1c-8.5-1.2-16.6-4.6-23.4-9.8l-5.8,3
				c-0.3,0.1-0.6,0.1-0.9-0.1l-5.9-5.9c-0.2-0.2-0.3-0.6-0.1-0.9l3-5.9c-5-6.8-8.2-14.8-9.3-23.1l-6.6-2.1c-0.3-0.1-0.5-0.4-0.5-0.7
				V60c0-0.3,0.2-0.6,0.5-0.7l6.7-2.2C15.7,49,19,41.3,24,34.7l-3.4-6.6c-0.1-0.3-0.1-0.6,0.1-0.9l5.9-5.9c0.2-0.2,0.6-0.3,0.9-0.1
				l6.7,3.4c6.5-4.8,14.1-7.9,22.1-9.1l2.3-7.2C58.7,8,59,7.8,59.4,7.8h8.4c0.3,0,0.6,0.2,0.7,0.5l2.3,7.2c8,1.2,15.6,4.3,22.1,9.1
				l6.7-3.4c0.3-0.1,0.6-0.1,0.9,0.1l5.9,5.9c0.2,0.2,0.3,0.6,0.1,0.9l-3.4,6.6c5,6.5,8.3,14.3,9.5,22.4l6.7,2.2
				c0.3,0.1,0.5,0.4,0.5,0.7v8.4c0,0.3-0.2,0.6-0.5,0.7l-6.6,2.1c-1.1,8.4-4.3,16.3-9.3,23.1l3,5.9c0.1,0.3,0.1,0.6-0.1,0.9
				l-5.9,5.9c-0.2,0.2-0.6,0.3-0.9,0.1l-5.8-3c-6.8,5.2-14.9,8.6-23.4,9.8l-1.9,6.1C68.4,120.3,68.1,120.6,67.8,120.6z M59.9,119.1
				h7.3l1.9-6c0.1-0.3,0.3-0.5,0.6-0.5c8.6-1.1,16.7-4.5,23.5-9.9c0.2-0.2,0.5-0.2,0.8-0.1l5.7,2.9l5.2-5.2l-3-5.8
				c-0.1-0.3-0.1-0.6,0.1-0.8c5.1-6.8,8.4-14.8,9.4-23.2c0-0.3,0.2-0.5,0.5-0.6l6.5-2.1v-7.3l-6.7-2.1c-0.3-0.1-0.5-0.3-0.5-0.6
				c-1.2-8.2-4.5-16-9.6-22.5c-0.2-0.2-0.2-0.5-0.1-0.8l3.3-6.5l-5.2-5.2l-6.6,3.4c-0.3,0.1-0.6,0.1-0.8-0.1
				c-6.5-4.9-14.2-8-22.3-9.1c-0.3,0-0.5-0.2-0.6-0.5l-2.3-7.2h-7.3l-2.3,7.2C57.5,16.8,57.3,17,57,17c-8.1,1.1-15.8,4.3-22.3,9.1
				c-0.2,0.2-0.5,0.2-0.8,0.1l-6.6-3.4L22.2,28l3.3,6.5c0.1,0.3,0.1,0.6-0.1,0.8c-5.1,6.5-8.4,14.3-9.6,22.5c0,0.3-0.2,0.5-0.5,0.6
				l-6.7,2.1v7.3l6.5,2.1c0.3,0.1,0.5,0.3,0.5,0.6c1,8.4,4.3,16.5,9.4,23.2c0.2,0.2,0.2,0.5,0.1,0.8l-3,5.8l5.2,5.2l5.7-2.9
				c0.3-0.1,0.6-0.1,0.8,0.1c6.8,5.3,14.9,8.8,23.5,9.9c0.3,0,0.5,0.2,0.6,0.5L59.9,119.1z M63.6,104.7c-22,0-39.9-17.9-39.9-39.9
				c0-22,17.9-39.9,39.9-39.9v0c10.7,0,20.7,4.2,28.2,11.7c7.5,7.5,11.7,17.6,11.7,28.2C103.5,86.8,85.6,104.7,63.6,104.7z
				 M63.6,25.6v0.8c-21.2,0-38.4,17.2-38.4,38.4s17.2,38.4,38.4,38.4c21.2,0,38.4-17.2,38.4-38.4c0-10.3-4-19.9-11.3-27.2
				c-7.3-7.3-16.9-11.3-27.2-11.3V25.6z"/>
		</g>
		<g>
			<path fill="#CED5E0" d="M61,117.6l-2-6.3l-1.4-0.2c-8.3-1.1-16.2-4.4-22.8-9.6l-1.1-0.9l-6,3.1l-3.7-3.7l3.1-6.1l-0.8-1.1
				c-5-6.6-8.1-14.4-9.1-22.6L17,69l-6.8-2.2v-5.2l7-2.2l0.2-1.3c1.2-7.9,4.4-15.5,9.3-21.8l0.9-1.1l-3.5-6.8l3.7-3.7l6.9,3.5
				l1.1-0.8c6.3-4.7,13.8-7.8,21.6-8.8l1.4-0.2l2.4-7.5h5.2l2.4,7.5l1.4,0.2c7.8,1.1,15.3,4.1,21.6,8.9l1.1,0.8l6.9-3.5l3.7,3.7
				L99.7,35l0.9,1.1c4.9,6.4,8.1,13.9,9.3,21.8l0.2,1.3l7,2.2v5.2l-6.8,2.2l-0.2,1.4c-1,8.2-4.1,16-9.1,22.6l-0.8,1.1l3.1,6.1
				l-3.7,3.7l-6-3.1l-1.1,0.9c-6.6,5.2-14.5,8.5-22.8,9.6l-1.4,0.2l-2,6.3H61z M63.6,23.4c-22.8,0-41.4,18.6-41.4,41.4
				s18.6,41.4,41.4,41.4s41.4-18.6,41.4-41.4S86.4,23.4,63.6,23.4z"/>
		</g>
	</g>
</g>
</svg>
