<?xml version="1.0" encoding="utf-8"?>
<!-- Generator: Adobe Illustrator 18.0.0, SVG Export Plug-In . SVG Version: 6.00 Build 0)  -->
<!DOCTYPE svg PUBLIC "-//W3C//DTD SVG 1.1//EN" "http://www.w3.org/Graphics/SVG/1.1/DTD/svg11.dtd">
<svg version="1.1" id="Layer_1" xmlns="http://www.w3.org/2000/svg" xmlns:xlink="http://www.w3.org/1999/xlink" x="0px" y="0px"
	 viewBox="0 0 129.5 129.5" enable-background="new 0 0 129.5 129.5" xml:space="preserve">
<g>
	<g>
		<g>
			<g>
				<path fill="#FFFFFF" d="M97.5,67.6l0-5.8l-6.3-1.5c-0.7-4.2-2.3-8-4.7-11.3l3.4-5.5l-4.1-4.1L80.4,43c-3.3-2.4-7.1-4-11.3-4.7
					L67.6,32h-5.8l-1.4,6.3c-4.2,0.7-8,2.3-11.3,4.7l-5.5-3.4l-4.1,4.1l3.4,5.5c-2.4,3.3-4,7.1-4.7,11.3L32,61.9l0,5.8l6.3,1.4
					c0.7,4.2,2.3,8,4.7,11.3l-3.4,5.5l4.1,4.1l5.5-3.4c3.3,2.4,7.1,4,11.3,4.7l1.4,6.3l5.8,0l1.4-6.3c4.2-0.7,8-2.3,11.3-4.7
					l5.5,3.4l4.1-4.1l-3.4-5.5c2.4-3.3,4-7.1,4.7-11.3L97.5,67.6z"/>
				<path fill="#231F20" d="M61.9,98.2c-0.3,0-0.7-0.2-0.7-0.6l-1.3-5.8c-3.8-0.7-7.5-2.2-10.7-4.4l-5,3.1c-0.3,0.2-0.7,0.1-0.9-0.1
					L39,86.4c-0.2-0.2-0.3-0.6-0.1-0.9l3.1-5c-2.2-3.2-3.7-6.9-4.4-10.7l-5.8-1.3c-0.3-0.1-0.6-0.4-0.6-0.7l0-5.8
					c0-0.3,0.2-0.7,0.6-0.7l5.8-1.3c0.7-3.8,2.2-7.5,4.4-10.7l-3.1-5c-0.2-0.3-0.1-0.7,0.1-0.9l4.1-4.1c0.2-0.2,0.6-0.3,0.9-0.1
					l5,3.2c3.2-2.2,6.9-3.7,10.7-4.4l1.3-5.8c0.1-0.3,0.4-0.6,0.7-0.6h5.8c0.3,0,0.7,0.2,0.7,0.6l1.3,5.8c3.8,0.7,7.5,2.2,10.7,4.4
					l5-3.2c0.3-0.2,0.7-0.1,0.9,0.1l4.1,4.1c0.2,0.2,0.3,0.6,0.1,0.9l-3.2,5c2.2,3.2,3.7,6.9,4.4,10.7l5.8,1.3
					c0.3,0.1,0.6,0.4,0.6,0.7l0,5.8c0,0.3-0.2,0.7-0.6,0.7l-5.8,1.3c-0.7,3.8-2.2,7.5-4.4,10.7l3.2,5c0.2,0.3,0.1,0.7-0.1,0.9
					l-4.1,4.1c-0.2,0.2-0.6,0.3-0.9,0.1l-5-3.2c-3.2,2.2-6.9,3.7-10.7,4.4l-1.3,5.8c-0.1,0.3-0.4,0.6-0.7,0.6L61.9,98.2z M49.1,85.8
					c0.2,0,0.3,0,0.4,0.1c3.2,2.3,7,3.9,11,4.6c0.3,0,0.5,0.3,0.6,0.6l1.3,5.7l4.6,0l1.3-5.7c0.1-0.3,0.3-0.5,0.6-0.6
					c3.9-0.6,7.7-2.2,11-4.6c0.2-0.2,0.6-0.2,0.8,0l5,3.1l3.3-3.3l-3.1-5c-0.2-0.3-0.2-0.6,0-0.8c2.3-3.2,3.9-7,4.5-11
					c0-0.3,0.3-0.5,0.6-0.6l5.7-1.3l0-4.6L91,61.1c-0.3-0.1-0.5-0.3-0.6-0.6c-0.6-3.9-2.2-7.7-4.6-11c-0.2-0.2-0.2-0.6,0-0.8l3.1-5
					l-3.3-3.3l-5,3.1c-0.3,0.2-0.6,0.1-0.8,0c-3.2-2.3-7-3.9-11-4.6c-0.3,0-0.5-0.3-0.6-0.6L67,32.8h-4.6l-1.3,5.7
					c-0.1,0.3-0.3,0.5-0.6,0.6c-3.9,0.6-7.7,2.2-11,4.5c-0.2,0.2-0.6,0.2-0.8,0l-5-3.1l-3.3,3.3l3.1,5c0.2,0.3,0.2,0.6,0,0.8
					c-2.3,3.2-3.9,7-4.6,11c0,0.3-0.3,0.5-0.6,0.6l-5.7,1.3l0,4.6l5.7,1.3c0.3,0.1,0.5,0.3,0.6,0.6c0.6,3.9,2.2,7.7,4.6,11
					c0.2,0.2,0.2,0.6,0,0.8l-3.1,5l3.3,3.3l5-3.1C48.8,85.8,49,85.8,49.1,85.8z"/>
			</g>
			<g>
				<circle fill="#E6E9EE" cx="64.7" cy="64.8" r="21.1"/>
			</g>
			<g>
				<path fill="#231F20" d="M64.8,83c-0.2,0-0.4,0-0.6,0l0-1.5c0.2,0,0.4,0,0.6,0c0.1,0,0.2,0,0.4,0l0,1.5C65.1,83,64.9,83,64.8,83z
					 M67.3,82.8l-0.2-1.5c0.3,0,0.6-0.1,0.9-0.2l0.3,1.5C68,82.7,67.6,82.7,67.3,82.8z M62.1,82.8c-0.3-0.1-0.7-0.1-1-0.2l0.3-1.5
					c0.3,0.1,0.6,0.1,0.9,0.2L62.1,82.8z M70.3,82.1l-0.5-1.4c0.3-0.1,0.6-0.2,0.9-0.3l0.5,1.4C71,81.9,70.7,82,70.3,82.1z M59,82
					c-0.3-0.1-0.7-0.2-1-0.4l0.6-1.4c0.3,0.1,0.6,0.2,0.9,0.3L59,82z M73.2,80.9l-0.7-1.3c0.3-0.1,0.6-0.3,0.8-0.5l0.8,1.3
					C73.8,80.5,73.5,80.7,73.2,80.9z M56.2,80.8c-0.3-0.2-0.6-0.3-0.9-0.5L56,79c0.3,0.2,0.5,0.3,0.8,0.5L56.2,80.8z M75.8,79.2
					L74.9,78c0.3-0.2,0.5-0.4,0.7-0.6l1,1.1C76.4,78.8,76.1,79,75.8,79.2z M53.5,79.1c-0.3-0.2-0.5-0.4-0.8-0.7l1-1.1
					c0.2,0.2,0.5,0.4,0.7,0.6L53.5,79.1z M78.1,77.1l-1.1-1c0.2-0.2,0.4-0.5,0.6-0.7l1.2,1C78.6,76.6,78.4,76.8,78.1,77.1z M51.3,77
					c-0.2-0.3-0.5-0.5-0.7-0.8l1.2-0.9c0.2,0.2,0.4,0.5,0.6,0.7L51.3,77z M80.1,74.6l-1.3-0.8c0.2-0.3,0.3-0.5,0.5-0.8l1.3,0.7
					C80.4,74,80.2,74.3,80.1,74.6z M49.4,74.5c-0.2-0.3-0.4-0.6-0.5-0.9l1.3-0.7c0.2,0.3,0.3,0.6,0.5,0.8L49.4,74.5z M81.5,71.9
					l-1.4-0.6c0.1-0.3,0.2-0.6,0.3-0.9l1.4,0.5C81.8,71.2,81.7,71.5,81.5,71.9z M47.9,71.7c-0.1-0.3-0.3-0.6-0.4-1l1.4-0.5
					c0.1,0.3,0.2,0.6,0.3,0.9L47.9,71.7z M82.5,68.9L81,68.5c0.1-0.3,0.1-0.6,0.2-0.9l1.5,0.3C82.6,68.2,82.6,68.5,82.5,68.9z
					 M47,68.7c-0.1-0.3-0.1-0.7-0.2-1l1.5-0.2c0.1,0.3,0.1,0.6,0.2,0.9L47,68.7z M82.9,65.8l-1.5-0.1c0-0.3,0-0.6,0-1H83
					C83,65.1,82.9,65.4,82.9,65.8z M46.6,65.6c0-0.3,0-0.6,0-0.9l0-0.1l1.5,0l0,0.1c0,0.3,0,0.6,0,0.8L46.6,65.6z M81.4,64.1
					c0-0.3,0-0.6-0.1-1l1.5-0.1c0,0.3,0.1,0.7,0.1,1L81.4,64.1z M48.2,62.7l-1.5-0.2c0-0.3,0.1-0.7,0.2-1l1.5,0.3
					C48.3,62.1,48.2,62.4,48.2,62.7z M81.1,61.2c-0.1-0.3-0.1-0.6-0.2-0.9l1.4-0.4c0.1,0.3,0.2,0.7,0.2,1L81.1,61.2z M48.8,59.9
					l-1.4-0.4c0.1-0.3,0.2-0.7,0.3-1l1.4,0.5C49,59.3,48.9,59.6,48.8,59.9z M80.2,58.5c-0.1-0.3-0.2-0.6-0.4-0.9l1.4-0.6
					c0.1,0.3,0.3,0.6,0.4,1L80.2,58.5z M49.8,57.2l-1.3-0.7c0.2-0.3,0.3-0.6,0.5-0.9l1.3,0.8C50.1,56.7,50,57,49.8,57.2z M78.9,55.9
					c-0.2-0.3-0.3-0.5-0.5-0.8l1.2-0.9c0.2,0.3,0.4,0.6,0.6,0.9L78.9,55.9z M51.3,54.8l-1.2-0.9c0.2-0.3,0.4-0.6,0.6-0.8l1.2,1
					C51.7,54.3,51.5,54.5,51.3,54.8z M77.2,53.6c-0.2-0.2-0.4-0.5-0.7-0.7l1.1-1.1c0.2,0.2,0.5,0.5,0.7,0.8L77.2,53.6z M53.2,52.7
					l-1-1.1c0.3-0.2,0.5-0.5,0.8-0.7l1,1.1C53.7,52.2,53.5,52.4,53.2,52.7z M75.1,51.7c-0.2-0.2-0.5-0.4-0.8-0.6l0.9-1.2
					c0.3,0.2,0.6,0.4,0.8,0.6L75.1,51.7z M55.5,50.9l-0.8-1.2c0.3-0.2,0.6-0.4,0.9-0.6l0.8,1.3C56,50.5,55.7,50.7,55.5,50.9z
					 M72.7,50.1c-0.3-0.2-0.6-0.3-0.9-0.4l0.6-1.4c0.3,0.1,0.6,0.3,0.9,0.5L72.7,50.1z M58,49.5l-0.6-1.4c0.3-0.1,0.6-0.3,1-0.4
					l0.5,1.4C58.6,49.2,58.3,49.3,58,49.5z M70.1,48.9c-0.3-0.1-0.6-0.2-0.9-0.3l0.4-1.4c0.3,0.1,0.7,0.2,1,0.3L70.1,48.9z
					 M60.7,48.5l-0.4-1.5c0.3-0.1,0.7-0.2,1-0.2l0.3,1.5C61.3,48.4,61,48.5,60.7,48.5z M67.3,48.2c-0.3,0-0.6-0.1-0.9-0.1l0.1-1.5
					c0.3,0,0.7,0.1,1,0.1L67.3,48.2z M63.5,48.1l-0.1-1.5c0.3,0,0.7,0,1,0l0,1.5C64.1,48.1,63.8,48.1,63.5,48.1z"/>
			</g>
			<g>
				<circle fill="#FFFFFF" cx="64.7" cy="64.8" r="11.8"/>
				<path fill="#231F20" d="M64.7,77.3c-6.9,0-12.6-5.6-12.6-12.6c0-6.9,5.6-12.6,12.6-12.6s12.6,5.6,12.6,12.6
					C77.3,71.7,71.7,77.3,64.7,77.3z M64.7,53.7c-6.1,0-11.1,5-11.1,11.1s5,11.1,11.1,11.1c6.1,0,11.1-5,11.1-11.1
					S70.9,53.7,64.7,53.7z"/>
			</g>
			<g>
				<circle fill="#FFFFFF" cx="64.7" cy="64.8" r="7.6"/>
				<path fill="#231F20" d="M64.7,73.1c-4.6,0-8.3-3.7-8.3-8.3c0-4.6,3.7-8.3,8.3-8.3c4.6,0,8.3,3.7,8.3,8.3
					C73.1,69.3,69.3,73.1,64.7,73.1z M64.7,57.9c-3.8,0-6.8,3.1-6.8,6.8c0,3.8,3.1,6.8,6.8,6.8c3.8,0,6.8-3.1,6.8-6.8
					C71.6,61,68.5,57.9,64.7,57.9z"/>
			</g>
		</g>
		<g>
			<g>
				<path fill="#231F20" d="M17.8,8.1H9c-0.4,0-0.8-0.3-0.8-0.7c0-0.4,0.3-0.8,0.8-0.8h8.8c0.4,0,0.8,0.3,0.8,0.8
					C18.6,7.8,18.2,8.1,17.8,8.1z"/>
			</g>
			<g>
				<path fill="#231F20" d="M9.8,4.9H5.5c-0.4,0-0.8-0.3-0.8-0.8c0-0.4,0.3-0.7,0.8-0.7h4.3c0.4,0,0.8,0.3,0.8,0.7
					C10.6,4.5,10.3,4.9,9.8,4.9z"/>
			</g>
			<g>
				<path fill="#231F20" d="M5,8.1H0.9c-0.4,0-0.8-0.3-0.8-0.7c0-0.4,0.3-0.8,0.8-0.8H5c0.4,0,0.8,0.3,0.8,0.8
					C5.7,7.8,5.4,8.1,5,8.1z"/>
			</g>
			<g>
				<path fill="#231F20" d="M13.8,4.9H13c-0.4,0-0.8-0.3-0.8-0.8c0-0.4,0.3-0.7,0.8-0.7h0.8c0.4,0,0.8,0.3,0.8,0.7
					C14.6,4.5,14.2,4.9,13.8,4.9z"/>
			</g>
		</g>
		<g>
			<g>
				<path fill="#231F20" d="M126.8,128.9h-8.8c-0.4,0-0.8-0.3-0.8-0.8c0-0.4,0.3-0.8,0.8-0.8h8.8c0.4,0,0.8,0.3,0.8,0.8
					C127.5,128.6,127.2,128.9,126.8,128.9z"/>
			</g>
			<g>
				<path fill="#231F20" d="M118.8,125.7h-4.3c-0.4,0-0.8-0.3-0.8-0.8c0-0.4,0.3-0.8,0.8-0.8h4.3c0.4,0,0.8,0.3,0.8,0.8
					C119.5,125.4,119.2,125.7,118.8,125.7z"/>
			</g>
			<g>
				<path fill="#231F20" d="M113.9,128.9h-4.1c-0.4,0-0.8-0.3-0.8-0.8c0-0.4,0.3-0.8,0.8-0.8h4.1c0.4,0,0.8,0.3,0.8,0.8
					C114.7,128.6,114.3,128.9,113.9,128.9z"/>
			</g>
			<g>
				<path fill="#231F20" d="M122.8,125.7h-0.8c-0.4,0-0.8-0.3-0.8-0.8c0-0.4,0.3-0.8,0.8-0.8h0.8c0.4,0,0.8,0.3,0.8,0.8
					C123.5,125.4,123.2,125.7,122.8,125.7z"/>
			</g>
		</g>
		<g>
			<g>
				<path fill="#231F20" d="M68.8,129.5c-0.2,0-0.4-0.1-0.5-0.2c-0.2-0.1-0.2-0.3-0.2-0.5v-21.5c0-0.4,0.3-0.7,0.7-0.7
					c8.6-0.8,16.6-4.2,23.1-9.8c0.3-0.3,0.7-0.2,1,0l15.2,15.2c0.1,0.1,0.2,0.3,0.2,0.6c0,0.2-0.1,0.4-0.2,0.5
					C97.2,122.7,83.3,128.6,68.8,129.5C68.8,129.5,68.8,129.5,68.8,129.5z M69.5,107.9v20c13.6-1,26.6-6.5,36.9-15.5L92.3,98.3
					C85.7,103.7,77.9,107,69.5,107.9z"/>
			</g>
			<g>
				<path fill="#FFFFFF" d="M70.8,109c7.8-1.1,15.2-4.2,21.4-9.1l12.4,12.4c-9.6,8-21.4,13-33.8,14.2V109z"/>
			</g>
			<g>
				<path fill="#231F20" d="M22.4,60.6H0.9c-0.2,0-0.4-0.1-0.6-0.2S0.1,60,0.1,59.8c1.1-14.3,6.8-27.6,16.4-38.3
					c0.1-0.2,0.3-0.2,0.5-0.2c0.2,0,0.4,0.1,0.6,0.2l15.2,15.2c0.3,0.3,0.3,0.7,0,1c-5.4,6.3-8.7,14-9.7,22.2
					C23.1,60.3,22.8,60.6,22.4,60.6z M1.7,59.1h20c1.1-8,4.3-15.6,9.5-21.8L17.1,23.1C8.2,33.3,2.9,45.7,1.7,59.1z"/>
			</g>
			<g>
				<path fill="#FF7058" d="M3.1,57.8C4.4,45.6,9.3,34.4,17.2,25l12.4,12.4c-4.7,6-7.7,13-8.9,20.5H3.1z"/>
			</g>
			<g>
				<path fill="#231F20" d="M38.1,32.3c-0.2,0-0.4-0.1-0.5-0.2L22.4,16.9c-0.1-0.1-0.2-0.3-0.2-0.6c0-0.2,0.1-0.4,0.3-0.5
					C34.2,5.6,49.2,0,64.7,0C80.2,0,95.3,5.6,107,15.8c0.2,0.1,0.3,0.3,0.3,0.5c0,0.2-0.1,0.4-0.2,0.6L91.8,32.1
					c-0.3,0.3-0.7,0.3-1,0.1c-7.5-6-16.5-9.2-26.1-9.2c-9.6,0-18.6,3.2-26.1,9.2C38.4,32.3,38.3,32.3,38.1,32.3z M64.7,21.5
					c9.7,0,18.9,3.1,26.5,9.1l14.2-14.2C94,6.8,79.6,1.5,64.7,1.5S35.4,6.8,24,16.4l14.2,14.2C45.8,24.6,55,21.5,64.7,21.5z"/>
			</g>
			<g>
				<path fill="#E6E9EE" d="M91.1,28.9c-7.7-5.7-16.8-8.7-26.4-8.7c-9.6,0-18.7,3-26.4,8.7L25.8,16.5c11-8.8,24.7-13.7,38.9-13.7
					s27.9,4.9,38.9,13.7L91.1,28.9z"/>
			</g>
			<g>
				<path fill="#231F20" d="M60.7,129.5C60.6,129.5,60.6,129.5,60.7,129.5c-14.5-0.9-28.4-6.8-39.2-16.5c-0.2-0.1-0.2-0.3-0.2-0.5
					c0-0.2,0.1-0.4,0.2-0.6l15.2-15.2c0.3-0.3,0.7-0.3,1,0c6.6,5.6,14.6,9,23.1,9.8c0.4,0,0.7,0.4,0.7,0.7v21.5
					c0,0.2-0.1,0.4-0.2,0.5C61,129.4,60.8,129.5,60.7,129.5z M23,112.4c10.3,9,23.3,14.5,36.9,15.5v-20c-8.4-0.9-16.2-4.2-22.8-9.6
					L23,112.4z"/>
			</g>
			<g>
				<path fill="#FFFFFF" d="M58.7,126.6c-12.4-1.2-24.3-6.2-33.8-14.2l12.4-12.4c6.2,4.9,13.6,8,21.4,9.1V126.6z"/>
			</g>
			<g>
				<path fill="#231F20" d="M16.2,107.4C16.2,107.4,16.2,107.4,16.2,107.4c-0.2,0-0.4-0.1-0.6-0.3C6.1,96.1,0.7,82.5,0,68
					c0-0.2,0.1-0.4,0.2-0.6c0.1-0.1,0.3-0.2,0.5-0.2h21.5c0.4,0,0.7,0.3,0.7,0.7c0.6,8.5,3.7,16.4,9,23c0.2,0.3,0.2,0.7-0.1,1
					l-15.2,15.2C16.6,107.3,16.4,107.4,16.2,107.4z M1.5,68.7c0.8,13.6,5.9,26.3,14.7,36.8l14.2-14.2c-5.1-6.6-8.1-14.4-8.9-22.6
					H1.5z"/>
			</g>
			<g>
				<path fill="#FFFFFF" d="M16.4,103.7C8.5,94,3.9,82.4,2.9,70h17.6c0.9,7.7,3.8,15,8.4,21.3L16.4,103.7z"/>
			</g>
			<g>
				<path fill="#231F20" d="M113.2,107.4c-0.2,0-0.4-0.1-0.5-0.2L97.4,92c-0.3-0.3-0.3-0.7-0.1-1c6-7.5,9.2-16.5,9.2-26.1
					c0-9.9-3.6-19.5-10-27.1c-0.3-0.3-0.2-0.7,0-1l15.2-15.2c0.1-0.1,0.3-0.2,0.6-0.2c0.2,0,0.4,0.1,0.5,0.2
					c10.7,11.9,16.6,27.3,16.6,43.3c0,15.5-5.6,30.6-15.7,42.3C113.6,107.3,113.4,107.4,113.2,107.4
					C113.2,107.4,113.2,107.4,113.2,107.4z M99,91.4l14.2,14.2c9.6-11.4,14.9-25.8,14.9-40.7c0-15.4-5.6-30.2-15.7-41.7L98.2,37.3
					c6.4,7.8,9.9,17.5,9.9,27.6C108.1,74.5,104.9,83.7,99,91.4z"/>
			</g>
			<g>
				<path fill="#84DBFF" d="M100.6,91.3c5.7-7.7,8.7-16.8,8.7-26.4c0-10-3.4-19.6-9.5-27.5L112.2,25c9.4,11.2,14.5,25.2,14.5,39.9
					c0,14.1-4.9,27.9-13.7,38.9L100.6,91.3z"/>
			</g>
		</g>
		<g>
			<g>
				<path fill="#231F20" d="M118.1,6.6c-0.2,0-0.4-0.1-0.5-0.2c-0.3-0.3-0.3-0.8,0-1.1l1.4-1.4c0.3-0.3,0.8-0.3,1.1,0
					c0.3,0.3,0.3,0.8,0,1.1l-1.4,1.4C118.5,6.5,118.3,6.6,118.1,6.6z"/>
			</g>
			<g>
				<path fill="#231F20" d="M113.7,11c-0.2,0-0.4-0.1-0.5-0.2c-0.3-0.3-0.3-0.8,0-1.1l1.4-1.4c0.3-0.3,0.8-0.3,1.1,0
					c0.3,0.3,0.3,0.8,0,1.1l-1.4,1.4C114.1,10.9,113.9,11,113.7,11z"/>
			</g>
			<g>
				<path fill="#231F20" d="M119.5,11c-0.2,0-0.4-0.1-0.5-0.2l-1.4-1.4c-0.3-0.3-0.3-0.8,0-1.1c0.3-0.3,0.8-0.3,1.1,0l1.4,1.4
					c0.3,0.3,0.3,0.8,0,1.1C119.9,10.9,119.7,11,119.5,11z"/>
			</g>
			<g>
				<path fill="#231F20" d="M115.1,6.6c-0.2,0-0.4-0.1-0.5-0.2L113.2,5c-0.3-0.3-0.3-0.8,0-1.1c0.3-0.3,0.8-0.3,1.1,0l1.4,1.4
					c0.3,0.3,0.3,0.8,0,1.1C115.5,6.5,115.3,6.6,115.1,6.6z"/>
			</g>
		</g>
		<g>
			<g>
				<path fill="#231F20" d="M15.3,118.4c-0.2,0-0.4-0.1-0.5-0.2c-0.3-0.3-0.3-0.8,0-1.1l1.4-1.4c0.3-0.3,0.8-0.3,1.1,0
					c0.3,0.3,0.3,0.8,0,1.1l-1.4,1.4C15.7,118.3,15.5,118.4,15.3,118.4z"/>
			</g>
			<g>
				<path fill="#231F20" d="M10.9,122.8c-0.2,0-0.4-0.1-0.5-0.2c-0.3-0.3-0.3-0.8,0-1.1l1.4-1.4c0.3-0.3,0.8-0.3,1.1,0
					c0.3,0.3,0.3,0.8,0,1.1l-1.4,1.4C11.3,122.7,11.1,122.8,10.9,122.8z"/>
			</g>
			<g>
				<path fill="#231F20" d="M16.7,122.8c-0.2,0-0.4-0.1-0.5-0.2l-1.4-1.4c-0.3-0.3-0.3-0.8,0-1.1c0.3-0.3,0.8-0.3,1.1,0l1.4,1.4
					c0.3,0.3,0.3,0.8,0,1.1C17.1,122.7,16.9,122.8,16.7,122.8z"/>
			</g>
			<g>
				<path fill="#231F20" d="M12.3,118.4c-0.2,0-0.4-0.1-0.5-0.2l-1.4-1.4c-0.3-0.3-0.3-0.8,0-1.1c0.3-0.3,0.8-0.3,1.1,0l1.4,1.4
					c0.3,0.3,0.3,0.8,0,1.1C12.7,118.3,12.5,118.4,12.3,118.4z"/>
			</g>
		</g>
	</g>
</g>
</svg>
