<?xml version="1.0" encoding="utf-8"?>
<!-- Generator: Adobe Illustrator 18.0.0, SVG Export Plug-In . SVG Version: 6.00 Build 0)  -->
<!DOCTYPE svg PUBLIC "-//W3C//DTD SVG 1.1//EN" "http://www.w3.org/Graphics/SVG/1.1/DTD/svg11.dtd">
<svg version="1.1" id="Layer_1" xmlns="http://www.w3.org/2000/svg" xmlns:xlink="http://www.w3.org/1999/xlink" x="0px" y="0px"
	 viewBox="0 0 129.5 129.5" enable-background="new 0 0 129.5 129.5" xml:space="preserve">
<g>
	<g>
		<g>
			<path fill="#231F20" d="M12.5,4.6c-0.2,0-0.4-0.1-0.5-0.2c-0.3-0.3-0.3-0.8,0-1.1l1.4-1.4c0.3-0.3,0.8-0.3,1.1,0
				c0.3,0.3,0.3,0.8,0,1.1L13,4.3C12.9,4.5,12.7,4.6,12.5,4.6z"/>
		</g>
		<g>
			<path fill="#231F20" d="M8.2,8.8C8,8.8,7.8,8.8,7.7,8.6c-0.3-0.3-0.3-0.8,0-1.1L9,6.2c0.3-0.3,0.8-0.3,1.1,0
				c0.3,0.3,0.3,0.8,0,1.1L8.7,8.6C8.6,8.8,8.4,8.8,8.2,8.8z"/>
		</g>
		<g>
			<path fill="#231F20" d="M13.9,8.8c-0.2,0-0.4-0.1-0.5-0.2l-1.4-1.4c-0.3-0.3-0.3-0.8,0-1.1c0.3-0.3,0.8-0.3,1.1,0l1.4,1.4
				c0.3,0.3,0.3,0.8,0,1.1C14.2,8.8,14,8.8,13.9,8.8z"/>
		</g>
		<g>
			<path fill="#231F20" d="M9.6,4.6C9.4,4.6,9.2,4.5,9,4.3L7.7,3c-0.3-0.3-0.3-0.8,0-1.1c0.3-0.3,0.8-0.3,1.1,0l1.4,1.4
				c0.3,0.3,0.3,0.8,0,1.1C9.9,4.5,9.8,4.6,9.6,4.6z"/>
		</g>
		<g>
			<path fill="#231F20" d="M126.2,20.3c-0.2,0-0.4-0.1-0.5-0.2c-0.3-0.3-0.3-0.8,0-1.1l1.4-1.4c0.3-0.3,0.8-0.3,1.1,0
				c0.3,0.3,0.3,0.8,0,1.1l-1.4,1.4C126.6,20.2,126.4,20.3,126.2,20.3z"/>
		</g>
		<g>
			<path fill="#231F20" d="M121.9,24.6c-0.2,0-0.4-0.1-0.5-0.2c-0.3-0.3-0.3-0.8,0-1.1l1.4-1.4c0.3-0.3,0.8-0.3,1.1,0
				c0.3,0.3,0.3,0.8,0,1.1l-1.4,1.4C122.3,24.5,122.1,24.6,121.9,24.6z"/>
		</g>
		<g>
			<path fill="#231F20" d="M127.6,24.6c-0.2,0-0.4-0.1-0.5-0.2l-1.4-1.4c-0.3-0.3-0.3-0.8,0-1.1c0.3-0.3,0.8-0.3,1.1,0l1.4,1.4
				c0.3,0.3,0.3,0.8,0,1.1C128,24.5,127.8,24.6,127.6,24.6z"/>
		</g>
		<g>
			<path fill="#231F20" d="M123.3,20.3c-0.2,0-0.4-0.1-0.5-0.2l-1.4-1.4c-0.3-0.3-0.3-0.8,0-1.1c0.3-0.3,0.8-0.3,1.1,0l1.4,1.4
				c0.3,0.3,0.3,0.8,0,1.1C123.7,20.2,123.5,20.3,123.3,20.3z"/>
		</g>
		<g>
			<path fill="#231F20" d="M51.7,123.5c-0.2,0-0.4-0.1-0.5-0.2c-0.3-0.3-0.3-0.8,0-1.1l1.4-1.4c0.3-0.3,0.8-0.3,1.1,0
				c0.3,0.3,0.3,0.8,0,1.1l-1.4,1.4C52.1,123.4,51.9,123.5,51.7,123.5z"/>
		</g>
		<g>
			<path fill="#231F20" d="M47.4,127.8c-0.2,0-0.4-0.1-0.5-0.2c-0.3-0.3-0.3-0.8,0-1.1l1.4-1.4c0.3-0.3,0.8-0.3,1.1,0
				c0.3,0.3,0.3,0.8,0,1.1l-1.4,1.4C47.8,127.7,47.6,127.8,47.4,127.8z"/>
		</g>
		<g>
			<path fill="#231F20" d="M53.1,127.8c-0.2,0-0.4-0.1-0.5-0.2l-1.4-1.4c-0.3-0.3-0.3-0.8,0-1.1c0.3-0.3,0.8-0.3,1.1,0l1.4,1.4
				c0.3,0.3,0.3,0.8,0,1.1C53.5,127.7,53.3,127.8,53.1,127.8z"/>
		</g>
		<g>
			<path fill="#231F20" d="M48.8,123.5c-0.2,0-0.4-0.1-0.5-0.2l-1.4-1.4c-0.3-0.3-0.3-0.8,0-1.1c0.3-0.3,0.8-0.3,1.1,0l1.4,1.4
				c0.3,0.3,0.3,0.8,0,1.1C49.2,123.4,49,123.5,48.8,123.5z"/>
		</g>
		<polygon fill="#E6E9EE" points="78.5,104.4 48.5,104.4 52.8,109.8 74.2,109.8 		"/>
		<rect x="14.3" y="39.3" fill="#84DBFF" width="98.4" height="54.2"/>
		<circle fill="#FFFFFF" cx="63.5" cy="15.1" r="8.3"/>
		<path fill="#CED5E0" d="M63.5,20.4c-2.9,0-5.3-2.4-5.3-5.3c0-2.9,2.4-5.3,5.3-5.3c2.9,0,5.3,2.4,5.3,5.3
			C68.8,18,66.4,20.4,63.5,20.4z"/>
		<circle fill="#FFFFFF" cx="95.4" cy="23.4" r="8.3"/>
		<path fill="#FF7058" d="M95.4,28.6c-2.9,0-5.3-2.4-5.3-5.3c0-2.9,2.4-5.3,5.3-5.3c2.9,0,5.3,2.4,5.3,5.3
			C100.7,26.3,98.4,28.6,95.4,28.6z"/>
		<circle fill="#FFFFFF" cx="31.6" cy="23.4" r="8.3"/>
		<path fill="#84DBFF" d="M31.6,28.6c-2.9,0-5.3-2.4-5.3-5.3c0-2.9,2.4-5.3,5.3-5.3c2.9,0,5.3,2.4,5.3,5.3
			C36.9,26.3,34.5,28.6,31.6,28.6z"/>
		<circle fill="#FFFFFF" cx="63.5" cy="72.8" r="10.7"/>
		<path fill="#231F20" d="M63.5,84.3c-6.3,0-11.5-5.2-11.5-11.5c0-6.3,5.2-11.5,11.5-11.5c6.3,0,11.5,5.2,11.5,11.5
			C75,79.2,69.9,84.3,63.5,84.3z M63.5,62.8c-5.5,0-10,4.5-10,10c0,5.5,4.5,10,10,10c5.5,0,10-4.5,10-10
			C73.5,67.3,69,62.8,63.5,62.8z"/>
		<circle fill="#FFD05B" cx="63.5" cy="72.8" r="7.3"/>
		<line fill="#FFFFFF" x1="63.5" y1="23.4" x2="63.5" y2="62.1"/>
		<polygon fill="#FFFFFF" points="90.2,48.7 90.2,74.3 94.1,74.3 94.1,81.9 101.7,74.3 128.8,74.3 128.8,48.7 		"/>
		<rect x="93.2" y="51.7" fill="#4CDBC4" width="32.6" height="19.6"/>
		<path fill="#FFFFFF" d="M106.8,57.9v7.3c0,0.6,0.7,1,1.2,0.6l5-3.6c0.4-0.3,0.4-0.9,0-1.2l-5-3.6
			C107.5,56.9,106.8,57.3,106.8,57.9z"/>
		<rect x="0.7" y="53.1" fill="#FFFFFF" width="41.7" height="27"/>
		<g>
			
				<rect x="68.4" y="63" transform="matrix(0.8228 0.5683 -0.5683 0.8228 48.1951 -28.1053)" fill="#231F20" width="1.5" height="0.5"/>
			
				<rect x="72.8" y="56.4" transform="matrix(0.8231 0.5679 -0.5679 0.8231 45.3013 -31.7257)" fill="#231F20" width="1.5" height="1"/>
			
				<rect x="89.9" y="31.7" transform="matrix(0.8225 0.5687 -0.5687 0.8225 34.3725 -45.8433)" fill="#231F20" width="1.5" height="1"/>
			
				<rect x="70.6" y="59.7" transform="matrix(0.8228 0.5683 -0.5683 0.8228 46.8142 -29.8632)" fill="#231F20" width="1.5" height="1"/>
			
				<rect x="71.7" y="58" transform="matrix(0.8228 0.5683 -0.5683 0.8228 46.0793 -30.8014)" fill="#231F20" width="1.5" height="1"/>
			
				<rect x="69.4" y="61.3" transform="matrix(0.8228 0.5683 -0.5683 0.8228 47.553 -28.926)" fill="#231F20" width="1.5" height="1"/>
			
				<rect x="85.3" y="38.2" transform="matrix(0.8228 0.5683 -0.5683 0.8228 37.267 -42.0596)" fill="#231F20" width="1.5" height="1"/>
			
				<rect x="88.8" y="33.3" transform="matrix(0.8225 0.5687 -0.5687 0.8225 35.1072 -44.9039)" fill="#231F20" width="1.5" height="1"/>
			
				<rect x="75.1" y="53.1" transform="matrix(0.8228 0.5683 -0.5683 0.8228 43.8762 -33.6159)" fill="#231F20" width="1.5" height="1"/>
			
				<rect x="80.8" y="44.8" transform="matrix(0.8228 0.5683 -0.5683 0.8228 40.2091 -38.309)" fill="#231F20" width="1.5" height="1"/>
			
				<rect x="83.1" y="41.5" transform="matrix(0.8225 0.5687 -0.5687 0.8225 38.781 -40.208)" fill="#231F20" width="1.5" height="1"/>
			
				<rect x="81.9" y="43.2" transform="matrix(0.8228 0.5683 -0.5683 0.8228 39.4752 -39.2477)" fill="#231F20" width="1.5" height="1"/>
			
				<rect x="79.7" y="46.5" transform="matrix(0.8232 0.5678 -0.5678 0.8232 40.8921 -37.3468)" fill="#231F20" width="1.5" height="1"/>
			
				<rect x="74" y="54.7" transform="matrix(0.8228 0.5683 -0.5683 0.8228 44.6106 -32.6776)" fill="#231F20" width="1.5" height="1"/>
			
				<rect x="84.2" y="39.9" transform="matrix(0.8228 0.5683 -0.5683 0.8228 38.0014 -41.1213)" fill="#231F20" width="1.5" height="1"/>
			
				<rect x="78.5" y="48.1" transform="matrix(0.8228 0.5683 -0.5683 0.8228 41.6732 -36.4305)" fill="#231F20" width="1.5" height="1"/>
			
				<rect x="76.2" y="51.4" transform="matrix(0.8228 0.5683 -0.5683 0.8228 43.1419 -34.5539)" fill="#231F20" width="1.5" height="1"/>
			
				<rect x="77.4" y="49.8" transform="matrix(0.8228 0.5683 -0.5683 0.8228 42.4123 -35.4941)" fill="#231F20" width="1.5" height="1"/>
			
				<rect x="57.1" y="63" transform="matrix(-0.8228 0.5683 -0.5683 -0.8228 141.4327 82.3855)" fill="#231F20" width="1.5" height="0.5"/>
			
				<rect x="40.2" y="38.2" transform="matrix(0.8228 -0.5683 0.5683 0.8228 -14.7607 30.1411)" fill="#231F20" width="1.5" height="1"/>
			
				<rect x="41.3" y="39.9" transform="matrix(0.8228 -0.5683 0.5683 0.8228 -15.4947 31.0764)" fill="#231F20" width="1.5" height="1"/>
			
				<rect x="42.7" y="41.3" transform="matrix(0.5682 0.8229 -0.8229 0.5682 53.2565 -17.4218)" fill="#231F20" width="1" height="1.5"/>
			
				<rect x="36.8" y="33.3" transform="matrix(0.8228 -0.5683 0.5683 0.8228 -12.5569 27.3214)" fill="#231F20" width="1.5" height="1"/>
			
				<rect x="43.6" y="43.2" transform="matrix(-0.8228 0.5683 -0.5683 -0.8228 105.6954 54.4122)" fill="#231F20" width="1.5" height="1"/>
			
				<rect x="35.7" y="31.7" transform="matrix(0.8228 -0.5683 0.5683 0.8228 -11.823 26.3876)" fill="#231F20" width="1.5" height="1"/>
			
				<rect x="48.2" y="49.8" transform="matrix(-0.8232 0.5678 -0.5678 -0.8232 117.7251 63.8727)" fill="#231F20" width="1.5" height="1"/>
			
				<rect x="51.6" y="54.7" transform="matrix(-0.8225 0.5687 -0.5687 -0.8225 126.7694 70.861)" fill="#231F20" width="1.5" height="1"/>
			
				<rect x="52.7" y="56.4" transform="matrix(-0.8225 0.5687 -0.5687 -0.8225 129.7796 73.2156)" fill="#231F20" width="1.5" height="1"/>
			
				<rect x="53.9" y="58" transform="matrix(-0.8228 0.5683 -0.5683 -0.8228 132.7804 75.6091)" fill="#231F20" width="1.5" height="1"/>
			
				<rect x="55" y="59.7" transform="matrix(-0.8228 0.5683 -0.5683 -0.8228 135.7902 77.9647)" fill="#231F20" width="1.5" height="1"/>
			
				<rect x="56.1" y="61.3" transform="matrix(-0.8228 0.5683 -0.5683 -0.8228 138.799 80.3246)" fill="#231F20" width="1.5" height="1"/>
			
				<rect x="50.4" y="53.1" transform="matrix(-0.8231 0.5679 -0.5679 -0.8231 123.7447 68.5822)" fill="#231F20" width="1.5" height="1"/>
			
				<rect x="44.8" y="44.8" transform="matrix(-0.8228 0.5683 -0.5683 -0.8228 108.7052 56.7679)" fill="#231F20" width="1.5" height="1"/>
			
				<rect x="47" y="48.1" transform="matrix(-0.8225 0.5687 -0.5687 -0.8225 114.7308 61.4432)" fill="#231F20" width="1.5" height="1"/>
			
				<rect x="45.9" y="46.5" transform="matrix(-0.8225 0.5688 -0.5688 -0.8225 111.7214 59.0847)" fill="#231F20" width="1.5" height="1"/>
			
				<rect x="49.3" y="51.4" transform="matrix(-0.8231 0.5679 -0.5679 -0.8231 120.7354 66.2252)" fill="#231F20" width="1.5" height="1"/>
			<path fill="#231F20" d="M128.8,48h-12.3V30.3c0-1.5-1.2-2.8-2.8-2.8h-10.3c0.7-1.3,1-2.7,1-4.2c0-5-4-9-9-9c-5,0-9,4-9,9
				c0,1.5,0.4,2.9,1,4.2H64.3v-3.5c4.6-0.4,8.3-4.3,8.3-9c0-5-4-9-9-9c-5,0-9,4-9,9c0,4.7,3.7,8.6,8.3,9v3.5H39.6
				c0.7-1.3,1-2.7,1-4.2c0-5-4-9-9-9c-5,0-9,4-9,9c0,1.5,0.4,2.9,1,4.2H13.3c-1.5,0-2.8,1.2-2.8,2.8v22H0.8c-0.4,0-0.8,0.3-0.8,0.8
				v27c0,0.4,0.3,0.8,0.8,0.8h9.8v22.8H4.2c-0.4,0-0.8,0.3-0.8,0.8v3.2c0,4.6,3.8,8.4,8.4,8.4h103.4c4.6,0,8.4-3.8,8.4-8.4v-3.2
				c0-0.4-0.3-0.8-0.8-0.8h-6.4V75.1h12.3c0.4,0,0.8-0.3,0.8-0.8V48.7C129.5,48.3,129.2,48,128.8,48z M95.4,15.8
				c4.2,0,7.5,3.4,7.5,7.5s-3.4,7.5-7.5,7.5s-7.5-3.4-7.5-7.5S91.3,15.8,95.4,15.8z M88.4,29.1c1.7,2,4.2,3.3,7,3.3
				c2.8,0,5.3-1.3,7-3.3h11.3c0.7,0,1.3,0.6,1.3,1.3v5.2H89.2l0,0L88,34.6l-0.6,0.8l0.1,0.1H64.3v-6.4H88.4z M56,15.1
				c0-4.2,3.4-7.5,7.5-7.5c4.2,0,7.5,3.4,7.5,7.5s-3.4,7.5-7.5,7.5C59.4,22.6,56,19.2,56,15.1z M31.6,15.8c4.2,0,7.5,3.4,7.5,7.5
				s-3.4,7.5-7.5,7.5s-7.5-3.4-7.5-7.5S27.5,15.8,31.6,15.8z M12.1,30.3c0-0.7,0.6-1.3,1.3-1.3h11.3c1.7,2,4.2,3.3,7,3.3
				c2.8,0,5.3-1.3,7-3.3h24.2v6.4H39.5l0.1-0.1L39,34.6l-1.2,0.9l0,0H12.1V30.3z M12.1,37h27l-0.1,0.1l0.6,0.8l1.2-0.9l0-0.1h22.1
				v25.1h1.5V37h22.1l0,0.1l1.2,0.9l0.6-0.8L88,37h27v11H90.2c-0.4,0-0.8,0.3-0.8,0.8v25.6c0,0.4,0.3,0.8,0.8,0.8h3.2v6.9
				c0,0.3,0.2,0.6,0.5,0.7c0.4,0.1,0.6,0.1,0.8-0.2l7.4-7.4h13v20.6H12.1V80.8h30.4c0.4,0,0.8-0.3,0.8-0.8v-27
				c0-0.4-0.3-0.8-0.8-0.8H12.1V37z M1.5,79.3V53.8h40.2v25.5H1.5z M122.1,107.6c0,3.8-3.1,6.9-6.9,6.9H11.8c-3.8,0-6.9-3.1-6.9-6.9
				v-2.4h117.2V107.6z M12.1,103.6v-6.4H115v6.4H12.1z M128,73.6h-26.3c-0.2,0-0.4,0.1-0.5,0.2l-6.3,6.3v-5.8c0-0.4-0.3-0.8-0.8-0.8
				h-3.2V49.5H128V73.6z"/>
		</g>
		<rect x="3.7" y="56.1" fill="#CED5E0" width="35.7" height="21"/>
		<polygon fill="#ACB3BA" points="39.6,77.1 21.7,63.4 3.7,77.1 		"/>
		<polygon fill="#E6E9EE" points="3.7,56.1 21.7,69.8 39.6,56.1 		"/>
		<path fill="#231F20" d="M111.2,11.6c-2.3,0-4.2-1.9-4.2-4.2c0-2.3,1.9-4.2,4.2-4.2c2.3,0,4.2,1.9,4.2,4.2
			C115.3,9.7,113.5,11.6,111.2,11.6z M111.2,4.7c-1.5,0-2.7,1.2-2.7,2.7c0,1.5,1.2,2.7,2.7,2.7c1.5,0,2.7-1.2,2.7-2.7
			C113.8,5.9,112.6,4.7,111.2,4.7z"/>
	</g>
</g>
</svg>
