<?xml version="1.0" encoding="UTF-8" standalone="no"?>
<svg
   xmlns:dc="http://purl.org/dc/elements/1.1/"
   xmlns:cc="http://creativecommons.org/ns#"
   xmlns:rdf="http://www.w3.org/1999/02/22-rdf-syntax-ns#"
   xmlns:svg="http://www.w3.org/2000/svg"
   xmlns="http://www.w3.org/2000/svg"
   xmlns:sodipodi="http://sodipodi.sourceforge.net/DTD/sodipodi-0.dtd"
   xmlns:inkscape="http://www.inkscape.org/namespaces/inkscape"
   id="svg2"
   x="0"
   y="0"
   version="1.1"
   viewBox="-285 382 38 30"
   xml:space="preserve"
   sodipodi:docname="Quotation_marks.svg.svg"
   inkscape:version="0.92.3 (2405546, 2018-03-11)"><metadata
     id="metadata10"><rdf:RDF><cc:Work
         rdf:about=""><dc:format>image/svg+xml</dc:format><dc:type
           rdf:resource="http://purl.org/dc/dcmitype/StillImage" /><dc:title></dc:title></cc:Work></rdf:RDF></metadata><defs
     id="defs8" /><sodipodi:namedview
     pagecolor="#ffffff"
     bordercolor="#666666"
     borderopacity="1"
     objecttolerance="10"
     gridtolerance="10"
     guidetolerance="10"
     inkscape:pageopacity="0"
     inkscape:pageshadow="2"
     inkscape:window-width="1920"
     inkscape:window-height="1001"
     id="namedview6"
     showgrid="false"
     showguides="true"
     inkscape:guide-bbox="true"
     inkscape:zoom="8"
     inkscape:cx="9.4265395"
     inkscape:cy="10.702248"
     inkscape:window-x="-9"
     inkscape:window-y="-9"
     inkscape:window-maximized="1"
     inkscape:current-layer="svg2"><sodipodi:guide
       position="17.71875,28.320312"
       orientation="0,1"
       id="guide853"
       inkscape:locked="false" /><sodipodi:guide
       position="10.65632,1.2429611"
       orientation="0,1"
       id="guide855"
       inkscape:locked="false" /><sodipodi:guide
       position="2.2539063,10.902344"
       orientation="1,0"
       id="guide857"
       inkscape:locked="false" /><sodipodi:guide
       position="17.821301,28.320312"
       orientation="1,0"
       id="guide859"
       inkscape:locked="false" /></sodipodi:namedview><style
     id="style2"
     type="text/css">.st0{fill:#b2b7f2}</style><path
     id="path1875"
     d="m -280.21891,408.39466 c -5.1,-5.7 -1.6,-15.7 2.7,-19.5 3.6,-3.3 9.6,-6 10.2,-5 0.9,1.5 -2.6,2.5 -5.3,4.9 -3.3,3.6 -4.4,5.2 0.2,7.2 4.9,2.2 5,4.4 5.2,7.2 0.3,6.9 -8,10.1 -13,5.2 z"
     class="st0"
     style="opacity:1;fill:#b2d9ff;fill-opacity:1"
     inkscape:connector-curvature="0" /><path
     id="path1875-2"
     d="m -263.20485,408.38927 c -5.10001,-5.7 -1.60001,-15.7 2.69999,-19.5 3.60001,-3.3 9.6,-6 10.2,-5 0.9,1.5 -2.6,2.5 -5.3,4.9 -3.3,3.6 -4.4,5.2 0.2,7.2 4.9,2.2 5,4.4 5.2,7.2 0.3,6.9 -8,10.1 -12.99999,5.2 z"
     class="st0"
     style="opacity:1;fill:#b2d9ff;fill-opacity:1"
     inkscape:connector-curvature="0" /></svg>