<?xml version="1.0" encoding="utf-8"?>
<!-- Generator: Adobe Illustrator 18.0.0, SVG Export Plug-In . SVG Version: 6.00 Build 0)  -->
<!DOCTYPE svg PUBLIC "-//W3C//DTD SVG 1.1//EN" "http://www.w3.org/Graphics/SVG/1.1/DTD/svg11.dtd">
<svg version="1.1" id="Layer_1" xmlns="http://www.w3.org/2000/svg" xmlns:xlink="http://www.w3.org/1999/xlink" x="0px" y="0px"
	 viewBox="0 0 129.5 129.5" enable-background="new 0 0 129.5 129.5" xml:space="preserve">
<g>
	<g>
		<path fill="#FFFFFF" d="M71.2,46.5h-6.8h-6.8c0,0,4.1,30.3-4.9,41.8h11.7h11.7C67,76.8,71.2,46.5,71.2,46.5z"/>
		<g>
			<path fill="#84DBFF" d="M56.3,86.3C62,75,60.6,55.2,59.8,48.5h9.1c-0.7,6.7-2.2,26.5,3.5,37.8H56.3z"/>
		</g>
		<path fill="#FFFFFF" d="M88.5,105.5l-1-0.9c-4.8-4.3-8.1-10-9.4-16.3v0H50.7l0,0c-1.3,6.3-4.6,12-9.4,16.3l-1,0.9
			c-2.6,2.3-0.9,6.6,2.5,6.6h43.1C89.4,112.1,91,107.8,88.5,105.5z"/>
		<g>
			<path fill="#84DBFF" d="M42.8,110.1c-1.1,0-1.5-0.9-1.6-1.1c-0.1-0.3-0.4-1.2,0.5-1.9l1-0.9c4.7-4.3,8-9.7,9.6-15.8h24.2
				c1.6,6.1,4.9,11.5,9.6,15.8l1,0.9c0.8,0.8,0.6,1.7,0.5,1.9c-0.1,0.3-0.5,1.1-1.6,1.1H42.8z"/>
		</g>
		<g>
			<g>
				<path fill="#231F20" d="M90.3,8.2c-0.2,0-0.4-0.1-0.5-0.2c-0.3-0.3-0.3-0.8,0-1.1l1.3-1.3c0.3-0.3,0.8-0.3,1.1,0
					c0.3,0.3,0.3,0.8,0,1.1L90.8,8C90.7,8.1,90.5,8.2,90.3,8.2z"/>
			</g>
			<g>
				<path fill="#231F20" d="M86.3,12.2c-0.2,0-0.4-0.1-0.5-0.2c-0.3-0.3-0.3-0.8,0-1.1L87,9.7c0.3-0.3,0.8-0.3,1.1,0
					c0.3,0.3,0.3,0.8,0,1.1L86.8,12C86.7,12.2,86.5,12.2,86.3,12.2z"/>
			</g>
			<g>
				<path fill="#231F20" d="M91.6,12.2c-0.2,0-0.4-0.1-0.5-0.2l-1.3-1.3c-0.3-0.3-0.3-0.8,0-1.1c0.3-0.3,0.8-0.3,1.1,0l1.3,1.3
					c0.3,0.3,0.3,0.8,0,1.1C92,12.2,91.8,12.2,91.6,12.2z"/>
			</g>
			<g>
				<path fill="#231F20" d="M87.6,8.2c-0.2,0-0.4-0.1-0.5-0.2l-1.3-1.3c-0.3-0.3-0.3-0.8,0-1.1c0.3-0.3,0.8-0.3,1.1,0l1.3,1.3
					c0.3,0.3,0.3,0.8,0,1.1C88,8.1,87.8,8.2,87.6,8.2z"/>
			</g>
		</g>
		<g>
			<g>
				<path fill="#231F20" d="M8.6,84.3c-0.2,0-0.4-0.1-0.5-0.2c-0.3-0.3-0.3-0.8,0-1.1l1.3-1.3c0.3-0.3,0.8-0.3,1.1,0s0.3,0.8,0,1.1
					l-1.3,1.3C9,84.3,8.8,84.3,8.6,84.3z"/>
			</g>
			<g>
				<path fill="#231F20" d="M4.6,88.4c-0.2,0-0.4-0.1-0.5-0.2c-0.3-0.3-0.3-0.8,0-1.1l1.3-1.3c0.3-0.3,0.8-0.3,1.1,0
					c0.3,0.3,0.3,0.8,0,1.1l-1.3,1.3C5,88.3,4.8,88.4,4.6,88.4z"/>
			</g>
			<g>
				<path fill="#231F20" d="M9.9,88.4c-0.2,0-0.4-0.1-0.5-0.2l-1.3-1.3c-0.3-0.3-0.3-0.8,0-1.1c0.3-0.3,0.8-0.3,1.1,0l1.3,1.3
					c0.3,0.3,0.3,0.8,0,1.1C10.3,88.3,10.1,88.4,9.9,88.4z"/>
			</g>
			<g>
				<path fill="#231F20" d="M5.9,84.3c-0.2,0-0.4-0.1-0.5-0.2L4,82.8c-0.3-0.3-0.3-0.8,0-1.1c0.3-0.3,0.8-0.3,1.1,0l1.3,1.3
					c0.3,0.3,0.3,0.8,0,1.1C6.2,84.3,6.1,84.3,5.9,84.3z"/>
			</g>
		</g>
		<g>
			<g>
				<path fill="#231F20" d="M28.6,119.4c-0.2,0-0.4-0.1-0.5-0.2c-0.3-0.3-0.3-0.8,0-1.1l1.3-1.3c0.3-0.3,0.8-0.3,1.1,0
					c0.3,0.3,0.3,0.8,0,1.1l-1.3,1.3C29,119.3,28.8,119.4,28.6,119.4z"/>
			</g>
			<g>
				<path fill="#231F20" d="M24.6,123.4c-0.2,0-0.4-0.1-0.5-0.2c-0.3-0.3-0.3-0.8,0-1.1l1.3-1.3c0.3-0.3,0.8-0.3,1.1,0
					c0.3,0.3,0.3,0.8,0,1.1l-1.3,1.3C24.9,123.4,24.7,123.4,24.6,123.4z"/>
			</g>
			<g>
				<path fill="#231F20" d="M29.9,123.4c-0.2,0-0.4-0.1-0.5-0.2l-1.3-1.3c-0.3-0.3-0.3-0.8,0-1.1c0.3-0.3,0.8-0.3,1.1,0l1.3,1.3
					c0.3,0.3,0.3,0.8,0,1.1C30.3,123.4,30.1,123.4,29.9,123.4z"/>
			</g>
			<g>
				<path fill="#231F20" d="M25.8,119.4c-0.2,0-0.4-0.1-0.5-0.2l-1.3-1.3c-0.3-0.3-0.3-0.8,0-1.1c0.3-0.3,0.8-0.3,1.1,0l1.3,1.3
					c0.3,0.3,0.3,0.8,0,1.1C26.2,119.3,26,119.4,25.8,119.4z"/>
			</g>
		</g>
		<g>
			<g>
				<line fill="#FFFFFF" x1="37.4" y1="59.8" x2="45.5" y2="59.8"/>
				<path fill="#231F20" d="M45.5,60.6h-8.1c-0.4,0-0.8-0.3-0.8-0.8c0-0.4,0.3-0.8,0.8-0.8h8.1c0.4,0,0.8,0.3,0.8,0.8
					C46.3,60.2,45.9,60.6,45.5,60.6z"/>
			</g>
			<g>
				<line fill="#FFFFFF" x1="44.7" y1="62.8" x2="48.7" y2="62.8"/>
				<path fill="#231F20" d="M48.7,63.5h-4c-0.4,0-0.8-0.3-0.8-0.8c0-0.4,0.3-0.8,0.8-0.8h4c0.4,0,0.8,0.3,0.8,0.8
					C49.4,63.2,49.1,63.5,48.7,63.5z"/>
			</g>
			<g>
				<line fill="#FFFFFF" x1="49.2" y1="59.8" x2="52.9" y2="59.8"/>
				<path fill="#231F20" d="M52.9,60.6h-3.8c-0.4,0-0.8-0.3-0.8-0.8c0-0.4,0.3-0.8,0.8-0.8h3.8c0.4,0,0.8,0.3,0.8,0.8
					C53.7,60.2,53.4,60.6,52.9,60.6z"/>
			</g>
			<g>
				<line fill="#FFFFFF" x1="41.1" y1="62.8" x2="41.8" y2="62.8"/>
				<path fill="#231F20" d="M41.8,63.5h-0.8c-0.4,0-0.8-0.3-0.8-0.8c0-0.4,0.3-0.8,0.8-0.8h0.8c0.4,0,0.8,0.3,0.8,0.8
					C42.6,63.2,42.3,63.5,41.8,63.5z"/>
			</g>
		</g>
		<path fill="#FFD05B" d="M7.8,31.2h10.4c0.4-3.7,1.8-7.2,4.3-10c1.9-2.2,3.1-5.1,3.1-8.3c0-7.4-6.4-13.3-14-12.5
			C5.8,1.1,1.1,5.7,0.5,11.5c-0.4,3.8,0.8,7.2,3,9.8C5.9,24,7.3,27.5,7.8,31.2z"/>
		<rect x="6.7" y="31.2" fill="#FFFFFF" width="12.6" height="6.8"/>
		<rect x="10.1" y="38" fill="#FFFFFF" width="5.7" height="2.3"/>
		<polygon fill="#FFFFFF" points="11.7,21.7 11,31.2 14.9,31.2 14.2,21.7 		"/>
		<path fill="#231F20" d="M19.3,30.5h-3.6l-0.7-8.8c0,0,0,0,0,0l4.5-11.8L18,9.3l-0.4,1.1h-2.7c-0.2,0-0.4,0.1-0.5,0.2l-0.9,0.9V8.8
			c0-0.3-0.2-0.6-0.5-0.7c-0.3-0.1-0.6-0.1-0.8,0.2l-2,2H8.3l-0.4-1L6.5,9.9L11,21.6c0,0,0,0,0,0l-0.7,8.8H6.7
			c-0.4,0-0.8,0.3-0.8,0.8V38c0,0.4,0.3,0.8,0.8,0.8h2.7v1.6c0,0.4,0.3,0.8,0.8,0.8h5.7c0.4,0,0.7-0.3,0.7-0.8v-1.6h2.7
			c0.4,0,0.8-0.3,0.8-0.8v-6.8C20,30.8,19.7,30.5,19.3,30.5z M10.4,11.8c0.2,0,0.4-0.1,0.5-0.2l1-1v2.7c0,0.3,0.2,0.6,0.5,0.7
			c0.1,0,0.2,0.1,0.3,0.1c0.2,0,0.4-0.1,0.5-0.2l2-2H17L13.6,21h-1.2l-3.5-9.1H10.4z M12.4,22.5h1.1l0.6,8h-2.3L12.4,22.5z M15,39.6
			h-4.2v-0.8H15V39.6z M18.5,37.2H7.4V32h11.1V37.2z"/>
		<path fill="#FFFFFF" d="M109.3,65.3v-6l-5.1-0.7c-0.3-2.9-0.8-5.6-1.6-8.3l4.4-2.5l-2.3-5.5l-4.9,1.3c-1.3-2.5-2.9-4.8-4.7-7
			l3.1-4L94,28.4l-4,3.1c-2.2-1.8-4.5-3.4-7-4.7l1.3-4.9l-5.5-2.3l-2.5,4.4c-2.6-0.8-5.4-1.4-8.3-1.6l-0.7-5.1h-6l-0.7,5.1
			c-2.9,0.3-5.6,0.8-8.3,1.6l-2.5-4.4L44.4,22l1.3,4.9c-2.5,1.3-4.8,2.9-7,4.7l-4-3.1l-4.2,4.2l3.1,4c-1.8,2.2-3.4,4.5-4.7,7
			L24,42.4l-2.3,5.5l4.4,2.5c-0.8,2.6-1.4,5.4-1.6,8.3l-5.1,0.7l0,6l5.1,0.7c0.3,2.9,0.8,5.6,1.6,8.3l-4.4,2.5l2.3,5.5l4.9-1.3
			c1.3,2.5,2.9,4.8,4.7,7l-3.1,4l4.2,4.2l4-3.1c2.2,1.8,4.5,3.4,7,4.7l-1.3,4.9l5.5,2.3l2.5-4.4c2.6,0.8,5.4,1.4,8.3,1.6l0.7,5.1
			l6,0l0.7-5.1c2.9-0.3,5.6-0.8,8.3-1.6l2.5,4.4l5.5-2.3L83,97.8c2.5-1.3,4.8-2.9,7-4.7l4,3.1l4.2-4.2l-3.1-4c1.8-2.2,3.4-4.5,4.7-7
			l4.9,1.3l2.3-5.5l-4.4-2.5c0.8-2.6,1.4-5.4,1.6-8.3L109.3,65.3z M64.4,94.6c-17.8,0-32.3-14.5-32.3-32.3
			c0-17.8,14.5-32.3,32.3-32.3s32.3,14.5,32.3,32.3C96.7,80.2,82.2,94.6,64.4,94.6z"/>
		<g>
			<polygon fill="#FFFFFF" points="67.3,38.6 67.3,38 61.5,38 61.4,38.6 			"/>
			<polygon fill="#231F20" points="68.2,39.4 60.6,39.4 60.8,37.3 67.9,37.3 			"/>
		</g>
		<path fill="#FFFFFF" d="M88.9,124.4H39.8l0,0c0-6.8,5.5-12.3,12.3-12.3h24.5C83.4,112.1,88.9,117.6,88.9,124.4L88.9,124.4z"/>
		<g>
			<path fill="#84DBFF" d="M42,122.4c0.9-4.7,5.1-8.3,10.1-8.3h24.5c5,0,9.2,3.6,10.1,8.3H42z"/>
		</g>
		<path fill="#FFFFFF" d="M76,27.4H64.4H52.7c0,0,7.2,7.9,4.9,15.3h6.8h6.8C68.8,35.3,76,27.4,76,27.4z"/>
		<g>
			<path fill="#84DBFF" d="M60,40.7c0.4-4.4-1.6-8.5-3.3-11.3h15.4c-1.7,2.8-3.7,6.9-3.3,11.3H60z"/>
		</g>
		<path fill="#FFFFFF" d="M78.8,46.5H50l0,0c0-2.8,2.3-5,5-5h18.8C76.5,41.4,78.8,43.7,78.8,46.5L78.8,46.5z"/>
		<polygon fill="#FFFFFF" points="72.6,12.4 67.6,12.4 67.6,7.4 61.2,7.4 61.2,12.4 56.1,12.4 56.1,18.8 61.2,18.8 61.2,27.4 
			67.6,27.4 67.6,18.8 72.6,18.8 		"/>
		<g>
			<polygon fill="#84DBFF" points="63.2,25.4 63.2,16.8 58.1,16.8 58.1,14.4 63.2,14.4 63.2,9.4 65.6,9.4 65.6,14.4 70.6,14.4 
				70.6,16.8 65.6,16.8 65.6,25.4 			"/>
		</g>
		<g>
			<path fill="#FF7058" d="M125.6,14.9c0.7-1.9,0.9-4,0.4-6.1c-1.3-5.8-7.1-9.5-12.9-8.2s-9.5,7.1-8.2,12.9s7.1,9.5,12.9,8.2
				c2.1-0.5,4-1.6,5.4-3l5.2,0.6L125.6,14.9z"/>
		</g>
		<g>
			<path fill="#E6E9EE" d="M100.6,22.2c-0.9-1.2-1.5-2.6-1.6-4.2c-0.3-4.4,3-8.2,7.4-8.5c4.4-0.3,8.2,3,8.5,7.4
				c0.3,4.4-3,8.2-7.4,8.5c-1.6,0.1-3.1-0.3-4.4-1l-3.5,1.5L100.6,22.2z"/>
		</g>
		<path fill="#FFFFFF" d="M116.8,115.1c-0.6-1.4-2.2-2-3.7-1.3"/>
		<g>
			<path fill="#FFFFFF" d="M128.4,113.5c0-1.1-0.5-2.1-1.3-2.8c0.8-0.7,1.3-1.7,1.3-2.8c0-2-1.6-3.7-3.6-3.8
				c0.2-0.5,0.4-1.1,0.4-1.6c0-2.1-1.7-3.9-3.9-3.9c-0.2,0-0.3,0-0.5,0c0,0,0,0,0,0c0-2.1-1.7-3.9-3.9-3.9s-3.9,1.7-3.9,3.9v24.2
				c0,3.1,2.5,5.7,5.7,5.7c2.9,0,5.3-2.2,5.6-5c1.7-0.4,3-1.9,3-3.8c0-1-0.4-2-1.1-2.7C127.6,116.2,128.4,115,128.4,113.5z"/>
			<path fill="#FFFFFF" d="M119.2,99.1c1.8-1.2,4.2-0.7,5.3,1.1c1.2,1.8,0.7,4.2-1.1,5.3"/>
			<path fill="#FFFFFF" d="M128.3,107c0.5,2.1-0.8,4.2-2.9,4.6"/>
			<path fill="#FFFFFF" d="M128.3,114.3c-0.4,2.1-2.5,3.4-4.6,3"/>
			<path fill="#FFFFFF" d="M127.1,121.2c-0.9,1.9-3.3,2.7-5.2,1.8"/>
			<path fill="#FFFFFF" d="M123.9,108.2c-1.4,1.1-3.3,0.8-4.4-0.5c-1-1.3-0.8-3.3,0.6-4.3"/>
			<path fill="#FFFFFF" d="M117.2,110c-0.2-1.3,0.7-2.4,2-2.6"/>
			<path fill="#231F20" d="M124.5,107.7c-0.3-0.3-0.7-0.4-1.1-0.1c-1,0.8-2.5,0.6-3.3-0.4c-0.4-0.5-0.5-1.1-0.5-1.7
				c0.1-0.6,0.4-1.2,0.9-1.6c0.3-0.3,0.4-0.7,0.1-1.1c-0.3-0.3-0.7-0.4-1.1-0.1c-0.8,0.6-1.4,1.6-1.5,2.6c-0.1,0.6,0,1.1,0.1,1.6
				c-0.5,0.2-1,0.5-1.4,1c-0.5,0.6-0.7,1.4-0.5,2.3c0.1,0.4,0.4,0.6,0.7,0.6c0,0,0.1,0,0.1,0c0.4-0.1,0.7-0.5,0.6-0.9
				c-0.1-0.4,0-0.8,0.2-1.1c0.2-0.3,0.5-0.5,0.9-0.6c0.7,0.9,1.8,1.3,2.9,1.3c0.8,0,1.7-0.3,2.4-0.8
				C124.7,108.5,124.7,108,124.5,107.7z"/>
			<path fill="#231F20" d="M129.1,113.5c0-1-0.4-2-1-2.8c0.6-0.8,1-1.8,1-2.8c0-2.1-1.4-3.9-3.3-4.4c0,0,0,0,0,0c0,0,0-0.1,0-0.1
				c0.3-1.2,0-2.4-0.6-3.5c-0.7-1-1.7-1.7-2.9-2c-0.2-0.1-0.5-0.1-0.7-0.1c0,0,0,0,0,0c-0.4-2.2-2.3-3.9-4.6-3.9
				c-2.5,0-4.6,2.1-4.6,4.6v24.2c0,3.6,2.9,6.4,6.4,6.4c3.1,0,5.7-2.2,6.3-5.2c1.8-0.6,3.1-2.4,3.1-4.4c0-0.9-0.3-1.8-0.7-2.5
				C128.5,116.2,129.1,114.9,129.1,113.5z M124.6,111.8c0.1,0.3,0.4,0.6,0.7,0.6c0.1,0,0.1,0,0.2,0c0.5-0.1,1-0.4,1.5-0.6
				c0.4,0.5,0.6,1.2,0.6,1.8c0,1.1-0.6,2.1-1.6,2.7l-0.1,0.1c-0.6,0.3-1.3,0.4-2,0.3c-0.4-0.1-0.8,0.2-0.9,0.6
				c-0.1,0.4,0.2,0.8,0.6,0.9c0.3,0.1,0.6,0.1,0.9,0.1c0.6,0,1.2-0.1,1.7-0.3c0.3,0.5,0.5,1.1,0.5,1.7c0,1.4-1,2.6-2.3,3
				c-0.7,0.2-1.5,0.1-2.2-0.2c-0.4-0.2-0.8,0-1,0.3c-0.2,0.4,0,0.8,0.3,1c0.6,0.3,1.3,0.4,1.9,0.5c-0.6,2-2.5,3.5-4.7,3.5
				c-2.7,0-4.9-2.2-4.9-4.9v-8.4c0.4-0.1,0.8-0.1,1.2,0c0.5,0.2,0.8,0.5,1,1c0.1,0.3,0.4,0.5,0.7,0.5c0.1,0,0.2,0,0.3-0.1
				c0.4-0.2,0.6-0.6,0.4-1c-0.3-0.9-1-1.5-1.9-1.9c-0.6-0.2-1.2-0.3-1.8-0.2V98.5c0-1.7,1.4-3.1,3.1-3.1c1.5,0,2.8,1.1,3.1,2.6
				c-0.4,0.1-0.9,0.3-1.3,0.6c-0.3,0.2-0.4,0.7-0.2,1c0.2,0.3,0.7,0.4,1,0.2c0.7-0.5,1.5-0.6,2.3-0.4c0.8,0.2,1.5,0.7,2,1.4
				c0.5,0.7,0.6,1.5,0.4,2.3c-0.2,0.8-0.7,1.5-1.4,2c-0.3,0.2-0.4,0.7-0.2,1c0.1,0.2,0.4,0.3,0.6,0.3c0.1,0,0.3,0,0.4-0.1
				c0.6-0.4,1-0.9,1.4-1.4c1.4,0.3,2.4,1.6,2.4,3c0,0.9-0.4,1.7-1,2.3l0,0c0,0,0,0,0,0c-0.4,0.3-0.8,0.6-1.4,0.7
				C124.8,111,124.6,111.4,124.6,111.8z"/>
			<path fill="#FFFFFF" d="M120.1,124.6c-1.2-0.6-1.8-2-1.2-3.2c0.6-1.2,2-1.7,3.2-1.2"/>
			<path fill="#FFFFFF" d="M116.4,120.7c0.8-0.6,1.9-0.4,2.5,0.5"/>
			<path fill="#231F20" d="M122.4,119.6c-0.8-0.4-1.6-0.4-2.4-0.1c-0.4,0.1-0.7,0.4-1,0.6c-0.3-0.3-0.7-0.5-1.2-0.5
				c-0.7-0.1-1.3,0.1-1.9,0.5c-0.3,0.3-0.4,0.7-0.1,1.1c0.3,0.3,0.7,0.4,1.1,0.1c0.3-0.2,0.5-0.2,0.7-0.2c0.2,0,0.4,0.2,0.6,0.3
				c-0.5,1.5,0.2,3.2,1.7,3.9c0.1,0,0.2,0.1,0.3,0.1c0.3,0,0.6-0.2,0.7-0.4c0.2-0.4,0-0.8-0.4-1c-0.8-0.4-1.2-1.4-0.8-2.2
				c0.2-0.4,0.5-0.7,0.9-0.8c0.4-0.2,0.9-0.1,1.3,0.1c0.4,0.2,0.8,0,1-0.4C123,120.2,122.8,119.8,122.4,119.6z"/>
		</g>
		<g>
			<path fill="#FFFFFF" d="M95.4,113.5c0-1.1,0.5-2.1,1.3-2.8c-0.8-0.7-1.3-1.7-1.3-2.8c0-2,1.6-3.7,3.6-3.8
				c-0.2-0.5-0.4-1.1-0.4-1.6c0-2.1,1.7-3.9,3.9-3.9c0.2,0,0.3,0,0.5,0c0,0,0,0,0,0c0-2.1,1.7-3.9,3.9-3.9c2.1,0,3.9,1.7,3.9,3.9
				v24.2c0,3.1-2.5,5.7-5.7,5.7c-2.9,0-5.3-2.2-5.6-5c-1.7-0.4-3-1.9-3-3.8c0-1,0.4-2,1.1-2.7C96.2,116.2,95.4,115,95.4,113.5z"/>
			<path fill="#FFFFFF" d="M104.6,99.1c-1.8-1.2-4.2-0.7-5.3,1.1c-1.2,1.8-0.7,4.2,1.1,5.3"/>
			<path fill="#FFFFFF" d="M95.5,107c-0.5,2.1,0.8,4.2,2.9,4.6"/>
			<path fill="#FFFFFF" d="M95.5,114.3c0.4,2.1,2.5,3.4,4.6,3"/>
			<path fill="#FFFFFF" d="M96.7,121.2c0.9,1.9,3.3,2.7,5.2,1.8"/>
			<path fill="#FFFFFF" d="M99.9,108.2c1.4,1.1,3.3,0.8,4.4-0.5c1-1.3,0.8-3.3-0.6-4.3"/>
			<path fill="#FFFFFF" d="M106.6,110c0.2-1.3-0.7-2.4-2-2.6"/>
			<path fill="#231F20" d="M99.3,107.7c0.3-0.3,0.7-0.4,1.1-0.1c1,0.8,2.5,0.6,3.3-0.4c0.4-0.5,0.5-1.1,0.5-1.7
				c-0.1-0.6-0.4-1.2-0.9-1.6c-0.3-0.3-0.4-0.7-0.1-1.1c0.3-0.3,0.7-0.4,1.1-0.1c0.8,0.6,1.4,1.6,1.5,2.6c0.1,0.6,0,1.1-0.1,1.6
				c0.5,0.2,1,0.5,1.4,1c0.5,0.6,0.7,1.4,0.5,2.3c-0.1,0.4-0.4,0.6-0.7,0.6c0,0-0.1,0-0.1,0c-0.4-0.1-0.7-0.5-0.6-0.9
				c0.1-0.4,0-0.8-0.2-1.1c-0.2-0.3-0.5-0.5-0.9-0.6c-0.7,0.9-1.8,1.3-2.9,1.3c-0.8,0-1.7-0.3-2.4-0.8C99.1,108.5,99,108,99.3,107.7
				z"/>
			<path fill="#231F20" d="M96.3,117c-0.5,0.7-0.7,1.6-0.7,2.5c0,2,1.3,3.7,3.1,4.4c0.6,3,3.2,5.2,6.3,5.2c3.6,0,6.4-2.9,6.4-6.4
				V98.5c0-2.5-2.1-4.6-4.6-4.6c-2.3,0-4.2,1.7-4.6,3.9c0,0,0,0,0,0c-0.2,0-0.5,0-0.7,0.1c-1.2,0.3-2.2,1-2.9,2
				c-0.7,1-0.9,2.3-0.6,3.5c0,0,0,0.1,0,0.1c0,0,0,0,0,0c-1.9,0.6-3.3,2.3-3.3,4.4c0,1,0.4,2,1,2.8c-0.6,0.8-1,1.8-1,2.8
				C94.7,114.9,95.3,116.2,96.3,117z M98.6,110.9c-0.5-0.1-1-0.4-1.4-0.7c0,0,0,0,0,0l0,0c-0.7-0.6-1-1.4-1-2.3c0-1.5,1-2.7,2.4-3
				c0.4,0.6,0.8,1,1.4,1.4c0.1,0.1,0.3,0.1,0.4,0.1c0.2,0,0.5-0.1,0.6-0.3c0.2-0.3,0.1-0.8-0.2-1c-0.7-0.5-1.2-1.2-1.4-2
				c-0.2-0.8,0-1.6,0.4-2.3c0.5-0.7,1.2-1.2,2-1.4c0.8-0.2,1.6,0,2.3,0.4c0.3,0.2,0.8,0.1,1-0.2c0.2-0.3,0.1-0.8-0.2-1
				c-0.4-0.3-0.8-0.4-1.3-0.6c0.2-1.4,1.5-2.6,3.1-2.6c1.7,0,3.1,1.4,3.1,3.1v14.3c-0.6-0.1-1.2-0.1-1.8,0.2c-0.9,0.3-1.5,1-1.9,1.9
				c-0.2,0.4,0,0.8,0.4,1c0.1,0,0.2,0.1,0.3,0.1c0.3,0,0.6-0.2,0.7-0.5c0.2-0.5,0.5-0.8,1-1c0.4-0.1,0.8-0.2,1.2,0v8.4
				c0,2.7-2.2,4.9-4.9,4.9c-2.2,0-4.1-1.4-4.7-3.5c0.7,0,1.3-0.2,1.9-0.5c0.4-0.2,0.5-0.6,0.3-1c-0.2-0.4-0.6-0.5-1-0.3
				c-0.7,0.3-1.4,0.4-2.2,0.2c-1.3-0.4-2.3-1.6-2.3-3c0-0.6,0.2-1.2,0.5-1.7c0.5,0.2,1.1,0.3,1.7,0.3c0.3,0,0.6,0,0.9-0.1
				c0.4-0.1,0.7-0.5,0.6-0.9c-0.1-0.4-0.5-0.7-0.9-0.6c-0.7,0.2-1.4,0-2-0.3l-0.1-0.1c-1-0.6-1.6-1.6-1.6-2.7c0-0.7,0.2-1.3,0.6-1.8
				c0.4,0.3,0.9,0.5,1.5,0.6c0.1,0,0.1,0,0.2,0c0.3,0,0.6-0.2,0.7-0.6C99.2,111.4,99,111,98.6,110.9z"/>
			<path fill="#FFFFFF" d="M103.7,124.6c1.2-0.6,1.8-2,1.2-3.2c-0.6-1.2-2-1.7-3.2-1.2"/>
			<path fill="#FFFFFF" d="M107.4,120.7c-0.8-0.6-1.9-0.4-2.5,0.5"/>
			<path fill="#231F20" d="M101.3,119.6c0.8-0.4,1.6-0.4,2.4-0.1c0.4,0.1,0.7,0.4,1,0.6c0.3-0.3,0.7-0.5,1.2-0.5
				c0.7-0.1,1.3,0.1,1.9,0.5c0.3,0.3,0.4,0.7,0.1,1.1c-0.3,0.3-0.7,0.4-1.1,0.1c-0.3-0.2-0.5-0.2-0.7-0.2c-0.2,0-0.4,0.2-0.6,0.3
				c0.5,1.5-0.2,3.2-1.7,3.9c-0.1,0-0.2,0.1-0.3,0.1c-0.3,0-0.6-0.2-0.7-0.4c-0.2-0.4,0-0.8,0.4-1c0.8-0.4,1.2-1.4,0.8-2.2
				c-0.2-0.4-0.5-0.7-0.9-0.8c-0.4-0.2-0.9-0.1-1.3,0.1c-0.4,0.2-0.8,0-1-0.4C100.8,120.2,101,119.8,101.3,119.6z"/>
		</g>
		<g>
			<circle fill="#FF7058" cx="118.2" cy="80.3" r="2.5"/>
		</g>
		<g>
			<circle fill="#FFD05B" cx="39" cy="9.4" r="2.5"/>
		</g>
		<g>
			<circle fill="#84DBFF" cx="9.2" cy="53.4" r="2.5"/>
		</g>
		<g>
			<circle fill="#E6E9EE" cx="11.7" cy="114.1" r="2.5"/>
		</g>
		<circle fill="#FFFFFF" cx="99.8" cy="55.4" r="16.6"/>
		<circle fill="#FF7058" cx="99.8" cy="55.4" r="4.5"/>
		<path fill="#231F20" d="M129.1,33c-0.1-0.3-0.3-0.5-0.6-0.5l-5-0.7l-0.7-5c0-0.3-0.2-0.5-0.5-0.6c-0.3-0.1-0.6,0-0.8,0.2l-6.4,6.4
			c-0.2,0.2-0.2,0.4-0.2,0.6l0.7,5.2l-4.1,4.1c-4-3.6-9.2-5.1-14.2-4.4c-0.4-0.5-0.8-1.1-1.2-1.6l3.1-4.1l-5.2-5.2L90,30.6
			c-1.9-1.5-4-2.9-6.1-4.1l1.3-5l-6.8-2.8l-2.6,4.5c-2.3-0.7-4.8-1.2-7.2-1.4l-0.3-2.2h4.2c0.4,0,0.8-0.3,0.8-0.8v-6.4
			c0-0.4-0.3-0.8-0.8-0.8h-4.3V7.4c0-0.4-0.3-0.8-0.8-0.8h-6.4c-0.4,0-0.8,0.3-0.8,0.8v4.3h-4.3c-0.4,0-0.8,0.3-0.8,0.8v6.4
			c0,0.4,0.3,0.8,0.8,0.8h4.2l-0.3,2.2c-2.5,0.3-4.9,0.7-7.2,1.4l-2.6-4.5l-6.8,2.8l1.3,5c-2.2,1.2-4.2,2.6-6.1,4.1l-4.1-3.1
			l-5.2,5.2l3.1,4.1c-1.5,1.9-2.9,4-4.1,6.1l-5-1.3l-2.8,6.8l4.5,2.6c-0.7,2.3-1.2,4.8-1.4,7.2l-5.1,0.7l0,7.3l5.1,0.7
			c0.3,2.5,0.7,4.9,1.4,7.2l-4.5,2.6l2.8,6.8l5-1.3c1.2,2.2,2.6,4.2,4.1,6.1l-3.1,4.1l5.2,5.2l4.1-3.1c1.9,1.5,4,2.9,6.1,4.1l-0.5,2
			c-1.1,1.4-2.2,2.7-3.5,3.8l-1,0.9c-1.4,1.3-1.9,3.2-1.2,5c0.7,1.8,2.3,2.9,4.2,2.9h3.3c-4.2,2.2-7,6.5-7,11.6
			c0,0.4,0.3,0.8,0.8,0.8h49.1c0.4,0,0.8-0.3,0.8-0.8c0-5-2.8-9.4-7-11.6h3.3c1.9,0,3.5-1.1,4.2-2.9c0.7-1.8,0.2-3.7-1.2-5l-1-0.9
			c-1.3-1.2-2.5-2.5-3.5-3.8l-0.5-2c2.2-1.2,4.2-2.6,6.1-4.1l4.1,3.1l5.2-5.2L96.1,88c1.5-1.9,2.9-4,4.1-6.1l5,1.3l2.8-6.8l-4.5-2.6
			c0.2-0.6,0.3-1.1,0.4-1.7c3-0.7,5.8-2.2,8.1-4.5c6.6-6.6,6.7-17.2,0.5-23.9l4.1-4.1l5.2,0.7c0.2,0,0.5,0,0.6-0.2l6.4-6.4
			C129.1,33.5,129.2,33.2,129.1,33z M76.1,24.8l0.6,0.2l2.5-4.4l4.3,1.8l-1.3,4.9l0.5,0.3c2.5,1.3,4.8,2.8,6.9,4.6l0.5,0.4l4-3.1
			l3.3,3.3l-3.1,4l0.4,0.5c0.4,0.5,0.7,0.9,1.1,1.4c-2.1,0.5-4.1,1.4-5.9,2.7c-4-4.8-9.3-8.5-15.3-10.4c1.1-1.8,2.1-2.9,2.2-3
			c0.2-0.2,0.3-0.5,0.1-0.8c-0.1-0.3-0.4-0.4-0.7-0.4h-7.7v-3.4C71,23.5,73.6,24,76.1,24.8z M70,40.7H58.8
			c0.5-5.2-2.7-10.2-4.5-12.5h20.1C72.7,30.5,69.5,35.5,70,40.7z M74.6,87.5H54.2c7.3-11.3,4.9-35.4,4.3-40.3h11.9
			C69.7,52.2,67.3,76.3,74.6,87.5z M50.8,45.7c0.4-2,2.1-3.5,4.2-3.5h18.8c2.1,0,3.9,1.5,4.2,3.5H50.8z M57.2,40.7H55
			c-3.2,0-5.8,2.6-5.8,5.8c0,0.4,0.3,0.8,0.8,0.8h7c0.5,4.3,3.2,29.9-4.6,40.3h-1.6c-0.4,0-0.7,0.2-0.7,0.6c-0.1,0.7-0.3,1.3-0.5,2
			c-9.9-5.3-16.6-15.8-16.6-27.8c0-14.2,9.4-26.1,22.3-30.1C56.4,34.6,57.5,37.6,57.2,40.7z M51.3,89l26.2,0
			c0.1,0.6,0.3,1.2,0.5,1.8c-4.1,2-8.7,3.1-13.6,3.1c-4.9,0-9.5-1.1-13.6-3.1C51,90.2,51.1,89.6,51.3,89z M76.4,87.5
			c-7.8-10.4-5.1-36-4.6-40.3h7c0.4,0,0.8-0.3,0.8-0.8c0-3.2-2.6-5.8-5.8-5.8h-2.2c-0.3-3.1,0.8-6.1,2.1-8.5
			c5.9,1.8,11.1,5.4,14.9,10c-0.4,0.3-0.7,0.6-1,0.9c-6.8,6.8-6.8,17.7,0,24.5c2,2,4.4,3.4,6.9,4.2c-2.5,7.9-8,14.4-15.1,18.3
			c-0.2-0.7-0.4-1.3-0.5-2c-0.1-0.3-0.4-0.6-0.7-0.6H76.4z M56.9,18.1v-4.9h4.3c0.4,0,0.8-0.3,0.8-0.8V8.1h4.9v4.3
			c0,0.4,0.3,0.8,0.8,0.8h4.3v4.9h-4.3c-0.4,0-0.8,0.3-0.8,0.8v7.9h-4.9v-7.9c0-0.4-0.3-0.8-0.8-0.8H56.9z M88.2,123.6H40.6
			c0.4-6,5.4-10.8,11.5-10.8h24.5C82.8,112.8,87.8,117.6,88.2,123.6z M85.1,103.3c0.6,0.7,1.2,1.3,1.9,1.9l1,0.9
			c1.1,1,1.2,2.4,0.8,3.3c-0.4,0.9-1.3,1.9-2.8,1.9H42.8c-1.5,0-2.5-1-2.8-1.9c-0.4-0.9-0.3-2.3,0.8-3.3l1-0.9
			c0.7-0.6,1.3-1.2,1.9-1.9l6.6,2.7l2.6-4.5c2.3,0.7,4.8,1.2,7.2,1.4l0.7,5.1l7.3,0l0.7-5.1c2.5-0.3,4.9-0.7,7.2-1.4l2.6,4.5
			L85.1,103.3z M106.1,77.1l-1.8,4.3l-4.9-1.3l-0.3,0.5c-1.3,2.4-2.8,4.8-4.6,6.9L94.2,88l3.1,4L94,95.3l-4-3.1l-0.5,0.4
			c-2.1,1.8-4.4,3.3-6.9,4.6l-0.5,0.3l1.3,4.9l-4.3,1.8l-2.5-4.4l-0.6,0.2c-2.6,0.8-5.3,1.3-8.1,1.6l-0.6,0.1l-0.6,5l-4.7,0l-0.6-5
			l-0.6-0.1c-2.8-0.3-5.5-0.8-8.1-1.6l-0.6-0.2l-2.5,4.4l-4.3-1.8l1.3-4.9l-0.5-0.3c-2.4-1.3-4.8-2.8-6.9-4.6l-0.5-0.4l-4,3.1
			L31.5,92l3.1-4l-0.4-0.5c-1.8-2.1-3.3-4.4-4.6-6.9l-0.3-0.5l-4.9,1.3l-1.8-4.3l4.4-2.5L26.8,74c-0.8-2.6-1.3-5.3-1.6-8.1l-0.1-0.6
			l-5-0.6l0-4.7l5-0.6l0.1-0.6c0.3-2.8,0.8-5.5,1.6-8.1l0.2-0.6l-4.4-2.5l1.8-4.3l4.9,1.3l0.3-0.5c1.3-2.5,2.8-4.8,4.6-6.9l0.4-0.5
			l-3.1-4l3.3-3.3l4,3.1l0.5-0.4c2.1-1.8,4.4-3.3,6.9-4.6l0.5-0.3l-1.3-4.9l4.3-1.8l2.5,4.4l0.6-0.2c2.5-0.8,5.1-1.3,7.7-1.6v3.4
			h-7.7c-0.3,0-0.6,0.2-0.7,0.4c-0.1,0.3-0.1,0.6,0.1,0.8c0,0,1,1.2,2.2,2.9c-13.3,4.3-23,16.7-23,31.5c0,18.2,14.8,33,33,33
			c14.8,0,27.3-9.7,31.5-23.1c2.1,0.5,4.3,0.6,6.5,0.3c-0.1,0.5-0.3,1-0.4,1.5l-0.2,0.6L106.1,77.1z M111,66.6
			c-6.2,6.2-16.2,6.2-22.4,0c-6.2-6.2-6.2-16.2,0-22.4c6-6,15.6-6.1,21.8-0.5l-2,2c-5.1-4.5-12.9-4.4-17.7,0.5c-5,5-5,13.2,0,18.3
			c5,5,13.2,5,18.3,0c4.9-4.9,5-12.7,0.5-17.7l2-2C117.1,51,117,60.6,111,66.6z M99.3,55.9c0.3,0.3,0.8,0.3,1.1,0l5-5
			c2.3,2.8,2.1,7-0.5,9.6c-2.8,2.8-7.3,2.8-10.1,0s-2.8-7.3,0-10.1c2.6-2.6,6.8-2.8,9.6-0.5l-5,5C99,55.2,99,55.6,99.3,55.9z
			 M93.7,49.3c-3.4,3.4-3.4,8.9,0,12.2c3.4,3.4,8.9,3.4,12.2,0c3.2-3.2,3.4-8.3,0.5-11.7l2-2c3.9,4.5,3.8,11.3-0.5,15.6
			c-4.5,4.5-11.7,4.5-16.2,0c-4.5-4.5-4.5-11.7,0-16.2c4.3-4.3,11.1-4.4,15.6-0.5l-2,2C102,45.9,96.9,46.1,93.7,49.3z M116.3,33.5
			l5.1-5.1l0.5,3.7l-5.1,5.1L116.3,33.5z M121.7,38.9l-3.7-0.5l5.1-5.1l3.7,0.5L121.7,38.9z"/>
	</g>
</g>
</svg>
