<svg xmlns="http://www.w3.org/2000/svg" xmlns:xlink="http://www.w3.org/1999/xlink" width="500" height="360"><style><![CDATA[.i{fill:#ffce63}.j{fill:#0c4b84}.k{fill-rule:evenodd}.l{fill:#fff}.m{opacity:.6}.n{fill:#f1f2f2}.o{fill:#cfd9e7}.p{fill:#c78ee0}]]></style><defs><clipPath id="A"><path d="M66.378 323.513h395.665V57.518H66.378z"/></clipPath><linearGradient x1="0" y1="0" x2="1" y2="0" gradientUnits="userSpaceOnUse" gradientTransform="matrix(393.3222,128.17685,-212.22095,347.13113,74.612793,131.98633)" spreadMethod="pad" id="B"><stop offset="0" stop-color="#13c095"/><stop offset=".986" stop-color="#1fb5b7"/><stop offset="1" stop-color="#1fb5b7"/></linearGradient><linearGradient x1="0" y1="0" x2="1" y2="0" gradientUnits="userSpaceOnUse" gradientTransform="matrix(383.06586,72.309677,72.309677,-383.06586,64.090332,192.23828)" spreadMethod="pad" id="C"><stop offset="0" stop-color="#13c095"/><stop offset=".986" stop-color="#1fb5b7"/><stop offset="1" stop-color="#1fb5b7"/></linearGradient><linearGradient x1="251.38" y1="76.746" x2="251.38" y2="333.081" gradientUnits="userSpaceOnUse" spreadMethod="pad" id="D"><stop offset="0" stop-color="#4dffd3"/><stop offset=".408" stop-color="#4dffd3"/><stop offset="1" stop-color="#72c9cb"/></linearGradient><clipPath id="E"><path d="M0 0h800v800H0z"/></clipPath><linearGradient x1="251.381" y1="299" x2="251.381" y2="200" gradientUnits="userSpaceOnUse" spreadMethod="pad" id="F"><stop offset="0" stop-color="#13c095"/><stop offset=".986" stop-color="#1fb5b7"/><stop offset="1" stop-color="#1fb5b7"/></linearGradient><clipPath id="G"><path d="M0 0h800v800H0z"/></clipPath><clipPath id="H"><path d="M159.016 207.41h15.02V192.39h-15.02z"/></clipPath><clipPath id="I"><path d="M155.836 210.596h10.692v-21.39h-10.692z"/></clipPath><clipPath id="J"><path d="M129.01 196.764h8.75v-8.75h-8.75z"/></clipPath><clipPath id="K"><path d="M127.157 198.62h6.228v-12.46h-6.228z"/></clipPath><clipPath id="L"><path d="M110.553 226.075h8.75v-8.75h-8.75z"/></clipPath><clipPath id="M"><path d="M108.7 227.93h6.228v-12.46H108.7z"/></clipPath><path id="N" d="M146.83 156.202h-3.618a1.32 1.32 0 0 0-1.322 1.321v3.618a1.32 1.32 0 0 0 1.322 1.323h3.618c.73 0 1.322-.592 1.322-1.323v-3.618a1.32 1.32 0 0 0-1.322-1.321"/><path id="O" d="M146.83 148.45h-3.618a1.32 1.32 0 0 0-1.322 1.321v3.62a1.32 1.32 0 0 0 1.322 1.322h3.618c.73 0 1.322-.592 1.322-1.322v-3.62c0-.73-.592-1.32-1.322-1.32"/><path id="P" d="M146.83 140.1h-3.618a1.32 1.32 0 0 0-1.322 1.322v3.618a1.32 1.32 0 0 0 1.322 1.323h3.618c.73 0 1.322-.592 1.322-1.323v-3.618a1.32 1.32 0 0 0-1.322-1.322"/><path id="Q" d="M154.58 140.1h-3.618a1.32 1.32 0 0 0-1.322 1.322v3.618a1.32 1.32 0 0 0 1.322 1.323h3.618c.73 0 1.32-.592 1.32-1.323v-3.618a1.32 1.32 0 0 0-1.321-1.322"/><path id="R" d="M181.922 132.585h-11.938c-.73 0-1.322.592-1.322 1.322v3.618c0 .73.592 1.323 1.322 1.323h11.938c.73 0 1.322-.592 1.322-1.323v-3.618c0-.73-.592-1.322-1.322-1.322"/></defs><g transform="matrix(1.228093 0 0 -1.249286 -69.628643 430.306108)"><path d="M87.637 112.072c-36.93 47.198-22.264 106.005 17.306 145.502 49.62 49.53 291.916 103.037 345.604 30.574C500.4 220.86 377.94 98.006 278.428 68.724c-90.196-26.54-154.154-3.477-190.79 43.348" fill="url(#B)" clip-path="url(#A)" opacity=".3"/><path d="M164.718 334.904C74.67 310.95 48.19 257.767 62.725 200.882c13.942-54.563 71.56-90.87 128.748-100.695 69.5-11.938 268.918 59.78 260.384 138.568-6.827 63.018-124.57 103.722-221.584 103.726-23.74.002-46.224-2.434-65.555-7.577" fill="url(#C)"/><path d="M66.38 300.857c-9.683-18.442 53.64-258.172 135.832-220 124.197 57.682 235.152-7.843 235.152 78 0 123.078-155.2 174.223-265.58 174.225-52.29.001-94.512-11.477-105.403-32.225" fill="url(#D)"/><g clip-path="url(#E)"><path d="M187.94 132.056a4.9 4.9 0 0 0-4.897-4.896h-40.388a4.9 4.9 0 0 0-4.898 4.896v45a4.9 4.9 0 0 0 4.898 4.897h40.388a4.9 4.9 0 0 0 4.897-4.897z" fill="#359cdb"/><path d="M182.194 168.487h-38.688a1.48 1.48 0 0 0-1.479 1.478v7.154a1.48 1.48 0 0 0 1.479 1.478h38.688a1.48 1.48 0 0 0 1.478-1.478v-7.154a1.48 1.48 0 0 0-1.478-1.478" fill="#cbe1ef"/><path d="M182.194 166.442h-38.688a1.48 1.48 0 0 0-1.479 1.479v7.154a1.48 1.48 0 0 0 1.479 1.477h38.688a1.48 1.48 0 0 0 1.478-1.477v-7.154a1.48 1.48 0 0 0-1.478-1.479" fill="#f1f8fe"/><g class="j"><use xlink:href="#N"/><use xlink:href="#O"/><use xlink:href="#P"/><path d="M154.58 156.202h-3.618a1.32 1.32 0 0 0-1.322 1.321v3.618a1.32 1.32 0 0 0 1.322 1.323h3.618a1.32 1.32 0 0 0 1.32-1.323v-3.618a1.32 1.32 0 0 0-1.321-1.321m.001-7.752h-3.618a1.32 1.32 0 0 0-1.322 1.321v3.62a1.32 1.32 0 0 0 1.322 1.322h3.618a1.32 1.32 0 0 0 1.32-1.322v-3.62a1.32 1.32 0 0 0-1.321-1.321"/><use xlink:href="#Q"/><use xlink:href="#N" x="15.266"/><use xlink:href="#O" x="15.266"/><path d="M174.005 148.45h-3.618a1.32 1.32 0 0 0-1.322 1.321v3.62a1.32 1.32 0 0 0 1.322 1.322h3.618c.73 0 1.322-.592 1.322-1.322v-3.62a1.32 1.32 0 0 0-1.322-1.321m7.515 0h-3.618a1.32 1.32 0 0 0-1.321 1.321v3.62a1.32 1.32 0 0 0 1.321 1.322h3.618c.73 0 1.322-.592 1.322-1.322v-3.62a1.32 1.32 0 0 0-1.322-1.32"/><use xlink:href="#N" x="27.175"/><path d="M181.52 156.202h-3.618a1.32 1.32 0 0 0-1.321 1.321v3.618a1.32 1.32 0 0 0 1.321 1.323h3.618c.73 0 1.322-.592 1.322-1.323v-3.618a1.32 1.32 0 0 0-1.322-1.321"/><use xlink:href="#P" x="15.266"/><use xlink:href="#P" y="-7.593"/><use xlink:href="#Q" y="-7.593"/><use xlink:href="#P" x="15.266" y="-7.593"/></g><use xlink:href="#R" fill="#ff7443"/><use xlink:href="#R" y="7.819" fill="#1ed9de"/><path d="M206.842 254.467h-9.002v13.85h9.002z" class="n"/><path d="M198.973 255.6h6.736v11.582h-6.736zm7.87-2.266h-9.002c-.626 0-1.134.507-1.134 1.133v13.848c0 .625.508 1.133 1.134 1.133h9.002c.626 0 1.133-.508 1.133-1.133v-13.848c0-.626-.507-1.133-1.133-1.133" class="j"/><path d="M222.074 254.467h-9v26.313h9z" class="n"/><path d="M214.206 255.6h6.735v24.046h-6.735zm7.868-2.266h-9c-.626 0-1.133.507-1.133 1.133v26.312c0 .625.507 1.133 1.133 1.133h9c.627 0 1.134-.508 1.134-1.133v-26.312c0-.626-.507-1.133-1.134-1.133" class="j"/><path d="M236.615 254.467h-9v38.084h9z" fill="#359cdb"/><g class="j"><path d="M196.17 273.885l-1.508 1.7 30.674 27.35 1.508-1.69z"/><path d="M226.855 295.597l-2.263.13.288 5.02-5.487-.84-.343 2.24 6.87 1.054c.338.05.68-.053.934-.283a1.13 1.13 0 0 0 .369-.903z"/></g></g><path d="M114.764 248.126l13.406 12.807 73.1-80.337 66.116 51.046 83.102-79.97 45.828.052-118.24 122.07-71.948-51.89-55.517 60.596 14.418 13.415-58.585 8.06z" fill="url(#F)"/><g clip-path="url(#G)"><path d="M330.262 251.753v-7.607h-14.63v.27a7.34 7.34 0 0 1-7.338 7.338h-.148a7.34 7.34 0 0 1-7.338-7.338v-111.163h72.724v118.5z" class="o"/><path d="M307.882 251.753c3.288 0 7.79-1.868 7.79-8.1l.054-102.517c0-4.32 1.853-7.936 7.076-7.936 3.297 0 7.975.942 7.975 8.418l53.407-2.928-.054 104.963c0 4.473-4.422 8.1-9.856 8.1z" class="l"/><path d="M321.38 230.898h55.362v-2.53H321.38zm0 6.732h55.362v-2.53H321.38zm0 6.73h55.362v-2.53H321.38z" class="o"/><path d="M400.92 179.343v-37.707s.784-8.442-11.073-8.442l-66.4.01c1.01.03 7.323.573 7.323 8.415v28.533s-.887 9.192 8.642 9.192z" class="n"/><path d="M323.262 133.204l.188-.001c-.12-.003-.188.001-.188.001" class="l"/><path d="M345.662 169.056c2.775 9.107-6.253 10.282-6.253 10.282h61.505c9.338 0 10.096-5.773 9.265-10.282z" class="o"/><path d="M380.802 153.258l13.136 4.275c-1.885 5.81-7.033 9.558-13.136 9.558z" fill="#a6ce6c"/><path d="M380.802 153.258l-13.14-4.272c2.357-7.263 10.152-11.24 17.408-8.878s11.226 10.162 8.867 17.425z" class="j"/><path d="M380.802 153.258l-8.122 11.2c-4.937-3.6-6.9-9.652-5.017-15.462z" class="i"/><path d="M380.802 153.258v13.833c-3.052 0-5.65-.848-8.122-2.643z" class="p"/><path d="M334.5 149.778h30.535v-2.53H334.5zm0-7.043h30.535v-2.53H334.5zm0 14.087h30.535v-2.53H334.5zm0 7.043h30.535v-2.53H334.5z" class="o"/><path d="M327.817 214.645l6.717 3.27 6.438-3.303h6.44l3.755 3.236 6.623-6.472 6.44 3.236 6.53 3.236 5.983-2.972v-26.45H321.38v30.47z" class="i"/><path d="M327.725 207.915l6.717 6.73 7.72-7.52 9.57 4.118 5.966-7.04 6.53 7.173 6.623-3.336 5.9 2.93v-22.544H321.38v22.817z" class="p"/><path d="M327.9 211.376l6.438-3.27 6.177-7.194 6.98 3.86 3.754 3.223 6.53-9.78 6.53 3.322 6.53-3.416 5.9 3.094v-12.788H321.38v19.02z" class="j"/><path d="M327.817 199.933l6.53 4.77 6.44-6.538 6.624 3.27 3.83-5.612 11.2-1.275 8.317 6.954 5.983-3.01v-10.066H321.38v13.714z" fill="#a6ce6c"/><path d="M323.265 152.868H179.497V240h143.768z" class="n"/><g class="j"><path d="M322.678 150.492H180.085v4.752h142.593z"/><path d="M247.077 117.333h7.582v35.535h-7.582zM230 152.868l-16.312-26.8h8.168l16.3 26.8zm32.438 0l16.3-26.8h8.168l-16.312 26.8z"/></g><path d="M251.896 196.435c-.264 17.427-11.407 28.234-27.382 28.495v-28.495z" class="p"/><path d="M224.515 196.435v28.495c0 .006-.013.026-.183.026-15.06 0-27.115-12.21-27.115-27.273s12.29-27.274 27.354-27.274 27.313 11.34 27.313 26.403c0 .168.016-.377.016-.377z" class="l"/><g class="j"><path d="M222.14 222.482c-12.617-1.12-22.546-11.815-22.546-24.8 0-13.73 11.205-24.898 24.978-24.898 12.955 0 23.4 9.166 24.782 21.273h-24.838c-1.313 0-2.376 1.065-2.376 2.377zm2.432-54.45c-16.394 0-29.73 13.302-29.73 29.65s13.23 29.65 29.5 29.65c1.662 0 2.56-1.238 2.56-2.403V198.8h23.675c3.464 0 3.694-2.577 3.686-2.682-1.208-15.736-13.345-28.096-29.68-28.096m74.004 43.462h-20.33v4.753h20.33z"/><path d="M298.577 194.058h-20.33v4.753h20.33zm0-18.878h-20.33v4.752h20.33z"/></g><path d="M169.307 238.076c0 12.334-10.492 22.232-23.003 21.377-11.15-.762-19.733-10.486-19.598-21.66.095-7.9 4.16-14.746 10.96-18.38 2.42-1.293 3.88-3.87 3.88-6.614v-.05h13.386v.05c0 2.77 1.412 5.37 3.78 6.814 6.11 3.726 10.597 10.597 10.597 18.463" class="i"/><path d="M146.304 259.453a20.24 20.24 0 0 1-4.249-.754l1.014.038c8.45 0 15.502-7.052 15.502-15.502s-7.05-15.503-15.502-15.503-15.502 7.052-15.502 15.503a14.92 14.92 0 0 0 .029.9 21.44 21.44 0 0 1-.89-6.343c.095-7.9 4.16-14.746 10.96-18.38 2.42-1.293 3.88-3.87 3.88-6.614v-.05h13.386v.05c0 2.77 1.412 5.37 3.78 6.814 6.11 3.726 10.597 10.597 10.597 18.463 0 12.334-10.492 22.232-23.003 21.377" fill="#f9994f"/><path d="M148.006 210.98a1.77 1.77 0 0 0-1.77 1.77v17.904a1.77 1.77 0 1 0 3.54 0V212.75a1.77 1.77 0 0 0-1.77-1.77" class="j"/><path d="M133.596 231.915c-1.026 0-1.97.675-2.268 1.7-.273.96-.444 1.918-.505 2.853a2.36 2.36 0 0 0 2.2 2.508 2.36 2.36 0 0 0 2.508-2.199 8.96 8.96 0 0 1 .334-1.862 2.36 2.36 0 0 0-1.619-2.918c-.216-.062-.435-.092-.65-.092m.368 9.12a2.34 2.34 0 0 0-.866.166 2.36 2.36 0 0 0-1.327 3.061c1.713 4.333 4.92 6.6 5.054 6.704a2.36 2.36 0 0 0 2.715-3.86c-.063-.046-2.22-1.642-3.382-4.58a2.36 2.36 0 0 0-2.194-1.492m2.618-32.506v.094a4.63 4.63 0 0 0 4.629 4.628h14.055a4.63 4.63 0 0 0 4.628-4.628v-.094a4.63 4.63 0 0 0-4.628-4.628h-14.055a4.63 4.63 0 0 0-4.629 4.628" class="l"/><path d="M314.613 247.47a12.9 12.9 0 0 0-12.897-12.896 12.9 12.9 0 0 0-12.896 12.896c0 7.123 5.773 12.896 12.896 12.896a12.9 12.9 0 0 0 12.897-12.896" class="i"/><g class="j"><path d="M303.164 240.6h-2.405v13.968h2.405z"/><path d="M309.313 246.748h-13.968v2.406h13.968z"/></g><path d="M166.53 210.596a10.7 10.7 0 0 1-10.695-10.695 10.7 10.7 0 0 1 10.695-10.696 10.7 10.7 0 0 1 10.696 10.696 10.7 10.7 0 0 1-10.696 10.695" class="i k"/><g clip-path="url(#H)" class="m i"><path d="M166.526 192.39c4.148 0 7.51 3.363 7.51 7.512a7.51 7.51 0 0 1-15.022 0c0-4.15 3.363-7.512 7.51-7.512"/></g><path d="M166.824 200.745c-1.324.4-1.61.607-1.61 1.163 0 .566.904.715 1.436.715.508 0 1.11-.16 1.47-.392.144-.092.334-.05.43.092l.67 1.04c.094.144.052.335-.092.428-.496.32-1.15.55-1.822.642v.64c0 .17-.14.31-.3.31h-1.24a.31.31 0 0 1-.309-.311v-.742c-1.295-.343-2.09-1.252-2.09-2.424 0-2.053 1.762-2.587 2.93-2.94 1.254-.38 1.507-.553 1.502-1.026 0-.523-.862-.662-1.372-.662-.625 0-1.33.28-1.71.685-.057.06-.134.094-.215.097s-.164-.028-.223-.085l-.9-.85a.31.31 0 0 1-.012-.438c.525-.552 1.275-.965 2.09-1.152v-.707a.31.31 0 0 1 .309-.31h1.24c.17 0 .3.14.3.3v.673c1.432.268 2.342 1.202 2.342 2.433.017 1.95-1.69 2.466-2.82 2.81" class="k l"/><g clip-path="url(#I)" class="m i k"><path d="M166.528 189.205v21.39a10.7 10.7 0 0 1-10.692-10.696c0-5.906 4.787-10.693 10.692-10.695"/></g><path d="M133.387 198.62a6.23 6.23 0 1 1 0-12.46 6.23 6.23 0 0 1 6.23 6.23c0 3.44-2.8 6.23-6.23 6.23" class="i k"/><g clip-path="url(#J)" class="m i"><path d="M133.384 188.014c2.417 0 4.375 1.96 4.375 4.375s-1.958 4.375-4.375 4.375-4.375-1.958-4.375-4.375 1.958-4.375 4.375-4.375"/></g><path d="M133.558 192.88c-.772.233-.938.354-.938.678 0 .33.526.416.835.416a1.74 1.74 0 0 0 .857-.228.18.18 0 0 1 .249.054l.39.605c.054.083.03.195-.054.25a2.67 2.67 0 0 1-1.062.374v.373c0 .1-.082.18-.18.18h-.722a.18.18 0 0 1-.18-.181v-.43c-.754-.2-1.217-.73-1.217-1.412 0-1.197 1.027-1.507 1.708-1.713.73-.22.876-.32.875-.597 0-.305-.502-.386-.8-.386-.364 0-.775.164-.997.4-.033.034-.078.055-.125.055s-.095-.015-.13-.048l-.524-.496a.18.18 0 0 1-.008-.255c.306-.323.743-.563 1.217-.67v-.412a.18.18 0 0 1 .18-.18h.722a.18.18 0 0 1 .18.18v.392c.835.157 1.366.7 1.366 1.417.008 1.135-.986 1.437-1.644 1.636" class="k l"/><g clip-path="url(#K)" class="m i k"><path d="M133.385 186.16v12.46c-3.44-.002-6.228-2.8-6.228-6.23a6.23 6.23 0 0 1 6.228-6.229"/></g><path d="M114.93 227.93a6.23 6.23 0 0 1 0-12.46 6.23 6.23 0 0 1 0 12.46" class="i k"/><g clip-path="url(#L)" class="m i"><path d="M114.928 217.325c2.416 0 4.375 1.958 4.375 4.375s-1.96 4.375-4.375 4.375-4.375-1.96-4.375-4.375 1.958-4.375 4.375-4.375"/></g><path d="M115.1 222.192c-.77.233-.938.354-.938.678s.527.416.837.416c.295 0 .647-.094.855-.23.083-.053.194-.03.25.054l.39.605c.055.084.03.196-.053.25-.29.188-.67.32-1.063.375v.373c0 .1-.08.18-.18.18h-.722c-.1 0-.18-.082-.18-.18v-.432c-.755-.2-1.217-.73-1.217-1.41 0-1.197 1.027-1.508 1.707-1.713.73-.222.877-.322.875-.598 0-.305-.502-.386-.8-.386-.364 0-.775.165-.997.4-.033.035-.078.056-.125.056s-.095-.016-.13-.05l-.524-.495c-.072-.07-.075-.183-.007-.255.306-.323.743-.563 1.217-.672v-.41a.18.18 0 0 1 .18-.181h.722a.18.18 0 0 1 .179.181v.39c.836.157 1.366.7 1.366 1.417.01 1.136-.986 1.437-1.644 1.637" class="k l"/><g clip-path="url(#M)" class="m i k"><path d="M114.93 215.47v12.46a6.23 6.23 0 0 1-6.228-6.23 6.23 6.23 0 0 1 6.228-6.229"/></g></g></g></svg>