<?xml version="1.0" encoding="utf-8"?>
<!-- Generator: Adobe Illustrator 21.1.0, SVG Export Plug-In . SVG Version: 6.00 Build 0)  -->
<svg version="1.1" id="Icon_Set" xmlns="http://www.w3.org/2000/svg" xmlns:xlink="http://www.w3.org/1999/xlink" x="0px" y="0px"
	 viewBox="0 0 64 64" style="enable-background:new 0 0 64 64;" xml:space="preserve">
<style type="text/css">
	.st0{fill:#263238;}
	.st1{fill:#40C4FF;}
	.st2{fill:#FFD740;}
	.st3{fill:#FF5252;}
	.st4{fill:#4DB6AC;}
	.st5{fill:#FFFFFF;}
	.st6{fill:#4FC3F7;}
</style>
<g id="Billionaire">
	<g>
		<path class="st0" d="M19.5,33c-4.659,0-8.734-3.062-10.053-7.5c-1.63-0.028-2.947-1.363-2.947-3s1.317-2.972,2.947-3
			C10.766,15.062,14.841,12,19.5,12s8.734,3.062,10.053,7.5c1.63,0.028,2.947,1.363,2.947,3s-1.317,2.972-2.947,3
			C28.234,29.938,24.159,33,19.5,33z M9.759,24.477c0.234,0,0.488,0.145,0.544,0.368C11.375,29.058,15.157,32,19.5,32
			s8.125-2.942,9.196-7.155c0.062-0.246,0.295-0.408,0.549-0.373C29.376,24.49,29.437,24.5,29.5,24.5c1.103,0,2-0.897,2-2
			s-0.897-2-2-2c-0.063,0-0.124,0.01-0.185,0.019c-0.255,0.029-0.556-0.116-0.619-0.363C27.625,15.942,23.843,13,19.5,13
			s-8.125,2.942-9.196,7.155c-0.062,0.245-0.297,0.407-0.549,0.373C9.624,20.51,9.563,20.5,9.5,20.5c-1.103,0-2,0.897-2,2
			s0.897,2,2,2c0.063,0,0.124-0.01,0.185-0.019C9.709,24.479,9.734,24.477,9.759,24.477z"/>
	</g>
	<g>
		<path class="st0" d="M9.5,58C9.224,58,9,57.776,9,57.5v-11C9,46.224,9.224,46,9.5,46s0.5,0.224,0.5,0.5v11
			C10,57.776,9.776,58,9.5,58z"/>
	</g>
	<g>
		<path class="st0" d="M3.5,58C3.224,58,3,57.776,3,57.5V42.59c0-2.097,1.165-3.981,3.041-4.919l9.236-4.618
			c0.248-0.125,0.547-0.022,0.671,0.224c0.124,0.247,0.023,0.547-0.224,0.671l-9.236,4.618C4.953,39.332,4,40.874,4,42.59V57.5
			C4,57.776,3.776,58,3.5,58z"/>
	</g>
	<g>
		<path class="st0" d="M20.5,40h-2c-0.827,0-1.5-0.673-1.5-1.5v-1c0-0.827,0.673-1.5,1.5-1.5h2c0.827,0,1.5,0.673,1.5,1.5v1
			C22,39.327,21.327,40,20.5,40z M18.5,37c-0.276,0-0.5,0.225-0.5,0.5v1c0,0.275,0.224,0.5,0.5,0.5h2c0.276,0,0.5-0.225,0.5-0.5v-1
			c0-0.275-0.224-0.5-0.5-0.5H18.5z"/>
	</g>
	<g>
		<path class="st0" d="M19.5,28c-1.469,0-2.851-0.572-3.889-1.611c-0.195-0.195-0.195-0.512,0-0.707s0.512-0.195,0.707,0
			C17.168,26.532,18.298,27,19.5,27s2.332-0.468,3.182-1.318c0.195-0.195,0.512-0.195,0.707,0s0.195,0.512,0,0.707
			C22.351,27.428,20.969,28,19.5,28z"/>
	</g>
	<g>
		<path class="st0" d="M21.256,37.366c-0.147,0-0.288-0.065-0.383-0.179C20.814,37.117,20.688,37,20.5,37h-2
			c-0.188,0-0.314,0.117-0.374,0.188c-0.101,0.12-0.267,0.189-0.41,0.178c-0.157-0.009-0.301-0.091-0.389-0.222l-2.244-3.366
			C15.029,33.695,15,33.599,15,33.5v-1.838c0-0.169,0.085-0.326,0.227-0.418c0.141-0.094,0.32-0.108,0.474-0.04
			c2.415,1.057,5.185,1.057,7.6,0c0.155-0.068,0.333-0.053,0.474,0.04C23.915,31.336,24,31.493,24,31.662V33.5
			c0,0.099-0.029,0.195-0.084,0.277l-2.244,3.366c-0.087,0.131-0.231,0.213-0.389,0.222C21.275,37.366,21.266,37.366,21.256,37.366z
			 M18.5,36h2c0.221,0,0.437,0.052,0.634,0.147L23,33.349v-0.951c-2.25,0.801-4.75,0.801-7,0v0.951l1.866,2.799
			C18.063,36.052,18.279,36,18.5,36z"/>
	</g>
	<g>
		<path class="st2" d="M10,22.5H9.5v-5h3V20C12.5,21.381,11.381,22.5,10,22.5z"/>
		<path class="st0" d="M10,23H9.5C9.224,23,9,22.776,9,22.5v-5C9,17.224,9.224,17,9.5,17h3c0.276,0,0.5,0.224,0.5,0.5V20
			C13,21.654,11.654,23,10,23z M10,22h0.01H10z M10,18v4c1.103,0,2-0.897,2-2v-2H10z"/>
	</g>
	<g>
		<path class="st2" d="M26.5,17.5h-17V17c0-4.142,3.358-7.5,7.5-7.5h5.345c2.719,0,5.386-0.739,7.717-2.138L31.5,6.5v6
			C31.5,15.261,29.261,17.5,26.5,17.5z"/>
		<path class="st0" d="M26.5,18h-17C9.224,18,9,17.776,9,17.5V17c0-4.411,3.589-8,8-8h5.345c2.627,0,5.207-0.715,7.46-2.066
			l1.438-0.862c0.154-0.094,0.347-0.095,0.504-0.007C31.903,6.153,32,6.32,32,6.5v6C32,15.532,29.533,18,26.5,18z M10,17h16.5
			c2.481,0,4.5-2.019,4.5-4.5V7.383l-0.68,0.408C27.911,9.236,25.153,10,22.345,10H17C13.14,10,10,13.141,10,17z"/>
	</g>
	<g>
		<path class="st2" d="M26.5,17.5V20c0,1.381,1.119,2.5,2.5,2.5h0.5v-6.023C28.662,17.11,27.631,17.5,26.5,17.5z"/>
		<path class="st0" d="M29.5,23H29c-1.654,0-3-1.346-3-3v-2.5c0-0.276,0.224-0.5,0.5-0.5c0.967,0,1.9-0.318,2.699-0.922
			c0.151-0.113,0.354-0.133,0.524-0.048C29.893,16.114,30,16.288,30,16.478V22.5C30,22.776,29.776,23,29.5,23z M27,17.977V20
			c0,1.103,0.897,2,2,2v-4.616C28.373,17.712,27.698,17.912,27,17.977z"/>
	</g>
	<g>
		<path class="st0" d="M41.5,58H32c-1.654,0-3-1.346-3-3v-8.5c0-0.276,0.224-0.5,0.5-0.5s0.5,0.224,0.5,0.5V55c0,1.103,0.897,2,2,2
			h9v-5h-4.5c-0.827,0-1.5-0.673-1.5-1.5v-7.91c0-1.716-0.953-3.258-2.488-4.024l-9.236-4.618c-0.247-0.124-0.347-0.424-0.224-0.671
			c0.124-0.246,0.423-0.349,0.671-0.224l9.236,4.618C34.835,38.608,36,40.493,36,42.59v7.91c0,0.275,0.224,0.5,0.5,0.5h5
			c0.276,0,0.5,0.224,0.5,0.5v6C42,57.776,41.776,58,41.5,58z"/>
	</g>
	<g>
		<path class="st0" d="M50,58h-6.5c-0.276,0-0.5-0.224-0.5-0.5s0.224-0.5,0.5-0.5H50c0.276,0,0.5-0.225,0.5-0.5v-4
			c0-0.275-0.224-0.5-0.5-0.5h-4c-0.276,0-0.5-0.224-0.5-0.5v-1c0-0.275-0.224-0.5-0.5-0.5h-0.5c-0.276,0-0.5,0.225-0.5,0.5v1
			c0,0.276-0.224,0.5-0.5,0.5S43,51.776,43,51.5v-1c0-0.827,0.673-1.5,1.5-1.5H45c0.827,0,1.5,0.673,1.5,1.5V51H50
			c0.827,0,1.5,0.673,1.5,1.5v4C51.5,57.327,50.827,58,50,58z"/>
	</g>
	<g>
		<path class="st4" d="M57.996,46.5H43.78c-1.938,0-3.139-2.11-2.15-3.776L48.888,30.5h4l7.258,12.224
			C61.135,44.39,59.934,46.5,57.996,46.5z"/>
		<path class="st0" d="M57.996,47H43.78c-1.092,0-2.067-0.566-2.607-1.517c-0.54-0.949-0.53-2.076,0.028-3.016l7.258-12.223
			c0.09-0.152,0.253-0.245,0.43-0.245h4c0.176,0,0.34,0.093,0.43,0.245l7.257,12.224c0.558,0.938,0.568,2.065,0.028,3.015
			C60.063,46.434,59.088,47,57.996,47z M49.173,31L42.06,42.979c-0.372,0.626-0.378,1.378-0.019,2.011
			C42.402,45.622,43.052,46,43.78,46h14.216c0.728,0,1.378-0.378,1.738-1.011s0.354-1.385-0.018-2.011L52.604,31H49.173z"/>
	</g>
	<g>
		<rect x="48.888" y="28.5" class="st2" width="4" height="2"/>
		<path class="st0" d="M52.888,31h-4c-0.276,0-0.5-0.224-0.5-0.5v-2c0-0.276,0.224-0.5,0.5-0.5h4c0.276,0,0.5,0.224,0.5,0.5v2
			C53.388,30.776,53.165,31,52.888,31z M49.388,30h3v-1h-3V30z"/>
	</g>
	<g>
		<polygon class="st4" points="52.888,28.5 48.888,28.5 46.888,22.5 54.888,22.5 		"/>
		<path class="st0" d="M52.888,29h-4c-0.215,0-0.406-0.138-0.474-0.342l-2-6c-0.051-0.152-0.025-0.32,0.068-0.45
			C46.577,22.077,46.728,22,46.888,22h8c0.161,0,0.312,0.077,0.406,0.208c0.094,0.13,0.12,0.298,0.068,0.45l-2,6
			C53.294,28.862,53.104,29,52.888,29z M49.249,28h3.279l1.667-5h-6.612L49.249,28z"/>
	</g>
	<g>
		<path class="st0" d="M50.888,26c-0.276,0-0.5-0.224-0.5-0.5v-3c0-0.276,0.224-0.5,0.5-0.5s0.5,0.224,0.5,0.5v3
			C51.388,25.776,51.165,26,50.888,26z"/>
	</g>
	<g>
		<path class="st0" d="M50.888,37c-0.276,0-0.5-0.224-0.5-0.5V35c0-0.276,0.224-0.5,0.5-0.5s0.5,0.224,0.5,0.5v1.5
			C51.388,36.776,51.165,37,50.888,37z"/>
	</g>
	<g>
		<path class="st0" d="M50.888,43.5c-0.276,0-0.5-0.224-0.5-0.5v-1.5c0-0.276,0.224-0.5,0.5-0.5s0.5,0.224,0.5,0.5V43
			C51.388,43.276,51.165,43.5,50.888,43.5z"/>
	</g>
	<g>
		<path class="st0" d="M51.638,42h-2.75c-0.276,0-0.5-0.224-0.5-0.5s0.224-0.5,0.5-0.5h2.75c0.414,0,0.75-0.337,0.75-0.75
			s-0.336-0.75-0.75-0.75h-1.5c-0.965,0-1.75-0.785-1.75-1.75S49.173,36,50.138,36h2.25c0.276,0,0.5,0.224,0.5,0.5
			s-0.224,0.5-0.5,0.5h-2.25c-0.414,0-0.75,0.337-0.75,0.75s0.336,0.75,0.75,0.75h1.5c0.965,0,1.75,0.785,1.75,1.75
			S52.603,42,51.638,42z"/>
	</g>
	<g>
		<path class="st0" d="M19.5,58c-0.224,0-0.42-0.148-0.481-0.363l-5.278-18.581c-0.076-0.266,0.079-0.542,0.344-0.618
			c0.265-0.072,0.542,0.079,0.618,0.345L19.5,55.67l4.796-16.883c0.075-0.266,0.351-0.421,0.618-0.345
			c0.266,0.076,0.42,0.353,0.344,0.618l-5.277,18.576C19.92,57.852,19.724,58,19.5,58z"/>
	</g>
	<g>
		<polygon class="st2" points="20.5,39.5 18.5,39.5 17.19,49.367 19.5,57.5 21.81,49.367 		"/>
		<path class="st0" d="M19.5,58c-0.224,0-0.42-0.148-0.481-0.363l-2.31-8.133c-0.019-0.065-0.024-0.135-0.015-0.202l1.31-9.867
			C18.037,39.186,18.25,39,18.5,39h2c0.25,0,0.463,0.186,0.496,0.435l1.31,9.867c0.009,0.067,0.004,0.137-0.015,0.202l-2.31,8.133
			C19.92,57.852,19.724,58,19.5,58z M17.699,49.33l1.801,6.34l1.801-6.34L20.062,40h-1.124L17.699,49.33z"/>
	</g>
	<g>
		<path class="st0" d="M14.222,39.419c-0.054,0-0.109-0.009-0.162-0.026c-0.155-0.054-0.274-0.18-0.319-0.337l-1.189-4.186
			c-0.066-0.231,0.042-0.477,0.257-0.584l2.467-1.233c0.227-0.114,0.5-0.04,0.64,0.17l2,3c0.148,0.222,0.096,0.521-0.119,0.68
			l-3.278,2.419C14.432,39.386,14.327,39.419,14.222,39.419z M13.627,34.995l0.878,3.093l2.314-1.707l-1.491-2.236L13.627,34.995z"
			/>
	</g>
	<g>
		<path class="st0" d="M24.777,39.424c-0.105,0-0.21-0.033-0.297-0.098l-3.277-2.424c-0.214-0.159-0.267-0.458-0.119-0.68l2-3
			c0.14-0.21,0.415-0.284,0.64-0.17l2.467,1.233c0.215,0.107,0.323,0.353,0.257,0.584l-1.19,4.19
			c-0.045,0.158-0.164,0.283-0.32,0.337C24.886,39.415,24.831,39.424,24.777,39.424z M22.18,36.381l2.313,1.711l0.879-3.097
			l-1.701-0.851L22.18,36.381z"/>
	</g>
	<g>
		<path class="st0" d="M42.938,18.988c-0.215,0-0.406-0.138-0.474-0.342l-0.553-1.658c-0.23-0.691-0.781-1.241-1.473-1.473
			l-1.658-0.553c-0.204-0.068-0.342-0.26-0.342-0.475s0.138-0.406,0.342-0.475l1.659-0.553c0.691-0.23,1.242-0.78,1.473-1.472
			l0.552-1.659c0.137-0.408,0.812-0.408,0.949,0l0.553,1.659c0.23,0.691,0.781,1.242,1.472,1.472l1.659,0.553
			c0.204,0.068,0.342,0.26,0.342,0.475s-0.138,0.406-0.342,0.475l-1.658,0.553c-0.692,0.23-1.242,0.781-1.473,1.473l-0.553,1.658
			C43.345,18.851,43.154,18.988,42.938,18.988z M40.52,14.488l0.235,0.078c0.989,0.331,1.776,1.118,2.105,2.105l0.078,0.235
			l0.079-0.235c0.329-0.988,1.116-1.774,2.105-2.105l0.235-0.078l-0.235-0.078c-0.988-0.329-1.775-1.116-2.105-2.104l-0.079-0.235
			l-0.078,0.235c-0.33,0.988-1.117,1.775-2.105,2.104L40.52,14.488z"/>
	</g>
</g>
</svg>
