<svg xmlns="http://www.w3.org/2000/svg" xmlns:xlink="http://www.w3.org/1999/xlink" width="500" height="360"><style><![CDATA[.AB{fill:#215c82}.AC{fill:#ffd651}.AD{fill:#fff}.AE{fill:#a6ce6c}.AF{fill:#cfd9e7}.AG{fill:#fed65c}]]></style><defs><clipPath id="A"><path d="M86.528 732.118h349.066V469.43H86.528z"/></clipPath><linearGradient x1="0" y1="0" x2="1" y2="0" gradientUnits="userSpaceOnUse" gradientTransform="matrix(-349.03186,-152.80875,158.02971,-349.34726,432.11914,669.18115)" spreadMethod="pad" id="B"><stop offset="0" stop-color="#3590f3"/><stop offset=".986" stop-color="#47e0ff"/><stop offset="1" stop-color="#47e0ff"/></linearGradient><linearGradient x1="0" y1="0" x2="1" y2="0" gradientUnits="userSpaceOnUse" gradientTransform="matrix(96.103287,196.51573,257.1904,-101.04063,209.7041,511.85449)" spreadMethod="pad" id="C"><stop offset="0" stop-color="#afd284"/><stop offset=".248" stop-color="#afd284"/><stop offset="1" stop-color="#59d0f2"/></linearGradient><linearGradient x1="0" y1="0" x2="1" y2="0" gradientUnits="userSpaceOnUse" gradientTransform="matrix(29.205978,244.16649,-255.16183,17.707916,234.21729,457.29004)" spreadMethod="pad" id="D"><stop offset="0" stop-color="#47e0ff"/><stop offset=".149" stop-color="#47e0ff"/><stop offset="1" stop-color="#3387f2"/></linearGradient><clipPath id="E"><path d="M0 0h800v800H0z"/></clipPath><linearGradient x1="0" y1="0" x2="1" y2="0" gradientUnits="userSpaceOnUse" gradientTransform="matrix(-31.853027,0,0,31.853027,194.79199,586.06738)" spreadMethod="pad" id="F"><stop offset="0" stop-color="#afd284"/><stop offset=".125" stop-color="#afd284"/><stop offset="1" stop-color="#59d0f2"/></linearGradient><clipPath id="G"><path d="M271.622 528.452h26.213v-13.29h-26.213z"/></clipPath><path id="H" d="M297.022 582.316c0-1.418-1.15-2.567-2.567-2.567a2.57 2.57 0 0 0-2.568 2.567 2.57 2.57 0 0 0 2.568 2.567c1.418 0 2.567-1.15 2.567-2.567"/><path id="I" d="M326.615 556.777c0-1.04.844-1.885 1.885-1.885s1.885.844 1.885 1.885-.844 1.884-1.885 1.884-1.885-.844-1.885-1.884"/><path id="J" d="M319.414 556.977c0-.482.392-.873.874-.873s.874.39.874.873v5.52c0 .484-.392.875-.874.875s-.874-.39-.874-.875z"/></defs><g transform="matrix(1.25193 0 0 -1.300409 -84.07013 952.662975)"><g clip-path="url(#A)" opacity=".3"><path d="M425.185 683.808c27.457-49.2-2.835-113.137-50.835-154.25-55.057-47.156-250.36-89.9-282.296-32.662-30.002 53.77 67.914 171.524 155.24 211.894 89.758 41.496 150.432 24.228 177.9-24.982" fill="url(#B)"/></g><path d="M68.856 666.48c2.927-31.18 29.696-83.324 110.71-137.463 140.095-93.615 337.07 10.57 271.583 102.608-36.426 51.195-167.813 83.238-266.487 83.244-67.037.004-118.96-14.78-115.807-48.39" fill="url(#C)"/><path d="M288.085 696.578c-64.608-2.74-201.136-44.177-212.952-100.96-13.073-62.818 58.72-117.974 128.973-135.26 74.16-18.247 228.758 92.785 224.337 156.04-4.925 70.462-62.923 80.81-115.144 80.808-8.65-.001-17.15-.285-25.214-.626" fill="url(#D)"/><g clip-path="url(#E)"><path d="M170.266 605.654v-6.032h11.6v.213a5.82 5.82 0 0 0 5.819 5.819h.117a5.82 5.82 0 0 0 5.818-5.819V511.69h-57.667v93.965z" class="AF"/><path d="M188.012 605.654c-2.607 0-6.18-1.48-6.18-6.414l-.042-81.292c0-3.424-1.47-6.293-5.61-6.293-2.614 0-6.324.748-6.324 6.676l-42.35-2.323.043 83.232c0 3.546 3.507 6.414 7.816 6.414z" fill="#f5f5f5"/><path d="M177.3 589.118h-43.9V587.1h43.9zm0 5.337h-43.9v-2.007h43.9zm.01 5.337h-43.9v-2.007h43.9z" class="AF"/><path d="M114.236 548.237v-29.9s-.622-6.695 8.78-6.695l52.65.01c-.802.022-5.806.453-5.806 6.672v22.624s.703 7.3-6.854 7.3zm61.58-36.587h-.15.15" class="AD"/><path d="M158.054 540.08c-2.2 7.222 4.958 8.153 4.958 8.153h-48.77c-7.404 0-8.005-4.578-7.346-8.153z" class="AF"/><path d="M130.19 527.553l-10.416 3.4c1.495 4.607 5.577 7.58 10.416 7.58z" class="AE"/><path d="M130.19 527.553l10.418-3.388c-1.868-5.76-8.05-8.912-13.803-7.04a10.97 10.97 0 0 0-7.031 13.817z" class="AB"/><path d="M130.19 527.553l6.44 8.873c3.914-2.847 5.472-7.653 3.978-12.26z" fill="#ffd55c"/><path d="M130.2 527.553v10.97a10.5 10.5 0 0 0 6.44-2.096zm36.707-2.76h-24.214v-2.007h24.214zm-.01-5.593h-24.214v-2.007h24.214zm0 11.17h-24.214v-2.007h24.214zm0 5.594h-24.214v-2.007h24.214z" class="AF"/><path d="M172.203 576.23l-5.326 2.593-5.105-2.618h-5.105l-2.978 2.564-5.252-5.13-5.105 2.567-5.18 2.564-4.744-2.355v-20.975h43.9V579.6z" fill="#ffd55c"/><path d="M172.276 570.894l-5.325 5.336-6.122-5.963-7.588 3.266-4.73-5.582-5.178 5.687-5.253-2.645-4.67 2.323V555.44h43.9v18.094z" class="AF"/><path d="M172.13 573.638l-5.105-2.592-4.898-5.705-5.534 3.06-2.977 2.556-5.178-7.756-5.18 2.634-5.18-2.708-4.67 2.453v-10.14h43.9v15.082z" fill="#264463"/><path d="M172.203 564.563l-5.18 3.783-5.105-5.184-5.252 2.592-3.038-4.45-8.88-1-6.595 5.514-4.744-2.388v-7.98h43.9v10.874z" class="AE"/><g class="AB"><path d="M251.024 511.643h-7.597v151.45a3.8 3.8 0 0 0 3.799 3.799 3.8 3.8 0 0 0 3.798-3.799z"/><path d="M243.466 530.042l-16.642-18.268-8.13.018 24.8 27.4zm7.4 0l16.642-18.268 8.13.018-24.772 27.4zM283.56 629.6l-32.943 32.762-.594-5.147L277.8 629.6zm-66.262 0l27.77 27.615-.594 5.147L211.53 629.6z"/></g><path d="M245.355 658.882c0-1.068.837-1.934 1.87-1.934s1.87.866 1.87 1.934-.837 1.934-1.87 1.934-1.87-.866-1.87-1.934" class="AE"/><path d="M318.16 553.007H176.93v3.667h141.23zm0 88.967H176.93v3.666h141.23z" class="AB"/><path d="M313.988 556.674H181.1v85.306h132.888z" class="AD"/><path d="M235.627 590.42H189.3v-3.25h46.327zm0-6.216H189.3v-3.25h46.327zm0-6.218H189.3v-3.25h46.327zm0-6.216H189.3v-3.25h46.327zm0-6.218H189.3v-3.25h46.327zm11.713 42.836h59.968v-46.086H247.34z" class="AF"/><g class="AD"><path d="M252.462 609.12h2.137v-47.55h-2.137zm6.824 0h2.138v-47.55h-2.138zm6.814 0h2.138v-47.55H266.1zm6.836 0h2.137v-47.55h-2.137zm6.824 0h2.138v-47.55h-2.138zm6.824 0h2.138v-47.55h-2.138zm6.824 0h2.138v-47.55h-2.138zm6.825 0h2.137v-47.55h-2.137z"/><path d="M246.26 603.835h61.306v-2.137H246.26zm0-6.895h61.306v-2.138H246.26zm0-6.896h61.306v-2.137H246.26zm0-6.894h61.306v-2.137H246.26zm0-6.895h61.306v-2.138H246.26zm0-6.897h61.306v-2.137H246.26z"/></g><path d="M247.55 578.358l-.574 1.742 25.807 8.52 21.56-5.603 12.798 6.683.848-1.625-13.423-7-.342.088-21.378 5.557z" class="AB"/><g class="AG"><use xlink:href="#H"/><use xlink:href="#H" x="12.714" y="6.48"/><use xlink:href="#H" x="-21.639" y="5.349"/><path d="M250.075 579.352a2.57 2.57 0 0 0-2.567-2.568 2.57 2.57 0 0 0-2.568 2.568 2.57 2.57 0 0 0 2.568 2.566c1.418 0 2.567-1.15 2.567-2.566"/></g><path d="M259.312 619.112H255.3v-4.773h4.013z" class="AB"/><path d="M267.336 624.347h-4.012V614.34h4.012z" class="AG"/><path d="M275.362 620.935h-4.013v-6.596h4.013z" class="AC"/><path d="M283.388 627.985h-4.013V614.34h4.013z" class="AB"/><path d="M291.414 630.046H287.4V614.34h4.014z" class="AG"/><path d="M299.438 633.77h-4.013v-19.43h4.013z" class="AC"/><path d="M297.463 636.904c-.156.153-.43.17-.61.038l-23.7-10.206-7.2 4.7a.49.49 0 0 1-.337.07c-.12-.017-.224-.078-.29-.164l-8.17-5.955v-1.168c.107.022.204.075.267.16l8.376 6.23 7.107-4.65c.162-.105.39-.1.545.014l23.976 10.4a.33.33 0 0 1 .045.518" class="AB"/><path d="M299.654 636.904a2.2 2.2 0 0 0-2.19-2.192 2.2 2.2 0 0 0-2.193 2.192c0 1.2.982 2.192 2.193 2.192a2.19 2.19 0 0 0 2.191-2.192m-24.3-10.448a2.19 2.19 0 1 0-4.384 0 2.2 2.2 0 0 0 2.192 2.193 2.19 2.19 0 0 0 2.192-2.193m-7.505 4.572a2.19 2.19 0 1 0-4.384 0 2.19 2.19 0 1 0 4.384 0m-8.454-6.125a2.19 2.19 0 0 0-2.191-2.191 2.2 2.2 0 0 0-2.193 2.2c0 1.22.982 2.193 2.193 2.193a2.19 2.19 0 0 0 2.19-2.193" class="AG"/><path d="M200.402 602.4l-.602.607.602-.607m-.64.642l-.582.646.582-.646" class="AD"/><path d="M190.858 596.34a3.03 3.03 0 0 1 4.271-.313l4.053 3.604c1.262 1.096 1.405 3.002.318 4.266-1.102 1.27-3.014 1.412-4.28.316l-4.053-3.602c-1.264-1.09-1.405-3-.315-4.265z" class="AG"/><path d="M212.732 597.57c-4.865.354-9.318 2.518-12.614 6.11-.036.037-.072.074-.106.114l-.308.347c-3.304 3.843-4.922 8.73-4.553 13.768.366 5.06 2.7 9.672 6.538 12.994a18.89 18.89 0 0 0 13.812 4.586c5.06-.373 9.682-2.705 13.012-6.566a18.94 18.94 0 0 0 4.559-13.785c-.765-10.45-9.888-18.33-20.34-17.567m24.158 17.293a22.69 22.69 0 0 1-5.471 16.559c-3.998 4.64-9.55 7.437-15.642 7.888-6.075.442-11.967-1.51-16.592-5.504s-7.41-9.54-7.854-15.617c-.376-5.097.942-10.07 3.74-14.267.524-.79 1.102-1.553 1.732-2.284a22.64 22.64 0 0 1 2.094-2.132l-.002-.003a22.64 22.64 0 0 1 4.713-3.266c2.715-1.408 5.708-2.262 8.843-2.5 12.56-.916 23.527 8.554 24.44 21.116" class="AB"/></g><path d="M184.732 599.15l-19.677-16.936a6.09 6.09 0 0 1-.642-8.586l.001-.001a6.09 6.09 0 0 1 8.586-.642l19.676 16.936a6.09 6.09 0 0 1 .642 8.586c-1.204 1.4-2.905 2.117-4.617 2.117a6.07 6.07 0 0 1-3.969-1.474" fill="url(#F)"/><path d="M213.332 615.905h17.994c-.584-8.817-7.9-15.797-16.865-15.797-9.347 0-16.924 7.576-16.924 16.924 0 8.968 6.977 16.285 15.795 16.867z" class="AC"/><path d="M215.59 618.818v13.97c5.408-.386 10.068-3.505 12.61-7.98z" class="AB"/><path d="M230.216 618.16h-10.752l9.716 4.615c.58-1.478.926-3.023 1.036-4.615" fill="#a5e1f5"/><path d="M186.825 526.407h6.636v6.033h-6.636zm-3.535-9.71c0 1.37.937 2.473 2.1 2.473h1.443v5.228h6.636v-5.228h1.37c1.154 0 2.1-1.107 2.1-2.477z" class="AE"/><path d="M195.904 525.402c0-.556-.45-1.005-1.006-1.005h-9.622c-.555 0-1.005.45-1.005 1.005s.45 1.005 1.005 1.005h9.622c.555 0 1.006-.45 1.006-1.005m2.5-10.052c0-.777-.63-1.407-1.407-1.407h-13.734c-.777 0-1.407.63-1.407 1.407a1.41 1.41 0 0 0 1.407 1.408h13.734a1.41 1.41 0 0 0 1.407-1.408m1.173-2.558a1.15 1.15 0 0 0-1.149-1.149h-16.596a1.15 1.15 0 0 0-1.149 1.149 1.15 1.15 0 0 0 1.149 1.149h16.596a1.15 1.15 0 0 0 1.149-1.149m-14.823 26.888h3.58c-.27.467-.413.932-.36 1.46.086.85.688 1.596 1.5 1.822 1.4.4 2.66-.715 2.66-2.054 0-.44-.14-.827-.372-1.23h3.72c0-2.413-1.46-4.424-3.504-5.027h1.457c.6 0 1.106-.494 1.106-1.106s-.495-1.105-1.106-1.105h-6.648c-.6 0-1.106.494-1.106 1.105s.495 1.106 1.106 1.106h1.46c-2.045.603-3.503 2.614-3.503 5.027" fill="#f9c34f"/><path d="M203.17 528.86h7.737v7.034h-7.737zm-4.123-11.325c0 1.597 1.092 2.885 2.438 2.885h1.684v6.096h7.737v-6.096h1.597c1.347 0 2.44-1.3 2.44-2.888z" class="AE"/><g class="AC"><path d="M213.756 527.688c0-.646-.525-1.172-1.173-1.172h-11.22c-.647 0-1.172.526-1.172 1.172s.525 1.173 1.172 1.173h11.22c.648 0 1.173-.525 1.173-1.173m2.916-11.723a1.64 1.64 0 0 0-1.642-1.642h-16.015c-.906 0-1.642.735-1.642 1.642s.736 1.642 1.642 1.642h16.015a1.64 1.64 0 0 0 1.642-1.642"/><path d="M218.04 512.983a1.34 1.34 0 0 0-1.341-1.341h-19.352a1.34 1.34 0 1 0 0 2.681H216.7a1.34 1.34 0 0 0 1.341-1.34m-17.287 31.354h4.176c-.316.545-.483 1.086-.42 1.704a2.47 2.47 0 0 0 1.761 2.126c1.63.45 3.1-.834 3.1-2.396 0-.514-.16-.965-.432-1.434h4.336c0-2.813-1.7-5.158-4.085-5.86h1.7a1.29 1.29 0 0 0 0-2.58h-7.754a1.29 1.29 0 0 0 0 2.58h1.703c-2.385.703-4.084 3.048-4.084 5.86"/></g><path d="M271.622 511.643H335.2v40.288h-63.588z" class="AD"/><path d="M275.102 514.843h56.628v33.89h-56.628z" class="AC"/><g class="AB"><path d="M303.538 543.114h17.995v3.546h-17.995zm18.814-.818H302.72v5.183h19.633z"/><path d="M322.436 543.114h5.518v3.546h-5.518zm6.335-.818h-7.154v5.183h7.154zm-25.233-5.73h17.995v3.546h-17.995zm18.814-.818H302.72v5.183h19.633z"/><path d="M322.436 536.567h5.518v3.546h-5.518zm6.335-.818h-7.154v5.183h7.154zm-25.233-5.73h17.995v3.546h-17.995zm18.814-.82H302.72v5.183h19.633z"/><path d="M322.436 530.02h5.518v3.546h-5.518zm6.335-.82h-7.154v5.183h7.154zm-25.233-5.726h17.995v3.545h-17.995zm18.814-.82H302.72v5.182h19.633z"/><path d="M322.436 523.474h5.518v3.545h-5.518zm6.335-.82h-7.154v5.182h7.154zm-25.233-5.728h17.995v3.546h-17.995zm18.814-.82H302.72v5.183h19.633z"/><path d="M322.436 516.926h5.518v3.546h-5.518zm6.335-.82h-7.154v5.183h7.154z"/></g><path d="M271.624 551.93c.042 4.32 3.554 7.81 7.883 7.81h47.82a7.89 7.89 0 0 0 7.884-7.809z" class="AC"/><path d="M296.73 543.988h3.5v3.5h-3.5zm0-4.668h3.5v3.5h-3.5zm0-4.665h3.5v3.5h-3.5zm0-4.668h3.5v3.5h-3.5zm0-4.667h3.5v3.5h-3.5zm0-4.666h3.5v3.5h-3.5zm0-4.667h3.5v3.5h-3.5zm-4.666 28h3.5v3.5h-3.5zm0-4.667h3.5v3.5h-3.5zm0-4.665h3.5v3.5h-3.5zm0-4.668h3.5v3.5h-3.5zm0-4.667h3.5v3.5h-3.5zm0-4.666h3.5v3.5h-3.5zm0-4.667h3.5v3.5h-3.5zm-4.667 28h3.5v3.5h-3.5zm0-4.668h3.5v3.5h-3.5zm0-4.664h3.5v3.5h-3.5zm0-4.668h3.5v3.5h-3.5zm0-4.667h3.5v3.5h-3.5zm0-4.666h3.5v3.5h-3.5zm0-4.667h3.5v3.5h-3.5zm-4.667 28h3.5v3.5h-3.5zm0-4.667h3.5v3.5h-3.5zm0-4.665h3.5v3.5h-3.5zm0-4.668h3.5v3.5h-3.5zm0-4.667h3.5v3.5h-3.5zm0-4.666h3.5v3.5h-3.5zm0-4.667h3.5v3.5h-3.5zm-4.667 28h3.5v3.5h-3.5zm0-4.668h3.5v3.5h-3.5zm0-4.665h3.5v3.5h-3.5zm0-4.668h3.5v3.5h-3.5zm0-4.666h3.5v3.5h-3.5zm0-4.666h3.5v3.5h-3.5zm0-4.667h3.5v3.5h-3.5z" class="AD"/><use xlink:href="#I" class="AC"/><path d="M327.626 556.977c0-.482.392-.873.874-.873s.873.39.873.873v5.52c0 .484-.39.875-.873.875s-.874-.39-.874-.875z" class="AB"/><use xlink:href="#I" x="-8.212" class="AC"/><use xlink:href="#J" class="AB"/><use xlink:href="#I" x="-16.425" class="AC"/><use xlink:href="#J" x="-8.212" class="AB"/><use xlink:href="#I" x="-24.635" class="AC"/><use xlink:href="#J" x="-16.414" class="AB"/><use xlink:href="#I" x="-32.847" class="AC"/><path d="M294.78 556.977c0-.482.39-.873.873-.873s.874.39.874.873v5.52c0 .484-.392.875-.874.875s-.873-.39-.873-.875z" class="AB"/><path d="M285.557 556.777c0-1.04.844-1.885 1.885-1.885s1.885.844 1.885 1.885-.845 1.884-1.885 1.884-1.885-.844-1.885-1.884" class="AC"/><path d="M286.567 556.977c0-.482.39-.873.874-.873s.873.39.873.873v5.52c0 .484-.39.875-.873.875s-.874-.39-.874-.875z" class="AB"/><use xlink:href="#I" x="-49.27" class="AC"/><path d="M278.355 556.977c0-.482.4-.873.874-.873a.87.87 0 0 1 .874.873v5.52c0 .484-.392.875-.874.875s-.874-.4-.874-.875zm19.55-28.26l1.5-2.443-.9.033 5.47 5.683-5-6.978-2.326 2.803a.78.78 0 0 0 .103 1.095.78.78 0 0 0 1.097-.101l.065-.092" class="AB"/><g clip-path="url(#G)" opacity=".4" class="AB"><path d="M271.622 520.32l17.575 6.947-.01.02 5.91.734.104-.257 1.67.64c.363.143.773-.04.917-.41.143-.362-.04-.773-.41-.916l-1.67-.65.104-.257-4.876-3.416v.02l-19.312-7.61z"/></g><path d="M279.06 538.776a2.63 2.63 0 0 1-.9 3.609l-15.596 9.37a2.63 2.63 0 1 1-2.709-4.509l15.596-9.37a2.63 2.63 0 0 1 3.609.9" class="AE"/><path d="M260.887 546.626l-1.033.62a2.63 2.63 0 0 0 2.709 4.51l1.033-.62z" fill="#fbd97f"/><path d="M289.397 529.754l-12.99 7.806c-1.14.684-1.51 2.164-.824 3.304a2.41 2.41 0 0 0 3.306.826l13-7.806z" class="AE"/><path d="M276.712 536.825l2.9 4.846c.126.2.058.482-.15.607l-.615.37c-.2.126-.483.058-.6-.15l-2.9-4.847c-.126-.208-.058-.482.15-.607l.616-.37c.2-.125.482-.057.608.152m-1.716 1.327l2.65 4.4a.7.7 0 0 1-.238.956l-.18.1a.7.7 0 0 1-.957-.239l-2.65-4.412a.7.7 0 0 1 .239-.955l.18-.108a.7.7 0 0 1 .957.239" class="AB"/><path d="M278.19 546.41c.327.284.62.642.877 1.07.27.452.126 1.04-.326 1.3s-1.037.124-1.31-.326c-.318-.53-.676-.83-1.097-.927-.693-.158-1.39.272-1.398.276l-8.04 4.833c-1.916 1.152-3.663.001-4.368-1.056-.293-.438-.175-1.032.264-1.325s1.027-.173 1.32.257c.182.263.848 1.06 1.802.488l8.01-4.813c.108-.07 1.366-.858 2.838-.52.53.122 1.01.367 1.43.734" class="AE"/><g class="AB"><path d="M273.017 539.045l2.9 4.846c.126.2.058.482-.15.608l-.615.37c-.2.127-.483.06-.6-.15l-2.9-4.847c-.126-.2-.058-.482.15-.608l.616-.37c.2-.126.482-.058.608.15m-11.822 6.55l3.4 5.66c.125.208.057.483-.152.608l-.814.5c-.2.125-.483.056-.6-.153l-3.4-5.66c-.125-.2-.057-.482.152-.607l.815-.5c.2-.126.482-.058.608.15m36.495-18.022c.2.336.092.775-.244.978l-2.243 1.347c-.336.202-.776.093-.978-.243s-.092-.776.244-.978l2.243-1.348c.336-.2.776-.092.978.244"/><path d="M295.053 528.012l1.02 1.696-4.208 4.2-2.503-4.166zm54.92 66.85l-9.18 32.152a1.62 1.62 0 0 1-1.008 1.112c-.5.187-1.053.108-1.486-.2l-7.33-5.207-5.115 2.3-2.213-6.26 1.073-.495-5.57-2.67 4.37-6.462z"/></g><path d="M350.388 594.868a.38.38 0 0 1 .143.391l-9.142 35.29c-.135.513-.514.93-1.01 1.11-.5.187-1.054.108-1.485-.2L319.6 617.736a1.62 1.62 0 0 1-.675-1.339 1.6 1.6 0 0 1 .718-1.316l30.34-20.22c.124-.084.29-.077.415.006" class="AD"/><path d="M344.62 602.65l-19.312 19.146.544 3.222 5.712 1.235 13.362-23.392c.055-.078.03-.19-.05-.247-.08-.063-.194-.044-.257.036" class="AB"/><g class="AD"><path d="M326.665 626.374c-.057.312-.084.566-.1.844l-.045.812a13.49 13.49 0 0 0 .061 1.62.98.98 0 0 0 1.952-.176l-.001-.007a11.5 11.5 0 0 1-.033-1.377l.048-.685.103-.658a1 1 0 0 0-1.962-.389m1.744 8.426l.507.64.575.605a9.59 9.59 0 0 0 1.292 1.042c.423.287 1 .176 1.287-.25s.172-.993-.243-1.282a7.82 7.82 0 0 1-1.03-.854l-.45-.487-.417-.542c-.304-.426-.896-.524-1.32-.22a.95.95 0 0 0-.22 1.321zm7.388 4.2l1.54.2 1.557.1c.482.015.885-.363.9-.846.014-.477-.357-.878-.833-.9h-.016l-1.437-.102-1.43-.206c-.486-.087-.95.237-1.037.722s.237.95.722 1.037zm8.298-.33l1.477-.445 1.452-.543c.422-.17.627-.65.457-1.07a.82.82 0 0 0-1.06-.46l-.01.004-1.363.5-1.4.403a.84.84 0 0 0 .421 1.63zm7.497-3.346l2.52-1.732a.77.77 0 0 0 .15-1.082c-.258-.34-.733-.407-1.073-.16l-2.443 1.634a.79.79 0 0 0-.266 1.088c.227.373.714.492 1.088.266l.004-.003zm6.393-5.094l2.07-2.243c.258-.305.22-.76-.085-1.02s-.752-.22-1 .077l-2.025 2.14a.74.74 0 1 0 1.034 1.063zm5.077-6.378a29.37 29.37 0 0 0 1.467-2.688.67.67 0 1 0-1.208-.587c-.44.886-.9 1.702-1.44 2.558a.69.69 0 0 0 1.169.738zm3.215-7.52l.3-1.502.2-1.534a.62.62 0 1 0-1.236-.13l-.001.01-.207 1.437-.316 1.43a.64.64 0 1 0 1.242.312zm.27-8.208l-.36-1.496-.494-1.47a.57.57 0 1 0-1.072.395l.004.01.443 1.38.323 1.425a.59.59 0 1 0 1.16-.219zm-3.352-7.46l-.957-1.195-1.03-1.13a.52.52 0 1 0-.757.714l.976 1.1.904 1.158a.54.54 0 1 0 .871-.639zM357.2 595.1a6.24 6.24 0 0 0-.748-.31 3.78 3.78 0 0 0-.837-.177c-.58-.067-1.248.084-1.74.47a.46.46 0 0 0 .554.734c.308-.226.682-.314 1.095-.266a2.84 2.84 0 0 1 .626.146 5.03 5.03 0 0 1 .633.274c.237.12.528.023.648-.216a.48.48 0 0 0-.215-.647zm-4.8 5l.125 1.52.25 1.507a.4.4 0 0 0 .469.316c.216-.043.355-.255.316-.47a18.01 18.01 0 0 1-.315-2.917c-.006-.233-.2-.418-.433-.412s-.418.2-.412.433v.006z"/><path d="M354.462 607.957a9.27 9.27 0 0 0 .848 1.301c.327.412.705.8 1.173 1.102a.34.34 0 0 0 .47-.101c.1-.156.056-.364-.097-.467l-.007-.005c-.37-.246-.7-.586-.986-.96a8.51 8.51 0 0 1-.769-1.223c-.093-.176-.313-.244-.5-.15a.36.36 0 0 0-.151.489zm6.443.383a9.29 9.29 0 0 0 .662-1.393 11.47 11.47 0 0 0 .443-1.473c.036-.154-.06-.307-.214-.342s-.305.06-.342.2a10.99 10.99 0 0 1-.436 1.393 8.56 8.56 0 0 1-.639 1.307.3.3 0 1 0 .518.311l.001-.001zm1.443-7.922c-.063-.993-.192-2.015-.367-3a.24.24 0 0 0-.279-.195c-.13.023-.218.147-.197.277a26.74 26.74 0 0 1 .328 2.956c.008.143.13.252.27.244a.26.26 0 0 0 .244-.27zm-1.614-7.875l-1.056-2.822c-.042-.1-.158-.148-.258-.106s-.147.157-.107.256l1.015 2.8c.036.112.156.174.27.138s.175-.156.14-.27zm-3.272-7.328l-1.596-2.553c-.047-.07-.143-.088-.213-.04a.15.15 0 0 0-.04.21l1.556 2.552a.17.17 0 0 0 .231.065.17.17 0 0 0 .065-.23m-4.732-6.48a25.2 25.2 0 0 0-2.19-2.067c-.047-.04-.116-.033-.154.013s-.032.115.013.154a25.02 25.02 0 0 1 2.15 2.074c.047.05.126.054.178.007s.053-.127.006-.178zm-6.42-4.753a13.3 13.3 0 0 0-2.867-.915c-.035-.007-.07.016-.076.052s.016.068.05.076a13.23 13.23 0 0 1 2.827.936c.04.02.1.001.108-.04s.001-.088-.04-.108m-7.85-.785c-.972.245-1.9.617-2.798 1.08-.01.006-.015.018-.01.028s.018.014.028.01c.9-.453 1.827-.8 2.798-1.046.02-.005.033-.024.028-.045s-.026-.032-.046-.027z"/></g><path d="M331.73 590.247c-6.556 0-11.888-5.333-11.888-11.89s5.332-11.887 11.888-11.887 11.888 5.333 11.888 11.887-5.333 11.89-11.888 11.89m0-25.328c-7.4 0-13.44 6.03-13.44 13.44a13.46 13.46 0 0 0 13.439 13.44c7.4 0 13.438-6.03 13.438-13.44s-6.028-13.44-13.438-13.44" class="AB"/><path d="M331.73 590.247c-6.556 0-11.888-5.333-11.888-11.89s5.332-11.887 11.888-11.887 11.888 5.333 11.888 11.887-5.333 11.89-11.888 11.89" class="AD"/><path d="M332.27 584.884h-1.028v4.025h1.028zm-6.555.264l-.73-.73-1.28 1.28.732.73zm.485-7.553h-5.254v1.028h5.254zm-1.227-5.243l.73-.732-1.28-1.28-.73.733zm6.267-.412h1.03v-4.633h-1.03zm6.54-.32l.73.732 1.28-1.28-.732-.732zm0 7.004h4.777v-1.03h-4.777zm.73 5.793l-.73.73 1.28 1.28.73-.73z" class="AB"/><path d="M331.557 579.217l6.622 5.532-6.224-5.976z" class="AC"/><path d="M330.678 577.308c-.717.602-.833 1.556-.17 2.217l.06.058c.66.663 1.614.546 2.216-.17 1.342-1.598 3.702-4.994 4.783-6.477.225-.31-.156-.598-.408-.4l-6.48 4.783" class="AB"/><path d="M332.4 578.608c0-.48-.388-.866-.866-.866s-.867.387-.867.866.387.867.867.867.866-.388.866-.867" class="AD"/><path d="M331.98 578.608a.45.45 0 0 0-.447-.447.45.45 0 0 0-.448.447c0 .248.2.447.448.447s.447-.2.447-.447" class="AC"/></g></svg>