<?xml version="1.0" encoding="utf-8"?>
<!-- Generator: Adobe Illustrator 18.0.0, SVG Export Plug-In . SVG Version: 6.00 Build 0)  -->
<!DOCTYPE svg PUBLIC "-//W3C//DTD SVG 1.1//EN" "http://www.w3.org/Graphics/SVG/1.1/DTD/svg11.dtd">
<svg version="1.1" id="Layer_1" xmlns="http://www.w3.org/2000/svg" xmlns:xlink="http://www.w3.org/1999/xlink" x="0px" y="0px"
	 viewBox="0 0 129.5 129.5" enable-background="new 0 0 129.5 129.5" xml:space="preserve">
<g>
	<g>
		<g>
			<path fill="#231F20" d="M14.6,10c-0.2,0-0.4-0.1-0.5-0.2c-0.3-0.3-0.3-0.8,0-1.1l1.3-1.3c0.3-0.3,0.8-0.3,1.1,0
				c0.3,0.3,0.3,0.8,0,1.1l-1.3,1.3C15,9.9,14.8,10,14.6,10z"/>
		</g>
		<g>
			<path fill="#231F20" d="M10.6,14c-0.2,0-0.4-0.1-0.5-0.2c-0.3-0.3-0.3-0.8,0-1.1l1.3-1.3c0.3-0.3,0.8-0.3,1.1,0
				c0.3,0.3,0.3,0.8,0,1.1l-1.3,1.3C11,13.9,10.8,14,10.6,14z"/>
		</g>
		<g>
			<path fill="#231F20" d="M15.9,14c-0.2,0-0.4-0.1-0.5-0.2l-1.3-1.3c-0.3-0.3-0.3-0.8,0-1.1c0.3-0.3,0.8-0.3,1.1,0l1.3,1.3
				c0.3,0.3,0.3,0.8,0,1.1C16.3,13.9,16.1,14,15.9,14z"/>
		</g>
		<g>
			<path fill="#231F20" d="M11.9,10c-0.2,0-0.4-0.1-0.5-0.2l-1.3-1.3c-0.3-0.3-0.3-0.8,0-1.1c0.3-0.3,0.8-0.3,1.1,0l1.3,1.3
				c0.3,0.3,0.3,0.8,0,1.1C12.3,9.9,12.1,10,11.9,10z"/>
		</g>
		<g>
			<path fill="#231F20" d="M115.3,120.6c-0.2,0-0.4-0.1-0.5-0.2c-0.3-0.3-0.3-0.8,0-1.1l1.3-1.3c0.3-0.3,0.8-0.3,1.1,0
				c0.3,0.3,0.3,0.8,0,1.1l-1.3,1.3C115.7,120.6,115.5,120.6,115.3,120.6z"/>
		</g>
		<g>
			<path fill="#231F20" d="M111.2,124.7c-0.2,0-0.4-0.1-0.5-0.2c-0.3-0.3-0.3-0.8,0-1.1l1.3-1.3c0.3-0.3,0.8-0.3,1.1,0
				c0.3,0.3,0.3,0.8,0,1.1l-1.3,1.3C111.6,124.6,111.4,124.7,111.2,124.7z"/>
		</g>
		<g>
			<path fill="#231F20" d="M116.6,124.7c-0.2,0-0.4-0.1-0.5-0.2l-1.3-1.3c-0.3-0.3-0.3-0.8,0-1.1c0.3-0.3,0.8-0.3,1.1,0l1.3,1.3
				c0.3,0.3,0.3,0.8,0,1.1C116.9,124.6,116.7,124.7,116.6,124.7z"/>
		</g>
		<g>
			<path fill="#231F20" d="M112.5,120.6c-0.2,0-0.4-0.1-0.5-0.2l-1.3-1.3c-0.3-0.3-0.3-0.8,0-1.1c0.3-0.3,0.8-0.3,1.1,0l1.3,1.3
				c0.3,0.3,0.3,0.8,0,1.1C112.9,120.6,112.7,120.6,112.5,120.6z"/>
		</g>
		<g>
			<path fill="#231F20" d="M120.6,24c-0.2,0-0.4-0.1-0.5-0.2c-0.3-0.3-0.3-0.8,0-1.1l1.3-1.3c0.3-0.3,0.8-0.3,1.1,0
				c0.3,0.3,0.3,0.8,0,1.1l-1.3,1.3C121,23.9,120.8,24,120.6,24z"/>
		</g>
		<g>
			<path fill="#231F20" d="M116.6,28c-0.2,0-0.4-0.1-0.5-0.2c-0.3-0.3-0.3-0.8,0-1.1l1.3-1.3c0.3-0.3,0.8-0.3,1.1,0
				c0.3,0.3,0.3,0.8,0,1.1l-1.3,1.3C117,27.9,116.8,28,116.6,28z"/>
		</g>
		<g>
			<path fill="#231F20" d="M121.9,28c-0.2,0-0.4-0.1-0.5-0.2l-1.3-1.3c-0.3-0.3-0.3-0.8,0-1.1c0.3-0.3,0.8-0.3,1.1,0l1.3,1.3
				c0.3,0.3,0.3,0.8,0,1.1C122.3,27.9,122.1,28,121.9,28z"/>
		</g>
		<g>
			<path fill="#231F20" d="M117.9,24c-0.2,0-0.4-0.1-0.5-0.2l-1.3-1.3c-0.3-0.3-0.3-0.8,0-1.1c0.3-0.3,0.8-0.3,1.1,0l1.3,1.3
				c0.3,0.3,0.3,0.8,0,1.1C118.3,23.9,118.1,24,117.9,24z"/>
		</g>
		<path fill="#231F20" d="M64.7,123.1l-0.2,0v-1.5l0.2,0L64.7,123.1z M62.5,123c-0.3,0-0.7,0-1,0l0.1-1.5c0.3,0,0.7,0,1,0L62.5,123z
			 M59.5,122.8c-0.3,0-0.7-0.1-1-0.1l0.2-1.5c0.3,0,0.7,0.1,1,0.1L59.5,122.8z M56.5,122.5c-0.3,0-0.7-0.1-1-0.2l0.2-1.5
			c0.3,0.1,0.6,0.1,1,0.1L56.5,122.5z M53.5,122c-0.3-0.1-0.7-0.1-1-0.2l0.3-1.5c0.3,0.1,0.6,0.1,1,0.2L53.5,122z M50.5,121.3
			c-0.3-0.1-0.7-0.2-1-0.3l0.4-1.4c0.3,0.1,0.6,0.2,1,0.2L50.5,121.3z M47.6,120.5c-0.3-0.1-0.6-0.2-1-0.3l0.5-1.4
			c0.3,0.1,0.6,0.2,0.9,0.3L47.6,120.5z M44.7,119.5c-0.3-0.1-0.6-0.2-1-0.4l0.5-1.4c0.3,0.1,0.6,0.2,0.9,0.3L44.7,119.5z
			 M41.9,118.4c-0.3-0.1-0.6-0.3-0.9-0.4l0.6-1.4c0.3,0.1,0.6,0.3,0.9,0.4L41.9,118.4z M39.1,117.2c-0.3-0.1-0.6-0.3-0.9-0.5
			l0.7-1.3c0.3,0.2,0.6,0.3,0.9,0.4L39.1,117.2z M36.4,115.8c-0.3-0.2-0.6-0.3-0.9-0.5l0.8-1.3c0.3,0.2,0.6,0.3,0.9,0.5L36.4,115.8z
			 M33.8,114.2c-0.3-0.2-0.6-0.4-0.9-0.5l0.8-1.3c0.3,0.2,0.6,0.4,0.8,0.5L33.8,114.2z M31.3,112.5c-0.3-0.2-0.6-0.4-0.8-0.6
			l0.9-1.2c0.3,0.2,0.5,0.4,0.8,0.6L31.3,112.5z M28.8,110.7c-0.3-0.2-0.5-0.4-0.8-0.6l0.9-1.2c0.3,0.2,0.5,0.4,0.8,0.6L28.8,110.7z
			 M26.5,108.8c-0.3-0.2-0.5-0.4-0.8-0.7l1-1.1c0.2,0.2,0.5,0.4,0.7,0.7L26.5,108.8z M24.2,106.7c-0.2-0.2-0.5-0.5-0.7-0.7l1.1-1.1
			c0.2,0.2,0.5,0.5,0.7,0.7L24.2,106.7z"/>
		<path fill="#231F20" d="M23.5,106C12.5,95,6.4,80.3,6.4,64.8h1.5c0,15.2,5.9,29.5,16.6,40.2L23.5,106z"/>
		<path fill="#231F20" d="M7.9,64.8H6.4v-0.2h1.5V64.8z M8,62.6l-1.5-0.1c0-0.3,0-0.7,0-1L8,61.6C8,61.9,8,62.3,8,62.6z M8.1,59.6
			l-1.5-0.1c0-0.3,0.1-0.7,0.1-1l1.5,0.2C8.2,59,8.2,59.3,8.1,59.6z M8.5,56.7L7,56.5c0-0.3,0.1-0.7,0.2-1l1.5,0.2
			C8.6,56,8.5,56.4,8.5,56.7z M9,53.8l-1.5-0.3c0.1-0.3,0.1-0.7,0.2-1l1.5,0.3C9.1,53.1,9,53.4,9,53.8z M9.6,50.9l-1.5-0.4
			c0.1-0.3,0.2-0.7,0.3-1l1.4,0.4C9.8,50.2,9.7,50.6,9.6,50.9z M10.4,48L9,47.6c0.1-0.3,0.2-0.6,0.3-1l1.4,0.5
			C10.6,47.4,10.5,47.7,10.4,48z M11.4,45.2L10,44.7c0.1-0.3,0.2-0.6,0.4-1l1.4,0.5C11.6,44.6,11.5,44.9,11.4,45.2z M12.5,42.5
			l-1.4-0.6c0.1-0.3,0.3-0.6,0.4-0.9l1.4,0.6C12.7,41.9,12.6,42.2,12.5,42.5z M13.7,39.8l-1.3-0.7c0.1-0.3,0.3-0.6,0.5-0.9l1.3,0.7
			C14,39.2,13.8,39.5,13.7,39.8z M15.1,37.1l-1.3-0.7c0.2-0.3,0.3-0.6,0.5-0.9l1.3,0.8C15.4,36.6,15.2,36.8,15.1,37.1z M16.6,34.6
			l-1.3-0.8c0.2-0.3,0.4-0.6,0.5-0.9l1.3,0.8C16.9,34,16.7,34.3,16.6,34.6z M18.2,32.1L17,31.3c0.2-0.3,0.4-0.6,0.6-0.8l1.2,0.9
			C18.6,31.6,18.4,31.8,18.2,32.1z M20,29.7l-1.2-0.9c0.2-0.3,0.4-0.5,0.6-0.8l1.2,0.9C20.4,29.2,20.2,29.5,20,29.7z M21.9,27.4
			l-1.1-1c0.2-0.3,0.4-0.5,0.7-0.8l1.1,1C22.3,27,22.1,27.2,21.9,27.4z M23.9,25.3l-1.1-1c0.2-0.2,0.5-0.5,0.7-0.7l1.1,1.1
			C24.3,24.8,24.1,25,23.9,25.3z"/>
		<path fill="#231F20" d="M106,106l-1.1-1.1c0.2-0.2,0.5-0.5,0.7-0.7l1.1,1C106.5,105.5,106.2,105.8,106,106z M108.1,103.8l-1.1-1
			c0.2-0.2,0.4-0.5,0.7-0.7l1.1,1C108.5,103.3,108.3,103.5,108.1,103.8z M110.1,101.5l-1.2-0.9c0.2-0.3,0.4-0.5,0.6-0.8l1.2,0.9
			C110.5,101,110.3,101.2,110.1,101.5z M111.9,99.1l-1.2-0.9c0.2-0.3,0.4-0.5,0.6-0.8l1.2,0.9C112.3,98.5,112.1,98.8,111.9,99.1z
			 M113.7,96.6l-1.3-0.8c0.2-0.3,0.4-0.6,0.5-0.8l1.3,0.8C114,96,113.8,96.3,113.7,96.6z M115.2,94l-1.3-0.8
			c0.2-0.3,0.3-0.6,0.5-0.9l1.3,0.7C115.6,93.4,115.4,93.7,115.2,94z M116.7,91.3l-1.3-0.7c0.2-0.3,0.3-0.6,0.4-0.9l1.3,0.7
			C117,90.7,116.9,91,116.7,91.3z M118,88.6l-1.4-0.6c0.1-0.3,0.3-0.6,0.4-0.9l1.4,0.6C118.3,87.9,118.2,88.3,118,88.6z M119.2,85.8
			l-1.4-0.5c0.1-0.3,0.2-0.6,0.3-0.9l1.4,0.5C119.4,85.1,119.3,85.4,119.2,85.8z M120.2,82.9l-1.4-0.5c0.1-0.3,0.2-0.6,0.3-0.9
			l1.4,0.4C120.4,82.2,120.3,82.6,120.2,82.9z M121.1,80l-1.4-0.4c0.1-0.3,0.2-0.6,0.2-1l1.5,0.4C121.2,79.3,121.2,79.6,121.1,80z
			 M121.8,77l-1.5-0.3c0.1-0.3,0.1-0.6,0.2-1L122,76C121.9,76.4,121.9,76.7,121.8,77z M122.3,74l-1.5-0.2c0.1-0.3,0.1-0.7,0.1-1
			l1.5,0.2C122.4,73.4,122.4,73.7,122.3,74z M122.7,71l-1.5-0.2c0-0.3,0.1-0.7,0.1-1l1.5,0.1C122.8,70.3,122.8,70.7,122.7,71z
			 M123,68l-1.5-0.1c0-0.3,0-0.7,0-1L123,67C123,67.3,123,67.7,123,68z M123.1,64.9h-1.5l0-0.2l1.5,0L123.1,64.9z"/>
		<path fill="#231F20" d="M104.9,24.6c-0.2-0.2-0.5-0.5-0.7-0.7l1-1.1c0.2,0.2,0.5,0.5,0.7,0.7L104.9,24.6z M102.8,22.5
			c-0.2-0.2-0.5-0.4-0.7-0.7l1-1.1c0.3,0.2,0.5,0.4,0.8,0.7L102.8,22.5z M100.5,20.6c-0.3-0.2-0.5-0.4-0.8-0.6l0.9-1.2
			c0.3,0.2,0.5,0.4,0.8,0.6L100.5,20.6z M98.2,18.8c-0.3-0.2-0.5-0.4-0.8-0.6l0.9-1.2c0.3,0.2,0.6,0.4,0.8,0.6L98.2,18.8z
			 M95.8,17.1c-0.3-0.2-0.6-0.4-0.8-0.5l0.8-1.3c0.3,0.2,0.6,0.4,0.9,0.5L95.8,17.1z M93.2,15.5c-0.3-0.2-0.6-0.3-0.9-0.5l0.7-1.3
			c0.3,0.2,0.6,0.3,0.9,0.5L93.2,15.5z M90.6,14.1c-0.3-0.2-0.6-0.3-0.9-0.4l0.7-1.3c0.3,0.1,0.6,0.3,0.9,0.5L90.6,14.1z M87.9,12.9
			c-0.3-0.1-0.6-0.3-0.9-0.4l0.6-1.4c0.3,0.1,0.6,0.3,0.9,0.4L87.9,12.9z M85.2,11.7c-0.3-0.1-0.6-0.2-0.9-0.3l0.5-1.4
			c0.3,0.1,0.6,0.2,1,0.4L85.2,11.7z M82.4,10.7c-0.3-0.1-0.6-0.2-0.9-0.3L81.9,9c0.3,0.1,0.6,0.2,1,0.3L82.4,10.7z M79.6,9.9
			c-0.3-0.1-0.6-0.2-1-0.2L79,8.2c0.3,0.1,0.7,0.2,1,0.3L79.6,9.9z M76.7,9.2c-0.3-0.1-0.6-0.1-1-0.2L76,7.5c0.3,0.1,0.7,0.1,1,0.2
			L76.7,9.2z M73.8,8.6c-0.3-0.1-0.6-0.1-1-0.1L73,7c0.3,0,0.7,0.1,1,0.2L73.8,8.6z M70.9,8.2c-0.3,0-0.7-0.1-1-0.1L70,6.7
			c0.3,0,0.7,0.1,1,0.1L70.9,8.2z M67.9,8c-0.3,0-0.7,0-1,0L67,6.5c0.3,0,0.7,0,1,0L67.9,8z M65,7.9h-0.2V6.4H65V7.9z"/>
		<path fill="#231F20" d="M123.1,64.8h-1.5c0-15.2-5.9-29.5-16.6-40.2l1.1-1.1C117,34.5,123.1,49.2,123.1,64.8z"/>
		<path fill="#FFFFFF" d="M128.1,7.2c-3.8-1.4-8.6-3.8-11.5-6.4l2.3,6.4l-2.3,6.4C119.5,11,124.3,8.6,128.1,7.2z"/>
		<path fill="#231F20" d="M128.4,6.5c-3.3-1.2-8.2-3.6-11.3-6.3c-0.3-0.2-0.6-0.2-0.9-0.1c-0.3,0.2-0.4,0.6-0.3,0.9l2,5.4H64.8
			c-15.6,0-30.2,6.1-41.2,17.1l1.1,1.1c10.7-10.7,25-16.6,40.2-16.6h53.1l-2,5.4c-0.1,0.3,0,0.7,0.3,0.9c0.1,0.1,0.3,0.1,0.4,0.1
			c0.2,0,0.4-0.1,0.5-0.2c3.1-2.7,8-5.1,11.3-6.3c0.3-0.1,0.5-0.4,0.5-0.7C128.8,6.9,128.7,6.6,128.4,6.5z M118.1,11.4l1.4-4
			c0.1-0.2,0.1-0.3,0-0.5l-1.4-4c2.5,1.7,5.4,3.2,7.9,4.2C123.5,8.2,120.6,9.7,118.1,11.4z"/>
		<path fill="#FFFFFF" d="M1.4,122.3c3.8,1.4,8.6,3.8,11.5,6.4l-2.3-6.4l2.3-6.4C10,118.5,5.2,120.9,1.4,122.3z"/>
		<path fill="#231F20" d="M106,106l-1.1-1.1c-10.7,10.7-25,16.6-40.2,16.6H11.7l2-5.4c0.1-0.3,0-0.7-0.3-0.9
			c-0.3-0.2-0.7-0.2-0.9,0.1c-3.1,2.7-8,5.1-11.3,6.3c-0.3,0.1-0.5,0.4-0.5,0.7c0,0.3,0.2,0.6,0.5,0.7c3.3,1.2,8.2,3.6,11.3,6.3
			c0.1,0.1,0.3,0.2,0.5,0.2c0.1,0,0.3,0,0.4-0.1c0.3-0.2,0.4-0.6,0.3-0.9l-2-5.4h53.1C80.3,123.1,95,117,106,106z M9.9,122.6l1.4,4
			c-2.4-1.7-5.4-3.2-7.9-4.3c2.5-1.1,5.5-2.5,7.9-4.2l-1.4,4C9.9,122.2,9.9,122.4,9.9,122.6z"/>
		<circle fill="#FFD05B" cx="64.8" cy="64.7" r="41.5"/>
		<path fill="#231F20" d="M64.8,107C41.5,107,22.5,88,22.5,64.8s18.9-42.2,42.2-42.2C88,22.5,107,41.5,107,64.8S88,107,64.8,107z
			 M64.8,24C42.3,24,24,42.3,24,64.8c0,22.5,18.3,40.7,40.7,40.7c22.5,0,40.7-18.3,40.7-40.7C105.5,42.3,87.2,24,64.8,24z"/>
		<circle fill="#FFFFFF" cx="64.8" cy="64.7" r="34.4"/>
		<path fill="#231F20" d="M64.8,99.9c-19.4,0-35.2-15.8-35.2-35.2c0-19.4,15.8-35.2,35.2-35.2c19.4,0,35.2,15.8,35.2,35.2
			C99.9,84.1,84.1,99.9,64.8,99.9z M64.8,31.1c-18.6,0-33.7,15.1-33.7,33.7s15.1,33.7,33.7,33.7s33.7-15.1,33.7-33.7
			S83.3,31.1,64.8,31.1z"/>
		<path fill="#231F20" d="M85.9,66.9c-1.8,0-3.3-1.5-3.3-3.3c0-1.8,1.5-3.3,3.3-3.3s3.3,1.5,3.3,3.3C89.1,65.4,87.7,66.9,85.9,66.9z
			 M85.9,61.9c-1,0-1.8,0.8-1.8,1.8c0,1,0.8,1.8,1.8,1.8c1,0,1.8-0.8,1.8-1.8C87.6,62.7,86.8,61.9,85.9,61.9z"/>
		<path fill="#231F20" d="M41.2,66.9c-1.8,0-3.3-1.5-3.3-3.3c0-1.8,1.5-3.3,3.3-3.3s3.3,1.5,3.3,3.3C44.5,65.4,43,66.9,41.2,66.9z
			 M41.2,61.9c-1,0-1.8,0.8-1.8,1.8c0,1,0.8,1.8,1.8,1.8c1,0,1.8-0.8,1.8-1.8C43,62.7,42.2,61.9,41.2,61.9z"/>
		<g>
			<path fill="#231F20" d="M64.8,62.3c-3.3,0-6-2.7-6-6c0-3.3,2.7-6,6-6c3,0,5.6,2.3,5.9,5.2h5c-0.3-4.5-3.5-8.5-7.9-9.7
				c-0.3-0.1-0.5-0.4-0.5-0.7v-2.9h-5v2.9c0,0.3-0.2,0.6-0.5,0.7c-4.7,1.3-7.9,5.7-7.9,10.5h-1.5c0-5.3,3.4-10.1,8.5-11.8v-3.1
				c0-0.4,0.3-0.8,0.8-0.8H68c0.4,0,0.8,0.3,0.8,0.8v3.1c5,1.7,8.4,6.5,8.4,11.8c0,0.4-0.3,0.8-0.8,0.8H70c-0.4,0-0.8-0.3-0.8-0.8
				c0-2.5-2-4.5-4.5-4.5c-2.5,0-4.5,2-4.5,4.5c0,2.5,2,4.5,4.5,4.5V62.3z"/>
		</g>
		<g>
			<path fill="#231F20" d="M77.2,73.2h-1.5c0-0.3,0-0.6,0-0.9l1.5-0.1C77.2,72.5,77.2,72.8,77.2,73.2z M75.3,70.4
				c-0.1-0.3-0.2-0.6-0.3-0.9l1.4-0.5c0.1,0.3,0.2,0.7,0.3,1L75.3,70.4z M74.3,67.8c-0.2-0.3-0.3-0.5-0.5-0.8l1.2-0.8
				c0.2,0.3,0.4,0.6,0.6,0.9L74.3,67.8z M72.6,65.6c-0.2-0.2-0.4-0.4-0.7-0.6l1-1.1c0.3,0.2,0.5,0.5,0.8,0.7L72.6,65.6z M70.4,63.8
				c-0.3-0.2-0.5-0.3-0.8-0.5l0.7-1.3c0.3,0.2,0.6,0.3,0.9,0.5L70.4,63.8z M67.8,62.7c-0.3-0.1-0.6-0.2-0.9-0.2l0.3-1.5
				c0.3,0.1,0.7,0.2,1,0.3L67.8,62.7z M65.1,62.3l-0.3,0v-1.5l0.4,0L65.1,62.3z"/>
		</g>
		<g>
			<path fill="#231F20" d="M68,88.8h-6.5c-0.4,0-0.8-0.3-0.8-0.8V85c-5-1.7-8.5-6.5-8.5-11.8c0-0.4,0.3-0.8,0.8-0.8h6.5
				c0.4,0,0.8,0.3,0.8,0.8c0,2.5,2,4.5,4.5,4.5c2.5,0,4.5-2,4.5-4.5c0-2.5-2-4.5-4.5-4.5v-1.5c3.3,0,6,2.7,6,6c0,3.3-2.7,6-6,6
				c-3,0-5.6-2.3-5.9-5.2h-5c0.3,4.5,3.5,8.5,7.9,9.7c0.3,0.1,0.5,0.4,0.5,0.7v2.9h5v-2.9c0-0.3,0.2-0.6,0.5-0.7
				c4.7-1.3,7.9-5.7,7.9-10.5h1.5c0,5.3-3.4,10.1-8.4,11.8v3.1C68.7,88.5,68.4,88.8,68,88.8z"/>
		</g>
		<g>
			<path fill="#231F20" d="M64.7,68.7l-0.4,0l0-1.5l0.3,0L64.7,68.7z M62.3,68.5c-0.3-0.1-0.7-0.2-1-0.3l0.4-1.4
				c0.3,0.1,0.6,0.2,0.9,0.2L62.3,68.5z M59.3,67.4c-0.3-0.2-0.6-0.3-0.9-0.5l0.8-1.3c0.3,0.2,0.5,0.3,0.8,0.5L59.3,67.4z
				 M56.6,65.7c-0.3-0.2-0.5-0.5-0.8-0.7l1.1-1c0.2,0.2,0.4,0.4,0.7,0.6L56.6,65.7z M54.5,63.3c-0.2-0.3-0.4-0.6-0.6-0.9l1.3-0.7
				c0.2,0.3,0.3,0.5,0.5,0.8L54.5,63.3z M53,60.5c-0.1-0.3-0.2-0.7-0.3-1l1.5-0.4c0.1,0.3,0.2,0.6,0.3,0.9L53,60.5z M52.4,57.4
				c0-0.3,0-0.7,0-1.1h1.5c0,0.3,0,0.6,0,0.9L52.4,57.4z"/>
		</g>
		<path fill="#84DBFF" d="M63.5,86.1v-3.2l-1.4-0.4c-3.5-1-6.1-3.9-6.8-7.3h2.5c0.9,3,3.7,5.2,6.9,5.2c4,0,7.2-3.2,7.2-7.2
			S68.7,66,64.8,66c-5.3,0-9.7-4.3-9.7-9.7c0-4.3,2.9-8.1,7-9.3l1.4-0.4v-3.2H66v3.2l1.4,0.4c3.5,1,6.1,3.9,6.8,7.3h-2.5
			c-0.9-3-3.7-5.2-6.9-5.2c-4,0-7.2,3.2-7.2,7.2s3.2,7.2,7.2,7.2c5.3,0,9.7,4.3,9.7,9.7c0,4.3-2.9,8.1-7,9.3L66,82.9v3.2H63.5z"/>
		<circle fill="#84DBFF" cx="7.2" cy="29.1" r="1.9"/>
		<circle fill="#FF7058" cx="99.2" cy="30.3" r="2.1"/>
		<circle fill="#84DBFF" cx="72.7" cy="113.9" r="2.1"/>
		<circle fill="#E6E9EE" cx="26.1" cy="5.9" r="2.1"/>
	</g>
</g>
</svg>
