<?xml version="1.0" encoding="utf-8"?>
<!-- Generator: Adobe Illustrator 18.0.0, SVG Export Plug-In . SVG Version: 6.00 Build 0)  -->
<!DOCTYPE svg PUBLIC "-//W3C//DTD SVG 1.1//EN" "http://www.w3.org/Graphics/SVG/1.1/DTD/svg11.dtd">
<svg version="1.1" id="Layer_1" xmlns="http://www.w3.org/2000/svg" xmlns:xlink="http://www.w3.org/1999/xlink" x="0px" y="0px"
	 viewBox="0 0 129.5 129.5" enable-background="new 0 0 129.5 129.5" xml:space="preserve">
<g>
	<g>
		<polygon fill="#84DBFF" points="86.9,33.7 91.4,2.4 60.1,6.9 68,14.9 2.9,80 13.8,90.9 78.9,25.8 		"/>
		<g>
			<g>
				<path fill="#231F20" d="M29.7,15.9c-0.2,0-0.4-0.1-0.5-0.2c-0.3-0.3-0.3-0.8,0-1.1l1.3-1.3c0.3-0.3,0.8-0.3,1.1,0
					c0.3,0.3,0.3,0.8,0,1.1l-1.3,1.3C30,15.9,29.8,15.9,29.7,15.9z"/>
			</g>
			<g>
				<path fill="#231F20" d="M25.6,20c-0.2,0-0.4-0.1-0.5-0.2c-0.3-0.3-0.3-0.8,0-1.1l1.3-1.3c0.3-0.3,0.8-0.3,1.1,0
					c0.3,0.3,0.3,0.8,0,1.1l-1.3,1.3C26,19.9,25.8,20,25.6,20z"/>
			</g>
			<g>
				<path fill="#231F20" d="M30.9,20c-0.2,0-0.4-0.1-0.5-0.2l-1.3-1.3c-0.3-0.3-0.3-0.8,0-1.1c0.3-0.3,0.8-0.3,1.1,0l1.3,1.3
					c0.3,0.3,0.3,0.8,0,1.1C31.3,19.9,31.1,20,30.9,20z"/>
			</g>
			<g>
				<path fill="#231F20" d="M26.9,15.9c-0.2,0-0.4-0.1-0.5-0.2l-1.3-1.3c-0.3-0.3-0.3-0.8,0-1.1c0.3-0.3,0.8-0.3,1.1,0l1.3,1.3
					c0.3,0.3,0.3,0.8,0,1.1C27.3,15.9,27.1,15.9,26.9,15.9z"/>
			</g>
		</g>
		<g>
			
				<path fill="none" stroke="#231F20" stroke-width="1.5" stroke-linecap="round" stroke-linejoin="round" stroke-miterlimit="10" d="
				M124.3,65.2"/>
		</g>
		<path fill="#FFFFFF" d="M128.8,80.5V45.2c0-3.7-3.2-6.9-7.2-6.9H90.4c-4,0-7.2,3.2-7.2,7.2v35H128.8z"/>
		<path fill="#FFFFFF" d="M90.1,53.6v27c0,2.3,1.8,4.1,4.1,4.1H118c2.3,0,4.1-1.8,4.1-4.1v-27"/>
		<path fill="#FFFFFF" d="M110,35.1v3.8l-4.1,2.3l-4.1-2.3v-3.8c1.2,1,2.6,1.6,4.1,1.6C107.4,36.8,108.8,36.2,110,35.1z"/>
		<path fill="#231F20" d="M106.1,92.2c-0.4,0-0.8,0.3-0.8,0.8v35.3c0,0.4,0.3,0.8,0.8,0.8c0.4,0,0.8-0.3,0.8-0.8V92.9
			C106.9,92.5,106.6,92.2,106.1,92.2z"/>
		<path fill="#FFFFFF" d="M115.6,24.9c-0.2-0.1-0.4-0.1-0.6,0c0.1-0.8,0.2-1.6,0.2-2.4c0-6.8-4.1-9.4-9.2-9.4s-9.2,2.5-9.2,9.4
			c0,0.8,0.1,1.6,0.2,2.4c-0.2-0.1-0.5-0.1-0.6,0c-0.6,0.3-0.6,1.4-0.1,2.5c0.4,0.9,1.1,1.4,1.7,1.5c1.6,4.4,4.6,7.9,8.1,7.9
			s6.6-3.5,8.1-7.9c0.6,0,1.2-0.6,1.7-1.5C116.3,26.3,116.2,25.2,115.6,24.9z"/>
		<path fill="#231F20" d="M121.5,37.5h-10.8v-2c1.6-1.4,2.9-3.4,3.9-6c0.7-0.3,1.3-0.9,1.8-1.8c0.7-1.5,0.6-3-0.4-3.5
			c0,0-0.1,0-0.1-0.1c0.1-0.6,0.1-1.1,0.1-1.7c0-6.4-3.6-10.1-10-10.1c-6.3,0-10,3.7-10,10.1c0,0.5,0,1.1,0.1,1.7c0,0-0.1,0-0.1,0.1
			c-1,0.5-1.2,2-0.4,3.5c0.4,0.9,1.1,1.5,1.8,1.8c0.9,2.5,2.3,4.6,3.9,6v2H90.4c-4.4,0-8,3.6-8,8v35c0,0.4,0.3,0.8,0.8,0.8h6.3
			c0.2,1.5,1.1,2.8,2.4,3.5v43.4c0,0.4,0.3,0.8,0.8,0.8c0.4,0,0.8-0.3,0.8-0.8V92.9c4-0.4,7.1-3.5,7.5-7.5h10.5
			c0.4,4,3.5,7.1,7.5,7.5v35.3c0,0.4,0.3,0.8,0.8,0.8c0.4,0,0.8-0.3,0.8-0.8V84.8c1.3-0.7,2.2-2,2.4-3.5h5.9c0.4,0,0.8-0.3,0.8-0.8
			V45.2C129.5,41,125.8,37.5,121.5,37.5z M98.5,28.6c-0.1-0.3-0.4-0.5-0.7-0.5c-0.2,0-0.7-0.3-1-1c-0.4-0.8-0.3-1.4-0.2-1.4
			c0.2,0.1,0.5,0,0.7-0.1c0.2-0.2,0.3-0.4,0.3-0.7c-0.1-0.8-0.2-1.6-0.2-2.3c0-7.1,4.6-8.6,8.5-8.6c3.9,0,8.5,1.5,8.5,8.6
			c0,0.7-0.1,1.5-0.2,2.3c0,0.3,0.1,0.5,0.3,0.7c0.2,0.2,0.5,0.2,0.7,0.1c0.1,0.1,0.2,0.7-0.2,1.5c-0.4,0.7-0.9,1-1,1
			c-0.3,0-0.6,0.2-0.7,0.5c-1.6,4.5-4.5,7.4-7.4,7.4C103,36,100.1,33.1,98.5,28.6z M105.9,37.5c1.1,0,2.3-0.3,3.3-1l0,0v1.9
			l-3.3,1.9l-3.3-1.9v-1.9l0,0C103.7,37.2,104.8,37.5,105.9,37.5z M93.4,91.4v-6h6C99,88.6,96.5,91.1,93.4,91.4z M118.9,91.4
			c-3.1-0.3-5.6-2.8-6-6h6V91.4z M128,79.8h-5.1V53.6c0-0.4-0.3-0.8-0.8-0.8s-0.8,0.3-0.8,0.8v27c0,1.8-1.5,3.3-3.3,3.3H94.2
			c-1.8,0-3.3-1.5-3.3-3.3v-27c0-0.4-0.3-0.8-0.8-0.8c-0.4,0-0.7,0.3-0.7,0.8v26.2h-5.5V45.5c0-3.6,2.9-6.5,6.5-6.5h10.8
			c0,0.2,0.2,0.4,0.3,0.5l4.1,2.3c0.1,0.1,0.2,0.1,0.4,0.1s0.3,0,0.4-0.1l4.1-2.3c0.2-0.1,0.3-0.3,0.3-0.5h10.8
			c3.5,0,6.5,2.8,6.5,6.1V79.8z"/>
		<polyline fill="#FFFFFF" points="46.5,128.2 46.5,52.9 28.3,52.9 28.3,128.2 		"/>
		<polyline fill="#FFFFFF" points="55.8,128.2 55.8,28.5 74.1,28.5 74.1,128.2 		"/>
		<polyline fill="#FFFFFF" points="19,128.2 19,75.7 0.8,75.7 0.8,128.2 		"/>
		<path fill="#231F20" d="M91.9,1.9c-0.2-0.2-0.4-0.2-0.6-0.2L60,6.2c-0.3,0-0.5,0.2-0.6,0.5c-0.1,0.3,0,0.6,0.2,0.8l7.4,7.4
			L29.7,52.2h-1.4c-0.4,0-0.8,0.3-0.8,0.8v1.4L6.9,74.9H0.8c-0.4,0-0.8,0.3-0.8,0.8v52.5c0,0.4,0.3,0.8,0.8,0.8
			c0.4,0,0.7-0.3,0.7-0.8V76.4h16.7v51.8c0,0.4,0.3,0.8,0.8,0.8c0.4,0,0.8-0.3,0.8-0.8V86l7.8-7.8v50c0,0.4,0.3,0.8,0.8,0.8
			c0.4,0,0.8-0.3,0.8-0.8V53.7h16.7v74.5c0,0.4,0.3,0.8,0.8,0.8c0.4,0,0.7-0.3,0.7-0.8V58.4l7.8-7.8v77.6c0,0.4,0.3,0.8,0.8,0.8
			c0.4,0,0.8-0.3,0.8-0.8v-99h16.7v99c0,0.4,0.3,0.8,0.8,0.8c0.4,0,0.8-0.3,0.8-0.8V30.9l4.1-4.1l7.4,7.4c0.2,0.2,0.5,0.3,0.8,0.2
			c0.3-0.1,0.5-0.3,0.5-0.6l4.5-31.3C92.2,2.3,92.1,2,91.9,1.9z M19.7,83.8v-8.1c0-0.4-0.3-0.8-0.8-0.8H9.1l18.5-18.5v19.6
			L19.7,83.8z M47.3,56.3v-3.4c0-0.4-0.3-0.8-0.7-0.8H31.8L55.1,29v19.6L47.3,56.3z M86.3,32.1l-6.9-6.9c-0.3-0.3-0.8-0.3-1.1,0
			l-3.6,3.6v-0.3c0-0.4-0.3-0.8-0.8-0.8H56.3l12.3-12.3c0.1-0.1,0.2-0.3,0.2-0.5c0-0.2-0.1-0.4-0.2-0.5l-6.9-6.9l28.8-4.2L86.3,32.1
			z"/>
		<g>
			<path fill="#231F20" d="M32,43.7L31,42.6L32,43.7L32,43.7z M33.5,42.2l-1.1-1.1l0.7-0.7l1.1,1.1L33.5,42.2z M35.6,40.1l-1.1-1.1
				l0.7-0.7l1.1,1.1L35.6,40.1z M37.7,38l-1.1-1.1l0.7-0.7l1.1,1.1L37.7,38z M39.8,35.9l-1.1-1.1l0.7-0.7l1.1,1.1L39.8,35.9z
				 M42,33.7l-1.1-1.1l0.7-0.7l1.1,1.1L42,33.7z M44.1,31.6L43,30.6l0.7-0.7l1.1,1.1L44.1,31.6z M46.2,29.5l-1.1-1.1l0.7-0.7
				l1.1,1.1L46.2,29.5z M48.3,27.4l-1.1-1.1l0.7-0.7l1.1,1.1L48.3,27.4z M50.4,25.3l-1.1-1.1l0.7-0.7l1.1,1.1L50.4,25.3z M52.6,23.1
				l-1.1-1.1l0.7-0.7l1.1,1.1L52.6,23.1z M54.7,21L53.6,20l0.7-0.7l1.1,1.1L54.7,21z"/>
		</g>
		<g>
			<path fill="#231F20" d="M5.4,62.2l-1.1-1.1L5.4,62.2L5.4,62.2z M6.9,60.7l-1.1-1.1l0.7-0.7L7.6,60L6.9,60.7z M9,58.6l-1.1-1.1
				l0.7-0.7l1.1,1.1L9,58.6z M11.1,56.5l-1.1-1.1l0.7-0.7l1.1,1.1L11.1,56.5z M13.3,54.4l-1.1-1.1l0.7-0.7l1.1,1.1L13.3,54.4z
				 M15.4,52.2l-1.1-1.1l0.7-0.7l1.1,1.1L15.4,52.2z M17.5,50.1L16.4,49l0.7-0.7l1.1,1.1L17.5,50.1z M19.6,48l-1.1-1.1l0.7-0.7
				l1.1,1.1L19.6,48z M21.7,45.9l-1.1-1.1l0.7-0.7l1.1,1.1L21.7,45.9z M23.9,43.7l-1.1-1.1l0.7-0.7l1.1,1.1L23.9,43.7z M26,41.6
				l-1.1-1.1l0.7-0.7l1.1,1.1L26,41.6z M28.1,39.5L27,38.4l0.7-0.7l1.1,1.1L28.1,39.5z"/>
		</g>
		<g>
			<path fill="#231F20" d="M58.4,56.8l-1.1-1.1L58.4,56.8L58.4,56.8z M59.8,55.4l-1.1-1.1l0.7-0.7l1.1,1.1L59.8,55.4z M61.9,53.3
				l-1.1-1.1l0.7-0.7l1.1,1.1L61.9,53.3z M64.1,51.1L63,50.1l0.7-0.7l1.1,1.1L64.1,51.1z M66.2,49l-1.1-1.1l0.7-0.7l1.1,1.1L66.2,49
				z M68.3,46.9l-1.1-1.1l0.7-0.7l1.1,1.1L68.3,46.9z M70.4,44.8l-1.1-1.1l0.7-0.7l1.1,1.1L70.4,44.8z M72.6,42.6l-1.1-1.1l0.7-0.7
				l1.1,1.1L72.6,42.6z M74.7,40.5l-1.1-1.1l0.7-0.7l1.1,1.1L74.7,40.5z M76.8,38.4l-1.1-1.1l0.7-0.7l1.1,1.1L76.8,38.4z M78.9,36.3
				l-1.1-1.1l0.7-0.7l1.1,1.1L78.9,36.3z M81,34.2L80,33.1l0.7-0.7l1.1,1.1L81,34.2z"/>
		</g>
		<g>
			<path fill="#231F20" d="M13,104.4l-1.1-1.1L13,104.4L13,104.4z M14.4,103l-1.1-1.1l0.7-0.7l1.1,1.1L14.4,103z M16.5,100.9
				l-1.1-1.1l0.7-0.7l1.1,1.1L16.5,100.9z M18.7,98.7l-1.1-1.1l0.7-0.7l1.1,1.1L18.7,98.7z M20.8,96.6l-1.1-1.1l0.7-0.7l1.1,1.1
				L20.8,96.6z M22.9,94.5l-1.1-1.1l0.7-0.7l1.1,1.1L22.9,94.5z M25,92.4L24,91.3l0.7-0.7l1.1,1.1L25,92.4z M27.1,90.3l-1.1-1.1
				l0.7-0.7l1.1,1.1L27.1,90.3z M29.3,88.1l-1.1-1.1l0.7-0.7l1.1,1.1L29.3,88.1z M31.4,86L30.3,85l0.7-0.7l1.1,1.1L31.4,86z
				 M33.5,83.9l-1.1-1.1l0.7-0.7l1.1,1.1L33.5,83.9z M35.6,81.8l-1.1-1.1l0.7-0.7l1.1,1.1L35.6,81.8z"/>
		</g>
		<g>
			<g>
				<path fill="#231F20" d="M66.3,105.8c-0.2,0-0.4-0.1-0.5-0.2c-0.3-0.3-0.3-0.8,0-1.1l1.3-1.3c0.3-0.3,0.8-0.3,1.1,0
					c0.3,0.3,0.3,0.8,0,1.1l-1.3,1.3C66.7,105.8,66.5,105.8,66.3,105.8z"/>
			</g>
			<g>
				<path fill="#231F20" d="M62.3,109.9c-0.2,0-0.4-0.1-0.5-0.2c-0.3-0.3-0.3-0.8,0-1.1l1.3-1.3c0.3-0.3,0.8-0.3,1.1,0
					c0.3,0.3,0.3,0.8,0,1.1l-1.3,1.3C62.6,109.8,62.5,109.9,62.3,109.9z"/>
			</g>
			<g>
				<path fill="#231F20" d="M67.6,109.9c-0.2,0-0.4-0.1-0.5-0.2l-1.3-1.3c-0.3-0.3-0.3-0.8,0-1.1c0.3-0.3,0.8-0.3,1.1,0l1.3,1.3
					c0.3,0.3,0.3,0.8,0,1.1C68,109.8,67.8,109.9,67.6,109.9z"/>
			</g>
			<g>
				<path fill="#231F20" d="M63.6,105.8c-0.2,0-0.4-0.1-0.5-0.2l-1.3-1.3c-0.3-0.3-0.3-0.8,0-1.1c0.3-0.3,0.8-0.3,1.1,0l1.3,1.3
					c0.3,0.3,0.3,0.8,0,1.1C63.9,105.8,63.7,105.8,63.6,105.8z"/>
			</g>
		</g>
		<g>
			<g>
				<path fill="#231F20" d="M125.7,4.4c-0.2,0-0.4-0.1-0.5-0.2c-0.3-0.3-0.3-0.8,0-1.1l1.3-1.3c0.3-0.3,0.8-0.3,1.1,0
					c0.3,0.3,0.3,0.8,0,1.1l-1.3,1.3C126.1,4.4,125.9,4.4,125.7,4.4z"/>
			</g>
			<g>
				<path fill="#231F20" d="M121.6,8.5c-0.2,0-0.4-0.1-0.5-0.2c-0.3-0.3-0.3-0.8,0-1.1l1.3-1.3c0.3-0.3,0.8-0.3,1.1,0
					c0.3,0.3,0.3,0.8,0,1.1l-1.3,1.3C122,8.4,121.8,8.5,121.6,8.5z"/>
			</g>
			<g>
				<path fill="#231F20" d="M127,8.5c-0.2,0-0.4-0.1-0.5-0.2L125.1,7c-0.3-0.3-0.3-0.8,0-1.1c0.3-0.3,0.8-0.3,1.1,0l1.3,1.3
					c0.3,0.3,0.3,0.8,0,1.1C127.3,8.4,127.2,8.5,127,8.5z"/>
			</g>
			<g>
				<path fill="#231F20" d="M122.9,4.4c-0.2,0-0.4-0.1-0.5-0.2l-1.3-1.3c-0.3-0.3-0.3-0.8,0-1.1c0.3-0.3,0.8-0.3,1.1,0l1.3,1.3
					c0.3,0.3,0.3,0.8,0,1.1C123.3,4.4,123.1,4.4,122.9,4.4z"/>
			</g>
		</g>
		<g>
			<circle fill="#E6E9EE" cx="115.2" cy="49.2" r="2.2"/>
		</g>
		<g>
			<circle fill="#FF7058" cx="83.1" cy="95.2" r="2.2"/>
		</g>
		<g>
			<circle fill="#FF7058" cx="9.3" cy="37.2" r="2.2"/>
		</g>
		<g>
			<circle fill="#FFD05B" cx="9.9" cy="3.7" r="3.2"/>
		</g>
		<g>
			<circle fill="#E6E9EE" cx="12.4" cy="120.3" r="3.2"/>
		</g>
	</g>
</g>
</svg>
