<svg xmlns="http://www.w3.org/2000/svg" xmlns:xlink="http://www.w3.org/1999/xlink" width="500" height="360" viewBox="0 0 132.292 95.25"><defs><clipPath id="Q"><path d="M43.962 75.593H461V28.41H43.962z"/></clipPath><clipPath id="W"><path d="M70.612 342.722h379.246V70.085H70.612z"/></clipPath><linearGradient id="Y" spreadMethod="pad" gradientTransform="matrix(364.32733,183.43196,128.39569,-311.19351,84.615234,123.36328)" gradientUnits="userSpaceOnUse" y2="0" x2="1" y1="0" x1="0"><stop offset="0" stop-color="#13c095"/><stop offset=".986" stop-color="#1fb5b7"/><stop offset="1" stop-color="#1fb5b7"/></linearGradient><linearGradient id="c" spreadMethod="pad" gradientTransform="matrix(-344.75156,206.9359,-213.88654,-326.25516,420.14648,132.05469)" gradientUnits="userSpaceOnUse" y2="0" x2="1" y1="0" x1="0"><stop offset="0" stop-color="#13c095"/><stop offset=".986" stop-color="#1fb5b7"/><stop offset="1" stop-color="#1fb5b7"/></linearGradient><linearGradient id="g" spreadMethod="pad" gradientUnits="userSpaceOnUse" y2="305.487" x2="252.549" y1="92.661" x1="252.542"><stop offset="0" stop-color="#4dffd3"/><stop offset=".408" stop-color="#4dffd3"/><stop offset="1" stop-color="#72c9cb"/></linearGradient><path id="DK" d="M59.472 130.497c0 .844-.684 1.527-1.524 1.527s-1.527-.683-1.527-1.527.683-1.527 1.527-1.527 1.524.683 1.524 1.527"/><path id="DL" d="M55.6 132.476h-1.48v-1.447h1.48z"/><path id="DM" d="M51.252 132.476h-1.477v-1.447h1.477z"/><path id="DN" d="M140.317 143.296c-.466 0-.846.38-.846.846s.38.846.846.846.846-.38.846-.846-.38-.846-.846-.846m0 2.614a1.77 1.77 0 0 1-1.768-1.768 1.77 1.77 0 0 1 1.768-1.768 1.77 1.77 0 0 1 1.768 1.768 1.77 1.77 0 0 1-1.768 1.768"/></defs><g transform="matrix(.901693 0 0 .924778 -20.472626 -76.556503)"><g transform="matrix(.352778 0 0 -.352778 7.049831 210.076706)"><path d="M74.132 150.302c14.345-47.4 59.398-94.364 158.63-76.235 113.82 20.795 232.2 178.863 215.515 233.983-15.673 51.78-171.316 41.23-264.536-3.11-95.814-45.573-123.954-107.25-109.61-154.64" fill="url(#Y)" clip-path="url(#W)" opacity=".3"/><path d="M78.76 342.593c-16.862-41.92 9.877-176.557 151.165-241.743 62.79-28.967 148.474-31.905 188.254 28.205 42.162 63.708 36.963 189.615-100.126 178.284-64.42-5.325-113.195 9.933-149.707 25.2-31.436 13.137-53.78 26.274-69.19 26.274-9.04 0-15.693-4.52-20.395-16.2" fill="url(#c)"/><path d="M91.02 141.66c51.28-50.495 148.853-69.576 227.68-30.18 86.26 43.114 145.205 100.708 139.304 139.472-9.4 61.75-93.304 25.382-233.436 56.88-13.848 3.112-28.273 4.61-42.667 4.61-97.903-.004-193.946-69.297-90.882-170.78" fill="url(#g)"/></g><path d="M90.508 117.744l7.48-6.793 7.48 6.73-.065 9.264h-14.7z" fill="#ccd9e9"/><path d="M103.573 125.626H92.5V114.86h11.072z" fill="#fff"/><path d="M90.508 128.317h14.962l-5.29-4.974h-4.357z" fill="#dde7f5"/><path d="M90.518 128.313v-10.3l5.316 5.318zm14.96 0v-10.3l-5.297 5.318z" fill="#f1f0f6"/><path d="M63.57 155.772H39.682V126.37H63.57z" fill="#ffce63"/><path d="M57.948 132.024c-.843 0-1.527-.684-1.527-1.527s.683-1.527 1.527-1.527 1.524.683 1.524 1.527-.684 1.527-1.524 1.527m.962 2.477h-1.91v-.882h1.91zm-3.312-4.05h-1.48V129h1.48zm0 2.027h-1.48v-1.447h1.48zm0 2.066h-1.48v-1.447h1.48zm-2.157-4.092h-1.48V129h1.48zm0 2.027h-1.48v-1.447h1.48zm0 2.066h-1.48v-1.447h1.48zm-2.2-4.092h-1.477V129h1.477zm0 2.027h-1.477v-1.447h1.477zm0 2.066h-1.477v-1.447h1.477zm-2.134-4.092h-1.48V129h1.48zm0 2.027h-1.48v-1.447h1.48zm0 2.066h-1.48v-1.447h1.48zm-2.154-4.092h-1.48V129h1.48zm0 2.027h-1.48v-1.447h1.48zm0 2.066h-1.48v-1.447h1.48zm-2.2-4.092h-1.48V129h1.48zm0 2.027h-1.48v-1.447h1.48zm0 2.066h-1.48v-1.447h1.48zm17.5-3.52v-3.427h-21.3v3.427h1.044v1.497h-1.044v3.427h21.3v-3.427H61.07v-1.497z" fill="#0c4b84"/><g fill="#fff"><path d="M58.9 134.5h-1.91v-.882h1.91z"/><use xlink:href="#DK"/><path d="M44.775 130.45h-1.48V129h1.48zm2.2 0h-1.48V129h1.48zm2.145 0h-1.48V129h1.48zm2.132 0h-1.477V129h1.477zm2.2 0h-1.48V129h1.48zm2.158 0h-1.48V129h1.48z"/><use xlink:href="#DL"/><use xlink:href="#DL" x="-2.158"/><use xlink:href="#DM"/><use xlink:href="#DL" x="-6.48"/><use xlink:href="#DL" x="-8.635"/><use xlink:href="#DL" x="-10.825"/><use xlink:href="#DL" x="-10.825" y="2.066"/><use xlink:href="#DL" x="-8.635" y="2.066"/><use xlink:href="#DL" x="-6.48" y="2.066"/><use xlink:href="#DM" y="2.066"/><use xlink:href="#DL" x="-2.158" y="2.066"/><use xlink:href="#DL" y="2.066"/></g><path d="M57.948 150.56c-.843 0-1.527-.684-1.527-1.527s.683-1.527 1.527-1.527 1.524.683 1.524 1.527-.684 1.527-1.524 1.527m.962 2.477h-1.91v-.882h1.91zm-3.312-4.05h-1.48v-1.45h1.48zm0 2.027h-1.48v-1.447h1.48zm0 2.065h-1.48v-1.447h1.48zm-2.157-4.092h-1.48v-1.45h1.48zm0 2.027h-1.48v-1.447h1.48zm0 2.065h-1.48v-1.447h1.48zm-2.2-4.092h-1.477v-1.45h1.477zm0 2.027h-1.477v-1.447h1.477zm0 2.065h-1.477v-1.447h1.477zm-2.134-4.092h-1.48v-1.45h1.48zm0 2.027h-1.48v-1.447h1.48zm0 2.065h-1.48v-1.447h1.48zm-2.154-4.092h-1.48v-1.45h1.48zm0 2.027h-1.48v-1.447h1.48zm0 2.065h-1.48v-1.447h1.48zm-2.2-4.092h-1.48v-1.45h1.48zm0 2.027h-1.48v-1.447h1.48zm0 2.065h-1.48v-1.447h1.48zm17.5-3.518v-3.427h-21.3v3.427h1.044v1.497h-1.044v3.427h21.3v-3.427H61.07v-1.497z" fill="#0c4b84"/><g fill="#fff"><path d="M58.9 153.038H57v-.882h1.9zm.572-4.003c0 .843-.684 1.527-1.524 1.527a1.53 1.53 0 0 1-1.527-1.527c0-.844.683-1.527 1.527-1.527s1.524.683 1.524 1.527m-14.697-.048h-1.48v-1.45h1.48zm2.2 0h-1.48v-1.45h1.48z"/><path d="M49.12 148.987h-1.48v-1.45h1.48zm2.132 0h-1.477v-1.45h1.477zm2.2 0h-1.48v-1.45h1.48zm2.158 0h-1.48v-1.45h1.48z"/><use xlink:href="#DL" y="18.538"/><use xlink:href="#DL" x="-2.158" y="18.538"/><use xlink:href="#DM" y="18.538"/><use xlink:href="#DL" x="-6.48" y="18.538"/><use xlink:href="#DL" x="-8.635" y="18.538"/><use xlink:href="#DL" x="-10.825" y="18.538"/><use xlink:href="#DL" x="-10.825" y="20.604"/><use xlink:href="#DL" x="-8.635" y="20.604"/><use xlink:href="#DL" x="-6.48" y="20.604"/><use xlink:href="#DM" y="20.604"/><use xlink:href="#DL" x="-2.158" y="20.604"/><use xlink:href="#DL" y="20.604"/></g><path d="M57.948 141.293c-.843 0-1.527-.684-1.527-1.527s.683-1.527 1.527-1.527 1.524.683 1.524 1.527-.684 1.527-1.524 1.527m.962 2.477h-1.91v-.882h1.91zm-3.312-4.05h-1.48v-1.45h1.48zm0 2.027h-1.48v-1.447h1.48zm0 2.065h-1.48v-1.447h1.48zm-2.157-4.092h-1.48v-1.45h1.48zm0 2.027h-1.48v-1.447h1.48zm0 2.065h-1.48v-1.447h1.48zm-2.2-4.092h-1.477v-1.45h1.477zm0 2.027h-1.477v-1.447h1.477zm0 2.065h-1.477v-1.447h1.477zm-2.134-4.092h-1.48v-1.45h1.48zm0 2.027h-1.48v-1.447h1.48zm0 2.065h-1.48v-1.447h1.48zm-2.154-4.092h-1.48v-1.45h1.48zm0 2.027h-1.48v-1.447h1.48zm0 2.065h-1.48v-1.447h1.48zm-2.2-4.092h-1.48v-1.45h1.48zm0 2.027h-1.48v-1.447h1.48zm0 2.065h-1.48v-1.447h1.48zm17.5-3.518v-3.427h-21.3v3.427h1.044v1.497h-1.044v3.427h21.3V141.8H61.07v-1.497z" fill="#0c4b84"/><g fill="#fff"><path d="M58.9 143.77h-1.91v-.882h1.91z"/><use xlink:href="#DK" y="9.269"/><path d="M44.775 139.718h-1.48v-1.45h1.48zm2.2 0h-1.48v-1.45h1.48zm2.145 0h-1.48v-1.45h1.48zm2.132 0h-1.477v-1.45h1.477zm2.2 0h-1.48v-1.45h1.48zm2.158 0h-1.48v-1.45h1.48z"/><use xlink:href="#DL" y="9.269"/><use xlink:href="#DL" x="-2.158" y="9.269"/><use xlink:href="#DM" y="9.269"/><use xlink:href="#DL" x="-6.48" y="9.269"/><use xlink:href="#DL" x="-8.635" y="9.269"/><use xlink:href="#DL" x="-10.825" y="9.269"/><use xlink:href="#DL" x="-10.825" y="11.334"/><use xlink:href="#DL" x="-8.635" y="11.334"/><use xlink:href="#DL" x="-6.48" y="11.334"/><use xlink:href="#DM" y="11.334"/><use xlink:href="#DL" x="-2.158" y="11.334"/><use xlink:href="#DL" y="11.334"/></g><path d="M150.983 138.463h-30.34V117.65h30.34z" fill="#c78ee0"/><path d="M142.426 125.777c0 3.652-2.96 6.612-6.612 6.612s-6.612-2.96-6.612-6.612 2.96-6.612 6.612-6.612 6.612 2.96 6.612 6.612" fill="#b876d6"/><path d="M149.925 133.524h-28.222v3.175h28.222zm-9.717-7.994l-7.216-4.06v8.615z" fill="#fff"/><g fill="#0c4b84"><path d="M148.867 135.64H122.76v-1.058h26.106z"/><path d="M130.522 136.347h-.706v-2.47h.706z"/></g><path d="M91.156 123.128c5.285 0 9.57 4.466 9.57 9.752s-4.285 9.75-9.57 9.75H65.895c-5.283 0-9.568-4.465-9.568-9.75s4.284-9.752 9.568-9.752c1.368 0 2.667.3 3.846.81-.258-.865-.4-1.777-.4-2.722 0-5.286 4.285-9.57 9.568-9.57s9.57 4.285 9.57 9.57a9.54 9.54 0 0 1-.316 2.398 9.52 9.52 0 0 1 2.994-.485" fill="#f9c34f"/><path d="M127.9 136.27c5.285 0 9.57 4.466 9.57 9.752s-4.285 9.75-9.57 9.75h-25.26c-5.283 0-9.568-4.465-9.568-9.75s4.285-9.752 9.568-9.752a9.52 9.52 0 0 1 3.845.809c-.258-.864-.4-1.777-.4-2.722 0-5.286 4.285-9.57 9.568-9.57s9.57 4.285 9.57 9.57c0 .827-.117 1.628-.317 2.398a9.52 9.52 0 0 1 2.994-.485" fill="#fff"/><path d="M110.767 133.524v3.024l6.32-4.374-6.32-4.374v2.197H71.608v3.528z" fill="#f9c34f"/><path d="M73.02 146.93v-2.573l-6.32 4.374 6.32 4.374v-1.942h39.158v-4.233z" fill="#fff"/><path d="M82.658 152.28v-2.737a2.71 2.71 0 0 1 .333-1.317c.78-1.4 2.27-1.312 2.27-1.312s1.492-.1 2.27 1.312a2.71 2.71 0 0 1 .334 1.317v2.737h1.446v-2.464l-.032-.67-.085-.492-.086-.32a4.49 4.49 0 0 0-.245-.619 4.52 4.52 0 0 0-.247-.439 3.74 3.74 0 0 0-3.356-1.786c-1.736-.023-2.772.88-3.35 1.786-.1.142-.17.29-.244.44a4.54 4.54 0 0 0-.246.619l-.09.32a4.91 4.91 0 0 0-.085.492c-.03.22-.038.445-.038.67v2.464z" fill="#0c4b84"/><path d="M89.458 161.364h-8.256a1.94 1.94 0 0 1-1.935-1.935v-6.044a1.94 1.94 0 0 1 1.935-1.935h8.255a1.94 1.94 0 0 1 1.935 1.935v6.044a1.94 1.94 0 0 1-1.935 1.935" fill="#359cdb"/><path d="M86.192 156.637v2.257c0 .463-.37.84-.833.84s-.833-.378-.833-.84v-2.257c-.634-.308-1.074-.945-1.074-1.68 0-1.037.823-1.878 1.86-1.878s1.898.84 1.898 1.878c0 .735-.463 1.372-1.018 1.68m-.946-9.655h-5.322c.932 1.25.62 3.377-.933 4.036h5.396c-.94-1.23-.655-3.346.858-4.036" fill="#fff"/><g fill="#0c4b84"><path d="M135.82 146.525l-3.25-3.248.653-.653 3.25 3.248zm2.728-.04l-.653-.652.98-.98.652.653zm5.73 2.193l-3.076-3.075.653-.652 3.076 3.075z"/><use xlink:href="#DN"/><path d="M137.24 146.372c-.466 0-.846.38-.846.845s.38.846.846.846.846-.38.846-.846-.38-.845-.846-.845m0 2.614a1.77 1.77 0 0 1-1.768-1.769 1.77 1.77 0 0 1 1.768-1.768 1.77 1.77 0 0 1 1.768 1.768 1.77 1.77 0 0 1-1.768 1.769"/><use xlink:href="#DN" x="-8.304" y="-2.153"/></g></g></svg>