<svg xmlns="http://www.w3.org/2000/svg" width="105.827" height="105.827" viewBox="0 0 28 28"><g transform="matrix(.264583 0 0 .264583 -48.564962 -66.21108)"><ellipse cx="245.034" cy="324.796" rx="22.71" ry="7.844" fill="#fbd260"/><path d="M245.034 333.64c-11.494 0-23.7-3.1-23.7-8.844s12.216-8.842 23.7-8.842 23.7 3.1 23.7 8.842-12.216 8.844-23.7 8.844zm0-15.686c-12.794 0-21.7 3.605-21.7 6.842s8.916 6.844 21.7 6.844 21.7-3.607 21.7-6.844-8.916-6.842-21.7-6.842z"/><path d="M281.618 263.847H208.45v49.232h24.05v7.027c0 2.064 5.297 3.736 11.832 3.736s11.833-1.672 11.833-3.736v-7.027h25.45z" fill="#fff"/><path d="M244.334 324.843c-6.18 0-12.832-1.482-12.832-4.736v-6.027h-24.05v-51.232h75.167v51.232h-25.45v6.027c0 3.253-6.652 4.736-12.833 4.736zM209.45 312.08h24.05v8.027c0 .818 3.685 2.736 10.832 2.736s10.833-1.918 10.833-2.736v-8.027h25.45v-47.232H209.45z"/><path d="M213.486 268.325h63.098V308.6h-63.098z" fill="#ffc252"/><path d="M219.464 281.145h24.58v24.015h-24.58zm28.036-.035h24.58v24.015H247.5z" fill="#fff"/><path d="M219.375 272.728h17.47v5.61h-17.47z" fill="#ea3c3b"/><circle cx="223.766" cy="300.294" r="1.597"/><path d="M251.934 285.038h11.38v2h-11.38zm0 10.942h11.38v2h-11.38zm0-5.48h11.38v2h-11.38zm-27.784-5.462h11.38v2h-11.38zm0 10.942h11.38v2h-11.38zm0-5.48h11.38v2h-11.38z"/><path d="M198.1 336.456a6.78 6.78 0 0 1-6.776-6.777v-33.763c0-3.743 3.034-6.776 6.776-6.776h20.723c3.743 0 6.776 3.033 6.776 6.776v33.763a6.78 6.78 0 0 1-6.776 6.777z" fill="#fff"/><path d="M218.813 337.456H198.1c-4.288 0-7.776-3.488-7.776-7.777v-33.763c0-4.288 3.488-7.776 7.776-7.776h20.723c4.288 0 7.776 3.488 7.776 7.776v33.763c0 4.3-3.488 7.777-7.776 7.777zM198.1 290.14c-3.185 0-5.776 2.592-5.776 5.776v33.763c0 3.186 2.6 5.777 5.776 5.777h20.723c3.185 0 5.776-2.592 5.776-5.777v-33.763c0-3.185-2.6-5.776-5.776-5.776zm7.592 40.783h5.52v2h-5.52z"/><path d="M196.115 294.74h24.673v32.37h-24.673z" fill="#57dcf1"/><path d="M239.398 337.7c0 2.636-2.344 4.772-5.235 4.772h-10.36c-2.89 0-5.234-2.137-5.234-4.772v-27.043c0-2.636 2.343-4.772 5.234-4.772h10.36c2.89 0 5.235 2.137 5.235 4.772z" fill="#fff"/><path d="M234.163 343.472h-10.36c-3.438 0-6.234-2.6-6.234-5.772v-27.043c0-3.183 2.796-5.772 6.234-5.772h10.36c3.438 0 6.235 2.6 6.235 5.772V337.7c0 3.182-2.797 5.772-6.235 5.772zm-10.36-36.588c-2.334 0-4.234 1.692-4.234 3.772V337.7c0 2.08 1.9 3.772 4.234 3.772h10.36c2.335 0 4.235-1.692 4.235-3.772v-27.043c0-2.08-1.9-3.772-4.235-3.772z"/><path d="M222.672 312.18h12.623v21.023h-12.623z" fill="#57dcf1"/><path d="M226.224 308.77h5.52v2h-5.52z"/><path d="M226.71 335.427h4.545v3.14h-4.545z" fill="#ea3c3b"/><path d="M231.756 339.067h-5.545v-4.14h5.545zm-4.545-1h3.545v-2.14h-3.545z"/><path d="M198.992 304.894h7.662V322.5h-7.662zm9.293 0h7.464V322.5h-7.464zm16.14 15.836h4.17v9.58h-4.17zm5.056 0h4.062v9.58h-4.062z" fill="#fff"/><path d="M198.992 297.912h13.025v5.175h-13.025zm25.432 18.294h9.12v3.656h-9.12z" fill="#ea3c3b"/><path d="M241.883 274.532h30.196v2h-30.196z"/></g></svg>