<?xml version="1.0" encoding="utf-8"?>
<!-- Generator: Adobe Illustrator 18.0.0, SVG Export Plug-In . SVG Version: 6.00 Build 0)  -->
<!DOCTYPE svg PUBLIC "-//W3C//DTD SVG 1.1//EN" "http://www.w3.org/Graphics/SVG/1.1/DTD/svg11.dtd">
<svg version="1.1" id="Layer_1" xmlns="http://www.w3.org/2000/svg" xmlns:xlink="http://www.w3.org/1999/xlink" x="0px" y="0px"
	 viewBox="0 0 129.5 129.5" enable-background="new 0 0 129.5 129.5" xml:space="preserve">
<g>
	<g>
		<rect x="44.3" y="40" fill="#FFFFFF" width="84.1" height="59.9"/>
		<path fill="#FFFFFF" d="M53.5,110.2h-9.2c-1.4,0-2.6-1.2-2.6-2.6v0c0-1.4,1.2-2.6,2.6-2.6h9.2c1.4,0,2.6,1.2,2.6,2.6v0
			C56.1,109,54.9,110.2,53.5,110.2z"/>
		<path fill="#FFFFFF" d="M55.9,105H43.3c-1.4,0-2.6-1.2-2.6-2.6v0c0-1.4,1.2-2.6,2.6-2.6h12.6c1.4,0,2.6,1.2,2.6,2.6v0
			C58.5,103.9,57.4,105,55.9,105z"/>
		<path fill="#FFFFFF" d="M30.7,97.4L30.7,97.4c3.6,0,6.5-2.9,6.5-6.5l0,0h12c1.7,0,3.1-1.4,3.1-3.1l0,0c0-1.7-1.4-3.1-3.1-3.1h-18
			L25,90.1h-9.4"/>
		<rect x="9.2" y="86.8" fill="#FFFFFF" width="6.4" height="24.5"/>
		<polyline fill="#84DBFF" points="0.4,114.2 9.2,114.2 9.2,83.8 0.4,83.8 		"/>
		<line fill="#FFFFFF" x1="84.4" y1="59.7" x2="109.4" y2="59.7"/>
		<rect x="84.4" y="59" fill="#231F20" width="25.1" height="1.5"/>
		<line fill="#FFFFFF" x1="84.4" y1="64.4" x2="109.4" y2="64.4"/>
		<rect x="84.4" y="63.7" fill="#231F20" width="25.1" height="1.5"/>
		<line fill="#FFFFFF" x1="84.4" y1="69.1" x2="109.4" y2="69.1"/>
		<rect x="84.4" y="68.4" fill="#231F20" width="25.1" height="1.5"/>
		<line fill="#FFFFFF" x1="84.4" y1="73.8" x2="99.9" y2="73.8"/>
		<rect x="84.4" y="73" fill="#231F20" width="15.5" height="1.5"/>
		<g>
			<circle fill="#FFD05B" cx="64.4" cy="66.8" r="12.9"/>
		</g>
		<g>
			<circle fill="#FFFFFF" cx="64.4" cy="60.2" r="3"/>
			<path fill="#231F20" d="M64.4,64c-2.1,0-3.8-1.7-3.8-3.8c0-2.1,1.7-3.8,3.8-3.8c2.1,0,3.8,1.7,3.8,3.8C68.1,62.3,66.4,64,64.4,64
				z M64.4,58c-1.2,0-2.3,1-2.3,2.3c0,1.2,1,2.3,2.3,2.3c1.3,0,2.3-1,2.3-2.3C66.6,59,65.6,58,64.4,58z"/>
		</g>
		<g>
			<path fill="#231F20" d="M72.7,74.1h-1.5c0-3.8-3.1-6.8-6.8-6.8c-3.8,0-6.8,3.1-6.8,6.8H56c0-4.6,3.7-8.3,8.3-8.3
				C69,65.7,72.7,69.5,72.7,74.1z"/>
		</g>
		<rect x="115.3" y="23.9" fill="#FFFFFF" width="7.1" height="49.6"/>
		<polygon fill="#FFFFFF" points="115.3,73.4 118.8,81.7 122.4,73.4 		"/>
		<path fill="#FFFFFF" d="M116.3,16h5c0.6,0,1.1,0.5,1.1,1.1v6.8h-7.1V17C115.3,16.5,115.7,16,116.3,16z"/>
		<path fill="#FFFFFF" d="M53.4,18.2l-4.3-1.9L49,16.5c-0.9,1.6-2.7,2.5-4.6,2.4c-0.4,0-0.7,0-1.1,0c-1.9,0-3.6-1-4.5-2.7L38.8,16
			l-4.4,1.7l0.1,0.3c0.5,1.8-0.1,3.7-1.6,5c-0.3,0.2-0.5,0.5-0.8,0.8c-1.3,1.3-3.2,1.9-5,1.3l-0.3-0.1L24.9,29l0.3,0.1
			c1.6,0.9,2.5,2.7,2.4,4.6c0,0.4,0,0.7,0,1.1c0,1.9-1,3.6-2.7,4.5l-0.3,0.1l1.7,4.4l0.3-0.1c1.8-0.5,3.7,0.1,5,1.6
			c0.2,0.3,0.5,0.5,0.8,0.8c1.3,1.3,1.9,3.2,1.3,5l-0.1,0.3l4.3,1.9l0.1-0.3c0.9-1.6,2.7-2.5,4.6-2.4c0.4,0,0.7,0,1.1,0
			c1.9,0,3.6,1,4.5,2.7l0.1,0.3l4.4-1.7l-0.1-0.3c-0.5-1.8,0.1-3.7,1.6-5c0.3-0.2,0.5-0.5,0.8-0.8c1.3-1.3,3.2-1.9,5-1.3l0.3,0.1
			l1.9-4.3l-0.3-0.1c-1.6-0.9-2.5-2.7-2.4-4.6c0-0.4,0-0.7,0-1.1c0-1.9,1-3.6,2.7-4.5l0.3-0.1l-1.7-4.4l-0.3,0.1
			c-1.8,0.5-3.7-0.1-5-1.6c-0.2-0.3-0.5-0.5-0.8-0.8c-1.3-1.3-1.9-3.2-1.3-5L53.4,18.2z"/>
		<path fill="#231F20" d="M128.4,39.2h-5.3V17c0-1-0.8-1.8-1.8-1.8h-5c-1,0-1.8,0.8-1.8,1.8l0,22.2H61.3c-0.9-0.8-1.4-2-1.3-3.3
			c0-0.4,0-0.8,0-1.2c0-1.6,0.9-3.1,2.2-3.8l0.3-0.1c0.3-0.2,0.5-0.6,0.4-0.9l-1.7-4.4c-0.1-0.4-0.5-0.6-0.9-0.5l-0.3,0.1
			c-1.5,0.4-3.1-0.1-4.2-1.3c-0.3-0.3-0.5-0.6-0.8-0.8c-1.2-1.1-1.6-2.8-1.1-4.2l0.1-0.3c0.1-0.4,0-0.8-0.4-0.9l-4.3-1.9
			c-0.3-0.2-0.8,0-1,0.3l-0.1,0.3c-0.8,1.4-2.2,2.1-3.9,2c-0.4,0-0.7,0-1.1,0h-0.1c-1.6,0-3.1-0.9-3.8-2.2l-0.1-0.3
			c-0.2-0.3-0.6-0.5-0.9-0.4l-4.4,1.7c-0.4,0.1-0.6,0.5-0.5,0.9l0.1,0.3c0.4,1.5-0.1,3.1-1.3,4.2c-0.3,0.3-0.6,0.5-0.8,0.8
			c-1.1,1.1-2.8,1.6-4.2,1.1l-0.3-0.1c-0.4-0.1-0.8,0.1-0.9,0.4l-1.9,4.3c-0.2,0.4,0,0.8,0.3,1l0.3,0.1c1.4,0.8,2.1,2.3,2,3.9
			c0,0.4,0,0.8,0,1.1c0,1.6-0.9,3.1-2.2,3.8l-0.3,0.1c-0.3,0.2-0.5,0.6-0.4,0.9l1.7,4.4c0.1,0.4,0.5,0.6,0.9,0.5l0.3-0.1
			c1.5-0.4,3.1,0.1,4.2,1.3c0.3,0.3,0.5,0.6,0.8,0.8c1.2,1.2,1.6,2.8,1.1,4.2l-0.1,0.3c-0.1,0.4,0,0.8,0.4,0.9l4.3,1.9
			c0.3,0.2,0.8,0,1-0.3l0.1-0.3c0.8-1.4,2.2-2.1,3.9-2c0.4,0,0.7,0,1.1,0h0.1c0,0,0,0,0,0V84H31.2c-0.2,0-0.4,0.1-0.5,0.2l-6,5.2
			h-8.3v-2.6c0-0.4-0.3-0.8-0.8-0.8H9.9v-2.2c0-0.4-0.3-0.8-0.8-0.8H0.4v1.5h8.1v29H0.4v1.5h8.8c0.4,0,0.8-0.3,0.8-0.8V112h5.7
			c0.4,0,0.8-0.3,0.8-0.8v-3.1h10.2l2.5,2.5c0.1,0.1,0.3,0.2,0.5,0.2h14.7h8.2h1c1.8,0,3.3-1.5,3.3-3.3c0-0.7-0.2-1.3-0.6-1.9
			c1.7-0.2,3-1.6,3-3.3c0-0.7-0.2-1.3-0.5-1.8h69.6c0.4,0,0.8-0.3,0.8-0.8V40C129.1,39.5,128.8,39.2,128.4,39.2z M14.8,110.5H9.9
			v-23h4.9V110.5z M121.6,24.6v48.1h-2V24.6H121.6z M118.1,72.7h-2l0-48.1h2V72.7z M121.2,74.2l-2.4,5.6l-2.4-5.6H121.2z M116,17
			c0-0.2,0.1-0.3,0.3-0.3h5c0.2,0,0.3,0.1,0.3,0.3v6.1H116V17z M43.5,49.9h-0.1c-0.3,0-0.6,0-1,0c-2.1-0.1-4,0.8-5.1,2.4l-3-1.4
			c0.5-1.9-0.1-4-1.6-5.4c-0.2-0.2-0.5-0.5-0.7-0.8c-1.4-1.5-3.4-2.3-5.3-1.9l-1.2-3.1c1.7-1,2.7-2.9,2.7-4.9c0-0.3,0-0.7,0-1
			c0.1-2.1-0.8-4-2.4-5.1l1.4-3c1.9,0.5,4-0.1,5.4-1.6c0.2-0.2,0.5-0.5,0.8-0.7c1.6-1.4,2.3-3.4,1.9-5.3l3.1-1.2
			c1,1.7,2.8,2.7,4.9,2.7v-0.8l0.1,0.8c0.3,0,0.6,0,1,0c2.1,0.1,4-0.8,5.1-2.4l3,1.4c-0.5,1.9,0.1,4,1.6,5.4
			c0.2,0.2,0.5,0.5,0.7,0.8c1.4,1.5,3.4,2.3,5.3,1.9l1.2,3.1c-1.7,1-2.7,2.9-2.7,4.9c0,0.3,0,0.7,0,1c-0.1,2.1,0.8,4,2.4,5.1l-1.4,3
			c-1.9-0.5-4,0.1-5.4,1.6c-0.2,0.2-0.5,0.5-0.8,0.7c-1.6,1.4-2.3,3.4-1.9,5.3l-3.1,1.2C47.5,51,45.6,49.9,43.5,49.9z M41.5,109.4
			H29.9l-2.5-2.5c-0.1-0.1-0.3-0.2-0.5-0.2H16.3V90.9H25c0.2,0,0.4-0.1,0.5-0.2l6-5.2h17.7c1.3,0,2.3,1.1,2.3,2.3
			c0,1.3-1.1,2.3-2.3,2.3h-12c-0.4,0-0.8,0.3-0.8,0.8c0,3.1-2.6,5.7-5.7,5.7c-0.4,0-0.8,0.3-0.8,0.8s0.3,0.8,0.8,0.8
			c3.7,0,6.8-2.8,7.2-6.5h5.7v7.4h-0.2c-1.8,0-3.3,1.5-3.3,3.3c0,1.3,0.7,2.4,1.8,2.9c-0.5,0.6-0.9,1.4-0.9,2.2
			C41,108.3,41.2,108.9,41.5,109.4z M53.5,109.4h-1h-8.2c-1,0-1.8-0.8-1.8-1.8c0-1,0.8-1.8,1.8-1.8h9.2c1,0,1.8,0.8,1.8,1.8
			C55.3,108.6,54.5,109.4,53.5,109.4z M55.9,104.3h-2.4h-9.2h-1c-1,0-1.8-0.8-1.8-1.8c0-1,0.8-1.8,1.8-1.8h6.3c0,0,0,0,0,0h6.6
			c0.9,0.1,1.5,0.9,1.5,1.8C57.8,103.4,56.9,104.3,55.9,104.3z M127.6,99.1H56.2c-0.1,0-0.2,0-0.3,0H45.1v-7.4h4.1
			c2.1,0,3.8-1.7,3.8-3.8c0-2.1-1.7-3.8-3.8-3.8h-4.1V51.7c1,0.4,1.8,1,2.2,2l0.1,0.3c0.1,0.3,0.4,0.4,0.7,0.4c0.1,0,0.2,0,0.3,0
			l4.4-1.7c0.4-0.1,0.6-0.5,0.5-0.9l-0.1-0.3c-0.4-1.5,0.1-3.1,1.3-4.2c0.3-0.3,0.6-0.5,0.8-0.8c1.1-1.1,2.8-1.6,4.2-1.1l0.3,0.1
			c0.4,0.1,0.8,0,0.9-0.4l1.9-4.3c0,0,0-0.1,0-0.2h51.9l0,32.7c0,0.1,0,0.2,0.1,0.3c0,0,0,0,0,0l3.5,8.3c0.1,0.3,0.4,0.5,0.7,0.5
			c0.3,0,0.6-0.2,0.7-0.5l3.5-8.3c0,0,0,0,0,0c0-0.1,0.1-0.2,0.1-0.3V40.7h4.5V99.1z"/>
		<path fill="#231F20" d="M43.2,47.6c-0.4,0-0.7,0-1.1-0.1l0.1-1.5c0.3,0,0.6,0,0.9,0.1L43.2,47.6z M45.3,47.5L45.1,46
			c0.3,0,0.6-0.1,0.9-0.2l0.3,1.5C46,47.3,45.7,47.4,45.3,47.5z M40.1,47.2c-0.3-0.1-0.7-0.2-1-0.3l0.5-1.4c0.3,0.1,0.6,0.2,0.9,0.3
			L40.1,47.2z M48.4,46.6l-0.6-1.4c0.3-0.1,0.6-0.3,0.8-0.4l0.7,1.3C49,46.3,48.7,46.5,48.4,46.6z M37.1,46
			c-0.3-0.2-0.6-0.4-0.9-0.6l0.8-1.2c0.3,0.2,0.5,0.3,0.8,0.5L37.1,46z M51.1,45l-0.9-1.2c0.2-0.2,0.5-0.4,0.7-0.6l1,1.1
			C51.7,44.6,51.4,44.8,51.1,45z M34.6,44.1c-0.3-0.2-0.5-0.5-0.7-0.8l1.1-1c0.2,0.2,0.4,0.5,0.7,0.7L34.6,44.1z M53.4,42.8
			l-1.2-0.9c0.2-0.2,0.4-0.5,0.6-0.8l1.2,0.8C53.9,42.2,53.6,42.5,53.4,42.8z M32.6,41.6c-0.2-0.3-0.4-0.6-0.5-0.9l1.3-0.7
			c0.1,0.3,0.3,0.6,0.5,0.8L32.6,41.6z M55.1,40l-0.7-0.3l-0.7-0.3c0.1-0.3,0.2-0.6,0.3-0.9l1.4,0.5C55.4,39.4,55.3,39.7,55.1,40z
			 M31.2,38.7c-0.1-0.3-0.2-0.7-0.3-1l1.5-0.3c0.1,0.3,0.2,0.6,0.3,0.9L31.2,38.7z M56,37.1l-1.5-0.3c0.1-0.3,0.1-0.6,0.1-0.9
			l1.5,0.1C56.1,36.4,56.1,36.7,56,37.1z M30.6,35.6c0-0.3,0-0.5,0-0.8l0-0.2l1.5,0l0,0.2c0,0.2,0,0.5,0,0.7L30.6,35.6z M54.7,34
			c0-0.3-0.1-0.6-0.1-0.9l1.5-0.2c0.1,0.3,0.1,0.7,0.1,1.1L54.7,34z M32.3,32.7l-1.5-0.3c0.1-0.3,0.1-0.7,0.2-1l1.4,0.4
			C32.4,32.1,32.4,32.4,32.3,32.7z M54.2,31.2c-0.1-0.3-0.2-0.6-0.3-0.9l1.4-0.6c0.1,0.3,0.3,0.7,0.4,1L54.2,31.2z M33.2,30
			l-1.4-0.6c0.2-0.3,0.3-0.6,0.5-0.9l1.3,0.7C33.4,29.5,33.3,29.8,33.2,30z M53,28.7c-0.2-0.3-0.3-0.5-0.5-0.8l1.2-0.9
			c0.2,0.3,0.4,0.6,0.6,0.9L53,28.7z M34.6,27.7l-1.2-0.9c0.2-0.3,0.5-0.5,0.7-0.8l1.1,1C35.1,27.2,34.8,27.4,34.6,27.7z M51.2,26.5
			c-0.2-0.2-0.5-0.4-0.7-0.6l0.9-1.2c0.3,0.2,0.5,0.5,0.8,0.7L51.2,26.5z M36.7,25.7l-0.9-1.2c0.3-0.2,0.6-0.4,0.9-0.6l0.8,1.3
			C37.2,25.4,36.9,25.5,36.7,25.7z M48.9,24.9c-0.3-0.2-0.6-0.3-0.8-0.4c-0.2-0.1-0.5-0.2-0.7-0.3l0.5-1.4c0.3,0.1,0.5,0.2,0.8,0.3
			c0.3,0.1,0.6,0.3,0.9,0.5L48.9,24.9z M39.1,24.3L38.6,23c0.3-0.1,0.7-0.3,1-0.4L40,24C39.7,24.1,39.4,24.2,39.1,24.3z M45.6,23.7
			c-0.3-0.1-0.6-0.1-0.9-0.1l0.2-1.5c0.4,0,0.7,0.1,1.1,0.2L45.6,23.7z M41.8,23.6l-0.2-1.5c0.3-0.1,0.7-0.1,1.1-0.1l0.1,1.5
			C42.4,23.5,42.1,23.6,41.8,23.6z"/>
		<circle fill="#FF7058" cx="43.4" cy="34.8" r="9.6"/>
		<circle fill="#FFFFFF" cx="43.4" cy="34.8" r="4.8"/>
		<path fill="#231F20" d="M43.4,40.3c-0.8,0-1.5-0.2-2.3-0.5c-1.3-0.6-2.4-1.7-2.9-3.1c-0.5-1.4-0.5-2.9,0.1-4.2
			c0.9-2,2.9-3.3,5.1-3.3c0.8,0,1.5,0.2,2.3,0.5c1.3,0.6,2.4,1.7,2.9,3.1c0.5,1.4,0.5,2.9-0.1,4.2C47.6,39.1,45.6,40.3,43.4,40.3z
			 M43.4,30.8c-1.6,0-3,0.9-3.7,2.4c-0.4,1-0.5,2.1-0.1,3.1c0.4,1,1.1,1.8,2.1,2.2c0.5,0.2,1.1,0.4,1.7,0.4c1.6,0,3-0.9,3.7-2.4
			c0.4-1,0.5-2.1,0.1-3.1c-0.4-1-1.1-1.8-2.1-2.2C44.6,30.9,44,30.8,43.4,30.8z"/>
		<g>
			<path fill="#231F20" d="M98.3,18.5c-0.2,0-0.4-0.1-0.5-0.2c-0.3-0.3-0.3-0.8,0-1.1L99,16c0.3-0.3,0.8-0.3,1.1,0
				c0.3,0.3,0.3,0.8,0,1.1l-1.3,1.3C98.7,18.5,98.5,18.5,98.3,18.5z"/>
		</g>
		<g>
			<path fill="#231F20" d="M94.3,22.6c-0.2,0-0.4-0.1-0.5-0.2c-0.3-0.3-0.3-0.8,0-1.1L95,20c0.3-0.3,0.8-0.3,1.1,0s0.3,0.8,0,1.1
				l-1.3,1.3C94.6,22.5,94.4,22.6,94.3,22.6z"/>
		</g>
		<g>
			<path fill="#231F20" d="M99.6,22.6c-0.2,0-0.4-0.1-0.5-0.2L97.8,21c-0.3-0.3-0.3-0.8,0-1.1s0.8-0.3,1.1,0l1.3,1.3
				c0.3,0.3,0.3,0.8,0,1.1C100,22.5,99.8,22.6,99.6,22.6z"/>
		</g>
		<g>
			<path fill="#231F20" d="M95.5,18.5c-0.2,0-0.4-0.1-0.5-0.2L93.7,17c-0.3-0.3-0.3-0.8,0-1.1c0.3-0.3,0.8-0.3,1.1,0l1.3,1.3
				c0.3,0.3,0.3,0.8,0,1.1C95.9,18.5,95.7,18.5,95.5,18.5z"/>
		</g>
		<g>
			<path fill="#231F20" d="M10.6,63.8c-0.2,0-0.4-0.1-0.5-0.2c-0.3-0.3-0.3-0.8,0-1.1l1.3-1.3c0.3-0.3,0.8-0.3,1.1,0
				c0.3,0.3,0.3,0.8,0,1.1l-1.3,1.3C10.9,63.7,10.7,63.8,10.6,63.8z"/>
		</g>
		<g>
			<path fill="#231F20" d="M6.5,67.8c-0.2,0-0.4-0.1-0.5-0.2c-0.3-0.3-0.3-0.8,0-1.1l1.3-1.3C7.6,65,8,65,8.3,65.3
				c0.3,0.3,0.3,0.8,0,1.1l-1.3,1.3C6.9,67.8,6.7,67.8,6.5,67.8z"/>
		</g>
		<g>
			<path fill="#231F20" d="M11.8,67.8c-0.2,0-0.4-0.1-0.5-0.2L10,66.3c-0.3-0.3-0.3-0.8,0-1.1c0.3-0.3,0.8-0.3,1.1,0l1.3,1.3
				c0.3,0.3,0.3,0.8,0,1.1C12.2,67.8,12,67.8,11.8,67.8z"/>
		</g>
		<g>
			<path fill="#231F20" d="M7.8,63.8c-0.2,0-0.4-0.1-0.5-0.2L6,62.3c-0.3-0.3-0.3-0.8,0-1.1c0.3-0.3,0.8-0.3,1.1,0l1.3,1.3
				c0.3,0.3,0.3,0.8,0,1.1C8.2,63.7,8,63.8,7.8,63.8z"/>
		</g>
		<g>
			<path fill="#231F20" d="M78.6,107c-0.2,0-0.4-0.1-0.5-0.2c-0.3-0.3-0.3-0.8,0-1.1l1.3-1.3c0.3-0.3,0.8-0.3,1.1,0
				c0.3,0.3,0.3,0.8,0,1.1l-1.3,1.3C79,106.9,78.8,107,78.6,107z"/>
		</g>
		<g>
			<path fill="#231F20" d="M74.6,111c-0.2,0-0.4-0.1-0.5-0.2c-0.3-0.3-0.3-0.8,0-1.1l1.3-1.3c0.3-0.3,0.8-0.3,1.1,0
				c0.3,0.3,0.3,0.8,0,1.1l-1.3,1.3C75,110.9,74.8,111,74.6,111z"/>
		</g>
		<g>
			<path fill="#231F20" d="M79.9,111c-0.2,0-0.4-0.1-0.5-0.2l-1.3-1.3c-0.3-0.3-0.3-0.8,0-1.1c0.3-0.3,0.8-0.3,1.1,0l1.3,1.3
				c0.3,0.3,0.3,0.8,0,1.1C80.3,110.9,80.1,111,79.9,111z"/>
		</g>
		<g>
			<path fill="#231F20" d="M75.9,107c-0.2,0-0.4-0.1-0.5-0.2l-1.3-1.3c-0.3-0.3-0.3-0.8,0-1.1c0.3-0.3,0.8-0.3,1.1,0l1.3,1.3
				c0.3,0.3,0.3,0.8,0,1.1C76.3,106.9,76.1,107,75.9,107z"/>
		</g>
		<circle fill="#FF7058" cx="111.8" cy="6" r="2.4"/>
		<circle fill="#E6E9EE" cx="26.5" cy="13.1" r="2.8"/>
		<circle fill="#FF7058" cx="92.1" cy="109.6" r="2.4"/>
		<circle fill="#E6E9EE" cx="98.3" cy="51" r="2.4"/>
		<circle fill="#FFFFFF" cx="75.9" cy="12.5" r="3"/>
		<path fill="#231F20" d="M75.9,16.3c-2.1,0-3.8-1.7-3.8-3.8c0-2.1,1.7-3.8,3.8-3.8c2.1,0,3.8,1.7,3.8,3.8
			C79.7,14.6,78,16.3,75.9,16.3z M75.9,10.3c-1.3,0-2.3,1-2.3,2.3c0,1.3,1,2.3,2.3,2.3c1.3,0,2.3-1,2.3-2.3
			C78.2,11.3,77.2,10.3,75.9,10.3z"/>
		<circle fill="#FFFFFF" cx="114.2" cy="122.1" r="3"/>
		<path fill="#231F20" d="M114.2,125.9c-2.1,0-3.8-1.7-3.8-3.8c0-2.1,1.7-3.8,3.8-3.8c2.1,0,3.8,1.7,3.8,3.8
			C118,124.2,116.3,125.9,114.2,125.9z M114.2,119.8c-1.3,0-2.3,1-2.3,2.3c0,1.3,1,2.3,2.3,2.3c1.3,0,2.3-1,2.3-2.3
			C116.5,120.8,115.4,119.8,114.2,119.8z"/>
		<circle fill="#FFFFFF" cx="9.2" cy="39.5" r="3"/>
		<path fill="#231F20" d="M9.2,43.3c-2.1,0-3.8-1.7-3.8-3.8s1.7-3.8,3.8-3.8c2.1,0,3.8,1.7,3.8,3.8S11.3,43.3,9.2,43.3z M9.2,37.2
			c-1.3,0-2.3,1-2.3,2.3s1,2.3,2.3,2.3s2.3-1,2.3-2.3S10.4,37.2,9.2,37.2z"/>
	</g>
</g>
</svg>
