<?xml version="1.0" encoding="utf-8"?>
<!-- Generator: Adobe Illustrator 18.0.0, SVG Export Plug-In . SVG Version: 6.00 Build 0)  -->
<!DOCTYPE svg PUBLIC "-//W3C//DTD SVG 1.1//EN" "http://www.w3.org/Graphics/SVG/1.1/DTD/svg11.dtd">
<svg version="1.1" id="Layer_1" xmlns="http://www.w3.org/2000/svg" xmlns:xlink="http://www.w3.org/1999/xlink" x="0px" y="0px"
	 viewBox="0 0 129.5 129.5" enable-background="new 0 0 129.5 129.5" xml:space="preserve">
<g>
	<g>
		<path fill="#231F20" d="M109,9.9c-0.2,0-0.4-0.1-0.5-0.2c-0.3-0.3-0.3-0.8,0-1.1l1.3-1.3c0.3-0.3,0.8-0.3,1.1,0
			c0.3,0.3,0.3,0.8,0,1.1l-1.3,1.3C109.4,9.9,109.2,9.9,109,9.9z"/>
		<path fill="#231F20" d="M105,13.9c-0.2,0-0.4-0.1-0.5-0.2c-0.3-0.3-0.3-0.8,0-1.1l1.3-1.3c0.3-0.3,0.8-0.3,1.1,0
			c0.3,0.3,0.3,0.8,0,1.1l-1.3,1.3C105.4,13.9,105.2,13.9,105,13.9z"/>
		<path fill="#231F20" d="M110.3,13.9c-0.2,0-0.4-0.1-0.5-0.2l-1.3-1.3c-0.3-0.3-0.3-0.8,0-1.1c0.3-0.3,0.8-0.3,1.1,0l1.3,1.3
			c0.3,0.3,0.3,0.8,0,1.1C110.7,13.9,110.5,13.9,110.3,13.9z"/>
		<path fill="#231F20" d="M106.3,9.9c-0.2,0-0.4-0.1-0.5-0.2l-1.3-1.3c-0.3-0.3-0.3-0.8,0-1.1c0.3-0.3,0.8-0.3,1.1,0l1.3,1.3
			c0.3,0.3,0.3,0.8,0,1.1C106.7,9.9,106.5,9.9,106.3,9.9z"/>
		<path fill="#231F20" d="M48.4,120.2c-0.2,0-0.4-0.1-0.5-0.2c-0.3-0.3-0.3-0.8,0-1.1l1.3-1.3c0.3-0.3,0.8-0.3,1.1,0
			c0.3,0.3,0.3,0.8,0,1.1L49,120C48.8,120.2,48.6,120.2,48.4,120.2z"/>
		<path fill="#231F20" d="M44.4,124.3c-0.2,0-0.4-0.1-0.5-0.2c-0.3-0.3-0.3-0.8,0-1.1l1.3-1.3c0.3-0.3,0.8-0.3,1.1,0
			c0.3,0.3,0.3,0.8,0,1.1L45,124C44.8,124.2,44.6,124.3,44.4,124.3z"/>
		<path fill="#231F20" d="M49.7,124.3c-0.2,0-0.4-0.1-0.5-0.2l-1.3-1.3c-0.3-0.3-0.3-0.8,0-1.1c0.3-0.3,0.8-0.3,1.1,0l1.3,1.3
			c0.3,0.3,0.3,0.8,0,1.1C50.1,124.2,49.9,124.3,49.7,124.3z"/>
		<path fill="#231F20" d="M45.7,120.2c-0.2,0-0.4-0.1-0.5-0.2l-1.3-1.3c-0.3-0.3-0.3-0.8,0-1.1s0.8-0.3,1.1,0l1.3,1.3
			c0.3,0.3,0.3,0.8,0,1.1C46.1,120.2,45.9,120.2,45.7,120.2z"/>
		<path fill="#231F20" d="M127.2,78.3c-0.2,0-0.4-0.1-0.5-0.2c-0.3-0.3-0.3-0.8,0-1.1l1.3-1.3c0.3-0.3,0.8-0.3,1.1,0
			c0.3,0.3,0.3,0.8,0,1.1l-1.3,1.3C127.6,78.2,127.4,78.3,127.2,78.3z"/>
		<path fill="#231F20" d="M123.2,82.3c-0.2,0-0.4-0.1-0.5-0.2c-0.3-0.3-0.3-0.8,0-1.1l1.3-1.3c0.3-0.3,0.8-0.3,1.1,0
			c0.3,0.3,0.3,0.8,0,1.1l-1.3,1.3C123.6,82.2,123.4,82.3,123.2,82.3z"/>
		<path fill="#231F20" d="M128.5,82.3c-0.2,0-0.4-0.1-0.5-0.2l-1.3-1.3c-0.3-0.3-0.3-0.8,0-1.1c0.3-0.3,0.8-0.3,1.1,0L129,81
			c0.3,0.3,0.3,0.8,0,1.1C128.9,82.2,128.7,82.3,128.5,82.3z"/>
		<path fill="#231F20" d="M124.5,78.3c-0.2,0-0.4-0.1-0.5-0.2l-1.3-1.3c-0.3-0.3-0.3-0.8,0-1.1c0.3-0.3,0.8-0.3,1.1,0L125,77
			c0.3,0.3,0.3,0.8,0,1.1C124.8,78.2,124.7,78.3,124.5,78.3z"/>
		<circle fill="#84DBFF" cx="85" cy="12.4" r="2"/>
		<circle fill="#FF7058" cx="121.8" cy="28.3" r="2"/>
		<circle fill="#FFD05B" cx="7.4" cy="81.5" r="2"/>
		<circle fill="#E6E9EE" cx="68.7" cy="118.2" r="2"/>
		<path fill="#231F20" d="M61.3,11.3h-8.1c-0.4,0-0.8-0.3-0.8-0.8c0-0.4,0.3-0.8,0.8-0.8h8.1c0.4,0,0.8,0.3,0.8,0.8
			C62,11,61.7,11.3,61.3,11.3z"/>
		<path fill="#231F20" d="M64.4,14.2h-3.9c-0.4,0-0.8-0.3-0.8-0.8c0-0.4,0.3-0.8,0.8-0.8h3.9c0.4,0,0.8,0.3,0.8,0.8
			C65.2,13.9,64.8,14.2,64.4,14.2z"/>
		<path fill="#231F20" d="M68.7,11.3h-3.8c-0.4,0-0.8-0.3-0.8-0.8c0-0.4,0.3-0.8,0.8-0.8h3.8c0.4,0,0.8,0.3,0.8,0.8
			C69.4,11,69.1,11.3,68.7,11.3z"/>
		<path fill="#231F20" d="M57.6,14.2h-0.8c-0.4,0-0.8-0.3-0.8-0.8c0-0.4,0.3-0.8,0.8-0.8h0.8c0.4,0,0.8,0.3,0.8,0.8
			C58.4,13.9,58,14.2,57.6,14.2z"/>
		<path fill="#E6E9EE" d="M113,46.5V25.6c0-1.6-1.3-2.9-2.9-2.9H19.4c-1.6,0-2.9,1.3-2.9,2.9v20.9H113z"/>
		<path fill="#54C0EB" d="M113,25.6V34H45.8l-2.1-5.7H26.8L24.8,34h-8.3v-8.4c0-1.6,1.3-2.9,2.9-2.9h90.7
			C111.7,22.7,113,24,113,25.6z"/>
		<polygon fill="#CED5E0" points="66.9,34 45.8,34 47.9,28.3 64.8,28.3 		"/>
		<rect x="30.5" y="37" fill="#FFFFFF" width="65.9" height="6.8"/>
		<path fill="#324A5E" d="M32.7,38.7h0.4v1.4h0c0.1-0.1,0.2-0.2,0.3-0.3c0.1-0.1,0.3-0.1,0.4-0.1c0.3,0,0.8,0.2,0.8,0.9v1.3h-0.4
			v-1.3c0-0.4-0.1-0.6-0.5-0.6c-0.3,0-0.5,0.2-0.5,0.4c0,0.1,0,0.1,0,0.2v1.3h-0.4V38.7z"/>
		<path fill="#324A5E" d="M35.7,39.1v0.6h0.6V40h-0.6v1.2c0,0.3,0.1,0.4,0.3,0.4c0.1,0,0.2,0,0.2,0l0,0.3c-0.1,0-0.2,0.1-0.4,0.1
			c-0.2,0-0.3-0.1-0.4-0.2c-0.1-0.1-0.2-0.3-0.2-0.6V40h-0.3v-0.3h0.3v-0.5L35.7,39.1z"/>
		<path fill="#324A5E" d="M37.2,39.1v0.6h0.6V40h-0.6v1.2c0,0.3,0.1,0.4,0.3,0.4c0.1,0,0.2,0,0.2,0l0,0.3c-0.1,0-0.2,0.1-0.4,0.1
			c-0.2,0-0.3-0.1-0.4-0.2c-0.1-0.1-0.2-0.3-0.2-0.6V40h-0.3v-0.3h0.3v-0.5L37.2,39.1z"/>
		<path fill="#324A5E" d="M38.2,40.5c0-0.3,0-0.5,0-0.7h0.4l0,0.4h0c0.2-0.3,0.4-0.4,0.8-0.4c0.5,0,0.9,0.4,0.9,1.1
			c0,0.8-0.5,1.2-1,1.2c-0.3,0-0.5-0.1-0.7-0.3h0v1.2h-0.4V40.5z M38.6,41c0,0.1,0,0.1,0,0.2c0.1,0.3,0.3,0.5,0.6,0.5
			c0.4,0,0.7-0.3,0.7-0.8c0-0.4-0.2-0.8-0.6-0.8c-0.3,0-0.5,0.2-0.6,0.5c0,0,0,0.1,0,0.2V41z"/>
		<path fill="#324A5E" d="M40.6,40.1c0-0.2,0.1-0.3,0.3-0.3c0.2,0,0.3,0.1,0.3,0.3c0,0.2-0.1,0.3-0.3,0.3
			C40.7,40.4,40.6,40.3,40.6,40.1z M40.6,41.7c0-0.2,0.1-0.3,0.3-0.3c0.2,0,0.3,0.1,0.3,0.3c0,0.2-0.1,0.3-0.3,0.3
			C40.7,42,40.6,41.9,40.6,41.7z"/>
		<path fill="#324A5E" d="M41.3,42.1l1.3-3.3h0.3l-1.3,3.3H41.3z"/>
		<path fill="#324A5E" d="M42.9,42.1l1.3-3.3h0.3l-1.3,3.3H42.9z"/>
		<path fill="#324A5E" d="M45.8,39.7l0.3,1.1c0.1,0.2,0.1,0.5,0.2,0.7h0c0-0.2,0.1-0.5,0.2-0.7l0.4-1.1h0.3l0.3,1.1
			c0.1,0.3,0.1,0.5,0.2,0.7h0c0-0.2,0.1-0.5,0.2-0.7l0.3-1.1h0.4l-0.7,2.2h-0.4l-0.3-1c-0.1-0.2-0.1-0.5-0.2-0.7h0
			c-0.1,0.3-0.1,0.5-0.2,0.7l-0.4,1h-0.4l-0.7-2.2H45.8z"/>
		<path fill="#324A5E" d="M49.2,39.7l0.3,1.1c0.1,0.2,0.1,0.5,0.2,0.7h0c0-0.2,0.1-0.5,0.2-0.7l0.4-1.1h0.3l0.3,1.1
			c0.1,0.3,0.1,0.5,0.2,0.7h0c0-0.2,0.1-0.5,0.2-0.7l0.3-1.1H52l-0.7,2.2h-0.4l-0.3-1c-0.1-0.2-0.1-0.5-0.2-0.7h0
			c-0.1,0.3-0.1,0.5-0.2,0.7l-0.4,1h-0.4l-0.7-2.2H49.2z"/>
		<path fill="#324A5E" d="M52.6,39.7l0.3,1.1c0.1,0.2,0.1,0.5,0.2,0.7h0c0-0.2,0.1-0.5,0.2-0.7l0.4-1.1h0.3l0.3,1.1
			c0.1,0.3,0.1,0.5,0.2,0.7h0c0-0.2,0.1-0.5,0.2-0.7l0.3-1.1h0.4l-0.7,2.2h-0.4l-0.3-1c-0.1-0.2-0.1-0.5-0.2-0.7h0
			c-0.1,0.3-0.1,0.5-0.2,0.7l-0.4,1h-0.4l-0.7-2.2H52.6z"/>
		<path fill="#324A5E" d="M55.4,41.7c0-0.2,0.1-0.3,0.3-0.3c0.2,0,0.3,0.1,0.3,0.3c0,0.2-0.1,0.3-0.3,0.3
			C55.6,42,55.4,41.9,55.4,41.7z"/>
		<circle fill="#FFFFFF" cx="105.1" cy="28.3" r="2.7"/>
		<circle fill="#FFFFFF" cx="96.4" cy="28.3" r="2.7"/>
		<circle fill="#FFFFFF" cx="87.7" cy="28.3" r="2.7"/>
		<rect x="21.8" y="51.4" fill="#84DBFF" width="85.9" height="38.7"/>
		<path fill="#FFFFFF" d="M64.7,56.9L64.7,56.9c-7.6,0-13.8,6.2-13.8,13.8c0,7.6,6.2,13.8,13.8,13.8h0c7.6,0,13.8-6.2,13.8-13.8
			C78.5,63.1,72.3,56.9,64.7,56.9z"/>
		<path fill="#231F20" d="M64.7,85.3c-8,0-14.6-6.5-14.6-14.6c0-8,6.5-14.6,14.6-14.6s14.6,6.5,14.6,14.6
			C79.3,78.8,72.8,85.3,64.7,85.3z M64.7,57.7c-7.2,0-13.1,5.9-13.1,13.1s5.9,13.1,13.1,13.1s13.1-5.9,13.1-13.1
			S71.9,57.7,64.7,57.7z"/>
		<polygon fill="#FFFFFF" points="60.9,63.6 60.9,77.9 71.4,70.7 		"/>
		<path fill="#231F20" d="M60.9,78.6c-0.1,0-0.2,0-0.3-0.1c-0.2-0.1-0.4-0.4-0.4-0.7V63.6c0-0.3,0.2-0.5,0.4-0.7
			c0.2-0.1,0.5-0.1,0.8,0l10.5,7.2c0.2,0.1,0.3,0.4,0.3,0.6c0,0.2-0.1,0.5-0.3,0.6l-10.5,7.2C61.2,78.6,61.1,78.6,60.9,78.6z
			 M61.7,65v11.5l8.4-5.7L61.7,65z"/>
		<path fill="#FFFFFF" d="M37.7,27c1.3-3.4,1.6-7.1,0.7-10.9C36.1,5.8,25.9-0.6,15.6,1.7C5.4,4-1.1,14.3,1.2,24.5
			C3.5,34.8,13.8,41.3,24,38.9c3.8-0.8,7-2.8,9.5-5.3l9.1,1.1L37.7,27z"/>
		<path fill="#FF7058" d="M19.9,31.2c2.4-1.1,10.3-5.2,10.3-13.7c0-2.8-2.3-5.1-5.1-5.1c-1.4,0-2.8,0.6-3.8,1.7l-1.4,1.6l-1.4-1.6
			c-1-1.1-2.4-1.7-3.8-1.7c-2.8,0-5.1,2.3-5.1,5.1C9.6,25.9,17.6,30.1,19.9,31.2z"/>
		<rect x="30.5" y="93.7" fill="#231F20" width="1.5" height="6.1"/>
		<path fill="#FFFFFF" d="M83.5,96.8c-1.5,4.1-1.9,8.7-0.9,13.3c2.8,12.6,15.3,20.5,27.9,17.6c12.6-2.8,20.5-15.3,17.6-27.9
			s-15.3-20.5-27.9-17.6c-4.6,1-8.6,3.4-11.6,6.5l-11.2-1.4L83.5,96.8z"/>
		<path fill="#231F20" d="M128.9,99.6c-1.9-8.2-7.7-14.6-15.2-17.3V25.6c0-2-1.6-3.7-3.7-3.7H39.6c0.2-2,0-4-0.4-6
			c-2.1-9.1-10-15.5-19.3-15.5c-1.5,0-2.9,0.2-4.4,0.5C10.3,2.2,5.9,5.3,3.1,9.7c-2.8,4.5-3.7,9.8-2.6,15c1.7,7.7,7.7,13.4,15.2,15
			v62.9c0,2,1.6,3.7,3.7,3.7h62c0.1,1.3,0.2,2.6,0.5,3.9C84.4,121.3,94,129,105.4,129h0c1.8,0,3.6-0.2,5.3-0.6
			c6.3-1.4,11.6-5.2,15.1-10.6C129.2,112.3,130.3,105.9,128.9,99.6z M2,24.4c-1.1-4.8-0.2-9.7,2.4-13.8c2.6-4.1,6.7-7,11.5-8.1
			C17.1,2.1,18.5,2,19.9,2c8.5,0,16,6,17.9,14.3c0.8,3.5,0.5,7.1-0.7,10.4c-0.1,0.2-0.1,0.5,0.1,0.7l4.1,6.4l-7.5-0.9
			c-0.2,0-0.5,0.1-0.6,0.2c-2.5,2.6-5.6,4.3-9.1,5.1c-1.3,0.3-2.7,0.5-4.1,0.5C11.3,38.7,3.8,32.7,2,24.4z M81.3,104.8h-62
			c-1.2,0-2.2-1-2.2-2.2V40c0.9,0.1,1.7,0.2,2.6,0.2c1.5,0,2.9-0.2,4.4-0.5c3.6-0.8,7-2.6,9.6-5.3l8.8,1.1c0.3,0,0.6-0.1,0.7-0.3
			c0.2-0.2,0.2-0.6,0-0.8l-4.7-7.4c0.4-1.1,0.7-2.3,0.9-3.5h70.7c1.2,0,2.2,1,2.2,2.2v56.2c-2.2-0.6-4.5-1-6.8-1
			c-1.8,0-3.6,0.2-5.3,0.6c-4.5,1-8.5,3.2-11.7,6.5l-10.8-1.3c-0.3,0-0.6,0.1-0.7,0.3c-0.2,0.2-0.2,0.6,0,0.8l5.3,8.3H21.8v1.5h60.7
			C81.7,99.8,81.3,102.3,81.3,104.8z M124.5,117c-3.2,5.1-8.2,8.6-14.1,10c-1.6,0.4-3.3,0.6-5,0.6h0c-10.5,0-19.7-7.4-22-17.6
			c-1-4.3-0.7-8.7,0.9-12.9c0.1-0.2,0.1-0.5-0.1-0.7L79,88.2l9.6,1.2c0.2,0,0.5-0.1,0.6-0.2c3.1-3.2,6.9-5.3,11.2-6.3
			c1.6-0.4,3.3-0.6,5-0.6c10.5,0,19.7,7.4,22,17.6C128.8,105.8,127.7,111.9,124.5,117z"/>
		<line fill="#FFFFFF" x1="92.1" y1="98.1" x2="119" y2="98.1"/>
		<rect x="92.1" y="97.4" fill="#231F20" width="27" height="1.5"/>
		<line fill="#FFFFFF" x1="92.1" y1="102.7" x2="119" y2="102.7"/>
		<rect x="92.1" y="102" fill="#231F20" width="27" height="1.5"/>
		<line fill="#FFFFFF" x1="92.1" y1="107.3" x2="119" y2="107.3"/>
		<rect x="92.1" y="106.6" fill="#231F20" width="27" height="1.5"/>
		<line fill="#FFFFFF" x1="92.1" y1="111.9" x2="107.5" y2="111.9"/>
		<rect x="92.1" y="111.2" fill="#231F20" width="15.5" height="1.5"/>
		<circle fill="#84DBFF" cx="15" cy="114.2" r="14"/>
		<g>
			<path fill="#FFFFFF" d="M6.3,117.5c1.3,3.5,4.7,6,8.7,6s7.3-2.5,8.7-6H6.3z"/>
			<path fill="#231F20" d="M15,124.3c-4.1,0-7.9-2.6-9.4-6.5c-0.1-0.2-0.1-0.5,0.1-0.7c0.1-0.2,0.4-0.3,0.6-0.3h17.3
				c0.2,0,0.5,0.1,0.6,0.3c0.1,0.2,0.2,0.5,0.1,0.7C22.9,121.6,19.1,124.3,15,124.3z M7.5,118.2c1.5,2.7,4.4,4.5,7.5,4.5
				c3.2,0,6-1.8,7.5-4.5H7.5z"/>
		</g>
		<g>
			<circle fill="#FFFFFF" cx="20.5" cy="110.7" r="2.1"/>
			<path fill="#231F20" d="M20.5,113.6c-1.6,0-2.9-1.3-2.9-2.9c0-1.6,1.3-2.9,2.9-2.9c1.6,0,2.9,1.3,2.9,2.9
				C23.4,112.3,22.1,113.6,20.5,113.6z M20.5,109.4c-0.8,0-1.4,0.6-1.4,1.4c0,0.8,0.6,1.4,1.4,1.4s1.4-0.6,1.4-1.4
				C21.9,110,21.2,109.4,20.5,109.4z"/>
		</g>
		<g>
			<circle fill="#FFFFFF" cx="9.5" cy="110.7" r="2.1"/>
			<path fill="#231F20" d="M9.5,113.6c-1.6,0-2.9-1.3-2.9-2.9c0-1.6,1.3-2.9,2.9-2.9c1.6,0,2.9,1.3,2.9,2.9
				C12.4,112.3,11.1,113.6,9.5,113.6z M9.5,109.4c-0.8,0-1.4,0.6-1.4,1.4c0,0.8,0.6,1.4,1.4,1.4s1.4-0.6,1.4-1.4
				C10.9,110,10.3,109.4,9.5,109.4z"/>
		</g>
	</g>
</g>
</svg>
