<?xml version="1.0" encoding="UTF-8" standalone="no"?>
<!-- Generator: Adobe Illustrator 15.0.2, SVG Export Plug-In . SVG Version: 6.00 Build 0)  -->

<svg
   xmlns:dc="http://purl.org/dc/elements/1.1/"
   xmlns:cc="http://creativecommons.org/ns#"
   xmlns:rdf="http://www.w3.org/1999/02/22-rdf-syntax-ns#"
   xmlns:svg="http://www.w3.org/2000/svg"
   xmlns="http://www.w3.org/2000/svg"
   xmlns:xlink="http://www.w3.org/1999/xlink"
   xmlns:sodipodi="http://sodipodi.sourceforge.net/DTD/sodipodi-0.dtd"
   xmlns:inkscape="http://www.inkscape.org/namespaces/inkscape"
   version="1.1"
   id="layer_1"
   x="0px"
   y="0px"
   width="700"
   height="250"
   viewBox="0 0 700 250"
   enable-background="new 0 0 800 800"
   xml:space="preserve"
   sodipodi:docname="Startup.svg"
   inkscape:version="0.92.3 (2405546, 2018-03-11)"><metadata
   id="metadata2122"><rdf:RDF><cc:Work
       rdf:about=""><dc:format>image/svg+xml</dc:format><dc:type
         rdf:resource="http://purl.org/dc/dcmitype/StillImage" /><dc:title></dc:title></cc:Work></rdf:RDF></metadata><defs
   id="defs2120">
	<defs
   id="defs3">
		<polygon
   points="800,800 800,400 800,0 0.378,0 0.378,400 0,400 0,800 "
   id="SVGID_1_" />
	</defs>
	<clipPath
   id="SVGID_2_">
		<use
   height="100%"
   width="100%"
   y="0"
   x="0"
   style="overflow:visible"
   id="use5"
   overflow="visible"
   xlink:href="#SVGID_1_" />
	</clipPath>
	
	
	
	
</defs><sodipodi:namedview
   pagecolor="#ffffff"
   bordercolor="#666666"
   borderopacity="1"
   objecttolerance="10"
   gridtolerance="10"
   guidetolerance="10"
   inkscape:pageopacity="0"
   inkscape:pageshadow="2"
   inkscape:window-width="1920"
   inkscape:window-height="1001"
   id="namedview2118"
   showgrid="false"
   inkscape:zoom="0.70710678"
   inkscape:cx="537.00941"
   inkscape:cy="-115.94237"
   inkscape:window-x="-9"
   inkscape:window-y="-9"
   inkscape:window-maximized="1"
   inkscape:current-layer="layer_1"
   inkscape:pagecheckerboard="false" />
<g
   id="g1066"
   clip-path="url(#SVGID_2_)"
   transform="matrix(1.0009738,0,0,1.0013919,-50.350997,-114.15269)">
		<g
   id="g73">
			<path
   style="fill:#ffffff"
   inkscape:connector-curvature="0"
   id="path71"
   d="m 107.25,244.658 c 2.406,0 4.637,0.711 6.479,1.982 1.25,-1.42 2.968,-2.428 4.918,-2.752 -0.081,-0.547 -0.123,-1.111 -0.123,-1.681 0,-6.307 5.113,-11.426 11.421,-11.426 6.307,0 11.423,5.112 11.423,11.419 0,0.932 -0.115,1.834 -0.325,2.698 0.845,-0.198 1.728,-0.241 2.634,-0.241 6.308,0 11.421,5.245 11.421,11.486 H 95.826 c 0,-6.24 5.113,-11.485 11.424,-11.485 z" />
		</g>
		<g
   id="g121">
			<g
   id="g91">
				<g
   id="g81">
					<g
   id="g77">
						<path
   style="fill:#ea572e"
   inkscape:connector-curvature="0"
   id="path75"
   d="m 101.301,259.521 c 2.414,0 4.37,2.043 4.37,4.564 0,0.226 -0.016,0.447 -0.046,0.664 0.801,-1.021 2.018,-1.672 3.38,-1.672 2.414,0 4.37,2.043 4.37,4.563 0,0.832 -0.214,1.611 -0.587,2.283 0.611,-0.338 1.307,-0.531 2.047,-0.531 2.413,0 4.37,2.043 4.37,4.563 0,1.452 -0.65,2.744 -1.662,3.58 0.227,-0.038 0.46,-0.059 0.698,-0.059 2.414,0 4.37,2.043 4.37,4.563 0,1.802 -1,3.359 -2.452,4.101 1.452,0.741 2.452,2.3 2.452,4.101 0,2.521 -1.956,4.563 -4.37,4.563 -0.154,0 -0.307,-0.009 -0.458,-0.024 0.874,0.834 1.421,2.033 1.421,3.367 0,2.521 -1.957,4.563 -4.37,4.563 -0.701,0 -1.363,-0.174 -1.951,-0.48 0.313,0.629 0.491,1.343 0.491,2.101 0,2.521 -1.956,4.564 -4.37,4.564 -1.339,0 -2.537,-0.631 -3.338,-1.621 -0.087,2.439 -2.007,4.391 -4.365,4.391 -2.251,0 -4.104,-1.779 -4.342,-4.063 l -0.027,-0.008 v -43.509 c 0,-2.521 1.956,-4.564 4.369,-4.564 z" />
					</g>
					<path
   style="fill:#111111"
   inkscape:connector-curvature="0"
   id="path79"
   d="m 120.936,286.238 c 1.799,-1.334 2.502,-3.703 1.782,-5.868 -0.623,-1.88 -2.306,-3.081 -4.181,-3.239 1.313,-1.726 1.428,-4.121 0.23,-6.009 -1.133,-1.794 -3.277,-2.489 -5.221,-1.96 0.597,-2.025 0.013,-4.246 -1.726,-5.605 -1.739,-1.359 -4.096,-1.18 -5.736,0.115 -0.209,-2.488 -2.101,-4.577 -4.756,-4.649 -2.817,0.077 -4.791,2.429 -4.791,5.174 v 40.155 c -0.038,0.09 -0.034,0.176 0,0.248 v 3.222 c 0,0.077 0.021,0.149 0.056,0.213 0.409,2.472 2.37,4.382 4.969,4.309 2.263,-0.063 3.938,-1.854 4.419,-3.934 1.628,1.364 3.942,1.534 5.754,0.265 1.786,-1.258 2.374,-3.517 1.85,-5.537 1.867,0.495 3.887,-0.119 5.055,-1.781 1.287,-1.828 1.257,-4.215 0.034,-6.005 1.85,-0.196 3.354,-1.466 4.045,-3.247 0.816,-2.116 -0.028,-4.544 -1.783,-5.867 z m -2.8,14.308 c -1.002,1.769 -3.218,2.37 -5.017,1.513 -0.545,-0.473 -0.959,-1.095 -1.27,-1.738 -0.865,-1.79 -0.183,-3.678 0.938,-5.174 0.336,-0.447 -0.418,-0.879 -0.75,-0.439 -0.503,0.67 -0.895,1.39 -1.146,2.145 -1.82,-1.526 -4.369,-1.927 -6.376,-0.457 -0.452,0.328 -0.017,1.083 0.439,0.75 1.845,-1.351 4.138,-0.877 5.707,0.67 -0.119,0.826 -0.055,1.675 0.26,2.531 0.319,0.865 0.891,1.734 1.602,2.34 0.81,1.815 0.358,3.869 -1.142,5.17 -1.654,1.428 -4.066,0.898 -5.391,-0.665 -0.064,-0.073 -0.141,-0.115 -0.217,-0.128 -0.609,-2.109 -0.277,-4.505 1.739,-5.74 0.477,-0.291 0.042,-1.045 -0.439,-0.75 -2.57,1.572 -2.958,4.803 -1.888,7.437 -0.315,1.824 -1.7,3.303 -3.623,3.465 -2.144,0.179 -3.87,-1.624 -4.13,-3.644 -0.004,-0.043 -0.013,-0.086 -0.025,-0.124 v -3.077 c 0.085,-0.098 0.213,-0.252 0.251,-0.289 0.294,-0.313 0.622,-0.589 0.972,-0.836 1.048,-0.746 2.276,-1.023 3.524,-0.66 0.537,0.157 0.767,-0.683 0.23,-0.84 -0.635,-0.184 -1.274,-0.222 -1.893,-0.141 0.486,-1.049 1.385,-1.922 2.498,-2.238 0.537,-0.152 0.311,-0.992 -0.23,-0.839 -1.573,0.447 -2.8,1.776 -3.294,3.324 -0.754,0.265 -1.458,0.698 -2.059,1.253 v -13.378 c 2.485,1.104 5.468,0.958 7.876,-0.243 0.503,-0.252 0.06,-1.002 -0.439,-0.75 -0.904,0.447 -1.905,0.729 -2.928,0.835 0.597,-1.185 0.341,-2.714 -0.175,-3.891 -0.222,-0.512 -0.972,-0.068 -0.75,0.438 0.464,1.057 0.686,2.553 -0.154,3.49 -1.193,-0.025 -2.378,-0.298 -3.431,-0.839 v -10.028 c 2.088,-1.296 4.76,-0.388 6.525,1.057 0.431,0.354 1.048,-0.26 0.614,-0.613 -0.699,-0.576 -1.526,-1.074 -2.404,-1.424 0.601,-0.775 0.661,-1.875 0.367,-2.813 -0.167,-0.537 -1.006,-0.307 -0.835,0.23 0.192,0.613 0.239,1.23 -0.072,1.814 -0.081,0.154 -0.265,0.363 -0.379,0.469 -1.274,-0.332 -2.613,-0.311 -3.814,0.281 v -13.267 c 0,-2.152 0.835,-4.181 3.132,-4.761 0.256,-0.064 0.524,-0.076 0.789,-0.081 2.579,0.068 4.13,2.392 3.878,4.825 -0.039,0.584 -0.324,1.338 -0.656,1.904 -0.925,1.572 -2.711,2.109 -4.441,2.136 -0.563,0.009 -0.563,0.878 0,0.869 2.851,-0.038 5.655,-1.696 5.95,-4.727 1.317,-1.483 3.341,-1.866 5.054,-0.784 1.833,1.15 2.229,3.648 1.338,5.498 -1.228,0.699 -2.024,1.785 -2.382,3.018 -1.236,-0.166 -2.485,-0.895 -2.826,-2.161 -0.145,-0.541 -0.984,-0.312 -0.839,0.23 0.43,1.599 1.917,2.531 3.486,2.778 -0.119,0.951 0,1.952 0.371,2.902 0.2,0.52 1.04,0.295 0.839,-0.23 -0.861,-2.207 -0.273,-4.68 1.905,-5.855 1.884,-0.98 4.015,-0.311 5.131,1.453 1.116,1.761 0.639,4.074 -0.835,5.447 -0.874,0.252 -1.701,0.788 -2.314,1.445 -0.469,0.502 -0.758,1.068 -0.912,1.666 -1.901,-0.342 -3.614,0.563 -4.548,2.16 -0.409,-0.639 -0.95,-1.21 -1.649,-1.684 -0.469,-0.314 -0.903,0.439 -0.439,0.755 0.614,0.413 1.24,1.287 1.641,2.079 0.013,0.064 0.038,0.12 0.077,0.167 0.013,0.021 0.025,0.047 0.039,0.072 0.583,1.292 0.673,2.693 0.477,4.074 -0.008,0.034 -0.017,0.073 -0.017,0.115 -0.217,1.402 -0.72,2.778 -1.308,4.007 -0.239,0.502 0.511,0.945 0.754,0.438 0.341,-0.716 0.652,-1.521 0.899,-2.365 1.032,3.077 4.207,4.935 7.526,5.237 h 0.047 c 1.303,1.44 1.525,3.49 0.562,5.186 z m -0.371,-6.052 c -0.055,-0.004 -0.102,0 -0.149,0.018 -0.03,-0.009 -0.06,-0.014 -0.09,-0.018 -1.057,-0.098 -2.339,-0.49 -3.367,-0.98 -2.212,-1.053 -3.601,-2.971 -3.635,-5.455 0,-0.072 -0.021,-0.141 -0.047,-0.191 0.191,-1.539 0.098,-3.09 -0.46,-4.445 0.656,-1.619 2.195,-2.578 3.93,-2.255 -0.047,1.036 0.234,2.114 0.652,3.09 0.217,0.517 0.967,0.073 0.75,-0.438 -0.686,-1.607 -0.886,-3.422 0.431,-4.748 0.494,-0.498 1.181,-0.895 1.862,-1.07 1.973,-0.281 3.699,0.977 4.309,2.818 0.626,1.883 -0.226,3.945 -1.884,4.947 -2.677,-0.707 -5.145,0.797 -6.137,3.32 -0.205,0.524 0.635,0.746 0.839,0.23 0.84,-2.131 2.954,-3.32 5.191,-2.677 3.712,2.109 2.246,8.221 -2.195,7.854 z" />
				</g>
				<g
   id="g89">
					<g
   id="g85">
						<path
   style="fill:#ea572e"
   inkscape:connector-curvature="0"
   id="path83"
   d="m 90.228,259.521 c -2.414,0 -4.37,2.043 -4.37,4.564 0,0.226 0.016,0.447 0.047,0.664 -0.801,-1.021 -2.018,-1.672 -3.381,-1.672 -2.414,0 -4.37,2.043 -4.37,4.563 0,0.832 0.214,1.611 0.587,2.283 -0.611,-0.338 -1.307,-0.531 -2.047,-0.531 -2.413,0 -4.37,2.043 -4.37,4.563 0,1.452 0.65,2.744 1.662,3.58 -0.228,-0.038 -0.46,-0.059 -0.698,-0.059 -2.413,0 -4.37,2.043 -4.37,4.563 0,1.802 1,3.359 2.452,4.101 -1.452,0.741 -2.452,2.3 -2.452,4.101 0,2.521 1.957,4.563 4.37,4.563 0.154,0 0.307,-0.009 0.458,-0.024 -0.874,0.834 -1.421,2.033 -1.421,3.367 0,2.521 1.957,4.563 4.37,4.563 0.701,0 1.364,-0.174 1.951,-0.48 -0.313,0.629 -0.491,1.343 -0.491,2.101 0,2.521 1.956,4.564 4.37,4.564 1.339,0 2.537,-0.631 3.338,-1.621 0.087,2.439 2.007,4.391 4.365,4.391 2.251,0 4.104,-1.779 4.343,-4.063 l 0.026,-0.008 v -43.509 c 0,-2.521 -1.956,-4.564 -4.369,-4.564 z" />
					</g>
					<path
   style="fill:#111111"
   inkscape:connector-curvature="0"
   id="path87"
   d="m 95.119,268.869 c 0,-2.952 0.648,-6.836 -1.982,-8.889 -0.81,-0.632 -1.793,-0.932 -2.812,-0.96 -2.652,0.073 -4.544,2.162 -4.756,4.649 -1.617,-1.286 -3.874,-1.427 -5.65,-0.18 -1.83,1.285 -2.406,3.619 -1.813,5.667 -1.964,-0.547 -3.993,0.216 -5.221,1.964 -1.276,1.814 -1.051,4.296 0.235,6.006 -1.894,0.15 -3.464,1.38 -4.185,3.242 -0.82,2.116 0.024,4.552 1.785,5.869 -1.737,1.289 -2.45,3.523 -1.858,5.646 0.53,1.902 2.219,3.253 4.121,3.463 -1.183,1.727 -1.253,4.002 -0.098,5.826 1.129,1.785 3.242,2.471 5.181,1.965 -0.526,1.995 0.066,4.141 1.765,5.465 1.774,1.385 4.188,1.178 5.835,-0.191 0.479,2.117 2.151,3.742 4.425,3.932 2.583,0.216 4.568,-1.932 4.969,-4.311 0.037,-0.063 0.058,-0.135 0.058,-0.213 0,-1.074 0,-2.147 0,-3.222 0.031,-0.074 0.034,-0.157 0,-0.245 0,-6.776 0,-13.553 0,-20.328 0.001,-5.051 0.001,-10.103 0.001,-15.155 z m -23.425,17.772 c 2.236,-0.645 4.352,0.545 5.191,2.677 0.203,0.517 1.045,0.292 0.839,-0.231 -0.994,-2.522 -3.461,-4.029 -6.139,-3.318 -1.708,-1.032 -2.418,-3.025 -1.883,-4.947 0.52,-1.865 2.407,-3.092 4.311,-2.822 0.651,0.171 1.271,0.539 1.769,0.983 1.434,1.278 1.212,3.223 0.523,4.839 -0.217,0.51 0.532,0.953 0.751,0.439 0.431,-1.011 0.699,-2.068 0.638,-3.09 1.741,-0.331 3.283,0.629 3.939,2.253 -0.555,1.353 -0.649,2.905 -0.458,4.442 -0.028,0.055 -0.045,0.119 -0.046,0.194 -0.036,2.513 -1.434,4.364 -3.636,5.456 -1.014,0.502 -2.317,0.883 -3.366,0.979 -0.032,0.002 -0.062,0.009 -0.09,0.017 -0.045,-0.015 -0.095,-0.021 -0.15,-0.017 -4.441,0.366 -5.905,-5.748 -2.193,-7.854 z m 18.398,24.834 c -1.915,-0.054 -3.304,-1.688 -3.623,-3.462 1.069,-2.637 0.684,-5.868 -1.889,-7.441 -0.48,-0.293 -0.917,0.459 -0.439,0.751 2.018,1.233 2.35,3.63 1.738,5.74 -0.077,0.014 -0.152,0.055 -0.215,0.129 -1.318,1.552 -3.383,1.951 -5.125,0.855 -1.772,-1.114 -2.22,-3.535 -1.406,-5.361 0.721,-0.615 1.246,-1.473 1.598,-2.339 0.342,-0.842 0.406,-1.704 0.273,-2.543 1.571,-1.538 3.853,-2.005 5.697,-0.657 0.454,0.332 0.887,-0.424 0.439,-0.751 -2.009,-1.469 -4.556,-1.071 -6.375,0.452 -0.258,-0.763 -0.661,-1.488 -1.148,-2.139 -0.333,-0.443 -1.089,-0.01 -0.751,0.439 1.151,1.532 1.753,3.341 0.94,5.17 -0.287,0.646 -0.732,1.273 -1.272,1.74 -1.783,0.852 -3.771,0.275 -4.896,-1.324 -1.162,-1.652 -0.872,-3.918 0.445,-5.371 0.016,0 0.03,0.002 0.047,0 3.319,-0.302 6.496,-2.159 7.525,-5.236 0.248,0.844 0.559,1.646 0.9,2.365 0.242,0.506 0.992,0.064 0.751,-0.439 -1.199,-2.514 -1.99,-5.514 -0.845,-8.195 0.01,-0.023 0.021,-0.047 0.032,-0.07 0.045,-0.051 0.076,-0.113 0.086,-0.186 0.389,-0.793 1.035,-1.659 1.637,-2.065 0.462,-0.312 0.028,-1.066 -0.439,-0.751 -0.701,0.473 -1.242,1.044 -1.649,1.683 -0.937,-1.603 -2.657,-2.511 -4.568,-2.159 -0.145,-0.547 -0.402,-1.074 -0.804,-1.57 -0.585,-0.718 -1.501,-1.285 -2.4,-1.545 -1.529,-1.414 -1.87,-3.622 -0.838,-5.443 1.029,-1.816 3.321,-2.396 5.134,-1.453 2.174,1.175 2.764,3.645 1.905,5.855 -0.204,0.523 0.638,0.748 0.839,0.23 0.37,-0.951 0.491,-1.953 0.369,-2.906 1.567,-0.242 3.057,-1.18 3.485,-2.777 0.146,-0.543 -0.694,-0.772 -0.839,-0.231 -0.34,1.268 -1.59,1.995 -2.823,2.163 -0.36,-1.232 -1.159,-2.319 -2.383,-3.02 -0.891,-1.84 -0.483,-3.961 1.069,-5.303 1.629,-1.407 3.98,-0.914 5.322,0.586 0.289,3.031 3.095,4.691 5.95,4.732 0.562,0.008 0.561,-0.862 0,-0.87 -1.769,-0.024 -3.466,-0.575 -4.441,-2.134 -0.345,-0.552 -0.619,-1.331 -0.654,-1.907 -0.255,-2.435 1.299,-4.755 3.876,-4.825 2.275,0.063 3.868,1.943 3.923,4.156 0.004,0.183 0,0.365 0,0.549 0,1.313 0,2.625 0,3.938 0,3.154 0,6.311 0,9.466 -1.203,-0.591 -2.54,-0.612 -3.816,-0.282 -0.096,-0.092 -0.25,-0.26 -0.33,-0.383 -0.378,-0.578 -0.317,-1.268 -0.12,-1.899 0.167,-0.537 -0.672,-0.765 -0.839,-0.231 -0.293,0.941 -0.23,2.041 0.37,2.815 -0.88,0.349 -1.705,0.848 -2.405,1.421 -0.434,0.356 0.185,0.969 0.615,0.615 1.761,-1.443 4.434,-2.352 6.525,-1.059 0,1.503 0,3.006 0,4.51 0,1.84 0,3.679 0,5.519 -1.056,0.541 -2.239,0.815 -3.431,0.843 -0.841,-0.939 -0.618,-2.436 -0.156,-3.49 0.223,-0.51 -0.526,-0.953 -0.751,-0.439 -0.515,1.176 -0.77,2.705 -0.172,3.889 -1.023,-0.104 -2.025,-0.385 -2.928,-0.836 -0.5,-0.249 -0.941,0.501 -0.439,0.752 2.405,1.201 5.392,1.348 7.877,0.244 0,4.459 0,8.917 0,13.375 -0.604,-0.552 -1.305,-0.987 -2.059,-1.252 -0.493,-1.547 -1.724,-2.877 -3.294,-3.322 -0.541,-0.153 -0.771,0.687 -0.231,0.84 1.114,0.316 2.012,1.186 2.498,2.234 -0.618,-0.08 -1.257,-0.042 -1.893,0.144 -0.538,0.156 -0.309,0.996 0.231,0.839 1.276,-0.371 2.443,-0.063 3.525,0.66 0.354,0.238 0.671,0.531 0.969,0.834 0.04,0.041 0.169,0.191 0.254,0.289 0,1.025 0,2.053 0,3.079 -0.012,0.038 -0.021,0.079 -0.027,0.122 -0.274,2.108 -1.977,3.701 -4.131,3.643 z" />
				</g>
			</g>
			<g
   id="g95">
				<rect
   style="fill:#7c7e82"
   id="rect93"
   height="16.014999"
   width="25.632999"
   y="345.63901"
   x="82.851997" />
			</g>
			<path
   style="fill:#f3a52d"
   inkscape:connector-curvature="0"
   id="path97"
   d="m 65.158,286.879 c -3.385,5.467 -5.349,11.9 -5.349,18.794 0,15.539 9.988,28.772 23.54,33.792 v 5.557 h 24.639 v -5.48 c 13.551,-4.957 23.855,-18.246 23.855,-33.868 0,-6.894 -1.951,-13.327 -5.319,-18.794 H 65.158 Z" />
			<g
   id="g101">
				<path
   style="fill:#111111"
   inkscape:connector-curvature="0"
   id="path99"
   d="M 108.988,346.021 H 82.349 v -5.868 c -2.225,-0.874 -4.377,-1.975 -6.405,-3.278 l 1.081,-1.682 c 2.105,1.352 4.35,2.474 6.671,3.334 l 0.653,0.242 v 5.252 h 22.639 v -5.18 l 0.656,-0.24 c 13.876,-5.076 23.199,-18.309 23.199,-32.93 0,-6.275 -1.687,-12.415 -4.883,-17.793 H 65.72 c -3.214,5.381 -4.911,11.521 -4.911,17.793 0,1.935 0.166,3.895 0.494,5.828 l -1.972,0.334 c -0.346,-2.043 -0.522,-4.115 -0.522,-6.162 0,-6.829 1.901,-13.51 5.499,-19.32 l 0.293,-0.473 h 62.482 l 0.293,0.475 c 3.577,5.807 5.468,12.486 5.468,19.318 0,15.225 -9.558,29.025 -23.855,34.561 v 5.789 z" />
			</g>
			<g
   id="g105">
				<path
   style="fill:#111111"
   inkscape:connector-curvature="0"
   id="path103"
   d="m 69.85,331.986 c -2.592,-2.566 -4.79,-5.484 -6.531,-8.674 l 1.755,-0.959 c 1.649,3.02 3.729,5.782 6.184,8.213 z" />
			</g>
			<circle
   style="fill:#ffad2f"
   id="circle107"
   r="19.253"
   cy="306.854"
   cx="95.667999" />
			<g
   id="g111">
				<rect
   style="fill:#111111"
   id="rect109"
   height="2"
   width="32.625"
   y="344.63901"
   x="79.356003" />
			</g>
			<g
   id="g115">
				<rect
   style="fill:#111111"
   id="rect113"
   height="2"
   width="32.625"
   y="350.25"
   x="79.356003" />
			</g>
			<g
   id="g119">
				<rect
   style="fill:#111111"
   id="rect117"
   height="2"
   width="32.625"
   y="355.86099"
   x="79.356003" />
			</g>
		</g>
		<g
   id="g149">
			<g
   id="g125">
				<path
   style="fill:#e6e6e6"
   inkscape:connector-curvature="0"
   id="path123"
   d="m 665.813,147.979 c -5.14,0 -9.904,1.519 -13.84,4.236 -2.67,-3.033 -6.341,-5.187 -10.506,-5.879 0.173,-1.17 0.262,-2.375 0.262,-3.591 0,-13.47 -10.922,-24.405 -24.396,-24.405 -13.473,0 -24.399,10.922 -24.399,24.392 0,1.989 0.245,3.917 0.694,5.763 -1.805,-0.424 -3.69,-0.516 -5.626,-0.516 -13.474,0 -24.396,11.204 -24.396,24.536 h 126.606 c 10e-4,-13.332 -10.921,-24.536 -24.399,-24.536 z" />
			</g>
			<g
   id="g147">
				<g
   id="g129">
					<path
   style="fill:#111111"
   inkscape:connector-curvature="0"
   id="path127"
   d="m 562.606,173.515 h 44.488 v -2 h -42.468 c 0.523,-12.516 10.808,-22.536 23.376,-22.536 v -2 c -14.004,0 -25.396,11.455 -25.396,25.536 z" />
				</g>
				<g
   id="g133">
					<path
   style="fill:#111111"
   inkscape:connector-curvature="0"
   id="path131"
   d="m 600.07,126.941 c 2.112,-2.307 4.616,-4.139 7.442,-5.447 l -0.841,-1.814 c -3.067,1.42 -5.784,3.408 -8.076,5.912 z" />
				</g>
				<g
   id="g137">
					<path
   style="fill:#111111"
   inkscape:connector-curvature="0"
   id="path135"
   d="m 637.887,131.559 1.756,-0.957 c -3.078,-5.646 -8.117,-9.885 -14.19,-11.935 l -0.64,1.895 c 5.594,1.888 10.238,5.793 13.074,10.997 z" />
				</g>
				<g
   id="g141">
					<path
   style="fill:#111111"
   inkscape:connector-curvature="0"
   id="path139"
   d="m 647.206,173.515 h 44.007 v -1 c 0,-14.081 -11.395,-25.536 -25.4,-25.536 -4.945,0 -9.656,1.357 -13.683,3.932 -1.285,-1.334 -2.745,-2.469 -4.351,-3.379 l -0.986,1.738 c 1.664,0.945 3.154,2.158 4.429,3.605 l 0.588,0.668 0.731,-0.506 c 3.844,-2.654 8.434,-4.059 13.271,-4.059 12.57,0 22.856,10.021 23.379,22.536 h -41.985 z" />
				</g>
				<g
   id="g145">
					<rect
   style="fill:#111111"
   id="rect143"
   height="2"
   width="15.132"
   y="171.515"
   x="625.10797" />
				</g>
			</g>
		</g>
		<polygon
   style="fill:#e6e6e6"
   id="polygon151"
   points="174.587,124.398 268.04,137.859 247.548,158.352 246.823,159.08 349.506,261.305 467.354,182.57 646.703,362.442 572.008,362.527 460.56,251.079 342.712,329.813 209.241,196.279 187.857,217.668 " />
		<g
   id="XMLID_107_">
			<g
   id="g157">
				<g
   id="g155">
					<path
   style="fill:#e6e6e6"
   inkscape:connector-curvature="0"
   id="path153"
   d="m 215.823,218.313 v 9.986 h 19.206 v -0.353 c 0,-5.32 4.313,-9.634 9.633,-9.634 h 0.194 c 5.32,0 9.633,4.313 9.633,9.634 v 134.63 H 155.37 V 218.313 Z" />
				</g>
			</g>
			<g
   id="g165">
				<g
   id="g163">
					<g
   id="g161">
						<path
   style="fill:#111111"
   inkscape:connector-curvature="0"
   id="path159"
   d="m 154.37,217.313 h 62.453 v 9.986 h 17.225 c 0.336,-5.563 4.968,-9.986 10.614,-9.986 h 0.194 c 5.863,0 10.633,4.771 10.633,10.634 v 135.63 H 154.37 Z m 99.119,10.633 c 0,-4.761 -3.874,-8.634 -8.633,-8.634 h -0.194 c -4.761,0 -8.634,3.873 -8.634,8.634 v 1.353 h -21.205 v -9.986 H 156.37 v 142.264 h 97.119 z" />
					</g>
				</g>
			</g>
			<g
   id="g169">
				<path
   style="fill:#ffffff"
   inkscape:connector-curvature="0"
   id="path167"
   d="m 245.204,218.313 c -4.317,0 -10.229,2.453 -10.229,10.62 l -0.07,123.28 c 0,5.67 -2.434,10.418 -9.29,10.418 -4.329,0 -10.47,-1.237 -10.47,-11.051 l -73.758,3.844 0.07,-126.491 c 0,-5.87 5.806,-10.62 12.94,-10.62 z" />
			</g>
			<g
   id="g175">
				<g
   id="g173">
					<path
   style="fill:#111111"
   inkscape:connector-curvature="0"
   id="path171"
   d="m 214.168,352.633 -73.782,3.845 0.071,-127.545 c 0,-6.407 6.254,-11.62 13.94,-11.62 h 90.807 v 2 c -1.541,0 -9.229,0.464 -9.229,9.621 l -0.069,123.279 c 0,7.256 -3.751,11.418 -10.29,11.418 -7.27,0 -11.118,-3.699 -11.448,-10.998 z m -59.771,-133.32 c -6.584,0 -11.94,4.315 -11.94,9.621 l -0.069,125.437 73.757,-3.844 v 1.054 c 0,9.009 5.405,10.051 9.471,10.051 6.852,0 8.29,-5.121 8.29,-9.419 l 0.069,-123.279 c 0,-4.785 1.883,-7.848 4.446,-9.62 h -84.024 z" />
				</g>
			</g>
			<g
   id="g185">
				<g
   id="g179">
					<rect
   style="fill:#111111"
   id="rect177"
   height="2"
   width="38.175999"
   y="278.59201"
   x="189.838" />
				</g>
				<g
   id="g183">
					<rect
   style="fill:#111111"
   id="rect181"
   height="2"
   width="35.375"
   y="278.59201"
   x="147.33501" />
				</g>
			</g>
			<g
   id="g195">
				<g
   id="g189">
					<rect
   style="fill:#111111"
   id="rect187"
   height="2"
   width="38.175999"
   y="284.358"
   x="189.838" />
				</g>
				<g
   id="g193">
					<rect
   style="fill:#111111"
   id="rect191"
   height="2"
   width="35.375"
   y="284.358"
   x="147.33501" />
				</g>
			</g>
			<g
   id="g205">
				<g
   id="g199">
					<rect
   style="fill:#111111"
   id="rect197"
   height="2"
   width="38.175999"
   y="290.125"
   x="189.838" />
				</g>
				<g
   id="g203">
					<rect
   style="fill:#111111"
   id="rect201"
   height="2"
   width="35.375"
   y="290.125"
   x="147.33501" />
				</g>
			</g>
			<g
   id="g215">
				<g
   id="g209">
					<rect
   style="fill:#111111"
   id="rect207"
   height="2"
   width="38.175999"
   y="295.892"
   x="189.838" />
				</g>
				<g
   id="g213">
					<rect
   style="fill:#111111"
   id="rect211"
   height="2"
   width="35.375"
   y="295.892"
   x="147.33501" />
				</g>
			</g>
			<g
   id="g225">
				<g
   id="g219">
					<rect
   style="fill:#111111"
   id="rect217"
   height="2"
   width="38.175999"
   y="301.65799"
   x="189.838" />
				</g>
				<g
   id="g223">
					<rect
   style="fill:#111111"
   id="rect221"
   height="2"
   width="35.375"
   y="301.65799"
   x="147.33501" />
				</g>
			</g>
			<g
   id="g235">
				<g
   id="g229">
					<rect
   style="fill:#111111"
   id="rect227"
   height="2"
   width="38.175999"
   y="307.42499"
   x="189.838" />
				</g>
				<g
   id="g233">
					<rect
   style="fill:#111111"
   id="rect231"
   height="2"
   width="35.375"
   y="307.42499"
   x="147.33501" />
				</g>
			</g>
			<g
   id="g245">
				<g
   id="g239">
					<rect
   style="fill:#111111"
   id="rect237"
   height="2"
   width="38.175999"
   y="313.19101"
   x="189.838" />
				</g>
				<g
   id="g243">
					<rect
   style="fill:#111111"
   id="rect241"
   height="2"
   width="35.375"
   y="313.19101"
   x="147.33501" />
				</g>
			</g>
			<g
   id="g255">
				<g
   id="g249">
					<rect
   style="fill:#111111"
   id="rect247"
   height="2"
   width="38.175999"
   y="318.95801"
   x="189.838" />
				</g>
				<g
   id="g253">
					<rect
   style="fill:#111111"
   id="rect251"
   height="2"
   width="35.375"
   y="318.95801"
   x="147.33501" />
				</g>
			</g>
			<g
   id="g265">
				<g
   id="g259">
					<rect
   style="fill:#111111"
   id="rect257"
   height="2"
   width="38.175999"
   y="324.72501"
   x="189.838" />
				</g>
				<g
   id="g263">
					<rect
   style="fill:#111111"
   id="rect261"
   height="2"
   width="35.375"
   y="324.72501"
   x="147.33501" />
				</g>
			</g>
			<g
   id="g275">
				<g
   id="g269">
					<rect
   style="fill:#111111"
   id="rect267"
   height="2"
   width="38.175999"
   y="330.491"
   x="189.838" />
				</g>
				<g
   id="g273">
					<rect
   style="fill:#111111"
   id="rect271"
   height="2"
   width="35.375"
   y="330.491"
   x="147.33501" />
				</g>
			</g>
			<g
   id="g285">
				<g
   id="g279">
					<rect
   style="fill:#111111"
   id="rect277"
   height="2"
   width="38.175999"
   y="336.258"
   x="189.838" />
				</g>
				<g
   id="g283">
					<rect
   style="fill:#111111"
   id="rect281"
   height="2"
   width="35.375"
   y="336.258"
   x="147.33501" />
				</g>
			</g>
			<g
   id="g295">
				<g
   id="g289">
					<rect
   style="fill:#111111"
   id="rect287"
   height="2"
   width="38.175999"
   y="342.02399"
   x="189.838" />
				</g>
				<g
   id="g293">
					<rect
   style="fill:#111111"
   id="rect291"
   height="2"
   width="35.375"
   y="342.02399"
   x="147.33501" />
				</g>
			</g>
			<g
   id="g305">
				<g
   id="g299">
					<rect
   style="fill:#111111"
   id="rect297"
   height="2"
   width="38.175999"
   y="347.79001"
   x="189.838" />
				</g>
				<g
   id="g303">
					<rect
   style="fill:#111111"
   id="rect301"
   height="2"
   width="35.375"
   y="347.79001"
   x="147.33501" />
				</g>
			</g>
			<g
   id="XMLID_114_">
				<g
   id="XMLID_116_">
					<path
   style="fill:#ffffff"
   inkscape:connector-curvature="0"
   id="path307"
   d="m 119.415,302.068 v 49.502 c 0,0 -1.029,11.083 14.537,11.083 22.21,0 90.814,-0.014 90.814,-0.014 -1.327,-0.036 -9.612,-0.751 -9.612,-11.047 v -37.456 c 0,0 1.164,-12.068 -11.347,-12.068 z" />
				</g>
				<g
   id="XMLID_115_">
					<path
   style="fill:#ffffff"
   inkscape:connector-curvature="0"
   id="path310"
   d="m 225.013,362.64 h -0.247 c 0.156,0.005 0.247,0 0.247,0 z" />
				</g>
			</g>
			<g
   id="XMLID_108_">
				<g
   id="XMLID_110_">
					<g
   id="g316">
						<path
   style="fill:#111111"
   inkscape:connector-curvature="0"
   id="path314"
   d="m 121.198,359.241 c -3.14,-3.445 -2.795,-7.589 -2.783,-7.671 v -50.503 h 85.392 c 4.051,0 7.196,1.201 9.348,3.57 3.503,3.857 3.018,9.361 3,9.498 v 37.457 c 0,9.339 7.197,10.008 8.64,10.047 l -0.027,2 c 0,0 -68.604,0.014 -90.815,0.014 -5.795,0 -10.086,-1.484 -12.755,-4.412 z m 92.956,-7.648 0.004,-37.553 c 0.004,-0.048 0.43,-4.849 -2.485,-8.059 -1.757,-1.934 -4.403,-2.914 -7.867,-2.914 h -83.392 l -0.004,48.592 c -0.003,0.034 -0.265,3.48 2.288,6.259 2.276,2.479 6.063,3.735 11.252,3.735 18.175,0 67.416,-0.009 84.71,-0.013 -2.363,-1.638 -4.506,-4.621 -4.506,-10.047 z" />
					</g>
				</g>
				<g
   id="XMLID_109_">
					<g
   id="g321">
						<path
   style="fill:#111111"
   inkscape:connector-curvature="0"
   id="path319"
   d="m 224.9,363.642 c 0.1,0 0.156,-0.003 0.156,-0.003 l -0.043,-1.999 h -0.247 l -0.026,2 c 0.063,0.001 0.115,0.002 0.16,0.002 z" />
					</g>
				</g>
			</g>
			<g
   id="g327">
				<path
   style="fill:#e6e6e6"
   inkscape:connector-curvature="0"
   id="path325"
   d="m 195.605,315.572 c -3.644,-11.956 8.208,-13.498 8.208,-13.498 0,0 -72.884,0 -84.39,0 -12.259,0 -13.254,7.578 -12.163,13.498 z" />
			</g>
			<g
   id="g333">
				<g
   id="g331">
					<path
   style="fill:#111111"
   inkscape:connector-curvature="0"
   id="path329"
   d="m 106.277,315.754 c -0.837,-4.54 -0.19,-8.127 1.92,-10.661 2.22,-2.667 5.997,-4.019 11.227,-4.019 h 84.39 l 0.131,1.991 c -0.047,0.007 -4.7,0.666 -6.886,4.068 -1.341,2.088 -1.508,4.829 -0.496,8.146 l 0.394,1.292 h -90.528 z m 89.109,-9.715 c 0.83,-1.288 1.914,-2.25 3.023,-2.965 h -78.985 c -4.607,0 -7.867,1.109 -9.689,3.298 -1.592,1.912 -2.137,4.668 -1.625,8.2 h 86.193 c -0.773,-3.352 -0.41,-6.218 1.083,-8.533 z" />
				</g>
			</g>
			<g
   id="g343">
				<g
   id="g337">
					<rect
   style="fill:#111111"
   id="rect335"
   height="2"
   width="38.175999"
   y="324.72501"
   x="168.838" />
				</g>
				<g
   id="g341">
					<rect
   style="fill:#111111"
   id="rect339"
   height="2"
   width="35.375"
   y="324.72501"
   x="126.335" />
				</g>
			</g>
			<g
   id="g353">
				<g
   id="g347">
					<rect
   style="fill:#111111"
   id="rect345"
   height="2"
   width="38.175999"
   y="330.491"
   x="168.838" />
				</g>
				<g
   id="g351">
					<rect
   style="fill:#111111"
   id="rect349"
   height="2"
   width="35.375"
   y="330.491"
   x="126.335" />
				</g>
			</g>
			<g
   id="g363">
				<g
   id="g357">
					<rect
   style="fill:#111111"
   id="rect355"
   height="2"
   width="38.175999"
   y="336.258"
   x="168.838" />
				</g>
				<g
   id="g361">
					<rect
   style="fill:#111111"
   id="rect359"
   height="2"
   width="35.375"
   y="336.258"
   x="126.335" />
				</g>
			</g>
			<g
   id="g373">
				<g
   id="g367">
					<rect
   style="fill:#111111"
   id="rect365"
   height="2"
   width="38.175999"
   y="342.02399"
   x="168.838" />
				</g>
				<g
   id="g371">
					<rect
   style="fill:#111111"
   id="rect369"
   height="2"
   width="35.375"
   y="342.02399"
   x="126.335" />
				</g>
			</g>
			<g
   id="g383">
				<g
   id="g377">
					<rect
   style="fill:#111111"
   id="rect375"
   height="2"
   width="38.175999"
   y="347.79001"
   x="168.838" />
				</g>
				<g
   id="g381">
					<rect
   style="fill:#111111"
   id="rect379"
   height="2"
   width="35.375"
   y="347.79001"
   x="126.335" />
				</g>
			</g>
			<g
   id="XMLID_2_">
				<g
   id="XMLID_9_">
					<polygon
   style="fill:#f3a52d"
   points="210.649,235.461 219.712,231.056 228.014,235.101 228.014,271.113 147.334,271.113 147.334,229.629 156.27,235.416 165.59,230.965 174.524,235.461 183.459,235.461 192.522,231.056 201.714,239.866 "
   id="XMLID_14_" />
				</g>
				<g
   id="XMLID_7_">
					<polygon
   style="fill:#3dc7d2"
   points="147.334,271.113 147.334,240.049 156.141,244.578 165.461,235.416 176.175,245.654 193.307,240.049 201.586,249.632 210.649,239.866 219.841,244.408 228.014,240.42 228.014,271.113 "
   id="XMLID_8_" />
				</g>
				<g
   id="XMLID_5_">
					<polygon
   style="fill:#7c7e82"
   points="210.777,253.264 219.841,257.915 228.014,253.702 228.014,271.113 147.334,271.113 147.334,245.219 156.398,239.866 165.333,244.316 173.904,254.111 183.588,248.859 192.651,244.471 201.714,257.787 "
   id="XMLID_6_" />
				</g>
				<g
   id="XMLID_3_">
					<polygon
   style="fill:#ea572e"
   points="147.334,271.113 147.334,252.442 156.27,255.445 165.333,248.949 174.267,257.852 183.459,253.4 188.776,261.041 208.17,262.777 219.712,253.31 228.014,257.409 228.014,271.113 "
   id="XMLID_4_" />
				</g>
			</g>
		</g>
		<g
   id="g491">
			<rect
   style="fill:#7c7e82"
   id="rect395"
   height="220.46201"
   width="9.5170002"
   y="142.138"
   x="512.44598" />
			<g
   id="g399">
				<rect
   style="fill:#ffffff"
   id="rect397"
   height="121.24"
   width="188.868"
   y="159.52901"
   x="422.771" />
			</g>
			<g
   id="g429">
				<g
   id="g427">
					<g
   id="g409">
						<g
   id="g407">
							<g
   id="g405">
								<g
   id="g403">
									<path
   style="fill:#111111"
   inkscape:connector-curvature="0"
   id="path401"
   d="m 477.34,252.307 c -17.76,0 -32.208,-14.449 -32.208,-32.209 0,-16.889 13.204,-30.99 30.061,-32.103 l 1.065,-0.07 v 33.251 h 33.253 l -0.07,1.066 c -1.118,16.86 -15.217,30.065 -32.101,30.065 z m -3.082,-62.227 c -15.296,1.553 -27.126,14.536 -27.126,30.018 0,16.658 13.551,30.209 30.208,30.209 15.477,0 28.459,-11.832 30.016,-27.131 h -33.098 z" />
								</g>
							</g>
						</g>
					</g>
					<g
   id="g417">
						<g
   id="g415">
							<g
   id="g413">
								<path
   style="fill:#3dc7d2"
   inkscape:connector-curvature="0"
   id="path411"
   d="M 479.421,216.804 V 191.04 c 9.973,0.71 18.566,6.464 23.256,14.713 z" />
							</g>
						</g>
					</g>
					<g
   id="g425">
						<g
   id="g423">
							<g
   id="g421">
								<path
   style="fill:#f3a52d"
   inkscape:connector-curvature="0"
   id="path419"
   d="m 506.394,218.015 h -19.827 l 17.917,-8.51 c 1.068,2.725 1.705,5.575 1.91,8.51 z" />
							</g>
						</g>
					</g>
				</g>
			</g>
			<g
   id="g433">
				<rect
   style="fill:#111111"
   id="rect431"
   height="2"
   width="206.48599"
   y="158.52901"
   x="413.961" />
			</g>
			<g
   id="g463">
				<g
   id="g437">
					<rect
   style="fill:#111111"
   id="rect435"
   height="2"
   width="3.9260001"
   y="186.311"
   x="550.263" />
				</g>
				<g
   id="g441">
					<rect
   style="fill:#111111"
   id="rect439"
   height="2"
   width="3.9260001"
   y="186.311"
   x="539.36298" />
				</g>
				<g
   id="g445">
					<rect
   style="fill:#111111"
   id="rect443"
   height="2"
   width="3.9260001"
   y="186.311"
   x="528.46301" />
				</g>
				<g
   id="g449">
					<rect
   style="fill:#111111"
   id="rect447"
   height="2"
   width="61.039001"
   y="193.769"
   x="528.46399" />
				</g>
				<g
   id="g453">
					<rect
   style="fill:#111111"
   id="rect451"
   height="2"
   width="61.039001"
   y="201.134"
   x="528.46399" />
				</g>
				<g
   id="g457">
					<rect
   style="fill:#111111"
   id="rect455"
   height="2"
   width="27.868999"
   y="208.5"
   x="528.46399" />
				</g>
				<g
   id="g461">
					<rect
   style="fill:#111111"
   id="rect459"
   height="2"
   width="61.039001"
   y="215.804"
   x="528.46399" />
				</g>
			</g>
			<g
   id="g467">
				<rect
   style="fill:#111111"
   id="rect465"
   height="2"
   width="206.48599"
   y="279.76999"
   x="413.961" />
			</g>
			<g
   id="g481">
				<g
   id="g471">
					<polygon
   style="fill:#111111"
   id="polygon469"
   points="549.473,238.973 568.464,243.836 599.456,230.548 600.245,232.386 568.626,245.943 549.602,241.07 521.034,252.238 520.306,250.375 " />
				</g>
				<circle
   style="fill:#f3a52d"
   id="circle473"
   r="3.1630001"
   cy="244.89"
   cx="568.54401" />
				<circle
   style="fill:#f3a52d"
   id="circle475"
   r="3.1630001"
   cy="231.467"
   cx="599.85101" />
				<circle
   style="fill:#f3a52d"
   id="circle477"
   r="3.1630001"
   cy="240.021"
   cx="549.53802" />
				<circle
   style="fill:#f3a52d"
   id="circle479"
   r="3.1630001"
   cy="251.30701"
   cx="520.66998" />
			</g>
			<g
   id="g485">
				<rect
   style="fill:#111111"
   id="rect483"
   height="121.24"
   width="2"
   y="159.52901"
   x="610.63898" />
			</g>
			<g
   id="g489">
				<rect
   style="fill:#111111"
   id="rect487"
   height="121.24"
   width="2"
   y="159.52901"
   x="421.771" />
			</g>
		</g>
		<g
   id="g565">
			<path
   style="fill:#ea572e"
   inkscape:connector-curvature="0"
   id="path493"
   d="m 437.081,144.328 c 0,-0.32 -36.496,-29.328 -36.496,-29.328 0,0 -36.496,29.008 -36.496,29.328 v -0.105 h 72.992 z" />
			<g
   id="g497">
				<rect
   style="fill:#f3a52d"
   id="rect495"
   height="10.631"
   width="72.991997"
   y="144.22301"
   x="364.08899" />
			</g>
			<g
   id="g501">
				<path
   style="fill:#3dc7d2"
   inkscape:connector-curvature="0"
   id="path499"
   d="m 437.081,176.615 v 53.603 h 18.859 c 8.088,0 12.798,-9.136 8.107,-15.725 z" />
			</g>
			<g
   id="g505">
				<path
   style="fill:#3dc7d2"
   inkscape:connector-curvature="0"
   id="path503"
   d="m 345.567,230.218 h 18.522 v -53.603 l -26.664,37.926 c -4.636,6.595 0.081,15.677 8.142,15.677 z" />
			</g>
			<g
   id="g511">
				<g
   id="g509">
					<path
   style="fill:#111111"
   inkscape:connector-curvature="0"
   id="path507"
   d="m 455.94,231.218 h -19.859 v -57.731 l 28.781,40.427 c 2.425,3.405 2.728,7.657 0.813,11.372 -1.916,3.714 -5.555,5.932 -9.735,5.932 z m -17.859,-2 h 17.859 c 3.416,0 6.391,-1.813 7.957,-4.85 1.565,-3.036 1.317,-6.512 -0.664,-9.295 l -25.152,-35.329 z" />
				</g>
			</g>
			<g
   id="g517">
				<g
   id="g515">
					<path
   style="fill:#111111"
   inkscape:connector-curvature="0"
   id="path513"
   d="m 365.089,231.218 h -19.522 c -4.166,0 -7.8,-2.208 -9.72,-5.904 -1.92,-3.697 -1.636,-7.938 0.76,-11.347 l 28.482,-40.514 z m -2,-51.443 -24.846,35.342 c -1.958,2.785 -2.19,6.252 -0.621,9.274 1.569,3.022 4.54,4.826 7.945,4.826 h 17.522 z" />
				</g>
			</g>
			<g
   id="g521">
				<path
   style="fill:#ffffff"
   inkscape:connector-curvature="0"
   id="path519"
   d="m 364.089,154.854 v 94.145 c 0,11.197 8.404,19.852 19.6,19.852 h -0.035 v 7.525 h 33.109 v -7.525 h 0.524 c 11.198,0 19.793,-8.654 19.793,-19.852 v -94.145 z" />
			</g>
			<g
   id="g525">
				<path
   style="fill:#ea572e"
   inkscape:connector-curvature="0"
   id="path523"
   d="m 364.097,249.154 c 0.079,11.121 8.45,19.695 19.593,19.695 h -0.035 v 7.525 h 33.109 v -7.525 h 0.524 c 11.145,0 19.705,-8.574 19.786,-19.695 z" />
			</g>
			<g
   id="g529">
				<path
   style="fill:#111111"
   inkscape:connector-curvature="0"
   id="path527"
   d="m 437.081,145.328 h -72.992 c -0.424,0 -0.802,-0.268 -0.943,-0.668 -0.141,-0.4 -0.014,-0.846 0.317,-1.111 l 36.496,-29.328 c 0.366,-0.294 0.888,-0.294 1.253,0 l 36.495,29.328 c 0.331,0.266 0.458,0.711 0.317,1.111 -0.141,0.4 -0.519,0.668 -0.943,0.668 z m -70.151,-2 h 67.31 l -33.655,-27.045 z" />
			</g>
			<g
   id="g533">
				<path
   style="fill:#111111"
   inkscape:connector-curvature="0"
   id="path531"
   d="m 400.585,209.693 c -11.832,0 -21.458,-9.627 -21.458,-21.458 0,-11.832 9.626,-21.458 21.458,-21.458 11.833,0 21.459,9.626 21.459,21.458 0,11.831 -9.626,21.458 -21.459,21.458 z m 0,-40.916 c -10.729,0 -19.458,8.729 -19.458,19.458 0,10.729 8.729,19.458 19.458,19.458 10.729,0 19.459,-8.729 19.459,-19.458 0,-10.729 -8.73,-19.458 -19.459,-19.458 z" />
			</g>
			<path
   style="fill:#e6e6e6"
   inkscape:connector-curvature="0"
   id="path535"
   d="m 369.814,245.797 c -1.851,0 -3.357,-1.506 -3.357,-3.357 0,-1.851 1.506,-3.357 3.357,-3.357 1.852,0 3.357,1.506 3.357,3.357 0,1.851 -1.505,3.357 -3.357,3.357 z" />
			<path
   style="fill:#e6e6e6"
   inkscape:connector-curvature="0"
   id="path537"
   d="m 380.218,245.797 c -1.851,0 -3.357,-1.506 -3.357,-3.357 0,-1.851 1.506,-3.357 3.357,-3.357 1.852,0 3.357,1.506 3.357,3.357 0,1.851 -1.506,3.357 -3.357,3.357 z" />
			<path
   style="fill:#e6e6e6"
   inkscape:connector-curvature="0"
   id="path539"
   d="m 390.621,245.797 c -1.851,0 -3.357,-1.506 -3.357,-3.357 0,-1.851 1.506,-3.357 3.357,-3.357 1.851,0 3.357,1.506 3.357,3.357 0,1.851 -1.506,3.357 -3.357,3.357 z" />
			<path
   style="fill:#e6e6e6"
   inkscape:connector-curvature="0"
   id="path541"
   d="m 401.024,245.797 c -1.851,0 -3.357,-1.506 -3.357,-3.357 0,-1.851 1.506,-3.357 3.357,-3.357 1.852,0 3.357,1.506 3.357,3.357 0,1.851 -1.505,3.357 -3.357,3.357 z" />
			<circle
   style="fill:#e6e6e6"
   id="circle543"
   r="3.3570001"
   cy="242.439"
   cx="411.42801" />
			<circle
   style="fill:#e6e6e6"
   id="circle545"
   r="3.3570001"
   cy="242.439"
   cx="421.83099" />
			<circle
   style="fill:#e6e6e6"
   id="circle547"
   r="3.3570001"
   cy="242.439"
   cx="432.23401" />
			<circle
   style="fill:#3dc7d2"
   id="circle549"
   r="14.263"
   cy="188.23399"
   cx="400.58499" />
			<g
   id="g555">
				<g
   id="g553">
					<path
   style="fill:#111111"
   inkscape:connector-curvature="0"
   id="path551"
   d="m 417.764,277.375 h -35.109 v -7.551 c -4.06,-0.233 -18.515,-2.36 -19.563,-20.77 l -10e-4,-95.201 h 74.992 v 95.145 c 0,11.533 -8.886,20.602 -20.317,20.848 v 7.529 z m -33.11,-2 h 31.109 v -7.525 h 1.524 c 10.714,0 18.793,-8.104 18.793,-18.852 v -93.145 h -70.992 v 93.145 c 1.045,18.322 16.66,18.854 18.437,18.854 l 1.127,-0.027 z" />
				</g>
			</g>
			<g
   id="g559">
				
					<rect
   style="fill:#111111"
   id="rect557"
   height="1.999"
   width="26.402"
   transform="matrix(0.5714,0.8207,-0.8207,0.5714,357.4344,-277.7413)"
   y="202.334"
   x="431.423" />
			</g>
			<g
   id="g563">
				
					<rect
   style="fill:#111111"
   id="rect561"
   height="26.400999"
   width="2"
   transform="matrix(0.8208,0.5713,-0.5713,0.8208,180.1282,-167.4473)"
   y="190.133"
   x="355.91299" />
			</g>
		</g>
		<g
   id="g581">
			<g
   id="g569">
				<path
   style="fill:#111111"
   inkscape:connector-curvature="0"
   id="path567"
   d="m 657.702,240.782 h -7.883 c -0.754,0 -1.464,-0.294 -1.997,-0.827 -0.533,-0.534 -0.827,-1.243 -0.826,-1.998 l -10e-4,-3.772 c -2.071,-0.554 -4.058,-1.364 -5.921,-2.421 l -2.658,2.658 c -1.066,1.066 -2.927,1.066 -3.994,0 l -5.574,-5.574 c -1.101,-1.102 -1.101,-2.894 0,-3.994 l 2.668,-2.668 c -1.074,-1.857 -1.903,-3.835 -2.475,-5.899 h -3.759 c -1.558,0 -2.825,-1.267 -2.825,-2.824 v -7.883 c 0,-1.558 1.268,-2.824 2.825,-2.824 h 3.773 c 0.553,-2.073 1.365,-4.059 2.421,-5.921 l -2.658,-2.658 c -1.101,-1.102 -1.102,-2.893 -10e-4,-3.994 l 5.575,-5.574 c 1.066,-1.066 2.928,-1.067 3.994,0.001 l 2.667,2.667 c 1.856,-1.074 3.835,-1.904 5.899,-2.475 v -3.76 c 0,-1.557 1.268,-2.824 2.824,-2.824 h 7.883 c 1.558,0 2.824,1.268 2.824,2.824 v 3.773 c 2.072,0.554 4.058,1.365 5.922,2.422 l 2.657,-2.658 c 1.067,-1.067 2.928,-1.066 3.995,0 l 5.573,5.573 c 1.102,1.102 1.102,2.894 0,3.995 l -2.668,2.668 c 1.074,1.855 1.904,3.834 2.476,5.898 h 3.759 c 1.557,0 2.824,1.268 2.824,2.824 v 7.883 c 0,1.557 -1.268,2.824 -2.824,2.824 h -3.773 c -0.553,2.072 -1.365,4.059 -2.422,5.922 l 2.659,2.658 c 0.533,0.533 0.827,1.242 0.827,1.996 0,0.755 -0.294,1.465 -0.827,1.998 l -5.574,5.572 c -1.064,1.068 -2.928,1.068 -3.994,0 l -2.668,-2.667 c -1.857,1.075 -3.836,1.904 -5.899,2.476 v 3.759 c 0,1.558 -1.266,2.824 -2.824,2.824 z m -16.939,-11.535 0.671,0.409 c 2.104,1.279 4.388,2.213 6.789,2.774 l 0.772,0.181 10e-4,5.347 c 0,0.22 0.085,0.427 0.241,0.583 0.155,0.155 0.362,0.241 0.582,0.241 h 7.883 c 0.455,0 0.824,-0.37 0.824,-0.824 v -5.319 l 0.764,-0.186 c 2.392,-0.581 4.667,-1.535 6.763,-2.838 l 0.674,-0.418 3.781,3.779 c 0.313,0.313 0.854,0.313 1.165,0.001 l 5.575,-5.574 c 0.155,-0.155 0.241,-0.362 0.241,-0.583 0,-0.22 -0.086,-0.427 -0.241,-0.582 l -3.762,-3.762 0.409,-0.671 c 1.28,-2.103 2.214,-4.387 2.775,-6.789 l 0.181,-0.772 h 5.347 c 0.454,0 0.824,-0.369 0.824,-0.824 v -7.883 c 0,-0.455 -0.37,-0.824 -0.824,-0.824 h -5.317 l -0.187,-0.764 c -0.582,-2.393 -1.537,-4.668 -2.839,-6.763 l -0.419,-0.674 3.781,-3.78 c 0.321,-0.322 0.321,-0.846 0,-1.167 l -5.573,-5.573 c -0.312,-0.312 -0.855,-0.312 -1.167,0 l -3.76,3.76 -0.671,-0.408 c -2.104,-1.279 -4.389,-2.214 -6.79,-2.775 l -0.772,-0.18 v -5.348 c 0,-0.454 -0.369,-0.824 -0.824,-0.824 h -7.883 c -0.454,0 -0.824,0.37 -0.824,0.824 v 5.318 l -0.764,0.186 c -2.393,0.582 -4.668,1.537 -6.763,2.839 l -0.662,0.411 -0.561,-0.542 -3.232,-3.231 c -0.312,-0.312 -0.854,-0.311 -1.165,0 l -5.574,5.574 c -0.321,0.321 -0.321,0.844 0,1.166 l 3.761,3.76 -0.409,0.672 c -1.279,2.102 -2.213,4.387 -2.774,6.789 l -0.181,0.772 h -5.347 c -0.455,0 -0.825,0.37 -0.825,0.824 v 7.883 c 0,0.454 0.37,0.824 0.825,0.824 h 5.317 l 0.187,0.764 c 0.582,2.392 1.537,4.668 2.838,6.764 l 0.419,0.674 -3.781,3.78 c -0.321,0.321 -0.321,0.845 0.001,1.166 l 5.573,5.574 c 0.312,0.311 0.854,0.311 1.166,0 z" />
			</g>
			<g
   id="g573">
				<path
   style="clip-rule:evenodd;fill:#f3a52d;fill-rule:evenodd"
   inkscape:connector-curvature="0"
   id="path571"
   d="m 653.74,229.731 c 11.174,0.001 20.231,-9.06 20.231,-20.232 0,-11.174 -9.058,-20.231 -20.231,-20.231 -11.173,0 -20.232,9.058 -20.232,20.231 0,11.173 9.058,20.232 20.232,20.232 z" />
			</g>
			<g
   id="g579">
				<g
   id="g577">
					<path
   style="fill:#111111"
   inkscape:connector-curvature="0"
   id="path575"
   d="m 653.75,225.82 -0.032,-2 h 0.032 c 0.912,0 1.823,-0.086 2.708,-0.256 l 0.377,1.965 c -1.009,0.194 -2.047,0.291 -3.085,0.291 z m -4.171,-0.537 c -1.011,-0.268 -1.999,-0.633 -2.938,-1.088 l 0.872,-1.801 c 0.824,0.399 1.691,0.721 2.577,0.955 z m 11.221,-1.059 -0.864,-1.804 c 0.824,-0.396 1.616,-0.873 2.352,-1.422 l 1.194,1.605 c -0.839,0.624 -1.742,1.169 -2.682,1.621 z m -17.65,-2.314 c -0.794,-0.678 -1.525,-1.437 -2.176,-2.252 l 1.564,-1.246 c 0.571,0.717 1.214,1.382 1.911,1.979 z m 23.334,-2.201 -1.56,-1.252 c 0.574,-0.716 1.082,-1.489 1.508,-2.299 l 1.771,0.931 c -0.486,0.923 -1.064,1.805 -1.719,2.62 z m -27.671,-3.621 c -0.422,-0.956 -0.753,-1.957 -0.983,-2.975 l 1.95,-0.441 c 0.202,0.893 0.492,1.77 0.863,2.609 z m 30.842,-2.912 -1.949,-0.447 c 0.205,-0.891 0.325,-1.809 0.357,-2.727 l 1.999,0.068 c -0.037,1.047 -0.173,2.092 -0.407,3.106 z m -30.219,-4.15 -1.999,-0.066 c 0.035,-1.048 0.17,-2.093 0.4,-3.105 l 1.95,0.444 c -0.202,0.889 -0.32,1.806 -0.351,2.727 z m 28.29,-2.671 c -0.2,-0.893 -0.488,-1.771 -0.857,-2.611 l 1.832,-0.804 c 0.42,0.958 0.749,1.96 0.977,2.978 z m -26.673,-3.489 -1.771,-0.928 c 0.483,-0.924 1.061,-1.806 1.713,-2.623 l 1.563,1.249 c -0.575,0.717 -1.08,1.493 -1.505,2.302 z m 23.926,-2.257 c -0.57,-0.718 -1.212,-1.385 -1.908,-1.983 l 1.304,-1.517 c 0.792,0.681 1.522,1.439 2.171,2.257 z m -19.791,-2.591 -1.196,-1.604 c 0.839,-0.625 1.74,-1.172 2.679,-1.625 l 0.868,1.802 c -0.823,0.397 -1.614,0.876 -2.351,1.427 z m 14.825,-1.402 c -0.822,-0.401 -1.689,-0.724 -2.574,-0.959 l 0.514,-1.933 c 1.01,0.268 1.998,0.637 2.937,1.094 z m -8.999,-1.177 -0.38,-1.965 c 1.021,-0.197 2.069,-0.297 3.116,-0.297 l 0.063,2 h -0.086 c -0.897,0.001 -1.818,0.089 -2.713,0.262 z" />
				</g>
			</g>
		</g>
		<g
   id="g597">
			<g
   id="g585">
				<path
   style="fill:#111111"
   inkscape:connector-curvature="0"
   id="path583"
   d="m 181.731,213.14 h -7.882 c -0.754,0 -1.464,-0.294 -1.998,-0.827 -0.534,-0.534 -0.827,-1.243 -0.827,-1.998 v -3.772 c -2.071,-0.553 -4.058,-1.364 -5.921,-2.421 l -2.658,2.658 c -1.067,1.066 -2.927,1.066 -3.995,0 l -5.573,-5.574 c -1.102,-1.102 -1.102,-2.894 0,-3.994 l 2.668,-2.668 c -1.075,-1.857 -1.904,-3.835 -2.475,-5.899 h -3.759 c -1.558,0 -2.825,-1.267 -2.825,-2.824 v -7.883 c 0,-1.558 1.267,-2.824 2.825,-2.824 h 3.773 c 0.553,-2.072 1.365,-4.059 2.421,-5.921 l -2.658,-2.658 c -1.101,-1.102 -1.101,-2.893 0,-3.994 l 5.575,-5.574 c 1.066,-1.066 2.928,-1.067 3.995,10e-4 l 2.667,2.667 c 1.856,-1.074 3.835,-1.904 5.899,-2.475 v -3.76 c 0,-1.557 1.267,-2.824 2.824,-2.824 h 7.882 c 1.557,0 2.824,1.268 2.824,2.824 v 3.773 c 2.072,0.554 4.058,1.365 5.922,2.422 l 2.657,-2.658 c 1.067,-1.067 2.928,-1.066 3.995,0 l 5.574,5.573 c 1.101,1.102 1.101,2.894 0,3.995 l -2.668,2.668 c 1.074,1.855 1.904,3.834 2.476,5.898 h 3.758 c 1.557,0 2.824,1.268 2.824,2.824 v 7.883 c 0,1.557 -1.267,2.824 -2.824,2.824 h -3.773 c -0.553,2.072 -1.365,4.059 -2.421,5.922 l 2.658,2.658 c 0.534,0.533 0.827,1.242 0.827,1.996 0,0.755 -0.293,1.465 -0.827,1.998 l -5.574,5.572 c -1.064,1.068 -2.927,1.068 -3.994,0 l -2.668,-2.667 c -1.857,1.075 -3.835,1.904 -5.899,2.476 v 3.759 c 0,1.557 -1.267,2.824 -2.825,2.824 z m -16.939,-11.536 0.671,0.409 c 2.104,1.279 4.388,2.213 6.79,2.774 l 0.772,0.181 v 5.347 c 0,0.22 0.085,0.427 0.241,0.583 0.155,0.155 0.362,0.241 0.583,0.241 h 7.882 c 0.455,0 0.824,-0.37 0.824,-0.824 v -5.319 l 0.764,-0.186 c 2.391,-0.581 4.667,-1.535 6.763,-2.838 l 0.673,-0.418 3.781,3.779 c 0.313,0.313 0.854,0.313 1.165,0.001 l 5.576,-5.574 c 0.155,-0.155 0.241,-0.362 0.241,-0.583 0,-0.22 -0.085,-0.427 -0.241,-0.582 l -3.762,-3.762 0.409,-0.671 c 1.28,-2.103 2.214,-4.387 2.776,-6.789 l 0.18,-0.772 h 5.347 c 0.455,0 0.824,-0.369 0.824,-0.824 v -7.883 c 0,-0.455 -0.369,-0.824 -0.824,-0.824 h -5.318 l -0.186,-0.764 c -0.583,-2.392 -1.537,-4.668 -2.84,-6.763 l -0.418,-0.674 3.781,-3.78 c 0.321,-0.322 0.321,-0.846 0,-1.167 l -5.573,-5.573 c -0.312,-0.312 -0.855,-0.312 -1.167,0 l -3.76,3.76 -0.671,-0.408 c -2.104,-1.279 -4.388,-2.214 -6.789,-2.775 l -0.773,-0.18 v -5.348 c 0,-0.454 -0.369,-0.824 -0.824,-0.824 h -7.882 c -0.455,0 -0.824,0.37 -0.824,0.824 v 5.318 l -0.764,0.186 c -2.393,0.582 -4.668,1.537 -6.763,2.839 l -0.662,0.411 -0.561,-0.542 -3.231,-3.231 c -0.312,-0.312 -0.855,-0.311 -1.165,0 l -5.575,5.574 c -0.321,0.321 -0.321,0.844 0,1.166 l 3.761,3.76 -0.409,0.672 c -1.279,2.102 -2.213,4.387 -2.775,6.789 l -0.18,0.772 h -5.347 c -0.455,0 -0.825,0.37 -0.825,0.824 v 7.883 c 0,0.454 0.37,0.824 0.825,0.824 h 5.317 l 0.187,0.764 c 0.582,2.392 1.537,4.668 2.838,6.764 l 0.418,0.674 -3.78,3.78 c -0.321,0.321 -0.321,0.845 0,1.166 l 5.574,5.574 c 0.311,0.311 0.854,0.311 1.166,0 z" />
			</g>
			<g
   id="g589">
				<path
   style="clip-rule:evenodd;fill:#ea572e;fill-rule:evenodd"
   inkscape:connector-curvature="0"
   id="path587"
   d="m 177.77,202.09 c 11.173,0 20.231,-9.061 20.231,-20.233 0,-11.174 -9.059,-20.231 -20.231,-20.231 -11.174,0 -20.233,9.058 -20.233,20.231 0,11.172 9.059,20.233 20.233,20.233 z" />
			</g>
			<g
   id="g595">
				<g
   id="g593">
					<path
   style="fill:#111111"
   inkscape:connector-curvature="0"
   id="path591"
   d="m 177.779,198.178 -0.032,-2 h 0.032 c 0.912,0 1.824,-0.086 2.708,-0.256 l 0.377,1.965 c -1.009,0.193 -2.047,0.291 -3.085,0.291 z m -4.171,-0.537 c -1.011,-0.268 -1.999,-0.633 -2.938,-1.088 l 0.872,-1.801 c 0.824,0.399 1.69,0.721 2.577,0.955 z m 11.221,-1.06 -0.864,-1.804 c 0.824,-0.396 1.616,-0.873 2.352,-1.421 l 1.195,1.604 c -0.84,0.624 -1.742,1.17 -2.683,1.621 z m -17.649,-2.313 c -0.793,-0.678 -1.526,-1.437 -2.176,-2.252 l 1.564,-1.246 c 0.571,0.717 1.214,1.382 1.911,1.979 z m 23.334,-2.202 -1.56,-1.252 c 0.574,-0.716 1.082,-1.489 1.508,-2.299 l 1.771,0.931 c -0.487,0.923 -1.065,1.805 -1.719,2.62 z m -27.672,-3.621 c -0.422,-0.956 -0.752,-1.957 -0.983,-2.975 l 1.95,-0.441 c 0.202,0.893 0.492,1.77 0.863,2.609 z m 30.843,-2.912 -1.949,-0.447 c 0.206,-0.891 0.325,-1.809 0.357,-2.727 l 1.999,0.068 c -0.037,1.048 -0.174,2.093 -0.407,3.106 z m -30.22,-4.149 -2,-0.066 c 0.035,-1.048 0.17,-2.093 0.4,-3.105 l 1.95,0.444 c -0.201,0.888 -0.319,1.806 -0.35,2.727 z m 28.29,-2.671 c -0.2,-0.893 -0.489,-1.771 -0.857,-2.611 l 1.832,-0.804 c 0.42,0.958 0.749,1.96 0.977,2.978 z m -26.672,-3.489 -1.772,-0.928 c 0.484,-0.924 1.06,-1.806 1.713,-2.623 l 1.563,1.249 c -0.574,0.717 -1.08,1.492 -1.504,2.302 z m 23.925,-2.257 c -0.57,-0.718 -1.211,-1.385 -1.908,-1.983 l 1.304,-1.517 c 0.792,0.681 1.522,1.439 2.17,2.257 z m -19.79,-2.592 -1.196,-1.604 c 0.839,-0.625 1.74,-1.172 2.678,-1.625 l 0.868,1.802 c -0.823,0.398 -1.614,0.876 -2.35,1.427 z m 14.824,-1.401 c -0.823,-0.4 -1.689,-0.724 -2.575,-0.959 l 0.514,-1.933 c 1.01,0.268 1.998,0.637 2.937,1.094 z m -9,-1.177 -0.38,-1.965 c 1.021,-0.196 2.07,-0.297 3.117,-0.297 l 0.063,2 h -0.086 c -0.897,0 -1.818,0.088 -2.714,0.262 z" />
				</g>
			</g>
		</g>
		<g
   id="g607">
			<path
   style="fill:#7c7e82"
   inkscape:connector-curvature="0"
   id="path599"
   d="m 653.391,260.091 h -2.094 c -0.284,-1.169 -0.751,-2.267 -1.368,-3.26 l 0.007,-0.007 1.48,-1.48 c 0.329,-0.33 0.329,-0.863 0,-1.193 l -2.575,-2.575 c -0.329,-0.329 -0.863,-0.329 -1.192,0 l -1.48,1.481 c -1.028,-0.626 -2.134,-1.072 -3.273,-1.338 v -0.01 -2.095 c 0,-0.466 -0.377,-0.843 -0.843,-0.843 h -3.643 c -0.466,0 -0.843,0.377 -0.843,0.843 v 2.095 c -1.169,0.283 -2.266,0.75 -3.26,1.367 l -0.007,-0.006 -1.481,-1.481 c -0.329,-0.329 -0.863,-0.329 -1.192,0 l -2.575,2.575 c -0.329,0.33 -0.329,0.863 0,1.192 l 1.48,1.481 c -0.625,1.027 -1.071,2.133 -1.337,3.272 h -0.01 -2.095 c -0.466,0 -0.844,0.377 -0.844,0.843 v 3.643 c 0,0.466 0.378,0.844 0.844,0.844 h 2.094 c 0.284,1.168 0.751,2.266 1.368,3.26 l -0.006,0.006 -1.481,1.481 c -0.329,0.329 -0.329,0.863 0,1.192 l 2.575,2.576 c 0.33,0.328 0.863,0.328 1.192,0 l 1.481,-1.481 c 1.027,0.626 2.133,1.071 3.272,1.337 v 0.01 2.096 c 0,0.465 0.377,0.842 0.843,0.842 h 3.643 c 0.466,0 0.843,-0.377 0.843,-0.842 v -2.095 c 1.169,-0.284 2.266,-0.751 3.26,-1.368 l 0.007,0.006 1.481,1.482 c 0.329,0.328 0.863,0.329 1.192,0 l 2.575,-2.576 c 0.33,-0.329 0.33,-0.863 0,-1.192 l -1.48,-1.481 c 0.625,-1.027 1.071,-2.133 1.338,-3.271 h 0.009 2.095 c 0.466,0 0.844,-0.378 0.844,-0.844 v -3.643 c -10e-4,-0.465 -0.379,-0.843 -0.844,-0.843 z" />
			<g
   id="g605">
				<g
   id="g603">
					<path
   style="fill:#111111"
   inkscape:connector-curvature="0"
   id="path601"
   d="m 640.245,270.844 -0.041,-2 h 0.041 c 0.911,0 1.787,-0.195 2.603,-0.582 l 0.857,1.807 c -1.086,0.515 -2.25,0.775 -3.46,0.775 z m -4.582,-1.425 c -0.992,-0.684 -1.833,-1.597 -2.431,-2.641 l 1.734,-0.994 c 0.45,0.786 1.084,1.474 1.831,1.988 z m 11.549,-2.56 -1.723,-1.016 c 0.465,-0.79 0.739,-1.656 0.814,-2.572 l 1.994,0.164 c -0.101,1.22 -0.465,2.372 -1.085,3.424 z m -13.027,-4.568 -1.994,-0.15 c 0.092,-1.218 0.45,-2.373 1.065,-3.431 l 1.729,1.006 c -0.463,0.794 -0.731,1.661 -0.8,2.575 z m 11.356,-2.516 c -0.446,-0.789 -1.075,-1.48 -1.819,-2 l 1.145,-1.639 c 0.987,0.688 1.822,1.606 2.415,2.654 z m -7.93,-2.492 -0.867,-1.803 c 1.099,-0.527 2.276,-0.796 3.501,-0.796 l 0.082,1.001 -0.082,0.999 c -0.923,10e-4 -1.808,0.202 -2.634,0.599 z" />
				</g>
			</g>
		</g>
		<g
   id="g617">
			<path
   style="fill:#7c7e82"
   inkscape:connector-curvature="0"
   id="path609"
   d="m 343.722,164.725 h -2.094 c -0.284,-1.168 -0.751,-2.266 -1.368,-3.26 l 0.007,-0.007 1.481,-1.481 c 0.33,-0.328 0.33,-0.863 0,-1.191 l -2.576,-2.576 c -0.329,-0.329 -0.863,-0.329 -1.192,0 l -1.48,1.48 c -1.027,-0.625 -2.133,-1.07 -3.272,-1.337 v -0.01 -2.095 c 0,-0.465 -0.378,-0.844 -0.843,-0.844 h -3.643 c -0.466,0 -0.843,0.379 -0.843,0.844 v 2.094 c -1.168,0.285 -2.266,0.752 -3.26,1.369 l -0.007,-0.008 -1.481,-1.48 c -0.329,-0.329 -0.863,-0.329 -1.192,0 l -2.576,2.576 c -0.329,0.328 -0.329,0.863 0,1.191 l 1.481,1.481 c -0.625,1.027 -1.071,2.134 -1.337,3.272 h -0.01 -2.095 c -0.465,0 -0.843,0.377 -0.843,0.844 v 3.643 c 0,0.465 0.377,0.842 0.843,0.842 h 2.095 c 0.284,1.169 0.75,2.267 1.368,3.26 l -0.007,0.008 -1.481,1.48 c -0.329,0.33 -0.329,0.863 0,1.192 l 2.576,2.575 c 0.33,0.33 0.863,0.33 1.192,0 l 1.481,-1.48 c 1.027,0.625 2.133,1.071 3.272,1.338 v 0.01 2.094 c 0,0.466 0.377,0.844 0.843,0.844 h 3.643 c 0.465,0 0.843,-0.377 0.843,-0.844 v -2.094 c 1.168,-0.284 2.266,-0.751 3.26,-1.368 l 0.007,0.007 1.481,1.48 c 0.329,0.33 0.863,0.33 1.192,0 l 2.576,-2.575 c 0.329,-0.329 0.329,-0.862 0,-1.192 l -1.481,-1.48 c 0.625,-1.027 1.072,-2.133 1.338,-3.273 h 0.01 2.094 c 0.466,0 0.843,-0.377 0.843,-0.842 v -3.643 c -0.002,-0.467 -0.379,-0.844 -0.845,-0.844 z" />
			<g
   id="g615">
				<g
   id="g613">
					<path
   style="fill:#111111"
   inkscape:connector-curvature="0"
   id="path611"
   d="m 330.576,175.479 -0.041,-2 h 0.041 c 0.911,0 1.787,-0.196 2.603,-0.583 l 0.857,1.808 c -1.086,0.514 -2.25,0.775 -3.46,0.775 z m -4.582,-1.426 c -0.992,-0.684 -1.833,-1.597 -2.431,-2.641 l 1.734,-0.994 c 0.45,0.786 1.084,1.474 1.831,1.988 z m 11.549,-2.56 -1.723,-1.015 c 0.465,-0.791 0.739,-1.656 0.814,-2.573 l 1.994,0.165 c -0.101,1.219 -0.465,2.371 -1.085,3.423 z m -13.027,-4.567 -1.994,-0.15 c 0.092,-1.219 0.45,-2.373 1.065,-3.432 l 1.729,1.006 c -0.462,0.795 -0.731,1.661 -0.8,2.576 z m 11.356,-2.516 c -0.446,-0.789 -1.075,-1.48 -1.819,-2 l 1.145,-1.64 c 0.987,0.688 1.822,1.606 2.415,2.655 z m -7.93,-2.492 -0.867,-1.803 c 1.099,-0.528 2.276,-0.797 3.501,-0.797 l 0.082,1.001 -0.082,0.999 c -0.922,0 -1.808,0.202 -2.634,0.6 z" />
				</g>
			</g>
		</g>
		<g
   id="g650">
			<g
   id="g631">
				<g
   id="g621">
					<path
   style="fill:#111111"
   inkscape:connector-curvature="0"
   id="path619"
   d="m 268.591,189.27 0.07,-2.17 c -0.865,-0.028 -1.746,-0.094 -2.618,-0.194 l -0.248,2.157 c 0.93,0.107 1.871,0.176 2.796,0.207 z" />
				</g>
				<g
   id="g625">
					<path
   style="fill:#111111"
   inkscape:connector-curvature="0"
   id="path623"
   d="m 254.141,185.529 0.989,-1.932 c 1.544,0.789 3.163,1.459 4.81,1.988 l -0.664,2.066 c -1.759,-0.563 -3.487,-1.278 -5.135,-2.122 z m -6.807,-4.585 c -1.012,-0.875 -1.98,-1.813 -2.879,-2.79 l 1.599,-1.471 c 0.842,0.917 1.75,1.797 2.7,2.617 0.367,0.317 0.74,0.626 1.12,0.924 l -1.344,1.707 c -0.405,-0.32 -0.803,-0.648 -1.196,-0.987 z m -9.388,-13.08 2.013,-0.812 c 0.647,1.604 1.434,3.168 2.337,4.648 l -1.854,1.131 c -0.965,-1.58 -1.805,-3.251 -2.496,-4.967 z m -2.392,-10.346 c -0.038,-0.524 -0.064,-1.051 -0.077,-1.576 l 2.17,-0.054 c 0.013,0.491 0.037,0.981 0.073,1.472 0.09,1.244 0.253,2.491 0.483,3.703 l -2.133,0.404 c -0.246,-1.293 -0.419,-2.622 -0.516,-3.949 z m 0.408,-8.224 c 0.313,-1.82 0.776,-3.632 1.377,-5.382 l 2.054,0.705 c -0.563,1.641 -0.998,3.338 -1.292,5.045 z m 62.351,-8.917 1.932,-0.991 c 0.845,1.646 1.56,3.374 2.124,5.138 l -2.068,0.662 c -0.529,-1.651 -1.197,-3.268 -1.988,-4.809 z m -58.216,-2.531 c 0.928,-1.607 1.991,-3.146 3.16,-4.572 l 1.679,1.376 c -1.094,1.335 -2.089,2.776 -2.958,4.282 z m 51.279,-6.52 1.463,-1.604 c 1.373,1.252 2.648,2.617 3.792,4.06 l -1.701,1.35 c -1.071,-1.352 -2.267,-2.632 -3.554,-3.806 z m -43.413,-2.772 c 1.431,-1.182 2.965,-2.251 4.559,-3.179 l 1.092,1.876 c -1.493,0.869 -2.929,1.87 -4.269,2.977 z m 33.762,-3.306 0.813,-2.014 c 1.712,0.691 3.383,1.53 4.966,2.492 l -1.126,1.855 c -1.484,-0.899 -3.049,-1.685 -4.653,-2.333 z m -23.139,-2.646 c 1.744,-0.598 3.556,-1.059 5.384,-1.369 l 0.364,2.141 c -1.713,0.291 -3.41,0.723 -5.044,1.283 z m 11.977,0.324 0.055,-2.17 c 1.849,0.047 3.708,0.246 5.527,0.594 l -0.408,2.134 c -1.703,-0.327 -3.444,-0.513 -5.174,-0.558 z" />
				</g>
				<g
   id="g629">
					<path
   style="fill:#111111"
   inkscape:connector-curvature="0"
   id="path627"
   d="m 301.795,153.967 2.17,-0.074 -0.01,-0.389 c -0.008,-0.326 -0.017,-0.65 -0.041,-0.979 -0.036,-0.479 -0.08,-0.953 -0.134,-1.426 l -2.157,0.246 c 0.051,0.443 0.093,0.891 0.125,1.338 0.022,0.292 0.028,0.583 0.036,0.874 z" />
				</g>
			</g>
			<path
   style="fill:#111111"
   inkscape:connector-curvature="0"
   id="path633"
   d="m 294.005,171.09 c -0.669,1.009 -1.412,1.988 -2.208,2.91 -0.651,0.758 -1.34,1.48 -2.054,2.156 l 0.005,0.012 -0.614,0.552 c -1.824,1.642 -3.847,3.044 -6.011,4.165 -3.505,1.817 -7.297,2.887 -11.271,3.175 -7.745,0.565 -15.254,-1.927 -21.145,-7.017 -5.892,-5.09 -9.446,-12.156 -10.009,-19.9 -0.559,-7.651 1.952,-15.27 6.974,-21.109 5.092,-5.909 12.172,-9.479 19.94,-10.055 7.746,-0.563 15.257,1.929 21.15,7.016 5.892,5.092 9.447,12.162 10.011,19.908 0.053,0.719 0.081,1.449 0.081,2.168 -0.002,5.722 -1.678,11.261 -4.849,16.019 z m -51.144,-14.106 c 0.521,7.165 3.811,13.705 9.264,18.416 5.452,4.71 12.402,7.017 19.568,6.494 3.679,-0.269 7.188,-1.256 10.43,-2.938 1.805,-0.936 3.504,-2.082 5.059,-3.414 l 0.5,-0.445 c 0.864,-0.769 1.694,-1.613 2.469,-2.515 0.737,-0.854 1.425,-1.761 2.045,-2.695 3.303,-4.956 4.845,-10.847 4.409,-16.827 -0.522,-7.168 -3.813,-13.711 -9.266,-18.424 -5.455,-4.707 -12.405,-7.014 -19.572,-6.493 -7.188,0.532 -13.741,3.838 -18.454,9.306 -4.21,4.896 -6.528,11.119 -6.528,17.523 0.002,0.667 0.028,1.344 0.076,2.012 z" />
			<g
   id="g637">
				
					<rect
   style="fill:#111111"
   id="rect635"
   height="2.171"
   width="5.7399998"
   transform="matrix(0.7072,0.707,-0.707,0.7072,210.3624,-154.6962)"
   y="175.539"
   x="289.078" />
			</g>
			<g
   id="g641">
				
					<rect
   style="fill:#f3a52d"
   id="rect639"
   height="11.94"
   width="42.799"
   transform="matrix(0.7071,0.7071,-0.7071,0.7071,227.5639,-161.8145)"
   y="187.817"
   x="287.70999" />
			</g>
			<g
   id="XMLID_211_">
				<path
   style="fill:#ea572e"
   inkscape:connector-curvature="0"
   d="m 269.457,155.082 -16.32,-13.166 c 5.815,-7.223 15.144,-9.754 23.799,-6.455 z"
   id="XMLID_215_" />
				<path
   style="fill:#3dc7d2"
   inkscape:connector-curvature="0"
   d="m 269.457,155.082 16.327,13.164 c -7.269,9.027 -20.476,10.454 -29.49,3.182 -9.015,-7.269 -10.431,-20.484 -3.157,-29.512 v 0 z"
   id="XMLID_214_" />
				<path
   style="fill:#f3a52d"
   inkscape:connector-curvature="0"
   d="m 269.457,155.082 17.57,-11.481 c 5.062,7.763 4.571,17.421 -1.243,24.646 z"
   id="XMLID_213_" />
				<g
   id="XMLID_212_">
					<path
   style="fill:#111111"
   inkscape:connector-curvature="0"
   id="path646"
   d="m 269.778,156.006 c -0.231,0 -0.462,-0.08 -0.647,-0.238 -0.331,-0.279 -0.443,-0.741 -0.278,-1.142 l 9.168,-22.312 c 0.209,-0.51 0.794,-0.755 1.305,-0.545 5.14,2.111 8.895,5.304 11.82,10.045 0.29,0.471 0.144,1.086 -0.326,1.377 l -20.517,12.666 c -0.161,0.1 -0.343,0.149 -0.525,0.149 z m 9.706,-21.989 -7.61,18.521 17.03,-10.514 c -2.427,-3.629 -5.456,-6.204 -9.42,-8.007 z" />
				</g>
			</g>
		</g>
		<g
   id="g682">
			<g
   id="g654">
				<path
   style="clip-rule:evenodd;fill:#3dc7d2;fill-rule:evenodd"
   inkscape:connector-curvature="0"
   id="path652"
   d="m 604.729,269.691 c -15.059,0 -31.451,11.654 -31.451,31.099 0,29.592 31.526,60.863 31.526,60.863 0,0 31.525,-31.78 31.525,-60.863 0.001,-19.444 -17.399,-31.099 -31.6,-31.099 z m -0.159,47.867 c -9.165,0 -16.813,-7.648 -16.813,-16.813 0,-9.166 7.648,-16.813 16.813,-16.813 9.165,0 16.813,7.647 16.813,16.813 10e-4,9.164 -7.648,16.813 -16.813,16.813 z" />
			</g>
			<g
   id="g658">
				<path
   style="fill:#111111"
   inkscape:connector-curvature="0"
   id="path656"
   d="m 603.028,323.445 c -1.395,-0.113 -2.779,-0.354 -4.115,-0.715 l 0.522,-1.93 c 1.218,0.328 2.48,0.549 3.753,0.65 z m 5.212,-0.175 -0.294,-1.979 c 1.258,-0.186 2.503,-0.49 3.699,-0.902 l 0.652,1.891 c -1.312,0.452 -2.678,0.784 -4.057,0.99 z m -14.176,-2.471 c -1.224,-0.66 -2.395,-1.439 -3.479,-2.313 l 1.255,-1.557 c 0.989,0.797 2.057,1.506 3.174,2.109 z m 22.938,-0.778 -1.066,-1.691 c 1.075,-0.678 2.093,-1.457 3.025,-2.318 l 1.356,1.471 c -1.022,0.943 -2.137,1.796 -3.315,2.538 z m -30.08,-5.246 c -0.86,-1.098 -1.622,-2.279 -2.264,-3.508 l 1.772,-0.926 c 0.586,1.121 1.281,2.197 2.065,3.201 z m 36.801,-1.244 -1.653,-1.125 c 0.715,-1.051 1.335,-2.172 1.845,-3.332 l 1.831,0.803 c -0.559,1.273 -1.24,2.502 -2.023,3.654 z m -40.933,-7.136 c -0.344,-1.344 -0.565,-2.732 -0.658,-4.125 l 1.995,-0.133 c 0.085,1.271 0.287,2.537 0.601,3.762 z m 44.488,-1.508 -1.967,-0.363 c 0.229,-1.24 0.345,-2.518 0.345,-3.795 0,-0.619 -0.027,-1.246 -0.082,-1.861 l 1.992,-0.178 c 0.06,0.676 0.09,1.361 0.09,2.039 0,1.398 -0.127,2.796 -0.378,4.158 z m -42.93,-7.506 -1.975,-0.32 c 0.223,-1.375 0.574,-2.734 1.045,-4.043 l 1.882,0.678 c -0.429,1.191 -0.749,2.431 -0.952,3.685 z m 40.265,-3.174 c -0.396,-1.203 -0.909,-2.377 -1.522,-3.49 l 1.752,-0.965 c 0.673,1.221 1.234,2.508 1.67,3.828 z m -37.198,-4.777 -1.678,-1.088 c 0.756,-1.164 1.625,-2.268 2.583,-3.281 l 1.453,1.375 c -0.875,0.923 -1.669,1.931 -2.358,2.994 z m 32.92,-2.592 c -0.851,-0.945 -1.791,-1.816 -2.797,-2.592 l 1.221,-1.584 c 1.101,0.848 2.132,1.803 3.063,2.838 z m -26.917,-3.463 -1.103,-1.668 c 1.161,-0.768 2.399,-1.432 3.681,-1.973 l 0.779,1.842 c -1.169,0.494 -2.297,1.1 -3.357,1.799 z m 20.041,-1.582 c -1.153,-0.525 -2.363,-0.945 -3.598,-1.25 l 0.479,-1.941 c 1.354,0.334 2.683,0.795 3.948,1.371 z m -12.118,-1.555 -0.337,-1.971 c 1.267,-0.217 2.561,-0.326 3.848,-0.326 0.006,0 0.012,0 0.018,0 l 0.294,0.002 -0.021,2 -0.274,-0.002 c -0.005,0 -0.011,0 -0.016,0 -1.176,0 -2.357,0.1 -3.512,0.297 z" />
			</g>
			<g
   id="g680">
				<g
   id="g664">
					<g
   id="g662">
						<path
   style="clip-rule:evenodd;fill:#f3a52d;fill-rule:evenodd"
   inkscape:connector-curvature="0"
   id="path660"
   d="m 604.804,314.765 c 7.81,0 14.142,-6.333 14.142,-14.142 0,-7.811 -6.332,-14.141 -14.142,-14.141 -7.81,0 -14.142,6.33 -14.142,14.141 0,7.809 6.332,14.142 14.142,14.142 z" />
					</g>
				</g>
				<g
   id="g678">
					<g
   id="g668">
						<path
   style="fill:#111111"
   inkscape:connector-curvature="0"
   id="path666"
   d="m 605.934,307.977 h -1.604 c -1.892,0 -3.43,-1.537 -3.43,-3.428 v -0.748 h 2 v 0.748 c 0,0.787 0.642,1.428 1.43,1.428 h 1.604 c 0.729,0 1.321,-0.592 1.321,-1.32 v -1.531 c 0,-0.828 -0.673,-1.502 -1.5,-1.502 h -2.126 c -1.807,0 -3.276,-1.471 -3.276,-3.277 V 297.6 c 0,-2.174 1.769,-3.943 3.941,-3.943 h 1.026 c 1.859,0 3.372,1.514 3.372,3.371 v 1.213 h -2 v -1.213 c 0,-0.756 -0.615,-1.371 -1.372,-1.371 h -1.026 c -1.07,0 -1.941,0.871 -1.941,1.943 v 0.746 c 0,0.705 0.572,1.277 1.276,1.277 h 2.126 c 1.93,0 3.5,1.57 3.5,3.502 v 1.531 c 0,1.832 -1.489,3.321 -3.321,3.321 z" />
					</g>
					<g
   id="g672">
						<rect
   style="fill:#111111"
   id="rect670"
   height="3.1800001"
   width="2"
   y="306.97699"
   x="603.80402" />
					</g>
					<g
   id="g676">
						<rect
   style="fill:#111111"
   id="rect674"
   height="3.566"
   width="2"
   y="291.09"
   x="603.80402" />
					</g>
				</g>
			</g>
		</g>
		<g
   id="g686">
			<rect
   style="fill:#111111"
   id="rect684"
   height="2"
   width="19"
   y="220.14999"
   x="691.42999" />
		</g>
		<g
   id="g690">
			<rect
   style="fill:#111111"
   id="rect688"
   height="2"
   width="19"
   y="345.853"
   x="50.308998" />
		</g>
		<g
   id="g694">
			<rect
   style="fill:#111111"
   id="rect692"
   height="2"
   width="19"
   y="244.797"
   x="66.916" />
		</g>
		<g
   id="g708">
			<g
   id="g698">
				<rect
   style="fill:#111111"
   id="rect696"
   height="2"
   width="18.999001"
   y="161.41299"
   x="93.792" />
			</g>
			<g
   id="g702">
				<rect
   style="fill:#111111"
   id="rect700"
   height="2"
   width="8.5"
   y="161.41299"
   x="116.458" />
			</g>
			<g
   id="g706">
				<path
   style="fill:#111111"
   inkscape:connector-curvature="0"
   id="path704"
   d="m 132.865,166.674 c -2.349,0 -4.26,-1.912 -4.26,-4.261 0,-2.349 1.912,-4.259 4.26,-4.259 2.348,0 4.26,1.91 4.26,4.259 0,2.349 -1.912,4.261 -4.26,4.261 z m 0,-6.52 c -1.246,0 -2.26,1.013 -2.26,2.259 0,1.246 1.014,2.261 2.26,2.261 1.246,0 2.26,-1.015 2.26,-2.261 0,-1.246 -1.014,-2.259 -2.26,-2.259 z" />
			</g>
		</g>
		<g
   id="g712">
			<path
   style="fill:#111111"
   inkscape:connector-curvature="0"
   id="path710"
   d="m 496.48,136.426 c -0.762,0 -1.477,-0.297 -2.015,-0.835 l -2.032,-2.032 c -1.11,-1.111 -1.11,-2.918 0,-4.028 l 2.032,-2.032 c 1.075,-1.076 2.951,-1.077 4.028,0 l 2.032,2.032 c 1.111,1.11 1.111,2.917 0,4.028 l -2.032,2.032 c -0.537,0.538 -1.252,0.835 -2.013,0.835 z m 0,-7.762 c -0.228,0 -0.44,0.088 -0.601,0.248 l -2.032,2.032 c -0.331,0.331 -0.331,0.869 0,1.2 l 2.032,2.032 c 0.319,0.319 0.879,0.32 1.2,0 l 2.032,-2.032 c 0.331,-0.331 0.331,-0.869 0,-1.2 l -2.032,-2.032 c -0.159,-0.16 -0.372,-0.248 -0.599,-0.248 z" />
		</g>
		<g
   id="g716">
			<path
   style="fill:#111111"
   inkscape:connector-curvature="0"
   id="path714"
   d="m 287.952,207.365 c -0.761,0 -1.477,-0.296 -2.014,-0.834 l -2.033,-2.033 c -1.111,-1.11 -1.111,-2.918 0,-4.027 l 2.033,-2.033 c 1.075,-1.076 2.951,-1.076 4.027,0 l 2.033,2.033 c 1.111,1.109 1.111,2.917 0,4.027 l -2.033,2.033 c -0.538,0.538 -1.253,0.834 -2.013,0.834 z m 0,-7.761 c -0.227,0 -0.44,0.088 -0.6,0.248 l -2.033,2.033 c -0.33,0.33 -0.33,0.869 0,1.199 l 2.033,2.033 c 0.319,0.318 0.878,0.32 1.2,0 l 2.033,-2.033 c 0.33,-0.33 0.33,-0.869 0,-1.199 l -2.033,-2.033 c -0.161,-0.161 -0.374,-0.248 -0.6,-0.248 z" />
		</g>
		<g
   id="g720">
			<path
   style="fill:#111111"
   inkscape:connector-curvature="0"
   id="path718"
   d="m 311.664,130.113 -1.414,-1.414 3.5,-3.499 c 0.728,-0.728 1.695,-1.128 2.724,-1.128 0,0 0.002,0 0.003,0 1.03,0 1.999,0.402 2.727,1.133 l 1.344,1.348 c 0.363,0.365 0.815,0.56 1.365,0.545 0.517,-0.016 0.99,-0.236 1.333,-0.623 l 1.252,-1.41 c 0.724,-0.814 1.764,-1.287 2.854,-1.295 1.073,-0.002 2.137,0.448 2.873,1.254 l 1.32,1.444 c 0.365,0.4 0.887,0.626 1.406,0.603 0.542,-0.011 1.032,-0.246 1.381,-0.66 l 1.052,-1.252 c 0.708,-0.844 1.746,-1.346 2.848,-1.375 1.082,-0.035 2.166,0.416 2.918,1.221 l 1.388,1.485 c 0.369,0.396 0.901,0.604 1.411,0.587 0.542,-0.018 1.029,-0.256 1.374,-0.674 l 0.998,-1.213 c 0.69,-0.838 1.707,-1.348 2.79,-1.4 1.095,-0.054 2.144,0.359 2.909,1.125 l 3.736,3.736 -1.414,1.414 -3.736,-3.736 c -0.374,-0.374 -0.859,-0.564 -1.399,-0.541 -0.528,0.025 -1.005,0.265 -1.342,0.674 l -0.998,1.213 c -0.706,0.856 -1.747,1.367 -2.855,1.401 -1.112,0.017 -2.178,-0.411 -2.935,-1.221 l -1.388,-1.485 c -0.367,-0.393 -0.857,-0.597 -1.403,-0.586 -0.538,0.014 -1.024,0.248 -1.37,0.66 l -1.052,1.252 c -0.714,0.852 -1.76,1.352 -2.87,1.375 -1.096,0.01 -2.176,-0.434 -2.925,-1.254 l -1.32,-1.443 c -0.358,-0.394 -0.894,-0.63 -1.382,-0.604 -0.532,0.004 -1.02,0.225 -1.372,0.623 l -1.252,1.41 c -0.703,0.791 -1.714,1.264 -2.771,1.293 -1.059,0.028 -2.093,-0.382 -2.839,-1.131 l -1.344,-1.348 c -0.352,-0.352 -0.808,-0.583 -1.313,-0.545 -0.494,0 -0.96,0.192 -1.31,0.542 z" />
		</g>
		<g
   id="g724">
			<rect
   style="fill:#111111"
   id="rect722"
   height="2"
   width="19"
   y="191.5"
   x="325.565" />
		</g>
		<g
   id="g742">
			<g
   id="g728">
				<rect
   style="fill:#111111"
   id="rect726"
   height="19.867001"
   width="2"
   y="124.102"
   x="472.965" />
			</g>
			<g
   id="g732">
				<rect
   style="fill:#111111"
   id="rect730"
   height="15.453"
   width="2"
   y="128.51601"
   x="465.80899" />
			</g>
			<g
   id="g736">
				<rect
   style="fill:#111111"
   id="rect734"
   height="11.146"
   width="2"
   y="132.823"
   x="458.65201" />
			</g>
			<g
   id="g740">
				<rect
   style="fill:#111111"
   id="rect738"
   height="6.9549999"
   width="2"
   y="137.01401"
   x="451.496" />
			</g>
		</g>
		<g
   id="g756">
			<g
   id="g746">
				<rect
   style="fill:#111111"
   id="rect744"
   height="2"
   width="19"
   y="138.33701"
   x="206.149" />
			</g>
			<g
   id="g750">
				<rect
   style="fill:#111111"
   id="rect748"
   height="2"
   width="8.5"
   y="138.33701"
   x="193.983" />
			</g>
			<g
   id="g754">
				<path
   style="fill:#111111"
   inkscape:connector-curvature="0"
   id="path752"
   d="m 186.076,135.077 c 2.349,0 4.26,1.911 4.26,4.26 0,2.349 -1.911,4.26 -4.26,4.26 -2.349,0 -4.26,-1.911 -4.26,-4.26 0,-2.349 1.912,-4.26 4.26,-4.26 z m 0,6.52 c 1.246,0 2.26,-1.014 2.26,-2.26 0,-1.246 -1.014,-2.26 -2.26,-2.26 -1.246,0 -2.26,1.014 -2.26,2.26 0,1.246 1.014,2.26 2.26,2.26 z" />
			</g>
		</g>
		<g
   id="g760">
			<polygon
   style="fill:#111111"
   id="polygon758"
   points="570.979,124.158 579.35,130.639 578.125,132.221 571.104,126.785 564.542,132.952 557.035,126.734 550.29,132.953 542.969,126.75 536.062,132.773 528.917,127.225 522.4,132.27 521.176,130.688 528.919,124.693 535.988,130.184 542.95,124.112 550.234,130.285 556.965,124.078 564.459,130.286 " />
		</g>
		<g
   id="g764">
			<rect
   style="fill:#111111"
   id="rect762"
   height="2"
   width="19"
   y="341.02399"
   x="718.30103" />
		</g>
		<g
   id="g768">
			<rect
   style="fill:#111111"
   id="rect766"
   height="2"
   width="19"
   y="148.53799"
   x="540.03699" />
		</g>
		<g
   id="g772">
			<rect
   style="fill:#111111"
   id="rect770"
   height="2"
   width="19"
   y="197.847"
   x="231.12" />
		</g>
		<g
   id="g776">
			<path
   style="fill:#111111"
   inkscape:connector-curvature="0"
   id="path774"
   d="m 724.376,319.217 c -0.762,0 -1.477,-0.295 -2.015,-0.834 l -2.032,-2.031 c -1.111,-1.111 -1.111,-2.918 0,-4.028 l 2.032,-2.032 c 1.076,-1.076 2.952,-1.076 4.028,0 l 2.032,2.032 c 1.111,1.11 1.111,2.917 0,4.028 l -2.032,2.031 c -0.537,0.539 -1.252,0.834 -2.013,0.834 z m 0,-7.76 c -0.228,0 -0.44,0.088 -0.601,0.248 l -2.032,2.031 c -0.331,0.332 -0.331,0.87 0,1.201 l 2.032,2.031 c 0.32,0.32 0.879,0.321 1.2,0 l 2.032,-2.031 c 0.331,-0.331 0.331,-0.869 0,-1.201 l -2.032,-2.031 c -0.16,-0.16 -0.372,-0.248 -0.599,-0.248 z" />
		</g>
		<g
   id="g780">
			<path
   style="fill:#111111"
   inkscape:connector-curvature="0"
   id="path778"
   d="m 659.03,130.768 c -0.761,0 -1.476,-0.296 -2.015,-0.834 l -2.032,-2.032 c -1.11,-1.11 -1.11,-2.918 0,-4.028 l 2.032,-2.032 c 1.076,-1.076 2.953,-1.076 4.028,0 l 2.032,2.032 c 1.111,1.11 1.111,2.918 0,4.028 l -2.032,2.032 c -0.537,0.538 -1.252,0.834 -2.013,0.834 z m 0,-7.761 c -0.228,0 -0.44,0.088 -0.601,0.248 l -2.032,2.032 c -0.331,0.331 -0.331,0.869 0,1.2 l 2.032,2.032 c 0.32,0.319 0.879,0.32 1.2,0 l 2.032,-2.032 c 0.331,-0.331 0.331,-0.869 0,-1.2 l -2.032,-2.032 c -0.159,-0.16 -0.372,-0.248 -0.599,-0.248 z" />
		</g>
		<g
   id="g784">
			<path
   style="fill:#111111"
   inkscape:connector-curvature="0"
   id="path782"
   d="m 347.368,153.404 c -0.761,0 -1.476,-0.295 -2.014,-0.834 l -2.033,-2.031 c -1.11,-1.111 -1.11,-2.918 0,-4.028 l 2.033,-2.032 c 1.076,-1.076 2.953,-1.076 4.028,0 l 2.033,2.032 c 1.11,1.11 1.11,2.917 0,4.028 l -2.033,2.031 c -0.538,0.539 -1.253,0.834 -2.014,0.834 z m 0,-7.759 c -0.227,0 -0.44,0.088 -0.6,0.248 l -2.033,2.031 c -0.33,0.332 -0.33,0.87 0,1.201 l 2.033,2.031 c 0.32,0.32 0.879,0.321 1.2,0 l 2.033,-2.031 c 0.331,-0.331 0.331,-0.869 0,-1.201 l -2.033,-2.031 c -0.16,-0.161 -0.373,-0.248 -0.6,-0.248 z" />
		</g>
		<g
   id="g788">
			<path
   style="fill:#111111"
   inkscape:connector-curvature="0"
   id="path786"
   d="m 61.568,266.757 c -0.761,0 -1.476,-0.296 -2.014,-0.834 l -2.033,-2.032 c -1.111,-1.11 -1.111,-2.918 0,-4.028 l 2.033,-2.032 c 1.076,-1.076 2.952,-1.076 4.028,0 l 2.033,2.032 c 1.111,1.11 1.111,2.918 0,4.028 l -2.033,2.032 c -0.538,0.538 -1.253,0.834 -2.014,0.834 z m 0,-7.761 c -0.227,0 -0.44,0.088 -0.6,0.248 l -2.033,2.032 c -0.331,0.331 -0.331,0.869 0,1.2 l 2.033,2.032 c 0.32,0.319 0.879,0.32 1.2,0 l 2.033,-2.032 c 0.331,-0.331 0.331,-0.869 0,-1.2 l -2.033,-2.032 c -0.16,-0.16 -0.373,-0.248 -0.6,-0.248 z" />
		</g>
		<g
   id="g802">
			<g
   id="g792">
				<rect
   style="fill:#111111"
   id="rect790"
   height="2"
   width="18.999001"
   y="286.65201"
   x="680.97803" />
			</g>
			<g
   id="g796">
				<rect
   style="fill:#111111"
   id="rect794"
   height="2"
   width="8.5"
   y="286.65201"
   x="703.64398" />
			</g>
			<g
   id="g800">
				<path
   style="fill:#111111"
   inkscape:connector-curvature="0"
   id="path798"
   d="m 720.051,291.912 c -2.349,0 -4.26,-1.911 -4.26,-4.26 0,-2.35 1.911,-4.26 4.26,-4.26 2.349,0 4.26,1.91 4.26,4.26 0,2.349 -1.912,4.26 -4.26,4.26 z m 0,-6.519 c -1.246,0 -2.26,1.014 -2.26,2.26 0,1.246 1.014,2.26 2.26,2.26 1.246,0 2.26,-1.014 2.26,-2.26 0,-1.246 -1.014,-2.26 -2.26,-2.26 z" />
			</g>
		</g>
		<g
   id="g830">
			<circle
   style="fill:#ffffff"
   id="circle804"
   r="51.487999"
   cy="275.20901"
   cx="294.69901" />
			<g
   id="g808">
				<path
   style="fill:#111111"
   inkscape:connector-curvature="0"
   id="path806"
   d="m 242.211,275.209 c 0,-28.941 23.545,-52.487 52.488,-52.487 28.941,0 52.487,23.546 52.487,52.487 0,28.942 -23.546,52.488 -52.487,52.488 -28.942,0 -52.488,-23.546 -52.488,-52.488 z m 2,0 c 0,27.84 22.649,50.488 50.488,50.488 27.838,0 50.487,-22.648 50.487,-50.488 0,-27.838 -22.649,-50.487 -50.487,-50.487 -27.839,0 -50.488,22.649 -50.488,50.487 z" />
			</g>
			<circle
   style="fill:#ea572e"
   id="circle810"
   r="40.366001"
   cy="275.20901"
   cx="294.69901" />
			<circle
   style="fill:#ffffff"
   id="circle812"
   r="27.306999"
   cy="275.20901"
   cx="294.69901" />
			<g
   id="g816">
				<path
   style="fill:#111111"
   inkscape:connector-curvature="0"
   id="path814"
   d="m 266.392,275.209 c 0,-15.607 12.698,-28.307 28.307,-28.307 15.609,0 28.307,12.699 28.307,28.307 0,15.609 -12.698,28.307 -28.307,28.307 -15.609,0 -28.307,-12.698 -28.307,-28.307 z m 2,0 c 0,14.506 11.801,26.307 26.307,26.307 14.506,0 26.307,-11.801 26.307,-26.307 0,-14.506 -11.801,-26.307 -26.307,-26.307 -14.506,0 -26.307,11.801 -26.307,26.307 z" />
			</g>
			<circle
   style="fill:#ea572e"
   id="circle818"
   r="12.729"
   cy="275.20901"
   cx="294.69901" />
			<g
   id="g828">
				<g
   id="g822">
					<rect
   style="fill:#111111"
   id="rect820"
   height="7.5"
   width="74.219002"
   y="271.45901"
   x="220.48" />
				</g>
				<g
   id="g826">
					<polygon
   style="fill:#111111"
   id="polygon824"
   points="222.331,274.378 210.348,267.146 195.772,267.146 203.834,275.209 195.772,283.273 210.348,283.273 222.331,276.043 " />
				</g>
			</g>
		</g>
		<g
   id="g930">
			<g
   id="g882">
				<g
   id="g838">
					<circle
   style="fill:#e6e6e6"
   id="circle832"
   r="38.706001"
   cy="323.94699"
   cx="347.36801" />
					<circle
   style="fill:#e6e6e6"
   id="circle834"
   r="27.073"
   cy="335.57999"
   cx="373.35901" />
					<circle
   style="fill:#e6e6e6"
   id="circle836"
   r="27.072001"
   cy="332.37399"
   cx="295.26199" />
				</g>
				<circle
   style="fill:#e6e6e6"
   id="circle840"
   r="37.229"
   cy="324.88"
   cx="456.22198" />
				<circle
   style="fill:#e6e6e6"
   id="circle842"
   r="29.346001"
   cy="333.129"
   cx="428.177" />
				<circle
   style="fill:#e6e6e6"
   id="circle844"
   r="29.346001"
   cy="327.01801"
   cx="517.20502" />
				<g
   id="g848">
					<path
   style="fill:#111111"
   inkscape:connector-curvature="0"
   id="path846"
   d="m 309.663,323.947 h -2 c 0,-21.894 17.813,-39.705 39.707,-39.705 16.511,0 31.472,10.395 37.226,25.864 l -1.875,0.697 c -5.465,-14.691 -19.671,-24.562 -35.351,-24.562 -20.793,0.001 -37.707,16.915 -37.707,37.706 z" />
				</g>
				<g
   id="g852">
					<path
   style="fill:#111111"
   inkscape:connector-curvature="0"
   id="path850"
   d="m 347.369,363.653 c -16.543,0 -31.513,-10.419 -37.251,-25.928 l 1.876,-0.693 c 5.449,14.727 19.665,24.621 35.375,24.621 4.776,0 9.431,-0.881 13.833,-2.619 l 0.735,1.861 c -4.638,1.831 -9.54,2.758 -14.568,2.758 z" />
				</g>
				<g
   id="g856">
					<path
   style="fill:#111111"
   inkscape:connector-curvature="0"
   id="path854"
   d="m 398.353,328.134 c -3.262,-10.966 -13.54,-18.625 -24.993,-18.625 -9.11,0 -17.684,4.859 -22.376,12.682 l -1.715,-1.029 c 5.051,-8.421 14.283,-13.652 24.091,-13.652 12.332,0 23.397,8.247 26.91,20.055 z" />
				</g>
				<g
   id="g860">
					<path
   style="fill:#111111"
   inkscape:connector-curvature="0"
   id="path858"
   d="m 373.359,363.653 c -12.412,0 -23.498,-8.315 -26.96,-20.222 l 1.921,-0.559 c 3.214,11.058 13.511,18.78 25.039,18.78 12.368,0 23.116,-8.785 25.557,-20.889 l 1.96,0.395 c -2.628,13.035 -14.2,22.495 -27.517,22.495 z" />
				</g>
				<g
   id="g864">
					<path
   style="fill:#111111"
   inkscape:connector-curvature="0"
   id="path862"
   d="m 295.263,360.446 c -15.479,0 -28.073,-12.593 -28.073,-28.072 0,-15.479 12.593,-28.072 28.073,-28.072 5.625,0 11.053,1.658 15.696,4.794 l -1.119,1.658 c -4.311,-2.913 -9.352,-4.452 -14.577,-4.452 -14.376,0 -26.073,11.696 -26.073,26.072 0,14.376 11.696,26.072 26.073,26.072 8.347,0 16.254,-4.046 21.149,-10.822 l 1.621,1.172 c -5.27,7.295 -13.782,11.65 -22.77,11.65 z" />
				</g>
				<g
   id="g868">
					<path
   style="fill:#111111"
   inkscape:connector-curvature="0"
   id="path866"
   d="m 456.222,363.108 c -5.17,0 -10.185,-1.015 -14.904,-3.015 l 0.781,-1.842 c 4.471,1.896 9.223,2.856 14.123,2.856 14.488,0 27.555,-8.599 33.288,-21.905 l 1.836,0.791 c -6.05,14.042 -19.837,23.115 -35.124,23.115 z" />
				</g>
				<g
   id="g872">
					<path
   style="fill:#111111"
   inkscape:connector-curvature="0"
   id="path870"
   d="m 419.994,324.88 h -2 c 0,-21.079 17.148,-38.228 38.228,-38.228 19.694,0 36.044,14.754 38.031,34.32 l -1.99,0.201 c -1.883,-18.54 -17.377,-32.521 -36.041,-32.521 -19.976,0 -36.228,16.252 -36.228,36.228 z" />
				</g>
				<g
   id="g876">
					<path
   style="fill:#111111"
   inkscape:connector-curvature="0"
   id="path874"
   d="m 428.177,363.476 c -16.733,0 -30.347,-13.613 -30.347,-30.347 0,-15.758 11.816,-28.747 27.486,-30.214 l 0.186,1.992 c -14.635,1.369 -25.672,13.502 -25.672,28.222 0,15.631 12.717,28.347 28.347,28.347 6.329,0 12.315,-2.039 17.311,-5.896 l 1.223,1.582 c -5.35,4.13 -11.759,6.314 -18.534,6.314 z" />
				</g>
				<g
   id="g880">
					<path
   style="fill:#111111"
   inkscape:connector-curvature="0"
   id="path878"
   d="m 517.204,357.364 c -14.354,0 -26.856,-10.191 -29.729,-24.232 l 1.959,-0.4 c 2.684,13.114 14.362,22.633 27.771,22.633 15.631,0 28.347,-12.717 28.347,-28.348 0,-15.63 -12.716,-28.346 -28.347,-28.346 -10.342,0 -19.866,5.636 -24.855,14.707 l -1.752,-0.963 c 5.341,-9.712 15.536,-15.744 26.607,-15.744 16.733,0 30.347,13.613 30.347,30.346 -10e-4,16.733 -13.614,30.347 -30.348,30.347 z" />
				</g>
			</g>
			<path
   style="fill:#ffffff"
   inkscape:connector-curvature="0"
   id="path884"
   d="m 533.045,314.86 c -18.213,0 -34.058,10.141 -42.196,25.084 -2.089,-0.438 -4.253,-0.672 -6.473,-0.672 -15.167,0 -27.818,8.756 -30.728,23.064 -1.627,-7.359 -10.168,-12.948 -19.514,-12.948 -1.872,0 -3.676,0.273 -5.396,0.749 v -11.594 h -59.346 v 11.25 c -1.307,-0.265 -2.661,-0.405 -4.046,-0.405 -8.882,0 -16.408,5.192 -19.13,13.152 -3.38,-13.67 -15.722,-23.269 -30.437,-23.269 -2.148,0 -4.245,0.218 -6.272,0.628 -8.146,-14.918 -23.975,-25.04 -42.17,-25.04 -26.52,0 -48.017,21.767 -48.017,48.284 h 361.742 c 0,-26.516 -21.499,-48.283 -48.017,-48.283 z" />
			<circle
   style="fill:#ffffff"
   id="circle886"
   r="24.989"
   cy="331.729"
   cx="364.582" />
			<circle
   style="fill:#ffffff"
   id="circle888"
   r="24.989"
   cy="330.89099"
   cx="435.01999" />
			<g
   id="g892">
				<path
   style="fill:#111111"
   inkscape:connector-curvature="0"
   id="path890"
   d="m 452.672,363.043 c -1.508,-6.821 -9.65,-12.165 -18.537,-12.165 v -2 c 9.95,0 18.759,5.904 20.49,13.733 z" />
			</g>
			<g
   id="g896">
				<path
   style="fill:#111111"
   inkscape:connector-curvature="0"
   id="path894"
   d="m 580.06,363.154 c -0.259,-25.808 -21.349,-46.804 -47.014,-46.804 -17.235,0 -33.067,9.412 -41.319,24.563 -0.211,0.388 -0.65,0.595 -1.083,0.5 -2.062,-0.432 -4.17,-0.65 -6.268,-0.65 -6.872,0 -13.233,1.829 -18.396,5.291 l -1.113,-1.662 c 5.492,-3.683 12.238,-5.629 19.509,-5.629 1.989,0 3.987,0.185 5.951,0.55 8.696,-15.416 24.996,-24.962 42.719,-24.962 26.757,0 48.744,21.885 49.014,48.784 z" />
			</g>
			<g
   id="g900">
				<path
   style="fill:#111111"
   inkscape:connector-curvature="0"
   id="path898"
   d="m 220.319,363.635 h -2 c 0,-27.176 21.989,-49.284 49.017,-49.284 13.66,0 26.34,5.481 35.705,15.436 l -1.457,1.371 c -8.983,-9.548 -21.146,-14.807 -34.248,-14.807 -25.925,0 -47.017,21.212 -47.017,47.284 z" />
			</g>
			<g
   id="g904">
				<path
   style="fill:#111111"
   inkscape:connector-curvature="0"
   id="path902"
   d="m 345.246,363.271 c -2.278,-9.212 -8.974,-16.814 -17.913,-20.339 l 0.733,-1.861 c 9.54,3.762 16.688,11.881 19.121,21.72 z" />
			</g>
			<g
   id="g908">
				<path
   style="fill:#111111"
   inkscape:connector-curvature="0"
   id="path906"
   d="m 347.163,363.354 -1.893,-0.646 c 2.223,-6.499 7.634,-11.411 14.474,-13.141 l 0.49,1.939 c -6.181,1.562 -11.068,5.992 -13.071,11.848 z" />
			</g>
			<g
   id="g916">
				<polygon
   style="fill:#ffffff"
   id="polygon910"
   points="375.897,362.398 424.854,362.398 416.946,275.922 383.804,275.922 " />
				<g
   id="g914">
					<path
   style="fill:#111111"
   inkscape:connector-curvature="0"
   id="path912"
   d="m 381.623,311.149 -1.991,-0.182 3.177,-34.746 c 0.047,-0.515 0.479,-0.909 0.996,-0.909 h 33.142 c 0.517,0 0.949,0.395 0.996,0.909 l 3.111,34.03 -1.992,0.182 -3.028,-33.121 h -31.316 z" />
				</g>
			</g>
			<g
   id="g920">
				<path
   style="fill:#111111"
   inkscape:connector-curvature="0"
   id="path918"
   d="m 351.345,354.589 c -7.865,-4.665 -12.752,-13.236 -12.752,-22.37 0,-14.33 11.659,-25.989 25.99,-25.989 9.167,0 17.755,4.914 22.412,12.824 l -1.724,1.014 c -4.299,-7.302 -12.226,-11.838 -20.688,-11.838 -13.228,0 -23.99,10.762 -23.99,23.989 0,8.431 4.511,16.344 11.772,20.649 z" />
			</g>
			<g
   id="g924">
				<path
   style="fill:#111111"
   inkscape:connector-curvature="0"
   id="path922"
   d="m 447.84,353.993 -0.988,-1.738 c 7.5,-4.261 12.158,-12.259 12.158,-20.873 0,-13.228 -10.762,-23.989 -23.989,-23.989 -6.908,0 -13.484,2.981 -18.043,8.18 l -1.504,-1.318 c 4.938,-5.632 12.063,-8.861 19.547,-8.861 14.33,0 25.989,11.659 25.989,25.989 0,9.332 -5.047,17.996 -13.17,22.61 z" />
			</g>
			<g
   id="g928">
				<path
   style="fill:#111111"
   inkscape:connector-curvature="0"
   id="path926"
   d="m 391.915,349.694 c -1.523,-3.92 -1.284,-8.307 0.658,-12.035 1.801,-3.458 4.84,-6.007 8.56,-7.178 3.72,-1.173 7.67,-0.824 11.128,0.977 4.648,2.421 7.654,7.182 7.846,12.426 l -1.998,0.072 c -0.166,-4.525 -2.761,-8.635 -6.771,-10.725 -2.985,-1.554 -6.396,-1.854 -9.604,-0.843 -3.209,1.011 -5.833,3.211 -7.387,6.194 -1.675,3.218 -1.883,7.003 -0.567,10.387 z" />
			</g>
		</g>
		<g
   id="g948">
			<g
   id="g934">
				<rect
   style="fill:#111111"
   id="rect932"
   height="2"
   width="14.199"
   y="361.65302"
   x="735.42902" />
			</g>
			<g
   id="g938">
				<rect
   style="fill:#111111"
   id="rect936"
   height="2"
   width="426.09601"
   y="361.65302"
   x="64.612" />
			</g>
			<g
   id="g942">
				<rect
   style="fill:#111111"
   id="rect940"
   height="2"
   width="10.378"
   y="361.65201"
   x="50.75" />
			</g>
			<g
   id="g946">
				<rect
   style="fill:#111111"
   id="rect944"
   height="2"
   width="228.308"
   y="361.65302"
   x="500.021" />
			</g>
		</g>
		<g
   id="g1018">
			<g
   id="g982">
				<g
   id="g952">
					<rect
   style="fill:#f3a52d"
   id="rect950"
   height="14.492"
   width="13.421"
   y="322.48801"
   x="689.224" />
				</g>
				<g
   id="g956">
					<path
   style="fill:#f3a52d"
   inkscape:connector-curvature="0"
   id="path954"
   d="m 705.564,349.459 h -2.92 v -10.103 h -13.421 v 10.103 h -2.77 c -2.3,0 -4.164,2.176 -4.219,4.89 h 27.548 c -0.051,-2.717 -1.914,-4.89 -4.218,-4.89 z" />
				</g>
				<g
   id="g962">
					<g
   id="g960">
						<path
   style="fill:#ea572e"
   inkscape:connector-curvature="0"
   id="path958"
   d="m 706.793,310.146 h -7.242 c 0.547,-0.944 0.835,-1.884 0.729,-2.956 -0.173,-1.717 -1.391,-3.226 -3.055,-3.687 -2.83,-0.782 -5.379,1.445 -5.379,4.155 0,0.893 0.279,1.675 0.752,2.487 h -7.522 c 0,4.88 2.949,8.948 7.086,10.167 h 7.547 c 4.137,-1.218 7.084,-5.287 7.084,-10.166 z" />
					</g>
				</g>
				<g
   id="g966">
					<rect
   style="fill:#111111"
   id="rect964"
   height="2"
   width="19.157"
   y="337.19699"
   x="686.35498" />
				</g>
				<g
   id="g970">
					<rect
   style="fill:#111111"
   id="rect968"
   height="2"
   width="35.494999"
   y="353.94501"
   x="678.18701" />
				</g>
				<g
   id="g976">
					<g
   id="g974">
						<rect
   style="fill:#ea572e"
   id="rect972"
   height="5.7080002"
   width="32.431"
   y="355.94501"
   x="679.71899" />
					</g>
				</g>
				<g
   id="g980">
					<rect
   style="fill:#111111"
   id="rect978"
   height="2"
   width="20.910999"
   y="320.32599"
   x="685.479" />
				</g>
			</g>
			<g
   id="g1016">
				<g
   id="g986">
					<rect
   style="fill:#f3a52d"
   id="rect984"
   height="17.315001"
   width="16.034"
   y="314.63699"
   x="648.30298" />
				</g>
				<g
   id="g990">
					<path
   style="fill:#f3a52d"
   inkscape:connector-curvature="0"
   id="path988"
   d="m 667.826,347.084 h -3.489 v -12.069 h -16.034 v 12.069 h -3.309 c -2.748,0 -4.976,2.601 -5.04,5.842 h 32.912 c -0.062,-3.245 -2.288,-5.842 -5.04,-5.842 z" />
				</g>
				<g
   id="g996">
					<g
   id="g994">
						<path
   style="fill:#ea572e"
   inkscape:connector-curvature="0"
   id="path992"
   d="m 669.342,300.49 h -8.653 c 0.653,-1.129 0.998,-2.252 0.87,-3.531 -0.205,-2.053 -1.661,-3.855 -3.648,-4.405 -3.382,-0.936 -6.427,1.728 -6.427,4.964 0,1.067 0.334,2.002 0.898,2.973 h -8.988 c 0,5.83 3.524,10.689 8.466,12.146 h 9.018 c 4.941,-1.457 8.464,-6.317 8.464,-12.147 z" />
					</g>
				</g>
				<g
   id="g1000">
					<rect
   style="fill:#111111"
   id="rect998"
   height="2"
   width="20.91"
   y="332.44901"
   x="645.86499" />
				</g>
				<g
   id="g1004">
					<rect
   style="fill:#111111"
   id="rect1002"
   height="2"
   width="38.744999"
   y="352.92599"
   x="636.94702" />
				</g>
				<g
   id="g1010">
					<g
   id="g1008">
						<rect
   style="fill:#ea572e"
   id="rect1006"
   height="6.7080002"
   width="38.744999"
   y="354.94501"
   x="636.94702" />
					</g>
				</g>
				<g
   id="g1014">
					<rect
   style="fill:#111111"
   id="rect1012"
   height="2"
   width="20.91"
   y="312.63699"
   x="645.86499" />
				</g>
			</g>
		</g>
		<g
   id="g1032">
			<g
   id="g1024">
				<g
   id="g1022">
					<path
   style="fill:#111111"
   inkscape:connector-curvature="0"
   id="path1020"
   d="m 689.945,260.597 c -0.541,0 -1.042,-0.215 -1.448,-0.62 l -3.7,-3.701 2.315,-2.316 c 0.41,-0.411 0.583,-0.967 0.535,-1.121 l -3.211,-3.197 c -0.392,0.008 -0.859,0.227 -1.139,0.506 l -2.314,2.314 -3.283,-3.283 c -0.929,-0.928 -1.182,-2.747 -0.06,-3.869 l 2.277,-2.277 -0.915,-0.914 c -0.476,-0.475 -0.758,-1.1 -0.796,-1.761 -0.041,-0.728 0.224,-1.415 0.744,-1.937 l 3.689,-3.688 c 0.989,-0.988 2.711,-0.944 3.701,0.046 l 0.915,0.914 2.681,-2.68 c 0.563,-0.563 1.439,-0.898 2.347,-0.898 0.742,0 1.387,0.236 1.815,0.664 l 3.285,3.283 -3.019,3.018 c -0.053,0.053 -0.082,0.091 -0.097,0.113 0.026,0.014 0.098,0.126 0.294,0.322 l 3.239,3.24 c 0.129,0.129 0.216,0.197 0.269,0.234 0.027,-0.021 0.063,-0.053 0.106,-0.096 l 3.02,-3.018 3.7,3.699 c 0.548,0.548 0.689,1.344 0.387,2.182 -0.258,0.717 -0.761,1.288 -1.038,1.564 l -2.681,2.681 1.332,1.333 c 0.482,0.482 0.753,1.111 0.76,1.773 0.008,0.686 -0.27,1.346 -0.783,1.859 l -3.688,3.688 c -0.503,0.504 -1.15,0.78 -1.822,0.78 v 0 c -0.672,0 -1.313,-0.271 -1.805,-0.763 l -1.332,-1.332 -2.276,2.277 c -0.638,0.642 -1.332,0.981 -2.004,0.981 z m -2.32,-4.322 2.32,2.321 c 0.051,0 0.27,-0.071 0.59,-0.394 l 3.691,-3.691 2.746,2.746 c 0.231,0.231 0.544,0.235 0.798,-0.018 l 3.689,-3.688 c 0.131,-0.131 0.199,-0.277 0.198,-0.423 -0.002,-0.136 -0.063,-0.271 -0.175,-0.383 l -2.746,-2.746 4.096,-4.096 c 0.447,-0.446 0.619,-0.879 0.608,-1 l -2.239,-2.208 -1.609,1.607 c -0.471,0.473 -0.98,0.713 -1.514,0.713 -0.745,0 -1.295,-0.454 -1.69,-0.85 l -3.24,-3.24 c -1.505,-1.506 -0.77,-2.691 -0.196,-3.264 l 1.604,-1.604 -1.87,-1.869 c -0.029,-0.023 -0.171,-0.078 -0.401,-0.078 -0.407,0 -0.777,0.156 -0.933,0.313 l -4.095,4.094 -2.329,-2.328 c -0.243,-0.242 -0.631,-0.287 -0.874,-0.045 l -3.688,3.688 c -0.117,0.117 -0.17,0.251 -0.161,0.409 0.009,0.163 0.089,0.335 0.213,0.458 l 2.329,2.33 -3.691,3.69 c -0.271,0.271 -0.157,0.825 0.061,1.042 l 1.868,1.869 0.9,-0.902 c 0.659,-0.657 1.632,-1.082 2.48,-1.082 0.594,0 1.108,0.201 1.486,0.578 l 3.239,3.24 c 1.031,1.033 0.511,2.831 -0.563,3.906 z" />
				</g>
			</g>
			<g
   id="g1030">
				<g
   id="g1028">
					<path
   style="fill:#ea572e"
   inkscape:connector-curvature="0"
   id="path1026"
   d="m 678.116,253.887 -2.071,2.072 -3.472,-3.471 c -0.679,-0.679 -1.889,-1.467 -2.486,-0.871 l -3.152,3.152 2.498,2.5 c 0.68,0.678 0.461,0.879 -0.136,1.475 l -3.239,3.24 c -0.597,0.597 -1.095,1.112 -1.773,0.434 l -2.499,-2.499 -2.495,2.496 c -0.597,0.595 -0.07,2.069 0.609,2.749 l 3.47,3.469 -1.809,1.811 c -0.597,0.596 -1.001,1.717 -0.321,2.396 l 3.689,3.689 c 0.679,0.678 1.977,0.451 2.572,-0.145 l 1.81,-1.811 2.886,2.885 c 0.679,0.68 1.549,0.604 2.146,0.006 l 2.495,-2.494 -1.486,-1.486 c -0.679,-0.679 -1.175,-2.19 -0.579,-2.787 l 3.239,-3.238 c 0.597,-0.596 1.811,0.197 2.489,0.876 l 1.485,1.487 3.153,-3.153 c 0.596,-0.597 0.411,-1.206 -0.269,-1.885 l -2.885,-2.884 2.071,-2.072 c 0.597,-0.596 0.563,-1.631 -0.116,-2.311 l -3.688,-3.69 c -0.68,-0.679 -1.54,-0.536 -2.136,0.06 z" />
				</g>
			</g>
		</g>
		<g
   id="g1064">
			<g
   id="g1036">
				<circle
   style="fill:#3dc7d2"
   id="circle1034"
   r="21.773001"
   cy="208.69299"
   cx="102.369" />
			</g>
			<g
   id="g1042">
				<g
   id="g1040">
					<path
   style="fill:#111111"
   inkscape:connector-curvature="0"
   id="path1038"
   d="m 102.369,235.158 c -0.727,0 -1.461,-0.03 -2.182,-0.09 l 0.163,-1.992 c 1.538,0.125 3.118,0.105 4.65,-0.059 l 0.213,1.988 c -0.938,0.102 -1.895,0.153 -2.844,0.153 z m -8.097,-1.262 c -1.595,-0.512 -3.149,-1.182 -4.62,-1.989 l 0.963,-1.753 c 1.359,0.746 2.795,1.365 4.269,1.838 z m 16.825,-0.211 -0.659,-1.889 c 1.46,-0.509 2.88,-1.163 4.221,-1.944 l 1.006,1.729 c -1.452,0.844 -2.988,1.552 -4.568,2.104 z m -26.368,-5.263 c -1.248,-1.116 -2.396,-2.358 -3.414,-3.69 l 1.59,-1.214 c 0.941,1.232 2.003,2.381 3.158,3.414 z m 35.767,-0.447 -1.37,-1.457 c 1.129,-1.062 2.163,-2.236 3.071,-3.491 l 1.62,1.173 c -0.983,1.357 -2.1,2.626 -3.321,3.775 z m -42.268,-8.422 c -0.689,-1.528 -1.233,-3.131 -1.618,-4.762 l 1.946,-0.459 c 0.355,1.507 0.858,2.987 1.495,4.4 z m 48.547,-0.612 -1.844,-0.773 c 0.6,-1.429 1.065,-2.922 1.382,-4.438 l 1.958,0.41 c -0.343,1.641 -0.846,3.256 -1.496,4.801 z M 77.904,208.799 h -2 v -0.105 c 0,-1.683 0.159,-3.366 0.472,-5.005 l 1.965,0.376 c -0.29,1.516 -0.437,3.072 -0.437,4.629 z m 48.924,-0.62 c -0.032,-1.556 -0.212,-3.109 -0.534,-4.618 l 1.956,-0.418 c 0.348,1.633 0.542,3.313 0.578,4.994 z m -46.817,-9.433 -1.827,-0.814 c 0.682,-1.529 1.515,-3.003 2.476,-4.379 l 1.64,1.146 c -0.889,1.272 -1.659,2.633 -2.289,4.047 z m 44.503,-0.465 c -0.659,-1.4 -1.458,-2.746 -2.373,-3.998 l 1.615,-1.18 c 0.99,1.355 1.853,2.811 2.567,4.324 z M 85.99,190.52 84.651,189.035 c 1.246,-1.124 2.604,-2.133 4.036,-2.999 l 1.035,1.711 c -1.324,0.8 -2.579,1.733 -3.732,2.773 z m 32.374,-0.338 c -1.173,-1.016 -2.448,-1.922 -3.789,-2.695 l 0.999,-1.732 c 1.45,0.836 2.829,1.816 4.098,2.914 z m -23.575,-4.758 -0.619,-1.9 c 1.591,-0.519 3.243,-0.886 4.909,-1.092 l 0.246,1.984 c -1.54,0.19 -3.066,0.529 -4.536,1.008 z m 14.669,-0.153 c -1.479,-0.447 -3.012,-0.755 -4.557,-0.914 l 0.205,-1.989 c 1.671,0.172 3.33,0.505 4.931,0.989 z" />
				</g>
			</g>
			<g
   id="g1046">
				<path
   style="fill:#ffffff"
   inkscape:connector-curvature="0"
   id="path1044"
   d="m 102.369,186.92 c 8.431,0 15.289,9.768 15.289,21.773 0,12.005 -6.858,21.773 -15.289,21.773 -8.43,0 -15.289,-9.768 -15.289,-21.773 0,-12.005 6.858,-21.773 15.289,-21.773 z m 0,41.578 c 7.293,0 13.227,-8.884 13.227,-19.805 0,-10.922 -5.934,-19.807 -13.227,-19.807 -7.293,0 -13.227,8.885 -13.227,19.807 0,10.921 5.934,19.805 13.227,19.805 z" />
			</g>
			<g
   id="g1050">
				<path
   style="fill:#ffffff"
   inkscape:connector-curvature="0"
   id="path1048"
   d="m 102.369,186.92 c 4.65,0 7.083,10.953 7.083,21.773 0,10.82 -2.433,21.773 -7.083,21.773 -4.649,0 -7.082,-10.953 -7.082,-21.773 0,-10.82 2.432,-21.773 7.082,-21.773 z m 0,41.578 c 2.047,0 5.02,-7.715 5.02,-19.805 0,-12.09 -2.973,-19.807 -5.02,-19.807 -2.046,0 -5.02,7.717 -5.02,19.807 0,12.09 2.973,19.805 5.02,19.805 z" />
			</g>
			<g
   id="g1054">
				<path
   style="fill:#ffffff"
   inkscape:connector-curvature="0"
   id="path1052"
   d="m 102.369,215.668 c 6.285,0 12.354,2.631 16.652,7.216 l -1.505,1.411 c -3.967,-4.232 -9.346,-6.564 -15.147,-6.564 -5.801,0 -11.18,2.332 -15.146,6.564 l -1.505,-1.411 c 4.297,-4.585 10.366,-7.216 16.651,-7.216 z" />
			</g>
			<g
   id="g1058">
				<path
   style="fill:#ffffff"
   inkscape:connector-curvature="0"
   id="path1056"
   d="m 117.477,193.049 1.503,1.414 c -4.292,4.559 -10.346,7.174 -16.611,7.174 -6.266,0 -12.32,-2.615 -16.61,-7.174 l 1.502,-1.414 c 3.959,4.207 9.325,6.525 15.108,6.525 5.783,0 11.148,-2.318 15.108,-6.525 z" />
			</g>
			<g
   id="g1062">
				<rect
   style="fill:#ffffff"
   id="rect1060"
   height="2.063"
   width="43.564999"
   y="207.662"
   x="80.595001" />
			</g>
		</g>
	</g>
</svg>