<svg xmlns="http://www.w3.org/2000/svg" xmlns:xlink="http://www.w3.org/1999/xlink" width="567" height="397" viewBox="0 0 150 105"><style><![CDATA[.B{fill:#32435b}.A{fill:#84dbff}.C{fill:#ffd05b}]]></style><defs><path d="M145.887 155.07h-2v2h2zm4 0h-2v2h2zm4 0h-2v2h2zm4 0h-2v2h2zm4 0h-2v2h2zm4 0h-2v2h2zm4 0h-2v2h2zm4 0h-2v2h2zm4 0h-2v2h2v-2" id="A"/><path d="M444.42 287.5c0 3.174-2.82 5.995-5.995 5.995 3.174 0 5.995 2.82 5.995 5.995 0-3.174 2.82-5.995 5.995-5.995-3.174 0-5.995-2.82-5.995-5.995" id="B"/><path d="M161.483 175.5a3.01 3.01 0 0 0-3.008 3.008 3.01 3.01 0 0 0 3.008 3.008 3.01 3.01 0 0 0 3.008-3.008 3.01 3.01 0 0 0-3.008-3.008" id="C"/><path d="M211.467 175.5a3.01 3.01 0 0 1 3.008 3.008 3.01 3.01 0 0 1-3.008 3.008 3.01 3.01 0 0 1-3.008-3.008 3.01 3.01 0 0 1 3.008-3.008" id="D"/><path d="M181.1 302.6H169.1l-.005-.94h11.515v-5.815h.94v6.284a.47.47 0 0 1-.469.469" id="E"/><path d="M296.475 276.508a6.01 6.01 0 0 1-6-6 6.01 6.01 0 0 1 6-6 6.01 6.01 0 0 1 6 6 6.01 6.01 0 0 1-6 6zm0-14a8.01 8.01 0 0 0-8 8 8.01 8.01 0 0 0 8 8 8.01 8.01 0 0 0 8-8 8.01 8.01 0 0 0-8-8" id="F"/><path d="M310.475 271.5a1 1 0 1 1 0-2 1 1 0 1 1 0 2zm0-4c-1.654 0-3 1.346-3 3s1.346 3 3 3 3-1.346 3-3-1.346-3-3-3" id="G"/><path id="H" d="M85.006 110.742s-1.102 1.45-2.462 1.45-2.462-1.45-2.462-1.45 1.102-1.45 2.462-1.45 2.462 1.45 2.462 1.45"/></defs><g transform="matrix(.996231 0 0 .975119 -1.906914 -68.518379)"><path class="A" d="M131.266 98.06c1.553 0 2.46-1.083 2.46-3.136 0-2.03-.908-3.053-2.46-3.053h-2.723v6.19zm.1 3.885h-2.824v5.467h-3.59V87.985h6.314c3.732 0 5.87 2.442 5.87 6.77 0 2.97-.908 5.106-2.562 6.244l2.966 6.41h-4.076l-2.098-5.467"/><g class="B"><path d="M131.675 98.243l-.01-.37.162-.007.173-.013c.307-.032.584-.12.85-.266.38-.212.703-.6.88-1.062a2.166-2.978 0 0 1 .221-.886c.04-.365.052-.688.037-.983-.022-.396-.066-.7-.138-.954-.083-.298-.204-.57-.352-.786a1.79 1.79 0 0 0-.509-.504c-.186-.132-.378-.193-.55-.256-.326-.097-.616-.1-.828-.097H131.222v-.37h.394c.223.002.53.006.886.11.176.062.397.137.608.286.24.162.433.353.586.584a3.08 3.08 0 0 1 .405.903c.108.378.14.786.156 1.06.018.323.005.673-.04 1.07a4.43 4.43 0 0 1-.246 1.001c-.288.736-.76 1.086-1.017 1.23a3.06-4.206 0 0 0-.925.29 2.054-2.824 0 0 0-.193.014l-.158.007m-2.596-1.253h-.27v-5.12c0-.097.06-.185.134-.185h.88v.37h-.748v4.934"/><path d="M131.67 98.243h-2.302v-.37h2.302v.37m4.427 5.518l-1.23-2.657c-.036-.078-.025-.18.027-.242.03-.034.065-.06.095-.08l.036-.027c.422-.3 1.198-.983 1.723-2.258.42-.99.652-2.295.652-3.672-.008-.622-.034-1.29-.158-1.924-.035-.25-.097-.48-.157-.706l-.055-.2-.09-.26-.132-.366-.085-.18-.066-.138-.117-.242-.206-.337-.035-.064c-.018-.03-.035-.06-.056-.087l-.343-.443c-.343-.367-.66-.638-.962-.824a6.176-8.49 0 0 1-1.641-.689l-.28-.065a1.491-2.05 0 0 1-.134-.021l-.068-.01-.17-.022.026-.368.236.032.156.026.28.065a6.358-8.742 0 0 0 1.709.717c.32.196.655.483 1.02.874l.16.2.2.258c.035.04.058.085.082.126l.033.055.216.354.13.267.098.208.062.135.135.375.1.296.056.213.166.75c.13.66.156 1.354.165 2.004 0 1.45-.245 2.815-.688 3.86a4.505-6.194 0 0 0-1.816 2.387l1.154 2.493-.227.193m1.033 3.84h-3.264a.134-.184 0 0 0-.119-.099l-2.098-5.467.238-.173 2.06 5.368h3.183v.37"/><path d="M129 107.41h-3.587c-.075 0-.134-.082-.134-.185V87.8c0-.102.06-.185.134-.185h2.61v.37h-2.474v19.056h3.322v-5.282c0-.103.06-.185.134-.185h2.824v.37h-2.7v5.283c0 .103-.06.185-.134.185"/></g><path d="M25.116 160.445l-10.33-36.553H22l6.8 26.892 6.8-26.892h6.95l-10.445 36.553h-6.99m20.054 0v-36.553h6.76v36.553h-6.76m32.778-32.897l-2.545 7.258c-2.81-2.245-6.343-3.812-8.508-3.812-1.747 0-2.925.888-2.925 2.66 0 6.318 14.053 2.715 14.053 15.926 0 7.3-4.7 11.175-10.635 11.175-4.444 0-9.002-2.298-12.154-5.85l2.62-7.154c2.735 3.3 6.837 5.483 9.6 5.483 2.127 0 3.456-1.097 3.456-3.185 0-6.475-14.053-2.61-14.053-15.56 0-6.736 4.216-11.024 10.597-11.024 3.836 0 7.748 1.62 10.483 4.073m3.763 32.898v-36.553h6.76v36.553h-6.76m17.24-18.267c0 6.162 3.456 10.913 7.52 10.913 4.102 0 7.368-4.752 7.368-10.913s-3.266-10.81-7.368-10.81-7.52 4.647-7.52 10.81zm21.84-.052c0 10.652-6.153 18.746-14.395 18.746-8.205 0-14.357-8.042-14.357-18.746 0-10.652 6.153-18.537 14.357-18.537 8.242 0 14.395 7.937 14.395 18.537" fill="#84dbff"/><g class="B"><path d="M68.446 161.24a18.281-25.132 0 0 0-1.937-.142c-1.037-.145-2.053-.403-3.024-.75l-1.886-.81-.647-.338.246-.904.643.336 1.82.78a19.684-27.061 0 0 1 2.915.726 12.5 12.5 0 0 0 3.831-.019c1.604-.25 3.05-.83 4.3-1.723.264-.167.5-.38.75-.6l.298-.26.28-.31.184-.2a4.19 4.19 0 0 0 .441-.549c.274-.34.493-.725.725-1.13l.095-.166.12-.26c.2-.414.37-.806.49-1.234a.42.42 0 0 1 .015-.045c.148-.397.24-.838.338-1.305l.073-.345.04-.31.13-1.45c.058-1.355-.037-2.578-.28-3.66a5.95-8.181 0 0 1-1.32-3.182c-.564-.834-1.303-1.588-2.197-2.24-1.515-1.098-3.196-1.763-4.818-2.406l-.64-.255c-.844-.34-1.717-.69-2.532-1.2a5.49-7.547 0 0 0-1.259-1.011 3.56 3.56 0 0 1-.884-1.76c-.105-.57-.164-1.394.12-2.135.202-.583.603-1.083 1.125-1.392.382-.233.824-.38 1.348-.442.43-.05.872-.045 1.314.016 1.734.238 3.28.945 4.564 1.604a25.469-35.015 0 0 0 1.918 1.145 22.139-30.436 0 0 0 .863.604l.287.218 2.382-6.796.634.42-2.483 7.082c-.03.09-.07.215-.15.317a.352-.483 0 0 0-.409.064l-.594-.454-.832-.583a24.857-34.173 0 0 1-1.863-1.112c-1.24-.636-2.73-1.32-4.385-1.546-.4-.055-.797-.06-1.183-.015-.445.048-.813.173-1.127.365a1.77 1.77 0 0 0-.779.94c-.187.483-.14 1.064-.07 1.462.087.456.312.896.634 1.236.33.356.7.654 1.106.888.78.476 1.592.804 2.45 1.15l.637.254c1.66.657 3.376 1.334 4.957 2.48.964.704 1.765 1.523 2.384 2.438a6.654-9.148 0 0 0 1.477 3.557c.268 1.188.373 2.527.31 3.973-.002.54-.073 1.076-.14 1.596l-.042.33a.369-.508 0 0 0-.009.057l-.076.36-.38 1.46c-.146.505-.35.948-.545 1.376l-.126.277a.44-.604 0 0 0-.024.046l-.106.185c-.24.42-.492.856-.79 1.23a5.08 5.08 0 0 1-.505.625l-.167.184-.332.356-.308.272c-.26.232-.53.472-.825.66-1.313.94-2.842 1.553-4.53 1.815a17.76-24.416 0 0 0-2.048.161m.115-7.526l-.36-.012c-.9-.048-1.823-.27-2.987-.735a18.361-25.243 0 0 0-2.525-1.324 17.74 17.74 0 0 1-3.447-2.886l-.217-.242-.158.432-.628-.435.328-.897.018-.048a.352-.483 0 0 0 .148-.227c.13-.105.3-.088.405.045l.544.62a17.13 17.13 0 0 0 3.306 2.764c.807.517 1.624.945 2.427 1.273 1.104.44 1.97.656 2.813.697.52.034 1.014-.012 1.477-.133.538-.14.978-.393 1.31-.752.334-.345.548-.9.592-1.53.046-.662-.105-1.327-.397-1.776-.35-.56-.837-.923-1.22-1.178-.463-.31-.966-.538-1.453-.758l-1.963-.777-1.092-.418c-2.396-.93-4.056-1.94-5.22-3.173-1.64-1.667-2.207-3.793-2.375-4.63l-.064-.34-.1-.56-.072-.657c-.048-.368-.048-.59-.048-.612l.703.007s.001.16.035.45l.072.655.084.464.066.342c.147.728.65 2.61 2.12 4.104 1.098 1.16 2.682 2.117 4.994 3.015l1.085.415 1.968.774c.538.243 1.064.483 1.57.82.445.3 1.01.723 1.442 1.408.427.65.633 1.567.57 2.514-.063.9-.378 1.704-.863 2.203-.414.45-.957.767-1.607.936a6.837-9.399 0 0 0-1.278.161"/><path d="M78.81 127.958l-.63-.53a15.01 15.01 0 0 0-1.734-1.199c-1.682-1.022-3.758-1.78-5.697-2.084-2.005-.33-4.198-.193-5.862.366l-.573.19c-.102.038-.206.087-.306.133l-.617.28c-.072.036-.147.08-.216.122l-.633.37a1.14 1.14 0 0 0-.129.09l-.372-.82s.072-.064.217-.154l.635-.372.27-.15.62-.28.355-.153.58-.194c1.74-.586 4.025-.725 6.1-.387a16.8 16.8 0 0 1 5.898 2.159c.826.497 1.442.954 1.807 1.25l.656.55-.383.81"/></g><g class="A"><path d="M142.933 160.445l-12.23-22.507v22.507h-6.342v-36.553h5.963l12.27 22.558v-43.08h6.305v57.075h-5.964"/><path d="M145.7 88.357l6.6 16.814h-13.2z"/></g><path class="B" d="M97.397 142.22c.914 1.315 4.642 6.285 9.017 6.285s8.106-4.97 9.017-6.285c-.914-1.315-4.642-6.285-9.017-6.285-4.382 0-8.108 4.97-9.017 6.285zm9.017 7.252c-5.343 0-9.583-6.653-9.762-6.936a.352.483 0 0 1 0-.632c.178-.283 4.418-6.937 9.762-6.937s9.583 6.653 9.762 6.937a.352.483 0 0 1 0 .632c-.178.283-4.418 6.936-9.762 6.936"/><path class="A" d="M110.986 142.22c0 3.738-2.047 6.77-4.572 6.77s-4.572-3.03-4.572-6.77 2.047-6.77 4.572-6.77 4.572 3.03 4.572 6.77"/><g transform="matrix(.351684 0 0 -.483493 -26.645159 241.530472)"><g class="B"><path d="M378.35 218.4c-6.617 0-12-5.832-12-13s5.383-13 12-13 12 5.832 12 13-5.383 13-12 13zm0-28c-7.72 0-14 6.728-14 15s6.28 15 14 15 14-6.73 14-15-6.28-15-14-15m-21.667 18.828l-1.97.345.202 1.023 1.954-.43-.185-.94m20.692 18.154l-.086 1.998 2.092.001-.086-1.998a22.78 22.78 0 0 1-1.92-.001zm5.722-.493l-1.9.33.256 1.983 2.063-.36zm-9.522-.006l-.432 1.953 2.06.362.26-1.983-1.9-.332zm13.178-1.142l-1.803.655.6 1.908 1.968-.715zm-16.832-.01l-.767 1.847 1.967.717.6-1.908zm20.233-1.76l-1.662.96.923 1.775 1.813-1.047zm-23.63-.013l-1.076 1.685 1.8 1.05.926-1.773-1.66-.96zm26.675-2.32l-1.473 1.234 1.217 1.587 1.603-1.344zm-29.714-.015l-1.352 1.473 1.604 1.347 1.216-1.587zm32.306-2.808l-1.236 1.468 1.473 1.354 1.347-1.6zm-34.898-.02l-1.586 1.22 1.348 1.602 1.472-1.352zm36.964-3.2l-.964 1.66 1.685 1.078 1.05-1.8zm-39.026-.023l-1.773.926 1.05 1.812 1.685-1.077-.96-1.66zm40.497-3.514l-.66 1.8 1.846.768.72-1.965zm-41.965-.026l-1.9.602.72 1.968 1.846-.768-.656-1.802m42.656-2.795l-.187.942 1.954.428.202-1.02-1.97-.35"/><path d="M401.787 200.204l-1.954.43.187.94 1.97-.35-.202-1.02m-1.258-3.992l-1.848.764.656 1.804 1.9-.6-.717-1.967zm-44.346-.028l-.72 1.965 1.907.604.658-1.802zm42.4-3.682l-1.685 1.076.96 1.66 1.773-.925-1.05-1.812zm-40.472-.023l-1.05 1.808 1.77.93.963-1.66zm37.923-3.294l-1.474 1.35 1.235 1.47 1.586-1.22-1.347-1.603zm-35.372-.02l-1.347 1.602 1.584 1.22 1.236-1.468zm32.292-2.805l-1.22 1.585 1.47 1.235 1.354-1.473zm-29.208-.017l-1.604 1.346 1.35 1.474 1.472-1.232zm25.686-2.233l-.928 1.77 1.66.962 1.076-1.686-1.8-1.047zm-22.158-.014l-1.814 1.048 1.076 1.685 1.66-.96zm18.294-1.6l-.602 1.908 1.802.656.765-1.847zm-14.428-.01l-1.97.716.768 1.848 1.8-.656zm10.345-.894l-.262 1.982 1.9.333.432-1.953-2.06-.362zm-6.26-.003l-2.062.36.43 1.953 1.9-.33zm3.172-.2c-.36-.004-.726.005-1.087.02l.084 1.998 1-.02.92.02.086-1.998-1.004-.022m-23.483 18.816l-.202 1.025 1.97.343.185-.938-1.954-.43m15.144.5l-1.414 1.414 5 5a1 1 0 0 0 1.414 0l3.293-3.293 7.293 7.293 1.414-1.414-8-8a1 1 0 0 0-1.414 0l-3.293 3.293-4.293-4.293"/><path d="M387.475 205.508h-2v4h-4v2h5a1 1 0 0 0 1-1v-5m-8-8h-2v2h2v-2m4 0h-2v2h2v-2m-8 0h-2v2h2v-2m-105.06 94.345h-2.97v2.97h2.97v-2.97m-26.94-40.345h-2v4h-4v2h5a1 1 0 0 0 1-1v-5m-63.1-84.8h-40.533v2h40.533v-2m8.105 0h-4.54v2h4.54v-2m34.946-.001H200.35v2h22.076v27.426h2v-28.426a1 1 0 0 0-1-1m.8 35.8h-2v20h2v-20m88.124-35.8h-13.5v2h13.5v-2m19.75 0h-16.125v2H332.1v-2m15.5 0h-11.25v2h11.25v-2m66.5-.864h-55.625v2H414.1v-2m33.314.864H427.1v2h19.314v18.426h2v-19.426a1 1 0 0 0-1-1m19.3 0h-9.75v2h9.75v-2m32.433.176h-23.922v2h22.922v33.875h2v-34.875a1 1 0 0 0-1-1m1 40h-2v10h2v-10m0 13.25h-2v3.25h2v-3.25m-181.44-4.56h-2v21.632h2v-21.632"/><path d="M321.106 232.574h-6.795v2h6.795v-2m-70.786-77.566H180.4v2h69.93v-2"/><path d="M243.9 148.074l-1.323 1.42 7.007 6.5-7.007 6.514 1.323 1.42 8.532-7.934-8.532-7.932"/><use xlink:href="#A"/><path d="M271.07 142.518h-69.93v2h69.93v-2"/><path d="M264.642 135.583l-1.323 1.42 7.007 6.5-7.007 6.514 1.323 1.42 8.532-7.935-8.532-7.932"/><use y="-12.49" x="20.751" xlink:href="#A"/><path d="M259.707 155.008h-2v2h2zm4 0h-2v2h2zm4 0h-2v2h2zm4 0h-2v2h2zm4 0h-2v2h2zm4 0h-2v2h2zm4 0h-2v2h2zm4 0h-2v2h2zm4 0h-2v2h2zm4 0h-2v2h2zm4 0h-2v2h2v-2"/></g><g class="C"><use xlink:href="#B"/><use y="11.33" x="13.354" xlink:href="#B"/><use y="17.326" x="-2.494" xlink:href="#B"/></g><g class="B"><path d="M211.618 177.508h-50.286v2h50.286v-2"/><use xlink:href="#C"/><use xlink:href="#D"/><path d="M441.475 236.43h-2v19.077c0 1.654-1.346 3-3 3H379.35c-1.654 0-3-1.346-3-3V236.43h-2v19.077c0 2.757 2.243 5 5 5h57.125c2.757 0 5-2.243 5-5V236.43"/><path d="M378.358 236.582a3.01 3.01 0 0 0-3.008-3.008 3.01 3.01 0 0 0-3.007 3.008 3.01 3.01 0 0 0 3.007 3.007 3.01 3.01 0 0 0 3.008-3.007m59.1 0a3.01 3.01 0 0 1 3.008-3.008 3.01 3.01 0 0 1 3.008 3.008 3.01 3.01 0 0 1-3.008 3.007 3.01 3.01 0 0 1-3.008-3.007m-78.85-58.074h-37.603v2h37.603v-2"/><use y="1" x="159.682" xlink:href="#C"/><use y="1" x="147" xlink:href="#D"/></g></g><path class="C" d="M145.847 117.994h-7.8c.015 0 .026-.155.026-.276 0-1.085-.64-1.925-1.43-1.925s-1.43.9-1.43 1.985c0 .042.007.092.01.134a1.08 1.08 0 0 0-.485-.119 1.431 1.968 0 0 0-1.43 1.968 1.431 1.968 0 0 0 1.43 1.966 1.417 1.948 0 0 0 .486-.123l-.01.124c0 1.085.64 1.965 1.43 1.965s1.43-.898 1.43-1.984c0-.284-.046-.815-.124-.815h7.888v-2.9"/><g class="B"><path d="M138.056 117.51zm-.001 0zm-.001 0zm-.001 0zm-.095 3.868zm-2.725-.258a.3.3 0 0 1 .212.097.352-.483 0 0 0 .139.419l-.007.086c-.001.823.482 1.488 1.076 1.488s1.078-.674 1.078-1.5a3.64 3.64 0 0 0-.037-.495.352-.483 0 0 0 .264-.804h7.537v-1.934h-7.438a.352-.483 0 0 0-.352-.484.65.65 0 0 1 .023-.174l.003-.103c0-.808-.473-1.442-1.078-1.442-.598 0-1.078.673-1.078 1.502l.008.102a.352-.483 0 0 0-.471.487 1.066-1.465 0 0 1-.366-.09c-.598 0-1.078.666-1.078 1.484 0 .98.682 1.77 1.444 1.39.04-.02.08-.03.12-.03zm1.42 3.057c-.865 0-1.587-.852-1.748-1.982-1.05.145-1.94-1.017-1.94-2.44a1.794-2.466 0 0 0 1.937-2.442c.155-1.143.88-2 1.75-2 .947 0 1.7.952 1.775 2.2h7.418a.352-.483 0 0 0 .352.483v2.9a.352-.483 0 0 0-.352.484h-7.42l.01.33c0 1.36-.8 2.468-1.78 2.468"/><path d="M146.2 123.956h-.703v-8.986h.703v8.986m-10.97-4.232c0 .363-.213.655-.477.655s-.477-.293-.477-.655.213-.655.477-.655.477.294.477.655m-112.837 19.9h-7.55v-.967h7.55v.967m-7.264-.967l-1.708-4.06h-.8l1.707 4.06h-.8l-1.707-4.06h-.8l1.708 4.06h-.8l-1.708-4.06h-.8l1.708 4.06h-.82v.954h.82l-1.708 4.06h.8l1.708-4.06h.8l-1.708 4.06h.8l1.707-4.06h.8l-1.707 4.06h.8l1.708-4.06v-.96"/><path d="M22.744 141.42h-.703v-4.56h.703v4.56m22.426-2.28l-3.037-2.41v1.927h-16.4l.244.967h16.155v1.928l3.037-2.41m39.595-54.213H48.256V83.49h36.51v1.436"/><path d="M81.408 89.9l-.69-1.015 3.658-4.673-3.658-4.675.69-1.015 4.454 5.696-4.454 5.693m-49.794-4.982H30.57V83.49h1.045zm2.088 0h-1.044V83.49h1.044zm2.088 0h-1.045V83.49h1.045zm2.088 0h-1.045V83.49h1.045zm2.088 0h-1.045V83.49h1.045zm2.088 0H41.01V83.49h1.045zm2.088 0H43.1V83.49h1.045zm2.088 0h-1.045V83.49h1.045zm2.088 0h-1.045V83.49h1.045v1.436"/><path d="M42.37 83.486l-2.536-6.036h-1.188l2.535 6.036h-1.188L37.46 77.45h-1.19l2.536 6.036h-1.19l-2.536-6.036h-1.188l2.536 6.036h-1.215V84.9h1.215l-2.536 6.036h1.188l2.536-6.036h1.19l-2.536 6.036h1.19l2.535-6.036h1.188l-2.535 6.036h1.188L42.37 84.9v-1.423"/></g><path class="A" d="M13.536 89.97l-1.302 3.713c-1.438-1.15-3.246-1.95-4.353-1.95-.894 0-1.496.454-1.496 1.363 0 3.233 7.19 1.39 7.19 8.15 0 3.74-2.4 5.718-5.442 5.718-2.274 0-4.606-1.176-6.22-2.998l1.34-3.66c1.4 1.684 3.498 2.806 4.917 2.806 1.088 0 1.77-.56 1.77-1.63 0-3.313-7.19-1.336-7.19-7.962 0-3.446 2.157-5.638 5.422-5.638 1.962 0 3.965.828 5.363 2.084"/><g class="B"><path d="M8.674 107.208a9.341-12.842 0 0 0-.991-.073 7.98 7.98 0 0 1-1.546-.384l-.965-.414-.33-.173.128-.463.33.172.93.4a10.072-13.847 0 0 1 1.491.371c.658.097 1.317.097 1.96-.01.82-.128 1.56-.424 2.2-.882.135-.086.257-.193.384-.308l.152-.133.146-.158.094-.103c.08-.08.147-.17.226-.28.14-.174.252-.37.37-.58l.05-.085.06-.133c.097-.212.19-.412.25-.63.002-.008.005-.016.008-.023.076-.203.123-.43.176-.667l.037-.176.02-.158.07-.745c.03-.693-.02-1.32-.14-1.872a3.046-4.187 0 0 1-.675-1.628 4.65 4.65 0 0 0-1.124-1.146c-.775-.562-1.635-.902-2.467-1.23l-.328-.13-1.296-.61a2.806-3.858 0 0 0-.644-.517c-.226-.24-.387-.56-.452-.9-.053-.29-.084-.713.06-1.093.103-.298.31-.555.576-.713.196-.12.422-.193.69-.226.22-.026.446-.023.672.008.887.122 1.678.483 2.335.82l.985.586.44.31.147.11 1.22-3.477.324.215-1.27 3.623a.48.48 0 0 1-.077.162.179-.247 0 0 0-.21.033l-.304-.232-.422-.298-.95-.57c-.634-.325-1.398-.675-2.244-.79a3.316-4.559 0 0 1-.605-.008c-.228.028-.416.09-.577.187-.19.11-.33.282-.398.48-.096.25-.07.544-.034.748a1.28 1.28 0 0 0 .324.632 2.455-3.375 0 0 1 .566.454c.4.244.815.41 1.254.59l.326.13c.85.336 1.727.683 2.532 1.27.493.36.904.78 1.22 1.248a3.404-4.68 0 0 0 .755 1.82c.14.608.19 1.293.16 2.033a6.43 6.43 0 0 1-.072.816l-.022.17a.151-.208 0 0 0-.005.029l-.035.184c-.052.248-.106.504-.194.747-.075.26-.18.485-.28.704l-.064.142a.169-.232 0 0 0-.012.023l-.054.095c-.123.215-.246.438-.404.63-.07.097-.158.22-.258.32l-.086.094-.17.182-.158.14-.422.337c-.668.48-1.454.794-2.32.928a9.08-12.484 0 0 0-1.048.083m.056-3.847l-.184-.007c-.457-.022-.933-.138-1.528-.376a8.09 8.09 0 0 1-1.292-.677 9.098-12.508 0 0 0-1.765-1.477l-.11-.126-.08.22-.32-.222.168-.46.01-.023c.001-.008.023-.074.075-.116a.179-.247 0 0 0 .207.023l.28.317c.517.553 1.1 1.03 1.688 1.414a7.79 7.79 0 0 0 1.241.651c.565.226 1.01.335 1.44.357.266.017.52-.006.756-.068.275-.07.5-.2.67-.385.17-.176.28-.46.302-.783.024-.34-.052-.68-.203-.91-.176-.3-.428-.472-.625-.602-.237-.158-.494-.276-.743-.388l-1.005-.397-.558-.214c-1.226-.476-2.075-.993-2.672-1.623-.838-.853-1.125-1.94-1.215-2.37l-.033-.17-.05-.286-.037-.336-.025-.313.36.003a2.15 2.15 0 0 0 .02.23l.037.335.043.242.034.175c.075.372.333 1.335 1.084 2.1.562.594 1.372 1.083 2.553 1.547l.555.213 1.007.398.803.42c.228.15.518.37.737.725.218.332.326.8.292 1.284-.032.46-.193.872-.442 1.127-.212.23-.5.387-.822.484a3.496-4.806 0 0 0-.654.082"/><path d="M13.974 90.178c-.002-.001-.117-.104-.322-.27-.176-.145-.48-.368-.887-.613-.86-.522-1.923-.91-2.915-1.067-1.028-.17-2.148-.1-3 .187l-.293.098-.157.068-.316.143-.11.063-.324.2-.066.046-.2-.42s.037-.032.11-.08l.325-.19.138-.077.318-.144.182-.078.298-.1c.9-.3 2.06-.374 3.13-.193a8.6 8.6 0 0 1 3.017 1.105 8.915-12.257 0 0 0 .924.64l.336.282-.196.415m119.685-19.275c-.497 0-.9.555-.9 1.238s.404 1.238.9 1.238.9-.556.9-1.238-.404-1.238-.9-1.238zm0 3.094c-.745 0-1.35-.833-1.35-1.857s.606-1.857 1.35-1.857 1.35.833 1.35 1.857-.606 1.857-1.35 1.857"/></g><path d="M134.335 74.616h1.8V72.76h.9v1.857a.9 1.238 0 0 1-.901 1.238h-1.35V77.7h1.125a.9 1.238 0 0 1 .901 1.238v2.785h-1.125v-2.475h-1.576v4.333h-1.125v-7.428l-.9.928-.9 1.857-.45-.928.675-1.857 1.35-1.547h1.576" fill="#76d1d7"/><path class="B" d="M133.21 83.282h.675v-4.024a.225.309 0 0 1 .225-.309h1.576a.225.309 0 0 1 .225.309v2.166h.675V78.95a.675.928 0 0 0-.675-.928h-1.125a.225.309 0 0 1-.225-.309v-1.857a.225.309 0 0 1 .225-.309h1.35a.675.928 0 0 0 .675-.928v-1.547h-.45v1.547a.225.309 0 0 1-.225.309h-3.295l-1.252 1.434-.596 1.644.19.393.713-1.47a.225.309 0 0 1 .052-.076l.9-.928a.225.309 0 0 1 .36.248zm.9.62h-1.125a.225.309 0 0 1-.225-.309v-6.81l-.5.525-.88 1.813c-.083.172-.29.172-.375 0l-.45-.928a.225.309 0 0 1-.014-.31l.675-1.857a.225.309 0 0 1 .057-.099l1.35-1.547a.225.309 0 0 1 .144-.072h3.152V72.76a.225.309 0 0 1 .225-.309h.9a.225.309 0 0 1 .225.309v1.857c0 .853-.505 1.547-1.125 1.547H135V77.4h.9c.62 0 1.125.694 1.125 1.547v2.785a.225.309 0 0 1-.225.309h-1.125a.225.309 0 0 1-.225-.309v-2.166h-1.125v4.024a.225.309 0 0 1-.225.309m-7.43-9.285c-.497 0-.9.555-.9 1.238s.404 1.238.9 1.238.9-.556.9-1.238-.404-1.238-.9-1.238zm0 3.094c-.745 0-1.35-.833-1.35-1.857s.606-1.857 1.35-1.857 1.35.833 1.35 1.857-.606 1.857-1.35 1.857"/><path class="C" d="M126.005 79.877v7.428h1.125v-4.333h1.576v2.475h1.125v-2.785a.9 1.238 0 0 0-.9-1.238h-1.125v-1.547l1.576.31 1.8-1.238-.45-.928-1.576.928-1.35-.62h-1.8a.9 1.238 0 0 0-.901 1.238v3.404h.9"/><g class="B"><path d="M126.23 86.996h.675v-4.024a.225-.309 0 0 0 .225-.309h1.576a.225-.309 0 0 0 .225.309v2.166h.675v-2.476c0-.512-.303-.928-.675-.928h-1.125a.225-.309 0 0 0-.225-.309v-1.547a.225-.309 0 0 0 .257-.306l1.506.296 1.5-1.038-.205-.423-1.403.827c-.05.03-.107.033-.16.01l-1.316-.603h-1.764c-.373 0-.675.416-.675.928v3.094h.45v-2.785h.45zm.9.62h-1.125a.225-.309 0 0 0-.225-.309v-4.024h-.675a.225-.309 0 0 0-.225-.309V79.57c0-.853.505-1.547 1.125-1.547h1.8c.025 0 .048.005.07.016l1.266.582 1.497-.882a.225-.309 0 0 0 .276.113l.45.928a.225-.309 0 0 0-.087.448l-1.8 1.238a.222-.305 0 0 0-.133.03l-1.32-.26v.88h.9c.62 0 1.125.694 1.125 1.547v2.785a.225-.309 0 0 0-.225.309h-1.125a.225-.309 0 0 0-.225-.309v-2.166h-1.125v4.024a.225-.309 0 0 0-.225.309"/><path d="M128.03 87.615h-3.152v-.62h2.927V85.45a.225-.309 0 0 0 .225-.309h3.152v-1.547a.225-.309 0 0 0 .225-.309h2.476v-1.547a.225-.309 0 0 0 .225-.309h3.377v.62h-3.152v1.547a.225-.309 0 0 0-.225.309h-2.476v1.547a.225-.309 0 0 0-.225.309h-3.152v1.547a.225-.309 0 0 0-.225.309m4.953-13.928v-.62a.45-.619 0 0 1 .45-.619h.45c0 .683-.404 1.238-.9 1.238m-5.628 3.714c-.497 0-.9-.556-.9-1.238h.45a.45-.619 0 0 1 .45.619v.62"/></g><path d="M136.136 72.76v-2.475l1.35.62-1.35.62" fill="#e83735"/><path class="B" d="M133.884 76.473a.225.309 0 0 1-.209-.195l-.45-1.547.422-.23.24.83.24-.83.422.23-.45 1.547a.225.309 0 0 1-.209.195m-6.754 4.333h-.45V78.33h.45v2.475m3.595-8.666h-.45v-.62h.45v.62m-.9 0h-.45v-.62h.45v.62m-.9 0h-.45v-.62h.45v.62"/><path class="A" d="M22.133 92.114v15.242H18.59V92.114h-4.16v-3.94h11.902v3.94h-4.2"/><g class="B"><path d="M22.532 107.538h-3.543c-.073 0-.133-.082-.133-.182V94.862h.266v12.305H22.4v-15.06h.266v15.242c0 .097-.06.182-.133.182m-5.65-15.24H14.83c-.07 0-.133-.082-.133-.183v-3.94c0-.097.06-.183.133-.183h8.65v.365h-8.516v3.575h1.92v.365"/><path d="M26.73 92.297h-4.2v-.365h4.067v-3.37h.266v3.554a.134-.184 0 0 0-.133.183m-2.587 15.24h-8.85v-.365h8.717v-3.328a.134-.184 0 0 0 .039-.129l.78-1.07.188.258-.74 1.017v3.435c0 .097-.06.182-.133.182"/><path d="M25 103.447l-.16-.544-.396-.22.937-.524-.38 1.288"/></g><path class="A" d="M58.454 98.1c1.52 0 2.407-1.05 2.407-3.04 0-1.964-.888-2.96-2.407-2.96H55.8v6zm.098 3.766H55.8v5.3h-3.512V88.332h6.176c3.65 0 5.74 2.368 5.74 6.566 0 2.88-.888 4.95-2.506 6.054l2.9 6.216h-3.986l-2.052-5.3"/><g fill="#32435b"><path d="M58.85 98.28l-.01-.358.088-.005.07-.003.17-.013c.3-.03.57-.116.83-.258.37-.205.685-.58.862-1.03a2.085 2.867 0 0 0 .216-.859c.035-.353.05-.667.035-.952-.02-.384-.064-.68-.135-.925a1.695 2.33 0 0 0-.345-.762c-.128-.19-.3-.35-.498-.483-.182-.127-.37-.192-.536-.25-.32-.093-.602-.097-.8-.1h-.387v-.36h.385c.218.002.517.006.867.108.176.06.39.133.598.278a1.98 1.98 0 0 1 .573.566 1.952 2.683 0 0 1 .397.876c.106.367.14.762.152 1.028a6.67 6.67 0 0 1-.035 1.038c-.046.35-.128.675-.244.97-.28.714-.744 1.054-.995 1.192-.286.156-.582.248-.905.282-.07.01-.136.013-.19.014l-.062.003-.092.005m-2.534-1.222h-.263V92.1c0-.1.06-.18.132-.18h.863v.36h-.732v4.783"/><path d="M58.848 98.28h-2.25v-.36h2.25v.36m4.326 5.35l-1.202-2.577a.13.179 0 0 1 .026-.234.48.48 0 0 1 .093-.079l.035-.026c.413-.3 1.17-.954 1.69-2.2.41-.96.637-2.225.638-3.56-.008-.603-.033-1.25-.155-1.865-.034-.24-.095-.467-.153-.685l-.054-.203-.087-.25-.128-.354-.083-.175-.064-.134-.115-.235-.24-.39-.055-.084-.116-.145-.08-.104-.14-.176c-.336-.356-.645-.62-.94-.8a6.084 8.364 0 0 0-1.605-.667l-.274-.063c-.05-.012-.092-.016-.13-.02l-.07-.01-.166-.022.025-.358.23.03.153.025.272.063c.57.12 1.135.355 1.672.695.314.2.64.468.997.847l.157.195.08.097.116.15a.809 1.112 0 0 1 .081.121l.033.048.21.338.127.26.096.202.06.13.133.364.098.287.055.206.162.727c.127.64.153 1.313.162 1.943 0 1.4-.24 2.73-.673 3.743-.405.968-1.036 1.8-1.776 2.314l1.128 2.417-.222.193m1.02 3.723H61c-.05 0-.094-.037-.116-.096l-2.048-5.3.232-.168 2.015 5.205h3.112v.36"/><path d="M56.25 107.168H52.74c-.073 0-.132-.08-.132-.18V88.153a.13.179 0 0 1 .132-.179h2.55v.36h-2.42V106.8h3.25v-5.122c0-.1.06-.18.132-.18h2.762v.36h-2.63v5.125c0 .1-.06.18-.132.18m-18.31.06h-4.213l-.002-.454h4.05v-2.812h.33v3.038a.165.227 0 0 1-.165.227m-10.818.064h3.688v-.435h-3.528v-6.027h-.317v6.238c0 .12.072.22.16.22m-.2-8.164h.347v-4.768h-.347v4.768m24.07 8.1h-4.213l-.002-.454h4.05v-2.812h.33v3.038a.165.227 0 0 1-.165.227m-10.818.064h3.688v-.435h-3.528v-6.027h-.317v6.247c0 .12.072.22.16.22m-.213-8.168h.347v-4.768h-.347v4.768"/><g transform="matrix(.351684 0 0 -.483493 -26.645159 241.530472)"><use xlink:href="#E"/><use xlink:href="#E" x="1.37" y="15.556"/></g></g><g class="A"><path d="M121.17 74.256l3.227 8.22h-6.453z"/><path d="M122.962 99.06c0 4.88-2.36 7.967-6.12 7.967-3.78 0-6.197-3.086-6.197-7.967V88.35h3.415v10.71c0 2.506 1.17 4.036 2.8 4.036 1.612 0 2.706-1.53 2.706-4.036V81.78l3.397.097V99.06"/></g><path class="B" d="M117.458 107.423l-.398-.016-.21-.01c-.248-.017-.486-.06-.717-.103l-.146-.026-.27-.075-.604-.204c-.505-.184-1.046-.513-1.588-.968-1.01-.87-1.788-2.192-2.19-3.735-.226-.774-.31-1.613-.372-2.34l-.028-1.944V88.35a.292.401 0 0 1 .291-.4h3.41c.16 0 .29.18.29.4v.045h-.29v.354h-3.124v9.254l.026 1.87c.056.652.134 1.43.337 2.125.362 1.39 1.055 2.57 1.954 3.34.49.414.98.712 1.45.885.185.087.36.134.546.184l.26.072.122.02.664.097.21.01.596.005.43-.024.395-.065c.18-.02.346-.07.528-.122l.268-.076.587-.242.168-.097c1.03-.545 1.882-1.51 2.406-2.718.514-1.128.78-2.543.796-4.215l.58.01c-.016 1.82-.317 3.375-.88 4.62-.587 1.354-1.543 2.438-2.687 3.044l-.188.106-.632.26-.03.01-.264.075-.592.137-.405.066-.442.025-.254.012m-.03-3.928c-.63-.01-1.198-.22-1.652-.602-.57-.45-.903-1.136-1.082-1.63-.2-.573-.31-1.21-.336-1.9l-.008-1.96v-1.787h.58v1.79l.008 1.93c.02.573.115 1.108.28 1.58.14.39.407.936.857 1.293.37.313.838.48 1.355.5.368 0 .905-.09 1.376-.515a2.65 2.65 0 0 0 .523-.665 2.557 3.515 0 0 0 .339-.864c.18-.67.197-1.4.19-1.98v-7.555h.58v7.55c.007.632-.013 1.467-.226 2.262a3.141 4.318 0 0 1-.42 1.069c-.186.33-.408.615-.666.85a2.49 2.49 0 0 1-1.698.648"/><path class="A" d="M89.574 107.002H86.08v-5.997L80.97 88.01h3.513l3.336 8.276 3.257-8.276h3.513l-5.013 12.86v6.132"/><g class="B"><path d="M89.985 107.285h-3.494c-.114 0-.206-.127-.206-.283v-5.925L81.2 88.144a.204-.28 0 0 0 .004-.279c.037-.085.104-.138.177-.138h3.517c.075 0 .14.056.18.145l1.38 3.426-.36.274-1.322-3.28H81.73l4.947 12.58a.37.37 0 0 1 .025.134v5.714h3.288v.566M88.55 96.073l-.362-.27 3.12-7.928c.036-.097.105-.148.18-.148h3.517c.072 0 .14.052.177.138s.035.19.005.28l-1.99 5.104-.362-.267 1.828-4.688h-3.047l-3.06 7.78"/><path d="M90.19 107.002h-.41v-6.132a.207-.285 0 0 0 .024-.133l1.266-3.248.362.267-1.24 3.19v6.057m28.13-24.9l-.178-.465 2.85-7.435c.024-.062.056-.097.09-.097l.053.658-2.815 7.34"/></g><g transform="matrix(.179475 0 0 -.251611 30.595684 211.534866)"><path class="A" d="M375.464 453c0-12.744 9.828-22.572 21.385-22.572 11.664 0 20.952 9.828 20.952 22.572s-9.288 22.357-20.952 22.357-21.385-9.612-21.385-22.357zm62.1.108c0-22.032-17.496-38.773-40.933-38.773-23.328 0-40.824 16.633-40.824 38.773 0 22.033 17.496 38.34 40.824 38.34 23.437 0 40.933-16.416 40.933-38.34"/><g class="B"><path d="M396.815 428.803a19.08 19.08 0 0 0-3.159.259c-3.784.52-7.65 2.283-10.856 4.955-3.37 2.884-5.252 6.153-6.24 8.4-1 2.248-1.64 4.652-1.933 7.144-.077.6-.095 1.116-.1 1.532l-.023.497-.036.74 1.998.095.033-.706c.012-.137.02-.333.027-.554.013-.375.028-.832.096-1.36.27-2.306.87-4.516 1.778-6.58 1.276-2.893 3.3-5.616 5.7-7.67 2.913-2.428 6.42-4.03 9.87-4.507 3.48-.586 7.3-.068 10.76 1.45a20.51 20.51 0 0 1 7.435 5.908c1.763 2.246 2.702 4.482 3.254 5.97.08.262.18.546.27.804.133.383.247.713.283.922l.173.748 1.948-.457-.162-.688c-.05-.312-.2-.714-.353-1.18l-.267-.797c-.616-1.66-1.637-4.1-3.57-6.552-2.1-2.72-5.02-5.03-8.2-6.5-2.808-1.23-5.815-1.862-8.725-1.862m19.47 28.378l-.354 1.506c-.267.877-.654 2.16-1.356 3.612-.235.544-.547 1.075-.878 1.638l-.375.646-.38.542-1.337 1.744c-1.45 1.693-3.098 3.1-4.8 4.072a20 20 0 0 1-5.83 2.327l-.93.156-.553.087c-.404.078-.8.118-1.343.134l-1.426.067-1.217-.067c-.585-.006-1.106-.1-1.6-.173l-.6-.092c-.44-.05-.816-.152-1.18-.25l-.458-.12c-.846-.197-1.3-.393-1.314-.395l-.795 1.836c.06.027.63.268 1.652.506l.4.103c.396.107.888.24 1.455.305l.516.08c.552.1 1.177.193 1.874.2l1.273.065 1.506-.066c.382-.01.988-.04 1.623-.165l.494-.076 1.05-.178c2.2-.488 4.427-1.37 6.424-2.558 1.877-1.087 3.703-2.633 5.27-4.465.57-.6 1.038-1.285 1.5-1.935l.393-.56c.02-.03.04-.06.057-.1l.387-.665.972-1.82c.752-1.556 1.182-2.982 1.468-3.925l.37-1.567-1.948-.458"/><path d="M376.457 452.32l-1.998.093.036.774.028.56.124 1.58c.216 1.955.785 4.23 1.554 6.202.837 2.013 2 4.047 3.226 5.6.352.46.702.847.994 1.17l.356.403a4.7 4.7 0 0 0 .514.534l.1.106 1.365-1.462-.148-.138a2.8 2.8 0 0 1-.314-.33l-.398-.45-.9-1.06c-1.1-1.403-2.2-3.316-2.95-5.123-.7-1.794-1.223-3.885-1.427-5.716a11.08 11.08 0 0 1-.107-1.38l-.032-.63-.033-.732m20.2-39.617l-2.933.126-2.614.22-2.583.352c-.6.076-1.198.22-1.766.36l-.86.2-.9.208c-.573.124-1.165.252-1.755.477l-2.377.792c-7.43 2.614-12.62 7.03-15.67 10.277-3.9 4.145-6.02 8.335-7.276 11.126l-1.292 3.5a1.17 1.17 0 0 0-.03.098l-.322 1.25 1.937.498.3-1.2 1.248-3.378c1.17-2.597 3.2-6.587 6.883-10.513 4.096-4.36 9.373-7.824 14.862-9.756l2.392-.797c.497-.2 1-.295 1.513-.408a20.68 20.68 0 0 0 .938-.218 21.84 21.84 0 0 0 .876-.203c.537-.13 1.043-.255 1.55-.318l2.632-.358c.787-.137 1.563-.167 2.384-.2l2.854-.126 2.86.13c.802.032 1.56.062 2.298.2l2.707.37c.526.07 1.05.197 1.604.333l.954.22c1.328.252 2.633.695 3.895 1.122l1.118.374c3.706 1.47 6.543 2.97 8.87 4.7 1.12.718 2.1 1.56 3.03 2.376l.793.683c.38.3.695.64 1.028 1.002l.62.65c.158.175.362.385.566.594.34.35.663.68.932 1.03l2.084 2.688 1.664 2.67c.233.344.402.7.58 1.077.1.235.22.467.34.692l.86 1.747c.15.327.278.687.406 1.042l.855 2.3c.126.3.2.62.28.95a11.51 11.51 0 0 0 .16.613 33.35 33.35 0 0 0 .281 1.093c.168.623.326 1.2.407 1.755l.4 2.58c.122.645.147 1.208.17 1.75l.153 3.08 1.997-.1-.152-3.066c-.026-.587-.055-1.25-.198-2l-.384-2.538c-.097-.658-.27-1.3-.454-1.98l-.28-1.082c-.063-.22-.105-.396-.148-.573a8.28 8.28 0 0 0-.36-1.203l-.612-1.656-.227-.6a15.68 15.68 0 0 0-.48-1.22l-.885-1.8c-.12-.226-.215-.43-.312-.633-.203-.432-.414-.877-.714-1.318l-1.698-2.714-2.143-2.774c-.337-.437-.715-.825-1.08-1.2l-.558-.585c-.227-.226-.407-.422-.588-.618-.373-.404-.758-.82-1.235-1.195l-.746-.645c-.994-.86-2.02-1.753-3.204-2.5-2.414-1.798-5.396-3.38-9.327-4.936l-1.156-.388c-1.326-.45-2.698-.914-4.143-1.188a30.56 30.56 0 0 1-.873-.205c-.58-.14-1.18-.288-1.8-.372l-2.67-.365c-.832-.144-1.693-.18-2.525-.213l-2.94-.13"/><path d="M357.875 461.4l-1.944.47.736 2.768 1.16 3.12 1.277 2.673.604 1.205c1.56 2.564 3.683 5.776 6.66 8.583 2.92 2.782 6.4 5.233 10.1 7.082 3.5 1.7 7.44 2.96 11.727 3.8l1.82.244c1.28.182 2.604.37 3.894.37l2.53.112a41.17 41.17 0 0 0 1.672-.056l1.63-.072 1.438-.076 3.773-.504c.377-.046.74-.132 1.082-.215l3.223-.735-.445-1.95-2.758.63a13.33 13.33 0 0 0-.49.113c-.27.065-.556.136-.865.174l-3.732.5c-.385.03-.84.047-1.306.066l-1.645.072-1.543.055-2.52-.112c-1.192-.001-2.4-.172-3.656-.352l-1.797-.24c-4.043-.783-7.82-2-11.148-3.607a40.45 40.45 0 0 1-9.596-6.74c-2.808-2.647-4.834-5.716-6.285-8.094l-.57-1.144c-.45-.892-.877-1.735-1.203-2.5l-1.12-3.002-.692-2.618m78.684-8.965l-.243 4.263-.5 3.224c-.086.496-.23 1.035-.385 1.606l-.617 2.353-1.316 3.5-.303.6c-1.3 3.014-3.34 6.078-6.1 9.158a53.88 53.88 0 0 0-.943.975c-.608.64-1.132 1.2-1.56 1.5l-1.127.953 1.293 1.526 1.08-.915c.514-.38 1.093-1 1.763-1.694l.95-.983c2.93-3.28 5.087-6.527 6.448-9.7l.32-.642 1.376-3.656a1.06 1.06 0 0 0 .031-.096l.627-2.398c.158-.6.322-1.198.427-1.804l.545-3.578c.01-.033.01-.066.01-.1l.202-4.03-1.997-.1"/></g></g><path class="C" d="M105.397 97.694c0 2.783-1.64 5.04-3.666 5.04s-3.665-2.256-3.665-5.04 1.64-5.04 3.665-5.04 3.666 2.256 3.666 5.04"/><path d="M101.567 98.802l-.693-.952-1.302 2.742z" fill="#fff"/><path class="B" d="M102.23 97.67a.528.726 0 1 1-1.056 0 .528.726 0 1 1 1.056 0"/><path d="M102.18 92.756h-.835l.417.9zm-.94 9.515h.98l-.5-1.064zm-2.994-5.175v1.147l.662-.573z" fill="#fff"/><path d="M101.795 96.623l.693.952 1.302-2.742z" fill="#e83735"/><path d="M105.063 97.097v1.147l-.662-.573z" fill="#fff"/><g transform="matrix(.351684 0 0 -.483493 -26.645159 241.530472)" class="C"><use xlink:href="#F"/><use x="14" xlink:href="#F"/></g><path class="B" d="M89.61 111.188h-3.654c-.288 0-.522-.322-.522-.718v-3.588a.52.716 0 0 1 .153-.508l3.132-4.306.74 1.015-2.98 4.096v2.574h3.132v1.436"/><use xlink:href="#H" class="A"/><use transform="matrix(.351684 0 0 -.483493 -26.645159 241.530472)" class="B" xlink:href="#G"/><path class="C" d="M77.552 114.6l-7.034-1.934a.352.483 0 0 1-.283-.474v-2.9a.352.483 0 0 1 .283-.474l7.034-1.934.138.948-6.75 1.857v2.108l6.75 1.857-.138.948"/><g class="B"><path d="M66.366 123.8h-.703v-16.197c0-6 3.55-10.88 7.913-10.88s7.913 4.88 7.913 10.88v.242h-.703v-.242c0-5.465-3.234-9.912-7.2-9.912s-7.2 4.446-7.2 9.912V123.8m8.44 0h-.703v-3.384h.703v3.384"/><path d="M78.675 120.9h-5.627v-.967h5.275v-2.9a.352-.483 0 0 0 .352-.484h1.055v-4.835h.703v5.318a.352-.483 0 0 0-.352.483h-1.055v2.9a.352-.483 0 0 0-.352.483m-1.055-1.933h-3.165c-.582 0-1.055-.65-1.055-1.45v-.483h.703v.483a.352-.483 0 0 1 .352.483h3.165v.967m13.035-18.544H89.61v-1.436h1.044v1.436m2.088 0H91.7v-1.436h1.045v1.436m-14.17 23.715l-.497-.684 2.462-3.384a.352-.483 0 0 0 .497 0l.806 1.11 2.917-4 .497.684-3.165 4.35a.352-.483 0 0 0-.497 0l-.806-1.11-2.213 3.043"/></g><use xlink:href="#H" x="-4.924" class="A"/><use transform="matrix(.351684 0 0 -.483493 -26.645159 241.530472)" class="B" x="-14" xlink:href="#G"/><path class="C" d="M76.762 102.816c-.023 0-.044.007-.066.01.04-.153.066-.316.066-.488 0-.795-.468-1.44-1.047-1.44-.273 0-.52.147-.705.387-.037-.748-.485-1.34-1.04-1.34s-1.002.593-1.04 1.34c-.186-.235-.433-.387-.705-.387-.578 0-1.047.644-1.047 1.44a1.9 1.9 0 0 0 .066.488c-.022-.001-.044-.01-.066-.01-.578 0-1.047.644-1.047 1.44s.468 1.44 1.047 1.44h5.582c.578 0 1.047-.644 1.047-1.44s-.468-1.44-1.047-1.44"/><path class="B" d="M71.17 103.296c-.375 0-.687.435-.687.96s.317.96.698.96h5.582c.385 0 .698-.435.698-.96s-.308-.952-.688-.96l-.054.008a.341.469 0 0 1-.301-.191.348.479 0 0 1-.049-.451 1.27 1.27 0 0 0 .045-.325c0-.53-.317-.96-.698-.96-.172 0-.338.1-.47.256-.1.124-.24.16-.366.092a.348.479 0 0 1-.218-.412c-.025-.5-.33-.894-.69-.894s-.666.393-.69.894a.348.479 0 0 1-.218.412c-.124.07-.266.032-.366-.092-.13-.164-.297-.256-.47-.256-.385 0-.698.435-.698.96a1.27 1.27 0 0 0 .045.325.348.479 0 0 1-.049.451c-.07.13-.18.205-.3.19a.71.71 0 0 1-.055-.008zm5.593 2.878H71.18c-.77 0-1.395-.86-1.395-1.92 0-.893.446-1.645 1.047-1.858l-.001-.06c0-1.058.626-1.918 1.395-1.918.17 0 .336.043.492.126.227-.643.706-1.085 1.252-1.085s1.025.44 1.252 1.085c.156-.082.324-.126.492-.126.77 0 1.395.86 1.395 1.918l-.001.06c.598.213 1.047.966 1.047 1.858 0 1.058-.626 1.92-1.395 1.92"/><path d="M30.6 91.746v3.775h6.36v3.803H30.6v3.83h7.254v3.803H27.212V87.943h10.433v3.803H30.6" fill="#84dbff"/><path d="M41.703 107.286h-1.48a.35.35 0 0 1-.346-.35V88.002c0-.194.154-.35.346-.35h7.305v.703h-6.96v18.23h1.136v.703M50.84 92.2h-4.784v-.336h4.616v-1.642h.102v-.168h.066c.093 0 .168.075.168.168v1.8c0 .093-.075.168-.168.168" fill="#32435b"/><path d="M43.627 91.865v3.775h6.36v3.803h-6.36v3.83h7.254v3.803H40.238V88.062h10.433v3.803h-7.045" fill="#84dbff"/></g></svg>