<?xml version="1.0" encoding="utf-8"?>
<!-- Generator: Adobe Illustrator 18.0.0, SVG Export Plug-In . SVG Version: 6.00 Build 0)  -->
<!DOCTYPE svg PUBLIC "-//W3C//DTD SVG 1.1//EN" "http://www.w3.org/Graphics/SVG/1.1/DTD/svg11.dtd">
<svg version="1.1" id="Layer_1" xmlns="http://www.w3.org/2000/svg" xmlns:xlink="http://www.w3.org/1999/xlink" x="0px" y="0px"
	 viewBox="0 0 129.5 129.5" enable-background="new 0 0 129.5 129.5" xml:space="preserve">
<g>
	<g>
		<path fill="#E6E9EE" d="M29.4,63c3.2-2.5,3.5-7.2,0.6-10L17.1,40.5c-3-2.9-8-2.4-10.2,1.2c-0.7,1-1.3,2.1-1.9,3.2l21.2,20.6
			L29.4,63z"/>
		<path fill="#FFFFFF" d="M64,105c-1.9,2.6-5.7,3-8.1,0.7L24.1,74.8c-2.3-2.3-2.1-6.1,0.5-8.1l1.6-1.2L5,44.8
			c-0.2,0.3-0.3,0.6-0.5,0.9c-7.1,13.5-4.1,30,6.8,40.6l33.4,32.5c10.9,10.6,27.5,13.2,40.8,5.7c0.3-0.2,0.6-0.3,0.8-0.5l-21.2-20.6
			L64,105z"/>
		<path fill="#E6E9EE" d="M90.4,111.8L77.5,99.3c-2.9-2.8-7.6-2.4-10,0.9l-2.3,3.2L86.4,124c1.1-0.6,2.1-1.3,3.1-1.9
			C93,119.7,93.4,114.8,90.4,111.8z"/>
		<path d="M90.9,111.3L78,98.8c-1.4-1.3-3.2-2.1-5.1-2.1c-2.4,0-4.6,1.1-6,3l-3.5,4.8c-0.9,1.2-2.2,1.9-3.7,1.9
			c-1.2,0-2.3-0.5-3.2-1.3L24.7,74.2c-1-0.9-1.5-2.2-1.4-3.6c0.1-1.3,0.7-2.6,1.8-3.4l4.7-3.6c1.7-1.3,2.7-3.3,2.9-5.4
			c0.1-2.1-0.7-4.2-2.2-5.7L17.6,39.9c-1.4-1.4-3.2-2.1-5.2-2.1c-2.5,0-4.8,1.3-6.2,3.4c-0.5,0.7-2.3,3.9-2.4,4.1
			c-7.1,13.5-4.2,30.6,7,41.5l33.4,32.5c6.7,6.5,15.8,10.2,25,10.2c5.9,0,11.7-1.5,16.7-4.3c0.2-0.1,3.3-2,4-2.5
			c1.8-1.2,3-3.2,3.2-5.4C93.3,115,92.5,112.9,90.9,111.3z M7.5,42c1.1-1.7,2.9-2.7,4.9-2.7c1.5,0,3,0.6,4.1,1.7l12.9,12.5
			c1.2,1.2,1.9,2.9,1.8,4.6c-0.1,1.7-0.9,3.3-2.3,4.3l-2.6,2L6,44.7C6.5,43.7,7,42.8,7.5,42z M45.3,118.2L11.9,85.8
			C1.2,75.3-1.6,59,5.2,46l3,2.9l16.9,16.4l-0.9,0.7c-1.4,1.1-2.3,2.7-2.4,4.5c-0.1,1.8,0.6,3.5,1.8,4.7l31.8,30.9
			c1.1,1.1,2.7,1.7,4.3,1.7c2,0,3.8-0.9,4.9-2.5l0.7-0.9l19.9,19.3c-4.9,2.7-10.4,4.1-16,4.1C60.4,128,51.7,124.4,45.3,118.2z
			 M91.6,117.1c-0.2,1.8-1.1,3.3-2.5,4.3c-0.8,0.5-1.6,1.1-2.6,1.6l-20.3-19.8l1.9-2.7c1.1-1.5,2.9-2.4,4.8-2.4c1.5,0,3,0.6,4.1,1.7
			l12.9,12.5C91.2,113.6,91.8,115.4,91.6,117.1z"/>
		<path fill="#231F20" d="M86.1,85.2L86,83.7c0.3,0,0.7,0,1-0.1l0.1,1.5C86.7,85.2,86.4,85.2,86.1,85.2z M89.1,85l-0.2-1.5
			c0.3,0,0.6-0.1,1-0.1l0.2,1.5C89.8,84.9,89.4,84.9,89.1,85z M92.1,84.5L91.8,83c0.3-0.1,0.6-0.1,1-0.2l0.3,1.5
			C92.8,84.4,92.5,84.4,92.1,84.5z M95.1,83.8l-0.4-1.4c0.3-0.1,0.6-0.2,0.9-0.3l0.4,1.4C95.7,83.6,95.4,83.7,95.1,83.8z M98,82.9
			l-0.5-1.4c0.3-0.1,0.6-0.2,0.9-0.3l0.5,1.4C98.6,82.6,98.3,82.8,98,82.9z M100.8,81.7l-0.6-1.4c0.3-0.1,0.6-0.3,0.9-0.4l0.7,1.4
			C101.4,81.4,101.1,81.6,100.8,81.7z M103.6,80.4l-0.7-1.3c0.3-0.2,0.6-0.3,0.9-0.5l0.8,1.3C104.2,80,103.9,80.2,103.6,80.4z
			 M106.2,78.8l-0.8-1.3c0.3-0.2,0.5-0.4,0.8-0.5l0.8,1.2C106.8,78.4,106.5,78.6,106.2,78.8z M108.7,77l-0.9-1.2
			c0.3-0.2,0.5-0.4,0.8-0.6l0.9,1.2C109.2,76.6,108.9,76.8,108.7,77z M111,75.1l-1-1.1c0.2-0.2,0.5-0.4,0.7-0.7l1,1.1
			C111.5,74.7,111.3,74.9,111,75.1z M113.2,73l-1.1-1c0.2-0.2,0.5-0.5,0.7-0.7l1.1,1C113.7,72.5,113.5,72.7,113.2,73z M115.3,70.7
			l-1.2-1c0.2-0.3,0.4-0.5,0.6-0.8l1.2,0.9C115.7,70.2,115.5,70.5,115.3,70.7z M117.1,68.3l-1.2-0.9c0.2-0.3,0.4-0.5,0.6-0.8
			l1.2,0.8C117.5,67.7,117.3,68,117.1,68.3z M118.8,65.7l-1.3-0.8c0.2-0.3,0.3-0.6,0.5-0.8l1.3,0.7C119.2,65.1,119,65.4,118.8,65.7z
			 M120.3,63l-1.3-0.7c0.1-0.3,0.3-0.6,0.4-0.9l1.4,0.6C120.6,62.4,120.4,62.7,120.3,63z M121.5,60.3l-1.4-0.6
			c0.1-0.3,0.2-0.6,0.4-0.9l1.4,0.5C121.8,59.6,121.7,59.9,121.5,60.3z M122.6,57.4l-1.4-0.5c0.1-0.3,0.2-0.6,0.3-0.9l1.4,0.4
			C122.8,56.7,122.7,57.1,122.6,57.4z M123.4,54.4l-1.5-0.3c0.1-0.3,0.1-0.6,0.2-1l1.5,0.3C123.6,53.8,123.5,54.1,123.4,54.4z
			 M124,51.4l-1.5-0.2c0.1-0.3,0.1-0.6,0.1-1l1.5,0.2C124.1,50.8,124.1,51.1,124,51.4z M124.4,48.4l-1.5-0.1c0-0.3,0-0.7,0.1-1
			l1.5,0.1C124.4,47.7,124.4,48.1,124.4,48.4z M124.5,45.3l-1.5,0l0-0.2c0-0.3,0-0.5,0-0.8l1.5,0c0,0.3,0,0.5,0,0.8L124.5,45.3z
			 M45.7,45.1h-1.5c0-0.3,0-0.7,0-1l1.5,0C45.7,44.5,45.7,44.8,45.7,45.1z M122.9,42.4c0-0.3,0-0.7-0.1-1l1.5-0.1
			c0,0.3,0.1,0.7,0.1,1L122.9,42.4z M45.9,42.2l-1.5-0.1c0-0.3,0.1-0.7,0.1-1l1.5,0.1C45.9,41.5,45.9,41.8,45.9,42.2z M122.6,39.5
			c0-0.3-0.1-0.6-0.2-1l1.5-0.3c0.1,0.3,0.1,0.7,0.2,1L122.6,39.5z M46.2,39.3L44.7,39c0.1-0.3,0.1-0.7,0.2-1l1.5,0.3
			C46.3,38.6,46.2,38.9,46.2,39.3z M122.1,36.6c-0.1-0.3-0.1-0.6-0.2-1l1.5-0.4c0.1,0.3,0.2,0.7,0.2,1L122.1,36.6z M46.7,36.4
			L45.3,36c0.1-0.3,0.2-0.7,0.2-1l1.5,0.4C46.9,35.7,46.8,36,46.7,36.4z M121.3,33.7c-0.1-0.3-0.2-0.6-0.3-0.9l1.4-0.5
			c0.1,0.3,0.2,0.6,0.3,1L121.3,33.7z M47.5,33.5l-1.4-0.5c0.1-0.3,0.2-0.6,0.3-1l1.4,0.5C47.7,32.9,47.6,33.2,47.5,33.5z M120.3,31
			c-0.1-0.3-0.2-0.6-0.4-0.9l1.4-0.6c0.1,0.3,0.3,0.6,0.4,0.9L120.3,31z M48.5,30.7l-1.4-0.6c0.1-0.3,0.3-0.6,0.4-0.9l1.4,0.6
			C48.7,30.1,48.6,30.4,48.5,30.7z M119.2,28.3c-0.1-0.3-0.3-0.6-0.4-0.9l1.3-0.7c0.2,0.3,0.3,0.6,0.5,0.9L119.2,28.3z M49.7,28.1
			l-1.3-0.7c0.2-0.3,0.3-0.6,0.5-0.9l1.3,0.7C50,27.5,49.8,27.8,49.7,28.1z M117.8,25.7c-0.2-0.3-0.3-0.6-0.5-0.8l1.3-0.8
			c0.2,0.3,0.4,0.6,0.5,0.9L117.8,25.7z M51.1,25.5l-1.3-0.8c0.2-0.3,0.4-0.6,0.5-0.9l1.3,0.8C51.4,24.9,51.3,25.2,51.1,25.5z
			 M116.2,23.2c-0.2-0.3-0.4-0.5-0.6-0.8l1.2-0.9c0.2,0.3,0.4,0.6,0.6,0.8L116.2,23.2z M52.7,23l-1.2-0.9c0.2-0.3,0.4-0.6,0.6-0.8
			l1.2,0.9C53.1,22.5,52.9,22.7,52.7,23z M114.4,20.9c-0.2-0.3-0.4-0.5-0.6-0.8l1.1-1c0.2,0.3,0.4,0.5,0.7,0.8L114.4,20.9z
			 M54.5,20.6l-1.2-1c0.2-0.3,0.4-0.5,0.7-0.8l1.1,1C54.9,20.1,54.7,20.4,54.5,20.6z M112.5,18.6c-0.2-0.2-0.5-0.5-0.7-0.7l1.1-1.1
			c0.2,0.2,0.5,0.5,0.7,0.7L112.5,18.6z M56.4,18.4l-1.1-1c0.2-0.2,0.5-0.5,0.7-0.7l1.1,1.1C56.9,18,56.7,18.2,56.4,18.4z
			 M110.4,16.6c-0.2-0.2-0.5-0.4-0.7-0.7l1-1.1c0.3,0.2,0.5,0.4,0.8,0.7L110.4,16.6z M58.5,16.4l-1-1.1c0.3-0.2,0.5-0.5,0.8-0.7
			l1,1.1C59,16,58.8,16.2,58.5,16.4z M108.2,14.7c-0.3-0.2-0.5-0.4-0.8-0.6l0.9-1.2c0.3,0.2,0.5,0.4,0.8,0.6L108.2,14.7z M60.8,14.5
			l-0.9-1.2c0.3-0.2,0.5-0.4,0.8-0.6l0.9,1.2C61.3,14.1,61.1,14.3,60.8,14.5z M105.8,12.9c-0.3-0.2-0.5-0.4-0.8-0.5l0.8-1.3
			c0.3,0.2,0.6,0.4,0.9,0.6L105.8,12.9z M63.2,12.8l-0.8-1.3c0.3-0.2,0.6-0.4,0.9-0.5l0.8,1.3C63.7,12.4,63.5,12.6,63.2,12.8z
			 M103.3,11.4c-0.3-0.2-0.6-0.3-0.9-0.5l0.7-1.3c0.3,0.2,0.6,0.3,0.9,0.5L103.3,11.4z M65.7,11.3L65,10c0.3-0.2,0.6-0.3,0.9-0.5
			l0.7,1.3C66.3,11,66,11.1,65.7,11.3z M100.6,10.1c-0.3-0.1-0.6-0.3-0.9-0.4l0.6-1.4c0.3,0.1,0.6,0.3,0.9,0.4L100.6,10.1z M68.3,10
			l-0.6-1.4c0.3-0.1,0.6-0.3,0.9-0.4l0.6,1.4C68.9,9.7,68.6,9.8,68.3,10z M97.9,8.9c-0.3-0.1-0.6-0.2-0.9-0.3l0.5-1.4
			c0.3,0.1,0.6,0.2,1,0.3L97.9,8.9z M71,8.8l-0.5-1.4c0.3-0.1,0.6-0.2,1-0.3L72,8.5C71.7,8.6,71.3,8.7,71,8.8z M95.1,8
			c-0.3-0.1-0.6-0.2-0.9-0.3l0.4-1.5c0.3,0.1,0.7,0.2,1,0.3L95.1,8z M73.8,7.9l-0.4-1.4c0.3-0.1,0.7-0.2,1-0.3l0.4,1.5
			C74.5,7.8,74.1,7.8,73.8,7.9z M92.3,7.3c-0.3-0.1-0.6-0.1-1-0.2l0.3-1.5c0.3,0.1,0.7,0.1,1,0.2L92.3,7.3z M76.7,7.2l-0.3-1.5
			c0.3-0.1,0.7-0.1,1-0.2l0.3,1.5C77.3,7.1,77,7.2,76.7,7.2z M89.4,6.8c-0.3,0-0.6-0.1-1-0.1l0.2-1.5c0.3,0,0.7,0.1,1,0.1L89.4,6.8z
			 M79.6,6.8l-0.2-1.5c0.3,0,0.7-0.1,1-0.1l0.1,1.5C80.2,6.7,79.9,6.7,79.6,6.8z M86.4,6.5c-0.3,0-0.7,0-1,0l0-1.5c0.3,0,0.7,0,1,0
			L86.4,6.5z M82.5,6.5L82.5,5c0.3,0,0.7,0,1,0l0,1.5C83.2,6.5,82.8,6.5,82.5,6.5z"/>
		<path d="M84.4,90.2c-0.4,0-0.8-0.3-0.8-0.8s0.3-0.8,0.8-0.8c11.6,0,22.6-4.5,30.8-12.8c8.2-8.2,12.8-19.2,12.8-30.8
			c0-24-19.6-43.6-43.6-43.6c-24,0-43.6,19.6-43.6,43.6c0,0.4-0.3,0.8-0.8,0.8s-0.8-0.3-0.8-0.8C39.3,20.2,59.5,0,84.4,0
			s45.1,20.2,45.1,45.1c0,12.1-4.7,23.4-13.2,31.9C107.8,85.5,96.4,90.2,84.4,90.2z"/>
		<path fill="#FFFFFF" d="M84.4,10.6c-19.1,0-34.6,15.5-34.6,34.6c0,5.4,1.2,10.4,3.4,14.9l-6.6,22.9l22.9-6.6
			c4.5,2.2,9.6,3.4,14.9,3.4c19.1,0,34.6-15.5,34.6-34.6C118.9,26,103.5,10.6,84.4,10.6z"/>
		<path d="M45.5,84l6.9-23.9c-2.2-4.7-3.3-9.8-3.3-15c0-19.5,15.8-35.3,35.3-35.3s35.3,15.8,35.3,35.3s-15.8,35.3-35.3,35.3
			c-5.2,0-10.3-1.1-15-3.3L45.5,84z M84.4,11.3c-18.6,0-33.8,15.2-33.8,33.8c0,5.1,1.1,10,3.3,14.6L54,60l-6.3,21.8l21.8-6.3
			l0.3,0.1c4.6,2.2,9.5,3.3,14.6,3.3c18.6,0,33.8-15.2,33.8-33.8C118.2,26.5,103,11.3,84.4,11.3z"/>
		<circle fill="#FF7058" cx="84.4" cy="45.1" r="27.3"/>
		<path fill="#FFFFFF" d="M77.2,41.4c0.5-0.7,0.8-1.5,0.8-2.1c0-0.7-0.2-1.3-0.7-1.7c-0.5-0.5-1-0.7-1.7-0.7c-1.3,0-2.5,0.9-3.7,2.8
			l-3.7-2.2c1-1.5,2-2.6,3.2-3.4s2.6-1.2,4.4-1.2c1.8,0,3.4,0.6,4.7,1.7c1.4,1.1,2,2.7,2,4.6c0,1.1-0.3,2.1-0.8,3.1
			c-0.5,1-1.5,2.2-3,3.7L75,49.9h8.2v4.1H68.5v-3.4l6.1-6.2C75.8,43.2,76.7,42.2,77.2,41.4z"/>
		<path fill="#FFFFFF" d="M94.1,45.1v-3.6h4.4v3.6h2.3v4h-2.3v4.9h-4.4v-4.9h-8.3v-3.5l7.4-12.2h5l-7,11.8H94.1z"/>
		<g>
			<path fill="#231F20" d="M17.6,12.6c0.2,0,0.4-0.1,0.5-0.2l1.3-1.3c0.3-0.3,0.3-0.8,0-1.1c-0.3-0.3-0.8-0.3-1.1,0L17,11.3
				c-0.3,0.3-0.3,0.8,0,1.1C17.2,12.5,17.4,12.6,17.6,12.6z"/>
			<path fill="#231F20" d="M14.3,14.1L13,15.3c-0.3,0.3-0.3,0.8,0,1.1c0.1,0.1,0.3,0.2,0.5,0.2s0.4-0.1,0.5-0.2l1.3-1.3
				c0.3-0.3,0.3-0.8,0-1.1C15.1,13.8,14.6,13.8,14.3,14.1z"/>
			<path fill="#231F20" d="M18.1,14.1c-0.3-0.3-0.8-0.3-1.1,0c-0.3,0.3-0.3,0.8,0,1.1l1.3,1.3c0.1,0.1,0.3,0.2,0.5,0.2
				c0.2,0,0.4-0.1,0.5-0.2c0.3-0.3,0.3-0.8,0-1.1L18.1,14.1z"/>
			<path fill="#231F20" d="M14.1,10c-0.3-0.3-0.8-0.3-1.1,0c-0.3,0.3-0.3,0.8,0,1.1l1.3,1.3c0.1,0.1,0.3,0.2,0.5,0.2
				s0.4-0.1,0.5-0.2c0.3-0.3,0.3-0.8,0-1.1L14.1,10z"/>
		</g>
		<g>
			<path fill="#231F20" d="M12.3,116.4c0.2,0,0.4-0.1,0.5-0.2l1.3-1.3c0.3-0.3,0.3-0.8,0-1.1c-0.3-0.3-0.8-0.3-1.1,0l-1.3,1.3
				c-0.3,0.3-0.3,0.8,0,1.1C11.9,116.3,12.1,116.4,12.3,116.4z"/>
			<path fill="#231F20" d="M9,117.8l-1.3,1.3c-0.3,0.3-0.3,0.8,0,1.1c0.1,0.1,0.3,0.2,0.5,0.2c0.2,0,0.4-0.1,0.5-0.2l1.3-1.3
				c0.3-0.3,0.3-0.8,0-1.1C9.8,117.5,9.3,117.5,9,117.8z"/>
			<path fill="#231F20" d="M12.8,117.8c-0.3-0.3-0.8-0.3-1.1,0c-0.3,0.3-0.3,0.8,0,1.1l1.3,1.3c0.1,0.1,0.3,0.2,0.5,0.2
				s0.4-0.1,0.5-0.2c0.3-0.3,0.3-0.8,0-1.1L12.8,117.8z"/>
			<path fill="#231F20" d="M9,116.2c0.1,0.1,0.3,0.2,0.5,0.2s0.4-0.1,0.5-0.2c0.3-0.3,0.3-0.8,0-1.1l-1.3-1.3
				c-0.3-0.3-0.8-0.3-1.1,0c-0.3,0.3-0.3,0.8,0,1.1L9,116.2z"/>
		</g>
		<g>
			<path fill="#231F20" d="M115.7,104c0.2,0,0.4-0.1,0.5-0.2l1.3-1.3c0.3-0.3,0.3-0.8,0-1.1c-0.3-0.3-0.8-0.3-1.1,0l-1.3,1.3
				c-0.3,0.3-0.3,0.8,0,1.1C115.3,103.9,115.5,104,115.7,104z"/>
			<path fill="#231F20" d="M112.4,105.4l-1.3,1.3c-0.3,0.3-0.3,0.8,0,1.1c0.1,0.1,0.3,0.2,0.5,0.2s0.4-0.1,0.5-0.2l1.3-1.3
				c0.3-0.3,0.3-0.8,0-1.1S112.7,105.1,112.4,105.4z"/>
			<path fill="#231F20" d="M117.5,106.7l-1.3-1.3c-0.3-0.3-0.8-0.3-1.1,0c-0.3,0.3-0.3,0.8,0,1.1l1.3,1.3c0.1,0.1,0.3,0.2,0.5,0.2
				c0.2,0,0.4-0.1,0.5-0.2C117.8,107.5,117.8,107,117.5,106.7z"/>
			<path fill="#231F20" d="M112.2,101.4c-0.3-0.3-0.8-0.3-1.1,0c-0.3,0.3-0.3,0.8,0,1.1l1.3,1.3c0.1,0.1,0.3,0.2,0.5,0.2
				c0.2,0,0.4-0.1,0.5-0.2c0.3-0.3,0.3-0.8,0-1.1L112.2,101.4z"/>
		</g>
		<g>
			<path fill="#231F20" d="M25.6,25.8c0-0.4-0.3-0.8-0.8-0.8h-8.1c-0.4,0-0.8,0.3-0.8,0.8c0,0.4,0.3,0.8,0.8,0.8h8.1
				C25.3,26.6,25.6,26.3,25.6,25.8z"/>
			<path fill="#231F20" d="M28.1,28h-4c-0.4,0-0.8,0.3-0.8,0.8c0,0.4,0.3,0.8,0.8,0.8h4c0.4,0,0.8-0.3,0.8-0.8
				C28.8,28.4,28.5,28,28.1,28z"/>
			<path fill="#231F20" d="M32.3,25.1h-3.8c-0.4,0-0.8,0.3-0.8,0.8c0,0.4,0.3,0.8,0.8,0.8h3.8c0.4,0,0.8-0.3,0.8-0.8
				C33.1,25.4,32.7,25.1,32.3,25.1z"/>
			<path fill="#231F20" d="M21.2,28h-0.8c-0.4,0-0.8,0.3-0.8,0.8c0,0.4,0.3,0.8,0.8,0.8h0.8c0.4,0,0.8-0.3,0.8-0.8
				C22,28.4,21.6,28,21.2,28z"/>
		</g>
		<g>
			<path fill="#231F20" d="M112.7,117.5c0-0.4-0.3-0.8-0.8-0.8h-8.1c-0.4,0-0.8,0.3-0.8,0.8c0,0.4,0.3,0.8,0.8,0.8h8.1
				C112.4,118.3,112.7,118,112.7,117.5z"/>
			<path fill="#231F20" d="M115.2,119.7h-4c-0.4,0-0.8,0.3-0.8,0.8c0,0.4,0.3,0.8,0.8,0.8h4c0.4,0,0.8-0.3,0.8-0.8
				C115.9,120.1,115.6,119.7,115.2,119.7z"/>
			<path fill="#231F20" d="M119.4,116.8h-3.8c-0.4,0-0.8,0.3-0.8,0.8c0,0.4,0.3,0.8,0.8,0.8h3.8c0.4,0,0.8-0.3,0.8-0.8
				C120.2,117.1,119.8,116.8,119.4,116.8z"/>
			<path fill="#231F20" d="M108.3,119.7h-0.8c-0.4,0-0.8,0.3-0.8,0.8c0,0.4,0.3,0.8,0.8,0.8h0.8c0.4,0,0.8-0.3,0.8-0.8
				C109.1,120.1,108.7,119.7,108.3,119.7z"/>
		</g>
		<circle fill="#84DBFF" cx="34.1" cy="9.7" r="2.1"/>
		<circle fill="#FF7058" cx="26.7" cy="115.6" r="2.1"/>
		<circle fill="#FFD05B" cx="96.1" cy="97.4" r="2.1"/>
	</g>
</g>
</svg>
