<?xml version="1.0" encoding="utf-8"?>
<!-- Generator: Adobe Illustrator 18.0.0, SVG Export Plug-In . SVG Version: 6.00 Build 0)  -->
<!DOCTYPE svg PUBLIC "-//W3C//DTD SVG 1.1//EN" "http://www.w3.org/Graphics/SVG/1.1/DTD/svg11.dtd">
<svg version="1.1" id="Layer_1" xmlns="http://www.w3.org/2000/svg" xmlns:xlink="http://www.w3.org/1999/xlink" x="0px" y="0px"
	 viewBox="0 0 129.5 129.5" enable-background="new 0 0 129.5 129.5" xml:space="preserve">
<g>
	<g>
		<polygon fill="#E6E9EE" points="77.3,121.8 78.8,117 51.4,117 52.9,121.8 		"/>
		<path fill="#FFFFFF" d="M115.4,117H14.8V56.7c0-2,1.6-3.6,3.6-3.6h93.4c2,0,3.6,1.6,3.6,3.6V117z"/>
		<rect x="20" y="59.2" fill="#84DBFF" width="90.3" height="51.6"/>
		<path fill="#FFFFFF" d="M96.3,13.7C81.8,13.7,70,25.5,70,40.1c0,5,1.4,9.6,3.8,13.6L70,66.4l12.8-3.8c4,2.4,8.6,3.8,13.6,3.8
			c14.6,0,26.4-11.8,26.4-26.4"/>
		<g>
			<path fill="#231F20" d="M116.2,58.5c4.5-4.8,7.3-11.3,7.3-18.4c0-0.3,0-0.7,0-1l-1.5,0.1c0,0.3,0,0.6,0,1
				c0,14.1-11.5,25.6-25.6,25.6c-4.6,0-9.2-1.3-13.2-3.7l-0.3-0.2l-11.8,3.5l3.5-11.8l-0.2-0.3c-2.4-4-3.7-8.6-3.7-13.2
				c0-14.1,11.5-25.6,25.6-25.6V13c-14.9,0-27.1,12.2-27.1,27.1c0,4.3,1,8.5,3,12.3H18.4c-2.4,0-4.4,2-4.4,4.4v59.5H6.8v0.8
				c0,6.9,5.6,12.5,12.5,12.5h91.6c6.9,0,12.5-5.6,12.5-12.5v-0.8h-7.3V58.5z M15.6,56.7c0-1.6,1.3-2.9,2.9-2.9H73l-4.1,13.7
				l13.8-4.1c4.2,2.4,8.9,3.7,13.7,3.7c7.1,0,13.5-2.7,18.3-7.2v56.2H15.6V56.7z M121.9,117.7c-0.4,5.7-5.2,10.3-11,10.3H19.3
				c-5.8,0-10.6-4.5-11-10.3L121.9,117.7z"/>
			<path fill="#231F20" d="M119.3,28.8l1.3-0.7c-0.2-0.3-0.3-0.6-0.5-0.9l-1.3,0.7C119.1,28.2,119.2,28.5,119.3,28.8z"/>
			<path fill="#231F20" d="M119.2,25.5c-0.2-0.3-0.4-0.6-0.6-0.9l-1.2,0.9c0.2,0.3,0.4,0.5,0.5,0.8L119.2,25.5z"/>
			<path fill="#231F20" d="M120.5,31.5l1.4-0.5c-0.1-0.3-0.2-0.6-0.4-1l-1.4,0.6C120.3,30.9,120.4,31.2,120.5,31.5z"/>
			<path fill="#231F20" d="M121.3,34.3l1.5-0.3c-0.1-0.3-0.2-0.7-0.3-1l-1.4,0.4C121.1,33.7,121.2,34,121.3,34.3z"/>
			<path fill="#231F20" d="M121.8,37.2l1.5-0.2c0-0.3-0.1-0.7-0.1-1l-1.5,0.2C121.7,36.5,121.8,36.8,121.8,37.2z"/>
			<path fill="#231F20" d="M117.4,23c-0.2-0.3-0.4-0.5-0.7-0.8l-1.1,1c0.2,0.2,0.4,0.5,0.6,0.7L117.4,23z"/>
			<path fill="#231F20" d="M101.9,13.5c-0.3-0.1-0.7-0.1-1-0.2l-0.2,1.5c0.3,0.1,0.6,0.1,1,0.2L101.9,13.5z"/>
			<path fill="#231F20" d="M107.7,15.5c-0.3-0.1-0.6-0.3-0.9-0.4l-0.6,1.4c0.3,0.1,0.6,0.3,0.9,0.4L107.7,15.5z"/>
			<path fill="#231F20" d="M104.9,14.3c-0.3-0.1-0.7-0.2-1-0.3l-0.4,1.4c0.3,0.1,0.6,0.2,0.9,0.3L104.9,14.3z"/>
			<path fill="#231F20" d="M98.8,13.1c-0.3,0-0.7-0.1-1-0.1l-0.1,1.5c0.3,0,0.6,0,1,0.1L98.8,13.1z"/>
			<path fill="#231F20" d="M113,18.7c-0.3-0.2-0.5-0.4-0.8-0.6l-0.9,1.2c0.3,0.2,0.5,0.4,0.8,0.6L113,18.7z"/>
			<path fill="#231F20" d="M115.3,20.7c-0.2-0.2-0.5-0.5-0.7-0.7l-1,1.1c0.2,0.2,0.5,0.4,0.7,0.7L115.3,20.7z"/>
			<path fill="#231F20" d="M110.4,16.9c-0.3-0.2-0.6-0.4-0.9-0.5l-0.7,1.3c0.3,0.2,0.6,0.3,0.8,0.5L110.4,16.9z"/>
		</g>
		<path fill="#FF7058" d="M25,13.7c9.6,0,17.4,7.8,17.4,17.4c0,3.3-0.9,6.4-2.5,9l2.5,8.5L34,46.1c-2.6,1.6-5.7,2.5-9,2.5
			c-9.6,0-17.4-7.8-17.4-17.4C7.5,21.5,15.4,13.7,25,13.7z"/>
		<circle fill="#FFD05B" cx="96.3" cy="40.1" r="21.7"/>
		<path fill="#FFFFFF" d="M95.7,43.6l4.1-4.1c1.1-1.1,2.7-1.6,4.2-1.6c0.1,0,0.2,0,0.3,0c1.9,0,3.6-0.9,4.6-2.4l-5.4,0l-1-3.2l1-3.2
			h5.4c-1.1-1.6-2.9-2.5-5-2.4c-2.7,0.2-4.9,2.4-5.1,5c0,0.1,0,0.2,0,0.3c-0.1,1.4-0.6,2.8-1.6,3.8l-4.5,4.5c-1.1,1.1-2.5,1.6-4,1.6
			c0,0,0,0,0,0c-1.9,0-3.6,0.9-4.6,2.4l5.4,0l1,3.2l-1,3.2h-5.4c1.1,1.5,2.9,2.5,4.9,2.4c2.7-0.2,4.9-2.3,5.2-4.9c0-0.3,0-0.5,0-0.8
			C94,46.1,94.6,44.7,95.7,43.6z"/>
		<path fill="#FFFFFF" d="M36.5,33v-3.7l-2.9-0.5c-0.2-0.8-0.5-1.5-0.9-2.1l1.7-2.4l-2.6-2.6l-2.4,1.7c-0.7-0.4-1.4-0.7-2.1-0.9
			l-0.5-2.9h-3.7l-0.5,2.9c-0.8,0.2-1.5,0.5-2.1,0.9l-2.4-1.7l-2.6,2.6l1.7,2.4c-0.4,0.7-0.7,1.4-0.9,2.1l-2.9,0.5V33l2.9,0.5
			c0.2,0.8,0.5,1.5,0.9,2.1L15.6,38l2.6,2.6l2.4-1.7c0.7,0.4,1.4,0.7,2.1,0.9l0.5,2.9h3.7l0.5-2.9c0.8-0.2,1.5-0.5,2.1-0.9l2.4,1.7
			l2.6-2.6l-1.7-2.4c0.4-0.7,0.7-1.4,0.9-2.1L36.5,33z M25,36.1c-2.7,0-5-2.2-5-5c0-2.7,2.2-5,5-5c2.7,0,5,2.2,5,5
			C30,33.9,27.7,36.1,25,36.1z"/>
		<rect x="25.3" y="63.5" fill="#FFFFFF" width="32" height="32"/>
		<path fill="#231F20" d="M58.1,96.3H24.6V62.7h33.5V96.3z M26.1,94.8h30.5V64.2H26.1V94.8z"/>
		<path fill="#84DBFF" d="M52.8,81.3v-3.7L50,77.2c-0.2-0.8-0.5-1.5-0.9-2.1l1.7-2.4l-2.6-2.6l-2.4,1.7c-0.7-0.4-1.4-0.7-2.1-0.9
			L43.1,68h-3.7L39,70.8c-0.8,0.2-1.5,0.5-2.1,0.9l-2.4-1.7l-2.6,2.6l1.7,2.4c-0.4,0.7-0.7,1.4-0.9,2.1l-2.9,0.5v3.7l2.9,0.5
			c0.2,0.8,0.5,1.5,0.9,2.1l-1.7,2.4l2.6,2.6l2.4-1.7c0.7,0.4,1.4,0.7,2.1,0.9l0.5,2.9h3.7l0.5-2.9c0.8-0.2,1.5-0.5,2.1-0.9l2.4,1.7
			l2.6-2.6L49.1,84c0.4-0.7,0.7-1.4,0.9-2.1L52.8,81.3z M41.3,84.5c-2.7,0-5-2.2-5-5c0-2.7,2.2-5,5-5c2.7,0,5,2.2,5,5
			C46.3,82.2,44.1,84.5,41.3,84.5z"/>
		<g>
			<path fill="#231F20" d="M122,2.8c0.2,0,0.4-0.1,0.5-0.2l1.3-1.3c0.3-0.3,0.3-0.8,0-1.1c-0.3-0.3-0.8-0.3-1.1,0l-1.3,1.3
				c-0.3,0.3-0.3,0.8,0,1.1C121.7,2.7,121.8,2.8,122,2.8z"/>
			<path fill="#231F20" d="M118.8,4.2l-1.3,1.3c-0.3,0.3-0.3,0.8,0,1.1c0.1,0.1,0.3,0.2,0.5,0.2c0.2,0,0.4-0.1,0.5-0.2l1.3-1.3
				c0.3-0.3,0.3-0.8,0-1.1C119.5,4,119.1,4,118.8,4.2z"/>
			<path fill="#231F20" d="M122.6,4.2c-0.3-0.3-0.8-0.3-1.1,0c-0.3,0.3-0.3,0.8,0,1.1l1.3,1.3c0.1,0.1,0.3,0.2,0.5,0.2
				c0.2,0,0.4-0.1,0.5-0.2c0.3-0.3,0.3-0.8,0-1.1L122.6,4.2z"/>
			<path fill="#231F20" d="M118.5,0.2c-0.3-0.3-0.8-0.3-1.1,0c-0.3,0.3-0.3,0.8,0,1.1l1.3,1.3c0.1,0.1,0.3,0.2,0.5,0.2
				s0.4-0.1,0.5-0.2c0.3-0.3,0.3-0.8,0-1.1L118.5,0.2z"/>
		</g>
		<g>
			<path fill="#231F20" d="M58.7,22.7c0.2,0,0.4-0.1,0.5-0.2l1.3-1.3c0.3-0.3,0.3-0.8,0-1.1c-0.3-0.3-0.8-0.3-1.1,0l-1.3,1.3
				c-0.3,0.3-0.3,0.8,0,1.1C58.3,22.7,58.5,22.7,58.7,22.7z"/>
			<path fill="#231F20" d="M55.4,24.2l-1.3,1.3c-0.3,0.3-0.3,0.8,0,1.1c0.1,0.1,0.3,0.2,0.5,0.2c0.2,0,0.4-0.1,0.5-0.2l1.3-1.3
				c0.3-0.3,0.3-0.8,0-1.1C56.2,23.9,55.7,23.9,55.4,24.2z"/>
			<path fill="#231F20" d="M59.2,24.2c-0.3-0.3-0.8-0.3-1.1,0c-0.3,0.3-0.3,0.8,0,1.1l1.3,1.3c0.1,0.1,0.3,0.2,0.5,0.2
				c0.2,0,0.4-0.1,0.5-0.2c0.3-0.3,0.3-0.8,0-1.1L59.2,24.2z"/>
			<path fill="#231F20" d="M55.2,20.2c-0.3-0.3-0.8-0.3-1.1,0c-0.3,0.3-0.3,0.8,0,1.1l1.3,1.3c0.1,0.1,0.3,0.2,0.5,0.2
				c0.2,0,0.4-0.1,0.5-0.2c0.3-0.3,0.3-0.8,0-1.1L55.2,20.2z"/>
		</g>
		<g>
			<path fill="#231F20" d="M5.2,80.1c0.2,0,0.4-0.1,0.5-0.2L7,78.6c0.3-0.3,0.3-0.8,0-1.1c-0.3-0.3-0.8-0.3-1.1,0l-1.3,1.3
				c-0.3,0.3-0.3,0.8,0,1.1C4.8,80,5,80.1,5.2,80.1z"/>
			<path fill="#231F20" d="M1.9,81.6l-1.3,1.3c-0.3,0.3-0.3,0.8,0,1.1c0.1,0.1,0.3,0.2,0.5,0.2c0.2,0,0.4-0.1,0.5-0.2l1.3-1.3
				c0.3-0.3,0.3-0.8,0-1.1C2.6,81.3,2.2,81.3,1.9,81.6z"/>
			<path fill="#231F20" d="M5.7,81.6c-0.3-0.3-0.8-0.3-1.1,0c-0.3,0.3-0.3,0.8,0,1.1l1.3,1.3c0.1,0.1,0.3,0.2,0.5,0.2
				c0.2,0,0.4-0.1,0.5-0.2c0.3-0.3,0.3-0.8,0-1.1L5.7,81.6z"/>
			<path fill="#231F20" d="M1.7,77.5c-0.3-0.3-0.8-0.3-1.1,0c-0.3,0.3-0.3,0.8,0,1.1l1.3,1.3C2,80,2.2,80.1,2.4,80.1
				c0.2,0,0.4-0.1,0.5-0.2c0.3-0.3,0.3-0.8,0-1.1L1.7,77.5z"/>
		</g>
		<g>
			<path fill="#231F20" d="M39.6,3.3c0-0.4-0.3-0.8-0.8-0.8h-8.1c-0.4,0-0.8,0.3-0.8,0.8c0,0.4,0.3,0.7,0.8,0.7h8.1
				C39.3,4.1,39.6,3.7,39.6,3.3z"/>
			<path fill="#231F20" d="M42,5.5h-4c-0.4,0-0.8,0.3-0.8,0.8c0,0.4,0.3,0.8,0.8,0.8h4c0.4,0,0.8-0.3,0.8-0.8
				C42.8,5.8,42.4,5.5,42,5.5z"/>
			<path fill="#231F20" d="M46.3,2.6h-3.8c-0.4,0-0.8,0.3-0.8,0.8c0,0.4,0.3,0.7,0.8,0.7h3.8c0.4,0,0.8-0.3,0.8-0.7
				C47,2.9,46.7,2.6,46.3,2.6z"/>
			<path fill="#231F20" d="M35.2,5.5h-0.8c-0.4,0-0.8,0.3-0.8,0.8C33.7,6.7,34,7,34.4,7h0.8c0.4,0,0.8-0.3,0.8-0.8
				C35.9,5.8,35.6,5.5,35.2,5.5z"/>
		</g>
		<line fill="#FFFFFF" x1="66.9" y1="80.6" x2="75" y2="80.6"/>
		<path fill="#FFFFFF" d="M75,81.4h-8.1c-0.4,0-0.8-0.3-0.8-0.8c0-0.4,0.3-0.8,0.8-0.8H75c0.4,0,0.8,0.3,0.8,0.8
			C75.8,81,75.4,81.4,75,81.4z"/>
		<line fill="#FFFFFF" x1="74.2" y1="83.6" x2="78.2" y2="83.6"/>
		<path fill="#FFFFFF" d="M78.2,84.3h-4c-0.4,0-0.8-0.3-0.8-0.8c0-0.4,0.3-0.8,0.8-0.8h4c0.4,0,0.8,0.3,0.8,0.8
			C78.9,84,78.6,84.3,78.2,84.3z"/>
		<line fill="#FFFFFF" x1="78.7" y1="80.6" x2="82.5" y2="80.6"/>
		<path fill="#FFFFFF" d="M82.5,81.4h-3.8c-0.4,0-0.8-0.3-0.8-0.8c0-0.4,0.3-0.8,0.8-0.8h3.8c0.4,0,0.8,0.3,0.8,0.8
			C83.2,81,82.9,81.4,82.5,81.4z"/>
		<line fill="#FFFFFF" x1="70.6" y1="83.6" x2="71.3" y2="83.6"/>
		<path fill="#FFFFFF" d="M71.3,84.3h-0.8c-0.4,0-0.8-0.3-0.8-0.8c0-0.4,0.3-0.8,0.8-0.8h0.8c0.4,0,0.8,0.3,0.8,0.8
			C72.1,84,71.8,84.3,71.3,84.3z"/>
		<line fill="#FFFFFF" x1="83.9" y1="99.2" x2="92" y2="99.2"/>
		<path fill="#FFFFFF" d="M92,99.9h-8.1c-0.4,0-0.8-0.3-0.8-0.8c0-0.4,0.3-0.8,0.8-0.8H92c0.4,0,0.8,0.3,0.8,0.8
			C92.7,99.6,92.4,99.9,92,99.9z"/>
		<line fill="#FFFFFF" x1="91.2" y1="102.1" x2="95.2" y2="102.1"/>
		<path fill="#FFFFFF" d="M95.2,102.9h-4c-0.4,0-0.8-0.3-0.8-0.8c0-0.4,0.3-0.8,0.8-0.8h4c0.4,0,0.8,0.3,0.8,0.8
			C95.9,102.5,95.6,102.9,95.2,102.9z"/>
		<line fill="#FFFFFF" x1="95.7" y1="99.2" x2="99.4" y2="99.2"/>
		<path fill="#FFFFFF" d="M99.4,99.9h-3.8c-0.4,0-0.8-0.3-0.8-0.8c0-0.4,0.3-0.8,0.8-0.8h3.8c0.4,0,0.8,0.3,0.8,0.8
			C100.2,99.6,99.8,99.9,99.4,99.9z"/>
		<line fill="#FFFFFF" x1="87.5" y1="102.1" x2="88.3" y2="102.1"/>
		<path fill="#FFFFFF" d="M88.3,102.9h-0.8c-0.4,0-0.8-0.3-0.8-0.8c0-0.4,0.3-0.8,0.8-0.8h0.8c0.4,0,0.8,0.3,0.8,0.8
			C89.1,102.5,88.7,102.9,88.3,102.9z"/>
		<circle fill="#84DBFF" cx="73.1" cy="8.6" r="2.1"/>
		<circle fill="#E6E9EE" cx="127" cy="70.1" r="2.1"/>
		<circle fill="#FFD05B" cx="3.3" cy="8.6" r="2.1"/>
	</g>
</g>
</svg>
