<?xml version="1.0" encoding="utf-8"?>
<!-- Generator: Adobe Illustrator 18.0.0, SVG Export Plug-In . SVG Version: 6.00 Build 0)  -->
<!DOCTYPE svg PUBLIC "-//W3C//DTD SVG 1.1//EN" "http://www.w3.org/Graphics/SVG/1.1/DTD/svg11.dtd">
<svg version="1.1" id="Layer_1" xmlns="http://www.w3.org/2000/svg" xmlns:xlink="http://www.w3.org/1999/xlink" x="0px" y="0px"
	 viewBox="0 0 129.5 129.5" enable-background="new 0 0 129.5 129.5" xml:space="preserve">
<g>
	<g>
		<g>
			<path fill="#FFFFFF" stroke="#231F20" stroke-width="1.5" stroke-linejoin="round" stroke-miterlimit="10" d="M93.7,118.4"/>
		</g>
		<g>
			
				<rect x="14" y="17.4" transform="matrix(-0.7071 -0.7071 0.7071 -0.7071 18.1644 43.8608)" fill="#231F20" width="8.2" height="1.5"/>
			
				<rect x="0.6" y="40.7" transform="matrix(0.9659 0.2588 -0.2588 0.9659 10.8872 0.1885)" fill="#231F20" width="8.2" height="1.5"/>
			
				<rect x="100.9" y="67.6" transform="matrix(-0.9659 -0.2589 0.2589 -0.9659 188.7928 161.4983)" fill="#231F20" width="8.2" height="1.5"/>
			
				<rect x="0.6" y="67.6" transform="matrix(0.9659 -0.2589 0.2589 0.9659 -17.5244 3.5526)" fill="#231F20" width="8.2" height="1.5"/>
			
				<rect x="100.9" y="40.7" transform="matrix(-0.9659 0.2588 -0.2588 -0.9659 217.2061 54.292)" fill="#231F20" width="8.2" height="1.5"/>
			
				<rect x="17.4" y="87.5" transform="matrix(-0.7071 -0.7071 0.7071 -0.7071 -33.7552 169.2062)" fill="#231F20" width="1.5" height="8.2"/>
			
				<rect x="87.5" y="17.4" transform="matrix(0.7072 -0.707 0.707 0.7072 13.9746 70.079)" fill="#231F20" width="8.2" height="1.5"/>
			
				<rect x="40.7" y="100.9" transform="matrix(-0.9659 -0.259 0.259 -0.9659 54.2649 217.2132)" fill="#231F20" width="1.5" height="8.2"/>
			
				<rect x="67.6" y="0.6" transform="matrix(-0.9659 -0.2591 0.2591 -0.9659 133.0753 26.9975)" fill="#231F20" width="1.5" height="8.2"/>
			
				<rect x="64.2" y="104.3" transform="matrix(-0.2589 -0.9659 0.9659 -0.2589 -15.446 198.213)" fill="#231F20" width="8.2" height="1.5"/>
			
				<rect x="37.3" y="4" transform="matrix(-0.2588 -0.9659 0.9659 -0.2588 47.5971 45.9838)" fill="#231F20" width="8.2" height="1.5"/>
			
				<rect x="11.1" y="25.3" transform="matrix(0.8191 0.5736 -0.5736 0.8191 17.3852 -3.1198)" fill="#231F20" width="5.1" height="1.5"/>
			
				<rect x="93.6" y="83" transform="matrix(-0.8191 -0.5736 0.5736 -0.8191 126.8029 207.5003)" fill="#231F20" width="5.1" height="1.5"/>
			
				<rect x="6.7" y="32.9" transform="matrix(0.9063 0.4226 -0.4226 0.9063 15.0668 -0.7619)" fill="#231F20" width="5.1" height="1.5"/>
			
				<rect x="98" y="75.4" transform="matrix(-0.9063 -0.4226 0.4226 -0.9063 159.4068 187.6568)" fill="#231F20" width="5.1" height="1.5"/>
			
				<rect x="4" y="47.9" transform="matrix(8.727693e-002 -0.9962 0.9962 8.727693e-002 -45.9866 50.7951)" fill="#231F20" width="1.5" height="5.1"/>
			
				<rect x="104.3" y="56.7" transform="matrix(8.727693e-002 -0.9962 0.9962 8.727693e-002 36.8208 158.7258)" fill="#231F20" width="1.5" height="5.1"/>
			
				<rect x="4" y="56.7" transform="matrix(8.721078e-002 0.9962 -0.9962 8.721078e-002 63.3576 49.3915)" fill="#231F20" width="1.5" height="5.1"/>
			
				<rect x="102.5" y="49.7" transform="matrix(0.9962 -8.723082e-002 8.723082e-002 0.9962 -4.0042 9.3544)" fill="#231F20" width="5.1" height="1.5"/>
			
				<rect x="6.7" y="75.4" transform="matrix(0.9063 -0.4226 0.4226 0.9063 -31.3204 11.0465)" fill="#231F20" width="5.1" height="1.5"/>
			
				<rect x="98" y="32.9" transform="matrix(-0.9063 0.4226 -0.4226 -0.9063 205.7981 21.5924)" fill="#231F20" width="5.1" height="1.5"/>
			
				<rect x="11.1" y="83" transform="matrix(0.8191 -0.5736 0.5736 0.8191 -45.5789 22.9746)" fill="#231F20" width="5.1" height="1.5"/>
			
				<rect x="93.6" y="25.3" transform="matrix(-0.8191 0.5736 -0.5736 -0.8191 189.766 -7.8312)" fill="#231F20" width="5.1" height="1.5"/>
			
				<rect x="25.3" y="93.6" transform="matrix(-0.8191 -0.5737 0.5737 -0.8191 -7.8388 189.7687)" fill="#231F20" width="1.5" height="5.1"/>
			
				<rect x="83" y="11.1" transform="matrix(-0.8191 -0.5736 0.5736 -0.8191 144.5353 72.8596)" fill="#231F20" width="1.5" height="5.1"/>
			
				<rect x="31.1" y="99.8" transform="matrix(0.4226 -0.9063 0.9063 0.4226 -71.6903 88.4884)" fill="#231F20" width="5.1" height="1.5"/>
			
				<rect x="73.6" y="8.5" transform="matrix(0.4226 -0.9063 0.9063 0.4226 35.5852 74.3641)" fill="#231F20" width="5.1" height="1.5"/>
			
				<rect x="49.7" y="102.5" transform="matrix(-0.9962 -8.727106e-002 8.727106e-002 -0.9962 91.6225 214.0721)" fill="#231F20" width="1.5" height="5.1"/>
			
				<rect x="56.7" y="4" transform="matrix(8.713597e-002 -0.9962 0.9962 8.713597e-002 49.391 63.3577)" fill="#231F20" width="5.1" height="1.5"/>
			
				<rect x="56.7" y="104.3" transform="matrix(-8.713593e-002 -0.9962 0.9962 -8.713593e-002 -40.2033 173.2261)" fill="#231F20" width="5.1" height="1.5"/>
			
				<rect x="47.9" y="4" transform="matrix(-8.713499e-002 -0.9962 0.9962 -8.713499e-002 50.1793 55.4398)" fill="#231F20" width="5.1" height="1.5"/>
			
				<rect x="73.6" y="99.8" transform="matrix(-0.4226 -0.9063 0.9063 -0.4226 17.2457 212.0031)" fill="#231F20" width="5.1" height="1.5"/>
			
				<rect x="31.1" y="8.5" transform="matrix(-0.4226 -0.9063 0.9063 -0.4226 39.4151 43.6191)" fill="#231F20" width="5.1" height="1.5"/>
			
				<rect x="81.2" y="95.4" transform="matrix(-0.5736 -0.8191 0.8191 -0.5736 53.0613 219.8617)" fill="#231F20" width="5.1" height="1.5"/>
			
				<rect x="23.5" y="12.9" transform="matrix(-0.5736 -0.8191 0.8191 -0.5736 29.7437 42.7668)" fill="#231F20" width="5.1" height="1.5"/>
		</g>
		<g>
			<g>
				<path fill="#231F20" d="M121.3,34.2h-8.1c-0.4,0-0.8-0.3-0.8-0.8c0-0.4,0.3-0.8,0.8-0.8h8.1c0.4,0,0.8,0.3,0.8,0.8
					C122.1,33.9,121.7,34.2,121.3,34.2z"/>
			</g>
			<g>
				<path fill="#231F20" d="M124.5,37.2h-4c-0.4,0-0.8-0.3-0.8-0.8c0-0.4,0.3-0.8,0.8-0.8h4c0.4,0,0.8,0.3,0.8,0.8
					C125.2,36.8,124.9,37.2,124.5,37.2z"/>
			</g>
			<g>
				<path fill="#231F20" d="M128.7,34.2H125c-0.4,0-0.8-0.3-0.8-0.8c0-0.4,0.3-0.8,0.8-0.8h3.8c0.4,0,0.8,0.3,0.8,0.8
					C129.5,33.9,129.2,34.2,128.7,34.2z"/>
			</g>
			<g>
				<path fill="#231F20" d="M117.6,37.2h-0.8c-0.4,0-0.8-0.3-0.8-0.8c0-0.4,0.3-0.8,0.8-0.8h0.8c0.4,0,0.8,0.3,0.8,0.8
					C118.4,36.8,118.1,37.2,117.6,37.2z"/>
			</g>
		</g>
		<g>
			<g>
				<path fill="#231F20" d="M8.8,1.5H0.7C0.3,1.5,0,1.2,0,0.8S0.3,0,0.7,0h8.1c0.4,0,0.8,0.3,0.8,0.8S9.3,1.5,8.8,1.5z"/>
			</g>
			<g>
				<path fill="#231F20" d="M12,4.4h-4c-0.4,0-0.8-0.3-0.8-0.8c0-0.4,0.3-0.8,0.8-0.8h4c0.4,0,0.8,0.3,0.8,0.8
					C12.8,4.1,12.4,4.4,12,4.4z"/>
			</g>
			<g>
				<path fill="#231F20" d="M16.3,1.5h-3.8c-0.4,0-0.8-0.3-0.8-0.8S12.1,0,12.5,0h3.8C16.7,0,17,0.3,17,0.8S16.7,1.5,16.3,1.5z"/>
			</g>
			<g>
				<path fill="#231F20" d="M5.2,4.4H4.4C4,4.4,3.7,4.1,3.7,3.7c0-0.4,0.3-0.8,0.8-0.8h0.8c0.4,0,0.8,0.3,0.8,0.8
					C5.9,4.1,5.6,4.4,5.2,4.4z"/>
			</g>
		</g>
		<g>
			<g>
				<path fill="#231F20" d="M32.9,117.7h-8.1c-0.4,0-0.8-0.3-0.8-0.8c0-0.4,0.3-0.8,0.8-0.8h8.1c0.4,0,0.8,0.3,0.8,0.8
					C33.6,117.3,33.3,117.7,32.9,117.7z"/>
			</g>
			<g>
				<path fill="#231F20" d="M36,120.6h-4c-0.4,0-0.7-0.3-0.7-0.8c0-0.4,0.3-0.8,0.7-0.8h4c0.4,0,0.8,0.3,0.8,0.8
					C36.8,120.3,36.4,120.6,36,120.6z"/>
			</g>
			<g>
				<path fill="#231F20" d="M40.3,117.7h-3.8c-0.4,0-0.8-0.3-0.8-0.8c0-0.4,0.3-0.8,0.8-0.8h3.8c0.4,0,0.8,0.3,0.8,0.8
					C41,117.3,40.7,117.7,40.3,117.7z"/>
			</g>
			<g>
				<path fill="#231F20" d="M29.2,120.6h-0.8c-0.4,0-0.8-0.3-0.8-0.8c0-0.4,0.3-0.8,0.8-0.8h0.8c0.4,0,0.8,0.3,0.8,0.8
					C29.9,120.3,29.6,120.6,29.2,120.6z"/>
			</g>
		</g>
		<g>
			<g>
				<path fill="#231F20" d="M121,8c-0.2,0-0.4-0.1-0.5-0.2c-0.3-0.3-0.3-0.8,0-1.1l1.3-1.3c0.3-0.3,0.8-0.3,1.1,0
					c0.3,0.3,0.3,0.8,0,1.1l-1.3,1.3C121.4,8,121.2,8,121,8z"/>
			</g>
			<g>
				<path fill="#231F20" d="M117,12.1c-0.2,0-0.4-0.1-0.5-0.2c-0.3-0.3-0.3-0.8,0-1.1l1.3-1.3c0.3-0.3,0.8-0.3,1.1,0
					c0.3,0.3,0.3,0.8,0,1.1l-1.3,1.3C117.4,12,117.2,12.1,117,12.1z"/>
			</g>
			<g>
				<path fill="#231F20" d="M122.3,12.1c-0.2,0-0.4-0.1-0.5-0.2l-1.3-1.3c-0.3-0.3-0.3-0.8,0-1.1c0.3-0.3,0.8-0.3,1.1,0l1.3,1.3
					c0.3,0.3,0.3,0.8,0,1.1C122.7,12,122.5,12.1,122.3,12.1z"/>
			</g>
			<g>
				<path fill="#231F20" d="M118.3,8c-0.2,0-0.4-0.1-0.5-0.2l-1.3-1.3c-0.3-0.3-0.3-0.8,0-1.1c0.3-0.3,0.8-0.3,1.1,0l1.3,1.3
					c0.3,0.3,0.3,0.8,0,1.1C118.7,8,118.5,8,118.3,8z"/>
			</g>
		</g>
		<g>
			<g>
				<path fill="#231F20" d="M8.6,104.4c-0.2,0-0.4-0.1-0.5-0.2c-0.3-0.3-0.3-0.8,0-1.1l1.3-1.3c0.3-0.3,0.8-0.3,1.1,0
					c0.3,0.3,0.3,0.8,0,1.1l-1.3,1.3C9,104.3,8.8,104.4,8.6,104.4z"/>
			</g>
			<g>
				<path fill="#231F20" d="M4.6,108.4c-0.2,0-0.4-0.1-0.5-0.2c-0.3-0.3-0.3-0.8,0-1.1l1.3-1.3c0.3-0.3,0.8-0.3,1.1,0
					c0.3,0.3,0.3,0.8,0,1.1l-1.3,1.3C5,108.4,4.8,108.4,4.6,108.4z"/>
			</g>
			<g>
				<path fill="#231F20" d="M9.9,108.4c-0.2,0-0.4-0.1-0.5-0.2l-1.3-1.3c-0.3-0.3-0.3-0.8,0-1.1c0.3-0.3,0.8-0.3,1.1,0l1.3,1.3
					c0.3,0.3,0.3,0.8,0,1.1C10.3,108.4,10.1,108.4,9.9,108.4z"/>
			</g>
			<g>
				<path fill="#231F20" d="M5.9,104.4c-0.2,0-0.4-0.1-0.5-0.2l-1.3-1.3c-0.3-0.3-0.3-0.8,0-1.1c0.3-0.3,0.8-0.3,1.1,0l1.3,1.3
					c0.3,0.3,0.3,0.8,0,1.1C6.3,104.3,6.1,104.4,5.9,104.4z"/>
			</g>
		</g>
		<g>
			<g>
				<path fill="#231F20" d="M91.2,121.4c-0.2,0-0.4-0.1-0.5-0.2c-0.3-0.3-0.3-0.8,0-1.1l1.3-1.3c0.3-0.3,0.8-0.3,1.1,0
					c0.3,0.3,0.3,0.8,0,1.1l-1.3,1.3C91.6,121.3,91.4,121.4,91.2,121.4z"/>
			</g>
			<g>
				<path fill="#231F20" d="M87.2,125.4c-0.2,0-0.4-0.1-0.5-0.2c-0.3-0.3-0.3-0.8,0-1.1l1.3-1.3c0.3-0.3,0.8-0.3,1.1,0
					s0.3,0.8,0,1.1l-1.3,1.3C87.6,125.3,87.4,125.4,87.2,125.4z"/>
			</g>
			<g>
				<path fill="#231F20" d="M92.5,125.4c-0.2,0-0.4-0.1-0.5-0.2l-1.3-1.3c-0.3-0.3-0.3-0.8,0-1.1c0.3-0.3,0.8-0.3,1.1,0l1.3,1.3
					c0.3,0.3,0.3,0.8,0,1.1C92.9,125.3,92.7,125.4,92.5,125.4z"/>
			</g>
			<g>
				<path fill="#231F20" d="M88.5,121.4c-0.2,0-0.4-0.1-0.5-0.2l-1.3-1.3c-0.3-0.3-0.3-0.8,0-1.1c0.3-0.3,0.8-0.3,1.1,0l1.3,1.3
					c0.3,0.3,0.3,0.8,0,1.1C88.9,121.3,88.7,121.4,88.5,121.4z"/>
			</g>
		</g>
		
			<rect x="88.5" y="81.9" transform="matrix(0.7071 -0.7071 0.7071 0.7071 -38.2702 92.3952)" fill="#FFFFFF" width="7.8" height="21"/>
		<path fill="#FFFFFF" d="M85.9,23.9c-17.1-17.1-44.8-17.1-62,0c-17.1,17.1-17.1,44.8,0,62c17.1,17.1,44.8,17.1,62,0
			C103,68.7,103,41,85.9,23.9z M79.5,79.5c-13.6,13.6-35.7,13.6-49.3,0c-13.6-13.6-13.6-35.7,0-49.3c13.6-13.6,35.7-13.6,49.3,0
			C93.1,43.9,93.1,65.9,79.5,79.5z"/>
		<path fill="#E6E9EE" d="M54.9,96.7c-11.2,0-21.7-4.3-29.6-12.2C9,68.1,9,41.6,25.3,25.3c7.9-7.9,18.4-12.2,29.6-12.2
			c11.2,0,21.7,4.3,29.6,12.2c7.9,7.9,12.2,18.4,12.2,29.6c0,11.2-4.3,21.7-12.2,29.6C76.5,92.3,66,96.7,54.9,96.7z M54.9,18
			c-9.8,0-19.1,3.8-26,10.8c-14.4,14.4-14.4,37.7,0,52.1c7,7,16.2,10.8,26,10.8c9.8,0,19.1-3.8,26-10.8c14.4-14.4,14.4-37.7,0-52.1
			C74,21.9,64.7,18,54.9,18z"/>
		<g>
			<circle fill="#84DBFF" cx="54.9" cy="54.9" r="28.3"/>
		</g>
		<path fill="#231F20" d="M77,32.8c-12.2-12.2-32-12.2-44.2,0c-12.2,12.2-12.2,32,0,44.2C45,89.2,64.8,89.2,77,77
			C89.2,64.8,89.2,45,77,32.8z M84.6,55.6c-1.3,0.1-2.6,0.3-3.8,0.5c-1.6-5.6-4.9-11.3-9.7-16.3l5.4-5.4
			C82.1,40.3,84.8,48,84.6,55.6z M78.6,72.2c-0.1-3.3-1.6-7.7-4.5-12.4c1.8-0.8,3.7-1.5,5.6-2C81,63.1,80.7,68.2,78.6,72.2z
			 M31.1,37.6c0.1,3.3,1.7,7.7,4.5,12.4c-1.8,0.8-3.7,1.5-5.6,2C28.8,46.7,29.1,41.6,31.1,37.6z M44.6,43.5L34.4,33.4
			c2.8-1.8,8.4-0.3,14.9,3.7C48,39.4,46.5,41.6,44.6,43.5z M50.6,37.8c3.7,2.4,7.5,5.4,11.2,9.1l-6.9,6.9l-9.2-9.2
			C47.6,42.5,49.2,40.3,50.6,37.8z M43.5,44.6c-2,1.9-4.2,3.4-6.5,4.7c-3.9-6.4-5.5-12.1-3.7-14.9L43.5,44.6z M44.6,45.7l9.2,9.2
			l-6.9,6.9c-3.6-3.7-6.7-7.6-9.1-11.2C40.3,49.3,42.5,47.6,44.6,45.7z M54.9,55.9l9.3,9.3c-1.9,2-3.6,4.3-4.9,6.8
			c-3.7-2.4-7.6-5.5-11.3-9.1L54.9,55.9z M65.2,66.3l10.1,10.1c-2.8,1.8-8.4,0.3-14.8-3.6C61.8,70.4,63.3,68.2,65.2,66.3z
			 M66.3,65.2c2-1.9,4.2-3.4,6.5-4.7c3.9,6.4,5.4,12,3.6,14.8L66.3,65.2z M65.2,64.2l-9.3-9.3l6.9-6.9c3.7,3.7,6.7,7.6,9.1,11.3
			C69.5,60.6,67.3,62.2,65.2,64.2z M62.9,45.8c-3.9-3.8-7.8-7-11.6-9.4c0.9-1.9,1.6-3.9,2.1-6c5.3,1.6,10.8,4.7,15.5,9.3L62.9,45.8z
			 M50,35.7c-4.7-2.9-9.1-4.5-12.4-4.5c4-2.1,9.1-2.4,14.4-1.1C51.5,32,50.8,33.9,50,35.7z M36.4,51.3C38.9,55,42,59,45.8,62.9
			l-6.1,6.1c-4.6-4.8-7.7-10.2-9.3-15.5C32.5,52.9,34.5,52.2,36.4,51.3z M46.9,63.9c3.9,3.8,7.9,7,11.6,9.4c-0.9,1.9-1.6,3.9-2.1,6
			c-5.3-1.6-10.8-4.7-15.6-9.3L46.9,63.9z M59.8,74.1c4.7,2.8,9,4.4,12.4,4.5c-4,2.1-9.1,2.4-14.3,1.1C58.3,77.8,59,75.9,59.8,74.1z
			 M73.3,58.5c-2.4-3.8-5.6-7.8-9.4-11.6l6.1-6.1c4.6,4.8,7.8,10.3,9.3,15.6C77.3,56.9,75.3,57.6,73.3,58.5z M75.4,33.3L70,38.7
			c-5-4.8-10.7-8.1-16.3-9.7c0.2-1.3,0.4-2.5,0.5-3.8C61.8,25,69.5,27.7,75.4,33.3z M52.8,25.2L52.8,25.2c-0.1,1.2-0.3,2.3-0.5,3.4
			c-3.7-0.9-7.3-1-10.5-0.4C45.2,26.5,49,25.5,52.8,25.2z M28.6,52.3c-1.1,0.2-2.2,0.4-3.4,0.4l0,0.1c0.3-3.8,1.3-7.5,3-11
			C27.6,45,27.7,48.6,28.6,52.3z M25.1,54.2c1.3-0.1,2.6-0.2,3.8-0.5c1.6,5.6,4.9,11.3,9.7,16.3l-5.4,5.4
			C27.7,69.5,25,61.8,25.1,54.2z M34.4,76.4l5.4-5.4c5,4.8,10.7,8.1,16.3,9.7c-0.2,1.3-0.4,2.5-0.5,3.8C48,84.8,40.3,82.1,34.4,76.4
			z M57.1,84.5c0.1-1.1,0.2-2.3,0.5-3.4c3.7,0.9,7.2,1,10.5,0.4C64.6,83.3,60.9,84.3,57.1,84.5z M81.2,57.5c1.1-0.2,2.2-0.4,3.4-0.5
			c-0.3,3.8-1.3,7.5-3,10.9C82.2,64.8,82.1,61.2,81.2,57.5z"/>
		<path fill="#FFFFFF" d="M90.9,102.9l24.7,24.7c1.4,1.4,3.8,1.4,5.2,0l6.8-6.8c1.4-1.4,1.4-3.8,0-5.2l-24.7-24.7
			c-1.4-1.4-3.8-1.4-5.2,0l-6.8,6.8C89.5,99.2,89.5,101.5,90.9,102.9z"/>
		
			<rect x="94.5" y="100.8" transform="matrix(0.7071 0.7071 -0.7071 0.7071 109.3043 -45.276)" fill="#FFFFFF" width="29.6" height="17"/>
		<g>
			<path fill="#231F20" d="M80,29.7c-13.9-13.9-36.4-13.9-50.3,0c-13.9,13.9-13.9,36.4,0,50.3C43.6,93.9,66.2,93.9,80,80
				C93.9,66.2,93.9,43.6,80,29.7z M79,79c-13.3,13.3-34.9,13.3-48.2,0c-13.3-13.3-13.3-34.9,0-48.2c13.3-13.3,34.9-13.3,48.2,0
				C92.3,44.1,92.3,65.7,79,79z"/>
			<path fill="#231F20" d="M128.2,115.1l-24.7-24.7c-1.7-1.7-4.5-1.7-6.3,0l-0.1,0.1l-7.6-7.6c14.2-17.5,13.1-43.3-3.1-59.6
				C78,15,66.8,10.3,54.9,10.3C43,10.3,31.8,15,23.4,23.4C6,40.7,6,69,23.4,86.4c16.3,16.3,42.1,17.3,59.6,3.1l7.6,7.6l-0.1,0.1
				c-1.7,1.7-1.7,4.5,0,6.3l24.7,24.7c1.7,1.7,4.5,1.7,6.3,0l6.8-6.8C129.9,119.7,129.9,116.9,128.2,115.1z M103.8,114.8l-9.9-9.9
				l10.9-10.9l19.9,19.9l-10.9,10.9L103.8,114.8z M24.4,85.3c-16.8-16.8-16.8-44.1,0-60.9c8.1-8.1,18.9-12.6,30.4-12.6
				c11.5,0,22.3,4.5,30.4,12.6c16.8,16.8,16.8,44.1,0,60.9C68.5,102.1,41.2,102.1,24.4,85.3z M84.1,88.5c0.8-0.7,1.6-1.4,2.3-2.1
				c0.8-0.8,1.5-1.5,2.1-2.3l7.5,7.5L91.6,96L84.1,88.5z M91.5,102.4c-1.1-1.1-1.1-3,0-4.1l6.8-6.8c1.1-1.1,3-1.1,4.1,0l1.4,1.4
				l-10.9,10.9L91.5,102.4z M127.1,120.3l-6.8,6.8c-1.1,1.1-3,1.1-4.1,0l-1.4-1.4l10.9-10.9l1.4,1.4
				C128.3,117.3,128.3,119.2,127.1,120.3z"/>
		</g>
		
			<rect x="102.8" y="96.5" transform="matrix(-0.7071 0.7071 -0.7071 -0.7071 263.8845 109.3029)" fill="#FFD05B" width="13" height="25.6"/>
	</g>
</g>
</svg>
