<?xml version="1.0" encoding="UTF-8" standalone="no"?>
<svg
   xmlns:dc="http://purl.org/dc/elements/1.1/"
   xmlns:cc="http://creativecommons.org/ns#"
   xmlns:rdf="http://www.w3.org/1999/02/22-rdf-syntax-ns#"
   xmlns:svg="http://www.w3.org/2000/svg"
   xmlns="http://www.w3.org/2000/svg"
   xmlns:sodipodi="http://sodipodi.sourceforge.net/DTD/sodipodi-0.dtd"
   xmlns:inkscape="http://www.inkscape.org/namespaces/inkscape"
   width="150"
   height="150"
   viewBox="0 0 39.687499 39.687501"
   version="1.1"
   id="svg8"
   inkscape:version="1.0.1 (3bc2e813f5, 2020-09-07)"
   sodipodi:docname="UI.svg">
  <defs
     id="defs2" />
  <sodipodi:namedview
     id="base"
     pagecolor="#ffffff"
     bordercolor="#666666"
     borderopacity="1.0"
     inkscape:pageopacity="0.0"
     inkscape:pageshadow="2"
     inkscape:zoom="0.49497475"
     inkscape:cx="-60.953369"
     inkscape:cy="387.4341"
     inkscape:document-units="mm"
     inkscape:current-layer="layer1"
     inkscape:document-rotation="0"
     showgrid="false"
     inkscape:pagecheckerboard="true"
     units="px"
     inkscape:window-width="1920"
     inkscape:window-height="1001"
     inkscape:window-x="-9"
     inkscape:window-y="-9"
     inkscape:window-maximized="1" />
  <metadata
     id="metadata5">
    <rdf:RDF>
      <cc:Work
         rdf:about="">
        <dc:format>image/svg+xml</dc:format>
        <dc:type
           rdf:resource="http://purl.org/dc/dcmitype/StillImage" />
        <dc:title></dc:title>
      </cc:Work>
    </rdf:RDF>
  </metadata>
  <g
     inkscape:label="Layer 1"
     inkscape:groupmode="layer"
     id="layer1">
    <g
       id="g12325"
       transform="matrix(1.1381731,0,0,1.1381731,-81.541869,-113.57245)">
      <path
         fill="#231f20"
         d="m 100.90854,102.67345 c -0.0529,0 -0.10583,-0.0264 -0.13229,-0.0529 -0.0794,-0.0794 -0.0794,-0.21167 0,-0.29104 l 0.34396,-0.34396 c 0.0794,-0.0794 0.21167,-0.0794 0.29104,0 0.0794,0.0794 0.0794,0.21166 0,0.29104 l -0.34396,0.34396 c -0.0529,0.0529 -0.10583,0.0529 -0.15875,0.0529 z"
         id="path10292"
         style="stroke-width:0.264583" />
      <path
         fill="#231f20"
         d="m 99.850212,103.73179 c -0.05292,0 -0.105834,-0.0265 -0.132292,-0.0529 -0.07938,-0.0794 -0.07938,-0.21167 0,-0.29104 l 0.34396,-0.34396 c 0.0794,-0.0794 0.21166,-0.0794 0.29104,0 0.0794,0.0794 0.0794,0.21167 0,0.29104 l -0.34396,0.34396 c -0.05291,0.0529 -0.105832,0.0529 -0.158748,0.0529 z"
         id="path10294"
         style="stroke-width:0.264583" />
      <path
         fill="#231f20"
         d="m 101.2525,103.73179 c -0.0529,0 -0.10583,-0.0265 -0.13229,-0.0529 l -0.34396,-0.34396 c -0.0794,-0.0794 -0.0794,-0.21166 0,-0.29104 0.0794,-0.0794 0.21167,-0.0794 0.29104,0 l 0.34396,0.34396 c 0.0794,0.0794 0.0794,0.21167 0,0.29104 -0.0529,0.0529 -0.10583,0.0529 -0.15875,0.0529 z"
         id="path10296"
         style="stroke-width:0.264583" />
      <path
         fill="#231f20"
         d="m 100.19417,102.67345 c -0.0529,0 -0.10583,-0.0264 -0.13229,-0.0529 l -0.34396,-0.34396 c -0.07938,-0.0794 -0.07938,-0.21167 0,-0.29104 0.07937,-0.0794 0.211667,-0.0794 0.29104,0 l 0.34396,0.34396 c 0.0794,0.0794 0.0794,0.21166 0,0.29104 -0.0529,0.0529 -0.10583,0.0529 -0.15875,0.0529 z"
         id="path10298"
         style="stroke-width:0.264583" />
      <path
         fill="#231f20"
         d="m 84.874795,131.857 c -0.05292,0 -0.105833,-0.0265 -0.132291,-0.0529 -0.07937,-0.0794 -0.07937,-0.21167 0,-0.29104 l 0.343958,-0.34396 c 0.07937,-0.0794 0.211666,-0.0794 0.291041,0 0.07937,0.0794 0.07937,0.21167 0,0.29104 l -0.343958,0.34396 c -0.05292,0.0529 -0.105833,0.0529 -0.15875,0.0529 z"
         id="path10300"
         style="stroke-width:0.264583" />
      <path
         fill="#231f20"
         d="m 83.816462,132.94179 c -0.05292,0 -0.105833,-0.0265 -0.132292,-0.0529 -0.07937,-0.0794 -0.07937,-0.21167 0,-0.29104 l 0.343959,-0.34396 c 0.07937,-0.0794 0.211666,-0.0794 0.291041,0 0.07937,0.0794 0.07937,0.21167 0,0.29104 l -0.343958,0.3175 c -0.05292,0.0529 -0.105833,0.0794 -0.15875,0.0794 z"
         id="path10302"
         style="stroke-width:0.264583" />
      <path
         fill="#231f20"
         d="m 85.218754,132.94179 c -0.05292,0 -0.105834,-0.0265 -0.132292,-0.0529 l -0.343958,-0.34396 c -0.07937,-0.0794 -0.07937,-0.21166 0,-0.29104 0.07937,-0.0794 0.211666,-0.0794 0.291041,0 l 0.343958,0.34396 c 0.07937,0.0794 0.07937,0.21167 0,0.29104 -0.05292,0.0265 -0.105833,0.0529 -0.158749,0.0529 z"
         id="path10304"
         style="stroke-width:0.264583" />
      <path
         fill="#231f20"
         d="m 84.16042,131.857 c -0.05292,0 -0.105833,-0.0265 -0.132291,-0.0529 l -0.343959,-0.34396 c -0.07937,-0.0794 -0.07937,-0.21167 0,-0.29104 0.07937,-0.0794 0.211667,-0.0794 0.291042,0 l 0.343958,0.34396 c 0.07937,0.0794 0.07937,0.21166 0,0.29104 -0.05292,0.0529 -0.105833,0.0529 -0.15875,0.0529 z"
         id="path10306"
         style="stroke-width:0.264583" />
      <path
         fill="#231f20"
         d="m 105.72396,120.77095 c -0.0529,0 -0.10583,-0.0264 -0.13229,-0.0529 -0.0794,-0.0794 -0.0794,-0.21167 0,-0.29104 l 0.34396,-0.34396 c 0.0794,-0.0794 0.21166,-0.0794 0.29104,0 0.0794,0.0794 0.0794,0.21166 0,0.29104 l -0.34396,0.34396 c -0.0529,0.0265 -0.10583,0.0529 -0.15875,0.0529 z"
         id="path10308"
         style="stroke-width:0.264583" />
      <path
         fill="#231f20"
         d="m 104.66563,121.82929 c -0.0529,0 -0.10584,-0.0265 -0.13229,-0.0529 -0.0794,-0.0794 -0.0794,-0.21167 0,-0.29104 l 0.34395,-0.34396 c 0.0794,-0.0794 0.21167,-0.0794 0.29105,0 0.0794,0.0794 0.0794,0.21167 0,0.29104 l -0.34396,0.34396 c -0.0529,0.0265 -0.10584,0.0529 -0.15875,0.0529 z"
         id="path10310"
         style="stroke-width:0.264583" />
      <path
         fill="#231f20"
         d="m 106.06792,121.82929 c -0.0529,0 -0.10583,-0.0265 -0.13229,-0.0529 l -0.34396,-0.34396 c -0.0794,-0.0794 -0.0794,-0.21166 0,-0.29104 0.0794,-0.0794 0.21167,-0.0794 0.29104,0 l 0.3175,0.34396 c 0.0794,0.0794 0.0794,0.21167 0,0.29104 -0.0265,0.0265 -0.0794,0.0529 -0.13229,0.0529 z"
         id="path10312"
         style="stroke-width:0.264583" />
      <path
         fill="#231f20"
         d="m 105.00959,120.77095 c -0.0529,0 -0.10584,-0.0264 -0.1323,-0.0529 l -0.34395,-0.34396 c -0.0794,-0.0794 -0.0794,-0.21167 0,-0.29104 0.0794,-0.0794 0.21166,-0.0794 0.29104,0 l 0.3175,0.34396 c 0.0794,0.0794 0.0794,0.21166 0,0.29104 -0.0529,0.0265 -0.0794,0.0529 -0.13229,0.0529 z"
         id="path10314"
         style="stroke-width:0.264583" />
      <circle
         fill="#84dbff"
         cx="94.558548"
         cy="103.33492"
         r="0.52916664"
         id="circle10316"
         style="stroke-width:0.264583" />
      <circle
         fill="#ff7058"
         cx="104.29521"
         cy="107.54179"
         r="0.52916664"
         id="circle10318"
         style="stroke-width:0.264583" />
      <circle
         fill="#ffd05b"
         cx="74.026878"
         cy="121.61762"
         r="0.52916664"
         id="circle10320"
         style="stroke-width:0.264583" />
      <circle
         fill="#e6e9ee"
         cx="90.245834"
         cy="131.32784"
         r="0.52916664"
         id="circle10322"
         style="stroke-width:0.264583" />
      <path
         fill="#231f20"
         d="m 88.28792,103.04387 h -2.143125 c -0.105833,0 -0.211667,-0.0794 -0.211667,-0.21167 0,-0.10583 0.07937,-0.21166 0.211667,-0.21166 h 2.143125 c 0.105833,0 0.211667,0.0794 0.211667,0.21166 -0.02646,0.1323 -0.105834,0.21167 -0.211667,0.21167 z"
         id="path10324"
         style="stroke-width:0.264583" />
      <path
         fill="#231f20"
         d="m 89.108128,103.81116 h -1.031875 c -0.105833,0 -0.211666,-0.0794 -0.211666,-0.21166 0,-0.10584 0.07937,-0.21167 0.211666,-0.21167 h 1.031875 c 0.105834,0 0.211667,0.0794 0.211667,0.21167 0,0.13229 -0.105833,0.21166 -0.211667,0.21166 z"
         id="path10326"
         style="stroke-width:0.264583" />
      <path
         fill="#231f20"
         d="M 90.245837,103.04387 H 89.24042 c -0.105833,0 -0.211667,-0.0794 -0.211667,-0.21167 0,-0.10583 0.07937,-0.21166 0.211667,-0.21166 h 1.005417 c 0.105833,0 0.211666,0.0794 0.211666,0.21166 -0.02646,0.1323 -0.105833,0.21167 -0.211666,0.21167 z"
         id="path10328"
         style="stroke-width:0.264583" />
      <path
         fill="#231f20"
         d="m 87.308962,103.81116 h -0.211667 c -0.105833,0 -0.211667,-0.0794 -0.211667,-0.21166 0,-0.10584 0.07937,-0.21167 0.211667,-0.21167 h 0.211667 c 0.105833,0 0.211666,0.0794 0.211666,0.21167 0,0.13229 -0.105833,0.21166 -0.211666,0.21166 z"
         id="path10330"
         style="stroke-width:0.264583" />
      <path
         fill="#e6e9ee"
         d="m 101.96688,112.3572 v -5.52979 c 0,-0.42333 -0.34396,-0.76729 -0.76729,-0.76729 H 77.201879 c -0.423334,0 -0.767292,0.34396 -0.767292,0.76729 v 5.52979 z"
         id="path10332"
         style="stroke-width:0.264583" />
      <path
         fill="#54c0eb"
         d="m 101.96688,106.82741 v 2.2225 H 84.186879 l -0.555625,-1.50812 h -4.471459 l -0.529166,1.50812 h -2.196042 v -2.2225 c 0,-0.42333 0.343958,-0.76729 0.767292,-0.76729 h 23.997711 c 0.42333,0 0.76729,0.34396 0.76729,0.76729 z"
         id="path10334"
         style="stroke-width:0.264583" />
      <polygon
         fill="#ced5e0"
         points="64.8,28.3 66.9,34 45.8,34 47.9,28.3 "
         id="polygon10336"
         transform="matrix(0.26458333,0,0,0.26458333,72.068962,100.05408)" />
      <rect
         x="80.138756"
         y="109.84367"
         fill="#ffffff"
         width="17.436043"
         height="1.7991667"
         id="rect10338"
         style="stroke-width:0.264583" />
      <path
         fill="#324a5e"
         d="m 80.720837,110.29345 h 0.105833 v 0.37042 0 c 0.02646,-0.0265 0.05292,-0.0529 0.07938,-0.0794 0.02646,-0.0265 0.07937,-0.0265 0.105834,-0.0265 0.07938,0 0.211666,0.0529 0.211666,0.23812 v 0.34396 h -0.105833 v -0.34396 c 0,-0.10583 -0.02646,-0.15875 -0.132292,-0.15875 -0.07937,0 -0.132291,0.0529 -0.132291,0.10584 0,0.0264 0,0.0264 0,0.0529 v 0.34396 H 80.7473 v -0.84667 z"
         id="path10340"
         style="stroke-width:0.264583" />
      <path
         fill="#324a5e"
         d="m 81.514587,110.39929 v 0.15875 h 0.15875 v 0.0794 h -0.15875 v 0.3175 c 0,0.0794 0.02646,0.10584 0.07937,0.10584 0.02646,0 0.05292,0 0.05292,0 v 0.0794 c -0.02646,0 -0.05292,0.0265 -0.105834,0.0265 -0.05292,0 -0.07937,-0.0265 -0.105833,-0.0529 -0.02646,-0.0265 -0.05292,-0.0794 -0.05292,-0.15875 v -0.3175 h -0.07937 v -0.0794 h 0.07937 v -0.13229 z"
         id="path10342"
         style="stroke-width:0.264583" />
      <path
         fill="#324a5e"
         d="m 81.911462,110.39929 v 0.15875 h 0.15875 v 0.0794 h -0.15875 v 0.3175 c 0,0.0794 0.02646,0.10584 0.07937,0.10584 0.02646,0 0.05292,0 0.05292,0 v 0.0794 c -0.02646,0 -0.05292,0.0265 -0.105834,0.0265 -0.05292,0 -0.07937,-0.0265 -0.105833,-0.0529 -0.02646,-0.0265 -0.05292,-0.0794 -0.05292,-0.15875 v -0.3175 h -0.07937 v -0.0794 h 0.07937 v -0.13229 z"
         id="path10344"
         style="stroke-width:0.264583" />
      <path
         fill="#324a5e"
         d="m 82.176045,110.7697 c 0,-0.0794 0,-0.13229 0,-0.1852 h 0.105834 v 0.10583 0 c 0.05292,-0.0794 0.105833,-0.10583 0.211666,-0.10583 0.132292,0 0.238125,0.10583 0.238125,0.29104 0,0.21166 -0.132291,0.3175 -0.264583,0.3175 -0.07938,0 -0.132292,-0.0265 -0.185208,-0.0794 v 0 0.3175 h -0.105834 z m 0.105834,0.1323 c 0,0.0264 0,0.0264 0,0.0529 0.02646,0.0794 0.07937,0.13229 0.15875,0.13229 0.105833,0 0.185208,-0.0794 0.185208,-0.21166 0,-0.10584 -0.05292,-0.21167 -0.15875,-0.21167 -0.07938,0 -0.132292,0.0529 -0.15875,0.13229 0,0 0,0.0265 0,0.0529 v 0.0529 z"
         id="path10346"
         style="stroke-width:0.264583" />
      <path
         fill="#324a5e"
         d="m 82.811045,110.66387 c 0,-0.0529 0.02646,-0.0794 0.07938,-0.0794 0.05292,0 0.07937,0.0264 0.07937,0.0794 0,0.0529 -0.02646,0.0794 -0.07937,0.0794 -0.05292,0 -0.07938,-0.0265 -0.07938,-0.0794 z m 0,0.42333 c 0,-0.0529 0.02646,-0.0794 0.07938,-0.0794 0.05292,0 0.07937,0.0265 0.07937,0.0794 0,0.0529 -0.02646,0.0794 -0.07937,0.0794 -0.05292,0 -0.07938,-0.0265 -0.07938,-0.0794 z"
         id="path10348"
         style="stroke-width:0.264583" />
      <path
         fill="#324a5e"
         d="m 82.996254,111.19304 0.343958,-0.87313 h 0.07938 l -0.343958,0.87313 z"
         id="path10350"
         style="stroke-width:0.264583" />
      <path
         fill="#324a5e"
         d="m 83.419587,111.19304 0.343958,-0.87313 h 0.07938 l -0.343958,0.87313 z"
         id="path10352"
         style="stroke-width:0.264583" />
      <path
         fill="#324a5e"
         d="m 84.186879,110.55804 0.07937,0.29104 c 0.02646,0.0529 0.02646,0.13229 0.05292,0.18521 v 0 c 0,-0.0529 0.02646,-0.13229 0.05292,-0.18521 l 0.105833,-0.29104 h 0.07937 l 0.07937,0.29104 c 0.02646,0.0794 0.02646,0.13229 0.05292,0.18521 v 0 c 0,-0.0529 0.02646,-0.13229 0.05292,-0.18521 l 0.07937,-0.29104 h 0.105833 l -0.185208,0.58208 H 84.63667 l -0.07937,-0.26458 c -0.02646,-0.0529 -0.02646,-0.13229 -0.05292,-0.18521 v 0 c -0.02646,0.0794 -0.02646,0.13229 -0.05292,0.18521 l -0.105833,0.26458 h -0.105834 l -0.185208,-0.58208 z"
         id="path10354"
         style="stroke-width:0.264583" />
      <path
         fill="#324a5e"
         d="m 85.086462,110.55804 0.07937,0.29104 c 0.02646,0.0529 0.02646,0.13229 0.05292,0.18521 v 0 c 0,-0.0529 0.02646,-0.13229 0.05292,-0.18521 l 0.105833,-0.29104 h 0.07937 l 0.07937,0.29104 c 0.02646,0.0794 0.02646,0.13229 0.05292,0.18521 v 0 c 0,-0.0529 0.02646,-0.13229 0.05292,-0.18521 l 0.07937,-0.29104 h 0.105833 l -0.185208,0.58208 h -0.105834 l -0.07937,-0.26458 c -0.02646,-0.0529 -0.02646,-0.13229 -0.05292,-0.18521 v 0 c -0.02646,0.0794 -0.02646,0.13229 -0.05292,0.18521 l -0.105833,0.26458 H 85.13937 l -0.185209,-0.58208 z"
         id="path10356"
         style="stroke-width:0.264583" />
      <path
         fill="#324a5e"
         d="m 85.986045,110.55804 0.07937,0.29104 c 0.02646,0.0529 0.02646,0.13229 0.05292,0.18521 v 0 c 0,-0.0529 0.02646,-0.13229 0.05292,-0.18521 l 0.105834,-0.29104 h 0.07937 l 0.07938,0.29104 c 0.02646,0.0794 0.02646,0.13229 0.05292,0.18521 v 0 c 0,-0.0529 0.02646,-0.13229 0.05292,-0.18521 l 0.07937,-0.29104 h 0.105833 l -0.185208,0.58208 h -0.105833 l -0.07938,-0.26458 c -0.02646,-0.0529 -0.02646,-0.13229 -0.05292,-0.18521 v 0 c -0.02646,0.0794 -0.02646,0.13229 -0.05292,0.18521 l -0.105833,0.26458 h -0.105833 l -0.185209,-0.58208 z"
         id="path10358"
         style="stroke-width:0.264583" />
      <path
         fill="#324a5e"
         d="m 86.726878,111.0872 c 0,-0.0529 0.02646,-0.0794 0.07937,-0.0794 0.05292,0 0.07937,0.0265 0.07937,0.0794 0,0.0529 -0.02646,0.0794 -0.07937,0.0794 -0.02646,0 -0.07937,-0.0265 -0.07937,-0.0794 z"
         id="path10360"
         style="stroke-width:0.264583" />
      <circle
         fill="#ffffff"
         cx="99.876671"
         cy="107.54179"
         r="0.71437502"
         id="circle10362"
         style="stroke-width:0.264583" />
      <circle
         fill="#ffffff"
         cx="97.574799"
         cy="107.54179"
         r="0.71437502"
         id="circle10364"
         style="stroke-width:0.264583" />
      <circle
         fill="#ffffff"
         cx="95.272919"
         cy="107.54179"
         r="0.71437502"
         id="circle10366"
         style="stroke-width:0.264583" />
      <rect
         x="77.836876"
         y="113.65366"
         fill="#84dbff"
         width="22.727709"
         height="10.239375"
         id="rect10368"
         style="stroke-width:0.264583" />
      <path
         fill="#ffffff"
         d="m 89.187503,115.10887 v 0 c -2.010833,0 -3.65125,1.64042 -3.65125,3.65125 0,2.01083 1.640417,3.65125 3.65125,3.65125 v 0 c 2.010834,0 3.65125,-1.64042 3.65125,-3.65125 0,-2.01083 -1.640416,-3.65125 -3.65125,-3.65125 z"
         id="path10370"
         style="stroke-width:0.264583" />
      <path
         fill="#231f20"
         d="m 89.187503,122.62304 c -2.116666,0 -3.862916,-1.71979 -3.862916,-3.86292 0,-2.11667 1.719791,-3.86292 3.862916,-3.86292 2.143125,0 3.862917,1.7198 3.862917,3.86292 0,2.14313 -1.719792,3.86292 -3.862917,3.86292 z m 0,-7.3025 c -1.905,0 -3.466041,1.56104 -3.466041,3.46604 0,1.905 1.561041,3.46604 3.466041,3.46604 1.905,0 3.466042,-1.56104 3.466042,-3.46604 0,-1.905 -1.561042,-3.46604 -3.466042,-3.46604 z"
         id="path10372"
         style="stroke-width:0.264583" />
      <polygon
         fill="#ffffff"
         points="60.9,77.9 71.4,70.7 60.9,63.6 "
         id="polygon10374"
         transform="matrix(0.26458333,0,0,0.26458333,72.068962,100.05408)" />
      <path
         fill="#231f20"
         d="m 88.182087,120.85033 c -0.02646,0 -0.05292,0 -0.07937,-0.0265 -0.05292,-0.0265 -0.105834,-0.10583 -0.105834,-0.18521 v -3.75708 c 0,-0.0794 0.05292,-0.13229 0.105834,-0.18521 0.05292,-0.0265 0.132291,-0.0265 0.211666,0 l 2.778125,1.905 c 0.05292,0.0265 0.07938,0.10583 0.07938,0.15875 0,0.0529 -0.02646,0.13229 -0.07938,0.15875 l -2.778125,1.905 c -0.05292,0.0265 -0.07937,0.0265 -0.132291,0.0265 z m 0.211666,-3.59833 v 3.0427 l 2.2225,-1.50812 z"
         id="path10376"
         style="stroke-width:0.264583" />
      <path
         fill="#ffffff"
         d="m 82.043754,107.19783 c 0.343958,-0.89958 0.423333,-1.87854 0.185208,-2.88396 -0.608542,-2.72521 -3.307292,-4.41854 -6.0325,-3.81 -2.69875,0.60854 -4.418542,3.33375 -3.81,6.0325 0.608542,2.72521 3.33375,4.445 6.0325,3.81 1.005417,-0.21167 1.852083,-0.74083 2.513542,-1.40229 l 2.407708,0.29104 z"
         id="path10378"
         style="stroke-width:0.264583" />
      <path
         fill="#ff7058"
         d="m 77.33417,108.30908 c 0.635,-0.29104 2.725209,-1.37583 2.725209,-3.62479 0,-0.74084 -0.608542,-1.34938 -1.349375,-1.34938 -0.370417,0 -0.740834,0.15875 -1.005417,0.44979 l -0.370417,0.42334 -0.370416,-0.42334 c -0.264584,-0.29104 -0.635,-0.44979 -1.005417,-0.44979 -0.740833,0 -1.349375,0.60854 -1.349375,1.34938 0,2.2225 2.116667,3.33375 2.725208,3.62479 z"
         id="path10380"
         style="stroke-width:0.264583" />
      <rect
         x="80.138756"
         y="124.84554"
         fill="#231f20"
         width="0.39687499"
         height="1.6139582"
         id="rect10382"
         style="stroke-width:0.264583" />
      <path
         fill="#ffffff"
         d="m 94.16167,125.66575 c -0.396875,1.08479 -0.502708,2.30187 -0.238125,3.51895 0.740833,3.33375 4.048125,5.42396 7.381875,4.65667 3.33375,-0.74083 5.42396,-4.04812 4.65667,-7.38187 -0.7673,-3.33375 -4.04813,-5.42396 -7.381878,-4.65667 -1.217084,0.26458 -2.275417,0.89958 -3.069167,1.71979 l -2.963333,-0.37042 z"
         id="path10384"
         style="stroke-width:0.264583" />
      <path
         fill="#231f20"
         d="m 106.17375,126.40658 c -0.50271,-2.16958 -2.03729,-3.86292 -4.02166,-4.57729 v -15.00188 c 0,-0.52916 -0.42334,-0.97896 -0.97896,-0.97896 H 82.546462 c 0.05292,-0.52916 0,-1.05833 -0.105833,-1.5875 -0.555625,-2.4077 -2.645834,-4.10104 -5.106459,-4.10104 -0.396875,0 -0.767291,0.0529 -1.164166,0.13229 -1.375834,0.34396 -2.54,1.16417 -3.280834,2.32834 -0.740833,1.19062 -0.978958,2.59291 -0.687916,3.96875 0.449791,2.03729 2.037291,3.54541 4.021666,3.96875 v 16.64229 c 0,0.52917 0.423334,0.97896 0.978959,0.97896 h 16.404166 c 0.02646,0.34396 0.05292,0.68791 0.132292,1.03187 0.661458,2.93688 3.201458,4.97417 6.217708,4.97417 v 0 c 0.476245,0 0.952495,-0.0529 1.402295,-0.15875 1.66687,-0.37042 3.06916,-1.37583 3.9952,-2.80458 0.89959,-1.45521 1.19063,-3.14855 0.82021,-4.81542 z M 72.598129,106.50991 c -0.291042,-1.27 -0.05292,-2.56646 0.635,-3.65125 0.687916,-1.08479 1.772708,-1.85208 3.042708,-2.14312 0.3175,-0.10584 0.687917,-0.13229 1.058333,-0.13229 2.248959,0 4.233334,1.5875 4.736042,3.78354 0.211667,0.92604 0.132292,1.87854 -0.185208,2.75166 -0.02646,0.0529 -0.02646,0.1323 0.02646,0.18521 l 1.084792,1.69334 -1.984375,-0.23813 c -0.05292,0 -0.132292,0.0265 -0.15875,0.0529 -0.661459,0.68791 -1.481667,1.13771 -2.407709,1.34937 -0.343958,0.0794 -0.714375,0.13229 -1.084791,0.13229 -2.301875,0 -4.28625,-1.5875 -4.7625,-3.78354 z m 20.981458,21.2725 H 77.17542 c -0.3175,0 -0.582083,-0.26458 -0.582083,-0.58208 v -16.56292 c 0.238125,0.0265 0.449792,0.0529 0.687917,0.0529 0.396875,0 0.767291,-0.0529 1.164166,-0.13229 0.9525,-0.21167 1.852084,-0.68792 2.54,-1.40229 l 2.328334,0.29104 c 0.07937,0 0.15875,-0.0265 0.185208,-0.0794 0.05292,-0.0529 0.05292,-0.15875 0,-0.21166 l -1.243542,-1.95792 c 0.105834,-0.29104 0.185209,-0.60854 0.238125,-0.92604 h 18.706045 c 0.3175,0 0.58208,0.26458 0.58208,0.58208 v 14.86958 c -0.58208,-0.15875 -1.19063,-0.26458 -1.799167,-0.26458 -0.47625,0 -0.9525,0.0529 -1.402291,0.15875 -1.190625,0.26458 -2.248959,0.84667 -3.095625,1.71979 l -2.8575,-0.34396 c -0.07937,0 -0.15875,0.0265 -0.185209,0.0794 -0.05292,0.0529 -0.05292,0.15875 0,0.21167 l 1.402292,2.19604 H 77.836879 v 0.39687 h 16.060208 c -0.211667,0.58209 -0.3175,1.24354 -0.3175,1.905 z m 11.430003,3.22792 c -0.84667,1.34937 -2.16959,2.27542 -3.73063,2.64583 -0.42333,0.10584 -0.87312,0.15875 -1.322915,0.15875 v 0 c -2.778125,0 -5.212292,-1.95791 -5.820833,-4.65666 -0.264584,-1.13771 -0.185209,-2.30188 0.238125,-3.41313 0.02646,-0.0529 0.02646,-0.13229 -0.02646,-0.18521 l -1.375833,-2.16958 2.54,0.3175 c 0.05292,0 0.132292,-0.0265 0.15875,-0.0529 0.820208,-0.84666 1.825625,-1.40229 2.963333,-1.66687 0.423334,-0.10584 0.873125,-0.15875 1.322917,-0.15875 2.778126,0 5.212296,1.95791 5.820836,4.65666 0.37041,1.56105 0.0794,3.175 -0.76729,4.52438 z"
         id="path10386"
         style="stroke-width:0.264583" />
      <line
         fill="#ffffff"
         x1="96.437088"
         y1="126.0097"
         x2="103.55437"
         y2="126.0097"
         id="line10388"
         style="stroke-width:0.264583" />
      <rect
         x="96.437088"
         y="125.82449"
         fill="#231f20"
         width="7.1437497"
         height="0.39687499"
         id="rect10390"
         style="stroke-width:0.264583" />
      <line
         fill="#ffffff"
         x1="96.437088"
         y1="127.22678"
         x2="103.55437"
         y2="127.22678"
         id="line10392"
         style="stroke-width:0.264583" />
      <rect
         x="96.437088"
         y="127.04158"
         fill="#231f20"
         width="7.1437497"
         height="0.39687499"
         id="rect10394"
         style="stroke-width:0.264583" />
      <line
         fill="#ffffff"
         x1="96.437088"
         y1="128.44388"
         x2="103.55437"
         y2="128.44388"
         id="line10396"
         style="stroke-width:0.264583" />
      <rect
         x="96.437088"
         y="128.25867"
         fill="#231f20"
         width="7.1437497"
         height="0.39687499"
         id="rect10398"
         style="stroke-width:0.264583" />
      <line
         fill="#ffffff"
         x1="96.437088"
         y1="129.66095"
         x2="100.51167"
         y2="129.66095"
         id="line10400"
         style="stroke-width:0.264583" />
      <rect
         x="96.437088"
         y="129.47574"
         fill="#231f20"
         width="4.1010418"
         height="0.39687499"
         id="rect10402"
         style="stroke-width:0.264583" />
      <g
         id="g12121"
         transform="matrix(0.5826652,0,0,0.5826652,-10.377304,61.642724)">
        <path
           fill="#ff7058"
           d="m 158.22397,124.66263 v -1.45521 c 0,-4.73604 -3.83646,-8.5725 -8.5725,-8.5725 v 0 c -4.73605,0 -8.5725,3.83646 -8.5725,8.5725 v 1.45521 z"
           id="path10515"
           style="stroke-width:0.264583" />
        <path
           fill="#ffffff"
           d="m 151.90042,114.58201 v -2.01084 h -4.49791 v 2.01084 c 0,1.24354 1.00541,2.24895 2.24896,2.24895 v 0 c 1.24354,0 2.24895,-1.00541 2.24895,-2.24895 z"
           id="path10517"
           style="stroke-width:0.264583" />
        <path
           fill="#ffd05b"
           d="m 154.57272,97.51638 c -0.0794,-1.296458 -1.16417,-2.248958 -2.38125,-2.143125 -5.66209,0.582084 -9.47209,-1.74625 -9.47209,-1.74625 0,0 -0.21166,2.566459 0.82021,4.550834 -0.84667,0.714375 -1.37583,1.799166 -1.37583,2.989791 v 5.52979 c 0,0.79375 0.635,1.42875 1.42875,1.42875 h 12.09146 c 0.79375,0 1.42875,-0.635 1.42875,-1.42875 v -5.50333 c 0.0265,-1.693335 -1.05834,-3.122085 -2.54,-3.67771 z"
           id="path10519"
           style="stroke-width:0.264583" />
        <path
           fill="#ffffff"
           d="m 155.76334,105.1893 h -0.0794 v -1.56104 c -2.43417,-0.23813 -4.445,-1.95792 -5.10646,-4.259796 -1.45521,2.381246 -4.02167,4.048126 -6.985,4.259796 v 1.56104 h -0.0529 c -0.47625,0 -0.87312,0.39687 -0.87312,0.87312 0,0.47625 0.39687,0.87313 0.87312,0.87313 h 0.0529 v 1.19062 c 0,3.33375 2.69875,6.05896 6.05896,6.05896 3.33375,0 6.0325,-2.69875 6.0325,-6.0325 v -1.19062 h 0.0529 c 0.47625,0 0.87313,-0.39688 0.87313,-0.87313 0,-0.47625 -0.37042,-0.89958 -0.84667,-0.89958 z"
           id="path10521"
           style="stroke-width:0.264583" />
        <path
           fill="#231f20"
           d="m 153.5673,105.95659 c -0.10583,0 -0.18521,-0.0794 -0.18521,-0.15875 -0.0794,-0.44979 -0.47625,-0.79375 -0.92604,-0.79375 -0.44979,0 -0.84667,0.3175 -0.92604,0.76729 -0.0265,0.10583 -0.13229,0.18521 -0.23813,0.15875 -0.10583,-0.0265 -0.18521,-0.13229 -0.15875,-0.23812 0.10584,-0.635 0.66146,-1.0848 1.32292,-1.0848 0.635,0 1.19062,0.4498 1.32292,1.0848 0.0265,0.10583 -0.0529,0.21166 -0.15875,0.23812 -0.0265,0 -0.0265,0.0265 -0.0529,0.0265 z"
           id="path10523"
           style="stroke-width:0.264583" />
        <path
           fill="#231f20"
           d="m 147.95813,105.95659 c -0.10583,0 -0.18521,-0.0794 -0.18521,-0.15875 -0.0794,-0.44979 -0.47625,-0.76729 -0.92604,-0.76729 -0.44979,0 -0.84666,0.3175 -0.92604,0.76729 -0.0265,0.10583 -0.13229,0.18521 -0.23812,0.15875 -0.10584,-0.0265 -0.18521,-0.13229 -0.15875,-0.23813 0.10583,-0.635 0.66145,-1.08479 1.32291,-1.08479 0.635,0 1.19063,0.44979 1.32292,1.08479 0.0265,0.10584 -0.0529,0.21167 -0.15875,0.23813 -0.0265,-0.0265 -0.0529,0 -0.0529,0 z"
           id="path10525"
           style="stroke-width:0.264583" />
        <path
           fill="#e6e9ee"
           d="m 147.64063,110.05763 c 0.23813,0.87313 1.05834,1.53458 2.01084,1.53458 0.9525,0 1.7727,-0.635 2.01083,-1.53458 z"
           id="path10527"
           style="stroke-width:0.264583" />
        <path
           fill="#231f20"
           d="m 149.65147,111.77742 c -1.03188,0 -1.93146,-0.68791 -2.2225,-1.66687 l -0.0794,-0.26459 h 4.55083 l -0.0794,0.26459 c -0.23813,0.97896 -1.13771,1.66687 -2.16958,1.66687 z m -1.74625,-1.53458 c 0.29104,0.68792 0.97895,1.13771 1.74625,1.13771 0.76729,0 1.42875,-0.44979 1.74625,-1.13771 z"
           id="path10529"
           style="stroke-width:0.264583" />
        <line
           fill="#ffffff"
           x1="154.49335"
           y1="124.66263"
           x2="154.49335"
           y2="121.75221"
           id="line10531"
           style="stroke-width:0.264583" />
        <line
           fill="#ffffff"
           x1="144.80959"
           y1="124.66263"
           x2="144.80959"
           y2="121.75221"
           id="line10533"
           style="stroke-width:0.264583" />
        <polygon
           fill="#ffffff"
           points="68.2,107.6 63.2,112.8 58.2,107.6 61.2,95.1 60.3,92.2 66,92.2 65.1,95.1 "
           id="polygon10535"
           transform="matrix(0.26458333,0,0,0.26458333,132.9298,93.362422)" />
        <path
           fill="#231f20"
           d="m 149.65147,123.39263 c -0.0529,0 -0.10584,-0.0265 -0.1323,-0.0529 l -1.29645,-1.37583 c 0,0 -0.0265,-0.0265 -0.0265,-0.0265 -0.0265,-0.0529 -0.0529,-0.10583 -0.0265,-0.15875 l 0.79375,-3.22791 -0.21167,-0.74084 c -0.0265,-0.0529 0,-0.13229 0.0265,-0.18521 0.0265,-0.0529 0.10583,-0.0794 0.15875,-0.0794 h 1.45521 c 0.0529,0 0.13229,0.0265 0.15875,0.0794 0.0265,0.0529 0.0529,0.10584 0.0265,0.18521 l -0.21167,0.74084 0.79375,3.25437 c 0.0265,0.0529 0,0.13229 -0.0529,0.18521 l -1.32291,1.37583 c -0.0265,0.0265 -0.0794,0.0265 -0.13229,0.0265 z m -1.11125,-1.64042 1.11125,1.16417 1.08479,-1.13771 -0.76729,-3.175 c 0,-0.0265 0,-0.0794 0,-0.10583 l 0.15875,-0.52917 h -0.97896 l 0.15875,0.52917 c 0,0.0265 0,0.0794 0,0.10583 z"
           id="path10537"
           style="stroke-width:0.264583" />
      </g>
    </g>
  </g>
</svg>
