<?xml version="1.0" encoding="utf-8"?>
<!-- Generator: Adobe Illustrator 18.0.0, SVG Export Plug-In . SVG Version: 6.00 Build 0)  -->
<!DOCTYPE svg PUBLIC "-//W3C//DTD SVG 1.1//EN" "http://www.w3.org/Graphics/SVG/1.1/DTD/svg11.dtd">
<svg version="1.1" id="Layer_1" xmlns="http://www.w3.org/2000/svg" xmlns:xlink="http://www.w3.org/1999/xlink" x="0px" y="0px"
	 viewBox="0 0 129.5 129.5" enable-background="new 0 0 129.5 129.5" xml:space="preserve">
<g>
	<g>
		<path fill="#FFFFFF" d="M120,100.7H9.5V37c0-2.8,2.2-5,5-5H115c2.8,0,5,2.2,5,5V100.7z"/>
		<rect x="9.5" y="41.1" fill="#84DBFF" width="110.5" height="59.7"/>
		<path fill="#FFFFFF" d="M9.5,109.5v-8.8H120v8.8c0,2.4-1.9,4.3-4.3,4.3H13.8C11.4,113.8,9.5,111.9,9.5,109.5z"/>
		<polygon fill="#FFFFFF" points="81.3,121.5 76.6,113.8 52.9,113.8 48.2,121.5 		"/>
		<path fill="#FFFFFF" d="M89.3,127.9c-0.4-3.6-3.5-6.4-7.2-6.4H47.4c-3.7,0-6.8,2.8-7.2,6.4H89.3z"/>
		<g>
			<ellipse fill="#CED5E0" cx="64.8" cy="107.3" rx="3.3" ry="3.3"/>
		</g>
		<g>
			<path fill="#FFFFFF" stroke="#231F20" stroke-miterlimit="10" d="M34.6,96.8"/>
		</g>
		<ellipse fill="#FF7058" cx="64.7" cy="57.6" rx="33.5" ry="33.1"/>
		<g>
			<ellipse fill="#FFFFFF" cx="64.7" cy="57.6" rx="25.7" ry="25.4"/>
		</g>
		<g>
			<ellipse fill="#FF7058" cx="64.7" cy="57.6" rx="17.9" ry="17.7"/>
		</g>
		<g>
			<ellipse fill="#FFFFFF" cx="64.7" cy="57.6" rx="10.9" ry="10.8"/>
		</g>
		<g>
			<ellipse fill="#FF7058" cx="64.7" cy="57.6" rx="4.9" ry="4.8"/>
		</g>
		<polygon fill="#FFD05B" points="96.4,34.5 88.5,34.2 96,26.8 103.9,27.1 		"/>
		<polygon fill="#FFD05B" points="88.3,26.2 88.5,34.2 96,26.8 95.8,18.8 		"/>
		<g>
			<g>
				<path fill="#231F20" d="M121.4,124.6c-0.2,0-0.4-0.1-0.5-0.2c-0.3-0.3-0.3-0.8,0-1.1l1.3-1.3c0.3-0.3,0.8-0.3,1.1,0
					c0.3,0.3,0.3,0.8,0,1.1l-1.3,1.3C121.8,124.5,121.6,124.6,121.4,124.6z"/>
			</g>
			<g>
				<path fill="#231F20" d="M117.3,128.7c-0.2,0-0.4-0.1-0.5-0.2c-0.3-0.3-0.3-0.8,0-1.1l1.3-1.3c0.3-0.3,0.8-0.3,1.1,0
					c0.3,0.3,0.3,0.8,0,1.1l-1.3,1.3C117.7,128.6,117.5,128.7,117.3,128.7z"/>
			</g>
			<g>
				<path fill="#231F20" d="M122.7,128.7c-0.2,0-0.4-0.1-0.5-0.2l-1.3-1.3c-0.3-0.3-0.3-0.8,0-1.1c0.3-0.3,0.8-0.3,1.1,0l1.3,1.3
					c0.3,0.3,0.3,0.8,0,1.1C123.1,128.6,122.9,128.7,122.7,128.7z"/>
			</g>
			<g>
				<path fill="#231F20" d="M118.6,124.6c-0.2,0-0.4-0.1-0.5-0.2l-1.3-1.3c-0.3-0.3-0.3-0.8,0-1.1c0.3-0.3,0.8-0.3,1.1,0l1.3,1.3
					c0.3,0.3,0.3,0.8,0,1.1C119,124.5,118.8,124.6,118.6,124.6z"/>
			</g>
		</g>
		<g>
			<path fill="#231F20" d="M114.9,31.2h-14.1l3.6-3.6c0.2-0.2,0.3-0.5,0.2-0.8s-0.4-0.5-0.7-0.5L96.7,26l-0.2-7.3
				c0-0.3-0.2-0.6-0.5-0.7c-0.3-0.1-0.6,0-0.8,0.2l-7.5,7.4c-0.1,0.1-0.2,0.3-0.2,0.6l0.1,5h-1.5c-5.9-4.7-13.3-7.4-21.4-7.4
				s-15.5,2.8-21.4,7.4H14.6c-3.2,0-5.8,2.6-5.8,5.8v72.5c0,2.8,2.3,5,5.1,5h37.7l-3.8,6.2h-0.3c-4.1,0-7.5,3-8,7.1l-0.1,0.8h50.8
				l-0.1-0.8c-0.5-4-3.9-7.1-8-7.1h-0.3l-3.8-6.2h37.7c2.8,0,5.1-2.3,5.1-5V37C120.7,33.8,118.1,31.2,114.9,31.2z M96.3,27.6
				l5.9,0.2l-6,5.9l-5.9-0.2L96.3,27.6z M95.1,20.5l0.1,5.9l-6,6l-0.1-5.9L95.1,20.5z M64.7,25.3c8.8,0,16.7,3.4,22.6,9L64.2,57.1
				c-0.3,0.3-0.3,0.8,0,1.1c0.1,0.2,0.3,0.2,0.5,0.2c0.2,0,0.4-0.1,0.5-0.2l23.2-22.9c5.6,5.8,9.1,13.7,9.1,22.3
				C97.5,75.5,82.8,90,64.7,90C46.7,90,32,75.5,32,57.6S46.7,25.3,64.7,25.3z M10.3,37c0-2.4,1.9-4.3,4.3-4.3h27
				c-2.4,2.2-4.5,4.8-6.3,7.6h-25V37z M82.1,122.3c3,0,5.6,2,6.3,4.9H41.1c0.7-2.8,3.3-4.9,6.3-4.9H82.1z M79.9,120.7H49.6l3.8-6.2
				h22.9L79.9,120.7z M119.2,109.5c0,1.9-1.6,3.5-3.6,3.5H13.8c-2,0-3.6-1.6-3.6-3.5v-8h109V109.5z M119.2,100h-109V41.8h24.2
				c-2.5,4.7-4,10.1-4,15.8c0,18.7,15.4,33.9,34.3,33.9s34.3-15.2,34.3-33.9c0-5.7-1.4-11.1-4-15.8h24.2V100z M119.2,40.3h-25
				c-1.1-1.9-2.5-3.7-4-5.3l6.2,0.2c0,0,0,0,0,0c0.2,0,0.4-0.1,0.5-0.2l2.3-2.3h15.6c2.4,0,4.3,1.9,4.3,4.3V40.3z"/>
			<path fill="#231F20" d="M116.7,11.7c0.2,0,0.4-0.1,0.5-0.2l1.3-1.3c0.3-0.3,0.3-0.8,0-1.1c-0.3-0.3-0.8-0.3-1.1,0l-1.3,1.3
				c-0.3,0.3-0.3,0.8,0,1.1C116.4,11.7,116.5,11.7,116.7,11.7z"/>
			<path fill="#231F20" d="M112.7,15.8c0.2,0,0.4-0.1,0.5-0.2l1.3-1.3c0.3-0.3,0.3-0.8,0-1.1c-0.3-0.3-0.8-0.3-1.1,0l-1.3,1.3
				c-0.3,0.3-0.3,0.8,0,1.1C112.3,15.7,112.5,15.8,112.7,15.8z"/>
			<path fill="#231F20" d="M117.3,13.2c-0.3-0.3-0.8-0.3-1.1,0c-0.3,0.3-0.3,0.8,0,1.1l1.3,1.3c0.1,0.1,0.3,0.2,0.5,0.2
				c0.2,0,0.4-0.1,0.5-0.2c0.3-0.3,0.3-0.8,0-1.1L117.3,13.2z"/>
			<path fill="#231F20" d="M113.4,11.5c0.1,0.1,0.3,0.2,0.5,0.2c0.2,0,0.4-0.1,0.5-0.2c0.3-0.3,0.3-0.8,0-1.1l-1.3-1.3
				c-0.3-0.3-0.8-0.3-1.1,0c-0.3,0.3-0.3,0.8,0,1.1L113.4,11.5z"/>
			<path fill="#231F20" d="M17,3.7c0.2,0,0.4-0.1,0.5-0.2l1.3-1.3c0.3-0.3,0.3-0.8,0-1.1c-0.3-0.3-0.8-0.3-1.1,0l-1.3,1.3
				c-0.3,0.3-0.3,0.8,0,1.1C16.6,3.6,16.8,3.7,17,3.7z"/>
			<path fill="#231F20" d="M13,7.7c0.2,0,0.4-0.1,0.5-0.2l1.3-1.3c0.3-0.3,0.3-0.8,0-1.1c-0.3-0.3-0.8-0.3-1.1,0l-1.3,1.3
				c-0.3,0.3-0.3,0.8,0,1.1C12.6,7.7,12.8,7.7,13,7.7z"/>
			<path fill="#231F20" d="M17.8,7.5c0.1,0.1,0.3,0.2,0.5,0.2s0.4-0.1,0.5-0.2c0.3-0.3,0.3-0.8,0-1.1l-1.3-1.3
				c-0.3-0.3-0.8-0.3-1.1,0c-0.3,0.3-0.3,0.8,0,1.1L17.8,7.5z"/>
			<path fill="#231F20" d="M13.7,3.4c0.1,0.1,0.3,0.2,0.5,0.2c0.2,0,0.4-0.1,0.5-0.2c0.3-0.3,0.3-0.8,0-1.1l-1.3-1.3
				c-0.3-0.3-0.8-0.3-1.1,0c-0.3,0.3-0.3,0.8,0,1.1L13.7,3.4z"/>
			<path fill="#231F20" d="M52,8.6h8.2c0.4,0,0.8-0.3,0.8-0.8c0-0.4-0.3-0.8-0.8-0.8H52c-0.4,0-0.8,0.3-0.8,0.8
				C51.2,8.3,51.6,8.6,52,8.6z"/>
			<path fill="#231F20" d="M59.4,10.1c-0.4,0-0.8,0.3-0.8,0.8c0,0.4,0.3,0.8,0.8,0.8h4c0.4,0,0.8-0.3,0.8-0.8c0-0.4-0.3-0.8-0.8-0.8
				H59.4z"/>
			<path fill="#231F20" d="M63.9,8.6h3.8c0.4,0,0.8-0.3,0.8-0.8c0-0.4-0.3-0.8-0.8-0.8h-3.8c-0.4,0-0.8,0.3-0.8,0.8
				C63.1,8.3,63.5,8.6,63.9,8.6z"/>
			<path fill="#231F20" d="M55.7,10.1c-0.4,0-0.8,0.3-0.8,0.8c0,0.4,0.3,0.8,0.8,0.8h0.8c0.4,0,0.8-0.3,0.8-0.8
				c0-0.4-0.3-0.8-0.8-0.8H55.7z"/>
		</g>
		<g>
			<path fill="#231F20" d="M26,120c0-0.4-0.3-0.8-0.8-0.8H17c-0.4,0-0.8,0.3-0.8,0.8c0,0.4,0.3,0.8,0.8,0.8h8.2
				C25.6,120.8,26,120.4,26,120z"/>
			<path fill="#231F20" d="M28.4,122.2h-4c-0.4,0-0.8,0.3-0.8,0.8c0,0.4,0.3,0.8,0.8,0.8h4c0.4,0,0.8-0.3,0.8-0.8
				C29.2,122.6,28.9,122.2,28.4,122.2z"/>
			<path fill="#231F20" d="M32.8,119.3h-3.8c-0.4,0-0.8,0.3-0.8,0.8c0,0.4,0.3,0.8,0.8,0.8h3.8c0.4,0,0.8-0.3,0.8-0.8
				C33.5,119.6,33.2,119.3,32.8,119.3z"/>
			<path fill="#231F20" d="M21.5,122.2h-0.8c-0.4,0-0.8,0.3-0.8,0.8c0,0.4,0.3,0.8,0.8,0.8h0.8c0.4,0,0.8-0.3,0.8-0.8
				C22.3,122.6,21.9,122.2,21.5,122.2z"/>
		</g>
		<g>
			<circle fill="#84DBFF" cx="94.7" cy="6.3" r="2.2"/>
		</g>
		<g>
			<circle fill="#FF7058" cx="127.3" cy="78.9" r="2.2"/>
		</g>
		<g>
			<circle fill="#E6E9EE" cx="31.2" cy="16.6" r="2.2"/>
		</g>
		<g>
			<circle fill="#FFD05B" cx="2.2" cy="41.1" r="2.2"/>
		</g>
		<g>
			<circle fill="#E6E9EE" cx="104.1" cy="122.5" r="2.2"/>
		</g>
	</g>
</g>
</svg>
