<?xml version="1.0" encoding="UTF-8" standalone="no"?>
<!-- Created with Inkscape (http://www.inkscape.org/) -->

<svg
   xmlns:dc="http://purl.org/dc/elements/1.1/"
   xmlns:cc="http://creativecommons.org/ns#"
   xmlns:rdf="http://www.w3.org/1999/02/22-rdf-syntax-ns#"
   xmlns:svg="http://www.w3.org/2000/svg"
   xmlns="http://www.w3.org/2000/svg"
   xmlns:sodipodi="http://sodipodi.sourceforge.net/DTD/sodipodi-0.dtd"
   xmlns:inkscape="http://www.inkscape.org/namespaces/inkscape"
   width="46mm"
   height="46mm"
   viewBox="0 0 46 46"
   version="1.1"
   id="svg69052"
   inkscape:version="0.92.3 (2405546, 2018-03-11)"
   sodipodi:docname="Uniformality.svg">
  <defs
     id="defs69046">
    <clipPath
       clipPathUnits="userSpaceOnUse"
       id="clipPath23530">
      <path
         d="M 0,13509.354 H 1152.441 V 0 H 0 Z"
         id="path23528"
         inkscape:connector-curvature="0" />
    </clipPath>
    <clipPath
       clipPathUnits="userSpaceOnUse"
       id="clipPath6928">
      <path
         d="M 0,13509.354 H 1152.441 V 0 H 0 Z"
         id="path6926"
         inkscape:connector-curvature="0" />
    </clipPath>
    <clipPath
       clipPathUnits="userSpaceOnUse"
       id="clipPath57588">
      <path
         d="M 0,13509.354 H 1152.441 V 0 H 0 Z"
         id="path57586"
         inkscape:connector-curvature="0" />
    </clipPath>
    <clipPath
       clipPathUnits="userSpaceOnUse"
       id="clipPath13948">
      <path
         d="M 0,13509.354 H 1152.441 V 0 H 0 Z"
         id="path13946"
         inkscape:connector-curvature="0" />
    </clipPath>
  </defs>
  <sodipodi:namedview
     id="base"
     pagecolor="#ffffff"
     bordercolor="#666666"
     borderopacity="1.0"
     inkscape:pageopacity="0.0"
     inkscape:pageshadow="2"
     inkscape:zoom="1.979899"
     inkscape:cx="39.806823"
     inkscape:cy="61.923983"
     inkscape:document-units="mm"
     inkscape:current-layer="layer1"
     showgrid="false"
     inkscape:window-width="1920"
     inkscape:window-height="1001"
     inkscape:window-x="-9"
     inkscape:window-y="-9"
     inkscape:window-maximized="1" />
  <metadata
     id="metadata69049">
    <rdf:RDF>
      <cc:Work
         rdf:about="">
        <dc:format>image/svg+xml</dc:format>
        <dc:type
           rdf:resource="http://purl.org/dc/dcmitype/StillImage" />
        <dc:title></dc:title>
      </cc:Work>
    </rdf:RDF>
  </metadata>
  <g
     inkscape:label="Layer 1"
     inkscape:groupmode="layer"
     id="layer1"
     transform="translate(0,-251)">
    <g
       transform="matrix(0.35277777,0,0,-0.35060288,-28.180333,646.03544)"
       id="g13942">
      <g
         id="g13944"
         clip-path="url(#clipPath13948)">
        <g
           id="g13950"
           transform="translate(209.0361,1062.0925)">
          <path
             d="m 0,0 c 0,-35.329 -28.647,-64 -64,-64 -35.304,0 -64,28.626 -64,64 0,35.3 28.614,64 64,64 C -28.654,64 0,35.361 0,0"
             style="fill:#7ccedc;fill-opacity:1;fill-rule:nonzero;stroke:none"
             id="path13952"
             inkscape:connector-curvature="0" />
        </g>
        <g
           id="g13954"
           transform="translate(130.5624,995.7498)">
          <path
             d="m 0,0 h 14.6 l 0.666,5.333 v 8.15 c 0,0.053 -0.998,3.192 -0.998,3.192 l -1.462,2.247 -1.623,3.228 c 0,0 -1.338,1.908 -1.391,1.926 -0.054,0.017 -1.213,1.373 -1.213,1.373 L 7.723,27.036 7.01,27.517 H 6.047 L 5.348,27.276 5.221,27.416 4.614,27.362 -6.444,22.457 c 0,0 5.717,-16.927 6.424,-22.325 C -0.014,0.088 -0.006,0.044 0,0"
             style="fill:#f37c5a;fill-opacity:1;fill-rule:nonzero;stroke:none"
             id="path13956"
             inkscape:connector-curvature="0" />
        </g>
        <g
           id="g13958"
           transform="translate(159.5099,995.7498)">
          <path
             d="M 0,0 C 0.006,0.044 0.014,0.088 0.02,0.132 0.727,5.53 6.444,22.457 6.444,22.457 l -11.058,4.905 -0.607,0.054 -2.107,-2.324 -1.834,-2.391 -1.532,-2.627 -1.194,-2.273 -0.222,-2.006 -0.155,-1.453 -0.995,-3.02 L -13.794,0 Z"
             style="fill:#f37c5a;fill-opacity:1;fill-rule:nonzero;stroke:none"
             id="path13960"
             inkscape:connector-curvature="0" />
        </g>
        <g
           id="g13962"
           transform="translate(139.078,1030.8864)">
          <path
             d="m 0,0 c 0,0 0.27,-1.799 0.261,-3.051 l -0.584,-2.09 c 0,0 -0.142,-0.889 -0.142,-0.95 0,-0.061 0.142,-1.98 0.142,-1.98 l 0.262,-0.959 0.546,-1.364 0.869,-1.061 2.323,-4.05 1.98,-3.98 1,-1.505 0.697,-0.323 0.878,1.575 0.455,2.021 0.586,1.636 0.414,0.929 1.071,1.849 1.333,1.919 1.505,1.99 1.212,2.555 -0.889,2.334 -1.373,1.016 -0.123,0.067 c 0,0 -0.108,1.858 0.165,3.072 L 9.723,-1.479 5.883,-1.676 2.051,-0.777 0.785,0.343 0.623,0.095 Z"
             style="fill:#f7bb52;fill-opacity:1;fill-rule:nonzero;stroke:none"
             id="path13964"
             inkscape:connector-curvature="0" />
        </g>
        <g
           id="g13966"
           transform="translate(154.0149,1043.2334)">
          <path
             d="m 0,0 c 0,0 -1.893,4.223 -1.918,4.262 -0.026,0.038 -3.309,1.776 -3.309,1.776 0,0 -4.828,-1.944 -4.918,-1.995 -0.09,-0.052 -4.159,-2.987 -4.159,-2.987 0,0 -2.047,-2.794 -2.085,-2.82 -0.039,-0.026 -0.863,-1.583 -0.889,-1.635 -0.026,-0.051 -0.309,-1.493 -0.309,-1.493 l 0.483,-1.205 c 0,0 0.335,-1.251 0.744,-2.204 0.364,-0.85 0.595,-1.751 0.675,-2.674 0.001,-0.015 0.002,-0.03 0.004,-0.046 0,0 0.116,-1.699 3.18,-4.467 0,0 2.909,-2.845 6.759,-1.198 0,0 2.592,1.094 3.624,3.316 0.044,0.094 0.087,0.188 0.136,0.279 0.259,0.492 1.209,2.452 1.196,4.757 -0.003,0.536 0.023,1.072 0.102,1.602 0.126,0.836 0.287,2.094 0.261,2.909 l 0.294,1.3 z"
             style="fill:#fdda7f;fill-opacity:1;fill-rule:nonzero;stroke:none"
             id="path13968"
             inkscape:connector-curvature="0" />
        </g>
        <g
           id="g13970"
           transform="translate(154.8381,1042.0437)">
          <path
             d="m 0,0 c -0.629,0.147 -1.479,-1.193 -1.898,-2.991 -0.42,-1.799 -0.25,-3.376 0.379,-3.523 0.629,-0.146 1.479,1.193 1.898,2.992 C 0.799,-1.724 0.629,-0.147 0,0"
             style="fill:#fdda7f;fill-opacity:1;fill-rule:nonzero;stroke:none"
             id="path13972"
             inkscape:connector-curvature="0" />
        </g>
        <g
           id="g13974"
           transform="translate(134.9588,1040.6511)">
          <path
             d="M 0,0 C 0.589,0.264 1.679,-0.889 2.433,-2.575 3.187,-4.261 3.32,-5.842 2.731,-6.105 2.141,-6.369 1.052,-5.216 0.298,-3.53 -0.456,-1.844 -0.589,-0.264 0,0"
             style="fill:#fdda7f;fill-opacity:1;fill-rule:nonzero;stroke:none"
             id="path13976"
             inkscape:connector-curvature="0" />
        </g>
        <g
           id="g13978"
           transform="translate(138.9258,1024.226)">
          <path
             d="m 0,0 c -0.046,0.182 -0.047,0.374 0.025,0.548 0.135,0.326 0.346,1.109 0.388,2.879 0,0 -0.585,0.037 -0.782,-1.037 l -0.25,-3.102 c 0,0 -0.028,-0.167 -0.02,-0.406 0.016,-0.494 0.237,-0.959 0.597,-1.297 l 0.519,-0.489 c 0,0 -0.18,1.717 -0.477,2.904"
             style="fill:#dad9d8;fill-opacity:1;fill-rule:nonzero;stroke:none"
             id="path13980"
             inkscape:connector-curvature="0" />
        </g>
        <g
           id="g13982"
           transform="translate(158.6695,1018.8901)">
          <path
             d="m 0,0 c 0,0 -0.81,0.474 -2.66,2.529 0,0 -1.156,1.206 -2.103,0.99 0,0 -0.646,-1.269 -1.76,-1.855 0,0 -1.257,-1.437 -3.004,-4.442 0,0 -0.982,-1.712 -1.137,-4.01 -0.156,-2.298 -0.599,-3.579 -0.515,-5.434 h -1.796 l 0.48,3.267 v 0.456 c 0,0 1.496,3.949 2.633,5.734 0,0 2.247,3.882 3.129,4.874 l 1.154,2.134 -0.015,2.416 c -0.002,0.12 -0.026,0.239 -0.073,0.35 l -0.282,0.66 c -0.004,0.012 -0.01,0.023 -0.018,0.033 v 0.01 c 0,0 -0.006,0.005 -0.019,0.015 l -0.001,10e-4 c -0.095,0.079 -0.544,0.417 -1.158,0.358 0,0 -0.013,0.477 -0.024,0.488 0,0 1.06,0.106 1.562,-0.763 0,0 1.248,-1.406 2.772,-3.909 0,0 2.313,-3.278 2.835,-3.902"
             style="fill:#f2f2f2;fill-opacity:1;fill-rule:nonzero;stroke:none"
             id="path13984"
             inkscape:connector-curvature="0" />
        </g>
        <g
           id="g13986"
           transform="translate(153.0906,1023.1329)">
          <path
             d="m 0,0 -1.154,-2.134 c -0.034,0.904 0.272,2.24 0.426,2.846 0.044,0.174 -0.013,0.362 -0.158,0.467 -0.586,0.424 -0.553,0.996 -0.553,0.996 l -0.127,1.668 c 0.614,0.059 1.063,-0.279 1.158,-0.357 L -0.407,3.484 C -0.398,3.477 -0.393,3.469 -0.388,3.459 -0.38,3.449 -0.374,3.438 -0.37,3.427 l 0.282,-0.661 c 0.047,-0.11 0.071,-0.23 0.073,-0.35 z"
             style="fill:#dad9d8;fill-opacity:1;fill-rule:nonzero;stroke:none"
             id="path13988"
             inkscape:connector-curvature="0" />
        </g>
        <g
           id="g13990"
           transform="translate(170.2295,1002.6028)">
          <path
             d="m 0,0 -2.637,13.712 c -0.153,0.798 -0.688,1.471 -1.431,1.801 l -0.207,0.091 c 0,0 -5.718,-16.927 -6.425,-22.325 -0.006,-0.044 -0.014,-0.088 -0.02,-0.132 h 5.059 c 3.62,0 6.345,3.298 5.661,6.853"
             style="fill:#da664b;fill-opacity:1;fill-rule:nonzero;stroke:none"
             id="path13992"
             inkscape:connector-curvature="0" />
        </g>
        <g
           id="g13994"
           transform="translate(124.118,1018.2072)">
          <path
             d="M 0,0 -0.207,-0.092 C -0.95,-0.421 -1.485,-1.094 -1.638,-1.893 l -2.637,-13.711 c -0.684,-3.556 2.04,-6.854 5.661,-6.854 H 6.444 C 6.438,-22.413 6.43,-22.37 6.425,-22.326 5.718,-16.928 0,0 0,0"
             style="fill:#da664b;fill-opacity:1;fill-rule:nonzero;stroke:none"
             id="path13996"
             inkscape:connector-curvature="0" />
        </g>
        <g
           id="g13998"
           transform="translate(153.6353,1048.2007)">
          <path
             d="M 0,0 C -0.066,0.162 -0.13,0.324 -0.187,0.489 -0.306,0.835 -0.552,1.508 -0.826,1.986 -0.91,2.132 -0.97,2.289 -1.027,2.447 -1.12,2.71 -1.455,3.222 -2.618,3.935 -2.74,4.01 -2.867,4.079 -2.996,4.141 c -0.333,0.16 -1.122,0.562 -1.62,0.993 -0.159,0.137 -0.283,0.308 -0.391,0.488 -0.148,0.247 -0.644,0.763 -2.18,0.59 -0.308,-0.035 -0.619,-0.037 -0.926,0.002 -1.188,0.151 -4.443,0.324 -6.71,-1.827 -0.039,-0.037 -0.079,-0.074 -0.12,-0.11 -0.432,-0.379 -3.407,-3.156 -3.744,-8.008 -0.013,-0.185 -0.032,-0.368 -0.063,-0.551 -0.118,-0.677 -0.379,-2.603 0.332,-3.225 0,0 0.522,-0.177 0.597,-1.179 0.007,-0.088 0.008,-0.175 0.005,-0.263 -0.006,-0.216 0.044,-1.077 1.11,-2.183 0,0 -0.008,0.024 -0.019,0.068 -0.271,1.061 0.077,2.184 0.892,2.918 0.938,0.845 2.741,2.486 3.881,3.637 0.552,0.556 1.158,1.055 1.818,1.477 0.686,0.438 1.601,0.933 2.688,1.312 0.22,0.077 0.445,0.144 0.671,0.203 0.526,0.136 1.962,0.551 2.792,1.207 0,0 2.195,-4.423 3.594,-6.002 0,0 0.54,-0.277 0.346,-2.478 0,0 0.941,1.744 1.025,3.544 0,0 0.038,2.739 -0.982,5.246"
             style="fill:#464e58;fill-opacity:1;fill-rule:nonzero;stroke:none"
             id="path14000"
             inkscape:connector-curvature="0" />
        </g>
        <g
           id="g14002"
           transform="translate(135.6392,1022.7053)">
          <path
             d="m 0,0 c 0,0 1.431,0.666 2.414,0.002 0,0 0.212,-0.983 1.054,-1.806 0,0 1.576,-2.028 2.612,-4.463 0,0 1.524,-3.078 2.443,-4.945 0,0 0.502,-0.916 0.367,-4.741 0,0 -0.016,-6.629 -0.214,-11.003 h 3.162 c 0.126,1.939 0.215,4.694 0.068,7.965 -0.012,0.268 -0.007,0.537 0.013,0.805 0.068,0.935 0.072,3.767 -1.848,7.387 0,0 -1.757,3.457 -2.95,5.359 -0.122,0.195 -0.26,0.378 -0.418,0.544 -0.263,0.275 -0.736,0.837 -0.992,1.533 -0.021,0.057 -0.037,0.116 -0.055,0.175 -0.051,0.171 -0.234,0.629 -0.758,0.775 -0.177,0.049 -0.321,0.172 -0.395,0.341 -0.044,0.101 -0.127,0.211 -0.279,0.299 0,0 -0.353,0.197 -0.46,0.39 L 3.208,0.774 c 0,0 -0.209,1.017 -0.194,1.069 0.015,0.052 0.232,1.711 0.232,1.711 L 3.507,4.503 3.7,4.948 V 5.13 c 0,0 -0.911,-0.151 -1.482,-1.386 0,0 -1.656,-2.022 -2.892,-2.724 0,0 -2.508,-2.686 -3.042,-4.043 0,0 1.414,1.965 3.716,3.023"
             style="fill:#ffffff;fill-opacity:1;fill-rule:nonzero;stroke:none"
             id="path14004"
             inkscape:connector-curvature="0" />
        </g>
        <g
           id="g14006"
           transform="translate(146.5657,1007.0721)">
          <path
             d="m 0,0 c 0,-0.317 -0.257,-0.575 -0.575,-0.575 -0.317,0 -0.574,0.258 -0.574,0.575 0,0.317 0.257,0.575 0.574,0.575 C -0.257,0.575 0,0.317 0,0"
             style="fill:#464e58;fill-opacity:1;fill-rule:nonzero;stroke:none"
             id="path14008"
             inkscape:connector-curvature="0" />
        </g>
        <g
           id="g14010"
           transform="translate(146.5657,998.0037)">
          <path
             d="m 0,0 c 0,-0.317 -0.257,-0.575 -0.575,-0.575 -0.317,0 -0.574,0.258 -0.574,0.575 0,0.317 0.257,0.575 0.574,0.575 C -0.257,0.575 0,0.317 0,0"
             style="fill:#464e58;fill-opacity:1;fill-rule:nonzero;stroke:none"
             id="path14012"
             inkscape:connector-curvature="0" />
        </g>
        <g
           id="g14014"
           transform="translate(96.7396,1069.6893)">
          <path
             d="m 0,0 h 12.781 l 0.583,4.669 v 7.134 c 0,0.047 -0.874,2.794 -0.874,2.794 l -1.28,1.967 -1.421,2.826 c 0,0 -1.17,1.67 -1.217,1.686 C 8.525,21.091 7.51,22.278 7.51,22.278 L 6.761,23.667 6.137,24.089 H 5.294 L 4.682,23.878 4.571,24 4.039,23.953 -5.641,19.659 c 0,0 5.005,-14.818 5.624,-19.544 C -0.012,0.077 -0.005,0.039 0,0"
             style="fill:#f37c5a;fill-opacity:1;fill-rule:nonzero;stroke:none"
             id="path14016"
             inkscape:connector-curvature="0" />
        </g>
        <g
           id="g14018"
           transform="translate(122.0801,1069.6893)">
          <path
             d="m 0,0 c 0.005,0.039 0.012,0.077 0.017,0.115 0.619,4.726 5.624,19.544 5.624,19.544 l -9.68,4.294 -0.532,0.047 -1.844,-2.035 -1.606,-2.092 -1.34,-2.301 -1.046,-1.989 -0.194,-1.756 -0.136,-1.272 L -11.608,9.911 -12.076,0 Z"
             style="fill:#f37c5a;fill-opacity:1;fill-rule:nonzero;stroke:none"
             id="path14020"
             inkscape:connector-curvature="0" />
        </g>
        <g
           id="g14022"
           transform="translate(104.1941,1100.4478)">
          <path
             d="m 0,0 c 0,0 0.236,-1.575 0.229,-2.671 l -0.512,-1.83 c 0,0 -0.124,-0.778 -0.124,-0.831 0,-0.053 0.124,-1.733 0.124,-1.733 l 0.23,-0.84 0.477,-1.194 0.761,-0.928 2.034,-3.546 1.733,-3.484 0.875,-1.318 0.61,-0.283 0.77,1.38 0.398,1.768 0.512,1.433 0.363,0.813 0.937,1.618 1.167,1.681 1.318,1.741 1.061,2.238 -0.778,2.042 -1.203,0.89 -0.107,0.058 c 0,0 -0.095,1.627 0.145,2.69 L 8.512,-1.294 5.15,-1.467 1.795,-0.681 0.687,0.3 0.545,0.083 Z"
             style="fill:#f7bb52;fill-opacity:1;fill-rule:nonzero;stroke:none"
             id="path14024"
             inkscape:connector-curvature="0" />
        </g>
        <g
           id="g14026"
           transform="translate(117.2698,1111.2563)">
          <path
             d="m 0,0 c 0,0 -1.657,3.697 -1.679,3.731 -0.023,0.033 -2.897,1.555 -2.897,1.555 0,0 -4.226,-1.702 -4.305,-1.747 -0.079,-0.045 -3.64,-2.615 -3.64,-2.615 0,0 -1.792,-2.445 -1.826,-2.468 -0.034,-0.023 -0.755,-1.386 -0.778,-1.431 -0.022,-0.045 -0.27,-1.308 -0.27,-1.308 l 0.422,-1.054 c 0,0 0.293,-1.095 0.651,-1.929 0.319,-0.745 0.522,-1.534 0.591,-2.341 10e-4,-0.013 0.002,-0.027 0.004,-0.04 0,0 0.101,-1.488 2.783,-3.911 0,0 2.548,-2.491 5.917,-1.048 0,0 2.269,0.956 3.173,2.902 0.038,0.082 0.076,0.164 0.119,0.244 0.227,0.431 1.059,2.147 1.047,4.164 -0.003,0.47 0.02,0.939 0.089,1.403 0.11,0.732 0.251,1.833 0.229,2.546 l 0.257,1.138 z"
             style="fill:#fdda7f;fill-opacity:1;fill-rule:nonzero;stroke:none"
             id="path14028"
             inkscape:connector-curvature="0" />
        </g>
        <g
           id="g14030"
           transform="translate(117.9904,1110.215)">
          <path
             d="M 0,0 C -0.551,0.128 -1.294,-1.044 -1.662,-2.619 -2.029,-4.193 -1.88,-5.574 -1.33,-5.702 -0.779,-5.83 -0.035,-4.658 0.332,-3.083 0.699,-1.509 0.551,-0.128 0,0"
             style="fill:#fdda7f;fill-opacity:1;fill-rule:nonzero;stroke:none"
             id="path14032"
             inkscape:connector-curvature="0" />
        </g>
        <g
           id="g14034"
           transform="translate(100.5881,1108.9958)">
          <path
             d="M 0,0 C 0.516,0.231 1.469,-0.779 2.13,-2.255 2.79,-3.73 2.907,-5.114 2.391,-5.345 1.875,-5.576 0.921,-4.566 0.261,-3.09 -0.399,-1.614 -0.516,-0.231 0,0"
             style="fill:#fdda7f;fill-opacity:1;fill-rule:nonzero;stroke:none"
             id="path14036"
             inkscape:connector-curvature="0" />
        </g>
        <g
           id="g14038"
           transform="translate(104.0441,1094.683)">
          <path
             d="m 0,0 c -0.033,0.126 -0.033,0.255 0.021,0.374 0.117,0.259 0.319,0.934 0.358,2.561 0,0 -0.513,0.032 -0.685,-0.909 l -0.219,-2.715 c 0,0 -0.024,-0.146 -0.018,-0.356 0.014,-0.432 0.208,-0.839 0.523,-1.135 L 0.435,-2.608 C 0.435,-2.608 0.27,-1.04 0,0"
             style="fill:#dad9d8;fill-opacity:1;fill-rule:nonzero;stroke:none"
             id="path14040"
             inkscape:connector-curvature="0" />
        </g>
        <g
           id="g14042"
           transform="translate(121.3445,1089.9463)">
          <path
             d="m 0,0 c 0,0 -0.709,0.415 -2.328,2.214 0,0 -1.013,1.056 -1.841,0.867 0,0 -0.566,-1.111 -1.541,-1.624 0,0 -1.101,-1.258 -2.63,-3.888 0,0 -0.859,-1.499 -0.995,-3.511 -0.137,-2.011 -0.525,-3.133 -0.451,-4.757 h -1.572 l 0.42,2.86 v 0.399 c 0,0 1.309,3.457 2.305,5.02 0,0 1.967,3.398 2.739,4.266 l 1.01,1.868 -0.013,2.115 c -10e-4,0.105 -0.022,0.21 -0.064,0.307 l -0.247,0.578 c -0.003,0.01 -0.008,0.02 -0.016,0.028 v 0.009 c 0,0 -0.005,0.005 -0.016,0.013 l -10e-4,10e-4 c -0.083,0.069 -0.476,0.365 -1.014,0.313 0,0 -0.011,0.418 -0.021,0.427 0,0 0.928,0.094 1.368,-0.667 0,0 1.092,-1.231 2.426,-3.422 0,0 2.025,-2.87 2.482,-3.416"
             style="fill:#f2f2f2;fill-opacity:1;fill-rule:nonzero;stroke:none"
             id="path14044"
             inkscape:connector-curvature="0" />
        </g>
        <g
           id="g14046"
           transform="translate(116.4607,1093.6604)">
          <path
             d="m 0,0 -1.01,-1.868 c -0.028,0.755 0.214,1.855 0.353,2.415 0.049,0.196 -0.018,0.402 -0.176,0.528 -0.453,0.366 -0.426,0.829 -0.426,0.829 l -0.112,1.46 c 0.538,0.052 0.93,-0.244 1.014,-0.313 L -0.356,3.05 C -0.349,3.044 -0.344,3.036 -0.34,3.028 -0.333,3.019 -0.328,3.01 -0.324,3 L -0.077,2.422 C -0.036,2.325 -0.015,2.22 -0.014,2.115 Z"
             style="fill:#dad9d8;fill-opacity:1;fill-rule:nonzero;stroke:none"
             id="path14048"
             inkscape:connector-curvature="0" />
        </g>
        <g
           id="g14050"
           transform="translate(131.464,1075.6885)">
          <path
             d="m 0,0 -2.308,12.003 c -0.135,0.699 -0.603,1.288 -1.253,1.577 l -0.181,0.08 c 0,0 -5.006,-14.818 -5.625,-19.544 -0.005,-0.038 -0.012,-0.077 -0.017,-0.115 h 4.429 C -1.786,-5.999 0.598,-3.112 0,0"
             style="fill:#da664b;fill-opacity:1;fill-rule:nonzero;stroke:none"
             id="path14052"
             inkscape:connector-curvature="0" />
        </g>
        <g
           id="g14054"
           transform="translate(91.0981,1089.3485)">
          <path
             d="M 0,0 -0.181,-0.08 C -0.832,-0.369 -1.3,-0.958 -1.434,-1.657 L -3.742,-13.66 c -0.599,-3.112 1.786,-5.999 4.955,-5.999 h 4.428 c -0.005,0.038 -0.012,0.077 -0.017,0.115 C 5.005,-14.818 0,0 0,0"
             style="fill:#da664b;fill-opacity:1;fill-rule:nonzero;stroke:none"
             id="path14056"
             inkscape:connector-curvature="0" />
        </g>
        <g
           id="g14058"
           transform="translate(116.9375,1115.6047)">
          <path
             d="M 0,0 C -0.058,0.142 -0.114,0.284 -0.164,0.428 -0.268,0.731 -0.484,1.32 -0.723,1.739 -0.796,1.866 -0.849,2.004 -0.899,2.142 -0.981,2.372 -1.273,2.82 -2.292,3.445 -2.399,3.51 -2.51,3.57 -2.623,3.625 -2.915,3.765 -3.604,4.117 -4.041,4.494 -4.18,4.615 -4.289,4.764 -4.383,4.922 -4.512,5.137 -4.947,5.589 -6.291,5.438 -6.561,5.407 -6.833,5.406 -7.102,5.44 c -1.04,0.132 -3.89,0.284 -5.874,-1.599 -0.034,-0.033 -0.07,-0.066 -0.105,-0.097 -0.378,-0.332 -2.982,-2.763 -3.278,-7.01 -0.011,-0.162 -0.027,-0.323 -0.055,-0.482 -0.103,-0.593 -0.331,-2.279 0.291,-2.824 0,0 0.457,-0.155 0.523,-1.032 0.005,-0.076 0.006,-0.153 0.004,-0.23 -0.005,-0.189 0.038,-0.942 0.971,-1.911 0,0 -0.006,0.021 -0.016,0.059 -0.237,0.929 0.068,1.913 0.78,2.555 0.822,0.74 2.4,2.176 3.399,3.184 0.482,0.487 1.013,0.924 1.59,1.293 0.601,0.383 1.402,0.817 2.353,1.149 0.193,0.067 0.39,0.125 0.588,0.177 0.461,0.119 1.717,0.482 2.444,1.056 0,0 1.922,-3.872 3.146,-5.253 0,0 0.473,-0.243 0.303,-2.17 0,0 0.824,1.527 0.897,3.103 0,0 0.034,2.397 -0.859,4.592"
             style="fill:#464e58;fill-opacity:1;fill-rule:nonzero;stroke:none"
             id="path14060"
             inkscape:connector-curvature="0" />
        </g>
        <g
           id="g14062"
           transform="translate(101.1838,1093.2861)">
          <path
             d="m 0,0 c 0,0 1.253,0.583 2.113,0.002 0,0 0.186,-0.86 0.923,-1.581 0,0 1.379,-1.775 2.286,-3.907 0,0 1.334,-2.695 2.139,-4.329 0,0 0.439,-0.802 0.322,-4.15 0,0 -0.014,-5.803 -0.188,-9.632 h 2.768 c 0.11,1.697 0.188,4.109 0.06,6.972 -0.011,0.235 -0.007,0.471 0.01,0.705 0.061,0.818 0.064,3.297 -1.616,6.467 0,0 -1.539,3.026 -2.584,4.691 -0.106,0.17 -0.227,0.33 -0.365,0.476 -0.23,0.241 -0.644,0.733 -0.868,1.342 -0.019,0.05 -0.033,0.102 -0.049,0.153 -0.044,0.15 -0.204,0.551 -0.663,0.678 -0.156,0.043 -0.281,0.152 -0.346,0.299 -0.039,0.089 -0.111,0.185 -0.244,0.262 0,0 -0.309,0.173 -0.403,0.341 L 2.808,0.678 c 0,0 -0.183,0.89 -0.17,0.935 0.013,0.046 0.203,1.498 0.203,1.498 L 3.07,3.942 3.239,4.331 v 0.16 c 0,0 -0.797,-0.132 -1.297,-1.214 0,0 -1.45,-1.769 -2.532,-2.384 0,0 -2.196,-2.351 -2.663,-3.539 0,0 1.237,1.72 3.253,2.646"
             style="fill:#ffffff;fill-opacity:1;fill-rule:nonzero;stroke:none"
             id="path14064"
             inkscape:connector-curvature="0" />
        </g>
        <g
           id="g14066"
           transform="translate(110.7488,1079.6008)">
          <path
             d="m 0,0 c 0,-0.278 -0.225,-0.503 -0.503,-0.503 -0.278,0 -0.503,0.225 -0.503,0.503 0,0.278 0.225,0.503 0.503,0.503 C -0.225,0.503 0,0.278 0,0"
             style="fill:#464e58;fill-opacity:1;fill-rule:nonzero;stroke:none"
             id="path14068"
             inkscape:connector-curvature="0" />
        </g>
        <g
           id="g14070"
           transform="translate(110.7488,1071.6625)">
          <path
             d="m 0,0 c 0,-0.278 -0.225,-0.503 -0.503,-0.503 -0.278,0 -0.503,0.225 -0.503,0.503 0,0.278 0.225,0.503 0.503,0.503 C -0.225,0.503 0,0.278 0,0"
             style="fill:#464e58;fill-opacity:1;fill-rule:nonzero;stroke:none"
             id="path14072"
             inkscape:connector-curvature="0" />
        </g>
        <g
           id="g14074"
           transform="translate(167.9922,1069.6893)">
          <path
             d="m 0,0 h 12.781 l 0.583,4.669 v 7.134 c 0,0.047 -0.874,2.794 -0.874,2.794 l -1.28,1.967 -1.421,2.826 c 0,0 -1.17,1.67 -1.217,1.686 C 8.525,21.091 7.51,22.278 7.51,22.278 L 6.761,23.667 6.137,24.089 H 5.294 L 4.682,23.878 4.571,24 4.039,23.953 -5.641,19.659 c 0,0 5.005,-14.818 5.624,-19.544 C -0.012,0.077 -0.005,0.039 0,0"
             style="fill:#f37c5a;fill-opacity:1;fill-rule:nonzero;stroke:none"
             id="path14076"
             inkscape:connector-curvature="0" />
        </g>
        <g
           id="g14078"
           transform="translate(193.3327,1069.6893)">
          <path
             d="m 0,0 c 0.005,0.039 0.012,0.077 0.017,0.115 0.619,4.726 5.624,19.544 5.624,19.544 l -9.68,4.294 -0.532,0.047 -1.844,-2.035 -1.606,-2.092 -1.34,-2.301 -1.046,-1.989 -0.194,-1.756 -0.136,-1.272 L -11.608,9.911 -12.076,0 Z"
             style="fill:#f37c5a;fill-opacity:1;fill-rule:nonzero;stroke:none"
             id="path14080"
             inkscape:connector-curvature="0" />
        </g>
        <g
           id="g14082"
           transform="translate(175.4467,1100.4478)">
          <path
             d="m 0,0 c 0,0 0.236,-1.575 0.229,-2.671 l -0.512,-1.83 c 0,0 -0.124,-0.778 -0.124,-0.831 0,-0.053 0.124,-1.733 0.124,-1.733 l 0.23,-0.84 0.477,-1.194 0.761,-0.928 2.034,-3.546 1.733,-3.484 0.875,-1.318 0.61,-0.283 0.77,1.38 0.398,1.768 0.512,1.433 0.363,0.813 0.937,1.618 1.167,1.681 1.318,1.741 1.061,2.238 -0.778,2.042 -1.203,0.89 -0.107,0.058 c 0,0 -0.095,1.627 0.145,2.69 L 8.512,-1.294 5.15,-1.467 1.795,-0.681 0.687,0.3 0.545,0.083 Z"
             style="fill:#f7bb52;fill-opacity:1;fill-rule:nonzero;stroke:none"
             id="path14084"
             inkscape:connector-curvature="0" />
        </g>
        <g
           id="g14086"
           transform="translate(188.5224,1111.2563)">
          <path
             d="m 0,0 c 0,0 -1.657,3.697 -1.679,3.731 -0.023,0.033 -2.897,1.555 -2.897,1.555 0,0 -4.226,-1.702 -4.305,-1.747 -0.079,-0.045 -3.64,-2.615 -3.64,-2.615 0,0 -1.792,-2.445 -1.826,-2.468 -0.034,-0.023 -0.755,-1.386 -0.778,-1.431 -0.022,-0.045 -0.27,-1.308 -0.27,-1.308 l 0.422,-1.054 c 0,0 0.293,-1.095 0.651,-1.929 0.319,-0.745 0.522,-1.534 0.591,-2.341 10e-4,-0.013 0.002,-0.027 0.004,-0.04 0,0 0.101,-1.488 2.783,-3.911 0,0 2.548,-2.491 5.917,-1.048 0,0 2.269,0.956 3.173,2.902 0.038,0.082 0.076,0.164 0.119,0.244 0.227,0.431 1.059,2.147 1.047,4.164 -0.003,0.47 0.02,0.939 0.089,1.403 0.11,0.732 0.251,1.833 0.229,2.546 l 0.257,1.138 z"
             style="fill:#fdda7f;fill-opacity:1;fill-rule:nonzero;stroke:none"
             id="path14088"
             inkscape:connector-curvature="0" />
        </g>
        <g
           id="g14090"
           transform="translate(189.243,1110.215)">
          <path
             d="M 0,0 C -0.551,0.128 -1.294,-1.044 -1.662,-2.619 -2.029,-4.193 -1.88,-5.574 -1.33,-5.702 -0.779,-5.83 -0.035,-4.658 0.332,-3.083 0.699,-1.509 0.551,-0.128 0,0"
             style="fill:#fdda7f;fill-opacity:1;fill-rule:nonzero;stroke:none"
             id="path14092"
             inkscape:connector-curvature="0" />
        </g>
        <g
           id="g14094"
           transform="translate(171.8407,1108.9958)">
          <path
             d="M 0,0 C 0.516,0.231 1.469,-0.779 2.13,-2.255 2.79,-3.73 2.907,-5.114 2.391,-5.345 1.875,-5.576 0.921,-4.566 0.261,-3.09 -0.399,-1.614 -0.516,-0.231 0,0"
             style="fill:#fdda7f;fill-opacity:1;fill-rule:nonzero;stroke:none"
             id="path14096"
             inkscape:connector-curvature="0" />
        </g>
        <g
           id="g14098"
           transform="translate(175.3426,1094.4969)">
          <path
             d="m 0,0 c -0.054,0.231 -0.048,0.475 0.03,0.698 0.117,0.334 0.269,1.029 0.303,2.423 0,0 -0.513,0.032 -0.685,-0.909 l -0.219,-2.715 c 0,0 -0.024,-0.146 -0.018,-0.356 0.014,-0.432 0.208,-0.839 0.523,-1.135 l 0.455,-0.428 c 0,0 -0.147,1.391 -0.389,2.422"
             style="fill:#dad9d8;fill-opacity:1;fill-rule:nonzero;stroke:none"
             id="path14100"
             inkscape:connector-curvature="0" />
        </g>
        <g
           id="g14102"
           transform="translate(192.597,1089.9463)">
          <path
             d="m 0,0 c 0,0 -0.709,0.415 -2.328,2.214 0,0 -1.013,1.056 -1.841,0.867 0,0 -0.566,-1.111 -1.541,-1.624 0,0 -1.101,-1.258 -2.63,-3.888 0,0 -0.859,-1.499 -0.995,-3.511 -0.137,-2.011 -0.525,-3.133 -0.451,-4.757 h -1.572 l 0.42,2.86 v 0.399 c 0,0 1.309,3.457 2.305,5.02 0,0 1.967,3.398 2.739,4.266 l 1.01,1.868 -0.013,2.115 c -10e-4,0.105 -0.022,0.21 -0.064,0.307 l -0.247,0.578 c -0.003,0.01 -0.008,0.02 -0.016,0.028 v 0.009 c 0,0 -0.005,0.005 -0.016,0.013 l -10e-4,10e-4 c -0.083,0.069 -0.476,0.365 -1.014,0.313 0,0 -0.011,0.418 -0.021,0.427 0,0 0.928,0.094 1.368,-0.667 0,0 1.092,-1.231 2.426,-3.422 0,0 2.025,-2.87 2.482,-3.416"
             style="fill:#f2f2f2;fill-opacity:1;fill-rule:nonzero;stroke:none"
             id="path14104"
             inkscape:connector-curvature="0" />
        </g>
        <g
           id="g14106"
           transform="translate(187.7133,1093.6604)">
          <path
             d="m 0,0 -1.01,-1.868 c -0.029,0.76 0.217,1.869 0.356,2.425 0.047,0.19 -0.017,0.39 -0.17,0.511 -0.463,0.367 -0.435,0.836 -0.435,0.836 l -0.112,1.46 c 0.538,0.052 0.93,-0.244 1.014,-0.313 L -0.356,3.05 C -0.349,3.044 -0.344,3.036 -0.34,3.028 -0.333,3.019 -0.328,3.01 -0.324,3 L -0.077,2.422 C -0.036,2.325 -0.015,2.22 -0.014,2.115 Z"
             style="fill:#dad9d8;fill-opacity:1;fill-rule:nonzero;stroke:none"
             id="path14108"
             inkscape:connector-curvature="0" />
        </g>
        <g
           id="g14110"
           transform="translate(202.7166,1075.6885)">
          <path
             d="m 0,0 -2.308,12.003 c -0.135,0.699 -0.603,1.288 -1.253,1.577 l -0.181,0.08 c 0,0 -5.006,-14.818 -5.625,-19.544 -0.005,-0.038 -0.012,-0.077 -0.017,-0.115 h 4.429 C -1.786,-5.999 0.598,-3.112 0,0"
             style="fill:#da664b;fill-opacity:1;fill-rule:nonzero;stroke:none"
             id="path14112"
             inkscape:connector-curvature="0" />
        </g>
        <g
           id="g14114"
           transform="translate(162.3507,1089.3485)">
          <path
             d="M 0,0 -0.181,-0.08 C -0.832,-0.369 -1.3,-0.958 -1.434,-1.657 L -3.742,-13.66 c -0.599,-3.112 1.786,-5.999 4.955,-5.999 h 4.428 c -0.005,0.038 -0.012,0.077 -0.017,0.115 C 5.005,-14.818 0,0 0,0"
             style="fill:#da664b;fill-opacity:1;fill-rule:nonzero;stroke:none"
             id="path14116"
             inkscape:connector-curvature="0" />
        </g>
        <g
           id="g14118"
           transform="translate(188.1901,1115.6047)">
          <path
             d="M 0,0 C -0.058,0.142 -0.114,0.284 -0.164,0.428 -0.268,0.731 -0.484,1.32 -0.723,1.739 -0.796,1.866 -0.849,2.004 -0.899,2.142 -0.981,2.372 -1.273,2.82 -2.292,3.445 -2.399,3.51 -2.51,3.57 -2.623,3.625 -2.915,3.765 -3.605,4.117 -4.041,4.494 -4.18,4.615 -4.289,4.764 -4.383,4.922 -4.512,5.137 -4.947,5.589 -6.291,5.438 -6.561,5.407 -6.833,5.406 -7.102,5.44 c -1.04,0.132 -3.89,0.284 -5.874,-1.599 -0.034,-0.033 -0.07,-0.066 -0.105,-0.097 -0.378,-0.332 -2.982,-2.763 -3.278,-7.01 -0.011,-0.162 -0.027,-0.323 -0.055,-0.482 -0.103,-0.593 -0.331,-2.279 0.291,-2.824 0,0 0.457,-0.155 0.523,-1.032 0.005,-0.076 0.006,-0.153 0.004,-0.23 -0.005,-0.189 0.038,-0.942 0.971,-1.911 0,0 -0.006,0.021 -0.016,0.059 -0.237,0.929 0.068,1.913 0.78,2.555 0.822,0.74 2.4,2.176 3.399,3.184 0.482,0.487 1.013,0.924 1.59,1.293 0.601,0.383 1.402,0.817 2.353,1.149 0.193,0.067 0.39,0.125 0.588,0.177 0.461,0.119 1.717,0.482 2.444,1.056 0,0 1.922,-3.872 3.146,-5.253 0,0 0.473,-0.243 0.303,-2.17 0,0 0.824,1.527 0.897,3.103 0,0 0.034,2.397 -0.859,4.592"
             style="fill:#464e58;fill-opacity:1;fill-rule:nonzero;stroke:none"
             id="path14120"
             inkscape:connector-curvature="0" />
        </g>
        <g
           id="g14122"
           transform="translate(172.4364,1093.2861)">
          <path
             d="m 0,0 c 0,0 1.253,0.583 2.113,0.002 0,0 0.186,-0.86 0.923,-1.581 0,0 1.379,-1.775 2.286,-3.907 0,0 1.334,-2.695 2.139,-4.329 0,0 0.439,-0.802 0.322,-4.15 0,0 -0.014,-5.803 -0.188,-9.632 h 2.768 c 0.11,1.697 0.188,4.109 0.06,6.972 -0.011,0.235 -0.007,0.471 0.01,0.705 0.061,0.818 0.064,3.297 -1.616,6.467 0,0 -1.539,3.026 -2.584,4.691 -0.106,0.17 -0.227,0.33 -0.365,0.476 -0.23,0.241 -0.644,0.733 -0.868,1.342 -0.019,0.05 -0.033,0.102 -0.049,0.153 -0.044,0.15 -0.204,0.551 -0.663,0.678 -0.156,0.043 -0.281,0.152 -0.346,0.299 -0.039,0.089 -0.111,0.185 -0.244,0.262 0,0 -0.309,0.173 -0.403,0.341 L 2.808,0.678 c 0,0 -0.183,0.89 -0.17,0.935 0.013,0.046 0.203,1.498 0.203,1.498 L 3.07,3.942 3.239,4.331 v 0.16 c 0,0 -0.797,-0.132 -1.297,-1.214 0,0 -1.45,-1.769 -2.532,-2.384 0,0 -2.196,-2.351 -2.663,-3.539 0,0 1.237,1.72 3.253,2.646"
             style="fill:#ffffff;fill-opacity:1;fill-rule:nonzero;stroke:none"
             id="path14124"
             inkscape:connector-curvature="0" />
        </g>
        <g
           id="g14126"
           transform="translate(182.0014,1079.6008)">
          <path
             d="m 0,0 c 0,-0.278 -0.225,-0.503 -0.503,-0.503 -0.278,0 -0.503,0.225 -0.503,0.503 0,0.278 0.225,0.503 0.503,0.503 C -0.225,0.503 0,0.278 0,0"
             style="fill:#464e58;fill-opacity:1;fill-rule:nonzero;stroke:none"
             id="path14128"
             inkscape:connector-curvature="0" />
        </g>
        <g
           id="g14130"
           transform="translate(182.0014,1071.6625)">
          <path
             d="m 0,0 c 0,-0.278 -0.225,-0.503 -0.503,-0.503 -0.278,0 -0.503,0.225 -0.503,0.503 0,0.278 0.225,0.503 0.503,0.503 C -0.225,0.503 0,0.278 0,0"
             style="fill:#464e58;fill-opacity:1;fill-rule:nonzero;stroke:none"
             id="path14132"
             inkscape:connector-curvature="0" />
        </g>
        <g
           id="g14134"
           transform="translate(145.0363,1111.6472)">
          <path
             d="m 0,0 c -0.339,0 -0.676,-0.003 -1.013,-0.01 l 0.026,-1.25 c 0.328,0.007 0.657,0.01 0.987,0.01 6.684,0 13.154,-1.342 19.23,-3.988 l 0.499,1.147 C 13.495,-1.376 6.856,0 0,0"
             style="fill:#25313b;fill-opacity:1;fill-rule:nonzero;stroke:none"
             id="path14136"
             inkscape:connector-curvature="0" />
        </g>
        <g
           id="g14138"
           transform="translate(125.3068,1107.5559)">
          <path
             d="m 0,0 0.499,-1.146 c 0.301,0.131 0.604,0.259 0.908,0.384 L 0.933,0.394 C 0.62,0.266 0.31,0.134 0,0"
             style="fill:#25313b;fill-opacity:1;fill-rule:nonzero;stroke:none"
             id="path14140"
             inkscape:connector-curvature="0" />
        </g>
        <g
           id="g14142"
           transform="translate(139.9635,1111.3904)">
          <path
             d="m 0,0 0.127,-1.243 c 0.653,0.066 1.31,0.119 1.97,0.16 L 2.022,0.165 C 1.344,0.124 0.67,0.068 0,0"
             style="fill:#25313b;fill-opacity:1;fill-rule:nonzero;stroke:none"
             id="path14144"
             inkscape:connector-curvature="0" />
        </g>
        <g
           id="g14146"
           transform="translate(128.13,1108.6824)">
          <path
             d="m 0,0 0.427,-1.175 c 0.618,0.225 1.241,0.437 1.871,0.637 L 1.92,0.653 C 1.274,0.449 0.634,0.23 0,0"
             style="fill:#25313b;fill-opacity:1;fill-rule:nonzero;stroke:none"
             id="path14148"
             inkscape:connector-curvature="0" />
        </g>
        <g
           id="g14150"
           transform="translate(131.9957,1109.9099)">
          <path
             d="m 0,0 0.329,-1.206 c 0.634,0.173 1.273,0.333 1.917,0.48 L 1.968,0.493 C 1.307,0.342 0.651,0.178 0,0"
             style="fill:#25313b;fill-opacity:1;fill-rule:nonzero;stroke:none"
             id="path14152"
             inkscape:connector-curvature="0" />
        </g>
        <g
           id="g14154"
           transform="translate(135.9498,1110.8137)">
          <path
             d="m 0,0 0.229,-1.229 c 0.646,0.12 1.295,0.227 1.95,0.321 L 2.001,0.33 C 1.33,0.233 0.663,0.124 0,0"
             style="fill:#25313b;fill-opacity:1;fill-rule:nonzero;stroke:none"
             id="path14156"
             inkscape:connector-curvature="0" />
        </g>
        <g
           id="g14158"
           transform="translate(165.1252,1109.7295)">
          <path
             d="m 0,0 -2.51,-4.611 4.786,0.384 z"
             style="fill:#25313b;fill-opacity:1;fill-rule:nonzero;stroke:none"
             id="path14160"
             inkscape:connector-curvature="0" />
        </g>
        <g
           id="g14162"
           transform="translate(189.948,1041.1497)">
          <path
             d="M 0,0 C 0.143,0.307 0.283,0.614 0.419,0.922 L -0.724,1.427 C -0.857,1.126 -0.993,0.827 -1.133,0.528 -3.958,-5.529 -7.908,-10.826 -12.874,-15.215 l 0.828,-0.937 C -6.951,-11.649 -2.898,-6.214 0,0"
             style="fill:#25313b;fill-opacity:1;fill-rule:nonzero;stroke:none"
             id="path14164"
             inkscape:connector-curvature="0" />
        </g>
        <g
           id="g14166"
           transform="translate(194.578,1060.7598)">
          <path
             d="m 0,0 -1.25,0.032 c -0.008,-0.328 -0.02,-0.656 -0.035,-0.985 l 1.248,-0.059 C -0.021,-0.675 -0.009,-0.337 0,0"
             style="fill:#25313b;fill-opacity:1;fill-rule:nonzero;stroke:none"
             id="path14168"
             inkscape:connector-curvature="0" />
        </g>
        <g
           id="g14170"
           transform="translate(191.859,1045.8557)">
          <path
             d="m 0,0 -1.18,0.41 c -0.216,-0.619 -0.446,-1.238 -0.688,-1.853 l 1.163,-0.459 C -0.456,-1.271 -0.221,-0.636 0,0"
             style="fill:#25313b;fill-opacity:1;fill-rule:nonzero;stroke:none"
             id="path14172"
             inkscape:connector-curvature="0" />
        </g>
        <g
           id="g14174"
           transform="translate(194.4058,1057.725)">
          <path
             d="M 0,0 -1.245,0.11 C -1.303,-0.546 -1.374,-1.2 -1.459,-1.856 l 1.24,-0.161 C -0.132,-1.344 -0.059,-0.672 0,0"
             style="fill:#25313b;fill-opacity:1;fill-rule:nonzero;stroke:none"
             id="path14176"
             inkscape:connector-curvature="0" />
        </g>
        <g
           id="g14178"
           transform="translate(193.8846,1053.7026)">
          <path
             d="m 0,0 -1.232,0.211 c -0.112,-0.648 -0.236,-1.294 -0.375,-1.94 l 1.222,-0.263 C -0.243,-1.329 -0.114,-0.665 0,0"
             style="fill:#25313b;fill-opacity:1;fill-rule:nonzero;stroke:none"
             id="path14180"
             inkscape:connector-curvature="0" />
        </g>
        <g
           id="g14182"
           transform="translate(193.0326,1049.7371)">
          <path
             d="m 0,0 -1.21,0.312 c -0.165,-0.636 -0.342,-1.27 -0.534,-1.903 l 1.197,-0.362 C -0.351,-1.304 -0.168,-0.653 0,0"
             style="fill:#25313b;fill-opacity:1;fill-rule:nonzero;stroke:none"
             id="path14184"
             inkscape:connector-curvature="0" />
        </g>
        <g
           id="g14186"
           transform="translate(179.7199,1023.7534)">
          <path
             d="M 0,0 -3.119,4.223 -4.793,-0.276 Z"
             style="fill:#25313b;fill-opacity:1;fill-rule:nonzero;stroke:none"
             id="path14188"
             inkscape:connector-curvature="0" />
        </g>
        <g
           id="g14190"
           transform="translate(102.5594,1036.5701)">
          <path
             d="m 0,0 c 0.175,-0.291 0.351,-0.578 0.53,-0.863 l 1.058,0.665 C 1.413,0.081 1.241,0.361 1.071,0.644 -2.371,6.373 -4.553,12.61 -5.415,19.181 L -6.654,19.019 C -5.77,12.276 -3.531,5.877 0,0"
             style="fill:#25313b;fill-opacity:1;fill-rule:nonzero;stroke:none"
             id="path14192"
             inkscape:connector-curvature="0" />
        </g>
        <g
           id="g14194"
           transform="translate(116.2278,1021.7657)">
          <path
             d="M 0,0 0.726,1.018 C 0.458,1.208 0.193,1.402 -0.071,1.598 L -0.818,0.597 C -0.547,0.394 -0.275,0.196 0,0"
             style="fill:#25313b;fill-opacity:1;fill-rule:nonzero;stroke:none"
             id="path14196"
             inkscape:connector-curvature="0" />
        </g>
        <g
           id="g14198"
           transform="translate(105.3922,1032.3541)">
          <path
             d="M 0,0 1,0.749 C 0.607,1.274 0.223,1.81 -0.151,2.356 L -1.182,1.648 C -0.798,1.089 -0.404,0.539 0,0"
             style="fill:#25313b;fill-opacity:1;fill-rule:nonzero;stroke:none"
             id="path14200"
             inkscape:connector-curvature="0" />
        </g>
        <g
           id="g14202"
           transform="translate(113.8081,1023.6056)">
          <path
             d="M 0,0 0.787,0.971 C 0.276,1.385 -0.227,1.81 -0.723,2.247 L -1.549,1.31 C -1.041,0.861 -0.524,0.425 0,0"
             style="fill:#25313b;fill-opacity:1;fill-rule:nonzero;stroke:none"
             id="path14204"
             inkscape:connector-curvature="0" />
        </g>
        <g
           id="g14206"
           transform="translate(110.7649,1026.2869)">
          <path
             d="M 0,0 0.864,0.903 C 0.389,1.358 -0.077,1.823 -0.534,2.299 L -1.436,1.433 C -0.966,0.944 -0.488,0.466 0,0"
             style="fill:#25313b;fill-opacity:1;fill-rule:nonzero;stroke:none"
             id="path14208"
             inkscape:connector-curvature="0" />
        </g>
        <g
           id="g14210"
           transform="translate(107.9537,1029.2107)">
          <path
             d="M 0,0 0.935,0.829 C 0.5,1.321 0.074,1.823 -0.344,2.335 L -1.313,1.546 C -0.885,1.02 -0.447,0.504 0,0"
             style="fill:#25313b;fill-opacity:1;fill-rule:nonzero;stroke:none"
             id="path14212"
             inkscape:connector-curvature="0" />
        </g>
        <g
           id="g14214"
           transform="translate(93.8566,1054.7773)">
          <path
             d="M 0,0 5.245,0.224 2.451,4.128 Z"
             style="fill:#25313b;fill-opacity:1;fill-rule:nonzero;stroke:none"
             id="path14216"
             inkscape:connector-curvature="0" />
        </g>
        <g
           id="g14218"
           transform="translate(145.0362,1065.0646)">
          <path
             d="m 0,0 c -2.556,0 -4.628,2.072 -4.628,4.628 0,2.556 2.072,4.628 4.628,4.628 2.556,0 4.628,-2.072 4.628,-4.628 C 4.628,2.072 2.556,0 0,0 M 10.744,3.292 V 5.949 L 8.581,6.298 C 8.508,6.69 8.406,7.082 8.261,7.445 L 9.974,8.838 8.639,11.147 6.591,10.363 C 6.33,10.668 6.054,10.944 5.749,11.219 l 0.77,2.048 -2.294,1.321 -1.394,-1.699 c -0.363,0.131 -0.755,0.232 -1.147,0.32 l -0.348,2.163 h -2.672 l -0.348,-2.163 c -0.392,-0.088 -0.784,-0.189 -1.147,-0.32 l -1.394,1.699 -2.294,-1.321 0.77,-2.048 C -6.054,10.944 -6.33,10.668 -6.592,10.363 L -8.639,11.147 -9.974,8.838 -8.261,7.445 C -8.406,7.082 -8.508,6.69 -8.581,6.298 L -10.744,5.949 V 3.292 l 2.163,-0.348 c 0.073,-0.392 0.189,-0.784 0.32,-1.147 l -1.713,-1.394 1.335,-2.309 2.062,0.785 c 0.247,-0.305 0.537,-0.596 0.842,-0.843 l -0.784,-2.047 2.294,-1.336 1.394,1.714 c 0.363,-0.131 0.755,-0.247 1.147,-0.32 l 0.348,-2.163 h 2.672 l 0.348,2.163 c 0.392,0.073 0.784,0.189 1.147,0.32 l 1.394,-1.714 2.294,1.336 -0.784,2.047 c 0.305,0.247 0.595,0.538 0.842,0.843 L 8.639,-1.906 9.974,0.403 8.261,1.797 c 0.131,0.363 0.247,0.755 0.32,1.147 z"
             style="fill:#25313b;fill-opacity:1;fill-rule:nonzero;stroke:none"
             id="path14220"
             inkscape:connector-curvature="0" />
        </g>
      </g>
    </g>
  </g>
</svg>
