<svg xmlns="http://www.w3.org/2000/svg" xmlns:xlink="http://www.w3.org/1999/xlink" viewBox="0 0 64 64"><g fill="#263238"><path d="M21 7.5h-4a.5.5 0 1 1 0-1h4a.5.5 0 1 1 0 1z"/><path d="M19 9.5a.5.5 0 0 1-.5-.5V5a.5.5 0 1 1 1 0v4a.5.5 0 0 1-.5.5zM14 14h-4a.5.5 0 1 1 0-1h4a.5.5 0 1 1 0 1z"/><path d="M12 16a.5.5 0 0 1-.5-.5v-4a.5.5 0 1 1 1 0v4a.5.5 0 0 1-.5.5z"/></g><path d="M4 24.5h56v18H4z" fill="#40c4ff"/><path d="M60 55.5H4a.5.5 0 1 1 0-1h56a.5.5 0 1 1 0 1z" fill="#263238"/><path d="M26.5 55h10V21a1 1 0 0 0-1-1h-8a1 1 0 0 0-1 1v34z" fill="#fff"/><path d="M36.5 55.5h-10a.5.5 0 0 1-.5-.5V21a1.5 1.5 0 0 1 1.5-1.5h8A1.5 1.5 0 0 1 37 21v34a.5.5 0 0 1-.5.5zm-9.5-1h9V21a.5.5 0 0 0-.5-.5h-8a.5.5 0 0 0-.5.5v33.5z" fill="#263238"/><path d="M10 55h10V31a1 1 0 0 0-1-1h-8a1 1 0 0 0-1 1v24z" fill="#fff"/><path d="M20 55.5H10a.5.5 0 0 1-.5-.5V31a1.5 1.5 0 0 1 1.5-1.5h8a1.5 1.5 0 0 1 1.5 1.5v24a.5.5 0 0 1-.5.5zm-9.5-1h9V31a.5.5 0 0 0-.5-.5h-8a.5.5 0 0 0-.5.5v23.5z" fill="#263238"/><path d="M43 55h10V11a1 1 0 0 0-1-1h-8a1 1 0 0 0-1 1v44z" fill="#fff"/><g fill="#263238"><path d="M53 55.5H43a.5.5 0 0 1-.5-.5V11A1.5 1.5 0 0 1 44 9.5h8a1.5 1.5 0 0 1 1.5 1.5v44a.5.5 0 0 1-.5.5zm-9.5-1h9V11a.5.5 0 0 0-.5-.5h-8a.5.5 0 0 0-.5.5v43.5z"/><path d="M6 44.875a.5.5 0 0 1-.277-.916l9-6a.5.5 0 0 1 .277-.084h16.332l26.367-19.9a.5.5 0 0 1 .7.098.5.5 0 0 1-.099.7l-26.5 20a.5.5 0 0 1-.301.101H15.15L6.277 44.79c-.085.057-.18.084-.277.084z"/></g><circle cx="48" cy="25.922" r="2.5" fill="#ff5252"/><use xlink:href="#B" fill="#263238"/><circle cx="31.5" cy="38.375" r="2.5" fill="#ffd740"/><use xlink:href="#B" x="-16.5" y="12.453" fill="#263238"/><circle cx="15" cy="38.375" r="2.5" fill="#ffd740"/><g fill="#263238"><use xlink:href="#B" x="-33" y="12.453"/><path d="M23.5 59.5h-1a.5.5 0 1 1 0-1h1a.5.5 0 1 1 0 1zm17 0h-15a.5.5 0 1 1 0-1h15a.5.5 0 1 1 0 1z"/></g><defs ><path id="B" d="M48 28.922c-1.654 0-3-1.346-3-3s1.346-3 3-3 3 1.346 3 3-1.346 3-3 3zm0-5c-1.103 0-2 .897-2 2s.897 2 2 2 2-.897 2-2-.897-2-2-2z"/></defs></svg>