<?xml version="1.0" encoding="utf-8"?>
<!-- Generator: Adobe Illustrator 18.0.0, SVG Export Plug-In . SVG Version: 6.00 Build 0)  -->
<!DOCTYPE svg PUBLIC "-//W3C//DTD SVG 1.1//EN" "http://www.w3.org/Graphics/SVG/1.1/DTD/svg11.dtd">
<svg version="1.1" id="Layer_1" xmlns="http://www.w3.org/2000/svg" xmlns:xlink="http://www.w3.org/1999/xlink" x="0px" y="0px"
	 viewBox="0 0 129.5 129.5" enable-background="new 0 0 129.5 129.5" xml:space="preserve">
<g>
	<g>
		<path fill="#231F20" d="M14.1,11.3c-0.2,0-0.4-0.1-0.5-0.2c-0.3-0.3-0.3-0.8,0-1.1l1.3-1.3c0.3-0.3,0.8-0.3,1.1,0
			c0.3,0.3,0.3,0.8,0,1.1l-1.3,1.3C14.5,11.3,14.3,11.3,14.1,11.3z"/>
		<path fill="#231F20" d="M10.1,15.4c-0.2,0-0.4-0.1-0.5-0.2c-0.3-0.3-0.3-0.8,0-1.1l1.3-1.3c0.3-0.3,0.8-0.3,1.1,0
			c0.3,0.3,0.3,0.8,0,1.1l-1.3,1.3C10.5,15.3,10.3,15.4,10.1,15.4z"/>
		<path fill="#231F20" d="M15.4,15.4c-0.2,0-0.4-0.1-0.5-0.2l-1.3-1.3c-0.3-0.3-0.3-0.8,0-1.1c0.3-0.3,0.8-0.3,1.1,0l1.3,1.3
			c0.3,0.3,0.3,0.8,0,1.1C15.8,15.3,15.6,15.4,15.4,15.4z"/>
		<path fill="#231F20" d="M11.4,11.3c-0.2,0-0.4-0.1-0.5-0.2L9.6,9.8c-0.3-0.3-0.3-0.8,0-1.1c0.3-0.3,0.8-0.3,1.1,0l1.3,1.3
			c0.3,0.3,0.3,0.8,0,1.1C11.8,11.3,11.6,11.3,11.4,11.3z"/>
		<path fill="#231F20" d="M120.8,18.1c-0.2,0-0.4-0.1-0.5-0.2c-0.3-0.3-0.3-0.8,0-1.1l1.3-1.3c0.3-0.3,0.8-0.3,1.1,0
			c0.3,0.3,0.3,0.8,0,1.1l-1.3,1.3C121.2,18,121,18.1,120.8,18.1z"/>
		<path fill="#231F20" d="M116.8,22.1c-0.2,0-0.4-0.1-0.5-0.2c-0.3-0.3-0.3-0.8,0-1.1l1.3-1.3c0.3-0.3,0.8-0.3,1.1,0
			c0.3,0.3,0.3,0.8,0,1.1l-1.3,1.3C117.1,22,117,22.1,116.8,22.1z"/>
		<path fill="#231F20" d="M122.1,22.1c-0.2,0-0.4-0.1-0.5-0.2l-1.3-1.3c-0.3-0.3-0.3-0.8,0-1.1c0.3-0.3,0.8-0.3,1.1,0l1.3,1.3
			c0.3,0.3,0.3,0.8,0,1.1C122.5,22,122.3,22.1,122.1,22.1z"/>
		<path fill="#231F20" d="M118.1,18.1c-0.2,0-0.4-0.1-0.5-0.2l-1.3-1.3c-0.3-0.3-0.3-0.8,0-1.1c0.3-0.3,0.8-0.3,1.1,0l1.3,1.3
			c0.3,0.3,0.3,0.8,0,1.1C118.4,18,118.2,18.1,118.1,18.1z"/>
		<path fill="#231F20" d="M25.5,108.9c-0.2,0-0.4-0.1-0.5-0.2c-0.3-0.3-0.3-0.8,0-1.1l1.3-1.3c0.3-0.3,0.8-0.3,1.1,0
			c0.3,0.3,0.3,0.8,0,1.1l-1.3,1.3C25.9,108.8,25.7,108.9,25.5,108.9z"/>
		<path fill="#231F20" d="M21.5,112.9c-0.2,0-0.4-0.1-0.5-0.2c-0.3-0.3-0.3-0.8,0-1.1l1.3-1.3c0.3-0.3,0.8-0.3,1.1,0
			c0.3,0.3,0.3,0.8,0,1.1l-1.3,1.3C21.8,112.8,21.7,112.9,21.5,112.9z"/>
		<path fill="#231F20" d="M26.8,112.9c-0.2,0-0.4-0.1-0.5-0.2l-1.3-1.3c-0.3-0.3-0.3-0.8,0-1.1c0.3-0.3,0.8-0.3,1.1,0l1.3,1.3
			c0.3,0.3,0.3,0.8,0,1.1C27.2,112.8,27,112.9,26.8,112.9z"/>
		<path fill="#231F20" d="M22.8,108.9c-0.2,0-0.4-0.1-0.5-0.2l-1.3-1.3c-0.3-0.3-0.3-0.8,0-1.1c0.3-0.3,0.8-0.3,1.1,0l1.3,1.3
			c0.3,0.3,0.3,0.8,0,1.1C23.1,108.8,22.9,108.9,22.8,108.9z"/>
		<path fill="#231F20" d="M115.5,116.9c-0.2,0-0.4-0.1-0.5-0.2c-0.3-0.3-0.3-0.8,0-1.1l1.3-1.3c0.3-0.3,0.8-0.3,1.1,0
			c0.3,0.3,0.3,0.8,0,1.1l-1.3,1.3C115.9,116.8,115.7,116.9,115.5,116.9z"/>
		<path fill="#231F20" d="M111.4,120.9c-0.2,0-0.4-0.1-0.5-0.2c-0.3-0.3-0.3-0.8,0-1.1l1.3-1.3c0.3-0.3,0.8-0.3,1.1,0
			c0.3,0.3,0.3,0.8,0,1.1l-1.3,1.3C111.8,120.8,111.6,120.9,111.4,120.9z"/>
		<path fill="#231F20" d="M116.8,120.9c-0.2,0-0.4-0.1-0.5-0.2l-1.3-1.3c-0.3-0.3-0.3-0.8,0-1.1s0.8-0.3,1.1,0l1.3,1.3
			c0.3,0.3,0.3,0.8,0,1.1C117.1,120.8,117,120.9,116.8,120.9z"/>
		<path fill="#231F20" d="M112.7,116.9c-0.2,0-0.4-0.1-0.5-0.2l-1.3-1.3c-0.3-0.3-0.3-0.8,0-1.1c0.3-0.3,0.8-0.3,1.1,0l1.3,1.3
			c0.3,0.3,0.3,0.8,0,1.1C113.1,116.8,112.9,116.9,112.7,116.9z"/>
		<path fill="#231F20" d="M81.1,95.1H73c-0.4,0-0.8-0.3-0.8-0.8c0-0.4,0.3-0.8,0.8-0.8h8.1c0.4,0,0.8,0.3,0.8,0.8
			C81.9,94.8,81.5,95.1,81.1,95.1z"/>
		<path fill="#231F20" d="M84.3,98.1h-4c-0.4,0-0.8-0.3-0.8-0.8c0-0.4,0.3-0.8,0.8-0.8h4c0.4,0,0.8,0.3,0.8,0.8
			C85,97.7,84.7,98.1,84.3,98.1z"/>
		<path fill="#231F20" d="M88.6,95.1h-3.8c-0.4,0-0.8-0.3-0.8-0.8c0-0.4,0.3-0.8,0.8-0.8h3.8c0.4,0,0.8,0.3,0.8,0.8
			C89.3,94.8,89,95.1,88.6,95.1z"/>
		<path fill="#231F20" d="M77.4,98.1h-0.8c-0.4,0-0.8-0.3-0.8-0.8c0-0.4,0.3-0.8,0.8-0.8h0.8c0.4,0,0.8,0.3,0.8,0.8
			C78.2,97.7,77.9,98.1,77.4,98.1z"/>
		<circle fill="#FF7058" cx="26.8" cy="91.3" r="2.8"/>
		<circle fill="#E6E9EE" cx="108.7" cy="7.3" r="2.8"/>
		<circle fill="#FFD05B" cx="64.7" cy="109.5" r="2.8"/>
		<circle fill="#FFD05B" cx="73" cy="14.6" r="2.8"/>
		<circle fill="#84DBFF" cx="98.4" cy="64.7" r="2.8"/>
		<circle fill="#E6E9EE" cx="24" cy="23.9" r="1.7"/>
		<path fill="#231F20" d="M98.4,49.9c-2.2,0-4-1.8-4-4c0-2.2,1.8-4,4-4c2.2,0,4,1.8,4,4C102.4,48.1,100.6,49.9,98.4,49.9z
			 M98.4,43.3c-1.4,0-2.5,1.1-2.5,2.5c0,1.4,1.1,2.5,2.5,2.5c1.4,0,2.5-1.1,2.5-2.5C100.9,44.4,99.8,43.3,98.4,43.3z"/>
		<path fill="#231F20" d="M92.4,129.5c-0.4,0-0.7-0.3-0.7-0.7l-0.7-22.3c0-0.2,0.1-0.4,0.2-0.5c0.1-0.1,0.3-0.2,0.5-0.2l19.7-0.5
			l1.8-29.5c0-0.3,0.2-0.6,0.6-0.7l13.8-3.7l-15.5-19.6c-0.1-0.1-0.2-0.3-0.2-0.5c0.1-1.1,0.1-2,0.1-2.9c0-25.8-21-46.8-46.8-46.8
			c-11.8,0-23,4.4-31.7,12.3c-0.3,0.3-0.8,0.3-1.1,0c-0.3-0.3-0.3-0.8,0-1.1C41.3,4.5,52.9,0,65,0c26.7,0,48.3,21.7,48.3,48.3
			c0,0.8,0,1.7-0.1,2.7l16.1,20.3c0.2,0.2,0.2,0.5,0.1,0.7c-0.1,0.2-0.3,0.4-0.5,0.5l-14.4,3.9l-1.8,29.6c0,0.4-0.3,0.7-0.7,0.7
			l-19.6,0.5l0.7,21.5C93.1,129.1,92.8,129.5,92.4,129.5C92.4,129.5,92.4,129.5,92.4,129.5z"/>
		<path fill="#FFD05B" d="M3.2,126.7c0.8-1.9,2.6-3.2,4.8-3.2h71c2.1,0,4,1.3,4.8,3.2H3.2z"/>
		<circle fill="#FFFFFF" cx="43.4" cy="31.8" r="7.9"/>
		<circle fill="#84DBFF" cx="43.4" cy="31.8" r="3.6"/>
		<path fill="#E6E9EE" d="M12.8,80.5c-4.7,0-8.7-3.2-9.7-7.7h19.5C21.5,77.3,17.5,80.5,12.8,80.5z"/>
		<path fill="#E6E9EE" d="M74.1,80.5c-4.7,0-8.7-3.2-9.7-7.7h19.5C82.8,77.3,78.8,80.5,74.1,80.5z"/>
		<path fill="#231F20" d="M78.9,120.8H46V40.1c3.3-1,5.7-4,6.1-7.5h21L61.3,70.6c0,0,0,0.1,0,0.1c0,0.1,0,0.1,0,0.2
			c0.2,7,5.8,12.4,12.8,12.4c6.9,0,12.5-5.4,12.8-12.3c0-0.1,0-0.1,0-0.2c0-0.1,0-0.2-0.1-0.2c0,0,0,0,0,0c0,0,0-0.1,0-0.1l-12-38.9
			c-0.1-0.3-0.4-0.5-0.7-0.5h-22c-0.4-4.4-4.1-7.9-8.7-7.9s-8.3,3.5-8.7,7.9h-22c-0.3,0-0.6,0.2-0.7,0.5l-12,39c0,0,0,0.1,0,0.1
			c0,0.1,0,0.1,0,0.2c0.2,7,5.8,12.4,12.8,12.4s12.6-5.4,12.8-12.4c0-0.1,0-0.1,0-0.2c0,0,0-0.1,0-0.1L13.8,32.6h21
			c0.3,3.6,2.8,6.5,6,7.5v80.7H7.9c-4.4,0-7.9,3.6-7.9,7.9c0,0.4,0.3,0.8,0.8,0.8h85.3c0,0,0,0,0,0c0.4,0,0.8-0.3,0.8-0.8
			c0-0.1,0-0.1,0-0.2C86.7,124.3,83.2,120.8,78.9,120.8z M74.1,81.8c-5.9,0-10.7-4.4-11.2-10.2h22.4C84.7,77.3,80,81.8,74.1,81.8z
			 M85.1,70.1h-22l11-35.7L85.1,70.1z M12.8,81.8c-5.9,0-10.7-4.4-11.2-10.2H24C23.4,77.3,18.6,81.8,12.8,81.8z M23.8,70.1h-22
			l11-35.7L23.8,70.1z M36.2,31.8c0-4,3.2-7.2,7.2-7.2s7.2,3.2,7.2,7.2c0,4-3.2,7.2-7.2,7.2S36.2,35.8,36.2,31.8z M42.3,40.4
			c0.4,0,0.7,0.1,1.1,0.1c0.4,0,0.7,0,1.1-0.1v80.4h-2.2V40.4z M1.5,128c0.4-3.2,3.1-5.7,6.4-5.7h71c3.3,0,6,2.5,6.4,5.7H1.5z"/>
	</g>
</g>
</svg>
