<?xml version="1.0" encoding="utf-8"?>
<!-- Generator: Adobe Illustrator 18.0.0, SVG Export Plug-In . SVG Version: 6.00 Build 0)  -->
<!DOCTYPE svg PUBLIC "-//W3C//DTD SVG 1.1//EN" "http://www.w3.org/Graphics/SVG/1.1/DTD/svg11.dtd">
<svg version="1.1" id="Layer_1" xmlns="http://www.w3.org/2000/svg" xmlns:xlink="http://www.w3.org/1999/xlink" x="0px" y="0px"
	 viewBox="0 0 129.5 129.5" enable-background="new 0 0 129.5 129.5" xml:space="preserve">
<g>
	<g>
		<g>
			<g>
				<path fill="#231F20" d="M13,24.8c-0.2,0-0.4-0.1-0.5-0.2c-0.3-0.3-0.3-0.8,0-1.1l1.3-1.3c0.3-0.3,0.8-0.3,1.1,0
					c0.3,0.3,0.3,0.8,0,1.1l-1.3,1.3C13.3,24.7,13.2,24.8,13,24.8z"/>
			</g>
			<g>
				<path fill="#231F20" d="M8.8,28.9c-0.2,0-0.4-0.1-0.5-0.2c-0.3-0.3-0.3-0.8,0-1.1l1.3-1.3c0.3-0.3,0.8-0.3,1.1,0
					c0.3,0.3,0.3,0.8,0,1.1l-1.3,1.3C9.2,28.9,9,28.9,8.8,28.9z"/>
			</g>
			<g>
				<path fill="#231F20" d="M14.3,28.9c-0.2,0-0.4-0.1-0.5-0.2l-1.3-1.3c-0.3-0.3-0.3-0.8,0-1.1c0.3-0.3,0.8-0.3,1.1,0l1.3,1.3
					c0.3,0.3,0.3,0.8,0,1.1C14.7,28.9,14.5,28.9,14.3,28.9z"/>
			</g>
			<g>
				<path fill="#231F20" d="M10.1,24.8c-0.2,0-0.4-0.1-0.5-0.2l-1.3-1.3c-0.3-0.3-0.3-0.8,0-1.1c0.3-0.3,0.8-0.3,1.1,0l1.3,1.3
					c0.3,0.3,0.3,0.8,0,1.1C10.5,24.7,10.3,24.8,10.1,24.8z"/>
			</g>
		</g>
		<g>
			<g>
				<path fill="#231F20" d="M16.8,106.7c-0.2,0-0.4-0.1-0.5-0.2c-0.3-0.3-0.3-0.8,0-1.1l1.3-1.3c0.3-0.3,0.8-0.3,1.1,0
					c0.3,0.3,0.3,0.8,0,1.1l-1.3,1.3C17.2,106.6,17,106.7,16.8,106.7z"/>
			</g>
			<g>
				<path fill="#231F20" d="M12.7,110.9c-0.2,0-0.4-0.1-0.5-0.2c-0.3-0.3-0.3-0.8,0-1.1l1.3-1.3c0.3-0.3,0.8-0.3,1.1,0
					c0.3,0.3,0.3,0.8,0,1.1l-1.3,1.3C13.1,110.8,12.9,110.9,12.7,110.9z"/>
			</g>
			<g>
				<path fill="#231F20" d="M18.2,110.9c-0.2,0-0.4-0.1-0.5-0.2l-1.3-1.3c-0.3-0.3-0.3-0.8,0-1.1c0.3-0.3,0.8-0.3,1.1,0l1.3,1.3
					c0.3,0.3,0.3,0.8,0,1.1C18.5,110.8,18.4,110.9,18.2,110.9z"/>
			</g>
			<g>
				<path fill="#231F20" d="M14,106.7c-0.2,0-0.4-0.1-0.5-0.2l-1.3-1.3c-0.3-0.3-0.3-0.8,0-1.1c0.3-0.3,0.8-0.3,1.1,0l1.3,1.3
					c0.3,0.3,0.3,0.8,0,1.1C14.4,106.6,14.2,106.7,14,106.7z"/>
			</g>
		</g>
		<g>
			<g>
				<path fill="#231F20" d="M127.4,63.3c-0.2,0-0.4-0.1-0.5-0.2c-0.3-0.3-0.3-0.8,0-1.1l1.3-1.3c0.3-0.3,0.8-0.3,1.1,0
					c0.3,0.3,0.3,0.8,0,1.1L128,63C127.8,63.2,127.6,63.3,127.4,63.3z"/>
			</g>
			<g>
				<path fill="#231F20" d="M123.3,67.4c-0.2,0-0.4-0.1-0.5-0.2c-0.3-0.3-0.3-0.8,0-1.1l1.3-1.3c0.3-0.3,0.8-0.3,1.1,0
					c0.3,0.3,0.3,0.8,0,1.1l-1.3,1.3C123.7,67.3,123.5,67.4,123.3,67.4z"/>
			</g>
			<g>
				<path fill="#231F20" d="M128.7,67.4c-0.2,0-0.4-0.1-0.5-0.2l-1.3-1.3c-0.3-0.3-0.3-0.8,0-1.1c0.3-0.3,0.8-0.3,1.1,0l1.3,1.3
					c0.3,0.3,0.3,0.8,0,1.1C129.1,67.3,128.9,67.4,128.7,67.4z"/>
			</g>
			<g>
				<path fill="#231F20" d="M124.6,63.3c-0.2,0-0.4-0.1-0.5-0.2l-1.3-1.3c-0.3-0.3-0.3-0.8,0-1.1c0.3-0.3,0.8-0.3,1.1,0l1.3,1.3
					c0.3,0.3,0.3,0.8,0,1.1C125,63.2,124.8,63.3,124.6,63.3z"/>
			</g>
		</g>
		<g>
			<circle fill="#84DBFF" cx="64.2" cy="63.7" r="45.5"/>
		</g>
		<path fill="#231F20" d="M64.2,14.2c-27.3,0-49.5,22.2-49.5,49.5c0,27.3,22.2,49.5,49.5,49.5c27.3,0,49.5-22.2,49.5-49.5
			C113.7,36.4,91.5,14.2,64.2,14.2z M112.2,63h-11.9c-0.2-14.4-4.8-27.3-12.1-36.2c1.3-0.7,2.5-1.5,3.7-2.3
			C104,33.1,112,47.1,112.2,63z M90.6,23.6c-1.1,0.7-2.2,1.4-3.3,2c-3-3.4-6.5-6.2-10.2-8.2C81.9,18.8,86.5,20.9,90.6,23.6z
			 M85.9,26.4c-2.8,1.4-5.8,2.6-8.8,3.4c-2.1-6.3-4.8-11-7.9-13.5C75.5,17.5,81.2,21.1,85.9,26.4z M64.9,15.8
			c4.1,0.6,7.9,6,10.6,14.4c-3.5,0.8-7,1.3-10.6,1.4V15.8z M63.4,15.8v15.7c-3.6-0.1-7.2-0.5-10.6-1.4
			C55.6,21.8,59.3,16.4,63.4,15.8z M51.3,29.8c-3-0.8-6-2-8.8-3.4c4.7-5.3,10.4-8.9,16.7-10.1C56.1,18.7,53.4,23.5,51.3,29.8z
			 M51.3,17.5c-3.7,2-7.2,4.7-10.2,8.2c-1.1-0.6-2.3-1.3-3.3-2C41.9,20.9,46.5,18.8,51.3,17.5z M36.5,24.5c1.2,0.8,2.4,1.6,3.7,2.3
			C32.9,35.7,28.2,48.6,28.1,63H16.2C16.4,47.1,24.4,33.1,36.5,24.5z M16.2,64.5h11.9c0.2,14.4,4.8,27.3,12.1,36.2
			c-1.3,0.7-2.5,1.5-3.7,2.3C24.4,94.4,16.4,80.3,16.2,64.5z M37.8,103.8c1.1-0.7,2.2-1.4,3.4-2c3,3.4,6.5,6.2,10.2,8.2
			C46.5,108.7,41.9,106.6,37.8,103.8z M42.5,101.1c2.8-1.4,5.8-2.6,8.8-3.4c2.1,6.3,4.8,11.1,7.9,13.6
			C52.9,110,47.2,106.4,42.5,101.1z M63.4,111.7c-4.1-0.6-7.9-6-10.6-14.4c3.5-0.8,7-1.3,10.6-1.4V111.7z M63.4,90v4.5
			c-3.8,0.1-7.5,0.5-11.1,1.4c-0.9-3-1.7-6.4-2.4-10c-0.6-0.4-1.2-0.8-1.8-1.3c0.7,4.3,1.6,8.2,2.6,11.7c-3.2,0.9-6.4,2.1-9.3,3.7
			c-7.2-8.7-11.7-21.3-11.9-35.5h8.3c0-0.3,0-0.5,0-0.8s0-0.5,0-0.8h-8.3c0.2-14.1,4.7-26.8,11.9-35.5c3,1.5,6.1,2.8,9.3,3.7
			c-1.1,3.5-2,7.4-2.6,11.7c0.6-0.5,1.2-0.9,1.8-1.3c0.7-3.6,1.5-7,2.4-10C56,32.5,59.7,33,63.4,33v4.5c0.3,0,0.5,0,0.8,0
			c0.3,0,0.5,0,0.8,0V33c3.8-0.1,7.5-0.5,11.1-1.4c0.9,3,1.7,6.4,2.4,10c0.6,0.4,1.2,0.8,1.8,1.3c-0.7-4.3-1.6-8.2-2.6-11.7
			c3.2-0.9,6.4-2.1,9.3-3.7c7.2,8.7,11.8,21.3,11.9,35.5h-8.3c0,0.3,0,0.5,0,0.8s0,0.5,0,0.8h8.3c-0.2,14.1-4.7,26.8-11.9,35.5
			c-3-1.6-6.1-2.8-9.3-3.7c1.1-3.5,2-7.4,2.6-11.7c-0.6,0.5-1.2,0.9-1.8,1.3c-0.6,3.6-1.4,7-2.4,10c-3.6-0.9-7.3-1.4-11.1-1.4V90
			c-0.3,0-0.5,0-0.8,0C63.9,90,63.7,90,63.4,90z M64.9,96c3.6,0.1,7.2,0.5,10.6,1.4c-2.8,8.4-6.5,13.8-10.6,14.4V96z M77.1,97.7
			c3,0.9,6,2,8.8,3.4c-4.7,5.3-10.4,8.9-16.7,10.1C72.3,108.7,75,104,77.1,97.7z M77,110c3.7-2,7.2-4.7,10.2-8.2
			c1.1,0.6,2.3,1.3,3.4,2C86.5,106.6,81.9,108.7,77,110z M91.9,102.9c-1.2-0.8-2.4-1.6-3.7-2.3c7.3-8.9,11.9-21.8,12.1-36.2h11.9
			C112,80.3,104,94.3,91.9,102.9z"/>
		<g>
			<g>
				<g>
					<path fill="#231F20" d="M119,56.9l-1.3-0.7c10.5-20.8,11.2-38.7,2-47.9l1.1-1.1C130.4,17,129.8,35.5,119,56.9z"/>
				</g>
				<g>
					<path fill="#231F20" d="M66.6,13l-0.7-1.3l0.9-0.5l0.7,1.3L66.6,13z M69.2,11.6l-0.7-1.3l0.9-0.5l0.7,1.3L69.2,11.6z
						 M71.8,10.2l-0.7-1.3l0.9-0.4l0.7,1.3L71.8,10.2z M74.5,8.9l-0.6-1.4l0.9-0.4l0.6,1.4L74.5,8.9z M119.6,8.3
						c-0.2-0.2-0.4-0.4-0.5-0.5l1-1.1c0.2,0.2,0.4,0.4,0.6,0.6L119.6,8.3z M77.2,7.7l-0.6-1.4l0.9-0.4l0.6,1.4L77.2,7.7z M80,6.5
						l-0.5-1.4c0.3-0.1,0.6-0.2,0.9-0.4l0.5,1.4C80.6,6.3,80.3,6.4,80,6.5z M117.6,6.5c-0.3-0.2-0.5-0.4-0.8-0.6l0.8-1.2
						c0.3,0.2,0.6,0.4,0.8,0.6L117.6,6.5z M82.8,5.5l-0.5-1.4c0.3-0.1,0.6-0.2,1-0.3l0.5,1.4C83.4,5.3,83.1,5.4,82.8,5.5z M115.2,5
						c-0.3-0.2-0.6-0.3-0.9-0.4l0.7-1.3c0.3,0.2,0.6,0.3,0.9,0.5L115.2,5z M85.6,4.6l-0.4-1.4c0.3-0.1,0.6-0.2,1-0.3l0.4,1.4
						C86.2,4.4,85.9,4.5,85.6,4.6z M88.4,3.7l-0.4-1.5c0.3-0.1,0.7-0.2,1-0.3l0.4,1.5C89.1,3.6,88.8,3.7,88.4,3.7z M112.6,3.7
						c-0.3-0.1-0.6-0.2-0.9-0.3l0.5-1.4c0.3,0.1,0.6,0.2,1,0.4L112.6,3.7z M91.3,3L91,1.6c0.3-0.1,0.7-0.1,1-0.2l0.3,1.5
						C92,2.9,91.6,3,91.3,3z M109.8,2.8c-0.3-0.1-0.6-0.2-0.9-0.2l0.3-1.5c0.3,0.1,0.7,0.2,1,0.2L109.8,2.8z M94.2,2.5L94,1
						c0.3-0.1,0.7-0.1,1-0.2l0.2,1.5C94.9,2.4,94.6,2.4,94.2,2.5z M106.9,2.2c-0.3,0-0.6-0.1-1-0.1l0.2-1.5c0.3,0,0.7,0.1,1,0.1
						L106.9,2.2z M97.2,2.1L97,0.6c0.3,0,0.7-0.1,1-0.1L98.1,2C97.8,2,97.5,2.1,97.2,2.1z M104,1.9c-0.3,0-0.6,0-1,0l0.1-1.5
						c0.3,0,0.7,0,1,0L104,1.9z M100.1,1.9L100,0.4c0.3,0,0.7,0,1,0l0,1.5C100.8,1.9,100.4,1.9,100.1,1.9z"/>
				</g>
			</g>
			<path fill="#231F20" d="M7.7,120.2c-0.2-0.2-0.5-0.5-0.7-0.8l1.1-1c0.2,0.2,0.4,0.5,0.7,0.7L7.7,120.2z M5.7,117.9
				c-0.2-0.3-0.4-0.6-0.6-0.8l1.2-0.8c0.2,0.3,0.4,0.5,0.6,0.8L5.7,117.9z M4,115.3c-0.2-0.3-0.3-0.6-0.5-0.9l1.3-0.7
				c0.1,0.3,0.3,0.6,0.4,0.9L4,115.3z M2.7,112.5c-0.1-0.3-0.2-0.6-0.3-1l1.4-0.5c0.1,0.3,0.2,0.6,0.3,0.9L2.7,112.5z M1.8,109.5
				c-0.1-0.3-0.2-0.7-0.2-1l1.5-0.3c0.1,0.3,0.1,0.6,0.2,0.9L1.8,109.5z M1.2,106.5c0-0.3-0.1-0.7-0.1-1l1.5-0.2
				c0,0.3,0.1,0.6,0.1,1L1.2,106.5z M0.9,103.4c0-0.3,0-0.7,0-1l1.5,0c0,0.3,0,0.7,0,1L0.9,103.4z M2.3,100.4l-1.5,0
				c0-0.3,0-0.7,0-1l1.5,0.1C2.3,99.8,2.3,100.1,2.3,100.4z M2.5,97.5L1,97.3c0-0.3,0.1-0.7,0.1-1l1.5,0.2
				C2.5,96.8,2.5,97.2,2.5,97.5z M2.8,94.5l-1.5-0.2c0-0.3,0.1-0.7,0.2-1L3,93.6C2.9,93.9,2.9,94.2,2.8,94.5z M3.3,91.6l-1.5-0.3
				c0.1-0.3,0.1-0.7,0.2-1l1.5,0.3C3.5,91,3.4,91.3,3.3,91.6z M4,88.7l-1.5-0.4c0.1-0.3,0.2-0.7,0.3-1l1.4,0.4
				C4.2,88.1,4.1,88.4,4,88.7z M4.8,85.9l-1.4-0.4c0.1-0.3,0.2-0.6,0.3-1l1.4,0.5C5,85.2,4.9,85.6,4.8,85.9z M5.7,83l-1.4-0.5
				c0.1-0.3,0.2-0.6,0.3-1L6,82.1C5.9,82.4,5.8,82.7,5.7,83z M6.7,80.3l-1.4-0.5c0.1-0.3,0.2-0.6,0.4-0.9l1.4,0.6
				C7,79.6,6.8,79.9,6.7,80.3z M7.8,77.5l-1.4-0.6c0.1-0.3,0.3-0.6,0.4-0.9l1.4,0.6C8.1,76.9,8,77.2,7.8,77.5z M9,74.8l-1.4-0.6
				l0.4-0.9l1.4,0.6L9,74.8z M10.3,72.1L9,71.4l0.4-0.9l1.3,0.7L10.3,72.1z M11.7,69.4l-1.3-0.7l0.5-0.9l1.3,0.7L11.7,69.4z"/>
			<polygon fill="#FFFFFF" points="46.5,128 52.7,118.8 36.4,118.8 			"/>
			<path fill="#231F20" d="M54.1,118l-19.6,0l6,5.5c-13.9,3.8-25.1,2.3-31.7-4.4l-1.1,1.1c4.6,4.6,11.1,6.9,19,6.9
				c4.6,0,9.7-0.8,15.1-2.4l4.8,4.4L54.1,118z M38.4,119.6l12.9,0l-4.9,7.3L38.4,119.6z"/>
			<g>
				<g>
					<path fill="#231F20" d="M55.9,11.1C35.1,0.6,17.2-0.1,7.9,9.1L6.9,8c9.7-9.7,28.3-9.1,49.7,1.7L55.9,11.1z"/>
				</g>
				<g>
					<path fill="#231F20" d="M11.4,62.9L10.9,62l1.3-0.7l0.5,0.9L11.4,62.9z M9.9,60.3l-0.5-0.9l1.3-0.7l0.5,0.9L9.9,60.3z
						 M8.5,57.6l-0.4-0.9L9.4,56l0.4,0.9L8.5,57.6z M7.2,54.9L6.8,54l1.4-0.6l0.4,0.9L7.2,54.9z M5.9,52.1c-0.1-0.3-0.3-0.6-0.4-0.9
						l1.4-0.6c0.1,0.3,0.3,0.6,0.4,0.9L5.9,52.1z M4.8,49.3l-0.4-0.9l1.4-0.5l0.4,0.9L4.8,49.3z M3.7,46.5c-0.1-0.3-0.2-0.6-0.3-1
						L4.8,45C4.9,45.4,5,45.7,5.1,46L3.7,46.5z M2.8,43.6c-0.1-0.3-0.2-0.6-0.3-1l1.4-0.4c0.1,0.3,0.2,0.6,0.3,0.9L2.8,43.6z
						 M1.9,40.7c-0.1-0.3-0.2-0.7-0.3-1l1.5-0.4c0.1,0.3,0.2,0.6,0.2,1L1.9,40.7z M1.2,37.7c-0.1-0.3-0.1-0.7-0.2-1l1.5-0.3
						c0.1,0.3,0.1,0.6,0.2,1L1.2,37.7z M0.7,34.8c-0.1-0.3-0.1-0.7-0.2-1L2,33.5c0,0.3,0.1,0.6,0.2,1L0.7,34.8z M0.3,31.7
						c0-0.3-0.1-0.7-0.1-1l1.5-0.1c0,0.3,0.1,0.7,0.1,1L0.3,31.7z M0,28.7c0-0.3,0-0.7,0-1l1.5,0c0,0.3,0,0.7,0,1L0,28.7z M1.5,25.7
						L0,25.6c0-0.3,0-0.7,0-1l1.5,0.1C1.5,25,1.5,25.4,1.5,25.7z M1.7,22.8l-1.5-0.2c0-0.3,0.1-0.7,0.1-1l1.5,0.2
						C1.8,22.1,1.8,22.4,1.7,22.8z M2.2,19.9l-1.5-0.3c0.1-0.3,0.2-0.7,0.2-1l1.5,0.4C2.4,19.3,2.3,19.6,2.2,19.9z M3,17.1l-1.4-0.5
						c0.1-0.3,0.2-0.6,0.4-1l1.4,0.5C3.2,16.5,3.1,16.8,3,17.1z M4.1,14.4l-1.3-0.7c0.2-0.3,0.3-0.6,0.5-0.9l1.3,0.7
						C4.4,13.8,4.3,14.1,4.1,14.4z M5.6,11.9l-1.2-0.8c0.2-0.3,0.4-0.6,0.6-0.8l1.2,0.9C6,11.4,5.8,11.6,5.6,11.9z M7.4,9.7l-1.1-1
						C6.5,8.4,6.7,8.2,6.9,8l1.1,1.1C7.7,9.3,7.6,9.5,7.4,9.7z"/>
				</g>
			</g>
			<g>
				<path fill="#231F20" d="M100,127.9c-0.3,0-0.7,0-1,0l0.1-1.5c0.3,0,0.7,0,1,0L100,127.9z M102.1,127.9l0-1.5c0.3,0,0.7,0,1,0
					l0.1,1.5C102.8,127.9,102.4,127.9,102.1,127.9z M97,127.8c-0.3,0-0.7-0.1-1-0.1l0.2-1.5c0.3,0,0.7,0.1,1,0.1L97,127.8z
					 M105.1,127.7l-0.2-1.5c0.3,0,0.6-0.1,1-0.1l0.2,1.5C105.8,127.6,105.5,127.7,105.1,127.7z M94,127.4c-0.3,0-0.7-0.1-1-0.2
					l0.2-1.5c0.3,0.1,0.7,0.1,1,0.2L94,127.4z M108.2,127.2l-0.3-1.5c0.3-0.1,0.6-0.1,0.9-0.2l0.4,1.5
					C108.8,127.1,108.5,127.1,108.2,127.2z M91,126.9c-0.3-0.1-0.7-0.1-1-0.2l0.3-1.5c0.3,0.1,0.6,0.1,1,0.2L91,126.9z M111.1,126.4
					l-0.5-1.4c0.3-0.1,0.6-0.2,0.9-0.3l0.5,1.4C111.8,126.2,111.5,126.3,111.1,126.4z M88,126.2c-0.3-0.1-0.7-0.2-1-0.3l0.4-1.4
					c0.3,0.1,0.6,0.2,1,0.2L88,126.2z M85.1,125.4c-0.3-0.1-0.6-0.2-1-0.3l0.4-1.4c0.3,0.1,0.6,0.2,0.9,0.3L85.1,125.4z M114,125.2
					l-0.7-1.4c0.3-0.1,0.6-0.3,0.9-0.4l0.7,1.3C114.6,124.9,114.3,125.1,114,125.2z M82.2,124.5c-0.3-0.1-0.6-0.2-1-0.3l0.5-1.4
					c0.3,0.1,0.6,0.2,0.9,0.3L82.2,124.5z M116.7,123.7l-0.8-1.2c0.3-0.2,0.5-0.4,0.8-0.6l0.9,1.2
					C117.3,123.3,117,123.5,116.7,123.7z M79.4,123.4c-0.3-0.1-0.6-0.2-0.9-0.4l0.6-1.4c0.3,0.1,0.6,0.2,0.9,0.4L79.4,123.4z
					 M76.6,122.3l-0.9-0.4l0.6-1.4l0.9,0.4L76.6,122.3z M119.1,121.8l-1-1.1c0.2-0.2,0.5-0.4,0.7-0.7l1.1,1.1
					C119.6,121.3,119.4,121.5,119.1,121.8z M73.8,121.1c-0.3-0.1-0.6-0.3-0.9-0.4l0.6-1.4c0.3,0.1,0.6,0.3,0.9,0.4L73.8,121.1z
					 M71.1,119.8c-0.3-0.1-0.6-0.3-0.9-0.5l0.7-1.3c0.3,0.1,0.6,0.3,0.9,0.4L71.1,119.8z M68.4,118.4l-0.9-0.5l0.7-1.3l0.9,0.5
					L68.4,118.4z"/>
			</g>
			<polygon fill="#FFFFFF" points="127.6,82.3 118.4,76.1 118.5,92.3 			"/>
			<path fill="#231F20" d="M128.8,82.2l-11.1-7.5l0,19.6l5.5-6c3.8,13.9,2.3,25.1-4.4,31.7l1.1,1.1c7.2-7.2,8.8-19.3,4.5-34.1
				L128.8,82.2z M119.2,77.5l7.3,4.9l-7.3,8L119.2,77.5z"/>
		</g>
		<g>
			<circle fill="#FFFFFF" cx="64.2" cy="63.7" r="26.3"/>
		</g>
		<g>
			<g>
				<path fill="#FFFFFF" d="M74.8,46.2l-4.5-2l-0.2,0.3c-1,1.7-2.9,2.7-4.8,2.5c-0.4,0-0.8,0-1.2,0c-2,0-3.8-1-4.7-2.8l-0.1-0.3
					l-4.6,1.8l0.1,0.3c0.5,1.9-0.2,3.9-1.6,5.2c-0.3,0.3-0.6,0.5-0.8,0.8c-1.4,1.4-3.4,2-5.3,1.3l-0.3-0.1l-2,4.5l0.3,0.2
					c1.7,1,2.7,2.9,2.5,4.8c0,0.4,0,0.8,0,1.2c0,2-1,3.8-2.8,4.7l-0.3,0.1l1.8,4.6l0.3-0.1c1.9-0.5,3.9,0.2,5.2,1.6
					c0.3,0.3,0.5,0.6,0.8,0.8c1.4,1.4,2,3.4,1.3,5.3l-0.1,0.3l4.5,2l0.2-0.3c1-1.7,2.9-2.7,4.8-2.5c0.4,0,0.8,0,1.2,0
					c2,0,3.8,1,4.7,2.8l0.1,0.3l4.6-1.8l-0.1-0.3c-0.5-1.9,0.2-3.9,1.6-5.2c0.3-0.3,0.6-0.5,0.8-0.8c1.4-1.4,3.4-2,5.3-1.3l0.3,0.1
					l2-4.5l-0.3-0.2c-1.7-1-2.7-2.9-2.5-4.8c0-0.4,0-0.8,0-1.2c0-2,1-3.8,2.8-4.7l0.3-0.1l-1.8-4.6L82,54.3
					c-1.9,0.5-3.9-0.2-5.2-1.6c-0.3-0.3-0.5-0.6-0.8-0.8c-1.4-1.4-2-3.4-1.3-5.3L74.8,46.2z"/>
				<path fill="#231F20" d="M69.1,84.3c-0.3,0-0.5-0.2-0.7-0.4l-0.1-0.3c-0.7-1.5-2.3-2.4-4-2.4h-0.1c-0.4,0-0.7,0-1.1,0
					c-1.8-0.1-3.3,0.7-4.1,2.2l-0.2,0.3c-0.2,0.3-0.6,0.5-1,0.3l-4.5-2c-0.4-0.2-0.5-0.6-0.4-0.9l0.1-0.3c0.5-1.6,0.1-3.3-1.1-4.5
					c-0.3-0.3-0.6-0.6-0.8-0.9c-1.1-1.3-2.9-1.9-4.5-1.4L46.3,74c-0.4,0.1-0.8-0.1-0.9-0.5l-1.8-4.6c-0.1-0.4,0-0.8,0.4-0.9l0.3-0.1
					c1.5-0.7,2.4-2.3,2.4-4c0-0.4,0-0.8,0-1.2c0.1-1.7-0.7-3.3-2.2-4.1l-0.3-0.2c-0.3-0.2-0.5-0.6-0.3-1l2-4.5
					c0.2-0.4,0.6-0.5,0.9-0.4l0.3,0.1c1.5,0.5,3.3,0.1,4.5-1.1c0.3-0.3,0.6-0.6,0.9-0.8c1.3-1.2,1.9-2.9,1.4-4.5l-0.1-0.3
					c-0.1-0.4,0.1-0.8,0.5-0.9l4.6-1.8c0.4-0.1,0.8,0,0.9,0.4l0.1,0.3c0.7,1.5,2.3,2.4,4,2.4h0.1c0.4,0,0.7,0,1.1,0
					c1.7,0.1,3.3-0.7,4.1-2.2l0.2-0.3c0.2-0.3,0.6-0.5,1-0.3l4.5,2c0.4,0.2,0.5,0.6,0.4,0.9l-0.1,0.3c-0.5,1.6-0.1,3.3,1.1,4.5
					c0.3,0.3,0.6,0.6,0.8,0.9c1.1,1.3,2.9,1.9,4.5,1.4l0.3-0.1c0.4-0.1,0.8,0.1,0.9,0.5l1.8,4.6c0.1,0.4,0,0.8-0.4,0.9l-0.3,0.1
					c-1.5,0.7-2.4,2.3-2.4,4c0,0.4,0,0.8,0,1.2c-0.1,1.7,0.7,3.3,2.2,4.1l0.3,0.2c0.3,0.2,0.5,0.6,0.3,1l-2,4.5
					c-0.2,0.4-0.6,0.5-0.9,0.4l-0.3-0.1c-1.5-0.5-3.3-0.1-4.5,1.1c-0.3,0.3-0.6,0.6-0.9,0.8c-1.3,1.2-1.9,2.9-1.4,4.5l0.1,0.3
					c0.1,0.4-0.1,0.8-0.5,0.9l-4.6,1.8C69.3,84.3,69.2,84.3,69.1,84.3z M64.3,79.7c2.2,0,4.1,1.1,5.2,2.9l3.3-1.3
					c-0.4-2,0.3-4.2,2-5.6c0.3-0.2,0.5-0.5,0.8-0.8c1.5-1.5,3.7-2.2,5.7-1.6l1.5-3.3C81,69,80,66.9,80.2,64.8c0-0.4,0-0.7,0-1.1
					c0-2.2,1.1-4.2,2.9-5.2l-1.3-3.3c-2,0.4-4.2-0.3-5.6-2c-0.2-0.3-0.5-0.5-0.8-0.8c-1.6-1.5-2.2-3.7-1.6-5.7l-3.3-1.5
					c-1.1,1.7-3.2,2.7-5.3,2.6c-0.3,0-0.7,0-1,0L64.1,47v0.8c-2.2,0-4.1-1.1-5.2-2.9l-3.3,1.3c0.4,2-0.3,4.2-2,5.6
					c-0.3,0.2-0.5,0.5-0.8,0.8c-1.5,1.5-3.7,2.2-5.7,1.6l-1.5,3.3c1.7,1.1,2.7,3.2,2.6,5.3c0,0.4,0,0.7,0,1.1c0,2.2-1.1,4.2-2.9,5.2
					l1.3,3.3c2-0.4,4.2,0.3,5.6,2c0.2,0.3,0.5,0.5,0.8,0.8c1.6,1.5,2.2,3.7,1.6,5.7l3.3,1.5c1.1-1.7,3.2-2.7,5.3-2.6
					c0.3,0,0.7,0,1,0H64.3z"/>
			</g>
			<g>
				<path fill="#231F20" d="M64.8,77.2l-0.1-1.5c0.3,0,0.6,0,0.9-0.1l0.2,1.5C65.5,77.1,65.2,77.2,64.8,77.2z M62.7,77.1
					c-0.3,0-0.7-0.1-1-0.2l0.3-1.5c0.3,0.1,0.6,0.1,0.9,0.1L62.7,77.1z M67.9,76.7l-0.4-1.4c0.3-0.1,0.6-0.2,0.9-0.3l0.5,1.4
					C68.6,76.5,68.3,76.6,67.9,76.7z M59.6,76.4c-0.3-0.1-0.6-0.2-0.9-0.4l0.3-0.7l0.3-0.7c0.3,0.1,0.6,0.3,0.9,0.4L59.6,76.4z
					 M70.9,75.4l-0.7-1.3c0.3-0.2,0.5-0.3,0.8-0.5l0.8,1.2C71.5,75.1,71.2,75.3,70.9,75.4z M56.8,75c-0.3-0.2-0.6-0.4-0.9-0.6
					l0.9-1.2c0.2,0.2,0.5,0.4,0.8,0.5L56.8,75z M73.4,73.6l-1-1.1c0.2-0.2,0.4-0.4,0.7-0.7l1.1,1C73.9,73.1,73.7,73.3,73.4,73.6z
					 M54.4,72.9c-0.2-0.3-0.5-0.5-0.7-0.8l1.2-0.9c0.2,0.2,0.4,0.5,0.6,0.7L54.4,72.9z M75.5,71.1l-1.3-0.8c0.2-0.3,0.3-0.5,0.5-0.8
					l1.3,0.7C75.8,70.5,75.6,70.8,75.5,71.1z M52.5,70.4c-0.2-0.3-0.3-0.6-0.5-0.9l1.4-0.6c0.1,0.3,0.3,0.6,0.4,0.8L52.5,70.4z
					 M76.9,68.3l-1.4-0.5c0.1-0.3,0.2-0.6,0.3-0.9l1.4,0.4C77.1,67.6,77,68,76.9,68.3z M51.3,67.5c-0.1-0.3-0.2-0.7-0.3-1l1.5-0.3
					c0.1,0.3,0.1,0.6,0.2,0.9L51.3,67.5z M77.6,65.2L76.1,65c0-0.3,0.1-0.6,0.1-0.9l1.5,0C77.6,64.5,77.6,64.8,77.6,65.2z
					 M50.7,64.3c0-0.2,0-0.4,0-0.6c0-0.1,0-0.3,0-0.4l1.5,0.1c0,0.1,0,0.3,0,0.4c0,0.2,0,0.4,0,0.5L50.7,64.3z M76.1,62.2
					c0-0.3-0.1-0.6-0.2-0.9l1.5-0.3c0.1,0.3,0.1,0.7,0.2,1L76.1,62.2z M52.4,61.5L51,61.2c0.1-0.3,0.1-0.7,0.2-1l1.4,0.4
					C52.6,60.9,52.5,61.2,52.4,61.5z M75.4,59.5c-0.1-0.3-0.2-0.6-0.4-0.9l1.4-0.6c0.2,0.3,0.3,0.6,0.4,1L75.4,59.5z M53.3,58.8
					l-1.4-0.6c0.1-0.3,0.3-0.6,0.5-0.9l1.3,0.7C53.6,58.2,53.4,58.5,53.3,58.8z M74.1,57c-0.2-0.3-0.4-0.5-0.6-0.8l1.2-0.9
					c0.2,0.3,0.4,0.6,0.6,0.8L74.1,57z M54.8,56.4l-1.2-0.9c0.2-0.3,0.4-0.5,0.7-0.8l1.1,1C55.2,55.9,55,56.1,54.8,56.4z M72.2,54.9
					c-0.2-0.2-0.5-0.4-0.7-0.6l0.9-1.2c0.3,0.2,0.6,0.4,0.8,0.7L72.2,54.9z M56.7,54.4l-0.9-1.2c0.3-0.2,0.6-0.4,0.9-0.6l0.8,1.2
					C57.2,54,57,54.2,56.7,54.4z M69.9,53.2c-0.3-0.1-0.6-0.3-0.8-0.4l0.6-1.4c0.3,0.1,0.6,0.3,0.9,0.5L69.9,53.2z M59.1,52.9
					l-0.6-1.4c0.3-0.1,0.6-0.3,1-0.4l0.5,1.4C59.7,52.6,59.4,52.8,59.1,52.9z M68.3,52.5c-0.3-0.1-0.6-0.2-0.9-0.3l0.4-1.4
					c0.3,0.1,0.7,0.2,1,0.3L68.3,52.5z M61.8,52l-0.3-1.5c0.3-0.1,0.7-0.1,1-0.2l0.2,1.5C62.4,51.9,62.1,51.9,61.8,52z M65.6,51.8
					c-0.3,0-0.6-0.1-0.9-0.1l0.1-1.5c0.4,0,0.7,0,1.1,0.1L65.6,51.8z"/>
			</g>
			<g>
				<circle fill="#FFD05B" cx="64.2" cy="63.7" r="10.1"/>
			</g>
			<g>
				<circle fill="#FFFFFF" cx="64.2" cy="63.7" r="5"/>
				<path fill="#231F20" d="M64.2,69.5c-0.8,0-1.6-0.2-2.4-0.5c-2.9-1.3-4.2-4.7-2.9-7.7c0.9-2.1,3-3.4,5.3-3.4
					c0.8,0,1.6,0.2,2.4,0.5c1.4,0.6,2.5,1.8,3,3.2c0.6,1.4,0.5,3-0.1,4.4C68.5,68.2,66.5,69.5,64.2,69.5z M64.2,59.4
					c-1.7,0-3.2,1-3.9,2.5c-1,2.2,0,4.7,2.2,5.7c0.6,0.3,1.1,0.4,1.8,0.4c1.7,0,3.2-1,3.9-2.5c0.5-1,0.5-2.2,0.1-3.3
					c-0.4-1.1-1.2-1.9-2.3-2.4C65.4,59.6,64.8,59.4,64.2,59.4z"/>
			</g>
		</g>
		<g>
			<circle fill="#E6E9EE" cx="111.8" cy="18.1" r="3.1"/>
		</g>
		<g>
			<circle fill="#FFD05B" cx="13.6" cy="96.8" r="2.3"/>
		</g>
		<g>
			<circle fill="#4CDBC4" cx="21" cy="12.4" r="2.3"/>
		</g>
		<g>
			<circle fill="#FF7058" cx="101.4" cy="114.1" r="1.9"/>
		</g>
	</g>
</g>
</svg>
