<?xml version="1.0" encoding="UTF-8" standalone="no"?>
<!-- Created with Inkscape (http://www.inkscape.org/) -->

<svg
   xmlns:dc="http://purl.org/dc/elements/1.1/"
   xmlns:cc="http://creativecommons.org/ns#"
   xmlns:rdf="http://www.w3.org/1999/02/22-rdf-syntax-ns#"
   xmlns:svg="http://www.w3.org/2000/svg"
   xmlns="http://www.w3.org/2000/svg"
   xmlns:sodipodi="http://sodipodi.sourceforge.net/DTD/sodipodi-0.dtd"
   xmlns:inkscape="http://www.inkscape.org/namespaces/inkscape"
   version="1.1"
   id="svg2"
   xml:space="preserve"
   width="1149"
   height="588"
   viewBox="0 0 1149 588"
   sodipodi:docname="web-development.svg"
   inkscape:version="0.92.3 (2405546, 2018-03-11)"><metadata
     id="metadata8"><rdf:RDF><cc:Work
         rdf:about=""><dc:format>image/svg+xml</dc:format><dc:type
           rdf:resource="http://purl.org/dc/dcmitype/StillImage" /><dc:title></dc:title></cc:Work></rdf:RDF></metadata><defs
     id="defs6" /><sodipodi:namedview
     pagecolor="#ffffff"
     bordercolor="#666666"
     borderopacity="1"
     objecttolerance="10"
     gridtolerance="10"
     guidetolerance="10"
     inkscape:pageopacity="0"
     inkscape:pageshadow="2"
     inkscape:window-width="1920"
     inkscape:window-height="1001"
     id="namedview4"
     showgrid="false"
     inkscape:pagecheckerboard="true"
     inkscape:zoom="0.2085965"
     inkscape:cx="-210.538"
     inkscape:cy="363.40076"
     inkscape:window-x="-9"
     inkscape:window-y="-9"
     inkscape:window-maximized="1"
     inkscape:current-layer="g10" /><g
     id="g10"
     inkscape:groupmode="layer"
     inkscape:label="ink_ext_XXXXXX"
     transform="matrix(1.3333333,0,0,-1.3333333,0,588)"><g
       id="g2531"
       transform="translate(-81.6348,-100.34978)"><path
         d="m 701.101,206.118 10e-4,14.262 -12.677,1.057 c -0.889,4.666 -2.606,9.036 -5,12.951 l 8.468,10.005 -10.084,10.086 -9.708,-8.214 c -3.804,2.586 -8.092,4.506 -12.696,5.615 l -1.09,13.066 h -14.261 l -1.056,-12.675 c -4.666,-0.887 -9.037,-2.603 -12.952,-5 l -10.004,8.468 -10.088,-10.084 8.215,-9.708 c -2.586,-3.802 -4.508,-8.09 -5.615,-12.694 l -13.067,-1.092 -0.002,-14.26 12.678,-1.056 c 0.889,-4.665 2.604,-9.035 5,-12.945 l -8.469,-10.01 10.085,-10.09 9.708,8.22 c 3.803,-2.59 8.088,-4.51 12.696,-5.62 l 1.088,-13.07 h 14.261 l 1.058,12.68 c 4.665,0.89 9.036,2.6 12.95,5 l 10.006,-8.47 10.086,10.09 -8.215,9.7 c 2.586,3.81 4.508,8.096 5.615,12.698 l 13.069,1.09"
         style="fill:#ffe58f;fill-opacity:1;fill-rule:nonzero;stroke:none;stroke-width:0.1"
         id="path98"
         inkscape:connector-curvature="0" /><path
         d="m 565.338,360.831 h -17.196 l 15.65,23.613 h 17.535 v -4 H 565.94 l -10.349,-15.613 h 9.747 v -4"
         style="fill:#1f1e18;fill-opacity:1;fill-rule:nonzero;stroke:none;stroke-width:0.1"
         id="path100"
         inkscape:connector-curvature="0" /><path
         d="m 567.365,340.831 h 22.25 v 39.613 h -22.25 z m 26.25,-4 h -30.25 v 47.613 h 30.25 v -47.613"
         style="fill:#1f1e18;fill-opacity:1;fill-rule:nonzero;stroke:none;stroke-width:0.1"
         id="path102"
         inkscape:connector-curvature="0" /><path
         d="m 593.365,340.831 h 50.25 v 39.613 h -50.25 z m 54.25,-4 h -58.25 v 47.613 h 58.25 v -47.613"
         style="fill:#1f1e18;fill-opacity:1;fill-rule:nonzero;stroke:none;stroke-width:0.1"
         id="path104"
         inkscape:connector-curvature="0" /><path
         d="m 605.439,364.831 h 49.452 l -10.35,15.613 H 595.09 Z m 56.901,-4 h -59.049 l -15.65,23.613 h 59.048 l 15.651,-23.613"
         style="fill:#1f1e18;fill-opacity:1;fill-rule:nonzero;stroke:none;stroke-width:0.1"
         id="path106"
         inkscape:connector-curvature="0" /><path
         d="m 608.655,346.279 h -9.5 v 4 h 9.5 v -4"
         style="fill:#1f1e18;fill-opacity:1;fill-rule:nonzero;stroke:none;stroke-width:0.1"
         id="path108"
         inkscape:connector-curvature="0" /><path
         d="m 905.925,332.033 h -4 c 0,2.818 2.339,4.087 4.046,5.013 0.871,0.472 1.954,1.06 1.954,1.497 0,0.437 -1.083,1.025 -1.953,1.497 -1.708,0.926 -4.047,2.195 -4.047,5.014 0,2.818 2.339,4.087 4.046,5.013 0.916,0.497 1.954,1.061 1.954,1.498 0,0.437 -1.083,1.024 -1.953,1.496 -1.708,0.927 -4.047,2.195 -4.047,5.013 0,2.819 2.339,4.088 4.046,5.015 0.916,0.497 1.954,1.06 1.954,1.499 0,0.439 -1.038,1.004 -1.954,1.501 -1.708,0.928 -4.046,2.198 -4.046,5.017 0,2.82 2.338,4.09 4.046,5.018 0.916,0.497 1.954,1.062 1.954,1.501 h 4 c 0,-2.819 -2.338,-4.089 -4.045,-5.016 -0.916,-0.498 -1.955,-1.062 -1.955,-1.503 0,-0.44 1.039,-1.004 1.955,-1.502 1.707,-0.927 4.045,-2.197 4.045,-5.016 0,-2.818 -2.339,-4.088 -4.046,-5.015 -0.916,-0.497 -1.954,-1.06 -1.954,-1.499 0,-0.437 1.083,-1.025 1.954,-1.497 1.707,-0.926 4.046,-2.194 4.046,-5.012 0,-2.818 -2.339,-4.086 -4.046,-5.013 -0.916,-0.497 -1.954,-1.061 -1.954,-1.498 0,-0.438 1.038,-1.001 1.954,-1.498 1.707,-0.927 4.046,-2.196 4.046,-5.013 0,-2.818 -2.339,-4.086 -4.046,-5.013 -0.871,-0.472 -1.954,-1.06 -1.954,-1.497"
         style="fill:#1f1e18;fill-opacity:1;fill-rule:nonzero;stroke:none;stroke-width:0.1"
         id="path110"
         inkscape:connector-curvature="0" /><path
         d="m 875.925,192.03 h -4 c 0,2.82 2.339,4.09 4.046,5.02 0.871,0.47 1.954,1.06 1.954,1.49 0,0.44 -1.083,1.03 -1.953,1.5 -1.708,0.926 -4.047,2.195 -4.047,5.014 0,2.818 2.339,4.087 4.046,5.013 0.916,0.497 1.954,1.061 1.954,1.498 0,0.437 -1.083,1.024 -1.953,1.496 -1.708,0.927 -4.047,2.195 -4.047,5.013 0,2.819 2.339,4.088 4.046,5.015 0.916,0.497 1.954,1.06 1.954,1.499 0,0.439 -1.038,1.004 -1.954,1.501 -1.708,0.928 -4.046,2.198 -4.046,5.017 0,2.82 2.338,4.09 4.046,5.018 0.916,0.497 1.954,1.062 1.954,1.501 h 4 c 0,-2.819 -2.338,-4.089 -4.045,-5.016 -0.916,-0.498 -1.955,-1.062 -1.955,-1.503 0,-0.44 1.039,-1.004 1.955,-1.502 1.707,-0.927 4.045,-2.197 4.045,-5.016 0,-2.818 -2.339,-4.088 -4.046,-5.015 -0.916,-0.497 -1.954,-1.06 -1.954,-1.499 0,-0.437 1.083,-1.025 1.954,-1.497 1.707,-0.926 4.046,-2.194 4.046,-5.012 0,-2.818 -2.339,-4.086 -4.046,-5.013 -0.916,-0.497 -1.954,-1.061 -1.954,-1.498 0,-0.438 1.038,-1.001 1.954,-1.498 1.707,-0.927 4.046,-2.196 4.046,-5.016 0,-2.81 -2.339,-4.08 -4.046,-5.01 -0.871,-0.47 -1.954,-1.06 -1.954,-1.5"
         style="fill:#1f1e18;fill-opacity:1;fill-rule:nonzero;stroke:none;stroke-width:0.1"
         id="path112"
         inkscape:connector-curvature="0" /><path
         d="m 262.14,146.4 -9.762,-5.64 -9.762,-5.63 v 22.54 l 9.762,-5.63 9.762,-5.64"
         style="fill:#ffe58f;fill-opacity:1;fill-rule:nonzero;stroke:none;stroke-width:0.1"
         id="path114"
         inkscape:connector-curvature="0" /><path
         d="m 193.367,160.14 h -13.116 v 13.11 h 13.116 v -13.11"
         style="fill:#ffe58f;fill-opacity:1;fill-rule:nonzero;stroke:none;stroke-width:0.1"
         id="path116"
         inkscape:connector-curvature="0" /><path
         d="m 216.367,166.21 h -4 v 4 h 4 v -4"
         style="fill:#1f1e18;fill-opacity:1;fill-rule:nonzero;stroke:none;stroke-width:0.1"
         id="path118"
         inkscape:connector-curvature="0" /><path
         d="m 198.319,166.21 h -4.683 v 4 h 4.683 z m 9.366,0 h -4.683 v 4 h 4.683 v -4"
         style="fill:#1f1e18;fill-opacity:1;fill-rule:nonzero;stroke:none;stroke-width:0.1"
         id="path120"
         inkscape:connector-curvature="0" /><path
         d="m 188.953,166.21 h -4 v 4 h 4 v -4"
         style="fill:#1f1e18;fill-opacity:1;fill-rule:nonzero;stroke:none;stroke-width:0.1"
         id="path122"
         inkscape:connector-curvature="0" /><path
         d="m 188.953,184.26 h -4 v 4.68 h 4 z m 0,-9.37 h -4 v 4.69 h 4 v -4.69"
         style="fill:#1f1e18;fill-opacity:1;fill-rule:nonzero;stroke:none;stroke-width:0.1"
         id="path124"
         inkscape:connector-curvature="0" /><path
         d="m 188.953,193.62 h -4 v 4 h 4 v -4"
         style="fill:#1f1e18;fill-opacity:1;fill-rule:nonzero;stroke:none;stroke-width:0.1"
         id="path126"
         inkscape:connector-curvature="0" /><path
         d="m 198.318,193.62 h -4.682 v 4 h 4.682 z m 9.367,0 h -4.684 v 4 h 4.684 v -4"
         style="fill:#1f1e18;fill-opacity:1;fill-rule:nonzero;stroke:none;stroke-width:0.1"
         id="path128"
         inkscape:connector-curvature="0" /><path
         d="m 216.367,193.62 h -4 v 4 h 4 v -4"
         style="fill:#1f1e18;fill-opacity:1;fill-rule:nonzero;stroke:none;stroke-width:0.1"
         id="path130"
         inkscape:connector-curvature="0" /><path
         d="m 216.367,184.26 h -4 v 4.68 h 4 z m 0,-9.37 h -4 v 4.69 h 4 v -4.69"
         style="fill:#1f1e18;fill-opacity:1;fill-rule:nonzero;stroke:none;stroke-width:0.1"
         id="path132"
         inkscape:connector-curvature="0" /><path
         d="m 308.117,191.21 c 0,-2.07 -1.679,-3.75 -3.75,-3.75 -2.071,0 -3.75,1.68 -3.75,3.75 0,2.07 1.679,3.75 3.75,3.75 2.071,0 3.75,-1.68 3.75,-3.75"
         style="fill:#ffe58f;fill-opacity:1;fill-rule:nonzero;stroke:none;stroke-width:0.1"
         id="path134"
         inkscape:connector-curvature="0" /><path
         d="m 696.142,129.43 -0.12,5.46 4.233,9.39 c 0.055,0.1 0.071,0.22 0.063,0.33 l -0.766,9.07 8.033,7.02 7.609,-15.81 z m 47.571,61.25 -6.232,-8.28 -9.218,-2.24 -0.67,12.25 c 8.881,0.3 14.151,-1.07 16.12,-1.73 z m 36.076,-52.03 -12.001,-9.64 -0.747,9.6 -7.895,-1.21 -1.069,8.85 -5.391,-2.69 -1.599,1.21 -4.783,4.61 -1.364,-6.12 3.663,-3.55 -15.387,-14.38 -4.261,-0.56 -0.185,7.93 2.812,11.92 -5.644,2.75 -0.669,5.17 6.921,7.01 5.266,-1.04 2.171,-3.17 7.776,-1.47 -5.994,7.45 -6.031,3.9 0.478,2 7.756,0.68 -0.959,5.03 8.743,2.65 5.79,-5.22 12.708,-1.63 c 0,0 5.285,0.28 11.322,0.56 -4.792,10.28 -13.169,18.94 -24.341,23.86 -11.067,4.88 -22.994,5.25 -33.733,1.95 l -3.106,-2.15 -7.811,-5.72 c -0.214,-0.16 -0.316,-0.41 -0.273,-0.67 l 1.047,-6.08 c 0.043,-0.25 0.279,-0.5 0.457,-0.57 0.241,-0.1 0.516,-0.08 0.721,0.06 l 4.414,2.93 2.633,-8.42 -14.079,-4.16 -6.04,2.03 c -0.282,0.1 -0.584,0.03 -0.784,-0.17 l -2.725,-2.82 c -0.167,-0.17 -0.225,-0.42 -0.161,-0.66 l 1.828,-6.39 -5.065,5.48 -0.587,1.87 c -0.208,-0.44 -0.425,-0.87 -0.623,-1.32 -10.772,-24.45 0.362,-53.11 24.812,-63.88 24.455,-10.7702 53.113,0.36 63.886,24.81 1.948,4.42 3.17,8.98 3.737,13.56 l -5.634,-4.18"
         style="fill:#ffe58f;fill-opacity:1;fill-rule:nonzero;stroke:none;stroke-width:0.1"
         id="path136"
         inkscape:connector-curvature="0" /><path
         d="m 811.933,438.69 c -3.744,-4.23 -5.832,-9.673 -5.832,-15.425 0,-4.02 1.031,-7.947 2.992,-11.429 1.623,0.068 3.336,0.128 5.175,0.184 z m -5.018,-30.953 -0.62,0.984 c -2.744,4.356 -4.194,9.385 -4.194,14.544 0,8.311 3.72,16.072 10.209,21.292 l 2.919,2.349 3.394,-38.767 -2.124,-0.057 c -3.126,-0.084 -5.881,-0.18 -8.423,-0.293 l -1.161,-0.052"
         style="fill:#1f1e18;fill-opacity:1;fill-rule:nonzero;stroke:none;stroke-width:0.1"
         id="path138"
         inkscape:connector-curvature="0" /><path
         d="m 844.628,412.052 c 2.119,-0.061 4.19,-0.133 6.191,-0.216 1.962,3.48 2.994,7.408 2.995,11.429 -10e-4,6.168 -2.479,12.078 -6.767,16.415 z m 8.369,-4.314 -1.161,0.051 c -2.994,0.132 -6.169,0.24 -9.435,0.32 l -2.129,0.052 3.438,39.276 2.862,-2.088 c 7.038,-5.134 11.241,-13.39 11.242,-22.084 -10e-4,-5.161 -1.452,-10.19 -4.198,-14.544 l -0.619,-0.983"
         style="fill:#1f1e18;fill-opacity:1;fill-rule:nonzero;stroke:none;stroke-width:0.1"
         id="path140"
         inkscape:connector-curvature="0" /><path
         d="m 817.894,422.298 h 23.062 l 2.998,34.229 c 1.103,12.595 -4.441,24.904 -14.529,32.463 -10.089,-7.561 -15.632,-19.869 -14.529,-32.463 z m 26.726,-4 h -30.391 l -3.318,37.88 c -1.269,14.488 5.389,28.635 17.376,36.921 l 1.138,0.786 1.137,-0.785 c 11.987,-8.285 18.645,-22.433 17.376,-36.922 l -3.318,-37.88"
         style="fill:#1f1e18;fill-opacity:1;fill-rule:nonzero;stroke:none;stroke-width:0.1"
         id="path142"
         inkscape:connector-curvature="0" /><path
         d="m 829.425,409.172 c -2.294,0 -4.16,-1.866 -4.16,-4.159 0,-1.678 2.394,-6.809 4.133,-10.203 2.087,4.032 4.187,8.655 4.187,10.201 0,2.294 -1.866,4.161 -4.16,4.161 z m -0.002,-20.536 c -1.241,0 -1.536,0 -4.928,7.059 -3.23,6.725 -3.23,8.677 -3.23,9.318 0,4.499 3.66,8.159 8.16,8.159 4.5,0 8.16,-3.661 8.16,-8.161 0,-3.495 -4.682,-12.223 -6.16,-14.891 v -1.48 l -2.002,-0.004"
         style="fill:#1f1e18;fill-opacity:1;fill-rule:nonzero;stroke:none;stroke-width:0.1"
         id="path144"
         inkscape:connector-curvature="0" /><path
         d="m 829.425,488.99 c -3.134,-2.353 -5.893,-5.225 -8.141,-8.468 5.371,0.647 10.907,0.647 16.282,0 -2.247,3.242 -5.005,6.114 -8.141,8.468 z m -15.834,-13.837 1.977,3.684 c 3.055,5.692 7.453,10.623 12.72,14.263 l 1.137,0.785 1.137,-0.785 c 5.27,-3.642 9.667,-8.574 12.718,-14.262 l 1.975,-3.683 -4.107,0.772 c -7.642,1.437 -15.814,1.435 -23.447,-0.001 l -4.11,-0.773"
         style="fill:#1f1e18;fill-opacity:1;fill-rule:nonzero;stroke:none;stroke-width:0.1"
         id="path146"
         inkscape:connector-curvature="0" /><path
         d="m 838.095,463.646 c 0,-4.789 -3.883,-8.668 -8.67,-8.669 -4.787,-10e-4 -8.67,3.88 -8.67,8.67 0,4.788 3.883,8.668 8.67,8.669 4.787,-10e-4 8.67,-3.881 8.67,-8.67"
         style="fill:#ffe58f;fill-opacity:1;fill-rule:nonzero;stroke:none;stroke-width:0.1"
         id="path148"
         inkscape:connector-curvature="0" /><path
         d="m 814.521,426.511 v 4 l 29.808,10e-4 v -4 l -29.808,-10e-4"
         style="fill:#1f1e18;fill-opacity:1;fill-rule:nonzero;stroke:none;stroke-width:0.1"
         id="path150"
         inkscape:connector-curvature="0" /><path
         d="m 589.793,167.64 c 0,-12.7 -10.298,-23 -23,-23 -12.702,0 -23,10.3 -23,23 0,12.7 10.298,23 23,23 12.702,0 23,-10.3 23,-23"
         style="fill:#ffe58f;fill-opacity:1;fill-rule:nonzero;stroke:none;stroke-width:0.1"
         id="path152"
         inkscape:connector-curvature="0" /><path
         d="m 555.069,156.05 -14.291,11.33 14.291,11.33 2.485,-3.13 -10.338,-8.2 10.338,-8.19 -2.485,-3.14"
         style="fill:#1f1e18;fill-opacity:1;fill-rule:nonzero;stroke:none;stroke-width:0.1"
         id="path154"
         inkscape:connector-curvature="0" /><path
         d="m 578.514,156.05 -2.485,3.14 10.338,8.19 -10.338,8.2 2.485,3.13 14.293,-11.33 -14.293,-11.33"
         style="fill:#1f1e18;fill-opacity:1;fill-rule:nonzero;stroke:none;stroke-width:0.1"
         id="path156"
         inkscape:connector-curvature="0" /><path
         d="m 564.669,151.58 -3.84,1.11 8.879,30.5 3.84,-1.12 -8.879,-30.49"
         style="fill:#1f1e18;fill-opacity:1;fill-rule:nonzero;stroke:none;stroke-width:0.1"
         id="path158"
         inkscape:connector-curvature="0" /><path
         d="m 562.111,128.33 h 7.915 l 0.832,9.99 1.495,0.28 c 3.501,0.67 6.819,1.95 9.857,3.81 l 1.232,0.75 7.834,-6.63 5.597,5.6 -6.47,7.65 0.854,1.26 c 2.002,2.94 3.439,6.19 4.274,9.66 l 0.338,1.4 10.232,0.86 10e-4,7.91 -9.988,0.83 -0.284,1.5 c -0.668,3.5 -1.948,6.82 -3.807,9.86 l -0.753,1.23 6.628,7.83 -5.595,5.6 -7.648,-6.47 -1.256,0.85 c -2.942,2 -6.194,3.44 -9.666,4.28 l -1.404,0.34 -0.853,10.226 h -7.915 l -0.832,-9.986 -1.493,-0.28 c -3.508,-0.67 -6.826,-1.95 -9.859,-3.81 l -1.233,-0.76 -7.833,6.63 -5.598,-5.59 6.47,-7.65 -0.854,-1.25 c -2.002,-2.95 -3.44,-6.2 -4.274,-9.67 l -0.338,-1.41 -10.23,-0.85 -0.002,-7.91 9.989,-0.84 0.284,-1.49 c 0.668,-3.51 1.948,-6.82 3.805,-9.85 l 0.755,-1.24 -6.63,-7.83 5.597,-5.6 7.648,6.47 1.255,-0.85 c 2.95,-2.01 6.202,-3.45 9.666,-4.28 l 1.405,-0.34 z m 11.595,-4 h -15.274 l -0.922,11.05 c -2.921,0.84 -5.697,2.06 -8.286,3.66 l -8.165,-6.91 -10.802,10.8 7.161,8.46 c -1.471,2.66 -2.566,5.49 -3.27,8.45 l -10.663,0.89 0.002,15.27 11.049,0.92 c 0.838,2.93 2.063,5.7 3.654,8.29 l -6.909,8.17 10.805,10.795 8.46,-7.165 c 2.655,1.48 5.485,2.57 8.446,3.276 l 0.889,10.66 h 15.274 l 0.923,-11.046 c 2.925,-0.84 5.701,-2.07 8.285,-3.66 l 8.166,6.912 10.801,-10.802 -7.161,-8.46 c 1.472,-2.66 2.567,-5.49 3.27,-8.45 l 10.663,-0.89 -10e-4,-15.27 -11.052,-0.92 c -0.838,-2.93 -2.062,-5.7 -3.653,-8.29 l 6.909,-8.16 -10.802,-10.81 -8.463,7.17 c -2.657,-1.48 -5.487,-2.57 -8.444,-3.28 l -0.89,-10.66"
         style="fill:#1f1e18;fill-opacity:1;fill-rule:nonzero;stroke:none;stroke-width:0.1"
         id="path160"
         inkscape:connector-curvature="0" /><path
         d="m 569.839,408.059 -14.852,-0.001 14.852,0.001"
         style="fill:#84dbff;fill-opacity:1;fill-rule:nonzero;stroke:none;stroke-width:0.1"
         id="path162"
         inkscape:connector-curvature="0" /><path
         d="m 554.987,406.058 v 4 l 14.852,0.001 v -4 l -14.852,-0.001"
         style="fill:#1f1e18;fill-opacity:1;fill-rule:nonzero;stroke:none;stroke-width:0.1"
         id="path164"
         inkscape:connector-curvature="0" /><path
         d="m 562.413,400.631 v 14.852 -14.852"
         style="fill:#84dbff;fill-opacity:1;fill-rule:nonzero;stroke:none;stroke-width:0.1"
         id="path166"
         inkscape:connector-curvature="0" /><path
         d="m 564.413,400.631 h -4 v 14.852 h 4 v -14.852"
         style="fill:#1f1e18;fill-opacity:1;fill-rule:nonzero;stroke:none;stroke-width:0.1"
         id="path168"
         inkscape:connector-curvature="0" /><path
         d="m 316.839,481.059 -14.853,-0.001 14.853,0.001"
         style="fill:#84dbff;fill-opacity:1;fill-rule:nonzero;stroke:none;stroke-width:0.1"
         id="path170"
         inkscape:connector-curvature="0" /><path
         d="m 301.986,479.058 v 4 l 14.853,0.001 v -4 l -14.853,-0.001"
         style="fill:#1f1e18;fill-opacity:1;fill-rule:nonzero;stroke:none;stroke-width:0.1"
         id="path172"
         inkscape:connector-curvature="0" /><path
         d="m 309.413,473.631 v 14.852 -14.852"
         style="fill:#84dbff;fill-opacity:1;fill-rule:nonzero;stroke:none;stroke-width:0.1"
         id="path174"
         inkscape:connector-curvature="0" /><path
         d="m 311.413,473.631 h -4 v 14.852 h 4 v -14.852"
         style="fill:#1f1e18;fill-opacity:1;fill-rule:nonzero;stroke:none;stroke-width:0.1"
         id="path176"
         inkscape:connector-curvature="0" /><path
         d="m 676.839,458.059 -14.852,-0.001 14.852,0.001"
         style="fill:#84dbff;fill-opacity:1;fill-rule:nonzero;stroke:none;stroke-width:0.1"
         id="path178"
         inkscape:connector-curvature="0" /><path
         d="m 661.987,456.058 v 4 l 14.852,0.001 v -4 l -14.852,-0.001"
         style="fill:#1f1e18;fill-opacity:1;fill-rule:nonzero;stroke:none;stroke-width:0.1"
         id="path180"
         inkscape:connector-curvature="0" /><path
         d="m 669.413,450.631 v 14.852 -14.852"
         style="fill:#84dbff;fill-opacity:1;fill-rule:nonzero;stroke:none;stroke-width:0.1"
         id="path182"
         inkscape:connector-curvature="0" /><path
         d="m 671.413,450.631 h -4 v 14.852 h 4 v -14.852"
         style="fill:#1f1e18;fill-opacity:1;fill-rule:nonzero;stroke:none;stroke-width:0.1"
         id="path184"
         inkscape:connector-curvature="0" /><path
         d="m 656.372,408.56 -26.92,-0.002 26.92,0.002"
         style="fill:#84dbff;fill-opacity:1;fill-rule:nonzero;stroke:none;stroke-width:0.1"
         id="path186"
         inkscape:connector-curvature="0" /><path
         d="m 629.452,406.558 v 4 l 26.92,0.002 v -4 l -26.92,-0.002"
         style="fill:#1f1e18;fill-opacity:1;fill-rule:nonzero;stroke:none;stroke-width:0.1"
         id="path188"
         inkscape:connector-curvature="0" /><path
         d="m 642.914,395.097 -10e-4,26.922 10e-4,-26.922"
         style="fill:#84dbff;fill-opacity:1;fill-rule:nonzero;stroke:none;stroke-width:0.1"
         id="path190"
         inkscape:connector-curvature="0" /><path
         d="m 640.914,395.097 -10e-4,26.922 h 4 l 10e-4,-26.922 h -4"
         style="fill:#1f1e18;fill-opacity:1;fill-rule:nonzero;stroke:none;stroke-width:0.1"
         id="path192"
         inkscape:connector-curvature="0" /><path
         d="m 553.552,458.06 -22.279,-0.002 22.279,0.002"
         style="fill:#84dbff;fill-opacity:1;fill-rule:nonzero;stroke:none;stroke-width:0.1"
         id="path194"
         inkscape:connector-curvature="0" /><path
         d="m 531.273,456.058 v 4 l 22.279,0.002 v -4 l -22.279,-0.002"
         style="fill:#1f1e18;fill-opacity:1;fill-rule:nonzero;stroke:none;stroke-width:0.1"
         id="path196"
         inkscape:connector-curvature="0" /><path
         d="m 542.414,446.918 -10e-4,22.279 10e-4,-22.279"
         style="fill:#84dbff;fill-opacity:1;fill-rule:nonzero;stroke:none;stroke-width:0.1"
         id="path198"
         inkscape:connector-curvature="0" /><path
         d="m 540.414,446.918 -10e-4,22.279 h 4 l 10e-4,-22.279 h -4"
         style="fill:#1f1e18;fill-opacity:1;fill-rule:nonzero;stroke:none;stroke-width:0.1"
         id="path200"
         inkscape:connector-curvature="0" /><path
         d="m 417.019,169.18 h 44.762 v 33.603 h -23.469 l -10.694,10.696 V 202.783 H 417.019 V 169.18"
         style="fill:#ffe58f;fill-opacity:1;fill-rule:nonzero;stroke:none;stroke-width:0.1"
         id="path202"
         inkscape:connector-curvature="0" /><path
         d="m 451.499,182.07 h -24.197 24.197"
         style="fill:#84dbff;fill-opacity:1;fill-rule:nonzero;stroke:none;stroke-width:0.1"
         id="path204"
         inkscape:connector-curvature="0" /><path
         d="m 451.499,180.07 h -24.197 v 4 h 24.197 v -4"
         style="fill:#1f1e18;fill-opacity:1;fill-rule:nonzero;stroke:none;stroke-width:0.1"
         id="path206"
         inkscape:connector-curvature="0" /><path
         d="m 451.499,189.98 h -24.197 24.197"
         style="fill:#84dbff;fill-opacity:1;fill-rule:nonzero;stroke:none;stroke-width:0.1"
         id="path208"
         inkscape:connector-curvature="0" /><path
         d="m 451.499,187.98 h -24.197 v 4 h 24.197 v -4"
         style="fill:#1f1e18;fill-opacity:1;fill-rule:nonzero;stroke:none;stroke-width:0.1"
         id="path210"
         inkscape:connector-curvature="0" /><path
         d="m 488.424,399.754 c -0.36,0 -0.663,-0.391 -0.663,-0.855 v -32.405 c 0,-0.464 0.303,-0.855 0.663,-0.855 h 7.159 v -8.397 l 9.914,8.397 h 15.676 c 0.362,0 0.668,0.391 0.668,0.855 v 32.405 c 0,0.464 -0.306,0.855 -0.668,0.855 z m 3.159,-51.141 v 13.026 h -3.159 c -2.571,0 -4.663,2.178 -4.663,4.855 v 32.405 c 0,2.677 2.092,4.855 4.663,4.855 h 32.749 c 2.574,0 4.668,-2.178 4.668,-4.855 v -32.405 c 0,-2.677 -2.094,-4.855 -4.668,-4.855 h -14.209 l -15.381,-13.026"
         style="fill:#1f1e18;fill-opacity:1;fill-rule:nonzero;stroke:none;stroke-width:0.1"
         id="path212"
         inkscape:connector-curvature="0" /><path
         d="m 513.461,382.846 -7.159,-4.135 -7.161,-4.134 v 16.536 l 7.161,-4.134 7.159,-4.133"
         style="fill:#84dbff;fill-opacity:1;fill-rule:nonzero;stroke:none;stroke-width:0.1"
         id="path214"
         inkscape:connector-curvature="0" /><path
         d="m 417.366,441.044 h 35.871 v 35.871 h -35.871 z m 39.871,-4 h -43.871 v 43.871 h 43.871 v -43.871"
         style="fill:#1f1e18;fill-opacity:1;fill-rule:nonzero;stroke:none;stroke-width:0.1"
         id="path216"
         inkscape:connector-curvature="0" /><path
         d="m 416.78,437.63 -2.828,2.828 39.871,39.871 2.828,-2.828 -39.871,-39.871"
         style="fill:#1f1e18;fill-opacity:1;fill-rule:nonzero;stroke:none;stroke-width:0.1"
         id="path218"
         inkscape:connector-curvature="0" /><path
         d="m 453.823,437.63 -39.871,39.871 2.828,2.828 39.871,-39.871 -2.828,-2.828"
         style="fill:#1f1e18;fill-opacity:1;fill-rule:nonzero;stroke:none;stroke-width:0.1"
         id="path220"
         inkscape:connector-curvature="0" /><path
         d="m 340.334,487.012 h 49.936 v 49.935 h -49.936 z m 53.936,-4 h -57.936 v 57.935 h 57.936 v -57.935"
         style="fill:#1f1e18;fill-opacity:1;fill-rule:nonzero;stroke:none;stroke-width:0.1"
         id="path222"
         inkscape:connector-curvature="0" /><path
         d="m 339.748,483.598 -2.828,2.828 53.935,53.935 2.829,-2.828 -53.936,-53.935"
         style="fill:#1f1e18;fill-opacity:1;fill-rule:nonzero;stroke:none;stroke-width:0.1"
         id="path224"
         inkscape:connector-curvature="0" /><path
         d="m 390.855,483.598 -53.935,53.935 2.828,2.828 53.936,-53.935 -2.829,-2.828"
         style="fill:#1f1e18;fill-opacity:1;fill-rule:nonzero;stroke:none;stroke-width:0.1"
         id="path226"
         inkscape:connector-curvature="0" /><path
         d="m 662.654,218.549 -0.003,8.938 h -8.935 v 4 h 12.933 l 0.005,-12.937 -4,-0.001"
         style="fill:#1f1e18;fill-opacity:1;fill-rule:nonzero;stroke:none;stroke-width:0.1"
         id="path228"
         inkscape:connector-curvature="0" /><path
         d="m 653.464,215.472 -2.828,2.828 10.709,10.711 2.828,-2.828 -10.709,-10.711"
         style="fill:#1f1e18;fill-opacity:1;fill-rule:nonzero;stroke:none;stroke-width:0.1"
         id="path230"
         inkscape:connector-curvature="0" /><path
         d="m 644.78,196.68 h -12.934 l -0.005,12.934 4,0.001 0.003,-8.937 8.936,-0.001 v -3.997"
         style="fill:#1f1e18;fill-opacity:1;fill-rule:nonzero;stroke:none;stroke-width:0.1"
         id="path232"
         inkscape:connector-curvature="0" /><path
         d="m 637.149,199.15 -2.828,2.831 10.71,10.711 2.828,-2.828 -10.71,-10.714"
         style="fill:#1f1e18;fill-opacity:1;fill-rule:nonzero;stroke:none;stroke-width:0.1"
         id="path234"
         inkscape:connector-curvature="0" /><path
         d="m 296.41,381.044 h 94.889 v 69.68 H 296.41 Z m 98.889,-4 H 292.41 v 77.68 h 102.889 v -77.68"
         style="fill:#1f1e18;fill-opacity:1;fill-rule:nonzero;stroke:none;stroke-width:0.1"
         id="path236"
         inkscape:connector-curvature="0" /><path
         d="m 303.036,444.097 v -33.022 l 15.098,20.096 14.825,-19.74 9.59,12.771 12.206,-16.256 2.683,-3.57 h 27.232 v 39.721 h -81.634"
         style="fill:#ffe58f;fill-opacity:1;fill-rule:nonzero;stroke:none;stroke-width:0.1"
         id="path238"
         inkscape:connector-curvature="0" /><path
         d="m 372.455,428.972 c 0,-3.856 -3.124,-6.981 -6.979,-6.981 -3.855,0 -6.981,3.125 -6.981,6.981 0,3.853 3.126,6.984 6.981,6.984 3.855,0 6.979,-3.131 6.979,-6.984"
         style="fill:#84dbff;fill-opacity:1;fill-rule:nonzero;stroke:none;stroke-width:0.1"
         id="path240"
         inkscape:connector-curvature="0" /><path
         d="m 734.61,362.93 v 5.421 l -4.818,0.401 c -0.338,1.773 -0.988,3.435 -1.899,4.922 l 3.216,3.803 -3.832,3.833 -3.688,-3.123 c -1.445,0.983 -3.074,1.713 -4.823,2.135 l -0.415,4.965 h -5.42 l -0.401,-4.817 c -1.773,-0.338 -3.435,-0.989 -4.922,-1.9 l -3.803,3.217 -3.833,-3.831 3.121,-3.689 c -0.982,-1.445 -1.712,-3.075 -2.134,-4.824 l -4.966,-0.415 v -5.42 l 4.819,-0.401 c 0.337,-1.773 0.988,-3.436 1.899,-4.922 l -3.217,-3.803 3.831,-3.833 3.69,3.122 c 1.444,-0.982 3.074,-1.712 4.826,-2.133 l 0.411,-4.967 h 5.421 l 0.402,4.818 c 1.772,0.338 3.434,0.99 4.92,1.9 l 3.804,-3.217 3.833,3.832 -3.123,3.688 c 0.983,1.446 1.714,3.076 2.135,4.826 l 4.966,0.412"
         style="fill:#ffe58f;fill-opacity:1;fill-rule:nonzero;stroke:none;stroke-width:0.1"
         id="path242"
         inkscape:connector-curvature="0" /><path
         d="m 715.302,371.14 c -2.845,0 -5.159,-2.315 -5.159,-5.161 0,-2.845 2.314,-5.16 5.159,-5.16 2.844,0 5.159,2.315 5.159,5.16 0,2.846 -2.315,5.161 -5.159,5.161 z m 0,-14.321 c -5.051,0 -9.159,4.11 -9.159,9.16 0,5.051 4.108,9.161 9.159,9.161 5.051,0 9.159,-4.11 9.159,-9.161 0,-5.05 -4.108,-9.16 -9.159,-9.16"
         style="fill:#1f1e18;fill-opacity:1;fill-rule:nonzero;stroke:none;stroke-width:0.1"
         id="path244"
         inkscape:connector-curvature="0" /><path
         d="m 931.435,281.552 c 0,-20.102 -16.295,-36.395 -36.395,-36.395 -20.098,0 -36.394,16.293 -36.394,36.395 0,20.099 16.296,36.392 36.394,36.392 20.1,0 36.395,-16.293 36.395,-36.392"
         style="fill:#ffe58f;fill-opacity:1;fill-rule:nonzero;stroke:none;stroke-width:0.1"
         id="path246"
         inkscape:connector-curvature="0" /><path
         d="m 882.996,278.099 c 1.112,-6.772 6.207,-11.817 12.298,-11.817 6.091,0 11.185,5.045 12.297,11.817 z m 12.298,-15.817 c -8.855,0 -16.105,7.791 -16.506,17.736 l -0.084,2.081 h 33.178 l -0.084,-2.08 c -0.4,-9.946 -7.649,-17.737 -16.504,-17.737"
         style="fill:#1f1e18;fill-opacity:1;fill-rule:nonzero;stroke:none;stroke-width:0.1"
         id="path248"
         inkscape:connector-curvature="0" /><path
         d="m 890.048,293.321 h -4 c 0,2.118 -1.723,3.842 -3.841,3.842 -2.118,0 -3.841,-1.724 -3.841,-3.842 h -4 c 0,4.325 3.518,7.842 7.841,7.842 4.323,0 7.841,-3.517 7.841,-7.842"
         style="fill:#1f1e18;fill-opacity:1;fill-rule:nonzero;stroke:none;stroke-width:0.1"
         id="path250"
         inkscape:connector-curvature="0" /><path
         d="m 915.714,293.321 h -4 c 0,2.118 -1.723,3.842 -3.84,3.842 -2.118,0 -3.842,-1.724 -3.842,-3.842 h -4 c 0,4.325 3.518,7.842 7.842,7.842 4.323,0 7.84,-3.517 7.84,-7.842"
         style="fill:#1f1e18;fill-opacity:1;fill-rule:nonzero;stroke:none;stroke-width:0.1"
         id="path252"
         inkscape:connector-curvature="0" /><path
         d="M 300.294,217.581 H 84.3855 v 28.611 H 300.294 v -28.611"
         style="fill:#ffe58f;fill-opacity:1;fill-rule:nonzero;stroke:none;stroke-width:0.1"
         id="path254"
         inkscape:connector-curvature="0" /><path
         d="m 94.3176,235.263 h -4 v 10.929 h 4 v -10.929"
         style="fill:#1f1e18;fill-opacity:1;fill-rule:nonzero;stroke:none;stroke-width:0.1"
         id="path256"
         inkscape:connector-curvature="0" /><path
         d="m 102.663,240.308 h -3.9997 v 5.884 h 3.9997 v -5.884"
         style="fill:#1f1e18;fill-opacity:1;fill-rule:nonzero;stroke:none;stroke-width:0.1"
         id="path258"
         inkscape:connector-curvature="0" /><path
         d="m 111.009,235.263 h -4 v 10.929 h 4 v -10.929"
         style="fill:#1f1e18;fill-opacity:1;fill-rule:nonzero;stroke:none;stroke-width:0.1"
         id="path260"
         inkscape:connector-curvature="0" /><path
         d="m 119.354,240.308 h -4 v 5.884 h 4 v -5.884"
         style="fill:#1f1e18;fill-opacity:1;fill-rule:nonzero;stroke:none;stroke-width:0.1"
         id="path262"
         inkscape:connector-curvature="0" /><path
         d="m 127.698,235.263 h -4 v 10.929 h 4 v -10.929"
         style="fill:#1f1e18;fill-opacity:1;fill-rule:nonzero;stroke:none;stroke-width:0.1"
         id="path264"
         inkscape:connector-curvature="0" /><path
         d="m 136.044,240.308 h -4 v 5.884 h 4 v -5.884"
         style="fill:#1f1e18;fill-opacity:1;fill-rule:nonzero;stroke:none;stroke-width:0.1"
         id="path266"
         inkscape:connector-curvature="0" /><path
         d="m 144.39,235.263 h -4 v 10.929 h 4 v -10.929"
         style="fill:#1f1e18;fill-opacity:1;fill-rule:nonzero;stroke:none;stroke-width:0.1"
         id="path268"
         inkscape:connector-curvature="0" /><path
         d="m 152.734,240.308 h -4 v 5.884 h 4 v -5.884"
         style="fill:#1f1e18;fill-opacity:1;fill-rule:nonzero;stroke:none;stroke-width:0.1"
         id="path270"
         inkscape:connector-curvature="0" /><path
         d="m 161.08,235.263 h -4 v 10.929 h 4 v -10.929"
         style="fill:#1f1e18;fill-opacity:1;fill-rule:nonzero;stroke:none;stroke-width:0.1"
         id="path272"
         inkscape:connector-curvature="0" /><path
         d="m 169.425,240.308 h -4 v 5.884 h 4 v -5.884"
         style="fill:#1f1e18;fill-opacity:1;fill-rule:nonzero;stroke:none;stroke-width:0.1"
         id="path274"
         inkscape:connector-curvature="0" /><path
         d="m 177.771,235.263 h -4 v 10.929 h 4 v -10.929"
         style="fill:#1f1e18;fill-opacity:1;fill-rule:nonzero;stroke:none;stroke-width:0.1"
         id="path276"
         inkscape:connector-curvature="0" /><path
         d="m 186.116,240.308 h -4 v 5.884 h 4 v -5.884"
         style="fill:#1f1e18;fill-opacity:1;fill-rule:nonzero;stroke:none;stroke-width:0.1"
         id="path278"
         inkscape:connector-curvature="0" /><path
         d="m 194.462,235.263 h -4 v 10.929 h 4 v -10.929"
         style="fill:#1f1e18;fill-opacity:1;fill-rule:nonzero;stroke:none;stroke-width:0.1"
         id="path280"
         inkscape:connector-curvature="0" /><path
         d="m 203.403,240.308 h -4 v 5.884 h 4 v -5.884"
         style="fill:#1f1e18;fill-opacity:1;fill-rule:nonzero;stroke:none;stroke-width:0.1"
         id="path282"
         inkscape:connector-curvature="0" /><path
         d="m 211.749,235.263 h -4 v 10.929 h 4 v -10.929"
         style="fill:#1f1e18;fill-opacity:1;fill-rule:nonzero;stroke:none;stroke-width:0.1"
         id="path284"
         inkscape:connector-curvature="0" /><path
         d="m 220.093,240.308 h -4 v 5.884 h 4 v -5.884"
         style="fill:#1f1e18;fill-opacity:1;fill-rule:nonzero;stroke:none;stroke-width:0.1"
         id="path286"
         inkscape:connector-curvature="0" /><path
         d="m 228.438,235.263 h -4 v 10.929 h 4 v -10.929"
         style="fill:#1f1e18;fill-opacity:1;fill-rule:nonzero;stroke:none;stroke-width:0.1"
         id="path288"
         inkscape:connector-curvature="0" /><path
         d="m 236.784,240.308 h -4 v 5.884 h 4 v -5.884"
         style="fill:#1f1e18;fill-opacity:1;fill-rule:nonzero;stroke:none;stroke-width:0.1"
         id="path290"
         inkscape:connector-curvature="0" /><path
         d="m 245.13,235.263 h -4 v 10.929 h 4 v -10.929"
         style="fill:#1f1e18;fill-opacity:1;fill-rule:nonzero;stroke:none;stroke-width:0.1"
         id="path292"
         inkscape:connector-curvature="0" /><path
         d="m 253.476,240.308 h -4 v 5.884 h 4 v -5.884"
         style="fill:#1f1e18;fill-opacity:1;fill-rule:nonzero;stroke:none;stroke-width:0.1"
         id="path294"
         inkscape:connector-curvature="0" /><path
         d="m 261.82,235.263 h -4 v 10.929 h 4 v -10.929"
         style="fill:#1f1e18;fill-opacity:1;fill-rule:nonzero;stroke:none;stroke-width:0.1"
         id="path296"
         inkscape:connector-curvature="0" /><path
         d="m 270.166,240.308 h -4 v 5.884 h 4 v -5.884"
         style="fill:#1f1e18;fill-opacity:1;fill-rule:nonzero;stroke:none;stroke-width:0.1"
         id="path298"
         inkscape:connector-curvature="0" /><path
         d="m 278.511,235.263 h -4 v 10.929 h 4 v -10.929"
         style="fill:#1f1e18;fill-opacity:1;fill-rule:nonzero;stroke:none;stroke-width:0.1"
         id="path300"
         inkscape:connector-curvature="0" /><path
         d="m 286.856,240.308 h -4 v 5.884 h 4 v -5.884"
         style="fill:#1f1e18;fill-opacity:1;fill-rule:nonzero;stroke:none;stroke-width:0.1"
         id="path302"
         inkscape:connector-curvature="0" /><path
         d="m 295.202,235.263 h -4 v 10.929 h 4 v -10.929"
         style="fill:#1f1e18;fill-opacity:1;fill-rule:nonzero;stroke:none;stroke-width:0.1"
         id="path304"
         inkscape:connector-curvature="0" /><path
         d="m 212.802,261.622 -13.777,55.334 h -0.227 l -13.549,-55.334 h -18.103 l -21.519,81.293 h 17.876 l 12.865,-55.334 h 0.228 l 14.118,55.334 h 16.737 l 13.89,-56.018 h 0.228 l 13.322,56.018 h 17.534 l -21.862,-81.293 h -17.761"
         style="fill:#84dbff;fill-opacity:1;fill-rule:nonzero;stroke:none;stroke-width:0.1"
         id="path306"
         inkscape:connector-curvature="0" /><path
         d="m 321.419,342.915 v -15.029 h -42.924 v -17.42 H 317.89 V 296.575 H 278.495 V 276.65 h 43.836 V 261.622 H 260.62 v 81.293 h 60.799"
         style="fill:#84dbff;fill-opacity:1;fill-rule:nonzero;stroke:none;stroke-width:0.1"
         id="path308"
         inkscape:connector-curvature="0" /><path
         d="m 371.401,275.513 c 1.746,0 3.416,0.17 5.01,0.511 1.595,0.342 2.998,0.911 4.213,1.708 1.213,0.797 2.182,1.878 2.903,3.246 0.721,1.365 1.082,3.111 1.082,5.236 0,4.174 -1.177,7.154 -3.53,8.938 -2.353,1.783 -5.465,2.676 -9.336,2.676 h -19.469 v -22.315 z m -1.024,34.498 c 3.188,0 5.807,0.758 7.856,2.277 2.049,1.518 3.075,3.984 3.075,7.4 0,1.897 -0.342,3.454 -1.026,4.668 -0.682,1.213 -1.594,2.164 -2.732,2.846 -1.139,0.684 -2.447,1.157 -3.928,1.424 -1.48,0.266 -3.018,0.398 -4.611,0.398 h -16.737 v -19.013 z m 2.277,32.904 c 3.871,0 7.401,-0.342 10.589,-1.025 3.188,-0.683 5.92,-1.803 8.197,-3.358 2.278,-1.556 4.042,-3.627 5.295,-6.206 1.252,-2.581 1.878,-5.768 1.878,-9.563 0,-4.1 -0.93,-7.515 -2.789,-10.248 -1.86,-2.733 -4.611,-4.972 -8.255,-6.717 5.01,-1.444 8.748,-3.967 11.215,-7.571 2.466,-3.607 3.7,-7.953 3.7,-13.037 0,-4.099 -0.796,-7.648 -2.391,-10.646 -1.593,-2.999 -3.739,-5.447 -6.432,-7.344 -2.695,-1.898 -5.769,-3.301 -9.223,-4.213 -3.455,-0.91 -7.001,-1.365 -10.645,-1.365 h -39.395 v 81.293 h 38.256"
         style="fill:#84dbff;fill-opacity:1;fill-rule:nonzero;stroke:none;stroke-width:0.1"
         id="path310"
         inkscape:connector-curvature="0" /><path
         d="m 480.021,276.65 c 2.579,0 5.083,0.417 7.513,1.253 2.429,0.834 4.592,2.22 6.49,4.156 1.897,1.935 3.416,4.458 4.555,7.571 1.139,3.111 1.707,6.906 1.707,11.387 0,4.097 -0.398,7.798 -1.195,11.099 -0.797,3.303 -2.106,6.129 -3.928,8.483 -1.822,2.352 -4.232,4.156 -7.23,5.408 -2.999,1.253 -6.7,1.879 -11.101,1.879 H 464.08 V 276.65 Z m 1.251,66.265 c 5.237,0 10.114,-0.836 14.631,-2.505 4.515,-1.671 8.426,-4.175 11.727,-7.514 3.303,-3.341 5.882,-7.514 7.742,-12.524 1.859,-5.01 2.79,-10.893 2.79,-17.648 0,-5.92 -0.76,-11.386 -2.278,-16.395 -1.519,-5.01 -3.814,-9.337 -6.887,-12.98 -3.074,-3.643 -6.908,-6.51 -11.5,-8.596 -4.594,-2.089 -10.002,-3.131 -16.225,-3.131 h -35.067 v 81.293 h 35.067"
         style="fill:#84dbff;fill-opacity:1;fill-rule:nonzero;stroke:none;stroke-width:0.1"
         id="path312"
         inkscape:connector-curvature="0" /><path
         d="m 591.372,342.915 v -15.029 h -42.925 v -17.42 h 39.395 V 296.575 H 548.447 V 276.65 h 43.835 v -15.028 h -61.71 v 81.293 h 60.8"
         style="fill:#84dbff;fill-opacity:1;fill-rule:nonzero;stroke:none;stroke-width:0.1"
         id="path314"
         inkscape:connector-curvature="0" /><path
         d="m 618.013,281.66 c 0.986,-1.897 2.295,-3.434 3.928,-4.61 1.631,-1.178 3.547,-2.051 5.749,-2.619 2.202,-0.57 4.479,-0.854 6.832,-0.854 1.594,0 3.302,0.131 5.124,0.399 1.822,0.264 3.529,0.777 5.124,1.537 1.593,0.758 2.92,1.8 3.985,3.131 1.06,1.326 1.594,3.016 1.594,5.066 0,2.2 -0.703,3.984 -2.107,5.352 -1.405,1.365 -3.245,2.503 -5.522,3.415 -2.278,0.911 -4.859,1.708 -7.742,2.391 -2.885,0.683 -5.807,1.441 -8.767,2.277 -3.037,0.758 -5.997,1.688 -8.881,2.79 -2.886,1.099 -5.465,2.522 -7.742,4.269 -2.277,1.745 -4.118,3.928 -5.523,6.547 -1.405,2.618 -2.105,5.787 -2.105,9.507 0,4.173 0.891,7.799 2.676,10.873 1.782,3.074 4.116,5.636 7.002,7.685 2.883,2.05 6.148,3.568 9.791,4.554 3.643,0.986 7.287,1.481 10.93,1.481 4.25,0 8.329,-0.475 12.24,-1.424 3.908,-0.949 7.38,-2.487 10.418,-4.611 3.035,-2.126 5.445,-4.838 7.23,-8.141 1.782,-3.301 2.675,-7.306 2.675,-12.012 h -17.307 c -0.152,2.429 -0.665,4.441 -1.536,6.035 -0.874,1.594 -2.031,2.846 -3.473,3.757 -1.443,0.911 -3.093,1.556 -4.953,1.936 -1.861,0.379 -3.89,0.569 -6.091,0.569 -1.443,0 -2.885,-0.152 -4.327,-0.455 -1.442,-0.305 -2.752,-0.836 -3.927,-1.594 -1.178,-0.76 -2.146,-1.709 -2.904,-2.847 -0.759,-1.138 -1.138,-2.581 -1.138,-4.327 0,-1.593 0.301,-2.884 0.911,-3.871 0.606,-0.986 1.802,-1.898 3.586,-2.732 1.783,-0.836 4.25,-1.67 7.4,-2.504 3.15,-0.837 7.268,-1.899 12.354,-3.189 1.517,-0.303 3.624,-0.854 6.319,-1.651 2.693,-0.797 5.369,-2.068 8.026,-3.814 2.657,-1.747 4.953,-4.08 6.889,-7.002 1.936,-2.922 2.903,-6.661 2.903,-11.215 0,-3.72 -0.721,-7.172 -2.163,-10.361 -1.442,-3.188 -3.587,-5.94 -6.432,-8.254 -2.847,-2.317 -6.376,-4.119 -10.589,-5.409 -4.213,-1.289 -9.091,-1.935 -14.631,-1.935 -4.479,0 -8.823,0.552 -13.037,1.65 -4.212,1.1 -7.932,2.828 -11.157,5.182 -3.227,2.351 -5.789,5.35 -7.685,8.994 -1.898,3.644 -2.81,7.97 -2.732,12.979 h 17.304 c 0,-2.732 0.494,-5.048 1.481,-6.945"
         style="fill:#84dbff;fill-opacity:1;fill-rule:nonzero;stroke:none;stroke-width:0.1"
         id="path316"
         inkscape:connector-curvature="0" /><path
         d="m 696.116,342.915 v -81.293 h -17.875 v 81.293 h 17.875"
         style="fill:#84dbff;fill-opacity:1;fill-rule:nonzero;stroke:none;stroke-width:0.1"
         id="path318"
         inkscape:connector-curvature="0" /><path
         d="m 759.99,262.247 c -3.871,-1.631 -7.781,-2.447 -11.727,-2.447 -6.225,0 -11.823,1.082 -16.793,3.245 -4.973,2.163 -9.166,5.142 -12.582,8.937 -3.415,3.795 -6.034,8.255 -7.856,13.378 -1.822,5.124 -2.732,10.647 -2.732,16.567 0,6.072 0.91,11.707 2.732,16.908 1.822,5.197 4.441,9.734 7.856,13.605 3.416,3.872 7.609,6.907 12.582,9.109 4.97,2.2 10.568,3.302 16.793,3.302 4.174,0 8.216,-0.626 12.126,-1.879 3.909,-1.252 7.438,-3.094 10.589,-5.522 3.148,-2.429 5.75,-5.428 7.798,-8.995 2.05,-3.568 3.303,-7.667 3.758,-12.296 h -17.078 c -1.064,4.554 -3.113,7.97 -6.148,10.246 -3.037,2.278 -6.718,3.416 -11.045,3.416 -4.024,0 -7.44,-0.779 -10.246,-2.334 -2.81,-1.556 -5.087,-3.642 -6.832,-6.261 -1.748,-2.62 -3.018,-5.599 -3.815,-8.938 -0.797,-3.342 -1.195,-6.795 -1.195,-10.361 0,-3.416 0.398,-6.738 1.195,-9.963 0.797,-3.227 2.067,-6.13 3.815,-8.709 1.745,-2.582 4.022,-4.651 6.832,-6.205 2.806,-1.557 6.222,-2.335 10.246,-2.335 5.92,0 10.493,1.498 13.72,4.497 3.225,2.998 5.104,7.344 5.635,13.037 H 749.63 v 13.321 h 34.156 v -43.948 h -11.385 l -1.822,9.222 c -3.187,-4.099 -6.718,-6.965 -10.589,-8.597"
         style="fill:#84dbff;fill-opacity:1;fill-rule:nonzero;stroke:none;stroke-width:0.1"
         id="path320"
         inkscape:connector-curvature="0" /><path
         d="m 816.007,342.915 33.928,-54.537 h 0.228 v 54.537 h 16.736 v -81.293 h -17.875 l -33.815,54.423 h -0.228 v -54.423 h -16.736 v 81.293 h 17.762"
         style="fill:#84dbff;fill-opacity:1;fill-rule:nonzero;stroke:none;stroke-width:0.1"
         id="path322"
         inkscape:connector-curvature="0" /><path
         d="m 174.42,287.128 -12.505,53.787 h -16.288 v 4 h 19.464 l 13.225,-56.881 z m 44.979,-0.712 -13.512,54.499 h -15.173 v 4 h 18.302 l 14.266,-57.536 z m -32.208,-25.27 -3.884,0.952 13.922,56.858 h 1.796 V 316.9 l 1.715,-0.42 z m 45.304,-0.043 -3.863,1.039 21.183,78.773 h -14.924 v 4 h 20.143 l -22.539,-83.812"
         style="fill:#1f1e18;fill-opacity:1;fill-rule:nonzero;stroke:none;stroke-width:0.1"
         id="path324"
         inkscape:connector-curvature="0" /><path
         d="m 323.419,325.886 h -44.924 v 4 h 40.924 v 13.029 h 4 z m -3.529,-31.311 h -41.395 v 4 h 37.395 v 11.891 h 4 z m 2.441,-34.953 H 260.62 v 4 h 61.711 v -4"
         style="fill:#1f1e18;fill-opacity:1;fill-rule:nonzero;stroke:none;stroke-width:0.1"
         id="path326"
         inkscape:connector-curvature="0" /><path
         d="m 354.274,312.011 h 16.103 c 2.736,0 4.978,0.634 6.665,1.884 1.524,1.129 2.266,3.024 2.266,5.793 0,1.541 -0.259,2.782 -0.769,3.687 -0.515,0.916 -1.175,1.607 -2.018,2.112 -0.923,0.555 -2.018,0.948 -3.253,1.171 -1.357,0.243 -2.789,0.366 -4.257,0.366 h -14.737 z m 16.103,-4 h -20.103 v 23.013 h 18.737 c 1.704,0 3.375,-0.144 4.965,-0.429 1.714,-0.309 3.263,-0.874 4.603,-1.678 1.434,-0.859 2.593,-2.064 3.446,-3.58 0.851,-1.512 1.283,-3.413 1.283,-5.649 0,-4.067 -1.307,-7.098 -3.884,-9.007 -2.39,-1.772 -5.434,-2.67 -9.047,-2.67 z m 31.481,-34.407 -3.531,1.879 c 1.432,2.691 2.157,5.957 2.157,9.707 0,4.649 -1.128,8.655 -3.351,11.908 -2.216,3.237 -5.526,5.455 -10.117,6.778 l 1.107,3.844 c 5.445,-1.569 9.587,-4.383 12.312,-8.364 2.687,-3.93 4.049,-8.696 4.049,-14.166 0,-4.412 -0.883,-8.31 -2.626,-11.586 z m -65.46,-11.982 h -4 v 83.293 h 40.256 c 3.993,0 7.698,-0.36 11.008,-1.07 3.426,-0.733 6.422,-1.965 8.906,-3.661 2.557,-1.747 4.564,-4.097 5.966,-6.984 l -3.597,-1.748 c -1.095,2.253 -2.651,4.08 -4.625,5.429 -2.052,1.401 -4.572,2.429 -7.488,3.053 -3.036,0.651 -6.458,0.981 -10.17,0.981 h -36.256 v -79.293"
         style="fill:#1f1e18;fill-opacity:1;fill-rule:nonzero;stroke:none;stroke-width:0.1"
         id="path328"
         inkscape:connector-curvature="0" /><path
         d="m 510.525,272.059 -3.056,2.579 c 2.881,3.416 5.068,7.545 6.501,12.271 1.455,4.799 2.192,10.119 2.192,15.815 0,6.484 -0.896,12.188 -2.665,16.952 -1.752,4.719 -4.205,8.693 -7.289,11.813 -3.076,3.113 -6.776,5.483 -10.999,7.046 -4.275,1.579 -8.965,2.38 -13.937,2.38 h -35.067 v 4 h 35.067 c 5.447,0 10.603,-0.884 15.325,-2.629 4.775,-1.767 8.966,-4.454 12.456,-7.985 3.486,-3.526 6.243,-7.978 8.194,-13.233 1.935,-5.212 2.915,-11.383 2.915,-18.344 0,-6.089 -0.796,-11.801 -2.364,-16.975 -1.592,-5.25 -4.038,-9.856 -7.273,-13.69"
         style="fill:#1f1e18;fill-opacity:1;fill-rule:nonzero;stroke:none;stroke-width:0.1"
         id="path330"
         inkscape:connector-curvature="0" /><path
         d="m 589.842,296.575 h -4 v 11.891 h -37.395 v 4 h 41.395 z m 4.44,-36.953 h -65.71 v 85.293 h 64.8 v -17.029 h -4 v 13.029 h -56.8 v -77.293 h 57.71 v 11.028 h -41.835 v 4 h 45.835 v -19.028"
         style="fill:#1f1e18;fill-opacity:1;fill-rule:nonzero;stroke:none;stroke-width:0.1"
         id="path332"
         inkscape:connector-curvature="0" /><path
         d="m 634.522,271.577 c -2.512,0 -4.979,0.309 -7.333,0.917 -2.432,0.628 -4.592,1.615 -6.418,2.934 -1.878,1.352 -3.405,3.139 -4.533,5.31 -1.132,2.176 -1.706,4.824 -1.706,7.867 h 4 c 0,-2.395 0.422,-4.421 1.255,-6.022 0.849,-1.633 1.936,-2.912 3.322,-3.91 1.424,-1.027 3.132,-1.803 5.081,-2.306 2.028,-0.524 4.158,-0.79 6.332,-0.79 1.503,0 3.129,0.127 4.832,0.377 1.617,0.235 3.148,0.694 4.555,1.364 1.329,0.632 2.404,1.474 3.284,2.575 0.778,0.972 1.156,2.221 1.156,3.817 0,1.652 -0.492,2.934 -1.502,3.919 -1.21,1.175 -2.849,2.182 -4.87,2.991 -2.173,0.869 -4.683,1.644 -7.46,2.302 -2.918,0.69 -5.896,1.464 -8.85,2.298 -3.043,0.759 -6.107,1.722 -9.051,2.846 -3.05,1.163 -5.824,2.694 -8.246,4.551 -2.492,1.91 -4.534,4.329 -6.067,7.189 -1.555,2.896 -2.343,6.413 -2.343,10.452 0,4.514 0.991,8.511 2.946,11.877 1.917,3.308 4.466,6.105 7.573,8.312 3.06,2.176 6.569,3.809 10.427,4.854 3.799,1.028 7.653,1.55 11.453,1.55 4.389,0 8.665,-0.498 12.711,-1.481 4.132,-1.003 7.865,-2.657 11.093,-4.914 3.279,-2.298 5.918,-5.269 7.844,-8.83 1.934,-3.583 2.915,-7.944 2.915,-12.963 h -4 c 0,4.348 -0.819,8.069 -2.435,11.062 -1.627,3.008 -3.853,5.517 -6.618,7.453 -2.817,1.971 -6.096,3.42 -9.742,4.305 -3.737,0.908 -7.697,1.368 -11.768,1.368 -3.447,0 -6.949,-0.475 -10.408,-1.412 -3.4,-0.92 -6.48,-2.351 -9.154,-4.252 -2.639,-1.875 -4.802,-4.25 -6.431,-7.059 -1.596,-2.75 -2.406,-6.07 -2.406,-9.87 0,-3.372 0.628,-6.252 1.868,-8.561 1.263,-2.356 2.937,-4.343 4.977,-5.905 2.114,-1.623 4.549,-2.964 7.237,-3.988 2.796,-1.068 5.707,-1.983 8.653,-2.719 2.958,-0.835 5.88,-1.593 8.743,-2.271 2.969,-0.704 5.669,-1.538 8.025,-2.481 2.508,-1.003 4.585,-2.294 6.173,-3.837 1.801,-1.754 2.713,-4.037 2.713,-6.786 0,-2.505 -0.684,-4.63 -2.033,-6.315 -1.25,-1.563 -2.827,-2.804 -4.688,-3.688 -1.769,-0.843 -3.685,-1.419 -5.695,-1.71 -1.892,-0.279 -3.713,-0.42 -5.411,-0.42 z M 633.839,257.8 c -4.62,0 -9.177,0.577 -13.542,1.715 -4.435,1.158 -8.415,3.008 -11.831,5.501 -3.462,2.523 -6.248,5.782 -8.28,9.687 l 3.548,1.846 c 1.745,-3.351 4.129,-6.144 7.088,-8.301 3.011,-2.196 6.538,-3.832 10.485,-4.863 4.035,-1.052 8.252,-1.585 12.532,-1.585 5.312,0 10.038,0.621 14.046,1.848 3.946,1.208 7.281,2.906 9.911,5.047 2.591,2.107 4.566,4.639 5.873,7.528 1.317,2.914 1.985,6.122 1.985,9.536 0,4.134 -0.865,7.535 -2.57,10.11 -1.776,2.681 -3.902,4.846 -6.32,6.435 -2.481,1.63 -5.002,2.831 -7.495,3.568 -2.629,0.777 -4.697,1.318 -6.145,1.608 l -0.1,0.023 c -5.255,1.333 -9.304,2.378 -12.375,3.194 l 1.028,3.866 c 3.046,-0.81 7.064,-1.847 12.283,-3.171 1.582,-0.319 3.69,-0.87 6.443,-1.684 2.87,-0.849 5.749,-2.215 8.558,-4.061 2.872,-1.888 5.381,-4.435 7.457,-7.569 2.147,-3.241 3.236,-7.386 3.236,-12.319 0,-3.986 -0.787,-7.749 -2.341,-11.184 -1.564,-3.46 -3.917,-6.482 -6.993,-8.983 -3.032,-2.467 -6.822,-4.408 -11.264,-5.769 -4.388,-1.343 -9.508,-2.023 -15.217,-2.023"
         style="fill:#1f1e18;fill-opacity:1;fill-rule:nonzero;stroke:none;stroke-width:0.1"
         id="path334"
         inkscape:connector-curvature="0" /><path
         d="m 680.241,312.979 h -4 v 31.936 h 21.875 v -15.436 h -4 v 11.436 h -13.875 v -27.936"
         style="fill:#1f1e18;fill-opacity:1;fill-rule:nonzero;stroke:none;stroke-width:0.1"
         id="path336"
         inkscape:connector-curvature="0" /><path
         d="m 780.544,315.963 c -0.425,4.323 -1.604,8.191 -3.502,11.496 -1.906,3.319 -4.357,6.147 -7.286,8.408 -2.954,2.276 -6.311,4.026 -9.978,5.2 -3.693,1.183 -7.567,1.784 -11.515,1.784 -5.913,0 -11.29,-1.054 -15.984,-3.131 -4.683,-2.074 -8.685,-4.969 -11.891,-8.603 -3.228,-3.658 -5.741,-8.013 -7.468,-12.944 l -3.775,1.324 c 1.899,5.419 4.672,10.219 8.243,14.267 3.591,4.069 8.056,7.304 13.272,9.613 5.206,2.305 11.129,3.474 17.603,3.474 4.362,0 8.647,-0.664 12.736,-1.975 4.108,-1.315 7.877,-3.281 11.199,-5.842 3.348,-2.583 6.144,-5.807 8.313,-9.583 2.182,-3.8 3.533,-8.206 4.013,-13.096 l -3.98,-0.392"
         style="fill:#1f1e18;fill-opacity:1;fill-rule:nonzero;stroke:none;stroke-width:0.1"
         id="path338"
         inkscape:connector-curvature="0" /><path
         d="m 800.245,288.313 h -4 v 54.602 h 4 z m 16.736,-26.691 h -4 v 54.423 h 4 z m 51.918,0 h -4 v 65.357 h 4 v -65.357"
         style="fill:#1f1e18;fill-opacity:1;fill-rule:nonzero;stroke:none;stroke-width:0.1"
         id="path340"
         inkscape:connector-curvature="0" /><path
         d="m 375.558,252.155 h -14.321 v 4 h 14.321 v -4"
         style="fill:#1f1e18;fill-opacity:1;fill-rule:nonzero;stroke:none;stroke-width:0.1"
         id="path342"
         inkscape:connector-curvature="0" /><path
         d="m 355.903,215.157 h -4 v 65.334 h 4 v -65.334"
         style="fill:#1f1e18;fill-opacity:1;fill-rule:nonzero;stroke:none;stroke-width:0.1"
         id="path344"
         inkscape:connector-curvature="0" /><path
         d="m 378.237,215.157 h -4 v 65.334 h 4 v -65.334"
         style="fill:#1f1e18;fill-opacity:1;fill-rule:nonzero;stroke:none;stroke-width:0.1"
         id="path346"
         inkscape:connector-curvature="0" /><path
         d="m 376.903,272.823 h -17.666 v 4 h 17.666 v -4"
         style="fill:#1f1e18;fill-opacity:1;fill-rule:nonzero;stroke:none;stroke-width:0.1"
         id="path348"
         inkscape:connector-curvature="0" /><path
         d="m 376.903,262.491 h -17.666 v 4 h 17.666 v -4"
         style="fill:#1f1e18;fill-opacity:1;fill-rule:nonzero;stroke:none;stroke-width:0.1"
         id="path350"
         inkscape:connector-curvature="0" /><path
         d="m 376.903,252.157 h -17.666 v 4 h 17.666 v -4"
         style="fill:#1f1e18;fill-opacity:1;fill-rule:nonzero;stroke:none;stroke-width:0.1"
         id="path352"
         inkscape:connector-curvature="0" /><path
         d="m 376.903,241.823 h -17.666 v 4 h 17.666 v -4"
         style="fill:#1f1e18;fill-opacity:1;fill-rule:nonzero;stroke:none;stroke-width:0.1"
         id="path354"
         inkscape:connector-curvature="0" /><path
         d="m 376.903,231.489 h -17.666 v 4 h 17.666 v -4"
         style="fill:#1f1e18;fill-opacity:1;fill-rule:nonzero;stroke:none;stroke-width:0.1"
         id="path356"
         inkscape:connector-curvature="0" /><path
         d="m 376.903,221.155 h -17.666 v 4 h 17.666 v -4"
         style="fill:#1f1e18;fill-opacity:1;fill-rule:nonzero;stroke:none;stroke-width:0.1"
         id="path358"
         inkscape:connector-curvature="0" /><path
         d="m 330.4,227.659 -19.648,11.349 38,21.919 1.998,-3.465 -31.996,-18.457 11.648,-6.728 22.003,12.691 1.998,-3.465 -24.003,-13.844"
         style="fill:#1f1e18;fill-opacity:1;fill-rule:nonzero;stroke:none;stroke-width:0.1"
         id="path360"
         inkscape:connector-curvature="0" /><path
         d="m 400.399,227.659 -24.535,14.154 1.998,3.465 22.537,-13.001 11.654,6.729 -32.002,18.456 1.998,3.465 38.006,-21.919 -19.656,-11.349"
         style="fill:#1f1e18;fill-opacity:1;fill-rule:nonzero;stroke:none;stroke-width:0.1"
         id="path362"
         inkscape:connector-curvature="0" /><path
         d="m 365.401,173.57 -35.361,20.42 v 16.812 h 4 V 196.3 l 31.361,-18.11 31.364,18.11 v 14.502 h 4 V 193.99 l -35.364,-20.42"
         style="fill:#1f1e18;fill-opacity:1;fill-rule:nonzero;stroke:none;stroke-width:0.1"
         id="path364"
         inkscape:connector-curvature="0" /><path
         d="m 367.403,178.64 h -4 v 31.269 h 4 V 178.64"
         style="fill:#1f1e18;fill-opacity:1;fill-rule:nonzero;stroke:none;stroke-width:0.1"
         id="path366"
         inkscape:connector-curvature="0" /><path
         d="m 400.399,229.927 -34.998,-20.188 15.649,-9.037 35.004,20.188 -15.655,9.037"
         style="fill:#ffe58f;fill-opacity:1;fill-rule:nonzero;stroke:none;stroke-width:0.1"
         id="path368"
         inkscape:connector-curvature="0" /><path
         d="m 330.401,229.927 35.002,-20.188 -15.652,-9.037 -34.998,20.188 15.648,9.037"
         style="fill:#ffe58f;fill-opacity:1;fill-rule:nonzero;stroke:none;stroke-width:0.1"
         id="path370"
         inkscape:connector-curvature="0" /><path
         d="m 830.108,254.167 -4.077,4.077 4.077,-4.077"
         style="fill:#84dbff;fill-opacity:1;fill-rule:nonzero;stroke:none;stroke-width:0.1"
         id="path372"
         inkscape:connector-curvature="0" /><path
         d="m 828.694,252.753 -4.077,4.077 2.828,2.828 4.077,-4.077 -2.828,-2.828"
         style="fill:#1f1e18;fill-opacity:1;fill-rule:nonzero;stroke:none;stroke-width:0.1"
         id="path374"
         inkscape:connector-curvature="0" /><path
         d="m 828.764,247.833 -5.571,-1.492 5.571,1.492"
         style="fill:#84dbff;fill-opacity:1;fill-rule:nonzero;stroke:none;stroke-width:0.1"
         id="path376"
         inkscape:connector-curvature="0" /><path
         d="m 823.711,244.409 -1.035,3.863 5.57,1.493 1.035,-3.864 -5.57,-1.492"
         style="fill:#1f1e18;fill-opacity:1;fill-rule:nonzero;stroke:none;stroke-width:0.1"
         id="path378"
         inkscape:connector-curvature="0" /><path
         d="m 833.576,243.501 -1.495,-5.57 1.495,5.57"
         style="fill:#84dbff;fill-opacity:1;fill-rule:nonzero;stroke:none;stroke-width:0.1"
         id="path380"
         inkscape:connector-curvature="0" /><path
         d="m 834.013,237.412 -3.864,1.037 1.496,5.571 3.863,-1.038 -1.495,-5.57"
         style="fill:#1f1e18;fill-opacity:1;fill-rule:nonzero;stroke:none;stroke-width:0.1"
         id="path382"
         inkscape:connector-curvature="0" /><path
         d="m 839.733,245.503 4.08,-4.08 -4.08,4.08"
         style="fill:#84dbff;fill-opacity:1;fill-rule:nonzero;stroke:none;stroke-width:0.1"
         id="path384"
         inkscape:connector-curvature="0" /><path
         d="m 842.399,240.009 -4.08,4.08 2.828,2.828 4.081,-4.08 -2.829,-2.828"
         style="fill:#1f1e18;fill-opacity:1;fill-rule:nonzero;stroke:none;stroke-width:0.1"
         id="path386"
         inkscape:connector-curvature="0" /><path
         d="m 841.08,251.835 5.571,1.494 -5.571,-1.494"
         style="fill:#84dbff;fill-opacity:1;fill-rule:nonzero;stroke:none;stroke-width:0.1"
         id="path388"
         inkscape:connector-curvature="0" /><path
         d="m 841.598,249.903 -1.036,3.864 5.572,1.494 1.035,-3.864 -5.571,-1.494"
         style="fill:#1f1e18;fill-opacity:1;fill-rule:nonzero;stroke:none;stroke-width:0.1"
         id="path390"
         inkscape:connector-curvature="0" /><path
         d="m 836.267,256.167 1.492,5.572 -1.492,-5.572"
         style="fill:#84dbff;fill-opacity:1;fill-rule:nonzero;stroke:none;stroke-width:0.1"
         id="path392"
         inkscape:connector-curvature="0" /><path
         d="m 838.198,255.649 -3.863,1.036 1.492,5.572 3.863,-1.035 -1.492,-5.573"
         style="fill:#1f1e18;fill-opacity:1;fill-rule:nonzero;stroke:none;stroke-width:0.1"
         id="path394"
         inkscape:connector-curvature="0" /><path
         d="m 839.146,245.741 5.734,-1.59 5.734,-1.593 -4.244,-4.169 -4.248,-4.172 -1.488,5.762 -1.488,5.762"
         style="fill:#84dbff;fill-opacity:1;fill-rule:nonzero;stroke:none;stroke-width:0.1"
         id="path396"
         inkscape:connector-curvature="0" /><path
         d="m 841.948,242.889 1.244,-4.818 3.55,3.487 z m -0.896,-12.526 -4.707,18.231 18.141,-5.037 -13.434,-13.194"
         style="fill:#1f1e18;fill-opacity:1;fill-rule:nonzero;stroke:none;stroke-width:0.1"
         id="path398"
         inkscape:connector-curvature="0" /><path
         d="m 849.772,232.065 -4.902,4.995 2.856,2.802 4.902,-4.995 -2.856,-2.802"
         style="fill:#1f1e18;fill-opacity:1;fill-rule:nonzero;stroke:none;stroke-width:0.1"
         id="path400"
         inkscape:connector-curvature="0" /><path
         d="m 943.001,225.658 h -5.767 v 4 h 5.767 v -4"
         style="fill:#1f1e18;fill-opacity:1;fill-rule:nonzero;stroke:none;stroke-width:0.1"
         id="path402"
         inkscape:connector-curvature="0" /><path
         d="m 935.439,232.089 -3.464,2 2.882,4.994 3.465,-2 -2.883,-4.994"
         style="fill:#1f1e18;fill-opacity:1;fill-rule:nonzero;stroke:none;stroke-width:0.1"
         id="path404"
         inkscape:connector-curvature="0" /><path
         d="m 925.508,231.75 -2.882,4.995 3.465,1.999 2.882,-4.995 -3.465,-1.999"
         style="fill:#1f1e18;fill-opacity:1;fill-rule:nonzero;stroke:none;stroke-width:0.1"
         id="path406"
         inkscape:connector-curvature="0" /><path
         d="m 924.302,224.979 h -5.77 v 4 h 5.77 v -4"
         style="fill:#1f1e18;fill-opacity:1;fill-rule:nonzero;stroke:none;stroke-width:0.1"
         id="path408"
         inkscape:connector-curvature="0" /><path
         d="m 926.677,215.555 -3.465,2 2.884,4.994 3.465,-2 -2.884,-4.994"
         style="fill:#1f1e18;fill-opacity:1;fill-rule:nonzero;stroke:none;stroke-width:0.1"
         id="path410"
         inkscape:connector-curvature="0" /><path
         d="m 935.444,215.894 -2.882,4.995 3.464,1.999 2.883,-4.995 -3.465,-1.999"
         style="fill:#1f1e18;fill-opacity:1;fill-rule:nonzero;stroke:none;stroke-width:0.1"
         id="path412"
         inkscape:connector-curvature="0" /><path
         d="m 905.838,175.36 h -4 v 24.942 h 4 V 175.36"
         style="fill:#1f1e18;fill-opacity:1;fill-rule:nonzero;stroke:none;stroke-width:0.1"
         id="path414"
         inkscape:connector-curvature="0" /><path
         d="m 905.838,162.3 h -4 v 8.31 h 4 v -8.31"
         style="fill:#1f1e18;fill-opacity:1;fill-rule:nonzero;stroke:none;stroke-width:0.1"
         id="path416"
         inkscape:connector-curvature="0" /><path
         d="m 905.838,153.61 h -4 v 4.34 h 4 v -4.34"
         style="fill:#1f1e18;fill-opacity:1;fill-rule:nonzero;stroke:none;stroke-width:0.1"
         id="path418"
         inkscape:connector-curvature="0" /><path
         d="m 921.883,179.5 h -4 v 10.22 h 4 V 179.5"
         style="fill:#1f1e18;fill-opacity:1;fill-rule:nonzero;stroke:none;stroke-width:0.1"
         id="path420"
         inkscape:connector-curvature="0" /><path
         d="m 592.294,406.245 h 21.678 c 0.151,2.049 0.611,4.717 1.902,6.433 7.998,10.301 8.51,20.112 8.51,20.805 0,11.733 -9.503,21.233 -21.234,21.233 -11.73,0 -21.231,-9.5 -21.231,-21.233 0,-0.693 0.498,-10.5 8.506,-20.805 1.287,-1.716 1.732,-4.384 1.869,-6.433"
         style="fill:#84dbff;fill-opacity:1;fill-rule:nonzero;stroke:none;stroke-width:0.1"
         id="path422"
         inkscape:connector-curvature="0" /><path
         d="m 595.537,405.948 -4.204,23.336 3.938,0.709 4.204,-23.336 -3.938,-0.709"
         style="fill:#1f1e18;fill-opacity:1;fill-rule:nonzero;stroke:none;stroke-width:0.1"
         id="path424"
         inkscape:connector-curvature="0" /><path
         d="m 610.768,405.947 -3.938,0.709 4.202,23.337 3.938,-0.709 -4.202,-23.337"
         style="fill:#1f1e18;fill-opacity:1;fill-rule:nonzero;stroke:none;stroke-width:0.1"
         id="path426"
         inkscape:connector-curvature="0" /><path
         d="m 608.575,424.643 -2.193,1.353 -2.19,-1.352 h -2.101 l -2.187,1.351 -2.186,-1.351 -2.103,10e-4 -3.234,2 2.103,3.402 2.183,-1.35 2.187,1.35 h 2.101 l 2.187,-1.351 2.188,1.351 2.101,10e-4 2.194,-1.353 2.193,1.353 2.1,-3.404 -3.243,-2 -2.1,-0.001"
         style="fill:#1f1e18;fill-opacity:1;fill-rule:nonzero;stroke:none;stroke-width:0.1"
         id="path428"
         inkscape:connector-curvature="0" /><path
         d="m 615.413,403.995 h -24.522 v 4 h 24.522 v -4"
         style="fill:#1f1e18;fill-opacity:1;fill-rule:nonzero;stroke:none;stroke-width:0.1"
         id="path430"
         inkscape:connector-curvature="0" /><path
         d="m 615.413,397.542 h -24.522 v 4 h 24.522 v -4"
         style="fill:#1f1e18;fill-opacity:1;fill-rule:nonzero;stroke:none;stroke-width:0.1"
         id="path432"
         inkscape:connector-curvature="0" /><path
         d="m 611.169,391.089 h -16.037 v 4 h 16.037 v -4"
         style="fill:#1f1e18;fill-opacity:1;fill-rule:nonzero;stroke:none;stroke-width:0.1"
         id="path434"
         inkscape:connector-curvature="0" /><path
         d="m 598.904,400.076 h -4 v 5.633 h 4 v -5.633"
         style="fill:#1f1e18;fill-opacity:1;fill-rule:nonzero;stroke:none;stroke-width:0.1"
         id="path436"
         inkscape:connector-curvature="0" /><path
         d="m 410.769,329.245 h 21.677 c 0.153,2.049 0.612,4.717 1.903,6.433 7.998,10.301 8.511,20.112 8.511,20.805 0,11.733 -9.504,21.233 -21.234,21.233 -11.73,0 -21.232,-9.5 -21.232,-21.233 0,-0.693 0.498,-10.5 8.505,-20.805 1.288,-1.716 1.733,-4.384 1.87,-6.433"
         style="fill:#ffe58f;fill-opacity:1;fill-rule:nonzero;stroke:none;stroke-width:0.1"
         id="path438"
         inkscape:connector-curvature="0" /><path
         d="m 414.013,328.948 -4.205,23.336 3.937,0.709 4.205,-23.336 -3.937,-0.709"
         style="fill:#1f1e18;fill-opacity:1;fill-rule:nonzero;stroke:none;stroke-width:0.1"
         id="path440"
         inkscape:connector-curvature="0" /><path
         d="m 429.243,328.947 -3.937,0.709 4.201,23.337 3.937,-0.709 -4.201,-23.337"
         style="fill:#1f1e18;fill-opacity:1;fill-rule:nonzero;stroke:none;stroke-width:0.1"
         id="path442"
         inkscape:connector-curvature="0" /><path
         d="m 429.149,347.643 h -2.099 l -2.195,1.353 -2.188,-1.352 h -2.102 l -2.187,1.351 -2.185,-1.35 h -2.103 l -3.235,2 2.104,3.402 2.183,-1.35 2.184,1.35 h 2.103 l 2.187,-1.351 2.188,1.351 2.1,10e-4 2.196,-1.353 2.195,1.353 2.1,-3.405 -3.246,-2"
         style="fill:#1f1e18;fill-opacity:1;fill-rule:nonzero;stroke:none;stroke-width:0.1"
         id="path444"
         inkscape:connector-curvature="0" /><path
         d="m 433.888,326.995 h -24.523 v 4 h 24.523 v -4"
         style="fill:#1f1e18;fill-opacity:1;fill-rule:nonzero;stroke:none;stroke-width:0.1"
         id="path446"
         inkscape:connector-curvature="0" /><path
         d="m 433.888,320.542 h -24.523 v 4 h 24.523 v -4"
         style="fill:#1f1e18;fill-opacity:1;fill-rule:nonzero;stroke:none;stroke-width:0.1"
         id="path448"
         inkscape:connector-curvature="0" /><path
         d="m 429.646,314.089 h -16.04 v 4 h 16.04 v -4"
         style="fill:#1f1e18;fill-opacity:1;fill-rule:nonzero;stroke:none;stroke-width:0.1"
         id="path450"
         inkscape:connector-curvature="0" /><path
         d="m 417.38,323.076 h -4 v 5.633 h 4 v -5.633"
         style="fill:#1f1e18;fill-opacity:1;fill-rule:nonzero;stroke:none;stroke-width:0.1"
         id="path452"
         inkscape:connector-curvature="0" /><path
         d="m 90.4309,294.729 h 5.2402 c 0.0269,0.191 0.0469,0.42 0.0469,0.682 v 75.971 c 0,0.262 -0.02,0.491 -0.0469,0.681 h -5.2402 c -0.0278,-0.19 -0.0469,-0.42 -0.0469,-0.681 v -75.971 c 0,-0.262 0.0191,-0.491 0.0469,-0.682 z m 6.2871,-4 h -7.334 c -1.8227,0 -3,1.838 -3,4.682 v 75.971 c 0,2.844 1.1773,4.681 3,4.681 h 7.334 c 1.8218,0 3,-1.837 3,-4.681 v -75.971 c 0,-2.844 -1.1782,-4.682 -3,-4.682"
         style="fill:#1f1e18;fill-opacity:1;fill-rule:nonzero;stroke:none;stroke-width:0.1"
         id="path454"
         inkscape:connector-curvature="0" /><path
         d="m 93.0508,331.396 c -0.4285,0 -0.8594,0.137 -1.2238,0.419 -0.8739,0.677 -1.0332,1.934 -0.3563,2.807 l 25.2503,32.583 c 0.677,0.874 1.934,1.031 2.805,0.356 0.874,-0.677 1.034,-1.934 0.357,-2.807 L 94.6328,332.171 c -0.3945,-0.508 -0.9851,-0.775 -1.582,-0.775"
         style="fill:#1f1e18;fill-opacity:1;fill-rule:nonzero;stroke:none;stroke-width:0.1"
         id="path456"
         inkscape:connector-curvature="0" /><path
         d="m 124.302,375.646 c -3.125,0 -5.668,-2.542 -5.668,-5.667 0,-3.124 2.543,-5.666 5.668,-5.666 3.124,0 5.666,2.542 5.666,5.666 0,3.125 -2.542,5.667 -5.666,5.667 z m 0,-15.333 c -5.331,0 -9.668,4.336 -9.668,9.666 0,5.331 4.337,9.667 9.668,9.667 5.33,0 9.666,-4.336 9.666,-9.667 0,-5.33 -4.336,-9.666 -9.666,-9.666"
         style="fill:#1f1e18;fill-opacity:1;fill-rule:nonzero;stroke:none;stroke-width:0.1"
         id="path458"
         inkscape:connector-curvature="0" /><path
         d="m 218.052,361.979 h -4 v 13.75 h 4 v -13.75"
         style="fill:#1f1e18;fill-opacity:1;fill-rule:nonzero;stroke:none;stroke-width:0.1"
         id="path460"
         inkscape:connector-curvature="0" /><path
         d="m 201.302,361.979 h -4 v 13.75 h 4 v -13.75"
         style="fill:#1f1e18;fill-opacity:1;fill-rule:nonzero;stroke:none;stroke-width:0.1"
         id="path462"
         inkscape:connector-curvature="0" /><path
         d="m 184.552,361.979 h -4 v 13.75 h 4 v -13.75"
         style="fill:#1f1e18;fill-opacity:1;fill-rule:nonzero;stroke:none;stroke-width:0.1"
         id="path464"
         inkscape:connector-curvature="0" /><path
         d="m 167.802,361.979 h -4 v 13.75 h 4 v -13.75"
         style="fill:#1f1e18;fill-opacity:1;fill-rule:nonzero;stroke:none;stroke-width:0.1"
         id="path466"
         inkscape:connector-curvature="0" /><path
         d="m 151.052,361.979 h -4 v 13.75 h 4 v -13.75"
         style="fill:#1f1e18;fill-opacity:1;fill-rule:nonzero;stroke:none;stroke-width:0.1"
         id="path468"
         inkscape:connector-curvature="0" /><path
         d="m 89.718,389.174 h 6.666 v 6.667 h -6.666 z m 10.666,-4 H 85.718 v 14.667 h 14.666 v -14.667"
         style="fill:#1f1e18;fill-opacity:1;fill-rule:nonzero;stroke:none;stroke-width:0.1"
         id="path470"
         inkscape:connector-curvature="0" /><path
         d="m 108.884,389.174 h 6.668 v 6.667 h -6.668 z m 10.668,-4 h -14.668 v 14.667 h 14.668 v -14.667"
         style="fill:#1f1e18;fill-opacity:1;fill-rule:nonzero;stroke:none;stroke-width:0.1"
         id="path472"
         inkscape:connector-curvature="0" /><path
         d="m 128.052,389.174 h 6.666 v 6.667 h -6.666 z m 10.666,-4 h -14.666 v 14.667 h 14.666 v -14.667"
         style="fill:#1f1e18;fill-opacity:1;fill-rule:nonzero;stroke:none;stroke-width:0.1"
         id="path474"
         inkscape:connector-curvature="0" /><path
         d="m 220.384,390.507 h -74.367 v 4 h 74.367 v -4"
         style="fill:#1f1e18;fill-opacity:1;fill-rule:nonzero;stroke:none;stroke-width:0.1"
         id="path476"
         inkscape:connector-curvature="0" /><path
         d="m 164.384,392.507 c 0,-2.209 -1.789,-4 -4,-4 -2.209,0 -4,1.791 -4,4 0,2.209 1.791,4 4,4 2.211,0 4,-1.791 4,-4"
         style="fill:#ffe58f;fill-opacity:1;fill-rule:nonzero;stroke:none;stroke-width:0.1"
         id="path478"
         inkscape:connector-curvature="0" /><path
         d="m 753.662,449.313 -2.828,2.829 8.839,8.839 2.828,-2.828 -8.839,-8.84"
         style="fill:#1f1e18;fill-opacity:1;fill-rule:nonzero;stroke:none;stroke-width:0.1"
         id="path480"
         inkscape:connector-curvature="0" /><path
         d="m 759.673,449.313 -8.839,8.84 2.828,2.828 8.839,-8.839 -2.828,-2.829"
         style="fill:#1f1e18;fill-opacity:1;fill-rule:nonzero;stroke:none;stroke-width:0.1"
         id="path482"
         inkscape:connector-curvature="0" /><path
         d="m 882.912,385.565 -2.828,2.829 6.804,6.804 2.828,-2.828 -6.804,-6.805"
         style="fill:#1f1e18;fill-opacity:1;fill-rule:nonzero;stroke:none;stroke-width:0.1"
         id="path484"
         inkscape:connector-curvature="0" /><path
         d="m 886.888,385.565 -6.804,6.805 2.828,2.828 6.804,-6.804 -2.828,-2.829"
         style="fill:#1f1e18;fill-opacity:1;fill-rule:nonzero;stroke:none;stroke-width:0.1"
         id="path486"
         inkscape:connector-curvature="0" /><path
         d="m 304.407,145.43 h 40.852 v 18.36 h -7.264 v 8.6 l -9.5,-8.6 h -24.088 v -18.36"
         style="fill:#84dbff;fill-opacity:1;fill-rule:nonzero;stroke:none;stroke-width:0.1"
         id="path488"
         inkscape:connector-curvature="0" /><path
         d="m 338.302,154.84 h -27.938 27.938"
         style="fill:#84dbff;fill-opacity:1;fill-rule:nonzero;stroke:none;stroke-width:0.1"
         id="path490"
         inkscape:connector-curvature="0" /><path
         d="m 338.302,152.84 h -27.938 v 4 h 27.938 v -4"
         style="fill:#1f1e18;fill-opacity:1;fill-rule:nonzero;stroke:none;stroke-width:0.1"
         id="path492"
         inkscape:connector-curvature="0" /><path
         d="m 773.278,195.52 -1.881,1.88 c -6.845,6.841 -6.845,17.935 0,24.781 l 0.256,0.257 c 6.844,6.844 17.94,6.844 24.784,0 l 1.878,-1.882 1.883,1.882 c 6.844,6.844 17.941,6.844 24.783,0 l 0.259,-0.257 c 6.843,-6.846 6.843,-17.94 0,-24.781 l -1.88,-1.88 -25.045,-25.05 -25.037,25.05"
         style="fill:#ffe58f;fill-opacity:1;fill-rule:nonzero;stroke:none;stroke-width:0.1"
         id="path494"
         inkscape:connector-curvature="0" /><path
         d="m 821.628,201.521 -2.83,2.828 c 3.265,3.265 3.264,8.579 -10e-4,11.844 l -0.238,0.239 c -1.596,1.594 -3.705,2.471 -5.943,2.471 v 4 c 3.306,0 6.419,-1.293 8.768,-3.64 l 0.239,-0.239 c 4.826,-4.828 4.827,-12.679 0.005,-17.503"
         style="fill:#1f1e18;fill-opacity:1;fill-rule:nonzero;stroke:none;stroke-width:0.1"
         id="path496"
         inkscape:connector-curvature="0" /><path
         d="m 115.348,137.75 25.567,15.82 -2.875,11.7 -44.4748,-27.52 h 21.7828"
         style="fill:#84dbff;fill-opacity:1;fill-rule:nonzero;stroke:none;stroke-width:0.1"
         id="path498"
         inkscape:connector-curvature="0" /><path
         d="m 97.7031,154.74 37.2629,23.06 -2.875,11.7 -30.486,-18.86 -3.9019,-15.9"
         style="fill:#84dbff;fill-opacity:1;fill-rule:nonzero;stroke:none;stroke-width:0.1"
         id="path500"
         inkscape:connector-curvature="0" /><path
         d="M 90.2078,128.47 H 148.12 v 7.02 H 90.2078 Z m 61.9122,-4 H 86.2078 v 15.02 H 152.12 v -15.02"
         style="fill:#1f1e18;fill-opacity:1;fill-rule:nonzero;stroke:none;stroke-width:0.1"
         id="path502"
         inkscape:connector-curvature="0" /><path
         d="m 96.0242,139.75 h 46.2808 l -13.618,61.062 h -19.042 z m 51.2708,-4 H 91.0344 l 15.4036,69.062 h 25.456 l 15.401,-69.062"
         style="fill:#1f1e18;fill-opacity:1;fill-rule:nonzero;stroke:none;stroke-width:0.1"
         id="path504"
         inkscape:connector-curvature="0" /><path
         d="m 112.343,194.27 h 13.641 -13.641"
         style="fill:#84dbff;fill-opacity:1;fill-rule:nonzero;stroke:none;stroke-width:0.1"
         id="path506"
         inkscape:connector-curvature="0" /><path
         d="m 125.984,192.27 h -13.641 v 4 h 13.641 v -4"
         style="fill:#1f1e18;fill-opacity:1;fill-rule:nonzero;stroke:none;stroke-width:0.1"
         id="path508"
         inkscape:connector-curvature="0" /><path
         d="M 680.302,211.03 H 781.6 v 80.359 H 680.302 Z m 105.298,-4 H 676.302 v 88.359 H 785.6 V 207.03"
         style="fill:#1f1e18;fill-opacity:1;fill-rule:nonzero;stroke:none;stroke-width:0.1"
         id="path510"
         inkscape:connector-curvature="0" /><path
         d="m 777.186,278.957 h -92.47 v -26.632 h 92.47 z m -4,-4 v -18.632 h -84.47 v 18.632 h 84.47"
         style="fill:#1f1e18;fill-opacity:1;fill-rule:nonzero;stroke:none;stroke-width:0.1"
         id="path512"
         inkscape:connector-curvature="0" /><path
         d="m 712.333,247.421 h -27.617 v -14.872 h 27.617 z m -4,-4 v -6.872 h -19.617 v 6.872 h 19.617"
         style="fill:#1f1e18;fill-opacity:1;fill-rule:nonzero;stroke:none;stroke-width:0.1"
         id="path514"
         inkscape:connector-curvature="0" /><path
         d="m 712.333,224.753 h -27.617 v 4 h 27.617 v -4"
         style="fill:#1f1e18;fill-opacity:1;fill-rule:nonzero;stroke:none;stroke-width:0.1"
         id="path516"
         inkscape:connector-curvature="0" /><path
         d="m 712.333,216.296 h -27.617 v 4 h 27.617 v -4"
         style="fill:#1f1e18;fill-opacity:1;fill-rule:nonzero;stroke:none;stroke-width:0.1"
         id="path518"
         inkscape:connector-curvature="0" /><path
         d="m 744.759,224.753 h -27.615 v 4 h 27.615 v -4"
         style="fill:#1f1e18;fill-opacity:1;fill-rule:nonzero;stroke:none;stroke-width:0.1"
         id="path520"
         inkscape:connector-curvature="0" /><path
         d="m 752.437,263.772 h -42.972 v 4 h 42.972 v -4"
         style="fill:#1f1e18;fill-opacity:1;fill-rule:nonzero;stroke:none;stroke-width:0.1"
         id="path522"
         inkscape:connector-curvature="0" /><path
         d="m 744.759,216.296 h -27.615 v 4 h 27.615 v -4"
         style="fill:#1f1e18;fill-opacity:1;fill-rule:nonzero;stroke:none;stroke-width:0.1"
         id="path524"
         inkscape:connector-curvature="0" /><path
         d="m 777.186,224.753 h -27.617 v 4 h 27.617 v -4"
         style="fill:#1f1e18;fill-opacity:1;fill-rule:nonzero;stroke:none;stroke-width:0.1"
         id="path526"
         inkscape:connector-curvature="0" /><path
         d="m 777.186,216.296 h -27.617 v 4 h 27.617 v -4"
         style="fill:#1f1e18;fill-opacity:1;fill-rule:nonzero;stroke:none;stroke-width:0.1"
         id="path528"
         inkscape:connector-curvature="0" /><path
         d="m 744.759,247.421 h -27.616 v -14.872 h 27.616 z m -4,-4 v -6.872 h -19.616 v 6.872 h 19.616"
         style="fill:#1f1e18;fill-opacity:1;fill-rule:nonzero;stroke:none;stroke-width:0.1"
         id="path530"
         inkscape:connector-curvature="0" /><path
         d="m 777.186,247.421 h -27.617 v -14.872 h 27.617 z m -4,-4 v -6.872 h -19.617 v 6.872 h 19.617"
         style="fill:#1f1e18;fill-opacity:1;fill-rule:nonzero;stroke:none;stroke-width:0.1"
         id="path532"
         inkscape:connector-curvature="0" /><path
         d="M 680.302,295.389 H 781.6 v 8.294 H 680.302 Z m 105.298,-4 H 676.302 v 16.294 H 785.6 v -16.294"
         style="fill:#1f1e18;fill-opacity:1;fill-rule:nonzero;stroke:none;stroke-width:0.1"
         id="path534"
         inkscape:connector-curvature="0" /><path
         d="m 687.108,297.624 h -3.996 v 4 h 3.996 v -4"
         style="fill:#1f1e18;fill-opacity:1;fill-rule:nonzero;stroke:none;stroke-width:0.1"
         id="path536"
         inkscape:connector-curvature="0" /><path
         d="m 694.028,297.624 h -3.998 v 4 h 3.998 v -4"
         style="fill:#1f1e18;fill-opacity:1;fill-rule:nonzero;stroke:none;stroke-width:0.1"
         id="path538"
         inkscape:connector-curvature="0" /><path
         d="m 700.946,297.624 h -3.998 v 4 h 3.998 v -4"
         style="fill:#1f1e18;fill-opacity:1;fill-rule:nonzero;stroke:none;stroke-width:0.1"
         id="path540"
         inkscape:connector-curvature="0" /><path
         d="m 729.358,282.693 h -35.277 v 4 h 35.277 v -4"
         style="fill:#1f1e18;fill-opacity:1;fill-rule:nonzero;stroke:none;stroke-width:0.1"
         id="path542"
         inkscape:connector-curvature="0" /><path
         d="m 689.088,282.693 h -4.372 v 4 h 4.372 v -4"
         style="fill:#1f1e18;fill-opacity:1;fill-rule:nonzero;stroke:none;stroke-width:0.1"
         id="path544"
         inkscape:connector-curvature="0" /><path
         d="m 475.768,317.923 h -4 v 8.119 h 4 v -8.119"
         style="fill:#1f1e18;fill-opacity:1;fill-rule:nonzero;stroke:none;stroke-width:0.1"
         id="path546"
         inkscape:connector-curvature="0" /><path
         d="m 460.733,311.415 -5.741,5.74 2.828,2.829 5.742,-5.74 -2.829,-2.829"
         style="fill:#1f1e18;fill-opacity:1;fill-rule:nonzero;stroke:none;stroke-width:0.1"
         id="path548"
         inkscape:connector-curvature="0" /><path
         d="m 449.413,299.009 v 4 l 8.118,0.002 v -4 l -8.118,-0.002"
         style="fill:#1f1e18;fill-opacity:1;fill-rule:nonzero;stroke:none;stroke-width:0.1"
         id="path550"
         inkscape:connector-curvature="0" /><path
         d="m 458.298,282.233 -2.828,2.829 5.741,5.742 2.828,-2.828 -5.741,-5.743"
         style="fill:#1f1e18;fill-opacity:1;fill-rule:nonzero;stroke:none;stroke-width:0.1"
         id="path552"
         inkscape:connector-curvature="0" /><path
         d="m 476.442,276.655 -4,0.001 0.003,8.119 4,-10e-4 -0.003,-8.119"
         style="fill:#1f1e18;fill-opacity:1;fill-rule:nonzero;stroke:none;stroke-width:0.1"
         id="path554"
         inkscape:connector-curvature="0" /><path
         d="m 490.392,282.712 -5.741,5.742 2.828,2.828 5.741,-5.742 -2.828,-2.828"
         style="fill:#1f1e18;fill-opacity:1;fill-rule:nonzero;stroke:none;stroke-width:0.1"
         id="path556"
         inkscape:connector-curvature="0" /><path
         d="m 498.8,299.686 -8.119,0.001 v 4 l 8.119,-0.001 v -4"
         style="fill:#1f1e18;fill-opacity:1;fill-rule:nonzero;stroke:none;stroke-width:0.1"
         id="path558"
         inkscape:connector-curvature="0" /><path
         d="m 487.003,311.894 -2.828,2.828 5.739,5.74 2.828,-2.828 -5.739,-5.74"
         style="fill:#1f1e18;fill-opacity:1;fill-rule:nonzero;stroke:none;stroke-width:0.1"
         id="path560"
         inkscape:connector-curvature="0" /><path
         d="m 519.837,193.39 h -4 v 7.532 l 0.802,0.6 c 4.426,3.311 6.965,8.363 6.965,13.858 v 33.527 l -0.355,7.312 c -0.002,2.957 -2.328,5.284 -5.187,5.284 -5.173,0 -5.186,-2.45 -5.186,-3.382 v -0.007 h -4 v 1.797 c 0,2.857 -2.324,5.182 -5.182,5.182 -2.858,0 -5.183,-2.325 -5.183,-5.182 h -4 v 3.592 c 0,2.857 -2.326,5.182 -5.186,5.182 -2.857,0 -5.181,-2.325 -5.181,-5.182 v -3.684 -0.004 h -4 c 0,1.737 -0.067,41.028 -0.067,41.028 0,3 -2.438,5.437 -5.435,5.437 -2.995,0 -5.43,-2.437 -5.43,-5.433 l -0.039,-72.617 -3.998,-0.083 -0.149,3.54 -0.002,14.933 c 0,4.945 -4.028,8.969 -8.98,8.969 h -1.65 V 243.99 l 0.183,-1.509 -0.183,-0.065 V 226.32 l 20.128,-23.927 c 1.624,-1.006 5.537,-3.243 7.86,-3.813 l 1.527,-0.37 v -4.82 h -4 v 1.78 c -3.444,1.27 -7.585,3.88 -7.785,4 l -0.262,0.17 -21.468,25.521 v 18.769 l -0.16,1.551 0.16,0.056 v 10.557 l -0.107,0.012 0.166,3.781 5.591,0.002 c 3.563,0 6.796,-1.442 9.144,-3.773 l 0.024,45.032 c 0,5.2 4.23,9.432 9.43,9.432 5.203,0 9.435,-4.232 9.435,-9.433 0,0 0.029,-17.615 0.05,-29.78 1.478,1.02 3.27,1.618 5.198,1.618 3.838,0 7.133,-2.365 8.505,-5.713 1.592,1.324 3.637,2.121 5.864,2.121 3.602,0 6.726,-2.084 8.229,-5.11 1.537,0.988 3.614,1.52 6.139,1.52 5.064,0 9.185,-4.122 9.185,-9.188 l 0.356,-7.312 0.001,-33.623 c 0,-6.429 -2.818,-12.361 -7.767,-16.43 v -5.56"
         style="fill:#1f1e18;fill-opacity:1;fill-rule:nonzero;stroke:none;stroke-width:0.1"
         id="path562"
         inkscape:connector-curvature="0" /><path
         d="m 851.838,340.364 h -4 v 24.938 h 4 v -24.938"
         style="fill:#1f1e18;fill-opacity:1;fill-rule:nonzero;stroke:none;stroke-width:0.1"
         id="path564"
         inkscape:connector-curvature="0" /><path
         d="m 851.838,327.302 h -4 v 8.312 h 4 v -8.312"
         style="fill:#1f1e18;fill-opacity:1;fill-rule:nonzero;stroke:none;stroke-width:0.1"
         id="path566"
         inkscape:connector-curvature="0" /><path
         d="m 851.838,318.612 h -4 v 4.342 h 4 v -4.342"
         style="fill:#1f1e18;fill-opacity:1;fill-rule:nonzero;stroke:none;stroke-width:0.1"
         id="path568"
         inkscape:connector-curvature="0" /><path
         d="m 867.883,344.499 h -4 v 10.223 h 4 v -10.223"
         style="fill:#1f1e18;fill-opacity:1;fill-rule:nonzero;stroke:none;stroke-width:0.1"
         id="path570"
         inkscape:connector-curvature="0" /><path
         d="m 789.191,388.985 c 0.032,0.221 0.068,0.44 0.068,0.668 0,2.576 -2.09,4.666 -4.667,4.666 -0.508,0 -0.99,-0.101 -1.447,-0.252 -0.688,4.666 -4.696,8.252 -9.553,8.252 -0.713,0 -1.406,-0.082 -2.074,-0.228 -2.167,2.387 -5.283,3.894 -8.759,3.894 -5.556,0 -10.207,-3.836 -11.478,-9 h -0.022 c -3.866,0 -7,-3.132 -7,-7 0,-0.339 0.034,-0.672 0.081,-1 h 44.851"
         style="fill:#84dbff;fill-opacity:1;fill-rule:nonzero;stroke:none;stroke-width:0.1"
         id="path572"
         inkscape:connector-curvature="0" /><path
         d="m 806.69,364.152 h 41.929 l 0.007,0.115 c 0,4.654 -3.772,8.429 -8.431,8.429 -0.789,0 -1.552,-0.115 -2.278,-0.318 -0.826,6.027 -5.993,10.676 -12.251,10.676 -6.834,0 -12.373,-5.541 -12.373,-12.369 l 0.002,-0.082 c -3.415,-0.391 -6.132,-3.059 -6.605,-6.451"
         style="fill:#84dbff;fill-opacity:1;fill-rule:nonzero;stroke:none;stroke-width:0.1"
         id="path574"
         inkscape:connector-curvature="0" /><path
         d="m 128.298,518.479 -0.338,3.985 c 1.382,0.117 2.787,0.179 4.178,0.183 l 0.013,-4 c -1.283,-0.004 -2.579,-0.061 -3.853,-0.168 z m 11.534,-0.436 c -1.264,0.205 -2.552,0.36 -3.827,0.46 l 0.312,3.987 c 1.385,-0.108 2.783,-0.276 4.156,-0.498 z m -19.129,-0.847 -0.99,3.875 c 1.345,0.344 2.722,0.636 4.095,0.867 l 0.666,-3.944 c -1.264,-0.213 -2.533,-0.482 -3.771,-0.798 z m 26.602,-1.013 c -1.215,0.412 -2.459,0.777 -3.698,1.086 l 0.965,3.881 c 1.346,-0.334 2.698,-0.731 4.018,-1.179 z m -33.874,-1.508 -1.619,3.657 c 1.268,0.562 2.578,1.078 3.891,1.534 l 1.311,-3.78 c -1.209,-0.419 -2.414,-0.894 -3.583,-1.411 z m 40.938,-1.566 c -1.127,0.607 -2.294,1.174 -3.468,1.684 l 1.596,3.668 c 1.275,-0.555 2.543,-1.17 3.769,-1.829 z m -47.696,-2.123 -2.201,3.341 c 1.161,0.764 2.367,1.489 3.588,2.155 l 1.916,-3.511 c -1.123,-0.613 -2.235,-1.281 -3.303,-1.985 z m 54.159,-2.074 c -1.012,0.783 -2.069,1.534 -3.144,2.232 l 2.18,3.355 c 1.166,-0.758 2.315,-1.574 3.413,-2.425 z m -60.224,-2.679 -2.7162,2.935 c 1.0203,0.945 2.0918,1.858 3.1832,2.714 l 2.469,-3.147 c -1.007,-0.789 -1.994,-1.631 -2.936,-2.502 z m 65.911,-2.522 c -0.869,0.937 -1.79,1.851 -2.736,2.717 l 2.699,2.951 c 1.028,-0.939 2.028,-1.932 2.97,-2.948 z m -71.1167,-3.16 -3.1621,2.451 c 0.8504,1.096 1.7578,2.173 2.6993,3.2 l 2.9492,-2.702 c -0.8672,-0.947 -1.7039,-1.939 -2.4864,-2.949 z m 75.8757,-2.9 c -0.705,1.07 -1.463,2.122 -2.253,3.127 l 3.145,2.472 c 0.858,-1.092 1.682,-2.234 2.448,-3.396 z m -80.0807,-3.558 -3.5215,1.898 c 0.6562,1.218 1.3762,2.429 2.1367,3.599 l 3.3535,-2.18 c -0.7019,-1.079 -1.364,-2.195 -1.9687,-3.317 z m 83.7767,-3.196 c -0.519,1.167 -1.093,2.329 -1.708,3.453 l 3.509,1.92 c 0.668,-1.22 1.292,-2.482 1.855,-3.751 z m -86.8595,-3.868 -3.7852,1.291 c 0.448,1.317 0.9578,2.631 1.5137,3.905 l 3.666,-1.599 c -0.5117,-1.174 -0.9809,-2.384 -1.3945,-3.597 z m 89.3885,-3.403 c -0.318,1.241 -0.692,2.482 -1.112,3.689 l 3.777,1.314 c 0.457,-1.311 0.863,-2.66 1.21,-4.008 z m -91.255,-4.067 -3.9472,0.646 c 0.2246,1.374 0.5097,2.753 0.8457,4.099 l 3.8808,-0.971 c -0.3093,-1.239 -0.5722,-2.509 -0.7793,-3.774 z m 92.548,-3.526 c -0.11,1.274 -0.275,2.561 -0.489,3.824 l 3.943,0.669 c 0.232,-1.37 0.411,-2.766 0.53,-4.149 z m -97.1612,-4.158 0.0019,0.16 c -0.0012,1.297 0.0535,2.666 0.1602,4.015 l 3.9883,-0.318 c -0.0997,-1.243 -0.1497,-2.506 -0.1497,-3.753 z m 101.1632,-4.075 -3.986,0.326 c 0.103,1.269 0.156,2.565 0.156,3.853 l -10e-4,0.21 h 4 l 10e-4,-0.182 c 0,-1.424 -0.057,-2.83 -0.17,-4.207 z M 82.3359,463.54 c -0.2296,1.371 -0.405,2.767 -0.5214,4.15 l 3.9863,0.336 c 0.1074,-1.275 0.2683,-2.562 0.4805,-3.826 z m 99.0951,-3.99 -3.879,0.979 c 0.312,1.239 0.578,2.508 0.788,3.773 l 3.945,-0.655 c -0.227,-1.373 -0.515,-2.752 -0.854,-4.097 z m -97.0318,-4.117 c -0.4512,1.308 -0.8554,2.657 -1.2,4.009 l 3.875,0.99 c 0.3184,-1.246 0.6903,-2.489 1.1067,-3.693 z m 94.3178,-3.799 -3.662,1.608 c 0.515,1.174 0.986,2.383 1.401,3.592 l 3.783,-1.297 c -0.45,-1.314 -0.962,-2.627 -1.522,-3.903 z m -90.9428,-3.849 c -0.6629,1.218 -1.284,2.481 -1.8457,3.753 l 3.6582,1.616 c 0.518,-1.172 1.0903,-2.335 1.7016,-3.457 z m 86.9558,-3.508 -3.347,2.189 c 0.701,1.072 1.365,2.186 1.976,3.312 l 3.516,-1.906 c -0.662,-1.222 -1.384,-2.432 -2.145,-3.595 z m -82.3648,-3.481 c -0.8593,1.1 -1.6797,2.245 -2.4382,3.401 l 3.3433,2.194 c 0.6992,-1.064 1.4555,-2.118 2.2473,-3.132 z m 77.2258,-3.119 -2.944,2.708 c 0.87,0.945 1.707,1.935 2.493,2.943 l 3.156,-2.457 c -0.852,-1.094 -1.762,-2.168 -2.705,-3.194 z m -71.5512,-3.024 c -1.0261,0.942 -2.023,1.936 -2.9636,2.955 l 2.9394,2.713 c 0.866,-0.938 1.7852,-1.854 2.7294,-2.722 z m 65.4042,-2.643 -2.463,3.152 c 1.011,0.79 2,1.629 2.941,2.496 l 2.711,-2.942 c -1.02,-0.94 -2.093,-1.85 -3.189,-2.706 z m -58.8,-2.489 c -1.161,0.757 -2.307,1.575 -3.408,2.43 l 2.455,3.158 c 1.014,-0.787 2.071,-1.541 3.14,-2.239 z m 51.806,-2.095 -1.91,3.514 c 1.124,0.611 2.237,1.277 3.307,1.978 l 2.193,-3.344 c -1.161,-0.762 -2.369,-1.485 -3.59,-2.148 z m -44.444,-1.884 c -1.278,0.559 -2.545,1.177 -3.765,1.837 l 1.905,3.518 c 1.122,-0.607 2.288,-1.176 3.463,-1.691 z m 36.792,-1.483 -1.303,3.782 c 1.21,0.416 2.417,0.888 3.586,1.403 l 1.611,-3.661 c -1.27,-0.559 -2.581,-1.072 -3.894,-1.524 z m -28.873,-1.225 c -1.351,0.34 -2.701,0.74 -4.015,1.188 l 1.293,3.786 c 1.209,-0.414 2.453,-0.782 3.696,-1.094 z m 20.763,-0.832 -0.659,3.946 c 1.262,0.21 2.531,0.476 3.773,0.791 l 0.982,-3.878 c -1.348,-0.341 -2.727,-0.631 -4.096,-0.859 z m -12.51,-0.525 c -1.392,0.112 -2.789,0.283 -4.155,0.508 l 0.651,3.947 c 1.257,-0.207 2.543,-0.365 3.824,-0.468 z m 4.177,-0.165 -0.003,4 c 1.285,10e-4 2.581,0.055 3.853,0.161 l 0.33,-3.987 c -1.38,-0.114 -2.786,-0.173 -4.18,-0.174"
         style="fill:#1f1e18;fill-opacity:1;fill-rule:nonzero;stroke:none;stroke-width:0.1"
         id="path576"
         inkscape:connector-curvature="0" /><path
         d="m 166.968,471.979 c 0,-19.144 -15.522,-34.667 -34.666,-34.667 -19.147,0 -34.6665,15.523 -34.6665,34.667 0,19.146 15.5195,34.668 34.6665,34.668 19.144,0 34.666,-15.522 34.666,-34.668"
         style="fill:#ffe58f;fill-opacity:1;fill-rule:nonzero;stroke:none;stroke-width:0.1"
         id="path578"
         inkscape:connector-curvature="0" /><path
         d="m 134.302,483.052 h -4 v 16.717 h 4 v -16.717"
         style="fill:#1f1e18;fill-opacity:1;fill-rule:nonzero;stroke:none;stroke-width:0.1"
         id="path580"
         inkscape:connector-curvature="0" /><path
         d="m 132.302,448.19 c -13.144,0 -23.836,10.692 -23.836,23.834 0,10.12 6.43,19.157 16.003,22.49 l 1.314,-3.778 c -7.966,-2.773 -13.317,-10.293 -13.317,-18.712 0,-10.936 8.898,-19.834 19.836,-19.834 10.937,0 19.836,8.898 19.836,19.834 0,8.419 -5.352,15.938 -13.317,18.712 l 1.317,3.778 c 9.57,-3.333 16,-12.371 16,-22.49 0,-13.142 -10.693,-23.834 -23.836,-23.834"
         style="fill:#1f1e18;fill-opacity:1;fill-rule:nonzero;stroke:none;stroke-width:0.1"
         id="path582"
         inkscape:connector-curvature="0" /><path
         d="m 418.302,417.979 h -4 v 4 h 4 z m 8,0 h -4 v 4 h 4 z m 8,0 h -4 v 4 h 4 z m 8,0 h -4 v 4 h 4 z m 8,0 h -4 v 4 h 4 v -4"
         style="fill:#1f1e18;fill-opacity:1;fill-rule:nonzero;stroke:none;stroke-width:0.1"
         id="path584"
         inkscape:connector-curvature="0" /></g></g></svg>