<?xml version="1.0" encoding="utf-8"?>
<!-- Generator: Adobe Illustrator 18.0.0, SVG Export Plug-In . SVG Version: 6.00 Build 0)  -->
<!DOCTYPE svg PUBLIC "-//W3C//DTD SVG 1.1//EN" "http://www.w3.org/Graphics/SVG/1.1/DTD/svg11.dtd">
<svg version="1.1" id="Layer_1" xmlns="http://www.w3.org/2000/svg" xmlns:xlink="http://www.w3.org/1999/xlink" x="0px" y="0px"
	 viewBox="0 0 129.5 129.5" enable-background="new 0 0 129.5 129.5" xml:space="preserve">
<g>
	<g>
		<rect x="8.3" y="27.7" fill="none" width="112.6" height="53.9"/>
		<rect x="10.5" y="29.7" fill="#84DBFF" width="108.4" height="49.9"/>
		<polygon fill="#FFFFFF" points="90.3,31.2 95.6,21 86.2,3.8 76.9,21 82.2,31.2 		"/>
		<polygon fill="#FFFFFF" points="90.3,31.2 82.2,31.2 81.5,47.3 90.9,47.3 		"/>
		<polygon fill="#FFFFFF" points="92.6,81.6 90.9,47.3 81.5,47.3 79.9,81.6 		"/>
		<polygon fill="#FF7058" points="90.6,81.6 89,49.3 83.4,49.3 81.9,81.6 		"/>
		<g>
			<path fill="#231F20" d="M103.8,6.4c-0.2,0-0.4-0.1-0.5-0.2c-0.3-0.3-0.3-0.8,0-1.1l1.3-1.3c0.3-0.3,0.8-0.3,1.1,0
				c0.3,0.3,0.3,0.8,0,1.1l-1.3,1.3C104.2,6.3,104,6.4,103.8,6.4z"/>
		</g>
		<g>
			<path fill="#231F20" d="M99.8,10.4c-0.2,0-0.4-0.1-0.5-0.2c-0.3-0.3-0.3-0.8,0-1.1l1.3-1.3c0.3-0.3,0.8-0.3,1.1,0
				c0.3,0.3,0.3,0.8,0,1.1l-1.3,1.3C100.1,10.3,100,10.4,99.8,10.4z"/>
		</g>
		<g>
			<path fill="#231F20" d="M105.1,10.4c-0.2,0-0.4-0.1-0.5-0.2l-1.3-1.3c-0.3-0.3-0.3-0.8,0-1.1c0.3-0.3,0.8-0.3,1.1,0l1.3,1.3
				c0.3,0.3,0.3,0.8,0,1.1C105.5,10.3,105.3,10.4,105.1,10.4z"/>
		</g>
		<g>
			<path fill="#231F20" d="M101.1,6.4c-0.2,0-0.4-0.1-0.5-0.2l-1.3-1.3c-0.3-0.3-0.3-0.8,0-1.1c0.3-0.3,0.8-0.3,1.1,0l1.3,1.3
				c0.3,0.3,0.3,0.8,0,1.1C101.4,6.3,101.2,6.4,101.1,6.4z"/>
		</g>
		<g>
			<path fill="#231F20" d="M67.2,64.9c-0.2,0-0.4-0.1-0.5-0.2c-0.3-0.3-0.3-0.8,0-1.1l1.3-1.3c0.3-0.3,0.8-0.3,1.1,0
				c0.3,0.3,0.3,0.8,0,1.1l-1.3,1.3C67.6,64.8,67.4,64.9,67.2,64.9z"/>
		</g>
		<g>
			<path fill="#231F20" d="M63.2,68.9c-0.2,0-0.4-0.1-0.5-0.2c-0.3-0.3-0.3-0.8,0-1.1l1.3-1.3c0.3-0.3,0.8-0.3,1.1,0
				c0.3,0.3,0.3,0.8,0,1.1l-1.3,1.3C63.6,68.8,63.4,68.9,63.2,68.9z"/>
		</g>
		<g>
			<path fill="#231F20" d="M68.5,68.9c-0.2,0-0.4-0.1-0.5-0.2l-1.3-1.3c-0.3-0.3-0.3-0.8,0-1.1c0.3-0.3,0.8-0.3,1.1,0l1.3,1.3
				c0.3,0.3,0.3,0.8,0,1.1C68.9,68.8,68.7,68.9,68.5,68.9z"/>
		</g>
		<g>
			<path fill="#231F20" d="M64.5,64.9c-0.2,0-0.4-0.1-0.5-0.2l-1.3-1.3c-0.3-0.3-0.3-0.8,0-1.1c0.3-0.3,0.8-0.3,1.1,0l1.3,1.3
				c0.3,0.3,0.3,0.8,0,1.1C64.9,64.8,64.7,64.9,64.5,64.9z"/>
		</g>
		<g>
			<path fill="#231F20" d="M85.2,118.6c-0.2,0-0.4-0.1-0.5-0.2c-0.3-0.3-0.3-0.8,0-1.1L86,116c0.3-0.3,0.8-0.3,1.1,0
				c0.3,0.3,0.3,0.8,0,1.1l-1.3,1.3C85.6,118.5,85.4,118.6,85.2,118.6z"/>
		</g>
		<g>
			<path fill="#231F20" d="M81.2,122.6c-0.2,0-0.4-0.1-0.5-0.2c-0.3-0.3-0.3-0.8,0-1.1l1.3-1.3c0.3-0.3,0.8-0.3,1.1,0
				c0.3,0.3,0.3,0.8,0,1.1l-1.3,1.3C81.6,122.5,81.4,122.6,81.2,122.6z"/>
		</g>
		<g>
			<path fill="#231F20" d="M86.5,122.6c-0.2,0-0.4-0.1-0.5-0.2l-1.3-1.3c-0.3-0.3-0.3-0.8,0-1.1c0.3-0.3,0.8-0.3,1.1,0l1.3,1.3
				c0.3,0.3,0.3,0.8,0,1.1C86.9,122.5,86.7,122.6,86.5,122.6z"/>
		</g>
		<g>
			<path fill="#231F20" d="M82.5,118.6c-0.2,0-0.4-0.1-0.5-0.2l-1.3-1.3c-0.3-0.3-0.3-0.8,0-1.1s0.8-0.3,1.1,0l1.3,1.3
				c0.3,0.3,0.3,0.8,0,1.1C82.9,118.5,82.7,118.6,82.5,118.6z"/>
		</g>
		<polygon fill="#E6E9EE" points="82.9,97.8 46.6,97.8 50.4,103.4 79.1,103.4 		"/>
		<circle fill="#E6E9EE" cx="64.7" cy="87.2" r="2.9"/>
		<path fill="#231F20" d="M117.4,109.9H12.1C5.4,109.9,0,104.4,0,97.8C0,97.3,0.3,97,0.7,97h128c0.4,0,0.8,0.3,0.8,0.8
			C129.5,104.4,124.1,109.9,117.4,109.9z M1.5,98.5c0.4,5.5,5,9.9,10.6,9.9h105.3c5.6,0,10.2-4.4,10.6-9.9H1.5z"/>
		<path fill="#FFFFFF" d="M22.7,42.2l76.7,0l0,10.2l-76.7,0c-2.8,0-5.1-2.3-5.1-5.1l0,0C17.6,44.5,19.8,42.2,22.7,42.2z"/>
		<path fill="#FFFFFF" d="M27.9,52.4l-5.3,0c-2.8,0-5.1-2.3-5.1-5.1v0c0-2.8,2.3-5.1,5.1-5.1l5.3,0L27.9,52.4z"/>
		<polygon fill="#FFFFFF" points="99.3,52.4 111.7,47.3 99.3,42.2 		"/>
		<rect x="35.4" y="2.5" fill="#FFFFFF" width="19.2" height="79.2"/>
		<g>
			<rect x="37.2" y="4.3" fill="#FFD05B" width="15.6" height="75.5"/>
		</g>
		<g>
			<path fill="#231F20" d="M42.8,77.6c-2.5,0-4.6-2.1-4.6-4.6s2.1-4.6,4.6-4.6c2.5,0,4.6,2.1,4.6,4.6S45.4,77.6,42.8,77.6z
				 M42.8,69.9c-1.7,0-3.1,1.4-3.1,3.1s1.4,3.1,3.1,3.1c1.7,0,3.1-1.4,3.1-3.1S44.6,69.9,42.8,69.9z"/>
		</g>
		<g>
			<circle fill="#FFFFFF" cx="42.8" cy="73" r="2.8"/>
		</g>
		<path fill="#231F20" d="M118.7,17.7h-24L86.2,2.2l-8.4,15.5H55.4v-16H34.7v16H10.8c-1.7,0-3.1,1.4-3.1,3.1v69.9
			c0,1.7,1.4,3.1,3.1,3.1h107.8c1.7,0,3.1-1.4,3.1-3.1V20.8C121.7,19.1,120.3,17.7,118.7,17.7z M86.2,17.9c0.9,0,1.6,0.7,1.6,1.6
			c0,0.9-0.7,1.6-1.6,1.6c-0.9,0-1.6-0.7-1.6-1.6C84.6,18.7,85.3,17.9,86.2,17.9z M85.5,6.7v9.8c-1.4,0.3-2.4,1.6-2.4,3
			c0,1.7,1.4,3.1,3.1,3.1c1.7,0,3.1-1.4,3.1-3.1c0-1.5-1-2.7-2.4-3V6.7L94.8,21l-4.9,9.5h-7.2L77.7,21L85.5,6.7z M90,41.5h-7.4
			l0.4-9.5h6.7L90,41.5z M55.4,19.2H77L76,21l3.1,6H55.4V19.2z M55.4,28.5h24.5l1.5,2.9l-0.5,10.1l-25.6,0V28.5z M55.4,43l43.2,0
			v3.6l-43.2,0V43z M55.4,48.1l43.2,0v3.6l-43.2,0V48.1z M91.8,80.9H80.7L82,53.2l8.5,0L91.8,80.9z M55.4,53.2l25,0l-1.2,27.7H55.4
			V53.2z M36.2,3.2h17.7v4.4h-5.3v1.5h5.3v4.1h-5.3v1.5h5.3v4.1h-5.3v1.5h5.3v4.1h-5.3V26h5.3v4.1h-5.3v1.5h5.3v4.1h-5.3v1.5h5.3
			v4.1h-5.3v1.5h5.3v4.1h-5.3v1.5h5.3v4.1h-5.3V54h5.3v4.1h-5.3v1.5h5.3v4.1h-5.3v1.5h5.3v4.1h-5.3v1.5h5.3V75h-5.3v1.5h5.3v4.4
			H36.2V3.2z M9.3,20.8c0-0.9,0.7-1.6,1.6-1.6h23.8V27H9.3V20.8z M9.3,28.5h25.4v13l-12,0c-3,0-5.5,2.3-5.8,5.3c0,0.2,0,0.4,0,0.6
			c0,1.4,0.5,2.7,1.3,3.7c1.1,1.3,2.7,2.1,4.5,2.1l12,0v27.7H9.3V28.5z M28.7,46.6V43h6v3.6H28.7z M34.7,48.1v3.6l-6,0v-3.6H34.7z
			 M27.2,43v8.7h-4.5c-1.5,0-2.8-0.8-3.6-1.9c-0.5-0.7-0.7-1.5-0.7-2.4c0-0.4,0.1-0.7,0.1-1.1c0.1-0.3,0.2-0.7,0.4-1
			c0.6-1.1,1.7-2,3-2.2c0.1,0,0.1,0,0.2,0c0.2,0,0.5-0.1,0.7-0.1H27.2z M120.2,90.7c0,0.9-0.7,1.6-1.6,1.6H10.8
			c-0.9,0-1.6-0.7-1.6-1.6v-8.3h69.8h14.3h26.8V90.7z M120.2,80.9H93.3L92,53.2h7.3c0.1,0,0.2,0,0.3-0.1L112,48
			c0.3-0.1,0.5-0.4,0.5-0.7s-0.2-0.6-0.5-0.7l-12.4-5.1c0,0,0,0,0,0c-0.1,0-0.2-0.1-0.3-0.1l-7.8,0l-0.5-10.1l1.5-2.9h27.6V80.9z
			 M100.1,51.3v-8l9.7,4L100.1,51.3z M120.2,27H93.3l3.1-6l-1-1.8h23.2c0.9,0,1.6,0.7,1.6,1.6V27z"/>
		<path fill="#231F20" d="M105.7,66.2c-2.2,0-4-1.8-4-4c0-2.2,1.8-4,4-4s4,1.8,4,4C109.8,64.4,107.9,66.2,105.7,66.2z M105.7,59.7
			c-1.4,0-2.5,1.1-2.5,2.5c0,1.4,1.1,2.5,2.5,2.5s2.5-1.1,2.5-2.5C108.3,60.8,107.1,59.7,105.7,59.7z"/>
		<circle fill="#E6E9EE" cx="20.2" cy="8.3" r="3.4"/>
		<circle fill="#84DBFF" cx="123" cy="10.5" r="2"/>
		<path fill="#231F20" d="M16.2,39.2c-1.5,0-2.8-1.2-2.8-2.8c0-1.5,1.2-2.8,2.8-2.8c1.5,0,2.8,1.2,2.8,2.8
			C18.9,38,17.7,39.2,16.2,39.2z M16.2,35.2c-0.7,0-1.3,0.6-1.3,1.3c0,0.7,0.6,1.3,1.3,1.3c0.7,0,1.3-0.6,1.3-1.3
			C17.4,35.7,16.9,35.2,16.2,35.2z"/>
		<circle fill="#84DBFF" cx="109" cy="125.8" r="2"/>
		<g>
			<path fill="#231F20" d="M26,118.6h-7.8c-0.4,0-0.8-0.3-0.8-0.8c0-0.4,0.3-0.8,0.8-0.8H26c0.4,0,0.8,0.3,0.8,0.8
				C26.7,118.2,26.4,118.6,26,118.6z"/>
		</g>
		<g>
			<path fill="#231F20" d="M33.3,118.6h-2.9c-0.4,0-0.8-0.3-0.8-0.8c0-0.4,0.3-0.8,0.8-0.8h2.9c0.4,0,0.8,0.3,0.8,0.8
				C34.1,118.2,33.8,118.6,33.3,118.6z"/>
		</g>
		<g>
			<path fill="#231F20" d="M31,122.3h-7c-0.4,0-0.8-0.3-0.8-0.8c0-0.4,0.3-0.8,0.8-0.8h7c0.4,0,0.8,0.3,0.8,0.8
				C31.8,122,31.5,122.3,31,122.3z"/>
		</g>
	</g>
</g>
</svg>
