<?xml version="1.0" encoding="UTF-8" standalone="no"?>
<!-- Generator: Adobe Illustrator 15.0.2, SVG Export Plug-In . SVG Version: 6.00 Build 0)  -->

<svg
   xmlns:dc="http://purl.org/dc/elements/1.1/"
   xmlns:cc="http://creativecommons.org/ns#"
   xmlns:rdf="http://www.w3.org/1999/02/22-rdf-syntax-ns#"
   xmlns:svg="http://www.w3.org/2000/svg"
   xmlns="http://www.w3.org/2000/svg"
   xmlns:xlink="http://www.w3.org/1999/xlink"
   xmlns:sodipodi="http://sodipodi.sourceforge.net/DTD/sodipodi-0.dtd"
   xmlns:inkscape="http://www.inkscape.org/namespaces/inkscape"
   version="1.1"
   id="layer_1"
   x="0px"
   y="0px"
   width="698.87903"
   height="257.69601"
   viewBox="0 0 698.87903 257.69601"
   enable-background="new 0 0 800 800"
   xml:space="preserve"
   sodipodi:docname="website-design-tips-for-a-small-business.svg"
   inkscape:version="0.92.3 (2405546, 2018-03-11)"><metadata
   id="metadata1502"><rdf:RDF><cc:Work
       rdf:about=""><dc:format>image/svg+xml</dc:format><dc:type
         rdf:resource="http://purl.org/dc/dcmitype/StillImage" /><dc:title></dc:title></cc:Work></rdf:RDF></metadata><defs
   id="defs1500">
	<defs
   id="defs3">
		<rect
   height="800"
   width="800"
   id="SVGID_1_"
   x="0"
   y="0" />
	</defs>
	<clipPath
   id="SVGID_2_">
		<use
   id="use5"
   overflow="visible"
   xlink:href="#SVGID_1_"
   style="overflow:visible"
   x="0"
   y="0"
   width="100%"
   height="100%" />
	</clipPath>
	
	
	
	
</defs><sodipodi:namedview
   pagecolor="#ffffff"
   bordercolor="#666666"
   borderopacity="1"
   objecttolerance="10"
   gridtolerance="10"
   guidetolerance="10"
   inkscape:pageopacity="0"
   inkscape:pageshadow="2"
   inkscape:window-width="1920"
   inkscape:window-height="1001"
   id="namedview1498"
   showgrid="false"
   inkscape:pagecheckerboard="true"
   inkscape:zoom="1.668772"
   inkscape:cx="250.35012"
   inkscape:cy="92.301774"
   inkscape:window-x="-9"
   inkscape:window-y="-9"
   inkscape:window-maximized="1"
   inkscape:current-layer="layer_1" />
<g
   id="g1493"
   clip-path="url(#SVGID_2_)"
   transform="translate(-50.007999,-507.382)">
		<g
   id="g688">
			<rect
   style="fill:#111111"
   id="rect686"
   height="2"
   width="19"
   y="682.25"
   x="83.162003" />
		</g>
		<g
   id="g704">
			<g
   id="g692">
				<path
   style="fill:#111111"
   inkscape:connector-curvature="0"
   id="path690"
   d="m 527.816,759.079 h -9.117 c -0.831,0 -1.612,-0.323 -2.199,-0.911 -0.588,-0.588 -0.911,-1.369 -0.91,-2.2 l -10e-4,-4.483 c -2.463,-0.646 -4.821,-1.611 -7.031,-2.875 l -3.159,3.159 c -1.174,1.174 -3.222,1.173 -4.397,10e-4 l -6.447,-6.448 c -0.588,-0.588 -0.911,-1.368 -0.911,-2.199 0,-0.831 0.323,-1.611 0.911,-2.199 l 3.171,-3.171 c -1.284,-2.199 -2.271,-4.55 -2.938,-7.005 h -4.468 c -1.715,0 -3.109,-1.396 -3.109,-3.11 v -9.117 c 0,-1.715 1.395,-3.109 3.109,-3.109 h 4.484 c 0.648,-2.465 1.612,-4.824 2.876,-7.031 l -3.159,-3.159 c -1.212,-1.213 -1.212,-3.186 -0.001,-4.398 l 6.448,-6.446 c 1.176,-1.176 3.223,-1.176 4.398,0 l 3.171,3.171 c 2.201,-1.286 4.551,-2.271 7.005,-2.939 v -4.467 c 0,-1.715 1.395,-3.11 3.109,-3.11 h 9.117 c 1.715,0 3.11,1.396 3.11,3.11 v 4.484 c 2.465,0.646 4.823,1.611 7.031,2.875 l 3.158,-3.159 c 1.176,-1.176 3.223,-1.175 4.398,-10e-4 l 6.447,6.448 c 0.588,0.588 0.911,1.368 0.911,2.199 0,0.831 -0.323,1.611 -0.911,2.199 l -3.171,3.171 c 1.285,2.2 2.271,4.55 2.939,7.005 h 4.467 c 1.715,0 3.109,1.396 3.109,3.11 v 9.116 c 0,1.715 -1.395,3.11 -3.109,3.11 h -4.484 c -0.648,2.465 -1.612,4.824 -2.876,7.031 l 3.159,3.159 c 1.213,1.213 1.213,3.186 0,4.398 l -6.446,6.446 c -1.176,1.176 -3.223,1.176 -4.398,0 l -3.171,-3.171 c -2.201,1.285 -4.552,2.271 -7.006,2.939 v 4.467 c 0.001,1.715 -1.394,3.11 -3.109,3.11 z m -19.569,-12.987 0.671,0.408 c 2.449,1.49 5.106,2.576 7.898,3.229 l 0.772,0.181 0.001,6.06 c 0,0.297 0.115,0.575 0.324,0.785 0.21,0.21 0.488,0.325 0.785,0.325 h 9.117 c 0.611,0 1.109,-0.498 1.109,-1.11 v -6.028 l 0.764,-0.186 c 2.782,-0.676 5.429,-1.787 7.868,-3.302 l 0.654,-0.406 0.56,0.529 3.745,3.743 c 0.42,0.42 1.15,0.42 1.57,0 l 6.446,-6.446 c 0.433,-0.433 0.433,-1.138 0,-1.57 l -4.263,-4.263 0.408,-0.671 c 1.489,-2.446 2.575,-5.104 3.229,-7.898 l 0.181,-0.772 h 6.06 c 0.611,0 1.109,-0.498 1.109,-1.11 v -9.116 c 0,-0.612 -0.498,-1.11 -1.109,-1.11 h -6.028 l -0.186,-0.764 c -0.677,-2.783 -1.788,-5.431 -3.303,-7.867 l -0.431,-0.694 0.594,-0.561 3.704,-3.704 c 0.21,-0.21 0.325,-0.488 0.325,-0.785 0,-0.297 -0.115,-0.575 -0.325,-0.785 l -6.446,-6.447 c -0.42,-0.418 -1.151,-0.419 -1.571,0.001 l -4.262,4.262 -0.672,-0.408 c -2.445,-1.489 -5.103,-2.576 -7.897,-3.229 l -0.772,-0.181 v -6.06 c 0,-0.612 -0.498,-1.11 -1.11,-1.11 h -9.117 c -0.611,0 -1.109,0.498 -1.109,1.11 v 6.028 l -0.764,0.186 c -2.782,0.676 -5.429,1.787 -7.868,3.302 l -0.674,0.418 -4.285,-4.284 c -0.421,-0.42 -1.15,-0.42 -1.569,0 l -6.447,6.446 c -0.432,0.433 -0.432,1.138 0.001,1.57 l 4.262,4.263 -0.408,0.672 c -1.489,2.445 -2.575,5.103 -3.229,7.897 l -0.181,0.772 h -6.06 c -0.611,0 -1.109,0.498 -1.109,1.109 v 9.117 c 0,0.612 0.498,1.11 1.109,1.11 h 6.028 l 0.186,0.764 c 0.678,2.784 1.789,5.432 3.303,7.868 l 0.431,0.693 -0.594,0.561 -3.704,3.704 c -0.21,0.21 -0.325,0.488 -0.325,0.785 0,0.297 0.115,0.575 0.325,0.785 l 6.447,6.447 c 0.417,0.417 1.149,0.419 1.569,0 z" />
			</g>
			<g
   id="g696">
				<path
   style="clip-rule:evenodd;fill:#f3a52d;fill-rule:evenodd"
   inkscape:connector-curvature="0"
   id="path694"
   d="m 523.234,746.454 c 12.923,0.001 23.399,-10.478 23.399,-23.4 0,-12.924 -10.477,-23.4 -23.399,-23.4 -12.924,0 -23.401,10.477 -23.401,23.4 0,12.923 10.478,23.4 23.401,23.4 z" />
			</g>
			<g
   id="g702">
				<g
   id="g700">
					<path
   style="fill:#111111"
   inkscape:connector-curvature="0"
   id="path698"
   d="m 523.245,741.774 -0.037,-2.001 0.12,0.005 c 0.842,-0.004 1.772,-0.08 2.684,-0.231 l 0.328,1.973 c -1.02,0.168 -2.061,0.254 -3.095,0.254 z m -4.2,-0.473 c -1.019,-0.232 -2.027,-0.556 -2.997,-0.96 l 0.77,-1.846 c 0.865,0.36 1.765,0.648 2.673,0.856 z m 11.327,-0.931 -0.762,-1.85 c 0.864,-0.355 1.705,-0.788 2.497,-1.285 l 1.063,1.695 c -0.889,0.557 -1.829,1.041 -2.798,1.44 z m -17.986,-2.064 c -0.853,-0.608 -1.659,-1.292 -2.397,-2.033 l 1.416,-1.412 c 0.66,0.662 1.382,1.274 2.144,1.818 z m 24.064,-1.982 -1.41,-1.418 c 0.665,-0.661 1.276,-1.382 1.819,-2.141 l 1.627,1.162 c -0.606,0.851 -1.292,1.657 -2.036,2.397 z m -29.072,-3.33 c -0.558,-0.89 -1.043,-1.831 -1.441,-2.796 l 1.848,-0.764 c 0.356,0.861 0.79,1.702 1.289,2.497 z m 33.146,-2.725 -1.846,-0.771 c 0.361,-0.865 0.65,-1.764 0.859,-2.672 l 1.949,0.447 c -0.233,1.018 -0.556,2.026 -0.962,2.996 z m -35.742,-4.102 c -0.171,-1.023 -0.258,-2.071 -0.258,-3.113 l 2,-0.018 v 0.018 c 0,0.933 0.077,1.868 0.23,2.783 z m 35.183,-3.058 0.002,-0.108 c -10e-4,-0.872 -0.076,-1.797 -0.226,-2.696 l 1.973,-0.327 c 0.167,1.007 0.252,2.042 0.252,3.076 z m -33.022,-3.793 -1.949,-0.443 c 0.231,-1.021 0.554,-2.029 0.956,-2.998 l 1.848,0.768 c -0.36,0.864 -0.648,1.764 -0.855,2.673 z m 31.776,-2.611 c -0.354,-0.862 -0.786,-1.704 -1.283,-2.5 l 1.697,-1.059 c 0.556,0.891 1.039,1.833 1.436,2.799 z m -29.108,-3.333 -1.629,-1.16 c 0.607,-0.853 1.29,-1.66 2.03,-2.4 l 1.414,1.414 c -0.66,0.661 -1.272,1.383 -1.815,2.146 z m 25.498,-2.1 c -0.657,-0.662 -1.377,-1.275 -2.14,-1.822 l 1.164,-1.625 c 0.854,0.611 1.659,1.297 2.396,2.037 z m -20.756,-2.381 -1.064,-1.693 c 0.889,-0.559 1.829,-1.045 2.795,-1.445 l 0.766,1.848 c -0.864,0.356 -1.704,0.791 -2.497,1.29 z m 15.351,-1.265 c -0.863,-0.362 -1.763,-0.651 -2.671,-0.861 l 0.449,-1.949 c 1.02,0.235 2.027,0.561 2.995,0.967 z m -9.259,-1.06 -0.332,-1.973 c 1.029,-0.173 2.083,-0.261 3.132,-0.261 l 0.073,2 h -0.073 c -0.937,10e-4 -1.88,0.079 -2.8,0.234 z" />
				</g>
			</g>
		</g>
		<g
   id="g720">
			<g
   id="g708">
				<path
   style="fill:#111111"
   inkscape:connector-curvature="0"
   id="path706"
   d="m 230.002,623.194 h -4.938 c -1.182,0 -2.143,-0.961 -2.143,-2.143 v -2.078 c -1.138,-0.326 -2.233,-0.774 -3.27,-1.338 l -1.466,1.466 c -0.809,0.809 -2.22,0.811 -3.03,0 l -3.491,-3.491 c -0.405,-0.404 -0.628,-0.942 -0.628,-1.515 0,-0.573 0.223,-1.111 0.628,-1.516 l 1.47,-1.471 c -0.574,-1.034 -1.032,-2.125 -1.367,-3.258 h -2.073 c -1.182,0 -2.143,-0.961 -2.143,-2.143 v -4.938 c 0,-1.182 0.961,-2.143 2.143,-2.143 h 2.08 c 0.325,-1.138 0.773,-2.232 1.337,-3.271 l -1.466,-1.466 c -0.404,-0.403 -0.627,-0.94 -0.627,-1.513 0,-0.573 0.222,-1.111 0.627,-1.517 l 3.491,-3.491 c 0.81,-0.811 2.221,-0.809 3.03,0 l 1.47,1.47 c 1.035,-0.574 2.125,-1.032 3.258,-1.367 v -2.072 c 0,-1.182 0.961,-2.143 2.143,-2.143 h 4.938 c 1.182,0 2.143,0.961 2.143,2.143 v 2.079 c 1.137,0.325 2.232,0.772 3.27,1.337 l 1.466,-1.465 c 0.809,-0.811 2.22,-0.811 3.03,0 l 3.492,3.491 c 0.405,0.405 0.628,0.943 0.627,1.517 0,0.572 -0.223,1.109 -0.628,1.514 l -1.47,1.47 c 0.574,1.034 1.032,2.125 1.367,3.258 h 2.072 c 1.182,0 2.143,0.961 2.143,2.143 v 4.938 c 0,1.182 -0.961,2.143 -2.143,2.143 h -2.079 c -0.326,1.138 -0.773,2.232 -1.338,3.271 l 1.466,1.466 c 0.405,0.404 0.628,0.942 0.628,1.516 0,0.572 -0.223,1.11 -0.628,1.515 l -3.491,3.49 c -0.808,0.811 -2.222,0.812 -3.031,-10e-4 l -1.469,-1.469 c -1.035,0.575 -2.126,1.032 -3.258,1.367 v 2.072 c 0.001,1.182 -0.96,2.143 -2.142,2.143 z m -10.667,-8.07 0.671,0.408 c 1.282,0.781 2.676,1.351 4.144,1.694 l 0.772,0.181 v 3.645 c 0,0.079 0.064,0.143 0.143,0.143 h 4.938 c 0.079,0 0.143,-0.063 0.143,-0.143 v -3.625 l 0.764,-0.186 c 1.458,-0.354 2.846,-0.937 4.127,-1.731 l 0.656,-0.407 0.56,0.531 2.036,2.034 c 0.071,0.071 0.133,0.069 0.201,10e-4 l 3.492,-3.491 c 0.056,-0.056 0.056,-0.146 0,-0.202 l -2.564,-2.563 0.409,-0.672 c 0.781,-1.283 1.352,-2.677 1.694,-4.143 l 0.18,-0.772 h 3.646 c 0.079,0 0.143,-0.063 0.143,-0.143 v -4.938 c 0,-0.079 -0.064,-0.143 -0.143,-0.143 h -3.625 l -0.186,-0.764 c -0.355,-1.459 -0.938,-2.848 -1.732,-4.126 l -0.408,-0.656 0.531,-0.561 2.036,-2.036 c 0.035,-0.035 0.042,-0.073 0.042,-0.101 0,-0.026 -0.007,-0.065 -0.042,-0.101 l -3.491,-3.491 c -0.069,-0.068 -0.133,-0.068 -0.202,0 l -2.563,2.563 -0.671,-0.408 c -1.284,-0.781 -2.678,-1.352 -4.143,-1.693 l -0.773,-0.18 v -3.646 c 0,-0.079 -0.064,-0.143 -0.143,-0.143 h -4.938 c -0.079,0 -0.143,0.063 -0.143,0.143 v 3.625 l -0.764,0.186 c -1.458,0.354 -2.847,0.938 -4.126,1.732 l -0.691,0.43 -0.561,-0.59 -2,-1.999 c -0.069,-0.068 -0.132,-0.068 -0.202,0 l -3.491,3.491 c -0.035,0.035 -0.042,0.074 -0.042,0.101 0,0.027 0.007,0.065 0.041,0.1 l 2.563,2.564 -0.409,0.671 c -0.781,1.283 -1.351,2.678 -1.693,4.144 l -0.18,0.772 h -3.646 c -0.079,0 -0.143,0.063 -0.143,0.143 v 4.938 c 0,0.079 0.064,0.143 0.143,0.143 h 3.625 l 0.186,0.764 c 0.355,1.46 0.938,2.849 1.732,4.128 l 0.43,0.692 -0.592,0.561 -1.997,1.998 c -0.047,0.048 -0.047,0.154 0,0.202 l 3.491,3.491 c 0.069,0.068 0.133,0.068 0.201,0 z" />
			</g>
			<g
   id="g712">
				<path
   style="clip-rule:evenodd;fill:#f3a52d;fill-rule:evenodd"
   inkscape:connector-curvature="0"
   id="path710"
   d="m 227.521,615.899 c 6.998,0 12.672,-5.674 12.672,-12.673 0,-6.998 -5.674,-12.672 -12.672,-12.672 -6.999,0 -12.673,5.674 -12.673,12.672 0,7 5.673,12.673 12.673,12.673 z" />
			</g>
			<g
   id="g718">
				<g
   id="g716">
					<path
   style="fill:#111111"
   inkscape:connector-curvature="0"
   id="path714"
   d="m 226.977,613.81 c -1.06,-0.054 -2.101,-0.266 -3.094,-0.629 l 0.688,-1.879 c 0.805,0.295 1.648,0.467 2.508,0.51 z m 4.153,-0.616 -0.681,-1.881 c 0.808,-0.292 1.565,-0.703 2.251,-1.221 l 1.205,1.596 c -0.846,0.639 -1.78,1.146 -2.775,1.506 z m -10.824,-2.211 c -0.776,-0.723 -1.438,-1.554 -1.966,-2.471 l 1.733,-0.998 c 0.428,0.743 0.965,1.418 1.595,2.004 z m 16.384,-2.432 -1.729,-1.006 c 0.433,-0.743 0.75,-1.544 0.942,-2.379 l 1.949,0.449 c -0.237,1.031 -0.628,2.019 -1.162,2.936 z m -19.681,-4.021 c -0.052,-0.429 -0.079,-0.867 -0.079,-1.303 0,-0.623 0.055,-1.245 0.161,-1.85 l 1.97,0.346 c -0.086,0.491 -0.13,0.998 -0.131,1.505 0,0.354 0.021,0.71 0.064,1.06 z m 18.989,-2.771 c -0.146,-0.846 -0.417,-1.663 -0.807,-2.429 l 1.782,-0.908 c 0.481,0.945 0.816,1.954 0.996,2.999 z m -15.692,-3.2 -1.678,-1.09 c 0.578,-0.889 1.281,-1.684 2.09,-2.363 l 1.285,1.533 c -0.657,0.55 -1.228,1.197 -1.697,1.92 z m 12.769,-1.899 c -0.659,-0.557 -1.392,-1.01 -2.18,-1.346 l 0.785,-1.84 c 0.972,0.415 1.875,0.973 2.686,1.658 z m -8.082,-1.651 -0.587,-1.912 c 1.009,-0.31 2.059,-0.467 3.121,-0.467 l 0.039,2 h -0.039 c -0.863,0 -1.715,0.128 -2.534,0.379 z" />
				</g>
			</g>
		</g>
		<g
   id="g766">
			<path
   style="clip-rule:evenodd;fill:#ffffff;fill-rule:evenodd"
   inkscape:connector-curvature="0"
   id="path722"
   d="m 553.651,753.78 v -67.359 c 0,-5.585 4.568,-10.155 10.152,-10.155 H 674.57 c 5.585,0 10.154,4.57 10.154,10.155 v 67.359 c 0,5.584 -4.569,10.154 -10.154,10.154 H 563.804 c -5.584,10e-4 -10.153,-4.57 -10.153,-10.154 z" />
			<g
   id="g726">
				<path
   style="fill:#111111"
   inkscape:connector-curvature="0"
   id="path724"
   d="M 674.57,764.935 H 563.804 c -6.149,0 -11.152,-5.004 -11.152,-11.154 v -67.359 c 0,-6.151 5.003,-11.155 11.152,-11.155 H 674.57 c 6.15,0 11.154,5.004 11.154,11.155 v 67.359 c 10e-4,6.15 -5.003,11.154 -11.154,11.154 z M 563.804,677.266 c -5.047,0 -9.152,4.107 -9.152,9.155 v 67.359 c 0,5.048 4.105,9.154 9.152,9.154 H 674.57 c 5.048,0 9.154,-4.106 9.154,-9.154 v -67.359 c 0,-5.048 -4.106,-9.155 -9.154,-9.155 z" />
			</g>
			<g
   id="g730">
				<path
   style="fill:#111111"
   inkscape:connector-curvature="0"
   id="path728"
   d="M 673.979,760.311 H 565.322 V 679.89 h 108.657 z m -106.657,-2 H 671.979 V 681.89 H 567.322 Z" />
			</g>
			<path
   style="clip-rule:evenodd;fill:#e6e6e6;fill-rule:evenodd"
   inkscape:connector-curvature="0"
   id="path732"
   d="m 678.771,728.092 v 0 c 1.588,0 2.875,-1.287 2.875,-2.875 v -9 c 0,-1.588 -1.287,-2.875 -2.875,-2.875 v 0 c -1.588,0 -2.875,1.287 -2.875,2.875 v 9 c 0,1.588 1.287,2.875 2.875,2.875 z" />
			<path
   style="clip-rule:evenodd;fill:#e6e6e6;fill-rule:evenodd"
   inkscape:connector-curvature="0"
   id="path734"
   d="m 559.717,725.029 v 0 c 1.201,0 2.175,-0.975 2.175,-2.176 v -4.274 c 0,-1.201 -0.974,-2.175 -2.175,-2.175 v 0 c -1.202,0 -2.176,0.974 -2.176,2.175 v 4.274 c 0,1.202 0.974,2.176 2.176,2.176 z" />
			<path
   style="fill:#3dc7d2"
   inkscape:connector-curvature="0"
   id="path736"
   d="m 653.777,738.811 h -69.18 c -5.992,0 -10.895,-4.903 -10.895,-10.896 v -15.63 c 0,-5.992 4.902,-10.896 10.896,-10.896 h 69.179 c 5.992,0 10.896,4.903 10.896,10.896 v 15.63 c 0,5.992 -4.903,10.896 -10.896,10.896 z" />
			<g
   id="g740">
				<path
   style="fill:#111111"
   inkscape:connector-curvature="0"
   id="path738"
   d="m 653.774,734.768 h -3.038 v -2 h 3.038 z m -7.088,0 h -3.038 v -2 h 3.038 z m -7.089,0 h -3.038 v -2 h 3.038 z m -7.09,0 h -3.038 v -2 h 3.038 z m -7.089,0 h -3.038 v -2 h 3.038 z m -7.089,0 h -3.038 v -2 h 3.038 z m -7.089,0 h -3.038 v -2 h 3.038 z m -7.089,0 h -3.038 v -2 h 3.038 z m -7.088,0 h -3.038 v -2 h 3.038 z m -7.089,0 h -3.038 v -2 h 3.038 z m -7.198,-0.036 c -1.228,-0.136 -2.363,-0.646 -3.285,-1.475 l 1.338,-1.486 c 0.608,0.547 1.357,0.884 2.166,0.973 z m 75.408,-1.445 -1.324,-1.498 c 0.613,-0.543 1.034,-1.25 1.216,-2.043 l 1.949,0.445 c -0.276,1.205 -0.912,2.275 -1.841,3.096 z m -80.648,-4.358 v -3.095 h 2 v 3.038 z m 82.637,-3.001 h -2 v -3.038 h 2 z m -80.637,-4.145 h -2 v -3.038 h 2 z m 80.637,-2.944 h -2 v -3.038 h 2 z m -80.637,-4.145 h -2 v -2.408 c 0,-0.256 0.017,-0.509 0.048,-0.756 l 1.984,0.256 c -0.021,0.163 -0.032,0.33 -0.032,0.5 z m 78.613,-2.834 c -0.088,-0.811 -0.423,-1.562 -0.968,-2.171 l 1.49,-1.334 c 0.826,0.923 1.333,2.061 1.466,3.29 z m -76.964,-2.756 -1.156,-1.633 c 1,-0.707 2.177,-1.081 3.404,-1.081 l 0.024,2 c -0.836,0 -1.613,0.247 -2.272,0.714 z m 73.162,-0.714 h -3.038 v -2 h 2.969 z m -7.089,0 h -3.038 v -2 h 3.038 z m -7.089,0 h -3.038 v -2 h 3.038 z m -7.089,0 h -3.038 v -2 h 3.038 z m -7.09,0 h -3.038 v -2 h 3.038 z m -7.089,0 h -3.038 v -2 h 3.038 z m -7.088,0 h -3.038 v -2 h 3.038 z m -7.089,0 h -3.038 v -2 h 3.038 z m -7.089,0 h -3.038 v -2 h 3.038 z m -7.089,0 h -3.038 v -2 h 3.038 z" />
			</g>
			<g
   id="g764">
				<g
   id="g762">
					<path
   style="fill:#ffffff"
   inkscape:connector-curvature="0"
   id="path742"
   d="m 590.381,716.519 h 1.441 v 4.531 c 0,0.592 -0.053,1.048 -0.156,1.367 -0.141,0.416 -0.395,0.751 -0.762,1.003 -0.369,0.253 -0.854,0.379 -1.455,0.379 -0.707,0 -1.25,-0.198 -1.631,-0.594 -0.381,-0.396 -0.574,-0.976 -0.576,-1.74 l 1.361,-0.156 c 0.018,0.41 0.076,0.699 0.182,0.869 0.156,0.257 0.393,0.386 0.713,0.386 0.322,0 0.549,-0.092 0.684,-0.276 0.133,-0.184 0.199,-0.565 0.199,-1.145 z" />
					<path
   style="fill:#ffffff"
   inkscape:connector-curvature="0"
   id="path744"
   d="m 599.814,723.677 h -1.572 l -0.625,-1.626 h -2.861 l -0.59,1.626 h -1.533 l 2.787,-7.158 h 1.529 z m -2.66,-2.832 -0.986,-2.656 -0.967,2.656 z" />
					<path
   style="fill:#ffffff"
   inkscape:connector-curvature="0"
   id="path746"
   d="m 601.666,723.677 -2.559,-7.158 h 1.566 l 1.813,5.298 1.752,-5.298 h 1.533 l -2.563,7.158 z" />
					<path
   style="fill:#ffffff"
   inkscape:connector-curvature="0"
   id="path748"
   d="m 612.223,723.677 h -1.572 l -0.625,-1.626 h -2.861 l -0.592,1.626 h -1.533 l 2.789,-7.158 h 1.527 z m -2.662,-2.832 -0.986,-2.656 -0.967,2.656 z" />
					<path
   style="fill:#ffffff"
   inkscape:connector-curvature="0"
   id="path750"
   d="m 615.029,721.348 1.406,-0.137 c 0.086,0.472 0.256,0.818 0.516,1.04 0.258,0.221 0.607,0.332 1.047,0.332 0.467,0 0.816,-0.099 1.053,-0.296 0.236,-0.196 0.354,-0.427 0.354,-0.69 0,-0.17 -0.049,-0.313 -0.148,-0.433 -0.1,-0.118 -0.273,-0.222 -0.52,-0.31 -0.17,-0.059 -0.555,-0.163 -1.158,-0.313 -0.773,-0.192 -1.318,-0.429 -1.631,-0.708 -0.439,-0.395 -0.658,-0.874 -0.658,-1.44 0,-0.365 0.104,-0.706 0.309,-1.023 0.207,-0.317 0.506,-0.559 0.895,-0.725 0.389,-0.166 0.859,-0.249 1.408,-0.249 0.898,0 1.574,0.196 2.029,0.591 0.453,0.394 0.693,0.919 0.715,1.577 l -1.445,0.063 c -0.061,-0.368 -0.193,-0.633 -0.398,-0.794 -0.203,-0.161 -0.508,-0.241 -0.914,-0.241 -0.42,0 -0.75,0.086 -0.986,0.259 -0.154,0.11 -0.23,0.259 -0.23,0.444 0,0.169 0.072,0.313 0.215,0.435 0.184,0.152 0.625,0.313 1.328,0.479 0.703,0.166 1.223,0.338 1.561,0.515 0.336,0.178 0.6,0.42 0.791,0.728 0.189,0.308 0.285,0.688 0.285,1.141 0,0.41 -0.113,0.794 -0.342,1.152 -0.227,0.357 -0.549,0.624 -0.967,0.798 -0.416,0.175 -0.936,0.262 -1.557,0.262 -0.906,0 -1.6,-0.209 -2.086,-0.628 -0.487,-0.419 -0.776,-1.029 -0.872,-1.829 z" />
					<path
   style="fill:#ffffff"
   inkscape:connector-curvature="0"
   id="path752"
   d="m 626.646,721.045 1.4,0.444 c -0.215,0.781 -0.572,1.361 -1.072,1.74 -0.498,0.38 -1.133,0.569 -1.9,0.569 -0.951,0 -1.732,-0.325 -2.344,-0.975 -0.613,-0.649 -0.918,-1.537 -0.918,-2.663 0,-1.191 0.307,-2.117 0.922,-2.776 0.615,-0.659 1.424,-0.988 2.428,-0.988 0.875,0 1.586,0.259 2.133,0.776 0.326,0.306 0.57,0.745 0.732,1.318 l -1.43,0.342 c -0.086,-0.371 -0.262,-0.664 -0.531,-0.879 -0.268,-0.215 -0.594,-0.322 -0.979,-0.322 -0.529,0 -0.961,0.19 -1.291,0.571 -0.33,0.381 -0.496,0.997 -0.496,1.851 0,0.904 0.164,1.549 0.488,1.934 0.326,0.384 0.75,0.576 1.27,0.576 0.385,0 0.715,-0.122 0.992,-0.366 0.276,-0.244 0.475,-0.629 0.596,-1.152 z" />
					<path
   style="fill:#ffffff"
   inkscape:connector-curvature="0"
   id="path754"
   d="m 629.293,723.677 v -7.158 h 3.041 c 0.766,0 1.322,0.064 1.668,0.192 0.348,0.129 0.625,0.357 0.832,0.687 0.209,0.328 0.313,0.704 0.313,1.128 0,0.537 -0.158,0.98 -0.473,1.33 -0.316,0.351 -0.789,0.57 -1.416,0.662 0.313,0.182 0.57,0.382 0.773,0.601 0.203,0.218 0.479,0.605 0.822,1.162 l 0.875,1.396 H 634 l -1.045,-1.558 c -0.371,-0.557 -0.625,-0.907 -0.762,-1.053 -0.137,-0.145 -0.281,-0.244 -0.436,-0.298 -0.152,-0.054 -0.395,-0.08 -0.727,-0.08 h -0.293 v 2.988 h -1.444 z m 1.445,-4.131 h 1.068 c 0.693,0 1.127,-0.029 1.299,-0.088 0.174,-0.059 0.309,-0.16 0.406,-0.303 0.098,-0.144 0.146,-0.322 0.146,-0.537 0,-0.241 -0.064,-0.436 -0.193,-0.584 -0.129,-0.147 -0.311,-0.241 -0.545,-0.28 -0.117,-0.017 -0.469,-0.024 -1.055,-0.024 h -1.127 v 1.816 z" />
					<path
   style="fill:#ffffff"
   inkscape:connector-curvature="0"
   id="path756"
   d="m 636.465,723.677 v -7.158 h 1.445 v 7.158 z" />
					<path
   style="fill:#ffffff"
   inkscape:connector-curvature="0"
   id="path758"
   d="m 639.287,723.677 v -7.158 h 2.32 c 0.879,0 1.451,0.035 1.719,0.107 0.41,0.107 0.754,0.341 1.029,0.7 0.277,0.36 0.416,0.824 0.416,1.395 0,0.439 -0.08,0.809 -0.24,1.108 -0.158,0.299 -0.361,0.534 -0.607,0.705 -0.246,0.171 -0.496,0.284 -0.75,0.34 -0.344,0.068 -0.844,0.103 -1.498,0.103 h -0.943 v 2.7 z m 1.445,-5.948 v 2.031 h 0.791 c 0.57,0 0.951,-0.038 1.143,-0.112 0.193,-0.075 0.344,-0.192 0.453,-0.352 0.107,-0.16 0.162,-0.346 0.162,-0.557 0,-0.261 -0.076,-0.476 -0.229,-0.645 -0.154,-0.17 -0.348,-0.275 -0.582,-0.317 -0.172,-0.033 -0.52,-0.049 -1.039,-0.049 h -0.699 z" />
					<path
   style="fill:#ffffff"
   inkscape:connector-curvature="0"
   id="path760"
   d="m 647.568,723.677 v -5.947 h -2.123 v -1.211 h 5.688 v 1.211 h -2.119 v 5.947 z" />
				</g>
			</g>
		</g>
		<g
   id="g798">
			<g
   id="g772">
				<g
   id="g770">
					<path
   style="fill:#3dc7d2"
   inkscape:connector-curvature="0"
   id="path768"
   d="m 159.665,561.268 h -50.489 c -3.538,0 -6.405,2.868 -6.405,6.405 v 28.148 c 0,3.537 2.868,6.405 6.405,6.405 h 27.106 v 15.776 l 15.465,-15.776 h 7.917 c 3.537,0 6.405,-2.868 6.405,-6.405 v -28.148 c 0,-3.537 -2.867,-6.405 -6.404,-6.405 z" />
				</g>
			</g>
			<g
   id="g780">
				<g
   id="g778">
					<g
   id="g776">
						<path
   style="fill:#111111"
   inkscape:connector-curvature="0"
   id="path774"
   d="m 119.988,591.675 -9.11,-9.112 c -0.421,-0.42 -0.653,-0.98 -0.653,-1.577 0,-0.596 0.232,-1.156 0.652,-1.577 l 8.879,-8.879 3.156,3.156 -7.301,7.3 7.534,7.535 z m -0.233,-18.318 -7.464,7.464 c -0.056,0.056 -0.067,0.12 -0.067,0.164 0,0.044 0.012,0.107 0.067,0.162 l 7.698,7.699 0.327,-0.326 -7.533,-7.535 7.301,-7.3 z" />
					</g>
				</g>
			</g>
			<g
   id="g788">
				<g
   id="g786">
					<g
   id="g784">
						<path
   style="fill:#111111"
   inkscape:connector-curvature="0"
   id="path782"
   d="m 149.655,592.088 -3.154,-3.156 7.713,-7.712 -7.714,-7.715 3.157,-3.154 9.29,9.291 c 0.421,0.422 0.653,0.982 0.653,1.578 0,0.596 -0.232,1.156 -0.654,1.578 z m -0.326,-3.156 0.327,0.328 7.876,-7.876 c 0.044,-0.044 0.068,-0.103 0.068,-0.164 0,-0.061 -0.025,-0.121 -0.068,-0.165 l -7.876,-7.876 -0.327,0.326 7.713,7.715 z" />
					</g>
				</g>
			</g>
			<g
   id="g796">
				<g
   id="g794">
					<g
   id="g792">
						<path
   style="fill:#111111"
   inkscape:connector-curvature="0"
   id="path790"
   d="m 130.445,597.855 -4.078,-1.811 14.089,-31.695 4.079,1.811 z m -1.438,-2.826 0.422,0.188 12.464,-28.041 -0.422,-0.188 z" />
					</g>
				</g>
			</g>
		</g>
		<g
   id="g848">
			<g
   id="g810">
				<path
   style="fill:#ffffff"
   inkscape:connector-curvature="0"
   id="path800"
   d="m 563.142,657.562 v 0 c -5.241,0 -9.49,-4.249 -9.49,-9.49 V 590.96 c 0,-2.282 1.85,-4.132 4.132,-4.132 H 568.5 c 2.282,0 4.132,1.85 4.132,4.132 v 57.111 c 0,5.242 -4.249,9.491 -9.49,9.491 z" />
				<path
   style="fill:#7c7e82"
   inkscape:connector-curvature="0"
   id="path802"
   d="M 572.632,639.328 V 590.96 c 0,-2.282 -1.85,-4.132 -4.132,-4.132 h -10.717 c -2.282,0 -4.132,1.85 -4.132,4.132 v 48.368 z" />
				<circle
   style="fill:#50667e"
   id="circle804"
   r="3.211"
   cy="649.08502"
   cx="563.14203" />
				<g
   id="g808">
					<path
   style="fill:#111111"
   inkscape:connector-curvature="0"
   id="path806"
   d="m 563.142,658.562 c -5.784,0 -10.49,-4.706 -10.49,-10.49 V 590.96 c 0,-2.83 2.302,-5.132 5.132,-5.132 H 568.5 c 2.83,0 5.132,2.302 5.132,5.132 v 57.111 c 0,5.784 -4.706,10.491 -10.49,10.491 z m -5.359,-70.734 c -1.727,0 -3.132,1.405 -3.132,3.132 v 57.111 c 0,4.682 3.809,8.49 8.49,8.49 4.681,0 8.49,-3.809 8.49,-8.49 V 590.96 c 0,-1.727 -1.405,-3.132 -3.132,-3.132 z" />
				</g>
			</g>
			<g
   id="g822">
				<path
   style="fill:#ffffff"
   inkscape:connector-curvature="0"
   id="path812"
   d="m 558.398,656.289 v 0 c -4.54,-2.621 -6.095,-8.426 -3.475,-12.965 l 28.557,-49.46 c 1.141,-1.977 3.668,-2.653 5.644,-1.513 l 9.281,5.359 c 1.977,1.141 2.653,3.668 1.513,5.644 l -28.556,49.46 c -2.621,4.54 -8.424,6.095 -12.964,3.475 z" />
				<path
   style="fill:#ea572e"
   inkscape:connector-curvature="0"
   id="path814"
   d="m 575.734,645.243 24.184,-41.889 c 1.141,-1.976 0.464,-4.503 -1.513,-5.644 l -9.281,-5.359 c -1.976,-1.141 -4.503,-0.464 -5.644,1.513 l -24.185,41.888 z" />
				<circle
   style="fill:#50667e"
   id="circle816"
   r="3.211"
   cy="648.94702"
   cx="562.63702" />
				<g
   id="g820">
					<path
   style="fill:#111111"
   inkscape:connector-curvature="0"
   id="path818"
   d="m 563.135,658.562 c -1.831,0 -3.642,-0.486 -5.236,-1.406 -5.01,-2.893 -6.732,-9.321 -3.841,-14.331 l 28.556,-49.46 c 0.915,-1.583 2.619,-2.566 4.449,-2.566 0.896,0 1.782,0.237 2.562,0.688 l 9.281,5.359 c 1.188,0.686 2.036,1.792 2.392,3.116 0.354,1.324 0.173,2.707 -0.513,3.894 l -28.556,49.46 c -1.87,3.235 -5.354,5.246 -9.094,5.246 z m 23.928,-65.764 c -1.118,0 -2.159,0.6 -2.717,1.566 l -28.556,49.46 c -2.341,4.055 -0.946,9.258 3.108,11.599 1.291,0.745 2.756,1.139 4.236,1.139 3.028,0 5.849,-1.627 7.361,-4.247 l 28.556,-49.46 c 0.418,-0.725 0.529,-1.568 0.313,-2.376 -0.216,-0.809 -0.734,-1.483 -1.459,-1.901 l -9.281,-5.359 c -0.476,-0.277 -1.016,-0.421 -1.561,-0.421 z" />
				</g>
			</g>
			<g
   id="g834">
				<path
   style="fill:#ffffff"
   inkscape:connector-curvature="0"
   id="path824"
   d="m 554.924,652.814 v 0 c -2.62,-4.539 -1.065,-10.343 3.475,-12.964 l 49.46,-28.556 c 1.976,-1.141 4.503,-0.464 5.644,1.513 l 5.359,9.281 c 1.141,1.976 0.464,4.503 -1.513,5.644 l -49.46,28.557 c -4.539,2.62 -10.344,1.065 -12.965,-3.475 z" />
				<path
   style="fill:#3dc7d2"
   inkscape:connector-curvature="0"
   id="path826"
   d="m 575.461,651.917 41.888,-24.185 c 1.977,-1.141 2.653,-3.668 1.513,-5.644 l -5.359,-9.281 c -1.141,-1.977 -3.668,-2.653 -5.644,-1.513 l -41.889,24.184 z" />
				<circle
   style="fill:#50667e"
   id="circle828"
   r="3.211"
   cy="648.57599"
   cx="562.26599" />
				<g
   id="g832">
					<path
   style="fill:#111111"
   inkscape:connector-curvature="0"
   id="path830"
   d="m 563.152,658.562 c -3.741,0 -7.226,-2.011 -9.095,-5.247 -2.892,-5.01 -1.169,-11.438 3.841,-14.33 l 49.46,-28.556 c 0.779,-0.45 1.665,-0.688 2.562,-0.688 1.83,0 3.534,0.983 4.448,2.566 l 5.359,9.281 c 0.686,1.187 0.867,2.569 0.513,3.894 -0.355,1.324 -1.204,2.431 -2.392,3.116 l -49.46,28.557 c -1.594,0.92 -3.405,1.407 -5.236,1.407 z m 46.768,-46.821 c -0.546,0 -1.086,0.145 -1.562,0.42 l -49.46,28.556 c -4.055,2.341 -5.449,7.543 -3.108,11.598 1.513,2.62 4.334,4.247 7.362,4.247 1.48,0 2.945,-0.394 4.236,-1.139 l 49.46,-28.557 c 0.725,-0.418 1.243,-1.093 1.459,-1.901 0.217,-0.808 0.105,-1.651 -0.313,-2.376 l -5.359,-9.281 c -0.557,-0.967 -1.598,-1.567 -2.715,-1.567 z" />
				</g>
			</g>
			<g
   id="g846">
				<path
   style="fill:#ffffff"
   inkscape:connector-curvature="0"
   id="path836"
   d="m 553.651,648.071 v 0 c 0,-5.241 4.249,-9.49 9.49,-9.49 h 57.111 c 2.282,0 4.132,1.85 4.132,4.132 v 10.717 c 0,2.282 -1.85,4.132 -4.132,4.132 h -57.111 c -5.241,0 -9.49,-4.249 -9.49,-9.491 z" />
				<path
   style="fill:#f3a52d"
   inkscape:connector-curvature="0"
   id="path838"
   d="m 571.885,657.562 h 48.368 c 2.282,0 4.132,-1.85 4.132,-4.132 v -10.717 c 0,-2.282 -1.85,-4.132 -4.132,-4.132 h -48.368 z" />
				<circle
   style="fill:#f3a52d"
   id="circle840"
   r="3.211"
   cy="648.07098"
   cx="562.12799" />
				<g
   id="g844">
					<path
   style="fill:#111111"
   inkscape:connector-curvature="0"
   id="path842"
   d="m 620.253,658.562 h -57.111 c -5.784,0 -10.49,-4.706 -10.49,-10.49 0,-5.784 4.706,-10.49 10.49,-10.49 h 57.111 c 2.83,0 5.132,2.302 5.132,5.132 v 10.717 c 0,2.829 -2.302,5.131 -5.132,5.131 z m -57.111,-18.981 c -4.682,0 -8.49,3.809 -8.49,8.49 0,4.681 3.809,8.49 8.49,8.49 h 57.111 c 1.727,0 3.132,-1.405 3.132,-3.132 v -10.717 c 0,-1.727 -1.405,-3.132 -3.132,-3.132 h -57.111 z" />
				</g>
			</g>
		</g>
		<g
   id="g876">
			<g
   id="g852">
				<path
   style="fill:#3dc7d2"
   inkscape:connector-curvature="0"
   id="path850"
   d="m 385.044,522.253 c -2.522,0 -4.862,0.745 -6.794,2.079 -1.31,-1.489 -3.112,-2.546 -5.157,-2.886 0.084,-0.574 0.128,-1.166 0.128,-1.763 0,-6.612 -5.361,-11.98 -11.976,-11.98 -6.613,0 -11.977,5.361 -11.977,11.974 0,0.977 0.12,1.923 0.34,2.829 -0.886,-0.209 -1.812,-0.253 -2.761,-0.253 -6.615,0 -11.976,5.499 -11.976,12.044 h 62.148 c 0.002,-6.545 -5.359,-12.044 -11.975,-12.044 z" />
			</g>
			<g
   id="g874">
				<g
   id="g856">
					<path
   style="fill:#111111"
   inkscape:connector-curvature="0"
   id="path854"
   d="m 356.22,535.297 h -22.347 v -1 c 0,-7.192 5.821,-13.044 12.976,-13.044 v 2 c -5.717,0 -10.427,4.421 -10.931,10.044 h 20.303 v 2 z" />
				</g>
				<g
   id="g860">
					<path
   style="fill:#111111"
   inkscape:connector-curvature="0"
   id="path858"
   d="m 353.147,512.271 -1.475,-1.352 c 1.17,-1.277 2.559,-2.294 4.126,-3.021 l 0.841,1.814 c -1.326,0.616 -2.5,1.476 -3.492,2.559 z" />
				</g>
				<g
   id="g864">
					<path
   style="fill:#111111"
   inkscape:connector-curvature="0"
   id="path862"
   d="m 370.889,514.436 c -1.331,-2.441 -3.509,-4.273 -6.134,-5.159 l 0.64,-1.895 c 3.103,1.047 5.677,3.212 7.25,6.097 z" />
				</g>
				<g
   id="g868">
					<path
   style="fill:#111111"
   inkscape:connector-curvature="0"
   id="path866"
   d="M 398.021,535.297 H 375.91 v -2 h 20.067 c -0.504,-5.623 -5.215,-10.044 -10.933,-10.044 -2.271,0 -4.423,0.657 -6.226,1.902 l -0.732,0.505 -0.587,-0.668 c -0.587,-0.667 -1.274,-1.228 -2.043,-1.664 l 0.987,-1.738 c 0.712,0.404 1.368,0.893 1.959,1.457 1.979,-1.176 4.258,-1.794 6.642,-1.794 7.156,0 12.978,5.852 12.978,13.044 v 1 z" />
				</g>
				<g
   id="g872">
					<rect
   style="fill:#111111"
   id="rect870"
   height="2"
   width="7.428"
   y="533.297"
   x="365.06299" />
				</g>
			</g>
		</g>
		<g
   id="g904">
			<g
   id="g880">
				<path
   style="fill:#e6e6e6;fill-opacity:1"
   inkscape:connector-curvature="0"
   id="path878"
   d="m 592.554,550.822 c -5.139,0 -9.904,1.519 -13.84,4.236 -2.669,-3.034 -6.34,-5.187 -10.506,-5.879 0.173,-1.17 0.262,-2.375 0.262,-3.591 0,-13.471 -10.921,-24.405 -24.396,-24.405 -13.472,0 -24.398,10.921 -24.398,24.392 0,1.989 0.245,3.917 0.693,5.763 -1.805,-0.424 -3.69,-0.516 -5.625,-0.516 -13.475,0 -24.396,11.204 -24.396,24.536 h 126.606 c 0,-13.332 -10.922,-24.536 -24.4,-24.536 z" />
			</g>
			<g
   id="g902">
				<g
   id="g884">
					<path
   style="fill:#111111"
   inkscape:connector-curvature="0"
   id="path882"
   d="m 533.836,576.358 h -44.488 v -1 c 0,-14.081 11.393,-25.536 25.396,-25.536 v 2 c -12.567,0 -22.853,10.021 -23.376,22.536 h 42.468 z" />
				</g>
				<g
   id="g888">
					<path
   style="fill:#111111"
   inkscape:connector-curvature="0"
   id="path886"
   d="m 526.812,529.786 -1.475,-1.352 c 2.293,-2.503 5.01,-4.492 8.077,-5.912 l 0.84,1.814 c -2.825,1.31 -5.329,3.143 -7.442,5.45 z" />
				</g>
				<g
   id="g892">
					<path
   style="fill:#111111"
   inkscape:connector-curvature="0"
   id="path890"
   d="m 564.628,534.401 c -2.837,-5.202 -7.479,-9.107 -13.074,-10.996 l 0.641,-1.895 c 6.072,2.05 11.111,6.288 14.189,11.934 z" />
				</g>
				<g
   id="g896">
					<path
   style="fill:#111111"
   inkscape:connector-curvature="0"
   id="path894"
   d="m 617.954,576.358 h -44.007 v -2 h 41.986 c -0.523,-12.516 -10.81,-22.536 -23.38,-22.536 -4.837,0 -9.426,1.403 -13.271,4.06 l -0.731,0.505 -0.588,-0.668 c -1.273,-1.448 -2.764,-2.661 -4.429,-3.604 l 0.986,-1.74 c 1.606,0.91 3.066,2.045 4.351,3.379 4.026,-2.574 8.738,-3.931 13.683,-3.931 14.006,0 25.4,11.455 25.4,25.536 z" />
				</g>
				<g
   id="g900">
					<rect
   style="fill:#111111"
   id="rect898"
   height="2"
   width="15.132"
   y="574.35797"
   x="551.85101" />
				</g>
			</g>
		</g>
		<g
   id="g932">
			<g
   id="g908">
				<path
   style="fill:#e6e6e6;fill-opacity:1"
   inkscape:connector-curvature="0"
   id="path906"
   d="m 218.371,549.166 c 5.14,0 9.905,1.519 13.84,4.236 2.669,-3.033 6.34,-5.187 10.506,-5.879 -0.173,-1.169 -0.262,-2.374 -0.262,-3.591 0,-13.47 10.921,-24.405 24.396,-24.405 13.472,0 24.398,10.922 24.398,24.392 0,1.989 -0.245,3.918 -0.694,5.763 1.805,-0.424 3.69,-0.516 5.625,-0.516 13.475,0 24.396,11.204 24.396,24.536 H 193.971 c 0,-13.332 10.921,-24.536 24.4,-24.536 z" />
			</g>
			<g
   id="g930">
				<g
   id="g912">
					<path
   style="fill:#111111"
   inkscape:connector-curvature="0"
   id="path910"
   d="m 321.577,574.702 h -44.488 v -2 h 42.467 c -0.522,-12.516 -10.808,-22.536 -23.375,-22.536 v -2 c 14.003,0 25.396,11.455 25.396,25.536 z" />
				</g>
				<g
   id="g916">
					<path
   style="fill:#111111"
   inkscape:connector-curvature="0"
   id="path914"
   d="m 284.113,528.13 c -2.113,-2.308 -4.617,-4.141 -7.442,-5.448 l 0.84,-1.814 c 3.067,1.419 5.785,3.408 8.077,5.911 z" />
				</g>
				<g
   id="g920">
					<path
   style="fill:#111111"
   inkscape:connector-curvature="0"
   id="path918"
   d="m 246.297,532.746 -1.756,-0.957 c 3.078,-5.646 8.118,-9.885 14.19,-11.935 l 0.64,1.895 c -5.595,1.889 -10.238,5.794 -13.074,10.997 z" />
				</g>
				<g
   id="g924">
					<path
   style="fill:#111111"
   inkscape:connector-curvature="0"
   id="path922"
   d="m 236.978,574.702 h -44.007 v -1 c 0,-14.081 11.395,-25.536 25.4,-25.536 4.945,0 9.656,1.356 13.683,3.931 1.284,-1.333 2.744,-2.468 4.351,-3.379 l 0.986,1.74 c -1.665,0.944 -3.155,2.157 -4.429,3.604 l -0.587,0.668 -0.732,-0.505 c -3.845,-2.656 -8.435,-4.06 -13.272,-4.06 -12.57,0 -22.856,10.021 -23.379,22.536 h 41.986 z" />
				</g>
				<g
   id="g928">
					<rect
   style="fill:#111111"
   id="rect926"
   height="2"
   width="15.132"
   y="572.70203"
   x="243.94299" />
				</g>
			</g>
		</g>
		<g
   id="g936">
			<path
   style="fill:#f3a52d"
   inkscape:connector-curvature="0"
   id="path934"
   d="m 80.068,710.792 c 2.596,0 5.001,0.765 6.987,2.139 1.349,-1.529 3.2,-2.618 5.303,-2.97 -0.088,-0.588 -0.133,-1.196 -0.133,-1.811 0,-6.802 5.514,-12.319 12.315,-12.319 6.801,0 12.318,5.511 12.318,12.313 0,1.003 -0.125,1.976 -0.351,2.907 0.912,-0.211 1.862,-0.259 2.839,-0.259 6.802,0 12.315,5.655 12.315,12.385 h -63.91 c 0,-6.73 5.514,-12.385 12.317,-12.385 z" />
		</g>
		<g
   id="g940">
			<path
   style="fill:#f3a52d"
   inkscape:connector-curvature="0"
   id="path938"
   d="m 650.454,631.762 c 1.879,0 3.62,0.554 5.059,1.549 0.977,-1.107 2.317,-1.896 3.84,-2.15 -0.063,-0.426 -0.097,-0.866 -0.097,-1.311 0,-4.925 3.992,-8.92 8.917,-8.92 4.925,0 8.918,3.99 8.918,8.915 0,0.726 -0.09,1.431 -0.254,2.104 0.66,-0.152 1.349,-0.188 2.056,-0.188 4.926,0 8.917,4.095 8.917,8.968 h -46.273 c -0.001,-4.873 3.991,-8.967 8.917,-8.967 z" />
		</g>
		<g
   id="g958">
			<g
   id="g944">
				<rect
   style="fill:#111111"
   id="rect942"
   height="2"
   width="14.2"
   y="763.078"
   x="734.68701" />
			</g>
			<g
   id="g948">
				<rect
   style="fill:#111111"
   id="rect946"
   height="2"
   width="359.70499"
   y="763.078"
   x="70.787003" />
			</g>
			<g
   id="g952">
				<rect
   style="fill:#111111"
   id="rect950"
   height="2"
   width="10.378"
   y="763.07703"
   x="50.007999" />
			</g>
			<g
   id="g956">
				<rect
   style="fill:#111111"
   id="rect954"
   height="2"
   width="288.69901"
   y="763.078"
   x="438.88699" />
			</g>
		</g>
		<g
   id="g1012">
			<g
   id="g964">
				<g
   id="g962">
					<path
   style="fill:#e6e6e6"
   inkscape:connector-curvature="0"
   id="path960"
   d="m 291.229,754.511 v -101.2 c 0,-5.629 -4.458,-10.192 -9.958,-10.192 H 126.246 c -5.5,0 -9.958,4.563 -9.958,10.192 v 101.2 z" />
				</g>
			</g>
			<g
   id="g978">
				<g
   id="g968">
					<rect
   style="fill:#111111"
   id="rect966"
   height="2"
   width="68.559998"
   y="642.11798"
   x="170.993" />
				</g>
				<g
   id="g972">
					<rect
   style="fill:#111111"
   id="rect970"
   height="2"
   width="11.148"
   y="642.11798"
   x="248.75" />
				</g>
				<g
   id="g976">
					<path
   style="fill:#111111"
   inkscape:connector-curvature="0"
   id="path974"
   d="M 292.229,755.511 H 115.288 v -102.2 c 0,-6.172 4.916,-11.192 10.958,-11.192 h 28.02 v 2 h -28.02 c -4.939,0 -8.958,4.124 -8.958,9.192 v 100.2 h 172.941 v -100.2 c 0,-5.068 -4.019,-9.192 -8.958,-9.192 h -12.767 v -2 h 12.767 c 6.042,0 10.958,5.021 10.958,11.192 z" />
				</g>
			</g>
			<g
   id="g984">
				<g
   id="g982">
					<path
   style="fill:#7c7e82"
   inkscape:connector-curvature="0"
   id="path980"
   d="m 107.37,754.511 v 4.784 c 0,2.642 2.092,4.783 4.673,4.783 h 183.43 c 2.582,0 4.673,-2.142 4.673,-4.783 v -4.784 z" />
				</g>
			</g>
			<g
   id="g992">
				<g
   id="g990">
					<g
   id="g988">
						<path
   style="fill:#111111"
   inkscape:connector-curvature="0"
   id="path986"
   d="m 295.473,765.078 h -183.43 c -3.128,0 -5.673,-2.595 -5.673,-5.783 v -5.784 h 194.776 v 5.784 c 0,3.188 -2.544,5.783 -5.673,5.783 z M 108.37,755.511 v 3.784 c 0,2.086 1.648,3.783 3.673,3.783 h 183.43 c 2.025,0 3.673,-1.697 3.673,-3.783 v -3.784 z" />
					</g>
				</g>
			</g>
			<g
   id="g998">
				<g
   id="g996">
					<rect
   style="fill:#ffffff"
   id="rect994"
   height="93.905998"
   width="157.565"
   y="652.77698"
   x="124.976" />
				</g>
			</g>
			<g
   id="g1010">
				<rect
   style="fill:#e6e6e6"
   id="rect1000"
   height="26.707001"
   width="12.683"
   y="658"
   x="263.172" />
				<rect
   style="fill:#e6e6e6"
   id="rect1002"
   height="26.707001"
   width="122.563"
   y="658"
   x="131.662" />
				<rect
   style="fill:#e6e6e6"
   id="rect1004"
   height="26.707001"
   width="33.995998"
   y="693.05402"
   x="131.662" />
				<rect
   style="fill:#e6e6e6"
   id="rect1006"
   height="26.707001"
   width="103.935"
   y="693.05402"
   x="171.92" />
				<rect
   style="fill:#e6e6e6"
   id="rect1008"
   height="12.52"
   width="144.192"
   y="728.94098"
   x="131.662" />
			</g>
		</g>
		<g
   id="g1042">
			<g
   id="g1020">
				<g
   id="g1018">
					<g
   id="g1016">
						<path
   style="fill:#111111"
   inkscape:connector-curvature="0"
   id="path1014"
   d="m 666.905,702.657 c -0.663,0 -1.335,-0.025 -1.998,-0.074 -7.135,-0.52 -13.647,-3.795 -18.338,-9.222 -4.686,-5.429 -6.98,-12.348 -6.462,-19.482 0.529,-7.155 3.818,-13.677 9.262,-18.367 5.379,-4.626 12.396,-6.938 19.444,-6.424 7.133,0.519 13.643,3.793 18.331,9.22 4.688,5.427 6.983,12.344 6.463,19.478 -0.266,3.661 -1.25,7.154 -2.924,10.383 -1.033,1.993 -2.324,3.856 -3.837,5.537 l -0.509,0.565 -0.011,-0.005 c -0.622,0.658 -1.288,1.293 -1.985,1.893 -0.85,0.733 -1.752,1.418 -2.681,2.034 -4.382,2.92 -9.484,4.464 -14.755,4.464 z m -0.091,-51.643 c -5.899,0 -11.632,2.136 -16.141,6.014 -5.037,4.341 -8.082,10.377 -8.572,16.998 -0.479,6.602 1.645,13.004 5.981,18.028 4.341,5.022 10.368,8.054 16.97,8.535 5.509,0.401 10.936,-1.02 15.501,-4.062 0.86,-0.571 1.695,-1.205 2.482,-1.884 0.83,-0.714 1.608,-1.479 2.316,-2.274 l 0.41,-0.461 c 1.227,-1.433 2.283,-2.998 3.146,-4.66 1.548,-2.986 2.458,-6.219 2.705,-9.607 0.481,-6.602 -1.644,-13.003 -5.981,-18.025 -4.34,-5.022 -10.364,-8.053 -16.964,-8.533 -0.615,-0.046 -1.238,-0.069 -1.853,-0.069 z" />
					</g>
				</g>
			</g>
			<g
   id="g1032">
				<g
   id="g1026">
					<g
   id="g1024">
						<path
   style="fill:#111111"
   inkscape:connector-curvature="0"
   id="path1022"
   d="m 685.067,684.659 -1.775,-0.92 c 1.036,-1.998 1.646,-4.162 1.811,-6.432 l 1.994,0.145 c -0.185,2.543 -0.868,4.968 -2.03,7.207 z" />
					</g>
				</g>
				<g
   id="g1030">
					<path
   style="fill:#111111"
   inkscape:connector-curvature="0"
   id="path1028"
   d="m 677.126,692.612 -0.928,-1.771 c 0.514,-0.27 1.019,-0.568 1.502,-0.891 0.574,-0.381 1.133,-0.806 1.662,-1.262 0.544,-0.468 1.565,-1.536 1.576,-1.547 l 1.445,1.383 c -0.045,0.046 -1.101,1.149 -1.717,1.68 -0.591,0.51 -1.217,0.984 -1.859,1.412 -0.539,0.36 -1.106,0.695 -1.681,0.996 z" />
				</g>
			</g>
			<g
   id="g1036">
				
					<rect
   style="fill:#111111"
   id="rect1034"
   height="2"
   width="5.2880001"
   transform="matrix(0.7071,0.7071,-0.7071,0.7071,693.5037,-281.6713)"
   y="695.297"
   x="684.11499" />
			</g>
			<g
   id="g1040">
				
					<rect
   style="fill:#f3a52d"
   id="rect1038"
   height="10.999"
   width="39.424"
   transform="matrix(0.7071,0.7071,-0.7071,0.7071,709.3118,-288.2193)"
   y="706.60602"
   x="682.85498" />
			</g>
		</g>
		<g
   id="g1052">
			<g
   id="g1046">
				
					<rect
   style="fill:#111111"
   id="rect1044"
   height="2"
   width="6.0089998"
   transform="matrix(0.7071,0.7071,-0.7071,0.7071,657.5303,-111.7203)"
   y="736.849"
   x="460.61899" />
			</g>
			<g
   id="g1050">
				<polygon
   style="fill:#111111"
   id="polygon1048"
   points="465.145,733.729 459.504,739.371 457.439,731.666 " />
			</g>
		</g>
		<g
   id="g1056">
			<path
   style="fill:#111111"
   inkscape:connector-curvature="0"
   id="path1054"
   d="m 413.985,532.33 -1.414,-1.414 3.5,-3.5 c 0.728,-0.728 1.695,-1.129 2.725,-1.129 0.001,0 0.003,0 0.004,0 1.03,0.002 1.998,0.404 2.726,1.135 l 1.343,1.347 c 0.364,0.366 0.854,0.564 1.366,0.544 0.517,-0.015 0.989,-0.235 1.332,-0.622 l 1.252,-1.41 c 0.724,-0.815 1.765,-1.287 2.855,-1.295 1.1,-0.024 2.137,0.449 2.871,1.255 l 1.32,1.443 c 0.36,0.395 0.913,0.605 1.407,0.604 0.542,-0.012 1.032,-0.247 1.381,-0.661 l 1.051,-1.252 c 0.708,-0.845 1.746,-1.346 2.848,-1.375 1.095,-0.041 2.165,0.416 2.918,1.222 l 1.388,1.484 c 0.371,0.396 0.879,0.615 1.413,0.587 0.54,-0.017 1.027,-0.256 1.372,-0.674 l 0.998,-1.214 c 0.69,-0.837 1.708,-1.347 2.791,-1.399 1.082,-0.056 2.143,0.359 2.908,1.125 l 3.736,3.736 -1.414,1.414 -3.736,-3.736 c -0.374,-0.375 -0.878,-0.563 -1.398,-0.541 -0.529,0.025 -1.006,0.265 -1.343,0.673 l -0.998,1.214 c -0.706,0.856 -1.746,1.367 -2.854,1.401 -1.105,0.028 -2.179,-0.41 -2.937,-1.221 l -1.388,-1.484 c -0.367,-0.393 -0.867,-0.612 -1.404,-0.587 -0.537,0.014 -1.023,0.249 -1.369,0.66 l -1.051,1.252 c -0.714,0.851 -1.76,1.352 -2.869,1.375 -1.116,0.028 -2.177,-0.433 -2.927,-1.253 l -1.32,-1.444 c -0.359,-0.394 -0.879,-0.628 -1.381,-0.604 -0.532,0.004 -1.02,0.225 -1.373,0.623 l -1.252,1.41 c -0.702,0.791 -1.712,1.263 -2.77,1.294 -1.082,0.029 -2.095,-0.383 -2.841,-1.132 l -1.344,-1.348 c -0.35,-0.352 -0.815,-0.545 -1.311,-0.546 -10e-4,0 -0.002,0 -0.002,0 -0.495,0 -0.961,0.193 -1.311,0.543 z" />
		</g>
		<g
   id="g1066">
			<path
   style="fill:#ff8145"
   inkscape:connector-curvature="0"
   id="path1058"
   d="m 666.559,578.545 h -2.095 c -0.284,-1.169 -0.751,-2.266 -1.368,-3.26 l 0.007,-0.007 1.481,-1.481 c 0.329,-0.329 0.329,-0.862 0,-1.192 l -2.576,-2.575 c -0.329,-0.329 -0.863,-0.329 -1.192,0 l -1.48,1.48 c -1.027,-0.625 -2.134,-1.071 -3.272,-1.337 v -0.01 -2.095 c 0,-0.466 -0.378,-0.843 -0.844,-0.843 h -3.643 c -0.465,0 -0.843,0.377 -0.843,0.843 v 2.095 c -1.169,0.284 -2.266,0.75 -3.26,1.368 l -0.007,-0.007 -1.481,-1.481 c -0.329,-0.329 -0.862,-0.329 -1.191,0 l -2.576,2.576 c -0.329,0.329 -0.329,0.862 0,1.191 l 1.481,1.481 c -0.626,1.027 -1.072,2.133 -1.338,3.272 h -0.01 -2.095 c -0.466,0 -0.843,0.377 -0.843,0.843 v 3.643 c 0,0.466 0.377,0.844 0.843,0.844 h 2.095 c 0.284,1.168 0.75,2.266 1.368,3.26 l -0.007,0.007 -1.481,1.48 c -0.329,0.329 -0.329,0.863 0,1.192 l 2.576,2.576 c 0.329,0.329 0.862,0.329 1.191,0 l 1.481,-1.481 c 1.027,0.625 2.133,1.071 3.272,1.338 v 0.01 2.095 c 0,0.465 0.377,0.843 0.843,0.843 h 3.643 c 0.466,0 0.844,-0.378 0.844,-0.843 v -2.095 c 1.168,-0.284 2.266,-0.751 3.26,-1.368 l 0.007,0.007 1.48,1.48 c 0.329,0.33 0.863,0.33 1.192,0 l 2.576,-2.575 c 0.329,-0.329 0.329,-0.863 0,-1.192 l -1.481,-1.48 c 0.626,-1.027 1.071,-2.134 1.338,-3.272 h 0.01 2.095 c 0.465,0 0.843,-0.378 0.843,-0.844 v -3.643 c -0.001,-0.466 -0.379,-0.843 -0.843,-0.843 z" />
			<g
   id="g1064">
				<g
   id="g1062">
					<path
   style="fill:#111111"
   inkscape:connector-curvature="0"
   id="path1060"
   d="m 653.412,589.299 -0.041,-2 h 0.041 c 0.91,0 1.785,-0.196 2.602,-0.583 l 0.857,1.807 c -1.087,0.515 -2.251,0.776 -3.459,0.776 z m -4.582,-1.425 c -0.992,-0.685 -1.833,-1.598 -2.431,-2.642 l 1.734,-0.994 c 0.451,0.786 1.084,1.474 1.831,1.989 z m 11.549,-2.561 -1.723,-1.014 c 0.466,-0.792 0.74,-1.658 0.815,-2.573 l 1.994,0.164 c -0.1,1.218 -0.466,2.37 -1.086,3.423 z m -13.027,-4.569 -1.994,-0.15 c 0.092,-1.218 0.45,-2.372 1.065,-3.431 l 1.729,1.006 c -0.463,0.794 -0.731,1.661 -0.8,2.575 z m 11.356,-2.515 c -0.446,-0.788 -1.076,-1.479 -1.819,-2 l 1.145,-1.639 c 0.987,0.689 1.822,1.607 2.415,2.654 z m -7.93,-2.492 -0.867,-1.803 c 1.097,-0.528 2.274,-0.796 3.501,-0.796 l 0.082,2 h -0.082 c -0.923,10e-4 -1.809,0.202 -2.634,0.599 z" />
				</g>
			</g>
		</g>
		<g
   id="g1119">
			<g
   id="XMLID_29_">
				<g
   id="g1070">
					<rect
   style="clip-rule:evenodd;fill:#7c7e82;fill-rule:evenodd"
   id="rect1068"
   height="32.647999"
   width="66.850998"
   y="723.05499"
   x="366.022" />
				</g>
			</g>
			<g
   id="g1075">
				<rect
   style="fill:#7c7e82"
   id="rect1073"
   height="12"
   width="159.748"
   y="750.90002"
   x="319.46201" />
			</g>
			<g
   id="XMLID_28_">
				<g
   id="g1079">
					<path
   style="clip-rule:evenodd;fill:#7c7e82;fill-rule:evenodd"
   inkscape:connector-curvature="0"
   id="path1077"
   d="m 278.072,566.112 h 242.75 c 6.831,0 12.42,5.589 12.42,12.421 v 132.101 c 0,6.831 -5.589,12.421 -12.42,12.421 h -242.75 c -6.831,0 -12.419,-5.59 -12.419,-12.421 V 578.533 c -0.001,-6.832 5.588,-12.421 12.419,-12.421 z" />
				</g>
			</g>
			<g
   id="g1084">
				<rect
   style="fill:#111111"
   id="rect1082"
   height="2"
   width="24.936001"
   y="708.50403"
   x="386.979" />
			</g>
			<g
   id="XMLID_27_">
				<g
   id="g1090">
					<g
   id="g1088">
						<path
   style="fill:#111111"
   inkscape:connector-curvature="0"
   id="path1086"
   d="M 520.822,724.055 H 426.42 v -2 h 94.402 c 6.297,0 11.42,-5.123 11.42,-11.421 V 578.533 c 0,-6.298 -5.123,-11.421 -11.42,-11.421 h -242.75 c -6.297,0 -11.419,5.123 -11.419,11.421 v 132.101 c 0,6.298 5.123,11.421 11.419,11.421 H 384.62 v 2 H 278.072 c -7.399,0 -13.419,-6.021 -13.419,-13.421 V 578.533 c 0,-7.4 6.02,-13.421 13.419,-13.421 h 242.75 c 7.399,0 13.42,6.021 13.42,13.421 v 132.101 c 0,7.4 -6.02,13.421 -13.42,13.421 z" />
					</g>
				</g>
				<g
   id="g1094">
					<rect
   style="fill:#111111"
   id="rect1092"
   height="2"
   width="17.639"
   y="722.05499"
   x="400.86401" />
				</g>
			</g>
			<rect
   style="clip-rule:evenodd;fill:#ffffff;fill-rule:evenodd"
   id="rect1097"
   height="120.899"
   width="247.573"
   y="576.66699"
   x="275.66" />
			<g
   id="g1101">
				<rect
   style="fill:#111111"
   id="rect1099"
   height="2"
   width="82.508003"
   y="748.76398"
   x="319.46201" />
			</g>
			<g
   id="g1105">
				<rect
   style="fill:#111111"
   id="rect1103"
   height="2"
   width="12.682"
   y="748.76398"
   x="426.42001" />
			</g>
			<g
   id="g1117">
				<rect
   style="fill:#e6e6e6"
   id="rect1107"
   height="31.117001"
   width="19.525"
   y="588.49597"
   x="490.91101" />
				<rect
   style="fill:#e6e6e6"
   id="rect1109"
   height="31.117001"
   width="188.681"
   y="588.49597"
   x="288.45801" />
				<rect
   style="fill:#e6e6e6"
   id="rect1111"
   height="31.117001"
   width="52.334999"
   y="629.33698"
   x="288.45801" />
				<rect
   style="fill:#e6e6e6"
   id="rect1113"
   height="31.117001"
   width="160.00301"
   y="629.33698"
   x="350.43301" />
				<rect
   style="fill:#e6e6e6"
   id="rect1115"
   height="14.586"
   width="221.979"
   y="671.151"
   x="288.45801" />
			</g>
		</g>
		<g
   id="g1123">
			<rect
   style="fill:#111111"
   id="rect1121"
   height="2"
   width="19"
   y="611.823"
   x="171.246" />
		</g>
		<g
   id="g1127">
			<rect
   style="fill:#111111"
   id="rect1125"
   height="2"
   width="19"
   y="733.81897"
   x="309.15601" />
		</g>
		<g
   id="g1131">
			<rect
   style="fill:#111111"
   id="rect1129"
   height="2"
   width="19"
   y="532.92297"
   x="201.69701" />
		</g>
		<g
   id="g1135">
			<rect
   style="fill:#111111"
   id="rect1133"
   height="2"
   width="19"
   y="510.14301"
   x="409.00299" />
		</g>
		<g
   id="g1139">
			<rect
   style="fill:#111111"
   id="rect1137"
   height="2"
   width="19"
   y="751.63098"
   x="703.63098" />
		</g>
		<g
   id="g1143">
			<rect
   style="fill:#111111"
   id="rect1141"
   height="2"
   width="19"
   y="694.685"
   x="703.63098" />
		</g>
		<g
   id="g1147">
			<rect
   style="fill:#111111"
   id="rect1145"
   height="2"
   width="19"
   y="591.46198"
   x="605.52899" />
		</g>
		<g
   id="g1151">
			<rect
   style="fill:#111111"
   id="rect1149"
   height="2"
   width="19"
   y="664.97302"
   x="548.04102" />
		</g>
		<g
   id="g1165">
			<g
   id="g1155">
				<rect
   style="fill:#111111"
   id="rect1153"
   height="2"
   width="19"
   y="741.32098"
   x="64.711998" />
			</g>
			<g
   id="g1159">
				<rect
   style="fill:#111111"
   id="rect1157"
   height="2"
   width="8.5"
   y="741.32098"
   x="87.377998" />
			</g>
			<g
   id="g1163">
				<path
   style="fill:#111111"
   inkscape:connector-curvature="0"
   id="path1161"
   d="m 103.785,746.581 c -2.349,0 -4.26,-1.911 -4.26,-4.26 0,-2.349 1.911,-4.26 4.26,-4.26 2.349,0 4.26,1.911 4.26,4.26 0,2.349 -1.911,4.26 -4.26,4.26 z m 0,-6.519 c -1.246,0 -2.26,1.014 -2.26,2.26 0,1.246 1.014,2.26 2.26,2.26 1.246,0 2.26,-1.014 2.26,-2.26 0,-1.246 -1.014,-2.26 -2.26,-2.26 z" />
			</g>
		</g>
		<g
   id="g1179">
			<g
   id="g1169">
				<rect
   style="fill:#111111"
   id="rect1167"
   height="2"
   width="19"
   y="628.745"
   x="111.929" />
			</g>
			<g
   id="g1173">
				<rect
   style="fill:#111111"
   id="rect1171"
   height="2"
   width="8.5"
   y="628.745"
   x="134.595" />
			</g>
			<g
   id="g1177">
				<path
   style="fill:#111111"
   inkscape:connector-curvature="0"
   id="path1175"
   d="m 151.002,634.005 c -2.349,0 -4.26,-1.911 -4.26,-4.26 0,-2.349 1.911,-4.26 4.26,-4.26 2.349,0 4.26,1.911 4.26,4.26 0,2.349 -1.911,4.26 -4.26,4.26 z m 0,-6.52 c -1.246,0 -2.26,1.014 -2.26,2.26 0,1.246 1.014,2.26 2.26,2.26 1.246,0 2.26,-1.014 2.26,-2.26 0,-1.246 -1.014,-2.26 -2.26,-2.26 z" />
			</g>
		</g>
		<g
   id="g1193">
			<g
   id="g1183">
				<rect
   style="fill:#111111"
   id="rect1181"
   height="2"
   width="19"
   y="512.95697"
   x="458.04401" />
			</g>
			<g
   id="g1187">
				<rect
   style="fill:#111111"
   id="rect1185"
   height="2"
   width="8.5"
   y="512.95697"
   x="480.70999" />
			</g>
			<g
   id="g1191">
				<path
   style="fill:#111111"
   inkscape:connector-curvature="0"
   id="path1189"
   d="m 497.117,518.217 c -2.349,0 -4.26,-1.911 -4.26,-4.26 0,-2.349 1.911,-4.26 4.26,-4.26 2.349,0 4.26,1.911 4.26,4.26 0,2.349 -1.911,4.26 -4.26,4.26 z m 0,-6.52 c -1.246,0 -2.26,1.014 -2.26,2.26 0,1.246 1.014,2.26 2.26,2.26 1.246,0 2.26,-1.014 2.26,-2.26 0,-1.246 -1.014,-2.26 -2.26,-2.26 z" />
			</g>
		</g>
		<g
   id="g1207">
			<g
   id="g1197">
				<rect
   style="fill:#111111"
   id="rect1195"
   height="2"
   width="19"
   y="605.784"
   x="645.69" />
			</g>
			<g
   id="g1201">
				<rect
   style="fill:#111111"
   id="rect1199"
   height="2"
   width="8.5"
   y="605.784"
   x="668.35699" />
			</g>
			<g
   id="g1205">
				<path
   style="fill:#111111"
   inkscape:connector-curvature="0"
   id="path1203"
   d="m 684.765,611.044 c -2.35,0 -4.261,-1.911 -4.261,-4.26 0,-2.349 1.911,-4.26 4.261,-4.26 2.349,0 4.26,1.911 4.26,4.26 0,2.349 -1.912,4.26 -4.26,4.26 z m 0,-6.52 c -1.246,0 -2.261,1.014 -2.261,2.26 0,1.246 1.015,2.26 2.261,2.26 1.246,0 2.26,-1.014 2.26,-2.26 0,-1.246 -1.014,-2.26 -2.26,-2.26 z" />
			</g>
		</g>
		<g
   id="g1211">
			<polygon
   style="fill:#111111"
   id="polygon1209"
   points="151.287,540.392 158.572,546.563 165.302,540.356 172.795,546.564 179.316,540.436 187.687,546.917 186.462,548.499 179.442,543.063 172.879,549.23 165.373,543.013 158.627,549.231 151.306,543.028 144.399,549.053 137.254,543.503 130.737,548.549 129.513,546.967 137.256,540.972 144.326,546.463 " />
		</g>
		<g
   id="g1215">
			<path
   style="fill:#111111"
   inkscape:connector-curvature="0"
   id="path1213"
   d="m 182.43,592.937 c -0.761,0 -1.477,-0.297 -2.015,-0.835 l -2.032,-2.032 c -1.11,-1.11 -1.11,-2.917 0,-4.027 l 2.033,-2.033 c 1.076,-1.076 2.952,-1.076 4.028,0 l 2.033,2.033 c 1.11,1.11 1.11,2.917 0,4.027 l -2.033,2.032 c -0.538,0.538 -1.253,0.835 -2.014,0.835 z m 0,-7.762 c -0.227,0 -0.44,0.088 -0.6,0.248 l -2.033,2.033 c -0.331,0.331 -0.331,0.868 0,1.199 l 2.033,2.032 c 0.321,0.322 0.878,0.322 1.199,0 l 2.033,-2.032 c 0.331,-0.331 0.331,-0.868 0,-1.199 l -2.033,-2.033 c -0.159,-0.16 -0.372,-0.248 -0.599,-0.248 z" />
		</g>
		<g
   id="g1219">
			<path
   style="fill:#111111"
   inkscape:connector-curvature="0"
   id="path1217"
   d="m 344.673,739.7 c -0.761,0 -1.476,-0.296 -2.014,-0.834 l -2.033,-2.032 c -1.111,-1.11 -1.111,-2.918 0,-4.028 l 2.033,-2.032 c 1.076,-1.076 2.952,-1.076 4.028,0 l 2.033,2.032 c 1.111,1.11 1.111,2.918 0,4.028 l -2.033,2.032 c -0.538,0.538 -1.253,0.834 -2.014,0.834 z m 0,-7.761 c -0.227,0 -0.44,0.088 -0.6,0.248 l -2.033,2.032 c -0.331,0.331 -0.331,0.869 0,1.2 l 2.033,2.032 c 0.32,0.319 0.879,0.32 1.2,0 l 2.033,-2.032 c 0.331,-0.331 0.331,-0.869 0,-1.2 l -2.033,-2.032 c -0.16,-0.16 -0.373,-0.248 -0.6,-0.248 z" />
		</g>
		<g
   id="g1223">
			<path
   style="fill:#111111"
   inkscape:connector-curvature="0"
   id="path1221"
   d="m 318.656,518.838 c -0.761,0 -1.476,-0.297 -2.015,-0.835 l -2.032,-2.032 c -0.538,-0.538 -0.834,-1.253 -0.834,-2.014 0,-0.761 0.296,-1.476 0.834,-2.014 l 2.032,-2.033 c 1.077,-1.076 2.953,-1.076 4.029,0 l 2.033,2.033 c 1.11,1.11 1.11,2.917 0,4.027 l -2.032,2.032 c -0.539,0.539 -1.254,0.836 -2.015,0.836 z m 0,-7.762 c -0.227,0 -0.44,0.088 -0.6,0.248 l -2.032,2.033 c -0.161,0.16 -0.249,0.373 -0.249,0.6 0,0.227 0.088,0.439 0.249,0.6 l 2.032,2.032 c 0.321,0.32 0.879,0.32 1.2,0 l 2.033,-2.032 c 0.331,-0.331 0.331,-0.868 0,-1.199 l -2.033,-2.033 c -0.16,-0.161 -0.373,-0.249 -0.6,-0.249 z" />
		</g>
		<g
   id="g1227">
			<path
   style="fill:#111111"
   inkscape:connector-curvature="0"
   id="path1225"
   d="m 713.132,683.325 c -0.762,0 -1.478,-0.297 -2.016,-0.835 l -2.031,-2.032 c -1.11,-1.109 -1.11,-2.917 -0.001,-4.028 l 2.033,-2.032 c 1.075,-1.075 2.951,-1.077 4.028,0 l 2.032,2.032 c 1.11,1.111 1.11,2.919 0,4.028 l -2.032,2.032 c -0.537,0.538 -1.252,0.835 -2.013,0.835 z m 0,-7.762 c -0.228,0 -0.44,0.088 -0.601,0.248 l -2.032,2.032 c -0.33,0.331 -0.33,0.869 0,1.2 l 2.032,2.032 c 0.321,0.321 0.878,0.323 1.199,0 l 2.033,-2.032 c 0.33,-0.331 0.33,-0.869 -0.001,-1.2 l -2.031,-2.032 c -0.16,-0.16 -0.373,-0.248 -0.599,-0.248 z" />
		</g>
		<g
   id="g1231">
			<path
   style="fill:#111111"
   inkscape:connector-curvature="0"
   id="path1229"
   d="m 589.532,670.854 c -0.761,0 -1.476,-0.296 -2.014,-0.834 l -2.032,-2.032 c -0.538,-0.537 -0.835,-1.253 -0.835,-2.014 0,-0.762 0.297,-1.478 0.835,-2.016 l 2.032,-2.031 c 1.076,-1.076 2.951,-1.076 4.027,0 l 2.033,2.032 c 1.11,1.11 1.11,2.918 0,4.028 l -2.033,2.032 c -0.537,0.539 -1.252,0.835 -2.013,0.835 z m 0,-7.761 c -0.227,0 -0.439,0.088 -0.6,0.248 l -2.032,2.032 c -0.161,0.161 -0.249,0.374 -0.249,0.601 0,0.226 0.088,0.438 0.249,0.599 l 2.032,2.033 c 0.32,0.32 0.879,0.32 1.199,0 l 2.033,-2.032 c 0.331,-0.331 0.331,-0.869 0,-1.2 l -2.033,-2.032 c -0.159,-0.161 -0.372,-0.249 -0.599,-0.249 z" />
		</g>
		<g
   id="g1235">
			<path
   style="fill:#111111"
   inkscape:connector-curvature="0"
   id="path1233"
   d="m 696.541,739.7 c -0.761,0 -1.476,-0.296 -2.014,-0.834 l -2.033,-2.032 c -1.11,-1.11 -1.11,-2.918 0,-4.028 l 2.033,-2.032 c 1.076,-1.076 2.951,-1.076 4.027,0 l 2.033,2.032 c 1.11,1.11 1.11,2.918 0,4.028 l -2.033,2.032 c -0.537,0.538 -1.252,0.834 -2.013,0.834 z m 0,-7.761 c -0.227,0 -0.439,0.088 -0.6,0.248 l -2.033,2.032 c -0.331,0.331 -0.331,0.869 0,1.2 l 2.033,2.032 c 0.32,0.32 0.879,0.32 1.199,0 l 2.033,-2.032 c 0.331,-0.331 0.331,-0.869 0,-1.2 l -2.033,-2.032 c -0.16,-0.16 -0.372,-0.248 -0.599,-0.248 z" />
		</g>
		<g
   id="g1259">
			<path
   style="fill:#f3a52d"
   inkscape:connector-curvature="0"
   id="path1237"
   d="M 453.109,626.574 H 345.785 c -8.333,0 -15.088,-6.755 -15.088,-15.088 v -51.607 c 0,-8.333 6.755,-15.088 15.088,-15.088 h 107.324 c 8.333,0 15.088,6.755 15.088,15.088 v 51.607 c 0,8.333 -6.755,15.088 -15.088,15.088 z" />
			<g
   id="g1241">
				<path
   style="fill:#111111"
   inkscape:connector-curvature="0"
   id="path1239"
   d="m 445.609,627.574 h -99.824 c -8.871,0 -16.088,-7.217 -16.088,-16.088 v -51.607 c 0,-8.871 7.217,-16.088 16.088,-16.088 h 107.324 c 8.871,0 16.088,7.217 16.088,16.088 v 11.405 h -2 v -11.405 c 0,-7.769 -6.319,-14.088 -14.088,-14.088 H 345.785 c -7.768,0 -14.088,6.319 -14.088,14.088 v 51.607 c 0,7.769 6.32,14.088 14.088,14.088 h 99.824 z" />
			</g>
			<g
   id="g1245">
				<rect
   style="fill:#111111"
   id="rect1243"
   height="20.5"
   width="2"
   y="574.534"
   x="467.19699" />
			</g>
			<g
   id="g1249">
				<rect
   style="fill:#111111"
   id="rect1247"
   height="7.1139998"
   width="2"
   y="599.66998"
   x="467.19699" />
			</g>
			<g
   id="g1257">
				<path
   style="fill:#ffffff"
   inkscape:connector-curvature="0"
   id="path1251"
   d="m 379.544,589.47 5.617,1.781 c -0.861,3.131 -2.294,5.456 -4.297,6.976 -2.003,1.52 -4.542,2.281 -7.622,2.281 -3.81,0 -6.941,-1.303 -9.394,-3.905 -2.453,-2.604 -3.679,-6.161 -3.679,-10.675 0,-4.775 1.233,-8.485 3.699,-11.128 2.466,-2.642 5.708,-3.962 9.727,-3.962 3.51,0 6.36,1.037 8.552,3.112 1.305,1.227 2.283,2.987 2.936,5.284 l -5.734,1.369 c -0.339,-1.486 -1.046,-2.661 -2.125,-3.522 -1.074,-0.86 -2.383,-1.291 -3.923,-1.291 -2.127,0 -3.854,0.763 -5.176,2.289 -1.326,1.526 -1.987,3.999 -1.987,7.418 0,3.627 0.652,6.21 1.957,7.75 1.305,1.539 3.001,2.31 5.088,2.31 1.54,0 2.864,-0.49 3.973,-1.469 1.11,-0.979 1.906,-2.518 2.388,-4.618 z" />
				<path
   style="fill:#ffffff"
   inkscape:connector-curvature="0"
   id="path1253"
   d="m 388.664,590.684 5.637,-0.549 c 0.339,1.893 1.026,3.281 2.065,4.169 1.035,0.887 2.436,1.331 4.197,1.331 1.864,0 3.27,-0.396 4.218,-1.186 0.943,-0.789 1.417,-1.711 1.417,-2.768 0,-0.679 -0.199,-1.258 -0.596,-1.733 -0.399,-0.477 -1.094,-0.89 -2.085,-1.242 -0.679,-0.234 -2.224,-0.652 -4.637,-1.252 -3.105,-0.771 -5.284,-1.716 -6.537,-2.838 -1.762,-1.579 -2.642,-3.503 -2.642,-5.773 0,-1.461 0.413,-2.829 1.242,-4.102 0.828,-1.271 2.022,-2.239 3.583,-2.905 1.557,-0.665 3.44,-0.998 5.645,-0.998 3.6,0 6.31,0.79 8.132,2.368 1.817,1.579 2.774,3.687 2.866,6.321 l -5.793,0.255 c -0.248,-1.475 -0.781,-2.536 -1.597,-3.182 -0.816,-0.646 -2.037,-0.968 -3.667,-0.968 -1.683,0 -3.001,0.346 -3.954,1.037 -0.613,0.444 -0.919,1.038 -0.919,1.781 0,0.679 0.287,1.259 0.861,1.742 0.731,0.613 2.505,1.252 5.324,1.918 2.816,0.665 4.9,1.353 6.253,2.063 1.348,0.711 2.404,1.683 3.17,2.916 0.762,1.232 1.144,2.757 1.144,4.57 0,1.645 -0.456,3.184 -1.369,4.619 -0.914,1.436 -2.205,2.501 -3.875,3.199 -1.671,0.697 -3.752,1.048 -6.242,1.048 -3.627,0 -6.413,-0.84 -8.357,-2.516 -1.944,-1.674 -3.106,-4.116 -3.484,-7.325 z" />
				<path
   style="fill:#ffffff"
   inkscape:connector-curvature="0"
   id="path1255"
   d="m 415.397,590.684 5.636,-0.549 c 0.34,1.893 1.026,3.281 2.066,4.169 1.035,0.887 2.436,1.331 4.196,1.331 1.866,0 3.271,-0.396 4.219,-1.186 0.943,-0.789 1.418,-1.711 1.418,-2.768 0,-0.679 -0.2,-1.258 -0.596,-1.733 -0.4,-0.477 -1.094,-0.89 -2.086,-1.242 -0.678,-0.234 -2.225,-0.652 -4.638,-1.252 -3.105,-0.771 -5.284,-1.716 -6.537,-2.838 -1.762,-1.579 -2.642,-3.503 -2.642,-5.773 0,-1.461 0.413,-2.829 1.241,-4.102 0.829,-1.271 2.022,-2.239 3.584,-2.905 1.557,-0.665 3.44,-0.998 5.645,-0.998 3.602,0 6.311,0.79 8.133,2.368 1.818,1.579 2.775,3.687 2.866,6.321 l -5.793,0.255 c -0.248,-1.475 -0.78,-2.536 -1.596,-3.182 -0.816,-0.646 -2.038,-0.968 -3.669,-0.968 -1.683,0 -3.001,0.346 -3.953,1.037 -0.613,0.444 -0.92,1.038 -0.92,1.781 0,0.679 0.287,1.259 0.861,1.742 0.73,0.613 2.505,1.252 5.323,1.918 2.818,0.665 4.901,1.353 6.254,2.063 1.349,0.711 2.405,1.683 3.171,2.916 0.761,1.232 1.144,2.757 1.144,4.57 0,1.645 -0.457,3.184 -1.37,4.619 -0.913,1.435 -2.205,2.501 -3.875,3.199 -1.67,0.697 -3.751,1.048 -6.243,1.048 -3.627,0 -6.413,-0.84 -8.356,-2.516 -1.943,-1.674 -3.105,-4.116 -3.483,-7.325 z" />
			</g>
		</g>
		<g
   id="g1293">
			<path
   style="fill:#ffffff"
   inkscape:connector-curvature="0"
   id="path1261"
   d="M 303.847,529.218 H 291.85 c -1.21,0 -2.384,1.139 -2.384,2.349 v 21.129 c 0,1.207 1.174,2.496 2.384,2.496 h 1.955 v 37.271 h 8.089 v -37.271 h 1.954 c 1.21,0 2.384,-1.289 2.384,-2.496 v -21.129 c -0.001,-1.211 -1.175,-2.349 -2.385,-2.349 z" />
			<g
   id="g1265">
				<path
   style="fill:#111111"
   inkscape:connector-curvature="0"
   id="path1263"
   d="m 302.893,593.462 h -10.089 v -37.271 h -0.955 c -1.739,0 -3.384,-1.699 -3.384,-3.496 v -21.129 c 0,-1.753 1.613,-3.349 3.384,-3.349 h 11.998 c 1.771,0 3.384,1.596 3.384,3.349 v 21.129 c 0,1.797 -1.645,3.496 -3.384,3.496 h -0.954 z m -8.089,-2 h 6.089 v -37.271 h 2.954 c 0.634,0 1.384,-0.811 1.384,-1.496 v -21.129 c 0,-0.643 -0.725,-1.349 -1.384,-1.349 H 291.85 c -0.672,0 -1.384,0.693 -1.384,1.349 v 21.129 c 0,0.686 0.75,1.496 1.384,1.496 h 2.955 v 37.271 z" />
			</g>
			<g
   id="g1269">
				<path
   style="fill:#3dc7d2"
   inkscape:connector-curvature="0"
   id="path1267"
   d="m 289.188,681.455 v 6.32 c 0,4.782 3.877,8.659 8.66,8.659 v 0 c 4.783,0 8.66,-3.877 8.66,-8.659 v -6.32 z" />
			</g>
			<g
   id="g1275">
				<g
   id="g1273">
					<path
   style="fill:#111111"
   inkscape:connector-curvature="0"
   id="path1271"
   d="m 297.849,697.435 c -5.327,0 -9.66,-4.333 -9.66,-9.659 v -7.319 h 19.32 v 7.319 c -0.001,5.326 -4.334,9.659 -9.66,9.659 z m -7.661,-14.979 v 5.319 c 0,4.224 3.437,7.659 7.66,7.659 4.223,0 7.66,-3.436 7.66,-7.659 v -5.319 z" />
				</g>
			</g>
			<g
   id="g1279">
				<path
   style="fill:#ea572e"
   inkscape:connector-curvature="0"
   id="path1277"
   d="m 303.729,611.826 v 0 -11.522 h -11.76 v 11.522 0 c -1.535,0 -2.78,1.244 -2.78,2.78 v 66.849 h 17.32 v -66.849 c -0.001,-1.536 -1.245,-2.78 -2.78,-2.78 z" />
			</g>
			<g
   id="g1285">
				<g
   id="g1283">
					<path
   style="fill:#111111"
   inkscape:connector-curvature="0"
   id="path1281"
   d="m 307.508,682.456 h -19.32 v -67.85 c 0,-1.738 1.18,-3.206 2.78,-3.646 v -11.656 h 13.759 v 11.656 c 1.601,0.44 2.78,1.908 2.78,3.646 v 67.85 z m -17.32,-2 h 15.32 v -65.85 c 0,-0.981 -0.799,-1.78 -1.78,-1.78 h -1 v -11.522 h -9.759 v 11.522 h -1 c -0.981,0 -1.78,0.799 -1.78,1.78 v 65.85 z" />
				</g>
			</g>
			<path
   style="fill:#ffffff"
   inkscape:connector-curvature="0"
   id="path1287"
   d="m 305.432,600.304 h -15.167 c -0.998,0 -1.807,-0.81 -1.807,-1.808 v -5.063 c 0,-0.998 0.809,-1.808 1.807,-1.808 h 15.167 c 0.998,0 1.807,0.81 1.807,1.808 v 5.063 c 0,0.998 -0.809,1.808 -1.807,1.808 z" />
			<g
   id="g1291">
				<path
   style="fill:#111111"
   inkscape:connector-curvature="0"
   id="path1289"
   d="m 305.432,601.304 h -15.167 c -1.548,0 -2.807,-1.26 -2.807,-2.808 v -5.063 c 0,-1.548 1.259,-2.808 2.807,-2.808 h 15.167 c 1.548,0 2.807,1.26 2.807,2.808 v 5.063 c 0,1.548 -1.26,2.808 -2.807,2.808 z m -15.167,-8.678 c -0.445,0 -0.807,0.362 -0.807,0.808 v 5.063 c 0,0.445 0.362,0.808 0.807,0.808 h 15.167 c 0.445,0 0.807,-0.362 0.807,-0.808 v -5.063 c 0,-0.445 -0.362,-0.808 -0.807,-0.808 z" />
			</g>
		</g>
		<g
   id="g1339">
			<g
   id="g1299">
				<g
   id="g1297">
					<path
   style="fill:#3dc7d2"
   inkscape:connector-curvature="0"
   id="path1295"
   d="m 486.376,681.455 v 6.32 c 0,4.782 3.877,8.659 8.66,8.659 v 0 c 4.782,0 8.659,-3.877 8.659,-8.659 v -6.32 z" />
				</g>
			</g>
			<g
   id="g1305">
				<g
   id="g1303">
					<path
   style="fill:#111111"
   inkscape:connector-curvature="0"
   id="path1301"
   d="m 495.036,697.435 c -5.326,0 -9.66,-4.333 -9.66,-9.659 v -7.319 h 19.319 v 7.319 c 0,5.326 -4.333,9.659 -9.659,9.659 z m -7.66,-14.979 v 5.319 c 0,4.224 3.437,7.659 7.66,7.659 4.223,0 7.659,-3.436 7.659,-7.659 v -5.319 z" />
				</g>
			</g>
			<g
   id="g1309">
				<path
   style="fill:#f3a52d"
   inkscape:connector-curvature="0"
   id="path1307"
   d="m 500.915,588.056 v -24.13 h -11.759 v 24.13 0 c -1.536,0 -2.78,1.244 -2.78,2.78 v 90.619 h 17.319 v -90.619 c 0,-1.536 -1.244,-2.78 -2.78,-2.78 z" />
			</g>
			<g
   id="g1315">
				<g
   id="g1313">
					<path
   style="fill:#111111"
   inkscape:connector-curvature="0"
   id="path1311"
   d="m 504.695,682.456 h -19.319 v -91.62 c 0,-1.738 1.18,-3.206 2.78,-3.646 v -24.264 h 13.759 v 24.264 c 1.601,0.44 2.78,1.908 2.78,3.646 z m -17.319,-2 h 15.319 v -89.62 c 0,-0.981 -0.799,-1.78 -1.78,-1.78 h -1 v -24.13 h -9.759 v 24.13 h -1 c -0.981,0 -1.78,0.799 -1.78,1.78 z" />
				</g>
			</g>
			<path
   style="fill:#e6e6e6"
   inkscape:connector-curvature="0"
   id="path1317"
   d="m 495.036,563.926 h 5.471 c 0,-9.916 9.93,-16.68 9.93,-16.68 l -15.4,-17.942 -15.401,17.977 c 0,0 9.93,6.729 9.93,16.646 h 5.47 z" />
			<g
   id="g1321">
				<path
   style="fill:#111111"
   inkscape:connector-curvature="0"
   id="path1319"
   d="m 501.507,564.926 h -12.942 v -1 c 0,-9.256 -9.396,-15.754 -9.491,-15.818 l -0.925,-0.629 16.887,-19.711 16.887,19.674 -0.923,0.63 c -0.095,0.064 -9.493,6.596 -9.493,15.854 z m -10.974,-2 h 9.005 c 0.505,-8.108 7.01,-13.937 9.441,-15.843 l -13.942,-16.243 -13.944,16.275 c 2.433,1.901 8.935,7.706 9.44,15.811 z" />
			</g>
			<g
   id="g1325">
				<circle
   style="fill:#7c7e82"
   id="circle1323"
   r="3.4790001"
   cy="548.271"
   cx="495.03601" />
			</g>
			<g
   id="g1329">
				<rect
   style="fill:#111111"
   id="rect1327"
   height="18.320999"
   width="2"
   y="530.77808"
   x="494.03601" />
			</g>
			<g
   id="g1333">
				<rect
   style="fill:#111111"
   id="rect1331"
   height="2"
   width="4.099"
   y="587.05603"
   x="496.81601" />
			</g>
			<g
   id="g1337">
				<rect
   style="fill:#111111"
   id="rect1335"
   height="2"
   width="2.1170001"
   y="587.05603"
   x="493.03" />
			</g>
		</g>
		<g
   id="g1453">
			<g
   id="g1343">
				<polygon
   style="fill:#ea572e"
   id="polygon1341"
   points="399.447,679.653 480.238,679.653 480.238,698.237 318.656,698.237 318.656,679.653 " />
			</g>
			<g
   id="g1347">
				<rect
   style="fill:#111111"
   id="rect1345"
   height="2"
   width="161.582"
   y="678.65302"
   x="318.65601" />
			</g>
			<g
   id="g1351">
				<rect
   style="fill:#111111"
   id="rect1349"
   height="8.2220001"
   width="2"
   y="679.65302"
   x="476.32199" />
			</g>
			<g
   id="g1355">
				<rect
   style="fill:#111111"
   id="rect1353"
   height="5.0970001"
   width="2"
   y="679.65302"
   x="470.24701" />
			</g>
			<g
   id="g1359">
				<rect
   style="fill:#111111"
   id="rect1357"
   height="8.2220001"
   width="2"
   y="679.65302"
   x="463.94699" />
			</g>
			<g
   id="g1363">
				<rect
   style="fill:#111111"
   id="rect1361"
   height="5.0970001"
   width="2"
   y="679.65302"
   x="457.87201" />
			</g>
			<g
   id="g1367">
				<rect
   style="fill:#111111"
   id="rect1365"
   height="8.2220001"
   width="2"
   y="679.65302"
   x="451.57199" />
			</g>
			<g
   id="g1371">
				<rect
   style="fill:#111111"
   id="rect1369"
   height="5.0970001"
   width="2"
   y="679.65302"
   x="445.49701" />
			</g>
			<g
   id="g1375">
				<rect
   style="fill:#111111"
   id="rect1373"
   height="8.2220001"
   width="2"
   y="679.65302"
   x="439.19699" />
			</g>
			<g
   id="g1379">
				<rect
   style="fill:#111111"
   id="rect1377"
   height="5.0970001"
   width="2"
   y="679.65302"
   x="433.12201" />
			</g>
			<g
   id="g1383">
				<rect
   style="fill:#111111"
   id="rect1381"
   height="8.2220001"
   width="2"
   y="679.65302"
   x="426.82199" />
			</g>
			<g
   id="g1387">
				<rect
   style="fill:#111111"
   id="rect1385"
   height="5.0970001"
   width="2"
   y="679.65302"
   x="420.74701" />
			</g>
			<g
   id="g1391">
				<rect
   style="fill:#111111"
   id="rect1389"
   height="8.2220001"
   width="2"
   y="679.65302"
   x="414.44699" />
			</g>
			<g
   id="g1395">
				<rect
   style="fill:#111111"
   id="rect1393"
   height="5.0970001"
   width="2"
   y="679.65302"
   x="408.37201" />
			</g>
			<g
   id="g1399">
				<rect
   style="fill:#111111"
   id="rect1397"
   height="8.2220001"
   width="2"
   y="679.65302"
   x="402.07199" />
			</g>
			<g
   id="g1403">
				<rect
   style="fill:#111111"
   id="rect1401"
   height="5.0970001"
   width="2"
   y="679.65302"
   x="395.99701" />
			</g>
			<g
   id="g1407">
				<rect
   style="fill:#111111"
   id="rect1405"
   height="8.2220001"
   width="2"
   y="679.65302"
   x="389.69699" />
			</g>
			<g
   id="g1411">
				<rect
   style="fill:#111111"
   id="rect1409"
   height="5.0970001"
   width="2"
   y="679.65302"
   x="383.62201" />
			</g>
			<g
   id="g1415">
				<rect
   style="fill:#111111"
   id="rect1413"
   height="8.2220001"
   width="2"
   y="679.65302"
   x="377.32199" />
			</g>
			<g
   id="g1419">
				<rect
   style="fill:#111111"
   id="rect1417"
   height="5.0970001"
   width="2"
   y="679.65302"
   x="371.24701" />
			</g>
			<g
   id="g1423">
				<rect
   style="fill:#111111"
   id="rect1421"
   height="8.2220001"
   width="2"
   y="679.65302"
   x="364.94699" />
			</g>
			<g
   id="g1427">
				<rect
   style="fill:#111111"
   id="rect1425"
   height="5.0970001"
   width="2"
   y="679.65302"
   x="358.87201" />
			</g>
			<g
   id="g1431">
				<rect
   style="fill:#111111"
   id="rect1429"
   height="8.2220001"
   width="2"
   y="679.65302"
   x="352.57199" />
			</g>
			<g
   id="g1435">
				<rect
   style="fill:#111111"
   id="rect1433"
   height="5.0970001"
   width="2"
   y="679.65302"
   x="346.49701" />
			</g>
			<g
   id="g1439">
				<rect
   style="fill:#111111"
   id="rect1437"
   height="8.2220001"
   width="2"
   y="679.65302"
   x="340.19699" />
			</g>
			<g
   id="g1443">
				<rect
   style="fill:#111111"
   id="rect1441"
   height="5.0970001"
   width="2"
   y="679.65302"
   x="334.12201" />
			</g>
			<g
   id="g1447">
				<rect
   style="fill:#111111"
   id="rect1445"
   height="8.2220001"
   width="2"
   y="679.65302"
   x="327.82199" />
			</g>
			<g
   id="g1451">
				<rect
   style="fill:#111111"
   id="rect1449"
   height="5.0970001"
   width="2"
   y="679.65302"
   x="321.74701" />
			</g>
		</g>
		<g
   id="g1473">
			<path
   style="fill:#ea572e"
   inkscape:connector-curvature="0"
   id="path1455"
   d="m 234.377,679.908 h -61.238 c -5.993,0 -10.896,-4.902 -10.896,-10.895 V 636.54 c 0,-5.992 4.903,-10.896 10.896,-10.896 h 61.238 c 5.993,0 10.896,4.903 10.896,10.896 v 32.473 c 0,5.993 -4.903,10.895 -10.896,10.895 z" />
			<g
   id="g1459">
				<path
   style="fill:#111111"
   inkscape:connector-curvature="0"
   id="path1457"
   d="m 234.377,674.909 h -0.869 v -2 h 0.869 c 0.578,0 1.133,-0.124 1.652,-0.368 l 0.852,1.811 c -0.787,0.37 -1.63,0.557 -2.504,0.557 z m -4.89,0 h -3.016 v -2 h 3.016 z m -7.036,0 h -3.016 v -2 h 3.016 z m -7.036,0 h -3.016 v -2 h 3.016 z m -7.037,0 h -3.016 v -2 h 3.016 z m -7.036,0 h -3.016 v -2 h 3.016 z m -7.037,0 h -3.016 v -2 h 3.016 z m -7.036,0 h -3.016 v -2 h 3.016 z m -7.037,0 h -3.016 v -2 h 3.016 z m -7.036,0 h -0.057 c -1.227,0 -2.404,-0.375 -3.405,-1.084 l 1.156,-1.632 c 0.661,0.468 1.439,0.716 2.249,0.716 z m 66.794,-4.09 -1.903,-0.613 c 0.124,-0.385 0.187,-0.785 0.187,-1.192 v -1.491 h 2 v 1.491 c -0.001,0.615 -0.096,1.222 -0.284,1.805 z m -72.694,-1.022 c -0.034,-0.256 -0.052,-0.517 -0.052,-0.781 v -2.363 h 2 v 2.361 c 0,0.175 0.012,0.35 0.035,0.521 z m 72.977,-6.296 h -2 v -3.016 h 2 z m -71.029,-0.869 h -2 v -3.016 h 2 z m 71.029,-6.167 h -2 v -3.016 h 2 z m -71.029,-0.869 h -2 v -3.016 h 2 z m 71.029,-6.167 h -2 v -3.016 h 2 z m -71.029,-0.87 h -2 v -3.016 h 2 z m 71.029,-6.167 h -2 v -3.015 h 2 z m -71.029,-0.87 h -2 v -3.016 h 2 z m 68.916,-5.915 c -0.194,-0.784 -0.622,-1.479 -1.237,-2.013 l 1.309,-1.512 c 0.93,0.805 1.577,1.857 1.87,3.044 z m -68.578,-0.651 -1.825,-0.818 c 0.5,-1.115 1.322,-2.037 2.375,-2.666 l 1.024,1.717 c -0.689,0.411 -1.248,1.039 -1.574,1.767 z m 64.265,-2.31 h -3.016 v -2 h 3.016 z m -7.037,0 h -3.016 v -2 h 3.016 z m -7.036,0 h -3.016 v -2 h 3.016 z m -7.037,0 h -3.016 v -2 h 3.016 z m -7.036,0 h -3.016 v -2 h 3.016 z m -7.036,0 h -3.016 v -2 h 3.016 z m -7.037,0 h -3.015 v -2 h 3.015 z m -7.036,0 h -3.016 v -2 h 3.016 z m -7.037,0 h -3.016 v -2 h 3.016 z" />
			</g>
			<g
   id="g1471">
				<g
   id="g1469">
					<path
   style="fill:#ffffff"
   inkscape:connector-curvature="0"
   id="path1461"
   d="m 174.478,660.617 v -15.681 h 3.166 v 6.172 h 6.204 v -6.172 h 3.166 v 15.681 h -3.166 v -6.856 h -6.204 v 6.856 z" />
					<path
   style="fill:#ffffff"
   inkscape:connector-curvature="0"
   id="path1463"
   d="M 193.816,660.617 V 647.59 h -4.653 v -2.653 h 12.461 v 2.653 h -4.642 v 13.027 z" />
					<path
   style="fill:#ffffff"
   inkscape:connector-curvature="0"
   id="path1465"
   d="m 203.625,660.617 v -15.681 h 4.738 l 2.845,10.696 2.813,-10.696 h 4.749 v 15.681 h -2.941 v -12.343 l -3.113,12.343 h -3.048 l -3.102,-12.343 v 12.343 z" />
					<path
   style="fill:#ffffff"
   inkscape:connector-curvature="0"
   id="path1467"
   d="m 222,660.617 v -15.552 h 3.167 v 12.91 h 7.872 v 2.642 z" />
				</g>
			</g>
		</g>
		<g
   id="g1491">
			<rect
   style="fill:#7c7e82"
   id="rect1475"
   height="35.25"
   width="3.013"
   y="628.14697"
   x="92.662003" />
			<path
   style="fill:#7c7e82"
   inkscape:connector-curvature="0"
   id="path1477"
   d="m 92.902,648.704 c -0.831,0 -1.507,-0.676 -1.507,-1.507 v -3.166 c 0,-0.831 0.676,-1.507 1.507,-1.507 h 2.85 c 0.831,0 1.507,0.676 1.507,1.507 v 3.166 c 0,0.831 -0.676,1.507 -1.507,1.507 z" />
			<path
   style="fill:#7c7e82"
   inkscape:connector-curvature="0"
   id="path1479"
   d="m 92.902,667.071 c -0.831,0 -1.507,-0.676 -1.507,-1.507 v -3.167 c 0,-0.831 0.676,-1.507 1.507,-1.507 h 3.167 c 0.831,0 1.507,0.676 1.507,1.507 v 3.167 c 0,0.831 -0.676,1.507 -1.507,1.507 z" />
			<path
   style="fill:#7c7e82"
   inkscape:connector-curvature="0"
   id="path1481"
   d="m 92.902,630.654 c -0.831,0 -1.507,-0.676 -1.507,-1.507 v -3.483 c 0,-0.831 0.676,-1.507 1.507,-1.507 h 2.85 c 0.831,0 1.507,0.676 1.507,1.507 v 3.483 c 0,0.831 -0.676,1.507 -1.507,1.507 z" />
			<path
   style="fill:#7c7e82"
   inkscape:connector-curvature="0"
   id="path1483"
   d="m 92.711,644.861 -0.002,-0.993 c 0,-0.053 -0.051,-5.263 -3.384,-8.612 -1.96,-1.969 -4.718,-2.967 -8.196,-2.967 h -1 v -3.013 h 1 c 4.314,0 7.792,1.299 10.339,3.861 4.136,4.162 4.255,10.059 4.255,10.718 v 1.006 l -1.006,0.012 z" />
			<path
   style="fill:#7c7e82"
   inkscape:connector-curvature="0"
   id="path1485"
   d="m 80.128,661.734 v -3.014 h 1 c 3.481,0 6.241,-1 8.201,-2.973 3.336,-3.356 3.379,-8.55 3.379,-8.602 l 0.001,-0.99 3.013,-0.027 v 1.009 c 0,0.676 -0.12,6.572 -4.255,10.735 -2.546,2.563 -6.025,3.861 -10.339,3.861 h -1 z" />
			<path
   style="fill:#7c7e82"
   inkscape:connector-curvature="0"
   id="path1487"
   d="m 79.919,634.138 c -0.831,0 -1.507,-0.676 -1.507,-1.507 v -3.483 c 0,-0.831 0.676,-1.507 1.507,-1.507 h 3.167 c 0.831,0 1.507,0.676 1.507,1.507 v 3.483 c 0,0.831 -0.676,1.507 -1.507,1.507 z" />
			<path
   style="fill:#7c7e82"
   inkscape:connector-curvature="0"
   id="path1489"
   d="m 79.919,663.588 c -0.831,0 -1.507,-0.676 -1.507,-1.507 v -3.483 c 0,-0.831 0.676,-1.507 1.507,-1.507 h 2.85 c 0.831,0 1.507,0.676 1.507,1.507 v 3.483 c 0,0.831 -0.676,1.507 -1.507,1.507 z" />
		</g>
	</g>
</svg>