<?xml version="1.0" encoding="UTF-8" standalone="no"?>
<svg
   xmlns:dc="http://purl.org/dc/elements/1.1/"
   xmlns:cc="http://creativecommons.org/ns#"
   xmlns:rdf="http://www.w3.org/1999/02/22-rdf-syntax-ns#"
   xmlns:svg="http://www.w3.org/2000/svg"
   xmlns="http://www.w3.org/2000/svg"
   xmlns:sodipodi="http://sodipodi.sourceforge.net/DTD/sodipodi-0.dtd"
   xmlns:inkscape="http://www.inkscape.org/namespaces/inkscape"
   width="210mm"
   height="297mm"
   viewBox="0 0 210 297"
   version="1.1"
   id="svg1726"
   inkscape:version="1.0.1 (3bc2e813f5, 2020-09-07)"
   sodipodi:docname="yarn.svg">
  <defs
     id="defs1720" />
  <sodipodi:namedview
     id="base"
     pagecolor="#ffffff"
     bordercolor="#666666"
     borderopacity="1.0"
     inkscape:pageopacity="0.0"
     inkscape:pageshadow="2"
     inkscape:zoom="0.35"
     inkscape:cx="264.28571"
     inkscape:cy="560"
     inkscape:document-units="mm"
     inkscape:current-layer="layer1"
     inkscape:document-rotation="0"
     showgrid="false"
     inkscape:window-width="1920"
     inkscape:window-height="1001"
     inkscape:window-x="-9"
     inkscape:window-y="-9"
     inkscape:window-maximized="1" />
  <metadata
     id="metadata1723">
    <rdf:RDF>
      <cc:Work
         rdf:about="">
        <dc:format>image/svg+xml</dc:format>
        <dc:type
           rdf:resource="http://purl.org/dc/dcmitype/StillImage" />
        <dc:title></dc:title>
      </cc:Work>
    </rdf:RDF>
  </metadata>
  <g
     inkscape:label="Layer 1"
     inkscape:groupmode="layer"
     id="layer1">
    <g
       id="g1718"
       transform="translate(130.0238,-303.1369)">
      <path
         fill="#231f20"
         d="m 41.820568,402.83397 c -0.231617,0 -0.463235,-0.1158 -0.579044,-0.23161 -0.347426,-0.34743 -0.347426,-0.92647 0,-1.2739 l 1.505515,-1.50552 c 0.347427,-0.34742 0.926471,-0.34742 1.273898,0 0.347426,0.34743 0.347426,0.92647 0,1.2739 l -1.505515,1.50552 c -0.231618,0.11581 -0.463236,0.23161 -0.694854,0.23161 z"
         id="path1194"
         style="stroke-width:1.15809" />
      <path
         fill="#231f20"
         d="m 36.956597,407.69795 c -0.231618,0 -0.463236,-0.11581 -0.579045,-0.23162 -0.347426,-0.34743 -0.347426,-0.92647 0,-1.2739 l 1.505516,-1.50551 c 0.347426,-0.34743 0.92647,-0.34743 1.273897,0 0.347426,0.34742 0.347426,0.92647 0,1.27389 l -1.505515,1.50552 c -0.231618,0.11581 -0.463236,0.23162 -0.694853,0.23162 z"
         id="path1196"
         style="stroke-width:1.15809" />
      <path
         fill="#231f20"
         d="m 43.326083,407.69795 c -0.231617,0 -0.463235,-0.11581 -0.579044,-0.23162 l -1.505515,-1.50552 c -0.347426,-0.34742 -0.347426,-0.92647 0,-1.27389 0.347427,-0.34743 0.926471,-0.34743 1.273898,0 l 1.505515,1.50551 c 0.347426,0.34743 0.347426,0.92647 0,1.2739 -0.231618,0.11581 -0.463236,0.23162 -0.694854,0.23162 z"
         id="path1198"
         style="stroke-width:1.15809" />
      <path
         fill="#231f20"
         d="m 38.462112,402.83397 c -0.231618,0 -0.463236,-0.1158 -0.579044,-0.23161 l -1.505516,-1.50552 c -0.347426,-0.34743 -0.347426,-0.92647 0,-1.2739 0.347427,-0.34742 0.926471,-0.34742 1.273898,0 l 1.505515,1.50552 c 0.347426,0.34743 0.347426,0.92647 0,1.2739 -0.231618,0.11581 -0.463235,0.23161 -0.694853,0.23161 z"
         id="path1200"
         style="stroke-width:1.15809" />
      <path
         fill="#231f20"
         d="m 41.820568,527.90753 c -0.231617,0 -0.463235,-0.11581 -0.579044,-0.23162 -0.347426,-0.34742 -0.347426,-0.92647 0,-1.27389 l 1.505515,-1.50552 c 0.347427,-0.34742 0.926471,-0.34742 1.273898,0 0.347426,0.34743 0.347426,0.92647 0,1.2739 l -1.505515,1.50551 c -0.231618,0.11581 -0.463236,0.23162 -0.694854,0.23162 z"
         id="path1202"
         style="stroke-width:1.15809" />
      <path
         fill="#231f20"
         d="m 36.956597,532.6557 c -0.231618,0 -0.463236,-0.11581 -0.579045,-0.23162 -0.347426,-0.34743 -0.347426,-0.92647 0,-1.2739 l 1.505516,-1.50551 c 0.347426,-0.34743 0.92647,-0.34743 1.273897,0 0.347426,0.34742 0.347426,0.92647 0,1.27389 l -1.505515,1.50552 c -0.231618,0.23162 -0.463236,0.23162 -0.694853,0.23162 z"
         id="path1204"
         style="stroke-width:1.15809" />
      <path
         fill="#231f20"
         d="m 43.326083,532.6557 c -0.231617,0 -0.463235,-0.11581 -0.579044,-0.23162 l -1.505515,-1.50552 c -0.347426,-0.34742 -0.347426,-0.92647 0,-1.27389 0.347427,-0.34743 0.926471,-0.34743 1.273898,0 l 1.505515,1.50551 c 0.347426,0.34743 0.347426,0.92647 0,1.2739 -0.231618,0.23162 -0.463236,0.23162 -0.694854,0.23162 z"
         id="path1206"
         style="stroke-width:1.15809" />
      <path
         fill="#231f20"
         d="m 38.462112,527.90753 c -0.231618,0 -0.463236,-0.11581 -0.579044,-0.23162 l -1.505516,-1.50551 c -0.347426,-0.34743 -0.347426,-0.92647 0,-1.2739 0.347427,-0.34742 0.926471,-0.34742 1.273898,0 l 1.505515,1.50552 c 0.347426,0.34742 0.347426,0.92647 0,1.27389 -0.231618,0.11581 -0.463235,0.23162 -0.694853,0.23162 z"
         id="path1208"
         style="stroke-width:1.15809" />
      <path
         fill="#231f20"
         d="m -82.21071,521.53805 c -0.231618,0 -0.463235,-0.11581 -0.579044,-0.23162 -0.347427,-0.34743 -0.347427,-0.92647 0,-1.2739 l 1.505515,-1.50551 c 0.347426,-0.34743 0.926471,-0.34743 1.273897,0 0.347427,0.34742 0.347427,0.92647 0,1.27389 l -1.505515,1.50552 c -0.231618,0.11581 -0.463235,0.23162 -0.694853,0.23162 z"
         id="path1210"
         style="stroke-width:1.15809" />
      <path
         fill="#231f20"
         d="m -87.074682,526.40202 c -0.231617,0 -0.463235,-0.11581 -0.579044,-0.23162 -0.347426,-0.34743 -0.347426,-0.92647 0,-1.2739 l 1.505515,-1.50551 c 0.347427,-0.34743 0.926471,-0.34743 1.273898,0 0.347426,0.34742 0.347426,0.92647 0,1.27389 l -1.505516,1.50552 c -0.231617,0.11581 -0.463235,0.23162 -0.694853,0.23162 z"
         id="path1212"
         style="stroke-width:1.15809" />
      <path
         fill="#231f20"
         d="m -80.705195,526.40202 c -0.231618,0 -0.463235,-0.11581 -0.579044,-0.23162 l -1.505515,-1.50552 c -0.347427,-0.34742 -0.347427,-0.92647 0,-1.27389 0.347426,-0.34743 0.926471,-0.34743 1.273897,0 l 1.505515,1.50551 c 0.347427,0.34743 0.347427,0.92647 0,1.2739 -0.231617,0.11581 -0.463235,0.23162 -0.694853,0.23162 z"
         id="path1214"
         style="stroke-width:1.15809" />
      <path
         fill="#231f20"
         d="m -85.453358,521.53805 c -0.231617,0 -0.463235,-0.11581 -0.579044,-0.23162 l -1.505515,-1.50552 c -0.347427,-0.34742 -0.347427,-0.92647 0,-1.27389 0.347427,-0.34743 0.926471,-0.34743 1.273897,0 l 1.505515,1.50551 c 0.347427,0.34743 0.347427,0.92647 0,1.2739 -0.347426,0.11581 -0.579044,0.23162 -0.694853,0.23162 z"
         id="path1216"
         style="stroke-width:1.15809" />
      <path
         fill="#ffffff"
         d="m 49.463953,467.45531 v -9.49632 L 40.083436,455.527 c -0.347427,-3.47426 -1.04228,-6.83272 -1.968751,-10.07537 l 7.759193,-5.79044 -3.705883,-8.80147 -9.612135,1.3897 c -1.621323,-3.01103 -3.590074,-5.79044 -5.674633,-8.45404 l 4.863972,-8.33824 -6.716914,-6.71691 -8.338237,4.86397 c -2.663604,-2.08456 -5.443016,-4.05331 -8.454046,-5.67464 l 1.3897062,-9.61213 -8.80147265,-3.59008 -5.79044245,7.7592 c -3.2426479,-0.92647 -6.6011041,-1.62133 -10.0753701,-1.96875 l -2.431986,-9.38052 h -9.496325 l -2.431986,9.38052 c -3.474266,0.34742 -6.832722,1.04228 -10.07537,1.96875 l -5.790443,-7.7592 -8.685663,3.59008 1.389706,9.61213 c -3.01103,1.62133 -5.790443,3.59008 -8.454046,5.67464 l -8.338238,-4.86397 -6.716913,6.71691 4.863972,8.33824 c -2.084559,2.6636 -4.05331,5.44301 -5.674634,8.45404 l -9.727943,-1.3897 -3.590075,8.80147 7.759193,5.79044 c -0.92647,3.24265 -1.621323,6.60111 -1.96875,10.07537 l -9.380517,2.43199 v 9.49632 l 9.380517,2.43199 c 0.347427,3.47426 1.04228,6.83272 1.96875,10.07537 l -7.759193,5.79044 3.590075,8.80147 9.612134,-1.3897 c 1.621324,3.01103 3.590075,5.79044 5.674634,8.45404 l -4.863972,8.33824 6.716914,6.71691 8.338237,-4.86397 c 2.663603,2.08456 5.443016,4.05331 8.454046,5.67464 l -1.389706,9.61213 8.801472,3.59007 5.790443,-7.75919 c 3.242648,0.92647 6.601104,1.62133 10.07537,1.96875 l 2.431986,9.38052 h 9.496325 l 2.431986,-9.38052 c 3.474266,-0.34742 6.8327222,-1.04228 10.0753701,-1.96875 l 5.79044245,7.75919 8.80147255,-3.59007 -1.3897062,-9.61213 c 3.0110301,-1.62133 5.7904421,-3.59008 8.4540461,-5.67464 l 8.338237,4.86397 6.716913,-6.71691 -4.863971,-8.33824 c 2.084559,-2.6636 4.05331,-5.44301 5.674633,-8.45404 l 9.612135,1.3897 3.590074,-8.80147 -7.759193,-5.79044 c 0.926471,-3.24265 1.621324,-6.60111 1.968751,-10.07537 z"
         id="path1218"
         style="stroke-width:1.15809" />
      <path
         fill="#231f20"
         d="m -17.473563,535.20349 h -9.496325 c -0.347427,0 -0.694854,-0.23162 -0.810662,-0.69485 l -2.316177,-8.80148 c -3.011031,-0.34742 -6.022061,-0.92647 -9.033091,-1.73713 l -5.443016,7.18015 c -0.231617,0.34743 -0.694853,0.46324 -1.042279,0.23162 l -8.801473,-3.59008 c -0.347426,-0.11581 -0.579044,-0.57904 -0.579044,-0.92647 l 1.273897,-8.91728 c -2.663603,-1.50551 -5.211398,-3.24265 -7.643384,-5.09559 l -7.759193,4.63236 c -0.347426,0.23161 -0.810662,0.1158 -1.042279,-0.11581 l -6.716914,-6.71692 c -0.231618,-0.23161 -0.347426,-0.69485 -0.115809,-1.04228 l 4.632354,-7.75919 c -1.852941,-2.43198 -3.590074,-4.97978 -5.095589,-7.64338 l -8.917282,1.27389 c -0.347426,0 -0.810661,-0.1158 -0.92647,-0.57904 l -3.705883,-8.80147 c -0.115809,-0.34743 0,-0.81066 0.231617,-1.04228 l 7.180149,-5.44302 c -0.810662,-2.89522 -1.389706,-6.02206 -1.737133,-9.03309 l -8.801472,-2.31618 c -0.347427,0 -0.579045,-0.34742 -0.579045,-0.81066 v -9.49632 c 0,-0.34743 0.231618,-0.69486 0.694853,-0.81067 l 8.801473,-2.31617 c 0.347427,-3.01103 0.926471,-6.02206 1.737133,-9.03309 l -7.180149,-5.44302 c -0.347426,-0.23162 -0.463235,-0.57904 -0.347426,-1.04228 l 3.590074,-8.80147 c 0.115809,-0.34743 0.579044,-0.57904 0.926471,-0.57904 l 8.917281,1.27389 c 1.505515,-2.6636 3.242648,-5.2114 5.09559,-7.64338 l -4.632355,-7.75919 c -0.231617,-0.34743 -0.115808,-0.81067 0.115809,-1.04228 l 6.716914,-6.71692 c 0.231617,-0.23162 0.694853,-0.34742 1.042279,-0.11581 l 7.759193,4.63236 c 2.431986,-1.85294 4.979781,-3.59008 7.643384,-5.09559 l -1.042279,-9.03309 c 0,-0.34743 0.115809,-0.81066 0.579044,-0.92647 l 8.801473,-3.59008 c 0.347426,-0.11581 0.810662,0 1.042279,0.23162 l 5.443016,7.18015 c 2.895221,-0.81066 5.906252,-1.38971 8.917282,-1.73713 l 2.316177,-8.80148 c 0.115808,-0.34742 0.463235,-0.69485 0.810662,-0.69485 h 9.496325 c 0.347427,0 0.694853,0.23162 0.810662,0.69485 l 2.316177,8.80148 c 3.01103,0.34742 6.0220604,0.92647 9.0330905,1.73713 l 5.44301595,-7.18015 c 0.2316177,-0.34743 0.6948531,-0.46323 1.04227965,-0.23162 l 8.8014726,3.59008 c 0.3474263,0.11581 0.5790443,0.57904 0.5790443,0.92647 l -1.2738974,8.91728 c 2.6636034,1.50551 5.2113984,3.24265 7.6433844,5.09559 l 7.759193,-4.63236 c 0.347426,-0.23161 0.810662,-0.1158 1.042279,0.11581 l 6.716914,6.71692 c 0.231617,0.23161 0.347426,0.69485 0.115808,1.04228 l -4.632354,7.75919 c 1.852942,2.43199 3.590075,4.97978 5.09559,7.64338 l 8.917281,-1.27389 c 0.347427,0 0.810662,0.11581 0.926471,0.57904 l 3.590074,8.80147 c 0.115809,0.34743 0,0.81067 -0.231617,1.04228 l -7.180149,5.44302 c 0.810662,2.89522 1.389706,6.02206 1.737133,9.03309 l 8.801472,2.31618 c 0.347427,0.1158 0.694853,0.46323 0.694853,0.81066 v 9.49632 c 0,0.34743 -0.231617,0.69486 -0.694853,0.81067 l -8.801472,2.31617 c -0.347427,3.01103 -0.926471,6.02206 -1.737133,9.03309 l 7.180149,5.44302 c 0.347426,0.23162 0.463235,0.69485 0.231617,1.04228 l -3.590074,8.80147 c -0.115809,0.34743 -0.579044,0.57905 -0.926471,0.57905 l -8.917281,-1.2739 c -1.505515,2.6636 -3.242648,5.2114 -5.09559,7.64338 l 4.632354,7.7592 c 0.231618,0.34742 0.115809,0.81066 -0.115808,1.04227 l -6.716914,6.71692 c -0.231617,0.23162 -0.694853,0.34742 -1.042279,0.11581 l -7.759193,-4.63236 c -2.431986,1.85294 -4.979781,3.59008 -7.6433844,5.09559 l 1.2738974,8.91728 c 0,0.34743 -0.115809,0.81067 -0.5790443,0.92647 l -8.8014726,3.59008 c -0.34742655,0.11581 -0.81066195,0 -1.04227965,-0.23162 l -5.44301595,-7.18015 c -2.8952213,0.81066 -6.0220605,1.38971 -9.0330905,1.73714 l -2.316177,8.80147 c 0,0.57904 -0.347426,0.81066 -0.810662,0.81066 z m -8.801472,-1.73713 h 8.222428 l 2.200368,-8.68567 c 0.115809,-0.34742 0.347427,-0.57904 0.694853,-0.69485 3.358457,-0.34743 6.6011047,-1.04228 9.8437525,-1.96875 0.3474266,-0.11581 0.6948531,0 0.9264708,0.34743 l 5.4430159,7.18015 7.5275753,-3.12684 -1.2738973,-8.91729 c 0,-0.34742 0.1158088,-0.69485 0.4632354,-0.92647 2.8952214,-1.62132 5.6746334,-3.47426 8.3382374,-5.55882 0.231617,-0.23162 0.694853,-0.23162 1.042279,-0.11581 l 7.759193,4.51655 5.790443,-5.79045 -4.516545,-7.75919 c -0.231618,-0.34743 -0.115809,-0.69485 0.115809,-1.04228 2.084559,-2.6636 3.9375,-5.44302 5.558824,-8.33824 0.231618,-0.34742 0.579045,-0.46323 0.926471,-0.46323 l 8.917282,1.27389 3.126839,-7.52757 -7.180149,-5.44302 c -0.347427,-0.23161 -0.463236,-0.57904 -0.347427,-0.92647 0.926471,-3.24264 1.621324,-6.6011 1.968751,-9.84375 0,-0.34743 0.347426,-0.69485 0.694853,-0.69485 l 8.685664,-2.20037 v -8.10662 l -8.801473,-2.31618 c -0.347427,-0.11581 -0.579044,-0.34742 -0.694853,-0.69485 -0.347427,-3.35846 -1.04228,-6.6011 -1.968751,-9.84375 -0.115808,-0.34743 0,-0.69486 0.347427,-0.92647 l 7.180149,-5.44302 -3.126839,-7.52757 -8.917282,1.27389 c -0.347426,0 -0.694853,-0.11581 -0.926471,-0.46323 -1.621323,-2.89522 -3.474265,-5.67464 -5.558824,-8.33824 -0.231618,-0.23162 -0.231618,-0.69485 -0.115809,-1.04228 l 4.516545,-7.75919 -5.790442,-5.79044 -7.759193,4.51654 c -0.347427,0.23162 -0.694854,0.11581 -1.04228,-0.11581 -2.663604,-2.08456 -5.443016,-3.9375 -8.3382373,-5.55882 -0.3474265,-0.23162 -0.4632354,-0.57905 -0.4632354,-0.92647 l 1.2738973,-8.91729 -7.5275752,-3.12683 -5.443016,7.18014 c -0.2316177,0.34743 -0.5790442,0.46324 -0.9264708,0.34743 -3.2426478,-0.92647 -6.6011046,-1.62132 -9.8437526,-1.96875 -0.347426,0 -0.694853,-0.34743 -0.694853,-0.69485 l -2.084559,-8.56986 h -8.222428 l -2.200368,8.68567 c -0.115809,0.34742 -0.347427,0.57904 -0.694854,0.69485 -3.358456,0.34743 -6.601104,1.04228 -9.843752,1.96875 -0.347426,0.11581 -0.694853,0 -0.926471,-0.34743 l -5.443016,-7.18015 -7.527575,3.12684 1.273898,8.91728 c 0,0.34743 -0.115809,0.69486 -0.463236,0.92648 -2.895221,1.62132 -5.674634,3.47426 -8.338237,5.55882 -0.231618,0.23162 -0.694853,0.23162 -1.04228,0.11581 l -7.759193,-4.51655 -5.790442,5.79045 4.516545,7.75919 c 0.231618,0.34743 0.115809,0.69485 -0.115809,1.04228 -2.084559,2.6636 -3.937501,5.44302 -5.558825,8.33824 -0.231617,0.34742 -0.579044,0.46323 -0.926471,0.46323 l -8.917281,-1.2739 -3.126839,7.52758 7.180149,5.44302 c 0.347426,0.23161 0.463235,0.57904 0.347426,0.92647 -0.92647,3.24264 -1.621324,6.6011 -1.96875,9.84375 0,0.34743 -0.347427,0.69485 -0.694853,0.69485 l -8.685664,2.20037 v 8.10662 l 8.685664,2.20037 c 0.347426,0.11581 0.579044,0.34742 0.694853,0.69485 0.347426,3.35846 1.04228,6.60111 1.96875,9.84375 0.115809,0.34743 0,0.69486 -0.347426,0.92647 l -7.180149,5.44302 3.126839,7.52757 8.917281,-1.27389 c 0.347427,0 0.694854,0.11581 0.926471,0.46323 1.621324,2.89522 3.474266,5.67464 5.558825,8.33824 0.231618,0.23162 0.231618,0.69485 0.115809,1.04228 l -4.516545,7.75919 5.790442,5.79045 7.759193,-4.51655 c 0.347427,-0.23162 0.694853,-0.11581 1.04228,0.11581 2.663603,2.08456 5.443016,3.9375 8.338237,5.55882 0.347427,0.23162 0.463236,0.57905 0.463236,0.92647 l -1.273898,8.91729 7.527575,3.12684 5.443016,-7.18015 c 0.231618,-0.34743 0.579045,-0.46324 0.926471,-0.34743 3.242648,0.92647 6.601105,1.62132 9.843752,1.96875 0.347427,0 0.694854,0.34743 0.694854,0.69485 z"
         id="path1220"
         style="stroke-width:1.15809" />
      <circle
         fill="#ffffff"
         cx="-23.495619"
         cy="462.70715"
         r="53.73531"
         id="circle1222"
         style="stroke-width:1.15809" />
      <path
         fill="#231f20"
         d="m -23.495623,517.36893 c -30.110301,0 -54.661777,-24.55148 -54.661777,-54.66178 0,-30.1103 24.551476,-54.66178 54.661777,-54.66178 30.110301,0 54.661777,24.55148 54.661777,54.66178 0,30.1103 -24.551476,54.66178 -54.661777,54.66178 z m 0,-107.47062 c -29.18383,0 -52.808836,23.74082 -52.808836,52.80884 0,29.18383 23.740815,52.80884 52.808836,52.80884 29.0680214,0 52.808836,-23.74082 52.808836,-52.80884 0,-29.18383 -23.6250057,-52.80884 -52.808836,-52.80884 z"
         id="path1224"
         style="stroke-width:1.15809" />
      <path
         fill="#ffffff"
         d="m -2.65003,430.74391 h -41.691186 c -1.96875,0 -3.474265,-1.50552 -3.474265,-3.47427 v -3.82169 H 0.82423555 v 3.82169 c 0,1.85294 -1.6213239,3.47427 -3.47426555,3.47427 z"
         id="path1226"
         style="stroke-width:1.15809" />
      <path
         fill="#ffffff"
         d="m -18.284225,462.70715 c 6.137869,-3.59007 15.5183862,-10.30699 15.5183862,-17.95037 V 430.74391 H -44.225407 v 14.01287 c 0,7.64338 9.380517,14.3603 15.518386,17.95037 -6.137869,3.59007 -15.518386,10.30699 -15.518386,17.95037 v 14.01287 h 41.3437593 v -14.01287 c 0.1158089,-7.64338 -9.2647083,-14.3603 -15.4025773,-17.95037 z"
         id="path1230"
         style="stroke-width:1.15809" />
      <line
         fill="#ffffff"
         x1="0.82423908"
         y1="452.74759"
         x2="10.436368"
         y2="452.74759"
         id="line1236"
         style="stroke-width:1.15809" />
      <path
         fill="#231f20"
         d="M 10.43637,453.55825 H 0.82423555 c -0.4632354,0 -0.9264708,-0.34743 -0.9264708,-0.92647 0,-0.46324 0.34742655,-0.92647 0.9264708,-0.92647 H 10.43637 c 0.463236,0 0.926471,0.34743 0.926471,0.92647 0,0.57904 -0.347427,0.92647 -0.926471,0.92647 z"
         id="path1238"
         style="stroke-width:1.15809" />
      <line
         fill="#ffffff"
         x1="9.509903"
         y1="456.22186"
         x2="14.258064"
         y2="456.22186"
         id="line1240"
         style="stroke-width:1.15809" />
      <path
         fill="#231f20"
         d="M 14.258062,457.14832 H 9.5098993 c -0.4632354,0 -0.9264708,-0.34742 -0.9264708,-0.92647 0,-0.46323 0.3474266,-0.92647 0.9264708,-0.92647 h 4.7481627 c 0.463236,0 0.926471,0.34743 0.926471,0.92647 0,0.46324 -0.463235,0.92647 -0.926471,0.92647 z"
         id="path1242"
         style="stroke-width:1.15809" />
      <line
         fill="#ffffff"
         x1="14.837109"
         y1="452.74759"
         x2="19.353655"
         y2="452.74759"
         id="line1244"
         style="stroke-width:1.15809" />
      <path
         fill="#231f20"
         d="m 19.353652,453.55825 h -4.516546 c -0.463235,0 -0.92647,-0.34743 -0.92647,-0.92647 0,-0.46324 0.347426,-0.92647 0.92647,-0.92647 h 4.516546 c 0.463235,0 0.92647,0.34743 0.92647,0.92647 0,0.57904 -0.463235,0.92647 -0.92647,0.92647 z"
         id="path1246"
         style="stroke-width:1.15809" />
      <line
         fill="#ffffff"
         x1="5.2249699"
         y1="456.22186"
         x2="6.1514444"
         y2="456.22186"
         id="line1248"
         style="stroke-width:1.15809" />
      <path
         fill="#231f20"
         d="M 6.1514427,457.14832 H 5.2249719 c -0.4632354,0 -0.9264708,-0.34742 -0.9264708,-0.92647 0,-0.46323 0.3474265,-0.92647 0.9264708,-0.92647 h 0.9264708 c 0.4632354,0 0.9264708,0.34743 0.9264708,0.92647 -0.1158089,0.46324 -0.4632355,0.92647 -0.9264708,0.92647 z"
         id="path1250"
         style="stroke-width:1.15809" />
      <line
         fill="#ffffff"
         x1="-68.197838"
         y1="465.37076"
         x2="-58.469898"
         y2="465.37076"
         id="line1252"
         style="stroke-width:1.15809" />
      <path
         fill="#231f20"
         d="m -58.469896,466.29722 h -9.612134 c -0.463236,0 -0.926471,-0.34742 -0.926471,-0.92647 0,-0.57904 0.347427,-0.92647 0.926471,-0.92647 h 9.612134 c 0.463236,0 0.926471,0.34743 0.926471,0.92647 0,0.57905 -0.463235,0.92647 -0.926471,0.92647 z"
         id="path1254"
         style="stroke-width:1.15809" />
      <line
         fill="#ffffff"
         x1="-59.396366"
         y1="468.84503"
         x2="-54.648201"
         y2="468.84503"
         id="line1256"
         style="stroke-width:1.15809" />
      <path
         fill="#231f20"
         d="m -54.648204,469.77149 h -4.748162 c -0.463236,0 -0.926471,-0.34743 -0.926471,-0.92647 0,-0.46324 0.347426,-0.92647 0.926471,-0.92647 h 4.748162 c 0.463236,0 0.926471,0.34742 0.926471,0.92647 -0.115809,0.57904 -0.463235,0.92647 -0.926471,0.92647 z"
         id="path1258"
         style="stroke-width:1.15809" />
      <line
         fill="#ffffff"
         x1="-54.069157"
         y1="465.37076"
         x2="-49.552616"
         y2="465.37076"
         id="line1260"
         style="stroke-width:1.15809" />
      <path
         fill="#231f20"
         d="m -49.552614,466.29722 h -4.516545 c -0.463236,0 -0.926471,-0.34742 -0.926471,-0.92647 0,-0.57904 0.347426,-0.92647 0.926471,-0.92647 h 4.516545 c 0.463235,0 0.926471,0.34743 0.926471,0.92647 0,0.57905 -0.463236,0.92647 -0.926471,0.92647 z"
         id="path1262"
         style="stroke-width:1.15809" />
      <line
         fill="#ffffff"
         x1="-63.797104"
         y1="468.84503"
         x2="-62.870632"
         y2="468.84503"
         id="line1264"
         style="stroke-width:1.15809" />
      <path
         fill="#231f20"
         d="m -62.870632,469.77149 h -0.926471 c -0.463235,0 -0.926471,-0.34743 -0.926471,-0.92647 0,-0.46324 0.347427,-0.92647 0.926471,-0.92647 h 0.926471 c 0.463235,0 0.926471,0.34742 0.926471,0.92647 0,0.57904 -0.463236,0.92647 -0.926471,0.92647 z"
         id="path1266"
         style="stroke-width:1.15809" />
      <circle
         fill="#ffd05b"
         cx="-75.72541"
         cy="420.78433"
         r="22.930151"
         id="circle1268"
         style="stroke-width:1.15809" />
      <path
         fill="#231f20"
         d="m -93.675786,420.78435 h -1.737133 c 0,-0.46324 0,-0.81067 0,-1.2739 l 1.737133,0.11581 c 0,0.46323 0,0.81066 0,1.15809 z m 0.347426,-3.35846 -1.737132,-0.34743 c 0.115809,-0.34742 0.115809,-0.81066 0.231617,-1.15809 l 1.737133,0.46324 c -0.115809,0.34743 -0.231618,0.69485 -0.231618,1.04228 z m 0.810662,-3.12684 -1.621323,-0.69485 c 0.115808,-0.34743 0.347426,-0.81066 0.463235,-1.15809 l 1.621324,0.69485 c -0.115809,0.46324 -0.231618,0.81066 -0.463236,1.15809 z m 1.505516,-3.01103 -1.505516,-0.92647 c 0.231618,-0.34743 0.463236,-0.69485 0.694854,-1.04228 l 1.389706,1.04228 c -0.115809,0.23162 -0.347427,0.57904 -0.579044,0.92647 z m 2.084559,-2.6636 -1.273898,-1.15809 c 0.231618,-0.34743 0.579045,-0.57905 0.810662,-0.92647 l 1.273898,1.27389 c -0.347427,0.23162 -0.579044,0.46324 -0.810662,0.81067 z m 2.431986,-2.31618 -1.04228,-1.38971 c 0.347427,-0.23161 0.694853,-0.46323 1.04228,-0.69485 l 0.92647,1.50552 c -0.231617,0.23161 -0.579044,0.34742 -0.92647,0.57904 z m 2.895221,-1.73713 -0.810662,-1.50552 c 0.347426,-0.23162 0.694853,-0.34742 1.158088,-0.46323 l 0.694854,1.62132 c -0.347427,0.11581 -0.694854,0.23162 -1.04228,0.34743 z m 3.126839,-1.15809 -0.463236,-1.73713 c 0.347427,-0.11581 0.810662,-0.23162 1.158089,-0.23162 l 0.347427,1.73713 c -0.347427,0 -0.694854,0.11581 -1.04228,0.23162 z m 3.242648,-0.57905 -0.115809,-1.73713 c 0.463235,0 0.810662,0 1.273897,-0.11581 v 1.73714 c -0.347426,0.1158 -0.694853,0.1158 -1.158088,0.1158 z"
         id="path1270"
         style="stroke-width:1.15809" />
      <path
         fill="#231f20"
         d="m -75.725414,440.58766 c -10.306988,0 -18.992652,-8.10662 -19.687505,-18.41361 l 1.737133,-0.11581 c 0.694853,9.38052 8.569855,16.79229 17.950372,16.79229 9.959561,0 18.06618,-8.10662 18.06618,-18.06618 0,-9.49633 -7.411766,-17.37133 -16.792283,-17.95038 l 0.115809,-1.73713 c 10.306988,0.69485 18.413607,9.38052 18.413607,19.68751 0,10.88603 -8.801473,19.80331 -19.803313,19.80331 z"
         id="path1272"
         style="stroke-width:1.15809" />
      <path
         fill="#231f20"
         d="m -71.09306,419.85788 h -3.705884 v -7.18015 h 3.705884 c 1.158088,0 2.084559,0.92647 2.084559,2.08456 0,0.46323 0.347427,0.92647 0.926471,0.92647 0.463235,0 0.926471,-0.34743 0.926471,-0.92647 0,-2.08456 -1.737133,-3.8217 -3.821692,-3.8217 h -3.821693 v -2.54779 c 0,-0.46324 -0.347426,-0.92647 -0.92647,-0.92647 -0.463236,0 -0.926471,0.34742 -0.926471,0.92647 v 2.54779 h -3.705883 c -2.08456,0 -3.821692,1.73714 -3.821692,3.8217 v 3.12683 c 0,2.08456 1.737132,3.8217 3.821692,3.8217 h 3.705883 v 7.18015 h -3.705883 c -1.158089,0 -2.08456,-0.92648 -2.08456,-2.08456 0,-0.46324 -0.347426,-0.92647 -0.92647,-0.92647 -0.463236,0 -0.926471,0.34742 -0.926471,0.92647 0,2.08456 1.737133,3.82169 3.821692,3.82169 h 3.705883 v 2.54779 c 0,0.46324 0.347427,0.92647 0.926471,0.92647 0.463235,0 0.926471,-0.34742 0.926471,-0.92647 v -2.54779 h 3.705883 c 2.084559,0 3.821692,-1.73713 3.821692,-3.82169 v -3.12684 c 0.115809,-2.08456 -1.621324,-3.82169 -3.705883,-3.82169 z m -9.148899,0 c -1.158089,0 -2.08456,-0.92648 -2.08456,-2.08456 v -3.12684 c 0,-1.15809 0.926471,-2.08456 2.08456,-2.08456 h 3.705883 v 7.18015 h -3.705883 z m 11.233458,6.94853 c 0,1.15808 -0.926471,2.08456 -2.084559,2.08456 h -3.705884 v -7.18015 h 3.705884 c 1.158088,0 2.084559,0.92647 2.084559,2.08456 z"
         id="path1274"
         style="stroke-width:1.15809" />
      <circle
         fill="#ff7058"
         cx="8.5834284"
         cy="473.59317"
         r="1.9687505"
         id="circle1276"
         style="stroke-width:1.15809" />
      <circle
         fill="#e6e9ee"
         cx="-96.571007"
         cy="504.39835"
         r="1.9687505"
         id="circle1278"
         style="stroke-width:1.15809" />
      <circle
         fill="#84dbff"
         cx="43.326084"
         cy="516.44244"
         r="1.9687505"
         id="circle1280"
         style="stroke-width:1.15809" />
      <circle
         fill="#ffd05b"
         cx="-63.333866"
         cy="537.17224"
         r="1.9687505"
         id="circle1282"
         style="stroke-width:1.15809" />
      <circle
         fill="#e6e9ee"
         cx="-23.495619"
         cy="415.45715"
         r="1.9687505"
         id="circle1284"
         style="stroke-width:1.15809" />
      <circle
         fill="#ff7058"
         cx="-66.113281"
         cy="391.13727"
         r="1.9687505"
         id="circle1286"
         style="stroke-width:1.15809" />
      <g
         id="g1361"
         transform="matrix(0.52069417,0,0,0.52069417,-202.60665,202.34528)">
        <path
           d="m 386.05365,468.75096 c 1.48072,0.37444 3.00395,0.62972 4.44211,1.13181 5.26755,1.86365 8.14384,5.63346 8.63741,11.20735 0.40847,4.57826 -0.90204,8.89272 -1.99979,13.24969 -1.9062,7.61624 -3.90599,15.21546 -5.64198,22.86576 -0.91906,4.04213 -1.13178,8.21192 -0.23833,12.33064 0.91906,4.26338 3.47199,6.15256 7.58221,5.70154 2.50185,-0.27242 4.33147,-1.94022 4.52718,-4.4506 0.12769,-1.56582 -0.0595,-3.17416 -0.23832,-4.75696 -0.17883,-1.56581 0.3489,-2.6891 1.62535,-2.85928 1.45517,-0.18718 2.31466,0.63821 2.43379,1.97426 0.20424,2.22104 0.57016,4.51869 0.22965,6.68866 -0.62975,4.10173 -3.31883,6.527 -7.36096,7.42904 -4.14425,0.91906 -8.47573,-0.62971 -10.7223,-3.84642 -1.74452,-2.50185 -2.46783,-5.34412 -2.65505,-8.33958 -0.47656,-7.80345 1.45518,-15.24948 3.3954,-22.69551 1.51475,-5.82921 3.06352,-11.64988 4.5442,-17.48758 0.28947,-1.1403 0.39146,-2.33168 0.45102,-3.51453 0.28078,-5.93132 -2.88482,-9.54797 -9.14799,-10.23725 0,0.63824 0,1.25946 0,1.88066 0,21.65736 -0.0161,43.31469 0.0425,64.96352 0,0.95312 0.43401,2.05936 1.00416,2.84227 1.96576,2.66357 4.1017,5.19949 6.14405,7.80346 2.04234,2.61249 2.16999,5.59943 0.40846,8.22044 -1.77002,2.62951 -4.50167,3.52303 -7.76942,2.54441 -9.68409,-2.89331 -19.61499,-4.2804 -29.66502,-4.93565 -9.69261,-0.63824 -19.38525,-0.56166 -29.06936,0.34038 -8.73101,0.80841 -17.34291,2.23805 -25.76756,4.70591 -3.09754,0.90201 -5.99088,-0.17883 -7.63325,-2.88482 -1.70196,-2.81673 -1.31051,-6.1781 1.0552,-8.44169 2.6976,-2.56995 5.49732,-5.03777 8.13535,-7.66728 0.62119,-0.62123 1.1403,-1.68495 1.1403,-2.54444 0.0595,-24.43154 0.0425,-48.87157 0.0682,-73.30311 0,-1.17433 -0.36595,-1.97425 -1.22541,-2.74864 -2.76569,-2.49336 -5.49731,-5.03777 -8.18642,-7.60774 -2.12741,-2.04234 -2.59548,-5.1569 -1.28497,-7.8545 1.21691,-2.48484 3.91451,-4.16979 6.47593,-3.76132 1.79556,0.28947 3.53155,0.95308 5.3016,1.39561 14.39,3.59112 29.0353,4.69739 43.80826,4.29741 12.8072,-0.3489 25.46121,-1.79555 37.77483,-5.54835 2.39125,-0.73184 5.22499,0.47656 6.79081,2.74864 1.71894,2.50189 1.71894,5.53986 -0.119,7.94812 -1.82959,2.39977 -3.60813,4.85908 -5.68451,7.0376 -1.76152,1.85512 -2.03385,3.85491 -1.64239,6.19508 z m -41.14469,75.74539 c -12.12641,0 -24.26133,-0.0161 -36.38774,0.0341 -0.79992,0 -1.77005,0.31487 -2.35722,0.82542 -2.74864,2.42531 -5.38667,4.97824 -8.08427,7.46308 -1.07224,0.98714 -1.5743,2.0849 -0.79992,3.46346 0.7914,1.41263 1.94023,1.25947 3.36138,0.96161 7.27582,-1.52324 14.54315,-3.23369 21.89559,-4.25486 11.09674,-1.53176 22.28708,-1.53176 33.47741,-0.83399 10.41595,0.65526 20.69576,2.09342 30.72025,5.07183 1.25095,0.37444 2.33168,0.5021 3.15714,-0.68079 0.90201,-1.27645 0.54462,-2.41675 -0.37444,-3.54856 -1.90619,-2.33168 -3.82941,-4.67185 -5.64198,-7.08011 -0.78291,-1.04671 -1.60833,-1.4722 -2.95287,-1.46367 -12.00727,0.0595 -24.02307,0.0341 -36.03034,0.0341 z m -0.19555,-82.49362 c 12.1264,0 24.26133,0.0161 36.38774,-0.0341 0.78291,0 1.83811,-0.27242 2.30614,-0.81694 2.21255,-2.5444 4.25489,-5.22498 6.36529,-7.86302 0.83399,-1.03818 0.99567,-2.13593 0.22964,-3.26775 -0.79992,-1.18285 -1.84659,-1.03818 -3.1316,-0.77438 -7.21626,1.50622 -14.41553,3.23372 -21.71689,4.24637 -11.39457,1.59132 -22.88277,1.57431 -34.35392,0.81693 -10.16917,-0.67226 -20.2192,-2.1019 -30.01395,-5.00374 -1.37857,-0.40846 -2.56995,-0.55313 -3.39538,0.86802 -0.83395,1.43813 -0.30619,2.56994 0.82543,3.59963 2.48487,2.28061 4.96971,4.56122 7.36945,6.92692 0.95312,0.93611 1.92321,1.32753 3.27627,1.32753 11.94771,-0.0511 23.90394,-0.0257 35.85165,-0.0257 z m 36.79621,71.41393 c -6.59507,-1.04671 -13.06248,-2.06788 -19.52992,-3.10607 -11.53924,-1.84663 -23.08697,-3.68474 -34.62621,-5.55688 -5.71007,-0.92754 -11.41161,-1.9317 -17.11313,-2.91884 -1.30202,-0.22965 -2.01684,0.0161 -1.91472,1.57431 0.11064,1.77002 0.0682,3.54856 0.01,5.3271 -0.0341,1.08074 0.32336,1.59133 1.45518,1.76153 9.28413,1.39561 18.55978,2.83375 27.83543,4.26339 10.50105,1.61686 20.98506,3.33583 31.51165,4.78249 4.05063,0.55313 8.18639,0.47656 12.37319,0.68928 v -6.80779 z m 0.0765,-41.5787 c 0,-2.13597 -0.13605,-3.97408 0.0425,-5.77813 0.16178,-1.60837 -0.57868,-2.01684 -1.94023,-2.22107 -5.36966,-0.80841 -10.7223,-1.65938 -16.08343,-2.51887 -16.01538,-2.58699 -32.02224,-5.18244 -48.03762,-7.77792 -2.30614,-0.37444 -4.61229,-0.76589 -7.21629,-1.19137 0,2.07637 0.119,3.90599 -0.0341,5.71003 -0.12769,1.53176 0.48504,2.07641 1.89767,2.30615 7.33542,1.17436 14.66232,2.43379 21.98922,3.62517 12.92633,2.09339 25.85265,4.15278 38.7875,6.21214 3.42091,0.54461 6.85038,1.06372 10.59465,1.65088 z m -0.12768,29.2991 c -2.32316,-0.38293 -4.52719,-0.76586 -6.73974,-1.11476 -13.0029,-2.06788 -26.00581,-4.09321 -39.00023,-6.19512 -8.62039,-1.39561 -17.23226,-2.8763 -25.84416,-4.35701 -1.06369,-0.17883 -1.57428,0.0341 -1.54025,1.20839 0.0425,1.42115 0.119,2.85079 -0.0257,4.25489 -0.16178,1.52324 0.48505,2.10191 1.88918,2.32316 8.79909,1.42115 17.58117,2.91885 26.38026,4.33999 11.47967,1.85513 22.95934,3.6677 34.43902,5.49732 3.42091,0.54461 6.85034,1.07221 10.42444,1.63387 v -7.58221 z m 0.01,-24.59322 c -24.32089,-3.91448 -48.59924,-7.82896 -73.10736,-11.7775 0,2.39977 -0.0765,4.45912 0.0595,6.50996 0.0341,0.43401 0.82543,1.08926 1.34454,1.18285 7.66728,1.35306 15.33459,2.66357 23.01891,3.90599 11.52223,1.87214 23.06147,3.69323 34.59218,5.53134 4.64635,0.74036 9.30119,1.4637 14.09217,2.21255 v -7.57368 z m 0.0257,12.31362 c -24.42302,-3.94001 -48.68435,-7.84597 -73.14143,-11.78599 0,1.94023 0.10196,3.71025 -0.0257,5.47178 -0.11064,1.55726 0.43401,2.16996 1.99979,2.41675 10.25427,1.62538 20.50005,3.36137 30.75431,5.02928 12.93482,2.10191 25.86967,4.16979 38.81302,6.23767 0.49357,0.0765 1.01268,0.01 1.61686,0.01 v -7.36945 z m 0.0936,-29.37568 c 0,-1.94875 -0.0511,-3.53155 0.0161,-5.11438 0.0511,-1.13178 -0.39142,-1.49769 -1.4977,-1.6679 -9.44585,-1.47219 -18.88318,-3.02096 -28.329,-4.52718 -3.78686,-0.60422 -7.56519,-1.59136 -11.36907,-1.68495 -10.1096,-0.23833 -20.23621,-0.0852 -30.3543,-0.0511 -0.54464,0 -1.08074,0.37441 -1.62538,0.57864 0.51058,0.31487 0.97862,0.81694 1.52326,0.91056 7.09713,1.2339 14.19429,2.44229 21.30843,3.59112 13.87092,2.23805 27.74184,4.4506 41.61276,6.65463 2.7827,0.44249 5.57389,0.84247 8.7055,1.31051 z m -40.55753,60.56397 c 0,0 0.0595,-0.0765 0.0936,-0.119 -10.00749,-1.54877 -20.00644,-3.10607 -30.01393,-4.6293 -2.76568,-0.41699 -2.72313,-0.36592 -2.7827,2.68058 -0.0257,1.41259 0.17883,2.1104 1.88919,2.10191 10.27128,-0.0766 20.54256,-0.0425 30.81384,-0.0425 z m 40.37002,-71.77984 c 0.37444,-1.30199 0.16178,-1.88918 -1.14879,-1.86365 -3.25074,0.0511 -6.50147,0.0161 -9.75221,0.0161 0,0.0425 0,0.0765 0,0.11901 3.60813,0.57015 7.20777,1.1403 10.901,1.72747 z"
           id="path1132"
           style="stroke-width:0.850975" />
        <path
           d="m 353.77614,440.83895 h -19.11292 c 0,1.47219 0.0341,2.86777 0,4.26338 -0.0511,1.73599 -0.89355,2.79119 -2.17853,2.64655 -1.54024,-0.17882 -1.99126,-1.2254 -1.95724,-2.65504 0.0425,-1.94875 0,-3.90599 0.0161,-5.85474 0.0257,-1.94872 0.6978,-2.64652 2.69759,-2.65505 4.96972,-0.0257 9.9309,-0.01 14.90062,-0.01 2.36571,0 4.73142,-0.0257 7.09712,0.01 1.9913,0.0341 2.66357,0.71482 2.68911,2.67206 0.0257,2.00832 -0.0161,4.02512 0.01,6.03344 0.0161,1.39561 -0.57015,2.39974 -1.98278,2.44229 -1.52323,0.0425 -2.15295,-1.02117 -2.17,-2.45931 -0.0161,-1.41262 0,-2.82525 0,-4.42509 z"
           id="path1134"
           style="stroke-width:0.850975" />
        <path
           d="m 334.63768,564.98787 h 19.12994 c 0,-1.4041 -0.0257,-2.79119 0,-4.17828 0.0341,-1.753 0.82546,-2.7827 2.13596,-2.68058 1.67643,0.12769 2.05936,1.27645 2.02533,2.75716 -0.0511,2.00832 -0.0161,4.02512 -0.0161,6.03344 0,1.53176 -0.79989,2.32316 -2.28913,2.33165 -7.62472,0.0161 -15.25797,0.0257 -22.88273,0 -1.39561,0 -2.19554,-0.78288 -2.20403,-2.22953 -0.01,-2.24658 0,-4.49316 0,-6.73974 0,-1.27648 0.67227,-2.05086 1.89768,-2.12744 1.33601,-0.0765 2.11892,0.72331 2.17849,2.04234 0.0765,1.53176 0.0161,3.06352 0.0161,4.808 z"
           id="path1136"
           style="stroke-width:0.850975" />
        <path
           class="cls-1"
           d="m 344.91748,544.50488 c 12.00728,0 24.02304,0.0257 36.03031,-0.0341 1.34457,0 2.16151,0.41696 2.95291,1.46367 1.81257,2.40826 3.72726,4.73994 5.64198,7.08012 0.91906,1.12328 1.26796,2.27211 0.37441,3.54859 -0.83395,1.18286 -1.91469,1.0552 -3.15711,0.68076 -10.02449,-2.96989 -20.3043,-4.41654 -30.72025,-5.0718 -11.18181,-0.6978 -22.37218,-0.70633 -33.47741,0.83395 -7.35244,1.01265 -14.61977,2.73163 -21.89563,4.25486 -1.42112,0.29783 -2.56994,0.45102 -3.36134,-0.96157 -0.77439,-1.3786 -0.27242,-2.47635 0.79992,-3.46349 2.6976,-2.48484 5.32711,-5.04629 8.08427,-7.46305 0.58717,-0.5191 1.5573,-0.82546 2.35719,-0.82546 12.12643,-0.0511 24.26136,-0.0341 36.38777,-0.0341 z"
           id="path1138"
           style="fill:#ffd05b;fill-opacity:1;stroke-width:0.850975" />
        <path
           class="cls-1"
           d="m 344.71325,462.00273 c -11.94771,0 -23.90394,-0.0161 -35.85165,0.0257 -1.34454,0 -2.32316,-0.38293 -3.27627,-1.32752 -2.39974,-2.36571 -4.8931,-4.64631 -7.36945,-6.92692 -1.12329,-1.03822 -1.65938,-2.17 -0.82543,-3.59964 0.82543,-1.42115 2.01681,-1.27648 3.39537,-0.86801 9.79476,2.90183 19.84479,4.33147 30.01396,5.00374 11.47967,0.75737 22.96784,0.77439 34.35391,-0.81694 7.29287,-1.01264 14.49212,-2.74014 21.7169,-4.24636 1.285,-0.27242 2.33168,-0.40847 3.1316,0.77438 0.7659,1.13181 0.60421,2.22956 -0.22964,3.26775 -2.1104,2.62954 -4.15274,5.31862 -6.36529,7.86302 -0.46804,0.54465 -1.52324,0.80845 -2.30615,0.81694 -12.1264,0.0511 -24.26133,0.0341 -36.38773,0.0341 z"
           id="path1140"
           style="fill:#ffd05b;fill-opacity:1;stroke-width:0.850975" />
        <path
           class="cls-1"
           d="m 381.51798,533.42518 v 6.80779 c -4.18681,-0.2126 -8.32257,-0.13605 -12.37323,-0.68928 -10.52655,-1.44666 -21.01059,-3.16563 -31.51165,-4.78249 -9.27564,-1.42964 -18.55126,-2.86778 -27.83543,-4.26339 -1.13178,-0.17014 -1.48921,-0.68079 -1.45518,-1.76153 0.0595,-1.77002 0.10228,-3.55708 -0.01,-5.3271 -0.10227,-1.56579 0.61271,-1.80408 1.91469,-1.57431 5.70155,0.98714 11.4031,1.9913 17.11313,2.91884 11.53924,1.88066 23.08701,3.71025 34.62624,5.55688 6.46741,1.03819 12.93482,2.05936 19.52992,3.10607 z"
           id="path1142"
           style="fill:#84dbff;fill-opacity:1;stroke-width:0.850975" />
        <path
           class="cls-1"
           d="m 381.59456,491.84645 c -3.74431,-0.57864 -7.17374,-1.10624 -10.59465,-1.65089 -12.92636,-2.06788 -25.86118,-4.12724 -38.78751,-6.21213 -7.33542,-1.18286 -14.65383,-2.45081 -21.98925,-3.62514 -1.41259,-0.22965 -2.03382,-0.7659 -1.89767,-2.30615 0.15309,-1.80408 0.0341,-3.62517 0.0341,-5.71007 2.60397,0.43401 4.91012,0.81694 7.21626,1.19138 16.01538,2.59548 32.02224,5.19096 48.03762,7.77792 5.36116,0.86801 10.71381,1.71898 16.08346,2.5189 1.36156,0.20423 2.10191,0.6127 1.94023,2.22104 -0.17882,1.80408 -0.0424,3.64219 -0.0424,5.77813 z"
           id="path1144"
           style="fill:#84dbff;fill-opacity:1;stroke-width:0.850975" />
        <path
           class="cls-1"
           d="m 381.4669,521.15408 v 7.5822 c -3.5741,-0.56163 -7.00353,-1.08926 -10.42447,-1.63387 -11.47964,-1.82959 -22.96784,-3.64219 -34.43899,-5.49731 -8.79909,-1.42112 -17.58116,-2.91885 -26.38029,-4.33997 -1.41259,-0.22964 -2.05083,-0.79992 -1.88915,-2.32315 0.14473,-1.40414 0.0682,-2.83378 0.0257,-4.2549 -0.0341,-1.16584 0.47653,-1.38709 1.54025,-1.20839 8.6119,1.48072 17.21525,2.9614 25.84417,4.35701 12.99441,2.10191 25.99732,4.12724 39.00023,6.19509 2.21255,0.3489 4.41657,0.73186 6.73973,1.11479 z"
           id="path1146"
           style="fill:#84dbff;fill-opacity:1;stroke-width:0.850975" />
        <path
           class="cls-1"
           d="m 381.47543,496.56089 v 7.57368 c -4.79102,-0.74888 -9.44586,-1.47219 -14.09217,-2.21255 -11.53075,-1.83811 -23.06147,-3.6592 -34.59221,-5.53134 -7.6843,-1.25094 -15.35161,-2.55293 -23.01892,-3.90599 -0.51907,-0.0936 -1.319,-0.74885 -1.34453,-1.18285 -0.14474,-2.05087 -0.0595,-4.11023 -0.0595,-6.50996 24.50812,3.9485 48.79499,7.85449 73.1074,11.7775 z"
           id="path1148"
           style="fill:#84dbff;fill-opacity:1;stroke-width:0.850975" />
        <path
           class="cls-1"
           d="m 381.50093,508.87451 v 7.36945 c -0.59566,0 -1.11476,0.0682 -1.61683,-0.01 -12.93485,-2.06788 -25.87819,-4.13573 -38.81304,-6.23764 -10.25427,-1.66793 -20.49152,-3.40392 -30.75428,-5.02927 -1.56582,-0.24669 -2.11043,-0.85949 -1.99979,-2.41679 0.12768,-1.753 0.0257,-3.52302 0.0257,-5.47177 24.45707,3.94002 48.71841,7.85453 73.14142,11.78602 z"
           id="path1150"
           style="fill:#84dbff;fill-opacity:1;stroke-width:0.850975" />
        <path
           class="cls-1"
           d="m 381.58603,479.49027 c -3.12308,-0.46803 -5.92279,-0.86798 -8.70549,-1.31047 -13.87089,-2.21255 -27.75033,-4.41658 -41.61273,-6.65466 -7.10565,-1.1488 -14.2113,-2.35719 -21.30846,-3.59112 -0.54461,-0.0936 -1.02117,-0.59569 -1.52323,-0.91053 0.54461,-0.20423 1.08074,-0.57015 1.62535,-0.57868 10.11812,-0.0341 20.23621,-0.18718 30.35433,0.0511 3.80388,0.0852 7.58221,1.07222 11.36904,1.68492 9.44585,1.50622 18.88318,3.05502 28.329,4.52718 1.10628,0.17015 1.54877,0.53613 1.49773,1.66794 -0.0765,1.5828 -0.0161,3.16563 -0.0161,5.11435 z"
           id="path1152"
           style="fill:#84dbff;fill-opacity:1;stroke-width:0.850975" />
        <path
           class="cls-1"
           d="m 341.02851,540.05427 c -10.27128,0 -20.54257,-0.0424 -30.81385,0.0425 -1.71045,0.0161 -1.91469,-0.68928 -1.88918,-2.10191 0.0595,-3.05502 0.01,-3.10607 2.7827,-2.68058 10.00748,1.52323 20.01496,3.08053 30.01392,4.6293 -0.0341,0.0425 -0.0595,0.0765 -0.0936,0.119 z"
           id="path1154"
           style="fill:#84dbff;fill-opacity:1;stroke-width:0.850975" />
        <path
           class="cls-1"
           d="m 381.40734,468.27443 c -3.69323,-0.58719 -7.3014,-1.15735 -10.901,-1.7275 0,-0.0424 0,-0.0765 0,-0.119 3.25073,0 6.50144,0.0341 9.75217,-0.0161 1.31051,-0.0257 1.51474,0.56163 1.14883,1.86364 z"
           id="path1156"
           style="fill:#84dbff;fill-opacity:1;stroke-width:0.850975" />
      </g>
    </g>
  </g>
</svg>
