<?xml version="1.0" encoding="UTF-8"?>
<svg xmlns="http://www.w3.org/2000/svg" xmlns:xlink="http://www.w3.org/1999/xlink" width="100px" height="100px" viewBox="0 0 100 100" version="1.1">
<g id="surface1">
<path style=" stroke:none;fill-rule:nonzero;fill:rgb(13.72549%,12.156863%,12.54902%);fill-opacity:1;" d="M 91.503906 5.328125 C 91.351562 5.328125 91.195312 5.25 91.121094 5.171875 C 90.886719 4.941406 90.886719 4.554688 91.121094 4.324219 L 92.125 3.320312 C 92.355469 3.089844 92.742188 3.089844 92.972656 3.320312 C 93.203125 3.550781 93.203125 3.9375 92.972656 4.167969 L 91.890625 5.171875 C 91.816406 5.25 91.660156 5.328125 91.503906 5.328125 Z M 91.503906 5.328125 "/>
<path style=" stroke:none;fill-rule:nonzero;fill:rgb(13.72549%,12.156863%,12.54902%);fill-opacity:1;" d="M 88.417969 8.339844 C 88.261719 8.339844 88.109375 8.261719 88.03125 8.183594 C 87.800781 7.953125 87.800781 7.566406 88.03125 7.335938 L 89.035156 6.332031 C 89.265625 6.101562 89.652344 6.101562 89.882812 6.332031 C 90.117188 6.5625 90.117188 6.949219 89.882812 7.179688 L 88.878906 8.183594 C 88.726562 8.339844 88.570312 8.339844 88.417969 8.339844 Z M 88.417969 8.339844 "/>
<path style=" stroke:none;fill-rule:nonzero;fill:rgb(13.72549%,12.156863%,12.54902%);fill-opacity:1;" d="M 92.433594 8.339844 C 92.277344 8.339844 92.125 8.261719 92.046875 8.183594 L 91.042969 7.179688 C 90.8125 6.949219 90.8125 6.5625 91.042969 6.332031 C 91.273438 6.101562 91.660156 6.101562 91.890625 6.332031 L 92.894531 7.335938 C 93.128906 7.566406 93.128906 7.953125 92.894531 8.183594 C 92.742188 8.339844 92.585938 8.339844 92.433594 8.339844 Z M 92.433594 8.339844 "/>
<path style=" stroke:none;fill-rule:nonzero;fill:rgb(13.72549%,12.156863%,12.54902%);fill-opacity:1;" d="M 89.421875 5.328125 C 89.265625 5.328125 89.113281 5.25 89.035156 5.171875 L 88.03125 4.167969 C 87.800781 3.9375 87.800781 3.550781 88.03125 3.320312 C 88.261719 3.089844 88.648438 3.089844 88.878906 3.320312 L 89.882812 4.324219 C 90.117188 4.554688 90.117188 4.941406 89.882812 5.171875 C 89.730469 5.25 89.574219 5.328125 89.421875 5.328125 Z M 89.421875 5.328125 "/>
<path style=" stroke:none;fill-rule:nonzero;fill:rgb(13.72549%,12.156863%,12.54902%);fill-opacity:1;" d="M 6.023438 10.65625 C 5.867188 10.65625 5.714844 10.578125 5.636719 10.5 C 5.40625 10.269531 5.40625 9.882812 5.636719 9.652344 L 6.640625 8.648438 C 6.871094 8.417969 7.257812 8.417969 7.492188 8.648438 C 7.722656 8.878906 7.722656 9.265625 7.492188 9.5 L 6.488281 10.5 C 6.332031 10.578125 6.175781 10.65625 6.023438 10.65625 Z M 6.023438 10.65625 "/>
<path style=" stroke:none;fill-rule:nonzero;fill:rgb(13.72549%,12.156863%,12.54902%);fill-opacity:1;" d="M 3.011719 13.667969 C 2.855469 13.667969 2.703125 13.589844 2.625 13.511719 C 2.394531 13.28125 2.394531 12.894531 2.625 12.664062 L 3.628906 11.660156 C 3.859375 11.429688 4.246094 11.429688 4.480469 11.660156 C 4.710938 11.890625 4.710938 12.277344 4.480469 12.507812 L 3.476562 13.511719 C 3.320312 13.589844 3.167969 13.667969 3.011719 13.667969 Z M 3.011719 13.667969 "/>
<path style=" stroke:none;fill-rule:nonzero;fill:rgb(13.72549%,12.156863%,12.54902%);fill-opacity:1;" d="M 7.027344 13.667969 C 6.871094 13.667969 6.71875 13.589844 6.640625 13.511719 L 5.636719 12.507812 C 5.40625 12.277344 5.40625 11.890625 5.636719 11.660156 C 5.867188 11.429688 6.253906 11.429688 6.488281 11.660156 L 7.492188 12.664062 C 7.722656 12.894531 7.722656 13.28125 7.492188 13.511719 C 7.335938 13.589844 7.179688 13.667969 7.027344 13.667969 Z M 7.027344 13.667969 "/>
<path style=" stroke:none;fill-rule:nonzero;fill:rgb(13.72549%,12.156863%,12.54902%);fill-opacity:1;" d="M 3.9375 10.65625 C 3.785156 10.65625 3.628906 10.578125 3.550781 10.5 L 2.546875 9.5 C 2.316406 9.265625 2.316406 8.878906 2.546875 8.648438 C 2.78125 8.417969 3.167969 8.417969 3.398438 8.648438 L 4.402344 9.652344 C 4.632812 9.882812 4.632812 10.269531 4.402344 10.5 C 4.246094 10.578125 4.09375 10.65625 3.9375 10.65625 Z M 3.9375 10.65625 "/>
<path style=" stroke:none;fill-rule:nonzero;fill:rgb(13.72549%,12.156863%,12.54902%);fill-opacity:1;" d="M 93.511719 90.5 C 93.359375 90.5 93.203125 90.425781 93.128906 90.347656 C 92.894531 90.117188 92.894531 89.730469 93.128906 89.5 L 94.132812 88.496094 C 94.363281 88.261719 94.75 88.261719 94.980469 88.496094 C 95.210938 88.726562 95.210938 89.113281 94.980469 89.34375 L 93.976562 90.347656 C 93.824219 90.425781 93.667969 90.5 93.511719 90.5 Z M 93.511719 90.5 "/>
<path style=" stroke:none;fill-rule:nonzero;fill:rgb(13.72549%,12.156863%,12.54902%);fill-opacity:1;" d="M 90.425781 93.589844 C 90.269531 93.589844 90.117188 93.511719 90.039062 93.4375 C 89.808594 93.203125 89.808594 92.820312 90.039062 92.585938 L 91.042969 91.582031 C 91.273438 91.351562 91.660156 91.351562 91.890625 91.582031 C 92.125 91.816406 92.125 92.199219 91.890625 92.433594 L 90.886719 93.4375 C 90.734375 93.511719 90.578125 93.589844 90.425781 93.589844 Z M 90.425781 93.589844 "/>
<path style=" stroke:none;fill-rule:nonzero;fill:rgb(13.72549%,12.156863%,12.54902%);fill-opacity:1;" d="M 94.441406 93.589844 C 94.285156 93.589844 94.132812 93.511719 94.054688 93.4375 L 93.050781 92.433594 C 92.820312 92.199219 92.820312 91.816406 93.050781 91.582031 C 93.28125 91.351562 93.667969 91.351562 93.898438 91.582031 L 94.902344 92.585938 C 95.136719 92.820312 95.136719 93.203125 94.902344 93.4375 C 94.75 93.511719 94.59375 93.589844 94.441406 93.589844 Z M 94.441406 93.589844 "/>
<path style=" stroke:none;fill-rule:nonzero;fill:rgb(13.72549%,12.156863%,12.54902%);fill-opacity:1;" d="M 91.429688 90.5 C 91.273438 90.5 91.121094 90.425781 91.042969 90.347656 L 90.039062 89.34375 C 89.808594 89.113281 89.808594 88.726562 90.039062 88.496094 C 90.269531 88.261719 90.65625 88.261719 90.886719 88.496094 L 91.890625 89.5 C 92.125 89.730469 92.125 90.117188 91.890625 90.347656 C 91.738281 90.425781 91.582031 90.5 91.429688 90.5 Z M 91.429688 90.5 "/>
<path style=" stroke:none;fill-rule:nonzero;fill:rgb(13.72549%,12.156863%,12.54902%);fill-opacity:1;" d="M 50.425781 99.152344 C 50.191406 99.152344 49.882812 99.152344 49.652344 99.152344 L 49.652344 97.992188 C 49.882812 97.992188 50.191406 97.992188 50.425781 97.992188 Z M 51.96875 99.152344 L 51.96875 97.992188 C 52.199219 97.992188 52.507812 97.992188 52.742188 97.992188 L 52.820312 99.152344 C 52.507812 99.152344 52.277344 99.152344 51.96875 99.152344 Z M 48.109375 99.074219 C 47.875 99.074219 47.566406 99.074219 47.335938 98.996094 L 47.414062 97.835938 C 47.644531 97.835938 47.953125 97.835938 48.183594 97.914062 Z M 54.363281 98.996094 L 54.285156 97.835938 C 54.515625 97.835938 54.828125 97.761719 55.058594 97.761719 L 55.136719 98.917969 C 54.828125 98.996094 54.59375 98.996094 54.363281 98.996094 Z M 45.792969 98.917969 C 45.558594 98.917969 45.25 98.839844 45.019531 98.839844 L 45.171875 97.683594 C 45.40625 97.683594 45.714844 97.761719 45.945312 97.761719 Z M 56.679688 98.765625 L 56.523438 97.605469 C 56.757812 97.605469 57.066406 97.527344 57.296875 97.527344 L 57.453125 98.6875 C 57.21875 98.6875 56.910156 98.765625 56.679688 98.765625 Z M 43.398438 98.609375 C 43.167969 98.609375 42.855469 98.53125 42.625 98.457031 L 42.78125 97.296875 C 43.011719 97.375 43.320312 97.375 43.550781 97.375 Z M 58.996094 98.457031 L 58.765625 97.296875 C 58.996094 97.21875 59.226562 97.21875 59.535156 97.144531 L 59.769531 98.300781 C 59.535156 98.378906 59.226562 98.378906 58.996094 98.457031 Z M 41.082031 98.222656 C 40.847656 98.148438 40.539062 98.148438 40.308594 98.070312 L 40.539062 96.910156 C 40.773438 96.988281 41.003906 96.988281 41.3125 97.066406 Z M 61.3125 97.992188 L 61.082031 96.832031 C 61.3125 96.757812 61.542969 96.757812 61.851562 96.679688 L 62.085938 97.835938 C 61.777344 97.835938 61.542969 97.914062 61.3125 97.992188 Z M 38.839844 97.761719 C 38.609375 97.683594 38.300781 97.605469 38.070312 97.605469 L 38.378906 96.449219 C 38.609375 96.523438 38.839844 96.601562 39.152344 96.601562 Z M 63.550781 97.453125 L 63.242188 96.371094 C 63.476562 96.292969 63.707031 96.214844 64.015625 96.140625 L 64.324219 97.21875 C 64.09375 97.296875 63.785156 97.375 63.550781 97.453125 Z M 36.601562 97.144531 C 36.371094 97.066406 36.140625 96.988281 35.832031 96.910156 L 36.140625 95.832031 C 36.371094 95.90625 36.601562 95.984375 36.832031 96.0625 Z M 65.792969 96.757812 L 65.40625 95.675781 C 65.636719 95.597656 65.867188 95.519531 66.101562 95.445312 L 66.488281 96.523438 C 66.332031 96.601562 66.023438 96.679688 65.792969 96.757812 Z M 34.363281 96.449219 C 34.132812 96.371094 33.898438 96.292969 33.589844 96.214844 L 33.976562 95.136719 C 34.207031 95.210938 34.441406 95.289062 34.671875 95.367188 Z M 68.03125 95.984375 L 67.644531 94.902344 C 67.875 94.828125 68.109375 94.75 68.339844 94.59375 L 68.804688 95.675781 C 68.496094 95.753906 68.261719 95.90625 68.03125 95.984375 Z M 32.125 95.597656 C 31.890625 95.519531 31.660156 95.367188 31.429688 95.289062 L 31.890625 94.207031 C 32.125 94.285156 32.355469 94.441406 32.585938 94.515625 Z M 70.191406 95.058594 L 69.730469 93.976562 C 69.960938 93.898438 70.191406 93.746094 70.425781 93.667969 L 70.886719 94.75 C 70.65625 94.902344 70.425781 94.980469 70.191406 95.058594 Z M 29.960938 94.671875 C 29.730469 94.59375 29.5 94.441406 29.265625 94.363281 L 29.808594 93.28125 C 30.039062 93.359375 30.269531 93.511719 30.5 93.589844 Z M 72.277344 94.132812 L 71.738281 93.128906 C 71.96875 93.050781 72.199219 92.894531 72.433594 92.820312 L 72.972656 93.824219 C 72.742188 93.898438 72.507812 93.976562 72.277344 94.132812 Z M 27.875 93.589844 C 27.644531 93.4375 27.414062 93.359375 27.179688 93.203125 L 27.722656 92.199219 C 27.953125 92.355469 28.183594 92.433594 28.417969 92.585938 Z M 74.363281 93.050781 L 73.824219 92.046875 C 74.054688 91.890625 74.285156 91.816406 74.515625 91.660156 L 75.058594 92.664062 C 74.828125 92.742188 74.59375 92.894531 74.363281 93.050781 Z M 25.792969 92.507812 C 25.558594 92.355469 25.328125 92.277344 25.097656 92.125 L 25.714844 91.121094 C 25.945312 91.273438 26.175781 91.351562 26.410156 91.503906 Z M 76.371094 91.816406 L 75.753906 90.8125 C 75.984375 90.65625 76.214844 90.578125 76.371094 90.425781 L 76.988281 91.429688 C 76.832031 91.582031 76.601562 91.660156 76.371094 91.816406 Z M 23.785156 91.273438 C 23.550781 91.121094 23.320312 90.964844 23.167969 90.8125 L 23.785156 89.882812 C 24.015625 90.039062 24.167969 90.191406 24.402344 90.269531 Z M 78.378906 90.578125 L 77.683594 89.652344 C 77.914062 89.5 78.070312 89.34375 78.300781 89.1875 L 78.996094 90.117188 C 78.765625 90.269531 78.53125 90.425781 78.378906 90.578125 Z M 21.851562 89.960938 C 21.621094 89.808594 21.46875 89.652344 21.234375 89.5 L 21.929688 88.570312 C 22.164062 88.726562 22.316406 88.878906 22.546875 89.035156 Z M 80.230469 89.1875 L 79.535156 88.261719 C 79.769531 88.109375 79.921875 87.953125 80.15625 87.800781 L 80.847656 88.726562 C 80.695312 88.878906 80.464844 89.035156 80.230469 89.1875 Z M 20 88.496094 C 19.769531 88.339844 19.613281 88.183594 19.382812 88.03125 L 20.15625 87.105469 C 20.386719 87.257812 20.539062 87.414062 20.773438 87.566406 Z M 82.085938 87.722656 L 81.3125 86.871094 C 81.542969 86.71875 81.699219 86.5625 81.929688 86.410156 L 82.703125 87.257812 C 82.472656 87.414062 82.238281 87.566406 82.085938 87.722656 Z M 18.222656 87.027344 C 17.992188 86.871094 17.835938 86.71875 17.605469 86.488281 L 18.378906 85.636719 C 18.53125 85.792969 18.765625 85.945312 18.917969 86.175781 Z M 83.859375 86.175781 L 83.089844 85.328125 C 83.242188 85.171875 83.476562 85.019531 83.628906 84.789062 L 84.402344 85.636719 C 84.246094 85.792969 84.015625 86.023438 83.859375 86.175781 Z M 16.449219 85.40625 C 16.292969 85.25 16.0625 85.019531 15.90625 84.863281 L 16.757812 84.015625 C 16.910156 84.167969 17.144531 84.402344 17.296875 84.554688 Z M 85.484375 84.554688 L 84.632812 83.707031 C 84.789062 83.550781 85.019531 83.320312 85.171875 83.167969 L 86.023438 83.9375 C 85.867188 84.167969 85.714844 84.402344 85.484375 84.554688 Z M 14.828125 83.785156 C 14.671875 83.628906 14.441406 83.398438 14.285156 83.242188 L 15.136719 82.472656 C 15.289062 82.625 15.445312 82.855469 15.675781 83.011719 Z M 87.105469 82.855469 L 86.253906 82.085938 C 86.410156 81.929688 86.5625 81.699219 86.796875 81.542969 L 87.644531 82.316406 C 87.492188 82.472656 87.335938 82.625 87.105469 82.855469 Z M 13.28125 82.007812 C 13.128906 81.777344 12.972656 81.621094 12.742188 81.390625 L 13.667969 80.617188 C 13.824219 80.847656 13.976562 81.003906 14.132812 81.234375 Z M 88.648438 81.082031 L 87.722656 80.386719 C 87.875 80.15625 88.03125 80 88.183594 79.769531 L 89.113281 80.464844 C 88.957031 80.695312 88.804688 80.847656 88.648438 81.082031 Z M 11.738281 80.230469 C 11.582031 80 11.429688 79.84375 11.273438 79.613281 L 12.199219 78.917969 C 12.355469 79.152344 12.507812 79.304688 12.664062 79.535156 Z M 90.117188 79.226562 L 89.1875 78.53125 C 89.34375 78.300781 89.5 78.148438 89.652344 77.914062 L 90.578125 78.609375 C 90.425781 78.765625 90.269531 78.996094 90.117188 79.226562 Z M 10.347656 78.378906 C 10.191406 78.148438 10.039062 77.914062 9.882812 77.761719 L 10.8125 77.144531 C 10.964844 77.375 11.121094 77.527344 11.273438 77.761719 Z M 91.429688 77.296875 L 90.5 76.679688 C 90.65625 76.449219 90.8125 76.292969 90.886719 76.0625 L 91.890625 76.679688 C 91.738281 76.832031 91.582031 77.066406 91.429688 77.296875 Z M 9.035156 76.371094 C 8.878906 76.140625 8.726562 75.90625 8.648438 75.675781 L 9.652344 75.058594 C 9.808594 75.289062 9.882812 75.519531 10.039062 75.675781 Z M 92.664062 75.289062 L 91.660156 74.671875 C 91.816406 74.441406 91.890625 74.207031 92.046875 73.976562 L 93.050781 74.59375 C 92.972656 74.902344 92.820312 75.058594 92.664062 75.289062 Z M 7.875 74.363281 C 7.722656 74.132812 7.644531 73.898438 7.492188 73.667969 L 8.496094 73.128906 C 8.648438 73.359375 8.726562 73.589844 8.878906 73.824219 Z M 93.898438 73.28125 L 92.894531 72.742188 C 93.050781 72.507812 93.128906 72.277344 93.28125 72.046875 L 94.207031 72.585938 C 94.132812 72.820312 93.976562 73.050781 93.898438 73.28125 Z M 6.71875 72.355469 C 6.5625 72.125 6.488281 71.890625 6.332031 71.660156 L 7.335938 71.121094 C 7.414062 71.351562 7.566406 71.582031 7.644531 71.816406 Z M 94.902344 71.195312 L 93.824219 70.734375 C 93.898438 70.5 94.054688 70.269531 94.132812 70.039062 L 95.210938 70.5 C 95.136719 70.734375 95.058594 70.964844 94.902344 71.195312 Z M 5.714844 70.269531 C 5.636719 70.039062 5.558594 69.730469 5.40625 69.5 L 6.488281 69.035156 C 6.5625 69.265625 6.71875 69.5 6.796875 69.730469 Z M 95.90625 69.035156 L 94.828125 68.570312 C 94.902344 68.339844 95.058594 68.109375 95.136719 67.875 L 96.214844 68.339844 C 96.0625 68.570312 95.984375 68.804688 95.90625 69.035156 Z M 4.789062 68.109375 C 4.710938 67.875 4.632812 67.644531 4.480469 67.414062 L 5.558594 67.027344 C 5.636719 67.257812 5.714844 67.492188 5.867188 67.722656 Z M 96.757812 66.871094 L 95.675781 66.488281 C 95.753906 66.253906 95.832031 66.023438 95.90625 65.792969 L 96.988281 66.175781 C 96.910156 66.332031 96.832031 66.640625 96.757812 66.871094 Z M 4.015625 65.867188 C 3.9375 65.636719 3.859375 65.40625 3.785156 65.097656 L 4.863281 64.710938 C 4.941406 64.941406 5.019531 65.171875 5.097656 65.40625 Z M 97.527344 64.632812 L 96.449219 64.324219 C 96.523438 64.09375 96.601562 63.859375 96.679688 63.628906 L 97.761719 63.9375 C 97.683594 64.09375 97.605469 64.402344 97.527344 64.632812 Z M 3.320312 63.628906 C 3.242188 63.398438 3.167969 63.089844 3.089844 62.855469 L 4.167969 62.546875 C 4.246094 62.78125 4.324219 63.011719 4.402344 63.320312 Z M 98.148438 62.394531 L 96.988281 62.085938 C 97.066406 61.851562 97.144531 61.621094 97.144531 61.3125 L 98.300781 61.621094 C 98.300781 61.851562 98.222656 62.085938 98.148438 62.394531 Z M 2.703125 61.390625 C 2.625 61.160156 2.546875 60.847656 2.546875 60.617188 L 3.707031 60.386719 C 3.785156 60.617188 3.785156 60.847656 3.859375 61.160156 Z M 98.6875 60.078125 L 97.527344 59.84375 C 97.605469 59.613281 97.605469 59.382812 97.683594 59.074219 L 98.839844 59.304688 C 98.765625 59.535156 98.765625 59.84375 98.6875 60.078125 Z M 2.238281 59.074219 C 2.164062 58.839844 2.164062 58.53125 2.085938 58.300781 L 3.242188 58.070312 C 3.320312 58.300781 3.320312 58.53125 3.398438 58.839844 Z M 99.074219 57.761719 L 97.914062 57.605469 C 97.992188 57.375 97.992188 57.144531 97.992188 56.832031 L 99.152344 56.988281 C 99.152344 57.296875 99.152344 57.527344 99.074219 57.761719 Z M 1.851562 56.757812 C 1.851562 56.523438 1.777344 56.214844 1.777344 55.984375 L 2.933594 55.832031 C 2.933594 56.0625 3.011719 56.371094 3.011719 56.601562 Z M 99.382812 55.445312 L 98.222656 55.289062 C 98.222656 55.058594 98.300781 54.75 98.300781 54.515625 L 99.460938 54.59375 C 99.460938 54.902344 99.460938 55.210938 99.382812 55.445312 Z M 1.621094 54.441406 C 1.621094 54.207031 1.542969 53.898438 1.542969 53.667969 L 2.703125 53.589844 C 2.703125 53.824219 2.78125 54.132812 2.78125 54.363281 Z M 99.613281 53.128906 L 98.457031 53.050781 C 98.457031 52.820312 98.457031 52.507812 98.53125 52.277344 L 99.691406 52.355469 C 99.613281 52.585938 99.613281 52.894531 99.613281 53.128906 Z M 1.46875 52.125 C 1.46875 51.890625 1.46875 51.582031 1.46875 51.351562 L 2.625 51.351562 C 2.625 51.582031 2.625 51.890625 2.625 52.125 Z M 99.691406 50.8125 L 98.53125 50.8125 C 98.53125 50.578125 98.53125 50.269531 98.53125 50.039062 L 99.691406 50.039062 C 99.691406 50.269531 99.691406 50.5 99.691406 50.8125 Z M 2.546875 49.808594 L 1.390625 49.808594 C 1.390625 49.574219 1.390625 49.265625 1.390625 49.035156 L 2.546875 49.035156 C 2.546875 49.265625 2.546875 49.5 2.546875 49.808594 Z M 98.53125 48.878906 C 98.53125 48.648438 98.53125 48.339844 98.53125 48.109375 L 99.691406 48.03125 C 99.691406 48.261719 99.691406 48.570312 99.691406 48.804688 Z M 2.625 47.492188 L 1.46875 47.414062 C 1.46875 47.179688 1.46875 46.871094 1.542969 46.640625 L 2.703125 46.71875 C 2.625 46.949219 2.625 47.257812 2.625 47.492188 Z M 98.457031 46.640625 C 98.457031 46.410156 98.457031 46.101562 98.378906 45.867188 L 99.535156 45.792969 C 99.535156 46.023438 99.613281 46.332031 99.613281 46.5625 Z M 2.78125 45.171875 L 1.621094 45.097656 C 1.621094 44.863281 1.699219 44.554688 1.699219 44.324219 L 2.855469 44.480469 C 2.855469 44.710938 2.78125 44.941406 2.78125 45.171875 Z M 98.222656 44.324219 C 98.222656 44.09375 98.148438 43.785156 98.148438 43.550781 L 99.304688 43.398438 C 99.304688 43.628906 99.382812 43.9375 99.382812 44.167969 Z M 3.089844 42.933594 L 1.929688 42.78125 C 1.929688 42.546875 2.007812 42.238281 2.085938 42.007812 L 3.242188 42.164062 C 3.167969 42.472656 3.089844 42.703125 3.089844 42.933594 Z M 97.914062 42.085938 C 97.835938 41.851562 97.835938 41.621094 97.761719 41.3125 L 98.917969 41.082031 C 98.996094 41.3125 98.996094 41.621094 99.074219 41.851562 Z M 3.476562 40.695312 L 2.316406 40.464844 C 2.394531 40.230469 2.394531 39.921875 2.472656 39.691406 L 3.628906 39.921875 C 3.550781 40.15625 3.476562 40.464844 3.476562 40.695312 Z M 97.453125 39.84375 C 97.375 39.613281 97.375 39.382812 97.296875 39.074219 L 98.457031 38.839844 C 98.53125 39.074219 98.609375 39.382812 98.609375 39.613281 Z M 3.9375 38.457031 L 2.78125 38.148438 C 2.855469 37.914062 2.933594 37.605469 3.011719 37.375 L 4.09375 37.683594 C 4.09375 37.992188 4.015625 38.222656 3.9375 38.457031 Z M 96.910156 37.605469 C 96.832031 37.375 96.757812 37.144531 96.679688 36.832031 L 97.761719 36.523438 C 97.835938 36.757812 97.914062 36.988281 97.992188 37.296875 Z M 4.554688 36.214844 L 3.476562 35.90625 C 3.550781 35.675781 3.628906 35.445312 3.707031 35.136719 L 4.789062 35.519531 C 4.710938 35.753906 4.632812 35.984375 4.554688 36.214844 Z M 96.292969 35.445312 C 96.214844 35.210938 96.140625 34.980469 96.0625 34.75 L 97.144531 34.363281 C 97.21875 34.59375 97.296875 34.828125 97.375 35.136719 Z M 5.25 34.054688 L 4.167969 33.667969 C 4.246094 33.4375 4.324219 33.203125 4.402344 32.894531 L 5.484375 33.28125 C 5.40625 33.589844 5.328125 33.824219 5.25 34.054688 Z M 95.519531 33.28125 C 95.445312 33.050781 95.367188 32.820312 95.210938 32.585938 L 96.292969 32.199219 C 96.371094 32.433594 96.449219 32.664062 96.601562 32.894531 Z M 6.101562 31.890625 L 5.019531 31.429688 C 5.097656 31.195312 5.25 30.964844 5.328125 30.734375 L 6.410156 31.195312 C 6.253906 31.429688 6.175781 31.660156 6.101562 31.890625 Z M 94.671875 31.121094 C 94.59375 30.886719 94.441406 30.65625 94.363281 30.425781 L 95.445312 29.960938 C 95.519531 30.191406 95.675781 30.425781 95.753906 30.65625 Z M 6.949219 29.808594 L 5.945312 29.34375 C 6.023438 29.113281 6.175781 28.878906 6.253906 28.648438 L 7.335938 29.1875 C 7.179688 29.34375 7.105469 29.574219 6.949219 29.808594 Z M 93.746094 29.035156 C 93.667969 28.804688 93.511719 28.570312 93.4375 28.339844 L 94.441406 27.800781 C 94.59375 28.03125 94.671875 28.261719 94.75 28.496094 Z M 8.03125 27.722656 L 6.949219 27.179688 C 7.105469 26.949219 7.179688 26.71875 7.335938 26.488281 L 8.339844 27.027344 C 8.261719 27.335938 8.109375 27.492188 8.03125 27.722656 Z M 92.742188 27.027344 C 92.585938 26.796875 92.507812 26.5625 92.355469 26.332031 L 93.359375 25.792969 C 93.511719 26.023438 93.589844 26.253906 93.746094 26.488281 Z M 9.113281 25.714844 L 8.109375 25.097656 C 8.261719 24.863281 8.339844 24.632812 8.496094 24.402344 L 9.5 25.019531 C 9.34375 25.328125 9.265625 25.558594 9.113281 25.714844 Z M 91.582031 25.019531 C 91.429688 24.789062 91.351562 24.554688 91.195312 24.402344 L 92.199219 23.785156 C 92.355469 24.015625 92.507812 24.246094 92.585938 24.480469 Z M 10.347656 23.785156 L 9.34375 23.167969 C 9.5 22.933594 9.652344 22.703125 9.808594 22.546875 L 10.734375 23.167969 C 10.578125 23.398438 10.425781 23.550781 10.347656 23.785156 Z M 90.347656 23.167969 C 90.191406 22.933594 90.039062 22.78125 89.882812 22.546875 L 90.8125 21.851562 C 90.964844 22.085938 91.121094 22.316406 91.273438 22.472656 Z M 11.582031 21.929688 L 10.65625 21.234375 C 10.8125 21.003906 10.964844 20.847656 11.121094 20.617188 L 12.046875 21.3125 C 11.890625 21.46875 11.738281 21.699219 11.582031 21.929688 Z M 89.035156 21.234375 C 88.878906 21.003906 88.726562 20.847656 88.570312 20.617188 L 89.5 19.921875 C 89.652344 20.15625 89.808594 20.308594 89.960938 20.539062 Z M 12.972656 20.078125 L 12.046875 19.382812 C 12.199219 19.152344 12.355469 18.996094 12.507812 18.765625 L 13.4375 19.535156 C 13.359375 19.691406 13.128906 19.921875 12.972656 20.078125 Z M 87.566406 19.460938 C 87.414062 19.226562 87.257812 19.074219 87.105469 18.839844 L 87.953125 18.070312 C 88.109375 18.300781 88.261719 18.457031 88.417969 18.6875 Z M 14.441406 18.300781 L 13.589844 17.527344 C 13.746094 17.296875 13.898438 17.144531 14.132812 16.910156 L 14.980469 17.683594 C 14.828125 17.914062 14.671875 18.148438 14.441406 18.300781 Z M 86.101562 17.761719 C 85.945312 17.605469 85.792969 17.375 85.558594 17.21875 L 86.410156 16.449219 C 86.5625 16.601562 86.796875 16.832031 86.949219 16.988281 Z M 15.984375 16.679688 L 15.136719 15.90625 C 15.289062 15.753906 15.519531 15.519531 15.675781 15.367188 L 16.523438 16.214844 C 16.371094 16.292969 16.214844 16.449219 15.984375 16.679688 Z M 84.554688 16.0625 C 84.402344 15.90625 84.167969 15.675781 84.015625 15.519531 L 84.789062 14.671875 C 84.941406 14.828125 85.171875 15.058594 85.328125 15.210938 Z M 17.683594 15.058594 L 16.910156 14.207031 C 17.066406 14.054688 17.296875 13.824219 17.453125 13.667969 L 18.222656 14.515625 C 17.992188 14.671875 17.835938 14.902344 17.683594 15.058594 Z M 82.855469 14.515625 C 82.703125 14.363281 82.472656 14.207031 82.316406 13.976562 L 83.089844 13.128906 C 83.320312 13.28125 83.476562 13.4375 83.707031 13.667969 Z M 19.382812 13.511719 L 18.609375 12.664062 C 18.839844 12.507812 18.996094 12.355469 19.226562 12.125 L 20 13.050781 C 19.769531 13.203125 19.535156 13.359375 19.382812 13.511719 Z M 81.160156 12.972656 C 80.925781 12.820312 80.773438 12.664062 80.539062 12.507812 L 81.234375 11.582031 C 81.46875 11.738281 81.621094 11.890625 81.851562 12.046875 Z M 21.160156 12.046875 L 20.464844 11.121094 C 20.695312 10.964844 20.847656 10.8125 21.082031 10.65625 L 21.777344 11.582031 C 21.542969 11.738281 21.3125 11.890625 21.160156 12.046875 Z M 79.304688 11.582031 C 79.074219 11.429688 78.917969 11.273438 78.6875 11.121094 L 79.382812 10.191406 C 79.613281 10.347656 79.769531 10.5 80 10.65625 Z M 22.933594 10.734375 L 22.238281 9.808594 C 22.472656 9.652344 22.703125 9.5 22.855469 9.34375 L 23.476562 10.269531 C 23.398438 10.425781 23.167969 10.578125 22.933594 10.734375 Z M 77.453125 10.269531 C 77.21875 10.117188 77.066406 9.960938 76.832031 9.882812 L 77.453125 8.878906 C 77.683594 9.035156 77.914062 9.1875 78.070312 9.34375 Z M 24.863281 9.421875 L 24.246094 8.496094 C 24.480469 8.339844 24.710938 8.183594 24.941406 8.109375 L 25.558594 9.113281 C 25.328125 9.1875 25.097656 9.265625 24.863281 9.421875 Z M 75.519531 9.035156 C 75.289062 8.878906 75.058594 8.804688 74.902344 8.648438 L 75.519531 7.644531 C 75.753906 7.800781 75.984375 7.875 76.214844 8.03125 Z M 26.796875 8.261719 L 26.253906 7.257812 C 26.488281 7.105469 26.71875 7.027344 26.949219 6.871094 L 27.492188 7.875 C 27.257812 8.03125 27.027344 8.109375 26.796875 8.261719 Z M 73.589844 7.875 C 73.359375 7.722656 73.128906 7.644531 72.894531 7.492188 L 73.4375 6.488281 C 73.667969 6.640625 73.898438 6.71875 74.132812 6.871094 Z M 28.804688 7.179688 L 28.339844 6.175781 C 28.570312 6.023438 28.804688 5.945312 29.035156 5.867188 L 29.574219 6.871094 C 29.265625 6.949219 29.035156 7.027344 28.804688 7.179688 Z M 71.503906 6.796875 C 71.273438 6.71875 71.042969 6.5625 70.8125 6.488281 L 71.351562 5.40625 C 71.582031 5.484375 71.816406 5.636719 72.046875 5.714844 Z M 30.886719 6.175781 L 30.425781 5.097656 C 30.65625 5.019531 30.886719 4.863281 31.121094 4.789062 L 31.582031 5.867188 C 31.351562 6.023438 31.121094 6.101562 30.886719 6.175781 Z M 69.421875 5.867188 C 69.1875 5.792969 68.957031 5.636719 68.726562 5.558594 L 69.1875 4.480469 C 69.421875 4.554688 69.652344 4.710938 69.882812 4.789062 Z M 32.972656 5.328125 L 32.507812 4.246094 C 32.742188 4.167969 32.972656 4.09375 33.203125 3.9375 L 33.589844 5.019531 C 33.4375 5.097656 33.203125 5.25 32.972656 5.328125 Z M 67.335938 5.019531 C 67.105469 4.941406 66.871094 4.863281 66.640625 4.789062 L 67.027344 3.707031 C 67.257812 3.785156 67.492188 3.859375 67.800781 3.9375 Z M 35.136719 4.554688 L 34.75 3.398438 C 34.980469 3.320312 35.210938 3.242188 35.519531 3.167969 L 35.90625 4.246094 C 35.597656 4.402344 35.367188 4.480469 35.136719 4.554688 Z M 65.171875 4.246094 C 64.941406 4.167969 64.710938 4.09375 64.480469 4.015625 L 64.789062 2.933594 C 65.019531 3.011719 65.25 3.089844 65.558594 3.167969 Z M 37.296875 3.859375 L 36.988281 2.78125 C 37.21875 2.703125 37.527344 2.625 37.761719 2.546875 L 38.070312 3.628906 C 37.835938 3.707031 37.527344 3.785156 37.296875 3.859375 Z M 62.933594 3.628906 C 62.703125 3.550781 62.472656 3.476562 62.164062 3.476562 L 62.472656 2.316406 C 62.703125 2.394531 63.011719 2.472656 63.242188 2.546875 Z M 39.535156 3.242188 L 39.304688 2.085938 C 39.535156 2.007812 39.84375 1.929688 40.078125 1.929688 L 40.308594 3.089844 C 40 3.167969 39.769531 3.242188 39.535156 3.242188 Z M 60.695312 3.089844 C 60.464844 3.011719 60.230469 3.011719 59.921875 2.933594 L 60.230469 1.777344 C 60.464844 1.851562 60.773438 1.851562 61.003906 1.929688 Z M 41.777344 2.78125 L 41.542969 1.621094 C 41.777344 1.542969 42.085938 1.542969 42.316406 1.46875 L 42.546875 2.625 C 42.238281 2.703125 42.007812 2.78125 41.777344 2.78125 Z M 58.457031 2.625 C 58.222656 2.546875 57.992188 2.546875 57.683594 2.472656 L 57.914062 1.390625 C 58.148438 1.390625 58.457031 1.46875 58.6875 1.542969 Z M 44.015625 2.472656 L 43.859375 1.3125 C 44.09375 1.3125 44.402344 1.234375 44.632812 1.234375 L 44.789062 2.316406 C 44.554688 2.394531 44.324219 2.394531 44.015625 2.472656 Z M 56.214844 2.316406 C 55.984375 2.316406 55.675781 2.238281 55.445312 2.238281 L 55.597656 1.082031 C 55.832031 1.082031 56.140625 1.160156 56.371094 1.160156 Z M 46.332031 2.164062 L 46.253906 1.003906 C 46.488281 1.003906 46.796875 0.925781 47.027344 0.925781 L 47.105469 2.085938 C 46.796875 2.164062 46.5625 2.164062 46.332031 2.164062 Z M 53.898438 2.085938 C 53.667969 2.085938 53.359375 2.085938 53.128906 2.007812 L 53.203125 0.847656 C 53.4375 0.847656 53.746094 0.847656 53.976562 0.925781 Z M 48.570312 2.007812 L 48.496094 0.847656 C 48.726562 0.847656 49.035156 0.847656 49.265625 0.847656 L 49.265625 2.007812 C 49.113281 2.007812 48.878906 2.007812 48.570312 2.007812 Z M 51.660156 2.007812 C 51.429688 2.007812 51.121094 2.007812 50.886719 2.007812 L 50.886719 0.847656 C 51.121094 0.847656 51.429688 0.847656 51.660156 0.847656 Z M 51.660156 2.007812 "/>
<path style=" stroke:none;fill-rule:nonzero;fill:rgb(13.72549%,12.156863%,12.54902%);fill-opacity:1;" d="M 49.960938 5.019531 L 51.121094 5.019531 L 51.121094 94.980469 L 49.960938 94.980469 Z M 49.960938 5.019531 "/>
<path style=" stroke:none;fill-rule:nonzero;fill:rgb(100%,100%,100%);fill-opacity:1;" d="M 74.980469 31.816406 C 74.980469 35.652344 71.871094 38.765625 68.03125 38.765625 C 64.191406 38.765625 61.082031 35.652344 61.082031 31.816406 C 61.082031 27.976562 64.191406 24.863281 68.03125 24.863281 C 71.871094 24.863281 74.980469 27.976562 74.980469 31.816406 Z M 74.980469 31.816406 "/>
<path style=" stroke:none;fill-rule:nonzero;fill:rgb(100%,43.921569%,34.509804%);fill-opacity:1;" d="M 72.355469 31.816406 C 72.355469 34.203125 70.417969 36.140625 68.03125 36.140625 C 65.644531 36.140625 63.707031 34.203125 63.707031 31.816406 C 63.707031 29.425781 65.644531 27.492188 68.03125 27.492188 C 70.417969 27.492188 72.355469 29.425781 72.355469 31.816406 Z M 72.355469 31.816406 "/>
<path style=" stroke:none;fill-rule:nonzero;fill:rgb(100%,100%,100%);fill-opacity:1;" d="M 39.460938 67.335938 C 39.460938 71.175781 36.347656 74.285156 32.507812 74.285156 C 28.671875 74.285156 25.558594 71.175781 25.558594 67.335938 C 25.558594 63.496094 28.671875 60.386719 32.507812 60.386719 C 36.347656 60.386719 39.460938 63.496094 39.460938 67.335938 Z M 39.460938 67.335938 "/>
<path style=" stroke:none;fill-rule:nonzero;fill:rgb(13.72549%,12.156863%,12.54902%);fill-opacity:1;" d="M 32.820312 35.445312 L 31.660156 35.289062 L 31.503906 36.0625 L 32.664062 36.214844 Z M 32.820312 35.445312 "/>
<path style=" stroke:none;fill-rule:nonzero;fill:rgb(13.72549%,12.156863%,12.54902%);fill-opacity:1;" d="M 33.128906 33.203125 L 31.96875 32.972656 C 31.890625 33.203125 31.890625 33.511719 31.816406 33.746094 L 32.972656 33.898438 C 33.050781 33.667969 33.128906 33.4375 33.128906 33.203125 Z M 33.128906 33.203125 "/>
<path style=" stroke:none;fill-rule:nonzero;fill:rgb(13.72549%,12.156863%,12.54902%);fill-opacity:1;" d="M 32.507812 37.761719 L 31.351562 37.605469 L 31.273438 38.378906 L 32.433594 38.53125 Z M 32.507812 37.761719 "/>
<path style=" stroke:none;fill-rule:nonzero;fill:rgb(13.72549%,12.156863%,12.54902%);fill-opacity:1;" d="M 34.054688 28.648438 L 32.972656 28.417969 L 32.742188 29.1875 L 33.898438 29.421875 Z M 34.054688 28.648438 "/>
<path style=" stroke:none;fill-rule:nonzero;fill:rgb(13.72549%,12.156863%,12.54902%);fill-opacity:1;" d="M 34.671875 26.488281 L 33.589844 26.175781 C 33.511719 26.410156 33.4375 26.640625 33.359375 26.949219 L 34.515625 27.257812 C 34.515625 26.949219 34.59375 26.71875 34.671875 26.488281 Z M 34.671875 26.488281 "/>
<path style=" stroke:none;fill-rule:nonzero;fill:rgb(13.72549%,12.156863%,12.54902%);fill-opacity:1;" d="M 35.289062 24.246094 L 34.132812 23.9375 C 34.054688 24.167969 33.976562 24.402344 33.898438 24.710938 L 34.980469 25.019531 C 35.136719 24.710938 35.210938 24.480469 35.289062 24.246094 Z M 35.289062 24.246094 "/>
<path style=" stroke:none;fill-rule:nonzero;fill:rgb(13.72549%,12.156863%,12.54902%);fill-opacity:1;" d="M 37.683594 17.761719 L 36.601562 17.296875 C 36.523438 17.527344 36.371094 17.761719 36.292969 17.992188 L 37.375 18.457031 C 37.453125 18.222656 37.527344 17.992188 37.683594 17.761719 Z M 37.683594 17.761719 "/>
<path style=" stroke:none;fill-rule:nonzero;fill:rgb(13.72549%,12.156863%,12.54902%);fill-opacity:1;" d="M 32.199219 40 L 31.121094 39.921875 L 31.042969 40.695312 L 32.199219 40.773438 Z M 32.199219 40 "/>
<path style=" stroke:none;fill-rule:nonzero;fill:rgb(13.72549%,12.156863%,12.54902%);fill-opacity:1;" d="M 36.757812 19.921875 L 35.675781 19.535156 C 35.597656 19.769531 35.519531 20 35.367188 20.230469 L 36.449219 20.617188 C 36.601562 20.386719 36.679688 20.15625 36.757812 19.921875 Z M 36.757812 19.921875 "/>
<path style=" stroke:none;fill-rule:nonzero;fill:rgb(13.72549%,12.156863%,12.54902%);fill-opacity:1;" d="M 35.984375 22.085938 L 34.902344 21.699219 C 34.828125 21.929688 34.75 22.164062 34.671875 22.472656 L 35.753906 22.855469 C 35.832031 22.546875 35.90625 22.316406 35.984375 22.085938 Z M 35.984375 22.085938 "/>
<path style=" stroke:none;fill-rule:nonzero;fill:rgb(13.72549%,12.156863%,12.54902%);fill-opacity:1;" d="M 32.046875 42.316406 L 30.886719 42.238281 L 30.8125 43.011719 L 31.96875 43.089844 Z M 32.046875 42.316406 "/>
<path style=" stroke:none;fill-rule:nonzero;fill:rgb(13.72549%,12.156863%,12.54902%);fill-opacity:1;" d="M 45.714844 7.105469 L 45.097656 6.101562 C 44.863281 6.253906 44.632812 6.410156 44.402344 6.5625 L 45.097656 7.492188 C 45.328125 7.414062 45.484375 7.257812 45.714844 7.105469 Z M 45.714844 7.105469 "/>
<path style=" stroke:none;fill-rule:nonzero;fill:rgb(13.72549%,12.156863%,12.54902%);fill-opacity:1;" d="M 42.394531 10.039062 L 41.542969 9.265625 C 41.390625 9.5 41.234375 9.652344 41.003906 9.882812 L 41.929688 10.578125 C 42.085938 10.425781 42.238281 10.269531 42.394531 10.039062 Z M 42.394531 10.039062 "/>
<path style=" stroke:none;fill-rule:nonzero;fill:rgb(13.72549%,12.156863%,12.54902%);fill-opacity:1;" d="M 43.9375 8.496094 L 43.167969 7.644531 C 42.933594 7.800781 42.78125 8.03125 42.546875 8.183594 L 43.398438 9.035156 C 43.550781 8.804688 43.785156 8.648438 43.9375 8.496094 Z M 43.9375 8.496094 "/>
<path style=" stroke:none;fill-rule:nonzero;fill:rgb(13.72549%,12.156863%,12.54902%);fill-opacity:1;" d="M 41.003906 11.816406 L 40.078125 11.121094 C 39.921875 11.351562 39.769531 11.582031 39.613281 11.738281 L 40.539062 12.355469 C 40.695312 12.277344 40.847656 12.046875 41.003906 11.816406 Z M 41.003906 11.816406 "/>
<path style=" stroke:none;fill-rule:nonzero;fill:rgb(13.72549%,12.156863%,12.54902%);fill-opacity:1;" d="M 31.890625 44.632812 L 30.734375 44.554688 L 30.734375 45.328125 L 31.890625 45.40625 Z M 31.890625 44.632812 "/>
<path style=" stroke:none;fill-rule:nonzero;fill:rgb(13.72549%,12.156863%,12.54902%);fill-opacity:1;" d="M 31.816406 46.949219 L 30.65625 46.871094 L 30.65625 47.644531 L 31.816406 47.722656 Z M 31.816406 46.949219 "/>
<path style=" stroke:none;fill-rule:nonzero;fill:rgb(13.72549%,12.156863%,12.54902%);fill-opacity:1;" d="M 38.609375 15.753906 L 37.605469 15.210938 C 37.453125 15.445312 37.375 15.675781 37.21875 15.90625 L 38.222656 16.449219 C 38.378906 16.214844 38.53125 15.984375 38.609375 15.753906 Z M 38.609375 15.753906 "/>
<path style=" stroke:none;fill-rule:nonzero;fill:rgb(13.72549%,12.156863%,12.54902%);fill-opacity:1;" d="M 39.769531 13.746094 L 38.765625 13.128906 C 38.609375 13.359375 38.53125 13.589844 38.378906 13.824219 L 39.382812 14.363281 C 39.460938 14.207031 39.613281 13.976562 39.769531 13.746094 Z M 39.769531 13.746094 "/>
<path style=" stroke:none;fill-rule:nonzero;fill:rgb(13.72549%,12.156863%,12.54902%);fill-opacity:1;" d="M 76.371094 65.25 L 76.679688 66.332031 C 76.910156 66.253906 77.144531 66.175781 77.453125 66.101562 L 77.066406 65.019531 C 76.910156 65.097656 76.601562 65.171875 76.371094 65.25 Z M 76.371094 65.25 "/>
<path style=" stroke:none;fill-rule:nonzero;fill:rgb(13.72549%,12.156863%,12.54902%);fill-opacity:1;" d="M 71.96875 66.488281 L 72.199219 67.566406 L 72.972656 67.414062 L 72.664062 66.253906 Z M 71.96875 66.488281 "/>
<path style=" stroke:none;fill-rule:nonzero;fill:rgb(13.72549%,12.156863%,12.54902%);fill-opacity:1;" d="M 74.207031 65.867188 L 74.515625 66.949219 C 74.75 66.871094 75.058594 66.796875 75.289062 66.71875 L 74.902344 65.714844 C 74.671875 65.792969 74.441406 65.792969 74.207031 65.867188 Z M 74.207031 65.867188 "/>
<path style=" stroke:none;fill-rule:nonzero;fill:rgb(13.72549%,12.156863%,12.54902%);fill-opacity:1;" d="M 69.730469 66.949219 L 69.960938 68.109375 L 70.734375 67.953125 L 70.425781 66.796875 Z M 69.730469 66.949219 "/>
<path style=" stroke:none;fill-rule:nonzero;fill:rgb(13.72549%,12.156863%,12.54902%);fill-opacity:1;" d="M 88.804688 59.535156 L 89.5 60.464844 C 89.730469 60.308594 89.960938 60.15625 90.117188 60 L 89.421875 59.074219 C 89.1875 59.226562 88.957031 59.382812 88.804688 59.535156 Z M 88.804688 59.535156 "/>
<path style=" stroke:none;fill-rule:nonzero;fill:rgb(13.72549%,12.156863%,12.54902%);fill-opacity:1;" d="M 59.152344 69.574219 L 59.074219 68.417969 L 58.300781 68.496094 L 58.378906 69.652344 Z M 59.152344 69.574219 "/>
<path style=" stroke:none;fill-rule:nonzero;fill:rgb(13.72549%,12.156863%,12.54902%);fill-opacity:1;" d="M 63.785156 69.113281 L 63.628906 67.953125 L 62.855469 68.03125 L 63.011719 69.1875 Z M 63.785156 69.113281 "/>
<path style=" stroke:none;fill-rule:nonzero;fill:rgb(13.72549%,12.156863%,12.54902%);fill-opacity:1;" d="M 61.46875 69.34375 L 61.390625 68.261719 L 60.617188 68.339844 L 60.695312 69.421875 Z M 61.46875 69.34375 "/>
<path style=" stroke:none;fill-rule:nonzero;fill:rgb(13.72549%,12.156863%,12.54902%);fill-opacity:1;" d="M 66.101562 68.804688 L 65.945312 67.644531 L 65.171875 67.800781 L 65.328125 68.957031 C 65.636719 68.878906 65.867188 68.804688 66.101562 68.804688 Z M 66.101562 68.804688 "/>
<path style=" stroke:none;fill-rule:nonzero;fill:rgb(13.72549%,12.156863%,12.54902%);fill-opacity:1;" d="M 55.984375 68.648438 L 56.0625 69.808594 L 56.832031 69.730469 L 56.757812 68.570312 Z M 55.984375 68.648438 "/>
<path style=" stroke:none;fill-rule:nonzero;fill:rgb(13.72549%,12.156863%,12.54902%);fill-opacity:1;" d="M 51.429688 68.804688 L 51.429688 69.960938 L 52.199219 69.960938 L 52.199219 68.804688 Z M 51.429688 68.804688 "/>
<path style=" stroke:none;fill-rule:nonzero;fill:rgb(13.72549%,12.156863%,12.54902%);fill-opacity:1;" d="M 53.746094 68.726562 L 53.746094 69.882812 C 53.976562 69.882812 54.285156 69.882812 54.515625 69.882812 L 54.441406 68.726562 C 54.207031 68.726562 53.976562 68.726562 53.746094 68.726562 Z M 53.746094 68.726562 "/>
<path style=" stroke:none;fill-rule:nonzero;fill:rgb(13.72549%,12.156863%,12.54902%);fill-opacity:1;" d="M 82.855469 62.855469 L 83.320312 63.9375 C 83.550781 63.859375 83.785156 63.707031 84.015625 63.628906 L 83.550781 62.546875 C 83.320312 62.625 83.089844 62.78125 82.855469 62.855469 Z M 82.855469 62.855469 "/>
<path style=" stroke:none;fill-rule:nonzero;fill:rgb(13.72549%,12.156863%,12.54902%);fill-opacity:1;" d="M 84.863281 61.851562 L 85.40625 62.855469 C 85.636719 62.703125 85.867188 62.625 86.101562 62.472656 L 85.558594 61.46875 C 85.328125 61.621094 85.097656 61.777344 84.863281 61.851562 Z M 84.863281 61.851562 "/>
<path style=" stroke:none;fill-rule:nonzero;fill:rgb(13.72549%,12.156863%,12.54902%);fill-opacity:1;" d="M 78.609375 64.554688 L 78.996094 65.636719 C 79.226562 65.558594 79.460938 65.484375 79.769531 65.40625 L 79.382812 64.324219 C 79.074219 64.402344 78.839844 64.480469 78.609375 64.554688 Z M 78.609375 64.554688 "/>
<path style=" stroke:none;fill-rule:nonzero;fill:rgb(13.72549%,12.156863%,12.54902%);fill-opacity:1;" d="M 80.695312 63.785156 L 81.082031 64.863281 C 81.3125 64.789062 81.542969 64.632812 81.777344 64.554688 L 81.3125 63.476562 C 81.234375 63.550781 80.925781 63.628906 80.695312 63.785156 Z M 80.695312 63.785156 "/>
<path style=" stroke:none;fill-rule:nonzero;fill:rgb(13.72549%,12.156863%,12.54902%);fill-opacity:1;" d="M 92.125 56.523438 L 92.972656 57.296875 C 93.128906 57.066406 93.359375 56.910156 93.511719 56.679688 L 92.585938 55.984375 C 92.507812 56.140625 92.277344 56.371094 92.125 56.523438 Z M 92.125 56.523438 "/>
<path style=" stroke:none;fill-rule:nonzero;fill:rgb(13.72549%,12.156863%,12.54902%);fill-opacity:1;" d="M 90.578125 58.148438 L 91.351562 58.996094 C 91.582031 58.839844 91.738281 58.609375 91.96875 58.457031 L 91.195312 57.605469 C 90.964844 57.761719 90.734375 57.914062 90.578125 58.148438 Z M 90.578125 58.148438 "/>
<path style=" stroke:none;fill-rule:nonzero;fill:rgb(13.72549%,12.156863%,12.54902%);fill-opacity:1;" d="M 86.871094 60.773438 L 87.492188 61.777344 C 87.722656 61.621094 87.953125 61.46875 88.183594 61.390625 L 87.566406 60.386719 C 87.335938 60.464844 87.105469 60.617188 86.871094 60.773438 Z M 86.871094 60.773438 "/>
<path style=" stroke:none;fill-rule:nonzero;fill:rgb(13.72549%,12.156863%,12.54902%);fill-opacity:1;" d="M 50.578125 4.402344 C 25.484375 4.402344 5.019531 24.863281 5.019531 49.960938 C 5.019531 75.058594 25.484375 95.519531 50.578125 95.519531 C 75.675781 95.519531 96.140625 75.058594 96.140625 49.960938 C 96.140625 24.863281 75.675781 4.402344 50.578125 4.402344 Z M 68.03125 25.40625 C 71.582031 25.40625 74.441406 28.261719 74.441406 31.816406 C 74.441406 35.367188 71.582031 38.222656 68.03125 38.222656 C 64.480469 38.222656 61.621094 35.367188 61.621094 31.816406 C 61.621094 28.261719 64.480469 25.40625 68.03125 25.40625 Z M 75.136719 34.363281 C 86.71875 37.605469 94.441406 43.167969 94.902344 49.421875 L 70.5 49.421875 C 70.5 45.867188 70.269531 42.394531 69.882812 39.152344 C 72.355469 38.53125 74.285156 36.679688 75.136719 34.363281 Z M 94.671875 45.019531 C 91.816406 40.15625 84.789062 35.984375 75.445312 33.359375 C 75.519531 32.894531 75.597656 32.355469 75.597656 31.816406 C 75.597656 27.644531 72.199219 24.246094 68.03125 24.246094 C 67.644531 24.246094 67.335938 24.246094 67.027344 24.324219 C 64.324219 15.367188 60.230469 8.648438 55.519531 5.867188 C 76.0625 8.183594 92.355469 24.480469 94.671875 45.019531 Z M 46.71875 5.792969 L 47.027344 6.410156 C 47.257812 6.332031 47.492188 6.175781 47.722656 6.101562 L 47.566406 5.714844 C 48.109375 5.714844 48.570312 5.636719 49.113281 5.636719 L 49.113281 5.714844 C 49.34375 5.636719 49.574219 5.636719 49.808594 5.636719 C 50.039062 5.636719 50.347656 5.636719 50.578125 5.636719 C 56.910156 5.636719 62.546875 13.128906 65.945312 24.632812 C 63.167969 25.40625 61.082031 27.800781 60.617188 30.65625 C 57.375 30.347656 54.054688 30.117188 50.578125 30.117188 C 44.554688 30.117188 38.765625 30.65625 33.511719 31.582031 C 33.511719 31.351562 33.589844 31.195312 33.589844 30.964844 L 32.433594 30.65625 C 32.355469 30.886719 32.355469 31.195312 32.277344 31.429688 L 32.972656 31.582031 C 20 33.976562 10.039062 38.917969 6.410156 45.019531 C 8.804688 24.09375 25.636719 7.566406 46.71875 5.792969 Z M 50.578125 31.195312 C 53.976562 31.195312 57.296875 31.351562 60.539062 31.660156 C 60.539062 31.660156 60.539062 31.738281 60.539062 31.738281 C 60.539062 35.90625 63.9375 39.304688 68.109375 39.304688 C 68.339844 39.304688 68.570312 39.304688 68.878906 39.304688 C 69.1875 42.546875 69.421875 45.945312 69.421875 49.421875 L 31.738281 49.421875 L 31.738281 49.265625 L 30.578125 49.265625 L 30.578125 49.5 L 6.175781 49.5 C 6.871094 39.304688 26.488281 31.195312 50.578125 31.195312 Z M 30.578125 50.578125 C 30.578125 53.824219 30.734375 56.910156 31.042969 59.921875 C 28.183594 60.464844 25.867188 62.625 25.171875 65.40625 C 14.054688 62.085938 6.640625 56.679688 6.175781 50.578125 Z M 32.507812 60.925781 C 36.0625 60.925781 38.917969 63.785156 38.917969 67.335938 C 38.917969 70.886719 36.0625 73.746094 32.507812 73.746094 C 28.957031 73.746094 26.101562 70.886719 26.101562 67.335938 C 26.101562 63.859375 28.957031 60.925781 32.507812 60.925781 Z M 6.410156 54.980469 C 9.1875 59.769531 15.90625 63.785156 24.941406 66.488281 C 24.941406 66.796875 24.863281 67.105469 24.863281 67.335938 C 24.863281 71.503906 28.261719 74.902344 32.433594 74.902344 C 32.894531 74.902344 33.359375 74.828125 33.824219 74.75 C 36.523438 84.167969 40.695312 91.195312 45.558594 94.054688 C 25.019531 91.816406 8.726562 75.519531 6.410156 54.980469 Z M 34.902344 74.515625 C 37.296875 73.746094 39.074219 71.816406 39.769531 69.34375 C 43.242188 69.730469 46.796875 69.960938 50.578125 69.960938 L 50.578125 68.804688 C 46.949219 68.804688 43.398438 68.570312 40 68.261719 C 40 67.953125 40.078125 67.722656 40.078125 67.414062 C 40.078125 63.242188 36.679688 59.84375 32.507812 59.84375 C 32.433594 59.84375 32.355469 59.84375 32.277344 59.84375 C 31.96875 56.832031 31.816406 53.746094 31.816406 50.578125 L 69.421875 50.578125 C 69.421875 56.523438 68.878906 62.164062 67.953125 67.335938 C 67.800781 67.335938 67.644531 67.414062 67.566406 67.414062 L 67.722656 68.496094 C 64.789062 83.785156 58.222656 94.441406 50.65625 94.441406 C 44.015625 94.441406 38.300781 86.488281 34.902344 74.515625 Z M 94.902344 52.199219 L 94.671875 52.125 C 94.59375 52.355469 94.515625 52.585938 94.441406 52.820312 L 94.828125 52.972656 C 94.828125 53.511719 94.75 54.054688 94.671875 54.59375 L 93.824219 54.132812 C 93.746094 54.363281 93.589844 54.515625 93.4375 54.75 L 94.441406 55.367188 C 94.515625 55.289062 94.59375 55.136719 94.671875 55.058594 C 92.355469 75.519531 76.0625 91.816406 55.519531 94.132812 C 64.015625 89.113281 70.347656 71.503906 70.5 50.578125 L 94.980469 50.578125 C 94.980469 50.65625 94.980469 50.65625 94.980469 50.734375 C 94.902344 51.195312 94.902344 51.738281 94.902344 52.199219 Z M 94.902344 52.199219 "/>
<path style=" stroke:none;fill-rule:nonzero;fill:rgb(100%,81.568627%,35.686275%);fill-opacity:1;" d="M 36.832031 67.335938 C 36.832031 69.722656 34.898438 71.660156 32.507812 71.660156 C 30.121094 71.660156 28.183594 69.722656 28.183594 67.335938 C 28.183594 64.949219 30.121094 63.011719 32.507812 63.011719 C 34.898438 63.011719 36.832031 64.949219 36.832031 67.335938 Z M 36.832031 67.335938 "/>
<path style=" stroke:none;fill-rule:nonzero;fill:rgb(51.764706%,85.882353%,100%);fill-opacity:1;" d="M 29.421875 19.84375 C 29.421875 20.785156 28.660156 21.542969 27.722656 21.542969 C 26.785156 21.542969 26.023438 20.785156 26.023438 19.84375 C 26.023438 18.90625 26.785156 18.148438 27.722656 18.148438 C 28.660156 18.148438 29.421875 18.90625 29.421875 19.84375 Z M 29.421875 19.84375 "/>
<path style=" stroke:none;fill-rule:nonzero;fill:rgb(100%,81.568627%,35.686275%);fill-opacity:1;" d="M 83.011719 29.1875 C 83.011719 30.128906 82.25 30.886719 81.3125 30.886719 C 80.375 30.886719 79.613281 30.128906 79.613281 29.1875 C 79.613281 28.25 80.375 27.492188 81.3125 27.492188 C 82.25 27.492188 83.011719 28.25 83.011719 29.1875 Z M 83.011719 29.1875 "/>
<path style=" stroke:none;fill-rule:nonzero;fill:rgb(100%,81.568627%,35.686275%);fill-opacity:1;" d="M 3.628906 18.148438 C 3.628906 19.085938 2.867188 19.84375 1.929688 19.84375 C 0.992188 19.84375 0.230469 19.085938 0.230469 18.148438 C 0.230469 17.207031 0.992188 16.449219 1.929688 16.449219 C 2.867188 16.449219 3.628906 17.207031 3.628906 18.148438 Z M 3.628906 18.148438 "/>
<path style=" stroke:none;fill-rule:nonzero;fill:rgb(51.764706%,85.882353%,100%);fill-opacity:1;" d="M 84.710938 4.710938 C 84.710938 5.648438 83.949219 6.410156 83.011719 6.410156 C 82.074219 6.410156 81.3125 5.648438 81.3125 4.710938 C 81.3125 3.773438 82.074219 3.011719 83.011719 3.011719 C 83.949219 3.011719 84.710938 3.773438 84.710938 4.710938 Z M 84.710938 4.710938 "/>
<path style=" stroke:none;fill-rule:nonzero;fill:rgb(51.764706%,85.882353%,100%);fill-opacity:1;" d="M 9.574219 89.960938 C 9.574219 91.367188 8.433594 92.507812 7.027344 92.507812 C 5.621094 92.507812 4.480469 91.367188 4.480469 89.960938 C 4.480469 88.554688 5.621094 87.414062 7.027344 87.414062 C 8.433594 87.414062 9.574219 88.554688 9.574219 89.960938 Z M 9.574219 89.960938 "/>
<path style=" stroke:none;fill-rule:nonzero;fill:rgb(90.196078%,91.372549%,93.333333%);fill-opacity:1;" d="M 42.546875 55.367188 C 42.546875 56.304688 41.789062 57.066406 40.847656 57.066406 C 39.910156 57.066406 39.152344 56.304688 39.152344 55.367188 C 39.152344 54.429688 39.910156 53.667969 40.847656 53.667969 C 41.789062 53.667969 42.546875 54.429688 42.546875 55.367188 Z M 42.546875 55.367188 "/>
<path style=" stroke:none;fill-rule:nonzero;fill:rgb(100%,43.921569%,34.509804%);fill-opacity:1;" d="M 74.75 75.519531 C 74.75 76.460938 73.988281 77.21875 73.050781 77.21875 C 72.113281 77.21875 71.351562 76.460938 71.351562 75.519531 C 71.351562 74.582031 72.113281 73.824219 73.050781 73.824219 C 73.988281 73.824219 74.75 74.582031 74.75 75.519531 Z M 74.75 75.519531 "/>
</g>
</svg>
