<?xml version="1.0" encoding="UTF-8"?>
<svg xmlns="http://www.w3.org/2000/svg" xmlns:xlink="http://www.w3.org/1999/xlink" width="82px" height="82px" viewBox="0 0 82 82" version="1.1">
<g id="surface1">
<path style=" stroke:none;fill-rule:nonzero;fill:rgb(13.72549%,12.156863%,12.54902%);fill-opacity:1;" d="M 73.515625 74.402344 C 73.386719 74.402344 73.261719 74.339844 73.199219 74.273438 C 73.007812 74.085938 73.007812 73.769531 73.199219 73.578125 L 74.023438 72.753906 C 74.210938 72.566406 74.527344 72.566406 74.71875 72.753906 C 74.90625 72.945312 74.90625 73.261719 74.71875 73.453125 L 73.894531 74.273438 C 73.769531 74.402344 73.640625 74.402344 73.515625 74.402344 Z M 73.515625 74.402344 "/>
<path style=" stroke:none;fill-rule:nonzero;fill:rgb(13.72549%,12.156863%,12.54902%);fill-opacity:1;" d="M 70.980469 76.996094 C 70.855469 76.996094 70.730469 76.933594 70.664062 76.871094 C 70.476562 76.679688 70.476562 76.363281 70.664062 76.175781 L 71.488281 75.351562 C 71.679688 75.160156 71.996094 75.160156 72.183594 75.351562 C 72.375 75.542969 72.375 75.859375 72.183594 76.046875 L 71.363281 76.871094 C 71.171875 76.933594 71.046875 76.996094 70.980469 76.996094 Z M 70.980469 76.996094 "/>
<path style=" stroke:none;fill-rule:nonzero;fill:rgb(13.72549%,12.156863%,12.54902%);fill-opacity:1;" d="M 74.339844 76.996094 C 74.210938 76.996094 74.085938 76.933594 74.023438 76.871094 L 73.199219 76.046875 C 73.007812 75.859375 73.007812 75.542969 73.199219 75.351562 C 73.386719 75.160156 73.703125 75.160156 73.894531 75.351562 L 74.71875 76.175781 C 74.90625 76.363281 74.90625 76.679688 74.71875 76.871094 C 74.589844 76.933594 74.464844 76.996094 74.339844 76.996094 Z M 74.339844 76.996094 "/>
<path style=" stroke:none;fill-rule:nonzero;fill:rgb(13.72549%,12.156863%,12.54902%);fill-opacity:1;" d="M 71.742188 74.402344 C 71.617188 74.402344 71.488281 74.339844 71.425781 74.273438 L 70.601562 73.453125 C 70.414062 73.261719 70.414062 72.945312 70.601562 72.753906 C 70.792969 72.566406 71.109375 72.566406 71.300781 72.753906 L 72.121094 73.578125 C 72.3125 73.769531 72.3125 74.085938 72.121094 74.273438 C 71.996094 74.402344 71.867188 74.402344 71.742188 74.402344 Z M 71.742188 74.402344 "/>
<path style=" stroke:none;fill-rule:nonzero;fill:rgb(13.72549%,12.156863%,12.54902%);fill-opacity:1;" d="M 80.734375 11.96875 C 80.605469 11.96875 80.480469 11.902344 80.417969 11.839844 C 80.226562 11.652344 80.226562 11.335938 80.417969 11.144531 L 81.238281 10.320312 C 81.429688 10.132812 81.746094 10.132812 81.9375 10.320312 C 82.125 10.511719 82.125 10.828125 81.9375 11.019531 L 81.113281 11.839844 C 80.921875 11.902344 80.859375 11.96875 80.734375 11.96875 Z M 80.734375 11.96875 "/>
<path style=" stroke:none;fill-rule:nonzero;fill:rgb(13.72549%,12.156863%,12.54902%);fill-opacity:1;" d="M 78.136719 14.5 C 78.011719 14.5 77.882812 14.4375 77.820312 14.375 C 77.632812 14.183594 77.632812 13.867188 77.820312 13.675781 L 78.644531 12.855469 C 78.832031 12.664062 79.152344 12.664062 79.339844 12.855469 C 79.53125 13.042969 79.53125 13.359375 79.339844 13.550781 L 78.515625 14.375 C 78.390625 14.4375 78.265625 14.5 78.136719 14.5 Z M 78.136719 14.5 "/>
<path style=" stroke:none;fill-rule:nonzero;fill:rgb(13.72549%,12.156863%,12.54902%);fill-opacity:1;" d="M 81.558594 14.5 C 81.429688 14.5 81.304688 14.4375 81.238281 14.375 L 80.417969 13.550781 C 80.226562 13.359375 80.226562 13.042969 80.417969 12.855469 C 80.605469 12.664062 80.921875 12.664062 81.113281 12.855469 L 81.9375 13.675781 C 82.125 13.867188 82.125 14.183594 81.9375 14.375 C 81.746094 14.4375 81.621094 14.5 81.558594 14.5 Z M 81.558594 14.5 "/>
<path style=" stroke:none;fill-rule:nonzero;fill:rgb(13.72549%,12.156863%,12.54902%);fill-opacity:1;" d="M 78.960938 11.96875 C 78.832031 11.96875 78.707031 11.902344 78.644531 11.839844 L 77.820312 11.019531 C 77.632812 10.828125 77.632812 10.511719 77.820312 10.320312 C 78.011719 10.132812 78.328125 10.132812 78.515625 10.320312 L 79.339844 11.144531 C 79.53125 11.335938 79.53125 11.652344 79.339844 11.839844 C 79.214844 11.902344 79.085938 11.96875 78.960938 11.96875 Z M 78.960938 11.96875 "/>
<path style=" stroke:none;fill-rule:nonzero;fill:rgb(13.72549%,12.156863%,12.54902%);fill-opacity:1;" d="M 3.039062 1.773438 C 2.914062 1.773438 2.785156 1.710938 2.722656 1.644531 C 2.53125 1.457031 2.53125 1.140625 2.660156 0.949219 L 3.484375 0.125 C 3.671875 -0.0625 3.988281 -0.0625 4.179688 0.125 C 4.367188 0.316406 4.367188 0.632812 4.179688 0.824219 L 3.355469 1.644531 C 3.292969 1.710938 3.167969 1.773438 3.039062 1.773438 Z M 3.039062 1.773438 "/>
<path style=" stroke:none;fill-rule:nonzero;fill:rgb(13.72549%,12.156863%,12.54902%);fill-opacity:1;" d="M 0.507812 4.304688 C 0.378906 4.304688 0.253906 4.242188 0.191406 4.179688 C 0 3.988281 0 3.671875 0.191406 3.484375 L 1.011719 2.660156 C 1.140625 2.53125 1.457031 2.53125 1.644531 2.660156 C 1.835938 2.847656 1.835938 3.167969 1.644531 3.355469 L 0.824219 4.179688 C 0.695312 4.242188 0.570312 4.304688 0.507812 4.304688 Z M 0.507812 4.304688 "/>
<path style=" stroke:none;fill-rule:nonzero;fill:rgb(13.72549%,12.156863%,12.54902%);fill-opacity:1;" d="M 3.863281 4.304688 C 3.734375 4.304688 3.609375 4.242188 3.546875 4.179688 L 2.660156 3.355469 C 2.53125 3.167969 2.53125 2.847656 2.660156 2.660156 C 2.847656 2.53125 3.167969 2.53125 3.355469 2.660156 L 4.179688 3.484375 C 4.367188 3.671875 4.367188 3.988281 4.179688 4.179688 C 4.050781 4.242188 3.988281 4.304688 3.863281 4.304688 Z M 3.863281 4.304688 "/>
<path style=" stroke:none;fill-rule:nonzero;fill:rgb(13.72549%,12.156863%,12.54902%);fill-opacity:1;" d="M 1.265625 1.773438 C 1.140625 1.773438 1.011719 1.710938 0.949219 1.644531 L 0.125 0.824219 C -0.0625 0.632812 -0.0625 0.316406 0.125 0.125 C 0.316406 -0.0625 0.632812 -0.0625 0.824219 0.125 L 1.644531 0.949219 C 1.835938 1.140625 1.835938 1.457031 1.644531 1.644531 C 1.519531 1.710938 1.394531 1.773438 1.265625 1.773438 Z M 1.265625 1.773438 "/>
<path style=" stroke:none;fill-rule:nonzero;fill:rgb(13.72549%,12.156863%,12.54902%);fill-opacity:1;" d="M 38.941406 79.46875 C 38.816406 79.46875 38.6875 79.402344 38.625 79.339844 C 38.433594 79.152344 38.433594 78.832031 38.625 78.644531 L 39.449219 77.820312 C 39.636719 77.632812 39.957031 77.632812 40.144531 77.820312 C 40.335938 78.011719 40.335938 78.328125 40.144531 78.515625 L 39.320312 79.339844 C 39.195312 79.402344 39.070312 79.46875 38.941406 79.46875 Z M 38.941406 79.46875 "/>
<path style=" stroke:none;fill-rule:nonzero;fill:rgb(13.72549%,12.156863%,12.54902%);fill-opacity:1;" d="M 36.410156 82 C 36.28125 82 36.15625 81.9375 36.09375 81.875 C 35.902344 81.683594 35.902344 81.367188 36.09375 81.175781 L 36.914062 80.355469 C 37.105469 80.164062 37.421875 80.164062 37.613281 80.355469 C 37.800781 80.542969 37.800781 80.859375 37.613281 81.050781 L 36.789062 81.875 C 36.664062 81.9375 36.535156 82 36.410156 82 Z M 36.410156 82 "/>
<path style=" stroke:none;fill-rule:nonzero;fill:rgb(13.72549%,12.156863%,12.54902%);fill-opacity:1;" d="M 39.765625 82 C 39.636719 82 39.511719 81.9375 39.449219 81.875 L 38.625 81.050781 C 38.433594 80.859375 38.433594 80.542969 38.625 80.355469 C 38.816406 80.164062 39.132812 80.164062 39.320312 80.355469 L 40.144531 81.175781 C 40.335938 81.367188 40.335938 81.683594 40.144531 81.875 C 40.019531 81.9375 39.890625 82 39.765625 82 Z M 39.765625 82 "/>
<path style=" stroke:none;fill-rule:nonzero;fill:rgb(13.72549%,12.156863%,12.54902%);fill-opacity:1;" d="M 37.234375 79.46875 C 37.105469 79.46875 36.980469 79.402344 36.914062 79.339844 L 36.09375 78.515625 C 35.902344 78.328125 35.902344 78.011719 36.09375 77.820312 C 36.28125 77.632812 36.597656 77.632812 36.789062 77.820312 L 37.613281 78.644531 C 37.800781 78.832031 37.800781 79.152344 37.613281 79.339844 C 37.484375 79.402344 37.359375 79.46875 37.234375 79.46875 Z M 37.234375 79.46875 "/>
<path style=" stroke:none;fill-rule:nonzero;fill:rgb(13.72549%,12.156863%,12.54902%);fill-opacity:1;" d="M 39.765625 24.25 L 39.765625 25.203125 C 48.503906 25.203125 55.59375 32.292969 55.59375 41.03125 C 55.59375 49.769531 48.503906 56.863281 39.765625 56.863281 C 31.027344 56.863281 23.933594 49.769531 23.933594 41.03125 C 23.933594 40.839844 23.933594 40.652344 23.933594 40.398438 L 22.984375 40.335938 C 22.984375 40.523438 22.984375 40.777344 22.984375 40.96875 C 22.984375 50.214844 30.519531 57.75 39.765625 57.75 C 49.011719 57.75 56.546875 50.214844 56.546875 40.96875 C 56.546875 31.785156 49.011719 24.25 39.765625 24.25 Z M 39.765625 24.25 "/>
<path style=" stroke:none;fill-rule:nonzero;fill:rgb(13.72549%,12.156863%,12.54902%);fill-opacity:1;" d="M 32.484375 26.972656 L 32.039062 26.152344 C 31.851562 26.277344 31.660156 26.339844 31.46875 26.46875 L 31.914062 27.292969 C 32.101562 27.164062 32.292969 27.101562 32.484375 26.972656 Z M 32.484375 26.972656 "/>
<path style=" stroke:none;fill-rule:nonzero;fill:rgb(13.72549%,12.156863%,12.54902%);fill-opacity:1;" d="M 34.128906 26.214844 L 33.8125 25.328125 C 33.625 25.390625 33.433594 25.519531 33.179688 25.582031 L 33.558594 26.46875 C 33.75 26.40625 33.941406 26.339844 34.128906 26.214844 Z M 34.128906 26.214844 "/>
<path style=" stroke:none;fill-rule:nonzero;fill:rgb(13.72549%,12.156863%,12.54902%);fill-opacity:1;" d="M 30.898438 27.925781 L 30.394531 27.164062 C 30.203125 27.292969 30.015625 27.417969 29.886719 27.542969 L 30.457031 28.304688 C 30.519531 28.175781 30.710938 28.050781 30.898438 27.925781 Z M 30.898438 27.925781 "/>
<path style=" stroke:none;fill-rule:nonzero;fill:rgb(13.72549%,12.156863%,12.54902%);fill-opacity:1;" d="M 39.574219 25.203125 L 39.574219 24.25 C 39.386719 24.25 39.132812 24.25 38.941406 24.25 L 39.003906 25.203125 C 39.132812 25.203125 39.320312 25.203125 39.574219 25.203125 Z M 39.574219 25.203125 "/>
<path style=" stroke:none;fill-rule:nonzero;fill:rgb(13.72549%,12.156863%,12.54902%);fill-opacity:1;" d="M 35.902344 25.707031 L 35.648438 24.757812 C 35.460938 24.820312 35.207031 24.886719 35.015625 24.949219 L 35.269531 25.835938 C 35.523438 25.769531 35.710938 25.707031 35.902344 25.707031 Z M 35.902344 25.707031 "/>
<path style=" stroke:none;fill-rule:nonzero;fill:rgb(13.72549%,12.156863%,12.54902%);fill-opacity:1;" d="M 37.675781 25.328125 L 37.550781 24.378906 C 37.359375 24.378906 37.105469 24.441406 36.914062 24.503906 L 37.105469 25.453125 C 37.296875 25.390625 37.484375 25.390625 37.675781 25.328125 Z M 37.675781 25.328125 "/>
<path style=" stroke:none;fill-rule:nonzero;fill:rgb(13.72549%,12.156863%,12.54902%);fill-opacity:1;" d="M 29.445312 29.0625 L 28.8125 28.367188 C 28.621094 28.496094 28.496094 28.683594 28.304688 28.8125 L 28.9375 29.507812 C 29.128906 29.316406 29.253906 29.191406 29.445312 29.0625 Z M 29.445312 29.0625 "/>
<path style=" stroke:none;fill-rule:nonzero;fill:rgb(13.72549%,12.156863%,12.54902%);fill-opacity:1;" d="M 25.136719 35.015625 L 24.25 34.636719 C 24.1875 34.828125 24.0625 35.015625 24 35.269531 L 24.886719 35.585938 C 25.011719 35.394531 25.074219 35.207031 25.136719 35.015625 Z M 25.136719 35.015625 "/>
<path style=" stroke:none;fill-rule:nonzero;fill:rgb(13.72549%,12.156863%,12.54902%);fill-opacity:1;" d="M 28.113281 30.332031 L 27.417969 29.699219 C 27.292969 29.886719 27.101562 30.015625 26.972656 30.203125 L 27.671875 30.835938 C 27.859375 30.648438 27.988281 30.519531 28.113281 30.332031 Z M 28.113281 30.332031 "/>
<path style=" stroke:none;fill-rule:nonzero;fill:rgb(13.72549%,12.156863%,12.54902%);fill-opacity:1;" d="M 24.1875 38.5625 L 23.238281 38.433594 C 23.175781 38.625 23.175781 38.878906 23.175781 39.070312 L 24.125 39.195312 C 24.125 38.941406 24.125 38.753906 24.1875 38.5625 Z M 24.1875 38.5625 "/>
<path style=" stroke:none;fill-rule:nonzero;fill:rgb(13.72549%,12.156863%,12.54902%);fill-opacity:1;" d="M 24.566406 36.726562 L 23.683594 36.472656 C 23.617188 36.664062 23.554688 36.914062 23.492188 37.105469 L 24.441406 37.296875 C 24.441406 37.167969 24.503906 36.914062 24.566406 36.726562 Z M 24.566406 36.726562 "/>
<path style=" stroke:none;fill-rule:nonzero;fill:rgb(13.72549%,12.156863%,12.54902%);fill-opacity:1;" d="M 25.960938 33.371094 L 25.136719 32.925781 C 25.011719 33.117188 24.949219 33.304688 24.820312 33.496094 L 25.644531 33.941406 C 25.769531 33.6875 25.835938 33.496094 25.960938 33.371094 Z M 25.960938 33.371094 "/>
<path style=" stroke:none;fill-rule:nonzero;fill:rgb(13.72549%,12.156863%,12.54902%);fill-opacity:1;" d="M 26.972656 31.785156 L 26.214844 31.21875 C 26.089844 31.40625 25.960938 31.597656 25.835938 31.722656 L 26.59375 32.292969 C 26.722656 32.101562 26.847656 31.976562 26.972656 31.785156 Z M 26.972656 31.785156 "/>
<path style=" stroke:none;fill-rule:nonzero;fill:rgb(51.764706%,85.882353%,100%);fill-opacity:1;" d="M 53.503906 41.03125 C 53.503906 48.621094 47.355469 54.773438 39.765625 54.773438 C 32.175781 54.773438 26.023438 48.621094 26.023438 41.03125 C 26.023438 33.441406 32.175781 27.292969 39.765625 27.292969 C 47.355469 27.292969 53.503906 33.441406 53.503906 41.03125 Z M 53.503906 41.03125 "/>
<path style=" stroke:none;fill-rule:nonzero;fill:rgb(100%,100%,100%);fill-opacity:1;" d="M 50.972656 41.476562 C 50.71875 41.476562 50.464844 41.285156 50.464844 40.96875 C 50.464844 37.359375 48.695312 34.003906 45.71875 32.039062 C 45.527344 31.914062 45.464844 31.597656 45.589844 31.40625 C 45.71875 31.21875 46.035156 31.152344 46.222656 31.28125 C 49.453125 33.433594 51.417969 37.105469 51.417969 41.03125 C 51.480469 41.285156 51.289062 41.476562 50.972656 41.476562 Z M 50.972656 41.476562 "/>
<path style=" stroke:none;fill-rule:nonzero;fill:rgb(100%,100%,100%);fill-opacity:1;" d="M 43.375 30.835938 C 43.3125 30.835938 43.246094 30.835938 43.246094 30.835938 C 42.171875 30.457031 41.03125 30.265625 39.828125 30.265625 C 39.574219 30.265625 39.320312 30.078125 39.320312 29.761719 C 39.320312 29.445312 39.511719 29.253906 39.828125 29.253906 C 41.09375 29.253906 42.363281 29.445312 43.566406 29.886719 C 43.816406 29.949219 43.945312 30.265625 43.882812 30.457031 C 43.753906 30.710938 43.566406 30.835938 43.375 30.835938 Z M 43.375 30.835938 "/>
<path style=" stroke:none;fill-rule:nonzero;fill:rgb(100%,100%,100%);fill-opacity:1;" d="M 19.4375 14.4375 C 19.4375 17.445312 17 19.882812 13.992188 19.882812 C 10.984375 19.882812 8.546875 17.445312 8.546875 14.4375 C 8.546875 11.429688 10.984375 8.992188 13.992188 8.992188 C 17 8.992188 19.4375 11.429688 19.4375 14.4375 Z M 19.4375 14.4375 "/>
<path style=" stroke:none;fill-rule:nonzero;fill:rgb(67.45098%,70.196078%,72.941176%);fill-opacity:1;" d="M 17.792969 14.4375 C 17.792969 16.535156 16.09375 18.234375 13.992188 18.234375 C 11.894531 18.234375 10.195312 16.535156 10.195312 14.4375 C 10.195312 12.339844 11.894531 10.636719 13.992188 10.636719 C 16.09375 10.636719 17.792969 12.339844 17.792969 14.4375 Z M 17.792969 14.4375 "/>
<path style=" stroke:none;fill-rule:nonzero;fill:rgb(100%,100%,100%);fill-opacity:1;" d="M 81.558594 51.859375 C 81.558594 54.867188 79.117188 57.304688 76.109375 57.304688 C 73.105469 57.304688 70.664062 54.867188 70.664062 51.859375 C 70.664062 48.851562 73.105469 46.414062 76.109375 46.414062 C 79.117188 46.414062 81.558594 48.851562 81.558594 51.859375 Z M 81.558594 51.859375 "/>
<path style=" stroke:none;fill-rule:nonzero;fill:rgb(100%,81.568627%,35.686275%);fill-opacity:1;" d="M 79.910156 51.859375 C 79.910156 53.957031 78.210938 55.660156 76.109375 55.660156 C 74.011719 55.660156 72.3125 53.957031 72.3125 51.859375 C 72.3125 49.761719 74.011719 48.058594 76.109375 48.058594 C 78.210938 48.058594 79.910156 49.761719 79.910156 51.859375 Z M 79.910156 51.859375 "/>
<path style=" stroke:none;fill-rule:nonzero;fill:rgb(100%,100%,100%);fill-opacity:1;" d="M 17.285156 66.296875 C 17.285156 69.304688 14.847656 71.742188 11.839844 71.742188 C 8.832031 71.742188 6.394531 69.304688 6.394531 66.296875 C 6.394531 63.289062 8.832031 60.851562 11.839844 60.851562 C 14.847656 60.851562 17.285156 63.289062 17.285156 66.296875 Z M 17.285156 66.296875 "/>
<path style=" stroke:none;fill-rule:nonzero;fill:rgb(13.72549%,12.156863%,12.54902%);fill-opacity:1;" d="M 63.890625 45.589844 L 63.003906 45.90625 L 63.195312 46.476562 L 64.082031 46.160156 C 64.015625 45.96875 63.953125 45.78125 63.890625 45.589844 Z M 63.890625 45.589844 "/>
<path style=" stroke:none;fill-rule:nonzero;fill:rgb(13.72549%,12.156863%,12.54902%);fill-opacity:1;" d="M 65.601562 54.960938 C 65.664062 55.152344 65.664062 55.34375 65.726562 55.59375 L 66.675781 55.40625 C 66.613281 55.214844 66.613281 54.960938 66.550781 54.773438 Z M 65.601562 54.960938 "/>
<path style=" stroke:none;fill-rule:nonzero;fill:rgb(13.72549%,12.156863%,12.54902%);fill-opacity:1;" d="M 62.308594 44.199219 L 62.5625 44.765625 L 63.445312 44.386719 L 63.195312 43.816406 Z M 62.308594 44.199219 "/>
<path style=" stroke:none;fill-rule:nonzero;fill:rgb(13.72549%,12.156863%,12.54902%);fill-opacity:1;" d="M 64.523438 47.363281 L 63.636719 47.679688 C 63.699219 47.871094 63.765625 48.058594 63.828125 48.25 L 64.714844 47.933594 C 64.714844 47.808594 64.585938 47.617188 64.523438 47.363281 Z M 64.523438 47.363281 "/>
<path style=" stroke:none;fill-rule:nonzero;fill:rgb(13.72549%,12.156863%,12.54902%);fill-opacity:1;" d="M 66.167969 52.871094 L 65.21875 53.0625 C 65.285156 53.253906 65.285156 53.441406 65.347656 53.695312 L 66.296875 53.503906 C 66.234375 53.316406 66.234375 53.125 66.167969 52.871094 Z M 66.167969 52.871094 "/>
<path style=" stroke:none;fill-rule:nonzero;fill:rgb(13.72549%,12.156863%,12.54902%);fill-opacity:1;" d="M 64.269531 49.515625 C 64.332031 49.707031 64.398438 49.898438 64.460938 50.085938 L 65.347656 49.832031 C 65.285156 49.644531 65.21875 49.453125 65.15625 49.199219 Z M 64.269531 49.515625 "/>
<path style=" stroke:none;fill-rule:nonzero;fill:rgb(13.72549%,12.156863%,12.54902%);fill-opacity:1;" d="M 65.664062 51.035156 L 64.777344 51.289062 C 64.839844 51.480469 64.902344 51.667969 64.964844 51.921875 L 65.917969 51.667969 C 65.789062 51.480469 65.726562 51.226562 65.664062 51.035156 Z M 65.664062 51.035156 "/>
<path style=" stroke:none;fill-rule:nonzero;fill:rgb(13.72549%,12.156863%,12.54902%);fill-opacity:1;" d="M 53 26.214844 L 52.621094 25.707031 L 51.859375 26.277344 L 52.238281 26.785156 Z M 53 26.214844 "/>
<path style=" stroke:none;fill-rule:nonzero;fill:rgb(13.72549%,12.156863%,12.54902%);fill-opacity:1;" d="M 59.332031 37.929688 L 60.21875 37.484375 L 59.902344 36.914062 L 59.078125 37.359375 Z M 59.332031 37.929688 "/>
<path style=" stroke:none;fill-rule:nonzero;fill:rgb(13.72549%,12.156863%,12.54902%);fill-opacity:1;" d="M 60.21875 39.574219 L 61.039062 39.195312 L 60.789062 38.625 L 59.964844 39.003906 Z M 60.21875 39.574219 "/>
<path style=" stroke:none;fill-rule:nonzero;fill:rgb(13.72549%,12.156863%,12.54902%);fill-opacity:1;" d="M 58.445312 36.28125 L 59.269531 35.777344 L 58.953125 35.269531 L 58.128906 35.710938 Z M 58.445312 36.28125 "/>
<path style=" stroke:none;fill-rule:nonzero;fill:rgb(13.72549%,12.156863%,12.54902%);fill-opacity:1;" d="M 55.53125 31.40625 L 56.292969 30.898438 L 55.976562 30.394531 L 55.152344 30.898438 Z M 55.53125 31.40625 "/>
<path style=" stroke:none;fill-rule:nonzero;fill:rgb(13.72549%,12.156863%,12.54902%);fill-opacity:1;" d="M 54.457031 29.824219 L 55.214844 29.316406 L 54.898438 28.8125 L 54.074219 29.316406 Z M 54.457031 29.824219 "/>
<path style=" stroke:none;fill-rule:nonzero;fill:rgb(13.72549%,12.156863%,12.54902%);fill-opacity:1;" d="M 53.378906 28.304688 L 54.140625 27.734375 L 53.757812 27.226562 L 53 27.796875 Z M 53.378906 28.304688 "/>
<path style=" stroke:none;fill-rule:nonzero;fill:rgb(13.72549%,12.156863%,12.54902%);fill-opacity:1;" d="M 56.546875 32.988281 L 57.304688 32.484375 L 56.988281 31.976562 L 56.164062 32.484375 Z M 56.546875 32.988281 "/>
<path style=" stroke:none;fill-rule:nonzero;fill:rgb(13.72549%,12.156863%,12.54902%);fill-opacity:1;" d="M 57.496094 34.636719 L 58.316406 34.128906 L 58 33.625 L 57.179688 34.066406 Z M 57.496094 34.636719 "/>
<path style=" stroke:none;fill-rule:nonzero;fill:rgb(13.72549%,12.156863%,12.54902%);fill-opacity:1;" d="M 36.410156 10.449219 C 36.21875 10.320312 36.03125 10.195312 35.839844 10.132812 L 35.332031 10.953125 C 35.523438 11.082031 35.710938 11.144531 35.839844 11.269531 Z M 36.410156 10.449219 "/>
<path style=" stroke:none;fill-rule:nonzero;fill:rgb(13.72549%,12.156863%,12.54902%);fill-opacity:1;" d="M 20.199219 7.472656 L 19.882812 6.585938 C 19.691406 6.648438 19.4375 6.710938 19.25 6.839844 L 19.628906 7.726562 C 19.820312 7.597656 20.007812 7.535156 20.199219 7.472656 Z M 20.199219 7.472656 "/>
<path style=" stroke:none;fill-rule:nonzero;fill:rgb(13.72549%,12.156863%,12.54902%);fill-opacity:1;" d="M 38.054688 11.523438 C 37.867188 11.398438 37.675781 11.269531 37.550781 11.144531 L 37.042969 11.902344 C 37.234375 12.03125 37.359375 12.15625 37.550781 12.285156 Z M 38.054688 11.523438 "/>
<path style=" stroke:none;fill-rule:nonzero;fill:rgb(13.72549%,12.156863%,12.54902%);fill-opacity:1;" d="M 21.972656 7.09375 L 21.84375 6.140625 C 21.65625 6.140625 21.402344 6.207031 21.210938 6.269531 L 21.402344 7.21875 C 21.59375 7.15625 21.78125 7.09375 21.972656 7.09375 Z M 21.972656 7.09375 "/>
<path style=" stroke:none;fill-rule:nonzero;fill:rgb(13.72549%,12.156863%,12.54902%);fill-opacity:1;" d="M 25.769531 6.207031 C 25.582031 6.207031 25.328125 6.140625 25.136719 6.140625 L 25.011719 7.09375 C 25.203125 7.09375 25.390625 7.15625 25.644531 7.15625 Z M 25.769531 6.207031 "/>
<path style=" stroke:none;fill-rule:nonzero;fill:rgb(13.72549%,12.156863%,12.54902%);fill-opacity:1;" d="M 34.761719 9.5 C 34.574219 9.371094 34.382812 9.308594 34.191406 9.179688 L 33.75 10.003906 C 33.941406 10.132812 34.128906 10.195312 34.320312 10.320312 Z M 34.761719 9.5 "/>
<path style=" stroke:none;fill-rule:nonzero;fill:rgb(13.72549%,12.156863%,12.54902%);fill-opacity:1;" d="M 31.34375 7.789062 C 31.152344 7.726562 30.964844 7.597656 30.773438 7.535156 L 30.394531 8.421875 C 30.582031 8.484375 30.773438 8.546875 30.964844 8.675781 Z M 31.34375 7.789062 "/>
<path style=" stroke:none;fill-rule:nonzero;fill:rgb(13.72549%,12.156863%,12.54902%);fill-opacity:1;" d="M 27.671875 6.523438 C 27.480469 6.457031 27.226562 6.394531 27.039062 6.394531 L 26.847656 7.34375 C 27.039062 7.410156 27.226562 7.410156 27.480469 7.472656 Z M 27.671875 6.523438 "/>
<path style=" stroke:none;fill-rule:nonzero;fill:rgb(13.72549%,12.156863%,12.54902%);fill-opacity:1;" d="M 33.117188 8.613281 C 32.925781 8.484375 32.738281 8.421875 32.546875 8.359375 L 32.167969 9.246094 C 32.355469 9.308594 32.546875 9.433594 32.738281 9.5 Z M 33.117188 8.613281 "/>
<path style=" stroke:none;fill-rule:nonzero;fill:rgb(13.72549%,12.156863%,12.54902%);fill-opacity:1;" d="M 29.507812 7.09375 C 29.316406 7.027344 29.128906 6.964844 28.875 6.902344 L 28.621094 7.789062 C 28.8125 7.851562 29 7.914062 29.191406 7.976562 Z M 29.507812 7.09375 "/>
<path style=" stroke:none;fill-rule:nonzero;fill:rgb(13.72549%,12.156863%,12.54902%);fill-opacity:1;" d="M 23.617188 6.964844 L 23.808594 6.964844 L 23.808594 6.015625 L 23.617188 6.015625 C 23.492188 6.015625 23.300781 6.015625 23.175781 6.015625 L 23.238281 6.964844 C 23.300781 6.964844 23.492188 6.964844 23.617188 6.964844 Z M 23.617188 6.964844 "/>
<path style=" stroke:none;fill-rule:nonzero;fill:rgb(13.72549%,12.156863%,12.54902%);fill-opacity:1;" d="M 41.980469 15.765625 L 42.613281 15.070312 C 42.425781 14.945312 42.296875 14.816406 42.109375 14.628906 L 41.476562 15.324219 C 41.664062 15.511719 41.792969 15.640625 41.980469 15.765625 Z M 41.980469 15.765625 "/>
<path style=" stroke:none;fill-rule:nonzero;fill:rgb(13.72549%,12.156863%,12.54902%);fill-opacity:1;" d="M 44.765625 18.300781 L 45.402344 17.601562 L 44.957031 17.160156 L 44.324219 17.855469 Z M 44.765625 18.300781 "/>
<path style=" stroke:none;fill-rule:nonzero;fill:rgb(13.72549%,12.156863%,12.54902%);fill-opacity:1;" d="M 39.574219 12.664062 C 39.386719 12.539062 39.257812 12.410156 39.070312 12.285156 L 38.5 13.042969 C 38.6875 13.171875 38.816406 13.296875 39.003906 13.425781 Z M 39.574219 12.664062 "/>
<path style=" stroke:none;fill-rule:nonzero;fill:rgb(13.72549%,12.156863%,12.54902%);fill-opacity:1;" d="M 43.375 17.035156 L 44.007812 16.335938 L 43.566406 15.894531 L 42.929688 16.589844 Z M 43.375 17.035156 "/>
<path style=" stroke:none;fill-rule:nonzero;fill:rgb(13.72549%,12.156863%,12.54902%);fill-opacity:1;" d="M 46.097656 19.628906 L 46.792969 18.996094 L 46.351562 18.488281 L 45.652344 19.1875 Z M 46.097656 19.628906 "/>
<path style=" stroke:none;fill-rule:nonzero;fill:rgb(13.72549%,12.156863%,12.54902%);fill-opacity:1;" d="M 48.628906 22.414062 L 49.390625 21.78125 L 48.945312 21.277344 L 48.25 21.910156 Z M 48.628906 22.414062 "/>
<path style=" stroke:none;fill-rule:nonzero;fill:rgb(13.72549%,12.156863%,12.54902%);fill-opacity:1;" d="M 47.425781 21.023438 L 48.125 20.390625 C 47.996094 20.261719 47.808594 20.074219 47.679688 19.945312 L 46.984375 20.578125 C 47.109375 20.707031 47.238281 20.832031 47.425781 21.023438 Z M 47.425781 21.023438 "/>
<path style=" stroke:none;fill-rule:nonzero;fill:rgb(13.72549%,12.156863%,12.54902%);fill-opacity:1;" d="M 65.21875 35.964844 L 64.332031 35.585938 C 64.269531 35.777344 64.144531 35.964844 64.082031 36.15625 L 64.964844 36.535156 C 65.03125 36.347656 65.15625 36.15625 65.21875 35.964844 Z M 65.21875 35.964844 "/>
<path style=" stroke:none;fill-rule:nonzero;fill:rgb(13.72549%,12.156863%,12.54902%);fill-opacity:1;" d="M 66.613281 32.421875 L 65.726562 32.101562 C 65.664062 32.292969 65.601562 32.484375 65.535156 32.671875 L 66.421875 32.988281 C 66.488281 32.800781 66.550781 32.609375 66.613281 32.421875 Z M 66.613281 32.421875 "/>
<path style=" stroke:none;fill-rule:nonzero;fill:rgb(13.72549%,12.156863%,12.54902%);fill-opacity:1;" d="M 53.125 53.757812 L 53.886719 54.328125 L 54.265625 53.824219 L 53.570312 53.253906 Z M 53.125 53.757812 "/>
<path style=" stroke:none;fill-rule:nonzero;fill:rgb(13.72549%,12.156863%,12.54902%);fill-opacity:1;" d="M 52.367188 54.707031 L 51.921875 55.214844 L 52.621094 55.785156 L 53.0625 55.34375 Z M 52.367188 54.707031 "/>
<path style=" stroke:none;fill-rule:nonzero;fill:rgb(13.72549%,12.156863%,12.54902%);fill-opacity:1;" d="M 16.714844 73.515625 C 16.90625 73.640625 17.097656 73.703125 17.351562 73.769531 L 17.730469 72.882812 C 17.539062 72.820312 17.351562 72.691406 17.160156 72.628906 Z M 16.714844 73.515625 "/>
<path style=" stroke:none;fill-rule:nonzero;fill:rgb(13.72549%,12.156863%,12.54902%);fill-opacity:1;" d="M 54.328125 52.300781 L 55.089844 52.871094 L 55.46875 52.367188 L 54.707031 51.796875 Z M 54.328125 52.300781 "/>
<path style=" stroke:none;fill-rule:nonzero;fill:rgb(13.72549%,12.156863%,12.54902%);fill-opacity:1;" d="M 24.25 73.578125 L 24.378906 74.527344 C 24.566406 74.527344 24.820312 74.464844 25.011719 74.402344 L 24.886719 73.453125 C 24.695312 73.515625 24.441406 73.515625 24.25 73.578125 Z M 24.25 73.578125 "/>
<path style=" stroke:none;fill-rule:nonzero;fill:rgb(13.72549%,12.156863%,12.54902%);fill-opacity:1;" d="M 26.089844 73.261719 L 26.277344 74.210938 C 26.46875 74.148438 26.722656 74.085938 26.910156 74.085938 L 26.65625 73.136719 C 26.46875 73.136719 26.277344 73.199219 26.089844 73.261719 Z M 26.089844 73.261719 "/>
<path style=" stroke:none;fill-rule:nonzero;fill:rgb(13.72549%,12.156863%,12.54902%);fill-opacity:1;" d="M 20.453125 74.589844 C 20.640625 74.589844 20.894531 74.65625 21.085938 74.65625 L 21.148438 73.703125 C 20.960938 73.703125 20.769531 73.703125 20.515625 73.640625 Z M 20.453125 74.589844 "/>
<path style=" stroke:none;fill-rule:nonzero;fill:rgb(13.72549%,12.156863%,12.54902%);fill-opacity:1;" d="M 15.007812 72.4375 C 15.195312 72.566406 15.386719 72.691406 15.511719 72.820312 L 16.019531 72.058594 C 15.832031 71.933594 15.703125 71.804688 15.511719 71.679688 Z M 15.007812 72.4375 "/>
<path style=" stroke:none;fill-rule:nonzero;fill:rgb(13.72549%,12.156863%,12.54902%);fill-opacity:1;" d="M 18.554688 74.210938 C 18.742188 74.273438 18.996094 74.339844 19.1875 74.402344 L 19.375 73.453125 C 19.1875 73.386719 18.996094 73.386719 18.804688 73.324219 Z M 18.554688 74.210938 "/>
<path style=" stroke:none;fill-rule:nonzero;fill:rgb(13.72549%,12.156863%,12.54902%);fill-opacity:1;" d="M 22.414062 73.703125 L 22.414062 74.65625 C 22.605469 74.65625 22.859375 74.65625 23.046875 74.65625 L 22.984375 73.703125 C 22.859375 73.703125 22.605469 73.703125 22.414062 73.703125 Z M 22.414062 73.703125 "/>
<path style=" stroke:none;fill-rule:nonzero;fill:rgb(13.72549%,12.156863%,12.54902%);fill-opacity:1;" d="M 27.859375 72.753906 L 28.113281 73.640625 C 28.304688 73.578125 28.496094 73.515625 28.746094 73.453125 L 28.429688 72.566406 C 28.304688 72.628906 28.113281 72.691406 27.859375 72.753906 Z M 27.859375 72.753906 "/>
<path style=" stroke:none;fill-rule:nonzero;fill:rgb(13.72549%,12.156863%,12.54902%);fill-opacity:1;" d="M 36.347656 68.765625 L 36.851562 69.589844 C 37.042969 69.460938 37.234375 69.335938 37.421875 69.273438 L 36.914062 68.449219 C 36.726562 68.574219 36.535156 68.703125 36.347656 68.765625 Z M 36.347656 68.765625 "/>
<path style=" stroke:none;fill-rule:nonzero;fill:rgb(13.72549%,12.156863%,12.54902%);fill-opacity:1;" d="M 33.054688 70.601562 L 33.496094 71.425781 C 33.6875 71.300781 33.875 71.234375 34.066406 71.109375 L 33.625 70.285156 C 33.433594 70.414062 33.242188 70.539062 33.054688 70.601562 Z M 33.054688 70.601562 "/>
<path style=" stroke:none;fill-rule:nonzero;fill:rgb(13.72549%,12.156863%,12.54902%);fill-opacity:1;" d="M 34.761719 69.714844 L 35.207031 70.539062 C 35.394531 70.414062 35.585938 70.347656 35.777344 70.222656 L 35.269531 69.398438 C 35.078125 69.527344 34.890625 69.652344 34.761719 69.714844 Z M 34.761719 69.714844 "/>
<path style=" stroke:none;fill-rule:nonzero;fill:rgb(13.72549%,12.156863%,12.54902%);fill-opacity:1;" d="M 31.40625 71.425781 L 31.785156 72.3125 C 31.976562 72.25 32.167969 72.121094 32.355469 72.058594 L 31.976562 71.171875 C 31.785156 71.234375 31.597656 71.363281 31.40625 71.425781 Z M 31.40625 71.425781 "/>
<path style=" stroke:none;fill-rule:nonzero;fill:rgb(13.72549%,12.156863%,12.54902%);fill-opacity:1;" d="M 29.632812 72.121094 L 29.949219 73.007812 C 30.140625 72.945312 30.332031 72.882812 30.519531 72.753906 L 30.140625 71.867188 C 30.015625 71.996094 29.824219 72.058594 29.632812 72.121094 Z M 29.632812 72.121094 "/>
<path style=" stroke:none;fill-rule:nonzero;fill:rgb(13.72549%,12.156863%,12.54902%);fill-opacity:1;" d="M 65.917969 34.191406 L 65.03125 33.875 C 64.964844 34.066406 64.902344 34.257812 64.777344 34.445312 L 65.664062 34.828125 C 65.789062 34.574219 65.851562 34.382812 65.917969 34.191406 Z M 65.917969 34.191406 "/>
<path style=" stroke:none;fill-rule:nonzero;fill:rgb(13.72549%,12.156863%,12.54902%);fill-opacity:1;" d="M 49.390625 58 L 50.085938 58.632812 L 50.53125 58.191406 L 49.832031 57.558594 Z M 49.390625 58 "/>
<path style=" stroke:none;fill-rule:nonzero;fill:rgb(13.72549%,12.156863%,12.54902%);fill-opacity:1;" d="M 62.433594 42.042969 L 61.546875 42.425781 L 61.675781 42.742188 L 60.976562 42.363281 L 60.660156 42.929688 L 61.484375 43.375 L 61.800781 42.929688 L 61.800781 42.996094 L 62.6875 42.613281 Z M 62.433594 42.042969 "/>
<path style=" stroke:none;fill-rule:nonzero;fill:rgb(13.72549%,12.156863%,12.54902%);fill-opacity:1;" d="M 60.535156 45.019531 L 60.851562 44.449219 L 60.027344 44.007812 L 59.710938 44.515625 Z M 60.535156 45.019531 "/>
<path style=" stroke:none;fill-rule:nonzero;fill:rgb(13.72549%,12.156863%,12.54902%);fill-opacity:1;" d="M 45.335938 61.925781 L 45.96875 62.6875 L 46.476562 62.242188 L 45.84375 61.546875 Z M 45.335938 61.925781 "/>
<path style=" stroke:none;fill-rule:nonzero;fill:rgb(13.72549%,12.156863%,12.54902%);fill-opacity:1;" d="M 66.105469 30.898438 L 66.992188 31.21875 C 67.054688 31.027344 67.121094 30.835938 67.183594 30.582031 L 66.296875 30.332031 C 66.234375 30.519531 66.167969 30.710938 66.105469 30.898438 Z M 66.105469 30.898438 "/>
<path style=" stroke:none;fill-rule:nonzero;fill:rgb(13.72549%,12.156863%,12.54902%);fill-opacity:1;" d="M 50.65625 56.609375 L 51.351562 57.242188 L 51.796875 56.734375 L 51.101562 56.164062 Z M 50.65625 56.609375 "/>
<path style=" stroke:none;fill-rule:nonzero;fill:rgb(13.72549%,12.156863%,12.54902%);fill-opacity:1;" d="M 58.699219 46.097656 L 59.519531 46.667969 L 59.835938 46.097656 L 59.078125 45.589844 Z M 58.699219 46.097656 "/>
<path style=" stroke:none;fill-rule:nonzero;fill:rgb(13.72549%,12.156863%,12.54902%);fill-opacity:1;" d="M 39.511719 66.675781 L 40.019531 67.5 L 40.589844 67.121094 L 40.019531 66.359375 Z M 39.511719 66.675781 "/>
<path style=" stroke:none;fill-rule:nonzero;fill:rgb(13.72549%,12.156863%,12.54902%);fill-opacity:1;" d="M 42.488281 64.398438 L 43.121094 65.15625 L 43.566406 64.777344 L 42.996094 64.015625 Z M 42.488281 64.398438 "/>
<path style=" stroke:none;fill-rule:nonzero;fill:rgb(13.72549%,12.156863%,12.54902%);fill-opacity:1;" d="M 43.945312 63.195312 L 44.578125 63.953125 L 45.019531 63.511719 L 44.386719 62.8125 Z M 43.945312 63.195312 "/>
<path style=" stroke:none;fill-rule:nonzero;fill:rgb(13.72549%,12.156863%,12.54902%);fill-opacity:1;" d="M 55.847656 50.277344 L 55.46875 50.78125 L 56.230469 51.351562 L 56.609375 50.847656 Z M 55.847656 50.277344 "/>
<path style=" stroke:none;fill-rule:nonzero;fill:rgb(13.72549%,12.156863%,12.54902%);fill-opacity:1;" d="M 66.613281 29.0625 L 67.5 29.316406 C 67.5625 29.128906 67.625 28.875 67.691406 28.683594 L 66.738281 28.429688 C 66.738281 28.683594 66.675781 28.875 66.613281 29.0625 Z M 66.613281 29.0625 "/>
<path style=" stroke:none;fill-rule:nonzero;fill:rgb(13.72549%,12.156863%,12.54902%);fill-opacity:1;" d="M 61.039062 41.285156 L 61.738281 40.96875 C 61.675781 41.09375 61.609375 41.160156 61.546875 41.285156 L 62.371094 41.726562 C 62.496094 41.539062 62.5625 41.347656 62.6875 41.160156 L 61.863281 40.714844 C 61.863281 40.714844 61.800781 40.777344 61.800781 40.777344 L 61.546875 40.273438 L 60.789062 40.714844 Z M 61.039062 41.285156 "/>
<path style=" stroke:none;fill-rule:nonzero;fill:rgb(13.72549%,12.156863%,12.54902%);fill-opacity:1;" d="M 63.636719 39.449219 L 62.75 39.003906 L 62.496094 39.574219 L 63.320312 40.019531 Z M 63.636719 39.449219 "/>
<path style=" stroke:none;fill-rule:nonzero;fill:rgb(13.72549%,12.156863%,12.54902%);fill-opacity:1;" d="M 64.460938 37.738281 L 63.574219 37.296875 L 63.320312 37.867188 L 64.144531 38.308594 Z M 64.460938 37.738281 "/>
<path style=" stroke:none;fill-rule:nonzero;fill:rgb(13.72549%,12.156863%,12.54902%);fill-opacity:1;" d="M 41.03125 65.601562 L 41.601562 66.359375 L 42.109375 65.917969 L 41.539062 65.21875 Z M 41.03125 65.601562 "/>
<path style=" stroke:none;fill-rule:nonzero;fill:rgb(13.72549%,12.156863%,12.54902%);fill-opacity:1;" d="M 48.503906 58.886719 L 48.058594 59.332031 L 48.757812 60.027344 L 49.199219 59.585938 Z M 48.503906 58.886719 "/>
<path style=" stroke:none;fill-rule:nonzero;fill:rgb(13.72549%,12.156863%,12.54902%);fill-opacity:1;" d="M 57.683594 47.679688 L 58.445312 48.25 L 58.824219 47.679688 L 58 47.171875 Z M 57.683594 47.679688 "/>
<path style=" stroke:none;fill-rule:nonzero;fill:rgb(13.72549%,12.156863%,12.54902%);fill-opacity:1;" d="M 56.609375 49.261719 L 57.367188 49.769531 L 57.75 49.261719 L 56.988281 48.757812 Z M 56.609375 49.261719 "/>
<path style=" stroke:none;fill-rule:nonzero;fill:rgb(13.72549%,12.156863%,12.54902%);fill-opacity:1;" d="M 8.359375 48.820312 C 8.167969 48.695312 8.042969 48.566406 7.851562 48.441406 L 7.28125 49.199219 C 7.472656 49.328125 7.597656 49.453125 7.789062 49.578125 Z M 8.359375 48.820312 "/>
<path style=" stroke:none;fill-rule:nonzero;fill:rgb(13.72549%,12.156863%,12.54902%);fill-opacity:1;" d="M 1.265625 39.765625 L 0.378906 40.019531 C 0.441406 40.207031 0.507812 40.460938 0.570312 40.652344 L 1.457031 40.335938 C 1.394531 40.144531 1.328125 39.957031 1.265625 39.765625 Z M 1.265625 39.765625 "/>
<path style=" stroke:none;fill-rule:nonzero;fill:rgb(13.72549%,12.156863%,12.54902%);fill-opacity:1;" d="M 3.167969 45.148438 C 3.292969 45.335938 3.417969 45.464844 3.609375 45.652344 L 4.304688 45.019531 C 4.179688 44.894531 4.050781 44.703125 3.925781 44.515625 Z M 3.167969 45.148438 "/>
<path style=" stroke:none;fill-rule:nonzero;fill:rgb(13.72549%,12.156863%,12.54902%);fill-opacity:1;" d="M 0.949219 37.992188 L 0 38.054688 C 0 38.246094 0.0625 38.5 0.0625 38.6875 L 1.011719 38.5625 C 1.011719 38.371094 1.011719 38.183594 0.949219 37.992188 Z M 0.949219 37.992188 "/>
<path style=" stroke:none;fill-rule:nonzero;fill:rgb(13.72549%,12.156863%,12.54902%);fill-opacity:1;" d="M 2.785156 43.058594 L 1.964844 43.566406 C 2.089844 43.753906 2.214844 43.945312 2.34375 44.132812 L 3.167969 43.566406 C 3.039062 43.4375 2.914062 43.246094 2.785156 43.058594 Z M 2.785156 43.058594 "/>
<path style=" stroke:none;fill-rule:nonzero;fill:rgb(13.72549%,12.156863%,12.54902%);fill-opacity:1;" d="M 1.898438 41.476562 L 1.011719 41.855469 C 1.140625 42.042969 1.265625 42.234375 1.328125 42.425781 L 2.152344 41.980469 C 2.089844 41.855469 2.027344 41.664062 1.898438 41.476562 Z M 1.898438 41.476562 "/>
<path style=" stroke:none;fill-rule:nonzero;fill:rgb(13.72549%,12.156863%,12.54902%);fill-opacity:1;" d="M 6.902344 47.679688 C 6.710938 47.554688 6.585938 47.425781 6.457031 47.300781 L 5.824219 47.996094 C 6.015625 48.125 6.140625 48.25 6.332031 48.441406 Z M 6.902344 47.679688 "/>
<path style=" stroke:none;fill-rule:nonzero;fill:rgb(13.72549%,12.156863%,12.54902%);fill-opacity:1;" d="M 33.75 59.648438 L 34.382812 59.773438 L 34.574219 58.824219 L 33.941406 58.761719 Z M 33.75 59.648438 "/>
<path style=" stroke:none;fill-rule:nonzero;fill:rgb(13.72549%,12.156863%,12.54902%);fill-opacity:1;" d="M 35.648438 59.964844 L 36.28125 60.089844 L 36.410156 59.140625 L 35.777344 59.015625 Z M 35.648438 59.964844 "/>
<path style=" stroke:none;fill-rule:nonzero;fill:rgb(13.72549%,12.156863%,12.54902%);fill-opacity:1;" d="M 31.914062 59.332031 L 32.484375 59.457031 L 32.671875 58.507812 L 32.039062 58.382812 Z M 31.914062 59.332031 "/>
<path style=" stroke:none;fill-rule:nonzero;fill:rgb(13.72549%,12.156863%,12.54902%);fill-opacity:1;" d="M 43.246094 60.722656 L 43.882812 60.789062 L 43.945312 59.835938 L 43.3125 59.773438 Z M 43.246094 60.722656 "/>
<path style=" stroke:none;fill-rule:nonzero;fill:rgb(13.72549%,12.156863%,12.54902%);fill-opacity:1;" d="M 10.953125 50.59375 L 10.449219 51.417969 C 10.636719 51.542969 10.828125 51.667969 11.019531 51.734375 L 11.523438 50.910156 C 11.335938 50.847656 11.144531 50.71875 10.953125 50.59375 Z M 10.953125 50.59375 "/>
<path style=" stroke:none;fill-rule:nonzero;fill:rgb(13.72549%,12.156863%,12.54902%);fill-opacity:1;" d="M 37.550781 60.21875 L 38.183594 60.28125 L 38.308594 59.332031 L 37.675781 59.269531 Z M 37.550781 60.21875 "/>
<path style=" stroke:none;fill-rule:nonzero;fill:rgb(13.72549%,12.156863%,12.54902%);fill-opacity:1;" d="M 42.042969 59.710938 L 41.410156 59.648438 L 41.347656 60.597656 L 41.980469 60.660156 Z M 42.042969 59.710938 "/>
<path style=" stroke:none;fill-rule:nonzero;fill:rgb(13.72549%,12.156863%,12.54902%);fill-opacity:1;" d="M 40.144531 59.519531 L 39.511719 59.519531 L 39.449219 60.40625 L 40.082031 60.472656 Z M 40.144531 59.519531 "/>
<path style=" stroke:none;fill-rule:nonzero;fill:rgb(13.72549%,12.156863%,12.54902%);fill-opacity:1;" d="M 4.433594 46.605469 C 4.558594 46.730469 4.75 46.921875 4.875 47.046875 L 5.570312 46.351562 C 5.445312 46.222656 5.253906 46.035156 5.128906 45.90625 Z M 4.433594 46.605469 "/>
<path style=" stroke:none;fill-rule:nonzero;fill:rgb(13.72549%,12.156863%,12.54902%);fill-opacity:1;" d="M 62.054688 58.316406 L 62.242188 59.269531 C 62.433594 59.203125 62.6875 59.140625 62.878906 59.140625 L 62.625 58.191406 C 62.433594 58.191406 62.242188 58.253906 62.054688 58.316406 Z M 62.054688 58.316406 "/>
<path style=" stroke:none;fill-rule:nonzero;fill:rgb(13.72549%,12.156863%,12.54902%);fill-opacity:1;" d="M 63.890625 57.8125 L 64.144531 58.699219 C 64.332031 58.632812 64.585938 58.570312 64.777344 58.507812 L 64.523438 57.621094 C 64.269531 57.683594 64.082031 57.75 63.890625 57.8125 Z M 63.890625 57.8125 "/>
<path style=" stroke:none;fill-rule:nonzero;fill:rgb(13.72549%,12.156863%,12.54902%);fill-opacity:1;" d="M 50.847656 59.835938 L 50.910156 60.789062 L 51.542969 60.722656 L 51.480469 59.773438 Z M 50.847656 59.835938 "/>
<path style=" stroke:none;fill-rule:nonzero;fill:rgb(13.72549%,12.156863%,12.54902%);fill-opacity:1;" d="M 60.21875 58.699219 L 60.40625 59.648438 C 60.597656 59.585938 60.851562 59.585938 61.039062 59.519531 L 60.789062 58.570312 C 60.597656 58.632812 60.40625 58.632812 60.21875 58.699219 Z M 60.21875 58.699219 "/>
<path style=" stroke:none;fill-rule:nonzero;fill:rgb(13.72549%,12.156863%,12.54902%);fill-opacity:1;" d="M 26.277344 58.066406 L 26.910156 58.191406 L 27.164062 57.304688 L 26.53125 57.113281 Z M 26.277344 58.066406 "/>
<path style=" stroke:none;fill-rule:nonzero;fill:rgb(13.72549%,12.156863%,12.54902%);fill-opacity:1;" d="M 52.746094 59.710938 L 52.808594 60.660156 C 53 60.660156 53.253906 60.597656 53.441406 60.597656 L 53.378906 59.648438 C 53.125 59.648438 52.9375 59.710938 52.746094 59.710938 Z M 52.746094 59.710938 "/>
<path style=" stroke:none;fill-rule:nonzero;fill:rgb(13.72549%,12.156863%,12.54902%);fill-opacity:1;" d="M 24.441406 57.558594 L 25.074219 57.683594 L 25.328125 56.796875 L 24.757812 56.609375 Z M 24.441406 57.558594 "/>
<path style=" stroke:none;fill-rule:nonzero;fill:rgb(13.72549%,12.156863%,12.54902%);fill-opacity:1;" d="M 56.480469 59.332031 L 56.609375 60.28125 C 56.796875 60.28125 57.050781 60.21875 57.242188 60.21875 L 57.113281 59.269531 C 56.925781 59.269531 56.671875 59.269531 56.480469 59.332031 Z M 56.480469 59.332031 "/>
<path style=" stroke:none;fill-rule:nonzero;fill:rgb(13.72549%,12.156863%,12.54902%);fill-opacity:1;" d="M 54.582031 59.519531 L 54.707031 60.472656 L 55.34375 60.40625 L 55.214844 59.457031 Z M 54.582031 59.519531 "/>
<path style=" stroke:none;fill-rule:nonzero;fill:rgb(13.72549%,12.156863%,12.54902%);fill-opacity:1;" d="M 58.316406 59.015625 L 58.445312 59.964844 C 58.632812 59.902344 58.886719 59.902344 59.078125 59.835938 L 58.886719 58.886719 C 58.761719 58.953125 58.570312 59.015625 58.316406 59.015625 Z M 58.316406 59.015625 "/>
<path style=" stroke:none;fill-rule:nonzero;fill:rgb(13.72549%,12.156863%,12.54902%);fill-opacity:1;" d="M 19.058594 55.660156 C 19.25 55.722656 19.4375 55.785156 19.628906 55.910156 L 19.945312 55.027344 C 19.757812 54.960938 19.566406 54.898438 19.375 54.773438 Z M 19.058594 55.660156 "/>
<path style=" stroke:none;fill-rule:nonzero;fill:rgb(13.72549%,12.156863%,12.54902%);fill-opacity:1;" d="M 45.84375 59.902344 L 45.210938 59.835938 L 45.148438 60.789062 L 45.78125 60.851562 Z M 45.84375 59.902344 "/>
<path style=" stroke:none;fill-rule:nonzero;fill:rgb(13.72549%,12.156863%,12.54902%);fill-opacity:1;" d="M 17.285156 54.960938 L 17.855469 55.152344 L 18.234375 54.328125 L 17.601562 54.074219 Z M 17.285156 54.960938 "/>
<path style=" stroke:none;fill-rule:nonzero;fill:rgb(13.72549%,12.156863%,12.54902%);fill-opacity:1;" d="M 48.945312 59.902344 L 49.011719 60.851562 L 49.644531 60.789062 L 49.578125 59.835938 Z M 48.945312 59.902344 "/>
<path style=" stroke:none;fill-rule:nonzero;fill:rgb(13.72549%,12.156863%,12.54902%);fill-opacity:1;" d="M 14.375 53.570312 L 14.816406 52.746094 C 14.628906 52.683594 14.4375 52.554688 14.246094 52.492188 L 13.804688 53.316406 C 13.992188 53.378906 14.183594 53.503906 14.375 53.570312 Z M 14.375 53.570312 "/>
<path style=" stroke:none;fill-rule:nonzero;fill:rgb(13.72549%,12.156863%,12.54902%);fill-opacity:1;" d="M 16.082031 54.390625 L 16.464844 53.503906 C 16.273438 53.441406 16.082031 53.316406 15.894531 53.253906 L 15.511719 54.140625 C 15.703125 54.265625 15.894531 54.328125 16.082031 54.390625 Z M 16.082031 54.390625 "/>
<path style=" stroke:none;fill-rule:nonzero;fill:rgb(13.72549%,12.156863%,12.54902%);fill-opacity:1;" d="M 22.605469 56.988281 C 22.796875 57.050781 22.984375 57.113281 23.238281 57.179688 L 23.554688 56.292969 C 23.367188 56.230469 23.175781 56.164062 22.984375 56.101562 Z M 22.605469 56.988281 "/>
<path style=" stroke:none;fill-rule:nonzero;fill:rgb(13.72549%,12.156863%,12.54902%);fill-opacity:1;" d="M 9.371094 49.578125 L 8.863281 50.339844 C 9.054688 50.464844 9.246094 50.59375 9.371094 50.71875 L 9.878906 49.960938 C 9.75 49.832031 9.5625 49.707031 9.371094 49.578125 Z M 9.371094 49.578125 "/>
<path style=" stroke:none;fill-rule:nonzero;fill:rgb(13.72549%,12.156863%,12.54902%);fill-opacity:1;" d="M 20.832031 56.355469 C 21.023438 56.417969 21.210938 56.480469 21.402344 56.546875 L 21.71875 55.660156 C 21.527344 55.59375 21.339844 55.53125 21.148438 55.46875 Z M 20.832031 56.355469 "/>
<path style=" stroke:none;fill-rule:nonzero;fill:rgb(13.72549%,12.156863%,12.54902%);fill-opacity:1;" d="M 47.679688 59.902344 L 47.046875 59.902344 L 47.046875 60.34375 L 46.730469 60.660156 L 47.363281 61.359375 L 47.871094 60.914062 L 47.679688 60.789062 Z M 47.679688 59.902344 "/>
<path style=" stroke:none;fill-rule:nonzero;fill:rgb(13.72549%,12.156863%,12.54902%);fill-opacity:1;" d="M 79.277344 46.855469 C 79.339844 46.539062 79.402344 46.222656 79.46875 45.90625 C 80.101562 40.714844 76.554688 35.332031 69.398438 30.773438 C 64.269531 27.480469 57.75 24.949219 50.53125 23.238281 L 50.59375 23.175781 L 50.214844 22.667969 L 49.769531 23.046875 C 47.300781 22.480469 44.765625 22.035156 42.171875 21.71875 C 39.003906 21.339844 35.964844 21.148438 32.988281 21.085938 C 37.484375 16.84375 42.234375 13.359375 46.792969 11.144531 C 54.074219 7.597656 60.15625 7.28125 63.953125 10.257812 C 67.878906 13.359375 68.957031 19.566406 66.929688 27.734375 L 67.878906 27.988281 C 69.96875 19.4375 68.765625 12.855469 64.523438 9.5625 C 60.40625 6.332031 53.949219 6.585938 46.351562 10.320312 C 44.515625 11.207031 42.679688 12.285156 40.777344 13.550781 C 40.714844 13.488281 40.652344 13.425781 40.523438 13.359375 L 39.957031 14.058594 C 37.105469 16.019531 34.257812 18.425781 31.535156 21.085938 C 24.695312 21.148438 18.488281 22.097656 13.359375 23.808594 C 13.234375 22.542969 13.171875 21.339844 13.171875 20.199219 C 13.425781 20.199219 13.675781 20.261719 13.929688 20.261719 C 17.160156 20.261719 19.820312 17.601562 19.820312 14.375 C 19.820312 12.222656 18.679688 10.320312 16.96875 9.308594 C 17.285156 8.992188 17.601562 8.738281 17.984375 8.484375 C 18.171875 8.359375 18.300781 8.296875 18.488281 8.167969 L 18.046875 7.34375 C 17.855469 7.472656 17.667969 7.597656 17.476562 7.726562 C 16.96875 8.042969 16.527344 8.484375 16.082031 8.929688 C 15.449219 8.675781 14.691406 8.546875 13.929688 8.546875 C 10.699219 8.546875 8.042969 11.207031 8.042969 14.4375 C 8.042969 17.160156 9.878906 19.4375 12.347656 20.136719 C 12.347656 21.464844 12.410156 22.796875 12.601562 24.25 C 5.445312 26.847656 0.695312 30.964844 0.0625 36.09375 L 0.507812 36.15625 L 0.0625 36.09375 C 0.0625 36.28125 0 36.535156 0 36.726562 L 0.949219 36.789062 C 0.949219 36.597656 0.949219 36.410156 1.011719 36.21875 C 1.582031 31.46875 6.015625 27.609375 12.726562 25.136719 C 13.359375 29.761719 14.878906 34.828125 17.222656 40.082031 C 14.5 45.019531 12.601562 49.960938 11.523438 54.582031 C 11.019531 56.671875 10.765625 58.632812 10.699219 60.472656 C 7.976562 60.976562 5.890625 63.382812 5.890625 66.296875 C 5.890625 69.527344 8.546875 72.183594 11.777344 72.183594 C 15.007812 72.183594 17.667969 69.527344 17.667969 66.296875 C 17.667969 63.066406 15.007812 60.40625 11.777344 60.40625 C 11.714844 60.40625 11.652344 60.40625 11.585938 60.40625 C 11.652344 58.699219 11.902344 56.796875 12.347656 54.835938 C 13.359375 50.464844 15.132812 45.84375 17.601562 41.222656 C 19.25 44.703125 21.210938 48.3125 23.617188 51.796875 C 25.074219 53.949219 26.59375 56.039062 28.175781 58 L 28.050781 58.570312 L 28.683594 58.699219 L 28.683594 58.632812 C 31.597656 62.117188 34.699219 65.21875 37.867188 67.816406 L 38.371094 68.574219 C 38.433594 68.511719 38.5625 68.449219 38.625 68.386719 C 40.398438 69.777344 42.171875 70.980469 43.882812 72.058594 C 48.25 74.65625 52.300781 75.984375 55.847656 75.984375 C 58.128906 75.984375 60.21875 75.414062 61.925781 74.273438 C 66.105469 71.488281 67.878906 65.664062 66.929688 57.8125 C 68.640625 57.179688 70.160156 56.480469 71.550781 55.722656 C 72.628906 56.988281 74.210938 57.75 75.984375 57.75 C 79.214844 57.75 81.875 55.089844 81.875 51.859375 C 82 49.769531 80.921875 47.933594 79.277344 46.855469 Z M 8.992188 14.4375 C 8.992188 11.714844 11.207031 9.5 13.929688 9.5 C 16.652344 9.5 18.871094 11.714844 18.871094 14.4375 C 18.871094 17.160156 16.652344 19.375 13.929688 19.375 C 11.207031 19.375 8.992188 17.160156 8.992188 14.4375 Z M 16.78125 66.296875 C 16.78125 69.019531 14.5625 71.234375 11.839844 71.234375 C 9.117188 71.234375 6.902344 69.019531 6.902344 66.296875 C 6.902344 63.574219 9.117188 61.359375 11.839844 61.359375 C 14.5625 61.359375 16.78125 63.574219 16.78125 66.296875 Z M 13.550781 24.820312 C 18.363281 23.175781 24.1875 22.226562 30.648438 22.097656 C 28.558594 24.25 26.53125 26.53125 24.566406 29 C 21.972656 32.292969 19.691406 35.648438 17.792969 39.070312 C 15.578125 34.066406 14.183594 29.191406 13.550781 24.820312 Z M 66.929688 56.863281 C 66.867188 56.609375 66.867188 56.417969 66.804688 56.164062 L 65.851562 56.292969 C 65.917969 56.609375 65.917969 56.863281 65.980469 57.179688 C 65.726562 57.304688 65.410156 57.367188 65.15625 57.496094 L 65.472656 58.382812 C 65.726562 58.316406 65.917969 58.253906 66.167969 58.128906 C 66.992188 65.472656 65.410156 70.917969 61.546875 73.453125 C 57.496094 76.175781 51.480469 75.351562 44.515625 71.234375 C 39.703125 68.386719 34.828125 64.207031 30.394531 59.015625 L 30.648438 59.078125 L 30.835938 58.128906 L 30.203125 58 L 30.078125 58.632812 C 28.113281 56.355469 26.277344 53.886719 24.503906 51.226562 C 22.035156 47.554688 19.945312 43.816406 18.300781 40.144531 C 20.261719 36.597656 22.605469 33.054688 25.328125 29.632812 C 27.480469 26.910156 29.699219 24.441406 32.039062 22.164062 C 35.269531 22.164062 38.625 22.351562 42.042969 22.796875 C 45.210938 23.175781 48.25 23.746094 51.164062 24.441406 L 50.65625 24.820312 L 51.035156 25.328125 L 51.796875 24.757812 L 51.667969 24.566406 C 58.253906 26.214844 64.207031 28.621094 68.894531 31.660156 C 75.730469 36.03125 79.152344 41.09375 78.515625 45.90625 C 78.515625 46.097656 78.453125 46.289062 78.390625 46.476562 C 77.695312 46.160156 76.871094 45.96875 76.046875 45.96875 C 72.820312 45.96875 70.160156 48.628906 70.160156 51.859375 C 70.160156 53 70.476562 54.074219 71.046875 54.960938 C 69.84375 55.660156 68.449219 56.292969 66.929688 56.863281 Z M 76.109375 56.796875 C 73.386719 56.796875 71.171875 54.582031 71.171875 51.859375 C 71.171875 49.136719 73.386719 46.921875 76.109375 46.921875 C 78.832031 46.921875 81.050781 49.136719 81.050781 51.859375 C 81.050781 54.582031 78.832031 56.796875 76.109375 56.796875 Z M 76.109375 56.796875 "/>
<path style=" stroke:none;fill-rule:nonzero;fill:rgb(100%,43.921569%,34.509804%);fill-opacity:1;" d="M 15.640625 66.296875 C 15.640625 68.394531 13.9375 70.097656 11.839844 70.097656 C 9.742188 70.097656 8.042969 68.394531 8.042969 66.296875 C 8.042969 64.199219 9.742188 62.496094 11.839844 62.496094 C 13.9375 62.496094 15.640625 64.199219 15.640625 66.296875 Z M 15.640625 66.296875 "/>
<path style=" stroke:none;fill-rule:nonzero;fill:rgb(100%,43.921569%,34.509804%);fill-opacity:1;" d="M 42.042969 2.40625 C 42.042969 3.035156 41.535156 3.546875 40.90625 3.546875 C 40.277344 3.546875 39.765625 3.035156 39.765625 2.40625 C 39.765625 1.777344 40.277344 1.265625 40.90625 1.265625 C 41.535156 1.265625 42.042969 1.777344 42.042969 2.40625 Z M 42.042969 2.40625 "/>
<path style=" stroke:none;fill-rule:nonzero;fill:rgb(51.764706%,85.882353%,100%);fill-opacity:1;" d="M 70.414062 4.75 C 70.414062 5.796875 69.5625 6.648438 68.511719 6.648438 C 67.464844 6.648438 66.613281 5.796875 66.613281 4.75 C 66.613281 3.699219 67.464844 2.847656 68.511719 2.847656 C 69.5625 2.847656 70.414062 3.699219 70.414062 4.75 Z M 70.414062 4.75 "/>
<path style=" stroke:none;fill-rule:nonzero;fill:rgb(90.196078%,91.372549%,93.333333%);fill-opacity:1;" d="M 56.039062 67.121094 C 56.039062 68.167969 55.1875 69.019531 54.140625 69.019531 C 53.089844 69.019531 52.238281 68.167969 52.238281 67.121094 C 52.238281 66.070312 53.089844 65.21875 54.140625 65.21875 C 55.1875 65.21875 56.039062 66.070312 56.039062 67.121094 Z M 56.039062 67.121094 "/>
<path style=" stroke:none;fill-rule:nonzero;fill:rgb(100%,81.568627%,35.686275%);fill-opacity:1;" d="M 7.789062 37.867188 C 7.789062 38.636719 7.164062 39.257812 6.394531 39.257812 C 5.625 39.257812 5.003906 38.636719 5.003906 37.867188 C 5.003906 37.097656 5.625 36.472656 6.394531 36.472656 C 7.164062 36.472656 7.789062 37.097656 7.789062 37.867188 Z M 7.789062 37.867188 "/>
</g>
</svg>
