<?xml version="1.0" encoding="utf-8"?>
<!-- Generator: Adobe Illustrator 18.0.0, SVG Export Plug-In . SVG Version: 6.00 Build 0)  -->
<!DOCTYPE svg PUBLIC "-//W3C//DTD SVG 1.1//EN" "http://www.w3.org/Graphics/SVG/1.1/DTD/svg11.dtd">
<svg version="1.1" id="Layer_1" xmlns="http://www.w3.org/2000/svg" xmlns:xlink="http://www.w3.org/1999/xlink" x="0px" y="0px"
	 viewBox="0 0 129.5 129.5" enable-background="new 0 0 129.5 129.5" xml:space="preserve">
<g>
	<g>
		<path fill="#FFFFFF" d="M109.6,55.8c-1.2-6.9-3.8-13.2-7.7-18.7l6.6-7.9L99,19.8L91,26.3c-5.5-3.9-11.8-6.6-18.7-7.7l-1-10.3H58.1
			l-1,10.3c-6.9,1.2-13.2,3.8-18.7,7.7l-7.9-6.6l-9.4,9.4l6.6,7.9c-3.9,5.5-6.6,11.8-7.7,18.7l-10.3,1v13.4l10.3,1
			c1.2,6.9,3.8,13.2,7.7,18.7l-6.6,7.9l9.4,9.4l7.9-6.6c3.7,2.7,7.9,4.7,12.3,6.2h27.9c4.4-1.4,8.6-3.5,12.3-6.2l7.9,6.6l9.4-9.4
			l-6.6-7.9c3.9-5.5,6.6-11.8,7.7-18.7l10.3-1V56.7L109.6,55.8z"/>
		<path fill="#FFFFFF" d="M39.6,83.8c5,6.2,7.9,13.7,7.9,21.7v1.5H82v-1.4c0-7.9,2.9-15.5,7.9-21.7c4.5-5.6,7.2-12.6,7.2-20.4
			c0-18.7-15.8-33.7-34.8-32.3c-15.9,1.1-28.8,14-29.9,29.9C31.8,69.6,34.6,77.6,39.6,83.8z"/>
		<g>
			<circle fill="#FFD05B" cx="64.8" cy="63.4" r="24.9"/>
		</g>
		<g>
			<path fill="#231F20" d="M64.8,103.1l-0.4,0l0-1.5l0.4,0c0.2,0,0.4,0,0.6,0l0,1.5C65.2,103.1,65,103.1,64.8,103.1z M62.3,103
				c-0.3,0-0.7,0-1-0.1l0.1-1.5c0.3,0,0.7,0.1,1,0.1L62.3,103z M67.4,103l-0.1-1.5c0.3,0,0.7,0,1-0.1l0.1,1.5
				C68.1,102.9,67.8,102.9,67.4,103z M59.2,102.7c-0.3,0-0.7-0.1-1-0.2l0.2-1.5c0.3,0.1,0.7,0.1,1,0.2L59.2,102.7z M70.5,102.6
				l-0.2-1.5c0.3,0,0.7-0.1,1-0.2l0.3,1.5C71.2,102.5,70.8,102.6,70.5,102.6z M56.2,102.1c-0.3-0.1-0.7-0.2-1-0.2l0.4-1.5
				c0.3,0.1,0.6,0.2,1,0.2L56.2,102.1z M73.5,102.1l-0.3-1.5c0.3-0.1,0.6-0.2,1-0.2l0.4,1.5C74.2,101.9,73.9,102,73.5,102.1z
				 M53.2,101.3c-0.3-0.1-0.7-0.2-1-0.3l0.5-1.4c0.3,0.1,0.6,0.2,0.9,0.3L53.2,101.3z M76.5,101.3l-0.5-1.4c0.3-0.1,0.6-0.2,0.9-0.3
				l0.5,1.4C77.2,101.1,76.9,101.2,76.5,101.3z M50.2,100.3c-0.3-0.1-0.6-0.3-1-0.4l0.6-1.4c0.3,0.1,0.6,0.3,0.9,0.4L50.2,100.3z
				 M79.5,100.2l-0.6-1.4c0.3-0.1,0.6-0.2,0.9-0.4l0.6,1.4C80.1,100,79.8,100.1,79.5,100.2z M47.4,99.1c-0.3-0.1-0.6-0.3-0.9-0.5
				l0.7-1.3c0.3,0.2,0.6,0.3,0.9,0.4L47.4,99.1z M82.3,99l-0.7-1.4c0.3-0.1,0.6-0.3,0.9-0.5l0.7,1.3C82.9,98.7,82.6,98.8,82.3,99z
				 M44.7,97.6c-0.3-0.2-0.6-0.4-0.9-0.5l0.8-1.3c0.3,0.2,0.6,0.3,0.8,0.5L44.7,97.6z M85,97.5l-0.8-1.3c0.3-0.2,0.6-0.3,0.8-0.5
				l0.8,1.3C85.6,97.1,85.3,97.3,85,97.5z M42.1,96c-0.3-0.2-0.6-0.4-0.8-0.6l0.9-1.2c0.3,0.2,0.5,0.4,0.8,0.6L42.1,96z M87.6,95.8
				l-0.9-1.2c0.3-0.2,0.5-0.4,0.8-0.6l0.9,1.2C88.2,95.4,87.9,95.6,87.6,95.8z M39.6,94.1c-0.3-0.2-0.5-0.4-0.8-0.7l1-1.1
				c0.2,0.2,0.5,0.4,0.8,0.6L39.6,94.1z M90.1,93.9l-1-1.2c0.3-0.2,0.5-0.4,0.8-0.6l1,1.1C90.6,93.5,90.3,93.7,90.1,93.9z M37.3,92
				c-0.2-0.2-0.5-0.5-0.7-0.7l1.1-1.1c0.2,0.2,0.5,0.5,0.7,0.7L37.3,92z M92.4,91.9l-1.1-1.1c0.2-0.2,0.5-0.5,0.7-0.7l1.1,1.1
				C92.9,91.4,92.6,91.6,92.4,91.9z M35.2,89.8c-0.2-0.3-0.5-0.5-0.7-0.8l1.2-1c0.2,0.3,0.4,0.5,0.7,0.7L35.2,89.8z M94.5,89.6
				l-1.1-1c0.2-0.2,0.4-0.5,0.6-0.8l1.2,1C94.9,89.1,94.7,89.4,94.5,89.6z M33.2,87.4c-0.2-0.3-0.4-0.5-0.6-0.8l1.2-0.9
				c0.2,0.3,0.4,0.5,0.6,0.8L33.2,87.4z M96.4,87.2l-1.2-0.9c0.2-0.3,0.4-0.5,0.6-0.8l1.2,0.9C96.9,86.7,96.7,86.9,96.4,87.2z
				 M31.4,84.9c-0.2-0.3-0.4-0.6-0.5-0.9l1.3-0.8c0.2,0.3,0.3,0.6,0.5,0.8L31.4,84.9z M98.2,84.7l-1.3-0.8c0.2-0.3,0.4-0.6,0.5-0.8
				l1.3,0.8C98.6,84.1,98.4,84.4,98.2,84.7z M29.8,82.2c-0.2-0.3-0.3-0.6-0.5-0.9l1.4-0.7c0.2,0.3,0.3,0.6,0.5,0.9L29.8,82.2z
				 M99.8,82l-1.3-0.7c0.2-0.3,0.3-0.6,0.5-0.9l1.4,0.7C100.1,81.4,99.9,81.7,99.8,82z M28.5,79.4c-0.1-0.3-0.3-0.6-0.4-1l1.4-0.6
				c0.1,0.3,0.3,0.6,0.4,0.9L28.5,79.4z M101.1,79.2l-1.4-0.6c0.1-0.3,0.3-0.6,0.4-0.9l1.4,0.6C101.4,78.6,101.2,78.9,101.1,79.2z
				 M27.3,76.6c-0.1-0.3-0.2-0.7-0.3-1l1.4-0.5c0.1,0.3,0.2,0.6,0.3,0.9L27.3,76.6z M102.2,76.4l-1.4-0.5c0.1-0.3,0.2-0.6,0.3-0.9
				l1.4,0.5C102.5,75.7,102.3,76,102.2,76.4z M26.4,73.6c-0.1-0.3-0.2-0.7-0.3-1l1.5-0.4c0.1,0.3,0.2,0.6,0.2,1L26.4,73.6z
				 M103.1,73.4l-1.5-0.4c0.1-0.3,0.2-0.6,0.2-1l1.5,0.3C103.3,72.7,103.2,73.1,103.1,73.4z M25.8,70.6c-0.1-0.3-0.1-0.7-0.2-1
				l1.5-0.2c0.1,0.3,0.1,0.7,0.2,1L25.8,70.6z M103.8,70.4l-1.5-0.3c0.1-0.3,0.1-0.7,0.2-1l1.5,0.2C103.9,69.7,103.8,70,103.8,70.4z
				 M25.3,67.5c0-0.3-0.1-0.7-0.1-1l1.5-0.1c0,0.3,0.1,0.7,0.1,1L25.3,67.5z M104.2,67.3l-1.5-0.1c0-0.3,0.1-0.7,0.1-1l1.5,0.1
				C104.3,66.6,104.2,67,104.2,67.3z M25.1,64.4c0-0.3,0-0.7,0-1h1.5c0,0.3,0,0.7,0,1L25.1,64.4z M104.4,64.2l-1.5,0
				c0-0.3,0-0.5,0-0.8l0-0.2l1.5,0l0,0.2C104.4,63.7,104.4,64,104.4,64.2z M26.6,62.8l-1.5,0c0-0.3,0-0.7,0-1l1.5,0.1
				C26.6,62.2,26.6,62.5,26.6,62.8z M102.8,61.2c0-0.3,0-0.7-0.1-1l1.5-0.1c0,0.3,0.1,0.7,0.1,1L102.8,61.2z M26.8,59.9l-1.5-0.1
				c0-0.3,0.1-0.7,0.1-1l1.5,0.2C26.9,59.2,26.8,59.5,26.8,59.9z M102.5,58.3c0-0.3-0.1-0.7-0.1-1l1.5-0.2c0.1,0.3,0.1,0.7,0.2,1
				L102.5,58.3z M27.2,56.9l-1.5-0.3c0.1-0.3,0.1-0.7,0.2-1l1.5,0.3C27.3,56.3,27.2,56.6,27.2,56.9z M102,55.3
				c-0.1-0.3-0.1-0.6-0.2-1l1.5-0.4c0.1,0.3,0.2,0.7,0.2,1L102,55.3z M27.8,54l-1.5-0.4c0.1-0.3,0.2-0.7,0.3-1L28,53
				C28,53.4,27.9,53.7,27.8,54z M101.3,52.4c-0.1-0.3-0.2-0.6-0.3-0.9l1.4-0.5c0.1,0.3,0.2,0.7,0.3,1L101.3,52.4z M28.6,51.1
				l-1.4-0.5c0.1-0.3,0.2-0.7,0.3-1l1.4,0.5C28.9,50.5,28.7,50.8,28.6,51.1z M100.3,49.6c-0.1-0.3-0.2-0.6-0.4-0.9l1.4-0.6
				c0.1,0.3,0.3,0.6,0.4,1L100.3,49.6z M29.7,48.4l-1.4-0.6c0.1-0.3,0.3-0.6,0.4-0.9l1.4,0.6C30,47.8,29.8,48.1,29.7,48.4z
				 M99.1,46.9c-0.1-0.3-0.3-0.6-0.4-0.9l1.4-0.7c0.2,0.3,0.3,0.6,0.5,0.9L99.1,46.9z M31,45.7L29.6,45c0.2-0.3,0.3-0.6,0.5-0.9
				l1.3,0.7C31.3,45.1,31.1,45.4,31,45.7z M97.7,44.3c-0.2-0.3-0.3-0.6-0.5-0.9l1.3-0.8c0.2,0.3,0.4,0.6,0.5,0.9L97.7,44.3z
				 M32.5,43.1l-1.3-0.8c0.2-0.3,0.4-0.6,0.6-0.9l1.3,0.8C32.8,42.6,32.6,42.8,32.5,43.1z M96.1,41.8c-0.2-0.3-0.4-0.5-0.6-0.8
				l1.2-0.9c0.2,0.3,0.4,0.6,0.6,0.8L96.1,41.8z M34.1,40.7l-1.2-0.9c0.2-0.3,0.4-0.5,0.6-0.8l1.2,0.9
				C34.5,40.1,34.3,40.4,34.1,40.7z M94.3,39.4c-0.2-0.3-0.4-0.5-0.6-0.8l1.2-1c0.2,0.3,0.4,0.5,0.7,0.8L94.3,39.4z M36,38.4l-1.1-1
				c0.2-0.3,0.5-0.5,0.7-0.8l1.1,1C36.4,37.9,36.2,38.1,36,38.4z M92.4,37.1c-0.2-0.2-0.5-0.5-0.7-0.7l1.1-1.1
				c0.2,0.2,0.5,0.5,0.7,0.7L92.4,37.1z M38,36.2L37,35.1c0.2-0.2,0.5-0.5,0.7-0.7l1,1.1C38.5,35.7,38.3,36,38,36.2z M90.2,35.1
				c-0.2-0.2-0.5-0.4-0.7-0.7l1-1.2c0.3,0.2,0.5,0.4,0.8,0.7L90.2,35.1z M40.3,34.2l-1-1.2c0.3-0.2,0.5-0.4,0.8-0.7l0.9,1.2
				C40.8,33.8,40.5,34,40.3,34.2z M88,33.2c-0.3-0.2-0.5-0.4-0.8-0.6l0.9-1.2c0.3,0.2,0.6,0.4,0.8,0.6L88,33.2z M42.6,32.4l-0.9-1.2
				c0.3-0.2,0.6-0.4,0.8-0.6l0.9,1.3C43.1,32,42.9,32.2,42.6,32.4z M85.5,31.4c-0.3-0.2-0.6-0.4-0.8-0.5l0.8-1.3
				c0.3,0.2,0.6,0.4,0.9,0.6L85.5,31.4z M45.1,30.7l-0.8-1.3c0.3-0.2,0.6-0.4,0.9-0.5l0.7,1.3C45.7,30.4,45.4,30.6,45.1,30.7z
				 M83,29.9c-0.3-0.2-0.6-0.3-0.9-0.5l0.7-1.4c0.3,0.2,0.6,0.3,0.9,0.5L83,29.9z M47.7,29.3L47,27.9c0.3-0.2,0.6-0.3,0.9-0.5
				l0.6,1.4C48.3,29,48,29.1,47.7,29.3z M80.3,28.6c-0.3-0.1-0.6-0.3-0.9-0.4l0.6-1.4c0.3,0.1,0.6,0.3,0.9,0.4L80.3,28.6z
				 M50.4,28.1l-0.6-1.4c0.3-0.1,0.6-0.3,1-0.4l0.5,1.4C51,27.8,50.7,27.9,50.4,28.1z M77.6,27.5c-0.3-0.1-0.6-0.2-0.9-0.3l0.5-1.4
				c0.3,0.1,0.7,0.2,1,0.3L77.6,27.5z M53.2,27.1l-0.5-1.4c0.3-0.1,0.7-0.2,1-0.3l0.4,1.5C53.8,26.9,53.5,27,53.2,27.1z M74.7,26.6
				c-0.3-0.1-0.6-0.2-1-0.2l0.4-1.5c0.3,0.1,0.7,0.2,1,0.3L74.7,26.6z M56.1,26.3l-0.3-1.5c0.3-0.1,0.7-0.2,1-0.2l0.3,1.5
				C56.7,26.1,56.4,26.2,56.1,26.3z M71.8,25.9c-0.3-0.1-0.7-0.1-1-0.2l0.2-1.5c0.3,0.1,0.7,0.1,1,0.2L71.8,25.9z M59,25.7l-0.2-1.5
				c0.3-0.1,0.7-0.1,1-0.1l0.2,1.5C59.7,25.6,59.3,25.7,59,25.7z M68.9,25.5c-0.3,0-0.7-0.1-1-0.1l0.1-1.5c0.3,0,0.7,0.1,1,0.1
				L68.9,25.5z M62,25.4l-0.1-1.5c0.3,0,0.7,0,1-0.1l0.1,1.5C62.6,25.3,62.3,25.4,62,25.4z M65.9,25.3c-0.3,0-0.7,0-1,0l0-1.5
				c0.3,0,0.7,0,1,0L65.9,25.3z"/>
		</g>
		<g>
			<circle fill="#FF7058" cx="91.5" cy="4.9" r="2.3"/>
		</g>
		<g>
			<circle fill="#84DBFF" cx="2.3" cy="36.2" r="2.3"/>
		</g>
		<g>
			<circle fill="#84DBFF" cx="126.9" cy="79.3" r="2.6"/>
		</g>
		<g>
			<circle fill="#E6E9EE" cx="116.8" cy="40" r="0.1"/>
		</g>
		<g>
			<g>
				<path fill="#231F20" d="M116.8,13.6c-0.2,0-0.4-0.1-0.5-0.2c-0.3-0.3-0.3-0.8,0-1.1l1.3-1.3c0.3-0.3,0.8-0.3,1.1,0
					c0.3,0.3,0.3,0.8,0,1.1l-1.3,1.3C117.2,13.5,117,13.6,116.8,13.6z"/>
			</g>
			<g>
				<path fill="#231F20" d="M112.8,17.7c-0.2,0-0.4-0.1-0.5-0.2c-0.3-0.3-0.3-0.8,0-1.1l1.3-1.3c0.3-0.3,0.8-0.3,1.1,0
					c0.3,0.3,0.3,0.8,0,1.1l-1.3,1.3C113.1,17.6,113,17.7,112.8,17.7z"/>
			</g>
			<g>
				<path fill="#231F20" d="M118.1,17.7c-0.2,0-0.4-0.1-0.5-0.2l-1.3-1.3c-0.3-0.3-0.3-0.8,0-1.1c0.3-0.3,0.8-0.3,1.1,0l1.3,1.3
					c0.3,0.3,0.3,0.8,0,1.1C118.5,17.6,118.3,17.7,118.1,17.7z"/>
			</g>
			<g>
				<path fill="#231F20" d="M114.1,13.6c-0.2,0-0.4-0.1-0.5-0.2l-1.3-1.3c-0.3-0.3-0.3-0.8,0-1.1c0.3-0.3,0.8-0.3,1.1,0l1.3,1.3
					c0.3,0.3,0.3,0.8,0,1.1C114.5,13.5,114.3,13.6,114.1,13.6z"/>
			</g>
		</g>
		<g>
			<g>
				<path fill="#231F20" d="M11.1,85.1c-0.2,0-0.4-0.1-0.5-0.2c-0.3-0.3-0.3-0.8,0-1.1l1.3-1.3c0.3-0.3,0.8-0.3,1.1,0
					c0.3,0.3,0.3,0.8,0,1.1l-1.3,1.3C11.5,85,11.3,85.1,11.1,85.1z"/>
			</g>
			<g>
				<path fill="#231F20" d="M7,89.2c-0.2,0-0.4-0.1-0.5-0.2c-0.3-0.3-0.3-0.8,0-1.1l1.3-1.3c0.3-0.3,0.8-0.3,1.1,0
					c0.3,0.3,0.3,0.8,0,1.1l-1.3,1.3C7.4,89.1,7.2,89.2,7,89.2z"/>
			</g>
			<g>
				<path fill="#231F20" d="M12.4,89.2c-0.2,0-0.4-0.1-0.5-0.2l-1.3-1.3c-0.3-0.3-0.3-0.8,0-1.1c0.3-0.3,0.8-0.3,1.1,0l1.3,1.3
					c0.3,0.3,0.3,0.8,0,1.1C12.8,89.1,12.6,89.2,12.4,89.2z"/>
			</g>
			<g>
				<path fill="#231F20" d="M8.3,85.1c-0.2,0-0.4-0.1-0.5-0.2l-1.3-1.3c-0.3-0.3-0.3-0.8,0-1.1c0.3-0.3,0.8-0.3,1.1,0l1.3,1.3
					c0.3,0.3,0.3,0.8,0,1.1C8.7,85,8.5,85.1,8.3,85.1z"/>
			</g>
		</g>
		<g>
			<g>
				<path fill="#231F20" d="M16.5,14.7c-0.2,0-0.4-0.1-0.5-0.2c-0.3-0.3-0.3-0.8,0-1.1l1.3-1.3c0.3-0.3,0.8-0.3,1.1,0
					c0.3,0.3,0.3,0.8,0,1.1L17,14.4C16.8,14.6,16.7,14.7,16.5,14.7z"/>
			</g>
			<g>
				<path fill="#231F20" d="M12.4,18.7c-0.2,0-0.4-0.1-0.5-0.2c-0.3-0.3-0.3-0.8,0-1.1l1.3-1.3c0.3-0.3,0.8-0.3,1.1,0
					c0.3,0.3,0.3,0.8,0,1.1l-1.3,1.3C12.8,18.7,12.6,18.7,12.4,18.7z"/>
			</g>
			<g>
				<path fill="#231F20" d="M17.8,18.7c-0.2,0-0.4-0.1-0.5-0.2l-1.3-1.3c-0.3-0.3-0.3-0.8,0-1.1c0.3-0.3,0.8-0.3,1.1,0l1.3,1.3
					c0.3,0.3,0.3,0.8,0,1.1C18.1,18.7,18,18.7,17.8,18.7z"/>
			</g>
			<g>
				<path fill="#231F20" d="M13.7,14.7c-0.2,0-0.4-0.1-0.5-0.2l-1.3-1.3c-0.3-0.3-0.3-0.8,0-1.1c0.3-0.3,0.8-0.3,1.1,0l1.3,1.3
					c0.3,0.3,0.3,0.8,0,1.1C14.1,14.6,13.9,14.7,13.7,14.7z"/>
			</g>
		</g>
		<path fill="#FF7058" d="M75.7,126.2h-22c-3.4,0-6.2-2.8-6.2-6.2v-4.7h34.4v4.7C81.8,123.4,79.1,126.2,75.7,126.2z"/>
		<g>
			<path fill="#231F20" d="M119.9,56l-9.7-0.9c-1.2-6.5-3.7-12.5-7.4-17.9l6.2-7.5c0.3-0.3,0.2-0.7,0-1l-9.4-9.4
				c-0.3-0.3-0.7-0.3-1,0L91,25.4c-5.4-3.7-11.4-6.2-17.9-7.4l-0.9-9.7c0-0.4-0.4-0.7-0.8-0.7H58.1c-0.4,0-0.7,0.3-0.8,0.7L56.4,18
				c-6.5,1.2-12.5,3.7-17.9,7.4L31,19.2c-0.3-0.2-0.7-0.2-1,0l-9.4,9.4c-0.3,0.3-0.3,0.7,0,1l6.2,7.5c-3.7,5.4-6.2,11.4-7.4,17.9
				L9.6,56c-0.4,0-0.7,0.4-0.7,0.8v13.4c0,0.4,0.3,0.7,0.7,0.8l9.7,0.9c1.2,6.5,3.7,12.5,7.4,17.9l-6.2,7.5c-0.3,0.3-0.2,0.7,0,1
				l9.4,9.4c0.3,0.3,0.7,0.3,1,0l7.5-6.2c2.6,1.8,5.3,3.3,8.2,4.5v0.2h-1.6v1.5h39.3v-1.5h-1.6v-0.2c2.9-1.2,5.7-2.7,8.2-4.5
				l7.5,6.2c0.1,0.1,0.3,0.2,0.5,0.2c0.2,0,0.4-0.1,0.5-0.2l9.4-9.4c0.3-0.3,0.3-0.7,0-1l-6.2-7.5c3.7-5.4,6.2-11.4,7.4-17.9
				l9.7-0.9c0.4,0,0.7-0.4,0.7-0.8V56.7C120.6,56.3,120.3,56,119.9,56z M81.3,104.9c-0.9,0.3-1.8,0.7-2.7,1H50.9
				c-0.9-0.3-1.8-0.6-2.7-1c-0.1-7.7-3-15.3-8.1-21.6c-5.1-6.3-7.5-14.2-7-22.3C34.3,45.5,46.9,33,62.4,31.9
				c0.8-0.1,1.6-0.1,2.3-0.1c17.4,0,31.6,14.2,31.6,31.6c0,7.2-2.5,14.3-7,19.9C84.3,89.6,81.4,97.2,81.3,104.9z M119,69.4l-9.6,0.9
				c-0.3,0-0.6,0.3-0.7,0.6c-1.1,6.7-3.7,12.9-7.6,18.4c-0.2,0.3-0.2,0.7,0,0.9l6.1,7.4l-8.5,8.5l-7.4-6.1c-0.1-0.1-0.3-0.2-0.5-0.2
				c-0.2,0-0.3,0-0.4,0.1c-2.4,1.7-5.1,3.2-7.8,4.4c0.3-7.1,3-14.2,7.7-20c4.8-5.9,7.4-13.3,7.4-20.8c0-18.3-14.9-33.2-33.2-33.2
				c-0.8,0-1.6,0-2.4,0.1C46,31.5,32.9,44.7,31.7,60.9c-0.6,8.5,2,16.8,7.3,23.3c4.7,5.9,7.5,12.9,7.7,20c-2.8-1.2-5.4-2.7-7.8-4.4
				c-0.3-0.2-0.7-0.2-0.9,0l-7.4,6.1l-8.5-8.5l6.1-7.4c0.2-0.3,0.2-0.6,0-0.9c-3.9-5.5-6.5-11.7-7.6-18.4c-0.1-0.3-0.3-0.6-0.7-0.6
				l-9.6-0.9v-12l9.6-0.9c0.3,0,0.6-0.3,0.7-0.6c1.1-6.7,3.7-12.9,7.6-18.4c0.2-0.3,0.2-0.7,0-0.9l-6.1-7.4l8.5-8.5l7.4,6.1
				c0.3,0.2,0.6,0.2,0.9,0c5.5-3.9,11.7-6.5,18.4-7.6c0.3-0.1,0.6-0.3,0.6-0.7l0.9-9.6h12l0.9,9.6c0,0.3,0.3,0.6,0.6,0.7
				c6.7,1.1,12.9,3.7,18.4,7.6c0.3,0.2,0.7,0.2,0.9,0l7.4-6.1l8.5,8.5l-6.1,7.4c-0.2,0.3-0.2,0.6,0,0.9c3.9,5.5,6.5,11.7,7.6,18.4
				c0.1,0.3,0.3,0.6,0.7,0.6l9.6,0.9V69.4z"/>
			<rect x="45.1" y="108.9" fill="#231F20" width="39.3" height="1.5"/>
			<rect x="45.1" y="111.7" fill="#231F20" width="39.3" height="1.5"/>
			<path fill="#231F20" d="M45.1,114.5v1.5h1.6v3.9c0,3.9,3.2,7,7,7h21.8c3.9,0,7-3.2,7-7v-3.9h1.8v-1.5H45.1z M81.1,119.9
				c0,3-2.5,5.5-5.5,5.5H53.8c-3,0-5.5-2.5-5.5-5.5v-3.9h32.8V119.9z"/>
		</g>
		<g>
			<rect x="64" y="42.3" fill="#231F20" width="1.5" height="2.4"/>
		</g>
		<g>
			<rect x="64" y="82.2" fill="#231F20" width="1.5" height="2.4"/>
		</g>
		<g>
			
				<rect x="53.6" y="45.4" transform="matrix(0.4999 0.8661 -0.8661 0.4999 67.346 -24.3688)" fill="#231F20" width="2.4" height="1.5"/>
		</g>
		<g>
			<rect x="73.5" y="79.9" transform="matrix(0.5 0.866 -0.866 0.5 107.2416 -24.3705)" fill="#231F20" width="2.4" height="1.5"/>
		</g>
		<g>
			<rect x="46.3" y="52.7" transform="matrix(0.866 0.5 -0.5 0.866 33.0747 -16.576)" fill="#231F20" width="2.4" height="1.5"/>
		</g>
		<g>
			<rect x="80.8" y="72.6" transform="matrix(0.866 0.5 -0.5 0.866 47.6885 -31.1848)" fill="#231F20" width="2.4" height="1.5"/>
		</g>
		<g>
			
				<rect x="46.7" y="72.2" transform="matrix(0.5001 0.866 -0.866 0.5001 87.2834 -4.4202)" fill="#231F20" width="1.5" height="2.4"/>
		</g>
		<g>
			
				<rect x="81.3" y="52.2" transform="matrix(0.5001 0.866 -0.866 0.5001 87.2819 -44.3237)" fill="#231F20" width="1.5" height="2.4"/>
		</g>
		<g>
			
				<rect x="54" y="79.5" transform="matrix(0.866 0.5001 -0.5001 0.866 47.691 -16.5771)" fill="#231F20" width="1.5" height="2.4"/>
		</g>
		<g>
			<rect x="74" y="44.9" transform="matrix(0.866 0.5 -0.5 0.866 33.0801 -31.1849)" fill="#231F20" width="1.5" height="2.4"/>
		</g>
		<g>
			
				<rect x="60.4" y="42.6" transform="matrix(0.1738 0.9848 -0.9848 0.1738 93.2505 -24.4737)" fill="#231F20" width="1.5" height="1.5"/>
		</g>
		<g>
			
				<rect x="67.5" y="82.7" transform="matrix(0.1738 0.9848 -0.9848 0.1738 138.6307 1.721)" fill="#231F20" width="1.5" height="1.5"/>
		</g>
		<g>
			
				<rect x="57" y="43.5" transform="matrix(0.3421 0.9397 -0.9397 0.3421 79.6006 -25.1756)" fill="#231F20" width="1.5" height="1.5"/>
		</g>
		<g>
			
				<rect x="71" y="81.8" transform="matrix(0.3419 0.9397 -0.9397 0.3419 124.7897 -13.0632)" fill="#231F20" width="1.5" height="1.5"/>
		</g>
		<g>
			
				<rect x="50.9" y="47" transform="matrix(0.6429 0.766 -0.766 0.6429 55.0562 -22.4917)" fill="#231F20" width="1.5" height="1.5"/>
		</g>
		<g>
			
				<rect x="77.1" y="78.3" transform="matrix(0.6427 0.7661 -0.7661 0.6427 88.3585 -31.4083)" fill="#231F20" width="1.5" height="1.5"/>
		</g>
		<g>
			
				<rect x="48.4" y="49.5" transform="matrix(0.7663 0.6425 -0.6425 0.7663 43.8071 -19.812)" fill="#231F20" width="1.5" height="1.5"/>
		</g>
		<g>
			
				<rect x="79.6" y="75.8" transform="matrix(0.766 0.6429 -0.6429 0.766 67.9932 -33.7579)" fill="#231F20" width="1.5" height="1.5"/>
		</g>
		<g>
			
				<rect x="44.8" y="55.7" transform="matrix(0.9398 0.3418 -0.3418 0.9398 22.0369 -12.1856)" fill="#231F20" width="1.5" height="1.5"/>
		</g>
		<g>
			
				<rect x="83.1" y="69.6" transform="matrix(0.9397 0.3421 -0.3421 0.9397 29.1369 -24.4552)" fill="#231F20" width="1.5" height="1.5"/>
		</g>
		<g>
			
				<rect x="43.9" y="59.1" transform="matrix(0.9848 0.1735 -0.1735 0.9848 11.0664 -6.844)" fill="#231F20" width="1.5" height="1.5"/>
		</g>
		<g>
			
				<rect x="84.1" y="66.2" transform="matrix(0.9848 0.1738 -0.1738 0.9848 12.9252 -13.7221)" fill="#231F20" width="1.5" height="1.5"/>
		</g>
		<g>
			
				<rect x="43.9" y="66.2" transform="matrix(0.1738 0.9848 -0.9848 0.1738 102.8451 11.32)" fill="#231F20" width="1.5" height="1.5"/>
		</g>
		<g>
			
				<rect x="84.1" y="59.1" transform="matrix(0.1732 0.9849 -0.9849 0.1732 129.0997 -34.0396)" fill="#231F20" width="1.5" height="1.5"/>
		</g>
		<g>
			
				<rect x="44.8" y="69.6" transform="matrix(0.3419 0.9397 -0.9397 0.3419 96.1468 3.47)" fill="#231F20" width="1.5" height="1.5"/>
		</g>
		<g>
			
				<rect x="83.1" y="55.7" transform="matrix(0.3419 0.9397 -0.9397 0.3419 108.2546 -41.7052)" fill="#231F20" width="1.5" height="1.5"/>
		</g>
		<g>
			
				<rect x="48.4" y="75.7" transform="matrix(0.6426 0.7662 -0.7662 0.6426 76.1884 -10.3013)" fill="#231F20" width="1.5" height="1.5"/>
		</g>
		<g>
			
				<rect x="79.6" y="49.5" transform="matrix(0.6426 0.7662 -0.7662 0.6426 67.2721 -43.5957)" fill="#231F20" width="1.5" height="1.5"/>
		</g>
		<g>
			
				<rect x="50.9" y="78.3" transform="matrix(0.7662 0.6426 -0.6426 0.7662 62.8523 -14.7137)" fill="#231F20" width="1.5" height="1.5"/>
		</g>
		<g>
			
				<rect x="77.1" y="47" transform="matrix(0.7662 0.6426 -0.6426 0.7662 48.9115 -38.8518)" fill="#231F20" width="1.5" height="1.5"/>
		</g>
		<g>
			
				<rect x="57" y="81.8" transform="matrix(0.9395 0.3424 -0.3424 0.9395 31.7652 -14.7935)" fill="#231F20" width="1.5" height="1.5"/>
		</g>
		<g>
			
				<rect x="71" y="43.5" transform="matrix(0.9397 0.3419 -0.3419 0.9397 19.4548 -21.8557)" fill="#231F20" width="1.5" height="1.5"/>
		</g>
		<g>
			
				<rect x="60.5" y="82.7" transform="matrix(0.9848 0.1738 -0.1738 0.9848 15.4364 -9.3656)" fill="#231F20" width="1.5" height="1.5"/>
		</g>
		<g>
			
				<rect x="67.5" y="42.6" transform="matrix(0.9848 0.1738 -0.1738 0.9848 8.5691 -11.2069)" fill="#231F20" width="1.5" height="1.5"/>
		</g>
		<g>
			<rect x="43.6" y="62.7" fill="#231F20" width="2.4" height="1.5"/>
		</g>
		<g>
			<rect x="83.5" y="62.7" fill="#231F20" width="2.4" height="1.5"/>
		</g>
		<circle fill="#FFFFFF" cx="64.8" cy="63.4" r="3"/>
		<path fill="#231F20" d="M65.5,59.7v-11H64v11c-1.5,0.3-2.6,1.5-2.9,2.9H50v1.5h11.1c0.4,1.7,1.9,3,3.7,3c2.1,0,3.8-1.7,3.8-3.8
			C68.5,61.6,67.2,60.1,65.5,59.7z M64.8,65.7c-1.2,0-2.2-1-2.2-2.2c0-1.2,1-2.2,2.2-2.2c1.2,0,2.2,1,2.2,2.2
			C67,64.6,66,65.7,64.8,65.7z"/>
	</g>
</g>
</svg>
