<?xml version="1.0" encoding="utf-8"?>
<!-- Generator: Adobe Illustrator 18.0.0, SVG Export Plug-In . SVG Version: 6.00 Build 0)  -->
<!DOCTYPE svg PUBLIC "-//W3C//DTD SVG 1.1//EN" "http://www.w3.org/Graphics/SVG/1.1/DTD/svg11.dtd">
<svg version="1.1" id="Layer_1" xmlns="http://www.w3.org/2000/svg" xmlns:xlink="http://www.w3.org/1999/xlink" x="0px" y="0px"
	 viewBox="0 0 129.5 129.5" enable-background="new 0 0 129.5 129.5" xml:space="preserve">
<g>
	<g>
		<path fill="#E6E9EE" d="M19.5,4.4c-2.5,0-4.8,1-6.4,2.7c-1.7,1.7-2.7,3.9-2.7,6.4c0,5,4.1,9.1,9.1,9.1v0h3.1V4.9
			C21.6,4.5,20.6,4.4,19.5,4.4z"/>
		<path fill="#FFFFFF" d="M10.4,13.5v87.9c0,5,4.1,9.1,9.1,9.1l107.6,0V31.7c0-5-4.1-9.1-9.1-9.1l-98.5,0v0
			C14.5,22.6,10.4,18.5,10.4,13.5z"/>
		<path fill="#FFD05B" d="M118,128.7c-1.1,0-2.1-0.2-3.1-0.5l0-87.9c1,0.3,2,0.5,3.1,0.5c5,0,9.1-4.1,9.1-9.1l0,87.9
			C127.1,124.7,123,128.7,118,128.7z"/>
		<rect x="44.6" y="118.8" fill="#FFFFFF" width="51.4" height="7.3"/>
		<polygon fill="#FFFFFF" points="44.6,126.1 36,122.4 44.6,118.8 		"/>
		<path fill="#FFFFFF" d="M104.2,125.1v-5.2c0-0.6-0.5-1.1-1.1-1.1H96v7.3h7.1C103.7,126.1,104.2,125.6,104.2,125.1z"/>
		<path fill="#231F20" d="M103.1,118H44.6c-0.1,0-0.2,0-0.3,0.1l0,0l-8.6,3.7c-0.3,0.1-0.5,0.4-0.5,0.7c0,0.3,0.2,0.6,0.5,0.7
			l8.6,3.7c0,0,0,0,0,0c0.1,0,0.2,0.1,0.3,0.1l58.5,0c1,0,1.8-0.8,1.8-1.8v-5.2C104.9,118.8,104.1,118,103.1,118z M95.3,121.7H45.4
			v-2.2h49.9V121.7z M43.9,119.9v5.1l-5.9-2.5L43.9,119.9z M45.4,123.2h49.9v2.2l-49.9,0V123.2z M103.4,125.1c0,0.2-0.1,0.3-0.3,0.3
			h-6.4v-5.8h6.4c0.2,0,0.3,0.1,0.3,0.3V125.1z"/>
		<g>
			<circle fill="#84DBFF" cx="89.6" cy="96" r="5.5"/>
		</g>
		<g>
			<circle fill="#84DBFF" cx="89.6" cy="68.4" r="5.5"/>
		</g>
		<g>
			<circle fill="#84DBFF" cx="68.7" cy="68.4" r="5.5"/>
		</g>
		<g>
			<circle fill="#84DBFF" cx="47.9" cy="68.4" r="5.5"/>
		</g>
		<g>
			<circle fill="#84DBFF" cx="47.9" cy="39.8" r="5.5"/>
		</g>
		<g>
			<path fill="#231F20" d="M90.4,88.8h-1.5v-1h1.5V88.8z M90.4,85.8h-1.5v-1h1.5V85.8z M90.4,82.8h-1.5v-1h1.5V82.8z M90.4,79.8
				h-1.5v-1h1.5V79.8z"/>
		</g>
		<g>
			<polygon fill="#231F20" points="86.4,80.4 85.3,79.4 89.6,75.1 93.9,79.4 92.8,80.4 89.6,77.2 			"/>
		</g>
		<g>
			<path fill="#231F20" d="M48.6,60.4h-1.5v-1h1.5V60.4z M48.6,57.4h-1.5v-1h1.5V57.4z M48.6,54.4h-1.5v-1h1.5V54.4z M48.6,51.4
				h-1.5v-1h1.5V51.4z"/>
		</g>
		<g>
			<polygon fill="#231F20" points="44.7,52.1 43.6,51 47.9,46.7 52.1,51 51.1,52.1 47.9,48.9 			"/>
		</g>
		<g>
			<path fill="#231F20" d="M90.4,56.6h-1.5v-1h1.5V56.6z M69.5,54.9H68v-1h1.5V54.9z M90.4,53.6h-1.5v-1h1.5V53.6z M69.5,51.9H68v-1
				h1.5V51.9z M88.9,50.6c0-0.3,0-0.6,0-0.9l1.5-0.1c0,0.4,0.1,0.7,0.1,1.1L88.9,50.6z M69.6,49l-1.5-0.2c0.1-0.4,0.1-0.7,0.2-1
				l1.4,0.4C69.7,48.4,69.7,48.7,69.6,49z M88.4,47.8c-0.1-0.3-0.2-0.6-0.3-0.9l1.4-0.6c0.1,0.3,0.3,0.7,0.4,1L88.4,47.8z
				 M70.5,46.4l-1.3-0.7c0.2-0.3,0.3-0.6,0.5-0.9l1.3,0.8C70.8,45.8,70.6,46.1,70.5,46.4z M87.3,45.3c-0.2-0.3-0.4-0.5-0.5-0.8
				l1.2-0.9c0.2,0.3,0.4,0.6,0.6,0.9L87.3,45.3z M72,44.1l-1.1-1c0.2-0.3,0.5-0.5,0.8-0.8l1,1.1C72.5,43.6,72.2,43.8,72,44.1z
				 M85.4,43.2c-0.2-0.2-0.5-0.4-0.7-0.6l0.9-1.2c0.3,0.2,0.6,0.4,0.8,0.7L85.4,43.2z M74.2,42.3L73.4,41c0.3-0.2,0.6-0.4,0.9-0.5
				l0.6,1.4C74.7,42,74.4,42.2,74.2,42.3z M83.1,41.8c-0.3-0.1-0.6-0.2-0.9-0.3l0.5-1.4c0.3,0.1,0.7,0.2,1,0.4L83.1,41.8z
				 M76.7,41.2l-0.4-1.5c0.3-0.1,0.7-0.2,1-0.2l0.2,1.5C77.3,41.1,77,41.2,76.7,41.2z M80.4,41c-0.3,0-0.6-0.1-0.9-0.1l0.1-1.5
				c0.4,0,0.7,0,1.1,0.1L80.4,41z"/>
		</g>
		<g>
			<polygon fill="#231F20" points="68.7,57.6 64.5,53.4 65.5,52.3 68.7,55.5 72,52.3 73,53.4 			"/>
		</g>
		<g>
			<path fill="#231F20" d="M58.7,96.5L58.6,95c0.3,0,0.6,0,0.9-0.1l0.2,1.5C59.4,96.4,59,96.5,58.7,96.5z M56.5,96.3
				c-0.4-0.1-0.7-0.1-1-0.2l0.4-1.5c0.3,0.1,0.6,0.1,0.9,0.2L56.5,96.3z M61.8,95.9l-0.5-1.4c0.3-0.1,0.6-0.2,0.9-0.3l0.6,1.4
				C62.5,95.7,62.2,95.8,61.8,95.9z M53.5,95.4c-0.3-0.2-0.6-0.3-0.9-0.5l0.8-1.3c0.3,0.2,0.5,0.3,0.8,0.4L53.5,95.4z M64.7,94.5
				l-0.9-1.2c0.3-0.2,0.5-0.4,0.7-0.6l1,1.1C65.3,94,65,94.3,64.7,94.5z M50.8,93.6c-0.3-0.2-0.5-0.5-0.8-0.8l1.1-1
				c0.2,0.2,0.4,0.4,0.7,0.7L50.8,93.6z M67,92.3l-1.2-0.9c0.2-0.2,0.4-0.5,0.5-0.8l1.3,0.8C67.5,91.7,67.3,92,67,92.3z M48.8,91.1
				c-0.2-0.3-0.4-0.6-0.5-0.9l1.3-0.7c0.1,0.3,0.3,0.5,0.4,0.8L48.8,91.1z M68.7,89.5l-1.4-0.6c0.1-0.3,0.2-0.6,0.3-0.9l1.4,0.4
				C68.9,88.8,68.8,89.2,68.7,89.5z M47.5,88.2c-0.1-0.3-0.2-0.7-0.2-1l1.5-0.2c0.1,0.3,0.1,0.6,0.2,0.9L47.5,88.2z M69.4,86.4
				l-1.5-0.1c0-0.3,0-0.6,0-0.9l1.5,0C69.5,85.7,69.5,86.1,69.4,86.4z M48.6,85h-1.5v-1h1.5V85z M69.5,83.3H68v-1h1.5V83.3z
				 M48.6,82h-1.5v-1h1.5V82z M69.5,80.3H68v-1h1.5V80.3z"/>
		</g>
		<g>
			<polygon fill="#231F20" points="51.1,83.6 47.9,80.4 44.7,83.6 43.6,82.5 47.9,78.3 52.1,82.5 			"/>
		</g>
		<rect x="2.4" y="39.8" fill="#FFFFFF" width="34.8" height="46"/>
		<g>
			<rect x="5.8" y="43.2" fill="#FF7058" width="28.1" height="9"/>
			<path fill="#231F20" d="M34.6,52.9H5V42.5h29.6V52.9z M6.5,51.4h26.6V44H6.5V51.4z"/>
		</g>
		<g>
			<rect x="27.4" y="55.9" fill="#FFFFFF" width="6.4" height="6.4"/>
			<path fill="#231F20" d="M34.6,63h-7.9v-7.9h7.9V63z M28.2,61.5h4.9v-4.9h-4.9V61.5z"/>
		</g>
		<g>
			<rect x="16.7" y="55.9" fill="#FFFFFF" width="6.4" height="6.4"/>
			<path fill="#231F20" d="M23.9,63H16v-7.9h7.9V63z M17.5,61.5h4.9v-4.9h-4.9V61.5z"/>
		</g>
		<g>
			<rect x="6.1" y="55.9" fill="#FFFFFF" width="6.4" height="6.4"/>
			<path fill="#231F20" d="M13.2,63H5.3v-7.9h7.9V63z M6.8,61.5h4.9v-4.9H6.8V61.5z"/>
		</g>
		<g>
			<rect x="27.4" y="66" fill="#FFFFFF" width="6.4" height="6.4"/>
			<path fill="#231F20" d="M34.6,73.1h-7.9v-7.9h7.9V73.1z M28.2,71.6h4.9v-4.9h-4.9V71.6z"/>
		</g>
		<g>
			<rect x="16.7" y="66" fill="#FFFFFF" width="6.4" height="6.4"/>
			<path fill="#231F20" d="M23.9,73.1H16v-7.9h7.9V73.1z M17.5,71.6h4.9v-4.9h-4.9V71.6z"/>
		</g>
		<g>
			<rect x="6.1" y="66" fill="#FFFFFF" width="6.4" height="6.4"/>
			<path fill="#231F20" d="M13.2,73.1H5.3v-7.9h7.9V73.1z M6.8,71.6h4.9v-4.9H6.8V71.6z"/>
		</g>
		<g>
			<rect x="27.4" y="76.1" fill="#FFFFFF" width="6.4" height="6.4"/>
			<path fill="#231F20" d="M34.6,83.2h-7.9v-7.9h7.9V83.2z M28.2,81.7h4.9v-4.9h-4.9V81.7z"/>
		</g>
		<g>
			<rect x="16.7" y="76.1" fill="#FFFFFF" width="6.4" height="6.4"/>
			<path fill="#231F20" d="M23.9,83.2H16v-7.9l7.9,0V83.2z M17.5,81.7h4.9v-4.9l-4.9,0V81.7z"/>
		</g>
		<g>
			<rect x="6.1" y="76.1" fill="#FFFFFF" width="6.4" height="6.4"/>
			<path fill="#231F20" d="M13.2,83.2H5.3v-7.9h7.9V83.2z M6.8,81.7h4.9v-4.9H6.8V81.7z"/>
		</g>
		<g>
			<g>
				<path fill="#231F20" d="M42.7,10c-0.2,0-0.4-0.1-0.5-0.2l-1.3-1.3c-0.3-0.3-0.3-0.8,0-1.1c0.3-0.3,0.8-0.3,1.1,0l1.3,1.3
					c0.3,0.3,0.3,0.8,0,1.1C43.1,9.9,42.9,10,42.7,10z"/>
			</g>
			<g>
				<path fill="#231F20" d="M46.9,14.1c-0.2,0-0.4-0.1-0.5-0.2L45,12.6c-0.3-0.3-0.3-0.8,0-1.1c0.3-0.3,0.8-0.3,1.1,0l1.3,1.3
					c0.3,0.3,0.3,0.8,0,1.1C47.3,14.1,47.1,14.1,46.9,14.1z"/>
			</g>
			<g>
				<path fill="#231F20" d="M41.4,14.1c-0.2,0-0.4-0.1-0.5-0.2c-0.3-0.3-0.3-0.8,0-1.1l1.3-1.3c0.3-0.3,0.8-0.3,1.1,0
					c0.3,0.3,0.3,0.8,0,1.1l-1.3,1.3C41.8,14.1,41.6,14.1,41.4,14.1z"/>
			</g>
			<g>
				<path fill="#231F20" d="M45.6,10c-0.2,0-0.4-0.1-0.5-0.2c-0.3-0.3-0.3-0.8,0-1.1l1.3-1.3c0.3-0.3,0.8-0.3,1.1,0
					c0.3,0.3,0.3,0.8,0,1.1l-1.3,1.3C45.9,9.9,45.7,10,45.6,10z"/>
			</g>
		</g>
		<g>
			<g>
				<path fill="#231F20" d="M11,117.5c-0.2,0-0.4-0.1-0.5-0.2L9.1,116c-0.3-0.3-0.3-0.8,0-1.1c0.3-0.3,0.8-0.3,1.1,0l1.3,1.3
					c0.3,0.3,0.3,0.8,0,1.1C11.4,117.4,11.2,117.5,11,117.5z"/>
			</g>
			<g>
				<path fill="#231F20" d="M15.2,121.7c-0.2,0-0.4-0.1-0.5-0.2l-1.3-1.3c-0.3-0.3-0.3-0.8,0-1.1c0.3-0.3,0.8-0.3,1.1,0l1.3,1.3
					c0.3,0.3,0.3,0.8,0,1.1C15.6,121.6,15.4,121.7,15.2,121.7z"/>
			</g>
			<g>
				<path fill="#231F20" d="M9.7,121.7c-0.2,0-0.4-0.1-0.5-0.2c-0.3-0.3-0.3-0.8,0-1.1l1.3-1.3c0.3-0.3,0.8-0.3,1.1,0
					c0.3,0.3,0.3,0.8,0,1.1l-1.3,1.3C10.1,121.6,9.9,121.7,9.7,121.7z"/>
			</g>
			<g>
				<path fill="#231F20" d="M13.9,117.5c-0.2,0-0.4-0.1-0.5-0.2c-0.3-0.3-0.3-0.8,0-1.1l1.3-1.3c0.3-0.3,0.8-0.3,1.1,0
					c0.3,0.3,0.3,0.8,0,1.1l-1.3,1.3C14.2,117.4,14,117.5,13.9,117.5z"/>
			</g>
		</g>
		<path fill="#FFFFFF" d="M58.6,0.7l50.9,50.9V0.7H58.6z M101.2,31.7L78.6,9h22.6V31.7z"/>
		<g>
			<path fill="#231F20" d="M127.9,31.7c0-5.4-4.4-9.9-9.9-9.9h-7.7V0.7c0-0.4-0.3-0.8-0.8-0.8H58.6c-0.3,0-0.6,0.2-0.7,0.5
				s-0.1,0.6,0.2,0.8l20.6,20.6l-55.3,0v-17c0-0.3-0.2-0.6-0.5-0.7c-1.1-0.4-2.2-0.6-3.3-0.6c-2.6,0-5.1,1-7,2.9
				c-1.9,1.9-2.9,4.3-2.9,7v25.6h-8v47.5h8v14.8c0,5.4,4.4,9.9,9.9,9.9l94.7,0v17c0,0.3,0.2,0.6,0.5,0.7c1.1,0.4,2.2,0.6,3.3,0.6
				c5.4,0,9.9-4.4,9.9-9.9L127.9,31.7z M60.4,1.5h7.1v2.3H69V1.5h3.6v3.6h1.5V1.5h3.6v2.3h1.5V1.5h3.6v3.6h1.5V1.5h3.6v2.3h1.5V1.5
				h3.6v3.6h1.5V1.5h3.6v2.3h1.5V1.5h3.6v2.3h1.5V1.5h4.4v6.3h-2.3v1.5h2.3v3.6h-3.6v1.5h3.6v3.6h-2.3v1.5h2.3v3.6h-3.6v1.5h3.6V28
				h-2.3v1.5h2.3V33h-3.6v1.5h3.6v3.6h-2.3v1.5h2.3v3.6h-2.3v1.5h2.3v5.2L60.4,1.5z M13.6,7.6c1.6-1.6,3.7-2.5,5.9-2.5
				c0.8,0,1.6,0.1,2.3,0.3v16.4h-2.1c-0.1,0-0.1,0-0.2,0c-4.6,0-8.4-3.8-8.4-8.4C11.1,11.2,12,9.1,13.6,7.6z M3.1,85.1V40.6h33.3
				v44.5H3.1z M114.5,39.7c-0.2,0.1-0.3,0.4-0.3,0.6v69.4l-94.7,0c-4.6,0-8.4-3.8-8.4-8.4V86.6h26.8V39.1H11.1V18.7
				c1.7,2.7,4.7,4.6,8.2,4.6c0.1,0,0.1,0,0.2,0l60.7,0L109,52.2c0.1,0.1,0.3,0.2,0.5,0.2c0.1,0,0.2,0,0.3-0.1
				c0.3-0.1,0.5-0.4,0.5-0.7V23.4h7.7c4.6,0,8.4,3.8,8.4,8.4v0.1c0,4.6-3.8,8.3-8.4,8.3c-1,0-1.9-0.2-2.8-0.5
				C114.9,39.5,114.7,39.6,114.5,39.7z M118,128c-0.8,0-1.6-0.1-2.3-0.3V41.3c0.8,0.2,1.5,0.3,2.3,0.3c3.5,0,6.6-1.9,8.4-4.6l0,82.7
				C126.4,124.2,122.6,128,118,128z"/>
			<path fill="#231F20" d="M101.2,8.3H78.6c-0.3,0-0.6,0.2-0.7,0.5c-0.1,0.3-0.1,0.6,0.2,0.8l22.6,22.6c0.1,0.1,0.3,0.2,0.5,0.2
				c0.1,0,0.2,0,0.3-0.1c0.3-0.1,0.5-0.4,0.5-0.7V9C102,8.6,101.6,8.3,101.2,8.3z M100.5,29.8L94,23.4l6.5,0V29.8z M100.5,21.9l-8,0
				L80.4,9.8h20.1V21.9z"/>
		</g>
		<g>
			<path fill="#231F20" d="M30.7,48.4h-1v-1.5h1V48.4z M27.7,48.4h-1v-1.5h1V48.4z M24.7,48.4h-1v-1.5h1V48.4z M21.7,48.4h-1v-1.5h1
				V48.4z M18.7,48.4h-1v-1.5h1V48.4z M15.7,48.4h-1v-1.5h1V48.4z M12.7,48.4h-1v-1.5h1V48.4z M9.7,48.4H8.9v-1.5h0.7V48.4z"/>
		</g>
	</g>
</g>
</svg>
