<?xml version="1.0" encoding="UTF-8"?>
<svg xmlns="http://www.w3.org/2000/svg" xmlns:xlink="http://www.w3.org/1999/xlink" width="200px" height="200px" viewBox="0 0 200 200" version="1.1">
<g id="surface1">
<path style=" stroke:none;fill-rule:nonzero;fill:rgb(13.72549%,12.156863%,12.54902%);fill-opacity:1;" d="M 16.523438 22.085938 C 16.214844 22.085938 15.90625 21.929688 15.753906 21.777344 C 15.289062 21.3125 15.289062 20.539062 15.753906 20.078125 L 17.761719 18.070312 C 18.222656 17.605469 18.996094 17.605469 19.460938 18.070312 C 19.921875 18.53125 19.921875 19.304688 19.460938 19.769531 L 17.453125 21.777344 C 17.144531 22.085938 16.832031 22.085938 16.523438 22.085938 Z M 16.523438 22.085938 "/>
<path style=" stroke:none;fill-rule:nonzero;fill:rgb(13.72549%,12.156863%,12.54902%);fill-opacity:1;" d="M 10.347656 28.261719 C 10.039062 28.261719 9.730469 28.109375 9.574219 27.953125 C 9.113281 27.492188 9.113281 26.71875 9.574219 26.253906 L 11.582031 24.246094 C 12.046875 23.785156 12.820312 23.785156 13.28125 24.246094 C 13.746094 24.710938 13.746094 25.484375 13.28125 25.945312 L 11.273438 27.953125 C 10.964844 28.261719 10.65625 28.261719 10.347656 28.261719 Z M 10.347656 28.261719 "/>
<path style=" stroke:none;fill-rule:nonzero;fill:rgb(13.72549%,12.156863%,12.54902%);fill-opacity:1;" d="M 18.53125 28.261719 C 18.222656 28.261719 17.914062 28.109375 17.761719 27.953125 L 15.753906 25.945312 C 15.289062 25.484375 15.289062 24.710938 15.753906 24.246094 C 16.214844 23.785156 16.988281 23.785156 17.453125 24.246094 L 19.460938 26.253906 C 19.921875 26.71875 19.921875 27.492188 19.460938 27.953125 C 19.152344 28.261719 18.839844 28.261719 18.53125 28.261719 Z M 18.53125 28.261719 "/>
<path style=" stroke:none;fill-rule:nonzero;fill:rgb(13.72549%,12.156863%,12.54902%);fill-opacity:1;" d="M 12.355469 22.085938 C 12.046875 22.085938 11.738281 21.929688 11.582031 21.777344 L 9.574219 19.769531 C 9.113281 19.304688 9.113281 18.53125 9.574219 18.070312 C 10.039062 17.605469 10.8125 17.605469 11.273438 18.070312 L 13.128906 20.078125 C 13.589844 20.539062 13.589844 21.3125 13.128906 21.777344 C 12.972656 22.085938 12.664062 22.085938 12.355469 22.085938 Z M 12.355469 22.085938 "/>
<path style=" stroke:none;fill-rule:nonzero;fill:rgb(13.72549%,12.156863%,12.54902%);fill-opacity:1;" d="M 101.929688 172.972656 C 101.621094 172.972656 101.3125 172.820312 101.160156 172.664062 C 100.695312 172.199219 100.695312 171.429688 101.160156 170.964844 L 103.167969 168.957031 C 103.628906 168.496094 104.402344 168.496094 104.863281 168.957031 C 105.328125 169.421875 105.328125 170.191406 104.863281 170.65625 L 102.855469 172.664062 C 102.546875 172.820312 102.238281 172.972656 101.929688 172.972656 Z M 101.929688 172.972656 "/>
<path style=" stroke:none;fill-rule:nonzero;fill:rgb(13.72549%,12.156863%,12.54902%);fill-opacity:1;" d="M 95.753906 179.152344 C 95.445312 179.152344 95.136719 178.996094 94.980469 178.839844 C 94.515625 178.378906 94.515625 177.605469 94.980469 177.144531 L 96.988281 175.136719 C 97.453125 174.671875 98.222656 174.671875 98.6875 175.136719 C 99.152344 175.597656 99.152344 176.371094 98.6875 176.832031 L 96.679688 178.839844 C 96.371094 178.996094 96.0625 179.152344 95.753906 179.152344 Z M 95.753906 179.152344 "/>
<path style=" stroke:none;fill-rule:nonzero;fill:rgb(13.72549%,12.156863%,12.54902%);fill-opacity:1;" d="M 103.9375 179.152344 C 103.628906 179.152344 103.320312 178.996094 103.167969 178.839844 L 101.160156 176.832031 C 100.695312 176.371094 100.695312 175.597656 101.160156 175.136719 C 101.621094 174.671875 102.394531 174.671875 102.855469 175.136719 L 104.863281 177.144531 C 105.328125 177.605469 105.328125 178.378906 104.863281 178.839844 C 104.554688 178.996094 104.246094 179.152344 103.9375 179.152344 Z M 103.9375 179.152344 "/>
<path style=" stroke:none;fill-rule:nonzero;fill:rgb(13.72549%,12.156863%,12.54902%);fill-opacity:1;" d="M 97.761719 172.972656 C 97.453125 172.972656 97.144531 172.820312 96.988281 172.664062 L 94.980469 170.65625 C 94.515625 170.191406 94.515625 169.421875 94.980469 168.957031 C 95.445312 168.496094 96.214844 168.496094 96.679688 168.957031 L 98.6875 170.964844 C 99.152344 171.429688 99.152344 172.199219 98.6875 172.664062 C 98.378906 172.820312 98.070312 172.972656 97.761719 172.972656 Z M 97.761719 172.972656 "/>
<path style=" stroke:none;fill-rule:nonzero;fill:rgb(13.72549%,12.156863%,12.54902%);fill-opacity:1;" d="M 196.601562 4.480469 C 196.292969 4.480469 195.984375 4.324219 195.832031 4.167969 C 195.367188 3.707031 195.367188 2.933594 195.832031 2.472656 L 197.835938 0.464844 C 198.300781 0 199.074219 0 199.535156 0.464844 C 200 0.925781 200 1.699219 199.535156 2.164062 L 197.527344 4.167969 C 197.21875 4.324219 196.910156 4.480469 196.601562 4.480469 Z M 196.601562 4.480469 "/>
<path style=" stroke:none;fill-rule:nonzero;fill:rgb(13.72549%,12.156863%,12.54902%);fill-opacity:1;" d="M 190.425781 10.65625 C 190.117188 10.65625 189.808594 10.5 189.652344 10.347656 C 189.1875 9.882812 189.1875 9.113281 189.652344 8.648438 L 191.660156 6.640625 C 192.125 6.175781 192.894531 6.175781 193.359375 6.640625 C 193.824219 7.105469 193.824219 7.875 193.359375 8.339844 L 191.351562 10.347656 C 191.042969 10.5 190.734375 10.65625 190.425781 10.65625 Z M 190.425781 10.65625 "/>
<path style=" stroke:none;fill-rule:nonzero;fill:rgb(13.72549%,12.156863%,12.54902%);fill-opacity:1;" d="M 198.609375 10.65625 C 198.300781 10.65625 197.992188 10.5 197.835938 10.347656 L 195.832031 8.339844 C 195.367188 7.875 195.367188 7.105469 195.832031 6.640625 C 196.292969 6.175781 197.066406 6.175781 197.527344 6.640625 L 199.535156 8.648438 C 200 9.113281 200 9.882812 199.535156 10.347656 C 199.226562 10.5 198.917969 10.65625 198.609375 10.65625 Z M 198.609375 10.65625 "/>
<path style=" stroke:none;fill-rule:nonzero;fill:rgb(13.72549%,12.156863%,12.54902%);fill-opacity:1;" d="M 192.433594 4.480469 C 192.125 4.480469 191.816406 4.324219 191.660156 4.167969 L 189.652344 2.164062 C 189.1875 1.699219 189.1875 0.925781 189.652344 0.464844 C 190.117188 0 190.886719 0 191.351562 0.464844 L 193.359375 2.472656 C 193.824219 2.933594 193.824219 3.707031 193.359375 4.167969 C 192.894531 4.324219 192.742188 4.480469 192.433594 4.480469 Z M 192.433594 4.480469 "/>
<path style=" stroke:none;fill-rule:nonzero;fill:rgb(90.196078%,91.372549%,93.333333%);fill-opacity:1;" d="M 32.742188 110.886719 L 32.742188 123.089844 C 32.742188 128.183594 36.910156 132.355469 42.007812 132.355469 L 189.34375 132.355469 C 194.441406 132.355469 198.609375 128.183594 198.609375 123.089844 L 198.609375 110.886719 Z M 32.742188 110.886719 "/>
<path style=" stroke:none;fill-rule:nonzero;fill:rgb(100%,81.568627%,35.686275%);fill-opacity:1;" d="M 42.007812 26.410156 L 189.34375 26.410156 L 189.34375 101.777344 L 42.007812 101.777344 Z M 42.007812 26.410156 "/>
<path style=" stroke:none;fill-rule:nonzero;fill:rgb(90.196078%,91.372549%,93.333333%);fill-opacity:1;" d="M 161.699219 161.542969 L 69.5 161.542969 L 69.5 157.375 C 69.5 153.203125 72.894531 149.960938 76.910156 149.960938 L 154.285156 149.960938 C 158.457031 149.960938 161.699219 153.359375 161.699219 157.375 Z M 161.699219 161.542969 "/>
<path style=" stroke:none;fill-rule:nonzero;fill:rgb(100%,100%,100%);fill-opacity:1;" d="M 73.511719 73.203125 C 73.511719 76.617188 70.746094 79.382812 67.335938 79.382812 C 63.925781 79.382812 61.160156 76.617188 61.160156 73.203125 C 61.160156 69.792969 63.925781 67.027344 67.335938 67.027344 C 70.746094 67.027344 73.511719 69.792969 73.511719 73.203125 Z M 73.511719 73.203125 "/>
<path style=" stroke:none;fill-rule:nonzero;fill:rgb(13.72549%,12.156863%,12.54902%);fill-opacity:1;" d="M 67.335938 80.464844 C 63.320312 80.464844 59.921875 77.21875 59.921875 73.050781 C 59.921875 69.035156 63.167969 65.636719 67.335938 65.636719 C 71.351562 65.636719 74.75 68.878906 74.75 73.050781 C 74.75 77.21875 71.503906 80.464844 67.335938 80.464844 Z M 67.335938 68.109375 C 64.554688 68.109375 62.238281 70.425781 62.238281 73.203125 C 62.238281 75.984375 64.554688 78.300781 67.335938 78.300781 C 70.117188 78.300781 72.433594 75.984375 72.433594 73.203125 C 72.433594 70.425781 70.117188 68.109375 67.335938 68.109375 Z M 67.335938 68.109375 "/>
<path style=" stroke:none;fill-rule:nonzero;fill:rgb(100%,100%,100%);fill-opacity:1;" d="M 104.09375 42.625 C 104.09375 46.039062 101.328125 48.804688 97.914062 48.804688 C 94.503906 48.804688 91.738281 46.039062 91.738281 42.625 C 91.738281 39.214844 94.503906 36.449219 97.914062 36.449219 C 101.328125 36.449219 104.09375 39.214844 104.09375 42.625 Z M 104.09375 42.625 "/>
<path style=" stroke:none;fill-rule:nonzero;fill:rgb(13.72549%,12.156863%,12.54902%);fill-opacity:1;" d="M 97.914062 50.039062 C 93.898438 50.039062 90.5 46.796875 90.5 42.78125 C 90.5 38.765625 93.746094 35.367188 97.914062 35.367188 C 101.929688 35.367188 105.171875 38.609375 105.171875 42.78125 C 105.171875 46.796875 101.929688 50.039062 97.914062 50.039062 Z M 97.914062 37.683594 C 95.136719 37.683594 92.820312 40 92.820312 42.78125 C 92.820312 45.558594 95.136719 47.875 97.914062 47.875 C 100.695312 47.875 102.855469 45.558594 102.855469 42.78125 C 102.855469 39.84375 100.695312 37.683594 97.914062 37.683594 Z M 97.914062 37.683594 "/>
<path style=" stroke:none;fill-rule:nonzero;fill:rgb(100%,100%,100%);fill-opacity:1;" d="M 120.617188 67.027344 C 120.617188 70.4375 117.851562 73.203125 114.441406 73.203125 C 111.027344 73.203125 108.261719 70.4375 108.261719 67.027344 C 108.261719 63.613281 111.027344 60.847656 114.441406 60.847656 C 117.851562 60.847656 120.617188 63.613281 120.617188 67.027344 Z M 120.617188 67.027344 "/>
<path style=" stroke:none;fill-rule:nonzero;fill:rgb(13.72549%,12.156863%,12.54902%);fill-opacity:1;" d="M 114.441406 74.285156 C 110.425781 74.285156 107.027344 71.042969 107.027344 66.871094 C 107.027344 62.855469 110.269531 59.460938 114.441406 59.460938 C 118.457031 59.460938 121.851562 62.703125 121.851562 66.871094 C 121.851562 71.042969 118.457031 74.285156 114.441406 74.285156 Z M 114.441406 61.929688 C 111.660156 61.929688 109.34375 64.246094 109.34375 67.027344 C 109.34375 69.808594 111.660156 72.125 114.441406 72.125 C 117.21875 72.125 119.535156 69.808594 119.535156 67.027344 C 119.535156 64.246094 117.21875 61.929688 114.441406 61.929688 Z M 114.441406 61.929688 "/>
<path style=" stroke:none;fill-rule:nonzero;fill:rgb(100%,100%,100%);fill-opacity:1;" d="M 145.171875 42.472656 C 145.171875 45.882812 142.40625 48.648438 138.996094 48.648438 C 135.585938 48.648438 132.820312 45.882812 132.820312 42.472656 C 132.820312 39.058594 135.585938 36.292969 138.996094 36.292969 C 142.40625 36.292969 145.171875 39.058594 145.171875 42.472656 Z M 145.171875 42.472656 "/>
<path style=" stroke:none;fill-rule:nonzero;fill:rgb(13.72549%,12.156863%,12.54902%);fill-opacity:1;" d="M 138.996094 49.882812 C 134.980469 49.882812 131.582031 46.640625 131.582031 42.472656 C 131.582031 38.457031 134.828125 35.058594 138.996094 35.058594 C 143.011719 35.058594 146.410156 38.300781 146.410156 42.472656 C 146.253906 46.640625 143.011719 49.882812 138.996094 49.882812 Z M 138.996094 37.527344 C 136.214844 37.527344 133.898438 39.84375 133.898438 42.625 C 133.898438 45.40625 136.214844 47.722656 138.996094 47.722656 C 141.777344 47.722656 144.09375 45.40625 144.09375 42.625 C 143.9375 39.691406 141.621094 37.527344 138.996094 37.527344 Z M 138.996094 37.527344 "/>
<path style=" stroke:none;fill-rule:nonzero;fill:rgb(100%,100%,100%);fill-opacity:1;" d="M 170.039062 67.492188 C 170.039062 70.902344 167.273438 73.667969 163.859375 73.667969 C 160.449219 73.667969 157.683594 70.902344 157.683594 67.492188 C 157.683594 64.078125 160.449219 61.3125 163.859375 61.3125 C 167.273438 61.3125 170.039062 64.078125 170.039062 67.492188 Z M 170.039062 67.492188 "/>
<path style=" stroke:none;fill-rule:nonzero;fill:rgb(13.72549%,12.156863%,12.54902%);fill-opacity:1;" d="M 163.859375 74.75 C 159.84375 74.75 156.449219 71.503906 156.449219 67.335938 C 156.449219 63.320312 159.691406 59.921875 163.859375 59.921875 C 167.875 59.921875 171.273438 63.167969 171.273438 67.335938 C 171.273438 71.503906 167.875 74.75 163.859375 74.75 Z M 163.859375 62.394531 C 161.082031 62.394531 158.765625 64.710938 158.765625 67.492188 C 158.765625 70.269531 161.082031 72.585938 163.859375 72.585938 C 166.640625 72.585938 168.957031 70.269531 168.957031 67.492188 C 168.957031 64.710938 166.640625 62.394531 163.859375 62.394531 Z M 163.859375 62.394531 "/>
<path style=" stroke:none;fill-rule:nonzero;fill:rgb(13.72549%,12.156863%,12.54902%);fill-opacity:1;" d="M 71.816406 69.960938 C 71.503906 69.960938 71.195312 69.808594 71.042969 69.652344 C 70.578125 69.1875 70.578125 68.417969 71.042969 67.953125 L 92.664062 46.023438 C 93.128906 45.558594 93.898438 45.558594 94.363281 46.023438 C 94.828125 46.488281 94.828125 47.257812 94.363281 47.722656 L 72.585938 69.652344 C 72.433594 69.960938 72.125 69.960938 71.816406 69.960938 Z M 71.816406 69.960938 "/>
<path style=" stroke:none;fill-rule:nonzero;fill:rgb(13.72549%,12.156863%,12.54902%);fill-opacity:1;" d="M 117.683594 62.855469 C 117.375 62.855469 117.066406 62.703125 116.757812 62.394531 C 116.292969 61.929688 116.449219 61.160156 116.910156 60.695312 L 133.898438 46.023438 C 134.363281 45.558594 135.136719 45.714844 135.597656 46.175781 C 136.0625 46.640625 135.90625 47.414062 135.445312 47.875 L 118.457031 62.546875 C 118.148438 62.703125 117.992188 62.855469 117.683594 62.855469 Z M 117.683594 62.855469 "/>
<path style=" stroke:none;fill-rule:nonzero;fill:rgb(13.72549%,12.156863%,12.54902%);fill-opacity:1;" d="M 159.84375 63.9375 C 159.535156 63.9375 159.226562 63.785156 159.074219 63.628906 L 142.394531 47.875 C 141.929688 47.414062 141.929688 46.640625 142.394531 46.175781 C 142.855469 45.714844 143.628906 45.714844 144.09375 46.175781 L 160.773438 61.929688 C 161.234375 62.394531 161.234375 63.167969 160.773438 63.628906 C 160.464844 63.785156 160.15625 63.9375 159.84375 63.9375 Z M 159.84375 63.9375 "/>
<path style=" stroke:none;fill-rule:nonzero;fill:rgb(13.72549%,12.156863%,12.54902%);fill-opacity:1;" d="M 111.195312 62.855469 C 110.886719 62.855469 110.425781 62.703125 110.269531 62.394531 L 100.230469 48.648438 C 99.921875 48.183594 99.921875 47.414062 100.539062 47.105469 C 101.003906 46.796875 101.777344 46.796875 102.085938 47.414062 L 112.125 61.160156 C 112.433594 61.621094 112.433594 62.394531 111.816406 62.703125 C 111.816406 62.855469 111.503906 62.855469 111.195312 62.855469 Z M 111.195312 62.855469 "/>
<path style=" stroke:none;fill-rule:nonzero;fill:rgb(67.45098%,70.196078%,72.941176%);fill-opacity:1;" d="M 122.007812 121.699219 C 122.007812 125.195312 119.171875 128.03125 115.675781 128.03125 C 112.179688 128.03125 109.34375 125.195312 109.34375 121.699219 C 109.34375 118.203125 112.179688 115.367188 115.675781 115.367188 C 119.171875 115.367188 122.007812 118.203125 122.007812 121.699219 Z M 122.007812 121.699219 "/>
<path style=" stroke:none;fill-rule:nonzero;fill:rgb(13.72549%,12.156863%,12.54902%);fill-opacity:1;" d="M 199.382812 181.160156 C 188.417969 170.191406 173.746094 164.015625 158.148438 164.015625 C 142.546875 164.015625 127.875 170.039062 116.910156 181.160156 C 116.449219 181.621094 116.449219 182.394531 116.910156 182.855469 C 127.875 193.824219 142.546875 200 158.148438 200 C 173.746094 200 188.417969 193.976562 199.382812 182.855469 C 199.84375 182.394531 199.84375 181.621094 199.382812 181.160156 Z M 158.148438 167.257812 C 166.488281 167.257812 173.28125 174.054688 173.28125 182.394531 C 173.28125 190.734375 166.488281 197.527344 158.148438 197.527344 C 149.808594 197.527344 143.011719 190.734375 143.011719 182.394531 C 143.011719 174.054688 149.808594 167.257812 158.148438 167.257812 Z M 119.382812 181.929688 C 127.875 173.746094 138.53125 168.648438 149.960938 166.949219 C 144.402344 169.882812 140.695312 175.753906 140.695312 182.394531 C 140.695312 188.261719 143.628906 193.511719 148.109375 196.601562 C 137.296875 194.75 127.414062 189.652344 119.382812 181.929688 Z M 168.183594 196.601562 C 172.664062 193.359375 175.597656 188.261719 175.597656 182.394531 C 175.597656 175.753906 171.890625 169.882812 166.332031 166.949219 C 177.761719 168.648438 188.417969 173.746094 196.910156 181.929688 C 188.878906 189.652344 178.996094 194.75 168.183594 196.601562 Z M 168.183594 196.601562 "/>
<path style=" stroke:none;fill-rule:nonzero;fill:rgb(51.764706%,85.882353%,100%);fill-opacity:1;" d="M 166.640625 182.394531 C 166.640625 187.085938 162.839844 190.886719 158.148438 190.886719 C 153.457031 190.886719 149.652344 187.085938 149.652344 182.394531 C 149.652344 177.703125 153.457031 173.898438 158.148438 173.898438 C 162.839844 173.898438 166.640625 177.703125 166.640625 182.394531 Z M 166.640625 182.394531 "/>
<path style=" stroke:none;fill-rule:nonzero;fill:rgb(32.941176%,75.294118%,92.156863%);fill-opacity:1;" d="M 162.007812 182.394531 C 162.007812 184.527344 160.277344 186.253906 158.148438 186.253906 C 156.015625 186.253906 154.285156 184.527344 154.285156 182.394531 C 154.285156 180.261719 156.015625 178.53125 158.148438 178.53125 C 160.277344 178.53125 162.007812 180.261719 162.007812 182.394531 Z M 162.007812 182.394531 "/>
<path style=" stroke:none;fill-rule:nonzero;fill:rgb(13.72549%,12.156863%,12.54902%);fill-opacity:1;" d="M 158.148438 195.519531 C 157.683594 195.519531 157.21875 195.519531 156.757812 195.519531 L 157.066406 193.203125 C 157.375 193.203125 157.835938 193.203125 158.148438 193.203125 L 158.457031 193.203125 L 158.457031 195.519531 Z M 161.851562 195.058594 L 161.234375 192.894531 C 161.699219 192.742188 162.164062 192.585938 162.472656 192.433594 L 163.398438 194.59375 C 162.933594 194.59375 162.316406 194.902344 161.851562 195.058594 Z M 153.511719 194.75 C 153.050781 194.59375 152.433594 194.285156 151.96875 193.976562 L 153.050781 191.96875 C 153.511719 192.125 153.824219 192.433594 154.285156 192.585938 Z M 166.332031 192.742188 L 164.941406 190.886719 C 165.25 190.578125 165.714844 190.269531 166.023438 189.960938 L 167.722656 191.503906 C 167.105469 191.96875 166.796875 192.277344 166.332031 192.742188 Z M 149.1875 191.96875 C 148.726562 191.660156 148.417969 191.195312 147.953125 190.734375 L 149.808594 189.1875 C 150.117188 189.5 150.425781 189.960938 150.734375 190.269531 Z M 169.574219 188.878906 L 167.566406 187.800781 C 167.722656 187.335938 168.03125 187.027344 168.183594 186.5625 L 170.347656 187.492188 C 170.039062 187.800781 169.882812 188.417969 169.574219 188.878906 Z M 146.253906 187.953125 C 145.945312 187.492188 145.792969 186.871094 145.636719 186.410156 L 147.800781 185.636719 C 147.953125 186.101562 148.109375 186.5625 148.261719 186.871094 Z M 171.121094 184.09375 L 168.804688 183.785156 C 168.804688 183.320312 168.957031 182.855469 168.957031 182.394531 C 168.957031 182.085938 168.957031 181.621094 168.957031 181.3125 L 171.273438 181.003906 C 171.273438 181.46875 171.273438 181.929688 171.273438 182.394531 C 171.273438 183.011719 171.273438 183.476562 171.121094 184.09375 Z M 145.019531 183.011719 C 145.019531 182.855469 145.019531 182.546875 145.019531 182.394531 C 145.019531 182.085938 145.019531 181.777344 145.019531 181.3125 L 147.335938 181.46875 C 147.335938 181.777344 147.335938 182.085938 147.335938 182.238281 C 147.335938 182.394531 147.335938 182.546875 147.335938 182.855469 Z M 147.953125 178.839844 L 145.792969 178.070312 C 145.945312 177.605469 146.253906 176.988281 146.410156 176.523438 L 148.417969 177.605469 C 148.261719 177.914062 148.109375 178.378906 147.953125 178.839844 Z M 168.339844 178.53125 C 168.183594 178.070312 168.03125 177.605469 167.722656 177.296875 L 169.730469 176.214844 C 170.039062 176.679688 170.191406 177.296875 170.5 177.761719 Z M 149.960938 175.289062 L 148.261719 173.746094 C 148.570312 173.28125 149.035156 172.972656 149.5 172.507812 L 151.042969 174.207031 C 150.578125 174.515625 150.269531 174.828125 149.960938 175.289062 Z M 166.023438 174.980469 C 165.714844 174.671875 165.40625 174.363281 164.941406 174.054688 L 166.488281 172.199219 C 166.949219 172.507812 167.257812 172.972656 167.722656 173.4375 Z M 153.359375 172.664062 L 152.277344 170.65625 C 152.742188 170.347656 153.359375 170.191406 153.824219 170.039062 L 154.59375 172.199219 C 154.132812 172.355469 153.667969 172.507812 153.359375 172.664062 Z M 162.78125 172.507812 C 162.316406 172.355469 161.851562 172.199219 161.542969 172.046875 L 162.316406 169.882812 C 162.78125 170.039062 163.398438 170.191406 163.859375 170.5 Z M 157.375 171.582031 L 157.21875 169.265625 C 157.835938 169.265625 158.300781 169.265625 158.917969 169.265625 L 158.765625 171.582031 C 158.300781 171.582031 157.835938 171.582031 157.375 171.582031 Z M 157.375 171.582031 "/>
<path style=" stroke:none;fill-rule:nonzero;fill:rgb(100%,100%,100%);fill-opacity:1;" d="M 157.835938 179.769531 C 157.835938 180.960938 156.871094 181.929688 155.675781 181.929688 C 154.480469 181.929688 153.511719 180.960938 153.511719 179.769531 C 153.511719 178.574219 154.480469 177.605469 155.675781 177.605469 C 156.871094 177.605469 157.835938 178.574219 157.835938 179.769531 Z M 157.835938 179.769531 "/>
<path style=" stroke:none;fill-rule:nonzero;fill:rgb(100%,100%,100%);fill-opacity:1;" d="M 73.050781 198.765625 L 7.414062 198.765625 C 3.859375 198.765625 1.082031 195.984375 1.082031 192.433594 L 1.082031 96.214844 C 1.082031 92.664062 3.859375 89.882812 7.414062 89.882812 L 72.894531 89.882812 C 76.449219 89.882812 79.226562 92.664062 79.226562 96.214844 L 79.226562 192.433594 C 79.382812 195.832031 76.449219 198.765625 73.050781 198.765625 Z M 73.050781 198.765625 "/>
<path style=" stroke:none;fill-rule:nonzero;fill:rgb(80.784314%,83.529412%,87.843137%);fill-opacity:1;" d="M 4.167969 105.945312 L 76.140625 105.945312 L 76.140625 177.144531 L 4.167969 177.144531 Z M 4.167969 105.945312 "/>
<path style=" stroke:none;fill-rule:nonzero;fill:rgb(100%,100%,100%);fill-opacity:1;" d="M 1.234375 180.078125 L 1.234375 192.433594 C 1.234375 195.984375 4.015625 198.765625 7.566406 198.765625 L 73.050781 198.765625 C 76.601562 198.765625 79.382812 195.984375 79.382812 192.433594 L 79.382812 180.078125 Z M 1.234375 180.078125 "/>
<path style=" stroke:none;fill-rule:nonzero;fill:rgb(100%,100%,100%);fill-opacity:1;" d="M 79.382812 103.167969 L 79.382812 96.0625 C 79.382812 92.507812 76.601562 89.730469 73.050781 89.730469 L 7.414062 89.730469 C 3.859375 89.730469 1.082031 92.507812 1.082031 96.0625 L 1.082031 103.167969 Z M 79.382812 103.167969 "/>
<path style=" stroke:none;fill-rule:nonzero;fill:rgb(100%,100%,100%);fill-opacity:1;" d="M 44.941406 189.34375 C 44.941406 191.902344 42.867188 193.976562 40.308594 193.976562 C 37.75 193.976562 35.675781 191.902344 35.675781 189.34375 C 35.675781 186.785156 37.75 184.710938 40.308594 184.710938 C 42.867188 184.710938 44.941406 186.785156 44.941406 189.34375 Z M 44.941406 189.34375 "/>
<path style=" stroke:none;fill-rule:nonzero;fill:rgb(13.72549%,12.156863%,12.54902%);fill-opacity:1;" d="M 40.308594 195.210938 C 37.066406 195.210938 34.441406 192.585938 34.441406 189.34375 C 34.441406 186.101562 37.066406 183.476562 40.308594 183.476562 C 43.550781 183.476562 46.175781 186.101562 46.175781 189.34375 C 46.175781 192.585938 43.398438 195.210938 40.308594 195.210938 Z M 40.308594 185.792969 C 38.300781 185.792969 36.757812 187.335938 36.757812 189.34375 C 36.757812 191.351562 38.300781 192.894531 40.308594 192.894531 C 42.316406 192.894531 43.859375 191.351562 43.859375 189.34375 C 43.707031 187.492188 42.164062 185.792969 40.308594 185.792969 Z M 40.308594 185.792969 "/>
<path style=" stroke:none;fill-rule:nonzero;fill:rgb(13.72549%,12.156863%,12.54902%);fill-opacity:1;" d="M 30.425781 97.761719 L 25.171875 97.761719 C 24.554688 97.761719 23.9375 97.296875 23.9375 96.523438 C 23.9375 95.90625 24.402344 95.289062 25.171875 95.289062 L 30.425781 95.289062 C 31.042969 95.289062 31.660156 95.753906 31.660156 96.523438 C 31.503906 97.144531 31.042969 97.761719 30.425781 97.761719 Z M 30.425781 97.761719 "/>
<path style=" stroke:none;fill-rule:nonzero;fill:rgb(13.72549%,12.156863%,12.54902%);fill-opacity:1;" d="M 55.289062 97.761719 L 34.285156 97.761719 C 33.667969 97.761719 33.050781 97.296875 33.050781 96.523438 C 33.050781 95.90625 33.511719 95.289062 34.285156 95.289062 L 55.289062 95.289062 C 55.90625 95.289062 56.523438 95.753906 56.523438 96.523438 C 56.371094 97.144531 55.90625 97.761719 55.289062 97.761719 Z M 55.289062 97.761719 "/>
<path style=" stroke:none;fill-rule:nonzero;fill:rgb(100%,100%,100%);fill-opacity:1;" d="M 55.753906 117.375 L 43.242188 117.375 C 42.625 117.375 42.007812 116.910156 42.007812 116.140625 C 42.007812 115.519531 42.472656 114.902344 43.242188 114.902344 L 55.753906 114.902344 C 56.371094 114.902344 56.988281 115.367188 56.988281 116.140625 C 56.988281 116.757812 56.371094 117.375 55.753906 117.375 Z M 55.753906 117.375 "/>
<path style=" stroke:none;fill-rule:nonzero;fill:rgb(100%,100%,100%);fill-opacity:1;" d="M 60.695312 121.851562 L 54.515625 121.851562 C 53.898438 121.851562 53.28125 121.390625 53.28125 120.617188 C 53.28125 120 53.746094 119.382812 54.515625 119.382812 L 60.695312 119.382812 C 61.3125 119.382812 61.929688 119.84375 61.929688 120.617188 C 61.777344 121.390625 61.3125 121.851562 60.695312 121.851562 Z M 60.695312 121.851562 "/>
<path style=" stroke:none;fill-rule:nonzero;fill:rgb(100%,100%,100%);fill-opacity:1;" d="M 67.179688 117.375 L 61.3125 117.375 C 60.695312 117.375 60.078125 116.910156 60.078125 116.140625 C 60.078125 115.519531 60.539062 114.902344 61.3125 114.902344 L 67.179688 114.902344 C 67.800781 114.902344 68.417969 115.367188 68.417969 116.140625 C 68.417969 116.757812 67.953125 117.375 67.179688 117.375 Z M 67.179688 117.375 "/>
<path style=" stroke:none;fill-rule:nonzero;fill:rgb(100%,100%,100%);fill-opacity:1;" d="M 50.191406 121.851562 L 48.957031 121.851562 C 48.339844 121.851562 47.722656 121.390625 47.722656 120.617188 C 47.722656 120 48.183594 119.382812 48.957031 119.382812 L 50.191406 119.382812 C 50.8125 119.382812 51.429688 119.84375 51.429688 120.617188 C 51.273438 121.390625 50.8125 121.851562 50.191406 121.851562 Z M 50.191406 121.851562 "/>
<path style=" stroke:none;fill-rule:nonzero;fill:rgb(100%,100%,100%);fill-opacity:1;" d="M 26.871094 164.167969 L 14.363281 164.167969 C 13.746094 164.167969 13.128906 163.707031 13.128906 162.933594 C 13.128906 162.164062 13.589844 161.699219 14.363281 161.699219 L 26.871094 161.699219 C 27.492188 161.699219 28.109375 162.164062 28.109375 162.933594 C 28.109375 163.707031 27.492188 164.167969 26.871094 164.167969 Z M 26.871094 164.167969 "/>
<path style=" stroke:none;fill-rule:nonzero;fill:rgb(100%,100%,100%);fill-opacity:1;" d="M 31.816406 168.648438 L 25.636719 168.648438 C 25.019531 168.648438 24.554688 168.183594 24.554688 167.414062 C 24.554688 166.796875 25.019531 166.175781 25.636719 166.175781 L 31.816406 166.175781 C 32.433594 166.175781 33.050781 166.640625 33.050781 167.414062 C 32.894531 168.183594 32.433594 168.648438 31.816406 168.648438 Z M 31.816406 168.648438 "/>
<path style=" stroke:none;fill-rule:nonzero;fill:rgb(100%,100%,100%);fill-opacity:1;" d="M 38.300781 164.167969 L 32.433594 164.167969 C 31.816406 164.167969 31.195312 163.707031 31.195312 162.933594 C 31.195312 162.164062 31.660156 161.699219 32.433594 161.699219 L 38.300781 161.699219 C 38.917969 161.699219 39.535156 162.164062 39.535156 162.933594 C 39.535156 163.707031 38.917969 164.167969 38.300781 164.167969 Z M 38.300781 164.167969 "/>
<path style=" stroke:none;fill-rule:nonzero;fill:rgb(100%,100%,100%);fill-opacity:1;" d="M 21.160156 168.648438 L 20.078125 168.648438 C 19.460938 168.648438 18.839844 168.183594 18.839844 167.414062 C 18.839844 166.796875 19.304688 166.175781 20.078125 166.175781 L 21.3125 166.175781 C 21.929688 166.175781 22.546875 166.640625 22.546875 167.414062 C 22.394531 168.183594 21.777344 168.648438 21.160156 168.648438 Z M 21.160156 168.648438 "/>
<path style=" stroke:none;fill-rule:nonzero;fill:rgb(100%,43.921569%,34.509804%);fill-opacity:1;" d="M 154.75 8.496094 C 154.75 10.285156 153.296875 11.738281 151.503906 11.738281 C 149.714844 11.738281 148.261719 10.285156 148.261719 8.496094 C 148.261719 6.703125 149.714844 5.25 151.503906 5.25 C 153.296875 5.25 154.75 6.703125 154.75 8.496094 Z M 154.75 8.496094 "/>
<path style=" stroke:none;fill-rule:nonzero;fill:rgb(51.764706%,85.882353%,100%);fill-opacity:1;" d="M 31.96875 11.429688 C 31.96875 13.21875 30.515625 14.671875 28.726562 14.671875 C 26.933594 14.671875 25.484375 13.21875 25.484375 11.429688 C 25.484375 9.636719 26.933594 8.183594 28.726562 8.183594 C 30.515625 8.183594 31.96875 9.636719 31.96875 11.429688 Z M 31.96875 11.429688 "/>
<path style=" stroke:none;fill-rule:nonzero;fill:rgb(90.196078%,91.372549%,93.333333%);fill-opacity:1;" d="M 17.605469 73.203125 C 17.605469 74.996094 16.152344 76.449219 14.363281 76.449219 C 12.570312 76.449219 11.121094 74.996094 11.121094 73.203125 C 11.121094 71.414062 12.570312 69.960938 14.363281 69.960938 C 16.152344 69.960938 17.605469 71.414062 17.605469 73.203125 Z M 17.605469 73.203125 "/>
<path style=" stroke:none;fill-rule:nonzero;fill:rgb(100%,43.921569%,34.509804%);fill-opacity:1;" d="M 172.820312 146.253906 C 172.820312 148.046875 171.367188 149.5 169.574219 149.5 C 167.785156 149.5 166.332031 148.046875 166.332031 146.253906 C 166.332031 144.464844 167.785156 143.011719 169.574219 143.011719 C 171.367188 143.011719 172.820312 144.464844 172.820312 146.253906 Z M 172.820312 146.253906 "/>
<path style=" stroke:none;fill-rule:nonzero;fill:rgb(100%,81.568627%,35.686275%);fill-opacity:1;" d="M 103.011719 192.585938 C 103.011719 194.378906 101.558594 195.832031 99.769531 195.832031 C 97.976562 195.832031 96.523438 194.378906 96.523438 192.585938 C 96.523438 190.796875 97.976562 189.34375 99.769531 189.34375 C 101.558594 189.34375 103.011719 190.796875 103.011719 192.585938 Z M 103.011719 192.585938 "/>
<path style=" stroke:none;fill-rule:nonzero;fill:rgb(100%,100%,100%);fill-opacity:1;" d="M 174.980469 104.402344 C 174.980469 117.878906 164.054688 128.804688 150.578125 128.804688 C 137.101562 128.804688 126.175781 117.878906 126.175781 104.402344 C 126.175781 90.925781 137.101562 80 150.578125 80 C 164.054688 80 174.980469 90.925781 174.980469 104.402344 Z M 174.980469 104.402344 "/>
<path style=" stroke:none;fill-rule:nonzero;fill:rgb(51.764706%,85.882353%,100%);fill-opacity:1;" d="M 169.421875 104.402344 C 169.421875 114.808594 160.984375 123.242188 150.578125 123.242188 C 140.171875 123.242188 131.738281 114.808594 131.738281 104.402344 C 131.738281 93.996094 140.171875 85.558594 150.578125 85.558594 C 160.984375 85.558594 169.421875 93.996094 169.421875 104.402344 Z M 169.421875 104.402344 "/>
<path style=" stroke:none;fill-rule:nonzero;fill:rgb(100%,100%,100%);fill-opacity:1;" d="M 167.875 121.699219 L 171.121094 124.941406 "/>
<path style=" stroke:none;fill-rule:nonzero;fill:rgb(100%,100%,100%);fill-opacity:1;" d="M 170.191406 125.867188 L 172.046875 124.015625 C 173.4375 122.625 175.597656 122.625 176.988281 124.015625 L 197.835938 144.863281 C 199.226562 146.253906 199.226562 148.417969 197.835938 149.808594 L 195.984375 151.660156 C 194.59375 153.050781 192.433594 153.050781 191.042969 151.660156 L 170.191406 130.8125 C 168.957031 129.421875 168.957031 127.257812 170.191406 125.867188 Z M 170.191406 125.867188 "/>
<path style=" stroke:none;fill-rule:nonzero;fill:rgb(13.72549%,12.156863%,12.54902%);fill-opacity:1;" d="M 198.609375 144.09375 L 188.109375 133.589844 L 189.34375 133.589844 C 195.058594 133.589844 199.691406 128.957031 199.691406 123.242188 L 199.691406 26.410156 C 199.691406 20.695312 195.058594 16.0625 189.34375 16.0625 L 42.007812 16.0625 C 36.292969 16.0625 31.660156 20.695312 31.660156 26.410156 L 31.660156 88.804688 L 7.414062 88.804688 C 3.242188 88.804688 0 92.199219 0 96.214844 L 0 192.433594 C 0 196.601562 3.398438 199.84375 7.414062 199.84375 L 72.894531 199.84375 C 77.066406 199.84375 80.308594 196.449219 80.308594 192.433594 L 80.308594 162.625 L 161.542969 162.625 C 162.164062 162.625 162.78125 162.164062 162.78125 161.390625 L 162.78125 157.21875 C 162.78125 152.433594 158.917969 148.570312 154.132812 148.570312 L 145.636719 148.570312 L 145.636719 133.4375 L 171.429688 133.4375 L 190.269531 152.277344 C 192.125 154.132812 195.058594 154.132812 196.757812 152.277344 L 198.609375 150.425781 C 200.464844 148.878906 200.464844 145.945312 198.609375 144.09375 Z M 197.375 123.089844 C 197.375 127.566406 193.667969 131.121094 189.34375 131.121094 L 185.792969 131.121094 L 177.761719 123.089844 C 175.90625 121.234375 172.972656 121.234375 171.273438 123.089844 L 171.121094 123.242188 L 169.421875 121.542969 C 172.046875 118.765625 173.898438 115.367188 174.980469 111.96875 L 197.375 111.96875 Z M 167.105469 120.925781 C 157.992188 130.039062 143.167969 130.039062 134.207031 120.925781 C 125.097656 111.816406 125.097656 96.988281 134.207031 88.03125 C 143.320312 78.917969 158.148438 78.917969 167.105469 88.03125 C 176.214844 96.988281 176.214844 111.816406 167.105469 120.925781 Z M 78.148438 192.433594 C 78.148438 195.210938 75.832031 197.527344 73.050781 197.527344 L 7.414062 197.527344 C 4.632812 197.527344 2.316406 195.210938 2.316406 192.433594 L 2.316406 181.3125 L 78.148438 181.3125 Z M 78.148438 178.996094 L 2.316406 178.996094 L 2.316406 104.402344 L 78.148438 104.402344 Z M 78.148438 102.085938 L 2.316406 102.085938 L 2.316406 96.214844 C 2.316406 93.4375 4.632812 91.121094 7.414062 91.121094 L 72.894531 91.121094 C 75.675781 91.121094 77.992188 93.4375 77.992188 96.214844 L 77.992188 102.085938 Z M 73.050781 88.648438 L 33.824219 88.648438 L 33.824219 26.410156 C 33.824219 21.929688 37.527344 18.378906 41.851562 18.378906 L 189.1875 18.378906 C 193.667969 18.378906 197.21875 22.085938 197.21875 26.410156 L 197.21875 109.808594 L 175.445312 109.808594 C 177.144531 101.621094 174.980469 92.664062 168.496094 86.332031 C 158.457031 76.292969 142.238281 76.292969 132.199219 86.332031 C 125.867188 92.664062 123.550781 101.621094 125.25 109.808594 L 80.464844 109.808594 L 80.464844 96.214844 C 80.464844 92.046875 77.066406 88.648438 73.050781 88.648438 Z M 80.464844 133.589844 L 85.40625 133.589844 L 85.40625 148.726562 L 80.464844 148.726562 Z M 154.285156 151.042969 C 157.683594 151.042969 160.617188 153.824219 160.617188 157.375 L 160.617188 160.464844 L 80.464844 160.464844 L 80.464844 151.195312 L 154.285156 151.195312 Z M 87.722656 148.726562 L 87.722656 133.589844 L 143.476562 133.589844 L 143.476562 148.726562 Z M 80.464844 131.273438 L 80.464844 112.125 L 126.175781 112.125 C 127.414062 115.984375 129.421875 119.535156 132.507812 122.625 C 142.238281 132.355469 157.835938 132.507812 167.875 123.398438 L 169.574219 125.097656 L 169.421875 125.25 C 167.722656 126.949219 167.722656 129.574219 169.113281 131.429688 L 80.464844 131.429688 Z M 197.066406 149.035156 L 195.210938 150.886719 C 194.285156 151.816406 192.894531 151.816406 191.96875 150.886719 L 171.121094 130.039062 C 170.191406 129.113281 170.191406 127.722656 171.121094 126.796875 L 172.972656 124.941406 C 173.898438 124.015625 175.289062 124.015625 176.214844 124.941406 L 197.066406 145.792969 C 197.835938 146.5625 197.835938 148.109375 197.066406 149.035156 Z M 197.066406 149.035156 "/>
</g>
</svg>
