<?xml version="1.0" encoding="utf-8"?>
<!-- Generator: Adobe Illustrator 18.0.0, SVG Export Plug-In . SVG Version: 6.00 Build 0)  -->
<!DOCTYPE svg PUBLIC "-//W3C//DTD SVG 1.1//EN" "http://www.w3.org/Graphics/SVG/1.1/DTD/svg11.dtd">
<svg version="1.1" id="Layer_1" xmlns="http://www.w3.org/2000/svg" xmlns:xlink="http://www.w3.org/1999/xlink" x="0px" y="0px"
	 viewBox="0 0 129.5 129.5" enable-background="new 0 0 129.5 129.5" xml:space="preserve">
<g>
	<g>
		<g>
			<g>
				<path fill="#231F20" d="M13.7,59.6c-0.2,0-0.4-0.1-0.5-0.2c-0.3-0.3-0.3-0.8,0-1.1l1.3-1.3c0.3-0.3,0.8-0.3,1.1,0
					c0.3,0.3,0.3,0.8,0,1.1l-1.3,1.3C14.1,59.5,13.9,59.6,13.7,59.6z"/>
			</g>
			<g>
				<path fill="#231F20" d="M9.7,63.6c-0.2,0-0.4-0.1-0.5-0.2c-0.3-0.3-0.3-0.8,0-1.1l1.3-1.3c0.3-0.3,0.8-0.3,1.1,0
					c0.3,0.3,0.3,0.8,0,1.1l-1.3,1.3C10.1,63.5,9.9,63.6,9.7,63.6z"/>
			</g>
			<g>
				<path fill="#231F20" d="M15,63.6c-0.2,0-0.4-0.1-0.5-0.2l-1.3-1.3c-0.3-0.3-0.3-0.8,0-1.1c0.3-0.3,0.8-0.3,1.1,0l1.3,1.3
					c0.3,0.3,0.3,0.8,0,1.1C15.4,63.5,15.2,63.6,15,63.6z"/>
			</g>
			<g>
				<path fill="#231F20" d="M11,59.6c-0.2,0-0.4-0.1-0.5-0.2l-1.3-1.3c-0.3-0.3-0.3-0.8,0-1.1c0.3-0.3,0.8-0.3,1.1,0l1.3,1.3
					c0.3,0.3,0.3,0.8,0,1.1C11.3,59.5,11.1,59.6,11,59.6z"/>
			</g>
		</g>
		<g>
			<g>
				<path fill="#231F20" d="M122.1,6.3c-0.2,0-0.4-0.1-0.5-0.2c-0.3-0.3-0.3-0.8,0-1.1l1.3-1.3c0.3-0.3,0.8-0.3,1.1,0
					c0.3,0.3,0.3,0.8,0,1.1l-1.3,1.3C122.4,6.2,122.3,6.3,122.1,6.3z"/>
			</g>
			<g>
				<path fill="#231F20" d="M118,10.3c-0.2,0-0.4-0.1-0.5-0.2c-0.3-0.3-0.3-0.8,0-1.1l1.3-1.3c0.3-0.3,0.8-0.3,1.1,0
					c0.3,0.3,0.3,0.8,0,1.1l-1.3,1.3C118.4,10.2,118.2,10.3,118,10.3z"/>
			</g>
			<g>
				<path fill="#231F20" d="M123.3,10.3c-0.2,0-0.4-0.1-0.5-0.2l-1.3-1.3c-0.3-0.3-0.3-0.8,0-1.1c0.3-0.3,0.8-0.3,1.1,0l1.3,1.3
					c0.3,0.3,0.3,0.8,0,1.1C123.7,10.2,123.5,10.3,123.3,10.3z"/>
			</g>
			<g>
				<path fill="#231F20" d="M119.3,6.3c-0.2,0-0.4-0.1-0.5-0.2l-1.3-1.3c-0.3-0.3-0.3-0.8,0-1.1c0.3-0.3,0.8-0.3,1.1,0l1.3,1.3
					c0.3,0.3,0.3,0.8,0,1.1C119.7,6.2,119.5,6.3,119.3,6.3z"/>
			</g>
		</g>
		<g>
			<g>
				<path fill="#231F20" d="M109.7,116.6c-0.2,0-0.4-0.1-0.5-0.2c-0.3-0.3-0.3-0.8,0-1.1l1.3-1.3c0.3-0.3,0.8-0.3,1.1,0
					c0.3,0.3,0.3,0.8,0,1.1l-1.3,1.3C110,116.5,109.9,116.6,109.7,116.6z"/>
			</g>
			<g>
				<path fill="#231F20" d="M105.6,120.6c-0.2,0-0.4-0.1-0.5-0.2c-0.3-0.3-0.3-0.8,0-1.1l1.3-1.3c0.3-0.3,0.8-0.3,1.1,0
					c0.3,0.3,0.3,0.8,0,1.1l-1.3,1.3C106,120.5,105.8,120.6,105.6,120.6z"/>
			</g>
			<g>
				<path fill="#231F20" d="M110.9,120.6c-0.2,0-0.4-0.1-0.5-0.2l-1.3-1.3c-0.3-0.3-0.3-0.8,0-1.1c0.3-0.3,0.8-0.3,1.1,0l1.3,1.3
					c0.3,0.3,0.3,0.8,0,1.1C111.3,120.5,111.1,120.6,110.9,120.6z"/>
			</g>
			<g>
				<path fill="#231F20" d="M106.9,116.6c-0.2,0-0.4-0.1-0.5-0.2l-1.3-1.3c-0.3-0.3-0.3-0.8,0-1.1c0.3-0.3,0.8-0.3,1.1,0l1.3,1.3
					c0.3,0.3,0.3,0.8,0,1.1C107.3,116.5,107.1,116.6,106.9,116.6z"/>
			</g>
		</g>
		<g>
			<circle fill="#4CDBC4" cx="102.8" cy="14.8" r="2.5"/>
		</g>
		<g>
			<circle fill="#FF7058" cx="11" cy="74.5" r="2.5"/>
		</g>
		<g>
			<path fill="#231F20" d="M83.2,90.3c0.4,0,0.8-0.3,0.8-0.8c0-0.4-0.3-0.8-0.8-0.8h-2.5c-0.4,0-0.8,0.3-0.8,0.8
				c0,0.4,0.3,0.8,0.8,0.8H83.2z"/>
			<path fill="#231F20" d="M88.3,89.6c0-0.4-0.3-0.8-0.8-0.8h-1.4c-0.4,0-0.8,0.3-0.8,0.8c0,0.4,0.3,0.8,0.8,0.8h1.4
				C88,90.3,88.3,90,88.3,89.6z"/>
			<path fill="#231F20" d="M76.3,70.5c0,0.4,0.3,0.8,0.8,0.8h2.5c0.4,0,0.8-0.3,0.8-0.8c0-0.4-0.3-0.8-0.8-0.8h-2.5
				C76.7,69.8,76.3,70.1,76.3,70.5z"/>
			<path fill="#231F20" d="M82.5,69.8c-0.4,0-0.8,0.3-0.8,0.8c0,0.4,0.3,0.8,0.8,0.8h1.4c0.4,0,0.8-0.3,0.8-0.8
				c0-0.4-0.3-0.8-0.8-0.8H82.5z"/>
			<path fill="#231F20" d="M76.3,47.8h2.1c0.4,0,0.8-0.3,0.8-0.8c0-0.4-0.3-0.8-0.8-0.8h-2.1c-0.4,0-0.8,0.3-0.8,0.8
				C75.5,47.5,75.8,47.8,76.3,47.8z"/>
			<path fill="#231F20" d="M80.8,47.8H82c0.4,0,0.8-0.3,0.8-0.8c0-0.4-0.3-0.8-0.8-0.8h-1.2c-0.4,0-0.7,0.3-0.7,0.8
				C80.1,47.5,80.4,47.8,80.8,47.8z"/>
			<path fill="#231F20" d="M80.2,95.4h-2.5c-0.4,0-0.8,0.3-0.8,0.8s0.3,0.8,0.8,0.8h2.5c0.4,0,0.8-0.3,0.8-0.8S80.6,95.4,80.2,95.4z
				"/>
			<path fill="#231F20" d="M84.6,95.4h-1.4c-0.4,0-0.8,0.3-0.8,0.8s0.3,0.8,0.8,0.8h1.4c0.4,0,0.8-0.3,0.8-0.8S85,95.4,84.6,95.4z"
				/>
			<rect x="95.1" y="63.5" fill="#231F20" width="1" height="1.5"/>
			<rect x="101.1" y="63.5" fill="#231F20" width="1" height="1.5"/>
			<rect x="83.1" y="63.5" fill="#231F20" width="1" height="1.5"/>
			<rect x="92.1" y="63.5" fill="#231F20" width="1" height="1.5"/>
			<rect x="86.1" y="63.5" fill="#231F20" width="1" height="1.5"/>
			<rect x="89.1" y="63.5" fill="#231F20" width="1" height="1.5"/>
			<rect x="98.1" y="63.5" fill="#231F20" width="1" height="1.5"/>
			<rect x="77.1" y="63.5" fill="#231F20" width="1" height="1.5"/>
			<rect x="74.1" y="63.5" fill="#231F20" width="1" height="1.5"/>
			<rect x="80.1" y="63.5" fill="#231F20" width="1" height="1.5"/>
			<polygon fill="#231F20" points="110.8,63.5 105.1,63.5 104.1,63.5 104.1,65 105.1,65 112.3,65 112.3,58.9 127.5,74.2 112.3,89.4 
				112.3,83.4 73.8,83.4 73.8,84.9 110.8,84.9 110.8,93 129.7,74.2 110.8,55.3 			"/>
			<path fill="#231F20" d="M107.4,90.3c0.4,0,0.8-0.3,0.8-0.8c0-0.4-0.3-0.8-0.8-0.8H90.4c-0.4,0-0.8,0.3-0.8,0.8
				c0,0.4,0.3,0.8,0.8,0.8H107.4z"/>
			<path fill="#231F20" d="M86.8,71.3h16.9c0.4,0,0.8-0.3,0.8-0.8c0-0.4-0.3-0.8-0.8-0.8H86.8c-0.4,0-0.8,0.3-0.8,0.8
				C86,70.9,86.4,71.3,86.8,71.3z"/>
			<rect x="105.9" y="28.3" fill="#231F20" width="1" height="1.5"/>
			<rect x="102.9" y="28.3" fill="#231F20" width="1" height="1.5"/>
			<rect x="108.9" y="28.3" fill="#231F20" width="1" height="1.5"/>
			<rect x="96.9" y="28.3" fill="#231F20" width="1" height="1.5"/>
			<rect x="99.9" y="28.3" fill="#231F20" width="1" height="1.5"/>
			<rect x="88" y="28.3" fill="#231F20" width="1" height="1.5"/>
			<rect x="93.9" y="28.3" fill="#231F20" width="1" height="1.5"/>
			<rect x="90.9" y="28.3" fill="#231F20" width="1" height="1.5"/>
			<polygon fill="#231F20" points="118,29.8 118,26.1 127.5,35.7 118,45.2 118,41.6 88,41.6 88,43.1 116.5,43.1 116.5,48.9 
				129.7,35.7 116.5,22.5 116.5,28.3 112.9,28.3 111.9,28.3 111.9,29.8 112.9,29.8 			"/>
			<path fill="#231F20" d="M87.6,36.4h2.1c0.4,0,0.8-0.3,0.8-0.8c0-0.4-0.3-0.8-0.8-0.8h-2.1c-0.4,0-0.8,0.3-0.8,0.8
				C86.8,36.1,87.1,36.4,87.6,36.4z"/>
			<path fill="#231F20" d="M91.4,35.7c0,0.4,0.3,0.8,0.8,0.8h1.2c0.4,0,0.8-0.3,0.8-0.8c0-0.4-0.3-0.8-0.8-0.8h-1.2
				C91.7,34.9,91.4,35.3,91.4,35.7z"/>
			<path fill="#231F20" d="M95.7,36.4l14.2,0c0.4,0,0.8-0.3,0.8-0.8c0-0.4-0.3-0.8-0.8-0.8l-14.2,0c-0.4,0-0.8,0.3-0.8,0.8
				C94.9,36.1,95.3,36.4,95.7,36.4z"/>
			<path fill="#231F20" d="M84.4,47.8h14.2c0.4,0,0.8-0.3,0.8-0.8c0-0.4-0.3-0.8-0.8-0.8H84.4c-0.4,0-0.8,0.3-0.8,0.8
				C83.6,47.5,84,47.8,84.4,47.8z"/>
			<path fill="#231F20" d="M96.5,100.4H94c-0.4,0-0.8,0.3-0.8,0.8c0,0.4,0.3,0.8,0.8,0.8h2.5c0.4,0,0.8-0.3,0.8-0.8
				C97.3,100.8,97,100.4,96.5,100.4z"/>
			<path fill="#231F20" d="M100.9,100.4h-1.4c-0.4,0-0.8,0.3-0.8,0.8c0,0.4,0.3,0.8,0.8,0.8h1.4c0.4,0,0.8-0.3,0.8-0.8
				C101.6,100.8,101.3,100.4,100.9,100.4z"/>
			<path fill="#231F20" d="M120.7,100.4l-16.9,0c-0.4,0-0.8,0.3-0.8,0.8c0,0.4,0.3,0.8,0.8,0.8l16.9,0c0.4,0,0.8-0.3,0.8-0.8
				S121.1,100.4,120.7,100.4z"/>
			<path fill="#231F20" d="M105.1,96.1c0-0.4-0.3-0.8-0.8-0.8H87.4c-0.4,0-0.8,0.3-0.8,0.8s0.3,0.8,0.8,0.8h16.9
				C104.8,96.9,105.1,96.5,105.1,96.1z"/>
		</g>
		<path fill="#FFFFFF" d="M87.2,12.3H4.4c-2.1,0-3.8-1.7-3.8-3.8v-4c0-2.1,1.7-3.8,3.8-3.8h82.8c2.1,0,3.8,1.7,3.8,3.8v4
			C91,10.6,89.3,12.3,87.2,12.3z"/>
		<g>
			<path fill="#84DBFF" d="M4.4,10.3c-1,0-1.8-0.8-1.8-1.8v-4c0-1,0.8-1.8,1.8-1.8h82.8c1,0,1.8,0.8,1.8,1.8v4c0,1-0.8,1.8-1.8,1.8
				H4.4z"/>
		</g>
		<path fill="#FFFFFF" d="M4.4,117.2h82.8c2.1,0,3.8,1.7,3.8,3.8v4c0,2.1-1.7,3.8-3.8,3.8H4.4c-2.1,0-3.8-1.7-3.8-3.8v-4
			C0.6,118.9,2.3,117.2,4.4,117.2z"/>
		<g>
			<path fill="#84DBFF" d="M4.4,126.7c-1,0-1.8-0.8-1.8-1.8v-4c0-1,0.8-1.8,1.8-1.8h82.8c1,0,1.8,0.8,1.8,1.8v4c0,1-0.8,1.8-1.8,1.8
				H4.4z"/>
		</g>
		<path fill="#FFFFFF" d="M82.6,18.5v-6.2H9v6.2c0,16.1,18.3,36,29.1,46.2C27.3,75,9,94.8,9,111v6.2h73.5V111
			c0-16.1-18.3-36-29.1-46.2C64.3,54.5,82.6,34.7,82.6,18.5z"/>
		<path fill="#231F20" d="M83.3,18.5v-5.5h3.9c2.5,0,4.5-2,4.5-4.5v-4c0-2.5-2-4.5-4.5-4.5H4.4C1.9,0-0.2,2-0.2,4.5v4
			c0,2.5,2,4.5,4.5,4.5h3.9v5.5C8.3,34.6,26,54.2,37,64.7C26,75.3,8.3,94.9,8.3,111v5.5H4.4c-2.5,0-4.5,2-4.5,4.5v4
			c0,2.5,2,4.5,4.5,4.5h82.8c2.5,0,4.5-2,4.5-4.5v-4c0-2.5-2-4.5-4.5-4.5h-3.9V111c0-16.1-17.7-35.7-28.7-46.2
			C65.6,54.2,83.3,34.6,83.3,18.5z M1.3,8.5v-4c0-1.7,1.4-3,3-3h82.8c1.7,0,3,1.4,3,3v4c0,1.7-1.4,3-3,3H4.4
			C2.7,11.6,1.3,10.2,1.3,8.5z M90.2,121v4c0,1.7-1.4,3-3,3H4.4c-1.7,0-3-1.4-3-3v-4c0-1.7,1.4-3,3-3h82.8
			C88.9,117.9,90.2,119.3,90.2,121z M53,64.2c-0.1,0.1-0.2,0.3-0.2,0.5c0,0.2,0.1,0.4,0.2,0.5C63.7,75.6,81.8,95.1,81.8,111v5.5h-72
			V111c0-15.8,18.1-35.4,28.8-45.7c0.1-0.1,0.2-0.3,0.2-0.5c0-0.2-0.1-0.4-0.2-0.5C27.8,53.9,9.8,34.4,9.8,18.5v-5.5h72v5.5
			C81.8,34.4,63.7,53.9,53,64.2z"/>
		<g>
			<line fill="#FFFFFF" x1="45.8" y1="73.5" x2="45.8" y2="75.5"/>
			<rect x="45" y="73.5" fill="#231F20" width="1.5" height="2"/>
		</g>
		<g>
			<line fill="#FFFFFF" x1="45.8" y1="76.9" x2="45.8" y2="78.9"/>
			<rect x="45" y="76.9" fill="#231F20" width="1.5" height="2"/>
		</g>
		<g>
			<line fill="#FFFFFF" x1="45.8" y1="80.3" x2="45.8" y2="82.2"/>
			<rect x="45" y="80.3" fill="#231F20" width="1.5" height="2"/>
		</g>
		<g>
			<line fill="#FFFFFF" x1="45.8" y1="83.6" x2="45.8" y2="85.6"/>
			<rect x="45" y="83.6" fill="#231F20" width="1.5" height="2"/>
		</g>
		<g>
			<g>
				<line fill="#FFFFFF" x1="12.3" y1="113.1" x2="14.2" y2="113.1"/>
				<rect x="12.3" y="112.4" fill="#231F20" width="1.8" height="1.5"/>
			</g>
			<g>
				<line fill="#FFFFFF" x1="15.8" y1="113.1" x2="17.6" y2="113.1"/>
				<rect x="15.8" y="112.4" fill="#231F20" width="1.8" height="1.5"/>
			</g>
			<g>
				<line fill="#FFFFFF" x1="19.2" y1="113.1" x2="21" y2="113.1"/>
				<rect x="19.2" y="112.4" fill="#231F20" width="1.8" height="1.5"/>
			</g>
			<g>
				<line fill="#FFFFFF" x1="22.6" y1="113.1" x2="24.4" y2="113.1"/>
				<rect x="22.6" y="112.4" fill="#231F20" width="1.8" height="1.5"/>
			</g>
			<g>
				<line fill="#FFFFFF" x1="26" y1="113.1" x2="27.9" y2="113.1"/>
				<rect x="26" y="112.4" fill="#231F20" width="1.8" height="1.5"/>
			</g>
			<g>
				<line fill="#FFFFFF" x1="29.5" y1="113.1" x2="31.3" y2="113.1"/>
				<rect x="29.5" y="112.4" fill="#231F20" width="1.8" height="1.5"/>
			</g>
			<g>
				<line fill="#FFFFFF" x1="32.9" y1="113.1" x2="34.7" y2="113.1"/>
				<rect x="32.9" y="112.4" fill="#231F20" width="1.8" height="1.5"/>
			</g>
			<g>
				<line fill="#FFFFFF" x1="36.3" y1="113.1" x2="38.1" y2="113.1"/>
				<rect x="36.3" y="112.4" fill="#231F20" width="1.8" height="1.5"/>
			</g>
			<g>
				<line fill="#FFFFFF" x1="39.7" y1="113.1" x2="41.6" y2="113.1"/>
				<rect x="39.7" y="112.4" fill="#231F20" width="1.8" height="1.5"/>
			</g>
			<g>
				<line fill="#FFFFFF" x1="43.2" y1="113.1" x2="45" y2="113.1"/>
				<rect x="43.2" y="112.4" fill="#231F20" width="1.8" height="1.5"/>
			</g>
			<g>
				<line fill="#FFFFFF" x1="46.6" y1="113.1" x2="48.4" y2="113.1"/>
				<rect x="46.6" y="112.4" fill="#231F20" width="1.8" height="1.5"/>
			</g>
			<g>
				<line fill="#FFFFFF" x1="50" y1="113.1" x2="51.8" y2="113.1"/>
				<rect x="50" y="112.4" fill="#231F20" width="1.8" height="1.5"/>
			</g>
			<g>
				<line fill="#FFFFFF" x1="53.4" y1="113.1" x2="55.3" y2="113.1"/>
				<rect x="53.4" y="112.4" fill="#231F20" width="1.8" height="1.5"/>
			</g>
			<g>
				<line fill="#FFFFFF" x1="56.9" y1="113.1" x2="58.7" y2="113.1"/>
				<rect x="56.9" y="112.4" fill="#231F20" width="1.8" height="1.5"/>
			</g>
			<g>
				<line fill="#FFFFFF" x1="60.3" y1="113.1" x2="62.1" y2="113.1"/>
				<rect x="60.3" y="112.4" fill="#231F20" width="1.8" height="1.5"/>
			</g>
			<g>
				<line fill="#FFFFFF" x1="63.7" y1="113.1" x2="65.5" y2="113.1"/>
				<rect x="63.7" y="112.4" fill="#231F20" width="1.8" height="1.5"/>
			</g>
			<g>
				<line fill="#FFFFFF" x1="67.1" y1="113.1" x2="69" y2="113.1"/>
				<rect x="67.1" y="112.4" fill="#231F20" width="1.8" height="1.5"/>
			</g>
			<g>
				<line fill="#FFFFFF" x1="70.6" y1="113.1" x2="72.4" y2="113.1"/>
				<rect x="70.6" y="112.4" fill="#231F20" width="1.8" height="1.5"/>
			</g>
			<g>
				<line fill="#FFFFFF" x1="74" y1="113.1" x2="75.8" y2="113.1"/>
				<rect x="74" y="112.4" fill="#231F20" width="1.8" height="1.5"/>
			</g>
			<g>
				<line fill="#FFFFFF" x1="77.4" y1="113.1" x2="79.3" y2="113.1"/>
				<rect x="77.4" y="112.4" fill="#231F20" width="1.8" height="1.5"/>
			</g>
		</g>
		<g>
			<g>
				<line fill="#FFFFFF" x1="14" y1="108.5" x2="15.9" y2="108.5"/>
				<rect x="14" y="107.8" fill="#231F20" width="1.8" height="1.5"/>
			</g>
			<g>
				<line fill="#FFFFFF" x1="17.5" y1="108.5" x2="19.3" y2="108.5"/>
				<rect x="17.5" y="107.8" fill="#231F20" width="1.8" height="1.5"/>
			</g>
			<g>
				<line fill="#FFFFFF" x1="20.9" y1="108.5" x2="22.7" y2="108.5"/>
				<rect x="20.9" y="107.8" fill="#231F20" width="1.8" height="1.5"/>
			</g>
			<g>
				<line fill="#FFFFFF" x1="24.3" y1="108.5" x2="26.1" y2="108.5"/>
				<rect x="24.3" y="107.8" fill="#231F20" width="1.8" height="1.5"/>
			</g>
			<g>
				<line fill="#FFFFFF" x1="27.7" y1="108.5" x2="29.6" y2="108.5"/>
				<rect x="27.7" y="107.8" fill="#231F20" width="1.8" height="1.5"/>
			</g>
			<g>
				<line fill="#FFFFFF" x1="31.2" y1="108.5" x2="33" y2="108.5"/>
				<rect x="31.2" y="107.8" fill="#231F20" width="1.8" height="1.5"/>
			</g>
			<g>
				<line fill="#FFFFFF" x1="34.6" y1="108.5" x2="36.4" y2="108.5"/>
				<rect x="34.6" y="107.8" fill="#231F20" width="1.8" height="1.5"/>
			</g>
			<g>
				<line fill="#FFFFFF" x1="38" y1="108.5" x2="39.8" y2="108.5"/>
				<rect x="38" y="107.8" fill="#231F20" width="1.8" height="1.5"/>
			</g>
			<g>
				<line fill="#FFFFFF" x1="41.4" y1="108.5" x2="43.3" y2="108.5"/>
				<rect x="41.4" y="107.8" fill="#231F20" width="1.8" height="1.5"/>
			</g>
			<g>
				<line fill="#FFFFFF" x1="44.9" y1="108.5" x2="46.7" y2="108.5"/>
				<rect x="44.9" y="107.8" fill="#231F20" width="1.8" height="1.5"/>
			</g>
			<g>
				<line fill="#FFFFFF" x1="48.3" y1="108.5" x2="50.1" y2="108.5"/>
				<rect x="48.3" y="107.8" fill="#231F20" width="1.8" height="1.5"/>
			</g>
			<g>
				<line fill="#FFFFFF" x1="51.7" y1="108.5" x2="53.6" y2="108.5"/>
				<rect x="51.7" y="107.8" fill="#231F20" width="1.8" height="1.5"/>
			</g>
			<g>
				<line fill="#FFFFFF" x1="55.2" y1="108.5" x2="57" y2="108.5"/>
				<rect x="55.2" y="107.8" fill="#231F20" width="1.8" height="1.5"/>
			</g>
			<g>
				<line fill="#FFFFFF" x1="58.6" y1="108.5" x2="60.4" y2="108.5"/>
				<rect x="58.6" y="107.8" fill="#231F20" width="1.8" height="1.5"/>
			</g>
			<g>
				<line fill="#FFFFFF" x1="62" y1="108.5" x2="63.8" y2="108.5"/>
				<rect x="62" y="107.8" fill="#231F20" width="1.8" height="1.5"/>
			</g>
			<g>
				<line fill="#FFFFFF" x1="65.4" y1="108.5" x2="67.3" y2="108.5"/>
				<rect x="65.4" y="107.8" fill="#231F20" width="1.8" height="1.5"/>
			</g>
			<g>
				<line fill="#FFFFFF" x1="68.9" y1="108.5" x2="70.7" y2="108.5"/>
				<rect x="68.9" y="107.8" fill="#231F20" width="1.8" height="1.5"/>
			</g>
			<g>
				<line fill="#FFFFFF" x1="72.3" y1="108.5" x2="74.1" y2="108.5"/>
				<rect x="72.3" y="107.8" fill="#231F20" width="1.8" height="1.5"/>
			</g>
			<g>
				<line fill="#FFFFFF" x1="75.7" y1="108.5" x2="77.5" y2="108.5"/>
				<rect x="75.7" y="107.8" fill="#231F20" width="1.8" height="1.5"/>
			</g>
		</g>
		<g>
			<g>
				<line fill="#FFFFFF" x1="15.8" y1="104" x2="17.6" y2="104"/>
				<rect x="15.8" y="103.2" fill="#231F20" width="1.8" height="1.5"/>
			</g>
			<g>
				<line fill="#FFFFFF" x1="19.2" y1="104" x2="21" y2="104"/>
				<rect x="19.2" y="103.2" fill="#231F20" width="1.8" height="1.5"/>
			</g>
			<g>
				<line fill="#FFFFFF" x1="22.6" y1="104" x2="24.4" y2="104"/>
				<rect x="22.6" y="103.2" fill="#231F20" width="1.8" height="1.5"/>
			</g>
			<g>
				<line fill="#FFFFFF" x1="26" y1="104" x2="27.9" y2="104"/>
				<rect x="26" y="103.2" fill="#231F20" width="1.8" height="1.5"/>
			</g>
			<g>
				<line fill="#FFFFFF" x1="29.5" y1="104" x2="31.3" y2="104"/>
				<rect x="29.5" y="103.2" fill="#231F20" width="1.8" height="1.5"/>
			</g>
			<g>
				<line fill="#FFFFFF" x1="32.9" y1="104" x2="34.7" y2="104"/>
				<rect x="32.9" y="103.2" fill="#231F20" width="1.8" height="1.5"/>
			</g>
			<g>
				<line fill="#FFFFFF" x1="36.3" y1="104" x2="38.1" y2="104"/>
				<rect x="36.3" y="103.2" fill="#231F20" width="1.8" height="1.5"/>
			</g>
			<g>
				<line fill="#FFFFFF" x1="39.7" y1="104" x2="41.6" y2="104"/>
				<rect x="39.7" y="103.2" fill="#231F20" width="1.8" height="1.5"/>
			</g>
			<g>
				<line fill="#FFFFFF" x1="43.2" y1="104" x2="45" y2="104"/>
				<rect x="43.2" y="103.2" fill="#231F20" width="1.8" height="1.5"/>
			</g>
			<g>
				<line fill="#FFFFFF" x1="46.6" y1="104" x2="48.4" y2="104"/>
				<rect x="46.6" y="103.2" fill="#231F20" width="1.8" height="1.5"/>
			</g>
			<g>
				<line fill="#FFFFFF" x1="50" y1="104" x2="51.8" y2="104"/>
				<rect x="50" y="103.2" fill="#231F20" width="1.8" height="1.5"/>
			</g>
			<g>
				<line fill="#FFFFFF" x1="53.4" y1="104" x2="55.3" y2="104"/>
				<rect x="53.4" y="103.2" fill="#231F20" width="1.8" height="1.5"/>
			</g>
			<g>
				<line fill="#FFFFFF" x1="56.9" y1="104" x2="58.7" y2="104"/>
				<rect x="56.9" y="103.2" fill="#231F20" width="1.8" height="1.5"/>
			</g>
			<g>
				<line fill="#FFFFFF" x1="60.3" y1="104" x2="62.1" y2="104"/>
				<rect x="60.3" y="103.2" fill="#231F20" width="1.8" height="1.5"/>
			</g>
			<g>
				<line fill="#FFFFFF" x1="63.7" y1="104" x2="65.5" y2="104"/>
				<rect x="63.7" y="103.2" fill="#231F20" width="1.8" height="1.5"/>
			</g>
			<g>
				<line fill="#FFFFFF" x1="67.1" y1="104" x2="69" y2="104"/>
				<rect x="67.1" y="103.2" fill="#231F20" width="1.8" height="1.5"/>
			</g>
			<g>
				<line fill="#FFFFFF" x1="70.6" y1="104" x2="72.4" y2="104"/>
				<rect x="70.6" y="103.2" fill="#231F20" width="1.8" height="1.5"/>
			</g>
			<g>
				<line fill="#FFFFFF" x1="74" y1="104" x2="75.8" y2="104"/>
				<rect x="74" y="103.2" fill="#231F20" width="1.8" height="1.5"/>
			</g>
		</g>
		<g>
			<line fill="#FFFFFF" x1="58.7" y1="55.6" x2="56.9" y2="55.6"/>
			<rect x="56.9" y="54.9" fill="#231F20" width="1.8" height="1.5"/>
		</g>
		<g>
			<line fill="#FFFFFF" x1="55.3" y1="55.6" x2="53.4" y2="55.6"/>
			<rect x="53.4" y="54.9" fill="#231F20" width="1.8" height="1.5"/>
		</g>
		<g>
			<line fill="#FFFFFF" x1="51.8" y1="55.6" x2="50" y2="55.6"/>
			<rect x="50" y="54.9" fill="#231F20" width="1.8" height="1.5"/>
		</g>
		<g>
			<line fill="#FFFFFF" x1="48.4" y1="55.6" x2="46.6" y2="55.6"/>
			<rect x="46.6" y="54.9" fill="#231F20" width="1.8" height="1.5"/>
		</g>
		<g>
			<line fill="#FFFFFF" x1="45" y1="55.6" x2="43.2" y2="55.6"/>
			<rect x="43.2" y="54.9" fill="#231F20" width="1.8" height="1.5"/>
		</g>
		<g>
			<line fill="#FFFFFF" x1="41.6" y1="55.6" x2="39.7" y2="55.6"/>
			<rect x="39.7" y="54.9" fill="#231F20" width="1.8" height="1.5"/>
		</g>
		<g>
			<line fill="#FFFFFF" x1="38.1" y1="55.6" x2="36.3" y2="55.6"/>
			<rect x="36.3" y="54.9" fill="#231F20" width="1.8" height="1.5"/>
		</g>
		<g>
			<line fill="#FFFFFF" x1="34.7" y1="55.6" x2="32.9" y2="55.6"/>
			<rect x="32.9" y="54.9" fill="#231F20" width="1.8" height="1.5"/>
		</g>
		<g>
			<g>
				<line fill="#FFFFFF" x1="55.3" y1="60.2" x2="53.4" y2="60.2"/>
				<rect x="53.4" y="59.5" fill="#231F20" width="1.8" height="1.5"/>
			</g>
			<g>
				<line fill="#FFFFFF" x1="51.8" y1="60.2" x2="50" y2="60.2"/>
				<rect x="50" y="59.5" fill="#231F20" width="1.8" height="1.5"/>
			</g>
			<g>
				<line fill="#FFFFFF" x1="48.4" y1="60.2" x2="46.6" y2="60.2"/>
				<rect x="46.6" y="59.5" fill="#231F20" width="1.8" height="1.5"/>
			</g>
			<g>
				<line fill="#FFFFFF" x1="45" y1="60.2" x2="43.2" y2="60.2"/>
				<rect x="43.2" y="59.5" fill="#231F20" width="1.8" height="1.5"/>
			</g>
			<g>
				<line fill="#FFFFFF" x1="41.6" y1="60.2" x2="39.7" y2="60.2"/>
				<rect x="39.7" y="59.5" fill="#231F20" width="1.8" height="1.5"/>
			</g>
			<g>
				<line fill="#FFFFFF" x1="38.1" y1="60.2" x2="36.3" y2="60.2"/>
				<rect x="36.3" y="59.5" fill="#231F20" width="1.8" height="1.5"/>
			</g>
		</g>
		<g>
			<line fill="#FFFFFF" x1="55.3" y1="64.7" x2="53.4" y2="64.7"/>
			<rect x="53.4" y="64" fill="#231F20" width="1.8" height="1.5"/>
		</g>
		<g>
			<line fill="#FFFFFF" x1="51.8" y1="64.7" x2="50" y2="64.7"/>
			<rect x="50" y="64" fill="#231F20" width="1.8" height="1.5"/>
		</g>
		<g>
			<line fill="#FFFFFF" x1="48.4" y1="64.7" x2="46.6" y2="64.7"/>
			<rect x="46.6" y="64" fill="#231F20" width="1.8" height="1.5"/>
		</g>
		<g>
			<line fill="#FFFFFF" x1="45" y1="64.7" x2="43.2" y2="64.7"/>
			<rect x="43.2" y="64" fill="#231F20" width="1.8" height="1.5"/>
		</g>
		<g>
			<line fill="#FFFFFF" x1="41.6" y1="64.7" x2="39.7" y2="64.7"/>
			<rect x="39.7" y="64" fill="#231F20" width="1.8" height="1.5"/>
		</g>
		<g>
			<line fill="#FFFFFF" x1="38.1" y1="64.7" x2="36.3" y2="64.7"/>
			<rect x="36.3" y="64" fill="#231F20" width="1.8" height="1.5"/>
		</g>
		<g>
			<circle fill="#FFFFFF" cx="59.8" cy="28.2" r="5"/>
			<path fill="#231F20" d="M59.8,34c-3.2,0-5.8-2.6-5.8-5.8c0-3.2,2.6-5.8,5.8-5.8s5.8,2.6,5.8,5.8C65.5,31.4,62.9,34,59.8,34z
				 M59.8,24c-2.4,0-4.3,1.9-4.3,4.3c0,2.4,1.9,4.3,4.3,4.3s4.3-1.9,4.3-4.3C64,25.9,62.1,24,59.8,24z"/>
		</g>
		<g>
			<circle fill="#FFFFFF" cx="33.3" cy="38.3" r="3"/>
			<path fill="#231F20" d="M33.3,42.1c-2.1,0-3.8-1.7-3.8-3.8c0-2.1,1.7-3.8,3.8-3.8c2.1,0,3.8,1.7,3.8,3.8
				C37.1,40.4,35.4,42.1,33.3,42.1z M33.3,36C32,36,31,37,31,38.3c0,1.3,1,2.3,2.3,2.3c1.3,0,2.3-1,2.3-2.3C35.6,37,34.5,36,33.3,36
				z"/>
		</g>
	</g>
</g>
</svg>
