<?xml version="1.0" encoding="utf-8"?>
<!-- Generator: Adobe Illustrator 18.0.0, SVG Export Plug-In . SVG Version: 6.00 Build 0)  -->
<!DOCTYPE svg PUBLIC "-//W3C//DTD SVG 1.1//EN" "http://www.w3.org/Graphics/SVG/1.1/DTD/svg11.dtd">
<svg version="1.1" id="Layer_1" xmlns="http://www.w3.org/2000/svg" xmlns:xlink="http://www.w3.org/1999/xlink" x="0px" y="0px"
	 viewBox="0 0 129.5 129.5" enable-background="new 0 0 129.5 129.5" xml:space="preserve">
<g>
	<g>
		<g>
			<path fill="#FF7058" d="M64,17.6C34,17.6,9.5,42.1,9.5,72.2c0,30.1,24.5,54.6,54.6,54.6c30.1,0,54.6-24.5,54.6-54.6
				C118.6,42.1,94.1,17.6,64,17.6z M64,120.2c-26.5,0-48-21.5-48-48c0-26.5,21.5-48,48-48c26.5,0,48,21.5,48,48
				C112,98.7,90.5,120.2,64,120.2z"/>
		</g>
		<g>
			<path fill="#231F20" d="M64,124c-28.6,0-51.8-23.3-51.8-51.8h1.5c0,27.8,22.6,50.3,50.3,50.3V124z"/>
		</g>
		<g>
			<path fill="#231F20" d="M65.3,124l0-1.5c0.3,0,0.7,0,1,0l0.1,1.5C66,124,65.7,124,65.3,124z M68.4,123.9l-0.1-1.5
				c0.3,0,0.7-0.1,1-0.1l0.2,1.5C69,123.8,68.7,123.8,68.4,123.9z M71.4,123.5l-0.2-1.5c0.3,0,0.6-0.1,1-0.1l0.2,1.5
				C72.1,123.4,71.7,123.5,71.4,123.5z M74.4,123l-0.3-1.5c0.3-0.1,0.6-0.1,1-0.2l0.3,1.5C75,122.9,74.7,122.9,74.4,123z
				 M77.3,122.3l-0.4-1.4c0.3-0.1,0.6-0.2,0.9-0.3l0.4,1.4C78,122.1,77.7,122.2,77.3,122.3z M80.3,121.4l-0.5-1.4
				c0.3-0.1,0.6-0.2,0.9-0.3l0.5,1.4C80.9,121.2,80.6,121.3,80.3,121.4z M83.1,120.4l-0.6-1.4c0.3-0.1,0.6-0.2,0.9-0.4l0.6,1.4
				C83.7,120.1,83.4,120.3,83.1,120.4z M85.9,119.2l-0.6-1.4c0.3-0.1,0.6-0.3,0.9-0.4l0.7,1.3C86.5,118.9,86.2,119.1,85.9,119.2z
				 M88.6,117.8l-0.7-1.3c0.3-0.2,0.6-0.3,0.9-0.5l0.7,1.3C89.2,117.5,88.9,117.7,88.6,117.8z M91.2,116.3l-0.8-1.3
				c0.3-0.2,0.6-0.3,0.8-0.5l0.8,1.3C91.8,116,91.5,116.1,91.2,116.3z M93.8,114.6l-0.9-1.2c0.3-0.2,0.5-0.4,0.8-0.6l0.9,1.2
				C94.3,114.2,94.1,114.4,93.8,114.6z M96.2,112.8l-0.9-1.2c0.3-0.2,0.5-0.4,0.8-0.6l1,1.2C96.7,112.4,96.5,112.6,96.2,112.8z
				 M98.5,110.9l-1-1.1c0.2-0.2,0.5-0.4,0.7-0.7l1,1.1C99,110.4,98.8,110.6,98.5,110.9z M100.8,108.8l-1.1-1.1
				c0.2-0.2,0.5-0.5,0.7-0.7l1.1,1C101.2,108.3,101,108.5,100.8,108.8z M102.8,106.6l-1.1-1c0.2-0.2,0.4-0.5,0.6-0.7l1.1,1
				C103.3,106,103.1,106.3,102.8,106.6z M104.8,104.2l-1.2-0.9c0.2-0.3,0.4-0.5,0.6-0.8l1.2,0.9C105.2,103.7,105,103.9,104.8,104.2z
				 M106.6,101.8l-1.2-0.9c0.2-0.3,0.4-0.5,0.6-0.8l1.2,0.8C107,101.2,106.8,101.5,106.6,101.8z M108.3,99.2l-1.3-0.8
				c0.2-0.3,0.3-0.6,0.5-0.8l1.3,0.8C108.6,98.6,108.4,98.9,108.3,99.2z M109.8,96.6l-1.3-0.7c0.2-0.3,0.3-0.6,0.5-0.9l1.3,0.7
				C110.1,96,109.9,96.3,109.8,96.6z M111.1,93.8l-1.4-0.6c0.1-0.3,0.3-0.6,0.4-0.9l1.4,0.6C111.4,93.2,111.3,93.5,111.1,93.8z
				 M112.3,91l-1.4-0.5c0.1-0.3,0.2-0.6,0.4-0.9l1.4,0.5C112.6,90.4,112.5,90.7,112.3,91z M113.4,88.2l-1.4-0.5
				c0.1-0.3,0.2-0.6,0.3-0.9l1.4,0.4C113.6,87.5,113.5,87.8,113.4,88.2z M114.2,85.2l-1.5-0.4c0.1-0.3,0.2-0.6,0.2-1l1.5,0.3
				C114.4,84.6,114.3,84.9,114.2,85.2z M114.9,82.3l-1.5-0.3c0.1-0.3,0.1-0.6,0.2-1l1.5,0.3C115,81.6,115,81.9,114.9,82.3z
				 M115.4,79.3l-1.5-0.2c0-0.3,0.1-0.7,0.1-1l1.5,0.2C115.5,78.6,115.4,78.9,115.4,79.3z M115.7,76.3l-1.5-0.1c0-0.3,0-0.7,0.1-1
				l1.5,0.1C115.8,75.6,115.8,75.9,115.7,76.3z M115.9,73.2l-1.5,0c0-0.3,0-0.7,0-1h1.5C115.9,72.5,115.9,72.9,115.9,73.2z"/>
		</g>
		<g>
			<path fill="#231F20" d="M115.9,72.2h-1.5c0-27.8-22.6-50.3-50.3-50.3v-1.5C92.6,20.4,115.9,43.6,115.9,72.2z"/>
		</g>
		<g>
			<path fill="#231F20" d="M13.7,72.2h-1.5c0-0.3,0-0.7,0-1l1.5,0C13.7,71.5,13.7,71.9,13.7,72.2z M13.8,69.2l-1.5-0.1
				c0-0.3,0-0.7,0.1-1l1.5,0.1C13.8,68.6,13.8,68.9,13.8,69.2z M14,66.3l-1.5-0.2c0-0.3,0.1-0.7,0.1-1l1.5,0.2
				C14.1,65.6,14.1,66,14,66.3z M14.5,63.4L13,63.1c0.1-0.3,0.1-0.7,0.2-1l1.5,0.3C14.6,62.7,14.5,63.1,14.5,63.4z M15.1,60.5
				l-1.5-0.3c0.1-0.3,0.2-0.7,0.2-1l1.5,0.4C15.2,59.8,15.2,60.2,15.1,60.5z M15.9,57.6l-1.4-0.4c0.1-0.3,0.2-0.6,0.3-1l1.4,0.5
				C16,57,15.9,57.3,15.9,57.6z M16.8,54.8l-1.4-0.5c0.1-0.3,0.2-0.6,0.4-1l1.4,0.5C17,54.2,16.9,54.5,16.8,54.8z M17.9,52.1
				l-1.4-0.6c0.1-0.3,0.3-0.6,0.4-0.9l1.4,0.6C18.2,51.5,18,51.8,17.9,52.1z M19.2,49.4l-1.3-0.7c0.2-0.3,0.3-0.6,0.5-0.9l1.3,0.7
				C19.5,48.8,19.3,49.1,19.2,49.4z M20.6,46.8L19.3,46c0.2-0.3,0.3-0.6,0.5-0.9l1.3,0.8C20.9,46.2,20.8,46.5,20.6,46.8z M22.2,44.3
				l-1.2-0.8c0.2-0.3,0.4-0.6,0.6-0.8l1.2,0.9C22.5,43.8,22.3,44,22.2,44.3z M23.9,41.9L22.7,41c0.2-0.3,0.4-0.5,0.6-0.8l1.2,0.9
				C24.3,41.4,24.1,41.6,23.9,41.9z M25.7,39.6l-1.1-1c0.2-0.3,0.4-0.5,0.7-0.8l1.1,1C26.2,39.1,25.9,39.3,25.7,39.6z M27.7,37.4
				l-1.1-1c0.2-0.2,0.5-0.5,0.7-0.7l1.1,1.1C28.2,36.9,27.9,37.2,27.7,37.4z M29.8,35.3l-1-1.1c0.2-0.2,0.5-0.5,0.8-0.7l1,1.1
				C30.3,34.9,30.1,35.1,29.8,35.3z M32,33.4l-1-1.2c0.3-0.2,0.5-0.4,0.8-0.6l0.9,1.2C32.5,33,32.3,33.2,32,33.4z M34.4,31.6
				l-0.9-1.2c0.3-0.2,0.5-0.4,0.8-0.6l0.9,1.2C34.9,31.2,34.6,31.4,34.4,31.6z M36.8,29.9L36,28.6c0.3-0.2,0.6-0.4,0.9-0.5l0.8,1.3
				C37.4,29.5,37.1,29.7,36.8,29.9z M39.3,28.4L38.6,27c0.3-0.2,0.6-0.3,0.9-0.5l0.7,1.3C39.9,28,39.6,28.2,39.3,28.4z M41.9,27
				l-0.7-1.3c0.3-0.1,0.6-0.3,0.9-0.4l0.6,1.4C42.5,26.7,42.2,26.8,41.9,27z M44.6,25.8L44,24.4c0.3-0.1,0.6-0.3,0.9-0.4l0.6,1.4
				C45.2,25.5,44.9,25.6,44.6,25.8z M47.4,24.7l-0.5-1.4c0.3-0.1,0.6-0.2,1-0.3l0.5,1.4C48,24.5,47.7,24.6,47.4,24.7z M50.2,23.8
				l-0.4-1.4c0.3-0.1,0.7-0.2,1-0.3l0.4,1.4C50.8,23.6,50.5,23.7,50.2,23.8z M53,23.1l-0.3-1.5c0.3-0.1,0.7-0.1,1-0.2l0.3,1.5
				C53.7,22.9,53.4,23,53,23.1z M55.9,22.5L55.7,21c0.3-0.1,0.7-0.1,1-0.2l0.2,1.5C56.6,22.4,56.3,22.5,55.9,22.5z M58.9,22.1
				l-0.2-1.5c0.3,0,0.7-0.1,1-0.1l0.1,1.5C59.5,22.1,59.2,22.1,58.9,22.1z M61.8,21.9l-0.1-1.5c0.3,0,0.7,0,1,0l0,1.5
				C62.5,21.9,62.1,21.9,61.8,21.9z"/>
		</g>
		<path fill="#E6E9EE" d="M67.3,7.6v8.2c-1.1-0.1-2.2-0.1-3.3-0.1c-1.1,0-2.2,0-3.3,0.1V7.6H67.3z"/>
		<g>
			<path fill="#231F20" d="M102.1,29.4l2.3-2.8l3.8,3c0.1,0.1,0.3,0.2,0.5,0.2c0,0,0.1,0,0.1,0c0.2,0,0.4-0.1,0.5-0.3l2.7-3.3
				c0.3-0.3,0.2-0.8-0.1-1.1l-8.7-7c-0.3-0.3-0.8-0.2-1.1,0.1l-2.7,3.3c-0.1,0.2-0.2,0.4-0.2,0.6c0,0.2,0.1,0.4,0.3,0.5l3.8,3.1
				l-2.2,2.7C92,20.8,80.6,15.9,68.1,15V8.3H75c0.4,0,0.8-0.3,0.8-0.8V0.8C75.8,0.3,75.4,0,75,0H53.1c-0.4,0-0.8,0.3-0.8,0.8v6.8
				c0,0.4,0.3,0.8,0.8,0.8H60V15c-12.5,0.9-23.9,5.8-32.9,13.4l-2.2-2.7l3.8-3.1c0.2-0.1,0.3-0.3,0.3-0.5c0-0.2,0-0.4-0.2-0.6
				l-2.7-3.3C25.8,18,25.3,18,25,18.2l-8.7,7C16,25.5,16,26,16.2,26.3l2.7,3.3c0.1,0.2,0.3,0.3,0.5,0.3c0,0,0.1,0,0.1,0
				c0.2,0,0.3-0.1,0.5-0.2l3.8-3l2.3,2.8C14.2,39.9,6.7,55.2,6.7,72.2c0,31.6,25.7,57.3,57.3,57.3s57.3-25.7,57.3-57.3
				C121.3,55.2,113.9,39.9,102.1,29.4z M101,22l1.7-2.1l7.5,6.1l-1.7,2.1L101,22z M19.6,28.1L17.9,26l7.5-6.1l1.7,2.1L19.6,28.1z
				 M53.8,1.5h20.4v5.3H53.8V1.5z M61.5,8.3h5.1V15c-0.8,0-1.7-0.1-2.5-0.1c-0.9,0-1.7,0-2.5,0.1V8.3z M64,128
				c-30.8,0-55.8-25-55.8-55.8c0-30.8,25-55.8,55.8-55.8s55.8,25,55.8,55.8C119.8,103,94.8,128,64,128z"/>
			<path fill="#231F20" d="M64,25.5c-0.4,0-0.8,0-1.2,0c-25.2,0.7-45.5,21.3-45.5,46.7c0,25.8,21,46.7,46.7,46.7c0.4,0,0.8,0,1.2,0
				c25.2-0.7,45.5-21.3,45.5-46.7C110.8,46.4,89.8,25.5,64,25.5z M65.2,117.4c-0.4,0-0.8,0-1.1,0c-24.9,0-45.2-20.3-45.2-45.2
				c0-21,14.3-38.6,33.7-43.7c-7.3,4.1-12.2,11.8-12.2,20.7C40.3,62.3,51,72.9,64,72.9c12.3,0,22.2,10,22.2,22.2
				C86.3,107.1,76.9,116.8,65.2,117.4z M75.6,115.9c7.3-4.1,12.2-11.8,12.2-20.7c0-13.1-10.6-23.7-23.7-23.7
				c-12.3,0-22.2-10-22.2-22.2C41.8,36.9,51.8,27,64,27c24.9,0,45.2,20.3,45.2,45.2C109.3,93.2,94.9,110.8,75.6,115.9z"/>
		</g>
		<g>
			<path fill="#FF7058" d="M64,89.6L64,89.6c-3.1,0-5.6,2.5-5.6,5.6l0,0c0,3.1,2.5,5.6,5.6,5.6h0c3.1,0,5.6-2.5,5.6-5.6l0,0
				C69.7,92.1,67.1,89.6,64,89.6z"/>
		</g>
		<g>
			<path fill="#84DBFF" d="M64,43.6L64,43.6c-3.1,0-5.6,2.5-5.6,5.6l0,0c0,3.1,2.5,5.6,5.6,5.6h0c3.1,0,5.6-2.5,5.6-5.6l0,0
				C69.7,46.1,67.1,43.6,64,43.6z"/>
		</g>
		<g>
			<path fill="#231F20" d="M64,58.6c-5.2,0-9.4-4.2-9.4-9.4c0-5.2,4.2-9.4,9.4-9.4c5.2,0,9.4,4.2,9.4,9.4
				C73.4,54.4,69.2,58.6,64,58.6z M64,41.3c-4.3,0-7.9,3.5-7.9,7.9c0,4.3,3.5,7.9,7.9,7.9c4.3,0,7.9-3.5,7.9-7.9
				C71.9,44.9,68.4,41.3,64,41.3z"/>
		</g>
		<g>
			<path fill="#231F20" d="M64,104.5c-5.2,0-9.4-4.2-9.4-9.4c0-5.2,4.2-9.4,9.4-9.4c5.2,0,9.4,4.2,9.4,9.4
				C73.4,100.3,69.2,104.5,64,104.5z M64,87.3c-4.3,0-7.9,3.5-7.9,7.9s3.5,7.9,7.9,7.9c4.3,0,7.9-3.5,7.9-7.9S68.4,87.3,64,87.3z"/>
		</g>
		<g>
			<circle fill="#E6E9EE" cx="9.2" cy="30.9" r="2.2"/>
		</g>
		<g>
			<circle fill="#FFD05B" cx="41.1" cy="6.5" r="2.2"/>
		</g>
		<g>
			<circle fill="#84DBFF" cx="93.9" cy="10.5" r="2.2"/>
		</g>
		<g>
			<circle fill="#E6E9EE" cx="120.6" cy="120.5" r="2.2"/>
		</g>
		<g>
			<circle fill="#FF7058" cx="9.2" cy="108.5" r="2.2"/>
		</g>
		<g>
			<g>
				<path fill="#231F20" d="M13.2,7.9c-0.2,0-0.4-0.1-0.5-0.2c-0.3-0.3-0.3-0.8,0-1.1l1.3-1.3C14.2,5,14.7,5,15,5.3
					c0.3,0.3,0.3,0.8,0,1.1l-1.3,1.3C13.6,7.8,13.4,7.9,13.2,7.9z"/>
			</g>
			<g>
				<path fill="#231F20" d="M9.2,11.9c-0.2,0-0.4-0.1-0.5-0.2c-0.3-0.3-0.3-0.8,0-1.1l1.3-1.3c0.3-0.3,0.8-0.3,1.1,0
					c0.3,0.3,0.3,0.8,0,1.1l-1.3,1.3C9.5,11.8,9.3,11.9,9.2,11.9z"/>
			</g>
			<g>
				<path fill="#231F20" d="M14.5,11.9c-0.2,0-0.4-0.1-0.5-0.2l-1.3-1.3c-0.3-0.3-0.3-0.8,0-1.1c0.3-0.3,0.8-0.3,1.1,0l1.3,1.3
					c0.3,0.3,0.3,0.8,0,1.1C14.9,11.8,14.7,11.9,14.5,11.9z"/>
			</g>
			<g>
				<path fill="#231F20" d="M10.4,7.9c-0.2,0-0.4-0.1-0.5-0.2L8.6,6.4c-0.3-0.3-0.3-0.8,0-1.1C8.9,5,9.4,5,9.7,5.3L11,6.6
					c0.3,0.3,0.3,0.8,0,1.1C10.8,7.8,10.6,7.9,10.4,7.9z"/>
			</g>
		</g>
		<g>
			<g>
				<path fill="#231F20" d="M112.7,7c-0.2,0-0.4-0.1-0.5-0.2c-0.3-0.3-0.3-0.8,0-1.1l1.3-1.3c0.3-0.3,0.8-0.3,1.1,0
					c0.3,0.3,0.3,0.8,0,1.1l-1.3,1.3C113,6.9,112.8,7,112.7,7z"/>
			</g>
			<g>
				<path fill="#231F20" d="M108.6,11c-0.2,0-0.4-0.1-0.5-0.2c-0.3-0.3-0.3-0.8,0-1.1l1.3-1.3c0.3-0.3,0.8-0.3,1.1,0
					c0.3,0.3,0.3,0.8,0,1.1l-1.3,1.3C109,10.9,108.8,11,108.6,11z"/>
			</g>
			<g>
				<path fill="#231F20" d="M113.9,11c-0.2,0-0.4-0.1-0.5-0.2l-1.3-1.3c-0.3-0.3-0.3-0.8,0-1.1c0.3-0.3,0.8-0.3,1.1,0l1.3,1.3
					c0.3,0.3,0.3,0.8,0,1.1C114.3,10.9,114.1,11,113.9,11z"/>
			</g>
			<g>
				<path fill="#231F20" d="M109.9,7c-0.2,0-0.4-0.1-0.5-0.2l-1.3-1.3c-0.3-0.3-0.3-0.8,0-1.1c0.3-0.3,0.8-0.3,1.1,0l1.3,1.3
					c0.3,0.3,0.3,0.8,0,1.1C110.3,6.9,110.1,7,109.9,7z"/>
			</g>
		</g>
		<g>
			<g>
				<path fill="#231F20" d="M14.3,118.5c-0.2,0-0.4-0.1-0.5-0.2c-0.3-0.3-0.3-0.8,0-1.1l1.3-1.3c0.3-0.3,0.8-0.3,1.1,0
					c0.3,0.3,0.3,0.8,0,1.1l-1.3,1.3C14.7,118.4,14.5,118.5,14.3,118.5z"/>
			</g>
			<g>
				<path fill="#231F20" d="M10.3,122.5c-0.2,0-0.4-0.1-0.5-0.2c-0.3-0.3-0.3-0.8,0-1.1l1.3-1.3c0.3-0.3,0.8-0.3,1.1,0
					c0.3,0.3,0.3,0.8,0,1.1l-1.3,1.3C10.7,122.4,10.5,122.5,10.3,122.5z"/>
			</g>
			<g>
				<path fill="#231F20" d="M15.6,122.5c-0.2,0-0.4-0.1-0.5-0.2l-1.3-1.3c-0.3-0.3-0.3-0.8,0-1.1c0.3-0.3,0.8-0.3,1.1,0l1.3,1.3
					c0.3,0.3,0.3,0.8,0,1.1C16,122.4,15.8,122.5,15.6,122.5z"/>
			</g>
			<g>
				<path fill="#231F20" d="M11.6,118.5c-0.2,0-0.4-0.1-0.5-0.2L9.8,117c-0.3-0.3-0.3-0.8,0-1.1c0.3-0.3,0.8-0.3,1.1,0l1.3,1.3
					c0.3,0.3,0.3,0.8,0,1.1C12,118.4,11.8,118.5,11.6,118.5z"/>
			</g>
		</g>
	</g>
</g>
</svg>
