<?xml version="1.0" encoding="UTF-8"?>
<svg xmlns="http://www.w3.org/2000/svg" xmlns:xlink="http://www.w3.org/1999/xlink" width="82px" height="82px" viewBox="0 0 82 82" version="1.1">
<g id="surface1">
<path style=" stroke:none;fill-rule:nonzero;fill:rgb(13.72549%,12.156863%,12.54902%);fill-opacity:1;" d="M 5.191406 4.117188 C 5.066406 4.117188 4.9375 4.117188 4.8125 3.988281 C 4.621094 3.800781 4.621094 3.546875 4.8125 3.355469 L 5.636719 2.53125 C 5.824219 2.34375 6.140625 2.34375 6.332031 2.53125 C 6.523438 2.722656 6.523438 3.039062 6.332031 3.230469 L 5.507812 3.988281 C 5.382812 4.117188 5.320312 4.117188 5.191406 4.117188 Z M 5.191406 4.117188 "/>
<path style=" stroke:none;fill-rule:nonzero;fill:rgb(13.72549%,12.156863%,12.54902%);fill-opacity:1;" d="M 2.597656 6.710938 C 2.46875 6.710938 2.34375 6.648438 2.28125 6.585938 C 2.089844 6.394531 2.089844 6.078125 2.28125 5.890625 L 3.101562 5.066406 C 3.292969 4.875 3.609375 4.875 3.800781 5.066406 C 3.988281 5.253906 3.988281 5.570312 3.800781 5.761719 L 2.976562 6.585938 C 2.847656 6.648438 2.722656 6.710938 2.597656 6.710938 Z M 2.597656 6.710938 "/>
<path style=" stroke:none;fill-rule:nonzero;fill:rgb(13.72549%,12.156863%,12.54902%);fill-opacity:1;" d="M 6.015625 6.710938 C 5.890625 6.710938 5.761719 6.648438 5.699219 6.585938 L 4.8125 5.761719 C 4.621094 5.570312 4.621094 5.253906 4.8125 5.066406 C 5.003906 4.875 5.320312 4.875 5.507812 5.066406 L 6.332031 5.890625 C 6.523438 6.078125 6.523438 6.394531 6.332031 6.585938 C 6.207031 6.648438 6.078125 6.710938 6.015625 6.710938 Z M 6.015625 6.710938 "/>
<path style=" stroke:none;fill-rule:nonzero;fill:rgb(13.72549%,12.156863%,12.54902%);fill-opacity:1;" d="M 3.417969 4.117188 C 3.292969 4.117188 3.167969 4.117188 3.101562 3.988281 L 2.28125 3.167969 C 2.089844 2.976562 2.089844 2.722656 2.28125 2.53125 C 2.46875 2.34375 2.785156 2.34375 2.976562 2.53125 L 3.800781 3.355469 C 3.925781 3.546875 3.925781 3.800781 3.800781 3.988281 C 3.671875 4.117188 3.546875 4.117188 3.417969 4.117188 Z M 3.417969 4.117188 "/>
<path style=" stroke:none;fill-rule:nonzero;fill:rgb(13.72549%,12.156863%,12.54902%);fill-opacity:1;" d="M 76.363281 7.535156 C 76.238281 7.535156 76.109375 7.472656 76.046875 7.410156 C 75.859375 7.21875 75.859375 6.902344 76.046875 6.710938 L 76.871094 5.890625 C 77.0625 5.699219 77.378906 5.699219 77.566406 5.890625 C 77.757812 6.078125 77.757812 6.394531 77.566406 6.585938 L 76.746094 7.410156 C 76.617188 7.472656 76.492188 7.535156 76.363281 7.535156 Z M 76.363281 7.535156 "/>
<path style=" stroke:none;fill-rule:nonzero;fill:rgb(13.72549%,12.156863%,12.54902%);fill-opacity:1;" d="M 73.832031 10.066406 C 73.703125 10.066406 73.578125 10.003906 73.515625 9.941406 C 73.324219 9.75 73.324219 9.433594 73.515625 9.246094 L 74.339844 8.421875 C 74.527344 8.230469 74.84375 8.230469 75.035156 8.421875 C 75.226562 8.613281 75.226562 8.929688 75.035156 9.117188 L 74.210938 9.941406 C 74.085938 10.003906 73.957031 10.066406 73.832031 10.066406 Z M 73.832031 10.066406 "/>
<path style=" stroke:none;fill-rule:nonzero;fill:rgb(13.72549%,12.156863%,12.54902%);fill-opacity:1;" d="M 77.1875 10.066406 C 77.0625 10.066406 76.933594 10.003906 76.871094 9.941406 L 76.046875 9.117188 C 75.859375 8.929688 75.859375 8.613281 76.046875 8.421875 C 76.238281 8.230469 76.554688 8.230469 76.746094 8.421875 L 77.566406 9.246094 C 77.757812 9.433594 77.757812 9.75 77.566406 9.941406 C 77.441406 10.003906 77.3125 10.066406 77.1875 10.066406 Z M 77.1875 10.066406 "/>
<path style=" stroke:none;fill-rule:nonzero;fill:rgb(13.72549%,12.156863%,12.54902%);fill-opacity:1;" d="M 74.65625 7.535156 C 74.527344 7.535156 74.402344 7.472656 74.339844 7.410156 L 73.515625 6.585938 C 73.324219 6.394531 73.324219 6.078125 73.515625 5.890625 C 73.703125 5.699219 74.023438 5.699219 74.210938 5.890625 L 75.035156 6.710938 C 75.226562 6.902344 75.226562 7.21875 75.035156 7.410156 C 74.90625 7.472656 74.78125 7.535156 74.65625 7.535156 Z M 74.65625 7.535156 "/>
<path style=" stroke:none;fill-rule:nonzero;fill:rgb(13.72549%,12.156863%,12.54902%);fill-opacity:1;" d="M 35.144531 54.328125 C 35.015625 54.328125 34.890625 54.265625 34.828125 54.203125 C 34.636719 54.011719 34.636719 53.695312 34.828125 53.503906 L 35.648438 52.683594 C 35.839844 52.492188 36.15625 52.492188 36.347656 52.683594 C 36.535156 52.871094 36.535156 53.1875 36.347656 53.378906 L 35.523438 54.203125 C 35.394531 54.328125 35.269531 54.328125 35.144531 54.328125 Z M 35.144531 54.328125 "/>
<path style=" stroke:none;fill-rule:nonzero;fill:rgb(13.72549%,12.156863%,12.54902%);fill-opacity:1;" d="M 32.609375 56.925781 C 32.484375 56.925781 32.355469 56.863281 32.292969 56.796875 C 32.101562 56.609375 32.101562 56.292969 32.292969 56.101562 L 33.117188 55.277344 C 33.304688 55.089844 33.625 55.089844 33.8125 55.277344 C 34.003906 55.46875 34.003906 55.785156 33.8125 55.976562 L 32.925781 56.796875 C 32.863281 56.863281 32.738281 56.925781 32.609375 56.925781 Z M 32.609375 56.925781 "/>
<path style=" stroke:none;fill-rule:nonzero;fill:rgb(13.72549%,12.156863%,12.54902%);fill-opacity:1;" d="M 35.964844 56.925781 C 35.839844 56.925781 35.710938 56.863281 35.648438 56.796875 L 34.828125 55.976562 C 34.636719 55.785156 34.636719 55.46875 34.828125 55.277344 C 35.015625 55.089844 35.332031 55.089844 35.523438 55.277344 L 36.347656 56.101562 C 36.535156 56.292969 36.535156 56.609375 36.347656 56.796875 C 36.21875 56.863281 36.09375 56.925781 35.964844 56.925781 Z M 35.964844 56.925781 "/>
<path style=" stroke:none;fill-rule:nonzero;fill:rgb(13.72549%,12.156863%,12.54902%);fill-opacity:1;" d="M 33.433594 54.328125 C 33.304688 54.328125 33.179688 54.265625 33.117188 54.203125 L 32.292969 53.378906 C 32.101562 53.1875 32.101562 52.871094 32.292969 52.683594 C 32.484375 52.492188 32.800781 52.492188 32.988281 52.683594 L 33.8125 53.503906 C 34.003906 53.695312 34.003906 54.011719 33.8125 54.203125 C 33.6875 54.328125 33.558594 54.328125 33.433594 54.328125 Z M 33.433594 54.328125 "/>
<path style=" stroke:none;fill-rule:nonzero;fill:rgb(13.72549%,12.156863%,12.54902%);fill-opacity:1;" d="M 42.296875 68.132812 L 37.167969 68.132812 C 36.914062 68.132812 36.664062 67.941406 36.664062 67.625 C 36.664062 67.371094 36.851562 67.121094 37.167969 67.121094 L 42.296875 67.121094 C 42.550781 67.121094 42.804688 67.308594 42.804688 67.625 C 42.804688 67.941406 42.613281 68.132812 42.296875 68.132812 Z M 42.296875 68.132812 "/>
<path style=" stroke:none;fill-rule:nonzero;fill:rgb(13.72549%,12.156863%,12.54902%);fill-opacity:1;" d="M 44.324219 70.03125 L 41.792969 70.03125 C 41.539062 70.03125 41.285156 69.84375 41.285156 69.527344 C 41.285156 69.273438 41.476562 69.019531 41.792969 69.019531 L 44.324219 69.019531 C 44.578125 69.019531 44.832031 69.210938 44.832031 69.527344 C 44.832031 69.84375 44.578125 70.03125 44.324219 70.03125 Z M 44.324219 70.03125 "/>
<path style=" stroke:none;fill-rule:nonzero;fill:rgb(13.72549%,12.156863%,12.54902%);fill-opacity:1;" d="M 47.046875 68.132812 L 44.640625 68.132812 C 44.386719 68.132812 44.132812 67.941406 44.132812 67.625 C 44.132812 67.371094 44.324219 67.121094 44.640625 67.121094 L 47.046875 67.121094 C 47.300781 67.121094 47.554688 67.308594 47.554688 67.625 C 47.492188 67.941406 47.300781 68.132812 47.046875 68.132812 Z M 47.046875 68.132812 "/>
<path style=" stroke:none;fill-rule:nonzero;fill:rgb(13.72549%,12.156863%,12.54902%);fill-opacity:1;" d="M 40.019531 70.03125 L 39.511719 70.03125 C 39.257812 70.03125 39.003906 69.84375 39.003906 69.527344 C 39.003906 69.273438 39.195312 69.019531 39.511719 69.019531 L 40.019531 69.019531 C 40.273438 69.019531 40.523438 69.210938 40.523438 69.527344 C 40.460938 69.84375 40.273438 70.03125 40.019531 70.03125 Z M 40.019531 70.03125 "/>
<path style=" stroke:none;fill-rule:nonzero;fill:rgb(100%,81.568627%,35.686275%);fill-opacity:1;" d="M 81.558594 81.558594 L 81.558594 79.214844 C 81.558594 71.550781 75.351562 65.410156 67.753906 65.410156 C 60.089844 65.410156 53.949219 71.617188 53.949219 79.214844 L 53.949219 81.558594 Z M 81.558594 81.558594 "/>
<path style=" stroke:none;fill-rule:nonzero;fill:rgb(100%,100%,100%);fill-opacity:1;" d="M 71.300781 62.054688 L 64.015625 62.054688 L 64.015625 68.132812 C 64.015625 69.96875 65.535156 71.488281 67.371094 71.488281 L 67.941406 71.488281 C 69.777344 71.488281 71.300781 69.96875 71.300781 68.132812 Z M 71.300781 62.054688 "/>
<path style=" stroke:none;fill-rule:nonzero;fill:rgb(100%,100%,100%);fill-opacity:1;" d="M 77.25 54.835938 C 76.933594 54.582031 76.554688 54.519531 76.109375 54.582031 C 75.984375 48.695312 72.3125 45.652344 67.753906 45.652344 C 63.195312 45.652344 59.457031 48.695312 59.394531 54.582031 C 58.953125 54.519531 58.570312 54.582031 58.253906 54.835938 C 57.558594 55.40625 57.683594 56.734375 58.507812 57.75 C 58.886719 58.191406 59.394531 58.507812 59.835938 58.699219 C 60.976562 63.511719 64.082031 67.753906 67.753906 67.753906 C 71.425781 67.753906 74.527344 63.511719 75.667969 58.699219 C 76.109375 58.570312 76.617188 58.191406 76.996094 57.75 C 77.820312 56.671875 77.949219 55.40625 77.25 54.835938 Z M 77.25 54.835938 "/>
<path style=" stroke:none;fill-rule:nonzero;fill:rgb(100%,43.921569%,34.509804%);fill-opacity:1;" d="M 28.113281 81.558594 L 28.113281 79.214844 C 28.113281 71.550781 21.910156 65.410156 14.308594 65.410156 C 6.648438 65.410156 0.507812 71.617188 0.507812 79.214844 L 0.507812 81.558594 Z M 28.113281 81.558594 "/>
<path style=" stroke:none;fill-rule:nonzero;fill:rgb(100%,100%,100%);fill-opacity:1;" d="M 17.917969 62.054688 L 10.699219 62.054688 L 10.699219 68.132812 C 10.699219 69.96875 12.222656 71.488281 14.058594 71.488281 L 14.5625 71.488281 C 16.398438 71.488281 17.917969 69.96875 17.917969 68.132812 Z M 17.917969 62.054688 "/>
<path style=" stroke:none;fill-rule:nonzero;fill:rgb(100%,100%,100%);fill-opacity:1;" d="M 23.871094 54.835938 C 23.554688 54.582031 23.175781 54.519531 22.730469 54.582031 C 22.605469 48.695312 18.933594 45.652344 14.375 45.652344 C 9.816406 45.652344 6.078125 48.695312 6.015625 54.582031 C 5.570312 54.519531 5.191406 54.582031 4.875 54.835938 C 4.179688 55.40625 4.304688 56.734375 5.128906 57.75 C 5.507812 58.191406 6.015625 58.507812 6.457031 58.699219 C 7.597656 63.511719 10.699219 67.753906 14.375 67.753906 C 18.046875 67.753906 21.148438 63.511719 22.289062 58.699219 C 22.730469 58.570312 23.238281 58.191406 23.617188 57.75 C 24.441406 56.671875 24.566406 55.40625 23.871094 54.835938 Z M 23.871094 54.835938 "/>
<path style=" stroke:none;fill-rule:nonzero;fill:rgb(100%,43.921569%,34.509804%);fill-opacity:1;" d="M 23.175781 17.792969 C 23.175781 18.457031 22.636719 18.996094 21.972656 18.996094 C 21.308594 18.996094 20.769531 18.457031 20.769531 17.792969 C 20.769531 17.128906 21.308594 16.589844 21.972656 16.589844 C 22.636719 16.589844 23.175781 17.128906 23.175781 17.792969 Z M 23.175781 17.792969 "/>
<path style=" stroke:none;fill-rule:nonzero;fill:rgb(90.196078%,91.372549%,93.333333%);fill-opacity:1;" d="M 50.59375 48.695312 C 50.59375 49.359375 50.054688 49.898438 49.390625 49.898438 C 48.726562 49.898438 48.1875 49.359375 48.1875 48.695312 C 48.1875 48.027344 48.726562 47.492188 49.390625 47.492188 C 50.054688 47.492188 50.59375 48.027344 50.59375 48.695312 Z M 50.59375 48.695312 "/>
<path style=" stroke:none;fill-rule:nonzero;fill:rgb(51.764706%,85.882353%,100%);fill-opacity:1;" d="M 41.09375 79.214844 C 41.09375 79.878906 40.554688 80.417969 39.890625 80.417969 C 39.226562 80.417969 38.6875 79.878906 38.6875 79.214844 C 38.6875 78.550781 39.226562 78.011719 39.890625 78.011719 C 40.554688 78.011719 41.09375 78.550781 41.09375 79.214844 Z M 41.09375 79.214844 "/>
<path style=" stroke:none;fill-rule:nonzero;fill:rgb(51.764706%,85.882353%,100%);fill-opacity:1;" d="M 76.746094 18.109375 C 76.746094 18.773438 76.207031 19.3125 75.542969 19.3125 C 74.875 19.3125 74.339844 18.773438 74.339844 18.109375 C 74.339844 17.445312 74.875 16.90625 75.542969 16.90625 C 76.207031 16.90625 76.746094 17.445312 76.746094 18.109375 Z M 76.746094 18.109375 "/>
<path style=" stroke:none;fill-rule:nonzero;fill:rgb(90.196078%,91.372549%,93.333333%);fill-opacity:1;" d="M 6.839844 12.285156 C 6.839844 12.949219 6.300781 13.488281 5.636719 13.488281 C 4.972656 13.488281 4.433594 12.949219 4.433594 12.285156 C 4.433594 11.621094 4.972656 11.082031 5.636719 11.082031 C 6.300781 11.082031 6.839844 11.621094 6.839844 12.285156 Z M 6.839844 12.285156 "/>
<path style=" stroke:none;fill-rule:nonzero;fill:rgb(90.196078%,91.372549%,93.333333%);fill-opacity:1;" d="M 68.386719 39.703125 C 67.371094 36.980469 65.664062 33.6875 63.890625 31.597656 L 68.386719 33.242188 L 72.882812 31.597656 C 71.109375 33.6875 69.398438 37.042969 68.386719 39.703125 Z M 68.386719 39.703125 "/>
<path style=" stroke:none;fill-rule:nonzero;fill:rgb(51.764706%,85.882353%,100%);fill-opacity:1;" d="M 55.847656 39.003906 L 55.847656 36.535156 C 55.847656 28.367188 49.199219 21.71875 41.03125 21.71875 C 32.863281 21.71875 26.214844 28.367188 26.214844 36.535156 L 26.214844 39.003906 Z M 55.847656 39.003906 "/>
<path style=" stroke:none;fill-rule:nonzero;fill:rgb(100%,100%,100%);fill-opacity:1;" d="M 44.894531 18.109375 L 37.105469 18.109375 L 37.105469 24.886719 C 37.105469 26.722656 38.625 28.242188 40.460938 28.242188 L 41.539062 28.242188 C 43.375 28.242188 44.894531 26.722656 44.894531 24.886719 Z M 44.894531 18.109375 "/>
<path style=" stroke:none;fill-rule:nonzero;fill:rgb(100%,100%,100%);fill-opacity:1;" d="M 51.226562 10.320312 C 50.910156 10.066406 50.464844 9.941406 49.960938 10.066406 C 49.832031 3.734375 45.84375 0.441406 40.96875 0.441406 C 36.09375 0.441406 32.101562 3.734375 31.976562 10.066406 C 31.535156 10.003906 31.089844 10.066406 30.710938 10.320312 C 29.949219 10.953125 30.078125 12.347656 30.964844 13.425781 C 31.40625 13.929688 31.914062 14.246094 32.421875 14.4375 C 33.625 19.566406 36.980469 24.125 40.90625 24.125 C 44.832031 24.125 48.1875 19.566406 49.390625 14.4375 C 49.898438 14.246094 50.402344 13.929688 50.847656 13.425781 C 51.859375 12.347656 51.984375 10.953125 51.226562 10.320312 Z M 51.226562 10.320312 "/>
<path style=" stroke:none;fill-rule:nonzero;fill:rgb(90.196078%,91.372549%,93.333333%);fill-opacity:1;" d="M 13.613281 39.703125 C 12.601562 36.980469 10.890625 33.6875 9.117188 31.597656 L 13.613281 33.242188 L 18.109375 31.597656 C 16.335938 33.6875 14.628906 37.042969 13.613281 39.703125 Z M 13.613281 39.703125 "/>
<path style=" stroke:none;fill-rule:nonzero;fill:rgb(13.72549%,12.156863%,12.54902%);fill-opacity:1;" d="M 72.566406 65.789062 C 74.210938 64.015625 75.414062 61.484375 76.046875 59.015625 C 76.554688 58.824219 76.996094 58.445312 77.378906 58 C 78.390625 56.734375 78.515625 55.214844 77.566406 54.457031 C 77.3125 54.203125 76.933594 54.074219 76.554688 54.074219 C 76.238281 48.628906 72.820312 45.148438 67.691406 45.148438 C 62.5625 45.148438 59.140625 48.628906 58.824219 54.074219 C 58.445312 54.074219 58.066406 54.203125 57.8125 54.457031 C 56.863281 55.214844 56.988281 56.796875 58 58 C 58.382812 58.445312 58.824219 58.761719 59.332031 59.015625 C 59.964844 61.484375 61.167969 63.953125 62.8125 65.726562 C 57.304688 67.753906 53.378906 73.007812 53.378906 79.152344 L 53.378906 81.9375 L 82 81.9375 L 82 79.152344 C 82 73.007812 78.074219 67.753906 72.566406 65.789062 Z M 60.21875 58.570312 L 60.15625 58.316406 L 59.902344 58.253906 C 59.457031 58.128906 59.078125 57.8125 58.761719 57.433594 C 58.066406 56.609375 57.9375 55.59375 58.445312 55.214844 C 58.570312 55.089844 58.761719 55.027344 58.953125 55.027344 C 59.015625 55.027344 59.140625 55.027344 59.203125 55.027344 L 59.773438 55.089844 L 59.773438 54.519531 C 59.902344 49.390625 63.003906 46.035156 67.691406 46.035156 C 72.375 46.035156 75.476562 49.390625 75.605469 54.519531 L 75.605469 55.089844 L 76.175781 55.027344 C 76.492188 54.960938 76.746094 55.027344 76.933594 55.152344 C 77.441406 55.59375 77.25 56.609375 76.617188 57.367188 C 76.300781 57.75 75.921875 58 75.476562 58.191406 L 75.226562 58.253906 L 75.160156 58.507812 C 74.148438 62.8125 71.234375 67.183594 67.691406 67.183594 C 64.144531 67.183594 61.230469 62.878906 60.21875 58.570312 Z M 70.855469 67.183594 L 70.855469 68.132812 C 70.855469 69.714844 69.589844 70.980469 68.007812 70.980469 L 67.4375 70.980469 C 65.851562 70.980469 64.585938 69.714844 64.585938 68.132812 L 64.585938 67.183594 C 65.535156 67.816406 66.613281 68.132812 67.753906 68.132812 C 68.828125 68.132812 69.90625 67.816406 70.855469 67.183594 Z M 81.050781 81.050781 L 75.984375 81.050781 L 75.984375 76.871094 L 75.035156 76.871094 L 75.035156 81.050781 L 60.34375 81.050781 L 60.34375 76.871094 L 59.394531 76.871094 L 59.394531 81.050781 L 54.328125 81.050781 L 54.328125 79.214844 C 54.328125 73.261719 58.191406 68.257812 63.574219 66.550781 L 63.574219 68.195312 C 63.574219 70.285156 65.285156 71.996094 67.371094 71.996094 L 67.941406 71.996094 C 70.03125 71.996094 71.742188 70.285156 71.742188 68.195312 L 71.742188 66.613281 C 77.125 68.324219 80.988281 73.324219 80.988281 79.277344 L 80.988281 81.050781 Z M 81.050781 81.050781 "/>
<path style=" stroke:none;fill-rule:nonzero;fill:rgb(13.72549%,12.156863%,12.54902%);fill-opacity:1;" d="M 19.1875 65.789062 C 20.832031 64.015625 22.035156 61.484375 22.667969 59.015625 C 23.175781 58.824219 23.617188 58.445312 24 58 C 24.441406 57.433594 24.757812 56.796875 24.820312 56.101562 C 24.886719 55.40625 24.632812 54.773438 24.1875 54.390625 C 23.933594 54.140625 23.554688 54.011719 23.175781 54.011719 C 22.859375 48.566406 19.4375 45.085938 14.308594 45.085938 C 9.179688 45.085938 5.761719 48.566406 5.445312 54.011719 C 5.066406 54.074219 4.75 54.203125 4.433594 54.457031 C 3.484375 55.214844 3.609375 56.796875 4.621094 58 C 5.003906 58.445312 5.445312 58.761719 5.953125 59.015625 C 6.585938 61.484375 7.789062 63.953125 9.433594 65.726562 C 3.925781 67.753906 0 73.007812 0 79.214844 L 0 82 L 28.621094 82 L 28.621094 79.214844 C 28.621094 73.007812 24.695312 67.753906 19.1875 65.789062 Z M 6.839844 58.570312 L 6.773438 58.316406 L 6.523438 58.253906 C 6.078125 58.128906 5.699219 57.8125 5.382812 57.433594 C 4.6875 56.609375 4.558594 55.59375 5.066406 55.214844 C 5.191406 55.089844 5.382812 55.027344 5.570312 55.027344 C 5.636719 55.027344 5.761719 55.027344 5.824219 55.027344 L 6.394531 55.089844 L 6.394531 54.519531 C 6.523438 49.390625 9.625 46.035156 14.308594 46.035156 C 18.996094 46.035156 22.097656 49.390625 22.226562 54.519531 L 22.226562 55.089844 L 22.796875 55.027344 C 23.113281 54.960938 23.367188 55.027344 23.554688 55.152344 C 23.871094 55.40625 23.871094 55.785156 23.808594 56.039062 C 23.746094 56.480469 23.554688 56.988281 23.175781 57.367188 C 22.859375 57.75 22.480469 58 22.035156 58.191406 L 21.78125 58.253906 L 21.71875 58.507812 C 20.707031 62.8125 17.792969 67.183594 14.246094 67.183594 C 10.765625 67.183594 7.851562 62.878906 6.839844 58.570312 Z M 17.476562 67.183594 L 17.476562 68.132812 C 17.476562 69.714844 16.210938 70.980469 14.628906 70.980469 L 14.058594 70.980469 C 12.472656 70.980469 11.207031 69.714844 11.207031 68.132812 L 11.207031 67.183594 C 12.15625 67.816406 13.234375 68.132812 14.375 68.132812 C 15.449219 68.132812 16.527344 67.816406 17.476562 67.183594 Z M 27.671875 81.050781 L 22.605469 81.050781 L 22.605469 76.871094 L 21.65625 76.871094 L 21.65625 81.050781 L 6.964844 81.050781 L 6.964844 76.871094 L 6.015625 76.871094 L 6.015625 81.050781 L 0.949219 81.050781 L 0.949219 79.214844 C 0.949219 73.261719 4.8125 68.257812 10.195312 66.550781 L 10.195312 68.195312 C 10.195312 70.285156 11.902344 71.996094 13.992188 71.996094 L 14.5625 71.996094 C 16.652344 71.996094 18.363281 70.285156 18.363281 68.195312 L 18.363281 66.488281 C 23.746094 68.195312 27.609375 73.261719 27.609375 79.152344 L 27.609375 81.050781 Z M 27.671875 81.050781 "/>
<path style=" stroke:none;fill-rule:nonzero;fill:rgb(13.72549%,12.156863%,12.54902%);fill-opacity:1;" d="M 73.324219 31.34375 C 73.199219 31.152344 72.945312 31.089844 72.753906 31.152344 L 68.894531 32.546875 L 68.894531 8.929688 L 57.75 8.929688 L 57.75 9.878906 L 67.878906 9.878906 L 67.878906 32.546875 L 64.015625 31.152344 C 63.828125 31.089844 63.574219 31.152344 63.445312 31.34375 C 63.320312 31.535156 63.320312 31.785156 63.511719 31.914062 C 65.410156 34.066406 67.054688 37.550781 67.941406 39.890625 C 68.007812 40.082031 68.195312 40.207031 68.386719 40.207031 C 68.574219 40.207031 68.765625 40.082031 68.828125 39.890625 C 69.714844 37.550781 71.363281 34.066406 73.261719 31.914062 C 73.386719 31.722656 73.453125 31.46875 73.324219 31.34375 Z M 68.386719 38.433594 C 67.625 36.597656 66.488281 34.382812 65.285156 32.609375 L 68.257812 33.6875 C 68.386719 33.75 68.449219 33.75 68.574219 33.6875 L 71.550781 32.609375 C 70.285156 34.382812 69.144531 36.535156 68.386719 38.433594 Z M 68.386719 38.433594 "/>
<path style=" stroke:none;fill-rule:nonzero;fill:rgb(13.72549%,12.156863%,12.54902%);fill-opacity:1;" d="M 13.105469 32.546875 L 9.246094 31.152344 C 9.054688 31.089844 8.800781 31.152344 8.675781 31.34375 C 8.546875 31.535156 8.546875 31.785156 8.738281 31.914062 C 10.636719 34.066406 12.285156 37.550781 13.171875 39.890625 C 13.234375 40.082031 13.425781 40.207031 13.613281 40.207031 C 13.804688 40.207031 13.992188 40.082031 14.058594 39.890625 C 14.945312 37.550781 16.589844 34.066406 18.488281 31.914062 C 18.617188 31.722656 18.617188 31.535156 18.554688 31.34375 C 18.425781 31.152344 18.171875 31.089844 17.984375 31.152344 L 14.121094 32.546875 L 14.121094 9.878906 L 24.25 9.878906 L 24.25 8.929688 L 13.105469 8.929688 Z M 13.613281 38.433594 C 12.855469 36.597656 11.714844 34.382812 10.511719 32.609375 L 13.488281 33.6875 C 13.613281 33.75 13.675781 33.75 13.804688 33.6875 L 16.78125 32.609375 C 15.449219 34.382812 14.375 36.535156 13.613281 38.433594 Z M 13.613281 38.433594 "/>
<path style=" stroke:none;fill-rule:nonzero;fill:rgb(13.72549%,12.156863%,12.54902%);fill-opacity:1;" d="M 26.277344 8.929688 L 26.910156 8.929688 L 26.910156 9.878906 L 26.277344 9.878906 Z M 26.277344 8.929688 "/>
<path style=" stroke:none;fill-rule:nonzero;fill:rgb(13.72549%,12.156863%,12.54902%);fill-opacity:1;" d="M 28.175781 8.929688 L 28.8125 8.929688 L 28.8125 9.878906 L 28.175781 9.878906 Z M 28.175781 8.929688 "/>
<path style=" stroke:none;fill-rule:nonzero;fill:rgb(13.72549%,12.156863%,12.54902%);fill-opacity:1;" d="M 24.378906 8.929688 L 25.011719 8.929688 L 25.011719 9.878906 L 24.378906 9.878906 Z M 24.378906 8.929688 "/>
<path style=" stroke:none;fill-rule:nonzero;fill:rgb(13.72549%,12.156863%,12.54902%);fill-opacity:1;" d="M 55.089844 8.929688 L 55.722656 8.929688 L 55.722656 9.878906 L 55.089844 9.878906 Z M 55.089844 8.929688 "/>
<path style=" stroke:none;fill-rule:nonzero;fill:rgb(13.72549%,12.156863%,12.54902%);fill-opacity:1;" d="M 53.1875 8.929688 L 53.824219 8.929688 L 53.824219 9.878906 L 53.1875 9.878906 Z M 53.1875 8.929688 "/>
<path style=" stroke:none;fill-rule:nonzero;fill:rgb(13.72549%,12.156863%,12.54902%);fill-opacity:1;" d="M 56.988281 8.929688 L 57.621094 8.929688 L 57.621094 9.878906 L 56.988281 9.878906 Z M 56.988281 8.929688 "/>
<path style=" stroke:none;fill-rule:nonzero;fill:rgb(13.72549%,12.156863%,12.54902%);fill-opacity:1;" d="M 46.160156 22.097656 C 47.933594 20.199219 49.261719 17.476562 49.898438 14.816406 C 50.402344 14.5625 50.910156 14.246094 51.289062 13.742188 C 51.796875 13.171875 52.113281 12.410156 52.175781 11.777344 C 52.238281 11.019531 51.984375 10.382812 51.542969 10.003906 C 51.480469 9.941406 51.480469 9.941406 51.417969 9.941406 L 51.921875 9.941406 L 51.921875 8.992188 L 51.289062 8.992188 L 51.289062 9.878906 C 51.035156 9.75 50.78125 9.6875 50.464844 9.625 C 50.148438 3.734375 46.476562 0 40.96875 0 C 35.460938 0 31.851562 3.734375 31.535156 9.5625 C 31.21875 9.5625 30.964844 9.625 30.710938 9.816406 L 30.710938 8.929688 L 30.078125 8.929688 L 30.078125 9.878906 L 30.582031 9.878906 C 30.519531 9.878906 30.519531 9.941406 30.457031 9.941406 C 29.949219 10.320312 29.761719 11.019531 29.824219 11.714844 C 29.886719 12.410156 30.203125 13.105469 30.710938 13.675781 C 31.089844 14.121094 31.597656 14.5 32.101562 14.753906 C 32.800781 17.414062 34.066406 20.136719 35.839844 22.035156 C 29.949219 24.1875 25.707031 29.824219 25.707031 36.410156 L 25.707031 39.386719 L 56.355469 39.386719 L 56.355469 36.410156 C 56.292969 29.886719 52.050781 24.1875 46.160156 22.097656 Z M 32.925781 14.375 L 32.863281 14.121094 L 32.609375 14.058594 C 32.167969 13.929688 31.722656 13.613281 31.40625 13.171875 C 31.027344 12.726562 30.773438 12.15625 30.773438 11.714844 C 30.773438 11.460938 30.773438 11.019531 31.089844 10.765625 C 31.21875 10.636719 31.40625 10.574219 31.660156 10.574219 C 31.722656 10.574219 31.851562 10.574219 31.914062 10.574219 L 32.484375 10.636719 L 32.484375 10.066406 C 32.609375 4.496094 35.964844 0.949219 41.03125 0.949219 C 46.097656 0.949219 49.390625 4.558594 49.515625 10.066406 L 49.515625 10.636719 L 50.085938 10.574219 C 50.402344 10.511719 50.71875 10.574219 50.910156 10.765625 C 51.226562 11.019531 51.226562 11.523438 51.226562 11.714844 C 51.164062 12.222656 50.972656 12.726562 50.59375 13.171875 C 50.277344 13.613281 49.832031 13.867188 49.390625 14.058594 L 49.136719 14.121094 L 49.074219 14.375 C 47.996094 18.996094 44.832031 23.683594 41.03125 23.683594 C 37.234375 23.683594 34.066406 18.996094 32.925781 14.375 Z M 44.449219 23.554688 L 44.449219 24.886719 C 44.449219 26.46875 43.183594 27.734375 41.601562 27.734375 L 40.523438 27.734375 C 38.941406 27.734375 37.675781 26.46875 37.675781 24.886719 L 37.675781 23.554688 C 38.6875 24.25 39.828125 24.632812 41.09375 24.632812 C 42.234375 24.632812 43.375 24.25 44.449219 23.554688 Z M 55.34375 38.5 L 49.832031 38.5 L 49.832031 33.941406 L 48.882812 33.941406 L 48.882812 38.5 L 33.054688 38.5 L 33.054688 33.941406 L 32.101562 33.941406 L 32.101562 38.5 L 26.59375 38.5 L 26.59375 36.472656 C 26.59375 30.078125 30.773438 24.695312 36.535156 22.796875 L 36.535156 24.820312 C 36.535156 26.910156 38.246094 28.621094 40.335938 28.621094 L 41.410156 28.621094 C 43.5 28.621094 45.210938 26.910156 45.210938 24.820312 L 45.210938 22.796875 C 50.972656 24.632812 55.214844 30.078125 55.214844 36.472656 L 55.214844 38.5 Z M 55.34375 38.5 "/>
</g>
</svg>
