<?xml version="1.0" encoding="utf-8"?>
<!-- Generator: Adobe Illustrator 18.0.0, SVG Export Plug-In . SVG Version: 6.00 Build 0)  -->
<!DOCTYPE svg PUBLIC "-//W3C//DTD SVG 1.1//EN" "http://www.w3.org/Graphics/SVG/1.1/DTD/svg11.dtd">
<svg version="1.1" id="Layer_1" xmlns="http://www.w3.org/2000/svg" xmlns:xlink="http://www.w3.org/1999/xlink" x="0px" y="0px"
	 viewBox="0 0 129.5 129.5" enable-background="new 0 0 129.5 129.5" xml:space="preserve">
<g>
	<g>
		<polygon fill="#FFFFFF" points="33.1,115.3 33.1,80.6 64.7,67.4 64.7,102 		"/>
		<polygon fill="#FFFFFF" points="96.3,115.3 96.3,80.6 64.7,67.4 64.7,102 		"/>
		<polygon fill="#FFD05B" points="33.1,80.9 33.1,115.5 64.7,128.7 64.7,94.1 		"/>
		<polygon fill="#FFD05B" points="96.3,80.9 96.3,115.5 64.7,128.7 64.7,94.1 		"/>
		<polygon fill="#FFFFFF" points="96.3,80.9 107,90.6 75.4,103.8 64.7,94.1 		"/>
		<polygon fill="#FFFFFF" points="54.1,103.8 64.7,94.1 33.1,80.9 22.5,90.6 		"/>
		<polygon fill="#E6E9EE" points="96.3,80.6 107,70.9 75.4,57.6 64.7,67.4 		"/>
		<polygon fill="#E6E9EE" points="54.1,57.6 64.7,67.4 33.1,80.6 22.5,70.9 		"/>
		<path fill="#231F20" d="M47.3,42.2c-0.5-0.5-1-1-1.4-1.5l1.1-1c0.4,0.5,0.9,1,1.3,1.4L47.3,42.2z M82.2,42.2l-1.1-1.1
			c0.3-0.2,0.5-0.5,0.7-0.8l1.1,1C82.8,41.7,82.5,42,82.2,42.2z M84.3,39.9l-1.2-0.9c0.4-0.5,0.8-1,1.1-1.6l1.3,0.8
			C85.2,38.7,84.8,39.3,84.3,39.9z M44.6,39.1c-0.4-0.6-0.8-1.1-1.1-1.7l1.3-0.8c0.3,0.6,0.7,1.1,1.1,1.6L44.6,39.1z M86.6,36.4
			l-1.3-0.7c0.3-0.6,0.6-1.2,0.8-1.7l1.4,0.6C87.2,35.2,86.9,35.8,86.6,36.4z M42.5,35.6c-0.3-0.6-0.6-1.3-0.8-1.9l1.4-0.5
			c0.2,0.6,0.5,1.2,0.8,1.8L42.5,35.6z M88.2,32.6l-1.4-0.5c0.2-0.6,0.4-1.2,0.5-1.9l1.5,0.4C88.6,31.3,88.4,32,88.2,32.6z M41,31.7
			c-0.2-0.7-0.4-1.3-0.5-2l1.5-0.3c0.1,0.6,0.3,1.3,0.5,1.9L41,31.7z M89.2,28.6l-1.5-0.2c0.1-0.6,0.2-1.3,0.2-1.9l1.5,0.1
			C89.4,27.2,89.3,27.9,89.2,28.6z M40.2,27.7C40.1,27,40,26.3,40,25.6l1.5-0.1c0,0.6,0.1,1.3,0.1,1.9L40.2,27.7z M88,24.5
			c0-0.6,0-1.3-0.1-1.9l1.5-0.1c0.1,0.7,0.1,1.4,0.1,2.1L88,24.5z M41.5,23.6L40,23.6c0-0.7,0.1-1.4,0.2-2.1l1.5,0.2
			C41.6,22.3,41.6,23,41.5,23.6z M87.6,20.7c-0.1-0.6-0.3-1.3-0.4-1.9l1.4-0.4c0.2,0.7,0.3,1.3,0.4,2L87.6,20.7z M42,19.8l-1.5-0.3
			c0.1-0.7,0.3-1.3,0.5-2l1.4,0.4C42.3,18.5,42.2,19.2,42,19.8z M86.6,16.9c-0.2-0.6-0.5-1.2-0.7-1.8l1.4-0.6
			c0.3,0.6,0.5,1.3,0.8,1.9L86.6,16.9z M43.2,16.1l-1.4-0.6c0.3-0.6,0.5-1.3,0.8-1.9l1.3,0.7C43.7,14.9,43.4,15.5,43.2,16.1z
			 M85,13.4c-0.3-0.6-0.7-1.1-1-1.6l1.2-0.8c0.4,0.6,0.7,1.2,1.1,1.8L85,13.4z M44.9,12.6l-1.3-0.8c0.4-0.6,0.7-1.2,1.1-1.7L46,11
			C45.6,11.5,45.2,12.1,44.9,12.6z M82.9,10.2c-0.4-0.5-0.8-1-1.3-1.5l1.1-1c0.5,0.5,0.9,1,1.4,1.6L82.9,10.2z M47.2,9.5l-1.1-1
			c0.4-0.4,0.8-0.9,1.2-1.3L47.5,7l1,1.1l-0.2,0.2C47.9,8.7,47.5,9.1,47.2,9.5z M80.2,7.4c-0.5-0.4-1-0.8-1.5-1.2L79.6,5
			c0.5,0.4,1.1,0.9,1.6,1.3L80.2,7.4z M50,6.8l-1-1.2c0.5-0.4,1.1-0.9,1.6-1.2l0.9,1.2C51,6,50.5,6.4,50,6.8z M77.1,5.1
			c-0.5-0.3-1.1-0.7-1.7-1l0.7-1.3c0.6,0.3,1.2,0.7,1.8,1L77.1,5.1z M53.1,4.6l-0.8-1.3c0.6-0.3,1.2-0.7,1.8-1l0.6,1.4
			C54.3,4,53.7,4.3,53.1,4.6z M73.7,3.3c-0.6-0.2-1.2-0.5-1.8-0.7l0.5-1.4c0.7,0.2,1.3,0.4,1.9,0.7L73.7,3.3z M56.6,3l-0.5-1.4
			c0.6-0.2,1.3-0.5,2-0.6l0.4,1.4C57.9,2.5,57.2,2.7,56.6,3z M70,2.1c-0.6-0.1-1.3-0.3-1.9-0.4l0.2-1.5c0.7,0.1,1.4,0.2,2,0.4
			L70,2.1z M60.4,1.9l-0.3-1.5c0.7-0.1,1.4-0.2,2-0.3l0.2,1.5C61.7,1.7,61,1.8,60.4,1.9z M66.2,1.5c-0.6,0-1.3-0.1-1.9,0l0-1.5
			c0.7,0,1.4,0,2.1,0L66.2,1.5z"/>
		<path fill="#FFFFFF" d="M56.5,53.7H73c0.7-5.8,2.9-11.4,6.8-15.8c3.1-3.5,4.9-8.1,4.9-13.1C84.7,13,74.5,3.6,62.5,4.9
			C53.4,6,46,13.3,45,22.4c-0.7,5.9,1.2,11.4,4.8,15.5C53.6,42.3,55.9,47.8,56.5,53.7z"/>
		<rect x="54.8" y="53.7" fill="#FFFFFF" width="20" height="10.7"/>
		<line fill="#FFFFFF" x1="51.8" y1="57.2" x2="77.7" y2="57.2"/>
		<line fill="#FFFFFF" x1="51.8" y1="60.8" x2="77.7" y2="60.8"/>
		<rect x="60.3" y="64.4" fill="#FFFFFF" width="9" height="3.7"/>
		<path fill="#231F20" d="M97.3,80.7l10.1-9.3c0.2-0.2,0.3-0.4,0.2-0.7c0-0.3-0.2-0.5-0.4-0.6L77.7,57.8v-1.3h-2.2v-2.8
			c0-0.4-0.3-0.8-0.8-0.8h-0.9c0.8-5.6,3-10.6,6.4-14.6c3.3-3.8,5.1-8.6,5.1-13.6c0-11.4-9.3-20.7-20.7-20.7c-0.8,0-1.6,0-2.4,0.1
			c-9.4,1-17.1,8.6-18.2,18.1c-0.7,5.9,1.1,11.6,5,16.1c3.4,3.9,5.7,9,6.5,14.6h-0.9c-0.4,0-0.8,0.3-0.8,0.8v2.8h-2.2v1.3L22.2,70.2
			c-0.2,0.1-0.4,0.3-0.4,0.6c0,0.3,0,0.5,0.2,0.7l10.1,9.3L22,90.1c-0.2,0.2-0.3,0.4-0.2,0.7c0,0.3,0.2,0.5,0.4,0.6l10.2,4.3v20
			c0,0.3,0.2,0.6,0.5,0.7l31.6,13.2c0,0,0,0,0,0c0.1,0,0.2,0.1,0.3,0.1s0.2,0,0.3-0.1c0,0,0,0,0,0l31.6-13.2
			c0.3-0.1,0.5-0.4,0.5-0.7v-20l10.2-4.3c0.2-0.1,0.4-0.3,0.4-0.6c0-0.3,0-0.5-0.2-0.7L97.3,80.7z M96.2,79.8L69.7,68.6
			c0.2-0.1,0.3-0.3,0.3-0.6v-2.9h4.7c0.4,0,0.8-0.3,0.8-0.8v-2.8h2.2v-1.5h-2.2v-1.5l0,0l30.1,12.6L96.2,79.8z M55.5,61.6H74v2.1
			h-4.7h-9h-4.7V61.6z M55.5,58H74v2.1H55.5V58z M61,65.1h7.5v2.2H61V65.1z M65.5,68.8h0.6l28.5,11.9l-3.4,1.4L65.5,92.9V68.8z
			 M50.3,37.4c-3.6-4.1-5.3-9.4-4.6-14.9c1-8.7,8.1-15.8,16.8-16.8c0.7-0.1,1.5-0.1,2.2-0.1c10.6,0,19.2,8.6,19.2,19.2
			c0,4.6-1.7,9.1-4.8,12.6c-3.7,4.2-6,9.6-6.9,15.5H57.2C56.4,46.9,54,41.6,50.3,37.4z M55.5,54.4h1H73h1v2.1H55.5V54.4z M23.9,71.1
			L54,58.5l0.1,0v1.5h-2.2v1.5H54v2.8c0,0.4,0.3,0.8,0.8,0.8h4.7v2.9c0,0.3,0.1,0.5,0.3,0.6L33.3,79.8L23.9,71.1z M23.9,90.4
			l9.4-8.7l30.1,12.6L54,103L23.9,90.4z M64,127.6L33.9,115V96.2l19.9,8.3c0.1,0,0.2,0.1,0.3,0.1c0.2,0,0.4-0.1,0.5-0.2l9.4-8.6
			V127.6z M58.3,90.6L58.3,90.6l-23.5-9.8l28.5-11.9H64v24.1L58.3,90.6z M95.6,115l-30.1,12.6V95.8l9.4,8.6c0.1,0.1,0.3,0.2,0.5,0.2
			c0.1,0,0.2,0,0.3-0.1l19.9-8.3V115z M75.5,103l-9.4-8.7l17.7-7.4l12.3-5.2l9.4,8.7L75.5,103z"/>
		<path fill="#E6E9EE" d="M79.2,23.6c0-1.3-0.7-2.5-1.8-3.2c0.6-0.7,0.9-1.5,0.9-2.4c0-2.1-1.7-3.7-3.7-3.7c-0.4,0-0.8,0.1-1.1,0.2
			c0-0.1,0-0.2,0-0.3c0-2.1-1.7-3.7-3.7-3.7c-2.1,0-3.7,1.7-3.7,3.7v18.9c0,2.1,1.7,3.7,3.7,3.7c2.1,0,3.7-1.7,3.7-3.7
			c0-0.1,0-0.2,0-0.3c0.4,0.1,0.7,0.2,1.1,0.2c2.1,0,3.7-1.7,3.7-3.7c0-1-0.4-1.8-1-2.5C78.5,26.1,79.2,24.9,79.2,23.6z"/>
		<path fill="#E6E9EE" d="M50.3,23.6c0-1.3,0.7-2.5,1.8-3.2c-0.6-0.7-0.9-1.5-0.9-2.4c0-2.1,1.7-3.7,3.7-3.7c0.4,0,0.8,0.1,1.1,0.2
			c0-0.1,0-0.2,0-0.3c0-2.1,1.7-3.7,3.7-3.7c2.1,0,3.7,1.7,3.7,3.7v18.9c0,2.1-1.7,3.7-3.7,3.7c-2.1,0-3.7-1.7-3.7-3.7
			c0-0.1,0-0.2,0-0.3c-0.4,0.1-0.7,0.2-1.1,0.2c-2.1,0-3.7-1.7-3.7-3.7c0-1,0.4-1.8,1-2.5C51,26.1,50.3,24.9,50.3,23.6z"/>
		<g>
			<path fill="#231F20" d="M79,28.2c0-0.2-0.1-0.3-0.2-0.5c-0.1-0.2-0.1-0.3-0.2-0.5c-0.1-0.1-0.1-0.2-0.2-0.3
				c1-0.8,1.5-2.1,1.5-3.4c0-0.3,0-0.6-0.1-0.9c0-0.1-0.1-0.2-0.1-0.3c-0.1-0.2-0.1-0.4-0.2-0.6c0-0.1-0.1-0.2-0.1-0.3
				c-0.1-0.2-0.2-0.4-0.3-0.5c0-0.1-0.1-0.1-0.2-0.2c-0.1-0.2-0.3-0.4-0.5-0.5c0,0,0,0,0,0c0.4-0.7,0.6-1.5,0.6-2.2
				c0-2.5-2-4.5-4.5-4.5v0c0,0,0,0,0,0c-0.1,0-0.2,0-0.3,0c-0.3-2.2-2.2-3.8-4.4-3.8c-2.5,0-4.5,2-4.5,4.5v18.9c0,2.5,2,4.5,4.5,4.5
				c2.2,0,4.1-1.7,4.4-3.8c0.1,0,0.3,0,0.4,0c2.5,0,4.5-2,4.5-4.5c0-0.3,0-0.5-0.1-0.8C79,28.4,79,28.3,79,28.2z M74.6,32.2
				c-0.1,0-0.3,0-0.4,0c-0.1-0.4-0.2-0.8-0.4-1.1l-1.3,0.7c0.2,0.4,0.3,0.8,0.3,1.2c0,0,0,0.1,0,0.2c0,1.6-1.3,3-3,3
				c-1.6,0-3-1.3-3-3V14.2c0-1.6,1.3-3,3-3c1.5,0,2.8,1.2,2.9,2.7c-0.8,0.4-1.6,1-2,1.9l1.3,0.7c0.4-0.7,1-1.2,1.7-1.4c0,0,0,0,0,0
				c0.1,0,0.2,0,0.3-0.1c0.2,0,0.4-0.1,0.6-0.1c0,0,0,0,0,0c1.6,0,3,1.3,3,3c0,0.6-0.2,1.1-0.4,1.4c-0.5-0.2-1.1-0.3-1.7-0.3v0.7
				l0,0l0,0v0.7c0.3,0,0.6,0.1,0.9,0.2l1.9,1.9c0,0,0,0,0,0c0,0.1,0,0.1,0.1,0.2c0.1,0.2,0.1,0.5,0.1,0.7c0,0.9-0.4,1.7-1.1,2.2
				c-0.8-0.6-1.7-1-2.8-1v0.8h0l0,0v0.7c0.3,0,0.6,0.1,0.9,0.2l1.9,1.9c0,0.1,0.1,0.2,0.1,0.4c0,0.2,0.1,0.4,0.1,0.6
				C77.6,30.9,76.3,32.2,74.6,32.2z"/>
			<path fill="#231F20" d="M59.7,9.7c-2.2,0-4.1,1.7-4.4,3.8c0,0-0.1,0-0.1,0c-0.1,0-0.2,0-0.3,0v0c-2.5,0-4.5,2-4.5,4.5
				c0,0.8,0.2,1.6,0.6,2.2c0,0,0,0,0,0.1c-0.2,0.2-0.3,0.3-0.4,0.5c-0.1,0.1-0.1,0.1-0.2,0.2c-0.1,0.2-0.2,0.3-0.3,0.5
				c0,0.1-0.1,0.2-0.1,0.3c-0.1,0.2-0.1,0.4-0.2,0.6c0,0.1-0.1,0.2-0.1,0.3c-0.1,0.3-0.1,0.6-0.1,0.9c0,1.3,0.6,2.5,1.5,3.4
				c-0.1,0.1-0.1,0.3-0.2,0.4c-0.1,0.1-0.1,0.3-0.2,0.4c-0.1,0.2-0.1,0.3-0.2,0.5c0,0.1,0,0.2-0.1,0.3c0,0.3-0.1,0.5-0.1,0.8
				c0,2.6,2.2,4.7,4.9,4.5c0.3,2.2,2.2,3.8,4.4,3.8c2.5,0,4.5-2,4.5-4.5V14.2C64.2,11.7,62.2,9.7,59.7,9.7z M62.7,33.1
				c0,1.6-1.3,3-3,3c-1.6,0-3-1.3-3-3l0-0.1c0-0.4,0.1-0.8,0.3-1.2l-0.7-0.3v0l0,0l-0.7-0.3c-0.2,0.4-0.3,0.8-0.4,1.1
				c-0.1,0-0.3,0-0.4,0c-1.6,0-3-1.3-3-3c0-0.2,0-0.4,0.1-0.6c0-0.1,0.1-0.2,0.1-0.3l1.9-1.9c0.3-0.1,0.6-0.2,0.9-0.2v-1.5
				c-1.1,0-2,0.4-2.8,1c-0.7-0.6-1.1-1.4-1.1-2.2c0-0.2,0-0.5,0.1-0.7c0-0.1,0-0.1,0.1-0.2c0,0,0,0,0,0l1.9-1.9
				c0.3-0.1,0.6-0.2,0.9-0.2v-1.5c-0.6,0-1.2,0.1-1.7,0.3C52,19,51.9,18.5,51.9,18c0-1.6,1.3-3,3-3c0,0,0,0,0,0c0.2,0,0.4,0,0.6,0.1
				c0.1,0,0.2,0,0.3,0.1c0,0,0,0,0,0c0.7,0.2,1.3,0.7,1.7,1.4l1.3-0.7c-0.5-0.9-1.2-1.5-2.1-1.9c0.1-1.5,1.4-2.7,3-2.7
				c1.6,0,3,1.3,3,3V33.1z"/>
		</g>
		<line fill="#FFFFFF" x1="105.8" y1="57.6" x2="108" y2="54.7"/>
		<path fill="#231F20" d="M105.8,58.3c-0.2,0-0.3,0-0.5-0.2c-0.3-0.3-0.4-0.7-0.1-1.1l2.2-2.9c0.2-0.3,0.7-0.4,1.1-0.1
			c0.3,0.3,0.4,0.7,0.1,1.1l-2.2,2.9C106.2,58.2,106,58.3,105.8,58.3z"/>
		<g>
			<line fill="#FFFFFF" x1="127.2" y1="36.4" x2="116.2" y2="44.4"/>
			<path fill="#231F20" d="M116.2,45.1c-0.2,0-0.5-0.1-0.6-0.3c-0.2-0.3-0.2-0.8,0.2-1l11-7.9c0.3-0.2,0.8-0.2,1,0.2
				c0.2,0.3,0.2,0.8-0.2,1l-11,7.9C116.5,45.1,116.4,45.1,116.2,45.1z"/>
		</g>
		<g>
			<line fill="#FFFFFF" x1="112" y1="47.4" x2="109.1" y2="49.5"/>
			<path fill="#231F20" d="M109.1,50.3c-0.2,0-0.5-0.1-0.6-0.3c-0.2-0.3-0.2-0.8,0.2-1l2.9-2.1c0.3-0.2,0.8-0.2,1,0.2
				c0.2,0.3,0.2,0.8-0.2,1l-2.9,2.1C109.4,50.2,109.2,50.3,109.1,50.3z"/>
		</g>
		<g>
			<line fill="#FFFFFF" x1="120.9" y1="46.8" x2="114.4" y2="51.5"/>
			<path fill="#231F20" d="M114.4,52.3c-0.2,0-0.5-0.1-0.6-0.3c-0.2-0.3-0.2-0.8,0.2-1l6.5-4.7c0.3-0.2,0.8-0.2,1,0.2
				c0.2,0.3,0.2,0.8-0.2,1l-6.5,4.7C114.7,52.2,114.6,52.3,114.4,52.3z"/>
		</g>
		<g>
			<line fill="#FFFFFF" x1="125.3" y1="43.7" x2="124.2" y2="44.5"/>
			<path fill="#231F20" d="M124.2,45.2c-0.2,0-0.5-0.1-0.6-0.3c-0.2-0.3-0.2-0.8,0.2-1l1.1-0.8c0.3-0.2,0.8-0.2,1,0.2
				c0.2,0.3,0.2,0.8-0.2,1l-1.1,0.8C124.5,45.2,124.3,45.2,124.2,45.2z"/>
		</g>
		<circle fill="#FFD05B" cx="103.9" cy="25.5" r="4.4"/>
		<circle fill="#84DBFF" cx="114.4" cy="34.4" r="3.5"/>
		<circle fill="#FF7058" cx="102.7" cy="42.2" r="4.2"/>
		<line fill="#FFFFFF" x1="120.3" y1="19.1" x2="121.1" y2="21.9"/>
		
			<rect x="119.2" y="19.7" transform="matrix(0.2723 0.9622 -0.9622 0.2723 107.5283 -101.2298)" fill="#231F20" width="2.9" height="1.5"/>
		<line fill="#FFFFFF" x1="122" y1="25" x2="122.8" y2="27.8"/>
		
			<rect x="120.9" y="25.6" transform="matrix(0.2723 0.9622 -0.9622 0.2723 114.4005 -98.5509)" fill="#231F20" width="2.9" height="1.5"/>
		<line fill="#FFFFFF" x1="117.2" y1="24.6" x2="120" y2="23.9"/>
		
			<rect x="117.8" y="22.8" transform="matrix(0.2721 0.9623 -0.9623 0.2721 109.6447 -96.4555)" fill="#231F20" width="1.5" height="2.9"/>
		<line fill="#FFFFFF" x1="123.1" y1="23" x2="125.9" y2="22.2"/>
		
			<rect x="123.7" y="21.1" transform="matrix(0.2721 0.9623 -0.9623 0.2721 112.3239 -103.3285)" fill="#231F20" width="1.5" height="2.9"/>
		<g>
			<line fill="#FFFFFF" x1="103.8" y1="0.7" x2="104.6" y2="3.5"/>
			
				<rect x="102.8" y="1.4" transform="matrix(0.2726 0.9621 -0.9621 0.2726 77.8716 -98.6995)" fill="#231F20" width="2.9" height="1.5"/>
		</g>
		<g>
			<line fill="#FFFFFF" x1="105.5" y1="6.6" x2="106.3" y2="9.4"/>
			
				<rect x="104.4" y="7.3" transform="matrix(0.2723 0.9622 -0.9622 0.2723 84.7752 -96.0291)" fill="#231F20" width="2.9" height="1.5"/>
		</g>
		<g>
			<line fill="#FFFFFF" x1="100.7" y1="6.3" x2="103.5" y2="5.5"/>
			
				<rect x="101.3" y="4.5" transform="matrix(0.2722 0.9623 -0.9623 0.2722 80.0114 -93.9345)" fill="#231F20" width="1.5" height="2.9"/>
		</g>
		<g>
			<line fill="#FFFFFF" x1="106.6" y1="4.7" x2="109.4" y2="3.9"/>
			
				<rect x="107.2" y="2.8" transform="matrix(0.2721 0.9623 -0.9623 0.2721 82.6942 -100.8087)" fill="#231F20" width="1.5" height="2.9"/>
		</g>
		<g>
			<line fill="#FFFFFF" x1="123.2" y1="2.9" x2="124" y2="5.7"/>
			
				<rect x="122.1" y="3.6" transform="matrix(0.2723 0.9622 -0.9622 0.2723 94.0959 -115.7609)" fill="#231F20" width="2.9" height="1.5"/>
		</g>
		<g>
			<line fill="#FFFFFF" x1="124.8" y1="8.8" x2="125.6" y2="11.6"/>
			
				<rect x="123.8" y="9.5" transform="matrix(0.2726 0.9621 -0.9621 0.2726 100.9317 -113.0752)" fill="#231F20" width="2.9" height="1.5"/>
		</g>
		<g>
			<line fill="#FFFFFF" x1="120.1" y1="8.5" x2="122.9" y2="7.7"/>
			
				<rect x="120.7" y="6.6" transform="matrix(0.2721 0.9623 -0.9623 0.2721 96.2098 -110.9887)" fill="#231F20" width="1.5" height="2.9"/>
		</g>
		<g>
			<line fill="#FFFFFF" x1="126" y1="6.8" x2="128.8" y2="6"/>
			
				<rect x="126.6" y="5" transform="matrix(0.2721 0.9623 -0.9623 0.2721 98.8912 -117.8623)" fill="#231F20" width="1.5" height="2.9"/>
		</g>
		<line fill="#FFFFFF" x1="97.1" y1="57.4" x2="99.3" y2="54.5"/>
		<path fill="#231F20" d="M97.1,58.2c-0.2,0-0.3,0-0.5-0.2c-0.3-0.3-0.4-0.7-0.1-1.1l2.2-2.9c0.2-0.3,0.7-0.4,1.1-0.1
			c0.3,0.3,0.4,0.7,0.1,1.1l-2.2,2.9C97.5,58.1,97.3,58.2,97.1,58.2z"/>
		<line fill="#FFFFFF" x1="91.1" y1="51" x2="93.2" y2="48.1"/>
		<path fill="#231F20" d="M91.1,51.8c-0.2,0-0.3,0-0.5-0.2c-0.3-0.3-0.4-0.7-0.1-1.1l2.2-2.9c0.2-0.3,0.7-0.4,1.1-0.1
			c0.3,0.3,0.4,0.7,0.1,1.1l-2.2,2.9C91.5,51.7,91.3,51.8,91.1,51.8z"/>
		<g>
			<line fill="#FFFFFF" x1="23.7" y1="57.6" x2="21.5" y2="54.7"/>
			<path fill="#231F20" d="M23.7,58.3c-0.2,0-0.5-0.1-0.6-0.3l-2.2-2.9c-0.3-0.3-0.2-0.8,0.1-1.1c0.3-0.3,0.8-0.2,1.1,0.1l2.2,2.9
				c0.3,0.3,0.2,0.8-0.1,1.1C24,58.3,23.9,58.3,23.7,58.3z"/>
		</g>
		<g>
			<g>
				<line fill="#FFFFFF" x1="2.3" y1="36.4" x2="13.3" y2="44.4"/>
				<path fill="#231F20" d="M13.3,45.1c-0.2,0-0.3,0-0.4-0.1L1.8,37c-0.3-0.2-0.4-0.7-0.2-1c0.2-0.3,0.7-0.4,1-0.2l11,7.9
					c0.3,0.2,0.4,0.7,0.2,1C13.7,45,13.5,45.1,13.3,45.1z"/>
			</g>
			<g>
				<line fill="#FFFFFF" x1="17.5" y1="47.4" x2="20.4" y2="49.5"/>
				<path fill="#231F20" d="M20.4,50.3c-0.2,0-0.3,0-0.4-0.1L17.1,48c-0.3-0.2-0.4-0.7-0.2-1c0.2-0.3,0.7-0.4,1-0.2l2.9,2.1
					c0.3,0.2,0.4,0.7,0.2,1C20.9,50.2,20.7,50.3,20.4,50.3z"/>
			</g>
			<g>
				<line fill="#FFFFFF" x1="8.6" y1="46.8" x2="15.1" y2="51.5"/>
				<path fill="#231F20" d="M15.1,52.3c-0.2,0-0.3,0-0.4-0.1l-6.5-4.7c-0.3-0.2-0.4-0.7-0.2-1c0.2-0.3,0.7-0.4,1-0.2l6.5,4.7
					c0.3,0.2,0.4,0.7,0.2,1C15.5,52.2,15.3,52.3,15.1,52.3z"/>
			</g>
			<g>
				<line fill="#FFFFFF" x1="4.2" y1="43.7" x2="5.3" y2="44.5"/>
				<path fill="#231F20" d="M5.3,45.2c-0.2,0-0.3,0-0.4-0.1l-1.1-0.8c-0.3-0.2-0.4-0.7-0.2-1c0.2-0.3,0.7-0.4,1-0.2l1.1,0.8
					c0.3,0.2,0.4,0.7,0.2,1C5.8,45.1,5.6,45.2,5.3,45.2z"/>
			</g>
		</g>
		<g>
			<circle fill="#FFD05B" cx="25.6" cy="25.5" r="4.4"/>
		</g>
		<g>
			<circle fill="#84DBFF" cx="15.1" cy="34.4" r="3.5"/>
		</g>
		<g>
			<circle fill="#FF7058" cx="26.8" cy="42.2" r="4.2"/>
		</g>
		<g>
			<line fill="#FFFFFF" x1="9.2" y1="19.1" x2="8.4" y2="21.9"/>
			
				<rect x="8.1" y="19" transform="matrix(0.9623 0.2721 -0.2721 0.9623 5.9043 -1.6249)" fill="#231F20" width="1.5" height="2.9"/>
		</g>
		<g>
			<line fill="#FFFFFF" x1="7.5" y1="25" x2="6.7" y2="27.8"/>
			
				<rect x="6.4" y="24.9" transform="matrix(0.9623 0.2721 -0.2721 0.9623 7.4428 -0.9498)" fill="#231F20" width="1.5" height="2.9"/>
		</g>
		<g>
			<line fill="#FFFFFF" x1="12.3" y1="24.6" x2="9.5" y2="23.9"/>
			
				<rect x="9.5" y="23.5" transform="matrix(0.9622 0.2724 -0.2724 0.9622 7.0192 -2.0576)" fill="#231F20" width="2.9" height="1.5"/>
		</g>
		<g>
			<line fill="#FFFFFF" x1="6.4" y1="23" x2="3.6" y2="22.2"/>
			
				<rect x="3.6" y="21.8" transform="matrix(0.9622 0.2724 -0.2724 0.9622 6.343 -0.5179)" fill="#231F20" width="2.9" height="1.5"/>
		</g>
		<g>
			<g>
				<line fill="#FFFFFF" x1="25.7" y1="0.7" x2="24.9" y2="3.5"/>
				
					<rect x="24.5" y="0.7" transform="matrix(0.9621 0.2727 -0.2727 0.9621 1.5446 -6.8157)" fill="#231F20" width="1.5" height="2.9"/>
			</g>
			<g>
				<line fill="#FFFFFF" x1="24" y1="6.6" x2="23.2" y2="9.4"/>
				
					<rect x="22.9" y="6.6" transform="matrix(0.9623 0.2721 -0.2721 0.9623 3.0773 -6.1263)" fill="#231F20" width="1.5" height="2.9"/>
			</g>
			<g>
				<line fill="#FFFFFF" x1="28.8" y1="6.3" x2="26" y2="5.5"/>
				
					<rect x="25.9" y="5.2" transform="matrix(0.9622 0.2724 -0.2724 0.9622 2.6502 -7.2409)" fill="#231F20" width="2.9" height="1.5"/>
			</g>
			<g>
				<line fill="#FFFFFF" x1="22.9" y1="4.7" x2="20.1" y2="3.9"/>
				
					<rect x="20.1" y="3.5" transform="matrix(0.9622 0.2724 -0.2724 0.9622 1.9739 -5.7012)" fill="#231F20" width="2.9" height="1.5"/>
			</g>
		</g>
		<g>
			<line fill="#FFFFFF" x1="6.3" y1="2.9" x2="5.5" y2="5.7"/>
			
				<rect x="5.2" y="2.9" transform="matrix(0.9623 0.2721 -0.2721 0.9623 1.4015 -1.4477)" fill="#231F20" width="1.5" height="2.9"/>
		</g>
		<g>
			<line fill="#FFFFFF" x1="4.7" y1="8.8" x2="3.9" y2="11.6"/>
			
				<rect x="3.5" y="8.8" transform="matrix(0.9621 0.2727 -0.2727 0.9621 2.9459 -0.7732)" fill="#231F20" width="1.5" height="2.9"/>
		</g>
		<g>
			<line fill="#FFFFFF" x1="9.4" y1="8.5" x2="6.6" y2="7.7"/>
			
				<rect x="6.6" y="7.4" transform="matrix(0.9622 0.2724 -0.2724 0.9622 2.5113 -1.8809)" fill="#231F20" width="2.9" height="1.5"/>
		</g>
		<g>
			<line fill="#FFFFFF" x1="3.5" y1="6.8" x2="0.7" y2="6"/>
			
				<rect x="0.7" y="5.7" transform="matrix(0.9622 0.2724 -0.2724 0.9622 1.835 -0.3412)" fill="#231F20" width="2.9" height="1.5"/>
		</g>
		<g>
			<line fill="#FFFFFF" x1="32.4" y1="57.4" x2="30.2" y2="54.5"/>
			<path fill="#231F20" d="M32.4,58.2c-0.2,0-0.5-0.1-0.6-0.3L29.6,55c-0.3-0.3-0.2-0.8,0.1-1.1c0.3-0.3,0.8-0.2,1.1,0.1L33,57
				c0.3,0.3,0.2,0.8-0.1,1.1C32.7,58.1,32.6,58.2,32.4,58.2z"/>
		</g>
		<g>
			<line fill="#FFFFFF" x1="38.4" y1="51" x2="36.3" y2="48.1"/>
			<path fill="#231F20" d="M38.4,51.8c-0.2,0-0.5-0.1-0.6-0.3l-2.2-2.9c-0.3-0.3-0.2-0.8,0.1-1.1c0.3-0.3,0.8-0.2,1.1,0.1l2.2,2.9
				c0.3,0.3,0.2,0.8-0.1,1.1C38.8,51.7,38.6,51.8,38.4,51.8z"/>
		</g>
	</g>
</g>
</svg>
