<?xml version="1.0" encoding="utf-8"?>
<!-- Generator: Adobe Illustrator 18.0.0, SVG Export Plug-In . SVG Version: 6.00 Build 0)  -->
<!DOCTYPE svg PUBLIC "-//W3C//DTD SVG 1.1//EN" "http://www.w3.org/Graphics/SVG/1.1/DTD/svg11.dtd">
<svg version="1.1" id="Layer_1" xmlns="http://www.w3.org/2000/svg" xmlns:xlink="http://www.w3.org/1999/xlink" x="0px" y="0px"
	 viewBox="0 0 129.5 129.5" enable-background="new 0 0 129.5 129.5" xml:space="preserve">
<g>
	<g>
		<path fill="#231F20" d="M121.9,6.6c-0.2,0-0.4-0.1-0.5-0.2c-0.3-0.3-0.3-0.8,0-1.1l1.3-1.3c0.3-0.3,0.8-0.3,1.1,0
			c0.3,0.3,0.3,0.8,0,1.1l-1.3,1.3C122.3,6.5,122.1,6.6,121.9,6.6z"/>
		<path fill="#231F20" d="M117.8,10.6c-0.2,0-0.4-0.1-0.5-0.2c-0.3-0.3-0.3-0.8,0-1.1l1.3-1.3c0.3-0.3,0.8-0.3,1.1,0
			c0.3,0.3,0.3,0.8,0,1.1l-1.3,1.3C118.2,10.6,118,10.6,117.8,10.6z"/>
		<path fill="#231F20" d="M123.2,10.6c-0.2,0-0.4-0.1-0.5-0.2l-1.3-1.3c-0.3-0.3-0.3-0.8,0-1.1c0.3-0.3,0.8-0.3,1.1,0l1.3,1.3
			c0.3,0.3,0.3,0.8,0,1.1C123.6,10.6,123.4,10.6,123.2,10.6z"/>
		<path fill="#231F20" d="M119.1,6.6c-0.2,0-0.4-0.1-0.5-0.2l-1.3-1.3c-0.3-0.3-0.3-0.8,0-1.1c0.3-0.3,0.8-0.3,1.1,0l1.3,1.3
			c0.3,0.3,0.3,0.8,0,1.1C119.5,6.5,119.3,6.6,119.1,6.6z"/>
		<path fill="#231F20" d="M109.5,63.7c-0.2,0-0.4-0.1-0.5-0.2c-0.3-0.3-0.3-0.8,0-1.1l1.3-1.3c0.3-0.3,0.8-0.3,1.1,0s0.3,0.8,0,1.1
			l-1.3,1.3C109.9,63.6,109.7,63.7,109.5,63.7z"/>
		<path fill="#231F20" d="M105.5,67.7c-0.2,0-0.4-0.1-0.5-0.2c-0.3-0.3-0.3-0.8,0-1.1l1.3-1.3c0.3-0.3,0.8-0.3,1.1,0
			c0.3,0.3,0.3,0.8,0,1.1l-1.3,1.3C105.9,67.6,105.7,67.7,105.5,67.7z"/>
		<path fill="#231F20" d="M110.8,67.7c-0.2,0-0.4-0.1-0.5-0.2l-1.3-1.3c-0.3-0.3-0.3-0.8,0-1.1c0.3-0.3,0.8-0.3,1.1,0l1.3,1.3
			c0.3,0.3,0.3,0.8,0,1.1C111.2,67.6,111,67.7,110.8,67.7z"/>
		<path fill="#231F20" d="M106.8,63.7c-0.2,0-0.4-0.1-0.5-0.2l-1.3-1.3c-0.3-0.3-0.3-0.8,0-1.1c0.3-0.3,0.8-0.3,1.1,0l1.3,1.3
			c0.3,0.3,0.3,0.8,0,1.1C107.2,63.6,107,63.7,106.8,63.7z"/>
		<path fill="#231F20" d="M10.8,46c-0.2,0-0.4-0.1-0.5-0.2c-0.3-0.3-0.3-0.8,0-1.1l1.3-1.3c0.3-0.3,0.8-0.3,1.1,0
			c0.3,0.3,0.3,0.8,0,1.1l-1.3,1.3C11.2,46,11,46,10.8,46z"/>
		<path fill="#231F20" d="M6.7,50.1c-0.2,0-0.4-0.1-0.5-0.2c-0.3-0.3-0.3-0.8,0-1.1l1.3-1.3c0.3-0.3,0.8-0.3,1.1,0
			c0.3,0.3,0.3,0.8,0,1.1l-1.3,1.3C7.1,50,6.9,50.1,6.7,50.1z"/>
		<path fill="#231F20" d="M12.1,50.1c-0.2,0-0.4-0.1-0.5-0.2l-1.3-1.3c-0.3-0.3-0.3-0.8,0-1.1c0.3-0.3,0.8-0.3,1.1,0l1.3,1.3
			c0.3,0.3,0.3,0.8,0,1.1C12.5,50,12.3,50.1,12.1,50.1z"/>
		<path fill="#231F20" d="M8,46c-0.2,0-0.4-0.1-0.5-0.2l-1.3-1.3c-0.3-0.3-0.3-0.8,0-1.1c0.3-0.3,0.8-0.3,1.1,0l1.3,1.3
			c0.3,0.3,0.3,0.8,0,1.1C8.4,46,8.2,46,8,46z"/>
		<path fill="#FFFFFF" d="M102.2,27.3c-1.4-5.4-4.1-10.2-7.7-13.9l0.8-12.6l-9.8,6.4c-3-1.2-6.2-1.9-9.5-1.9H50.7
			C35.5,5.2,23.3,19,23.3,35.9c0,12.8,7,23.7,16.9,28.3l1.6,9.9h10.1l4.8-7.5h19l4.8,7.5h10.1l1.6-13.5c4.8-3.9,8.4-9.6,10.1-16.1
			h5.3l2.4-17.3H102.2z"/>
		<path fill="#231F20" d="M90.5,74.9H80.4c-0.3,0-0.5-0.1-0.6-0.3l-4.6-7.2H57l-4.6,7.2c-0.1,0.2-0.4,0.3-0.6,0.3H41.7
			c-0.4,0-0.7-0.3-0.7-0.6l-1.5-9.5c-10.3-5-16.9-16.3-16.9-28.9c0-17.3,12.6-31.5,28.2-31.5h25.2c3.2,0,6.4,0.6,9.5,1.8l9.5-6.2
			c0.2-0.2,0.5-0.2,0.8,0C95.9,0.2,96,0.5,96,0.8l-0.8,12.3c3.5,3.7,6.1,8.3,7.5,13.4h7.1c0.2,0,0.4,0.1,0.6,0.3
			c0.1,0.2,0.2,0.4,0.2,0.6l-2.4,17.3c-0.1,0.4-0.4,0.6-0.7,0.6h-4.7c-1.7,6.2-5.3,11.8-10,15.7l-1.6,13.2
			C91.2,74.6,90.9,74.9,90.5,74.9z M80.9,73.4h9l1.5-12.8c0-0.2,0.1-0.4,0.3-0.5c4.7-3.9,8.2-9.5,9.9-15.7c0.1-0.3,0.4-0.6,0.7-0.6
			h4.6L109,28h-6.8c-0.3,0-0.6-0.2-0.7-0.6c-1.4-5.2-4-9.9-7.5-13.6c-0.1-0.2-0.2-0.4-0.2-0.6l0.7-11.1l-8.6,5.6
			c-0.2,0.1-0.5,0.2-0.7,0.1c-3-1.2-6.1-1.9-9.3-1.9H50.7C36,6,24,19.4,24,35.9c0,12.1,6.5,23,16.4,27.7c0.2,0.1,0.4,0.3,0.4,0.6
			l1.5,9.3h9l4.6-7.2c0.1-0.2,0.4-0.3,0.6-0.3h19c0.3,0,0.5,0.1,0.6,0.3L80.9,73.4z"/>
		<path fill="#E6E9EE" d="M81.4,72.6L76.6,65H55.9L51,72.6h-7.8l-1.5-9.4l-0.8-0.4C31.3,58.3,25,47.7,25,35.9
			c0-16,11.6-29.1,25.8-29.1H76c3.1,0,6.1,0.6,8.9,1.8l0.8,0.3l7.9-5.1L93,14l0.5,0.5c3.5,3.6,6,8.1,7.3,13.2l0.3,1.2h7.1l-2,14.1
			h-5.1l-0.3,1.2c-1.6,6.1-5,11.5-9.6,15.3l-0.5,0.4l-1.5,12.7H81.4z"/>
		<circle fill="#FFFFFF" cx="61.6" cy="34.9" r="17.8"/>
		<path fill="#231F20" d="M61.6,49.1c-7.8,0-14.1-6.3-14.1-14.1H49c0,7,5.7,12.6,12.6,12.6s12.6-5.7,12.6-12.6
			c0-7-5.7-12.6-12.6-12.6v-1.5c7.8,0,14.1,6.3,14.1,14.1S69.4,49.1,61.6,49.1z"/>
		<path fill="#231F20" d="M49,34.9h-1.5c0-0.4,0-0.7,0-1.1l1.5,0.1C49,34.3,49,34.6,49,34.9z M49.3,32.1l-1.5-0.3
			c0.1-0.3,0.2-0.7,0.3-1l1.4,0.4C49.5,31.5,49.4,31.8,49.3,32.1z M50.3,29.4l-1.4-0.7c0.2-0.3,0.3-0.6,0.5-0.9l1.3,0.8
			C50.5,28.9,50.4,29.2,50.3,29.4z M51.8,27.1l-1.2-0.9c0.2-0.3,0.4-0.5,0.7-0.8l1.1,1C52.2,26.6,52,26.8,51.8,27.1z M53.8,25.1
			l-0.9-1.2c0.3-0.2,0.6-0.4,0.8-0.6l0.9,1.2C54.3,24.7,54,24.9,53.8,25.1z M56.2,23.5l-0.7-1.4c0.3-0.2,0.6-0.3,1-0.4l0.6,1.4
			C56.7,23.3,56.4,23.4,56.2,23.5z M58.8,22.6l-0.3-1.5c0.3-0.1,0.7-0.1,1-0.2l0.2,1.5C59.4,22.5,59.1,22.5,58.8,22.6z M61.6,22.3
			l0-1.5h0V22.3z"/>
		<path fill="#231F20" d="M65.3,34.2h-2.9v-5.6h2.9c0.9,0,1.6,0.7,1.6,1.6c0,0.4,0.3,0.8,0.8,0.8c0.4,0,0.8-0.3,0.8-0.8
			c0-1.7-1.4-3.1-3.1-3.1h-2.9v-1.2c0-0.4-0.3-0.8-0.8-0.8c-0.4,0-0.8,0.3-0.8,0.8v1.2H58c-1.7,0-3.1,1.4-3.1,3.1v2.5
			c0,1.7,1.4,3.1,3.1,3.1h2.9v5.6H58c-0.9,0-1.6-0.7-1.6-1.6c0-0.4-0.3-0.8-0.8-0.8c-0.4,0-0.8,0.3-0.8,0.8c0,1.7,1.4,3.1,3.1,3.1
			h2.9V44c0,0.4,0.3,0.8,0.8,0.8c0.4,0,0.8-0.3,0.8-0.8v-1.2h2.9c1.7,0,3.1-1.4,3.1-3.1v-2.5C68.4,35.5,67,34.2,65.3,34.2z M58,34.2
			c-0.9,0-1.6-0.7-1.6-1.6v-2.5c0-0.9,0.7-1.6,1.6-1.6h2.9v5.6H58z M66.9,39.7c0,0.9-0.7,1.6-1.6,1.6h-2.9v-5.6h2.9
			c0.9,0,1.6,0.7,1.6,1.6V39.7z"/>
		<circle fill="#FFFFFF" cx="90.5" cy="24.8" r="3.2"/>
		<path fill="#231F20" d="M79.8,99h-8.7c-0.2,0-0.3,0-0.4-0.1l-9.9-7.1c-0.2-0.1-0.3-0.4-0.3-0.6c0-0.2,0.1-0.5,0.4-0.6L71.1,84
			c0.2-0.1,0.4-0.1,0.7-0.1l6,2.2l15.8-8.8c2.2-1.2,4.7-1.9,7.2-1.9c4.2,0,8.3,1.8,11.1,4.9c0.1,0.1,0.2,0.3,0.2,0.5
			c0,0.2-0.1,0.4-0.3,0.5L97,94.5c-0.1,0.1-0.2,0.1-0.3,0.2L80,99C80,99,79.9,99,79.8,99z M71.4,97.5h8.4l16.4-4.3l14.1-12.4
			c-2.5-2.5-5.9-3.9-9.5-3.9c-2.3,0-4.5,0.6-6.5,1.7l-16.1,9c-0.2,0.1-0.4,0.1-0.6,0.1l-6-2.1l-9,5.7L71.4,97.5z"/>
		<path fill="#FFD05B" d="M71.7,96.3l-7.1-5.1l7-4.4L78,89l16.9-9.4c1.8-1,3.9-1.5,5.9-1.5c2.8,0,5.5,1,7.7,2.7L95.6,92.1l-16,4.2
			H71.7z"/>
		<path fill="#FFFFFF" d="M52.8,92.9c-1.1,0-1.9,0.9-1.9,1.9c0,1.1,0.9,1.9,1.9,1.9h13.1v-3.9H52.8z"/>
		<path fill="#231F20" d="M65.9,95.5H52.8c-0.4,0-0.8-0.3-0.8-0.8c0-0.4,0.3-0.8,0.8-0.8h13.1c0.4,0,0.8,0.3,0.8,0.8
			C66.6,95.2,66.3,95.5,65.9,95.5z"/>
		<path fill="#FFFFFF" d="M109,82L86.2,94.8H65.9c7.3,0,13.2-5.9,13.2-13.2h-45L18.7,97.7v24.5h13.2c1.4,0,2.7-0.2,4.1-0.4L84.5,111
			c4.9-1.1,9.5-3.2,13.5-6.3l28.8-22.2C121.5,79,114.6,78.8,109,82z"/>
		<path fill="#231F20" d="M127.2,81.8c-2.9-1.9-6.3-2.9-9.7-2.9c-3.1,0-6.1,0.8-8.8,2.3L86,94H72.2c4.6-2.3,7.7-7,7.7-12.5
			c0-0.4-0.3-0.8-0.8-0.8h-45c-0.2,0-0.4,0.1-0.5,0.2L19.5,95.8v-3.9c0-0.4-0.3-0.8-0.8-0.8H2.7c-0.4,0-0.8,0.3-0.8,0.8v36.9
			c0,0.4,0.3,0.8,0.8,0.8h16.1c0.4,0,0.8-0.3,0.8-0.8v-5.8h12.5c1.4,0,2.8-0.2,4.2-0.5l48.5-10.8c5-1.1,9.7-3.3,13.8-6.4l28.8-22.2
			c0.2-0.1,0.3-0.4,0.3-0.6C127.6,82.2,127.4,82,127.2,81.8z M18,128H3.4V92.6H18V128z M97.5,104.1c-3.9,3-8.4,5.1-13.2,6.2
			L35.8,121c-1.3,0.3-2.6,0.4-3.9,0.4H19.5V98l14.9-15.7h43.9C77.9,88.8,72.5,94,65.9,94c-0.4,0-0.8,0.3-0.8,0.8
			c0,0.4,0.3,0.8,0.8,0.8h20.4c0.1,0,0.3,0,0.4-0.1l22.8-12.8c2.5-1.4,5.3-2.1,8.1-2.1c2.8,0,5.6,0.7,8,2.1L97.5,104.1z"/>
		<path fill="#FFD05B" d="M20.7,120.2V98.4l14.3-14.9H77c-0.9,5.3-5.6,9.4-11.1,9.4v3.9h20.9L110,83.6c2.3-1.3,4.9-2,7.5-2
			c2,0,3.9,0.4,5.7,1.1l-26.4,20.3c-3.7,2.9-8.1,4.9-12.7,6l-48.5,10.8c-1.2,0.3-2.4,0.4-3.7,0.4H20.7z"/>
		<circle fill="none" cx="12.8" cy="9.2" r="3.4"/>
		<circle fill="#E6E9EE" cx="12.8" cy="9.2" r="3.4"/>
		<circle fill="#E6E9EE" cx="17.8" cy="73.5" r="2.4"/>
		<circle fill="#84DBFF" cx="119.1" cy="25.9" r="2.2"/>
		<g>
			<g>
				<g>
					<line fill="#FFFFFF" x1="86.6" y1="116.7" x2="95.3" y2="116.7"/>
					<path fill="#231F20" d="M95.3,117.4h-8.7c-0.4,0-0.8-0.3-0.8-0.8c0-0.4,0.3-0.8,0.8-0.8h8.7c0.4,0,0.8,0.3,0.8,0.8
						C96.1,117.1,95.7,117.4,95.3,117.4z"/>
				</g>
				<g>
					<line fill="#FFFFFF" x1="94.5" y1="119.8" x2="98.7" y2="119.8"/>
					<path fill="#231F20" d="M98.7,120.6h-4.3c-0.4,0-0.8-0.3-0.8-0.8c0-0.4,0.3-0.8,0.8-0.8h4.3c0.4,0,0.8,0.3,0.8,0.8
						C99.5,120.2,99.1,120.6,98.7,120.6z"/>
				</g>
				<g>
					<line fill="#FFFFFF" x1="99.3" y1="116.7" x2="103.3" y2="116.7"/>
					<path fill="#231F20" d="M103.3,117.4h-4.1c-0.4,0-0.8-0.3-0.8-0.8c0-0.4,0.3-0.8,0.8-0.8h4.1c0.4,0,0.8,0.3,0.8,0.8
						C104.1,117.1,103.7,117.4,103.3,117.4z"/>
				</g>
				<g>
					<line fill="#FFFFFF" x1="90.5" y1="119.8" x2="91.4" y2="119.8"/>
					<path fill="#231F20" d="M91.4,120.6h-0.8c-0.4,0-0.8-0.3-0.8-0.8c0-0.4,0.3-0.8,0.8-0.8h0.8c0.4,0,0.8,0.3,0.8,0.8
						C92.1,120.2,91.8,120.6,91.4,120.6z"/>
				</g>
			</g>
		</g>
	</g>
</g>
</svg>
