<?xml version="1.0" encoding="utf-8"?>
<!-- Generator: Adobe Illustrator 18.0.0, SVG Export Plug-In . SVG Version: 6.00 Build 0)  -->
<!DOCTYPE svg PUBLIC "-//W3C//DTD SVG 1.1//EN" "http://www.w3.org/Graphics/SVG/1.1/DTD/svg11.dtd">
<svg version="1.1" id="Layer_1" xmlns="http://www.w3.org/2000/svg" xmlns:xlink="http://www.w3.org/1999/xlink" x="0px" y="0px"
	 viewBox="0 0 129.5 129.5" enable-background="new 0 0 129.5 129.5" xml:space="preserve">
<g>
	<g>
		<g>
			<g>
				<path fill="#231F20" d="M48.9,19.6c-0.2,0-0.4-0.1-0.5-0.2c-0.3-0.3-0.3-0.8,0-1.1l1.3-1.3c0.3-0.3,0.8-0.3,1.1,0
					c0.3,0.3,0.3,0.8,0,1.1l-1.3,1.3C49.3,19.6,49.1,19.6,48.9,19.6z"/>
			</g>
			<g>
				<path fill="#231F20" d="M44.9,23.6c-0.2,0-0.4-0.1-0.5-0.2c-0.3-0.3-0.3-0.8,0-1.1l1.3-1.3c0.3-0.3,0.8-0.3,1.1,0
					c0.3,0.3,0.3,0.8,0,1.1l-1.3,1.3C45.3,23.6,45.1,23.6,44.9,23.6z"/>
			</g>
			<g>
				<path fill="#231F20" d="M50.2,23.6c-0.2,0-0.4-0.1-0.5-0.2l-1.3-1.3c-0.3-0.3-0.3-0.8,0-1.1c0.3-0.3,0.8-0.3,1.1,0l1.3,1.3
					c0.3,0.3,0.3,0.8,0,1.1C50.5,23.6,50.4,23.6,50.2,23.6z"/>
			</g>
			<g>
				<path fill="#231F20" d="M46.2,19.6c-0.2,0-0.4-0.1-0.5-0.2l-1.3-1.3c-0.3-0.3-0.3-0.8,0-1.1c0.3-0.3,0.8-0.3,1.1,0l1.3,1.3
					c0.3,0.3,0.3,0.8,0,1.1C46.5,19.6,46.4,19.6,46.2,19.6z"/>
			</g>
		</g>
		<g>
			<path fill="#231F20" d="M119.2,13.2c-0.2,0-0.4-0.1-0.5-0.2c-0.3-0.3-0.3-0.8,0-1.1l1.3-1.3c0.3-0.3,0.8-0.3,1.1,0
				c0.3,0.3,0.3,0.8,0,1.1l-1.3,1.3C119.6,13.1,119.4,13.2,119.2,13.2z"/>
		</g>
		<g>
			<path fill="#231F20" d="M115.2,17.2c-0.2,0-0.4-0.1-0.5-0.2c-0.3-0.3-0.3-0.8,0-1.1l1.3-1.3c0.3-0.3,0.8-0.3,1.1,0
				c0.3,0.3,0.3,0.8,0,1.1l-1.3,1.3C115.6,17.1,115.4,17.2,115.2,17.2z"/>
		</g>
		<g>
			<path fill="#231F20" d="M120.5,17.2c-0.2,0-0.4-0.1-0.5-0.2l-1.3-1.3c-0.3-0.3-0.3-0.8,0-1.1c0.3-0.3,0.8-0.3,1.1,0l1.3,1.3
				c0.3,0.3,0.3,0.8,0,1.1C120.9,17.1,120.7,17.2,120.5,17.2z"/>
		</g>
		<g>
			<path fill="#231F20" d="M116.5,13.2c-0.2,0-0.4-0.1-0.5-0.2l-1.3-1.3c-0.3-0.3-0.3-0.8,0-1.1c0.3-0.3,0.8-0.3,1.1,0l1.3,1.3
				c0.3,0.3,0.3,0.8,0,1.1C116.9,13.1,116.7,13.2,116.5,13.2z"/>
		</g>
		<g>
			<polygon fill="#E6E9EE" points="88,29.9 112,54 112,29.9 			"/>
		</g>
		<polygon fill="#FFFFFF" points="88.2,6 88.2,29.9 112,29.9 		"/>
		<g>
			<polygon fill="#84DBFF" points="90.3,27.8 90.3,11.2 106.9,27.8 			"/>
		</g>
		<g>
			<polygon fill="#FFD05B" points="108.9,123.9 108.9,91.1 100.6,82.7 82.9,100.4 77,94.6 62.5,109.1 54.9,101.5 37,119.3 
				28.4,110.7 21.9,117.1 21.9,123.9 			"/>
		</g>
		<g>
			<circle fill="#FF7058" cx="105.5" cy="3.9" r="2.5"/>
		</g>
		<g>
			<circle fill="#84DBFF" cx="7.9" cy="82.7" r="3.7"/>
		</g>
		<g>
			<circle fill="#E6E9EE" cx="126.5" cy="66.7" r="2.6"/>
		</g>
		<g>
			<g>
				<path fill="#FF7058" d="M81.2,30.5l-7.8,13.7l14.6,6.1c0.8-1.9,1.2-3.9,1.2-6.1C89.2,38.4,86,33.2,81.2,30.5z"/>
			</g>
			<g>
				<path fill="#FFD05B" d="M87.9,50.3l-14.6-6.1l-4.8,15.1c1.5,0.5,3.1,0.8,4.8,0.8C79.9,60,85.6,56,87.9,50.3z"/>
			</g>
			<g>
				<path fill="#FFFFFF" d="M73.4,23.4c-3.7,0-7.2,1.3-9.9,3.5l9.9,12.3l7.8-13.7C78.9,24.2,76.2,23.4,73.4,23.4z"/>
				<path fill="#231F20" d="M73.4,40c-0.2,0-0.4-0.1-0.6-0.3l-9.9-12.3c-0.3-0.3-0.2-0.8,0.1-1.1c3-2.4,6.5-3.6,10.3-3.6
					c2.9,0,5.7,0.8,8.2,2.2c0.4,0.2,0.5,0.7,0.3,1L74,39.6C73.9,39.8,73.7,40,73.4,40C73.4,40,73.4,40,73.4,40z M64.5,27.1l8.7,10.9
					l6.9-12.1c-2.1-1.1-4.5-1.6-6.8-1.6C70.2,24.2,67.1,25.2,64.5,27.1z"/>
			</g>
			<g>
				<path fill="#84DBFF" d="M57.6,44.2c0,7,4.6,13,11,15.1l4.8-15.1l-15.7-1.6C57.6,43.2,57.6,43.7,57.6,44.2z"/>
			</g>
			<g>
				<path fill="#E6E9EE" d="M57.6,42.7l15.7,1.6l-9.9-12.3C60.3,34.5,58.1,38.3,57.6,42.7z"/>
			</g>
		</g>
		<circle fill="#FFFFFF" cx="77" cy="90.3" r="3.6"/>
		<circle fill="#FFFFFF" cx="62.5" cy="104.4" r="3.6"/>
		<circle fill="#FFFFFF" cx="54.8" cy="97.3" r="3.6"/>
		<path fill="#FFFFFF" d="M37.3,112.2v-4.4l-3.4-0.3c-0.4-2.3-1.3-4.3-2.5-6.1l2.2-2.6l-3.1-3.1l-2.6,2.2c-1.8-1.3-3.9-2.2-6.1-2.5
			l-0.3-3.4H17l-0.3,3.4c-2.3,0.4-4.3,1.3-6.1,2.5L8,95.7l-3.1,3.1l2.2,2.6c-1.3,1.8-2.2,3.9-2.5,6.1l-3.4,0.3v4.4l3.4,0.3
			c0.4,2.3,1.3,4.3,2.5,6.1l-2.2,2.6l3.1,3.1l2.6-2.2c1.8,1.3,3.9,2.2,6.1,2.5l0.3,3.4h4.4l0.3-3.4c2.3-0.4,4.3-1.3,6.1-2.5l2.6,2.2
			l3.1-3.1l-2.2-2.6c1.3-1.8,2.2-3.9,2.5-6.1L37.3,112.2z"/>
		<g>
			<path fill="#231F20" d="M19,122.1c-0.4,0-0.7,0-1.1-0.1l0.2-1.5c0.3,0,0.6,0.1,0.9,0.1L19,122.1z M21.1,121.9l-0.2-1.5
				c0.3,0,0.6-0.1,0.9-0.2l0.4,1.5C21.8,121.8,21.5,121.9,21.1,121.9z M15.9,121.6c-0.3-0.1-0.7-0.2-1-0.3l0.5-1.4
				c0.3,0.1,0.6,0.2,0.9,0.3L15.9,121.6z M24.2,121l-0.6-1.4c0.3-0.1,0.6-0.3,0.8-0.4l0.7,1.3C24.8,120.7,24.5,120.9,24.2,121z
				 M12.9,120.3c-0.3-0.2-0.6-0.4-0.9-0.6l0.9-1.2c0.3,0.2,0.5,0.4,0.8,0.5L12.9,120.3z M26.9,119.3l-1-1.2c0.2-0.2,0.5-0.4,0.7-0.6
				l1.1,1.1C27.4,118.9,27.2,119.1,26.9,119.3z M10.5,118.3c-0.2-0.3-0.5-0.5-0.7-0.8l1.2-0.9c0.2,0.2,0.4,0.5,0.6,0.7L10.5,118.3z
				 M29.1,117l-1.2-0.9c0.2-0.3,0.4-0.5,0.5-0.8l1.3,0.8C29.5,116.4,29.3,116.7,29.1,117z M8.6,115.8c-0.2-0.3-0.3-0.6-0.5-1
				l1.4-0.6c0.1,0.3,0.3,0.6,0.4,0.8L8.6,115.8z M30.6,114.2l-1.4-0.5c0.1-0.3,0.2-0.6,0.3-0.9l1.4,0.4
				C30.8,113.5,30.7,113.9,30.6,114.2z M7.5,112.8c-0.1-0.3-0.1-0.7-0.2-1l1.5-0.2c0,0.3,0.1,0.6,0.2,0.9L7.5,112.8z M31.3,111.1
				l-1.5-0.1c0-0.3,0-0.6,0-0.9h1.5C31.3,110.4,31.3,110.7,31.3,111.1z M8.6,109.7l-1.5,0c0-0.4,0-0.7,0.1-1.1l1.5,0.2
				C8.7,109,8.7,109.3,8.6,109.7z M29.7,108.9c0-0.3-0.1-0.6-0.1-0.9l1.5-0.3c0.1,0.3,0.1,0.7,0.2,1.1L29.7,108.9z M9.1,106.9
				l-1.4-0.4c0.1-0.3,0.2-0.7,0.4-1l1.4,0.6C9.3,106.3,9.2,106.6,9.1,106.9z M29.1,106.1c-0.1-0.3-0.2-0.6-0.4-0.9l1.3-0.7
				c0.2,0.3,0.3,0.6,0.4,1L29.1,106.1z M10.3,104.4L9,103.6c0.2-0.3,0.4-0.6,0.6-0.9l1.2,0.9C10.6,103.8,10.4,104.1,10.3,104.4z
				 M27.7,103.7c-0.2-0.2-0.4-0.5-0.6-0.7l1.1-1c0.2,0.3,0.5,0.5,0.7,0.8L27.7,103.7z M12.1,102.2l-1-1.1c0.3-0.2,0.5-0.5,0.8-0.7
				l0.9,1.2C12.5,101.8,12.3,102,12.1,102.2z M25.8,101.7c-0.2-0.2-0.5-0.4-0.8-0.5l0.8-1.3c0.3,0.2,0.6,0.4,0.9,0.6L25.8,101.7z
				 M14.3,100.6l-0.7-1.3c0.3-0.2,0.6-0.3,1-0.4l0.6,1.4C14.9,100.3,14.6,100.5,14.3,100.6z M23.4,100.3c-0.3-0.1-0.6-0.2-0.9-0.3
				l0.5-1.4c0.3,0.1,0.7,0.2,1,0.4L23.4,100.3z M17,99.7l-0.3-1.5c0.3-0.1,0.7-0.1,1-0.2l0.2,1.5C17.6,99.5,17.3,99.6,17,99.7z
				 M20.7,99.5c-0.3,0-0.6-0.1-0.9-0.1l0.1-1.5c0.4,0,0.7,0.1,1.1,0.1L20.7,99.5z"/>
		</g>
		<g>
			<circle fill="#FF7058" cx="19.2" cy="110" r="9"/>
		</g>
		<g>
			<circle fill="#FFFFFF" cx="19.2" cy="110" r="4.5"/>
			<path fill="#231F20" d="M19.2,115.3c-2.9,0-5.2-2.4-5.2-5.2c0-2.9,2.4-5.2,5.2-5.2c2.9,0,5.2,2.4,5.2,5.2
				C24.5,112.9,22.1,115.3,19.2,115.3z M19.2,106.3c-2.1,0-3.7,1.7-3.7,3.7c0,2.1,1.7,3.7,3.7,3.7s3.7-1.7,3.7-3.7
				C23,107.9,21.3,106.3,19.2,106.3z"/>
		</g>
		<g>
			<rect x="31.2" y="69.3" fill="#231F20" width="30.6" height="1.5"/>
		</g>
		<g>
			<rect x="31.2" y="72.7" fill="#231F20" width="30.6" height="1.5"/>
		</g>
		<g>
			<rect x="31.2" y="76.2" fill="#231F20" width="30.6" height="1.5"/>
		</g>
		<g>
			<rect x="31.2" y="79.6" fill="#231F20" width="19.6" height="1.5"/>
		</g>
		<rect x="2.1" y="1.4" fill="#FFFFFF" width="33.4" height="44.1"/>
		<path fill="#231F20" d="M112.6,29.4L88.7,5.5c-0.1-0.1-0.3-0.2-0.5-0.2H36.2V0.6H1.4v45.6h16.7v44.9h-1c-0.4,0-0.7,0.3-0.7,0.7
			L16,94.7c-1.9,0.4-3.8,1.1-5.4,2.2l-2.2-1.8c-0.3-0.2-0.7-0.2-1,0l-3.1,3.1c-0.3,0.3-0.3,0.7,0,1l1.8,2.2
			c-1.1,1.6-1.8,3.5-2.2,5.4l-2.8,0.3c-0.4,0-0.7,0.4-0.7,0.7v4.4c0,0.4,0.3,0.7,0.7,0.7l2.8,0.3c0.4,1.9,1.1,3.7,2.2,5.4l-1.8,2.2
			c-0.2,0.3-0.2,0.7,0,1l3.1,3.1c0.3,0.3,0.7,0.3,1,0l2.2-1.8c1.6,1.1,3.5,1.8,5.4,2.2l0.3,2.8c0,0.4,0.4,0.7,0.7,0.7h4.4
			c0.4,0,0.7-0.3,0.7-0.7l0-0.4H112c0.4,0,0.8-0.3,0.8-0.8V29.9C112.8,29.7,112.7,29.5,112.6,29.4z M88.9,7.9l21.3,21.3H88.9V7.9z
			 M2.9,44.7V2.1h31.9v42.6H2.9z M21.6,124c-0.3,0.1-0.6,0.3-0.6,0.7l-0.2,2.7h-3l-0.2-2.7c0-0.3-0.3-0.6-0.6-0.7
			c-2.1-0.4-4.1-1.2-5.8-2.4c-0.3-0.2-0.7-0.2-0.9,0L8,123.3l-2.1-2.1l1.7-2.1c0.2-0.3,0.2-0.6,0-0.9c-1.2-1.7-2.1-3.7-2.4-5.8
			c-0.1-0.3-0.3-0.6-0.7-0.6l-2.7-0.2v-3l2.7-0.2c0.3,0,0.6-0.3,0.7-0.6c0.4-2.1,1.2-4.1,2.4-5.8c0.2-0.3,0.2-0.7,0-0.9l-1.7-2.1
			L8,96.7l2.1,1.7c0.3,0.2,0.6,0.2,0.9,0c1.7-1.2,3.7-2.1,5.8-2.4c0.3-0.1,0.6-0.3,0.6-0.7l0.2-2.7h3l0.2,2.7c0,0.3,0.3,0.6,0.6,0.7
			c2.1,0.4,4.1,1.2,5.8,2.4c0.3,0.2,0.7,0.2,0.9,0l2.1-1.7l2.1,2.1l-1.7,2.1c-0.2,0.3-0.2,0.6,0,0.9c1.2,1.7,2.1,3.7,2.4,5.8
			c0.1,0.3,0.3,0.6,0.7,0.6l2.7,0.2v3l-2.7,0.2c-0.3,0-0.6,0.3-0.7,0.6c-0.4,2.1-1.2,4.1-2.4,5.8c-0.2,0.3-0.2,0.7,0,0.9l1.7,2.1
			l-2.1,2.1l-2.1-1.7c-0.3-0.2-0.6-0.2-0.9,0C25.7,122.8,23.7,123.6,21.6,124z M111.3,126.3h-89l0.1-0.9c1.9-0.4,3.7-1.1,5.4-2.2
			l2.2,1.8c0.3,0.2,0.7,0.2,1,0l3.1-3.1c0.3-0.3,0.3-0.7,0-1l-1.8-2.2c1-1.5,1.7-3.2,2.1-5l2,2c0.3,0.3,0.8,0.3,1.1,0l14.7-14.7
			c0.7,0.5,1.6,0.8,2.5,0.8c1,0,1.9-0.3,2.6-0.9l1.4,1.4c-0.4,0.7-0.6,1.4-0.6,2.2c0,2.4,2,4.4,4.4,4.4c2.4,0,4.4-2,4.4-4.4
			c0-0.8-0.2-1.5-0.6-2.2l8.2-8.2c0.7,0.5,1.6,0.8,2.5,0.8c0.9,0,1.8-0.3,2.5-0.8l2.8,2.8c0.3,0.3,0.8,0.3,1.1,0l16.8-16.8l4,4
			c0.1,0.1,0.3,0.2,0.5,0.2c0.1,0,0.2,0,0.3-0.1c0.3-0.1,0.5-0.4,0.5-0.7v-9.1c0-0.4-0.3-0.8-0.8-0.8h-9.1c-0.3,0-0.6,0.2-0.7,0.5
			c-0.1,0.3-0.1,0.6,0.2,0.8l4,4L82.8,95.1l-2.3-2.3c0.5-0.7,0.8-1.6,0.8-2.5c0-2.4-2-4.4-4.4-4.4c-2.4,0-4.4,2-4.4,4.4
			c0,0.9,0.3,1.8,0.8,2.5l-8.2,8.2c-0.8-0.6-1.7-1-2.8-1c-1.1,0-2,0.4-2.8,1l-1.3-1.3c0.5-0.7,0.7-1.5,0.7-2.4c0-2.4-2-4.4-4.4-4.4
			c-2.4,0-4.4,2-4.4,4.4c0,1,0.3,1.8,0.8,2.5L37,114l-1-1l1.3-0.1c0.4,0,0.7-0.4,0.7-0.7v-4.4c0-0.4-0.3-0.7-0.7-0.7l-2.8-0.3
			c-0.4-1.9-1.1-3.7-2.2-5.4l1.8-2.2c0.2-0.3,0.2-0.7,0-1L31,95.1c-0.3-0.3-0.7-0.3-1,0l-2.2,1.8c-1.6-1.1-3.5-1.8-5.4-2.2l-0.3-2.8
			c0-0.4-0.4-0.7-0.7-0.7h-1.9V46.2h16.7V6.8h51.2v23.1c0,0.4,0.3,0.8,0.8,0.8h23.1V126.3z M51.9,97.3c0-1.6,1.3-2.9,2.9-2.9
			c1.6,0,2.9,1.3,2.9,2.9s-1.3,2.9-2.9,2.9C53.2,100.2,51.9,98.9,51.9,97.3z M59.6,104.4c0-1.6,1.3-2.9,2.9-2.9
			c1.6,0,2.9,1.3,2.9,2.9c0,1.6-1.3,2.9-2.9,2.9C60.9,107.2,59.6,105.9,59.6,104.4z M74.1,90.3c0-1.6,1.3-2.9,2.9-2.9
			c1.6,0,2.9,1.3,2.9,2.9c0,1.6-1.3,2.9-2.9,2.9C75.4,93.2,74.1,91.9,74.1,90.3z M97.5,75.1h6.5v6.5L97.5,75.1z"/>
		<g>
			<rect x="5.4" y="4.6" fill="#FF7058" width="26.9" height="8.6"/>
			<path fill="#231F20" d="M33,14H4.6V3.9H33V14z M6.1,12.5h25.4V5.4H6.1V12.5z"/>
		</g>
		<g>
			<rect x="26.1" y="16.8" fill="#FFFFFF" width="6.1" height="6.1"/>
			<path fill="#231F20" d="M33,23.6h-7.6V16H33V23.6z M26.9,22.1h4.6v-4.6h-4.6V22.1z"/>
		</g>
		<g>
			<rect x="15.9" y="16.8" fill="#FFFFFF" width="6.1" height="6.1"/>
			<path fill="#231F20" d="M22.7,23.6h-7.6V16h7.6V23.6z M16.6,22.1h4.6v-4.6h-4.6V22.1z"/>
		</g>
		<g>
			<rect x="5.6" y="16.8" fill="#FFFFFF" width="6.1" height="6.1"/>
			<path fill="#231F20" d="M12.5,23.6H4.9V16h7.6V23.6z M6.4,22.1H11v-4.6H6.4V22.1z"/>
		</g>
		<g>
			<rect x="26.1" y="26.5" fill="#FFFFFF" width="6.1" height="6.1"/>
			<path fill="#231F20" d="M33,33.3h-7.6v-7.6H33V33.3z M26.9,31.8h4.6v-4.6h-4.6V31.8z"/>
		</g>
		<g>
			<rect x="15.9" y="26.5" fill="#FFFFFF" width="6.1" height="6.1"/>
			<path fill="#231F20" d="M22.7,33.3h-7.6v-7.6h7.6V33.3z M16.6,31.8h4.6v-4.6h-4.6V31.8z"/>
		</g>
		<g>
			<rect x="5.6" y="26.5" fill="#FFFFFF" width="6.1" height="6.1"/>
			<path fill="#231F20" d="M12.5,33.3H4.9v-7.6h7.6V33.3z M6.4,31.8H11v-4.6H6.4V31.8z"/>
		</g>
		<g>
			<rect x="26.1" y="36.2" fill="#FFFFFF" width="6.1" height="6.1"/>
			<path fill="#231F20" d="M33,43h-7.6v-7.6H33V43z M26.9,41.5h4.6v-4.6h-4.6V41.5z"/>
		</g>
		<g>
			<rect x="15.9" y="36.2" fill="#FFFFFF" width="6.1" height="6.1"/>
			<path fill="#231F20" d="M22.7,43h-7.6v-7.6h7.6V43z M16.6,41.5h4.6v-4.6h-4.6V41.5z"/>
		</g>
		<g>
			<rect x="5.6" y="36.2" fill="#FFFFFF" width="6.1" height="6.1"/>
			<path fill="#231F20" d="M12.5,43H4.9v-7.6h7.6V43z M6.4,41.5H11v-4.6H6.4V41.5z"/>
		</g>
		<g>
			<path fill="#FFFFFF" d="M28.2,9.7h-1V8.2h1V9.7z M25.2,9.7h-1V8.2h1V9.7z M22.2,9.7h-1V8.2h1V9.7z M19.2,9.7h-1V8.2h1V9.7z
				 M16.2,9.7h-1V8.2h1V9.7z M13.2,9.7h-1V8.2h1V9.7z M10.2,9.7h-1V8.2h1V9.7z"/>
		</g>
		<g>
			<circle fill="#E6E9EE" cx="9.3" cy="56.6" r="2.6"/>
		</g>
	</g>
</g>
</svg>
