<?xml version="1.0" encoding="utf-8"?>
<!-- Generator: Adobe Illustrator 18.0.0, SVG Export Plug-In . SVG Version: 6.00 Build 0)  -->
<!DOCTYPE svg PUBLIC "-//W3C//DTD SVG 1.1//EN" "http://www.w3.org/Graphics/SVG/1.1/DTD/svg11.dtd">
<svg version="1.1" id="Layer_1" xmlns="http://www.w3.org/2000/svg" xmlns:xlink="http://www.w3.org/1999/xlink" x="0px" y="0px"
	 viewBox="0 0 129.5 129.5" enable-background="new 0 0 129.5 129.5" xml:space="preserve">
<g>
	<g>
		<path fill="#E6E9EE" d="M65.1,20.8c19.4,0,35.2,15.3,36,34.6c0-0.5,0-1,0-1.5c0-19.9-16.1-36.1-36.1-36.1
			C45.2,17.7,29,33.9,29,53.8c0,0.5,0,1,0,1.5C29.9,36.1,45.7,20.8,65.1,20.8z"/>
		<path fill="#E6E9EE" d="M65.1,84.1c15.1,0,27.3-12.2,27.3-27.3c0-0.5,0-1,0-1.5c-0.8,14.4-12.7,25.8-27.2,25.8
			c-14.6,0-26.5-11.4-27.2-25.8c0,0.5,0,1,0,1.5C37.8,71.9,50.1,84.1,65.1,84.1z"/>
		<path fill="#E6E9EE" d="M69.7,89.9v10.4l-9.1-10.4c1.5,0.2,3,0.3,4.6,0.3C66.7,90.2,68.2,90.1,69.7,89.9z"/>
		<path fill="#FFFFFF" d="M74.1,128.7v-24.3c0-2.3-1.9-4.1-4.1-4.1h-9.6c-2.3,0-4.1,1.9-4.1,4.1v24.3H74.1z"/>
		<rect x="56.2" y="107.9" fill="#E6E9EE" width="17.9" height="20.9"/>
		<circle fill="#FFFFFF" cx="65.1" cy="53.8" r="27.3"/>
		<g>
			
				<rect x="53.5" y="8.7" transform="matrix(0.1736 0.9848 -0.9848 0.1736 56.6777 -48.5993)" fill="#231F20" width="7.5" height="1.5"/>
			
				<rect x="46" y="10.7" transform="matrix(0.342 0.9397 -0.9397 0.342 43.5227 -39.1489)" fill="#231F20" width="7.5" height="1.5"/>
			
				<rect x="76.8" y="95.4" transform="matrix(-0.342 -0.9397 0.9397 -0.342 17.7275 204.6572)" fill="#231F20" width="7.5" height="1.5"/>
			
				<rect x="32.4" y="18.6" transform="matrix(0.6428 0.766 -0.766 0.6428 27.7239 -20.8092)" fill="#231F20" width="7.5" height="1.5"/>
			
				<rect x="90.3" y="87.5" transform="matrix(-0.6428 -0.766 0.766 -0.6428 86.8752 217.1161)" fill="#231F20" width="7.5" height="1.5"/>
			
				<rect x="26.9" y="24.1" transform="matrix(0.766 0.6428 -0.6428 0.766 23.1518 -13.8665)" fill="#231F20" width="7.5" height="1.5"/>
			
				<rect x="95.8" y="82" transform="matrix(-0.766 -0.6428 0.6428 -0.766 122.7097 210.1742)" fill="#231F20" width="7.5" height="1.5"/>
			
				<rect x="22.1" y="34.7" transform="matrix(0.3419 -0.9397 0.9397 0.3419 -21.0895 46.712)" fill="#231F20" width="1.5" height="7.5"/>
			
				<rect x="106.7" y="65.5" transform="matrix(-0.3419 0.9397 -0.9397 -0.3419 209.1945 -8.0759)" fill="#231F20" width="1.5" height="7.5"/>
			
				<rect x="17" y="45.2" transform="matrix(0.9848 0.1736 -0.1736 0.9848 8.3019 -2.9087)" fill="#231F20" width="7.5" height="1.5"/>
			
				<rect x="105.7" y="60.9" transform="matrix(-0.9848 -0.1737 0.1737 -0.9848 206.5448 141.3356)" fill="#231F20" width="7.5" height="1.5"/>
			
				<rect x="17" y="60.9" transform="matrix(0.9848 -0.1737 0.1737 0.9848 -10.3894 4.5455)" fill="#231F20" width="7.5" height="1.5"/>
			
				<rect x="105.7" y="45.2" transform="matrix(-0.9848 0.1736 -0.1736 -0.9848 225.2351 72.2875)" fill="#231F20" width="7.5" height="1.5"/>
			
				<rect x="22.1" y="65.5" transform="matrix(-0.3419 -0.9397 0.9397 -0.3419 -34.437 114.3075)" fill="#231F20" width="1.5" height="7.5"/>
			
				<rect x="103.7" y="37.7" transform="matrix(0.9397 -0.342 0.342 0.9397 -6.6596 39.0585)" fill="#231F20" width="7.5" height="1.5"/>
			
				<rect x="26.9" y="82" transform="matrix(0.766 -0.6428 0.6428 0.766 -46.0298 39.0487)" fill="#231F20" width="7.5" height="1.5"/>
			
				<rect x="95.8" y="24.1" transform="matrix(-0.766 0.6428 -0.6428 -0.766 191.897 -20.1008)" fill="#231F20" width="7.5" height="1.5"/>
			
				<rect x="32.4" y="87.5" transform="matrix(0.6428 -0.766 0.766 0.6428 -54.7225 59.2543)" fill="#231F20" width="7.5" height="1.5"/>
			
				<rect x="90.3" y="18.6" transform="matrix(-0.6428 0.766 -0.766 -0.6428 169.319 -40.307)" fill="#231F20" width="7.5" height="1.5"/>
			
				<rect x="46" y="95.4" transform="matrix(0.342 -0.9397 0.9397 0.342 -57.6128 109.9655)" fill="#231F20" width="7.5" height="1.5"/>
			
				<rect x="79.8" y="7.7" transform="matrix(0.9397 0.3419 -0.3419 0.9397 8.786 -26.8363)" fill="#231F20" width="1.5" height="7.5"/>
			
				<rect x="69.2" y="8.7" transform="matrix(-0.1737 0.9848 -0.9848 -0.1737 94.9302 -60.7079)" fill="#231F20" width="7.5" height="1.5"/>
			<rect x="64.4" y="0" fill="#231F20" width="1.5" height="12.5"/>
			<rect x="106.4" y="53.1" fill="#231F20" width="12.5" height="1.5"/>
			<rect x="11.3" y="53.1" fill="#231F20" width="12.5" height="1.5"/>
			<rect x="35.1" y="11.9" transform="matrix(0.5 0.866 -0.866 0.5 31.6225 -29.4856)" fill="#231F20" width="12.5" height="1.5"/>
			
				<rect x="82.6" y="94.2" transform="matrix(-0.5 -0.866 0.866 -0.5 51.0729 219.4518)" fill="#231F20" width="12.5" height="1.5"/>
			<rect x="100" y="29.3" transform="matrix(-0.866 0.5 -0.5 -0.866 213.3537 2.9201)" fill="#231F20" width="12.5" height="1.5"/>
			<rect x="17.7" y="76.8" transform="matrix(0.866 -0.5 0.5 0.866 -35.5838 22.3678)" fill="#231F20" width="12.5" height="1.5"/>
			<rect x="17.7" y="29.3" transform="matrix(0.866 0.5 -0.5 0.866 18.2292 -7.9479)" fill="#231F20" width="12.5" height="1.5"/>
			
				<rect x="100" y="76.8" transform="matrix(-0.866 -0.5 0.5 -0.866 159.5424 197.9123)" fill="#231F20" width="12.5" height="1.5"/>
			
				<rect x="82.6" y="11.9" transform="matrix(-0.5 0.866 -0.866 -0.5 144.2782 -58.012)" fill="#231F20" width="12.5" height="1.5"/>
			<rect x="35.1" y="94.2" transform="matrix(0.5 -0.866 0.866 0.5 -61.5846 83.2997)" fill="#231F20" width="12.5" height="1.5"/>
			<path fill="#231F20" d="M70.4,99.6v-9.3c17.8-2.6,31.5-17.9,31.5-36.4c0-20.3-16.5-36.8-36.8-36.8c-20.3,0-36.8,16.5-36.8,36.8
				c0,18.5,13.7,33.8,31.5,36.4v9.3c-2.5,0.3-4.4,2.3-4.4,4.8v25.1h19.4v-25.1C74.8,101.9,72.9,99.9,70.4,99.6z M29.8,53.8
				c0-19.5,15.8-35.3,35.3-35.3s35.3,15.8,35.3,35.3S84.6,89.1,65.1,89.1S29.8,73.3,29.8,53.8z M68.9,90.7v8.8h-7.6v-8.8
				C63.8,91,66.4,91,68.9,90.7z M73.3,128H56.9v-19.4h16.4V128z M73.3,107.1H56.9v-2.7c0-1.9,1.5-3.4,3.4-3.4h9.6
				c1.9,0,3.4,1.5,3.4,3.4V107.1z"/>
			<path fill="#231F20" d="M93.1,53.8c0-15.5-12.6-28-28-28c-15.5,0-28,12.6-28,28s12.6,28,28,28C80.6,81.8,93.1,69.3,93.1,53.8z
				 M38.6,53.8c0-14.6,11.9-26.5,26.5-26.5c14.6,0,26.5,11.9,26.5,26.5c0,14.6-11.9,26.5-26.5,26.5C50.5,80.3,38.6,68.4,38.6,53.8z"
				/>
		</g>
		<circle fill="#84DBFF" cx="65.1" cy="53.8" r="17.1"/>
		<circle fill="#54C0EB" cx="65.1" cy="53.8" r="10.5"/>
		<circle fill="#FFFFFF" cx="57.4" cy="47.4" r="3.7"/>
		<circle fill="#FFFFFF" cx="62.5" cy="52.5" r="1.8"/>
		<path fill="#231F20" d="M120.3,7.3c-0.2,0-0.4-0.1-0.5-0.2c-0.3-0.3-0.3-0.8,0-1.1l1.3-1.3c0.3-0.3,0.8-0.3,1.1,0
			c0.3,0.3,0.3,0.8,0,1.1l-1.3,1.3C120.7,7.3,120.5,7.3,120.3,7.3z"/>
		<path fill="#231F20" d="M116.3,11.4c-0.2,0-0.4-0.1-0.5-0.2c-0.3-0.3-0.3-0.8,0-1.1l1.3-1.3c0.3-0.3,0.8-0.3,1.1,0
			c0.3,0.3,0.3,0.8,0,1.1l-1.3,1.3C116.6,11.3,116.4,11.4,116.3,11.4z"/>
		<path fill="#231F20" d="M121.6,11.4c-0.2,0-0.4-0.1-0.5-0.2l-1.3-1.3c-0.3-0.3-0.3-0.8,0-1.1c0.3-0.3,0.8-0.3,1.1,0l1.3,1.3
			c0.3,0.3,0.3,0.8,0,1.1C122,11.3,121.8,11.4,121.6,11.4z"/>
		<path fill="#231F20" d="M117.5,7.3c-0.2,0-0.4-0.1-0.5-0.2l-1.3-1.3c-0.3-0.3-0.3-0.8,0-1.1c0.3-0.3,0.8-0.3,1.1,0l1.3,1.3
			c0.3,0.3,0.3,0.8,0,1.1C117.9,7.3,117.7,7.3,117.5,7.3z"/>
		<path fill="#231F20" d="M10.7,14.4c-0.2,0-0.4-0.1-0.5-0.2c-0.3-0.3-0.3-0.8,0-1.1l1.3-1.3c0.3-0.3,0.8-0.3,1.1,0
			c0.3,0.3,0.3,0.8,0,1.1l-1.3,1.3C11,14.3,10.8,14.4,10.7,14.4z"/>
		<path fill="#231F20" d="M6.6,18.5c-0.2,0-0.4-0.1-0.5-0.2c-0.3-0.3-0.3-0.8,0-1.1l1.3-1.3c0.3-0.3,0.8-0.3,1.1,0
			c0.3,0.3,0.3,0.8,0,1.1l-1.3,1.3C7,18.4,6.8,18.5,6.6,18.5z"/>
		<path fill="#231F20" d="M12,18.5c-0.2,0-0.4-0.1-0.5-0.2l-1.3-1.3c-0.3-0.3-0.3-0.8,0-1.1c0.3-0.3,0.8-0.3,1.1,0l1.3,1.3
			c0.3,0.3,0.3,0.8,0,1.1C12.3,18.4,12.1,18.5,12,18.5z"/>
		<path fill="#231F20" d="M7.9,14.4c-0.2,0-0.4-0.1-0.5-0.2l-1.3-1.3c-0.3-0.3-0.3-0.8,0-1.1c0.3-0.3,0.8-0.3,1.1,0l1.3,1.3
			c0.3,0.3,0.3,0.8,0,1.1C8.3,14.3,8.1,14.4,7.9,14.4z"/>
		<g>
			<path fill="#231F20" d="M112.3,112.6c0.2,0,0.4-0.1,0.5-0.2l1.3-1.3c0.3-0.3,0.3-0.8,0-1.1c-0.3-0.3-0.8-0.3-1.1,0l-1.3,1.3
				c-0.3,0.3-0.3,0.8,0,1.1C112,112.5,112.1,112.6,112.3,112.6z"/>
			<path fill="#231F20" d="M109,114.1l-1.3,1.3c-0.3,0.3-0.3,0.8,0,1.1c0.1,0.1,0.3,0.2,0.5,0.2s0.4-0.1,0.5-0.2l1.3-1.3
				c0.3-0.3,0.3-0.8,0-1.1C109.8,113.8,109.3,113.8,109,114.1z"/>
			<path fill="#231F20" d="M112.9,114.1c-0.3-0.3-0.8-0.3-1.1,0c-0.3,0.3-0.3,0.8,0,1.1l1.3,1.3c0.1,0.1,0.3,0.2,0.5,0.2
				c0.2,0,0.4-0.1,0.5-0.2c0.3-0.3,0.3-0.8,0-1.1L112.9,114.1z"/>
			<path fill="#231F20" d="M108.8,110c-0.3-0.3-0.8-0.3-1.1,0c-0.3,0.3-0.3,0.8,0,1.1l1.3,1.3c0.1,0.1,0.3,0.2,0.5,0.2
				c0.2,0,0.4-0.1,0.5-0.2c0.3-0.3,0.3-0.8,0-1.1L108.8,110z"/>
		</g>
		<line fill="#FFFFFF" x1="13" y1="113.8" x2="21.1" y2="113.8"/>
		<path fill="#231F20" d="M21.1,114.5H13c-0.4,0-0.8-0.3-0.8-0.8c0-0.4,0.3-0.8,0.8-0.8h8.1c0.4,0,0.8,0.3,0.8,0.8
			C21.9,114.2,21.5,114.5,21.1,114.5z"/>
		<line fill="#FFFFFF" x1="20.3" y1="116.7" x2="24.3" y2="116.7"/>
		<path fill="#231F20" d="M24.3,117.5h-4c-0.4,0-0.8-0.3-0.8-0.8c0-0.4,0.3-0.8,0.8-0.8h4c0.4,0,0.8,0.3,0.8,0.8
			C25.1,117.1,24.7,117.5,24.3,117.5z"/>
		<line fill="#FFFFFF" x1="24.8" y1="113.8" x2="28.6" y2="113.8"/>
		<path fill="#231F20" d="M28.6,114.5h-3.8c-0.4,0-0.8-0.3-0.8-0.8c0-0.4,0.3-0.8,0.8-0.8h3.8c0.4,0,0.8,0.3,0.8,0.8
			C29.3,114.2,29,114.5,28.6,114.5z"/>
		<line fill="#FFFFFF" x1="16.6" y1="116.7" x2="17.4" y2="116.7"/>
		<path fill="#231F20" d="M17.4,117.5h-0.8c-0.4,0-0.8-0.3-0.8-0.8c0-0.4,0.3-0.8,0.8-0.8h0.8c0.4,0,0.8,0.3,0.8,0.8
			C18.2,117.1,17.8,117.5,17.4,117.5z"/>
		<circle fill="#FFD05B" cx="26.3" cy="7.2" r="2.2"/>
		<circle fill="#E6E9EE" cx="121.6" cy="22.5" r="2.2"/>
		<circle fill="#FF7058" cx="7.9" cy="74.4" r="2.2"/>
		<circle fill="#FF7058" cx="118.9" cy="99.7" r="2.2"/>
		<circle fill="#84DBFF" cx="43.5" cy="118.3" r="2.2"/>
	</g>
</g>
</svg>
