<?xml version="1.0" encoding="utf-8"?>
<!-- Generator: Adobe Illustrator 18.0.0, SVG Export Plug-In . SVG Version: 6.00 Build 0)  -->
<!DOCTYPE svg PUBLIC "-//W3C//DTD SVG 1.1//EN" "http://www.w3.org/Graphics/SVG/1.1/DTD/svg11.dtd">
<svg version="1.1" id="Layer_1" xmlns="http://www.w3.org/2000/svg" xmlns:xlink="http://www.w3.org/1999/xlink" x="0px" y="0px"
	 viewBox="0 0 129.5 129.5" enable-background="new 0 0 129.5 129.5" xml:space="preserve">
<g>
	<g>
		<polygon fill="#E6E9EE" points="102.7,127.8 99.5,127.8 99.5,119.6 		"/>
		<polygon fill="#E6E9EE" points="27.7,127.8 30.9,127.8 30.9,119.6 		"/>
		<g>
			<path fill="#231F20" d="M78.4,9.1c-0.2,0-0.4-0.1-0.5-0.2c-0.3-0.3-0.3-0.8,0-1.1l1.3-1.3c0.3-0.3,0.8-0.3,1.1,0
				c0.3,0.3,0.3,0.8,0,1.1l-1.3,1.3C78.8,9,78.6,9.1,78.4,9.1z"/>
		</g>
		<g>
			<path fill="#231F20" d="M74.4,13.1c-0.2,0-0.4-0.1-0.5-0.2c-0.3-0.3-0.3-0.8,0-1.1l1.3-1.3c0.3-0.3,0.8-0.3,1.1,0
				c0.3,0.3,0.3,0.8,0,1.1l-1.3,1.3C74.8,13.1,74.6,13.1,74.4,13.1z"/>
		</g>
		<g>
			<path fill="#231F20" d="M79.7,13.1c-0.2,0-0.4-0.1-0.5-0.2l-1.3-1.3c-0.3-0.3-0.3-0.8,0-1.1c0.3-0.3,0.8-0.3,1.1,0l1.3,1.3
				c0.3,0.3,0.3,0.8,0,1.1C80.1,13.1,79.9,13.1,79.7,13.1z"/>
		</g>
		<g>
			<path fill="#231F20" d="M75.7,9.1c-0.2,0-0.4-0.1-0.5-0.2l-1.3-1.3c-0.3-0.3-0.3-0.8,0-1.1c0.3-0.3,0.8-0.3,1.1,0l1.3,1.3
				c0.3,0.3,0.3,0.8,0,1.1C76.1,9,75.9,9.1,75.7,9.1z"/>
		</g>
		<g>
			<path fill="#231F20" d="M18.9,56.2c-0.2,0-0.4-0.1-0.5-0.2c-0.3-0.3-0.3-0.8,0-1.1l1.3-1.3c0.3-0.3,0.8-0.3,1.1,0
				c0.3,0.3,0.3,0.8,0,1.1L19.4,56C19.3,56.1,19.1,56.2,18.9,56.2z"/>
		</g>
		<g>
			<path fill="#231F20" d="M14.9,60.2c-0.2,0-0.4-0.1-0.5-0.2c-0.3-0.3-0.3-0.8,0-1.1l1.3-1.3c0.3-0.3,0.8-0.3,1.1,0
				c0.3,0.3,0.3,0.8,0,1.1L15.4,60C15.3,60.2,15.1,60.2,14.9,60.2z"/>
		</g>
		<g>
			<path fill="#231F20" d="M20.2,60.2c-0.2,0-0.4-0.1-0.5-0.2l-1.3-1.3c-0.3-0.3-0.3-0.8,0-1.1c0.3-0.3,0.8-0.3,1.1,0l1.3,1.3
				c0.3,0.3,0.3,0.8,0,1.1C20.6,60.2,20.4,60.2,20.2,60.2z"/>
		</g>
		<g>
			<path fill="#231F20" d="M16.2,56.2c-0.2,0-0.4-0.1-0.5-0.2l-1.3-1.3c-0.3-0.3-0.3-0.8,0-1.1c0.3-0.3,0.8-0.3,1.1,0l1.3,1.3
				c0.3,0.3,0.3,0.8,0,1.1C16.5,56.1,16.3,56.2,16.2,56.2z"/>
		</g>
		<g>
			<path fill="#231F20" d="M106.7,42.4c-0.2,0-0.4-0.1-0.5-0.2c-0.3-0.3-0.3-0.8,0-1.1l1.3-1.3c0.3-0.3,0.8-0.3,1.1,0
				c0.3,0.3,0.3,0.8,0,1.1l-1.3,1.3C107.1,42.3,106.9,42.4,106.7,42.4z"/>
		</g>
		<g>
			<path fill="#231F20" d="M102.7,46.4c-0.2,0-0.4-0.1-0.5-0.2c-0.3-0.3-0.3-0.8,0-1.1l1.3-1.3c0.3-0.3,0.8-0.3,1.1,0s0.3,0.8,0,1.1
				l-1.3,1.3C103.1,46.3,102.9,46.4,102.7,46.4z"/>
		</g>
		<g>
			<path fill="#231F20" d="M108,46.4c-0.2,0-0.4-0.1-0.5-0.2l-1.3-1.3c-0.3-0.3-0.3-0.8,0-1.1c0.3-0.3,0.8-0.3,1.1,0l1.3,1.3
				c0.3,0.3,0.3,0.8,0,1.1C108.4,46.3,108.2,46.4,108,46.4z"/>
		</g>
		<g>
			<path fill="#231F20" d="M104,42.4c-0.2,0-0.4-0.1-0.5-0.2l-1.3-1.3c-0.3-0.3-0.3-0.8,0-1.1c0.3-0.3,0.8-0.3,1.1,0l1.3,1.3
				c0.3,0.3,0.3,0.8,0,1.1C104.4,42.3,104.2,42.4,104,42.4z"/>
		</g>
		<polyline fill="#FFFFFF" points="82.9,83.6 72.4,96.4 65.2,87.1 58,96.4 47.6,83.6 		"/>
		<path fill="#FFFFFF" d="M74.4,73.4v8.5l-9.2,5.2l-9.2-5.2v-8.5c2.8,2.3,5.9,3.7,9.2,3.7C68.5,77.1,71.6,75.7,74.4,73.4z"/>
		<path fill="#FFFFFF" d="M86,43c-0.8-14-9.8-19.2-20.8-19.2S45.2,29,44.4,43"/>
		<path fill="#231F20" d="M44.4,43.7C44.4,43.7,44.4,43.7,44.4,43.7c-0.5,0-0.8-0.4-0.7-0.8C44.4,30.1,52.1,23,65.2,23
			S86,30.1,86.7,42.9c0,0.4-0.3,0.8-0.7,0.8c-0.4,0-0.8-0.3-0.8-0.7c-0.9-16.1-12.9-18.5-20-18.5c-7.1,0-19.1,2.4-20,18.5
			C45.2,43.4,44.8,43.7,44.4,43.7z"/>
		<path fill="#FFFFFF" d="M48.3,62.6c3.8,8.3,10,14.5,17,14.5c7,0,13.2-6.2,17-14.5"/>
		<rect x="98.8" y="119.6" fill="#231F20" width="1.5" height="8.2"/>
		<rect x="30.2" y="119.6" fill="#231F20" width="1.5" height="8.2"/>
		<circle fill="#FF7058" cx="4.2" cy="42.6" r="1.4"/>
		<circle fill="#E6E9EE" cx="35.8" cy="71.5" r="1.4"/>
		<circle fill="#FF7058" cx="117.2" cy="33.4" r="1.4"/>
		<circle fill="#FFD05B" cx="7.6" cy="90" r="1.4"/>
		<path fill="#84DBFF" d="M18.8,0.8c10.2,0,18.4,8.2,18.4,18.4c0,3.8-1.2,7.3-3.1,10.3l3.1,8.1l-8.1-3.1c-2.9,2-6.5,3.1-10.3,3.1
			c-10.2,0-18.4-8.2-18.4-18.4C0.4,9,8.6,0.8,18.8,0.8z"/>
		<g>
			<g>
				<rect x="7.6" y="20.3" fill="#FFFFFF" width="8.9" height="8.9"/>
				<path fill="#231F20" d="M16.5,30H7.6c-0.4,0-0.8-0.3-0.8-0.8v-8.9c0-0.4,0.3-0.8,0.8-0.8h8.9c0.4,0,0.8,0.3,0.8,0.8v8.9
					C17.3,29.7,16.9,30,16.5,30z M8.4,28.5h7.4v-7.4H8.4V28.5z"/>
			</g>
			<g>
				<rect x="20.9" y="20.3" fill="#FFFFFF" width="8.9" height="8.9"/>
				<path fill="#231F20" d="M29.8,30h-8.9c-0.4,0-0.8-0.3-0.8-0.8v-8.9c0-0.4,0.3-0.8,0.8-0.8h8.9c0.4,0,0.8,0.3,0.8,0.8v8.9
					C30.6,29.7,30.2,30,29.8,30z M21.7,28.5h7.4v-7.4h-7.4V28.5z"/>
			</g>
			<g>
				<line fill="#FFFFFF" x1="14" y1="22.9" x2="10.2" y2="26.7"/>
				
					<rect x="11.3" y="22.1" transform="matrix(0.7071 0.7071 -0.7071 0.7071 21.0703 -1.2792)" fill="#231F20" width="1.5" height="5.3"/>
			</g>
			<g>
				<line fill="#FFFFFF" x1="14" y1="26.7" x2="10.2" y2="22.9"/>
				
					<rect x="9.4" y="24" transform="matrix(0.7072 0.707 -0.707 0.7072 21.0653 -1.2811)" fill="#231F20" width="5.3" height="1.5"/>
			</g>
			<g>
				<polyline fill="#FFFFFF" points="28.1,22.9 24.4,26.7 22.6,25 				"/>
				<polygon fill="#231F20" points="24.4,27.7 22.1,25.5 23.2,24.4 24.4,25.6 27.6,22.4 28.7,23.4 				"/>
			</g>
		</g>
		<g>
			<line fill="#FFFFFF" x1="9.8" y1="8" x2="27.7" y2="8"/>
			<rect x="9.8" y="7.3" fill="#231F20" width="17.9" height="1.5"/>
		</g>
		<g>
			<line fill="#FFFFFF" x1="9.8" y1="10.8" x2="27.7" y2="10.8"/>
			<rect x="9.8" y="10" fill="#231F20" width="17.9" height="1.5"/>
		</g>
		<g>
			<line fill="#FFFFFF" x1="9.8" y1="13.6" x2="27.7" y2="13.6"/>
			<rect x="9.8" y="12.8" fill="#231F20" width="17.9" height="1.5"/>
		</g>
		<g>
			<line fill="#FFFFFF" x1="9.8" y1="16.3" x2="18.3" y2="16.3"/>
			<rect x="9.8" y="15.6" fill="#231F20" width="8.5" height="1.5"/>
		</g>
		<path fill="#231F20" d="M40.1,46.5c-0.4,0-0.7-0.3-0.7-0.7c0-0.5,0-1.1,0-1.6C39.3,27.8,49,18,65.2,18s25.9,9.8,25.9,26.2
			c0,0.5,0,1,0,1.5c0,0.4-0.4,0.8-0.8,0.7c-0.4,0-0.7-0.3-0.7-0.8l0,0c0-0.5,0-1,0-1.5c0-15.5-9.1-24.7-24.4-24.7
			s-24.4,9.3-24.4,24.7c0,0.5,0,1,0,1.5C40.9,46.2,40.6,46.5,40.1,46.5C40.1,46.5,40.1,46.5,40.1,46.5z"/>
		<path fill="#FFFFFF" d="M115.6,78.9l4.5,3c-0.4,4.5-1.8,9-4.5,13c-2.7,4-6.2,7.1-10.2,9.2l-4.5-3c-1.2-0.8-2.9-0.5-3.7,0.8
			l-4.9,7.5c-0.8,1.2-0.5,2.9,0.8,3.7l1,0.7c1.5,1,3.4,1.4,5.2,1c9.2-1.7,17.6-7,23.2-15.4c5.6-8.4,7.1-18.2,5.1-27.3
			c-0.4-1.8-1.5-3.4-3-4.4l-1-0.7c-1.2-0.8-2.9-0.5-3.7,0.8l-4.9,7.5C114,76.5,114.4,78.1,115.6,78.9z"/>
		<g>
			<path fill="#FFFFFF" d="M102.2,73.9c-1.3-8.2,4.3-15.8,12.6-17.1"/>
			<path fill="#231F20" d="M102.2,74.7c-0.4,0-0.7-0.3-0.7-0.6c-0.7-4.1,0.3-8.3,2.8-11.6c2.5-3.4,6.2-5.7,10.4-6.3
				c0.4-0.1,0.8,0.2,0.9,0.6c0.1,0.4-0.2,0.8-0.6,0.9c-3.8,0.6-7.2,2.6-9.4,5.7c-2.2,3.1-3.1,6.8-2.5,10.5c0.1,0.4-0.2,0.8-0.6,0.9
				C102.2,74.6,102.2,74.7,102.2,74.7z"/>
		</g>
		<g>
			<path fill="#FFFFFF" d="M105.5,73.4c-1-6.3,3.4-12.3,9.8-13.3"/>
			<path fill="#231F20" d="M105.5,74.1c-0.4,0-0.7-0.3-0.7-0.6c-0.5-3.2,0.3-6.5,2.2-9.2c2-2.7,4.9-4.5,8.2-5
				c0.4-0.1,0.8,0.2,0.9,0.6c0.1,0.4-0.2,0.8-0.6,0.9c-2.9,0.4-5.5,2-7.2,4.4c-1.7,2.3-2.4,5.2-1.9,8c0.1,0.4-0.2,0.8-0.6,0.9
				C105.6,74.1,105.5,74.1,105.5,74.1z"/>
		</g>
		<g>
			<path fill="#FFFFFF" d="M108.8,72.9c-0.7-4.6,2.4-8.8,7-9.5"/>
			<path fill="#231F20" d="M108.8,73.6c-0.4,0-0.7-0.3-0.7-0.6c-0.4-2.4,0.2-4.8,1.6-6.7c1.4-2,3.6-3.3,6-3.6
				c0.4-0.1,0.8,0.2,0.9,0.6c0.1,0.4-0.2,0.8-0.6,0.9c-2,0.3-3.8,1.4-5,3.1c-1.2,1.6-1.7,3.6-1.3,5.6c0.1,0.4-0.2,0.8-0.6,0.9
				C108.9,73.6,108.8,73.6,108.8,73.6z"/>
		</g>
		<polyline fill="#FFFFFF" points="94,113.8 89.6,118.2 46.1,118.2 		"/>
		<g>
			<rect x="59" y="124.5" fill="#231F20" width="1" height="1.5"/>
			<rect x="50" y="124.5" fill="#231F20" width="1" height="1.5"/>
			<rect x="53" y="124.5" fill="#231F20" width="1" height="1.5"/>
			<rect x="47" y="124.5" fill="#231F20" width="1" height="1.5"/>
			<path fill="#231F20" d="M41.9,122.3c0,0.4,0.2,0.8,0.3,1.2l1.4-0.6c-0.1-0.2-0.2-0.5-0.2-0.8L41.9,122.3z"/>
			<path fill="#231F20" d="M42.9,118.9c-0.3,0.3-0.5,0.6-0.7,1l1.4,0.6c0.1-0.2,0.3-0.5,0.4-0.7L42.9,118.9z"/>
			<path fill="#231F20" d="M43.7,125.3c0.3,0.2,0.7,0.4,1.1,0.5l0.5-1.4c-0.2-0.1-0.5-0.2-0.7-0.3L43.7,125.3z"/>
			<rect x="56" y="124.5" fill="#231F20" width="1" height="1.5"/>
			<path fill="#231F20" d="M74,124.5v1.5h0.8c0.1,0,0.1,0,0.2,0l0.1-1.5c-0.1,0-0.2,0-0.3,0H74z"/>
			<path fill="#231F20" d="M77.3,125.4l-0.9,1.2c0.2,0.2,0.4,0.3,0.5,0.6l1.2-0.9C77.9,125.9,77.6,125.7,77.3,125.4z"/>
			<path fill="#231F20" d="M77.4,128.6l0,0.1h1.5c0-0.1,0-0.1,0-0.2L77.4,128.6z"/>
			<rect x="71" y="124.5" fill="#231F20" width="1" height="1.5"/>
			<rect x="65" y="124.5" fill="#231F20" width="1" height="1.5"/>
			<rect x="62" y="124.5" fill="#231F20" width="1" height="1.5"/>
			<rect x="68" y="124.5" fill="#231F20" width="1" height="1.5"/>
			<path fill="#231F20" d="M128.3,71.9c-0.4-2-1.6-3.7-3.3-4.9l-1-0.7c-0.6-0.4-1.2-0.6-1.9-0.6c-1.2,0-2.2,0.6-2.9,1.5l-4.9,7.5
				c-1,1.6-0.6,3.7,1,4.8l4.1,2.7c-0.4,4.3-1.9,8.6-4.3,12.2c-0.3,0.5-0.7,0.9-1,1.4c-1.3-2.2-3.3-3.9-5.9-4.8L83.3,83L77,76.8
				c-0.1-0.1-0.3-0.2-0.5-0.2h-1.4v-2.8c1.8-1.5,3.4-3.4,4.9-5.7c2.2-0.3,4.2-1.7,5.3-3.7l1.4-2.6c0.2-0.4,0.1-0.8-0.3-1
				c-0.4-0.2-0.8-0.1-1,0.3L84,63.6c-0.6,1.2-1.6,2-2.8,2.5c0.6-1,1.1-2.1,1.7-3.3c0.2-0.4,0-0.8-0.4-1c-0.4-0.2-0.8,0-1,0.4
				c-0.7,1.6-1.5,3-2.3,4.3c0,0,0,0,0,0l-5.3,0.2c-0.4-1.3-1.9-2.2-3.6-2.2c-2.1,0-3.7,1.3-3.7,3s1.7,3,3.7,3c1.7,0,3.2-1,3.6-2.3
				l4.3-0.1c-3.7,5.2-8.3,8.2-12.9,8.2c-6.2,0-12.3-5.3-16.3-14.1c-0.2-0.4-0.6-0.5-1-0.4c-0.4,0.2-0.5,0.6-0.4,1
				c2.1,4.6,4.8,8.3,7.7,10.9v2.8h-1.4c-0.2,0-0.4,0.1-0.5,0.2L47.2,83l-24.8,8.2c-4.4,1.5-7.4,5.6-7.4,10.2v26.4h1.5v-26.4
				c0-4,2.6-7.5,6.4-8.8l24.5-8.1l10.1,12.4c0.1,0.2,0.4,0.3,0.6,0.3h0c0.2,0,0.4-0.1,0.6-0.3l6.6-8.6l6.6,8.6
				c0.1,0.2,0.4,0.3,0.6,0.3c0.2,0,0.4-0.1,0.6-0.3l10.2-12.4l24.5,8.1c2.4,0.8,4.3,2.5,5.3,4.6c-2.1,2.5-4.7,4.5-7.5,6.1l-4.1-2.7
				c-0.6-0.4-1.2-0.6-1.9-0.6c-1.2,0-2.2,0.6-2.9,1.5l-4.9,7.5c-1,1.6-0.6,3.7,1,4.8l0.3,0.2l-3.6,3.6H46.1c-0.4,0-0.8,0.1-1.2,0.2
				l0.4,1.4c0.3-0.1,0.5-0.1,0.8-0.1h43.5c0.2,0,0.4-0.1,0.5-0.2l4-4c1.2,0.6,2.4,1,3.8,1c0.5,0,1,0,1.5-0.1
				c5.4-1,10.3-3.2,14.6-6.2v18.4h1.5v-19.6c2.9-2.3,5.5-5.1,7.6-8.3C128.5,91.6,130.4,81.6,128.3,71.9z M70.2,69.1
				c-1.2,0-2.2-0.7-2.2-1.5c0-0.8,1-1.5,2.2-1.5c1.2,0,2.2,0.7,2.2,1.5C72.5,68.4,71.4,69.1,70.2,69.1z M58,95.2l-9.4-11.5l5.7-5.6
				h1.1v3.8c0,0.3,0.1,0.5,0.4,0.7l8.4,4.7L58,95.2z M56.8,81.5V75l0,0c2.7,1.9,5.5,2.9,8.4,2.9c2.9,0,5.8-1,8.4-2.9l0,0v6.5
				l-8.4,4.7L56.8,81.5z M72.4,95.2l-6.1-7.9l8.4-4.7c0.2-0.1,0.4-0.4,0.4-0.7v-3.8h1.1l5.7,5.6L72.4,95.2z M121.8,99
				c-5.3,7.9-13.3,13.3-22.7,15.1c-1.6,0.3-3.3,0-4.7-0.9l-1-0.7c-0.9-0.6-1.1-1.8-0.5-2.7l4.9-7.5c0.4-0.5,1-0.9,1.6-0.9
				c0.4,0,0.7,0.1,1.1,0.3l4.5,3c0.2,0.2,0.5,0.2,0.8,0c4.2-2.2,7.9-5.5,10.5-9.5c2.6-4,4.2-8.6,4.6-13.3c0-0.3-0.1-0.5-0.3-0.7
				l-4.5-3c-0.9-0.6-1.1-1.8-0.5-2.7l4.9-7.5c0.6-0.9,1.8-1.1,2.7-0.5l1,0.7c1.4,0.9,2.3,2.3,2.7,3.9
				C128.8,81.6,127.1,91.1,121.8,99z"/>
		</g>
		<rect x="93" y="3.6" fill="#FFFFFF" width="32.4" height="19.2"/>
		<polygon fill="#FFFFFF" points="93,3.6 109.2,18 125.4,3.6 		"/>
		<path fill="#231F20" d="M92.3,2.8v20.7h33.9V2.8H92.3z M109.2,17L95,4.3h28.5L109.2,17z M102.6,13.1L93.8,21V5.2L102.6,13.1z
			 M103.8,14.1l5,4.4c0.1,0.1,0.3,0.2,0.5,0.2c0.2,0,0.4-0.1,0.5-0.2l5-4.4l8.8,7.9H95L103.8,14.1z M115.9,13.1l8.8-7.9V21
			L115.9,13.1z"/>
		<path fill="#E6E9EE" d="M87.3,61.7l-4.6-0.8l2.9-16.1l4.6,0.8c1.9,0.3,3.1,2.1,2.8,4l-1.7,9.3C91,60.8,89.2,62,87.3,61.7z"/>
		<path fill="#E6E9EE" d="M43.1,61.7l4.6-0.8l-2.9-16.1l-4.6,0.8c-1.9,0.3-3.1,2.1-2.8,4l1.7,9.3C39.5,60.8,41.3,62,43.1,61.7z"/>
	</g>
</g>
</svg>
