<?xml version="1.0" encoding="utf-8"?>
<!-- Generator: Adobe Illustrator 18.0.0, SVG Export Plug-In . SVG Version: 6.00 Build 0)  -->
<!DOCTYPE svg PUBLIC "-//W3C//DTD SVG 1.1//EN" "http://www.w3.org/Graphics/SVG/1.1/DTD/svg11.dtd">
<svg version="1.1" id="Layer_1" xmlns="http://www.w3.org/2000/svg" xmlns:xlink="http://www.w3.org/1999/xlink" x="0px" y="0px"
	 viewBox="0 0 129.5 129.5" enable-background="new 0 0 129.5 129.5" xml:space="preserve">
<g>
	<g>
		<g>
			<g>
				<path fill="#231F20" d="M122.8,9.5c-0.2,0-0.4-0.1-0.5-0.2c-0.3-0.3-0.3-0.8,0-1.1l1.3-1.3c0.3-0.3,0.8-0.3,1.1,0
					c0.3,0.3,0.3,0.8,0,1.1l-1.3,1.3C123.2,9.5,123,9.5,122.8,9.5z"/>
			</g>
			<g>
				<path fill="#231F20" d="M118.8,13.6c-0.2,0-0.4-0.1-0.5-0.2c-0.3-0.3-0.3-0.8,0-1.1l1.3-1.3c0.3-0.3,0.8-0.3,1.1,0
					c0.3,0.3,0.3,0.8,0,1.1l-1.3,1.3C119.2,13.5,119,13.6,118.8,13.6z"/>
			</g>
			<g>
				<path fill="#231F20" d="M124.1,13.6c-0.2,0-0.4-0.1-0.5-0.2l-1.3-1.3c-0.3-0.3-0.3-0.8,0-1.1c0.3-0.3,0.8-0.3,1.1,0l1.3,1.3
					c0.3,0.3,0.3,0.8,0,1.1C124.5,13.5,124.3,13.6,124.1,13.6z"/>
			</g>
			<g>
				<path fill="#231F20" d="M120.1,9.5c-0.2,0-0.4-0.1-0.5-0.2L118.3,8c-0.3-0.3-0.3-0.8,0-1.1s0.8-0.3,1.1,0l1.3,1.3
					c0.3,0.3,0.3,0.8,0,1.1C120.5,9.5,120.3,9.5,120.1,9.5z"/>
			</g>
		</g>
		<g>
			<g>
				<path fill="#231F20" d="M4.8,88.8c-0.2,0-0.4-0.1-0.5-0.2c-0.3-0.3-0.3-0.8,0-1.1l1.3-1.3c0.3-0.3,0.8-0.3,1.1,0
					c0.3,0.3,0.3,0.8,0,1.1l-1.3,1.3C5.2,88.7,5,88.8,4.8,88.8z"/>
			</g>
			<g>
				<path fill="#231F20" d="M0.7,92.8c-0.2,0-0.4-0.1-0.5-0.2c-0.3-0.3-0.3-0.8,0-1.1l1.3-1.3c0.3-0.3,0.8-0.3,1.1,0
					c0.3,0.3,0.3,0.8,0,1.1l-1.3,1.3C1.1,92.7,0.9,92.8,0.7,92.8z"/>
			</g>
			<g>
				<path fill="#231F20" d="M6.1,92.8c-0.2,0-0.4-0.1-0.5-0.2l-1.3-1.3C4,91,4,90.5,4.2,90.2C4.5,90,5,90,5.3,90.2l1.3,1.3
					c0.3,0.3,0.3,0.8,0,1.1C6.4,92.7,6.3,92.8,6.1,92.8z"/>
			</g>
			<g>
				<path fill="#231F20" d="M2,88.8c-0.2,0-0.4-0.1-0.5-0.2l-1.3-1.3c-0.3-0.3-0.3-0.8,0-1.1c0.3-0.3,0.8-0.3,1.1,0l1.3,1.3
					c0.3,0.3,0.3,0.8,0,1.1C2.4,88.7,2.2,88.8,2,88.8z"/>
			</g>
		</g>
		<g>
			<g>
				<path fill="#231F20" d="M93.4,88.8c-0.2,0-0.4-0.1-0.5-0.2c-0.3-0.3-0.3-0.8,0-1.1l1.3-1.3c0.3-0.3,0.8-0.3,1.1,0
					c0.3,0.3,0.3,0.8,0,1.1L94,88.6C93.8,88.7,93.6,88.8,93.4,88.8z"/>
			</g>
			<g>
				<path fill="#231F20" d="M89.4,92.8c-0.2,0-0.4-0.1-0.5-0.2c-0.3-0.3-0.3-0.8,0-1.1l1.3-1.3c0.3-0.3,0.8-0.3,1.1,0
					c0.3,0.3,0.3,0.8,0,1.1l-1.3,1.3C89.8,92.7,89.6,92.8,89.4,92.8z"/>
			</g>
			<g>
				<path fill="#231F20" d="M94.7,92.8c-0.2,0-0.4-0.1-0.5-0.2l-1.3-1.3c-0.3-0.3-0.3-0.8,0-1.1c0.3-0.3,0.8-0.3,1.1,0l1.3,1.3
					c0.3,0.3,0.3,0.8,0,1.1C95.1,92.7,94.9,92.8,94.7,92.8z"/>
			</g>
			<g>
				<path fill="#231F20" d="M90.7,88.8c-0.2,0-0.4-0.1-0.5-0.2l-1.3-1.3c-0.3-0.3-0.3-0.8,0-1.1c0.3-0.3,0.8-0.3,1.1,0l1.3,1.3
					c0.3,0.3,0.3,0.8,0,1.1C91.1,88.7,90.9,88.8,90.7,88.8z"/>
			</g>
		</g>
		<g>
			<path fill="#231F20" d="M49.6,111.2H19.1c-0.4,0-0.8-0.3-0.8-0.8V79.9c0-0.4,0.3-0.8,0.8-0.8c0.4,0,0.8,0.3,0.8,0.8v29.8h29.8
				c0.4,0,0.8,0.3,0.8,0.8C50.4,110.8,50,111.2,49.6,111.2z"/>
		</g>
		<g>
			<path fill="#231F20" d="M110.4,111.2H79.9c-0.4,0-0.8-0.3-0.8-0.8c0-0.4,0.3-0.8,0.8-0.8h29.8V79.9c0-0.4,0.3-0.8,0.8-0.8
				s0.8,0.3,0.8,0.8v30.5C111.1,110.8,110.8,111.2,110.4,111.2z"/>
		</g>
		<g>
			<path fill="#231F20" d="M19.1,50.4c-0.4,0-0.8-0.3-0.8-0.8V19.1c0-0.4,0.3-0.8,0.8-0.8h30.5c0.4,0,0.8,0.3,0.8,0.8
				c0,0.4-0.3,0.8-0.8,0.8H19.8v29.8C19.8,50,19.5,50.4,19.1,50.4z"/>
		</g>
		<g>
			<path fill="#231F20" d="M110.4,50.4c-0.4,0-0.8-0.3-0.8-0.8V19.8H79.9c-0.4,0-0.8-0.3-0.8-0.8c0-0.4,0.3-0.8,0.8-0.8h30.5
				c0.4,0,0.8,0.3,0.8,0.8v30.5C111.1,50,110.8,50.4,110.4,50.4z"/>
		</g>
		<g>
			<path fill="#231F20" d="M104.1,103.8h-1.8v-1.5h1v0.6h0.8V103.8z M100.3,103.8h-1v-1.5h1V103.8z M97.3,103.8h-1v-1.5h1V103.8z
				 M94.3,103.8h-1v-1.5h1V103.8z M91.3,103.8h-1v-1.5h1V103.8z M88.3,103.8h-1v-1.5h1V103.8z M85.3,103.8h-1v-1.5h1V103.8z
				 M82.3,103.8h-1v-1.5h1V103.8z M79.3,103.8h-1v-1.5h1V103.8z M76.3,103.8h-1v-1.5h1V103.8z M73.3,103.8h-1v-1.5h1V103.8z
				 M70.3,103.8h-1v-1.5h1V103.8z M67.3,103.8h-1v-1.5h1V103.8z M64.3,103.8h-1v-1.5h1V103.8z M61.3,103.8h-1v-1.5h1V103.8z
				 M58.3,103.8h-1v-1.5h1V103.8z M55.3,103.8h-1v-1.5h1V103.8z M52.3,103.8h-1v-1.5h1V103.8z M49.3,103.8h-1v-1.5h1V103.8z
				 M46.3,103.8h-1v-1.5h1V103.8z M43.3,103.8h-1v-1.5h1V103.8z M40.3,103.8h-1v-1.5h1V103.8z M37.3,103.8h-1v-1.5h1V103.8z
				 M34.3,103.8h-1v-1.5h1V103.8z M31.3,103.8h-1v-1.5h1V103.8z M28.3,103.8h-1v-1.5h1V103.8z M27.5,101.6H26v-1h1.5V101.6z
				 M104.1,100.8h-1.5v-1h1.5V100.8z M27.5,98.6H26v-1h1.5V98.6z M104.1,97.8h-1.5v-1h1.5V97.8z M27.5,95.6H26v-1h1.5V95.6z
				 M104.1,94.8h-1.5v-1h1.5V94.8z M27.5,92.6H26v-1h1.5V92.6z M104.1,91.8h-1.5v-1h1.5V91.8z M27.5,89.6H26v-1h1.5V89.6z
				 M104.1,88.8h-1.5v-1h1.5V88.8z M27.5,86.6H26v-1h1.5V86.6z M104.1,85.8h-1.5v-1h1.5V85.8z M27.5,83.6H26v-1h1.5V83.6z
				 M104.1,82.8h-1.5v-1h1.5V82.8z M27.5,80.6H26v-1h1.5V80.6z M104.1,79.8h-1.5v-1h1.5V79.8z M27.5,77.6H26v-1h1.5V77.6z
				 M104.1,76.8h-1.5v-1h1.5V76.8z M27.5,74.6H26v-1h1.5V74.6z M104.1,73.8h-1.5v-1h1.5V73.8z M27.5,71.6H26v-1h1.5V71.6z
				 M104.1,70.8h-1.5v-1h1.5V70.8z M27.5,68.6H26v-1h1.5V68.6z M104.1,67.8h-1.5v-1h1.5V67.8z M27.5,65.6H26v-1h1.5V65.6z
				 M104.1,64.8h-1.5v-1h1.5V64.8z M27.5,62.6H26v-1h1.5V62.6z M104.1,61.8h-1.5v-1h1.5V61.8z M27.5,59.6H26v-1h1.5V59.6z
				 M104.1,58.8h-1.5v-1h1.5V58.8z M27.5,56.6H26v-1h1.5V56.6z M104.1,55.8h-1.5v-1h1.5V55.8z M27.5,53.6H26v-1h1.5V53.6z
				 M104.1,52.8h-1.5v-1h1.5V52.8z M27.5,50.6H26v-1h1.5V50.6z M104.1,49.8h-1.5v-1h1.5V49.8z M27.5,47.6H26v-1h1.5V47.6z
				 M104.1,46.8h-1.5v-1h1.5V46.8z M27.5,44.6H26v-1h1.5V44.6z M104.1,43.8h-1.5v-1h1.5V43.8z M27.5,41.6H26v-1h1.5V41.6z
				 M104.1,40.8h-1.5v-1h1.5V40.8z M27.5,38.6H26v-1h1.5V38.6z M104.1,37.8h-1.5v-1h1.5V37.8z M27.5,35.6H26v-1h1.5V35.6z
				 M104.1,34.8h-1.5v-1h1.5V34.8z M27.5,32.6H26v-1h1.5V32.6z M104.1,31.8h-1.5v-1h1.5V31.8z M27.5,29.6H26v-1h1.5V29.6z
				 M104.1,28.8h-1.5v-1h1.5V28.8z M102.7,27.2h-1v-1.5h1V27.2z M99.7,27.2h-1v-1.5h1V27.2z M96.7,27.2h-1v-1.5h1V27.2z M93.7,27.2
				h-1v-1.5h1V27.2z M90.7,27.2h-1v-1.5h1V27.2z M87.7,27.2h-1v-1.5h1V27.2z M84.7,27.2h-1v-1.5h1V27.2z M81.7,27.2h-1v-1.5h1V27.2z
				 M78.7,27.2h-1v-1.5h1V27.2z M75.7,27.2h-1v-1.5h1V27.2z M72.7,27.2h-1v-1.5h1V27.2z M69.7,27.2h-1v-1.5h1V27.2z M66.7,27.2h-1
				v-1.5h1V27.2z M63.7,27.2h-1v-1.5h1V27.2z M60.7,27.2h-1v-1.5h1V27.2z M57.7,27.2h-1v-1.5h1V27.2z M54.7,27.2h-1v-1.5h1V27.2z
				 M51.7,27.2h-1v-1.5h1V27.2z M48.7,27.2h-1v-1.5h1V27.2z M45.7,27.2h-1v-1.5h1V27.2z M42.7,27.2h-1v-1.5h1V27.2z M39.7,27.2h-1
				v-1.5h1V27.2z M36.7,27.2h-1v-1.5h1V27.2z M33.7,27.2h-1v-1.5h1V27.2z M30.7,27.2h-1v-1.5h1V27.2z M27.7,27.2h-0.9v-0.7l-0.8,0
				v-0.8h1.7V27.2z"/>
		</g>
		<g>
			<path fill="#FFFFFF" d="M84,70.8l0.9-4.8l-0.3-0.1c-1.9-0.5-3.2-2.1-3.5-4c-0.1-0.4-0.1-0.7-0.2-1.1c-0.5-1.9,0.1-3.9,1.6-5.2
				l0.2-0.2l-2.7-4l-0.3,0.1c-1.7,1-3.8,0.8-5.4-0.4c-0.3-0.2-0.6-0.4-1-0.6c-1.7-1-2.7-2.8-2.5-4.8l0-0.3L66,44.6l-0.1,0.3
				c-0.5,1.9-2.1,3.2-4,3.5c-0.4,0.1-0.7,0.1-1.1,0.2c-1.9,0.5-3.9-0.1-5.2-1.6l-0.2-0.2l-4,2.7l0.1,0.3c1,1.7,0.8,3.8-0.4,5.4
				c-0.2,0.3-0.4,0.6-0.6,1c-1,1.7-2.8,2.7-4.8,2.5l-0.3,0l-0.9,4.8l0.3,0.1c1.9,0.5,3.2,2.1,3.5,4c0.1,0.4,0.1,0.7,0.2,1.1
				c0.5,1.9-0.1,3.9-1.6,5.2l-0.2,0.2l2.7,4l0.3-0.1c1.7-1,3.8-0.8,5.4,0.4c0.3,0.2,0.6,0.4,1,0.6c1.7,1,2.7,2.8,2.5,4.8l0,0.3
				l4.8,0.9l0.1-0.3c0.5-1.9,2.1-3.2,4-3.5c0.4-0.1,0.7-0.1,1.1-0.2c1.9-0.5,3.9,0.1,5.2,1.6l0.2,0.2l4-2.7l-0.1-0.3
				c-1-1.7-0.8-3.8,0.4-5.4c0.2-0.3,0.4-0.6,0.6-1c1-1.7,2.8-2.7,4.8-2.5L84,70.8z"/>
			<path fill="#231F20" d="M63.5,85.6c0,0-0.1,0-0.1,0l-4.8-0.9c-0.4-0.1-0.6-0.4-0.6-0.8l0-0.3c0.1-1.6-0.7-3.2-2.1-4.1
				c-0.3-0.2-0.7-0.4-1-0.6c-1.4-1-3.2-1.1-4.6-0.3L50,78.7c-0.3,0.2-0.8,0.1-1-0.2l-2.7-4c-0.2-0.3-0.2-0.8,0.1-1l0.2-0.2
				c1.2-1,1.8-2.7,1.4-4.4c-0.1-0.4-0.2-0.8-0.2-1.2c-0.3-1.7-1.4-3-3-3.5l-0.3-0.1c-0.4-0.1-0.6-0.5-0.5-0.9l0.9-4.8
				c0.1-0.4,0.4-0.6,0.8-0.6l0.3,0c1.6,0.1,3.2-0.7,4.1-2.1c0.2-0.3,0.4-0.7,0.6-1c1-1.4,1.1-3.2,0.3-4.6L50.8,50
				c-0.2-0.3-0.1-0.8,0.2-1l4-2.7c0.3-0.2,0.8-0.2,1,0.1l0.2,0.2c1,1.2,2.8,1.8,4.4,1.4c0.4-0.1,0.8-0.2,1.2-0.2
				c1.7-0.3,3-1.4,3.5-3l0.1-0.3c0.1-0.4,0.5-0.6,0.9-0.5l4.8,0.9c0.4,0.1,0.6,0.4,0.6,0.8l0,0.3c-0.1,1.6,0.7,3.2,2.1,4.1
				c0.3,0.2,0.7,0.4,1,0.6c1.4,1,3.2,1.1,4.6,0.3l0.3-0.1c0.3-0.2,0.8-0.1,1,0.2l2.7,4c0.2,0.3,0.2,0.8-0.1,1l-0.2,0.2
				c-1.2,1-1.8,2.7-1.4,4.4c0.1,0.4,0.2,0.8,0.2,1.2c0.3,1.7,1.4,3,3,3.5l0.3,0.1c0.4,0.1,0.6,0.5,0.5,0.9l-0.9,4.8
				c-0.1,0.4-0.4,0.6-0.8,0.6l-0.3,0c-1.6-0.2-3.2,0.7-4.1,2.1c-0.2,0.3-0.4,0.7-0.7,1c-1,1.4-1.1,3.2-0.3,4.6l0.1,0.3
				c0.2,0.3,0.1,0.8-0.2,1l-4,2.7c-0.3,0.2-0.8,0.2-1-0.1l-0.2-0.2c-1-1.2-2.8-1.8-4.4-1.4c-0.4,0.1-0.8,0.2-1.2,0.2
				c-1.7,0.3-3,1.4-3.5,3l-0.1,0.3C64.1,85.4,63.8,85.6,63.5,85.6z M59.5,83.4l3.4,0.6c0.7-1.9,2.4-3.3,4.5-3.7
				c0.4-0.1,0.7-0.1,1.1-0.2c2.1-0.5,4.3,0.1,5.7,1.6l2.9-2c-0.9-1.9-0.7-4.1,0.6-5.8c0.2-0.3,0.4-0.6,0.6-0.9
				c1.1-1.8,3-2.9,5.1-2.9l0.6-3.4c-1.9-0.7-3.3-2.4-3.7-4.5c-0.1-0.4-0.1-0.7-0.2-1.1c-0.5-2.1,0.1-4.2,1.6-5.7l-2-2.9
				c-1.8,0.9-4.1,0.6-5.8-0.6c-0.3-0.2-0.6-0.4-0.9-0.6c-1.9-1.1-2.9-3-2.9-5.1l-3.4-0.6c-0.7,1.9-2.4,3.3-4.5,3.7
				c-0.4,0.1-0.7,0.1-1.1,0.2c-2.1,0.5-4.3-0.1-5.7-1.6l-2.9,2c0.9,1.9,0.7,4.1-0.6,5.8c-0.2,0.3-0.4,0.6-0.6,0.9
				c-1.1,1.8-3,2.9-5.1,2.9l-0.6,3.4c1.9,0.7,3.3,2.4,3.7,4.5c0.1,0.4,0.1,0.7,0.2,1.1c0.5,2.1-0.1,4.2-1.6,5.7l2,2.9
				c1.8-0.9,4.1-0.6,5.8,0.6c0.3,0.2,0.6,0.4,0.9,0.6C58.5,79.4,59.5,81.3,59.5,83.4z"/>
		</g>
		<g>
			<path fill="#231F20" d="M64.1,78c-0.4,0-0.7,0-1.1-0.1l0.2-1.5c0.3,0,0.6,0.1,0.9,0.1L64.1,78z M66.2,77.9L66,76.5
				c0.3,0,0.6-0.1,0.9-0.1l0.3,1.5C66.9,77.9,66.6,77.9,66.2,77.9z M61,77.5c-0.3-0.1-0.7-0.2-1-0.3l0.5-1.4
				c0.3,0.1,0.6,0.2,0.9,0.3L61,77.5z M69.3,77.2l-0.5-1.4c0.3-0.1,0.6-0.2,0.9-0.4l0.6,1.4C70,77,69.6,77.1,69.3,77.2z M58.1,76.2
				c-0.3-0.2-0.6-0.4-0.9-0.6l0.9-1.2c0.3,0.2,0.5,0.3,0.8,0.5L58.1,76.2z M72.1,75.8l-0.8-1.2c0.3-0.2,0.5-0.4,0.8-0.6l0.9,1.2
				C72.7,75.4,72.4,75.6,72.1,75.8z M55.5,74.3c-0.3-0.2-0.5-0.5-0.7-0.8l1.1-1c0.2,0.2,0.4,0.5,0.6,0.7L55.5,74.3z M74.5,73.7
				l-1.1-1c0.2-0.2,0.4-0.5,0.6-0.7l1.2,0.9C75,73.2,74.8,73.5,74.5,73.7z M53.5,71.8c-0.2-0.3-0.4-0.6-0.5-0.9l1.3-0.7
				c0.1,0.3,0.3,0.5,0.5,0.8L53.5,71.8z M76.4,71.2l-1.3-0.7c0.2-0.3,0.3-0.6,0.4-0.8l1.4,0.6C76.7,70.5,76.6,70.8,76.4,71.2z
				 M52.2,69c-0.1-0.3-0.2-0.7-0.3-1l1.5-0.4c0.1,0.3,0.2,0.6,0.3,0.9L52.2,69z M77.6,68.2l-1.4-0.4c0.1-0.3,0.1-0.6,0.2-0.9
				c0-0.2,0.1-0.5,0.1-0.7l1.5,0.2c0,0.3-0.1,0.5-0.1,0.8C77.7,67.5,77.7,67.9,77.6,68.2z M51.5,65.9c0-0.3,0-0.7,0-1.1l1.5,0
				c0,0.3,0,0.6,0,0.9L51.5,65.9z M76.5,64.3c0-0.3,0-0.6-0.1-0.9l1.5-0.2c0,0.3,0.1,0.7,0.1,1.1L76.5,64.3z M53.1,62.9l-1.5-0.2
				c0-0.1,0-0.3,0.1-0.4c0-0.2,0.1-0.4,0.1-0.6l1.5,0.3c0,0.2-0.1,0.4-0.1,0.6C53.1,62.7,53.1,62.8,53.1,62.9z M76.1,61.5
				c-0.1-0.3-0.2-0.6-0.3-0.9l1.4-0.5c0.1,0.3,0.2,0.7,0.3,1L76.1,61.5z M53.9,60.2l-1.4-0.6c0.1-0.3,0.3-0.6,0.4-1l1.3,0.7
				C54.1,59.7,54,59.9,53.9,60.2z M75,58.9c-0.2-0.3-0.3-0.5-0.5-0.8l1.2-0.8c0.2,0.3,0.4,0.6,0.6,0.9L75,58.9z M55.2,57.8L54,56.9
				c0.2-0.3,0.4-0.6,0.7-0.8l1.1,1C55.6,57.3,55.4,57.5,55.2,57.8z M73.3,56.7c-0.2-0.2-0.4-0.4-0.7-0.7l1-1.1
				c0.3,0.2,0.5,0.5,0.8,0.7L73.3,56.7z M57.2,55.7l-1-1.1c0.3-0.2,0.6-0.4,0.8-0.6l0.9,1.2C57.7,55.3,57.4,55.5,57.2,55.7z
				 M71.2,54.9c-0.3-0.2-0.5-0.3-0.8-0.5l0.7-1.3c0.3,0.2,0.6,0.4,0.9,0.5L71.2,54.9z M59.5,54.2l-0.7-1.3c0.3-0.2,0.6-0.3,1-0.4
				l0.6,1.4C60.1,53.9,59.8,54,59.5,54.2z M68.7,53.6c-0.3-0.1-0.6-0.2-0.9-0.3l0.4-1.5c0.3,0.1,0.7,0.2,1,0.3L68.7,53.6z
				 M62.2,53.2l-0.3-1.5c0.3-0.1,0.7-0.1,1-0.2l0.2,1.5C62.8,53.1,62.5,53.2,62.2,53.2z M65.9,53c-0.3,0-0.6,0-0.9-0.1l0-1.5
				c0.4,0,0.7,0,1.1,0.1L65.9,53z"/>
		</g>
		<g>
			<circle fill="#E6E9EE" cx="64.7" cy="64.7" r="9.9"/>
		</g>
		<g>
			<circle fill="#FFFFFF" cx="64.7" cy="64.7" r="5"/>
			<path fill="#231F20" d="M64.8,70.5c-0.4,0-0.7,0-1.1-0.1c-1.5-0.3-2.8-1.1-3.7-2.4c-0.9-1.3-1.2-2.8-0.9-4.3
				C59.6,61,62,59,64.7,59c0.4,0,0.7,0,1.1,0.1c3.1,0.6,5.2,3.6,4.6,6.7C69.9,68.5,67.5,70.5,64.8,70.5z M64.7,60.5
				c-2,0-3.8,1.5-4.1,3.4c-0.2,1.1,0,2.2,0.7,3.2c0.6,0.9,1.6,1.6,2.7,1.8c0.3,0,0.5,0.1,0.8,0.1c2,0,3.8-1.5,4.1-3.4
				c0.4-2.3-1.1-4.5-3.4-4.9C65.3,60.5,65,60.5,64.7,60.5z"/>
		</g>
		<g>
			<polygon fill="#FFFFFF" points="116.5,77 116.5,70 92.1,70 92.1,59.5 116.5,59.5 116.5,52.5 128.8,64.7 			"/>
			<path fill="#231F20" d="M116.5,77.8c-0.1,0-0.2,0-0.3-0.1c-0.3-0.1-0.5-0.4-0.5-0.7v-6.2H92.1c-0.4,0-0.8-0.3-0.8-0.8V59.5
				c0-0.4,0.3-0.8,0.8-0.8h23.7v-6.2c0-0.3,0.2-0.6,0.5-0.7c0.3-0.1,0.6-0.1,0.8,0.2l12.3,12.3c0.1,0.1,0.2,0.3,0.2,0.5
				c0,0.2-0.1,0.4-0.2,0.5L117,77.5C116.9,77.7,116.7,77.8,116.5,77.8z M92.8,69.3h23.7c0.4,0,0.8,0.3,0.8,0.8v5.2l10.4-10.4
				l-10.4-10.4v5.2c0,0.4-0.3,0.8-0.8,0.8H92.8V69.3z"/>
		</g>
		<g>
			<polygon fill="#FF7058" points="118.5,68 94.1,68 94.1,61.5 118.5,61.5 118.5,57.3 125.9,64.7 118.5,72.2 			"/>
		</g>
		<g>
			<polygon fill="#FFFFFF" points="13,77 13,70 37.4,70 37.4,59.5 13,59.5 13,52.5 0.7,64.7 			"/>
			<path fill="#231F20" d="M13,77.8c-0.2,0-0.4-0.1-0.5-0.2L0.2,65.3C0.1,65.1,0,64.9,0,64.7c0-0.2,0.1-0.4,0.2-0.5L12.5,52
				c0.2-0.2,0.5-0.3,0.8-0.2c0.3,0.1,0.5,0.4,0.5,0.7v6.2h23.7c0.4,0,0.8,0.3,0.8,0.8V70c0,0.4-0.3,0.8-0.8,0.8H13.8V77
				c0,0.3-0.2,0.6-0.5,0.7C13.2,77.7,13.1,77.8,13,77.8z M1.8,64.7l10.4,10.4V70c0-0.4,0.3-0.8,0.8-0.8h23.7v-9H13
				c-0.4,0-0.8-0.3-0.8-0.8v-5.2L1.8,64.7z"/>
		</g>
		<g>
			<polygon fill="#E6E9EE" points="3.6,64.7 11,57.3 11,61.5 35.4,61.5 35.4,68 11,68 11,72.2 			"/>
		</g>
		<g>
			<polygon fill="#FFFFFF" points="52.5,116.5 59.5,116.5 59.5,92.1 70,92.1 70,116.5 77,116.5 64.7,128.7 			"/>
			<path fill="#231F20" d="M64.8,129.5c-0.2,0-0.4-0.1-0.5-0.2L52,117c-0.2-0.2-0.3-0.5-0.2-0.8c0.1-0.3,0.4-0.5,0.7-0.5h6.2V92.1
				c0-0.4,0.3-0.8,0.8-0.8H70c0.4,0,0.8,0.3,0.8,0.8v23.7H77c0.3,0,0.6,0.2,0.7,0.5c0.1,0.3,0.1,0.6-0.2,0.8l-12.3,12.3
				C65.1,129.4,64.9,129.5,64.8,129.5z M54.3,117.2l10.4,10.4l10.4-10.4H70c-0.4,0-0.8-0.3-0.8-0.8V92.8h-9v23.7
				c0,0.4-0.3,0.8-0.8,0.8H54.3z"/>
		</g>
		<g>
			<polygon fill="#FFD05B" points="57.3,118.5 61.5,118.5 61.5,94.1 68,94.1 68,118.5 72.2,118.5 64.7,125.9 			"/>
		</g>
		<g>
			<polygon fill="#FFFFFF" points="52.5,13 59.5,13 59.5,37.4 70,37.4 70,13 77,13 64.8,0.7 			"/>
			<path fill="#231F20" d="M70,38.2H59.5c-0.4,0-0.8-0.3-0.8-0.8V13.8h-6.2c-0.3,0-0.6-0.2-0.7-0.5c-0.1-0.3-0.1-0.6,0.2-0.8
				L64.2,0.2c0.3-0.3,0.8-0.3,1.1,0l12.2,12.2c0.2,0.1,0.3,0.4,0.3,0.6c0,0.4-0.4,0.7-0.8,0.8c0,0,0,0,0,0h-6.2v23.7
				C70.8,37.8,70.4,38.2,70,38.2z M60.2,36.7h9V13c0-0.4,0.3-0.8,0.8-0.8h5.2L64.8,1.8L54.3,12.3h5.2c0.4,0,0.8,0.3,0.8,0.8V36.7z"
				/>
		</g>
		<g>
			<polygon fill="#84DBFF" points="61.5,35.4 61.5,11 57.3,11 64.7,3.6 72.2,11 68,11 68,35.4 			"/>
		</g>
		<g>
			<path fill="#231F20" d="M8.8,13.5C6.1,13.5,4,11.4,4,8.8S6.1,4,8.8,4c2.6,0,4.8,2.1,4.8,4.8S11.4,13.5,8.8,13.5z M8.8,5.5
				C7,5.5,5.5,7,5.5,8.8S7,12,8.8,12c1.8,0,3.3-1.5,3.3-3.3S10.6,5.5,8.8,5.5z"/>
		</g>
		<g>
			<circle fill="#FF7058" cx="96.4" cy="5.7" r="3"/>
		</g>
		<g>
			<circle fill="#E6E9EE" cx="6.1" cy="40.8" r="3"/>
		</g>
		<g>
			<circle fill="#84DBFF" cx="118.8" cy="91.4" r="3"/>
		</g>
		<g>
			<circle fill="#84DBFF" cx="39.1" cy="119.7" r="2.1"/>
		</g>
		<g>
			<circle fill="#84DBFF" cx="39.8" cy="39.8" r="2.3"/>
		</g>
	</g>
</g>
</svg>
