<?xml version="1.0" encoding="UTF-8"?>
<svg xmlns="http://www.w3.org/2000/svg" xmlns:xlink="http://www.w3.org/1999/xlink" width="200px" height="200px" viewBox="0 0 200 200" version="1.1">
<g id="surface1">
<path style=" stroke:none;fill-rule:nonzero;fill:rgb(51.764706%,85.882353%,100%);fill-opacity:1;" d="M 134.207031 52.046875 L 141.160156 3.707031 L 92.820312 10.65625 L 105.019531 23.011719 L 4.480469 123.550781 L 21.3125 140.386719 L 121.851562 39.84375 Z M 134.207031 52.046875 "/>
<path style=" stroke:none;fill-rule:nonzero;fill:rgb(13.72549%,12.156863%,12.54902%);fill-opacity:1;" d="M 45.867188 24.554688 C 45.558594 24.554688 45.25 24.402344 45.097656 24.246094 C 44.632812 23.785156 44.632812 23.011719 45.097656 22.546875 L 47.105469 20.539062 C 47.566406 20.078125 48.339844 20.078125 48.804688 20.539062 C 49.265625 21.003906 49.265625 21.777344 48.804688 22.238281 L 46.796875 24.246094 C 46.332031 24.554688 46.023438 24.554688 45.867188 24.554688 Z M 45.867188 24.554688 "/>
<path style=" stroke:none;fill-rule:nonzero;fill:rgb(13.72549%,12.156863%,12.54902%);fill-opacity:1;" d="M 39.535156 30.886719 C 39.226562 30.886719 38.917969 30.734375 38.765625 30.578125 C 38.300781 30.117188 38.300781 29.34375 38.765625 28.878906 L 40.773438 26.871094 C 41.234375 26.410156 42.007812 26.410156 42.472656 26.871094 C 42.933594 27.335938 42.933594 28.109375 42.472656 28.570312 L 40.464844 30.578125 C 40.15625 30.734375 39.84375 30.886719 39.535156 30.886719 Z M 39.535156 30.886719 "/>
<path style=" stroke:none;fill-rule:nonzero;fill:rgb(13.72549%,12.156863%,12.54902%);fill-opacity:1;" d="M 47.722656 30.886719 C 47.414062 30.886719 47.105469 30.734375 46.949219 30.578125 L 44.941406 28.570312 C 44.480469 28.109375 44.480469 27.335938 44.941406 26.871094 C 45.40625 26.410156 46.175781 26.410156 46.640625 26.871094 L 48.648438 28.878906 C 49.113281 29.34375 49.113281 30.117188 48.648438 30.578125 C 48.339844 30.734375 48.03125 30.886719 47.722656 30.886719 Z M 47.722656 30.886719 "/>
<path style=" stroke:none;fill-rule:nonzero;fill:rgb(13.72549%,12.156863%,12.54902%);fill-opacity:1;" d="M 41.542969 24.554688 C 41.234375 24.554688 40.925781 24.402344 40.773438 24.246094 L 38.765625 22.238281 C 38.300781 21.777344 38.300781 21.003906 38.765625 20.539062 C 39.226562 20.078125 40 20.078125 40.464844 20.539062 L 42.472656 22.546875 C 42.933594 23.011719 42.933594 23.785156 42.472656 24.246094 C 42.164062 24.554688 41.851562 24.554688 41.542969 24.554688 Z M 41.542969 24.554688 "/>
<path style=" stroke:none;fill-rule:nonzero;fill:rgb(100%,100%,100%);fill-opacity:1;" d="M 198.917969 124.324219 L 198.917969 69.808594 C 198.917969 64.09375 193.976562 59.152344 187.800781 59.152344 L 139.613281 59.152344 C 133.4375 59.152344 128.496094 64.09375 128.496094 70.269531 L 128.496094 124.324219 Z M 198.917969 124.324219 "/>
<path style=" stroke:none;fill-rule:nonzero;fill:rgb(100%,100%,100%);fill-opacity:1;" d="M 139.152344 82.78125 L 139.152344 124.480469 C 139.152344 128.03125 141.929688 130.8125 145.484375 130.8125 L 182.238281 130.8125 C 185.792969 130.8125 188.570312 128.03125 188.570312 124.480469 L 188.570312 82.78125 "/>
<path style=" stroke:none;fill-rule:nonzero;fill:rgb(100%,100%,100%);fill-opacity:1;" d="M 169.882812 54.207031 L 169.882812 60.078125 L 163.550781 63.628906 L 157.21875 60.078125 L 157.21875 54.207031 C 159.074219 55.753906 161.234375 56.679688 163.550781 56.679688 C 165.867188 56.832031 168.03125 55.90625 169.882812 54.207031 Z M 169.882812 54.207031 "/>
<path style=" stroke:none;fill-rule:nonzero;fill:rgb(13.72549%,12.156863%,12.54902%);fill-opacity:1;" d="M 163.859375 142.394531 C 163.242188 142.394531 162.625 142.855469 162.625 143.628906 L 162.625 198.148438 C 162.625 198.765625 163.089844 199.382812 163.859375 199.382812 C 164.480469 199.382812 165.097656 198.917969 165.097656 198.148438 L 165.097656 143.476562 C 165.097656 142.855469 164.632812 142.394531 163.859375 142.394531 Z M 163.859375 142.394531 "/>
<path style=" stroke:none;fill-rule:nonzero;fill:rgb(100%,100%,100%);fill-opacity:1;" d="M 178.53125 38.457031 C 178.222656 38.300781 177.914062 38.300781 177.605469 38.457031 C 177.761719 37.21875 177.914062 35.984375 177.914062 34.75 C 177.914062 24.246094 171.582031 20.230469 163.707031 20.230469 C 155.832031 20.230469 149.5 24.09375 149.5 34.75 C 149.5 35.984375 149.652344 37.21875 149.808594 38.457031 C 149.5 38.300781 149.035156 38.300781 148.878906 38.457031 C 147.953125 38.917969 147.953125 40.617188 148.726562 42.316406 C 149.34375 43.707031 150.425781 44.480469 151.351562 44.632812 C 153.824219 51.429688 158.457031 56.832031 163.859375 56.832031 C 169.265625 56.832031 174.054688 51.429688 176.371094 44.632812 C 177.296875 44.632812 178.222656 43.707031 178.996094 42.316406 C 179.613281 40.617188 179.460938 38.917969 178.53125 38.457031 Z M 178.53125 38.457031 "/>
<path style=" stroke:none;fill-rule:nonzero;fill:rgb(13.72549%,12.156863%,12.54902%);fill-opacity:1;" d="M 187.644531 57.914062 L 170.964844 57.914062 L 170.964844 54.828125 C 173.4375 52.664062 175.445312 49.574219 176.988281 45.558594 C 178.070312 45.097656 178.996094 44.167969 179.769531 42.78125 C 180.847656 40.464844 180.695312 38.148438 179.152344 37.375 C 179.152344 37.375 178.996094 37.375 178.996094 37.21875 C 179.152344 36.292969 179.152344 35.519531 179.152344 34.59375 C 179.152344 24.710938 173.589844 18.996094 163.707031 18.996094 C 153.976562 18.996094 148.261719 24.710938 148.261719 34.59375 C 148.261719 35.367188 148.261719 36.292969 148.417969 37.21875 C 148.417969 37.21875 148.261719 37.21875 148.261719 37.375 C 146.71875 38.148438 146.410156 40.464844 147.644531 42.78125 C 148.261719 44.167969 149.34375 45.097656 150.425781 45.558594 C 151.816406 49.421875 153.976562 52.664062 156.449219 54.828125 L 156.449219 57.914062 L 139.613281 57.914062 C 132.820312 57.914062 127.257812 63.476562 127.257812 70.269531 L 127.257812 124.324219 C 127.257812 124.941406 127.722656 125.558594 128.496094 125.558594 L 138.222656 125.558594 C 138.53125 127.875 139.921875 129.882812 141.929688 130.964844 L 141.929688 197.992188 C 141.929688 198.609375 142.394531 199.226562 143.167969 199.226562 C 143.785156 199.226562 144.402344 198.765625 144.402344 197.992188 L 144.402344 143.476562 C 150.578125 142.855469 155.367188 138.070312 155.984375 131.890625 L 172.199219 131.890625 C 172.820312 138.070312 177.605469 142.855469 183.785156 143.476562 L 183.785156 197.992188 C 183.785156 198.609375 184.246094 199.226562 185.019531 199.226562 C 185.636719 199.226562 186.253906 198.765625 186.253906 197.992188 L 186.253906 130.964844 C 188.261719 129.882812 189.652344 127.875 189.960938 125.558594 L 199.074219 125.558594 C 199.691406 125.558594 200.308594 125.097656 200.308594 124.324219 L 200.308594 69.808594 C 200 63.320312 194.285156 57.914062 187.644531 57.914062 Z M 152.125 44.167969 C 151.96875 43.707031 151.503906 43.398438 151.042969 43.398438 C 150.734375 43.398438 149.960938 42.933594 149.5 41.851562 C 148.878906 40.617188 149.035156 39.691406 149.1875 39.691406 C 149.5 39.84375 149.960938 39.691406 150.269531 39.535156 C 150.578125 39.226562 150.734375 38.917969 150.734375 38.457031 C 150.578125 37.21875 150.425781 35.984375 150.425781 34.902344 C 150.425781 23.9375 157.527344 21.621094 163.550781 21.621094 C 169.574219 21.621094 176.679688 23.9375 176.679688 34.902344 C 176.679688 35.984375 176.523438 37.21875 176.371094 38.457031 C 176.371094 38.917969 176.523438 39.226562 176.832031 39.535156 C 177.144531 39.84375 177.605469 39.84375 177.914062 39.691406 C 178.070312 39.84375 178.222656 40.773438 177.605469 42.007812 C 176.988281 43.089844 176.214844 43.550781 176.0625 43.550781 C 175.597656 43.550781 175.136719 43.859375 174.980469 44.324219 C 172.507812 51.273438 168.03125 55.753906 163.550781 55.753906 C 159.074219 55.597656 154.59375 51.121094 152.125 44.167969 Z M 163.550781 57.914062 C 165.25 57.914062 167.105469 57.453125 168.648438 56.371094 L 168.648438 59.304688 L 163.550781 62.238281 L 158.457031 59.304688 L 158.457031 56.371094 C 160.15625 57.453125 161.851562 57.914062 163.550781 57.914062 Z M 144.246094 141.160156 L 144.246094 131.890625 L 153.511719 131.890625 C 152.894531 136.832031 149.035156 140.695312 144.246094 141.160156 Z M 183.628906 141.160156 C 178.839844 140.695312 174.980469 136.832031 174.363281 131.890625 L 183.628906 131.890625 Z M 197.683594 123.242188 L 189.808594 123.242188 L 189.808594 82.78125 C 189.808594 82.164062 189.34375 81.542969 188.570312 81.542969 C 187.800781 81.542969 187.335938 82.007812 187.335938 82.78125 L 187.335938 124.480469 C 187.335938 127.257812 185.019531 129.574219 182.238281 129.574219 L 145.484375 129.574219 C 142.703125 129.574219 140.386719 127.257812 140.386719 124.480469 L 140.386719 82.78125 C 140.386719 82.164062 139.921875 81.542969 139.152344 81.542969 C 138.53125 81.542969 138.070312 82.007812 138.070312 82.78125 L 138.070312 123.242188 L 129.574219 123.242188 L 129.574219 70.269531 C 129.574219 64.710938 134.054688 60.230469 139.613281 60.230469 L 156.292969 60.230469 C 156.292969 60.539062 156.601562 60.847656 156.757812 61.003906 L 163.089844 64.554688 C 163.242188 64.710938 163.398438 64.710938 163.707031 64.710938 C 164.015625 64.710938 164.167969 64.710938 164.324219 64.554688 L 170.65625 61.003906 C 170.964844 60.847656 171.121094 60.539062 171.121094 60.230469 L 187.800781 60.230469 C 193.203125 60.230469 197.835938 64.554688 197.835938 69.652344 L 197.835938 123.242188 Z M 197.683594 123.242188 "/>
<path style=" stroke:none;fill-rule:nonzero;fill:rgb(100%,100%,100%);fill-opacity:1;" d="M 71.816406 197.992188 L 71.816406 81.699219 L 43.707031 81.699219 L 43.707031 197.992188 "/>
<path style=" stroke:none;fill-rule:nonzero;fill:rgb(100%,100%,100%);fill-opacity:1;" d="M 86.175781 197.992188 L 86.175781 44.015625 L 114.441406 44.015625 L 114.441406 197.992188 "/>
<path style=" stroke:none;fill-rule:nonzero;fill:rgb(100%,100%,100%);fill-opacity:1;" d="M 29.34375 197.992188 L 29.34375 116.910156 L 1.234375 116.910156 L 1.234375 197.992188 "/>
<path style=" stroke:none;fill-rule:nonzero;fill:rgb(13.72549%,12.156863%,12.54902%);fill-opacity:1;" d="M 141.929688 2.933594 C 141.621094 2.625 141.3125 2.625 141.003906 2.625 L 92.664062 9.574219 C 92.199219 9.574219 91.890625 9.882812 91.738281 10.347656 C 91.582031 10.8125 91.738281 11.273438 92.046875 11.582031 L 103.476562 23.011719 L 45.867188 80.617188 L 43.707031 80.617188 C 43.089844 80.617188 42.472656 81.082031 42.472656 81.851562 L 42.472656 84.015625 L 10.65625 115.675781 L 1.234375 115.675781 C 0.617188 115.675781 0 116.140625 0 116.910156 L 0 197.992188 C 0 198.609375 0.464844 199.226562 1.234375 199.226562 C 1.851562 199.226562 2.316406 198.765625 2.316406 197.992188 L 2.316406 117.992188 L 28.109375 117.992188 L 28.109375 197.992188 C 28.109375 198.609375 28.570312 199.226562 29.34375 199.226562 C 29.960938 199.226562 30.578125 198.765625 30.578125 197.992188 L 30.578125 132.820312 L 42.625 120.773438 L 42.625 197.992188 C 42.625 198.609375 43.089844 199.226562 43.859375 199.226562 C 44.480469 199.226562 45.097656 198.765625 45.097656 197.992188 L 45.097656 82.933594 L 70.886719 82.933594 L 70.886719 197.992188 C 70.886719 198.609375 71.351562 199.226562 72.125 199.226562 C 72.742188 199.226562 73.203125 198.765625 73.203125 197.992188 L 73.203125 90.191406 L 85.25 78.148438 L 85.25 197.992188 C 85.25 198.609375 85.714844 199.226562 86.488281 199.226562 C 87.105469 199.226562 87.722656 198.765625 87.722656 197.992188 L 87.722656 45.097656 L 113.511719 45.097656 L 113.511719 197.992188 C 113.511719 198.609375 113.976562 199.226562 114.75 199.226562 C 115.367188 199.226562 115.984375 198.765625 115.984375 197.992188 L 115.984375 47.722656 L 122.316406 41.390625 L 133.746094 52.820312 C 134.054688 53.128906 134.515625 53.28125 134.980469 53.128906 C 135.445312 52.972656 135.753906 52.664062 135.753906 52.199219 L 142.703125 3.859375 C 142.394531 3.550781 142.238281 3.089844 141.929688 2.933594 Z M 30.425781 129.421875 L 30.425781 116.910156 C 30.425781 116.292969 29.960938 115.675781 29.1875 115.675781 L 14.054688 115.675781 L 42.625 87.105469 L 42.625 117.375 Z M 73.050781 86.949219 L 73.050781 81.699219 C 73.050781 81.082031 72.585938 80.464844 71.96875 80.464844 L 49.113281 80.464844 L 85.097656 44.789062 L 85.097656 75.058594 Z M 133.28125 49.574219 L 122.625 38.917969 C 122.164062 38.457031 121.390625 38.457031 120.925781 38.917969 L 115.367188 44.480469 L 115.367188 44.015625 C 115.367188 43.398438 114.902344 42.78125 114.132812 42.78125 L 86.949219 42.78125 L 105.945312 23.785156 C 106.101562 23.628906 106.253906 23.320312 106.253906 23.011719 C 106.253906 22.703125 106.101562 22.394531 105.945312 22.238281 L 95.289062 11.582031 L 139.769531 5.097656 Z M 133.28125 49.574219 "/>
<path style=" stroke:none;fill-rule:nonzero;fill:rgb(13.72549%,12.156863%,12.54902%);fill-opacity:1;" d="M 49.421875 67.492188 L 47.875 65.792969 Z M 51.738281 65.171875 L 50.039062 63.476562 L 51.121094 62.394531 L 52.820312 64.09375 Z M 54.980469 61.929688 L 53.28125 60.230469 L 54.363281 59.152344 L 56.0625 60.847656 Z M 58.222656 58.6875 L 56.523438 56.988281 L 57.605469 55.90625 L 59.304688 57.605469 Z M 61.46875 55.445312 L 59.769531 53.746094 L 60.847656 52.664062 L 62.546875 54.363281 Z M 64.863281 52.046875 L 63.167969 50.347656 L 64.246094 49.265625 L 65.945312 50.964844 Z M 68.109375 48.804688 L 66.410156 47.257812 L 67.492188 46.175781 L 69.1875 47.875 Z M 71.351562 45.558594 L 69.652344 43.859375 L 70.734375 42.78125 L 72.433594 44.480469 Z M 74.59375 42.316406 L 72.894531 40.617188 L 73.976562 39.535156 L 75.675781 41.234375 Z M 77.835938 39.074219 L 76.140625 37.375 L 77.21875 36.292969 L 78.917969 37.992188 Z M 81.234375 35.675781 L 79.535156 33.976562 L 80.617188 32.894531 L 82.316406 34.59375 Z M 84.480469 32.433594 L 82.78125 30.886719 L 83.859375 29.808594 L 85.558594 31.503906 Z M 84.480469 32.433594 "/>
<path style=" stroke:none;fill-rule:nonzero;fill:rgb(13.72549%,12.156863%,12.54902%);fill-opacity:1;" d="M 8.339844 96.0625 L 6.640625 94.363281 Z M 10.65625 93.746094 L 8.957031 92.046875 L 10.039062 90.964844 L 11.738281 92.664062 Z M 13.898438 90.5 L 12.199219 88.804688 L 13.28125 87.722656 L 14.980469 89.421875 Z M 17.144531 87.257812 L 15.445312 85.558594 L 16.523438 84.480469 L 18.222656 86.175781 Z M 20.539062 84.015625 L 18.839844 82.316406 L 19.921875 81.234375 L 21.621094 82.933594 Z M 23.785156 80.617188 L 22.085938 78.917969 L 23.167969 77.835938 L 24.863281 79.535156 Z M 27.027344 77.375 L 25.328125 75.675781 L 26.410156 74.59375 L 28.109375 76.292969 Z M 30.269531 74.132812 L 28.570312 72.433594 L 29.652344 71.351562 L 31.351562 73.050781 Z M 33.511719 70.886719 L 31.816406 69.1875 L 32.894531 68.109375 L 34.59375 69.808594 Z M 36.910156 67.492188 L 35.210938 65.792969 L 36.292969 64.710938 L 37.992188 66.410156 Z M 40.15625 64.246094 L 38.457031 62.546875 L 39.535156 61.46875 L 41.234375 63.167969 Z M 43.398438 61.003906 L 41.699219 59.304688 L 42.78125 58.222656 L 44.480469 59.921875 Z M 43.398438 61.003906 "/>
<path style=" stroke:none;fill-rule:nonzero;fill:rgb(13.72549%,12.156863%,12.54902%);fill-opacity:1;" d="M 90.191406 87.722656 L 88.496094 86.023438 Z M 92.355469 85.558594 L 90.65625 83.859375 L 91.738281 82.78125 L 93.4375 84.480469 Z M 95.597656 82.316406 L 93.898438 80.617188 L 94.980469 79.535156 L 96.679688 81.234375 Z M 98.996094 78.917969 L 97.296875 77.375 L 98.378906 76.292969 L 100.078125 77.992188 Z M 102.238281 75.675781 L 100.539062 73.976562 L 101.621094 72.894531 L 103.320312 74.59375 Z M 105.484375 72.433594 L 103.785156 70.734375 L 104.863281 69.652344 L 106.5625 71.351562 Z M 108.726562 69.1875 L 107.027344 67.492188 L 108.109375 66.410156 L 109.808594 68.109375 Z M 112.125 65.792969 L 110.425781 64.09375 L 111.503906 63.011719 L 113.203125 64.710938 Z M 115.367188 62.546875 L 113.667969 60.847656 L 114.75 59.769531 L 116.449219 61.46875 Z M 118.609375 59.304688 L 116.910156 57.605469 L 117.992188 56.523438 L 119.691406 58.222656 Z M 121.851562 56.0625 L 120.15625 54.363281 L 121.234375 53.28125 L 122.933594 54.980469 Z M 125.097656 52.820312 L 123.550781 51.121094 L 124.632812 50.039062 L 126.332031 51.738281 Z M 125.097656 52.820312 "/>
<path style=" stroke:none;fill-rule:nonzero;fill:rgb(13.72549%,12.156863%,12.54902%);fill-opacity:1;" d="M 20.078125 161.234375 L 18.378906 159.535156 Z M 22.238281 159.074219 L 20.539062 157.375 L 21.621094 156.292969 L 23.320312 157.992188 Z M 25.484375 155.832031 L 23.785156 154.132812 L 24.863281 153.050781 L 26.5625 154.75 Z M 28.878906 152.433594 L 27.179688 150.734375 L 28.261719 149.652344 L 29.960938 151.351562 Z M 32.125 149.1875 L 30.425781 147.492188 L 31.503906 146.410156 L 33.203125 148.109375 Z M 35.367188 145.945312 L 33.667969 144.246094 L 34.75 143.167969 L 36.449219 144.863281 Z M 38.609375 142.703125 L 37.066406 141.003906 L 38.148438 139.921875 L 39.84375 141.621094 Z M 41.851562 139.460938 L 40.15625 137.761719 L 41.234375 136.679688 L 42.933594 138.378906 Z M 45.25 136.0625 L 43.550781 134.363281 L 44.632812 133.28125 L 46.332031 134.980469 Z M 48.496094 132.820312 L 46.796875 131.273438 L 47.875 130.191406 L 49.574219 131.890625 Z M 51.738281 129.574219 L 50.039062 127.875 L 51.121094 126.796875 L 52.820312 128.496094 Z M 54.980469 126.332031 L 53.28125 124.632812 L 54.363281 123.550781 L 56.0625 125.25 Z M 54.980469 126.332031 "/>
<path style=" stroke:none;fill-rule:nonzero;fill:rgb(13.72549%,12.156863%,12.54902%);fill-opacity:1;" d="M 102.394531 163.398438 C 102.085938 163.398438 101.777344 163.242188 101.621094 163.089844 C 101.160156 162.625 101.160156 161.851562 101.621094 161.390625 L 103.628906 159.382812 C 104.09375 158.917969 104.863281 158.917969 105.328125 159.382812 C 105.792969 159.84375 105.792969 160.617188 105.328125 161.082031 L 103.320312 163.089844 C 103.011719 163.398438 102.703125 163.398438 102.394531 163.398438 Z M 102.394531 163.398438 "/>
<path style=" stroke:none;fill-rule:nonzero;fill:rgb(13.72549%,12.156863%,12.54902%);fill-opacity:1;" d="M 96.214844 169.730469 C 95.90625 169.730469 95.597656 169.574219 95.445312 169.421875 C 94.980469 168.957031 94.980469 168.183594 95.445312 167.722656 L 97.453125 165.714844 C 97.914062 165.25 98.6875 165.25 99.152344 165.714844 C 99.613281 166.175781 99.613281 166.949219 99.152344 167.414062 L 97.144531 169.421875 C 96.679688 169.574219 96.523438 169.730469 96.214844 169.730469 Z M 96.214844 169.730469 "/>
<path style=" stroke:none;fill-rule:nonzero;fill:rgb(13.72549%,12.156863%,12.54902%);fill-opacity:1;" d="M 104.402344 169.730469 C 104.09375 169.730469 103.785156 169.574219 103.628906 169.421875 L 101.621094 167.414062 C 101.160156 166.949219 101.160156 166.175781 101.621094 165.714844 C 102.085938 165.25 102.855469 165.25 103.320312 165.714844 L 105.328125 167.722656 C 105.792969 168.183594 105.792969 168.957031 105.328125 169.421875 C 105.019531 169.574219 104.710938 169.730469 104.402344 169.730469 Z M 104.402344 169.730469 "/>
<path style=" stroke:none;fill-rule:nonzero;fill:rgb(13.72549%,12.156863%,12.54902%);fill-opacity:1;" d="M 98.222656 163.398438 C 97.914062 163.398438 97.605469 163.242188 97.453125 163.089844 L 95.445312 161.082031 C 94.980469 160.617188 94.980469 159.84375 95.445312 159.382812 C 95.90625 158.917969 96.679688 158.917969 97.144531 159.382812 L 99.152344 161.390625 C 99.613281 161.851562 99.613281 162.625 99.152344 163.089844 C 98.6875 163.398438 98.378906 163.398438 98.222656 163.398438 Z M 98.222656 163.398438 "/>
<path style=" stroke:none;fill-rule:nonzero;fill:rgb(13.72549%,12.156863%,12.54902%);fill-opacity:1;" d="M 194.132812 6.796875 C 193.824219 6.796875 193.511719 6.640625 193.359375 6.488281 C 192.894531 6.023438 192.894531 5.25 193.359375 4.789062 L 195.367188 2.78125 C 195.832031 2.316406 196.601562 2.316406 197.066406 2.78125 C 197.527344 3.242188 197.527344 4.015625 197.066406 4.480469 L 195.058594 6.488281 C 194.75 6.796875 194.441406 6.796875 194.132812 6.796875 Z M 194.132812 6.796875 "/>
<path style=" stroke:none;fill-rule:nonzero;fill:rgb(13.72549%,12.156863%,12.54902%);fill-opacity:1;" d="M 187.800781 13.128906 C 187.492188 13.128906 187.179688 12.972656 187.027344 12.820312 C 186.5625 12.355469 186.5625 11.582031 187.027344 11.121094 L 189.035156 9.113281 C 189.5 8.648438 190.269531 8.648438 190.734375 9.113281 C 191.195312 9.574219 191.195312 10.347656 190.734375 10.8125 L 188.726562 12.820312 C 188.417969 12.972656 188.109375 13.128906 187.800781 13.128906 Z M 187.800781 13.128906 "/>
<path style=" stroke:none;fill-rule:nonzero;fill:rgb(13.72549%,12.156863%,12.54902%);fill-opacity:1;" d="M 196.140625 13.128906 C 195.832031 13.128906 195.519531 12.972656 195.367188 12.820312 L 193.203125 10.8125 C 192.742188 10.347656 192.742188 9.574219 193.203125 9.113281 C 193.667969 8.648438 194.441406 8.648438 194.902344 9.113281 L 196.910156 11.121094 C 197.375 11.582031 197.375 12.355469 196.910156 12.820312 C 196.601562 12.972656 196.449219 13.128906 196.140625 13.128906 Z M 196.140625 13.128906 "/>
<path style=" stroke:none;fill-rule:nonzero;fill:rgb(13.72549%,12.156863%,12.54902%);fill-opacity:1;" d="M 189.808594 6.796875 C 189.5 6.796875 189.1875 6.640625 189.035156 6.488281 L 187.027344 4.480469 C 186.5625 4.015625 186.5625 3.242188 187.027344 2.78125 C 187.492188 2.316406 188.261719 2.316406 188.726562 2.78125 L 190.734375 4.789062 C 191.195312 5.25 191.195312 6.023438 190.734375 6.488281 C 190.425781 6.796875 190.117188 6.796875 189.808594 6.796875 Z M 189.808594 6.796875 "/>
<path style=" stroke:none;fill-rule:nonzero;fill:rgb(90.196078%,91.372549%,93.333333%);fill-opacity:1;" d="M 181.3125 75.984375 C 181.3125 77.859375 179.792969 79.382812 177.914062 79.382812 C 176.039062 79.382812 174.515625 77.859375 174.515625 75.984375 C 174.515625 74.109375 176.039062 72.585938 177.914062 72.585938 C 179.792969 72.585938 181.3125 74.109375 181.3125 75.984375 Z M 181.3125 75.984375 "/>
<path style=" stroke:none;fill-rule:nonzero;fill:rgb(100%,43.921569%,34.509804%);fill-opacity:1;" d="M 131.738281 147.027344 C 131.738281 148.902344 130.214844 150.425781 128.339844 150.425781 C 126.464844 150.425781 124.941406 148.902344 124.941406 147.027344 C 124.941406 145.152344 126.464844 143.628906 128.339844 143.628906 C 130.214844 143.628906 131.738281 145.152344 131.738281 147.027344 Z M 131.738281 147.027344 "/>
<path style=" stroke:none;fill-rule:nonzero;fill:rgb(100%,43.921569%,34.509804%);fill-opacity:1;" d="M 17.761719 57.453125 C 17.761719 59.328125 16.238281 60.847656 14.363281 60.847656 C 12.488281 60.847656 10.964844 59.328125 10.964844 57.453125 C 10.964844 55.574219 12.488281 54.054688 14.363281 54.054688 C 16.238281 54.054688 17.761719 55.574219 17.761719 57.453125 Z M 17.761719 57.453125 "/>
<path style=" stroke:none;fill-rule:nonzero;fill:rgb(100%,81.568627%,35.686275%);fill-opacity:1;" d="M 20.230469 5.714844 C 20.230469 8.445312 18.019531 10.65625 15.289062 10.65625 C 12.558594 10.65625 10.347656 8.445312 10.347656 5.714844 C 10.347656 2.984375 12.558594 0.773438 15.289062 0.773438 C 18.019531 0.773438 20.230469 2.984375 20.230469 5.714844 Z M 20.230469 5.714844 "/>
<path style=" stroke:none;fill-rule:nonzero;fill:rgb(90.196078%,91.372549%,93.333333%);fill-opacity:1;" d="M 24.09375 185.792969 C 24.09375 188.519531 21.878906 190.734375 19.152344 190.734375 C 16.421875 190.734375 14.207031 188.519531 14.207031 185.792969 C 14.207031 183.0625 16.421875 180.847656 19.152344 180.847656 C 21.878906 180.847656 24.09375 183.0625 24.09375 185.792969 Z M 24.09375 185.792969 "/>
</g>
</svg>
