<?xml version="1.0" encoding="UTF-8"?>
<svg xmlns="http://www.w3.org/2000/svg" xmlns:xlink="http://www.w3.org/1999/xlink" width="200px" height="200px" viewBox="0 0 200 200" version="1.1">
<g id="surface1">
<path style=" stroke:none;fill-rule:nonzero;fill:rgb(13.72549%,12.156863%,12.54902%);fill-opacity:1;" d="M 13.28125 143.167969 L 1.082031 143.167969 C 0.464844 143.167969 -0.15625 142.703125 -0.15625 141.929688 C -0.15625 141.160156 0.308594 140.695312 1.082031 140.695312 L 13.128906 140.695312 C 13.746094 140.695312 14.363281 141.160156 14.363281 141.929688 C 14.363281 142.703125 13.898438 143.167969 13.28125 143.167969 Z M 13.28125 143.167969 "/>
<path style=" stroke:none;fill-rule:nonzero;fill:rgb(13.72549%,12.156863%,12.54902%);fill-opacity:1;" d="M 21.160156 143.167969 L 17.761719 143.167969 C 17.144531 143.167969 16.523438 142.703125 16.523438 141.929688 C 16.523438 141.160156 16.988281 140.695312 17.761719 140.695312 L 21.160156 140.695312 C 21.777344 140.695312 22.394531 141.160156 22.394531 141.929688 C 22.394531 142.703125 21.929688 143.167969 21.160156 143.167969 Z M 21.160156 143.167969 "/>
<path style=" stroke:none;fill-rule:nonzero;fill:rgb(13.72549%,12.156863%,12.54902%);fill-opacity:1;" d="M 16.523438 147.492188 L 13.28125 147.492188 C 12.664062 147.492188 12.199219 147.027344 12.199219 146.253906 C 12.199219 145.636719 12.664062 145.019531 13.28125 145.019531 L 16.679688 145.019531 C 17.296875 145.019531 17.914062 145.484375 17.914062 146.253906 C 17.761719 146.871094 17.296875 147.492188 16.523438 147.492188 Z M 16.523438 147.492188 "/>
<path style=" stroke:none;fill-rule:nonzero;fill:rgb(13.72549%,12.156863%,12.54902%);fill-opacity:1;" d="M 188.570312 145.484375 C 188.261719 145.484375 187.953125 145.328125 187.800781 145.171875 C 187.335938 144.710938 187.335938 143.9375 187.800781 143.476562 L 189.808594 141.46875 C 190.269531 141.003906 191.042969 141.003906 191.503906 141.46875 C 191.96875 141.929688 191.96875 142.703125 191.503906 143.167969 L 189.5 145.171875 C 189.035156 145.328125 188.726562 145.484375 188.570312 145.484375 Z M 188.570312 145.484375 "/>
<path style=" stroke:none;fill-rule:nonzero;fill:rgb(13.72549%,12.156863%,12.54902%);fill-opacity:1;" d="M 182.085938 151.96875 C 181.777344 151.96875 181.46875 151.816406 181.3125 151.660156 C 180.847656 151.195312 180.847656 150.425781 181.3125 149.960938 L 183.320312 147.953125 C 183.785156 147.492188 184.554688 147.492188 185.019531 147.953125 C 185.484375 148.417969 185.484375 149.1875 185.019531 149.652344 L 183.011719 151.660156 C 182.546875 151.816406 182.238281 151.96875 182.085938 151.96875 Z M 182.085938 151.96875 "/>
<path style=" stroke:none;fill-rule:nonzero;fill:rgb(13.72549%,12.156863%,12.54902%);fill-opacity:1;" d="M 190.578125 151.96875 C 190.269531 151.96875 189.960938 151.816406 189.808594 151.660156 L 187.800781 149.652344 C 187.335938 149.1875 187.335938 148.417969 187.800781 147.953125 C 188.261719 147.492188 189.035156 147.492188 189.5 147.953125 L 191.503906 149.960938 C 191.96875 150.425781 191.96875 151.195312 191.503906 151.660156 C 191.195312 151.816406 190.886719 151.96875 190.578125 151.96875 Z M 190.578125 151.96875 "/>
<path style=" stroke:none;fill-rule:nonzero;fill:rgb(13.72549%,12.156863%,12.54902%);fill-opacity:1;" d="M 184.09375 145.484375 C 183.785156 145.484375 183.476562 145.328125 183.320312 145.171875 L 181.3125 143.167969 C 180.847656 142.703125 180.847656 141.929688 181.3125 141.46875 C 181.777344 141.003906 182.546875 141.003906 183.011719 141.46875 L 185.019531 143.476562 C 185.484375 143.9375 185.484375 144.710938 185.019531 145.171875 C 184.710938 145.328125 184.402344 145.484375 184.09375 145.484375 Z M 184.09375 145.484375 "/>
<path style=" stroke:none;fill-rule:nonzero;fill:rgb(13.72549%,12.156863%,12.54902%);fill-opacity:1;" d="M 196.757812 5.558594 C 196.449219 5.558594 196.140625 5.40625 195.984375 5.25 C 195.519531 4.789062 195.519531 4.015625 195.984375 3.550781 L 197.992188 1.542969 C 198.457031 1.082031 199.226562 1.082031 199.691406 1.542969 C 200.15625 2.007812 200.15625 2.78125 199.691406 3.242188 L 197.683594 5.25 C 197.375 5.40625 197.066406 5.558594 196.757812 5.558594 Z M 196.757812 5.558594 "/>
<path style=" stroke:none;fill-rule:nonzero;fill:rgb(13.72549%,12.156863%,12.54902%);fill-opacity:1;" d="M 190.269531 12.046875 C 189.960938 12.046875 189.652344 11.890625 189.5 11.738281 C 189.035156 11.273438 189.035156 10.5 189.5 10.039062 L 191.503906 8.03125 C 191.96875 7.566406 192.742188 7.566406 193.203125 8.03125 C 193.667969 8.496094 193.667969 9.265625 193.203125 9.730469 L 191.195312 11.738281 C 190.886719 11.890625 190.578125 12.046875 190.269531 12.046875 Z M 190.269531 12.046875 "/>
<path style=" stroke:none;fill-rule:nonzero;fill:rgb(13.72549%,12.156863%,12.54902%);fill-opacity:1;" d="M 198.765625 12.046875 C 198.457031 12.046875 198.148438 11.890625 197.992188 11.738281 L 195.984375 9.730469 C 195.519531 9.265625 195.519531 8.496094 195.984375 8.03125 C 196.449219 7.566406 197.21875 7.566406 197.683594 8.03125 L 199.691406 10.039062 C 200.15625 10.5 200.15625 11.273438 199.691406 11.738281 C 199.382812 11.890625 199.074219 12.046875 198.765625 12.046875 Z M 198.765625 12.046875 "/>
<path style=" stroke:none;fill-rule:nonzero;fill:rgb(13.72549%,12.156863%,12.54902%);fill-opacity:1;" d="M 192.277344 5.558594 C 191.96875 5.558594 191.660156 5.40625 191.503906 5.25 L 189.5 3.089844 C 189.035156 2.625 189.035156 1.851562 189.5 1.390625 C 189.960938 0.925781 190.734375 0.925781 191.195312 1.390625 L 193.203125 3.398438 C 193.667969 3.859375 193.667969 4.632812 193.203125 5.097656 C 192.894531 5.40625 192.585938 5.558594 192.277344 5.558594 Z M 192.277344 5.558594 "/>
<path style=" stroke:none;fill-rule:nonzero;fill:rgb(100%,100%,100%);fill-opacity:1;" d="M 5.097656 14.054688 L 185.945312 14.054688 L 185.945312 122.164062 L 5.097656 122.164062 Z M 5.097656 14.054688 "/>
<path style=" stroke:none;fill-rule:nonzero;fill:rgb(100%,100%,100%);fill-opacity:1;" d="M 5.097656 99.769531 L 185.945312 99.769531 L 185.945312 122.164062 L 5.097656 122.164062 Z M 5.097656 99.769531 "/>
<path style=" stroke:none;fill-rule:nonzero;fill:rgb(80.784314%,83.529412%,87.843137%);fill-opacity:1;" d="M 8.339844 103.011719 L 182.855469 103.011719 L 182.855469 118.917969 L 8.339844 118.917969 Z M 8.339844 103.011719 "/>
<path style=" stroke:none;fill-rule:nonzero;fill:rgb(100%,100%,100%);fill-opacity:1;" d="M 100.078125 111.042969 C 100.078125 113.515625 98.070312 115.519531 95.597656 115.519531 C 93.125 115.519531 91.121094 113.515625 91.121094 111.042969 C 91.121094 108.570312 93.125 106.5625 95.597656 106.5625 C 98.070312 106.5625 100.078125 108.570312 100.078125 111.042969 Z M 100.078125 111.042969 "/>
<path style=" stroke:none;fill-rule:nonzero;fill:rgb(13.72549%,12.156863%,12.54902%);fill-opacity:1;" d="M 95.597656 116.601562 C 92.507812 116.601562 90.039062 114.132812 90.039062 111.042969 C 90.039062 107.953125 92.507812 105.484375 95.597656 105.484375 C 98.6875 105.484375 101.160156 107.953125 101.160156 111.042969 C 101.160156 113.976562 98.6875 116.601562 95.597656 116.601562 Z M 95.597656 107.644531 C 93.746094 107.644531 92.355469 109.035156 92.355469 110.886719 C 92.355469 112.742188 93.746094 114.132812 95.597656 114.132812 C 97.296875 114.285156 98.839844 112.742188 98.839844 111.042969 C 98.839844 109.1875 97.296875 107.644531 95.597656 107.644531 Z M 95.597656 107.644531 "/>
<path style=" stroke:none;fill-rule:nonzero;fill:rgb(100%,100%,100%);fill-opacity:1;" d="M 52.972656 139.921875 L 138.222656 139.921875 L 138.222656 146.5625 L 52.972656 146.5625 Z M 52.972656 139.921875 "/>
<path style=" stroke:none;fill-rule:nonzero;fill:rgb(100%,100%,100%);fill-opacity:1;" d="M 69.960938 122.164062 L 120.925781 122.164062 L 120.925781 139.921875 L 69.960938 139.921875 Z M 69.960938 122.164062 "/>
<path style=" stroke:none;fill-rule:nonzero;fill:rgb(80.784314%,83.529412%,87.843137%);fill-opacity:1;" d="M 73.203125 125.40625 L 117.835938 125.40625 L 117.835938 136.679688 L 73.203125 136.679688 Z M 73.203125 125.40625 "/>
<path style=" stroke:none;fill-rule:nonzero;fill:rgb(100%,100%,100%);fill-opacity:1;" d="M 3.089844 156.292969 L 133.898438 156.292969 L 133.898438 197.683594 L 3.089844 197.683594 Z M 3.089844 156.292969 "/>
<path style=" stroke:none;fill-rule:nonzero;fill:rgb(13.72549%,12.156863%,12.54902%);fill-opacity:1;" d="M 133.898438 198.917969 L 3.089844 198.917969 C 2.472656 198.917969 2.007812 198.457031 2.007812 197.683594 L 2.007812 156.292969 C 2.007812 155.675781 2.472656 155.058594 3.089844 155.058594 L 133.898438 155.058594 C 134.515625 155.058594 135.136719 155.519531 135.136719 156.292969 L 135.136719 197.683594 C 135.136719 198.300781 134.515625 198.917969 133.898438 198.917969 Z M 4.324219 196.601562 L 132.820312 196.601562 L 132.820312 157.527344 L 4.324219 157.527344 Z M 4.324219 196.601562 "/>
<path style=" stroke:none;fill-rule:nonzero;fill:rgb(100%,100%,100%);fill-opacity:1;" d="M 7.414062 160.617188 L 14.828125 160.617188 L 14.828125 168.648438 L 7.414062 168.648438 Z M 7.414062 160.617188 "/>
<path style=" stroke:none;fill-rule:nonzero;fill:rgb(13.72549%,12.156863%,12.54902%);fill-opacity:1;" d="M 14.980469 169.882812 L 7.414062 169.882812 C 6.796875 169.882812 6.175781 169.421875 6.175781 168.648438 L 6.175781 160.617188 C 6.175781 160 6.640625 159.382812 7.414062 159.382812 L 14.828125 159.382812 C 15.445312 159.382812 16.0625 159.84375 16.0625 160.617188 L 16.0625 168.648438 C 16.0625 169.265625 15.597656 169.882812 14.980469 169.882812 Z M 8.648438 167.566406 L 13.746094 167.566406 L 13.746094 161.851562 L 8.648438 161.851562 Z M 8.648438 167.566406 "/>
<path style=" stroke:none;fill-rule:nonzero;fill:rgb(100%,100%,100%);fill-opacity:1;" d="M 20.230469 160.617188 L 27.644531 160.617188 L 27.644531 168.648438 L 20.230469 168.648438 Z M 20.230469 160.617188 "/>
<path style=" stroke:none;fill-rule:nonzero;fill:rgb(13.72549%,12.156863%,12.54902%);fill-opacity:1;" d="M 27.644531 169.882812 L 20.230469 169.882812 C 19.613281 169.882812 18.996094 169.421875 18.996094 168.648438 L 18.996094 160.617188 C 18.996094 160 19.460938 159.382812 20.230469 159.382812 L 27.644531 159.382812 C 28.261719 159.382812 28.878906 159.84375 28.878906 160.617188 L 28.878906 168.648438 C 28.878906 169.265625 28.261719 169.882812 27.644531 169.882812 Z M 21.3125 167.566406 L 26.410156 167.566406 L 26.410156 161.851562 L 21.3125 161.851562 Z M 21.3125 167.566406 "/>
<path style=" stroke:none;fill-rule:nonzero;fill:rgb(100%,100%,100%);fill-opacity:1;" d="M 32.894531 160.617188 L 40.308594 160.617188 L 40.308594 168.648438 L 32.894531 168.648438 Z M 32.894531 160.617188 "/>
<path style=" stroke:none;fill-rule:nonzero;fill:rgb(13.72549%,12.156863%,12.54902%);fill-opacity:1;" d="M 40.464844 169.882812 L 33.050781 169.882812 C 32.433594 169.882812 31.816406 169.421875 31.816406 168.648438 L 31.816406 160.617188 C 31.816406 160 32.277344 159.382812 33.050781 159.382812 L 40.464844 159.382812 C 41.082031 159.382812 41.699219 159.84375 41.699219 160.617188 L 41.699219 168.648438 C 41.542969 169.265625 41.082031 169.882812 40.464844 169.882812 Z M 34.132812 167.566406 L 39.226562 167.566406 L 39.226562 161.851562 L 34.132812 161.851562 Z M 34.132812 167.566406 "/>
<path style=" stroke:none;fill-rule:nonzero;fill:rgb(100%,100%,100%);fill-opacity:1;" d="M 45.714844 160.617188 L 53.128906 160.617188 L 53.128906 168.648438 L 45.714844 168.648438 Z M 45.714844 160.617188 "/>
<path style=" stroke:none;fill-rule:nonzero;fill:rgb(13.72549%,12.156863%,12.54902%);fill-opacity:1;" d="M 53.128906 169.882812 L 45.714844 169.882812 C 45.097656 169.882812 44.480469 169.421875 44.480469 168.648438 L 44.480469 160.617188 C 44.480469 160 44.941406 159.382812 45.714844 159.382812 L 53.128906 159.382812 C 53.746094 159.382812 54.363281 159.84375 54.363281 160.617188 L 54.363281 168.648438 C 54.363281 169.265625 53.746094 169.882812 53.128906 169.882812 Z M 46.796875 167.566406 L 51.890625 167.566406 L 51.890625 161.851562 L 46.796875 161.851562 Z M 46.796875 167.566406 "/>
<path style=" stroke:none;fill-rule:nonzero;fill:rgb(100%,100%,100%);fill-opacity:1;" d="M 58.378906 160.617188 L 65.792969 160.617188 L 65.792969 168.648438 L 58.378906 168.648438 Z M 58.378906 160.617188 "/>
<path style=" stroke:none;fill-rule:nonzero;fill:rgb(13.72549%,12.156863%,12.54902%);fill-opacity:1;" d="M 65.945312 169.882812 L 58.53125 169.882812 C 57.914062 169.882812 57.296875 169.421875 57.296875 168.648438 L 57.296875 160.617188 C 57.296875 160 57.761719 159.382812 58.53125 159.382812 L 65.945312 159.382812 C 66.5625 159.382812 67.179688 159.84375 67.179688 160.617188 L 67.179688 168.648438 C 67.027344 169.265625 66.5625 169.882812 65.945312 169.882812 Z M 59.613281 167.566406 L 64.710938 167.566406 L 64.710938 161.851562 L 59.613281 161.851562 Z M 59.613281 167.566406 "/>
<path style=" stroke:none;fill-rule:nonzero;fill:rgb(100%,100%,100%);fill-opacity:1;" d="M 71.195312 160.617188 L 78.609375 160.617188 L 78.609375 168.648438 L 71.195312 168.648438 Z M 71.195312 160.617188 "/>
<path style=" stroke:none;fill-rule:nonzero;fill:rgb(13.72549%,12.156863%,12.54902%);fill-opacity:1;" d="M 78.609375 169.882812 L 71.195312 169.882812 C 70.578125 169.882812 69.960938 169.421875 69.960938 168.648438 L 69.960938 160.617188 C 69.960938 160 70.425781 159.382812 71.195312 159.382812 L 78.609375 159.382812 C 79.226562 159.382812 79.84375 159.84375 79.84375 160.617188 L 79.84375 168.648438 C 79.84375 169.265625 79.226562 169.882812 78.609375 169.882812 Z M 72.277344 167.566406 L 77.375 167.566406 L 77.375 161.851562 L 72.277344 161.851562 Z M 72.277344 167.566406 "/>
<path style=" stroke:none;fill-rule:nonzero;fill:rgb(100%,100%,100%);fill-opacity:1;" d="M 83.859375 160.617188 L 91.273438 160.617188 L 91.273438 168.648438 L 83.859375 168.648438 Z M 83.859375 160.617188 "/>
<path style=" stroke:none;fill-rule:nonzero;fill:rgb(13.72549%,12.156863%,12.54902%);fill-opacity:1;" d="M 91.429688 169.882812 L 84.015625 169.882812 C 83.398438 169.882812 82.78125 169.421875 82.78125 168.648438 L 82.78125 160.617188 C 82.78125 160 83.242188 159.382812 84.015625 159.382812 L 91.429688 159.382812 C 92.046875 159.382812 92.664062 159.84375 92.664062 160.617188 L 92.664062 168.648438 C 92.507812 169.265625 92.046875 169.882812 91.429688 169.882812 Z M 85.097656 167.566406 L 90.191406 167.566406 L 90.191406 161.851562 L 85.097656 161.851562 Z M 85.097656 167.566406 "/>
<path style=" stroke:none;fill-rule:nonzero;fill:rgb(100%,100%,100%);fill-opacity:1;" d="M 96.679688 160.617188 L 104.09375 160.617188 L 104.09375 168.648438 L 96.679688 168.648438 Z M 96.679688 160.617188 "/>
<path style=" stroke:none;fill-rule:nonzero;fill:rgb(13.72549%,12.156863%,12.54902%);fill-opacity:1;" d="M 104.09375 169.882812 L 96.679688 169.882812 C 96.0625 169.882812 95.445312 169.421875 95.445312 168.648438 L 95.445312 160.617188 C 95.445312 160 95.90625 159.382812 96.679688 159.382812 L 104.09375 159.382812 C 104.710938 159.382812 105.328125 159.84375 105.328125 160.617188 L 105.328125 168.648438 C 105.328125 169.265625 104.710938 169.882812 104.09375 169.882812 Z M 97.761719 167.566406 L 102.855469 167.566406 L 102.855469 161.851562 L 97.761719 161.851562 Z M 97.761719 167.566406 "/>
<path style=" stroke:none;fill-rule:nonzero;fill:rgb(100%,100%,100%);fill-opacity:1;" d="M 109.34375 160.617188 L 116.757812 160.617188 L 116.757812 168.648438 L 109.34375 168.648438 Z M 109.34375 160.617188 "/>
<path style=" stroke:none;fill-rule:nonzero;fill:rgb(13.72549%,12.156863%,12.54902%);fill-opacity:1;" d="M 116.910156 169.882812 L 109.5 169.882812 C 108.878906 169.882812 108.261719 169.421875 108.261719 168.648438 L 108.261719 160.617188 C 108.261719 160 108.726562 159.382812 109.5 159.382812 L 116.910156 159.382812 C 117.527344 159.382812 118.148438 159.84375 118.148438 160.617188 L 118.148438 168.648438 C 117.992188 169.265625 117.527344 169.882812 116.910156 169.882812 Z M 110.578125 167.566406 L 115.675781 167.566406 L 115.675781 161.851562 L 110.578125 161.851562 Z M 110.578125 167.566406 "/>
<path style=" stroke:none;fill-rule:nonzero;fill:rgb(100%,100%,100%);fill-opacity:1;" d="M 122.164062 160.617188 L 129.574219 160.617188 L 129.574219 168.648438 L 122.164062 168.648438 Z M 122.164062 160.617188 "/>
<path style=" stroke:none;fill-rule:nonzero;fill:rgb(13.72549%,12.156863%,12.54902%);fill-opacity:1;" d="M 129.574219 169.882812 L 122.164062 169.882812 C 121.542969 169.882812 120.925781 169.421875 120.925781 168.648438 L 120.925781 160.617188 C 120.925781 160 121.390625 159.382812 122.164062 159.382812 L 129.574219 159.382812 C 130.191406 159.382812 130.8125 159.84375 130.8125 160.617188 L 130.8125 168.648438 C 130.8125 169.265625 130.191406 169.882812 129.574219 169.882812 Z M 123.242188 167.566406 L 128.339844 167.566406 L 128.339844 161.851562 L 123.242188 161.851562 Z M 123.242188 167.566406 "/>
<path style=" stroke:none;fill-rule:nonzero;fill:rgb(100%,100%,100%);fill-opacity:1;" d="M 7.414062 172.972656 L 14.828125 172.972656 L 14.828125 181.003906 L 7.414062 181.003906 Z M 7.414062 172.972656 "/>
<path style=" stroke:none;fill-rule:nonzero;fill:rgb(13.72549%,12.156863%,12.54902%);fill-opacity:1;" d="M 14.980469 182.238281 L 7.414062 182.238281 C 6.796875 182.238281 6.175781 181.777344 6.175781 181.003906 L 6.175781 172.972656 C 6.175781 172.355469 6.640625 171.738281 7.414062 171.738281 L 14.828125 171.738281 C 15.445312 171.738281 16.0625 172.199219 16.0625 172.972656 L 16.0625 181.003906 C 16.0625 181.621094 15.597656 182.238281 14.980469 182.238281 Z M 8.648438 179.921875 L 13.746094 179.921875 L 13.746094 174.207031 L 8.648438 174.207031 Z M 8.648438 179.921875 "/>
<path style=" stroke:none;fill-rule:nonzero;fill:rgb(100%,100%,100%);fill-opacity:1;" d="M 20.230469 172.972656 L 27.644531 172.972656 L 27.644531 181.003906 L 20.230469 181.003906 Z M 20.230469 172.972656 "/>
<path style=" stroke:none;fill-rule:nonzero;fill:rgb(13.72549%,12.156863%,12.54902%);fill-opacity:1;" d="M 27.644531 182.238281 L 20.230469 182.238281 C 19.613281 182.238281 18.996094 181.777344 18.996094 181.003906 L 18.996094 172.972656 C 18.996094 172.355469 19.460938 171.738281 20.230469 171.738281 L 27.644531 171.738281 C 28.261719 171.738281 28.878906 172.199219 28.878906 172.972656 L 28.878906 181.003906 C 28.878906 181.621094 28.261719 182.238281 27.644531 182.238281 Z M 21.3125 179.921875 L 26.410156 179.921875 L 26.410156 174.207031 L 21.3125 174.207031 Z M 21.3125 179.921875 "/>
<path style=" stroke:none;fill-rule:nonzero;fill:rgb(100%,100%,100%);fill-opacity:1;" d="M 32.894531 172.972656 L 40.308594 172.972656 L 40.308594 181.003906 L 32.894531 181.003906 Z M 32.894531 172.972656 "/>
<path style=" stroke:none;fill-rule:nonzero;fill:rgb(13.72549%,12.156863%,12.54902%);fill-opacity:1;" d="M 40.464844 182.238281 L 33.050781 182.238281 C 32.433594 182.238281 31.816406 181.777344 31.816406 181.003906 L 31.816406 172.972656 C 31.816406 172.355469 32.277344 171.738281 33.050781 171.738281 L 40.464844 171.738281 C 41.082031 171.738281 41.699219 172.199219 41.699219 172.972656 L 41.699219 181.003906 C 41.542969 181.621094 41.082031 182.238281 40.464844 182.238281 Z M 34.132812 179.921875 L 39.226562 179.921875 L 39.226562 174.207031 L 34.132812 174.207031 Z M 34.132812 179.921875 "/>
<path style=" stroke:none;fill-rule:nonzero;fill:rgb(100%,100%,100%);fill-opacity:1;" d="M 45.714844 172.972656 L 53.128906 172.972656 L 53.128906 181.003906 L 45.714844 181.003906 Z M 45.714844 172.972656 "/>
<path style=" stroke:none;fill-rule:nonzero;fill:rgb(13.72549%,12.156863%,12.54902%);fill-opacity:1;" d="M 53.128906 182.238281 L 45.714844 182.238281 C 45.097656 182.238281 44.480469 181.777344 44.480469 181.003906 L 44.480469 172.972656 C 44.480469 172.355469 44.941406 171.738281 45.714844 171.738281 L 53.128906 171.738281 C 53.746094 171.738281 54.363281 172.199219 54.363281 172.972656 L 54.363281 181.003906 C 54.363281 181.621094 53.746094 182.238281 53.128906 182.238281 Z M 46.796875 179.921875 L 51.890625 179.921875 L 51.890625 174.207031 L 46.796875 174.207031 Z M 46.796875 179.921875 "/>
<path style=" stroke:none;fill-rule:nonzero;fill:rgb(100%,100%,100%);fill-opacity:1;" d="M 58.378906 172.972656 L 65.792969 172.972656 L 65.792969 181.003906 L 58.378906 181.003906 Z M 58.378906 172.972656 "/>
<path style=" stroke:none;fill-rule:nonzero;fill:rgb(13.72549%,12.156863%,12.54902%);fill-opacity:1;" d="M 65.945312 182.238281 L 58.53125 182.238281 C 57.914062 182.238281 57.296875 181.777344 57.296875 181.003906 L 57.296875 172.972656 C 57.296875 172.355469 57.761719 171.738281 58.53125 171.738281 L 65.945312 171.738281 C 66.5625 171.738281 67.179688 172.199219 67.179688 172.972656 L 67.179688 181.003906 C 67.027344 181.621094 66.5625 182.238281 65.945312 182.238281 Z M 59.613281 179.921875 L 64.710938 179.921875 L 64.710938 174.207031 L 59.613281 174.207031 Z M 59.613281 179.921875 "/>
<path style=" stroke:none;fill-rule:nonzero;fill:rgb(100%,100%,100%);fill-opacity:1;" d="M 71.195312 172.972656 L 78.609375 172.972656 L 78.609375 181.003906 L 71.195312 181.003906 Z M 71.195312 172.972656 "/>
<path style=" stroke:none;fill-rule:nonzero;fill:rgb(13.72549%,12.156863%,12.54902%);fill-opacity:1;" d="M 78.609375 182.238281 L 71.195312 182.238281 C 70.578125 182.238281 69.960938 181.777344 69.960938 181.003906 L 69.960938 172.972656 C 69.960938 172.355469 70.425781 171.738281 71.195312 171.738281 L 78.609375 171.738281 C 79.226562 171.738281 79.84375 172.199219 79.84375 172.972656 L 79.84375 181.003906 C 79.84375 181.621094 79.226562 182.238281 78.609375 182.238281 Z M 72.277344 179.921875 L 77.375 179.921875 L 77.375 174.207031 L 72.277344 174.207031 Z M 72.277344 179.921875 "/>
<path style=" stroke:none;fill-rule:nonzero;fill:rgb(100%,100%,100%);fill-opacity:1;" d="M 83.859375 172.972656 L 91.273438 172.972656 L 91.273438 181.003906 L 83.859375 181.003906 Z M 83.859375 172.972656 "/>
<path style=" stroke:none;fill-rule:nonzero;fill:rgb(13.72549%,12.156863%,12.54902%);fill-opacity:1;" d="M 91.429688 182.238281 L 84.015625 182.238281 C 83.398438 182.238281 82.78125 181.777344 82.78125 181.003906 L 82.78125 172.972656 C 82.78125 172.355469 83.242188 171.738281 84.015625 171.738281 L 91.429688 171.738281 C 92.046875 171.738281 92.664062 172.199219 92.664062 172.972656 L 92.664062 181.003906 C 92.507812 181.621094 92.046875 182.238281 91.429688 182.238281 Z M 85.097656 179.921875 L 90.191406 179.921875 L 90.191406 174.207031 L 85.097656 174.207031 Z M 85.097656 179.921875 "/>
<path style=" stroke:none;fill-rule:nonzero;fill:rgb(100%,100%,100%);fill-opacity:1;" d="M 96.679688 172.972656 L 104.09375 172.972656 L 104.09375 181.003906 L 96.679688 181.003906 Z M 96.679688 172.972656 "/>
<path style=" stroke:none;fill-rule:nonzero;fill:rgb(13.72549%,12.156863%,12.54902%);fill-opacity:1;" d="M 104.09375 182.238281 L 96.679688 182.238281 C 96.0625 182.238281 95.445312 181.777344 95.445312 181.003906 L 95.445312 172.972656 C 95.445312 172.355469 95.90625 171.738281 96.679688 171.738281 L 104.09375 171.738281 C 104.710938 171.738281 105.328125 172.199219 105.328125 172.972656 L 105.328125 181.003906 C 105.328125 181.621094 104.710938 182.238281 104.09375 182.238281 Z M 97.761719 179.921875 L 102.855469 179.921875 L 102.855469 174.207031 L 97.761719 174.207031 Z M 97.761719 179.921875 "/>
<path style=" stroke:none;fill-rule:nonzero;fill:rgb(100%,100%,100%);fill-opacity:1;" d="M 109.34375 172.972656 L 116.757812 172.972656 L 116.757812 181.003906 L 109.34375 181.003906 Z M 109.34375 172.972656 "/>
<path style=" stroke:none;fill-rule:nonzero;fill:rgb(13.72549%,12.156863%,12.54902%);fill-opacity:1;" d="M 116.910156 182.238281 L 109.5 182.238281 C 108.878906 182.238281 108.261719 181.777344 108.261719 181.003906 L 108.261719 172.972656 C 108.261719 172.355469 108.726562 171.738281 109.5 171.738281 L 116.910156 171.738281 C 117.527344 171.738281 118.148438 172.199219 118.148438 172.972656 L 118.148438 181.003906 C 117.992188 181.621094 117.527344 182.238281 116.910156 182.238281 Z M 110.578125 179.921875 L 115.675781 179.921875 L 115.675781 174.207031 L 110.578125 174.207031 Z M 110.578125 179.921875 "/>
<path style=" stroke:none;fill-rule:nonzero;fill:rgb(100%,100%,100%);fill-opacity:1;" d="M 122.164062 172.972656 L 129.574219 172.972656 L 129.574219 181.003906 L 122.164062 181.003906 Z M 122.164062 172.972656 "/>
<path style=" stroke:none;fill-rule:nonzero;fill:rgb(13.72549%,12.156863%,12.54902%);fill-opacity:1;" d="M 129.574219 182.238281 L 122.164062 182.238281 C 121.542969 182.238281 120.925781 181.777344 120.925781 181.003906 L 120.925781 172.972656 C 120.925781 172.355469 121.390625 171.738281 122.164062 171.738281 L 129.574219 171.738281 C 130.191406 171.738281 130.8125 172.199219 130.8125 172.972656 L 130.8125 181.003906 C 130.8125 181.621094 130.191406 182.238281 129.574219 182.238281 Z M 123.242188 179.921875 L 128.339844 179.921875 L 128.339844 174.207031 L 123.242188 174.207031 Z M 123.242188 179.921875 "/>
<path style=" stroke:none;fill-rule:nonzero;fill:rgb(100%,100%,100%);fill-opacity:1;" d="M 7.414062 185.328125 L 14.828125 185.328125 L 14.828125 193.359375 L 7.414062 193.359375 Z M 7.414062 185.328125 "/>
<path style=" stroke:none;fill-rule:nonzero;fill:rgb(13.72549%,12.156863%,12.54902%);fill-opacity:1;" d="M 14.980469 194.59375 L 7.414062 194.59375 C 6.796875 194.59375 6.175781 194.132812 6.175781 193.359375 L 6.175781 185.328125 C 6.175781 184.710938 6.640625 184.09375 7.414062 184.09375 L 14.828125 184.09375 C 15.445312 184.09375 16.0625 184.554688 16.0625 185.328125 L 16.0625 193.359375 C 16.0625 193.976562 15.597656 194.59375 14.980469 194.59375 Z M 8.648438 192.277344 L 13.746094 192.277344 L 13.746094 186.5625 L 8.648438 186.5625 Z M 8.648438 192.277344 "/>
<path style=" stroke:none;fill-rule:nonzero;fill:rgb(100%,100%,100%);fill-opacity:1;" d="M 20.230469 185.328125 L 78.609375 185.328125 L 78.609375 193.359375 L 20.230469 193.359375 Z M 20.230469 185.328125 "/>
<path style=" stroke:none;fill-rule:nonzero;fill:rgb(13.72549%,12.156863%,12.54902%);fill-opacity:1;" d="M 78.609375 194.59375 L 20.230469 194.59375 C 19.613281 194.59375 18.996094 194.132812 18.996094 193.359375 L 18.996094 185.328125 C 18.996094 184.710938 19.460938 184.09375 20.230469 184.09375 L 78.609375 184.09375 C 79.226562 184.09375 79.84375 184.554688 79.84375 185.328125 L 79.84375 193.359375 C 79.84375 193.976562 79.226562 194.59375 78.609375 194.59375 Z M 21.3125 192.277344 L 77.375 192.277344 L 77.375 186.5625 L 21.3125 186.5625 Z M 21.3125 192.277344 "/>
<path style=" stroke:none;fill-rule:nonzero;fill:rgb(100%,100%,100%);fill-opacity:1;" d="M 83.859375 185.328125 L 91.273438 185.328125 L 91.273438 193.359375 L 83.859375 193.359375 Z M 83.859375 185.328125 "/>
<path style=" stroke:none;fill-rule:nonzero;fill:rgb(13.72549%,12.156863%,12.54902%);fill-opacity:1;" d="M 91.429688 194.59375 L 84.015625 194.59375 C 83.398438 194.59375 82.78125 194.132812 82.78125 193.359375 L 82.78125 185.328125 C 82.78125 184.710938 83.242188 184.09375 84.015625 184.09375 L 91.429688 184.09375 C 92.046875 184.09375 92.664062 184.554688 92.664062 185.328125 L 92.664062 193.359375 C 92.507812 193.976562 92.046875 194.59375 91.429688 194.59375 Z M 85.097656 192.277344 L 90.191406 192.277344 L 90.191406 186.5625 L 85.097656 186.5625 Z M 85.097656 192.277344 "/>
<path style=" stroke:none;fill-rule:nonzero;fill:rgb(100%,100%,100%);fill-opacity:1;" d="M 96.679688 185.328125 L 104.09375 185.328125 L 104.09375 193.359375 L 96.679688 193.359375 Z M 96.679688 185.328125 "/>
<path style=" stroke:none;fill-rule:nonzero;fill:rgb(13.72549%,12.156863%,12.54902%);fill-opacity:1;" d="M 104.09375 194.59375 L 96.679688 194.59375 C 96.0625 194.59375 95.445312 194.132812 95.445312 193.359375 L 95.445312 185.328125 C 95.445312 184.710938 95.90625 184.09375 96.679688 184.09375 L 104.09375 184.09375 C 104.710938 184.09375 105.328125 184.554688 105.328125 185.328125 L 105.328125 193.359375 C 105.328125 193.976562 104.710938 194.59375 104.09375 194.59375 Z M 97.761719 192.277344 L 102.855469 192.277344 L 102.855469 186.5625 L 97.761719 186.5625 Z M 97.761719 192.277344 "/>
<path style=" stroke:none;fill-rule:nonzero;fill:rgb(100%,100%,100%);fill-opacity:1;" d="M 109.34375 185.328125 L 116.757812 185.328125 L 116.757812 193.359375 L 109.34375 193.359375 Z M 109.34375 185.328125 "/>
<path style=" stroke:none;fill-rule:nonzero;fill:rgb(13.72549%,12.156863%,12.54902%);fill-opacity:1;" d="M 116.910156 194.59375 L 109.5 194.59375 C 108.878906 194.59375 108.261719 194.132812 108.261719 193.359375 L 108.261719 185.328125 C 108.261719 184.710938 108.726562 184.09375 109.5 184.09375 L 116.910156 184.09375 C 117.527344 184.09375 118.148438 184.554688 118.148438 185.328125 L 118.148438 193.359375 C 117.992188 193.976562 117.527344 194.59375 116.910156 194.59375 Z M 110.578125 192.277344 L 115.675781 192.277344 L 115.675781 186.5625 L 110.578125 186.5625 Z M 110.578125 192.277344 "/>
<path style=" stroke:none;fill-rule:nonzero;fill:rgb(100%,100%,100%);fill-opacity:1;" d="M 122.164062 185.328125 L 129.574219 185.328125 L 129.574219 193.359375 L 122.164062 193.359375 Z M 122.164062 185.328125 "/>
<path style=" stroke:none;fill-rule:nonzero;fill:rgb(13.72549%,12.156863%,12.54902%);fill-opacity:1;" d="M 129.574219 194.59375 L 122.164062 194.59375 C 121.542969 194.59375 120.925781 194.132812 120.925781 193.359375 L 120.925781 185.328125 C 120.925781 184.710938 121.390625 184.09375 122.164062 184.09375 L 129.574219 184.09375 C 130.191406 184.09375 130.8125 184.554688 130.8125 185.328125 L 130.8125 193.359375 C 130.8125 193.976562 130.191406 194.59375 129.574219 194.59375 Z M 123.242188 192.277344 L 128.339844 192.277344 L 128.339844 186.5625 L 123.242188 186.5625 Z M 123.242188 192.277344 "/>
<path style=" stroke:none;fill-rule:nonzero;fill:rgb(100%,100%,100%);fill-opacity:1;" d="M 164.632812 197.683594 L 163.398438 197.683594 C 155.519531 197.683594 149.035156 191.351562 149.035156 183.320312 L 149.035156 168.804688 C 149.035156 160.925781 155.367188 154.441406 163.398438 154.441406 L 164.632812 154.441406 C 172.507812 154.441406 178.996094 160.773438 178.996094 168.804688 L 178.996094 183.320312 C 178.839844 191.351562 172.507812 197.683594 164.632812 197.683594 Z M 164.632812 197.683594 "/>
<path style=" stroke:none;fill-rule:nonzero;fill:rgb(100%,100%,100%);fill-opacity:1;" d="M 168.03125 166.488281 C 168.03125 168.789062 166.164062 170.65625 163.859375 170.65625 C 161.558594 170.65625 159.691406 168.789062 159.691406 166.488281 C 159.691406 164.183594 161.558594 162.316406 163.859375 162.316406 C 166.164062 162.316406 168.03125 164.183594 168.03125 166.488281 Z M 168.03125 166.488281 "/>
<path style=" stroke:none;fill-rule:nonzero;fill:rgb(13.72549%,12.156863%,12.54902%);fill-opacity:1;" d="M 163.859375 171.738281 C 160.925781 171.738281 158.609375 169.421875 158.609375 166.488281 C 158.609375 163.550781 160.925781 161.234375 163.859375 161.234375 C 166.796875 161.234375 169.113281 163.550781 169.113281 166.488281 C 169.265625 169.421875 166.796875 171.738281 163.859375 171.738281 Z M 163.859375 163.550781 C 162.164062 163.550781 160.925781 164.941406 160.925781 166.488281 C 160.925781 168.183594 162.316406 169.421875 163.859375 169.421875 C 165.558594 169.421875 166.796875 168.03125 166.796875 166.488281 C 166.949219 164.789062 165.558594 163.550781 163.859375 163.550781 Z M 163.859375 163.550781 "/>
<path style=" stroke:none;fill-rule:nonzero;fill:rgb(100%,100%,100%);fill-opacity:1;" d="M 163.859375 154.59375 L 163.859375 148.109375 C 163.859375 145.792969 161.851562 143.785156 159.535156 143.785156 L 150.734375 143.785156 C 148.417969 143.785156 146.410156 141.777344 146.410156 139.460938 C 146.410156 137.144531 148.417969 135.136719 150.734375 135.136719 L 174.515625 135.136719 C 176.832031 135.136719 178.839844 133.128906 178.839844 130.8125 L 178.839844 122.316406 "/>
<path style=" stroke:none;fill-rule:nonzero;fill:rgb(13.72549%,12.156863%,12.54902%);fill-opacity:1;" d="M 14.363281 21.3125 L 18.222656 21.3125 L 18.222656 23.628906 L 14.363281 23.628906 Z M 14.363281 21.3125 "/>
<path style=" stroke:none;fill-rule:nonzero;fill:rgb(13.72549%,12.156863%,12.54902%);fill-opacity:1;" d="M 21.777344 21.3125 L 54.207031 21.3125 L 54.207031 23.628906 L 21.777344 23.628906 Z M 21.777344 21.3125 "/>
<path style=" stroke:none;fill-rule:nonzero;fill:rgb(13.72549%,12.156863%,12.54902%);fill-opacity:1;" d="M 18.070312 27.644531 L 21.929688 27.644531 L 21.929688 29.960938 L 18.070312 29.960938 Z M 18.070312 27.644531 "/>
<path style=" stroke:none;fill-rule:nonzero;fill:rgb(13.72549%,12.156863%,12.54902%);fill-opacity:1;" d="M 25.328125 27.644531 L 57.761719 27.644531 L 57.761719 29.960938 L 25.328125 29.960938 Z M 25.328125 27.644531 "/>
<path style=" stroke:none;fill-rule:nonzero;fill:rgb(13.72549%,12.156863%,12.54902%);fill-opacity:1;" d="M 14.363281 33.976562 L 18.222656 33.976562 L 18.222656 36.292969 L 14.363281 36.292969 Z M 14.363281 33.976562 "/>
<path style=" stroke:none;fill-rule:nonzero;fill:rgb(13.72549%,12.156863%,12.54902%);fill-opacity:1;" d="M 21.777344 33.976562 L 54.207031 33.976562 L 54.207031 36.292969 L 21.777344 36.292969 Z M 21.777344 33.976562 "/>
<path style=" stroke:none;fill-rule:nonzero;fill:rgb(13.72549%,12.156863%,12.54902%);fill-opacity:1;" d="M 18.070312 40.15625 L 21.929688 40.15625 L 21.929688 42.472656 L 18.070312 42.472656 Z M 18.070312 40.15625 "/>
<path style=" stroke:none;fill-rule:nonzero;fill:rgb(13.72549%,12.156863%,12.54902%);fill-opacity:1;" d="M 25.328125 40.15625 L 57.761719 40.15625 L 57.761719 42.472656 L 25.328125 42.472656 Z M 25.328125 40.15625 "/>
<path style=" stroke:none;fill-rule:nonzero;fill:rgb(13.72549%,12.156863%,12.54902%);fill-opacity:1;" d="M 18.378906 46.488281 L 22.238281 46.488281 L 22.238281 48.804688 L 18.378906 48.804688 Z M 18.378906 46.488281 "/>
<path style=" stroke:none;fill-rule:nonzero;fill:rgb(13.72549%,12.156863%,12.54902%);fill-opacity:1;" d="M 25.636719 46.488281 L 58.070312 46.488281 L 58.070312 48.804688 L 25.636719 48.804688 Z M 25.636719 46.488281 "/>
<path style=" stroke:none;fill-rule:nonzero;fill:rgb(13.72549%,12.156863%,12.54902%);fill-opacity:1;" d="M 21.929688 52.820312 L 25.792969 52.820312 L 25.792969 55.136719 L 21.929688 55.136719 Z M 21.929688 52.820312 "/>
<path style=" stroke:none;fill-rule:nonzero;fill:rgb(13.72549%,12.156863%,12.54902%);fill-opacity:1;" d="M 29.34375 52.820312 L 61.777344 52.820312 L 61.777344 55.136719 L 29.34375 55.136719 Z M 29.34375 52.820312 "/>
<path style=" stroke:none;fill-rule:nonzero;fill:rgb(13.72549%,12.156863%,12.54902%);fill-opacity:1;" d="M 14.363281 58.996094 L 18.222656 58.996094 L 18.222656 61.3125 L 14.363281 61.3125 Z M 14.363281 58.996094 "/>
<path style=" stroke:none;fill-rule:nonzero;fill:rgb(13.72549%,12.156863%,12.54902%);fill-opacity:1;" d="M 21.777344 58.996094 L 54.207031 58.996094 L 54.207031 61.3125 L 21.777344 61.3125 Z M 21.777344 58.996094 "/>
<path style=" stroke:none;fill-rule:nonzero;fill:rgb(13.72549%,12.156863%,12.54902%);fill-opacity:1;" d="M 18.070312 65.328125 L 21.929688 65.328125 L 21.929688 67.644531 L 18.070312 67.644531 Z M 18.070312 65.328125 "/>
<path style=" stroke:none;fill-rule:nonzero;fill:rgb(13.72549%,12.156863%,12.54902%);fill-opacity:1;" d="M 25.328125 65.328125 L 57.761719 65.328125 L 57.761719 67.644531 L 25.328125 67.644531 Z M 25.328125 65.328125 "/>
<path style=" stroke:none;fill-rule:nonzero;fill:rgb(13.72549%,12.156863%,12.54902%);fill-opacity:1;" d="M 14.363281 71.660156 L 18.222656 71.660156 L 18.222656 73.976562 L 14.363281 73.976562 Z M 14.363281 71.660156 "/>
<path style=" stroke:none;fill-rule:nonzero;fill:rgb(13.72549%,12.156863%,12.54902%);fill-opacity:1;" d="M 21.777344 71.660156 L 54.207031 71.660156 L 54.207031 73.976562 L 21.777344 73.976562 Z M 21.777344 71.660156 "/>
<path style=" stroke:none;fill-rule:nonzero;fill:rgb(13.72549%,12.156863%,12.54902%);fill-opacity:1;" d="M 18.070312 77.835938 L 21.929688 77.835938 L 21.929688 80.15625 L 18.070312 80.15625 Z M 18.070312 77.835938 "/>
<path style=" stroke:none;fill-rule:nonzero;fill:rgb(13.72549%,12.156863%,12.54902%);fill-opacity:1;" d="M 25.328125 77.835938 L 57.761719 77.835938 L 57.761719 80.15625 L 25.328125 80.15625 Z M 25.328125 77.835938 "/>
<path style=" stroke:none;fill-rule:nonzero;fill:rgb(13.72549%,12.156863%,12.54902%);fill-opacity:1;" d="M 18.378906 84.167969 L 22.238281 84.167969 L 22.238281 86.488281 L 18.378906 86.488281 Z M 18.378906 84.167969 "/>
<path style=" stroke:none;fill-rule:nonzero;fill:rgb(13.72549%,12.156863%,12.54902%);fill-opacity:1;" d="M 25.636719 84.167969 L 58.070312 84.167969 L 58.070312 86.488281 L 25.636719 86.488281 Z M 25.636719 84.167969 "/>
<path style=" stroke:none;fill-rule:nonzero;fill:rgb(13.72549%,12.156863%,12.54902%);fill-opacity:1;" d="M 21.929688 90.5 L 25.792969 90.5 L 25.792969 92.820312 L 21.929688 92.820312 Z M 21.929688 90.5 "/>
<path style=" stroke:none;fill-rule:nonzero;fill:rgb(13.72549%,12.156863%,12.54902%);fill-opacity:1;" d="M 29.34375 90.5 L 61.777344 90.5 L 61.777344 92.820312 L 29.34375 92.820312 Z M 29.34375 90.5 "/>
<path style=" stroke:none;fill-rule:nonzero;fill:rgb(100%,100%,100%);fill-opacity:1;" d="M 74.441406 99.769531 L 101.3125 73.050781 L 114.59375 86.175781 L 135.90625 64.863281 L 149.808594 78.917969 L 185.945312 42.78125 "/>
<path style=" stroke:none;fill-rule:nonzero;fill:rgb(100%,100%,100%);fill-opacity:1;" d="M 155.058594 78.300781 C 155.058594 81.117188 152.777344 83.398438 149.960938 83.398438 C 147.148438 83.398438 144.863281 81.117188 144.863281 78.300781 C 144.863281 75.488281 147.148438 73.203125 149.960938 73.203125 C 152.777344 73.203125 155.058594 75.488281 155.058594 78.300781 Z M 155.058594 78.300781 "/>
<path style=" stroke:none;fill-rule:nonzero;fill:rgb(100%,43.921569%,34.509804%);fill-opacity:1;" d="M 151.816406 78.300781 C 151.816406 79.324219 150.984375 80.15625 149.960938 80.15625 C 148.9375 80.15625 148.109375 79.324219 148.109375 78.300781 C 148.109375 77.277344 148.9375 76.449219 149.960938 76.449219 C 150.984375 76.449219 151.816406 77.277344 151.816406 78.300781 Z M 151.816406 78.300781 "/>
<path style=" stroke:none;fill-rule:nonzero;fill:rgb(100%,100%,100%);fill-opacity:1;" d="M 106.253906 73.667969 C 106.253906 76.484375 103.972656 78.765625 101.160156 78.765625 C 98.34375 78.765625 96.0625 76.484375 96.0625 73.667969 C 96.0625 70.851562 98.34375 68.570312 101.160156 68.570312 C 103.972656 68.570312 106.253906 70.851562 106.253906 73.667969 Z M 106.253906 73.667969 "/>
<path style=" stroke:none;fill-rule:nonzero;fill:rgb(13.72549%,12.156863%,12.54902%);fill-opacity:1;" d="M 185.945312 12.972656 L 5.097656 12.972656 C 4.480469 12.972656 3.859375 13.4375 3.859375 14.207031 L 3.859375 122.316406 C 3.859375 122.933594 4.324219 123.550781 5.097656 123.550781 L 68.878906 123.550781 L 68.878906 138.996094 L 52.972656 138.996094 C 52.355469 138.996094 51.738281 139.460938 51.738281 140.230469 L 51.738281 146.871094 C 51.738281 147.492188 52.199219 148.109375 52.972656 148.109375 L 138.222656 148.109375 C 138.839844 148.109375 139.460938 147.644531 139.460938 146.871094 L 139.460938 140.230469 C 139.460938 139.613281 138.996094 138.996094 138.222656 138.996094 L 122.164062 138.996094 L 122.164062 123.550781 L 177.605469 123.550781 L 177.605469 130.964844 C 177.605469 132.664062 176.214844 134.207031 174.363281 134.207031 L 150.734375 134.207031 C 147.644531 134.207031 145.171875 136.679688 145.171875 139.769531 C 145.171875 142.855469 147.644531 145.328125 150.734375 145.328125 L 159.535156 145.328125 C 161.234375 145.328125 162.78125 146.71875 162.78125 148.570312 L 162.78125 153.976562 C 154.441406 154.285156 147.800781 161.082031 147.800781 169.421875 L 147.800781 183.9375 C 147.800781 192.433594 154.75 199.382812 163.242188 199.382812 L 164.480469 199.382812 C 172.972656 199.382812 179.921875 192.433594 179.921875 183.9375 L 179.921875 169.421875 C 179.921875 161.082031 173.28125 154.285156 164.941406 153.976562 L 164.941406 148.570312 C 164.941406 145.484375 162.472656 143.011719 159.382812 143.011719 L 150.578125 143.011719 C 148.878906 143.011719 147.335938 141.621094 147.335938 139.769531 C 147.335938 138.070312 148.726562 136.523438 150.578125 136.523438 L 174.515625 136.523438 C 177.605469 136.523438 180.078125 134.054688 180.078125 130.964844 L 180.078125 123.550781 L 186.101562 123.550781 C 186.71875 123.550781 187.335938 123.089844 187.335938 122.316406 L 187.335938 14.207031 C 187.179688 13.4375 186.5625 12.972656 185.945312 12.972656 Z M 164.632812 155.832031 C 171.890625 155.832031 177.761719 161.699219 177.761719 168.957031 L 177.761719 183.476562 C 177.761719 190.734375 171.890625 196.601562 164.632812 196.601562 L 163.398438 196.601562 C 156.140625 196.601562 150.269531 190.734375 150.269531 183.476562 L 150.269531 168.957031 C 150.269531 161.699219 156.140625 155.832031 163.398438 155.832031 Z M 136.988281 141.160156 L 136.988281 145.484375 L 54.054688 145.484375 L 54.054688 141.160156 Z M 71.195312 138.839844 L 71.195312 123.398438 L 119.84375 123.398438 L 119.84375 138.839844 Z M 184.863281 121.082031 L 6.175781 121.082031 L 6.175781 101.003906 L 184.710938 101.003906 L 184.710938 121.082031 Z M 184.863281 98.53125 L 77.375 98.53125 L 97.453125 78.457031 C 98.53125 79.226562 99.769531 79.84375 101.3125 79.84375 C 102.855469 79.84375 104.09375 79.226562 105.171875 78.457031 L 113.824219 87.105469 C 114.285156 87.566406 115.058594 87.566406 115.519531 87.105469 L 135.90625 66.5625 L 144.554688 75.210938 C 144.09375 76.140625 143.628906 77.21875 143.628906 78.300781 C 143.628906 81.699219 146.410156 84.632812 149.960938 84.632812 C 153.359375 84.632812 156.292969 81.851562 156.292969 78.300781 C 156.292969 77.21875 155.984375 76.140625 155.367188 75.210938 L 184.863281 45.714844 Z M 101.160156 77.527344 C 98.996094 77.527344 97.144531 75.832031 97.144531 73.511719 C 97.144531 71.351562 98.839844 69.5 101.160156 69.5 C 103.320312 69.5 105.171875 71.195312 105.171875 73.511719 C 105.171875 75.832031 103.320312 77.527344 101.160156 77.527344 Z M 153.824219 78.300781 C 153.824219 80.464844 152.125 82.316406 149.808594 82.316406 C 147.644531 82.316406 145.792969 80.617188 145.792969 78.300781 C 145.792969 76.140625 147.492188 74.285156 149.808594 74.285156 C 152.125 74.285156 153.824219 75.984375 153.824219 78.300781 Z M 184.863281 42.316406 L 153.824219 73.359375 C 152.742188 72.433594 151.351562 71.96875 149.960938 71.96875 C 148.417969 71.96875 147.179688 72.433594 146.101562 73.359375 L 136.832031 64.09375 C 136.371094 63.628906 135.597656 63.628906 135.136719 64.09375 L 114.59375 84.632812 L 106.5625 76.757812 C 107.027344 75.832031 107.335938 74.75 107.335938 73.667969 C 107.335938 70.269531 104.554688 67.335938 101.003906 67.335938 C 97.605469 67.335938 94.671875 70.117188 94.671875 73.667969 C 94.671875 74.902344 94.980469 75.984375 95.597656 76.910156 L 74.132812 98.53125 L 6.175781 98.53125 L 6.175781 15.136719 L 184.710938 15.136719 L 184.710938 42.316406 Z M 184.863281 42.316406 "/>
<path style=" stroke:none;fill-rule:nonzero;fill:rgb(100%,43.921569%,34.509804%);fill-opacity:1;" d="M 103.011719 73.667969 C 103.011719 74.691406 102.183594 75.519531 101.160156 75.519531 C 100.132812 75.519531 99.304688 74.691406 99.304688 73.667969 C 99.304688 72.644531 100.132812 71.816406 101.160156 71.816406 C 102.183594 71.816406 103.011719 72.644531 103.011719 73.667969 Z M 103.011719 73.667969 "/>
<path style=" stroke:none;fill-rule:nonzero;fill:rgb(13.72549%,12.156863%,12.54902%);fill-opacity:1;" d="M 143.628906 22.546875 L 145.945312 22.546875 L 145.945312 45.867188 L 143.628906 45.867188 Z M 143.628906 22.546875 "/>
<path style=" stroke:none;fill-rule:nonzero;fill:rgb(13.72549%,12.156863%,12.54902%);fill-opacity:1;" d="M 137.296875 28.726562 L 139.613281 28.726562 L 139.613281 45.867188 L 137.296875 45.867188 Z M 137.296875 28.726562 "/>
<path style=" stroke:none;fill-rule:nonzero;fill:rgb(13.72549%,12.156863%,12.54902%);fill-opacity:1;" d="M 130.964844 35.058594 L 133.28125 35.058594 L 133.28125 45.867188 L 130.964844 45.867188 Z M 130.964844 35.058594 "/>
<path style=" stroke:none;fill-rule:nonzero;fill:rgb(13.72549%,12.156863%,12.54902%);fill-opacity:1;" d="M 124.632812 31.660156 L 126.949219 31.660156 L 126.949219 45.867188 L 124.632812 45.867188 Z M 124.632812 31.660156 "/>
<path style=" stroke:none;fill-rule:nonzero;fill:rgb(13.72549%,12.156863%,12.54902%);fill-opacity:1;" d="M 118.300781 27.179688 L 120.617188 27.179688 L 120.617188 45.867188 L 118.300781 45.867188 Z M 118.300781 27.179688 "/>
<path style=" stroke:none;fill-rule:nonzero;fill:rgb(13.72549%,12.156863%,12.54902%);fill-opacity:1;" d="M 80.773438 41.082031 C 80.464844 41.082031 80.15625 40.925781 80 40.773438 C 79.535156 40.308594 79.535156 39.535156 80 39.074219 L 82.007812 37.066406 C 82.472656 36.601562 83.242188 36.601562 83.707031 37.066406 C 84.167969 37.527344 84.167969 38.300781 83.707031 38.765625 L 81.699219 40.773438 C 81.390625 40.925781 81.082031 41.082031 80.773438 41.082031 Z M 80.773438 41.082031 "/>
<path style=" stroke:none;fill-rule:nonzero;fill:rgb(13.72549%,12.156863%,12.54902%);fill-opacity:1;" d="M 74.285156 47.566406 C 73.976562 47.566406 73.667969 47.414062 73.511719 47.257812 C 73.050781 46.796875 73.050781 46.023438 73.511719 45.558594 L 75.519531 43.550781 C 75.984375 43.089844 76.757812 43.089844 77.21875 43.550781 C 77.683594 44.015625 77.683594 44.789062 77.21875 45.25 L 75.210938 47.257812 C 74.902344 47.414062 74.59375 47.566406 74.285156 47.566406 Z M 74.285156 47.566406 "/>
<path style=" stroke:none;fill-rule:nonzero;fill:rgb(13.72549%,12.156863%,12.54902%);fill-opacity:1;" d="M 82.933594 47.566406 C 82.625 47.566406 82.316406 47.414062 82.164062 47.257812 L 80.15625 45.25 C 79.691406 44.789062 79.691406 44.015625 80.15625 43.550781 C 80.617188 43.089844 81.390625 43.089844 81.851562 43.550781 L 83.859375 45.558594 C 84.324219 46.023438 84.324219 46.796875 83.859375 47.257812 C 83.550781 47.414062 83.242188 47.566406 82.933594 47.566406 Z M 82.933594 47.566406 "/>
<path style=" stroke:none;fill-rule:nonzero;fill:rgb(13.72549%,12.156863%,12.54902%);fill-opacity:1;" d="M 76.449219 41.082031 C 76.140625 41.082031 75.832031 40.925781 75.675781 40.773438 L 73.511719 38.609375 C 73.050781 38.148438 73.050781 37.375 73.511719 36.910156 C 73.976562 36.449219 74.75 36.449219 75.210938 36.910156 L 77.21875 38.917969 C 77.683594 39.382812 77.683594 40.15625 77.21875 40.617188 C 77.066406 40.925781 76.757812 41.082031 76.449219 41.082031 Z M 76.449219 41.082031 "/>
</g>
</svg>
