<?xml version="1.0" encoding="utf-8"?>
<!-- Generator: Adobe Illustrator 18.0.0, SVG Export Plug-In . SVG Version: 6.00 Build 0)  -->
<!DOCTYPE svg PUBLIC "-//W3C//DTD SVG 1.1//EN" "http://www.w3.org/Graphics/SVG/1.1/DTD/svg11.dtd">
<svg version="1.1" id="Layer_1" xmlns="http://www.w3.org/2000/svg" xmlns:xlink="http://www.w3.org/1999/xlink" x="0px" y="0px"
	 viewBox="0 0 129.5 129.5" enable-background="new 0 0 129.5 129.5" xml:space="preserve">
<g>
	<g>
		<g>
			<path fill="#231F20" d="M121.8,12.4c-0.2,0-0.4-0.1-0.5-0.2c-0.3-0.3-0.3-0.8,0-1.1l1.3-1.3c0.3-0.3,0.8-0.3,1.1,0
				c0.3,0.3,0.3,0.8,0,1.1l-1.3,1.3C122.2,12.3,122,12.4,121.8,12.4z"/>
		</g>
		<g>
			<path fill="#231F20" d="M117.7,16.4c-0.2,0-0.4-0.1-0.5-0.2c-0.3-0.3-0.3-0.8,0-1.1l1.3-1.3c0.3-0.3,0.8-0.3,1.1,0
				c0.3,0.3,0.3,0.8,0,1.1l-1.3,1.3C118.1,16.3,117.9,16.4,117.7,16.4z"/>
		</g>
		<g>
			<path fill="#231F20" d="M123.1,16.4c-0.2,0-0.4-0.1-0.5-0.2l-1.3-1.3c-0.3-0.3-0.3-0.8,0-1.1c0.3-0.3,0.8-0.3,1.1,0l1.3,1.3
				c0.3,0.3,0.3,0.8,0,1.1C123.4,16.3,123.3,16.4,123.1,16.4z"/>
		</g>
		<g>
			<path fill="#231F20" d="M119,12.4c-0.2,0-0.4-0.1-0.5-0.2l-1.3-1.3c-0.3-0.3-0.3-0.8,0-1.1c0.3-0.3,0.8-0.3,1.1,0l1.3,1.3
				c0.3,0.3,0.3,0.8,0,1.1C119.4,12.3,119.2,12.4,119,12.4z"/>
		</g>
		<polygon fill="#FFD05B" points="126.7,77.7 126.7,126.6 2.7,126.6 2.7,77.7 12.8,89 116.7,89 		"/>
		<rect x="17.8" y="0.9" fill="#FFFFFF" width="86.2" height="86.1"/>
		<rect x="26" y="9" fill="#FFFFFF" width="86.2" height="77.9"/>
		<rect x="26" y="9.1" fill="#FFFFFF" width="86.2" height="12.3"/>
		<path fill="#231F20" d="M129.3,72L129.3,72l-12.9-14.5c-0.1-0.2-0.3-0.3-0.6-0.3h-2.9V21.3V9.1c0-0.4-0.3-0.8-0.8-0.8h-7.4V0.9
			c0-0.4-0.3-0.7-0.8-0.7H17.8c-0.4,0-0.8,0.3-0.8,0.7v56.3h-3.4c-0.2,0-0.4,0.1-0.6,0.3L0.2,72l0,0C0.1,72.1,0,72.3,0,72.5v56.2
			c0,0.4,0.3,0.8,0.8,0.8h128c0.4,0,0.8-0.3,0.8-0.8V72.5C129.5,72.3,129.4,72.1,129.3,72z M115.5,58.7l11.6,13l0,0h-14.2v-13H115.5
			z M127.1,73.2l-11.6,13h-2.6v-13H127.1z M26.8,22.1h84.7v64.2H26.8V22.1z M111.4,9.8v10.8H26.8V9.8H111.4z M103.2,1.6v6.7H26
			c-0.4,0-0.8,0.3-0.8,0.8v12.3v64.9h-6.7V1.6H103.2z M17.1,86.2h-3l-11.6-13h14.6V86.2z M2.4,71.7l11.6-13h3v13L2.4,71.7L2.4,71.7z
			 M128,127.9H1.5V74.4l11.6,13c0.1,0.2,0.3,0.3,0.6,0.3h102.1c0.2,0,0.4-0.1,0.6-0.3l11.6-13V127.9z"/>
		<circle fill="#FFFFFF" cx="103.9" cy="15.2" r="2.2"/>
		<path fill="#231F20" d="M103.9,18.1c-1.6,0-3-1.3-3-3c0-1.6,1.3-3,3-3s3,1.3,3,3C106.8,16.8,105.5,18.1,103.9,18.1z M103.9,13.7
			c-0.8,0-1.5,0.7-1.5,1.5c0,0.8,0.7,1.5,1.5,1.5c0.8,0,1.5-0.7,1.5-1.5C105.3,14.4,104.7,13.7,103.9,13.7z"/>
		<circle fill="#FFFFFF" cx="95.6" cy="15.2" r="2.2"/>
		<path fill="#231F20" d="M95.6,18.1c-1.6,0-3-1.3-3-3c0-1.6,1.3-3,3-3c1.6,0,3,1.3,3,3C98.5,16.8,97.2,18.1,95.6,18.1z M95.6,13.7
			c-0.8,0-1.5,0.7-1.5,1.5c0,0.8,0.7,1.5,1.5,1.5c0.8,0,1.5-0.7,1.5-1.5C97,14.4,96.4,13.7,95.6,13.7z"/>
		<circle fill="#FFFFFF" cx="87.3" cy="15.2" r="2.2"/>
		<path fill="#231F20" d="M87.3,18.1c-1.6,0-3-1.3-3-3c0-1.6,1.3-3,3-3s3,1.3,3,3C90.2,16.8,88.9,18.1,87.3,18.1z M87.3,13.7
			c-0.8,0-1.5,0.7-1.5,1.5c0,0.8,0.7,1.5,1.5,1.5c0.8,0,1.5-0.7,1.5-1.5C88.7,14.4,88.1,13.7,87.3,13.7z"/>
		<circle fill="#FFFFFF" cx="79" cy="15.2" r="2.2"/>
		<path fill="#231F20" d="M79,18.1c-1.6,0-3-1.3-3-3c0-1.6,1.3-3,3-3c1.6,0,3,1.3,3,3C82,16.8,80.6,18.1,79,18.1z M79,13.7
			c-0.8,0-1.5,0.7-1.5,1.5c0,0.8,0.7,1.5,1.5,1.5c0.8,0,1.5-0.7,1.5-1.5C80.5,14.4,79.8,13.7,79,13.7z"/>
		<circle fill="#84DBFF" cx="69.1" cy="54.1" r="15.1"/>
		<path fill="#231F20" d="M69.1,73.2c-10.6,0-19.2-8.6-19.2-19.2h1.5c0,9.8,7.9,17.7,17.7,17.7c9.8,0,17.7-7.9,17.7-17.7
			s-7.9-17.7-17.7-17.7v-1.5c10.6,0,19.2,8.6,19.2,19.2S79.7,73.2,69.1,73.2z"/>
		<path fill="#231F20" d="M51.4,54.1h-1.5c0-0.3,0-0.7,0-1l1.5,0.1C51.4,53.4,51.4,53.7,51.4,54.1z M51.6,51.2l-1.5-0.2
			c0.1-0.3,0.1-0.7,0.2-1l1.5,0.3C51.7,50.6,51.7,50.9,51.6,51.2z M52.3,48.4l-1.4-0.5c0.1-0.3,0.2-0.7,0.4-1l1.4,0.6
			C52.5,47.8,52.4,48.1,52.3,48.4z M53.5,45.8l-1.3-0.7c0.2-0.3,0.3-0.6,0.5-0.9l1.3,0.8C53.8,45.2,53.6,45.5,53.5,45.8z M55,43.3
			l-1.2-0.9c0.2-0.3,0.4-0.5,0.7-0.8l1.1,1C55.4,42.8,55.2,43.1,55,43.3z M56.9,41.2l-1-1.1c0.3-0.2,0.5-0.5,0.8-0.7l1,1.1
			C57.4,40.8,57.2,41,56.9,41.2z M59.2,39.4l-0.8-1.2c0.3-0.2,0.6-0.4,0.9-0.6l0.8,1.3C59.7,39,59.4,39.2,59.2,39.4z M61.7,38
			L61,36.6c0.3-0.1,0.6-0.3,1-0.4l0.6,1.4C62.3,37.7,62,37.9,61.7,38z M64.4,37L64,35.6c0.3-0.1,0.7-0.2,1-0.2l0.3,1.5
			C65,36.8,64.7,36.9,64.4,37z M67.2,36.5L67,35c0.3,0,0.7-0.1,1-0.1l0.1,1.5C67.8,36.4,67.5,36.4,67.2,36.5z"/>
		<path fill="#231F20" d="M65,61.4c-0.2,0-0.4-0.1-0.5-0.2l-5-5l1.1-1.1l4.5,4.5l12.7-12.7l1.1,1.1L65.5,61.2
			C65.4,61.3,65.2,61.4,65,61.4z"/>
		<g>
			<path fill="#FFFFFF" d="M103.4,102.8h-8.1c-0.4,0-0.8-0.3-0.8-0.8c0-0.4,0.3-0.8,0.8-0.8h8.1c0.4,0,0.8,0.3,0.8,0.8
				C104.1,102.4,103.8,102.8,103.4,102.8z"/>
		</g>
		<g>
			<path fill="#FFFFFF" d="M96,99.8L96,99.8l-4,0c-0.4,0-0.8-0.3-0.8-0.8s0.3-0.8,0.8-0.8l0,0l4,0c0.4,0,0.8,0.3,0.8,0.8
				C96.8,99.5,96.4,99.8,96,99.8z"/>
		</g>
		<g>
			<path fill="#FFFFFF" d="M91.6,102.8h-3.8c-0.4,0-0.8-0.3-0.8-0.8c0-0.4,0.3-0.8,0.8-0.8h3.8c0.4,0,0.8,0.3,0.8,0.8
				C92.3,102.4,92,102.8,91.6,102.8z"/>
		</g>
		<g>
			<path fill="#FFFFFF" d="M99.7,99.8h-0.8c-0.4,0-0.8-0.3-0.8-0.8c0-0.4,0.3-0.8,0.8-0.8h0.8c0.4,0,0.8,0.3,0.8,0.8
				C100.4,99.5,100.1,99.8,99.7,99.8z"/>
		</g>
		<g>
			<path fill="#FFFFFF" d="M33.8,118.5h-8.1c-0.4,0-0.7-0.3-0.7-0.8c0-0.4,0.3-0.8,0.7-0.8h8.1c0.4,0,0.8,0.3,0.8,0.8
				C34.5,118.2,34.2,118.5,33.8,118.5z"/>
		</g>
		<g>
			<path fill="#FFFFFF" d="M26.5,115.6h-4c-0.4,0-0.8-0.3-0.8-0.8c0-0.4,0.3-0.8,0.8-0.8h4c0.4,0,0.8,0.3,0.8,0.8
				C27.2,115.2,26.9,115.6,26.5,115.6z"/>
		</g>
		<g>
			<path fill="#FFFFFF" d="M22,118.5h-3.8c-0.4,0-0.8-0.3-0.8-0.8c0-0.4,0.3-0.8,0.8-0.8H22c0.4,0,0.8,0.3,0.8,0.8
				C22.8,118.2,22.4,118.5,22,118.5z"/>
		</g>
		<g>
			<path fill="#FFFFFF" d="M30.1,115.6h-0.8c-0.4,0-0.8-0.3-0.8-0.8c0-0.4,0.3-0.8,0.8-0.8h0.8c0.4,0,0.8,0.3,0.8,0.8
				C30.9,115.2,30.5,115.6,30.1,115.6z"/>
		</g>
		<circle fill="#FF7058" cx="120.1" cy="36.6" r="2.4"/>
		<circle fill="#84DBFF" cx="10.1" cy="48" r="2.4"/>
		<circle fill="#E6E9EE" cx="7.7" cy="11.6" r="2.4"/>
		<path fill="#231F20" d="M40,33.6c-0.2,0-0.4-0.1-0.5-0.2c-0.3-0.3-0.3-0.8,0-1.1l1.3-1.3c0.3-0.3,0.8-0.3,1.1,0
			c0.3,0.3,0.3,0.8,0,1.1l-1.3,1.3C40.4,33.6,40.2,33.6,40,33.6z"/>
		<path fill="#231F20" d="M36,37.7c-0.2,0-0.4-0.1-0.5-0.2c-0.3-0.3-0.3-0.8,0-1.1l1.3-1.3c0.3-0.3,0.8-0.3,1.1,0
			c0.3,0.3,0.3,0.8,0,1.1l-1.3,1.3C36.4,37.6,36.2,37.7,36,37.7z"/>
		<path fill="#231F20" d="M41.3,37.7c-0.2,0-0.4-0.1-0.5-0.2l-1.3-1.3c-0.3-0.3-0.3-0.8,0-1.1c0.3-0.3,0.8-0.3,1.1,0l1.3,1.3
			c0.3,0.3,0.3,0.8,0,1.1C41.7,37.6,41.5,37.7,41.3,37.7z"/>
		<path fill="#231F20" d="M37.3,33.6c-0.2,0-0.4-0.1-0.5-0.2l-1.3-1.3c-0.3-0.3-0.3-0.8,0-1.1c0.3-0.3,0.8-0.3,1.1,0l1.3,1.3
			c0.3,0.3,0.3,0.8,0,1.1C37.6,33.6,37.5,33.6,37.3,33.6z"/>
		<path fill="#231F20" d="M95.4,71.9c-0.2,0-0.4-0.1-0.5-0.2c-0.3-0.3-0.3-0.8,0-1.1l1.3-1.3c0.3-0.3,0.8-0.3,1.1,0
			c0.3,0.3,0.3,0.8,0,1.1L96,71.7C95.8,71.8,95.6,71.9,95.4,71.9z"/>
		<path fill="#231F20" d="M91.4,75.9c-0.2,0-0.4-0.1-0.5-0.2c-0.3-0.3-0.3-0.8,0-1.1l1.3-1.3c0.3-0.3,0.8-0.3,1.1,0
			c0.3,0.3,0.3,0.8,0,1.1l-1.3,1.3C91.8,75.8,91.6,75.9,91.4,75.9z"/>
		<path fill="#231F20" d="M96.7,75.9c-0.2,0-0.4-0.1-0.5-0.2l-1.3-1.3c-0.3-0.3-0.3-0.8,0-1.1c0.3-0.3,0.8-0.3,1.1,0l1.3,1.3
			c0.3,0.3,0.3,0.8,0,1.1C97.1,75.8,96.9,75.9,96.7,75.9z"/>
		<path fill="#231F20" d="M92.7,71.9c-0.2,0-0.4-0.1-0.5-0.2l-1.3-1.3c-0.3-0.3-0.3-0.8,0-1.1c0.3-0.3,0.8-0.3,1.1,0l1.3,1.3
			c0.3,0.3,0.3,0.8,0,1.1C93.1,71.8,92.9,71.9,92.7,71.9z"/>
		<circle fill="#E6E9EE" cx="99.7" cy="32.9" r="2.2"/>
		<circle fill="#84DBFF" cx="41.3" cy="73.9" r="2.2"/>
	</g>
</g>
</svg>
