<?xml version="1.0" encoding="utf-8"?>
<!-- Generator: Adobe Illustrator 18.0.0, SVG Export Plug-In . SVG Version: 6.00 Build 0)  -->
<!DOCTYPE svg PUBLIC "-//W3C//DTD SVG 1.1//EN" "http://www.w3.org/Graphics/SVG/1.1/DTD/svg11.dtd">
<svg version="1.1" id="Layer_1" xmlns="http://www.w3.org/2000/svg" xmlns:xlink="http://www.w3.org/1999/xlink" x="0px" y="0px"
	 viewBox="0 0 129.5 129.5" enable-background="new 0 0 129.5 129.5" xml:space="preserve">
<g>
	<g>
		<circle fill="#FFFFFF" cx="66.8" cy="60" r="19.6"/>
		<circle fill="#FF7058" cx="66.8" cy="60" r="12.1"/>
		<circle fill="#FFFFFF" cx="109.2" cy="17.6" r="16.8"/>
		<circle fill="#84DBFF" cx="109.2" cy="17.6" r="10.4"/>
		<circle fill="#FFFFFF" cx="109.2" cy="107.7" r="19.6"/>
		<circle fill="#E6E9EE" cx="109.2" cy="107.7" r="12.1"/>
		<circle fill="#FFFFFF" cx="19" cy="104.5" r="16.8"/>
		<circle fill="#84DBFF" cx="19" cy="104.5" r="10.4"/>
		<circle fill="#FFFFFF" cx="19" cy="24.2" r="16.3"/>
		<path fill="#231F20" d="M109.2,87.4c-5.3,0-10.1,2-13.7,5.3L80.5,74.9c4.1-3.7,6.6-9,6.6-15c0-5.3-2.1-10.2-5.4-13.8l15.7-15.7
			c3.1,2.9,7.3,4.6,11.9,4.6c9.7,0,17.6-7.9,17.6-17.6c0-9.7-7.9-17.6-17.6-17.6c-9.7,0-17.6,7.9-17.6,17.6c0,4.6,1.8,8.7,4.6,11.9
			L80.6,45.1c-3.6-3.4-8.5-5.4-13.8-5.4c-6.4,0-12.1,3-15.8,7.6L33.1,33.8c1.9-2.7,3-6.1,3-9.6c0-9.4-7.7-17.1-17.1-17.1
			S1.9,14.8,1.9,24.2S9.6,41.3,19,41.3c5.3,0,10.1-2.4,13.2-6.3l17.9,13.4c-2.3,3.3-3.6,7.3-3.6,11.6c0,5.1,1.9,9.7,5,13.3L31.3,92
			c-3.2-3.1-7.5-5-12.3-5c-9.7,0-17.5,7.9-17.5,17.5c0,9.7,7.9,17.5,17.5,17.5c9.7,0,17.5-7.9,17.5-17.5c0-4.3-1.6-8.3-4.2-11.4
			l20.1-18.8c3.7,3.7,8.7,5.9,14.3,5.9c4.7,0,9.1-1.6,12.5-4.4l15.1,17.8c-3.4,3.6-5.6,8.5-5.6,13.9c0,11.2,9.1,20.3,20.3,20.3
			c11.2,0,20.3-9.1,20.3-20.3C129.5,96.5,120.4,87.4,109.2,87.4z M109.2,1.5c8.9,0,16.1,7.2,16.1,16.1c0,8.9-7.2,16.1-16.1,16.1
			c-8.9,0-16.1-7.2-16.1-16.1C93.1,8.7,100.3,1.5,109.2,1.5z M19,39.8c-8.6,0-15.6-7-15.6-15.6S10.4,8.6,19,8.6
			c8.6,0,15.6,7,15.6,15.6S27.6,39.8,19,39.8z M35.1,104.5c0,8.8-7.2,16-16,16c-8.8,0-16-7.2-16-16c0-8.8,7.2-16,16-16
			C27.9,88.5,35.1,95.7,35.1,104.5z M66.8,78.8C56.4,78.8,48,70.3,48,60c0-10.4,8.4-18.8,18.8-18.8c10.4,0,18.8,8.4,18.8,18.8
			C85.6,70.3,77.2,78.8,66.8,78.8z M109.2,126.5c-10.4,0-18.8-8.4-18.8-18.8c0-10.4,8.4-18.8,18.8-18.8c10.4,0,18.8,8.4,18.8,18.8
			C128,118.1,119.6,126.5,109.2,126.5z"/>
		<circle fill="#FFD05B" cx="19" cy="24.2" r="10.1"/>
		<path fill="#231F20" d="M71,8c-0.2,0-0.4-0.1-0.5-0.2c-0.3-0.3-0.3-0.8,0-1.1l1.4-1.4c0.3-0.3,0.8-0.3,1.1,0
			c0.3,0.3,0.3,0.8,0,1.1l-1.4,1.4C71.4,7.9,71.2,8,71,8z"/>
		<path fill="#231F20" d="M66.8,12.2c-0.2,0-0.4-0.1-0.5-0.2c-0.3-0.3-0.3-0.8,0-1.1l1.4-1.4c0.3-0.3,0.8-0.3,1.1,0
			c0.3,0.3,0.3,0.8,0,1.1L67.3,12C67.2,12.1,67,12.2,66.8,12.2z"/>
		<path fill="#231F20" d="M72.4,12.2c-0.2,0-0.4-0.1-0.5-0.2l-1.4-1.4c-0.3-0.3-0.3-0.8,0-1.1c0.3-0.3,0.8-0.3,1.1,0l1.4,1.4
			c0.3,0.3,0.3,0.8,0,1.1C72.8,12.1,72.6,12.2,72.4,12.2z"/>
		<path fill="#231F20" d="M68.1,8c-0.2,0-0.4-0.1-0.5-0.2l-1.4-1.4c-0.3-0.3-0.3-0.8,0-1.1C66.5,5,67,5,67.3,5.3l1.4,1.4
			C69,7,69,7.5,68.7,7.8C68.5,7.9,68.3,8,68.1,8z"/>
		<path fill="#231F20" d="M13.2,59.3c-0.2,0-0.4-0.1-0.5-0.2c-0.3-0.3-0.3-0.8,0-1.1l1.4-1.4c0.3-0.3,0.8-0.3,1.1,0
			c0.3,0.3,0.3,0.8,0,1.1l-1.4,1.4C13.5,59.2,13.4,59.3,13.2,59.3z"/>
		<path fill="#231F20" d="M8.9,63.5c-0.2,0-0.4-0.1-0.5-0.2c-0.3-0.3-0.3-0.8,0-1.1l1.4-1.4c0.3-0.3,0.8-0.3,1.1,0
			c0.3,0.3,0.3,0.8,0,1.1l-1.4,1.4C9.3,63.4,9.1,63.5,8.9,63.5z"/>
		<path fill="#231F20" d="M14.5,63.5c-0.2,0-0.4-0.1-0.5-0.2l-1.4-1.4c-0.3-0.3-0.3-0.8,0-1.1c0.3-0.3,0.8-0.3,1.1,0l1.4,1.4
			c0.3,0.3,0.3,0.8,0,1.1C14.9,63.4,14.7,63.5,14.5,63.5z"/>
		<path fill="#231F20" d="M10.3,59.3c-0.2,0-0.4-0.1-0.5-0.2l-1.4-1.4c-0.3-0.3-0.3-0.8,0-1.1c0.3-0.3,0.8-0.3,1.1,0l1.4,1.4
			c0.3,0.3,0.3,0.8,0,1.1C10.7,59.2,10.5,59.3,10.3,59.3z"/>
		<g>
			<path fill="#231F20" d="M61.9,114.2c0.2,0,0.4-0.1,0.5-0.2l1.4-1.4c0.3-0.3,0.3-0.8,0-1.1c-0.3-0.3-0.8-0.3-1.1,0l-1.4,1.4
				c-0.3,0.3-0.3,0.8,0,1.1C61.5,114.1,61.7,114.2,61.9,114.2z"/>
			<path fill="#231F20" d="M58.5,115.8l-1.4,1.4c-0.3,0.3-0.3,0.8,0,1.1c0.1,0.1,0.3,0.2,0.5,0.2c0.2,0,0.4-0.1,0.5-0.2l1.4-1.4
				c0.3-0.3,0.3-0.8,0-1.1C59.2,115.5,58.7,115.5,58.5,115.8z"/>
			<path fill="#231F20" d="M62.4,115.8c-0.3-0.3-0.8-0.3-1.1,0c-0.3,0.3-0.3,0.8,0,1.1l1.4,1.4c0.1,0.1,0.3,0.2,0.5,0.2
				c0.2,0,0.4-0.1,0.5-0.2c0.3-0.3,0.3-0.8,0-1.1L62.4,115.8z"/>
			<path fill="#231F20" d="M58.2,111.6c-0.3-0.3-0.8-0.3-1.1,0c-0.3,0.3-0.3,0.8,0,1.1l1.4,1.4c0.1,0.1,0.3,0.2,0.5,0.2
				c0.2,0,0.4-0.1,0.5-0.2c0.3-0.3,0.3-0.8,0-1.1L58.2,111.6z"/>
		</g>
		<g>
			<path fill="#231F20" d="M110.8,70.4c0-0.4-0.3-0.8-0.8-0.8h-8.5c-0.4,0-0.8,0.3-0.8,0.8c0,0.4,0.3,0.8,0.8,0.8h8.5
				C110.5,71.2,110.8,70.8,110.8,70.4z"/>
			<path fill="#231F20" d="M113.4,72.8h-4.2c-0.4,0-0.8,0.3-0.8,0.8c0,0.4,0.3,0.8,0.8,0.8h4.2c0.4,0,0.8-0.3,0.8-0.8
				C114.2,73.1,113.9,72.8,113.4,72.8z"/>
			<path fill="#231F20" d="M117.9,69.7h-4c-0.4,0-0.8,0.3-0.8,0.8c0,0.4,0.3,0.8,0.8,0.8h4c0.4,0,0.8-0.3,0.8-0.8
				C118.7,70,118.3,69.7,117.9,69.7z"/>
			<path fill="#231F20" d="M106.2,72.8h-0.8c-0.4,0-0.8,0.3-0.8,0.8c0,0.4,0.3,0.8,0.8,0.8h0.8c0.4,0,0.8-0.3,0.8-0.8
				C107,73.1,106.6,72.8,106.2,72.8z"/>
		</g>
		<g>
			<path fill="#231F20" d="M63,26.4c0-0.4-0.3-0.8-0.8-0.8h-8.5c-0.4,0-0.8,0.3-0.8,0.8c0,0.4,0.3,0.8,0.8,0.8h8.5
				C62.6,27.2,63,26.8,63,26.4z"/>
			<path fill="#231F20" d="M65.6,28.8h-4.2c-0.4,0-0.8,0.3-0.8,0.8c0,0.4,0.3,0.8,0.8,0.8h4.2c0.4,0,0.8-0.3,0.8-0.8
				C66.3,29.1,66,28.8,65.6,28.8z"/>
			<path fill="#231F20" d="M70.1,25.7h-4c-0.4,0-0.8,0.3-0.8,0.8c0,0.4,0.3,0.8,0.8,0.8h4c0.4,0,0.8-0.3,0.8-0.8
				C70.8,26,70.5,25.7,70.1,25.7z"/>
			<path fill="#231F20" d="M58.4,28.8h-0.8c-0.4,0-0.8,0.3-0.8,0.8c0,0.4,0.3,0.8,0.8,0.8h0.8c0.4,0,0.8-0.3,0.8-0.8
				C59.1,29.1,58.8,28.8,58.4,28.8z"/>
		</g>
		<circle fill="#FFD05B" cx="2.3" cy="75" r="2.3"/>
		<circle fill="#FFD05B" cx="42.9" cy="2.5" r="2.3"/>
		<circle fill="#FFD05B" cx="126" cy="47.8" r="2.3"/>
		<circle fill="#FFD05B" cx="76.6" cy="127.2" r="2.3"/>
	</g>
</g>
</svg>
