<?xml version="1.0" encoding="UTF-8"?>
<svg xmlns="http://www.w3.org/2000/svg" xmlns:xlink="http://www.w3.org/1999/xlink" width="100px" height="100px" viewBox="0 0 100 100" version="1.1">
<g id="surface1">
<path style=" stroke:none;fill-rule:nonzero;fill:rgb(80.784314%,83.529412%,87.843137%);fill-opacity:1;" d="M 64.480469 93.589844 L 62.164062 85.945312 L 37.835938 85.945312 L 37.144531 88.339844 Z M 64.480469 93.589844 "/>
<path style=" stroke:none;fill-rule:nonzero;fill:rgb(51.764706%,85.882353%,100%);fill-opacity:1;" d="M 6.253906 27.492188 L 93.824219 27.492188 L 93.824219 73.203125 L 6.253906 73.203125 Z M 6.253906 27.492188 "/>
<path style=" stroke:none;fill-rule:nonzero;fill:rgb(100%,100%,100%);fill-opacity:1;" d="M 69.574219 17.144531 C 69.5 17.144531 69.421875 17.144531 69.34375 17.144531 C 69.5 16.679688 69.5 16.214844 69.5 15.753906 C 69.5 10.65625 65.328125 6.488281 60.230469 6.488281 C 58.917969 6.488281 57.605469 6.796875 56.449219 7.257812 C 54.75 3.320312 50.8125 0.539062 46.253906 0.539062 C 42.007812 0.539062 38.300781 2.933594 36.449219 6.488281 C 36.371094 6.488281 36.292969 6.488281 36.214844 6.488281 C 31.273438 6.488281 27.257812 10.5 27.257812 15.445312 C 27.257812 15.445312 27.257812 15.519531 27.257812 15.519531 C 23.550781 17.21875 21.003906 20.925781 21.003906 25.171875 C 21.003906 31.042969 25.792969 35.832031 31.660156 35.832031 L 69.652344 35.832031 C 74.828125 35.832031 78.996094 31.660156 78.996094 26.488281 C 78.996094 21.3125 74.828125 17.144531 69.574219 17.144531 Z M 69.574219 17.144531 "/>
<path style=" stroke:none;fill-rule:nonzero;fill:rgb(100%,100%,100%);fill-opacity:1;" d="M 54.363281 8.183594 C 52.972656 4.941406 49.808594 2.855469 46.253906 2.855469 C 43.011719 2.855469 40 4.632812 38.457031 7.566406 "/>
<path style=" stroke:none;fill-rule:nonzero;fill:rgb(13.72549%,12.156863%,12.54902%);fill-opacity:1;" d="M 54.363281 8.804688 C 54.132812 8.804688 53.898438 8.648438 53.824219 8.417969 C 52.507812 5.40625 49.574219 3.476562 46.253906 3.476562 C 43.167969 3.476562 40.386719 5.171875 38.996094 7.875 C 38.839844 8.183594 38.53125 8.261719 38.222656 8.109375 C 37.914062 7.953125 37.835938 7.644531 37.992188 7.335938 C 39.613281 4.246094 42.78125 2.316406 46.253906 2.316406 C 49.960938 2.316406 53.359375 4.554688 54.828125 7.953125 C 54.980469 8.261719 54.828125 8.570312 54.515625 8.726562 C 54.515625 8.804688 54.441406 8.804688 54.363281 8.804688 Z M 54.363281 8.804688 "/>
<path style=" stroke:none;fill-rule:nonzero;fill:rgb(100%,100%,100%);fill-opacity:1;" d="M 93.746094 50.734375 C 92.820312 50.039062 91.582031 49.652344 90.347656 49.652344 C 89.5 49.652344 88.726562 49.808594 88.03125 50.117188 C 86.949219 47.644531 84.480469 45.945312 81.699219 45.945312 C 78.996094 45.945312 76.757812 47.492188 75.597656 49.652344 C 75.519531 49.652344 75.519531 49.652344 75.445312 49.652344 C 72.355469 49.652344 69.808594 52.125 69.808594 55.289062 C 69.808594 55.289062 69.808594 55.367188 69.808594 55.367188 C 67.492188 56.449219 65.945312 58.6875 65.945312 61.390625 C 65.945312 65.019531 68.878906 68.03125 72.585938 68.03125 L 93.824219 68.03125 L 93.824219 50.734375 Z M 93.746094 50.734375 "/>
<path style=" stroke:none;fill-rule:nonzero;fill:rgb(100%,100%,100%);fill-opacity:1;" d="M 23.785156 56.214844 C 23.785156 56.214844 23.785156 56.140625 23.785156 56.214844 C 23.785156 53.28125 21.46875 50.964844 18.609375 50.964844 C 18.53125 50.964844 18.53125 50.964844 18.457031 50.964844 C 17.375 48.878906 15.210938 47.492188 12.742188 47.492188 C 10.117188 47.492188 7.800781 49.113281 6.796875 51.351562 C 6.5625 51.273438 6.410156 51.195312 6.175781 51.121094 L 6.175781 67.953125 L 21.160156 67.953125 C 24.554688 67.953125 27.335938 65.171875 27.335938 61.777344 C 27.335938 59.304688 25.867188 57.21875 23.785156 56.214844 Z M 23.785156 56.214844 "/>
<path style=" stroke:none;fill-rule:nonzero;fill:rgb(13.72549%,12.156863%,12.54902%);fill-opacity:1;" d="M 97.375 21.3125 L 78.070312 21.3125 C 76.371094 18.609375 73.4375 16.757812 70.039062 16.601562 C 70.039062 16.292969 70.117188 16.0625 70.117188 15.832031 C 70.117188 10.425781 65.714844 5.945312 60.230469 5.945312 C 59.074219 5.945312 57.914062 6.175781 56.757812 6.5625 C 54.828125 2.546875 50.734375 0 46.253906 0 C 42.007812 0 38.148438 2.238281 36.0625 5.945312 C 30.964844 6.023438 26.796875 10.117188 26.640625 15.210938 C 24.09375 16.449219 22.164062 18.6875 21.160156 21.234375 L 2.625 21.234375 C 1.160156 21.234375 0 22.394531 0 23.859375 L 0 83.9375 C 0 85.40625 1.160156 86.5625 2.625 86.5625 L 37.066406 86.5625 L 35.136719 93.050781 L 30.117188 93.050781 C 28.570312 93.050781 27.335938 94.285156 27.335938 95.832031 L 27.335938 97.296875 C 27.335938 98.839844 28.570312 100.078125 30.117188 100.078125 L 69.882812 100.078125 C 71.429688 100.078125 72.664062 98.839844 72.664062 97.296875 L 72.664062 95.753906 C 72.664062 94.207031 71.429688 92.972656 69.882812 92.972656 L 64.863281 92.972656 L 62.933594 86.488281 L 97.375 86.488281 C 98.839844 86.488281 100 85.328125 100 83.859375 L 100 23.859375 C 100 22.472656 98.839844 21.3125 97.375 21.3125 Z M 27.492188 16.140625 C 27.722656 16.0625 27.800781 15.753906 27.800781 15.519531 C 27.800781 10.886719 31.582031 7.105469 36.214844 7.105469 L 36.449219 7.105469 C 36.679688 7.105469 36.910156 7.027344 36.988281 6.796875 C 38.839844 3.320312 42.394531 1.160156 46.332031 1.160156 C 50.5 1.160156 54.363281 3.628906 55.984375 7.492188 C 56.0625 7.644531 56.140625 7.722656 56.292969 7.800781 C 56.449219 7.875 56.601562 7.875 56.757812 7.800781 C 57.914062 7.335938 59.074219 7.027344 60.308594 7.027344 C 65.097656 7.027344 69.035156 10.964844 69.035156 15.753906 C 69.035156 16.140625 69.035156 16.523438 68.957031 17.066406 C 68.957031 17.21875 68.957031 17.375 69.113281 17.527344 C 69.1875 17.683594 69.421875 17.761719 69.574219 17.761719 L 69.808594 17.761719 C 74.671875 17.761719 78.609375 21.699219 78.609375 26.5625 C 78.609375 31.429688 74.671875 35.367188 69.808594 35.367188 L 31.660156 35.367188 C 26.101562 35.367188 21.621094 30.886719 21.621094 25.328125 C 21.621094 21.3125 23.9375 17.761719 27.492188 16.140625 Z M 31.660156 36.449219 L 69.652344 36.449219 C 74.59375 36.449219 78.6875 32.820312 79.460938 28.03125 L 93.203125 28.03125 L 93.203125 49.652344 C 91.660156 48.878906 89.882812 48.804688 88.339844 49.34375 C 87.027344 46.871094 84.480469 45.328125 81.699219 45.328125 C 78.996094 45.328125 76.601562 46.71875 75.210938 49.035156 C 72.046875 49.113281 69.421875 51.660156 69.265625 54.902344 C 66.871094 56.140625 65.40625 58.609375 65.40625 61.3125 C 65.40625 65.328125 68.648438 68.496094 72.585938 68.496094 L 93.28125 68.496094 L 93.28125 72.585938 L 6.796875 72.585938 L 6.796875 68.496094 L 21.160156 68.496094 C 24.863281 68.496094 27.875 65.484375 27.875 61.777344 C 27.875 59.304688 26.488281 56.988281 24.246094 55.832031 C 24.09375 52.820312 21.699219 50.5 18.6875 50.347656 C 17.453125 48.183594 15.136719 46.871094 12.664062 46.871094 C 10.191406 46.871094 8.03125 48.109375 6.71875 50.191406 L 6.71875 28.109375 L 20.695312 28.109375 C 22.085938 32.894531 26.410156 36.449219 31.660156 36.449219 Z M 93.203125 67.414062 L 72.507812 67.414062 C 69.1875 67.414062 66.488281 64.710938 66.488281 61.390625 C 66.488281 58.996094 67.875 56.832031 70.039062 55.90625 C 70.269531 55.832031 70.347656 55.519531 70.347656 55.289062 C 70.347656 52.507812 72.585938 50.269531 75.367188 50.269531 C 75.367188 50.269531 75.445312 50.269531 75.445312 50.269531 C 75.675781 50.269531 75.832031 50.191406 75.984375 49.960938 C 77.066406 47.875 79.226562 46.5625 81.621094 46.5625 C 84.167969 46.5625 86.488281 48.109375 87.492188 50.425781 C 87.566406 50.578125 87.644531 50.65625 87.800781 50.734375 C 87.953125 50.8125 88.109375 50.8125 88.261719 50.734375 C 89.882812 50.039062 91.738281 50.191406 93.203125 51.121094 Z M 23.550781 56.757812 C 25.558594 57.683594 26.796875 59.691406 26.796875 61.851562 C 26.796875 64.941406 24.324219 67.414062 21.234375 67.414062 L 6.796875 67.414062 L 6.796875 51.96875 C 6.871094 51.96875 6.949219 51.96875 7.027344 51.890625 C 7.179688 51.816406 7.257812 51.738281 7.335938 51.582031 C 8.261719 49.421875 10.347656 48.03125 12.742188 48.03125 C 14.902344 48.03125 16.910156 49.265625 17.914062 51.195312 C 17.992188 51.429688 18.222656 51.503906 18.457031 51.503906 L 18.53125 51.503906 C 21.082031 51.503906 23.167969 53.589844 23.167969 56.140625 C 23.167969 56.140625 23.167969 56.214844 23.167969 56.214844 C 23.167969 56.449219 23.320312 56.679688 23.550781 56.757812 Z M 69.882812 94.207031 C 70.8125 94.207031 71.503906 94.902344 71.503906 95.832031 L 71.503906 97.296875 C 71.503906 98.222656 70.8125 98.917969 69.882812 98.917969 L 30.117188 98.917969 C 29.1875 98.917969 28.496094 98.222656 28.496094 97.296875 L 28.496094 95.753906 C 28.496094 94.828125 29.1875 94.132812 30.117188 94.132812 L 69.882812 94.132812 Z M 63.628906 93.050781 L 36.371094 93.050781 L 38.300781 86.5625 L 61.699219 86.5625 Z M 98.839844 83.9375 C 98.839844 84.710938 98.222656 85.40625 97.375 85.40625 L 2.625 85.40625 C 1.851562 85.40625 1.160156 84.789062 1.160156 83.9375 L 1.160156 23.859375 C 1.160156 23.089844 1.777344 22.394531 2.625 22.394531 L 20.847656 22.394531 C 20.617188 23.320312 20.464844 24.246094 20.464844 25.25 C 20.464844 25.792969 20.539062 26.332031 20.617188 26.871094 L 6.253906 26.871094 C 5.945312 26.871094 5.636719 27.105469 5.636719 27.492188 L 5.636719 73.203125 C 5.636719 73.511719 5.867188 73.824219 6.253906 73.824219 L 93.824219 73.824219 C 94.132812 73.824219 94.441406 73.589844 94.441406 73.203125 L 94.441406 27.492188 C 94.441406 27.179688 94.207031 26.871094 93.824219 26.871094 L 79.535156 26.871094 C 79.535156 26.71875 79.535156 26.640625 79.535156 26.488281 C 79.535156 25.019531 79.226562 23.628906 78.6875 22.394531 L 97.375 22.394531 C 98.148438 22.394531 98.839844 23.011719 98.839844 23.859375 Z M 98.839844 83.9375 "/>
<path style=" stroke:none;fill-rule:nonzero;fill:rgb(13.72549%,12.156863%,12.54902%);fill-opacity:1;" d="M 50.039062 82.703125 C 48.109375 82.703125 46.5625 81.160156 46.5625 79.226562 C 46.5625 77.296875 48.109375 75.753906 50.039062 75.753906 C 51.96875 75.753906 53.511719 77.296875 53.511719 79.226562 C 53.4375 81.160156 51.890625 82.703125 50.039062 82.703125 Z M 50.039062 76.988281 C 48.804688 76.988281 47.722656 77.992188 47.722656 79.304688 C 47.722656 80.539062 48.726562 81.621094 50.039062 81.621094 C 51.273438 81.621094 52.355469 80.617188 52.355469 79.304688 C 52.277344 77.992188 51.273438 76.988281 50.039062 76.988281 Z M 50.039062 76.988281 "/>
<path style=" stroke:none;fill-rule:nonzero;fill:rgb(100%,43.921569%,34.509804%);fill-opacity:1;" d="M 22.625 7.492188 C 22.625 8.472656 21.832031 9.265625 20.847656 9.265625 C 19.867188 9.265625 19.074219 8.472656 19.074219 7.492188 C 19.074219 6.507812 19.867188 5.714844 20.847656 5.714844 C 21.832031 5.714844 22.625 6.507812 22.625 7.492188 Z M 22.625 7.492188 "/>
<path style=" stroke:none;fill-rule:nonzero;fill:rgb(100%,81.568627%,35.686275%);fill-opacity:1;" d="M 78.996094 9.265625 C 78.996094 10.246094 78.199219 11.042969 77.21875 11.042969 C 76.238281 11.042969 75.445312 10.246094 75.445312 9.265625 C 75.445312 8.285156 76.238281 7.492188 77.21875 7.492188 C 78.199219 7.492188 78.996094 8.285156 78.996094 9.265625 Z M 78.996094 9.265625 "/>
<path style=" stroke:none;fill-rule:nonzero;fill:rgb(90.196078%,91.372549%,93.333333%);fill-opacity:1;" d="M 82.394531 92.046875 C 82.394531 93.28125 81.390625 94.285156 80.15625 94.285156 C 78.917969 94.285156 77.914062 93.28125 77.914062 92.046875 C 77.914062 90.808594 78.917969 89.808594 80.15625 89.808594 C 81.390625 89.808594 82.394531 90.808594 82.394531 92.046875 Z M 82.394531 92.046875 "/>
<path style=" stroke:none;fill-rule:nonzero;fill:rgb(23.921569%,74.117647%,88.627451%);fill-opacity:1;" d="M 21.851562 90.734375 C 21.851562 91.800781 20.988281 92.664062 19.921875 92.664062 C 18.855469 92.664062 17.992188 91.800781 17.992188 90.734375 C 17.992188 89.667969 18.855469 88.804688 19.921875 88.804688 C 20.988281 88.804688 21.851562 89.667969 21.851562 90.734375 Z M 21.851562 90.734375 "/>
<path style=" stroke:none;fill-rule:nonzero;fill:rgb(13.72549%,12.156863%,12.54902%);fill-opacity:1;" d="M 92.820312 5.714844 C 92.664062 5.714844 92.507812 5.636719 92.433594 5.558594 C 92.199219 5.328125 92.199219 4.941406 92.433594 4.710938 L 93.4375 3.707031 C 93.667969 3.476562 94.054688 3.476562 94.285156 3.707031 C 94.515625 3.9375 94.515625 4.324219 94.285156 4.554688 L 93.28125 5.558594 C 93.050781 5.636719 92.894531 5.714844 92.820312 5.714844 Z M 92.820312 5.714844 "/>
<path style=" stroke:none;fill-rule:nonzero;fill:rgb(13.72549%,12.156863%,12.54902%);fill-opacity:1;" d="M 89.652344 8.804688 C 89.5 8.804688 89.34375 8.726562 89.265625 8.648438 C 89.035156 8.417969 89.035156 8.03125 89.265625 7.800781 L 90.269531 6.796875 C 90.5 6.5625 90.886719 6.5625 91.121094 6.796875 C 91.351562 7.027344 91.351562 7.414062 91.121094 7.644531 L 90.117188 8.648438 C 89.960938 8.726562 89.808594 8.804688 89.652344 8.804688 Z M 89.652344 8.804688 "/>
<path style=" stroke:none;fill-rule:nonzero;fill:rgb(13.72549%,12.156863%,12.54902%);fill-opacity:1;" d="M 93.746094 8.804688 C 93.589844 8.804688 93.4375 8.726562 93.359375 8.648438 L 92.355469 7.644531 C 92.125 7.414062 92.125 7.027344 92.355469 6.796875 C 92.585938 6.5625 92.972656 6.5625 93.203125 6.796875 L 94.207031 7.800781 C 94.441406 8.03125 94.441406 8.417969 94.207031 8.648438 C 94.054688 8.726562 93.898438 8.804688 93.746094 8.804688 Z M 93.746094 8.804688 "/>
<path style=" stroke:none;fill-rule:nonzero;fill:rgb(13.72549%,12.156863%,12.54902%);fill-opacity:1;" d="M 90.65625 5.714844 C 90.5 5.714844 90.347656 5.636719 90.269531 5.558594 L 89.265625 4.554688 C 89.035156 4.324219 89.035156 3.9375 89.265625 3.707031 C 89.5 3.476562 89.882812 3.476562 90.117188 3.707031 L 91.121094 4.710938 C 91.351562 4.941406 91.351562 5.328125 91.121094 5.558594 C 90.964844 5.636719 90.8125 5.714844 90.65625 5.714844 Z M 90.65625 5.714844 "/>
<path style=" stroke:none;fill-rule:nonzero;fill:rgb(13.72549%,12.156863%,12.54902%);fill-opacity:1;" d="M 11.660156 6.71875 C 11.503906 6.71875 11.351562 6.640625 11.273438 6.5625 C 11.042969 6.332031 11.042969 5.945312 11.273438 5.714844 L 12.277344 4.710938 C 12.507812 4.480469 12.894531 4.480469 13.128906 4.710938 C 13.359375 4.941406 13.359375 5.328125 13.128906 5.558594 L 12.125 6.5625 C 11.96875 6.71875 11.816406 6.71875 11.660156 6.71875 Z M 11.660156 6.71875 "/>
<path style=" stroke:none;fill-rule:nonzero;fill:rgb(13.72549%,12.156863%,12.54902%);fill-opacity:1;" d="M 8.570312 9.882812 C 8.417969 9.882812 8.261719 9.808594 8.183594 9.730469 C 7.953125 9.5 7.953125 9.113281 8.183594 8.878906 L 9.1875 7.875 C 9.421875 7.644531 9.808594 7.644531 10.039062 7.875 C 10.269531 8.109375 10.269531 8.496094 10.039062 8.726562 L 9.035156 9.730469 C 8.804688 9.808594 8.648438 9.882812 8.570312 9.882812 Z M 8.570312 9.882812 "/>
<path style=" stroke:none;fill-rule:nonzero;fill:rgb(13.72549%,12.156863%,12.54902%);fill-opacity:1;" d="M 12.664062 9.882812 C 12.507812 9.882812 12.355469 9.808594 12.277344 9.730469 L 11.273438 8.726562 C 11.042969 8.496094 11.042969 8.109375 11.273438 7.875 C 11.503906 7.644531 11.890625 7.644531 12.125 7.875 L 13.128906 8.878906 C 13.359375 9.113281 13.359375 9.5 13.128906 9.730469 C 12.972656 9.808594 12.820312 9.882812 12.664062 9.882812 Z M 12.664062 9.882812 "/>
<path style=" stroke:none;fill-rule:nonzero;fill:rgb(13.72549%,12.156863%,12.54902%);fill-opacity:1;" d="M 9.5 6.71875 C 9.34375 6.71875 9.1875 6.640625 9.113281 6.5625 L 8.109375 5.558594 C 7.875 5.328125 7.875 4.941406 8.109375 4.710938 C 8.339844 4.480469 8.726562 4.480469 8.957031 4.710938 L 9.960938 5.714844 C 10.191406 5.945312 10.191406 6.332031 9.960938 6.5625 C 9.808594 6.71875 9.652344 6.71875 9.5 6.71875 Z M 9.5 6.71875 "/>
<path style=" stroke:none;fill-rule:nonzero;fill:rgb(13.72549%,12.156863%,12.54902%);fill-opacity:1;" d="M 9.574219 93.128906 C 9.421875 93.128906 9.265625 93.050781 9.1875 92.972656 C 8.957031 92.742188 8.957031 92.355469 9.1875 92.125 L 10.191406 91.121094 C 10.425781 90.886719 10.8125 90.886719 11.042969 91.121094 C 11.273438 91.351562 11.273438 91.738281 11.042969 91.96875 L 10.039062 92.972656 C 9.882812 93.050781 9.730469 93.128906 9.574219 93.128906 Z M 9.574219 93.128906 "/>
<path style=" stroke:none;fill-rule:nonzero;fill:rgb(13.72549%,12.156863%,12.54902%);fill-opacity:1;" d="M 6.488281 96.214844 C 6.332031 96.214844 6.175781 96.140625 6.101562 96.0625 C 5.867188 95.832031 5.867188 95.445312 6.101562 95.210938 L 7.105469 94.207031 C 7.335938 93.976562 7.722656 93.976562 7.953125 94.207031 C 8.183594 94.441406 8.183594 94.828125 7.953125 95.058594 L 6.949219 96.0625 C 6.796875 96.140625 6.640625 96.214844 6.488281 96.214844 Z M 6.488281 96.214844 "/>
<path style=" stroke:none;fill-rule:nonzero;fill:rgb(13.72549%,12.156863%,12.54902%);fill-opacity:1;" d="M 10.578125 96.214844 C 10.425781 96.214844 10.269531 96.140625 10.191406 96.0625 L 9.1875 95.058594 C 8.957031 94.828125 8.957031 94.441406 9.1875 94.207031 C 9.421875 93.976562 9.808594 93.976562 10.039062 94.207031 L 11.042969 95.210938 C 11.273438 95.445312 11.273438 95.832031 11.042969 96.0625 C 10.886719 96.140625 10.734375 96.214844 10.578125 96.214844 Z M 10.578125 96.214844 "/>
<path style=" stroke:none;fill-rule:nonzero;fill:rgb(13.72549%,12.156863%,12.54902%);fill-opacity:1;" d="M 7.492188 93.128906 C 7.335938 93.128906 7.179688 93.050781 7.105469 92.972656 L 6.101562 91.96875 C 5.867188 91.738281 5.867188 91.351562 6.101562 91.121094 C 6.332031 90.886719 6.71875 90.886719 6.949219 91.121094 L 7.953125 92.125 C 8.183594 92.355469 8.183594 92.742188 7.953125 92.972656 C 7.800781 93.050781 7.644531 93.128906 7.492188 93.128906 Z M 7.492188 93.128906 "/>
<path style=" stroke:none;fill-rule:nonzero;fill:rgb(100%,100%,100%);fill-opacity:1;" d="M 53.4375 42.316406 L 50.425781 41.003906 L 50.347656 41.160156 C 49.730469 42.316406 48.417969 42.933594 47.105469 42.855469 C 46.871094 42.855469 46.5625 42.855469 46.332031 42.855469 C 45.019531 42.855469 43.785156 42.164062 43.242188 41.003906 L 43.167969 40.847656 L 40.15625 42.007812 L 40.230469 42.238281 C 40.617188 43.476562 40.15625 44.863281 39.152344 45.714844 C 38.996094 45.867188 38.765625 46.023438 38.609375 46.253906 C 37.683594 47.179688 36.371094 47.566406 35.136719 47.105469 L 34.902344 47.027344 L 33.589844 50.039062 L 33.746094 50.117188 C 34.902344 50.734375 35.519531 52.046875 35.445312 53.359375 C 35.445312 53.589844 35.445312 53.898438 35.445312 54.132812 C 35.445312 55.445312 34.75 56.679688 33.589844 57.21875 L 33.28125 57.144531 L 34.441406 60.15625 L 34.671875 60.078125 C 35.90625 59.691406 37.296875 60.15625 38.148438 61.160156 C 38.300781 61.3125 38.457031 61.542969 38.6875 61.699219 C 39.613281 62.625 40 63.9375 39.535156 65.171875 L 39.382812 65.558594 L 42.394531 66.871094 L 42.472656 66.71875 C 43.089844 65.558594 44.402344 64.941406 45.714844 65.019531 C 45.945312 65.019531 46.253906 65.019531 46.488281 65.019531 C 47.800781 65.019531 49.035156 65.714844 49.574219 66.871094 L 49.652344 67.027344 L 52.664062 65.867188 L 52.585938 65.636719 C 52.199219 64.402344 52.664062 63.011719 53.667969 62.164062 C 53.824219 62.007812 54.054688 61.851562 54.207031 61.621094 C 55.136719 60.695312 56.449219 60.308594 57.683594 60.773438 L 57.914062 60.847656 L 59.226562 57.835938 L 59.074219 57.761719 C 57.914062 57.144531 57.296875 55.832031 57.375 54.515625 C 57.375 54.285156 57.375 53.976562 57.375 53.746094 C 57.375 52.433594 58.070312 51.195312 59.226562 50.65625 L 59.382812 50.578125 L 58.222656 47.566406 L 57.992188 47.644531 C 56.757812 48.03125 55.367188 47.566406 54.515625 46.5625 C 54.363281 46.410156 54.207031 46.175781 53.976562 46.023438 C 53.050781 45.097656 52.664062 43.785156 53.128906 42.546875 Z M 53.4375 42.316406 "/>
<path style=" stroke:none;fill-rule:nonzero;fill:rgb(13.72549%,12.156863%,12.54902%);fill-opacity:1;" d="M 49.652344 67.644531 C 49.421875 67.644531 49.265625 67.492188 49.113281 67.335938 L 49.035156 67.179688 C 48.570312 66.253906 47.566406 65.636719 46.488281 65.636719 C 46.175781 65.636719 45.945312 65.636719 45.636719 65.636719 C 44.480469 65.558594 43.476562 66.101562 42.933594 67.027344 L 42.933594 67.179688 C 42.78125 67.414062 42.472656 67.566406 42.164062 67.414062 L 39.152344 66.101562 C 38.839844 65.945312 38.765625 65.636719 38.839844 65.40625 L 38.917969 65.171875 C 39.226562 64.167969 38.996094 63.011719 38.148438 62.238281 C 37.914062 62.085938 37.761719 61.851562 37.605469 61.621094 C 36.832031 60.773438 35.753906 60.464844 34.75 60.695312 L 34.515625 60.773438 C 34.207031 60.847656 33.898438 60.695312 33.824219 60.386719 L 32.664062 57.375 C 32.585938 57.066406 32.664062 56.757812 32.972656 56.679688 L 33.128906 56.601562 C 34.054688 56.140625 34.671875 55.136719 34.671875 53.976562 C 34.671875 53.746094 34.671875 53.4375 34.671875 53.203125 C 34.75 52.046875 34.207031 51.042969 33.28125 50.5 L 33.203125 50.425781 C 32.972656 50.269531 32.820312 49.960938 32.972656 49.652344 L 34.285156 46.640625 C 34.441406 46.332031 34.75 46.253906 34.980469 46.332031 L 35.210938 46.410156 C 36.214844 46.71875 37.375 46.488281 38.148438 45.636719 C 38.300781 45.484375 38.53125 45.25 38.765625 45.097656 C 39.613281 44.324219 40 43.242188 39.691406 42.238281 L 39.613281 42.007812 C 39.535156 41.699219 39.691406 41.390625 40 41.3125 L 43.011719 40.15625 C 43.320312 40.078125 43.628906 40.15625 43.707031 40.464844 L 43.785156 40.617188 C 44.246094 41.542969 45.25 42.164062 46.332031 42.164062 C 46.640625 42.164062 46.871094 42.164062 47.179688 42.164062 C 48.339844 42.238281 49.34375 41.699219 49.882812 40.773438 L 49.960938 40.617188 C 50.117188 40.386719 50.425781 40.230469 50.734375 40.386719 L 53.746094 41.699219 C 54.054688 41.851562 54.132812 42.164062 54.054688 42.394531 L 53.976562 42.625 C 53.667969 43.628906 53.898438 44.789062 54.75 45.558594 C 54.902344 45.714844 55.136719 45.945312 55.289062 46.175781 C 56.0625 47.027344 57.144531 47.335938 58.148438 47.105469 L 58.378906 47.027344 C 58.6875 46.949219 58.996094 47.105469 59.074219 47.414062 L 60.230469 50.425781 C 60.308594 50.734375 60.230469 51.042969 59.921875 51.121094 L 59.769531 51.195312 C 58.839844 51.660156 58.222656 52.664062 58.222656 53.824219 C 58.222656 54.054688 58.222656 54.363281 58.222656 54.59375 C 58.148438 55.753906 58.6875 56.757812 59.613281 57.296875 L 59.769531 57.375 C 60 57.527344 60.15625 57.835938 60 58.148438 L 58.6875 61.160156 C 58.53125 61.46875 58.222656 61.542969 57.992188 61.46875 L 57.761719 61.390625 C 56.757812 61.082031 55.597656 61.3125 54.828125 62.164062 C 54.671875 62.394531 54.441406 62.546875 54.207031 62.703125 C 53.359375 63.476562 52.972656 64.554688 53.28125 65.558594 L 53.359375 65.792969 C 53.4375 66.101562 53.28125 66.410156 52.972656 66.488281 L 49.960938 67.644531 C 49.808594 67.644531 49.730469 67.644531 49.652344 67.644531 Z M 45.484375 64.402344 C 45.558594 64.402344 45.636719 64.402344 45.792969 64.402344 C 46.023438 64.402344 46.253906 64.402344 46.488281 64.402344 C 48.03125 64.402344 49.34375 65.097656 50.039062 66.332031 L 52.125 65.558594 C 51.890625 64.167969 52.355469 62.78125 53.4375 61.851562 C 53.589844 61.699219 53.824219 61.542969 53.976562 61.390625 C 54.980469 60.386719 56.449219 59.921875 57.761719 60.308594 L 58.6875 58.300781 C 57.527344 57.527344 56.910156 56.214844 56.988281 54.75 C 56.988281 54.515625 56.988281 54.285156 56.988281 54.054688 C 56.988281 52.585938 57.683594 51.273438 58.917969 50.578125 L 58.148438 48.496094 C 56.757812 48.726562 55.367188 48.261719 54.441406 47.179688 C 54.285156 47.027344 54.132812 46.796875 53.976562 46.640625 C 52.972656 45.636719 52.507812 44.167969 52.894531 42.855469 L 50.65625 41.699219 C 49.882812 42.855469 48.496094 43.476562 47.105469 43.398438 C 46.871094 43.398438 46.640625 43.398438 46.410156 43.398438 C 44.863281 43.398438 43.550781 42.703125 42.855469 41.46875 L 40.773438 42.238281 C 41.003906 43.628906 40.539062 45.019531 39.460938 45.945312 C 39.304688 46.101562 39.074219 46.253906 38.917969 46.410156 C 37.914062 47.414062 36.449219 47.875 35.136719 47.492188 L 34.207031 49.5 C 35.367188 50.269531 35.984375 51.582031 35.90625 53.050781 C 35.90625 53.28125 35.90625 53.511719 35.90625 53.746094 C 35.90625 55.210938 35.210938 56.523438 33.976562 57.21875 L 34.75 59.304688 C 36.140625 59.074219 37.527344 59.535156 38.457031 60.617188 C 38.609375 60.773438 38.765625 61.003906 38.917969 61.160156 C 39.921875 62.164062 40.386719 63.628906 40 64.941406 L 42.007812 65.867188 C 42.855469 65.097656 44.09375 64.402344 45.484375 64.402344 Z M 45.484375 64.402344 "/>
<path style=" stroke:none;fill-rule:nonzero;fill:rgb(13.72549%,12.156863%,12.54902%);fill-opacity:1;" d="M 46.175781 62.933594 C 45.867188 62.933594 45.636719 62.933594 45.328125 62.855469 L 45.484375 61.699219 C 45.714844 61.699219 45.945312 61.777344 46.175781 61.777344 Z M 47.800781 62.78125 L 47.644531 61.621094 C 47.875 61.621094 48.109375 61.542969 48.339844 61.46875 L 48.648438 62.625 C 48.339844 62.703125 48.109375 62.78125 47.800781 62.78125 Z M 43.707031 62.546875 C 43.476562 62.472656 43.167969 62.394531 42.933594 62.238281 L 43.398438 61.160156 C 43.628906 61.234375 43.859375 61.3125 44.09375 61.390625 Z M 50.191406 62.085938 L 49.730469 61.003906 C 49.960938 60.925781 50.191406 60.773438 50.347656 60.695312 L 50.886719 61.699219 C 50.65625 61.851562 50.425781 62.007812 50.191406 62.085938 Z M 41.46875 61.46875 C 41.234375 61.3125 41.003906 61.160156 40.773438 61.003906 L 41.46875 60.078125 C 41.621094 60.230469 41.851562 60.386719 42.085938 60.464844 Z M 52.277344 60.773438 L 51.503906 59.921875 C 51.660156 59.769531 51.890625 59.613281 52.046875 59.460938 L 52.894531 60.230469 C 52.664062 60.386719 52.433594 60.617188 52.277344 60.773438 Z M 39.613281 59.84375 C 39.460938 59.613281 39.226562 59.460938 39.074219 59.226562 L 40 58.53125 C 40.15625 58.765625 40.308594 58.917969 40.464844 59.074219 Z M 53.898438 58.917969 L 52.972656 58.300781 C 53.128906 58.070312 53.203125 57.914062 53.359375 57.683594 L 54.363281 58.222656 C 54.207031 58.457031 54.054688 58.6875 53.898438 58.917969 Z M 38.300781 57.761719 C 38.148438 57.527344 38.070312 57.296875 37.992188 56.988281 L 39.074219 56.601562 C 39.152344 56.832031 39.226562 57.066406 39.382812 57.296875 Z M 54.980469 56.757812 L 53.898438 56.371094 C 53.976562 56.140625 54.054688 55.90625 54.132812 55.675781 L 55.289062 55.90625 C 55.136719 56.214844 55.058594 56.449219 54.980469 56.757812 Z M 37.527344 55.445312 C 37.453125 55.210938 37.453125 54.902344 37.453125 54.59375 L 38.609375 54.515625 C 38.609375 54.75 38.6875 54.980469 38.6875 55.210938 Z M 55.445312 54.285156 L 54.285156 54.207031 C 54.285156 54.132812 54.285156 53.976562 54.285156 53.898438 C 54.285156 53.746094 54.285156 53.667969 54.285156 53.511719 L 55.445312 53.4375 C 55.445312 53.589844 55.445312 53.746094 55.445312 53.898438 C 55.445312 54.054688 55.445312 54.207031 55.445312 54.285156 Z M 38.609375 53.050781 L 37.453125 52.894531 C 37.453125 52.585938 37.527344 52.355469 37.605469 52.046875 L 38.765625 52.277344 C 38.6875 52.585938 38.609375 52.820312 38.609375 53.050781 Z M 54.054688 52.125 C 53.976562 51.890625 53.898438 51.660156 53.824219 51.429688 L 54.902344 51.042969 C 54.980469 51.273438 55.058594 51.582031 55.136719 51.816406 Z M 39.152344 50.964844 L 38.070312 50.5 C 38.148438 50.425781 38.148438 50.269531 38.222656 50.191406 C 38.300781 50.039062 38.378906 49.882812 38.457031 49.808594 L 39.460938 50.347656 C 39.382812 50.5 39.304688 50.578125 39.304688 50.734375 C 39.226562 50.8125 39.152344 50.886719 39.152344 50.964844 Z M 53.28125 50.117188 C 53.128906 49.882812 53.050781 49.730469 52.894531 49.5 L 53.824219 48.878906 C 53.976562 49.113281 54.132812 49.34375 54.285156 49.574219 Z M 40.15625 49.113281 L 39.226562 48.417969 C 39.382812 48.183594 39.535156 47.953125 39.769531 47.800781 L 40.617188 48.570312 C 40.464844 48.726562 40.308594 48.957031 40.15625 49.113281 Z M 51.96875 48.417969 C 51.816406 48.261719 51.660156 48.109375 51.429688 47.953125 L 52.199219 47.027344 C 52.433594 47.179688 52.585938 47.414062 52.820312 47.566406 Z M 41.699219 47.644531 L 41.003906 46.71875 C 41.234375 46.5625 41.46875 46.410156 41.699219 46.253906 L 42.316406 47.257812 C 42.085938 47.335938 41.929688 47.492188 41.699219 47.644531 Z M 50.269531 47.105469 C 50.039062 46.949219 49.882812 46.871094 49.652344 46.796875 L 50.117188 45.714844 C 50.347656 45.792969 50.578125 45.945312 50.886719 46.101562 Z M 43.628906 46.5625 L 43.242188 45.484375 C 43.476562 45.40625 43.785156 45.328125 44.015625 45.25 L 44.324219 46.332031 C 44.09375 46.410156 43.859375 46.488281 43.628906 46.5625 Z M 48.570312 46.332031 C 48.339844 46.253906 48.109375 46.175781 47.875 46.175781 L 48.109375 45.019531 C 48.339844 45.097656 48.648438 45.097656 48.878906 45.171875 Z M 45.714844 46.101562 L 45.636719 44.941406 C 45.945312 44.941406 46.175781 44.941406 46.488281 44.941406 L 46.488281 46.101562 C 46.175781 46.101562 45.945312 46.101562 45.714844 46.101562 Z M 45.714844 46.101562 "/>
<path style=" stroke:none;fill-rule:nonzero;fill:rgb(90.196078%,91.372549%,93.333333%);fill-opacity:1;" d="M 53.128906 53.898438 C 53.128906 57.609375 50.121094 60.617188 46.410156 60.617188 C 42.699219 60.617188 39.691406 57.609375 39.691406 53.898438 C 39.691406 50.1875 42.699219 47.179688 46.410156 47.179688 C 50.121094 47.179688 53.128906 50.1875 53.128906 53.898438 Z M 53.128906 53.898438 "/>
<path style=" stroke:none;fill-rule:nonzero;fill:rgb(100%,100%,100%);fill-opacity:1;" d="M 49.730469 53.898438 C 49.730469 55.734375 48.242188 57.21875 46.410156 57.21875 C 44.574219 57.21875 43.089844 55.734375 43.089844 53.898438 C 43.089844 52.066406 44.574219 50.578125 46.410156 50.578125 C 48.242188 50.578125 49.730469 52.066406 49.730469 53.898438 Z M 49.730469 53.898438 "/>
<path style=" stroke:none;fill-rule:nonzero;fill:rgb(13.72549%,12.156863%,12.54902%);fill-opacity:1;" d="M 46.410156 57.835938 C 45.867188 57.835938 45.328125 57.761719 44.789062 57.527344 C 43.859375 57.066406 43.089844 56.292969 42.703125 55.367188 C 42.316406 54.363281 42.394531 53.359375 42.78125 52.355469 C 43.398438 50.964844 44.789062 50.039062 46.332031 50.039062 C 46.871094 50.039062 47.414062 50.117188 47.953125 50.347656 C 48.878906 50.8125 49.652344 51.582031 50.039062 52.507812 C 50.425781 53.511719 50.347656 54.515625 49.960938 55.519531 C 49.34375 56.910156 47.953125 57.835938 46.410156 57.835938 Z M 46.410156 51.121094 C 45.328125 51.121094 44.324219 51.738281 43.859375 52.742188 C 43.550781 53.4375 43.550781 54.132812 43.785156 54.828125 C 44.015625 55.519531 44.554688 56.0625 45.25 56.371094 C 45.636719 56.523438 46.023438 56.601562 46.410156 56.601562 C 47.492188 56.601562 48.496094 55.984375 48.957031 54.980469 C 49.265625 54.285156 49.265625 53.589844 49.035156 52.894531 C 48.804688 52.199219 48.261719 51.660156 47.566406 51.351562 C 47.179688 51.195312 46.796875 51.121094 46.410156 51.121094 Z M 46.410156 51.121094 "/>
</g>
</svg>
