<?xml version="1.0" encoding="UTF-8"?>
<svg xmlns="http://www.w3.org/2000/svg" xmlns:xlink="http://www.w3.org/1999/xlink" width="200px" height="200px" viewBox="0 0 200 200" version="1.1">
<g id="surface1">
<path style=" stroke:none;fill-rule:nonzero;fill:rgb(13.72549%,12.156863%,12.54902%);fill-opacity:1;" d="M 61.46875 6.949219 C 61.160156 6.949219 60.847656 6.796875 60.695312 6.640625 C 60.230469 6.175781 60.230469 5.40625 60.695312 4.941406 L 62.703125 2.933594 C 63.167969 2.472656 63.9375 2.472656 64.402344 2.933594 C 64.863281 3.398438 64.863281 4.167969 64.402344 4.632812 L 62.394531 6.640625 C 62.085938 6.796875 61.777344 6.949219 61.46875 6.949219 Z M 61.46875 6.949219 "/>
<path style=" stroke:none;fill-rule:nonzero;fill:rgb(13.72549%,12.156863%,12.54902%);fill-opacity:1;" d="M 55.289062 13.128906 C 54.980469 13.128906 54.671875 12.972656 54.515625 12.820312 C 54.054688 12.355469 54.054688 11.738281 54.515625 11.273438 L 56.523438 9.265625 C 56.988281 8.804688 57.761719 8.804688 58.222656 9.265625 C 58.6875 9.730469 58.6875 10.5 58.222656 10.964844 L 56.214844 12.972656 C 55.90625 13.128906 55.597656 13.128906 55.289062 13.128906 Z M 55.289062 13.128906 "/>
<path style=" stroke:none;fill-rule:nonzero;fill:rgb(13.72549%,12.156863%,12.54902%);fill-opacity:1;" d="M 63.476562 13.128906 C 63.167969 13.128906 62.855469 12.972656 62.703125 12.820312 L 60.695312 10.8125 C 60.230469 10.347656 60.230469 9.730469 60.695312 9.265625 C 61.160156 8.804688 61.929688 8.804688 62.394531 9.265625 L 64.402344 11.273438 C 64.863281 11.738281 64.863281 12.507812 64.402344 12.972656 C 64.09375 13.128906 63.785156 13.128906 63.476562 13.128906 Z M 63.476562 13.128906 "/>
<path style=" stroke:none;fill-rule:nonzero;fill:rgb(13.72549%,12.156863%,12.54902%);fill-opacity:1;" d="M 57.296875 6.949219 C 56.988281 6.949219 56.679688 6.796875 56.523438 6.640625 L 54.515625 4.632812 C 54.054688 4.167969 54.054688 3.398438 54.515625 2.933594 C 54.980469 2.472656 55.753906 2.472656 56.214844 2.933594 L 58.222656 4.941406 C 58.6875 5.40625 58.6875 6.175781 58.222656 6.640625 C 57.914062 6.796875 57.605469 6.949219 57.296875 6.949219 Z M 57.296875 6.949219 "/>
<path style=" stroke:none;fill-rule:nonzero;fill:rgb(13.72549%,12.156863%,12.54902%);fill-opacity:1;" d="M 191.816406 88.339844 C 191.503906 88.339844 191.195312 88.183594 191.042969 88.03125 C 190.578125 87.566406 190.578125 86.796875 191.042969 86.332031 L 193.050781 84.324219 C 193.511719 83.859375 194.285156 83.859375 194.75 84.324219 C 195.210938 84.789062 195.210938 85.558594 194.75 86.023438 L 192.742188 88.03125 C 192.433594 88.339844 192.125 88.339844 191.816406 88.339844 Z M 191.816406 88.339844 "/>
<path style=" stroke:none;fill-rule:nonzero;fill:rgb(13.72549%,12.156863%,12.54902%);fill-opacity:1;" d="M 185.636719 94.671875 C 185.328125 94.671875 185.019531 94.515625 184.863281 94.363281 C 184.402344 93.898438 184.402344 93.128906 184.863281 92.664062 L 186.871094 90.65625 C 187.335938 90.191406 188.109375 90.191406 188.570312 90.65625 C 189.035156 91.121094 189.035156 91.890625 188.570312 92.355469 L 186.5625 94.363281 C 186.253906 94.515625 185.945312 94.671875 185.636719 94.671875 Z M 185.636719 94.671875 "/>
<path style=" stroke:none;fill-rule:nonzero;fill:rgb(13.72549%,12.156863%,12.54902%);fill-opacity:1;" d="M 193.824219 94.671875 C 193.511719 94.671875 193.203125 94.515625 193.050781 94.363281 L 191.042969 92.355469 C 190.578125 91.890625 190.578125 91.121094 191.042969 90.65625 C 191.503906 90.191406 192.277344 90.191406 192.742188 90.65625 L 194.59375 92.664062 C 195.058594 93.128906 195.058594 93.898438 194.59375 94.363281 C 194.441406 94.515625 194.132812 94.671875 193.824219 94.671875 Z M 193.824219 94.671875 "/>
<path style=" stroke:none;fill-rule:nonzero;fill:rgb(13.72549%,12.156863%,12.54902%);fill-opacity:1;" d="M 187.644531 88.339844 C 187.335938 88.339844 187.027344 88.183594 186.871094 88.03125 L 184.863281 86.023438 C 184.402344 85.558594 184.402344 84.789062 184.863281 84.324219 C 185.328125 83.859375 186.101562 83.859375 186.5625 84.324219 L 188.417969 86.488281 C 188.878906 86.949219 188.878906 87.722656 188.417969 88.183594 C 188.261719 88.339844 187.953125 88.339844 187.644531 88.339844 Z M 187.644531 88.339844 "/>
<path style=" stroke:none;fill-rule:nonzero;fill:rgb(13.72549%,12.156863%,12.54902%);fill-opacity:1;" d="M 17.605469 165.25 C 17.296875 165.25 16.988281 165.097656 16.832031 164.941406 C 16.371094 164.480469 16.371094 163.707031 16.832031 163.242188 L 18.839844 161.234375 C 19.304688 160.773438 20.078125 160.773438 20.539062 161.234375 C 21.003906 161.699219 21.003906 162.472656 20.539062 162.933594 L 18.53125 164.941406 C 18.222656 165.097656 17.914062 165.25 17.605469 165.25 Z M 17.605469 165.25 "/>
<path style=" stroke:none;fill-rule:nonzero;fill:rgb(13.72549%,12.156863%,12.54902%);fill-opacity:1;" d="M 11.429688 171.429688 C 11.121094 171.429688 10.8125 171.273438 10.65625 171.121094 C 10.191406 170.65625 10.191406 169.882812 10.65625 169.421875 L 12.664062 167.414062 C 13.128906 166.949219 13.898438 166.949219 14.363281 167.414062 C 14.828125 167.875 14.828125 168.648438 14.363281 169.113281 L 12.355469 171.121094 C 12.046875 171.429688 11.738281 171.429688 11.429688 171.429688 Z M 11.429688 171.429688 "/>
<path style=" stroke:none;fill-rule:nonzero;fill:rgb(13.72549%,12.156863%,12.54902%);fill-opacity:1;" d="M 19.613281 171.429688 C 19.304688 171.429688 18.996094 171.273438 18.839844 171.121094 L 16.832031 169.113281 C 16.371094 168.648438 16.371094 167.875 16.832031 167.414062 C 17.296875 166.949219 18.070312 166.949219 18.53125 167.414062 L 20.539062 169.421875 C 21.003906 169.882812 21.003906 170.65625 20.539062 171.121094 C 20.230469 171.429688 19.921875 171.429688 19.613281 171.429688 Z M 19.613281 171.429688 "/>
<path style=" stroke:none;fill-rule:nonzero;fill:rgb(13.72549%,12.156863%,12.54902%);fill-opacity:1;" d="M 13.4375 165.25 C 13.128906 165.25 12.820312 165.097656 12.664062 164.941406 L 10.65625 162.933594 C 10.191406 162.472656 10.191406 161.699219 10.65625 161.234375 C 11.121094 160.773438 11.890625 160.773438 12.355469 161.234375 L 14.363281 163.242188 C 14.828125 163.707031 14.828125 164.480469 14.363281 164.941406 C 14.054688 165.097656 13.746094 165.25 13.4375 165.25 Z M 13.4375 165.25 "/>
<path style=" stroke:none;fill-rule:nonzero;fill:rgb(13.72549%,12.156863%,12.54902%);fill-opacity:1;" d="M 131.738281 4.632812 L 119.226562 4.632812 C 118.609375 4.632812 117.992188 4.167969 117.992188 3.398438 C 117.992188 2.78125 118.457031 2.164062 119.226562 2.164062 L 131.738281 2.164062 C 132.355469 2.164062 132.972656 2.625 132.972656 3.398438 C 132.972656 4.167969 132.355469 4.632812 131.738281 4.632812 Z M 131.738281 4.632812 "/>
<path style=" stroke:none;fill-rule:nonzero;fill:rgb(13.72549%,12.156863%,12.54902%);fill-opacity:1;" d="M 136.679688 9.265625 L 130.5 9.265625 C 129.882812 9.265625 129.265625 8.804688 129.265625 8.03125 C 129.265625 7.414062 129.730469 6.796875 130.5 6.796875 L 136.679688 6.796875 C 137.296875 6.796875 137.914062 7.257812 137.914062 8.03125 C 137.914062 8.648438 137.296875 9.265625 136.679688 9.265625 Z M 136.679688 9.265625 "/>
<path style=" stroke:none;fill-rule:nonzero;fill:rgb(13.72549%,12.156863%,12.54902%);fill-opacity:1;" d="M 143.320312 4.632812 L 137.453125 4.632812 C 136.832031 4.632812 136.214844 4.167969 136.214844 3.398438 C 136.214844 2.78125 136.679688 2.164062 137.453125 2.164062 L 143.320312 2.164062 C 143.9375 2.164062 144.554688 2.625 144.554688 3.398438 C 144.402344 4.167969 143.9375 4.632812 143.320312 4.632812 Z M 143.320312 4.632812 "/>
<path style=" stroke:none;fill-rule:nonzero;fill:rgb(13.72549%,12.156863%,12.54902%);fill-opacity:1;" d="M 126.175781 9.265625 L 124.941406 9.265625 C 124.324219 9.265625 123.707031 8.804688 123.707031 8.03125 C 123.707031 7.414062 124.167969 6.796875 124.941406 6.796875 L 126.175781 6.796875 C 126.796875 6.796875 127.414062 7.257812 127.414062 8.03125 C 127.257812 8.648438 126.796875 9.265625 126.175781 9.265625 Z M 126.175781 9.265625 "/>
<path style=" stroke:none;fill-rule:nonzero;fill:rgb(13.72549%,12.156863%,12.54902%);fill-opacity:1;" d="M 180.539062 184.246094 L 168.03125 184.246094 C 167.414062 184.246094 166.796875 183.785156 166.796875 183.011719 C 166.796875 182.238281 167.257812 181.777344 168.03125 181.777344 L 180.539062 181.777344 C 181.160156 181.777344 181.777344 182.238281 181.777344 183.011719 C 181.777344 183.785156 181.160156 184.246094 180.539062 184.246094 Z M 180.539062 184.246094 "/>
<path style=" stroke:none;fill-rule:nonzero;fill:rgb(13.72549%,12.156863%,12.54902%);fill-opacity:1;" d="M 185.484375 188.726562 L 179.304688 188.726562 C 178.6875 188.726562 178.070312 188.261719 178.070312 187.492188 C 178.070312 186.871094 178.53125 186.253906 179.304688 186.253906 L 185.484375 186.253906 C 186.101562 186.253906 186.71875 186.71875 186.71875 187.492188 C 186.5625 188.261719 186.101562 188.726562 185.484375 188.726562 Z M 185.484375 188.726562 "/>
<path style=" stroke:none;fill-rule:nonzero;fill:rgb(13.72549%,12.156863%,12.54902%);fill-opacity:1;" d="M 191.96875 184.246094 L 186.101562 184.246094 C 185.484375 184.246094 184.863281 183.785156 184.863281 183.011719 C 184.863281 182.238281 185.328125 181.777344 186.101562 181.777344 L 191.96875 181.777344 C 192.585938 181.777344 193.203125 182.238281 193.203125 183.011719 C 193.203125 183.785156 192.742188 184.246094 191.96875 184.246094 Z M 191.96875 184.246094 "/>
<path style=" stroke:none;fill-rule:nonzero;fill:rgb(13.72549%,12.156863%,12.54902%);fill-opacity:1;" d="M 174.828125 188.726562 L 173.589844 188.726562 C 172.972656 188.726562 172.355469 188.261719 172.355469 187.492188 C 172.355469 186.871094 172.820312 186.253906 173.589844 186.253906 L 174.828125 186.253906 C 175.445312 186.253906 176.0625 186.71875 176.0625 187.492188 C 176.0625 188.261719 175.445312 188.726562 174.828125 188.726562 Z M 174.828125 188.726562 "/>
<path style=" stroke:none;fill-rule:nonzero;fill:rgb(90.196078%,91.372549%,93.333333%);fill-opacity:1;" d="M 44.789062 171.890625 L 158.917969 171.890625 L 158.917969 198.765625 L 44.789062 198.765625 Z M 44.789062 171.890625 "/>
<path style=" stroke:none;fill-rule:nonzero;fill:rgb(90.196078%,91.372549%,93.333333%);fill-opacity:1;" d="M 44.789062 25.636719 L 158.917969 25.636719 L 158.917969 42.007812 L 44.789062 42.007812 Z M 44.789062 25.636719 "/>
<path style=" stroke:none;fill-rule:nonzero;fill:rgb(100%,100%,100%);fill-opacity:1;" d="M 44.789062 41.851562 L 158.917969 41.851562 L 158.917969 171.890625 L 44.789062 171.890625 Z M 44.789062 41.851562 "/>
<path style=" stroke:none;fill-rule:nonzero;fill:rgb(51.764706%,85.882353%,100%);fill-opacity:1;" d="M 135.445312 171.890625 L 135.445312 166.175781 C 135.445312 147.644531 120.308594 132.507812 101.777344 132.507812 C 83.242188 132.507812 68.109375 147.644531 68.109375 166.175781 L 68.109375 171.890625 Z M 135.445312 171.890625 "/>
<path style=" stroke:none;fill-rule:nonzero;fill:rgb(100%,100%,100%);fill-opacity:1;" d="M 110.734375 124.480469 L 92.972656 124.480469 L 92.972656 139.304688 C 92.972656 143.785156 96.679688 147.492188 101.160156 147.492188 L 102.546875 147.492188 C 107.027344 147.492188 110.734375 143.785156 110.734375 139.304688 Z M 110.734375 124.480469 "/>
<path style=" stroke:none;fill-rule:nonzero;fill:rgb(100%,81.568627%,35.686275%);fill-opacity:1;" d="M 121.234375 65.328125 C 120.925781 60.230469 116.757812 56.523438 111.816406 56.988281 C 89.574219 59.152344 74.75 50.191406 74.75 50.191406 C 74.75 50.191406 73.824219 60.230469 77.835938 67.953125 C 74.59375 70.734375 72.433594 74.902344 72.433594 79.691406 L 72.433594 101.46875 C 72.433594 104.554688 74.902344 107.179688 78.148438 107.179688 L 125.714844 107.179688 C 128.804688 107.179688 131.429688 104.710938 131.429688 101.46875 L 131.429688 79.691406 C 131.273438 73.050781 127.105469 67.492188 121.234375 65.328125 Z M 121.234375 65.328125 "/>
<path style=" stroke:none;fill-rule:nonzero;fill:rgb(100%,100%,100%);fill-opacity:1;" d="M 125.867188 95.445312 L 125.558594 95.445312 L 125.558594 89.265625 C 115.984375 88.339844 108.109375 81.542969 105.484375 72.585938 C 99.769531 82.007812 89.574219 88.496094 77.992188 89.265625 L 77.992188 95.445312 L 77.683594 95.445312 C 75.832031 95.445312 74.285156 96.988281 74.285156 98.839844 C 74.285156 100.695312 75.832031 102.238281 77.683594 102.238281 L 77.992188 102.238281 L 77.992188 107.027344 C 77.992188 120.15625 88.648438 130.8125 101.777344 130.8125 C 114.902344 130.8125 125.558594 120.15625 125.558594 107.027344 L 125.558594 102.238281 L 125.867188 102.238281 C 127.722656 102.238281 129.265625 100.695312 129.265625 98.839844 C 129.265625 96.988281 127.722656 95.445312 125.867188 95.445312 Z M 125.867188 95.445312 "/>
<path style=" stroke:none;fill-rule:nonzero;fill:rgb(100%,100%,100%);fill-opacity:1;" d="M 109.1875 186.5625 C 109.1875 190.574219 105.9375 193.824219 101.929688 193.824219 C 97.921875 193.824219 94.671875 190.574219 94.671875 186.5625 C 94.671875 182.554688 97.921875 179.304688 101.929688 179.304688 C 105.9375 179.304688 109.1875 182.554688 109.1875 186.5625 Z M 109.1875 186.5625 "/>
<path style=" stroke:none;fill-rule:nonzero;fill:rgb(13.72549%,12.156863%,12.54902%);fill-opacity:1;" d="M 101.929688 194.902344 C 97.296875 194.902344 93.4375 191.042969 93.4375 186.410156 C 93.4375 181.777344 97.296875 177.914062 101.929688 177.914062 C 106.5625 177.914062 110.425781 181.777344 110.425781 186.410156 C 110.269531 191.195312 106.5625 194.902344 101.929688 194.902344 Z M 101.929688 180.386719 C 98.53125 180.386719 95.753906 183.167969 95.753906 186.5625 C 95.753906 189.960938 98.53125 192.742188 101.929688 192.742188 C 105.328125 192.742188 108.109375 189.960938 108.109375 186.5625 C 107.953125 183.167969 105.328125 180.386719 101.929688 180.386719 Z M 101.929688 180.386719 "/>
<path style=" stroke:none;fill-rule:nonzero;fill:rgb(13.72549%,12.156863%,12.54902%);fill-opacity:1;" d="M 91.738281 31.816406 L 84.632812 31.816406 C 84.015625 31.816406 83.398438 32.277344 83.398438 33.050781 C 83.398438 33.667969 83.859375 34.285156 84.632812 34.285156 L 91.738281 34.285156 C 92.355469 34.285156 92.972656 33.824219 92.972656 33.050781 C 92.820312 32.277344 92.355469 31.816406 91.738281 31.816406 Z M 91.738281 31.816406 "/>
<path style=" stroke:none;fill-rule:nonzero;fill:rgb(13.72549%,12.156863%,12.54902%);fill-opacity:1;" d="M 119.226562 31.816406 L 96.832031 31.816406 C 96.214844 31.816406 95.597656 32.277344 95.597656 33.050781 C 95.597656 33.667969 96.0625 34.285156 96.832031 34.285156 L 119.226562 34.285156 C 119.84375 34.285156 120.464844 33.824219 120.464844 33.050781 C 120.308594 32.277344 119.84375 31.816406 119.226562 31.816406 Z M 119.226562 31.816406 "/>
<path style=" stroke:none;fill-rule:nonzero;fill:rgb(100%,100%,100%);fill-opacity:1;" d="M 140.695312 54.515625 C 138.6875 49.265625 138.222656 43.550781 139.613281 37.683594 C 143.167969 21.621094 158.917969 11.738281 174.980469 15.289062 C 190.886719 18.839844 200.925781 34.75 197.375 50.65625 C 193.824219 66.5625 177.914062 76.601562 162.007812 73.050781 C 156.140625 71.660156 151.195312 68.726562 147.335938 64.863281 L 133.128906 66.5625 Z M 140.695312 54.515625 "/>
<path style=" stroke:none;fill-rule:nonzero;fill:rgb(13.72549%,12.156863%,12.54902%);fill-opacity:1;" d="M 108.261719 98.839844 C 108.261719 98.839844 108.417969 98.839844 108.417969 98.839844 C 109.035156 98.839844 109.5 98.378906 109.5 97.914062 C 109.808594 96.371094 111.195312 95.289062 112.742188 95.289062 C 114.285156 95.289062 115.675781 96.371094 115.984375 97.914062 C 116.140625 98.53125 116.757812 98.996094 117.375 98.839844 C 117.992188 98.6875 118.457031 98.070312 118.300781 97.453125 C 117.835938 94.828125 115.519531 92.820312 112.742188 92.820312 C 109.960938 92.820312 107.644531 94.828125 107.179688 97.453125 C 107.179688 98.070312 107.644531 98.6875 108.261719 98.839844 Z M 108.261719 98.839844 "/>
<path style=" stroke:none;fill-rule:nonzero;fill:rgb(13.72549%,12.156863%,12.54902%);fill-opacity:1;" d="M 86.175781 98.839844 C 86.796875 98.996094 87.414062 98.53125 87.566406 97.914062 C 87.875 96.371094 89.265625 95.289062 90.8125 95.289062 C 92.355469 95.289062 93.746094 96.371094 94.054688 97.914062 C 94.207031 98.53125 94.671875 98.839844 95.136719 98.839844 C 95.136719 98.839844 95.289062 98.839844 95.289062 98.839844 C 95.90625 98.6875 96.371094 98.070312 96.214844 97.453125 C 95.753906 94.828125 93.4375 92.820312 90.65625 92.820312 C 87.875 92.820312 85.558594 94.828125 85.097656 97.453125 C 85.25 98.070312 85.558594 98.6875 86.175781 98.839844 Z M 86.175781 98.839844 "/>
<path style=" stroke:none;fill-rule:nonzero;fill:rgb(13.72549%,12.156863%,12.54902%);fill-opacity:1;" d="M 92.820312 114.902344 C 93.898438 118.917969 97.605469 121.699219 101.929688 121.699219 C 106.101562 121.699219 109.808594 118.917969 111.042969 114.902344 L 111.503906 113.359375 L 92.355469 113.359375 Z M 108.109375 115.675781 C 106.871094 117.835938 104.554688 119.382812 101.929688 119.382812 C 99.304688 119.382812 96.988281 117.992188 95.753906 115.675781 Z M 108.109375 115.675781 "/>
<path style=" stroke:none;fill-rule:nonzero;fill:rgb(13.72549%,12.156863%,12.54902%);fill-opacity:1;" d="M 194.441406 27.800781 C 190.117188 20.847656 183.167969 16.0625 175.136719 14.207031 C 172.820312 13.746094 170.65625 13.4375 168.339844 13.4375 C 158.917969 13.4375 150.425781 17.605469 144.710938 24.402344 L 43.550781 24.402344 L 43.550781 200 L 160 200 L 160 73.824219 C 160.464844 73.976562 160.925781 74.132812 161.542969 74.285156 C 163.859375 74.75 166.023438 75.058594 168.339844 75.058594 C 182.855469 75.058594 195.058594 65.171875 198.300781 51.121094 C 200.15625 42.933594 198.765625 34.75 194.441406 27.800781 Z M 45.867188 26.71875 L 143.011719 26.71875 C 140.847656 29.808594 139.304688 33.511719 138.378906 37.375 C 138.070312 38.457031 137.914062 39.535156 137.761719 40.773438 L 45.867188 40.773438 Z M 157.835938 197.683594 L 45.867188 197.683594 L 45.867188 173.128906 L 157.683594 173.128906 L 157.683594 197.683594 Z M 101.160156 148.570312 L 102.546875 148.570312 C 107.644531 148.570312 111.816406 144.402344 111.816406 139.304688 L 111.816406 135.445312 C 124.789062 139.613281 134.363281 151.816406 134.363281 166.332031 L 134.363281 170.8125 L 122.007812 170.8125 L 122.007812 160.617188 L 119.691406 160.617188 L 119.691406 170.8125 L 84.015625 170.8125 L 84.015625 160.617188 L 81.699219 160.617188 L 81.699219 170.8125 L 69.34375 170.8125 L 69.34375 166.332031 C 69.34375 151.96875 78.765625 139.769531 91.890625 135.445312 L 91.890625 139.304688 C 91.890625 144.402344 96.0625 148.570312 101.160156 148.570312 Z M 77.835938 101.160156 C 76.601562 101.160156 75.519531 100.078125 75.519531 98.839844 C 75.519531 97.605469 76.601562 96.523438 77.835938 96.523438 L 79.226562 96.523438 L 79.226562 90.347656 C 89.730469 89.265625 99.152344 83.707031 105.171875 75.210938 C 108.417969 83.242188 115.832031 89.113281 124.324219 90.347656 L 124.324219 96.679688 L 125.714844 96.679688 C 126.949219 96.679688 128.03125 97.761719 128.03125 98.996094 C 128.03125 100.230469 126.949219 101.3125 125.714844 101.3125 L 124.324219 101.3125 L 124.324219 107.179688 C 124.480469 119.535156 114.285156 129.730469 101.929688 129.730469 C 89.421875 129.730469 79.382812 119.535156 79.382812 107.179688 L 79.382812 101.3125 L 77.835938 101.3125 Z M 78.917969 67.492188 C 76.140625 61.929688 75.832031 55.136719 75.832031 52.046875 C 79.691406 54.054688 90.191406 58.53125 104.863281 58.53125 C 107.179688 58.53125 109.652344 58.378906 111.96875 58.222656 C 116.140625 57.761719 119.691406 61.160156 120 65.484375 L 120 66.253906 L 120.773438 66.5625 C 126.332031 68.570312 130.039062 73.976562 130.039062 79.84375 L 130.039062 97.296875 C 129.421875 95.90625 128.183594 94.828125 126.640625 94.515625 L 126.640625 90.65625 C 127.105469 90.65625 127.414062 90.65625 127.875 90.65625 C 128.496094 90.65625 129.113281 90.191406 129.113281 89.421875 C 129.113281 88.804688 128.648438 88.183594 127.875 88.183594 C 127.105469 88.183594 126.488281 88.183594 125.714844 88.03125 C 116.757812 87.105469 109.1875 80.773438 106.71875 72.125 C 106.5625 71.660156 106.253906 71.351562 105.792969 71.351562 C 105.328125 71.351562 104.863281 71.503906 104.710938 71.96875 C 98.996094 81.390625 89.113281 87.414062 78.148438 88.183594 C 77.375 88.183594 76.449219 88.339844 75.675781 88.339844 C 75.058594 88.339844 74.441406 88.804688 74.441406 89.574219 C 74.441406 90.191406 74.902344 90.8125 75.675781 90.8125 C 76.140625 90.8125 76.601562 90.8125 77.066406 90.8125 L 77.066406 94.671875 C 75.519531 94.980469 74.285156 96.0625 73.667969 97.453125 L 73.667969 79.691406 C 73.667969 75.519531 75.519531 71.503906 78.765625 68.878906 L 79.535156 68.261719 Z M 130.039062 100.695312 L 130.039062 101.46875 C 130.039062 103.476562 128.648438 105.328125 126.640625 105.792969 L 126.640625 103.476562 C 128.339844 103.167969 129.574219 102.085938 130.039062 100.695312 Z M 76.910156 103.476562 L 76.910156 105.792969 C 75.058594 105.328125 73.511719 103.476562 73.511719 101.46875 L 73.511719 100.695312 C 74.285156 102.085938 75.519531 103.167969 76.910156 103.476562 Z M 94.207031 130.8125 C 96.679688 131.582031 99.152344 132.046875 101.929688 132.046875 C 104.554688 132.046875 107.179688 131.582031 109.652344 130.8125 L 109.652344 139.304688 C 109.652344 143.167969 106.5625 146.253906 102.703125 146.253906 L 101.3125 146.253906 C 97.453125 146.253906 94.363281 143.167969 94.363281 139.304688 L 94.363281 130.8125 Z M 157.835938 170.8125 L 136.679688 170.8125 L 136.679688 166.332031 C 136.679688 150.578125 126.175781 137.296875 111.816406 133.128906 L 111.816406 130.039062 C 120.308594 126.332031 126.175781 117.992188 126.640625 108.417969 C 129.882812 107.953125 132.355469 105.171875 132.355469 101.777344 L 132.355469 79.691406 C 132.355469 73.050781 128.339844 67.027344 122.164062 64.402344 C 121.390625 59.152344 116.910156 55.136719 111.660156 55.753906 C 109.34375 55.90625 107.027344 56.0625 104.710938 56.0625 C 86.949219 56.0625 75.367188 49.113281 75.210938 49.113281 L 73.667969 48.183594 L 73.511719 50.039062 C 73.511719 50.5 72.742188 59.921875 76.449219 67.800781 C 73.203125 70.886719 71.351562 75.210938 71.351562 79.84375 L 71.351562 101.621094 C 71.351562 105.019531 73.824219 107.800781 77.066406 108.261719 C 77.527344 117.992188 83.550781 126.175781 91.890625 129.882812 L 91.890625 132.972656 C 77.527344 137.296875 67.027344 150.578125 67.027344 166.332031 L 67.027344 170.8125 L 45.867188 170.8125 L 45.867188 43.089844 L 137.605469 43.089844 C 137.453125 46.949219 138.070312 50.65625 139.304688 54.363281 L 131.890625 65.945312 C 131.582031 66.253906 131.582031 66.871094 131.890625 67.179688 C 132.199219 67.492188 132.507812 67.800781 132.972656 67.644531 L 146.5625 65.945312 C 149.652344 69.035156 153.511719 71.503906 157.683594 73.050781 L 157.683594 170.8125 Z M 196.140625 50.347656 C 193.203125 63.320312 181.621094 72.585938 168.339844 72.585938 C 166.175781 72.585938 164.167969 72.277344 162.007812 71.816406 C 156.601562 70.578125 151.660156 67.800781 147.800781 63.9375 C 147.644531 63.785156 147.335938 63.628906 147.027344 63.628906 C 147.027344 63.628906 146.871094 63.628906 146.871094 63.628906 L 135.136719 65.019531 L 141.46875 55.136719 C 141.621094 54.828125 141.777344 54.515625 141.621094 54.054688 C 139.613281 48.804688 139.304688 43.242188 140.539062 37.835938 C 143.476562 25.019531 155.058594 15.597656 168.183594 15.597656 C 170.347656 15.597656 172.355469 15.90625 174.515625 16.371094 C 181.929688 18.070312 188.261719 22.546875 192.277344 28.878906 C 196.449219 35.367188 197.835938 42.933594 196.140625 50.347656 Z M 196.140625 50.347656 "/>
<path style=" stroke:none;fill-rule:nonzero;fill:rgb(100%,43.921569%,34.509804%);fill-opacity:1;" d="M 168.183594 61.003906 C 164.480469 59.304688 152.277344 52.820312 152.277344 39.691406 C 152.277344 35.367188 155.832031 31.816406 160.15625 31.816406 C 162.316406 31.816406 164.480469 32.742188 166.023438 34.441406 L 168.183594 36.910156 L 170.347656 34.441406 C 171.890625 32.742188 174.054688 31.816406 176.214844 31.816406 C 180.539062 31.816406 184.09375 35.367188 184.09375 39.691406 C 184.246094 52.664062 171.890625 59.304688 168.183594 61.003906 Z M 168.183594 61.003906 "/>
<path style=" stroke:none;fill-rule:nonzero;fill:rgb(100%,43.921569%,34.509804%);fill-opacity:1;" d="M 61.3125 107.179688 C 61.3125 122.195312 49.144531 134.363281 34.132812 134.363281 C 19.121094 134.363281 6.949219 122.195312 6.949219 107.179688 C 6.949219 92.167969 19.121094 80 34.132812 80 C 49.144531 80 61.3125 92.167969 61.3125 107.179688 Z M 61.3125 107.179688 "/>
<path style=" stroke:none;fill-rule:nonzero;fill:rgb(13.72549%,12.156863%,12.54902%);fill-opacity:1;" d="M 2.933594 107.179688 L 0.617188 107.179688 C 0.617188 106.71875 0.617188 106.101562 0.617188 105.636719 L 2.933594 105.792969 C 2.933594 106.101562 2.933594 106.5625 2.933594 107.179688 Z M 3.089844 104.09375 L 0.773438 103.9375 C 0.773438 103.476562 0.925781 102.855469 0.925781 102.394531 L 3.242188 102.703125 C 3.089844 103.167969 3.089844 103.628906 3.089844 104.09375 Z M 3.398438 101.160156 L 1.082031 100.695312 C 1.234375 100.230469 1.234375 99.613281 1.390625 99.152344 L 3.707031 99.769531 C 3.707031 100.230469 3.550781 100.695312 3.398438 101.160156 Z M 4.167969 98.222656 L 2.007812 97.605469 C 2.164062 97.144531 2.316406 96.523438 2.472656 96.0625 L 4.632812 96.832031 C 4.480469 97.296875 4.324219 97.761719 4.167969 98.222656 Z M 5.097656 95.445312 L 2.933594 94.515625 C 3.089844 94.054688 3.398438 93.589844 3.550781 92.972656 L 5.714844 93.898438 C 5.558594 94.515625 5.25 94.980469 5.097656 95.445312 Z M 6.332031 92.820312 L 4.324219 91.738281 C 4.632812 91.273438 4.789062 90.8125 5.097656 90.347656 L 7.105469 91.582031 C 6.796875 91.890625 6.640625 92.355469 6.332031 92.820312 Z M 7.875 90.191406 L 5.867188 88.957031 C 6.175781 88.496094 6.488281 88.03125 6.796875 87.566406 L 8.648438 88.957031 C 8.339844 89.421875 8.183594 89.730469 7.875 90.191406 Z M 9.574219 87.722656 L 7.722656 86.332031 C 8.03125 85.867188 8.339844 85.558594 8.804688 85.097656 L 10.5 86.640625 C 10.191406 86.949219 9.882812 87.414062 9.574219 87.722656 Z M 11.582031 85.558594 L 9.882812 84.015625 C 10.191406 83.707031 10.65625 83.242188 10.964844 82.933594 L 12.507812 84.632812 C 12.199219 84.789062 11.890625 85.097656 11.582031 85.558594 Z M 13.746094 83.398438 L 12.199219 81.699219 C 12.664062 81.390625 12.972656 81.082031 13.4375 80.617188 L 14.828125 82.472656 C 14.515625 82.78125 14.054688 83.089844 13.746094 83.398438 Z M 16.0625 81.542969 L 14.671875 79.691406 C 15.136719 79.382812 15.597656 79.074219 16.0625 78.765625 L 17.296875 80.773438 C 16.832031 81.082031 16.371094 81.390625 16.0625 81.542969 Z M 18.53125 80 L 17.296875 77.992188 C 17.761719 77.683594 18.222656 77.527344 18.6875 77.21875 L 19.769531 79.226562 C 19.460938 79.535156 18.996094 79.691406 18.53125 80 Z M 21.160156 78.609375 L 20.230469 76.449219 C 20.695312 76.292969 21.160156 75.984375 21.777344 75.832031 L 22.703125 77.992188 C 22.085938 78.300781 21.621094 78.457031 21.160156 78.609375 Z M 23.9375 77.527344 L 23.167969 75.367188 C 23.628906 75.210938 24.246094 75.058594 24.710938 74.902344 L 25.328125 77.066406 C 24.863281 77.21875 24.402344 77.375 23.9375 77.527344 Z M 26.71875 76.757812 L 26.253906 74.441406 C 26.71875 74.285156 27.335938 74.132812 27.800781 74.132812 L 28.261719 76.449219 C 27.800781 76.449219 27.335938 76.601562 26.71875 76.757812 Z M 29.652344 76.140625 L 29.34375 73.824219 C 29.808594 73.824219 30.425781 73.667969 30.886719 73.667969 L 31.042969 75.984375 C 30.734375 75.984375 30.269531 76.140625 29.652344 76.140625 Z M 32.742188 75.832031 L 32.585938 73.511719 C 33.050781 73.511719 33.667969 73.511719 34.132812 73.511719 L 34.132812 75.832031 C 33.667969 75.832031 33.203125 75.832031 32.742188 75.832031 Z M 32.742188 75.832031 "/>
<path style=" stroke:none;fill-rule:nonzero;fill:rgb(100%,100%,100%);fill-opacity:1;" d="M 27.800781 95.289062 L 27.800781 118.917969 L 45.40625 107.179688 Z M 27.800781 95.289062 "/>
<path style=" stroke:none;fill-rule:nonzero;fill:rgb(13.72549%,12.156863%,12.54902%);fill-opacity:1;" d="M 26.71875 121.082031 L 26.71875 93.128906 L 47.566406 107.027344 Z M 29.035156 97.453125 L 29.035156 116.601562 L 43.398438 107.027344 Z M 29.035156 97.453125 "/>
<path style=" stroke:none;fill-rule:nonzero;fill:rgb(100%,81.568627%,35.686275%);fill-opacity:1;" d="M 199.382812 140.230469 C 199.382812 154.304688 187.972656 165.714844 173.898438 165.714844 C 159.824219 165.714844 148.417969 154.304688 148.417969 140.230469 C 148.417969 126.15625 159.824219 114.75 173.898438 114.75 C 187.972656 114.75 199.382812 126.15625 199.382812 140.230469 Z M 199.382812 140.230469 "/>
<path style=" stroke:none;fill-rule:nonzero;fill:rgb(100%,100%,100%);fill-opacity:1;" d="M 158.148438 146.101562 C 160.464844 152.433594 166.640625 157.066406 173.898438 157.066406 C 181.160156 157.066406 187.179688 152.585938 189.652344 146.101562 Z M 158.148438 146.101562 "/>
<path style=" stroke:none;fill-rule:nonzero;fill:rgb(13.72549%,12.156863%,12.54902%);fill-opacity:1;" d="M 173.898438 158.148438 C 166.488281 158.148438 159.691406 153.511719 157.066406 146.410156 C 156.910156 146.101562 156.910156 145.636719 157.21875 145.328125 C 157.375 145.019531 157.835938 144.863281 158.148438 144.863281 L 189.652344 144.863281 C 189.960938 144.863281 190.425781 145.019531 190.578125 145.328125 C 190.734375 145.636719 190.886719 146.101562 190.734375 146.410156 C 188.261719 153.511719 181.46875 158.148438 173.898438 158.148438 Z M 160 147.335938 C 162.625 152.585938 168.03125 155.984375 174.054688 155.984375 C 179.921875 155.984375 185.328125 152.585938 188.109375 147.335938 Z M 160 147.335938 "/>
<path style=" stroke:none;fill-rule:nonzero;fill:rgb(100%,100%,100%);fill-opacity:1;" d="M 187.800781 133.898438 C 187.800781 136.03125 186.070312 137.761719 183.9375 137.761719 C 181.804688 137.761719 180.078125 136.03125 180.078125 133.898438 C 180.078125 131.765625 181.804688 130.039062 183.9375 130.039062 C 186.070312 130.039062 187.800781 131.765625 187.800781 133.898438 Z M 187.800781 133.898438 "/>
<path style=" stroke:none;fill-rule:nonzero;fill:rgb(13.72549%,12.156863%,12.54902%);fill-opacity:1;" d="M 183.9375 138.996094 C 181.160156 138.996094 178.839844 136.679688 178.839844 133.898438 C 178.839844 131.121094 181.160156 128.804688 183.9375 128.804688 C 186.71875 128.804688 189.035156 131.121094 189.035156 133.898438 C 189.035156 136.679688 186.71875 138.996094 183.9375 138.996094 Z M 183.9375 131.121094 C 182.394531 131.121094 181.160156 132.355469 181.160156 133.898438 C 181.160156 135.445312 182.394531 136.679688 183.9375 136.679688 C 185.484375 136.679688 186.71875 135.445312 186.71875 133.898438 C 186.71875 132.355469 185.484375 131.121094 183.9375 131.121094 Z M 183.9375 131.121094 "/>
<path style=" stroke:none;fill-rule:nonzero;fill:rgb(100%,100%,100%);fill-opacity:1;" d="M 167.875 133.898438 C 167.875 136.03125 166.148438 137.761719 164.015625 137.761719 C 161.882812 137.761719 160.15625 136.03125 160.15625 133.898438 C 160.15625 131.765625 161.882812 130.039062 164.015625 130.039062 C 166.148438 130.039062 167.875 131.765625 167.875 133.898438 Z M 167.875 133.898438 "/>
<path style=" stroke:none;fill-rule:nonzero;fill:rgb(13.72549%,12.156863%,12.54902%);fill-opacity:1;" d="M 164.015625 138.996094 C 161.234375 138.996094 158.917969 136.679688 158.917969 133.898438 C 158.917969 131.121094 161.234375 128.804688 164.015625 128.804688 C 166.796875 128.804688 169.113281 131.121094 169.113281 133.898438 C 169.113281 136.679688 166.796875 138.996094 164.015625 138.996094 Z M 164.015625 131.121094 C 162.472656 131.121094 161.234375 132.355469 161.234375 133.898438 C 161.234375 135.445312 162.472656 136.679688 164.015625 136.679688 C 165.558594 136.679688 166.796875 135.445312 166.796875 133.898438 C 166.796875 132.355469 165.558594 131.121094 164.015625 131.121094 Z M 164.015625 131.121094 "/>
<path style=" stroke:none;fill-rule:nonzero;fill:rgb(100%,100%,100%);fill-opacity:1;" d="M 33.976562 23.476562 C 35.058594 20.539062 35.367188 17.296875 34.59375 14.054688 C 32.742188 5.097656 23.785156 -0.464844 14.828125 1.542969 C 5.867188 3.550781 0.308594 12.507812 2.316406 21.3125 C 4.324219 30.269531 13.28125 35.832031 22.085938 33.824219 C 25.328125 33.050781 28.109375 31.503906 30.269531 29.1875 L 38.148438 30.117188 Z M 33.976562 23.476562 "/>
<path style=" stroke:none;fill-rule:nonzero;fill:rgb(13.72549%,12.156863%,12.54902%);fill-opacity:1;" d="M 18.53125 35.519531 C 10.191406 35.519531 3.089844 29.808594 1.234375 21.621094 C 0.15625 16.988281 1.082031 12.199219 3.550781 8.183594 C 6.023438 4.324219 10.039062 1.542969 14.671875 0.464844 C 15.90625 0.15625 17.296875 0 18.53125 0 C 26.871094 0 33.976562 5.714844 35.832031 13.898438 C 36.601562 17.144531 36.449219 20.386719 35.367188 23.476562 L 39.382812 29.808594 C 39.691406 30.117188 39.691406 30.734375 39.382812 31.042969 C 39.074219 31.351562 38.765625 31.660156 38.300781 31.503906 L 30.886719 30.425781 C 28.570312 32.742188 25.636719 34.285156 22.546875 34.902344 C 21.160156 35.367188 19.769531 35.519531 18.53125 35.519531 Z M 18.53125 2.316406 C 17.453125 2.316406 16.214844 2.472656 15.136719 2.625 C 11.121094 3.550781 7.722656 6.023438 5.558594 9.574219 C 3.398438 13.128906 2.625 17.144531 3.550781 21.160156 C 5.097656 28.109375 11.429688 33.203125 18.53125 33.203125 C 19.613281 33.203125 20.847656 33.050781 21.929688 32.894531 C 24.863281 32.277344 27.492188 30.734375 29.652344 28.570312 C 29.960938 28.261719 30.269531 28.261719 30.578125 28.261719 L 36.140625 28.878906 L 33.203125 24.246094 C 33.050781 23.9375 32.894531 23.628906 33.050781 23.167969 C 34.132812 20.386719 34.285156 17.296875 33.667969 14.363281 C 31.96875 7.414062 25.636719 2.316406 18.53125 2.316406 Z M 18.53125 2.316406 "/>
<path style=" stroke:none;fill-rule:nonzero;fill:rgb(13.72549%,12.156863%,12.54902%);fill-opacity:1;" d="M 10.191406 11.121094 L 27.027344 11.121094 L 27.027344 13.4375 L 10.191406 13.4375 Z M 10.191406 11.121094 "/>
<path style=" stroke:none;fill-rule:nonzero;fill:rgb(13.72549%,12.156863%,12.54902%);fill-opacity:1;" d="M 10.191406 15.90625 L 27.027344 15.90625 L 27.027344 18.222656 L 10.191406 18.222656 Z M 10.191406 15.90625 "/>
<path style=" stroke:none;fill-rule:nonzero;fill:rgb(13.72549%,12.156863%,12.54902%);fill-opacity:1;" d="M 10.191406 20.539062 L 20.847656 20.539062 L 20.847656 22.855469 L 10.191406 22.855469 Z M 10.191406 20.539062 "/>
</g>
</svg>
