<?xml version="1.0" encoding="utf-8"?>
<!-- Generator: Adobe Illustrator 18.0.0, SVG Export Plug-In . SVG Version: 6.00 Build 0)  -->
<!DOCTYPE svg PUBLIC "-//W3C//DTD SVG 1.1//EN" "http://www.w3.org/Graphics/SVG/1.1/DTD/svg11.dtd">
<svg version="1.1" id="Layer_1" xmlns="http://www.w3.org/2000/svg" xmlns:xlink="http://www.w3.org/1999/xlink" x="0px" y="0px"
	 viewBox="0 0 129.5 129.5" enable-background="new 0 0 129.5 129.5" xml:space="preserve">
<g>
	<g>
		<path fill="#231F20" d="M39.8,4.5c-0.2,0-0.4-0.1-0.5-0.2C39,4,39,3.5,39.3,3.2l1.3-1.3c0.3-0.3,0.8-0.3,1.1,0
			c0.3,0.3,0.3,0.8,0,1.1l-1.3,1.3C40.2,4.4,40,4.5,39.8,4.5z"/>
	</g>
	<g>
		<path fill="#231F20" d="M35.8,8.5c-0.2,0-0.4-0.1-0.5-0.2C35,8,35,7.6,35.3,7.3L36.6,6c0.3-0.3,0.8-0.3,1.1,0
			c0.3,0.3,0.3,0.8,0,1.1l-1.3,1.3C36.2,8.5,36,8.5,35.8,8.5z"/>
	</g>
	<g>
		<path fill="#231F20" d="M41.1,8.5c-0.2,0-0.4-0.1-0.5-0.2L39.3,7C39,6.7,39,6.3,39.3,6c0.3-0.3,0.8-0.3,1.1,0l1.3,1.3
			c0.3,0.3,0.3,0.8,0,1.1C41.5,8.5,41.3,8.5,41.1,8.5z"/>
	</g>
	<g>
		<path fill="#231F20" d="M37.1,4.5c-0.2,0-0.4-0.1-0.5-0.2L35.3,3c-0.3-0.3-0.3-0.8,0-1.1c0.3-0.3,0.8-0.3,1.1,0l1.3,1.3
			c0.3,0.3,0.3,0.8,0,1.1C37.5,4.4,37.3,4.5,37.1,4.5z"/>
	</g>
	<g>
		<path fill="#231F20" d="M124.2,57.2c-0.2,0-0.4-0.1-0.5-0.2c-0.3-0.3-0.3-0.8,0-1.1l1.3-1.3c0.3-0.3,0.8-0.3,1.1,0
			c0.3,0.3,0.3,0.8,0,1.1l-1.3,1.3C124.6,57.2,124.4,57.2,124.2,57.2z"/>
	</g>
	<g>
		<path fill="#231F20" d="M120.2,61.3c-0.2,0-0.4-0.1-0.5-0.2c-0.3-0.3-0.3-0.8,0-1.1l1.3-1.3c0.3-0.3,0.8-0.3,1.1,0
			c0.3,0.3,0.3,0.8,0,1.1l-1.3,1.3C120.6,61.2,120.4,61.3,120.2,61.3z"/>
	</g>
	<g>
		<path fill="#231F20" d="M125.5,61.3c-0.2,0-0.4-0.1-0.5-0.2l-1.3-1.3c-0.3-0.3-0.3-0.8,0-1.1c0.3-0.3,0.8-0.3,1.1,0L126,60
			c0.3,0.3,0.3,0.8,0,1.1C125.9,61.2,125.7,61.3,125.5,61.3z"/>
	</g>
	<g>
		<path fill="#231F20" d="M121.5,57.2c-0.2,0-0.4-0.1-0.5-0.2l-1.3-1.3c-0.3-0.3-0.3-0.8,0-1.1c0.3-0.3,0.8-0.3,1.1,0L122,56
			c0.3,0.3,0.3,0.8,0,1.1C121.9,57.2,121.7,57.2,121.5,57.2z"/>
	</g>
	<g>
		<path fill="#231F20" d="M11.4,107c-0.2,0-0.4-0.1-0.5-0.2c-0.3-0.3-0.3-0.8,0-1.1l1.3-1.3c0.3-0.3,0.8-0.3,1.1,0
			c0.3,0.3,0.3,0.8,0,1.1l-1.3,1.3C11.8,106.9,11.6,107,11.4,107z"/>
	</g>
	<g>
		<path fill="#231F20" d="M7.4,111c-0.2,0-0.4-0.1-0.5-0.2c-0.3-0.3-0.3-0.8,0-1.1l1.3-1.3c0.3-0.3,0.8-0.3,1.1,0
			c0.3,0.3,0.3,0.8,0,1.1l-1.3,1.3C7.8,111,7.6,111,7.4,111z"/>
	</g>
	<g>
		<path fill="#231F20" d="M12.7,111c-0.2,0-0.4-0.1-0.5-0.2l-1.3-1.3c-0.3-0.3-0.3-0.8,0-1.1c0.3-0.3,0.8-0.3,1.1,0l1.3,1.3
			c0.3,0.3,0.3,0.8,0,1.1C13.1,111,12.9,111,12.7,111z"/>
	</g>
	<g>
		<path fill="#231F20" d="M8.7,107c-0.2,0-0.4-0.1-0.5-0.2l-1.3-1.3c-0.3-0.3-0.3-0.8,0-1.1c0.3-0.3,0.8-0.3,1.1,0l1.3,1.3
			c0.3,0.3,0.3,0.8,0,1.1C9.1,106.9,8.9,107,8.7,107z"/>
	</g>
	<g>
		<path fill="#231F20" d="M85.3,3h-8.1c-0.4,0-0.8-0.3-0.8-0.8c0-0.4,0.3-0.8,0.8-0.8h8.1c0.4,0,0.8,0.3,0.8,0.8
			C86.1,2.7,85.7,3,85.3,3z"/>
	</g>
	<g>
		<path fill="#231F20" d="M88.5,6h-4c-0.4,0-0.8-0.3-0.8-0.8c0-0.4,0.3-0.8,0.8-0.8h4c0.4,0,0.8,0.3,0.8,0.8C89.3,5.6,88.9,6,88.5,6
			z"/>
	</g>
	<g>
		<path fill="#231F20" d="M92.8,3H89c-0.4,0-0.8-0.3-0.8-0.8c0-0.4,0.3-0.8,0.8-0.8h3.8c0.4,0,0.8,0.3,0.8,0.8
			C93.5,2.7,93.2,3,92.8,3z"/>
	</g>
	<g>
		<path fill="#231F20" d="M81.7,6h-0.8c-0.4,0-0.8-0.3-0.8-0.8c0-0.4,0.3-0.8,0.8-0.8h0.8c0.4,0,0.8,0.3,0.8,0.8
			C82.4,5.6,82.1,6,81.7,6z"/>
	</g>
	<g>
		<path fill="#231F20" d="M116.9,119.3h-8.1c-0.4,0-0.8-0.3-0.8-0.8s0.3-0.8,0.8-0.8h8.1c0.4,0,0.8,0.3,0.8,0.8
			S117.3,119.3,116.9,119.3z"/>
	</g>
	<g>
		<path fill="#231F20" d="M120.1,122.2h-4c-0.4,0-0.8-0.3-0.8-0.8c0-0.4,0.3-0.8,0.8-0.8h4c0.4,0,0.8,0.3,0.8,0.8
			C120.8,121.9,120.5,122.2,120.1,122.2z"/>
	</g>
	<g>
		<path fill="#231F20" d="M124.3,119.3h-3.8c-0.4,0-0.8-0.3-0.8-0.8s0.3-0.8,0.8-0.8h3.8c0.4,0,0.8,0.3,0.8,0.8
			S124.8,119.3,124.3,119.3z"/>
	</g>
	<g>
		<path fill="#231F20" d="M113.2,122.2h-0.8c-0.4,0-0.8-0.3-0.8-0.8c0-0.4,0.3-0.8,0.8-0.8h0.8c0.4,0,0.8,0.3,0.8,0.8
			C114,121.9,113.6,122.2,113.2,122.2z"/>
	</g>
	<rect x="29" y="111.3" fill="#E6E9EE" width="73.9" height="17.4"/>
	<rect x="29" y="16.6" fill="#E6E9EE" width="73.9" height="10.6"/>
	<rect x="29" y="27.1" fill="#FFFFFF" width="73.9" height="84.2"/>
	<path fill="#84DBFF" d="M87.7,111.3v-3.7c0-12-9.8-21.8-21.8-21.8l0,0c-12,0-21.8,9.8-21.8,21.8v3.7H87.7z"/>
	<path fill="#FFFFFF" d="M71.7,80.6H60.2v9.6c0,2.9,2.4,5.3,5.3,5.3h0.9c2.9,0,5.3-2.4,5.3-5.3V80.6z"/>
	<path fill="#FFD05B" d="M78.5,42.3c-0.2-3.3-2.9-5.7-6.1-5.4c-14.4,1.4-24-4.4-24-4.4S47.8,39,50.4,44c-2.1,1.8-3.5,4.5-3.5,7.6
		v14.1c0,2,1.6,3.7,3.7,3.7h30.8c2,0,3.7-1.6,3.7-3.7V51.6C85,47.3,82.3,43.7,78.5,42.3z"/>
	<path fill="#FFFFFF" d="M81.5,61.8h-0.2v-4c-6.2-0.6-11.3-5-13-10.8c-3.7,6.1-10.3,10.3-17.8,10.8v4h-0.2c-1.2,0-2.2,1-2.2,2.2
		c0,1.2,1,2.2,2.2,2.2h0.2v3.1c0,8.5,6.9,15.4,15.4,15.4s15.4-6.9,15.4-15.4v-3.1h0.2c1.2,0,2.2-1,2.2-2.2
		C83.7,62.8,82.7,61.8,81.5,61.8z"/>
	<g>
		<circle fill="#FFFFFF" cx="66" cy="120.8" r="4.7"/>
		<path fill="#231F20" d="M66,126.2c-3,0-5.5-2.5-5.5-5.5c0-3,2.5-5.5,5.5-5.5c3,0,5.5,2.5,5.5,5.5C71.4,123.8,69,126.2,66,126.2z
			 M66,116.8c-2.2,0-4,1.8-4,4c0,2.2,1.8,4,4,4c2.2,0,4-1.8,4-4C69.9,118.6,68.2,116.8,66,116.8z"/>
	</g>
	<g>
		<path fill="#231F20" d="M59.4,20.6h-4.6c-0.4,0-0.8,0.3-0.8,0.8c0,0.4,0.3,0.8,0.8,0.8h4.6c0.4,0,0.8-0.3,0.8-0.8
			C60.1,20.9,59.8,20.6,59.4,20.6z"/>
		<path fill="#231F20" d="M77.2,20.6H62.7c-0.4,0-0.8,0.3-0.8,0.8c0,0.4,0.3,0.8,0.8,0.8h14.5c0.4,0,0.8-0.3,0.8-0.8
			C77.9,20.9,77.6,20.6,77.2,20.6z"/>
	</g>
	<path fill="#FFFFFF" d="M91.1,35.3c-1.3-3.4-1.6-7.1-0.7-10.9C92.7,14,102.9,7.6,113.3,9.9c10.3,2.3,16.8,12.6,14.5,22.9
		c-2.3,10.3-12.6,16.8-22.9,14.5c-3.8-0.9-7-2.8-9.5-5.3l-9.2,1.1L91.1,35.3z"/>
	<g>
		<path fill="#231F20" d="M70.1,64c0,0,0.1,0,0.1,0c0.4,0,0.7-0.3,0.7-0.6c0.2-1,1.1-1.7,2.1-1.7c1,0,1.9,0.7,2.1,1.7
			c0.1,0.4,0.5,0.7,0.9,0.6c0.4-0.1,0.7-0.5,0.6-0.9c-0.3-1.7-1.8-3-3.6-3c-1.8,0-3.3,1.3-3.6,3C69.4,63.5,69.7,63.9,70.1,64z"/>
		<path fill="#231F20" d="M55.8,64c0.4,0.1,0.8-0.2,0.9-0.6c0.2-1,1.1-1.7,2.1-1.7s1.9,0.7,2.1,1.7c0.1,0.4,0.4,0.6,0.7,0.6
			c0,0,0.1,0,0.1,0c0.4-0.1,0.7-0.5,0.6-0.9c-0.3-1.7-1.8-3-3.6-3c-1.8,0-3.3,1.3-3.6,3C55.2,63.5,55.4,63.9,55.8,64z"/>
		<path fill="#231F20" d="M60.1,74.4c0.7,2.6,3.1,4.4,5.9,4.4c2.7,0,5.1-1.8,5.9-4.4l0.3-1H59.8L60.1,74.4z M70,74.9
			c-0.8,1.4-2.3,2.4-4,2.4c-1.7,0-3.2-0.9-4-2.4H70z"/>
		<path fill="#231F20" d="M125.9,18c-2.8-4.5-7.3-7.6-12.5-8.8c-1.5-0.3-2.9-0.5-4.4-0.5c-6.1,0-11.6,2.7-15.3,7.1H28.2v113.7h75.4
			V47.8c0.3,0.1,0.6,0.2,1,0.3c1.5,0.3,2.9,0.5,4.4,0.5c9.4,0,17.3-6.4,19.4-15.5C129.6,27.8,128.7,22.5,125.9,18z M29.7,17.3h62.9
			c-1.4,2-2.4,4.4-3,6.9c-0.2,0.7-0.3,1.4-0.4,2.2H29.7V17.3z M102.2,128H29.7v-15.9h72.4V128z M65.5,96.2h0.9c3.3,0,6-2.7,6-6v-2.5
			c8.4,2.7,14.6,10.6,14.6,20v2.9h-8v-6.6h-1.5v6.6H54.4v-6.6h-1.5v6.6h-8v-2.9c0-9.3,6.1-17.2,14.6-20v2.5
			C59.5,93.5,62.2,96.2,65.5,96.2z M50.4,65.5c-0.8,0-1.5-0.7-1.5-1.5c0-0.8,0.7-1.5,1.5-1.5h0.9v-4c0,0,0,0,0,0
			c6.8-0.7,12.9-4.3,16.8-9.8c2.1,5.2,6.9,9,12.4,9.8l0,0v4.1h0.9c0.8,0,1.5,0.7,1.5,1.5c0,0.8-0.7,1.5-1.5,1.5h-0.9v3.8
			C80.6,77.4,74,84,66,84c-8.1,0-14.6-6.6-14.6-14.6v-3.8H50.4z M51.1,43.7c-1.8-3.6-2-8-2-10c2.5,1.3,9.3,4.2,18.8,4.2h0
			c1.5,0,3.1-0.1,4.6-0.2c2.7-0.3,5,1.9,5.2,4.7l0,0.5l0.5,0.2c3.6,1.3,6,4.8,6,8.6v11.3c-0.4-0.9-1.2-1.6-2.2-1.8v-2.5
			c0.3,0,0.5,0,0.8,0c0.4,0,0.8-0.3,0.8-0.8c0-0.4-0.3-0.8-0.8-0.8c-0.5,0-0.9,0-1.4-0.1c-5.8-0.6-10.7-4.7-12.3-10.3
			c-0.1-0.3-0.3-0.5-0.6-0.5c-0.3,0-0.6,0.1-0.7,0.4c-3.7,6.1-10.1,10-17.2,10.5c-0.5,0-1.1,0.1-1.6,0.1c-0.4,0-0.8,0.3-0.8,0.8
			c0,0.4,0.3,0.8,0.8,0.8c0.3,0,0.6,0,0.9,0v2.5c-1,0.2-1.8,0.9-2.2,1.8V51.6c0-2.7,1.2-5.3,3.3-7l0.5-0.4L51.1,43.7z M84.2,65.2
			v0.5c0,1.3-0.9,2.5-2.2,2.8V67C83.1,66.8,83.9,66.1,84.2,65.2z M49.8,67v1.5c-1.2-0.3-2.2-1.5-2.2-2.8v-0.5
			C48.1,66.1,48.9,66.8,49.8,67z M61,84.7c1.6,0.5,3.2,0.8,5,0.8c1.7,0,3.4-0.3,5-0.8v5.5c0,2.5-2,4.5-4.5,4.5h-0.9
			c-2.5,0-4.5-2-4.5-4.5V84.7z M102.2,110.6H88.5v-2.9c0-10.2-6.8-18.8-16.1-21.5v-2c5.5-2.4,9.3-7.8,9.6-14
			c2.1-0.3,3.7-2.1,3.7-4.3V51.6c0-4.3-2.6-8.2-6.6-9.9c-0.5-3.4-3.4-6-6.8-5.6c-1.5,0.1-3,0.2-4.5,0.2c0,0,0,0,0,0
			c-11.5,0-19-4.5-19.1-4.5l-1-0.6l-0.1,1.2c0,0.3-0.5,6.4,1.9,11.5c-2.1,2-3.3,4.8-3.3,7.8v14.1c0,2.2,1.6,4,3.7,4.3
			c0.3,6.3,4.2,11.6,9.6,14v2c-9.3,2.8-16.1,11.4-16.1,21.6v2.9H29.7V27.9h59.4c-0.1,2.5,0.3,4.9,1.1,7.3l-4.8,7.5
			c-0.2,0.2-0.2,0.6,0,0.8c0.2,0.2,0.4,0.4,0.7,0.3l8.8-1.1c2,2,4.5,3.6,7.2,4.6V110.6z M127,32.6C125.1,41,117.6,47,109,47
			c-1.4,0-2.7-0.2-4.1-0.5c-3.5-0.8-6.7-2.6-9.2-5.1c-0.1-0.1-0.3-0.2-0.5-0.2c0,0-0.1,0-0.1,0l-7.6,0.9l4.1-6.4
			c0.1-0.2,0.2-0.4,0.1-0.7c-1.3-3.4-1.5-7-0.7-10.5c1.9-8.3,9.4-14.4,17.9-14.4c1.4,0,2.7,0.2,4.1,0.5c4.8,1.1,8.9,4,11.5,8.1
			C127.2,22.9,128.1,27.8,127,32.6z"/>
	</g>
	<g>
		<path fill="#FF7058" d="M108.9,39.5c-2.4-1.1-10.3-5.3-10.3-13.8c0-2.8,2.3-5.1,5.1-5.1c1.4,0,2.8,0.6,3.8,1.7l1.4,1.6l1.4-1.6
			c1-1.1,2.4-1.7,3.8-1.7c2.8,0,5.1,2.3,5.1,5.1C119.3,34.1,111.3,38.4,108.9,39.5z"/>
	</g>
	<g>
		<g>
			<circle fill="#FF7058" cx="22.1" cy="69.4" r="17.6"/>
		</g>
		<g>
			<path fill="#231F20" d="M1.9,69.4H0.4c0-0.3,0-0.7,0-1l1.5,0.1C1.9,68.7,1.9,69,1.9,69.4z M2,67.4l-1.5-0.1c0-0.3,0.1-0.7,0.1-1
				l1.5,0.2C2,66.8,2,67.1,2,67.4z M2.2,65.5l-1.5-0.3c0.1-0.3,0.1-0.7,0.2-1l1.5,0.4C2.4,64.9,2.3,65.2,2.2,65.5z M2.7,63.6
				l-1.4-0.4c0.1-0.3,0.2-0.7,0.3-1L3,62.7C2.9,63,2.8,63.3,2.7,63.6z M3.3,61.8l-1.4-0.6c0.1-0.3,0.3-0.6,0.4-1l1.4,0.6
				C3.6,61.2,3.4,61.5,3.3,61.8z M4.1,60.1l-1.3-0.7c0.2-0.3,0.3-0.6,0.5-0.9l1.3,0.8C4.4,59.5,4.3,59.8,4.1,60.1z M5.1,58.4
				l-1.3-0.8C4,57.3,4.2,57,4.4,56.7l1.2,0.9C5.4,57.9,5.3,58.1,5.1,58.4z M6.2,56.8L5,55.9c0.2-0.3,0.4-0.5,0.7-0.8l1.1,1
				C6.6,56.3,6.4,56.6,6.2,56.8z M7.5,55.4l-1.1-1c0.2-0.2,0.5-0.5,0.7-0.7l1,1.1C7.9,54.9,7.7,55.1,7.5,55.4z M8.9,54l-1-1.1
				c0.3-0.2,0.5-0.4,0.8-0.7l0.9,1.2C9.4,53.6,9.1,53.8,8.9,54z M10.4,52.8l-0.9-1.2c0.3-0.2,0.6-0.4,0.9-0.6l0.8,1.3
				C10.9,52.5,10.6,52.7,10.4,52.8z M12,51.8l-0.8-1.3c0.3-0.2,0.6-0.3,0.9-0.5l0.7,1.3C12.6,51.5,12.3,51.6,12,51.8z M13.7,50.9
				l-0.6-1.4c0.3-0.1,0.6-0.3,1-0.4l0.6,1.4C14.3,50.7,14,50.8,13.7,50.9z M15.5,50.2L15,48.8c0.3-0.1,0.7-0.2,1-0.3l0.4,1.4
				C16.1,50,15.8,50.1,15.5,50.2z M17.3,49.7L17,48.2c0.3-0.1,0.7-0.2,1-0.2l0.3,1.5C18,49.5,17.7,49.6,17.3,49.7z M19.2,49.3
				L19,47.8c0.3,0,0.7-0.1,1-0.1l0.1,1.5C19.9,49.2,19.6,49.3,19.2,49.3z M21.2,49.1l-0.1-1.5c0.3,0,0.7,0,1,0l0,1.5
				C21.8,49.1,21.5,49.1,21.2,49.1z"/>
		</g>
		<g>
			<polygon fill="#FFFFFF" points="18,61.7 18,77 29.4,69.4 			"/>
			<path fill="#231F20" d="M17.3,78.4V60.3l13.5,9L17.3,78.4z M18.8,63.1v12.4l9.3-6.2L18.8,63.1z"/>
		</g>
	</g>
	<g>
		<circle fill="#FFD05B" cx="112.6" cy="90.8" r="16.5"/>
	</g>
	<g>
		<path fill="#FFFFFF" d="M102.4,94.6c1.5,4.1,5.5,7.1,10.2,7.1c4.7,0,8.6-2.9,10.2-7.1H102.4z"/>
		<path fill="#231F20" d="M112.6,102.4c-4.8,0-9.2-3-10.9-7.6c-0.1-0.2-0.1-0.5,0.1-0.7c0.1-0.2,0.4-0.3,0.6-0.3h20.4
			c0.2,0,0.5,0.1,0.6,0.3c0.1,0.2,0.2,0.5,0.1,0.7C121.9,99.4,117.5,102.4,112.6,102.4z M103.6,95.4c1.7,3.4,5.2,5.6,9.1,5.6
			c3.8,0,7.3-2.2,9.1-5.6H103.6z"/>
	</g>
	<g>
		<circle fill="#FFFFFF" cx="119.1" cy="86.7" r="2.5"/>
		<path fill="#231F20" d="M119.1,90c-1.8,0-3.3-1.5-3.3-3.3c0-1.8,1.5-3.3,3.3-3.3c1.8,0,3.3,1.5,3.3,3.3
			C122.4,88.5,120.9,90,119.1,90z M119.1,84.9c-1,0-1.8,0.8-1.8,1.8c0,1,0.8,1.8,1.8,1.8c1,0,1.8-0.8,1.8-1.8
			C120.9,85.7,120.1,84.9,119.1,84.9z"/>
	</g>
	<g>
		<circle fill="#FFFFFF" cx="106.2" cy="86.7" r="2.5"/>
		<path fill="#231F20" d="M106.2,90c-1.8,0-3.3-1.5-3.3-3.3c0-1.8,1.5-3.3,3.3-3.3s3.3,1.5,3.3,3.3C109.5,88.5,108,90,106.2,90z
			 M106.2,84.9c-1,0-1.8,0.8-1.8,1.8c0,1,0.8,1.8,1.8,1.8s1.8-0.8,1.8-1.8C108,85.7,107.2,84.9,106.2,84.9z"/>
	</g>
	<g>
		<path fill="#FFFFFF" d="M22,15.2c0.7-1.9,0.9-4,0.4-6.1C21.2,3.3,15.4-0.3,9.6,1C3.8,2.3,0.2,8.1,1.5,13.8
			c1.3,5.8,7.1,9.4,12.8,8.1c2.1-0.5,3.9-1.5,5.3-3l5.1,0.6L22,15.2z"/>
		<path fill="#231F20" d="M12,23c-5.4,0-10-3.7-11.2-9c-0.7-3-0.1-6.1,1.5-8.7C3.9,2.8,6.5,1,9.5,0.3C10.3,0.1,11.2,0,12,0
			c5.4,0,10,3.7,11.2,9c0.5,2.1,0.4,4.2-0.3,6.2l2.6,4.1c0.2,0.2,0.2,0.6,0,0.8c-0.2,0.2-0.4,0.4-0.7,0.3L20,19.7
			c-1.5,1.5-3.4,2.5-5.4,2.9C13.7,22.9,12.8,23,12,23z M12,1.5c-0.7,0-1.5,0.1-2.2,0.2C7.2,2.3,5,3.9,3.6,6.2
			c-1.4,2.3-1.9,4.9-1.3,7.5c1,4.5,5.1,7.8,9.7,7.8c0.7,0,1.5-0.1,2.2-0.2c1.9-0.4,3.6-1.4,5-2.8c0.2-0.2,0.4-0.2,0.6-0.2l3.6,0.4
			l-1.9-3c-0.1-0.2-0.2-0.4-0.1-0.7c0.7-1.8,0.8-3.8,0.4-5.7C20.7,4.8,16.6,1.5,12,1.5z"/>
	</g>
	<g>
		<g>
			<line fill="#FFFFFF" x1="6.6" y1="7.9" x2="17.5" y2="7.9"/>
			<rect x="6.6" y="7.2" fill="#231F20" width="10.9" height="1.5"/>
		</g>
		<g>
			<line fill="#FFFFFF" x1="6.6" y1="11" x2="17.5" y2="11"/>
			<rect x="6.6" y="10.3" fill="#231F20" width="10.9" height="1.5"/>
		</g>
		<g>
			<line fill="#FFFFFF" x1="6.6" y1="14.1" x2="13.5" y2="14.1"/>
			<rect x="6.6" y="13.3" fill="#231F20" width="6.9" height="1.5"/>
		</g>
	</g>
</g>
</svg>
