<?xml version="1.0" encoding="utf-8"?>
<!-- Generator: Adobe Illustrator 18.0.0, SVG Export Plug-In . SVG Version: 6.00 Build 0)  -->
<!DOCTYPE svg PUBLIC "-//W3C//DTD SVG 1.1//EN" "http://www.w3.org/Graphics/SVG/1.1/DTD/svg11.dtd">
<svg version="1.1" id="Layer_1" xmlns="http://www.w3.org/2000/svg" xmlns:xlink="http://www.w3.org/1999/xlink" x="0px" y="0px"
	 viewBox="0 0 129.5 129.5" enable-background="new 0 0 129.5 129.5" xml:space="preserve">
<g>
	<g>
		<g>
			<path fill="#231F20" d="M91.1,76.1H39.6c-0.4,0-0.8-0.3-0.8-0.8c0-0.4,0.3-0.8,0.8-0.8h51.6c0.4,0,0.8,0.3,0.8,0.8
				C91.9,75.7,91.5,76.1,91.1,76.1z"/>
		</g>
		<g>
			<path fill="#231F20" d="M91.1,83.8H39.6c-0.4,0-0.8-0.3-0.8-0.8s0.3-0.8,0.8-0.8h51.6c0.4,0,0.8,0.3,0.8,0.8S91.5,83.8,91.1,83.8
				z"/>
		</g>
		<g>
			<path fill="#231F20" d="M91.1,91.4H39.6c-0.4,0-0.8-0.3-0.8-0.8s0.3-0.8,0.8-0.8h51.6c0.4,0,0.8,0.3,0.8,0.8S91.5,91.4,91.1,91.4
				z"/>
		</g>
		<g>
			<path fill="#231F20" d="M91.1,99.1H39.6c-0.4,0-0.8-0.3-0.8-0.8c0-0.4,0.3-0.8,0.8-0.8h51.6c0.4,0,0.8,0.3,0.8,0.8
				C91.9,98.8,91.5,99.1,91.1,99.1z"/>
		</g>
		<g>
			<path fill="#231F20" d="M65.9,106.8H39.6c-0.4,0-0.8-0.3-0.8-0.8s0.3-0.8,0.8-0.8h26.3c0.4,0,0.8,0.3,0.8,0.8
				S66.3,106.8,65.9,106.8z"/>
		</g>
		<polygon fill="#FFFFFF" points="106.7,9.4 84.6,18.2 106.7,27 128.8,18.2 		"/>
		<path fill="#231F20" d="M129,17.5L107,8.7c-0.2-0.1-0.4-0.1-0.6,0l-22.1,8.8c-0.3,0.1-0.5,0.4-0.5,0.7c0,0.3,0.2,0.6,0.5,0.7
			l9.5,3.8v10.4c0,0.4,0.3,0.7,0.6,0.7c4.5,0.6,8.7,2.3,11.7,4.8c0.1,0.1,0.3,0.2,0.5,0.2c0.2,0,0.3-0.1,0.5-0.2
			c3-2.4,7.2-4.1,11.7-4.8c0.4-0.1,0.6-0.4,0.6-0.7V22.7l3.7-1.5v7c0,0.4,0.3,0.8,0.8,0.8c0.4,0,0.8-0.3,0.8-0.8v-7.6l4.3-1.7
			c0.3-0.1,0.5-0.4,0.5-0.7C129.5,17.9,129.3,17.6,129,17.5z M118,32.5c-4.3,0.7-8.3,2.3-11.3,4.6c-3-2.3-7-3.9-11.3-4.6v-9.2
			l11,4.4c0.1,0,0.2,0.1,0.3,0.1c0.1,0,0.2,0,0.3-0.1l11-4.4V32.5z M106.7,26.2l-20-8l20-8l20,8L106.7,26.2z"/>
		<path fill="#FFFFFF" d="M119.7,111.7H69.2v9.2h50.6c2.5,0,4.6-2.1,4.6-4.6v0C124.3,113.7,122.3,111.7,119.7,111.7z"/>
		<path fill="#FFFFFF" d="M110.2,120.9h9.5c2.5,0,4.6-2.1,4.6-4.6v0c0-2.5-2.1-4.6-4.6-4.6h-9.5V120.9z"/>
		<polygon fill="#FFFFFF" points="69.2,120.9 58,116.3 69.2,111.7 		"/>
		<line fill="#FFFFFF" x1="69.2" y1="116.3" x2="110.2" y2="116.3"/>
		<path fill="#231F20" d="M119.7,110.9h-19.5v-48c0-0.2-0.1-0.4-0.2-0.5L82.2,44.6c-0.1-0.1-0.3-0.2-0.5-0.2H31.2
			c-0.4,0-0.8,0.3-0.8,0.8v82.8c0,0.4,0.3,0.8,0.8,0.8h68.2c0.4,0,0.8-0.3,0.8-0.8v-6.2h19.5c2.9,0,5.3-2.4,5.3-5.3
			C125.1,113.3,122.7,110.9,119.7,110.9z M82.4,46.9l15.2,15.2H82.4V46.9z M98.7,127.1H32V45.9h48.9v17c0,0.4,0.3,0.8,0.8,0.8h17
			v47.3H69.2c-0.1,0-0.2,0-0.3,0.1c0,0,0,0,0,0l0,0c0,0,0,0,0,0l-11.2,4.6c-0.3,0.1-0.5,0.4-0.5,0.7c0,0.3,0.2,0.6,0.5,0.7l11.2,4.6
			c0,0,0,0,0,0l0,0c0.1,0,0.2,0.1,0.3,0.1h29.6V127.1z M68.4,112.8v7l-8.5-3.5L68.4,112.8z M109.5,120.1H69.9V117h39.6V120.1z
			 M109.5,115.5H69.9v-3.1h39.6V115.5z M119.7,120.1H111v-7.7h8.7c2.1,0,3.8,1.7,3.8,3.8C123.6,118.4,121.8,120.1,119.7,120.1z"/>
		<circle fill="#FFFFFF" cx="18.3" cy="19.2" r="17.6"/>
		<g>
			<circle fill="#84DBFF" cx="18.3" cy="19.2" r="13.5"/>
		</g>
		<path fill="#FFFFFF" d="M18.4,40.1L18.4,40.1c-1.9,0-3.5,1.5-3.5,3.4v19.4c0,1.9,1.5,3.4,3.4,3.4h0.1c1.9,0,3.4-1.5,3.4-3.4V43.5
			C21.8,41.6,20.2,40.1,18.4,40.1z"/>
		<path fill="#231F20" d="M36.7,19.2c0-10.1-8.2-18.3-18.3-18.3C8.2,0.9,0,9.1,0,19.2c0,9.9,7.8,17.9,17.6,18.3v1.9
			c-1.9,0.3-3.4,2-3.4,4.1v19.4c0,2.3,1.9,4.1,4.1,4.1h0.1c2.3,0,4.1-1.9,4.1-4.1V43.5c0-2-1.5-3.7-3.4-4.1v-1.9
			C28.8,37.1,36.7,29.1,36.7,19.2z M1.5,19.2c0-9.3,7.6-16.8,16.8-16.8c9.3,0,16.8,7.6,16.8,16.8s-7.6,16.8-16.8,16.8
			C9.1,36.1,1.5,28.5,1.5,19.2z M21,43.5v19.4c0,1.5-1.2,2.6-2.6,2.6h-0.1c-1.5,0-2.6-1.2-2.6-2.6V43.5c0-1.5,1.2-2.6,2.7-2.6
			C19.8,40.8,21,42,21,43.5z"/>
		<circle fill="#FFFFFF" cx="60.7" cy="19.2" r="13"/>
		<path fill="#231F20" d="M60.7,32.9c-7.6,0-13.7-6.2-13.7-13.7S53.1,5.5,60.7,5.5c7.6,0,13.7,6.2,13.7,13.7S68.3,32.9,60.7,32.9z
			 M60.7,7C54,7,48.5,12.5,48.5,19.2S54,31.4,60.7,31.4c6.7,0,12.2-5.5,12.2-12.2S67.4,7,60.7,7z"/>
		<polygon fill="#FFFFFF" points="58.4,14.7 58.4,23.7 65.2,19.2 		"/>
		<path fill="#231F20" d="M58.4,24.5c-0.1,0-0.2,0-0.4-0.1c-0.2-0.1-0.4-0.4-0.4-0.7v-9c0-0.3,0.2-0.5,0.4-0.7
			c0.2-0.1,0.5-0.1,0.8,0l6.9,4.5c0.2,0.1,0.3,0.4,0.3,0.6s-0.1,0.5-0.3,0.6l-6.9,4.5C58.7,24.4,58.5,24.5,58.4,24.5z M59.1,16.1
			v6.2l4.7-3.1L59.1,16.1z"/>
		<circle fill="#FFD05B" cx="94.6" cy="40.1" r="2.5"/>
		<circle fill="#FF7058" cx="39.6" cy="32.2" r="2.5"/>
		<circle fill="#CED5E0" cx="112.5" cy="80.3" r="2.5"/>
		<circle fill="#84DBFF" cx="7.8" cy="75.3" r="2.5"/>
		<g>
			<path fill="#231F20" d="M23.5,118.4h-8.2c-0.4,0-0.8-0.3-0.8-0.8c0-0.4,0.3-0.8,0.8-0.8h8.2c0.4,0,0.8,0.3,0.8,0.8
				C24.2,118.1,23.9,118.4,23.5,118.4z"/>
		</g>
		<g>
			<path fill="#231F20" d="M16.1,115.4h-4c-0.4,0-0.8-0.3-0.8-0.8s0.3-0.8,0.8-0.8h4c0.4,0,0.8,0.3,0.8,0.8S16.5,115.4,16.1,115.4z"
				/>
		</g>
		<g>
			<path fill="#231F20" d="M11.6,118.4H7.8c-0.4,0-0.8-0.3-0.8-0.8c0-0.4,0.3-0.8,0.8-0.8h3.8c0.4,0,0.8,0.3,0.8,0.8
				C12.4,118.1,12,118.4,11.6,118.4z"/>
		</g>
		<g>
			<path fill="#231F20" d="M19.8,115.4H19c-0.4,0-0.8-0.3-0.8-0.8s0.3-0.8,0.8-0.8h0.8c0.4,0,0.8,0.3,0.8,0.8S20.2,115.4,19.8,115.4
				z"/>
		</g>
		<g>
			<path fill="#231F20" d="M89.5,8.5h-8.2c-0.4,0-0.8-0.3-0.8-0.8c0-0.4,0.3-0.8,0.8-0.8h8.2c0.4,0,0.8,0.3,0.8,0.8
				C90.3,8.1,89.9,8.5,89.5,8.5z"/>
		</g>
		<g>
			<path fill="#231F20" d="M82.1,5.5h-4c-0.4,0-0.8-0.3-0.8-0.8c0-0.4,0.3-0.8,0.8-0.8h4c0.4,0,0.8,0.3,0.8,0.8
				C82.9,5.2,82.5,5.5,82.1,5.5z"/>
		</g>
		<g>
			<path fill="#231F20" d="M77.6,8.5h-3.8c-0.4,0-0.8-0.3-0.8-0.8c0-0.4,0.3-0.8,0.8-0.8h3.8c0.4,0,0.8,0.3,0.8,0.8
				C78.4,8.1,78.1,8.5,77.6,8.5z"/>
		</g>
		<g>
			<path fill="#231F20" d="M85.8,5.5H85c-0.4,0-0.8-0.3-0.8-0.8C84.3,4.3,84.6,4,85,4h0.8c0.4,0,0.8,0.3,0.8,0.8
				C86.6,5.2,86.2,5.5,85.8,5.5z"/>
		</g>
		<g>
			<path fill="#231F20" d="M122.7,42c-0.2,0-0.4-0.1-0.5-0.2c-0.3-0.3-0.3-0.8,0-1.1l1.3-1.3c0.3-0.3,0.8-0.3,1.1,0
				c0.3,0.3,0.3,0.8,0,1.1l-1.3,1.3C123.1,41.9,122.9,42,122.7,42z"/>
		</g>
		<g>
			<path fill="#231F20" d="M118.7,46c-0.2,0-0.4-0.1-0.5-0.2c-0.3-0.3-0.3-0.8,0-1.1l1.3-1.3c0.3-0.3,0.8-0.3,1.1,0
				c0.3,0.3,0.3,0.8,0,1.1l-1.3,1.3C119,46,118.8,46,118.7,46z"/>
		</g>
		<g>
			<path fill="#231F20" d="M124,46c-0.2,0-0.4-0.1-0.5-0.2l-1.3-1.3c-0.3-0.3-0.3-0.8,0-1.1c0.3-0.3,0.8-0.3,1.1,0l1.3,1.3
				c0.3,0.3,0.3,0.8,0,1.1C124.4,46,124.2,46,124,46z"/>
		</g>
		<g>
			<path fill="#231F20" d="M120,42c-0.2,0-0.4-0.1-0.5-0.2l-1.3-1.3c-0.3-0.3-0.3-0.8,0-1.1c0.3-0.3,0.8-0.3,1.1,0l1.3,1.3
				c0.3,0.3,0.3,0.8,0,1.1C120.3,41.9,120.1,42,120,42z"/>
		</g>
		<g>
			<path fill="#231F20" d="M19.7,90c-0.2,0-0.4-0.1-0.5-0.2c-0.3-0.3-0.3-0.8,0-1.1l1.3-1.3c0.3-0.3,0.8-0.3,1.1,0
				c0.3,0.3,0.3,0.8,0,1.1l-1.3,1.3C20.1,90,19.9,90,19.7,90z"/>
		</g>
		<g>
			<path fill="#231F20" d="M15.7,94.1c-0.2,0-0.4-0.1-0.5-0.2c-0.3-0.3-0.3-0.8,0-1.1l1.3-1.3c0.3-0.3,0.8-0.3,1.1,0
				c0.3,0.3,0.3,0.8,0,1.1l-1.3,1.3C16,94,15.8,94.1,15.7,94.1z"/>
		</g>
		<g>
			<path fill="#231F20" d="M21,94.1c-0.2,0-0.4-0.1-0.5-0.2l-1.3-1.3c-0.3-0.3-0.3-0.8,0-1.1c0.3-0.3,0.8-0.3,1.1,0l1.3,1.3
				c0.3,0.3,0.3,0.8,0,1.1C21.4,94,21.2,94.1,21,94.1z"/>
		</g>
		<g>
			<path fill="#231F20" d="M17,90c-0.2,0-0.4-0.1-0.5-0.2l-1.3-1.3c-0.3-0.3-0.3-0.8,0-1.1c0.3-0.3,0.8-0.3,1.1,0l1.3,1.3
				c0.3,0.3,0.3,0.8,0,1.1C17.3,90,17.1,90,17,90z"/>
		</g>
		<g>
			<path fill="#231F20" d="M118.7,97.7c-0.2,0-0.4-0.1-0.5-0.2c-0.3-0.3-0.3-0.8,0-1.1l1.3-1.3c0.3-0.3,0.8-0.3,1.1,0
				c0.3,0.3,0.3,0.8,0,1.1l-1.3,1.3C119,97.7,118.8,97.7,118.7,97.7z"/>
		</g>
		<g>
			<path fill="#231F20" d="M114.6,101.8c-0.2,0-0.4-0.1-0.5-0.2c-0.3-0.3-0.3-0.8,0-1.1l1.3-1.3c0.3-0.3,0.8-0.3,1.1,0
				c0.3,0.3,0.3,0.8,0,1.1l-1.3,1.3C115,101.7,114.8,101.8,114.6,101.8z"/>
		</g>
		<g>
			<path fill="#231F20" d="M120,101.8c-0.2,0-0.4-0.1-0.5-0.2l-1.3-1.3c-0.3-0.3-0.3-0.8,0-1.1c0.3-0.3,0.8-0.3,1.1,0l1.3,1.3
				c0.3,0.3,0.3,0.8,0,1.1C120.3,101.7,120.1,101.8,120,101.8z"/>
		</g>
		<g>
			<path fill="#231F20" d="M115.9,97.7c-0.2,0-0.4-0.1-0.5-0.2l-1.3-1.3c-0.3-0.3-0.3-0.8,0-1.1c0.3-0.3,0.8-0.3,1.1,0l1.3,1.3
				c0.3,0.3,0.3,0.8,0,1.1C116.3,97.7,116.1,97.7,115.9,97.7z"/>
		</g>
		<path fill="#231F20" d="M115.9,64.7c-2.3,0-4.1-1.9-4.1-4.1c0-2.3,1.9-4.1,4.1-4.1c2.3,0,4.1,1.9,4.1,4.1
			C120,62.9,118.2,64.7,115.9,64.7z M115.9,57.9c-1.5,0-2.6,1.2-2.6,2.6c0,1.5,1.2,2.6,2.6,2.6c1.5,0,2.6-1.2,2.6-2.6
			C118.5,59.1,117.3,57.9,115.9,57.9z"/>
	</g>
</g>
</svg>
