<?xml version="1.0" encoding="UTF-8"?>
<svg xmlns="http://www.w3.org/2000/svg" xmlns:xlink="http://www.w3.org/1999/xlink" width="200px" height="200px" viewBox="0 0 200 200" version="1.1">
<g id="surface1">
<path style=" stroke:none;fill-rule:nonzero;fill:rgb(13.72549%,12.156863%,12.54902%);fill-opacity:1;" d="M 37.21875 10.964844 C 36.910156 10.964844 36.601562 10.8125 36.449219 10.65625 C 35.984375 10.191406 35.984375 9.421875 36.449219 8.957031 L 38.457031 6.949219 C 38.917969 6.488281 39.691406 6.488281 40.15625 6.949219 C 40.617188 7.414062 40.617188 8.183594 40.15625 8.648438 L 38.148438 10.65625 C 37.835938 10.8125 37.527344 10.964844 37.21875 10.964844 Z M 37.21875 10.964844 "/>
<path style=" stroke:none;fill-rule:nonzero;fill:rgb(13.72549%,12.156863%,12.54902%);fill-opacity:1;" d="M 30.886719 17.296875 C 30.578125 17.296875 30.269531 17.144531 30.117188 16.988281 C 29.652344 16.523438 29.652344 15.753906 30.117188 15.289062 L 32.125 13.28125 C 32.585938 12.820312 33.359375 12.820312 33.824219 13.28125 C 34.285156 13.746094 34.285156 14.515625 33.824219 14.980469 L 31.816406 16.988281 C 31.503906 17.144531 31.195312 17.296875 30.886719 17.296875 Z M 30.886719 17.296875 "/>
<path style=" stroke:none;fill-rule:nonzero;fill:rgb(13.72549%,12.156863%,12.54902%);fill-opacity:1;" d="M 39.226562 17.296875 C 38.917969 17.296875 38.609375 17.144531 38.457031 16.988281 L 36.449219 14.980469 C 35.984375 14.515625 35.984375 13.746094 36.449219 13.28125 C 36.910156 12.820312 37.683594 12.820312 38.148438 13.28125 L 40.15625 15.289062 C 40.617188 15.753906 40.617188 16.523438 40.15625 16.988281 C 39.84375 17.144531 39.535156 17.296875 39.226562 17.296875 Z M 39.226562 17.296875 "/>
<path style=" stroke:none;fill-rule:nonzero;fill:rgb(13.72549%,12.156863%,12.54902%);fill-opacity:1;" d="M 32.894531 10.964844 C 32.585938 10.964844 32.277344 10.8125 32.125 10.65625 L 30.117188 8.648438 C 29.652344 8.183594 29.652344 7.414062 30.117188 6.949219 C 30.578125 6.488281 31.351562 6.488281 31.816406 6.949219 L 33.824219 8.957031 C 34.285156 9.421875 34.285156 10.191406 33.824219 10.65625 C 33.511719 10.8125 33.203125 10.964844 32.894531 10.964844 Z M 32.894531 10.964844 "/>
<path style=" stroke:none;fill-rule:nonzero;fill:rgb(13.72549%,12.156863%,12.54902%);fill-opacity:1;" d="M 189.5 11.582031 C 189.1875 11.582031 188.878906 11.429688 188.726562 11.273438 C 188.261719 10.8125 188.261719 10.039062 188.726562 9.574219 L 190.734375 7.566406 C 191.195312 7.105469 191.96875 7.105469 192.433594 7.566406 C 192.894531 8.03125 192.894531 8.804688 192.433594 9.265625 L 190.425781 11.273438 C 190.117188 11.582031 189.808594 11.582031 189.5 11.582031 Z M 189.5 11.582031 "/>
<path style=" stroke:none;fill-rule:nonzero;fill:rgb(13.72549%,12.156863%,12.54902%);fill-opacity:1;" d="M 183.167969 17.914062 C 182.855469 17.914062 182.546875 17.761719 182.394531 17.605469 C 181.929688 17.144531 181.929688 16.371094 182.394531 15.90625 L 184.402344 13.898438 C 184.863281 13.4375 185.636719 13.4375 186.101562 13.898438 C 186.5625 14.363281 186.5625 15.136719 186.101562 15.597656 L 184.09375 17.605469 C 183.785156 17.914062 183.476562 17.914062 183.167969 17.914062 Z M 183.167969 17.914062 "/>
<path style=" stroke:none;fill-rule:nonzero;fill:rgb(13.72549%,12.156863%,12.54902%);fill-opacity:1;" d="M 191.503906 17.914062 C 191.195312 17.914062 190.886719 17.761719 190.734375 17.605469 L 188.726562 15.597656 C 188.261719 15.136719 188.261719 14.363281 188.726562 13.898438 C 189.1875 13.4375 189.960938 13.4375 190.425781 13.898438 L 192.433594 15.90625 C 192.894531 16.371094 192.894531 17.144531 192.433594 17.605469 C 192.125 17.914062 191.816406 17.914062 191.503906 17.914062 Z M 191.503906 17.914062 "/>
<path style=" stroke:none;fill-rule:nonzero;fill:rgb(13.72549%,12.156863%,12.54902%);fill-opacity:1;" d="M 185.171875 11.582031 C 184.863281 11.582031 184.554688 11.429688 184.402344 11.273438 L 182.394531 9.265625 C 181.929688 8.804688 181.929688 8.03125 182.394531 7.566406 C 182.855469 7.105469 183.628906 7.105469 184.09375 7.566406 L 186.101562 9.574219 C 186.5625 10.039062 186.5625 10.8125 186.101562 11.273438 C 185.792969 11.582031 185.484375 11.582031 185.171875 11.582031 Z M 185.171875 11.582031 "/>
<path style=" stroke:none;fill-rule:nonzero;fill:rgb(13.72549%,12.156863%,12.54902%);fill-opacity:1;" d="M 67.027344 183.785156 C 66.71875 183.785156 66.410156 183.628906 66.253906 183.476562 C 65.792969 183.011719 65.792969 182.238281 66.253906 181.777344 L 68.261719 179.769531 C 68.726562 179.304688 69.5 179.304688 69.960938 179.769531 C 70.425781 180.230469 70.425781 181.003906 69.960938 181.46875 L 67.953125 183.476562 C 67.644531 183.628906 67.335938 183.785156 67.027344 183.785156 Z M 67.027344 183.785156 "/>
<path style=" stroke:none;fill-rule:nonzero;fill:rgb(13.72549%,12.156863%,12.54902%);fill-opacity:1;" d="M 60.695312 190.117188 C 60.386719 190.117188 60.078125 189.960938 59.921875 189.808594 C 59.460938 189.34375 59.460938 188.570312 59.921875 188.109375 L 61.929688 186.101562 C 62.394531 185.636719 63.167969 185.636719 63.628906 186.101562 C 64.09375 186.5625 64.09375 187.335938 63.628906 187.800781 L 61.621094 189.808594 C 61.3125 189.960938 61.003906 190.117188 60.695312 190.117188 Z M 60.695312 190.117188 "/>
<path style=" stroke:none;fill-rule:nonzero;fill:rgb(13.72549%,12.156863%,12.54902%);fill-opacity:1;" d="M 69.035156 190.117188 C 68.726562 190.117188 68.417969 189.960938 68.261719 189.808594 L 66.253906 187.800781 C 65.792969 187.335938 65.792969 186.5625 66.253906 186.101562 C 66.71875 185.636719 67.492188 185.636719 67.953125 186.101562 L 69.960938 188.109375 C 70.425781 188.570312 70.425781 189.34375 69.960938 189.808594 C 69.652344 189.960938 69.34375 190.117188 69.035156 190.117188 Z M 69.035156 190.117188 "/>
<path style=" stroke:none;fill-rule:nonzero;fill:rgb(13.72549%,12.156863%,12.54902%);fill-opacity:1;" d="M 62.703125 183.785156 C 62.394531 183.785156 62.085938 183.628906 61.929688 183.476562 L 59.921875 181.46875 C 59.460938 181.003906 59.460938 180.230469 59.921875 179.769531 C 60.386719 179.304688 61.160156 179.304688 61.621094 179.769531 L 63.628906 181.777344 C 64.09375 182.238281 64.09375 183.011719 63.628906 183.476562 C 63.320312 183.628906 63.011719 183.785156 62.703125 183.785156 Z M 62.703125 183.785156 "/>
<path style=" stroke:none;fill-rule:nonzero;fill:rgb(13.72549%,12.156863%,12.54902%);fill-opacity:1;" d="M 190.425781 74.132812 L 177.761719 74.132812 C 177.144531 74.132812 176.523438 73.667969 176.523438 72.894531 C 176.523438 72.277344 176.988281 71.660156 177.761719 71.660156 L 190.425781 71.660156 C 191.042969 71.660156 191.660156 72.125 191.660156 72.894531 C 191.503906 73.667969 191.042969 74.132812 190.425781 74.132812 Z M 190.425781 74.132812 "/>
<path style=" stroke:none;fill-rule:nonzero;fill:rgb(13.72549%,12.156863%,12.54902%);fill-opacity:1;" d="M 178.996094 69.652344 L 172.820312 69.652344 C 172.199219 69.652344 171.582031 69.1875 171.582031 68.417969 C 171.582031 67.800781 172.046875 67.179688 172.820312 67.179688 L 178.996094 67.179688 C 179.613281 67.179688 180.230469 67.644531 180.230469 68.417969 C 180.078125 69.035156 179.613281 69.652344 178.996094 69.652344 Z M 178.996094 69.652344 "/>
<path style=" stroke:none;fill-rule:nonzero;fill:rgb(13.72549%,12.156863%,12.54902%);fill-opacity:1;" d="M 172.046875 74.132812 L 166.175781 74.132812 C 165.558594 74.132812 164.941406 73.667969 164.941406 72.894531 C 164.941406 72.277344 165.40625 71.660156 166.175781 71.660156 L 172.046875 71.660156 C 172.664062 71.660156 173.28125 72.125 173.28125 72.894531 C 173.128906 73.667969 172.664062 74.132812 172.046875 74.132812 Z M 172.046875 74.132812 "/>
<path style=" stroke:none;fill-rule:nonzero;fill:rgb(13.72549%,12.156863%,12.54902%);fill-opacity:1;" d="M 184.710938 69.652344 L 183.476562 69.652344 C 182.855469 69.652344 182.238281 69.1875 182.238281 68.417969 C 182.238281 67.800781 182.703125 67.179688 183.476562 67.179688 L 184.710938 67.179688 C 185.328125 67.179688 185.945312 67.644531 185.945312 68.417969 C 185.792969 69.035156 185.328125 69.652344 184.710938 69.652344 Z M 184.710938 69.652344 "/>
<path style=" stroke:none;fill-rule:nonzero;fill:rgb(100%,43.921569%,34.509804%);fill-opacity:1;" d="M 125.714844 155.058594 L 125.714844 149.960938 C 125.714844 133.128906 112.125 119.535156 95.289062 119.535156 C 78.457031 119.535156 64.863281 133.128906 64.863281 149.960938 L 64.863281 155.058594 Z M 125.714844 155.058594 "/>
<path style=" stroke:none;fill-rule:nonzero;fill:rgb(100%,100%,100%);fill-opacity:1;" d="M 103.320312 119.382812 L 103.320312 112.277344 L 87.257812 112.277344 L 87.257812 119.382812 C 87.257812 123.859375 90.8125 127.414062 95.289062 127.414062 C 99.769531 127.257812 103.320312 123.707031 103.320312 119.382812 Z M 103.320312 119.382812 "/>
<path style=" stroke:none;fill-rule:nonzero;fill:rgb(100%,81.568627%,35.686275%);fill-opacity:1;" d="M 112.742188 58.6875 C 112.433594 54.054688 108.570312 50.65625 104.246094 51.121094 C 84.167969 53.128906 70.734375 44.941406 70.734375 44.941406 C 70.734375 44.941406 69.960938 54.054688 73.667969 61.160156 C 70.734375 63.785156 68.726562 67.492188 68.726562 71.816406 L 68.726562 91.429688 C 68.726562 94.207031 71.042969 96.523438 73.824219 96.523438 L 116.757812 96.523438 C 119.535156 96.523438 121.851562 94.207031 121.851562 91.429688 L 121.851562 71.660156 C 121.851562 65.792969 118.148438 60.695312 112.742188 58.6875 Z M 112.742188 58.6875 "/>
<path style=" stroke:none;fill-rule:nonzero;fill:rgb(100%,100%,100%);fill-opacity:1;" d="M 117.066406 85.867188 L 116.910156 85.867188 L 116.910156 80.308594 C 108.261719 79.382812 101.160156 73.359375 98.839844 65.171875 C 93.589844 73.667969 84.480469 79.535156 73.976562 80.308594 L 73.976562 85.867188 L 73.824219 85.867188 C 72.125 85.867188 70.734375 87.257812 70.734375 88.957031 C 70.734375 90.65625 72.125 92.046875 73.824219 92.046875 L 73.976562 92.046875 L 73.976562 96.371094 C 73.976562 108.261719 83.550781 117.835938 95.445312 117.835938 C 107.335938 117.835938 116.910156 108.261719 116.910156 96.371094 L 116.910156 92.046875 L 117.066406 92.046875 C 118.765625 92.046875 120.15625 90.65625 120.15625 88.957031 C 120.15625 87.257812 118.765625 85.867188 117.066406 85.867188 Z M 117.066406 85.867188 "/>
<path style=" stroke:none;fill-rule:nonzero;fill:rgb(13.72549%,12.156863%,12.54902%);fill-opacity:1;" d="M 109.1875 89.113281 C 108.570312 89.113281 108.109375 88.648438 108.109375 88.183594 C 107.800781 86.796875 106.71875 85.867188 105.328125 85.867188 C 103.9375 85.867188 102.703125 86.796875 102.546875 88.183594 C 102.394531 88.804688 101.777344 89.265625 101.160156 89.113281 C 100.539062 88.957031 100.078125 88.339844 100.230469 87.722656 C 100.695312 85.25 102.855469 83.398438 105.328125 83.398438 C 107.800781 83.398438 109.960938 85.25 110.425781 87.722656 C 110.578125 88.339844 110.117188 88.957031 109.5 89.113281 C 109.34375 89.113281 109.34375 89.113281 109.1875 89.113281 Z M 109.1875 89.113281 "/>
<path style=" stroke:none;fill-rule:nonzero;fill:rgb(13.72549%,12.156863%,12.54902%);fill-opacity:1;" d="M 89.265625 89.113281 C 88.648438 89.113281 88.183594 88.648438 88.183594 88.183594 C 87.875 86.796875 86.796875 85.867188 85.40625 85.867188 C 84.015625 85.867188 82.78125 86.796875 82.625 88.183594 C 82.472656 88.804688 81.851562 89.265625 81.234375 89.113281 C 80.617188 88.957031 80.15625 88.339844 80.308594 87.722656 C 80.773438 85.25 82.933594 83.398438 85.40625 83.398438 C 87.875 83.398438 90.039062 85.25 90.5 87.722656 C 90.65625 88.339844 90.191406 88.957031 89.574219 89.113281 C 89.421875 89.113281 89.421875 89.113281 89.265625 89.113281 Z M 89.265625 89.113281 "/>
<path style=" stroke:none;fill-rule:nonzero;fill:rgb(90.196078%,91.372549%,93.333333%);fill-opacity:1;" d="M 88.183594 103.167969 C 89.113281 106.253906 91.890625 108.570312 95.289062 108.570312 C 98.6875 108.570312 101.621094 106.253906 102.394531 103.167969 Z M 88.183594 103.167969 "/>
<path style=" stroke:none;fill-rule:nonzero;fill:rgb(13.72549%,12.156863%,12.54902%);fill-opacity:1;" d="M 95.289062 109.808594 C 91.429688 109.808594 88.03125 107.179688 86.949219 103.476562 L 86.488281 101.929688 L 103.9375 101.929688 L 103.476562 103.476562 C 102.546875 107.179688 99.152344 109.808594 95.289062 109.808594 Z M 89.882812 104.402344 C 90.964844 106.253906 92.972656 107.492188 95.289062 107.492188 C 97.605469 107.492188 99.613281 106.253906 100.695312 104.402344 Z M 89.882812 104.402344 "/>
<path style=" stroke:none;fill-rule:nonzero;fill:rgb(13.72549%,12.156863%,12.54902%);fill-opacity:1;" d="M 104.402344 119.691406 C 104.402344 119.535156 104.402344 119.382812 104.402344 119.226562 L 104.402344 117.066406 C 111.96875 113.667969 117.375 106.253906 117.835938 97.453125 C 120.773438 96.988281 123.089844 94.363281 123.089844 91.273438 L 123.089844 71.660156 C 123.089844 65.636719 119.382812 60.078125 113.824219 57.761719 C 113.050781 52.972656 108.878906 49.421875 104.09375 49.882812 C 102.085938 50.039062 99.921875 50.191406 97.914062 50.191406 C 82.007812 50.191406 71.503906 43.859375 71.351562 43.859375 C 71.042969 43.707031 70.578125 43.707031 70.269531 43.859375 C 69.960938 44.015625 69.652344 44.324219 69.652344 44.789062 C 69.652344 45.097656 68.878906 53.746094 72.277344 60.847656 C 69.34375 63.628906 67.644531 67.644531 67.644531 71.660156 L 67.644531 91.273438 C 67.644531 94.363281 69.808594 96.988281 72.742188 97.453125 C 73.203125 106.253906 78.609375 113.667969 86.175781 117.066406 L 86.175781 119.226562 C 86.175781 119.382812 86.175781 119.535156 86.175781 119.691406 C 73.203125 123.550781 63.785156 135.597656 63.785156 149.808594 L 63.785156 156.140625 L 126.949219 156.140625 L 126.949219 149.808594 C 126.949219 135.753906 117.375 123.707031 104.402344 119.691406 Z M 120.773438 91.429688 C 120.773438 93.128906 119.535156 94.671875 117.992188 95.136719 L 117.992188 93.28125 C 119.226562 92.972656 120.15625 92.199219 120.773438 91.273438 Z M 69.960938 71.660156 C 69.960938 67.953125 71.660156 64.402344 74.441406 61.929688 C 74.902344 61.621094 74.902344 61.003906 74.75 60.539062 C 72.277344 55.753906 71.96875 49.730469 71.96875 46.796875 C 75.675781 48.648438 85.097656 52.507812 98.070312 52.507812 C 100.230469 52.507812 102.394531 52.355469 104.554688 52.199219 C 108.261719 51.890625 111.503906 54.828125 111.816406 58.6875 C 111.816406 59.152344 112.125 59.613281 112.585938 59.769531 C 117.527344 61.621094 120.925781 66.410156 120.925781 71.660156 L 120.925781 86.796875 C 120.308594 85.714844 119.382812 84.941406 118.148438 84.789062 L 118.148438 81.542969 C 118.457031 81.542969 118.765625 81.542969 119.074219 81.542969 C 119.691406 81.542969 120.308594 81.082031 120.308594 80.308594 C 120.308594 79.691406 119.84375 79.074219 119.074219 79.074219 C 118.457031 79.074219 117.683594 79.074219 117.066406 78.917969 C 109.035156 78.148438 102.238281 72.433594 99.921875 64.710938 C 99.769531 64.246094 99.460938 63.9375 98.996094 63.9375 C 98.53125 63.9375 98.070312 64.09375 97.914062 64.554688 C 92.820312 73.050781 83.859375 78.457031 73.976562 79.074219 C 73.203125 79.074219 72.433594 79.226562 71.660156 79.226562 C 71.042969 79.226562 70.425781 79.691406 70.425781 80.464844 C 70.425781 81.082031 70.886719 81.699219 71.660156 81.699219 C 72.125 81.699219 72.433594 81.699219 72.894531 81.699219 L 72.894531 84.941406 C 71.660156 85.25 70.734375 86.023438 70.117188 86.949219 L 70.117188 71.660156 Z M 72.742188 95.136719 C 71.195312 94.671875 69.960938 93.128906 69.960938 91.429688 L 69.960938 91.273438 C 70.578125 92.355469 71.503906 93.128906 72.742188 93.28125 Z M 75.058594 96.523438 L 75.058594 92.199219 C 75.058594 91.582031 74.59375 90.964844 73.824219 90.964844 L 73.667969 90.964844 C 72.585938 90.964844 71.660156 90.039062 71.660156 88.957031 C 71.660156 87.875 72.585938 86.949219 73.667969 86.949219 L 73.824219 86.949219 C 74.441406 86.949219 75.058594 86.488281 75.058594 85.714844 L 75.058594 81.234375 C 84.480469 80.308594 92.972656 75.210938 98.378906 67.644531 C 101.3125 74.75 107.953125 80 115.675781 81.234375 L 115.675781 85.714844 C 115.675781 86.332031 116.140625 86.949219 116.910156 86.949219 L 117.066406 86.949219 C 118.148438 86.949219 119.074219 87.875 119.074219 88.957031 C 119.074219 90.039062 118.148438 90.964844 117.066406 90.964844 L 116.910156 90.964844 C 116.292969 90.964844 115.675781 91.429688 115.675781 92.199219 L 115.675781 96.523438 C 115.675781 107.644531 106.5625 116.757812 95.445312 116.757812 C 84.167969 116.757812 75.058594 107.644531 75.058594 96.523438 Z M 95.289062 119.074219 C 97.605469 119.074219 99.921875 118.765625 102.085938 117.992188 L 102.085938 119.226562 C 102.085938 122.933594 98.996094 126.023438 95.289062 126.023438 C 91.582031 126.023438 88.496094 122.933594 88.496094 119.226562 L 88.496094 117.992188 C 90.65625 118.765625 92.972656 119.074219 95.289062 119.074219 Z M 124.632812 153.976562 L 113.824219 153.976562 L 113.824219 144.863281 L 111.503906 144.863281 L 111.503906 153.976562 L 79.226562 153.976562 L 79.226562 144.863281 L 76.910156 144.863281 L 76.910156 153.976562 L 66.101562 153.976562 L 66.101562 149.960938 C 66.101562 136.832031 74.75 125.867188 86.640625 122.164062 C 87.875 125.867188 91.273438 128.496094 95.445312 128.496094 C 99.460938 128.496094 103.011719 125.867188 104.246094 122.164062 C 116.140625 125.867188 124.789062 136.988281 124.789062 149.960938 L 124.789062 153.976562 Z M 124.632812 153.976562 "/>
<path style=" stroke:none;fill-rule:nonzero;fill:rgb(100%,100%,100%);fill-opacity:1;" d="M 99.921875 145.019531 L 95.289062 149.960938 L 90.65625 145.019531 L 93.4375 133.28125 L 92.664062 130.5 L 97.914062 130.5 L 97.144531 133.28125 Z M 99.921875 145.019531 "/>
<path style=" stroke:none;fill-rule:nonzero;fill:rgb(13.72549%,12.156863%,12.54902%);fill-opacity:1;" d="M 98.378906 133.4375 L 99.152344 130.964844 C 99.304688 130.65625 99.152344 130.191406 98.996094 129.882812 C 98.839844 129.574219 98.378906 129.421875 98.070312 129.421875 L 92.664062 129.421875 C 92.355469 129.421875 91.890625 129.574219 91.738281 129.882812 C 91.582031 130.191406 91.429688 130.5 91.582031 130.964844 L 92.355469 133.4375 L 89.574219 144.710938 C 89.421875 145.019531 89.574219 145.484375 89.730469 145.636719 C 89.730469 145.636719 89.882812 145.792969 89.882812 145.792969 L 94.515625 150.578125 C 94.671875 150.886719 94.980469 150.886719 95.289062 150.886719 C 95.597656 150.886719 95.90625 150.734375 96.0625 150.578125 L 100.695312 145.636719 C 101.003906 145.328125 101.003906 144.863281 101.003906 144.554688 Z M 95.289062 148.261719 L 91.890625 144.710938 L 94.515625 133.589844 C 94.515625 133.4375 94.515625 133.128906 94.515625 132.972656 L 94.207031 131.738281 L 96.371094 131.738281 L 96.0625 132.972656 C 96.0625 133.128906 96.0625 133.4375 96.0625 133.589844 L 98.6875 144.710938 Z M 95.289062 148.261719 "/>
<path style=" stroke:none;fill-rule:nonzero;fill:rgb(100%,100%,100%);fill-opacity:1;" d="M 99.921875 39.382812 C 102.394531 32.742188 106.5625 24.402344 111.042969 19.304688 L 99.921875 23.320312 L 88.804688 19.304688 C 93.28125 24.554688 97.605469 32.742188 99.921875 39.382812 Z M 99.921875 39.382812 "/>
<path style=" stroke:none;fill-rule:nonzero;fill:rgb(100%,100%,100%);fill-opacity:1;" d="M 100.078125 160.617188 C 97.605469 167.257812 93.4375 175.597656 88.957031 180.695312 L 100.078125 176.679688 L 111.195312 180.695312 C 106.71875 175.445312 102.394531 167.257812 100.078125 160.617188 Z M 100.078125 160.617188 "/>
<path style=" stroke:none;fill-rule:nonzero;fill:rgb(100%,100%,100%);fill-opacity:1;" d="M 57.144531 142.855469 C 50.65625 145.792969 41.851562 148.726562 35.058594 149.1875 L 45.714844 154.285156 L 50.8125 164.941406 C 51.273438 158.148438 54.207031 149.34375 57.144531 142.855469 Z M 57.144531 142.855469 "/>
<path style=" stroke:none;fill-rule:nonzero;fill:rgb(100%,100%,100%);fill-opacity:1;" d="M 39.382812 100.078125 C 32.742188 97.605469 24.402344 93.4375 19.304688 88.957031 L 23.320312 100.078125 L 19.304688 111.195312 C 24.554688 106.71875 32.742188 102.394531 39.382812 100.078125 Z M 39.382812 100.078125 "/>
<path style=" stroke:none;fill-rule:nonzero;fill:rgb(100%,100%,100%);fill-opacity:1;" d="M 57.144531 57.144531 C 54.207031 50.65625 51.273438 41.851562 50.8125 35.058594 L 45.714844 45.714844 L 35.058594 50.8125 C 41.851562 51.273438 50.65625 54.207031 57.144531 57.144531 Z M 57.144531 57.144531 "/>
<path style=" stroke:none;fill-rule:nonzero;fill:rgb(13.72549%,12.156863%,12.54902%);fill-opacity:1;" d="M 110.734375 18.222656 L 101.160156 21.621094 L 101.160156 0 L 98.839844 0 L 98.839844 21.777344 L 89.265625 18.378906 C 88.804688 18.222656 88.183594 18.378906 87.875 18.839844 C 87.566406 19.304688 87.566406 19.921875 88.03125 20.230469 C 92.664062 25.636719 96.832031 34.132812 98.996094 39.84375 C 99.152344 40.308594 99.613281 40.617188 100.078125 40.617188 C 100.539062 40.617188 101.003906 40.308594 101.160156 39.84375 C 103.320312 34.132812 107.492188 25.484375 112.125 20.230469 C 112.433594 19.769531 112.433594 19.304688 112.277344 18.839844 C 111.816406 18.222656 111.195312 18.070312 110.734375 18.222656 Z M 99.921875 36.140625 C 98.070312 31.503906 95.289062 26.253906 92.199219 21.777344 L 99.460938 24.402344 C 99.769531 24.554688 100.078125 24.554688 100.230469 24.402344 L 107.492188 21.777344 C 104.554688 26.253906 101.929688 31.660156 99.921875 36.140625 Z M 99.921875 36.140625 "/>
<path style=" stroke:none;fill-rule:nonzero;fill:rgb(13.72549%,12.156863%,12.54902%);fill-opacity:1;" d="M 101.160156 160.15625 C 101.003906 159.691406 100.539062 159.382812 100.078125 159.382812 C 99.613281 159.382812 99.152344 159.691406 98.996094 160.15625 C 96.832031 165.867188 92.664062 174.515625 88.03125 179.769531 C 87.722656 180.230469 87.722656 180.695312 87.875 181.160156 C 88.183594 181.621094 88.804688 181.777344 89.265625 181.621094 L 98.839844 178.222656 L 98.839844 200 L 101.160156 200 L 101.160156 178.222656 L 110.734375 181.621094 C 111.195312 181.777344 111.816406 181.621094 112.125 181.160156 C 112.433594 180.695312 112.433594 180.078125 111.96875 179.769531 C 107.335938 174.515625 103.167969 165.867188 101.160156 160.15625 Z M 100.386719 175.445312 C 100.078125 175.289062 99.769531 175.289062 99.613281 175.445312 L 92.355469 178.070312 C 95.445312 173.589844 98.222656 168.339844 100.078125 163.707031 C 101.929688 168.339844 104.710938 173.589844 107.800781 178.070312 Z M 100.386719 175.445312 "/>
<path style=" stroke:none;fill-rule:nonzero;fill:rgb(13.72549%,12.156863%,12.54902%);fill-opacity:1;" d="M 143.320312 58.222656 C 148.878906 55.753906 157.835938 52.507812 164.941406 52.046875 C 165.40625 52.046875 165.867188 51.582031 166.023438 51.121094 C 166.175781 50.65625 165.867188 50.039062 165.40625 49.882812 L 156.140625 45.558594 L 171.429688 30.269531 L 169.730469 28.570312 L 154.441406 43.859375 L 150.117188 34.59375 C 149.960938 34.132812 149.34375 33.824219 148.878906 33.976562 C 148.417969 34.132812 147.953125 34.441406 147.953125 35.058594 C 147.492188 42.164062 144.246094 51.121094 141.777344 56.679688 C 141.621094 57.144531 141.621094 57.605469 142.085938 58.070312 C 142.394531 58.378906 142.855469 58.378906 143.320312 58.222656 Z M 149.808594 39.226562 L 153.050781 46.332031 C 153.203125 46.640625 153.359375 46.796875 153.667969 46.949219 L 160.773438 50.191406 C 155.519531 51.121094 149.808594 52.972656 145.171875 54.828125 C 147.027344 50.347656 148.878906 44.632812 149.808594 39.226562 Z M 149.808594 39.226562 "/>
<path style=" stroke:none;fill-rule:nonzero;fill:rgb(13.72549%,12.156863%,12.54902%);fill-opacity:1;" d="M 56.679688 141.777344 C 51.121094 144.246094 42.164062 147.492188 35.058594 147.953125 C 34.59375 147.953125 34.132812 148.417969 33.976562 148.878906 C 33.824219 149.34375 34.132812 149.960938 34.59375 150.117188 L 43.859375 154.441406 L 28.570312 169.730469 L 30.269531 171.429688 L 45.558594 156.140625 L 49.882812 165.40625 C 50.039062 165.867188 50.65625 166.175781 51.121094 166.023438 C 51.582031 165.867188 52.046875 165.558594 52.046875 164.941406 C 52.507812 157.835938 55.753906 148.878906 58.222656 143.320312 C 58.378906 142.855469 58.378906 142.394531 57.914062 141.929688 C 57.605469 141.621094 57.144531 141.621094 56.679688 141.777344 Z M 50.191406 160.773438 L 46.949219 153.667969 C 46.796875 153.359375 46.640625 153.203125 46.332031 153.050781 L 39.226562 149.808594 C 44.480469 148.878906 50.191406 147.027344 54.828125 145.171875 C 52.972656 149.652344 51.121094 155.367188 50.191406 160.773438 Z M 50.191406 160.773438 "/>
<path style=" stroke:none;fill-rule:nonzero;fill:rgb(13.72549%,12.156863%,12.54902%);fill-opacity:1;" d="M 200 98.839844 L 178.222656 98.839844 L 181.621094 89.265625 C 181.777344 88.804688 181.621094 88.183594 181.160156 87.875 C 180.695312 87.566406 180.078125 87.566406 179.769531 88.03125 C 174.363281 92.664062 165.867188 96.832031 160.15625 98.996094 C 159.691406 99.152344 159.382812 99.613281 159.382812 100.078125 C 159.382812 100.539062 159.691406 101.003906 160.15625 101.160156 C 165.867188 103.320312 174.515625 107.492188 179.769531 112.125 C 180.230469 112.433594 180.695312 112.433594 181.160156 112.277344 C 181.621094 111.96875 181.777344 111.351562 181.621094 110.886719 L 178.222656 101.3125 L 200 101.3125 Z M 163.859375 99.921875 C 168.496094 98.070312 173.746094 95.289062 178.222656 92.199219 L 175.597656 99.460938 C 175.445312 99.769531 175.445312 100.078125 175.597656 100.230469 L 178.222656 107.492188 C 173.746094 104.554688 168.339844 101.929688 163.859375 99.921875 Z M 163.859375 99.921875 "/>
<path style=" stroke:none;fill-rule:nonzero;fill:rgb(13.72549%,12.156863%,12.54902%);fill-opacity:1;" d="M 40.617188 100.078125 C 40.617188 99.613281 40.308594 99.152344 39.84375 98.996094 C 34.132812 96.832031 25.484375 92.664062 20.078125 88.03125 C 19.613281 87.722656 19.152344 87.722656 18.6875 87.875 C 18.222656 88.183594 18.070312 88.804688 18.222656 89.265625 L 21.621094 98.839844 L 0 98.839844 L 0 101.160156 L 21.777344 101.160156 L 18.378906 110.734375 C 18.222656 111.195312 18.378906 111.816406 18.839844 112.125 C 19.304688 112.433594 19.921875 112.433594 20.230469 111.96875 C 25.636719 107.335938 34.132812 103.167969 39.84375 101.003906 C 40.308594 101.003906 40.617188 100.539062 40.617188 100.078125 Z M 21.929688 107.800781 L 24.554688 100.539062 C 24.710938 100.230469 24.710938 99.921875 24.554688 99.769531 L 21.929688 92.507812 C 26.410156 95.597656 31.660156 98.378906 36.292969 100.230469 C 31.660156 101.929688 26.253906 104.554688 21.929688 107.800781 Z M 21.929688 107.800781 "/>
<path style=" stroke:none;fill-rule:nonzero;fill:rgb(13.72549%,12.156863%,12.54902%);fill-opacity:1;" d="M 165.40625 150.269531 C 165.867188 150.117188 166.175781 149.5 166.023438 149.035156 C 165.867188 148.570312 165.558594 148.109375 164.941406 148.109375 C 157.835938 147.644531 148.878906 144.402344 143.320312 141.929688 C 142.855469 141.777344 142.394531 141.777344 141.929688 142.238281 C 141.621094 142.546875 141.46875 143.167969 141.621094 143.628906 C 144.09375 149.1875 147.335938 158.148438 147.800781 165.25 C 147.800781 165.714844 148.261719 166.175781 148.726562 166.332031 C 149.1875 166.488281 149.808594 166.175781 149.960938 165.714844 L 154.285156 156.449219 L 169.574219 171.738281 L 171.273438 170.039062 L 155.984375 154.75 Z M 153.667969 153.050781 C 153.359375 153.203125 153.203125 153.359375 153.050781 153.667969 L 149.808594 160.773438 C 148.878906 155.519531 147.027344 149.808594 145.171875 145.171875 C 149.808594 147.027344 155.519531 148.878906 160.773438 149.808594 Z M 153.667969 153.050781 "/>
<path style=" stroke:none;fill-rule:nonzero;fill:rgb(13.72549%,12.156863%,12.54902%);fill-opacity:1;" d="M 34.59375 49.730469 C 34.132812 49.882812 33.824219 50.5 33.976562 50.964844 C 34.132812 51.429688 34.441406 51.890625 35.058594 51.890625 C 42.164062 52.355469 51.121094 55.597656 56.679688 58.070312 C 57.144531 58.222656 57.605469 58.222656 58.070312 57.761719 C 58.378906 57.453125 58.53125 56.832031 58.378906 56.371094 C 55.90625 50.8125 52.664062 41.851562 52.199219 34.75 C 52.199219 34.285156 51.738281 33.824219 51.273438 33.667969 C 50.8125 33.511719 50.191406 33.824219 50.039062 34.285156 L 45.714844 43.550781 L 30.425781 28.261719 L 28.726562 29.960938 L 44.015625 45.25 Z M 46.332031 46.949219 C 46.640625 46.796875 46.796875 46.640625 46.949219 46.332031 L 50.191406 39.226562 C 51.121094 44.480469 52.972656 50.191406 54.828125 54.828125 C 50.191406 52.972656 44.480469 51.121094 39.226562 50.191406 Z M 46.332031 46.949219 "/>
<path style=" stroke:none;fill-rule:nonzero;fill:rgb(90.196078%,91.372549%,93.333333%);fill-opacity:1;" d="M 15.90625 14.828125 C 15.90625 16.617188 14.457031 18.070312 12.664062 18.070312 C 10.871094 18.070312 9.421875 16.617188 9.421875 14.828125 C 9.421875 13.035156 10.871094 11.582031 12.664062 11.582031 C 14.457031 11.582031 15.90625 13.035156 15.90625 14.828125 Z M 15.90625 14.828125 "/>
<path style=" stroke:none;fill-rule:nonzero;fill:rgb(51.764706%,85.882353%,100%);fill-opacity:1;" d="M 145.945312 18.070312 C 145.945312 19.777344 144.5625 21.160156 142.855469 21.160156 C 141.152344 21.160156 139.769531 19.777344 139.769531 18.070312 C 139.769531 16.363281 141.152344 14.980469 142.855469 14.980469 C 144.5625 14.980469 145.945312 16.363281 145.945312 18.070312 Z M 145.945312 18.070312 "/>
<path style=" stroke:none;fill-rule:nonzero;fill:rgb(100%,43.921569%,34.509804%);fill-opacity:1;" d="M 178.222656 137.296875 C 178.222656 139.257812 176.632812 140.847656 174.671875 140.847656 C 172.710938 140.847656 171.121094 139.257812 171.121094 137.296875 C 171.121094 135.335938 172.710938 133.746094 174.671875 133.746094 C 176.632812 133.746094 178.222656 135.335938 178.222656 137.296875 Z M 178.222656 137.296875 "/>
<path style=" stroke:none;fill-rule:nonzero;fill:rgb(51.764706%,85.882353%,100%);fill-opacity:1;" d="M 36.449219 119.691406 C 36.449219 121.652344 34.859375 123.242188 32.894531 123.242188 C 30.933594 123.242188 29.34375 121.652344 29.34375 119.691406 C 29.34375 117.730469 30.933594 116.140625 32.894531 116.140625 C 34.859375 116.140625 36.449219 117.730469 36.449219 119.691406 Z M 36.449219 119.691406 "/>
<path style=" stroke:none;fill-rule:nonzero;fill:rgb(90.196078%,91.372549%,93.333333%);fill-opacity:1;" d="M 40.925781 185.945312 C 40.925781 187.992188 39.265625 189.652344 37.21875 189.652344 C 35.171875 189.652344 33.511719 187.992188 33.511719 185.945312 C 33.511719 183.898438 35.171875 182.238281 37.21875 182.238281 C 39.265625 182.238281 40.925781 183.898438 40.925781 185.945312 Z M 40.925781 185.945312 "/>
</g>
</svg>
