<?xml version="1.0" encoding="utf-8"?>
<!-- Generator: Adobe Illustrator 18.0.0, SVG Export Plug-In . SVG Version: 6.00 Build 0)  -->
<!DOCTYPE svg PUBLIC "-//W3C//DTD SVG 1.1//EN" "http://www.w3.org/Graphics/SVG/1.1/DTD/svg11.dtd">
<svg version="1.1" id="Layer_1" xmlns="http://www.w3.org/2000/svg" xmlns:xlink="http://www.w3.org/1999/xlink" x="0px" y="0px"
	 viewBox="0 0 129.5 129.5" enable-background="new 0 0 129.5 129.5" xml:space="preserve">
<g>
	<g>
		<path fill="#FFFFFF" d="M55.9,30.2v-3.7l-4.4-1.1c-0.1-1.1-0.3-2.1-0.6-3.1l3.6-2.7l-1.4-3.4l-4.5,0.6c-0.5-0.9-1.1-1.8-1.8-2.6
			l2.3-3.9l-2.6-2.6L42.6,10c-0.8-0.6-1.7-1.2-2.6-1.8l0.6-4.5l-3.4-1.4l-2.7,3.6c-1-0.3-2.1-0.5-3.1-0.6l-1.1-4.4h-3.7l-1.1,4.4
			c-1.1,0.1-2.1,0.3-3.1,0.6l-2.7-3.6l-3.4,1.4l0.6,4.5C15.9,8.7,15,9.3,14.2,10l-3.9-2.3l-2.6,2.6l2.3,3.9
			c-0.6,0.8-1.2,1.7-1.8,2.6l-4.5-0.6l-1.4,3.4l3.6,2.7c-0.3,1-0.5,2.1-0.6,3.1l-4.4,1.1v3.7l4.4,1.1c0.1,1.1,0.3,2.1,0.6,3.1
			l-3.6,2.7l1.4,3.4L8.2,40c0.5,0.9,1.1,1.8,1.8,2.6l-2.3,3.9l2.6,2.6l3.9-2.3c0.8,0.6,1.7,1.2,2.6,1.8l-0.6,4.5l3.4,1.4l2.7-3.6
			c1,0.3,2.1,0.5,3.1,0.6l1.1,4.4h3.7l1.1-4.4c1.1-0.1,2.1-0.3,3.1-0.6l2.7,3.6l3.4-1.4L40,48.6c0.9-0.5,1.8-1.1,2.6-1.8l3.9,2.3
			l2.6-2.6l-2.3-3.9c0.6-0.8,1.2-1.7,1.8-2.6l4.5,0.6l1.4-3.4l-3.6-2.7c0.3-1,0.5-2.1,0.6-3.1L55.9,30.2z"/>
		<g>
			<circle fill="#E6E9EE" cx="28.4" cy="28.4" r="17.6"/>
		</g>
		<g>
			<path fill="#231F20" d="M28,42.5c-0.4,0-0.7,0-1.1-0.1l0.2-1.5c0.3,0,0.6,0.1,1,0.1L28,42.5z M30.2,42.4L30,40.8
				c0.3,0,0.6-0.1,0.9-0.2l0.3,1.5C30.9,42.2,30.5,42.3,30.2,42.4z M24.9,42c-0.3-0.1-0.7-0.2-1-0.3l0.5-1.4
				c0.3,0.1,0.6,0.2,0.9,0.3L24.9,42z M33.3,41.6l-0.5-1.4c0.3-0.1,0.6-0.2,0.9-0.4l0.6,1.4C33.9,41.3,33.6,41.5,33.3,41.6z
				 M21.9,40.9c-0.3-0.2-0.6-0.3-0.9-0.5l0.8-1.3c0.3,0.2,0.5,0.3,0.8,0.5L21.9,40.9z M36.1,40.2l-0.8-1.3c0.3-0.2,0.5-0.4,0.8-0.6
				l0.9,1.2C36.7,39.7,36.4,40,36.1,40.2z M19.2,39.1c-0.3-0.2-0.5-0.5-0.8-0.7l1.1-1.1c0.2,0.2,0.5,0.4,0.7,0.7L19.2,39.1z
				 M38.6,38.1l-1.1-1c0.2-0.2,0.4-0.5,0.6-0.7l1.2,1C39.1,37.6,38.8,37.8,38.6,38.1z M17.1,36.7c-0.2-0.3-0.4-0.6-0.6-0.9l1.3-0.8
				c0.2,0.3,0.3,0.5,0.5,0.8L17.1,36.7z M40.5,35.5l-1.3-0.8c0.2-0.3,0.3-0.6,0.5-0.8l1.4,0.7C40.9,34.9,40.7,35.2,40.5,35.5z
				 M15.5,33.9c-0.1-0.3-0.3-0.7-0.4-1l1.4-0.5c0.1,0.3,0.2,0.6,0.3,0.9L15.5,33.9z M41.8,32.6l-1.4-0.5c0.1-0.3,0.2-0.6,0.3-0.9
				l1.5,0.3C42,31.9,41.9,32.3,41.8,32.6z M14.6,30.9c-0.1-0.3-0.1-0.7-0.1-1.1l1.5-0.1c0,0.3,0.1,0.6,0.1,0.9L14.6,30.9z
				 M42.4,29.5l-1.5-0.1c0-0.3,0-0.6,0-1h1.5C42.5,28.8,42.4,29.1,42.4,29.5z M40.9,27.8c0-0.3,0-0.6-0.1-1l1.5-0.2
				c0,0.4,0.1,0.7,0.1,1.1L40.9,27.8z M15.9,27.7l-1.5-0.1c0-0.4,0.1-0.7,0.1-1.1l1.5,0.2C15.9,27.1,15.9,27.4,15.9,27.7z M40.5,25
				c-0.1-0.3-0.2-0.6-0.3-0.9l1.4-0.5c0.1,0.3,0.2,0.7,0.3,1L40.5,25z M16.4,24.9l-1.5-0.4c0.1-0.3,0.2-0.7,0.3-1l1.4,0.5
				C16.5,24.3,16.4,24.6,16.4,24.9z M39.4,22.4c-0.2-0.3-0.3-0.6-0.5-0.8l1.3-0.8c0.2,0.3,0.4,0.6,0.6,0.9L39.4,22.4z M17.5,22.3
				l-1.3-0.7c0.2-0.3,0.4-0.6,0.6-0.9l1.3,0.8C17.8,21.7,17.6,22,17.5,22.3z M37.7,20c-0.2-0.2-0.4-0.5-0.7-0.7l1-1.1
				c0.3,0.2,0.5,0.5,0.7,0.8L37.7,20z M19.1,20L18,19c0.2-0.3,0.5-0.5,0.7-0.8l1,1.1C19.6,19.5,19.3,19.7,19.1,20z M35.6,18.1
				c-0.3-0.2-0.5-0.4-0.8-0.5l0.8-1.3c0.3,0.2,0.6,0.4,0.9,0.6L35.6,18.1z M21.3,18.1l-0.9-1.2c0.3-0.2,0.6-0.4,0.9-0.6l0.8,1.3
				C21.8,17.7,21.5,17.9,21.3,18.1z M33.1,16.8c-0.3-0.1-0.6-0.2-0.9-0.3l0.5-1.4c0.3,0.1,0.7,0.2,1,0.4L33.1,16.8z M23.8,16.7
				l-0.6-1.4c0.3-0.1,0.7-0.2,1-0.4l0.4,1.5C24.4,16.5,24.1,16.6,23.8,16.7z M30.4,16c-0.3,0-0.6-0.1-0.9-0.1l0.1-1.5
				c0.4,0,0.7,0.1,1.1,0.1L30.4,16z M26.6,16l-0.2-1.5c0.3-0.1,0.7-0.1,1.1-0.1l0.1,1.5C27.2,15.9,26.9,16,26.6,16z"/>
		</g>
		<g>
			<circle fill="#FFFFFF" cx="28.4" cy="28.4" r="9.4"/>
			<path fill="#231F20" d="M28.4,38.6c-5.6,0-10.2-4.6-10.2-10.2s4.6-10.2,10.2-10.2c5.6,0,10.2,4.6,10.2,10.2S34,38.6,28.4,38.6z
				 M28.4,19.8c-4.8,0-8.6,3.9-8.6,8.6c0,4.8,3.9,8.6,8.6,8.6c4.8,0,8.6-3.9,8.6-8.6C37,23.6,33.2,19.8,28.4,19.8z"/>
		</g>
		<g>
			<path fill="#231F20" d="M28.4,33.9c-3,0-5.5-2.5-5.5-5.5c0-3.1,2.5-5.5,5.5-5.5c3,0,5.5,2.5,5.5,5.5
				C33.9,31.5,31.5,33.9,28.4,33.9z M28.4,24.4c-2.2,0-4,1.8-4,4s1.8,4,4,4c2.2,0,4-1.8,4-4S30.6,24.4,28.4,24.4z"/>
		</g>
		<g>
			<g>
				<path fill="#231F20" d="M69.3,7.7c-0.2,0-0.4-0.1-0.5-0.2c-0.3-0.3-0.3-0.8,0-1.1l1.3-1.3c0.3-0.3,0.8-0.3,1.1,0
					c0.3,0.3,0.3,0.8,0,1.1l-1.3,1.3C69.7,7.6,69.5,7.7,69.3,7.7z"/>
			</g>
			<g>
				<path fill="#231F20" d="M65.3,11.7c-0.2,0-0.4-0.1-0.5-0.2c-0.3-0.3-0.3-0.8,0-1.1l1.3-1.3c0.3-0.3,0.8-0.3,1.1,0
					c0.3,0.3,0.3,0.8,0,1.1l-1.3,1.3C65.7,11.6,65.5,11.7,65.3,11.7z"/>
			</g>
			<g>
				<path fill="#231F20" d="M70.6,11.7c-0.2,0-0.4-0.1-0.5-0.2l-1.3-1.3c-0.3-0.3-0.3-0.8,0-1.1s0.8-0.3,1.1,0l1.3,1.3
					c0.3,0.3,0.3,0.8,0,1.1C71,11.6,70.8,11.7,70.6,11.7z"/>
			</g>
			<g>
				<path fill="#231F20" d="M66.6,7.7c-0.2,0-0.4-0.1-0.5-0.2l-1.3-1.3c-0.3-0.3-0.3-0.8,0-1.1c0.3-0.3,0.8-0.3,1.1,0l1.3,1.3
					c0.3,0.3,0.3,0.8,0,1.1C67,7.6,66.8,7.7,66.6,7.7z"/>
			</g>
		</g>
		<g>
			<g>
				<path fill="#231F20" d="M119.1,6.3c-0.2,0-0.4-0.1-0.5-0.2c-0.3-0.3-0.3-0.8,0-1.1l1.3-1.3c0.3-0.3,0.8-0.3,1.1,0
					c0.3,0.3,0.3,0.8,0,1.1l-1.3,1.3C119.5,6.2,119.3,6.3,119.1,6.3z"/>
			</g>
			<g>
				<path fill="#231F20" d="M115.1,10.3c-0.2,0-0.4-0.1-0.5-0.2c-0.3-0.3-0.3-0.8,0-1.1l1.3-1.3c0.3-0.3,0.8-0.3,1.1,0
					c0.3,0.3,0.3,0.8,0,1.1l-1.3,1.3C115.5,10.3,115.3,10.3,115.1,10.3z"/>
			</g>
			<g>
				<path fill="#231F20" d="M120.4,10.3c-0.2,0-0.4-0.1-0.5-0.2l-1.3-1.3c-0.3-0.3-0.3-0.8,0-1.1c0.3-0.3,0.8-0.3,1.1,0l1.3,1.3
					c0.3,0.3,0.3,0.8,0,1.1C120.8,10.3,120.6,10.3,120.4,10.3z"/>
			</g>
			<g>
				<path fill="#231F20" d="M116.4,6.3c-0.2,0-0.4-0.1-0.5-0.2l-1.3-1.3c-0.3-0.3-0.3-0.8,0-1.1s0.8-0.3,1.1,0l1.3,1.3
					c0.3,0.3,0.3,0.8,0,1.1C116.7,6.2,116.5,6.3,116.4,6.3z"/>
			</g>
		</g>
		<g>
			<g>
				<path fill="#231F20" d="M119.1,92.1c-0.2,0-0.4-0.1-0.5-0.2c-0.3-0.3-0.3-0.8,0-1.1l1.3-1.3c0.3-0.3,0.8-0.3,1.1,0
					c0.3,0.3,0.3,0.8,0,1.1l-1.3,1.3C119.5,92.1,119.3,92.1,119.1,92.1z"/>
			</g>
			<g>
				<path fill="#231F20" d="M115.1,96.2c-0.2,0-0.4-0.1-0.5-0.2c-0.3-0.3-0.3-0.8,0-1.1l1.3-1.3c0.3-0.3,0.8-0.3,1.1,0
					c0.3,0.3,0.3,0.8,0,1.1l-1.3,1.3C115.5,96.1,115.3,96.2,115.1,96.2z"/>
			</g>
			<g>
				<path fill="#231F20" d="M120.4,96.2c-0.2,0-0.4-0.1-0.5-0.2l-1.3-1.3c-0.3-0.3-0.3-0.8,0-1.1c0.3-0.3,0.8-0.3,1.1,0l1.3,1.3
					c0.3,0.3,0.3,0.8,0,1.1C120.8,96.1,120.6,96.2,120.4,96.2z"/>
			</g>
			<g>
				<path fill="#231F20" d="M116.4,92.1c-0.2,0-0.4-0.1-0.5-0.2l-1.3-1.3c-0.3-0.3-0.3-0.8,0-1.1s0.8-0.3,1.1,0l1.3,1.3
					c0.3,0.3,0.3,0.8,0,1.1C116.7,92.1,116.5,92.1,116.4,92.1z"/>
			</g>
		</g>
		<g>
			<path fill="#231F20" d="M73,129.4H48.3c-0.4,0-0.8-0.3-0.8-0.8c0-0.4,0.3-0.8,0.8-0.8H73c0.4,0,0.8,0.3,0.8,0.8
				C73.7,129,73.4,129.4,73,129.4z"/>
		</g>
		<g>
			<path fill="#231F20" d="M81.2,129.4h-4.4c-0.4,0-0.8-0.3-0.8-0.8c0-0.4,0.3-0.8,0.8-0.8h4.4c0.4,0,0.8,0.3,0.8,0.8
				C82,129,81.6,129.4,81.2,129.4z"/>
		</g>
		<g>
			<path fill="#231F20" d="M106.2,124.4H81.5c-0.4,0-0.8-0.3-0.8-0.8c0-0.4,0.3-0.8,0.8-0.8h24.7c0.4,0,0.8,0.3,0.8,0.8
				C106.9,124.1,106.6,124.4,106.2,124.4z"/>
		</g>
		<g>
			<path fill="#231F20" d="M114.4,124.4H110c-0.4,0-0.8-0.3-0.8-0.8c0-0.4,0.3-0.8,0.8-0.8h4.4c0.4,0,0.8,0.3,0.8,0.8
				C115.1,124.1,114.8,124.4,114.4,124.4z"/>
		</g>
		<g>
			<path fill="#231F20" d="M17.9,125.9h-5.4c-0.4,0-0.8-0.3-0.8-0.8c0-0.4,0.3-0.8,0.8-0.8h5.4c0.4,0,0.8,0.3,0.8,0.8
				C18.6,125.5,18.3,125.9,17.9,125.9z"/>
		</g>
		<g>
			<path fill="#231F20" d="M61.3,125.9H23.4c-0.4,0-0.8-0.3-0.8-0.8c0-0.4,0.3-0.8,0.8-0.8h37.9c0.4,0,0.8,0.3,0.8,0.8
				C62.1,125.5,61.7,125.9,61.3,125.9z"/>
		</g>
		<g>
			<line fill="#FFFFFF" x1="0" y1="120.3" x2="129.5" y2="120.3"/>
			<rect y="119.5" fill="#231F20" width="129.5" height="1.5"/>
		</g>
		<path fill="#FFFFFF" d="M107.2,111.9H19.3V53.7c0-1.8,1.5-3.3,3.3-3.3h81.4c1.8,0,3.3,1.5,3.3,3.3V111.9z"/>
		<rect x="24" y="57" fill="#84DBFF" width="78.5" height="48.3"/>
		<line fill="#FFFFFF" x1="19.3" y1="105.3" x2="107.2" y2="105.3"/>
		<g>
			<polygon fill="#E6E9EE" points="73.4,111.9 53,111.9 54.3,116.1 72.2,116.1 			"/>
		</g>
		<g>
			<g>
				<g>
					<path fill="#FFFFFF" d="M44.7,72h-8.8c-0.4,0-0.8-0.3-0.8-0.8c0-0.4,0.3-0.8,0.8-0.8h8.8c0.4,0,0.8,0.3,0.8,0.8
						C45.5,71.6,45.1,72,44.7,72z"/>
				</g>
				<g>
					<path fill="#FFFFFF" d="M83.3,72H47.3c-0.4,0-0.8-0.3-0.8-0.8c0-0.4,0.3-0.8,0.8-0.8h36.1c0.4,0,0.8,0.3,0.8,0.8
						C84.1,71.6,83.8,72,83.3,72z"/>
				</g>
			</g>
			<g>
				<g>
					<path fill="#FFFFFF" d="M48.2,76.3h-8.8c-0.4,0-0.8-0.3-0.8-0.8s0.3-0.8,0.8-0.8h8.8c0.4,0,0.8,0.3,0.8,0.8
						S48.6,76.3,48.2,76.3z"/>
				</g>
				<g>
					<path fill="#FFFFFF" d="M79.8,76.3h-29c-0.4,0-0.8-0.3-0.8-0.8s0.3-0.8,0.8-0.8h29c0.4,0,0.8,0.3,0.8,0.8S80.2,76.3,79.8,76.3z
						"/>
				</g>
			</g>
			<g>
				<g>
					<path fill="#FFFFFF" d="M53.4,80.6h-8.8c-0.4,0-0.8-0.3-0.8-0.8s0.3-0.8,0.8-0.8h8.8c0.4,0,0.8,0.3,0.8,0.8
						S53.8,80.6,53.4,80.6z"/>
				</g>
				<g>
					<path fill="#FFFFFF" d="M74.6,80.6H56c-0.4,0-0.8-0.3-0.8-0.8s0.3-0.8,0.8-0.8h18.7c0.4,0,0.8,0.3,0.8,0.8S75.1,80.6,74.6,80.6
						z"/>
				</g>
			</g>
			<g>
				<g>
					<path fill="#FFFFFF" d="M49.2,85h-8.8c-0.4,0-0.8-0.3-0.8-0.8s0.3-0.8,0.8-0.8h8.8c0.4,0,0.8,0.3,0.8,0.8S49.6,85,49.2,85z"/>
				</g>
				<g>
					<path fill="#FFFFFF" d="M90.5,85H51.8c-0.4,0-0.8-0.3-0.8-0.8s0.3-0.8,0.8-0.8h38.8c0.4,0,0.8,0.3,0.8,0.8S90.9,85,90.5,85z"/>
				</g>
			</g>
			<g>
				<g>
					<path fill="#FFFFFF" d="M50.5,89.3h-8.8c-0.4,0-0.8-0.3-0.8-0.8s0.3-0.8,0.8-0.8h8.8c0.4,0,0.8,0.3,0.8,0.8
						S50.9,89.3,50.5,89.3z"/>
				</g>
				<g>
					<path fill="#FFFFFF" d="M77.5,89.3H53.1c-0.4,0-0.8-0.3-0.8-0.8s0.3-0.8,0.8-0.8h24.4c0.4,0,0.8,0.3,0.8,0.8
						S77.9,89.3,77.5,89.3z"/>
				</g>
			</g>
		</g>
		<g>
			<path fill="#231F20" d="M67.7,24.6l-1-1.1c-0.2,0.2-0.5,0.5-0.7,0.7l1.1,1.1C67.3,25.1,67.5,24.9,67.7,24.6z"/>
			<path fill="#231F20" d="M65.7,26.8l-1.1-1c-0.2,0.3-0.5,0.5-0.7,0.8l1.2,1C65.2,27.3,65.5,27,65.7,26.8z"/>
			<path fill="#231F20" d="M74.9,19.4L74.2,18c-0.3,0.2-0.6,0.3-0.9,0.5l0.8,1.3C74.3,19.7,74.6,19.5,74.9,19.4z"/>
			<path fill="#231F20" d="M77.5,18l-0.6-1.4c-0.3,0.1-0.6,0.3-0.9,0.4l0.7,1.4C76.9,18.3,77.2,18.1,77.5,18z"/>
			<path fill="#231F20" d="M72.4,20.9l-0.8-1.3c-0.3,0.2-0.6,0.4-0.8,0.6l0.9,1.2C71.8,21.3,72.1,21.1,72.4,20.9z"/>
			<path fill="#231F20" d="M70,22.7l-1-1.2c-0.3,0.2-0.5,0.4-0.8,0.7l1,1.2C69.5,23.1,69.7,22.9,70,22.7z"/>
			<path fill="#231F20" d="M126,39l1.4-0.5c-0.1-0.3-0.2-0.7-0.3-1l-1.4,0.5C125.7,38.3,125.9,38.6,126,39z"/>
			<path fill="#231F20" d="M123.6,33.5l1.3-0.7c-0.2-0.3-0.3-0.6-0.5-0.9l-1.3,0.8C123.3,32.9,123.4,33.2,123.6,33.5z"/>
			<path fill="#231F20" d="M122.1,31l1.3-0.8c-0.2-0.3-0.4-0.6-0.6-0.9l-1.2,0.9C121.7,30.4,121.9,30.7,122.1,31z"/>
			<path fill="#231F20" d="M124.9,36.2l1.4-0.6c-0.1-0.3-0.3-0.6-0.4-0.9l-1.4,0.6C124.6,35.6,124.8,35.9,124.9,36.2z"/>
			<path fill="#231F20" d="M121.5,27.6c-0.2-0.3-0.4-0.5-0.6-0.8l-1.2,1c0.2,0.3,0.4,0.5,0.6,0.8L121.5,27.6z"/>
			<path fill="#231F20" d="M126.8,41.8l1.5-0.4c-0.1-0.3-0.2-0.7-0.3-1l-1.5,0.4C126.6,41.2,126.7,41.5,126.8,41.8z"/>
			<path fill="#231F20" d="M127.4,44.7l1.5-0.2c-0.1-0.3-0.1-0.7-0.2-1l-1.5,0.3C127.3,44.1,127.3,44.4,127.4,44.7z"/>
			<path fill="#231F20" d="M127.7,47.7l1.5-0.1c0-0.3-0.1-0.7-0.1-1l-1.5,0.2C127.7,47,127.7,47.3,127.7,47.7z"/>
			<path fill="#231F20" d="M63.8,29.1l-1.2-0.9c-0.2,0.3-0.4,0.6-0.6,0.8l1.2,0.9C63.4,29.6,63.6,29.3,63.8,29.1z"/>
			<path fill="#231F20" d="M58.1,40.5c0.1-0.3,0.2-0.6,0.3-0.9l-1.4-0.5c-0.1,0.3-0.2,0.7-0.3,1L58.1,40.5z"/>
			<path fill="#231F20" d="M57,45.4l-1.5-0.2c0,0.3-0.1,0.7-0.1,1l1.5,0.2C57,46,57,45.7,57,45.4z"/>
			<path fill="#231F20" d="M55.2,49.3l1.5,0c0-0.3,0-0.7,0-1l-1.5-0.1C55.2,48.6,55.2,48.9,55.2,49.3z"/>
			<path fill="#231F20" d="M57.6,42.4l-1.5-0.3c-0.1,0.3-0.1,0.7-0.2,1l1.5,0.3C57.4,43.1,57.5,42.8,57.6,42.4z"/>
			<path fill="#231F20" d="M62.1,31.5l-1.3-0.8c-0.2,0.3-0.4,0.6-0.5,0.9l1.3,0.8C61.8,32.1,61.9,31.8,62.1,31.5z"/>
			<path fill="#231F20" d="M60.6,34.1l-1.3-0.7c-0.2,0.3-0.3,0.6-0.5,0.9l1.4,0.7C60.3,34.7,60.5,34.4,60.6,34.1z"/>
			<path fill="#231F20" d="M59.4,36.8L58,36.2c-0.1,0.3-0.3,0.6-0.4,1l1.4,0.5C59.1,37.4,59.3,37.1,59.4,36.8z"/>
			<path fill="#231F20" d="M117.4,23.1c-0.3-0.2-0.5-0.5-0.8-0.7l-1,1.1c0.2,0.2,0.5,0.4,0.7,0.7L117.4,23.1z"/>
			<path fill="#231F20" d="M117.6,75.4l1.1,1.1c0.2-0.2,0.5-0.5,0.7-0.7l-1.1-1C118,75,117.8,75.2,117.6,75.4z"/>
			<path fill="#231F20" d="M109.8,17.7c-0.3-0.2-0.6-0.3-0.9-0.5l-0.7,1.4c0.3,0.1,0.6,0.3,0.9,0.5L109.8,17.7z"/>
			<path fill="#231F20" d="M119.5,25.3c-0.2-0.3-0.5-0.5-0.7-0.7l-1.1,1.1c0.2,0.2,0.5,0.5,0.7,0.7L119.5,25.3z"/>
			<path fill="#231F20" d="M119.6,73.2l1.2,1c0.2-0.3,0.4-0.5,0.7-0.8l-1.2-0.9C120,72.7,119.8,73,119.6,73.2z"/>
			<path fill="#231F20" d="M112.5,19.3c-0.3-0.2-0.6-0.4-0.9-0.6l-0.8,1.3c0.3,0.2,0.6,0.3,0.8,0.5L112.5,19.3z"/>
			<path fill="#231F20" d="M111.4,82.2c0.3-0.2,0.6-0.4,0.9-0.5l-0.8-1.3c-0.3,0.2-0.6,0.4-0.8,0.5L111.4,82.2z"/>
			<path fill="#231F20" d="M115,21.1c-0.3-0.2-0.5-0.4-0.8-0.6l-0.9,1.2c0.3,0.2,0.5,0.4,0.8,0.6L115,21.1z"/>
			<path fill="#231F20" d="M114,80.5c0.3-0.2,0.6-0.4,0.8-0.6l-0.9-1.2c-0.3,0.2-0.5,0.4-0.8,0.6L114,80.5z"/>
			<path fill="#231F20" d="M116.4,78.6c0.3-0.2,0.5-0.5,0.8-0.7l-1-1.1c-0.2,0.2-0.5,0.4-0.7,0.7L116.4,78.6z"/>
			<path fill="#231F20" d="M127.2,57.3l1.5,0.3c0.1-0.3,0.1-0.7,0.2-1l-1.5-0.3C127.3,56.7,127.2,57,127.2,57.3z"/>
			<path fill="#231F20" d="M121.4,70.9l1.2,0.9c0.2-0.3,0.4-0.6,0.6-0.9l-1.3-0.8C121.8,70.3,121.6,70.6,121.4,70.9z"/>
			<path fill="#231F20" d="M127.6,54.4l1.5,0.2c0-0.3,0.1-0.7,0.1-1l-1.5-0.1C127.7,53.7,127.7,54,127.6,54.4z"/>
			<path fill="#231F20" d="M129.4,49.6l-1.5,0c0,0.3,0,0.5,0,0.8c0,0.3,0,0.7,0,1l1.5,0c0-0.3,0-0.7,0-1
				C129.4,50.1,129.4,49.9,129.4,49.6z"/>
			<path fill="#231F20" d="M126.5,60.2l1.5,0.4c0.1-0.3,0.2-0.7,0.3-1l-1.5-0.4C126.7,59.6,126.6,59.9,126.5,60.2z"/>
			<path fill="#231F20" d="M123,68.4l1.3,0.8c0.2-0.3,0.3-0.6,0.5-0.9l-1.3-0.7C123.3,67.8,123.2,68.1,123,68.4z"/>
			<path fill="#231F20" d="M124.4,65.7l1.4,0.7c0.1-0.3,0.3-0.6,0.4-0.9l-1.4-0.6C124.7,65.1,124.5,65.5,124.4,65.7z"/>
			<path fill="#231F20" d="M125.6,63l1.4,0.5c0.1-0.3,0.2-0.6,0.4-1l-1.4-0.5C125.8,62.4,125.7,62.7,125.6,63z"/>
			<path fill="#231F20" d="M104.1,15.2c-0.3-0.1-0.7-0.2-1-0.3l-0.4,1.5c0.3,0.1,0.6,0.2,0.9,0.3L104.1,15.2z"/>
			<path fill="#231F20" d="M89,15l-0.1-1.5c-0.3,0-0.7,0.1-1,0.1l0.2,1.5C88.3,15,88.6,15,89,15z"/>
			<path fill="#231F20" d="M91.9,14.8l0-1.5c-0.3,0-0.7,0-1,0l0.1,1.5C91.3,14.8,91.6,14.8,91.9,14.8z"/>
			<path fill="#231F20" d="M83.1,16l-0.4-1.5c-0.3,0.1-0.7,0.2-1,0.3l0.4,1.5C82.5,16.2,82.8,16.1,83.1,16z"/>
			<path fill="#231F20" d="M95,13.4c-0.3,0-0.7,0-1-0.1l-0.1,1.5c0.3,0,0.7,0,1,0.1L95,13.4z"/>
			<path fill="#231F20" d="M86,15.4l-0.3-1.5c-0.3,0.1-0.7,0.1-1,0.2l0.3,1.5C85.4,15.5,85.7,15.4,86,15.4z"/>
			<path fill="#231F20" d="M80.3,16.9l-0.5-1.4c-0.3,0.1-0.6,0.2-1,0.4l0.6,1.4C79.7,17.1,80,17,80.3,16.9z"/>
			<path fill="#231F20" d="M107,16.4c-0.3-0.1-0.6-0.3-1-0.4l-0.6,1.4c0.3,0.1,0.6,0.3,0.9,0.4L107,16.4z"/>
			<path fill="#231F20" d="M101.1,14.4c-0.3-0.1-0.7-0.2-1-0.2l-0.3,1.5c0.3,0.1,0.6,0.1,1,0.2L101.1,14.4z"/>
			<path fill="#231F20" d="M98.1,13.8c-0.3-0.1-0.7-0.1-1-0.1l-0.2,1.5c0.3,0,0.7,0.1,1,0.1L98.1,13.8z"/>
			<path fill="#231F20" d="M108.7,83.7c0.3-0.2,0.6-0.3,0.9-0.5l-0.7-1.3c-0.3,0.2-0.6,0.3-0.9,0.4L108.7,83.7z"/>
			<path fill="#231F20" d="M117.7,111.1H108V78.8c10-5.5,16.8-16.2,16.8-28.4c0-17.9-14.6-32.5-32.5-32.5
				c-17.7,0-32.1,14.2-32.5,31.7H47.1l2.5-2.5c0.2-0.2,0.3-0.6,0.1-0.9l-2.1-3.5c0.4-0.6,0.9-1.2,1.3-1.9l4,0.6
				c0.3,0,0.7-0.1,0.8-0.5l1.4-3.4c0.1-0.3,0-0.7-0.2-0.9l-3.2-2.4c0.2-0.7,0.3-1.5,0.4-2.2l3.9-1c0.3-0.1,0.6-0.4,0.6-0.7v-3.7
				c0-0.3-0.2-0.6-0.6-0.7l-3.9-1c-0.1-0.7-0.3-1.5-0.4-2.2l3.2-2.4c0.3-0.2,0.4-0.6,0.2-0.9l-1.4-3.4c-0.1-0.3-0.5-0.5-0.8-0.5
				L49,16c-0.4-0.6-0.8-1.3-1.3-1.9l2.1-3.5c0.2-0.3,0.1-0.7-0.1-0.9l-2.6-2.6c-0.2-0.2-0.6-0.3-0.9-0.1l-3.5,2.1
				c-0.6-0.4-1.2-0.9-1.9-1.3l0.6-4c0-0.3-0.1-0.7-0.5-0.8l-3.4-1.4c-0.3-0.1-0.7,0-0.9,0.2l-2.4,3.2c-0.7-0.2-1.5-0.3-2.2-0.4
				l-1-3.9c-0.1-0.3-0.4-0.6-0.7-0.6h-3.7c-0.3,0-0.6,0.2-0.7,0.6l-1,3.9c-0.7,0.1-1.5,0.3-2.2,0.4l-2.4-3.2
				c-0.2-0.3-0.6-0.4-0.9-0.2L15.9,3c-0.3,0.1-0.5,0.5-0.5,0.8l0.6,4c-0.6,0.4-1.3,0.8-1.9,1.3L10.6,7C10.3,6.8,10,6.9,9.7,7.1
				L7.1,9.7C6.9,10,6.8,10.3,7,10.6l2.1,3.5c-0.4,0.6-0.9,1.2-1.3,1.9l-4-0.6c-0.3-0.1-0.7,0.1-0.8,0.5l-1.4,3.4
				c-0.1,0.3,0,0.7,0.2,0.9l3.2,2.4c-0.2,0.7-0.3,1.5-0.4,2.2l-3.9,1c-0.3,0.1-0.6,0.4-0.6,0.7v3.7c0,0.3,0.2,0.6,0.6,0.7l3.9,1
				c0.1,0.7,0.3,1.5,0.4,2.2l-3.2,2.4c-0.3,0.2-0.4,0.6-0.2,0.9L3,40.9c0.1,0.3,0.5,0.5,0.8,0.5l4-0.6c0.4,0.6,0.8,1.3,1.3,1.9
				L7,46.2c-0.2,0.3-0.1,0.7,0.1,0.9l2.6,2.6c0.2,0.2,0.6,0.3,0.9,0.1l3.5-2.1c0.6,0.4,1.2,0.9,1.9,1.3l-0.6,4
				c0,0.3,0.1,0.7,0.5,0.8l2.6,1.1v56.2H8.7c-0.3,0-0.5,0.1-0.6,0.4c-0.1,0.2-0.2,0.5,0,0.7c2.6,5.4,8.2,8.8,14.1,8.8h82.1
				c6,0,11.5-3.5,14.1-8.8c0.1-0.2,0.1-0.5,0-0.7C118.2,111.2,118,111.1,117.7,111.1z M107,51.2h6.8c-0.1,3.5-0.5,6.9-1.3,10.1H108
				v-7.6C108,52.7,107.6,51.9,107,51.2z M112.4,39.5c0.8,3.2,1.3,6.6,1.3,10.1h-9.9h0c0-3.6-0.3-6.9-0.6-10.1H112.4z M103.1,38
				c-0.5-3.8-1.3-7.2-2.3-10.1h6.3c2.1,2.8,3.8,6.3,5,10.1H103.1z M112,62.8c-1,3.3-2.4,6.2-4.1,8.7v-8.7H112z M108,77.1v-2.7h3.9
				C110.6,75.4,109.3,76.3,108,77.1z M113.5,72.9h-4.6c2-2.9,3.6-6.3,4.7-10.1h7.1C119,66.6,116.5,70.1,113.5,72.9z M121.3,61.3H114
				c0.8-3.2,1.3-6.6,1.3-10.1h7.9C123.1,54.7,122.5,58.1,121.3,61.3z M123.2,49.7h-7.9c-0.1-3.5-0.5-6.9-1.3-10.1h7.3
				C122.5,42.7,123.1,46.1,123.2,49.7z M120.7,38h-7.1c-1.1-3.8-2.7-7.2-4.7-10.1h4.6C116.5,30.8,119,34.2,120.7,38z M111.8,26.4h-4
				c-1.7-2.2-3.6-4-5.6-5.3C105.7,22.3,109,24.1,111.8,26.4z M105.8,26.4h-5.7c-1.1-2.7-2.3-4.9-3.7-6.4
				C100,21,103.2,23.3,105.8,26.4z M93,19.5c2,0.5,3.9,2.9,5.5,6.9H93V19.5z M93,27.9h6.1c1,2.8,1.8,6.2,2.4,10.1H93V27.9z M93,39.5
				h8.7c0.4,3.1,0.6,6.5,0.6,10.1H93V39.5z M91.5,19.5v6.9H86C87.6,22.5,89.6,20,91.5,19.5z M72.5,38c1.2-3.8,2.9-7.3,5-10.1h6.3
				c-1,2.9-1.8,6.3-2.3,10.1H72.5z M81.3,39.5c-0.4,3.2-0.6,6.6-0.6,10.1h-9.9c0.1-3.5,0.5-7,1.4-10.1H81.3z M82.8,39.5h8.7v10.1
				h-9.4C82.2,46,82.4,42.6,82.8,39.5z M83,38c0.6-3.9,1.4-7.3,2.4-10.1h6.1V38H83z M84.4,26.4h-5.7c2.7-3.1,5.9-5.4,9.4-6.4
				C86.7,21.5,85.4,23.7,84.4,26.4z M82.4,21.1c-2.1,1.4-4,3.2-5.6,5.3h-4C75.6,24.1,78.8,22.3,82.4,21.1z M71,27.9h4.6
				c-2,2.9-3.6,6.3-4.7,10.1h-7.1C65.6,34.2,68,30.8,71,27.9z M63.3,39.5h7.3c-0.8,3.2-1.3,6.6-1.3,10.1h-7.9
				C61.4,46.1,62.1,42.7,63.3,39.5z M103.9,51.2c1.4,0,2.5,1.1,2.5,2.5v50.8H20V53.7c0-1.4,1.1-2.5,2.5-2.5H103.9z M106.4,106.1v5
				H20v-5H106.4z M40.9,49.7L40.8,49c0.6-0.4,1.3-0.8,1.9-1.3l3.2,1.9H40.9z M17.2,48c-0.9-0.5-1.7-1.1-2.6-1.7
				c-0.2-0.2-0.6-0.2-0.8-0.1l-3.4,2l-1.8-1.8l2-3.4c0.2-0.3,0.1-0.6-0.1-0.8c-0.6-0.8-1.2-1.7-1.7-2.6c-0.2-0.3-0.5-0.4-0.8-0.4
				l-3.9,0.6l-1-2.3l3.2-2.4c0.2-0.2,0.4-0.5,0.3-0.8c-0.3-1-0.5-2-0.6-3c0-0.3-0.3-0.6-0.6-0.6l-3.8-1v-2.5l3.8-1
				c0.3-0.1,0.5-0.3,0.6-0.6c0.1-1,0.3-2,0.6-3c0.1-0.3,0-0.6-0.3-0.8l-3.2-2.4l1-2.3l3.9,0.6c0.3,0,0.6-0.1,0.8-0.4
				c0.5-0.9,1.1-1.8,1.7-2.6c0.2-0.2,0.2-0.6,0.1-0.8l-2-3.4l1.8-1.8l3.4,2c0.3,0.2,0.6,0.1,0.8-0.1c0.8-0.6,1.7-1.2,2.6-1.7
				c0.3-0.2,0.4-0.5,0.4-0.8L17,4.2l2.3-1l2.4,3.2c0.2,0.2,0.5,0.4,0.8,0.3c1-0.3,2-0.5,3-0.6c0.3,0,0.6-0.3,0.6-0.6l1-3.8h2.5
				l1,3.8C30.7,5.8,31,6,31.3,6.1c1,0.1,2,0.3,3,0.6c0.3,0.1,0.6,0,0.8-0.3l2.4-3.2l2.3,1l-0.6,3.9c0,0.3,0.1,0.6,0.4,0.8
				c0.9,0.5,1.8,1.1,2.6,1.7c0.2,0.2,0.6,0.2,0.8,0.1l3.4-2l1.8,1.8l-2,3.4c-0.2,0.3-0.1,0.6,0.1,0.8c0.6,0.8,1.2,1.7,1.7,2.6
				c0.2,0.3,0.5,0.4,0.8,0.4l3.9-0.6l1,2.3l-3.2,2.4c-0.2,0.2-0.4,0.5-0.3,0.8c0.3,1,0.5,2,0.6,3c0,0.3,0.3,0.6,0.6,0.6l3.8,1v2.5
				l-3.8,1c-0.3,0.1-0.5,0.3-0.6,0.6c-0.1,1-0.3,2-0.6,3c-0.1,0.3,0,0.6,0.3,0.8l3.2,2.4l-1,2.3l-3.9-0.6c-0.3,0-0.6,0.1-0.8,0.4
				c-0.5,0.9-1.1,1.8-1.7,2.6c-0.2,0.2-0.2,0.6-0.1,0.8l2,3.4l-1.8,1.8l-3.4-2c-0.3-0.2-0.6-0.1-0.8,0.1c-0.8,0.6-1.7,1.2-2.6,1.7
				c-0.3,0.2-0.4,0.5-0.4,0.8l0.1,0.9H22.5c-2.1,0-3.8,1.6-4,3.6L17,52.7l0.6-3.9C17.6,48.4,17.5,48.1,17.2,48z M104.3,119.5H22.2
				c-5,0-9.6-2.7-12.2-6.9h106.4C113.9,116.9,109.3,119.5,104.3,119.5z"/>
		</g>
		<g>
			<circle fill="#FFD05B" cx="6.1" cy="64.5" r="2.5"/>
		</g>
		<g>
			<circle fill="#E6E9EE" cx="122.3" cy="102.8" r="2"/>
		</g>
		<g>
			<circle fill="#FF7058" cx="81.5" cy="6.9" r="2"/>
		</g>
	</g>
</g>
</svg>
