<?xml version="1.0" encoding="utf-8"?>
<!-- Generator: Adobe Illustrator 18.0.0, SVG Export Plug-In . SVG Version: 6.00 Build 0)  -->
<!DOCTYPE svg PUBLIC "-//W3C//DTD SVG 1.1//EN" "http://www.w3.org/Graphics/SVG/1.1/DTD/svg11.dtd">
<svg version="1.1" id="Layer_1" xmlns="http://www.w3.org/2000/svg" xmlns:xlink="http://www.w3.org/1999/xlink" x="0px" y="0px"
	 viewBox="0 0 129.5 129.5" enable-background="new 0 0 129.5 129.5" xml:space="preserve">
<g>
	<g>
		<path fill="#231F20" d="M118.3,43.3c-0.2,0-0.4-0.1-0.5-0.2c-0.3-0.3-0.3-0.8,0-1.1l1.3-1.3c0.3-0.3,0.8-0.3,1.1,0
			c0.3,0.3,0.3,0.8,0,1.1l-1.3,1.3C118.7,43.3,118.5,43.3,118.3,43.3z"/>
		<path fill="#231F20" d="M114.3,47.4c-0.2,0-0.4-0.1-0.5-0.2c-0.3-0.3-0.3-0.8,0-1.1l1.3-1.3c0.3-0.3,0.8-0.3,1.1,0
			c0.3,0.3,0.3,0.8,0,1.1l-1.3,1.3C114.7,47.3,114.5,47.4,114.3,47.4z"/>
		<path fill="#231F20" d="M119.6,47.4c-0.2,0-0.4-0.1-0.5-0.2l-1.3-1.3c-0.3-0.3-0.3-0.8,0-1.1c0.3-0.3,0.8-0.3,1.1,0l1.3,1.3
			c0.3,0.3,0.3,0.8,0,1.1C120,47.3,119.8,47.4,119.6,47.4z"/>
		<path fill="#231F20" d="M115.6,43.3c-0.2,0-0.4-0.1-0.5-0.2l-1.3-1.3c-0.3-0.3-0.3-0.8,0-1.1c0.3-0.3,0.8-0.3,1.1,0l1.3,1.3
			c0.3,0.3,0.3,0.8,0,1.1C115.9,43.3,115.8,43.3,115.6,43.3z"/>
		<path fill="#231F20" d="M11.5,77.3c-0.2,0-0.4-0.1-0.5-0.2c-0.3-0.3-0.3-0.8,0-1.1l1.3-1.3c0.3-0.3,0.8-0.3,1.1,0
			c0.3,0.3,0.3,0.8,0,1.1l-1.3,1.3C11.9,77.2,11.7,77.3,11.5,77.3z"/>
		<path fill="#231F20" d="M7.5,81.3c-0.2,0-0.4-0.1-0.5-0.2c-0.3-0.3-0.3-0.8,0-1.1l1.3-1.3c0.3-0.3,0.8-0.3,1.1,0
			c0.3,0.3,0.3,0.8,0,1.1L8,81.1C7.9,81.3,7.7,81.3,7.5,81.3z"/>
		<path fill="#231F20" d="M12.8,81.3c-0.2,0-0.4-0.1-0.5-0.2L11,79.8c-0.3-0.3-0.3-0.8,0-1.1c0.3-0.3,0.8-0.3,1.1,0l1.3,1.3
			c0.3,0.3,0.3,0.8,0,1.1C13.2,81.3,13,81.3,12.8,81.3z"/>
		<path fill="#231F20" d="M8.8,77.3c-0.2,0-0.4-0.1-0.5-0.2l-1.3-1.3c-0.3-0.3-0.3-0.8,0-1.1c0.3-0.3,0.8-0.3,1.1,0L9.3,76
			c0.3,0.3,0.3,0.8,0,1.1C9.2,77.2,9,77.3,8.8,77.3z"/>
		<path fill="#231F20" d="M78.9,8.2c-0.2,0-0.4-0.1-0.5-0.2c-0.3-0.3-0.3-0.8,0-1.1l1.3-1.3c0.3-0.3,0.8-0.3,1.1,0
			C81,6,81,6.4,80.7,6.7L79.4,8C79.3,8.2,79.1,8.2,78.9,8.2z"/>
		<path fill="#231F20" d="M74.9,12.3c-0.2,0-0.4-0.1-0.5-0.2c-0.3-0.3-0.3-0.8,0-1.1l1.3-1.3c0.3-0.3,0.8-0.3,1.1,0
			c0.3,0.3,0.3,0.8,0,1.1l-1.3,1.3C75.2,12.2,75,12.3,74.9,12.3z"/>
		<path fill="#231F20" d="M80.2,12.3c-0.2,0-0.4-0.1-0.5-0.2l-1.3-1.3c-0.3-0.3-0.3-0.8,0-1.1c0.3-0.3,0.8-0.3,1.1,0l1.3,1.3
			c0.3,0.3,0.3,0.8,0,1.1C80.6,12.2,80.4,12.3,80.2,12.3z"/>
		<path fill="#231F20" d="M76.1,8.2c-0.2,0-0.4-0.1-0.5-0.2l-1.3-1.3C74,6.4,74,6,74.3,5.7c0.3-0.3,0.8-0.3,1.1,0L76.7,7
			C77,7.2,77,7.7,76.7,8C76.5,8.2,76.3,8.2,76.1,8.2z"/>
		<circle fill="#FFD05B" cx="106.1" cy="20.7" r="17.2"/>
		<path fill="#231F20" d="M92.1,20.7h-1.5c0-0.4,0-0.7,0-1.1l1.5,0.1C92.1,20,92.1,20.3,92.1,20.7z M92.4,17.8l-1.5-0.3
			c0.1-0.3,0.2-0.7,0.2-1l1.5,0.4C92.5,17.2,92.5,17.5,92.4,17.8z M93.3,15.1l-1.4-0.6c0.1-0.3,0.3-0.6,0.5-1l1.3,0.7
			C93.5,14.5,93.4,14.8,93.3,15.1z M94.7,12.6l-1.2-0.9c0.2-0.3,0.4-0.6,0.6-0.8l1.2,0.9C95,12.1,94.8,12.3,94.7,12.6z M96.5,10.4
			l-1-1.1c0.3-0.2,0.5-0.5,0.8-0.7l1,1.2C97,10,96.8,10.2,96.5,10.4z M98.8,8.7L98,7.4c0.3-0.2,0.6-0.4,0.9-0.5l0.7,1.3
			C99.4,8.4,99.1,8.5,98.8,8.7z M101.4,7.5L100.9,6c0.3-0.1,0.7-0.2,1-0.3l0.4,1.5C102,7.3,101.7,7.4,101.4,7.5z M104.2,6.8
			l-0.2-1.5c0.3,0,0.7-0.1,1-0.1l0.1,1.5C104.8,6.7,104.5,6.7,104.2,6.8z"/>
		<path fill="#231F20" d="M106.1,36.2c-8.1,0-14.9-6.3-15.5-14.4l1.5-0.1c0.5,7.3,6.6,13,14,13c7.7,0,14-6.3,14-14
			c0-7.4-5.7-13.5-13.1-14l0.1-1.5c8.1,0.5,14.5,7.3,14.5,15.5C121.6,29.2,114.7,36.2,106.1,36.2z"/>
		<path fill="#231F20" d="M109.7,19.9h-2.8v-5.5h2.8c0.8,0,1.5,0.7,1.5,1.5c0,0.4,0.3,0.8,0.8,0.8c0.4,0,0.8-0.3,0.8-0.8
			c0-1.7-1.4-3-3-3h-2.8V11c0-0.4-0.3-0.8-0.8-0.8c-0.4,0-0.8,0.3-0.8,0.8v1.9h-2.8c-1.7,0-3,1.4-3,3v2.4c0,1.7,1.4,3,3,3h2.8v5.5
			h-2.8c-0.8,0-1.5-0.7-1.5-1.5c0-0.4-0.3-0.8-0.8-0.8c-0.4,0-0.8,0.3-0.8,0.8c0,1.7,1.4,3,3,3h2.8v1.9c0,0.4,0.3,0.8,0.8,0.8
			c0.4,0,0.8-0.3,0.8-0.8v-1.9h2.8c1.7,0,3-1.4,3-3v-2.4C112.7,21.3,111.4,19.9,109.7,19.9z M102.5,19.9c-0.8,0-1.5-0.7-1.5-1.5V16
			c0-0.8,0.7-1.5,1.5-1.5h2.8v5.5H102.5z M111.2,25.4c0,0.8-0.7,1.5-1.5,1.5h-2.8v-5.5h2.8c0.8,0,1.5,0.7,1.5,1.5V25.4z"/>
		<circle fill="#FFFFFF" cx="20.7" cy="21.1" r="16.9"/>
		<path fill="#231F20" d="M20.7,38.8C11,38.8,3,30.8,3,21.1C3,11.3,11,3.4,20.7,3.4c9.8,0,17.7,7.9,17.7,17.7
			C38.4,30.8,30.5,38.8,20.7,38.8z M20.7,4.9c-8.9,0-16.2,7.3-16.2,16.2s7.3,16.2,16.2,16.2c8.9,0,16.2-7.3,16.2-16.2
			S29.6,4.9,20.7,4.9z"/>
		<circle fill="#84DBFF" cx="20.7" cy="21.1" r="14.6"/>
		<rect x="13.8" y="9.7" transform="matrix(0.5 0.866 -0.866 0.5 16.403 -7.4086)" fill="#231F20" width="1.5" height="1.5"/>
		<rect x="26" y="30.9" transform="matrix(0.5 0.866 -0.866 0.5 40.8085 -7.4091)" fill="#231F20" width="1.5" height="1.5"/>
		<rect x="9.4" y="14.2" transform="matrix(0.866 0.5 -0.5 0.866 8.8439 -3.07)" fill="#231F20" width="1.5" height="1.5"/>
		<rect x="30.5" y="26.4" transform="matrix(0.866 0.5 -0.5 0.866 17.7796 -12.0042)" fill="#231F20" width="1.5" height="1.5"/>
		<rect x="7.7" y="20.3" fill="#231F20" width="1.5" height="1.5"/>
		<rect x="32.1" y="20.3" fill="#231F20" width="1.5" height="1.5"/>
		<rect x="9.4" y="26.4" transform="matrix(0.5 0.866 -0.866 0.5 28.6058 4.7943)" fill="#231F20" width="1.5" height="1.5"/>
		
			<rect x="30.5" y="14.2" transform="matrix(0.5001 0.866 -0.866 0.5001 28.604 -19.6116)" fill="#231F20" width="1.5" height="1.5"/>
		
			<rect x="13.9" y="30.9" transform="matrix(0.866 0.5001 -0.5001 0.866 17.7802 -3.0698)" fill="#231F20" width="1.5" height="1.5"/>
		<rect x="26.1" y="9.7" transform="matrix(0.866 0.5001 -0.5001 0.866 8.8456 -12.005)" fill="#231F20" width="1.5" height="1.5"/>
		<polygon fill="#231F20" points="26.8,21.8 20,21.8 20,13 21.5,13 21.5,20.3 26.8,20.3 		"/>
		<rect x="20" y="8.1" fill="#231F20" width="1.5" height="1.5"/>
		<rect x="20" y="32.5" fill="#231F20" width="1.5" height="1.5"/>
		<g>
			<circle fill="#FFFFFF" cx="68" cy="34" r="12.5"/>
			<g>
				<circle fill="#FF7058" cx="68" cy="34" r="3.4"/>
			</g>
			<path fill="#231F20" d="M77.3,24.7c-5-5-12.9-5.1-18.1-0.5l-2.8-2.8l0.5-3.8c0-0.2,0-0.5-0.2-0.6L51.9,12
				c-0.2-0.2-0.5-0.3-0.8-0.2c-0.3,0.1-0.5,0.3-0.5,0.6l-0.5,3.6l-3.6,0.5c-0.3,0-0.5,0.2-0.6,0.5c-0.1,0.3,0,0.6,0.2,0.8l4.8,4.8
				c0.2,0.2,0.4,0.2,0.6,0.2l3.8-0.5l2.8,2.8c-4.6,5.2-4.5,13.1,0.5,18.1c5.1,5.1,13.5,5.1,18.7,0C82.5,38.2,82.5,29.9,77.3,24.7z
				 M51.9,14.2l3.5,3.5L55,20l-3.5-3.5L51.9,14.2z M51.6,21.4l-3.5-3.5l2.3-0.3l3.5,3.5L51.6,21.4z M76.3,42.3
				c-4.6,4.6-12,4.6-16.5,0c-4.4-4.4-4.5-11.4-0.5-16l1.3,1.3c-3.3,3.9-3.2,9.8,0.5,13.4c3.9,3.9,10.1,3.9,14,0
				c3.9-3.9,3.9-10.1,0-14c-3.7-3.7-9.6-3.8-13.4-0.5l-1.3-1.3c4.6-4,11.6-3.9,16,0.5C80.8,30.3,80.8,37.8,76.3,42.3z M62.8,29.9
				c-2.1,2.6-1.9,6.5,0.5,8.9c2.6,2.6,6.9,2.6,9.5,0c2.6-2.6,2.6-6.9,0-9.5c-2.4-2.4-6.3-2.6-8.9-0.5l-1.2-1.2
				c3.3-2.8,8.2-2.6,11.3,0.5c3.3,3.3,3.3,8.6,0,11.9c-3.3,3.3-8.6,3.3-11.9,0c-3.1-3.1-3.3-8-0.5-11.3L62.8,29.9z M67.5,34.6
				c0.3,0.3,0.8,0.3,1.1,0c0.3-0.3,0.3-0.8,0-1.1l-3.6-3.6c2-1.5,4.9-1.4,6.7,0.5c2,2,2,5.3,0,7.3c-2,2-5.3,2-7.3,0
				c-1.8-1.8-2-4.7-0.5-6.7L67.5,34.6z"/>
		</g>
		<polygon fill="#FFFFFF" points="64.1,66.1 95.1,76.2 95.1,118.5 64.1,101.2 		"/>
		<polygon fill="#FFFFFF" points="64.1,128.7 33.1,118.7 33.1,76.4 64.1,86.5 		"/>
		<polygon fill="#FFFFFF" points="64.1,128.7 95.1,118.7 95.1,76.4 64.1,86.5 		"/>
		<polygon fill="#FFFFFF" points="75.1,99.5 106.1,89.5 95.1,76.4 64.1,86.5 		"/>
		<polygon fill="#FFFFFF" points="53.1,99.5 22.1,89.5 33.1,76.4 64.1,86.5 		"/>
		<polygon fill="#FFFFFF" points="75.1,53.3 106.1,63.4 95.1,76.4 64.1,66.4 		"/>
		<polygon fill="#FFFFFF" points="53.1,53.3 22.1,63.4 33.1,76.4 64.1,66.4 		"/>
		<path fill="#FFFFFF" d="M63.1,66.6c0.9-2.5,1.2-5.2,0.5-8c-1.7-7.5-9.2-12.3-16.8-10.6c-7.5,1.7-12.3,9.2-10.6,16.8
			C38,72.3,45.5,77.1,53,75.4c2.8-0.6,5.1-2,7-3.9l6.7,0.8L63.1,66.6z"/>
		<path fill="#231F20" d="M96.1,76.4l10.6-12.5c0.2-0.2,0.2-0.5,0.1-0.7c-0.1-0.2-0.3-0.4-0.5-0.5l-31-10.1c-0.3-0.1-0.6,0-0.8,0.2
			L64.3,64.9c0.5-2.1,0.5-4.3,0-6.5c-1.5-6.8-7.4-11.5-14.4-11.5c-1.1,0-2.2,0.1-3.3,0.4c-3.8,0.9-7.1,3.2-9.2,6.5
			c-0.9,1.4-1.5,2.9-1.9,4.4l-13.7,4.4c-0.2,0.1-0.4,0.3-0.5,0.5c-0.1,0.2,0,0.5,0.1,0.7l10.6,12.5L21.6,89
			c-0.2,0.2-0.2,0.5-0.1,0.7c0.1,0.2,0.3,0.4,0.5,0.5l10.5,3.4v25.1c0,0.3,0.2,0.6,0.5,0.7l31,10.1c0.1,0,0.2,0,0.2,0
			c0.1,0,0.2,0,0.2,0l31-10.1c0.3-0.1,0.5-0.4,0.5-0.7V93.6l10.5-3.4c0.2-0.1,0.4-0.3,0.5-0.5c0.1-0.2,0-0.5-0.1-0.7L96.1,76.4z
			 M75.4,54.2l29.4,9.6l-9.9,11.8L65.4,66L75.4,54.2z M64.9,72.8l1.7,0.2c0.3,0,0.6-0.1,0.7-0.3c0.2-0.2,0.2-0.6,0-0.8l-2.9-4.6
			l28.3,9.2l-27.8,9V72.8z M38.7,54.6c1.9-3,4.8-5.1,8.3-5.9c1-0.2,2-0.3,2.9-0.3c6.1,0,11.6,4.3,12.9,10.3c0.6,2.5,0.4,5.1-0.5,7.5
			c-0.1,0.2-0.1,0.5,0.1,0.7l2.8,4.3l-5.1-0.6c-0.2,0-0.5,0.1-0.6,0.2c-1.8,1.9-4.1,3.1-6.6,3.7c-1,0.2-2,0.3-2.9,0.3
			c-6.1,0-11.6-4.3-12.9-10.3C36.2,61.2,36.8,57.6,38.7,54.6z M23.4,63.8l11.9-3.9c-0.2,1.7-0.1,3.3,0.2,5c0.8,3.4,2.6,6.2,5.1,8.2
			l-7.3,2.4L23.4,63.8z M23.4,89.1l9.9-11.8l29.4,9.6l-9.9,11.8L23.4,89.1z M63.4,127.7l-29.5-9.6V94.1l19,6.2c0.1,0,0.2,0,0.2,0
			c0.2,0,0.4-0.1,0.6-0.3l9.7-11.4V127.7z M35.6,76.4l6.6-2.2c2.3,1.4,4.9,2.2,7.7,2.2c1.1,0,2.2-0.1,3.3-0.4
			c2.7-0.6,5.1-1.9,7.1-3.9l3.1,0.4v12.8L35.6,76.4z M94.4,118.1l-29.5,9.6V88.6l9.7,11.4c0.1,0.2,0.4,0.3,0.6,0.3
			c0.1,0,0.2,0,0.2,0l19-6.2V118.1z M75.4,98.6l-9.9-11.8l29.4-9.6l9.9,11.8L75.4,98.6z"/>
		<path fill="#FF7058" d="M50,69.6c1.8-0.8,7.6-3.8,7.6-10.1c0-2.1-1.7-3.7-3.8-3.7c-1.1,0-2.1,0.5-2.8,1.2l-1,1.1l-1-1.1
			c-0.7-0.8-1.7-1.2-2.8-1.2c-2.1,0-3.8,1.7-3.8,3.7C42.5,65.8,48.3,68.9,50,69.6z"/>
		<line fill="#FFFFFF" x1="9.3" y1="47.2" x2="17.4" y2="47.2"/>
		<path fill="#231F20" d="M17.4,48H9.3c-0.4,0-0.8-0.3-0.8-0.8c0-0.4,0.3-0.8,0.8-0.8h8.1c0.4,0,0.8,0.3,0.8,0.8
			C18.2,47.7,17.8,48,17.4,48z"/>
		<line fill="#FFFFFF" x1="16.6" y1="50.2" x2="20.6" y2="50.2"/>
		<path fill="#231F20" d="M20.6,51h-4c-0.4,0-0.8-0.3-0.8-0.8c0-0.4,0.3-0.8,0.8-0.8h4c0.4,0,0.8,0.3,0.8,0.8
			C21.4,50.6,21,51,20.6,51z"/>
		<line fill="#FFFFFF" x1="21.1" y1="47.2" x2="24.9" y2="47.2"/>
		<path fill="#231F20" d="M24.9,48h-3.8c-0.4,0-0.8-0.3-0.8-0.8c0-0.4,0.3-0.8,0.8-0.8h3.8c0.4,0,0.8,0.3,0.8,0.8
			C25.7,47.7,25.3,48,24.9,48z"/>
		<line fill="#FFFFFF" x1="13" y1="50.2" x2="13.7" y2="50.2"/>
		<path fill="#231F20" d="M13.7,51H13c-0.4,0-0.8-0.3-0.8-0.8c0-0.4,0.3-0.8,0.8-0.8h0.8c0.4,0,0.8,0.3,0.8,0.8
			C14.5,50.6,14.2,51,13.7,51z"/>
		<line fill="#FFFFFF" x1="110.1" y1="75" x2="118.2" y2="75"/>
		<path fill="#231F20" d="M118.2,75.7h-8.1c-0.4,0-0.8-0.3-0.8-0.8s0.3-0.8,0.8-0.8h8.1c0.4,0,0.8,0.3,0.8,0.8
			S118.6,75.7,118.2,75.7z"/>
		<line fill="#FFFFFF" x1="117.5" y1="77.9" x2="121.4" y2="77.9"/>
		<path fill="#231F20" d="M121.4,78.7h-4c-0.4,0-0.8-0.3-0.8-0.8c0-0.4,0.3-0.8,0.8-0.8h4c0.4,0,0.8,0.3,0.8,0.8
			C122.2,78.3,121.8,78.7,121.4,78.7z"/>
		<line fill="#FFFFFF" x1="121.9" y1="75" x2="125.7" y2="75"/>
		<path fill="#231F20" d="M125.7,75.7h-3.8c-0.4,0-0.8-0.3-0.8-0.8s0.3-0.8,0.8-0.8h3.8c0.4,0,0.8,0.3,0.8,0.8
			S126.1,75.7,125.7,75.7z"/>
		<line fill="#FFFFFF" x1="113.8" y1="77.9" x2="114.5" y2="77.9"/>
		<path fill="#231F20" d="M114.5,78.7h-0.8c-0.4,0-0.8-0.3-0.8-0.8c0-0.4,0.3-0.8,0.8-0.8h0.8c0.4,0,0.8,0.3,0.8,0.8
			C115.3,78.3,115,78.7,114.5,78.7z"/>
		<path fill="#231F20" d="M114.7,103.5c-1.9,0-3.5-1.6-3.5-3.5c0-1.9,1.6-3.5,3.5-3.5c1.9,0,3.5,1.6,3.5,3.5
			C118.2,101.9,116.6,103.5,114.7,103.5z M114.7,98c-1.1,0-2,0.9-2,2c0,1.1,0.9,2,2,2c1.1,0,2-0.9,2-2C116.7,98.9,115.8,98,114.7,98
			z"/>
		<circle fill="#84DBFF" cx="92" cy="46.3" r="2.2"/>
		<circle fill="#FF7058" cx="18.6" cy="104.9" r="2.2"/>
		<circle fill="#84DBFF" cx="113.8" cy="116.3" r="2.2"/>
		<circle fill="#E6E9EE" cx="43.1" cy="40" r="2.2"/>
		<circle fill="#84DBFF" cx="61" cy="2.2" r="2.2"/>
	</g>
</g>
</svg>
