<?xml version="1.0" encoding="utf-8"?>
<!-- Generator: Adobe Illustrator 18.0.0, SVG Export Plug-In . SVG Version: 6.00 Build 0)  -->
<!DOCTYPE svg PUBLIC "-//W3C//DTD SVG 1.1//EN" "http://www.w3.org/Graphics/SVG/1.1/DTD/svg11.dtd">
<svg version="1.1" id="Layer_1" xmlns="http://www.w3.org/2000/svg" xmlns:xlink="http://www.w3.org/1999/xlink" x="0px" y="0px"
	 viewBox="0 0 129.5 129.5" enable-background="new 0 0 129.5 129.5" xml:space="preserve">
<g>
	<g>
		<g>
			<path fill="#231F20" d="M59.6,9.1c-0.2,0-0.4-0.1-0.5-0.2c-0.3-0.3-0.3-0.8,0-1.1l1.3-1.3c0.3-0.3,0.8-0.3,1.1,0
				c0.3,0.3,0.3,0.8,0,1.1l-1.3,1.3C60,9,59.8,9.1,59.6,9.1z"/>
		</g>
		<g>
			<path fill="#231F20" d="M55.6,13.1c-0.2,0-0.4-0.1-0.5-0.2c-0.3-0.3-0.3-0.8,0-1.1l1.3-1.3c0.3-0.3,0.8-0.3,1.1,0
				c0.3,0.3,0.3,0.8,0,1.1l-1.3,1.3C56,13,55.8,13.1,55.6,13.1z"/>
		</g>
		<g>
			<path fill="#231F20" d="M60.9,13.1c-0.2,0-0.4-0.1-0.5-0.2l-1.3-1.3c-0.3-0.3-0.3-0.8,0-1.1c0.3-0.3,0.8-0.3,1.1,0l1.3,1.3
				c0.3,0.3,0.3,0.8,0,1.1C61.3,13,61.1,13.1,60.9,13.1z"/>
		</g>
		<g>
			<path fill="#231F20" d="M56.9,9.1c-0.2,0-0.4-0.1-0.5-0.2l-1.3-1.3c-0.3-0.3-0.3-0.8,0-1.1c0.3-0.3,0.8-0.3,1.1,0l1.3,1.3
				c0.3,0.3,0.3,0.8,0,1.1C57.3,9,57.1,9.1,56.9,9.1z"/>
		</g>
		<g>
			<path fill="#231F20" d="M93.7,115.9c-0.2,0-0.4-0.1-0.5-0.2c-0.3-0.3-0.3-0.8,0-1.1l1.3-1.3c0.3-0.3,0.8-0.3,1.1,0
				c0.3,0.3,0.3,0.8,0,1.1l-1.3,1.3C94.1,115.9,93.9,115.9,93.7,115.9z"/>
		</g>
		<g>
			<path fill="#231F20" d="M89.7,120c-0.2,0-0.4-0.1-0.5-0.2c-0.3-0.3-0.3-0.8,0-1.1l1.3-1.3c0.3-0.3,0.8-0.3,1.1,0
				c0.3,0.3,0.3,0.8,0,1.1l-1.3,1.3C90.1,119.9,89.9,120,89.7,120z"/>
		</g>
		<g>
			<path fill="#231F20" d="M95,120c-0.2,0-0.4-0.1-0.5-0.2l-1.3-1.3c-0.3-0.3-0.3-0.8,0-1.1c0.3-0.3,0.8-0.3,1.1,0l1.3,1.3
				c0.3,0.3,0.3,0.8,0,1.1C95.4,119.9,95.2,120,95,120z"/>
		</g>
		<g>
			<path fill="#231F20" d="M91,115.9c-0.2,0-0.4-0.1-0.5-0.2l-1.3-1.3c-0.3-0.3-0.3-0.8,0-1.1c0.3-0.3,0.8-0.3,1.1,0l1.3,1.3
				c0.3,0.3,0.3,0.8,0,1.1C91.3,115.9,91.1,115.9,91,115.9z"/>
		</g>
		<g>
			<path fill="#231F20" d="M10.3,64.1c-0.2,0-0.4-0.1-0.5-0.2c-0.3-0.3-0.3-0.8,0-1.1l1.3-1.3c0.3-0.3,0.8-0.3,1.1,0
				c0.3,0.3,0.3,0.8,0,1.1l-1.3,1.3C10.7,64.1,10.5,64.1,10.3,64.1z"/>
		</g>
		<g>
			<path fill="#231F20" d="M6.3,68.1c-0.2,0-0.4-0.1-0.5-0.2c-0.3-0.3-0.3-0.8,0-1.1L7,65.6c0.3-0.3,0.8-0.3,1.1,0
				c0.3,0.3,0.3,0.8,0,1.1l-1.3,1.3C6.7,68.1,6.5,68.1,6.3,68.1z"/>
		</g>
		<g>
			<path fill="#231F20" d="M11.6,68.1c-0.2,0-0.4-0.1-0.5-0.2l-1.3-1.3c-0.3-0.3-0.3-0.8,0-1.1c0.3-0.3,0.8-0.3,1.1,0l1.3,1.3
				c0.3,0.3,0.3,0.8,0,1.1C11.9,68.1,11.8,68.1,11.6,68.1z"/>
		</g>
		<g>
			<path fill="#231F20" d="M7.5,64.1c-0.2,0-0.4-0.1-0.5-0.2l-1.3-1.3c-0.3-0.3-0.3-0.8,0-1.1c0.3-0.3,0.8-0.3,1.1,0l1.3,1.3
				c0.3,0.3,0.3,0.8,0,1.1C7.9,64.1,7.7,64.1,7.5,64.1z"/>
		</g>
		<path fill="#231F20" d="M64.5,107.3c-0.3,0-0.7,0-1,0l0-1.5c0.3,0,0.7,0,1,0L64.5,107.3z M66.5,107.3l-0.1-1.5c0.3,0,0.7,0,1-0.1
			l0.1,1.5C67.2,107.3,66.9,107.3,66.5,107.3z M61.4,107.2c-0.3,0-0.7-0.1-1-0.1l0.2-1.5c0.3,0,0.7,0.1,1,0.1L61.4,107.2z
			 M69.6,107.1l-0.2-1.5c0.3,0,0.7-0.1,1-0.1l0.2,1.5C70.2,107,69.9,107,69.6,107.1z M58.4,106.9c-0.3,0-0.7-0.1-1-0.2l0.3-1.5
			c0.3,0.1,0.6,0.1,1,0.2L58.4,106.9z M72.6,106.6l-0.3-1.5c0.3-0.1,0.6-0.1,1-0.2l0.3,1.5C73.3,106.5,72.9,106.6,72.6,106.6z
			 M55.4,106.3c-0.3-0.1-0.7-0.2-1-0.2l0.4-1.5c0.3,0.1,0.6,0.2,1,0.2L55.4,106.3z M75.6,106l-0.4-1.4c0.3-0.1,0.6-0.2,0.9-0.3
			l0.4,1.4C76.2,105.8,75.9,105.9,75.6,106z M52.5,105.5c-0.3-0.1-0.7-0.2-1-0.3l0.5-1.4c0.3,0.1,0.6,0.2,0.9,0.3L52.5,105.5z
			 M78.5,105.1l-0.5-1.4c0.3-0.1,0.6-0.2,0.9-0.3l0.5,1.4C79.1,104.9,78.8,105,78.5,105.1z M49.6,104.6c-0.3-0.1-0.6-0.2-0.9-0.4
			l0.6-1.4c0.3,0.1,0.6,0.2,0.9,0.4L49.6,104.6z M81.3,104l-0.6-1.4c0.3-0.1,0.6-0.3,0.9-0.4l0.6,1.4C82,103.7,81.7,103.9,81.3,104z
			 M46.7,103.4c-0.3-0.1-0.6-0.3-0.9-0.4l0.7-1.3c0.3,0.1,0.6,0.3,0.9,0.4L46.7,103.4z M84.1,102.7l-0.7-1.3
			c0.3-0.1,0.6-0.3,0.9-0.5l0.7,1.3C84.7,102.4,84.4,102.5,84.1,102.7z M44,102c-0.3-0.2-0.6-0.3-0.9-0.5l0.8-1.3
			c0.3,0.2,0.6,0.3,0.9,0.5L44,102z M86.8,101.2L86,99.9c0.3-0.2,0.6-0.3,0.8-0.5l0.8,1.3C87.3,100.9,87.1,101,86.8,101.2z
			 M41.4,100.4c-0.3-0.2-0.6-0.4-0.8-0.6l0.9-1.2c0.3,0.2,0.5,0.4,0.8,0.5L41.4,100.4z M89.3,99.5l-0.9-1.2c0.3-0.2,0.5-0.4,0.8-0.6
			l0.9,1.2C89.9,99.2,89.6,99.4,89.3,99.5z M38.9,98.6c-0.3-0.2-0.5-0.4-0.8-0.6l0.9-1.2c0.3,0.2,0.5,0.4,0.8,0.6L38.9,98.6z
			 M91.7,97.7l-1-1.2c0.3-0.2,0.5-0.4,0.8-0.6l1,1.1C92.3,97.3,92,97.5,91.7,97.7z M36.6,96.7c-0.3-0.2-0.5-0.5-0.8-0.7l1-1.1
			c0.2,0.2,0.5,0.4,0.7,0.7L36.6,96.7z M94,95.7l-1-1.1c0.2-0.2,0.5-0.5,0.7-0.7l1.1,1.1C94.5,95.2,94.3,95.4,94,95.7z M34.3,94.6
			c-0.2-0.2-0.5-0.5-0.7-0.7l1.1-1c0.2,0.2,0.4,0.5,0.7,0.7L34.3,94.6z M96.2,93.5l-1.1-1c0.2-0.2,0.4-0.5,0.7-0.7l1.1,1
			C96.6,93,96.4,93.3,96.2,93.5z M32.3,92.3c-0.2-0.3-0.4-0.5-0.7-0.8l1.2-0.9c0.2,0.3,0.4,0.5,0.6,0.8L32.3,92.3z M98.1,91.2
			L97,90.2c0.2-0.3,0.4-0.5,0.6-0.8l1.2,0.9C98.6,90.6,98.4,90.9,98.1,91.2z M30.4,89.9c-0.2-0.3-0.4-0.5-0.6-0.8l1.2-0.9
			c0.2,0.3,0.4,0.5,0.6,0.8L30.4,89.9z M100,88.7l-1.2-0.8c0.2-0.3,0.4-0.5,0.5-0.8l1.3,0.8C100.3,88.2,100.2,88.4,100,88.7z
			 M28.7,87.4c-0.2-0.3-0.4-0.6-0.5-0.9l1.3-0.8c0.2,0.3,0.3,0.6,0.5,0.8L28.7,87.4z M101.6,86.1l-1.3-0.8c0.2-0.3,0.3-0.6,0.5-0.9
			l1.3,0.7C101.9,85.5,101.8,85.8,101.6,86.1z M27.2,84.8c-0.2-0.3-0.3-0.6-0.5-0.9l1.3-0.7c0.1,0.3,0.3,0.6,0.5,0.9L27.2,84.8z
			 M103,83.4l-1.3-0.7c0.1-0.3,0.3-0.6,0.4-0.9l1.4,0.6C103.3,82.8,103.2,83.1,103,83.4z M25.8,82c-0.1-0.3-0.3-0.6-0.4-0.9l1.4-0.6
			c0.1,0.3,0.3,0.6,0.4,0.9L25.8,82z M104.3,80.6l-1.4-0.6c0.1-0.3,0.2-0.6,0.4-0.9l1.4,0.5C104.5,80,104.4,80.3,104.3,80.6z
			 M24.7,79.2c-0.1-0.3-0.2-0.6-0.3-1l1.4-0.5c0.1,0.3,0.2,0.6,0.3,0.9L24.7,79.2z M105.3,77.8l-1.4-0.5c0.1-0.3,0.2-0.6,0.3-0.9
			l1.4,0.4C105.5,77.1,105.4,77.4,105.3,77.8z M23.7,76.3c-0.1-0.3-0.2-0.7-0.3-1l1.5-0.4c0.1,0.3,0.2,0.6,0.3,1L23.7,76.3z
			 M106.1,74.8l-1.5-0.4c0.1-0.3,0.2-0.6,0.2-1l1.5,0.3C106.3,74.2,106.2,74.5,106.1,74.8z M23,73.3c-0.1-0.3-0.1-0.7-0.2-1l1.5-0.3
			c0.1,0.3,0.1,0.6,0.2,1L23,73.3z M106.8,71.8l-1.5-0.3c0.1-0.3,0.1-0.6,0.2-1l1.5,0.2C106.9,71.2,106.8,71.5,106.8,71.8z
			 M22.5,70.3c0-0.3-0.1-0.7-0.1-1l1.5-0.2c0,0.3,0.1,0.7,0.1,1L22.5,70.3z M107.2,68.8l-1.5-0.1c0-0.3,0.1-0.7,0.1-1l1.5,0.1
			C107.2,68.1,107.2,68.5,107.2,68.8z M22.2,67.3c0-0.3,0-0.7,0-1l1.5-0.1c0,0.3,0,0.7,0,1L22.2,67.3z M107.3,65.8l-1.5,0
			c0-0.3,0-0.7,0-1h1.5C107.3,65.1,107.3,65.4,107.3,65.8z M23.7,64.3l-1.5,0c0-0.3,0-0.7,0-1l1.5,0.1
			C23.7,63.6,23.7,63.9,23.7,64.3z M105.8,63.8c0-0.3,0-0.7,0-1l1.5-0.1c0,0.3,0,0.7,0,1L105.8,63.8z M23.8,61.3l-1.5-0.1
			c0-0.3,0.1-0.7,0.1-1l1.5,0.2C23.9,60.7,23.8,61,23.8,61.3z M105.7,60.8c0-0.3-0.1-0.7-0.1-1l1.5-0.2c0,0.3,0.1,0.7,0.1,1
			L105.7,60.8z M24.1,58.4l-1.5-0.2c0.1-0.3,0.1-0.7,0.2-1l1.5,0.3C24.3,57.7,24.2,58.1,24.1,58.4z M105.3,57.9
			c-0.1-0.3-0.1-0.6-0.2-1l1.5-0.3c0.1,0.3,0.1,0.7,0.2,1L105.3,57.9z M24.7,55.5l-1.5-0.3c0.1-0.3,0.2-0.7,0.2-1l1.5,0.4
			C24.9,54.9,24.8,55.2,24.7,55.5z M104.7,55c-0.1-0.3-0.2-0.6-0.2-1l1.4-0.4c0.1,0.3,0.2,0.7,0.3,1L104.7,55z M25.5,52.7L24,52.2
			c0.1-0.3,0.2-0.6,0.3-1l1.4,0.5C25.7,52,25.6,52.3,25.5,52.7z M103.9,52.2c-0.1-0.3-0.2-0.6-0.3-0.9l1.4-0.5
			c0.1,0.3,0.2,0.6,0.3,1L103.9,52.2z M26.4,49.9L25,49.3c0.1-0.3,0.3-0.6,0.4-0.9l1.4,0.6C26.7,49.3,26.6,49.6,26.4,49.9z
			 M102.9,49.4c-0.1-0.3-0.2-0.6-0.4-0.9l1.4-0.6c0.1,0.3,0.3,0.6,0.4,0.9L102.9,49.4z M27.6,47.2l-1.4-0.6c0.1-0.3,0.3-0.6,0.4-0.9
			l1.3,0.7C27.9,46.6,27.7,46.9,27.6,47.2z M101.7,46.7c-0.1-0.3-0.3-0.6-0.4-0.9l1.3-0.7c0.2,0.3,0.3,0.6,0.5,0.9L101.7,46.7z
			 M29,44.5l-1.3-0.7c0.2-0.3,0.3-0.6,0.5-0.9l1.3,0.8C29.3,44,29.1,44.3,29,44.5z M100.3,44.2c-0.2-0.3-0.3-0.6-0.5-0.8l1.3-0.8
			c0.2,0.3,0.3,0.6,0.5,0.9L100.3,44.2z M30.5,42l-1.3-0.8c0.2-0.3,0.4-0.6,0.6-0.8l1.2,0.9C30.9,41.5,30.7,41.8,30.5,42z
			 M98.8,41.7c-0.2-0.3-0.4-0.5-0.6-0.8l1.2-0.9c0.2,0.3,0.4,0.6,0.6,0.8L98.8,41.7z M32.2,39.6L31,38.7c0.2-0.3,0.4-0.5,0.6-0.8
			l1.2,0.9C32.6,39.1,32.4,39.4,32.2,39.6z M97,39.3c-0.2-0.3-0.4-0.5-0.6-0.8l1.2-1c0.2,0.3,0.4,0.5,0.6,0.8L97,39.3z M34.1,37.4
			l-1.1-1c0.2-0.3,0.5-0.5,0.7-0.7l1.1,1C34.6,36.9,34.3,37.1,34.1,37.4z M95.1,37.1c-0.2-0.2-0.4-0.5-0.7-0.7l1.1-1
			c0.2,0.2,0.5,0.5,0.7,0.7L95.1,37.1z M36.2,35.2l-1-1.1c0.2-0.2,0.5-0.5,0.7-0.7l1,1.1C36.6,34.8,36.4,35,36.2,35.2z M93,34.9
			c-0.2-0.2-0.5-0.4-0.7-0.7l1-1.1c0.3,0.2,0.5,0.5,0.7,0.7L93,34.9z M38.3,33.3l-1-1.1c0.3-0.2,0.5-0.4,0.8-0.6l0.9,1.2
			C38.8,32.9,38.6,33.1,38.3,33.3z M90.8,33c-0.3-0.2-0.5-0.4-0.8-0.6l0.9-1.2c0.3,0.2,0.5,0.4,0.8,0.6L90.8,33z M40.7,31.5
			l-0.9-1.2c0.3-0.2,0.6-0.4,0.8-0.6l0.9,1.2C41.2,31.1,40.9,31.3,40.7,31.5z M88.5,31.2c-0.3-0.2-0.5-0.4-0.8-0.6l0.8-1.2
			c0.3,0.2,0.6,0.4,0.8,0.6L88.5,31.2z M43.1,29.8l-0.8-1.3c0.3-0.2,0.6-0.4,0.9-0.5l0.8,1.3C43.7,29.5,43.4,29.6,43.1,29.8z
			 M86,29.6c-0.3-0.2-0.6-0.3-0.8-0.5l0.7-1.3c0.3,0.2,0.6,0.3,0.9,0.5L86,29.6z M45.7,28.4L45,27c0.3-0.2,0.6-0.3,0.9-0.5l0.7,1.3
			C46.2,28.1,45.9,28.2,45.7,28.4z M83.5,28.2c-0.3-0.2-0.6-0.3-0.9-0.4l0.7-1.3c0.3,0.1,0.6,0.3,0.9,0.5L83.5,28.2z M48.3,27.1
			l-0.6-1.4c0.3-0.1,0.6-0.3,0.9-0.4l0.6,1.4C48.9,26.8,48.6,27,48.3,27.1z M80.8,26.9c-0.3-0.1-0.6-0.3-0.9-0.4l0.6-1.4
			c0.3,0.1,0.6,0.3,0.9,0.4L80.8,26.9z M51,26l-0.5-1.4c0.3-0.1,0.6-0.2,1-0.3l0.5,1.4C51.7,25.8,51.3,25.9,51,26z M78,25.8
			c-0.3-0.1-0.6-0.2-0.9-0.3l0.5-1.4c0.3,0.1,0.6,0.2,1,0.3L78,25.8z M53.8,25.1l-0.4-1.4c0.3-0.1,0.7-0.2,1-0.3l0.4,1.5
			C54.5,25,54.2,25,53.8,25.1z M75.2,25c-0.3-0.1-0.6-0.2-1-0.2l0.3-1.5c0.3,0.1,0.7,0.2,1,0.2L75.2,25z M56.7,24.4L56.4,23
			c0.3-0.1,0.7-0.1,1-0.2l0.3,1.5C57.4,24.3,57,24.4,56.7,24.4z M72.3,24.4c-0.3-0.1-0.6-0.1-1-0.2l0.2-1.5c0.3,0.1,0.7,0.1,1,0.2
			L72.3,24.4z M59.6,24l-0.2-1.5c0.3,0,0.7-0.1,1-0.1l0.1,1.5C60.3,23.9,59.9,23.9,59.6,24z M69.4,23.9c-0.3,0-0.6-0.1-1-0.1
			l0.1-1.5c0.3,0,0.7,0.1,1,0.1L69.4,23.9z M62.6,23.7l-0.1-1.5c0.3,0,0.7,0,1,0l0,1.5C63.2,23.7,62.9,23.7,62.6,23.7z M66.5,23.7
			c-0.3,0-0.7,0-1,0l0-1.5c0.3,0,0.7,0,1,0L66.5,23.7z"/>
		<g>
			<path fill="#FF7058" d="M126.1,44.4c0,6.3-6.8,12.7-6.8,12.7s-6.8-6.4-6.8-12.7c0-3.8,3.1-6.8,6.8-6.8
				C123,37.5,126.1,40.6,126.1,44.4z"/>
		</g>
		<g>
			<circle fill="#FFFFFF" cx="119.2" cy="44.4" r="4.4"/>
		</g>
		<path fill="#FFFFFF" d="M68.1,111H1V75c0-1.7,1.3-3,3-3h61.1c1.7,0,3,1.3,3,3V111z"/>
		<rect x="4.7" y="75.7" fill="#84DBFF" width="59.8" height="31.7"/>
		<polygon fill="#54C0EB" points="4.7,107.4 64.4,75.7 64.4,107.4 		"/>
		<polygon fill="#FFFFFF" points="40.8,124.6 43.9,119 24.2,119 27.2,124.6 		"/>
		<path fill="#FFFFFF" d="M47.5,128.5L47.5,128.5c0-2.2-1.8-3.9-3.9-3.9H24.5c-2.2,0-3.9,1.8-3.9,3.9l0,0H47.5z"/>
		<path fill="#FFFFFF" d="M65.1,119H4c-1.7,0-3-1.3-3-3v-5h67.1v5C68.1,117.7,66.7,119,65.1,119z"/>
		<path fill="#FFFFFF" d="M112.6,31.8c0,5.4-4.4,9.8-9.8,9.8H71.2c-5.4,0-9.8-4.4-9.8-9.8c0-4.5,3-8.2,7-9.4c0-0.1,0-0.3,0-0.4
			c0-7.5,6.1-13.6,13.6-13.6c5.3,0,9.8,3,12.1,7.3c0.9-0.6,2-1,3.1-1c3.1,0,5.5,2.5,5.5,5.5c0,0.6-0.1,1.2-0.3,1.7
			c0.1,0,0.2,0,0.3,0C108.2,22,112.6,26.4,112.6,31.8z"/>
		<path fill="#FFFFFF" d="M128.5,20.7c0,4.6-3.7,8.3-8.3,8.3H93.7c-4.6,0-8.3-3.7-8.3-8.3c0-3.7,2.5-6.9,5.9-7.9c0-0.1,0-0.2,0-0.3
			C91.3,6.1,96.4,1,102.8,1c4.4,0,8.3,2.5,10.2,6.2c0.7-0.5,1.7-0.8,2.6-0.8c2.6,0,4.7,2.1,4.7,4.7c0,0.5-0.1,1-0.2,1.4
			c0.1,0,0.2,0,0.2,0C124.8,12.5,128.5,16.2,128.5,20.7z"/>
		<g>
			<circle fill="#4CDBC4" cx="11.9" cy="10" r="9"/>
		</g>
		<g>
			<circle fill="#FFFFFF" cx="11.9" cy="6.1" r="2"/>
			<path fill="#231F20" d="M11.9,8.8c-1.5,0-2.7-1.2-2.7-2.7s1.2-2.7,2.7-2.7c1.5,0,2.7,1.2,2.7,2.7S13.4,8.8,11.9,8.8z M11.9,4.8
				c-0.7,0-1.2,0.6-1.2,1.2s0.6,1.2,1.2,1.2c0.7,0,1.2-0.6,1.2-1.2S12.6,4.8,11.9,4.8z"/>
		</g>
		<g>
			<path fill="#FFFFFF" d="M6.9,14.9c0-2.7,2.2-5,5-5s5,2.2,5,5"/>
			<path fill="#231F20" d="M17.6,14.9h-1.5c0-2.3-1.9-4.2-4.2-4.2s-4.2,1.9-4.2,4.2H6.2c0-3.2,2.6-5.7,5.7-5.7S17.6,11.8,17.6,14.9z
				"/>
		</g>
		<g>
			<circle fill="#84DBFF" cx="31.8" cy="17.1" r="9"/>
		</g>
		<g>
			<circle fill="#FFFFFF" cx="31.8" cy="13.1" r="2"/>
			<path fill="#231F20" d="M31.8,15.9c-1.5,0-2.7-1.2-2.7-2.7c0-1.5,1.2-2.7,2.7-2.7s2.7,1.2,2.7,2.7C34.6,14.7,33.4,15.9,31.8,15.9
				z M31.8,11.9c-0.7,0-1.2,0.6-1.2,1.2c0,0.7,0.6,1.2,1.2,1.2c0.7,0,1.2-0.6,1.2-1.2C33.1,12.4,32.5,11.9,31.8,11.9z"/>
		</g>
		<g>
			<path fill="#FFFFFF" d="M26.9,22c0-2.7,2.2-5,5-5c2.7,0,5,2.2,5,5"/>
			<path fill="#231F20" d="M37.5,22H36c0-2.3-1.9-4.2-4.2-4.2s-4.2,1.9-4.2,4.2h-1.5c0-3.2,2.6-5.7,5.7-5.7S37.5,18.8,37.5,22z"/>
		</g>
		<g>
			<circle fill="#CED5E0" cx="13.9" cy="30" r="9"/>
		</g>
		<g>
			<circle fill="#FFFFFF" cx="13.9" cy="26" r="2"/>
			<path fill="#231F20" d="M13.9,28.8c-1.5,0-2.7-1.2-2.7-2.7c0-1.5,1.2-2.7,2.7-2.7c1.5,0,2.7,1.2,2.7,2.7
				C16.6,27.5,15.4,28.8,13.9,28.8z M13.9,24.8c-0.7,0-1.2,0.6-1.2,1.2c0,0.7,0.6,1.2,1.2,1.2c0.7,0,1.2-0.6,1.2-1.2
				C15.1,25.3,14.6,24.8,13.9,24.8z"/>
		</g>
		<g>
			<path fill="#FFFFFF" d="M8.9,34.9c0-2.7,2.2-5,5-5c2.7,0,5,2.2,5,5"/>
			<path fill="#231F20" d="M19.6,34.9h-1.5c0-2.3-1.9-4.2-4.2-4.2c-2.3,0-4.2,1.9-4.2,4.2H8.2c0-3.2,2.6-5.7,5.7-5.7
				C17,29.2,19.6,31.7,19.6,34.9z"/>
		</g>
		<g>
			<path fill="#FFFFFF" d="M66,57.2H4c-1.1,0-2-0.9-2-2v-7.6c0-1.1,0.9-2,2-2h62c1.1,0,2,0.9,2,2v7.6C68,56.3,67.1,57.2,66,57.2z"/>
		</g>
		<g>
			<path fill="#FF7058" d="M66.1,45.6H55v11.6h11.1c1.1,0,1.9-0.9,1.9-1.9v-7.7C68,46.4,67.1,45.6,66.1,45.6z"/>
		</g>
		<path fill="#231F20" d="M120.9,11.7c0-0.2,0-0.5,0-0.7c0-3-2.4-5.4-5.4-5.4c-0.8,0-1.6,0.2-2.3,0.5c-2.2-3.7-6.1-5.9-10.4-5.9
			c-6.1,0-11.1,4.5-12,10.3c-2.5-1.9-5.5-3-8.7-3c-7.9,0-14.3,6.4-14.4,14.2c-2.8,1-5,3.1-6.1,5.7c-11.9,1-22.2,7.6-28.2,17.2H4
			c-1.5,0-2.8,1.2-2.8,2.8v7.6c0,1.5,1.2,2.8,2.8,2.8h24.1c-0.4,2.2-0.6,4.5-0.6,6.8c0,2.2,0.2,4.4,0.6,6.5H4
			c-2.1,0-3.7,1.7-3.7,3.8v41c0,2.1,1.7,3.8,3.7,3.8h19.7l2.2,4h-1.4c-2.6,0-4.7,2.1-4.7,4.7c0,0.4,0.3,0.8,0.8,0.8h26.9
			c0.4,0,0.8-0.3,0.8-0.8c0-2.6-2.1-4.7-4.7-4.7h-1.4l2.2-4h20.8c2.1,0,3.8-1.7,3.8-3.8v-14.2c18.7-2,33.2-17.9,33.2-37.1
			c0-8.4-2.8-16.1-7.5-22.3h8.2c5.8,0,10.6-4.8,10.6-10.6c0-0.7-0.1-1.4-0.2-2.1h7.1c5,0,9-4,9-9C129.2,16,125.6,12.1,120.9,11.7z
			 M62.1,37.2h-4.8c1-2.5,2.1-4.5,3.3-5.9c0,0.2,0,0.3,0,0.5C60.6,33.8,61.2,35.7,62.1,37.2z M56.8,38.7h6.4
			c0.3,0.3,0.5,0.6,0.8,0.9v5.2h-8.9C55.6,42.6,56.1,40.6,56.8,38.7z M53.5,44.8h-9.4c1-2.2,2.2-4.3,3.6-6.1h7.5
			C54.5,40.6,54,42.6,53.5,44.8z M55.7,37.2h-6.9c3.2-3.9,7.2-6.6,11.5-7.7C58.6,31.2,57,33.8,55.7,37.2z M54.2,30.5
			c-2.7,1.7-5.2,3.9-7.3,6.7h-5C45.5,34.2,49.7,31.9,54.2,30.5z M40.2,38.7C40.2,38.7,40.2,38.7,40.2,38.7l5.6,0
			c-1.3,1.8-2.4,3.9-3.4,6.1h-7.4C36.6,42.6,38.3,40.6,40.2,38.7z M4,56.4c-0.7,0-1.3-0.6-1.3-1.3v-7.6c0-0.7,0.6-1.3,1.3-1.3h62
			c0.7,0,1.3,0.6,1.3,1.3v7.6c0,0.7-0.6,1.3-1.3,1.3H4z M77.1,78.9h10.6c-1.4,4.5-3.3,8.6-5.8,11.9h-7.5
			C75.5,87.4,76.4,83.4,77.1,78.9z M72.7,90.8h-3.9V78.9h6.7C74.9,83.4,73.9,87.4,72.7,90.8z M77.3,77.4c0.5-3.7,0.7-7.7,0.7-11.9
			h11.7c-0.1,4.2-0.6,8.2-1.6,11.9H77.3z M78,64c0-4.2-0.3-8.2-0.7-11.9h10.8c1,3.7,1.5,7.7,1.6,11.9H78z M77.1,50.6
			c-0.4-3-1-5.7-1.6-8.2h8.7c1.4,2.5,2.6,5.2,3.5,8.2H77.1z M76.5,64h-11v-6.1H66c1.5,0,2.8-1.2,2.8-2.8v-3h7
			C76.2,55.8,76.5,59.8,76.5,64z M75.5,50.6h-6.8v-3c0-1.5-1.2-2.8-2.8-2.8h-0.5v-4c1.6,1.1,3.6,1.7,5.7,1.7h2.7
			C74.5,44.9,75.1,47.7,75.5,50.6z M53,64c0-2.1,0.1-4.1,0.2-6.1H64V64H53z M64,65.5v5.8H53.2c-0.1-1.9-0.2-3.8-0.2-5.8H64z
			 M51.5,64H39.8c0-2.1,0.2-4.1,0.5-6.1h11.4C51.6,59.9,51.5,61.9,51.5,64z M51.7,71.3H40.2c-0.2-1.9-0.4-3.8-0.4-5.8h11.7
			C51.5,67.5,51.6,69.4,51.7,71.3z M38.3,64H29c0-2.1,0.3-4.1,0.7-6.1h9.2C38.5,59.9,38.4,61.9,38.3,64z M38.7,71.3h-9.2
			c-0.3-1.9-0.5-3.8-0.6-5.8h9.4C38.4,67.5,38.5,69.4,38.7,71.3z M43.5,125.3c1.5,0,2.7,1,3.1,2.4H21.4c0.3-1.4,1.6-2.4,3.1-2.4
			H43.5z M40.4,123.8H27.6l-2.2-4h17.2L40.4,123.8z M67.3,116c0,1.2-1,2.3-2.3,2.3H4c-1.2,0-2.3-1-2.3-2.3v-4.3h65.6V116z
			 M67.3,110.3H1.8V75c0-1.2,1-2.3,2.3-2.3h61.1c1.2,0,2.3,1,2.3,2.3V110.3z M65.5,71.3v-5.8h11c0,4.2-0.3,8.2-0.8,11.9h-6.9V75
			C68.8,73.1,67.4,71.5,65.5,71.3z M68.8,92.3h3.4c-1,2.5-2.1,4.6-3.4,6V92.3z M73.8,92.3h6.9c-3.2,3.9-7.2,6.6-11.5,7.7
			C70.9,98.3,72.5,95.7,73.8,92.3z M75.3,99c2.7-1.7,5.2-3.9,7.3-6.7h5C84,95.3,79.8,97.6,75.3,99z M89.3,90.8h-5.6
			c2.3-3.4,4.2-7.4,5.5-11.9h8.4C95.7,83.4,92.8,87.4,89.3,90.8z M98.2,77.4h-8.6c1-3.7,1.5-7.7,1.6-11.9h9.4
			C100.4,69.7,99.6,73.7,98.2,77.4z M100.5,64h-9.4c-0.1-4.2-0.6-8.2-1.6-11.9h8.6C99.6,55.8,100.4,59.8,100.5,64z M97.6,50.6h-8.4
			c-0.9-3-2-5.7-3.4-8.2h6.8C94.7,44.9,96.4,47.7,97.6,50.6z M111.9,31.8c0,5-4.1,9.1-9.1,9.1H71.2c-5,0-9.1-4.1-9.1-9.1
			c0-4,2.7-7.6,6.5-8.7c0.3-0.1,0.5-0.4,0.5-0.8c0-0.1,0-0.2,0-0.4c0-7.1,5.8-12.9,12.9-12.9c3.2,0,6.2,1.2,8.5,3.2
			c-3.4,1.3-5.8,4.7-5.8,8.4c0,5,4,9,9,9h17.9C111.8,30.4,111.9,31.1,111.9,31.8z M120.2,28.2H93.7c-4.1,0-7.5-3.4-7.5-7.5
			c0-3.3,2.2-6.3,5.4-7.2c0.3-0.1,0.5-0.4,0.5-0.8c0-0.1,0-0.2,0-0.3c0-5.9,4.8-10.7,10.7-10.7c4,0,7.6,2.2,9.5,5.8
			c0.1,0.2,0.3,0.3,0.5,0.4c0.2,0.1,0.4,0,0.6-0.1c0.6-0.4,1.4-0.7,2.2-0.7c2.2,0,3.9,1.8,3.9,3.9c0,0.4-0.1,0.8-0.2,1.2
			c-0.1,0.2,0,0.5,0.1,0.7c0.2,0.2,0.4,0.3,0.6,0.3c0,0,0.2,0,0.2,0c4.1,0,7.5,3.4,7.5,7.5C127.7,24.9,124.4,28.2,120.2,28.2z"/>
		<g>
			<path fill="#FFFFFF" d="M60.2,53.3c-0.8,0-1.5-0.3-2.1-0.9c-1.1-1.1-1.1-3,0-4.1c1.1-1.1,3-1.1,4.1,0c0.5,0.5,0.9,1.3,0.9,2.1
				c0,0.8-0.3,1.5-0.9,2.1C61.7,53,60.9,53.3,60.2,53.3z M60.2,49c-0.4,0-0.7,0.1-1,0.4c-0.5,0.5-0.5,1.4,0,2c0.5,0.5,1.5,0.5,2,0
				c0.3-0.3,0.4-0.6,0.4-1c0-0.4-0.1-0.7-0.4-1C60.9,49.1,60.5,49,60.2,49z"/>
		</g>
		<path fill="#F9B54C" d="M125.5,69.9H95.3c-1.7,0-3,1.3-3,3v18.6c0,1.7,1.3,3,3,3h30.2c1.7,0,3-1.3,3-3V72.9
			C128.5,71.3,127.1,69.9,125.5,69.9z"/>
		<path fill="#FFFFFF" d="M110.5,98.4c0-1.6-0.7-3.1-1.9-4h11.5l0.6,0.1v4l-2.2,2.2v4.1l-14,0v-2.6l-4.3-5V86.8l0,0c2.7,0,5,2.2,5,5
			v1.5l0,0c2.9,0,5.2,2.3,5.2,5.2l0,0"/>
		<path fill="#FFD05B" d="M95.3,69.9c-0.8,0-1.5,0.3-2,0.8l17.1,14.8l17.1-14.8c-0.5-0.5-1.2-0.8-2-0.8H95.3z"/>
		<g>
			<path fill="#FFFFFF" d="M64.2,55.2c-0.2,0-0.4-0.1-0.5-0.2l-2.6-2.6c-0.3-0.3-0.3-0.8,0-1.1c0.3-0.3,0.8-0.3,1.1,0l2.6,2.6
				c0.3,0.3,0.3,0.8,0,1.1C64.6,55.2,64.4,55.2,64.2,55.2z"/>
		</g>
		<path fill="#231F20" d="M118.5,105.5h-14c-0.4,0-0.8-0.3-0.8-0.8v-2.3l-4.1-4.8c-0.1-0.1-0.2-0.3-0.2-0.5V86.8
			c0-0.4,0.3-0.8,0.8-0.8c3.2,0,5.7,2.6,5.7,5.7v0.8c1,0.1,2,0.5,2.8,1.1h11.4l0.7,0.1c0.4,0,0.7,0.4,0.7,0.7v4
			c0,0.2-0.1,0.4-0.2,0.5l-2,2v3.8C119.3,105.1,118.9,105.5,118.5,105.5z M105.3,104h12.5v-3.3c0-0.2,0.1-0.4,0.2-0.5l2-2v-2.9
			l-9.7,0c0.6,1,1,2.1,1,3.3c0,0.4-0.4,0.8-0.8,0.7c-0.4,0-0.8-0.3-0.8-0.7c0-2.4-2-4.4-4.4-4.4c-0.4,0-0.8-0.3-0.8-0.8v-1.5
			c0-2.1-1.5-3.8-3.5-4.1v9.3l4.1,4.8c0.1,0.1,0.2,0.3,0.2,0.5V104z"/>
		<rect x="101.8" y="104" fill="#E6E9EE" width="19.6" height="24.5"/>
		<circle fill="#FF7058" cx="87" cy="3.5" r="2.5"/>
		<circle fill="#84DBFF" cx="78.5" cy="115.2" r="2.5"/>
		<circle fill="#E6E9EE" cx="7.5" cy="126.5" r="2.5"/>
	</g>
</g>
</svg>
