<?xml version="1.0" encoding="utf-8"?>
<!-- Generator: Adobe Illustrator 18.0.0, SVG Export Plug-In . SVG Version: 6.00 Build 0)  -->
<!DOCTYPE svg PUBLIC "-//W3C//DTD SVG 1.1//EN" "http://www.w3.org/Graphics/SVG/1.1/DTD/svg11.dtd">
<svg version="1.1" id="Layer_1" xmlns="http://www.w3.org/2000/svg" xmlns:xlink="http://www.w3.org/1999/xlink" x="0px" y="0px"
	 viewBox="0 0 129.5 129.5" enable-background="new 0 0 129.5 129.5" xml:space="preserve">
<g>
	<g>
		<g>
			<path fill="#231F20" d="M64.8,62.3c-0.1,0-0.2,0-0.3-0.1c-0.2-0.1-20.9-9.6-20.9-27.8c0-6.7,5.4-12.1,12.1-12.1
				c3.5,0,6.8,1.5,9.1,4.1c2.3-2.6,5.6-4.1,9.1-4.1c6.7,0,12.1,5.4,12.1,12.1c0,18.2-20.7,27.7-20.9,27.8
				C65,62.3,64.9,62.3,64.8,62.3z M55.7,23.9c-5.8,0-10.6,4.8-10.6,10.6c0,16,17.2,25,19.7,26.2c2.5-1.2,19.7-10.2,19.7-26.2
				c0-5.8-4.8-10.6-10.6-10.6c-3.4,0-6.5,1.6-8.5,4.3c-0.3,0.4-0.9,0.4-1.2,0C62.1,25.4,59,23.9,55.7,23.9z"/>
		</g>
		<g>
			<path fill="#FFD05B" d="M64.8,59.3c-3.7-1.9-18.4-10.4-18.4-24.8c0-5.2,4.2-9.3,9.3-9.3c3,0,5.7,1.4,7.5,3.8l1.6,2.1l1.6-2.1
				c1.8-2.4,4.5-3.8,7.5-3.8c5.2,0,9.3,4.2,9.3,9.3C83.2,48.9,68.4,57.4,64.8,59.3z"/>
		</g>
		<g>
			<path fill="#231F20" d="M5,76.9c-0.1-0.3-0.1-0.7-0.2-1l1.5-0.3c0.1,0.3,0.1,0.6,0.2,1L5,76.9z M4.5,74c-0.1-0.3-0.1-0.7-0.1-1
				l1.5-0.2c0,0.3,0.1,0.7,0.1,1L4.5,74z M4.1,70.9c0-0.3-0.1-0.7-0.1-1l1.5-0.1c0,0.3,0.1,0.7,0.1,1L4.1,70.9z M125.6,68.5
				l-1.5-0.1c0-0.3,0-0.7,0.1-1l1.5,0.1C125.6,67.8,125.6,68.1,125.6,68.5z M3.9,67.9c0-0.3,0-0.7,0-1l1.5-0.1c0,0.3,0,0.7,0,1
				L3.9,67.9z M125.7,65.4l-1.5,0l0-0.7l0-0.3l1.5,0l0,0.3L125.7,65.4z M5.3,64.9H3.8v-0.1c0-0.3,0-0.6,0-0.9l1.5,0
				c0,0.3,0,0.6,0,0.9V64.9z M124.2,62.5c0-0.3,0-0.7,0-1l1.5-0.1c0,0.3,0,0.7,0,1L124.2,62.5z M5.4,61.9l-1.5-0.1
				c0-0.3,0-0.7,0.1-1l1.5,0.1C5.4,61.3,5.4,61.6,5.4,61.9z M124,59.5c0-0.3-0.1-0.7-0.1-1l1.5-0.2c0,0.3,0.1,0.7,0.1,1L124,59.5z
				 M5.6,59l-1.5-0.1c0-0.3,0.1-0.7,0.1-1L5.7,58C5.6,58.3,5.6,58.6,5.6,59z M123.6,56.6c0-0.3-0.1-0.7-0.1-1l1.5-0.2
				c0.1,0.3,0.1,0.7,0.1,1L123.6,56.6z M5.9,56l-1.5-0.2c0-0.3,0.1-0.7,0.2-1L6.1,55C6,55.4,6,55.7,5.9,56z M123.2,53.6
				c-0.1-0.3-0.1-0.6-0.2-1l1.5-0.3c0.1,0.3,0.1,0.7,0.2,1L123.2,53.6z M6.4,53.1L5,52.8c0.1-0.3,0.1-0.7,0.2-1l1.5,0.3
				C6.6,52.5,6.5,52.8,6.4,53.1z M122.5,50.7c-0.1-0.3-0.2-0.6-0.2-1l1.5-0.4c0.1,0.3,0.2,0.7,0.2,1L122.5,50.7z M7.1,50.2l-1.5-0.4
				c0.1-0.3,0.2-0.7,0.3-1l1.4,0.4C7.2,49.6,7.2,49.9,7.1,50.2z M121.8,47.9c-0.1-0.3-0.2-0.6-0.3-0.9l1.4-0.4
				c0.1,0.3,0.2,0.6,0.3,1L121.8,47.9z M7.9,47.4l-1.4-0.4c0.1-0.3,0.2-0.6,0.3-1l1.4,0.5C8.1,46.7,8,47,7.9,47.4z M120.9,45.1
				c-0.1-0.3-0.2-0.6-0.3-0.9l1.4-0.5c0.1,0.3,0.2,0.6,0.3,1L120.9,45.1z M8.8,44.5L7.4,44c0.1-0.3,0.2-0.6,0.4-1l1.4,0.5
				C9,43.9,8.9,44.2,8.8,44.5z M119.8,42.3c-0.1-0.3-0.3-0.6-0.4-0.9l1.4-0.6c0.1,0.3,0.3,0.6,0.4,0.9L119.8,42.3z M9.9,41.8
				l-1.4-0.6c0.1-0.3,0.3-0.6,0.4-0.9l1.4,0.6C10.2,41.2,10,41.5,9.9,41.8z M118.6,39.6c-0.1-0.3-0.3-0.6-0.4-0.9l1.3-0.7
				c0.1,0.3,0.3,0.6,0.4,0.9L118.6,39.6z M11.1,39.1l-1.4-0.6c0.1-0.3,0.3-0.6,0.4-0.9l1.3,0.7C11.4,38.5,11.3,38.8,11.1,39.1z
				 M117.3,36.9c-0.2-0.3-0.3-0.6-0.5-0.9l1.3-0.7c0.2,0.3,0.3,0.6,0.5,0.9L117.3,36.9z M12.5,36.4l-1.3-0.7
				c0.2-0.3,0.3-0.6,0.5-0.9l1.3,0.7C12.8,35.8,12.6,36.1,12.5,36.4z M115.9,34.4c-0.2-0.3-0.3-0.6-0.5-0.8l1.3-0.8
				c0.2,0.3,0.4,0.6,0.5,0.9L115.9,34.4z M13.9,33.9l-1.3-0.8c0.2-0.3,0.4-0.6,0.5-0.9l1.3,0.8C14.3,33.3,14.1,33.6,13.9,33.9z
				 M114.3,31.9c-0.2-0.3-0.4-0.5-0.6-0.8l1.2-0.9c0.2,0.3,0.4,0.6,0.6,0.8L114.3,31.9z M15.6,31.4l-1.2-0.8
				c0.2-0.3,0.4-0.6,0.6-0.8l1.2,0.9C15.9,30.8,15.7,31.1,15.6,31.4z M112.6,29.4c-0.2-0.3-0.4-0.5-0.6-0.8l1.2-0.9
				c0.2,0.3,0.4,0.5,0.6,0.8L112.6,29.4z M17.3,29L16.1,28c0.2-0.3,0.4-0.5,0.6-0.8l1.2,0.9C17.7,28.4,17.5,28.7,17.3,29z
				 M110.8,27.1c-0.2-0.3-0.4-0.5-0.6-0.8l1.1-1c0.2,0.3,0.4,0.5,0.6,0.8L110.8,27.1z M19.1,26.6l-1.2-1c0.2-0.3,0.4-0.5,0.7-0.8
				l1.1,1C19.5,26.1,19.3,26.4,19.1,26.6z M108.8,24.9c-0.2-0.2-0.4-0.5-0.7-0.7l1.1-1c0.2,0.2,0.5,0.5,0.7,0.7L108.8,24.9z
				 M21.1,24.4l-1.1-1c0.2-0.2,0.5-0.5,0.7-0.7l1.1,1C21.5,23.9,21.3,24.2,21.1,24.4z M106.8,22.7c-0.2-0.2-0.5-0.5-0.7-0.7l1-1.1
				c0.2,0.2,0.5,0.5,0.7,0.7L106.8,22.7z M23.1,22.3l-1.1-1.1c0.2-0.2,0.5-0.5,0.7-0.7l1,1.1C23.6,21.8,23.4,22.1,23.1,22.3z
				 M104.7,20.7c-0.2-0.2-0.5-0.4-0.7-0.7l1-1.1c0.3,0.2,0.5,0.4,0.8,0.7L104.7,20.7z M25.3,20.3l-1-1.1c0.3-0.2,0.5-0.4,0.8-0.7
				l1,1.1C25.8,19.8,25.6,20,25.3,20.3z M102.4,18.7c-0.3-0.2-0.5-0.4-0.8-0.6l0.9-1.2c0.3,0.2,0.5,0.4,0.8,0.6L102.4,18.7z
				 M27.6,18.4l-0.9-1.2c0.3-0.2,0.5-0.4,0.8-0.6l0.9,1.2C28.1,17.9,27.8,18.1,27.6,18.4z M100.1,16.9c-0.3-0.2-0.5-0.4-0.8-0.6
				l0.9-1.2c0.3,0.2,0.5,0.4,0.8,0.6L100.1,16.9z M29.9,16.6L29,15.3c0.3-0.2,0.5-0.4,0.8-0.6l0.9,1.2
				C30.5,16.2,30.2,16.4,29.9,16.6z M97.6,15.2c-0.3-0.2-0.6-0.4-0.8-0.5l0.8-1.3c0.3,0.2,0.6,0.4,0.8,0.6L97.6,15.2z M32.4,14.9
				l-0.8-1.3c0.3-0.2,0.6-0.4,0.9-0.5l0.8,1.3C32.9,14.5,32.6,14.7,32.4,14.9z M95.1,13.6c-0.3-0.2-0.6-0.3-0.9-0.5l0.7-1.3
				c0.3,0.2,0.6,0.3,0.9,0.5L95.1,13.6z M34.9,13.3L34.1,12c0.3-0.2,0.6-0.3,0.9-0.5l0.7,1.3C35.4,13,35.2,13.2,34.9,13.3z
				 M92.6,12.2c-0.3-0.2-0.6-0.3-0.9-0.5l0.7-1.3c0.3,0.2,0.6,0.3,0.9,0.5L92.6,12.2z M37.5,11.9l-0.7-1.3c0.3-0.2,0.6-0.3,0.9-0.5
				l0.7,1.3C38.1,11.6,37.8,11.8,37.5,11.9z M89.9,10.9c-0.3-0.1-0.6-0.3-0.9-0.4l0.6-1.4c0.3,0.1,0.6,0.3,0.9,0.4L89.9,10.9z
				 M40.1,10.6l-0.6-1.4c0.3-0.1,0.6-0.3,0.9-0.4l0.6,1.4C40.7,10.3,40.4,10.5,40.1,10.6z M87.2,9.7c-0.3-0.1-0.6-0.2-0.9-0.4
				l0.5-1.4c0.3,0.1,0.6,0.2,0.9,0.4L87.2,9.7z M42.8,9.5l-0.6-1.4c0.3-0.1,0.6-0.2,0.9-0.4l0.5,1.4C43.5,9.2,43.1,9.3,42.8,9.5z
				 M84.4,8.6c-0.3-0.1-0.6-0.2-0.9-0.3l0.5-1.4c0.3,0.1,0.6,0.2,1,0.3L84.4,8.6z M45.6,8.4L45.1,7c0.3-0.1,0.6-0.2,1-0.3l0.5,1.4
				C46.2,8.2,45.9,8.3,45.6,8.4z M81.6,7.7c-0.3-0.1-0.6-0.2-0.9-0.3L81,6c0.3,0.1,0.7,0.2,1,0.3L81.6,7.7z M48.4,7.6L48,6.1
				c0.3-0.1,0.6-0.2,1-0.3l0.4,1.4C49.1,7.4,48.8,7.5,48.4,7.6z M78.7,6.9c-0.3-0.1-0.6-0.2-1-0.2l0.3-1.5c0.3,0.1,0.7,0.1,1,0.2
				L78.7,6.9z M51.3,6.8L51,5.4c0.3-0.1,0.7-0.1,1-0.2l0.3,1.5C52,6.7,51.6,6.7,51.3,6.8z M75.8,6.3c-0.3-0.1-0.6-0.1-1-0.2l0.3-1.5
				c0.3,0.1,0.7,0.1,1,0.2L75.8,6.3z M54.2,6.2L54,4.7c0.3-0.1,0.7-0.1,1-0.2l0.2,1.5C54.9,6.1,54.5,6.2,54.2,6.2z M72.9,5.8
				c-0.3,0-0.7-0.1-1-0.1l0.2-1.5c0.3,0,0.7,0.1,1,0.1L72.9,5.8z M57.1,5.8L57,4.3c0.3,0,0.7-0.1,1-0.1l0.2,1.5
				C57.8,5.7,57.5,5.7,57.1,5.8z M70,5.5c-0.3,0-0.7-0.1-1-0.1l0.1-1.5c0.3,0,0.7,0,1,0.1L70,5.5z M60.1,5.5L60,4c0.3,0,0.7,0,1-0.1
				l0.1,1.5C60.7,5.4,60.4,5.4,60.1,5.5z M67,5.3c-0.3,0-0.7,0-1,0l0-1.5c0.3,0,0.7,0,1,0L67,5.3z M63,5.3l0-1.5c0.3,0,0.7,0,1,0
				l0,1.5C63.7,5.3,63.4,5.3,63,5.3z"/>
		</g>
		<g>
			<path fill="#231F20" d="M64.9,125.7h-0.1c-0.3,0-0.6,0-0.9,0l0-1.5c0.3,0,0.6,0,0.8,0h0.1V125.7z M66.9,125.7l-0.1-1.5
				c0.3,0,0.7,0,1,0l0.1,1.5C67.6,125.6,67.3,125.6,66.9,125.7z M61.9,125.6c-0.3,0-0.7,0-1-0.1l0.1-1.5c0.3,0,0.7,0,1,0.1
				L61.9,125.6z M70,125.5l-0.1-1.5c0.3,0,0.7-0.1,1-0.1l0.1,1.5C70.6,125.4,70.3,125.5,70,125.5z M58.8,125.4c-0.3,0-0.7-0.1-1-0.1
				l0.2-1.5c0.3,0,0.7,0.1,1,0.1L58.8,125.4z M73,125.2l-0.2-1.5c0.3,0,0.7-0.1,1-0.1L74,125C73.6,125.1,73.3,125.1,73,125.2z
				 M55.8,125.1c-0.3,0-0.7-0.1-1-0.2l0.2-1.5c0.3,0.1,0.7,0.1,1,0.2L55.8,125.1z M76,124.7l-0.3-1.5c0.3-0.1,0.6-0.1,1-0.2l0.3,1.5
				C76.6,124.5,76.3,124.6,76,124.7z M52.8,124.5c-0.3-0.1-0.7-0.1-1-0.2l0.3-1.5c0.3,0.1,0.6,0.1,1,0.2L52.8,124.5z M78.9,124
				l-0.3-1.5c0.3-0.1,0.6-0.2,1-0.2l0.4,1.5C79.6,123.9,79.3,124,78.9,124z M49.8,123.9c-0.3-0.1-0.7-0.2-1-0.3l0.4-1.4
				c0.3,0.1,0.6,0.2,1,0.2L49.8,123.9z M81.9,123.3l-0.4-1.4c0.3-0.1,0.6-0.2,0.9-0.3l0.4,1.4C82.5,123.1,82.2,123.2,81.9,123.3z
				 M46.9,123c-0.3-0.1-0.6-0.2-1-0.3l0.5-1.4c0.3,0.1,0.6,0.2,0.9,0.3L46.9,123z M84.7,122.3l-0.5-1.4c0.3-0.1,0.6-0.2,0.9-0.3
				l0.5,1.4C85.4,122.1,85.1,122.2,84.7,122.3z M44,122.1c-0.3-0.1-0.6-0.2-1-0.4l0.5-1.4c0.3,0.1,0.6,0.2,0.9,0.3L44,122.1z
				 M87.6,121.3l-0.6-1.4c0.3-0.1,0.6-0.2,0.9-0.4l0.6,1.4C88.2,121,87.9,121.2,87.6,121.3z M41.2,121c-0.3-0.1-0.6-0.3-0.9-0.4
				l0.6-1.4c0.3,0.1,0.6,0.3,0.9,0.4L41.2,121z M90.4,120.1l-0.6-1.4c0.3-0.1,0.6-0.3,0.9-0.4l0.7,1.4
				C91,119.8,90.7,119.9,90.4,120.1z M38.4,119.7c-0.3-0.1-0.6-0.3-0.9-0.4l0.7-1.3c0.3,0.1,0.6,0.3,0.9,0.4L38.4,119.7z
				 M93.1,118.7l-0.7-1.3c0.3-0.2,0.6-0.3,0.9-0.5l0.7,1.3C93.7,118.4,93.4,118.6,93.1,118.7z M35.7,118.4c-0.3-0.2-0.6-0.3-0.9-0.5
				l0.7-1.3c0.3,0.2,0.6,0.3,0.9,0.5L35.7,118.4z M95.7,117.2L95,116c0.3-0.2,0.6-0.3,0.8-0.5l0.8,1.3
				C96.3,116.9,96,117.1,95.7,117.2z M33.1,116.8c-0.3-0.2-0.6-0.4-0.9-0.5L33,115c0.3,0.2,0.6,0.3,0.8,0.5L33.1,116.8z M98.3,115.6
				l-0.8-1.3c0.3-0.2,0.5-0.4,0.8-0.5l0.8,1.2C98.9,115.3,98.6,115.5,98.3,115.6z M30.5,115.2c-0.3-0.2-0.6-0.4-0.8-0.6l0.9-1.2
				c0.3,0.2,0.5,0.4,0.8,0.6L30.5,115.2z M100.8,113.9l-0.9-1.2c0.3-0.2,0.5-0.4,0.8-0.6l0.9,1.2
				C101.3,113.5,101.1,113.7,100.8,113.9z M28.1,113.4c-0.3-0.2-0.5-0.4-0.8-0.6l0.9-1.2c0.3,0.2,0.5,0.4,0.8,0.6L28.1,113.4z
				 M103.2,112l-0.9-1.2c0.3-0.2,0.5-0.4,0.8-0.6l1,1.1C103.7,111.6,103.5,111.8,103.2,112z M25.7,111.5c-0.3-0.2-0.5-0.4-0.8-0.7
				l1-1.1c0.2,0.2,0.5,0.4,0.8,0.6L25.7,111.5z M105.5,110.1l-1-1.1c0.2-0.2,0.5-0.4,0.7-0.7l1,1.1
				C106,109.6,105.8,109.8,105.5,110.1z M23.4,109.5c-0.2-0.2-0.5-0.5-0.7-0.7l1-1.1c0.2,0.2,0.5,0.5,0.7,0.7L23.4,109.5z
				 M107.7,108l-1.1-1.1c0.2-0.2,0.5-0.5,0.7-0.7l1.1,1C108.2,107.5,108,107.7,107.7,108z M21.2,107.4c-0.2-0.2-0.5-0.5-0.7-0.7
				l1.1-1c0.2,0.2,0.5,0.5,0.7,0.7L21.2,107.4z M109.8,105.8l-1.1-1c0.2-0.2,0.4-0.5,0.7-0.7l1.1,1
				C110.3,105.3,110,105.5,109.8,105.8z M19.1,105.2c-0.2-0.3-0.4-0.5-0.7-0.8l1.1-1c0.2,0.3,0.4,0.5,0.6,0.7L19.1,105.2z
				 M111.8,103.5l-1.2-1c0.2-0.3,0.4-0.5,0.6-0.8l1.2,0.9C112.2,103,112,103.2,111.8,103.5z M17.2,102.9c-0.2-0.3-0.4-0.5-0.6-0.8
				l1.2-0.9c0.2,0.3,0.4,0.5,0.6,0.8L17.2,102.9z M113.7,101.1l-1.2-0.9c0.2-0.3,0.4-0.5,0.6-0.8l1.2,0.9
				C114.1,100.6,113.9,100.8,113.7,101.1z M115.4,98.6l-1.2-0.8c0.2-0.3,0.4-0.5,0.5-0.8l1.3,0.8C115.8,98.1,115.6,98.3,115.4,98.6z
				"/>
		</g>
		<g>
			<rect x="2.7" y="79.1" fill="#84DBFF" width="10.1" height="23.4"/>
		</g>
		<g>
			<g>
				<path fill="#231F20" d="M10.6,9.3c-0.2,0-0.4-0.1-0.5-0.2C9.7,8.8,9.7,8.3,10,8l1.3-1.3c0.3-0.3,0.8-0.3,1.1,0
					c0.3,0.3,0.3,0.8,0,1.1L11.1,9C10.9,9.2,10.8,9.3,10.6,9.3z"/>
			</g>
			<g>
				<path fill="#231F20" d="M6.5,13.3c-0.2,0-0.4-0.1-0.5-0.2c-0.3-0.3-0.3-0.8,0-1.1l1.3-1.3c0.3-0.3,0.8-0.3,1.1,0
					c0.3,0.3,0.3,0.8,0,1.1l-1.3,1.3C6.9,13.2,6.7,13.3,6.5,13.3z"/>
			</g>
			<g>
				<path fill="#231F20" d="M11.8,13.3c-0.2,0-0.4-0.1-0.5-0.2L10,11.8c-0.3-0.3-0.3-0.8,0-1.1c0.3-0.3,0.8-0.3,1.1,0l1.3,1.3
					c0.3,0.3,0.3,0.8,0,1.1C12.2,13.2,12,13.3,11.8,13.3z"/>
			</g>
			<g>
				<path fill="#231F20" d="M7.8,9.3C7.6,9.3,7.4,9.2,7.3,9L6,7.8C5.7,7.5,5.7,7,6,6.7c0.3-0.3,0.8-0.3,1.1,0L8.3,8
					c0.3,0.3,0.3,0.8,0,1.1C8.2,9.2,8,9.3,7.8,9.3z"/>
			</g>
		</g>
		<g>
			<g>
				<path fill="#231F20" d="M118,8c-0.2,0-0.4-0.1-0.5-0.2c-0.3-0.3-0.3-0.8,0-1.1l1.3-1.3c0.3-0.3,0.8-0.3,1.1,0
					c0.3,0.3,0.3,0.8,0,1.1l-1.3,1.3C118.4,7.9,118.2,8,118,8z"/>
			</g>
			<g>
				<path fill="#231F20" d="M114,12c-0.2,0-0.4-0.1-0.5-0.2c-0.3-0.3-0.3-0.8,0-1.1l1.3-1.3c0.3-0.3,0.8-0.3,1.1,0
					c0.3,0.3,0.3,0.8,0,1.1l-1.3,1.3C114.4,11.9,114.2,12,114,12z"/>
			</g>
			<g>
				<path fill="#231F20" d="M119.3,12c-0.2,0-0.4-0.1-0.5-0.2l-1.3-1.3c-0.3-0.3-0.3-0.8,0-1.1c0.3-0.3,0.8-0.3,1.1,0l1.3,1.3
					c0.3,0.3,0.3,0.8,0,1.1C119.7,11.9,119.5,12,119.3,12z"/>
			</g>
			<g>
				<path fill="#231F20" d="M115.3,8c-0.2,0-0.4-0.1-0.5-0.2l-1.3-1.3c-0.3-0.3-0.3-0.8,0-1.1c0.3-0.3,0.8-0.3,1.1,0l1.3,1.3
					c0.3,0.3,0.3,0.8,0,1.1C115.7,7.9,115.5,8,115.3,8z"/>
			</g>
		</g>
		<g>
			<g>
				<path fill="#231F20" d="M16.2,119.4c-0.2,0-0.4-0.1-0.5-0.2c-0.3-0.3-0.3-0.8,0-1.1l1.3-1.3c0.3-0.3,0.8-0.3,1.1,0
					c0.3,0.3,0.3,0.8,0,1.1l-1.3,1.3C16.6,119.3,16.4,119.4,16.2,119.4z"/>
			</g>
			<g>
				<path fill="#231F20" d="M12.2,123.4c-0.2,0-0.4-0.1-0.5-0.2c-0.3-0.3-0.3-0.8,0-1.1l1.3-1.3c0.3-0.3,0.8-0.3,1.1,0
					c0.3,0.3,0.3,0.8,0,1.1l-1.3,1.3C12.6,123.4,12.4,123.4,12.2,123.4z"/>
			</g>
			<g>
				<path fill="#231F20" d="M17.5,123.4c-0.2,0-0.4-0.1-0.5-0.2l-1.3-1.3c-0.3-0.3-0.3-0.8,0-1.1c0.3-0.3,0.8-0.3,1.1,0l1.3,1.3
					c0.3,0.3,0.3,0.8,0,1.1C17.9,123.4,17.7,123.4,17.5,123.4z"/>
			</g>
			<g>
				<path fill="#231F20" d="M13.5,119.4c-0.2,0-0.4-0.1-0.5-0.2l-1.3-1.3c-0.3-0.3-0.3-0.8,0-1.1c0.3-0.3,0.8-0.3,1.1,0l1.3,1.3
					c0.3,0.3,0.3,0.8,0,1.1C13.9,119.3,13.7,119.4,13.5,119.4z"/>
			</g>
		</g>
		<g>
			<g>
				<path fill="#231F20" d="M32.6,54.2h-8.1c-0.4,0-0.8-0.3-0.8-0.8c0-0.4,0.3-0.8,0.8-0.8h8.1c0.4,0,0.8,0.3,0.8,0.8
					C33.4,53.9,33,54.2,32.6,54.2z"/>
			</g>
			<g>
				<path fill="#231F20" d="M35.8,57.1h-4c-0.4,0-0.8-0.3-0.8-0.8c0-0.4,0.3-0.8,0.8-0.8h4c0.4,0,0.8,0.3,0.8,0.8
					C36.5,56.8,36.2,57.1,35.8,57.1z"/>
			</g>
			<g>
				<path fill="#231F20" d="M40,54.2h-3.8c-0.4,0-0.8-0.3-0.8-0.8c0-0.4,0.3-0.8,0.8-0.8H40c0.4,0,0.8,0.3,0.8,0.8
					C40.8,53.9,40.5,54.2,40,54.2z"/>
			</g>
			<g>
				<path fill="#231F20" d="M28.9,57.1h-0.8c-0.4,0-0.8-0.3-0.8-0.8c0-0.4,0.3-0.8,0.8-0.8h0.8c0.4,0,0.8,0.3,0.8,0.8
					C29.7,56.8,29.4,57.1,28.9,57.1z"/>
			</g>
		</g>
		<g>
			<g>
				<path fill="#231F20" d="M102.1,41.5H94c-0.4,0-0.8-0.3-0.8-0.8c0-0.4,0.3-0.8,0.8-0.8h8.1c0.4,0,0.8,0.3,0.8,0.8
					C102.9,41.2,102.5,41.5,102.1,41.5z"/>
			</g>
			<g>
				<path fill="#231F20" d="M105.3,44.5h-4c-0.4,0-0.8-0.3-0.8-0.8c0-0.4,0.3-0.8,0.8-0.8h4c0.4,0,0.8,0.3,0.8,0.8
					C106.1,44.1,105.7,44.5,105.3,44.5z"/>
			</g>
			<g>
				<path fill="#231F20" d="M109.6,41.5h-3.8c-0.4,0-0.8-0.3-0.8-0.8c0-0.4,0.3-0.8,0.8-0.8h3.8c0.4,0,0.8,0.3,0.8,0.8
					C110.3,41.2,110,41.5,109.6,41.5z"/>
			</g>
			<g>
				<path fill="#231F20" d="M98.5,44.5h-0.8c-0.4,0-0.8-0.3-0.8-0.8c0-0.4,0.3-0.8,0.8-0.8h0.8c0.4,0,0.8,0.3,0.8,0.8
					C99.2,44.1,98.9,44.5,98.5,44.5z"/>
			</g>
		</g>
		<g>
			<rect x="116.6" y="71.9" fill="#84DBFF" width="10.1" height="23.4"/>
		</g>
		<path fill="#231F20" d="M128.8,69.2h-7.9c0.1-1.5,0.2-3,0.2-4.4c0-31.1-25.3-56.3-56.3-56.3S8.4,33.7,8.4,64.7
			c0,3.9,0.4,7.8,1.2,11.6H0.8c-0.4,0-0.8,0.3-0.8,0.8v27.4c0,0.4,0.3,0.8,0.8,0.8h14.1c0.4,0,0.8-0.3,0.8-0.8v-3h6.5
			c10.7,12.4,26.2,19.5,42.6,19.5c19.8,0,37.7-10,48-26.9h1.1v3.2c0,0.4,0.3,0.8,0.8,0.8h14.1c0.4,0,0.8-0.3,0.8-0.8V69.9
			C129.5,69.5,129.2,69.2,128.8,69.2z M14.1,103.8H1.5V77.9h12.6V103.8z M106.3,92.7l-18-7.2c-0.8-0.3-1.4-0.8-1.8-1.6
			c-0.4-0.7-0.4-1.6-0.2-2.4c0.3-0.8,0.8-1.4,1.6-1.8c0.7-0.4,1.6-0.4,2.4-0.2l10.8,3.6c0.1,0,0.2,0,0.2,0h2.6
			c0.4,0,0.8-0.3,0.8-0.8c0-0.4-0.3-0.8-0.8-0.8h-2.4l-10.7-3.5c-1.2-0.4-2.4-0.3-3.5,0.3c-1.1,0.6-1.9,1.5-2.3,2.7
			c-0.4,1.2-0.3,2.4,0.3,3.5c0.6,1.1,1.5,1.9,2.6,2.3l18.1,7.3c0.1,0,0.2,0.1,0.3,0.1h4.8c-10.1,15.9-27.3,25.4-46.2,25.4
			c-15.1,0-29.5-6.2-39.9-17.2l20.3,7.9c0.5,0.2,1,0.2,1.5,0.2c0.7,0,1.5-0.2,2.2-0.5l29.6-14.6c1.9-1,3-3,2.7-5
			c-0.3-1.6-1.2-2.9-2.6-3.6c-1.4-0.7-3-0.7-4.3,0L50.8,98.2l-7-2c-0.4-0.1-0.8,0.1-0.9,0.5c-0.1,0.4,0.1,0.8,0.5,0.9l7.3,2.1
			c0.2,0.1,0.4,0,0.5,0l23.6-11.6c0.9-0.5,2.1-0.5,3,0c1,0.5,1.6,1.4,1.8,2.5c0.2,1.4-0.6,2.8-1.9,3.4l-29.6,14.6
			c-0.8,0.4-1.7,0.5-2.5,0.2l-22.4-8.7c-0.1,0-0.2-0.1-0.3-0.1h-7.4V81.8h7.6l18,7.2c0.8,0.3,1.4,0.8,1.8,1.6
			c0.4,0.7,0.4,1.6,0.2,2.4c-0.3,0.8-0.8,1.4-1.6,1.8c-0.7,0.4-1.6,0.4-2.4,0.2l-10.8-3.6c-0.1,0-0.2,0-0.2,0h-2.6
			c-0.4,0-0.8,0.3-0.8,0.8c0,0.4,0.3,0.8,0.8,0.8h2.4l10.7,3.5c0.5,0.2,1,0.2,1.5,0.2c0.7,0,1.4-0.2,2.1-0.5
			c1.1-0.6,1.9-1.5,2.3-2.7c0.4-1.2,0.3-2.4-0.3-3.5c-0.6-1.1-1.5-1.9-2.6-2.3l-18.1-7.3c-0.1,0-0.2-0.1-0.3-0.1h-7.7v-3.2
			c0-0.4-0.3-0.8-0.8-0.8h-3.7c-0.8-3.8-1.3-7.7-1.3-11.6c0-30.2,24.6-54.8,54.8-54.8c30.2,0,54.8,24.6,54.8,54.8
			c0,1.5-0.1,3-0.2,4.4h-4.7c-0.4,0-0.8,0.3-0.8,0.8v3h-7.2l-22.3-8.7c-1.2-0.4-2.5-0.3-3.7,0.3L51.1,79.1c-1.9,1-3,3-2.7,5
			c0.3,1.6,1.2,2.9,2.6,3.6c0.7,0.4,1.4,0.5,2.2,0.5c0.7,0,1.5-0.2,2.2-0.5l23.3-11.5l7,2c0.4,0.1,0.8-0.1,0.9-0.5
			c0.1-0.4-0.1-0.8-0.5-0.9l-7.3-2.1c-0.2-0.1-0.4,0-0.5,0L54.7,86.4c-0.9,0.5-2.1,0.5-3,0c-1-0.5-1.6-1.4-1.8-2.5
			c-0.2-1.4,0.6-2.8,1.9-3.4l29.6-14.6c0.8-0.4,1.7-0.5,2.5-0.2l22.4,8.7c0.1,0,0.2,0.1,0.3,0.1h7.4v18.2H106.3z M128,96.6h-12.6
			V70.7H128V96.6z"/>
		<g>
			<circle fill="#FFD05B" cx="93.4" cy="55.6" r="2.2"/>
		</g>
		<g>
			<circle fill="#E6E9EE" cx="83.2" cy="105.3" r="1.3"/>
		</g>
		<g>
			<circle fill="#FF7058" cx="31.8" cy="33.3" r="2.2"/>
		</g>
	</g>
</g>
</svg>
