<?xml version="1.0" encoding="utf-8"?>
<!-- Generator: Adobe Illustrator 18.0.0, SVG Export Plug-In . SVG Version: 6.00 Build 0)  -->
<!DOCTYPE svg PUBLIC "-//W3C//DTD SVG 1.1//EN" "http://www.w3.org/Graphics/SVG/1.1/DTD/svg11.dtd">
<svg version="1.1" id="Layer_1" xmlns="http://www.w3.org/2000/svg" xmlns:xlink="http://www.w3.org/1999/xlink" x="0px" y="0px"
	 viewBox="0 0 129.5 129.5" enable-background="new 0 0 129.5 129.5" xml:space="preserve">
<g>
	<g>
		<g>
			<g>
				<path fill="#231F20" d="M13.8,8.7c-0.2,0-0.4-0.1-0.5-0.2c-0.3-0.3-0.3-0.8,0-1.1l1.3-1.3c0.3-0.3,0.8-0.3,1.1,0
					c0.3,0.3,0.3,0.8,0,1.1l-1.3,1.3C14.2,8.6,14,8.7,13.8,8.7z"/>
			</g>
			<g>
				<path fill="#231F20" d="M9.7,12.7c-0.2,0-0.4-0.1-0.5-0.2c-0.3-0.3-0.3-0.8,0-1.1l1.3-1.3c0.3-0.3,0.8-0.3,1.1,0
					c0.3,0.3,0.3,0.8,0,1.1l-1.3,1.3C10.1,12.7,9.9,12.7,9.7,12.7z"/>
			</g>
			<g>
				<path fill="#231F20" d="M15.1,12.7c-0.2,0-0.4-0.1-0.5-0.2l-1.3-1.3c-0.3-0.3-0.3-0.8,0-1.1c0.3-0.3,0.8-0.3,1.1,0l1.3,1.3
					c0.3,0.3,0.3,0.8,0,1.1C15.4,12.7,15.2,12.7,15.1,12.7z"/>
			</g>
			<g>
				<path fill="#231F20" d="M11.1,8.7c-0.2,0-0.4-0.1-0.5-0.2L9.3,7.2C9,6.9,9,6.4,9.3,6.1c0.3-0.3,0.8-0.3,1.1,0l1.3,1.3
					c0.3,0.3,0.3,0.8,0,1.1C11.5,8.6,11.3,8.7,11.1,8.7z"/>
			</g>
		</g>
		<g>
			<g>
				<path fill="#231F20" d="M117.1,16c-0.2,0-0.4-0.1-0.5-0.2c-0.3-0.3-0.3-0.8,0-1.1l1.3-1.3c0.3-0.3,0.8-0.3,1.1,0
					c0.3,0.3,0.3,0.8,0,1.1l-1.3,1.3C117.5,15.9,117.3,16,117.1,16z"/>
			</g>
			<g>
				<path fill="#231F20" d="M113,20c-0.2,0-0.4-0.1-0.5-0.2c-0.3-0.3-0.3-0.8,0-1.1l1.3-1.3c0.3-0.3,0.8-0.3,1.1,0
					c0.3,0.3,0.3,0.8,0,1.1l-1.3,1.3C113.4,19.9,113.2,20,113,20z"/>
			</g>
			<g>
				<path fill="#231F20" d="M118.3,20c-0.2,0-0.4-0.1-0.5-0.2l-1.3-1.3c-0.3-0.3-0.3-0.8,0-1.1c0.3-0.3,0.8-0.3,1.1,0l1.3,1.3
					c0.3,0.3,0.3,0.8,0,1.1C118.7,19.9,118.5,20,118.3,20z"/>
			</g>
			<g>
				<path fill="#231F20" d="M114.3,16c-0.2,0-0.4-0.1-0.5-0.2l-1.3-1.3c-0.3-0.3-0.3-0.8,0-1.1c0.3-0.3,0.8-0.3,1.1,0l1.3,1.3
					c0.3,0.3,0.3,0.8,0,1.1C114.7,15.9,114.5,16,114.3,16z"/>
			</g>
		</g>
		<g>
			<g>
				<path fill="#231F20" d="M18.1,114.1c-0.2,0-0.4-0.1-0.5-0.2c-0.3-0.3-0.3-0.8,0-1.1l1.3-1.3c0.3-0.3,0.8-0.3,1.1,0
					c0.3,0.3,0.3,0.8,0,1.1l-1.3,1.3C18.4,114,18.3,114.1,18.1,114.1z"/>
			</g>
			<g>
				<path fill="#231F20" d="M14,118.1c-0.2,0-0.4-0.1-0.5-0.2c-0.3-0.3-0.3-0.8,0-1.1l1.3-1.3c0.3-0.3,0.8-0.3,1.1,0
					c0.3,0.3,0.3,0.8,0,1.1l-1.3,1.3C14.3,118,14.2,118.1,14,118.1z"/>
			</g>
			<g>
				<path fill="#231F20" d="M19.3,118.1c-0.2,0-0.4-0.1-0.5-0.2l-1.3-1.3c-0.3-0.3-0.3-0.8,0-1.1c0.3-0.3,0.8-0.3,1.1,0l1.3,1.3
					c0.3,0.3,0.3,0.8,0,1.1C19.7,118,19.5,118.1,19.3,118.1z"/>
			</g>
			<g>
				<path fill="#231F20" d="M15.3,114.1c-0.2,0-0.4-0.1-0.5-0.2l-1.3-1.3c-0.3-0.3-0.3-0.8,0-1.1c0.3-0.3,0.8-0.3,1.1,0l1.3,1.3
					c0.3,0.3,0.3,0.8,0,1.1C15.7,114,15.5,114.1,15.3,114.1z"/>
			</g>
		</g>
		<path fill="#FFFFFF" d="M33.2,90.2c0,0-1,6,10.1,17.8c0,0,6.3,9.4,5.2,20.7H79c-0.7-11.3,5.9-20.7,5.9-20.7
			c11.5-11.8,10.7-17.8,10.7-17.8c18.7,3.7,31.3-18.7,31.3-18.7C122.3,57.2,104.1,44,104.1,44S94,37.5,89,40.6l-2.7,8.7l4.2,0.8
			l0.5,4l6.5-1.4l2.1-4C104.2,51.4,106,65,106,65c-11.9-3.9-13.5,7.2-13.5,7.2c-7.1-5.5-27.6-4.9-27.6-4.9S44.3,66.7,37,72.2
			c0,0-1.2-11.1-13.3-7.2c0,0,2.3-13.6,7-16.4l2,4l6.5,1.4l0.6-4l4.2-0.8l-2.4-8.7c-4.9-3-15.2,3.5-15.2,3.5S7.7,57.2,2.6,71.5
			C2.6,71.5,14.4,93.9,33.2,90.2z"/>
		<g>
			<path fill="#231F20" d="M127.6,71.3c-4.6-14.4-22.4-27.3-23.2-27.9c-0.3-0.2-6.9-4.4-12.2-4.4c-1.4,0-2.7,0.3-3.7,0.9
				c-0.2,0.1-0.3,0.2-0.3,0.4L85.5,49c-0.1,0.2,0,0.4,0.1,0.6c0.1,0.2,0.3,0.3,0.5,0.4l3.7,0.7l0.4,3.5c0,0.2,0.1,0.4,0.3,0.5
				c0.2,0.1,0.4,0.2,0.6,0.1l6.5-1.4c0.2,0,0.4-0.2,0.5-0.4l1.7-3.2c2.8,2.6,4.6,10.2,5.2,14.2c-1.3-0.4-2.6-0.5-3.8-0.5
				c-6.4,0-8.6,5.2-9.3,7.5c-6.3-3.9-19.4-4.4-25-4.4c-1.3,0-2.2,0-2.2,0c0,0-0.9,0-2.2,0c-5.6,0-18.7,0.4-25.1,4.4
				c-0.6-2.4-2.7-7.5-9-7.5c-1.2,0-2.4,0.2-3.8,0.5c0.8-4,2.9-11.6,5.8-14.2L32,53c0.1,0.2,0.3,0.4,0.5,0.4l6.5,1.4
				c0.2,0,0.4,0,0.6-0.1c0.2-0.1,0.3-0.3,0.3-0.5l0.6-3.5l3.7-0.7c0.2,0,0.4-0.2,0.5-0.3c0.1-0.2,0.1-0.4,0.1-0.6l-2.4-8.7
				c-0.1-0.2-0.2-0.3-0.3-0.4c-1-0.6-2.2-0.9-3.7-0.9C33,39,26.3,43.2,26,43.4C25.2,43.9,7,56.9,1.9,71.3c-0.1,0.2-0.1,0.4,0,0.6
				c0.4,0.8,10.5,19.5,27.1,19.5c0,0,0,0,0,0c1.1,0,2.3-0.1,3.4-0.3c0.2,2.2,1.5,8,10.3,17.3c0.5,0.7,6.1,9.7,5,20.2
				c0,0.2,0,0.4,0.2,0.6c0.1,0.2,0.3,0.2,0.6,0.2H79c0,0,0,0,0,0c0.4,0,0.8-0.3,0.8-0.8c0-0.1,0-0.1,0-0.2
				c-0.6-10.5,5.3-19.3,5.8-20.1c9.1-9.3,10.6-15.2,10.9-17.4c1.1,0.2,2.3,0.3,3.4,0.3c16.6,0,27.3-18.7,27.8-19.5
				C127.7,71.7,127.7,71.5,127.6,71.3z M99.8,89.9c-1.3,0-2.7-0.1-4-0.4c-0.2,0-0.5,0-0.7,0.2c-0.2,0.2-0.3,0.4-0.2,0.6
				c0,0.1,0.5,5.9-10.5,17.2c0,0-0.1,0.1-0.1,0.1c-0.3,0.4-6.5,9.3-6.1,20.4H49.3c0.7-11.1-5.1-20-5.4-20.4c0,0,0-0.1-0.1-0.1
				C33.2,96.2,34,90.4,34,90.4c0-0.2,0-0.5-0.2-0.7c-0.2-0.2-0.4-0.2-0.7-0.2c-1.3,0.3-2.7,0.4-4,0.4c0,0,0,0,0,0
				c-14.6,0-24.3-16.1-25.7-18.4c5.1-13.8,23.2-26.7,23.4-26.8c0.1,0,6.6-4.1,11.5-4.1c1,0,1.9,0.2,2.6,0.6l2.1,7.6l-3.4,0.7
				c-0.3,0.1-0.5,0.3-0.6,0.6l-0.5,3.2L33.2,52l-1.8-3.7c-0.1-0.2-0.3-0.3-0.5-0.4c-0.2-0.1-0.4,0-0.6,0.1
				c-4.9,2.9-7.2,16.4-7.3,16.9c0,0.3,0.1,0.5,0.2,0.7c0.2,0.2,0.5,0.2,0.7,0.1c1.6-0.5,3.2-0.8,4.5-0.8c6.9,0,7.8,7,7.8,7.3
				c0,0.3,0.2,0.5,0.5,0.6c0.2,0.1,0.5,0.1,0.8-0.1c5.7-4.4,20.7-4.7,25.2-4.7c1.4,0,2.2,0,2.2,0c0,0,0.8,0,2.2,0
				c4.5,0,19.4,0.3,25,4.7c0.2,0.2,0.5,0.2,0.7,0.1c0.2-0.1,0.4-0.3,0.5-0.6c0-0.3,1.1-7.4,8.1-7.4c1.4,0,2.9,0.3,4.5,0.8
				c0.2,0.1,0.5,0,0.7-0.1c0.2-0.2,0.3-0.4,0.3-0.7c-0.1-0.6-1.9-14-6.8-17c-0.2-0.1-0.4-0.1-0.6-0.1c-0.2,0.1-0.4,0.2-0.5,0.4
				L97,52l-5.4,1.2L91.2,50c0-0.3-0.3-0.6-0.6-0.6l-3.4-0.7l2.4-7.6c0.7-0.4,1.6-0.6,2.7-0.6c4.9,0,11.3,4.1,11.3,4.1
				c0.2,0.1,17.8,13,22.5,26.8C124.7,73.8,114.4,89.9,99.8,89.9z"/>
			<path fill="#231F20" d="M111.3,78c-6.5,9.2-20,5-20.1,4.9c-0.3-0.1-0.7,0-0.9,0.3c-7.1,12.4-16.3,8-16.7,7.8
				c-0.4-0.2-0.8,0-1,0.3c-0.2,0.4,0,0.8,0.3,1c0,0,2.1,1,5.1,1c3.8,0,9-1.6,13.3-8.9c2.8,0.7,14.9,3.3,21.2-5.7
				c0.2-0.3,0.2-0.8-0.2-1C112.1,77.6,111.6,77.7,111.3,78z"/>
			<path fill="#231F20" d="M56.2,91.4c-0.2-0.4-0.6-0.5-1-0.3c-0.4,0.2-9.8,4.6-16.4-7.8c-0.2-0.3-0.5-0.5-0.9-0.4
				c-0.1,0-13.8,4.3-19.9-4.9c-0.2-0.3-0.7-0.4-1-0.2c-0.3,0.2-0.4,0.7-0.2,1c6,8.9,18.2,6.4,21,5.7c4.1,7.3,9.2,8.9,13,8.9
				c3,0,5.1-1,5.1-1C56.2,92.2,56.4,91.8,56.2,91.4z"/>
			<path fill="#231F20" d="M72,107.2h-7.2l0.1-4.1c0-0.4-0.3-0.8-0.7-0.8c-0.4,0-0.8,0.3-0.8,0.7l-0.1,4.1h-7.2
				c-0.4,0-0.8,0.3-0.8,0.8c0,0.4,0.3,0.8,0.8,0.8h7.2l-0.1,5.2h-5.1c-0.4,0-0.8,0.3-0.8,0.8c0,0.4,0.3,0.8,0.8,0.8h5.1l-0.1,5.2
				h-3.9c-0.4,0-0.8,0.3-0.8,0.8s0.3,0.8,0.8,0.8h3.9l-0.1,4.1c0,0.4,0.3,0.8,0.7,0.8c0,0,0,0,0,0c0.4,0,0.7-0.3,0.7-0.7l0.1-4.1
				h3.9c0.4,0,0.8-0.3,0.8-0.8s-0.3-0.8-0.8-0.8h-3.9l0.1-5.2h5.1c0.4,0,0.8-0.3,0.8-0.8c0-0.4-0.3-0.8-0.8-0.8h-5.1l0.1-5.2H72
				c0.4,0,0.8-0.3,0.8-0.8C72.8,107.5,72.5,107.2,72,107.2z"/>
		</g>
		<path fill="#FFFFFF" d="M55.2,58.5h19.5c0.9-6.9,3.7-13.5,8.3-18.7c3.7-4.1,6-9.6,6.1-15.5c0.2-13.9-11.6-25-25.9-23.4
			c-10.8,1.2-19.6,9.9-21.1,20.6c-0.9,7,1.2,13.5,5.4,18.3C52.1,45,54.6,51.7,55.2,58.5z"/>
		<polygon fill="#FFFFFF" points="63,40.8 61.3,58.5 68.7,58.5 67.6,40.8 		"/>
		<polyline fill="#FFFFFF" points="56,20.8 60.9,20.8 65.2,16.6 65.1,25.1 69.3,21 75.2,21 		"/>
		<path fill="#231F20" d="M83.1,7.1C78.5,2.5,72.5,0,66,0c-0.9,0-1.9,0.1-2.8,0.2C52.1,1.4,43,10.3,41.5,21.4
			c-0.9,7,1,13.7,5.5,18.9c4.2,4.9,6.8,11.2,7.5,18.3c0,0.4,0.4,0.7,0.7,0.7h19.5c0.4,0,0.7-0.3,0.7-0.7c0.9-7.1,3.7-13.4,8.1-18.3
			c4-4.4,6.2-10.1,6.3-16C90,17.8,87.6,11.7,83.1,7.1z M62.1,57.8l1.6-16.3h3.2l1,16.3H62.1z M64.8,25.8c0.1,0,0.2,0.1,0.3,0.1
			c0.2,0,0.4-0.1,0.5-0.2l4-3.9h4.6L66.9,40h-3.2L57,21.6h3.9c0.2,0,0.4-0.1,0.5-0.2l3-2.9l-0.1,6.6C64.3,25.4,64.5,25.7,64.8,25.8z
			 M82.5,39.3c-4.5,5-7.4,11.3-8.4,18.4h-4.7l-1-17.1c0-0.1,0-0.1-0.1-0.2l8.8-22.2l-1.4-0.6l-1,2.5h-5.5c-0.2,0-0.4,0.1-0.5,0.2
			l-2.9,2.8l0.1-6.6c0-0.3-0.2-0.6-0.5-0.7c-0.3-0.1-0.6-0.1-0.8,0.2l-4.1,4h-4.1l-0.8-2.3l-1.4,0.5l8,22.2c0,0.1-0.1,0.1-0.1,0.2
			l-1.6,17.1h-4.7c-0.8-7.1-3.5-13.5-7.8-18.4c-4.2-4.9-6.1-11.2-5.2-17.7c1.4-10.4,10-18.8,20.4-20c7-0.8,13.8,1.6,18.6,6.5
			c4.2,4.3,6.5,10,6.4,16.1C88.3,29.8,86.2,35.2,82.5,39.3z"/>
		<g>
			<path fill="#FF7058" d="M11.6,47.1c0,1.4-1.2,2.5-2.6,2.5c-1.4,0-2.5-1.1-2.5-2.5c0-1.4,1.2-2.5,2.6-2.5
				C10.6,44.6,11.7,45.8,11.6,47.1z"/>
		</g>
		<g>
			<path fill="#84DBFF" d="M108.9,117.4c0,1.4-1.2,2.5-2.6,2.5c-1.4,0-2.5-1.1-2.5-2.5c0-1.4,1.2-2.5,2.6-2.5
				C107.8,114.8,108.9,116,108.9,117.4z"/>
		</g>
		<g>
			<path fill="#84DBFF" d="M105.4,27.6c0,1.4-1.2,2.5-2.6,2.5s-2.5-1.1-2.5-2.5s1.2-2.5,2.6-2.5S105.4,26.2,105.4,27.6z"/>
		</g>
		<g>
			<path fill="#FFD05B" d="M35.1,10.7c0,1.4-1.2,2.5-2.6,2.5c-1.4,0-2.5-1.1-2.5-2.5c0-1.4,1.2-2.5,2.6-2.5
				C34,8.2,35.1,9.3,35.1,10.7z"/>
		</g>
		<g>
			<g>
				<path fill="#231F20" d="M20.6,26.9h-8.1c-0.4,0-0.8-0.3-0.8-0.8c0-0.4,0.3-0.8,0.8-0.8h8.1c0.4,0,0.8,0.3,0.8,0.8
					C21.3,26.5,21,26.9,20.6,26.9z"/>
			</g>
			<g>
				<path fill="#231F20" d="M23.7,29.8h-4c-0.4,0-0.8-0.3-0.8-0.8c0-0.4,0.3-0.8,0.8-0.8h4c0.4,0,0.8,0.3,0.8,0.8
					C24.4,29.5,24.1,29.8,23.7,29.8z"/>
			</g>
			<g>
				<path fill="#231F20" d="M28,26.9h-3.8c-0.4,0-0.8-0.3-0.8-0.8c0-0.4,0.3-0.8,0.8-0.8H28c0.4,0,0.8,0.3,0.8,0.8
					C28.7,26.5,28.4,26.9,28,26.9z"/>
			</g>
			<g>
				<path fill="#231F20" d="M16.8,29.8h-0.8c-0.4,0-0.7-0.3-0.7-0.8c0-0.4,0.3-0.8,0.7-0.8h0.8c0.4,0,0.8,0.3,0.8,0.8
					C17.6,29.5,17.3,29.8,16.8,29.8z"/>
			</g>
		</g>
		<g>
			<g>
				<path fill="#231F20" d="M111.9,100.9h-8.1c-0.4,0-0.8-0.3-0.8-0.8s0.3-0.8,0.8-0.8h8.1c0.4,0,0.8,0.3,0.8,0.8
					S112.3,100.9,111.9,100.9z"/>
			</g>
			<g>
				<path fill="#231F20" d="M115,103.8h-4c-0.4,0-0.8-0.3-0.8-0.8s0.3-0.8,0.8-0.8h4c0.4,0,0.8,0.3,0.8,0.8S115.5,103.8,115,103.8z"
					/>
			</g>
			<g>
				<path fill="#231F20" d="M119.3,100.9h-3.8c-0.4,0-0.8-0.3-0.8-0.8s0.3-0.8,0.8-0.8h3.8c0.4,0,0.8,0.3,0.8,0.8
					S119.8,100.9,119.3,100.9z"/>
			</g>
			<g>
				<path fill="#231F20" d="M108.2,103.8h-0.8c-0.4,0-0.8-0.3-0.8-0.8s0.3-0.8,0.8-0.8h0.8c0.4,0,0.8,0.3,0.8,0.8
					S108.6,103.8,108.2,103.8z"/>
			</g>
		</g>
		<g>
			<path fill="#FFD05B" d="M77.7,57.3H52.3l-0.1,6.1c-0.1,7,5.5,12.7,12.5,12.7h0c6.9,0,12.7-5.7,12.9-12.6L77.7,57.3z"/>
		</g>
	</g>
</g>
</svg>
