<?xml version="1.0" encoding="utf-8"?>
<!-- Generator: Adobe Illustrator 18.0.0, SVG Export Plug-In . SVG Version: 6.00 Build 0)  -->
<!DOCTYPE svg PUBLIC "-//W3C//DTD SVG 1.1//EN" "http://www.w3.org/Graphics/SVG/1.1/DTD/svg11.dtd">
<svg version="1.1" id="Layer_1" xmlns="http://www.w3.org/2000/svg" xmlns:xlink="http://www.w3.org/1999/xlink" x="0px" y="0px"
	 viewBox="0 0 129.5 129.5" enable-background="new 0 0 129.5 129.5" xml:space="preserve">
<g>
	<g>
		<path fill="#FFFFFF" d="M54.6,16.8c-5.3,2.4-9.5,6.6-12,11.8c-4.7,10.1-3.5,20.2,1.2,27.7c5.8,9.3,9.3,19.8,10.2,30.7l0,0h26.8
			c0.9-11,4.6-21.5,10.3-30.9c2.6-4.2,4-9.1,4-14.4C95.1,22.2,75.1,7.5,54.6,16.8z"/>
		<path fill="#FF7058" d="M53.1,80.4c0.4,2.2,0.7,4.4,0.9,6.6l0,0h26.8c0.2-2.2,0.5-4.5,0.9-6.6H53.1z"/>
		<g>
			<circle fill="#FFD05B" cx="67.3" cy="40.5" r="19.7"/>
		</g>
		<path fill="#84DBFF" d="M54,87.1v20.1l0,0.1c2,0,3.6-1.3,4.2-3.1c0.1-0.4,0.2-0.9,0.2-1.4V87.1H54z"/>
		<path fill="#84DBFF" d="M67.3,87.1v15.7c0,2.5,2,4.5,4.5,4.5c1.3,0,2.5-0.6,3.3-1.4c0.4-0.4,0.7-1,1-1.6c0.2-0.5,0.3-0.9,0.3-1.5
			V87.1H67.3z"/>
		<path fill="#84DBFF" d="M58.4,87.1v15.7c0,0.5,0.1,1,0.3,1.5c0.2,0.6,0.5,1.1,1,1.6c0.8,0.9,2,1.4,3.3,1.4c2.5,0,4.5-2,4.5-4.5
			V87.1H58.4z"/>
		<path fill="#84DBFF" d="M76.3,87.1v15.7c0,0.5,0.1,0.9,0.2,1.4c0.6,1.8,2.2,3.1,4.2,3.1l0-0.1V87.1H76.3z"/>
		<path fill="#FFFFFF" d="M67.3,128.7L54,107.2c2.5,0,4.4-2,4.4-4.5c0,2.5,2,4.5,4.5,4.5c2.5,0,4.5-2,4.5-4.5c0,2.5,2,4.5,4.5,4.5
			c2.5,0,4.5-2,4.5-4.5c0,2.5,2,4.4,4.4,4.5L67.3,128.7z"/>
		<polygon fill="#324A5E" points="61.8,119.9 67.3,128.7 72.9,119.9 		"/>
		<g>
			<path fill="#231F20" d="M60.8,4.4c-0.4,0.1-0.7,0.5-0.6,0.9l1,5.6c0.1,0.4,0.4,0.6,0.7,0.6c0,0,0.1,0,0.1,0
				c0.4-0.1,0.7-0.5,0.6-0.9l-1-5.6C61.6,4.6,61.2,4.3,60.8,4.4z"/>
			<path fill="#231F20" d="M55.4,6.6c-0.1-0.4-0.6-0.6-1-0.4c-0.4,0.1-0.6,0.6-0.4,1l2,5.4c0.1,0.3,0.4,0.5,0.7,0.5
				c0.1,0,0.2,0,0.3,0c0.4-0.1,0.6-0.6,0.4-1L55.4,6.6z"/>
			<path fill="#231F20" d="M44.1,12.8c-0.3-0.3-0.7-0.4-1.1-0.1c-0.3,0.3-0.4,0.7-0.1,1.1l3.7,4.4c0.1,0.2,0.4,0.3,0.6,0.3
				c0.2,0,0.3-0.1,0.5-0.2c0.3-0.3,0.4-0.7,0.1-1.1L44.1,12.8z"/>
			<path fill="#231F20" d="M42.8,22.1c0.1,0.1,0.3,0.2,0.5,0.2c0.2,0,0.4-0.1,0.6-0.3c0.3-0.3,0.2-0.8-0.1-1.1l-4.4-3.7
				c-0.3-0.3-0.8-0.2-1.1,0.1c-0.3,0.3-0.2,0.8,0.1,1.1L42.8,22.1z"/>
			<path fill="#231F20" d="M91.9,61.3c-0.3-0.3-0.8-0.2-1.1,0.1c-0.3,0.3-0.2,0.8,0.1,1.1l4.4,3.7c0.1,0.1,0.3,0.2,0.5,0.2
				c0.2,0,0.4-0.1,0.6-0.3c0.3-0.3,0.2-0.8-0.1-1.1L91.9,61.3z"/>
			<path fill="#231F20" d="M38.1,30.2l-5.4-2c-0.4-0.1-0.8,0.1-1,0.4c-0.1,0.4,0.1,0.8,0.4,1l5.4,2c0.1,0,0.2,0,0.3,0
				c0.3,0,0.6-0.2,0.7-0.5C38.7,30.8,38.5,30.4,38.1,30.2z"/>
			<path fill="#231F20" d="M96.1,52.2c-0.1,0.4,0.1,0.8,0.4,1l5.4,2c0.1,0,0.2,0,0.3,0c0.3,0,0.6-0.2,0.7-0.5c0.1-0.4-0.1-0.8-0.4-1
				l-5.4-2C96.7,51.6,96.3,51.8,96.1,52.2z"/>
			<path fill="#231F20" d="M30.7,36l5.6,1c0,0,0.1,0,0.1,0c0.4,0,0.7-0.3,0.7-0.6c0.1-0.4-0.2-0.8-0.6-0.9l-5.6-1
				c-0.4-0.1-0.8,0.2-0.9,0.6C30,35.5,30.3,35.9,30.7,36z"/>
			<path fill="#231F20" d="M104,47.4l-5.6-1c-0.4-0.1-0.8,0.2-0.9,0.6c-0.1,0.4,0.2,0.8,0.6,0.9l5.6,1c0,0,0.1,0,0.1,0
				c0.4,0,0.7-0.3,0.7-0.6C104.7,47.9,104.4,47.5,104,47.4z"/>
			<path fill="#231F20" d="M37.2,47c-0.1-0.4-0.5-0.7-0.9-0.6l-5.6,1c-0.4,0.1-0.7,0.5-0.6,0.9c0.1,0.4,0.4,0.6,0.7,0.6
				c0,0,0.1,0,0.1,0l5.6-1C37,47.8,37.2,47.4,37.2,47z"/>
			<path fill="#231F20" d="M97.5,36.4c0.1,0.4,0.4,0.6,0.7,0.6c0,0,0.1,0,0.1,0l5.6-1c0.4-0.1,0.7-0.5,0.6-0.9
				c-0.1-0.4-0.5-0.7-0.9-0.6l-5.6,1C97.7,35.6,97.4,36,97.5,36.4z"/>
			<path fill="#231F20" d="M37.6,51.7l-5.4,2c-0.4,0.1-0.6,0.6-0.4,1c0.1,0.3,0.4,0.5,0.7,0.5c0.1,0,0.2,0,0.3,0l5.4-2
				c0.4-0.1,0.6-0.6,0.4-1C38.4,51.8,38,51.6,37.6,51.7z"/>
			<path fill="#231F20" d="M102.9,28.7c-0.1-0.4-0.6-0.6-1-0.4l-5.4,2c-0.4,0.1-0.6,0.6-0.4,1c0.1,0.3,0.4,0.5,0.7,0.5
				c0.1,0,0.2,0,0.3,0l5.4-2C102.9,29.6,103.1,29.1,102.9,28.7z"/>
			<path fill="#231F20" d="M43.9,61.4c-0.3-0.3-0.7-0.4-1.1-0.1L38.4,65c-0.3,0.3-0.4,0.7-0.1,1.1c0.1,0.2,0.4,0.3,0.6,0.3
				c0.2,0,0.3-0.1,0.5-0.2l4.4-3.7C44.1,62.2,44.1,61.7,43.9,61.4z"/>
			<path fill="#231F20" d="M90.8,22c0.1,0.2,0.4,0.3,0.6,0.3c0.2,0,0.3-0.1,0.5-0.2l4.4-3.7c0.3-0.3,0.4-0.7,0.1-1.1
				c-0.3-0.3-0.7-0.4-1.1-0.1l-4.4,3.7C90.6,21.2,90.6,21.7,90.8,22z"/>
			<path fill="#231F20" d="M46.6,65.3l-3.7,4.4c-0.3,0.3-0.2,0.8,0.1,1.1c0.1,0.1,0.3,0.2,0.5,0.2c0.2,0,0.4-0.1,0.6-0.3l3.7-4.4
				c0.3-0.3,0.2-0.8-0.1-1.1C47.3,64.9,46.9,64.9,46.6,65.3z"/>
			<path fill="#231F20" d="M91.7,12.7c-0.3-0.3-0.8-0.2-1.1,0.1l-3.7,4.4c-0.3,0.3-0.2,0.8,0.1,1.1c0.1,0.1,0.3,0.2,0.5,0.2
				c0.2,0,0.4-0.1,0.6-0.3l3.7-4.4C92,13.4,92,13,91.7,12.7z"/>
			<path fill="#231F20" d="M80.3,6.1c-0.4-0.1-0.8,0.1-1,0.4l-2,5.4c-0.1,0.4,0.1,0.8,0.4,1c0.1,0,0.2,0,0.3,0
				c0.3,0,0.6-0.2,0.7-0.5l2-5.4C80.9,6.7,80.7,6.3,80.3,6.1z"/>
			<path fill="#231F20" d="M73.9,4.4C73.5,4.3,73.1,4.6,73,5l-1,5.6c-0.1,0.4,0.2,0.8,0.6,0.9c0,0,0.1,0,0.1,0
				c0.4,0,0.7-0.3,0.7-0.6l1-5.6C74.6,4.9,74.3,4.5,73.9,4.4z"/>
			<path fill="#231F20" d="M67.3,0c-0.4,0-0.8,0.3-0.8,0.8v9.5c0,0.4,0.3,0.8,0.8,0.8c0.4,0,0.8-0.3,0.8-0.8V0.7
				C68.1,0.3,67.8,0,67.3,0z"/>
			<path fill="#231F20" d="M108.3,40.9h-9.5c-0.4,0-0.8,0.3-0.8,0.8c0,0.4,0.3,0.8,0.8,0.8h9.5c0.4,0,0.8-0.3,0.8-0.8
				C109,41.3,108.7,40.9,108.3,40.9z"/>
			<path fill="#231F20" d="M36.7,41.7c0-0.4-0.3-0.8-0.8-0.8h-9.5c-0.4,0-0.8,0.3-0.8,0.8c0,0.4,0.3,0.8,0.8,0.8H36
				C36.4,42.4,36.7,42.1,36.7,41.7z"/>
			<path fill="#231F20" d="M47.5,5.9c-0.2-0.4-0.7-0.5-1-0.3c-0.4,0.2-0.5,0.7-0.3,1l4.8,8.3c0.1,0.2,0.4,0.4,0.6,0.4
				c0.1,0,0.3,0,0.4-0.1c0.4-0.2,0.5-0.7,0.3-1L47.5,5.9z"/>
			<path fill="#231F20" d="M93.9,26.4c0.1,0.2,0.4,0.4,0.6,0.4c0.1,0,0.3,0,0.4-0.1l8.3-4.8c0.4-0.2,0.5-0.7,0.3-1
				c-0.2-0.4-0.7-0.5-1-0.3l-8.3,4.8C93.8,25.5,93.7,26,93.9,26.4z"/>
			<path fill="#231F20" d="M40.8,57c-0.2-0.4-0.7-0.5-1-0.3l-8.3,4.8c-0.4,0.2-0.5,0.7-0.3,1c0.1,0.2,0.4,0.4,0.6,0.4
				c0.1,0,0.3,0,0.4-0.1l8.3-4.8C40.9,57.8,41,57.4,40.8,57z"/>
			<path fill="#231F20" d="M31.5,21.9l8.3,4.8c0.1,0.1,0.2,0.1,0.4,0.1c0.3,0,0.5-0.1,0.6-0.4c0.2-0.4,0.1-0.8-0.3-1l-8.3-4.8
				c-0.4-0.2-0.8-0.1-1,0.3C31,21.2,31.2,21.7,31.5,21.9z"/>
			<path fill="#231F20" d="M103.2,61.5l-8.3-4.8c-0.4-0.2-0.8-0.1-1,0.3c-0.2,0.4-0.1,0.8,0.3,1l8.3,4.8c0.1,0.1,0.2,0.1,0.4,0.1
				c0.3,0,0.5-0.1,0.6-0.4C103.7,62.2,103.5,61.7,103.2,61.5z"/>
			<path fill="#231F20" d="M88.2,5.6c-0.4-0.2-0.8-0.1-1,0.3l-4.8,8.3c-0.2,0.4-0.1,0.8,0.3,1c0.1,0.1,0.2,0.1,0.4,0.1
				c0.3,0,0.5-0.1,0.6-0.4l4.8-8.3C88.7,6.3,88.5,5.8,88.2,5.6z"/>
		</g>
		<circle fill="#FFFFFF" cx="73.2" cy="40.5" r="5.9"/>
		<circle fill="#FFFFFF" cx="61.4" cy="40.5" r="5.9"/>
		<g>
			<line fill="#FFFFFF" x1="67.3" y1="80.4" x2="67.3" y2="40.5"/>
			<path fill="#231F20" d="M67.3,13.2c-4.4,0-8.8,1-13.1,2.9c-5.5,2.5-9.8,6.8-12.3,12.2c-4.5,9.6-4,20,1.3,28.4
				c5.7,9.1,9.2,19.6,10,30.2v20.2h0c0,0.1,0,0.3,0.1,0.4l13.4,21.6c0.1,0.2,0.4,0.4,0.6,0.4c0.3,0,0.5-0.1,0.6-0.4l13.4-21.6
				c0.1-0.1,0.1-0.3,0.1-0.4h0v-20c0,0,0,0,0,0c0.9-10.5,4.4-21.1,10.2-30.6c2.7-4.5,4.1-9.6,4.1-14.8C95.8,26,83.1,13.2,67.3,13.2z
				 M57.7,102.7C57.7,102.7,57.7,102.7,57.7,102.7c0,1.8-1.3,3.3-3,3.6V87.8h3V102.7z M66.6,102.8c0,2-1.7,3.7-3.7,3.7
				c-2,0-3.7-1.7-3.7-3.7V87.8h7.4V102.8z M75.5,102.7C75.5,102.7,75.5,102.7,75.5,102.7c0,2.1-1.7,3.7-3.7,3.7
				c-2,0-3.7-1.7-3.7-3.7c0,0,0,0,0,0V87.8h7.4V102.7z M80,106.4c-1.7-0.4-3-1.8-3-3.6V87.8h3V106.4z M80.1,86.3H54.7
				c-0.2-1.7-0.4-3.4-0.7-5.2l0,0h26.8l0,0C80.5,82.9,80.2,84.6,80.1,86.3z M67.3,127.3l-4.2-6.7h0h8.3l0,0L67.3,127.3z M72.4,119.1
				H62.3l-7-11.3c1.3-0.3,2.5-1.2,3.2-2.4c0.9,1.5,2.6,2.5,4.5,2.5c1.9,0,3.5-1,4.5-2.5c0.9,1.5,2.6,2.5,4.5,2.5
				c1.9,0,3.6-1,4.5-2.5c0.7,1.2,1.8,2,3.2,2.4L72.4,119.1z M90.4,55.7c-4.6,7.5-7.8,15.7-9.4,23.9H68.1V44.7
				c1.2,1.5,3.1,2.4,5.1,2.4c3.7,0,6.6-3,6.6-6.6c0-3.7-3-6.6-6.6-6.6c-2.6,0-4.8,1.5-5.9,3.6c-1.1-2.1-3.3-3.6-5.9-3.6
				c-3.7,0-6.6,3-6.6,6.6c0,3.7,3,6.6,6.6,6.6c2.1,0,3.9-1,5.1-2.4v34.9H53.7C52.1,71.3,49,63.2,44.4,56c-5-8-5.4-17.8-1.2-27
				c2.3-5.1,6.5-9.1,11.6-11.5c4.1-1.9,8.3-2.8,12.5-2.8c14.9,0,27,12.1,27,27C94.3,46.7,93,51.5,90.4,55.7z M68.1,40.5
				c0-2.8,2.3-5.1,5.1-5.1s5.1,2.3,5.1,5.1c0,2.8-2.3,5.1-5.1,5.1S68.1,43.4,68.1,40.5z M66.6,40.5c0,2.8-2.3,5.1-5.1,5.1
				s-5.1-2.3-5.1-5.1c0-2.8,2.3-5.1,5.1-5.1S66.6,37.7,66.6,40.5z"/>
		</g>
		<g>
			<g>
				<path fill="#231F20" d="M124.9,7.1c-0.2,0-0.4-0.1-0.5-0.2c-0.3-0.3-0.3-0.8,0-1.1l1.3-1.3c0.3-0.3,0.8-0.3,1.1,0
					c0.3,0.3,0.3,0.8,0,1.1l-1.3,1.3C125.3,7.1,125.1,7.1,124.9,7.1z"/>
			</g>
			<g>
				<path fill="#231F20" d="M120.8,11.2c-0.2,0-0.4-0.1-0.5-0.2c-0.3-0.3-0.3-0.8,0-1.1l1.3-1.3c0.3-0.3,0.8-0.3,1.1,0
					c0.3,0.3,0.3,0.8,0,1.1l-1.3,1.3C121.2,11.1,121,11.2,120.8,11.2z"/>
			</g>
			<g>
				<path fill="#231F20" d="M126.2,11.2c-0.2,0-0.4-0.1-0.5-0.2l-1.3-1.3c-0.3-0.3-0.3-0.8,0-1.1c0.3-0.3,0.8-0.3,1.1,0l1.3,1.3
					c0.3,0.3,0.3,0.8,0,1.1C126.5,11.1,126.3,11.2,126.2,11.2z"/>
			</g>
			<g>
				<path fill="#231F20" d="M122.1,7.1c-0.2,0-0.4-0.1-0.5-0.2l-1.3-1.3c-0.3-0.3-0.3-0.8,0-1.1s0.8-0.3,1.1,0l1.3,1.3
					c0.3,0.3,0.3,0.8,0,1.1C122.5,7.1,122.3,7.1,122.1,7.1z"/>
			</g>
		</g>
		<g>
			<g>
				<path fill="#231F20" d="M7.4,28.4c-0.2,0-0.4-0.1-0.5-0.2c-0.3-0.3-0.3-0.8,0-1.1l1.3-1.3c0.3-0.3,0.8-0.3,1.1,0
					c0.3,0.3,0.3,0.8,0,1.1l-1.3,1.3C7.8,28.3,7.6,28.4,7.4,28.4z"/>
			</g>
			<g>
				<path fill="#231F20" d="M3.3,32.4c-0.2,0-0.4-0.1-0.5-0.2c-0.3-0.3-0.3-0.8,0-1.1l1.3-1.3c0.3-0.3,0.8-0.3,1.1,0
					c0.3,0.3,0.3,0.8,0,1.1l-1.3,1.3C3.7,32.3,3.5,32.4,3.3,32.4z"/>
			</g>
			<g>
				<path fill="#231F20" d="M8.7,32.4c-0.2,0-0.4-0.1-0.5-0.2l-1.3-1.3c-0.3-0.3-0.3-0.8,0-1.1c0.3-0.3,0.8-0.3,1.1,0l1.3,1.3
					c0.3,0.3,0.3,0.8,0,1.1C9,32.3,8.9,32.4,8.7,32.4z"/>
			</g>
			<g>
				<path fill="#231F20" d="M4.6,28.4c-0.2,0-0.4-0.1-0.5-0.2l-1.3-1.3c-0.3-0.3-0.3-0.8,0-1.1c0.3-0.3,0.8-0.3,1.1,0l1.3,1.3
					c0.3,0.3,0.3,0.8,0,1.1C5,28.3,4.8,28.4,4.6,28.4z"/>
			</g>
		</g>
		<g>
			<g>
				<path fill="#231F20" d="M122.9,83.1c-0.2,0-0.4-0.1-0.5-0.2c-0.3-0.3-0.3-0.8,0-1.1l1.3-1.3c0.3-0.3,0.8-0.3,1.1,0
					c0.3,0.3,0.3,0.8,0,1.1l-1.3,1.3C123.2,83,123,83.1,122.9,83.1z"/>
			</g>
			<g>
				<path fill="#231F20" d="M118.8,87.1c-0.2,0-0.4-0.1-0.5-0.2c-0.3-0.3-0.3-0.8,0-1.1l1.3-1.3c0.3-0.3,0.8-0.3,1.1,0
					c0.3,0.3,0.3,0.8,0,1.1l-1.3,1.3C119.2,87.1,119,87.1,118.8,87.1z"/>
			</g>
			<g>
				<path fill="#231F20" d="M124.1,87.1c-0.2,0-0.4-0.1-0.5-0.2l-1.3-1.3c-0.3-0.3-0.3-0.8,0-1.1c0.3-0.3,0.8-0.3,1.1,0l1.3,1.3
					c0.3,0.3,0.3,0.8,0,1.1C124.5,87.1,124.3,87.1,124.1,87.1z"/>
			</g>
			<g>
				<path fill="#231F20" d="M120.1,83.1c-0.2,0-0.4-0.1-0.5-0.2l-1.3-1.3c-0.3-0.3-0.3-0.8,0-1.1c0.3-0.3,0.8-0.3,1.1,0l1.3,1.3
					c0.3,0.3,0.3,0.8,0,1.1C120.5,83,120.3,83.1,120.1,83.1z"/>
			</g>
		</g>
		<g>
			<circle fill="#FF7058" cx="121.5" cy="49.1" r="2.7"/>
		</g>
		<g>
			<circle fill="#FFD05B" cx="106.2" cy="9.1" r="2"/>
		</g>
		<g>
			<circle fill="#FFD05B" cx="18" cy="52.9" r="1.5"/>
		</g>
		<g>
			<circle fill="#E6E9EE" cx="18.2" cy="14.5" r="2.7"/>
		</g>
		<g>
			<circle fill="#84DBFF" cx="18.2" cy="81.7" r="2.7"/>
		</g>
	</g>
</g>
</svg>
