<?xml version="1.0" encoding="utf-8"?>
<!-- Generator: Adobe Illustrator 18.0.0, SVG Export Plug-In . SVG Version: 6.00 Build 0)  -->
<!DOCTYPE svg PUBLIC "-//W3C//DTD SVG 1.1//EN" "http://www.w3.org/Graphics/SVG/1.1/DTD/svg11.dtd">
<svg version="1.1" id="Layer_1" xmlns="http://www.w3.org/2000/svg" xmlns:xlink="http://www.w3.org/1999/xlink" x="0px" y="0px"
	 viewBox="0 0 129.5 129.5" enable-background="new 0 0 129.5 129.5" xml:space="preserve">
<g>
	<g>
		<path fill="#FFFFFF" d="M83,85.5H46.5c-1.4,0-2.5-1.1-2.5-2.5V46.5c0-1.4,1.1-2.5,2.5-2.5H83c1.4,0,2.5,1.1,2.5,2.5V83
			C85.5,84.4,84.4,85.5,83,85.5z"/>
		<g>
			<polygon fill="#ACB3BA" points="73.1,49.9 49.9,49.9 49.9,79.6 79.6,79.6 79.6,56.4 			"/>
		</g>
		<g>
			<circle fill="#ACB3BA" cx="78.3" cy="51.2" r="1.3"/>
		</g>
		<path fill="#231F20" d="M125.9,73c-1.7,0-3.2,1.2-3.5,2.9h-11.7l-6.9-4.9c-0.1-0.1-0.3-0.1-0.4-0.1H90.9v-1.2
			c0-0.4-0.3-0.8-0.8-0.8h-3.9v-1.5h3.9c0.4,0,0.8-0.3,0.8-0.8v-1.2l21,0c0.3,1.6,1.8,2.9,3.5,2.9c2,0,3.6-1.6,3.6-3.6
			c0-2-1.6-3.6-3.6-3.6c-1.7,0-3.2,1.2-3.5,2.9l-21,0v-1.2c0-0.4-0.3-0.8-0.8-0.8h-3.9v-1.5h3.9c0.4,0,0.8-0.3,0.8-0.8v-1.2h11
			c0.2,0,0.3,0,0.4-0.1l6.9-4.9h11.6c0.3,1.6,1.8,2.9,3.5,2.9c2,0,3.6-1.6,3.6-3.6c0-2-1.6-3.6-3.6-3.6c-1.7,0-3.2,1.2-3.5,2.9
			h-11.8c-0.2,0-0.3,0-0.4,0.1l-6.9,4.9H90.9V56c0-0.4-0.3-0.8-0.8-0.8h-3.9v-1.5h3.9c0.4,0,0.8-0.3,0.8-0.8v-1.2h6.4
			c0.3,1.6,1.8,2.9,3.5,2.9c2,0,3.6-1.6,3.6-3.6c0-2-1.6-3.6-3.6-3.6c-1.7,0-3.2,1.2-3.5,2.9h-6.4v-1.2c0-0.4-0.3-0.8-0.8-0.8h-3.9
			v-1.9c0-1.8-1.5-3.3-3.3-3.3h-1.9v-3.9c0-0.4-0.3-0.8-0.8-0.8h-1.2v-7.8c1.6-0.3,2.9-1.8,2.9-3.5c0-2-1.6-3.6-3.6-3.6
			c-2,0-3.6,1.6-3.6,3.6c0,1.7,1.2,3.2,2.9,3.5v7.8h-1.2c-0.4,0-0.8,0.3-0.8,0.8v3.9h-1.5v-3.9c0-0.4-0.3-0.8-0.8-0.8h-1.1V26.5
			l4.9-6.9c0.1-0.1,0.1-0.3,0.1-0.4v-12c1.6-0.3,2.9-1.8,2.9-3.5c0-2-1.6-3.6-3.6-3.6c-2,0-3.6,1.6-3.6,3.6c0,1.7,1.2,3.2,2.9,3.5
			v11.7L71,25.8c-0.1,0.1-0.1,0.3-0.1,0.4v12.4h-1.2c-0.4,0-0.8,0.3-0.8,0.8v3.9h-1.5v-3.9c0-0.4-0.3-0.8-0.8-0.8h-1.2v-21
			c1.6-0.3,2.9-1.8,2.9-3.5c0-2-1.6-3.6-3.6-3.6c-2,0-3.6,1.6-3.6,3.6c0,1.7,1.2,3.2,2.9,3.5v21h-1.2c-0.4,0-0.8,0.3-0.8,0.8v3.9
			h-1.5v-3.9c0-0.4-0.3-0.8-0.8-0.8h-1.2v-11c0-0.2,0-0.3-0.1-0.4l-4.9-6.9V8.7c1.6-0.3,2.9-1.8,2.9-3.5c0-2-1.6-3.6-3.6-3.6
			c-2,0-3.6,1.6-3.6,3.6c0,1.7,1.2,3.2,2.9,3.5v11.8c0,0.2,0,0.3,0.1,0.4l4.9,6.9v10.7H56c-0.4,0-0.8,0.3-0.8,0.8v3.9h-1.5v-3.9
			c0-0.4-0.3-0.8-0.8-0.8h-1.2v-6.4c1.6-0.3,2.9-1.8,2.9-3.5c0-2-1.6-3.6-3.6-3.6c-2,0-3.6,1.6-3.6,3.6c0,1.7,1.2,3.2,2.9,3.5v6.4
			h-1.2c-0.4,0-0.8,0.3-0.8,0.8v3.9h-1.9c-1.8,0-3.3,1.5-3.3,3.3v1.9h-3.9c-0.4,0-0.8,0.3-0.8,0.8v1.2h-7.8
			c-0.3-1.6-1.8-2.9-3.5-2.9c-2,0-3.6,1.6-3.6,3.6c0,2,1.6,3.6,3.6,3.6c1.7,0,3.2-1.2,3.5-2.9h7.8V53c0,0.4,0.3,0.8,0.8,0.8h3.9v1.5
			h-3.9c-0.4,0-0.8,0.3-0.8,0.8v1.1H26.5l-6.9-4.9c-0.1-0.1-0.3-0.1-0.4-0.1h-12c-0.3-1.6-1.8-2.9-3.5-2.9c-2,0-3.6,1.6-3.6,3.6
			c0,2,1.6,3.6,3.6,3.6c1.7,0,3.2-1.2,3.5-2.9h11.7l6.9,4.9c0.1,0.1,0.3,0.1,0.4,0.1h12.4v1.2c0,0.4,0.3,0.8,0.8,0.8h3.9v1.5h-3.9
			c-0.4,0-0.8,0.3-0.8,0.8V64h-21c-0.3-1.6-1.8-2.9-3.5-2.9c-2,0-3.6,1.6-3.6,3.6c0,2,1.6,3.6,3.6,3.6c1.7,0,3.2-1.2,3.5-2.9h21v1.2
			c0,0.4,0.3,0.8,0.8,0.8h3.9v1.5h-3.9c-0.4,0-0.8,0.3-0.8,0.8v1.2h-11c-0.2,0-0.3,0-0.4,0.1l-6.9,4.9H8.7C8.4,74.2,6.9,73,5.2,73
			c-2,0-3.6,1.6-3.6,3.6c0,2,1.6,3.6,3.6,3.6c1.7,0,3.2-1.2,3.5-2.9h11.8c0.2,0,0.3,0,0.4-0.1l6.9-4.9h10.7v1.1
			c0,0.4,0.3,0.8,0.8,0.8h3.9v1.5h-3.9c-0.4,0-0.8,0.3-0.8,0.8v1.2h-6.4c-0.3-1.6-1.8-2.9-3.5-2.9c-2,0-3.6,1.6-3.6,3.6
			c0,2,1.6,3.6,3.6,3.6c1.7,0,3.2-1.2,3.5-2.9h6.4v1.2c0,0.4,0.3,0.8,0.8,0.8h3.9V83c0,1.8,1.5,3.3,3.3,3.3h1.9v3.9
			c0,0.4,0.3,0.8,0.8,0.8h1.2v7.8c-1.6,0.3-2.9,1.8-2.9,3.5c0,2,1.6,3.6,3.6,3.6c2,0,3.6-1.6,3.6-3.6c0-1.7-1.2-3.2-2.9-3.5v-7.8H53
			c0.4,0,0.8-0.3,0.8-0.8v-3.9h1.5v3.9c0,0.4,0.3,0.8,0.8,0.8h1.1V103l-4.9,6.9c-0.1,0.1-0.1,0.3-0.1,0.4v12
			c-1.6,0.3-2.9,1.8-2.9,3.5c0,2,1.6,3.6,3.6,3.6c2,0,3.6-1.6,3.6-3.6c0-1.7-1.2-3.2-2.9-3.5v-11.7l4.9-6.9c0.1-0.1,0.1-0.3,0.1-0.4
			V90.9h1.2c0.4,0,0.8-0.3,0.8-0.8v-3.9h1.5v3.9c0,0.4,0.3,0.8,0.8,0.8H64v21c-1.6,0.3-2.9,1.8-2.9,3.5c0,2,1.6,3.6,3.6,3.6
			c2,0,3.6-1.6,3.6-3.6c0-1.7-1.2-3.2-2.9-3.5v-21h1.2c0.4,0,0.8-0.3,0.8-0.8v-3.9h1.5v3.9c0,0.4,0.3,0.8,0.8,0.8h1.2l0,11
			c0,0.2,0,0.3,0.1,0.4l4.9,6.9v11.6c-1.6,0.3-2.9,1.8-2.9,3.5c0,2,1.6,3.6,3.6,3.6c2,0,3.6-1.6,3.6-3.6c0-1.7-1.2-3.2-2.9-3.5
			v-11.8c0-0.2,0-0.3-0.1-0.4l-4.9-6.9l0-10.7h1.1c0.4,0,0.8-0.3,0.8-0.8v-3.9h1.5v3.9c0,0.4,0.3,0.8,0.8,0.8h1.2v6.4
			c-1.6,0.3-2.9,1.8-2.9,3.5c0,2,1.6,3.6,3.6,3.6c2,0,3.6-1.6,3.6-3.6c0-1.7-1.2-3.2-2.9-3.5v-6.4h1.2c0.4,0,0.8-0.3,0.8-0.8v-3.9
			H83c1.8,0,3.3-1.5,3.3-3.3v-1.9h3.9c0.4,0,0.8-0.3,0.8-0.8v-1.2h7.8c0.3,1.6,1.8,2.9,3.5,2.9c2,0,3.6-1.6,3.6-3.6
			c0-2-1.6-3.6-3.6-3.6c-1.7,0-3.2,1.2-3.5,2.9h-7.8v-1.2c0-0.4-0.3-0.8-0.8-0.8h-3.9v-1.5h3.9c0.4,0,0.8-0.3,0.8-0.8v-1.1H103
			l6.9,4.9c0.1,0.1,0.3,0.1,0.4,0.1h12c0.3,1.6,1.8,2.9,3.5,2.9c2,0,3.6-1.6,3.6-3.6C129.5,74.6,127.9,73,125.9,73z M115.4,62.6
			c1.2,0,2.1,1,2.1,2.1c0,1.2-1,2.1-2.1,2.1c-1.2,0-2.1-1-2.1-2.1C113.3,63.6,114.2,62.6,115.4,62.6z M124.3,50.8
			c1.2,0,2.1,1,2.1,2.1c0,1.2-1,2.1-2.1,2.1c-1.2,0-2.1-1-2.1-2.1C122.2,51.7,123.1,50.8,124.3,50.8z M100.8,49c1.2,0,2.1,1,2.1,2.1
			c0,1.2-1,2.1-2.1,2.1c-1.2,0-2.1-1-2.1-2.1C98.7,49.9,99.7,49,100.8,49z M86.3,49.9h3.1v2.3h-3.1V49.9z M86.3,56.8h3.1v2.3h-3.1
			V56.8z M86.3,63.6h3.1v2.3h-3.1V63.6z M74.5,3.6c0-1.2,1-2.1,2.1-2.1c1.2,0,2.1,1,2.1,2.1c0,1.2-1,2.1-2.1,2.1
			C75.4,5.7,74.5,4.8,74.5,3.6z M50.8,5.2c0-1.2,1-2.1,2.1-2.1c1.2,0,2.1,1,2.1,2.1c0,1.2-1,2.1-2.1,2.1C51.7,7.3,50.8,6.4,50.8,5.2
			z M27.2,53.2c-1.2,0-2.1-1-2.1-2.1c0-1.2,1-2.1,2.1-2.1s2.1,1,2.1,2.1C29.4,52.3,28.4,53.2,27.2,53.2z M3.6,55
			c-1.2,0-2.1-1-2.1-2.1c0-1.2,1-2.1,2.1-2.1c1.2,0,2.1,1,2.1,2.1C5.7,54.1,4.8,55,3.6,55z M14.1,66.9c-1.2,0-2.1-1-2.1-2.1
			c0-1.2,1-2.1,2.1-2.1s2.1,1,2.1,2.1C16.2,65.9,15.3,66.9,14.1,66.9z M5.2,78.7c-1.2,0-2.1-1-2.1-2.1c0-1.2,1-2.1,2.1-2.1
			c1.2,0,2.1,1,2.1,2.1C7.3,77.8,6.4,78.7,5.2,78.7z M28.7,80.5c-1.2,0-2.1-1-2.1-2.1c0-1.2,1-2.1,2.1-2.1c1.2,0,2.1,1,2.1,2.1
			C30.8,79.6,29.8,80.5,28.7,80.5z M43.2,79.6h-3.1v-2.3h3.1V79.6z M43.2,72.7h-3.1v-2.3h3.1V72.7z M43.2,65.9h-3.1v-2.3h3.1V65.9z
			 M43.2,59.1h-3.1v-2.3h3.1V59.1z M43.2,52.3h-3.1v-2.3h3.1V52.3z M55,125.9c0,1.2-1,2.1-2.1,2.1c-1.2,0-2.1-1-2.1-2.1
			c0-1.2,1-2.1,2.1-2.1C54.1,123.8,55,124.7,55,125.9z M78.7,124.3c0,1.2-1,2.1-2.1,2.1c-1.2,0-2.1-1-2.1-2.1c0-1.2,1-2.1,2.1-2.1
			C77.8,122.2,78.7,123.1,78.7,124.3z M76.3,27.2c0-1.2,1-2.1,2.1-2.1c1.2,0,2.1,1,2.1,2.1c0,1.2-1,2.1-2.1,2.1
			C77.2,29.4,76.3,28.4,76.3,27.2z M77.2,40.1h2.3v3.1h-2.3V40.1z M70.4,40.1h2.3v3.1h-2.3V40.1z M62.6,14.1c0-1.2,1-2.1,2.1-2.1
			c1.2,0,2.1,1,2.1,2.1s-1,2.1-2.1,2.1C63.6,16.2,62.6,15.3,62.6,14.1z M63.6,40.1h2.3v3.1h-2.3V40.1z M56.8,40.1h2.3v3.1h-2.3V40.1
			z M49,28.7c0-1.2,1-2.1,2.1-2.1c1.2,0,2.1,1,2.1,2.1c0,1.2-1,2.1-2.1,2.1C49.9,30.8,49,29.8,49,28.7z M49.9,40.1h2.3v3.1h-2.3
			V40.1z M53.2,102.3c0,1.2-1,2.1-2.1,2.1c-1.2,0-2.1-1-2.1-2.1c0-1.2,1-2.1,2.1-2.1C52.3,100.1,53.2,101.1,53.2,102.3z M52.3,89.4
			h-2.3v-3.1h2.3V89.4z M59.1,89.4h-2.3v-3.1h2.3V89.4z M66.9,115.4c0,1.2-1,2.1-2.1,2.1c-1.2,0-2.1-1-2.1-2.1c0-1.2,1-2.1,2.1-2.1
			C65.9,113.3,66.9,114.2,66.9,115.4z M65.9,89.4h-2.3v-3.1h2.3V89.4z M72.7,89.4h-2.3v-3.1h2.3V89.4z M80.5,100.8
			c0,1.2-1,2.1-2.1,2.1c-1.2,0-2.1-1-2.1-2.1c0-1.2,1-2.1,2.1-2.1C79.6,98.7,80.5,99.7,80.5,100.8z M79.6,89.4h-2.3v-3.1h2.3V89.4z
			 M84.8,83c0,1-0.8,1.8-1.8,1.8H46.5c-1,0-1.8-0.8-1.8-1.8V46.5c0-1,0.8-1.8,1.8-1.8H83c1,0,1.8,0.8,1.8,1.8V83z M102.3,76.3
			c1.2,0,2.1,1,2.1,2.1c0,1.2-1,2.1-2.1,2.1c-1.2,0-2.1-1-2.1-2.1C100.1,77.2,101.1,76.3,102.3,76.3z M89.4,77.2v2.3h-3.1v-2.3H89.4
			z M89.4,72.7h-3.1v-2.3h3.1V72.7z M125.9,78.7c-1.2,0-2.1-1-2.1-2.1c0-1.2,1-2.1,2.1-2.1c1.2,0,2.1,1,2.1,2.1
			C128,77.8,127,78.7,125.9,78.7z"/>
		<g>
			<g>
				<path fill="#231F20" d="M35,10.6c-0.2,0-0.4-0.1-0.5-0.2c-0.3-0.3-0.3-0.8,0-1.1L35.7,8c0.3-0.3,0.8-0.3,1.1,0
					c0.3,0.3,0.3,0.8,0,1.1l-1.3,1.3C35.3,10.5,35.1,10.6,35,10.6z"/>
			</g>
			<g>
				<path fill="#231F20" d="M30.9,14.7c-0.2,0-0.4-0.1-0.5-0.2c-0.3-0.3-0.3-0.8,0-1.1l1.3-1.3c0.3-0.3,0.8-0.3,1.1,0
					c0.3,0.3,0.3,0.8,0,1.1l-1.3,1.3C31.3,14.6,31.1,14.7,30.9,14.7z"/>
			</g>
			<g>
				<path fill="#231F20" d="M36.3,14.7c-0.2,0-0.4-0.1-0.5-0.2l-1.3-1.3c-0.3-0.3-0.3-0.8,0-1.1c0.3-0.3,0.8-0.3,1.1,0l1.3,1.3
					c0.3,0.3,0.3,0.8,0,1.1C36.6,14.6,36.4,14.7,36.3,14.7z"/>
			</g>
			<g>
				<path fill="#231F20" d="M32.2,10.6c-0.2,0-0.4-0.1-0.5-0.2l-1.3-1.3c-0.3-0.3-0.3-0.8,0-1.1c0.3-0.3,0.8-0.3,1.1,0l1.3,1.3
					c0.3,0.3,0.3,0.8,0,1.1C32.6,10.5,32.4,10.6,32.2,10.6z"/>
			</g>
		</g>
		<g>
			<g>
				<path fill="#231F20" d="M100.8,120.3c-0.2,0-0.4-0.1-0.5-0.2c-0.3-0.3-0.3-0.8,0-1.1l1.3-1.3c0.3-0.3,0.8-0.3,1.1,0
					c0.3,0.3,0.3,0.8,0,1.1l-1.3,1.3C101.2,120.2,101,120.3,100.8,120.3z"/>
			</g>
			<g>
				<path fill="#231F20" d="M96.7,124.4c-0.2,0-0.4-0.1-0.5-0.2c-0.3-0.3-0.3-0.8,0-1.1l1.3-1.3c0.3-0.3,0.8-0.3,1.1,0
					c0.3,0.3,0.3,0.8,0,1.1l-1.3,1.3C97.1,124.3,96.9,124.4,96.7,124.4z"/>
			</g>
			<g>
				<path fill="#231F20" d="M102.1,124.4c-0.2,0-0.4-0.1-0.5-0.2l-1.3-1.3c-0.3-0.3-0.3-0.8,0-1.1c0.3-0.3,0.8-0.3,1.1,0l1.3,1.3
					c0.3,0.3,0.3,0.8,0,1.1C102.5,124.3,102.3,124.4,102.1,124.4z"/>
			</g>
			<g>
				<path fill="#231F20" d="M98,120.3c-0.2,0-0.4-0.1-0.5-0.2l-1.3-1.3c-0.3-0.3-0.3-0.8,0-1.1c0.3-0.3,0.8-0.3,1.1,0l1.3,1.3
					c0.3,0.3,0.3,0.8,0,1.1C98.4,120.2,98.2,120.3,98,120.3z"/>
			</g>
		</g>
		<g>
			<g>
				<path fill="#231F20" d="M119.4,16.4c-0.2,0-0.4-0.1-0.5-0.2c-0.3-0.3-0.3-0.8,0-1.1l1.3-1.3c0.3-0.3,0.8-0.3,1.1,0
					c0.3,0.3,0.3,0.8,0,1.1l-1.3,1.3C119.8,16.3,119.6,16.4,119.4,16.4z"/>
			</g>
			<g>
				<path fill="#231F20" d="M115.4,20.4c-0.2,0-0.4-0.1-0.5-0.2c-0.3-0.3-0.3-0.8,0-1.1l1.3-1.3c0.3-0.3,0.8-0.3,1.1,0
					c0.3,0.3,0.3,0.8,0,1.1l-1.3,1.3C115.8,20.3,115.6,20.4,115.4,20.4z"/>
			</g>
			<g>
				<path fill="#231F20" d="M120.7,20.4c-0.2,0-0.4-0.1-0.5-0.2l-1.3-1.3c-0.3-0.3-0.3-0.8,0-1.1c0.3-0.3,0.8-0.3,1.1,0l1.3,1.3
					c0.3,0.3,0.3,0.8,0,1.1C121.1,20.3,120.9,20.4,120.7,20.4z"/>
			</g>
			<g>
				<path fill="#231F20" d="M116.7,16.4c-0.2,0-0.4-0.1-0.5-0.2l-1.3-1.3c-0.3-0.3-0.3-0.8,0-1.1c0.3-0.3,0.8-0.3,1.1,0l1.3,1.3
					c0.3,0.3,0.3,0.8,0,1.1C117.1,16.3,116.9,16.4,116.7,16.4z"/>
			</g>
		</g>
		<g>
			<circle fill="#FF7058" cx="109.1" cy="35.5" r="2.6"/>
		</g>
		<g>
			<circle fill="#84DBFF" cx="17" cy="94.8" r="2.6"/>
		</g>
		<g>
			<circle fill="#84DBFF" cx="112.5" cy="92.2" r="2.6"/>
		</g>
		<g>
			<circle fill="#84DBFF" cx="31.5" cy="25.8" r="2.6"/>
		</g>
		<g>
			<circle fill="#4CDBC4" cx="11.2" cy="30.1" r="2.6"/>
		</g>
		<g>
			<circle fill="#FFD05B" cx="34" cy="110.6" r="1.9"/>
		</g>
		<g>
			<circle fill="#FFD05B" cx="101.4" cy="99.4" r="1.9"/>
		</g>
		<g>
			<circle fill="#FFD05B" cx="92.7" cy="16.5" r="2.1"/>
		</g>
	</g>
</g>
</svg>
