<?xml version="1.0" encoding="UTF-8"?>
<svg xmlns="http://www.w3.org/2000/svg" xmlns:xlink="http://www.w3.org/1999/xlink" width="200px" height="200px" viewBox="0 0 200 200" version="1.1">
<g id="surface1">
<path style=" stroke:none;fill-rule:nonzero;fill:rgb(90.196078%,91.372549%,93.333333%);fill-opacity:1;" d="M 114.132812 62.085938 L 160.773438 62.085938 L 160.773438 126.796875 L 114.132812 126.796875 Z M 114.132812 62.085938 "/>
<path style=" stroke:none;fill-rule:nonzero;fill:rgb(13.72549%,12.156863%,12.54902%);fill-opacity:1;" d="M 180.230469 16.988281 C 179.921875 16.988281 179.613281 16.832031 179.460938 16.679688 C 178.996094 16.214844 178.996094 15.445312 179.460938 14.980469 L 181.46875 12.972656 C 181.929688 12.507812 182.703125 12.507812 183.167969 12.972656 C 183.628906 13.4375 183.628906 14.207031 183.167969 14.671875 L 181.160156 16.679688 C 180.847656 16.988281 180.539062 16.988281 180.230469 16.988281 Z M 180.230469 16.988281 "/>
<path style=" stroke:none;fill-rule:nonzero;fill:rgb(13.72549%,12.156863%,12.54902%);fill-opacity:1;" d="M 173.898438 23.320312 C 173.589844 23.320312 173.28125 23.167969 173.128906 23.011719 C 172.664062 22.546875 172.664062 21.777344 173.128906 21.3125 L 175.136719 19.304688 C 175.597656 18.839844 176.371094 18.839844 176.832031 19.304688 C 177.296875 19.769531 177.296875 20.539062 176.832031 21.003906 L 174.828125 23.011719 C 174.515625 23.167969 174.207031 23.320312 173.898438 23.320312 Z M 173.898438 23.320312 "/>
<path style=" stroke:none;fill-rule:nonzero;fill:rgb(13.72549%,12.156863%,12.54902%);fill-opacity:1;" d="M 182.238281 23.320312 C 181.929688 23.320312 181.621094 23.167969 181.46875 23.011719 L 179.460938 21.003906 C 178.996094 20.539062 178.996094 19.769531 179.460938 19.304688 C 179.921875 18.839844 180.695312 18.839844 181.160156 19.304688 L 183.167969 21.3125 C 183.628906 21.777344 183.628906 22.546875 183.167969 23.011719 C 182.703125 23.167969 182.546875 23.320312 182.238281 23.320312 Z M 182.238281 23.320312 "/>
<path style=" stroke:none;fill-rule:nonzero;fill:rgb(13.72549%,12.156863%,12.54902%);fill-opacity:1;" d="M 175.90625 16.988281 C 175.597656 16.988281 175.289062 16.832031 175.136719 16.679688 L 173.128906 14.671875 C 172.664062 14.207031 172.664062 13.4375 173.128906 12.972656 C 173.589844 12.507812 174.363281 12.507812 174.828125 12.972656 L 176.832031 14.980469 C 177.296875 15.445312 177.296875 16.214844 176.832031 16.679688 C 176.523438 16.988281 176.214844 16.988281 175.90625 16.988281 Z M 175.90625 16.988281 "/>
<path style=" stroke:none;fill-rule:nonzero;fill:rgb(13.72549%,12.156863%,12.54902%);fill-opacity:1;" d="M 13.128906 8.804688 C 12.820312 8.804688 12.507812 8.648438 12.355469 8.496094 C 11.890625 8.03125 11.890625 7.257812 12.355469 6.796875 L 14.363281 4.789062 C 14.828125 4.324219 15.597656 4.324219 16.0625 4.789062 C 16.523438 5.25 16.523438 6.023438 16.0625 6.488281 L 13.898438 8.496094 C 13.746094 8.648438 13.4375 8.804688 13.128906 8.804688 Z M 13.128906 8.804688 "/>
<path style=" stroke:none;fill-rule:nonzero;fill:rgb(13.72549%,12.156863%,12.54902%);fill-opacity:1;" d="M 6.796875 14.980469 C 6.488281 14.980469 6.175781 14.980469 6.023438 14.671875 C 5.558594 14.207031 5.558594 13.4375 6.023438 12.972656 L 8.03125 10.964844 C 8.496094 10.5 9.265625 10.5 9.730469 10.964844 C 10.191406 11.429688 10.191406 12.199219 9.730469 12.664062 L 7.722656 14.671875 C 7.414062 14.980469 7.105469 14.980469 6.796875 14.980469 Z M 6.796875 14.980469 "/>
<path style=" stroke:none;fill-rule:nonzero;fill:rgb(13.72549%,12.156863%,12.54902%);fill-opacity:1;" d="M 15.136719 14.980469 C 14.828125 14.980469 14.515625 14.828125 14.363281 14.671875 L 12.355469 12.664062 C 11.890625 12.199219 11.890625 11.429688 12.355469 10.964844 C 12.820312 10.5 13.589844 10.5 14.054688 10.964844 L 16.0625 12.972656 C 16.523438 13.4375 16.523438 14.207031 16.0625 14.671875 C 15.753906 14.980469 15.445312 14.980469 15.136719 14.980469 Z M 15.136719 14.980469 "/>
<path style=" stroke:none;fill-rule:nonzero;fill:rgb(13.72549%,12.156863%,12.54902%);fill-opacity:1;" d="M 8.804688 8.804688 C 8.496094 8.804688 8.183594 8.648438 8.03125 8.496094 L 6.023438 6.488281 C 5.558594 6.023438 5.558594 5.25 6.023438 4.789062 C 6.488281 4.324219 7.257812 4.324219 7.722656 4.789062 L 9.730469 6.796875 C 10.191406 7.257812 10.191406 8.03125 9.730469 8.496094 C 9.421875 8.648438 9.113281 8.804688 8.804688 8.804688 Z M 8.804688 8.804688 "/>
<path style=" stroke:none;fill-rule:nonzero;fill:rgb(13.72549%,12.156863%,12.54902%);fill-opacity:1;" d="M 69.035156 159.691406 C 68.726562 159.691406 68.417969 159.535156 68.261719 159.382812 C 67.800781 158.917969 67.800781 158.148438 68.261719 157.683594 L 70.269531 155.675781 C 70.734375 155.210938 71.503906 155.210938 71.96875 155.675781 C 72.433594 156.140625 72.433594 156.910156 71.96875 157.375 L 69.960938 159.382812 C 69.652344 159.535156 69.34375 159.691406 69.035156 159.691406 Z M 69.035156 159.691406 "/>
<path style=" stroke:none;fill-rule:nonzero;fill:rgb(13.72549%,12.156863%,12.54902%);fill-opacity:1;" d="M 62.703125 165.867188 C 62.394531 165.867188 62.085938 165.714844 61.929688 165.558594 C 61.46875 165.097656 61.46875 164.324219 61.929688 163.859375 L 63.9375 161.851562 C 64.402344 161.390625 65.171875 161.390625 65.636719 161.851562 C 66.101562 162.316406 66.101562 163.089844 65.636719 163.550781 L 63.628906 165.558594 C 63.320312 165.867188 63.011719 165.867188 62.703125 165.867188 Z M 62.703125 165.867188 "/>
<path style=" stroke:none;fill-rule:nonzero;fill:rgb(13.72549%,12.156863%,12.54902%);fill-opacity:1;" d="M 71.042969 165.867188 C 70.734375 165.867188 70.425781 165.714844 70.269531 165.558594 L 68.261719 163.550781 C 67.800781 163.089844 67.800781 162.316406 68.261719 161.851562 C 68.726562 161.390625 69.5 161.390625 69.960938 161.851562 L 71.96875 163.859375 C 72.433594 164.324219 72.433594 165.097656 71.96875 165.558594 C 71.660156 165.867188 71.351562 165.867188 71.042969 165.867188 Z M 71.042969 165.867188 "/>
<path style=" stroke:none;fill-rule:nonzero;fill:rgb(13.72549%,12.156863%,12.54902%);fill-opacity:1;" d="M 64.710938 159.691406 C 64.402344 159.691406 64.09375 159.535156 63.9375 159.382812 L 61.929688 157.375 C 61.46875 156.910156 61.46875 156.140625 61.929688 155.675781 C 62.394531 155.210938 63.167969 155.210938 63.628906 155.675781 L 65.636719 157.683594 C 66.101562 158.148438 66.101562 158.917969 65.636719 159.382812 C 65.328125 159.535156 65.019531 159.691406 64.710938 159.691406 Z M 64.710938 159.691406 "/>
<path style=" stroke:none;fill-rule:nonzero;fill:rgb(100%,100%,100%);fill-opacity:1;" d="M 191.503906 168.957031 L 191.503906 175.90625 L 106.871094 175.90625 L 106.871094 69.1875 L 114.132812 69.1875 L 114.132812 168.957031 Z M 191.503906 168.957031 "/>
<path style=" stroke:none;fill-rule:nonzero;fill:rgb(100%,100%,100%);fill-opacity:1;" d="M 130.347656 13.898438 L 130.347656 36.449219 L 152.894531 36.449219 Z M 130.347656 13.898438 "/>
<path style=" stroke:none;fill-rule:nonzero;fill:rgb(90.196078%,91.372549%,93.333333%);fill-opacity:1;" d="M 133.28125 33.359375 L 133.28125 21.160156 L 145.636719 33.359375 Z M 133.28125 33.359375 "/>
<path style=" stroke:none;fill-rule:nonzero;fill:rgb(100%,100%,100%);fill-opacity:1;" d="M 68.261719 13.898438 L 68.261719 120.617188 L 152.894531 120.617188 L 152.894531 36.449219 L 130.347656 36.449219 L 130.347656 13.898438 Z M 68.261719 13.898438 "/>
<path style=" stroke:none;fill-rule:nonzero;fill:rgb(100%,100%,100%);fill-opacity:1;" d="M 82.625 136.679688 L 68.261719 136.679688 C 66.101562 136.679688 64.246094 134.828125 64.246094 132.664062 C 64.246094 130.5 66.101562 128.648438 68.261719 128.648438 L 82.625 128.648438 C 84.789062 128.648438 86.640625 130.5 86.640625 132.664062 C 86.640625 134.828125 84.789062 136.679688 82.625 136.679688 Z M 82.625 136.679688 "/>
<path style=" stroke:none;fill-rule:nonzero;fill:rgb(100%,100%,100%);fill-opacity:1;" d="M 86.332031 128.648438 L 66.71875 128.648438 C 64.554688 128.648438 62.703125 126.796875 62.703125 124.632812 C 62.703125 122.472656 64.554688 120.617188 66.71875 120.617188 L 86.332031 120.617188 C 88.496094 120.617188 90.347656 122.472656 90.347656 124.632812 C 90.347656 126.796875 88.496094 128.648438 86.332031 128.648438 Z M 86.332031 128.648438 "/>
<path style=" stroke:none;fill-rule:nonzero;fill:rgb(100%,100%,100%);fill-opacity:1;" d="M 47.257812 116.757812 C 52.820312 116.757812 57.296875 112.277344 57.296875 106.71875 L 77.066406 106.71875 C 82.316406 106.71875 86.640625 102.394531 86.640625 97.144531 L 43.242188 97.144531 L 33.667969 105.484375 L 23.785156 105.484375 "/>
<path style=" stroke:none;fill-rule:nonzero;fill:rgb(100%,100%,100%);fill-opacity:1;" d="M 13.746094 100.230469 L 23.628906 100.230469 L 23.628906 138.222656 L 13.746094 138.222656 Z M 13.746094 100.230469 "/>
<path style=" stroke:none;fill-rule:nonzero;fill:rgb(51.764706%,85.882353%,100%);fill-opacity:1;" d="M 0 143.011719 L 13.746094 143.011719 L 13.746094 95.597656 L 0 95.597656 "/>
<path style=" stroke:none;fill-rule:nonzero;fill:rgb(100%,100%,100%);fill-opacity:1;" d="M 72.585938 60.847656 C 73.824219 54.671875 73.359375 48.183594 70.886719 42.007812 C 64.09375 25.019531 44.789062 16.679688 27.800781 23.476562 C 10.8125 30.269531 2.472656 49.421875 9.265625 66.5625 C 16.0625 83.550781 35.367188 91.890625 52.355469 85.097656 C 58.53125 82.625 63.628906 78.457031 67.179688 73.359375 L 83.242188 72.742188 Z M 72.585938 60.847656 "/>
<path style=" stroke:none;fill-rule:nonzero;fill:rgb(100%,100%,100%);fill-opacity:1;" d="M 176.214844 62.085938 L 176.214844 84.632812 L 198.765625 84.632812 Z M 176.214844 62.085938 "/>
<path style=" stroke:none;fill-rule:nonzero;fill:rgb(13.72549%,12.156863%,12.54902%);fill-opacity:1;" d="M 199.691406 83.859375 L 177.144531 61.3125 C 176.988281 61.160156 176.679688 61.003906 176.371094 61.003906 L 154.132812 61.003906 L 154.132812 36.449219 C 154.132812 36.140625 153.976562 35.832031 153.824219 35.675781 L 131.121094 12.972656 C 130.964844 12.820312 130.65625 12.664062 130.347656 12.664062 L 68.261719 12.664062 C 67.644531 12.664062 67.027344 13.128906 67.027344 13.898438 L 67.027344 33.050781 C 60.695312 24.863281 50.8125 19.921875 40 19.921875 C 35.675781 19.921875 31.351562 20.695312 27.335938 22.394531 C 18.839844 25.792969 12.046875 32.277344 8.496094 40.773438 C 4.789062 49.265625 4.789062 58.53125 8.183594 67.027344 C 13.4375 80.15625 25.945312 88.648438 40.15625 88.648438 C 44.480469 88.648438 48.804688 87.875 52.820312 86.175781 C 58.53125 83.859375 63.320312 80.15625 67.179688 75.367188 L 67.179688 95.90625 L 43.242188 95.90625 C 42.933594 95.90625 42.625 96.0625 42.472656 96.214844 L 33.203125 104.246094 L 24.863281 104.246094 L 24.863281 100.230469 C 24.863281 99.613281 24.402344 98.996094 23.628906 98.996094 L 14.828125 98.996094 L 14.828125 95.445312 C 14.828125 94.828125 14.363281 94.207031 13.589844 94.207031 L 0 94.207031 L 0 96.523438 L 12.507812 96.523438 L 12.507812 141.46875 L 0 141.46875 L 0 143.785156 L 13.746094 143.785156 C 14.363281 143.785156 14.980469 143.320312 14.980469 142.546875 L 14.980469 138.996094 L 23.785156 138.996094 C 24.402344 138.996094 25.019531 138.53125 25.019531 137.761719 L 25.019531 132.972656 L 36.140625 132.972656 L 40 136.832031 C 40.15625 136.988281 40.464844 137.144531 40.773438 137.144531 L 82.625 137.144531 C 85.40625 137.144531 87.722656 134.828125 87.722656 132.046875 C 87.722656 130.964844 87.414062 130.039062 86.796875 129.113281 C 89.421875 128.804688 91.429688 126.640625 91.429688 124.015625 C 91.429688 122.933594 91.121094 122.007812 90.65625 121.234375 L 105.636719 121.234375 L 105.636719 175.289062 C 105.636719 175.90625 106.101562 176.523438 106.871094 176.523438 L 191.503906 176.523438 C 192.125 176.523438 192.742188 176.0625 192.742188 175.289062 L 192.742188 169.421875 L 198.917969 169.421875 C 199.535156 169.421875 200.15625 168.957031 200.15625 168.183594 L 200.15625 84.632812 C 200 84.324219 199.84375 84.015625 199.691406 83.859375 Z M 22.546875 137.144531 L 14.828125 137.144531 L 14.828125 101.46875 L 22.394531 101.46875 L 22.394531 137.144531 Z M 177.453125 64.863281 L 196.140625 83.550781 L 177.453125 83.550781 Z M 131.429688 16.679688 L 150.117188 35.367188 L 131.429688 35.367188 Z M 66.253906 72.742188 C 62.703125 77.835938 57.761719 81.699219 51.890625 84.015625 C 48.03125 85.558594 44.167969 86.332031 40 86.332031 C 26.71875 86.332031 15.136719 78.457031 10.191406 66.101562 C 6.949219 58.070312 7.105469 49.421875 10.5 41.542969 C 13.898438 33.667969 20.078125 27.644531 28.109375 24.402344 C 31.96875 22.855469 35.832031 22.085938 40 22.085938 C 53.28125 22.085938 64.863281 29.960938 69.808594 42.316406 C 72.125 48.183594 72.742188 54.363281 71.503906 60.539062 C 71.503906 60.847656 71.503906 61.3125 71.816406 61.46875 L 80.773438 71.660156 L 67.179688 72.125 C 66.871094 72.277344 66.5625 72.433594 66.253906 72.742188 Z M 63.9375 135.445312 L 41.234375 135.445312 L 37.375 131.582031 C 37.066406 131.273438 36.757812 131.273438 36.449219 131.273438 L 24.863281 131.273438 L 24.863281 106.71875 L 33.667969 106.71875 C 33.976562 106.71875 34.285156 106.5625 34.441406 106.410156 L 43.707031 98.378906 L 85.40625 98.378906 C 84.789062 102.546875 81.234375 105.636719 77.066406 105.636719 L 57.296875 105.636719 C 56.679688 105.636719 56.0625 106.101562 56.0625 106.871094 C 56.0625 111.816406 52.046875 115.675781 47.257812 115.675781 C 46.640625 115.675781 46.023438 116.140625 46.023438 116.910156 C 46.023438 117.527344 46.488281 118.148438 47.257812 118.148438 C 52.972656 118.148438 57.761719 113.667969 58.378906 108.109375 L 67.179688 108.109375 L 67.179688 119.691406 L 66.871094 119.691406 C 64.09375 119.691406 61.777344 122.007812 61.777344 124.789062 C 61.777344 126.796875 62.855469 128.496094 64.554688 129.421875 C 63.785156 130.347656 63.167969 131.582031 63.167969 132.820312 C 63.011719 133.746094 63.320312 134.671875 63.9375 135.445312 Z M 82.625 135.445312 L 68.261719 135.445312 C 66.71875 135.445312 65.484375 134.207031 65.484375 132.664062 C 65.484375 131.121094 66.71875 129.882812 68.261719 129.882812 L 82.625 129.882812 C 84.167969 129.882812 85.40625 131.121094 85.40625 132.664062 C 85.40625 134.207031 84.167969 135.445312 82.625 135.445312 Z M 86.332031 127.414062 L 66.71875 127.414062 C 65.171875 127.414062 63.9375 126.175781 63.9375 124.632812 C 63.9375 123.089844 65.171875 121.851562 66.71875 121.851562 L 86.796875 121.851562 C 88.183594 122.007812 89.113281 123.242188 89.113281 124.632812 C 89.113281 126.175781 87.875 127.414062 86.332031 127.414062 Z M 86.796875 119.535156 C 86.640625 119.535156 86.488281 119.535156 86.332031 119.535156 L 69.5 119.535156 L 69.5 107.953125 L 77.066406 107.953125 C 83.089844 107.953125 87.875 103.167969 87.875 97.144531 C 87.875 96.523438 87.414062 95.90625 86.640625 95.90625 L 69.5 95.90625 L 69.5 74.441406 L 83.398438 73.976562 C 83.859375 73.976562 84.324219 73.667969 84.480469 73.203125 C 84.632812 72.742188 84.632812 72.277344 84.324219 71.96875 L 74.132812 60.386719 C 75.367188 54.054688 74.59375 47.414062 72.277344 41.390625 C 71.503906 39.535156 70.734375 37.835938 69.652344 36.292969 L 69.652344 14.980469 L 129.421875 14.980469 L 129.421875 36.449219 C 129.421875 37.066406 129.882812 37.683594 130.65625 37.683594 L 152.125 37.683594 L 152.125 119.535156 Z M 190.269531 174.671875 L 107.953125 174.671875 L 107.953125 121.851562 L 112.894531 121.851562 L 112.894531 168.957031 C 112.894531 169.574219 113.359375 170.191406 114.132812 170.191406 L 190.269531 170.191406 Z M 197.683594 167.722656 L 115.367188 167.722656 L 115.367188 121.851562 L 152.894531 121.851562 C 153.511719 121.851562 154.132812 121.390625 154.132812 120.617188 L 154.132812 63.320312 L 175.136719 63.320312 L 175.136719 84.789062 C 175.136719 85.40625 175.597656 86.023438 176.371094 86.023438 L 197.683594 86.023438 Z M 197.683594 167.722656 "/>
<path style=" stroke:none;fill-rule:nonzero;fill:rgb(51.764706%,85.882353%,100%);fill-opacity:1;" d="M 181.003906 43.242188 C 181.003906 45.121094 179.484375 46.640625 177.605469 46.640625 C 175.730469 46.640625 174.207031 45.121094 174.207031 43.242188 C 174.207031 41.367188 175.730469 39.84375 177.605469 39.84375 C 179.484375 39.84375 181.003906 41.367188 181.003906 43.242188 Z M 181.003906 43.242188 "/>
<path style=" stroke:none;fill-rule:nonzero;fill:rgb(90.196078%,91.372549%,93.333333%);fill-opacity:1;" d="M 179.304688 81.699219 L 179.304688 69.5 L 191.503906 81.699219 Z M 179.304688 81.699219 "/>
<path style=" stroke:none;fill-rule:nonzero;fill:rgb(100%,81.568627%,35.686275%);fill-opacity:1;" d="M 34.59375 152.894531 C 34.59375 154.429688 33.351562 155.675781 31.816406 155.675781 C 30.28125 155.675781 29.035156 154.429688 29.035156 152.894531 C 29.035156 151.359375 30.28125 150.117188 31.816406 150.117188 C 33.351562 150.117188 34.59375 151.359375 34.59375 152.894531 Z M 34.59375 152.894531 "/>
<path style=" stroke:none;fill-rule:nonzero;fill:rgb(90.196078%,91.372549%,93.333333%);fill-opacity:1;" d="M 93.128906 147.492188 C 93.128906 149.027344 91.882812 150.269531 90.347656 150.269531 C 88.8125 150.269531 87.566406 149.027344 87.566406 147.492188 C 87.566406 145.953125 88.8125 144.710938 90.347656 144.710938 C 91.882812 144.710938 93.128906 145.953125 93.128906 147.492188 Z M 93.128906 147.492188 "/>
<path style=" stroke:none;fill-rule:nonzero;fill:rgb(100%,43.921569%,34.509804%);fill-opacity:1;" d="M 93.898438 192.125 C 93.898438 194.085938 92.308594 195.675781 90.347656 195.675781 C 88.386719 195.675781 86.796875 194.085938 86.796875 192.125 C 86.796875 190.160156 88.386719 188.570312 90.347656 188.570312 C 92.308594 188.570312 93.898438 190.160156 93.898438 192.125 Z M 93.898438 192.125 "/>
<path style=" stroke:none;fill-rule:nonzero;fill:rgb(51.764706%,85.882353%,100%);fill-opacity:1;" d="M 175.445312 185.019531 C 175.445312 186.980469 173.855469 188.570312 171.890625 188.570312 C 169.929688 188.570312 168.339844 186.980469 168.339844 185.019531 C 168.339844 183.058594 169.929688 181.46875 171.890625 181.46875 C 173.855469 181.46875 175.445312 183.058594 175.445312 185.019531 Z M 175.445312 185.019531 "/>
<path style=" stroke:none;fill-rule:nonzero;fill:rgb(100%,43.921569%,34.509804%);fill-opacity:1;" d="M 56.988281 8.804688 C 56.988281 10.851562 55.328125 12.507812 53.28125 12.507812 C 51.234375 12.507812 49.574219 10.851562 49.574219 8.804688 C 49.574219 6.757812 51.234375 5.097656 53.28125 5.097656 C 55.328125 5.097656 56.988281 6.757812 56.988281 8.804688 Z M 56.988281 8.804688 "/>
<path style=" stroke:none;fill-rule:nonzero;fill:rgb(90.196078%,91.372549%,93.333333%);fill-opacity:1;" d="M 66.71875 54.207031 C 66.71875 68.964844 54.757812 80.925781 40 80.925781 C 25.242188 80.925781 13.28125 68.964844 13.28125 54.207031 C 13.28125 39.453125 25.242188 27.492188 40 27.492188 C 54.757812 27.492188 66.71875 39.453125 66.71875 54.207031 Z M 66.71875 54.207031 "/>
<path style=" stroke:none;fill-rule:nonzero;fill:rgb(13.72549%,12.156863%,12.54902%);fill-opacity:1;" d="M 23.167969 45.25 L 56.214844 45.25 L 56.214844 47.566406 L 23.167969 47.566406 Z M 23.167969 45.25 "/>
<path style=" stroke:none;fill-rule:nonzero;fill:rgb(13.72549%,12.156863%,12.54902%);fill-opacity:1;" d="M 23.167969 50.65625 L 56.214844 50.65625 L 56.214844 52.972656 L 23.167969 52.972656 Z M 23.167969 50.65625 "/>
<path style=" stroke:none;fill-rule:nonzero;fill:rgb(13.72549%,12.156863%,12.54902%);fill-opacity:1;" d="M 23.167969 56.0625 L 56.214844 56.0625 L 56.214844 58.378906 L 23.167969 58.378906 Z M 23.167969 56.0625 "/>
<path style=" stroke:none;fill-rule:nonzero;fill:rgb(13.72549%,12.156863%,12.54902%);fill-opacity:1;" d="M 23.167969 61.46875 L 47.566406 61.46875 L 47.566406 63.785156 L 23.167969 63.785156 Z M 23.167969 61.46875 "/>
<path style=" stroke:none;fill-rule:nonzero;fill:rgb(13.72549%,12.156863%,12.54902%);fill-opacity:1;" d="M 129.730469 131.429688 L 183.320312 131.429688 L 183.320312 133.746094 L 129.730469 133.746094 Z M 129.730469 131.429688 "/>
<path style=" stroke:none;fill-rule:nonzero;fill:rgb(13.72549%,12.156863%,12.54902%);fill-opacity:1;" d="M 129.730469 136.832031 L 183.320312 136.832031 L 183.320312 139.152344 L 129.730469 139.152344 Z M 129.730469 136.832031 "/>
<path style=" stroke:none;fill-rule:nonzero;fill:rgb(13.72549%,12.156863%,12.54902%);fill-opacity:1;" d="M 129.730469 142.238281 L 183.320312 142.238281 L 183.320312 144.554688 L 129.730469 144.554688 Z M 129.730469 142.238281 "/>
<path style=" stroke:none;fill-rule:nonzero;fill:rgb(13.72549%,12.156863%,12.54902%);fill-opacity:1;" d="M 129.730469 147.800781 L 169.265625 147.800781 L 169.265625 150.117188 L 129.730469 150.117188 Z M 129.730469 147.800781 "/>
<path style=" stroke:none;fill-rule:nonzero;fill:rgb(100%,81.568627%,35.686275%);fill-opacity:1;" d="M 115.832031 62.085938 L 122.007812 74.441406 L 135.753906 76.449219 L 125.714844 86.175781 L 128.183594 99.769531 L 115.832031 93.4375 L 103.628906 99.769531 L 105.945312 86.175781 L 96.0625 76.449219 L 109.652344 74.441406 Z M 115.832031 62.085938 "/>
<path style=" stroke:none;fill-rule:nonzero;fill:rgb(13.72549%,12.156863%,12.54902%);fill-opacity:1;" d="M 128.183594 101.003906 C 128.03125 101.003906 127.875 101.003906 127.566406 100.847656 L 115.832031 94.671875 L 104.09375 100.847656 C 103.628906 101.003906 103.167969 101.003906 102.855469 100.695312 C 102.546875 100.386719 102.394531 99.921875 102.394531 99.613281 L 104.554688 86.640625 L 95.136719 77.375 C 94.828125 77.066406 94.671875 76.601562 94.828125 76.140625 C 94.980469 75.675781 95.289062 75.367188 95.753906 75.367188 L 108.878906 73.511719 L 114.75 61.621094 C 115.210938 60.847656 116.449219 60.847656 116.910156 61.621094 L 122.78125 73.511719 L 135.90625 75.367188 C 136.371094 75.367188 136.679688 75.675781 136.832031 76.140625 C 136.988281 76.601562 136.832031 77.066406 136.523438 77.375 L 127.105469 86.640625 L 129.265625 99.613281 C 129.265625 100.078125 129.113281 100.539062 128.804688 100.695312 C 128.648438 100.847656 128.339844 101.003906 128.183594 101.003906 Z M 115.832031 92.199219 C 115.984375 92.199219 116.140625 92.199219 116.449219 92.355469 L 126.640625 97.761719 L 124.632812 86.488281 C 124.632812 86.175781 124.632812 85.714844 124.941406 85.40625 L 133.128906 77.375 L 121.851562 75.675781 C 121.542969 75.675781 121.082031 75.367188 120.925781 75.058594 L 115.832031 64.710938 L 110.734375 75.058594 C 110.578125 75.367188 110.269531 75.675781 109.808594 75.675781 L 98.378906 77.375 L 106.5625 85.40625 C 106.871094 85.714844 107.027344 86.023438 106.871094 86.488281 L 104.863281 97.761719 L 115.058594 92.355469 C 115.519531 92.199219 115.675781 92.199219 115.832031 92.199219 Z M 115.832031 92.199219 "/>
</g>
</svg>
