<?xml version="1.0" encoding="utf-8"?>
<!-- Generator: Adobe Illustrator 18.0.0, SVG Export Plug-In . SVG Version: 6.00 Build 0)  -->
<!DOCTYPE svg PUBLIC "-//W3C//DTD SVG 1.1//EN" "http://www.w3.org/Graphics/SVG/1.1/DTD/svg11.dtd">
<svg version="1.1" id="Layer_1" xmlns="http://www.w3.org/2000/svg" xmlns:xlink="http://www.w3.org/1999/xlink" x="0px" y="0px"
	 viewBox="0 0 129.5 129.5" enable-background="new 0 0 129.5 129.5" xml:space="preserve">
<g>
	<g>
		<g>
			<g>
				<path fill="#231F20" d="M119.5,14.4c-0.2,0-0.4-0.1-0.5-0.2c-0.3-0.3-0.3-0.8,0-1.1l1.3-1.3c0.3-0.3,0.8-0.3,1.1,0
					c0.3,0.3,0.3,0.8,0,1.1l-1.3,1.3C119.9,14.4,119.7,14.4,119.5,14.4z"/>
			</g>
			<g>
				<path fill="#231F20" d="M115.4,18.5c-0.2,0-0.4-0.1-0.5-0.2c-0.3-0.3-0.3-0.8,0-1.1l1.3-1.3c0.3-0.3,0.8-0.3,1.1,0
					c0.3,0.3,0.3,0.8,0,1.1l-1.3,1.3C115.8,18.4,115.6,18.5,115.4,18.5z"/>
			</g>
			<g>
				<path fill="#231F20" d="M120.8,18.5c-0.2,0-0.4-0.1-0.5-0.2l-1.3-1.3c-0.3-0.3-0.3-0.8,0-1.1c0.3-0.3,0.8-0.3,1.1,0l1.3,1.3
					c0.3,0.3,0.3,0.8,0,1.1C121.1,18.4,120.9,18.5,120.8,18.5z"/>
			</g>
			<g>
				<path fill="#231F20" d="M116.7,14.4c-0.2,0-0.4-0.1-0.5-0.2l-1.3-1.3c-0.3-0.3-0.3-0.8,0-1.1c0.3-0.3,0.8-0.3,1.1,0l1.3,1.3
					c0.3,0.3,0.3,0.8,0,1.1C117.1,14.4,116.9,14.4,116.7,14.4z"/>
			</g>
		</g>
		<g>
			<g>
				<path fill="#231F20" d="M13.7,61c-0.2,0-0.4-0.1-0.5-0.2c-0.3-0.3-0.3-0.8,0-1.1l1.3-1.3c0.3-0.3,0.8-0.3,1.1,0s0.3,0.8,0,1.1
					l-1.3,1.3C14.1,60.9,13.9,61,13.7,61z"/>
			</g>
			<g>
				<path fill="#231F20" d="M9.7,65c-0.2,0-0.4-0.1-0.5-0.2c-0.3-0.3-0.3-0.8,0-1.1l1.3-1.3c0.3-0.3,0.8-0.3,1.1,0
					c0.3,0.3,0.3,0.8,0,1.1l-1.3,1.3C10.1,64.9,9.9,65,9.7,65z"/>
			</g>
			<g>
				<path fill="#231F20" d="M15,65c-0.2,0-0.4-0.1-0.5-0.2l-1.3-1.3c-0.3-0.3-0.3-0.8,0-1.1c0.3-0.3,0.8-0.3,1.1,0l1.3,1.3
					c0.3,0.3,0.3,0.8,0,1.1C15.4,64.9,15.2,65,15,65z"/>
			</g>
			<g>
				<path fill="#231F20" d="M11,61c-0.2,0-0.4-0.1-0.5-0.2l-1.3-1.3c-0.3-0.3-0.3-0.8,0-1.1s0.8-0.3,1.1,0l1.3,1.3
					c0.3,0.3,0.3,0.8,0,1.1C11.4,60.9,11.2,61,11,61z"/>
			</g>
		</g>
		<g>
			<g>
				<path fill="#231F20" d="M118.5,63.6c-0.2,0-0.4-0.1-0.5-0.2c-0.3-0.3-0.3-0.8,0-1.1l1.3-1.3c0.3-0.3,0.8-0.3,1.1,0
					c0.3,0.3,0.3,0.8,0,1.1l-1.3,1.3C118.9,63.5,118.7,63.6,118.5,63.6z"/>
			</g>
			<g>
				<path fill="#231F20" d="M114.5,67.6c-0.2,0-0.4-0.1-0.5-0.2c-0.3-0.3-0.3-0.8,0-1.1l1.3-1.3c0.3-0.3,0.8-0.3,1.1,0
					c0.3,0.3,0.3,0.8,0,1.1l-1.3,1.3C114.9,67.6,114.7,67.6,114.5,67.6z"/>
			</g>
			<g>
				<path fill="#231F20" d="M119.8,67.6c-0.2,0-0.4-0.1-0.5-0.2l-1.3-1.3c-0.3-0.3-0.3-0.8,0-1.1c0.3-0.3,0.8-0.3,1.1,0l1.3,1.3
					c0.3,0.3,0.3,0.8,0,1.1C120.2,67.6,120,67.6,119.8,67.6z"/>
			</g>
			<g>
				<path fill="#231F20" d="M115.8,63.6c-0.2,0-0.4-0.1-0.5-0.2l-1.3-1.3c-0.3-0.3-0.3-0.8,0-1.1c0.3-0.3,0.8-0.3,1.1,0l1.3,1.3
					c0.3,0.3,0.3,0.8,0,1.1C116.2,63.5,116,63.6,115.8,63.6z"/>
			</g>
		</g>
		<g>
			<polygon fill="#E6E9EE" points="104.9,17.2 96.7,66.5 96.8,17.2 			"/>
		</g>
		<g>
			<polygon fill="#E6E9EE" points="24.3,17.2 32.4,66.5 32.4,17.2 			"/>
		</g>
		<rect x="9.1" y="28.1" fill="#FFFFFF" width="111.8" height="7.1"/>
		<polygon fill="#FFFFFF" points="9.1,28.1 0.8,31.6 9.1,35.2 		"/>
		<path fill="#FFFFFF" d="M128.8,29.2v5c0,0.6-0.5,1.1-1.1,1.1h-6.8v-7.1h6.8C128.3,28.1,128.8,28.6,128.8,29.2z"/>
		<g>
			<rect x="25.5" y="81.9" fill="#E6E9EE" width="7.2" height="4.7"/>
		</g>
		<g>
			<rect x="34.4" y="81.9" fill="#E6E9EE" width="7.2" height="4.7"/>
		</g>
		<g>
			<rect x="43.2" y="81.9" fill="#E6E9EE" width="7.2" height="4.7"/>
		</g>
		<g>
			<rect x="52.1" y="81.9" fill="#E6E9EE" width="7.2" height="4.7"/>
		</g>
		<g>
			<rect x="69.8" y="81.9" fill="#E6E9EE" width="7.2" height="4.7"/>
		</g>
		<g>
			<rect x="78.8" y="81.9" fill="#E6E9EE" width="7.2" height="4.7"/>
		</g>
		<g>
			<rect x="87.8" y="81.9" fill="#E6E9EE" width="7.2" height="4.7"/>
		</g>
		<g>
			<rect x="96.8" y="81.9" fill="#E6E9EE" width="7.2" height="4.7"/>
		</g>
		<g>
			<rect x="61" y="81.9" fill="#E6E9EE" width="7.2" height="4.7"/>
		</g>
		<g>
			<rect x="29.9" y="75.5" fill="#E6E9EE" width="7.2" height="4.7"/>
		</g>
		<g>
			<rect x="38.8" y="75.5" fill="#E6E9EE" width="7.2" height="4.7"/>
		</g>
		<g>
			<rect x="47.7" y="75.5" fill="#E6E9EE" width="7.2" height="4.7"/>
		</g>
		<g>
			<rect x="65.4" y="75.5" fill="#E6E9EE" width="7.2" height="4.7"/>
		</g>
		<g>
			<rect x="74.4" y="75.5" fill="#E6E9EE" width="7.2" height="4.7"/>
		</g>
		<g>
			<rect x="83.4" y="75.5" fill="#E6E9EE" width="7.2" height="4.7"/>
		</g>
		<g>
			<rect x="92.3" y="75.5" fill="#E6E9EE" width="7.2" height="4.7"/>
		</g>
		<g>
			<rect x="56.5" y="75.5" fill="#E6E9EE" width="7.2" height="4.7"/>
		</g>
		<g>
			<rect x="29.9" y="88.1" fill="#E6E9EE" width="7.2" height="4.7"/>
		</g>
		<g>
			<rect x="38.8" y="88.1" fill="#E6E9EE" width="7.2" height="4.7"/>
		</g>
		<g>
			<rect x="47.7" y="88.1" fill="#E6E9EE" width="7.2" height="4.7"/>
		</g>
		<g>
			<rect x="65.4" y="88.1" fill="#E6E9EE" width="7.2" height="4.7"/>
		</g>
		<g>
			<rect x="74.4" y="88.1" fill="#E6E9EE" width="7.2" height="4.7"/>
		</g>
		<g>
			<rect x="83.4" y="88.1" fill="#E6E9EE" width="7.2" height="4.7"/>
		</g>
		<g>
			<rect x="92.3" y="88.1" fill="#E6E9EE" width="7.2" height="4.7"/>
		</g>
		<g>
			<rect x="56.5" y="88.1" fill="#E6E9EE" width="7.2" height="4.7"/>
		</g>
		<g>
			<rect x="51.3" y="94.8" fill="#E6E9EE" width="24.6" height="10.3"/>
		</g>
		<path fill="#FFFFFF" d="M102.3,88.6c-1.7-0.2-3.1,1.2-3.1,2.8V87c0-1.5-1.1-2.8-2.5-2.9c-1.7-0.2-3.1,1.2-3.1,2.8V83
			c0-1.7-1.4-3-3.1-2.8c-1.5,0.1-2.5,1.5-2.5,2.9l0,3.5c0-1.7-1.4-3-3.1-2.8c-1.5,0.1-2.5,1.5-2.5,2.9v12.1c0-1.7-1.4-3-3.1-2.8
			c-1.5,0.1-2.5,1.5-2.5,2.9v8.5c0,4,1.8,7.8,5,10.3c2.2,1.8,3.5,4.5,3.5,7.3v3.6h17.4v-4.1c0-1.4,0.1-2.8,0.4-4.1l1.7-5.7
			c0.2-1.4,0.4-2.8,0.4-4.1V91.5C104.9,90.1,103.8,88.7,102.3,88.6z"/>
		<path fill="#FFFFFF" d="M27.2,88.6c1.7-0.2,3.1,1.2,3.1,2.8V87c0-1.5,1.1-2.8,2.5-2.9c1.7-0.2,3.1,1.2,3.1,2.8V83
			c0-1.7,1.4-3,3.1-2.8c1.5,0.1,2.5,1.5,2.5,2.9l0,3.5c0-1.7,1.4-3,3.1-2.8c1.5,0.1,2.5,1.5,2.5,2.9v12.1c0-1.7,1.4-3,3.1-2.8
			c1.5,0.1,2.5,1.5,2.5,2.9v8.5c0,4-1.8,7.8-5,10.3c-2.2,1.8-3.5,4.5-3.5,7.3v3.6H27v-4.1c0-1.4-0.1-2.8-0.4-4.1l-1.7-5.7
			c-0.2-1.4-0.4-2.8-0.4-4.1V91.5C24.6,90.1,25.7,88.7,27.2,88.6z"/>
		<g>
			<path fill="#FFFFFF" d="M96.7,66.5V2.6c0-1-0.8-1.7-1.7-1.7H34.5c-1,0-1.7,0.8-1.7,1.7v63.9H96.7z"/>
		</g>
		<g>
			<path fill="#E6E9EE" d="M96.7,15.1V2.6c0-1-0.8-1.7-1.7-1.7H34.5c-1,0-1.7,0.8-1.7,1.7v12.4H96.7z"/>
		</g>
		<g>
			<path fill="#54C0EB" d="M96.7,2.6v5H50.3l-1.2-3.4H39l-1.2,3.4h-5v-5c0-1,0.8-1.7,1.7-1.7H95C95.9,0.9,96.7,1.7,96.7,2.6z"/>
		</g>
		<g>
			<circle fill="#FF7058" cx="92.1" cy="4.3" r="1.6"/>
		</g>
		<g>
			<circle fill="#FFD05B" cx="87.6" cy="4.3" r="1.6"/>
		</g>
		<g>
			<circle fill="#E6E9EE" cx="83.3" cy="4.3" r="1.6"/>
		</g>
		<g>
			<polygon fill="#CED5E0" points="62.8,7.6 50.3,7.6 51.5,4.3 61.6,4.3 			"/>
		</g>
		<g>
			<rect x="41.2" y="9.4" fill="#FFFFFF" width="45.7" height="4.1"/>
		</g>
		<g>
			<path fill="#324A5E" d="M42.5,10.5h0.2v0.8h0c0-0.1,0.1-0.1,0.2-0.2c0.1,0,0.2-0.1,0.2-0.1c0.2,0,0.5,0.1,0.5,0.6v0.8h-0.2v-0.7
				c0-0.2-0.1-0.4-0.3-0.4c-0.2,0-0.3,0.1-0.3,0.2c0,0,0,0.1,0,0.1v0.8h-0.2V10.5z"/>
			<path fill="#324A5E" d="M44.2,10.7v0.4h0.3v0.2h-0.3v0.7c0,0.2,0,0.3,0.2,0.3c0.1,0,0.1,0,0.1,0l0,0.2c0,0-0.1,0-0.2,0
				c-0.1,0-0.2,0-0.3-0.1C44,12.2,44,12.1,44,11.9v-0.7h-0.2v-0.2H44v-0.3L44.2,10.7z"/>
			<path fill="#324A5E" d="M45.1,10.7v0.4h0.3v0.2h-0.3v0.7c0,0.2,0,0.3,0.2,0.3c0.1,0,0.1,0,0.1,0l0,0.2c0,0-0.1,0-0.2,0
				c-0.1,0-0.2,0-0.3-0.1c-0.1-0.1-0.1-0.2-0.1-0.3v-0.7h-0.2v-0.2h0.2v-0.3L45.1,10.7z"/>
			<path fill="#324A5E" d="M45.7,11.5c0-0.2,0-0.3,0-0.4h0.2l0,0.2h0c0.1-0.2,0.2-0.3,0.5-0.3c0.3,0,0.5,0.3,0.5,0.7
				c0,0.5-0.3,0.7-0.6,0.7c-0.2,0-0.3-0.1-0.4-0.2h0v0.7h-0.2V11.5z M46,11.8C46,11.9,46,11.9,46,11.8c0.1,0.3,0.2,0.4,0.4,0.4
				c0.2,0,0.4-0.2,0.4-0.5c0-0.3-0.1-0.5-0.4-0.5c-0.2,0-0.3,0.1-0.4,0.3c0,0,0,0.1,0,0.1V11.8z"/>
			<path fill="#324A5E" d="M47.2,11.3c0-0.1,0.1-0.2,0.2-0.2c0.1,0,0.2,0.1,0.2,0.2c0,0.1-0.1,0.2-0.2,0.2
				C47.3,11.4,47.2,11.4,47.2,11.3z M47.2,12.2c0-0.1,0.1-0.2,0.2-0.2c0.1,0,0.2,0.1,0.2,0.2c0,0.1-0.1,0.2-0.2,0.2
				C47.3,12.4,47.2,12.3,47.2,12.2z"/>
			<path fill="#324A5E" d="M47.6,12.5l0.7-1.9h0.2l-0.7,1.9H47.6z"/>
			<path fill="#324A5E" d="M48.5,12.5l0.7-1.9h0.2l-0.7,1.9H48.5z"/>
			<path fill="#324A5E" d="M50.3,11.1l0.2,0.7c0,0.1,0.1,0.3,0.1,0.4h0c0-0.1,0.1-0.3,0.1-0.4l0.2-0.7h0.2l0.2,0.6
				c0,0.2,0.1,0.3,0.1,0.4h0c0-0.1,0.1-0.3,0.1-0.4l0.2-0.6h0.2l-0.4,1.3h-0.2l-0.2-0.6c0-0.1-0.1-0.3-0.1-0.4h0
				c0,0.2-0.1,0.3-0.1,0.4l-0.2,0.6h-0.2l-0.4-1.3H50.3z"/>
			<path fill="#324A5E" d="M52.3,11.1l0.2,0.7c0,0.1,0.1,0.3,0.1,0.4h0c0-0.1,0.1-0.3,0.1-0.4l0.2-0.7h0.2l0.2,0.6
				c0,0.2,0.1,0.3,0.1,0.4h0c0-0.1,0.1-0.3,0.1-0.4l0.2-0.6h0.2l-0.4,1.3h-0.2l-0.2-0.6c0-0.1-0.1-0.3-0.1-0.4h0
				c0,0.2-0.1,0.3-0.1,0.4l-0.2,0.6h-0.2l-0.4-1.3H52.3z"/>
			<path fill="#324A5E" d="M54.3,11.1l0.2,0.7c0,0.1,0.1,0.3,0.1,0.4h0c0-0.1,0.1-0.3,0.1-0.4l0.2-0.7h0.2l0.2,0.6
				c0,0.2,0.1,0.3,0.1,0.4h0c0-0.1,0.1-0.3,0.1-0.4l0.2-0.6h0.2l-0.4,1.3h-0.2l-0.2-0.6c0-0.1-0.1-0.3-0.1-0.4h0
				c0,0.2-0.1,0.3-0.1,0.4l-0.2,0.6h-0.2l-0.4-1.3H54.3z"/>
			<path fill="#324A5E" d="M56,12.2c0-0.1,0.1-0.2,0.2-0.2c0.1,0,0.2,0.1,0.2,0.2c0,0.1-0.1,0.2-0.2,0.2C56.1,12.4,56,12.3,56,12.2z
				"/>
		</g>
		<g>
			<path fill="#231F20" d="M127.7,27.3H106v-8.2c0-1.5-1.2-2.6-2.6-2.6h-5.9V2.6c0-1.4-1.1-2.5-2.5-2.5H34.5c-1.4,0-2.5,1.1-2.5,2.5
				v13.8h-5.9c-1.5,0-2.6,1.2-2.6,2.6v8.2H9.1c-0.1,0-0.2,0-0.3,0.1l0,0l-8.3,3.5C0.2,31.1,0,31.3,0,31.6c0,0.3,0.2,0.6,0.5,0.7
				l8.3,3.5l0,0c0.1,0,0.2,0.1,0.3,0.1h14.5v36.9L9.4,102c-0.3,0.5-0.5,1.1-0.5,1.8v4.3c0,1.9,1.5,3.4,3.4,3.4h11.6
				c0,1.2,0.1,2.4,0.4,3.6l1.7,5.6c0.2,1.3,0.3,2.7,0.3,4v3.3H24c-0.4,0-0.8,0.3-0.8,0.7c0,0.4,0.3,0.8,0.8,0.8h24.1
				c0.4,0,0.8-0.3,0.8-0.8c0-0.4-0.3-0.7-0.8-0.7h-2.9V125c0-2.6,1.2-5.1,3.2-6.7c2.3-1.8,3.9-4.2,4.7-7h23.3c0.8,2.7,2.4,5.1,4.7,7
				c2.1,1.6,3.2,4.1,3.2,6.7v2.8h-2.9c-0.4,0-0.8,0.3-0.8,0.7c0,0.4,0.3,0.8,0.8,0.8h24.1c0.4,0,0.8-0.3,0.8-0.8
				c0-0.4-0.3-0.7-0.8-0.7h-2.3v-3.3c0-1.3,0.1-2.7,0.3-3.9l1.7-5.7c0.2-1.2,0.3-2.3,0.3-3.5h11.6c1.9,0,3.4-1.5,3.4-3.4v-4.3
				c0-0.6-0.2-1.2-0.5-1.7L106,72.8V35.9h21.7c1,0,1.8-0.8,1.8-1.8v-5C129.5,28.2,128.7,27.3,127.7,27.3z M8.3,34l-5.6-2.4l5.6-2.4
				V34z M97.5,18h5.9c0.6,0,1.1,0.5,1.1,1.1v8.2h-7V18z M97.5,28.8h7v2h-7V28.8z M97.5,32.4h7v2h-7V32.4z M97.5,35.9h7v29.8h-7V35.9
				z M33.5,2.6c0-0.5,0.4-1,1-1H95c0.5,0,1,0.4,1,1v63.1H33.5V2.6z M25,19.1c0-0.6,0.5-1.1,1.1-1.1H32v9.4h-7V19.1z M25,28.8h7v2h-7
				V28.8z M25,32.4h7v2h-7V32.4z M25,35.9h7v29.8h-7V35.9z M25,67.3h79.4v5H25V67.3z M9.8,28.8h13.7v2H9.8V28.8z M9.8,34.4v-2h13.7
				v2H9.8z M52.2,107.4c0,3.8-1.7,7.3-4.7,9.7c-2.4,1.9-3.8,4.8-3.8,7.9v2.8H27.8v-3.3c0-1.4-0.1-2.9-0.4-4.4l-1.7-5.6
				c-0.2-1.3-0.3-2.7-0.3-4V91.5c0-1.1,0.8-2.1,1.9-2.2c1.3-0.1,2.3,0.9,2.3,2.1c0,0,0,0,0,0s0,0,0,0v7.4c0,0.4,0.3,0.8,0.8,0.8
				c0.4,0,0.8-0.3,0.8-0.8V87c0-1.1,0.8-2.1,1.9-2.2c1.2-0.1,2.3,0.9,2.3,2.1v13.7c0,0.4,0.3,0.8,0.8,0.8c0.4,0,0.8-0.3,0.8-0.8V83
				c0-1.2,1.1-2.2,2.3-2.1c1,0.1,1.9,1.1,1.9,2.2v17.5c0,0.4,0.3,0.8,0.8,0.8c0.4,0,0.8-0.3,0.8-0.8V86.7c0-1.2,1-2.2,2.3-2.1
				c1,0.1,1.9,1.1,1.9,2.2v18.8c0,0.4,0.3,0.8,0.8,0.8s0.8-0.3,0.8-0.8v-6.8c0-1.2,1.1-2.2,2.3-2.1c1,0.1,1.9,1.1,1.9,2.2V107.4z
				 M104.1,110.6c0,1.3-0.1,2.7-0.3,3.9l-1.7,5.7c-0.2,1.4-0.4,2.8-0.4,4.3v3.3H85.9V125c0-3.1-1.4-6-3.8-7.9
				c-3-2.4-4.7-5.9-4.7-9.7V99c0-1.1,0.8-2.1,1.9-2.2c1.2-0.1,2.3,0.9,2.3,2.1v6.8c0,0.4,0.3,0.8,0.8,0.8c0.4,0,0.8-0.3,0.8-0.8
				V86.8c0-1.1,0.8-2.1,1.9-2.2c1.2-0.1,2.3,0.9,2.3,2.1v13.9c0,0.4,0.3,0.8,0.8,0.8c0.4,0,0.8-0.3,0.8-0.8V83.1
				c0-1.1,0.8-2.1,1.9-2.2c1.2-0.1,2.3,0.9,2.3,2.1v17.6c0,0.4,0.3,0.8,0.8,0.8c0.4,0,0.8-0.3,0.8-0.8V86.9c0-1.2,1.1-2.2,2.3-2.1
				c1,0.1,1.9,1.1,1.9,2.2v11.9c0,0.4,0.3,0.8,0.8,0.8c0.4,0,0.8-0.3,0.8-0.8v-7.4c0,0,0,0,0,0s0,0,0,0c0-1.2,1-2.2,2.3-2.1
				c1,0.1,1.9,1.1,1.9,2.2V110.6z M118.8,102.8c0.2,0.3,0.3,0.6,0.3,1v4.3c0,1-0.8,1.9-1.9,1.9h-11.6V91.5c0-1.9-1.4-3.5-3.2-3.7
				c-0.9-0.1-1.8,0.2-2.4,0.6V87c0-1.9-1.4-3.5-3.2-3.7c-0.9-0.1-1.8,0.2-2.4,0.6V83c0-2.1-1.8-3.8-3.9-3.6
				c-1.8,0.2-3.2,1.8-3.2,3.7v0.6c-0.7-0.5-1.5-0.7-2.4-0.6c-1.8,0.2-3.2,1.8-3.2,3.7V96c-0.7-0.5-1.5-0.7-2.4-0.6
				c-1.8,0.2-3.2,1.8-3.2,3.7v8.5c0,0.8,0.1,1.6,0.2,2.4H53.4c0.1-0.8,0.2-1.6,0.2-2.4V99c0-1.9-1.4-3.5-3.2-3.7
				c-0.9-0.1-1.8,0.2-2.4,0.6v-9.2c0-1.9-1.4-3.5-3.2-3.7c-0.9-0.1-1.8,0.2-2.4,0.6v-0.6c0-1.9-1.4-3.5-3.2-3.7
				c-2.1-0.2-3.9,1.5-3.9,3.6V84c-0.7-0.5-1.5-0.7-2.4-0.6c-1.8,0.2-3.2,1.8-3.2,3.7v1.5c-0.7-0.5-1.5-0.7-2.4-0.6
				c-1.8,0.2-3.2,1.8-3.2,3.7v18.3H12.3c-1,0-1.9-0.8-1.9-1.9v-4.3c0-0.3,0.1-0.7,0.3-1l14-29h80L118.8,102.8z M120.1,34.4H106v-2
				h14.2V34.4z M120.1,30.9H106v-2h14.2V30.9z M128,34.1c0,0.2-0.1,0.3-0.3,0.3h-6.1v-5.6h6.1c0.2,0,0.3,0.1,0.3,0.3V34.1z"/>
			<path fill="#231F20" d="M30.3,100.3c-0.4,0-0.8,0.3-0.8,0.8v1c0,0.4,0.3,0.8,0.8,0.8c0.4,0,0.8-0.3,0.8-0.8v-1
				C31,100.7,30.7,100.3,30.3,100.3z"/>
			<path fill="#231F20" d="M35.9,102.5c-0.4,0-0.8,0.3-0.8,0.8v1c0,0.4,0.3,0.8,0.8,0.8c0.4,0,0.8-0.3,0.8-0.8v-1
				C36.7,102.9,36.4,102.5,35.9,102.5z"/>
			<path fill="#231F20" d="M41.6,102.5c-0.4,0-0.8,0.3-0.8,0.8v1c0,0.4,0.3,0.8,0.8,0.8c0.4,0,0.8-0.3,0.8-0.8v-1
				C42.4,102.9,42,102.5,41.6,102.5z"/>
			<path fill="#231F20" d="M99.2,100.3c-0.4,0-0.8,0.3-0.8,0.8v1c0,0.4,0.3,0.8,0.8,0.8c0.4,0,0.8-0.3,0.8-0.8v-1
				C100,100.7,99.6,100.3,99.2,100.3z"/>
			<path fill="#231F20" d="M93.6,102.5c-0.4,0-0.8,0.3-0.8,0.8v1c0,0.4,0.3,0.8,0.8,0.8c0.4,0,0.8-0.3,0.8-0.8v-1
				C94.3,102.9,94,102.5,93.6,102.5z"/>
			<path fill="#231F20" d="M87.9,102.5c-0.4,0-0.8,0.3-0.8,0.8v1c0,0.4,0.3,0.8,0.8,0.8c0.4,0,0.8-0.3,0.8-0.8v-1
				C88.6,102.9,88.3,102.5,87.9,102.5z"/>
		</g>
		<g>
			<path fill="#231F20" d="M89.5,52.7H40V20.4h49.4V52.7z M41.5,51.2H88V21.9H41.5V51.2z"/>
		</g>
		<g>
			<rect x="43.8" y="24.2" fill="#FFD05B" width="41.9" height="24.8"/>
		</g>
		<g>
			<polygon fill="#231F20" points="64.7,44 50.9,31.3 51.9,30.2 64.7,42 83.6,24.7 84.7,25.8 			"/>
		</g>
		<g>
			<line fill="none" x1="49.4" y1="28.9" x2="50.5" y2="29.9"/>
			
				<rect x="49.2" y="28.7" transform="matrix(0.735 0.6781 -0.6781 0.735 33.1686 -26.065)" fill="#231F20" width="1.5" height="1.5"/>
		</g>
		<g>
			<path fill="#231F20" d="M47.9,28.6l-7.6-6.9c-0.2-0.2-0.3-0.5-0.2-0.8c0.1-0.3,0.4-0.5,0.7-0.5h47.9c0.3,0,0.6,0.2,0.7,0.5
				c0.1,0.3,0,0.6-0.2,0.8l-3.1,2.9l-1-1.1l1.7-1.5h-44l6.1,5.6L47.9,28.6z"/>
		</g>
		<g>
			<line fill="none" x1="88.7" y1="52" x2="72.6" y2="35.8"/>
			
				<rect x="69.2" y="43.1" transform="matrix(0.7071 0.7071 -0.7071 0.7071 54.6586 -44.1698)" fill="#231F20" width="22.8" height="1.5"/>
		</g>
		<g>
			<line fill="none" x1="40.8" y1="52" x2="56.9" y2="35.8"/>
			
				<rect x="48.1" y="32.5" transform="matrix(0.7071 0.7071 -0.7071 0.7071 45.3428 -21.6865)" fill="#231F20" width="1.5" height="22.8"/>
		</g>
		<g>
			<circle fill="#FF7058" cx="13.4" cy="10.7" r="3.1"/>
		</g>
		<g>
			<circle fill="#84DBFF" cx="115.8" cy="44.2" r="2.2"/>
		</g>
		<g>
			<circle fill="#E6E9EE" cx="105.5" cy="4.3" r="1.7"/>
		</g>
		<g>
			<circle fill="#FFD05B" cx="13.4" cy="77.9" r="2.2"/>
		</g>
	</g>
</g>
</svg>
