<svg xmlns="http://www.w3.org/2000/svg" viewBox="0 0 129.5 129.5"><path fill="#fff" d="M19.3 99.3H52v8.3H19.3z"/><path fill="#e6e9ee" d="M15.4 128.7v-21.1h40.4v21.1"/><circle fill="#fff" cx="22.3" cy="115.3" r="2.7"/><path d="M22.3 118.8c-1.9 0-3.5-1.6-3.5-3.5s1.6-3.5 3.5-3.5 3.5 1.6 3.5 3.5c0 2-1.5 3.5-3.5 3.5zm0-5.5c-1.1 0-2 .9-2 2s.9 2 2 2 2-.9 2-2-.9-2-2-2zm-7.7-55.8c-.4 0-.8-.3-.8-.8v-.9c0-.4.3-.8.8-.8.4 0 .8.3.8.8v.9c-.1.5-.4.8-.8.8zM11 63.3c-.4 0-.8-.3-.8-.8v-1.1c0-.4.3-.8.8-.8.4 0 .8.3.8.8v1.1c0 .4-.4.8-.8.8zm-3.8 3.3c-.4 0-.8-.3-.8-.8v-1.4c0-.4.3-.8.8-.8s.8.5.8.9v1.4c0 .4-.4.7-.8.7zm107.7-8.1c-.4 0-.8-.3-.8-.8v-1.9c0-.4.3-.8.8-.8.4 0 .8.3.8.8v1.9c0 .5-.4.8-.8.8zm3.6 4.8c-.4 0-.8-.3-.8-.8v-1.1c0-.4.3-.8.8-.8.4 0 .8.3.8.8v1.1c-.1.4-.4.8-.8.8zm3.8 3.3c-.4 0-.8-.3-.8-.8v-1.4c0-.4.3-.8.8-.8.4 0 .8.3.8.8v1.4c-.1.5-.4.8-.8.8z" fill="#231f20"/><path fill="#fff" d="M77.6 99.3h32.7v8.3H77.6z"/><path fill="#e6e9ee" d="M114.1 128.7v-21.1H73.7v21.1"/><circle fill="#fff" cx="107.2" cy="115.3" r="2.7"/><path d="M107.2 118.8c-1.9 0-3.5-1.6-3.5-3.5s1.6-3.5 3.5-3.5 3.5 1.6 3.5 3.5c0 2-1.6 3.5-3.5 3.5zm0-5.5c-1.1 0-2 .9-2 2s.9 2 2 2 2-.9 2-2-.9-2-2-2zM104.1 8.8c-.2 0-.4-.1-.5-.2-.3-.3-.3-.8 0-1.1l1.3-1.3c.3-.3.8-.3 1.1 0s.3.8 0 1.1l-1.3 1.3c-.2.1-.4.2-.6.2zm-4 4c-.2 0-.4-.1-.5-.2-.3-.3-.3-.8 0-1.1l1.3-1.3c.3-.3.8-.3 1.1 0s.3.8 0 1.1l-1.3 1.3c-.2.2-.4.2-.6.2zm5.3 0c-.2 0-.4-.1-.5-.2l-1.3-1.3c-.3-.3-.3-.8 0-1.1s.8-.3 1.1 0l1.3 1.3c.3.3.3.8 0 1.1-.2.2-.4.2-.6.2zm-4-4c-.2 0-.4-.1-.5-.2l-1.3-1.3c-.3-.3-.3-.8 0-1.1s.8-.3 1.1 0l1.3 1.3c.3.3.3.8 0 1.1-.3.1-.5.2-.6.2zm-73.5 11c-.2 0-.4-.1-.5-.2-.3-.3-.3-.8 0-1.1l1.3-1.3c.3-.3.8-.3 1.1 0s.3.8 0 1.1l-1.3 1.3c-.2.2-.4.2-.6.2zm-4 4.1c-.2 0-.4-.1-.5-.2-.3-.3-.3-.8 0-1.1l1.3-1.3c.3-.3.8-.3 1.1 0s.3.8 0 1.1l-1.3 1.3c-.2.1-.4.2-.6.2zm5.3 0c-.2 0-.4-.1-.5-.2l-1.3-1.3c-.3-.3-.3-.8 0-1.1s.8-.3 1.1 0l1.3 1.3c.3.3.3.8 0 1.1-.2.1-.4.2-.6.2zm-4-4.1c-.2 0-.4-.1-.5-.2l-1.3-1.3c-.3-.3-.3-.8 0-1.1s.8-.3 1.1 0l1.3 1.3c.3.3.3.8 0 1.1-.2.2-.4.2-.6.2z" fill="#231f20"/><circle fill="#ffd05b" cx="64.8" cy="24.1" r="23.4"/><g fill="#231f20"><path d="M47.5 24.1H46v-1l1.5.1v.9zm.2-2.9l-1.4-.2c.1-.3.1-.7.2-1l1.5.3c-.2.3-.2.6-.3.9zm.7-2.7L47 18c.1-.3.2-.7.4-1l1.4.6c-.1.3-.3.6-.4.9zm1.2-2.7l-1.3-.7c.2-.3.3-.6.5-.9l1.3.8c-.2.3-.3.6-.5.8zm1.6-2.4l-1.2-.9c.2-.3.4-.5.7-.8l1.1 1c-.2.2-.4.5-.6.7zm1.9-2.1l-1-1.1c.3-.2.5-.5.8-.7l.9 1.2c-.2.2-.4.4-.7.6zm2.3-1.7l-.8-1.3c.3-.2.6-.4.9-.5l.7 1.3c-.2.1-.5.3-.8.5zM58 8.2l-.6-1.4c.3-.1.6-.3 1-.4l.5 1.4-.9.4zm2.7-.9l-.4-1.5c.3-.1.7-.2 1-.2l.3 1.5c-.3.1-.6.2-.9.2zm2.8-.4l-.1-1.5h1v1.5h-.9zm1.3 36c-9.8 0-18-7.7-18.7-17.5l1.5-.1c.6 9 8.2 16.1 17.2 16.1a17.31 17.31 0 0 0 17.3-17.3C82 15 74.9 7.5 65.9 6.9l.1-1.5c9.8.6 17.5 8.9 17.5 18.7 0 10.3-8.4 18.8-18.7 18.8zm4.3-9.5h-8.8c-1.9 0-3.5-1.6-3.5-3.5 0-.4.3-.8.8-.8.4 0 .8.3.8.8 0 1.1.9 2 2 2h8.8c1.1 0 2-.9 2-2v-3c0-1.1-.9-2-2-2h-8.8c-1.9 0-3.5-1.6-3.5-3.5v-3c0-1.9 1.6-3.5 3.5-3.5h8.8c1.9 0 3.5 1.6 3.5 3.5 0 .4-.3.8-.8.8-.4 0-.8-.3-.8-.8 0-1.1-.9-2-2-2h-8.8c-1.1 0-2 .9-2 2v3c0 1.1.9 2 2 2h8.8c1.9 0 3.5 1.6 3.5 3.5v3c.1 1.9-1.5 3.5-3.5 3.5z"/><path d="M64.8 35.7c-.4 0-.8-.3-.8-.8V13.3c0-.4.3-.8.8-.8.4 0 .8.3.8.8V35c-.1.4-.4.7-.8.7z"/></g><circle fill="#84dbff" cx="93.7" cy="42.1" r="3.6"/><circle fill="#e6e9ee" cx="123" cy="5.5" r="2.9"/><circle fill="#ff7058" cx="34.8" cy="37.9" r="2.6"/><path fill="#fff" d="M33.5 61.4h62.4V91H33.5z"/><path fill="#231f20" d="M128.8 41.6c-.9 0-1.7.2-2.5.5v-6.4c0-.4-.3-.8-.8-.8-1 0-1.9.2-2.8.5v-4.1c0-.4-.3-.8-.8-.8-1 0-1.9.2-2.8.5v-2.6c0-.4-.3-.8-.8-.8-4.3 0-7.8 3.5-7.8 7.8V55c0 1.2-.4 2.4-1 3.4s-1.6 1.8-2.6 2.3l-10.3 4.7v-4.2c0-.4-.3-.8-.8-.8H91v-3.1c0-4.5-3.6-8.1-8.1-8.1-.4 0-.8.3-.8.8v10.4H47.3V50.2c0-.4-.3-.8-.8-.8-4.5 0-8.1 3.6-8.1 8.1v3.1h-4.9c-.4 0-.8.3-.8.8v4.2l-10.3-4.7c-1.1-.5-2-1.3-2.6-2.3-.7-1-1-2.2-1-3.4V35.5c0-4.3-3.5-7.8-7.8-7.8-.4 0-.8.3-.8.8v2.6c-.9-.3-1.8-.5-2.8-.5-.4 0-.8.3-.8.8v4.1c-.7-.4-1.6-.6-2.6-.6-.4 0-.7.3-.7.8v6.4c-.8-.3-1.6-.5-2.5-.5-.4 0-.8.3-.8.8v26c0 4.9 2.7 9.4 7 11.8l11.8 6.4c3.4 1.9 5.6 5.5 5.6 9.4v2.6h-5.1c-.4 0-.8.3-.8.8v7.5h-3.1c-.4 0-.8.3-.8.8v21.2h1.5v-20.4H55v20.4h1.5v-21.2c0-.4-.3-.8-.8-.8h-3.1v-7.5c0-.4-.3-.8-.8-.8h-4.6v-6.8H82v6.8h-4.6c-.4 0-.8.3-.8.8v7.5h-3.1c-.4 0-.8.3-.8.8v21.2h1.5v-20.4h38.9v20.4h1.5v-21.2c0-.4-.3-.8-.8-.8H111v-7.5c0-.4-.3-.8-.8-.8h-5.1V96c0-3.9 2.1-7.5 5.6-9.4l11.8-6.4c4.3-2.3 7-6.9 7-11.8v-26c0-.5-.3-.8-.7-.8zM83.7 51c3.3.4 5.9 3.2 5.9 6.6v3.1h-5.9V51zM40 57.6c0-3.4 2.6-6.2 5.9-6.6v9.6H40v-3zm11.2 49.2H20V100h31.2v6.8zm-25.4-8.2V96c0-4.5-2.4-8.6-6.4-10.7L7.7 78.9c-3.8-2.1-6.2-6.1-6.2-10.5V43.1c2.8.4 5 3 5 6.2V62c0 .4.3.8.8.8s.7-.3.7-.8V49.3c0-2.7-1.3-5-3.2-6.4v-6.4c1.4.2 2.7.8 3.7 1.8 1.2 1.2 1.8 2.7 1.8 4.4v16c0 .4.3.8.8.8.4 0 .8-.3.8-.8v-16c0-2.1-.8-4-2.3-5.5-.4-.4-.8-.7-1.2-1v-4.1c3.1.4 5.5 3 5.5 6.2v15.1c0 .4.3.8.8.8.4 0 .8-.3.8-.8v-15c0-2.7-1.4-5.1-3.5-6.5v-2.6c3.1.4 5.5 3 5.5 6.2v19.6c0 1.5.4 3 1.3 4.2.8 1.2 1.9 2.2 3.3 2.8l10.9 5V91c0 .4.3.8.8.8h12.3v6.8H25.8zm8.5-8.4V62.1h60.9v28.1H34.3zm75.2 16.6H78.3V100h31.2v6.8zM128 68.4c0 4.4-2.4 8.4-6.2 10.5L110 85.3c-3.9 2.1-6.4 6.2-6.4 10.7v2.6h-20v-6.8H96c.4 0 .8-.3.8-.8V67.2l10.9-5c1.3-.6 2.5-1.6 3.3-2.8.8-1.3 1.3-2.7 1.3-4.2V35.5c0-3.2 2.4-5.8 5.5-6.2v2.6c-2.1 1.4-3.5 3.8-3.5 6.5v15.1c0 .4.3.8.8.8.4 0 .8-.3.8-.8V38.4c0-3.2 2.4-5.8 5.5-6.2v4.1c-.4.3-.8.6-1.2 1-1.5 1.5-2.3 3.4-2.3 5.5v16c0 .4.3.8.8.8.4 0 .8-.3.8-.8v-16c0-1.7.7-3.3 1.8-4.4 1-1 2.3-1.6 3.7-1.8V43c-1.9 1.4-3.2 3.7-3.2 6.4V62c0 .4.3.8.8.8.4 0 .8-.3.8-.8V49.3c0-3.2 2.2-5.8 5-6.2v25.3z"/><path fill="#4cdbc4" d="M36.5,82V70.4c3.3,0,6-2.7,6-6H87c0,3.3,2.7,6,6,6V82c-3.3,0-6,2.7-6,6H42.5C42.5,84.7,39.9,82,36.5,82z"/><circle fill="#fff" cx="64.7" cy="76.2" r="9"/><path fill="#231f20" d="M64.8 86a9.82 9.82 0 0 1-9.8-9.8 9.82 9.82 0 0 1 9.8-9.8 9.82 9.82 0 0 1 9.8 9.8c-.1 5.4-4.4 9.8-9.8 9.8zm0-18.1a8.28 8.28 0 1 0 0 16.6 8.28 8.28 0 0 0 8.3-8.3c-.1-4.6-3.8-8.3-8.3-8.3z"/><circle fill="#fff" cx="82.2" cy="76.2" r="3.3"/><path fill="#231f20" d="M82.2 80.2c-2.2 0-4-1.8-4-4s1.8-4 4-4 4 1.8 4 4-1.8 4-4 4zm0-6.5c-1.4 0-2.5 1.1-2.5 2.5s1.1 2.5 2.5 2.5 2.5-1.1 2.5-2.5-1.2-2.5-2.5-2.5z"/><circle fill="#fff" cx="47.3" cy="76.2" r="3.3"/><path fill="#231f20" d="M47.3 80.2c-2.2 0-4-1.8-4-4s1.8-4 4-4 4 1.8 4 4c.1 2.2-1.7 4-4 4zm0-6.5c-1.4 0-2.5 1.1-2.5 2.5s1.1 2.5 2.5 2.5 2.5-1.1 2.5-2.5c.1-1.4-1.1-2.5-2.5-2.5z"/></svg>