<svg xmlns="http://www.w3.org/2000/svg" xmlns:xlink="http://www.w3.org/1999/xlink" viewBox="0 0 129.5 129.5"><style><![CDATA[.B{fill:#231f20}.C{fill:#fff}.D{fill:#84dbff}]]></style><path fill="#e6e9ee" d="M121.2 32v9.4h-7.1L67 62.4H46.5v2.1h-5.9V55h5.9v-2.1H67L114.1 32z"/><g class="C"><path d="M72.7 111.8c.1-1.1 1.1-2 2.3-2h1.6c-1.3 0-2.3-1.1-2.2-2.4.1-1.1 1.1-2 2.3-2h8.7c.5 0 .9-.5.7-1l-.6-1.6c-.6-1.4-1.2-3.5-.1-6.5.5-1.5 1.9-2.6 3.5-2.6H90v4.8c0 .7.2 1.4.6 2l3 4.8c.7 1.1 1.8 1.8 3.1 1.9l2.7.2v15.2l-7.5.3h-14c-1.1 0-2.2-.8-2.3-2-.1-1.3.9-2.4 2.2-2.4H77c-1.1 0-2.2-.8-2.3-2-.1-1.3.9-2.4 2.2-2.4H75c-1.4.1-2.5-1-2.3-2.3z"/><path d="M99.2 104.3h3.8v20.4h-3.8z"/></g><path d="M114.9 101.8h-11.8v24.8h11.8" class="D"/><g class="B"><path d="M81.4 109.8c0-.4-.3-.8-.8-.8H80c-.4 0-.8.3-.8.8s.3.8.8.8h.7c.4 0 .7-.4.7-.8zm.2 3.6h-.7c-.4 0-.8.3-.8.8 0 .4.3.8.8.8h.7c.4 0 .8-.3.8-.8 0-.4-.4-.8-.8-.8zm0 4.4h-.7c-.4 0-.8.3-.8.8 0 .4.3.8.8.8h.7c.4 0 .8-.3.8-.8 0-.4-.4-.8-.8-.8z"/><path d="M103.8 102.6h11.1v-1.5h-11.8c-.4 0-.8.3-.8.8v1.7h-3.1c-.4 0-.8.3-.8.8v2.3l-1.9-.1c-1-.1-1.9-.6-2.5-1.5l-3-4.8c-.3-.5-.5-1.1-.5-1.7v-4.8c0-.4-.3-.8-.8-.8h-1.1c-1.9 0-3.7 1.2-4.3 3.1-1.1 3.1-.5 5.3.2 7.1l.6 1.6h-8.7c-1.6 0-2.9 1.2-3 2.7-.1.7.1 1.3.4 1.9-1.2.3-2 1.3-2.2 2.5-.1.8.2 1.7.8 2.3a2.37 2.37 0 0 0 1.5.9c-.3.5-.5 1.2-.4 1.8.1 1 .7 1.8 1.6 2.3-.5.6-.7 1.3-.6 2.1.1 1.5 1.5 2.7 3 2.7h14l6.7-.3v1.3c0 .4.3.8.8.8h3.1v1.1c0 .4.3.8.8.8h11.8v-1.5h-11.1v-23.6zm-12.1 19.6h-14c-.8 0-1.5-.6-1.5-1.3 0-.4.1-.8.4-1.1s.7-.5 1.1-.5h1.7c.4 0 .8-.3.8-.8 0-.4-.3-.8-.8-.8h-2.5c-.8 0-1.5-.6-1.5-1.3 0-.4.1-.8.4-1.1s.7-.5 1.1-.5h2.7c.4 0 .8-.3.8-.8 0-.4-.3-.8-.8-.8H75c-.4 0-.8-.2-1.1-.5s-.4-.7-.4-1.1c.1-.7.7-1.3 1.5-1.3h3.3c.4 0 .8-.3.8-.8s-.3-.8-.8-.8h-1.7c-.4 0-.8-.2-1.1-.5s-.4-.7-.4-1.1c.1-.7.7-1.3 1.5-1.3h8.7c.5 0 1-.2 1.2-.7.3-.4.3-.9.2-1.4l-.6-1.6c-.6-1.5-1.1-3.3-.1-6 .4-1.2 1.5-2.1 2.8-2.1h.3v4.1c0 .9.2 1.7.7 2.4l3 4.8c.8 1.3 2.1 2.1 3.6 2.2l2 .1V122l-6.7.2zm8.3 1.8v-18.9h2.3V124H100z"/></g><path d="M117.3 2.1l.8 6.4 5.7 3.1-5.9 2.7-1.1 6.3-4.4-4.7-6.4.9 3.2-5.7-2.8-5.8 6.3 1.3zM34.1 112.3l-.5 4.4-3.9 2 4 1.9.8 4.3 2.9-3.2 4.4.6-2.2-3.9 2-3.9-4.4.9z" fill="#ffd05b"/><g class="B"><path d="M8.6 67.5c-.2 0-.4-.1-.5-.2-.3-.3-.3-.8 0-1.1l1.3-1.3c.3-.3.8-.3 1.1 0s.3.8 0 1.1l-1.3 1.3c-.3.1-.5.2-.6.2zm-4.1 4c-.2 0-.4-.1-.5-.2-.3-.3-.3-.8 0-1.1l1.3-1.3c.3-.3.8-.3 1.1 0s.3.8 0 1.1L5 71.3c-.1.1-.3.2-.5.2zm5.4 0c-.2 0-.4-.1-.5-.2L8 70c-.3-.3-.3-.8 0-1.1s.8-.3 1.1 0l1.3 1.3c.3.3.3.8 0 1.1-.2.1-.4.2-.5.2zm-4.1-4c-.2 0-.4-.1-.5-.2L4 65.9c-.3-.3-.3-.8 0-1.1s.8-.3 1.1 0l1.3 1.3c.3.3.3.8 0 1.1-.2.2-.4.3-.6.3zM35.7 6.1c-.2 0-.4-.1-.5-.2-.3-.3-.3-.8 0-1.1l1.3-1.3c.3-.3.8-.3 1.1 0s.3.8 0 1.1l-1.3 1.3c-.2.1-.4.2-.6.2zm-4 4.1c-.2 0-.4-.1-.5-.2-.3-.3-.3-.8 0-1.1l1.3-1.3c.3-.3.8-.3 1.1 0s.3.8 0 1.1L32.3 10c-.2.1-.4.2-.6.2z"/><use xlink:href="#B"/><use xlink:href="#B" x="-4" y="-4.1"/><path d="M98.2 23.2c-.2 0-.4-.1-.5-.2-.3-.3-.3-.8 0-1.1l1.3-1.3c.3-.3.8-.3 1.1 0s.3.8 0 1.1L98.7 23c-.2.1-.4.2-.5.2zm-4.1 4.1c-.2 0-.4-.1-.5-.2-.3-.3-.3-.8 0-1.1l1.3-1.3c.3-.3.8-.3 1.1 0s.3.8 0 1.1l-1.3 1.3c-.2.1-.4.2-.6.2zm5.3 0c-.2 0-.4-.1-.5-.2l-1.3-1.3c-.3-.3-.3-.8 0-1.1s.8-.3 1.1 0L100 26c.3.3.3.8 0 1.1-.2.1-.4.2-.6.2z"/><use xlink:href="#B" x="58.4" y="13"/></g><path d="M32.5 37.4c.9 2.3 1.1 4.9.5 7.4-1.6 7.1-8.6 11.5-15.7 9.9-7-1.6-11.4-8.6-9.8-15.7s8.6-11.5 15.6-9.9c2.6.6 4.8 1.9 6.5 3.7l6.3-.8-3.4 5.4z" class="C"/><path d="M20.3 55.8a16.28 16.28 0 0 1-3.1-.3C9.8 53.7 5.1 46.3 6.8 38.9c1.4-6.4 7-10.8 13.5-10.8a16.28 16.28 0 0 1 3.1.3c2.5.6 4.8 1.8 6.6 3.6l5.9-.7c.3 0 .6.1.7.3a.61.61 0 0 1 0 .8l-3.2 5c.8 2.4 1 5 .4 7.5-1.5 6.4-7 10.9-13.5 10.9zm0-26.2c-5.7 0-10.8 4-12 9.6-1.5 6.6 2.7 13.2 9.3 14.7.9.2 1.8.3 2.7.3 5.7 0 10.8-4 12-9.6.5-2.3.4-4.8-.5-7-.1-.2-.1-.5.1-.7l2.5-4-4.7.6c-.2 0-.5-.1-.6-.2-1.7-1.7-3.8-2.9-6.1-3.4-.9-.2-1.8-.3-2.7-.3z" class="B"/><path fill="#ff7058" d="M20.2 49.3c-1.6-.7-7.1-3.6-7.1-9.4 0-1.9 1.6-3.5 3.5-3.5 1 0 1.9.4 2.6 1.2l1 1.1 1-1.1c.7-.7 1.6-1.2 2.6-1.2 1.9 0 3.5 1.6 3.5 3.5 0 5.8-5.5 8.7-7.1 9.4z"/><path d="M82.7 27.8c.7-3.6.5-7.5-1-11.2C77.6 6.4 66.1 1.4 56 5.5S40.9 21 44.9 31.2s15.6 15.1 25.7 11.1c3.7-1.5 6.7-4 8.9-7L89 35l-6.3-7.2z" class="C"/><path d="M63.3 44.4c-8.5 0-16-5.1-19.1-12.9C40 20.9 45.2 9 55.7 4.8c2.4-1 5-1.5 7.6-1.5 8.5 0 16 5.1 19.1 12.9 1.4 3.6 1.8 7.5 1.1 11.3l6.1 6.9c.2.2.2.5.1.8s-.4.4-.7.5l-9.1.3c-2.3 3.1-5.4 5.5-9 7-2.4.9-5 1.4-7.6 1.4zm0-39.6c-2.4 0-4.8.5-7 1.4-9.7 3.9-14.5 15-10.6 24.7 2.9 7.3 9.8 12 17.7 12 2.4 0 4.8-.5 7-1.4 3.4-1.4 6.4-3.7 8.5-6.7.1-.2.4-.3.6-.3l7.9-.3-5.3-5.9c-.2-.2-.2-.4-.2-.6.7-3.6.4-7.4-1-10.8-2.8-7.4-9.8-12.1-17.6-12.1z" class="B"/><path d="M23.6 83.9h8.1v24.3h-8.1zm102.1-43.8h3.8" class="C"/><path d="M125.7 39.3h3.8v1.5h-3.8z" class="B"/><path d="M125.7 52.3h3.8" class="C"/><path d="M125.7 51.5h3.8V53h-3.8z" class="B"/><path d="M125.7 64.5h3.8" class="C"/><path d="M125.7 63.7h3.8v1.5h-3.8z" class="B"/><path d="M125.7 76.7h3.8" class="C"/><path d="M125.7 75.9h3.8v1.5h-3.8z" class="B"/><path d="M125.7 88.9h3.8" class="C"/><path d="M125.7 88.1h3.8v1.5h-3.8z" class="B"/><path d="M114.1 72.8v4.8" class="C"/><path d="M114.1 78.4c-.4 0-.8-.3-.8-.8v-4.8c0-.4.3-.8.8-.8.4 0 .8.3.8.8v4.8c0 .4-.4.8-.8.8z" class="B"/><g class="C"><path d="M62.6 112l1.9-36H52.3l1.9 36z"/><path d="M67.4 107.2h-6.2c-1.4 0-2.6-1.1-2.6-2.6 0-1.4 1.1-2.6 2.6-2.6h6.2c1.4 0 2.6 1.1 2.6 2.6a2.65 2.65 0 0 1-2.6 2.6z"/><path d="M69.8 102h-9.5c-1.4 0-2.6-1.1-2.6-2.6 0-1.4 1.1-2.6 2.6-2.6h9.5c1.4 0 2.6 1.1 2.6 2.6s-1.2 2.6-2.6 2.6z"/><path d="M72.1 97H60.3c-1.4 0-2.6-1.1-2.6-2.6 0-1.4 1.1-2.6 2.6-2.6h11.8c1.4 0 2.6 1.1 2.6 2.6S73.5 97 72.1 97z"/><path d="M70.8 91.9H60.1c-1.4 0-2.5-1.1-2.5-2.5v-.2c0-1.4 1.1-2.5 2.5-2.5h10.7c1.4 0 2.5 1.1 2.5 2.5v.2c0 1.4-1.1 2.5-2.5 2.5z"/><path d="M46.7 94.5c3.5 0 6.4-2.9 6.4-6.4h9.6c3.4 0 6.2-2.8 6.2-6.2H44.2L38 87.3h-6.3M114.1 32v36.1"/></g><g class="B"><path d="M114.1 68.8c-.4 0-.8-.3-.8-.8V32c0-.4.3-.8.8-.8.4 0 .8.3.8.8v36.1c0 .4-.4.7-.8.7z"/><path d="M121.2 31.2h-7.1c-.1 0-.2 0-.3.1L66.9 52.2H46.5c-.4 0-.8.3-.8.8v1.3h-5.1c-.4 0-.8.3-.8.8V74c0 .4.3.8.8.8h5.1V76c0 .4.3.8.8.8h5.1l.2 4.4h-7.6c-.2 0-.4.1-.5.2l-5.9 5.2h-5.3V84c0-.4-.3-.8-.8-.8h-6.5v1.5H31v22.8h-5.8v1.5h6.5c.4 0 .8-.3.8-.8v-3h7.1l2.5 2.5c.1.1.3.2.5.2h10.6l.2 4.2c0 .4.4.7.8.7h8.3c.4 0 .7-.3.8-.7l.2-4.2h3.9a3.33 3.33 0 0 0 3.3-3.3c0-.7-.2-1.3-.6-1.8 1.7-.2 3-1.6 3-3.3 0-.6-.2-1.2-.5-1.7 1.6-.2 2.8-1.6 2.8-3.3 0-1.4-.9-2.6-2.1-3.1a3.22 3.22 0 0 0 .7-2v-.2c0-1.8-1.4-3.2-3.2-3.2h-2.5c.9-1.2 1.4-2.6 1.4-4.1 0-.4-.3-.8-.8-.8h-4l.2-4.4h1.6l46.9 20.9c.1 0 .2.1.3.1h7.1c.4 0 .8-.3.8-.8V32c.1-.4-.2-.8-.6-.8zm-75.5 42h-4.4V55.8h4.4v17.4zm16.1 38.1h-6.9l-1.2-21.6c.1-.3.1-.5.1-.8H57v.7c0 1 .5 1.9 1.2 2.5-.7.6-1.2 1.5-1.2 2.5s.5 1.9 1.2 2.5c-.7.6-1.2 1.5-1.2 2.5 0 1.3.7 2.4 1.8 2.9-.5.6-.8 1.3-.8 2.2a3.33 3.33 0 0 0 3.3 3.3h.7l-.2 3.3zm5.6-4.9h-6.2a1.79 1.79 0 1 1 0-3.6h6.2a1.79 1.79 0 1 1 0 3.6zm2.4-5.1h-9.5a1.79 1.79 0 0 1-1.8-1.8c0-.8.6-1.5 1.3-1.7h10.7c.7.3 1.2.9 1.2 1.7-.1 1-.9 1.8-1.9 1.8zm4.1-6.8a1.79 1.79 0 0 1-1.8 1.8h-1.5c-.3-.1-10.7-.1-10.9-.1-.8-.2-1.3-.9-1.3-1.7a1.79 1.79 0 0 1 1.8-1.8H72c1.1 0 1.9.8 1.9 1.8zm-3.1-6.9c.9 0 1.7.8 1.7 1.7v.2c0 .9-.8 1.7-1.7 1.7H60.2c-.9 0-1.7-.8-1.7-1.7v-.2c0-.2 0-.3.1-.5h4.3c1.5 0 2.8-.5 4-1.3h3.9zm-2.6-4.9c-.4 2.6-2.6 4.6-5.3 4.6h-9.6c-.4 0-.8.3-.8.8 0 3.1-2.5 5.7-5.7 5.7-.4 0-.8.3-.8.8 0 .4.3.8.8.8a7.08 7.08 0 0 0 5.5-2.6l.8 13.8H42.9l-2.5-2.5c-.1-.1-.3-.2-.5-.2h-7.4V88H38c.2 0 .4-.1.5-.2l5.9-5.2h23.8zm-15.1-6h10.6l-.2 4.4H53.3l-.2-4.4zm13.2-1.5H47.2V53.7h19.1v21.5zm54.1 21h-6.2L67.8 75.5V53.4l46.5-20.7h6.2v63.5z"/></g><circle cx="63.3" cy="23.8" r="15.7" class="D"/><path d="M60.2 21.3c-.4 0-.8-.3-.8-.8 0-1.4-1.1-2.5-2.5-2.5s-2.5 1.1-2.5 2.5c0 .4-.3.8-.8.8s-.8-.3-.8-.8c0-2.2 1.8-4 4-4s4 1.8 4 4c.1.4-.2.8-.6.8zm12.8 0c-.4 0-.8-.3-.8-.8 0-1.4-1.1-2.5-2.5-2.5s-2.5 1.1-2.5 2.5c0 .4-.3.8-.8.8-.4 0-.8-.3-.8-.8 0-2.2 1.8-4 4-4s4 1.8 4 4c.2.4-.2.8-.6.8z" class="B"/><path d="M55.7 28.9c1.5 2.7 4.3 4.6 7.6 4.6s6.2-1.9 7.6-4.6H55.7z" class="C"/><path d="M63.3 34.2c-3.5 0-6.7-1.9-8.3-5-.1-.2-.1-.5 0-.7s.4-.4.6-.4H71c.3 0 .5.1.6.4.1.2.1.5 0 .7-1.6 3.1-4.8 5-8.3 5zm-6.2-4.6c1.5 1.9 3.8 3.1 6.3 3.1s4.8-1.2 6.3-3.1H57.1z" class="B"/><path d="M.8 80.9h24.6v30.3H.8z" class="D"/><g class="C"><path d="M8.7 13.7h14.7v7.1H8.7z"/><path d="M23.4 20.8l8.3-3.6-8.3-3.5zM.8 19.7v-5a1.11 1.11 0 0 1 1.1-1.1h6.9v7.1h-7c-.6.1-1-.4-1-1z"/></g><path d="M32 16.6L23.7 13c-.1 0-.2-.1-.3-.1H1.8A1.79 1.79 0 0 0 0 14.7v5a1.79 1.79 0 0 0 1.8 1.8h21.6c.1 0 .2 0 .3-.1l8.4-3.6c.3-.1.5-.4.5-.7-.1-.2-.3-.4-.6-.5zm-9.4-.1H9.4v-2.1h13.2v2.1zM1.5 19.7v-5c0-.2.1-.3.3-.3h6.1V20H1.8c-.2.1-.3-.1-.3-.3zM9.4 18h13.2v2.1H9.4V18zm14.7 1.7v-4.8l5.7 2.4-5.7 2.4z" class="B"/><circle fill="#ff7058" cx="92.1" cy="8.1" r="2.7"/><circle fill="#4cdbc4" cx="25.3" cy="66.1" r="2.7"/><circle fill="#e6e9ee" cx="54.9" cy="121.3" r="2.7"/><defs ><path id="B" d="M37 10.2c-.2 0-.4-.1-.5-.2l-1.3-1.3c-.3-.3-.3-.8 0-1.1s.8-.3 1.1 0l1.3 1.3c.3.3.3.8 0 1.1-.2.1-.4.2-.6.2z"/></defs></svg>