<?xml version="1.0" encoding="UTF-8" standalone="no"?>
<!-- Generator: Adobe Illustrator 15.0.2, SVG Export Plug-In . SVG Version: 6.00 Build 0)  -->

<svg
   xmlns:dc="http://purl.org/dc/elements/1.1/"
   xmlns:cc="http://creativecommons.org/ns#"
   xmlns:rdf="http://www.w3.org/1999/02/22-rdf-syntax-ns#"
   xmlns:svg="http://www.w3.org/2000/svg"
   xmlns="http://www.w3.org/2000/svg"
   xmlns:xlink="http://www.w3.org/1999/xlink"
   xmlns:sodipodi="http://sodipodi.sourceforge.net/DTD/sodipodi-0.dtd"
   xmlns:inkscape="http://www.inkscape.org/namespaces/inkscape"
   version="1.1"
   id="layer_1"
   x="0px"
   y="0px"
   width="699"
   height="252"
   viewBox="0 0 699 252"
   enable-background="new 0 0 800 800"
   xml:space="preserve"
   sodipodi:docname="common-myths-of-erp.svg"
   inkscape:version="0.92.3 (2405546, 2018-03-11)"><metadata
   id="metadata1423"><rdf:RDF><cc:Work
       rdf:about=""><dc:format>image/svg+xml</dc:format><dc:type
         rdf:resource="http://purl.org/dc/dcmitype/StillImage" /><dc:title></dc:title></cc:Work></rdf:RDF></metadata><defs
   id="defs1421" /><sodipodi:namedview
   pagecolor="#ffffff"
   bordercolor="#666666"
   borderopacity="1"
   objecttolerance="10"
   gridtolerance="10"
   guidetolerance="10"
   inkscape:pageopacity="0"
   inkscape:pageshadow="2"
   inkscape:window-width="1366"
   inkscape:window-height="705"
   id="namedview1419"
   showgrid="false"
   inkscape:zoom="0.59"
   inkscape:cx="466.03205"
   inkscape:cy="202.45535"
   inkscape:window-x="-8"
   inkscape:window-y="-8"
   inkscape:window-maximized="1"
   inkscape:current-layer="g1416" />
<g
   id="g1416"
   transform="translate(0,-548)">
	<defs
   id="defs3">
		<polygon
   id="SVGID_1_"
   points="0,400 0.378,400 0.378,800 800,800 800,400 800,0 0,0 " />
	</defs>
	<clipPath
   id="SVGID_2_">
		<use
   xlink:href="#SVGID_1_"
   overflow="visible"
   id="use5"
   style="overflow:visible"
   x="0"
   y="0"
   width="100%"
   height="100%" />
	</clipPath>
	
	
	<g
   clip-path="url(#SVGID_2_)"
   id="g734"
   transform="translate(-50.561001,436.333)">
		<g
   id="g246">
			<defs
   id="defs73">
				<rect
   id="SVGID_3_"
   width="800"
   height="800"
   x="0"
   y="0" />
			</defs>
			<clipPath
   id="SVGID_4_">
				<use
   xlink:href="#SVGID_3_"
   overflow="visible"
   id="use75"
   style="overflow:visible"
   x="0"
   y="0"
   width="100%"
   height="100%" />
			</clipPath>
			<path
   clip-path="url(#SVGID_4_)"
   d="m 311.77,176.097 c -1.162,0 -2.294,0.056 -3.377,0.31 0.269,-1.107 0.416,-2.266 0.416,-3.459 0,-8.089 -6.56,-14.646 -14.648,-14.646 -8.09,0 -14.647,6.565 -14.647,14.653 0,0.729 0.053,1.453 0.157,2.156 -2.501,0.416 -4.705,1.707 -6.308,3.528 -2.362,-1.631 -5.223,-2.543 -8.309,-2.543 -8.092,0 -14.649,6.728 -14.649,14.731 h 76.012 c 0,-8.003 -6.558,-14.73 -14.647,-14.73 z"
   id="path78"
   inkscape:connector-curvature="0"
   style="fill:#3dc7d2" />
			<path
   clip-path="url(#SVGID_4_)"
   d="m 311.769,175.097 v 2 c 7.191,0 13.1,5.625 13.611,12.731 h -25.073 v 2 h 27.109 v -1 c 0,-8.674 -7.019,-15.731 -15.647,-15.731 z"
   id="path80"
   inkscape:connector-curvature="0"
   style="fill:#111111" />
			<path
   clip-path="url(#SVGID_4_)"
   d="m 299.889,160.559 c 1.648,0.763 3.109,1.832 4.341,3.178 l 1.475,-1.352 c -1.412,-1.541 -3.086,-2.767 -4.976,-3.642 z"
   id="path82"
   inkscape:connector-curvature="0"
   style="fill:#111111" />
			<path
   clip-path="url(#SVGID_4_)"
   d="m 280.415,165.473 1.756,0.957 c 1.655,-3.037 4.363,-5.313 7.627,-6.414 l -0.64,-1.896 c -3.741,1.263 -6.846,3.873 -8.743,7.353 z"
   id="path84"
   inkscape:connector-curvature="0"
   style="fill:#111111" />
			<path
   clip-path="url(#SVGID_4_)"
   d="m 265.053,177.097 c 2.823,0 5.5,0.817 7.741,2.366 l 0.732,0.506 0.587,-0.668 c 0.736,-0.836 1.596,-1.536 2.556,-2.081 l -0.986,-1.74 c -0.904,0.513 -1.733,1.14 -2.475,1.869 -2.419,-1.476 -5.221,-2.252 -8.155,-2.252 -8.629,0 -15.649,7.058 -15.649,15.731 v 1 h 26.82 v -2 h -24.785 c 0.512,-7.106 6.422,-12.731 13.614,-12.731 z"
   id="path86"
   inkscape:connector-curvature="0"
   style="fill:#111111" />
			<rect
   x="280.40601"
   y="189.828"
   clip-path="url(#SVGID_4_)"
   width="9.085"
   height="2"
   id="rect88"
   style="fill:#111111" />
			<path
   clip-path="url(#SVGID_4_)"
   d="m 238.883,172.738 h -3.759 c -0.571,-2.064 -1.401,-4.043 -2.475,-5.898 l 2.668,-2.668 c 1.101,-1.102 1.101,-2.893 0,-3.995 l -5.574,-5.573 c -1.067,-1.066 -2.927,-1.066 -3.995,0 l -2.657,2.658 c -1.864,-1.057 -3.85,-1.868 -5.922,-2.421 v -3.774 c 0,-1.557 -1.267,-2.824 -2.824,-2.824 h -7.883 c -1.557,0 -2.824,1.268 -2.824,2.824 v 3.76 c -2.064,0.571 -4.043,1.401 -5.899,2.475 l -2.668,-2.667 c -1.066,-1.068 -2.928,-1.067 -3.994,0 l -5.575,5.573 c -1.1,1.102 -1.1,2.894 10e-4,3.994 l 2.658,2.657 c -1.056,1.863 -1.868,3.849 -2.421,5.923 h -3.773 c -1.558,0 -2.825,1.267 -2.825,2.823 v 7.884 c 0,1.557 1.267,2.823 2.825,2.823 h 3.758 c 0.572,2.065 1.401,4.043 2.476,5.899 l -2.668,2.668 c -1.102,1.101 -1.102,2.893 0,3.994 l 5.573,5.574 c 1.068,1.066 2.928,1.066 3.994,0 l 2.659,-2.658 c 1.863,1.057 3.849,1.867 5.921,2.42 v 3.773 c 0,0.756 0.293,1.465 0.827,1.998 0.533,0.533 1.243,0.827 1.997,0.827 h 7.883 c 1.557,0 2.824,-1.267 2.824,-2.824 v -3.759 c 2.064,-0.57 4.042,-1.4 5.899,-2.475 l 2.668,2.666 c 1.067,1.068 2.93,1.067 3.994,0 l 5.574,-5.572 c 0.534,-0.533 0.828,-1.243 0.828,-1.997 0,-0.755 -0.294,-1.464 -0.828,-1.997 l -2.658,-2.658 c 1.056,-1.863 1.868,-3.849 2.422,-5.922 h 3.773 c 1.557,0 2.824,-1.268 2.824,-2.824 v -7.883 c 0,-1.556 -1.267,-2.824 -2.824,-2.824 z m 0.824,10.707 c 0,0.454 -0.37,0.824 -0.824,0.824 h -5.347 l -0.18,0.773 c -0.562,2.402 -1.496,4.686 -2.776,6.789 l -0.409,0.67 3.761,3.762 c 0.156,0.156 0.242,0.363 0.242,0.583 0,0.22 -0.086,0.427 -0.242,0.582 l -5.575,5.575 c -0.31,0.312 -0.851,0.312 -1.164,-0.002 l -3.782,-3.779 -0.673,0.418 c -2.097,1.302 -4.372,2.257 -6.763,2.839 l -0.764,0.185 v 5.319 c 0,0.455 -0.369,0.824 -0.824,0.824 h -7.883 c -0.22,0 -0.427,-0.086 -0.582,-0.241 -0.156,-0.156 -0.242,-0.363 -0.242,-0.583 v -5.347 l -0.772,-0.18 c -2.402,-0.563 -4.686,-1.496 -6.79,-2.775 l -0.671,-0.409 -3.761,3.761 c -0.311,0.312 -0.854,0.311 -1.166,0 l -5.573,-5.574 c -0.322,-0.321 -0.322,-0.844 0,-1.166 l 3.78,-3.78 -0.418,-0.674 c -1.301,-2.095 -2.257,-4.371 -2.839,-6.763 l -0.186,-0.765 h -5.317 c -0.455,0 -0.825,-0.37 -0.825,-0.823 v -7.884 c 0,-0.455 0.37,-0.823 0.825,-0.823 h 5.347 l 0.18,-0.773 c 0.561,-2.402 1.496,-4.688 2.775,-6.789 l 0.408,-0.671 -3.76,-3.761 c -0.322,-0.321 -0.321,-0.845 0,-1.166 l 5.575,-5.573 c 0.31,-0.312 0.853,-0.313 1.165,0 l 3.231,3.231 0.561,0.541 0.663,-0.41 c 2.094,-1.303 4.37,-2.258 6.762,-2.84 l 0.764,-0.186 v -5.318 c 0,-0.453 0.37,-0.824 0.824,-0.824 h 7.883 c 0.455,0 0.824,0.371 0.824,0.824 v 5.348 l 0.773,0.181 c 2.401,0.562 4.685,1.495 6.789,2.774 l 0.672,0.408 3.759,-3.76 c 0.312,-0.311 0.855,-0.311 1.167,0 l 5.573,5.573 c 0.322,0.321 0.322,0.846 0.001,1.167 l -3.782,3.781 0.419,0.672 c 1.302,2.097 2.257,4.371 2.839,6.764 l 0.186,0.764 h 5.318 c 0.454,0 0.824,0.369 0.824,0.824 z"
   id="path90"
   inkscape:connector-curvature="0"
   style="fill:#111111" />
			
				<circle
   clip-path="url(#SVGID_4_)"
   cx="210.425"
   cy="179.52499"
   r="20.232"
   id="circle92"
   style="clip-rule:evenodd;fill:#f3a52d;fill-rule:evenodd" />
			<path
   clip-path="url(#SVGID_4_)"
   d="m 199.224,188.438 -1.565,1.246 c 0.65,0.816 1.382,1.574 2.176,2.253 l 1.3,-1.521 c -0.697,-0.596 -1.34,-1.262 -1.911,-1.978 z"
   id="path94"
   inkscape:connector-curvature="0"
   style="fill:#111111" />
			<path
   clip-path="url(#SVGID_4_)"
   d="m 194.515,183.139 c 0.23,1.018 0.561,2.02 0.983,2.975 l 1.83,-0.807 c -0.371,-0.839 -0.661,-1.717 -0.863,-2.609 z"
   id="path96"
   inkscape:connector-curvature="0"
   style="fill:#111111" />
			<path
   clip-path="url(#SVGID_4_)"
   d="m 203.355,164.814 c -0.938,0.453 -1.839,1 -2.678,1.626 l 1.196,1.603 c 0.737,-0.551 1.528,-1.029 2.35,-1.426 z"
   id="path98"
   inkscape:connector-curvature="0"
   style="fill:#111111" />
			<path
   clip-path="url(#SVGID_4_)"
   d="m 203.326,194.221 c 0.939,0.455 1.927,0.82 2.938,1.088 l 0.511,-1.934 c -0.887,-0.234 -1.754,-0.555 -2.578,-0.954 z"
   id="path100"
   inkscape:connector-curvature="0"
   style="fill:#111111" />
			<path
   clip-path="url(#SVGID_4_)"
   d="m 226.362,175.943 c -0.228,-1.018 -0.557,-2.02 -0.977,-2.978 l -1.832,0.804 c 0.369,0.84 0.657,1.719 0.857,2.611 z"
   id="path102"
   inkscape:connector-curvature="0"
   style="fill:#111111" />
			<path
   clip-path="url(#SVGID_4_)"
   d="m 196.472,176.324 -1.95,-0.444 c -0.231,1.013 -0.366,2.058 -0.401,3.106 l 1.999,0.065 c 0.031,-0.92 0.149,-1.838 0.352,-2.727 z"
   id="path104"
   inkscape:connector-curvature="0"
   style="fill:#111111" />
			<path
   clip-path="url(#SVGID_4_)"
   d="m 199.242,170.59 -1.563,-1.249 c -0.653,0.817 -1.23,1.7 -1.713,2.623 l 1.772,0.928 c 0.424,-0.81 0.93,-1.585 1.504,-2.302 z"
   id="path106"
   inkscape:connector-curvature="0"
   style="fill:#111111" />
			<path
   clip-path="url(#SVGID_4_)"
   d="m 221.61,188.482 1.559,1.251 c 0.655,-0.813 1.233,-1.696 1.718,-2.618 l -1.77,-0.932 c -0.426,0.811 -0.933,1.584 -1.507,2.299 z"
   id="path108"
   inkscape:connector-curvature="0"
   style="fill:#111111" />
			<path
   clip-path="url(#SVGID_4_)"
   d="m 223.23,169.392 c -0.648,-0.817 -1.378,-1.576 -2.17,-2.257 l -1.304,1.517 c 0.696,0.599 1.338,1.267 1.908,1.983 z"
   id="path110"
   inkscape:connector-curvature="0"
   style="fill:#111111" />
			<path
   clip-path="url(#SVGID_4_)"
   d="m 216.62,192.445 0.864,1.805 c 0.941,-0.452 1.843,-0.998 2.682,-1.621 l -1.194,-1.604 c -0.736,0.547 -1.527,1.025 -2.352,1.42 z"
   id="path112"
   inkscape:connector-curvature="0"
   style="fill:#111111" />
			<path
   clip-path="url(#SVGID_4_)"
   d="m 224.391,182.754 1.949,0.447 c 0.234,-1.014 0.37,-2.059 0.407,-3.104 l -1.999,-0.069 c -0.032,0.917 -0.152,1.835 -0.357,2.726 z"
   id="path114"
   inkscape:connector-curvature="0"
   style="fill:#111111" />
			<path
   clip-path="url(#SVGID_4_)"
   d="m 210.497,165.203 -0.062,-2 c -1.047,0 -2.095,0.101 -3.117,0.297 l 0.38,1.965 c 0.896,-0.174 1.817,-0.262 2.713,-0.262 z"
   id="path116"
   inkscape:connector-curvature="0"
   style="fill:#111111" />
			<path
   clip-path="url(#SVGID_4_)"
   d="m 210.435,193.846 h -0.032 l 0.032,2 c 1.038,0 2.075,-0.098 3.084,-0.291 l -0.377,-1.964 c -0.884,0.169 -1.795,0.255 -2.707,0.255 z"
   id="path118"
   inkscape:connector-curvature="0"
   style="fill:#111111" />
			<path
   clip-path="url(#SVGID_4_)"
   d="m 217.574,164.844 c -0.94,-0.457 -1.927,-0.825 -2.938,-1.094 l -0.513,1.933 c 0.885,0.235 1.752,0.558 2.574,0.959 z"
   id="path120"
   inkscape:connector-curvature="0"
   style="fill:#111111" />
			<path
   clip-path="url(#SVGID_4_)"
   d="m 638.911,242.309 h -15.086 c -0.353,-4.951 -4.494,-8.871 -9.534,-8.871 h -0.172 c -5.27,0 -9.558,4.287 -9.558,9.557 v 120.602 h 90.056 V 233.438 h -55.706 z m 2,-6.871 h 51.706 V 361.596 H 606.561 V 242.994 c 0,-4.166 3.391,-7.557 7.558,-7.557 h 0.172 c 4.168,0 7.56,3.391 7.56,7.557 v 1.314 h 19.061 v -8.87 z"
   id="path122"
   inkscape:connector-curvature="0"
   style="fill:#111111" />
			<path
   clip-path="url(#SVGID_4_)"
   d="m 694.48,234.438 h -80.669 c 3.834,0 9.087,2.179 9.087,9.434 l 0.063,109.52 c 0,5.035 2.161,9.254 8.252,9.254 l 74.826,0.02 -0.062,-118.793 c 10e-4,-5.217 -5.158,-9.435 -11.497,-9.435 z"
   id="path124"
   inkscape:connector-curvature="0"
   style="fill:#ffffff" />
			
				<rect
   x="701.77698"
   y="267.74301"
   transform="rotate(-90.053073,705.99405,268.74251)"
   clip-path="url(#SVGID_4_)"
   width="8.4350004"
   height="2"
   id="rect126"
   style="fill:#111111" />
			<path
   clip-path="url(#SVGID_4_)"
   d="m 704.998,279.488 0.041,82.178 -73.826,-0.021 c -5.994,0 -7.252,-4.489 -7.252,-8.255 l -0.063,-109.52 c 0,-3.987 -1.55,-6.756 -3.785,-8.434 h 74.367 c 5.788,0 10.496,3.783 10.496,8.434 l 0.008,13.039 2,-0.002 -0.007,-13.037 c 0,-5.754 -5.606,-10.434 -12.497,-10.434 h -80.669 v 2 c 1.35,0 8.087,0.406 8.087,8.434 l 0.063,109.521 c 0,6.517 3.372,10.254 9.252,10.254 l 75.827,0.021 -0.042,-84.18 z"
   id="path128"
   inkscape:connector-curvature="0"
   style="fill:#111111" />
			<path
   clip-path="url(#SVGID_4_)"
   d="m 725.559,308.842 h -74.972 c -11.115,0 -10.08,10.722 -10.08,10.722 v 33.274 c 0,9.149 -7.36,9.783 -8.54,9.815 0,0 60.946,0.013 80.678,0.013 13.827,0 12.914,-9.846 12.914,-9.846 z"
   id="path130"
   inkscape:connector-curvature="0"
   style="fill:#e6e6e6" />
			<path
   clip-path="url(#SVGID_4_)"
   d="m 631.967,362.652 h -0.219 c 0,0 0.081,0.005 0.219,0 z"
   id="path132"
   inkscape:connector-curvature="0"
   style="fill:#ffffff" />
			<path
   clip-path="url(#SVGID_4_)"
   d="m 726.558,307.842 h -75.97 c -3.633,0 -6.454,1.08 -8.388,3.209 -3.146,3.463 -2.709,8.4 -2.693,8.512 v 33.276 c 0,8.199 -6.303,8.781 -7.566,8.813 l 0.027,2 c 0,0 60.945,0.015 80.676,0.015 5.18,0 9.02,-1.331 11.412,-3.956 2.823,-3.098 2.513,-6.827 2.502,-6.891 z m -3.98,50.522 c -1.998,2.19 -5.341,3.303 -9.935,3.303 -16.024,0 -59.231,-0.009 -74.901,-0.013 2.01,-1.512 3.765,-4.162 3.765,-8.815 l -0.004,-33.37 c -0.004,-0.043 -0.363,-4.287 2.188,-7.085 1.538,-1.686 3.859,-2.542 6.897,-2.542 h 73.97 l 0.005,43.071 c 10e-4,0.028 0.25,2.999 -1.985,5.451 z"
   id="path134"
   inkscape:connector-curvature="0"
   style="fill:#111111" />
			<polygon
   clip-path="url(#SVGID_4_)"
   points="631.995,363.652 631.967,361.652 631.748,361.652 631.7,363.652 631.85,363.654 "
   id="polygon136"
   style="fill:#111111" />
			<path
   clip-path="url(#SVGID_4_)"
   d="M 725.551,308.85 H 650.58 c 0,0 10.529,1.368 7.293,11.99 h 78.482 c 0.97,-5.26 0.086,-11.99 -10.804,-11.99 z"
   id="path138"
   inkscape:connector-curvature="0"
   style="fill:#ffffff" />
			<rect
   x="694.521"
   y="319.83899"
   clip-path="url(#SVGID_4_)"
   width="6.3340001"
   height="2"
   id="rect140"
   style="fill:#111111" />
			<path
   clip-path="url(#SVGID_4_)"
   d="M 725.551,307.85 H 650.58 l -0.129,1.99 c 0.041,0.007 4.103,0.565 6.029,3.555 1.18,1.826 1.325,4.232 0.437,7.154 l -0.394,1.291 H 684.6 v -2 h -25.43 c 0.652,-2.95 0.315,-5.479 -1.008,-7.53 -0.67,-1.039 -1.524,-1.842 -2.413,-2.46 h 69.802 c 4.059,0 6.926,0.971 8.522,2.889 1.378,1.656 1.858,4.041 1.432,7.102 h -28.846 v 2 h 30.528 l 0.151,-0.818 c 0.749,-4.066 0.168,-7.285 -1.729,-9.563 -1.993,-2.396 -5.379,-3.61 -10.058,-3.61 z"
   id="path142"
   inkscape:connector-curvature="0"
   style="fill:#111111" />
			<polygon
   clip-path="url(#SVGID_4_)"
   points="639.338,250.596 631.828,243.323 631.828,295.454 699.633,295.454 699.633,250.199 692.656,245.117 685.039,250.651 677.529,256.188 669.805,245.117 662.188,250.651 654.68,250.651 647.17,245.002 "
   id="polygon144"
   style="fill:#ea572e" />
			<polygon
   clip-path="url(#SVGID_4_)"
   points="631.828,295.455 699.633,295.455 699.633,256.884 692.765,261.895 685.039,256.188 677.422,268.461 670.465,256.417 656.065,263.463 647.063,250.596 639.229,262.109 631.828,256.417 "
   id="polygon146"
   style="fill:#3dc7d2" />
			<polygon
   clip-path="url(#SVGID_4_)"
   points="631.828,295.455 699.633,295.455 699.633,278.234 692.656,273.081 682.955,284.979 666.656,282.799 662.188,273.196 654.463,278.79 646.953,267.604 639.338,275.768 631.828,271.993 "
   id="polygon148"
   style="fill:#f3a52d" />
			<path
   clip-path="url(#SVGID_4_)"
   d="m 707.482,328.501 -1.066,0.071 c -7.155,0.473 -12.762,6.46 -12.762,13.629 0,7.539 6.134,13.672 13.673,13.672 7.168,0 13.153,-5.605 13.627,-12.762 l 0.07,-1.066 h -13.542 z m 11.358,15.544 c -0.892,5.59 -5.756,9.828 -11.513,9.828 -6.437,0 -11.673,-5.236 -11.673,-11.672 0,-5.759 4.238,-10.623 9.828,-11.514 v 13.357 h 13.358 z"
   id="path150"
   inkscape:connector-curvature="0"
   style="fill:#111111" />
			<path
   clip-path="url(#SVGID_4_)"
   d="m 708.172,330.402 v 10.459 l 9.443,-4.484 c -1.904,-3.352 -5.393,-5.688 -9.443,-5.975 z"
   id="path152"
   inkscape:connector-curvature="0"
   style="fill:#ea572e" />
			<path
   clip-path="url(#SVGID_4_)"
   d="m 711.073,341.354 h 8.052 c -0.084,-1.19 -0.343,-2.348 -0.776,-3.453 z"
   id="path154"
   inkscape:connector-curvature="0"
   style="fill:#2e8d9a" />
			<rect
   x="671.34198"
   y="331.50299"
   clip-path="url(#SVGID_4_)"
   width="3.74"
   height="2"
   id="rect156"
   style="fill:#111111" />
			<rect
   x="660.96198"
   y="331.50299"
   clip-path="url(#SVGID_4_)"
   width="3.7379999"
   height="2"
   id="rect158"
   style="fill:#111111" />
			<rect
   x="650.58002"
   y="331.50299"
   clip-path="url(#SVGID_4_)"
   width="3.74"
   height="2"
   id="rect160"
   style="fill:#111111" />
			<rect
   x="650.58099"
   y="338.034"
   clip-path="url(#SVGID_4_)"
   width="39.613998"
   height="2"
   id="rect162"
   style="fill:#111111" />
			<rect
   x="650.58099"
   y="344.48901"
   clip-path="url(#SVGID_4_)"
   width="39.613998"
   height="2"
   id="rect164"
   style="fill:#111111" />
			<rect
   x="650.58197"
   y="350.94101"
   clip-path="url(#SVGID_4_)"
   width="15.149"
   height="2"
   id="rect166"
   style="fill:#111111" />
			<polygon
   clip-path="url(#SVGID_4_)"
   points="151.574,355.11 151.529,303.963 110.227,266.813 68.925,304.316 68.982,355.11 "
   id="polygon168"
   style="fill:#f3a52d" />
			<polygon
   clip-path="url(#SVGID_4_)"
   points="68.253,303.576 69.597,305.057 110.23,268.16 150.86,304.707 152.198,303.219 110.224,265.465 "
   id="polygon170"
   style="fill:#111111" />
			<rect
   x="79.151001"
   y="284.91"
   clip-path="url(#SVGID_4_)"
   width="62.616001"
   height="60.887001"
   id="rect172"
   style="fill:#ffffff" />
			<polygon
   clip-path="url(#SVGID_4_)"
   points="151.561,362.654 122.331,335.226 98.278,335.226 68.982,362.666 "
   id="polygon174"
   style="fill:#f3a52d" />
			<polygon
   clip-path="url(#SVGID_4_)"
   points="68.982,362.666 98.333,335.226 68.982,305.865 "
   id="polygon176"
   style="fill:#f3a52d" />
			<polygon
   clip-path="url(#SVGID_4_)"
   points="151.574,362.666 151.574,305.865 122.331,335.226 "
   id="polygon178"
   style="fill:#f3a52d" />
			<path
   clip-path="url(#SVGID_4_)"
   d="m 123.015,334.496 c -0.186,-0.174 -0.431,-0.271 -0.685,-0.271 H 98.277 c -0.254,0 -0.498,0.098 -0.683,0.271 l -29.295,27.441 c -0.3,0.28 -0.397,0.716 -0.246,1.098 0.15,0.382 0.519,0.632 0.929,0.632 l 82.579,-0.013 c 0.41,0 0.779,-0.25 0.929,-0.632 0.152,-0.381 0.054,-0.817 -0.245,-1.098 z m -51.502,27.17 27.16,-25.441 h 23.262 l 27.099,25.43 z"
   id="path180"
   inkscape:connector-curvature="0"
   style="fill:#111111" />
			
				<rect
   x="82.575996"
   y="327.81601"
   transform="matrix(-0.7071,-0.7071,0.7071,-0.7071,-76.0563,626.13)"
   clip-path="url(#SVGID_4_)"
   width="18.129"
   height="1.999"
   id="rect182"
   style="fill:#111111" />
			
				<rect
   x="127.74"
   y="319.75201"
   transform="matrix(-0.7074,-0.7069,0.7069,-0.7074,-12.6233,652.4056)"
   clip-path="url(#SVGID_4_)"
   width="1.999"
   height="18.128"
   id="rect184"
   style="fill:#111111" />
			<rect
   x="67.925003"
   y="315.354"
   clip-path="url(#SVGID_4_)"
   width="2"
   height="18.129"
   id="rect186"
   style="fill:#111111" />
			<rect
   x="111.378"
   y="294.15399"
   clip-path="url(#SVGID_4_)"
   width="3.6029999"
   height="2"
   id="rect188"
   style="fill:#111111" />
			<rect
   x="101.378"
   y="294.15399"
   clip-path="url(#SVGID_4_)"
   width="3.6010001"
   height="2"
   id="rect190"
   style="fill:#111111" />
			<rect
   x="91.376999"
   y="294.15399"
   clip-path="url(#SVGID_4_)"
   width="3.6010001"
   height="2"
   id="rect192"
   style="fill:#111111" />
			<rect
   x="91.375999"
   y="300.45001"
   clip-path="url(#SVGID_4_)"
   width="38.165001"
   height="2"
   id="rect194"
   style="fill:#111111" />
			<rect
   x="91.375999"
   y="306.668"
   clip-path="url(#SVGID_4_)"
   width="38.165001"
   height="2"
   id="rect196"
   style="fill:#111111" />
			<rect
   x="91.375999"
   y="312.884"
   clip-path="url(#SVGID_4_)"
   width="14.595"
   height="2"
   id="rect198"
   style="fill:#111111" />
			<rect
   x="545.77698"
   y="265.67499"
   clip-path="url(#SVGID_4_)"
   width="23.155001"
   height="96.989998"
   id="rect200"
   style="fill:#ea572e" />
			<circle
   clip-path="url(#SVGID_4_)"
   cx="557.35498"
   cy="347.36099"
   r="5.3130002"
   id="circle202"
   style="fill:#7c7e82" />
			<path
   clip-path="url(#SVGID_4_)"
   d="m 557.355,340.549 c -3.756,0 -6.812,3.057 -6.812,6.813 0,3.756 3.056,6.813 6.812,6.813 3.756,0 6.813,-3.057 6.813,-6.813 0,-3.756 -3.057,-6.813 -6.813,-6.813 z m 0,10.625 c -2.102,0 -3.812,-1.711 -3.812,-3.813 0,-2.102 1.71,-3.813 3.812,-3.813 2.102,0 3.813,1.711 3.813,3.813 0,2.102 -1.711,3.813 -3.813,3.813 z"
   id="path204"
   inkscape:connector-curvature="0"
   style="fill:#ffffff" />
			<rect
   x="568.93298"
   y="265.67499"
   clip-path="url(#SVGID_4_)"
   width="23.156"
   height="96.989998"
   id="rect206"
   style="fill:#f3a52d" />
			<rect
   x="592.08899"
   y="265.67499"
   clip-path="url(#SVGID_4_)"
   width="23.156"
   height="96.989998"
   id="rect208"
   style="fill:#3dc7d2" />
			<polygon
   clip-path="url(#SVGID_4_)"
   points="593.089,266.675 614.245,266.675 614.245,286.25 616.245,286.25 616.245,264.675 591.089,264.675 591.089,363.664 616.245,363.664 616.245,321 614.245,321 614.245,361.664 593.089,361.664 "
   id="polygon210"
   style="fill:#111111" />
			<rect
   x="614.245"
   y="295.75"
   clip-path="url(#SVGID_4_)"
   width="2"
   height="9.75"
   id="rect212"
   style="fill:#111111" />
			<polygon
   clip-path="url(#SVGID_4_)"
   points="569.934,266.675 591.089,266.675 591.089,286.25 593.089,286.25 593.089,264.675 567.934,264.675 567.934,363.664 593.089,363.664 593.089,321 591.089,321 591.089,361.664 569.934,361.664 "
   id="polygon214"
   style="fill:#111111" />
			<rect
   x="591.08899"
   y="295.75"
   clip-path="url(#SVGID_4_)"
   width="2"
   height="9.75"
   id="rect216"
   style="fill:#111111" />
			<polygon
   clip-path="url(#SVGID_4_)"
   points="546.777,307 544.777,307 544.777,363.664 569.934,363.664 569.934,264.675 544.777,264.675 544.777,272.25 546.777,272.25 546.777,266.675 567.934,266.675 567.934,361.664 546.777,361.664 "
   id="polygon218"
   style="fill:#111111" />
			<rect
   x="544.77698"
   y="274.16699"
   clip-path="url(#SVGID_4_)"
   width="2"
   height="24.917"
   id="rect220"
   style="fill:#111111" />
			<circle
   clip-path="url(#SVGID_4_)"
   cx="580.51099"
   cy="346.48001"
   r="5.3119998"
   id="circle222"
   style="fill:#7c7e82" />
			<path
   clip-path="url(#SVGID_4_)"
   d="m 580.511,339.668 c -3.756,0 -6.813,3.057 -6.813,6.813 0,3.755 3.057,6.811 6.813,6.811 3.756,0 6.812,-3.056 6.812,-6.811 -10e-4,-3.756 -3.056,-6.813 -6.812,-6.813 z m 0,10.623 c -2.103,0 -3.813,-1.709 -3.813,-3.811 0,-2.102 1.71,-3.813 3.813,-3.813 2.102,0 3.812,1.711 3.812,3.813 0,2.102 -1.711,3.811 -3.812,3.811 z"
   id="path224"
   inkscape:connector-curvature="0"
   style="fill:#ffffff" />
			<circle
   clip-path="url(#SVGID_4_)"
   cx="603.66602"
   cy="346.48001"
   r="5.3119998"
   id="circle226"
   style="fill:#7c7e82" />
			<path
   clip-path="url(#SVGID_4_)"
   d="m 603.667,339.668 c -3.756,0 -6.812,3.057 -6.812,6.813 0,3.755 3.056,6.811 6.812,6.811 3.756,0 6.812,-3.056 6.812,-6.811 0,-3.756 -3.056,-6.813 -6.812,-6.813 z m 0,10.623 c -2.103,0 -3.812,-1.709 -3.812,-3.811 0,-2.102 1.709,-3.813 3.812,-3.813 2.102,0 3.812,1.711 3.812,3.813 0,2.102 -1.71,3.811 -3.812,3.811 z"
   id="path228"
   inkscape:connector-curvature="0"
   style="fill:#ffffff" />
			<circle
   clip-path="url(#SVGID_4_)"
   cx="131.24899"
   cy="206.974"
   r="28.208"
   id="circle230"
   style="fill:#ffffff" />
			<path
   clip-path="url(#SVGID_4_)"
   d="m 131.249,177.766 c -16.105,0 -29.208,13.104 -29.208,29.208 0,16.104 13.103,29.208 29.208,29.208 16.105,0 29.208,-13.104 29.208,-29.208 0,-16.104 -13.103,-29.208 -29.208,-29.208 z m 0,56.416 c -15.002,0 -27.208,-12.206 -27.208,-27.208 0,-15.002 12.206,-27.208 27.208,-27.208 15.002,0 27.208,12.206 27.208,27.208 0,15.002 -12.207,27.208 -27.208,27.208 z"
   id="path232"
   inkscape:connector-curvature="0"
   style="fill:#111111" />
			<circle
   clip-path="url(#SVGID_4_)"
   cx="131.24899"
   cy="206.974"
   r="22.115"
   id="circle234"
   style="fill:#ea572e" />
			<circle
   clip-path="url(#SVGID_4_)"
   cx="131.248"
   cy="206.974"
   r="14.96"
   id="circle236"
   style="fill:#ffffff" />
			<path
   clip-path="url(#SVGID_4_)"
   d="m 131.249,191.014 c -8.801,0 -15.96,7.16 -15.96,15.959 0,8.802 7.159,15.961 15.96,15.961 8.801,0 15.96,-7.159 15.96,-15.961 -0.001,-8.799 -7.16,-15.959 -15.96,-15.959 z m 0,29.92 c -7.698,0 -13.96,-6.262 -13.96,-13.961 0,-7.696 6.262,-13.959 13.96,-13.959 7.698,0 13.96,6.263 13.96,13.959 -0.001,7.699 -6.263,13.961 -13.96,13.961 z"
   id="path238"
   inkscape:connector-curvature="0"
   style="fill:#111111" />
			<circle
   clip-path="url(#SVGID_4_)"
   cx="131.24899"
   cy="206.974"
   r="6.974"
   id="circle240"
   style="fill:#ea572e" />
			<rect
   x="89.970001"
   y="204.47501"
   clip-path="url(#SVGID_4_)"
   width="41.278999"
   height="5"
   id="rect242"
   style="fill:#111111" />
			<polygon
   clip-path="url(#SVGID_4_)"
   points="91.203,207.527 91.203,206.418 83.216,201.599 73.5,201.599 78.874,206.974 73.5,212.349 83.216,212.349 "
   id="polygon244"
   style="fill:#111111" />
		</g>
		<g
   id="g344">
			<defs
   id="defs249">
				<circle
   id="SVGID_5_"
   cx="678.76898"
   cy="176.964"
   r="29.677999" />
			</defs>
			<clipPath
   id="SVGID_6_">
				<use
   xlink:href="#SVGID_5_"
   overflow="visible"
   id="use251"
   style="overflow:visible"
   x="0"
   y="0"
   width="100%"
   height="100%" />
			</clipPath>
			<g
   clip-path="url(#SVGID_6_)"
   id="g342">
				<path
   d="m 628.371,148.787 v 15.717 c 0,0.625 0.507,1.131 1.131,1.131 h 15.101 c 0.624,0 1.13,-0.506 1.13,-1.131 0,-0.624 -0.506,-1.13 -1.13,-1.13 h -13.971 v -13.456 h 42.91 v -2.261 h -44.04 c -0.624,0 -1.131,0.506 -1.131,1.13 z"
   id="path254"
   inkscape:connector-curvature="0"
   style="fill:#7c7e82" />
				<path
   d="m 720.415,147.657 h -42.368 v 2.261 h 41.238 v 27.324 h -4.828 v -19.518 c 0,-0.625 -0.506,-1.131 -1.13,-1.131 h -6.78 c -0.624,0 -1.13,0.506 -1.13,1.131 v 19.518 h -21.06 c -0.625,0 -1.131,0.506 -1.131,1.13 0,0.625 0.506,1.131 1.131,1.131 h 22.189 c 0.624,0 1.13,-0.506 1.13,-1.131 v -19.517 h 4.519 v 19.517 c 0,0.625 0.507,1.131 1.132,1.131 h 7.088 c 0.625,0 1.13,-0.506 1.13,-1.131 v -29.585 c 0,-0.624 -0.505,-1.13 -1.13,-1.13 z"
   id="path256"
   inkscape:connector-curvature="0"
   style="fill:#7c7e82" />
				<path
   d="m 658.162,147.657 c -0.624,0 -1.13,0.506 -1.13,1.13 v 16.334 c 0,0.624 0.506,1.13 1.13,1.13 0.624,0 1.13,-0.506 1.13,-1.13 v -16.334 c 0,-0.624 -0.506,-1.13 -1.13,-1.13 z"
   id="path258"
   inkscape:connector-curvature="0"
   style="fill:#7c7e82" />
				<path
   d="m 672.398,147.657 c -0.624,0 -1.131,0.506 -1.131,1.13 v 9.246 c 0,0.624 0.507,1.13 1.131,1.13 0.624,0 1.13,-0.506 1.13,-1.13 v -9.246 c 0,-0.624 -0.506,-1.13 -1.13,-1.13 z"
   id="path260"
   inkscape:connector-curvature="0"
   style="fill:#7c7e82" />
				<path
   d="m 692.987,155.824 h -15.409 c -0.624,0 -1.131,0.506 -1.131,1.131 0,0.623 0.507,1.129 1.131,1.129 h 14.277 v 5.906 h -19.457 c -0.625,0 -1.131,0.506 -1.131,1.131 v 25.271 c 0,0.625 0.506,1.131 1.131,1.131 h 4.666 v 13.662 c 0,0.624 0.506,1.13 1.13,1.13 0.624,0 1.13,-0.506 1.13,-1.13 v -14.793 c 0,-0.624 -0.506,-1.13 -1.13,-1.13 h -4.666 v -23.01 h 19.459 c 0.624,0 1.13,-0.506 1.13,-1.131 v -8.166 c 0,-0.625 -0.506,-1.131 -1.13,-1.131 z"
   id="path262"
   inkscape:connector-curvature="0"
   style="fill:#7c7e82" />
				<path
   d="m 700.441,147.656 c -0.624,0 -1.131,0.506 -1.131,1.131 v 21.326 h -20.134 c -0.624,0 -1.13,0.506 -1.13,1.131 v 13.293 c 0,0.623 0.506,1.129 1.13,1.129 h 5.958 v 18.881 c 0,0.623 0.506,1.13 1.13,1.13 0.624,0 1.13,-0.507 1.13,-1.13 v -20.01 c 0,-0.625 -0.506,-1.132 -1.13,-1.132 h -5.958 v -11.032 h 20.135 c 0.625,0 1.131,-0.506 1.131,-1.129 v -22.457 c 0,-0.625 -0.506,-1.131 -1.131,-1.131 z"
   id="path264"
   inkscape:connector-curvature="0"
   style="fill:#7c7e82" />
				<path
   d="M 672.398,177.242 H 636.59 c -0.624,0 -1.13,0.506 -1.13,1.131 0,0.623 0.506,1.13 1.13,1.13 h 35.809 c 0.624,0 1.13,-0.507 1.13,-1.13 -10e-4,-0.625 -0.507,-1.131 -1.131,-1.131 z"
   id="path266"
   inkscape:connector-curvature="0"
   style="fill:#7c7e82" />
				<path
   d="m 672.397,196.35 h -6.017 v -12.43 c 0,-0.625 -0.506,-1.131 -1.13,-1.131 h -28.66 c -0.624,0 -1.13,0.506 -1.13,1.131 v 14.586 h -5.958 c -0.624,0 -1.131,0.506 -1.131,1.131 0,0.625 0.507,1.131 1.131,1.131 h 7.088 c 0.624,0 1.13,-0.506 1.13,-1.131 v -14.586 h 26.4 v 12.429 c 0,0.625 0.506,1.131 1.131,1.131 h 7.146 c 0.624,0 1.131,-0.506 1.131,-1.131 0,-0.625 -0.507,-1.13 -1.131,-1.13 z"
   id="path268"
   inkscape:connector-curvature="0"
   style="fill:#7c7e82" />
				<path
   d="m 660.628,196.965 h -8.548 v -4.057 h 6.082 c 0.625,0 1.131,-0.506 1.131,-1.13 0,-0.624 -0.506,-1.13 -1.131,-1.13 h -7.212 c -0.624,0 -1.13,0.506 -1.13,1.13 v 6.318 c 0,0.624 0.506,1.13 1.13,1.13 h 8.548 v 5.958 c 0,0.624 0.506,1.13 1.13,1.13 0.624,0 1.13,-0.506 1.13,-1.13 v -7.088 c 0,-0.624 -0.506,-1.131 -1.13,-1.131 z"
   id="path270"
   inkscape:connector-curvature="0"
   style="fill:#7c7e82" />
				<path
   d="m 643.678,189.262 c -0.624,0 -1.13,0.506 -1.13,1.13 v 14.793 c 0,0.624 0.506,1.13 1.13,1.13 0.624,0 1.13,-0.506 1.13,-1.13 v -14.793 c 0,-0.624 -0.506,-1.13 -1.13,-1.13 z"
   id="path272"
   inkscape:connector-curvature="0"
   style="fill:#7c7e82" />
				<path
   d="m 691.754,177.242 c -0.624,0 -1.13,0.506 -1.13,1.13 v 21.265 c 0,0.625 0.506,1.131 1.13,1.131 0.624,0 1.13,-0.506 1.13,-1.131 v -21.265 c 0,-0.624 -0.506,-1.13 -1.13,-1.13 z"
   id="path274"
   inkscape:connector-curvature="0"
   style="fill:#7c7e82" />
				<path
   d="m 720.415,182.789 h -20.032 c -0.624,0 -1.13,0.507 -1.13,1.131 v 7.859 c 0,0.623 0.506,1.129 1.13,1.129 h 12.944 c 0.624,0 1.13,-0.506 1.13,-1.129 0,-0.625 -0.506,-1.131 -1.13,-1.131 h -11.813 v -5.598 h 17.771 v 19.003 h -35.404 v 2.261 h 36.534 c 0.624,0 1.13,-0.506 1.13,-1.131 V 183.92 c 0,-0.624 -0.506,-1.131 -1.13,-1.131 z"
   id="path276"
   inkscape:connector-curvature="0"
   style="fill:#7c7e82" />
				<path
   d="m 630.632,172.415 h 33.694 c 0.624,0 1.13,-0.507 1.13,-1.13 v -14.332 c 0,-0.623 -0.506,-1.129 -1.13,-1.129 -0.624,0 -1.13,0.506 -1.13,1.129 v 13.201 h -33.694 c -0.625,0 -1.131,0.506 -1.131,1.131 v 33.898 c 0,0.625 0.506,1.131 1.131,1.131 h 49.592 v -2.261 h -48.462 z"
   id="path278"
   inkscape:connector-curvature="0"
   style="fill:#7c7e82" />
				<path
   d="M 713.326,197.352 H 699.15 c -0.624,0 -1.13,0.505 -1.13,1.13 v 6.703 c 0,0.624 0.506,1.13 1.13,1.13 0.624,0 1.13,-0.506 1.13,-1.13 v -5.573 h 13.046 c 0.624,0 1.13,-0.506 1.13,-1.13 0,-0.626 -0.506,-1.13 -1.13,-1.13 z"
   id="path280"
   inkscape:connector-curvature="0"
   style="fill:#7c7e82" />
				<path
   d="m 650.95,156.902 h -13.23 v -8.115 c 0,-0.624 -0.506,-1.13 -1.13,-1.13 -0.624,0 -1.13,0.506 -1.13,1.13 v 9.246 c 0,0.624 0.506,1.13 1.13,1.13 h 14.36 c 0.624,0 1.13,-0.506 1.13,-1.13 0,-0.625 -0.506,-1.131 -1.13,-1.131 z"
   id="path282"
   inkscape:connector-curvature="0"
   style="fill:#7c7e82" />
				<rect
   x="675.41602"
   y="146.189"
   width="1"
   height="1"
   id="rect284"
   style="fill:#ea572e" />
				<rect
   x="675.41602"
   y="148.33"
   width="1"
   height="1.14"
   id="rect286"
   style="fill:#ea572e" />
				<polygon
   points="675.416,152.109 676.916,152.109 676.916,151.109 676.416,151.109 676.416,150.609 675.416,150.609 "
   id="polygon288"
   style="fill:#ea572e" />
				<rect
   x="678.95203"
   y="151.10899"
   width="2.0350001"
   height="1"
   id="rect290"
   style="fill:#ea572e" />
				<rect
   x="683.02399"
   y="151.10899"
   width="2.0339999"
   height="1"
   id="rect292"
   style="fill:#ea572e" />
				<rect
   x="687.09497"
   y="151.10899"
   width="2.0350001"
   height="1"
   id="rect294"
   style="fill:#ea572e" />
				<rect
   x="691.16602"
   y="151.10899"
   width="2.0350001"
   height="1"
   id="rect296"
   style="fill:#ea572e" />
				<polygon
   points="695.736,152.609 696.736,152.609 696.736,151.109 695.236,151.109 695.236,152.109 695.736,152.109 "
   id="polygon298"
   style="fill:#ea572e" />
				<rect
   x="695.73602"
   y="163.02"
   width="1"
   height="2.082"
   id="rect300"
   style="fill:#ea572e" />
				<rect
   x="695.73602"
   y="154.69099"
   width="1"
   height="2.082"
   id="rect302"
   style="fill:#ea572e" />
				<rect
   x="695.73602"
   y="158.855"
   width="1"
   height="2.082"
   id="rect304"
   style="fill:#ea572e" />
				<polygon
   points="695.236,168.684 696.736,168.684 696.736,167.184 695.736,167.184 695.736,167.684 695.236,167.684 "
   id="polygon306"
   style="fill:#ea572e" />
				<rect
   x="678.77002"
   y="167.68401"
   width="2.0599999"
   height="1"
   id="rect308"
   style="fill:#ea572e" />
				<rect
   x="682.88702"
   y="167.68401"
   width="2.059"
   height="1"
   id="rect310"
   style="fill:#ea572e" />
				<rect
   x="687.00299"
   y="167.68401"
   width="2.0599999"
   height="1"
   id="rect312"
   style="fill:#ea572e" />
				<rect
   x="691.12"
   y="167.68401"
   width="2.059"
   height="1"
   id="rect314"
   style="fill:#ea572e" />
				<polygon
   points="676.212,168.684 676.712,168.684 676.712,167.684 675.212,167.684 675.212,169.184 676.212,169.184 "
   id="polygon316"
   style="fill:#ea572e" />
				<rect
   x="675.21198"
   y="178.623"
   width="1"
   height="1.887"
   id="rect318"
   style="fill:#ea572e" />
				<rect
   x="675.21198"
   y="182.396"
   width="1"
   height="1.8890001"
   id="rect320"
   style="fill:#ea572e" />
				<rect
   x="675.21198"
   y="174.84801"
   width="1"
   height="1.887"
   id="rect322"
   style="fill:#ea572e" />
				<rect
   x="675.21198"
   y="171.07001"
   width="1"
   height="1.8890001"
   id="rect324"
   style="fill:#ea572e" />
				<polygon
   points="675.212,187.673 676.712,187.673 676.712,186.673 676.212,186.673 676.212,186.173 675.212,186.173 "
   id="polygon326"
   style="fill:#ea572e" />
				<rect
   x="677.966"
   y="186.673"
   width="1.253"
   height="1"
   id="rect328"
   style="fill:#ea572e" />
				<polygon
   points="680.972,188.173 681.972,188.173 681.972,186.673 680.472,186.673 680.472,187.673 680.972,187.673 "
   id="polygon330"
   style="fill:#ea572e" />
				<rect
   x="680.97198"
   y="202.313"
   width="1"
   height="2.0209999"
   id="rect332"
   style="fill:#ea572e" />
				<rect
   x="680.97198"
   y="198.27299"
   width="1"
   height="2.02"
   id="rect334"
   style="fill:#ea572e" />
				<rect
   x="680.97198"
   y="190.19299"
   width="1"
   height="2.02"
   id="rect336"
   style="fill:#ea572e" />
				<rect
   x="680.97198"
   y="194.23199"
   width="1"
   height="2.0209999"
   id="rect338"
   style="fill:#ea572e" />
				<rect
   x="680.97198"
   y="206.354"
   width="1"
   height="1"
   id="rect340"
   style="fill:#ea572e" />
			</g>
		</g>
		<path
   d="M 250.13,269.888 H 131.22 c -4.219,0 -7.639,3.499 -7.639,7.817 v 77.623 h 134.187 v -77.623 c 0.001,-4.318 -3.418,-7.817 -7.638,-7.817 z"
   id="path346"
   inkscape:connector-curvature="0"
   style="fill:#7c7e82" />
		<rect
   x="165.543"
   y="268.88699"
   width="52.588001"
   height="2"
   id="rect348"
   style="fill:#111111" />
		<rect
   x="225.186"
   y="268.88699"
   width="8.5509996"
   height="2"
   id="rect350"
   style="fill:#111111" />
		<path
   d="m 250.13,268.888 h -9.794 v 2 h 9.794 c 3.66,0 6.638,3.058 6.638,6.817 v 76.623 H 124.582 v -76.623 c 0,-3.76 2.979,-6.817 6.639,-6.817 h 21.492 v -2 H 131.22 c -4.764,0 -8.639,3.955 -8.639,8.817 v 78.623 h 136.187 v -78.623 c 0.001,-4.862 -3.874,-8.817 -8.638,-8.817 z"
   id="path352"
   inkscape:connector-curvature="0"
   style="fill:#111111" />
		<path
   d="m 116.742,358.998 c 0,2.025 1.605,3.669 3.585,3.669 h 140.697 c 1.98,0 3.584,-1.644 3.584,-3.669 v -3.67 H 116.742 Z"
   id="path354"
   inkscape:connector-curvature="0"
   style="fill:#7c7e82" />
		<path
   d="m 115.742,358.998 c 0,2.574 2.057,4.669 4.585,4.669 h 140.697 c 2.528,0 4.584,-2.095 4.584,-4.669 v -4.67 H 115.742 Z m 2,-2.67 h 145.866 v 2.67 c 0,1.472 -1.159,2.669 -2.584,2.669 H 120.327 c -1.425,0 -2.585,-1.197 -2.585,-2.669 z"
   id="path356"
   inkscape:connector-curvature="0"
   style="fill:#111111" />
		<rect
   x="130.24699"
   y="277.29599"
   width="120.857"
   height="72.028999"
   id="rect358"
   style="fill:#e6e6e6" />
		<rect
   x="178.153"
   y="281.89301"
   width="4.2140002"
   height="2"
   id="rect360"
   style="fill:#111111" />
		<rect
   x="166.45399"
   y="281.89301"
   width="4.2140002"
   height="2"
   id="rect362"
   style="fill:#111111" />
		<rect
   x="154.756"
   y="281.89301"
   width="4.2129998"
   height="2"
   id="rect364"
   style="fill:#111111" />
		<rect
   x="154.756"
   y="289.896"
   width="65.512001"
   height="2"
   id="rect366"
   style="fill:#111111" />
		<rect
   x="154.756"
   y="297.802"
   width="65.512001"
   height="2"
   id="rect368"
   style="fill:#111111" />
		<rect
   x="154.756"
   y="305.70801"
   width="29.910999"
   height="2"
   id="rect370"
   style="fill:#111111" />
		<rect
   x="154.756"
   y="313.548"
   width="65.512001"
   height="2"
   id="rect372"
   style="fill:#111111" />
		<polygon
   points="197.693,332.496 177.31,327.273 146.026,339.503 146.755,341.365 177.438,329.371 197.856,334.602 231.768,320.061 230.98,318.223 "
   id="polygon374"
   style="fill:#111111" />
		<circle
   cx="197.774"
   cy="333.547"
   r="3.395"
   id="circle376"
   style="fill:#f7da44" />
		<circle
   cx="231.375"
   cy="319.142"
   r="3.3940001"
   id="circle378"
   style="fill:#f7da44" />
		<circle
   cx="177.375"
   cy="328.323"
   r="3.395"
   id="circle380"
   style="fill:#f7da44" />
		<circle
   cx="146.39101"
   cy="340.436"
   r="3.395"
   id="circle382"
   style="fill:#f7da44" />
		<path
   d="m 190.629,229.506 c -9.183,0 -19.181,7.108 -19.181,18.967 0,18.047 19.227,37.117 19.227,37.117 0,0 19.226,-19.381 19.226,-37.117 0,-11.859 -10.612,-18.967 -19.272,-18.967 z m 4.763,27.101 c -1.28,0.783 -2.853,1.257 -4.717,1.281 -2.616,-0.035 -4.658,-0.955 -6.124,-2.369 -5.389,-4.996 -3.338,-16.539 6.163,-16.539 10.283,0 11.839,13.522 4.678,17.627 z"
   id="path384"
   inkscape:connector-curvature="0"
   style="clip-rule:evenodd;fill:#ea572e;fill-rule:evenodd" />
		<path
   d="m 181.392,235.92 c -0.86,0.643 -1.656,1.378 -2.365,2.182 l 1.5,1.322 c 0.619,-0.701 1.313,-1.341 2.063,-1.902 z"
   id="path386"
   inkscape:connector-curvature="0"
   style="fill:#111111" />
		<path
   d="m 177.19,256.139 c 0.533,0.93 1.165,1.81 1.88,2.612 l 1.494,-1.328 c -0.623,-0.702 -1.175,-1.468 -1.639,-2.278 z"
   id="path388"
   inkscape:connector-curvature="0"
   style="fill:#111111" />
		<path
   d="m 182.329,261.534 c 0.908,0.58 1.876,1.065 2.878,1.444 l 0.707,-1.871 c -0.872,-0.328 -1.716,-0.752 -2.507,-1.26 z"
   id="path390"
   inkscape:connector-curvature="0"
   style="fill:#111111" />
		<path
   d="m 205.688,244.094 c -0.297,-1.033 -0.703,-2.037 -1.207,-2.986 l -1.766,0.938 c 0.439,0.827 0.792,1.701 1.051,2.601 z"
   id="path392"
   inkscape:connector-curvature="0"
   style="fill:#111111" />
		<path
   d="m 177.145,248.898 -1.999,0.072 c 0.039,1.078 0.189,2.151 0.446,3.188 l 1.941,-0.481 c -0.224,-0.904 -0.355,-1.838 -0.388,-2.779 z"
   id="path394"
   inkscape:connector-curvature="0"
   style="fill:#111111" />
		<path
   d="m 178.462,242.54 -1.802,-0.866 c -0.465,0.969 -0.829,1.989 -1.084,3.035 l 1.944,0.473 c 0.221,-0.911 0.539,-1.8 0.942,-2.642 z"
   id="path396"
   inkscape:connector-curvature="0"
   style="fill:#111111" />
		<path
   d="m 195.974,260.924 0.776,1.844 c 0.987,-0.416 1.937,-0.937 2.821,-1.549 l -1.138,-1.645 c -0.771,0.533 -1.598,0.987 -2.459,1.35 z"
   id="path398"
   inkscape:connector-curvature="0"
   style="fill:#111111" />
		<path
   d="m 199.518,235.549 -1.131,1.649 c 0.772,0.528 1.491,1.141 2.138,1.817 l 1.446,-1.382 c -0.743,-0.776 -1.568,-1.477 -2.453,-2.084 z"
   id="path400"
   inkscape:connector-curvature="0"
   style="fill:#111111" />
		<path
   d="m 185.146,233.85 0.714,1.867 c 0.876,-0.335 1.787,-0.578 2.709,-0.725 l -0.312,-1.975 c -1.06,0.167 -2.107,0.448 -3.111,0.833 z"
   id="path402"
   inkscape:connector-curvature="0"
   style="fill:#111111" />
		<path
   d="m 204.004,251.193 1.958,0.408 c 0.219,-1.047 0.33,-2.123 0.33,-3.199 v -0.061 l -2,0.061 c 0,0.94 -0.097,1.879 -0.288,2.791 z"
   id="path404"
   inkscape:connector-curvature="0"
   style="fill:#111111" />
		<path
   d="m 201.186,257.045 1.542,1.273 c 0.685,-0.829 1.285,-1.73 1.784,-2.68 l -1.771,-0.93 c -0.434,0.828 -0.958,1.613 -1.555,2.337 z"
   id="path406"
   inkscape:connector-curvature="0"
   style="fill:#111111" />
		<path
   d="m 192.307,234.917 c 0.934,0.108 1.855,0.315 2.738,0.613 l 0.638,-1.896 c -1.015,-0.341 -2.072,-0.577 -3.142,-0.704 z"
   id="path408"
   inkscape:connector-curvature="0"
   style="fill:#111111" />
		<path
   d="m 189.556,261.932 -0.166,1.992 c 0.436,0.038 0.878,0.057 1.323,0.057 0.633,0 1.269,-0.039 1.892,-0.113 l -0.24,-1.986 c -0.927,0.113 -1.886,0.127 -2.809,0.05 z"
   id="path410"
   inkscape:connector-curvature="0"
   style="fill:#111111" />
		<path
   d="m 290.682,186.845 c -22.798,0 -41.278,18.481 -41.278,41.278 V 295.1 c 0,18.117 14.686,32.804 32.803,32.804 h 16.949 c 18.117,0 32.804,-14.687 32.804,-32.804 v -66.977 c 0,-22.797 -18.481,-41.278 -41.278,-41.278 z"
   id="path412"
   inkscape:connector-curvature="0"
   style="fill:#ea572e" />
		<path
   d="m 290.681,185.844 c -23.312,0 -42.277,18.967 -42.277,42.278 V 295.1 c 0,18.64 15.164,33.804 33.803,33.804 h 16.949 c 18.64,0 33.804,-15.164 33.804,-33.804 v -35.432 h -2 V 295.1 c 0,17.537 -14.267,31.804 -31.804,31.804 h -16.949 c -17.536,0 -31.803,-14.267 -31.803,-31.804 v -66.978 c 0,-22.21 18.068,-40.278 40.278,-40.278 22.209,0 40.278,18.068 40.278,40.278 V 250 h 2 v -21.878 c 0,-23.311 -18.966,-42.278 -42.279,-42.278 z"
   id="path414"
   inkscape:connector-curvature="0"
   style="fill:#111111" />
		<path
   d="m 315.689,271.44 h -53.012 c -14.293,0 -25.88,11.587 -25.88,25.88 v 65.434 h 107.769 v -62.437 c 0,-15.948 -12.929,-28.877 -28.877,-28.877 z"
   id="path416"
   inkscape:connector-curvature="0"
   style="fill:#3dc7d2" />
		<path
   d="m 315.689,270.44 h -53.012 c -14.822,0 -26.88,12.06 -26.88,26.88 v 65.434 h 2 V 297.32 c 0,-13.719 11.161,-24.88 24.88,-24.88 h 53.012 c 15.372,0 27.877,12.506 27.877,27.877 v 62.437 h 2 v -62.437 c 0,-16.473 -13.402,-29.877 -29.877,-29.877 z"
   id="path418"
   inkscape:connector-curvature="0"
   style="fill:#111111" />
		<polygon
   points="313.99,271.396 267.37,271.396 291.042,309.104 "
   id="polygon420"
   style="fill:#e6e6e6" />
		<polygon
   points="299.129,293.894 300.838,294.934 315.769,270.396 265.562,270.396 291.056,311.006 296.87,301.452 295.162,300.412 291.03,307.202 269.179,272.396 312.211,272.396 "
   id="polygon422"
   style="fill:#111111" />
		<path
   d="m 296.489,259.726 h -11.621 c -2.564,0 -4.643,2.078 -4.643,4.642 v 7.238 c 0,5.778 4.684,10.461 10.461,10.461 5.773,0 10.453,-4.68 10.453,-10.453 v -7.238 c 0,-2.568 -2.082,-4.65 -4.65,-4.65 z"
   id="path424"
   inkscape:connector-curvature="0"
   style="fill:#ffffff" />
		<path
   d="m 290.686,281.973 c -5.703,0 -10.342,-4.64 -10.342,-10.342 h -2 c 0,6.805 5.536,12.342 12.342,12.342 6.801,0 12.333,-5.533 12.333,-12.334 h -2 c 0,5.698 -4.635,10.334 -10.333,10.334 z"
   id="path426"
   inkscape:connector-curvature="0"
   style="fill:#111111" />
		<path
   d="m 290.682,199.883 c -6.755,0 -13.014,2.138 -18.128,5.783 -1.432,1.02 -2.767,2.146 -4.008,3.387 -5.667,5.667 -9.169,13.49 -9.169,22.136 v 4.179 c 0,17.289 14.016,31.307 31.305,31.307 8.645,0 16.469,-3.502 22.137,-9.17 5.667,-5.668 9.169,-13.491 9.169,-22.137 v -4.179 c -10e-4,-17.29 -14.016,-31.306 -31.306,-31.306 z"
   id="path428"
   inkscape:connector-curvature="0"
   style="fill:#ffffff" />
		<path
   d="m 274.058,198.6 c 0,0 6.299,31.984 54.135,31.984 0,0 -2.953,-48.102 -54.135,-31.984 z"
   id="path430"
   inkscape:connector-curvature="0"
   style="fill:#ea572e" />
		<path
   d="m 313.958,230.535 c 4.441,0.696 9.231,1.049 14.235,1.049 v -2 c -4.901,0 -9.586,-0.345 -13.925,-1.024 z"
   id="path432"
   inkscape:connector-curvature="0"
   style="fill:#111111" />
		<path
   d="m 283.173,213.1 -1.49,1.334 c 5.841,6.527 13.666,11.27 23.257,14.096 l 0.565,-1.918 c -9.229,-2.72 -16.742,-7.266 -22.332,-13.512 z"
   id="path434"
   inkscape:connector-curvature="0"
   style="fill:#111111" />
		<path
   d="m 273.078,198.793 c 0.042,0.215 1.087,5.344 5.375,11.545 l 1.646,-1.138 c -4.035,-5.835 -5.05,-10.745 -5.06,-10.795 z"
   id="path436"
   inkscape:connector-curvature="0"
   style="fill:#111111" />
		<path
   d="m 274.89,247.993 c 2.376,6.675 8.723,11.16 15.793,11.16 7.073,0 13.419,-4.485 15.792,-11.16 l 0.474,-1.335 h -32.535 z m 29.151,0.665 c -2.413,5.135 -7.613,8.495 -13.358,8.495 -5.742,0 -10.943,-3.361 -13.359,-8.495 z"
   id="path438"
   inkscape:connector-curvature="0"
   style="fill:#111111" />
		<rect
   x="323.05099"
   y="330.15201"
   width="2"
   height="32.514999"
   id="rect440"
   style="fill:#111111" />
		<rect
   x="323.05099"
   y="308.952"
   width="2"
   height="15.381"
   id="rect442"
   style="fill:#111111" />
		<rect
   x="256.31299"
   y="330.15201"
   width="2"
   height="32.514999"
   id="rect444"
   style="fill:#111111" />
		<rect
   x="256.31299"
   y="308.952"
   width="2"
   height="15.381"
   id="rect446"
   style="fill:#111111" />
		<rect
   x="290.04199"
   y="309.10501"
   width="2"
   height="21.047001"
   id="rect448"
   style="fill:#111111" />
		<path
   d="m 523.119,271.44 h -37.61 c -23.508,0 -35.8,15.298 -35.8,38.797 v 52.517 h 113.494 v -52.517 c 0,-23.499 -16.576,-38.797 -40.084,-38.797 z"
   id="path450"
   inkscape:connector-curvature="0"
   style="fill:#7c7e82" />
		<path
   d="m 523.119,270.44 h -37.61 c -23.043,0 -36.8,14.877 -36.8,39.797 v 52.517 h 2 v -52.517 c 0,-24.021 12.684,-37.797 34.8,-37.797 h 37.61 c 23.377,0 39.084,15.188 39.084,37.797 v 52.517 h 2 v -52.517 c 0,-23.803 -16.511,-39.797 -41.084,-39.797 z"
   id="path452"
   inkscape:connector-curvature="0"
   style="fill:#111111" />
		<polygon
   points="525.263,271.44 487.648,271.44 506.745,317.459 "
   id="polygon454"
   style="fill:#3dc7d2" />
		<polygon
   points="513.009,299.139 514.864,299.887 526.681,270.521 486.213,270.521 506.762,320.021 511.674,307.814 509.818,307.066 506.732,314.736 489.209,272.521 523.72,272.521 "
   id="polygon456"
   style="fill:#111111" />
		<rect
   x="505.74701"
   y="338.30499"
   width="2"
   height="14.028"
   id="rect458"
   style="fill:#111111" />
		<rect
   x="505.74701"
   y="317.379"
   width="2"
   height="9.6389999"
   id="rect460"
   style="fill:#111111" />
		<path
   d="m 506.439,261.155 c -11.141,0 -20.172,9.032 -20.172,20.172 0,0 0.316,15.095 3.366,17.482 3.845,3.011 16.806,-10.628 16.806,-10.628 0,0 12.962,13.639 16.806,10.628 3.05,-2.388 3.366,-17.482 3.366,-17.482 0,-11.139 -9.031,-20.172 -20.172,-20.172 z"
   id="path462"
   inkscape:connector-curvature="0"
   style="fill:#ffffff" />
		<path
   d="m 506.439,260.156 c -11.674,0 -21.172,9.496 -21.172,21.192 0.055,2.599 0.491,15.696 3.75,18.248 0.548,0.429 1.225,0.647 2.012,0.647 4.572,0 12.79,-7.963 15.41,-10.625 2.62,2.662 10.839,10.625 15.41,10.625 0.787,0 1.464,-0.219 2.012,-0.647 3.259,-2.552 3.695,-15.649 3.75,-18.269 0,-11.675 -9.498,-21.171 -21.172,-21.171 z m 16.189,37.866 c -0.189,0.149 -0.444,0.222 -0.778,0.222 -3.663,0 -11.843,-7.761 -14.686,-10.75 l -0.725,-0.764 -0.725,0.764 c -2.842,2.989 -11.021,10.75 -14.686,10.75 -0.334,0 -0.589,-0.072 -0.779,-0.222 -1.845,-1.444 -2.854,-10.646 -2.982,-16.694 0,-10.572 8.601,-19.172 19.172,-19.172 10.571,0 19.172,8.6 19.172,19.15 -0.128,6.071 -1.137,15.272 -2.983,16.716 z"
   id="path464"
   inkscape:connector-curvature="0"
   style="fill:#111111" />
		<path
   d="M 513.349,252.635 H 499.53 c -3.06,0 -5.529,2.471 -5.529,5.52 v 12.771 c 0,6.866 5.572,12.44 12.438,12.44 3.435,0 6.546,-1.392 8.793,-3.647 2.256,-2.247 3.647,-5.358 3.647,-8.793 v -12.771 c 0,-3.05 -2.471,-5.52 -5.53,-5.52 z"
   id="path466"
   inkscape:connector-curvature="0"
   style="fill:#ffffff" />
		<path
   d="M 513.349,251.635 H 499.53 c -3.601,0 -6.53,2.924 -6.53,6.52 v 12.771 c 0,7.411 6.029,13.44 13.44,13.44 3.597,0 6.971,-1.4 9.497,-3.938 2.542,-2.53 3.942,-5.905 3.942,-9.502 v -12.771 c 0,-3.596 -2.93,-6.52 -6.53,-6.52 z m 4.53,19.29 c 0,3.062 -1.19,5.933 -3.356,8.087 -2.151,2.162 -5.022,3.354 -8.083,3.354 -6.309,0 -11.44,-5.133 -11.44,-11.44 v -12.771 c 0,-2.492 2.032,-4.52 4.53,-4.52 h 13.819 c 2.498,0 4.53,2.027 4.53,4.52 z"
   id="path468"
   inkscape:connector-curvature="0"
   style="fill:#111111" />
		<path
   d="m 515.405,186.052 h -17.931 c -14.571,0 -26.426,11.853 -26.426,26.425 v 13.113 c 0,14.571 11.854,26.426 26.426,26.426 h 17.931 c 14.571,0 26.424,-11.854 26.424,-26.426 v -13.113 c 0,-14.573 -11.852,-26.425 -26.424,-26.425 z"
   id="path470"
   inkscape:connector-curvature="0"
   style="fill:#ffffff" />
		<path
   d="m 515.405,185.051 h -17.931 c -15.122,0 -27.425,12.304 -27.425,27.424 v 13.115 c 0,15.123 12.303,27.426 27.425,27.426 h 17.931 c 15.121,0 27.423,-12.303 27.423,-27.426 v -13.115 c 0,-15.121 -12.302,-27.424 -27.423,-27.424 z m 25.423,40.539 c 0,14.021 -11.404,25.426 -25.423,25.426 h -17.931 c -14.02,0 -25.425,-11.405 -25.425,-25.426 v -13.115 c 0,-14.019 11.405,-25.424 25.425,-25.424 h 17.931 c 14.019,0 25.423,11.405 25.423,25.424 z"
   id="path472"
   inkscape:connector-curvature="0"
   style="fill:#111111" />
		<path
   d="m 506.719,186.516 h -0.559 c -15.271,0 -27.649,12.379 -27.649,27.648 v 22.244 c 0,15.27 12.379,27.648 27.649,27.648 h 0.559 c 15.271,0 27.649,-12.379 27.649,-27.648 v -22.244 c 0,-15.269 -12.379,-27.648 -27.649,-27.648 z"
   id="path474"
   inkscape:connector-curvature="0"
   style="fill:#ffffff" />
		<path
   d="m 506.719,185.515 h -0.559 c -15.797,0 -28.649,12.853 -28.649,28.649 v 22.244 c 0,15.797 12.853,28.648 28.649,28.648 h 0.559 c 15.797,0 28.649,-12.852 28.649,-28.648 v -22.244 c 0,-15.797 -12.852,-28.649 -28.649,-28.649 z m 26.649,50.893 c 0,14.694 -11.955,26.648 -26.649,26.648 h -0.559 c -14.694,0 -26.649,-11.954 -26.649,-26.648 v -22.244 c 0,-14.694 11.955,-26.649 26.649,-26.649 h 0.559 c 14.694,0 26.649,11.955 26.649,26.649 z"
   id="path476"
   inkscape:connector-curvature="0"
   style="fill:#111111" />
		<path
   d="m 489.585,242.979 c 2.532,7.124 9.305,11.91 16.854,11.91 7.546,0 14.32,-4.786 16.856,-11.91 l 0.476,-1.335 h -34.66 z m 31.28,0.665 c -2.58,5.584 -8.208,9.245 -14.427,9.245 -6.221,0 -11.849,-3.661 -14.425,-9.245 z"
   id="path478"
   inkscape:connector-curvature="0"
   style="fill:#111111" />
		<path
   d="m 471.05,210.582 h 64.976 c 9.151,0 16.57,-7.419 16.57,-16.57 V 179.51 h -41.18 c -21.526,0 -40.366,10.127 -40.366,31.072 z"
   id="path480"
   inkscape:connector-curvature="0"
   style="fill:#ffffff" />
		<rect
   x="476.345"
   y="209.582"
   width="15.589"
   height="2"
   id="rect482"
   style="fill:#111111" />
		<rect
   x="496.5"
   y="209.582"
   width="7.3499999"
   height="2"
   id="rect484"
   style="fill:#111111" />
		<path
   d="m 470.05,210.582 h 2 c 0,-22.197 21.206,-30.073 39.366,-30.073 h 40.181 v 13.502 c 0,8.587 -6.985,15.571 -15.571,15.571 H 506.44 v 2 h 29.586 c 9.688,0 17.571,-7.882 17.571,-17.571 v -15.502 h -42.181 c -25.129,0 -41.366,12.591 -41.366,32.073 z"
   id="path486"
   inkscape:connector-curvature="0"
   style="fill:#111111" />
		<rect
   x="540.75598"
   y="337.74301"
   width="2"
   height="25.01"
   id="rect488"
   style="fill:#111111" />
		<rect
   x="540.75598"
   y="313.51401"
   width="2"
   height="17.625"
   id="rect490"
   style="fill:#111111" />
		<rect
   x="470.155"
   y="337.74301"
   width="2"
   height="25.01"
   id="rect492"
   style="fill:#111111" />
		<rect
   x="470.155"
   y="313.51401"
   width="2"
   height="10.225"
   id="rect494"
   style="fill:#111111" />
		<path
   d="m 426.313,260.271 h -55.99 c -18.784,0 -34.012,15.227 -34.012,34.012 v 68.471 h 127.377 v -65.107 c 0,-20.643 -16.734,-37.376 -37.375,-37.376 z"
   id="path496"
   inkscape:connector-curvature="0"
   style="fill:#ea572e" />
		<path
   d="m 426.313,259.271 h -55.99 c -19.306,0 -35.012,15.706 -35.012,35.011 v 68.472 h 2 v -68.472 c 0,-18.202 14.809,-33.011 33.012,-33.011 h 55.99 c 20.058,0 36.375,16.316 36.375,36.375 v 65.107 h 2 v -65.107 c 0,-21.16 -17.214,-38.375 -38.375,-38.375 z"
   id="path498"
   inkscape:connector-curvature="0"
   style="fill:#111111" />
		<path
   d="m 400.307,159.377 h -0.613 c -22.44,0 -40.696,18.256 -40.696,40.697 v 0.381 c 0,22.442 18.256,40.696 40.696,40.696 h 0.613 c 22.439,0 40.696,-18.254 40.696,-40.696 v -0.381 c 0,-22.441 -18.257,-40.697 -40.696,-40.697 z"
   id="path500"
   inkscape:connector-curvature="0"
   style="fill:#7c7e82" />
		<path
   d="m 421.073,163.926 -1,1.732 c 12.293,7.09 19.93,20.276 19.93,34.415 v 0.382 c 0,21.889 -17.808,39.696 -39.696,39.696 h -0.612 c -21.889,0 -39.697,-17.808 -39.697,-39.696 v -0.382 c 0,-14.362 7.815,-27.651 20.396,-34.68 l -0.976,-1.746 c -13.212,7.382 -21.42,21.34 -21.42,36.426 v 0.382 c 0,22.991 18.705,41.696 41.697,41.696 h 0.612 c 22.991,0 41.696,-18.705 41.696,-41.696 v -0.382 c 0,-14.851 -8.02,-28.702 -20.93,-36.147 z"
   id="path502"
   inkscape:connector-curvature="0"
   style="fill:#111111" />
		<polygon
   points="419.396,274.634 380.604,274.634 400.298,306.014 "
   id="polygon504"
   style="fill:#3dc7d2" />
		<polygon
   points="406.86,293.256 408.569,294.296 421.11,273.688 378.861,273.688 400.314,307.861 405.279,299.701 403.57,298.662 400.288,304.057 382.478,275.688 417.552,275.688 "
   id="polygon506"
   style="fill:#111111" />
		<path
   d="m 400,250.699 c -11.237,0 -20.346,9.109 -20.346,20.346 0,0 0.319,15.224 3.395,17.633 3.877,3.037 16.951,-10.719 16.951,-10.719 0,0 13.073,13.756 16.95,10.719 3.076,-2.409 3.396,-17.633 3.396,-17.633 0,-11.236 -9.11,-20.346 -20.346,-20.346 z"
   id="path508"
   inkscape:connector-curvature="0"
   style="fill:#ffffff" />
		<path
   d="m 400,249.699 c -11.771,0 -21.346,9.576 -21.346,21.367 0.055,2.62 0.495,15.827 3.778,18.398 0.551,0.432 1.232,0.65 2.024,0.65 h 10e-4 c 4.612,0 12.907,-8.041 15.543,-10.72 2.636,2.679 10.931,10.72 15.543,10.72 0.792,0 1.473,-0.219 2.023,-0.65 3.283,-2.571 3.724,-15.778 3.779,-18.42 10e-4,-11.769 -9.574,-21.345 -21.345,-21.345 z m 16.334,38.192 c -0.193,0.151 -0.452,0.225 -0.791,0.225 -3.697,0 -11.95,-7.83 -14.818,-10.846 l -0.725,-0.762 -0.725,0.762 c -2.868,3.018 -11.121,10.846 -14.819,10.846 -0.339,0 -0.597,-0.073 -0.79,-0.225 -1.863,-1.46 -2.883,-10.742 -3.012,-16.846 0,-10.668 8.679,-19.346 19.346,-19.346 10.667,0 19.346,8.678 19.346,19.324 -0.129,6.125 -1.149,15.408 -3.012,16.868 z"
   id="path510"
   inkscape:connector-curvature="0"
   style="fill:#111111" />
		<path
   d="m 407.564,246.684 h -15.129 c -3.341,0 -6.058,2.707 -6.058,6.049 v 13.543 c 0,3.342 2.717,6.049 6.058,6.049 h 15.129 c 3.342,0 6.059,-2.707 6.059,-6.049 v -13.543 c 0,-3.342 -2.717,-6.049 -6.059,-6.049 z"
   id="path512"
   inkscape:connector-curvature="0"
   style="fill:#ffffff" />
		<path
   d="m 407.565,245.684 h -15.13 c -3.892,0 -7.058,3.162 -7.058,7.049 v 13.543 c 0,3.887 3.166,7.049 7.058,7.049 h 15.13 c 3.892,0 7.058,-3.162 7.058,-7.049 v -13.543 c 0,-3.887 -3.166,-7.049 -7.058,-7.049 z m 5.058,20.591 c 0,2.783 -2.269,5.049 -5.058,5.049 h -15.13 c -2.789,0 -5.058,-2.266 -5.058,-5.049 v -13.543 c 0,-2.783 2.269,-5.049 5.058,-5.049 h 15.13 c 2.789,0 5.058,2.266 5.058,5.049 z"
   id="path514"
   inkscape:connector-curvature="0"
   style="fill:#111111" />
		<path
   d="m 400.306,169.801 h -0.611 c -16.72,0 -30.273,13.555 -30.273,30.274 v 24.354 c 0,16.721 13.553,30.273 30.273,30.273 h 0.611 c 16.72,0 30.273,-13.553 30.273,-30.273 v -24.354 c 0,-16.72 -13.554,-30.274 -30.273,-30.274 z"
   id="path516"
   inkscape:connector-curvature="0"
   style="fill:#ffffff" />
		<path
   d="m 400.306,168.801 h -0.612 c -17.244,0 -31.273,14.029 -31.273,31.273 v 24.355 c 0,17.244 14.029,31.273 31.273,31.273 h 0.612 c 17.244,0 31.273,-14.029 31.273,-31.273 v -24.355 c 0,-17.244 -14.029,-31.273 -31.273,-31.273 z m 29.273,55.629 c 0,16.143 -13.132,29.273 -29.273,29.273 h -0.612 c -16.142,0 -29.273,-13.131 -29.273,-29.273 v -24.355 c 0,-16.141 13.131,-29.273 29.273,-29.273 h 0.612 c 16.142,0 29.273,13.133 29.273,29.273 z"
   id="path518"
   inkscape:connector-curvature="0"
   style="fill:#111111" />
		<path
   d="m 381.635,231.593 c 2.763,7.763 10.144,12.978 18.365,12.978 8.227,0 15.606,-5.215 18.365,-12.978 l 0.475,-1.335 h -37.681 z m 34.308,0.665 c -2.807,6.223 -9.044,10.313 -15.943,10.313 -6.896,0 -13.132,-4.09 -15.943,-10.313 z"
   id="path520"
   inkscape:connector-curvature="0"
   style="fill:#111111" />
		<path
   d="m 407.943,167.285 c -5.328,-1.133 -21.39,2.172 -21.39,2.172 l -9.455,6.218 -8.557,9.563 v 6.082 c 5.451,5.271 14.643,8.727 25.081,8.727 16.778,0 30.377,-8.946 30.377,-19.982 0,-1.08 -0.13,-2.141 -0.38,-3.175 10e-4,0 -11.119,-8.635 -15.676,-9.605 z"
   id="path522"
   inkscape:connector-curvature="0"
   style="fill:#7c7e82" />
		<path
   d="m 367.846,192.039 c 4.925,4.762 12.666,7.967 21.24,8.792 l 0.191,-1.991 c -8.131,-0.781 -15.436,-3.785 -20.041,-8.238 z"
   id="path524"
   inkscape:connector-curvature="0"
   style="fill:#111111" />
		<path
   d="m 422.648,177.125 c 0.234,0.965 0.353,1.953 0.353,2.939 0,7.952 -7.79,15.125 -19.385,17.85 l 0.457,1.947 c 12.518,-2.941 20.928,-10.896 20.928,-19.797 0,-1.145 -0.138,-2.292 -0.409,-3.411 z"
   id="path526"
   inkscape:connector-curvature="0"
   style="fill:#111111" />
		<rect
   x="436.884"
   y="332.83401"
   width="2"
   height="29.934"
   id="rect528"
   style="fill:#111111" />
		<rect
   x="436.884"
   y="303.83301"
   width="2"
   height="21.094999"
   id="rect530"
   style="fill:#111111" />
		<rect
   x="361.117"
   y="332.83401"
   width="2"
   height="29.934"
   id="rect532"
   style="fill:#111111" />
		<rect
   x="361.117"
   y="303.83301"
   width="2"
   height="12.237"
   id="rect534"
   style="fill:#111111" />
		<rect
   x="399.30099"
   y="305.95901"
   width="2"
   height="23.834999"
   id="rect536"
   style="fill:#111111" />
		<rect
   x="399.30099"
   y="336.5"
   width="2"
   height="8.2510004"
   id="rect538"
   style="fill:#111111" />
		<rect
   x="249.189"
   y="157.12"
   width="19"
   height="2"
   id="rect540"
   style="fill:#111111" />
		<path
   d="m 486.399,161.211 c -0.803,0 -1.581,0.037 -2.328,0.213 0.185,-0.765 0.287,-1.562 0.287,-2.387 0,-5.578 -4.524,-10.099 -10.103,-10.099 -5.579,0 -10.101,4.526 -10.101,10.104 0,0.504 0.037,1.002 0.107,1.486 -1.724,0.288 -3.242,1.18 -4.349,2.436 -1.629,-1.125 -3.602,-1.754 -5.729,-1.754 -5.58,0 -10.103,4.637 -10.103,10.156 h 52.42 c 0,-5.518 -4.521,-10.155 -10.101,-10.155 z"
   id="path542"
   inkscape:connector-curvature="0"
   style="fill:#f3a52d" />
		<rect
   x="735.23901"
   y="361.66699"
   width="14.2"
   height="2"
   id="rect544"
   style="fill:#111111" />
		<rect
   x="64.421997"
   y="361.66699"
   width="359.70499"
   height="2"
   id="rect546"
   style="fill:#111111" />
		<rect
   x="50.561001"
   y="361.66599"
   width="10.378"
   height="2"
   id="rect548"
   style="fill:#111111" />
		<rect
   x="439.439"
   y="361.66699"
   width="288.69901"
   height="2"
   id="rect550"
   style="fill:#111111" />
		
			<rect
   x="595.26801"
   y="227.967"
   transform="matrix(-0.7071,-0.7071,0.7071,-0.7071,859.4115,813.9144)"
   width="6.0089998"
   height="2"
   id="rect552"
   style="fill:#111111" />
		<polygon
   points="599.794,224.848 592.089,222.783 594.153,230.488 "
   id="polygon554"
   style="fill:#111111" />
		<path
   d="m 542.719,154.504 c -1.083,0.053 -2.1,0.563 -2.79,1.399 l -0.998,1.214 c -0.345,0.417 -0.832,0.656 -1.374,0.673 -0.51,0.019 -1.042,-0.19 -1.411,-0.586 l -1.388,-1.485 c -0.752,-0.806 -1.836,-1.256 -2.918,-1.222 -1.102,0.03 -2.14,0.531 -2.848,1.375 l -1.052,1.252 c -0.349,0.415 -0.839,0.65 -1.381,0.661 -0.52,0.023 -1.041,-0.203 -1.406,-0.604 l -1.32,-1.444 c -0.736,-0.806 -1.8,-1.255 -2.874,-1.253 -1.089,0.008 -2.129,0.48 -2.853,1.295 l -1.252,1.41 c -0.343,0.387 -0.816,0.606 -1.333,0.621 -0.55,0.017 -1.002,-0.178 -1.365,-0.543 l -1.344,-1.349 c -0.729,-0.729 -1.696,-1.132 -2.728,-1.133 h -0.002 c -1.028,0 -1.997,0.401 -2.724,1.128 l -3.5,3.5 1.414,1.414 3.5,-3.499 c 0.35,-0.351 0.814,-0.543 1.31,-0.543 0.505,-0.038 0.961,0.192 1.313,0.545 l 1.344,1.349 c 0.746,0.748 1.78,1.158 2.839,1.131 1.058,-0.03 2.068,-0.502 2.771,-1.293 l 1.252,-1.412 c 0.353,-0.396 0.84,-0.617 1.372,-0.621 0.488,-0.027 1.023,0.21 1.382,0.603 l 1.32,1.444 c 0.749,0.82 1.829,1.263 2.925,1.254 1.109,-0.023 2.156,-0.523 2.87,-1.375 l 1.052,-1.252 c 0.346,-0.412 0.832,-0.646 1.37,-0.661 0.546,-0.01 1.036,0.194 1.403,0.587 l 1.388,1.485 c 0.757,0.81 1.821,1.237 2.935,1.22 1.108,-0.034 2.149,-0.544 2.855,-1.4 l 0.998,-1.213 c 0.337,-0.41 0.813,-0.648 1.342,-0.674 0.54,-0.023 1.025,0.166 1.398,0.54 l 3.737,3.737 1.414,-1.414 -3.737,-3.737 c -0.763,-0.766 -1.812,-1.178 -2.906,-1.124 z"
   id="path556"
   inkscape:connector-curvature="0"
   style="fill:#111111" />
		<path
   d="m 580.934,227.814 h -2.095 c -0.284,-1.169 -0.751,-2.266 -1.368,-3.26 l 0.007,-0.008 1.48,-1.48 c 0.33,-0.329 0.33,-0.863 0,-1.191 l -2.575,-2.576 c -0.33,-0.33 -0.862,-0.33 -1.192,0 l -1.48,1.48 c -1.027,-0.625 -2.134,-1.07 -3.272,-1.337 v -0.01 -2.095 c 0,-0.465 -0.377,-0.844 -0.844,-0.844 h -3.643 c -0.465,0 -0.843,0.379 -0.843,0.844 v 2.095 c -1.168,0.284 -2.267,0.751 -3.259,1.368 l -0.008,-0.008 -1.48,-1.48 c -0.329,-0.329 -0.863,-0.329 -1.193,0 l -2.575,2.576 c -0.328,0.328 -0.328,0.863 0,1.191 l 1.481,1.481 c -0.626,1.026 -1.072,2.133 -1.338,3.272 h -0.01 -2.095 c -0.466,0 -0.843,0.377 -0.843,0.844 v 3.642 c 0,0.466 0.377,0.843 0.843,0.843 h 2.095 c 0.283,1.17 0.751,2.266 1.367,3.26 l -0.007,0.008 -1.48,1.48 c -0.329,0.329 -0.329,0.863 0,1.192 l 2.576,2.575 c 0.328,0.33 0.862,0.33 1.191,0 l 1.481,-1.48 c 1.027,0.625 2.133,1.071 3.272,1.338 v 0.01 2.095 c 0,0.465 0.377,0.843 0.843,0.843 h 3.644 c 0.465,0 0.842,-0.377 0.842,-0.843 v -2.095 c 1.169,-0.285 2.267,-0.75 3.26,-1.369 l 0.008,0.008 1.48,1.48 c 0.329,0.329 0.863,0.33 1.192,0 l 2.576,-2.576 c 0.328,-0.328 0.328,-0.862 0,-1.191 l -1.481,-1.48 c 0.626,-1.027 1.072,-2.134 1.338,-3.272 h 0.009 2.096 c 0.466,0 0.843,-0.378 0.843,-0.843 v -3.644 c -0.001,-0.465 -0.378,-0.843 -0.843,-0.843 z"
   id="path558"
   inkscape:connector-curvature="0"
   style="fill:#3dc7d2" />
		<path
   d="m 562.508,233.508 -1.733,0.994 c 0.598,1.043 1.438,1.957 2.429,2.641 l 1.136,-1.646 c -0.748,-0.516 -1.381,-1.204 -1.832,-1.989 z"
   id="path560"
   inkscape:connector-curvature="0"
   style="fill:#111111" />
		<path
   d="m 562.526,227.439 -1.729,-1.006 c -0.613,1.055 -0.973,2.21 -1.065,3.429 l 1.994,0.154 c 0.069,-0.917 0.339,-1.784 0.8,-2.577 z"
   id="path562"
   inkscape:connector-curvature="0"
   style="fill:#111111" />
		<path
   d="m 567.869,223.408 -0.082,-1 c -1.226,0 -2.404,0.269 -3.501,0.797 l 0.867,1.801 c 0.825,-0.396 1.711,-0.598 2.634,-0.598 z"
   id="path564"
   inkscape:connector-curvature="0"
   style="fill:#111111" />
		<path
   d="m 573.03,233.568 1.724,1.016 c 0.619,-1.054 0.984,-2.205 1.085,-3.424 l -1.993,-0.164 c -0.075,0.916 -0.35,1.781 -0.816,2.572 z"
   id="path566"
   inkscape:connector-curvature="0"
   style="fill:#111111" />
		<path
   d="m 567.787,236.567 h -0.041 l 0.041,2 c 1.21,0 2.373,-0.26 3.459,-0.774 l -0.857,-1.808 c -0.816,0.386 -1.691,0.582 -2.602,0.582 z"
   id="path568"
   inkscape:connector-curvature="0"
   style="fill:#111111" />
		<path
   d="m 574.824,226.515 c -0.592,-1.047 -1.427,-1.966 -2.414,-2.654 l -1.146,1.64 c 0.744,0.52 1.373,1.211 1.819,2 z"
   id="path570"
   inkscape:connector-curvature="0"
   style="fill:#111111" />
		<rect
   x="218.479"
   y="255.28799"
   width="19"
   height="2"
   id="rect572"
   style="fill:#111111" />
		<rect
   x="448.418"
   y="185.05099"
   width="19"
   height="2"
   id="rect574"
   style="fill:#111111" />
		<rect
   x="567.78302"
   y="254.28799"
   width="19"
   height="2"
   id="rect576"
   style="fill:#111111" />
		<rect
   x="69.651001"
   y="268.90701"
   width="19"
   height="2"
   id="rect578"
   style="fill:#111111" />
		<rect
   x="339.94699"
   y="226.61501"
   width="18.999001"
   height="2"
   id="rect580"
   style="fill:#111111" />
		<rect
   x="437.056"
   y="149.19701"
   width="16.15"
   height="2"
   id="rect582"
   style="fill:#111111" />
		<rect
   x="126.216"
   y="163.35201"
   width="33.561001"
   height="2"
   id="rect584"
   style="fill:#111111" />
		<rect
   x="459.44299"
   y="227.48"
   width="2"
   height="19.867001"
   id="rect586"
   style="fill:#111111" />
		<rect
   x="452.28699"
   y="231.896"
   width="2"
   height="15.451"
   id="rect588"
   style="fill:#111111" />
		<rect
   x="445.13101"
   y="236.203"
   width="2"
   height="11.145"
   id="rect590"
   style="fill:#111111" />
		<rect
   x="437.974"
   y="240.395"
   width="2"
   height="6.9530001"
   id="rect592"
   style="fill:#111111" />
		<rect
   x="97.452003"
   y="249.00301"
   width="19"
   height="2"
   id="rect594"
   style="fill:#111111" />
		<rect
   x="120.118"
   y="249.00301"
   width="8.5"
   height="2"
   id="rect596"
   style="fill:#111111" />
		<path
   d="m 136.525,245.743 c -2.349,0 -4.26,1.911 -4.26,4.26 0,2.349 1.911,4.261 4.26,4.261 2.349,0 4.26,-1.912 4.26,-4.261 0,-2.349 -1.911,-4.26 -4.26,-4.26 z m 0,6.521 c -1.246,0 -2.26,-1.015 -2.26,-2.261 0,-1.246 1.014,-2.26 2.26,-2.26 1.246,0 2.26,1.014 2.26,2.26 0,1.246 -1.014,2.261 -2.26,2.261 z"
   id="path598"
   inkscape:connector-curvature="0"
   style="fill:#111111" />
		<rect
   x="567.78302"
   y="201.836"
   width="19"
   height="2"
   id="rect600"
   style="fill:#111111" />
		<rect
   x="590.44897"
   y="201.836"
   width="8.5"
   height="2"
   id="rect602"
   style="fill:#111111" />
		<path
   d="m 606.855,198.576 c -2.349,0 -4.26,1.911 -4.26,4.26 0,2.348 1.911,4.26 4.26,4.26 2.35,0 4.26,-1.912 4.26,-4.26 0,-2.349 -1.91,-4.26 -4.26,-4.26 z m 0,6.52 c -1.246,0 -2.26,-1.014 -2.26,-2.26 0,-1.246 1.014,-2.26 2.26,-2.26 1.246,0 2.26,1.014 2.26,2.26 0,1.246 -1.013,2.26 -2.26,2.26 z"
   id="path604"
   inkscape:connector-curvature="0"
   style="fill:#111111" />
		<rect
   x="192.85899"
   y="218.034"
   width="19"
   height="2"
   id="rect606"
   style="fill:#111111" />
		<rect
   x="180.69299"
   y="218.034"
   width="8.5"
   height="2"
   id="rect608"
   style="fill:#111111" />
		<path
   d="m 172.786,214.773 c -2.349,0 -4.26,1.911 -4.26,4.26 0,2.35 1.911,4.261 4.26,4.261 2.349,0 4.26,-1.911 4.26,-4.261 -0.001,-2.348 -1.912,-4.26 -4.26,-4.26 z m 0,6.521 c -1.246,0 -2.26,-1.015 -2.26,-2.261 0,-1.246 1.014,-2.26 2.26,-2.26 1.246,0 2.26,1.014 2.26,2.26 0,1.246 -1.015,2.261 -2.26,2.261 z"
   id="path610"
   inkscape:connector-curvature="0"
   style="fill:#111111" />
		<rect
   x="318.28"
   y="161.771"
   width="18.999001"
   height="2"
   id="rect612"
   style="fill:#111111" />
		<rect
   x="340.94601"
   y="161.771"
   width="8.5"
   height="2"
   id="rect614"
   style="fill:#111111" />
		<path
   d="m 357.353,158.512 c -2.349,0 -4.26,1.912 -4.26,4.261 0,2.349 1.911,4.26 4.26,4.26 2.349,0 4.26,-1.911 4.26,-4.26 0,-2.349 -1.911,-4.261 -4.26,-4.261 z m 0,6.52 c -1.246,0 -2.26,-1.014 -2.26,-2.26 0,-1.246 1.014,-2.261 2.26,-2.261 1.246,0 2.26,1.015 2.26,2.261 0,1.246 -1.014,2.26 -2.26,2.26 z"
   id="path616"
   inkscape:connector-curvature="0"
   style="fill:#111111" />
		<polygon
   points="675.881,222.791 667.509,216.311 660.988,222.439 653.495,216.23 646.765,222.438 639.48,216.266 632.519,222.336 625.449,216.846 617.705,222.842 618.931,224.422 625.447,219.377 632.592,224.926 639.498,218.902 646.82,225.105 653.565,218.887 661.071,225.104 667.635,218.938 674.655,224.373 "
   id="polygon618"
   style="fill:#111111" />
		<path
   d="m 351.46,243.598 c -1.077,-1.076 -2.953,-1.075 -4.028,0 l -2.033,2.033 c -1.11,1.111 -1.11,2.918 0,4.027 l 2.032,2.032 c 0.538,0.538 1.254,0.835 2.015,0.835 0.761,0 1.476,-0.297 2.014,-0.835 l 2.032,-2.032 c 1.111,-1.109 1.111,-2.916 0,-4.027 z m 0.618,4.646 -2.033,2.033 c -0.32,0.321 -0.878,0.32 -1.199,0 l -2.033,-2.033 c -0.33,-0.33 -0.33,-0.868 0,-1.199 l 2.033,-2.032 c 0.16,-0.161 0.373,-0.249 0.6,-0.249 0.227,0 0.439,0.088 0.6,0.249 l 2.032,2.032 c 0.331,0.331 0.331,0.869 0,1.199 z"
   id="path620"
   inkscape:connector-curvature="0"
   style="fill:#111111" />
		<path
   d="m 57.764,338.205 c -1.077,-1.076 -2.953,-1.076 -4.028,0 l -2.033,2.033 c -1.11,1.109 -1.11,2.917 0,4.027 l 2.033,2.033 c 0.537,0.537 1.253,0.834 2.014,0.834 0.761,0 1.475,-0.297 2.014,-0.834 l 2.032,-2.033 c 1.111,-1.11 1.111,-2.918 0,-4.027 z m 0.618,4.647 -2.032,2.033 c -0.322,0.319 -0.881,0.318 -1.2,0 l -2.033,-2.033 c -0.33,-0.33 -0.33,-0.869 0,-1.199 l 2.033,-2.033 c 0.16,-0.16 0.373,-0.248 0.6,-0.248 0.227,0 0.439,0.088 0.6,0.248 l 2.032,2.033 c 0.331,0.329 0.331,0.868 0,1.199 z"
   id="path622"
   inkscape:connector-curvature="0"
   style="fill:#111111" />
		<path
   d="m 229.993,228.87 c -1.077,-1.076 -2.953,-1.076 -4.028,0 l -2.033,2.033 c -1.11,1.11 -1.11,2.917 0,4.026 l 2.033,2.033 c 0.537,0.538 1.253,0.835 2.014,0.835 0.761,0 1.476,-0.297 2.014,-0.835 l 2.032,-2.033 c 1.111,-1.109 1.111,-2.916 0,-4.026 z m 0.618,4.646 -2.032,2.033 c -0.322,0.32 -0.881,0.319 -1.2,0 l -2.033,-2.033 c -0.33,-0.33 -0.33,-0.869 0,-1.199 l 2.033,-2.032 c 0.16,-0.16 0.373,-0.248 0.6,-0.248 0.227,0 0.439,0.088 0.6,0.248 l 2.032,2.032 c 0.331,0.329 0.331,0.869 0,1.199 z"
   id="path624"
   inkscape:connector-curvature="0"
   style="fill:#111111" />
		<path
   d="m 464.813,257.096 c -1.076,-1.078 -2.953,-1.076 -4.028,0 l -2.032,2.031 c -0.539,0.538 -0.835,1.254 -0.835,2.016 0,0.76 0.296,1.476 0.835,2.013 l 2.032,2.032 c 0.538,0.539 1.253,0.836 2.014,0.836 0.762,0 1.477,-0.297 2.015,-0.836 l 2.031,-2.032 c 1.111,-1.11 1.111,-2.917 0,-4.027 z m 0.618,4.645 -2.031,2.032 c -0.321,0.32 -0.88,0.32 -1.2,0 l -2.032,-2.032 c -0.161,-0.16 -0.249,-0.373 -0.249,-0.599 0,-0.228 0.088,-0.44 0.249,-0.601 l 2.032,-2.033 c 0.16,-0.159 0.373,-0.248 0.6,-0.248 0.228,0 0.439,0.089 0.601,0.248 l 2.031,2.033 c 0.33,0.331 0.33,0.87 -0.001,1.2 z"
   id="path626"
   inkscape:connector-curvature="0"
   style="fill:#111111" />
		<path
   d="m 459.933,207.389 c -1.077,-1.076 -2.951,-1.076 -4.028,0 l -2.032,2.032 c -1.111,1.11 -1.111,2.918 0,4.028 l 2.032,2.031 c 0.538,0.538 1.253,0.836 2.014,0.836 0.762,0 1.477,-0.298 2.015,-0.834 l 2.032,-2.033 c 1.11,-1.111 1.11,-2.918 0,-4.029 z m 0.618,4.646 -2.032,2.031 c -0.321,0.322 -0.879,0.32 -1.2,0 l -2.032,-2.031 c -0.331,-0.332 -0.331,-0.869 0,-1.2 l 2.032,-2.032 c 0.16,-0.161 0.373,-0.249 0.6,-0.249 0.228,0 0.439,0.088 0.601,0.249 l 2.032,2.032 c 0.329,0.331 0.329,0.868 -0.001,1.2 z"
   id="path628"
   inkscape:connector-curvature="0"
   style="fill:#111111" />
		<path
   d="m 93.391,222.389 c -1.077,-1.077 -2.953,-1.076 -4.028,0 l -2.033,2.033 c -1.11,1.109 -1.11,2.917 0,4.027 l 2.033,2.032 c 0.537,0.538 1.253,0.835 2.014,0.835 0.761,0 1.476,-0.297 2.014,-0.835 l 2.032,-2.032 c 1.111,-1.11 1.111,-2.918 0,-4.027 z m 0.617,4.646 -2.032,2.032 c -0.322,0.32 -0.881,0.32 -1.2,0 l -2.033,-2.032 c -0.33,-0.33 -0.33,-0.869 0,-1.199 l 2.033,-2.033 c 0.16,-0.16 0.373,-0.248 0.6,-0.248 0.227,0 0.439,0.088 0.6,0.248 l 2.032,2.033 c 0.331,0.33 0.331,0.869 0,1.199 z"
   id="path630"
   inkscape:connector-curvature="0"
   style="fill:#111111" />
		<path
   d="m 338.992,137.283 h -2.094 c -0.284,-1.169 -0.751,-2.266 -1.369,-3.26 l 0.007,-0.007 1.481,-1.481 c 0.33,-0.328 0.33,-0.863 0,-1.191 l -2.575,-2.576 c -0.33,-0.329 -0.863,-0.329 -1.193,0 l -1.48,1.48 c -1.028,-0.625 -2.134,-1.07 -3.273,-1.337 v -0.01 -2.095 c 0,-0.465 -0.377,-0.844 -0.843,-0.844 h -3.643 c -0.465,0 -0.843,0.379 -0.843,0.844 v 2.095 c -1.168,0.284 -2.266,0.751 -3.259,1.368 l -0.007,-0.008 -1.481,-1.48 c -0.33,-0.329 -0.863,-0.329 -1.193,0 l -2.575,2.576 c -0.33,0.329 -0.33,0.863 0,1.191 l 1.481,1.481 c -0.626,1.027 -1.072,2.133 -1.338,3.272 h -0.01 -2.094 c -0.466,0 -0.843,0.377 -0.843,0.843 v 3.643 c 0,0.466 0.377,0.843 0.843,0.843 h 2.094 c 0.284,1.17 0.751,2.267 1.368,3.261 l -0.007,0.007 -1.481,1.48 c -0.329,0.33 -0.329,0.863 0,1.192 l 2.576,2.576 c 0.329,0.329 0.863,0.329 1.192,0 l 1.481,-1.481 c 1.028,0.625 2.133,1.071 3.273,1.338 v 0.01 2.095 c 0,0.465 0.377,0.843 0.843,0.843 h 3.643 c 0.465,0 0.842,-0.377 0.842,-0.843 v -2.095 c 1.169,-0.284 2.266,-0.75 3.26,-1.368 l 0.007,0.007 1.481,1.48 c 0.329,0.33 0.863,0.33 1.192,0 l 2.576,-2.575 c 0.329,-0.329 0.329,-0.863 0,-1.192 l -1.481,-1.48 c 0.626,-1.027 1.072,-2.133 1.338,-3.272 h 0.009 2.095 c 0.466,0 0.843,-0.378 0.843,-0.843 v -3.643 c 0,-0.466 -0.377,-0.844 -0.843,-0.844 z"
   id="path632"
   inkscape:connector-curvature="0"
   style="fill:#ea572e" />
		<path
   d="m 320.567,142.977 -1.734,0.994 c 0.598,1.044 1.439,1.957 2.431,2.643 l 1.134,-1.647 c -0.747,-0.516 -1.378,-1.204 -1.831,-1.99 z"
   id="path634"
   inkscape:connector-curvature="0"
   style="fill:#111111" />
		<path
   d="m 331.091,143.037 1.722,1.014 c 0.621,-1.053 0.987,-2.204 1.088,-3.423 l -1.995,-0.164 c -0.075,0.915 -0.349,1.782 -0.815,2.573 z"
   id="path636"
   inkscape:connector-curvature="0"
   style="fill:#111111" />
		<path
   d="m 325.929,133.877 -0.082,-2 c -1.227,0 -2.405,0.268 -3.501,0.796 l 0.867,1.803 c 0.824,-0.397 1.711,-0.599 2.634,-0.599 z"
   id="path638"
   inkscape:connector-curvature="0"
   style="fill:#111111" />
		<path
   d="m 320.585,136.908 -1.728,-1.006 c -0.616,1.058 -0.974,2.213 -1.066,3.431 l 1.994,0.149 c 0.069,-0.914 0.339,-1.781 0.8,-2.574 z"
   id="path640"
   inkscape:connector-curvature="0"
   style="fill:#111111" />
		<path
   d="m 325.847,146.037 h -0.041 l 0.041,2 c 1.208,0 2.372,-0.26 3.459,-0.776 l -0.858,-1.806 c -0.817,0.386 -1.692,0.582 -2.601,0.582 z"
   id="path642"
   inkscape:connector-curvature="0"
   style="fill:#111111" />
		<path
   d="m 332.883,135.984 c -0.593,-1.048 -1.428,-1.966 -2.415,-2.654 l -1.145,1.638 c 0.744,0.521 1.373,1.212 1.82,2 z"
   id="path644"
   inkscape:connector-curvature="0"
   style="fill:#111111" />
		<path
   d="m 389.316,114.045 0.767,1.848 c 0.884,-0.369 1.8,-0.689 2.723,-0.954 l -0.551,-1.921 c -0.996,0.285 -1.985,0.63 -2.939,1.027 z"
   id="path646"
   inkscape:connector-curvature="0"
   style="fill:#111111" />
		<path
   d="m 383.057,117.695 1.227,1.58 c 0.76,-0.59 1.558,-1.141 2.374,-1.639 l -1.041,-1.707 c -0.88,0.536 -1.741,1.131 -2.56,1.766 z"
   id="path648"
   inkscape:connector-curvature="0"
   style="fill:#111111" />
		<path
   d="m 375.222,146.893 -1.929,0.529 c 0.274,1 0.608,1.993 0.991,2.95 l 1.857,-0.744 c -0.356,-0.887 -0.665,-1.808 -0.919,-2.735 z"
   id="path650"
   inkscape:connector-curvature="0"
   style="fill:#111111" />
		<path
   d="m 377.971,122.848 1.594,1.209 c 0.581,-0.768 1.21,-1.507 1.869,-2.201 l -1.45,-1.378 c -0.71,0.747 -1.387,1.544 -2.013,2.37 z"
   id="path652"
   inkscape:connector-curvature="0"
   style="fill:#111111" />
		<path
   d="m 376.119,154.094 c 0.529,0.893 1.114,1.76 1.741,2.582 l 1.59,-1.213 c -0.58,-0.76 -1.122,-1.564 -1.612,-2.389 z"
   id="path654"
   inkscape:connector-curvature="0"
   style="fill:#111111" />
		<path
   d="m 377.475,127.284 -1.755,-0.959 c -0.496,0.907 -0.946,1.852 -1.337,2.804 l 1.85,0.76 c 0.363,-0.885 0.781,-1.761 1.242,-2.605 z"
   id="path656"
   inkscape:connector-curvature="0"
   style="fill:#111111" />
		<path
   d="m 374.285,140.229 -2,0.028 c 0.016,1.039 0.086,2.082 0.21,3.099 l 1.985,-0.24 c -0.115,-0.948 -0.181,-1.921 -0.195,-2.887 z"
   id="path658"
   inkscape:connector-curvature="0"
   style="fill:#111111" />
		<path
   d="m 426.613,132.034 c -0.29,-0.994 -0.641,-1.979 -1.04,-2.933 l -1.844,0.773 c 0.37,0.883 0.694,1.798 0.963,2.721 z"
   id="path660"
   inkscape:connector-curvature="0"
   style="fill:#111111" />
		<path
   d="m 375.04,133.547 -1.942,-0.479 c -0.246,1.002 -0.44,2.029 -0.574,3.056 l 1.983,0.26 c 0.125,-0.952 0.304,-1.907 0.533,-2.837 z"
   id="path662"
   inkscape:connector-curvature="0"
   style="fill:#111111" />
		<path
   d="m 422.486,152.15 1.75,0.969 c 0.503,-0.906 0.957,-1.848 1.355,-2.799 l -1.846,-0.771 c -0.368,0.885 -0.791,1.76 -1.259,2.601 z"
   id="path664"
   inkscape:connector-curvature="0"
   style="fill:#111111" />
		<path
   d="m 424.962,145.9 1.938,0.488 c 0.254,-1.005 0.451,-2.033 0.588,-3.057 l -1.983,-0.264 c -0.126,0.951 -0.31,1.904 -0.543,2.833 z"
   id="path666"
   inkscape:connector-curvature="0"
   style="fill:#111111" />
		<path
   d="m 418.513,157.581 1.452,1.375 c 0.708,-0.748 1.384,-1.545 2.01,-2.368 l -1.592,-1.211 c -0.583,0.768 -1.212,1.508 -1.87,2.204 z"
   id="path668"
   inkscape:connector-curvature="0"
   style="fill:#111111" />
		<path
   d="m 421.928,122.846 -1.582,1.223 c 0.586,0.758 1.136,1.559 1.635,2.379 l 1.709,-1.039 c -0.539,-0.886 -1.13,-1.747 -1.762,-2.563 z"
   id="path670"
   inkscape:connector-curvature="0"
   style="fill:#111111" />
		<path
   d="m 425.491,136.355 c 0.127,0.949 0.202,1.916 0.224,2.877 l 2,-0.045 c -0.024,-1.035 -0.105,-2.078 -0.242,-3.098 z"
   id="path672"
   inkscape:connector-curvature="0"
   style="fill:#111111" />
		<path
   d="m 409.773,115.955 c 0.883,0.367 1.756,0.79 2.597,1.257 l 0.97,-1.748 c -0.905,-0.503 -1.846,-0.959 -2.797,-1.355 z"
   id="path674"
   inkscape:connector-curvature="0"
   style="fill:#111111" />
		<path
   d="m 416.803,117.737 -1.218,1.586 c 0.762,0.585 1.498,1.218 2.188,1.882 l 1.387,-1.441 c -0.744,-0.716 -1.537,-1.398 -2.357,-2.027 z"
   id="path676"
   inkscape:connector-curvature="0"
   style="fill:#111111" />
		<path
   d="m 403.29,114.201 c 0.949,0.127 1.901,0.31 2.833,0.543 l 0.485,-1.939 c -1.003,-0.252 -2.03,-0.45 -3.054,-0.586 z"
   id="path678"
   inkscape:connector-curvature="0"
   style="fill:#111111" />
		<path
   d="m 397.869,112.035 c -0.521,0.036 -1.037,0.087 -1.549,0.151 l 0.248,1.984 c 0.475,-0.06 0.954,-0.107 1.437,-0.139 0.483,-0.033 0.965,-0.052 1.443,-0.059 l -0.028,-2 c -0.514,0.007 -1.031,0.028 -1.551,0.063 z"
   id="path680"
   inkscape:connector-curvature="0"
   style="fill:#111111" />
		<path
   d="m 398.345,119.019 c -10.845,0.742 -19.192,10.201 -19.061,21.07 0.092,7.674 4.044,14.343 10.659,17.877 2.356,1.258 3.774,3.765 3.774,6.434 v 0.05 h 13.021 v -0.05 c 0,-2.696 1.373,-5.226 3.675,-6.628 5.944,-3.625 10.308,-10.308 10.308,-17.959 0,-11.999 -10.206,-21.626 -22.376,-20.794 z"
   id="path682"
   inkscape:connector-curvature="0"
   style="fill:#f3a52d" />
		<path
   d="m 406.947,163.449 h -13.439 c -1.534,0 -2.782,1.248 -2.782,2.781 v 5.963 c 0,1.532 1.248,2.78 2.782,2.78 h 13.439 c 1.534,0 2.782,-1.248 2.782,-2.78 v -5.963 c 0,-1.533 -1.248,-2.781 -2.782,-2.781 z"
   id="path684"
   inkscape:connector-curvature="0"
   style="fill:#ffffff" />
		<path
   d="m 406.947,163.449 h -13.439 c -1.534,0 -2.782,1.248 -2.782,2.781 v 5.962 c 0,1.532 1.248,2.78 2.782,2.78 h 13.439 c 1.533,0 2.781,-1.248 2.781,-2.78 v -5.962 c 10e-4,-1.533 -1.248,-2.781 -2.781,-2.781 z m 0.782,8.743 c 0,0.431 -0.35,0.78 -0.781,0.78 h -13.439 c -0.431,0 -0.782,-0.35 -0.782,-0.78 v -5.962 c 0,-0.43 0.351,-0.781 0.782,-0.781 h 13.439 c 0.432,0 0.781,0.352 0.781,0.781 z"
   id="path686"
   inkscape:connector-curvature="0"
   style="fill:#111111" />
		<rect
   x="399.00101"
   y="149.37"
   width="2"
   height="14.981"
   id="rect688"
   style="fill:#111111" />
		<circle
   cx="584.99799"
   cy="156.164"
   r="20.801001"
   id="circle690"
   style="clip-rule:evenodd;fill:#ea572e;fill-rule:evenodd" />
		<path
   d="m 577.944,143.92 c -0.913,0.528 -1.77,1.16 -2.544,1.879 l 1.359,1.468 c 0.666,-0.619 1.4,-1.162 2.186,-1.614 z"
   id="path692"
   inkscape:connector-curvature="0"
   style="fill:#111111" />
		<path
   d="m 572.757,163.213 c 0.527,0.912 1.158,1.769 1.876,2.545 l 1.468,-1.357 c -0.616,-0.668 -1.159,-1.402 -1.61,-2.186 z"
   id="path694"
   inkscape:connector-curvature="0"
   style="fill:#111111" />
		<path
   d="m 597.27,149.139 c -0.524,-0.916 -1.154,-1.775 -1.871,-2.551 l -1.47,1.355 c 0.614,0.666 1.155,1.404 1.606,2.191 z"
   id="path696"
   inkscape:connector-curvature="0"
   style="fill:#111111" />
		<path
   d="m 572.875,156.164 v -0.016 l -2,0.016 c 0,1.055 0.117,2.107 0.348,3.127 l 1.951,-0.441 c -0.199,-0.874 -0.299,-1.78 -0.299,-2.686 z"
   id="path698"
   inkscape:connector-curvature="0"
   style="fill:#111111" />
		<path
   d="m 574.502,150.09 -1.73,-1.002 c -0.53,0.916 -0.958,1.891 -1.269,2.898 l 1.912,0.59 c 0.266,-0.863 0.632,-1.699 1.087,-2.486 z"
   id="path700"
   inkscape:connector-curvature="0"
   style="fill:#111111" />
		<path
   d="m 577.918,168.39 c 0.917,0.532 1.892,0.961 2.898,1.271 l 0.591,-1.91 c -0.862,-0.267 -1.698,-0.634 -2.484,-1.09 z"
   id="path702"
   inkscape:connector-curvature="0"
   style="fill:#111111" />
		<path
   d="m 585.061,144.031 -0.055,-2 c -1.062,0 -2.119,0.118 -3.142,0.352 l 0.443,1.949 c 0.877,-0.199 1.785,-0.301 2.698,-0.301 z"
   id="path704"
   inkscape:connector-curvature="0"
   style="fill:#111111" />
		<path
   d="m 591.047,166.685 0.997,1.735 c 0.914,-0.525 1.771,-1.156 2.548,-1.875 l -1.357,-1.469 c -0.667,0.616 -1.403,1.157 -2.188,1.609 z"
   id="path706"
   inkscape:connector-curvature="0"
   style="fill:#111111" />
		<path
   d="m 596.844,153.502 c 0.194,0.866 0.293,1.763 0.293,2.662 v 0.039 l 2,-0.039 c 0,-1.047 -0.115,-2.09 -0.341,-3.101 z"
   id="path708"
   inkscape:connector-curvature="0"
   style="fill:#111111" />
		<path
   d="m 595.498,162.258 1.729,1.006 c 0.531,-0.913 0.96,-1.887 1.274,-2.896 l -1.909,-0.596 c -0.27,0.867 -0.638,1.703 -1.094,2.486 z"
   id="path710"
   inkscape:connector-curvature="0"
   style="fill:#111111" />
		<path
   d="m 585.007,168.293 h -0.028 l 0.028,2 c 1.049,0 2.096,-0.115 3.112,-0.344 l -0.438,-1.951 c -0.872,0.195 -1.772,0.295 -2.674,0.295 z"
   id="path712"
   inkscape:connector-curvature="0"
   style="fill:#111111" />
		<path
   d="m 592.12,143.95 c -0.915,-0.534 -1.89,-0.965 -2.896,-1.278 l -0.595,1.91 c 0.862,0.269 1.697,0.637 2.481,1.096 z"
   id="path714"
   inkscape:connector-curvature="0"
   style="fill:#111111" />
		<path
   d="m 585.948,155.163 h -2.126 c -0.703,0 -1.276,-0.573 -1.276,-1.278 v -0.746 c 0,-1.07 0.872,-1.941 1.941,-1.941 h 1.027 c 0.756,0 1.371,0.615 1.371,1.371 v 1.211 h 2 v -1.211 c 0,-1.859 -1.512,-3.371 -3.371,-3.371 h -1.027 c -2.173,0 -3.941,1.768 -3.941,3.941 v 0.746 c 0,1.809 1.471,3.278 3.276,3.278 h 2.126 c 0.827,0 1.5,0.673 1.5,1.501 v 1.533 c 0,0.727 -0.593,1.32 -1.32,1.32 h -1.604 c -0.788,0 -1.43,-0.642 -1.43,-1.43 v -0.748 h -2 v 0.748 c 0,1.891 1.539,3.43 3.43,3.43 h 1.604 c 1.832,0 3.32,-1.49 3.32,-3.32 v -1.533 c 0,-1.93 -1.569,-3.501 -3.5,-3.501 z"
   id="path716"
   inkscape:connector-curvature="0"
   style="fill:#111111" />
		<rect
   x="583.99799"
   y="162.51801"
   width="2"
   height="3.178"
   id="rect718"
   style="fill:#111111" />
		<rect
   x="583.99799"
   y="146.631"
   width="2"
   height="3.566"
   id="rect720"
   style="fill:#111111" />
		<path
   d="m 586.954,129.414 c -7.049,-0.516 -14.065,1.798 -19.444,6.424 -5.444,4.69 -8.733,11.212 -9.262,18.367 -0.52,7.135 1.775,14.054 6.462,19.482 4.689,5.427 11.203,8.703 18.338,9.222 0.663,0.049 1.335,0.073 1.998,0.073 5.27,0 10.373,-1.543 14.756,-4.463 0.928,-0.616 1.831,-1.301 2.68,-2.035 0.698,-0.6 1.364,-1.234 1.986,-1.893 l 0.01,0.006 0.509,-0.566 c 1.514,-1.68 2.805,-3.544 3.837,-5.537 1.675,-3.229 2.658,-6.721 2.925,-10.383 0.521,-7.133 -1.775,-14.051 -6.463,-19.478 -4.689,-5.426 -11.199,-8.699 -18.332,-9.219 z m 22.8,28.553 c -0.247,3.389 -1.157,6.621 -2.705,9.607 -0.863,1.662 -1.919,3.229 -3.146,4.66 l -0.41,0.461 c -0.707,0.796 -1.485,1.561 -2.315,2.275 -0.787,0.678 -1.622,1.312 -2.483,1.883 -4.564,3.043 -9.992,4.463 -15.501,4.062 -6.601,-0.481 -12.629,-3.512 -16.97,-8.535 -4.336,-5.024 -6.46,-11.427 -5.98,-18.028 0.489,-6.621 3.534,-12.658 8.571,-16.998 4.509,-3.877 10.242,-6.014 16.142,-6.014 0.613,0 1.236,0.023 1.854,0.068 6.599,0.48 12.624,3.511 16.963,8.533 4.335,5.023 6.46,11.424 5.98,18.026 z"
   id="path722"
   inkscape:connector-curvature="0"
   style="fill:#111111" />
		<path
   d="m 601.995,165.758 1.775,0.92 c 1.162,-2.24 1.845,-4.664 2.028,-7.207 l -1.994,-0.146 c -0.163,2.271 -0.773,4.435 -1.809,6.433 z"
   id="path724"
   inkscape:connector-curvature="0"
   style="fill:#111111" />
		<path
   d="m 598.064,170.706 c -0.528,0.456 -1.088,0.882 -1.662,1.263 -0.482,0.321 -0.987,0.621 -1.502,0.891 l 0.929,1.771 c 0.574,-0.303 1.142,-0.638 1.682,-0.996 0.642,-0.429 1.268,-0.902 1.859,-1.412 0.615,-0.53 1.672,-1.635 1.717,-1.681 l -1.445,-1.383 c -0.011,0.011 -1.034,1.079 -1.578,1.547 z"
   id="path726"
   inkscape:connector-curvature="0"
   style="fill:#111111" />
		
			<rect
   x="602.255"
   y="175.62399"
   transform="matrix(-0.7071,-0.7071,0.7071,-0.7071,907.7362,729.2437)"
   width="5.2880001"
   height="1.999"
   id="rect728"
   style="fill:#111111" />
		
			<rect
   x="600.99597"
   y="186.933"
   transform="matrix(-0.7071,-0.7071,0.7071,-0.7071,923.5439,767.4087)"
   width="39.424"
   height="10.997"
   id="rect730"
   style="fill:#f3a52d" />
		<path
   d="m 345.196,194.627 c -2.349,0 -4.26,1.912 -4.26,4.261 0,2.349 1.911,4.26 4.26,4.26 2.349,0 4.26,-1.911 4.26,-4.26 0,-2.349 -1.911,-4.261 -4.26,-4.261 z m 0,6.52 c -1.246,0 -2.26,-1.014 -2.26,-2.26 0,-1.246 1.014,-2.261 2.26,-2.261 1.246,0 2.26,1.015 2.26,2.261 0,1.246 -1.014,2.26 -2.26,2.26 z"
   id="path732"
   inkscape:connector-curvature="0"
   style="fill:#111111" />
	</g>
	
</g>
</svg>