<svg xmlns="http://www.w3.org/2000/svg" xmlns:xlink="http://www.w3.org/1999/xlink" viewBox="0 0 64 64"><path d="M26 53.25a.5.5 0 0 1-.5-.5v-3.5a.5.5 0 1 1 1 0v3.5a.5.5 0 0 1-.5.5zm12 0a.5.5 0 0 1-.5-.5v-3.5a.5.5 0 1 1 1 0v3.5a.5.5 0 0 1-.5.5zm4 6H22a1.5 1.5 0 0 1-1.5-1.5v-2a1.5 1.5 0 0 1 1.5-1.5h20a1.5 1.5 0 0 1 1.5 1.5v2a1.5 1.5 0 0 1-1.5 1.5zm-20-4a.5.5 0 0 0-.5.5v2a.5.5 0 0 0 .5.5h20a.5.5 0 0 0 .5-.5v-2a.5.5 0 0 0-.5-.5H22zm37.5-7.5h-55c-1.654 0-3-1.346-3-3v-37c0-1.654 1.346-3 3-3h55c1.654 0 3 1.346 3 3v37c0 1.654-1.346 3-3 3zm-55-42c-1.103 0-2 .897-2 2v37c0 1.103.897 2 2 2h55c1.103 0 2-.897 2-2v-37c0-1.103-.897-2-2-2h-55zm52 47.5H49a.5.5 0 1 1 0-1h7.5a.5.5 0 1 1 0 1zm3 0h-1a.5.5 0 1 1 0-1h1a.5.5 0 1 1 0 1zm-44.5 0H7.5a.5.5 0 1 1 0-1H15a.5.5 0 1 1 0 1zm-9.5 0h-1a.5.5 0 1 1 0-1h1a.5.5 0 1 1 0 1zM58 42.75H6a1.5 1.5 0 0 1-1.5-1.5v-30A1.5 1.5 0 0 1 6 9.75h52a1.5 1.5 0 0 1 1.5 1.5v30a1.5 1.5 0 0 1-1.5 1.5zm-52-32a.5.5 0 0 0-.5.5v30a.5.5 0 0 0 .5.5h52a.5.5 0 0 0 .5-.5v-30a.5.5 0 0 0-.5-.5H6z" fill="#263238"/><path d="M41.5 15.25h-19a2.5 2.5 0 0 0-2.5 2.5v12.5a2.5 2.5 0 0 0 2.5 2.5h3v3.443a1 1 0 0 0 1.618.786l5.382-4.23h9a2.5 2.5 0 0 0 2.5-2.5v-12.5a2.5 2.5 0 0 0-2.5-2.5z" fill="#4db6ac"/><g fill="#263238"><path d="M26.504 37.694a1.49 1.49 0 0 1-1.503-1.502V33.25h-2.5c-1.654 0-3-1.346-3-3v-12.5c0-1.654 1.346-3 3-3h19c1.654 0 3 1.346 3 3v12.5c0 1.654-1.346 3-3 3h-8.827l-5.247 4.122a1.49 1.49 0 0 1-.923.322zM22.5 15.75c-1.103 0-2 .897-2 2v12.5c0 1.103.897 2 2 2h3a.5.5 0 0 1 .5.5v3.442a.49.49 0 0 0 .281.45c.18.087.374.064.527-.056l5.383-4.23a.5.5 0 0 1 .309-.107h9c1.103 0 2-.897 2-2v-12.5c0-1.103-.897-2-2-2h-19z"/><use xlink:href="#B"/><use xlink:href="#B" x="6"/><use xlink:href="#B" x="12"/><path d="M56 18.75a.5.5 0 0 1-.5-.5v-4a.5.5 0 0 0-.5-.5h-4a.5.5 0 1 1 0-1h4a1.5 1.5 0 0 1 1.5 1.5v4a.5.5 0 0 1-.5.5z"/></g><defs ><path id="B" d="M26 25.75c-1.103 0-2-.897-2-2s.897-2 2-2 2 .897 2 2-.897 2-2 2zm0-3a1 1 0 1 0 0 2 1 1 0 1 0 0-2z"/></defs></svg>