<?xml version="1.0" encoding="utf-8"?>
<!-- Generator: Adobe Illustrator 18.0.0, SVG Export Plug-In . SVG Version: 6.00 Build 0)  -->
<!DOCTYPE svg PUBLIC "-//W3C//DTD SVG 1.1//EN" "http://www.w3.org/Graphics/SVG/1.1/DTD/svg11.dtd">
<svg version="1.1" id="Layer_1" xmlns="http://www.w3.org/2000/svg" xmlns:xlink="http://www.w3.org/1999/xlink" x="0px" y="0px"
	 viewBox="0 0 129.5 129.5" enable-background="new 0 0 129.5 129.5" xml:space="preserve">
<g>
	<g>
		<g>
			<circle fill="#84DBFF" cx="72.6" cy="114.7" r="2.1"/>
		</g>
		<g>
			<circle fill="#FFD05B" cx="117.1" cy="65" r="2.1"/>
		</g>
		<g>
			<circle fill="#E6E9EE" cx="28.3" cy="14.7" r="2.1"/>
		</g>
		<g>
			<g>
				<path fill="#231F20" d="M18.1,8.7c-0.2,0-0.4-0.1-0.5-0.2c-0.3-0.3-0.3-0.8,0-1.1l1.3-1.3c0.3-0.3,0.8-0.3,1.1,0
					c0.3,0.3,0.3,0.8,0,1.1l-1.3,1.3C18.5,8.7,18.3,8.7,18.1,8.7z"/>
			</g>
			<g>
				<path fill="#231F20" d="M14,12.8c-0.2,0-0.4-0.1-0.5-0.2c-0.3-0.3-0.3-0.8,0-1.1l1.3-1.3c0.3-0.3,0.8-0.3,1.1,0s0.3,0.8,0,1.1
					l-1.3,1.3C14.4,12.7,14.2,12.8,14,12.8z"/>
			</g>
			<g>
				<path fill="#231F20" d="M19.4,12.8c-0.2,0-0.4-0.1-0.5-0.2l-1.3-1.3c-0.3-0.3-0.3-0.8,0-1.1c0.3-0.3,0.8-0.3,1.1,0l1.3,1.3
					c0.3,0.3,0.3,0.8,0,1.1C19.7,12.7,19.5,12.8,19.4,12.8z"/>
			</g>
			<g>
				<path fill="#231F20" d="M15.3,8.7c-0.2,0-0.4-0.1-0.5-0.2l-1.3-1.3c-0.3-0.3-0.3-0.8,0-1.1c0.3-0.3,0.8-0.3,1.1,0l1.3,1.3
					c0.3,0.3,0.3,0.8,0,1.1C15.7,8.7,15.5,8.7,15.3,8.7z"/>
			</g>
		</g>
		<g>
			<g>
				<path fill="#231F20" d="M104.1,52.8c-0.2,0-0.4-0.1-0.5-0.2c-0.3-0.3-0.3-0.8,0-1.1l1.3-1.3c0.3-0.3,0.8-0.3,1.1,0
					c0.3,0.3,0.3,0.8,0,1.1l-1.3,1.3C104.5,52.7,104.3,52.8,104.1,52.8z"/>
			</g>
			<g>
				<path fill="#231F20" d="M100,56.8c-0.2,0-0.4-0.1-0.5-0.2c-0.3-0.3-0.3-0.8,0-1.1l1.3-1.3c0.3-0.3,0.8-0.3,1.1,0
					c0.3,0.3,0.3,0.8,0,1.1l-1.3,1.3C100.4,56.7,100.2,56.8,100,56.8z"/>
			</g>
			<g>
				<path fill="#231F20" d="M105.4,56.8c-0.2,0-0.4-0.1-0.5-0.2l-1.3-1.3c-0.3-0.3-0.3-0.8,0-1.1c0.3-0.3,0.8-0.3,1.1,0l1.3,1.3
					c0.3,0.3,0.3,0.8,0,1.1C105.7,56.7,105.6,56.8,105.4,56.8z"/>
			</g>
			<g>
				<path fill="#231F20" d="M101.3,52.8c-0.2,0-0.4-0.1-0.5-0.2l-1.3-1.3c-0.3-0.3-0.3-0.8,0-1.1c0.3-0.3,0.8-0.3,1.1,0l1.3,1.3
					c0.3,0.3,0.3,0.8,0,1.1C101.7,52.7,101.5,52.8,101.3,52.8z"/>
			</g>
		</g>
		<g>
			<g>
				<path fill="#231F20" d="M54.4,116.7c-0.2,0-0.4-0.1-0.5-0.2c-0.3-0.3-0.3-0.8,0-1.1l1.3-1.3c0.3-0.3,0.8-0.3,1.1,0
					c0.3,0.3,0.3,0.8,0,1.1l-1.3,1.3C54.8,116.6,54.6,116.7,54.4,116.7z"/>
			</g>
			<g>
				<path fill="#231F20" d="M50.4,120.7c-0.2,0-0.4-0.1-0.5-0.2c-0.3-0.3-0.3-0.8,0-1.1l1.3-1.3c0.3-0.3,0.8-0.3,1.1,0
					c0.3,0.3,0.3,0.8,0,1.1l-1.3,1.3C50.8,120.6,50.6,120.7,50.4,120.7z"/>
			</g>
			<g>
				<path fill="#231F20" d="M55.7,120.7c-0.2,0-0.4-0.1-0.5-0.2l-1.3-1.3c-0.3-0.3-0.3-0.8,0-1.1c0.3-0.3,0.8-0.3,1.1,0l1.3,1.3
					c0.3,0.3,0.3,0.8,0,1.1C56.1,120.6,55.9,120.7,55.7,120.7z"/>
			</g>
			<g>
				<path fill="#231F20" d="M51.7,116.7c-0.2,0-0.4-0.1-0.5-0.2l-1.3-1.3c-0.3-0.3-0.3-0.8,0-1.1s0.8-0.3,1.1,0l1.3,1.3
					c0.3,0.3,0.3,0.8,0,1.1C52.1,116.6,51.9,116.7,51.7,116.7z"/>
			</g>
		</g>
		<g>
			<g>
				<path fill="#FFFFFF" d="M128.9,21.3v-4.4l-3.3-0.3c-0.4-2.2-1.3-4.3-2.5-6.1l2.1-2.6l-3.1-3.1L119.5,7c-1.8-1.3-3.9-2.1-6.1-2.5
					l-0.3-3.3h-4.4l-0.3,3.3c-2.2,0.4-4.3,1.3-6.1,2.5l-2.6-2.1l-3.1,3.1l2.1,2.6c-1.3,1.8-2.1,3.9-2.5,6.1L93,16.9v4.4l3.3,0.3
					c0.4,2.2,1.3,4.3,2.5,6.1l-2.1,2.6l3.1,3.1l2.6-2.1c1.8,1.3,3.9,2.1,6.1,2.5l0.3,3.3h4.4l0.3-3.3c2.2-0.4,4.3-1.3,6.1-2.5
					l2.6,2.1l3.1-3.1l-2.1-2.6c1.3-1.8,2.1-3.9,2.5-6.1L128.9,21.3z"/>
				<path fill="#231F20" d="M113.1,37.8h-4.4c-0.4,0-0.7-0.3-0.7-0.7l-0.3-2.8c-1.9-0.4-3.7-1.1-5.4-2.2l-2.1,1.8
					c-0.3,0.2-0.7,0.2-1,0l-3.1-3.1c-0.3-0.3-0.3-0.7,0-1l1.8-2.1c-1.1-1.6-1.8-3.4-2.2-5.4L92.9,22c-0.4,0-0.7-0.4-0.7-0.7v-4.4
					c0-0.4,0.3-0.7,0.7-0.7l2.8-0.3c0.4-1.9,1.1-3.7,2.2-5.4l-1.8-2.1c-0.2-0.3-0.2-0.7,0-1l3.1-3.1c0.3-0.3,0.7-0.3,1,0l2.1,1.8
					c1.6-1.1,3.4-1.8,5.4-2.2l0.3-2.8c0-0.4,0.4-0.7,0.7-0.7h4.4c0.4,0,0.7,0.3,0.7,0.7l0.3,2.8c1.9,0.4,3.7,1.1,5.4,2.2l2.1-1.8
					c0.3-0.2,0.7-0.2,1,0l3.1,3.1c0.3,0.3,0.3,0.7,0,1l-1.8,2.1c1.1,1.6,1.8,3.4,2.2,5.4l2.8,0.3c0.4,0,0.7,0.4,0.7,0.7v4.4
					c0,0.4-0.3,0.7-0.7,0.7l-2.8,0.3c-0.4,1.9-1.1,3.7-2.2,5.4l1.8,2.1c0.2,0.3,0.2,0.7,0,1l-3.1,3.1c-0.3,0.3-0.7,0.3-1,0l-2.1-1.8
					c-1.6,1.1-3.4,1.8-5.4,2.2l-0.3,2.8C113.8,37.5,113.5,37.8,113.1,37.8z M109.4,36.3h3l0.2-2.7c0-0.3,0.3-0.6,0.6-0.7
					c2.1-0.4,4.1-1.2,5.8-2.4c0.3-0.2,0.7-0.2,0.9,0l2.1,1.7l2.1-2.1l-1.7-2.1c-0.2-0.3-0.2-0.6,0-0.9c1.2-1.7,2-3.7,2.4-5.8
					c0.1-0.3,0.3-0.6,0.7-0.6l2.7-0.2v-3l-2.7-0.2c-0.3,0-0.6-0.3-0.7-0.6c-0.4-2.1-1.2-4-2.4-5.8c-0.2-0.3-0.2-0.7,0-0.9l1.7-2.1
					L122,5.9L120,7.6c-0.3,0.2-0.6,0.2-0.9,0c-1.7-1.2-3.7-2-5.8-2.4c-0.3-0.1-0.6-0.3-0.6-0.7l-0.2-2.7h-3l-0.2,2.7
					c0,0.3-0.3,0.6-0.6,0.7c-2.1,0.4-4.1,1.2-5.8,2.4c-0.3,0.2-0.7,0.2-0.9,0l-2.1-1.7L97.7,8l1.7,2.1c0.2,0.3,0.2,0.6,0,0.9
					c-1.2,1.7-2,3.7-2.4,5.8c-0.1,0.3-0.3,0.6-0.7,0.6l-2.7,0.2v3l2.7,0.2c0.3,0,0.6,0.3,0.7,0.6c0.4,2.1,1.2,4.1,2.4,5.8
					c0.2,0.3,0.2,0.7,0,0.9l-1.7,2.1l2.1,2.1l2.1-1.7c0.3-0.2,0.6-0.2,0.9,0c1.7,1.2,3.7,2,5.8,2.4c0.3,0.1,0.6,0.3,0.6,0.7
					L109.4,36.3z"/>
			</g>
			<g>
				<path fill="#231F20" d="M110.6,31.1c-0.4,0-0.7,0-1.1-0.1l0.2-1.5c0.3,0,0.6,0.1,0.9,0.1L110.6,31.1z M112.7,31l-0.2-1.5
					c0.3,0,0.6-0.1,0.9-0.2l0.4,1.5C113.4,30.9,113.1,30.9,112.7,31z M107.4,30.6c-0.3-0.1-0.7-0.2-1-0.4l0.6-1.4
					c0.3,0.1,0.6,0.2,0.9,0.3L107.4,30.6z M115.8,30.1l-0.6-1.4c0.3-0.1,0.6-0.3,0.8-0.4l0.7,1.3C116.4,29.8,116.1,29.9,115.8,30.1z
					 M104.5,29.3c-0.3-0.2-0.6-0.4-0.9-0.6l0.9-1.2c0.2,0.2,0.5,0.4,0.8,0.5L104.5,29.3z M118.5,28.4l-0.9-1.2
					c0.2-0.2,0.5-0.4,0.7-0.6l1,1.1C119,28,118.8,28.2,118.5,28.4z M102.1,27.2c-0.2-0.3-0.5-0.5-0.7-0.8l1.2-0.9
					c0.2,0.2,0.4,0.5,0.6,0.7L102.1,27.2z M120.7,26.1l-1.2-0.9c0.2-0.3,0.4-0.5,0.5-0.8l1.3,0.8C121.1,25.5,120.9,25.8,120.7,26.1z
					 M100.3,24.6c-0.2-0.3-0.3-0.6-0.4-1l1.4-0.6c0.1,0.3,0.2,0.6,0.4,0.8L100.3,24.6z M122.2,23.3l-1.4-0.5
					c0.1-0.3,0.2-0.6,0.3-0.9l1.4,0.4C122.4,22.6,122.3,23,122.2,23.3z M99.2,21.6c-0.1-0.3-0.1-0.7-0.2-1.1l1.5-0.2
					c0,0.3,0.1,0.6,0.2,0.9L99.2,21.6z M122.9,20.2l-1.5-0.1c0-0.3,0-0.6,0-0.9h1.5C122.9,19.5,122.9,19.8,122.9,20.2z M100.4,18.5
					l-1.5-0.1c0-0.4,0.1-0.7,0.1-1.1l1.5,0.2C100.5,17.9,100.5,18.2,100.4,18.5z M121.4,18.4c0-0.3-0.1-0.6-0.1-0.9l1.5-0.2
					c0.1,0.3,0.1,0.7,0.1,1.1L121.4,18.4z M101,15.8l-1.4-0.5c0.1-0.3,0.2-0.7,0.4-1l1.4,0.6C101.2,15.2,101.1,15.5,101,15.8z
					 M120.9,15.7c-0.1-0.3-0.2-0.6-0.3-0.9l1.4-0.6c0.1,0.3,0.3,0.7,0.4,1L120.9,15.7z M102.2,13.3l-1.2-0.8
					c0.2-0.3,0.4-0.6,0.6-0.9l1.2,0.9C102.5,12.8,102.4,13,102.2,13.3z M119.6,13.2c-0.2-0.3-0.4-0.5-0.6-0.7l1.2-1
					c0.2,0.3,0.4,0.6,0.6,0.9L119.6,13.2z M104,11.2l-1-1.1c0.3-0.2,0.5-0.5,0.8-0.7l0.9,1.2C104.5,10.8,104.3,11,104,11.2z
					 M117.7,11.1c-0.2-0.2-0.5-0.4-0.7-0.6l0.9-1.2c0.3,0.2,0.6,0.4,0.8,0.7L117.7,11.1z M106.4,9.6l-0.7-1.4c0.3-0.2,0.6-0.3,1-0.4
					l0.5,1.4C106.9,9.4,106.6,9.5,106.4,9.6z M115.4,9.6c-0.3-0.1-0.6-0.3-0.9-0.4l0.5-1.4c0.3,0.1,0.7,0.3,1,0.4L115.4,9.6z
					 M109,8.8l-0.3-1.5c0.3-0.1,0.7-0.1,1.1-0.1l0.1,1.5C109.6,8.7,109.3,8.7,109,8.8z M112.7,8.8c-0.3-0.1-0.6-0.1-0.9-0.1l0.1-1.5
					c0.4,0,0.7,0.1,1.1,0.1L112.7,8.8z"/>
			</g>
			<g>
				<circle fill="#FF7058" cx="110.9" cy="19.1" r="8.9"/>
			</g>
			<g>
				<circle fill="#FFFFFF" cx="110.9" cy="19.1" r="4.5"/>
				<path fill="#231F20" d="M110.9,24.3c-2.9,0-5.2-2.3-5.2-5.2s2.3-5.2,5.2-5.2c2.9,0,5.2,2.3,5.2,5.2S113.8,24.3,110.9,24.3z
					 M110.9,15.4c-2,0-3.7,1.7-3.7,3.7s1.7,3.7,3.7,3.7c2,0,3.7-1.7,3.7-3.7S113,15.4,110.9,15.4z"/>
			</g>
		</g>
		<polygon fill="#FFFFFF" points="27.1,59.7 21,67.8 0.9,52.7 7,44.6 7.3,46.4 25.3,59.9 		"/>
		<polygon fill="#FFFFFF" points="11,37.2 6.8,42.9 7.3,46.4 25.3,59.9 28.8,59.4 33.1,53.8 		"/>
		<polygon fill="#FFFFFF" points="20.1,60.2 17.4,58.2 20.2,53.4 23.9,56.1 		"/>
		<polygon fill="#FFFFFF" points="11.2,53.5 8.5,51.5 11.3,46.7 15,49.4 		"/>
		<path fill="#231F20" d="M96.1,76.8v12.7H73l0.4-0.2l0-3.3l-0.8,0.1c0,0-0.5,0.1-1.4,0.1c-1.9,0-6.6-0.3-8.1-3.2
			c0-0.1-0.2-0.6-0.3-1.2l3.2,0.7L77.6,65c0.9-1.4,1.2-3.1,0.8-4.7c-0.4-1.6-1.5-2.9-3-3.7L58.3,48c0.9-2.5,1.7-4.9,2.4-7.1l5,5.3
			l16-11.4l-0.2-0.4l3-0.9c1.1-0.3,1.9-1.1,2.4-2.2c0.4-1,0.4-2.2-0.2-3.2c-0.7-1.2-1.9-2-3.4-2c-0.9,0-1.8,0.3-2.4,0.9l-2.3,2
			l-0.3-0.6l-11.6,6.4l-2.9-5.6c0.1-0.7,0.2-1.1,0.2-1.1c0-0.1,0-0.2,0-0.3c-0.7-3.2-2.2-5.7-3.8-7.5l1.6-2.4
			c0.3,0.1,0.7,0.1,1.2,0.1c2.4,0,3.8-1.4,3.8-3.7c0.1-2-0.3-4.6-1-6.9c-0.9-3-3.3-5.2-6.3-5.8c-3.9-0.8-7,0.8-8.5,4.3
			c0,0-2.4,4.1,1,8.1c0,0.3,0.1,0.8,0,1.4c-0.1,0-0.3,0.1-0.4,0.1c-0.7,0.5-2,0.6-3.5,0.2c-0.4-0.2-0.8-0.3-1.3-0.3
			c-0.7,0-1.4,0.3-1.9,0.8L34,26.2L22.2,39.5l-1.7-1.3l-2.5,3.3l-7.2-5.4L6,42.7l0.2,1.7l-6.4,8.5l21.3,16l6.4-8.5l1.7-0.2l4.9-6.5
			l-7.2-5.4l2.5-3.3L28.2,44c2.5-2.1,7.6-6.5,12.2-10.4C40.3,41,35,58.9,34.9,59.1c-0.1,0.2,0,0.4,0.1,0.6c0,0,0,0,0,0l-2.5,13.7
			L16.2,99.1c-3.3,0.3-6.7,2.8-6.8,3l-0.4,0.3l1.2,5.2l1.6,0.5c-0.5,3.2,0.5,5.6,1.3,6.9H0.1v13.5h1.5v-12h12.8l8.1,0.4v-0.4h11
			v-12.7h32V91h32V78.3h31.3v-1.5H96.1z M71.2,87.6c0.3,0,0.5,0,0.7,0v0.8c-1.2,0.5-2.7,0.8-4.4,0.8c-4,0-7.8-1.5-7.8-1.5l-0.7-0.3
			l-0.3,0.7c-0.1,0.3-0.2,0.6-0.4,0.8c-0.9-0.1-2.9-0.5-4.4-0.7c-0.2-3.6,2.3-6.4,3.7-7.6l3.7,0.9c0.2,1.1,0.5,2.1,0.5,2.1l0,0.1
			C63.5,87.1,68.4,87.6,71.2,87.6z M74.8,58c1.1,0.5,1.9,1.5,2.2,2.7c0.3,1.2,0.1,2.4-0.6,3.4L65.2,80.8L57.9,79l9.7-15.8l-15-3.1
			l0,0c2-3.5,3.7-7.2,5.2-10.7l0,0L74.8,58z M81.8,28.1c0.4-0.4,0.9-0.5,1.5-0.5c0.9,0,1.6,0.5,2,1.2c0.3,0.6,0.4,1.3,0.1,1.9
			c-0.3,0.6-0.8,1.1-1.4,1.3l-3.2,1l-1.5-2.8L81.8,28.1z M66,36.8l11.6-6.4l0,0.1c0,0,0,0,0,0l2.1,3.9c0,0,0,0,0,0l0,0l-13.8,9.9
			l-4.7-5c0.9-3.2,1.5-5.9,2-7.8L66,36.8z M52.1,6.3c1.3-3,3.7-4.1,6.9-3.5c2.5,0.5,4.5,2.3,5.2,4.8c0.6,2.2,1,4.6,0.9,6.5
			c0,1-0.3,2.3-2.3,2.3c-0.7,0-1.3-0.2-1.3-0.2l-0.5-0.2l-2,3c-2.1-2-4.4-3.1-5.7-3.6c0.2-1.1,0-2.1,0-2.3l0-0.2L53,12.8
			C50.2,9.7,52,6.5,52.1,6.3z M20.9,66.8L1.9,52.6l4.6-6.1l0,0.3l2.7,2l-1.7,2.9l3.7,2.8l2.3-2.5l4.6,3.4l-1.7,2.9l3.7,2.8l2.3-2.5
			l2.7,2l0,0l0,0l0.3,0L20.9,66.8z M9.5,51.3l2.1-3.5l2.3,1.7l-2.8,3L9.5,51.3z M18.4,58l2.1-3.5l2.3,1.7l-2.8,3L18.4,58z M32,53.9
			l-3.6,4.8l-2.9,0.4l-2-1.5L25,56l-5-3.7l-1.1,1.9l-4.3-3.2l1.5-1.6l-5-3.7L10,47.5L8,46l-0.4-2.9l3.6-4.8l6,4.5l0,0l8.8,6.6
			L32,53.9z M25.7,47.3l-6.4-4.8l1.6-2.1l6.4,4.8L25.7,47.3z M26.9,43l-2.1-1.6l-1.4-1.1l11.6-13.2L45.7,17c0.5-0.5,1.4-0.4,1.9,0.1
			c0,0,0,0,0,0c1.3,1.7,2.4,4.4,0.3,8C47.9,25.1,29.5,40.9,26.9,43z M41.8,32.3c0.2-0.2,7.1-6.1,7.1-6.1c0.1-0.1,0.1-0.1,0.2-0.2
			c2.2-3.8,1.4-6.9,0.3-8.8c1,0,1.9-0.1,2.6-0.6c1.6,0.6,8.6,3.5,10.4,11.2C62,29.6,58.9,47.6,50,61.5l-13.4-2.8
			C37.7,54.9,42.3,38.5,41.8,32.3z M34,74l2.5-13.7l10.7,2.2L36.7,82.3l-13.5,20.3l-5.4-3.2L34,74z M13.3,107.7l0.1-0.6l-2-0.7
			l-0.8-3.4c1-0.7,3.8-2.4,6.1-2.4l3.5,2.1c-0.2,0.7-0.2,1.5,0.2,2c-0.9,1.9-3.6,7.7-2,10.2l0,0h-3.6
			C14.3,114.2,12.5,111.7,13.3,107.7z M32.1,102.2v12.7h-9.5v-0.8l-3-0.3c-0.7-1.8,1.1-6.3,2.4-8.9l0.4-0.7l-0.7-0.3
			c-0.1,0-0.1-0.2-0.1-0.4l2,1.2L38,83.1l10.7-20.3l1.5,0.3c0.1,0,0.1,0,0.2,0c0.3,0,0.5-0.1,0.6-0.3c0.3-0.4,0.5-0.8,0.8-1.3
			l13.5,2.8L55.5,80l0.2,0c-1.7,1.7-3.9,4.9-3.3,8.8l0.1,0.5l0.5,0.1c5.4,0.9,5.5,0.9,5.6,0.9c0.4,0,0.7-0.2,1.1-1.1
			c0.9,0.3,2.5,0.8,4.4,1.1v11.8H32.1z"/>
		<g>
			<g>
				<g>
					<line fill="#FFFFFF" x1="84.1" y1="65.5" x2="92.8" y2="65.5"/>
					<path fill="#231F20" d="M92.8,66.3h-8.7c-0.4,0-0.8-0.3-0.8-0.8s0.3-0.8,0.8-0.8h8.7c0.4,0,0.8,0.3,0.8,0.8
						S93.3,66.3,92.8,66.3z"/>
				</g>
				<g>
					<line fill="#FFFFFF" x1="92" y1="68.7" x2="96.3" y2="68.7"/>
					<path fill="#231F20" d="M96.3,69.5H92c-0.4,0-0.8-0.3-0.8-0.8S91.6,68,92,68h4.3c0.4,0,0.8,0.3,0.8,0.8S96.7,69.5,96.3,69.5z"
						/>
				</g>
				<g>
					<line fill="#FFFFFF" x1="96.8" y1="65.5" x2="100.8" y2="65.5"/>
					<path fill="#231F20" d="M100.8,66.3h-4.1c-0.4,0-0.8-0.3-0.8-0.8s0.3-0.8,0.8-0.8h4.1c0.4,0,0.8,0.3,0.8,0.8
						S101.3,66.3,100.8,66.3z"/>
				</g>
				<g>
					<line fill="#FFFFFF" x1="88.1" y1="68.7" x2="88.9" y2="68.7"/>
					<path fill="#231F20" d="M88.9,69.5h-0.8c-0.4,0-0.8-0.3-0.8-0.8s0.3-0.8,0.8-0.8h0.8c0.4,0,0.8,0.3,0.8,0.8
						S89.3,69.5,88.9,69.5z"/>
				</g>
			</g>
		</g>
		<circle fill="#FFFFFF" cx="102.7" cy="113.2" r="15.2"/>
		<circle fill="#FF7058" cx="102.7" cy="113.2" r="4.1"/>
		<path fill="#231F20" d="M129.6,92.6c-0.1-0.3-0.3-0.5-0.6-0.5l-4.6-0.6l-0.6-4.6c0-0.3-0.2-0.5-0.5-0.6c-0.3-0.1-0.6,0-0.8,0.2
			l-5.9,5.9c-0.2,0.2-0.2,0.4-0.2,0.6l0.7,4.8l-3.7,3.7c-2.8-2.6-6.6-4.2-10.7-4.2c-8.8,0-15.9,7.2-15.9,15.9
			c0,8.8,7.2,15.9,15.9,15.9c8.8,0,15.9-7.2,15.9-15.9c0-4.1-1.6-7.9-4.2-10.7l3.7-3.7l4.8,0.7c0,0,0.1,0,0.1,0
			c0.2,0,0.4-0.1,0.5-0.2l5.9-5.9C129.6,93.2,129.7,92.9,129.6,92.6z M122.5,88.6l0.5,3.3l-4.6,4.6l-0.5-3.3L122.5,88.6z
			 M117.1,113.2c0,8-6.5,14.4-14.4,14.4c-8,0-14.4-6.5-14.4-14.4c0-8,6.5-14.4,14.4-14.4c3.7,0,7.1,1.4,9.7,3.7l-1.8,1.8
			c-2.1-1.9-4.9-3-7.9-3c-6.6,0-11.9,5.3-11.9,11.9c0,6.6,5.3,11.9,11.9,11.9c6.6,0,11.9-5.3,11.9-11.9c0-3-1.1-5.8-3-7.9l1.8-1.8
			C115.7,106.1,117.1,109.5,117.1,113.2z M102.2,113.7c0.1,0.1,0.3,0.2,0.5,0.2s0.4-0.1,0.5-0.2l4.6-4.6c0.9,1.1,1.4,2.5,1.4,4
			c0,3.6-2.9,6.5-6.5,6.5s-6.5-2.9-6.5-6.5c0-3.6,2.9-6.5,6.5-6.5c1.5,0,2.9,0.5,4,1.4l-4.6,4.6
			C101.9,112.9,101.9,113.4,102.2,113.7z M107.8,107c-1.4-1.2-3.2-1.8-5.1-1.8c-4.4,0-8,3.6-8,8c0,4.4,3.6,8,8,8c4.4,0,8-3.6,8-8
			c0-1.9-0.6-3.7-1.8-5.1l1.7-1.7c1.6,1.8,2.5,4.2,2.5,6.8c0,5.7-4.7,10.4-10.4,10.4c-5.7,0-10.4-4.7-10.4-10.4
			c0-5.7,4.7-10.4,10.4-10.4c2.6,0,5,1,6.8,2.5L107.8,107z M122.7,97.9l-3.3-0.5l4.6-4.6l3.3,0.5L122.7,97.9z"/>
	</g>
</g>
</svg>
