<svg xmlns="http://www.w3.org/2000/svg" viewBox="0 0 64 64"><path d="M26 53.25a.5.5 0 0 1-.5-.5v-3.5a.5.5 0 1 1 1 0v3.5a.5.5 0 0 1-.5.5zm12 0a.5.5 0 0 1-.5-.5v-3.5a.5.5 0 1 1 1 0v3.5a.5.5 0 0 1-.5.5zm4 6H22a1.5 1.5 0 0 1-1.5-1.5v-2a1.5 1.5 0 0 1 1.5-1.5h20a1.5 1.5 0 0 1 1.5 1.5v2a1.5 1.5 0 0 1-1.5 1.5zm-20-4a.5.5 0 0 0-.5.5v2a.5.5 0 0 0 .5.5h20a.5.5 0 0 0 .5-.5v-2a.5.5 0 0 0-.5-.5H22zm37.5-7.5h-55c-1.654 0-3-1.346-3-3v-37c0-1.654 1.346-3 3-3h55c1.654 0 3 1.346 3 3v37c0 1.654-1.346 3-3 3zm-55-42c-1.103 0-2 .897-2 2v37c0 1.103.897 2 2 2h55c1.103 0 2-.897 2-2v-37c0-1.103-.897-2-2-2h-55zm52 47.5H49a.5.5 0 1 1 0-1h7.5a.5.5 0 1 1 0 1zm3 0h-1a.5.5 0 1 1 0-1h1a.5.5 0 1 1 0 1zm-44.5 0H7.5a.5.5 0 1 1 0-1H15a.5.5 0 1 1 0 1zm-9.5 0h-1a.5.5 0 1 1 0-1h1a.5.5 0 1 1 0 1z" fill="#263238"/><path d="M58 42.25H6a1 1 0 0 1-1-1v-30a1 1 0 0 1 1-1h52a1 1 0 0 1 1 1v30a1 1 0 0 1-1 1z" fill="#ffd740"/><g fill="#263238"><path d="M58 42.75H6a1.5 1.5 0 0 1-1.5-1.5v-30A1.5 1.5 0 0 1 6 9.75h52a1.5 1.5 0 0 1 1.5 1.5v30a1.5 1.5 0 0 1-1.5 1.5zm-52-32a.5.5 0 0 0-.5.5v30a.5.5 0 0 0 .5.5h52a.5.5 0 0 0 .5-.5v-30a.5.5 0 0 0-.5-.5H6zm50 8a.5.5 0 0 1-.354-.146l-5-5a.5.5 0 0 1 .707-.707l5 5a.5.5 0 0 1-.353.853z"/><path d="M56 23.75a.5.5 0 0 1-.354-.146l-10-10a.5.5 0 0 1 .707-.707l10 10a.5.5 0 0 1-.353.853z"/></g></svg>