<svg xmlns="http://www.w3.org/2000/svg" xmlns:xlink="http://www.w3.org/1999/xlink" viewBox="0 0 129.5 129.5"><g fill="#231f20"><path d="M66.9 109.6h-1.5v-.1h1.5v.1zm0-2.2h-1.5v-1h1.5v1zm0-3h-1.5v-1h1.5v1zm0-3h-1.5v-1h1.5v1zm0-3h-1.5v-1h1.5v1zm0-3h-1.5v-1h1.5v1zm0-3h-1.5v-1h1.5v1zm0-3h-1.5v-1h1.5v1zm0-3h-1.5v-1h1.5v1zm0-3h-1.5v-1h1.5v1zm0-3h-1.5v-1h1.5v1z"/><path d="M86 109.6h-1.5V72.5h5.8L75.7 57.8 61.1 72.5h5.8v6.9h-1.5V74h-8l18.3-18.3L94 74h-8zM42.7 95.9h-1.5 1.5zm0-2h-1.5v-1h1.5v1zm0-3h-1.5v-1h1.5v1zm0-3h-1.5v-1h1.5v1zm0-3h-1.5v-1h1.5v1zm0-3h-1.5v-1h1.5v1zm0-3h-1.5v-1h1.5v1zm0-3h-1.5v-1h1.5v1zm0-3h-1.5v-1h1.5v1z"/><path d="M55.4 95.9h-1.5V67h3.5l-9.1-9.2-9.1 9.2h3.5v4.9h-1.5v-3.4h-5.7l12.8-12.8 12.8 12.8h-5.7zm35.2 7.8c-.4 0-.8-.3-.8-.8v-2.4c0-.4.3-.8.8-.8.4 0 .8.3.8.8v2.4c-.1.5-.4.8-.8.8zm0-5.3c-.4 0-.8-.3-.8-.8v-1.3c0-.4.3-.8.8-.8.4 0 .8.3.8.8v1.3c-.1.5-.4.8-.8.8zm0-4.1c-.4 0-.8-.3-.8-.8V77.2c0-.4.3-.8.8-.8.4 0 .8.3.8.8v16.3c-.1.5-.4.8-.8.8zm-18.4 12.9c-.4 0-.8-.3-.8-.8V104c0-.4.3-.8.8-.8.4 0 .8.3.8.8v2.4c-.1.4-.4.8-.8.8zm0-5.3c-.4 0-.8-.3-.8-.8v-1.3c0-.4.3-.8.8-.8.4 0 .8.3.8.8v1.3c-.1.5-.4.8-.8.8zm0-4.1c-.4 0-.8-.3-.8-.8V80.7c0-.4.3-.8.8-.8.4 0 .8.3.8.8V97c-.1.5-.4.8-.8.8zm-23.9-.7c-.4 0-.8-.3-.8-.8v-2c0-.4.3-.8.8-.8.4 0 .8.3.8.8v2c-.1.5-.4.8-.8.8zm0-4.4c-.4 0-.8-.3-.8-.8v-1.1c0-.4.3-.8.8-.8.4 0 .8.3.8.8v1.1c-.1.5-.4.8-.8.8zm0-3.4c-.4 0-.8-.3-.8-.8V74.8c0-.4.3-.8.8-.8.4 0 .8.3.8.8v13.7c-.1.4-.4.8-.8.8zm11 18.7c-.4 0-.8-.3-.8-.8v-2c0-.4.3-.8.8-.8.4 0 .8.3.8.8v2c-.1.4-.4.8-.8.8zm0-4.4c-.4 0-.8-.3-.8-.8v-1.1c0-.4.3-.8.8-.8.4 0 .8.3.8.8v1.1c-.1.4-.4.8-.8.8zm0-3.5c-.4 0-.8-.3-.8-.8V85.7c0-.4.3-.8.8-.8.4 0 .8.3.8.8v13.7c-.1.4-.4.7-.8.7z"/></g><path fill="#fff" d="M59.6 27.5V.7C45.7 1.9 33.1 7.3 23.2 15.8l18.9 18.9c5-3.8 10.9-6.3 17.5-7.2z"/><path fill="#231f20" d="M42.1 35.5c-.2 0-.4-.1-.5-.2l-19-19c-.1-.1-.2-.4-.2-.6a.55.55 0 0 1 .3-.5C33.1 6.4 45.9 1.1 59.5 0c.2 0 .4.1.6.2s.2.3.2.6v26.7c0 .4-.3.7-.6.7-6.2.8-12.1 3.3-17.1 7.1-.2.1-.4.2-.5.2zM24.3 15.9l17.9 17.9c4.9-3.6 10.7-6 16.7-6.9V1.6C46.1 2.7 34.2 7.7 24.3 15.9z"/><path fill="#fff" d="M102 59.6h26.7c-1.1-13.8-6.6-26.4-15.1-36.4L94.8 42.1c3.8 5 6.3 10.9 7.2 17.5z"/><path fill="#231f20" d="M128.8 60.3H102c-.4 0-.7-.3-.7-.6-.8-6.2-3.3-12.1-7.1-17.1-.2-.3-.2-.7.1-1l18.9-18.9c.1-.1.3-.2.6-.2a.55.55 0 0 1 .5.3c8.9 10.4 14.1 23.2 15.2 36.8 0 .2-.1.4-.2.6-.1 0-.3.1-.5.1zm-26.1-1.5H128c-1.2-12.7-6.1-24.7-14.3-34.5L95.8 42.1c3.6 5 6 10.7 6.9 16.7z"/><path fill="#fff" d="M106.3 15.8C96.3 7.3 83.7 1.8 69.9.7v26.7c6.5.9 12.5 3.5 17.5 7.2l18.9-18.8z"/><path fill="#231f20" d="M87.4 35.5c-.2 0-.3 0-.5-.2-5-3.8-11-6.3-17.1-7.1-.4-.1-.6-.4-.6-.7V.7c0-.2.1-.4.2-.6.2 0 .4-.1.6-.1 13.6 1.1 26.4 6.4 36.8 15.2a.55.55 0 0 1 .3.5c0 .2-.1.4-.2.6L88 35.2c-.2.2-.4.3-.6.3zm-16.7-8.7c6 .9 11.7 3.3 16.7 6.9l17.9-17.9C95.4 7.7 83.4 2.7 70.7 1.6v25.2z"/><path fill="#fff" d="M34.7 42.1L15.8 23.2C7.3 33.2 1.8 45.8.7 59.6h26.7c1-6.6 3.5-12.5 7.3-17.5z"/><path fill="#231f20" d="M27.5 60.3H.8c-.2 0-.4-.1-.6-.2-.1-.2-.2-.4-.2-.6 1.1-13.6 6.4-26.4 15.2-36.8a.55.55 0 0 1 .5-.3c.2 0 .4.1.6.2l18.9 18.9c.3.3.3.7.1 1-3.8 5-6.3 11-7.1 17.1 0 .4-.4.7-.7.7zM1.6 58.8h25.3c.9-6 3.3-11.7 6.9-16.7L15.9 24.3C7.7 34.1 2.7 46 1.6 58.8z"/><path fill="#fff" d="M27.5 69.9H.7c1.1 13.8 6.6 26.4 15.1 36.4l18.9-18.9c-3.8-5-6.3-10.9-7.2-17.5z"/><path fill="#231f20" d="M15.8 107.1c-.2 0-.4-.1-.6-.3A64.65 64.65 0 0 1 0 70c0-.2.1-.4.2-.6s.3-.2.6-.2h26.7c.4 0 .7.3.7.6.9 6.2 3.3 12.2 7.1 17.2.2.3.2.7-.1 1l-18.9 18.9c-.1.1-.3.2-.5.2zM1.6 70.7c1.2 12.8 6.1 24.7 14.3 34.5l17.9-17.9c-3.6-4.9-6-10.7-6.9-16.7H1.6z"/><path fill="#fff" d="M94.8 87.4l18.9 18.9c8.5-10 14-22.6 15.1-36.4H102c-.9 6.6-3.4 12.5-7.2 17.5z"/><path fill="#231f20" d="M113.7 107.1c-.2 0-.4-.1-.5-.2L94.3 88c-.3-.3-.3-.7-.1-1 3.8-5 6.3-10.9 7.1-17.1.1-.4.4-.6.7-.6h26.7c.2 0 .4.1.6.2.1.2.2.4.2.6-1.1 13.6-6.4 26.4-15.2 36.8-.2.1-.4.2-.6.2zM95.8 87.4l17.9 17.9A63.08 63.08 0 0 0 128 70.8h-25.3c-.9 5.9-3.3 11.6-6.9 16.6z"/><path fill="#84dbff" d="M101.9 16C93.4 9.5 83.5 5.4 73 4v20.9c5 1 9.8 3 14.2 5.9L101.9 16z"/><path fill="#ff7058" d="M104.6 56.6h20.9c-1.4-10.5-5.5-20.4-12-28.9L98.7 42.4c2.8 4.3 4.8 9.1 5.9 14.2z"/><path fill="#ffd05b" d="M98.7 87.1l14.8 14.8c6.5-8.5 10.6-18.4 12-28.9h-20.9c-1.1 5-3.1 9.8-5.9 14.1z"/><path fill="#e6e9ee" d="M42.4,30.8c4.3-2.8,9.1-4.8,14.2-5.9V4.1C46,5.5,36.1,9.6,27.7,16.1L42.4,30.8z"/><g fill="#231f20"><use xlink:href="#B"/><use xlink:href="#B" x="-4" y="4"/><use xlink:href="#C"/><path d="M10.3 7.3c-.2 0-.4-.1-.5-.2L8.5 5.8c-.3-.3-.3-.8 0-1.1s.8-.3 1.1 0L10.8 6c.3.3.3.8 0 1.1-.1.1-.3.2-.5.2z"/><use xlink:href="#B" x="105.9" y="4.7"/><use xlink:href="#B" x="101.9" y="8.7"/><use xlink:href="#C" x="105.9" y="4.7"/><use xlink:href="#C" x="101.9" y="0.7"/><use xlink:href="#B" x="-1.4" y="110.4"/><path d="M7.6 121.7c-.2 0-.4-.1-.5-.2-.3-.3-.3-.8 0-1.1l1.3-1.3c.3-.3.8-.3 1.1 0s.3.8 0 1.1l-1.3 1.3c-.2.2-.4.2-.6.2zm5.3 0c-.2 0-.4-.1-.5-.2l-1.3-1.3c-.3-.3-.3-.8 0-1.1s.8-.3 1.1 0l1.3 1.3c.3.3.3.8 0 1.1-.2.2-.4.2-.6.2z"/><use xlink:href="#C" x="-5.4" y="106.4"/><path d="M106.9 127.1h-7c-.4 0-.8-.3-.8-.8 0-.4.3-.8.8-.8h7c.4 0 .8.3.8.8-.1.5-.4.8-.8.8zm5.9 0h-3.2c-.4 0-.8-.3-.8-.8 0-.4.3-.8.8-.8h3.2c.4 0 .8.3.8.8s-.4.8-.8.8zm-2.1 2.4H106c-.4 0-.8-.3-.8-.8 0-.4.3-.8.8-.8h4.7c.4 0 .8.3.8.8-.1.5-.4.8-.8.8zm-7.4 0h-1.8c-.4 0-.8-.3-.8-.8 0-.4.3-.8.8-.8h1.8c.4 0 .8.3.8.8-.1.5-.4.8-.8.8z"/></g><circle fill="#84dbff" cx="48.3" cy="49.7" r="1.5"/><circle fill="#ff7058" cx="77.2" cy="42.1" r="1.6"/><circle fill="#e6e9ee" cx="55.2" cy="126.6" r="2.1"/><circle fill="#84dbff" cx="118.1" cy="115.7" r="2.1"/><circle fill="#ffd05b" cx="27.7" cy="107.2" r="2.1"/><defs ><path id="B" d="M13 7.3c-.2 0-.4-.1-.5-.2-.3-.3-.3-.8 0-1.1l1.3-1.3c.3-.3.8-.3 1.1 0s.3.8 0 1.1l-1.3 1.3c-.2.1-.4.2-.6.2z"/><path id="C" d="M14.3 11.3c-.2 0-.4-.1-.5-.2l-1.3-1.3c-.3-.3-.3-.8 0-1.1s.8-.3 1.1 0l1.3 1.3c.3.3.3.8 0 1.1-.2.1-.4.2-.6.2z"/></defs></svg>