<?xml version="1.0" encoding="utf-8"?>
<!-- Generator: Adobe Illustrator 18.0.0, SVG Export Plug-In . SVG Version: 6.00 Build 0)  -->
<!DOCTYPE svg PUBLIC "-//W3C//DTD SVG 1.1//EN" "http://www.w3.org/Graphics/SVG/1.1/DTD/svg11.dtd">
<svg version="1.1" id="Layer_1" xmlns="http://www.w3.org/2000/svg" xmlns:xlink="http://www.w3.org/1999/xlink" x="0px" y="0px"
	 viewBox="0 0 129.5 129.5" enable-background="new 0 0 129.5 129.5" xml:space="preserve">
<g>
	<g>
		<g>
			<path fill="#84DBFF" d="M50.5,118.3L50.5,118.3c0,5.5,4.5,10,10,10h3.7c5.5,0,10-4.5,10-10l0,0H50.5z"/>
		</g>
		<g>
			<rect x="44.5" y="103.9" fill="#E6E9EE" width="35.6" height="12.4"/>
		</g>
		<g>
			<circle fill="#FFD05B" cx="62.4" cy="43.5" r="31.9"/>
		</g>
		<path fill="#FFFFFF" d="M86.1,46.1v-5.3l-5.9-1.1c-0.5-2.2-1.4-4.3-2.6-6.2l3.4-4.9l-3.8-3.8l-4.9,3.4c-1.9-1.2-3.9-2.1-6.2-2.6
			L65,19.7h-5.3l-1.1,5.9c-2.2,0.5-4.3,1.4-6.2,2.6l-4.9-3.4l-3.8,3.8l3.4,4.9c-1.2,1.9-2.1,3.9-2.6,6.2l-5.9,1.1l0,5.3l5.9,1.1
			c0.5,2.2,1.4,4.3,2.6,6.2l-3.4,4.9l3.8,3.8l4.9-3.4c1.9,1.2,3.9,2.1,6.2,2.6l1.1,5.9l5.3,0l1.1-5.9c2.2-0.5,4.3-1.4,6.2-2.6
			l4.9,3.4l3.8-3.8l-3.4-4.9c1.2-1.9,2.1-3.9,2.6-6.2L86.1,46.1z"/>
		<g>
			<circle fill="#E6E9EE" cx="62.4" cy="43.5" r="11.8"/>
		</g>
		<g>
			<circle fill="#FFFFFF" cx="62.4" cy="43.5" r="4.9"/>
			<path fill="#231F20" d="M62.4,49.1c-3.1,0-5.7-2.6-5.7-5.7c0-3.1,2.6-5.7,5.7-5.7c3.1,0,5.7,2.6,5.7,5.7
				C68.1,46.6,65.5,49.1,62.4,49.1z M62.4,39.3c-2.3,0-4.2,1.9-4.2,4.2c0,2.3,1.9,4.2,4.2,4.2c2.3,0,4.2-1.9,4.2-4.2
				C66.5,41.1,64.7,39.3,62.4,39.3z"/>
		</g>
		<circle fill="#FF7058" cx="86.5" cy="3.5" r="2.3"/>
		<g>
			<path fill="#231F20" d="M113.3,23.6c-0.2,0-0.4-0.1-0.5-0.2c-0.3-0.3-0.3-0.8,0-1.1l1.3-1.3c0.3-0.3,0.8-0.3,1.1,0
				c0.3,0.3,0.3,0.8,0,1.1l-1.3,1.3C113.7,23.5,113.5,23.6,113.3,23.6z"/>
			<path fill="#231F20" d="M109.2,27.8c-0.2,0-0.4-0.1-0.5-0.2c-0.3-0.3-0.3-0.8,0-1.1l1.3-1.3c0.3-0.3,0.8-0.3,1.1,0
				c0.3,0.3,0.3,0.8,0,1.1l-1.3,1.3C109.6,27.7,109.4,27.8,109.2,27.8z"/>
			<path fill="#231F20" d="M114.6,27.8c-0.2,0-0.4-0.1-0.5-0.2l-1.3-1.3c-0.3-0.3-0.3-0.8,0-1.1c0.3-0.3,0.8-0.3,1.1,0l1.3,1.3
				c0.3,0.3,0.3,0.8,0,1.1C115,27.7,114.8,27.8,114.6,27.8z"/>
			<path fill="#231F20" d="M110.5,23.6c-0.2,0-0.4-0.1-0.5-0.2l-1.3-1.3c-0.3-0.3-0.3-0.8,0-1.1c0.3-0.3,0.8-0.3,1.1,0l1.3,1.3
				c0.3,0.3,0.3,0.8,0,1.1C110.9,23.5,110.7,23.6,110.5,23.6z"/>
			<path fill="#231F20" d="M15.2,113.5c-0.2,0-0.4-0.1-0.5-0.2c-0.3-0.3-0.3-0.8,0-1.1l1.3-1.3c0.3-0.3,0.8-0.3,1.1,0
				c0.3,0.3,0.3,0.8,0,1.1l-1.3,1.3C15.5,113.5,15.4,113.5,15.2,113.5z"/>
			<path fill="#231F20" d="M11,117.7c-0.2,0-0.4-0.1-0.5-0.2c-0.3-0.3-0.3-0.8,0-1.1l1.3-1.3c0.3-0.3,0.8-0.3,1.1,0
				c0.3,0.3,0.3,0.8,0,1.1l-1.3,1.3C11.4,117.6,11.2,117.7,11,117.7z"/>
			<path fill="#231F20" d="M16.5,117.7c-0.2,0-0.4-0.1-0.5-0.2l-1.3-1.3c-0.3-0.3-0.3-0.8,0-1.1c0.3-0.3,0.8-0.3,1.1,0l1.3,1.3
				c0.3,0.3,0.3,0.8,0,1.1C16.9,117.6,16.7,117.7,16.5,117.7z"/>
			<path fill="#231F20" d="M12.3,113.5c-0.2,0-0.4-0.1-0.5-0.2l-1.3-1.3c-0.3-0.3-0.3-0.8,0-1.1c0.3-0.3,0.8-0.3,1.1,0l1.3,1.3
				c0.3,0.3,0.3,0.8,0,1.1C12.7,113.5,12.5,113.5,12.3,113.5z"/>
			<path fill="#231F20" d="M13.7,19.2c-0.2,0-0.4-0.1-0.5-0.2c-0.3-0.3-0.3-0.8,0-1.1l1.3-1.3c0.3-0.3,0.8-0.3,1.1,0
				c0.3,0.3,0.3,0.8,0,1.1L14.3,19C14.1,19.1,13.9,19.2,13.7,19.2z"/>
			<path fill="#231F20" d="M9.6,23.4c-0.2,0-0.4-0.1-0.5-0.2c-0.3-0.3-0.3-0.8,0-1.1l1.3-1.3c0.3-0.3,0.8-0.3,1.1,0
				c0.3,0.3,0.3,0.8,0,1.1l-1.3,1.3C10,23.3,9.8,23.4,9.6,23.4z"/>
			<path fill="#231F20" d="M15.1,23.4c-0.2,0-0.4-0.1-0.5-0.2l-1.3-1.3c-0.3-0.3-0.3-0.8,0-1.1c0.3-0.3,0.8-0.3,1.1,0l1.3,1.3
				c0.3,0.3,0.3,0.8,0,1.1C15.5,23.3,15.3,23.4,15.1,23.4z"/>
			<path fill="#231F20" d="M10.9,19.2c-0.2,0-0.4-0.1-0.5-0.2l-1.3-1.3c-0.3-0.3-0.3-0.8,0-1.1c0.3-0.3,0.8-0.3,1.1,0l1.3,1.3
				c0.3,0.3,0.3,0.8,0,1.1C11.3,19.1,11.1,19.2,10.9,19.2z"/>
			<path fill="#231F20" d="M65.7,67.9l-6.6,0l-1.1-6c-1.9-0.5-3.8-1.2-5.5-2.3l-5.1,3.5l-4.7-4.7l3.5-5.1c-1.1-1.7-1.8-3.6-2.3-5.5
				l-6-1.1l0-6.6l6-1.1c0.5-1.9,1.2-3.8,2.3-5.5l-3.5-5.1l4.7-4.7l5.1,3.5c1.7-1.1,3.6-1.8,5.5-2.3l1.1-6h6.6l1.1,6
				c1.9,0.5,3.8,1.2,5.5,2.3l5.1-3.5l4.7,4.7l-3.5,5.1c1.1,1.7,1.8,3.6,2.3,5.5l6,1.1v6.6l-6,1.1c-0.5,1.9-1.2,3.8-2.3,5.5l3.5,5.1
				l-4.7,4.7l-5.1-3.5c-1.7,1.1-3.6,1.8-5.5,2.3L65.7,67.9z M60.3,66.4l4.1,0l1.1-5.8l0.5-0.1c2.1-0.4,4.1-1.3,5.9-2.5l0.4-0.3
				l4.8,3.3l2.9-2.9l-3.3-4.8L77,53c1.2-1.8,2-3.8,2.5-5.9l0.1-0.5l5.8-1.1v-4.1l-5.8-1.1l-0.1-0.5c-0.4-2.1-1.3-4.1-2.5-5.9
				l-0.3-0.4l3.3-4.8l-2.9-2.9l-4.8,3.3l-0.4-0.3c-1.8-1.2-3.8-2-5.9-2.5l-0.5-0.1l-1.1-5.8h-4.1l-1.1,5.8l-0.5,0.1
				c-2.1,0.4-4.1,1.3-5.9,2.5l-0.4,0.3l-4.8-3.3l-2.9,2.9l3.3,4.8l-0.3,0.4c-1.2,1.8-2,3.8-2.5,5.9l-0.1,0.5l-5.8,1.1l0,4.1l5.8,1.1
				l0.1,0.5c0.4,2.1,1.3,4.1,2.5,5.9l0.3,0.4l-3.3,4.8l2.9,2.9l4.8-3.3l0.4,0.3c1.8,1.2,3.8,2,5.9,2.5l0.5,0.1L60.3,66.4z"/>
			<path fill="none" stroke="#231F20" stroke-width="1.5" stroke-miterlimit="10" stroke-dasharray="2" d="M38.1,105.3"/>
			<g>
				<path fill="#231F20" d="M124.2,27.3l-1.5-0.3c-0.1,0.6-0.3,1.3-0.5,1.9l1.4,0.4C123.9,28.6,124.1,27.9,124.2,27.3z"/>
				<path fill="#231F20" d="M112.7,46.1l1.2,0.9c0.4-0.5,0.8-1.1,1.2-1.6l-1.2-0.9C113.5,45,113.1,45.6,112.7,46.1z"/>
				<path fill="#231F20" d="M111.3,50.2c0.4-0.5,0.9-1,1.3-1.6l-1.2-1c-0.4,0.5-0.8,1-1.3,1.5L111.3,50.2z"/>
				<path fill="#231F20" d="M123.1,21.2l1.5-0.1c-0.1-0.7-0.2-1.4-0.4-2.1l-1.5,0.4C123,19.9,123.1,20.5,123.1,21.2z"/>
				<path fill="#231F20" d="M123.1,31.2l-1.4-0.5c-0.2,0.6-0.5,1.2-0.7,1.8l1.4,0.6C122.6,32.5,122.8,31.9,123.1,31.2z"/>
				<path fill="#231F20" d="M101.9,57.9l1,1.1c0.5-0.5,1-0.9,1.5-1.4l-1.1-1.1C102.9,56.9,102.4,57.4,101.9,57.9z"/>
				<path fill="#231F20" d="M104.7,55.1l1.1,1.1c0.5-0.5,0.9-1,1.4-1.5l-1.1-1C105.7,54.1,105.2,54.6,104.7,55.1z"/>
				<path fill="#231F20" d="M121.5,35l-1.4-0.6c-0.3,0.6-0.6,1.2-0.9,1.8l1.3,0.7C120.9,36.2,121.2,35.6,121.5,35z"/>
				<path fill="#231F20" d="M124.7,23.1l-1.5,0c0,0.6-0.1,1.3-0.1,1.9l1.5,0.2C124.6,24.5,124.7,23.8,124.7,23.1z"/>
				<path fill="#231F20" d="M91.3,67c-0.5,0.4-1,0.8-1.6,1.2l0.9,1.2c0.5-0.4,1.1-0.8,1.6-1.2L91.3,67z"/>
				<path fill="#231F20" d="M119.6,38.6l-1.3-0.8c-0.3,0.6-0.7,1.1-1,1.7l1.3,0.8C118.9,39.8,119.2,39.2,119.6,38.6z"/>
				<path fill="#231F20" d="M79.9,75.2l0.8,1.3c0.6-0.4,1.1-0.7,1.7-1.1l-0.8-1.3C81,74.5,80.5,74.8,79.9,75.2z"/>
				<path fill="#231F20" d="M117.4,42.1l-1.3-0.8c-0.4,0.5-0.7,1.1-1.1,1.6l1.2,0.9C116.7,43.2,117.1,42.6,117.4,42.1z"/>
				<path fill="#231F20" d="M83.2,73l0.9,1.2c0.6-0.4,1.1-0.8,1.7-1.2l-0.9-1.2C84.3,72.2,83.8,72.6,83.2,73z"/>
				<path fill="#231F20" d="M86.5,70.7l0.9,1.2c0.5-0.4,1.1-0.8,1.6-1.2l-0.9-1.2C87.6,69.9,87,70.3,86.5,70.7z"/>
				<path fill="#231F20" d="M108,52.6l0.6,0.6c0.5-0.5,0.9-1,1.4-1.5l-1.1-1c-0.4,0.5-0.9,1-1.3,1.4c-1.5-1.6-3.1-3.2-4.8-4.8
					c0.1-1,0.1-2.1,0.1-3.1c0-13.3-6.4-25.1-16.4-32.5c17.3-4.6,30.2-3.2,34.8,4.1l0.6-0.4l-0.6,0.4c0.3,0.5,0.6,1.1,0.9,1.7
					l1.4-0.6c-0.3-0.7-0.6-1.3-1-1.9l0,0c-5.2-8.1-18.9-9.7-37.7-4.4c-6.5-4.3-14.2-6.9-22.6-6.9c-1,0-1.9,0-2.9,0.1
					c-7.2,0.5-13.9,2.9-19.6,6.8c-0.5-0.2-1.1-0.3-1.6-0.4l-0.4,1.5c0.1,0,0.3,0.1,0.4,0.1C29,18.6,22.7,29.3,21.9,41.5
					c-0.1,2-0.1,3.9,0,5.9c-1.7,1.6-3.3,3.2-4.8,4.8c-0.3-0.4-0.7-0.7-1-1.1l-1.1,1c0.4,0.4,0.7,0.8,1.1,1.2
					C2,68.6-3.4,82.8,2.1,91.4c3.2,5,9.7,7.4,18.4,7.4c7,0,15.4-1.6,24.5-4.6c0.6,2.3,1,4.6,1.3,7h-4.5v4.1h-2.3v1.5h2.3v2.6h-2.3
					v1.5h2.3v2.6h-2.3v1.5h2.3v4.1h41v-4.1h2.3v-1.5h-2.3v-2.6h2.3v-1.5h-2.3v-2.6h2.3v-1.5h-2.3v-4.1h-4.5c0.3-2.4,0.7-4.7,1.3-7
					c4.8,1.6,9.4,2.8,13.8,3.6c3.9,0.7,7.5,1.1,10.8,1.1c8.8,0,15.2-2.6,18.3-7.5C128.2,82.7,122.6,68.2,108,52.6z M3.4,90.6
					c-5.6-8.8,1.8-24.9,18.8-41.4c0.4,3.7,1.4,7.2,2.8,10.6c-0.1-0.1-0.2-0.2-0.3-0.2l-1,1.1c0.5,0.5,1,0.9,1.5,1.4l0.5-0.6
					c1.8,3.8,4.2,7.4,7.2,10.6c5.5,5.8,9.5,13,11.8,20.8C24.9,99.5,8.8,99.2,3.4,90.6z M81.4,117.5h-38v-2.6h38V117.5z M81.4,113.4
					h-38v-2.6h38V113.4z M81.4,109.4h-38v-2.6h38V109.4z M81.4,102.7v2.6h-38v-2.6H81.4z M46.4,93.7c5.1-1.8,10.5-4,15.9-6.7
					c5.4,2.7,10.8,4.9,16,6.7c-0.6,2.4-1.1,4.9-1.4,7.5h-29C47.5,98.7,47.1,96.2,46.4,93.7z M78.7,92.3c-4.8-1.7-9.7-3.7-14.7-6.2
					c4.7-2.4,9.4-5,14.1-8l0,0l0.9-0.6l-0.8-1.3l-0.9,0.6l0.4,0.6l-0.4-0.6c-5,3.2-10,6-15,8.5c-5-2.5-10-5.3-15-8.5l0,0l-0.5-0.3
					l-0.8,1.3l0.5,0.3l0.4-0.6l-0.4,0.6c4.7,3,9.4,5.6,14.1,8c-5,2.4-9.9,4.5-14.6,6.1c-2.3-8-6.5-15.4-12.1-21.4
					c-1.4-1.4-2.6-3-3.7-4.6c0.3,0.3,0.7,0.6,1.1,0.9l0.9-1.2c-0.5-0.4-1-0.8-1.6-1.3l-0.8,1c-0.4-0.6-0.8-1.2-1.1-1.8l0.4-0.5
					c-0.5-0.4-0.9-0.8-1.3-1.2c-3.3-6.3-4.9-13.4-4.4-20.8C24.7,22.3,40.3,6.7,59.5,5.4c0.9-0.1,1.9-0.1,2.8-0.1
					c21.5,0,39,17.5,39,39c0,6.4-1.6,12.6-4.5,18.2c-0.3,0.3-0.6,0.5-0.9,0.8l0.3,0.4c-0.4,0.6-0.7,1.2-1.1,1.8l-0.7-0.9
					c-0.5,0.4-1,0.8-1.6,1.3l0.9,1.2c0.2-0.2,0.4-0.4,0.7-0.5c-1,1.5-2.1,2.9-3.4,4.2C85.3,77,81.1,84.4,78.7,92.3z M121.3,90.6
					c-3.9,6.2-13.7,8.3-27.6,5.8c-4.3-0.8-8.9-2-13.6-3.6c2.3-7.8,6.4-15,12.1-21.2c2.3-2.5,4.3-5.3,5.9-8.3
					c0.1-0.1,0.3-0.2,0.4-0.3l-0.1-0.1c0.3-0.6,0.7-1.3,1-2l0.7,0.8c0.5-0.5,1-0.9,1.5-1.4l-1-1.1c-0.2,0.2-0.5,0.4-0.7,0.6
					c1.4-3.4,2.4-6.9,2.8-10.6C119.5,65.7,126.9,81.9,121.3,90.6z"/>
				<path fill="#231F20" d="M3.1,16.2l-1.3-0.8c-0.4,0.6-0.7,1.3-0.9,1.9l1.4,0.5C2.6,17.4,2.8,16.8,3.1,16.2z"/>
				<path fill="#231F20" d="M5.5,13.4l-1-1.1c-0.5,0.5-1,1-1.5,1.5l1.2,1C4.6,14.2,5,13.8,5.5,13.4z"/>
				<path fill="#231F20" d="M8.7,11.3L8.1,9.9c-0.6,0.3-1.3,0.7-1.8,1L7,12.2C7.6,11.9,8.1,11.6,8.7,11.3z"/>
				<path fill="#231F20" d="M0.6,27.8c0.1,0.6,0.3,1.3,0.5,2l1.4-0.4c-0.2-0.6-0.4-1.3-0.5-1.9L0.6,27.8z"/>
				<path fill="#231F20" d="M1.7,25.5c-0.1-0.7-0.2-1.3-0.2-1.9L0,23.7c0,0.7,0.1,1.4,0.2,2.1L1.7,25.5z"/>
				<path fill="#231F20" d="M16.2,9.3l-0.2-1.5c-0.7,0.1-1.4,0.2-2,0.3l0.3,1.5C14.9,9.5,15.6,9.4,16.2,9.3z"/>
				<path fill="#231F20" d="M1.8,19.8l-1.5-0.3c-0.1,0.7-0.2,1.4-0.3,2.1l1.5,0.1C1.6,21,1.7,20.4,1.8,19.8z"/>
				<path fill="#231F20" d="M32.3,8.8c-0.7-0.1-1.3-0.3-2-0.4L30,9.9c0.6,0.1,1.3,0.2,2,0.4L32.3,8.8z"/>
				<path fill="#231F20" d="M36.2,9.7c-0.7-0.2-1.3-0.3-2-0.5l-0.3,1.5c0.6,0.1,1.3,0.3,1.9,0.4L36.2,9.7z"/>
				<path fill="#231F20" d="M28.3,8.1c-0.7-0.1-1.4-0.2-2-0.2l-0.2,1.5c0.6,0.1,1.3,0.2,2,0.2L28.3,8.1z"/>
				<path fill="#231F20" d="M24.2,7.7c-0.7-0.1-1.4-0.1-2-0.1l-0.1,1.5c0.6,0,1.3,0.1,2,0.1L24.2,7.7z"/>
				<path fill="#231F20" d="M4,33c-0.3-0.6-0.5-1.2-0.7-1.8l-1.4,0.5c0.2,0.6,0.5,1.3,0.8,1.9L4,33z"/>
				<path fill="#231F20" d="M20.2,9.1l0-1.5c-0.7,0-1.4,0-2,0.1l0.1,1.5C18.8,9.1,19.5,9.1,20.2,9.1z"/>
				<path fill="#231F20" d="M20.7,57.9c0.5,0.5,1,0.9,1.5,1.4l1-1.1c-0.5-0.5-1-0.9-1.4-1.4L20.7,57.9z"/>
				<path fill="#231F20" d="M3.5,35.5c0.3,0.6,0.6,1.2,0.9,1.8l1.3-0.7c-0.3-0.6-0.6-1.2-0.9-1.8L3.5,35.5z"/>
				<path fill="#231F20" d="M36.1,71c0.5,0.4,1.1,0.8,1.6,1.2l0.9-1.2c-0.5-0.4-1.1-0.8-1.6-1.2L36.1,71z"/>
				<path fill="#231F20" d="M17.8,55c0.5,0.5,0.9,1,1.4,1.4l1.1-1.1c-0.5-0.5-0.9-1-1.4-1.4L17.8,55z"/>
				<path fill="#231F20" d="M42.7,75.6c0.6,0.4,1.1,0.7,1.7,1.1l0.8-1.3c-0.6-0.4-1.1-0.7-1.7-1.1L42.7,75.6z"/>
				<path fill="#231F20" d="M39.4,73.3c0.5,0.4,1.1,0.8,1.7,1.2l0.9-1.2c-0.6-0.4-1.1-0.8-1.6-1.1L39.4,73.3z"/>
				<path fill="#231F20" d="M32.9,68.5c0.5,0.4,1.1,0.8,1.6,1.2l0.9-1.2c-0.5-0.4-1.1-0.8-1.6-1.2L32.9,68.5z"/>
				<path fill="#231F20" d="M8.7,44.2l1.2-0.9c-0.4-0.5-0.8-1.1-1.1-1.6l-1.3,0.8C7.9,43,8.3,43.6,8.7,44.2z"/>
				<path fill="#231F20" d="M5.4,39c0.3,0.6,0.7,1.2,1.1,1.7L7.7,40c-0.4-0.6-0.7-1.1-1-1.7L5.4,39z"/>
				<path fill="#231F20" d="M14.9,49.5c-0.4-0.5-0.9-1-1.3-1.5l-1.2,1c0.4,0.5,0.9,1,1.3,1.6L14.9,49.5z"/>
				<path fill="#231F20" d="M12.4,10L12,8.5c-0.7,0.2-1.4,0.4-2,0.6l0.5,1.4C11.1,10.3,11.7,10.1,12.4,10z"/>
				<path fill="#231F20" d="M11.2,47.4l1.2-0.9c-0.4-0.5-0.8-1.1-1.2-1.6l-1.2,0.9C10.3,46.3,10.7,46.9,11.2,47.4z"/>
			</g>
			<path fill="#231F20" d="M105,85.8c-2.1,0-3.8-1.7-3.8-3.8c0-2.1,1.7-3.8,3.8-3.8c2.1,0,3.8,1.7,3.8,3.8
				C108.8,84.1,107.1,85.8,105,85.8z M105,79.8c-1.3,0-2.3,1-2.3,2.3c0,1.3,1,2.3,2.3,2.3c1.3,0,2.3-1,2.3-2.3
				C107.3,80.8,106.3,79.8,105,79.8z"/>
			<circle fill="#E6E9EE" cx="126.7" cy="112.9" r="2.8"/>
		</g>
		<circle fill="#FFD05B" cx="11" cy="82" r="2.8"/>
		<g>
			<path fill="#231F20" d="M104.6,108.7c0-0.4-0.3-0.8-0.8-0.8h-8.7c-0.4,0-0.8,0.3-0.8,0.8c0,0.4,0.3,0.8,0.8,0.8h8.7
				C104.3,109.5,104.6,109.1,104.6,108.7z"/>
			<path fill="#231F20" d="M107.3,111.1H103c-0.4,0-0.8,0.3-0.8,0.8c0,0.4,0.3,0.8,0.8,0.8h4.3c0.4,0,0.8-0.3,0.8-0.8
				C108.1,111.5,107.7,111.1,107.3,111.1z"/>
			<path fill="#231F20" d="M111.9,107.9h-4.1c-0.4,0-0.8,0.3-0.8,0.8c0,0.4,0.3,0.8,0.8,0.8h4.1c0.4,0,0.8-0.3,0.8-0.8
				C112.7,108.3,112.3,107.9,111.9,107.9z"/>
			<path fill="#231F20" d="M99.9,111.1h-0.8c-0.4,0-0.8,0.3-0.8,0.8c0,0.4,0.3,0.8,0.8,0.8h0.8c0.4,0,0.8-0.3,0.8-0.8
				C100.7,111.5,100.3,111.1,99.9,111.1z"/>
		</g>
	</g>
</g>
</svg>
