<svg xmlns="http://www.w3.org/2000/svg" viewBox="0 0 1696 508" width="1696" height="508">
	<defs>
		<clipPath clipPathUnits="userSpaceOnUse" id="cp1">
			<path d="M0 0L1696 0L1696 508L0 508Z" />
		</clipPath>
	</defs>
	<style>
		tspan { white-space:pre }
		.shp0 { fill: #ffffff } 
		.shp1 { fill: #ff7a7a } 
		.shp2 { fill: #484f59 } 
		.shp3 { fill: #f7f8fc } 
		.shp4 { fill: #b7bec0 } 
		.shp5 { fill: #cdd5d7 } 
		.shp6 { fill: #d5e962 } 
		.shp7 { fill: #ffdc69 } 
		.shp8 { fill: #01dee9 } 
		.shp9 { fill: #e5e8ec } 
		.shp10 { fill: #ffc400 } 
		.shp11 { fill: #f6fafb } 
		.shp12 { fill: #e9f8ff } 
		.shp13 { fill: #01cbd6 } 
		.shp14 { fill: #84f8fe } 
	</style>
	<g id="Page 1" clip-path="url(#cp1)">
		<path id="Path 1" class="shp0" d="M0 1.64L0 508L1694.29 508L1694.29 1.64L0 1.64Z" />
		<path id="Path 2" class="shp1" d="M696.05 360.86C696.05 363.28 694.1 365.24 691.68 365.24L543.45 365.16C541.02 365.16 539.07 363.2 539.07 360.78L539.19 159.76C539.19 157.35 541.15 155.38 543.57 155.39L691.8 155.47C694.22 155.47 696.17 157.43 696.17 159.84L696.05 360.86Z" />
		<path id="Path 3" fill-rule="evenodd" class="shp2" d="M691.68 368.36L543.44 368.28C539.31 368.28 535.95 364.92 535.95 360.78L536.06 159.76C536.07 155.63 539.43 152.27 543.55 152.27L691.8 152.34C695.94 152.34 699.3 155.71 699.3 159.84L699.18 360.86C699.18 365 695.81 368.36 691.68 368.36ZM543.56 158.52C542.87 158.52 542.31 159.08 542.31 159.77L542.2 360.79C542.2 361.47 542.76 362.03 543.45 362.03L691.68 362.11C692.37 362.11 692.93 361.55 692.93 360.86L693.05 159.84C693.05 159.15 692.49 158.59 691.8 158.59L543.56 158.52Z" />
		<path id="Path 4" class="shp3" d="M682.03 349.45L554.15 349.38L554.25 168.53L682.13 168.6L682.03 349.45Z" />
		<path id="Path 5" fill-rule="evenodd" class="shp2" d="M685.16 352.58L551.03 352.51L551.13 165.4L685.26 165.48L685.16 352.58ZM557.28 346.26L678.91 346.32L679 171.72L557.38 171.66L557.28 346.26Z" />
		<path id="Path 6" fill-rule="evenodd" class="shp4" d="M631.06 160.27L614.28 160.26L597.49 160.25L605.89 145.71L609.38 139.68C607.86 138.32 606.88 136.36 606.88 134.16C606.88 130.06 610.2 126.75 614.29 126.75C618.39 126.75 621.71 130.07 621.7 134.16C621.7 136.37 620.72 138.33 619.19 139.68L622.68 145.72L631.06 160.27ZM617.81 134.16C617.82 132.21 616.24 130.64 614.29 130.64C612.35 130.64 610.77 132.21 610.77 134.16C610.77 136.11 612.34 137.69 614.28 137.69C616.24 137.69 617.81 136.11 617.81 134.16Z" />
		<path id="Path 7" fill-rule="evenodd" class="shp5" d="M586.6 173.12L586.62 145.48L602.11 145.49L605.26 140.03C604.09 138.31 603.45 136.26 603.45 134.16C603.45 128.35 608.18 123.63 613.99 123.63C616.81 123.63 619.45 124.72 621.44 126.71C623.43 128.7 624.53 131.35 624.52 134.17C624.52 136.27 623.88 138.32 622.7 140.04L625.85 145.5L642.92 145.51L642.91 173.14L586.6 173.12ZM613.99 133.76C613.77 133.76 613.59 133.94 613.59 134.16C613.59 134.38 613.76 134.56 613.98 134.56C614.2 134.56 614.39 134.38 614.39 134.16C614.39 133.94 614.21 133.76 613.99 133.76Z" />
		<path id="Path 8" fill-rule="evenodd" class="shp2" d="M623.65 124.5C626.23 127.09 627.65 130.52 627.65 134.16C627.65 136.21 627.18 138.21 626.31 140.03L627.66 142.38L639.8 142.39L646.05 142.39L646.05 148.64L646.04 170.02L646.04 176.27L639.79 176.27L589.72 176.24L583.47 176.24L583.47 169.99L583.49 148.6L583.49 142.35L589.74 142.36L600.31 142.36L601.66 140.02C600.79 138.2 600.32 136.2 600.32 134.15C600.33 126.63 606.46 120.5 613.99 120.5L613.99 120.5C617.64 120.5 621.07 121.92 623.65 124.5ZM606.57 134.16C606.57 136.36 607.55 138.32 609.08 139.68L605.59 145.71L603.91 148.61L589.74 148.61L589.72 169.99L639.79 170.02L639.8 148.64L624.05 148.63L622.37 145.72L618.89 139.68C620.42 138.33 621.4 136.37 621.4 134.16C621.4 130.07 618.09 126.75 613.99 126.75L613.99 126.75C609.9 126.75 606.58 130.06 606.57 134.16ZM610.46 134.16C610.46 132.21 612.04 130.64 613.99 130.64C615.93 130.64 617.51 132.22 617.51 134.16C617.51 136.11 615.93 137.69 613.98 137.69C612.04 137.69 610.46 136.11 610.46 134.16Z" />
		<path id="Path 9" class="shp5" d="M664.31 305.71C664.31 320.15 652.6 331.86 638.16 331.86C623.72 331.86 612.01 320.15 612.01 305.71C612.01 291.27 623.72 279.56 638.16 279.56C652.6 279.56 664.31 291.27 664.31 305.71Z" />
		<path id="Path 10" fill-rule="evenodd" class="shp2" d="M629.28 319.01L624.86 314.59L633.74 305.71L624.86 296.82L629.28 292.4L638.16 301.29L647.05 292.4L651.46 296.83L642.58 305.71L651.46 314.59L647.05 319.01L638.16 310.13L629.28 319.01ZM590.36 244.97C580.34 244.97 572.2 236.82 572.2 226.81C572.2 216.79 580.34 208.65 590.36 208.65C600.37 208.65 608.52 216.79 608.52 226.81C608.52 236.82 600.37 244.97 590.36 244.97ZM590.36 214.9C583.79 214.9 578.45 220.24 578.45 226.81C578.45 233.37 583.79 238.72 590.36 238.72C596.93 238.72 602.27 233.37 602.27 226.81C602.27 220.24 596.93 214.9 590.36 214.9ZM658.9 223.86L646.3 211.25C646.34 212.27 646.36 213.28 646.36 214.28C646.36 256.69 611.4 291.2 568.45 291.2L568.45 284.95C607.96 284.95 640.11 253.25 640.11 214.28C640.11 213 640.07 211.72 640 210.43L626.57 223.86L622.15 219.44L642.74 198.85L663.32 219.44L658.9 223.86Z" />
		<path id="Path 11" class="shp6" d="M746.94 243.44L726.74 243.44L726.74 218.22L746.94 218.22L746.94 243.44Z" />
		<path id="Path 12" fill-rule="evenodd" class="shp2" d="M750.06 246.56L723.61 246.56L723.61 215.1L750.06 215.1L750.06 246.56ZM729.86 240.31L743.81 240.31L743.81 221.35L729.86 221.35L729.86 240.31Z" />
		<path id="Path 13" class="shp1" d="M780.25 243.44L760.04 243.44L760.04 184.33L780.25 184.33L780.25 243.44Z" />
		<path id="Path 14" fill-rule="evenodd" class="shp2" d="M783.37 246.56L756.91 246.56L756.91 181.21L783.37 181.21L783.37 246.56ZM763.16 240.31L777.12 240.31L777.12 187.46L763.16 187.46L763.16 240.31Z" />
		<path id="Path 15" class="shp7" d="M813.55 243.44L793.34 243.44L793.34 200.33L813.55 200.33L813.55 243.44Z" />
		<path id="Path 16" fill-rule="evenodd" class="shp2" d="M816.68 246.56L790.21 246.56L790.21 197.2L816.68 197.2L816.68 246.56ZM796.46 240.31L810.43 240.31L810.43 203.45L796.46 203.45L796.46 240.31Z" />
		<path id="Path 17" class="shp8" d="M846.85 243.44L826.65 243.44L826.65 121.22L846.85 121.22L846.85 243.44Z" />
		<path id="Path 18" fill-rule="evenodd" class="shp2" d="M823.52 118.09L849.98 118.09L849.98 240.31L869.34 240.31L869.34 246.56L708.63 246.56L708.63 240.31L823.52 240.31L823.52 118.09ZM843.73 124.34L829.77 124.34L829.77 240.31L843.73 240.31L843.73 124.34ZM836.33 115.1L830.85 105.63L817.73 105.63C814.52 105.63 811.91 103.02 811.91 99.81L811.91 84.36C811.91 81.15 814.52 78.54 817.73 78.54L854.93 78.54C858.14 78.54 860.75 81.15 860.75 84.36L860.75 99.81C860.75 103.02 858.14 105.63 854.93 105.63L841.8 105.63L836.33 115.1ZM818.16 99.38L834.47 99.38L836.33 102.61L838.19 99.38L854.5 99.38L854.5 84.79L818.16 84.79L818.16 99.38ZM846.37 95.35L826.3 95.35L826.3 89.1L846.37 89.1L846.37 95.35Z" />
		<path id="Path 19" class="shp1" d="M1237.77 269.86L1324.54 183.07C1372.48 231 1372.5 308.71 1324.56 356.65C1276.62 404.58 1198.89 404.6 1150.96 356.66C1103.01 308.73 1103.02 230.98 1150.96 183.05C1179.72 154.3 1216.78 142.25 1256.96 148.62L1237.77 269.86Z" />
		<path id="Path 20" fill-rule="evenodd" class="shp2" d="M1237.74 395.73C1204.12 395.73 1172.52 382.64 1148.75 358.87C1124.97 335.1 1111.88 303.49 1111.88 269.86C1111.88 236.23 1124.97 204.62 1148.75 180.84C1172.96 156.63 1203.23 143.84 1236.27 143.84C1243.21 143.84 1250.34 144.41 1257.45 145.53C1259.15 145.8 1260.32 147.4 1260.05 149.11L1242.36 260.85L1322.33 180.86C1323.55 179.64 1325.53 179.64 1326.75 180.86C1350.53 204.63 1363.63 236.24 1363.63 269.86C1363.64 303.48 1350.54 335.09 1326.77 358.86C1302.99 382.64 1271.37 395.73 1237.74 395.73ZM1236.27 150.09C1204.92 150.09 1176.19 162.25 1153.17 185.26C1130.58 207.86 1118.13 237.9 1118.13 269.86C1118.13 301.82 1130.57 331.86 1153.17 354.45C1175.76 377.04 1205.79 389.48 1237.74 389.48C1269.7 389.48 1299.75 377.04 1322.35 354.44C1344.94 331.85 1357.39 301.81 1357.38 269.86C1357.38 238.95 1345.73 209.84 1324.51 187.52L1239.98 272.07C1239.02 273.03 1237.56 273.26 1236.35 272.65C1235.15 272.03 1234.47 270.71 1234.69 269.38L1253.38 151.25C1247.62 150.48 1241.88 150.09 1236.27 150.09Z" />
		<path id="Path 21" class="shp8" d="M1237.75 147.12C1305.55 147.12 1360.51 202.08 1360.51 269.88C1360.51 310.54 1342.81 345.27 1309.89 369.19L1237.75 269.88L1237.75 147.12Z" />
		<path id="Path 22" class="shp2" d="M1309.89 372.31L1309.4 372.27C1308.58 372.14 1307.85 371.69 1307.36 371.02L1235.22 271.72L1240.28 268.05L1310.56 364.79C1341.21 341.45 1357.38 308.7 1357.38 269.88C1357.38 203.92 1303.71 150.25 1237.75 150.25L1237.75 144C1307.16 144 1363.63 200.47 1363.63 269.88C1363.63 311.83 1345.68 347.04 1311.73 371.71C1311.19 372.1 1310.55 372.31 1309.89 372.31Z" />
		<path id="Path 23" class="shp7" d="M1237.74 269.85L1354.46 307.78C1375.42 243.31 1340.14 174.06 1275.67 153.12C1262.78 148.93 1251.3 147.12 1237.74 147.12L1237.74 269.85Z" />
		<path id="Path 24" fill-rule="evenodd" class="shp2" d="M1354.46 310.91C1354.14 310.91 1353.82 310.86 1353.5 310.75L1236.77 272.82C1235.48 272.4 1234.61 271.2 1234.61 269.85L1234.61 147.12C1234.61 145.4 1236.01 144 1237.74 144C1251.73 144 1263.36 145.84 1276.63 150.14C1308.61 160.53 1334.62 182.75 1349.88 212.71C1365.15 242.66 1367.83 276.77 1357.44 308.75C1357.01 310.07 1355.78 310.91 1354.46 310.91ZM1240.86 267.58L1352.42 303.83C1361.19 274.31 1358.35 243.09 1344.31 215.54C1329.81 187.07 1305.09 165.96 1274.7 156.09C1263.1 152.32 1252.8 150.54 1240.86 150.28L1240.86 267.58ZM1074.72 285.83L1070.3 281.41L1082.34 269.36L767.82 269.36C761.89 269.36 757.06 274.18 757.06 280.11L757.06 386.69L750.81 386.69L750.81 280.11C750.81 270.74 758.44 263.11 767.82 263.11L1082.58 263.11L1070.3 250.81L1074.72 246.4L1094.41 266.11L1074.72 285.83Z" />
		<path id="Path 25" class="shp9" d="M840.49 403.84C840.49 405.41 839.21 406.69 837.64 406.69L667.14 406.69C665.58 406.69 664.3 405.41 664.3 403.84L664.3 329.96C664.3 328.39 665.58 327.12 667.14 327.12L837.64 327.12C839.21 327.12 840.49 328.39 840.49 329.96L840.49 403.84Z" />
		<path id="Path 26" fill-rule="evenodd" class="shp2" d="M837.64 409.81L667.14 409.81C663.85 409.81 661.18 407.13 661.18 403.84L661.18 329.96C661.18 326.67 663.85 324 667.14 324L837.64 324C840.93 324 843.61 326.67 843.61 329.96L843.61 403.84C843.61 407.13 840.93 409.81 837.64 409.81ZM667.43 403.56L837.36 403.56L837.36 330.25L667.43 330.25L667.43 403.56ZM684.54 344.19L673.27 344.19L673.27 337.94L684.54 337.94L684.54 344.19ZM700.85 344.19L689.58 344.19L689.58 337.94L700.85 337.94L700.85 344.19ZM717.16 344.19L705.89 344.19L705.89 337.94L717.16 337.94L717.16 344.19ZM733.47 344.19L722.2 344.19L722.2 337.94L733.47 337.94L733.47 344.19ZM749.78 344.19L738.51 344.19L738.51 337.94L749.78 337.94L749.78 344.19ZM766.09 344.19L754.82 344.19L754.82 337.94L766.09 337.94L766.09 344.19ZM782.4 344.19L771.13 344.19L771.13 337.94L782.4 337.94L782.4 344.19ZM798.71 344.19L787.43 344.19L787.43 337.94L798.71 337.94L798.71 344.19ZM815.02 344.19L803.75 344.19L803.75 337.94L815.02 337.94L815.02 344.19ZM831.33 344.19L820.05 344.19L820.05 337.94L831.33 337.94L831.33 344.19ZM684.54 357.32L673.27 357.32L673.27 351.07L684.54 351.07L684.54 357.32ZM700.85 357.32L689.58 357.32L689.58 351.07L700.85 351.07L700.85 357.32ZM717.16 357.32L705.89 357.32L705.89 351.07L717.16 351.07L717.16 357.32ZM733.47 357.32L722.2 357.32L722.2 351.07L733.47 351.07L733.47 357.32ZM749.78 357.32L738.51 357.32L738.51 351.07L749.78 351.07L749.78 357.32ZM766.09 357.32L754.82 357.32L754.82 351.07L766.09 351.07L766.09 357.32ZM782.4 357.32L771.13 357.32L771.13 351.07L782.4 351.07L782.4 357.32ZM798.71 357.32L787.43 357.32L787.43 351.07L798.71 351.07L798.71 357.32ZM815.02 357.32L803.75 357.32L803.75 351.07L815.02 351.07L815.02 357.32ZM831.33 357.32L820.05 357.32L820.05 351.07L831.33 351.07L831.33 357.32ZM684.54 370.45L673.27 370.45L673.27 364.2L684.54 364.2L684.54 370.45ZM700.85 370.45L689.58 370.45L689.58 364.2L700.85 364.2L700.85 370.45ZM717.16 370.45L705.89 370.45L705.89 364.2L717.16 364.2L717.16 370.45ZM733.47 370.45L722.2 370.45L722.2 364.2L733.47 364.2L733.47 370.45ZM749.78 370.45L738.51 370.45L738.51 364.2L749.78 364.2L749.78 370.45ZM766.09 370.45L754.82 370.45L754.82 364.2L766.09 364.2L766.09 370.45ZM782.4 370.45L771.13 370.45L771.13 364.2L782.4 364.2L782.4 370.45ZM798.71 370.45L787.43 370.45L787.43 364.2L798.71 364.2L798.71 370.45ZM815.02 370.45L803.75 370.45L803.75 364.2L815.02 364.2L815.02 370.45ZM831.33 370.45L820.05 370.45L820.05 364.2L831.33 364.2L831.33 370.45ZM684.54 383.59L673.27 383.59L673.27 377.34L684.54 377.34L684.54 383.59ZM700.85 383.59L689.58 383.59L689.58 377.34L700.85 377.34L700.85 383.59ZM717.16 383.59L705.89 383.59L705.89 377.34L717.16 377.34L717.16 383.59ZM733.47 383.59L722.2 383.59L722.2 377.34L733.47 377.34L733.47 383.59ZM749.78 383.59L738.51 383.59L738.51 377.34L749.78 377.34L749.78 383.59ZM766.09 383.59L754.82 383.59L754.82 377.34L766.09 377.34L766.09 383.59ZM782.4 383.59L771.13 383.59L771.13 377.34L782.4 377.34L782.4 383.59ZM798.71 383.59L787.43 383.59L787.43 377.34L798.71 377.34L798.71 383.59ZM815.02 383.59L803.75 383.59L803.75 377.34L815.02 377.34L815.02 383.59ZM831.33 383.59L820.05 383.59L820.05 377.34L831.33 377.34L831.33 383.59ZM684.54 396.73L673.27 396.73L673.27 390.48L684.54 390.48L684.54 396.73ZM700.85 396.73L689.58 396.73L689.58 390.48L700.85 390.48L700.85 396.73ZM717.16 396.73L705.89 396.73L705.89 390.48L717.16 390.48L717.16 396.73ZM782.55 396.73L722.2 396.73L722.2 390.48L782.55 390.48L782.55 396.73ZM798.71 396.73L787.43 396.73L787.43 390.48L798.71 390.48L798.71 396.73ZM815.02 396.73L803.75 396.73L803.75 390.48L815.02 390.48L815.02 396.73ZM831.33 396.73L820.05 396.73L820.05 390.48L831.33 390.48L831.33 396.73Z" />
		<path id="Path 27" class="shp5" d="M1070.59 362.49L1059.52 362.49L1059.52 378.95L1070.59 378.95C1071.32 378.95 1071.9 378.14 1071.9 377.14L1071.9 364.31C1071.9 363.3 1071.32 362.49 1070.59 362.49Z" />
		<path id="Path 28" fill-rule="evenodd" class="shp2" d="M1070.59 382.07L1059.52 382.07C1057.8 382.07 1056.4 380.68 1056.4 378.95L1056.4 362.49C1056.4 360.77 1057.8 359.37 1059.52 359.37L1070.59 359.37C1073.08 359.37 1075.03 361.54 1075.03 364.31L1075.03 377.14C1075.03 379.91 1073.08 382.07 1070.59 382.07ZM1062.65 375.82L1068.78 375.82L1068.78 365.62L1062.65 365.62L1062.65 375.82Z" />
		<path id="Path 29" class="shp10" d="M903.18 378.95L1059.52 378.95L1059.52 362.49L903.18 362.49L903.18 378.95Z" />
		<path id="Path 30" fill-rule="evenodd" class="shp2" d="M1059.52 382.07L903.18 382.07C901.45 382.07 900.05 380.68 900.05 378.95L900.05 362.49C900.05 360.77 901.45 359.37 903.18 359.37L1059.52 359.37C1061.25 359.37 1062.65 360.77 1062.65 362.49L1062.65 378.95C1062.65 380.68 1061.25 382.07 1059.52 382.07ZM906.3 375.82L1056.4 375.82L1056.4 365.62L906.3 365.62L906.3 375.82Z" />
		<path id="Path 31" class="shp11" d="M904.57 370.73C904.57 367.79 904.14 365.01 903.39 362.51L882.05 370.73L903.39 378.94C904.14 376.42 904.57 373.65 904.57 370.73Z" />
		<path id="Path 32" fill-rule="evenodd" class="shp2" d="M903.39 382.06C903.01 382.06 902.63 381.99 902.26 381.85L880.92 373.64C879.72 373.18 878.92 372.02 878.92 370.73C878.92 369.43 879.72 368.27 880.92 367.81L902.26 359.59C903.08 359.28 903.98 359.32 904.76 359.7C905.54 360.08 906.13 360.77 906.38 361.61C907.25 364.51 907.69 367.57 907.69 370.73C907.69 373.86 907.25 376.93 906.38 379.84C906.13 380.67 905.54 381.36 904.76 381.74C904.33 381.96 903.86 382.06 903.39 382.06ZM890.74 370.73L901.14 374.72C901.34 373.42 901.44 372.08 901.44 370.73C901.44 369.36 901.34 368.02 901.14 366.72L890.74 370.73Z" />
		<path id="Path 33" class="shp12" d="M1045.69 362.43L1045.69 379.11L1059.86 379.11L1059.86 362.43L1045.69 362.43Z" />
		<path id="Path 34" fill-rule="evenodd" class="shp2" d="M1059.86 382.23L1045.69 382.23C1043.97 382.23 1042.57 380.83 1042.57 379.11L1042.57 362.43C1042.57 360.7 1043.97 359.3 1045.69 359.3L1059.86 359.3C1061.59 359.3 1062.99 360.7 1062.99 362.43L1062.99 379.11C1062.99 380.83 1061.59 382.23 1059.86 382.23ZM1048.82 375.98L1056.74 375.98L1056.74 365.55L1048.82 365.55L1048.82 375.98Z" />
		<path id="Path 35" class="shp10" d="M889.02 373.39C889.09 372.57 889.15 371.73 889.15 370.87C889.15 369.9 889.09 368.96 888.99 368.04L882.05 370.73L889.02 373.39Z" />
		<path id="Path 36" class="shp2" d="M891.83 377.81L873.35 370.74L891.68 363.64L892.1 367.71C892.21 368.84 892.27 369.87 892.27 370.87C892.27 371.81 892.21 372.72 892.14 373.62L891.83 377.81Z" />
		<path id="Path 37" class="shp3" d="M1017.31 331.13L1017.31 231.73L1017.31 181.9L981.59 146.19L881.99 146.19L881.99 183.08L881.99 231.73L881.99 331.13L1017.31 331.13Z" />
		<path id="Path 38" fill-rule="evenodd" class="shp2" d="M1020.43 334.25L878.86 334.25L878.86 143.06L982.89 143.06L1020.43 180.61L1020.43 334.25ZM885.11 328L1014.18 328L1014.18 183.2L980.3 149.31L885.11 149.31L885.11 328Z" />
		<path id="Path 39" class="shp9" d="M1013.76 181.9L981.59 181.9L1013.76 217.61L1013.76 181.9Z" />
		<path id="Path 40" class="shp1" d="M981.59 181.9L1017.31 181.9L981.59 146.19L981.59 181.9Z" />
		<path id="Path 41" fill-rule="evenodd" class="shp2" d="M1017.31 185.03L981.59 185.03L978.47 181.9L978.47 146.19L983.8 143.98L1019.51 179.69L1017.31 185.03ZM984.72 178.78L1009.76 178.78L984.72 153.73L984.72 178.78ZM960.76 172.27L897.46 172.27L897.46 166.02L960.76 166.02L960.76 172.27ZM998.14 200.77L896.67 200.77L896.67 194.52L998.14 194.52L998.14 200.77ZM998.14 215.01L896.67 215.01L896.67 208.77L998.14 208.77L998.14 215.01ZM998.14 229.26L896.67 229.26L896.67 223.01L998.14 223.01L998.14 229.26ZM998.14 243.51L896.67 243.51L896.67 237.26L998.14 237.26L998.14 243.51ZM997.52 257.76L896.67 257.76L896.67 251.51L997.52 251.51L997.52 257.76ZM997.52 272.01L896.67 272.01L896.67 265.76L997.52 265.76L997.52 272.01ZM985.63 286.25L896.67 286.25L896.67 280L985.63 280L985.63 286.25ZM925.84 307.28L896.67 307.28L896.67 301.03L925.84 301.03L925.84 307.28Z" />
		<path id="Path 42" class="shp10" d="M452.61 327.33L443.68 306.95L392.26 272.02L381.61 289.98L423.02 315.97L428.69 327.96C433.42 334.13 442.26 335.31 448.44 330.57L452.17 327.72L452.61 327.33Z" />
		<path id="Path 43" fill-rule="evenodd" class="shp2" d="M439.88 336.6C434.48 336.6 429.5 334.14 426.21 329.86L425.87 329.29L420.59 318.13L377.37 291.01L391.26 267.57L446.18 304.87L456.38 328.15L454.7 329.66C454.43 329.91 454.24 330.07 454.03 330.23L450.34 333.05C447.31 335.37 443.69 336.6 439.88 336.6ZM431.37 326.3C433.46 328.88 436.54 330.35 439.88 330.35C442.31 330.35 444.61 329.57 446.54 328.09L448.78 326.38L441.18 309.03L393.25 276.48L385.86 288.96L425.45 313.81L431.37 326.3Z" />
		<path id="Path 44" class="shp7" d="M430.42 265.76L458.41 300.78L481.34 331.26C474.75 337.84 463.71 336.24 456.01 330.69L446.17 318.53L425.17 292.98L391.56 287.84L381.83 299.57L381.74 310.45L381.75 328.02L416.15 327.94C424.97 328.19 431.91 338 431.66 346.83C431.66 346.83 431.47 348.83 431.45 349.05L370.06 349.05L346.33 338.61L314.96 338.61L314.96 289.94L378.35 252.35L430.42 265.76Z" />
		<path id="Path 45" fill-rule="evenodd" class="shp2" d="M434.3 352.18L369.4 352.18L345.67 341.73L311.84 341.73L311.84 288.16L377.88 249L432.21 263L460.85 298.83L485.47 331.55L483.55 333.47C480.13 336.88 475.55 338.69 470.29 338.69C464.87 338.69 459 336.7 454.18 333.23L453.84 332.98L443.74 320.5L423.51 295.89L392.84 291.19L384.94 300.71L384.86 310.48L384.87 324.89L416.15 324.81C427.21 325.13 435.07 336.74 434.78 346.92L434.3 352.18ZM370.72 345.93L428.55 345.93C428.4 339.31 423 331.26 416.06 331.06L378.63 331.15L378.61 310.45L378.71 298.43L390.29 284.48L426.82 290.07L448.59 316.55L458.17 328.39C461.87 330.96 466.27 332.44 470.29 332.44C472.18 332.44 474.69 332.1 477.01 330.7L455.91 302.66L428.63 268.53L378.83 255.7L318.09 291.73L318.09 335.48L346.99 335.48L370.72 345.93Z" />
		<path id="Path 46" class="shp9" d="M2.26 271.62L335.63 271.62L335.63 346.97L2.26 346.97L2.26 271.62Z" />
		<path id="Path 47" class="shp2" d="M338.76 350.09L2.26 350.09L2.26 343.84L332.51 343.84L332.51 274.75L2.26 274.75L2.26 268.5L338.76 268.5L338.76 350.09Z" />
		<path id="Path 48" class="shp13" d="M2.26 271.62L324.6 271.62L324.6 356.56L2.26 356.56L2.26 271.62Z" />
		<path id="Path 49" class="shp8" d="M2.26 271.62L324.6 271.62L324.6 313.37L2.26 313.37L2.26 271.62Z" />
		<path id="Path 50" class="shp9" d="M307.56 341.41C305.98 341.41 304.69 340.12 304.69 338.54C304.69 336.95 305.98 335.66 307.56 335.66C309.15 335.66 310.44 336.95 310.44 338.54C310.44 340.12 309.15 341.41 307.56 341.41Z" />
		<path id="Path 51" class="shp2" d="M307.56 332.54C304.25 332.54 301.56 335.22 301.56 338.54C301.56 341.84 304.25 344.53 307.56 344.53C310.88 344.53 313.56 341.84 313.56 338.54C313.56 335.22 310.88 332.54 307.56 332.54ZM327.72 359.69L2.26 359.69L2.26 353.44L321.47 353.44L321.47 274.75L2.26 274.75L2.26 268.5L327.72 268.5L327.72 359.69Z" />
		<path id="Path 52" class="shp0" d="M485.32 372.02L485.43 372.1L484.63 373.18C475.98 367.62 466.78 366.25 462.04 369.71C459.82 366.92 457.16 364.08 454.13 361.33C451.12 358.6 448.06 356.24 445.11 354.3C447.4 352.07 449.72 349.43 451.92 346.45C454.13 343.47 455.99 340.49 457.46 337.65C460.18 339.92 463.32 342.17 466.8 344.25C470.31 346.35 473.81 348.08 477.11 349.4C475.17 354.95 479.15 363.34 486.98 370.02L486.18 371.09L486.07 371.01L485.32 372.02Z" />
		<path id="Path 53" fill-rule="evenodd" class="shp2" d="M485.39 377.38L482.94 375.81C474.57 370.44 467.02 369.94 463.89 372.23L461.47 373.99L459.6 371.66C457.37 368.88 454.83 366.18 452.03 363.64C449.22 361.1 446.31 358.83 443.39 356.91L440.14 354.78L442.93 352.06C445.2 349.85 447.38 347.34 449.41 344.59C451.47 341.81 453.24 339 454.69 336.21L456.48 332.76L459.46 335.26C462.16 337.51 465.17 339.64 468.41 341.57C471.7 343.54 475.02 345.2 478.28 346.5L481.05 347.62L480.06 350.44C478.78 354.1 481.44 361.19 489 367.64L491.22 369.53L489.79 371.46L489.8 371.47L486.89 375.39L486.88 375.38L485.39 377.38ZM468.81 364.71C472.17 364.71 475.91 365.52 479.73 367.09C475.42 361.81 473.17 356.11 473.56 351.29C470.78 350.05 467.98 348.6 465.2 346.94C462.81 345.51 460.54 343.98 458.4 342.38C457.21 344.37 455.89 346.35 454.43 348.31C452.99 350.26 451.47 352.11 449.9 353.83C452.04 355.41 454.16 357.14 456.23 359.01C458.6 361.16 460.81 363.42 462.82 365.75C464.6 365.06 466.62 364.71 468.81 364.71Z" />
		<path id="Path 54" class="shp1" d="M333.12 269.15C317.34 257.42 327.91 243.2 343.7 254.92C370.5 274.25 430.56 318.45 457.36 337.79C453.31 343.25 449.26 348.71 445.21 354.17C418.63 333.89 359.19 289.04 333.12 269.15Z" />
		<path id="Path 55" fill-rule="evenodd" class="shp2" d="M445.83 358.58L443.31 356.66C429.79 346.34 407.49 329.45 385.93 313.12C364.87 297.18 344.03 281.4 331.23 271.63C322.74 265.33 321.25 258.38 322.7 253.99C324.05 249.93 327.86 247.41 332.67 247.41C336.7 247.41 341.15 249.14 345.56 252.41C358.94 262.06 381.04 278.23 402.42 293.86C423.75 309.46 445.81 325.6 459.19 335.25L461.76 337.1L445.83 358.58ZM332.67 253.66C330.59 253.66 329.12 254.5 328.64 255.96C327.85 258.34 329.51 262.57 334.99 266.64C347.81 276.42 368.65 292.2 389.7 308.14C409.98 323.5 430.91 339.34 444.59 349.77L452.97 338.47C439.42 328.67 418.76 313.56 398.73 298.91C377.36 283.28 355.27 267.12 341.87 257.45C338.56 255 335.31 253.66 332.67 253.66Z" />
		<path id="Path 56" class="shp1" d="M435.85 347.65L448.41 330.69L458.26 338.01L445.69 354.98L435.85 347.65Z" />
		<path id="Path 57" fill-rule="evenodd" class="shp2" d="M446.34 359.35L431.48 348.3L447.76 326.32L462.63 337.37L446.34 359.35ZM440.21 347.01L445.05 350.6L453.89 338.66L449.06 335.07L440.21 347.01Z" />
		<path id="Path 58" class="shp1" d="M367.08 298.81L292.12 243.08C287.58 239.72 286.31 233.73 289.28 229.73L292.99 224.74C295.97 220.73 302.05 220.21 306.59 223.58L381.63 279.35L367.08 298.81Z" />
		<path id="Path 59" fill-rule="evenodd" class="shp2" d="M367.72 303.18L290.25 245.59C287.45 243.51 285.52 240.56 284.83 237.3C284.1 233.88 284.79 230.53 286.78 227.86L290.48 222.88C292.67 219.92 296.16 218.23 300.05 218.23C302.44 218.23 304.85 218.89 306.99 220.11L309.5 216.76C312.49 212.74 318.31 214.12 322.75 217.29L379.7 259.52L375.98 264.54L319.08 222.34C317.34 221.12 315.06 220.31 314.44 220.54L312.05 223.74L386.01 278.71L367.72 303.18ZM300.05 224.48C298.16 224.48 296.5 225.26 295.49 226.6L291.79 231.59C290.9 232.8 290.59 234.36 290.94 236C291.2 237.21 291.78 238.35 292.63 239.33L303.2 225.19C302.19 224.73 301.11 224.48 300.05 224.48ZM366.45 294.44L377.25 279.99L308.31 228.75L297.52 243.21L366.45 294.44ZM486.65 375.79L462.04 357.38L465.79 352.38L490.4 370.78L486.65 375.79Z" />
		<path id="Path 60" class="shp7" d="M381.74 310.45L381.75 328.02L416.15 327.94C424.97 328.19 431.91 338 431.66 346.83C431.66 346.83 431.47 348.83 431.45 349.05L370.06 349.05L346.33 338.61L381.74 310.45Z" />
		<path id="Path 61" class="shp2" d="M434.3 352.18L369.4 352.18L345.07 341.47L347.59 335.75L370.72 345.93L428.55 345.93C428.4 339.31 423 331.26 416.06 331.06L378.63 331.15L378.61 310.45L384.86 310.45L384.87 324.89L416.15 324.81C427.21 325.13 435.07 336.74 434.78 346.92L434.3 352.18Z" />
		<path id="Path 62" class="shp10" d="M1140.14 143.44C1140.14 165.99 1121.86 184.28 1099.29 184.28C1076.74 184.28 1058.45 165.99 1058.45 143.44C1058.45 120.9 1076.74 102.61 1099.29 102.61C1121.86 102.61 1140.14 120.9 1140.14 143.44Z" />
		<path id="Path 63" fill-rule="evenodd" class="shp2" d="M1099.29 187.41C1075.05 187.41 1055.33 167.69 1055.33 143.44C1055.33 119.2 1075.05 99.48 1099.29 99.48C1123.54 99.48 1143.26 119.2 1143.26 143.44C1143.26 167.69 1123.54 187.41 1099.29 187.41ZM1099.29 105.73C1078.5 105.73 1061.58 122.65 1061.58 143.44C1061.58 164.24 1078.5 181.16 1099.29 181.16C1120.09 181.16 1137.01 164.24 1137.01 143.44C1137.01 122.65 1120.09 105.73 1099.29 105.73Z" />
		<path id="Path 64" class="shp7" d="M1127.06 143.44C1127.06 158.78 1114.64 171.21 1099.29 171.21C1083.95 171.21 1071.52 158.78 1071.52 143.44C1071.52 128.11 1083.95 115.68 1099.29 115.68C1114.64 115.68 1127.06 128.11 1127.06 143.44Z" />
		<path id="Path 65" class="shp2" d="M1102.36 156.85L1096.11 156.85L1096.11 133.83L1090.92 139.22L1086.41 134.89L1096.99 123.91L1102.36 126.08L1102.36 156.85ZM1104.14 159.87L1094.17 159.87L1094.17 153.62L1104.14 153.62L1104.14 159.87Z" />
		<path id="Path 66" class="shp10" d="M1406.83 313.99L1421.52 306.12L1402.8 271.18L1420.13 239L1405.45 231.1L1383.89 271.15L1406.83 313.99Z" />
		<path id="Path 67" fill-rule="evenodd" class="shp2" d="M1405.55 318.22L1380.34 271.15L1404.18 226.87L1424.36 237.73L1406.35 271.18L1425.75 307.4L1405.55 318.22ZM1387.43 271.16L1408.11 309.76L1417.29 304.84L1399.26 271.17L1415.89 240.27L1406.72 235.34L1387.43 271.16Z" />
		<path id="Path 68" class="shp7" d="M1408.64 206.66C1408.64 218.32 1418.09 227.77 1429.74 227.77C1441.4 227.77 1450.85 218.32 1450.85 206.66C1450.85 195 1441.4 185.55 1429.74 185.55C1418.09 185.55 1408.64 195 1408.64 206.66Z" />
		<path id="Path 69" fill-rule="evenodd" class="shp2" d="M1429.74 230.9C1416.38 230.9 1405.51 220.02 1405.51 206.66C1405.51 193.3 1416.38 182.43 1429.74 182.43C1443.1 182.43 1453.98 193.3 1453.98 206.66C1453.98 220.02 1443.1 230.9 1429.74 230.9ZM1429.74 188.68C1419.82 188.68 1411.76 196.74 1411.76 206.66C1411.76 216.58 1419.82 224.65 1429.74 224.65C1439.66 224.65 1447.73 216.58 1447.73 206.66C1447.73 196.74 1439.66 188.68 1429.74 188.68Z" />
		<path id="Path 70" class="shp7" d="M1516.17 235.99L1504.38 224.21L1475.2 253.38L1452.2 230.38L1407.18 230.24L1407.29 262.37L1407.29 385.82L1452.2 385.82L1452.2 258.85L1452.2 253.95L1475.2 276.96L1516.17 235.99Z" />
		<path id="Path 71" fill-rule="evenodd" class="shp2" d="M1455.33 388.94L1404.16 388.94L1404.16 262.37L1404.04 227.11L1453.5 227.26L1475.2 248.96L1504.38 219.79L1520.59 235.99L1475.2 281.38L1455.33 261.5L1455.33 388.94ZM1410.41 382.69L1426.61 382.69L1426.61 315.75L1432.86 315.75L1432.86 382.69L1449.08 382.69L1449.08 246.41L1475.2 272.54L1511.75 235.99L1504.38 228.63L1475.2 257.8L1450.9 233.5L1410.31 233.38L1410.41 262.36L1410.41 382.69Z" />
		<path id="Path 72" class="shp8" d="M1531.52 253.12L1531.52 269.79L1548.64 269.79L1495.76 321.02L1466.33 295.79L1390.05 376.56L1402.16 388.01L1467.54 318.78L1496.45 343.56L1558.6 283.34L1558.6 296.87L1575.27 296.87L1575.27 253.12L1531.52 253.12Z" />
		<path id="Path 73" fill-rule="evenodd" class="shp2" d="M1402.29 392.43L1385.63 376.69L1466.1 291.48L1495.63 316.79L1540.93 272.91L1528.39 272.91L1528.39 250L1578.39 250L1578.39 299.99L1555.48 299.99L1555.48 290.72L1496.58 347.79L1467.77 323.09L1402.29 392.43ZM1394.46 376.44L1402.04 383.59L1467.32 314.47L1496.32 339.33L1561.73 275.96L1561.73 293.74L1572.14 293.74L1572.14 256.25L1534.64 256.25L1534.64 266.66L1556.36 266.66L1495.89 325.24L1466.56 300.1L1394.46 376.44Z" />
		<path id="Path 74" class="shp14" d="M1214.53 343.13C1214.53 375.21 1188.53 401.22 1156.44 401.22C1124.36 401.22 1098.35 375.21 1098.35 343.13C1098.35 311.05 1124.36 285.04 1156.44 285.04C1188.53 285.04 1214.53 311.05 1214.53 343.13Z" />
		<path id="Path 75" class="shp8" d="M1200.48 343.13C1200.48 367.46 1180.76 387.17 1156.44 387.17C1132.12 387.17 1112.4 367.46 1112.4 343.13C1112.4 318.81 1132.12 299.09 1156.44 299.09C1180.76 299.09 1200.48 318.81 1200.48 343.13Z" />
		<path id="Path 76" fill-rule="evenodd" class="shp2" d="M1156.44 405.91C1121.83 405.91 1093.67 377.74 1093.67 343.13C1093.67 308.52 1121.83 280.36 1156.44 280.36C1191.05 280.36 1219.21 308.52 1219.21 343.13C1219.21 377.74 1191.05 405.91 1156.44 405.91ZM1156.44 286.61C1125.27 286.61 1099.92 311.96 1099.92 343.13C1099.92 374.3 1125.27 399.66 1156.44 399.66C1187.61 399.66 1212.96 374.3 1212.96 343.13C1212.96 311.96 1187.61 286.61 1156.44 286.61Z" />
		<path id="Path 77" fill-rule="evenodd" class="shp2" d="M1156.44 405.91C1135.34 405.91 1118.81 378.33 1118.81 343.13C1118.81 307.93 1135.34 280.36 1156.44 280.36C1177.53 280.36 1194.05 307.93 1194.05 343.13C1194.05 378.33 1177.53 405.91 1156.44 405.91ZM1156.44 286.61C1139.14 286.61 1125.06 311.96 1125.06 343.13C1125.06 374.3 1139.14 399.66 1156.44 399.66C1173.74 399.66 1187.8 374.3 1187.8 343.13C1187.8 311.96 1173.74 286.61 1156.44 286.61Z" />
		<path id="Path 78" fill-rule="evenodd" class="shp2" d="M1156.44 405.91C1154.71 405.91 1153.31 404.51 1153.31 402.78L1153.31 283.49C1153.31 281.76 1154.71 280.36 1156.44 280.36C1191.05 280.36 1219.21 308.52 1219.21 343.13C1219.21 377.74 1191.05 405.91 1156.44 405.91ZM1159.56 286.7L1159.56 399.57C1189.28 397.94 1212.96 373.25 1212.96 343.13C1212.96 313.01 1189.28 288.32 1159.56 286.7Z" />
		<path id="Path 79" fill-rule="evenodd" class="shp2" d="M1212.2 367.28L1100.67 367.28C1099.37 367.28 1098.2 366.47 1097.74 365.26C1095.04 358.07 1093.67 350.63 1093.67 343.13C1093.67 335.63 1095.04 328.19 1097.75 321C1098.21 319.79 1099.37 318.98 1100.67 318.98L1212.2 318.98C1213.5 318.98 1214.66 319.78 1215.13 321C1217.84 328.18 1219.21 335.62 1219.21 343.13C1219.21 350.64 1217.84 358.09 1215.13 365.26C1214.66 366.48 1213.5 367.28 1212.2 367.28ZM1102.87 361.03L1210 361.03C1211.97 355.2 1212.96 349.19 1212.96 343.13C1212.96 337.08 1211.97 331.07 1210 325.23L1102.88 325.23C1100.91 331.08 1099.92 337.09 1099.92 343.13C1099.92 349.17 1100.91 355.19 1102.87 361.03Z" />
	</g>
</svg>