<?xml version="1.0" encoding="utf-8"?>
<!-- Generator: Adobe Illustrator 18.0.0, SVG Export Plug-In . SVG Version: 6.00 Build 0)  -->
<!DOCTYPE svg PUBLIC "-//W3C//DTD SVG 1.1//EN" "http://www.w3.org/Graphics/SVG/1.1/DTD/svg11.dtd">
<svg version="1.1" id="Layer_1" xmlns="http://www.w3.org/2000/svg" xmlns:xlink="http://www.w3.org/1999/xlink" x="0px" y="0px"
	 viewBox="0 0 129.5 129.5" enable-background="new 0 0 129.5 129.5" xml:space="preserve">
<g>
	<g>
		<g>
			<path fill="#231F20" d="M12,8.3c-0.2,0-0.4-0.1-0.5-0.2c-0.3-0.3-0.3-0.8,0-1.1l1.3-1.3c0.3-0.3,0.8-0.3,1.1,0
				c0.3,0.3,0.3,0.8,0,1.1l-1.3,1.3C12.3,8.2,12.2,8.3,12,8.3z"/>
		</g>
		<g>
			<path fill="#231F20" d="M7.9,12.3c-0.2,0-0.4-0.1-0.5-0.2c-0.3-0.3-0.3-0.8,0-1.1l1.3-1.3c0.3-0.3,0.8-0.3,1.1,0
				c0.3,0.3,0.3,0.8,0,1.1l-1.3,1.3C8.3,12.3,8.1,12.3,7.9,12.3z"/>
		</g>
		<g>
			<path fill="#231F20" d="M13.2,12.3c-0.2,0-0.4-0.1-0.5-0.2l-1.3-1.3c-0.3-0.3-0.3-0.8,0-1.1c0.3-0.3,0.8-0.3,1.1,0l1.3,1.3
				c0.3,0.3,0.3,0.8,0,1.1C13.6,12.3,13.4,12.3,13.2,12.3z"/>
		</g>
		<g>
			<path fill="#231F20" d="M9.2,8.3C9,8.3,8.8,8.2,8.7,8.1L7.4,6.8C7.1,6.5,7.1,6,7.4,5.7c0.3-0.3,0.8-0.3,1.1,0L9.8,7
				c0.3,0.3,0.3,0.8,0,1.1C9.6,8.2,9.4,8.3,9.2,8.3z"/>
		</g>
		<g>
			<path fill="#231F20" d="M111,82.9c-0.2,0-0.4-0.1-0.5-0.2c-0.3-0.3-0.3-0.8,0-1.1l1.3-1.3c0.3-0.3,0.8-0.3,1.1,0
				c0.3,0.3,0.3,0.8,0,1.1l-1.3,1.3C111.4,82.8,111.2,82.9,111,82.9z"/>
		</g>
		<g>
			<path fill="#231F20" d="M107,86.9c-0.2,0-0.4-0.1-0.5-0.2c-0.3-0.3-0.3-0.8,0-1.1l1.3-1.3c0.3-0.3,0.8-0.3,1.1,0
				c0.3,0.3,0.3,0.8,0,1.1l-1.3,1.3C107.4,86.8,107.2,86.9,107,86.9z"/>
		</g>
		<g>
			<path fill="#231F20" d="M112.3,86.9c-0.2,0-0.4-0.1-0.5-0.2l-1.3-1.3c-0.3-0.3-0.3-0.8,0-1.1c0.3-0.3,0.8-0.3,1.1,0l1.3,1.3
				c0.3,0.3,0.3,0.8,0,1.1C112.7,86.8,112.5,86.9,112.3,86.9z"/>
		</g>
		<g>
			<path fill="#231F20" d="M108.3,82.9c-0.2,0-0.4-0.1-0.5-0.2l-1.3-1.3c-0.3-0.3-0.3-0.8,0-1.1c0.3-0.3,0.8-0.3,1.1,0l1.3,1.3
				c0.3,0.3,0.3,0.8,0,1.1C108.6,82.8,108.5,82.9,108.3,82.9z"/>
		</g>
		<g>
			<path fill="#231F20" d="M14.6,110.4c-0.2,0-0.4-0.1-0.5-0.2c-0.3-0.3-0.3-0.8,0-1.1l1.3-1.3c0.3-0.3,0.8-0.3,1.1,0
				c0.3,0.3,0.3,0.8,0,1.1l-1.3,1.3C15,110.3,14.8,110.4,14.6,110.4z"/>
		</g>
		<g>
			<path fill="#231F20" d="M10.6,114.4c-0.2,0-0.4-0.1-0.5-0.2c-0.3-0.3-0.3-0.8,0-1.1l1.3-1.3c0.3-0.3,0.8-0.3,1.1,0
				c0.3,0.3,0.3,0.8,0,1.1l-1.3,1.3C11,114.3,10.8,114.4,10.6,114.4z"/>
		</g>
		<g>
			<path fill="#231F20" d="M15.9,114.4c-0.2,0-0.4-0.1-0.5-0.2l-1.3-1.3c-0.3-0.3-0.3-0.8,0-1.1c0.3-0.3,0.8-0.3,1.1,0l1.3,1.3
				c0.3,0.3,0.3,0.8,0,1.1C16.3,114.3,16.1,114.4,15.9,114.4z"/>
		</g>
		<g>
			<path fill="#231F20" d="M11.9,110.4c-0.2,0-0.4-0.1-0.5-0.2l-1.3-1.3c-0.3-0.3-0.3-0.8,0-1.1c0.3-0.3,0.8-0.3,1.1,0l1.3,1.3
				c0.3,0.3,0.3,0.8,0,1.1C12.3,110.3,12.1,110.4,11.9,110.4z"/>
		</g>
		<path fill="#FFFFFF" d="M128.8,55.9c0-8.8-6.9-15.9-15.6-16.3c0,0,0,0,0,0c0-9.5-7.7-17.2-17.2-17.2c-2.1,0-4.2,0.4-6.1,1.1
			c-1.4-8.1-8.4-14.2-16.9-14.2c-3.2,0-6.2,0.9-8.8,2.5c-3.9-6.6-11.1-11-19.3-11c-12.4,0-22.4,10-22.4,22.4c0,1.8,0.2,3.6,0.7,5.3
			c-0.2,0-0.4,0-0.7,0c-12.1,0-21.9,9.8-21.9,21.9c0,12.1,9.8,21.9,21.9,21.9h92.2l-0.1-0.2C122.7,71,128.8,64.2,128.8,55.9z"/>
		<g>
			<path fill="#E6E9EE" d="M22.6,70.3c-11,0-19.9-8.9-19.9-19.9c0-11,8.9-19.9,19.9-19.9c0.1,0,0.2,0,0.2,0c0.1,0,0.2,0,0.4,0
				l2.6,0.1L25.2,28c-0.4-1.6-0.6-3.3-0.6-4.8c0-11.3,9.2-20.4,20.4-20.4c7.3,0,13.8,3.7,17.6,10l1,1.7l1.7-1
				c2.4-1.4,5.1-2.2,7.8-2.2c7.4,0,13.6,5.3,14.9,12.5l0.4,2.4l2.3-0.9c1.7-0.7,3.5-1,5.4-1c8.3,0,15.1,6.8,15.2,15.1l0,2l1.9,0.1
				c7.7,0.4,13.7,6.7,13.7,14.3c0,7.1-5.3,13.3-12.4,14.2l-1.1,0.2H22.6z"/>
		</g>
		<g>
			<path fill="#231F20" d="M84,23.2c-1.4-4.9-5.8-8.2-10.9-8.2c-1.2,0-2.4,0.2-3.6,0.6L69,14.2c1.4-0.5,2.8-0.7,4.1-0.7
				c5.8,0,10.7,3.7,12.4,9.3L84,23.2z"/>
		</g>
		<g>
			<path fill="#231F20" d="M107.3,37.2c-1.1-5.3-5.8-9.1-11.2-9.1c-0.3,0-0.6,0-0.9,0L95,26.6c0.3,0,0.7,0,1,0
				c6.1,0,11.4,4.4,12.7,10.3L107.3,37.2z"/>
		</g>
		<g>
			<path fill="#231F20" d="M124.6,55.9h-1.5c0-4.1-2.4-7.9-6.2-9.6l0.6-1.4C121.8,46.9,124.6,51.2,124.6,55.9z"/>
		</g>
		<g>
			<path fill="#231F20" d="M6.4,50.4H4.9C4.9,42.8,9.8,36,17,33.6l0.5,1.4C10.9,37.2,6.4,43.4,6.4,50.4z"/>
		</g>
		<g>
			<path fill="#231F20" d="M28.5,21.1L27,20.9C28.1,11.8,35.9,5,45,5c6.3,0,12,3.2,15.4,8.5l-1.3,0.8C56.1,9.4,50.8,6.5,45,6.5
				C36.6,6.5,29.5,12.8,28.5,21.1z"/>
		</g>
		<g>
			<path fill="#FFFFFF" d="M88.3,80.8h-9.6V63.3c0-7.7-6.2-13.9-13.9-13.9s-13.9,6.2-13.9,13.9v17.6h-9.6V63.3
				c0-13,10.5-23.5,23.5-23.5s23.5,10.5,23.5,23.5V80.8z"/>
		</g>
		<g>
			<rect x="32" y="104.8" fill="#84DBFF" width="65.5" height="12.4"/>
		</g>
		<g>
			<path fill="#231F20" d="M88.7,96.4h-8.1c-0.4,0-0.8-0.3-0.8-0.8c0-0.4,0.3-0.8,0.8-0.8h8.1c0.4,0,0.8,0.3,0.8,0.8
				C89.5,96.1,89.1,96.4,88.7,96.4z"/>
		</g>
		<g>
			<path fill="#231F20" d="M81.4,93.4h-4c-0.4,0-0.8-0.3-0.8-0.8c0-0.4,0.3-0.8,0.8-0.8h4c0.4,0,0.8,0.3,0.8,0.8
				C82.1,93.1,81.8,93.4,81.4,93.4z"/>
		</g>
		<g>
			<path fill="#231F20" d="M77,96.4h-3.8c-0.4,0-0.8-0.3-0.8-0.8c0-0.4,0.3-0.8,0.8-0.8H77c0.4,0,0.8,0.3,0.8,0.8
				C77.7,96.1,77.4,96.4,77,96.4z"/>
		</g>
		<g>
			<path fill="#231F20" d="M85.1,93.4h-0.8c-0.4,0-0.8-0.3-0.8-0.8c0-0.4,0.3-0.8,0.8-0.8h0.8c0.4,0,0.8,0.3,0.8,0.8
				C85.8,93.1,85.5,93.4,85.1,93.4z"/>
		</g>
		<g>
			<path fill="#231F20" d="M53.8,27.1h-8.1c-0.4,0-0.8-0.3-0.8-0.8c0-0.4,0.3-0.8,0.8-0.8h8.1c0.4,0,0.8,0.3,0.8,0.8
				C54.5,26.7,54.2,27.1,53.8,27.1z"/>
		</g>
		<g>
			<path fill="#231F20" d="M46.4,24.1h-4c-0.4,0-0.8-0.3-0.8-0.8c0-0.4,0.3-0.8,0.8-0.8h4c0.4,0,0.8,0.3,0.8,0.8
				C47.2,23.8,46.9,24.1,46.4,24.1z"/>
		</g>
		<g>
			<path fill="#231F20" d="M42,27.1h-3.8c-0.4,0-0.8-0.3-0.8-0.8c0-0.4,0.3-0.8,0.8-0.8H42c0.4,0,0.8,0.3,0.8,0.8
				C42.8,26.7,42.4,27.1,42,27.1z"/>
		</g>
		<g>
			<path fill="#231F20" d="M50.1,24.1h-0.8c-0.4,0-0.8-0.3-0.8-0.8c0-0.4,0.3-0.8,0.8-0.8h0.8c0.4,0,0.8,0.3,0.8,0.8
				C50.9,23.8,50.5,24.1,50.1,24.1z"/>
		</g>
		<g>
			<circle fill="#FF7058" cx="117.2" cy="8.5" r="2.3"/>
		</g>
		<g>
			<circle fill="#84DBFF" cx="12.3" cy="82.5" r="2.3"/>
		</g>
		<g>
			<circle fill="#84DBFF" cx="119.6" cy="95.6" r="2.5"/>
		</g>
		<g>
			<circle fill="#FFD05B" cx="22.7" cy="123.5" r="2.5"/>
		</g>
		<g>
			<path fill="#E6E9EE" d="M88.3,63.3v4.5c0-13-10.5-23.5-23.5-23.5c-13,0-23.5,10.5-23.5,23.5v-4.5c0-13,10.5-23.5,23.5-23.5
				C77.7,39.8,88.3,50.3,88.3,63.3z"/>
		</g>
		<path fill="#231F20" d="M114,38.9c-0.3-9.6-8.2-17.3-17.9-17.3c-1.9,0-3.7,0.3-5.5,0.9c-1.8-8.1-9-13.9-17.5-13.9
			c-3,0-5.9,0.8-8.6,2.2C60.3,4,53,0,45,0C32.2,0,21.8,10.4,21.8,23.2c0,1.5,0.2,3,0.5,4.5C9.9,27.9-0.1,38-0.1,50.4
			C-0.1,62.9,10.1,73,22.6,73h17.9v7.1H38c-3.7,0-6.8,3-6.8,6.8v35.8c0,3.7,3,6.8,6.8,6.8h53.4c3.7,0,6.8-3,6.8-6.8V86.9
			c0-3.7-3-6.8-6.8-6.8H89V73h25.8c0.2,0,0.4-0.1,0.6-0.3c8.1-1.4,14.2-8.6,14.2-16.9C129.6,47,122.8,39.6,114,38.9z M91.5,81.6
			c2.9,0,5.3,2.4,5.3,5.3v35.8c0,2.9-2.4,5.3-5.3,5.3H38c-2.9,0-5.3-2.4-5.3-5.3V86.9c0-2.9,2.4-5.3,5.3-5.3H91.5z M64.7,48.6
			c-8.1,0-14.6,6.6-14.6,14.6v16.8H42V63.3c0-12.6,10.2-22.8,22.8-22.8c12.6,0,22.8,10.2,22.8,22.8v16.8h-8.1V63.3
			C79.4,55.2,72.8,48.6,64.7,48.6z M77.9,71.5H51.6v-8.3c0-7.2,5.9-13.1,13.1-13.1c7.2,0,13.1,5.9,13.1,13.1V71.5z M51.6,73h26.3
			v7.1H51.6V73z M114.6,71.4c-0.1,0-0.3,0.1-0.4,0.2H89v-8.3C89,49.9,78.1,39,64.7,39c-13.4,0-24.3,10.9-24.3,24.3v8.3H22.6
			C10.9,71.5,1.4,62,1.4,50.4s9.5-21.1,21.1-21.1c0.1,0,0.2,0,0.3,0c0.1,0,0.2,0,0.3,0c0.2,0,0.5-0.1,0.6-0.3
			c0.1-0.2,0.2-0.4,0.1-0.7c-0.4-1.7-0.6-3.5-0.6-5.1c0-12,9.7-21.7,21.7-21.7c7.7,0,14.7,4,18.6,10.6c0.1,0.2,0.3,0.3,0.5,0.3
			c0.2,0,0.4,0,0.6-0.1c2.6-1.5,5.5-2.3,8.4-2.3c8,0,14.8,5.7,16.2,13.6c0,0.2,0.2,0.4,0.4,0.5c0.2,0.1,0.4,0.1,0.6,0
			c1.9-0.7,3.8-1.1,5.8-1.1c9.1,0,16.4,7.4,16.4,16.5c0,0.4,0.3,0.7,0.7,0.7c8.3,0.4,14.9,7.2,14.9,15.6
			C128.1,63.7,122.3,70.3,114.6,71.4z"/>
	</g>
</g>
</svg>
