<?xml version="1.0" encoding="utf-8"?>
<!-- Generator: Adobe Illustrator 18.0.0, SVG Export Plug-In . SVG Version: 6.00 Build 0)  -->
<!DOCTYPE svg PUBLIC "-//W3C//DTD SVG 1.1//EN" "http://www.w3.org/Graphics/SVG/1.1/DTD/svg11.dtd">
<svg version="1.1" id="Layer_1" xmlns="http://www.w3.org/2000/svg" xmlns:xlink="http://www.w3.org/1999/xlink" x="0px" y="0px"
	 viewBox="0 0 129.5 129.5" enable-background="new 0 0 129.5 129.5" xml:space="preserve">
<g>
	<g>
		<g>
			<path fill="#FF7058" d="M102.5,88.1c-0.1,1.2-0.2,2.3-0.3,3.4h-6.3c-3.6-6.9-9.3-12.4-16-15.3V56
				C92.4,60.2,101.7,72.8,102.5,88.1z"/>
		</g>
		<g>
			<path fill="#FF7058" d="M49.7,56v20.2c-6.8,2.9-12.4,8.3-16,15.3h-6.3c-0.1-1.1-0.3-2.2-0.3-3.3C27.7,72.9,37.1,60.2,49.7,56z"/>
		</g>
		<polygon fill="#E6E9EE" points="69.9,91.6 59.6,91.6 55.6,73.3 73.9,73.3 		"/>
		<path fill="#FFFFFF" d="M52,91.6c2-8.6,7.8-14.6,12.7-14.6s10.7,6,12.7,14.6H81c9-30.6,3.6-66.3-16.3-90.8
			c-13.7,16.9-20.5,39-20.5,61.2c0,10,1.4,20.1,4.2,29.7H52z"/>
		<g>
			<path fill="#FF7058" d="M71.6,14.6H57.9c2.1-3.4,4.3-6.8,6.9-9.9C67.3,7.9,69.6,11.2,71.6,14.6z"/>
		</g>
		<g>
			<path fill="#84DBFF" d="M73.5,44.1c-0.7,4.2-4.4,7.4-8.8,7.4s-8-3.2-8.8-7.4c0.7-4.2,4.4-7.4,8.8-7.4S72.8,39.9,73.5,44.1z"/>
		</g>
		<g>
			<path fill="#231F20" d="M64.7,52.2c-4.7,0-8.7-3.4-9.5-8c-0.1-0.5-0.1-1.1-0.1-1.6c0-5.3,4.3-9.6,9.6-9.6s9.6,4.3,9.6,9.6
				c0,0.6,0,1.1-0.1,1.6C73.5,48.8,69.5,52.2,64.7,52.2z M64.7,34.4c-4.5,0-8.1,3.7-8.1,8.1c0,0.5,0,0.9,0.1,1.4
				c0.7,3.9,4,6.8,8,6.8c4,0,7.4-2.8,8-6.8c0.1-0.4,0.1-0.9,0.1-1.4C72.9,38.1,69.2,34.4,64.7,34.4z"/>
		</g>
		<g>
			<g>
				<path fill="#231F20" d="M99.8,42c-0.2,0-0.4-0.1-0.5-0.2c-0.3-0.3-0.3-0.8,0-1.1l1.3-1.3c0.3-0.3,0.8-0.3,1.1,0
					c0.3,0.3,0.3,0.8,0,1.1l-1.3,1.3C100.2,41.9,100,42,99.8,42z"/>
			</g>
			<g>
				<path fill="#231F20" d="M95.7,46c-0.2,0-0.4-0.1-0.5-0.2c-0.3-0.3-0.3-0.8,0-1.1l1.3-1.3c0.3-0.3,0.8-0.3,1.1,0
					c0.3,0.3,0.3,0.8,0,1.1l-1.3,1.3C96.1,45.9,95.9,46,95.7,46z"/>
			</g>
			<g>
				<path fill="#231F20" d="M101.1,46c-0.2,0-0.4-0.1-0.5-0.2l-1.3-1.3c-0.3-0.3-0.3-0.8,0-1.1c0.3-0.3,0.8-0.3,1.1,0l1.3,1.3
					c0.3,0.3,0.3,0.8,0,1.1C101.4,45.9,101.3,46,101.1,46z"/>
			</g>
			<g>
				<path fill="#231F20" d="M97,42c-0.2,0-0.4-0.1-0.5-0.2l-1.3-1.3c-0.3-0.3-0.3-0.8,0-1.1c0.3-0.3,0.8-0.3,1.1,0l1.3,1.3
					c0.3,0.3,0.3,0.8,0,1.1C97.4,41.9,97.2,42,97,42z"/>
			</g>
		</g>
		<g>
			<g>
				<path fill="#231F20" d="M117.9,9.7c-0.2,0-0.4-0.1-0.5-0.2c-0.3-0.3-0.3-0.8,0-1.1l1.3-1.3c0.3-0.3,0.8-0.3,1.1,0
					c0.3,0.3,0.3,0.8,0,1.1l-1.3,1.3C118.3,9.6,118.1,9.7,117.9,9.7z"/>
			</g>
			<g>
				<path fill="#231F20" d="M113.9,13.7c-0.2,0-0.4-0.1-0.5-0.2c-0.3-0.3-0.3-0.8,0-1.1l1.3-1.3c0.3-0.3,0.8-0.3,1.1,0
					c0.3,0.3,0.3,0.8,0,1.1l-1.3,1.3C114.3,13.7,114.1,13.7,113.9,13.7z"/>
			</g>
			<g>
				<path fill="#231F20" d="M119.2,13.7c-0.2,0-0.4-0.1-0.5-0.2l-1.3-1.3c-0.3-0.3-0.3-0.8,0-1.1c0.3-0.3,0.8-0.3,1.1,0l1.3,1.3
					c0.3,0.3,0.3,0.8,0,1.1C119.6,13.7,119.4,13.7,119.2,13.7z"/>
			</g>
			<g>
				<path fill="#231F20" d="M115.2,9.7c-0.2,0-0.4-0.1-0.5-0.2l-1.3-1.3c-0.3-0.3-0.3-0.8,0-1.1c0.3-0.3,0.8-0.3,1.1,0l1.3,1.3
					c0.3,0.3,0.3,0.8,0,1.1C115.6,9.6,115.4,9.7,115.2,9.7z"/>
			</g>
		</g>
		<g>
			<circle fill="#FFD05B" cx="99.2" cy="27.3" r="1.9"/>
		</g>
		<g>
			<circle fill="#4CDBC4" cx="115.9" cy="60.2" r="3.4"/>
		</g>
		<g>
			<circle fill="#4CDBC4" cx="11.5" cy="67" r="3.4"/>
		</g>
		<g>
			<g>
				<g>
					<path fill="#231F20" d="M15.5,22.9c-0.2,0-0.4-0.1-0.5-0.2c-0.3-0.3-0.3-0.8,0-1.1l1.3-1.3c0.3-0.3,0.8-0.3,1.1,0
						c0.3,0.3,0.3,0.8,0,1.1l-1.3,1.3C15.9,22.8,15.7,22.9,15.5,22.9z"/>
				</g>
				<g>
					<path fill="#231F20" d="M11.5,26.9c-0.2,0-0.4-0.1-0.5-0.2c-0.3-0.3-0.3-0.8,0-1.1l1.3-1.3c0.3-0.3,0.8-0.3,1.1,0
						c0.3,0.3,0.3,0.8,0,1.1L12,26.7C11.9,26.9,11.7,26.9,11.5,26.9z"/>
				</g>
				<g>
					<path fill="#231F20" d="M16.8,26.9c-0.2,0-0.4-0.1-0.5-0.2L15,25.4c-0.3-0.3-0.3-0.8,0-1.1c0.3-0.3,0.8-0.3,1.1,0l1.3,1.3
						c0.3,0.3,0.3,0.8,0,1.1C17.2,26.9,17,26.9,16.8,26.9z"/>
				</g>
				<g>
					<path fill="#231F20" d="M12.8,22.9c-0.2,0-0.4-0.1-0.5-0.2L11,21.4c-0.3-0.3-0.3-0.8,0-1.1c0.3-0.3,0.8-0.3,1.1,0l1.3,1.3
						c0.3,0.3,0.3,0.8,0,1.1C13.2,22.8,13,22.9,12.8,22.9z"/>
				</g>
			</g>
			<g>
				<circle fill="#84DBFF" cx="33.2" cy="15.2" r="2.9"/>
			</g>
		</g>
		<g>
			<circle fill="#FFD05B" cx="16.9" cy="43.4" r="2.7"/>
		</g>
		<g>
			<path fill="#231F20" d="M120.1,101.3c-4.1,0-7.7,2.6-9,6.5c-1-0.4-2-0.5-3.1-0.5c-4.8,0-8.7,3.7-9,8.4c-0.4-0.1-0.8-0.1-1.2-0.1
				c-4.5,0-8.1,3.6-8.1,8.1c0,0,0,0,0,0c0,2.4-2,4.4-4.4,4.4c-2.4,0-4.4-2-4.4-4.4c0-2.4-2-4.4-4.4-4.4c-1.2,0-2.4,0.5-3.2,1.3
				l-2.7-28.9l1.9-9c1.8,2.3,3.3,5.4,4.1,9.1c0.1,0.3,0.4,0.6,0.7,0.6H81c0.3,0,0.6-0.2,0.7-0.5c1.2-3.9,2.1-8,2.8-12
				c4.4,3,8.1,7.1,10.7,12.1c0.1,0.2,0.4,0.4,0.7,0.4h6.3c0.4,0,0.7-0.3,0.7-0.7c0.2-1.2,0.3-2.4,0.3-3.5c0-0.7,0.1-1.3,0.1-2
				c0-13.7-7-26.2-17.6-32.3c-1.5-19.9-8.5-39-20.4-53.6c-0.3-0.4-0.9-0.4-1.2,0C52.4,14.8,45.2,33.7,43.8,53.9
				C33.2,60,26.2,72.5,26.2,86.2c0,0.7,0,1.4,0.1,2.1c0.1,1.1,0.2,2.2,0.3,3.4c0,0.4,0.4,0.7,0.7,0.7h6.3c0.3,0,0.5-0.2,0.7-0.4
				c2.6-5,6.3-9.1,10.7-12.1c0.7,4.1,1.6,8.1,2.8,12c0.1,0.3,0.4,0.5,0.7,0.5H52c0.3,0,0.7-0.2,0.7-0.6c0.9-3.7,2.4-6.8,4.1-9.1
				l1.9,9l-2.7,28.9c-0.8-0.8-1.9-1.3-3.2-1.3c-2.4,0-4.4,2-4.4,4.4c0,2.4-2,4.4-4.4,4.4c-2.4,0-4.4-2-4.4-4.4c0,0,0,0,0,0
				c0-4.5-3.6-8.1-8.1-8.1c-0.4,0-0.8,0-1.2,0.1c-0.3-4.7-4.3-8.4-9-8.4c-1,0-2.1,0.2-3.1,0.5c-1.3-3.9-4.8-6.5-9-6.5
				c-5.2,0-9.4,4.2-9.4,9.4c0,0.4,0.3,0.8,0.8,0.8c0.4,0,0.7-0.3,0.7-0.8c0-4.4,3.6-7.9,7.9-7.9c3.6,0,6.7,2.4,7.7,5.9c0,0,0,0,0,0
				c0.1,0.3,0.2,0.6,0.2,1c-1.2-0.5-2.7-0.6-4.2-0.2c-0.4,0.1-0.6,0.5-0.5,0.9c0.1,0.4,0.5,0.6,0.9,0.5c3.4-0.9,6.4,1.7,6.4,4.9
				c0,0.4,0.3,0.8,0.8,0.8c0.4,0,0.8-0.3,0.8-0.8c0-2.1-1-4-2.6-5.2c0-0.4-0.1-0.9-0.1-1.3c0.9-0.3,1.8-0.5,2.7-0.5
				c4.2,0,7.5,3.4,7.5,7.5c0,0,0,0,0,0c0,0.7-0.1,1.4-0.4,2.2c-1.4-0.8-3.1-1-4.8-0.6c-0.4,0.1-0.6,0.5-0.5,0.9
				c0.1,0.4,0.5,0.6,0.9,0.5c3.4-0.9,6.4,1.7,6.4,4.9c0,0.4,0.3,0.8,0.8,0.8c0.4,0,0.8-0.3,0.8-0.8c0-1.9-0.8-3.7-2.2-4.9
				c0,0,0-0.1,0-0.1c0.2-0.7,0.4-1.4,0.5-2.1c4.2-0.8,7.8,2.4,7.8,6.5c0,0,0,0,0,0c0,3.3,2.6,5.9,5.9,5.9c3.3,0,5.9-2.6,5.9-5.9
				c0-1.6,1.3-2.9,2.9-2.9c1.6,0,2.9,1.3,2.9,2.9c0,0.4,0.3,0.8,0.8,0.8c0.4,0,0.7-0.3,0.7-0.6c0,0,0,0,0-0.1l2.9-31.4h9l2.9,31.4
				c0,0,0,0.1,0,0.1c0.1,0.3,0.4,0.6,0.7,0.6c0.4,0,0.8-0.3,0.8-0.8c0-1.6,1.3-2.9,2.9-2.9c1.6,0,2.9,1.3,2.9,2.9
				c0,3.3,2.6,5.9,5.9,5.9c3.3,0,5.9-2.6,5.9-5.9c0,0,0,0,0,0c0-4,3.6-7.3,7.8-6.5c0.1,0.7,0.2,1.4,0.5,2.1c0,0,0,0.1,0,0.1
				c-1.3,1.2-2.2,2.9-2.2,4.9c0,0.4,0.3,0.8,0.8,0.8c0.4,0,0.8-0.3,0.8-0.8c0-3.2,3-5.8,6.4-4.9c0.4,0.1,0.8-0.1,0.9-0.5
				c0.1-0.4-0.1-0.8-0.5-0.9c-1.8-0.5-3.4-0.2-4.8,0.6c-0.2-0.7-0.3-1.4-0.4-2.2c0,0,0,0,0,0c0-4.2,3.4-7.5,7.5-7.5
				c0.9,0,1.8,0.2,2.7,0.5c-0.1,0.4-0.1,0.9-0.1,1.3c-1.5,1.2-2.6,3.1-2.6,5.2c0,0.4,0.3,0.8,0.8,0.8c0.4,0,0.8-0.3,0.8-0.8
				c0-3.2,3-5.8,6.4-4.9c0.4,0.1,0.8-0.1,0.9-0.5c0.1-0.4-0.1-0.8-0.5-0.9c-1.5-0.4-2.9-0.3-4.2,0.2c0-0.3,0.1-0.5,0.2-0.8
				c0.9-3.6,4-6,7.7-6c4.4,0,7.9,3.6,7.9,7.9c0,0.4,0.3,0.8,0.8,0.8c0.4,0,0.8-0.3,0.8-0.8C129.5,105.5,125.3,101.3,120.1,101.3z
				 M85.8,55.7c9.7,6,16,17.6,16,30.4c0,0.6,0,1.3-0.1,1.9c0,0.9-0.1,1.8-0.2,2.7h-5.2c-2.8-5.3-6.8-9.6-11.5-12.6
				C85.9,70.7,86.2,63.2,85.8,55.7z M64.7,1.9c2.9,3.7,5.6,7.7,7.9,11.9H56.9C59.2,9.7,61.8,5.7,64.7,1.9z M33.2,90.8H28
				c-0.1-0.9-0.2-1.8-0.2-2.6c0-0.7,0-1.3,0-2c0-12.8,6.3-24.4,16-30.5c-0.1,2-0.2,4.1-0.2,6.2c0,5.5,0.4,10.9,1.3,16.3
				C40,81.2,36,85.5,33.2,90.8z M51.4,90.8H49c-2.7-9.3-4.1-19-4.1-28.9c0-16.8,3.9-32.8,11.1-46.5h17.3
				c11.5,22.1,14.4,50.1,7.1,75.4h-2.4c-2.1-8.3-7.9-14.6-13.3-14.6C59.3,76.2,53.5,82.6,51.4,90.8z M60.2,90.8l-2.1-9.6
				c2.2-2.3,4.6-3.5,6.6-3.5c2.1,0,4.5,1.2,6.7,3.5l-2.1,9.6H60.2z"/>
			<path fill="#231F20" d="M121.6,112.6c-1.9,0-3.4,1.5-3.4,3.4c0,0.4,0.3,0.8,0.8,0.8c0.4,0,0.8-0.3,0.8-0.8c0-1.1,0.9-1.9,1.9-1.9
				c1.1,0,1.9,0.9,1.9,1.9c0,0.4,0.3,0.8,0.8,0.8c0.4,0,0.8-0.3,0.8-0.8C125,114.1,123.5,112.6,121.6,112.6z"/>
			<path fill="#231F20" d="M112.2,120.6c-2.3,0-4.1,1.9-4.1,4.1c0,0.4,0.3,0.8,0.8,0.8c0.4,0,0.8-0.3,0.8-0.8c0-1.5,1.2-2.6,2.6-2.6
				c1.5,0,2.6,1.2,2.6,2.6c0,0.4,0.3,0.8,0.8,0.8c0.4,0,0.8-0.3,0.8-0.8C116.4,122.5,114.5,120.6,112.2,120.6z"/>
			<path fill="#231F20" d="M7.9,112.6c-1.9,0-3.4,1.5-3.4,3.4c0,0.4,0.3,0.8,0.8,0.8c0.4,0,0.8-0.3,0.8-0.8c0-1.1,0.9-1.9,1.9-1.9
				c1.1,0,1.9,0.9,1.9,1.9c0,0.4,0.3,0.8,0.8,0.8c0.4,0,0.8-0.3,0.8-0.8C11.3,114.1,9.8,112.6,7.9,112.6z"/>
			<path fill="#231F20" d="M17.3,120.6c-2.3,0-4.1,1.9-4.1,4.1c0,0.4,0.3,0.8,0.8,0.8c0.4,0,0.8-0.3,0.8-0.8c0-1.5,1.2-2.6,2.6-2.6
				c1.5,0,2.6,1.2,2.6,2.6c0,0.4,0.3,0.8,0.8,0.8c0.4,0,0.8-0.3,0.8-0.8C21.4,122.5,19.6,120.6,17.3,120.6z"/>
		</g>
	</g>
</g>
</svg>
