<?xml version="1.0" encoding="utf-8"?>
<!-- Generator: Adobe Illustrator 18.0.0, SVG Export Plug-In . SVG Version: 6.00 Build 0)  -->
<!DOCTYPE svg PUBLIC "-//W3C//DTD SVG 1.1//EN" "http://www.w3.org/Graphics/SVG/1.1/DTD/svg11.dtd">
<svg version="1.1" id="Layer_1" xmlns="http://www.w3.org/2000/svg" xmlns:xlink="http://www.w3.org/1999/xlink" x="0px" y="0px"
	 viewBox="0 0 129.5 129.5" enable-background="new 0 0 129.5 129.5" xml:space="preserve">
<g>
	<g>
		<g>
			<g>
				<path fill="#231F20" d="M127.5,6.8c-0.2,0-0.4-0.1-0.5-0.2c-0.3-0.3-0.3-0.8,0-1.1l1.3-1.3c0.3-0.3,0.8-0.3,1.1,0
					c0.3,0.3,0.3,0.8,0,1.1L128,6.6C127.8,6.7,127.7,6.8,127.5,6.8z"/>
			</g>
			<g>
				<path fill="#231F20" d="M123.4,10.8c-0.2,0-0.4-0.1-0.5-0.2c-0.3-0.3-0.3-0.8,0-1.1l1.3-1.3c0.3-0.3,0.8-0.3,1.1,0
					c0.3,0.3,0.3,0.8,0,1.1l-1.3,1.3C123.8,10.8,123.6,10.8,123.4,10.8z"/>
			</g>
			<g>
				<path fill="#231F20" d="M128.8,10.8c-0.2,0-0.4-0.1-0.5-0.2l-1.3-1.3c-0.3-0.3-0.3-0.8,0-1.1c0.3-0.3,0.8-0.3,1.1,0l1.3,1.3
					c0.3,0.3,0.3,0.8,0,1.1C129.1,10.8,128.9,10.8,128.8,10.8z"/>
			</g>
			<g>
				<path fill="#231F20" d="M124.7,6.8c-0.2,0-0.4-0.1-0.5-0.2l-1.3-1.3c-0.3-0.3-0.3-0.8,0-1.1c0.3-0.3,0.8-0.3,1.1,0l1.3,1.3
					c0.3,0.3,0.3,0.8,0,1.1C125.1,6.7,124.9,6.8,124.7,6.8z"/>
			</g>
		</g>
		<g>
			<g>
				<path fill="#231F20" d="M4.8,125.5c-0.2,0-0.4-0.1-0.5-0.2c-0.3-0.3-0.3-0.8,0-1.1l1.3-1.3c0.3-0.3,0.8-0.3,1.1,0
					c0.3,0.3,0.3,0.8,0,1.1l-1.3,1.3C5.2,125.4,5,125.5,4.8,125.5z"/>
			</g>
			<g>
				<path fill="#231F20" d="M0.8,129.5c-0.2,0-0.4-0.1-0.5-0.2c-0.3-0.3-0.3-0.8,0-1.1l1.3-1.3c0.3-0.3,0.8-0.3,1.1,0
					c0.3,0.3,0.3,0.8,0,1.1l-1.3,1.3C1.1,129.4,0.9,129.5,0.8,129.5z"/>
			</g>
			<g>
				<path fill="#231F20" d="M6.1,129.5c-0.2,0-0.4-0.1-0.5-0.2L4.2,128c-0.3-0.3-0.3-0.8,0-1.1c0.3-0.3,0.8-0.3,1.1,0l1.3,1.3
					c0.3,0.3,0.3,0.8,0,1.1C6.4,129.4,6.3,129.5,6.1,129.5z"/>
			</g>
			<g>
				<path fill="#231F20" d="M2,125.5c-0.2,0-0.4-0.1-0.5-0.2L0.2,124c-0.3-0.3-0.3-0.8,0-1.1c0.3-0.3,0.8-0.3,1.1,0l1.3,1.3
					c0.3,0.3,0.3,0.8,0,1.1C2.4,125.4,2.2,125.5,2,125.5z"/>
			</g>
		</g>
		<g>
			<g>
				<path fill="#231F20" d="M123.4,57.8c-0.2,0-0.4-0.1-0.5-0.2c-0.3-0.3-0.3-0.8,0-1.1l1.3-1.3c0.3-0.3,0.8-0.3,1.1,0
					c0.3,0.3,0.3,0.8,0,1.1l-1.3,1.3C123.8,57.7,123.6,57.8,123.4,57.8z"/>
			</g>
			<g>
				<path fill="#231F20" d="M119.4,61.8c-0.2,0-0.4-0.1-0.5-0.2c-0.3-0.3-0.3-0.8,0-1.1l1.3-1.3c0.3-0.3,0.8-0.3,1.1,0
					c0.3,0.3,0.3,0.8,0,1.1l-1.3,1.3C119.8,61.7,119.6,61.8,119.4,61.8z"/>
			</g>
			<g>
				<path fill="#231F20" d="M124.7,61.8c-0.2,0-0.4-0.1-0.5-0.2l-1.3-1.3c-0.3-0.3-0.3-0.8,0-1.1c0.3-0.3,0.8-0.3,1.1,0l1.3,1.3
					c0.3,0.3,0.3,0.8,0,1.1C125.1,61.7,124.9,61.8,124.7,61.8z"/>
			</g>
			<g>
				<path fill="#231F20" d="M120.7,57.8c-0.2,0-0.4-0.1-0.5-0.2l-1.3-1.3c-0.3-0.3-0.3-0.8,0-1.1c0.3-0.3,0.8-0.3,1.1,0l1.3,1.3
					c0.3,0.3,0.3,0.8,0,1.1C121.1,57.7,120.9,57.8,120.7,57.8z"/>
			</g>
		</g>
		<g>
			<path fill="#FFD05B" d="M39.5,46.5c0-0.2,0-0.3,0-0.5c0-1.9-0.7-3.6-2-4.9c-1.6-1.6-3.8-2.3-6.1-1.9c-3,0.5-5.3,3-5.7,5.9
				c-0.1,0.5-0.1,0.9,0,1.4h-7.2V18.3h28.2v9.9c0,1.5,1.7,2.5,3,1.7l0,0c0.8-0.5,1.7-0.5,2.5-0.2c0.8,0.3,1.5,1,1.8,1.9
				c0.6,2-0.9,3.8-2.8,3.8c-0.5,0-1-0.1-1.5-0.4l0,0c-1.3-0.8-3,0.2-3,1.7v9.9H39.5z"/>
		</g>
		<g>
			<path fill="#FF7058" d="M71.7,46.5c0-0.2,0-0.3,0-0.5c0-1.9-0.7-3.6-2-4.9c-1.6-1.6-3.8-2.3-6.1-1.9c-3,0.5-5.3,3-5.7,5.9
				c-0.1,0.5-0.1,0.9,0,1.4h-7.2v-7.2c0.2,0,0.3,0,0.5,0c1.9,0,3.6-0.7,4.9-2c1.3-1.3,2-3,2-4.9c0-1.8-0.7-3.6-2-4.9
				c-1.3-1.3-3-2-4.9-2c-0.2,0-0.3,0-0.5,0v-7.2h28.2v9.9c0,1.5,1.7,2.5,3,1.7l0,0c0.8-0.5,1.7-0.5,2.6-0.2c0.8,0.3,1.5,1,1.7,1.9
				c0.5,2-0.9,3.8-2.8,3.8c-0.5,0-1-0.1-1.5-0.4l0,0c-1.3-0.8-3,0.2-3,1.7v9.9H71.7z"/>
		</g>
		<g>
			<path fill="#84DBFF" d="M103.9,46.5c0-0.2,0-0.3,0-0.5c0-1.9-0.7-3.6-2-4.9c-1.3-1.3-3-2-4.9-2c-3.8,0-6.9,3.1-6.9,6.9
				c0,0.2,0,0.3,0,0.5h-7.2v-7.2c0.2,0,0.3,0,0.5,0c1.9,0,3.6-0.7,4.9-2c1.3-1.3,2-3,2-4.9c0-1.8-0.7-3.6-2-4.9c-1.3-1.3-3-2-4.9-2
				c-0.2,0-0.3,0-0.5,0v-7.2h28.2v28.2H103.9z"/>
		</g>
		<g>
			<path fill="#FFD05B" d="M39.5,78.9c0-0.2,0-0.3,0-0.5c0-1.9-0.7-3.6-2-4.9c-1.3-1.3-2.9-2-4.7-2c-1.4,0-2.7,0.5-3.7,1.3
				c-2.9,2.2-3.5,4.2-3.4,6.2h-7.2V50.6h9.9c1.5,0,2.5-1.7,1.7-3l0,0c-0.5-0.8-0.6-1.7-0.2-2.6c0.4-0.8,1.1-1.5,1.9-1.7
				c1.9-0.5,3.7,1,3.7,2.8c0,0.5-0.1,1-0.4,1.5l0,0c-0.8,1.3,0.2,3,1.7,3h9.9v9.9c0,1.5,1.7,2.5,3,1.7l0,0c0.8-0.5,1.7-0.6,2.6-0.2
				c0.8,0.3,1.5,1.1,1.7,1.9c0.5,2-1,3.7-2.8,3.7c-0.5,0-1-0.1-1.5-0.4l0,0c-1.3-0.8-3,0.2-3,1.7v9.9H39.5z"/>
		</g>
		<g>
			<path fill="#FFD05B" d="M71.7,78.9c0-0.2,0-0.3,0-0.5c0-1.9-0.7-3.6-2-4.9c-1.3-1.3-2.9-2-4.7-2c-1.4,0-2.7,0.5-3.7,1.3
				c-2.9,2.2-3.5,4.2-3.4,6.2h-7.2v-7.2c0.2,0,0.3,0,0.5,0c1.9,0,3.6-0.7,4.9-2c1.3-1.3,2-3,2-4.9s-0.7-3.6-2-4.9
				c-1.3-1.3-3-2-4.9-2c-0.2,0-0.3,0-0.5,0v-7.2h9.9c1.5,0,2.5-1.7,1.7-3l0,0c-0.5-0.8-0.5-1.7-0.2-2.6c0.3-0.8,1-1.5,1.9-1.7
				c2-0.5,3.7,1,3.7,2.8c0,0.5-0.1,1-0.4,1.5l0,0c-0.8,1.3,0.2,3,1.7,3h9.9v9.9c0,1.5,1.7,2.5,3,1.7l0,0c0.8-0.5,1.7-0.6,2.6-0.2
				c0.8,0.3,1.5,1.1,1.7,1.9c0.5,2-1,3.7-2.8,3.7c-0.5,0-1-0.1-1.5-0.4l0,0c-1.3-0.8-3,0.2-3,1.7v9.9H71.7z"/>
		</g>
		<g>
			<path fill="#E6E9EE" d="M103.9,78.9c0-0.2,0-0.3,0-0.5c0-1.9-0.7-3.6-2-4.9c-1.3-1.3-2.9-2-4.7-2c-1.4,0-2.7,0.5-3.7,1.3
				c-2.9,2.2-3.5,4.2-3.4,6.2h-7.2v-7.2c0.2,0,0.3,0,0.5,0c1.9,0,3.6-0.7,4.9-2c1.3-1.3,2-3,2-4.9s-0.7-3.6-2-4.9
				c-1.3-1.3-3-2-4.9-2c-0.2,0-0.3,0-0.5,0v-7.2h9.9c1.5,0,2.5-1.7,1.7-3l0,0c-0.5-0.8-0.5-1.7-0.2-2.6c0.3-0.8,1-1.5,1.9-1.7
				c2-0.5,3.7,1,3.7,2.8c0,0.5-0.1,1-0.4,1.5l0,0c-0.8,1.3,0.2,3,1.7,3h9.9v28.2H103.9z"/>
		</g>
		<g>
			<path fill="#E6E9EE" d="M18.4,111.2V83h9.9c1.5,0,2.5-1.7,1.7-3l0,0c-0.5-0.8-0.6-1.7-0.2-2.6c0.3-0.8,1.1-1.5,1.9-1.7
				c2-0.5,3.7,1,3.7,2.8c0,0.5-0.1,1-0.4,1.5l0,0c-0.8,1.3,0.2,3,1.7,3h9.9v9.9c0,1.5,1.7,2.5,3,1.7l0,0c0.8-0.5,1.7-0.5,2.5-0.2
				c0.8,0.3,1.5,1,1.8,1.9c0.6,2-0.9,3.8-2.8,3.8c-0.5,0-1-0.1-1.5-0.4l0,0c-1.3-0.8-3,0.2-3,1.7v9.9H18.4z"/>
		</g>
		<g>
			<path fill="#84DBFF" d="M50.6,111.2V104c0.2,0,0.3,0,0.5,0c1.9,0,3.6-0.7,4.9-2c1.3-1.3,2-3,2-4.9c0-1.8-0.7-3.6-2-4.9
				c-1.3-1.3-3-2-4.9-2c-0.2,0-0.3,0-0.5,0V83h9.9c1.5,0,2.5-1.7,1.7-3l0,0c-0.5-0.8-0.6-1.7-0.2-2.6c0.3-0.8,1.1-1.5,1.9-1.7
				c2-0.5,3.7,1,3.7,2.8c0,0.5-0.1,1-0.4,1.5l0,0c-0.8,1.3,0.2,3,1.7,3h9.9v9.9c0,1.5,1.7,2.5,3,1.7l0,0c0.8-0.5,1.7-0.5,2.6-0.2
				c0.8,0.3,1.5,1,1.7,1.9c0.5,2-0.9,3.8-2.8,3.8c-0.5,0-1-0.1-1.5-0.4l0,0c-1.3-0.8-3,0.2-3,1.7v9.9H50.6z"/>
		</g>
		<path fill="#FFFFFF" d="M30,3l-4.3-1.9l-0.1,0.3c-0.9,1.7-2.8,2.6-4.7,2.4c-0.4,0-0.7,0-1.1,0c-1.9,0-3.7-1-4.5-2.7l-0.1-0.3
			l-4.4,1.7l0.1,0.3c0.5,1.8-0.1,3.8-1.6,5C8.9,8,8.6,8.2,8.4,8.5C7,9.9,5.1,10.4,3.3,9.8L3,9.7L1.1,14l0.3,0.1
			c1.7,0.9,2.6,2.8,2.4,4.7c0,0.4,0,0.7,0,1.1c0,1.9-1,3.7-2.7,4.5l-0.3,0.1L2.4,29l0.3-0.1c1.8-0.5,3.8,0.1,5,1.6
			c0.2,0.3,0.5,0.5,0.8,0.8c1.4,1.3,1.9,3.3,1.3,5.1l-0.1,0.3l4.3,1.9l0.1-0.3c0.9-1.7,2.8-2.6,4.7-2.4c0.4,0,0.7,0,1.1,0
			c1.9,0,3.7,1,4.5,2.7l0.1,0.3l4.4-1.7L28.9,37c-0.5-1.8,0.1-3.8,1.6-5c0.3-0.2,0.5-0.5,0.8-0.8c1.3-1.4,3.3-1.9,5.1-1.3l0.3,0.1
			l1.9-4.3l-0.3-0.1c-1.7-0.9-2.6-2.8-2.4-4.7c0-0.4,0-0.7,0-1.1c0-1.9,1-3.7,2.7-4.5l0.3-0.1l-1.7-4.4L37,10.8
			c-1.8,0.5-3.8-0.1-5-1.6c-0.2-0.3-0.5-0.5-0.8-0.8c-1.4-1.3-1.9-3.3-1.3-5.1L30,3z"/>
		<path fill="#231F20" d="M113.1,15.5H39.6c0.1-0.2,0.2-0.5,0.1-0.7L38,10.4c-0.1-0.4-0.5-0.6-0.9-0.5L36.8,10
			c-1.5,0.4-3.2-0.1-4.3-1.4c-0.3-0.3-0.5-0.6-0.8-0.8c-1.2-1.2-1.6-2.8-1.1-4.3l0.1-0.3c0.1-0.4,0-0.8-0.4-0.9L26,0.4
			c-0.4-0.2-0.8,0-1,0.3l-0.1,0.3c-0.8,1.4-2.3,2.2-4,2.1c-0.4,0-0.7,0-1.1,0h-0.1c-1.7,0-3.1-0.9-3.8-2.3l-0.1-0.3
			c-0.2-0.3-0.6-0.5-0.9-0.4l-4.4,1.7C10.1,1.9,9.9,2.3,10,2.6L10,2.9c0.4,1.5-0.1,3.2-1.4,4.3C8.4,7.4,8.1,7.7,7.8,8
			C6.7,9.1,5,9.6,3.5,9.1L3.2,9C2.9,8.9,2.5,9,2.3,9.4l-1.9,4.3c-0.2,0.4,0,0.8,0.3,1l0.3,0.1c1.4,0.8,2.2,2.3,2.1,4
			c0,0.4,0,0.8,0,1.2c0,1.7-0.9,3.2-2.3,3.8l-0.3,0.1c-0.3,0.2-0.5,0.6-0.4,0.9l1.7,4.4c0.1,0.4,0.5,0.6,0.9,0.5l0.3-0.1
			c1.5-0.4,3.2,0.1,4.3,1.4c0.3,0.3,0.5,0.6,0.8,0.8c1.2,1.2,1.6,2.8,1.1,4.3L9,36.5c-0.1,0.4,0,0.8,0.4,0.9l4.3,1.9
			c0.3,0.2,0.8,0,1-0.3l0.1-0.3c0.2-0.4,0.5-0.8,0.9-1.1v43.2v32.3c0,0.4,0.3,0.8,0.7,0.8h64.4c0.4,0,0.8-0.3,0.8-0.8v-10.7
			c0.6,0.2,1.1,0.3,1.7,0.3c3.1,0,5.7-2.6,5.7-5.7c0-3.1-2.6-5.7-5.7-5.7c-0.6,0-1.2,0.1-1.7,0.3v-10h11c0,0,0,0,0,0
			c0.4,0,0.8-0.3,0.8-0.8c0-0.2-0.1-0.4-0.2-0.5c-0.3-0.6-0.5-1.3-0.5-2c0-2.3,1.9-4.2,4.2-4.2c1.1,0,2.2,0.4,3,1.2
			c0.8,0.8,1.2,1.8,1.2,3c0,0.7-0.2,1.5-0.6,2.1c-0.1,0.2-0.1,0.5,0,0.8c0.1,0.2,0.4,0.4,0.7,0.4h11.8c0.4,0,0.8-0.3,0.8-0.8V16.3
			C113.8,15.9,113.5,15.5,113.1,15.5z M49.4,17h30.7v11.1c0,0.3,0.1,0.5,0.4,0.7c0.2,0.1,0.5,0.1,0.8,0c0.7-0.4,1.4-0.6,2.1-0.6
			c2.3,0,4.2,1.9,4.2,4.2c0,2.3-1.9,4.2-4.2,4.2c-0.7,0-1.4-0.2-2.1-0.6c-0.2-0.1-0.5-0.1-0.8,0c-0.2,0.1-0.4,0.4-0.4,0.7l0,11.1
			h-9.9c0.2-0.6,0.3-1.1,0.3-1.7c0-1.5-0.6-3-1.7-4c-1.1-1.1-2.5-1.7-4-1.7c-3.1,0-5.7,2.6-5.7,5.7c0,0.6,0.1,1.2,0.3,1.7h-9.9v-10
			c0.6,0.2,1.1,0.3,1.7,0.3c3.1,0,5.7-2.6,5.7-5.7c0-3.1-2.6-5.7-5.7-5.7c-0.6,0-1.2,0.1-1.7,0.3V17z M80.4,68.4
			c-0.2,0.1-0.4,0.4-0.4,0.7v11.1h-9.9c0.2-0.6,0.3-1.1,0.3-1.7c0-1.5-0.6-3-1.7-4c-1.1-1.1-2.5-1.7-4-1.7c-3.1,0-5.7,2.6-5.7,5.7
			c0,0.6,0.1,1.2,0.3,1.7h-9.9l0-10c0.6,0.2,1.1,0.3,1.7,0.3c1.5,0,3-0.6,4-1.7c1.1-1.1,1.7-2.5,1.7-4c0-1.5-0.6-2.9-1.7-4
			c-1.1-1.1-2.5-1.7-4-1.7c-0.6,0-1.2,0.1-1.7,0.3v-10h11.1c0,0,0,0,0,0c0.4,0,0.8-0.3,0.8-0.8c0-0.2-0.1-0.4-0.2-0.5
			c-0.3-0.6-0.5-1.3-0.5-2c0-2.3,1.9-4.2,4.2-4.2c1.1,0,2.2,0.4,3,1.2c0.8,0.8,1.2,1.8,1.2,3c0,0.7-0.2,1.5-0.6,2.1
			c-0.1,0.2-0.1,0.5,0,0.8c0.1,0.2,0.4,0.4,0.7,0.4h11v11.2c0,0.3,0.1,0.5,0.4,0.7c0.2,0.1,0.5,0.1,0.8,0c0.6-0.4,1.4-0.6,2.1-0.6
			c1.1,0,2.2,0.4,3,1.2c0.8,0.8,1.2,1.8,1.2,3c0,1.1-0.4,2.2-1.2,3c-0.8,0.8-1.8,1.2-3,1.2c-0.7,0-1.5-0.2-2.1-0.6
			C81,68.2,80.7,68.2,80.4,68.4z M36.6,74.4c-1.1-1.1-2.5-1.7-4-1.7c-3.1,0-5.7,2.6-5.7,5.7c0,0.6,0.1,1.2,0.3,1.7h-9.9V49.3h11.1
			c0,0,0,0,0,0c0.4,0,0.8-0.3,0.8-0.8c0-0.2-0.1-0.4-0.2-0.5c-0.3-0.6-0.5-1.3-0.5-2c0-2.3,1.9-4.2,4.2-4.2c1.1,0,2.2,0.4,3,1.2
			c0.8,0.8,1.2,1.8,1.2,3c0,0.7-0.2,1.5-0.6,2.1c-0.1,0.2-0.1,0.5,0,0.8c0.1,0.2,0.4,0.4,0.7,0.4h11v11.2c0,0.3,0.1,0.5,0.4,0.7
			c0.2,0.1,0.5,0.1,0.8,0c0.6-0.4,1.4-0.6,2.1-0.6c1.1,0,2.2,0.4,3,1.2c0.8,0.8,1.2,1.8,1.2,3c0,1.1-0.4,2.2-1.2,3
			c-0.8,0.8-1.8,1.2-3,1.2c-0.7,0-1.5-0.2-2.1-0.6c-0.2-0.1-0.5-0.1-0.8,0c-0.2,0.1-0.4,0.4-0.4,0.7v11.1H38
			c0.2-0.6,0.3-1.1,0.3-1.7C38.3,76.9,37.7,75.4,36.6,74.4z M47.9,17v11.1c0,0.3,0.1,0.5,0.4,0.7c0.2,0.1,0.5,0.1,0.8,0
			c0.7-0.4,1.4-0.6,2.1-0.6c2.3,0,4.2,1.9,4.2,4.2c0,2.3-1.9,4.2-4.2,4.2c-0.7,0-1.4-0.2-2.1-0.6c-0.2-0.1-0.5-0.1-0.8,0
			c-0.2,0.1-0.4,0.4-0.4,0.7v9.9c0,0,0,0,0,0v1.3H38c0.2-0.6,0.3-1.1,0.3-1.7c0-1.5-0.6-3-1.7-4c-1.1-1.1-2.5-1.7-4-1.7
			c-3.1,0-5.7,2.6-5.7,5.7c0,0.6,0.1,1.2,0.3,1.7h-9.9V36.9c0.5-0.1,1-0.2,1.6-0.2c0.4,0,0.7,0,1.1,0H20c1.7,0,3.1,0.9,3.8,2.3
			l0.1,0.3c0.1,0.3,0.4,0.4,0.7,0.4c0.1,0,0.2,0,0.3,0l4.4-1.7c0.4-0.1,0.6-0.5,0.5-0.9l-0.1-0.3c-0.4-1.5,0.1-3.2,1.4-4.3
			c0.3-0.3,0.6-0.5,0.8-0.8c1.1-1.2,2.9-1.6,4.3-1.1l0.3,0.1c0.4,0.1,0.8,0,0.9-0.4l1.9-4.3c0.2-0.4,0-0.8-0.3-1l-0.3-0.1
			c-1.4-0.8-2.2-2.3-2.1-4c0-0.4,0-0.8,0-1.2c0-1,0.3-2,0.9-2.7H47.9z M13.7,37.7l-3.1-1.4c0.5-1.9-0.1-4-1.6-5.5
			c-0.3-0.2-0.5-0.5-0.7-0.8c-1.4-1.6-3.5-2.3-5.4-1.9L1.7,25c1.7-1,2.8-2.9,2.8-5c0-0.4,0-0.7,0-1.1c0.1-2.1-0.8-4-2.5-5.2l1.4-3.1
			c1.9,0.5,4.1-0.1,5.5-1.6c0.3-0.3,0.5-0.5,0.8-0.7c1.6-1.4,2.3-3.4,1.9-5.4l3.2-1.2c1,1.7,2.9,2.8,5,2.8h0.1c0.3,0,0.7,0,1,0
			C22.9,4.6,24.9,3.7,26,2l3.1,1.4c-0.5,1.9,0.1,4,1.6,5.5c0.3,0.2,0.5,0.5,0.7,0.8c1.4,1.6,3.5,2.3,5.4,1.9l1.2,3.2
			c-1.7,1-2.8,2.9-2.8,5c0,0.4,0,0.7,0,1.1c-0.1,2.1,0.8,4.1,2.5,5.2l-1.4,3.1c-1.9-0.5-4.1,0.1-5.5,1.6c-0.2,0.3-0.5,0.5-0.8,0.7
			c-1.6,1.4-2.3,3.4-1.9,5.4L25,38c-1-1.7-2.9-2.8-5-2.8h-0.1c-0.3,0-0.7,0-1,0C16.8,35.1,14.8,36,13.7,37.7z M17.2,112.5V81.6h11.1
			c0,0,0,0,0,0c0.4,0,0.8-0.3,0.8-0.8c0-0.2-0.1-0.4-0.2-0.5c-0.3-0.6-0.5-1.3-0.5-2c0-2.3,1.9-4.2,4.2-4.2c1.1,0,2.2,0.4,3,1.2
			c0.8,0.8,1.2,1.8,1.2,3c0,0.7-0.2,1.5-0.6,2.1c-0.1,0.2-0.1,0.5,0,0.8c0.1,0.2,0.4,0.4,0.7,0.4h11.1v11.2c0,0.3,0.1,0.5,0.4,0.7
			c0.2,0.1,0.5,0.1,0.8,0c0.7-0.4,1.4-0.6,2.1-0.6c2.3,0,4.2,1.9,4.2,4.2c0,2.3-1.9,4.2-4.2,4.2c-0.7,0-1.4-0.2-2.1-0.6
			c-0.2-0.1-0.5-0.1-0.8,0c-0.2,0.1-0.4,0.4-0.4,0.7v11.1H17.2z M83.4,92.9c2.3,0,4.2,1.9,4.2,4.2c0,2.3-1.9,4.2-4.2,4.2
			c-0.7,0-1.4-0.2-2.1-0.6c-0.2-0.1-0.5-0.1-0.8,0c-0.2,0.1-0.4,0.4-0.4,0.7v11.1H49.4v-10c0.6,0.2,1.1,0.3,1.7,0.3
			c3.1,0,5.7-2.6,5.7-5.7c0-3.1-2.6-5.7-5.7-5.7c-0.6,0-1.2,0.1-1.7,0.3v-10h11c0,0,0,0,0,0c0.4,0,0.8-0.3,0.8-0.8
			c0-0.2-0.1-0.4-0.2-0.5c-0.3-0.6-0.5-1.3-0.5-2c0-2.3,1.9-4.2,4.2-4.2c1.1,0,2.2,0.4,3,1.2c0.8,0.8,1.2,1.8,1.2,3
			c0,0.7-0.2,1.5-0.6,2.1c-0.1,0.2-0.1,0.5,0,0.8c0.1,0.2,0.4,0.4,0.7,0.4h11.1v11.2c0,0.3,0.1,0.5,0.4,0.7c0.2,0.1,0.5,0.1,0.8,0
			C81.9,93.1,82.6,92.9,83.4,92.9z M112.3,80.1h-9.9c0.2-0.6,0.3-1.1,0.3-1.7c0-1.5-0.6-3-1.7-4c-1.1-1.1-2.5-1.7-4-1.7
			c-3.1,0-5.7,2.6-5.7,5.7c0,0.6,0.1,1.2,0.3,1.7h-9.9l0-10c0.6,0.2,1.1,0.3,1.7,0.3c1.5,0,3-0.6,4-1.7c1.1-1.1,1.7-2.5,1.7-4
			c0-1.5-0.6-2.9-1.7-4c-1.1-1.1-2.5-1.7-4-1.7c-0.6,0-1.2,0.1-1.7,0.3v-10h11.1c0,0,0,0,0,0c0.4,0,0.8-0.3,0.8-0.8
			c0-0.2-0.1-0.4-0.2-0.5c-0.3-0.6-0.5-1.3-0.5-2c0-2.3,1.9-4.2,4.2-4.2c1.1,0,2.2,0.4,3,1.2c0.8,0.8,1.2,1.8,1.2,3
			c0,0.7-0.2,1.5-0.6,2.1c-0.1,0.2-0.1,0.5,0,0.8c0.1,0.2,0.4,0.4,0.7,0.4h11.1V80.1z M112.3,47.8h-9.9c0.2-0.6,0.3-1.1,0.3-1.7
			c0-1.5-0.6-3-1.7-4c-1.1-1.1-2.5-1.7-4-1.7c-3.1,0-5.7,2.6-5.7,5.7c0,0.6,0.1,1.2,0.3,1.7h-9.9v-10c0.6,0.2,1.1,0.3,1.7,0.3
			c3.1,0,5.7-2.6,5.7-5.7c0-3.1-2.6-5.7-5.7-5.7c-0.6,0-1.2,0.1-1.7,0.3V17h30.7V47.8z"/>
		<g>
			<path fill="#231F20" d="M19.9,32.8c-0.2,0-0.5,0-0.7,0l0.1-1.5c0.2,0,0.4,0,0.6,0l0.3,0l0,1.5L19.9,32.8z M22.3,32.6L22,31.1
				c0.3-0.1,0.6-0.1,0.9-0.2l0.4,1.4C23,32.5,22.6,32.6,22.3,32.6z M17,32.5c-0.3-0.1-0.7-0.2-1-0.3l0.4-1.4
				c0.3,0.1,0.6,0.2,0.9,0.2L17,32.5z M25.3,31.6l-0.6-1.4c0.3-0.1,0.6-0.3,0.8-0.4l0.7,1.3C25.9,31.3,25.6,31.5,25.3,31.6z
				 M14,31.5c-0.3-0.2-0.6-0.3-0.9-0.5l0.8-1.3c0.3,0.2,0.5,0.3,0.8,0.5L14,31.5z M28,30l-0.9-1.2c0.2-0.2,0.5-0.4,0.7-0.6l1,1.1
				C28.6,29.5,28.3,29.8,28,30z M11.4,29.7c-0.3-0.2-0.5-0.5-0.8-0.7l1.1-1.1c0.2,0.2,0.4,0.4,0.7,0.6L11.4,29.7z M30.2,27.7
				L29,26.8c0.2-0.2,0.4-0.5,0.5-0.8l1.3,0.8C30.6,27.1,30.4,27.4,30.2,27.7z M9.2,27.4c-0.2-0.3-0.4-0.6-0.6-0.9l1.3-0.8
				c0.2,0.3,0.3,0.5,0.5,0.8L9.2,27.4z M31.8,24.9l-1.4-0.6c0.1-0.3,0.2-0.6,0.3-0.9l1.4,0.5C32.1,24.3,32,24.6,31.8,24.9z
				 M7.7,24.6c-0.1-0.3-0.2-0.7-0.3-1l1.4-0.4C8.9,23.4,9,23.7,9.1,24L7.7,24.6z M32.7,21.9l-1.5-0.2c0-0.3,0.1-0.6,0.1-0.9l1.5,0.1
				C32.8,21.2,32.8,21.5,32.7,21.9z M7,21.5c0-0.4-0.1-0.7-0.1-1.1l1.5-0.1c0,0.3,0,0.6,0.1,0.9L7,21.5z M31.3,18.9
				c0-0.3-0.1-0.6-0.1-0.9l1.5-0.3c0.1,0.3,0.1,0.7,0.1,1.1L31.3,18.9z M8.4,18.5L7,18.3c0-0.3,0.1-0.7,0.2-1l1.5,0.3
				C8.5,17.9,8.5,18.2,8.4,18.5z M30.7,16.1c-0.1-0.3-0.2-0.6-0.3-0.9l1.4-0.6c0.1,0.3,0.3,0.7,0.4,1L30.7,16.1z M9.1,15.8l-1.4-0.5
				C7.8,15,7.9,14.8,8,14.5l0.1-0.3l1.4,0.6l-0.1,0.3C9.3,15.4,9.2,15.6,9.1,15.8z M29.5,13.6c-0.2-0.3-0.4-0.5-0.5-0.8l1.2-0.9
				c0.2,0.3,0.4,0.6,0.6,0.9L29.5,13.6z M10.4,13.3l-1.2-0.9c0.2-0.3,0.4-0.6,0.6-0.8l1.2,1C10.8,12.8,10.6,13,10.4,13.3z
				 M27.7,11.4c-0.2-0.2-0.5-0.4-0.7-0.6l0.9-1.2c0.3,0.2,0.5,0.4,0.8,0.7L27.7,11.4z M12.3,11.2l-1-1.1c0.3-0.2,0.5-0.5,0.8-0.7
				l0.9,1.2C12.8,10.8,12.5,11,12.3,11.2z M25.4,9.8c-0.3-0.1-0.6-0.3-0.8-0.4L25.2,8c0.3,0.1,0.6,0.3,0.9,0.5L25.4,9.8z M14.6,9.6
				L14,8.3c0.3-0.2,0.6-0.3,1-0.4l0.6,1.4C15.2,9.3,14.9,9.5,14.6,9.6z M23.7,9c-0.3-0.1-0.6-0.2-0.9-0.3l0.4-1.4
				c0.3,0.1,0.7,0.2,1,0.3L23.7,9z M17.3,8.7l-0.3-1.5c0.3-0.1,0.7-0.1,1-0.2l0.2,1.5C17.9,8.5,17.6,8.6,17.3,8.7z M21,8.4
				c-0.3,0-0.6-0.1-0.9-0.1l0-1.5c0.4,0,0.7,0,1.1,0.1L21,8.4z"/>
		</g>
		<g>
			<circle fill="#FFD05B" cx="19.9" cy="19.9" r="9.7"/>
		</g>
		<g>
			<circle fill="#FFFFFF" cx="19.9" cy="19.9" r="4.9"/>
			<path fill="#231F20" d="M19.9,25.5c-0.8,0-1.6-0.2-2.3-0.5c-1.4-0.6-2.4-1.7-2.9-3.1c-0.5-1.4-0.5-2.9,0.1-4.3
				c0.9-2,2.9-3.3,5.1-3.3c0.8,0,1.6,0.2,2.3,0.5c1.4,0.6,2.4,1.7,2.9,3.1c0.5,1.4,0.5,2.9-0.1,4.3C24.1,24.2,22.1,25.5,19.9,25.5z
				 M19.9,15.7c-1.6,0-3.1,1-3.8,2.4c-0.4,1-0.5,2.1-0.1,3.1c0.4,1,1.2,1.8,2.2,2.3c0.5,0.2,1.1,0.4,1.7,0.4c1.6,0,3.1-1,3.8-2.4
				c0.4-1,0.5-2.1,0.1-3.1c-0.4-1-1.2-1.8-2.2-2.3C21,15.9,20.4,15.7,19.9,15.7z"/>
		</g>
		<g>
			<circle fill="#E6E9EE" cx="84.6" cy="4.5" r="3.7"/>
		</g>
		<g>
			<circle fill="#84DBFF" cx="4.5" cy="61.1" r="3.7"/>
		</g>
		<g>
			<circle fill="#FFD05B" cx="77.1" cy="124.8" r="3.7"/>
		</g>
		<circle fill="#FFFFFF" cx="103.2" cy="114" r="14.8"/>
		<circle fill="#FF7058" cx="103.2" cy="114" r="4"/>
		<path fill="#231F20" d="M129.5,93.9c-0.1-0.3-0.3-0.5-0.6-0.5l-4.4-0.6l-0.6-4.4c0-0.3-0.2-0.5-0.5-0.6c-0.3-0.1-0.6,0-0.8,0.2
			l-5.7,5.7c-0.2,0.2-0.2,0.4-0.2,0.6l0.7,4.6l-3.5,3.5c-2.8-2.5-6.4-4.1-10.4-4.1c-8.6,0-15.5,7-15.5,15.5s7,15.5,15.5,15.5
			s15.5-7,15.5-15.5c0-4-1.5-7.7-4.1-10.4l3.5-3.5l4.6,0.7c0,0,0.1,0,0.1,0c0.2,0,0.4-0.1,0.5-0.2l5.7-5.7
			C129.5,94.5,129.6,94.2,129.5,93.9z M122.5,90l0.4,3.1l-4.4,4.4l-0.4-3.1L122.5,90z M117.3,114c0,7.7-6.3,14-14,14
			c-7.7,0-14-6.3-14-14s6.3-14,14-14c3.6,0,6.9,1.4,9.4,3.6l-1.7,1.7c-2-1.8-4.7-2.9-7.7-2.9c-6.4,0-11.6,5.2-11.6,11.6
			c0,6.4,5.2,11.6,11.6,11.6c6.4,0,11.6-5.2,11.6-11.6c0-2.9-1.1-5.6-2.9-7.7l1.7-1.7C115.9,107.1,117.3,110.4,117.3,114z
			 M102.7,114.5c0.1,0.1,0.3,0.2,0.5,0.2c0.2,0,0.4-0.1,0.5-0.2l4.4-4.4c0.8,1.1,1.4,2.4,1.4,3.9c0,3.5-2.8,6.3-6.3,6.3
			c-3.5,0-6.3-2.8-6.3-6.3c0-3.5,2.8-6.3,6.3-6.3c1.5,0,2.8,0.5,3.9,1.4l-4.4,4.4C102.4,113.7,102.4,114.2,102.7,114.5z
			 M108.2,107.9c-1.3-1.1-3.1-1.8-5-1.8c-4.3,0-7.8,3.5-7.8,7.8c0,4.3,3.5,7.8,7.8,7.8c4.3,0,7.8-3.5,7.8-7.8c0-1.9-0.7-3.6-1.8-5
			l1.6-1.6c1.5,1.8,2.5,4.1,2.5,6.6c0,5.6-4.5,10.1-10.1,10.1c-5.6,0-10.1-4.5-10.1-10.1c0-5.6,4.5-10.1,10.1-10.1
			c2.5,0,4.8,0.9,6.6,2.5L108.2,107.9z M122.7,99.1l-3.1-0.4l4.4-4.4l3.1,0.4L122.7,99.1z"/>
	</g>
</g>
</svg>
