<?xml version="1.0" encoding="utf-8"?>
<!-- Generator: Adobe Illustrator 18.0.0, SVG Export Plug-In . SVG Version: 6.00 Build 0)  -->
<!DOCTYPE svg PUBLIC "-//W3C//DTD SVG 1.1//EN" "http://www.w3.org/Graphics/SVG/1.1/DTD/svg11.dtd">
<svg version="1.1" id="Layer_1" xmlns="http://www.w3.org/2000/svg" xmlns:xlink="http://www.w3.org/1999/xlink" x="0px" y="0px"
	 viewBox="0 0 129.5 129.5" enable-background="new 0 0 129.5 129.5" xml:space="preserve">
<g>
	<g>
		<circle fill="#84DBFF" cx="37.5" cy="5.5" r="2.6"/>
		<circle fill="#E6E9EE" cx="116.6" cy="25.9" r="2.6"/>
		<circle fill="#FF7058" cx="18.4" cy="61" r="2.6"/>
		<g>
			<path fill="#231F20" d="M88.2,2.7c-0.2,0-0.4-0.1-0.5-0.2c-0.3-0.3-0.3-0.8,0-1.1l1.2-1.2c0.3-0.3,0.8-0.3,1.1,0s0.3,0.8,0,1.1
				l-1.2,1.2C88.6,2.6,88.4,2.7,88.2,2.7z"/>
		</g>
		<g>
			<path fill="#231F20" d="M84.6,6.3c-0.2,0-0.4-0.1-0.5-0.2c-0.3-0.3-0.3-0.8,0-1.1l1.2-1.2c0.3-0.3,0.8-0.3,1.1,0
				c0.3,0.3,0.3,0.8,0,1.1L85.1,6C85,6.2,84.8,6.3,84.6,6.3z"/>
		</g>
		<g>
			<path fill="#231F20" d="M89.3,6.3c-0.2,0-0.4-0.1-0.5-0.2l-1.2-1.2c-0.3-0.3-0.3-0.8,0-1.1c0.3-0.3,0.8-0.3,1.1,0L89.9,5
				c0.3,0.3,0.3,0.8,0,1.1C89.7,6.2,89.5,6.3,89.3,6.3z"/>
		</g>
		<g>
			<path fill="#231F20" d="M85.7,2.7c-0.2,0-0.4-0.1-0.5-0.2L84,1.3c-0.3-0.3-0.3-0.8,0-1.1c0.3-0.3,0.8-0.3,1.1,0l1.2,1.2
				c0.3,0.3,0.3,0.8,0,1.1C86.1,2.6,85.9,2.7,85.7,2.7z"/>
		</g>
		<g>
			<path fill="#231F20" d="M15.3,33c-0.2,0-0.4-0.1-0.5-0.2c-0.3-0.3-0.3-0.8,0-1.1l1.2-1.2c0.3-0.3,0.8-0.3,1.1,0
				c0.3,0.3,0.3,0.8,0,1.1l-1.2,1.2C15.6,32.9,15.4,33,15.3,33z"/>
		</g>
		<g>
			<path fill="#231F20" d="M11.7,36.6c-0.2,0-0.4-0.1-0.5-0.2c-0.3-0.3-0.3-0.8,0-1.1l1.2-1.2c0.3-0.3,0.8-0.3,1.1,0
				c0.3,0.3,0.3,0.8,0,1.1l-1.2,1.2C12,36.5,11.8,36.6,11.7,36.6z"/>
		</g>
		<g>
			<path fill="#231F20" d="M16.4,36.6c-0.2,0-0.4-0.1-0.5-0.2l-1.2-1.2c-0.3-0.3-0.3-0.8,0-1.1c0.3-0.3,0.8-0.3,1.1,0l1.2,1.2
				c0.3,0.3,0.3,0.8,0,1.1C16.8,36.5,16.6,36.6,16.4,36.6z"/>
		</g>
		<g>
			<path fill="#231F20" d="M12.8,33c-0.2,0-0.4-0.1-0.5-0.2l-1.2-1.2c-0.3-0.3-0.3-0.8,0-1.1c0.3-0.3,0.8-0.3,1.1,0l1.2,1.2
				c0.3,0.3,0.3,0.8,0,1.1C13.2,32.9,13,33,12.8,33z"/>
		</g>
		<g>
			<g>
				<path fill="#231F20" d="M115.5,52.2c-0.2,0-0.4-0.1-0.5-0.2c-0.3-0.3-0.3-0.8,0-1.1l1.2-1.2c0.3-0.3,0.8-0.3,1.1,0
					c0.3,0.3,0.3,0.8,0,1.1L116,52C115.9,52.2,115.7,52.2,115.5,52.2z"/>
			</g>
			<g>
				<path fill="#231F20" d="M111.9,55.8c-0.2,0-0.4-0.1-0.5-0.2c-0.3-0.3-0.3-0.8,0-1.1l1.2-1.2c0.3-0.3,0.8-0.3,1.1,0
					c0.3,0.3,0.3,0.8,0,1.1l-1.2,1.2C112.3,55.8,112.1,55.8,111.9,55.8z"/>
			</g>
			<g>
				<path fill="#231F20" d="M116.6,55.8c-0.2,0-0.4-0.1-0.5-0.2l-1.2-1.2c-0.3-0.3-0.3-0.8,0-1.1c0.3-0.3,0.8-0.3,1.1,0l1.2,1.2
					c0.3,0.3,0.3,0.8,0,1.1C117,55.8,116.8,55.8,116.6,55.8z"/>
			</g>
			<g>
				<path fill="#231F20" d="M113,52.2c-0.2,0-0.4-0.1-0.5-0.2l-1.2-1.2c-0.3-0.3-0.3-0.8,0-1.1c0.3-0.3,0.8-0.3,1.1,0l1.2,1.2
					c0.3,0.3,0.3,0.8,0,1.1C113.4,52.2,113.2,52.2,113,52.2z"/>
			</g>
		</g>
		
			<path fill="none" stroke="#231F20" stroke-width="1.5" stroke-linecap="round" stroke-linejoin="round" stroke-miterlimit="10" d="
			M83,70.5"/>
		<path fill="#FFFFFF" d="M87.6,74.1H41.9V53.7c0-5.3,4.3-9.7,9.7-9.7H78c5.3,0,9.7,4.3,9.7,9.7V74.1z"/>
		<path fill="#FFFFFF" d="M68.8,40v3.7l-4,2.3l-4-2.3V40c1.2,1,2.6,1.6,4,1.6C66.2,41.6,67.6,41,68.8,40z"/>
		<path fill="#FFFFFF" d="M74.4,29.8c-0.2-0.1-0.4-0.1-0.6,0c0.1-0.8,0.2-1.6,0.2-2.4c0-6.8-4.1-9.3-9.2-9.3c-5.1,0-9.2,2.5-9.2,9.3
			c0,0.8,0.1,1.6,0.2,2.4c-0.2-0.1-0.4-0.1-0.6,0c-0.6,0.3-0.6,1.4-0.1,2.4c0.4,0.9,1.1,1.4,1.7,1.5c1.6,4.4,4.6,7.9,8.1,7.9
			c3.5,0,6.5-3.5,8.1-7.9c0.5,0,1.2-0.6,1.7-1.5C75,31.2,75,30.1,74.4,29.8z"/>
		<polygon fill="#FFFFFF" points="86.4,128.7 43.1,128.7 37.5,78.3 92,78.3 		"/>
		<rect x="33.2" y="68.9" fill="#FFFFFF" width="63" height="9.4"/>
		<path fill="#FFFFFF" d="M88.3,114v-1.4c0-1,0.7-2,1.7-2.3l8.7-3.5l1.7-1.8h8.1l1.7,1.8l8.7,3.5c1,0.3,1.7,1.2,1.7,2.3v1.4"/>
		<path fill="#FFFFFF" d="M97.6,97.5c0.9,2.5,2.3,4.6,4.1,5.8v1.7h5.7v-1.7c1.7-1.2,3.2-3.3,4.1-5.8c0.5,0,1-0.5,1.4-1.2
			c0.5-0.9,0.4-1.8-0.1-2.1c-0.2-0.1-0.3-0.1-0.5,0c0.1-0.7,0.1-1.4,0.1-2c0-5.8-3.5-8-7.8-8c-4.3,0-7.8,2.1-7.8,8
			c0,0.7,0,1.4,0.1,2c-0.2-0.1-0.4-0.1-0.5,0c-0.5,0.2-0.5,1.2-0.1,2.1C96.6,97,97.1,97.5,97.6,97.5z"/>
		<path fill="#FFFFFF" d="M122,128.7v-11.9c0-2.1-1.7-3.7-3.7-3.7H90.7c-2.1,0-3.7,1.7-3.7,3.7v11.9H122z"/>
		<path fill="#FF7058" d="M88.7,127v-10.1c0-1.1,0.9-1.9,1.9-1.9h27.6c1.1,0,1.9,0.9,1.9,1.9V127H88.7z"/>
		<path fill="#FFFFFF" d="M48.6,114v-1.4c0-1,0.7-2,1.7-2.3l8.7-3.5l1.7-1.8h8.1l1.7,1.8l8.7,3.5c1,0.3,1.7,1.2,1.7,2.3v1.4"/>
		<path fill="#FFFFFF" d="M57.9,97.5c0.9,2.5,2.3,4.6,4.1,5.8v1.7h5.7v-1.7c1.7-1.2,3.2-3.3,4.1-5.8c0.5,0,1-0.5,1.4-1.2
			c0.5-0.9,0.4-1.8-0.1-2.1c-0.2-0.1-0.3-0.1-0.5,0c0.1-0.7,0.1-1.4,0.1-2c0-5.8-3.5-8-7.8-8s-7.8,2.1-7.8,8c0,0.7,0,1.4,0.1,2
			c-0.2-0.1-0.4-0.1-0.5,0c-0.5,0.2-0.5,1.2-0.1,2.1C56.8,97,57.4,97.5,57.9,97.5z"/>
		<path fill="#FFFFFF" d="M82.3,128.7v-11.9c0-2.1-1.7-3.7-3.7-3.7H50.9c-2.1,0-3.7,1.7-3.7,3.7v11.9H82.3z"/>
		<path fill="#FF7058" d="M49,127v-10.1c0-1.1,0.9-1.9,1.9-1.9h27.6c1.1,0,1.9,0.9,1.9,1.9V127H49z"/>
		<path fill="#FFFFFF" d="M8.9,114v-1.4c0-1,0.7-2,1.7-2.3l8.7-3.5l1.7-1.8h8.1l1.7,1.8l8.7,3.5c1,0.3,1.7,1.2,1.7,2.3v1.4"/>
		<path fill="#FFFFFF" d="M18.1,97.5c0.9,2.5,2.3,4.6,4.1,5.8v1.7h5.7v-1.7c1.7-1.2,3.2-3.3,4.1-5.8c0.5,0,1-0.5,1.4-1.2
			c0.5-0.9,0.4-1.8-0.1-2.1c-0.2-0.1-0.3-0.1-0.5,0c0.1-0.7,0.1-1.4,0.1-2c0-5.8-3.5-8-7.8-8c-4.3,0-7.8,2.1-7.8,8
			c0,0.7,0,1.4,0.1,2c-0.2-0.1-0.4-0.1-0.5,0c-0.5,0.2-0.5,1.2-0.1,2.1C17.1,97,17.7,97.5,18.1,97.5z"/>
		<path fill="#FFFFFF" d="M42.6,128.7v-11.9c0-2.1-1.7-3.7-3.7-3.7H11.2c-2.1,0-3.7,1.7-3.7,3.7v11.9H42.6z"/>
		<path fill="#FF7058" d="M9.3,127v-10.1c0-1.1,0.9-1.9,1.9-1.9h27.6c1.1,0,1.9,0.9,1.9,1.9V127H9.3z"/>
		<rect x="100.9" y="107.9" fill="#231F20" width="7.2" height="1.5"/>
		<rect x="61.1" y="107.9" fill="#231F20" width="7.2" height="1.5"/>
		<rect x="21.4" y="107.9" fill="#231F20" width="7.2" height="1.5"/>
		<path fill="#FFD05B" d="M70.5,58.1c-1.1,0-2-0.7-2.2-1.8l-1.1-5.9c-0.2-1.2,0.6-2.4,1.8-2.6c1.2-0.2,2.4,0.6,2.6,1.8l1.1,5.9
			c0.2,1.2-0.6,2.4-1.8,2.6C70.8,58.1,70.6,58.1,70.5,58.1z"/>
		<path fill="#231F20" d="M128.8,13.4H0.8c-0.4,0-0.8,0.3-0.8,0.8v66.2c0,0.4,0.3,0.8,0.8,0.8h36.3l3.1,28.7
			c-0.2-0.1-0.3-0.2-0.5-0.2l-8.6-3.4l-1.5-1.7c-0.1-0.2-0.3-0.2-0.6-0.2h-0.5v-0.5c1.6-1.2,3-3.1,3.9-5.5c0.6-0.2,1.1-0.8,1.5-1.5
			c0.3-0.5,0.4-1.1,0.4-1.6c0-0.7-0.3-1.2-0.8-1.4c0,0,0,0,0,0c0-0.5,0.1-0.9,0.1-1.3c0-5.5-3.1-8.7-8.6-8.7c-5.4,0-8.6,3.2-8.6,8.7
			c0,0.4,0,0.9,0.1,1.3c0,0,0,0,0,0c-0.5,0.2-0.8,0.8-0.8,1.4c0,0.5,0.1,1.1,0.4,1.6c0.4,0.8,0.9,1.3,1.5,1.5
			c0.9,2.4,2.3,4.3,3.9,5.5v0.5h-0.5c-0.2,0-0.4,0.1-0.6,0.2l-1.5,1.7l-8.5,3.4c-1.3,0.4-2.2,1.6-2.2,3v1c-0.9,0.8-1.4,2-1.4,3.2
			v11.9c0,0.4,0.3,0.8,0.8,0.8H122c0.4,0,0.8-0.3,0.8-0.8v-11.9c0-1.3-0.5-2.4-1.4-3.2v-1c0-1.4-0.9-2.6-2.2-3l-8.6-3.4l-1.5-1.7
			c-0.1-0.2-0.3-0.2-0.6-0.2h-0.5v-0.5c1.6-1.2,3-3.1,3.9-5.5c0.6-0.2,1.1-0.8,1.5-1.5c0.3-0.5,0.4-1.1,0.4-1.6
			c0-0.7-0.3-1.2-0.8-1.4c0,0,0,0,0,0c0-0.5,0.1-0.9,0.1-1.3c0-5.5-3.1-8.7-8.6-8.7c-5.4,0-8.6,3.2-8.6,8.7c0,0.4,0,0.9,0.1,1.3
			c0,0,0,0,0,0c-0.5,0.2-0.8,0.8-0.8,1.4c0,0.5,0.1,1.1,0.4,1.6c0.4,0.8,0.9,1.3,1.5,1.5c0.9,2.4,2.3,4.3,3.9,5.5v0.5h-0.5
			c-0.2,0-0.4,0.1-0.6,0.2l-1.5,1.7l-8.5,3.4c-0.2,0.1-0.4,0.1-0.6,0.2l3.2-28.7h36.3c0.4,0,0.8-0.3,0.8-0.8V14.2
			C129.5,13.8,129.2,13.4,128.8,13.4z M18.8,97.3c-0.1-0.3-0.4-0.5-0.7-0.5c-0.1,0-0.5-0.2-0.8-0.8c-0.2-0.5-0.3-0.8-0.2-1
			c0.2,0.1,0.5,0,0.6-0.2c0.2-0.2,0.3-0.4,0.3-0.7c-0.1-0.7-0.1-1.3-0.1-1.9c0-6,3.8-7.2,7.1-7.2c3.2,0,7.1,1.2,7.1,7.2
			c0,0.6,0,1.3-0.1,1.9c0,0.3,0.1,0.5,0.3,0.7c0.2,0.1,0.4,0.2,0.6,0.2c0,0.2,0,0.6-0.2,1c-0.3,0.6-0.7,0.8-0.8,0.8
			c-0.3,0-0.6,0.2-0.7,0.5c-0.9,2.4-2.2,4.4-3.8,5.4c-0.2,0.1-0.3,0.4-0.3,0.6v0.9h-4.2v-0.9c0-0.3-0.1-0.5-0.3-0.6
			C21.1,101.7,19.7,99.7,18.8,97.3z M9.6,112.6c0-0.7,0.5-1.3,1.2-1.6l8.7-3.5c0.1,0,0.2-0.1,0.3-0.2l1.4-1.6h7.5l1.4,1.6
			c0.1,0.1,0.2,0.2,0.3,0.2l8.8,3.5c0.7,0.2,1.2,0.8,1.2,1.5v0.1c-0.5-0.2-1-0.3-1.6-0.3H11.2C10.6,112.4,10.1,112.5,9.6,112.6
			L9.6,112.6z M41.8,128H8.2v-11.2c0-1.6,1.3-3,3-3h27.6c1.6,0,3,1.3,3,3V128z M81.5,128H48v-11.2c0-1.6,1.3-3,3-3h27.6
			c1.6,0,3,1.3,3,3V128z M57.7,92.2c0-6,3.8-7.2,7.1-7.2c3.2,0,7.1,1.2,7.1,7.2c0,0.6,0,1.3-0.1,1.9c0,0.3,0.1,0.5,0.3,0.7
			c0.2,0.1,0.4,0.2,0.6,0.2c0,0.2,0,0.6-0.2,1c-0.3,0.6-0.7,0.8-0.8,0.8c-0.3,0-0.6,0.2-0.7,0.5c-0.9,2.4-2.2,4.4-3.8,5.4
			c-0.2,0.1-0.3,0.4-0.3,0.6v0.9h-4.2v-0.9c0-0.3-0.1-0.5-0.3-0.6c-1.5-1-2.9-3-3.8-5.4c-0.1-0.3-0.4-0.5-0.7-0.5
			c-0.1,0-0.5-0.2-0.8-0.8c-0.2-0.5-0.3-0.8-0.2-1c0.2,0.1,0.5,0,0.6-0.1c0.2-0.2,0.3-0.4,0.3-0.7C57.7,93.4,57.7,92.8,57.7,92.2z
			 M68.5,105.7l1.4,1.6c0.1,0.1,0.2,0.2,0.3,0.2l8.8,3.5c0.7,0.2,1.2,0.8,1.2,1.5v0.1c-0.5-0.2-1-0.3-1.6-0.3H50.9
			c-0.6,0-1.1,0.1-1.6,0.3v-0.1c0-0.7,0.5-1.3,1.2-1.6l8.7-3.5c0.1,0,0.2-0.1,0.3-0.2l1.4-1.6H68.5z M121.3,116.8V128H87.7v-11.2
			c0-1.6,1.3-3,3-3h27.6C119.9,113.9,121.3,115.2,121.3,116.8z M98.3,97.3c-0.1-0.3-0.4-0.5-0.7-0.5c-0.1,0-0.5-0.2-0.8-0.8
			c-0.2-0.5-0.3-0.8-0.2-1c0.2,0.1,0.5,0,0.6-0.2c0.2-0.2,0.3-0.4,0.3-0.7c-0.1-0.7-0.1-1.3-0.1-1.9c0-6,3.8-7.2,7.1-7.2
			c3.2,0,7.1,1.2,7.1,7.2c0,0.6,0,1.3-0.1,1.9c0,0.3,0.1,0.5,0.3,0.7c0.2,0.1,0.4,0.2,0.6,0.2c0,0.2,0,0.6-0.2,1
			c-0.3,0.6-0.7,0.8-0.8,0.8c-0.3,0-0.6,0.2-0.7,0.5c-0.9,2.4-2.2,4.4-3.8,5.4c-0.2,0.1-0.3,0.4-0.3,0.6v0.9h-4.2v-0.9
			c0-0.3-0.1-0.5-0.3-0.6C100.5,101.7,99.2,99.7,98.3,97.3z M90.3,111l8.7-3.5c0.1,0,0.2-0.1,0.3-0.2l1.4-1.6h7.5l1.4,1.6
			c0.1,0.1,0.2,0.2,0.3,0.2l8.8,3.5c0.7,0.2,1.2,0.8,1.2,1.5v0.1c-0.5-0.2-1-0.3-1.6-0.3H90.7c-0.6,0-1.1,0.1-1.6,0.3v-0.1
			C89.1,111.9,89.6,111.3,90.3,111z M87.3,113.9c-0.7,0.8-1.1,1.8-1.1,2.9v7.2l-0.4,4H83v-11.2c0-1.3-0.5-2.4-1.4-3.2v-1
			c0-1.4-0.9-2.6-2.2-3l-8.6-3.4l-1.5-1.7c-0.1-0.2-0.3-0.2-0.6-0.2h-0.5v-0.5c1.6-1.2,3-3.1,3.9-5.5c0.6-0.2,1.1-0.8,1.5-1.5
			c0.3-0.5,0.4-1.1,0.4-1.6c0-0.7-0.3-1.2-0.8-1.4c0,0,0,0,0,0c0-0.5,0.1-0.9,0.1-1.3c0-5.5-3.1-8.7-8.6-8.7c-5.4,0-8.6,3.2-8.6,8.7
			c0,0.4,0,0.9,0.1,1.3c0,0,0,0,0,0c-0.5,0.2-0.8,0.8-0.8,1.4c0,0.5,0.1,1.1,0.4,1.6c0.4,0.8,0.9,1.3,1.5,1.5
			c0.9,2.4,2.3,4.3,3.9,5.5v0.5h-0.5c-0.2,0-0.4,0.1-0.6,0.2l-1.5,1.7l-8.5,3.4c-1.3,0.4-2.2,1.6-2.2,3v1c-0.9,0.8-1.4,2-1.4,3.2
			V128h-2.7l-0.4-4v-7.2c0-1.1-0.4-2.1-1.1-2.9L38.4,79h52.8L87.3,113.9z M34,77.5v-7.9h61.5v7.9H34z M56.3,27.4
			c0-7.1,4.6-8.6,8.4-8.6s8.4,1.5,8.4,8.6c0,0.7-0.1,1.5-0.2,2.3c0,0.3,0.1,0.5,0.3,0.7c0.2,0.2,0.5,0.2,0.7,0.1
			c0.1,0.1,0.2,0.7-0.2,1.5c-0.4,0.7-0.8,1-1,1c-0.3,0-0.6,0.2-0.7,0.5c-1.6,4.5-4.5,7.4-7.4,7.4s-5.8-2.9-7.4-7.4
			C57.3,33.2,57,33,56.7,33c-0.2,0-0.7-0.3-1-1c-0.4-0.8-0.3-1.3-0.2-1.4c0.2,0.1,0.5,0,0.7-0.1c0.2-0.2,0.3-0.4,0.3-0.7
			C56.4,28.9,56.3,28.2,56.3,27.4z M61.5,41.4c1.1,0.6,2.2,1,3.3,1c1.1,0,2.2-0.3,3.3-1l0,0v1.9l-3.3,1.9l-3.3-1.9L61.5,41.4
			L61.5,41.4z M61.1,44.8l3.3,1.8c0.1,0.1,0.2,0.1,0.4,0.1c0.1,0,0.3,0,0.4-0.1l3.3-1.8H78c4.9,0,8.9,4,8.9,8.9v14.5h-6.5V57.8
			c0-0.4-0.3-0.8-0.8-0.8s-0.8,0.3-0.8,0.8v10.4h-6.3v-4.8c0,0,0-0.1,0-0.1l-0.9-4.6c0.5-0.2,0.9-0.6,1.2-1c0.4-0.7,0.6-1.5,0.5-2.2
			l-1.1-5.9c-0.3-1.6-1.9-2.7-3.5-2.4c-0.8,0.2-1.5,0.6-1.9,1.3c-0.4,0.7-0.6,1.5-0.5,2.2l1.1,5.9c0.3,1.3,1.4,2.3,2.7,2.4l0.9,4.6
			v4.7H50.6V57.8c0-0.4-0.3-0.8-0.8-0.8c-0.4,0-0.8,0.3-0.8,0.8v10.4h-6.5V53.7c0-4.9,4-8.9,8.9-8.9H61.1z M71.7,56.7
			c-0.2,0.3-0.6,0.6-0.9,0.6C70,57.5,69.2,57,69,56.2l-1.1-5.9c-0.1-0.4,0-0.8,0.2-1.1c0.2-0.3,0.6-0.6,1-0.6c0.1,0,0.2,0,0.3,0
			c0.7,0,1.3,0.5,1.5,1.2l1.1,5.9C72,56,71.9,56.4,71.7,56.7z M128,79.6H92.6l0.1-0.6h3.6c0.4,0,0.8-0.3,0.8-0.8v-9.4
			c0-0.4-0.3-0.8-0.8-0.8h-7.9V53.7c0-5.7-4.7-10.4-10.4-10.4h-8.4v-3c1.6-1.4,2.9-3.4,3.9-5.9c0.7-0.3,1.3-0.9,1.8-1.8
			c0.7-1.5,0.6-3-0.4-3.5c0,0-0.1,0-0.1-0.1c0.1-0.6,0.1-1.1,0.1-1.7c0-6.4-3.6-10.1-9.9-10.1c-6.3,0-9.9,3.7-9.9,10.1
			c0,0.5,0,1.1,0.1,1.7c0,0-0.1,0-0.1,0.1c-0.5,0.3-0.8,0.8-0.9,1.6c0,0.6,0.1,1.3,0.5,1.9c0.4,0.9,1.1,1.5,1.8,1.8
			c0.9,2.5,2.3,4.6,3.9,5.9v3h-8.4c-5.7,0-10.4,4.7-10.4,10.4v14.5h-7.9c-0.4,0-0.8,0.3-0.8,0.8v9.4c0,0.4,0.3,0.8,0.8,0.8h3.6
			l0.1,0.6H1.5V14.9H128V79.6z"/>
		<g>
			<g>
				<line fill="#FFFFFF" x1="87.5" y1="32.1" x2="96.2" y2="32.1"/>
				<path fill="#231F20" d="M96.2,32.9h-8.7c-0.4,0-0.8-0.3-0.8-0.8s0.3-0.8,0.8-0.8h8.7c0.4,0,0.8,0.3,0.8,0.8S96.6,32.9,96.2,32.9
					z"/>
			</g>
			<g>
				<line fill="#FFFFFF" x1="95.4" y1="35.3" x2="99.6" y2="35.3"/>
				<path fill="#231F20" d="M99.6,36h-4.3c-0.4,0-0.8-0.3-0.8-0.8c0-0.4,0.3-0.8,0.8-0.8h4.3c0.4,0,0.8,0.3,0.8,0.8
					C100.4,35.7,100.1,36,99.6,36z"/>
			</g>
			<g>
				<line fill="#FFFFFF" x1="100.2" y1="32.1" x2="104.2" y2="32.1"/>
				<path fill="#231F20" d="M104.2,32.9h-4.1c-0.4,0-0.8-0.3-0.8-0.8s0.3-0.8,0.8-0.8h4.1c0.4,0,0.8,0.3,0.8,0.8
					S104.6,32.9,104.2,32.9z"/>
			</g>
			<g>
				<line fill="#FFFFFF" x1="91.5" y1="35.3" x2="92.3" y2="35.3"/>
				<path fill="#231F20" d="M92.3,36h-0.8c-0.4,0-0.8-0.3-0.8-0.8c0-0.4,0.3-0.8,0.8-0.8h0.8c0.4,0,0.8,0.3,0.8,0.8
					C93,35.7,92.7,36,92.3,36z"/>
			</g>
		</g>
	</g>
</g>
</svg>
